<svg xmlns="http://www.w3.org/2000/svg" version="1.1" width="939px" height="221.3px" viewBox="0 0 939 221.3"><desc>Inner Being CT Scan Reveals a Sacred Surprise</desc><defs/><g id="Polygon46496"><path d="m1.9 157.6c.9 1.5 2.4 2.3 4.3 2.3c2.3 0 4.2-1.4 4.2-3.6c0-5.2-9.6-2.2-9.6-9.3c0-3.3 2.8-5 5.9-5c2.1 0 3.8.6 5.1 2.3c0 0-1.5 1.1-1.5 1.1c-.9-1.2-2-1.9-3.6-1.9c-2.3 0-4.2 1.2-4.2 3.5c0 5.6 9.6 2.3 9.6 9.3c0 3.3-2.8 5.2-5.8 5.2c-2.4 0-4.6-.8-6-2.8c0 0 1.6-1.1 1.6-1.1zm22.3-1.7c0 2.4.1 3.7.3 5.1c0 0-1.5 0-1.5 0c-.1-.6-.1-1.3-.1-1.9c0 0-.1 0-.1 0c-.9 1.5-2.2 2.2-4.3 2.2c-2 0-4.2-1-4.2-3.6c0-3.7 4.3-4 6.7-4c-.02-.03 1.8 0 1.8 0c0 0 .02-.76 0-.8c0-2.1-1.4-2.9-3.4-2.9c-1.4 0-2.6.4-3.7 1.4c0 0-.9-1.1-.9-1.1c1.1-1.1 3-1.7 4.6-1.7c3 0 4.8 1.3 4.8 4.4c0 0 0 2.9 0 2.9zm-3.1-1c-2.6 0-5.3.7-5.3 2.8c0 1.5 1.5 2.2 2.8 2.2c3.4 0 4.2-2.1 4.2-4.2c.02.05 0-.8 0-.8c0 0-1.71.03-1.7 0zm16.7 4.3c-1.1 1.5-2.7 2.1-4.4 2.1c-3.8 0-6.4-2.6-6.4-6.3c0-3.7 2.6-6.4 6.4-6.4c1.7 0 3.3.7 4.5 2.1c0 0-1.3.9-1.3.9c-.9-1-2-1.6-3.2-1.6c-3 0-4.8 2.2-4.8 5c0 2.7 1.8 4.9 4.8 4.9c1.3 0 2.4-.7 3.2-1.7c0 0 1.2 1 1.2 1zm2.1-6.9c0-.9-.1-2.8-.1-3.4c0 0 1.6 0 1.6 0c0 .9 0 1.9.1 2.1c.7-1.4 2-2.4 3.8-2.4c.3 0 .6 0 .9.1c0 0-.1 1.6-.1 1.6c-.3-.1-.5-.2-.6-.2c-2.8 0-4 1.9-4 4.3c-.01.01 0 6.6 0 6.6l-1.6 0c0 0 .01-8.7 0-8.7zm18.5 6.4c-1.2 1.9-3.1 2.6-5.2 2.6c-3.7 0-6.2-2.6-6.2-6.4c0-3.6 2.5-6.3 6.1-6.3c3.7 0 5.7 2.8 5.7 5.6c-.02.05 0 1.2 0 1.2c0 0-10.21-.05-10.2 0c0 1.3.9 4.5 4.6 4.5c1.6 0 3.3-.8 4.1-2.1c0 0 1.1.9 1.1.9zm-1.2-4.8c0-2.1-1.9-3.9-4.2-3.9c-3.4 0-4.4 3.3-4.4 3.9c0 0 8.6 0 8.6 0zm15.1 5c0 0-.09 0-.1 0c-1 1.7-3 2.4-4.9 2.4c-3.7 0-6.3-2.6-6.3-6.3c0-3.7 2.6-6.4 6.3-6.4c1.9 0 3.9.7 4.9 2.4c.01.02.1 0 .1 0l0-9.8l1.5 0l0 19.8l-1.5 0l0-2.1zm-5-8.9c-2.9 0-4.8 2.2-4.8 5c0 2.7 1.9 4.9 4.8 4.9c2.9 0 5.1-2.2 5.1-4.9c0-2.8-2.2-5-5.1-5zm17.1 7.6c.9 1.5 2.4 2.3 4.3 2.3c2.3 0 4.2-1.4 4.2-3.6c0-5.2-9.6-2.2-9.6-9.3c0-3.3 2.8-5 5.9-5c2.1 0 3.8.6 5.1 2.3c0 0-1.5 1.1-1.5 1.1c-.9-1.2-2-1.9-3.6-1.9c-2.2 0-4.2 1.2-4.2 3.5c0 5.6 9.6 2.3 9.6 9.3c0 3.3-2.8 5.2-5.8 5.2c-2.4 0-4.6-.8-6-2.8c0 0 1.6-1.1 1.6-1.1zm23.3 0c0 .9.1 2.8.1 3.4c0 0-1.6 0-1.6 0c0-.9 0-1.9-.1-2.1c0 0-.1 0-.1 0c-.6 1.3-2.1 2.4-4.1 2.4c-3.8 0-4.6-2.5-4.6-5.2c-.04.02 0-7.2 0-7.2l1.5 0c0 0 .04 7.14 0 7.1c0 2 .6 3.9 3.1 3.9c2.3 0 4.2-1.6 4.2-4.9c-.01-.04 0-6.1 0-6.1l1.6 0c0 0-.03 8.71 0 8.7zm3.6-5.3c0-.9-.2-2.8-.2-3.4c0 0 1.6 0 1.6 0c0 .9.1 1.9.1 2.1c.8-1.4 2.1-2.4 3.9-2.4c.3 0 .6 0 .9.1c0 0-.2 1.6-.2 1.6c-.2-.1-.4-.2-.6-.2c-2.7 0-4 1.9-4 4.3c.03.01 0 6.6 0 6.6l-1.5 0c0 0-.05-8.7 0-8.7zm8.1-3.4l1.6 0l0 2.1c0 0 .01.02 0 0c1-1.7 3.1-2.4 4.9-2.4c3.7 0 6.4 2.7 6.4 6.4c0 3.7-2.7 6.3-6.4 6.3c-1.8 0-3.9-.7-4.9-2.4c.01 0 0 0 0 0l0 8.1l-1.6 0l0-18.1zm6.5 11c2.9 0 4.8-2.2 4.8-4.9c0-2.8-1.9-5-4.8-5c-2.9 0-5.1 2.2-5.1 5c0 2.7 2.2 4.9 5.1 4.9zm9.2-7.6c0-.9-.2-2.8-.2-3.4c0 0 1.6 0 1.6 0c0 .9.1 1.9.1 2.1c.8-1.4 2.1-2.4 3.9-2.4c.3 0 .6 0 .9.1c0 0-.2 1.6-.2 1.6c-.2-.1-.4-.2-.6-.2c-2.7 0-4 1.9-4 4.3c.03.01 0 6.6 0 6.6l-1.5 0c0 0-.05-8.7 0-8.7zm8.4-3.4l1.6 0l0 12.1l-1.6 0l0-12.1zm.8-6c.6 0 1.1.5 1.1 1.2c0 .6-.5 1.2-1.1 1.2c-.7 0-1.2-.6-1.2-1.2c0-.7.5-1.2 1.2-1.2zm4.6 15c.6 1.3 2.1 2 3.5 2c1.4 0 2.8-.8 2.8-2.2c0-3.3-7.2-1-7.2-5.6c0-2.4 2.1-3.5 4.1-3.5c2 0 3.5.7 4.3 2.3c0 0-1.4.8-1.4.8c-.6-1.1-1.5-1.7-2.9-1.7c-1.1 0-2.6.7-2.6 1.9c0 3.3 7.3.8 7.3 5.7c0 2.5-2.1 3.7-4.4 3.7c-2.1 0-4-.7-4.9-2.4c0 0 1.4-1 1.4-1zm21.2.8c-1.2 1.9-3.1 2.6-5.2 2.6c-3.7 0-6.2-2.6-6.2-6.4c0-3.6 2.5-6.3 6.1-6.3c3.7 0 5.7 2.8 5.7 5.6c-.01.05 0 1.2 0 1.2c0 0-10.2-.05-10.2 0c0 1.3.9 4.5 4.6 4.5c1.6 0 3.3-.8 4.1-2.1c0 0 1.1.9 1.1.9zm-1.2-4.8c0-2.1-1.9-3.9-4.2-3.9c-3.4 0-4.4 3.3-4.4 3.9c0 0 8.6 0 8.6 0z" stroke="none" fill="#be870e"/></g><g id="Polygon46495"><path d="m17.6 128.1c-1.7 2.4-4.2 3.4-6.9 3.4c-5.7 0-9.6-4.1-9.6-9.8c0-5.7 3.9-9.7 9.6-9.7c2.5 0 4.8.8 6.4 2.9c0 0-1.4 1.1-1.4 1.1c-1.2-1.7-3.1-2.5-5-2.5c-4.8 0-7.9 3.6-7.9 8.2c0 4.7 3.1 8.2 7.9 8.2c1.9 0 4.2-.9 5.5-2.9c0 0 1.4 1.1 1.4 1.1zm7.1-14.1l-6.4 0l0-1.6l14.4 0l0 1.6l-6.3 0l0 17l-1.7 0l0-17zm17.2 13.6c.9 1.5 2.4 2.3 4.2 2.3c2.4 0 4.2-1.4 4.2-3.6c0-5.2-9.6-2.2-9.6-9.3c0-3.3 2.9-5 6-5c2 0 3.8.6 5.1 2.3c0 0-1.5 1.1-1.5 1.1c-.9-1.2-2-1.9-3.7-1.9c-2.2 0-4.1 1.2-4.1 3.5c0 5.6 9.6 2.3 9.6 9.3c0 3.3-2.8 5.2-5.8 5.2c-2.5 0-4.6-.8-6.1-2.8c0 0 1.7-1.1 1.7-1.1zm23.1 1.6c-1.2 1.5-2.7 2.1-4.5 2.1c-3.7 0-6.3-2.6-6.3-6.3c0-3.7 2.6-6.4 6.3-6.4c1.8 0 3.4.7 4.6 2.1c0 0-1.3.9-1.3.9c-.9-1-2-1.6-3.3-1.6c-2.9 0-4.8 2.2-4.8 5c0 2.7 1.9 4.9 4.8 4.9c1.4 0 2.5-.7 3.3-1.7c0 0 1.2 1 1.2 1zm11.7-3.3c0 2.4 0 3.7.2 5.1c0 0-1.5 0-1.5 0c-.1-.6-.1-1.3-.1-1.9c0 0-.1 0-.1 0c-.9 1.5-2.2 2.2-4.3 2.2c-2 0-4.2-1-4.2-3.6c0-3.7 4.3-4 6.7-4c-.01-.03 1.8 0 1.8 0c0 0 .03-.76 0-.8c0-2.1-1.4-2.9-3.4-2.9c-1.4 0-2.6.4-3.7 1.4c0 0-.9-1.1-.9-1.1c1.1-1.1 3-1.7 4.6-1.7c3 0 4.9 1.3 4.9 4.4c0 0 0 2.9 0 2.9zm-3.2-1c-2.6 0-5.3.7-5.3 2.8c0 1.5 1.5 2.2 2.8 2.2c3.4 0 4.2-2.1 4.2-4.2c.03.05 0-.8 0-.8c0 0-1.7.03-1.7 0zm6.6-2.6c0-.9-.1-2.8-.1-3.4c0 0 1.6 0 1.6 0c0 .9 0 1.9.1 2.1c0 0 .1 0 .1 0c.6-1.3 2.2-2.4 4.1-2.4c3.8 0 4.7 2.5 4.7 5.2c-.05 0 0 7.2 0 7.2l-1.6 0c0 0-.03-7.12 0-7.1c0-2-.6-3.9-3.1-3.9c-2.3 0-4.2 1.6-4.2 5c.02-.04 0 6 0 6l-1.6 0c0 0 .04-8.7 0-8.7zm22.6-1.7c0 0 3.7.02 3.7 0c3.6 0 4.4-2 4.4-3.3c0-1.3-.8-3.3-4.4-3.3c0 0-3.7 0-3.7 0l0 6.6zm-1.7-8.2c0 0 4.87.02 4.9 0c1.4 0 6.6 0 6.6 4.9c0 3.6-2.7 4.5-4.8 4.8c.04-.01 5.5 8.9 5.5 8.9l-2 0l-5.3-8.8l-3.2 0l0 8.8l-1.7 0l0-18.6zm24.7 16.3c-1.3 1.9-3.1 2.6-5.3 2.6c-3.7 0-6.1-2.6-6.1-6.4c0-3.6 2.5-6.3 6-6.3c3.8 0 5.7 2.8 5.7 5.6c.04.05 0 1.2 0 1.2c0 0-10.16-.05-10.2 0c0 1.3 1 4.5 4.6 4.5c1.6 0 3.3-.8 4.1-2.1c0 0 1.2.9 1.2.9zm-1.2-4.8c0-2.1-1.9-3.9-4.2-3.9c-3.5 0-4.5 3.3-4.5 3.9c0 0 8.7 0 8.7 0zm2.5-5l1.7 0l4.1 10.4l3.9-10.4l1.6 0l-4.8 12.1l-1.6 0l-4.9-12.1zm23.6 9.8c-1.3 1.9-3.1 2.6-5.3 2.6c-3.7 0-6.1-2.6-6.1-6.4c0-3.6 2.5-6.3 6-6.3c3.8 0 5.7 2.8 5.7 5.6c.04.05 0 1.2 0 1.2c0 0-10.16-.05-10.2 0c0 1.3 1 4.5 4.6 4.5c1.6 0 3.3-.8 4.1-2.1c0 0 1.2.9 1.2.9zm-1.2-4.8c0-2.1-1.9-3.9-4.2-3.9c-3.5 0-4.5 3.3-4.5 3.9c0 0 8.7 0 8.7 0zm13.6 2c0 2.4 0 3.7.2 5.1c0 0-1.5 0-1.5 0c-.1-.6-.1-1.3-.1-1.9c0 0-.1 0-.1 0c-.9 1.5-2.2 2.2-4.2 2.2c-2.1 0-4.3-1-4.3-3.6c0-3.7 4.3-4 6.7-4c-.01-.03 1.8 0 1.8 0c0 0 .03-.76 0-.8c0-2.1-1.4-2.9-3.4-2.9c-1.4 0-2.6.4-3.7 1.4c0 0-.9-1.1-.9-1.1c1.1-1.1 3-1.7 4.6-1.7c3 0 4.9 1.3 4.9 4.4c0 0 0 2.9 0 2.9zm-3.2-1c-2.6 0-5.3.7-5.3 2.8c0 1.5 1.5 2.2 2.8 2.2c3.4 0 4.2-2.1 4.2-4.2c.03.05 0-.8 0-.8c0 0-1.7.03-1.7 0zm6.8-13.7l1.6 0l0 19.8l-1.6 0l0-19.8zm5.4 16.7c.6 1.3 2.1 2 3.5 2c1.4 0 2.8-.8 2.8-2.2c0-3.3-7.2-1-7.2-5.6c0-2.4 2.1-3.5 4.1-3.5c2 0 3.5.7 4.3 2.3c0 0-1.4.8-1.4.8c-.6-1.1-1.4-1.7-2.9-1.7c-1.1 0-2.5.7-2.5 1.9c0 3.3 7.2.8 7.2 5.7c0 2.5-2.1 3.7-4.4 3.7c-2.1 0-4-.7-4.9-2.4c0 0 1.4-1 1.4-1zm26.4-2c0 2.4 0 3.7.2 5.1c0 0-1.5 0-1.5 0c-.1-.6-.1-1.3-.1-1.9c0 0-.1 0-.1 0c-.9 1.5-2.2 2.2-4.2 2.2c-2.1 0-4.3-1-4.3-3.6c0-3.7 4.3-4 6.7-4c.01-.03 1.8 0 1.8 0c0 0 .05-.76 0-.8c0-2.1-1.4-2.9-3.4-2.9c-1.4 0-2.6.4-3.7 1.4c0 0-.9-1.1-.9-1.1c1.2-1.1 3.1-1.7 4.6-1.7c3 0 4.9 1.3 4.9 4.4c0 0 0 2.9 0 2.9zm-3.2-1c-2.6 0-5.2.7-5.2 2.8c0 1.5 1.4 2.2 2.7 2.2c3.4 0 4.2-2.1 4.2-4.2c.05.05 0-.8 0-.8c0 0-1.69.03-1.7 0z" stroke="none" fill="#be870e"/></g><g id="Polygon46494"><path d="m-.1 81c0 0 .01-2.3 0-2.3c9.2 0 10.6-1.9 10.6-13c0 0 0-36.1 0-36.1c0-11.1-1.4-12.8-10.6-12.8c.01-.04 0-2.4 0-2.4l30 0c0 0-.02 2.36 0 2.4c-9.2 0-10.6 1.7-10.6 12.8c0 0 0 36.1 0 36.1c0 11.1 1.4 13 10.6 13c-.02 0 0 2.3 0 2.3l-30 0zm67.7-38.8c10 0 14.4 7.1 14.4 16.5c0 0 0 7 0 7c0 11.1 1.4 13 8.8 13c-.01 0 0 2.3 0 2.3l-25.4 0c0 0-.03-2.3 0-2.3c7.2 0 8.7-1.9 8.7-13c0 0 0-6.4 0-6.4c0-7.2-2.5-11.9-9.2-11.9c-6.1 0-12.7 5-12.7 11.1c0 0 0 7.2 0 7.2c0 11.4.8 13 7.7 13c.03 0 0 2.3 0 2.3l-24.4 0c0 0 .01-2.3 0-2.3c7.3 0 8.8-1.9 8.8-13c0 0 0-5.5 0-5.5c0-11.1-1.5-12.9-8.8-12.9c.01-.01 0-2.3 0-2.3c0 0 14.77-2.82 14.8-2.8c.5 1.1 1.5 5.6 1.9 8c3-3.8 8.1-8 15.4-8zm59.2 0c10 0 14.4 7.1 14.4 16.5c0 0 0 7 0 7c0 11.1 1.3 13 8.8 13c-.02 0 0 2.3 0 2.3l-25.4 0c0 0-.03-2.3 0-2.3c7.2 0 8.7-1.9 8.7-13c0 0 0-6.4 0-6.4c0-7.2-2.5-11.9-9.2-11.9c-6.1 0-12.7 5-12.7 11.1c0 0 0 7.2 0 7.2c0 11.4.8 13 7.7 13c.03 0 0 2.3 0 2.3l-24.4 0c0 0 .01-2.3 0-2.3c7.3 0 8.8-1.9 8.8-13c0 0 0-5.5 0-5.5c0-11.1-1.5-12.9-8.8-12.9c.01-.01 0-2.3 0-2.3c0 0 14.77-2.82 14.8-2.8c.5 1.1 1.5 5.6 1.9 8c3-3.8 8.1-8 15.4-8zm52.6 13.4c1.2-3.5-.7-9-8-9c-4.8 0-8.9 3.6-10.4 9c0 0 18.4 0 18.4 0zm-4.7 22.7c3.7 0 9-2.2 12.2-5.2c0 0 2 2.5 2 2.5c-3.9 4.1-10.6 7.3-16.9 7.3c-12.3 0-20.6-9.2-20.6-20.4c0-11.8 10.2-20.3 20.6-20.3c9.8 0 17.7 8 15 17.5c0 0-26.7 0-26.7 0c-1.3 10.5 3 18.6 14.4 18.6zm51-24c-2.1 0-3.9-1.9-3.9-4c0-2.3-1.3-3.7-3.5-3.7c-2.6 0-8.6 4.1-8.6 13c0 0 0 6.1 0 6.1c0 11.1 1.4 13 8.8 13c0 0 0 2.3 0 2.3l-25.4 0c0 0-.02-2.3 0-2.3c7.3 0 8.8-1.9 8.8-13c0 0 0-5.5 0-5.5c0-11.1-1.5-12.9-8.8-12.9c-.02-.01 0-2.3 0-2.3c0 0 14.75-2.82 14.7-2.8c.6 1.1 1.6 5.6 1.9 8c2.3-4.5 7.2-8 11.7-8c6.1 0 8.8 4.1 8.8 6.9c0 2.4-1 5.2-4.5 5.2zm77.3 8.1c0-8.1-4.6-14.8-14.2-14.8c-.04.02-13.5 0-13.5 0c0 0 .03 16.45 0 16.4c0 11.1 1.4 12.9 10.6 12.9c0 0 2.9 0 2.9 0c9.6 0 14.2-6.5 14.2-14.5zm-27.7-18.9c0 0 9.91.01 9.9 0c8.3 0 12.2-5.5 12.2-12.4c0-6.9-3.9-12.6-12.2-12.6c.01.04-9.9 0-9.9 0l0 25zm37.4 18.9c0 10.3-8.4 18.6-23.8 18.6c-.03.03-33 0-33 0c0 0 .01-2.3 0-2.3c9.2 0 10.6-1.9 10.6-13c0 0 0-36.1 0-36.1c0-11.1-1.4-12.8-10.6-12.8c.01-.04 0-2.4 0-2.4c0 0 29.87.03 29.9 0c14.1 0 21.4 7.5 21.4 16.7c0 5.8-3.6 10.7-8.7 13.7c8.6 2.7 14.2 9.6 14.2 17.6zm35.9-6.8c1.2-3.5-.7-9-8-9c-4.8 0-8.9 3.6-10.5 9c0 0 18.5 0 18.5 0zm-4.7 22.7c3.7 0 9-2.2 12.2-5.2c0 0 2 2.5 2 2.5c-3.9 4.1-10.6 7.3-17 7.3c-12.2 0-20.5-9.2-20.5-20.4c0-11.8 10.2-20.3 20.5-20.3c9.9 0 17.8 8 15.1 17.5c0 0-26.7 0-26.7 0c-1.4 10.5 3 18.6 14.4 18.6zm18.4 2.7c0 0-.03-2.3 0-2.3c7.3 0 8.7-1.9 8.7-13c0 0 0-5.5 0-5.5c0-11.1-1.4-12.9-8.7-12.9c-.03-.01 0-2.3 0-2.3l16.6-2.8c0 0 .02 23.51 0 23.5c0 11.1 1.3 13 8.8 13c-.01 0 0 2.3 0 2.3l-25.4 0zm12.6-49.7c-2.6 0-4.9-2.2-4.9-5c0-2.7 2.3-4.9 4.9-4.9c2.7 0 4.9 2.2 4.9 4.9c0 2.8-2.2 5-4.9 5zm48.7 10.9c10 0 14.4 7.1 14.4 16.5c0 0 0 7 0 7c0 11.1 1.3 13 8.8 13c-.04 0 0 2.3 0 2.3l-25.5 0c0 0 .04-2.3 0-2.3c7.3 0 8.8-1.9 8.8-13c0 0 0-6.4 0-6.4c0-7.2-2.5-11.9-9.2-11.9c-6.1 0-12.8 5-12.8 11.1c0 0 0 7.2 0 7.2c0 11.4.9 13 7.8 13c0 0 0 2.3 0 2.3l-24.4 0c0 0-.02-2.3 0-2.3c7.3 0 8.8-1.9 8.8-13c0 0 0-5.5 0-5.5c0-11.1-1.5-12.9-8.8-12.9c-.02-.01 0-2.3 0-2.3c0 0 14.74-2.82 14.7-2.8c.6 1.1 1.6 5.6 1.9 8c3-3.8 8.1-8 15.5-8zm43.8 3.5c-5.4 0-8.1 5-8.1 11.6c0 6.4 2.7 11.4 8.1 11.4c5.5 0 8-5 8-11.4c0-6.6-2.5-11.6-8-11.6zm-.2 35.6c15.3 1.2 20.2 7.7 20.2 14.5c0 9.2-8.8 14.9-19.7 14.9c-18.7 0-26-13.8-12.4-20.9c0 0 2 1.2 2 1.2c-9.2 10.3 1.7 15.3 10.4 15.3c6.9 0 13.8-3.3 13.8-8.5c0-5.2-5.5-6.9-14.9-7.8c-9.1-.9-15.7-3.6-15.7-10.3c0-4 3.5-7.1 9.3-8.9c-5.5-2.6-9.3-7.5-9.3-13.5c0-8.3 7.4-15.1 16.5-15.1c4.5 0 8.5 1.5 11.4 4.2c2-2.4 6-4.2 8.4-4.2c7.6 0 8.1 9.1 3.6 9.3c-4.8.3-2.1-5-6.6-5c-.9 0-2.2.6-3.5 1.8c2 2.4 3.3 5.6 3.3 9c0 8.2-7.3 14.1-14.5 15.1c-4.9.5-12.4 1.6-12.4 4.6c0 3 6.4 3.9 10.1 4.3z" stroke="none" fill="#be870e"/></g></svg>