<svg xmlns="http://www.w3.org/2000/svg" version="1.1" width="152px" height="50.6px" viewBox="0 0 152 50.6"><desc>Return to the beginning</desc><defs/><g id="Polygon48375"><path d="m12.2 14.4l-2.6 0l0 7l-.9 0l0-7l-2.6 0l0-.8l6.1 0l0 .8zm1.1-.8l.9 0l0 3.3l4.2 0l0-3.3l.9 0l0 7.8l-.9 0l0-3.7l-4.2 0l0 3.7l-.9 0l0-7.8zm8 0l4.8 0l0 .8l-3.9 0l0 2.5l3.7 0l0 .8l-3.7 0l0 2.8l4.1 0l0 .9l-5 0l0-7.8zm9.5 0c0 0 2.41-.03 2.4 0c1.3 0 2.6.5 2.6 1.9c0 .9-.5 1.5-1.4 1.7c0 0 0 .1 0 .1c1 .1 1.8.9 1.8 1.9c0 1.7-1.6 2.2-3 2.2c-.04-.04-2.4 0-2.4 0l0-7.8zm1 3.3c0 0 1.24-.03 1.2 0c.9 0 1.8-.2 1.8-1.3c0-1-.8-1.2-1.7-1.2c.03.03-1.3 0-1.3 0l0 2.5zm0 3.6c0 0 1.52 0 1.5 0c.9 0 1.9-.4 1.9-1.4c0-1-.9-1.4-1.9-1.4c.04.03-1.5 0-1.5 0l0 2.8zm6-6.9l4.9 0l0 .8l-4 0l0 2.5l3.7 0l0 .8l-3.7 0l0 2.8l4.2 0l0 .9l-5.1 0l0-7.8zm12.9 7.2c-.8.5-1.9.8-2.9.8c-2.4 0-4.1-1.7-4.1-4.1c0-2.5 1.8-4.1 4.2-4.1c1 0 2 .2 2.7 1c0 0-.7.7-.7.7c-.5-.5-1.3-.9-2.1-.9c-1.8 0-3.1 1.4-3.1 3.3c0 1.8 1.3 3.2 3.2 3.2c.6 0 1.4-.2 1.9-.5c.03.05 0-2.3 0-2.3l-1.8 0l0-.9l2.7 0c0 0 .05 3.83 0 3.8zm2-7.2l.9 0l0 7.8l-.9 0l0-7.8zm2.8 0l1.2 0l4.5 6.4l0 0l0-6.4l1 0l0 7.8l-1.2 0l-4.5-6.5l0 0l0 6.5l-1 0l0-7.8zm8.6 0l1.2 0l4.5 6.4l0 0l0-6.4l.9 0l0 7.8l-1.1 0l-4.5-6.5l-.1 0l0 6.5l-.9 0l0-7.8zm8.6 0l.9 0l0 7.8l-.9 0l0-7.8zm2.9 0l1.1 0l4.5 6.4l.1 0l0-6.4l.9 0l0 7.8l-1.2 0l-4.5-6.5l0 0l0 6.5l-.9 0l0-7.8zm15.2 7.2c-.9.5-1.9.8-2.9.8c-2.5 0-4.2-1.7-4.2-4.1c0-2.5 1.9-4.1 4.2-4.1c1 0 2 .2 2.7 1c0 0-.7.7-.7.7c-.5-.5-1.3-.9-2.1-.9c-1.8 0-3.1 1.4-3.1 3.3c0 1.8 1.3 3.2 3.2 3.2c.6 0 1.4-.2 1.9-.5c.04.05 0-2.3 0-2.3l-1.7 0l0-.9l2.7 0c0 0-.03 3.83 0 3.8z" stroke="none" fill="#808284"/></g><g id="Polygon48374"><path d="m7 .6c0 0 1.96-.03 2 0c1.5 0 3.1.2 3.1 2.1c0 1.2-.8 1.9-2 2.1c.01-.03 2.2 3.6 2.2 3.6l-1.1 0l-2.1-3.5l-1.2 0l0 3.5l-.9 0l0-7.8zm.9 3.4c0 0 .82 0 .8 0c1 0 2.4 0 2.4-1.3c0-1.1-1-1.3-1.9-1.3c-.01.03-1.3 0-1.3 0l0 2.6zm5.8-3.4l4.9 0l0 .8l-4 0l0 2.5l3.7 0l0 .8l-3.7 0l0 2.8l4.2 0l0 .9l-5.1 0l0-7.8zm11.9.8l-2.6 0l0 7l-.9 0l0-7l-2.6 0l0-.8l6.1 0l0 .8zm6.9 4c0 1.7-.7 3.2-2.9 3.2c-2.1 0-2.9-1.5-2.9-3.2c-.03-.01 0-4.8 0-4.8l.9 0c0 0-.01 4.66 0 4.7c0 1.2.5 2.4 2 2.4c1.6 0 2-1.2 2-2.4c.02-.04 0-4.7 0-4.7l.9 0c0 0 .04 4.79 0 4.8zm2-4.8c0 0 1.96-.03 2 0c1.5 0 3.1.2 3.1 2.1c0 1.2-.8 1.9-2 2.1c.01-.03 2.2 3.6 2.2 3.6l-1.1 0l-2.1-3.5l-1.2 0l0 3.5l-.9 0l0-7.8zm.9 3.4c0 0 .81 0 .8 0c1 0 2.4 0 2.4-1.3c0-1.1-1-1.3-1.9-1.3c-.01.03-1.3 0-1.3 0l0 2.6zm5.8-3.4l1.1 0l4.6 6.4l0 0l0-6.4l.9 0l0 7.8l-1.2 0l-4.5-6.5l0 0l0 6.5l-.9 0l0-7.8zm16.8.8l-2.6 0l0 7l-.9 0l0-7l-2.6 0l0-.8l6.1 0l0 .8zm.3 3.1c0-2.4 1.7-4.1 4.1-4.1c2.4 0 4.1 1.7 4.1 4.1c0 2.3-1.7 4.1-4.1 4.1c-2.4 0-4.1-1.8-4.1-4.1zm7.2 0c0-1.8-1.3-3.3-3.1-3.3c-1.8 0-3.1 1.5-3.1 3.3c0 1.8 1.3 3.2 3.1 3.2c1.8 0 3.1-1.4 3.1-3.2z" stroke="none" fill="#808284"/></g></svg>