<svg xmlns="http://www.w3.org/2000/svg" version="1.1" width="546px" height="203.8px" viewBox="0 0 546 203.8"><desc>2328 Lake Place, Minneapolis Measures approx 3,200 sq ft Built for about 14,000 in 1913</desc><defs/><g id="Polygon46920"><path d="m1.9 125.9c0 0 6.62.03 6.6 0c2.6 0 5.2 1.2 5.2 4.3c0 1.9-1.2 3.2-2.9 3.7c0 0 0 .1 0 .1c2.1.2 3.6 1.9 3.6 4.1c0 3.7-3.2 4.8-6.4 4.8c.02.02-6.1 0-6.1 0l0-17zm3 6.9c0 0 2.78.04 2.8 0c2 0 3-.8 3-2.1c0-1.5-1-2.2-3.3-2.2c.02.02-2.5 0-2.5 0l0 4.3zm0 7.5c0 0 2.8.03 2.8 0c1.6 0 3.7-.2 3.7-2.5c0-1.7-1.1-2.4-3.6-2.4c.02.03-2.9 0-2.9 0l0 4.9zm22.7 2.6l-2.7 0l0-1.8c0 0-.08-.03-.1 0c-.5 1.1-1.6 2.1-3.5 2.1c-3.1 0-4.2-2.2-4.2-4.5c-.01-.03 0-7.3 0-7.3l2.9 0c0 0-.03 5.83 0 5.8c0 1.3.1 3.4 2.1 3.4c1.9 0 2.6-1.4 2.6-2.9c.02-.01 0-6.3 0-6.3l2.9 0l0 11.5zm3.3-11.5l2.9 0l0 11.5l-2.9 0l0-11.5zm1.4-5.6c1.1 0 1.9.7 1.9 1.7c0 1-.8 1.7-1.9 1.7c-1 0-1.8-.8-1.8-1.7c0-.9.8-1.7 1.8-1.7zm4.8-1l2.9 0l0 18.1l-2.9 0l0-18.1zm4.8 9l0-2.4l2.4 0l0-3.3l2.9 0l0 3.3l3.1 0l0 2.4l-3.1 0c0 0-.05 5.09 0 5.1c0 1.1.3 1.9 1.6 1.9c.5 0 1.2-.1 1.5-.4c0 0 0 2.4 0 2.4c-.6.3-1.6.4-2.3.4c-3 0-3.7-1.4-3.7-4.1c-.03.03 0-5.3 0-5.3l-2.4 0zm18.8 0l-2.4 0l0-2.4l2.4 0c0 0 .01-1.63 0-1.6c0-3.2.7-5.3 4.3-5.3c.6 0 1.2 0 1.8.2c0 0-.2 2.4-.2 2.4c-.4-.1-.7-.2-1.2-.2c-1.6 0-1.8 1.1-1.8 2.4c-.01.01 0 2.1 0 2.1l2.7 0l0 2.4l-2.7 0l0 9.1l-2.9 0l0-9.1zm13-2.7c3.5 0 6.3 2.4 6.3 6.1c0 3.6-2.8 6-6.3 6c-3.5 0-6.2-2.4-6.2-6c0-3.7 2.7-6.1 6.2-6.1zm0 9.5c2.1 0 3.4-1.6 3.4-3.4c0-1.8-1.3-3.5-3.4-3.5c-2.1 0-3.4 1.7-3.4 3.5c0 1.8 1.3 3.4 3.4 3.4zm8.9-9.2l2.9 0l0 1.8c0 0 .06.02.1 0c.6-1.3 1.9-2.1 3.4-2.1c.3 0 .7.1 1 .2c0 0 0 2.8 0 2.8c-.5-.2-.9-.3-1.4-.3c-2.7 0-3.1 2.3-3.1 3c.01-.05 0 6.1 0 6.1l-2.9 0l0-11.5zm23.7 9.9c0 0-.1.04-.1 0c-.8 1.3-2.2 1.9-3.7 1.9c-2.1 0-4.2-1.2-4.2-3.4c0-3.8 4.4-4.1 7.3-4.1c-.05.04.7 0 .7 0c0 0-.03-.27 0-.3c0-1.4-1.1-2.1-2.7-2.1c-1.2 0-2.3.5-3 1.2c0 0-1.6-1.5-1.6-1.5c1.3-1.3 3.1-1.9 4.9-1.9c5 0 5 3.6 5 5.2c-.04 0 0 6.6 0 6.6l-2.6 0l0-1.6zm-.2-3.5c0 0-.6-.04-.6 0c-1.6 0-4.3.1-4.3 1.7c0 1.1 1.1 1.5 2 1.5c2 0 2.9-1 2.9-2.6c0 .01 0-.6 0-.6zm5.9-13l2.9 0l0 8.1c0 0 .09-.04.1 0c.6-.8 1.7-1.8 3.9-1.8c3.3 0 5.6 2.7 5.6 6.1c0 3.4-2.2 6-5.7 6c-1.6 0-3.1-.6-4-2c.03-.01 0 0 0 0l0 1.7l-2.8 0l0-18.1zm6.2 8.9c-2.1 0-3.4 1.7-3.4 3.5c0 1.8 1.3 3.4 3.4 3.4c2.1 0 3.4-1.6 3.4-3.4c0-1.8-1.3-3.5-3.4-3.5zm14.6-2.6c3.5 0 6.3 2.4 6.3 6.1c0 3.6-2.8 6-6.3 6c-3.5 0-6.2-2.4-6.2-6c0-3.7 2.7-6.1 6.2-6.1zm0 9.5c2.1 0 3.4-1.6 3.4-3.4c0-1.8-1.3-3.5-3.4-3.5c-2.1 0-3.4 1.7-3.4 3.5c0 1.8 1.3 3.4 3.4 3.4zm19.4 2.3l-2.7 0l0-1.8c0 0-.08-.03-.1 0c-.5 1.1-1.6 2.1-3.5 2.1c-3.1 0-4.2-2.2-4.2-4.5c-.01-.03 0-7.3 0-7.3l2.9 0c0 0-.03 5.83 0 5.8c0 1.3.1 3.4 2.1 3.4c1.9 0 2.6-1.4 2.6-2.9c.03-.01 0-6.3 0-6.3l2.9 0l0 11.5zm1.9-9.1l0-2.4l2.4 0l0-3.3l2.9 0l0 3.3l3.1 0l0 2.4l-3.1 0c0 0-.02 5.09 0 5.1c0 1.1.3 1.9 1.6 1.9c.5 0 1.2-.1 1.5-.4c0 0 0 2.4 0 2.4c-.6.3-1.6.4-2.2.4c-3.1 0-3.8-1.4-3.8-4.1c0 .03 0-5.3 0-5.3l-2.4 0zm23.8-8.2c0 0 .22.04.2 0c1.7 0 3.5.6 4.7 1.7c0 0-2 2.2-2 2.2c-.7-.8-1.8-1.3-2.9-1.3c0 .03 0 4.8 0 4.8c0 0 .1.06.1.1c2.7.7 5.4 1.5 5.4 4.8c0 3.2-2.4 5-5.5 5.3c0-.02 0 1.7 0 1.7l-1.3 0c0 0 .01-1.69 0-1.7c-2.1 0-4.1-.6-5.6-2.1c0 0 2.2-2.3 2.2-2.3c.8 1.1 2.1 1.7 3.4 1.8c.01.02 0-5 0-5c0 0-.11-.07-.1-.1c-2.7-.7-5.1-1.7-5.1-4.9c0-2.8 2.5-4.7 5.2-4.9c.01-.04 0-1.6 0-1.6l1.3 0l0 1.5zm-1.3 2.7c-1.1.2-2.2.9-2.2 2.2c0 1.4 1.1 1.7 2.2 2.2c0 0 0-4.4 0-4.4zm1.3 12.3c1.3-.2 2.5-1 2.5-2.5c0-1.4-1.4-1.8-2.5-2.2c0 0 0 4.7 0 4.7zm11.1-11.4l-3.2 3l-1.6-2l5.1-4.3l2.6 0l0 17l-2.9 0l0-13.7zm13.9 10.3l-7.2 0l0-2.9l6.8-10.7l3.3 0l0 11l2.4 0l0 2.6l-2.4 0l0 3.4l-2.9 0l0-3.4zm0-9.5l-.1 0l-4.2 6.9l4.3 0l0-6.9zm8.4 9.6l2.9 0l-2 6.3l-2.6 0l1.7-6.3zm11-14c1.9 0 6.2.8 6.2 8.8c0 8.1-4.3 8.8-6.2 8.8c-1.9 0-6.1-.7-6.1-8.8c0-8 4.2-8.8 6.1-8.8zm0 14.9c2.9 0 3.3-4 3.3-6.1c0-2.1-.4-6-3.3-6c-2.9 0-3.2 3.9-3.2 6c0 2.1.3 6.1 3.2 6.1zm14.5-14.9c1.9 0 6.1.8 6.1 8.8c0 8.1-4.2 8.8-6.1 8.8c-1.9 0-6.2-.7-6.2-8.8c0-8 4.3-8.8 6.2-8.8zm0 14.9c2.9 0 3.3-4 3.3-6.1c0-2.1-.4-6-3.3-6c-2.9 0-3.3 3.9-3.3 6c0 2.1.4 6.1 3.3 6.1zm14.5-14.9c1.9 0 6.1.8 6.1 8.8c0 8.1-4.2 8.8-6.1 8.8c-1.9 0-6.2-.7-6.2-8.8c0-8 4.3-8.8 6.2-8.8zm0 14.9c2.8 0 3.2-4 3.2-6.1c0-2.1-.4-6-3.2-6c-2.9 0-3.3 3.9-3.3 6c0 2.1.4 6.1 3.3 6.1zm15.8-9.1l2.9 0l0 11.5l-2.9 0l0-11.5zm1.5-5.6c1 0 1.8.7 1.8 1.7c0 1-.8 1.7-1.8 1.7c-1.1 0-1.9-.8-1.9-1.7c0-.9.8-1.7 1.9-1.7zm4.7 5.6l2.7 0l0 1.8c0 0 .09.05.1 0c.5-1.1 1.6-2.1 3.5-2.1c3.1 0 4.2 2.2 4.2 4.5c.02.05 0 7.3 0 7.3l-2.9 0c0 0 .04-5.81 0-5.8c0-1.3-.1-3.4-2.1-3.4c-1.9 0-2.6 1.4-2.6 2.9c-.01.03 0 6.3 0 6.3l-2.9 0l0-11.5zm25.7-2.2l-3.2 3l-1.7-2l5.2-4.3l2.6 0l0 17l-2.9 0l0-13.7zm9.5 13.7l4.1-6.3c0 0-.06-.02-.1 0c-.3.2-1 .3-1.5.3c-3 0-5.2-2.5-5.2-5.5c0-3.5 2.6-5.8 6.1-5.8c3.5 0 6 2.2 6 5.8c0 1.8-.6 3.2-1.5 4.7c-.04-.02-4.4 6.8-4.4 6.8l-3.5 0zm3.3-14.5c-1.7 0-3.1 1.4-3.1 3.1c0 1.7 1.4 3.1 3.1 3.1c1.7 0 3.1-1.4 3.1-3.1c0-1.7-1.4-3.1-3.1-3.1zm13.2.8l-3.2 3l-1.7-2l5.1-4.3l2.6 0l0 17l-2.8 0l0-13.7zm11 3.6c0 0 .75-.03.8 0c1.6 0 3.3-.3 3.3-2.3c0-1.3-1-2.3-2.5-2.3c-1.1 0-2.1.7-2.5 1.9c0 0-3.1-.8-3.1-.8c.8-2.5 3-3.7 5.5-3.7c2.9 0 5.4 1.6 5.4 4.6c0 1.8-1.1 3.4-2.9 3.8c0 0 0 .1 0 .1c2.2.3 3.4 2 3.4 4.1c0 3.2-2.8 5-5.8 5c-2.8 0-5.1-1.1-5.8-4c0 0 3.1-.8 3.1-.8c.3 1.4 1.2 2.2 2.7 2.2c1.6 0 2.9-1.1 2.9-2.6c0-2.3-2-2.6-3.8-2.6c0-.04-.7 0-.7 0l0-2.6z" stroke="none" fill="#fff"/></g><g id="Polygon46919"><path d="m2 89.9l4.6 0l4.5 11.9l4.6-11.9l4.6 0l0 17l-2.9 0l0-14.1l-.1 0l-5.1 14.1l-2.1 0l-5.2-14.1l-.1 0l0 14.1l-2.8 0l0-17zm24.1 12.3c.2 1.7 1.4 2.7 3.1 2.7c1.4 0 2.3-.7 3.1-1.6c0 0 2 1.6 2 1.6c-1.3 1.7-3 2.3-4.9 2.3c-3.4 0-6.2-2.4-6.2-6c0-3.7 2.8-6.1 6.2-6.1c3.3 0 5.4 2.3 5.4 6.3c.04-.02 0 .8 0 .8c0 0-8.74-.03-8.7 0zm5.9-2.2c-.1-1.7-1.2-2.7-3-2.7c-1.7 0-2.7 1.1-2.9 2.7c0 0 5.9 0 5.9 0zm12.7 5.3c0 0-.12.04-.1 0c-.8 1.3-2.2 1.9-3.7 1.9c-2.2 0-4.2-1.2-4.2-3.4c0-3.8 4.4-4.1 7.2-4.1c.03.04.8 0 .8 0c0 0-.05-.27 0-.3c0-1.4-1.2-2.1-2.7-2.1c-1.2 0-2.3.5-3.1 1.2c0 0-1.5-1.5-1.5-1.5c1.3-1.3 3.1-1.9 4.9-1.9c4.9 0 4.9 3.6 4.9 5.2c.04 0 0 6.6 0 6.6l-2.5 0l0-1.6zm-.2-3.5c0 0-.62-.04-.6 0c-1.6 0-4.3.1-4.3 1.7c0 1.1 1 1.5 2 1.5c1.9 0 2.9-1 2.9-2.6c-.02.01 0-.6 0-.6zm12.1-3.2c-.5-.8-1.3-1.2-2.2-1.2c-.8 0-1.7.4-1.7 1.2c0 2.1 6.2.4 6.2 4.9c0 2.7-2.6 3.7-5 3.7c-1.7 0-3.3-.4-4.5-1.8c0 0 2-1.8 2-1.8c.7.8 1.5 1.4 2.7 1.4c.8 0 1.9-.4 1.9-1.3c0-2.3-6.2-.5-6.2-4.9c0-2.5 2.3-3.7 4.6-3.7c1.6 0 3.2.5 4.1 1.8c0 0-1.9 1.7-1.9 1.7zm15.1 8.3l-2.7 0l0-1.8c0 0-.05-.03-.1 0c-.5 1.1-1.6 2.1-3.5 2.1c-3.1 0-4.2-2.2-4.2-4.5c.02-.03 0-7.3 0-7.3l2.9 0c0 0 0 5.83 0 5.8c0 1.3.1 3.4 2.1 3.4c1.9 0 2.7-1.4 2.7-2.9c-.05-.01 0-6.3 0-6.3l2.8 0l0 11.5zm3.3-11.5l2.9 0l0 1.8c0 0 .04.02 0 0c.7-1.3 1.9-2.1 3.4-2.1c.4 0 .7.1 1.1.2c0 0 0 2.8 0 2.8c-.5-.2-1-.3-1.4-.3c-2.7 0-3.1 2.3-3.1 3c-.01-.05 0 6.1 0 6.1l-2.9 0l0-11.5zm11.6 6.8c.2 1.7 1.5 2.7 3.1 2.7c1.4 0 2.3-.7 3.1-1.6c0 0 2 1.6 2 1.6c-1.3 1.7-3 2.3-4.8 2.3c-3.5 0-6.3-2.4-6.3-6c0-3.7 2.8-6.1 6.3-6.1c3.2 0 5.4 2.3 5.4 6.3c-.04-.02 0 .8 0 .8c0 0-8.83-.03-8.8 0zm5.9-2.2c0-1.7-1.2-2.7-3-2.7c-1.7 0-2.7 1.1-2.9 2.7c0 0 5.9 0 5.9 0zm11.7-1.4c-.6-.8-1.3-1.2-2.3-1.2c-.7 0-1.6.4-1.6 1.2c0 2.1 6.2.4 6.2 4.9c0 2.7-2.6 3.7-5 3.7c-1.8 0-3.3-.4-4.5-1.8c0 0 1.9-1.8 1.9-1.8c.8.8 1.5 1.4 2.8 1.4c.8 0 1.9-.4 1.9-1.3c0-2.3-6.2-.5-6.2-4.9c0-2.5 2.3-3.7 4.6-3.7c1.5 0 3.2.5 4.1 1.8c0 0-1.9 1.7-1.9 1.7zm18.8 6.7c0 0-.06.04-.1 0c-.8 1.3-2.1 1.9-3.7 1.9c-2.1 0-4.2-1.2-4.2-3.4c0-3.8 4.4-4.1 7.3-4.1c-.01.04.7 0 .7 0c0 0 .01-.27 0-.3c0-1.4-1.1-2.1-2.6-2.1c-1.2 0-2.3.5-3.1 1.2c0 0-1.5-1.5-1.5-1.5c1.3-1.3 3.1-1.9 4.9-1.9c4.9 0 4.9 3.6 4.9 5.2c0 0 0 6.6 0 6.6l-2.6 0l0-1.6zm-.2-3.5c0 0-.56-.04-.6 0c-1.5 0-4.3.1-4.3 1.7c0 1.1 1.1 1.5 2 1.5c2 0 2.9-1 2.9-2.6c.04.01 0-.6 0-.6zm6-6.4l2.7 0l0 1.7c0 0 .06.03.1 0c.8-1.4 2.3-2 3.9-2c3.6 0 5.7 2.7 5.7 6.1c0 3.4-2.3 6-5.6 6c-2.1 0-3.3-1-3.9-1.7c.03-.04 0 0 0 0l0 6.9l-2.9 0l0-17zm6.1 2.3c-2.1 0-3.3 1.7-3.3 3.5c0 1.8 1.2 3.4 3.3 3.4c2.2 0 3.4-1.6 3.4-3.4c0-1.8-1.2-3.5-3.4-3.5zm9-2.3l2.7 0l0 1.7c0 0 .09.03.1 0c.8-1.4 2.3-2 3.9-2c3.6 0 5.7 2.7 5.7 6.1c0 3.4-2.2 6-5.5 6c-2.2 0-3.3-1-3.9-1.7c-.04-.04-.1 0-.1 0l0 6.9l-2.9 0l0-17zm6.2 2.3c-2.1 0-3.4 1.7-3.4 3.5c0 1.8 1.3 3.4 3.4 3.4c2.1 0 3.4-1.6 3.4-3.4c0-1.8-1.3-3.5-3.4-3.5zm8.9-2.3l2.9 0l0 1.8c0 0 .06.02.1 0c.6-1.3 1.9-2.1 3.4-2.1c.3 0 .7.1 1 .2c0 0 0 2.8 0 2.8c-.5-.2-.9-.3-1.4-.3c-2.7 0-3.1 2.3-3.1 3c.01-.05 0 6.1 0 6.1l-2.9 0l0-11.5zm15-.3c3.5 0 6.2 2.4 6.2 6.1c0 3.6-2.7 6-6.2 6c-3.5 0-6.3-2.4-6.3-6c0-3.7 2.8-6.1 6.3-6.1zm0 9.5c2.1 0 3.4-1.6 3.4-3.4c0-1.8-1.3-3.5-3.4-3.5c-2.1 0-3.4 1.7-3.4 3.5c0 1.8 1.3 3.4 3.4 3.4zm11.4-3.9l-4-5.3l3.5 0l2.3 3.5l2.5-3.5l3.3 0l-3.9 5.3l4.6 6.2l-3.5 0l-3-4.1l-3 4.1l-3.4 0l4.6-6.2zm11.8 2.7c1.1 0 1.9.8 1.9 1.8c0 1-.8 1.9-1.9 1.9c-1 0-1.9-.8-1.9-1.9c0-1 .9-1.8 1.9-1.8zm16-6.6c0 0 .75-.03.7 0c1.7 0 3.4-.3 3.4-2.3c0-1.3-1-2.3-2.5-2.3c-1.1 0-2.1.7-2.5 1.9c0 0-3.1-.8-3.1-.8c.8-2.5 3-3.7 5.5-3.7c2.9 0 5.4 1.6 5.4 4.6c0 1.8-1.1 3.4-2.9 3.8c0 0 0 .1 0 .1c2.2.3 3.3 2 3.3 4.1c0 3.2-2.7 5-5.7 5c-2.8 0-5.1-1.1-5.8-4c0 0 3.1-.8 3.1-.8c.3 1.4 1.2 2.2 2.7 2.2c1.5 0 2.9-1.1 2.9-2.6c0-2.3-2-2.6-3.8-2.6c0-.04-.7 0-.7 0l0-2.6zm10.9 6.8l2.9 0l-2 6.3l-2.6 0l1.7-6.3zm5.9.3c0 0 6.62-6.41 6.6-6.4c.8-.8 1.8-1.7 1.8-2.9c0-1.4-1.2-2.2-2.5-2.2c-1.4 0-2.4.9-2.6 2.3c0 0-3-.3-3-.3c.2-3.1 2.5-4.8 5.6-4.8c3 0 5.5 1.6 5.5 4.9c0 2.1-1.1 3.6-2.6 5c-.02-.04-5.3 4.8-5.3 4.8l7.9 0l0 2.6l-11.4 0l0-3zm19.6-14.3c1.9 0 6.1.8 6.1 8.8c0 8.1-4.2 8.8-6.1 8.8c-1.9 0-6.2-.7-6.2-8.8c0-8 4.3-8.8 6.2-8.8zm0 14.9c2.9 0 3.3-4 3.3-6.1c0-2.1-.4-6-3.3-6c-2.9 0-3.3 3.9-3.3 6c0 2.1.4 6.1 3.3 6.1zm14.5-14.9c1.9 0 6.1.8 6.1 8.8c0 8.1-4.2 8.8-6.1 8.8c-1.9 0-6.2-.7-6.2-8.8c0-8 4.3-8.8 6.2-8.8zm0 14.9c2.8 0 3.2-4 3.2-6.1c0-2.1-.4-6-3.2-6c-2.9 0-3.3 3.9-3.3 6c0 2.1.4 6.1 3.3 6.1zm21.9-5.9c-.5-.8-1.2-1.2-2.2-1.2c-.8 0-1.7.4-1.7 1.2c0 2.1 6.2.4 6.2 4.9c0 2.7-2.6 3.7-4.9 3.7c-1.8 0-3.4-.4-4.5-1.8c0 0 1.9-1.8 1.9-1.8c.7.8 1.5 1.4 2.7 1.4c.9 0 1.9-.4 1.9-1.3c0-2.3-6.2-.5-6.2-4.9c0-2.5 2.3-3.7 4.7-3.7c1.5 0 3.1.5 4.1 1.8c0 0-2 1.7-2 1.7zm16.5 13.8l-2.9 0l0-6.9c0 0-.08-.04-.1 0c-.6.7-1.7 1.7-3.9 1.7c-3.3 0-5.6-2.6-5.6-6c0-3.4 2.2-6.1 5.7-6.1c1.6 0 3.1.6 4 2c-.02.03 0 0 0 0l0-1.7l2.8 0l0 17zm-6.2-7.8c2.1 0 3.4-1.6 3.4-3.4c0-1.8-1.3-3.5-3.4-3.5c-2.1 0-3.4 1.7-3.4 3.5c0 1.8 1.3 3.4 3.4 3.4zm11.2-1.2c1 0 1.9.8 1.9 1.8c0 1-.9 1.9-1.9 1.9c-1 0-1.9-.8-1.9-1.9c0-1 .8-1.8 1.9-1.8zm5.4-5.6l-2.4 0l0-2.4l2.4 0c0 0 .01-1.63 0-1.6c0-3.2.7-5.3 4.3-5.3c.6 0 1.2 0 1.8.2c0 0-.2 2.4-.2 2.4c-.4-.1-.8-.2-1.2-.2c-1.6 0-1.8 1.1-1.8 2.4c-.01.01 0 2.1 0 2.1l2.7 0l0 2.4l-2.7 0l0 9.1l-2.9 0l0-9.1zm6.8 0l0-2.4l2.3 0l0-3.3l2.9 0l0 3.3l3.2 0l0 2.4l-3.2 0c0 0 .03 5.09 0 5.1c0 1.1.4 1.9 1.6 1.9c.5 0 1.2-.1 1.6-.4c0 0 0 2.4 0 2.4c-.6.3-1.6.4-2.3.4c-3 0-3.8-1.4-3.8-4.1c.05.03 0-5.3 0-5.3l-2.3 0zm12.7 5.6c1.1 0 2 .8 2 1.8c0 1-.9 1.9-2 1.9c-1 0-1.9-.8-1.9-1.9c0-1 .9-1.8 1.9-1.8z" stroke="none" fill="#fff"/></g><g id="Polygon46918"><path d="m1.4 67.9c0 0 6.62-6.41 6.6-6.4c.8-.8 1.8-1.7 1.8-2.9c0-1.4-1.2-2.2-2.5-2.2c-1.4 0-2.4.9-2.6 2.3c0 0-3-.3-3-.3c.2-3.1 2.5-4.8 5.6-4.8c3 0 5.5 1.6 5.5 4.9c0 2.1-1.1 3.6-2.6 5c-.02-.04-5.3 4.8-5.3 4.8l7.9 0l0 2.6l-11.4 0l0-3zm17.6-7.1c0 0 .74-.03.7 0c1.7 0 3.3-.3 3.3-2.3c0-1.3-1-2.3-2.4-2.3c-1.1 0-2.1.7-2.5 1.9c0 0-3.1-.8-3.1-.8c.8-2.5 3-3.7 5.5-3.7c2.9 0 5.4 1.6 5.4 4.6c0 1.8-1.1 3.4-2.9 3.8c0 0 0 .1 0 .1c2.2.3 3.3 2 3.3 4.1c0 3.2-2.7 5-5.7 5c-2.8 0-5.1-1.1-5.8-4c0 0 3-.8 3-.8c.4 1.4 1.3 2.2 2.8 2.2c1.5 0 2.9-1.1 2.9-2.6c0-2.3-2.1-2.6-3.8-2.6c-.01-.04-.7 0-.7 0l0-2.6zm9.6 7.1c0 0 6.59-6.41 6.6-6.4c.8-.8 1.7-1.7 1.7-2.9c0-1.4-1.1-2.2-2.4-2.2c-1.4 0-2.5.9-2.6 2.3c0 0-3.1-.3-3.1-.3c.3-3.1 2.6-4.8 5.7-4.8c3 0 5.5 1.6 5.5 4.9c0 2.1-1.1 3.6-2.7 5c.05-.04-5.2 4.8-5.2 4.8l7.9 0l0 2.6l-11.4 0l0-3zm24.5-9.8c0 1.8-.9 3.3-2.6 3.8c0 0 0 .1 0 .1c1.7.3 3.1 2 3.1 4.1c0 3.4-2.6 5.1-5.7 5.1c-3.2 0-5.8-1.7-5.8-5.1c0-2.1 1.5-3.8 3.1-4.1c0 0 0-.1 0-.1c-1.7-.5-2.5-2-2.5-3.8c0-2.9 2.3-4.5 5.2-4.5c2.9 0 5.2 1.6 5.2 4.5zm-7.5.3c0 1.3.9 2.4 2.3 2.4c1.3 0 2.3-1.1 2.3-2.4c0-1.3-1-2.3-2.3-2.3c-1.5 0-2.3 1-2.3 2.3zm-.6 7.3c0 1.6 1.2 2.8 2.9 2.8c1.6 0 2.8-1.2 2.8-2.8c0-1.5-1.3-2.6-2.8-2.6c-1.6 0-2.9 1.1-2.9 2.6zm19-11.8l3 0l0 14.3l7.2 0l0 2.7l-10.2 0l0-17zm19.7 15.4c0 0-.07.04-.1 0c-.8 1.3-2.1 1.9-3.7 1.9c-2.1 0-4.2-1.2-4.2-3.4c0-3.8 4.4-4.1 7.3-4.1c-.01.04.7 0 .7 0c0 0 .01-.27 0-.3c0-1.4-1.1-2.1-2.6-2.1c-1.2 0-2.3.5-3.1 1.2c0 0-1.5-1.5-1.5-1.5c1.3-1.3 3.1-1.9 4.9-1.9c4.9 0 4.9 3.6 4.9 5.2c0 0 0 6.6 0 6.6l-2.6 0l0-1.6zm-.2-3.5c0 0-.56-.04-.6 0c-1.5 0-4.3.1-4.3 1.7c0 1.1 1.1 1.5 2 1.5c2 0 2.9-1 2.9-2.6c.04.01 0-.6 0-.6zm6-13l2.9 0l0 11.4l4.4-4.8l3.7 0l-5 5.2l5.3 6.3l-3.8 0l-4.6-5.9l0 0l0 5.9l-2.9 0l0-18.1zm14.6 13.4c.2 1.7 1.5 2.7 3.1 2.7c1.4 0 2.3-.7 3.1-1.6c0 0 2 1.6 2 1.6c-1.3 1.7-3 2.3-4.8 2.3c-3.5 0-6.3-2.4-6.3-6c0-3.7 2.8-6.1 6.3-6.1c3.2 0 5.4 2.3 5.4 6.3c-.04-.02 0 .8 0 .8c0 0-8.82-.03-8.8 0zm5.9-2.2c0-1.7-1.1-2.7-2.9-2.7c-1.8 0-2.8 1.1-3 2.7c0 0 5.9 0 5.9 0zm12.9-10.1c0 0 5.73.03 5.7 0c3.3 0 6.3 1.2 6.3 4.9c0 4.3-3.2 5.1-6.8 5.1c0-.01-2.2 0-2.2 0l0 7l-3 0l0-17zm4.9 7.4c1.7 0 3.9-.1 3.9-2.4c0-2.1-2-2.4-3.6-2.4c0 .02-2.2 0-2.2 0l0 4.8c0 0 1.86 0 1.9 0zm9.2-8.5l2.9 0l0 18.1l-2.9 0l0-18.1zm13.4 16.5c0 0-.04.04 0 0c-.9 1.3-2.2 1.9-3.7 1.9c-2.2 0-4.2-1.2-4.2-3.4c0-3.8 4.3-4.1 7.2-4.1c.01.04.7 0 .7 0c0 0 .03-.27 0-.3c0-1.4-1.1-2.1-2.6-2.1c-1.2 0-2.3.5-3.1 1.2c0 0-1.5-1.5-1.5-1.5c1.3-1.3 3.1-1.9 4.9-1.9c4.9 0 4.9 3.6 4.9 5.2c.02 0 0 6.6 0 6.6l-2.6 0l0-1.6zm-.1-3.5c0 0-.64-.04-.6 0c-1.6 0-4.4.1-4.4 1.7c0 1.1 1.1 1.5 2.1 1.5c1.9 0 2.9-1 2.9-2.6c-.04.01 0-.6 0-.6zm13.7-2.9c-.7-.7-1.4-1.2-2.2-1.2c-2.1 0-3.4 1.7-3.4 3.5c0 1.8 1.3 3.4 3.4 3.4c.9 0 1.7-.4 2.2-1.1c0 0 2 2.1 2 2.1c-1.2 1.2-3.2 1.6-4.2 1.6c-3.5 0-6.3-2.4-6.3-6c0-3.7 2.8-6.1 6.3-6.1c1.5 0 3.1.5 4.2 1.8c0 0-2 2-2 2zm5.8 3.3c.2 1.7 1.5 2.7 3.1 2.7c1.5 0 2.4-.7 3.1-1.6c0 0 2.1 1.6 2.1 1.6c-1.3 1.7-3.1 2.3-4.9 2.3c-3.5 0-6.2-2.4-6.2-6c0-3.7 2.7-6.1 6.2-6.1c3.2 0 5.4 2.3 5.4 6.3c.02-.02 0 .8 0 .8c0 0-8.76-.03-8.8 0zm5.9-2.2c0-1.7-1.1-2.7-2.9-2.7c-1.7 0-2.7 1.1-3 2.7c0 0 5.9 0 5.9 0zm5.9 3.6l3 0l-2.1 6.3l-2.5 0l1.6-6.3zm13.6-13.7l4.6 0l4.6 11.9l4.6-11.9l4.5 0l0 17l-2.9 0l0-14.1l0 0l-5.2 14.1l-2.1 0l-5.1-14.1l-.1 0l0 14.1l-2.9 0l0-17zm21.9 5.5l2.8 0l0 11.5l-2.8 0l0-11.5zm1.4-5.6c1 0 1.9.7 1.9 1.7c0 1-.9 1.7-1.9 1.7c-1.1 0-1.8-.8-1.8-1.7c0-.9.7-1.7 1.8-1.7zm4.7 5.6l2.8 0l0 1.8c0 0 .01.05 0 0c.5-1.1 1.6-2.1 3.5-2.1c3.1 0 4.2 2.2 4.2 4.5c.03.05 0 7.3 0 7.3l-2.8 0c0 0-.05-5.81 0-5.8c0-1.3-.1-3.4-2.2-3.4c-1.9 0-2.6 1.4-2.6 2.9c0 .03 0 6.3 0 6.3l-2.9 0l0-11.5zm13.8 0l2.7 0l0 1.8c0 0 .08.05.1 0c.5-1.1 1.6-2.1 3.5-2.1c3.1 0 4.2 2.2 4.2 4.5c.01.05 0 7.3 0 7.3l-2.9 0c0 0 .03-5.81 0-5.8c0-1.3-.1-3.4-2.1-3.4c-1.9 0-2.6 1.4-2.6 2.9c-.03.03 0 6.3 0 6.3l-2.9 0l0-11.5zm16 6.8c.2 1.7 1.5 2.7 3.1 2.7c1.4 0 2.4-.7 3.1-1.6c0 0 2 1.6 2 1.6c-1.3 1.7-3 2.3-4.8 2.3c-3.5 0-6.3-2.4-6.3-6c0-3.7 2.8-6.1 6.3-6.1c3.2 0 5.4 2.3 5.4 6.3c-.03-.02 0 .8 0 .8c0 0-8.81-.03-8.8 0zm5.9-2.2c0-1.7-1.1-2.7-2.9-2.7c-1.7 0-2.8 1.1-3 2.7c0 0 5.9 0 5.9 0zm12.7 5.3c0 0-.09.04-.1 0c-.8 1.3-2.2 1.9-3.7 1.9c-2.1 0-4.2-1.2-4.2-3.4c0-3.8 4.4-4.1 7.3-4.1c-.04.04.7 0 .7 0c0 0-.02-.27 0-.3c0-1.4-1.1-2.1-2.7-2.1c-1.2 0-2.3.5-3 1.2c0 0-1.5-1.5-1.5-1.5c1.2-1.3 3-1.9 4.9-1.9c4.9 0 4.9 3.6 4.9 5.2c-.03 0 0 6.6 0 6.6l-2.6 0l0-1.6zm-.2-3.5c0 0-.59-.04-.6 0c-1.6 0-4.3.1-4.3 1.7c0 1.1 1.1 1.5 2 1.5c2 0 2.9-1 2.9-2.6c.01.01 0-.6 0-.6zm5.9-6.4l2.8 0l0 1.7c0 0 .03.03 0 0c.9-1.4 2.4-2 4-2c3.5 0 5.7 2.7 5.7 6.1c0 3.4-2.3 6-5.6 6c-2.1 0-3.3-1-3.9-1.7c0-.04-.1 0-.1 0l0 6.9l-2.9 0l0-17zm6.2 2.3c-2.1 0-3.4 1.7-3.4 3.5c0 1.8 1.3 3.4 3.4 3.4c2.1 0 3.4-1.6 3.4-3.4c0-1.8-1.3-3.5-3.4-3.5zm14.6-2.6c3.5 0 6.3 2.4 6.3 6.1c0 3.6-2.8 6-6.3 6c-3.5 0-6.2-2.4-6.2-6c0-3.7 2.7-6.1 6.2-6.1zm0 9.5c2.1 0 3.4-1.6 3.4-3.4c0-1.8-1.3-3.5-3.4-3.5c-2.1 0-3.4 1.7-3.4 3.5c0 1.8 1.3 3.4 3.4 3.4zm9-15.8l2.9 0l0 18.1l-2.9 0l0-18.1zm6.2 6.6l2.9 0l0 11.5l-2.9 0l0-11.5zm1.4-5.6c1.1 0 1.9.7 1.9 1.7c0 1-.8 1.7-1.9 1.7c-1 0-1.8-.8-1.8-1.7c0-.9.8-1.7 1.8-1.7zm11 8.8c-.6-.8-1.3-1.2-2.3-1.2c-.7 0-1.7.4-1.7 1.2c0 2.1 6.3.4 6.3 4.9c0 2.7-2.7 3.7-5 3.7c-1.8 0-3.3-.4-4.5-1.8c0 0 1.9-1.8 1.9-1.8c.8.8 1.5 1.4 2.8 1.4c.8 0 1.9-.4 1.9-1.3c0-2.3-6.2-.5-6.2-4.9c0-2.5 2.3-3.7 4.6-3.7c1.5 0 3.2.5 4.1 1.8c0 0-1.9 1.7-1.9 1.7z" stroke="none" fill="#fff"/></g></svg>