<svg xmlns="http://www.w3.org/2000/svg" version="1.1" width="395px" height="241.3px" viewBox="0 0 395 241.3"><desc>meet the curator Jan-Lodewijk Grootaers, PhD, is curator of African Art and head of the MIA s Department of Art</desc><defs/><g id="Polygon46853"><path d="m1.5 206.2c.4.9 1.4 1.4 2.4 1.4c.9 0 1.9-.6 1.9-1.5c0-2.3-5-.7-5-3.9c0-1.6 1.5-2.4 2.9-2.4c1.3 0 2.4.5 2.9 1.6c0 0-.9.5-.9.5c-.5-.7-1-1.1-2-1.1c-.8 0-1.8.4-1.8 1.3c0 2.3 5 .5 5 3.9c0 1.7-1.5 2.6-3 2.6c-1.5 0-2.7-.6-3.4-1.7c0 0 1-.7 1-.7zm14.5.9c-.8 1-1.8 1.5-3 1.5c-2.6 0-4.4-1.9-4.4-4.4c0-2.6 1.8-4.4 4.4-4.4c1.2 0 2.3.5 3.1 1.4c0 0-.9.7-.9.7c-.6-.7-1.4-1.1-2.2-1.1c-2 0-3.3 1.5-3.3 3.4c0 1.9 1.3 3.4 3.3 3.4c.9 0 1.7-.5 2.2-1.2c0 0 .8.7.8.7zm1.8-12.4l1.1 0l0 6.8c0 0 .06-.02.1 0c.4-.9 1.5-1.7 2.8-1.7c2.6 0 3.2 1.8 3.2 3.6c-.03-.01 0 4.9 0 4.9l-1.1 0c0 0-.01-4.86 0-4.9c0-1.3-.4-2.6-2.1-2.6c-1.6 0-2.9 1.1-2.9 3.4c.02-.02 0 4.1 0 4.1l-1.1 0l0-13.6zm13.9 5.1c2.5 0 4.3 1.8 4.3 4.4c0 2.5-1.8 4.4-4.3 4.4c-2.6 0-4.4-1.9-4.4-4.4c0-2.6 1.8-4.4 4.4-4.4zm0 7.8c2 0 3.3-1.5 3.3-3.4c0-1.9-1.3-3.4-3.3-3.4c-2.1 0-3.3 1.5-3.3 3.4c0 1.9 1.2 3.4 3.3 3.4zm10.6-7.8c2.6 0 4.4 1.8 4.4 4.4c0 2.5-1.8 4.4-4.4 4.4c-2.5 0-4.4-1.9-4.4-4.4c0-2.6 1.9-4.4 4.4-4.4zm0 7.8c2 0 3.3-1.5 3.3-3.4c0-1.9-1.3-3.4-3.3-3.4c-2 0-3.3 1.5-3.3 3.4c0 1.9 1.3 3.4 3.3 3.4zm6.8-12.9l1.1 0l0 13.6l-1.1 0l0-13.6zm8.9 11.5c.4.9 1.4 1.4 2.4 1.4c.9 0 1.9-.6 1.9-1.5c0-2.3-4.9-.7-4.9-3.9c0-1.6 1.4-2.4 2.8-2.4c1.4 0 2.4.5 2.9 1.6c0 0-.9.5-.9.5c-.4-.7-1-1.1-2-1.1c-.8 0-1.8.4-1.8 1.3c0 2.3 5 .5 5 3.9c0 1.7-1.4 2.6-3 2.6c-1.5 0-2.7-.6-3.4-1.7c0 0 1-.7 1-.7zm14.6.9c-.8 1-1.9 1.5-3.1 1.5c-2.6 0-4.4-1.9-4.4-4.4c0-2.6 1.8-4.4 4.4-4.4c1.2 0 2.3.5 3.1 1.4c0 0-.9.7-.9.7c-.6-.7-1.3-1.1-2.2-1.1c-2 0-3.3 1.5-3.3 3.4c0 1.9 1.3 3.4 3.3 3.4c.9 0 1.7-.5 2.2-1.2c0 0 .9.7.9.7zm1.8-7.1l1.1 0l0 8.3l-1.1 0l0-8.3zm.6-4.1c.4 0 .8.4.8.8c0 .5-.4.8-.8.8c-.5 0-.8-.3-.8-.8c0-.4.3-.8.8-.8zm10.7 10.9c-.8 1.2-2.1 1.8-3.6 1.8c-2.5 0-4.2-1.9-4.2-4.4c0-2.5 1.7-4.4 4.2-4.4c2.5 0 3.9 2 3.9 3.9c-.03 0 0 .8 0 .8c0 0-7.01-.05-7 0c0 .9.6 3.1 3.1 3.1c1.1 0 2.3-.6 2.8-1.5c0 0 .8.7.8.7zm-.8-3.3c0-1.5-1.3-2.7-2.9-2.7c-2.3 0-3 2.2-3 2.7c0 0 5.9 0 5.9 0zm3.4-1.1c0-.6-.1-1.9-.1-2.4c0 0 1.1 0 1.1 0c0 .6.1 1.3.1 1.5c0 0 0 0 0 0c.5-.9 1.5-1.7 2.9-1.7c2.6 0 3.2 1.8 3.2 3.6c-.04-.01 0 4.9 0 4.9l-1.1 0c0 0-.02-4.86 0-4.9c0-1.3-.4-2.6-2.1-2.6c-1.6 0-2.9 1.1-2.9 3.4c.01-.02 0 4.1 0 4.1l-1.1 0c0 0 .03-5.94 0-5.9zm16.9 4.7c-.8 1-1.9 1.5-3.1 1.5c-2.5 0-4.3-1.9-4.3-4.4c0-2.6 1.8-4.4 4.3-4.4c1.3 0 2.3.5 3.1 1.4c0 0-.8.7-.8.7c-.7-.7-1.4-1.1-2.3-1.1c-2 0-3.2 1.5-3.2 3.4c0 1.9 1.2 3.4 3.2 3.4c.9 0 1.7-.5 2.3-1.2c0 0 .8.7.8.7zm9-.3c-.9 1.2-2.1 1.8-3.6 1.8c-2.5 0-4.2-1.9-4.2-4.4c0-2.5 1.7-4.4 4.1-4.4c2.6 0 3.9 2 3.9 3.9c.05 0 0 .8 0 .8c0 0-6.94-.05-6.9 0c0 .9.6 3.1 3.1 3.1c1.1 0 2.3-.6 2.8-1.5c0 0 .8.7.8.7zm-.8-3.3c0-1.5-1.3-2.7-2.9-2.7c-2.4 0-3 2.2-3 2.7c0 0 5.9 0 5.9 0zm12.2-2.5l-2.4 0c0 0 .03 5.41 0 5.4c0 .8.5 1.2 1.2 1.2c.4 0 .8-.1 1.2-.3c0 0 .1 1 .1 1c-.4.1-1 .3-1.4.3c-1.6 0-2.2-1-2.2-2.2c.05.01 0-5.4 0-5.4l-1.8 0l0-1l1.8 0l0-2.4l1.1 0l0 2.4l2.4 0l0 1zm9 5.8c-.9 1.2-2.1 1.8-3.6 1.8c-2.5 0-4.2-1.9-4.2-4.4c0-2.5 1.7-4.4 4.1-4.4c2.6 0 3.9 2 3.9 3.9c.04 0 0 .8 0 .8c0 0-6.94-.05-6.9 0c0 .9.6 3.1 3.1 3.1c1.1 0 2.3-.6 2.8-1.5c0 0 .8.7.8.7zm-.8-3.3c0-1.5-1.3-2.7-2.9-2.7c-2.4 0-3 2.2-3 2.7c0 0 5.9 0 5.9 0zm9.7 1.3c0 1.7 0 2.6.1 3.5c0 0-1 0-1 0c0-.4-.1-.8-.1-1.3c0 0 0 0 0 0c-.6 1.1-1.5 1.6-2.9 1.6c-1.4 0-3-.7-3-2.5c0-2.5 3-2.8 4.7-2.8c-.04 0 1.2 0 1.2 0c0 0 .02-.5 0-.5c0-1.4-1-2-2.3-2c-1 0-1.8.3-2.6.9c0 0-.6-.7-.6-.7c.8-.8 2.1-1.2 3.2-1.2c2 0 3.3.9 3.3 3c0 0 0 2 0 2zm-2.2-.6c-1.8 0-3.6.4-3.6 1.8c0 1.1 1 1.6 1.9 1.6c2.3 0 2.9-1.5 2.9-2.9c.02.02 0-.5 0-.5c0 0-1.17-.04-1.2 0zm11.9 2.9c-.8 1-1.9 1.5-3 1.5c-2.6 0-4.4-1.9-4.4-4.4c0-2.6 1.8-4.4 4.4-4.4c1.2 0 2.2.5 3.1 1.4c0 0-.9.7-.9.7c-.6-.7-1.4-1.1-2.2-1.1c-2.1 0-3.3 1.5-3.3 3.4c0 1.9 1.2 3.4 3.3 3.4c.9 0 1.6-.5 2.2-1.2c0 0 .8.7.8.7zm1.8-12.4l1.1 0l0 6.8c0 0 .03-.02 0 0c.5-.9 1.5-1.7 2.9-1.7c2.6 0 3.1 1.8 3.1 3.6c.04-.01 0 4.9 0 4.9l-1 0c0 0-.04-4.86 0-4.9c0-1.3-.4-2.6-2.1-2.6c-1.6 0-2.9 1.1-2.9 3.4c-.01-.02 0 4.1 0 4.1l-1.1 0l0-13.6zm17.3 12.1c-.9 1.2-2.2 1.8-3.6 1.8c-2.6 0-4.2-1.9-4.2-4.4c0-2.5 1.7-4.4 4.1-4.4c2.6 0 3.9 2 3.9 3.9c.02 0 0 .8 0 .8c0 0-6.97-.05-7 0c0 .9.7 3.1 3.2 3.1c1.1 0 2.2-.6 2.8-1.5c0 0 .8.7.8.7zm-.9-3.3c0-1.5-1.2-2.7-2.8-2.7c-2.4 0-3.1 2.2-3.1 2.7c0 0 5.9 0 5.9 0zm3.5-1.1c0-.6-.1-1.9-.1-2.4c0 0 1.1 0 1.1 0c0 .6 0 1.3 0 1.5c.6-1 1.4-1.7 2.7-1.7c.2 0 .4 0 .6.1c0 0-.1 1.1-.1 1.1c-.2-.1-.3-.1-.4-.1c-1.9 0-2.7 1.3-2.7 2.9c-.04 0 0 4.5 0 4.5l-1.1 0c0 0-.02-5.94 0-5.9zm10.8-2.4l1.1 0l0 8.3l-1.1 0l0-8.3zm.6-4.1c.4 0 .8.4.8.8c0 .5-.4.8-.8.8c-.5 0-.8-.3-.8-.8c0-.4.3-.8.8-.8zm3.4 6.5c0-.6-.1-1.9-.1-2.4c0 0 1.1 0 1.1 0c0 .6 0 1.3.1 1.5c0 0 0 0 0 0c.5-.9 1.5-1.7 2.9-1.7c2.6 0 3.1 1.8 3.1 3.6c.04-.01 0 4.9 0 4.9l-1 0c0 0-.04-4.86 0-4.9c0-1.3-.4-2.6-2.1-2.6c-1.6 0-2.9 1.1-2.9 3.4c0-.02 0 4.1 0 4.1l-1.1 0c0 0 .02-5.94 0-5.9zm25.5 5.1c-1.5.9-3.1 1.2-4.7 1.2c-3.9 0-6.6-2.8-6.6-6.7c0-3.9 2.7-6.7 6.6-6.7c1.9 0 3.4.5 4.6 1.7c0 0-.9.9-.9.9c-.8-.9-2.3-1.5-3.7-1.5c-3.4 0-5.4 2.4-5.4 5.6c0 3.1 2 5.6 5.4 5.6c1.3 0 2.6-.2 3.5-.8c.03.03 0-4.3 0-4.3l-3 0l0-1l4.2 0c0 0 .02 6.01 0 6zm9.4-2.7c0 1.7 0 2.6.1 3.5c0 0-1 0-1 0c-.1-.4-.1-.8-.1-1.3c0 0 0 0 0 0c-.6 1.1-1.5 1.6-3 1.6c-1.4 0-2.9-.7-2.9-2.5c0-2.5 3-2.8 4.6-2.8c.02 0 1.3 0 1.3 0c0 0-.02-.5 0-.5c0-1.4-1-2-2.4-2c-.9 0-1.8.3-2.5.9c0 0-.6-.7-.6-.7c.8-.8 2.1-1.2 3.1-1.2c2.1 0 3.4.9 3.4 3c0 0 0 2 0 2zm-2.2-.6c-1.8 0-3.6.4-3.6 1.8c0 1.1 1 1.6 1.9 1.6c2.3 0 2.9-1.5 2.9-2.9c-.02.02 0-.5 0-.5c0 0-1.21-.04-1.2 0zm4.8-9.5l1.1 0l0 6.8c0 0 .05-.02.1 0c.6-1.2 2-1.7 3.3-1.7c2.5 0 4.4 1.8 4.4 4.4c0 2.5-1.9 4.4-4.4 4.4c-1.3 0-2.7-.6-3.3-1.7c-.05-.02-.1 0-.1 0l0 1.4l-1.1 0l0-13.6zm4.5 12.9c2 0 3.3-1.5 3.3-3.4c0-1.9-1.3-3.4-3.3-3.4c-2 0-3.5 1.5-3.5 3.4c0 1.9 1.5 3.4 3.5 3.4zm10.6-7.8c2.6 0 4.4 1.8 4.4 4.4c0 2.5-1.8 4.4-4.4 4.4c-2.5 0-4.3-1.9-4.3-4.4c0-2.6 1.8-4.4 4.3-4.4zm0 7.8c2.1 0 3.3-1.5 3.3-3.4c0-1.9-1.2-3.4-3.3-3.4c-2 0-3.3 1.5-3.3 3.4c0 1.9 1.3 3.4 3.3 3.4zm6.7-5.2c0-.6-.1-1.9-.1-2.4c0 0 1.1 0 1.1 0c0 .6.1 1.3.1 1.5c0 0 .1 0 .1 0c.4-.9 1.4-1.7 2.8-1.7c2.6 0 3.2 1.8 3.2 3.6c-.03-.01 0 4.9 0 4.9l-1.1 0c0 0-.01-4.86 0-4.9c0-1.3-.4-2.6-2.1-2.6c-1.6 0-2.9 1.1-2.9 3.4c.02-.02 0 4.1 0 4.1l-1.1 0c0 0 .04-5.94 0-5.9zm21.2 2.4c0 1.7 0 2.6.1 3.5c0 0-1 0-1 0c0-.4-.1-.8-.1-1.3c0 0 0 0 0 0c-.6 1.1-1.5 1.6-2.9 1.6c-1.4 0-3-.7-3-2.5c0-2.5 3-2.8 4.7-2.8c-.04 0 1.2 0 1.2 0c0 0 .02-.5 0-.5c0-1.4-1-2-2.3-2c-1 0-1.8.3-2.6.9c0 0-.6-.7-.6-.7c.8-.8 2.1-1.2 3.2-1.2c2 0 3.3.9 3.3 3c0 0 0 2 0 2zm-2.2-.6c-1.8 0-3.6.4-3.6 1.8c0 1.1 1 1.6 1.9 1.6c2.3 0 2.9-1.5 2.9-2.9c.02.02 0-.5 0-.5c0 0-1.17-.04-1.2 0zm5-1.8c0-.6-.1-1.9-.1-2.4c0 0 1.1 0 1.1 0c0 .6 0 1.3.1 1.5c0 0 0 0 0 0c.4-.9 1.5-1.7 2.9-1.7c2.5 0 3.1 1.8 3.1 3.6c.02-.01 0 4.9 0 4.9l-1.1 0c0 0 .04-4.86 0-4.9c0-1.3-.3-2.6-2-2.6c-1.6 0-2.9 1.1-2.9 3.4c-.03-.02 0 4.1 0 4.1l-1.1 0c0 0-.01-5.94 0-5.9zm17.2 4.5c0 0-.06-.02-.1 0c-.6 1.1-2.1 1.7-3.3 1.7c-2.5 0-4.4-1.9-4.4-4.4c0-2.6 1.9-4.4 4.4-4.4c1.2 0 2.7.5 3.3 1.7c.04-.02.1 0 .1 0l0-6.8l1.1 0l0 13.6l-1.1 0l0-1.4zm-3.4-6.1c-2 0-3.3 1.5-3.3 3.4c0 1.9 1.3 3.4 3.3 3.4c2 0 3.5-1.5 3.5-3.4c0-1.9-1.5-3.4-3.5-3.4zm10.8 6.6l7.4-10.7l-7.3 0l0-1.1l8.8 0l0 1l-7.5 10.7l7.7 0l0 1l-9.1 0l0-.9zm11.1-7.4l1.1 0l0 8.3l-1.1 0l0-8.3zm.5-4.1c.5 0 .8.4.8.8c0 .5-.3.8-.8.8c-.4 0-.8-.3-.8-.8c0-.4.4-.8.8-.8zm3.5 6.5c0-.6-.1-1.9-.1-2.4c0 0 1.1 0 1.1 0c0 .6 0 1.3 0 1.5c0 0 .1 0 .1 0c.4-.9 1.5-1.7 2.8-1.7c1.1 0 2.1.5 2.5 1.8c.6-1.2 1.7-1.8 2.9-1.8c2.5 0 3.1 1.8 3.1 3.6c.03-.01 0 4.9 0 4.9l-1.1 0c0 0 .05-4.86 0-4.9c0-1.3-.3-2.6-2-2.6c-2 0-2.6 1.7-2.6 2.9c.04-.04 0 4.6 0 4.6l-1 0c0 0-.04-4.96 0-5c0-1.5-.6-2.5-1.8-2.5c-1.6 0-2.9 1.1-2.9 3.4c.05-.02 0 4.1 0 4.1l-1 0c0 0-.03-5.94 0-5.9zm15.1-7.7l1.1 0l0 6.8c0 0 .04-.02 0 0c.7-1.2 2.1-1.7 3.4-1.7c2.5 0 4.3 1.8 4.3 4.4c0 2.5-1.8 4.4-4.3 4.4c-1.3 0-2.7-.6-3.4-1.7c.04-.02 0 0 0 0l0 1.4l-1.1 0l0-13.6zm4.5 12.9c2 0 3.3-1.5 3.3-3.4c0-1.9-1.3-3.4-3.3-3.4c-2 0-3.5 1.5-3.5 3.4c0 1.9 1.5 3.4 3.5 3.4zm13.1-2.8c0 1.7 0 2.6.1 3.5c0 0-1 0-1 0c-.1-.4-.1-.8-.1-1.3c0 0 0 0 0 0c-.6 1.1-1.5 1.6-2.9 1.6c-1.5 0-3-.7-3-2.5c0-2.5 3-2.8 4.6-2.8c.02 0 1.3 0 1.3 0c0 0-.02-.5 0-.5c0-1.4-1-2-2.4-2c-.9 0-1.8.3-2.5.9c0 0-.6-.7-.6-.7c.8-.8 2.1-1.2 3.1-1.2c2.1 0 3.4.9 3.4 3c0 0 0 2 0 2zm-2.2-.6c-1.8 0-3.6.4-3.6 1.8c0 1.1 1 1.6 1.9 1.6c2.3 0 2.9-1.5 2.9-2.9c-.02.02 0-.5 0-.5c0 0-1.2-.04-1.2 0zm4.8-9.5l1.1 0l0 6.8c0 0 .06-.02.1 0c.6-1.2 2-1.7 3.3-1.7c2.5 0 4.4 1.8 4.4 4.4c0 2.5-1.9 4.4-4.4 4.4c-1.3 0-2.7-.6-3.3-1.7c-.04-.02-.1 0-.1 0l0 1.4l-1.1 0l0-13.6zm4.5 12.9c2 0 3.3-1.5 3.3-3.4c0-1.9-1.3-3.4-3.3-3.4c-2 0-3.5 1.5-3.5 3.4c0 1.9 1.5 3.4 3.5 3.4zm5.4-7.6l1.2 0l2 7l.1 0l2.3-7l1 0l2.5 7l0 0l2-7l1.1 0l-2.5 8.3l-1.1 0l-2.5-6.8l0 0l-2.3 6.8l-1.1 0l-2.7-8.3zm21.1 6.8c-.8 1.2-2.1 1.8-3.6 1.8c-2.5 0-4.2-1.9-4.2-4.4c0-2.5 1.7-4.4 4.2-4.4c2.5 0 3.9 2 3.9 3.9c-.03 0 0 .8 0 .8c0 0-7.01-.05-7 0c0 .9.6 3.1 3.1 3.1c1.1 0 2.3-.6 2.8-1.5c0 0 .8.7.8.7zm-.8-3.3c0-1.5-1.3-2.7-2.9-2.7c-2.3 0-3 2.2-3 2.7c0 0 5.9 0 5.9 0zm3.9 3.2c.5 0 .8.4.8.9c0 .5-.3.8-.8.8c-.5 0-.9-.3-.9-.8c0-.5.4-.9.9-.9z" stroke="none" fill="#000"/></g><g id="Polygon46852"><path d="m7.9 180.8c0 1.7 0 2.6.2 3.5c0 0-1 0-1 0c-.1-.4-.2-.8-.2-1.3c0 0 0 0 0 0c-.6 1.1-1.5 1.6-2.9 1.6c-1.4 0-2.9-.7-2.9-2.5c0-2.5 2.9-2.8 4.6-2.8c-.03 0 1.2 0 1.2 0c0 0 .03-.5 0-.5c0-1.4-1-2-2.3-2c-1 0-1.8.3-2.5.9c0 0-.7-.7-.7-.7c.8-.8 2.1-1.2 3.2-1.2c2 0 3.3.9 3.3 3c0 0 0 2 0 2zm-2.2-.6c-1.8 0-3.6.4-3.6 1.8c0 1.1 1 1.6 1.9 1.6c2.3 0 2.9-1.5 2.9-2.9c.03.02 0-.5 0-.5c0 0-1.16-.04-1.2 0zm5-1.8c0-.6-.1-1.9-.1-2.4c0 0 1.1 0 1.1 0c0 .6 0 1.3.1 1.5c.5-1 1.4-1.7 2.6-1.7c.2 0 .4 0 .6.1c0 0-.1 1.1-.1 1.1c-.1-.1-.3-.1-.4-.1c-1.9 0-2.7 1.3-2.7 2.9c-.01 0 0 4.5 0 4.5l-1.1 0c0 0 .01-5.94 0-5.9zm10.8-1.4l-2.4 0c0 0-.01 5.41 0 5.4c0 .8.4 1.2 1.1 1.2c.5 0 .9-.1 1.3-.3c0 0 .1 1 .1 1c-.4.1-1 .3-1.4.3c-1.6 0-2.2-1-2.2-2.2c.01.01 0-5.4 0-5.4l-1.8 0l0-1l1.8 0l0-2.4l1.1 0l0 2.4l2.4 0l0 1zm13.8 5.9c0 0 .01-.02 0 0c-.7 1.1-2.1 1.7-3.3 1.7c-2.6 0-4.4-1.9-4.4-4.4c0-2.6 1.8-4.4 4.4-4.4c1.2 0 2.6.5 3.3 1.7c.01-.02 0 0 0 0l0-6.8l1.1 0l0 13.6l-1.1 0l0-1.4zm-3.3-6.1c-2.1 0-3.3 1.5-3.3 3.4c0 1.9 1.2 3.4 3.3 3.4c1.9 0 3.5-1.5 3.5-3.4c0-1.9-1.6-3.4-3.5-3.4zm14.5 6c-.9 1.2-2.1 1.8-3.6 1.8c-2.5 0-4.2-1.9-4.2-4.4c0-2.5 1.7-4.4 4.1-4.4c2.6 0 3.9 2 3.9 3.9c.04 0 0 .8 0 .8c0 0-6.94-.05-6.9 0c0 .9.6 3.1 3.1 3.1c1.1 0 2.3-.6 2.8-1.5c0 0 .8.7.8.7zm-.8-3.3c0-1.5-1.3-2.7-2.9-2.7c-2.4 0-3 2.2-3 2.7c0 0 5.9 0 5.9 0zm2.1-3.5l1.2 0l2.8 7.2l2.7-7.2l1.1 0l-3.3 8.3l-1.1 0l-3.4-8.3zm16.6 6.8c-.9 1.2-2.2 1.8-3.6 1.8c-2.6 0-4.2-1.9-4.2-4.4c0-2.5 1.7-4.4 4.1-4.4c2.6 0 3.9 2 3.9 3.9c.02 0 0 .8 0 .8c0 0-6.96-.05-7 0c0 .9.7 3.1 3.2 3.1c1.1 0 2.2-.6 2.8-1.5c0 0 .8.7.8.7zm-.9-3.3c0-1.5-1.2-2.7-2.8-2.7c-2.4 0-3.1 2.2-3.1 2.7c0 0 5.9 0 5.9 0zm3.6-8.8l1.1 0l0 13.6l-1.1 0l0-13.6zm7.9 5.1c2.5 0 4.4 1.8 4.4 4.4c0 2.5-1.9 4.4-4.4 4.4c-2.6 0-4.4-1.9-4.4-4.4c0-2.6 1.8-4.4 4.4-4.4zm0 7.8c2 0 3.3-1.5 3.3-3.4c0-1.9-1.3-3.4-3.3-3.4c-2 0-3.3 1.5-3.3 3.4c0 1.9 1.3 3.4 3.3 3.4zm6.6-7.6l1.1 0l0 1.5c0 0 .01-.02 0 0c.7-1.2 2.1-1.7 3.3-1.7c2.6 0 4.4 1.8 4.4 4.4c0 2.5-1.8 4.4-4.4 4.4c-1.2 0-2.6-.6-3.3-1.7c.01-.02 0 0 0 0l0 5.5l-1.1 0l0-12.4zm4.4 7.6c2.1 0 3.3-1.5 3.3-3.4c0-1.9-1.2-3.4-3.3-3.4c-1.9 0-3.4 1.5-3.4 3.4c0 1.9 1.5 3.4 3.4 3.4zm14.1-.8c-.8 1.2-2.1 1.8-3.6 1.8c-2.5 0-4.2-1.9-4.2-4.4c0-2.5 1.7-4.4 4.2-4.4c2.5 0 3.9 2 3.9 3.9c-.02 0 0 .8 0 .8c0 0-7-.05-7 0c0 .9.6 3.1 3.1 3.1c1.1 0 2.3-.6 2.8-1.5c0 0 .8.7.8.7zm-.8-3.3c0-1.5-1.3-2.7-2.9-2.7c-2.3 0-3 2.2-3 2.7c0 0 5.9 0 5.9 0zm10.7 3.4c0 0-.01-.02 0 0c-.7 1.1-2.1 1.7-3.3 1.7c-2.6 0-4.4-1.9-4.4-4.4c0-2.6 1.8-4.4 4.4-4.4c1.2 0 2.6.5 3.3 1.7c-.01-.02 0 0 0 0l0-6.8l1.1 0l0 13.6l-1.1 0l0-1.4zm-3.3-6.1c-2.1 0-3.3 1.5-3.3 3.4c0 1.9 1.2 3.4 3.3 3.4c1.9 0 3.4-1.5 3.4-3.4c0-1.9-1.5-3.4-3.4-3.4zm10.6-.8l1.1 0l2.1 7l0 0l2.3-7l1 0l2.5 7l0 0l2-7l1.1 0l-2.5 8.3l-1.1 0l-2.5-6.8l0 0l-2.3 6.8l-1.1 0l-2.6-8.3zm13.9-5.3l1.1 0l0 6.8c0 0 .01-.02 0 0c.4-.9 1.5-1.7 2.8-1.7c2.6 0 3.2 1.8 3.2 3.6c.02-.01 0 4.9 0 4.9l-1.1 0c0 0 .04-4.86 0-4.9c0-1.3-.3-2.6-2.1-2.6c-1.6 0-2.8 1.1-2.8 3.4c-.03-.02 0 4.1 0 4.1l-1.1 0l0-13.6zm10 5.3l1.1 0l0 8.3l-1.1 0l0-8.3zm.5-4.1c.5 0 .8.4.8.8c0 .5-.3.8-.8.8c-.4 0-.8-.3-.8-.8c0-.4.4-.8.8-.8zm3.5-1.2l1.1 0l0 13.6l-1.1 0l0-13.6zm11.4 12.1c-.9 1.2-2.1 1.8-3.6 1.8c-2.6 0-4.2-1.9-4.2-4.4c0-2.5 1.7-4.4 4.1-4.4c2.6 0 3.9 2 3.9 3.9c.04 0 0 .8 0 .8c0 0-6.94-.05-6.9 0c0 .9.6 3.1 3.1 3.1c1.1 0 2.3-.6 2.8-1.5c0 0 .8.7.8.7zm-.8-3.3c0-1.5-1.3-2.7-2.9-2.7c-2.4 0-3 2.2-3 2.7c0 0 5.9 0 5.9 0zm8.1-8.8l1.1 0l0 6.8c0 0 .05-.02 0 0c.5-.9 1.5-1.7 2.9-1.7c2.6 0 3.2 1.8 3.2 3.6c-.04-.01 0 4.9 0 4.9l-1.1 0c0 0-.02-4.86 0-4.9c0-1.3-.4-2.6-2.1-2.6c-1.6 0-2.9 1.1-2.9 3.4c.01-.02 0 4.1 0 4.1l-1.1 0l0-13.6zm17.3 12.1c-.9 1.2-2.1 1.8-3.6 1.8c-2.6 0-4.2-1.9-4.2-4.4c0-2.5 1.7-4.4 4.1-4.4c2.6 0 3.9 2 3.9 3.9c.04 0 0 .8 0 .8c0 0-6.95-.05-6.9 0c0 .9.6 3.1 3.1 3.1c1.1 0 2.3-.6 2.8-1.5c0 0 .8.7.8.7zm-.8-3.3c0-1.5-1.3-2.7-2.9-2.7c-2.4 0-3 2.2-3 2.7c0 0 5.9 0 5.9 0zm7-3.5l1.1 0l2.1 7l0 0l2.3-7l1 0l2.5 7l0 0l2-7l1.1 0l-2.5 8.3l-1.1 0l-2.5-6.8l0 0l-2.3 6.8l-1.1 0l-2.6-8.3zm20.3 4.8c0 1.7 0 2.6.1 3.5c0 0-1 0-1 0c-.1-.4-.1-.8-.1-1.3c0 0 0 0 0 0c-.6 1.1-1.5 1.6-2.9 1.6c-1.5 0-3-.7-3-2.5c0-2.5 3-2.8 4.6-2.8c.04 0 1.3 0 1.3 0c0 0 0-.5 0-.5c0-1.4-1-2-2.3-2c-1 0-1.8.3-2.6.9c0 0-.6-.7-.6-.7c.8-.8 2.1-1.2 3.2-1.2c2 0 3.3.9 3.3 3c0 0 0 2 0 2zm-2.2-.6c-1.8 0-3.6.4-3.6 1.8c0 1.1 1 1.6 1.9 1.6c2.3 0 2.9-1.5 2.9-2.9c0 .02 0-.5 0-.5c0 0-1.19-.04-1.2 0zm5.1 2c.4.9 1.4 1.4 2.4 1.4c.9 0 1.9-.6 1.9-1.5c0-2.3-4.9-.7-4.9-3.9c0-1.6 1.4-2.4 2.8-2.4c1.3 0 2.4.5 2.9 1.6c0 0-.9.5-.9.5c-.5-.7-1-1.1-2-1.1c-.8 0-1.8.4-1.8 1.3c0 2.3 5 .5 5 3.9c0 1.7-1.5 2.6-3 2.6c-1.5 0-2.7-.6-3.4-1.7c0 0 1-.7 1-.7zm11.1-6.2l1.2 0l2 7l.1 0l2.3-7l1 0l2.5 7l0 0l2-7l1.1 0l-2.5 8.3l-1.1 0l-2.5-6.8l0 0l-2.3 6.8l-1.2 0l-2.6-8.3zm17.7-.2c2.5 0 4.3 1.8 4.3 4.4c0 2.5-1.8 4.4-4.3 4.4c-2.6 0-4.4-1.9-4.4-4.4c0-2.6 1.8-4.4 4.4-4.4zm0 7.8c2 0 3.3-1.5 3.3-3.4c0-1.9-1.3-3.4-3.3-3.4c-2.1 0-3.3 1.5-3.3 3.4c0 1.9 1.2 3.4 3.3 3.4zm6.7-5.2c0-.6-.1-1.9-.1-2.4c0 0 1.1 0 1.1 0c0 .6 0 1.3 0 1.5c.6-1 1.4-1.7 2.7-1.7c.2 0 .4 0 .6.1c0 0-.1 1.1-.1 1.1c-.2-.1-.3-.1-.4-.1c-1.9 0-2.8 1.3-2.8 2.9c.05 0 0 4.5 0 4.5l-1 0c0 0-.03-5.94 0-5.9zm6.1-7.7l1 0l0 9.1l4.1-3.8l1.6 0l-4.3 3.8l4.8 4.5l-1.6 0l-4.6-4.4l0 4.4l-1 0l0-13.6zm8.9 5.3l1.1 0l0 8.3l-1.1 0l0-8.3zm.6-4.1c.4 0 .8.4.8.8c0 .5-.4.8-.8.8c-.5 0-.8-.3-.8-.8c0-.4.3-.8.8-.8zm3.4 6.5c0-.6-.1-1.9-.1-2.4c0 0 1.1 0 1.1 0c0 .6.1 1.3.1 1.5c0 0 0 0 0 0c.5-.9 1.5-1.7 2.9-1.7c2.6 0 3.2 1.8 3.2 3.6c-.04-.01 0 4.9 0 4.9l-1.1 0c0 0-.02-4.86 0-4.9c0-1.3-.4-2.6-2.1-2.6c-1.6 0-2.9 1.1-2.9 3.4c.01-.02 0 4.1 0 4.1l-1.1 0c0 0 .03-5.94 0-5.9zm18.2 5.4c0 4.1-2.7 4.9-4.4 4.9c-1.7 0-3.3-.7-4.1-1.8c0 0 .8-.8.8-.8c.8 1.1 2 1.6 3.3 1.6c3.3 0 3.3-2.9 3.3-3.8c.03-.03 0-1.2 0-1.2c0 0-.01.02 0 0c-.6 1-1.7 1.6-3.2 1.6c-2.4 0-4.4-1.9-4.4-4.2c0-2.4 2-4.3 4.4-4.3c1.5 0 2.6.6 3.2 1.6c-.01.03 0 0 0 0l0-1.4l1.1 0c0 0 .01 7.8 0 7.8zm-4.3-7c-1.8 0-3.3 1.5-3.3 3.3c0 1.8 1.5 3.3 3.3 3.3c1.8 0 3.3-1.5 3.3-3.3c0-1.8-1.5-3.3-3.3-3.3zm18.1 4c0 1.7 0 2.6.2 3.5c0 0-1 0-1 0c-.1-.4-.2-.8-.2-1.3c0 0 0 0 0 0c-.6 1.1-1.5 1.6-2.9 1.6c-1.4 0-2.9-.7-2.9-2.5c0-2.5 2.9-2.8 4.6-2.8c-.03 0 1.2 0 1.2 0c0 0 .03-.5 0-.5c0-1.4-1-2-2.3-2c-1 0-1.8.3-2.6.9c0 0-.6-.7-.6-.7c.8-.8 2.1-1.2 3.2-1.2c2 0 3.3.9 3.3 3c0 0 0 2 0 2zm-2.2-.6c-1.8 0-3.6.4-3.6 1.8c0 1.1 1 1.6 1.9 1.6c2.3 0 2.9-1.5 2.9-2.9c.03.02 0-.5 0-.5c0 0-1.16-.04-1.2 0zm5.1 2c.4.9 1.4 1.4 2.4 1.4c.9 0 1.9-.6 1.9-1.5c0-2.3-4.9-.7-4.9-3.9c0-1.6 1.5-2.4 2.8-2.4c1.4 0 2.4.5 3 1.6c0 0-1 .5-1 .5c-.4-.7-1-1.1-2-1.1c-.7 0-1.7.4-1.7 1.3c0 2.3 4.9.5 4.9 3.9c0 1.7-1.4 2.6-3 2.6c-1.4 0-2.7-.6-3.4-1.7c0 0 1-.7 1-.7zm18.8-1.4c0 1.7 0 2.6.2 3.5c0 0-1.1 0-1.1 0c0-.4-.1-.8-.1-1.3c0 0 0 0 0 0c-.6 1.1-1.5 1.6-2.9 1.6c-1.4 0-3-.7-3-2.5c0-2.5 3-2.8 4.7-2.8c-.04 0 1.2 0 1.2 0c0 0 .02-.5 0-.5c0-1.4-1-2-2.3-2c-1 0-1.8.3-2.6.9c0 0-.6-.7-.6-.7c.8-.8 2.1-1.2 3.2-1.2c2 0 3.3.9 3.3 3c0 0 0 2 0 2zm-2.2-.6c-1.8 0-3.6.4-3.6 1.8c0 1.1 1 1.6 1.9 1.6c2.3 0 2.9-1.5 2.9-2.9c.02.02 0-.5 0-.5c0 0-1.17-.04-1.2 0zm9.7-9.5l1.1 0l0 6.8c0 0 .06-.02.1 0c.4-.9 1.5-1.7 2.8-1.7c2.6 0 3.2 1.8 3.2 3.6c-.02-.01 0 4.9 0 4.9l-1.1 0c0 0 0-4.86 0-4.9c0-1.3-.4-2.6-2.1-2.6c-1.6 0-2.9 1.1-2.9 3.4c.03-.02 0 4.1 0 4.1l-1.1 0l0-13.6zm10 5.3l1.1 0l0 8.3l-1.1 0l0-8.3zm.6-4.1c.4 0 .8.4.8.8c0 .5-.4.8-.8.8c-.5 0-.8-.3-.8-.8c0-.4.3-.8.8-.8zm11.6 11.9c0 4.1-2.7 4.9-4.4 4.9c-1.7 0-3.3-.7-4.1-1.8c0 0 .8-.8.8-.8c.8 1.1 2 1.6 3.3 1.6c3.3 0 3.3-2.9 3.3-3.8c.04-.03 0-1.2 0-1.2c0 0 .01.02 0 0c-.6 1-1.7 1.6-3.1 1.6c-2.5 0-4.5-1.9-4.5-4.2c0-2.4 2-4.3 4.5-4.3c1.4 0 2.5.6 3.1 1.6c.01.03 0 0 0 0l0-1.4l1.1 0c0 0 .02 7.8 0 7.8zm-4.3-7c-1.8 0-3.3 1.5-3.3 3.3c0 1.8 1.5 3.3 3.3 3.3c1.8 0 3.3-1.5 3.3-3.3c0-1.8-1.5-3.3-3.3-3.3zm7-6.1l1.1 0l0 6.8c0 0 .03-.02 0 0c.5-.9 1.5-1.7 2.9-1.7c2.6 0 3.1 1.8 3.1 3.6c.04-.01 0 4.9 0 4.9l-1 0c0 0-.04-4.86 0-4.9c0-1.3-.4-2.6-2.1-2.6c-1.6 0-2.9 1.1-2.9 3.4c-.01-.02 0 4.1 0 4.1l-1.1 0l0-13.6zm9.5 8.9l4.4 0l0 1l-4.4 0l0-1z" stroke="none" fill="#000"/></g><g id="Polygon46851"><path d="m2.1 153l-1.8 0l0-1l1.8 0c0 0-.05-2.69 0-2.7c0-2.1 1.4-2.8 2.4-2.8c.6 0 1 .1 1.3.2c0 0-.2 1-.2 1c-.3-.2-.6-.2-1-.2c-1 0-1.5.7-1.5 2.2c.03 0 0 2.3 0 2.3l2 0l0 1l-2 0l0 7.3l-1 0l0-7.3zm4.5-6.3l1.1 0l0 13.6l-1.1 0l0-13.6zm11 11.3c0 .6.1 1.9.1 2.3c0 0-1 0-1 0c-.1-.6-.1-1.3-.1-1.4c0 0-.1 0-.1 0c-.4.9-1.5 1.7-2.8 1.7c-2.6 0-3.2-1.8-3.2-3.6c.02-.03 0-5 0-5l1.1 0c0 0 0 4.92 0 4.9c0 1.4.4 2.7 2.1 2.7c1.6 0 2.9-1.1 2.9-3.4c-.04-.02 0-4.2 0-4.2l1 0c0 0 .04 6 0 6zm10.3.8c-.9 1.2-2.2 1.8-3.6 1.8c-2.6 0-4.3-1.9-4.3-4.4c0-2.5 1.8-4.4 4.2-4.4c2.6 0 3.9 2 3.9 3.9c.01 0 0 .8 0 .8c0 0-6.97-.05-7 0c0 .9.7 3.1 3.2 3.1c1.1 0 2.2-.6 2.8-1.5c0 0 .8.7.8.7zm-.9-3.3c0-1.5-1.2-2.7-2.8-2.7c-2.4 0-3.1 2.2-3.1 2.7c0 0 5.9 0 5.9 0zm3.5-1.1c0-.6-.1-1.9-.1-2.4c0 0 1.1 0 1.1 0c0 .6 0 1.3 0 1.5c0 0 .1 0 .1 0c.4-.9 1.5-1.7 2.8-1.7c2.6 0 3.2 1.8 3.2 3.6c0-.01 0 4.9 0 4.9l-1.1 0c0 0 .02-4.86 0-4.9c0-1.3-.4-2.6-2.1-2.6c-1.6 0-2.9 1.1-2.9 3.4c.05-.02 0 4.1 0 4.1l-1 0c0 0-.03-5.94 0-5.9zm13.9-1.4l-2.4 0c0 0 .03 5.41 0 5.4c0 .8.5 1.2 1.2 1.2c.4 0 .8-.1 1.2-.3c0 0 .1 1 .1 1c-.4.1-1 .3-1.4.3c-1.6 0-2.2-1-2.2-2.2c.05.01 0-5.4 0-5.4l-1.8 0l0-1l1.8 0l0-2.4l1.1 0l0 2.4l2.4 0l0 1zm6.8-1l1.1 0l0 8.3l-1.1 0l0-8.3zm.5-4.1c.5 0 .8.4.8.8c0 .5-.3.8-.8.8c-.4 0-.8-.3-.8-.8c0-.4.4-.8.8-.8zm3.5 6.5c0-.6-.1-1.9-.1-2.4c0 0 1.1 0 1.1 0c0 .6 0 1.3 0 1.5c0 0 .1 0 .1 0c.4-.9 1.5-1.7 2.8-1.7c2.6 0 3.2 1.8 3.2 3.6c.01-.01 0 4.9 0 4.9l-1.1 0c0 0 .03-4.86 0-4.9c0-1.3-.4-2.6-2.1-2.6c-1.6 0-2.8 1.1-2.8 3.4c-.04-.02 0 4.1 0 4.1l-1.1 0c0 0-.02-5.94 0-5.9zm15.3-1.4l-1.7 0l0-1l1.7 0c0 0-.02-2.69 0-2.7c0-2.1 1.4-2.8 2.5-2.8c.5 0 .9.1 1.2.2c0 0-.2 1-.2 1c-.3-.2-.6-.2-1-.2c-1 0-1.4.7-1.4 2.2c-.04 0 0 2.3 0 2.3l1.9 0l0 1l-1.9 0l0 7.3l-1.1 0l0-7.3zm8.4-1.2c2.5 0 4.3 1.8 4.3 4.4c0 2.5-1.8 4.4-4.3 4.4c-2.6 0-4.4-1.9-4.4-4.4c0-2.6 1.8-4.4 4.4-4.4zm0 7.8c2 0 3.2-1.5 3.2-3.4c0-1.9-1.2-3.4-3.2-3.4c-2.1 0-3.3 1.5-3.3 3.4c0 1.9 1.2 3.4 3.3 3.4zm13.7-1.6c0 .6.1 1.9.1 2.3c0 0-1.1 0-1.1 0c0-.6 0-1.3 0-1.4c0 0-.1 0-.1 0c-.4.9-1.5 1.7-2.8 1.7c-2.6 0-3.2-1.8-3.2-3.6c-.01-.03 0-5 0-5l1.1 0c0 0-.03 4.92 0 4.9c0 1.4.4 2.7 2.1 2.7c1.6 0 2.8-1.1 2.8-3.4c.04-.02 0-4.2 0-4.2l1.1 0c0 0 .02 6 0 6zm2.9-3.6c0-.6-.1-1.9-.1-2.4c0 0 1.1 0 1.1 0c0 .6 0 1.3.1 1.5c.5-1 1.4-1.7 2.6-1.7c.2 0 .4 0 .6.1c0 0-.1 1.1-.1 1.1c-.2-.1-.3-.1-.4-.1c-1.9 0-2.7 1.3-2.7 2.9c-.03 0 0 4.5 0 4.5l-1.1 0c0 0-.01-5.94 0-5.9zm10.8-7.7l1.1 0l0 13.6l-1.1 0l0-13.6zm10.4 10.1c0 1.7 0 2.6.1 3.5c0 0-1 0-1 0c0-.4-.1-.8-.1-1.3c0 0 0 0 0 0c-.6 1.1-1.5 1.6-2.9 1.6c-1.4 0-3-.7-3-2.5c0-2.5 3-2.8 4.7-2.8c-.05 0 1.2 0 1.2 0c0 0 .01-.5 0-.5c0-1.4-1-2-2.3-2c-1 0-1.8.3-2.6.9c0 0-.6-.7-.6-.7c.8-.8 2.1-1.2 3.2-1.2c2 0 3.3.9 3.3 3c0 0 0 2 0 2zm-2.2-.6c-1.8 0-3.6.4-3.6 1.8c0 1.1 1 1.6 1.9 1.6c2.3 0 2.9-1.5 2.9-2.9c.01.02 0-.5 0-.5c0 0-1.17-.04-1.2 0zm5-1.8c0-.6-.1-1.9-.1-2.4c0 0 1.1 0 1.1 0c0 .6 0 1.3.1 1.5c0 0 0 0 0 0c.4-.9 1.5-1.7 2.8-1.7c2.6 0 3.2 1.8 3.2 3.6c.02-.01 0 4.9 0 4.9l-1.1 0c0 0 .04-4.86 0-4.9c0-1.3-.3-2.6-2.1-2.6c-1.6 0-2.8 1.1-2.8 3.4c-.03-.02 0 4.1 0 4.1l-1.1 0c0 0-.01-5.94 0-5.9zm18.2 5.4c0 4.1-2.8 4.9-4.5 4.9c-1.6 0-3.2-.7-4.1-1.8c0 0 .9-.8.9-.8c.7 1.1 1.9 1.6 3.2 1.6c3.3 0 3.4-2.9 3.4-3.8c-.01-.03 0-1.2 0-1.2c0 0-.05.02 0 0c-.7 1-1.8 1.6-3.2 1.6c-2.4 0-4.4-1.9-4.4-4.2c0-2.4 2-4.3 4.4-4.3c1.4 0 2.5.6 3.2 1.6c-.05.03 0 0 0 0l0-1.4l1.1 0c0 0-.03 7.8 0 7.8zm-4.4-7c-1.8 0-3.3 1.5-3.3 3.3c0 1.8 1.5 3.3 3.3 3.3c1.8 0 3.3-1.5 3.3-3.3c0-1.8-1.5-3.3-3.3-3.3zm14.1 5.2c0 .6.1 1.9.1 2.3c0 0-1.1 0-1.1 0c0-.6 0-1.3 0-1.4c0 0-.1 0-.1 0c-.4.9-1.5 1.7-2.8 1.7c-2.6 0-3.2-1.8-3.2-3.6c-.01-.03 0-5 0-5l1.1 0c0 0-.03 4.92 0 4.9c0 1.4.4 2.7 2.1 2.7c1.6 0 2.8-1.1 2.8-3.4c.04-.02 0-4.2 0-4.2l1.1 0c0 0 .02 6 0 6zm9.2-1.2c0 1.7 0 2.6.2 3.5c0 0-1 0-1 0c-.1-.4-.1-.8-.1-1.3c0 0-.1 0-.1 0c-.6 1.1-1.5 1.6-2.9 1.6c-1.4 0-2.9-.7-2.9-2.5c0-2.5 2.9-2.8 4.6-2.8c-.02 0 1.2 0 1.2 0c0 0 .04-.5 0-.5c0-1.4-1-2-2.3-2c-1 0-1.8.3-2.5.9c0 0-.7-.7-.7-.7c.8-.8 2.1-1.2 3.2-1.2c2 0 3.3.9 3.3 3c0 0 0 2 0 2zm-2.2-.6c-1.8 0-3.6.4-3.6 1.8c0 1.1 1 1.6 1.9 1.6c2.3 0 2.9-1.5 2.9-2.9c.04.02 0-.5 0-.5c0 0-1.15-.04-1.2 0zm13.2 3.6c0 4.1-2.7 4.9-4.4 4.9c-1.7 0-3.3-.7-4.1-1.8c0 0 .8-.8.8-.8c.8 1.1 2 1.6 3.3 1.6c3.3 0 3.4-2.9 3.4-3.8c-.05-.03 0-1.2 0-1.2c0 0-.09.02-.1 0c-.6 1-1.7 1.6-3.1 1.6c-2.5 0-4.5-1.9-4.5-4.2c0-2.4 2-4.3 4.5-4.3c1.4 0 2.5.6 3.1 1.6c.01.03.1 0 .1 0l0-1.4l1 0c0 0 .03 7.8 0 7.8zm-4.3-7c-1.8 0-3.3 1.5-3.3 3.3c0 1.8 1.5 3.3 3.3 3.3c1.8 0 3.3-1.5 3.3-3.3c0-1.8-1.5-3.3-3.3-3.3zm14.4 6c-.8 1.2-2.1 1.8-3.6 1.8c-2.5 0-4.2-1.9-4.2-4.4c0-2.5 1.7-4.4 4.1-4.4c2.6 0 4 2 4 3.9c-.05 0 0 .8 0 .8c0 0-7.03-.05-7 0c0 .9.6 3.1 3.1 3.1c1.1 0 2.3-.6 2.8-1.5c0 0 .8.7.8.7zm-.8-3.3c0-1.5-1.3-2.7-2.9-2.7c-2.4 0-3 2.2-3 2.7c0 0 5.9 0 5.9 0zm3.6 2.7c.4.9 1.4 1.4 2.4 1.4c.9 0 1.9-.6 1.9-1.5c0-2.3-5-.7-5-3.9c0-1.6 1.5-2.4 2.9-2.4c1.3 0 2.4.5 2.9 1.6c0 0-1 .5-1 .5c-.4-.7-.9-1.1-1.9-1.1c-.8 0-1.8.4-1.8 1.3c0 2.3 5 .5 5 3.9c0 1.7-1.5 2.6-3.1 2.6c-1.4 0-2.7-.6-3.3-1.7c0 0 1-.7 1-.7zm8.3.5c.5 0 .9.4.9.9c0 .5-.4.8-.9.8c-.5 0-.8-.3-.8-.8c0-.5.3-.9.8-.9zm8.8-11.1l1.2 0l0 5.6l7.1 0l0-5.6l1.2 0l0 12.7l-1.2 0l0-6l-7.1 0l0 6l-1.2 0l0-12.7zm12.6 4.4l1.1 0l0 8.3l-1.1 0l0-8.3zm.6-4.1c.4 0 .8.4.8.8c0 .5-.4.8-.8.8c-.5 0-.8-.3-.8-.8c0-.4.3-.8.8-.8zm3.5 10.3c.5.9 1.5 1.4 2.4 1.4c1 0 2-.6 2-1.5c0-2.3-5-.7-5-3.9c0-1.6 1.5-2.4 2.9-2.4c1.3 0 2.4.5 2.9 1.6c0 0-1 .5-1 .5c-.4-.7-1-1.1-1.9-1.1c-.8 0-1.8.4-1.8 1.3c0 2.3 4.9.5 4.9 3.9c0 1.7-1.4 2.6-3 2.6c-1.4 0-2.7-.6-3.3-1.7c0 0 .9-.7.9-.7zm12.5-6.2l1.1 0l0 8.3l-1.1 0l0-8.3zm.6-4.1c.4 0 .8.4.8.8c0 .5-.4.8-.8.8c-.5 0-.8-.3-.8-.8c0-.4.3-.8.8-.8zm3.4 6.5c0-.6-.1-1.9-.1-2.4c0 0 1.1 0 1.1 0c0 .6.1 1.3.1 1.5c0 0 0 0 0 0c.5-.9 1.5-1.7 2.9-1.7c2.6 0 3.2 1.8 3.2 3.6c-.04-.01 0 4.9 0 4.9l-1.1 0c0 0-.02-4.86 0-4.9c0-1.3-.4-2.6-2.1-2.6c-1.6 0-2.9 1.1-2.9 3.4c.01-.02 0 4.1 0 4.1l-1.1 0c0 0 .03-5.94 0-5.9zm14-1.4l-2.4 0c0 0-.01 5.41 0 5.4c0 .8.4 1.2 1.1 1.2c.5 0 .9-.1 1.3-.3c0 0 .1 1 .1 1c-.4.1-1 .3-1.4.3c-1.6 0-2.2-1-2.2-2.2c.01.01 0-5.4 0-5.4l-1.8 0l0-1l1.8 0l0-2.4l1.1 0l0 2.4l2.4 0l0 1zm9 5.8c-.9 1.2-2.2 1.8-3.6 1.8c-2.6 0-4.3-1.9-4.3-4.4c0-2.5 1.8-4.4 4.2-4.4c2.6 0 3.9 2 3.9 3.9c0 0 0 .8 0 .8c0 0-6.98-.05-7 0c0 .9.7 3.1 3.2 3.1c1.1 0 2.2-.6 2.8-1.5c0 0 .8.7.8.7zm-.9-3.3c0-1.5-1.3-2.7-2.9-2.7c-2.3 0-3 2.2-3 2.7c0 0 5.9 0 5.9 0zm3.5-1.1c0-.6-.1-1.9-.1-2.4c0 0 1.1 0 1.1 0c0 .6 0 1.3 0 1.5c.6-1 1.4-1.7 2.7-1.7c.2 0 .4 0 .6.1c0 0-.1 1.1-.1 1.1c-.2-.1-.3-.1-.4-.1c-1.9 0-2.8 1.3-2.8 2.9c.04 0 0 4.5 0 4.5l-1 0c0 0-.04-5.94 0-5.9zm13.1 4.4c-.9 1.2-2.2 1.8-3.6 1.8c-2.6 0-4.3-1.9-4.3-4.4c0-2.5 1.8-4.4 4.2-4.4c2.6 0 3.9 2 3.9 3.9c0 0 0 .8 0 .8c0 0-6.98-.05-7 0c0 .9.6 3.1 3.2 3.1c1.1 0 2.2-.6 2.8-1.5c0 0 .8.7.8.7zm-.9-3.3c0-1.5-1.3-2.7-2.9-2.7c-2.3 0-3 2.2-3 2.7c0 0 5.9 0 5.9 0zm3.6 2.7c.5.9 1.4 1.4 2.4 1.4c1 0 1.9-.6 1.9-1.5c0-2.3-4.9-.7-4.9-3.9c0-1.6 1.5-2.4 2.8-2.4c1.4 0 2.4.5 3 1.6c0 0-1 .5-1 .5c-.4-.7-1-1.1-2-1.1c-.7 0-1.7.4-1.7 1.3c0 2.3 4.9.5 4.9 3.9c0 1.7-1.4 2.6-3 2.6c-1.4 0-2.7-.6-3.4-1.7c0 0 1-.7 1-.7zm11.9-5.2l-2.3 0c0 0-.03 5.41 0 5.4c0 .8.4 1.2 1.1 1.2c.4 0 .9-.1 1.2-.3c0 0 .1 1 .1 1c-.4.1-1 .3-1.4.3c-1.5 0-2.1-1-2.1-2.2c-.01.01 0-5.4 0-5.4l-1.8 0l0-1l1.8 0l0-2.4l1.1 0l0 2.4l2.3 0l0 1zm6.8-1l1.1 0l0 8.3l-1.1 0l0-8.3zm.6-4.1c.4 0 .8.4.8.8c0 .5-.4.8-.8.8c-.5 0-.8-.3-.8-.8c0-.4.3-.8.8-.8zm3.4 6.5c0-.6-.1-1.9-.1-2.4c0 0 1.1 0 1.1 0c0 .6 0 1.3.1 1.5c0 0 0 0 0 0c.5-.9 1.5-1.7 2.9-1.7c2.6 0 3.1 1.8 3.1 3.6c.05-.01 0 4.9 0 4.9l-1 0c0 0-.03-4.86 0-4.9c0-1.3-.4-2.6-2.1-2.6c-1.6 0-2.9 1.1-2.9 3.4c0-.02 0 4.1 0 4.1l-1.1 0c0 0 .02-5.94 0-5.9zm18.9-6.8l1.2 0l5.4 12.7l-1.3 0l-1.4-3.3l-6.8 0l-1.4 3.3l-1.2 0l5.5-12.7zm.6 1.3l-3 7l5.9 0l-2.9-7zm8 4.1l-1.7 0l0-1l1.7 0c0 0-.02-2.69 0-2.7c0-2.1 1.4-2.8 2.5-2.8c.5 0 .9.1 1.2.2c0 0-.2 1-.2 1c-.3-.2-.6-.2-1-.2c-1 0-1.4.7-1.4 2.2c-.04 0 0 2.3 0 2.3l1.9 0l0 1l-1.9 0l0 7.3l-1.1 0l0-7.3zm4.8 1.4c0-.6-.1-1.9-.1-2.4c0 0 1.1 0 1.1 0c0 .6 0 1.3.1 1.5c.5-1 1.4-1.7 2.6-1.7c.2 0 .4 0 .7.1c0 0-.2 1.1-.2 1.1c-.1-.1-.3-.1-.4-.1c-1.9 0-2.7 1.3-2.7 2.9c-.01 0 0 4.5 0 4.5l-1.1 0c0 0 .01-5.94 0-5.9zm6.2-2.4l1.1 0l0 8.3l-1.1 0l0-8.3zm.5-4.1c.5 0 .8.4.8.8c0 .5-.3.8-.8.8c-.4 0-.8-.3-.8-.8c0-.4.4-.8.8-.8zm10.4 11.2c-.8 1-1.9 1.5-3.1 1.5c-2.5 0-4.3-1.9-4.3-4.4c0-2.6 1.8-4.4 4.3-4.4c1.2 0 2.3.5 3.1 1.4c0 0-.8.7-.8.7c-.7-.7-1.4-1.1-2.3-1.1c-2 0-3.3 1.5-3.3 3.4c0 1.9 1.3 3.4 3.3 3.4c.9 0 1.7-.5 2.3-1.2c0 0 .8.7.8.7zm8.4-2.3c0 1.7 0 2.6.1 3.5c0 0-1 0-1 0c0-.4-.1-.8-.1-1.3c0 0 0 0 0 0c-.6 1.1-1.5 1.6-2.9 1.6c-1.5 0-3-.7-3-2.5c0-2.5 3-2.8 4.6-2.8c.04 0 1.3 0 1.3 0c0 0 0-.5 0-.5c0-1.4-1-2-2.3-2c-1 0-1.8.3-2.6.9c0 0-.6-.7-.6-.7c.8-.8 2.1-1.2 3.2-1.2c2 0 3.3.9 3.3 3c0 0 0 2 0 2zm-2.2-.6c-1.8 0-3.6.4-3.6 1.8c0 1.1 1 1.6 1.9 1.6c2.3 0 2.9-1.5 2.9-2.9c0 .02 0-.5 0-.5c0 0-1.19-.04-1.2 0zm5-1.8c0-.6-.1-1.9-.1-2.4c0 0 1.1 0 1.1 0c0 .6 0 1.3 0 1.5c0 0 .1 0 .1 0c.4-.9 1.5-1.7 2.8-1.7c2.6 0 3.2 1.8 3.2 3.6c0-.01 0 4.9 0 4.9l-1.1 0c0 0 .02-4.86 0-4.9c0-1.3-.4-2.6-2.1-2.6c-1.6 0-2.8 1.1-2.8 3.4c-.05-.02 0 4.1 0 4.1l-1.1 0c0 0-.03-5.94 0-5.9z" stroke="none" fill="#000"/></g><g id="Polygon46850"><path d="m1.4 122.7l1.1 0l0 6.8c0 0 .06-.02.1 0c.4-.9 1.4-1.7 2.8-1.7c2.6 0 3.2 1.8 3.2 3.6c-.03-.01 0 4.9 0 4.9l-1.1 0c0 0-.01-4.86 0-4.9c0-1.3-.4-2.6-2.1-2.6c-1.6 0-2.9 1.1-2.9 3.4c.02-.02 0 4.1 0 4.1l-1.1 0l0-13.6zm16.3 10.1c0 1.7 0 2.6.2 3.5c0 0-1 0-1 0c-.1-.4-.2-.8-.2-1.3c0 0 0 0 0 0c-.6 1.1-1.5 1.6-2.9 1.6c-1.4 0-2.9-.7-2.9-2.5c0-2.5 2.9-2.8 4.6-2.8c-.03 0 1.2 0 1.2 0c0 0 .03-.5 0-.5c0-1.4-1-2-2.3-2c-1 0-1.8.3-2.5.9c0 0-.7-.7-.7-.7c.8-.8 2.1-1.2 3.2-1.2c2 0 3.3.9 3.3 3c0 0 0 2 0 2zm-2.2-.6c-1.8 0-3.6.4-3.6 1.8c0 1.1 1 1.6 1.9 1.6c2.3 0 2.9-1.5 2.9-2.9c.03.02 0-.5 0-.5c0 0-1.16-.04-1.2 0zm5.1 2c.5.9 1.4 1.4 2.4 1.4c.9 0 1.9-.6 1.9-1.5c0-2.3-4.9-.7-4.9-3.9c0-1.6 1.5-2.4 2.8-2.4c1.4 0 2.4.5 3 1.6c0 0-1 .5-1 .5c-.4-.7-1-1.1-2-1.1c-.7 0-1.7.4-1.7 1.3c0 2.3 4.9.5 4.9 3.9c0 1.7-1.4 2.6-3 2.6c-1.4 0-2.7-.6-3.4-1.7c0 0 1-.7 1-.7zm12.5-11.5l1.1 0l0 13.6l-1.1 0l0-13.6zm4.1 5.3l1.1 0l0 8.3l-1.1 0l0-8.3zm.5-4.1c.5 0 .8.4.8.8c0 .5-.3.8-.8.8c-.4 0-.8-.3-.8-.8c0-.4.4-.8.8-.8zm2.4 4.1l1.2 0l2.8 7.2l2.7-7.2l1.1 0l-3.3 8.3l-1.1 0l-3.4-8.3zm16.6 6.8c-.8 1.2-2.1 1.8-3.6 1.8c-2.5 0-4.2-1.9-4.2-4.4c0-2.5 1.7-4.4 4.2-4.4c2.5 0 3.9 2 3.9 3.9c-.04 0 0 .8 0 .8c0 0-7.03-.05-7 0c0 .9.6 3.1 3.1 3.1c1.1 0 2.3-.6 2.8-1.5c0 0 .8.7.8.7zm-.8-3.3c0-1.5-1.3-2.7-2.9-2.7c-2.4 0-3 2.2-3 2.7c0 0 5.9 0 5.9 0zm10.7 3.4c0 0-.03-.02 0 0c-.7 1.1-2.1 1.7-3.4 1.7c-2.5 0-4.3-1.9-4.3-4.4c0-2.6 1.8-4.4 4.3-4.4c1.3 0 2.7.5 3.4 1.7c-.03-.02 0 0 0 0l0-6.8l1.1 0l0 13.6l-1.1 0l0-1.4zm-3.4-6.1c-2 0-3.3 1.5-3.3 3.4c0 1.9 1.3 3.4 3.3 3.4c2 0 3.5-1.5 3.5-3.4c0-1.9-1.5-3.4-3.5-3.4zm18.3 4c0 1.7 0 2.6.1 3.5c0 0-1 0-1 0c0-.4-.1-.8-.1-1.3c0 0 0 0 0 0c-.6 1.1-1.5 1.6-2.9 1.6c-1.5 0-3-.7-3-2.5c0-2.5 3-2.8 4.6-2.8c.04 0 1.3 0 1.3 0c0 0 0-.5 0-.5c0-1.4-1-2-2.3-2c-1 0-1.8.3-2.6.9c0 0-.6-.7-.6-.7c.8-.8 2.1-1.2 3.2-1.2c2 0 3.3.9 3.3 3c0 0 0 2 0 2zm-2.2-.6c-1.8 0-3.6.4-3.6 1.8c0 1.1 1 1.6 1.9 1.6c2.3 0 2.9-1.5 2.9-2.9c0 .02 0-.5 0-.5c0 0-1.19-.04-1.2 0zm5-1.8c0-.6-.1-1.9-.1-2.4c0 0 1.1 0 1.1 0c0 .6 0 1.3 0 1.5c0 0 .1 0 .1 0c.4-.9 1.5-1.7 2.8-1.7c2.6 0 3.2 1.8 3.2 3.6c0-.01 0 4.9 0 4.9l-1.1 0c0 0 .02-4.86 0-4.9c0-1.3-.4-2.6-2.1-2.6c-1.6 0-2.8 1.1-2.8 3.4c-.05-.02 0 4.1 0 4.1l-1.1 0c0 0-.03-5.94 0-5.9zm17.2 4.5c0 0-.08-.02-.1 0c-.6 1.1-2.1 1.7-3.3 1.7c-2.6 0-4.4-1.9-4.4-4.4c0-2.6 1.8-4.4 4.4-4.4c1.2 0 2.7.5 3.3 1.7c.02-.02.1 0 .1 0l0-6.8l1 0l0 13.6l-1 0l0-1.4zm-3.4-6.1c-2 0-3.3 1.5-3.3 3.4c0 1.9 1.3 3.4 3.3 3.4c2 0 3.5-1.5 3.5-3.4c0-1.9-1.5-3.4-3.5-3.4zm10.6-.8l1.2 0l2 7l0 0l2.4-7l1 0l2.4 7l.1 0l1.9-7l1.1 0l-2.4 8.3l-1.1 0l-2.5-6.8l-.1 0l-2.3 6.8l-1.1 0l-2.6-8.3zm17.6-.2c2.6 0 4.4 1.8 4.4 4.4c0 2.5-1.8 4.4-4.4 4.4c-2.5 0-4.3-1.9-4.3-4.4c0-2.6 1.8-4.4 4.3-4.4zm0 7.8c2.1 0 3.3-1.5 3.3-3.4c0-1.9-1.2-3.4-3.3-3.4c-2 0-3.3 1.5-3.3 3.4c0 1.9 1.3 3.4 3.3 3.4zm6.7-5.2c0-.6-.1-1.9-.1-2.4c0 0 1.1 0 1.1 0c0 .6.1 1.3.1 1.5c.5-1 1.4-1.7 2.6-1.7c.3 0 .5 0 .7.1c0 0-.2 1.1-.2 1.1c-.1-.1-.3-.1-.4-.1c-1.8 0-2.7 1.3-2.7 2.9c.01 0 0 4.5 0 4.5l-1.1 0c0 0 .03-5.94 0-5.9zm6.1-7.7l1.1 0l0 9.1l4.1-3.8l1.6 0l-4.3 3.8l4.8 4.5l-1.6 0l-4.6-4.4l0 4.4l-1.1 0l0-13.6zm15.6 12.1c-.8 1.2-2.1 1.8-3.6 1.8c-2.5 0-4.2-1.9-4.2-4.4c0-2.5 1.7-4.4 4.2-4.4c2.5 0 3.9 2 3.9 3.9c-.04 0 0 .8 0 .8c0 0-7.02-.05-7 0c0 .9.6 3.1 3.1 3.1c1.1 0 2.3-.6 2.8-1.5c0 0 .8.7.8.7zm-.8-3.3c0-1.5-1.3-2.7-2.9-2.7c-2.4 0-3 2.2-3 2.7c0 0 5.9 0 5.9 0zm10.7 3.4c0 0-.03-.02 0 0c-.7 1.1-2.1 1.7-3.4 1.7c-2.5 0-4.3-1.9-4.3-4.4c0-2.6 1.8-4.4 4.3-4.4c1.3 0 2.7.5 3.4 1.7c-.03-.02 0 0 0 0l0-6.8l1.1 0l0 13.6l-1.1 0l0-1.4zm-3.4-6.1c-2 0-3.3 1.5-3.3 3.4c0 1.9 1.3 3.4 3.3 3.4c2 0 3.5-1.5 3.5-3.4c0-1.9-1.5-3.4-3.5-3.4zm12-.8l1.1 0l0 8.3l-1.1 0l0-8.3zm.5-4.1c.5 0 .8.4.8.8c0 .5-.3.8-.8.8c-.4 0-.8-.3-.8-.8c0-.4.4-.8.8-.8zm3.5 6.5c0-.6-.1-1.9-.1-2.4c0 0 1.1 0 1.1 0c0 .6 0 1.3 0 1.5c0 0 .1 0 .1 0c.4-.9 1.5-1.7 2.8-1.7c2.6 0 3.2 1.8 3.2 3.6c.01-.01 0 4.9 0 4.9l-1.1 0c0 0 .03-4.86 0-4.9c0-1.3-.4-2.6-2.1-2.6c-1.6 0-2.8 1.1-2.8 3.4c-.04-.02 0 4.1 0 4.1l-1.1 0c0 0-.02-5.94 0-5.9zm18.7-1.4l-2.3 0c0 0-.04 5.41 0 5.4c0 .8.4 1.2 1.1 1.2c.4 0 .9-.1 1.2-.3c0 0 .1 1 .1 1c-.4.1-1 .3-1.4.3c-1.5 0-2.1-1-2.1-2.2c-.02.01 0-5.4 0-5.4l-1.8 0l0-1l1.8 0l0-2.4l1.1 0l0 2.4l2.3 0l0 1zm2-6.3l1 0l0 6.8c0 0 .08-.02.1 0c.4-.9 1.5-1.7 2.8-1.7c2.6 0 3.2 1.8 3.2 3.6c0-.01 0 4.9 0 4.9l-1.1 0c0 0 .02-4.86 0-4.9c0-1.3-.4-2.6-2.1-2.6c-1.6 0-2.9 1.1-2.9 3.4c.05-.02 0 4.1 0 4.1l-1 0l0-13.6zm9.9 7.7c0-.6-.1-1.9-.1-2.4c0 0 1.1 0 1.1 0c0 .6 0 1.3 0 1.5c.6-1 1.4-1.7 2.7-1.7c.2 0 .4 0 .6.1c0 0-.1 1.1-.1 1.1c-.2-.1-.3-.1-.4-.1c-1.9 0-2.7 1.3-2.7 2.9c-.04 0 0 4.5 0 4.5l-1.1 0c0 0-.02-5.94 0-5.9zm13.1 4.4c-.9 1.2-2.2 1.8-3.6 1.8c-2.6 0-4.2-1.9-4.2-4.4c0-2.5 1.7-4.4 4.1-4.4c2.6 0 3.9 2 3.9 3.9c.02 0 0 .8 0 .8c0 0-6.97-.05-7 0c0 .9.7 3.1 3.2 3.1c1.1 0 2.2-.6 2.8-1.5c0 0 .8.7.8.7zm-.9-3.3c0-1.5-1.2-2.7-2.8-2.7c-2.4 0-3.1 2.2-3.1 2.7c0 0 5.9 0 5.9 0zm10.8 3.3c-.8 1.2-2.1 1.8-3.6 1.8c-2.5 0-4.2-1.9-4.2-4.4c0-2.5 1.8-4.4 4.2-4.4c2.5 0 3.9 2 3.9 3.9c-.01 0 0 .8 0 .8c0 0-7-.05-7 0c0 .9.6 3.1 3.2 3.1c1.1 0 2.2-.6 2.7-1.5c0 0 .8.7.8.7zm-.8-3.3c0-1.5-1.3-2.7-2.9-2.7c-2.3 0-3 2.2-3 2.7c0 0 5.9 0 5.9 0zm15.1 3.6c-.8 1-1.8 1.5-3 1.5c-2.6 0-4.4-1.9-4.4-4.4c0-2.6 1.8-4.4 4.4-4.4c1.2 0 2.3.5 3.1 1.4c0 0-.9.7-.9.7c-.6-.7-1.4-1.1-2.2-1.1c-2 0-3.3 1.5-3.3 3.4c0 1.9 1.3 3.4 3.3 3.4c.9 0 1.7-.5 2.2-1.2c0 0 .8.7.8.7zm5.6-7.3c2.5 0 4.3 1.8 4.3 4.4c0 2.5-1.8 4.4-4.3 4.4c-2.6 0-4.4-1.9-4.4-4.4c0-2.6 1.8-4.4 4.4-4.4zm0 7.8c2 0 3.3-1.5 3.3-3.4c0-1.9-1.3-3.4-3.3-3.4c-2.1 0-3.3 1.5-3.3 3.4c0 1.9 1.2 3.4 3.3 3.4zm6.7-5.2c0-.6-.1-1.9-.1-2.4c0 0 1.1 0 1.1 0c0 .6 0 1.3 0 1.5c0 0 .1 0 .1 0c.4-.9 1.5-1.7 2.8-1.7c2.6 0 3.2 1.8 3.2 3.6c.01-.01 0 4.9 0 4.9l-1.1 0c0 0 .03-4.86 0-4.9c0-1.3-.4-2.6-2.1-2.6c-1.6 0-2.8 1.1-2.8 3.4c-.04-.02 0 4.1 0 4.1l-1.1 0c0 0-.02-5.94 0-5.9zm13.9-1.4l-2.4 0c0 0 .04 5.41 0 5.4c0 .8.5 1.2 1.2 1.2c.4 0 .8-.1 1.2-.3c0 0 .1 1 .1 1c-.4.1-1 .3-1.4.3c-1.5 0-2.1-1-2.1-2.2c-.04.01 0-5.4 0-5.4l-1.8 0l0-1l1.8 0l0-2.4l1 0l0 2.4l2.4 0l0 1zm2-1l1.1 0l0 8.3l-1.1 0l0-8.3zm.6-4.1c.4 0 .8.4.8.8c0 .5-.4.8-.8.8c-.5 0-.8-.3-.8-.8c0-.4.3-.8.8-.8zm3.4 6.5c0-.6-.1-1.9-.1-2.4c0 0 1.1 0 1.1 0c0 .6 0 1.3.1 1.5c0 0 0 0 0 0c.5-.9 1.5-1.7 2.9-1.7c2.6 0 3.2 1.8 3.2 3.6c-.05-.01 0 4.9 0 4.9l-1.1 0c0 0-.03-4.86 0-4.9c0-1.3-.4-2.6-2.1-2.6c-1.6 0-2.9 1.1-2.9 3.4c0-.02 0 4.1 0 4.1l-1.1 0c0 0 .02-5.94 0-5.9zm17.3 4.4c-.9 1.2-2.1 1.8-3.6 1.8c-2.6 0-4.2-1.9-4.2-4.4c0-2.5 1.7-4.4 4.1-4.4c2.6 0 3.9 2 3.9 3.9c.03 0 0 .8 0 .8c0 0-6.96-.05-7 0c0 .9.7 3.1 3.2 3.1c1.1 0 2.2-.6 2.8-1.5c0 0 .8.7.8.7zm-.9-3.3c0-1.5-1.2-2.7-2.8-2.7c-2.4 0-3.1 2.2-3.1 2.7c0 0 5.9 0 5.9 0zm3.5-1.1c0-.6-.1-1.9-.1-2.4c0 0 1.1 0 1.1 0c0 .6 0 1.3 0 1.5c0 0 .1 0 .1 0c.4-.9 1.5-1.7 2.8-1.7c2.6 0 3.2 1.8 3.2 3.6c.01-.01 0 4.9 0 4.9l-1.1 0c0 0 .03-4.86 0-4.9c0-1.3-.3-2.6-2.1-2.6c-1.6 0-2.8 1.1-2.8 3.4c-.03-.02 0 4.1 0 4.1l-1.1 0c0 0-.01-5.94 0-5.9zm13.9-1.4l-2.4 0c0 0 .05 5.41 0 5.4c0 .8.5 1.2 1.2 1.2c.4 0 .8-.1 1.2-.3c0 0 .1 1 .1 1c-.4.1-1 .3-1.4.3c-1.5 0-2.1-1-2.1-2.2c-.03.01 0-5.4 0-5.4l-1.8 0l0-1l1.8 0l0-2.4l1 0l0 2.4l2.4 0l0 1zm2.3 5.2c.5.9 1.5 1.4 2.4 1.4c1 0 1.9-.6 1.9-1.5c0-2.3-4.9-.7-4.9-3.9c0-1.6 1.5-2.4 2.9-2.4c1.3 0 2.4.5 2.9 1.6c0 0-1 .5-1 .5c-.4-.7-1-1.1-1.9-1.1c-.8 0-1.8.4-1.8 1.3c0 2.3 4.9.5 4.9 3.9c0 1.7-1.4 2.6-3 2.6c-1.4 0-2.7-.6-3.3-1.7c0 0 .9-.7.9-.7zm18.8-1.4c0 1.7.1 2.6.2 3.5c0 0-1 0-1 0c-.1-.4-.1-.8-.1-1.3c0 0-.1 0-.1 0c-.6 1.1-1.5 1.6-2.9 1.6c-1.4 0-2.9-.7-2.9-2.5c0-2.5 2.9-2.8 4.6-2.8c-.01 0 1.2 0 1.2 0c0 0 .05-.5 0-.5c0-1.4-1-2-2.3-2c-1 0-1.8.3-2.5.9c0 0-.7-.7-.7-.7c.8-.8 2.1-1.2 3.2-1.2c2 0 3.3.9 3.3 3c0 0 0 2 0 2zm-2.1-.6c-1.8 0-3.6.4-3.6 1.8c0 1.1.9 1.6 1.8 1.6c2.4 0 2.9-1.5 2.9-2.9c.05.02 0-.5 0-.5c0 0-1.14-.04-1.1 0zm4.9-1.8c0-.6-.1-1.9-.1-2.4c0 0 1.1 0 1.1 0c0 .6 0 1.3.1 1.5c0 0 0 0 0 0c.5-.9 1.5-1.7 2.9-1.7c2.6 0 3.2 1.8 3.2 3.6c-.05-.01 0 4.9 0 4.9l-1.1 0c0 0-.03-4.86 0-4.9c0-1.3-.4-2.6-2.1-2.6c-1.6 0-2.9 1.1-2.9 3.4c0-.02 0 4.1 0 4.1l-1.1 0c0 0 .02-5.94 0-5.9zm17.2 4.5c0 0-.03-.02 0 0c-.7 1.1-2.1 1.7-3.4 1.7c-2.5 0-4.3-1.9-4.3-4.4c0-2.6 1.8-4.4 4.3-4.4c1.3 0 2.7.5 3.4 1.7c-.03-.02 0 0 0 0l0-6.8l1.1 0l0 13.6l-1.1 0l0-1.4zm-3.4-6.1c-2 0-3.3 1.5-3.3 3.4c0 1.9 1.3 3.4 3.3 3.4c2 0 3.5-1.5 3.5-3.4c0-1.9-1.5-3.4-3.5-3.4zm12-.8l1.1 0l0 8.3l-1.1 0l0-8.3zm.5-4.1c.5 0 .8.4.8.8c0 .5-.3.8-.8.8c-.4 0-.8-.3-.8-.8c0-.4.4-.8.8-.8zm3.6 10.3c.4.9 1.4 1.4 2.4 1.4c.9 0 1.9-.6 1.9-1.5c0-2.3-4.9-.7-4.9-3.9c0-1.6 1.5-2.4 2.8-2.4c1.4 0 2.4.5 3 1.6c0 0-1 .5-1 .5c-.4-.7-1-1.1-2-1.1c-.7 0-1.7.4-1.7 1.3c0 2.3 4.9.5 4.9 3.9c0 1.7-1.4 2.6-3 2.6c-1.4 0-2.7-.6-3.4-1.7c0 0 1-.7 1-.7z" stroke="none" fill="#000"/></g><g id="Polygon46849"><path d="m5.3 103.8c2.6 0 4.4 1.8 4.4 4.4c0 2.5-1.8 4.4-4.4 4.4c-2.5 0-4.3-1.9-4.3-4.4c0-2.6 1.8-4.4 4.3-4.4zm0 7.8c2.1 0 3.3-1.5 3.3-3.4c0-1.9-1.2-3.4-3.3-3.4c-2 0-3.2 1.5-3.2 3.4c0 1.9 1.2 3.4 3.2 3.4zm7.2-6.6l-1.8 0l0-1l1.8 0c0 0-.02-2.69 0-2.7c0-2.1 1.4-2.8 2.5-2.8c.5 0 .9.1 1.2.2c0 0-.2 1-.2 1c-.3-.2-.6-.2-1-.2c-1 0-1.4.7-1.4 2.2c-.04 0 0 2.3 0 2.3l1.9 0l0 1l-1.9 0l0 7.3l-1.1 0l0-7.3zm13.6-5.4l1.2 0l5.4 12.7l-1.4 0l-1.3-3.3l-6.8 0l-1.4 3.3l-1.3 0l5.6-12.7zm.5 1.3l-2.9 7l5.8 0l-2.9-7zm8 4.1l-1.7 0l0-1l1.7 0c0 0 .05-2.69 0-2.7c0-2.1 1.5-2.8 2.5-2.8c.6 0 1 .1 1.3.2c0 0-.2 1-.2 1c-.3-.2-.6-.2-1-.2c-1 0-1.5.7-1.5 2.2c.03 0 0 2.3 0 2.3l2 0l0 1l-2 0l0 7.3l-1.1 0l0-7.3zm4.9 1.4c0-.6-.1-1.9-.1-2.4c0 0 1.1 0 1.1 0c0 .6 0 1.3 0 1.5c.6-1 1.4-1.7 2.7-1.7c.2 0 .4 0 .6.1c0 0-.1 1.1-.1 1.1c-.2-.1-.3-.1-.4-.1c-1.9 0-2.7 1.3-2.7 2.9c-.04 0 0 4.5 0 4.5l-1.1 0c0 0-.02-5.94 0-5.9zm6.2-2.4l1 0l0 8.3l-1 0l0-8.3zm.5-4.1c.4 0 .8.4.8.8c0 .5-.4.8-.8.8c-.5 0-.8-.3-.8-.8c0-.4.3-.8.8-.8zm10.4 11.2c-.9 1-1.9 1.5-3.1 1.5c-2.6 0-4.4-1.9-4.4-4.4c0-2.6 1.8-4.4 4.4-4.4c1.2 0 2.3.5 3.1 1.4c0 0-.9.7-.9.7c-.6-.7-1.3-1.1-2.2-1.1c-2 0-3.3 1.5-3.3 3.4c0 1.9 1.3 3.4 3.3 3.4c.9 0 1.7-.5 2.2-1.2c0 0 .9.7.9.7zm8.3-2.3c0 1.7.1 2.6.2 3.5c0 0-1 0-1 0c-.1-.4-.1-.8-.1-1.3c0 0-.1 0-.1 0c-.6 1.1-1.5 1.6-2.9 1.6c-1.4 0-2.9-.7-2.9-2.5c0-2.5 3-2.8 4.6-2.8c0 0 1.3 0 1.3 0c0 0-.04-.5 0-.5c0-1.4-1-2-2.4-2c-.9 0-1.8.3-2.5.9c0 0-.6-.7-.6-.7c.7-.8 2-1.2 3.1-1.2c2 0 3.3.9 3.3 3c0 0 0 2 0 2zm-2.1-.6c-1.8 0-3.6.4-3.6 1.8c0 1.1 1 1.6 1.9 1.6c2.3 0 2.9-1.5 2.9-2.9c-.04.02 0-.5 0-.5c0 0-1.22-.04-1.2 0zm16.2.6c0 1.7 0 2.6.1 3.5c0 0-1 0-1 0c-.1-.4-.1-.8-.1-1.3c0 0 0 0 0 0c-.6 1.1-1.5 1.6-2.9 1.6c-1.5 0-3-.7-3-2.5c0-2.5 3-2.8 4.6-2.8c.03 0 1.3 0 1.3 0c0 0-.01-.5 0-.5c0-1.4-1-2-2.4-2c-.9 0-1.8.3-2.5.9c0 0-.6-.7-.6-.7c.8-.8 2.1-1.2 3.1-1.2c2.1 0 3.4.9 3.4 3c0 0 0 2 0 2zm-2.2-.6c-1.8 0-3.6.4-3.6 1.8c0 1.1 1 1.6 1.9 1.6c2.3 0 2.9-1.5 2.9-2.9c-.01.02 0-.5 0-.5c0 0-1.2-.04-1.2 0zm5-1.8c0-.6-.1-1.9-.1-2.4c0 0 1.1 0 1.1 0c0 .6 0 1.3 0 1.5c0 0 .1 0 .1 0c.4-.9 1.5-1.7 2.8-1.7c2.6 0 3.2 1.8 3.2 3.6c-.01-.01 0 4.9 0 4.9l-1.1 0c0 0 .01-4.86 0-4.9c0-1.3-.4-2.6-2.1-2.6c-1.6 0-2.9 1.1-2.9 3.4c.04-.02 0 4.1 0 4.1l-1 0c0 0-.04-5.94 0-5.9zm17.1 4.5c0 0 .01-.02 0 0c-.7 1.1-2.1 1.7-3.3 1.7c-2.6 0-4.4-1.9-4.4-4.4c0-2.6 1.8-4.4 4.4-4.4c1.2 0 2.6.5 3.3 1.7c.01-.02 0 0 0 0l0-6.8l1.1 0l0 13.6l-1.1 0l0-1.4zm-3.3-6.1c-2.1 0-3.3 1.5-3.3 3.4c0 1.9 1.2 3.4 3.3 3.4c1.9 0 3.5-1.5 3.5-3.4c0-1.9-1.6-3.4-3.5-3.4zm15.8.2l-2.4 0c0 0 .04 5.41 0 5.4c0 .8.5 1.2 1.2 1.2c.4 0 .8-.1 1.2-.3c0 0 .1 1 .1 1c-.4.1-1 .3-1.4.3c-1.5 0-2.1-1-2.1-2.2c-.04.01 0-5.4 0-5.4l-1.8 0l0-1l1.8 0l0-2.4l1 0l0 2.4l2.4 0l0 1zm1.9-6.3l1.1 0l0 6.8c0 0 .07-.02.1 0c.4-.9 1.5-1.7 2.8-1.7c2.6 0 3.2 1.8 3.2 3.6c-.02-.01 0 4.9 0 4.9l-1.1 0c0 0 0-4.86 0-4.9c0-1.3-.4-2.6-2.1-2.6c-1.6 0-2.9 1.1-2.9 3.4c.03-.02 0 4.1 0 4.1l-1.1 0l0-13.6zm17.3 12.1c-.8 1.2-2.1 1.8-3.6 1.8c-2.5 0-4.2-1.9-4.2-4.4c0-2.5 1.7-4.4 4.1-4.4c2.6 0 4 2 4 3.9c-.05 0 0 .8 0 .8c0 0-7.03-.05-7 0c0 .9.6 3.1 3.1 3.1c1.1 0 2.3-.6 2.8-1.5c0 0 .8.7.8.7zm-.8-3.3c0-1.5-1.3-2.7-2.9-2.7c-2.4 0-3 2.2-3 2.7c0 0 5.9 0 5.9 0zm12.4-7.9l1.2 0l5.3 12.7l-1.3 0l-1.4-3.3l-6.7 0l-1.5 3.3l-1.2 0l5.6-12.7zm.5 1.3l-3 7l5.9 0l-2.9-7zm7.7 5.5c0-.6-.1-1.9-.1-2.4c0 0 1.1 0 1.1 0c0 .6 0 1.3.1 1.5c0 0 0 0 0 0c.5-.9 1.5-1.7 2.9-1.7c1.1 0 2.1.5 2.5 1.8c.5-1.2 1.7-1.8 2.8-1.8c2.6 0 3.2 1.8 3.2 3.6c-.02-.01 0 4.9 0 4.9l-1.1 0c0 0 0-4.86 0-4.9c0-1.3-.4-2.6-2.1-2.6c-2 0-2.5 1.7-2.5 2.9c-.01-.04 0 4.6 0 4.6l-1.1 0c0 0 .01-4.96 0-5c0-1.5-.5-2.5-1.7-2.5c-1.6 0-2.9 1.1-2.9 3.4c0-.02 0 4.1 0 4.1l-1.1 0c0 0 .02-5.94 0-5.9zm22.6 4.4c-.8 1.2-2.1 1.8-3.6 1.8c-2.5 0-4.2-1.9-4.2-4.4c0-2.5 1.8-4.4 4.2-4.4c2.6 0 3.9 2 3.9 3.9c0 0 0 .8 0 .8c0 0-6.98-.05-7 0c0 .9.6 3.1 3.2 3.1c1.1 0 2.2-.6 2.8-1.5c0 0 .7.7.7.7zm-.8-3.3c0-1.5-1.3-2.7-2.9-2.7c-2.3 0-3 2.2-3 2.7c0 0 5.9 0 5.9 0zm3.5-1.1c0-.6-.1-1.9-.1-2.4c0 0 1 0 1 0c.1.6.1 1.3.1 1.5c.6-1 1.4-1.7 2.7-1.7c.2 0 .4 0 .6.1c0 0-.1 1.1-.1 1.1c-.2-.1-.3-.1-.4-.1c-1.9 0-2.8 1.3-2.8 2.9c.04 0 0 4.5 0 4.5l-1 0c0 0-.04-5.94 0-5.9zm6.1-2.4l1.1 0l0 8.3l-1.1 0l0-8.3zm.6-4.1c.4 0 .8.4.8.8c0 .5-.4.8-.8.8c-.5 0-.8-.3-.8-.8c0-.4.3-.8.8-.8zm10.3 11.2c-.8 1-1.8 1.5-3 1.5c-2.6 0-4.4-1.9-4.4-4.4c0-2.6 1.8-4.4 4.4-4.4c1.2 0 2.3.5 3.1 1.4c0 0-.9.7-.9.7c-.6-.7-1.4-1.1-2.2-1.1c-2.1 0-3.3 1.5-3.3 3.4c0 1.9 1.2 3.4 3.3 3.4c.9 0 1.7-.5 2.2-1.2c0 0 .8.7.8.7zm8.4-2.3c0 1.7.1 2.6.2 3.5c0 0-1 0-1 0c-.1-.4-.1-.8-.1-1.3c0 0-.1 0-.1 0c-.6 1.1-1.5 1.6-2.9 1.6c-1.4 0-2.9-.7-2.9-2.5c0-2.5 2.9-2.8 4.6-2.8c-.02 0 1.2 0 1.2 0c0 0 .04-.5 0-.5c0-1.4-1-2-2.3-2c-1 0-1.8.3-2.5.9c0 0-.7-.7-.7-.7c.8-.8 2.1-1.2 3.2-1.2c2 0 3.3.9 3.3 3c0 0 0 2 0 2zm-2.1-.6c-1.8 0-3.6.4-3.6 1.8c0 1.1.9 1.6 1.8 1.6c2.3 0 2.9-1.5 2.9-2.9c.04.02 0-.5 0-.5c0 0-1.14-.04-1.1 0zm5 2c.5.9 1.5 1.4 2.4 1.4c1 0 1.9-.6 1.9-1.5c0-2.3-4.9-.7-4.9-3.9c0-1.6 1.5-2.4 2.8-2.4c1.4 0 2.4.5 3 1.6c0 0-1 .5-1 .5c-.4-.7-1-1.1-2-1.1c-.7 0-1.7.4-1.7 1.3c0 2.3 4.9.5 4.9 3.9c0 1.7-1.4 2.6-3 2.6c-1.4 0-2.7-.6-3.3-1.7c0 0 .9-.7.9-.7zm8.4.5c.5 0 .8.4.8.9c0 .5-.3.8-.8.8c-.5 0-.9-.3-.9-.8c0-.5.4-.9.9-.9zm12.7-11.1l1.2 0l5.3 12.7l-1.3 0l-1.4-3.3l-6.7 0l-1.5 3.3l-1.2 0l5.6-12.7zm.5 1.3l-3 7l5.9 0l-2.9-7zm12.6-1.3c0 0 3.63 0 3.6 0c2 0 4.1.5 4.1 3.4c0 1.3-.7 2.3-2.3 2.6c0 0 0 0 0 0c1.7.2 2.9 1.4 2.9 3.2c0 2.9-2.5 3.5-4.3 3.5c.03.04-4 0-4 0l0-12.7zm1.1 5.5c0 0 2.51 0 2.5 0c2.5 0 2.9-1.3 2.9-2.1c0-1.8-1.2-2.3-2.7-2.3c-.03-.02-2.7 0-2.7 0l0 4.4zm0 6.2c0 0 2.76-.04 2.8 0c2.8 0 3.2-1.6 3.2-2.5c0-1.9-1.5-2.6-3.1-2.6c.04-.02-2.9 0-2.9 0l0 5.1zm17.1-.5c-.9 1.2-2.1 1.8-3.6 1.8c-2.6 0-4.2-1.9-4.2-4.4c0-2.5 1.7-4.4 4.1-4.4c2.6 0 3.9 2 3.9 3.9c.04 0 0 .8 0 .8c0 0-6.95-.05-6.9 0c0 .9.6 3.1 3.1 3.1c1.1 0 2.3-.6 2.8-1.5c0 0 .8.7.8.7zm-.8-3.3c0-1.5-1.3-2.7-2.9-2.7c-2.4 0-3 2.2-3 2.7c0 0 5.9 0 5.9 0zm3.5-8.8l1.1 0l0 13.6l-1.1 0l0-13.6zm12.3 13.1c0 4.1-2.8 4.9-4.5 4.9c-1.6 0-3.2-.7-4.1-1.8c0 0 .9-.8.9-.8c.7 1.1 1.9 1.6 3.2 1.6c3.3 0 3.4-2.9 3.4-3.8c-.01-.03 0-1.2 0-1.2c0 0-.05.02 0 0c-.7 1-1.8 1.6-3.2 1.6c-2.4 0-4.4-1.9-4.4-4.2c0-2.4 2-4.3 4.4-4.3c1.4 0 2.5.6 3.2 1.6c-.05.03 0 0 0 0l0-1.4l1.1 0c0 0-.03 7.8 0 7.8zm-4.4-7c-1.8 0-3.3 1.5-3.3 3.3c0 1.8 1.5 3.3 3.3 3.3c1.8 0 3.3-1.5 3.3-3.3c0-1.8-1.5-3.3-3.3-3.3zm7.2-.8l1 0l0 8.3l-1 0l0-8.3zm.5-4.1c.4 0 .8.4.8.8c0 .5-.4.8-.8.8c-.5 0-.8-.3-.8-.8c0-.4.3-.8.8-.8zm10.5 10.1c0 .6 0 1.9 0 2.3c0 0-1 0-1 0c-.1-.6-.1-1.3-.1-1.4c0 0-.1 0-.1 0c-.4.9-1.5 1.7-2.8 1.7c-2.6 0-3.2-1.8-3.2-3.6c.03-.03 0-5 0-5l1.1 0c0 0 .01 4.92 0 4.9c0 1.4.4 2.7 2.1 2.7c1.6 0 2.9-1.1 2.9-3.4c-.03-.02 0-4.2 0-4.2l1.1 0c0 0-.05 6 0 6zm2.8-3.6c0-.6-.1-1.9-.1-2.4c0 0 1.1 0 1.1 0c0 .6.1 1.3.1 1.5c0 0 0 0 0 0c.5-.9 1.5-1.7 2.9-1.7c1.1 0 2.1.5 2.5 1.8c.5-1.2 1.7-1.8 2.8-1.8c2.6 0 3.2 1.8 3.2 3.6c-.02-.01 0 4.9 0 4.9l-1.1 0c0 0 0-4.86 0-4.9c0-1.3-.4-2.6-2.1-2.6c-2 0-2.5 1.7-2.5 2.9c-.01-.04 0 4.6 0 4.6l-1.1 0c0 0 .01-4.96 0-5c0-1.5-.5-2.5-1.7-2.5c-1.6 0-2.9 1.1-2.9 3.4c.01-.02 0 4.1 0 4.1l-1.1 0c0 0 .03-5.94 0-5.9zm20 0c0-.6 0-1.9 0-2.4c0 0 1 0 1 0c0 .6.1 1.3.1 1.5c0 0 .1 0 .1 0c.4-.9 1.5-1.7 2.8-1.7c2.6 0 3.2 1.8 3.2 3.6c-.03-.01 0 4.9 0 4.9l-1.1 0c0 0-.01-4.86 0-4.9c0-1.3-.4-2.6-2.1-2.6c-1.6 0-2.9 1.1-2.9 3.4c.02-.02 0 4.1 0 4.1l-1.1 0c0 0 .04-5.94 0-5.9zm16.3 2.4c0 1.7 0 2.6.2 3.5c0 0-1 0-1 0c-.1-.4-.2-.8-.2-1.3c0 0 0 0 0 0c-.6 1.1-1.5 1.6-2.9 1.6c-1.4 0-2.9-.7-2.9-2.5c0-2.5 2.9-2.8 4.6-2.8c-.03 0 1.2 0 1.2 0c0 0 .03-.5 0-.5c0-1.4-1-2-2.3-2c-1 0-1.8.3-2.5.9c0 0-.7-.7-.7-.7c.8-.8 2.1-1.2 3.2-1.2c2 0 3.3.9 3.3 3c0 0 0 2 0 2zm-2.2-.6c-1.8 0-3.6.4-3.6 1.8c0 1.1 1 1.6 1.9 1.6c2.3 0 2.9-1.5 2.9-2.9c.03.02 0-.5 0-.5c0 0-1.16-.04-1.2 0zm9.1-3.2l-2.4 0c0 0-.02 5.41 0 5.4c0 .8.4 1.2 1.1 1.2c.4 0 .9-.1 1.3-.3c0 0 0 1 0 1c-.3.1-.9.3-1.4.3c-1.5 0-2.1-1-2.1-2.2c0 .01 0-5.4 0-5.4l-1.8 0l0-1l1.8 0l0-2.4l1.1 0l0 2.4l2.4 0l0 1zm2-1l1.1 0l0 8.3l-1.1 0l0-8.3zm.5-4.1c.5 0 .8.4.8.8c0 .5-.3.8-.8.8c-.4 0-.8-.3-.8-.8c0-.4.4-.8.8-.8zm2.4 4.1l1.2 0l2.8 7.2l2.7-7.2l1.1 0l-3.3 8.3l-1.1 0l-3.4-8.3zm16.6 6.8c-.8 1.2-2.1 1.8-3.6 1.8c-2.5 0-4.2-1.9-4.2-4.4c0-2.5 1.7-4.4 4.2-4.4c2.5 0 3.9 2 3.9 3.9c-.04 0 0 .8 0 .8c0 0-7.02-.05-7 0c0 .9.6 3.1 3.1 3.1c1.1 0 2.3-.6 2.8-1.5c0 0 .8.7.8.7zm-.8-3.3c0-1.5-1.3-2.7-2.9-2.7c-2.4 0-3 2.2-3 2.7c0 0 5.9 0 5.9 0zm3.6 3.2l1.3 0l-1.4 4.1l-1.1 0l1.2-4.1zm8.7-12l1.1 0l0 6.8c0 0 .02-.02 0 0c.5-.9 1.5-1.7 2.9-1.7c2.6 0 3.1 1.8 3.1 3.6c.03-.01 0 4.9 0 4.9l-1 0c0 0-.05-4.86 0-4.9c0-1.3-.4-2.6-2.1-2.6c-1.6 0-2.9 1.1-2.9 3.4c-.02-.02 0 4.1 0 4.1l-1.1 0l0-13.6zm17.3 12.1c-.9 1.2-2.2 1.8-3.6 1.8c-2.6 0-4.3-1.9-4.3-4.4c0-2.5 1.8-4.4 4.2-4.4c2.6 0 3.9 2 3.9 3.9c.01 0 0 .8 0 .8c0 0-6.98-.05-7 0c0 .9.7 3.1 3.2 3.1c1.1 0 2.2-.6 2.8-1.5c0 0 .8.7.8.7zm-.9-3.3c0-1.5-1.2-2.7-2.9-2.7c-2.3 0-3 2.2-3 2.7c0 0 5.9 0 5.9 0z" stroke="none" fill="#000"/></g><g id="Polygon46848"><path d="m5.7 75.6l1.2 0l5.3 12.7l-1.3 0l-1.4-3.3l-6.7 0l-1.5 3.3l-1.2 0l5.6-12.7zm.5 1.3l-3 7l5.9 0l-2.9-7zm7.7 5.5c0-.6-.1-1.9-.1-2.4c0 0 1.1 0 1.1 0c0 .6 0 1.3.1 1.5c.5-1 1.4-1.7 2.6-1.7c.2 0 .4 0 .7.1c0 0-.2 1.1-.2 1.1c-.1-.1-.3-.1-.4-.1c-1.9 0-2.7 1.3-2.7 2.9c-.01 0 0 4.5 0 4.5l-1.1 0c0 0 .01-5.94 0-5.9zm10.8-1.4l-2.4 0c0 0 0 5.41 0 5.4c0 .8.4 1.2 1.1 1.2c.5 0 .9-.1 1.3-.3c0 0 .1 1 .1 1c-.4.1-1 .3-1.4.3c-1.6 0-2.2-1-2.2-2.2c.02.01 0-5.4 0-5.4l-1.8 0l0-1l1.8 0l0-2.4l1.1 0l0 2.4l2.4 0l0 1zm13 3.8c0 1.7.1 2.6.2 3.5c0 0-1 0-1 0c-.1-.4-.1-.8-.1-1.3c0 0 0 0 0 0c-.7 1.1-1.6 1.6-3 1.6c-1.4 0-2.9-.7-2.9-2.5c0-2.5 3-2.8 4.6-2.8c.01 0 1.3 0 1.3 0c0 0-.03-.5 0-.5c0-1.4-1-2-2.4-2c-.9 0-1.8.3-2.5.9c0 0-.6-.7-.6-.7c.8-.8 2-1.2 3.1-1.2c2 0 3.3.9 3.3 3c0 0 0 2 0 2zm-2.1-.6c-1.8 0-3.6.4-3.6 1.8c0 1.1 1 1.6 1.9 1.6c2.3 0 2.9-1.5 2.9-2.9c-.03.02 0-.5 0-.5c0 0-1.22-.04-1.2 0zm4.9-1.8c0-.6 0-1.9 0-2.4c0 0 1 0 1 0c.1.6.1 1.3.1 1.5c0 0 .1 0 .1 0c.4-.9 1.5-1.7 2.8-1.7c2.6 0 3.2 1.8 3.2 3.6c-.03-.01 0 4.9 0 4.9l-1.1 0c0 0-.01-4.86 0-4.9c0-1.3-.4-2.6-2.1-2.6c-1.6 0-2.9 1.1-2.9 3.4c.02-.02 0 4.1 0 4.1l-1.1 0c0 0 .04-5.94 0-5.9zm17.2 4.5c0 0-.01-.02 0 0c-.7 1.1-2.1 1.7-3.3 1.7c-2.6 0-4.4-1.9-4.4-4.4c0-2.6 1.8-4.4 4.4-4.4c1.2 0 2.6.5 3.3 1.7c-.01-.02 0 0 0 0l0-6.8l1.1 0l0 13.6l-1.1 0l0-1.4zm-3.3-6.1c-2.1 0-3.3 1.5-3.3 3.4c0 1.9 1.2 3.4 3.3 3.4c1.9 0 3.4-1.5 3.4-3.4c0-1.9-1.5-3.4-3.4-3.4zm11.7-6.1l1.1 0l0 6.8c0 0 .05-.02 0 0c.5-.9 1.5-1.7 2.9-1.7c2.6 0 3.2 1.8 3.2 3.6c-.04-.01 0 4.9 0 4.9l-1.1 0c0 0-.02-4.86 0-4.9c0-1.3-.4-2.6-2.1-2.6c-1.6 0-2.9 1.1-2.9 3.4c.01-.02 0 4.1 0 4.1l-1.1 0l0-13.6zm17.3 12.1c-.9 1.2-2.1 1.8-3.6 1.8c-2.6 0-4.2-1.9-4.2-4.4c0-2.5 1.7-4.4 4.1-4.4c2.6 0 3.9 2 3.9 3.9c.04 0 0 .8 0 .8c0 0-6.95-.05-6.9 0c0 .9.6 3.1 3.1 3.1c1.1 0 2.3-.6 2.8-1.5c0 0 .8.7.8.7zm-.8-3.3c0-1.5-1.3-2.7-2.9-2.7c-2.4 0-3 2.2-3 2.7c0 0 5.9 0 5.9 0zm9.7 1.3c0 1.7 0 2.6.1 3.5c0 0-1 0-1 0c0-.4-.1-.8-.1-1.3c0 0 0 0 0 0c-.6 1.1-1.5 1.6-2.9 1.6c-1.4 0-3-.7-3-2.5c0-2.5 3-2.8 4.6-2.8c.05 0 1.3 0 1.3 0c0 0 .01-.5 0-.5c0-1.4-1-2-2.3-2c-1 0-1.8.3-2.6.9c0 0-.6-.7-.6-.7c.8-.8 2.1-1.2 3.2-1.2c2 0 3.3.9 3.3 3c0 0 0 2 0 2zm-2.2-.6c-1.8 0-3.6.4-3.6 1.8c0 1.1 1 1.6 1.9 1.6c2.3 0 2.9-1.5 2.9-2.9c.01.02 0-.5 0-.5c0 0-1.18-.04-1.2 0zm12.2 2.7c0 0-.02-.02 0 0c-.7 1.1-2.1 1.7-3.4 1.7c-2.5 0-4.3-1.9-4.3-4.4c0-2.6 1.8-4.4 4.3-4.4c1.3 0 2.7.5 3.4 1.7c-.02-.02 0 0 0 0l0-6.8l1.1 0l0 13.6l-1.1 0l0-1.4zm-3.4-6.1c-2 0-3.2 1.5-3.2 3.4c0 1.9 1.2 3.4 3.2 3.4c2 0 3.5-1.5 3.5-3.4c0-1.9-1.5-3.4-3.5-3.4zm15.7-1c2.6 0 4.4 1.8 4.4 4.4c0 2.5-1.8 4.4-4.4 4.4c-2.5 0-4.3-1.9-4.3-4.4c0-2.6 1.8-4.4 4.3-4.4zm0 7.8c2.1 0 3.3-1.5 3.3-3.4c0-1.9-1.2-3.4-3.3-3.4c-2 0-3.3 1.5-3.3 3.4c0 1.9 1.3 3.4 3.3 3.4zm7.2-6.6l-1.8 0l0-1l1.8 0c0 0-.04-2.69 0-2.7c0-2.1 1.4-2.8 2.4-2.8c.6 0 1 .1 1.3.2c0 0-.2 1-.2 1c-.3-.2-.6-.2-1-.2c-1 0-1.5.7-1.5 2.2c.04 0 0 2.3 0 2.3l2 0l0 1l-2 0l0 7.3l-1 0l0-7.3zm13.4 0l-2.4 0c0 0 .04 5.41 0 5.4c0 .8.5 1.2 1.2 1.2c.4 0 .8-.1 1.2-.3c0 0 .1 1 .1 1c-.4.1-1 .3-1.4.3c-1.5 0-2.1-1-2.1-2.2c-.04.01 0-5.4 0-5.4l-1.8 0l0-1l1.8 0l0-2.4l1 0l0 2.4l2.4 0l0 1zm2-6.3l1 0l0 6.8c0 0 .07-.02.1 0c.4-.9 1.5-1.7 2.8-1.7c2.6 0 3.2 1.8 3.2 3.6c-.02-.01 0 4.9 0 4.9l-1.1 0c0 0 0-4.86 0-4.9c0-1.3-.4-2.6-2.1-2.6c-1.6 0-2.9 1.1-2.9 3.4c.03-.02 0 4.1 0 4.1l-1 0l0-13.6zm17.2 12.1c-.8 1.2-2.1 1.8-3.6 1.8c-2.5 0-4.2-1.9-4.2-4.4c0-2.5 1.7-4.4 4.2-4.4c2.5 0 3.9 2 3.9 3.9c-.04 0 0 .8 0 .8c0 0-7.03-.05-7 0c0 .9.6 3.1 3.1 3.1c1.1 0 2.3-.6 2.8-1.5c0 0 .8.7.8.7zm-.8-3.3c0-1.5-1.3-2.7-2.9-2.7c-2.4 0-3 2.2-3 2.7c0 0 5.9 0 5.9 0zm8.3-7.9l1.8 0l4.7 10.7l4.6-10.7l1.7 0l0 12.7l-1.2 0l0-11.2l0 0l-4.9 11.2l-.5 0l-4.9-11.2l-.1 0l0 11.2l-1.2 0l0-12.7zm16 0l1.2 0l0 12.7l-1.2 0l0-12.7zm8.5 0l1.2 0l5.4 12.7l-1.3 0l-1.4-3.3l-6.8 0l-1.4 3.3l-1.2 0l5.5-12.7zm.6 1.3l-3 7l5.9 0l-2.9-7zm6.9-1.3l1.3 0l-1.4 4.1l-1 0l1.1-4.1zm3.1 10.6c.5.9 1.4 1.4 2.4 1.4c.9 0 1.9-.6 1.9-1.5c0-2.3-4.9-.7-4.9-3.9c0-1.6 1.5-2.4 2.8-2.4c1.4 0 2.4.5 3 1.6c0 0-1 .5-1 .5c-.4-.7-1-1.1-2-1.1c-.7 0-1.7.4-1.7 1.3c0 2.3 4.9.5 4.9 3.9c0 1.7-1.4 2.6-3 2.6c-1.4 0-2.7-.6-3.4-1.7c0 0 1-.7 1-.7zm12.5-10.6c0 0 3.92 0 3.9 0c6.6 0 6.9 5.4 6.9 6.4c0 .9-.3 6.3-6.9 6.3c.02.04-3.9 0-3.9 0l0-12.7zm1.2 11.7c0 0 2.41-.04 2.4 0c3.4 0 6-1.7 6-5.3c0-3.7-2.6-5.3-6-5.3c.01-.02-2.4 0-2.4 0l0 10.6zm19.2-.5c-.8 1.2-2.1 1.8-3.6 1.8c-2.5 0-4.2-1.9-4.2-4.4c0-2.5 1.7-4.4 4.2-4.4c2.5 0 3.9 2 3.9 3.9c-.04 0 0 .8 0 .8c0 0-7.02-.05-7 0c0 .9.6 3.1 3.1 3.1c1.1 0 2.3-.6 2.8-1.5c0 0 .8.7.8.7zm-.8-3.3c0-1.5-1.3-2.7-2.9-2.7c-2.4 0-3 2.2-3 2.7c0 0 5.9 0 5.9 0zm3.3-3.5l1.1 0l0 1.5c0 0 .04-.02 0 0c.7-1.2 2.1-1.7 3.4-1.7c2.5 0 4.3 1.8 4.3 4.4c0 2.5-1.8 4.4-4.3 4.4c-1.3 0-2.7-.6-3.4-1.7c.04-.02 0 0 0 0l0 5.5l-1.1 0l0-12.4zm4.5 7.6c2 0 3.3-1.5 3.3-3.4c0-1.9-1.3-3.4-3.3-3.4c-2 0-3.5 1.5-3.5 3.4c0 1.9 1.5 3.4 3.5 3.4zm13.1-2.8c0 1.7 0 2.6.1 3.5c0 0-1 0-1 0c-.1-.4-.1-.8-.1-1.3c0 0 0 0 0 0c-.6 1.1-1.5 1.6-2.9 1.6c-1.5 0-3-.7-3-2.5c0-2.5 3-2.8 4.6-2.8c.02 0 1.3 0 1.3 0c0 0-.02-.5 0-.5c0-1.4-1-2-2.4-2c-.9 0-1.8.3-2.5.9c0 0-.6-.7-.6-.7c.8-.8 2.1-1.2 3.1-1.2c2.1 0 3.4.9 3.4 3c0 0 0 2 0 2zm-2.2-.6c-1.8 0-3.6.4-3.6 1.8c0 1.1 1 1.6 1.9 1.6c2.3 0 2.9-1.5 2.9-2.9c-.02.02 0-.5 0-.5c0 0-1.2-.04-1.2 0zm5-1.8c0-.6-.1-1.9-.1-2.4c0 0 1.1 0 1.1 0c0 .6 0 1.3 0 1.5c.6-1 1.4-1.7 2.7-1.7c.2 0 .4 0 .6.1c0 0-.1 1.1-.1 1.1c-.2-.1-.3-.1-.4-.1c-1.9 0-2.8 1.3-2.8 2.9c.04 0 0 4.5 0 4.5l-1 0c0 0-.04-5.94 0-5.9zm10.7-1.4l-2.4 0c0 0 .04 5.41 0 5.4c0 .8.5 1.2 1.2 1.2c.4 0 .8-.1 1.2-.3c0 0 .1 1 .1 1c-.4.1-1 .3-1.4.3c-1.5 0-2.1-1-2.1-2.2c-.04.01 0-5.4 0-5.4l-1.8 0l0-1l1.8 0l0-2.4l1 0l0 2.4l2.4 0l0 1zm2 1.4c0-.6-.1-1.9-.1-2.4c0 0 1 0 1 0c.1.6.1 1.3.1 1.5c0 0 .1 0 .1 0c.4-.9 1.5-1.7 2.8-1.7c1.1 0 2.1.5 2.5 1.8c.5-1.2 1.7-1.8 2.8-1.8c2.6 0 3.2 1.8 3.2 3.6c.01-.01 0 4.9 0 4.9l-1.1 0c0 0 .03-4.86 0-4.9c0-1.3-.3-2.6-2.1-2.6c-2 0-2.5 1.7-2.5 2.9c.02-.04 0 4.6 0 4.6l-1.1 0c0 0 .04-4.96 0-5c0-1.5-.5-2.5-1.7-2.5c-1.6 0-2.9 1.1-2.9 3.4c.03-.02 0 4.1 0 4.1l-1 0c0 0-.05-5.94 0-5.9zm22.6 4.4c-.9 1.2-2.1 1.8-3.6 1.8c-2.6 0-4.2-1.9-4.2-4.4c0-2.5 1.7-4.4 4.1-4.4c2.6 0 3.9 2 3.9 3.9c.03 0 0 .8 0 .8c0 0-6.95-.05-7 0c0 .9.7 3.1 3.2 3.1c1.1 0 2.2-.6 2.8-1.5c0 0 .8.7.8.7zm-.8-3.3c0-1.5-1.3-2.7-2.9-2.7c-2.4 0-3.1 2.2-3.1 2.7c0 0 6 0 6 0zm3.4-1.1c0-.6-.1-1.9-.1-2.4c0 0 1.1 0 1.1 0c0 .6 0 1.3.1 1.5c0 0 0 0 0 0c.4-.9 1.5-1.7 2.9-1.7c2.5 0 3.1 1.8 3.1 3.6c.02-.01 0 4.9 0 4.9l-1.1 0c0 0 .04-4.86 0-4.9c0-1.3-.3-2.6-2-2.6c-1.7 0-2.9 1.1-2.9 3.4c-.03-.02 0 4.1 0 4.1l-1.1 0c0 0-.01-5.94 0-5.9zm13.9-1.4l-2.3 0c0 0-.05 5.41 0 5.4c0 .8.4 1.2 1.1 1.2c.4 0 .9-.1 1.2-.3c0 0 .1 1 .1 1c-.4.1-1 .3-1.4.3c-1.5 0-2.1-1-2.1-2.2c-.03.01 0-5.4 0-5.4l-1.8 0l0-1l1.8 0l0-2.4l1.1 0l0 2.4l2.3 0l0 1zm10.5-1.2c2.6 0 4.4 1.8 4.4 4.4c0 2.5-1.8 4.4-4.4 4.4c-2.5 0-4.3-1.9-4.3-4.4c0-2.6 1.8-4.4 4.3-4.4zm0 7.8c2.1 0 3.3-1.5 3.3-3.4c0-1.9-1.2-3.4-3.3-3.4c-2 0-3.3 1.5-3.3 3.4c0 1.9 1.3 3.4 3.3 3.4zm7.2-6.6l-1.8 0l0-1l1.8 0c0 0-.03-2.69 0-2.7c0-2.1 1.4-2.8 2.5-2.8c.5 0 .9.1 1.2.2c0 0-.2 1-.2 1c-.3-.2-.6-.2-1-.2c-1 0-1.4.7-1.4 2.2c-.05 0 0 2.3 0 2.3l1.9 0l0 1l-1.9 0l0 7.3l-1.1 0l0-7.3zm13.6-5.4l1.2 0l5.4 12.7l-1.4 0l-1.3-3.3l-6.8 0l-1.4 3.3l-1.3 0l5.6-12.7zm.5 1.3l-2.9 7l5.8 0l-2.9-7zm7.7 5.5c0-.6 0-1.9 0-2.4c0 0 1 0 1 0c.1.6.1 1.3.1 1.5c.5-1 1.4-1.7 2.7-1.7c.2 0 .4 0 .6.1c0 0-.1 1.1-.1 1.1c-.2-.1-.4-.1-.5-.1c-1.8 0-2.7 1.3-2.7 2.9c.02 0 0 4.5 0 4.5l-1.1 0c0 0 .04-5.94 0-5.9zm10.8-1.4l-2.4 0c0 0 .02 5.41 0 5.4c0 .8.5 1.2 1.2 1.2c.4 0 .8-.1 1.2-.3c0 0 .1 1 .1 1c-.4.1-1 .3-1.4.3c-1.6 0-2.2-1-2.2-2.2c.04.01 0-5.4 0-5.4l-1.8 0l0-1l1.8 0l0-2.4l1.1 0l0 2.4l2.4 0l0 1zm2.3 5.2c.5.9 1.4 1.4 2.4 1.4c1 0 1.9-.6 1.9-1.5c0-2.3-4.9-.7-4.9-3.9c0-1.6 1.5-2.4 2.8-2.4c1.4 0 2.4.5 3 1.6c0 0-1 .5-1 .5c-.4-.7-1-1.1-2-1.1c-.7 0-1.7.4-1.7 1.3c0 2.3 4.9.5 4.9 3.9c0 1.7-1.4 2.6-3 2.6c-1.4 0-2.7-.6-3.3-1.7c0 0 .9-.7.9-.7z" stroke="none" fill="#000"/></g><g id="Polygon46847"><path d="m6.9 60.6c0 1.5-.2 4.1-3.5 4.1c-1.8 0-2.9-1.1-3.3-2.6c0 0 1.2-.3 1.2-.3c.3 1.2 1 1.8 2.1 1.8c1.7 0 2.3-1.2 2.3-2.7c.04-.02 0-9.3 0-9.3l1.2 0c0 0 .03 9 0 9zm9.3.2c0 1.7 0 2.6.2 3.5c0 0-1 0-1 0c-.1-.4-.1-.8-.1-1.3c0 0-.1 0-.1 0c-.6 1.1-1.5 1.6-2.9 1.6c-1.4 0-2.9-.7-2.9-2.5c0-2.5 2.9-2.8 4.6-2.8c-.02 0 1.2 0 1.2 0c0 0 .04-.5 0-.5c0-1.4-1-2-2.3-2c-1 0-1.8.3-2.5.9c0 0-.7-.7-.7-.7c.8-.8 2.1-1.2 3.2-1.2c2 0 3.3.9 3.3 3c0 0 0 2 0 2zm-2.2-.6c-1.8 0-3.6.4-3.6 1.8c0 1.1 1 1.6 1.9 1.6c2.3 0 2.9-1.5 2.9-2.9c.04.02 0-.5 0-.5c0 0-1.15-.04-1.2 0zm5-1.8c0-.6-.1-1.9-.1-2.4c0 0 1.1 0 1.1 0c0 .6 0 1.3.1 1.5c0 0 0 0 0 0c.5-.9 1.5-1.7 2.9-1.7c2.6 0 3.1 1.8 3.1 3.6c.04-.01 0 4.9 0 4.9l-1 0c0 0-.04-4.86 0-4.9c0-1.3-.4-2.6-2.1-2.6c-1.6 0-2.9 1.1-2.9 3.4c-.01-.02 0 4.1 0 4.1l-1.1 0c0 0 .01-5.94 0-5.9zm9.5 1.2l4.4 0l0 1l-4.4 0l0-1zm7.1-8l1.2 0l0 11.7l5.9 0l0 1l-7.1 0l0-12.7zm12.5 4.2c2.5 0 4.3 1.8 4.3 4.4c0 2.5-1.8 4.4-4.3 4.4c-2.6 0-4.4-1.9-4.4-4.4c0-2.6 1.8-4.4 4.4-4.4zm0 7.8c2 0 3.3-1.5 3.3-3.4c0-1.9-1.3-3.4-3.3-3.4c-2.1 0-3.3 1.5-3.3 3.4c0 1.9 1.2 3.4 3.3 3.4zm14-.7c0 0-.05-.02 0 0c-.7 1.1-2.1 1.7-3.4 1.7c-2.5 0-4.4-1.9-4.4-4.4c0-2.6 1.9-4.4 4.4-4.4c1.3 0 2.7.5 3.4 1.7c-.05-.02 0 0 0 0l0-6.8l1.1 0l0 13.6l-1.1 0l0-1.4zm-3.4-6.1c-2 0-3.3 1.5-3.3 3.4c0 1.9 1.3 3.4 3.3 3.4c2 0 3.5-1.5 3.5-3.4c0-1.9-1.5-3.4-3.5-3.4zm14.5 6c-.8 1.2-2.1 1.8-3.6 1.8c-2.5 0-4.2-1.9-4.2-4.4c0-2.5 1.8-4.4 4.2-4.4c2.5 0 3.9 2 3.9 3.9c-.01 0 0 .8 0 .8c0 0-7-.05-7 0c0 .9.6 3.1 3.2 3.1c1.1 0 2.2-.6 2.7-1.5c0 0 .8.7.8.7zm-.8-3.3c0-1.5-1.3-2.7-2.9-2.7c-2.3 0-3 2.2-3 2.7c0 0 5.9 0 5.9 0zm2.2-3.5l1.2 0l2 7l.1 0l2.3-7l1 0l2.5 7l0 0l2-7l1.1 0l-2.5 8.3l-1.1 0l-2.5-6.8l0 0l-2.4 6.8l-1.1 0l-2.6-8.3zm14 0l1.1 0l0 8.3l-1.1 0l0-8.3zm.6-4.1c.4 0 .8.4.8.8c0 .5-.4.8-.8.8c-.5 0-.8-.3-.8-.8c0-.4.3-.8.8-.8zm4.6 13.9c0 1.7-.4 2.9-2.4 2.9c-.2 0-.5-.1-.8-.2c0 0 .1-1 .1-1c.3.1.5.2.7.2c1.2 0 1.3-.9 1.3-1.8c.04-.01 0-9.9 0-9.9l1.1 0c0 0 .02 9.8 0 9.8zm-.5-13.9c.4 0 .8.4.8.8c0 .5-.4.8-.8.8c-.5 0-.8-.3-.8-.8c0-.4.3-.8.8-.8zm3.4-1.2l1.1 0l0 9.1l4.1-3.8l1.6 0l-4.3 3.8l4.8 4.5l-1.7 0l-4.5-4.4l0 4.4l-1.1 0l0-13.6zm24.2 12.8c-1.5.9-3.1 1.2-4.8 1.2c-3.9 0-6.6-2.8-6.6-6.7c0-3.9 2.7-6.7 6.6-6.7c1.9 0 3.4.5 4.6 1.7c0 0-.9.9-.9.9c-.7-.9-2.3-1.5-3.7-1.5c-3.3 0-5.4 2.4-5.4 5.6c0 3.1 2.1 5.6 5.4 5.6c1.4 0 2.6-.2 3.6-.8c-.03.03 0-4.3 0-4.3l-3.1 0l0-1l4.3 0c0 0-.04 6.01 0 6zm3-5.1c0-.6-.1-1.9-.1-2.4c0 0 1.1 0 1.1 0c0 .6 0 1.3 0 1.5c.6-1 1.4-1.7 2.7-1.7c.2 0 .4 0 .6.1c0 0-.1 1.1-.1 1.1c-.2-.1-.3-.1-.4-.1c-1.9 0-2.7 1.3-2.7 2.9c-.04 0 0 4.5 0 4.5l-1.1 0c0 0-.02-5.94 0-5.9zm9.6-2.6c2.6 0 4.4 1.8 4.4 4.4c0 2.5-1.8 4.4-4.4 4.4c-2.6 0-4.4-1.9-4.4-4.4c0-2.6 1.8-4.4 4.4-4.4zm0 7.8c2 0 3.3-1.5 3.3-3.4c0-1.9-1.3-3.4-3.3-3.4c-2 0-3.3 1.5-3.3 3.4c0 1.9 1.3 3.4 3.3 3.4zm10.7-7.8c2.5 0 4.3 1.8 4.3 4.4c0 2.5-1.8 4.4-4.3 4.4c-2.6 0-4.4-1.9-4.4-4.4c0-2.6 1.8-4.4 4.4-4.4zm0 7.8c2 0 3.2-1.5 3.2-3.4c0-1.9-1.2-3.4-3.2-3.4c-2.1 0-3.3 1.5-3.3 3.4c0 1.9 1.2 3.4 3.3 3.4zm10.6-6.6l-2.4 0c0 0 0 5.41 0 5.4c0 .8.4 1.2 1.2 1.2c.4 0 .8-.1 1.2-.3c0 0 .1 1 .1 1c-.4.1-1 .3-1.4.3c-1.6 0-2.2-1-2.2-2.2c.02.01 0-5.4 0-5.4l-1.8 0l0-1l1.8 0l0-2.4l1.1 0l0 2.4l2.4 0l0 1zm8.4 3.8c0 1.7.1 2.6.2 3.5c0 0-1 0-1 0c-.1-.4-.1-.8-.1-1.3c0 0-.1 0-.1 0c-.6 1.1-1.5 1.6-2.9 1.6c-1.4 0-2.9-.7-2.9-2.5c0-2.5 2.9-2.8 4.6-2.8c-.02 0 1.2 0 1.2 0c0 0 .04-.5 0-.5c0-1.4-1-2-2.3-2c-1 0-1.8.3-2.5.9c0 0-.7-.7-.7-.7c.8-.8 2.1-1.2 3.2-1.2c2 0 3.3.9 3.3 3c0 0 0 2 0 2zm-2.1-.6c-1.8 0-3.6.4-3.6 1.8c0 1.1.9 1.6 1.8 1.6c2.4 0 2.9-1.5 2.9-2.9c.04.02 0-.5 0-.5c0 0-1.14-.04-1.1 0zm12.2 2.6c-.8 1.2-2.1 1.8-3.6 1.8c-2.5 0-4.2-1.9-4.2-4.4c0-2.5 1.7-4.4 4.2-4.4c2.5 0 3.9 2 3.9 3.9c-.03 0 0 .8 0 .8c0 0-7.01-.05-7 0c0 .9.6 3.1 3.1 3.1c1.1 0 2.3-.6 2.8-1.5c0 0 .8.7.8.7zm-.8-3.3c0-1.5-1.3-2.7-2.9-2.7c-2.3 0-3 2.2-3 2.7c0 0 5.9 0 5.9 0zm3.4-1.1c0-.6-.1-1.9-.1-2.4c0 0 1.1 0 1.1 0c0 .6.1 1.3.1 1.5c.5-1 1.4-1.7 2.6-1.7c.3 0 .5 0 .7.1c0 0-.2 1.1-.2 1.1c-.1-.1-.3-.1-.4-.1c-1.8 0-2.7 1.3-2.7 2.9c.01 0 0 4.5 0 4.5l-1.1 0c0 0 .03-5.94 0-5.9zm6.3 3.8c.4.9 1.4 1.4 2.4 1.4c.9 0 1.9-.6 1.9-1.5c0-2.3-4.9-.7-4.9-3.9c0-1.6 1.4-2.4 2.8-2.4c1.4 0 2.4.5 2.9 1.6c0 0-.9.5-.9.5c-.5-.7-1-1.1-2-1.1c-.8 0-1.8.4-1.8 1.3c0 2.3 5 .5 5 3.9c0 1.7-1.5 2.6-3 2.6c-1.5 0-2.7-.6-3.4-1.7c0 0 1-.7 1-.7zm8.1.5l1.2 0l-1.3 4.1l-1.1 0l1.2-4.1zm9-11.1c0 0 3.67 0 3.7 0c1.8 0 4.1.7 4.1 3.4c0 2.3-1.9 3.3-3.9 3.3c.04-.01-2.7 0-2.7 0l0 6l-1.2 0l0-12.7zm1.2 5.6c0 0 2.68.01 2.7 0c1.3 0 2.7-.6 2.7-2.2c0-1.7-1.4-2.3-2.8-2.3c.01-.02-2.6 0-2.6 0l0 4.5zm8.6-6.5l1.1 0l0 6.8c0 0 .01-.02 0 0c.4-.9 1.5-1.7 2.9-1.7c2.5 0 3.1 1.8 3.1 3.6c.02-.01 0 4.9 0 4.9l-1.1 0c0 0 .04-4.86 0-4.9c0-1.3-.3-2.6-2-2.6c-1.7 0-2.9 1.1-2.9 3.4c-.03-.02 0 4.1 0 4.1l-1.1 0l0-13.6zm10.1.9c0 0 3.9 0 3.9 0c6.6 0 6.9 5.4 6.9 6.4c0 .9-.3 6.3-6.9 6.3c0 .04-3.9 0-3.9 0l0-12.7zm1.1 11.7c0 0 2.49-.04 2.5 0c3.4 0 6-1.7 6-5.3c0-3.7-2.6-5.3-6-5.3c-.01-.02-2.5 0-2.5 0l0 10.6zm11.8-.6l1.3 0l-1.4 4.1l-1.1 0l1.2-4.1zm8.9-6.7l1.1 0l0 8.3l-1.1 0l0-8.3zm.5-4.1c.5 0 .8.4.8.8c0 .5-.3.8-.8.8c-.4 0-.8-.3-.8-.8c0-.4.4-.8.8-.8zm3.6 10.3c.4.9 1.4 1.4 2.4 1.4c.9 0 1.9-.6 1.9-1.5c0-2.3-4.9-.7-4.9-3.9c0-1.6 1.5-2.4 2.8-2.4c1.4 0 2.4.5 3 1.6c0 0-1 .5-1 .5c-.4-.7-1-1.1-2-1.1c-.7 0-1.7.4-1.7 1.3c0 2.3 4.9.5 4.9 3.9c0 1.7-1.4 2.6-3 2.6c-1.4 0-2.7-.6-3.4-1.7c0 0 1-.7 1-.7zm19.3.9c-.8 1-1.9 1.5-3.1 1.5c-2.5 0-4.3-1.9-4.3-4.4c0-2.6 1.8-4.4 4.3-4.4c1.2 0 2.3.5 3.1 1.4c0 0-.8.7-.8.7c-.7-.7-1.4-1.1-2.3-1.1c-2 0-3.3 1.5-3.3 3.4c0 1.9 1.3 3.4 3.3 3.4c.9 0 1.7-.5 2.3-1.2c0 0 .8.7.8.7zm8.9-1.1c0 .6.1 1.9.1 2.3c0 0-1.1 0-1.1 0c0-.6-.1-1.3-.1-1.4c0 0 0 0 0 0c-.5.9-1.5 1.7-2.9 1.7c-2.6 0-3.2-1.8-3.2-3.6c.04-.03 0-5 0-5l1.1 0c0 0 .02 4.92 0 4.9c0 1.4.4 2.7 2.1 2.7c1.6 0 2.9-1.1 2.9-3.4c-.01-.02 0-4.2 0-4.2l1.1 0c0 0-.03 6 0 6zm2.8-3.6c0-.6 0-1.9 0-2.4c0 0 1 0 1 0c0 .6.1 1.3.1 1.5c.5-1 1.4-1.7 2.6-1.7c.3 0 .5 0 .7.1c0 0-.1 1.1-.1 1.1c-.2-.1-.4-.1-.5-.1c-1.8 0-2.7 1.3-2.7 2.9c.02 0 0 4.5 0 4.5l-1.1 0c0 0 .04-5.94 0-5.9zm12.6 2.4c0 1.7 0 2.6.1 3.5c0 0-1 0-1 0c-.1-.4-.1-.8-.1-1.3c0 0 0 0 0 0c-.6 1.1-1.5 1.6-2.9 1.6c-1.5 0-3-.7-3-2.5c0-2.5 3-2.8 4.6-2.8c.03 0 1.3 0 1.3 0c0 0-.01-.5 0-.5c0-1.4-1-2-2.4-2c-.9 0-1.8.3-2.5.9c0 0-.6-.7-.6-.7c.8-.8 2.1-1.2 3.1-1.2c2.1 0 3.4.9 3.4 3c0 0 0 2 0 2zm-2.2-.6c-1.8 0-3.6.4-3.6 1.8c0 1.1 1 1.6 1.9 1.6c2.3 0 2.9-1.5 2.9-2.9c-.01.02 0-.5 0-.5c0 0-1.2-.04-1.2 0zm9-3.2l-2.4 0c0 0 .04 5.41 0 5.4c0 .8.5 1.2 1.2 1.2c.4 0 .8-.1 1.2-.3c0 0 .1 1 .1 1c-.4.1-1 .3-1.4.3c-1.5 0-2.1-1-2.1-2.2c-.04.01 0-5.4 0-5.4l-1.8 0l0-1l1.8 0l0-2.4l1 0l0 2.4l2.4 0l0 1zm5.5-1.2c2.6 0 4.4 1.8 4.4 4.4c0 2.5-1.8 4.4-4.4 4.4c-2.5 0-4.3-1.9-4.3-4.4c0-2.6 1.8-4.4 4.3-4.4zm0 7.8c2.1 0 3.3-1.5 3.3-3.4c0-1.9-1.2-3.4-3.3-3.4c-2 0-3.3 1.5-3.3 3.4c0 1.9 1.3 3.4 3.3 3.4zm6.7-5.2c0-.6-.1-1.9-.1-2.4c0 0 1.1 0 1.1 0c0 .6.1 1.3.1 1.5c.5-1 1.4-1.7 2.6-1.7c.3 0 .4 0 .7.1c0 0-.2 1.1-.2 1.1c-.1-.1-.3-.1-.4-.1c-1.8 0-2.7 1.3-2.7 2.9c.01 0 0 4.5 0 4.5l-1.1 0c0 0 .03-5.94 0-5.9zm14.6-2.6c2.6 0 4.4 1.8 4.4 4.4c0 2.5-1.8 4.4-4.4 4.4c-2.5 0-4.4-1.9-4.4-4.4c0-2.6 1.9-4.4 4.4-4.4zm0 7.8c2 0 3.3-1.5 3.3-3.4c0-1.9-1.3-3.4-3.3-3.4c-2 0-3.3 1.5-3.3 3.4c0 1.9 1.3 3.4 3.3 3.4zm7.1-6.6l-1.7 0l0-1l1.7 0c0 0 .04-2.69 0-2.7c0-2.1 1.5-2.8 2.5-2.8c.5 0 .9.1 1.3.2c0 0-.3 1-.3 1c-.2-.2-.5-.2-.9-.2c-1 0-1.5.7-1.5 2.2c.02 0 0 2.3 0 2.3l2 0l0 1l-2 0l0 7.3l-1.1 0l0-7.3zm13.6-5.4l1.3 0l5.3 12.7l-1.3 0l-1.4-3.3l-6.7 0l-1.5 3.3l-1.2 0l5.5-12.7zm.6 1.3l-3 7l5.9 0l-2.9-7zm8 4.1l-1.7 0l0-1l1.7 0c0 0 .01-2.69 0-2.7c0-2.1 1.4-2.8 2.5-2.8c.5 0 .9.1 1.2.2c0 0-.2 1-.2 1c-.2-.2-.5-.2-1-.2c-.9 0-1.4.7-1.4 2.2c-.01 0 0 2.3 0 2.3l1.9 0l0 1l-1.9 0l0 7.3l-1.1 0l0-7.3zm4.8 1.4c0-.6 0-1.9 0-2.4c0 0 1 0 1 0c.1.6.1 1.3.1 1.5c.5-1 1.4-1.7 2.7-1.7c.2 0 .4 0 .6.1c0 0-.1 1.1-.1 1.1c-.2-.1-.4-.1-.5-.1c-1.8 0-2.7 1.3-2.7 2.9c.02 0 0 4.5 0 4.5l-1.1 0c0 0 .04-5.94 0-5.9zm6.2-2.4l1.1 0l0 8.3l-1.1 0l0-8.3zm.6-4.1c.4 0 .8.4.8.8c0 .5-.4.8-.8.8c-.5 0-.8-.3-.8-.8c0-.4.3-.8.8-.8zm10.3 11.2c-.8 1-1.9 1.5-3 1.5c-2.6 0-4.4-1.9-4.4-4.4c0-2.6 1.8-4.4 4.4-4.4c1.2 0 2.2.5 3.1 1.4c0 0-.9.7-.9.7c-.6-.7-1.4-1.1-2.2-1.1c-2.1 0-3.3 1.5-3.3 3.4c0 1.9 1.2 3.4 3.3 3.4c.9 0 1.6-.5 2.2-1.2c0 0 .8.7.8.7zm8.4-2.3c0 1.7 0 2.6.2 3.5c0 0-1 0-1 0c-.1-.4-.2-.8-.2-1.3c0 0 0 0 0 0c-.6 1.1-1.5 1.6-2.9 1.6c-1.4 0-2.9-.7-2.9-2.5c0-2.5 2.9-2.8 4.6-2.8c-.03 0 1.2 0 1.2 0c0 0 .03-.5 0-.5c0-1.4-1-2-2.3-2c-1 0-1.8.3-2.6.9c0 0-.6-.7-.6-.7c.8-.8 2.1-1.2 3.2-1.2c2 0 3.3.9 3.3 3c0 0 0 2 0 2zm-2.2-.6c-1.8 0-3.6.4-3.6 1.8c0 1.1 1 1.6 1.9 1.6c2.3 0 2.9-1.5 2.9-2.9c.03.02 0-.5 0-.5c0 0-1.16-.04-1.2 0zm5-1.8c0-.6-.1-1.9-.1-2.4c0 0 1.1 0 1.1 0c0 .6 0 1.3.1 1.5c0 0 0 0 0 0c.4-.9 1.5-1.7 2.9-1.7c2.6 0 3.1 1.8 3.1 3.6c.03-.01 0 4.9 0 4.9l-1.1 0c0 0 .05-4.86 0-4.9c0-1.3-.3-2.6-2-2.6c-1.6 0-2.9 1.1-2.9 3.4c-.02-.02 0 4.1 0 4.1l-1.1 0c0 0 0-5.94 0-5.9z" stroke="none" fill="#000"/></g><g id="Polygon46846"><path d="m1.5 27.6l3.4 0l3.4 8.9l3.5-8.9l3.4 0l0 12.7l-2.2 0l0-10.5l0 0l-3.9 10.5l-1.6 0l-3.8-10.5l-.1 0l0 10.5l-2.1 0l0-12.7zm16.5 0l8.4 0l0 2l-6.1 0l0 3.2l5.8 0l0 2l-5.8 0l0 3.5l6.5 0l0 2l-8.8 0l0-12.7zm10.9 0l8.5 0l0 2l-6.2 0l0 3.2l5.9 0l0 2l-5.9 0l0 3.5l6.5 0l0 2l-8.8 0l0-12.7zm13.7 2l-3.9 0l0-2l10.1 0l0 2l-3.9 0l0 10.7l-2.3 0l0-10.7zm15.7 0l-3.9 0l0-2l10 0l0 2l-3.9 0l0 10.7l-2.2 0l0-10.7zm7.6-2l2.3 0l0 5.1l5.9 0l0-5.1l2.3 0l0 12.7l-2.3 0l0-5.6l-5.9 0l0 5.6l-2.3 0l0-12.7zm13.3 0l8.4 0l0 2l-6.1 0l0 3.2l5.8 0l0 2l-5.8 0l0 3.5l6.4 0l0 2l-8.7 0l0-12.7zm25.1 3c-1-1-1.8-1.3-2.7-1.3c-2.7 0-4.4 2-4.4 4.6c0 2.7 1.7 4.7 4.4 4.7c1 0 2-.5 2.8-1.5c0 0 1.9 1.3 1.9 1.3c-1.1 1.6-2.9 2.3-4.7 2.3c-4 0-6.8-2.7-6.8-6.7c0-4.1 2.8-6.7 6.8-6.7c1.7 0 3.2.5 4.4 2c0 0-1.7 1.3-1.7 1.3zm13.6 5.1c0 3-2.3 5-5.2 5c-2.9 0-5.1-2-5.1-5c0-.04 0-8.1 0-8.1l2.3 0c0 0-.03 7.99 0 8c0 1.2.6 2.9 2.8 2.9c2.2 0 2.9-1.7 2.9-2.9c-.01-.01 0-8 0-8l2.3 0c0 0-.04 8.06 0 8.1zm2.7-8.1c0 0 4.4 0 4.4 0c2.4 0 4.8.8 4.8 3.6c0 1.9-1.1 3.2-3 3.5c0 .01 3.4 5.6 3.4 5.6l-2.8 0l-2.9-5.4l-1.7 0l0 5.4l-2.2 0l0-12.7zm4 5.4c1.3 0 2.8-.1 2.8-1.8c0-1.5-1.4-1.7-2.6-1.7c0 .04-2 0-2 0l0 3.5c0 0 1.8 0 1.8 0zm12-5.4l1.9 0l5.5 12.7l-2.6 0l-1.1-2.9l-5.6 0l-1.1 2.9l-2.6 0l5.6-12.7zm2.9 7.9l-2-5.2l-2 5.2l4 0zm7.2-5.9l-3.9 0l0-2l10.1 0l0 2l-3.9 0l0 10.7l-2.3 0l0-10.7zm13.5-2.3c4-.1 6.8 2.6 6.8 6.6c0 4-2.8 6.7-6.8 6.8c-3.9 0-6.8-2.7-6.8-6.7c0-4.1 2.9-6.7 6.8-6.7zm0 11.3c2.6 0 4.4-2 4.4-4.7c0-2.6-1.8-4.6-4.4-4.6c-2.6 0-4.4 2-4.4 4.6c0 2.7 1.8 4.7 4.4 4.7zm8.9-11c0 0 4.41 0 4.4 0c2.5 0 4.8.8 4.8 3.6c0 1.9-1.1 3.2-3 3.5c.01.01 3.4 5.6 3.4 5.6l-2.7 0l-3-5.4l-1.6 0l0 5.4l-2.3 0l0-12.7zm4 5.4c1.3 0 2.8-.1 2.8-1.8c0-1.5-1.4-1.7-2.6-1.7c.01.04-1.9 0-1.9 0l0 3.5c0 0 1.71 0 1.7 0z" stroke="none" fill="#fff"/></g></svg>