<svg xmlns="http://www.w3.org/2000/svg" version="1.1" width="511px" height="54.3px" viewBox="0 0 511 54.3"><desc>Link to the MIA s Arts of Africa and the Americas Collection Page</desc><defs/><g id="Polygon48171"><path d="m45.6 26.2c-.5-.6-1.3-1-2.4-1c-2.1 0-3.7 1.7-3.7 4.1c0 2.4 1.6 4.1 3.6 4.1c1.2 0 2.1-.5 2.7-1.4c0 0 2.3 1.8 2.3 1.8c-1.1 1.5-2.9 2.2-4.6 2.2c-4 0-6.9-2.6-6.9-6.7c0-4.1 2.9-6.7 6.9-6.7c1.4 0 3.2.5 4.3 1.9c0 0-2.2 1.7-2.2 1.7zm8.1.5c2.7 0 4.9 1.8 4.9 4.6c0 2.8-2.2 4.6-4.9 4.6c-2.7 0-4.9-1.8-4.9-4.6c0-2.8 2.2-4.6 4.9-4.6zm0 6.8c1.3 0 2.2-.9 2.2-2.2c0-1.3-.9-2.2-2.2-2.2c-1.4 0-2.2.9-2.2 2.2c0 1.3.8 2.2 2.2 2.2zm6.5-11.4l2.7 0l0 13.6l-2.7 0l0-13.6zm4.8 0l2.7 0l0 13.6l-2.7 0l0-13.6zm13 12.1c-.9 1.1-2.3 1.7-3.7 1.7c-2.7 0-4.9-1.8-4.9-4.6c0-2.8 2.2-4.6 4.9-4.6c2.5 0 4.1 1.8 4.1 4.6c-.03.01 0 .9 0 .9c0 0-6.29-.05-6.3 0c.2 1 1 1.6 2 1.6c.9 0 1.5-.4 2-1c0 0 1.9 1.4 1.9 1.4zm-2.3-3.9c0-.9-.7-1.6-1.7-1.6c-1.2 0-1.8.8-1.9 1.6c0 0 3.6 0 3.6 0zm10.2-.5c-.3-.4-.8-.7-1.4-.7c-1.3 0-2.1.9-2.1 2.2c0 1.3.8 2.2 2.1 2.2c.6 0 1.1-.3 1.4-.6c0 0 1.8 1.8 1.8 1.8c-.9.9-2.1 1.2-3.2 1.2c-2.7 0-4.8-1.8-4.8-4.6c0-2.8 2.1-4.6 4.8-4.6c1.1 0 2.3.3 3.2 1.2c0 0-1.8 1.9-1.8 1.9zm9.2-.7l-2.4 0c0 0 .04 2.91 0 2.9c0 .9.2 1.6 1.3 1.6c.3 0 .9 0 1.1-.2c0 0 0 2.2 0 2.2c-.6.2-1.2.3-1.9.3c-1.8 0-3.2-.7-3.2-2.7c.04.05 0-4.1 0-4.1l-1.7 0l0-2.2l1.7 0l0-2.6l2.7 0l0 2.6l2.4 0l0 2.2zm1.7-2.2l2.7 0l0 8.8l-2.7 0l0-8.8zm1.3-4.3c.9 0 1.6.7 1.6 1.6c0 .8-.7 1.5-1.6 1.5c-.8 0-1.5-.7-1.5-1.5c0-.9.7-1.6 1.5-1.6zm7.8 4.1c2.7 0 4.9 1.8 4.9 4.6c0 2.8-2.2 4.6-4.9 4.6c-2.7 0-4.8-1.8-4.8-4.6c0-2.8 2.1-4.6 4.8-4.6zm0 6.8c1.4 0 2.2-.9 2.2-2.2c0-1.3-.8-2.2-2.2-2.2c-1.3 0-2.1.9-2.1 2.2c0 1.3.8 2.2 2.1 2.2zm6.5-6.6l2.6 0l0 1.2c0 0 .07.02.1 0c.3-.7 1.2-1.4 2.5-1.4c2.8 0 3.3 1.8 3.3 4.2c-.03-.04 0 4.8 0 4.8l-2.7 0c0 0-.03-4.3 0-4.3c0-1-.1-2.3-1.4-2.3c-1.4 0-1.7 1.1-1.7 2.2c.04.02 0 4.4 0 4.4l-2.7 0l0-8.8zm16-4c0 0 4.78.04 4.8 0c2.6 0 4.8.9 4.8 3.9c0 3-2 3.9-4.7 3.9c0 .01-2 0-2 0l0 5l-2.9 0l0-12.8zm2.9 5.4c0 0 1.82.04 1.8 0c1 0 2-.3 2-1.5c0-1.3-1.3-1.5-2.4-1.5c-.01.01-1.4 0-1.4 0l0 3zm13.4 6.3c0 0-.04-.02 0 0c-.6.9-1.7 1.3-2.8 1.3c-1.7 0-3.1-.9-3.1-2.7c0-3 3.6-3.1 5.9-3.1c0-.9-.8-1.5-1.7-1.5c-.9 0-1.7.3-2.2 1c0 0-1.5-1.5-1.5-1.5c1-.9 2.5-1.4 3.9-1.4c3.1 0 4 1.6 4 4.5c-.02.03 0 4.5 0 4.5l-2.5 0l0-1.1zm-.7-2.8c-.8 0-2.6.1-2.6 1.3c0 .7.6 1 1.2 1c1.1 0 2.1-.6 2.1-1.7c-.01.02 0-.6 0-.6c0 0-.67.05-.7 0zm14.2 3.1c0 3.3-1.7 5.1-5.1 5.1c-1.5 0-3.1-.3-4.4-1.3c0 0 1.5-2.2 1.5-2.2c.9.7 1.8 1.1 2.9 1.1c1.6 0 2.4-.9 2.4-2.1c-.02-.02 0-.9 0-.9c0 0-.05.04-.1 0c-.6.9-1.6 1.2-2.4 1.2c-2.6 0-4.3-1.9-4.3-4.5c0-2.4 1.5-4.6 4-4.6c1.5 0 2.5.8 3 1.4c-.04-.02 0 0 0 0l0-1.2l2.5 0c0 0-.02 8.04 0 8zm-4.7-1.5c1.3 0 2.2-1 2.2-2.1c0-1.2-.9-2.2-2.2-2.2c-1.2 0-2.1 1-2.1 2.2c0 1.1.9 2.1 2.1 2.1zm15 .8c-.8 1.1-2.3 1.7-3.7 1.7c-2.7 0-4.8-1.8-4.8-4.6c0-2.8 2.1-4.6 4.8-4.6c2.6 0 4.1 1.8 4.1 4.6c.04.01 0 .9 0 .9c0 0-6.23-.05-6.2 0c.2 1 1 1.6 2 1.6c.9 0 1.5-.4 1.9-1c0 0 1.9 1.4 1.9 1.4zm-2.3-3.9c.1-.9-.6-1.6-1.6-1.6c-1.2 0-1.9.8-1.9 1.6c0 0 3.5 0 3.5 0z" stroke="none" fill="#be870e"/></g><g id="Polygon48170"><path d="m6.4 10.5l5.7-2.3l0 0l-5.7-2.2l0-2.5l9.1 3.6l0 2.3l-9.1 3.5l0-2.4zm10.7 0l5.7-2.3l0 0l-5.7-2.2l0-2.5l9.1 3.6l0 2.3l-9.1 3.5l0-2.4zm20.3-9.6l2.8 0l0 10.2l5.2 0l0 2.6l-8 0l0-12.8zm9.2 4l2.7 0l0 8.8l-2.7 0l0-8.8zm1.4-4.3c.8 0 1.5.7 1.5 1.6c0 .8-.7 1.5-1.5 1.5c-.9 0-1.6-.7-1.6-1.5c0-.9.7-1.6 1.6-1.6zm3.4 4.3l2.6 0l0 1.2c0 0 .02.02 0 0c.4-.7 1.3-1.4 2.6-1.4c2.7 0 3.2 1.8 3.2 4.2c.01-.04 0 4.8 0 4.8l-2.7 0c0 0 .01-4.3 0-4.3c0-1 0-2.3-1.4-2.3c-1.4 0-1.6 1.1-1.6 2.2c-.01.02 0 4.4 0 4.4l-2.7 0l0-8.8zm10.5-4.8l2.7 0l0 8.3l2.9-3.5l3.4 0l-3.5 4l3.5 4.8l-3.4 0l-2.9-4.4l0 0l0 4.4l-2.7 0l0-13.6zm21.3 7l-2.4 0c0 0-.02 2.91 0 2.9c0 .9.1 1.6 1.3 1.6c.2 0 .8 0 1.1-.2c0 0 0 2.2 0 2.2c-.6.2-1.3.3-1.9.3c-1.8 0-3.2-.7-3.2-2.7c-.02.05 0-4.1 0-4.1l-1.8 0l0-2.2l1.8 0l0-2.6l2.7 0l0 2.6l2.4 0l0 2.2zm5.9-2.4c2.7 0 4.8 1.8 4.8 4.6c0 2.8-2.1 4.6-4.8 4.6c-2.7 0-4.9-1.8-4.9-4.6c0-2.8 2.2-4.6 4.9-4.6zm0 6.8c1.3 0 2.1-.9 2.1-2.2c0-1.3-.8-2.2-2.1-2.2c-1.4 0-2.2.9-2.2 2.2c0 1.3.8 2.2 2.2 2.2zm17.7-4.4l-2.4 0c0 0 .02 2.91 0 2.9c0 .9.1 1.6 1.3 1.6c.3 0 .9 0 1.1-.2c0 0 0 2.2 0 2.2c-.6.2-1.3.3-1.9.3c-1.8 0-3.2-.7-3.2-2.7c.02.05 0-4.1 0-4.1l-1.7 0l0-2.2l1.7 0l0-2.6l2.7 0l0 2.6l2.4 0l0 2.2zm4.4-7l0 6c0 0 .03.02 0 0c.3-.7 1.2-1.4 2.5-1.4c2.7 0 3.2 1.8 3.2 4.2c.02-.04 0 4.8 0 4.8l-2.7 0c0 0 .02-4.3 0-4.3c0-1 0-2.3-1.4-2.3c-1.4 0-1.6 1.1-1.6 2.2c-.01.02 0 4.4 0 4.4l-2.7 0l0-13.6l2.7 0zm15.9 12.1c-.9 1.1-2.3 1.7-3.7 1.7c-2.7 0-4.9-1.8-4.9-4.6c0-2.8 2.2-4.6 4.9-4.6c2.5 0 4.1 1.8 4.1 4.6c.01.01 0 .9 0 .9c0 0-6.25-.05-6.3 0c.3 1 1 1.6 2.1 1.6c.9 0 1.5-.4 1.9-1c0 0 1.9 1.4 1.9 1.4zm-2.3-3.9c0-.9-.7-1.6-1.6-1.6c-1.2 0-1.9.8-2 1.6c0 0 3.6 0 3.6 0zm10-7.4l4.3 0l2.9 8.4l0 0l3-8.4l4.2 0l0 12.8l-2.8 0l0-9.8l0 0l-3.4 9.8l-2.1 0l-3.2-9.8l-.1 0l0 9.8l-2.8 0l0-12.8zm16.9 0l2.9 0l0 12.8l-2.9 0l0-12.8zm9.5 0l2.4 0l5.5 12.8l-3.2 0l-1.1-2.7l-4.9 0l-1.1 2.7l-3.1 0l5.5-12.8zm1.1 3.7l-1.5 4l3.1 0l-1.6-4zm8.4 1.4l-2.3 0l1.3-5.1l2.6 0l-1.6 5.1zm7.5 1.5c-.4-.5-.9-.7-1.6-.7c-.4 0-1 .2-1 .7c0 1.3 4.6.2 4.6 3.5c0 2.2-2.2 2.9-4 2.9c-1.3 0-2.6-.3-3.5-1.2c0 0 1.7-1.8 1.7-1.8c.5.6 1.1.9 1.9.9c.6 0 1.2-.1 1.2-.6c0-1.4-4.6-.2-4.6-3.5c0-2.1 1.9-3 3.7-3c1.2 0 2.4.3 3.3 1.2c0 0-1.7 1.6-1.7 1.6zm13.2-6.6l2.4 0l5.5 12.8l-3.2 0l-1.1-2.7l-4.9 0l-1.1 2.7l-3.1 0l5.5-12.8zm1.1 3.7l-1.5 4l3.1 0l-1.6-4zm7.9.3l2.7 0l0 1.4c0 0 .01.04 0 0c.6-1 1.3-1.6 2.5-1.6c.3 0 .7 0 .9.1c0 0 0 2.5 0 2.5c-.4-.1-.7-.2-1.1-.2c-2.1 0-2.3 1.2-2.3 2.9c-.03.03 0 3.7 0 3.7l-2.7 0l0-8.8zm13.7 2.2l-2.4 0c0 0 0 2.91 0 2.9c0 .9.1 1.6 1.3 1.6c.3 0 .8 0 1.1-.2c0 0 0 2.2 0 2.2c-.6.2-1.3.3-1.9.3c-1.8 0-3.2-.7-3.2-2.7c0 .05 0-4.1 0-4.1l-1.7 0l0-2.2l1.7 0l0-2.6l2.7 0l0 2.6l2.4 0l0 2.2zm6.5.4c-.4-.5-.9-.7-1.6-.7c-.4 0-1 .2-1 .7c0 1.3 4.6.2 4.6 3.5c0 2.2-2.2 2.9-4 2.9c-1.3 0-2.6-.3-3.5-1.2c0 0 1.7-1.8 1.7-1.8c.5.6 1.1.9 1.9.9c.6 0 1.2-.1 1.2-.6c0-1.4-4.6-.2-4.6-3.5c0-2.1 1.9-3 3.7-3c1.2 0 2.4.3 3.3 1.2c0 0-1.7 1.6-1.7 1.6zm13.2-2.8c2.7 0 4.9 1.8 4.9 4.6c0 2.8-2.2 4.6-4.9 4.6c-2.7 0-4.8-1.8-4.8-4.6c0-2.8 2.1-4.6 4.8-4.6zm0 6.8c1.4 0 2.2-.9 2.2-2.2c0-1.3-.8-2.2-2.2-2.2c-1.3 0-2.1.9-2.1 2.2c0 1.3.8 2.2 2.1 2.2zm7.5-4.4l-1.8 0l0-2.2l1.8 0c0 0-.04-1.52 0-1.5c0-1.9.4-3.5 3.4-3.5c.5 0 1.1 0 1.6.1c0 0-.2 2.3-.2 2.3c-.3-.1-.5-.2-.8-.2c-.9 0-1.3.3-1.3 1.4c-.04.05 0 1.4 0 1.4l2 0l0 2.2l-2 0l0 6.6l-2.7 0l0-6.6zm15.5-6.2l2.4 0l5.5 12.8l-3.2 0l-1.1-2.7l-4.9 0l-1.1 2.7l-3.1 0l5.5-12.8zm1.1 3.7l-1.5 4l3.1 0l-1.6-4zm8.4 2.5l-1.8 0l0-2.2l1.8 0c0 0-.02-1.52 0-1.5c0-1.9.5-3.5 3.4-3.5c.5 0 1.1 0 1.6.1c0 0-.1 2.3-.1 2.3c-.3-.1-.6-.2-.9-.2c-.9 0-1.3.3-1.3 1.4c-.02.05 0 1.4 0 1.4l2 0l0 2.2l-2 0l0 6.6l-2.7 0l0-6.6zm5.8-2.2l2.7 0l0 1.4c0 0 .02.04 0 0c.6-1 1.4-1.6 2.5-1.6c.3 0 .7 0 .9.1c0 0 0 2.5 0 2.5c-.3-.1-.7-.2-1.1-.2c-2.1 0-2.3 1.2-2.3 2.9c-.02.03 0 3.7 0 3.7l-2.7 0l0-8.8zm7.3 0l2.7 0l0 8.8l-2.7 0l0-8.8zm1.4-4.3c.8 0 1.5.7 1.5 1.6c0 .8-.7 1.5-1.5 1.5c-.9 0-1.6-.7-1.6-1.5c0-.9.7-1.6 1.6-1.6zm9.1 7.2c-.2-.4-.7-.7-1.3-.7c-1.3 0-2.1.9-2.1 2.2c0 1.3.8 2.2 2.1 2.2c.6 0 1-.3 1.3-.6c0 0 1.8 1.8 1.8 1.8c-.8.9-2.1 1.2-3.1 1.2c-2.7 0-4.8-1.8-4.8-4.6c0-2.8 2.1-4.6 4.8-4.6c1 0 2.3.3 3.1 1.2c0 0-1.8 1.9-1.8 1.9zm8.5 4.8c0 0-.07-.02-.1 0c-.6.9-1.6 1.3-2.7 1.3c-1.7 0-3.2-.9-3.2-2.7c0-3 3.7-3.1 6-3.1c0-.9-.8-1.5-1.8-1.5c-.8 0-1.6.3-2.2 1c0 0-1.4-1.5-1.4-1.5c1-.9 2.4-1.4 3.9-1.4c3.1 0 4 1.6 4 4.5c-.05.03 0 4.5 0 4.5l-2.5 0l0-1.1zm-.7-2.8c-.8 0-2.7.1-2.7 1.3c0 .7.7 1 1.3 1c1.1 0 2.1-.6 2.1-1.7c-.03.02 0-.6 0-.6c0 0-.7.05-.7 0zm15.7 2.8c0 0-.07-.02-.1 0c-.6.9-1.6 1.3-2.7 1.3c-1.7 0-3.2-.9-3.2-2.7c0-3 3.7-3.1 6-3.1c0-.9-.8-1.5-1.8-1.5c-.8 0-1.6.3-2.2 1c0 0-1.4-1.5-1.4-1.5c1-.9 2.4-1.4 3.8-1.4c3.2 0 4 1.6 4 4.5c.05.03 0 4.5 0 4.5l-2.4 0l0-1.1zm-.7-2.8c-.8 0-2.7.1-2.7 1.3c0 .7.7 1 1.3 1c1.1 0 2.1-.6 2.1-1.7c-.04.02 0-.6 0-.6c0 0-.7.05-.7 0zm5.1-4.9l2.6 0l0 1.2c0 0 0 .02 0 0c.4-.7 1.2-1.4 2.6-1.4c2.7 0 3.2 1.8 3.2 4.2c0-.04 0 4.8 0 4.8l-2.7 0c0 0 0-4.3 0-4.3c0-1 0-2.3-1.4-2.3c-1.4 0-1.6 1.1-1.6 2.2c-.02.02 0 4.4 0 4.4l-2.7 0l0-8.8zm19.5 8.8l-2.4 0l0-1.2c0 0-.08.03-.1 0c-.4.7-1.4 1.4-2.7 1.4c-2.6 0-4.3-1.9-4.3-4.5c0-2.5 1.6-4.7 4-4.7c1.2 0 2.2.3 2.8 1.2c.01-.03 0 0 0 0l0-5.8l2.7 0l0 13.6zm-4.6-6.6c-1.4 0-2.2.9-2.2 2.2c0 1.3.8 2.2 2.2 2.2c1.3 0 2.2-.9 2.2-2.2c0-1.3-.9-2.2-2.2-2.2zm18.1 0l-2.4 0c0 0 .01 2.91 0 2.9c0 .9.1 1.6 1.3 1.6c.3 0 .9 0 1.1-.2c0 0 0 2.2 0 2.2c-.6.2-1.3.3-1.9.3c-1.8 0-3.2-.7-3.2-2.7c.01.05 0-4.1 0-4.1l-1.7 0l0-2.2l1.7 0l0-2.6l2.7 0l0 2.6l2.4 0l0 2.2zm4.4-7l0 6c0 0 .02.02 0 0c.3-.7 1.2-1.4 2.5-1.4c2.7 0 3.2 1.8 3.2 4.2c.01-.04 0 4.8 0 4.8l-2.7 0c0 0 .01-4.3 0-4.3c0-1 0-2.3-1.4-2.3c-1.4 0-1.6 1.1-1.6 2.2c-.02.02 0 4.4 0 4.4l-2.7 0l0-13.6l2.7 0zm15.9 12.1c-.9 1.1-2.3 1.7-3.7 1.7c-2.7 0-4.9-1.8-4.9-4.6c0-2.8 2.2-4.6 4.9-4.6c2.5 0 4.1 1.8 4.1 4.6c0 .01 0 .9 0 .9c0 0-6.26-.05-6.3 0c.3 1 1 1.6 2.1 1.6c.9 0 1.4-.4 1.9-1c0 0 1.9 1.4 1.9 1.4zm-2.3-3.9c0-.9-.7-1.6-1.7-1.6c-1.1 0-1.8.8-1.9 1.6c0 0 3.6 0 3.6 0zm14.2-7.4l2.3 0l5.6 12.8l-3.2 0l-1.1-2.7l-4.9 0l-1.1 2.7l-3.1 0l5.5-12.8zm1.1 3.7l-1.6 4l3.1 0l-1.5-4zm7.8.3l2.6 0l0 1.2c0 0 .06.02.1 0c.3-.7 1.2-1.4 2.5-1.4c1.2 0 2.2.5 2.7 1.6c.6-1.1 1.5-1.6 2.8-1.6c2.4 0 3.1 1.7 3.1 3.8c-.02.01 0 5.2 0 5.2l-2.7 0c0 0-.02-5.11 0-5.1c0-.8-.3-1.5-1.2-1.5c-1.2 0-1.6.9-1.6 2c-.04-.05 0 4.6 0 4.6l-2.7 0c0 0-.04-4.65 0-4.6c0-.7 0-2-1.2-2c-1.5 0-1.7 1.1-1.7 2.2c.03.02 0 4.4 0 4.4l-2.7 0l0-8.8zm24 7.3c-.9 1.1-2.3 1.7-3.7 1.7c-2.7 0-4.9-1.8-4.9-4.6c0-2.8 2.2-4.6 4.9-4.6c2.5 0 4.1 1.8 4.1 4.6c0 .01 0 .9 0 .9c0 0-6.27-.05-6.3 0c.3 1 1 1.6 2.1 1.6c.9 0 1.4-.4 1.9-1c0 0 1.9 1.4 1.9 1.4zm-2.3-3.9c0-.9-.7-1.6-1.7-1.6c-1.1 0-1.8.8-1.9 1.6c0 0 3.6 0 3.6 0zm4.4-3.4l2.7 0l0 1.4c0 0 .06.04.1 0c.5-1 1.3-1.6 2.5-1.6c.3 0 .6 0 .9.1c0 0 0 2.5 0 2.5c-.4-.1-.8-.2-1.2-.2c-2 0-2.3 1.2-2.3 2.9c.02.03 0 3.7 0 3.7l-2.7 0l0-8.8zm7.4 0l2.7 0l0 8.8l-2.7 0l0-8.8zm1.3-4.3c.9 0 1.6.7 1.6 1.6c0 .8-.7 1.5-1.6 1.5c-.9 0-1.6-.7-1.6-1.5c0-.9.7-1.6 1.6-1.6zm9.2 7.2c-.3-.4-.8-.7-1.3-.7c-1.4 0-2.2.9-2.2 2.2c0 1.3.8 2.2 2.2 2.2c.5 0 1-.3 1.3-.6c0 0 1.8 1.8 1.8 1.8c-.9.9-2.1 1.2-3.1 1.2c-2.7 0-4.9-1.8-4.9-4.6c0-2.8 2.2-4.6 4.9-4.6c1 0 2.2.3 3.1 1.2c0 0-1.8 1.9-1.8 1.9zm8.4 4.8c0 0-.03-.02 0 0c-.6.9-1.7 1.3-2.8 1.3c-1.6 0-3.1-.9-3.1-2.7c0-3 3.7-3.1 5.9-3.1c0-.9-.8-1.5-1.7-1.5c-.9 0-1.6.3-2.2 1c0 0-1.5-1.5-1.5-1.5c1-.9 2.5-1.4 3.9-1.4c3.1 0 4 1.6 4 4.5c-.01.03 0 4.5 0 4.5l-2.5 0l0-1.1zm-.7-2.8c-.8 0-2.6.1-2.6 1.3c0 .7.7 1 1.3 1c1 0 2-.6 2-1.7c0 .02 0-.6 0-.6c0 0-.66.05-.7 0zm10-2.3c-.4-.5-.9-.7-1.6-.7c-.4 0-1 .2-1 .7c0 1.3 4.6.2 4.6 3.5c0 2.2-2.2 2.9-4 2.9c-1.3 0-2.6-.3-3.5-1.2c0 0 1.7-1.8 1.7-1.8c.5.6 1.1.9 1.9.9c.6 0 1.2-.1 1.2-.6c0-1.4-4.6-.2-4.6-3.5c0-2.1 1.9-3 3.7-3c1.2 0 2.4.3 3.2 1.2c0 0-1.6 1.6-1.6 1.6z" stroke="none" fill="#be870e"/></g></svg>