<svg xmlns="http://www.w3.org/2000/svg" version="1.1" width="718px" height="43.3px" viewBox="0 0 718 43.3"><desc>Each rendering technique reveals different secrets of the boli s interior</desc><defs/><g id="Polygon47280"><path d="m1.4.9l8.5 0l0 2.1l-6.2 0l0 3.1l5.8 0l0 2.1l-5.8 0l0 3.4l6.5 0l0 2.1l-8.8 0l0-12.8zm16.2 11.6c0 0-.03-.01 0 0c-.6 1-1.7 1.4-2.8 1.4c-1.6 0-3.2-.9-3.2-2.6c0-2.8 3.3-3 5.5-3c-.02 0 .5 0 .5 0c0 0 .02-.24 0-.2c0-1.1-.8-1.7-2-1.7c-.9 0-1.7.4-2.3.9c0 0-1.1-1.1-1.1-1.1c1-1 2.3-1.4 3.7-1.4c3.7 0 3.7 2.7 3.7 3.9c-.03.01 0 5 0 5l-2 0l0-1.2zm-.1-2.7c0 0-.45.01-.5 0c-1.1 0-3.2.1-3.2 1.3c0 .8.8 1.2 1.5 1.2c1.5 0 2.2-.8 2.2-2c0 0 0-.5 0-.5zm10.3-2.2c-.5-.5-1.1-.8-1.6-.8c-1.6 0-2.6 1.2-2.6 2.6c0 1.3 1 2.6 2.6 2.6c.6 0 1.2-.3 1.6-.9c0 0 1.5 1.6 1.5 1.6c-.9.9-2.4 1.2-3.1 1.2c-2.7 0-4.7-1.8-4.7-4.5c0-2.8 2-4.6 4.7-4.6c1.1 0 2.3.4 3.1 1.3c0 0-1.5 1.5-1.5 1.5zm4.9-1.4c0 0 .06.05.1 0c.3-.7 1.2-1.4 2.5-1.4c2.3 0 3.1 1.7 3.1 3.4c.05.03 0 5.5 0 5.5l-2.1 0c0 0-.01-4.39 0-4.4c0-.9-.1-2.5-1.6-2.5c-1.4 0-2 1-2 2.2c.02-.04 0 4.7 0 4.7l-2.1 0l0-13.6l2.1 0l0 6.1zm13.5-1.2l2.2 0l0 1.4c0 0 .02.01 0 0c.5-1 1.4-1.6 2.6-1.6c.2 0 .5.1.7.1c0 0 0 2.1 0 2.1c-.3-.1-.7-.1-1-.1c-2 0-2.3 1.7-2.3 2.2c-.02-.05 0 4.6 0 4.6l-2.2 0l0-8.7zm8.4 5.1c.2 1.3 1.1 2.1 2.4 2.1c1 0 1.7-.5 2.3-1.2c0 0 1.5 1.2 1.5 1.2c-1 1.2-2.3 1.7-3.6 1.7c-2.6 0-4.7-1.8-4.7-4.5c0-2.8 2.1-4.6 4.7-4.6c2.4 0 4 1.7 4 4.7c.02.02 0 .6 0 .6c0 0-6.57.02-6.6 0zm4.5-1.6c-.1-1.3-.9-2.1-2.2-2.1c-1.3 0-2.1.9-2.3 2.1c0 0 4.5 0 4.5 0zm4.1-3.5l2.1 0l0 1.4c0 0 .02.03 0 0c.4-.8 1.2-1.6 2.7-1.6c2.3 0 3.1 1.7 3.1 3.4c.02.03 0 5.5 0 5.5l-2.1 0c0 0-.04-4.39 0-4.4c0-.9-.1-2.5-1.6-2.5c-1.4 0-2 1-2 2.2c0-.04 0 4.7 0 4.7l-2.2 0l0-8.7zm17.2 7.4c0 0-.03-.02 0 0c-.7 1-1.8 1.5-3 1.5c-2.7 0-4.3-2-4.3-4.5c0-2.6 1.7-4.6 4.2-4.6c1.6 0 2.5.8 2.9 1.3c.05.04.1 0 .1 0l0-6l2.2 0l0 13.6l-2.1 0l0-1.3zm-2.6-.4c1.6 0 2.6-1.3 2.6-2.6c0-1.4-1-2.6-2.6-2.6c-1.6 0-2.5 1.2-2.5 2.6c0 1.3.9 2.6 2.5 2.6zm8.8-1.9c.2 1.3 1.2 2.1 2.4 2.1c1 0 1.7-.5 2.3-1.2c0 0 1.5 1.2 1.5 1.2c-1 1.2-2.3 1.7-3.6 1.7c-2.6 0-4.7-1.8-4.7-4.5c0-2.8 2.1-4.6 4.7-4.6c2.4 0 4 1.7 4 4.7c.02.02 0 .6 0 .6c0 0-6.56.02-6.6 0zm4.5-1.6c-.1-1.3-.9-2.1-2.2-2.1c-1.3 0-2.1.9-2.3 2.1c0 0 4.5 0 4.5 0zm4.1-3.5l2.2 0l0 1.4c0 0 .04.01 0 0c.5-1 1.5-1.6 2.6-1.6c.3 0 .5.1.8.1c0 0 0 2.1 0 2.1c-.4-.1-.7-.1-1.1-.1c-2 0-2.3 1.7-2.3 2.2c0-.05 0 4.6 0 4.6l-2.2 0l0-8.7zm7.1 0l2.1 0l0 8.7l-2.1 0l0-8.7zm1-4.2c.8 0 1.4.6 1.4 1.3c0 .7-.6 1.3-1.4 1.3c-.8 0-1.3-.6-1.3-1.3c0-.7.5-1.3 1.3-1.3zm3.6 4.2l2.1 0l0 1.4c0 0 .01.03 0 0c.4-.8 1.2-1.6 2.7-1.6c2.3 0 3.1 1.7 3.1 3.4c.01.03 0 5.5 0 5.5l-2.2 0c0 0 .05-4.39 0-4.4c0-.9 0-2.5-1.5-2.5c-1.5 0-2 1-2 2.2c-.02-.04 0 4.7 0 4.7l-2.2 0l0-8.7zm19.2 0c0 0 .05 7.91 0 7.9c0 3.1-1.5 5.1-4.8 5.1c-1.6 0-3.1-.3-4.3-1.4c0 0 1.3-1.8 1.3-1.8c.8.8 1.7 1.3 2.9 1.3c2.1 0 2.8-1.2 2.8-2.9c-.01-.04 0-.7 0-.7c0 0-.05.03-.1 0c-.6.9-1.7 1.3-2.8 1.3c-2.6 0-4.3-2-4.3-4.4c0-2.6 1.6-4.6 4.3-4.6c1.2 0 2.3.5 3 1.5c-.04.04 0 0 0 0l0-1.3l2 0zm-7.1 4.3c0 1.4 1.1 2.5 2.5 2.5c1.6 0 2.6-1.1 2.6-2.5c0-1.5-1-2.5-2.6-2.5c-1.5 0-2.5 1-2.5 2.5zm13.9-2.4l0-1.9l1.8 0l0-2.5l2.2 0l0 2.5l2.3 0l0 1.9l-2.3 0c0 0-.05 3.76 0 3.8c0 .8.2 1.4 1.2 1.4c.3 0 .9-.1 1.1-.3c0 0 0 1.8 0 1.8c-.4.2-1.2.3-1.7.3c-2.3 0-2.8-1-2.8-3.1c-.01.04 0-3.9 0-3.9l-1.8 0zm9.8 3.2c.1 1.3 1.1 2.1 2.3 2.1c1.1 0 1.8-.5 2.3-1.2c0 0 1.5 1.2 1.5 1.2c-1 1.2-2.2 1.7-3.6 1.7c-2.6 0-4.7-1.8-4.7-4.5c0-2.8 2.1-4.6 4.7-4.6c2.4 0 4 1.7 4 4.7c.04.02 0 .6 0 .6c0 0-6.55.02-6.5 0zm4.4-1.6c0-1.3-.9-2.1-2.2-2.1c-1.3 0-2.1.9-2.2 2.1c0 0 4.4 0 4.4 0zm10.1-.9c-.5-.5-1.1-.8-1.7-.8c-1.6 0-2.5 1.2-2.5 2.6c0 1.3.9 2.6 2.5 2.6c.7 0 1.3-.3 1.7-.9c0 0 1.4 1.6 1.4 1.6c-.8.9-2.3 1.2-3.1 1.2c-2.6 0-4.7-1.8-4.7-4.5c0-2.8 2.1-4.6 4.7-4.6c1.1 0 2.3.4 3.2 1.3c0 0-1.5 1.5-1.5 1.5zm4.9-1.4c0 0 .03.05 0 0c.4-.7 1.2-1.4 2.6-1.4c2.3 0 3.1 1.7 3.1 3.4c.01.03 0 5.5 0 5.5l-2.1 0c0 0-.05-4.39 0-4.4c0-.9-.1-2.5-1.6-2.5c-1.5 0-2 1-2 2.2c-.01-.04 0 4.7 0 4.7l-2.2 0l0-13.6l2.2 0l0 6.1zm8.2-1.2l2 0l0 1.4c0 0 .05.03.1 0c.3-.8 1.2-1.6 2.6-1.6c2.3 0 3.1 1.7 3.1 3.4c.05.03 0 5.5 0 5.5l-2.1 0c0 0-.01-4.39 0-4.4c0-.9-.1-2.5-1.6-2.5c-1.4 0-2 1-2 2.2c.02-.04 0 4.7 0 4.7l-2.1 0l0-8.7zm10.3 0l2.2 0l0 8.7l-2.2 0l0-8.7zm1.1-4.2c.8 0 1.4.6 1.4 1.3c0 .7-.6 1.3-1.4 1.3c-.8 0-1.4-.6-1.4-1.3c0-.7.6-1.3 1.4-1.3zm12.5 17l-2.2 0l0-5.2c0 0-.05-.02 0 0c-.5.5-1.4 1.3-3 1.3c-2.4 0-4.2-2-4.2-4.5c0-2.6 1.6-4.6 4.3-4.6c1.2 0 2.3.5 3 1.5c-.02.04 0 0 0 0l0-1.3l2.1 0l0 12.8zm-4.7-5.8c1.6 0 2.6-1.3 2.6-2.6c0-1.4-1-2.6-2.6-2.6c-1.5 0-2.5 1.2-2.5 2.6c0 1.3 1 2.6 2.5 2.6zm15 1.7l-2.1 0l0-1.4c0 0 .01-.01 0 0c-.4.9-1.2 1.6-2.6 1.6c-2.4 0-3.2-1.6-3.2-3.4c.01-.01 0-5.5 0-5.5l2.2 0c0 0-.03 4.41 0 4.4c0 1 0 2.6 1.6 2.6c1.4 0 1.9-1.1 1.9-2.2c.04-.04 0-4.8 0-4.8l2.2 0l0 8.7zm4.2-3.6c.1 1.3 1.1 2.1 2.3 2.1c1.1 0 1.8-.5 2.3-1.2c0 0 1.6 1.2 1.6 1.2c-1 1.2-2.3 1.7-3.7 1.7c-2.6 0-4.7-1.8-4.7-4.5c0-2.8 2.1-4.6 4.7-4.6c2.4 0 4.1 1.7 4.1 4.7c-.04.02 0 .6 0 .6c0 0-6.63.02-6.6 0zm4.4-1.6c0-1.3-.8-2.1-2.2-2.1c-1.3 0-2.1.9-2.2 2.1c0 0 4.4 0 4.4 0zm9.5-3.5l2.2 0l0 1.4c0 0 0 .01 0 0c.5-1 1.4-1.6 2.6-1.6c.2 0 .5.1.7.1c0 0 0 2.1 0 2.1c-.3-.1-.7-.1-1-.1c-2 0-2.3 1.7-2.3 2.2c-.03-.05 0 4.6 0 4.6l-2.2 0l0-8.7zm8.4 5.1c.2 1.3 1.1 2.1 2.3 2.1c1.1 0 1.8-.5 2.4-1.2c0 0 1.5 1.2 1.5 1.2c-1 1.2-2.3 1.7-3.6 1.7c-2.7 0-4.7-1.8-4.7-4.5c0-2.8 2-4.6 4.7-4.6c2.4 0 4 1.7 4 4.7c0 .02 0 .6 0 .6c0 0-6.59.02-6.6 0zm4.4-1.6c0-1.3-.8-2.1-2.2-2.1c-1.2 0-2 .9-2.2 2.1c0 0 4.4 0 4.4 0zm3-3.5l2.4 0l2.3 6.1l0 0l2.4-6.1l2.2 0l-3.4 8.7l-2.3 0l-3.6-8.7zm12.3 5.1c.1 1.3 1.1 2.1 2.3 2.1c1.1 0 1.8-.5 2.3-1.2c0 0 1.6 1.2 1.6 1.2c-1 1.2-2.3 1.7-3.7 1.7c-2.6 0-4.7-1.8-4.7-4.5c0-2.8 2.1-4.6 4.7-4.6c2.4 0 4.1 1.7 4.1 4.7c-.02.02 0 .6 0 .6c0 0-6.61.02-6.6 0zm4.4-1.6c0-1.3-.8-2.1-2.2-2.1c-1.3 0-2.1.9-2.2 2.1c0 0 4.4 0 4.4 0zm9.6 4c0 0-.06-.01-.1 0c-.6 1-1.6 1.4-2.7 1.4c-1.6 0-3.2-.9-3.2-2.6c0-2.8 3.3-3 5.5-3c-.05 0 .5 0 .5 0c0 0-.01-.24 0-.2c0-1.1-.8-1.7-2-1.7c-.9 0-1.7.4-2.3.9c0 0-1.1-1.1-1.1-1.1c.9-1 2.3-1.4 3.6-1.4c3.7 0 3.7 2.7 3.7 3.9c.04.01 0 5 0 5l-1.9 0l0-1.2zm-.1-2.7c0 0-.48.01-.5 0c-1.2 0-3.2.1-3.2 1.3c0 .8.8 1.2 1.5 1.2c1.5 0 2.2-.8 2.2-2c-.03 0 0-.5 0-.5zm4.4-9.7l2.2 0l0 13.6l-2.2 0l0-13.6zm9.2 7.3c-.4-.5-.9-.8-1.6-.8c-.6 0-1.3.2-1.3.9c0 1.5 4.7.3 4.7 3.6c0 2.1-2 2.8-3.8 2.8c-1.3 0-2.5-.3-3.3-1.3c0 0 1.4-1.4 1.4-1.4c.6.6 1.1 1.1 2.1 1.1c.6 0 1.4-.3 1.4-1c0-1.8-4.7-.4-4.7-3.7c0-1.9 1.8-2.8 3.5-2.8c1.2 0 2.4.4 3.1 1.3c0 0-1.5 1.3-1.5 1.3zm15.6 5c0 0-.04-.02 0 0c-.7 1-1.8 1.5-3 1.5c-2.7 0-4.3-2-4.3-4.5c0-2.6 1.7-4.6 4.2-4.6c1.6 0 2.5.8 2.9 1.3c.03.04.1 0 .1 0l0-6l2.1 0l0 13.6l-2 0l0-1.3zm-2.6-.4c1.6 0 2.6-1.3 2.6-2.6c0-1.4-1-2.6-2.6-2.6c-1.6 0-2.5 1.2-2.5 2.6c0 1.3.9 2.6 2.5 2.6zm7.1-7l2.2 0l0 8.7l-2.2 0l0-8.7zm1.1-4.2c.8 0 1.4.6 1.4 1.3c0 .7-.6 1.3-1.4 1.3c-.8 0-1.4-.6-1.4-1.3c0-.7.6-1.3 1.4-1.3zm4.4 6.1l-1.8 0l0-1.9l1.8 0c0 0-.05-1.18 0-1.2c0-2.4.5-3.9 3.2-3.9c.4 0 .9 0 1.3.1c0 0-.1 1.8-.1 1.8c-.3-.1-.6-.1-.9-.1c-1.2 0-1.4.8-1.4 1.8c.01-.03 0 1.5 0 1.5l2 0l0 1.9l-2 0l0 6.8l-2.1 0l0-6.8zm6 0l-1.8 0l0-1.9l1.8 0c0 0-.03-1.18 0-1.2c0-2.4.5-3.9 3.2-3.9c.5 0 .9 0 1.4.1c0 0-.2 1.8-.2 1.8c-.3-.1-.6-.1-.9-.1c-1.2 0-1.4.8-1.4 1.8c.03-.03 0 1.5 0 1.5l2 0l0 1.9l-2 0l0 6.8l-2.1 0l0-6.8zm7.3 3.2c.1 1.3 1.1 2.1 2.3 2.1c1.1 0 1.8-.5 2.3-1.2c0 0 1.5 1.2 1.5 1.2c-1 1.2-2.2 1.7-3.6 1.7c-2.6 0-4.7-1.8-4.7-4.5c0-2.8 2.1-4.6 4.7-4.6c2.4 0 4 1.7 4 4.7c.04.02 0 .6 0 .6c0 0-6.54.02-6.5 0zm4.4-1.6c0-1.3-.9-2.1-2.2-2.1c-1.3 0-2.1.9-2.2 2.1c0 0 4.4 0 4.4 0zm4.2-3.5l2.1 0l0 1.4c0 0 .06.01.1 0c.4-1 1.4-1.6 2.5-1.6c.3 0 .5.1.8.1c0 0 0 2.1 0 2.1c-.4-.1-.7-.1-1.1-.1c-2 0-2.3 1.7-2.3 2.2c.02-.05 0 4.6 0 4.6l-2.1 0l0-8.7zm8.4 5.1c.1 1.3 1.1 2.1 2.3 2.1c1.1 0 1.8-.5 2.3-1.2c0 0 1.6 1.2 1.6 1.2c-1 1.2-2.3 1.7-3.7 1.7c-2.6 0-4.7-1.8-4.7-4.5c0-2.8 2.1-4.6 4.7-4.6c2.4 0 4.1 1.7 4.1 4.7c-.04.02 0 .6 0 .6c0 0-6.63.02-6.6 0zm4.4-1.6c0-1.3-.8-2.1-2.2-2.1c-1.3 0-2.1.9-2.2 2.1c0 0 4.4 0 4.4 0zm4.2-3.5l2 0l0 1.4c0 0 .06.03.1 0c.4-.8 1.2-1.6 2.6-1.6c2.3 0 3.2 1.7 3.2 3.4c-.04.03 0 5.5 0 5.5l-2.2 0c0 0 0-4.39 0-4.4c0-.9-.1-2.5-1.6-2.5c-1.4 0-2 1-2 2.2c.03-.04 0 4.7 0 4.7l-2.1 0l0-8.7zm9.3 1.9l0-1.9l1.8 0l0-2.5l2.1 0l0 2.5l2.4 0l0 1.9l-2.4 0c0 0 .04 3.76 0 3.8c0 .8.3 1.4 1.2 1.4c.4 0 .9-.1 1.2-.3c0 0 0 1.8 0 1.8c-.4.2-1.2.3-1.7.3c-2.3 0-2.8-1-2.8-3.1c-.02.04 0-3.9 0-3.9l-1.8 0zm17.9.5c-.4-.5-.9-.8-1.7-.8c-.5 0-1.2.2-1.2.9c0 1.5 4.7.3 4.7 3.6c0 2.1-2 2.8-3.8 2.8c-1.3 0-2.5-.3-3.3-1.3c0 0 1.4-1.4 1.4-1.4c.6.6 1.1 1.1 2.1 1.1c.6 0 1.4-.3 1.4-1c0-1.8-4.7-.4-4.7-3.7c0-1.9 1.8-2.8 3.5-2.8c1.2 0 2.4.4 3.1 1.3c0 0-1.5 1.3-1.5 1.3zm5.2 2.7c.1 1.3 1.1 2.1 2.3 2.1c1.1 0 1.8-.5 2.3-1.2c0 0 1.5 1.2 1.5 1.2c-1 1.2-2.2 1.7-3.6 1.7c-2.6 0-4.7-1.8-4.7-4.5c0-2.8 2.1-4.6 4.7-4.6c2.4 0 4 1.7 4 4.7c.04.02 0 .6 0 .6c0 0-6.55.02-6.5 0zm4.4-1.6c0-1.3-.9-2.1-2.2-2.1c-1.3 0-2.1.9-2.2 2.1c0 0 4.4 0 4.4 0zm10.1-.9c-.5-.5-1.1-.8-1.7-.8c-1.6 0-2.5 1.2-2.5 2.6c0 1.3.9 2.6 2.5 2.6c.7 0 1.3-.3 1.7-.9c0 0 1.4 1.6 1.4 1.6c-.8.9-2.3 1.2-3.1 1.2c-2.6 0-4.7-1.8-4.7-4.5c0-2.8 2.1-4.6 4.7-4.6c1.1 0 2.3.4 3.2 1.3c0 0-1.5 1.5-1.5 1.5zm2.7-2.6l2.2 0l0 1.4c0 0 .03.01 0 0c.5-1 1.5-1.6 2.6-1.6c.3 0 .5.1.8.1c0 0 0 2.1 0 2.1c-.4-.1-.7-.1-1.1-.1c-2 0-2.3 1.7-2.3 2.2c-.01-.05 0 4.6 0 4.6l-2.2 0l0-8.7zm8.4 5.1c.2 1.3 1.2 2.1 2.4 2.1c1 0 1.7-.5 2.3-1.2c0 0 1.5 1.2 1.5 1.2c-1 1.2-2.3 1.7-3.6 1.7c-2.6 0-4.7-1.8-4.7-4.5c0-2.8 2.1-4.6 4.7-4.6c2.4 0 4 1.7 4 4.7c.03.02 0 .6 0 .6c0 0-6.56.02-6.6 0zm4.5-1.6c0-1.3-.9-2.1-2.2-2.1c-1.3 0-2.1.9-2.3 2.1c0 0 4.5 0 4.5 0zm3.1-1.6l0-1.9l1.8 0l0-2.5l2.2 0l0 2.5l2.4 0l0 1.9l-2.4 0c0 0-.02 3.76 0 3.8c0 .8.2 1.4 1.2 1.4c.4 0 .9-.1 1.2-.3c0 0 0 1.8 0 1.8c-.5.2-1.2.3-1.8.3c-2.2 0-2.8-1-2.8-3.1c.02.04 0-3.9 0-3.9l-1.8 0zm12.7.5c-.5-.5-1-.8-1.7-.8c-.6 0-1.3.2-1.3.9c0 1.5 4.7.3 4.7 3.6c0 2.1-2 2.8-3.8 2.8c-1.3 0-2.4-.3-3.3-1.3c0 0 1.4-1.4 1.4-1.4c.6.6 1.1 1.1 2.1 1.1c.6 0 1.4-.3 1.4-1c0-1.8-4.7-.4-4.7-3.7c0-1.9 1.8-2.8 3.5-2.8c1.2 0 2.4.4 3.1 1.3c0 0-1.4 1.3-1.4 1.3zm12.9-2.6c2.6 0 4.7 1.8 4.7 4.6c0 2.7-2.1 4.5-4.7 4.5c-2.6 0-4.7-1.8-4.7-4.5c0-2.8 2.1-4.6 4.7-4.6zm0 7.2c1.6 0 2.6-1.3 2.6-2.6c0-1.4-1-2.6-2.6-2.6c-1.6 0-2.5 1.2-2.5 2.6c0 1.3.9 2.6 2.5 2.6zm7.5-5.1l-1.8 0l0-1.9l1.8 0c0 0 .02-1.18 0-1.2c0-2.4.6-3.9 3.2-3.9c.5 0 1 0 1.4.1c0 0-.1 1.8-.1 1.8c-.3-.1-.6-.1-.9-.1c-1.2 0-1.4.8-1.4 1.8c-.02-.03 0 1.5 0 1.5l2 0l0 1.9l-2 0l0 6.8l-2.2 0l0-6.8zm9.9 0l0-1.9l1.8 0l0-2.5l2.1 0l0 2.5l2.4 0l0 1.9l-2.4 0c0 0 .04 3.76 0 3.8c0 .8.3 1.4 1.3 1.4c.3 0 .9-.1 1.1-.3c0 0 0 1.8 0 1.8c-.4.2-1.2.3-1.7.3c-2.3 0-2.8-1-2.8-3.1c-.02.04 0-3.9 0-3.9l-1.8 0zm10.2-.7c0 0 .01.05 0 0c.4-.7 1.2-1.4 2.5-1.4c2.4 0 3.2 1.7 3.2 3.4c0 .03 0 5.5 0 5.5l-2.2 0c0 0 .04-4.39 0-4.4c0-.9 0-2.5-1.5-2.5c-1.5 0-2 1-2 2.2c-.03-.04 0 4.7 0 4.7l-2.2 0l0-13.6l2.2 0l0 6.1zm9.9 3.9c.1 1.3 1.1 2.1 2.3 2.1c1.1 0 1.8-.5 2.3-1.2c0 0 1.6 1.2 1.6 1.2c-1 1.2-2.3 1.7-3.7 1.7c-2.6 0-4.7-1.8-4.7-4.5c0-2.8 2.1-4.6 4.7-4.6c2.4 0 4.1 1.7 4.1 4.7c-.04.02 0 .6 0 .6c0 0-6.63.02-6.6 0zm4.4-1.6c0-1.3-.8-2.1-2.2-2.1c-1.3 0-2.1.9-2.2 2.1c0 0 4.4 0 4.4 0zm11.4-8.4l2.2 0l-.9 6c0 0 .08.04.1 0c.5-.5 1.5-1.3 3.1-1.3c2.5 0 3.9 2 3.5 4.6c-.3 2.5-2.2 4.5-4.9 4.5c-1.2 0-2.2-.5-2.7-1.5c-.03-.02-.1 0-.1 0l-.1 1.3l-2.1 0l1.9-13.6zm3.7 6.7c-1.6 0-2.7 1.2-2.9 2.6c-.2 1.3.6 2.6 2.2 2.6c1.6 0 2.7-1.3 2.9-2.6c.2-1.4-.6-2.6-2.2-2.6zm11.3-2c2.6 0 4.4 1.8 4 4.6c-.4 2.7-2.7 4.5-5.3 4.5c-2.6 0-4.5-1.8-4.1-4.5c.4-2.8 2.7-4.6 5.4-4.6zm-1 7.2c1.5 0 2.7-1.3 2.9-2.6c.1-1.4-.6-2.6-2.2-2.6c-1.6 0-2.7 1.2-2.9 2.6c-.2 1.3.6 2.6 2.2 2.6zm8.4-11.9l2.1 0l-1.9 13.6l-2.1 0l1.9-13.6zm4 4.9l2.1 0l-1.2 8.7l-2.2 0l1.3-8.7zm1.6-4.2c.8 0 1.3.6 1.2 1.3c-.1.7-.8 1.3-1.6 1.3c-.7 0-1.2-.6-1.1-1.3c.1-.7.7-1.3 1.5-1.3zm2.8.1l2.2 0l-1.6 4.8l-1.9 0l1.3-4.8zm7.6 6.5c-.4-.5-1-.8-1.7-.8c-.6 0-1.3.2-1.3.9c0 1.5 4.7.3 4.7 3.6c0 2.1-2 2.8-3.7 2.8c-1.4 0-2.5-.3-3.4-1.3c0 0 1.4-1.4 1.4-1.4c.6.6 1.2 1.1 2.1 1.1c.6 0 1.4-.3 1.4-1c0-1.8-4.6-.4-4.6-3.7c0-1.9 1.7-2.8 3.4-2.8c1.2 0 2.4.4 3.1 1.3c0 0-1.4 1.3-1.4 1.3zm8.7-2.4l2.2 0l0 8.7l-2.2 0l0-8.7zm1.1-4.2c.8 0 1.4.6 1.4 1.3c0 .7-.6 1.3-1.4 1.3c-.8 0-1.4-.6-1.4-1.3c0-.7.6-1.3 1.4-1.3zm3.6 4.2l2 0l0 1.4c0 0 .07.03.1 0c.4-.8 1.2-1.6 2.6-1.6c2.3 0 3.2 1.7 3.2 3.4c-.04.03 0 5.5 0 5.5l-2.2 0c0 0 0-4.39 0-4.4c0-.9-.1-2.5-1.6-2.5c-1.4 0-2 1-2 2.2c.04-.04 0 4.7 0 4.7l-2.1 0l0-8.7zm9.3 1.9l0-1.9l1.8 0l0-2.5l2.1 0l0 2.5l2.4 0l0 1.9l-2.4 0c0 0 .05 3.76 0 3.8c0 .8.3 1.4 1.3 1.4c.3 0 .9-.1 1.1-.3c0 0 0 1.8 0 1.8c-.4.2-1.2.3-1.7.3c-2.3 0-2.8-1-2.8-3.1c-.01.04 0-3.9 0-3.9l-1.8 0zm9.7 3.2c.2 1.3 1.2 2.1 2.4 2.1c1 0 1.7-.5 2.3-1.2c0 0 1.5 1.2 1.5 1.2c-1 1.2-2.3 1.7-3.6 1.7c-2.6 0-4.7-1.8-4.7-4.5c0-2.8 2.1-4.6 4.7-4.6c2.4 0 4 1.7 4 4.7c.03.02 0 .6 0 .6c0 0-6.56.02-6.6 0zm4.5-1.6c0-1.3-.9-2.1-2.2-2.1c-1.3 0-2.1.9-2.3 2.1c0 0 4.5 0 4.5 0zm4.1-3.5l2.2 0l0 1.4c0 0 .04.01 0 0c.5-1 1.5-1.6 2.6-1.6c.3 0 .5.1.8.1c0 0 0 2.1 0 2.1c-.4-.1-.7-.1-1.1-.1c-2 0-2.3 1.7-2.3 2.2c0-.05 0 4.6 0 4.6l-2.2 0l0-8.7zm7.1 0l2.1 0l0 8.7l-2.1 0l0-8.7zm1-4.2c.8 0 1.4.6 1.4 1.3c0 .7-.6 1.3-1.4 1.3c-.7 0-1.3-.6-1.3-1.3c0-.7.6-1.3 1.3-1.3zm7.9 4c2.6 0 4.7 1.8 4.7 4.6c0 2.7-2.1 4.5-4.7 4.5c-2.6 0-4.7-1.8-4.7-4.5c0-2.8 2.1-4.6 4.7-4.6zm0 7.2c1.6 0 2.5-1.3 2.5-2.6c0-1.4-.9-2.6-2.5-2.6c-1.6 0-2.5 1.2-2.5 2.6c0 1.3.9 2.6 2.5 2.6zm6.7-7l2.2 0l0 1.4c0 0 0 .01 0 0c.5-1 1.4-1.6 2.6-1.6c.2 0 .5.1.7.1c0 0 0 2.1 0 2.1c-.3-.1-.7-.1-1-.1c-2 0-2.3 1.7-2.3 2.2c-.03-.05 0 4.6 0 4.6l-2.2 0l0-8.7zm6.8 6c.8 0 1.4.6 1.4 1.4c0 .8-.6 1.4-1.4 1.4c-.8 0-1.4-.6-1.4-1.4c0-.8.6-1.4 1.4-1.4z" stroke="none" fill="#be870e"/></g></svg>