<svg xmlns="http://www.w3.org/2000/svg" version="1.1" width="508px" height="40.6px" viewBox="0 0 508 40.6"><desc>Bamana artist, Mali, Boli zoomorphic altar, first half of the 20th century; wood, bark, soil, animal blood; The John</desc><defs/><g id="Polygon46725"><path d="m6 27l-2.5 0l0 6.7l-.9 0l0-6.7l-2.5 0l0-.9l5.9 0l0 .9zm.9-1.4l.9 0l0 3.8c0 0-.01-.01 0 0c.2-.4.8-.8 1.6-.8c1.3 0 1.9.8 1.9 2c0 .01 0 3.1 0 3.1l-.8 0c0 0-.03-3 0-3c0-.8-.4-1.4-1.2-1.4c-1.1 0-1.5.8-1.5 2c-.03-.04 0 2.4 0 2.4l-.9 0l0-8.1zm10.5 7.2c-.6.8-1.3 1-2.3 1c-1.5 0-2.5-1.1-2.5-2.6c0-1.6 1.1-2.6 2.6-2.6c1.4 0 2.3.9 2.3 2.6c.04-.01 0 .3 0 .3c0 0-4.01-.04-4 0c.1.8.7 1.6 1.6 1.6c.7 0 1.2-.3 1.6-.8c0 0 .7.5.7.5zm-.8-2c0-.9-.5-1.5-1.5-1.5c-.9 0-1.5.6-1.6 1.5c0 0 3.1 0 3.1 0zm8.6.9c0 1.1-.5 2.2-2.1 2.2c-1.1 0-1.9-.6-2.1-1.6c0 0 .9-.2.9-.2c.2.6.5 1 1.2 1c1 0 1.2-.8 1.2-1.7c.03.04 0-5.3 0-5.3l.9 0c0 0 .03 5.65 0 5.6zm4.1-3.1c1.6 0 2.7 1 2.7 2.6c0 1.6-1.1 2.6-2.7 2.6c-1.5 0-2.6-1-2.6-2.6c0-1.6 1.1-2.6 2.6-2.6zm0 4.5c1.1 0 1.8-.9 1.8-1.9c0-1-.7-1.9-1.8-1.9c-1 0-1.7.9-1.7 1.9c0 1 .7 1.9 1.7 1.9zm4-7.5l.9 0l0 3.8c0 0-.03-.01 0 0c.2-.4.8-.8 1.6-.8c1.3 0 1.9.8 1.9 2c-.02.01 0 3.1 0 3.1l-.8 0c0 0-.05-3 0-3c0-.8-.4-1.4-1.2-1.4c-1.1 0-1.5.8-1.5 2c-.05-.04 0 2.4 0 2.4l-.9 0l0-8.1zm6 4.3c0-.5-.1-.9-.1-1.2c0 0 .8 0 .8 0c0 .3 0 .5 0 .8c0 0 .1 0 .1 0c.2-.5.8-.9 1.6-.9c1.3 0 1.9.8 1.9 2c.03.01 0 3.1 0 3.1l-.8 0c0 0 0-3 0-3c0-.8-.4-1.4-1.1-1.4c-1.1 0-1.6.8-1.6 2c0-.04 0 2.4 0 2.4l-.8 0c0 0-.03-3.82 0-3.8zm9-3.8c0 0 1.98.03 2 0c1.4 0 3 .2 3 2.1c0 1.1-.7 1.8-1.9 2c0 .01 2.2 3.5 2.2 3.5l-1.1 0l-2.1-3.4l-1.2 0l0 3.4l-.9 0l0-7.6zm.9 3.4c0 0 .84-.03.8 0c1 0 2.3 0 2.3-1.3c0-1.1-.9-1.2-1.8-1.2c0-.04-1.3 0-1.3 0l0 2.5zm6.9 3.6c0 .4-.3.7-.7.7c-.3 0-.6-.3-.6-.7c0-.3.3-.6.6-.6c.4 0 .7.3.7.6zm3.7-7l1 0l2.3 6.3l.1 0l2.4-6.3l.9 0l-2.9 7.6l-.9 0l-2.9-7.6zm6.8 3.2c.5-.5 1.2-.7 2-.7c1.4 0 2.1.7 2.1 2.1c0 0 0 2.1 0 2.1c0 .3 0 .6 0 .9c0 0-.8 0-.8 0c0-.2 0-.5 0-.7c0 0 0 0 0 0c-.4.5-.9.8-1.7.8c-1 0-1.9-.5-1.9-1.5c0-1.6 2-1.7 3.2-1.7c0-.01.3 0 .3 0c0 0 .02-.16 0-.2c0-.7-.4-1.1-1.2-1.1c-.6 0-1.1.2-1.5.6c0 0-.5-.6-.5-.6zm2.4 2c-1.1 0-1.8.3-1.8 1c0 .6.5.8 1.1.8c1 0 1.5-.7 1.5-1.5c.02.02 0-.3 0-.3c0 0-.82-.01-.8 0zm3.2-1.4c0-.5-.1-.9-.1-1.2c0 0 .8 0 .8 0c0 .3.1.5.1.8c0 0 0 0 0 0c.2-.5.8-.9 1.6-.9c1.4 0 1.9.8 1.9 2c.05.01 0 3.1 0 3.1l-.8 0c0 0 .01-3 0-3c0-.8-.3-1.4-1.1-1.4c-1.1 0-1.6.8-1.6 2c.02-.04 0 2.4 0 2.4l-.8 0c0 0-.02-3.82 0-3.8zm8.9-3.8c0 0 2.93.03 2.9 0c1.5 0 3.7 1 3.7 3.8c0 2.8-2.2 3.8-3.7 3.8c.03 0-2.9 0-2.9 0l0-7.6zm.9 6.8c0 0 1.73-.03 1.7 0c1.8 0 3.1-.9 3.1-3c0-2.1-1.3-2.9-3.1-2.9c.03-.04-1.7 0-1.7 0l0 5.9zm11.5-.1c-.6.8-1.3 1-2.2 1c-1.6 0-2.6-1.1-2.6-2.6c0-1.6 1.1-2.6 2.6-2.6c1.4 0 2.4.9 2.4 2.6c-.01-.01 0 .3 0 .3c0 0-4.06-.04-4.1 0c.1.8.8 1.6 1.7 1.6c.7 0 1.2-.3 1.6-.8c0 0 .6.5.6.5zm-.7-2c0-.9-.6-1.5-1.5-1.5c-.9 0-1.5.6-1.7 1.5c0 0 3.2 0 3.2 0zm2.2-.9c0-.5-.1-.9-.1-1.2c0 0 .8 0 .8 0c0 .3.1.5.1.8c0 0 0 0 0 0c.2-.5.8-.9 1.6-.9c.2 0 .3 0 .4 0c0 0-.1.9-.1.9c-.1-.1-.3-.1-.4-.1c-1 0-1.5.7-1.5 1.9c.02-.04 0 2.4 0 2.4l-.8 0c0 0-.02-3.82 0-3.8zm3.8-4.3l.9 0l0 8.1l-.9 0l0-8.1zm2.6 3.1l.8 0l0 5l-.8 0l0-5zm.4-2.6c.4 0 .6.3.6.6c0 .4-.2.6-.6.6c-.3 0-.6-.2-.6-.6c0-.3.3-.6.6-.6zm2 2.6l.9 0l0 .7c0 0 0 .02 0 0c.5-.5 1.1-.8 1.8-.8c1.6 0 2.6 1.1 2.6 2.6c0 1.5-1.1 2.6-2.5 2.6c-.9 0-1.6-.4-1.9-1c0 .02 0 0 0 0l0 3.3l-.9 0l0-7.4zm2.7 4.4c1 0 1.7-.9 1.7-1.9c0-1-.7-1.9-1.7-1.9c-1.1 0-1.8.9-1.8 1.9c0 1 .7 1.9 1.8 1.9zm7-7l4.7 0l0 .9l-3.8 0l0 2.5l3.6 0l0 .8l-3.6 0l0 3.4l-.9 0l0-7.6zm10.2 6.4c0 .5.1.9.1 1.2c0 0-.8 0-.8 0c0-.3-.1-.5-.1-.8c0 0 0 0 0 0c-.2.5-.8.9-1.6.9c-1.4 0-2-.8-2-2c.05-.01 0-3.1 0-3.1l.9 0c0 0-.02 3 0 3c0 .8.3 1.4 1.1 1.4c1.1 0 1.6-.8 1.6-2c-.02.04 0-2.4 0-2.4l.8 0c0 0 .01 3.82 0 3.8zm1.6-2.6c0-.5 0-.9 0-1.2c0 0 .7 0 .7 0c0 .3.1.5.1.8c0 0 0 0 0 0c.2-.5.8-.9 1.7-.9c1.3 0 1.9.8 1.9 2c-.04.01 0 3.1 0 3.1l-.9 0c0 0 .03-3 0-3c0-.8-.3-1.4-1.1-1.4c-1.1 0-1.6.8-1.6 2c.03-.04 0 2.4 0 2.4l-.8 0c0 0 0-3.82 0-3.8zm10.1 2.9c0 0-.01.02 0 0c-.3.6-1 1-1.9 1c-1.4 0-2.5-1.1-2.5-2.6c0-1.5 1-2.6 2.6-2.6c.7 0 1.3.3 1.8.8c-.01.02 0 0 0 0l0-3.8l.8 0l0 8.1l-.8 0l0-.9zm-1.8-3.5c-1 0-1.7.9-1.7 1.9c0 1 .7 1.9 1.7 1.9c1.1 0 1.8-.9 1.8-1.9c0-1-.7-1.9-1.8-1.9zm4.8 5.9l-.9 0l.8-2.6l.9 0l-.8 2.6zm5.1-2.5c0 0 2.83-2.81 2.8-2.8c.8-.7 1.1-1.1 1.1-1.8c0-.8-.6-1.3-1.4-1.3c-.7 0-1.3.5-1.4 1.2c0 0-1-.1-1-.1c.2-1.2 1.2-1.9 2.4-1.9c1.2 0 2.3.7 2.3 2.1c0 1.2-.7 1.8-1.5 2.6c.03-.05-2.3 2.1-2.3 2.1l0 .1l3.9 0l0 .8l-4.9 0l0-1zm8.4-6.7c2.1 0 2.5 2.2 2.5 3.9c0 1.7-.4 3.9-2.5 3.9c-2.1 0-2.6-2.2-2.6-3.9c0-1.7.5-3.9 2.6-3.9zm0 7.1c1.5 0 1.6-2.1 1.6-3.2c0-1.1-.1-3.1-1.6-3.1c-1.5 0-1.7 2-1.7 3.1c0 1.1.2 3.2 1.7 3.2zm6.8.6l-.9 0l0-6.4l0 0l-1.4 1.1l-.5-.6l2-1.7l.8 0l0 7.6zm2.6-1c0 0 2.88-2.81 2.9-2.8c.7-.7 1.1-1.1 1.1-1.8c0-.8-.7-1.3-1.4-1.3c-.8 0-1.3.5-1.5 1.2c0 0-.9-.1-.9-.1c.2-1.2 1.1-1.9 2.3-1.9c1.3 0 2.3.7 2.3 2.1c0 1.2-.7 1.8-1.4 2.6c-.03-.05-2.4 2.1-2.4 2.1l0 .1l3.9 0l0 .8l-4.9 0l0-1zm7.6.4c0 .4-.3.7-.7.7c-.3 0-.6-.3-.6-.7c0-.3.3-.6.6-.6c.4 0 .7.3.7.6zm3-3.8c0 0 .02.01 0 0c.3-.2.7-.2 1-.2c1.3 0 2.3.9 2.3 2.4c0 1.4-1.1 2.3-2.5 2.3c-1.4 0-2.5-.9-2.5-2.3c0-.9.3-1.5.7-2.2c-.03.03 2-3.2 2-3.2l1 0l-2 3.2zm-.9 2.2c0 .9.8 1.6 1.7 1.6c.9 0 1.6-.7 1.6-1.6c0-1-.7-1.6-1.6-1.6c-.9 0-1.7.6-1.7 1.6zm9.7-4.5l-3.1 0c0 0 .01 2.01 0 2c.3-.1.7-.2 1-.2c1.4 0 2.4 1.1 2.4 2.5c0 1.5-1.1 2.5-2.6 2.5c-1.1 0-1.8-.5-2.2-1.3c0 0 .9-.4.9-.4c.2.6.7 1 1.4 1c.9 0 1.6-.7 1.6-1.8c0-1.1-.8-1.7-1.9-1.7c-.5 0-1.1.2-1.5.5c-.01-.04.1-4 .1-4l3.9 0l0 .9z" stroke="none" fill="#fff"/></g><g id="Polygon46724"><path d="m.9 12.1c0 0 2.35.03 2.4 0c1.2 0 2.5.5 2.5 1.9c0 .9-.5 1.5-1.4 1.7c0 0 0 0 0 0c1 .1 1.8.9 1.8 1.9c0 1.7-1.6 2.1-3 2.1c0 0-2.3 0-2.3 0l0-7.6zm.9 3.2c0 0 1.28.04 1.3 0c.8 0 1.7-.1 1.7-1.2c0-.9-.8-1.1-1.6-1.1c-.02-.04-1.4 0-1.4 0l0 2.3zm0 3.6c0 0 1.56-.03 1.6 0c.8 0 1.8-.4 1.8-1.3c0-1.1-.9-1.4-1.8-1.4c-.02-.03-1.6 0-1.6 0l0 2.7zm5.7-3.6c.5-.5 1.2-.7 2-.7c1.4 0 2.1.7 2.1 2.1c0 0 0 2.1 0 2.1c0 .3 0 .6 0 .9c0 0-.8 0-.8 0c0-.2 0-.5 0-.7c0 0 0 0 0 0c-.4.5-.9.8-1.7.8c-1 0-1.9-.5-1.9-1.5c0-1.6 2-1.7 3.2-1.7c0-.01.3 0 .3 0c0 0 .02-.16 0-.2c0-.7-.4-1.1-1.2-1.1c-.6 0-1.1.2-1.5.6c0 0-.5-.6-.5-.6zm2.4 2c-1.1 0-1.8.3-1.8 1c0 .6.5.8 1.1.8c1 0 1.5-.7 1.5-1.5c.02.02 0-.3 0-.3c0 0-.81-.01-.8 0zm3.2-1.4c0-.5-.1-.9-.1-1.2c0 0 .8 0 .8 0c0 .3.1.5.1.8c0 0 0 0 0 0c.2-.5.8-.9 1.6-.9c1.1 0 1.5.6 1.6.9c.4-.6.9-.9 1.6-.9c1.4 0 1.9.8 1.9 2.1c.02-.04 0 3 0 3l-.8 0c0 0-.02-2.99 0-3c0-.7-.3-1.4-1.2-1.4c-.7 0-1.3.6-1.3 1.5c-.03.01 0 2.9 0 2.9l-.9 0c0 0 .04-2.83 0-2.8c0-1.1-.2-1.6-.9-1.6c-1.1 0-1.6.8-1.6 2c.02-.04 0 2.4 0 2.4l-.8 0c0 0-.01-3.82 0-3.8zm9-.6c.6-.5 1.3-.7 2-.7c1.5 0 2.1.7 2.1 2.1c0 0 0 2.1 0 2.1c0 .3.1.6.1.9c0 0-.8 0-.8 0c-.1-.2-.1-.5-.1-.7c0 0 0 0 0 0c-.3.5-.9.8-1.6.8c-1 0-1.9-.5-1.9-1.5c0-1.6 1.9-1.7 3.2-1.7c-.03-.01.3 0 .3 0c0 0-.01-.16 0-.2c0-.7-.5-1.1-1.3-1.1c-.5 0-1 .2-1.4.6c0 0-.6-.6-.6-.6zm2.5 2c-1.1 0-1.8.3-1.8 1c0 .6.5.8 1.1.8c1 0 1.5-.7 1.5-1.5c-.01.02 0-.3 0-.3c0 0-.84-.01-.8 0zm3.2-1.4c0-.5-.1-.9-.1-1.2c0 0 .8 0 .8 0c0 .3 0 .5 0 .8c0 0 0 0 0 0c.3-.5.9-.9 1.7-.9c1.3 0 1.9.8 1.9 2c.02.01 0 3.1 0 3.1l-.8 0c0 0-.01-3 0-3c0-.8-.4-1.4-1.2-1.4c-1 0-1.5.8-1.5 2c-.01-.04 0 2.4 0 2.4l-.8 0c0 0-.04-3.82 0-3.8zm5.8-.6c.6-.5 1.3-.7 2-.7c1.5 0 2.1.7 2.1 2.1c0 0 0 2.1 0 2.1c0 .3.1.6.1.9c0 0-.8 0-.8 0c-.1-.2-.1-.5-.1-.7c0 0 0 0 0 0c-.3.5-.9.8-1.6.8c-1 0-1.9-.5-1.9-1.5c0-1.6 1.9-1.7 3.2-1.7c-.03-.01.3 0 .3 0c0 0-.01-.16 0-.2c0-.7-.5-1.1-1.2-1.1c-.6 0-1.1.2-1.5.6c0 0-.6-.6-.6-.6zm2.5 2c-1.1 0-1.8.3-1.8 1c0 .6.5.8 1.1.8c1 0 1.5-.7 1.5-1.5c-.01.02 0-.3 0-.3c0 0-.84-.01-.8 0zm6.1-2c.5-.5 1.2-.7 2-.7c1.4 0 2.1.7 2.1 2.1c0 0 0 2.1 0 2.1c0 .3 0 .6 0 .9c0 0-.8 0-.8 0c0-.2 0-.5 0-.7c0 0 0 0 0 0c-.4.5-.9.8-1.7.8c-1 0-1.9-.5-1.9-1.5c0-1.6 2-1.7 3.2-1.7c0-.01.3 0 .3 0c0 0 .02-.16 0-.2c0-.7-.4-1.1-1.2-1.1c-.6 0-1.1.2-1.5.6c0 0-.5-.6-.5-.6zm2.4 2c-1.1 0-1.8.3-1.8 1c0 .6.5.8 1.1.8c1 0 1.5-.7 1.5-1.5c.02.02 0-.3 0-.3c0 0-.81-.01-.8 0zm3.2-1.4c0-.5-.1-.9-.1-1.2c0 0 .8 0 .8 0c0 .3.1.5.1.8c0 0 0 0 0 0c.2-.5.8-.9 1.6-.9c.2 0 .3 0 .4 0c0 0-.1.9-.1.9c-.1-.1-.3-.1-.4-.1c-1 0-1.5.7-1.5 1.9c.02-.04 0 2.4 0 2.4l-.8 0c0 0-.01-3.82 0-3.8zm6.5-.5l-1.5 0c0 0 .01 2.51 0 2.5c0 .6 0 1.2.8 1.2c.2 0 .5-.1.7-.2c0 0 0 .7 0 .7c-.3.2-.6.2-.9.2c-1.2 0-1.4-.6-1.4-1.6c-.02-.05 0-2.8 0-2.8l-1.1 0l0-.7l1.1 0l0-1.4l.8 0l0 1.4l1.5 0l0 .7zm1.1-.7l.8 0l0 5l-.8 0l0-5zm.4-2.6c.4 0 .6.3.6.6c0 .4-.2.6-.6.6c-.3 0-.6-.2-.6-.6c0-.3.3-.6.6-.6zm2.2 6.3c.3.4.7.7 1.3.7c.5 0 1.1-.3 1.1-.8c0-.5-.6-.7-1.1-.8c-.9-.2-1.8-.4-1.8-1.5c0-.9 1-1.4 1.9-1.4c.7 0 1.4.2 1.7.9c0 0-.7.4-.7.4c-.2-.3-.5-.6-1-.6c-.5 0-1 .3-1 .7c0 .4.6.6 1.2.8c.9.1 1.7.5 1.7 1.5c0 1.1-1 1.5-2 1.5c-.9 0-1.5-.2-2-.9c0 0 .7-.5.7-.5zm7.2-3l-1.5 0c0 0 .01 2.51 0 2.5c0 .6 0 1.2.8 1.2c.2 0 .5-.1.7-.2c0 0 0 .7 0 .7c-.3.2-.6.2-.9.2c-1.2 0-1.4-.6-1.4-1.6c-.03-.05 0-2.8 0-2.8l-1.1 0l0-.7l1.1 0l0-1.4l.8 0l0 1.4l1.5 0l0 .7zm1.6 5.8l-.8 0l.7-2.6l1 0l-.9 2.6zm5.5-9.1l1.3 0l2.6 6l0 0l2.6-6l1.3 0l0 7.6l-.9 0l0-6.4l0 0l-2.7 6.4l-.6 0l-2.7-6.4l0 0l0 6.4l-.9 0l0-7.6zm9.5 3.2c.5-.5 1.3-.7 2-.7c1.5 0 2.1.7 2.1 2.1c0 0 0 2.1 0 2.1c0 .3 0 .6.1.9c0 0-.8 0-.8 0c-.1-.2-.1-.5-.1-.7c0 0 0 0 0 0c-.3.5-.9.8-1.7.8c-1 0-1.8-.5-1.8-1.5c0-1.6 1.9-1.7 3.1-1.7c.03-.01.4 0 .4 0c0 0-.05-.16 0-.2c0-.7-.5-1.1-1.3-1.1c-.5 0-1.1.2-1.5.6c0 0-.5-.6-.5-.6zm2.4 2c-1 0-1.7.3-1.7 1c0 .6.4.8 1.1.8c.9 0 1.4-.7 1.5-1.5c-.05.02 0-.3 0-.3c0 0-.88-.01-.9 0zm3.3-5.7l.8 0l0 8.1l-.8 0l0-8.1zm2.6 3.1l.8 0l0 5l-.8 0l0-5zm.4-2.6c.3 0 .6.3.6.6c0 .4-.3.6-.6.6c-.4 0-.6-.2-.6-.6c0-.3.2-.6.6-.6zm2.6 9.1l-.8 0l.7-2.6l1 0l-.9 2.6zm6.6-9.1c0 0 2.32.03 2.3 0c.3 0 .6.1.9.1c.3.1.6.2.8.3c.2.2.4.4.5.6c.1.2.1.5.1.9c-.1.4-.3.8-.5 1.1c-.3.3-.7.5-1.1.6c0 0 0 0 0 0c.3 0 .5.1.7.2c.2.1.3.2.4.4c.2.2.3.4.3.6c.1.2.1.4.1.7c-.1.4-.2.8-.5 1c-.2.3-.4.5-.7.7c-.3.1-.7.2-1 .3c-.4.1-.7.1-1.1.1c.01 0-2.2 0-2.2 0l1-7.6zm.5 3.2c0 0 1.2.04 1.2 0c.2 0 .4 0 .6 0c.2 0 .4-.1.6-.2c.2-.1.3-.2.5-.4c.1-.1.2-.3.2-.6c0-.2 0-.4-.1-.6c0-.1-.1-.2-.3-.3c-.1-.1-.3-.2-.5-.2c-.2 0-.4 0-.6 0c.03-.04-1.3 0-1.3 0l-.3 2.3zm-.5 3.6c0 0 1.48-.03 1.5 0c.2 0 .4-.1.6-.1c.3 0 .5-.1.7-.2c.2-.1.3-.3.4-.4c.2-.2.3-.4.3-.6c0-.3 0-.5-.1-.7c0-.2-.2-.3-.3-.4c-.2-.1-.3-.2-.6-.3c-.2 0-.4 0-.6 0c-.02-.03-1.6 0-1.6 0l-.3 2.7zm5.6-1.7c.1-.4.2-.7.4-1.1c.1-.3.4-.6.6-.8c.3-.2.6-.4 1-.5c.3-.2.7-.2 1-.2c.4 0 .8 0 1.1.2c.3.1.6.3.8.5c.2.2.3.5.4.8c.1.4.1.7 0 1.1c0 .4-.1.7-.3 1.1c-.2.3-.4.6-.7.8c-.2.2-.5.4-.9.5c-.3.2-.7.2-1.1.2c-.4 0-.7 0-1-.2c-.3-.1-.6-.3-.8-.5c-.2-.2-.4-.5-.4-.8c-.1-.4-.2-.7-.1-1.1zm.9 0c0 .3 0 .5 0 .7c.1.3.2.5.3.6c.1.2.3.3.5.4c.2.1.4.2.7.2c.3 0 .5-.1.8-.2c.2-.1.4-.2.6-.4c.2-.1.3-.3.4-.6c.1-.2.2-.4.2-.7c.1-.3.1-.5 0-.7c0-.3-.1-.5-.2-.6c-.2-.2-.3-.3-.5-.4c-.3-.1-.5-.2-.8-.2c-.2 0-.5.1-.7.2c-.2.1-.5.2-.6.4c-.2.1-.4.3-.5.6c-.1.2-.2.4-.2.7zm6.6-5.6l.8 0l-1.1 8.1l-.8 0l1.1-8.1zm2.1 3.1l.9 0l-.7 5l-.8 0l.6-5zm.1-2c.1-.1.1-.3.3-.4c.1-.1.3-.2.4-.2c.2 0 .3.1.4.2c.1.1.2.3.2.4c-.1.2-.2.4-.3.5c-.1.1-.3.1-.4.1c-.2 0-.4 0-.5-.1c-.1-.1-.1-.3-.1-.5zm4.3 6.4l2.9-3.7l-2.8 0l0-.7l3.9 0l0 .6l-3 3.7l3.1 0l0 .7l-4.1 0l0-.6zm7.6-4.5c1.5 0 2.6 1 2.6 2.6c0 1.6-1.1 2.6-2.6 2.6c-1.6 0-2.7-1-2.7-2.6c0-1.6 1.1-2.6 2.7-2.6zm0 4.5c1 0 1.7-.9 1.7-1.9c0-1-.7-1.9-1.7-1.9c-1.1 0-1.8.9-1.8 1.9c0 1 .7 1.9 1.8 1.9zm6.3-4.5c1.6 0 2.7 1 2.7 2.6c0 1.6-1.1 2.6-2.7 2.6c-1.5 0-2.7-1-2.7-2.6c0-1.6 1.2-2.6 2.7-2.6zm0 4.5c1.1 0 1.8-.9 1.8-1.9c0-1-.7-1.9-1.8-1.9c-1.1 0-1.8.9-1.8 1.9c0 1 .7 1.9 1.8 1.9zm4-3.2c0-.5-.1-.9-.1-1.2c0 0 .8 0 .8 0c0 .3.1.5.1.8c0 0 0 0 0 0c.2-.5.8-.9 1.6-.9c1.1 0 1.5.6 1.6.9c.4-.6.9-.9 1.6-.9c1.4 0 1.9.8 1.9 2.1c.01-.04 0 3 0 3l-.8 0c0 0-.02-2.99 0-3c0-.7-.3-1.4-1.2-1.4c-.7 0-1.3.6-1.3 1.5c-.03.01 0 2.9 0 2.9l-.9 0c0 0 .03-2.83 0-2.8c0-1.1-.2-1.6-.9-1.6c-1.1 0-1.6.8-1.6 2c.02-.04 0 2.4 0 2.4l-.8 0c0 0-.02-3.82 0-3.8zm11.5-1.3c1.5 0 2.7 1 2.7 2.6c0 1.6-1.2 2.6-2.7 2.6c-1.6 0-2.7-1-2.7-2.6c0-1.6 1.1-2.6 2.7-2.6zm0 4.5c1.1 0 1.8-.9 1.8-1.9c0-1-.7-1.9-1.8-1.9c-1.1 0-1.8.9-1.8 1.9c0 1 .7 1.9 1.8 1.9zm4-3.2c0-.5-.1-.9-.1-1.2c0 0 .8 0 .8 0c0 .3 0 .5 0 .8c0 0 0 0 0 0c.3-.5.9-.9 1.7-.9c.1 0 .2 0 .4 0c0 0-.1.9-.1.9c-.1-.1-.3-.1-.4-.1c-1.1 0-1.5.7-1.5 1.9c-.01-.04 0 2.4 0 2.4l-.8 0c0 0-.04-3.82 0-3.8zm3.7-1.2l.8 0l0 .7c0 0 .03.02 0 0c.5-.5 1.1-.8 1.8-.8c1.6 0 2.7 1.1 2.7 2.6c0 1.5-1.1 2.6-2.5 2.6c-.9 0-1.7-.4-2-1c.03.02 0 0 0 0l0 3.3l-.8 0l0-7.4zm2.6 4.4c1.1 0 1.8-.9 1.8-1.9c0-1-.7-1.9-1.8-1.9c-1.1 0-1.8.9-1.8 1.9c0 1 .7 1.9 1.8 1.9zm4-7.5l.8 0l0 3.8c0 0 .01-.01 0 0c.2-.4.8-.8 1.6-.8c1.3 0 1.9.8 1.9 2c.02.01 0 3.1 0 3.1l-.8 0c0 0-.01-3 0-3c0-.8-.4-1.4-1.2-1.4c-1 0-1.5.8-1.5 2c-.01-.04 0 2.4 0 2.4l-.8 0l0-8.1zm6 3.1l.8 0l0 5l-.8 0l0-5zm.4-2.6c.3 0 .6.3.6.6c0 .4-.2.6-.6.6c-.4 0-.6-.2-.6-.6c0-.3.3-.6.6-.6zm5.6 3.8c-.3-.4-.7-.6-1.2-.6c-1.1 0-1.7.9-1.7 1.9c0 1 .7 1.9 1.7 1.9c.5 0 .9-.2 1.2-.7c0 0 .7.6.7.6c-.5.6-1.2.8-1.9.8c-1.6 0-2.6-1.1-2.6-2.6c0-1.5 1-2.6 2.6-2.6c.7 0 1.4.2 1.9.8c0 0-.7.5-.7.5zm4.5-.6c.6-.5 1.3-.7 2-.7c1.5 0 2.1.7 2.1 2.1c0 0 0 2.1 0 2.1c0 .3.1.6.1.9c0 0-.8 0-.8 0c0-.2 0-.5 0-.7c0 0-.1 0-.1 0c-.3.5-.9.8-1.6.8c-1 0-1.9-.5-1.9-1.5c0-1.6 1.9-1.7 3.2-1.7c-.02-.01.3 0 .3 0c0 0 0-.16 0-.2c0-.7-.5-1.1-1.2-1.1c-.6 0-1.1.2-1.5.6c0 0-.6-.6-.6-.6zm2.5 2c-1.1 0-1.8.3-1.8 1c0 .6.5.8 1.1.8c1 0 1.5-.7 1.5-1.5c0 .02 0-.3 0-.3c0 0-.84-.01-.8 0zm3.2-5.7l.9 0l0 8.1l-.9 0l0-8.1zm5.3 3.8l-1.5 0c0 0-.01 2.51 0 2.5c0 .6 0 1.2.7 1.2c.3 0 .6-.1.8-.2c0 0 0 .7 0 .7c-.3.2-.7.2-1 .2c-1.2 0-1.3-.6-1.3-1.6c-.04-.05 0-2.8 0-2.8l-1.1 0l0-.7l1.1 0l0-1.4l.8 0l0 1.4l1.5 0l0 .7zm.9-.1c.5-.5 1.3-.7 2-.7c1.5 0 2.1.7 2.1 2.1c0 0 0 2.1 0 2.1c0 .3 0 .6.1.9c0 0-.8 0-.8 0c-.1-.2-.1-.5-.1-.7c0 0 0 0 0 0c-.3.5-.9.8-1.6.8c-1 0-1.9-.5-1.9-1.5c0-1.6 1.9-1.7 3.2-1.7c-.04-.01.3 0 .3 0c0 0-.02-.16 0-.2c0-.7-.5-1.1-1.3-1.1c-.5 0-1 .2-1.4.6c0 0-.6-.6-.6-.6zm2.4 2c-1 0-1.7.3-1.7 1c0 .6.5.8 1.1.8c1 0 1.5-.7 1.5-1.5c-.02.02 0-.3 0-.3c0 0-.85-.01-.9 0zm3.2-1.4c0-.5 0-.9 0-1.2c0 0 .8 0 .8 0c0 .3 0 .5 0 .8c0 0 0 0 0 0c.3-.5.9-.9 1.7-.9c.1 0 .2 0 .4 0c0 0-.1.9-.1.9c-.1-.1-.3-.1-.5-.1c-1 0-1.4.7-1.4 1.9c-.02-.04 0 2.4 0 2.4l-.9 0c0 0 .05-3.82 0-3.8zm3.4 5.3l-.8 0l.7-2.6l1 0l-.9 2.6zm7.9-5.8l-1.3 0l0 4.3l-.8 0l0-4.3l-1.1 0l0-.7l1.1 0c0 0 .01-1.13 0-1.1c0-1.2.4-2.1 1.8-2.1c.2 0 .5 0 .6.1c0 0-.1.8-.1.8c-.2-.1-.4-.1-.6-.1c-.8 0-.9.6-.9 1.5c.04-.05 0 .9 0 .9l1.3 0l0 .7zm.7-.7l.9 0l0 5l-.9 0l0-5zm.5-2.6c.3 0 .6.3.6.6c0 .4-.3.6-.6.6c-.4 0-.7-.2-.7-.6c0-.3.3-.6.7-.6zm2 3.8c0-.5 0-.9 0-1.2c0 0 .8 0 .8 0c0 .3 0 .5 0 .8c0 0 0 0 0 0c.2-.5.9-.9 1.7-.9c.1 0 .2 0 .3 0c0 0 0 .9 0 .9c-.2-.1-.3-.1-.5-.1c-1 0-1.4.7-1.4 1.9c-.04-.04 0 2.4 0 2.4l-.9 0c0 0 .03-3.82 0-3.8zm3.9 2.5c.3.4.7.7 1.3.7c.5 0 1.1-.3 1.1-.8c0-.5-.5-.7-1.1-.8c-.9-.2-1.7-.4-1.7-1.5c0-.9.9-1.4 1.8-1.4c.7 0 1.4.2 1.7.9c0 0-.7.4-.7.4c-.2-.3-.5-.6-1-.6c-.5 0-1 .3-1 .7c0 .4.6.6 1.2.8c.9.1 1.7.5 1.7 1.5c0 1.1-1 1.5-2 1.5c-.9 0-1.5-.2-2-.9c0 0 .7-.5.7-.5zm7.2-3l-1.5 0c0 0 .01 2.51 0 2.5c0 .6 0 1.2.8 1.2c.2 0 .5-.1.7-.2c0 0 0 .7 0 .7c-.3.2-.6.2-.9.2c-1.2 0-1.4-.6-1.4-1.6c-.02-.05 0-2.8 0-2.8l-1.1 0l0-.7l1.1 0l0-1.4l.8 0l0 1.4l1.5 0l0 .7zm4-3.8l.8 0l0 3.8c0 0 .05-.01 0 0c.3-.4.9-.8 1.7-.8c1.3 0 1.9.8 1.9 2c-.04.01 0 3.1 0 3.1l-.9 0c0 0 .02-3 0-3c0-.8-.3-1.4-1.1-1.4c-1.1 0-1.6.8-1.6 2c.03-.04 0 2.4 0 2.4l-.8 0l0-8.1zm5.9 3.7c.5-.5 1.2-.7 2-.7c1.4 0 2.1.7 2.1 2.1c0 0 0 2.1 0 2.1c0 .3 0 .6 0 .9c0 0-.8 0-.8 0c0-.2 0-.5 0-.7c0 0 0 0 0 0c-.4.5-.9.8-1.7.8c-1 0-1.8-.5-1.8-1.5c0-1.6 1.9-1.7 3.1-1.7c.01-.01.3 0 .3 0c0 0 .03-.16 0-.2c0-.7-.4-1.1-1.2-1.1c-.5 0-1.1.2-1.5.6c0 0-.5-.6-.5-.6zm2.4 2c-1.1 0-1.7.3-1.7 1c0 .6.4.8 1.1.8c.9 0 1.4-.7 1.4-1.5c.03.02 0-.3 0-.3c0 0-.8-.01-.8 0zm3.3-5.7l.8 0l0 8.1l-.8 0l0-8.1zm2.9 3.8l-1.1 0l0-.7l1.1 0c0 0-.01-1.13 0-1.1c0-1.2.4-2.1 1.8-2.1c.2 0 .4 0 .6.1c0 0-.1.8-.1.8c-.2-.1-.4-.1-.6-.1c-.8 0-.9.6-.9 1.5c.02-.05 0 .9 0 .9l1.2 0l0 .7l-1.2 0l0 4.3l-.8 0l0-4.3zm8.3-.8c1.5 0 2.7 1 2.7 2.6c0 1.6-1.2 2.6-2.7 2.6c-1.5 0-2.7-1-2.7-2.6c0-1.6 1.2-2.6 2.7-2.6zm0 4.5c1.1 0 1.8-.9 1.8-1.9c0-1-.7-1.9-1.8-1.9c-1.1 0-1.8.9-1.8 1.9c0 1 .7 1.9 1.8 1.9zm4.4-3.7l-1.1 0l0-.7l1.1 0c0 0-.01-1.13 0-1.1c0-1.2.4-2.1 1.8-2.1c.2 0 .4 0 .6.1c0 0-.1.8-.1.8c-.2-.1-.4-.1-.6-.1c-.8 0-.9.6-.9 1.5c.03-.05 0 .9 0 .9l1.2 0l0 .7l-1.2 0l0 4.3l-.8 0l0-4.3zm8.6 0l-1.4 0c0 0-.03 2.51 0 2.5c0 .6 0 1.2.7 1.2c.3 0 .5-.1.8-.2c0 0 0 .7 0 .7c-.3.2-.7.2-1 .2c-1.2 0-1.4-.6-1.4-1.6c.04-.05 0-2.8 0-2.8l-1.1 0l0-.7l1.1 0l0-1.4l.9 0l0 1.4l1.4 0l0 .7zm1.1-3.8l.8 0l0 3.8c0 0 .03-.01 0 0c.3-.4.9-.8 1.6-.8c1.4 0 1.9.8 1.9 2c.04.01 0 3.1 0 3.1l-.8 0c0 0 .01-3 0-3c0-.8-.4-1.4-1.1-1.4c-1.1 0-1.6.8-1.6 2c.01-.04 0 2.4 0 2.4l-.8 0l0-8.1zm10.4 7.2c-.6.8-1.3 1-2.2 1c-1.6 0-2.6-1.1-2.6-2.6c0-1.6 1.1-2.6 2.6-2.6c1.4 0 2.4.9 2.4 2.6c-.02-.01 0 .3 0 .3c0 0-4.07-.04-4.1 0c.1.8.8 1.6 1.7 1.6c.7 0 1.2-.3 1.6-.8c0 0 .6.5.6.5zm-.7-2c-.1-.9-.6-1.5-1.5-1.5c-.9 0-1.6.6-1.7 1.5c0 0 3.2 0 3.2 0zm4.9 1.9c0 0 2.85-2.81 2.8-2.8c.8-.7 1.1-1.1 1.1-1.8c0-.8-.6-1.3-1.4-1.3c-.7 0-1.3.5-1.4 1.2c0 0-1-.1-1-.1c.2-1.2 1.2-1.9 2.4-1.9c1.3 0 2.3.7 2.3 2.1c0 1.2-.7 1.8-1.5 2.6c.04-.05-2.3 2.1-2.3 2.1l0 .1l3.9 0l0 .8l-4.9 0l0-1zm8.4-6.7c2.1 0 2.5 2.2 2.5 3.9c0 1.7-.4 3.9-2.5 3.9c-2.1 0-2.6-2.2-2.6-3.9c0-1.7.5-3.9 2.6-3.9zm0 7.1c1.5 0 1.6-2.1 1.6-3.2c0-1.1-.1-3.1-1.6-3.1c-1.5 0-1.7 2-1.7 3.1c0 1.1.2 3.2 1.7 3.2zm6.5-3.7l-1.5 0c0 0 .01 2.51 0 2.5c0 .6 0 1.2.8 1.2c.2 0 .5-.1.7-.2c0 0 0 .7 0 .7c-.3.2-.6.2-.9.2c-1.2 0-1.4-.6-1.4-1.6c-.03-.05 0-2.8 0-2.8l-1.1 0l0-.7l1.1 0l0-1.4l.8 0l0 1.4l1.5 0l0 .7zm1-3.8l.8 0l0 3.8c0 0 .07-.01.1 0c.2-.4.8-.8 1.6-.8c1.3 0 1.9.8 1.9 2c-.02.01 0 3.1 0 3.1l-.9 0c0 0 .04-3 0-3c0-.8-.3-1.4-1.1-1.4c-1.1 0-1.6.8-1.6 2c.05-.04 0 2.4 0 2.4l-.8 0l0-8.1zm12.5 4.3c-.4-.4-.8-.6-1.3-.6c-1.1 0-1.7.9-1.7 1.9c0 1 .7 1.9 1.7 1.9c.6 0 1-.2 1.3-.7c0 0 .6.6.6.6c-.5.6-1.1.8-1.9.8c-1.5 0-2.6-1.1-2.6-2.6c0-1.5 1.1-2.6 2.6-2.6c.8 0 1.5.2 2 .8c0 0-.7.5-.7.5zm6.1 2.9c-.6.8-1.3 1-2.3 1c-1.5 0-2.5-1.1-2.5-2.6c0-1.6 1.1-2.6 2.6-2.6c1.4 0 2.3.9 2.3 2.6c.05-.01 0 .3 0 .3c0 0-4-.04-4 0c.1.8.7 1.6 1.6 1.6c.8 0 1.2-.3 1.6-.8c0 0 .7.5.7.5zm-.8-2c0-.9-.5-1.5-1.5-1.5c-.9 0-1.5.6-1.6 1.5c0 0 3.1 0 3.1 0zm2.2-.9c0-.5 0-.9 0-1.2c0 0 .8 0 .8 0c0 .3 0 .5 0 .8c0 0 0 0 0 0c.3-.5.9-.9 1.7-.9c1.3 0 1.9.8 1.9 2c.01.01 0 3.1 0 3.1l-.8 0c0 0-.03-3 0-3c0-.8-.4-1.4-1.2-1.4c-1.1 0-1.5.8-1.5 2c-.02-.04 0 2.4 0 2.4l-.9 0c0 0 .04-3.82 0-3.8zm8.7-.5l-1.4 0c0 0-.05 2.51 0 2.5c0 .6 0 1.2.7 1.2c.2 0 .5-.1.7-.2c0 0 .1.7.1.7c-.3.2-.7.2-1 .2c-1.2 0-1.4-.6-1.4-1.6c.02-.05 0-2.8 0-2.8l-1.1 0l0-.7l1.1 0l0-1.4l.9 0l0 1.4l1.4 0l0 .7zm5.4 3.1c0 .5.1.9.1 1.2c0 0-.8 0-.8 0c0-.3 0-.5 0-.8c0 0-.1 0-.1 0c-.2.5-.8.9-1.6.9c-1.4 0-1.9-.8-1.9-2c-.04-.01 0-3.1 0-3.1l.8 0c0 0-.01 3 0 3c0 .8.4 1.4 1.1 1.4c1.1 0 1.6-.8 1.6-2c-.01.04 0-2.4 0-2.4l.8 0c0 0 .02 3.82 0 3.8zm1.6-2.6c0-.5 0-.9 0-1.2c0 0 .8 0 .8 0c0 .3 0 .5 0 .8c0 0 0 0 0 0c.2-.5.8-.9 1.7-.9c.1 0 .2 0 .3 0c0 0 0 .9 0 .9c-.2-.1-.3-.1-.5-.1c-1 0-1.5.7-1.5 1.9c.04-.04 0 2.4 0 2.4l-.8 0c0 0 .01-3.82 0-3.8zm5.6 4.9c-.3.9-.6 1.5-1.7 1.5c-.2 0-.5-.1-.7-.2c0 0 .1-.7.1-.7c.2.1.4.1.6.1c.5 0 .7-.3.9-.8c.02-.02.4-1 .4-1l-2.1-5l1 0l1.5 3.9l0 0l1.5-3.9l.9 0c0 0-2.39 6.15-2.4 6.1zm3.9.4l-.8 0l.7-2.6l1 0l-.9 2.6zm.8-6c0 .4-.3.7-.7.7c-.3 0-.6-.3-.6-.7c0-.3.3-.6.6-.6c.4 0 .7.3.7.6zm10 4.5l-.9 0l-1.4-3.8l0 0l-1.3 3.8l-.8 0l-1.7-5l1 0l1.1 3.8l0 0l1.3-3.8l.9 0l1.3 3.8l0 0l1.2-3.8l.9 0l-1.6 5zm4.9-5.1c1.5 0 2.7 1 2.7 2.6c0 1.6-1.2 2.6-2.7 2.6c-1.5 0-2.7-1-2.7-2.6c0-1.6 1.2-2.6 2.7-2.6zm0 4.5c1.1 0 1.8-.9 1.8-1.9c0-1-.7-1.9-1.8-1.9c-1.1 0-1.8.9-1.8 1.9c0 1 .7 1.9 1.8 1.9zm6.4-4.5c1.5 0 2.6 1 2.6 2.6c0 1.6-1.1 2.6-2.6 2.6c-1.6 0-2.7-1-2.7-2.6c0-1.6 1.1-2.6 2.7-2.6zm0 4.5c1 0 1.7-.9 1.7-1.9c0-1-.7-1.9-1.7-1.9c-1.1 0-1.8.9-1.8 1.9c0 1 .7 1.9 1.8 1.9zm8.1-.3c0 0-.04.02 0 0c-.3.6-1.1 1-2 1c-1.4 0-2.5-1.1-2.5-2.6c0-1.5 1.1-2.6 2.7-2.6c.7 0 1.3.3 1.8.8c-.04.02 0 0 0 0l0-3.8l.8 0l0 8.1l-.8 0l0-.9zm-1.8-3.5c-1.1 0-1.8.9-1.8 1.9c0 1 .7 1.9 1.8 1.9c1.1 0 1.8-.9 1.8-1.9c0-1-.7-1.9-1.8-1.9zm4.7 5.9l-.8 0l.8-2.6l.9 0l-.9 2.6zm5.4-9.6l.8 0l0 3.8c0 0 .02.02 0 0c.5-.5 1.1-.8 1.8-.8c1.6 0 2.6 1.1 2.6 2.6c0 1.5-1.1 2.6-2.5 2.6c-.9 0-1.6-.4-1.9-1c.02.02 0 0 0 0l0 .9l-.8 0l0-8.1zm2.6 7.5c1.1 0 1.8-.9 1.8-1.9c0-1-.7-1.9-1.8-1.9c-1.1 0-1.8.9-1.8 1.9c0 1 .7 1.9 1.8 1.9zm3.9-3.8c.5-.5 1.2-.7 2-.7c1.4 0 2.1.7 2.1 2.1c0 0 0 2.1 0 2.1c0 .3 0 .6 0 .9c0 0-.8 0-.8 0c0-.2 0-.5 0-.7c0 0 0 0 0 0c-.4.5-.9.8-1.7.8c-1 0-1.8-.5-1.8-1.5c0-1.6 1.9-1.7 3.1-1.7c.01-.01.3 0 .3 0c0 0 .03-.16 0-.2c0-.7-.4-1.1-1.2-1.1c-.5 0-1.1.2-1.5.6c0 0-.5-.6-.5-.6zm2.4 2c-1.1 0-1.7.3-1.7 1c0 .6.4.8 1.1.8c.9 0 1.4-.7 1.4-1.5c.03.02 0-.3 0-.3c0 0-.8-.01-.8 0zm3.2-1.4c0-.5 0-.9 0-1.2c0 0 .7 0 .7 0c0 .3.1.5.1.8c0 0 0 0 0 0c.2-.5.8-.9 1.7-.9c.1 0 .2 0 .3 0c0 0-.1.9-.1.9c-.1-.1-.3-.1-.4-.1c-1 0-1.5.7-1.5 1.9c.03-.04 0 2.4 0 2.4l-.8 0c0 0 0-3.82 0-3.8zm3.8-4.3l.8 0l0 5.3l2.3-2.2l1.2 0l-2.5 2.3l2.7 2.7l-1.2 0l-2.5-2.6l0 2.6l-.8 0l0-8.1zm5.9 9.6l-.8 0l.7-2.6l1 0l-.9 2.6zm5.5-2.8c.3.4.7.7 1.3.7c.5 0 1.1-.3 1.1-.8c0-.5-.6-.7-1.1-.8c-1-.2-1.8-.4-1.8-1.5c0-.9 1-1.4 1.9-1.4c.7 0 1.4.2 1.7.9c0 0-.7.4-.7.4c-.2-.3-.6-.6-1.1-.6c-.4 0-.9.3-.9.7c0 .4.6.6 1.2.8c.9.1 1.7.5 1.7 1.5c0 1.1-1 1.5-2 1.5c-.9 0-1.5-.2-2-.9c0 0 .7-.5.7-.5zm6.8-3.8c1.5 0 2.7 1 2.7 2.6c0 1.6-1.2 2.6-2.7 2.6c-1.5 0-2.7-1-2.7-2.6c0-1.6 1.2-2.6 2.7-2.6zm0 4.5c1.1 0 1.8-.9 1.8-1.9c0-1-.7-1.9-1.8-1.9c-1.1 0-1.8.9-1.8 1.9c0 1 .7 1.9 1.8 1.9zm4.1-4.4l.8 0l0 5l-.8 0l0-5zm.4-2.6c.3 0 .6.3.6.6c0 .4-.3.6-.6.6c-.4 0-.6-.2-.6-.6c0-.3.2-.6.6-.6zm2.1-.5l.9 0l0 8.1l-.9 0l0-8.1zm3.1 9.6l-.8 0l.7-2.6l1 0l-.9 2.6zm5.3-5.9c.5-.5 1.3-.7 2-.7c1.5 0 2.1.7 2.1 2.1c0 0 0 2.1 0 2.1c0 .3 0 .6.1.9c0 0-.8 0-.8 0c-.1-.2-.1-.5-.1-.7c0 0 0 0 0 0c-.3.5-.9.8-1.7.8c-1 0-1.8-.5-1.8-1.5c0-1.6 1.9-1.7 3.1-1.7c.03-.01.4 0 .4 0c0 0-.05-.16 0-.2c0-.7-.5-1.1-1.3-1.1c-.5 0-1.1.2-1.5.6c0 0-.5-.6-.5-.6zm2.4 2c-1 0-1.7.3-1.7 1c0 .6.4.8 1.1.8c.9 0 1.4-.7 1.5-1.5c-.05.02 0-.3 0-.3c0 0-.88-.01-.9 0zm3.2-1.4c0-.5 0-.9 0-1.2c0 0 .8 0 .8 0c0 .3 0 .5 0 .8c0 0 0 0 0 0c.2-.5.9-.9 1.7-.9c1.3 0 1.9.8 1.9 2c-.02.01 0 3.1 0 3.1l-.9 0c0 0 .05-3 0-3c0-.8-.3-1.4-1.1-1.4c-1.1 0-1.6.8-1.6 2c.05-.04 0 2.4 0 2.4l-.8 0c0 0 .02-3.82 0-3.8zm6-1.2l.9 0l0 5l-.9 0l0-5zm.5-2.6c.3 0 .6.3.6.6c0 .4-.3.6-.6.6c-.4 0-.7-.2-.7-.6c0-.3.3-.6.7-.6zm2 3.8c0-.5 0-.9 0-1.2c0 0 .8 0 .8 0c0 .3 0 .5 0 .8c0 0 0 0 0 0c.2-.5.9-.9 1.7-.9c1.1 0 1.4.6 1.6.9c.3-.6.8-.9 1.6-.9c1.4 0 1.9.8 1.9 2.1c-.04-.04 0 3 0 3l-.9 0c0 0 .03-2.99 0-3c0-.7-.2-1.4-1.2-1.4c-.7 0-1.3.6-1.3 1.5c.02.01 0 2.9 0 2.9l-.8 0c0 0-.02-2.83 0-2.8c0-1.1-.3-1.6-1-1.6c-1.1 0-1.5.8-1.5 2c-.03-.04 0 2.4 0 2.4l-.9 0c0 0 .03-3.82 0-3.8zm9.1-.6c.5-.5 1.2-.7 2-.7c1.5 0 2.1.7 2.1 2.1c0 0 0 2.1 0 2.1c0 .3 0 .6 0 .9c0 0-.8 0-.8 0c0-.2 0-.5 0-.7c0 0 0 0 0 0c-.4.5-.9.8-1.7.8c-1 0-1.8-.5-1.8-1.5c0-1.6 1.9-1.7 3.1-1.7c.02-.01.3 0 .3 0c0 0 .04-.16 0-.2c0-.7-.4-1.1-1.2-1.1c-.5 0-1.1.2-1.5.6c0 0-.5-.6-.5-.6zm2.4 2c-1.1 0-1.7.3-1.7 1c0 .6.4.8 1.1.8c.9 0 1.4-.7 1.4-1.5c.04.02 0-.3 0-.3c0 0-.8-.01-.8 0zm3.3-5.7l.8 0l0 8.1l-.8 0l0-8.1zm5.4 0l.8 0l0 3.8c0 0 .06.02.1 0c.4-.5 1-.8 1.8-.8c1.5 0 2.6 1.1 2.6 2.6c0 1.5-1.1 2.6-2.5 2.6c-.9 0-1.6-.4-1.9-1c-.04.02-.1 0-.1 0l0 .9l-.8 0l0-8.1zm2.6 7.5c1.1 0 1.8-.9 1.8-1.9c0-1-.7-1.9-1.8-1.9c-1.1 0-1.8.9-1.8 1.9c0 1 .7 1.9 1.8 1.9zm4.1-7.5l.8 0l0 8.1l-.8 0l0-8.1zm4.8 3c1.6 0 2.7 1 2.7 2.6c0 1.6-1.1 2.6-2.7 2.6c-1.5 0-2.6-1-2.6-2.6c0-1.6 1.1-2.6 2.6-2.6zm0 4.5c1.1 0 1.8-.9 1.8-1.9c0-1-.7-1.9-1.8-1.9c-1 0-1.7.9-1.7 1.9c0 1 .7 1.9 1.7 1.9zm6.4-4.5c1.5 0 2.7 1 2.7 2.6c0 1.6-1.2 2.6-2.7 2.6c-1.5 0-2.7-1-2.7-2.6c0-1.6 1.2-2.6 2.7-2.6zm0 4.5c1.1 0 1.8-.9 1.8-1.9c0-1-.7-1.9-1.8-1.9c-1.1 0-1.8.9-1.8 1.9c0 1 .7 1.9 1.8 1.9zm8.1-.3c0 0 0 .02 0 0c-.3.6-1 1-1.9 1c-1.4 0-2.5-1.1-2.5-2.6c0-1.5 1-2.6 2.6-2.6c.7 0 1.3.3 1.8.8c0 .02 0 0 0 0l0-3.8l.9 0l0 8.1l-.9 0l0-.9zm-1.8-3.5c-1 0-1.7.9-1.7 1.9c0 1 .7 1.9 1.7 1.9c1.1 0 1.8-.9 1.8-1.9c0-1-.7-1.9-1.8-1.9zm4.8 5.9l-.8 0l.7-2.6l1 0l-.9 2.6zm.7-6c0 .4-.3.7-.6.7c-.3 0-.6-.3-.6-.7c0-.3.2-.6.6-.6c.3 0 .6.3.6.6z" stroke="none" fill="#fff"/></g></svg>