<svg xmlns="http://www.w3.org/2000/svg" version="1.1" width="944px" height="76.4px" viewBox="0 0 944 76.4"><desc>Modern imaging techniques and interpretive expertise reveal surprising details</desc><defs/><g id="Polygon47105"><path d="m5.3 18.4c0 3.1.4 3.6 2.9 3.6c.05-.02 0 .6 0 .6l-7 0c0 0-.02-.62 0-.6c2.6 0 2.9-.5 2.9-3.6c0 0 0-10.1 0-10.1c0-3.1-.3-3.6-2.9-3.6c-.02-.02 0-.7 0-.7l5.2 0l6.6 15.1l6.6-15.1l4.8 0c0 0 .03.68 0 .7c-2.6 0-2.9.5-2.9 3.6c0 0 0 10.1 0 10.1c0 3.1.3 3.6 2.9 3.6c.03-.02 0 .6 0 .6l-8.3 0c0 0-.04-.62 0-.6c2.5 0 2.9-.5 2.9-3.6c0-.05 0-10.2 0-10.2l-6.4 15l-.4 0l-6.9-15.9c0 0-.03 11.05 0 11.1zm26.7 4.8c-3.4 0-6.2-2.6-6.2-5.7c0-3.2 2.8-5.7 6.2-5.7c3.5 0 6.3 2.5 6.3 5.7c0 3.1-2.8 5.7-6.3 5.7zm0-10.2c-2.5 0-3.7 2-3.7 4.5c0 2.4 1.2 4.4 3.7 4.4c2.6 0 3.8-2 3.8-4.4c0-2.5-1.2-4.5-3.8-4.5zm17.7 2.5c-.6-1.5-1.8-2.5-3.1-2.5c-2.5 0-3.6 2-3.6 4.5c0 2.4 1.1 4.4 3.6 4.4c1.3 0 2.5-1 3.1-2.4c0 0 0-4 0-4zm0-6.9c0-3.1-.4-3.7-2.5-3.7c.03.03 0-.6 0-.6l4.7-.8c0 0-.02 14.6 0 14.6c0 3.1.4 3.6 2.4 3.6c.03.03 0 .7 0 .7c0 0-4.09.76-4.1.8c-.1-.4-.4-1.4-.5-1.9c-.9 1.1-2.1 1.9-3.8 1.9c-2.9 0-5.4-2.6-5.4-5.7c0-3.2 2.5-5.7 5.4-5.7c1.6 0 2.9.7 3.8 1.8c0 0 0-5 0-5zm13.2 6.9c.4-1-.1-2.5-2.2-2.5c-1.3 0-2.5 1-2.9 2.5c0 0 5.1 0 5.1 0zm-1.3 6.4c1.1 0 2.5-.6 3.4-1.5c0 0 .6.7.6.7c-1.1 1.2-3 2.1-4.7 2.1c-3.4 0-5.8-2.6-5.8-5.7c0-3.3 2.9-5.7 5.8-5.7c2.7 0 4.9 2.2 4.2 4.9c0 0-7.5 0-7.5 0c-.4 2.9.8 5.2 4 5.2zm14.6-6.7c-.5 0-1-.6-1-1.2c0-.6-.4-1-1-1c-.7 0-2.4 1.2-2.4 3.6c0 0 0 1.8 0 1.8c0 3.1.3 3.6 2.4 3.6c.03-.02 0 .6 0 .6l-7.1 0c0 0 .03-.62 0-.6c2.1 0 2.5-.5 2.5-3.6c0 0 0-1.6 0-1.6c0-3.1-.4-3.6-2.5-3.6c.03.01 0-.6 0-.6c0 0 4.15-.82 4.1-.8c.2.3.5 1.6.6 2.2c.6-1.2 2-2.2 3.2-2.2c1.7 0 2.5 1.1 2.5 1.9c0 .7-.3 1.5-1.3 1.5zm11.7-3.4c2.8 0 4 2 4 4.6c0 0 0 2 0 2c0 3.1.4 3.6 2.5 3.6c-.04-.02 0 .6 0 .6l-7.1 0c0 0-.04-.62 0-.6c2 0 2.4-.5 2.4-3.6c0 0 0-1.8 0-1.8c0-2.1-.7-3.4-2.6-3.4c-1.7 0-3.5 1.4-3.5 3.1c0 0 0 2.1 0 2.1c0 3.1.2 3.6 2.1 3.6c.04-.02 0 .6 0 .6l-6.8 0c0 0 .02-.62 0-.6c2.1 0 2.5-.5 2.5-3.6c0 0 0-1.6 0-1.6c0-3.1-.4-3.6-2.5-3.6c.02.01 0-.6 0-.6c0 0 4.14-.82 4.1-.8c.2.3.5 1.6.6 2.2c.8-1 2.2-2.2 4.3-2.2zm13.6 10.8c0 0-.01-.62 0-.6c2 0 2.4-.5 2.4-3.6c0 0 0-1.6 0-1.6c0-3.1-.4-3.6-2.4-3.6c-.01.01 0-.6 0-.6l4.6-.8c0 0 .04 6.55 0 6.6c0 3.1.4 3.6 2.5 3.6c-.01-.02 0 .6 0 .6l-7.1 0zm3.5-13.9c-.7 0-1.3-.6-1.3-1.4c0-.7.6-1.3 1.3-1.3c.8 0 1.4.6 1.4 1.3c0 .8-.6 1.4-1.4 1.4zm17.2 9.7c0 3.2.2 3.6 2 3.6c-.02-.02 0 .6 0 .6l-6.1 0c0 0 0-.62 0-.6c1.7 0 2-.4 2-3.6c0 0 0-1.8 0-1.8c0-2.1-.7-3.4-2.3-3.4c-1.1 0-3.2 1.2-3.2 3.1c0 0 0 2.1 0 2.1c0 3.2.2 3.6 2 3.6c-.05-.02 0 .6 0 .6l-6.6 0c0 0-.02-.62 0-.6c2 0 2.4-.5 2.4-3.6c0 0 0-1.6 0-1.6c0-3.1-.4-3.6-2.4-3.6c-.02.01 0-.6 0-.6c0 0 4.11-.82 4.1-.8c.2.3.4 1.6.5 2.2c.9-1 2.3-2.2 4.1-2.2c1.9 0 2.8.9 3.2 2.3c.8-1 2.6-2.3 4.4-2.3c2.7 0 3.6 2 3.6 4.6c0 0 0 2 0 2c0 3.1.4 3.6 2.4 3.6c0-.02 0 .6 0 .6l-6.6 0c0 0 .03-.62 0-.6c1.7 0 2-.4 2-3.6c0 0 0-1.8 0-1.8c0-2.1-.6-3.4-2.2-3.4c-1.1 0-3.3 1.2-3.3 3.1c0 0 0 2.1 0 2.1zm20.3 4.6c-1.2 0-2-.7-2.1-1.8c-1.6 1.3-2.7 1.8-3.9 1.8c-1.5 0-2.8-.9-2.8-2.6c0-2.6 3.1-3.8 6.6-4.4c0-2.3-.3-3.2-2.1-3.2c-.7 0-1.7.5-1.7 1.5c0 .6-.5 1-1.1 1c-.6 0-1.1-.4-1.1-1c0-1.5 2-2.5 4-2.5c3 0 4.2 1.3 4.2 4.2c0 0 0 4.7 0 4.7c0 .8.2 1.2.7 1.2c.3 0 .7-.3.9-.5c0 0 .4.6.4.6c-.6.6-1.4 1-2 1zm-2.2-6c-2.9.7-4.3 1.7-4.3 3.1c0 .9.7 1.5 1.5 1.5c.6 0 1.4-.2 2.8-1.5c0 0 0-3.1 0-3.1zm10.3-4.2c-1.6 0-2.3 1.4-2.3 3.2c0 1.8.7 3.2 2.3 3.2c1.5 0 2.2-1.4 2.2-3.2c0-1.8-.7-3.2-2.2-3.2zm-.1 9.9c4.3.3 5.6 2.2 5.6 4.1c0 2.5-2.4 4.1-5.4 4.1c-5.3 0-7.3-3.8-3.5-5.8c0 0 .5.3.5.3c-2.5 2.9.5 4.3 3 4.3c1.9 0 3.8-.9 3.8-2.4c0-1.4-1.6-1.9-4.2-2.2c-2.5-.2-4.4-1-4.4-2.8c0-1.2 1-2 2.6-2.5c-1.5-.8-2.6-2.1-2.6-3.8c0-2.3 2.1-4.2 4.7-4.2c1.2 0 2.3.4 3.2 1.2c.5-.7 1.6-1.2 2.3-1.2c2.1 0 2.2 2.5 1 2.6c-1.4.1-.6-1.4-1.9-1.4c-.2 0-.6.1-.9.5c.5.7.9 1.6.9 2.5c0 2.3-2 3.9-4.1 4.2c-1.3.2-3.4.5-3.4 1.3c0 .9 1.8 1.1 2.8 1.2zm8.5-.1c0 0-.04-.62 0-.6c2 0 2.4-.5 2.4-3.6c0 0 0-1.6 0-1.6c0-3.1-.4-3.6-2.4-3.6c-.04.01 0-.6 0-.6l4.6-.8c0 0 .01 6.55 0 6.6c0 3.1.4 3.6 2.5 3.6c-.04-.02 0 .6 0 .6l-7.1 0zm3.5-13.9c-.8 0-1.4-.6-1.4-1.4c0-.7.6-1.3 1.4-1.3c.7 0 1.4.6 1.4 1.3c0 .8-.7 1.4-1.4 1.4zm13.9 3.1c2.8 0 4 2 4 4.6c0 0 0 2 0 2c0 3.1.4 3.6 2.5 3.6c-.01-.02 0 .6 0 .6l-7.1 0c0 0-.01-.62 0-.6c2 0 2.4-.5 2.4-3.6c0 0 0-1.8 0-1.8c0-2.1-.7-3.4-2.5-3.4c-1.7 0-3.6 1.4-3.6 3.1c0 0 0 2.1 0 2.1c0 3.1.2 3.6 2.2 3.6c-.03-.02 0 .6 0 .6l-6.8 0c0 0-.05-.62 0-.6c2 0 2.4-.5 2.4-3.6c0 0 0-1.6 0-1.6c0-3.1-.4-3.6-2.4-3.6c-.05.01 0-.6 0-.6c0 0 4.07-.82 4.1-.8c.1.3.4 1.6.5 2.2c.8-1 2.3-2.2 4.3-2.2zm12.6 1c-1.5 0-2.3 1.4-2.3 3.2c0 1.8.8 3.2 2.3 3.2c1.5 0 2.2-1.4 2.2-3.2c0-1.8-.7-3.2-2.2-3.2zm-.1 9.9c4.3.3 5.7 2.2 5.7 4.1c0 2.5-2.5 4.1-5.5 4.1c-5.3 0-7.3-3.8-3.5-5.8c0 0 .6.3.6.3c-2.6 2.9.4 4.3 2.9 4.3c1.9 0 3.8-.9 3.8-2.4c0-1.4-1.5-1.9-4.1-2.2c-2.6-.2-4.4-1-4.4-2.8c0-1.2 1-2 2.6-2.5c-1.6-.8-2.6-2.1-2.6-3.8c0-2.3 2.1-4.2 4.6-4.2c1.2 0 2.4.4 3.2 1.2c.5-.7 1.7-1.2 2.3-1.2c2.2 0 2.3 2.5 1 2.6c-1.3.1-.6-1.4-1.8-1.4c-.3 0-.6.1-1 .5c.6.7.9 1.6.9 2.5c0 2.3-2 3.9-4 4.2c-1.4.2-3.5.5-3.5 1.3c0 .9 1.8 1.1 2.8 1.2zm13.5-9.3c0 0 .02-.75 0-.8c1.9-.4 2.6-1.7 2.8-3.7c-.02 0 1 0 1 0l0 3.4l2.7 0l0 1.1l-2.7 0c0 0 .03 6.25 0 6.3c0 1.4.4 2.2 1.4 2.2c.6 0 1.3-.4 2-1.1c0 0 .6.6.6.6c-.9 1-2.3 1.8-3.3 1.8c-1.7 0-2.9-1.1-2.9-3.5c.03-.05 0-6.3 0-6.3l-1.6 0zm16.6 2.1c.3-1-.2-2.5-2.3-2.5c-1.3 0-2.4 1-2.9 2.5c0 0 5.2 0 5.2 0zm-1.3 6.4c1 0 2.5-.6 3.4-1.5c0 0 .5.7.5.7c-1.1 1.2-2.9 2.1-4.7 2.1c-3.4 0-5.7-2.6-5.7-5.7c0-3.3 2.8-5.7 5.7-5.7c2.8 0 5 2.2 4.2 4.9c0 0-7.5 0-7.5 0c-.3 2.9.9 5.2 4.1 5.2zm8-4.2c0 2.5 1.2 4.2 3.8 4.2c1 0 2.3-.5 3.3-1.5c0 0 .5.7.5.7c-1.2 1.3-2.8 2.1-4.6 2.1c-3.4 0-5.5-2.4-5.5-5.5c0-3.6 3-5.9 5.5-5.9c2.6 0 3.7 1.1 3.7 2.2c0 .5-.3 1.3-1.4 1.3c-.7 0-1.2-.5-1.2-1.2c0-1-.5-1.3-1.1-1.3c-1.6 0-3 2.1-3 4.9zm16.8 4.9c0 0-.05-.62 0-.6c1.9 0 2.2-.5 2.2-3.6c0 0 0-1.8 0-1.8c0-2.1-.8-3.4-2.4-3.4c-1.6 0-3.3 1.4-3.3 3.1c0 0 0 2.1 0 2.1c0 3.2.2 3.6 1.9 3.6c0-.02 0 .6 0 .6l-6.6 0c0 0 0-.62 0-.6c2.1 0 2.4-.5 2.4-3.6c0 0 0-9.8 0-9.8c0-3.1-.3-3.7-2.4-3.7c0 .03 0-.6 0-.6l4.7-.8c0 0-.05 10.51 0 10.5c.8-1 2.2-2.2 4-2.2c2.9 0 3.8 2 3.8 4.6c0 0 0 2 0 2c0 3.1.4 3.6 2.5 3.6c0-.02 0 .6 0 .6l-6.8 0zm17.2-10.8c2.8 0 4 2 4 4.6c0 0 0 2 0 2c0 3.1.4 3.6 2.5 3.6c-.03-.02 0 .6 0 .6l-7.1 0c0 0-.03-.62 0-.6c2 0 2.4-.5 2.4-3.6c0 0 0-1.8 0-1.8c0-2.1-.7-3.4-2.6-3.4c-1.7 0-3.5 1.4-3.5 3.1c0 0 0 2.1 0 2.1c0 3.1.2 3.6 2.1 3.6c.05-.02 0 .6 0 .6l-6.8 0c0 0 .03-.62 0-.6c2.1 0 2.5-.5 2.5-3.6c0 0 0-1.6 0-1.6c0-3.1-.4-3.6-2.5-3.6c.03.01 0-.6 0-.6c0 0 4.15-.82 4.2-.8c.1.3.4 1.6.5 2.2c.8-1 2.2-2.2 4.3-2.2zm7.9 10.8c0 0-.01-.62 0-.6c2 0 2.4-.5 2.4-3.6c0 0 0-1.6 0-1.6c0-3.1-.4-3.6-2.4-3.6c-.01.01 0-.6 0-.6l4.6-.8c0 0 .04 6.55 0 6.6c0 3.1.4 3.6 2.5 3.6c-.01-.02 0 .6 0 .6l-7.1 0zm3.5-13.9c-.7 0-1.3-.6-1.3-1.4c0-.7.6-1.3 1.3-1.3c.8 0 1.4.6 1.4 1.3c0 .8-.6 1.4-1.4 1.4zm13.5 6.8c-.5-1.5-1.7-2.5-3.1-2.5c-2.4 0-3.5 2-3.5 4.5c0 2.4 1.1 4.4 3.5 4.4c1.4 0 2.6-1 3.1-2.5c0 0 0-3.9 0-3.9zm4.7 14.2c-.02.03 0 .7 0 .7l-7.1 0c0 0-.02-.67 0-.7c2.1 0 2.4-.5 2.4-3.6c0 0 0-4.8 0-4.8c-.9 1.1-2.2 1.9-3.8 1.9c-2.9 0-5.3-2.6-5.3-5.7c0-3.2 2.4-5.7 5.3-5.7c1.7 0 3.1.8 4 2.1c.01-.04 1.4-2.1 1.4-2.1l.6 0c0 0 .03 14.33 0 14.3c0 3.1.4 3.6 2.5 3.6zm10.4-6.5c-.1-.4-.4-1.5-.4-2c-.8.8-2.3 2-4.1 2c-2.9 0-3.9-2.1-3.9-4.7c0 0 0-1.9 0-1.9c0-3.1-.3-3.7-2.4-3.7c0 .03 0-.6 0-.6l4.6 0c0 0 .05 6.05 0 6.1c0 2 .7 3.3 2.4 3.3c1.2 0 3.4-1.2 3.4-3.1c0 0 0-2 0-2c0-3.1-.4-3.7-2.5-3.7c-.03.03 0-.6 0-.6l4.6 0c0 0 .02 5.8 0 5.8c0 3.1.4 3.6 2.5 3.6c0 .03 0 .7 0 .7c0 0-4.15.76-4.2.8zm12.8-7.7c.3-1-.2-2.5-2.2-2.5c-1.4 0-2.5 1-2.9 2.5c0 0 5.1 0 5.1 0zm-1.3 6.4c1 0 2.5-.6 3.4-1.5c0 0 .6.7.6.7c-1.1 1.2-3 2.1-4.8 2.1c-3.4 0-5.7-2.6-5.7-5.7c0-3.3 2.8-5.7 5.7-5.7c2.8 0 5 2.2 4.2 4.9c0 0-7.4 0-7.4 0c-.4 2.9.8 5.2 4 5.2zm9.7 1.3c-2.2 0-3.4-2.2-3.4 0c.04-.04-.6 0-.6 0l0-4.6c0 0 .64.03.6 0c0 1.4 1.2 3.5 3.4 3.5c1 0 1.8-.7 1.8-1.6c0-.8-.7-1.3-1.8-1.9c0 0-1.7-.9-1.7-.9c-1.5-.8-2-2.1-2-3.1c0-1.7 1.5-2.8 3.1-2.8c2.4 0 2.8 1.6 2.8 0c.02-.02.7 0 .7 0l0 3.6c0 0-.68-.02-.7 0c0-1.3-.9-2.6-2.5-2.6c-1 0-1.6.5-1.6 1.3c0 .7.6 1.2 1.9 1.9c0 0 1.5.8 1.5.8c1.4.8 2.1 1.9 2.1 3c0 2-1.6 3.4-3.6 3.4zm20-.2c-1.2 0-1.9-.7-2.1-1.8c-1.5 1.3-2.6 1.8-3.9 1.8c-1.5 0-2.8-.9-2.8-2.6c0-2.6 3.1-3.8 6.6-4.4c0-2.3-.3-3.2-2-3.2c-.7 0-1.8.5-1.8 1.5c0 .6-.5 1-1.1 1c-.6 0-1-.4-1-1c0-1.5 1.9-2.5 3.9-2.5c3 0 4.2 1.3 4.2 4.2c0 0 0 4.7 0 4.7c0 .8.3 1.2.8 1.2c.3 0 .6-.3.8-.5c0 0 .5.6.5.6c-.6.6-1.4 1-2.1 1zm-2.2-6c-2.9.7-4.2 1.7-4.2 3.1c0 .9.6 1.5 1.4 1.5c.7 0 1.4-.2 2.8-1.5c0 0 0-3.1 0-3.1zm14.6-5.2c2.8 0 4 2 4 4.6c0 0 0 2 0 2c0 3.1.4 3.6 2.5 3.6c-.04-.02 0 .6 0 .6l-7.1 0c0 0-.04-.62 0-.6c2 0 2.4-.5 2.4-3.6c0 0 0-1.8 0-1.8c0-2.1-.7-3.4-2.6-3.4c-1.7 0-3.5 1.4-3.5 3.1c0 0 0 2.1 0 2.1c0 3.1.2 3.6 2.1 3.6c.04-.02 0 .6 0 .6l-6.8 0c0 0 .02-.62 0-.6c2.1 0 2.5-.5 2.5-3.6c0 0 0-1.6 0-1.6c0-3.1-.4-3.6-2.5-3.6c.02.01 0-.6 0-.6c0 0 4.15-.82 4.1-.8c.2.3.5 1.6.6 2.2c.8-1 2.2-2.2 4.3-2.2zm16.4 3.7c-.5-1.5-1.7-2.5-3.1-2.5c-2.4 0-3.5 2-3.5 4.5c0 2.4 1.1 4.4 3.5 4.4c1.4 0 2.6-1 3.1-2.4c0 0 0-4 0-4zm0-6.9c0-3.1-.3-3.7-2.4-3.7c-.02.03 0-.6 0-.6l4.6-.8c0 0 .03 14.6 0 14.6c0 3.1.4 3.6 2.5 3.6c-.02.03 0 .7 0 .7c0 0-4.14.76-4.1.8c-.2-.4-.4-1.4-.5-1.9c-.9 1.1-2.1 1.9-3.9 1.9c-2.9 0-5.3-2.6-5.3-5.7c0-3.2 2.4-5.7 5.3-5.7c1.6 0 2.9.7 3.8 1.8c0 0 0-5 0-5zm11.8 14c0 0 .01-.62 0-.6c2.1 0 2.5-.5 2.5-3.6c0 0 0-1.6 0-1.6c0-3.1-.4-3.6-2.5-3.6c.01.01 0-.6 0-.6l4.7-.8c0 0-.04 6.55 0 6.6c0 3.1.3 3.6 2.4 3.6c.01-.02 0 .6 0 .6l-7.1 0zm3.5-13.9c-.7 0-1.3-.6-1.3-1.4c0-.7.6-1.3 1.3-1.3c.8 0 1.4.6 1.4 1.3c0 .8-.6 1.4-1.4 1.4zm14 3.1c2.8 0 4 2 4 4.6c0 0 0 2 0 2c0 3.1.4 3.6 2.4 3.6c.04-.02 0 .6 0 .6l-7.1 0c0 0 .04-.62 0-.6c2.1 0 2.5-.5 2.5-3.6c0 0 0-1.8 0-1.8c0-2.1-.7-3.4-2.6-3.4c-1.7 0-3.5 1.4-3.5 3.1c0 0 0 2.1 0 2.1c0 3.1.2 3.6 2.1 3.6c.02-.02 0 .6 0 .6l-6.8 0c0 0 0-.62 0-.6c2.1 0 2.5-.5 2.5-3.6c0 0 0-1.6 0-1.6c0-3.1-.4-3.6-2.5-3.6c0 .01 0-.6 0-.6c0 0 4.13-.82 4.1-.8c.2.3.5 1.6.6 2.2c.8-1 2.2-2.2 4.3-2.2zm6.7 1.6c0 0 .04-.75 0-.8c1.9-.4 2.6-1.7 2.8-3.7c0 0 1.1 0 1.1 0l0 3.4l2.7 0l0 1.1l-2.7 0c0 0-.04 6.25 0 6.3c0 1.4.4 2.2 1.4 2.2c.5 0 1.3-.4 2-1.1c0 0 .5.6.5.6c-.9 1-2.2 1.8-3.3 1.8c-1.7 0-2.8-1.1-2.8-3.5c-.05-.05 0-6.3 0-6.3l-1.7 0zm16.6 2.1c.3-1-.2-2.5-2.2-2.5c-1.4 0-2.5 1-3 2.5c0 0 5.2 0 5.2 0zm-1.3 6.4c1 0 2.5-.6 3.4-1.5c0 0 .6.7.6.7c-1.1 1.2-3 2.1-4.8 2.1c-3.4 0-5.7-2.6-5.7-5.7c0-3.3 2.8-5.7 5.7-5.7c2.8 0 5 2.2 4.2 4.9c0 0-7.4 0-7.4 0c-.4 2.9.8 5.2 4 5.2zm14.6-6.7c-.6 0-1.1-.6-1.1-1.2c0-.6-.4-1-1-1c-.7 0-2.4 1.2-2.4 3.6c0 0 0 1.8 0 1.8c0 3.1.4 3.6 2.5 3.6c-.02-.02 0 .6 0 .6l-7.1 0c0 0-.02-.62 0-.6c2 0 2.4-.5 2.4-3.6c0 0 0-1.6 0-1.6c0-3.1-.4-3.6-2.4-3.6c-.02.01 0-.6 0-.6c0 0 4.1-.82 4.1-.8c.2.3.4 1.6.5 2.2c.7-1.2 2-2.2 3.3-2.2c1.7 0 2.4 1.1 2.4 1.9c0 .7-.2 1.5-1.2 1.5zm10.2-2.2c-1.4 0-2.6 1-3.2 2.4c0 0 0 4 0 4c.6 1.5 1.8 2.5 3.2 2.5c2.4 0 3.5-2 3.5-4.4c0-2.5-1.1-4.5-3.5-4.5zm-.7 16.7c-.01.03 0 .7 0 .7l-7.1 0c0 0-.01-.67 0-.7c2.1 0 2.4-.5 2.4-3.6c0 0 0-9.3 0-9.3c0-3.1-.3-3.6-2.4-3.6c-.01.01 0-.6 0-.6c0 0 4.15-.82 4.1-.8c.2.3.4 1.4.5 1.9c.9-1.1 2.1-1.9 3.9-1.9c2.9 0 5.3 2.5 5.3 5.7c0 3.1-2.4 5.7-5.3 5.7c-1.6 0-2.9-.8-3.9-1.9c0 0 0 4.8 0 4.8c0 3.1.4 3.6 2.5 3.6zm17.1-14.5c-.6 0-1.1-.6-1.1-1.2c0-.6-.4-1-1-1c-.7 0-2.4 1.2-2.4 3.6c0 0 0 1.8 0 1.8c0 3.1.4 3.6 2.5 3.6c-.04-.02 0 .6 0 .6l-7.1 0c0 0-.04-.62 0-.6c2 0 2.4-.5 2.4-3.6c0 0 0-1.6 0-1.6c0-3.1-.4-3.6-2.4-3.6c-.04.01 0-.6 0-.6c0 0 4.09-.82 4.1-.8c.1.3.4 1.6.5 2.2c.6-1.2 2-2.2 3.3-2.2c1.7 0 2.4 1.1 2.4 1.9c0 .7-.3 1.5-1.2 1.5zm10.3.3c.3-1-.2-2.5-2.3-2.5c-1.3 0-2.4 1-2.9 2.5c0 0 5.2 0 5.2 0zm-1.3 6.4c1 0 2.5-.6 3.4-1.5c0 0 .5.7.5.7c-1.1 1.2-2.9 2.1-4.7 2.1c-3.4 0-5.7-2.6-5.7-5.7c0-3.3 2.8-5.7 5.7-5.7c2.8 0 5 2.2 4.2 4.9c0 0-7.5 0-7.5 0c-.3 2.9.9 5.2 4.1 5.2zm5-8.5c0 0-.05-.75 0-.8c1.8-.4 2.5-1.7 2.7-3.7c.01 0 1.1 0 1.1 0l0 3.4l2.7 0l0 1.1l-2.7 0c0 0-.03 6.25 0 6.3c0 1.4.4 2.2 1.4 2.2c.5 0 1.3-.4 2-1.1c0 0 .5.6.5.6c-.9 1-2.2 1.8-3.3 1.8c-1.7 0-2.8-1.1-2.8-3.5c-.03-.05 0-6.3 0-6.3l-1.6 0zm9.1 9.2c0 0-.05-.62 0-.6c2 0 2.4-.5 2.4-3.6c0 0 0-1.6 0-1.6c0-3.1-.4-3.6-2.4-3.6c-.05.01 0-.6 0-.6l4.6-.8c0 0 0 6.55 0 6.6c0 3.1.4 3.6 2.5 3.6c-.05-.02 0 .6 0 .6l-7.1 0zm3.5-13.9c-.8 0-1.4-.6-1.4-1.4c0-.7.6-1.3 1.4-1.3c.7 0 1.4.6 1.4 1.3c0 .8-.7 1.4-1.4 1.4zm12.9 6.1c0-.04-3.5 8.4-3.5 8.4l-.6 0c0 0-3.8-8.44-3.8-8.4c-.6-1.4-1.1-1.9-2.1-1.9c-.04.03 0-.6 0-.6l5.5 0c0 0-.02.63 0 .6c-1.5 0-1.6.4-1 1.9c-.02-.04 2.2 4.9 2.2 4.9c0 0 2.06-4.94 2.1-4.9c.5-1.4.4-1.9-.9-1.9c-.04.03 0-.6 0-.6l4.3 0c0 0 0 .63 0 .6c-1.1 0-1.6.5-2.2 1.9zm10.2.7c.3-1-.2-2.5-2.2-2.5c-1.4 0-2.5 1-3 2.5c0 0 5.2 0 5.2 0zm-1.3 6.4c1 0 2.5-.6 3.4-1.5c0 0 .6.7.6.7c-1.1 1.2-3 2.1-4.8 2.1c-3.4 0-5.7-2.6-5.7-5.7c0-3.3 2.8-5.7 5.7-5.7c2.8 0 5 2.2 4.2 4.9c0 0-7.4 0-7.4 0c-.4 2.9.8 5.2 4 5.2zm19.7-6.4c.4-1-.2-2.5-2.2-2.5c-1.3 0-2.5 1-2.9 2.5c0 0 5.1 0 5.1 0zm-1.3 6.4c1.1 0 2.5-.6 3.4-1.5c0 0 .6.7.6.7c-1.1 1.2-3 2.1-4.7 2.1c-3.5 0-5.8-2.6-5.8-5.7c0-3.3 2.9-5.7 5.8-5.7c2.7 0 4.9 2.2 4.2 4.9c0 0-7.5 0-7.5 0c-.4 2.9.8 5.2 4 5.2zm9.1-1.7c-1.2 1.2-.9 1.8.6 1.8c.05-.02 0 .6 0 .6l-4.7 0c0 0-.03-.62 0-.6c.6 0 1.3-.5 2.7-1.8c-.03-.02 2.3-2.5 2.3-2.5c0 0-2.11-2.94-2.1-2.9c-1.1-1.5-1.7-1.9-2.7-1.9c-.04.03 0-.6 0-.6l6.2 0c0 0 .02.63 0 .6c-1.7 0-2 .4-.9 1.9c.02-.04 1 1.3 1 1.3c0 0 1.32-1.34 1.3-1.3c1.3-1.3.6-1.9-.6-1.9c-.03.03 0-.6 0-.6l5 0c0 0 .02.63 0 .6c-.8 0-1.7.6-3 1.9c.04-.04-2.1 2.2-2.1 2.2c0 0 2.36 3.18 2.4 3.2c.9 1.4 1.7 1.8 2.9 1.8c.01-.02 0 .6 0 .6l-6.5 0c0 0 0-.62 0-.6c1.7 0 1.8-.6.9-1.8c.03-.02-1.2-1.7-1.2-1.7c0 0-1.5 1.68-1.5 1.7zm16.9-7.2c-1.5 0-2.6 1-3.2 2.4c0 0 0 4 0 4c.6 1.5 1.7 2.5 3.2 2.5c2.3 0 3.5-2 3.5-4.4c0-2.5-1.2-4.5-3.5-4.5zm-.8 16.7c.05.03 0 .7 0 .7l-7.1 0c0 0 .05-.67 0-.7c2.1 0 2.5-.5 2.5-3.6c0 0 0-9.3 0-9.3c0-3.1-.4-3.6-2.5-3.6c.05.01 0-.6 0-.6c0 0 4.2-.82 4.2-.8c.2.3.4 1.4.5 1.9c.9-1.1 2.1-1.9 3.8-1.9c3 0 5.4 2.5 5.4 5.7c0 3.1-2.4 5.7-5.4 5.7c-1.5 0-2.9-.8-3.8-1.9c0 0 0 4.8 0 4.8c0 3.1.4 3.6 2.4 3.6zm16.7-14.2c.3-1-.2-2.5-2.3-2.5c-1.3 0-2.5 1-2.9 2.5c0 0 5.2 0 5.2 0zm-1.3 6.4c1 0 2.5-.6 3.4-1.5c0 0 .5.7.5.7c-1.1 1.2-2.9 2.1-4.7 2.1c-3.4 0-5.8-2.6-5.8-5.7c0-3.3 2.9-5.7 5.8-5.7c2.7 0 4.9 2.2 4.2 4.9c0 0-7.5 0-7.5 0c-.3 2.9.9 5.2 4.1 5.2zm14.6-6.7c-.6 0-1.1-.6-1.1-1.2c0-.6-.4-1-1-1c-.7 0-2.4 1.2-2.4 3.6c0 0 0 1.8 0 1.8c0 3.1.4 3.6 2.4 3.6c.05-.02 0 .6 0 .6l-7.1 0c0 0 .05-.62 0-.6c2.1 0 2.5-.5 2.5-3.6c0 0 0-1.6 0-1.6c0-3.1-.4-3.6-2.5-3.6c.05.01 0-.6 0-.6c0 0 4.17-.82 4.2-.8c.1.3.4 1.6.5 2.2c.6-1.2 2-2.2 3.3-2.2c1.7 0 2.4 1.1 2.4 1.9c0 .7-.3 1.5-1.2 1.5zm2.5-1.8c0 0-.01-.75 0-.8c1.9-.4 2.5-1.7 2.8-3.7c-.05 0 1 0 1 0l0 3.4l2.7 0l0 1.1l-2.7 0c0 0 .01 6.25 0 6.3c0 1.4.4 2.2 1.4 2.2c.6 0 1.3-.4 2-1.1c0 0 .5.6.5.6c-.8 1-2.2 1.8-3.2 1.8c-1.7 0-2.9-1.1-2.9-3.5c0-.05 0-6.3 0-6.3l-1.6 0zm9.1 9.2c0 0-.01-.62 0-.6c2 0 2.4-.5 2.4-3.6c0 0 0-1.6 0-1.6c0-3.1-.4-3.6-2.4-3.6c-.01.01 0-.6 0-.6l4.6-.8c0 0 .04 6.55 0 6.6c0 3.1.4 3.6 2.5 3.6c-.01-.02 0 .6 0 .6l-7.1 0zm3.5-13.9c-.7 0-1.3-.6-1.3-1.4c0-.7.6-1.3 1.3-1.3c.8 0 1.4.6 1.4 1.3c0 .8-.6 1.4-1.4 1.4zm9 14.5c-2.1 0-3.3-2.2-3.3 0c-.02-.04-.6 0-.6 0l0-4.6c0 0 .58.03.6 0c0 1.4 1.2 3.5 3.4 3.5c1 0 1.7-.7 1.7-1.6c0-.8-.6-1.3-1.7-1.9c0 0-1.7-.9-1.7-.9c-1.5-.8-2.1-2.1-2.1-3.1c0-1.7 1.6-2.8 3.2-2.8c2.3 0 2.8 1.6 2.8 0c-.04-.02.6 0 .6 0l0 3.6c0 0-.64-.02-.6 0c0-1.3-1-2.6-2.6-2.6c-1 0-1.5.5-1.5 1.3c0 .7.5 1.2 1.9 1.9c0 0 1.4.8 1.4.8c1.4.8 2.2 1.9 2.2 3c0 2-1.7 3.4-3.7 3.4zm13.2-7.7c.4-1-.2-2.5-2.2-2.5c-1.4 0-2.5 1-2.9 2.5c0 0 5.1 0 5.1 0zm-1.3 6.4c1 0 2.5-.6 3.4-1.5c0 0 .6.7.6.7c-1.1 1.2-3 2.1-4.8 2.1c-3.4 0-5.7-2.6-5.7-5.7c0-3.3 2.9-5.7 5.7-5.7c2.8 0 5 2.2 4.3 4.9c0 0-7.5 0-7.5 0c-.4 2.9.8 5.2 4 5.2zm20.8-6.7c-.6 0-1.1-.6-1.1-1.2c0-.6-.4-1-1-1c-.7 0-2.4 1.2-2.4 3.6c0 0 0 1.8 0 1.8c0 3.1.4 3.6 2.4 3.6c.04-.02 0 .6 0 .6l-7.1 0c0 0 .04-.62 0-.6c2.1 0 2.5-.5 2.5-3.6c0 0 0-1.6 0-1.6c0-3.1-.4-3.6-2.5-3.6c.04.01 0-.6 0-.6c0 0 4.16-.82 4.2-.8c.1.3.4 1.6.5 2.2c.6-1.2 2-2.2 3.2-2.2c1.7 0 2.5 1.1 2.5 1.9c0 .7-.3 1.5-1.2 1.5zm10.2.3c.4-1-.1-2.5-2.2-2.5c-1.3 0-2.5 1-2.9 2.5c0 0 5.1 0 5.1 0zm-1.3 6.4c1.1 0 2.6-.6 3.5-1.5c0 0 .5.7.5.7c-1.1 1.2-3 2.1-4.7 2.1c-3.4 0-5.8-2.6-5.8-5.7c0-3.3 2.9-5.7 5.8-5.7c2.7 0 4.9 2.2 4.2 4.9c0 0-7.5 0-7.5 0c-.4 2.9.8 5.2 4 5.2zm14.3-7.1c-.01-.04-3.5 8.4-3.5 8.4l-.6 0c0 0-3.82-8.44-3.8-8.4c-.6-1.4-1.1-1.9-2.2-1.9c.04.03 0-.6 0-.6l5.6 0c0 0-.04.63 0 .6c-1.5 0-1.6.4-1 1.9c-.03-.04 2.2 4.9 2.2 4.9c0 0 2.05-4.94 2-4.9c.6-1.4.5-1.9-.9-1.9c.05.03 0-.6 0-.6l4.4 0c0 0-.01.63 0 .6c-1.1 0-1.7.5-2.2 1.9zm10.2.7c.3-1-.2-2.5-2.3-2.5c-1.3 0-2.4 1-2.9 2.5c0 0 5.2 0 5.2 0zm-1.3 6.4c1 0 2.5-.6 3.4-1.5c0 0 .5.7.5.7c-1 1.2-2.9 2.1-4.7 2.1c-3.4 0-5.7-2.6-5.7-5.7c0-3.3 2.8-5.7 5.7-5.7c2.8 0 5 2.2 4.2 4.9c0 0-7.5 0-7.5 0c-.3 2.9.9 5.2 4.1 5.2zm14.4 1.1c-1.2 0-2-.7-2.1-1.8c-1.5 1.3-2.7 1.8-3.9 1.8c-1.5 0-2.8-.9-2.8-2.6c0-2.6 3.1-3.8 6.6-4.4c0-2.3-.3-3.2-2.1-3.2c-.7 0-1.7.5-1.7 1.5c0 .6-.5 1-1.1 1c-.6 0-1.1-.4-1.1-1c0-1.5 2-2.5 4-2.5c3 0 4.2 1.3 4.2 4.2c0 0 0 4.7 0 4.7c0 .8.3 1.2.7 1.2c.3 0 .7-.3.9-.5c0 0 .4.6.4.6c-.6.6-1.3 1-2 1zm-2.2-6c-2.9.7-4.3 1.7-4.3 3.1c0 .9.7 1.5 1.5 1.5c.6 0 1.4-.2 2.8-1.5c0 0 0-3.1 0-3.1zm5.3 5.6c0 0 .01-.62 0-.6c2.1 0 2.5-.5 2.5-3.6c0 0 0-9.8 0-9.8c0-3.1-.4-3.7-2.5-3.7c.01.03 0-.6 0-.6l4.7-.8c0 0-.04 14.85 0 14.9c0 3.1.4 3.6 2.4 3.6c.01-.02 0 .6 0 .6l-7.1 0zm18.4.6c-2.2 0-3.4-2.2-3.4 0c.04-.04-.6 0-.6 0l0-4.6c0 0 .64.03.6 0c0 1.4 1.2 3.5 3.5 3.5c.9 0 1.7-.7 1.7-1.6c0-.8-.7-1.3-1.7-1.9c0 0-1.8-.9-1.8-.9c-1.5-.8-2-2.1-2-3.1c0-1.7 1.5-2.8 3.1-2.8c2.4 0 2.8 1.6 2.8 0c.02-.02.7 0 .7 0l0 3.6c0 0-.68-.02-.7 0c0-1.3-.9-2.6-2.5-2.6c-1 0-1.6.5-1.6 1.3c0 .7.6 1.2 1.9 1.9c0 0 1.5.8 1.5.8c1.4.8 2.1 1.9 2.1 3c0 2-1.6 3.4-3.6 3.4zm15.4 0c-.1-.4-.4-1.5-.5-2c-.7.8-2.2 2-4 2c-2.9 0-3.9-2.1-3.9-4.7c0 0 0-1.9 0-1.9c0-3.1-.3-3.7-2.4-3.7c-.02.03 0-.6 0-.6l4.6 0c0 0 .03 6.05 0 6.1c0 2 .7 3.3 2.4 3.3c1.2 0 3.3-1.2 3.3-3.1c0 0 0-2 0-2c0-3.1-.4-3.7-2.4-3.7c-.04.03 0-.6 0-.6l4.6 0c0 0 .01 5.8 0 5.8c0 3.1.4 3.6 2.5 3.6c-.01.03 0 .7 0 .7c0 0-4.17.76-4.2.8zm14.7-8c-.6 0-1.1-.6-1.1-1.2c0-.6-.3-1-1-1c-.7 0-2.3 1.2-2.3 3.6c0 0 0 1.8 0 1.8c0 3.1.3 3.6 2.4 3.6c.01-.02 0 .6 0 .6l-7.1 0c0 0 .01-.62 0-.6c2.1 0 2.5-.5 2.5-3.6c0 0 0-1.6 0-1.6c0-3.1-.4-3.6-2.5-3.6c.01.01 0-.6 0-.6c0 0 4.14-.82 4.1-.8c.2.3.5 1.6.6 2.2c.6-1.2 2-2.2 3.2-2.2c1.7 0 2.5 1.1 2.5 1.9c0 .7-.3 1.5-1.3 1.5zm10.2-2.2c-1.4 0-2.5 1-3.1 2.4c0 0 0 4 0 4c.6 1.5 1.7 2.5 3.1 2.5c2.4 0 3.5-2 3.5-4.4c0-2.5-1.1-4.5-3.5-4.5zm-.7 16.7c.02.03 0 .7 0 .7l-7.1 0c0 0 .02-.67 0-.7c2.1 0 2.5-.5 2.5-3.6c0 0 0-9.3 0-9.3c0-3.1-.4-3.6-2.5-3.6c.02.01 0-.6 0-.6c0 0 4.18-.82 4.2-.8c.1.3.3 1.4.4 1.9c.9-1.1 2.2-1.9 3.9-1.9c2.9 0 5.3 2.5 5.3 5.7c0 3.1-2.4 5.7-5.3 5.7c-1.6 0-2.9-.8-3.8-1.9c0 0 0 4.8 0 4.8c0 3.1.4 3.6 2.4 3.6zm17.1-14.5c-.6 0-1.1-.6-1.1-1.2c0-.6-.3-1-1-1c-.7 0-2.4 1.2-2.4 3.6c0 0 0 1.8 0 1.8c0 3.1.4 3.6 2.5 3.6c-.01-.02 0 .6 0 .6l-7.1 0c0 0-.01-.62 0-.6c2 0 2.4-.5 2.4-3.6c0 0 0-1.6 0-1.6c0-3.1-.4-3.6-2.4-3.6c-.01.01 0-.6 0-.6c0 0 4.12-.82 4.1-.8c.2.3.5 1.6.5 2.2c.7-1.2 2.1-2.2 3.3-2.2c1.7 0 2.4 1.1 2.4 1.9c0 .7-.2 1.5-1.2 1.5zm2.7 7.4c0 0-.01-.62 0-.6c2 0 2.4-.5 2.4-3.6c0 0 0-1.6 0-1.6c0-3.1-.4-3.6-2.4-3.6c-.01.01 0-.6 0-.6l4.6-.8c0 0 .04 6.55 0 6.6c0 3.1.4 3.6 2.5 3.6c-.01-.02 0 .6 0 .6l-7.1 0zm3.5-13.9c-.7 0-1.3-.6-1.3-1.4c0-.7.6-1.3 1.3-1.3c.8 0 1.4.6 1.4 1.3c0 .8-.6 1.4-1.4 1.4zm9 14.5c-2.1 0-3.3-2.2-3.3 0c-.02-.04-.6 0-.6 0l0-4.6c0 0 .58.03.6 0c0 1.4 1.2 3.5 3.4 3.5c1 0 1.7-.7 1.7-1.6c0-.8-.6-1.3-1.7-1.9c0 0-1.7-.9-1.7-.9c-1.5-.8-2.1-2.1-2.1-3.1c0-1.7 1.6-2.8 3.2-2.8c2.3 0 2.8 1.6 2.8 0c-.04-.02.6 0 .6 0l0 3.6c0 0-.64-.02-.6 0c0-1.3-1-2.6-2.6-2.6c-1 0-1.5.5-1.5 1.3c0 .7.5 1.2 1.9 1.9c0 0 1.4.8 1.4.8c1.4.8 2.2 1.9 2.2 3c0 2-1.7 3.4-3.7 3.4zm5.1-.6c0 0 0-.62 0-.6c2 0 2.4-.5 2.4-3.6c0 0 0-1.6 0-1.6c0-3.1-.4-3.6-2.4-3.6c0 .01 0-.6 0-.6l4.6-.8c0 0 .05 6.55 0 6.6c0 3.1.4 3.6 2.5 3.6c0-.02 0 .6 0 .6l-7.1 0zm3.5-13.9c-.7 0-1.3-.6-1.3-1.4c0-.7.6-1.3 1.3-1.3c.8 0 1.4.6 1.4 1.3c0 .8-.6 1.4-1.4 1.4zm14 3.1c2.7 0 4 2 4 4.6c0 0 0 2 0 2c0 3.1.4 3.6 2.4 3.6c.03-.02 0 .6 0 .6l-7.1 0c0 0 .03-.62 0-.6c2 0 2.5-.5 2.5-3.6c0 0 0-1.8 0-1.8c0-2.1-.7-3.4-2.6-3.4c-1.7 0-3.6 1.4-3.6 3.1c0 0 0 2.1 0 2.1c0 3.1.3 3.6 2.2 3.6c.01-.02 0 .6 0 .6l-6.8 0c0 0-.01-.62 0-.6c2 0 2.4-.5 2.4-3.6c0 0 0-1.6 0-1.6c0-3.1-.4-3.6-2.4-3.6c-.01.01 0-.6 0-.6c0 0 4.11-.82 4.1-.8c.2.3.4 1.6.5 2.2c.9-1 2.3-2.2 4.4-2.2zm12.5 1c-1.5 0-2.2 1.4-2.2 3.2c0 1.8.7 3.2 2.2 3.2c1.6 0 2.3-1.4 2.3-3.2c0-1.8-.7-3.2-2.3-3.2zm0 9.9c4.3.3 5.6 2.2 5.6 4.1c0 2.5-2.4 4.1-5.5 4.1c-5.2 0-7.3-3.8-3.4-5.8c0 0 .5.3.5.3c-2.6 2.9.5 4.3 2.9 4.3c2 0 3.9-.9 3.9-2.4c0-1.4-1.6-1.9-4.2-2.2c-2.5-.2-4.4-1-4.4-2.8c0-1.2 1-2 2.6-2.5c-1.5-.8-2.6-2.1-2.6-3.8c0-2.3 2.1-4.2 4.6-4.2c1.3 0 2.4.4 3.2 1.2c.6-.7 1.7-1.2 2.4-1.2c2.1 0 2.2 2.5 1 2.6c-1.4.1-.6-1.4-1.9-1.4c-.2 0-.6.1-.9.5c.5.7.9 1.6.9 2.5c0 2.3-2.1 3.9-4.1 4.2c-1.3.2-3.4.5-3.4 1.3c0 .9 1.8 1.1 2.8 1.2zm23.3-7.2c-.6-1.5-1.8-2.5-3.2-2.5c-2.4 0-3.5 2-3.5 4.5c0 2.4 1.1 4.4 3.5 4.4c1.4 0 2.6-1 3.2-2.4c0 0 0-4 0-4zm0-6.9c0-3.1-.4-3.7-2.5-3.7c.01.03 0-.6 0-.6l4.7-.8c0 0-.04 14.6 0 14.6c0 3.1.4 3.6 2.4 3.6c0 .03 0 .7 0 .7c0 0-4.12.76-4.1.8c-.2-.4-.4-1.4-.5-1.9c-.9 1.1-2.1 1.9-3.8 1.9c-3 0-5.4-2.6-5.4-5.7c0-3.2 2.4-5.7 5.4-5.7c1.5 0 2.8.7 3.8 1.8c0 0 0-5 0-5zm13.2 6.9c.4-1-.2-2.5-2.2-2.5c-1.4 0-2.5 1-2.9 2.5c0 0 5.1 0 5.1 0zm-1.3 6.4c1 0 2.5-.6 3.4-1.5c0 0 .6.7.6.7c-1.1 1.2-3 2.1-4.8 2.1c-3.4 0-5.7-2.6-5.7-5.7c0-3.3 2.8-5.7 5.7-5.7c2.8 0 5 2.2 4.2 4.9c0 0-7.4 0-7.4 0c-.4 2.9.8 5.2 4 5.2zm5-8.5c0 0 0-.75 0-.8c1.9-.4 2.5-1.7 2.8-3.7c-.05 0 1 0 1 0l0 3.4l2.7 0l0 1.1l-2.7 0c0 0 .01 6.25 0 6.3c0 1.4.4 2.2 1.4 2.2c.6 0 1.3-.4 2-1.1c0 0 .5.6.5.6c-.8 1-2.2 1.8-3.2 1.8c-1.7 0-2.9-1.1-2.9-3.5c.01-.05 0-6.3 0-6.3l-1.6 0zm17.9 9.6c-1.2 0-2-.7-2.1-1.8c-1.5 1.3-2.7 1.8-3.9 1.8c-1.5 0-2.8-.9-2.8-2.6c0-2.6 3.1-3.8 6.6-4.4c0-2.3-.3-3.2-2.1-3.2c-.7 0-1.7.5-1.7 1.5c0 .6-.5 1-1.1 1c-.6 0-1.1-.4-1.1-1c0-1.5 2-2.5 4-2.5c3 0 4.2 1.3 4.2 4.2c0 0 0 4.7 0 4.7c0 .8.3 1.2.7 1.2c.3 0 .7-.3.9-.5c0 0 .4.6.4.6c-.6.6-1.3 1-2 1zm-2.2-6c-2.9.7-4.3 1.7-4.3 3.1c0 .9.7 1.5 1.5 1.5c.6 0 1.4-.2 2.8-1.5c0 0 0-3.1 0-3.1zm5.6 5.6c0 0 0-.62 0-.6c2 0 2.4-.5 2.4-3.6c0 0 0-1.6 0-1.6c0-3.1-.4-3.6-2.4-3.6c0 .01 0-.6 0-.6l4.6-.8c0 0 .05 6.55 0 6.6c0 3.1.4 3.6 2.5 3.6c-.01-.02 0 .6 0 .6l-7.1 0zm3.5-13.9c-.7 0-1.3-.6-1.3-1.4c0-.7.6-1.3 1.3-1.3c.8 0 1.4.6 1.4 1.3c0 .8-.6 1.4-1.4 1.4zm4.7 13.9c0 0 0-.62 0-.6c2.1 0 2.5-.5 2.5-3.6c0 0 0-9.8 0-9.8c0-3.1-.4-3.7-2.5-3.7c0 .03 0-.6 0-.6l4.7-.8c0 0-.05 14.85 0 14.9c0 3.1.4 3.6 2.4 3.6c0-.02 0 .6 0 .6l-7.1 0zm12.5.6c-2.1 0-3.3-2.2-3.3 0c.01-.04-.6 0-.6 0l0-4.6c0 0 .61.03.6 0c0 1.4 1.2 3.5 3.4 3.5c1 0 1.8-.7 1.8-1.6c0-.8-.7-1.3-1.8-1.9c0 0-1.7-.9-1.7-.9c-1.5-.8-2.1-2.1-2.1-3.1c0-1.7 1.6-2.8 3.2-2.8c2.3 0 2.8 1.6 2.8 0c-.01-.02.6 0 .6 0l0 3.6c0 0-.61-.02-.6 0c0-1.3-.9-2.6-2.5-2.6c-1.1 0-1.6.5-1.6 1.3c0 .7.5 1.2 1.9 1.9c0 0 1.5.8 1.5.8c1.3.8 2.1 1.9 2.1 3c0 2-1.7 3.4-3.7 3.4zm8.5-.3c-1 0-1.7-.8-1.7-1.6c0-.9.7-1.7 1.7-1.7c1 0 1.8.8 1.8 1.7c0 .8-.8 1.6-1.8 1.6z" stroke="none" fill="#fff"/></g></svg>