<svg xmlns="http://www.w3.org/2000/svg" version="1.1" width="156px" height="84.3px" viewBox="0 0 156 84.3"><desc>Cotton doll symbolizing ancestors</desc><defs/><g id="Polygon47649"><path d="m7.9 50.2c0 1.6 0 2.5.2 3.5c0 0-1 0-1 0c-.1-.4-.2-.9-.2-1.4c0 0 0 0 0 0c-.6 1.1-1.5 1.6-2.9 1.6c-1.4 0-2.9-.7-2.9-2.5c0-2.5 2.9-2.8 4.6-2.8c-.03.04 1.2 0 1.2 0c0 0 .03-.46 0-.5c0-1.4-1-2-2.3-2c-1 0-1.8.3-2.5 1c0 0-.7-.8-.7-.8c.8-.7 2.1-1.2 3.2-1.2c2 0 3.3.9 3.3 3.1c0 0 0 2 0 2zm-2.2-.7c-1.8 0-3.6.5-3.6 1.9c0 1 1 1.5 1.9 1.5c2.3 0 2.9-1.5 2.9-2.8c.03-.04 0-.6 0-.6c0 0-1.16 0-1.2 0zm5-1.8c0-.6-.1-1.9-.1-2.3c0 0 1.1 0 1.1 0c0 .6 0 1.3.1 1.4c0 0 0 0 0 0c.5-.9 1.5-1.7 2.9-1.7c2.6 0 3.1 1.8 3.1 3.6c.03.03 0 5 0 5l-1 0c0 0-.05-4.92 0-4.9c0-1.4-.4-2.7-2.1-2.7c-1.6 0-2.9 1.1-2.9 3.4c-.01.02 0 4.2 0 4.2l-1.1 0c0 0 .01-6 0-6zm16.9 4.8c-.8.9-1.9 1.4-3.1 1.4c-2.5 0-4.4-1.8-4.4-4.4c0-2.5 1.9-4.4 4.4-4.4c1.2 0 2.3.6 3.1 1.5c0 0-.8.6-.8.6c-.7-.6-1.4-1.1-2.3-1.1c-2 0-3.3 1.5-3.3 3.4c0 1.9 1.3 3.4 3.3 3.4c.9 0 1.7-.4 2.3-1.1c0 0 .8.7.8.7zm9-.4c-.9 1.3-2.2 1.8-3.6 1.8c-2.6 0-4.2-1.8-4.2-4.4c0-2.5 1.7-4.4 4.1-4.4c2.6 0 3.9 2 3.9 3.9c.02.04 0 .8 0 .8c0 0-6.96-.01-7 0c0 .9.7 3.1 3.2 3.1c1.1 0 2.2-.6 2.8-1.5c0 0 .8.7.8.7zm-.9-3.3c0-1.5-1.2-2.7-2.8-2.7c-2.4 0-3.1 2.3-3.1 2.7c0 0 5.9 0 5.9 0zm3.6 2.8c.5.8 1.5 1.3 2.4 1.3c1 0 1.9-.6 1.9-1.5c0-2.3-4.9-.7-4.9-3.9c0-1.6 1.5-2.4 2.9-2.4c1.3 0 2.3.6 2.9 1.6c0 0-1 .6-1 .6c-.4-.8-1-1.2-1.9-1.2c-.8 0-1.8.5-1.8 1.4c0 2.2 4.9.5 4.9 3.8c0 1.7-1.4 2.6-3 2.6c-1.4 0-2.7-.5-3.3-1.7c0 0 .9-.6.9-.6zm12-5.3l-2.4 0c0 0-.01 5.45 0 5.5c0 .7.4 1.1 1.1 1.1c.5 0 .9-.1 1.3-.3c0 0 .1 1 .1 1c-.4.2-1 .3-1.5.3c-1.5 0-2.1-1-2.1-2.1c.01-.05 0-5.5 0-5.5l-1.8 0l0-.9l1.8 0l0-2.4l1.1 0l0 2.4l2.4 0l0 .9zm5.5-1.2c2.5 0 4.3 1.9 4.3 4.4c0 2.6-1.8 4.4-4.3 4.4c-2.6 0-4.4-1.8-4.4-4.4c0-2.5 1.8-4.4 4.4-4.4zm0 7.8c2 0 3.3-1.5 3.3-3.4c0-1.9-1.3-3.4-3.3-3.4c-2.1 0-3.3 1.5-3.3 3.4c0 1.9 1.2 3.4 3.3 3.4zm6.7-5.2c0-.6-.1-1.9-.1-2.3c0 0 1.1 0 1.1 0c0 .6 0 1.3 0 1.4c.6-1 1.4-1.7 2.7-1.7c.2 0 .4.1.6.1c0 0-.1 1.1-.1 1.1c-.2-.1-.3-.1-.4-.1c-1.9 0-2.7 1.3-2.7 2.9c-.04.04 0 4.6 0 4.6l-1.1 0c0 0-.02-6 0-6zm6.2 3.9c.5.8 1.5 1.3 2.4 1.3c1 0 1.9-.6 1.9-1.5c0-2.3-4.9-.7-4.9-3.9c0-1.6 1.5-2.4 2.8-2.4c1.4 0 2.4.6 3 1.6c0 0-1 .6-1 .6c-.4-.8-1-1.2-2-1.2c-.7 0-1.7.5-1.7 1.4c0 2.2 4.9.5 4.9 3.8c0 1.7-1.4 2.6-3 2.6c-1.4 0-2.7-.5-3.3-1.7c0 0 .9-.6.9-.6z" stroke="none" fill="#000"/></g><g id="Polygon47648"><path d="m1.5 31.6c.4.8 1.4 1.3 2.4 1.3c.9 0 1.9-.6 1.9-1.5c0-2.3-5-.7-5-3.9c0-1.6 1.5-2.4 2.9-2.4c1.3 0 2.4.6 2.9 1.6c0 0-.9.6-.9.6c-.5-.8-1-1.2-2-1.2c-.8 0-1.8.5-1.8 1.4c0 2.2 5 .5 5 3.8c0 1.7-1.5 2.6-3 2.6c-1.5 0-2.7-.5-3.4-1.7c0 0 1-.6 1-.6zm10 4.7c-.4 1-1.1 1.7-2.3 1.7c-.3 0-.7-.1-1-.2c0 0 .1-1 .1-1c.3.1.6.2 1 .2c.7 0 1.1-.7 1.3-1.4c.04.04.8-1.9.8-1.9l-3.4-8.3l1.2 0l2.8 7l2.7-7l1.1 0c0 0-4.28 10.85-4.3 10.9zm6.1-8.6c0-.6-.1-1.9-.1-2.3c0 0 1.1 0 1.1 0c0 .6.1 1.3.1 1.4c0 0 .1 0 .1 0c.4-.9 1.4-1.7 2.8-1.7c1.1 0 2.1.6 2.5 1.8c.5-1.2 1.7-1.8 2.8-1.8c2.6 0 3.2 1.8 3.2 3.6c-.01.03 0 5 0 5l-1.1 0c0 0 .01-4.92 0-4.9c0-1.4-.4-2.7-2.1-2.7c-2 0-2.5 1.7-2.5 2.9c0 0 0 4.7 0 4.7l-1.1 0c0 0 .02-5.02 0-5c0-1.6-.5-2.6-1.7-2.6c-1.6 0-2.9 1.1-2.9 3.4c.02.02 0 4.2 0 4.2l-1.1 0c0 0 .04-6 0-6zm15.2-7.6l1.1 0l0 6.7c0 0 0 .02 0 0c.7-1.1 2.1-1.7 3.3-1.7c2.6 0 4.4 1.9 4.4 4.4c0 2.6-1.8 4.4-4.4 4.4c-1.2 0-2.6-.5-3.3-1.7c0 .02 0 0 0 0l0 1.5l-1.1 0l0-13.6zm4.4 12.8c2.1 0 3.3-1.5 3.3-3.4c0-1.9-1.2-3.4-3.3-3.4c-1.9 0-3.4 1.5-3.4 3.4c0 1.9 1.5 3.4 3.4 3.4zm10.7-7.8c2.5 0 4.4 1.9 4.4 4.4c0 2.6-1.9 4.4-4.4 4.4c-2.6 0-4.4-1.8-4.4-4.4c0-2.5 1.8-4.4 4.4-4.4zm0 7.8c2 0 3.3-1.5 3.3-3.4c0-1.9-1.3-3.4-3.3-3.4c-2 0-3.3 1.5-3.3 3.4c0 1.9 1.3 3.4 3.3 3.4zm6.8-12.8l1.1 0l0 13.6l-1.1 0l0-13.6zm4.1 5.3l1.1 0l0 8.3l-1.1 0l0-8.3zm.5-4.1c.5 0 .8.3.8.8c0 .4-.3.8-.8.8c-.4 0-.8-.4-.8-.8c0-.5.4-.8.8-.8zm2.5 11.7l5-6.7l-4.7 0l0-.9l6.2 0l0 .6l-5 6.7l5.2 0l0 1l-6.7 0l0-.7zm8.7-7.6l1.1 0l0 8.3l-1.1 0l0-8.3zm.5-4.1c.5 0 .8.3.8.8c0 .4-.3.8-.8.8c-.4 0-.8-.4-.8-.8c0-.5.4-.8.8-.8zm3.5 6.4c0-.6-.1-1.9-.1-2.3c0 0 1.1 0 1.1 0c0 .6 0 1.3 0 1.4c0 0 .1 0 .1 0c.4-.9 1.5-1.7 2.8-1.7c2.6 0 3.2 1.8 3.2 3.6c.01.03 0 5 0 5l-1.1 0c0 0 .03-4.92 0-4.9c0-1.4-.3-2.7-2.1-2.7c-1.6 0-2.8 1.1-2.8 3.4c-.04.02 0 4.2 0 4.2l-1.1 0c0 0-.02-6 0-6zm18.2 5.4c0 4.2-2.8 4.9-4.5 4.9c-1.6 0-3.2-.6-4.1-1.7c0 0 .9-.8.9-.8c.7 1 1.9 1.5 3.2 1.5c3.3 0 3.4-2.9 3.4-3.8c-.02.01 0-1.1 0-1.1c0 0-.06-.04-.1 0c-.6.9-1.7 1.6-3.1 1.6c-2.5 0-4.5-1.9-4.5-4.3c0-2.3 2-4.3 4.5-4.3c1.4 0 2.5.7 3.1 1.7c.04-.03.1 0 .1 0l0-1.4l1.1 0c0 0-.04 7.74 0 7.7zm-4.4-7c-1.8 0-3.3 1.5-3.3 3.3c0 1.8 1.5 3.3 3.3 3.3c1.8 0 3.3-1.5 3.3-3.3c0-1.8-1.5-3.3-3.3-3.3z" stroke="none" fill="#000"/></g><g id="Polygon47647"><path d="m12.2 11.7c-1.2 1.6-2.8 2.3-4.7 2.3c-3.9 0-6.6-2.8-6.6-6.7c0-3.9 2.7-6.7 6.6-6.7c1.7 0 3.3.6 4.4 2c0 0-1 .8-1 .8c-.8-1.2-2.1-1.7-3.4-1.7c-3.3 0-5.4 2.4-5.4 5.6c0 3.2 2.1 5.6 5.4 5.6c1.3 0 2.9-.6 3.8-2c0 0 .9.8.9.8zm5.8-6.6c2.6 0 4.4 1.9 4.4 4.4c0 2.6-1.8 4.4-4.4 4.4c-2.5 0-4.3-1.8-4.3-4.4c0-2.5 1.8-4.4 4.3-4.4zm0 7.8c2.1 0 3.3-1.5 3.3-3.4c0-1.9-1.2-3.4-3.3-3.4c-2 0-3.3 1.5-3.3 3.4c0 1.9 1.3 3.4 3.3 3.4zm10.7-6.6l-2.4 0c0 0-.01 5.45 0 5.5c0 .7.4 1.1 1.1 1.1c.5 0 .9-.1 1.3-.3c0 0 .1 1 .1 1c-.4.2-1 .3-1.4.3c-1.6 0-2.2-1-2.2-2.1c.01-.05 0-5.5 0-5.5l-1.8 0l0-.9l1.8 0l0-2.4l1.1 0l0 2.4l2.4 0l0 .9zm6.5 0l-2.4 0c0 0 .05 5.45 0 5.5c0 .7.5 1.1 1.2 1.1c.4 0 .8-.1 1.2-.3c0 0 .1 1 .1 1c-.4.2-1 .3-1.4.3c-1.5 0-2.1-1-2.1-2.1c-.03-.05 0-5.5 0-5.5l-1.8 0l0-.9l1.8 0l0-2.4l1 0l0 2.4l2.4 0l0 .9zm5.5-1.2c2.6 0 4.4 1.9 4.4 4.4c0 2.6-1.8 4.4-4.4 4.4c-2.5 0-4.3-1.8-4.3-4.4c0-2.5 1.8-4.4 4.3-4.4zm0 7.8c2.1 0 3.3-1.5 3.3-3.4c0-1.9-1.2-3.4-3.3-3.4c-2 0-3.3 1.5-3.3 3.4c0 1.9 1.3 3.4 3.3 3.4zm6.7-5.2c0-.6-.1-1.9-.1-2.3c0 0 1.1 0 1.1 0c0 .6.1 1.3.1 1.4c0 0 .1 0 .1 0c.4-.9 1.4-1.7 2.8-1.7c2.6 0 3.2 1.8 3.2 3.6c-.04.03 0 5 0 5l-1.1 0c0 0-.02-4.92 0-4.9c0-1.4-.4-2.7-2.1-2.7c-1.6 0-2.9 1.1-2.9 3.4c.01.02 0 4.2 0 4.2l-1.1 0c0 0 .03-6 0-6zm22 4.5c0 0-.04.02 0 0c-.7 1.2-2.1 1.7-3.4 1.7c-2.5 0-4.3-1.8-4.3-4.4c0-2.5 1.8-4.4 4.3-4.4c1.3 0 2.7.6 3.4 1.7c-.04.02 0 0 0 0l0-6.7l1.1 0l0 13.6l-1.1 0l0-1.5zm-3.4-6.1c-2 0-3.3 1.5-3.3 3.4c0 1.9 1.3 3.4 3.3 3.4c2 0 3.5-1.5 3.5-3.4c0-1.9-1.5-3.4-3.5-3.4zm11.1-1c2.5 0 4.4 1.9 4.4 4.4c0 2.6-1.9 4.4-4.4 4.4c-2.6 0-4.4-1.8-4.4-4.4c0-2.5 1.8-4.4 4.4-4.4zm0 7.8c2 0 3.3-1.5 3.3-3.4c0-1.9-1.3-3.4-3.3-3.4c-2.1 0-3.3 1.5-3.3 3.4c0 1.9 1.2 3.4 3.3 3.4zm6.8-12.8l1.1 0l0 13.6l-1.1 0l0-13.6zm4 0l1.1 0l0 13.6l-1.1 0l0-13.6z" stroke="none" fill="#000"/></g></svg>