<?xml version="1.0" standalone="no"?><!DOCTYPE svg PUBLIC "-//W3C//DTD SVG 1.1//EN" "http://www.w3.org/Graphics/SVG/1.1/DTD/svg11.dtd"><svg xmlns="http://www.w3.org/2000/svg" version="1.1" width="718px" height="43.3px" viewBox="0 0 718 43.3">  <desc>Each rendering technique reveals different secrets of the boli s interior</desc>  <defs/>  <g id="Polygon47176">    <path d="M 1.4 0.9 L 9.9 0.9 L 9.9 3 L 3.7 3 L 3.7 6.1 L 9.5 6.1 L 9.5 8.2 L 3.7 8.2 L 3.7 11.6 L 10.2 11.6 L 10.2 13.7 L 1.4 13.7 L 1.4 0.9 Z M 17.6 12.5 C 17.6 12.5 17.57 12.49 17.6 12.5 C 17 13.5 15.9 13.9 14.8 13.9 C 13.2 13.9 11.6 13 11.6 11.3 C 11.6 8.5 14.9 8.3 17.1 8.3 C 17.08 8.3 17.6 8.3 17.6 8.3 C 17.6 8.3 17.62 8.06 17.6 8.1 C 17.6 7 16.8 6.4 15.6 6.4 C 14.7 6.4 13.9 6.8 13.3 7.3 C 13.3 7.3 12.2 6.2 12.2 6.2 C 13.2 5.2 14.5 4.8 15.9 4.8 C 19.6 4.8 19.6 7.5 19.6 8.7 C 19.57 8.71 19.6 13.7 19.6 13.7 L 17.6 13.7 L 17.6 12.5 Z M 17.5 9.8 C 17.5 9.8 17.05 9.81 17 9.8 C 15.9 9.8 13.8 9.9 13.8 11.1 C 13.8 11.9 14.6 12.3 15.3 12.3 C 16.8 12.3 17.5 11.5 17.5 10.3 C 17.5 10.3 17.5 9.8 17.5 9.8 Z M 27.8 7.6 C 27.3 7.1 26.7 6.8 26.2 6.8 C 24.6 6.8 23.6 8 23.6 9.4 C 23.6 10.7 24.6 12 26.2 12 C 26.8 12 27.4 11.7 27.8 11.1 C 27.8 11.1 29.3 12.7 29.3 12.7 C 28.4 13.6 26.9 13.9 26.2 13.9 C 23.5 13.9 21.5 12.1 21.5 9.4 C 21.5 6.6 23.5 4.8 26.2 4.8 C 27.3 4.8 28.5 5.2 29.3 6.1 C 29.3 6.1 27.8 7.6 27.8 7.6 Z M 32.7 6.2 C 32.7 6.2 32.76 6.25 32.8 6.2 C 33.1 5.5 34 4.8 35.3 4.8 C 37.6 4.8 38.4 6.5 38.4 8.2 C 38.45 8.23 38.4 13.7 38.4 13.7 L 36.3 13.7 C 36.3 13.7 36.29 9.31 36.3 9.3 C 36.3 8.4 36.2 6.8 34.7 6.8 C 33.3 6.8 32.7 7.8 32.7 9 C 32.72 8.96 32.7 13.7 32.7 13.7 L 30.6 13.7 L 30.6 0.1 L 32.7 0.1 L 32.7 6.2 Z M 46.2 5 L 48.4 5 L 48.4 6.4 C 48.4 6.4 48.42 6.41 48.4 6.4 C 48.9 5.4 49.8 4.8 51 4.8 C 51.2 4.8 51.5 4.9 51.7 4.9 C 51.7 4.9 51.7 7 51.7 7 C 51.4 6.9 51 6.9 50.7 6.9 C 48.7 6.9 48.4 8.6 48.4 9.1 C 48.38 9.05 48.4 13.7 48.4 13.7 L 46.2 13.7 L 46.2 5 Z M 54.6 10.1 C 54.8 11.4 55.7 12.2 57 12.2 C 58 12.2 58.7 11.7 59.3 11 C 59.3 11 60.8 12.2 60.8 12.2 C 59.8 13.4 58.5 13.9 57.2 13.9 C 54.6 13.9 52.5 12.1 52.5 9.4 C 52.5 6.6 54.6 4.8 57.2 4.8 C 59.6 4.8 61.2 6.5 61.2 9.5 C 61.22 9.52 61.2 10.1 61.2 10.1 C 61.2 10.1 54.63 10.12 54.6 10.1 Z M 59.1 8.5 C 59 7.2 58.2 6.4 56.9 6.4 C 55.6 6.4 54.8 7.3 54.6 8.5 C 54.6 8.5 59.1 8.5 59.1 8.5 Z M 63.2 5 L 65.3 5 L 65.3 6.4 C 65.3 6.4 65.32 6.43 65.3 6.4 C 65.7 5.6 66.5 4.8 68 4.8 C 70.3 4.8 71.1 6.5 71.1 8.2 C 71.12 8.23 71.1 13.7 71.1 13.7 L 69 13.7 C 69 13.7 68.96 9.31 69 9.3 C 69 8.4 68.9 6.8 67.4 6.8 C 66 6.8 65.4 7.8 65.4 9 C 65.4 8.96 65.4 13.7 65.4 13.7 L 63.2 13.7 L 63.2 5 Z M 80.4 12.4 C 80.4 12.4 80.37 12.38 80.4 12.4 C 79.7 13.4 78.6 13.9 77.4 13.9 C 74.7 13.9 73.1 11.9 73.1 9.4 C 73.1 6.8 74.8 4.8 77.3 4.8 C 78.9 4.8 79.8 5.6 80.2 6.1 C 80.25 6.14 80.3 6.1 80.3 6.1 L 80.3 0.1 L 82.5 0.1 L 82.5 13.7 L 80.4 13.7 L 80.4 12.4 Z M 77.8 12 C 79.4 12 80.4 10.7 80.4 9.4 C 80.4 8 79.4 6.8 77.8 6.8 C 76.2 6.8 75.3 8 75.3 9.4 C 75.3 10.7 76.2 12 77.8 12 Z M 86.6 10.1 C 86.8 11.4 87.8 12.2 89 12.2 C 90 12.2 90.7 11.7 91.3 11 C 91.3 11 92.8 12.2 92.8 12.2 C 91.8 13.4 90.5 13.9 89.2 13.9 C 86.6 13.9 84.5 12.1 84.5 9.4 C 84.5 6.6 86.6 4.8 89.2 4.8 C 91.6 4.8 93.2 6.5 93.2 9.5 C 93.22 9.52 93.2 10.1 93.2 10.1 C 93.2 10.1 86.64 10.12 86.6 10.1 Z M 91.1 8.5 C 91 7.2 90.2 6.4 88.9 6.4 C 87.6 6.4 86.8 7.3 86.6 8.5 C 86.6 8.5 91.1 8.5 91.1 8.5 Z M 95.2 5 L 97.4 5 L 97.4 6.4 C 97.4 6.4 97.44 6.41 97.4 6.4 C 97.9 5.4 98.9 4.8 100 4.8 C 100.3 4.8 100.5 4.9 100.8 4.9 C 100.8 4.9 100.8 7 100.8 7 C 100.4 6.9 100.1 6.9 99.7 6.9 C 97.7 6.9 97.4 8.6 97.4 9.1 C 97.4 9.05 97.4 13.7 97.4 13.7 L 95.2 13.7 L 95.2 5 Z M 102.3 5 L 104.4 5 L 104.4 13.7 L 102.3 13.7 L 102.3 5 Z M 103.3 0.8 C 104.1 0.8 104.7 1.4 104.7 2.1 C 104.7 2.8 104.1 3.4 103.3 3.4 C 102.5 3.4 102 2.8 102 2.1 C 102 1.4 102.5 0.8 103.3 0.8 Z M 106.9 5 L 109 5 L 109 6.4 C 109 6.4 109.01 6.43 109 6.4 C 109.4 5.6 110.2 4.8 111.7 4.8 C 114 4.8 114.8 6.5 114.8 8.2 C 114.81 8.23 114.8 13.7 114.8 13.7 L 112.6 13.7 C 112.6 13.7 112.65 9.31 112.6 9.3 C 112.6 8.4 112.6 6.8 111.1 6.8 C 109.6 6.8 109.1 7.8 109.1 9 C 109.08 8.96 109.1 13.7 109.1 13.7 L 106.9 13.7 L 106.9 5 Z M 126.1 5 C 126.1 5 126.15 12.91 126.1 12.9 C 126.1 16 124.6 18 121.3 18 C 119.7 18 118.2 17.7 117 16.6 C 117 16.6 118.3 14.8 118.3 14.8 C 119.1 15.6 120 16.1 121.2 16.1 C 123.3 16.1 124 14.9 124 13.2 C 123.99 13.16 124 12.5 124 12.5 C 124 12.5 123.95 12.53 123.9 12.5 C 123.3 13.4 122.2 13.8 121.1 13.8 C 118.5 13.8 116.8 11.8 116.8 9.4 C 116.8 6.8 118.4 4.8 121.1 4.8 C 122.3 4.8 123.4 5.3 124.1 6.3 C 124.06 6.34 124.1 6.3 124.1 6.3 L 124.1 5 L 126.1 5 Z M 119 9.3 C 119 10.7 120.1 11.8 121.5 11.8 C 123.1 11.8 124.1 10.7 124.1 9.3 C 124.1 7.8 123.1 6.8 121.5 6.8 C 120 6.8 119 7.8 119 9.3 Z M 132.9 6.9 L 132.9 5 L 134.7 5 L 134.7 2.5 L 136.9 2.5 L 136.9 5 L 139.2 5 L 139.2 6.9 L 136.9 6.9 C 136.9 6.9 136.85 10.66 136.9 10.7 C 136.9 11.5 137.1 12.1 138.1 12.1 C 138.4 12.1 139 12 139.2 11.8 C 139.2 11.8 139.2 13.6 139.2 13.6 C 138.8 13.8 138 13.9 137.5 13.9 C 135.2 13.9 134.7 12.9 134.7 10.8 C 134.69 10.84 134.7 6.9 134.7 6.9 L 132.9 6.9 Z M 142.7 10.1 C 142.8 11.4 143.8 12.2 145 12.2 C 146.1 12.2 146.8 11.7 147.3 11 C 147.3 11 148.8 12.2 148.8 12.2 C 147.8 13.4 146.6 13.9 145.2 13.9 C 142.6 13.9 140.5 12.1 140.5 9.4 C 140.5 6.6 142.6 4.8 145.2 4.8 C 147.6 4.8 149.2 6.5 149.2 9.5 C 149.24 9.52 149.2 10.1 149.2 10.1 C 149.2 10.1 142.65 10.12 142.7 10.1 Z M 147.1 8.5 C 147.1 7.2 146.2 6.4 144.9 6.4 C 143.6 6.4 142.8 7.3 142.7 8.5 C 142.7 8.5 147.1 8.5 147.1 8.5 Z M 157.2 7.6 C 156.7 7.1 156.1 6.8 155.5 6.8 C 153.9 6.8 153 8 153 9.4 C 153 10.7 153.9 12 155.5 12 C 156.2 12 156.8 11.7 157.2 11.1 C 157.2 11.1 158.6 12.7 158.6 12.7 C 157.8 13.6 156.3 13.9 155.5 13.9 C 152.9 13.9 150.8 12.1 150.8 9.4 C 150.8 6.6 152.9 4.8 155.5 4.8 C 156.6 4.8 157.8 5.2 158.7 6.1 C 158.7 6.1 157.2 7.6 157.2 7.6 Z M 162.1 6.2 C 162.1 6.2 162.13 6.25 162.1 6.2 C 162.5 5.5 163.3 4.8 164.7 4.8 C 167 4.8 167.8 6.5 167.8 8.2 C 167.81 8.23 167.8 13.7 167.8 13.7 L 165.7 13.7 C 165.7 13.7 165.65 9.31 165.7 9.3 C 165.7 8.4 165.6 6.8 164.1 6.8 C 162.6 6.8 162.1 7.8 162.1 9 C 162.09 8.96 162.1 13.7 162.1 13.7 L 159.9 13.7 L 159.9 0.1 L 162.1 0.1 L 162.1 6.2 Z M 170.3 5 L 172.3 5 L 172.3 6.4 C 172.3 6.4 172.35 6.43 172.4 6.4 C 172.7 5.6 173.6 4.8 175 4.8 C 177.3 4.8 178.1 6.5 178.1 8.2 C 178.15 8.23 178.1 13.7 178.1 13.7 L 176 13.7 C 176 13.7 175.99 9.31 176 9.3 C 176 8.4 175.9 6.8 174.4 6.8 C 173 6.8 172.4 7.8 172.4 9 C 172.42 8.96 172.4 13.7 172.4 13.7 L 170.3 13.7 L 170.3 5 Z M 180.6 5 L 182.8 5 L 182.8 13.7 L 180.6 13.7 L 180.6 5 Z M 181.7 0.8 C 182.5 0.8 183.1 1.4 183.1 2.1 C 183.1 2.8 182.5 3.4 181.7 3.4 C 180.9 3.4 180.3 2.8 180.3 2.1 C 180.3 1.4 180.9 0.8 181.7 0.8 Z M 194.2 17.8 L 192 17.8 L 192 12.6 C 192 12.6 191.95 12.58 192 12.6 C 191.5 13.1 190.6 13.9 189 13.9 C 186.6 13.9 184.8 11.9 184.8 9.4 C 184.8 6.8 186.4 4.8 189.1 4.8 C 190.3 4.8 191.4 5.3 192.1 6.3 C 192.08 6.34 192.1 6.3 192.1 6.3 L 192.1 5 L 194.2 5 L 194.2 17.8 Z M 189.5 12 C 191.1 12 192.1 10.7 192.1 9.4 C 192.1 8 191.1 6.8 189.5 6.8 C 188 6.8 187 8 187 9.4 C 187 10.7 188 12 189.5 12 Z M 204.5 13.7 L 202.4 13.7 L 202.4 12.3 C 202.4 12.3 202.41 12.29 202.4 12.3 C 202 13.2 201.2 13.9 199.8 13.9 C 197.4 13.9 196.6 12.3 196.6 10.5 C 196.61 10.49 196.6 5 196.6 5 L 198.8 5 C 198.8 5 198.77 9.41 198.8 9.4 C 198.8 10.4 198.8 12 200.4 12 C 201.8 12 202.3 10.9 202.3 9.8 C 202.34 9.76 202.3 5 202.3 5 L 204.5 5 L 204.5 13.7 Z M 208.7 10.1 C 208.8 11.4 209.8 12.2 211 12.2 C 212.1 12.2 212.8 11.7 213.3 11 C 213.3 11 214.9 12.2 214.9 12.2 C 213.9 13.4 212.6 13.9 211.2 13.9 C 208.6 13.9 206.5 12.1 206.5 9.4 C 206.5 6.6 208.6 4.8 211.2 4.8 C 213.6 4.8 215.3 6.5 215.3 9.5 C 215.26 9.52 215.3 10.1 215.3 10.1 C 215.3 10.1 208.67 10.12 208.7 10.1 Z M 213.1 8.5 C 213.1 7.2 212.3 6.4 210.9 6.4 C 209.6 6.4 208.8 7.3 208.7 8.5 C 208.7 8.5 213.1 8.5 213.1 8.5 Z M 222.6 5 L 224.8 5 L 224.8 6.4 C 224.8 6.4 224.8 6.41 224.8 6.4 C 225.3 5.4 226.2 4.8 227.4 4.8 C 227.6 4.8 227.9 4.9 228.1 4.9 C 228.1 4.9 228.1 7 228.1 7 C 227.8 6.9 227.4 6.9 227.1 6.9 C 225.1 6.9 224.8 8.6 224.8 9.1 C 224.77 9.05 224.8 13.7 224.8 13.7 L 222.6 13.7 L 222.6 5 Z M 231 10.1 C 231.2 11.4 232.1 12.2 233.3 12.2 C 234.4 12.2 235.1 11.7 235.7 11 C 235.7 11 237.2 12.2 237.2 12.2 C 236.2 13.4 234.9 13.9 233.6 13.9 C 230.9 13.9 228.9 12.1 228.9 9.4 C 228.9 6.6 230.9 4.8 233.6 4.8 C 236 4.8 237.6 6.5 237.6 9.5 C 237.6 9.52 237.6 10.1 237.6 10.1 C 237.6 10.1 231.01 10.12 231 10.1 Z M 235.4 8.5 C 235.4 7.2 234.6 6.4 233.2 6.4 C 232 6.4 231.2 7.3 231 8.5 C 231 8.5 235.4 8.5 235.4 8.5 Z M 238.4 5 L 240.8 5 L 243.1 11.1 L 243.1 11.1 L 245.5 5 L 247.7 5 L 244.3 13.7 L 242 13.7 L 238.4 5 Z M 250.7 10.1 C 250.8 11.4 251.8 12.2 253 12.2 C 254.1 12.2 254.8 11.7 255.3 11 C 255.3 11 256.9 12.2 256.9 12.2 C 255.9 13.4 254.6 13.9 253.2 13.9 C 250.6 13.9 248.5 12.1 248.5 9.4 C 248.5 6.6 250.6 4.8 253.2 4.8 C 255.6 4.8 257.3 6.5 257.3 9.5 C 257.28 9.52 257.3 10.1 257.3 10.1 C 257.3 10.1 250.69 10.12 250.7 10.1 Z M 255.1 8.5 C 255.1 7.2 254.3 6.4 252.9 6.4 C 251.6 6.4 250.8 7.3 250.7 8.5 C 250.7 8.5 255.1 8.5 255.1 8.5 Z M 264.7 12.5 C 264.7 12.5 264.64 12.49 264.6 12.5 C 264 13.5 263 13.9 261.9 13.9 C 260.3 13.9 258.7 13 258.7 11.3 C 258.7 8.5 262 8.3 264.2 8.3 C 264.15 8.3 264.7 8.3 264.7 8.3 C 264.7 8.3 264.69 8.06 264.7 8.1 C 264.7 7 263.9 6.4 262.7 6.4 C 261.8 6.4 261 6.8 260.4 7.3 C 260.4 7.3 259.3 6.2 259.3 6.2 C 260.2 5.2 261.6 4.8 262.9 4.8 C 266.6 4.8 266.6 7.5 266.6 8.7 C 266.64 8.71 266.6 13.7 266.6 13.7 L 264.7 13.7 L 264.7 12.5 Z M 264.6 9.8 C 264.6 9.8 264.12 9.81 264.1 9.8 C 262.9 9.8 260.9 9.9 260.9 11.1 C 260.9 11.9 261.7 12.3 262.4 12.3 C 263.9 12.3 264.6 11.5 264.6 10.3 C 264.57 10.3 264.6 9.8 264.6 9.8 Z M 269 0.1 L 271.2 0.1 L 271.2 13.7 L 269 13.7 L 269 0.1 Z M 278.2 7.4 C 277.8 6.9 277.3 6.6 276.6 6.6 C 276 6.6 275.3 6.8 275.3 7.5 C 275.3 9 280 7.8 280 11.1 C 280 13.2 278 13.9 276.2 13.9 C 274.9 13.9 273.7 13.6 272.9 12.6 C 272.9 12.6 274.3 11.2 274.3 11.2 C 274.9 11.8 275.4 12.3 276.4 12.3 C 277 12.3 277.8 12 277.8 11.3 C 277.8 9.5 273.1 10.9 273.1 7.6 C 273.1 5.7 274.9 4.8 276.6 4.8 C 277.8 4.8 279 5.2 279.7 6.1 C 279.7 6.1 278.2 7.4 278.2 7.4 Z M 293.8 12.4 C 293.8 12.4 293.76 12.38 293.8 12.4 C 293.1 13.4 292 13.9 290.8 13.9 C 288.1 13.9 286.5 11.9 286.5 9.4 C 286.5 6.8 288.2 4.8 290.7 4.8 C 292.3 4.8 293.2 5.6 293.6 6.1 C 293.63 6.14 293.7 6.1 293.7 6.1 L 293.7 0.1 L 295.8 0.1 L 295.8 13.7 L 293.8 13.7 L 293.8 12.4 Z M 291.2 12 C 292.8 12 293.8 10.7 293.8 9.4 C 293.8 8 292.8 6.8 291.2 6.8 C 289.6 6.8 288.7 8 288.7 9.4 C 288.7 10.7 289.6 12 291.2 12 Z M 298.3 5 L 300.5 5 L 300.5 13.7 L 298.3 13.7 L 298.3 5 Z M 299.4 0.8 C 300.2 0.8 300.8 1.4 300.8 2.1 C 300.8 2.8 300.2 3.4 299.4 3.4 C 298.6 3.4 298 2.8 298 2.1 C 298 1.4 298.6 0.8 299.4 0.8 Z M 303.8 6.9 L 302 6.9 L 302 5 L 303.8 5 C 303.8 5 303.75 3.82 303.8 3.8 C 303.8 1.4 304.3 -0.1 307 -0.1 C 307.4 -0.1 307.9 -0.1 308.3 0 C 308.3 0 308.2 1.8 308.2 1.8 C 307.9 1.7 307.6 1.7 307.3 1.7 C 306.1 1.7 305.9 2.5 305.9 3.5 C 305.91 3.47 305.9 5 305.9 5 L 307.9 5 L 307.9 6.9 L 305.9 6.9 L 305.9 13.7 L 303.8 13.7 L 303.8 6.9 Z M 309.8 6.9 L 308 6.9 L 308 5 L 309.8 5 C 309.8 5 309.77 3.82 309.8 3.8 C 309.8 1.4 310.3 -0.1 313 -0.1 C 313.5 -0.1 313.9 -0.1 314.4 0 C 314.4 0 314.2 1.8 314.2 1.8 C 313.9 1.7 313.6 1.7 313.3 1.7 C 312.1 1.7 311.9 2.5 311.9 3.5 C 311.93 3.47 311.9 5 311.9 5 L 313.9 5 L 313.9 6.9 L 311.9 6.9 L 311.9 13.7 L 309.8 13.7 L 309.8 6.9 Z M 317.1 10.1 C 317.2 11.4 318.2 12.2 319.4 12.2 C 320.5 12.2 321.2 11.7 321.7 11 C 321.7 11 323.2 12.2 323.2 12.2 C 322.2 13.4 321 13.9 319.6 13.9 C 317 13.9 314.9 12.1 314.9 9.4 C 314.9 6.6 317 4.8 319.6 4.8 C 322 4.8 323.6 6.5 323.6 9.5 C 323.64 9.52 323.6 10.1 323.6 10.1 C 323.6 10.1 317.06 10.12 317.1 10.1 Z M 321.5 8.5 C 321.5 7.2 320.6 6.4 319.3 6.4 C 318 6.4 317.2 7.3 317.1 8.5 C 317.1 8.5 321.5 8.5 321.5 8.5 Z M 325.7 5 L 327.8 5 L 327.8 6.4 C 327.8 6.4 327.86 6.41 327.9 6.4 C 328.3 5.4 329.3 4.8 330.4 4.8 C 330.7 4.8 330.9 4.9 331.2 4.9 C 331.2 4.9 331.2 7 331.2 7 C 330.8 6.9 330.5 6.9 330.1 6.9 C 328.1 6.9 327.8 8.6 327.8 9.1 C 327.82 9.05 327.8 13.7 327.8 13.7 L 325.7 13.7 L 325.7 5 Z M 334.1 10.1 C 334.2 11.4 335.2 12.2 336.4 12.2 C 337.5 12.2 338.2 11.7 338.7 11 C 338.7 11 340.3 12.2 340.3 12.2 C 339.3 13.4 338 13.9 336.6 13.9 C 334 13.9 331.9 12.1 331.9 9.4 C 331.9 6.6 334 4.8 336.6 4.8 C 339 4.8 340.7 6.5 340.7 9.5 C 340.66 9.52 340.7 10.1 340.7 10.1 C 340.7 10.1 334.07 10.12 334.1 10.1 Z M 338.5 8.5 C 338.5 7.2 337.7 6.4 336.3 6.4 C 335 6.4 334.2 7.3 334.1 8.5 C 334.1 8.5 338.5 8.5 338.5 8.5 Z M 342.7 5 L 344.7 5 L 344.7 6.4 C 344.7 6.4 344.76 6.43 344.8 6.4 C 345.2 5.6 346 4.8 347.4 4.8 C 349.7 4.8 350.6 6.5 350.6 8.2 C 350.56 8.23 350.6 13.7 350.6 13.7 L 348.4 13.7 C 348.4 13.7 348.4 9.31 348.4 9.3 C 348.4 8.4 348.3 6.8 346.8 6.8 C 345.4 6.8 344.8 7.8 344.8 9 C 344.83 8.96 344.8 13.7 344.8 13.7 L 342.7 13.7 L 342.7 5 Z M 352 6.9 L 352 5 L 353.8 5 L 353.8 2.5 L 355.9 2.5 L 355.9 5 L 358.3 5 L 358.3 6.9 L 355.9 6.9 C 355.9 6.9 355.94 10.66 355.9 10.7 C 355.9 11.5 356.2 12.1 357.1 12.1 C 357.5 12.1 358 12 358.3 11.8 C 358.3 11.8 358.3 13.6 358.3 13.6 C 357.9 13.8 357.1 13.9 356.6 13.9 C 354.3 13.9 353.8 12.9 353.8 10.8 C 353.78 10.84 353.8 6.9 353.8 6.9 L 352 6.9 Z M 369.9 7.4 C 369.5 6.9 369 6.6 368.2 6.6 C 367.7 6.6 367 6.8 367 7.5 C 367 9 371.7 7.8 371.7 11.1 C 371.7 13.2 369.7 13.9 367.9 13.9 C 366.6 13.9 365.4 13.6 364.6 12.6 C 364.6 12.6 366 11.2 366 11.2 C 366.6 11.8 367.1 12.3 368.1 12.3 C 368.7 12.3 369.5 12 369.5 11.3 C 369.5 9.5 364.8 10.9 364.8 7.6 C 364.8 5.7 366.6 4.8 368.3 4.8 C 369.5 4.8 370.7 5.2 371.4 6.1 C 371.4 6.1 369.9 7.4 369.9 7.4 Z M 375.1 10.1 C 375.2 11.4 376.2 12.2 377.4 12.2 C 378.5 12.2 379.2 11.7 379.7 11 C 379.7 11 381.2 12.2 381.2 12.2 C 380.2 13.4 379 13.9 377.6 13.9 C 375 13.9 372.9 12.1 372.9 9.4 C 372.9 6.6 375 4.8 377.6 4.8 C 380 4.8 381.6 6.5 381.6 9.5 C 381.64 9.52 381.6 10.1 381.6 10.1 C 381.6 10.1 375.05 10.12 375.1 10.1 Z M 379.5 8.5 C 379.5 7.2 378.6 6.4 377.3 6.4 C 376 6.4 375.2 7.3 375.1 8.5 C 375.1 8.5 379.5 8.5 379.5 8.5 Z M 389.6 7.6 C 389.1 7.1 388.5 6.8 387.9 6.8 C 386.3 6.8 385.4 8 385.4 9.4 C 385.4 10.7 386.3 12 387.9 12 C 388.6 12 389.2 11.7 389.6 11.1 C 389.6 11.1 391 12.7 391 12.7 C 390.2 13.6 388.7 13.9 387.9 13.9 C 385.3 13.9 383.2 12.1 383.2 9.4 C 383.2 6.6 385.3 4.8 387.9 4.8 C 389 4.8 390.2 5.2 391.1 6.1 C 391.1 6.1 389.6 7.6 389.6 7.6 Z M 392.3 5 L 394.5 5 L 394.5 6.4 C 394.5 6.4 394.53 6.41 394.5 6.4 C 395 5.4 396 4.8 397.1 4.8 C 397.4 4.8 397.6 4.9 397.9 4.9 C 397.9 4.9 397.9 7 397.9 7 C 397.5 6.9 397.2 6.9 396.8 6.9 C 394.8 6.9 394.5 8.6 394.5 9.1 C 394.49 9.05 394.5 13.7 394.5 13.7 L 392.3 13.7 L 392.3 5 Z M 400.7 10.1 C 400.9 11.4 401.9 12.2 403.1 12.2 C 404.1 12.2 404.8 11.7 405.4 11 C 405.4 11 406.9 12.2 406.9 12.2 C 405.9 13.4 404.6 13.9 403.3 13.9 C 400.7 13.9 398.6 12.1 398.6 9.4 C 398.6 6.6 400.7 4.8 403.3 4.8 C 405.7 4.8 407.3 6.5 407.3 9.5 C 407.33 9.52 407.3 10.1 407.3 10.1 C 407.3 10.1 400.74 10.12 400.7 10.1 Z M 405.2 8.5 C 405.2 7.2 404.3 6.4 403 6.4 C 401.7 6.4 400.9 7.3 400.7 8.5 C 400.7 8.5 405.2 8.5 405.2 8.5 Z M 408.3 6.9 L 408.3 5 L 410.1 5 L 410.1 2.5 L 412.3 2.5 L 412.3 5 L 414.7 5 L 414.7 6.9 L 412.3 6.9 C 412.3 6.9 412.28 10.66 412.3 10.7 C 412.3 11.5 412.5 12.1 413.5 12.1 C 413.9 12.1 414.4 12 414.7 11.8 C 414.7 11.8 414.7 13.6 414.7 13.6 C 414.2 13.8 413.5 13.9 412.9 13.9 C 410.7 13.9 410.1 12.9 410.1 10.8 C 410.12 10.84 410.1 6.9 410.1 6.9 L 408.3 6.9 Z M 421 7.4 C 420.5 6.9 420 6.6 419.3 6.6 C 418.7 6.6 418 6.8 418 7.5 C 418 9 422.7 7.8 422.7 11.1 C 422.7 13.2 420.7 13.9 418.9 13.9 C 417.6 13.9 416.5 13.6 415.6 12.6 C 415.6 12.6 417 11.2 417 11.2 C 417.6 11.8 418.1 12.3 419.1 12.3 C 419.7 12.3 420.5 12 420.5 11.3 C 420.5 9.5 415.8 10.9 415.8 7.6 C 415.8 5.7 417.6 4.8 419.3 4.8 C 420.5 4.8 421.7 5.2 422.4 6.1 C 422.4 6.1 421 7.4 421 7.4 Z M 433.9 4.8 C 436.5 4.8 438.6 6.6 438.6 9.4 C 438.6 12.1 436.5 13.9 433.9 13.9 C 431.3 13.9 429.2 12.1 429.2 9.4 C 429.2 6.6 431.3 4.8 433.9 4.8 Z M 433.9 12 C 435.5 12 436.5 10.7 436.5 9.4 C 436.5 8 435.5 6.8 433.9 6.8 C 432.3 6.8 431.4 8 431.4 9.4 C 431.4 10.7 432.3 12 433.9 12 Z M 441.4 6.9 L 439.6 6.9 L 439.6 5 L 441.4 5 C 441.4 5 441.42 3.82 441.4 3.8 C 441.4 1.4 442 -0.1 444.6 -0.1 C 445.1 -0.1 445.6 -0.1 446 0 C 446 0 445.9 1.8 445.9 1.8 C 445.6 1.7 445.3 1.7 445 1.7 C 443.8 1.7 443.6 2.5 443.6 3.5 C 443.58 3.47 443.6 5 443.6 5 L 445.6 5 L 445.6 6.9 L 443.6 6.9 L 443.6 13.7 L 441.4 13.7 L 441.4 6.9 Z M 451.3 6.9 L 451.3 5 L 453.1 5 L 453.1 2.5 L 455.2 2.5 L 455.2 5 L 457.6 5 L 457.6 6.9 L 455.2 6.9 C 455.2 6.9 455.24 10.66 455.2 10.7 C 455.2 11.5 455.5 12.1 456.5 12.1 C 456.8 12.1 457.4 12 457.6 11.8 C 457.6 11.8 457.6 13.6 457.6 13.6 C 457.2 13.8 456.4 13.9 455.9 13.9 C 453.6 13.9 453.1 12.9 453.1 10.8 C 453.08 10.84 453.1 6.9 453.1 6.9 L 451.3 6.9 Z M 461.5 6.2 C 461.5 6.2 461.51 6.25 461.5 6.2 C 461.9 5.5 462.7 4.8 464 4.8 C 466.4 4.8 467.2 6.5 467.2 8.2 C 467.2 8.23 467.2 13.7 467.2 13.7 L 465 13.7 C 465 13.7 465.04 9.31 465 9.3 C 465 8.4 465 6.8 463.5 6.8 C 462 6.8 461.5 7.8 461.5 9 C 461.47 8.96 461.5 13.7 461.5 13.7 L 459.3 13.7 L 459.3 0.1 L 461.5 0.1 L 461.5 6.2 Z M 471.4 10.1 C 471.5 11.4 472.5 12.2 473.7 12.2 C 474.8 12.2 475.5 11.7 476 11 C 476 11 477.6 12.2 477.6 12.2 C 476.6 13.4 475.3 13.9 473.9 13.9 C 471.3 13.9 469.2 12.1 469.2 9.4 C 469.2 6.6 471.3 4.8 473.9 4.8 C 476.3 4.8 478 6.5 478 9.5 C 477.96 9.52 478 10.1 478 10.1 C 478 10.1 471.37 10.12 471.4 10.1 Z M 475.8 8.5 C 475.8 7.2 475 6.4 473.6 6.4 C 472.3 6.4 471.5 7.3 471.4 8.5 C 471.4 8.5 475.8 8.5 475.8 8.5 Z M 487.2 0.1 L 489.4 0.1 L 488.5 6.1 C 488.5 6.1 488.58 6.14 488.6 6.1 C 489.1 5.6 490.1 4.8 491.7 4.8 C 494.2 4.8 495.6 6.8 495.2 9.4 C 494.9 11.9 493 13.9 490.3 13.9 C 489.1 13.9 488.1 13.4 487.6 12.4 C 487.57 12.38 487.5 12.4 487.5 12.4 L 487.4 13.7 L 485.3 13.7 L 487.2 0.1 Z M 490.9 6.8 C 489.3 6.8 488.2 8 488 9.4 C 487.8 10.7 488.6 12 490.2 12 C 491.8 12 492.9 10.7 493.1 9.4 C 493.3 8 492.5 6.8 490.9 6.8 Z M 502.2 4.8 C 504.8 4.8 506.6 6.6 506.2 9.4 C 505.8 12.1 503.5 13.9 500.9 13.9 C 498.3 13.9 496.4 12.1 496.8 9.4 C 497.2 6.6 499.5 4.8 502.2 4.8 Z M 501.2 12 C 502.7 12 503.9 10.7 504.1 9.4 C 504.2 8 503.5 6.8 501.9 6.8 C 500.3 6.8 499.2 8 499 9.4 C 498.8 10.7 499.6 12 501.2 12 Z M 509.6 0.1 L 511.7 0.1 L 509.8 13.7 L 507.7 13.7 L 509.6 0.1 Z M 513.6 5 L 515.7 5 L 514.5 13.7 L 512.3 13.7 L 513.6 5 Z M 515.2 0.8 C 516 0.8 516.5 1.4 516.4 2.1 C 516.3 2.8 515.6 3.4 514.8 3.4 C 514.1 3.4 513.6 2.8 513.7 2.1 C 513.8 1.4 514.4 0.8 515.2 0.8 Z M 518 0.9 L 520.2 0.9 L 518.6 5.7 L 516.7 5.7 L 518 0.9 Z M 525.6 7.4 C 525.2 6.9 524.6 6.6 523.9 6.6 C 523.3 6.6 522.6 6.8 522.6 7.5 C 522.6 9 527.3 7.8 527.3 11.1 C 527.3 13.2 525.3 13.9 523.6 13.9 C 522.2 13.9 521.1 13.6 520.2 12.6 C 520.2 12.6 521.6 11.2 521.6 11.2 C 522.2 11.8 522.8 12.3 523.7 12.3 C 524.3 12.3 525.1 12 525.1 11.3 C 525.1 9.5 520.5 10.9 520.5 7.6 C 520.5 5.7 522.2 4.8 523.9 4.8 C 525.1 4.8 526.3 5.2 527 6.1 C 527 6.1 525.6 7.4 525.6 7.4 Z M 534.3 5 L 536.5 5 L 536.5 13.7 L 534.3 13.7 L 534.3 5 Z M 535.4 0.8 C 536.2 0.8 536.8 1.4 536.8 2.1 C 536.8 2.8 536.2 3.4 535.4 3.4 C 534.6 3.4 534 2.8 534 2.1 C 534 1.4 534.6 0.8 535.4 0.8 Z M 539 5 L 541 5 L 541 6.4 C 541 6.4 541.07 6.43 541.1 6.4 C 541.5 5.6 542.3 4.8 543.7 4.8 C 546 4.8 546.9 6.5 546.9 8.2 C 546.86 8.23 546.9 13.7 546.9 13.7 L 544.7 13.7 C 544.7 13.7 544.7 9.31 544.7 9.3 C 544.7 8.4 544.6 6.8 543.1 6.8 C 541.7 6.8 541.1 7.8 541.1 9 C 541.14 8.96 541.1 13.7 541.1 13.7 L 539 13.7 L 539 5 Z M 548.3 6.9 L 548.3 5 L 550.1 5 L 550.1 2.5 L 552.2 2.5 L 552.2 5 L 554.6 5 L 554.6 6.9 L 552.2 6.9 C 552.2 6.9 552.25 10.66 552.2 10.7 C 552.2 11.5 552.5 12.1 553.5 12.1 C 553.8 12.1 554.4 12 554.6 11.8 C 554.6 11.8 554.6 13.6 554.6 13.6 C 554.2 13.8 553.4 13.9 552.9 13.9 C 550.6 13.9 550.1 12.9 550.1 10.8 C 550.09 10.84 550.1 6.9 550.1 6.9 L 548.3 6.9 Z M 558 10.1 C 558.2 11.4 559.2 12.2 560.4 12.2 C 561.4 12.2 562.1 11.7 562.7 11 C 562.7 11 564.2 12.2 564.2 12.2 C 563.2 13.4 561.9 13.9 560.6 13.9 C 558 13.9 555.9 12.1 555.9 9.4 C 555.9 6.6 558 4.8 560.6 4.8 C 563 4.8 564.6 6.5 564.6 9.5 C 564.63 9.52 564.6 10.1 564.6 10.1 C 564.6 10.1 558.04 10.12 558 10.1 Z M 562.5 8.5 C 562.5 7.2 561.6 6.4 560.3 6.4 C 559 6.4 558.2 7.3 558 8.5 C 558 8.5 562.5 8.5 562.5 8.5 Z M 566.6 5 L 568.8 5 L 568.8 6.4 C 568.8 6.4 568.84 6.41 568.8 6.4 C 569.3 5.4 570.3 4.8 571.4 4.8 C 571.7 4.8 571.9 4.9 572.2 4.9 C 572.2 4.9 572.2 7 572.2 7 C 571.8 6.9 571.5 6.9 571.1 6.9 C 569.1 6.9 568.8 8.6 568.8 9.1 C 568.8 9.05 568.8 13.7 568.8 13.7 L 566.6 13.7 L 566.6 5 Z M 573.7 5 L 575.8 5 L 575.8 13.7 L 573.7 13.7 L 573.7 5 Z M 574.7 0.8 C 575.5 0.8 576.1 1.4 576.1 2.1 C 576.1 2.8 575.5 3.4 574.7 3.4 C 574 3.4 573.4 2.8 573.4 2.1 C 573.4 1.4 574 0.8 574.7 0.8 Z M 582.6 4.8 C 585.2 4.8 587.3 6.6 587.3 9.4 C 587.3 12.1 585.2 13.9 582.6 13.9 C 580 13.9 577.9 12.1 577.9 9.4 C 577.9 6.6 580 4.8 582.6 4.8 Z M 582.6 12 C 584.2 12 585.1 10.7 585.1 9.4 C 585.1 8 584.2 6.8 582.6 6.8 C 581 6.8 580.1 8 580.1 9.4 C 580.1 10.7 581 12 582.6 12 Z M 589.3 5 L 591.5 5 L 591.5 6.4 C 591.5 6.4 591.5 6.41 591.5 6.4 C 592 5.4 592.9 4.8 594.1 4.8 C 594.3 4.8 594.6 4.9 594.8 4.9 C 594.8 4.9 594.8 7 594.8 7 C 594.5 6.9 594.1 6.9 593.8 6.9 C 591.8 6.9 591.5 8.6 591.5 9.1 C 591.47 9.05 591.5 13.7 591.5 13.7 L 589.3 13.7 L 589.3 5 Z M 596.1 11 C 596.9 11 597.5 11.6 597.5 12.4 C 597.5 13.2 596.9 13.8 596.1 13.8 C 595.3 13.8 594.7 13.2 594.7 12.4 C 594.7 11.6 595.3 11 596.1 11 Z " stroke="none" fill="#be870e"/>  </g></svg>