<?xml version="1.0" standalone="no"?><!DOCTYPE svg PUBLIC "-//W3C//DTD SVG 1.1//EN" "http://www.w3.org/Graphics/SVG/1.1/DTD/svg11.dtd"><svg xmlns="http://www.w3.org/2000/svg" version="1.1" width="546px" height="203.8px" viewBox="0 0 546 203.8">  <desc>2328 Lake Place, Minneapolis Measures approx 3,200 sq ft Built for about 14,000 in 1913</desc>  <defs/>  <g id="Polygon46884">    <path d="M 1.9 125.9 C 1.9 125.9 8.52 125.93 8.5 125.9 C 11.1 125.9 13.7 127.1 13.7 130.2 C 13.7 132.1 12.5 133.4 10.8 133.9 C 10.8 133.9 10.8 134 10.8 134 C 12.9 134.2 14.4 135.9 14.4 138.1 C 14.4 141.8 11.2 142.9 8 142.9 C 8.02 142.92 1.9 142.9 1.9 142.9 L 1.9 125.9 Z M 4.9 132.8 C 4.9 132.8 7.68 132.84 7.7 132.8 C 9.7 132.8 10.7 132 10.7 130.7 C 10.7 129.2 9.7 128.5 7.4 128.5 C 7.42 128.52 4.9 128.5 4.9 128.5 L 4.9 132.8 Z M 4.9 140.3 C 4.9 140.3 7.7 140.33 7.7 140.3 C 9.3 140.3 11.4 140.1 11.4 137.8 C 11.4 136.1 10.3 135.4 7.8 135.4 C 7.82 135.43 4.9 135.4 4.9 135.4 L 4.9 140.3 Z M 27.6 142.9 L 24.9 142.9 L 24.9 141.1 C 24.9 141.1 24.82 141.07 24.8 141.1 C 24.3 142.2 23.2 143.2 21.3 143.2 C 18.2 143.2 17.1 141 17.1 138.7 C 17.09 138.67 17.1 131.4 17.1 131.4 L 20 131.4 C 20 131.4 19.97 137.23 20 137.2 C 20 138.5 20.1 140.6 22.1 140.6 C 24 140.6 24.7 139.2 24.7 137.7 C 24.72 137.69 24.7 131.4 24.7 131.4 L 27.6 131.4 L 27.6 142.9 Z M 30.9 131.4 L 33.8 131.4 L 33.8 142.9 L 30.9 142.9 L 30.9 131.4 Z M 32.3 125.8 C 33.4 125.8 34.2 126.5 34.2 127.5 C 34.2 128.5 33.4 129.2 32.3 129.2 C 31.3 129.2 30.5 128.4 30.5 127.5 C 30.5 126.6 31.3 125.8 32.3 125.8 Z M 37.1 124.8 L 40 124.8 L 40 142.9 L 37.1 142.9 L 37.1 124.8 Z M 41.9 133.8 L 41.9 131.4 L 44.3 131.4 L 44.3 128.1 L 47.2 128.1 L 47.2 131.4 L 50.3 131.4 L 50.3 133.8 L 47.2 133.8 C 47.2 133.8 47.15 138.89 47.2 138.9 C 47.2 140 47.5 140.8 48.8 140.8 C 49.3 140.8 50 140.7 50.3 140.4 C 50.3 140.4 50.3 142.8 50.3 142.8 C 49.7 143.1 48.7 143.2 48 143.2 C 45 143.2 44.3 141.8 44.3 139.1 C 44.27 139.13 44.3 133.8 44.3 133.8 L 41.9 133.8 Z M 60.7 133.8 L 58.3 133.8 L 58.3 131.4 L 60.7 131.4 C 60.7 131.4 60.71 129.77 60.7 129.8 C 60.7 126.6 61.4 124.5 65 124.5 C 65.6 124.5 66.2 124.5 66.8 124.7 C 66.8 124.7 66.6 127.1 66.6 127.1 C 66.2 127 65.9 126.9 65.4 126.9 C 63.8 126.9 63.6 128 63.6 129.3 C 63.59 129.31 63.6 131.4 63.6 131.4 L 66.3 131.4 L 66.3 133.8 L 63.6 133.8 L 63.6 142.9 L 60.7 142.9 L 60.7 133.8 Z M 73.7 131.1 C 77.2 131.1 80 133.5 80 137.2 C 80 140.8 77.2 143.2 73.7 143.2 C 70.2 143.2 67.5 140.8 67.5 137.2 C 67.5 133.5 70.2 131.1 73.7 131.1 Z M 73.7 140.6 C 75.8 140.6 77.1 139 77.1 137.2 C 77.1 135.4 75.8 133.7 73.7 133.7 C 71.6 133.7 70.3 135.4 70.3 137.2 C 70.3 139 71.6 140.6 73.7 140.6 Z M 82.6 131.4 L 85.5 131.4 L 85.5 133.2 C 85.5 133.2 85.56 133.22 85.6 133.2 C 86.2 131.9 87.5 131.1 89 131.1 C 89.3 131.1 89.7 131.2 90 131.3 C 90 131.3 90 134.1 90 134.1 C 89.5 133.9 89.1 133.8 88.6 133.8 C 85.9 133.8 85.5 136.1 85.5 136.8 C 85.51 136.75 85.5 142.9 85.5 142.9 L 82.6 142.9 L 82.6 131.4 Z M 106.3 141.3 C 106.3 141.3 106.2 141.34 106.2 141.3 C 105.4 142.6 104 143.2 102.5 143.2 C 100.4 143.2 98.3 142 98.3 139.8 C 98.3 136 102.7 135.7 105.6 135.7 C 105.55 135.74 106.3 135.7 106.3 135.7 C 106.3 135.7 106.27 135.43 106.3 135.4 C 106.3 134 105.2 133.3 103.6 133.3 C 102.4 133.3 101.3 133.8 100.6 134.5 C 100.6 134.5 99 133 99 133 C 100.3 131.7 102.1 131.1 103.9 131.1 C 108.9 131.1 108.9 134.7 108.9 136.3 C 108.86 136.3 108.9 142.9 108.9 142.9 L 106.3 142.9 L 106.3 141.3 Z M 106.1 137.8 C 106.1 137.8 105.5 137.76 105.5 137.8 C 103.9 137.8 101.2 137.9 101.2 139.5 C 101.2 140.6 102.3 141 103.2 141 C 105.2 141 106.1 140 106.1 138.4 C 106.1 138.41 106.1 137.8 106.1 137.8 Z M 112 124.8 L 114.9 124.8 L 114.9 132.9 C 114.9 132.9 114.99 132.86 115 132.9 C 115.6 132.1 116.7 131.1 118.9 131.1 C 122.2 131.1 124.5 133.8 124.5 137.2 C 124.5 140.6 122.3 143.2 118.8 143.2 C 117.2 143.2 115.7 142.6 114.8 141.2 C 114.83 141.19 114.8 141.2 114.8 141.2 L 114.8 142.9 L 112 142.9 L 112 124.8 Z M 118.2 133.7 C 116.1 133.7 114.8 135.4 114.8 137.2 C 114.8 139 116.1 140.6 118.2 140.6 C 120.3 140.6 121.6 139 121.6 137.2 C 121.6 135.4 120.3 133.7 118.2 133.7 Z M 132.8 131.1 C 136.3 131.1 139.1 133.5 139.1 137.2 C 139.1 140.8 136.3 143.2 132.8 143.2 C 129.3 143.2 126.6 140.8 126.6 137.2 C 126.6 133.5 129.3 131.1 132.8 131.1 Z M 132.8 140.6 C 134.9 140.6 136.2 139 136.2 137.2 C 136.2 135.4 134.9 133.7 132.8 133.7 C 130.7 133.7 129.4 135.4 129.4 137.2 C 129.4 139 130.7 140.6 132.8 140.6 Z M 152.2 142.9 L 149.5 142.9 L 149.5 141.1 C 149.5 141.1 149.42 141.07 149.4 141.1 C 148.9 142.2 147.8 143.2 145.9 143.2 C 142.8 143.2 141.7 141 141.7 138.7 C 141.69 138.67 141.7 131.4 141.7 131.4 L 144.6 131.4 C 144.6 131.4 144.57 137.23 144.6 137.2 C 144.6 138.5 144.7 140.6 146.7 140.6 C 148.6 140.6 149.3 139.2 149.3 137.7 C 149.33 137.69 149.3 131.4 149.3 131.4 L 152.2 131.4 L 152.2 142.9 Z M 154.1 133.8 L 154.1 131.4 L 156.5 131.4 L 156.5 128.1 L 159.4 128.1 L 159.4 131.4 L 162.5 131.4 L 162.5 133.8 L 159.4 133.8 C 159.4 133.8 159.38 138.89 159.4 138.9 C 159.4 140 159.7 140.8 161 140.8 C 161.5 140.8 162.2 140.7 162.5 140.4 C 162.5 140.4 162.5 142.8 162.5 142.8 C 161.9 143.1 160.9 143.2 160.3 143.2 C 157.2 143.2 156.5 141.8 156.5 139.1 C 156.5 139.13 156.5 133.8 156.5 133.8 L 154.1 133.8 Z M 177.9 125.6 C 177.9 125.6 178.12 125.64 178.1 125.6 C 179.8 125.6 181.6 126.2 182.8 127.3 C 182.8 127.3 180.8 129.5 180.8 129.5 C 180.1 128.7 179 128.2 177.9 128.2 C 177.9 128.23 177.9 133 177.9 133 C 177.9 133 178 133.06 178 133.1 C 180.7 133.8 183.4 134.6 183.4 137.9 C 183.4 141.1 181 142.9 177.9 143.2 C 177.9 143.18 177.9 144.9 177.9 144.9 L 176.6 144.9 C 176.6 144.9 176.61 143.21 176.6 143.2 C 174.5 143.2 172.5 142.6 171 141.1 C 171 141.1 173.2 138.8 173.2 138.8 C 174 139.9 175.3 140.5 176.6 140.6 C 176.61 140.62 176.6 135.6 176.6 135.6 C 176.6 135.6 176.49 135.53 176.5 135.5 C 173.8 134.8 171.4 133.8 171.4 130.6 C 171.4 127.8 173.9 125.9 176.6 125.7 C 176.61 125.66 176.6 124.1 176.6 124.1 L 177.9 124.1 L 177.9 125.6 Z M 176.6 128.3 C 175.5 128.5 174.4 129.2 174.4 130.5 C 174.4 131.9 175.5 132.2 176.6 132.7 C 176.6 132.7 176.6 128.3 176.6 128.3 Z M 177.9 140.6 C 179.2 140.4 180.4 139.6 180.4 138.1 C 180.4 136.7 179 136.3 177.9 135.9 C 177.9 135.9 177.9 140.6 177.9 140.6 Z M 189 129.2 L 185.8 132.2 L 184.2 130.2 L 189.3 125.9 L 191.9 125.9 L 191.9 142.9 L 189 142.9 L 189 129.2 Z M 202.9 139.5 L 195.7 139.5 L 195.7 136.6 L 202.5 125.9 L 205.8 125.9 L 205.8 136.9 L 208.2 136.9 L 208.2 139.5 L 205.8 139.5 L 205.8 142.9 L 202.9 142.9 L 202.9 139.5 Z M 202.9 130 L 202.8 130 L 198.6 136.9 L 202.9 136.9 L 202.9 130 Z M 211.3 139.6 L 214.2 139.6 L 212.2 145.9 L 209.6 145.9 L 211.3 139.6 Z M 222.3 125.6 C 224.2 125.6 228.5 126.4 228.5 134.4 C 228.5 142.5 224.2 143.2 222.3 143.2 C 220.4 143.2 216.2 142.5 216.2 134.4 C 216.2 126.4 220.4 125.6 222.3 125.6 Z M 222.3 140.5 C 225.2 140.5 225.6 136.5 225.6 134.4 C 225.6 132.3 225.2 128.4 222.3 128.4 C 219.4 128.4 219.1 132.3 219.1 134.4 C 219.1 136.5 219.4 140.5 222.3 140.5 Z M 236.8 125.6 C 238.7 125.6 242.9 126.4 242.9 134.4 C 242.9 142.5 238.7 143.2 236.8 143.2 C 234.9 143.2 230.6 142.5 230.6 134.4 C 230.6 126.4 234.9 125.6 236.8 125.6 Z M 236.8 140.5 C 239.7 140.5 240.1 136.5 240.1 134.4 C 240.1 132.3 239.7 128.4 236.8 128.4 C 233.9 128.4 233.5 132.3 233.5 134.4 C 233.5 136.5 233.9 140.5 236.8 140.5 Z M 251.3 125.6 C 253.2 125.6 257.4 126.4 257.4 134.4 C 257.4 142.5 253.2 143.2 251.3 143.2 C 249.4 143.2 245.1 142.5 245.1 134.4 C 245.1 126.4 249.4 125.6 251.3 125.6 Z M 251.3 140.5 C 254.1 140.5 254.5 136.5 254.5 134.4 C 254.5 132.3 254.1 128.4 251.3 128.4 C 248.4 128.4 248 132.3 248 134.4 C 248 136.5 248.4 140.5 251.3 140.5 Z M 267.1 131.4 L 270 131.4 L 270 142.9 L 267.1 142.9 L 267.1 131.4 Z M 268.6 125.8 C 269.6 125.8 270.4 126.5 270.4 127.5 C 270.4 128.5 269.6 129.2 268.6 129.2 C 267.5 129.2 266.7 128.4 266.7 127.5 C 266.7 126.6 267.5 125.8 268.6 125.8 Z M 273.3 131.4 L 276 131.4 L 276 133.2 C 276 133.2 276.09 133.25 276.1 133.2 C 276.6 132.1 277.7 131.1 279.6 131.1 C 282.7 131.1 283.8 133.3 283.8 135.6 C 283.82 135.65 283.8 142.9 283.8 142.9 L 280.9 142.9 C 280.9 142.9 280.94 137.09 280.9 137.1 C 280.9 135.8 280.8 133.7 278.8 133.7 C 276.9 133.7 276.2 135.1 276.2 136.6 C 276.19 136.63 276.2 142.9 276.2 142.9 L 273.3 142.9 L 273.3 131.4 Z M 299 129.2 L 295.8 132.2 L 294.1 130.2 L 299.3 125.9 L 301.9 125.9 L 301.9 142.9 L 299 142.9 L 299 129.2 Z M 308.5 142.9 L 312.6 136.6 C 312.6 136.6 312.54 136.58 312.5 136.6 C 312.2 136.8 311.5 136.9 311 136.9 C 308 136.9 305.8 134.4 305.8 131.4 C 305.8 127.9 308.4 125.6 311.9 125.6 C 315.4 125.6 317.9 127.8 317.9 131.4 C 317.9 133.2 317.3 134.6 316.4 136.1 C 316.36 136.08 312 142.9 312 142.9 L 308.5 142.9 Z M 311.8 128.4 C 310.1 128.4 308.7 129.8 308.7 131.5 C 308.7 133.2 310.1 134.6 311.8 134.6 C 313.5 134.6 314.9 133.2 314.9 131.5 C 314.9 129.8 313.5 128.4 311.8 128.4 Z M 325 129.2 L 321.8 132.2 L 320.1 130.2 L 325.2 125.9 L 327.8 125.9 L 327.8 142.9 L 325 142.9 L 325 129.2 Z M 336 132.8 C 336 132.8 336.75 132.77 336.8 132.8 C 338.4 132.8 340.1 132.5 340.1 130.5 C 340.1 129.2 339.1 128.2 337.6 128.2 C 336.5 128.2 335.5 128.9 335.1 130.1 C 335.1 130.1 332 129.3 332 129.3 C 332.8 126.8 335 125.6 337.5 125.6 C 340.4 125.6 342.9 127.2 342.9 130.2 C 342.9 132 341.8 133.6 340 134 C 340 134 340 134.1 340 134.1 C 342.2 134.4 343.4 136.1 343.4 138.2 C 343.4 141.4 340.6 143.2 337.6 143.2 C 334.8 143.2 332.5 142.1 331.8 139.2 C 331.8 139.2 334.9 138.4 334.9 138.4 C 335.2 139.8 336.1 140.6 337.6 140.6 C 339.2 140.6 340.5 139.5 340.5 138 C 340.5 135.7 338.5 135.4 336.7 135.4 C 336.7 135.36 336 135.4 336 135.4 L 336 132.8 Z " stroke="none" fill="#fff"/>  </g>  <g id="Polygon46883">    <path d="M 2 89.9 L 6.6 89.9 L 11.1 101.8 L 15.7 89.9 L 20.3 89.9 L 20.3 106.9 L 17.4 106.9 L 17.4 92.8 L 17.3 92.8 L 12.2 106.9 L 10.1 106.9 L 4.9 92.8 L 4.8 92.8 L 4.8 106.9 L 2 106.9 L 2 89.9 Z M 26.1 102.2 C 26.3 103.9 27.5 104.9 29.2 104.9 C 30.6 104.9 31.5 104.2 32.3 103.3 C 32.3 103.3 34.3 104.9 34.3 104.9 C 33 106.6 31.3 107.2 29.4 107.2 C 26 107.2 23.2 104.8 23.2 101.2 C 23.2 97.5 26 95.1 29.4 95.1 C 32.7 95.1 34.8 97.4 34.8 101.4 C 34.84 101.38 34.8 102.2 34.8 102.2 C 34.8 102.2 26.06 102.17 26.1 102.2 Z M 32 100 C 31.9 98.3 30.8 97.3 29 97.3 C 27.3 97.3 26.3 98.4 26.1 100 C 26.1 100 32 100 32 100 Z M 44.7 105.3 C 44.7 105.3 44.58 105.34 44.6 105.3 C 43.8 106.6 42.4 107.2 40.9 107.2 C 38.7 107.2 36.7 106 36.7 103.8 C 36.7 100 41.1 99.7 43.9 99.7 C 43.93 99.74 44.7 99.7 44.7 99.7 C 44.7 99.7 44.65 99.43 44.7 99.4 C 44.7 98 43.5 97.3 42 97.3 C 40.8 97.3 39.7 97.8 38.9 98.5 C 38.9 98.5 37.4 97 37.4 97 C 38.7 95.7 40.5 95.1 42.3 95.1 C 47.2 95.1 47.2 98.7 47.2 100.3 C 47.24 100.3 47.2 106.9 47.2 106.9 L 44.7 106.9 L 44.7 105.3 Z M 44.5 101.8 C 44.5 101.8 43.88 101.76 43.9 101.8 C 42.3 101.8 39.6 101.9 39.6 103.5 C 39.6 104.6 40.6 105 41.6 105 C 43.5 105 44.5 104 44.5 102.4 C 44.48 102.41 44.5 101.8 44.5 101.8 Z M 56.6 98.6 C 56.1 97.8 55.3 97.4 54.4 97.4 C 53.6 97.4 52.7 97.8 52.7 98.6 C 52.7 100.7 58.9 99 58.9 103.5 C 58.9 106.2 56.3 107.2 53.9 107.2 C 52.2 107.2 50.6 106.8 49.4 105.4 C 49.4 105.4 51.4 103.6 51.4 103.6 C 52.1 104.4 52.9 105 54.1 105 C 54.9 105 56 104.6 56 103.7 C 56 101.4 49.8 103.2 49.8 98.8 C 49.8 96.3 52.1 95.1 54.4 95.1 C 56 95.1 57.6 95.6 58.5 96.9 C 58.5 96.9 56.6 98.6 56.6 98.6 Z M 71.7 106.9 L 69 106.9 L 69 105.1 C 69 105.1 68.95 105.07 68.9 105.1 C 68.4 106.2 67.3 107.2 65.4 107.2 C 62.3 107.2 61.2 105 61.2 102.7 C 61.22 102.67 61.2 95.4 61.2 95.4 L 64.1 95.4 C 64.1 95.4 64.1 101.23 64.1 101.2 C 64.1 102.5 64.2 104.6 66.2 104.6 C 68.1 104.6 68.9 103.2 68.9 101.7 C 68.85 101.69 68.9 95.4 68.9 95.4 L 71.7 95.4 L 71.7 106.9 Z M 75 95.4 L 77.9 95.4 L 77.9 97.2 C 77.9 97.2 77.94 97.22 77.9 97.2 C 78.6 95.9 79.8 95.1 81.3 95.1 C 81.7 95.1 82 95.2 82.4 95.3 C 82.4 95.3 82.4 98.1 82.4 98.1 C 81.9 97.9 81.4 97.8 81 97.8 C 78.3 97.8 77.9 100.1 77.9 100.8 C 77.89 100.75 77.9 106.9 77.9 106.9 L 75 106.9 L 75 95.4 Z M 86.6 102.2 C 86.8 103.9 88.1 104.9 89.7 104.9 C 91.1 104.9 92 104.2 92.8 103.3 C 92.8 103.3 94.8 104.9 94.8 104.9 C 93.5 106.6 91.8 107.2 90 107.2 C 86.5 107.2 83.7 104.8 83.7 101.2 C 83.7 97.5 86.5 95.1 90 95.1 C 93.2 95.1 95.4 97.4 95.4 101.4 C 95.36 101.38 95.4 102.2 95.4 102.2 C 95.4 102.2 86.57 102.17 86.6 102.2 Z M 92.5 100 C 92.5 98.3 91.3 97.3 89.5 97.3 C 87.8 97.3 86.8 98.4 86.6 100 C 86.6 100 92.5 100 92.5 100 Z M 104.2 98.6 C 103.6 97.8 102.9 97.4 101.9 97.4 C 101.2 97.4 100.3 97.8 100.3 98.6 C 100.3 100.7 106.5 99 106.5 103.5 C 106.5 106.2 103.9 107.2 101.5 107.2 C 99.7 107.2 98.2 106.8 97 105.4 C 97 105.4 98.9 103.6 98.9 103.6 C 99.7 104.4 100.4 105 101.7 105 C 102.5 105 103.6 104.6 103.6 103.7 C 103.6 101.4 97.4 103.2 97.4 98.8 C 97.4 96.3 99.7 95.1 102 95.1 C 103.5 95.1 105.2 95.6 106.1 96.9 C 106.1 96.9 104.2 98.6 104.2 98.6 Z M 123 105.3 C 123 105.3 122.94 105.34 122.9 105.3 C 122.1 106.6 120.8 107.2 119.2 107.2 C 117.1 107.2 115 106 115 103.8 C 115 100 119.4 99.7 122.3 99.7 C 122.29 99.74 123 99.7 123 99.7 C 123 99.7 123.01 99.43 123 99.4 C 123 98 121.9 97.3 120.4 97.3 C 119.2 97.3 118.1 97.8 117.3 98.5 C 117.3 98.5 115.8 97 115.8 97 C 117.1 95.7 118.9 95.1 120.7 95.1 C 125.6 95.1 125.6 98.7 125.6 100.3 C 125.6 100.3 125.6 106.9 125.6 106.9 L 123 106.9 L 123 105.3 Z M 122.8 101.8 C 122.8 101.8 122.24 101.76 122.2 101.8 C 120.7 101.8 117.9 101.9 117.9 103.5 C 117.9 104.6 119 105 119.9 105 C 121.9 105 122.8 104 122.8 102.4 C 122.84 102.41 122.8 101.8 122.8 101.8 Z M 128.8 95.4 L 131.5 95.4 L 131.5 97.1 C 131.5 97.1 131.56 97.13 131.6 97.1 C 132.4 95.7 133.9 95.1 135.5 95.1 C 139.1 95.1 141.2 97.8 141.2 101.2 C 141.2 104.6 138.9 107.2 135.6 107.2 C 133.5 107.2 132.3 106.2 131.7 105.5 C 131.73 105.46 131.7 105.5 131.7 105.5 L 131.7 112.4 L 128.8 112.4 L 128.8 95.4 Z M 134.9 97.7 C 132.8 97.7 131.6 99.4 131.6 101.2 C 131.6 103 132.8 104.6 134.9 104.6 C 137.1 104.6 138.3 103 138.3 101.2 C 138.3 99.4 137.1 97.7 134.9 97.7 Z M 143.9 95.4 L 146.6 95.4 L 146.6 97.1 C 146.6 97.1 146.69 97.13 146.7 97.1 C 147.5 95.7 149 95.1 150.6 95.1 C 154.2 95.1 156.3 97.8 156.3 101.2 C 156.3 104.6 154.1 107.2 150.8 107.2 C 148.6 107.2 147.5 106.2 146.9 105.5 C 146.86 105.46 146.8 105.5 146.8 105.5 L 146.8 112.4 L 143.9 112.4 L 143.9 95.4 Z M 150.1 97.7 C 148 97.7 146.7 99.4 146.7 101.2 C 146.7 103 148 104.6 150.1 104.6 C 152.2 104.6 153.5 103 153.5 101.2 C 153.5 99.4 152.2 97.7 150.1 97.7 Z M 159 95.4 L 161.9 95.4 L 161.9 97.2 C 161.9 97.2 161.96 97.22 162 97.2 C 162.6 95.9 163.9 95.1 165.4 95.1 C 165.7 95.1 166.1 95.2 166.4 95.3 C 166.4 95.3 166.4 98.1 166.4 98.1 C 165.9 97.9 165.5 97.8 165 97.8 C 162.3 97.8 161.9 100.1 161.9 100.8 C 161.91 100.75 161.9 106.9 161.9 106.9 L 159 106.9 L 159 95.4 Z M 174 95.1 C 177.5 95.1 180.2 97.5 180.2 101.2 C 180.2 104.8 177.5 107.2 174 107.2 C 170.5 107.2 167.7 104.8 167.7 101.2 C 167.7 97.5 170.5 95.1 174 95.1 Z M 174 104.6 C 176.1 104.6 177.4 103 177.4 101.2 C 177.4 99.4 176.1 97.7 174 97.7 C 171.9 97.7 170.6 99.4 170.6 101.2 C 170.6 103 171.9 104.6 174 104.6 Z M 185.4 100.7 L 181.4 95.4 L 184.9 95.4 L 187.2 98.9 L 189.7 95.4 L 193 95.4 L 189.1 100.7 L 193.7 106.9 L 190.2 106.9 L 187.2 102.8 L 184.2 106.9 L 180.8 106.9 L 185.4 100.7 Z M 197.2 103.4 C 198.3 103.4 199.1 104.2 199.1 105.2 C 199.1 106.2 198.3 107.1 197.2 107.1 C 196.2 107.1 195.3 106.3 195.3 105.2 C 195.3 104.2 196.2 103.4 197.2 103.4 Z M 213.2 96.8 C 213.2 96.8 213.95 96.77 213.9 96.8 C 215.6 96.8 217.3 96.5 217.3 94.5 C 217.3 93.2 216.3 92.2 214.8 92.2 C 213.7 92.2 212.7 92.9 212.3 94.1 C 212.3 94.1 209.2 93.3 209.2 93.3 C 210 90.8 212.2 89.6 214.7 89.6 C 217.6 89.6 220.1 91.2 220.1 94.2 C 220.1 96 219 97.6 217.2 98 C 217.2 98 217.2 98.1 217.2 98.1 C 219.4 98.4 220.5 100.1 220.5 102.2 C 220.5 105.4 217.8 107.2 214.8 107.2 C 212 107.2 209.7 106.1 209 103.2 C 209 103.2 212.1 102.4 212.1 102.4 C 212.4 103.8 213.3 104.6 214.8 104.6 C 216.3 104.6 217.7 103.5 217.7 102 C 217.7 99.7 215.7 99.4 213.9 99.4 C 213.9 99.36 213.2 99.4 213.2 99.4 L 213.2 96.8 Z M 224.1 103.6 L 227 103.6 L 225 109.9 L 222.4 109.9 L 224.1 103.6 Z M 230 103.9 C 230 103.9 236.62 97.49 236.6 97.5 C 237.4 96.7 238.4 95.8 238.4 94.6 C 238.4 93.2 237.2 92.4 235.9 92.4 C 234.5 92.4 233.5 93.3 233.3 94.7 C 233.3 94.7 230.3 94.4 230.3 94.4 C 230.5 91.3 232.8 89.6 235.9 89.6 C 238.9 89.6 241.4 91.2 241.4 94.5 C 241.4 96.6 240.3 98.1 238.8 99.5 C 238.78 99.46 233.5 104.3 233.5 104.3 L 241.4 104.3 L 241.4 106.9 L 230 106.9 L 230 103.9 Z M 249.6 89.6 C 251.5 89.6 255.7 90.4 255.7 98.4 C 255.7 106.5 251.5 107.2 249.6 107.2 C 247.7 107.2 243.4 106.5 243.4 98.4 C 243.4 90.4 247.7 89.6 249.6 89.6 Z M 249.6 104.5 C 252.5 104.5 252.9 100.5 252.9 98.4 C 252.9 96.3 252.5 92.4 249.6 92.4 C 246.7 92.4 246.3 96.3 246.3 98.4 C 246.3 100.5 246.7 104.5 249.6 104.5 Z M 264.1 89.6 C 266 89.6 270.2 90.4 270.2 98.4 C 270.2 106.5 266 107.2 264.1 107.2 C 262.2 107.2 257.9 106.5 257.9 98.4 C 257.9 90.4 262.2 89.6 264.1 89.6 Z M 264.1 104.5 C 266.9 104.5 267.3 100.5 267.3 98.4 C 267.3 96.3 266.9 92.4 264.1 92.4 C 261.2 92.4 260.8 96.3 260.8 98.4 C 260.8 100.5 261.2 104.5 264.1 104.5 Z M 286 98.6 C 285.5 97.8 284.8 97.4 283.8 97.4 C 283 97.4 282.1 97.8 282.1 98.6 C 282.1 100.7 288.3 99 288.3 103.5 C 288.3 106.2 285.7 107.2 283.4 107.2 C 281.6 107.2 280 106.8 278.9 105.4 C 278.9 105.4 280.8 103.6 280.8 103.6 C 281.5 104.4 282.3 105 283.5 105 C 284.4 105 285.4 104.6 285.4 103.7 C 285.4 101.4 279.2 103.2 279.2 98.8 C 279.2 96.3 281.5 95.1 283.9 95.1 C 285.4 95.1 287 95.6 288 96.9 C 288 96.9 286 98.6 286 98.6 Z M 302.5 112.4 L 299.6 112.4 L 299.6 105.5 C 299.6 105.5 299.52 105.46 299.5 105.5 C 298.9 106.2 297.8 107.2 295.6 107.2 C 292.3 107.2 290 104.6 290 101.2 C 290 97.8 292.2 95.1 295.7 95.1 C 297.3 95.1 298.8 95.7 299.7 97.1 C 299.68 97.13 299.7 97.1 299.7 97.1 L 299.7 95.4 L 302.5 95.4 L 302.5 112.4 Z M 296.3 104.6 C 298.4 104.6 299.7 103 299.7 101.2 C 299.7 99.4 298.4 97.7 296.3 97.7 C 294.2 97.7 292.9 99.4 292.9 101.2 C 292.9 103 294.2 104.6 296.3 104.6 Z M 307.5 103.4 C 308.5 103.4 309.4 104.2 309.4 105.2 C 309.4 106.2 308.5 107.1 307.5 107.1 C 306.5 107.1 305.6 106.3 305.6 105.2 C 305.6 104.2 306.4 103.4 307.5 103.4 Z M 312.9 97.8 L 310.5 97.8 L 310.5 95.4 L 312.9 95.4 C 312.9 95.4 312.91 93.77 312.9 93.8 C 312.9 90.6 313.6 88.5 317.2 88.5 C 317.8 88.5 318.4 88.5 319 88.7 C 319 88.7 318.8 91.1 318.8 91.1 C 318.4 91 318 90.9 317.6 90.9 C 316 90.9 315.8 92 315.8 93.3 C 315.79 93.31 315.8 95.4 315.8 95.4 L 318.5 95.4 L 318.5 97.8 L 315.8 97.8 L 315.8 106.9 L 312.9 106.9 L 312.9 97.8 Z M 319.7 97.8 L 319.7 95.4 L 322 95.4 L 322 92.1 L 324.9 92.1 L 324.9 95.4 L 328.1 95.4 L 328.1 97.8 L 324.9 97.8 C 324.9 97.8 324.93 102.89 324.9 102.9 C 324.9 104 325.3 104.8 326.5 104.8 C 327 104.8 327.7 104.7 328.1 104.4 C 328.1 104.4 328.1 106.8 328.1 106.8 C 327.5 107.1 326.5 107.2 325.8 107.2 C 322.8 107.2 322 105.8 322 103.1 C 322.05 103.13 322 97.8 322 97.8 L 319.7 97.8 Z M 332.4 103.4 C 333.5 103.4 334.4 104.2 334.4 105.2 C 334.4 106.2 333.5 107.1 332.4 107.1 C 331.4 107.1 330.5 106.3 330.5 105.2 C 330.5 104.2 331.4 103.4 332.4 103.4 Z " stroke="none" fill="#fff"/>  </g>  <g id="Polygon46882">    <path d="M 1.4 67.9 C 1.4 67.9 8.02 61.49 8 61.5 C 8.8 60.7 9.8 59.8 9.8 58.6 C 9.8 57.2 8.6 56.4 7.3 56.4 C 5.9 56.4 4.9 57.3 4.7 58.7 C 4.7 58.7 1.7 58.4 1.7 58.4 C 1.9 55.3 4.2 53.6 7.3 53.6 C 10.3 53.6 12.8 55.2 12.8 58.5 C 12.8 60.6 11.7 62.1 10.2 63.5 C 10.18 63.46 4.9 68.3 4.9 68.3 L 12.8 68.3 L 12.8 70.9 L 1.4 70.9 L 1.4 67.9 Z M 19 60.8 C 19 60.8 19.74 60.77 19.7 60.8 C 21.4 60.8 23 60.5 23 58.5 C 23 57.2 22 56.2 20.6 56.2 C 19.5 56.2 18.5 56.9 18.1 58.1 C 18.1 58.1 15 57.3 15 57.3 C 15.8 54.8 18 53.6 20.5 53.6 C 23.4 53.6 25.9 55.2 25.9 58.2 C 25.9 60 24.8 61.6 23 62 C 23 62 23 62.1 23 62.1 C 25.2 62.4 26.3 64.1 26.3 66.2 C 26.3 69.4 23.6 71.2 20.6 71.2 C 17.8 71.2 15.5 70.1 14.8 67.2 C 14.8 67.2 17.8 66.4 17.8 66.4 C 18.2 67.8 19.1 68.6 20.6 68.6 C 22.1 68.6 23.5 67.5 23.5 66 C 23.5 63.7 21.4 63.4 19.7 63.4 C 19.69 63.36 19 63.4 19 63.4 L 19 60.8 Z M 28.6 67.9 C 28.6 67.9 35.19 61.49 35.2 61.5 C 36 60.7 36.9 59.8 36.9 58.6 C 36.9 57.2 35.8 56.4 34.5 56.4 C 33.1 56.4 32 57.3 31.9 58.7 C 31.9 58.7 28.8 58.4 28.8 58.4 C 29.1 55.3 31.4 53.6 34.5 53.6 C 37.5 53.6 40 55.2 40 58.5 C 40 60.6 38.9 62.1 37.3 63.5 C 37.35 63.46 32.1 68.3 32.1 68.3 L 40 68.3 L 40 70.9 L 28.6 70.9 L 28.6 67.9 Z M 53.1 58.1 C 53.1 59.9 52.2 61.4 50.5 61.9 C 50.5 61.9 50.5 62 50.5 62 C 52.2 62.3 53.6 64 53.6 66.1 C 53.6 69.5 51 71.2 47.9 71.2 C 44.7 71.2 42.1 69.5 42.1 66.1 C 42.1 64 43.6 62.3 45.2 62 C 45.2 62 45.2 61.9 45.2 61.9 C 43.5 61.4 42.7 59.9 42.7 58.1 C 42.7 55.2 45 53.6 47.9 53.6 C 50.8 53.6 53.1 55.2 53.1 58.1 Z M 45.6 58.4 C 45.6 59.7 46.5 60.8 47.9 60.8 C 49.2 60.8 50.2 59.7 50.2 58.4 C 50.2 57.1 49.2 56.1 47.9 56.1 C 46.4 56.1 45.6 57.1 45.6 58.4 Z M 45 65.7 C 45 67.3 46.2 68.5 47.9 68.5 C 49.5 68.5 50.7 67.3 50.7 65.7 C 50.7 64.2 49.4 63.1 47.9 63.1 C 46.3 63.1 45 64.2 45 65.7 Z M 64 53.9 L 67 53.9 L 67 68.2 L 74.2 68.2 L 74.2 70.9 L 64 70.9 L 64 53.9 Z M 83.7 69.3 C 83.7 69.3 83.63 69.34 83.6 69.3 C 82.8 70.6 81.5 71.2 79.9 71.2 C 77.8 71.2 75.7 70 75.7 67.8 C 75.7 64 80.1 63.7 83 63.7 C 82.99 63.74 83.7 63.7 83.7 63.7 C 83.7 63.7 83.71 63.43 83.7 63.4 C 83.7 62 82.6 61.3 81.1 61.3 C 79.9 61.3 78.8 61.8 78 62.5 C 78 62.5 76.5 61 76.5 61 C 77.8 59.7 79.6 59.1 81.4 59.1 C 86.3 59.1 86.3 62.7 86.3 64.3 C 86.3 64.3 86.3 70.9 86.3 70.9 L 83.7 70.9 L 83.7 69.3 Z M 83.5 65.8 C 83.5 65.8 82.94 65.76 82.9 65.8 C 81.4 65.8 78.6 65.9 78.6 67.5 C 78.6 68.6 79.7 69 80.6 69 C 82.6 69 83.5 68 83.5 66.4 C 83.54 66.41 83.5 65.8 83.5 65.8 Z M 89.5 52.8 L 92.4 52.8 L 92.4 64.2 L 96.8 59.4 L 100.5 59.4 L 95.5 64.6 L 100.8 70.9 L 97 70.9 L 92.4 65 L 92.4 65 L 92.4 70.9 L 89.5 70.9 L 89.5 52.8 Z M 104.1 66.2 C 104.3 67.9 105.6 68.9 107.2 68.9 C 108.6 68.9 109.5 68.2 110.3 67.3 C 110.3 67.3 112.3 68.9 112.3 68.9 C 111 70.6 109.3 71.2 107.5 71.2 C 104 71.2 101.2 68.8 101.2 65.2 C 101.2 61.5 104 59.1 107.5 59.1 C 110.7 59.1 112.9 61.4 112.9 65.4 C 112.86 65.38 112.9 66.2 112.9 66.2 C 112.9 66.2 104.08 66.17 104.1 66.2 Z M 110 64 C 110 62.3 108.9 61.3 107.1 61.3 C 105.3 61.3 104.3 62.4 104.1 64 C 104.1 64 110 64 110 64 Z M 122.9 53.9 C 122.9 53.9 128.63 53.93 128.6 53.9 C 131.9 53.9 134.9 55.1 134.9 58.8 C 134.9 63.1 131.7 63.9 128.1 63.9 C 128.1 63.89 125.9 63.9 125.9 63.9 L 125.9 70.9 L 122.9 70.9 L 122.9 53.9 Z M 127.8 61.3 C 129.5 61.3 131.7 61.2 131.7 58.9 C 131.7 56.8 129.7 56.5 128.1 56.5 C 128.1 56.52 125.9 56.5 125.9 56.5 L 125.9 61.3 C 125.9 61.3 127.76 61.3 127.8 61.3 Z M 137 52.8 L 139.9 52.8 L 139.9 70.9 L 137 70.9 L 137 52.8 Z M 150.4 69.3 C 150.4 69.3 150.36 69.34 150.4 69.3 C 149.5 70.6 148.2 71.2 146.7 71.2 C 144.5 71.2 142.5 70 142.5 67.8 C 142.5 64 146.8 63.7 149.7 63.7 C 149.71 63.74 150.4 63.7 150.4 63.7 C 150.4 63.7 150.43 63.43 150.4 63.4 C 150.4 62 149.3 61.3 147.8 61.3 C 146.6 61.3 145.5 61.8 144.7 62.5 C 144.7 62.5 143.2 61 143.2 61 C 144.5 59.7 146.3 59.1 148.1 59.1 C 153 59.1 153 62.7 153 64.3 C 153.02 64.3 153 70.9 153 70.9 L 150.4 70.9 L 150.4 69.3 Z M 150.3 65.8 C 150.3 65.8 149.66 65.76 149.7 65.8 C 148.1 65.8 145.3 65.9 145.3 67.5 C 145.3 68.6 146.4 69 147.4 69 C 149.3 69 150.3 68 150.3 66.4 C 150.26 66.41 150.3 65.8 150.3 65.8 Z M 164 62.9 C 163.3 62.2 162.6 61.7 161.8 61.7 C 159.7 61.7 158.4 63.4 158.4 65.2 C 158.4 67 159.7 68.6 161.8 68.6 C 162.7 68.6 163.5 68.2 164 67.5 C 164 67.5 166 69.6 166 69.6 C 164.8 70.8 162.8 71.2 161.8 71.2 C 158.3 71.2 155.5 68.8 155.5 65.2 C 155.5 61.5 158.3 59.1 161.8 59.1 C 163.3 59.1 164.9 59.6 166 60.9 C 166 60.9 164 62.9 164 62.9 Z M 169.8 66.2 C 170 67.9 171.3 68.9 172.9 68.9 C 174.4 68.9 175.3 68.2 176 67.3 C 176 67.3 178.1 68.9 178.1 68.9 C 176.8 70.6 175 71.2 173.2 71.2 C 169.7 71.2 167 68.8 167 65.2 C 167 61.5 169.7 59.1 173.2 59.1 C 176.4 59.1 178.6 61.4 178.6 65.4 C 178.62 65.38 178.6 66.2 178.6 66.2 C 178.6 66.2 169.84 66.17 169.8 66.2 Z M 175.7 64 C 175.7 62.3 174.6 61.3 172.8 61.3 C 171.1 61.3 170.1 62.4 169.8 64 C 169.8 64 175.7 64 175.7 64 Z M 181.6 67.6 L 184.6 67.6 L 182.5 73.9 L 180 73.9 L 181.6 67.6 Z M 195.2 53.9 L 199.8 53.9 L 204.4 65.8 L 209 53.9 L 213.5 53.9 L 213.5 70.9 L 210.6 70.9 L 210.6 56.8 L 210.6 56.8 L 205.4 70.9 L 203.3 70.9 L 198.2 56.8 L 198.1 56.8 L 198.1 70.9 L 195.2 70.9 L 195.2 53.9 Z M 217.1 59.4 L 219.9 59.4 L 219.9 70.9 L 217.1 70.9 L 217.1 59.4 Z M 218.5 53.8 C 219.5 53.8 220.4 54.5 220.4 55.5 C 220.4 56.5 219.5 57.2 218.5 57.2 C 217.4 57.2 216.7 56.4 216.7 55.5 C 216.7 54.6 217.4 53.8 218.5 53.8 Z M 223.2 59.4 L 226 59.4 L 226 61.2 C 226 61.2 226.01 61.25 226 61.2 C 226.5 60.1 227.6 59.1 229.5 59.1 C 232.6 59.1 233.7 61.3 233.7 63.6 C 233.73 63.65 233.7 70.9 233.7 70.9 L 230.9 70.9 C 230.9 70.9 230.85 65.09 230.9 65.1 C 230.9 63.8 230.8 61.7 228.7 61.7 C 226.8 61.7 226.1 63.1 226.1 64.6 C 226.1 64.63 226.1 70.9 226.1 70.9 L 223.2 70.9 L 223.2 59.4 Z M 237 59.4 L 239.7 59.4 L 239.7 61.2 C 239.7 61.2 239.78 61.25 239.8 61.2 C 240.3 60.1 241.4 59.1 243.3 59.1 C 246.4 59.1 247.5 61.3 247.5 63.6 C 247.51 63.65 247.5 70.9 247.5 70.9 L 244.6 70.9 C 244.6 70.9 244.63 65.09 244.6 65.1 C 244.6 63.8 244.5 61.7 242.5 61.7 C 240.6 61.7 239.9 63.1 239.9 64.6 C 239.87 64.63 239.9 70.9 239.9 70.9 L 237 70.9 L 237 59.4 Z M 253 66.2 C 253.2 67.9 254.5 68.9 256.1 68.9 C 257.5 68.9 258.5 68.2 259.2 67.3 C 259.2 67.3 261.2 68.9 261.2 68.9 C 259.9 70.6 258.2 71.2 256.4 71.2 C 252.9 71.2 250.1 68.8 250.1 65.2 C 250.1 61.5 252.9 59.1 256.4 59.1 C 259.6 59.1 261.8 61.4 261.8 65.4 C 261.77 65.38 261.8 66.2 261.8 66.2 C 261.8 66.2 252.99 66.17 253 66.2 Z M 258.9 64 C 258.9 62.3 257.8 61.3 256 61.3 C 254.3 61.3 253.2 62.4 253 64 C 253 64 258.9 64 258.9 64 Z M 271.6 69.3 C 271.6 69.3 271.51 69.34 271.5 69.3 C 270.7 70.6 269.3 71.2 267.8 71.2 C 265.7 71.2 263.6 70 263.6 67.8 C 263.6 64 268 63.7 270.9 63.7 C 270.86 63.74 271.6 63.7 271.6 63.7 C 271.6 63.7 271.58 63.43 271.6 63.4 C 271.6 62 270.5 61.3 268.9 61.3 C 267.7 61.3 266.6 61.8 265.9 62.5 C 265.9 62.5 264.4 61 264.4 61 C 265.6 59.7 267.4 59.1 269.3 59.1 C 274.2 59.1 274.2 62.7 274.2 64.3 C 274.17 64.3 274.2 70.9 274.2 70.9 L 271.6 70.9 L 271.6 69.3 Z M 271.4 65.8 C 271.4 65.8 270.81 65.76 270.8 65.8 C 269.2 65.8 266.5 65.9 266.5 67.5 C 266.5 68.6 267.6 69 268.5 69 C 270.5 69 271.4 68 271.4 66.4 C 271.41 66.41 271.4 65.8 271.4 65.8 Z M 277.3 59.4 L 280.1 59.4 L 280.1 61.1 C 280.1 61.1 280.13 61.13 280.1 61.1 C 281 59.7 282.5 59.1 284.1 59.1 C 287.6 59.1 289.8 61.8 289.8 65.2 C 289.8 68.6 287.5 71.2 284.2 71.2 C 282.1 71.2 280.9 70.2 280.3 69.5 C 280.3 69.46 280.2 69.5 280.2 69.5 L 280.2 76.4 L 277.3 76.4 L 277.3 59.4 Z M 283.5 61.7 C 281.4 61.7 280.1 63.4 280.1 65.2 C 280.1 67 281.4 68.6 283.5 68.6 C 285.6 68.6 286.9 67 286.9 65.2 C 286.9 63.4 285.6 61.7 283.5 61.7 Z M 298.1 59.1 C 301.6 59.1 304.4 61.5 304.4 65.2 C 304.4 68.8 301.6 71.2 298.1 71.2 C 294.6 71.2 291.9 68.8 291.9 65.2 C 291.9 61.5 294.6 59.1 298.1 59.1 Z M 298.1 68.6 C 300.2 68.6 301.5 67 301.5 65.2 C 301.5 63.4 300.2 61.7 298.1 61.7 C 296 61.7 294.7 63.4 294.7 65.2 C 294.7 67 296 68.6 298.1 68.6 Z M 307.1 52.8 L 310 52.8 L 310 70.9 L 307.1 70.9 L 307.1 52.8 Z M 313.3 59.4 L 316.2 59.4 L 316.2 70.9 L 313.3 70.9 L 313.3 59.4 Z M 314.7 53.8 C 315.8 53.8 316.6 54.5 316.6 55.5 C 316.6 56.5 315.8 57.2 314.7 57.2 C 313.7 57.2 312.9 56.4 312.9 55.5 C 312.9 54.6 313.7 53.8 314.7 53.8 Z M 325.7 62.6 C 325.1 61.8 324.4 61.4 323.4 61.4 C 322.7 61.4 321.7 61.8 321.7 62.6 C 321.7 64.7 328 63 328 67.5 C 328 70.2 325.3 71.2 323 71.2 C 321.2 71.2 319.7 70.8 318.5 69.4 C 318.5 69.4 320.4 67.6 320.4 67.6 C 321.2 68.4 321.9 69 323.2 69 C 324 69 325.1 68.6 325.1 67.7 C 325.1 65.4 318.9 67.2 318.9 62.8 C 318.9 60.3 321.2 59.1 323.5 59.1 C 325 59.1 326.7 59.6 327.6 60.9 C 327.6 60.9 325.7 62.6 325.7 62.6 Z " stroke="none" fill="#fff"/>  </g></svg>