<svg xmlns="http://www.w3.org/2000/svg" version="1.1" width="138px" height="233.6px" viewBox="0 0 138 233.6"><desc>Left: Bamana, Mali, Ciwara mask, first half of 20th century; wood, cowrie shell, thread; The Marguerite S McNally En</desc><defs/><g id="Polygon48090"><path d="m1.1 218.2c0 0 2.21.01 2.2 0c1.2 0 2.5.3 2.5 2.1c0 .8-.5 1.4-1.4 1.6c0 0 0 0 0 0c1 .1 1.8.8 1.8 1.9c0 1.8-1.6 2.2-2.6 2.2c-.05 0-2.5 0-2.5 0l0-7.8zm.7 3.4c0 0 1.5-.02 1.5 0c1.5 0 1.8-.8 1.8-1.3c0-1.1-.8-1.4-1.7-1.4c0-.03-1.6 0-1.6 0l0 2.7zm0 3.7c0 0 1.65.04 1.7 0c1.7 0 1.9-.9 1.9-1.5c0-1.1-.9-1.6-1.8-1.6c-.04.04-1.8 0-1.8 0l0 3.1zm10.5-.3c-.5.8-1.3 1.1-2.2 1.1c-1.6 0-2.6-1.1-2.6-2.7c0-1.5 1.1-2.6 2.6-2.6c1.5 0 2.4 1.2 2.4 2.4c-.05-.04 0 .4 0 .4c0 0-4.32.02-4.3 0c0 .6.4 1.9 1.9 1.9c.7 0 1.4-.3 1.7-.9c0 0 .5.4.5.4zm-.5-2c0-.9-.8-1.6-1.8-1.6c-1.4 0-1.8 1.4-1.8 1.6c0 0 3.6 0 3.6 0zm2.1-.7c0-.3 0-1.1 0-1.4c0 0 .6 0 .6 0c0 .4.1.8.1.9c0 0 0 0 0 0c.3-.6.9-1 1.7-1c1.6 0 2 1.1 2 2.2c-.02-.03 0 3 0 3l-.7 0c0 0 .02-2.99 0-3c0-.8-.2-1.6-1.3-1.6c-.9 0-1.7.7-1.7 2.1c-.01-.04 0 2.5 0 2.5l-.7 0c0 0 .03-3.65 0-3.7zm8.6-.8l-1.4 0c0 0-.02 3.32 0 3.3c0 .5.2.7.7.7c.2 0 .5 0 .7-.1c0 0 .1.6.1.6c-.3 0-.6.1-.9.1c-.9 0-1.3-.5-1.3-1.3c.02.02 0-3.3 0-3.3l-1.1 0l0-.6l1.1 0l0-1.4l.7 0l0 1.4l1.4 0l0 .6zm3.6-.7c1.6 0 2.7 1.1 2.7 2.7c0 1.5-1.1 2.6-2.7 2.6c-1.6 0-2.7-1.1-2.7-2.6c0-1.6 1.1-2.7 2.7-2.7zm0 4.7c1.2 0 2-.9 2-2c0-1.2-.8-2.1-2-2.1c-1.3 0-2 .9-2 2.1c0 1.1.7 2 2 2zm4.1-3.2c0-.3 0-1.1 0-1.4c0 0 .6 0 .6 0c.1.4.1.8.1.9c0 0 0 0 0 0c.3-.6.9-1 1.8-1c1.5 0 1.9 1.1 1.9 2.2c-.01-.03 0 3 0 3l-.7 0c0 0 .04-2.99 0-3c0-.8-.2-1.6-1.2-1.6c-1 0-1.8.7-1.8 2.1c0-.04 0 2.5 0 2.5l-.7 0c0 0 .04-3.65 0-3.7zm15.6 2.5c-.7 1-1.7 1.4-2.9 1.4c-2.4 0-4-1.7-4-4.1c0-2.4 1.6-4.1 4-4.1c1.1 0 2 .4 2.7 1.2c0 0-.6.5-.6.5c-.5-.7-1.3-1-2.1-1c-2 0-3.3 1.5-3.3 3.4c0 1.9 1.3 3.4 3.3 3.4c.8 0 1.8-.3 2.3-1.2c0 0 .6.5.6.5zm5.1-.9c0 1 0 1.5.1 2.1c0 0-.6 0-.6 0c-.1-.3-.1-.5-.1-.8c0 0 0 0 0 0c-.4.6-.9.9-1.8.9c-.8 0-1.8-.4-1.8-1.5c0-1.5 1.8-1.7 2.8-1.7c.04.02.8 0 .8 0c0 0 .01-.29 0-.3c0-.9-.6-1.2-1.4-1.2c-.6 0-1.1.2-1.6.6c0 0-.4-.5-.4-.5c.5-.5 1.3-.7 2-.7c1.2 0 2 .5 2 1.8c0 0 0 1.3 0 1.3zm-1.3-.5c-1.1 0-2.2.3-2.2 1.2c0 .6.6.9 1.1.9c1.5 0 1.8-.9 1.8-1.7c.01-.01 0-.4 0-.4c0 0-.71.05-.7 0zm3.1 1.3c.3.5.9.8 1.5.8c.5 0 1.1-.3 1.1-.9c0-1.4-3-.4-3-2.4c0-.9.9-1.4 1.7-1.4c.9 0 1.5.3 1.8.9c0 0-.6.4-.6.4c-.2-.5-.6-.7-1.2-.7c-.4 0-1 .3-1 .8c0 1.4 3 .3 3 2.4c0 1-.9 1.5-1.9 1.5c-.8 0-1.6-.3-2-1c0 0 .6-.4.6-.4zm9.1.3c-.5.8-1.3 1.1-2.2 1.1c-1.5 0-2.5-1.1-2.5-2.7c0-1.5 1-2.6 2.5-2.6c1.6 0 2.4 1.2 2.4 2.4c-.01-.04 0 .4 0 .4c0 0-4.27.02-4.3 0c0 .6.4 1.9 2 1.9c.6 0 1.3-.3 1.7-.9c0 0 .4.4.4.4zm-.5-2c0-.9-.7-1.6-1.7-1.6c-1.5 0-1.9 1.4-1.9 1.6c0 0 3.6 0 3.6 0zm2.6 2l.7 0l-.8 2.5l-.7 0l.8-2.5zm8.6-1.3c0 .9-.1 2.5-2.1 2.5c-1.1 0-1.8-.6-2-1.6c0 0 .7-.1.7-.1c.2.7.6 1 1.3 1c1 0 1.4-.7 1.4-1.6c.02-.01 0-5.7 0-5.7l.7 0c0 0 .04 5.51 0 5.5zm2-1.4c0-.3-.1-1.1-.1-1.4c0 0 .7 0 .7 0c0 .4 0 .8 0 .9c.4-.6.9-1 1.7-1c.1 0 .2 0 .3 0c0 0 0 .7 0 .7c-.1 0-.2-.1-.3-.1c-1.1 0-1.6.8-1.6 1.8c-.05.03 0 2.8 0 2.8l-.7 0c0 0-.01-3.65 0-3.7zm3.2 2.7c.3 0 .5.2.5.5c0 .3-.2.6-.5.6c-.3 0-.5-.3-.5-.6c0-.3.2-.5.5-.5zm2.7 0l.8 0l-.9 2.5l-.6 0l.7-2.5zm7.3-6.9c1.2 0 2.1.8 2.1 2c0 .7-.4 1.5-1.2 1.7c0 .02 0 0 0 0c0 0 0 .03 0 0c1 .2 1.5 1.1 1.5 2c0 1.4-1 2.3-2.4 2.3c-1.4 0-2.4-.9-2.4-2.3c0-.9.5-1.8 1.5-2c.01.03 0 0 0 0c0 0 .01.02 0 0c-.7-.2-1.2-1-1.2-1.7c0-1.2.9-2 2.1-2zm0 3.4c.8 0 1.4-.6 1.4-1.4c0-.9-.6-1.4-1.4-1.4c-.8 0-1.4.5-1.4 1.4c0 .8.6 1.4 1.4 1.4zm0 4c1 0 1.7-.7 1.7-1.7c0-1-.8-1.7-1.7-1.7c-.9 0-1.7.7-1.7 1.7c0 1 .7 1.7 1.7 1.7zm3.3-.3c0 0 2.94-3.06 2.9-3.1c.6-.5 1.2-1.1 1.2-2c0-.9-.7-1.4-1.6-1.4c-.8 0-1.4.5-1.6 1.3c0 0-.7-.1-.7-.1c.2-1.2 1.1-1.8 2.3-1.8c1.2 0 2.3.7 2.3 2c0 1.2-.8 2-1.6 2.8c-.03.01-2.5 2.5-2.5 2.5l4.1 0l0 .6l-4.8 0l0-.8zm6.7-.2c.3 0 .5.2.5.5c0 .3-.2.6-.5.6c-.3 0-.5-.3-.5-.6c0-.3.2-.5.5-.5zm1.9.2c0 0 2.92-3.06 2.9-3.1c.5-.5 1.1-1.1 1.1-2c0-.9-.6-1.4-1.5-1.4c-.8 0-1.4.5-1.6 1.3c0 0-.8-.1-.8-.1c.3-1.2 1.2-1.8 2.4-1.8c1.2 0 2.3.7 2.3 2c0 1.2-.8 2-1.6 2.8c-.05.01-2.5 2.5-2.5 2.5l4.1 0l0 .6l-4.8 0l0-.8zm7.1-3.6c0 0 .03.04 0 0c.3-.2.8-.3 1.2-.3c1.4 0 2.4 1.1 2.4 2.4c0 1.4-1.1 2.4-2.6 2.4c-1.5 0-2.5-1-2.5-2.4c0-.8.4-1.5.7-2c-.01.02 2.1-3.5 2.1-3.5l.8 0l-2.1 3.4zm-.8 2.1c0 1.1.7 1.8 1.8 1.8c1.1 0 1.9-.7 1.9-1.8c0-1-.9-1.8-1.9-1.8c-1 0-1.8.8-1.8 1.8z" stroke="none" fill="#fff"/></g><g id="Polygon48089"><path d="m3.3 206.8c1.5 0 2.6 1.1 2.6 2.7c0 1.5-1.1 2.6-2.6 2.6c-1.6 0-2.7-1.1-2.7-2.6c0-1.6 1.1-2.7 2.7-2.7zm0 4.7c1.2 0 2-.9 2-2c0-1.2-.8-2.1-2-2.1c-1.3 0-2 .9-2 2.1c0 1.1.7 2 2 2zm4.5-4l-1.1 0l0-.6l1.1 0c0 0-.01-1.64 0-1.6c0-1.4.9-1.7 1.5-1.7c.3 0 .6 0 .8.1c0 0-.2.6-.2.6c-.1-.1-.3-.2-.6-.2c-.6 0-.9.5-.9 1.4c.05 0 0 1.4 0 1.4l1.2 0l0 .6l-1.2 0l0 4.5l-.6 0l0-4.5zm6.1 0l-1.1 0l0-.6l1.1 0c0 0 0-1.64 0-1.6c0-1.4.9-1.7 1.5-1.7c.3 0 .6 0 .8.1c0 0-.2.6-.2.6c-.1-.1-.3-.2-.5-.2c-.7 0-.9.5-.9 1.4c-.04 0 0 1.4 0 1.4l1.2 0l0 .6l-1.2 0l0 4.5l-.7 0l0-4.5zm7.2 3.1c0 .3 0 1.1 0 1.4c0 0-.6 0-.6 0c0-.4 0-.8-.1-.9c0 0 0 0 0 0c-.3.6-.9 1-1.7 1c-1.6 0-2-1-2-2.2c.03.04 0-3 0-3l.7 0c0 0-.01 3.01 0 3c0 .8.2 1.6 1.3 1.6c.9 0 1.7-.6 1.7-2c.03-.04 0-2.6 0-2.6l.7 0c0 0-.01 3.67 0 3.7zm1.8-2.3c0-.3-.1-1.1-.1-1.4c0 0 .7 0 .7 0c0 .4 0 .8 0 .9c0 0 .1 0 .1 0c.2-.6.9-1 1.7-1c1.6 0 2 1.1 2 2.2c-.04-.03 0 3 0 3l-.7 0c0 0 0-2.99 0-3c0-.8-.2-1.6-1.3-1.6c-1 0-1.7.7-1.7 2.1c-.04-.04 0 2.5 0 2.5l-.7 0c0 0 0-3.65 0-3.7zm10.6 2.8c0 0-.06.01-.1 0c-.4.7-1.2 1-2 1c-1.6 0-2.7-1.1-2.7-2.6c0-1.6 1.1-2.7 2.7-2.7c.8 0 1.6.3 2 1c.04.01.1 0 .1 0l0-4.1l.6 0l0 8.3l-.6 0l0-.9zm-2.1-3.7c-1.2 0-2 .9-2 2.1c0 1.1.8 2 2 2c1.2 0 2.1-.9 2.1-2c0-1.2-.9-2.1-2.1-2.1zm4.3 3.3c.3.5.9.8 1.5.8c.6 0 1.2-.3 1.2-.9c0-1.4-3-.4-3-2.4c0-.9.9-1.4 1.7-1.4c.8 0 1.5.3 1.8.9c0 0-.6.4-.6.4c-.2-.5-.6-.7-1.2-.7c-.5 0-1.1.3-1.1.8c0 1.4 3 .3 3 2.4c0 1-.8 1.5-1.8 1.5c-.9 0-1.6-.3-2-1c0 0 .5-.4.5-.4zm8-3.2l-1.1 0l0-.6l1.1 0c0 0-.04-1.64 0-1.6c0-1.4.8-1.7 1.5-1.7c.3 0 .5 0 .7.1c0 0-.1.6-.1.6c-.2-.1-.3-.2-.6-.2c-.6 0-.9.5-.9 1.4c.02 0 0 1.4 0 1.4l1.2 0l0 .6l-1.2 0l0 4.5l-.6 0l0-4.5zm2.8.8c0-.3 0-1.1 0-1.4c0 0 .6 0 .6 0c.1.4.1.8.1.9c.3-.6.8-1 1.6-1c.1 0 .3 0 .4 0c0 0-.1.7-.1.7c-.1 0-.2-.1-.2-.1c-1.2 0-1.7.8-1.7 1.8c0 .03 0 2.8 0 2.8l-.7 0c0 0 .04-3.65 0-3.7zm5.9-1.5c1.6 0 2.7 1.1 2.7 2.7c0 1.5-1.1 2.6-2.7 2.6c-1.6 0-2.7-1.1-2.7-2.6c0-1.6 1.1-2.7 2.7-2.7zm0 4.7c1.2 0 2-.9 2-2c0-1.2-.8-2.1-2-2.1c-1.2 0-2 .9-2 2.1c0 1.1.8 2 2 2zm4.1-3.2c0-.3 0-1.1 0-1.4c0 0 .6 0 .6 0c.1.4.1.8.1.9c0 0 0 0 0 0c.3-.6.9-1 1.8-1c.6 0 1.2.3 1.5 1.1c.3-.8 1-1.1 1.7-1.1c1.6 0 2 1.1 2 2.2c-.05-.03 0 3 0 3l-.7 0c0 0-.01-2.99 0-3c0-.8-.2-1.6-1.3-1.6c-1.2 0-1.5 1-1.5 1.7c-.02.04 0 2.9 0 2.9l-.7 0c0 0 .02-3.06 0-3.1c0-.9-.3-1.5-1-1.5c-1 0-1.8.7-1.8 2.1c0-.04 0 2.5 0 2.5l-.7 0c0 0 .04-3.65 0-3.7zm12.4-4.1l1.1 0l2.8 6.5l2.8-6.5l1.1 0l0 7.8l-.7 0l0-6.9l-.1 0l-2.9 6.9l-.4 0l-3-6.9l0 0l0 6.9l-.7 0l0-7.8zm9.7 4.1c0-.3-.1-1.1-.1-1.4c0 0 .7 0 .7 0c0 .4 0 .8 0 .9c.3-.6.9-1 1.6-1c.1 0 .3 0 .4 0c0 0-.1.7-.1.7c-.1 0-.2-.1-.2-.1c-1.2 0-1.7.8-1.7 1.8c.01.03 0 2.8 0 2.8l-.6 0c0 0-.05-3.65 0-3.7zm3.2 2.7c.3 0 .5.2.5.5c0 .3-.2.6-.5.6c-.3 0-.6-.3-.6-.6c0-.3.3-.5.6-.5zm9.1-1.1c0 1 0 1.5.1 2.1c0 0-.6 0-.6 0c-.1-.3-.1-.5-.1-.8c0 0 0 0 0 0c-.4.6-1 .9-1.8.9c-.9 0-1.8-.4-1.8-1.5c0-1.5 1.8-1.7 2.8-1.7c.01.02.8 0 .8 0c0 0-.02-.29 0-.3c0-.9-.6-1.2-1.5-1.2c-.5 0-1.1.2-1.5.6c0 0-.4-.5-.4-.5c.5-.5 1.3-.7 1.9-.7c1.3 0 2.1.5 2.1 1.8c0 0 0 1.3 0 1.3zm-1.3-.5c-1.1 0-2.2.3-2.2 1.2c0 .6.6.9 1.1.9c1.4 0 1.8-.9 1.8-1.7c-.02-.01 0-.4 0-.4c0 0-.75.05-.7 0zm3-1.1c0-.3 0-1.1 0-1.4c0 0 .6 0 .6 0c0 .4.1.8.1.9c0 0 0 0 0 0c.3-.6.9-1 1.8-1c1.5 0 1.9 1.1 1.9 2.2c-.01-.03 0 3 0 3l-.7 0c0 0 .03-2.99 0-3c0-.8-.2-1.6-1.2-1.6c-1 0-1.8.7-1.8 2.1c-.01-.04 0 2.5 0 2.5l-.7 0c0 0 .03-3.65 0-3.7zm10.6 2.8c0 0-.03.01 0 0c-.4.7-1.3 1-2.1 1c-1.5 0-2.6-1.1-2.6-2.6c0-1.6 1.1-2.7 2.6-2.7c.8 0 1.7.3 2.1 1c-.03.01 0 0 0 0l0-4.1l.7 0l0 8.3l-.7 0l0-.9zm-2.1-3.7c-1.2 0-2 .9-2 2.1c0 1.1.8 2 2 2c1.2 0 2.2-.9 2.2-2c0-1.2-1-2.1-2.2-2.1zm7.3-3.2l1.1 0l2.9 6.5l2.8-6.5l1 0l0 7.8l-.7 0l0-6.9l0 0l-3 6.9l-.3 0l-3-6.9l0 0l0 6.9l-.8 0l0-7.8zm9.7 4.1c0-.3 0-1.1 0-1.4c0 0 .6 0 .6 0c0 .4 0 .8.1.9c.3-.6.8-1 1.6-1c.1 0 .2 0 .4 0c0 0-.1.7-.1.7c-.1 0-.2-.1-.3-.1c-1.1 0-1.6.8-1.6 1.8c-.03.03 0 2.8 0 2.8l-.7 0c0 0 .01-3.65 0-3.7zm3.7 2.4c.3.5.9.8 1.5.8c.5 0 1.1-.3 1.1-.9c0-1.4-3-.4-3-2.4c0-.9.9-1.4 1.7-1.4c.9 0 1.5.3 1.8.9c0 0-.6.4-.6.4c-.2-.5-.6-.7-1.2-.7c-.4 0-1 .3-1 .8c0 1.4 3 .3 3 2.4c0 1-.9 1.5-1.9 1.5c-.8 0-1.6-.3-2-1c0 0 .6-.4.6-.4zm5.2.3c.3 0 .5.2.5.5c0 .3-.2.6-.5.6c-.3 0-.5-.3-.5-.6c0-.3.2-.5.5-.5z" stroke="none" fill="#fff"/></g><g id="Polygon48088"><path d="m1 190.2l1.1 0l2.8 6.5l2.9-6.5l1 0l0 7.8l-.7 0l0-6.9l-.1 0l-2.9 6.9l-.3 0l-3.1-6.9l0 0l0 6.9l-.7 0l0-7.8zm14.1 6.8c-.5.8-1.3 1.1-2.2 1.1c-1.5 0-2.5-1.1-2.5-2.7c0-1.5 1-2.6 2.5-2.6c1.6 0 2.4 1.2 2.4 2.4c0-.04 0 .4 0 .4c0 0-4.27.02-4.3 0c0 .6.4 1.9 2 1.9c.6 0 1.3-.3 1.7-.9c0 0 .4.4.4.4zm-.5-2c0-.9-.7-1.6-1.7-1.6c-1.5 0-1.9 1.4-1.9 1.6c0 0 3.6 0 3.6 0zm2.2-.7c0-.3-.1-1.1-.1-1.4c0 0 .7 0 .7 0c0 .4 0 .8 0 .9c0 0 .1 0 .1 0c.2-.6.9-1 1.7-1c.7 0 1.3.3 1.5 1.1c.3-.8 1-1.1 1.8-1.1c1.5 0 1.9 1.1 1.9 2.2c-.01-.03 0 3 0 3l-.7 0c0 0 .03-2.99 0-3c0-.8-.2-1.6-1.2-1.6c-1.3 0-1.6 1-1.6 1.7c.01.04 0 2.9 0 2.9l-.6 0c0 0-.05-3.06 0-3.1c0-.9-.4-1.5-1.1-1.5c-1 0-1.8.7-1.8 2.1c.03-.04 0 2.5 0 2.5l-.6 0c0 0-.02-3.65 0-3.7zm11.7-1.5c1.6 0 2.7 1.1 2.7 2.7c0 1.5-1.1 2.6-2.7 2.6c-1.5 0-2.6-1.1-2.6-2.6c0-1.6 1.1-2.7 2.6-2.7zm0 4.7c1.3 0 2-.9 2-2c0-1.2-.7-2.1-2-2.1c-1.2 0-2 .9-2 2.1c0 1.1.8 2 2 2zm4.2-3.2c0-.3-.1-1.1-.1-1.4c0 0 .7 0 .7 0c0 .4 0 .8 0 .9c.4-.6.9-1 1.6-1c.2 0 .3 0 .4 0c0 0 0 .7 0 .7c-.1 0-.2-.1-.3-.1c-1.1 0-1.7.8-1.7 1.8c.04.03 0 2.8 0 2.8l-.6 0c0 0-.02-3.65 0-3.7zm3.8-1.4l.6 0l0 5.1l-.6 0l0-5.1zm.3-2.5c.3 0 .5.2.5.5c0 .3-.2.5-.5.5c-.3 0-.5-.2-.5-.5c0-.3.2-.5.5-.5zm6.1 5.5c0 1 .1 1.5.1 2.1c0 0-.6 0-.6 0c0-.3 0-.5 0-.8c0 0-.1 0-.1 0c-.3.6-.9.9-1.8.9c-.8 0-1.7-.4-1.7-1.5c0-1.5 1.8-1.7 2.8-1.7c-.03.02.7 0 .7 0c0 0 .04-.29 0-.3c0-.9-.6-1.2-1.4-1.2c-.6 0-1.1.2-1.5.6c0 0-.4-.5-.4-.5c.5-.5 1.2-.7 1.9-.7c1.2 0 2 .5 2 1.8c0 0 0 1.3 0 1.3zm-1.3-.5c-1.1 0-2.2.3-2.2 1.2c0 .6.6.9 1.2.9c1.4 0 1.7-.9 1.7-1.7c.04-.01 0-.4 0-.4c0 0-.69.05-.7 0zm3.2-5.7l.7 0l0 8.3l-.7 0l0-8.3zm5.6.5l4.6 0l0 .7l-3.9 0l0 2.7l3.7 0l0 .7l-3.7 0l0 3.7l-.7 0l0-7.8zm10.2 6.4c0 .3.1 1.1.1 1.4c0 0-.7 0-.7 0c0-.4 0-.8 0-.9c0 0-.1 0-.1 0c-.2.6-.9 1-1.7 1c-1.6 0-1.9-1-1.9-2.2c-.05.04 0-3 0-3l.6 0c0 0 .01 3.01 0 3c0 .8.2 1.6 1.3 1.6c1 0 1.8-.6 1.8-2c-.05-.04 0-2.6 0-2.6l.6 0c0 0 .01 3.67 0 3.7zm1.8-2.3c0-.3 0-1.1 0-1.4c0 0 .6 0 .6 0c0 .4.1.8.1.9c0 0 0 0 0 0c.3-.6.9-1 1.7-1c1.6 0 2 1.1 2 2.2c-.02-.03 0 3 0 3l-.7 0c0 0 .02-2.99 0-3c0-.8-.2-1.6-1.3-1.6c-.9 0-1.7.7-1.7 2.1c-.02-.04 0 2.5 0 2.5l-.7 0c0 0 .03-3.65 0-3.7zm10.6 2.8c0 0-.04.01 0 0c-.4.7-1.3 1-2.1 1c-1.5 0-2.6-1.1-2.6-2.6c0-1.6 1.1-2.7 2.6-2.7c.8 0 1.7.3 2.1 1c-.04.01 0 0 0 0l0-4.1l.6 0l0 8.3l-.6 0l0-.9zm-2.1-3.7c-1.2 0-2 .9-2 2.1c0 1.1.8 2 2 2c1.2 0 2.2-.9 2.2-2c0-1.2-1-2.1-2.2-2.1zm11.2 2.5c0 1 0 1.5.1 2.1c0 0-.6 0-.6 0c-.1-.3-.1-.5-.1-.8c0 0 0 0 0 0c-.4.6-1 .9-1.8.9c-.9 0-1.8-.4-1.8-1.5c0-1.5 1.8-1.7 2.8-1.7c.01.02.8 0 .8 0c0 0-.02-.29 0-.3c0-.9-.6-1.2-1.5-1.2c-.5 0-1.1.2-1.5.6c0 0-.4-.5-.4-.5c.5-.5 1.3-.7 1.9-.7c1.3 0 2.1.5 2.1 1.8c0 0 0 1.3 0 1.3zm-1.3-.5c-1.1 0-2.3.3-2.3 1.2c0 .6.7.9 1.2.9c1.4 0 1.8-.9 1.8-1.7c-.02-.01 0-.4 0-.4c0 0-.75.05-.7 0zm3-1.1c0-.3 0-1.1 0-1.4c0 0 .6 0 .6 0c0 .4.1.8.1.9c0 0 0 0 0 0c.3-.6.9-1 1.8-1c1.5 0 1.9 1.1 1.9 2.2c-.01-.03 0 3 0 3l-.7 0c0 0 .03-2.99 0-3c0-.8-.2-1.6-1.2-1.6c-1 0-1.8.7-1.8 2.1c-.01-.04 0 2.5 0 2.5l-.7 0c0 0 .03-3.65 0-3.7zm10.6 2.8c0 0-.03.01 0 0c-.4.7-1.3 1-2.1 1c-1.5 0-2.6-1.1-2.6-2.6c0-1.6 1.1-2.7 2.6-2.7c.8 0 1.7.3 2.1 1c-.03.01 0 0 0 0l0-4.1l.6 0l0 8.3l-.6 0l0-.9zm-2.1-3.7c-1.2 0-2 .9-2 2.1c0 1.1.8 2 2 2c1.2 0 2.2-.9 2.2-2c0-1.2-1-2.1-2.2-2.1zm13.8 4.1c-.9.5-1.9.7-2.9.7c-2.3 0-4-1.7-4-4.1c0-2.4 1.7-4.1 4-4.1c1.2 0 2.1.4 2.8 1.1c0 0-.5.5-.5.5c-.5-.5-1.4-.9-2.3-.9c-2 0-3.3 1.5-3.3 3.4c0 1.9 1.3 3.4 3.3 3.4c.9 0 1.6-.1 2.2-.4c.01-.02 0-2.6 0-2.6l-1.9 0l0-.7l2.6 0c0 0 .04 3.7 0 3.7zm2.1-4.6l.7 0l0 5.1l-.7 0l0-5.1zm.3-2.5c.3 0 .5.2.5.5c0 .3-.2.5-.5.5c-.2 0-.5-.2-.5-.5c0-.3.3-.5.5-.5zm2.6 3.1l-1.1 0l0-.6l1.1 0c0 0 0-1.64 0-1.6c0-1.4.9-1.7 1.5-1.7c.3 0 .6 0 .8.1c0 0-.2.6-.2.6c-.1-.1-.3-.2-.6-.2c-.6 0-.8.5-.8 1.4c-.04 0 0 1.4 0 1.4l1.1 0l0 .6l-1.1 0l0 4.5l-.7 0l0-4.5zm5.4 0l-1.5 0c0 0 .01 3.32 0 3.3c0 .5.3.7.7.7c.3 0 .5 0 .8-.1c0 0 0 .6 0 .6c-.2 0-.6.1-.8.1c-1 0-1.3-.5-1.3-1.3c-.04.02 0-3.3 0-3.3l-1.1 0l0-.6l1.1 0l0-1.4l.6 0l0 1.4l1.5 0l0 .6z" stroke="none" fill="#fff"/></g><g id="Polygon48087"><path d="m1.1 176.2l.9 0l4.7 6.8l.1 0l0-6.8l.7 0l0 7.8l-.9 0l-4.8-6.8l0 0l0 6.8l-.7 0l0-7.8zm8.9 6.8c.3 0 .5.2.5.5c0 .3-.2.6-.5.6c-.3 0-.5-.3-.5-.6c0-.3.2-.5.5-.5zm9.1-1.1c0 1 0 1.5.1 2.1c0 0-.6 0-.6 0c-.1-.3-.1-.5-.1-.8c0 0 0 0 0 0c-.4.6-.9.9-1.8.9c-.8 0-1.8-.4-1.8-1.5c0-1.5 1.8-1.7 2.8-1.7c.04.02.8 0 .8 0c0 0 .01-.29 0-.3c0-.9-.6-1.2-1.4-1.2c-.6 0-1.1.2-1.6.6c0 0-.4-.5-.4-.5c.5-.5 1.3-.7 2-.7c1.2 0 2 .5 2 1.8c0 0 0 1.3 0 1.3zm-1.3-.5c-1.1 0-2.2.3-2.2 1.2c0 .6.6.9 1.1.9c1.5 0 1.8-.9 1.8-1.7c.01-.01 0-.4 0-.4c0 0-.71.05-.7 0zm3.1-1.1c0-.3-.1-1.1-.1-1.4c0 0 .7 0 .7 0c0 .4 0 .8 0 .9c0 0 0 0 0 0c.3-.6 1-1 1.8-1c1.6 0 1.9 1.1 1.9 2.2c.02-.03 0 3 0 3l-.6 0c0 0-.04-2.99 0-3c0-.8-.3-1.6-1.3-1.6c-1 0-1.8.7-1.8 2.1c.03-.04 0 2.5 0 2.5l-.6 0c0 0-.03-3.65 0-3.7zm10.5 2.8c0 0 .01.01 0 0c-.4.7-1.3 1-2 1c-1.6 0-2.7-1.1-2.7-2.6c0-1.6 1.1-2.7 2.7-2.7c.7 0 1.6.3 2 1c.01.01 0 0 0 0l0-4.1l.7 0l0 8.3l-.7 0l0-.9zm-2-3.7c-1.3 0-2 .9-2 2.1c0 1.1.7 2 2 2c1.2 0 2.1-.9 2.1-2c0-1.2-.9-2.1-2.1-2.1zm7.6 3.2c.3.6 1 .9 1.7.9c1 0 1.8-.6 1.8-1.5c0-2.2-4-.9-4-3.9c0-1.3 1.2-2.1 2.5-2.1c.8 0 1.6.3 2.1 1c0 0-.6.4-.6.4c-.4-.5-.9-.7-1.5-.7c-1 0-1.8.5-1.8 1.4c0 2.4 4 1 4 3.9c0 1.4-1.1 2.2-2.4 2.2c-1 0-1.9-.3-2.5-1.2c0 0 .7-.4.7-.4zm5-3.7l.7 0l1.2 4.3l0 0l1.5-4.3l.6 0l1.5 4.3l0 0l1.2-4.3l.7 0l-1.5 5.1l-.7 0l-1.5-4.2l0 0l-1.5 4.2l-.6 0l-1.6-5.1zm12.4 3c0 1 0 1.5.1 2.1c0 0-.6 0-.6 0c-.1-.3-.1-.5-.1-.8c0 0 0 0 0 0c-.4.6-1 .9-1.8.9c-.9 0-1.8-.4-1.8-1.5c0-1.5 1.8-1.7 2.8-1.7c.01.02.8 0 .8 0c0 0-.02-.29 0-.3c0-.9-.6-1.2-1.5-1.2c-.5 0-1.1.2-1.5.6c0 0-.4-.5-.4-.5c.5-.5 1.3-.7 1.9-.7c1.3 0 2.1.5 2.1 1.8c0 0 0 1.3 0 1.3zm-1.3-.5c-1.1 0-2.2.3-2.2 1.2c0 .6.6.9 1.1.9c1.4 0 1.8-.9 1.8-1.7c-.02-.01 0-.4 0-.4c0 0-.75.05-.7 0zm3-1.1c0-.3 0-1.1 0-1.4c0 0 .6 0 .6 0c0 .4.1.8.1.9c0 0 0 0 0 0c.3-.6.9-1 1.8-1c1.5 0 1.9 1.1 1.9 2.2c-.01-.03 0 3 0 3l-.7 0c0 0 .03-2.99 0-3c0-.8-.2-1.6-1.2-1.6c-1 0-1.8.7-1.8 2.1c-.01-.04 0 2.5 0 2.5l-.7 0c0 0 .03-3.65 0-3.7zm12.4 1.4c0 .9-.2 2.5-2.2 2.5c-1.1 0-1.8-.6-2-1.6c0 0 .7-.1.7-.1c.2.7.6 1 1.3 1c1.1 0 1.4-.7 1.4-1.6c.04-.01 0-5.7 0-5.7l.8 0c0 0-.04 5.51 0 5.5zm2.5 1.3c.3 0 .5.2.5.5c0 .3-.2.6-.5.6c-.3 0-.6-.3-.6-.6c0-.3.3-.5.6-.5zm7-6.1l-2.6 0l0-.7l6 0l0 .7l-2.6 0l0 7.1l-.8 0l0-7.1zm7.7 5.7c0 .3.1 1.1.1 1.4c0 0-.7 0-.7 0c0-.4 0-.8 0-.9c0 0 0 0 0 0c-.3.6-1 1-1.8 1c-1.6 0-1.9-1-1.9-2.2c-.02.04 0-3 0-3l.6 0c0 0 .04 3.01 0 3c0 .8.3 1.6 1.3 1.6c1 0 1.8-.6 1.8-2c-.02-.04 0-2.6 0-2.6l.6 0c0 0 .03 3.67 0 3.7zm1.9-2.3c0-.3-.1-1.1-.1-1.4c0 0 .7 0 .7 0c0 .4 0 .8 0 .9c.3-.6.9-1 1.6-1c.1 0 .3 0 .4 0c0 0-.1.7-.1.7c-.1 0-.2-.1-.2-.1c-1.2 0-1.7.8-1.7 1.8c.01.03 0 2.8 0 2.8l-.6 0c0 0-.05-3.65 0-3.7zm3.6 0c0-.3 0-1.1 0-1.4c0 0 .6 0 .6 0c0 .4 0 .8.1.9c0 0 0 0 0 0c.3-.6.9-1 1.7-1c1.6 0 2 1.1 2 2.2c-.03-.03 0 3 0 3l-.7 0c0 0 .01-2.99 0-3c0-.8-.2-1.6-1.3-1.6c-.9 0-1.7.7-1.7 2.1c-.03-.04 0 2.5 0 2.5l-.7 0c0 0 .01-3.65 0-3.7zm6-4.6l.6 0l0 4.1c0 0 .07.01.1 0c.4-.7 1.2-1 2-1c1.6 0 2.7 1.1 2.7 2.7c0 1.5-1.1 2.6-2.7 2.6c-.8 0-1.6-.3-2-1c-.03.01-.1 0-.1 0l0 .9l-.6 0l0-8.3zm2.7 7.8c1.2 0 2-.9 2-2c0-1.2-.8-2.1-2-2.1c-1.2 0-2.1.9-2.1 2.1c0 1.1.9 2 2.1 2zm4.3-7.8l.6 0l0 8.3l-.6 0l0-8.3zm6.4 6.2c0 1 .1 1.5.1 2.1c0 0-.6 0-.6 0c0-.3 0-.5 0-.8c0 0-.1 0-.1 0c-.3.6-.9.9-1.7.9c-.9 0-1.8-.4-1.8-1.5c0-1.5 1.8-1.7 2.8-1.7c-.02.02.7 0 .7 0c0 0 .05-.29 0-.3c0-.9-.6-1.2-1.4-1.2c-.6 0-1.1.2-1.5.6c0 0-.4-.5-.4-.5c.5-.5 1.3-.7 1.9-.7c1.2 0 2 .5 2 1.8c0 0 0 1.3 0 1.3zm-1.3-.5c-1.1 0-2.2.3-2.2 1.2c0 .6.6.9 1.2.9c1.4 0 1.7-.9 1.7-1.7c.05-.01 0-.4 0-.4c0 0-.68.05-.7 0zm7.5 1.7c0 0 .02.01 0 0c-.4.7-1.3 1-2 1c-1.6 0-2.7-1.1-2.7-2.6c0-1.6 1.1-2.7 2.7-2.7c.7 0 1.6.3 2 1c.02.01 0 0 0 0l0-4.1l.7 0l0 8.3l-.7 0l0-.9zm-2-3.7c-1.3 0-2 .9-2 2.1c0 1.1.7 2 2 2c1.2 0 2.1-.9 2.1-2c0-1.2-.9-2.1-2.1-2.1z" stroke="none" fill="#fff"/></g><g id="Polygon48086"><path d="m.5 169.2c0 0 2.88-3.06 2.9-3.1c.5-.5 1.1-1.1 1.1-2c0-.9-.7-1.4-1.6-1.4c-.8 0-1.4.5-1.5 1.3c0 0-.8-.1-.8-.1c.3-1.2 1.2-1.8 2.4-1.8c1.2 0 2.2.7 2.2 2c0 1.2-.8 2-1.6 2.8c.01.01-2.4 2.5-2.4 2.5l4.1 0l0 .6l-4.8 0l0-.8zm8.1-7.1c2.2 0 2.6 2.3 2.6 4c0 1.7-.4 4-2.6 4c-2.2 0-2.6-2.3-2.6-4c0-1.7.4-4 2.6-4zm0 7.4c1.6 0 1.8-2.2 1.8-3.4c0-1.2-.2-3.4-1.8-3.4c-1.7 0-1.9 2.2-1.9 3.4c0 1.2.2 3.4 1.9 3.4zm6.2-4l-1.4 0c0 0-.05 3.32 0 3.3c0 .5.2.7.7.7c.2 0 .5 0 .7-.1c0 0 .1.6.1.6c-.3 0-.6.1-.9.1c-.9 0-1.3-.5-1.3-1.3c-.01.02 0-3.3 0-3.3l-1.1 0l0-.6l1.1 0l0-1.4l.7 0l0 1.4l1.4 0l0 .6zm1.2-3.8l.6 0l0 4.1c0 0 .06.01.1 0c.2-.6.9-1 1.7-1c1.6 0 1.9 1.1 1.9 2.2c.04-.03 0 3 0 3l-.6 0c0 0-.02-2.99 0-3c0-.8-.3-1.6-1.3-1.6c-1 0-1.8.7-1.8 2.1c.04-.04 0 2.5 0 2.5l-.6 0l0-8.3zm13.2 7.6c-.5.5-1.1.8-1.9.8c-1.5 0-2.6-1.1-2.6-2.6c0-1.6 1.1-2.7 2.6-2.7c.8 0 1.4.3 1.9.9c0 0-.5.4-.5.4c-.4-.5-.8-.7-1.4-.7c-1.2 0-2 .9-2 2.1c0 1.1.8 2 2 2c.6 0 1.1-.2 1.4-.7c0 0 .5.5.5.5zm5.5-.3c-.5.8-1.3 1.1-2.2 1.1c-1.5 0-2.5-1.1-2.5-2.7c0-1.5 1-2.6 2.5-2.6c1.6 0 2.4 1.2 2.4 2.4c-.01-.04 0 .4 0 .4c0 0-4.28.02-4.3 0c0 .6.4 1.9 1.9 1.9c.7 0 1.4-.3 1.8-.9c0 0 .4.4.4.4zm-.5-2c0-.9-.7-1.6-1.7-1.6c-1.5 0-1.9 1.4-1.9 1.6c0 0 3.6 0 3.6 0zm2.2-.7c0-.3-.1-1.1-.1-1.4c0 0 .7 0 .7 0c0 .4 0 .8 0 .9c0 0 0 0 0 0c.3-.6 1-1 1.8-1c1.6 0 1.9 1.1 1.9 2.2c.02-.03 0 3 0 3l-.6 0c0 0-.04-2.99 0-3c0-.8-.3-1.6-1.3-1.6c-1 0-1.8.7-1.8 2.1c.02-.04 0 2.5 0 2.5l-.6 0c0 0-.03-3.65 0-3.7zm8.6-.8l-1.5 0c0 0 .01 3.32 0 3.3c0 .5.3.7.7.7c.3 0 .5 0 .8-.1c0 0 0 .6 0 .6c-.2 0-.6.1-.8.1c-1 0-1.3-.5-1.3-1.3c-.04.02 0-3.3 0-3.3l-1.1 0l0-.6l1.1 0l0-1.4l.6 0l0 1.4l1.5 0l0 .6zm5.4 3.1c0 .3.1 1.1.1 1.4c0 0-.7 0-.7 0c0-.4 0-.8 0-.9c0 0 0 0 0 0c-.3.6-.9 1-1.8 1c-1.6 0-1.9-1-1.9-2.2c-.01.04 0-3 0-3l.6 0c0 0 .05 3.01 0 3c0 .8.3 1.6 1.3 1.6c1 0 1.8-.6 1.8-2c-.01-.04 0-2.6 0-2.6l.6 0c0 0 .04 3.67 0 3.7zm1.9-2.3c0-.3-.1-1.1-.1-1.4c0 0 .7 0 .7 0c0 .4 0 .8 0 .9c.3-.6.9-1 1.6-1c.2 0 .3 0 .4 0c0 0-.1.7-.1.7c-.1 0-.2-.1-.2-.1c-1.2 0-1.7.8-1.7 1.8c.02.03 0 2.8 0 2.8l-.6 0c0 0-.04-3.65 0-3.7zm5.1 5.3c-.3.6-.7 1-1.4 1c-.3 0-.5 0-.7-.1c0 0 .1-.6.1-.6c.2.1.4.1.6.1c.5 0 .7-.4.8-.8c.01 0 .5-1.2.5-1.2l-2.1-5.1l.7 0l1.7 4.3l1.7-4.3l.7 0c0 0-2.65 6.67-2.6 6.7zm3-2.6l.8 0l-.9 2.5l-.6 0l.7-2.5zm7.2-6.1l-2.6 0l0-.7l6 0l0 .7l-2.6 0l0 7.1l-.8 0l0-7.1zm4.4-1.2l.7 0l0 4.1c0 0 .02.01 0 0c.3-.6.9-1 1.8-1c1.5 0 1.9 1.1 1.9 2.2c0-.03 0 3 0 3l-.7 0c0 0 .04-2.99 0-3c0-.8-.2-1.6-1.2-1.6c-1 0-1.8.7-1.8 2.1c0-.04 0 2.5 0 2.5l-.7 0l0-8.3zm10.6 7.3c-.5.8-1.3 1.1-2.2 1.1c-1.5 0-2.5-1.1-2.5-2.7c0-1.5 1-2.6 2.5-2.6c1.6 0 2.4 1.2 2.4 2.4c0-.04 0 .4 0 .4c0 0-4.27.02-4.3 0c0 .6.4 1.9 2 1.9c.6 0 1.3-.3 1.7-.9c0 0 .4.4.4.4zm-.5-2c0-.9-.7-1.6-1.7-1.6c-1.5 0-1.9 1.4-1.9 1.6c0 0 3.6 0 3.6 0zm11.6 1.8c-.7 1-1.7 1.4-2.9 1.4c-2.3 0-4-1.7-4-4.1c0-2.4 1.7-4.1 4-4.1c1.1 0 2 .4 2.7 1.2c0 0-.6.5-.6.5c-.5-.7-1.3-1-2.1-1c-2 0-3.3 1.5-3.3 3.4c0 1.9 1.3 3.4 3.3 3.4c.8 0 1.8-.3 2.3-1.2c0 0 .6.5.6.5zm1.2-7.1l.6 0l0 4.1c0 0 .06.01.1 0c.2-.6.9-1 1.7-1c1.6 0 1.9 1.1 1.9 2.2c.03-.03 0 3 0 3l-.6 0c0 0-.03-2.99 0-3c0-.8-.3-1.6-1.3-1.6c-1 0-1.8.7-1.8 2.1c.04-.04 0 2.5 0 2.5l-.6 0l0-8.3zm6.1 4.6c0-.3-.1-1.1-.1-1.4c0 0 .7 0 .7 0c0 .4 0 .8 0 .9c.4-.6.9-1 1.7-1c.1 0 .2 0 .3 0c0 0 0 .7 0 .7c-.1 0-.2-.1-.3-.1c-1.1 0-1.6.8-1.6 1.8c-.05.03 0 2.8 0 2.8l-.7 0c0 0-.01-3.65 0-3.7zm3.8-1.4l.6 0l0 5.1l-.6 0l0-5.1zm.3-2.5c.3 0 .5.2.5.5c0 .3-.2.5-.5.5c-.3 0-.5-.2-.5-.5c0-.3.2-.5.5-.5zm2.2 6.3c.3.5.9.8 1.5.8c.6 0 1.1-.3 1.1-.9c0-1.4-3-.4-3-2.4c0-.9.9-1.4 1.8-1.4c.8 0 1.4.3 1.8.9c0 0-.6.4-.6.4c-.3-.5-.6-.7-1.2-.7c-.5 0-1.1.3-1.1.8c0 1.4 3 .3 3 2.4c0 1-.9 1.5-1.8 1.5c-.9 0-1.7-.3-2.1-1c0 0 .6-.4.6-.4zm7.2-3.2l-1.5 0c0 0 .01 3.32 0 3.3c0 .5.3.7.7.7c.3 0 .5 0 .8-.1c0 0 0 .6 0 .6c-.2 0-.6.1-.8.1c-1 0-1.3-.5-1.3-1.3c-.04.02 0-3.3 0-3.3l-1.1 0l0-.6l1.1 0l0-1.4l.6 0l0 1.4l1.5 0l0 .6zm1.3-.6l.6 0l0 5.1l-.6 0l0-5.1zm.3-2.5c.3 0 .5.2.5.5c0 .3-.2.5-.5.5c-.3 0-.5-.2-.5-.5c0-.3.2-.5.5-.5zm2.2 3.9c0-.3-.1-1.1-.1-1.4c0 0 .7 0 .7 0c0 .4 0 .8 0 .9c0 0 .1 0 .1 0c.2-.6.9-1 1.7-1c1.6 0 1.9 1.1 1.9 2.2c.04-.03 0 3 0 3l-.6 0c0 0-.02-2.99 0-3c0-.8-.3-1.6-1.3-1.6c-1 0-1.8.7-1.8 2.1c.04-.04 0 2.5 0 2.5l-.6 0c0 0-.02-3.65 0-3.7zm10 1.6c0 1 .1 1.5.1 2.1c0 0-.6 0-.6 0c0-.3 0-.5 0-.8c0 0-.1 0-.1 0c-.3.6-.9.9-1.7.9c-.9 0-1.8-.4-1.8-1.5c0-1.5 1.8-1.7 2.8-1.7c-.01.02.8 0 .8 0c0 0-.04-.29 0-.3c0-.9-.7-1.2-1.5-1.2c-.6 0-1.1.2-1.5.6c0 0-.4-.5-.4-.5c.5-.5 1.3-.7 1.9-.7c1.3 0 2 .5 2 1.8c0 0 0 1.3 0 1.3zm-1.3-.5c-1.1 0-2.2.3-2.2 1.2c0 .6.6.9 1.2.9c1.4 0 1.8-.9 1.8-1.7c-.04-.01 0-.4 0-.4c0 0-.77.05-.8 0z" stroke="none" fill="#fff"/></g><g id="Polygon48085"><path d="m1.1 148.2l4.6 0l0 .7l-3.9 0l0 2.7l3.7 0l0 .7l-3.7 0l0 3.7l-.7 0l0-7.8zm6 2.7l.7 0l0 5.1l-.7 0l0-5.1zm.3-2.5c.3 0 .5.2.5.5c0 .3-.2.5-.5.5c-.2 0-.5-.2-.5-.5c0-.3.3-.5.5-.5zm7.3 7.3c0 2.5-1.6 2.9-2.7 2.9c-1 0-2-.4-2.5-1c0 0 .5-.5.5-.5c.5.6 1.2.9 2 .9c2 0 2.1-1.7 2.1-2.3c-.02.01 0-.7 0-.7c0 0-.04.01 0 0c-.4.6-1.1 1-2 1c-1.5 0-2.7-1.2-2.7-2.6c0-1.4 1.2-2.6 2.7-2.6c.9 0 1.6.4 2 1c-.04-.02 0 0 0 0l0-.9l.6 0c0 0 .04 4.77 0 4.8zm-2.6-4.3c-1.1 0-2 .9-2 2c0 1.1.9 2 2 2c1.1 0 2-.9 2-2c0-1.1-.9-2-2-2zm8.6 3.2c0 .3 0 1.1 0 1.4c0 0-.6 0-.6 0c-.1-.4-.1-.8-.1-.9c0 0 0 0 0 0c-.3.6-.9 1-1.8 1c-1.5 0-1.9-1-1.9-2.2c0 .04 0-3 0-3l.7 0c0 0-.04 3.01 0 3c0 .8.2 1.6 1.2 1.6c1 0 1.8-.6 1.8-2c0-.04 0-2.6 0-2.6l.7 0c0 0-.04 3.67 0 3.7zm1.8-2.3c0-.3-.1-1.1-.1-1.4c0 0 .7 0 .7 0c0 .4 0 .8 0 .9c.4-.6.9-1 1.6-1c.2 0 .3 0 .4 0c0 0-.1.7-.1.7c-.1 0-.1-.1-.2-.1c-1.2 0-1.7.8-1.7 1.8c.03.03 0 2.8 0 2.8l-.6 0c0 0-.03-3.65 0-3.7zm7.9 2.7c-.5.8-1.3 1.1-2.2 1.1c-1.5 0-2.5-1.1-2.5-2.7c0-1.5 1-2.6 2.5-2.6c1.6 0 2.4 1.2 2.4 2.4c-.02-.04 0 .4 0 .4c0 0-4.29.02-4.3 0c0 .6.4 1.9 1.9 1.9c.7 0 1.4-.3 1.7-.9c0 0 .5.4.5.4zm-.5-2c0-.9-.8-1.6-1.7-1.6c-1.5 0-1.9 1.4-1.9 1.6c0 0 3.6 0 3.6 0zm2.6 2l.7 0l-.8 2.5l-.7 0l.8-2.5zm5.4-7.3l.6 0l0 8.3l-.6 0l0-8.3zm6.5 6.2c0 1 0 1.5.1 2.1c0 0-.7 0-.7 0c0-.3 0-.5 0-.8c0 0 0 0 0 0c-.4.6-1 .9-1.8.9c-.9 0-1.8-.4-1.8-1.5c0-1.5 1.8-1.7 2.8-1.7c0 .02.8 0 .8 0c0 0-.03-.29 0-.3c0-.9-.6-1.2-1.5-1.2c-.6 0-1.1.2-1.5.6c0 0-.4-.5-.4-.5c.5-.5 1.3-.7 1.9-.7c1.3 0 2.1.5 2.1 1.8c0 0 0 1.3 0 1.3zm-1.4-.5c-1.1 0-2.2.3-2.2 1.2c0 .6.6.9 1.2.9c1.4 0 1.8-.9 1.8-1.7c-.03-.01 0-.4 0-.4c0 0-.76.05-.8 0zm5.6-1.9l-1.4 0c0 0-.04 3.32 0 3.3c0 .5.2.7.7.7c.2 0 .5 0 .7-.1c0 0 .1.6.1.6c-.3 0-.6.1-.9.1c-.9 0-1.3-.5-1.3-1.3c0 .02 0-3.3 0-3.3l-1.1 0l0-.6l1.1 0l0-1.4l.7 0l0 1.4l1.4 0l0 .6zm5.7 3.5c-.5.8-1.3 1.1-2.2 1.1c-1.6 0-2.6-1.1-2.6-2.7c0-1.5 1.1-2.6 2.5-2.6c1.6 0 2.4 1.2 2.4 2.4c.03-.04 0 .4 0 .4c0 0-4.24.02-4.2 0c0 .6.3 1.9 1.9 1.9c.7 0 1.4-.3 1.7-.9c0 0 .5.4.5.4zm-.5-2c0-.9-.8-1.6-1.8-1.6c-1.4 0-1.8 1.4-1.8 1.6c0 0 3.6 0 3.6 0zm7-3.9l-.1 0l-1.4 1.2l-.4-.5l2-1.6l.5 0l0 7.8l-.6 0l0-6.9zm6.7 3.5c0 0-.05-.03 0 0c-.3.2-.8.3-1.2.3c-1.4 0-2.4-1.1-2.4-2.4c0-1.4 1.1-2.4 2.6-2.4c1.4 0 2.5 1 2.5 2.4c0 .8-.4 1.5-.7 2c0-.01-2.1 3.5-2.1 3.5l-.8 0l2.1-3.4zm.8-2.1c0-1.1-.8-1.8-1.8-1.8c-1.1 0-1.9.7-1.9 1.8c0 1 .9 1.8 1.9 1.8c1 0 1.8-.8 1.8-1.8zm4.4 1l-1.5 0c0 0 .04 3.32 0 3.3c0 .5.3.7.7.7c.3 0 .6 0 .8-.1c0 0 0 .6 0 .6c-.2 0-.6.1-.8.1c-1 0-1.3-.5-1.3-1.3c-.02.02 0-3.3 0-3.3l-1.1 0l0-.6l1.1 0l0-1.4l.6 0l0 1.4l1.5 0l0 .6zm1.2-3.8l.6 0l0 4.1c0 0 .05.01 0 0c.3-.6 1-1 1.8-1c1.6 0 1.9 1.1 1.9 2.2c.02-.03 0 3 0 3l-.6 0c0 0-.04-2.99 0-3c0-.8-.3-1.6-1.3-1.6c-1 0-1.8.7-1.8 2.1c.03-.04 0 2.5 0 2.5l-.6 0l0-8.3zm5.7 5.4l2.7 0l0 .6l-2.7 0l0-.6zm8.5 1.9c-.5.8-1.3 1.1-2.2 1.1c-1.5 0-2.5-1.1-2.5-2.7c0-1.5 1-2.6 2.5-2.6c1.6 0 2.4 1.2 2.4 2.4c-.01-.04 0 .4 0 .4c0 0-4.28.02-4.3 0c0 .6.4 1.9 1.9 1.9c.7 0 1.4-.3 1.7-.9c0 0 .5.4.5.4zm-.5-2c0-.9-.8-1.6-1.7-1.6c-1.5 0-1.9 1.4-1.9 1.6c0 0 3.6 0 3.6 0zm6.1.9c0 1 0 1.5.1 2.1c0 0-.6 0-.6 0c-.1-.3-.1-.5-.1-.8c0 0 0 0 0 0c-.4.6-.9.9-1.8.9c-.8 0-1.8-.4-1.8-1.5c0-1.5 1.8-1.7 2.8-1.7c.05.02.8 0 .8 0c0 0 .02-.29 0-.3c0-.9-.6-1.2-1.4-1.2c-.6 0-1.1.2-1.6.6c0 0-.3-.5-.3-.5c.4-.5 1.2-.7 1.9-.7c1.2 0 2 .5 2 1.8c0 0 0 1.3 0 1.3zm-1.3-.5c-1.1 0-2.2.3-2.2 1.2c0 .6.6.9 1.1.9c1.5 0 1.8-.9 1.8-1.7c.02-.01 0-.4 0-.4c0 0-.71.05-.7 0zm3.1-1.1c0-.3-.1-1.1-.1-1.4c0 0 .7 0 .7 0c0 .4 0 .8 0 .9c.3-.6.9-1 1.6-1c.2 0 .3 0 .4 0c0 0-.1.7-.1.7c-.1 0-.1-.1-.2-.1c-1.2 0-1.7.8-1.7 1.8c.03.03 0 2.8 0 2.8l-.6 0c0 0-.03-3.65 0-3.7zm3.7-4.6l.7 0l0 8.3l-.7 0l0-8.3zm4 9.9c-.3.6-.7 1-1.4 1c-.2 0-.4 0-.6-.1c0 0 0-.6 0-.6c.2.1.4.1.6.1c.5 0 .7-.4.9-.8c-.04 0 .4-1.2.4-1.2l-2-5.1l.7 0l1.7 4.3l1.6-4.3l.7 0c0 0-2.6 6.67-2.6 6.7z" stroke="none" fill="#fff"/></g><g id="Polygon48084"><path d="m4.6 134c2.4 0 4 1.7 4 4.1c0 2.4-1.6 4.1-4 4.1c-2.4 0-4-1.7-4-4.1c0-2.4 1.6-4.1 4-4.1zm0 7.5c2 0 3.3-1.5 3.3-3.4c0-1.9-1.3-3.4-3.3-3.4c-2 0-3.3 1.5-3.3 3.4c0 1.9 1.3 3.4 3.3 3.4zm5.5-4.6l.6 0l0 .9c0 0 .05.01 0 0c.5-.7 1.3-1 2.1-1c1.5 0 2.7 1.1 2.7 2.7c0 1.5-1.2 2.6-2.7 2.6c-.8 0-1.6-.3-2.1-1c.05.01 0 0 0 0l0 3.4l-.6 0l0-7.6zm2.7 4.6c1.2 0 2-.9 2-2c0-1.2-.8-2.1-2-2.1c-1.2 0-2.1.9-2.1 2.1c0 1.1.9 2 2.1 2zm4.1-4.6l.7 0l0 .9c0 0-.01.01 0 0c.4-.7 1.3-1 2-1c1.6 0 2.7 1.1 2.7 2.7c0 1.5-1.1 2.6-2.7 2.6c-.7 0-1.6-.3-2-1c-.01.01 0 0 0 0l0 3.4l-.7 0l0-7.6zm2.7 4.6c1.3 0 2-.9 2-2c0-1.2-.7-2.1-2-2.1c-1.2 0-2.1.9-2.1 2.1c0 1.1.9 2 2.1 2zm6.6-4.7c1.6 0 2.7 1.1 2.7 2.7c0 1.5-1.1 2.6-2.7 2.6c-1.6 0-2.7-1.1-2.7-2.6c0-1.6 1.1-2.7 2.7-2.7zm0 4.7c1.3 0 2-.9 2-2c0-1.2-.7-2.1-2-2.1c-1.2 0-2 .9-2 2.1c0 1.1.8 2 2 2zm4.2-.8c.3.5.9.8 1.5.8c.6 0 1.2-.3 1.2-.9c0-1.4-3-.4-3-2.4c0-.9.9-1.4 1.7-1.4c.8 0 1.5.3 1.8.9c0 0-.6.4-.6.4c-.3-.5-.6-.7-1.2-.7c-.5 0-1.1.3-1.1.8c0 1.4 3 .3 3 2.4c0 1-.8 1.5-1.8 1.5c-.9 0-1.7-.3-2.1-1c0 0 .6-.4.6-.4zm4.8-3.8l.7 0l0 5.1l-.7 0l0-5.1zm.3-2.5c.3 0 .5.2.5.5c0 .3-.2.5-.5.5c-.3 0-.5-.2-.5-.5c0-.3.2-.5.5-.5zm4.8 3.1l-1.5 0c0 0 .02 3.32 0 3.3c0 .5.3.7.7.7c.3 0 .5 0 .8-.1c0 0 0 .6 0 .6c-.2 0-.6.1-.8.1c-1 0-1.3-.5-1.3-1.3c-.04.02 0-3.3 0-3.3l-1.1 0l0-.6l1.1 0l0-1.4l.6 0l0 1.4l1.5 0l0 .6zm5.5 3.5c-.5.8-1.3 1.1-2.2 1.1c-1.5 0-2.5-1.1-2.5-2.7c0-1.5 1-2.6 2.5-2.6c1.6 0 2.4 1.2 2.4 2.4c-.01-.04 0 .4 0 .4c0 0-4.28.02-4.3 0c0 .6.4 1.9 1.9 1.9c.7 0 1.4-.3 1.8-.9c0 0 .4.4.4.4zm-.5-2c0-.9-.7-1.6-1.7-1.6c-1.5 0-1.9 1.4-1.9 1.6c0 0 3.6 0 3.6 0zm2.5-2.1c.3 0 .5.2.5.5c0 .3-.2.5-.5.5c-.3 0-.6-.2-.6-.5c0-.3.3-.5.6-.5zm0 4.1c.3 0 .5.2.5.5c0 .3-.2.6-.5.6c-.3 0-.6-.3-.6-.6c0-.3.3-.5.6-.5zm5.3-6.8c0 0 2.27.01 2.3 0c1.2 0 2.5.3 2.5 2.1c0 .8-.5 1.4-1.4 1.6c0 0 0 0 0 0c1 .1 1.7.8 1.7 1.9c0 1.8-1.5 2.2-2.6 2.2c.02 0-2.5 0-2.5 0l0-7.8zm.8 3.4c0 0 1.46-.02 1.5 0c1.5 0 1.8-.8 1.8-1.3c0-1.1-.8-1.4-1.7-1.4c-.04-.03-1.6 0-1.6 0l0 2.7zm0 3.7c0 0 1.62.04 1.6 0c1.7 0 2-.9 2-1.5c0-1.1-.9-1.6-1.9-1.6c.03.04-1.7 0-1.7 0l0 3.1zm9.9-1.4c0 1 0 1.5.1 2.1c0 0-.6 0-.6 0c0-.3-.1-.5-.1-.8c0 0 0 0 0 0c-.4.6-.9.9-1.8.9c-.8 0-1.8-.4-1.8-1.5c0-1.5 1.9-1.7 2.9-1.7c-.04.02.7 0 .7 0c0 0 .03-.29 0-.3c0-.9-.6-1.2-1.4-1.2c-.6 0-1.1.2-1.6.6c0 0-.3-.5-.3-.5c.4-.5 1.2-.7 1.9-.7c1.2 0 2 .5 2 1.8c0 0 0 1.3 0 1.3zm-1.3-.5c-1.1 0-2.2.3-2.2 1.2c0 .6.6.9 1.2.9c1.4 0 1.7-.9 1.7-1.7c.03-.01 0-.4 0-.4c0 0-.7.05-.7 0zm3.1-1.1c0-.3-.1-1.1-.1-1.4c0 0 .7 0 .7 0c0 .4 0 .8 0 .9c0 0 .1 0 .1 0c.2-.6.9-1 1.7-1c.7 0 1.3.3 1.5 1.1c.3-.8 1.1-1.1 1.8-1.1c1.5 0 1.9 1.1 1.9 2.2c-.01-.03 0 3 0 3l-.7 0c0 0 .03-2.99 0-3c0-.8-.2-1.6-1.2-1.6c-1.3 0-1.6 1-1.6 1.7c.02.04 0 2.9 0 2.9l-.6 0c0 0-.04-3.06 0-3.1c0-.9-.4-1.5-1.1-1.5c-1 0-1.8.7-1.8 2.1c.04-.04 0 2.5 0 2.5l-.6 0c0 0-.02-3.65 0-3.7zm13.3 1.6c0 1 0 1.5.1 2.1c0 0-.6 0-.6 0c-.1-.3-.1-.5-.1-.8c0 0 0 0 0 0c-.4.6-.9.9-1.8.9c-.9 0-1.8-.4-1.8-1.5c0-1.5 1.8-1.7 2.8-1.7c.04.02.8 0 .8 0c0 0 .01-.29 0-.3c0-.9-.6-1.2-1.4-1.2c-.6 0-1.1.2-1.6.6c0 0-.4-.5-.4-.5c.5-.5 1.3-.7 2-.7c1.2 0 2 .5 2 1.8c0 0 0 1.3 0 1.3zm-1.3-.5c-1.1 0-2.2.3-2.2 1.2c0 .6.6.9 1.1.9c1.4 0 1.8-.9 1.8-1.7c.01-.01 0-.4 0-.4c0 0-.72.05-.7 0zm3.1-1.1c0-.3-.1-1.1-.1-1.4c0 0 .7 0 .7 0c0 .4 0 .8 0 .9c0 0 0 0 0 0c.3-.6 1-1 1.8-1c1.6 0 1.9 1.1 1.9 2.2c.02-.03 0 3 0 3l-.6 0c0 0-.04-2.99 0-3c0-.8-.3-1.6-1.3-1.6c-1 0-1.8.7-1.8 2.1c.02-.04 0 2.5 0 2.5l-.6 0c0 0-.04-3.65 0-3.7zm10 1.6c0 1 0 1.5.1 2.1c0 0-.6 0-.6 0c0-.3-.1-.5-.1-.8c0 0 0 0 0 0c-.4.6-.9.9-1.8.9c-.8 0-1.8-.4-1.8-1.5c0-1.5 1.9-1.7 2.9-1.7c-.04.02.7 0 .7 0c0 0 .03-.29 0-.3c0-.9-.6-1.2-1.4-1.2c-.6 0-1.1.2-1.5.6c0 0-.4-.5-.4-.5c.5-.5 1.2-.7 1.9-.7c1.2 0 2 .5 2 1.8c0 0 0 1.3 0 1.3zm-1.3-.5c-1.1 0-2.2.3-2.2 1.2c0 .6.6.9 1.2.9c1.4 0 1.7-.9 1.7-1.7c.03-.01 0-.4 0-.4c0 0-.69.05-.7 0zm3.5 1.6l.8 0l-.9 2.5l-.6 0l.7-2.5zm5.5-6.8l4.7 0l0 .7l-4 0l0 2.7l3.7 0l0 .7l-3.7 0l0 3.7l-.7 0l0-7.8zm10.4 6.8c-.5.8-1.3 1.1-2.2 1.1c-1.5 0-2.6-1.1-2.6-2.7c0-1.5 1.1-2.6 2.6-2.6c1.5 0 2.4 1.2 2.4 2.4c-.04-.04 0 .4 0 .4c0 0-4.3.02-4.3 0c0 .6.4 1.9 1.9 1.9c.7 0 1.4-.3 1.7-.9c0 0 .5.4.5.4zm-.5-2c0-.9-.8-1.6-1.8-1.6c-1.4 0-1.8 1.4-1.8 1.6c0 0 3.6 0 3.6 0zm2.1-.7c0-.3 0-1.1 0-1.4c0 0 .6 0 .6 0c.1.4.1.8.1.9c0 0 0 0 0 0c.3-.6.9-1 1.8-1c.6 0 1.2.3 1.5 1.1c.3-.8 1-1.1 1.7-1.1c1.6 0 2 1.1 2 2.2c-.05-.03 0 3 0 3l-.7 0c0 0-.01-2.99 0-3c0-.8-.2-1.6-1.3-1.6c-1.2 0-1.5 1-1.5 1.7c-.03.04 0 2.9 0 2.9l-.7 0c0 0 .02-3.06 0-3.1c0-.9-.3-1.5-1-1.5c-1 0-1.8.7-1.8 2.1c0-.04 0 2.5 0 2.5l-.7 0c0 0 .04-3.65 0-3.7zm13.4 1.6c0 1 0 1.5.1 2.1c0 0-.7 0-.7 0c0-.3 0-.5 0-.8c0 0 0 0 0 0c-.4.6-1 .9-1.8.9c-.9 0-1.8-.4-1.8-1.5c0-1.5 1.8-1.7 2.8-1.7c0 .02.8 0 .8 0c0 0-.03-.29 0-.3c0-.9-.6-1.2-1.5-1.2c-.6 0-1.1.2-1.5.6c0 0-.4-.5-.4-.5c.5-.5 1.3-.7 1.9-.7c1.3 0 2.1.5 2.1 1.8c0 0 0 1.3 0 1.3zm-1.4-.5c-1.1 0-2.2.3-2.2 1.2c0 .6.6.9 1.2.9c1.4 0 1.8-.9 1.8-1.7c-.03-.01 0-.4 0-.4c0 0-.76.05-.8 0zm3.2-5.7l.7 0l0 8.3l-.7 0l0-8.3zm7 7.3c-.5.8-1.2 1.1-2.2 1.1c-1.5 0-2.5-1.1-2.5-2.7c0-1.5 1-2.6 2.5-2.6c1.6 0 2.4 1.2 2.4 2.4c0-.04 0 .4 0 .4c0 0-4.27.02-4.3 0c0 .6.4 1.9 2 1.9c.6 0 1.3-.3 1.7-.9c0 0 .4.4.4.4zm-.5-2c0-.9-.7-1.6-1.7-1.6c-1.5 0-1.9 1.4-1.9 1.6c0 0 3.6 0 3.6 0z" stroke="none" fill="#fff"/></g><g id="Polygon48083"><path d="m3.5 116.2l.7 0l3.3 7.8l-.8 0l-.9-2.1l-4.1 0l-.9 2.1l-.7 0l3.4-7.8zm.3.8l-1.8 4.3l3.6 0l-1.8-4.3zm8.8 6.3c-.5.5-1.1.8-1.8.8c-1.6 0-2.7-1.1-2.7-2.6c0-1.6 1.1-2.7 2.7-2.7c.7 0 1.4.3 1.9.9c0 0-.6.4-.6.4c-.4-.5-.8-.7-1.3-.7c-1.3 0-2 .9-2 2.1c0 1.1.7 2 2 2c.5 0 1-.2 1.3-.7c0 0 .5.5.5.5zm5.5-.2c0 0 .03.01 0 0c-.4.7-1.3 1-2 1c-1.6 0-2.7-1.1-2.7-2.6c0-1.6 1.1-2.7 2.7-2.7c.7 0 1.6.3 2 1c.03.01 0 0 0 0l0-.9l.7 0l0 7.6l-.7 0l0-3.4zm-2-3.7c-1.3 0-2 .9-2 2.1c0 1.1.7 2 2 2c1.2 0 2.1-.9 2.1-2c0-1.2-.9-2.1-2.1-2.1zm8.7 3.2c0 .3.1 1.1.1 1.4c0 0-.7 0-.7 0c0-.4 0-.8 0-.9c0 0 0 0 0 0c-.3.6-1 1-1.8 1c-1.6 0-1.9-1-1.9-2.2c-.01.04 0-3 0-3l.6 0c0 0 .04 3.01 0 3c0 .8.3 1.6 1.3 1.6c1 0 1.8-.6 1.8-2c-.02-.04 0-2.6 0-2.6l.6 0c0 0 .04 3.67 0 3.7zm1.9-3.7l.7 0l0 5.1l-.7 0l0-5.1zm.4-2.5c.2 0 .5.2.5.5c0 .3-.3.5-.5.5c-.3 0-.5-.2-.5-.5c0-.3.2-.5.5-.5zm2.2 6.3c.3.5.9.8 1.5.8c.6 0 1.2-.3 1.2-.9c0-1.4-3.1-.4-3.1-2.4c0-.9.9-1.4 1.8-1.4c.8 0 1.4.3 1.8.9c0 0-.6.4-.6.4c-.3-.5-.6-.7-1.2-.7c-.5 0-1.1.3-1.1.8c0 1.4 3 .3 3 2.4c0 1-.9 1.5-1.8 1.5c-.9 0-1.7-.3-2.1-1c0 0 .6-.4.6-.4zm4.8-3.8l.6 0l0 5.1l-.6 0l0-5.1zm.3-2.5c.3 0 .5.2.5.5c0 .3-.2.5-.5.5c-.3 0-.5-.2-.5-.5c0-.3.2-.5.5-.5zm4.8 3.1l-1.5 0c0 0 .01 3.32 0 3.3c0 .5.3.7.7.7c.3 0 .5 0 .8-.1c0 0 0 .6 0 .6c-.2 0-.6.1-.8.1c-1 0-1.4-.5-1.4-1.3c.05.02 0-3.3 0-3.3l-1.1 0l0-.6l1.1 0l0-1.4l.7 0l0 1.4l1.5 0l0 .6zm1.3-.6l.6 0l0 5.1l-.6 0l0-5.1zm.3-2.5c.3 0 .5.2.5.5c0 .3-.2.5-.5.5c-.3 0-.5-.2-.5-.5c0-.3.2-.5.5-.5zm4.5 2.4c1.6 0 2.7 1.1 2.7 2.7c0 1.5-1.1 2.6-2.7 2.6c-1.5 0-2.6-1.1-2.6-2.6c0-1.6 1.1-2.7 2.6-2.7zm0 4.7c1.3 0 2-.9 2-2c0-1.2-.7-2.1-2-2.1c-1.2 0-2 .9-2 2.1c0 1.1.8 2 2 2zm4.2-3.2c0-.3 0-1.1 0-1.4c0 0 .6 0 .6 0c0 .4 0 .8.1.9c0 0 0 0 0 0c.3-.6.9-1 1.7-1c1.6 0 2 1.1 2 2.2c-.04-.03 0 3 0 3l-.7 0c0 0 0-2.99 0-3c0-.8-.2-1.6-1.3-1.6c-1 0-1.7.7-1.7 2.1c-.03-.04 0 2.5 0 2.5l-.7 0c0 0 .01-3.65 0-3.7zm6.4 2.7l.7 0l-.8 2.5l-.6 0l.7-2.5zm4.9.2c0 0 2.9-3.06 2.9-3.1c.5-.5 1.1-1.1 1.1-2c0-.9-.7-1.4-1.5-1.4c-.8 0-1.4.5-1.6 1.3c0 0-.8-.1-.8-.1c.3-1.2 1.2-1.8 2.4-1.8c1.2 0 2.2.7 2.2 2c0 1.2-.8 2-1.6 2.8c.03.01-2.4 2.5-2.4 2.5l4.1 0l0 .6l-4.8 0l0-.8zm8.2-7.1c2.2 0 2.6 2.3 2.6 4c0 1.7-.4 4-2.6 4c-2.2 0-2.5-2.3-2.5-4c0-1.7.3-4 2.5-4zm0 7.4c1.7 0 1.9-2.2 1.9-3.4c0-1.2-.2-3.4-1.9-3.4c-1.6 0-1.8 2.2-1.8 3.4c0 1.2.2 3.4 1.8 3.4zm5.6-6.4l0 0l-1.4 1.2l-.5-.5l2-1.6l.5 0l0 7.8l-.6 0l0-6.9zm2.6 6.1c0 0 2.91-3.06 2.9-3.1c.5-.5 1.1-1.1 1.1-2c0-.9-.6-1.4-1.5-1.4c-.8 0-1.4.5-1.6 1.3c0 0-.8-.1-.8-.1c.3-1.2 1.2-1.8 2.4-1.8c1.2 0 2.2.7 2.2 2c0 1.2-.8 2-1.6 2.8c.04.01-2.4 2.5-2.4 2.5l4.1 0l0 .6l-4.8 0l0-.8zm6.6-.2c.3 0 .5.2.5.5c0 .3-.2.6-.5.6c-.3 0-.5-.3-.5-.6c0-.3.2-.5.5-.5zm2 .2c0 0 2.96-3.06 3-3.1c.5-.5 1.1-1.1 1.1-2c0-.9-.7-1.4-1.6-1.4c-.8 0-1.4.5-1.5 1.3c0 0-.8-.1-.8-.1c.2-1.2 1.2-1.8 2.4-1.8c1.2 0 2.2.7 2.2 2c0 1.2-.8 2-1.6 2.8c-.01.01-2.4 2.5-2.4 2.5l4.1 0l0 .6l-4.9 0l0-.8zm10.3-6.4l-3.2 0c0 0-.07 2.48-.1 2.5c.4-.2.8-.2 1.2-.2c1.4 0 2.4 1.1 2.4 2.5c0 1.7-1.4 2.5-2.5 2.5c-1.1 0-1.9-.5-2.3-1.3c0 0 .6-.3.6-.3c.3.6 1 1 1.7 1c.7 0 1.8-.6 1.8-1.8c0-1.1-.9-2-2-2c-.6 0-1.1.2-1.5.5c-.04-.02 0-4 0-4l3.9 0l0 .6z" stroke="none" fill="#fff"/></g><g id="Polygon48082"><path d="m1 103.2l1.1 0l2.8 6.5l2.9-6.5l1 0l0 7.8l-.7 0l0-6.9l-.1 0l-2.9 6.9l-.3 0l-3.1-6.9l0 0l0 6.9l-.7 0l0-7.8zm13.9 7.1c-.4.5-1.1.8-1.8.8c-1.6 0-2.7-1.1-2.7-2.6c0-1.6 1.1-2.7 2.7-2.7c.7 0 1.4.3 1.9.9c0 0-.6.4-.6.4c-.3-.5-.8-.7-1.3-.7c-1.3 0-2 .9-2 2.1c0 1.1.7 2 2 2c.5 0 1-.2 1.3-.7c0 0 .5.5.5.5zm1.3-7.1l.9 0l4.8 6.8l0 0l0-6.8l.7 0l0 7.8l-.9 0l-4.8-6.8l0 0l0 6.8l-.7 0l0-7.8zm12.2 5.7c0 1 .1 1.5.1 2.1c0 0-.6 0-.6 0c0-.3 0-.5 0-.8c0 0-.1 0-.1 0c-.3.6-.9.9-1.7.9c-.9 0-1.8-.4-1.8-1.5c0-1.5 1.8-1.7 2.8-1.7c-.03.02.7 0 .7 0c0 0 .04-.29 0-.3c0-.9-.6-1.2-1.4-1.2c-.6 0-1.1.2-1.5.6c0 0-.4-.5-.4-.5c.5-.5 1.3-.7 1.9-.7c1.2 0 2 .5 2 1.8c0 0 0 1.3 0 1.3zm-1.3-.5c-1.1 0-2.2.3-2.2 1.2c0 .6.6.9 1.2.9c1.4 0 1.7-.9 1.7-1.7c.04-.01 0-.4 0-.4c0 0-.68.05-.7 0zm3.2-5.7l.6 0l0 8.3l-.6 0l0-8.3zm2.5 0l.7 0l0 8.3l-.7 0l0-8.3zm4.1 9.9c-.3.6-.7 1-1.4 1c-.3 0-.5 0-.7-.1c0 0 .1-.6.1-.6c.2.1.4.1.6.1c.4 0 .7-.4.8-.8c.01 0 .5-1.2.5-1.2l-2.1-5.1l.7 0l1.7 4.3l1.7-4.3l.7 0c0 0-2.65 6.67-2.6 6.7zm6.7-9.4l4.7 0l0 .7l-4 0l0 2.7l3.8 0l0 .7l-3.8 0l0 3l4.2 0l0 .7l-4.9 0l0-7.8zm6.2 4.1c0-.3 0-1.1 0-1.4c0 0 .6 0 .6 0c0 .4 0 .8.1.9c0 0 0 0 0 0c.3-.6.9-1 1.7-1c1.6 0 2 1.1 2 2.2c-.02-.03 0 3 0 3l-.7 0c0 0 .02-2.99 0-3c0-.8-.2-1.6-1.3-1.6c-.9 0-1.7.7-1.7 2.1c-.02-.04 0 2.5 0 2.5l-.7 0c0 0 .02-3.65 0-3.7zm10.6 2.8c0 0-.03.01 0 0c-.4.7-1.3 1-2.1 1c-1.5 0-2.6-1.1-2.6-2.6c0-1.6 1.1-2.7 2.6-2.7c.8 0 1.7.3 2.1 1c-.03.01 0 0 0 0l0-4.1l.7 0l0 8.3l-.7 0l0-.9zm-2.1-3.7c-1.2 0-2 .9-2 2.1c0 1.1.8 2 2 2c1.2 0 2.2-.9 2.2-2c0-1.2-1-2.1-2.2-2.1zm6.9-.6c1.5 0 2.6 1.1 2.6 2.7c0 1.5-1.1 2.6-2.6 2.6c-1.6 0-2.7-1.1-2.7-2.6c0-1.6 1.1-2.7 2.7-2.7zm0 4.7c1.2 0 2-.9 2-2c0-1.2-.8-2.1-2-2.1c-1.3 0-2.1.9-2.1 2.1c0 1.1.8 2 2.1 2zm3.4-4.6l.7 0l1.2 4.3l0 0l1.5-4.3l.6 0l1.5 4.3l0 0l1.2-4.3l.7 0l-1.5 5.1l-.7 0l-1.5-4.2l0 0l-1.5 4.2l-.6 0l-1.6-5.1zm8.6 1.4c0-.3-.1-1.1-.1-1.4c0 0 .7 0 .7 0c0 .4 0 .8 0 .9c0 0 .1 0 .1 0c.2-.6.9-1 1.7-1c.7 0 1.3.3 1.5 1.1c.3-.8 1.1-1.1 1.8-1.1c1.5 0 1.9 1.1 1.9 2.2c-.01-.03 0 3 0 3l-.7 0c0 0 .03-2.99 0-3c0-.8-.2-1.6-1.2-1.6c-1.3 0-1.6 1-1.6 1.7c.02.04 0 2.9 0 2.9l-.6 0c0 0-.04-3.06 0-3.1c0-.9-.4-1.5-1.1-1.5c-1 0-1.8.7-1.8 2.1c.04-.04 0 2.5 0 2.5l-.6 0c0 0-.02-3.65 0-3.7zm13.9 2.7c-.5.8-1.3 1.1-2.2 1.1c-1.6 0-2.6-1.1-2.6-2.7c0-1.5 1.1-2.6 2.6-2.6c1.5 0 2.3 1.2 2.3 2.4c.04-.04 0 .4 0 .4c0 0-4.23.02-4.2 0c0 .6.4 1.9 1.9 1.9c.7 0 1.4-.3 1.7-.9c0 0 .5.4.5.4zm-.5-2c0-.9-.8-1.6-1.8-1.6c-1.4 0-1.8 1.4-1.8 1.6c0 0 3.6 0 3.6 0zm2.2-.7c0-.3-.1-1.1-.1-1.4c0 0 .7 0 .7 0c0 .4 0 .8 0 .9c0 0 0 0 0 0c.3-.6 1-1 1.8-1c1.6 0 1.9 1.1 1.9 2.2c.01-.03 0 3 0 3l-.6 0c0 0-.05-2.99 0-3c0-.8-.3-1.6-1.3-1.6c-1 0-1.8.7-1.8 2.1c.02-.04 0 2.5 0 2.5l-.6 0c0 0-.04-3.65 0-3.7zm8.5-.8l-1.4 0c0 0 0 3.32 0 3.3c0 .5.3.7.7.7c.3 0 .5 0 .7-.1c0 0 .1.6.1.6c-.2 0-.6.1-.9.1c-.9 0-1.3-.5-1.3-1.3c.04.02 0-3.3 0-3.3l-1.1 0l0-.6l1.1 0l0-1.4l.7 0l0 1.4l1.4 0l0 .6zm4.5 0l-1.1 0l0-.6l1.1 0c0 0-.04-1.64 0-1.6c0-1.4.8-1.7 1.5-1.7c.3 0 .5 0 .7.1c0 0-.1.6-.1.6c-.1-.1-.3-.2-.6-.2c-.6 0-.9.5-.9 1.4c.02 0 0 1.4 0 1.4l1.2 0l0 .6l-1.2 0l0 4.5l-.6 0l0-4.5zm5.2-.7c1.5 0 2.6 1.1 2.6 2.7c0 1.5-1.1 2.6-2.6 2.6c-1.6 0-2.7-1.1-2.7-2.6c0-1.6 1.1-2.7 2.7-2.7zm0 4.7c1.2 0 2-.9 2-2c0-1.2-.8-2.1-2-2.1c-1.3 0-2.1.9-2.1 2.1c0 1.1.8 2 2.1 2zm4.1-3.2c0-.3 0-1.1 0-1.4c0 0 .6 0 .6 0c0 .4.1.8.1.9c.3-.6.8-1 1.6-1c.1 0 .2 0 .4 0c0 0-.1.7-.1.7c-.1 0-.2-.1-.3-.1c-1.1 0-1.6.8-1.6 1.8c-.01.03 0 2.8 0 2.8l-.7 0c0 0 .03-3.65 0-3.7zm9.1-4.1l.8 0l3.2 7.8l-.8 0l-.8-2.1l-4.1 0l-.9 2.1l-.8 0l3.4-7.8zm.4.8l-1.8 4.3l3.5 0l-1.7-4.3zm4.7 3.3c0-.3 0-1.1 0-1.4c0 0 .6 0 .6 0c.1.4.1.8.1.9c.3-.6.8-1 1.6-1c.1 0 .3 0 .4 0c0 0-.1.7-.1.7c-.1 0-.2-.1-.2-.1c-1.2 0-1.7.8-1.7 1.8c0 .03 0 2.8 0 2.8l-.7 0c0 0 .04-3.65 0-3.7zm6.7-.8l-1.5 0c0 0 .03 3.32 0 3.3c0 .5.3.7.7.7c.3 0 .5 0 .8-.1c0 0 0 .6 0 .6c-.2 0-.6.1-.8.1c-1 0-1.3-.5-1.3-1.3c-.03.02 0-3.3 0-3.3l-1.1 0l0-.6l1.1 0l0-1.4l.6 0l0 1.4l1.5 0l0 .6z" stroke="none" fill="#fff"/></g><g id="Polygon48081"><path d="m3.4 93.5l-1.5 0c0 0 .01 3.32 0 3.3c0 .5.3.7.7.7c.3 0 .5 0 .8-.1c0 0 0 .6 0 .6c-.2 0-.6.1-.8.1c-1 0-1.3-.5-1.3-1.3c-.05.02 0-3.3 0-3.3l-1.1 0l0-.6l1.1 0l0-1.4l.6 0l0 1.4l1.5 0l0 .6zm1.2-3.8l.7 0l0 4.1c0 0 0 .01 0 0c.3-.6.9-1 1.7-1c1.6 0 2 1.1 2 2.2c-.02-.03 0 3 0 3l-.7 0c0 0 .02-2.99 0-3c0-.8-.2-1.6-1.3-1.6c-.9 0-1.7.7-1.7 2.1c-.02-.04 0 2.5 0 2.5l-.7 0l0-8.3zm6.2 4.6c0-.3-.1-1.1-.1-1.4c0 0 .7 0 .7 0c0 .4 0 .8 0 .9c.3-.6.9-1 1.6-1c.1 0 .3 0 .4 0c0 0-.1.7-.1.7c-.1 0-.2-.1-.2-.1c-1.2 0-1.7.8-1.7 1.8c.01.03 0 2.8 0 2.8l-.6 0c0 0-.05-3.65 0-3.7zm8 2.7c-.5.8-1.3 1.1-2.2 1.1c-1.5 0-2.5-1.1-2.5-2.7c0-1.5 1-2.6 2.5-2.6c1.6 0 2.4 1.2 2.4 2.4c-.02-.04 0 .4 0 .4c0 0-4.29.02-4.3 0c0 .6.4 1.9 1.9 1.9c.7 0 1.4-.3 1.7-.9c0 0 .5.4.5.4zm-.5-2c0-.9-.8-1.6-1.7-1.6c-1.5 0-1.9 1.4-1.9 1.6c0 0 3.6 0 3.6 0zm6 .9c0 1 .1 1.5.1 2.1c0 0-.6 0-.6 0c0-.3 0-.5 0-.8c0 0-.1 0-.1 0c-.3.6-.9.9-1.7.9c-.9 0-1.8-.4-1.8-1.5c0-1.5 1.8-1.7 2.8-1.7c-.02.02.7 0 .7 0c0 0 .05-.29 0-.3c0-.9-.6-1.2-1.4-1.2c-.6 0-1.1.2-1.5.6c0 0-.4-.5-.4-.5c.5-.5 1.3-.7 1.9-.7c1.3 0 2 .5 2 1.8c0 0 0 1.3 0 1.3zm-1.3-.5c-1.1 0-2.2.3-2.2 1.2c0 .6.6.9 1.2.9c1.4 0 1.7-.9 1.7-1.7c.05-.01 0-.4 0-.4c0 0-.68.05-.7 0zm7.5 1.7c0 0 .03.01 0 0c-.4.7-1.2 1-2 1c-1.6 0-2.7-1.1-2.7-2.6c0-1.6 1.1-2.7 2.7-2.7c.8 0 1.6.3 2 1c.03.01 0 0 0 0l0-4.1l.7 0l0 8.3l-.7 0l0-.9zm-2-3.7c-1.3 0-2 .9-2 2.1c0 1.1.7 2 2 2c1.2 0 2.1-.9 2.1-2c0-1.2-.9-2.1-2.1-2.1zm4.5 3.6l.8 0l-.8 2.5l-.7 0l.7-2.5zm.2-4.1c.3 0 .5.2.5.5c0 .3-.2.5-.5.5c-.3 0-.5-.2-.5-.5c0-.3.2-.5.5-.5zm7.1-2l-2.7 0l0-.7l6.1 0l0 .7l-2.7 0l0 7.1l-.7 0l0-7.1zm4.5-1.2l.6 0l0 4.1c0 0 .06.01.1 0c.2-.6.9-1 1.7-1c1.6 0 1.9 1.1 1.9 2.2c.04-.03 0 3 0 3l-.6 0c0 0-.02-2.99 0-3c0-.8-.3-1.6-1.3-1.6c-1 0-1.8.7-1.8 2.1c.04-.04 0 2.5 0 2.5l-.6 0l0-8.3zm10.6 7.3c-.5.8-1.3 1.1-2.2 1.1c-1.6 0-2.6-1.1-2.6-2.7c0-1.5 1.1-2.6 2.6-2.6c1.5 0 2.4 1.2 2.4 2.4c-.05-.04 0 .4 0 .4c0 0-4.31.02-4.3 0c0 .6.4 1.9 1.9 1.9c.7 0 1.4-.3 1.7-.9c0 0 .5.4.5.4zm-.5-2c0-.9-.8-1.6-1.8-1.6c-1.4 0-1.8 1.4-1.8 1.6c0 0 3.6 0 3.6 0zm5.1-4.8l1.1 0l2.8 6.5l2.9-6.5l1 0l0 7.8l-.7 0l0-6.9l-.1 0l-2.9 6.9l-.3 0l-3.1-6.9l0 0l0 6.9l-.7 0l0-7.8zm13.6 5.7c0 1 0 1.5.1 2.1c0 0-.6 0-.6 0c-.1-.3-.1-.5-.1-.8c0 0 0 0 0 0c-.4.6-.9.9-1.8.9c-.9 0-1.8-.4-1.8-1.5c0-1.5 1.8-1.7 2.8-1.7c.02.02.8 0 .8 0c0 0-.01-.29 0-.3c0-.9-.6-1.2-1.4-1.2c-.6 0-1.1.2-1.6.6c0 0-.4-.5-.4-.5c.5-.5 1.3-.7 2-.7c1.2 0 2 .5 2 1.8c0 0 0 1.3 0 1.3zm-1.3-.5c-1.1 0-2.2.3-2.2 1.2c0 .6.6.9 1.1.9c1.4 0 1.8-.9 1.8-1.7c-.01-.01 0-.4 0-.4c0 0-.73.05-.7 0zm3.1-1.1c0-.3-.1-1.1-.1-1.4c0 0 .7 0 .7 0c0 .4 0 .8 0 .9c.4-.6.9-1 1.6-1c.2 0 .3 0 .4 0c0 0-.1.7-.1.7c-.1 0-.1-.1-.2-.1c-1.2 0-1.7.8-1.7 1.8c.03.03 0 2.8 0 2.8l-.6 0c0 0-.03-3.65 0-3.7zm8.6 3.4c0 2.5-1.7 2.9-2.7 2.9c-1 0-2-.4-2.5-1c0 0 .5-.5.5-.5c.4.6 1.2.9 2 .9c2 0 2-1.7 2-2.3c.03.01 0-.7 0-.7c0 0 .01.01 0 0c-.4.6-1 1-1.9 1c-1.5 0-2.7-1.2-2.7-2.6c0-1.4 1.2-2.6 2.7-2.6c.9 0 1.5.4 1.9 1c.01-.02 0 0 0 0l0-.9l.7 0c0 0-.01 4.77 0 4.8zm-2.7-4.3c-1.1 0-2 .9-2 2c0 1.1.9 2 2 2c1.2 0 2.1-.9 2.1-2c0-1.1-.9-2-2.1-2zm8.7 3.2c0 .3.1 1.1.1 1.4c0 0-.7 0-.7 0c0-.4 0-.8 0-.9c0 0-.1 0-.1 0c-.2.6-.9 1-1.7 1c-1.6 0-1.9-1-1.9-2.2c-.03.04 0-3 0-3l.6 0c0 0 .03 3.01 0 3c0 .8.3 1.6 1.3 1.6c1 0 1.8-.6 1.8-2c-.04-.04 0-2.6 0-2.6l.6 0c0 0 .02 3.67 0 3.7zm6.3.4c-.5.8-1.3 1.1-2.2 1.1c-1.5 0-2.5-1.1-2.5-2.7c0-1.5 1-2.6 2.5-2.6c1.6 0 2.4 1.2 2.4 2.4c0-.04 0 .4 0 .4c0 0-4.27.02-4.3 0c0 .6.4 1.9 2 1.9c.6 0 1.3-.3 1.7-.9c0 0 .4.4.4.4zm-.5-2c0-.9-.7-1.6-1.7-1.6c-1.5 0-1.9 1.4-1.9 1.6c0 0 3.6 0 3.6 0zm2.2-.7c0-.3 0-1.1 0-1.4c0 0 .6 0 .6 0c0 .4 0 .8.1.9c.3-.6.8-1 1.6-1c.1 0 .2 0 .4 0c0 0-.1.7-.1.7c-.1 0-.2-.1-.3-.1c-1.1 0-1.6.8-1.6 1.8c-.03.03 0 2.8 0 2.8l-.7 0c0 0 .01-3.65 0-3.7zm3.9-1.4l.6 0l0 5.1l-.6 0l0-5.1zm.3-2.5c.3 0 .5.2.5.5c0 .3-.2.5-.5.5c-.3 0-.5-.2-.5-.5c0-.3.2-.5.5-.5zm4.7 3.1l-1.4 0c0 0-.01 3.32 0 3.3c0 .5.3.7.7.7c.2 0 .5 0 .7-.1c0 0 .1.6.1.6c-.2 0-.6.1-.9.1c-.9 0-1.3-.5-1.3-1.3c.03.02 0-3.3 0-3.3l-1.1 0l0-.6l1.1 0l0-1.4l.7 0l0 1.4l1.4 0l0 .6zm5.6 3.5c-.5.8-1.3 1.1-2.2 1.1c-1.5 0-2.6-1.1-2.6-2.7c0-1.5 1.1-2.6 2.6-2.6c1.5 0 2.4 1.2 2.4 2.4c-.04-.04 0 .4 0 .4c0 0-4.3.02-4.3 0c0 .6.4 1.9 1.9 1.9c.7 0 1.4-.3 1.7-.9c0 0 .5.4.5.4zm-.5-2c0-.9-.8-1.6-1.8-1.6c-1.4 0-1.8 1.4-1.8 1.6c0 0 3.6 0 3.6 0zm5.4 1.6c.4.6 1 .9 1.8.9c1 0 1.7-.6 1.7-1.5c0-2.2-4-.9-4-3.9c0-1.3 1.2-2.1 2.5-2.1c.9 0 1.6.3 2.1 1c0 0-.6.4-.6.4c-.4-.5-.8-.7-1.5-.7c-1 0-1.8.5-1.8 1.4c0 2.4 4.1 1 4.1 3.9c0 1.4-1.2 2.2-2.5 2.2c-1 0-1.9-.3-2.5-1.2c0 0 .7-.4.7-.4zm6.2.4c.3 0 .6.2.6.5c0 .3-.3.6-.6.6c-.3 0-.5-.3-.5-.6c0-.3.2-.5.5-.5z" stroke="none" fill="#fff"/></g><g id="Polygon48080"><path d="m5.1 84.3c-.5.5-1.1.8-1.8.8c-1.6 0-2.7-1.1-2.7-2.6c0-1.6 1.1-2.7 2.7-2.7c.7 0 1.4.3 1.9.9c0 0-.6.4-.6.4c-.4-.5-.8-.7-1.3-.7c-1.3 0-2 .9-2 2.1c0 1.1.7 2 2 2c.5 0 1-.2 1.3-.7c0 0 .5.5.5.5zm5.6-.3c-.5.8-1.3 1.1-2.2 1.1c-1.5 0-2.6-1.1-2.6-2.7c0-1.5 1.1-2.6 2.6-2.6c1.5 0 2.4 1.2 2.4 2.4c-.04-.04 0 .4 0 .4c0 0-4.31.02-4.3 0c0 .6.4 1.9 1.9 1.9c.7 0 1.4-.3 1.7-.9c0 0 .5.4.5.4zm-.5-2c0-.9-.8-1.6-1.8-1.6c-1.4 0-1.8 1.4-1.8 1.6c0 0 3.6 0 3.6 0zm2.2-.7c0-.3-.1-1.1-.1-1.4c0 0 .7 0 .7 0c0 .4 0 .8 0 .9c0 0 .1 0 .1 0c.2-.6.9-1 1.7-1c1.6 0 1.9 1.1 1.9 2.2c.03-.03 0 3 0 3l-.6 0c0 0-.03-2.99 0-3c0-.8-.3-1.6-1.3-1.6c-1 0-1.8.7-1.8 2.1c.04-.04 0 2.5 0 2.5l-.6 0c0 0-.02-3.65 0-3.7zm8.6-.8l-1.5 0c0 0 .02 3.32 0 3.3c0 .5.3.7.7.7c.3 0 .5 0 .8-.1c0 0 0 .6 0 .6c-.2 0-.6.1-.8.1c-1 0-1.3-.5-1.3-1.3c-.04.02 0-3.3 0-3.3l-1.1 0l0-.6l1.1 0l0-1.4l.6 0l0 1.4l1.5 0l0 .6zm5.5 3.1c0 .3.1 1.1.1 1.4c0 0-.7 0-.7 0c0-.4 0-.8 0-.9c0 0-.1 0-.1 0c-.2.6-.9 1-1.7 1c-1.6 0-1.9-1-1.9-2.2c-.03.04 0-3 0-3l.6 0c0 0 .03 3.01 0 3c0 .8.3 1.6 1.3 1.6c1 0 1.8-.6 1.8-2c-.04-.04 0-2.6 0-2.6l.6 0c0 0 .02 3.67 0 3.7zm1.9-2.3c0-.3-.1-1.1-.1-1.4c0 0 .7 0 .7 0c0 .4 0 .8 0 .9c.3-.6.9-1 1.6-1c.2 0 .3 0 .4 0c0 0-.1.7-.1.7c-.1 0-.2-.1-.2-.1c-1.2 0-1.7.8-1.7 1.8c.01.03 0 2.8 0 2.8l-.6 0c0 0-.05-3.65 0-3.7zm5.5 5.3c-.2.6-.6 1-1.4 1c-.2 0-.4 0-.6-.1c0 0 0-.6 0-.6c.2.1.4.1.6.1c.5 0 .7-.4.9-.8c-.02 0 .4-1.2.4-1.2l-2-5.1l.7 0l1.7 4.3l1.6-4.3l.7 0c0 0-2.58 6.67-2.6 6.7zm4.1-2.6l.8 0l-.8 2.5l-.7 0l.7-2.5zm.2-4.1c.3 0 .5.2.5.5c0 .3-.2.5-.5.5c-.3 0-.5-.2-.5-.5c0-.3.2-.5.5-.5zm4.5 0l.7 0l1.2 4.3l0 0l1.4-4.3l.7 0l1.5 4.3l0 0l1.2-4.3l.7 0l-1.5 5.1l-.7 0l-1.5-4.2l-.1 0l-1.4 4.2l-.7 0l-1.5-5.1zm10.8-.1c1.6 0 2.7 1.1 2.7 2.7c0 1.5-1.1 2.6-2.7 2.6c-1.6 0-2.7-1.1-2.7-2.6c0-1.6 1.1-2.7 2.7-2.7zm0 4.7c1.2 0 2-.9 2-2c0-1.2-.8-2.1-2-2.1c-1.2 0-2 .9-2 2.1c0 1.1.8 2 2 2zm6.6-4.7c1.6 0 2.7 1.1 2.7 2.7c0 1.5-1.1 2.6-2.7 2.6c-1.6 0-2.7-1.1-2.7-2.6c0-1.6 1.1-2.7 2.7-2.7zm0 4.7c1.2 0 2-.9 2-2c0-1.2-.8-2.1-2-2.1c-1.3 0-2 .9-2 2.1c0 1.1.7 2 2 2zm8.6-.4c0 0 .01.01 0 0c-.4.7-1.3 1-2 1c-1.6 0-2.7-1.1-2.7-2.6c0-1.6 1.1-2.7 2.7-2.7c.7 0 1.6.3 2 1c.01.01 0 0 0 0l0-4.1l.7 0l0 8.3l-.7 0l0-.9zm-2-3.7c-1.3 0-2 .9-2 2.1c0 1.1.7 2 2 2c1.2 0 2.1-.9 2.1-2c0-1.2-.9-2.1-2.1-2.1zm4.6 3.6l.8 0l-.8 2.5l-.7 0l.7-2.5zm9.6.3c-.5.5-1.1.8-1.9.8c-1.5 0-2.6-1.1-2.6-2.6c0-1.6 1.1-2.7 2.6-2.7c.8 0 1.4.3 1.9.9c0 0-.5.4-.5.4c-.4-.5-.8-.7-1.4-.7c-1.2 0-2 .9-2 2.1c0 1.1.8 2 2 2c.6 0 1.1-.2 1.4-.7c0 0 .5.5.5.5zm3.5-4.5c1.5 0 2.6 1.1 2.6 2.7c0 1.5-1.1 2.6-2.6 2.6c-1.6 0-2.7-1.1-2.7-2.6c0-1.6 1.1-2.7 2.7-2.7zm0 4.7c1.2 0 2-.9 2-2c0-1.2-.8-2.1-2-2.1c-1.3 0-2 .9-2 2.1c0 1.1.7 2 2 2zm3.4-4.6l.7 0l1.2 4.3l.1 0l1.4-4.3l.6 0l1.5 4.3l0 0l1.2-4.3l.7 0l-1.5 5.1l-.7 0l-1.5-4.2l0 0l-1.4 4.2l-.7 0l-1.6-5.1zm8.6 1.4c0-.3-.1-1.1-.1-1.4c0 0 .7 0 .7 0c0 .4 0 .8 0 .9c.4-.6.9-1 1.7-1c.1 0 .2 0 .3 0c0 0 0 .7 0 .7c-.1 0-.2-.1-.3-.1c-1.1 0-1.7.8-1.7 1.8c.05.03 0 2.8 0 2.8l-.6 0c0 0-.01-3.65 0-3.7zm3.8-1.4l.7 0l0 5.1l-.7 0l0-5.1zm.4-2.5c.2 0 .5.2.5.5c0 .3-.3.5-.5.5c-.3 0-.5-.2-.5-.5c0-.3.2-.5.5-.5zm6.6 6.6c-.5.8-1.3 1.1-2.2 1.1c-1.5 0-2.6-1.1-2.6-2.7c0-1.5 1.1-2.6 2.6-2.6c1.5 0 2.4 1.2 2.4 2.4c-.04-.04 0 .4 0 .4c0 0-4.31.02-4.3 0c0 .6.4 1.9 1.9 1.9c.7 0 1.4-.3 1.7-.9c0 0 .5.4.5.4zm-.5-2c0-.9-.8-1.6-1.8-1.6c-1.4 0-1.8 1.4-1.8 1.6c0 0 3.6 0 3.6 0zm5 1.7c.3.5.9.8 1.5.8c.6 0 1.1-.3 1.1-.9c0-1.4-3-.4-3-2.4c0-.9.9-1.4 1.8-1.4c.8 0 1.4.3 1.8.9c0 0-.6.4-.6.4c-.3-.5-.6-.7-1.2-.7c-.5 0-1.1.3-1.1.8c0 1.4 3 .3 3 2.4c0 1-.9 1.5-1.8 1.5c-.9 0-1.7-.3-2.1-1c0 0 .6-.4.6-.4zm4.7-7l.7 0l0 4.1c0 0 .02.01 0 0c.3-.6.9-1 1.8-1c1.5 0 1.9 1.1 1.9 2.2c-.01-.03 0 3 0 3l-.7 0c0 0 .04-2.99 0-3c0-.8-.2-1.6-1.2-1.6c-1 0-1.8.7-1.8 2.1c0-.04 0 2.5 0 2.5l-.7 0l0-8.3zm10.7 7.3c-.6.8-1.3 1.1-2.2 1.1c-1.6 0-2.6-1.1-2.6-2.7c0-1.5 1-2.6 2.5-2.6c1.6 0 2.4 1.2 2.4 2.4c.01-.04 0 .4 0 .4c0 0-4.26.02-4.3 0c0 .6.4 1.9 2 1.9c.6 0 1.3-.3 1.7-.9c0 0 .5.4.5.4zm-.5-2c0-.9-.8-1.6-1.8-1.6c-1.4 0-1.9 1.4-1.9 1.6c0 0 3.7 0 3.7 0zm2.2-5.3l.7 0l0 8.3l-.7 0l0-8.3zm2.6 0l.6 0l0 8.3l-.6 0l0-8.3zm2.7 7.3l.7 0l-.8 2.5l-.7 0l.8-2.5z" stroke="none" fill="#fff"/></g><g id="Polygon48079"><path d="m.9 68.3c0-.3-.1-1.1-.1-1.4c0 0 .7 0 .7 0c0 .4 0 .8 0 .9c0 0 .1 0 .1 0c.2-.6.9-1 1.7-1c.7 0 1.3.3 1.5 1.1c.3-.8 1.1-1.1 1.8-1.1c1.5 0 1.9 1.1 1.9 2.2c-.01-.03 0 3 0 3l-.7 0c0 0 .03-2.99 0-3c0-.8-.2-1.6-1.2-1.6c-1.3 0-1.6 1-1.6 1.7c.02.04 0 2.9 0 2.9l-.6 0c0 0-.04-3.06 0-3.1c0-.9-.4-1.5-1.1-1.5c-1 0-1.8.7-1.8 2.1c.04-.04 0 2.5 0 2.5l-.6 0c0 0-.02-3.65 0-3.7zm13.3 1.6c0 1 0 1.5.1 2.1c0 0-.7 0-.7 0c0-.3 0-.5 0-.8c0 0 0 0 0 0c-.4.6-1 .9-1.8.9c-.9 0-1.8-.4-1.8-1.5c0-1.5 1.8-1.7 2.8-1.7c0 .02.8 0 .8 0c0 0-.03-.29 0-.3c0-.9-.6-1.2-1.5-1.2c-.6 0-1.1.2-1.5.6c0 0-.4-.5-.4-.5c.5-.5 1.3-.7 1.9-.7c1.3 0 2.1.5 2.1 1.8c0 0 0 1.3 0 1.3zm-1.4-.5c-1.1 0-2.2.3-2.2 1.2c0 .6.6.9 1.2.9c1.4 0 1.8-.9 1.8-1.7c-.03-.01 0-.4 0-.4c0 0-.76.05-.8 0zm3.2 1.3c.3.5.9.8 1.5.8c.6 0 1.1-.3 1.1-.9c0-1.4-3-.4-3-2.4c0-.9.9-1.4 1.8-1.4c.8 0 1.4.3 1.8.9c0 0-.6.4-.6.4c-.3-.5-.6-.7-1.2-.7c-.5 0-1.1.3-1.1.8c0 1.4 3 .3 3 2.4c0 1-.9 1.5-1.8 1.5c-.9 0-1.7-.3-2.1-1c0 0 .6-.4.6-.4zm4.7-7l.7 0l0 5.5l2.5-2.3l1 0l-2.6 2.4l2.9 2.7l-1 0l-2.8-2.7l0 2.7l-.7 0l0-8.3zm5.9 7.3l.8 0l-.9 2.5l-.6 0l.7-2.5zm8.5-4.1l.7 0l0 5.1l-.7 0l0-5.1zm.3-2.5c.3 0 .5.2.5.5c0 .3-.2.5-.5.5c-.2 0-.5-.2-.5-.5c0-.3.3-.5.5-.5zm-3.1 3.1l-1.1 0l0-.6l1.1 0c0 0 0-1.64 0-1.6c0-1.4.9-1.7 1.5-1.7c.3 0 .6 0 .8.1c0 0-.2.6-.2.6c-.1-.1-.3-.2-.6-.2c-.6 0-.8.5-.8 1.4c-.04 0 0 1.4 0 1.4l1.1 0l0 .6l-1.1 0l0 4.5l-.7 0l0-4.5zm5.3.8c0-.3-.1-1.1-.1-1.4c0 0 .7 0 .7 0c0 .4 0 .8.1.9c.3-.6.8-1 1.6-1c.1 0 .2 0 .4 0c0 0-.1.7-.1.7c-.1 0-.2-.1-.3-.1c-1.1 0-1.6.8-1.6 1.8c-.04.03 0 2.8 0 2.8l-.7 0c0 0 0-3.65 0-3.7zm3.9 2.4c.3.5.9.8 1.5.8c.5 0 1.1-.3 1.1-.9c0-1.4-3-.4-3-2.4c0-.9.9-1.4 1.7-1.4c.9 0 1.5.3 1.8.9c0 0-.6.4-.6.4c-.2-.5-.6-.7-1.2-.7c-.4 0-1 .3-1 .8c0 1.4 3 .3 3 2.4c0 1-.9 1.5-1.9 1.5c-.8 0-1.6-.3-2-1c0 0 .6-.4.6-.4zm7.4-3.2l-1.5 0c0 0 0 3.32 0 3.3c0 .5.3.7.7.7c.3 0 .5 0 .8-.1c0 0 0 .6 0 .6c-.2 0-.6.1-.9.1c-.9 0-1.3-.5-1.3-1.3c.04.02 0-3.3 0-3.3l-1.1 0l0-.6l1.1 0l0-1.4l.7 0l0 1.4l1.5 0l0 .6zm4-3.8l.6 0l0 4.1c0 0 .07.01.1 0c.2-.6.9-1 1.7-1c1.6 0 1.9 1.1 1.9 2.2c.05-.03 0 3 0 3l-.6 0c0 0-.01-2.99 0-3c0-.8-.2-1.6-1.3-1.6c-1 0-1.8.7-1.8 2.1c.05-.04 0 2.5 0 2.5l-.6 0l0-8.3zm10 6.2c0 1 0 1.5.1 2.1c0 0-.6 0-.6 0c-.1-.3-.1-.5-.1-.8c0 0 0 0 0 0c-.4.6-.9.9-1.8.9c-.9 0-1.8-.4-1.8-1.5c0-1.5 1.8-1.7 2.8-1.7c.04.02.8 0 .8 0c0 0 .01-.29 0-.3c0-.9-.6-1.2-1.4-1.2c-.6 0-1.1.2-1.6.6c0 0-.4-.5-.4-.5c.5-.5 1.3-.7 2-.7c1.2 0 2 .5 2 1.8c0 0 0 1.3 0 1.3zm-1.3-.5c-1.1 0-2.2.3-2.2 1.2c0 .6.6.9 1.1.9c1.4 0 1.8-.9 1.8-1.7c.01-.01 0-.4 0-.4c0 0-.71.05-.7 0zm3.2-5.7l.6 0l0 8.3l-.6 0l0-8.3zm2.9 3.8l-1.1 0l0-.6l1.1 0c0 0 0-1.64 0-1.6c0-1.4.9-1.7 1.5-1.7c.3 0 .6 0 .8.1c0 0-.2.6-.2.6c-.1-.1-.3-.2-.6-.2c-.6 0-.8.5-.8 1.4c-.05 0 0 1.4 0 1.4l1.1 0l0 .6l-1.1 0l0 4.5l-.7 0l0-4.5zm8.1-.7c1.6 0 2.7 1.1 2.7 2.7c0 1.5-1.1 2.6-2.7 2.6c-1.5 0-2.6-1.1-2.6-2.6c0-1.6 1.1-2.7 2.6-2.7zm0 4.7c1.3 0 2-.9 2-2c0-1.2-.7-2.1-2-2.1c-1.2 0-2 .9-2 2.1c0 1.1.8 2 2 2zm4.5-4l-1.1 0l0-.6l1.1 0c0 0-.04-1.64 0-1.6c0-1.4.8-1.7 1.5-1.7c.3 0 .5 0 .7.1c0 0-.1.6-.1.6c-.1-.1-.3-.2-.6-.2c-.6 0-.9.5-.9 1.4c.02 0 0 1.4 0 1.4l1.2 0l0 .6l-1.2 0l0 4.5l-.6 0l0-4.5zm5.3 3.7c0 0 2.9-3.06 2.9-3.1c.5-.5 1.1-1.1 1.1-2c0-.9-.6-1.4-1.5-1.4c-.8 0-1.4.5-1.6 1.3c0 0-.8-.1-.8-.1c.3-1.2 1.2-1.8 2.4-1.8c1.2 0 2.2.7 2.2 2c0 1.2-.8 2-1.6 2.8c.03.01-2.4 2.5-2.4 2.5l4.1 0l0 .6l-4.8 0l0-.8zm8.2-7.1c2.2 0 2.6 2.3 2.6 4c0 1.7-.4 4-2.6 4c-2.2 0-2.5-2.3-2.5-4c0-1.7.3-4 2.5-4zm0 7.4c1.7 0 1.9-2.2 1.9-3.4c0-1.2-.2-3.4-1.9-3.4c-1.6 0-1.8 2.2-1.8 3.4c0 1.2.2 3.4 1.8 3.4zm6.7-4l-1.5 0c0 0 0 3.32 0 3.3c0 .5.3.7.7.7c.3 0 .5 0 .8-.1c0 0 0 .6 0 .6c-.2 0-.6.1-.9.1c-.9 0-1.3-.5-1.3-1.3c.04.02 0-3.3 0-3.3l-1.1 0l0-.6l1.1 0l0-1.4l.7 0l0 1.4l1.5 0l0 .6zm1.2-3.8l.7 0l0 4.1c0 0-.01.01 0 0c.3-.6.9-1 1.7-1c1.6 0 2 1.1 2 2.2c-.04-.03 0 3 0 3l-.7 0c0 0 0-2.99 0-3c0-.8-.2-1.6-1.3-1.6c-1 0-1.7.7-1.7 2.1c-.03-.04 0 2.5 0 2.5l-.7 0l0-8.3z" stroke="none" fill="#fff"/></g><g id="Polygon48078"><path d="m1.1 51.2l.7 0l0 7.1l3.6 0l0 .7l-4.3 0l0-7.8zm9.8 6.8c-.5.8-1.3 1.1-2.2 1.1c-1.5 0-2.6-1.1-2.6-2.7c0-1.5 1.1-2.6 2.6-2.6c1.5 0 2.4 1.2 2.4 2.4c-.04-.04 0 .4 0 .4c0 0-4.31.02-4.3 0c0 .6.4 1.9 1.9 1.9c.7 0 1.4-.3 1.7-.9c0 0 .5.4.5.4zm-.5-2c0-.9-.8-1.6-1.8-1.6c-1.4 0-1.8 1.4-1.8 1.6c0 0 3.6 0 3.6 0zm2.5-1.5l-1.1 0l0-.6l1.1 0c0 0-.01-1.64 0-1.6c0-1.4.9-1.7 1.5-1.7c.3 0 .6 0 .8.1c0 0-.2.6-.2.6c-.1-.1-.3-.2-.6-.2c-.6 0-.8.5-.8 1.4c-.05 0 0 1.4 0 1.4l1.1 0l0 .6l-1.1 0l0 4.5l-.7 0l0-4.5zm5.8 0l-1.4 0c0 0-.02 3.32 0 3.3c0 .5.2.7.7.7c.2 0 .5 0 .7-.1c0 0 .1.6.1.6c-.3 0-.6.1-.9.1c-.9 0-1.3-.5-1.3-1.3c.02.02 0-3.3 0-3.3l-1.1 0l0-.6l1.1 0l0-1.4l.7 0l0 1.4l1.4 0l0 .6zm1.8-.6c.3 0 .5.2.5.5c0 .3-.2.5-.5.5c-.3 0-.5-.2-.5-.5c0-.3.2-.5.5-.5zm0 4.1c.3 0 .5.2.5.5c0 .3-.2.6-.5.6c-.3 0-.5-.3-.5-.6c0-.3.2-.5.5-.5zm5.4-6.8c0 0 2.19.01 2.2 0c1.2 0 2.5.3 2.5 2.1c0 .8-.5 1.4-1.4 1.6c0 0 0 0 0 0c1 .1 1.7.8 1.7 1.9c0 1.8-1.5 2.2-2.6 2.2c.04 0-2.4 0-2.4 0l0-7.8zm.7 3.4c0 0 1.48-.02 1.5 0c1.5 0 1.8-.8 1.8-1.3c0-1.1-.8-1.4-1.7-1.4c-.02-.03-1.6 0-1.6 0l0 2.7zm0 3.7c0 0 1.64.04 1.6 0c1.7 0 2-.9 2-1.5c0-1.1-.9-1.6-1.9-1.6c.05.04-1.7 0-1.7 0l0 3.1zm9.8-1.4c0 1 .1 1.5.1 2.1c0 0-.6 0-.6 0c0-.3 0-.5 0-.8c0 0-.1 0-.1 0c-.3.6-.9.9-1.7.9c-.9 0-1.8-.4-1.8-1.5c0-1.5 1.8-1.7 2.8-1.7c-.02.02.7 0 .7 0c0 0 .05-.29 0-.3c0-.9-.6-1.2-1.4-1.2c-.6 0-1.1.2-1.5.6c0 0-.4-.5-.4-.5c.5-.5 1.3-.7 1.9-.7c1.2 0 2 .5 2 1.8c0 0 0 1.3 0 1.3zm-1.3-.5c-1.1 0-2.2.3-2.2 1.2c0 .6.6.9 1.2.9c1.4 0 1.7-.9 1.7-1.7c.05-.01 0-.4 0-.4c0 0-.68.05-.7 0zm3.1-1.1c0-.3 0-1.1 0-1.4c0 0 .6 0 .6 0c0 .4.1.8.1.9c0 0 0 0 0 0c.3-.6.9-1 1.7-1c.7 0 1.3.3 1.6 1.1c.3-.8 1-1.1 1.7-1.1c1.6 0 1.9 1.1 1.9 2.2c.04-.03 0 3 0 3l-.6 0c0 0-.02-2.99 0-3c0-.8-.2-1.6-1.3-1.6c-1.2 0-1.5 1-1.5 1.7c-.04.04 0 2.9 0 2.9l-.7 0c0 0 .01-3.06 0-3.1c0-.9-.3-1.5-1.1-1.5c-.9 0-1.7.7-1.7 2.1c-.01-.04 0 2.5 0 2.5l-.7 0c0 0 .03-3.65 0-3.7zm13.3 1.6c0 1 0 1.5.1 2.1c0 0-.6 0-.6 0c-.1-.3-.1-.5-.1-.8c0 0 0 0 0 0c-.4.6-.9.9-1.8.9c-.8 0-1.8-.4-1.8-1.5c0-1.5 1.8-1.7 2.8-1.7c.05.02.8 0 .8 0c0 0 .02-.29 0-.3c0-.9-.6-1.2-1.4-1.2c-.6 0-1.1.2-1.6.6c0 0-.4-.5-.4-.5c.5-.5 1.3-.7 2-.7c1.2 0 2 .5 2 1.8c0 0 0 1.3 0 1.3zm-1.3-.5c-1.1 0-2.2.3-2.2 1.2c0 .6.6.9 1.1.9c1.5 0 1.8-.9 1.8-1.7c.02-.01 0-.4 0-.4c0 0-.71.05-.7 0zm3.1-1.1c0-.3-.1-1.1-.1-1.4c0 0 .7 0 .7 0c0 .4 0 .8 0 .9c0 0 .1 0 .1 0c.2-.6.9-1 1.7-1c1.6 0 2 1.1 2 2.2c-.05-.03 0 3 0 3l-.7 0c0 0-.01-2.99 0-3c0-.8-.2-1.6-1.3-1.6c-1 0-1.7.7-1.7 2.1c-.04-.04 0 2.5 0 2.5l-.7 0c0 0 0-3.65 0-3.7zm10 1.6c0 1 0 1.5.1 2.1c0 0-.6 0-.6 0c0-.3-.1-.5-.1-.8c0 0 0 0 0 0c-.4.6-.9.9-1.8.9c-.8 0-1.8-.4-1.8-1.5c0-1.5 1.8-1.7 2.8-1.7c.05.02.8 0 .8 0c0 0 .02-.29 0-.3c0-.9-.6-1.2-1.4-1.2c-.6 0-1.1.2-1.6.6c0 0-.3-.5-.3-.5c.4-.5 1.2-.7 1.9-.7c1.2 0 2 .5 2 1.8c0 0 0 1.3 0 1.3zm-1.3-.5c-1.1 0-2.2.3-2.2 1.2c0 .6.6.9 1.1.9c1.5 0 1.8-.9 1.8-1.7c.02-.01 0-.4 0-.4c0 0-.71.05-.7 0zm3.3 1.6l.8 0l-.8 2.5l-.7 0l.7-2.5zm5.5-6.8l1.1 0l2.8 6.5l2.8-6.5l1.1 0l0 7.8l-.7 0l0-6.9l-.1 0l-2.9 6.9l-.4 0l-3-6.9l0 0l0 6.9l-.7 0l0-7.8zm13.6 5.7c0 1 0 1.5.1 2.1c0 0-.6 0-.6 0c-.1-.3-.1-.5-.1-.8c0 0 0 0 0 0c-.4.6-1 .9-1.8.9c-.9 0-1.8-.4-1.8-1.5c0-1.5 1.8-1.7 2.8-1.7c.01.02.8 0 .8 0c0 0-.02-.29 0-.3c0-.9-.6-1.2-1.5-1.2c-.5 0-1.1.2-1.5.6c0 0-.4-.5-.4-.5c.5-.5 1.3-.7 1.9-.7c1.3 0 2.1.5 2.1 1.8c0 0 0 1.3 0 1.3zm-1.4-.5c-1.1 0-2.2.3-2.2 1.2c0 .6.7.9 1.2.9c1.4 0 1.8-.9 1.8-1.7c-.02-.01 0-.4 0-.4c0 0-.75.05-.8 0zm3.2-5.7l.7 0l0 8.3l-.7 0l0-8.3zm2.6 3.2l.6 0l0 5.1l-.6 0l0-5.1zm.3-2.5c.3 0 .5.2.5.5c0 .3-.2.5-.5.5c-.3 0-.5-.2-.5-.5c0-.3.2-.5.5-.5zm2.4 6.6l.8 0l-.9 2.5l-.6 0l.7-2.5zm12.1-.2c-.9 1-2 1.4-3.1 1.4c-2.4 0-3.8-1.7-3.5-4.1c.4-2.4 2.3-4.1 4.6-4.1c1.1 0 2 .4 2.6 1.2c0 0-.7.5-.7.5c-.4-.7-1.2-1-1.9-1c-2.1 0-3.6 1.5-3.8 3.4c-.3 1.9.8 3.4 2.8 3.4c.8 0 1.8-.3 2.5-1.2c0 0 .5.5.5.5zm1.6-3.9l.7 0l-.7 5.1l-.7 0l.7-5.1zm.7-2.5c.3 0 .5.2.4.5c0 .3-.3.5-.5.5c-.3 0-.5-.2-.5-.5c.1-.3.3-.5.6-.5zm1.1 2.5l.8 0l.6 4.3l0 0l2-4.3l.7 0l.9 4.3l0 0l1.8-4.3l.6 0l-2.2 5.1l-.6 0l-1-4.2l0 0l-2 4.2l-.7 0l-.9-5.1zm12 3c-.2 1-.2 1.5-.2 2.1c0 0-.6 0-.6 0c0-.3 0-.5 0-.8c0 0 0 0 0 0c-.5.6-1.1.9-1.9.9c-.9 0-1.8-.4-1.6-1.5c.2-1.5 2-1.7 3-1.7c.05.02.8 0 .8 0c0 0 .06-.29.1-.3c.1-.9-.5-1.2-1.3-1.2c-.6 0-1.1.2-1.6.6c0 0-.3-.5-.3-.5c.5-.5 1.3-.7 2-.7c1.2 0 1.9.5 1.8 1.8c0 0-.2 1.3-.2 1.3zm-1.3-.5c-1.1 0-2.2.3-2.3 1.2c-.1.6.4.9 1 .9c1.4 0 1.9-.9 2-1.7c0-.01 0-.4 0-.4c0 0-.68.05-.7 0zm3.3-1.1c.1-.3.1-1.1.2-1.4c0 0 .6 0 .6 0c0 .4-.1.8-.1.9c.5-.6 1-1 1.8-1c.1 0 .3 0 .4 0c0 0-.2.7-.2.7c-.1 0-.2-.1-.2-.1c-1.2 0-1.8.8-1.9 1.8c-.04.03-.4 2.8-.4 2.8l-.7 0c0 0 .52-3.65.5-3.7zm7.3 1.6c-.1 1-.2 1.5-.2 2.1c0 0-.6 0-.6 0c0-.3 0-.5.1-.8c0 0-.1 0-.1 0c-.4.6-1 .9-1.9.9c-.9 0-1.7-.4-1.6-1.5c.3-1.5 2.1-1.7 3.1-1.7c-.01.02.8 0 .8 0c0 0 .01-.29 0-.3c.1-.9-.4-1.2-1.3-1.2c-.5 0-1.1.2-1.6.6c0 0-.3-.5-.3-.5c.5-.5 1.4-.7 2-.7c1.3 0 2 .5 1.8 1.8c0 0-.2 1.3-.2 1.3zm-1.2-.5c-1.1 0-2.3.3-2.4 1.2c-.1.6.5.9 1 .9c1.4 0 1.9-.9 2-1.7c.04-.01.1-.4.1-.4c0 0-.74.05-.7 0z" stroke="none" fill="#fff"/></g></svg>