<svg xmlns="http://www.w3.org/2000/svg" version="1.1" width="137px" height="35.4px" viewBox="0 0 137 35.4"><desc>tap for video 00:48</desc><defs/><g id="Polygon47408"><path d="m15.7 13.4l-2.2 0l0-1.2l5.6 0l0 1.2l-2.2 0l0 5.9l-1.2 0l0-5.9zm6.1-1.2l1.1 0l3.1 7.1l-1.5 0l-.6-1.6l-3.1 0l-.6 1.6l-1.4 0l3-7.1zm1.6 4.4l-1.1-2.9l-1.1 2.9l2.2 0zm3.7-4.4c0 0 2.34.02 2.3 0c1.4 0 2.6.5 2.6 2.1c0 1.7-1.3 2.1-2.8 2.1c.02-.03-.9 0-.9 0l0 2.9l-1.2 0l0-7.1zm2 3.1c.7 0 1.6 0 1.6-1c0-.9-.8-1-1.5-1c.02 0-.9 0-.9 0l0 2c0 0 .78-.01.8 0zm7.4-3.1l4.6 0l0 1.2l-3.3 0l0 1.8l3.1 0l0 1.2l-3.1 0l0 2.9l-1.3 0l0-7.1zm9.3-.2c2.2 0 3.8 1.5 3.8 3.7c0 2.3-1.6 3.7-3.8 3.8c-2.2 0-3.7-1.5-3.7-3.7c0-2.3 1.5-3.8 3.7-3.8zm0 6.3c1.5 0 2.5-1.1 2.5-2.6c0-1.4-1-2.5-2.5-2.5c-1.4 0-2.4 1.1-2.4 2.5c0 1.5 1 2.6 2.4 2.6zm5.3-6.1c0 0 2.43.02 2.4 0c1.4 0 2.7.5 2.7 2c0 1.1-.6 1.8-1.7 2c.03-.03 1.9 3.1 1.9 3.1l-1.5 0l-1.7-3l-.9 0l0 3l-1.2 0l0-7.1zm2.2 3c.7 0 1.5 0 1.5-1c0-.8-.7-.9-1.4-.9c.02 0-1.1 0-1.1 0l0 1.9c0 0 1.01.02 1 0zm6.6-3l1.5 0l1.9 5.4l2-5.4l1.3 0l-2.8 7.1l-1.1 0l-2.8-7.1zm7.8 0l1.2 0l0 7.1l-1.2 0l0-7.1zm3.1 0c0 0 2.75.02 2.8 0c1.8 0 3.6 1.2 3.6 3.6c0 2.4-2.1 3.5-3.8 3.5c0 0-2.6 0-2.6 0l0-7.1zm2.2 6c1.5 0 2.8-.7 2.8-2.4c0-1.8-1.1-2.4-2.6-2.4c-.03-.04-1.2 0-1.2 0l0 4.8c0 0 .96-.04 1 0zm5.6-6l4.7 0l0 1.2l-3.4 0l0 1.7l3.2 0l0 1.1l-3.2 0l0 2l3.6 0l0 1.1l-4.9 0l0-7.1zm9.6-.2c2.2 0 3.8 1.5 3.8 3.7c0 2.3-1.6 3.7-3.8 3.8c-2.2 0-3.7-1.5-3.7-3.7c0-2.3 1.5-3.8 3.7-3.8zm0 6.3c1.5 0 2.5-1.1 2.5-2.6c0-1.4-1-2.5-2.5-2.5c-1.4 0-2.4 1.1-2.4 2.5c0 1.5 1 2.6 2.4 2.6zm10.5-6.2c.8 0 2.6.3 2.6 3.7c0 3.3-1.8 3.6-2.6 3.6c-.8 0-2.5-.3-2.5-3.6c0-3.4 1.7-3.7 2.5-3.7zm0 6.2c1.2 0 1.4-1.7 1.4-2.5c0-.9-.2-2.6-1.4-2.6c-1.2 0-1.3 1.7-1.3 2.6c0 .8.1 2.5 1.3 2.5zm6.4-6.2c.8 0 2.5.3 2.5 3.7c0 3.3-1.7 3.6-2.5 3.6c-.8 0-2.6-.3-2.6-3.6c0-3.4 1.8-3.7 2.6-3.7zm0 6.2c1.2 0 1.3-1.7 1.3-2.5c0-.9-.1-2.6-1.3-2.6c-1.2 0-1.4 1.7-1.4 2.6c0 .8.2 2.5 1.4 2.5zm4.6-.5c.5 0 .8.4.8.8c0 .4-.3.8-.8.8c-.4 0-.8-.4-.8-.8c0-.4.4-.8.8-.8zm0-3.4c.5 0 .8.4.8.8c0 .4-.3.8-.8.8c-.4 0-.8-.4-.8-.8c0-.4.4-.8.8-.8zm5 3.5l-3 0l0-1.2l2.8-4.5l1.4 0l0 4.6l1 0l0 1.1l-1 0l0 1.4l-1.2 0l0-1.4zm0-4l0 0l-1.8 2.9l1.8 0l0-2.9zm7.9.1c0 .7-.3 1.3-1.1 1.6c0 0 0 0 0 0c.7.1 1.3.8 1.3 1.7c0 1.4-1 2.1-2.4 2.1c-1.3 0-2.3-.7-2.3-2.1c0-.9.6-1.6 1.2-1.7c0 0 0-.1 0-.1c-.7-.2-1-.8-1-1.5c0-1.2.9-1.9 2.1-1.9c1.2 0 2.2.7 2.2 1.9zm-3.1.1c0 .5.4 1 .9 1c.6 0 1-.5 1-1c0-.6-.4-1-1-1c-.6 0-.9.4-.9 1zm-.2 3c0 .7.5 1.2 1.1 1.2c.7 0 1.2-.5 1.2-1.2c0-.6-.5-1.1-1.2-1.1c-.6 0-1.1.5-1.1 1.1z" stroke="none" fill="#808284"/></g></svg>