<?xml version="1.0" standalone="no"?><!DOCTYPE svg PUBLIC "-//W3C//DTD SVG 1.1//EN" "http://www.w3.org/Graphics/SVG/1.1/DTD/svg11.dtd"><svg xmlns="http://www.w3.org/2000/svg" version="1.1" width="194px" height="189.9px" viewBox="0 0 194 189.9">  <desc>A recent accession to the MIA s African collection brings with it ritual riches and a bellyful of intrigue</desc>  <defs/>  <g id="Polygon46400">    <path d="M 3.4 133.8 C 3.8 134.8 4.6 135.6 5.6 135.6 C 7.3 135.6 8.1 134.1 8.1 132.4 C 8.1 130.6 7.3 129.2 5.6 129.2 C 4.6 129.2 3.8 129.9 3.4 131 C 3.4 131 3.4 133.8 3.4 133.8 Z M 2.3 136.4 L 1.8 136.4 C 1.8 136.4 1.8 126.07 1.8 126.1 C 1.8 123.9 1.5 123.5 0.1 123.5 C 0.07 123.5 0.1 123 0.1 123 L 3.4 122.5 C 3.4 122.5 3.37 129.66 3.4 129.7 C 4 128.8 4.9 128.4 6.1 128.4 C 8.1 128.4 9.9 130.2 9.9 132.4 C 9.9 134.6 8.1 136.4 6.1 136.4 C 4.9 136.4 3.9 135.9 3.2 135 C 3.23 134.96 2.3 136.4 2.3 136.4 Z M 16.9 131 C 17.2 130.3 16.8 129.2 15.4 129.2 C 14.4 129.2 13.6 129.9 13.3 131 C 13.3 131 16.9 131 16.9 131 Z M 16 135.5 C 16.7 135.5 17.8 135.1 18.4 134.5 C 18.4 134.5 18.8 135 18.8 135 C 18.1 135.8 16.7 136.4 15.5 136.4 C 13.1 136.4 11.4 134.6 11.4 132.4 C 11.4 130.1 13.4 128.4 15.5 128.4 C 17.4 128.4 19 129.9 18.5 131.8 C 18.5 131.8 13.2 131.8 13.2 131.8 C 12.9 133.9 13.8 135.5 16 135.5 Z M 19.8 136.1 C 19.8 136.1 19.78 135.6 19.8 135.6 C 21.2 135.6 21.5 135.2 21.5 133 C 21.5 133 21.5 126.1 21.5 126.1 C 21.5 123.9 21.2 123.5 19.8 123.5 C 19.78 123.5 19.8 123 19.8 123 L 23.1 122.5 C 23.1 122.5 23.08 133.02 23.1 133 C 23.1 135.2 23.4 135.6 24.8 135.6 C 24.81 135.6 24.8 136.1 24.8 136.1 L 19.8 136.1 Z M 25.7 136.1 C 25.7 136.1 25.67 135.6 25.7 135.6 C 27.1 135.6 27.4 135.2 27.4 133 C 27.4 133 27.4 126.1 27.4 126.1 C 27.4 123.9 27.1 123.5 25.7 123.5 C 25.67 123.5 25.7 123 25.7 123 L 29 122.5 C 29 122.5 28.97 133.02 29 133 C 29 135.2 29.3 135.6 30.7 135.6 C 30.7 135.6 30.7 136.1 30.7 136.1 L 25.7 136.1 Z M 33.2 138.7 C 33.18 138.7 34.3 135.9 34.3 135.9 C 34.3 135.9 31.75 130.47 31.7 130.5 C 31.3 129.5 31 129.2 30.3 129.2 C 30.27 129.17 30.3 128.7 30.3 128.7 L 34.2 128.7 C 34.2 128.7 34.17 129.17 34.2 129.2 C 33.2 129.2 33 129.4 33.5 130.5 C 33.46 130.47 35.1 134 35.1 134 C 35.1 134 36.48 130.47 36.5 130.5 C 36.9 129.5 36.7 129.2 35.8 129.2 C 35.84 129.17 35.8 128.7 35.8 128.7 L 38.9 128.7 C 38.9 128.7 38.92 129.17 38.9 129.2 C 38.2 129.2 37.8 129.5 37.4 130.5 C 37.4 130.5 33.1 141.2 33.1 141.2 C 32.9 141.6 32.6 142 32.3 142 C 31.9 142 31.5 141.8 31.5 141.3 C 31.5 140.4 32.5 140.4 33.2 138.7 Z M 43.1 133 C 43.1 135.2 43.4 135.6 44.8 135.6 C 44.83 135.6 44.8 136.1 44.8 136.1 L 39.8 136.1 C 39.8 136.1 39.79 135.6 39.8 135.6 C 41.2 135.6 41.5 135.2 41.5 133 C 41.53 133.02 41.5 129.5 41.5 129.5 L 39.7 129.5 L 39.7 128.7 L 41.5 128.7 C 41.5 128.7 41.53 126.62 41.5 126.6 C 41.5 123.6 43.3 122.5 45.1 122.5 C 46.6 122.5 47.3 123.4 47.3 124.1 C 47.3 124.6 47.1 124.9 46.6 124.9 C 45.5 124.9 46.1 123.2 44.7 123.2 C 43.6 123.2 43.1 124.1 43.1 126.6 C 43.09 126.62 43.1 128.7 43.1 128.7 L 45.3 128.7 L 45.3 129.5 L 43.1 129.5 C 43.1 129.5 43.09 133.02 43.1 133 Z M 53.9 136.4 C 53.8 136.2 53.6 135.4 53.6 135 C 53 135.6 52 136.4 50.7 136.4 C 48.7 136.4 47.9 135 47.9 133.1 C 47.9 133.1 47.9 131.7 47.9 131.7 C 47.9 129.5 47.7 129.2 46.2 129.2 C 46.21 129.17 46.2 128.7 46.2 128.7 L 49.5 128.7 C 49.5 128.7 49.51 133.02 49.5 133 C 49.5 134.5 50 135.4 51.2 135.4 C 52 135.4 53.6 134.6 53.6 133.2 C 53.6 133.2 53.6 131.7 53.6 131.7 C 53.6 129.5 53.3 129.2 51.8 129.2 C 51.8 129.17 51.8 128.7 51.8 128.7 L 55.1 128.7 C 55.1 128.7 55.1 132.85 55.1 132.8 C 55.1 135 55.4 135.4 56.9 135.4 C 56.86 135.42 56.9 135.9 56.9 135.9 C 56.9 135.9 53.91 136.43 53.9 136.4 Z M 57.7 136.1 C 57.7 136.1 57.72 135.6 57.7 135.6 C 59.2 135.6 59.5 135.2 59.5 133 C 59.5 133 59.5 126.1 59.5 126.1 C 59.5 123.9 59.2 123.5 57.7 123.5 C 57.72 123.5 57.7 123 57.7 123 L 61 122.5 C 61 122.5 61.02 133.02 61 133 C 61 135.2 61.3 135.6 62.8 135.6 C 62.76 135.6 62.8 136.1 62.8 136.1 L 57.7 136.1 Z M 72.5 136.4 C 70.1 136.4 68.1 134.6 68.1 132.4 C 68.1 130.2 70.1 128.4 72.5 128.4 C 74.9 128.4 77 130.2 77 132.4 C 77 134.6 74.9 136.4 72.5 136.4 Z M 72.5 129.2 C 70.7 129.2 69.8 130.6 69.8 132.4 C 69.8 134.1 70.7 135.6 72.5 135.6 C 74.3 135.6 75.2 134.1 75.2 132.4 C 75.2 130.6 74.3 129.2 72.5 129.2 Z M 81.2 133 C 81.2 135.2 81.5 135.6 83 135.6 C 82.95 135.6 83 136.1 83 136.1 L 77.9 136.1 C 77.9 136.1 77.92 135.6 77.9 135.6 C 79.4 135.6 79.7 135.2 79.7 133 C 79.65 133.02 79.7 129.5 79.7 129.5 L 77.8 129.5 L 77.8 128.7 L 79.7 128.7 C 79.7 128.7 79.65 126.62 79.7 126.6 C 79.7 123.6 81.5 122.5 83.3 122.5 C 84.7 122.5 85.5 123.4 85.5 124.1 C 85.5 124.6 85.2 124.9 84.7 124.9 C 83.7 124.9 84.3 123.2 82.9 123.2 C 81.7 123.2 81.2 124.1 81.2 126.6 C 81.22 126.62 81.2 128.7 81.2 128.7 L 83.4 128.7 L 83.4 129.5 L 81.2 129.5 C 81.2 129.5 81.22 133.02 81.2 133 Z M 88.6 136.1 C 88.6 136.1 88.61 135.6 88.6 135.6 C 90.1 135.6 90.3 135.2 90.3 133 C 90.3 133 90.3 131.9 90.3 131.9 C 90.3 129.7 90.1 129.4 88.6 129.4 C 88.61 129.37 88.6 128.9 88.6 128.9 L 91.9 128.4 C 91.9 128.4 91.91 133.02 91.9 133 C 91.9 135.2 92.2 135.6 93.6 135.6 C 93.64 135.6 93.6 136.1 93.6 136.1 L 88.6 136.1 Z M 91.1 126.2 C 90.6 126.2 90.1 125.8 90.1 125.2 C 90.1 124.7 90.6 124.2 91.1 124.2 C 91.6 124.2 92.1 124.7 92.1 125.2 C 92.1 125.8 91.6 126.2 91.1 126.2 Z M 101 128.4 C 103 128.4 103.9 129.8 103.9 131.6 C 103.9 131.6 103.9 133 103.9 133 C 103.9 135.2 104.2 135.6 105.6 135.6 C 105.65 135.6 105.6 136.1 105.6 136.1 L 100.6 136.1 C 100.6 136.1 100.61 135.6 100.6 135.6 C 102 135.6 102.3 135.2 102.3 133 C 102.3 133 102.3 131.7 102.3 131.7 C 102.3 130.3 101.8 129.4 100.5 129.4 C 99.3 129.4 98 130.4 98 131.6 C 98 131.6 98 133 98 133 C 98 135.3 98.2 135.6 99.5 135.6 C 99.53 135.6 99.5 136.1 99.5 136.1 L 94.7 136.1 C 94.7 136.1 94.69 135.6 94.7 135.6 C 96.1 135.6 96.4 135.2 96.4 133 C 96.4 133 96.4 131.9 96.4 131.9 C 96.4 129.7 96.1 129.4 94.7 129.4 C 94.69 129.37 94.7 128.9 94.7 128.9 C 94.7 128.9 97.62 128.36 97.6 128.4 C 97.7 128.6 97.9 129.5 98 129.9 C 98.6 129.2 99.6 128.4 101 128.4 Z M 105.9 129.5 C 105.9 129.5 105.93 128.98 105.9 129 C 107.2 128.7 107.7 127.7 107.9 126.3 C 107.89 126.31 108.6 126.3 108.6 126.3 L 108.6 128.7 L 110.5 128.7 L 110.5 129.5 L 108.6 129.5 C 108.6 129.5 108.63 133.95 108.6 133.9 C 108.6 135 108.9 135.6 109.6 135.6 C 110 135.6 110.5 135.3 111.1 134.8 C 111.1 134.8 111.4 135.2 111.4 135.2 C 110.8 135.9 109.8 136.4 109.1 136.4 C 107.9 136.4 107.1 135.7 107.1 133.9 C 107.07 133.95 107.1 129.5 107.1 129.5 L 105.9 129.5 Z M 118.9 130.8 C 118.5 130.8 118.1 130.4 118.1 130 C 118.1 129.5 117.9 129.2 117.4 129.2 C 116.9 129.2 115.7 130.1 115.7 131.8 C 115.7 131.8 115.7 133 115.7 133 C 115.7 135.2 116 135.6 117.5 135.6 C 117.48 135.6 117.5 136.1 117.5 136.1 L 112.4 136.1 C 112.4 136.1 112.44 135.6 112.4 135.6 C 113.9 135.6 114.2 135.2 114.2 133 C 114.2 133 114.2 131.9 114.2 131.9 C 114.2 129.7 113.9 129.4 112.4 129.4 C 112.44 129.37 112.4 128.9 112.4 128.9 C 112.4 128.9 115.37 128.36 115.4 128.4 C 115.5 128.6 115.7 129.5 115.7 129.9 C 116.2 129.1 117.2 128.4 118.1 128.4 C 119.3 128.4 119.8 129.2 119.8 129.7 C 119.8 130.2 119.6 130.8 118.9 130.8 Z M 120.9 136.1 C 120.9 136.1 120.87 135.6 120.9 135.6 C 122.3 135.6 122.6 135.2 122.6 133 C 122.6 133 122.6 131.9 122.6 131.9 C 122.6 129.7 122.3 129.4 120.9 129.4 C 120.87 129.37 120.9 128.9 120.9 128.9 L 124.2 128.4 C 124.2 128.4 124.17 133.02 124.2 133 C 124.2 135.2 124.4 135.6 125.9 135.6 C 125.91 135.6 125.9 136.1 125.9 136.1 L 120.9 136.1 Z M 123.4 126.2 C 122.8 126.2 122.4 125.8 122.4 125.2 C 122.4 124.7 122.8 124.2 123.4 124.2 C 123.9 124.2 124.3 124.7 124.3 125.2 C 124.3 125.8 123.9 126.2 123.4 126.2 Z M 130.3 129.1 C 129.2 129.1 128.7 130.1 128.7 131.4 C 128.7 132.6 129.2 133.6 130.3 133.6 C 131.4 133.6 131.9 132.6 131.9 131.4 C 131.9 130.1 131.4 129.1 130.3 129.1 Z M 130.2 136.1 C 133.3 136.3 134.2 137.6 134.2 139 C 134.2 140.8 132.5 141.9 130.3 141.9 C 126.6 141.9 125.2 139.2 127.9 137.8 C 127.9 137.8 128.3 138 128.3 138 C 126.4 140.1 128.6 141.1 130.3 141.1 C 131.7 141.1 133.1 140.4 133.1 139.4 C 133.1 138.3 132 138 130.1 137.8 C 128.3 137.7 127 137.1 127 135.8 C 127 135 127.7 134.4 128.8 134 C 127.7 133.5 127 132.5 127 131.4 C 127 129.7 128.5 128.4 130.3 128.4 C 131.2 128.4 131.9 128.7 132.5 129.2 C 132.9 128.7 133.7 128.4 134.2 128.4 C 135.7 128.4 135.8 130.2 134.9 130.2 C 134 130.3 134.5 129.2 133.6 129.2 C 133.4 129.2 133.2 129.3 132.9 129.6 C 133.3 130.1 133.6 130.7 133.6 131.4 C 133.6 133 132.1 134.1 130.7 134.3 C 129.7 134.5 128.2 134.7 128.2 135.3 C 128.2 135.9 129.5 136 130.2 136.1 Z M 143.8 136.4 C 143.7 136.2 143.5 135.4 143.4 135 C 142.9 135.6 141.8 136.4 140.6 136.4 C 138.5 136.4 137.8 135 137.8 133.1 C 137.8 133.1 137.8 131.7 137.8 131.7 C 137.8 129.5 137.6 129.2 136.1 129.2 C 136.08 129.17 136.1 128.7 136.1 128.7 L 139.4 128.7 C 139.4 128.7 139.38 133.02 139.4 133 C 139.4 134.5 139.9 135.4 141.1 135.4 C 141.9 135.4 143.4 134.6 143.4 133.2 C 143.4 133.2 143.4 131.7 143.4 131.7 C 143.4 129.5 143.1 129.2 141.7 129.2 C 141.67 129.17 141.7 128.7 141.7 128.7 L 145 128.7 C 145 128.7 144.97 132.85 145 132.8 C 145 135 145.3 135.4 146.7 135.4 C 146.73 135.42 146.7 135.9 146.7 135.9 C 146.7 135.9 143.78 136.43 143.8 136.4 Z M 152.9 131 C 153.1 130.3 152.8 129.2 151.3 129.2 C 150.4 129.2 149.6 129.9 149.3 131 C 149.3 131 152.9 131 152.9 131 Z M 152 135.5 C 152.7 135.5 153.8 135.1 154.4 134.5 C 154.4 134.5 154.8 135 154.8 135 C 154 135.8 152.7 136.4 151.4 136.4 C 149 136.4 147.4 134.6 147.4 132.4 C 147.4 130.1 149.4 128.4 151.4 128.4 C 153.4 128.4 155 129.9 154.4 131.8 C 154.4 131.8 149.1 131.8 149.1 131.8 C 148.9 133.9 149.7 135.5 152 135.5 Z M 158.1 136.2 C 157.4 136.2 156.9 135.7 156.9 135.1 C 156.9 134.5 157.4 133.9 158.1 133.9 C 158.8 133.9 159.3 134.5 159.3 135.1 C 159.3 135.7 158.8 136.2 158.1 136.2 Z " stroke="none" fill="#fff"/>  </g>  <g id="Polygon46399">    <path d="M 0.8 106.1 C 0.8 106.1 0.84 105.6 0.8 105.6 C 2.3 105.6 2.6 105.2 2.6 103 C 2.6 103 2.6 101.9 2.6 101.9 C 2.6 99.7 2.3 99.4 0.8 99.4 C 0.84 99.37 0.8 98.9 0.8 98.9 L 4.1 98.4 C 4.1 98.4 4.14 103.02 4.1 103 C 4.1 105.2 4.4 105.6 5.9 105.6 C 5.87 105.6 5.9 106.1 5.9 106.1 L 0.8 106.1 Z M 3.3 96.2 C 2.8 96.2 2.4 95.8 2.4 95.2 C 2.4 94.7 2.8 94.2 3.3 94.2 C 3.9 94.2 4.3 94.7 4.3 95.2 C 4.3 95.8 3.9 96.2 3.3 96.2 Z M 6.1 99.5 C 6.1 99.5 6.13 98.98 6.1 99 C 7.5 98.7 7.9 97.7 8.1 96.3 C 8.09 96.31 8.8 96.3 8.8 96.3 L 8.8 98.7 L 10.8 98.7 L 10.8 99.5 L 8.8 99.5 C 8.8 99.5 8.84 103.95 8.8 103.9 C 8.8 105 9.1 105.6 9.8 105.6 C 10.2 105.6 10.8 105.3 11.3 104.8 C 11.3 104.8 11.6 105.2 11.6 105.2 C 11 105.9 10 106.4 9.3 106.4 C 8.1 106.4 7.3 105.7 7.3 103.9 C 7.28 103.95 7.3 99.5 7.3 99.5 L 6.1 99.5 Z M 23.1 100.8 C 22.7 100.8 22.3 100.4 22.3 100 C 22.3 99.5 22.1 99.2 21.6 99.2 C 21.1 99.2 19.9 100.1 19.9 101.8 C 19.9 101.8 19.9 103 19.9 103 C 19.9 105.2 20.2 105.6 21.7 105.6 C 21.68 105.6 21.7 106.1 21.7 106.1 L 16.6 106.1 C 16.6 106.1 16.65 105.6 16.6 105.6 C 18.1 105.6 18.4 105.2 18.4 103 C 18.4 103 18.4 101.9 18.4 101.9 C 18.4 99.7 18.1 99.4 16.6 99.4 C 16.65 99.37 16.6 98.9 16.6 98.9 C 16.6 98.9 19.57 98.36 19.6 98.4 C 19.7 98.6 19.9 99.5 19.9 99.9 C 20.4 99.1 21.4 98.4 22.3 98.4 C 23.5 98.4 24 99.2 24 99.7 C 24 100.2 23.8 100.8 23.1 100.8 Z M 25.1 106.1 C 25.1 106.1 25.07 105.6 25.1 105.6 C 26.5 105.6 26.8 105.2 26.8 103 C 26.8 103 26.8 101.9 26.8 101.9 C 26.8 99.7 26.5 99.4 25.1 99.4 C 25.07 99.37 25.1 98.9 25.1 98.9 L 28.4 98.4 C 28.4 98.4 28.37 103.02 28.4 103 C 28.4 105.2 28.6 105.6 30.1 105.6 C 30.11 105.6 30.1 106.1 30.1 106.1 L 25.1 106.1 Z M 27.6 96.2 C 27.1 96.2 26.6 95.8 26.6 95.2 C 26.6 94.7 27.1 94.2 27.6 94.2 C 28.1 94.2 28.6 94.7 28.6 95.2 C 28.6 95.8 28.1 96.2 27.6 96.2 Z M 30.4 99.5 C 30.4 99.5 30.37 98.98 30.4 99 C 31.7 98.7 32.2 97.7 32.3 96.3 C 32.33 96.31 33.1 96.3 33.1 96.3 L 33.1 98.7 L 35 98.7 L 35 99.5 L 33.1 99.5 C 33.1 99.5 33.08 103.95 33.1 103.9 C 33.1 105 33.4 105.6 34.1 105.6 C 34.5 105.6 35 105.3 35.5 104.8 C 35.5 104.8 35.9 105.2 35.9 105.2 C 35.3 105.9 34.3 106.4 33.6 106.4 C 32.4 106.4 31.5 105.7 31.5 103.9 C 31.51 103.95 31.5 99.5 31.5 99.5 L 30.4 99.5 Z M 43.9 106.4 C 43.8 106.2 43.7 105.4 43.6 105 C 43 105.6 42 106.4 40.7 106.4 C 38.7 106.4 38 105 38 103.1 C 38 103.1 38 101.7 38 101.7 C 38 99.5 37.7 99.2 36.2 99.2 C 36.24 99.17 36.2 98.7 36.2 98.7 L 39.5 98.7 C 39.5 98.7 39.54 103.02 39.5 103 C 39.5 104.5 40 105.4 41.2 105.4 C 42.1 105.4 43.6 104.6 43.6 103.2 C 43.6 103.2 43.6 101.7 43.6 101.7 C 43.6 99.5 43.3 99.2 41.8 99.2 C 41.83 99.17 41.8 98.7 41.8 98.7 L 45.1 98.7 C 45.1 98.7 45.13 102.85 45.1 102.8 C 45.1 105 45.4 105.4 46.9 105.4 C 46.89 105.42 46.9 105.9 46.9 105.9 C 46.9 105.9 43.94 106.43 43.9 106.4 Z M 54.1 106.3 C 53.3 106.3 52.7 105.8 52.6 105 C 51.6 106 50.8 106.3 49.9 106.3 C 48.8 106.3 47.9 105.7 47.9 104.5 C 47.9 102.6 50.1 101.8 52.6 101.4 C 52.6 99.7 52.4 99.1 51.1 99.1 C 50.6 99.1 49.9 99.4 49.9 100.1 C 49.9 100.6 49.5 100.9 49.1 100.9 C 48.7 100.9 48.3 100.6 48.3 100.1 C 48.3 99.1 49.7 98.4 51.1 98.4 C 53.3 98.4 54.2 99.3 54.2 101.4 C 54.2 101.4 54.2 104.7 54.2 104.7 C 54.2 105.2 54.3 105.5 54.7 105.5 C 54.9 105.5 55.1 105.4 55.3 105.2 C 55.3 105.2 55.6 105.6 55.6 105.6 C 55.2 106.1 54.6 106.3 54.1 106.3 Z M 52.6 102.1 C 50.5 102.5 49.6 103.3 49.6 104.2 C 49.6 104.9 50 105.4 50.6 105.4 C 51.1 105.4 51.6 105.2 52.6 104.3 C 52.6 104.3 52.6 102.1 52.6 102.1 Z M 56.4 106.1 C 56.4 106.1 56.4 105.6 56.4 105.6 C 57.9 105.6 58.1 105.2 58.1 103 C 58.1 103 58.1 96.1 58.1 96.1 C 58.1 93.9 57.9 93.5 56.4 93.5 C 56.4 93.5 56.4 93 56.4 93 L 59.7 92.5 C 59.7 92.5 59.7 103.02 59.7 103 C 59.7 105.2 60 105.6 61.4 105.6 C 61.44 105.6 61.4 106.1 61.4 106.1 L 56.4 106.1 Z M 73 100.8 C 72.6 100.8 72.2 100.4 72.2 100 C 72.2 99.5 72 99.2 71.5 99.2 C 71 99.2 69.8 100.1 69.8 101.8 C 69.8 101.8 69.8 103 69.8 103 C 69.8 105.2 70.1 105.6 71.6 105.6 C 71.56 105.6 71.6 106.1 71.6 106.1 L 66.5 106.1 C 66.5 106.1 66.52 105.6 66.5 105.6 C 68 105.6 68.3 105.2 68.3 103 C 68.3 103 68.3 101.9 68.3 101.9 C 68.3 99.7 68 99.4 66.5 99.4 C 66.52 99.37 66.5 98.9 66.5 98.9 C 66.5 98.9 69.45 98.36 69.5 98.4 C 69.6 98.6 69.8 99.5 69.8 99.9 C 70.3 99.1 71.3 98.4 72.1 98.4 C 73.3 98.4 73.9 99.2 73.9 99.7 C 73.9 100.2 73.7 100.8 73 100.8 Z M 75 106.1 C 75 106.1 74.95 105.6 75 105.6 C 76.4 105.6 76.7 105.2 76.7 103 C 76.7 103 76.7 101.9 76.7 101.9 C 76.7 99.7 76.4 99.4 75 99.4 C 74.95 99.37 75 98.9 75 98.9 L 78.3 98.4 C 78.3 98.4 78.25 103.02 78.3 103 C 78.3 105.2 78.5 105.6 80 105.6 C 79.99 105.6 80 106.1 80 106.1 L 75 106.1 Z M 77.5 96.2 C 76.9 96.2 76.5 95.8 76.5 95.2 C 76.5 94.7 76.9 94.2 77.5 94.2 C 78 94.2 78.4 94.7 78.4 95.2 C 78.4 95.8 78 96.2 77.5 96.2 Z M 82.5 102.6 C 82.5 104.3 83.3 105.5 85.1 105.5 C 85.9 105.5 86.8 105.2 87.5 104.5 C 87.5 104.5 87.9 105 87.9 105 C 87 105.9 85.8 106.4 84.6 106.4 C 82.1 106.4 80.7 104.8 80.7 102.6 C 80.7 100 82.8 98.4 84.6 98.4 C 86.4 98.4 87.2 99.1 87.2 99.9 C 87.2 100.3 87 100.9 86.2 100.9 C 85.7 100.9 85.4 100.5 85.4 100 C 85.4 99.3 85 99.1 84.6 99.1 C 83.4 99.1 82.5 100.6 82.5 102.6 Z M 94.4 106.1 C 94.4 106.1 94.4 105.6 94.4 105.6 C 95.8 105.6 96 105.3 96 103 C 96 103 96 101.7 96 101.7 C 96 100.3 95.4 99.4 94.3 99.4 C 93.2 99.4 91.9 100.3 91.9 101.6 C 91.9 101.6 91.9 103 91.9 103 C 91.9 105.3 92.1 105.6 93.3 105.6 C 93.3 105.6 93.3 106.1 93.3 106.1 L 88.6 106.1 C 88.6 106.1 88.61 105.6 88.6 105.6 C 90.1 105.6 90.3 105.2 90.3 103 C 90.3 103 90.3 96.1 90.3 96.1 C 90.3 93.9 90.1 93.5 88.6 93.5 C 88.61 93.5 88.6 93 88.6 93 L 91.9 92.5 C 91.9 92.5 91.91 99.94 91.9 99.9 C 92.5 99.2 93.5 98.4 94.8 98.4 C 96.8 98.4 97.5 99.8 97.5 101.6 C 97.5 101.6 97.5 103 97.5 103 C 97.5 105.2 97.8 105.6 99.3 105.6 C 99.26 105.6 99.3 106.1 99.3 106.1 L 94.4 106.1 Z M 105.4 101 C 105.7 100.3 105.3 99.2 103.8 99.2 C 102.9 99.2 102.1 99.9 101.8 101 C 101.8 101 105.4 101 105.4 101 Z M 104.5 105.5 C 105.2 105.5 106.3 105.1 106.9 104.5 C 106.9 104.5 107.3 105 107.3 105 C 106.6 105.8 105.2 106.4 104 106.4 C 101.5 106.4 99.9 104.6 99.9 102.4 C 99.9 100.1 101.9 98.4 104 98.4 C 105.9 98.4 107.5 99.9 107 101.8 C 107 101.8 101.6 101.8 101.6 101.8 C 101.4 103.9 102.2 105.5 104.5 105.5 Z M 111.4 106.4 C 109.9 106.4 109.1 104.9 109.1 106.4 C 109.06 106.43 108.6 106.4 108.6 106.4 L 108.6 103.2 C 108.6 103.2 109.06 103.22 109.1 103.2 C 109.1 104.2 109.9 105.7 111.5 105.7 C 112.2 105.7 112.7 105.2 112.7 104.6 C 112.7 104 112.3 103.6 111.5 103.2 C 111.5 103.2 110.3 102.6 110.3 102.6 C 109.2 102 108.8 101.1 108.8 100.4 C 108.8 99.2 109.9 98.4 111 98.4 C 112.7 98.4 113 99.5 113 98.4 C 113.02 98.36 113.5 98.4 113.5 98.4 L 113.5 100.9 C 113.5 100.9 113.02 100.91 113 100.9 C 113 100 112.4 99.1 111.2 99.1 C 110.5 99.1 110.1 99.5 110.1 100 C 110.1 100.5 110.5 100.8 111.5 101.4 C 111.5 101.4 112.5 101.9 112.5 101.9 C 113.5 102.5 114 103.2 114 104 C 114 105.5 112.8 106.4 111.4 106.4 Z M 125.6 106.3 C 124.8 106.3 124.3 105.8 124.2 105 C 123.1 106 122.3 106.3 121.4 106.3 C 120.3 106.3 119.4 105.7 119.4 104.5 C 119.4 102.6 121.6 101.8 124.1 101.4 C 124.1 99.7 123.9 99.1 122.6 99.1 C 122.1 99.1 121.4 99.4 121.4 100.1 C 121.4 100.6 121.1 100.9 120.6 100.9 C 120.2 100.9 119.9 100.6 119.9 100.1 C 119.9 99.1 121.2 98.4 122.7 98.4 C 124.8 98.4 125.7 99.3 125.7 101.4 C 125.7 101.4 125.7 104.7 125.7 104.7 C 125.7 105.2 125.8 105.5 126.2 105.5 C 126.4 105.5 126.6 105.4 126.8 105.2 C 126.8 105.2 127.1 105.6 127.1 105.6 C 126.7 106.1 126.1 106.3 125.6 106.3 Z M 124.1 102.1 C 122 102.5 121.1 103.3 121.1 104.2 C 121.1 104.9 121.6 105.4 122.1 105.4 C 122.6 105.4 123.1 105.2 124.1 104.3 C 124.1 104.3 124.1 102.1 124.1 102.1 Z M 134.5 98.4 C 136.5 98.4 137.3 99.8 137.3 101.6 C 137.3 101.6 137.3 103 137.3 103 C 137.3 105.2 137.6 105.6 139.1 105.6 C 139.08 105.6 139.1 106.1 139.1 106.1 L 134 106.1 C 134 106.1 134.04 105.6 134 105.6 C 135.5 105.6 135.8 105.2 135.8 103 C 135.8 103 135.8 101.7 135.8 101.7 C 135.8 100.3 135.3 99.4 134 99.4 C 132.7 99.4 131.4 100.4 131.4 101.6 C 131.4 101.6 131.4 103 131.4 103 C 131.4 105.3 131.6 105.6 133 105.6 C 132.97 105.6 133 106.1 133 106.1 L 128.1 106.1 C 128.1 106.1 128.13 105.6 128.1 105.6 C 129.6 105.6 129.9 105.2 129.9 103 C 129.9 103 129.9 101.9 129.9 101.9 C 129.9 99.7 129.6 99.4 128.1 99.4 C 128.13 99.37 128.1 98.9 128.1 98.9 C 128.1 98.9 131.05 98.36 131.1 98.4 C 131.2 98.6 131.4 99.5 131.4 99.9 C 132 99.2 133 98.4 134.5 98.4 Z M 146.2 101 C 145.8 99.9 145 99.2 144 99.2 C 142.3 99.2 141.5 100.6 141.5 102.4 C 141.5 104.1 142.3 105.6 144 105.6 C 145 105.6 145.8 104.8 146.2 103.8 C 146.2 103.8 146.2 101 146.2 101 Z M 146.2 96.1 C 146.2 93.9 146 93.5 144.5 93.5 C 144.48 93.5 144.5 93 144.5 93 L 147.8 92.5 C 147.8 92.5 147.78 102.85 147.8 102.8 C 147.8 105 148.1 105.4 149.5 105.4 C 149.52 105.42 149.5 105.9 149.5 105.9 C 149.5 105.9 146.6 106.43 146.6 106.4 C 146.5 106.2 146.3 105.4 146.2 105.1 C 145.6 105.9 144.7 106.4 143.5 106.4 C 141.4 106.4 139.7 104.6 139.7 102.4 C 139.7 100.2 141.4 98.4 143.5 98.4 C 144.6 98.4 145.6 98.8 146.2 99.7 C 146.2 99.7 146.2 96.1 146.2 96.1 Z M 160.8 106.3 C 159.9 106.3 159.4 105.8 159.3 105 C 158.2 106 157.4 106.3 156.6 106.3 C 155.5 106.3 154.6 105.7 154.6 104.5 C 154.6 102.6 156.8 101.8 159.3 101.4 C 159.3 99.7 159 99.1 157.8 99.1 C 157.3 99.1 156.5 99.4 156.5 100.1 C 156.5 100.6 156.2 100.9 155.8 100.9 C 155.4 100.9 155 100.6 155 100.1 C 155 99.1 156.4 98.4 157.8 98.4 C 159.9 98.4 160.8 99.3 160.8 101.4 C 160.8 101.4 160.8 104.7 160.8 104.7 C 160.8 105.2 161 105.5 161.3 105.5 C 161.6 105.5 161.8 105.4 162 105.2 C 162 105.2 162.3 105.6 162.3 105.6 C 161.8 106.1 161.3 106.3 160.8 106.3 Z M 159.3 102.1 C 157.2 102.5 156.2 103.3 156.2 104.2 C 156.2 104.9 156.7 105.4 157.3 105.4 C 157.7 105.4 158.3 105.2 159.3 104.3 C 159.3 104.3 159.3 102.1 159.3 102.1 Z " stroke="none" fill="#fff"/>  </g>  <g id="Polygon46398">    <path d="M 2.8 72.6 C 2.8 74.3 3.7 75.5 5.5 75.5 C 6.2 75.5 7.1 75.2 7.9 74.5 C 7.9 74.5 8.2 75 8.2 75 C 7.4 75.9 6.2 76.4 4.9 76.4 C 2.5 76.4 1.1 74.8 1.1 72.6 C 1.1 70 3.2 68.4 4.9 68.4 C 6.8 68.4 7.6 69.1 7.6 69.9 C 7.6 70.3 7.3 70.9 6.6 70.9 C 6.1 70.9 5.7 70.5 5.7 70 C 5.7 69.3 5.3 69.1 4.9 69.1 C 3.8 69.1 2.8 70.6 2.8 72.6 Z M 13.5 76.4 C 11 76.4 9 74.6 9 72.4 C 9 70.2 11 68.4 13.5 68.4 C 15.9 68.4 17.9 70.2 17.9 72.4 C 17.9 74.6 15.9 76.4 13.5 76.4 Z M 13.5 69.2 C 11.7 69.2 10.8 70.6 10.8 72.4 C 10.8 74.1 11.7 75.6 13.5 75.6 C 15.3 75.6 16.2 74.1 16.2 72.4 C 16.2 70.6 15.3 69.2 13.5 69.2 Z M 18.6 76.1 C 18.6 76.1 18.59 75.6 18.6 75.6 C 20.1 75.6 20.3 75.2 20.3 73 C 20.3 73 20.3 66.1 20.3 66.1 C 20.3 63.9 20.1 63.5 18.6 63.5 C 18.59 63.5 18.6 63 18.6 63 L 21.9 62.5 C 21.9 62.5 21.89 73.02 21.9 73 C 21.9 75.2 22.2 75.6 23.6 75.6 C 23.63 75.6 23.6 76.1 23.6 76.1 L 18.6 76.1 Z M 24.5 76.1 C 24.5 76.1 24.49 75.6 24.5 75.6 C 26 75.6 26.2 75.2 26.2 73 C 26.2 73 26.2 66.1 26.2 66.1 C 26.2 63.9 26 63.5 24.5 63.5 C 24.49 63.5 24.5 63 24.5 63 L 27.8 62.5 C 27.8 62.5 27.79 73.02 27.8 73 C 27.8 75.2 28.1 75.6 29.5 75.6 C 29.52 75.6 29.5 76.1 29.5 76.1 L 24.5 76.1 Z M 35.7 71 C 35.9 70.3 35.6 69.2 34.1 69.2 C 33.2 69.2 32.3 69.9 32 71 C 32 71 35.7 71 35.7 71 Z M 34.8 75.5 C 35.5 75.5 36.5 75.1 37.2 74.5 C 37.2 74.5 37.6 75 37.6 75 C 36.8 75.8 35.5 76.4 34.2 76.4 C 31.8 76.4 30.1 74.6 30.1 72.4 C 30.1 70.1 32.2 68.4 34.2 68.4 C 36.2 68.4 37.7 69.9 37.2 71.8 C 37.2 71.8 31.9 71.8 31.9 71.8 C 31.6 73.9 32.5 75.5 34.8 75.5 Z M 40.5 72.6 C 40.5 74.3 41.4 75.5 43.2 75.5 C 43.9 75.5 44.8 75.2 45.6 74.5 C 45.6 74.5 45.9 75 45.9 75 C 45.1 75.9 43.9 76.4 42.7 76.4 C 40.2 76.4 38.8 74.8 38.8 72.6 C 38.8 70 40.9 68.4 42.7 68.4 C 44.5 68.4 45.3 69.1 45.3 69.9 C 45.3 70.3 45.1 70.9 44.3 70.9 C 43.8 70.9 43.4 70.5 43.4 70 C 43.4 69.3 43 69.1 42.7 69.1 C 41.5 69.1 40.5 70.6 40.5 72.6 Z M 46.5 69.5 C 46.5 69.5 46.53 68.98 46.5 69 C 47.9 68.7 48.3 67.7 48.5 66.3 C 48.49 66.31 49.2 66.3 49.2 66.3 L 49.2 68.7 L 51.2 68.7 L 51.2 69.5 L 49.2 69.5 C 49.2 69.5 49.24 73.95 49.2 73.9 C 49.2 75 49.5 75.6 50.2 75.6 C 50.6 75.6 51.2 75.3 51.7 74.8 C 51.7 74.8 52 75.2 52 75.2 C 51.4 75.9 50.4 76.4 49.7 76.4 C 48.5 76.4 47.7 75.7 47.7 73.9 C 47.68 73.95 47.7 69.5 47.7 69.5 L 46.5 69.5 Z M 53 76.1 C 53 76.1 53.05 75.6 53 75.6 C 54.5 75.6 54.8 75.2 54.8 73 C 54.8 73 54.8 71.9 54.8 71.9 C 54.8 69.7 54.5 69.4 53 69.4 C 53.05 69.37 53 68.9 53 68.9 L 56.3 68.4 C 56.3 68.4 56.35 73.02 56.3 73 C 56.3 75.2 56.6 75.6 58.1 75.6 C 58.09 75.6 58.1 76.1 58.1 76.1 L 53 76.1 Z M 55.6 66.2 C 55 66.2 54.6 65.8 54.6 65.2 C 54.6 64.7 55 64.2 55.6 64.2 C 56.1 64.2 56.5 64.7 56.5 65.2 C 56.5 65.8 56.1 66.2 55.6 66.2 Z M 63.1 76.4 C 60.7 76.4 58.7 74.6 58.7 72.4 C 58.7 70.2 60.7 68.4 63.1 68.4 C 65.6 68.4 67.6 70.2 67.6 72.4 C 67.6 74.6 65.6 76.4 63.1 76.4 Z M 63.1 69.2 C 61.3 69.2 60.5 70.6 60.5 72.4 C 60.5 74.1 61.3 75.6 63.1 75.6 C 64.9 75.6 65.8 74.1 65.8 72.4 C 65.8 70.6 64.9 69.2 63.1 69.2 Z M 74.9 68.4 C 76.9 68.4 77.8 69.8 77.8 71.6 C 77.8 71.6 77.8 73 77.8 73 C 77.8 75.2 78 75.6 79.5 75.6 C 79.52 75.6 79.5 76.1 79.5 76.1 L 74.5 76.1 C 74.5 76.1 74.48 75.6 74.5 75.6 C 75.9 75.6 76.2 75.2 76.2 73 C 76.2 73 76.2 71.7 76.2 71.7 C 76.2 70.3 75.7 69.4 74.4 69.4 C 73.2 69.4 71.9 70.4 71.9 71.6 C 71.9 71.6 71.9 73 71.9 73 C 71.9 75.3 72 75.6 73.4 75.6 C 73.4 75.6 73.4 76.1 73.4 76.1 L 68.6 76.1 C 68.6 76.1 68.56 75.6 68.6 75.6 C 70 75.6 70.3 75.2 70.3 73 C 70.3 73 70.3 71.9 70.3 71.9 C 70.3 69.7 70 69.4 68.6 69.4 C 68.56 69.37 68.6 68.9 68.6 68.9 C 68.6 68.9 71.49 68.36 71.5 68.4 C 71.6 68.6 71.8 69.5 71.9 69.9 C 72.5 69.2 73.5 68.4 74.9 68.4 Z M 87.1 73.8 C 87.5 74.8 88.3 75.6 89.3 75.6 C 91 75.6 91.8 74.1 91.8 72.4 C 91.8 70.6 91 69.2 89.3 69.2 C 88.3 69.2 87.5 69.9 87.1 71 C 87.1 71 87.1 73.8 87.1 73.8 Z M 86 76.4 L 85.5 76.4 C 85.5 76.4 85.55 66.07 85.5 66.1 C 85.5 63.9 85.3 63.5 83.8 63.5 C 83.81 63.5 83.8 63 83.8 63 L 87.1 62.5 C 87.1 62.5 87.11 69.66 87.1 69.7 C 87.8 68.8 88.7 68.4 89.8 68.4 C 91.9 68.4 93.6 70.2 93.6 72.4 C 93.6 74.6 91.9 76.4 89.8 76.4 C 88.6 76.4 87.6 75.9 87 75 C 86.98 74.96 86 76.4 86 76.4 Z M 101 70.8 C 100.6 70.8 100.3 70.4 100.3 70 C 100.3 69.5 100 69.2 99.6 69.2 C 99.1 69.2 97.9 70.1 97.9 71.8 C 97.9 71.8 97.9 73 97.9 73 C 97.9 75.2 98.1 75.6 99.6 75.6 C 99.6 75.6 99.6 76.1 99.6 76.1 L 94.6 76.1 C 94.6 76.1 94.56 75.6 94.6 75.6 C 96 75.6 96.3 75.2 96.3 73 C 96.3 73 96.3 71.9 96.3 71.9 C 96.3 69.7 96 69.4 94.6 69.4 C 94.56 69.37 94.6 68.9 94.6 68.9 C 94.6 68.9 97.49 68.36 97.5 68.4 C 97.6 68.6 97.8 69.5 97.9 69.9 C 98.3 69.1 99.3 68.4 100.2 68.4 C 101.4 68.4 101.9 69.2 101.9 69.7 C 101.9 70.2 101.7 70.8 101 70.8 Z M 103 76.1 C 103 76.1 102.99 75.6 103 75.6 C 104.4 75.6 104.7 75.2 104.7 73 C 104.7 73 104.7 71.9 104.7 71.9 C 104.7 69.7 104.4 69.4 103 69.4 C 102.99 69.37 103 68.9 103 68.9 L 106.3 68.4 C 106.3 68.4 106.29 73.02 106.3 73 C 106.3 75.2 106.6 75.6 108 75.6 C 108.03 75.6 108 76.1 108 76.1 L 103 76.1 Z M 105.5 66.2 C 105 66.2 104.5 65.8 104.5 65.2 C 104.5 64.7 105 64.2 105.5 64.2 C 106 64.2 106.5 64.7 106.5 65.2 C 106.5 65.8 106 66.2 105.5 66.2 Z M 115.4 68.4 C 117.4 68.4 118.3 69.8 118.3 71.6 C 118.3 71.6 118.3 73 118.3 73 C 118.3 75.2 118.6 75.6 120 75.6 C 120.03 75.6 120 76.1 120 76.1 L 115 76.1 C 115 76.1 114.99 75.6 115 75.6 C 116.4 75.6 116.7 75.2 116.7 73 C 116.7 73 116.7 71.7 116.7 71.7 C 116.7 70.3 116.2 69.4 114.9 69.4 C 113.7 69.4 112.4 70.4 112.4 71.6 C 112.4 71.6 112.4 73 112.4 73 C 112.4 75.3 112.6 75.6 113.9 75.6 C 113.92 75.6 113.9 76.1 113.9 76.1 L 109.1 76.1 C 109.1 76.1 109.08 75.6 109.1 75.6 C 110.5 75.6 110.8 75.2 110.8 73 C 110.8 73 110.8 71.9 110.8 71.9 C 110.8 69.7 110.5 69.4 109.1 69.4 C 109.08 69.37 109.1 68.9 109.1 68.9 C 109.1 68.9 112 68.36 112 68.4 C 112.1 68.6 112.3 69.5 112.4 69.9 C 113 69.2 114 68.4 115.4 68.4 Z M 124.4 69.1 C 123.3 69.1 122.8 70.1 122.8 71.4 C 122.8 72.6 123.3 73.6 124.4 73.6 C 125.5 73.6 126 72.6 126 71.4 C 126 70.1 125.5 69.1 124.4 69.1 Z M 124.4 76.1 C 127.4 76.3 128.4 77.6 128.4 79 C 128.4 80.8 126.6 81.9 124.5 81.9 C 120.8 81.9 119.3 79.2 122 77.8 C 122 77.8 122.4 78 122.4 78 C 120.6 80.1 122.8 81.1 124.5 81.1 C 125.9 81.1 127.2 80.4 127.2 79.4 C 127.2 78.3 126.1 78 124.3 77.8 C 122.5 77.7 121.1 77.1 121.1 75.8 C 121.1 75 121.8 74.4 123 74 C 121.9 73.5 121.1 72.5 121.1 71.4 C 121.1 69.7 122.6 68.4 124.4 68.4 C 125.3 68.4 126.1 68.7 126.7 69.2 C 127.1 68.7 127.9 68.4 128.3 68.4 C 129.9 68.4 129.9 70.2 129.1 70.2 C 128.1 70.3 128.6 69.2 127.7 69.2 C 127.6 69.2 127.3 69.3 127.1 69.6 C 127.5 70.1 127.7 70.7 127.7 71.4 C 127.7 73 126.3 74.1 124.8 74.3 C 123.9 74.5 122.4 74.7 122.4 75.3 C 122.4 75.9 123.7 76 124.4 76.1 Z M 133.2 76.4 C 131.7 76.4 130.8 74.9 130.8 76.4 C 130.83 76.43 130.4 76.4 130.4 76.4 L 130.4 73.2 C 130.4 73.2 130.83 73.22 130.8 73.2 C 130.8 74.2 131.7 75.7 133.2 75.7 C 134 75.7 134.5 75.2 134.5 74.6 C 134.5 74 134 73.6 133.2 73.2 C 133.2 73.2 132 72.6 132 72.6 C 131 72 130.6 71.1 130.6 70.4 C 130.6 69.2 131.7 68.4 132.8 68.4 C 134.5 68.4 134.8 69.5 134.8 68.4 C 134.79 68.36 135.3 68.4 135.3 68.4 L 135.3 70.9 C 135.3 70.9 134.79 70.91 134.8 70.9 C 134.8 70 134.1 69.1 133 69.1 C 132.3 69.1 131.9 69.5 131.9 70 C 131.9 70.5 132.3 70.8 133.2 71.4 C 133.2 71.4 134.3 71.9 134.3 71.9 C 135.3 72.5 135.8 73.2 135.8 74 C 135.8 75.5 134.6 76.4 133.2 76.4 Z M 144.4 76.5 L 144 76.5 C 144 76.5 141.41 70.47 141.4 70.5 C 141 69.5 140.6 69.2 139.9 69.2 C 139.91 69.17 139.9 68.7 139.9 68.7 L 143.9 68.7 C 143.9 68.7 143.9 69.17 143.9 69.2 C 143 69.2 142.7 69.6 143.1 70.5 C 143.1 70.47 144.6 73.9 144.6 73.9 L 146.4 68.7 L 146.9 68.7 L 149.1 73.9 C 149.1 73.9 150.3 70.47 150.3 70.5 C 150.6 69.6 150.4 69.2 149.7 69.2 C 149.66 69.17 149.7 68.7 149.7 68.7 L 152.7 68.7 C 152.7 68.7 152.74 69.17 152.7 69.2 C 152 69.2 151.5 69.5 151.2 70.5 C 151.18 70.47 149 76.5 149 76.5 L 148.5 76.5 L 146.3 71.4 L 144.4 76.5 Z M 153.4 76.1 C 153.4 76.1 153.44 75.6 153.4 75.6 C 154.9 75.6 155.2 75.2 155.2 73 C 155.2 73 155.2 71.9 155.2 71.9 C 155.2 69.7 154.9 69.4 153.4 69.4 C 153.44 69.37 153.4 68.9 153.4 68.9 L 156.7 68.4 C 156.7 68.4 156.74 73.02 156.7 73 C 156.7 75.2 157 75.6 158.5 75.6 C 158.48 75.6 158.5 76.1 158.5 76.1 L 153.4 76.1 Z M 156 66.2 C 155.4 66.2 155 65.8 155 65.2 C 155 64.7 155.4 64.2 156 64.2 C 156.5 64.2 156.9 64.7 156.9 65.2 C 156.9 65.8 156.5 66.2 156 66.2 Z M 158.7 69.5 C 158.7 69.5 158.74 68.98 158.7 69 C 160.1 68.7 160.5 67.7 160.7 66.3 C 160.7 66.31 161.4 66.3 161.4 66.3 L 161.4 68.7 L 163.4 68.7 L 163.4 69.5 L 161.4 69.5 C 161.4 69.5 161.44 73.95 161.4 73.9 C 161.4 75 161.7 75.6 162.4 75.6 C 162.8 75.6 163.4 75.3 163.9 74.8 C 163.9 74.8 164.2 75.2 164.2 75.2 C 163.6 75.9 162.7 76.4 161.9 76.4 C 160.7 76.4 159.9 75.7 159.9 73.9 C 159.88 73.95 159.9 69.5 159.9 69.5 L 158.7 69.5 Z M 170.8 76.1 C 170.8 76.1 170.83 75.6 170.8 75.6 C 172.2 75.6 172.4 75.3 172.4 73 C 172.4 73 172.4 71.7 172.4 71.7 C 172.4 70.3 171.9 69.4 170.7 69.4 C 169.6 69.4 168.3 70.3 168.3 71.6 C 168.3 71.6 168.3 73 168.3 73 C 168.3 75.3 168.5 75.6 169.7 75.6 C 169.73 75.6 169.7 76.1 169.7 76.1 L 165 76.1 C 165 76.1 165.05 75.6 165 75.6 C 166.5 75.6 166.8 75.2 166.8 73 C 166.8 73 166.8 66.1 166.8 66.1 C 166.8 63.9 166.5 63.5 165 63.5 C 165.05 63.5 165 63 165 63 L 168.3 62.5 C 168.3 62.5 168.35 69.94 168.3 69.9 C 169 69.2 170 68.4 171.2 68.4 C 173.3 68.4 173.9 69.8 173.9 71.6 C 173.9 71.6 173.9 73 173.9 73 C 173.9 75.2 174.2 75.6 175.7 75.6 C 175.7 75.6 175.7 76.1 175.7 76.1 L 170.8 76.1 Z " stroke="none" fill="#fff"/>  </g>  <g id="Polygon46397">    <path d="M 0.6 39.5 C 0.6 39.5 0.62 38.98 0.6 39 C 1.9 38.7 2.4 37.7 2.6 36.3 C 2.57 36.31 3.3 36.3 3.3 36.3 L 3.3 38.7 L 5.2 38.7 L 5.2 39.5 L 3.3 39.5 C 3.3 39.5 3.32 43.95 3.3 43.9 C 3.3 45 3.6 45.6 4.3 45.6 C 4.7 45.6 5.2 45.3 5.7 44.8 C 5.7 44.8 6.1 45.2 6.1 45.2 C 5.5 45.9 4.5 46.4 3.8 46.4 C 2.6 46.4 1.8 45.7 1.8 43.9 C 1.76 43.95 1.8 39.5 1.8 39.5 L 0.6 39.5 Z M 12.7 46.1 C 12.7 46.1 12.71 45.6 12.7 45.6 C 14.1 45.6 14.3 45.3 14.3 43 C 14.3 43 14.3 41.7 14.3 41.7 C 14.3 40.3 13.7 39.4 12.6 39.4 C 11.5 39.4 10.2 40.3 10.2 41.6 C 10.2 41.6 10.2 43 10.2 43 C 10.2 45.3 10.4 45.6 11.6 45.6 C 11.61 45.6 11.6 46.1 11.6 46.1 L 6.9 46.1 C 6.9 46.1 6.93 45.6 6.9 45.6 C 8.4 45.6 8.7 45.2 8.7 43 C 8.7 43 8.7 36.1 8.7 36.1 C 8.7 33.9 8.4 33.5 6.9 33.5 C 6.93 33.5 6.9 33 6.9 33 L 10.2 32.5 C 10.2 32.5 10.23 39.94 10.2 39.9 C 10.8 39.2 11.8 38.4 13.1 38.4 C 15.1 38.4 15.8 39.8 15.8 41.6 C 15.8 41.6 15.8 43 15.8 43 C 15.8 45.2 16.1 45.6 17.6 45.6 C 17.57 45.6 17.6 46.1 17.6 46.1 L 12.7 46.1 Z M 23.7 41 C 24 40.3 23.6 39.2 22.2 39.2 C 21.2 39.2 20.4 39.9 20.1 41 C 20.1 41 23.7 41 23.7 41 Z M 22.8 45.5 C 23.5 45.5 24.6 45.1 25.2 44.5 C 25.2 44.5 25.6 45 25.6 45 C 24.9 45.8 23.5 46.4 22.3 46.4 C 19.9 46.4 18.2 44.6 18.2 42.4 C 18.2 40.1 20.2 38.4 22.3 38.4 C 24.2 38.4 25.8 39.9 25.3 41.8 C 25.3 41.8 20 41.8 20 41.8 C 19.7 43.9 20.6 45.5 22.8 45.5 Z M 34 43 C 34 45.2 34.3 45.6 36.1 45.6 C 36.09 45.6 36.1 46.1 36.1 46.1 L 31.1 46.1 C 31.1 46.1 31.07 45.6 31.1 45.6 C 32.9 45.6 33.2 45.2 33.2 43 C 33.2 43 33.2 35.9 33.2 35.9 C 33.2 33.7 32.9 33.3 31.1 33.3 C 31.07 33.32 31.1 32.9 31.1 32.9 L 34.8 32.9 L 39.5 43.6 L 44.1 32.9 L 47.6 32.9 C 47.6 32.9 47.57 33.32 47.6 33.3 C 45.7 33.3 45.5 33.7 45.5 35.9 C 45.5 35.9 45.5 43 45.5 43 C 45.5 45.2 45.7 45.6 47.6 45.6 C 47.57 45.6 47.6 46.1 47.6 46.1 L 41.6 46.1 C 41.6 46.1 41.63 45.6 41.6 45.6 C 43.5 45.6 43.7 45.2 43.7 43 C 43.72 43.02 43.7 35.9 43.7 35.9 L 39.1 46.4 L 38.9 46.4 L 34 35.2 C 34 35.2 33.98 43.02 34 43 Z M 49.2 46.1 C 49.2 46.1 49.22 45.6 49.2 45.6 C 51 45.6 51.3 45.2 51.3 43 C 51.3 43 51.3 35.9 51.3 35.9 C 51.3 33.7 51 33.3 49.2 33.3 C 49.22 33.32 49.2 32.9 49.2 32.9 L 55.2 32.9 C 55.2 32.9 55.16 33.32 55.2 33.3 C 53.3 33.3 53.1 33.7 53.1 35.9 C 53.1 35.9 53.1 43 53.1 43 C 53.1 45.2 53.3 45.6 55.2 45.6 C 55.16 45.6 55.2 46.1 55.2 46.1 L 49.2 46.1 Z M 59.4 43.9 C 58.9 45.1 59.3 45.6 61.1 45.6 C 61.11 45.6 61.1 46.1 61.1 46.1 L 56 46.1 C 56 46.1 55.96 45.6 56 45.6 C 57.8 45.6 57.9 45.2 58.6 43.7 C 58.6 43.68 63.4 32.5 63.4 32.5 L 63.7 32.5 C 63.7 32.5 68.59 43.68 68.6 43.7 C 69.3 45.2 69.4 45.6 71.2 45.6 C 71.21 45.6 71.2 46.1 71.2 46.1 L 65.1 46.1 C 65.1 46.1 65.12 45.6 65.1 45.6 C 66.9 45.6 67.4 45.1 66.8 43.9 C 66.83 43.93 65.8 41.5 65.8 41.5 L 60.5 41.5 C 60.5 41.5 59.4 43.93 59.4 43.9 Z M 63.1 35.4 L 60.8 40.7 L 65.4 40.7 L 63.1 35.4 Z M 71 34.6 C 70.4 34.6 69.9 34.1 69.9 33.6 C 69.9 33 70.4 32.5 71 32.5 C 71.6 32.5 72.2 32.9 72.2 33.9 C 72.2 34.9 71.5 36.3 70.1 37.2 C 70.1 37.2 69.9 37 69.9 37 C 70.7 36.1 71 35.5 71.2 34.6 C 71.1 34.6 71 34.6 71 34.6 Z M 75.9 46.4 C 74.3 46.4 73.5 44.9 73.5 46.4 C 73.51 46.43 73.1 46.4 73.1 46.4 L 73.1 43.2 C 73.1 43.2 73.51 43.22 73.5 43.2 C 73.5 44.2 74.3 45.7 75.9 45.7 C 76.6 45.7 77.2 45.2 77.2 44.6 C 77.2 44 76.7 43.6 75.9 43.2 C 75.9 43.2 74.7 42.6 74.7 42.6 C 73.6 42 73.2 41.1 73.2 40.4 C 73.2 39.2 74.3 38.4 75.5 38.4 C 77.1 38.4 77.5 39.5 77.5 38.4 C 77.47 38.36 77.9 38.4 77.9 38.4 L 77.9 40.9 C 77.9 40.9 77.47 40.91 77.5 40.9 C 77.5 40 76.8 39.1 75.7 39.1 C 74.9 39.1 74.6 39.5 74.6 40 C 74.6 40.5 74.9 40.8 75.9 41.4 C 75.9 41.4 77 41.9 77 41.9 C 77.9 42.5 78.5 43.2 78.5 44 C 78.5 45.5 77.3 46.4 75.9 46.4 Z M 85.6 43.9 C 85.1 45.1 85.5 45.6 87.3 45.6 C 87.35 45.6 87.3 46.1 87.3 46.1 L 82.2 46.1 C 82.2 46.1 82.2 45.6 82.2 45.6 C 84 45.6 84.2 45.2 84.8 43.7 C 84.84 43.68 89.7 32.5 89.7 32.5 L 90 32.5 C 90 32.5 94.83 43.68 94.8 43.7 C 95.5 45.2 95.6 45.6 97.4 45.6 C 97.45 45.6 97.4 46.1 97.4 46.1 L 91.4 46.1 C 91.4 46.1 91.35 45.6 91.4 45.6 C 93.2 45.6 93.6 45.1 93.1 43.9 C 93.07 43.93 92 41.5 92 41.5 L 86.7 41.5 C 86.7 41.5 85.63 43.93 85.6 43.9 Z M 89.3 35.4 L 87 40.7 L 91.6 40.7 L 89.3 35.4 Z M 101.4 43 C 101.4 45.2 101.7 45.6 103.1 45.6 C 103.13 45.6 103.1 46.1 103.1 46.1 L 98.1 46.1 C 98.1 46.1 98.09 45.6 98.1 45.6 C 99.5 45.6 99.8 45.2 99.8 43 C 99.83 43.02 99.8 39.5 99.8 39.5 L 98 39.5 L 98 38.7 L 99.8 38.7 C 99.8 38.7 99.83 36.62 99.8 36.6 C 99.8 33.6 101.6 32.5 103.4 32.5 C 104.9 32.5 105.6 33.4 105.6 34.1 C 105.6 34.6 105.4 34.9 104.9 34.9 C 103.8 34.9 104.4 33.2 103 33.2 C 101.9 33.2 101.4 34.1 101.4 36.6 C 101.39 36.62 101.4 38.7 101.4 38.7 L 103.6 38.7 L 103.6 39.5 L 101.4 39.5 C 101.4 39.5 101.39 43.02 101.4 43 Z M 111.2 40.8 C 110.8 40.8 110.4 40.4 110.4 40 C 110.4 39.5 110.1 39.2 109.7 39.2 C 109.2 39.2 108 40.1 108 41.8 C 108 41.8 108 43 108 43 C 108 45.2 108.3 45.6 109.7 45.6 C 109.75 45.6 109.7 46.1 109.7 46.1 L 104.7 46.1 C 104.7 46.1 104.71 45.6 104.7 45.6 C 106.2 45.6 106.4 45.2 106.4 43 C 106.4 43 106.4 41.9 106.4 41.9 C 106.4 39.7 106.2 39.4 104.7 39.4 C 104.71 39.37 104.7 38.9 104.7 38.9 C 104.7 38.9 107.64 38.36 107.6 38.4 C 107.7 38.6 107.9 39.5 108 39.9 C 108.4 39.1 109.4 38.4 110.3 38.4 C 111.5 38.4 112.1 39.2 112.1 39.7 C 112.1 40.2 111.9 40.8 111.2 40.8 Z M 113.1 46.1 C 113.1 46.1 113.14 45.6 113.1 45.6 C 114.6 45.6 114.9 45.2 114.9 43 C 114.9 43 114.9 41.9 114.9 41.9 C 114.9 39.7 114.6 39.4 113.1 39.4 C 113.14 39.37 113.1 38.9 113.1 38.9 L 116.4 38.4 C 116.4 38.4 116.44 43.02 116.4 43 C 116.4 45.2 116.7 45.6 118.2 45.6 C 118.17 45.6 118.2 46.1 118.2 46.1 L 113.1 46.1 Z M 115.6 36.2 C 115.1 36.2 114.7 35.8 114.7 35.2 C 114.7 34.7 115.1 34.2 115.6 34.2 C 116.2 34.2 116.6 34.7 116.6 35.2 C 116.6 35.8 116.2 36.2 115.6 36.2 Z M 120.7 42.6 C 120.7 44.3 121.5 45.5 123.3 45.5 C 124 45.5 124.9 45.2 125.7 44.5 C 125.7 44.5 126 45 126 45 C 125.2 45.9 124 46.4 122.8 46.4 C 120.3 46.4 118.9 44.8 118.9 42.6 C 118.9 40 121 38.4 122.8 38.4 C 124.6 38.4 125.4 39.1 125.4 39.9 C 125.4 40.3 125.2 40.9 124.4 40.9 C 123.9 40.9 123.6 40.5 123.6 40 C 123.6 39.3 123.2 39.1 122.8 39.1 C 121.6 39.1 120.7 40.6 120.7 42.6 Z M 133.3 46.3 C 132.5 46.3 131.9 45.8 131.8 45 C 130.8 46 130 46.3 129.1 46.3 C 128 46.3 127.1 45.7 127.1 44.5 C 127.1 42.6 129.3 41.8 131.8 41.4 C 131.8 39.7 131.6 39.1 130.3 39.1 C 129.8 39.1 129.1 39.4 129.1 40.1 C 129.1 40.6 128.7 40.9 128.3 40.9 C 127.9 40.9 127.5 40.6 127.5 40.1 C 127.5 39.1 128.9 38.4 130.3 38.4 C 132.5 38.4 133.4 39.3 133.4 41.4 C 133.4 41.4 133.4 44.7 133.4 44.7 C 133.4 45.2 133.5 45.5 133.9 45.5 C 134.1 45.5 134.3 45.4 134.5 45.2 C 134.5 45.2 134.8 45.6 134.8 45.6 C 134.4 46.1 133.8 46.3 133.3 46.3 Z M 131.8 42.1 C 129.7 42.5 128.8 43.3 128.8 44.2 C 128.8 44.9 129.2 45.4 129.8 45.4 C 130.2 45.4 130.8 45.2 131.8 44.3 C 131.8 44.3 131.8 42.1 131.8 42.1 Z M 142.2 38.4 C 144.1 38.4 145 39.8 145 41.6 C 145 41.6 145 43 145 43 C 145 45.2 145.3 45.6 146.8 45.6 C 146.76 45.6 146.8 46.1 146.8 46.1 L 141.7 46.1 C 141.7 46.1 141.72 45.6 141.7 45.6 C 143.2 45.6 143.5 45.2 143.5 43 C 143.5 43 143.5 41.7 143.5 41.7 C 143.5 40.3 143 39.4 141.6 39.4 C 140.4 39.4 139.1 40.4 139.1 41.6 C 139.1 41.6 139.1 43 139.1 43 C 139.1 45.3 139.3 45.6 140.6 45.6 C 140.65 45.6 140.6 46.1 140.6 46.1 L 135.8 46.1 C 135.8 46.1 135.81 45.6 135.8 45.6 C 137.3 45.6 137.5 45.2 137.5 43 C 137.5 43 137.5 41.9 137.5 41.9 C 137.5 39.7 137.3 39.4 135.8 39.4 C 135.81 39.37 135.8 38.9 135.8 38.9 C 135.8 38.9 138.73 38.36 138.7 38.4 C 138.8 38.6 139 39.5 139.1 39.9 C 139.7 39.2 140.7 38.4 142.2 38.4 Z " stroke="none" fill="#fff"/>  </g>  <g id="Polygon46396">    <path d="M 2.6 13.9 C 2.1 15.1 2.5 15.6 4.3 15.6 C 4.31 15.6 4.3 16.1 4.3 16.1 L -0.8 16.1 C -0.8 16.1 -0.84 15.6 -0.8 15.6 C 1 15.6 1.1 15.2 1.8 13.7 C 1.8 13.68 6.6 2.5 6.6 2.5 L 6.9 2.5 C 6.9 2.5 11.79 13.68 11.8 13.7 C 12.5 15.2 12.6 15.6 14.4 15.6 C 14.41 15.6 14.4 16.1 14.4 16.1 L 8.3 16.1 C 8.3 16.1 8.32 15.6 8.3 15.6 C 10.1 15.6 10.6 15.1 10 13.9 C 10.03 13.93 9 11.5 9 11.5 L 3.7 11.5 C 3.7 11.5 2.6 13.93 2.6 13.9 Z M 6.3 5.4 L 4 10.7 L 8.6 10.7 L 6.3 5.4 Z M 24.7 10.8 C 24.3 10.8 23.9 10.4 23.9 10 C 23.9 9.5 23.6 9.2 23.2 9.2 C 22.7 9.2 21.5 10.1 21.5 11.8 C 21.5 11.8 21.5 13 21.5 13 C 21.5 15.2 21.8 15.6 23.3 15.6 C 23.25 15.6 23.3 16.1 23.3 16.1 L 18.2 16.1 C 18.2 16.1 18.22 15.6 18.2 15.6 C 19.7 15.6 20 15.2 20 13 C 20 13 20 11.9 20 11.9 C 20 9.7 19.7 9.4 18.2 9.4 C 18.22 9.37 18.2 8.9 18.2 8.9 C 18.2 8.9 21.14 8.36 21.1 8.4 C 21.3 8.6 21.4 9.5 21.5 9.9 C 22 9.1 22.9 8.4 23.8 8.4 C 25 8.4 25.6 9.2 25.6 9.7 C 25.6 10.2 25.4 10.8 24.7 10.8 Z M 32 11 C 32.3 10.3 31.9 9.2 30.5 9.2 C 29.5 9.2 28.7 9.9 28.4 11 C 28.4 11 32 11 32 11 Z M 31.1 15.5 C 31.9 15.5 32.9 15.1 33.5 14.5 C 33.5 14.5 33.9 15 33.9 15 C 33.2 15.8 31.8 16.4 30.6 16.4 C 28.2 16.4 26.5 14.6 26.5 12.4 C 26.5 10.1 28.5 8.4 30.6 8.4 C 32.5 8.4 34.1 9.9 33.6 11.8 C 33.6 11.8 28.3 11.8 28.3 11.8 C 28 13.9 28.9 15.5 31.1 15.5 Z M 36.9 12.6 C 36.9 14.3 37.8 15.5 39.6 15.5 C 40.3 15.5 41.2 15.2 41.9 14.5 C 41.9 14.5 42.3 15 42.3 15 C 41.5 15.9 40.3 16.4 39 16.4 C 36.6 16.4 35.1 14.8 35.1 12.6 C 35.1 10 37.3 8.4 39 8.4 C 40.8 8.4 41.6 9.1 41.6 9.9 C 41.6 10.3 41.4 10.9 40.7 10.9 C 40.2 10.9 39.8 10.5 39.8 10 C 39.8 9.3 39.4 9.1 39 9.1 C 37.9 9.1 36.9 10.6 36.9 12.6 Z M 48.7 11 C 49 10.3 48.6 9.2 47.1 9.2 C 46.2 9.2 45.4 9.9 45.1 11 C 45.1 11 48.7 11 48.7 11 Z M 47.8 15.5 C 48.5 15.5 49.6 15.1 50.2 14.5 C 50.2 14.5 50.6 15 50.6 15 C 49.8 15.8 48.5 16.4 47.2 16.4 C 44.8 16.4 43.2 14.6 43.2 12.4 C 43.2 10.1 45.2 8.4 47.2 8.4 C 49.2 8.4 50.8 9.9 50.2 11.8 C 50.2 11.8 44.9 11.8 44.9 11.8 C 44.7 13.9 45.5 15.5 47.8 15.5 Z M 58.1 8.4 C 60.1 8.4 61 9.8 61 11.6 C 61 11.6 61 13 61 13 C 61 15.2 61.2 15.6 62.7 15.6 C 62.7 15.6 62.7 16.1 62.7 16.1 L 57.7 16.1 C 57.7 16.1 57.67 15.6 57.7 15.6 C 59.1 15.6 59.4 15.2 59.4 13 C 59.4 13 59.4 11.7 59.4 11.7 C 59.4 10.3 58.9 9.4 57.6 9.4 C 56.4 9.4 55 10.4 55 11.6 C 55 11.6 55 13 55 13 C 55 15.3 55.2 15.6 56.6 15.6 C 56.59 15.6 56.6 16.1 56.6 16.1 L 51.7 16.1 C 51.7 16.1 51.75 15.6 51.7 15.6 C 53.2 15.6 53.5 15.2 53.5 13 C 53.5 13 53.5 11.9 53.5 11.9 C 53.5 9.7 53.2 9.4 51.7 9.4 C 51.75 9.37 51.7 8.9 51.7 8.9 C 51.7 8.9 54.67 8.36 54.7 8.4 C 54.8 8.6 55 9.5 55 9.9 C 55.6 9.2 56.7 8.4 58.1 8.4 Z M 63 9.5 C 63 9.5 62.98 8.98 63 9 C 64.3 8.7 64.8 7.7 64.9 6.3 C 64.94 6.31 65.7 6.3 65.7 6.3 L 65.7 8.7 L 67.6 8.7 L 67.6 9.5 L 65.7 9.5 C 65.7 9.5 65.69 13.95 65.7 13.9 C 65.7 15 66 15.6 66.7 15.6 C 67.1 15.6 67.6 15.3 68.1 14.8 C 68.1 14.8 68.5 15.2 68.5 15.2 C 67.9 15.9 66.9 16.4 66.2 16.4 C 65 16.4 64.1 15.7 64.1 13.9 C 64.13 13.95 64.1 9.5 64.1 9.5 L 63 9.5 Z M 79.7 16.3 C 78.9 16.3 78.3 15.8 78.2 15 C 77.2 16 76.4 16.3 75.5 16.3 C 74.4 16.3 73.5 15.7 73.5 14.5 C 73.5 12.6 75.7 11.8 78.2 11.4 C 78.2 9.7 78 9.1 76.7 9.1 C 76.2 9.1 75.5 9.4 75.5 10.1 C 75.5 10.6 75.1 10.9 74.7 10.9 C 74.3 10.9 73.9 10.6 73.9 10.1 C 73.9 9.1 75.3 8.4 76.7 8.4 C 78.9 8.4 79.7 9.3 79.7 11.4 C 79.7 11.4 79.7 14.7 79.7 14.7 C 79.7 15.2 79.9 15.5 80.3 15.5 C 80.5 15.5 80.7 15.4 80.9 15.2 C 80.9 15.2 81.2 15.6 81.2 15.6 C 80.8 16.1 80.2 16.3 79.7 16.3 Z M 78.2 12.1 C 76.1 12.5 75.1 13.3 75.1 14.2 C 75.1 14.9 75.6 15.4 76.2 15.4 C 76.6 15.4 77.2 15.2 78.2 14.3 C 78.2 14.3 78.2 12.1 78.2 12.1 Z M 83.7 12.6 C 83.7 14.3 84.5 15.5 86.3 15.5 C 87.1 15.5 88 15.2 88.7 14.5 C 88.7 14.5 89.1 15 89.1 15 C 88.2 15.9 87 16.4 85.8 16.4 C 83.3 16.4 81.9 14.8 81.9 12.6 C 81.9 10 84 8.4 85.8 8.4 C 87.6 8.4 88.4 9.1 88.4 9.9 C 88.4 10.3 88.2 10.9 87.4 10.9 C 86.9 10.9 86.6 10.5 86.6 10 C 86.6 9.3 86.2 9.1 85.8 9.1 C 84.6 9.1 83.7 10.6 83.7 12.6 Z M 91.8 12.6 C 91.8 14.3 92.6 15.5 94.4 15.5 C 95.2 15.5 96.1 15.2 96.8 14.5 C 96.8 14.5 97.2 15 97.2 15 C 96.3 15.9 95.1 16.4 93.9 16.4 C 91.4 16.4 90 14.8 90 12.6 C 90 10 92.1 8.4 93.9 8.4 C 95.7 8.4 96.5 9.1 96.5 9.9 C 96.5 10.3 96.3 10.9 95.5 10.9 C 95 10.9 94.7 10.5 94.7 10 C 94.7 9.3 94.3 9.1 93.9 9.1 C 92.7 9.1 91.8 10.6 91.8 12.6 Z M 103.6 11 C 103.8 10.3 103.4 9.2 102 9.2 C 101 9.2 100.2 9.9 99.9 11 C 99.9 11 103.6 11 103.6 11 Z M 102.6 15.5 C 103.4 15.5 104.4 15.1 105.1 14.5 C 105.1 14.5 105.5 15 105.5 15 C 104.7 15.8 103.4 16.4 102.1 16.4 C 99.7 16.4 98 14.6 98 12.4 C 98 10.1 100.1 8.4 102.1 8.4 C 104.1 8.4 105.6 9.9 105.1 11.8 C 105.1 11.8 99.8 11.8 99.8 11.8 C 99.5 13.9 100.4 15.5 102.6 15.5 Z M 109.6 16.4 C 108 16.4 107.2 14.9 107.2 16.4 C 107.2 16.43 106.8 16.4 106.8 16.4 L 106.8 13.2 C 106.8 13.2 107.2 13.22 107.2 13.2 C 107.2 14.2 108 15.7 109.6 15.7 C 110.3 15.7 110.9 15.2 110.9 14.6 C 110.9 14 110.4 13.6 109.6 13.2 C 109.6 13.2 108.4 12.6 108.4 12.6 C 107.3 12 106.9 11.1 106.9 10.4 C 106.9 9.2 108 8.4 109.2 8.4 C 110.8 8.4 111.2 9.5 111.2 8.4 C 111.16 8.36 111.6 8.4 111.6 8.4 L 111.6 10.9 C 111.6 10.9 111.16 10.91 111.2 10.9 C 111.2 10 110.5 9.1 109.4 9.1 C 108.6 9.1 108.3 9.5 108.3 10 C 108.3 10.5 108.6 10.8 109.6 11.4 C 109.6 11.4 110.7 11.9 110.7 11.9 C 111.6 12.5 112.2 13.2 112.2 14 C 112.2 15.5 111 16.4 109.6 16.4 Z M 116.4 16.4 C 114.8 16.4 114 14.9 114 16.4 C 114.01 16.43 113.6 16.4 113.6 16.4 L 113.6 13.2 C 113.6 13.2 114.01 13.22 114 13.2 C 114 14.2 114.8 15.7 116.4 15.7 C 117.1 15.7 117.7 15.2 117.7 14.6 C 117.7 14 117.2 13.6 116.4 13.2 C 116.4 13.2 115.2 12.6 115.2 12.6 C 114.1 12 113.7 11.1 113.7 10.4 C 113.7 9.2 114.8 8.4 116 8.4 C 117.6 8.4 118 9.5 118 8.4 C 117.97 8.36 118.4 8.4 118.4 8.4 L 118.4 10.9 C 118.4 10.9 117.97 10.91 118 10.9 C 118 10 117.3 9.1 116.2 9.1 C 115.4 9.1 115.1 9.5 115.1 10 C 115.1 10.5 115.4 10.8 116.4 11.4 C 116.4 11.4 117.5 11.9 117.5 11.9 C 118.4 12.5 119 13.2 119 14 C 119 15.5 117.8 16.4 116.4 16.4 Z M 120 16.1 C 120 16.1 120.05 15.6 120 15.6 C 121.5 15.6 121.8 15.2 121.8 13 C 121.8 13 121.8 11.9 121.8 11.9 C 121.8 9.7 121.5 9.4 120 9.4 C 120.05 9.37 120 8.9 120 8.9 L 123.3 8.4 C 123.3 8.4 123.35 13.02 123.3 13 C 123.3 15.2 123.6 15.6 125.1 15.6 C 125.09 15.6 125.1 16.1 125.1 16.1 L 120 16.1 Z M 122.6 6.2 C 122 6.2 121.6 5.8 121.6 5.2 C 121.6 4.7 122 4.2 122.6 4.2 C 123.1 4.2 123.5 4.7 123.5 5.2 C 123.5 5.8 123.1 6.2 122.6 6.2 Z M 130.1 16.4 C 127.7 16.4 125.7 14.6 125.7 12.4 C 125.7 10.2 127.7 8.4 130.1 8.4 C 132.6 8.4 134.6 10.2 134.6 12.4 C 134.6 14.6 132.6 16.4 130.1 16.4 Z M 130.1 9.2 C 128.3 9.2 127.5 10.6 127.5 12.4 C 127.5 14.1 128.3 15.6 130.1 15.6 C 131.9 15.6 132.8 14.1 132.8 12.4 C 132.8 10.6 131.9 9.2 130.1 9.2 Z M 141.9 8.4 C 143.9 8.4 144.8 9.8 144.8 11.6 C 144.8 11.6 144.8 13 144.8 13 C 144.8 15.2 145 15.6 146.5 15.6 C 146.52 15.6 146.5 16.1 146.5 16.1 L 141.5 16.1 C 141.5 16.1 141.48 15.6 141.5 15.6 C 142.9 15.6 143.2 15.2 143.2 13 C 143.2 13 143.2 11.7 143.2 11.7 C 143.2 10.3 142.7 9.4 141.4 9.4 C 140.2 9.4 138.9 10.4 138.9 11.6 C 138.9 11.6 138.9 13 138.9 13 C 138.9 15.3 139 15.6 140.4 15.6 C 140.4 15.6 140.4 16.1 140.4 16.1 L 135.6 16.1 C 135.6 16.1 135.56 15.6 135.6 15.6 C 137 15.6 137.3 15.2 137.3 13 C 137.3 13 137.3 11.9 137.3 11.9 C 137.3 9.7 137 9.4 135.6 9.4 C 135.56 9.37 135.6 8.9 135.6 8.9 C 135.6 8.9 138.49 8.36 138.5 8.4 C 138.6 8.6 138.8 9.5 138.9 9.9 C 139.5 9.2 140.5 8.4 141.9 8.4 Z M 151.4 9.5 C 151.4 9.5 151.36 8.98 151.4 9 C 152.7 8.7 153.2 7.7 153.3 6.3 C 153.32 6.31 154.1 6.3 154.1 6.3 L 154.1 8.7 L 156 8.7 L 156 9.5 L 154.1 9.5 C 154.1 9.5 154.07 13.95 154.1 13.9 C 154.1 15 154.4 15.6 155.1 15.6 C 155.5 15.6 156 15.3 156.5 14.8 C 156.5 14.8 156.9 15.2 156.9 15.2 C 156.2 15.9 155.3 16.4 154.5 16.4 C 153.3 16.4 152.5 15.7 152.5 13.9 C 152.5 13.95 152.5 9.5 152.5 9.5 L 151.4 9.5 Z M 162 16.4 C 159.6 16.4 157.6 14.6 157.6 12.4 C 157.6 10.2 159.6 8.4 162 8.4 C 164.5 8.4 166.5 10.2 166.5 12.4 C 166.5 14.6 164.5 16.4 162 16.4 Z M 162 9.2 C 160.2 9.2 159.3 10.6 159.3 12.4 C 159.3 14.1 160.2 15.6 162 15.6 C 163.8 15.6 164.7 14.1 164.7 12.4 C 164.7 10.6 163.8 9.2 162 9.2 Z " stroke="none" fill="#fff"/>  </g></svg>