<?xml version="1.0" standalone="no"?><!DOCTYPE svg PUBLIC "-//W3C//DTD SVG 1.1//EN" "http://www.w3.org/Graphics/SVG/1.1/DTD/svg11.dtd"><svg xmlns="http://www.w3.org/2000/svg" version="1.1" width="137px" height="35.4px" viewBox="0 0 137 35.4">  <desc>swipe finger to reveal boli interior</desc>  <defs/>  <g id="Polygon46522">    <path d="M 0.8 18.2 C 0.8 18.2 3.25 18.22 3.2 18.2 C 4.6 18.2 5.9 18.7 5.9 20.2 C 5.9 21.3 5.3 22 4.3 22.2 C 4.25 22.17 6.1 25.3 6.1 25.3 L 4.6 25.3 L 3 22.3 L 2 22.3 L 2 25.3 L 0.8 25.3 L 0.8 18.2 Z M 3 21.2 C 3.7 21.2 4.6 21.2 4.6 20.2 C 4.6 19.4 3.8 19.3 3.1 19.3 C 3.14 19.3 2 19.3 2 19.3 L 2 21.2 C 2 21.2 3.03 21.22 3 21.2 Z M 7.4 18.2 L 12.1 18.2 L 12.1 19.4 L 8.6 19.4 L 8.6 21.1 L 11.9 21.1 L 11.9 22.2 L 8.6 22.2 L 8.6 24.2 L 12.2 24.2 L 12.2 25.3 L 7.4 25.3 L 7.4 18.2 Z M 13 18.2 L 14.5 18.2 L 16.4 23.6 L 18.4 18.2 L 19.8 18.2 L 16.9 25.3 L 15.8 25.3 L 13 18.2 Z M 20.8 18.2 L 25.5 18.2 L 25.5 19.4 L 22.1 19.4 L 22.1 21.1 L 25.4 21.1 L 25.4 22.2 L 22.1 22.2 L 22.1 24.2 L 25.7 24.2 L 25.7 25.3 L 20.8 25.3 L 20.8 18.2 Z M 29.7 18.2 L 30.8 18.2 L 33.8 25.3 L 32.4 25.3 L 31.7 23.7 L 28.7 23.7 L 28 25.3 L 26.6 25.3 L 29.7 18.2 Z M 31.3 22.6 L 30.2 19.7 L 29.1 22.6 L 31.3 22.6 Z M 34.9 18.2 L 36.2 18.2 L 36.2 24.2 L 39.2 24.2 L 39.2 25.3 L 34.9 25.3 L 34.9 18.2 Z M 44.5 18.2 C 44.5 18.2 47.23 18.22 47.2 18.2 C 48.3 18.2 49.3 18.7 49.1 20 C 49 20.8 48.5 21.3 47.7 21.6 C 47.7 21.6 47.7 21.6 47.7 21.6 C 48.6 21.7 49.1 22.4 49 23.3 C 48.8 24.8 47.4 25.3 46 25.3 C 46.02 25.3 43.5 25.3 43.5 25.3 L 44.5 18.2 Z M 45.3 21.1 C 45.3 21.1 46.47 21.1 46.5 21.1 C 47.3 21.1 47.8 20.7 47.9 20.2 C 47.9 19.6 47.6 19.3 46.6 19.3 C 46.62 19.3 45.6 19.3 45.6 19.3 L 45.3 21.1 Z M 44.9 24.2 C 44.9 24.2 46.05 24.22 46 24.2 C 46.7 24.2 47.6 24.1 47.7 23.2 C 47.8 22.4 47.4 22.2 46.4 22.2 C 46.38 22.18 45.2 22.2 45.2 22.2 L 44.9 24.2 Z M 54.6 18 C 56.8 18 58.1 19.5 57.8 21.7 C 57.5 24 55.7 25.4 53.5 25.5 C 51.4 25.5 50 24 50.3 21.8 C 50.6 19.5 52.4 18 54.6 18 Z M 53.7 24.3 C 55.2 24.3 56.3 23.2 56.5 21.7 C 56.7 20.3 55.9 19.2 54.4 19.2 C 53 19.2 51.8 20.3 51.6 21.7 C 51.4 23.2 52.2 24.3 53.7 24.3 Z M 59.8 18.2 L 61.1 18.2 L 60.3 24.2 L 63.3 24.2 L 63.1 25.3 L 58.8 25.3 L 59.8 18.2 Z M 64.9 18.2 L 66.2 18.2 L 65.2 25.3 L 63.9 25.3 L 64.9 18.2 Z M 70.1 18.2 L 71.3 18.2 L 71.3 25.3 L 70.1 25.3 L 70.1 18.2 Z M 73.1 18.2 L 74.8 18.2 L 78.2 23.5 L 78.3 23.5 L 78.2 23.5 L 78.3 23.5 L 78.3 18.2 L 79.5 18.2 L 79.5 25.3 L 77.9 25.3 L 74.4 19.9 L 74.4 19.9 L 74.4 25.3 L 73.1 25.3 L 73.1 18.2 Z M 82.8 19.4 L 80.6 19.4 L 80.6 18.2 L 86.2 18.2 L 86.2 19.4 L 84.1 19.4 L 84.1 25.3 L 82.8 25.3 L 82.8 19.4 Z M 87.4 18.2 L 92.1 18.2 L 92.1 19.4 L 88.6 19.4 L 88.6 21.1 L 91.9 21.1 L 91.9 22.2 L 88.6 22.2 L 88.6 24.2 L 92.2 24.2 L 92.2 25.3 L 87.4 25.3 L 87.4 18.2 Z M 93.7 18.2 C 93.7 18.2 96.2 18.22 96.2 18.2 C 97.6 18.2 98.8 18.7 98.8 20.2 C 98.8 21.3 98.3 22 97.2 22.2 C 97.2 22.17 99.1 25.3 99.1 25.3 L 97.6 25.3 L 95.9 22.3 L 95 22.3 L 95 25.3 L 93.7 25.3 L 93.7 18.2 Z M 96 21.2 C 96.7 21.2 97.5 21.2 97.5 20.2 C 97.5 19.4 96.7 19.3 96.1 19.3 C 96.09 19.3 95 19.3 95 19.3 L 95 21.2 C 95 21.2 95.98 21.22 96 21.2 Z M 100.3 18.2 L 101.6 18.2 L 101.6 25.3 L 100.3 25.3 L 100.3 18.2 Z M 106.7 18 C 109 18 110.5 19.5 110.5 21.7 C 110.5 24 109 25.4 106.7 25.5 C 104.6 25.5 103 24 103 21.8 C 103 19.5 104.6 18 106.7 18 Z M 106.8 24.3 C 108.2 24.3 109.2 23.2 109.2 21.7 C 109.2 20.3 108.2 19.2 106.8 19.2 C 105.3 19.2 104.3 20.3 104.3 21.7 C 104.3 23.2 105.3 24.3 106.8 24.3 Z M 112 18.2 C 112 18.2 114.45 18.22 114.4 18.2 C 115.8 18.2 117.1 18.7 117.1 20.2 C 117.1 21.3 116.5 22 115.4 22.2 C 115.45 22.17 117.3 25.3 117.3 25.3 L 115.8 25.3 L 114.2 22.3 L 113.2 22.3 L 113.2 25.3 L 112 25.3 L 112 18.2 Z M 114.2 21.2 C 114.9 21.2 115.8 21.2 115.8 20.2 C 115.8 19.4 115 19.3 114.3 19.3 C 114.34 19.3 113.2 19.3 113.2 19.3 L 113.2 21.2 C 113.2 21.2 114.23 21.22 114.2 21.2 Z " stroke="none" fill="#fff"/>  </g>  <g id="Polygon46521">    <path d="M 4.3 7.7 C 4 7.4 3.5 7.2 3 7.2 C 2.4 7.2 1.9 7.4 1.9 8.1 C 1.9 9.5 5.2 8.7 5.2 11.2 C 5.2 12.7 4 13.5 2.6 13.5 C 1.7 13.5 0.9 13.2 0.3 12.5 C 0.3 12.5 1.3 11.6 1.3 11.6 C 1.6 12.1 2.1 12.3 2.7 12.3 C 3.2 12.3 3.9 12 3.9 11.4 C 3.9 9.8 0.5 10.7 0.5 8.2 C 0.5 6.7 1.8 6 3.2 6 C 3.9 6 4.6 6.3 5.2 6.8 C 5.2 6.8 4.3 7.7 4.3 7.7 Z M 6.1 6.2 L 7.5 6.2 L 8.8 11.3 L 8.8 11.3 L 10.4 6.2 L 11.6 6.2 L 13.2 11.3 L 13.2 11.3 L 14.6 6.2 L 15.9 6.2 L 13.8 13.3 L 12.6 13.3 L 11 7.9 L 11 7.9 L 9.3 13.3 L 8.2 13.3 L 6.1 6.2 Z M 17 6.2 L 18.2 6.2 L 18.2 13.3 L 17 13.3 L 17 6.2 Z M 20 6.2 C 20 6.2 22.42 6.22 22.4 6.2 C 23.8 6.2 25 6.7 25 8.3 C 25 10 23.7 10.4 22.2 10.4 C 22.2 10.37 21.3 10.4 21.3 10.4 L 21.3 13.3 L 20 13.3 L 20 6.2 Z M 22.1 9.3 C 22.8 9.3 23.7 9.3 23.7 8.3 C 23.7 7.4 22.9 7.3 22.2 7.3 C 22.2 7.3 21.3 7.3 21.3 7.3 L 21.3 9.3 C 21.3 9.3 22.06 9.29 22.1 9.3 Z M 26.3 6.2 L 31 6.2 L 31 7.4 L 27.5 7.4 L 27.5 9.1 L 30.8 9.1 L 30.8 10.2 L 27.5 10.2 L 27.5 12.2 L 31.2 12.2 L 31.2 13.3 L 26.3 13.3 L 26.3 6.2 Z M 35.8 6.2 L 40.3 6.2 L 40.3 7.4 L 37 7.4 L 37 9.2 L 40.1 9.2 L 40.1 10.4 L 37 10.4 L 37 13.3 L 35.8 13.3 L 35.8 6.2 Z M 41.7 6.2 L 42.9 6.2 L 42.9 13.3 L 41.7 13.3 L 41.7 6.2 Z M 44.7 6.2 L 46.4 6.2 L 49.8 11.5 L 49.8 11.5 L 49.8 11.5 L 49.8 11.5 L 49.8 6.2 L 51.1 6.2 L 51.1 13.3 L 49.5 13.3 L 46 7.9 L 46 7.9 L 46 13.3 L 44.7 13.3 L 44.7 6.2 Z M 59.2 12.8 C 58.4 13.2 57.4 13.5 56.3 13.5 C 54.1 13.5 52.6 12 52.6 9.8 C 52.6 7.5 54.1 6 56.3 6 C 57.4 6 58.4 6.3 59.1 6.9 C 59.1 6.9 58.2 7.9 58.2 7.9 C 57.7 7.4 57 7.2 56.3 7.2 C 54.9 7.2 53.9 8.3 53.9 9.7 C 53.9 11.2 54.9 12.3 56.3 12.3 C 57 12.3 57.5 12.2 58 12 C 57.99 11.97 58 10.3 58 10.3 L 56.5 10.3 L 56.5 9.2 L 59.2 9.2 C 59.2 9.2 59.25 12.78 59.2 12.8 Z M 61 6.2 L 65.7 6.2 L 65.7 7.4 L 62.3 7.4 L 62.3 9.1 L 65.5 9.1 L 65.5 10.2 L 62.3 10.2 L 62.3 12.2 L 65.9 12.2 L 65.9 13.3 L 61 13.3 L 61 6.2 Z M 67.4 6.2 C 67.4 6.2 69.84 6.22 69.8 6.2 C 71.2 6.2 72.5 6.7 72.5 8.2 C 72.5 9.3 71.9 10 70.8 10.2 C 70.84 10.17 72.7 13.3 72.7 13.3 L 71.2 13.3 L 69.6 10.3 L 68.6 10.3 L 68.6 13.3 L 67.4 13.3 L 67.4 6.2 Z M 69.6 9.2 C 70.3 9.2 71.2 9.2 71.2 8.2 C 71.2 7.4 70.4 7.3 69.7 7.3 C 69.73 7.3 68.6 7.3 68.6 7.3 L 68.6 9.2 C 68.6 9.2 69.62 9.22 69.6 9.2 Z M 78.5 7.4 L 76.3 7.4 L 76.3 6.2 L 81.9 6.2 L 81.9 7.4 L 79.7 7.4 L 79.7 13.3 L 78.5 13.3 L 78.5 7.4 Z M 86.3 6 C 88.5 6 90 7.5 90 9.7 C 90 12 88.5 13.4 86.3 13.5 C 84.1 13.5 82.5 12 82.5 9.8 C 82.5 7.5 84.1 6 86.3 6 Z M 86.3 12.3 C 87.7 12.3 88.7 11.2 88.7 9.7 C 88.7 8.3 87.7 7.2 86.3 7.2 C 84.8 7.2 83.8 8.3 83.8 9.7 C 83.8 11.2 84.8 12.3 86.3 12.3 Z " stroke="none" fill="#fff"/>  </g></svg>