<svg xmlns="http://www.w3.org/2000/svg" version="1.1" width="333px" height="416.3px" viewBox="0 0 333 416.3"><desc>Sacred associations The Bamana constitute one of the larger ethnic groups that live in the West African country</desc><defs/><g id="Polygon46793"><path d="m1.2 389.4l1.1 0l0 1.4c0 0 .02.02 0 0c.7-1.1 2.1-1.7 3.4-1.7c2.5 0 4.3 1.9 4.3 4.4c0 2.6-1.8 4.4-4.3 4.4c-1.3 0-2.7-.5-3.4-1.7c.02.02 0 0 0 0l0 5.6l-1.1 0l0-12.4zm4.5 7.5c2 0 3.2-1.5 3.2-3.4c0-1.9-1.2-3.4-3.2-3.4c-2 0-3.5 1.5-3.5 3.4c0 1.9 1.5 3.4 3.5 3.4zm10.6-7.8c2.6 0 4.4 1.9 4.4 4.4c0 2.6-1.8 4.4-4.4 4.4c-2.6 0-4.4-1.8-4.4-4.4c0-2.5 1.8-4.4 4.4-4.4zm0 7.8c2 0 3.3-1.5 3.3-3.4c0-1.9-1.3-3.4-3.3-3.4c-2 0-3.3 1.5-3.3 3.4c0 1.9 1.3 3.4 3.3 3.4zm6.7-5.2c0-.6-.1-1.9-.1-2.3c0 0 1.1 0 1.1 0c0 .6 0 1.3.1 1.4c.5-1 1.4-1.7 2.6-1.7c.2 0 .4.1.6.1c0 0-.1 1.1-.1 1.1c-.1-.1-.3-.1-.4-.1c-1.9 0-2.7 1.3-2.7 2.9c-.01.04 0 4.6 0 4.6l-1.1 0c0 0 .01-6 0-6zm10.8-1.4l-2.4 0c0 0-.01 5.45 0 5.5c0 .7.4 1.1 1.1 1.1c.5 0 .9-.1 1.3-.3c0 0 .1 1 .1 1c-.4.2-1 .3-1.4.3c-1.6 0-2.2-1-2.2-2.1c.01-.05 0-5.5 0-5.5l-1.8 0l0-.9l1.8 0l0-2.4l1.1 0l0 2.4l2.4 0l0 .9zm8.4 3.9c0 1.6 0 2.5.2 3.5c0 0-1 0-1 0c-.1-.4-.1-.9-.1-1.4c0 0-.1 0-.1 0c-.6 1.1-1.5 1.6-2.9 1.6c-1.4 0-2.9-.7-2.9-2.5c0-2.5 2.9-2.8 4.6-2.8c-.03.04 1.2 0 1.2 0c0 0 .03-.46 0-.5c0-1.4-1-2-2.3-2c-1 0-1.8.3-2.5 1c0 0-.7-.8-.7-.8c.8-.7 2.1-1.2 3.2-1.2c2 0 3.3.9 3.3 3.1c0 0 0 2 0 2zm-2.2-.7c-1.8 0-3.6.5-3.6 1.9c0 1 1 1.5 1.9 1.5c2.3 0 2.9-1.5 2.9-2.8c.03-.04 0-.6 0-.6c0 0-1.16 0-1.2 0zm4.9-9.4l1.1 0l0 6.7c0 0 0 .02 0 0c.7-1.1 2.1-1.7 3.3-1.7c2.6 0 4.4 1.9 4.4 4.4c0 2.6-1.8 4.4-4.4 4.4c-1.2 0-2.6-.5-3.3-1.7c0 .02 0 0 0 0l0 1.5l-1.1 0l0-13.6zm4.4 12.8c2.1 0 3.3-1.5 3.3-3.4c0-1.9-1.2-3.4-3.3-3.4c-1.9 0-3.4 1.5-3.4 3.4c0 1.9 1.5 3.4 3.4 3.4zm6.9-12.8l1 0l0 13.6l-1 0l0-13.6zm11.3 12c-.8 1.3-2.1 1.8-3.6 1.8c-2.5 0-4.2-1.8-4.2-4.4c0-2.5 1.7-4.4 4.2-4.4c2.5 0 3.9 2 3.9 3.9c-.04.04 0 .8 0 .8c0 0-7.02-.01-7 0c0 .9.6 3.1 3.1 3.1c1.1 0 2.3-.6 2.8-1.5c0 0 .8.7.8.7zm-.8-3.3c0-1.5-1.3-2.7-2.9-2.7c-2.4 0-3 2.3-3 2.7c0 0 5.9 0 5.9 0zm14.6 1.4c0 1.6.1 2.5.2 3.5c0 0-1 0-1 0c-.1-.4-.1-.9-.1-1.4c0 0-.1 0-.1 0c-.6 1.1-1.5 1.6-2.9 1.6c-1.4 0-2.9-.7-2.9-2.5c0-2.5 2.9-2.8 4.6-2.8c-.02.04 1.2 0 1.2 0c0 0 .04-.46 0-.5c0-1.4-1-2-2.3-2c-1 0-1.8.3-2.5 1c0 0-.7-.8-.7-.8c.8-.7 2.1-1.2 3.2-1.2c2 0 3.3.9 3.3 3.1c0 0 0 2 0 2zm-2.1-.7c-1.8 0-3.6.5-3.6 1.9c0 1 .9 1.5 1.8 1.5c2.3 0 2.9-1.5 2.9-2.8c.04-.04 0-.6 0-.6c0 0-1.14 0-1.1 0zm5-9.4l1.1 0l0 13.6l-1.1 0l0-13.6zm8.2 6.2l-2.4 0c0 0 .02 5.45 0 5.5c0 .7.5 1.1 1.2 1.1c.4 0 .8-.1 1.2-.3c0 0 .1 1 .1 1c-.4.2-1 .3-1.4.3c-1.6 0-2.2-1-2.2-2.1c.04-.05 0-5.5 0-5.5l-1.8 0l0-.9l1.8 0l0-2.4l1.1 0l0 2.4l2.4 0l0 .9zm8.4 3.9c0 1.6.1 2.5.2 3.5c0 0-1 0-1 0c-.1-.4-.1-.9-.1-1.4c0 0 0 0 0 0c-.7 1.1-1.6 1.6-3 1.6c-1.4 0-2.9-.7-2.9-2.5c0-2.5 3-2.8 4.6-2.8c.01.04 1.3 0 1.3 0c0 0-.03-.46 0-.5c0-1.4-1-2-2.4-2c-.9 0-1.8.3-2.5 1c0 0-.6-.8-.6-.8c.8-.7 2-1.2 3.1-1.2c2 0 3.3.9 3.3 3.1c0 0 0 2 0 2zm-2.1-.7c-1.8 0-3.6.5-3.6 1.9c0 1 1 1.5 1.9 1.5c2.3 0 2.9-1.5 2.9-2.8c-.03-.04 0-.6 0-.6c0 0-1.22 0-1.2 0zm4.9-1.8c0-.6 0-1.9 0-2.3c0 0 1 0 1 0c.1.6.1 1.3.1 1.4c.5-1 1.4-1.7 2.7-1.7c.2 0 .4.1.6.1c0 0-.1 1.1-.1 1.1c-.2-.1-.3-.1-.5-.1c-1.8 0-2.7 1.3-2.7 2.9c.02.04 0 4.6 0 4.6l-1.1 0c0 0 .04-6 0-6zm14.6-2.6c2.6 0 4.4 1.9 4.4 4.4c0 2.6-1.8 4.4-4.4 4.4c-2.5 0-4.3-1.8-4.3-4.4c0-2.5 1.8-4.4 4.3-4.4zm0 7.8c2.1 0 3.3-1.5 3.3-3.4c0-1.9-1.2-3.4-3.3-3.4c-2 0-3.3 1.5-3.3 3.4c0 1.9 1.3 3.4 3.3 3.4zm7.2-6.6l-1.8 0l0-.9l1.8 0c0 0-.04-2.75 0-2.8c0-2.1 1.4-2.7 2.4-2.7c.6 0 1 0 1.3.2c0 0-.2.9-.2.9c-.3-.1-.6-.2-1-.2c-1 0-1.5.7-1.5 2.2c.04.04 0 2.4 0 2.4l2 0l0 .9l-2 0l0 7.4l-1 0l0-7.4zm13.4 0l-2.4 0c0 0 .04 5.45 0 5.5c0 .7.5 1.1 1.2 1.1c.4 0 .8-.1 1.2-.3c0 0 .1 1 .1 1c-.4.2-1 .3-1.4.3c-1.5 0-2.1-1-2.1-2.1c-.04-.05 0-5.5 0-5.5l-1.8 0l0-.9l1.8 0l0-2.4l1 0l0 2.4l2.4 0l0 .9zm2-6.2l1 0l0 6.7c0 0 .07.02.1 0c.4-.9 1.5-1.7 2.8-1.7c2.6 0 3.2 1.8 3.2 3.6c-.02.03 0 5 0 5l-1.1 0c0 0 0-4.92 0-4.9c0-1.4-.4-2.7-2.1-2.7c-1.6 0-2.9 1.1-2.9 3.4c.03.02 0 4.2 0 4.2l-1 0l0-13.6zm17.2 12c-.8 1.3-2.1 1.8-3.6 1.8c-2.5 0-4.2-1.8-4.2-4.4c0-2.5 1.7-4.4 4.2-4.4c2.5 0 3.9 2 3.9 3.9c-.04.04 0 .8 0 .8c0 0-7.03-.01-7 0c0 .9.6 3.1 3.1 3.1c1.1 0 2.3-.6 2.8-1.5c0 0 .8.7.8.7zm-.8-3.3c0-1.5-1.3-2.7-2.9-2.7c-2.4 0-3 2.3-3 2.7c0 0 5.9 0 5.9 0zm10.1-8.7l1 0l-1.2 9l4.6-3.7l1.6 0l-4.8 3.8l4.1 4.5l-1.6 0l-4-4.4l-.6 4.4l-1.1 0l2-13.6zm11.3 5c2.6 0 4.2 1.9 3.8 4.4c-.4 2.6-2.4 4.4-5 4.4c-2.5 0-4.1-1.8-3.7-4.4c.3-2.5 2.4-4.4 4.9-4.4zm-1.1 7.8c2.1 0 3.6-1.5 3.8-3.4c.3-1.9-.8-3.4-2.8-3.4c-2 0-3.5 1.5-3.8 3.4c-.2 1.9.8 3.4 2.8 3.4zm7.6-5.2c.1-.6.1-1.9.2-2.3c0 0 1.1 0 1.1 0c-.1.6-.2 1.3-.1 1.4c0 0 0 0 0 0c.6-.9 1.7-1.7 3.1-1.7c2.6 0 2.9 1.8 2.7 3.6c-.05.03-.7 5-.7 5l-1.1 0c0 0 .67-4.92.7-4.9c.2-1.4 0-2.7-1.7-2.7c-1.7 0-3.1 1.1-3.4 3.4c-.01.02-.6 4.2-.6 4.2l-1.1 0c0 0 .87-6 .9-6zm14.2-2.6c2.5 0 4.1 1.9 3.8 4.4c-.4 2.6-2.5 4.4-5 4.4c-2.6 0-4.2-1.8-3.8-4.4c.4-2.5 2.4-4.4 5-4.4zm-1.1 7.8c2 0 3.5-1.5 3.8-3.4c.2-1.9-.8-3.4-2.8-3.4c-2.1 0-3.6 1.5-3.8 3.4c-.3 1.9.8 3.4 2.8 3.4zm17.8-2.7c0 1.6.1 2.5.2 3.5c0 0-1 0-1 0c-.1-.4-.1-.9-.1-1.4c0 0-.1 0-.1 0c-.6 1.1-1.5 1.6-2.9 1.6c-1.4 0-2.9-.7-2.9-2.5c0-2.5 3-2.8 4.6-2.8c-.01.04 1.2 0 1.2 0c0 0 .05-.46 0-.5c0-1.4-1-2-2.3-2c-1 0-1.8.3-2.5 1c0 0-.7-.8-.7-.8c.8-.7 2.1-1.2 3.2-1.2c2 0 3.3.9 3.3 3.1c0 0 0 2 0 2zm-2.1-.7c-1.8 0-3.6.5-3.6 1.9c0 1 1 1.5 1.9 1.5c2.3 0 2.8-1.5 2.8-2.8c.05-.04 0-.6 0-.6c0 0-1.14 0-1.1 0zm5 2.1c.5.8 1.5 1.3 2.4 1.3c1 0 1.9-.6 1.9-1.5c0-2.3-4.9-.7-4.9-3.9c0-1.6 1.5-2.4 2.9-2.4c1.3 0 2.3.6 2.9 1.6c0 0-1 .6-1 .6c-.4-.8-1-1.2-1.9-1.2c-.8 0-1.8.5-1.8 1.4c0 2.2 4.9.5 4.9 3.8c0 1.7-1.4 2.6-3 2.6c-1.4 0-2.7-.5-3.3-1.7c0 0 .9-.6.9-.6zm7.9 0c.5.8 1.5 1.3 2.4 1.3c1 0 2-.6 2-1.5c0-2.3-5-.7-5-3.9c0-1.6 1.5-2.4 2.9-2.4c1.3 0 2.4.6 2.9 1.6c0 0-1 .6-1 .6c-.4-.8-1-1.2-1.9-1.2c-.8 0-1.8.5-1.8 1.4c0 2.2 4.9.5 4.9 3.8c0 1.7-1.4 2.6-3 2.6c-1.4 0-2.7-.5-3.3-1.7c0 0 .9-.6.9-.6zm11.6-6.5c2.5 0 4.3 1.9 4.3 4.4c0 2.6-1.8 4.4-4.3 4.4c-2.6 0-4.4-1.8-4.4-4.4c0-2.5 1.8-4.4 4.4-4.4zm0 7.8c2 0 3.3-1.5 3.3-3.4c0-1.9-1.3-3.4-3.3-3.4c-2.1 0-3.3 1.5-3.3 3.4c0 1.9 1.2 3.4 3.3 3.4zm13.7-.4c-.8.9-1.9 1.4-3.1 1.4c-2.5 0-4.4-1.8-4.4-4.4c0-2.5 1.9-4.4 4.4-4.4c1.2 0 2.3.6 3.1 1.5c0 0-.9.6-.9.6c-.6-.6-1.3-1.1-2.2-1.1c-2 0-3.3 1.5-3.3 3.4c0 1.9 1.3 3.4 3.3 3.4c.9 0 1.7-.4 2.2-1.1c0 0 .9.7.9.7zm1.9-7.1l1 0l0 8.3l-1 0l0-8.3zm.5-4.1c.4 0 .8.3.8.8c0 .4-.4.8-.8.8c-.5 0-.8-.4-.8-.8c0-.5.3-.8.8-.8zm9.7 8.9c0 1.6.1 2.5.2 3.5c0 0-1 0-1 0c-.1-.4-.1-.9-.1-1.4c0 0-.1 0-.1 0c-.6 1.1-1.5 1.6-2.9 1.6c-1.4 0-2.9-.7-2.9-2.5c0-2.5 3-2.8 4.6-2.8c-.01.04 1.3 0 1.3 0c0 0-.05-.46 0-.5c0-1.4-1.1-2-2.4-2c-1 0-1.8.3-2.5 1c0 0-.7-.8-.7-.8c.8-.7 2.1-1.2 3.2-1.2c2 0 3.3.9 3.3 3.1c0 0 0 2 0 2zm-2.1-.7c-1.8 0-3.6.5-3.6 1.9c0 1 1 1.5 1.9 1.5c2.3 0 2.9-1.5 2.9-2.8c-.05-.04 0-.6 0-.6c0 0-1.24 0-1.2 0zm9-3.2l-2.4 0c0 0 0 5.45 0 5.5c0 .7.4 1.1 1.2 1.1c.4 0 .8-.1 1.2-.3c0 0 .1 1 .1 1c-.4.2-1 .3-1.4.3c-1.6 0-2.2-1-2.2-2.1c.02-.05 0-5.5 0-5.5l-1.8 0l0-.9l1.8 0l0-2.4l1.1 0l0 2.4l2.4 0l0 .9zm2-.9l1.1 0l0 8.3l-1.1 0l0-8.3zm.5-4.1c.5 0 .9.3.9.8c0 .4-.4.8-.9.8c-.4 0-.8-.4-.8-.8c0-.5.4-.8.8-.8zm7.3 3.8c2.6 0 4.4 1.9 4.4 4.4c0 2.6-1.8 4.4-4.4 4.4c-2.5 0-4.3-1.8-4.3-4.4c0-2.5 1.8-4.4 4.3-4.4zm0 7.8c2.1 0 3.3-1.5 3.3-3.4c0-1.9-1.2-3.4-3.3-3.4c-2 0-3.3 1.5-3.3 3.4c0 1.9 1.3 3.4 3.3 3.4zm6.7-5.2c0-.6-.1-1.9-.1-2.3c0 0 1.1 0 1.1 0c0 .6.1 1.3.1 1.4c0 0 .1 0 .1 0c.4-.9 1.4-1.7 2.8-1.7c2.6 0 3.2 1.8 3.2 3.6c-.03.03 0 5 0 5l-1.1 0c0 0-.01-4.92 0-4.9c0-1.4-.4-2.7-2.1-2.7c-1.6 0-2.9 1.1-2.9 3.4c.02.02 0 4.2 0 4.2l-1.1 0c0 0 .04-6 0-6zm10.7 4.4c.5 0 .8.3.8.8c0 .5-.3.9-.8.9c-.5 0-.9-.4-.9-.9c0-.5.4-.8.9-.8z" stroke="none" fill="#000"/></g><g id="Polygon46792"><path d="m8.4 372.5c-.8.9-1.9 1.4-3.1 1.4c-2.5 0-4.3-1.8-4.3-4.4c0-2.5 1.8-4.4 4.3-4.4c1.3 0 2.3.6 3.1 1.5c0 0-.8.6-.8.6c-.7-.6-1.4-1.1-2.3-1.1c-2 0-3.2 1.5-3.2 3.4c0 1.9 1.2 3.4 3.2 3.4c.9 0 1.7-.4 2.3-1.1c0 0 .8.7.8.7zm5.5-7.4c2.6 0 4.4 1.9 4.4 4.4c0 2.6-1.8 4.4-4.4 4.4c-2.5 0-4.3-1.8-4.3-4.4c0-2.5 1.8-4.4 4.3-4.4zm0 7.8c2.1 0 3.3-1.5 3.3-3.4c0-1.9-1.2-3.4-3.3-3.4c-2 0-3.3 1.5-3.3 3.4c0 1.9 1.3 3.4 3.3 3.4zm6.8-1.3c.5.8 1.5 1.3 2.4 1.3c1 0 1.9-.6 1.9-1.5c0-2.3-4.9-.7-4.9-3.9c0-1.6 1.5-2.4 2.8-2.4c1.4 0 2.4.6 3 1.6c0 0-1 .6-1 .6c-.4-.8-1-1.2-2-1.2c-.7 0-1.7.5-1.7 1.4c0 2.2 4.9.5 4.9 3.8c0 1.7-1.4 2.6-3 2.6c-1.4 0-2.7-.5-3.3-1.7c0 0 .9-.6.9-.6zm7.6-3.9c0-.6-.1-1.9-.1-2.3c0 0 1.1 0 1.1 0c0 .6 0 1.3.1 1.4c0 0 0 0 0 0c.5-.9 1.5-1.7 2.9-1.7c1.1 0 2.1.6 2.5 1.8c.5-1.2 1.7-1.8 2.8-1.8c2.6 0 3.2 1.8 3.2 3.6c-.02.03 0 5 0 5l-1.1 0c0 0 0-4.92 0-4.9c0-1.4-.4-2.7-2.1-2.7c-2 0-2.5 1.7-2.5 2.9c-.01 0 0 4.7 0 4.7l-1.1 0c0 0 .01-5.02 0-5c0-1.6-.5-2.6-1.7-2.6c-1.6 0-2.9 1.1-2.9 3.4c0 .02 0 4.2 0 4.2l-1.1 0c0 0 .02-6 0-6zm19.2-2.6c2.5 0 4.4 1.9 4.4 4.4c0 2.6-1.9 4.4-4.4 4.4c-2.6 0-4.4-1.8-4.4-4.4c0-2.5 1.8-4.4 4.4-4.4zm0 7.8c2 0 3.3-1.5 3.3-3.4c0-1.9-1.3-3.4-3.3-3.4c-2.1 0-3.3 1.5-3.3 3.4c0 1.9 1.2 3.4 3.3 3.4zm6.8-12.8l1.1 0l0 13.6l-1.1 0l0-13.6zm7.9 5c2.6 0 4.4 1.9 4.4 4.4c0 2.6-1.8 4.4-4.4 4.4c-2.6 0-4.4-1.8-4.4-4.4c0-2.5 1.8-4.4 4.4-4.4zm0 7.8c2 0 3.3-1.5 3.3-3.4c0-1.9-1.3-3.4-3.3-3.4c-2 0-3.3 1.5-3.3 3.4c0 1.9 1.3 3.4 3.3 3.4zm15 .2c0 4.2-2.7 4.9-4.4 4.9c-1.7 0-3.3-.6-4.1-1.7c0 0 .8-.8.8-.8c.8 1 2 1.5 3.3 1.5c3.3 0 3.4-2.9 3.4-3.8c-.04.01 0-1.1 0-1.1c0 0-.08-.04-.1 0c-.6.9-1.7 1.6-3.1 1.6c-2.5 0-4.5-1.9-4.5-4.3c0-2.3 2-4.3 4.5-4.3c1.4 0 2.5.7 3.1 1.7c.02-.03.1 0 .1 0l0-1.4l1 0c0 0 .04 7.74 0 7.7zm-4.3-7c-1.8 0-3.3 1.5-3.3 3.3c0 1.8 1.5 3.3 3.3 3.3c1.8 0 3.3-1.5 3.3-3.3c0-1.8-1.5-3.3-3.3-3.3zm9.5 10.2c-.4 1-1.1 1.7-2.3 1.7c-.3 0-.7-.1-1-.2c0 0 .1-1 .1-1c.3.1.6.2 1 .2c.7 0 1.1-.7 1.3-1.4c.04.04.8-1.9.8-1.9l-3.4-8.3l1.2 0l2.8 7l2.7-7l1.1 0c0 0-4.28 10.85-4.3 10.9zm5.9-4.2c.4 0 .8.3.8.8c0 .5-.4.9-.8.9c-.5 0-.9-.4-.9-.9c0-.5.4-.8.9-.8zm11.5-10.1l-4.3 0l0-1.1l9.9 0l0 1.1l-4.4 0l0 11.7l-1.2 0l0-11.7zm7.3-1.9l1.1 0l0 6.7c0 0 .03.02 0 0c.5-.9 1.5-1.7 2.9-1.7c2.6 0 3.1 1.8 3.1 3.6c.04.03 0 5 0 5l-1 0c0 0-.04-4.92 0-4.9c0-1.4-.4-2.7-2.1-2.7c-1.6 0-2.9 1.1-2.9 3.4c-.01.02 0 4.2 0 4.2l-1.1 0l0-13.6zm10 5.3l1.1 0l0 8.3l-1.1 0l0-8.3zm.5-4.1c.5 0 .8.3.8.8c0 .4-.3.8-.8.8c-.4 0-.8-.4-.8-.8c0-.5.4-.8.8-.8zm3.6 10.3c.5.8 1.4 1.3 2.4 1.3c1 0 1.9-.6 1.9-1.5c0-2.3-4.9-.7-4.9-3.9c0-1.6 1.5-2.4 2.8-2.4c1.4 0 2.4.6 3 1.6c0 0-1 .6-1 .6c-.4-.8-1-1.2-2-1.2c-.7 0-1.7.5-1.7 1.4c0 2.2 4.9.5 4.9 3.8c0 1.7-1.4 2.6-3 2.6c-1.4 0-2.7-.5-3.4-1.7c0 0 1-.6 1-.6zm14-11.5l1.1 0l-1 6.7c0 0 .08.02.1 0c.8-1.1 2.3-1.7 3.5-1.7c2.6 0 4.2 1.9 3.8 4.4c-.4 2.6-2.4 4.4-5 4.4c-1.2 0-2.6-.5-3.1-1.7c.02.02 0 0 0 0l-.2 1.5l-1.1 0l1.9-13.6zm2.7 12.8c2 0 3.5-1.5 3.7-3.4c.3-1.9-.8-3.4-2.8-3.4c-2 0-3.7 1.5-3.9 3.4c-.3 1.9 1 3.4 3 3.4zm11.7-7.8c2.6 0 4.1 1.9 3.8 4.4c-.4 2.6-2.5 4.4-5 4.4c-2.6 0-4.1-1.8-3.8-4.4c.4-2.5 2.5-4.4 5-4.4zm-1.1 7.8c2.1 0 3.5-1.5 3.8-3.4c.3-1.9-.8-3.4-2.8-3.4c-2.1 0-3.5 1.5-3.8 3.4c-.3 1.9.8 3.4 2.8 3.4zm8.7-12.8l1.1 0l-1.9 13.6l-1.1 0l1.9-13.6zm3.5 5.3l1 0l-1.1 8.3l-1.1 0l1.2-8.3zm1.1-4.1c.4 0 .7.3.7.8c-.1.4-.5.8-1 .8c-.4 0-.7-.4-.7-.8c.1-.5.5-.8 1-.8zm13.5 11.2c-.8.9-1.9 1.4-3.1 1.4c-2.5 0-4.4-1.8-4.4-4.4c0-2.5 1.9-4.4 4.4-4.4c1.2 0 2.3.6 3.1 1.5c0 0-.9.6-.9.6c-.6-.6-1.3-1.1-2.2-1.1c-2 0-3.3 1.5-3.3 3.4c0 1.9 1.3 3.4 3.3 3.4c.9 0 1.7-.4 2.2-1.1c0 0 .9.7.9.7zm5.5-7.4c2.6 0 4.4 1.9 4.4 4.4c0 2.6-1.8 4.4-4.4 4.4c-2.6 0-4.4-1.8-4.4-4.4c0-2.5 1.8-4.4 4.4-4.4zm0 7.8c2 0 3.3-1.5 3.3-3.4c0-1.9-1.3-3.4-3.3-3.4c-2 0-3.3 1.5-3.3 3.4c0 1.9 1.3 3.4 3.3 3.4zm6.7-5.2c0-.6-.1-1.9-.1-2.3c0 0 1.1 0 1.1 0c0 .6 0 1.3.1 1.4c0 0 0 0 0 0c.4-.9 1.5-1.7 2.9-1.7c1.1 0 2.1.6 2.5 1.8c.5-1.2 1.6-1.8 2.8-1.8c2.6 0 3.2 1.8 3.2 3.6c-.04.03 0 5 0 5l-1.1 0c0 0-.02-4.92 0-4.9c0-1.4-.4-2.7-2.1-2.7c-2 0-2.5 1.7-2.5 2.9c-.03 0 0 4.7 0 4.7l-1.1 0c0 0-.01-5.02 0-5c0-1.6-.6-2.6-1.7-2.6c-1.6 0-2.9 1.1-2.9 3.4c-.02.02 0 4.2 0 4.2l-1.1 0c0 0 0-6 0-6zm22.6 4.4c-.8 1.3-2.1 1.8-3.6 1.8c-2.5 0-4.2-1.8-4.2-4.4c0-2.5 1.7-4.4 4.2-4.4c2.5 0 3.9 2 3.9 3.9c-.02.04 0 .8 0 .8c0 0-7-.01-7 0c0 .9.6 3.1 3.1 3.1c1.1 0 2.3-.6 2.8-1.5c0 0 .8.7.8.7zm-.8-3.3c0-1.5-1.3-2.7-2.9-2.7c-2.3 0-3 2.3-3 2.7c0 0 5.9 0 5.9 0zm3.6 2.8c.4.8 1.4 1.3 2.4 1.3c.9 0 1.9-.6 1.9-1.5c0-2.3-4.9-.7-4.9-3.9c0-1.6 1.4-2.4 2.8-2.4c1.4 0 2.4.6 2.9 1.6c0 0-.9.6-.9.6c-.4-.8-1-1.2-2-1.2c-.8 0-1.8.5-1.8 1.4c0 2.2 5 .5 5 3.8c0 1.7-1.4 2.6-3 2.6c-1.4 0-2.7-.5-3.4-1.7c0 0 1-.6 1-.6zm12.9-5.3l-1.7 0l0-.9l1.7 0c0 0 .02-2.75 0-2.8c0-2.1 1.4-2.7 2.5-2.7c.5 0 .9 0 1.2.2c0 0-.2.9-.2.9c-.2-.1-.5-.2-.9-.2c-1 0-1.5.7-1.5 2.2c0 .04 0 2.4 0 2.4l1.9 0l0 .9l-1.9 0l0 7.4l-1.1 0l0-7.4zm4.9 1.4c0-.6-.1-1.9-.1-2.3c0 0 1 0 1 0c.1.6.1 1.3.1 1.4c.6-1 1.4-1.7 2.7-1.7c.2 0 .4.1.6.1c0 0-.1 1.1-.1 1.1c-.2-.1-.3-.1-.4-.1c-1.9 0-2.8 1.3-2.8 2.9c.03.04 0 4.6 0 4.6l-1 0c0 0-.05-6 0-6zm9.6-2.6c2.5 0 4.4 1.9 4.4 4.4c0 2.6-1.9 4.4-4.4 4.4c-2.6 0-4.4-1.8-4.4-4.4c0-2.5 1.8-4.4 4.4-4.4zm0 7.8c2 0 3.3-1.5 3.3-3.4c0-1.9-1.3-3.4-3.3-3.4c-2.1 0-3.3 1.5-3.3 3.4c0 1.9 1.2 3.4 3.3 3.4zm6.7-5.2c0-.6-.1-1.9-.1-2.3c0 0 1.1 0 1.1 0c0 .6 0 1.3 0 1.4c0 0 .1 0 .1 0c.4-.9 1.5-1.7 2.8-1.7c1.1 0 2.1.6 2.5 1.8c.6-1.2 1.7-1.8 2.9-1.8c2.6 0 3.1 1.8 3.1 3.6c.04.03 0 5 0 5l-1 0c0 0-.04-4.92 0-4.9c0-1.4-.4-2.7-2.1-2.7c-2 0-2.6 1.7-2.6 2.9c.05 0 0 4.7 0 4.7l-1 0c0 0-.03-5.02 0-5c0-1.6-.6-2.6-1.8-2.6c-1.6 0-2.8 1.1-2.8 3.4c-.04.02 0 4.2 0 4.2l-1.1 0c0 0-.02-6 0-6zm26.5 2.5c0 1.6 0 2.5.1 3.5c0 0-1 0-1 0c-.1-.4-.1-.9-.1-1.4c0 0 0 0 0 0c-.6 1.1-1.5 1.6-2.9 1.6c-1.5 0-3-.7-3-2.5c0-2.5 3-2.8 4.6-2.8c.03.04 1.3 0 1.3 0c0 0-.01-.46 0-.5c0-1.4-1-2-2.4-2c-.9 0-1.8.3-2.5 1c0 0-.6-.8-.6-.8c.8-.7 2.1-1.2 3.1-1.2c2.1 0 3.4.9 3.4 3.1c0 0 0 2 0 2zm-2.2-.7c-1.8 0-3.6.5-3.6 1.9c0 1 1 1.5 1.9 1.5c2.3 0 2.9-1.5 2.9-2.8c-.01-.04 0-.6 0-.6c0 0-1.2 0-1.2 0z" stroke="none" fill="#000"/></g><g id="Polygon46791"><path d="m1.6 341.4l1.1 0l0 8.3l-1.1 0l0-8.3zm.6-4.1c.4 0 .8.3.8.8c0 .4-.4.8-.8.8c-.5 0-.9-.4-.9-.8c0-.5.4-.8.9-.8zm3.4 6.4c0-.6-.1-1.9-.1-2.3c0 0 1.1 0 1.1 0c0 .6 0 1.3.1 1.4c0 0 0 0 0 0c.5-.9 1.5-1.7 2.9-1.7c2.6 0 3.1 1.8 3.1 3.6c.03.03 0 5 0 5l-1 0c0 0-.05-4.92 0-4.9c0-1.4-.4-2.7-2.1-2.7c-1.6 0-2.9 1.1-2.9 3.4c-.01.02 0 4.2 0 4.2l-1.1 0c0 0 .01-6 0-6zm10 3.9c.5.8 1.5 1.3 2.4 1.3c1 0 2-.6 2-1.5c0-2.3-5-.7-5-3.9c0-1.6 1.5-2.4 2.9-2.4c1.3 0 2.4.6 2.9 1.6c0 0-1 .6-1 .6c-.4-.8-1-1.2-1.9-1.2c-.8 0-1.8.5-1.8 1.4c0 2.2 4.9.5 4.9 3.8c0 1.7-1.4 2.6-3 2.6c-1.4 0-2.7-.5-3.3-1.7c0 0 .9-.6.9-.6zm12-5.3l-2.4 0c0 0 0 5.45 0 5.5c0 .7.4 1.1 1.2 1.1c.4 0 .8-.1 1.2-.3c0 0 .1 1 .1 1c-.4.2-1 .3-1.4.3c-1.6 0-2.2-1-2.2-2.1c.02-.05 0-5.5 0-5.5l-1.8 0l0-.9l1.8 0l0-2.4l1.1 0l0 2.4l2.4 0l0 .9zm1.9 1.4c0-.6-.1-1.9-.1-2.3c0 0 1.1 0 1.1 0c0 .6 0 1.3.1 1.4c.5-1 1.4-1.7 2.6-1.7c.2 0 .4.1.6.1c0 0-.1 1.1-.1 1.1c-.1-.1-.3-.1-.4-.1c-1.9 0-2.7 1.3-2.7 2.9c-.01.04 0 4.6 0 4.6l-1.1 0c0 0 .01-6 0-6zm13.2 3.6c0 .7.1 1.9.1 2.4c0 0-1.1 0-1.1 0c0-.6-.1-1.3-.1-1.5c0 0 0 0 0 0c-.5.9-1.5 1.7-2.9 1.7c-2.6 0-3.2-1.8-3.2-3.6c.05.01 0-4.9 0-4.9l1.1 0c0 0 .03 4.86 0 4.9c0 1.3.4 2.6 2.1 2.6c1.6 0 2.9-1.1 2.9-3.4c-.01.02 0-4.1 0-4.1l1.1 0c0 0-.03 5.94 0 5.9zm9.8 1.2c-.8.9-1.9 1.4-3.1 1.4c-2.5 0-4.4-1.8-4.4-4.4c0-2.5 1.9-4.4 4.4-4.4c1.2 0 2.3.6 3.1 1.5c0 0-.8.6-.8.6c-.7-.6-1.4-1.1-2.3-1.1c-2 0-3.3 1.5-3.3 3.4c0 1.9 1.3 3.4 3.3 3.4c.9 0 1.7-.4 2.3-1.1c0 0 .8.7.8.7zm6.4-6.2l-2.4 0c0 0 .04 5.45 0 5.5c0 .7.5 1.1 1.2 1.1c.4 0 .8-.1 1.2-.3c0 0 .1 1 .1 1c-.4.2-1 .3-1.4.3c-1.5 0-2.1-1-2.1-2.1c-.04-.05 0-5.5 0-5.5l-1.8 0l0-.9l1.8 0l0-2.4l1 0l0 2.4l2.4 0l0 .9zm9 5.8c-.8 1.3-2.1 1.8-3.6 1.8c-2.5 0-4.2-1.8-4.2-4.4c0-2.5 1.7-4.4 4.2-4.4c2.5 0 3.9 2 3.9 3.9c-.04.04 0 .8 0 .8c0 0-7.03-.01-7 0c0 .9.6 3.1 3.1 3.1c1.1 0 2.3-.6 2.8-1.5c0 0 .8.7.8.7zm-.8-3.3c0-1.5-1.3-2.7-2.9-2.7c-2.4 0-3 2.3-3 2.7c0 0 5.9 0 5.9 0zm10.7 3.4c0 0-.04.02 0 0c-.7 1.2-2.1 1.7-3.4 1.7c-2.5 0-4.3-1.8-4.3-4.4c0-2.5 1.8-4.4 4.3-4.4c1.3 0 2.7.6 3.4 1.7c-.04.02 0 0 0 0l0-6.7l1.1 0l0 13.6l-1.1 0l0-1.5zm-3.4-6.1c-2 0-3.3 1.5-3.3 3.4c0 1.9 1.3 3.4 3.3 3.4c2 0 3.5-1.5 3.5-3.4c0-1.9-1.5-3.4-3.5-3.4zm12-.7l1.1 0l0 8.3l-1.1 0l0-8.3zm.5-4.1c.5 0 .8.3.8.8c0 .4-.3.8-.8.8c-.4 0-.8-.4-.8-.8c0-.5.4-.8.8-.8zm3.5 6.4c0-.6-.1-1.9-.1-2.3c0 0 1.1 0 1.1 0c0 .6 0 1.3 0 1.4c0 0 .1 0 .1 0c.4-.9 1.5-1.7 2.8-1.7c2.6 0 3.2 1.8 3.2 3.6c0 .03 0 5 0 5l-1.1 0c0 0 .02-4.92 0-4.9c0-1.4-.4-2.7-2.1-2.7c-1.6 0-2.8 1.1-2.8 3.4c-.05.02 0 4.2 0 4.2l-1.1 0c0 0-.03-6 0-6zm22 4.4c-.8 1.3-2.1 1.8-3.6 1.8c-2.5 0-4.2-1.8-4.2-4.4c0-2.5 1.7-4.4 4.2-4.4c2.5 0 3.9 2 3.9 3.9c-.04.04 0 .8 0 .8c0 0-7.03-.01-7 0c0 .9.6 3.1 3.1 3.1c1.1 0 2.3-.6 2.8-1.5c0 0 .8.7.8.7zm-.8-3.3c0-1.5-1.3-2.7-2.9-2.7c-2.4 0-3 2.3-3 2.7c0 0 5.9 0 5.9 0zm3.6 2.8c.4.8 1.4 1.3 2.4 1.3c.9 0 1.9-.6 1.9-1.5c0-2.3-5-.7-5-3.9c0-1.6 1.5-2.4 2.9-2.4c1.3 0 2.4.6 2.9 1.6c0 0-.9.6-.9.6c-.5-.8-1-1.2-2-1.2c-.8 0-1.8.5-1.8 1.4c0 2.2 5 .5 5 3.8c0 1.7-1.5 2.6-3 2.6c-1.5 0-2.7-.5-3.4-1.7c0 0 1-.6 1-.6zm11.5-6.5c2.5 0 4.4 1.9 4.4 4.4c0 2.6-1.9 4.4-4.4 4.4c-2.6 0-4.4-1.8-4.4-4.4c0-2.5 1.8-4.4 4.4-4.4zm0 7.8c2 0 3.3-1.5 3.3-3.4c0-1.9-1.3-3.4-3.3-3.4c-2 0-3.3 1.5-3.3 3.4c0 1.9 1.3 3.4 3.3 3.4zm10.6-6.6l-2.4 0c0 0 .03 5.45 0 5.5c0 .7.5 1.1 1.2 1.1c.4 0 .8-.1 1.2-.3c0 0 .1 1 .1 1c-.4.2-1 .3-1.4.3c-1.6 0-2.1-1-2.1-2.1c-.05-.05 0-5.5 0-5.5l-1.8 0l0-.9l1.8 0l0-2.4l1 0l0 2.4l2.4 0l0 .9zm9 5.8c-.9 1.3-2.1 1.8-3.6 1.8c-2.5 0-4.2-1.8-4.2-4.4c0-2.5 1.7-4.4 4.1-4.4c2.6 0 3.9 2 3.9 3.9c.05.04 0 .8 0 .8c0 0-6.94-.01-6.9 0c0 .9.6 3.1 3.1 3.1c1.1 0 2.3-.6 2.8-1.5c0 0 .8.7.8.7zm-.8-3.3c0-1.5-1.3-2.7-2.9-2.7c-2.4 0-3 2.3-3 2.7c0 0 5.9 0 5.9 0zm3.4-1.1c0-.6-.1-1.9-.1-2.3c0 0 1.1 0 1.1 0c0 .6 0 1.3.1 1.4c.5-1 1.4-1.7 2.6-1.7c.2 0 .4.1.6.1c0 0-.1 1.1-.1 1.1c-.1-.1-.3-.1-.4-.1c-1.9 0-2.7 1.3-2.7 2.9c-.02.04 0 4.6 0 4.6l-1.1 0c0 0 0-6 0-6zm6.2-2.3l1.1 0l0 8.3l-1.1 0l0-8.3zm.5-4.1c.5 0 .8.3.8.8c0 .4-.3.8-.8.8c-.4 0-.8-.4-.8-.8c0-.5.4-.8.8-.8zm10.4 11.2c-.8.9-1.9 1.4-3.1 1.4c-2.5 0-4.4-1.8-4.4-4.4c0-2.5 1.9-4.4 4.4-4.4c1.2 0 2.3.6 3.1 1.5c0 0-.8.6-.8.6c-.7-.6-1.4-1.1-2.3-1.1c-2 0-3.3 1.5-3.3 3.4c0 1.9 1.3 3.4 3.3 3.4c.9 0 1.7-.4 2.3-1.1c0 0 .8.7.8.7zm12.8-2.3c0 1.6 0 2.5.2 3.5c0 0-1 0-1 0c-.1-.4-.1-.9-.1-1.4c0 0-.1 0-.1 0c-.6 1.1-1.5 1.6-2.9 1.6c-1.4 0-2.9-.7-2.9-2.5c0-2.5 2.9-2.8 4.6-2.8c-.02.04 1.2 0 1.2 0c0 0 .04-.46 0-.5c0-1.4-1-2-2.3-2c-1 0-1.8.3-2.5 1c0 0-.7-.8-.7-.8c.8-.7 2.1-1.2 3.2-1.2c2 0 3.3.9 3.3 3.1c0 0 0 2 0 2zm-2.1-.7c-1.8 0-3.6.5-3.6 1.9c0 1 .9 1.5 1.8 1.5c2.3 0 2.9-1.5 2.9-2.8c.04-.04 0-.6 0-.6c0 0-1.15 0-1.1 0zm5 2.1c.5.8 1.5 1.3 2.4 1.3c1 0 1.9-.6 1.9-1.5c0-2.3-4.9-.7-4.9-3.9c0-1.6 1.5-2.4 2.8-2.4c1.4 0 2.4.6 3 1.6c0 0-1 .6-1 .6c-.4-.8-1-1.2-2-1.2c-.7 0-1.7.5-1.7 1.4c0 2.2 4.9.5 4.9 3.8c0 1.7-1.4 2.6-3 2.6c-1.4 0-2.7-.5-3.3-1.7c0 0 .9-.6.9-.6zm7.5-6.2l1.1 0l0 1.4c0 0 .04.02 0 0c.7-1.1 2.1-1.7 3.4-1.7c2.5 0 4.3 1.9 4.3 4.4c0 2.6-1.8 4.4-4.3 4.4c-1.3 0-2.7-.5-3.4-1.7c.04.02 0 0 0 0l0 5.6l-1.1 0l0-12.4zm4.5 7.5c2 0 3.3-1.5 3.3-3.4c0-1.9-1.3-3.4-3.3-3.4c-2 0-3.5 1.5-3.5 3.4c0 1.9 1.5 3.4 3.5 3.4zm14.1-.8c-.9 1.3-2.2 1.8-3.6 1.8c-2.6 0-4.3-1.8-4.3-4.4c0-2.5 1.8-4.4 4.2-4.4c2.6 0 3.9 2 3.9 3.9c.01.04 0 .8 0 .8c0 0-6.98-.01-7 0c0 .9.7 3.1 3.2 3.1c1.1 0 2.2-.6 2.8-1.5c0 0 .8.7.8.7zm-.9-3.3c0-1.5-1.2-2.7-2.9-2.7c-2.3 0-3 2.3-3 2.7c0 0 5.9 0 5.9 0zm10.4 3.7c-.8.9-1.8 1.4-3 1.4c-2.6 0-4.4-1.8-4.4-4.4c0-2.5 1.8-4.4 4.4-4.4c1.2 0 2.3.6 3.1 1.5c0 0-.9.6-.9.6c-.6-.6-1.3-1.1-2.2-1.1c-2 0-3.3 1.5-3.3 3.4c0 1.9 1.3 3.4 3.3 3.4c.9 0 1.7-.4 2.2-1.1c0 0 .8.7.8.7zm6.5-6.2l-2.4 0c0 0 .01 5.45 0 5.5c0 .7.4 1.1 1.2 1.1c.4 0 .8-.1 1.2-.3c0 0 .1 1 .1 1c-.4.2-1 .3-1.4.3c-1.6 0-2.2-1-2.2-2.1c.03-.05 0-5.5 0-5.5l-1.8 0l0-.9l1.8 0l0-2.4l1.1 0l0 2.4l2.4 0l0 .9zm2.3 5.3c.4.8 1.4 1.3 2.4 1.3c.9 0 1.9-.6 1.9-1.5c0-2.3-4.9-.7-4.9-3.9c0-1.6 1.5-2.4 2.8-2.4c1.4 0 2.4.6 3 1.6c0 0-1 .6-1 .6c-.4-.8-1-1.2-2-1.2c-.8 0-1.7.5-1.7 1.4c0 2.2 4.9.5 4.9 3.8c0 1.7-1.4 2.6-3 2.6c-1.4 0-2.7-.5-3.4-1.7c0 0 1-.6 1-.6zm16.2-6.5c2.6 0 4.4 1.9 4.4 4.4c0 2.6-1.8 4.4-4.4 4.4c-2.5 0-4.3-1.8-4.3-4.4c0-2.5 1.8-4.4 4.3-4.4zm0 7.8c2.1 0 3.3-1.5 3.3-3.4c0-1.9-1.2-3.4-3.3-3.4c-2 0-3.3 1.5-3.3 3.4c0 1.9 1.3 3.4 3.3 3.4zm7.2-6.6l-1.8 0l0-.9l1.8 0c0 0-.04-2.75 0-2.8c0-2.1 1.4-2.7 2.4-2.7c.6 0 1 0 1.3.2c0 0-.2.9-.2.9c-.3-.1-.6-.2-1-.2c-1 0-1.5.7-1.5 2.2c.04.04 0 2.4 0 2.4l2 0l0 .9l-2 0l0 7.4l-1 0l0-7.4zm9.7-5.4c0 0 3.63.04 3.6 0c2 0 4.1.5 4.1 3.4c0 1.3-.7 2.3-2.3 2.6c0 0 0 .1 0 .1c1.7.1 2.9 1.3 2.9 3.1c0 2.9-2.5 3.6-4.3 3.6c.03-.02-4 0-4 0l0-12.8zm1.1 5.5c0 0 2.51.04 2.5 0c2.5 0 2.9-1.3 2.9-2.1c0-1.8-1.2-2.3-2.7-2.3c-.03.02-2.7 0-2.7 0l0 4.4zm0 6.2c0 0 2.76 0 2.8 0c2.8 0 3.2-1.5 3.2-2.4c0-1.9-1.5-2.7-3.1-2.7c.04.02-2.9 0-2.9 0l0 5.1zm16.1-2.4c0 1.6 0 2.5.1 3.5c0 0-1 0-1 0c-.1-.4-.1-.9-.1-1.4c0 0 0 0 0 0c-.6 1.1-1.5 1.6-2.9 1.6c-1.5 0-3-.7-3-2.5c0-2.5 3-2.8 4.6-2.8c.03.04 1.3 0 1.3 0c0 0-.01-.46 0-.5c0-1.4-1-2-2.4-2c-.9 0-1.8.3-2.5 1c0 0-.6-.8-.6-.8c.8-.7 2.1-1.2 3.1-1.2c2.1 0 3.4.9 3.4 3.1c0 0 0 2 0 2zm-2.2-.7c-1.8 0-3.6.5-3.6 1.9c0 1 1 1.5 1.9 1.5c2.3 0 2.9-1.5 2.9-2.8c-.01-.04 0-.6 0-.6c0 0-1.2 0-1.2 0zm5-1.8c0-.6-.1-1.9-.1-2.3c0 0 1.1 0 1.1 0c0 .6 0 1.3 0 1.4c0 0 .1 0 .1 0c.4-.9 1.5-1.7 2.8-1.7c1.1 0 2.1.6 2.5 1.8c.5-1.2 1.7-1.8 2.9-1.8c2.5 0 3.1 1.8 3.1 3.6c.02.03 0 5 0 5l-1.1 0c0 0 .04-4.92 0-4.9c0-1.4-.3-2.7-2-2.7c-2 0-2.6 1.7-2.6 2.9c.03 0 0 4.7 0 4.7l-1 0c0 0-.05-5.02 0-5c0-1.6-.6-2.6-1.8-2.6c-1.6 0-2.9 1.1-2.9 3.4c.05.02 0 4.2 0 4.2l-1 0c0 0-.03-6 0-6zm21.6 2.5c0 1.6 0 2.5.1 3.5c0 0-1 0-1 0c0-.4-.1-.9-.1-1.4c0 0 0 0 0 0c-.6 1.1-1.5 1.6-2.9 1.6c-1.5 0-3-.7-3-2.5c0-2.5 3-2.8 4.6-2.8c.04.04 1.3 0 1.3 0c0 0 0-.46 0-.5c0-1.4-1-2-2.3-2c-1 0-1.8.3-2.6 1c0 0-.6-.8-.6-.8c.8-.7 2.1-1.2 3.2-1.2c2 0 3.3.9 3.3 3.1c0 0 0 2 0 2zm-2.2-.7c-1.8 0-3.6.5-3.6 1.9c0 1 1 1.5 1.9 1.5c2.3 0 2.9-1.5 2.9-2.8c0-.04 0-.6 0-.6c0 0-1.19 0-1.2 0zm5-1.8c0-.6-.1-1.9-.1-2.3c0 0 1.1 0 1.1 0c0 .6 0 1.3 0 1.4c0 0 .1 0 .1 0c.4-.9 1.5-1.7 2.8-1.7c2.6 0 3.2 1.8 3.2 3.6c0 .03 0 5 0 5l-1.1 0c0 0 .02-4.92 0-4.9c0-1.4-.4-2.7-2.1-2.7c-1.6 0-2.8 1.1-2.8 3.4c-.04.02 0 4.2 0 4.2l-1.1 0c0 0-.02-6 0-6zm16.2 2.5c0 1.6.1 2.5.2 3.5c0 0-1 0-1 0c-.1-.4-.1-.9-.1-1.4c0 0-.1 0-.1 0c-.6 1.1-1.5 1.6-2.9 1.6c-1.4 0-2.9-.7-2.9-2.5c0-2.5 3-2.8 4.6-2.8c.01.04 1.3 0 1.3 0c0 0-.03-.46 0-.5c0-1.4-1-2-2.4-2c-.9 0-1.8.3-2.5 1c0 0-.6-.8-.6-.8c.7-.7 2-1.2 3.1-1.2c2 0 3.3.9 3.3 3.1c0 0 0 2 0 2zm-2.1-.7c-1.8 0-3.6.5-3.6 1.9c0 1 1 1.5 1.9 1.5c2.3 0 2.9-1.5 2.9-2.8c-.03-.04 0-.6 0-.6c0 0-1.22 0-1.2 0z" stroke="none" fill="#000"/></g><g id="Polygon46790"><path d="m.3 317.4l1.2 0l2 6.9l0 0l2.3-6.9l1.1 0l2.4 6.9l.1 0l1.9-6.9l1.1 0l-2.4 8.3l-1.2 0l-2.4-6.8l-.1 0l-2.3 6.8l-1.1 0l-2.6-8.3zm20.3 4.8c0 1.6 0 2.5.1 3.5c0 0-1 0-1 0c0-.4-.1-.9-.1-1.4c0 0 0 0 0 0c-.6 1.1-1.5 1.6-2.9 1.6c-1.4 0-3-.7-3-2.5c0-2.5 3-2.8 4.6-2.8c.05.04 1.3 0 1.3 0c0 0 .01-.46 0-.5c0-1.4-1-2-2.3-2c-1 0-1.8.3-2.6 1c0 0-.6-.8-.6-.8c.8-.7 2.1-1.2 3.2-1.2c2 0 3.3.9 3.3 3.1c0 0 0 2 0 2zm-2.2-.7c-1.8 0-3.6.5-3.6 1.9c0 1 1 1.5 1.9 1.5c2.3 0 2.9-1.5 2.9-2.8c.01-.04 0-.6 0-.6c0 0-1.18 0-1.2 0zm5.1 2.1c.4.8 1.4 1.3 2.4 1.3c.9 0 1.9-.6 1.9-1.5c0-2.3-4.9-.7-4.9-3.9c0-1.6 1.4-2.4 2.8-2.4c1.4 0 2.4.6 2.9 1.6c0 0-.9.6-.9.6c-.4-.8-1-1.2-2-1.2c-.8 0-1.8.5-1.8 1.4c0 2.2 5 .5 5 3.8c0 1.7-1.4 2.6-3 2.6c-1.4 0-2.7-.5-3.4-1.7c0 0 1-.6 1-.6zm16.4-5.3l-2.4 0c0 0 0 5.45 0 5.5c0 .7.4 1.1 1.2 1.1c.4 0 .8-.1 1.2-.3c0 0 .1 1 .1 1c-.4.2-1 .3-1.4.3c-1.6 0-2.2-1-2.2-2.1c.02-.05 0-5.5 0-5.5l-1.8 0l0-.9l1.8 0l0-2.4l1.1 0l0 2.4l2.4 0l0 .9zm1.9-6.2l1.1 0l0 6.7c0 0 .03.02 0 0c.5-.9 1.5-1.7 2.9-1.7c2.6 0 3.1 1.8 3.1 3.6c.04.03 0 5 0 5l-1 0c0 0-.04-4.92 0-4.9c0-1.4-.4-2.7-2.1-2.7c-1.6 0-2.9 1.1-2.9 3.4c-.01.02 0 4.2 0 4.2l-1.1 0l0-13.6zm17.3 12c-.9 1.3-2.2 1.8-3.6 1.8c-2.6 0-4.2-1.8-4.2-4.4c0-2.5 1.7-4.4 4.1-4.4c2.6 0 3.9 2 3.9 3.9c.01.04 0 .8 0 .8c0 0-6.97-.01-7 0c0 .9.7 3.1 3.2 3.1c1.1 0 2.2-.6 2.8-1.5c0 0 .8.7.8.7zm-.9-3.3c0-1.5-1.2-2.7-2.8-2.7c-2.4 0-3.1 2.3-3.1 2.7c0 0 5.9 0 5.9 0zm10.1-8.7l1.1 0l-1.3 9l4.7-3.7l1.5 0l-4.8 3.8l4.2 4.5l-1.7 0l-3.9-4.4l-.6 4.4l-1.1 0l1.9-13.6zm11.4 5c2.6 0 4.1 1.9 3.8 4.4c-.4 2.6-2.5 4.4-5 4.4c-2.6 0-4.1-1.8-3.8-4.4c.4-2.5 2.4-4.4 5-4.4zm-1.1 7.8c2 0 3.5-1.5 3.8-3.4c.2-1.9-.8-3.4-2.8-3.4c-2.1 0-3.5 1.5-3.8 3.4c-.3 1.9.8 3.4 2.8 3.4zm7.5-5.2c.1-.6.2-1.9.3-2.3c0 0 1 0 1 0c0 .6-.1 1.3-.1 1.4c0 0 .1 0 .1 0c.5-.9 1.7-1.7 3-1.7c2.6 0 3 1.8 2.7 3.6c.01.03-.7 5-.7 5l-1.1 0c0 0 .72-4.92.7-4.9c.2-1.4 0-2.7-1.7-2.7c-1.6 0-3 1.1-3.3 3.4c-.05.02-.6 4.2-.6 4.2l-1.1 0c0 0 .83-6 .8-6zm14.2-2.6c2.6 0 4.2 1.9 3.8 4.4c-.3 2.6-2.4 4.4-5 4.4c-2.5 0-4.1-1.8-3.7-4.4c.3-2.5 2.4-4.4 4.9-4.4zm-1 7.8c2 0 3.5-1.5 3.7-3.4c.3-1.9-.8-3.4-2.8-3.4c-2 0-3.5 1.5-3.8 3.4c-.2 1.9.8 3.4 2.9 3.4zm6.4-.8l1.3 0l-1.4 4.1l-1.1 0l1.2-4.1zm7.5-6.7l1.2 0l2 6.9l.1 0l2.3-6.9l1 0l2.5 6.9l0 0l2-6.9l1.1 0l-2.5 8.3l-1.1 0l-2.5-6.8l0 0l-2.3 6.8l-1.1 0l-2.7-8.3zm14-5.3l1.1 0l0 6.7c0 0-.01.02 0 0c.4-.9 1.5-1.7 2.8-1.7c2.6 0 3.2 1.8 3.2 3.6c0 .03 0 5 0 5l-1.1 0c0 0 .02-4.92 0-4.9c0-1.4-.4-2.7-2.1-2.7c-1.6 0-2.8 1.1-2.8 3.4c-.05.02 0 4.2 0 4.2l-1.1 0l0-13.6zm13.8 5c2.5 0 4.4 1.9 4.4 4.4c0 2.6-1.9 4.4-4.4 4.4c-2.6 0-4.4-1.8-4.4-4.4c0-2.5 1.8-4.4 4.4-4.4zm0 7.8c2 0 3.3-1.5 3.3-3.4c0-1.9-1.3-3.4-3.3-3.4c-2 0-3.3 1.5-3.3 3.4c0 1.9 1.3 3.4 3.3 3.4zm6.8-1.3c.4.8 1.4 1.3 2.4 1.3c.9 0 1.9-.6 1.9-1.5c0-2.3-4.9-.7-4.9-3.9c0-1.6 1.4-2.4 2.8-2.4c1.3 0 2.4.6 2.9 1.6c0 0-.9.6-.9.6c-.5-.8-1-1.2-2-1.2c-.8 0-1.8.5-1.8 1.4c0 2.2 5 .5 5 3.8c0 1.7-1.5 2.6-3 2.6c-1.5 0-2.7-.5-3.4-1.7c0 0 1-.6 1-.6zm14.9.5c-.8 1.3-2.1 1.8-3.6 1.8c-2.5 0-4.2-1.8-4.2-4.4c0-2.5 1.8-4.4 4.2-4.4c2.5 0 3.9 2 3.9 3.9c-.01.04 0 .8 0 .8c0 0-6.99-.01-7 0c0 .9.6 3.1 3.2 3.1c1.1 0 2.2-.6 2.7-1.5c0 0 .8.7.8.7zm-.8-3.3c0-1.5-1.3-2.7-2.9-2.7c-2.3 0-3 2.3-3 2.7c0 0 5.9 0 5.9 0zm8.2-1.1c0-.6-.1-1.9-.1-2.3c0 0 1.1 0 1.1 0c0 .6 0 1.3 0 1.4c0 0 .1 0 .1 0c.4-.9 1.5-1.7 2.8-1.7c1.1 0 2.1.6 2.5 1.8c.6-1.2 1.7-1.8 2.9-1.8c2.6 0 3.1 1.8 3.1 3.6c.04.03 0 5 0 5l-1 0c0 0-.04-4.92 0-4.9c0-1.4-.4-2.7-2.1-2.7c-2 0-2.5 1.7-2.5 2.9c-.05 0 0 4.7 0 4.7l-1.1 0c0 0-.03-5.02 0-5c0-1.6-.6-2.6-1.8-2.6c-1.6 0-2.8 1.1-2.8 3.4c-.04.02 0 4.2 0 4.2l-1.1 0c0 0-.02-6 0-6zm22.6 4.4c-.8 1.3-2.1 1.8-3.6 1.8c-2.5 0-4.2-1.8-4.2-4.4c0-2.5 1.7-4.4 4.2-4.4c2.5 0 3.9 2 3.9 3.9c-.04.04 0 .8 0 .8c0 0-7.02-.01-7 0c0 .9.6 3.1 3.1 3.1c1.1 0 2.3-.6 2.8-1.5c0 0 .8.7.8.7zm-.8-3.3c0-1.5-1.3-2.7-2.9-2.7c-2.4 0-3 2.3-3 2.7c0 0 5.9 0 5.9 0zm3.4-1.1c0-.6-.1-1.9-.1-2.3c0 0 1.1 0 1.1 0c0 .6 0 1.3.1 1.4c0 0 0 0 0 0c.5-.9 1.5-1.7 2.9-1.7c1.1 0 2.1.6 2.5 1.8c.5-1.2 1.7-1.8 2.8-1.8c2.6 0 3.2 1.8 3.2 3.6c-.02.03 0 5 0 5l-1.1 0c0 0 0-4.92 0-4.9c0-1.4-.4-2.7-2.1-2.7c-2 0-2.5 1.7-2.5 2.9c-.01 0 0 4.7 0 4.7l-1.1 0c0 0 .01-5.02 0-5c0-1.6-.5-2.6-1.7-2.6c-1.6 0-2.9 1.1-2.9 3.4c0 .02 0 4.2 0 4.2l-1.1 0c0 0 .02-6 0-6zm15.2-7.6l1.1 0l0 6.7c0 0-.01.02 0 0c.7-1.1 2.1-1.7 3.3-1.7c2.6 0 4.4 1.9 4.4 4.4c0 2.6-1.8 4.4-4.4 4.4c-1.2 0-2.6-.5-3.3-1.7c-.01.02 0 0 0 0l0 1.5l-1.1 0l0-13.6zm4.4 12.8c2.1 0 3.3-1.5 3.3-3.4c0-1.9-1.2-3.4-3.3-3.4c-1.9 0-3.5 1.5-3.5 3.4c0 1.9 1.6 3.4 3.5 3.4zm14.1-.8c-.8 1.3-2.1 1.8-3.6 1.8c-2.5 0-4.2-1.8-4.2-4.4c0-2.5 1.7-4.4 4.2-4.4c2.5 0 3.9 2 3.9 3.9c-.04.04 0 .8 0 .8c0 0-7.02-.01-7 0c0 .9.6 3.1 3.1 3.1c1.1 0 2.3-.6 2.8-1.5c0 0 .8.7.8.7zm-.8-3.3c0-1.5-1.3-2.7-2.9-2.7c-2.4 0-3 2.3-3 2.7c0 0 5.9 0 5.9 0zm3.4-1.1c0-.6-.1-1.9-.1-2.3c0 0 1.1 0 1.1 0c0 .6 0 1.3.1 1.4c.5-1 1.4-1.7 2.6-1.7c.2 0 .4.1.7.1c0 0-.2 1.1-.2 1.1c-.1-.1-.3-.1-.4-.1c-1.9 0-2.7 1.3-2.7 2.9c0 .04 0 4.6 0 4.6l-1.1 0c0 0 .02-6 0-6zm6.3 3.9c.4.8 1.4 1.3 2.4 1.3c.9 0 1.9-.6 1.9-1.5c0-2.3-5-.7-5-3.9c0-1.6 1.5-2.4 2.9-2.4c1.3 0 2.4.6 2.9 1.6c0 0-1 .6-1 .6c-.4-.8-.9-1.2-1.9-1.2c-.8 0-1.8.5-1.8 1.4c0 2.2 5 .5 5 3.8c0 1.7-1.5 2.6-3.1 2.6c-1.4 0-2.7-.5-3.3-1.7c0 0 1-.6 1-.6zm11.1-6.2l1.2 0l2 6.9l.1 0l2.3-6.9l1 0l2.5 6.9l0 0l2-6.9l1 0l-2.4 8.3l-1.1 0l-2.5-6.8l0 0l-2.4 6.8l-1.1 0l-2.6-8.3zm21.1 6.7c-.9 1.3-2.1 1.8-3.6 1.8c-2.5 0-4.2-1.8-4.2-4.4c0-2.5 1.7-4.4 4.1-4.4c2.6 0 3.9 2 3.9 3.9c.04.04 0 .8 0 .8c0 0-6.94-.01-6.9 0c0 .9.6 3.1 3.1 3.1c1.1 0 2.3-.6 2.8-1.5c0 0 .8.7.8.7zm-.8-3.3c0-1.5-1.3-2.7-2.9-2.7c-2.4 0-3 2.3-3 2.7c0 0 5.9 0 5.9 0zm3.4-1.1c0-.6-.1-1.9-.1-2.3c0 0 1.1 0 1.1 0c0 .6 0 1.3.1 1.4c.5-1 1.4-1.7 2.6-1.7c.2 0 .4.1.6.1c0 0-.1 1.1-.1 1.1c-.1-.1-.3-.1-.4-.1c-1.9 0-2.7 1.3-2.7 2.9c-.02.04 0 4.6 0 4.6l-1.1 0c0 0 0-6 0-6zm13.1 4.4c-.9 1.3-2.1 1.8-3.6 1.8c-2.5 0-4.2-1.8-4.2-4.4c0-2.5 1.7-4.4 4.1-4.4c2.6 0 3.9 2 3.9 3.9c.04.04 0 .8 0 .8c0 0-6.94-.01-6.9 0c0 .9.6 3.1 3.1 3.1c1.1 0 2.3-.6 2.8-1.5c0 0 .8.7.8.7zm-.8-3.3c0-1.5-1.3-2.7-2.9-2.7c-2.4 0-3 2.3-3 2.7c0 0 5.9 0 5.9 0z" stroke="none" fill="#000"/></g><g id="Polygon46789"><path d="m5.3 293.1c2.6 0 4.4 1.9 4.4 4.4c0 2.6-1.8 4.4-4.4 4.4c-2.5 0-4.3-1.8-4.3-4.4c0-2.5 1.8-4.4 4.3-4.4zm0 7.8c2.1 0 3.3-1.5 3.3-3.4c0-1.9-1.2-3.4-3.3-3.4c-2 0-3.2 1.5-3.2 3.4c0 1.9 1.2 3.4 3.2 3.4zm7.2-6.6l-1.8 0l0-.9l1.8 0c0 0-.02-2.75 0-2.8c0-2.1 1.4-2.7 2.5-2.7c.5 0 .9 0 1.2.2c0 0-.2.9-.2.9c-.3-.1-.6-.2-1-.2c-1 0-1.4.7-1.4 2.2c-.04.04 0 2.4 0 2.4l1.9 0l0 .9l-1.9 0l0 7.4l-1.1 0l0-7.4zm13.4 0l-2.3 0c0 0-.03 5.45 0 5.5c0 .7.4 1.1 1.1 1.1c.4 0 .9-.1 1.2-.3c0 0 .1 1 .1 1c-.4.2-1 .3-1.4.3c-1.5 0-2.1-1-2.1-2.1c-.01-.05 0-5.5 0-5.5l-1.8 0l0-.9l1.8 0l0-2.4l1.1 0l0 2.4l2.3 0l0 .9zm2-6.2l1.1 0l0 6.7c0 0-.01.02 0 0c.4-.9 1.5-1.7 2.8-1.7c2.6 0 3.2 1.8 3.2 3.6c0 .03 0 5 0 5l-1.1 0c0 0 .02-4.92 0-4.9c0-1.4-.4-2.7-2.1-2.7c-1.6 0-2.8 1.1-2.8 3.4c-.05.02 0 4.2 0 4.2l-1.1 0l0-13.6zm17.2 12c-.8 1.3-2.1 1.8-3.6 1.8c-2.5 0-4.2-1.8-4.2-4.4c0-2.5 1.7-4.4 4.2-4.4c2.5 0 3.9 2 3.9 3.9c-.02.04 0 .8 0 .8c0 0-7-.01-7 0c0 .9.6 3.1 3.1 3.1c1.1 0 2.3-.6 2.8-1.5c0 0 .8.7.8.7zm-.8-3.3c0-1.5-1.3-2.7-2.9-2.7c-2.3 0-3 2.3-3 2.7c0 0 5.9 0 5.9 0zm3.6 2.8c.4.8 1.4 1.3 2.4 1.3c.9 0 1.9-.6 1.9-1.5c0-2.3-4.9-.7-4.9-3.9c0-1.6 1.4-2.4 2.8-2.4c1.4 0 2.4.6 2.9 1.6c0 0-.9.6-.9.6c-.4-.8-1-1.2-2-1.2c-.8 0-1.8.5-1.8 1.4c0 2.2 5 .5 5 3.8c0 1.7-1.4 2.6-3 2.6c-1.4 0-2.7-.5-3.4-1.7c0 0 1-.6 1-.6zm15 .5c-.9 1.3-2.2 1.8-3.6 1.8c-2.6 0-4.3-1.8-4.3-4.4c0-2.5 1.8-4.4 4.2-4.4c2.6 0 3.9 2 3.9 3.9c.01.04 0 .8 0 .8c0 0-6.98-.01-7 0c0 .9.7 3.1 3.2 3.1c1.1 0 2.2-.6 2.8-1.5c0 0 .8.7.8.7zm-.9-3.3c0-1.5-1.3-2.7-2.9-2.7c-2.3 0-3 2.3-3 2.7c0 0 5.9 0 5.9 0zm14.7 1.4c0 1.6 0 2.5.1 3.5c0 0-1 0-1 0c-.1-.4-.1-.9-.1-1.4c0 0 0 0 0 0c-.6 1.1-1.5 1.6-2.9 1.6c-1.5 0-3-.7-3-2.5c0-2.5 3-2.8 4.6-2.8c.03.04 1.3 0 1.3 0c0 0-.01-.46 0-.5c0-1.4-1-2-2.4-2c-.9 0-1.8.3-2.5 1c0 0-.6-.8-.6-.8c.8-.7 2.1-1.2 3.1-1.2c2.1 0 3.4.9 3.4 3.1c0 0 0 2 0 2zm-2.2-.7c-1.8 0-3.6.5-3.6 1.9c0 1 1 1.5 1.9 1.5c2.3 0 2.9-1.5 2.9-2.8c-.01-.04 0-.6 0-.6c0 0-1.2 0-1.2 0zm5.1 2.1c.4.8 1.4 1.3 2.4 1.3c.9 0 1.9-.6 1.9-1.5c0-2.3-5-.7-5-3.9c0-1.6 1.5-2.4 2.9-2.4c1.3 0 2.4.6 2.9 1.6c0 0-.9.6-.9.6c-.5-.8-1-1.2-2-1.2c-.8 0-1.8.5-1.8 1.4c0 2.2 5 .5 5 3.8c0 1.7-1.5 2.6-3 2.6c-1.5 0-2.7-.5-3.4-1.7c0 0 1-.6 1-.6zm7.9 0c.4.8 1.4 1.3 2.4 1.3c.9 0 1.9-.6 1.9-1.5c0-2.3-4.9-.7-4.9-3.9c0-1.6 1.4-2.4 2.8-2.4c1.4 0 2.4.6 2.9 1.6c0 0-.9.6-.9.6c-.4-.8-1-1.2-2-1.2c-.8 0-1.8.5-1.8 1.4c0 2.2 5 .5 5 3.8c0 1.7-1.5 2.6-3 2.6c-1.5 0-2.7-.5-3.4-1.7c0 0 1-.6 1-.6zm11.5-6.5c2.6 0 4.4 1.9 4.4 4.4c0 2.6-1.8 4.4-4.4 4.4c-2.6 0-4.4-1.8-4.4-4.4c0-2.5 1.8-4.4 4.4-4.4zm0 7.8c2 0 3.3-1.5 3.3-3.4c0-1.9-1.3-3.4-3.3-3.4c-2 0-3.3 1.5-3.3 3.4c0 1.9 1.3 3.4 3.3 3.4zm13.7-.4c-.8.9-1.9 1.4-3.1 1.4c-2.5 0-4.3-1.8-4.3-4.4c0-2.5 1.8-4.4 4.3-4.4c1.3 0 2.3.6 3.1 1.5c0 0-.8.6-.8.6c-.6-.6-1.4-1.1-2.3-1.1c-2 0-3.2 1.5-3.2 3.4c0 1.9 1.2 3.4 3.2 3.4c.9 0 1.7-.4 2.3-1.1c0 0 .8.7.8.7zm1.9-7.1l1.1 0l0 8.3l-1.1 0l0-8.3zm.5-4.1c.5 0 .8.3.8.8c0 .4-.3.8-.8.8c-.4 0-.8-.4-.8-.8c0-.5.4-.8.8-.8zm9.8 8.9c0 1.6 0 2.5.1 3.5c0 0-1 0-1 0c-.1-.4-.1-.9-.1-1.4c0 0 0 0 0 0c-.6 1.1-1.5 1.6-2.9 1.6c-1.5 0-3-.7-3-2.5c0-2.5 3-2.8 4.6-2.8c.03.04 1.3 0 1.3 0c0 0-.01-.46 0-.5c0-1.4-1-2-2.3-2c-1 0-1.8.3-2.6 1c0 0-.6-.8-.6-.8c.8-.7 2.1-1.2 3.2-1.2c2 0 3.3.9 3.3 3.1c0 0 0 2 0 2zm-2.2-.7c-1.8 0-3.6.5-3.6 1.9c0 1 1 1.5 1.9 1.5c2.3 0 2.9-1.5 2.9-2.8c-.01-.04 0-.6 0-.6c0 0-1.2 0-1.2 0zm9-3.2l-2.4 0c0 0 .04 5.45 0 5.5c0 .7.5 1.1 1.2 1.1c.4 0 .8-.1 1.2-.3c0 0 .1 1 .1 1c-.4.2-1 .3-1.4.3c-1.5 0-2.1-1-2.1-2.1c-.04-.05 0-5.5 0-5.5l-1.8 0l0-.9l1.8 0l0-2.4l1 0l0 2.4l2.4 0l0 .9zm2-.9l1.1 0l0 8.3l-1.1 0l0-8.3zm.6-4.1c.4 0 .8.3.8.8c0 .4-.4.8-.8.8c-.5 0-.8-.4-.8-.8c0-.5.3-.8.8-.8zm7.3 3.8c2.5 0 4.4 1.9 4.4 4.4c0 2.6-1.9 4.4-4.4 4.4c-2.6 0-4.4-1.8-4.4-4.4c0-2.5 1.8-4.4 4.4-4.4zm0 7.8c2 0 3.3-1.5 3.3-3.4c0-1.9-1.3-3.4-3.3-3.4c-2.1 0-3.3 1.5-3.3 3.4c0 1.9 1.2 3.4 3.3 3.4zm6.7-5.2c0-.6-.1-1.9-.1-2.3c0 0 1.1 0 1.1 0c0 .6 0 1.3 0 1.4c0 0 .1 0 .1 0c.4-.9 1.5-1.7 2.8-1.7c2.6 0 3.2 1.8 3.2 3.6c.01.03 0 5 0 5l-1.1 0c0 0 .03-4.92 0-4.9c0-1.4-.4-2.7-2.1-2.7c-1.6 0-2.8 1.1-2.8 3.4c-.04.02 0 4.2 0 4.2l-1.1 0c0 0-.02-6 0-6zm10 3.9c.5.8 1.4 1.3 2.4 1.3c1 0 1.9-.6 1.9-1.5c0-2.3-4.9-.7-4.9-3.9c0-1.6 1.5-2.4 2.8-2.4c1.4 0 2.4.6 3 1.6c0 0-1 .6-1 .6c-.4-.8-1-1.2-2-1.2c-.7 0-1.7.5-1.7 1.4c0 2.2 4.9.5 4.9 3.8c0 1.7-1.4 2.6-3 2.6c-1.4 0-2.7-.5-3.3-1.7c0 0 .9-.6.9-.6z" stroke="none" fill="#000"/></g><g id="Polygon46788"><path d="m5.7 264.9l1.2 0l5.3 12.8l-1.3 0l-1.4-3.4l-6.7 0l-1.5 3.4l-1.2 0l5.6-12.8zm.5 1.3l-3 7l5.9 0l-2.9-7zm7.7 5.5c0-.6-.1-1.9-.1-2.3c0 0 1.1 0 1.1 0c0 .6 0 1.3.1 1.4c0 0 0 0 0 0c.5-.9 1.5-1.7 2.9-1.7c1.1 0 2.1.6 2.5 1.8c.5-1.2 1.6-1.8 2.8-1.8c2.6 0 3.2 1.8 3.2 3.6c-.03.03 0 5 0 5l-1.1 0c0 0-.01-4.92 0-4.9c0-1.4-.4-2.7-2.1-2.7c-2 0-2.5 1.7-2.5 2.9c-.02 0 0 4.7 0 4.7l-1.1 0c0 0 0-5.02 0-5c0-1.6-.6-2.6-1.7-2.6c-1.6 0-2.9 1.1-2.9 3.4c-.01.02 0 4.2 0 4.2l-1.1 0c0 0 .01-6 0-6zm19.2-2.6c2.5 0 4.3 1.9 4.3 4.4c0 2.6-1.8 4.4-4.3 4.4c-2.6 0-4.4-1.8-4.4-4.4c0-2.5 1.8-4.4 4.4-4.4zm0 7.8c2 0 3.3-1.5 3.3-3.4c0-1.9-1.3-3.4-3.3-3.4c-2.1 0-3.3 1.5-3.3 3.4c0 1.9 1.2 3.4 3.3 3.4zm6.7-5.2c0-.6-.1-1.9-.1-2.3c0 0 1.1 0 1.1 0c0 .6 0 1.3 0 1.4c0 0 .1 0 .1 0c.4-.9 1.5-1.7 2.8-1.7c2.6 0 3.2 1.8 3.2 3.6c0 .03 0 5 0 5l-1.1 0c0 0 .02-4.92 0-4.9c0-1.4-.4-2.7-2.1-2.7c-1.6 0-2.8 1.1-2.8 3.4c-.04.02 0 4.2 0 4.2l-1.1 0c0 0-.02-6 0-6zm18.2 5.4c0 4.2-2.8 4.9-4.5 4.9c-1.6 0-3.3-.6-4.1-1.7c0 0 .8-.8.8-.8c.8 1 2 1.5 3.3 1.5c3.3 0 3.4-2.9 3.4-3.8c-.03.01 0-1.1 0-1.1c0 0-.06-.04-.1 0c-.6.9-1.7 1.6-3.1 1.6c-2.5 0-4.5-1.9-4.5-4.3c0-2.3 2-4.3 4.5-4.3c1.4 0 2.5.7 3.1 1.7c.04-.03.1 0 .1 0l0-1.4l1.1 0c0 0-.05 7.74 0 7.7zm-4.4-7c-1.8 0-3.3 1.5-3.3 3.3c0 1.8 1.5 3.3 3.3 3.3c1.8 0 3.3-1.5 3.3-3.3c0-1.8-1.5-3.3-3.3-3.3zm15.7.2l-2.3 0c0 0-.03 5.45 0 5.5c0 .7.4 1.1 1.1 1.1c.4 0 .9-.1 1.2-.3c0 0 .1 1 .1 1c-.4.2-1 .3-1.4.3c-1.5 0-2.1-1-2.1-2.1c-.01-.05 0-5.5 0-5.5l-1.8 0l0-.9l1.8 0l0-2.4l1.1 0l0 2.4l2.3 0l0 .9zm2-6.2l1.1 0l0 6.7c0 0 0 .02 0 0c.4-.9 1.5-1.7 2.8-1.7c2.6 0 3.2 1.8 3.2 3.6c.01.03 0 5 0 5l-1.1 0c0 0 .03-4.92 0-4.9c0-1.4-.4-2.7-2.1-2.7c-1.6 0-2.8 1.1-2.8 3.4c-.04.02 0 4.2 0 4.2l-1.1 0l0-13.6zm17.2 12c-.8 1.3-2.1 1.8-3.6 1.8c-2.5 0-4.2-1.8-4.2-4.4c0-2.5 1.7-4.4 4.2-4.4c2.5 0 3.9 2 3.9 3.9c-.02.04 0 .8 0 .8c0 0-7-.01-7 0c0 .9.6 3.1 3.2 3.1c1 0 2.2-.6 2.7-1.5c0 0 .8.7.8.7zm-.8-3.3c0-1.5-1.3-2.7-2.9-2.7c-2.3 0-3 2.3-3 2.7c0 0 5.9 0 5.9 0zm8.2-1.1c0-.6-.1-1.9-.1-2.3c0 0 1.1 0 1.1 0c0 .6 0 1.3 0 1.4c0 0 .1 0 .1 0c.4-.9 1.5-1.7 2.8-1.7c1.1 0 2.1.6 2.5 1.8c.6-1.2 1.7-1.8 2.9-1.8c2.6 0 3.1 1.8 3.1 3.6c.03.03 0 5 0 5l-1 0c0 0-.05-4.92 0-4.9c0-1.4-.4-2.7-2.1-2.7c-2 0-2.6 1.7-2.6 2.9c.04 0 0 4.7 0 4.7l-1 0c0 0-.04-5.02 0-5c0-1.6-.6-2.6-1.8-2.6c-1.6 0-2.8 1.1-2.8 3.4c-.04.02 0 4.2 0 4.2l-1.1 0c0 0-.02-6 0-6zm19.1-2.6c2.6 0 4.4 1.9 4.4 4.4c0 2.6-1.8 4.4-4.4 4.4c-2.5 0-4.3-1.8-4.3-4.4c0-2.5 1.8-4.4 4.3-4.4zm0 7.8c2.1 0 3.3-1.5 3.3-3.4c0-1.9-1.2-3.4-3.3-3.4c-2 0-3.3 1.5-3.3 3.4c0 1.9 1.3 3.4 3.3 3.4zm6.8-1.3c.5.8 1.5 1.3 2.4 1.3c1 0 1.9-.6 1.9-1.5c0-2.3-4.9-.7-4.9-3.9c0-1.6 1.5-2.4 2.8-2.4c1.4 0 2.4.6 3 1.6c0 0-1 .6-1 .6c-.4-.8-1-1.2-2-1.2c-.7 0-1.7.5-1.7 1.4c0 2.2 4.9.5 4.9 3.8c0 1.7-1.4 2.6-3 2.6c-1.4 0-2.7-.5-3.3-1.7c0 0 .9-.6.9-.6zm12-5.3l-2.4 0c0 0-.02 5.45 0 5.5c0 .7.4 1.1 1.1 1.1c.4 0 .9-.1 1.3-.3c0 0 0 1 0 1c-.3.2-.9.3-1.4.3c-1.5 0-2.1-1-2.1-2.1c0-.05 0-5.5 0-5.5l-1.8 0l0-.9l1.8 0l0-2.4l1.1 0l0 2.4l2.4 0l0 .9zm6.6 5.3c.4.8 1.4 1.3 2.4 1.3c.9 0 1.9-.6 1.9-1.5c0-2.3-4.9-.7-4.9-3.9c0-1.6 1.4-2.4 2.8-2.4c1.4 0 2.4.6 2.9 1.6c0 0-.9.6-.9.6c-.4-.8-1-1.2-2-1.2c-.8 0-1.7.5-1.7 1.4c0 2.2 4.9.5 4.9 3.8c0 1.7-1.4 2.6-3 2.6c-1.4 0-2.7-.5-3.4-1.7c0 0 1-.6 1-.6zm15 .5c-.9 1.3-2.2 1.8-3.6 1.8c-2.6 0-4.3-1.8-4.3-4.4c0-2.5 1.8-4.4 4.2-4.4c2.6 0 3.9 2 3.9 3.9c.01.04 0 .8 0 .8c0 0-6.98-.01-7 0c0 .9.7 3.1 3.2 3.1c1.1 0 2.2-.6 2.8-1.5c0 0 .8.7.8.7zm-.9-3.3c0-1.5-1.2-2.7-2.9-2.7c-2.3 0-3 2.3-3 2.7c0 0 5.9 0 5.9 0zm10.4 3.7c-.8.9-1.8 1.4-3 1.4c-2.6 0-4.4-1.8-4.4-4.4c0-2.5 1.8-4.4 4.4-4.4c1.2 0 2.3.6 3.1 1.5c0 0-.9.6-.9.6c-.6-.6-1.3-1.1-2.2-1.1c-2 0-3.3 1.5-3.3 3.4c0 1.9 1.3 3.4 3.3 3.4c.9 0 1.7-.4 2.2-1.1c0 0 .8.7.8.7zm1.9-4.8c0-.6-.1-1.9-.1-2.3c0 0 1.1 0 1.1 0c0 .6 0 1.3 0 1.4c.6-1 1.4-1.7 2.7-1.7c.2 0 .4.1.6.1c0 0-.1 1.1-.1 1.1c-.2-.1-.3-.1-.4-.1c-1.9 0-2.7 1.3-2.7 2.9c-.05.04 0 4.6 0 4.6l-1.1 0c0 0-.03-6 0-6zm13.1 4.4c-.9 1.3-2.2 1.8-3.6 1.8c-2.6 0-4.3-1.8-4.3-4.4c0-2.5 1.8-4.4 4.2-4.4c2.6 0 3.9 2 3.9 3.9c.01.04 0 .8 0 .8c0 0-6.97-.01-7 0c0 .9.7 3.1 3.2 3.1c1.1 0 2.2-.6 2.8-1.5c0 0 .8.7.8.7zm-.9-3.3c0-1.5-1.2-2.7-2.8-2.7c-2.4 0-3.1 2.3-3.1 2.7c0 0 5.9 0 5.9 0zm7.5-2.5l-2.4 0c0 0 .01 5.45 0 5.5c0 .7.4 1.1 1.2 1.1c.4 0 .8-.1 1.2-.3c0 0 .1 1 .1 1c-.4.2-1 .3-1.4.3c-1.6 0-2.2-1-2.2-2.1c.03-.05 0-5.5 0-5.5l-1.8 0l0-.9l1.8 0l0-2.4l1.1 0l0 2.4l2.4 0l0 .9z" stroke="none" fill="#000"/></g><g id="Polygon46787"><path d="m7.9 250.2c0 1.6 0 2.5.2 3.5c0 0-1 0-1 0c-.1-.4-.2-.9-.2-1.4c0 0 0 0 0 0c-.6 1.1-1.5 1.6-2.9 1.6c-1.4 0-2.9-.7-2.9-2.5c0-2.5 2.9-2.8 4.6-2.8c-.03.04 1.2 0 1.2 0c0 0 .03-.46 0-.5c0-1.4-1-2-2.3-2c-1 0-1.8.3-2.5 1c0 0-.7-.8-.7-.8c.8-.7 2.1-1.2 3.2-1.2c2 0 3.3.9 3.3 3.1c0 0 0 2 0 2zm-2.2-.7c-1.8 0-3.6.5-3.6 1.9c0 1 1 1.5 1.9 1.5c2.3 0 2.9-1.5 2.9-2.8c.03-.04 0-.6 0-.6c0 0-1.16 0-1.2 0zm5-1.8c0-.6-.1-1.9-.1-2.3c0 0 1.1 0 1.1 0c0 .6 0 1.3.1 1.4c0 0 0 0 0 0c.5-.9 1.5-1.7 2.9-1.7c2.6 0 3.1 1.8 3.1 3.6c.03.03 0 5 0 5l-1 0c0 0-.05-4.92 0-4.9c0-1.4-.4-2.7-2.1-2.7c-1.6 0-2.9 1.1-2.9 3.4c-.01.02 0 4.2 0 4.2l-1.1 0c0 0 .01-6 0-6zm17.2 4.5c0 0-.05.02 0 0c-.7 1.2-2.1 1.7-3.4 1.7c-2.5 0-4.4-1.8-4.4-4.4c0-2.5 1.9-4.4 4.4-4.4c1.3 0 2.7.6 3.4 1.7c-.05.02 0 0 0 0l0-6.7l1.1 0l0 13.6l-1.1 0l0-1.5zm-3.4-6.1c-2 0-3.3 1.5-3.3 3.4c0 1.9 1.3 3.4 3.3 3.4c2 0 3.5-1.5 3.5-3.4c0-1.9-1.5-3.4-3.5-3.4zm18.8 6.4c-.9.9-1.9 1.4-3.1 1.4c-2.6 0-4.4-1.8-4.4-4.4c0-2.5 1.8-4.4 4.4-4.4c1.2 0 2.3.6 3.1 1.5c0 0-.9.6-.9.6c-.6-.6-1.3-1.1-2.2-1.1c-2 0-3.3 1.5-3.3 3.4c0 1.9 1.3 3.4 3.3 3.4c.9 0 1.7-.4 2.2-1.1c0 0 .9.7.9.7zm5.5-7.4c2.5 0 4.4 1.9 4.4 4.4c0 2.6-1.9 4.4-4.4 4.4c-2.6 0-4.4-1.8-4.4-4.4c0-2.5 1.8-4.4 4.4-4.4zm0 7.8c2 0 3.3-1.5 3.3-3.4c0-1.9-1.3-3.4-3.3-3.4c-2 0-3.3 1.5-3.3 3.4c0 1.9 1.3 3.4 3.3 3.4zm6.7-5.2c0-.6-.1-1.9-.1-2.3c0 0 1.1 0 1.1 0c0 .6 0 1.3.1 1.4c0 0 0 0 0 0c.4-.9 1.5-1.7 2.9-1.7c2.5 0 3.1 1.8 3.1 3.6c.02.03 0 5 0 5l-1.1 0c0 0 .04-4.92 0-4.9c0-1.4-.3-2.7-2-2.7c-1.7 0-2.9 1.1-2.9 3.4c-.03.02 0 4.2 0 4.2l-1.1 0c0 0-.01-6 0-6zm8.5-2.3l1.3 0l2.7 7.1l2.7-7.1l1.1 0l-3.3 8.3l-1.1 0l-3.4-8.3zm16.6 6.7c-.8 1.3-2.1 1.8-3.6 1.8c-2.5 0-4.2-1.8-4.2-4.4c0-2.5 1.7-4.4 4.2-4.4c2.5 0 3.9 2 3.9 3.9c-.03.04 0 .8 0 .8c0 0-7.01-.01-7 0c0 .9.6 3.1 3.1 3.1c1.1 0 2.3-.6 2.8-1.5c0 0 .8.7.8.7zm-.8-3.3c0-1.5-1.3-2.7-2.9-2.7c-2.3 0-3 2.3-3 2.7c0 0 5.9 0 5.9 0zm3.4-1.1c0-.6-.1-1.9-.1-2.3c0 0 1.1 0 1.1 0c0 .6.1 1.3.1 1.4c.5-1 1.4-1.7 2.6-1.7c.3 0 .4.1.7.1c0 0-.2 1.1-.2 1.1c-.1-.1-.3-.1-.4-.1c-1.8 0-2.7 1.3-2.7 2.9c.01.04 0 4.6 0 4.6l-1.1 0c0 0 .03-6 0-6zm6.3 3.9c.4.8 1.4 1.3 2.4 1.3c.9 0 1.9-.6 1.9-1.5c0-2.3-4.9-.7-4.9-3.9c0-1.6 1.4-2.4 2.8-2.4c1.3 0 2.4.6 2.9 1.6c0 0-.9.6-.9.6c-.5-.8-1-1.2-2-1.2c-.8 0-1.8.5-1.8 1.4c0 2.2 5 .5 5 3.8c0 1.7-1.5 2.6-3 2.6c-1.5 0-2.7-.5-3.4-1.7c0 0 1-.6 1-.6zm7.6-6.2l1.1 0l0 8.3l-1.1 0l0-8.3zm.6-4.1c.4 0 .8.3.8.8c0 .4-.4.8-.8.8c-.5 0-.8-.4-.8-.8c0-.5.3-.8.8-.8zm7.3 3.8c2.5 0 4.3 1.9 4.3 4.4c0 2.6-1.8 4.4-4.3 4.4c-2.6 0-4.4-1.8-4.4-4.4c0-2.5 1.8-4.4 4.4-4.4zm0 7.8c2 0 3.3-1.5 3.3-3.4c0-1.9-1.3-3.4-3.3-3.4c-2.1 0-3.3 1.5-3.3 3.4c0 1.9 1.2 3.4 3.3 3.4zm6.7-5.2c0-.6-.1-1.9-.1-2.3c0 0 1.1 0 1.1 0c0 .6 0 1.3 0 1.4c0 0 .1 0 .1 0c.4-.9 1.5-1.7 2.8-1.7c2.6 0 3.2 1.8 3.2 3.6c0 .03 0 5 0 5l-1.1 0c0 0 .02-4.92 0-4.9c0-1.4-.4-2.7-2.1-2.7c-1.6 0-2.8 1.1-2.8 3.4c-.04.02 0 4.2 0 4.2l-1.1 0c0 0-.02-6 0-6zm18.7-1.4l-2.3 0c0 0-.04 5.45 0 5.5c0 .7.4 1.1 1.1 1.1c.4 0 .9-.1 1.2-.3c0 0 .1 1 .1 1c-.4.2-1 .3-1.4.3c-1.5 0-2.1-1-2.1-2.1c-.02-.05 0-5.5 0-5.5l-1.8 0l0-.9l1.8 0l0-2.4l1.1 0l0 2.4l2.3 0l0 .9zm5.5-1.2c2.6 0 4.4 1.9 4.4 4.4c0 2.6-1.8 4.4-4.4 4.4c-2.5 0-4.3-1.8-4.3-4.4c0-2.5 1.8-4.4 4.3-4.4zm0 7.8c2.1 0 3.3-1.5 3.3-3.4c0-1.9-1.2-3.4-3.3-3.4c-2 0-3.3 1.5-3.3 3.4c0 1.9 1.3 3.4 3.3 3.4zm11.8-12l1.2 0l0 12.8l-1.2 0l0-12.8zm4.4 10.7c.4.8 1.4 1.3 2.4 1.3c.9 0 1.9-.6 1.9-1.5c0-2.3-4.9-.7-4.9-3.9c0-1.6 1.4-2.4 2.8-2.4c1.4 0 2.4.6 2.9 1.6c0 0-.9.6-.9.6c-.4-.8-1-1.2-2-1.2c-.8 0-1.8.5-1.8 1.4c0 2.2 5 .5 5 3.8c0 1.7-1.4 2.6-3 2.6c-1.5 0-2.7-.5-3.4-1.7c0 0 1-.6 1-.6zm7.7-11.5l1.1 0l0 13.6l-1.1 0l0-13.6zm10.3 10.1c0 1.6.1 2.5.2 3.5c0 0-1 0-1 0c-.1-.4-.1-.9-.1-1.4c0 0 0 0 0 0c-.7 1.1-1.6 1.6-3 1.6c-1.4 0-2.9-.7-2.9-2.5c0-2.5 3-2.8 4.6-2.8c.01.04 1.3 0 1.3 0c0 0-.03-.46 0-.5c0-1.4-1-2-2.4-2c-.9 0-1.8.3-2.5 1c0 0-.6-.8-.6-.8c.8-.7 2.1-1.2 3.1-1.2c2.1 0 3.3.9 3.3 3.1c0 0 0 2 0 2zm-2.1-.7c-1.8 0-3.6.5-3.6 1.9c0 1 1 1.5 1.9 1.5c2.3 0 2.9-1.5 2.9-2.8c-.03-.04 0-.6 0-.6c0 0-1.21 0-1.2 0zm5-1.8c0-.6-.1-1.9-.1-2.3c0 0 1 0 1 0c.1.6.1 1.3.1 1.4c0 0 .1 0 .1 0c.4-.9 1.5-1.7 2.8-1.7c1.1 0 2.1.6 2.5 1.8c.5-1.2 1.7-1.8 2.8-1.8c2.6 0 3.2 1.8 3.2 3.6c.01.03 0 5 0 5l-1.1 0c0 0 .03-4.92 0-4.9c0-1.4-.4-2.7-2.1-2.7c-2 0-2.5 1.7-2.5 2.9c.02 0 0 4.7 0 4.7l-1.1 0c0 0 .04-5.02 0-5c0-1.6-.5-2.6-1.7-2.6c-1.6 0-2.9 1.1-2.9 3.4c.03.02 0 4.2 0 4.2l-1 0c0 0-.05-6 0-6zm15.9 4.4c.5 0 .9.3.9.8c0 .5-.4.9-.9.9c-.5 0-.8-.4-.8-.9c0-.5.3-.8.8-.8z" stroke="none" fill="#000"/></g><g id="Polygon46786"><path d="m5.3 221.1c2.6 0 4.4 1.9 4.4 4.4c0 2.6-1.8 4.4-4.4 4.4c-2.5 0-4.3-1.8-4.3-4.4c0-2.5 1.8-4.4 4.3-4.4zm0 7.8c2.1 0 3.3-1.5 3.3-3.4c0-1.9-1.2-3.4-3.3-3.4c-2 0-3.2 1.5-3.2 3.4c0 1.9 1.2 3.4 3.2 3.4zm5.4-7.5l1.2 0l2.8 7.1l2.7-7.1l1.1 0l-3.3 8.3l-1.1 0l-3.4-8.3zm16.6 6.7c-.9 1.3-2.1 1.8-3.6 1.8c-2.6 0-4.2-1.8-4.2-4.4c0-2.5 1.7-4.4 4.1-4.4c2.6 0 3.9 2 3.9 3.9c.04.04 0 .8 0 .8c0 0-6.95-.01-6.9 0c0 .9.6 3.1 3.1 3.1c1.1 0 2.3-.6 2.8-1.5c0 0 .8.7.8.7zm-.8-3.3c0-1.5-1.3-2.7-2.9-2.7c-2.4 0-3 2.3-3 2.7c0 0 5.9 0 5.9 0zm3.4-1.1c0-.6-.1-1.9-.1-2.3c0 0 1.1 0 1.1 0c0 .6 0 1.3.1 1.4c.5-1 1.4-1.7 2.6-1.7c.2 0 .4.1.6.1c0 0-.1 1.1-.1 1.1c-.2-.1-.3-.1-.4-.1c-1.9 0-2.7 1.3-2.7 2.9c-.02.04 0 4.6 0 4.6l-1.1 0c0 0 0-6 0-6zm14.7-1.4l-2.3 0c0 0-.04 5.45 0 5.5c0 .7.4 1.1 1.1 1.1c.4 0 .9-.1 1.2-.3c0 0 .1 1 .1 1c-.4.2-1 .3-1.4.3c-1.5 0-2.1-1-2.1-2.1c-.02-.05 0-5.5 0-5.5l-1.8 0l0-.9l1.8 0l0-2.4l1.1 0l0 2.4l2.3 0l0 .9zm2.1-.9l1 0l0 8.3l-1 0l0-8.3zm.5-4.1c.4 0 .8.3.8.8c0 .4-.4.8-.8.8c-.5 0-.8-.4-.8-.8c0-.5.3-.8.8-.8zm3.4 6.4c0-.6 0-1.9 0-2.3c0 0 1 0 1 0c.1.6.1 1.3.1 1.4c0 0 .1 0 .1 0c.4-.9 1.5-1.7 2.8-1.7c1.1 0 2.1.6 2.5 1.8c.5-1.2 1.7-1.8 2.8-1.8c2.6 0 3.2 1.8 3.2 3.6c0 .03 0 5 0 5l-1.1 0c0 0 .02-4.92 0-4.9c0-1.4-.4-2.7-2.1-2.7c-2 0-2.5 1.7-2.5 2.9c.01 0 0 4.7 0 4.7l-1.1 0c0 0 .03-5.02 0-5c0-1.6-.5-2.6-1.7-2.6c-1.6 0-2.9 1.1-2.9 3.4c.03.02 0 4.2 0 4.2l-1.1 0c0 0 .05-6 0-6zm22.7 4.4c-.9 1.3-2.1 1.8-3.6 1.8c-2.6 0-4.2-1.8-4.2-4.4c0-2.5 1.7-4.4 4.1-4.4c2.6 0 3.9 2 3.9 3.9c.03.04 0 .8 0 .8c0 0-6.96-.01-7 0c0 .9.7 3.1 3.2 3.1c1.1 0 2.2-.6 2.8-1.5c0 0 .8.7.8.7zm-.9-3.3c0-1.5-1.2-2.7-2.8-2.7c-2.4 0-3.1 2.3-3.1 2.7c0 0 5.9 0 5.9 0zm7-3.4l1.2 0l2.1 6.9l0 0l2.3-6.9l1 0l2.5 6.9l0 0l2-6.9l1.1 0l-2.5 8.3l-1.1 0l-2.5-6.8l0 0l-2.3 6.8l-1.1 0l-2.7-8.3zm14.1 0l1 0l0 8.3l-1 0l0-8.3zm.5-4.1c.5 0 .8.3.8.8c0 .4-.3.8-.8.8c-.4 0-.8-.4-.8-.8c0-.5.4-.8.8-.8zm7.7 5l-2.4 0c0 0-.02 5.45 0 5.5c0 .7.4 1.1 1.1 1.1c.4 0 .9-.1 1.3-.3c0 0 0 1 0 1c-.4.2-.9.3-1.4.3c-1.5 0-2.1-1-2.1-2.1c0-.05 0-5.5 0-5.5l-1.8 0l0-.9l1.8 0l0-2.4l1.1 0l0 2.4l2.4 0l0 .9zm1.9-6.2l1.1 0l0 6.7c0 0 0 .02 0 0c.4-.9 1.5-1.7 2.8-1.7c2.6 0 3.2 1.8 3.2 3.6c.01.03 0 5 0 5l-1.1 0c0 0 .03-4.92 0-4.9c0-1.4-.3-2.7-2.1-2.7c-1.6 0-2.8 1.1-2.8 3.4c-.03.02 0 4.2 0 4.2l-1.1 0l0-13.6zm21.6 12.4c-.8.9-1.8 1.4-3 1.4c-2.6 0-4.4-1.8-4.4-4.4c0-2.5 1.8-4.4 4.4-4.4c1.2 0 2.3.6 3.1 1.5c0 0-.9.6-.9.6c-.6-.6-1.4-1.1-2.2-1.1c-2.1 0-3.3 1.5-3.3 3.4c0 1.9 1.2 3.4 3.3 3.4c.9 0 1.7-.4 2.2-1.1c0 0 .8.7.8.7zm5.6-7.4c2.5 0 4.3 1.9 4.3 4.4c0 2.6-1.8 4.4-4.3 4.4c-2.6 0-4.4-1.8-4.4-4.4c0-2.5 1.8-4.4 4.4-4.4zm0 7.8c2 0 3.3-1.5 3.3-3.4c0-1.9-1.3-3.4-3.3-3.4c-2.1 0-3.3 1.5-3.3 3.4c0 1.9 1.2 3.4 3.3 3.4zm6.8-12.8l1.1 0l0 13.6l-1.1 0l0-13.6zm7.9 5c2.5 0 4.4 1.9 4.4 4.4c0 2.6-1.9 4.4-4.4 4.4c-2.6 0-4.4-1.8-4.4-4.4c0-2.5 1.8-4.4 4.4-4.4zm0 7.8c2 0 3.3-1.5 3.3-3.4c0-1.9-1.3-3.4-3.3-3.4c-2 0-3.3 1.5-3.3 3.4c0 1.9 1.3 3.4 3.3 3.4zm6.7-5.2c0-.6-.1-1.9-.1-2.3c0 0 1.1 0 1.1 0c0 .6 0 1.3 0 1.4c0 0 .1 0 .1 0c.4-.9 1.5-1.7 2.8-1.7c2.6 0 3.2 1.8 3.2 3.6c.01.03 0 5 0 5l-1.1 0c0 0 .03-4.92 0-4.9c0-1.4-.3-2.7-2.1-2.7c-1.6 0-2.8 1.1-2.8 3.4c-.03.02 0 4.2 0 4.2l-1.1 0c0 0-.01-6 0-6zm10-2.3l1 0l0 8.3l-1 0l0-8.3zm.5-4.1c.5 0 .8.3.8.8c0 .4-.3.8-.8.8c-.4 0-.8-.4-.8-.8c0-.5.4-.8.8-.8zm9.7 8.9c0 1.6.1 2.5.2 3.5c0 0-1 0-1 0c-.1-.4-.1-.9-.1-1.4c0 0-.1 0-.1 0c-.6 1.1-1.5 1.6-2.9 1.6c-1.4 0-2.9-.7-2.9-2.5c0-2.5 3-2.8 4.6-2.8c0 .04 1.3 0 1.3 0c0 0-.04-.46 0-.5c0-1.4-1-2-2.4-2c-.9 0-1.8.3-2.5 1c0 0-.6-.8-.6-.8c.7-.7 2-1.2 3.1-1.2c2 0 3.3.9 3.3 3.1c0 0 0 2 0 2zm-2.1-.7c-1.8 0-3.6.5-3.6 1.9c0 1 1 1.5 1.9 1.5c2.3 0 2.9-1.5 2.9-2.8c-.04-.04 0-.6 0-.6c0 0-1.22 0-1.2 0zm5-9.4l1.1 0l0 13.6l-1.1 0l0-13.6zm4.1 5.3l1.1 0l0 8.3l-1.1 0l0-8.3zm.5-4.1c.5 0 .8.3.8.8c0 .4-.3.8-.8.8c-.4 0-.8-.4-.8-.8c0-.5.4-.8.8-.8zm3.6 10.3c.5.8 1.4 1.3 2.4 1.3c1 0 1.9-.6 1.9-1.5c0-2.3-4.9-.7-4.9-3.9c0-1.6 1.5-2.4 2.8-2.4c1.4 0 2.4.6 3 1.6c0 0-1 .6-1 .6c-.4-.8-1-1.2-2-1.2c-.7 0-1.7.5-1.7 1.4c0 2.2 4.9.5 4.9 3.8c0 1.7-1.4 2.6-3 2.6c-1.4 0-2.7-.5-3.4-1.7c0 0 1-.6 1-.6zm7.6-3.9c0-.6-.1-1.9-.1-2.3c0 0 1.1 0 1.1 0c0 .6 0 1.3.1 1.4c0 0 0 0 0 0c.5-.9 1.5-1.7 2.9-1.7c1.1 0 2.1.6 2.5 1.8c.5-1.2 1.6-1.8 2.8-1.8c2.6 0 3.2 1.8 3.2 3.6c-.04.03 0 5 0 5l-1.1 0c0 0-.02-4.92 0-4.9c0-1.4-.4-2.7-2.1-2.7c-2 0-2.5 1.7-2.5 2.9c-.02 0 0 4.7 0 4.7l-1.1 0c0 0 0-5.02 0-5c0-1.6-.6-2.6-1.7-2.6c-1.6 0-2.9 1.1-2.9 3.4c-.01.02 0 4.2 0 4.2l-1.1 0c0 0 .01-6 0-6z" stroke="none" fill="#000"/></g><g id="Polygon46785"><path d="m1.6 197.4l1.1 0l0 8.3l-1.1 0l0-8.3zm.6-4.1c.4 0 .8.3.8.8c0 .4-.4.8-.8.8c-.5 0-.9-.4-.9-.8c0-.5.4-.8.9-.8zm3.4 6.4c0-.6-.1-1.9-.1-2.3c0 0 1.1 0 1.1 0c0 .6 0 1.3.1 1.4c0 0 0 0 0 0c.5-.9 1.5-1.7 2.9-1.7c2.6 0 3.1 1.8 3.1 3.6c.03.03 0 5 0 5l-1 0c0 0-.05-4.92 0-4.9c0-1.4-.4-2.7-2.1-2.7c-1.6 0-2.9 1.1-2.9 3.4c-.01.02 0 4.2 0 4.2l-1.1 0c0 0 .01-6 0-6zm10-2.3l1.1 0l0 8.3l-1.1 0l0-8.3zm.5-4.1c.5 0 .8.3.8.8c0 .4-.3.8-.8.8c-.4 0-.8-.4-.8-.8c0-.5.4-.8.8-.8zm7.7 5l-2.4 0c0 0 0 5.45 0 5.5c0 .7.4 1.1 1.2 1.1c.4 0 .8-.1 1.2-.3c0 0 .1 1 .1 1c-.4.2-1 .3-1.4.3c-1.6 0-2.2-1-2.2-2.1c.02-.05 0-5.5 0-5.5l-1.8 0l0-.9l1.8 0l0-2.4l1.1 0l0 2.4l2.4 0l0 .9zm2-.9l1.1 0l0 8.3l-1.1 0l0-8.3zm.5-4.1c.5 0 .8.3.8.8c0 .4-.3.8-.8.8c-.4 0-.8-.4-.8-.8c0-.5.4-.8.8-.8zm9.8 8.9c0 1.6 0 2.5.1 3.5c0 0-1 0-1 0c-.1-.4-.1-.9-.1-1.4c0 0 0 0 0 0c-.6 1.1-1.5 1.6-2.9 1.6c-1.5 0-3-.7-3-2.5c0-2.5 3-2.8 4.6-2.8c.03.04 1.3 0 1.3 0c0 0-.01-.46 0-.5c0-1.4-1-2-2.3-2c-1 0-1.8.3-2.6 1c0 0-.6-.8-.6-.8c.8-.7 2.1-1.2 3.2-1.2c2 0 3.3.9 3.3 3.1c0 0 0 2 0 2zm-2.2-.7c-1.8 0-3.6.5-3.6 1.9c0 1 1 1.5 1.9 1.5c2.3 0 2.9-1.5 2.9-2.8c-.01-.04 0-.6 0-.6c0 0-1.2 0-1.2 0zm9-3.2l-2.4 0c0 0 .04 5.45 0 5.5c0 .7.5 1.1 1.2 1.1c.4 0 .8-.1 1.2-.3c0 0 .1 1 .1 1c-.4.2-1 .3-1.4.3c-1.5 0-2.1-1-2.1-2.1c-.04-.05 0-5.5 0-5.5l-1.8 0l0-.9l1.8 0l0-2.4l1 0l0 2.4l2.4 0l0 .9zm9 5.8c-.8 1.3-2.1 1.8-3.6 1.8c-2.5 0-4.2-1.8-4.2-4.4c0-2.5 1.7-4.4 4.2-4.4c2.5 0 3.9 2 3.9 3.9c-.04.04 0 .8 0 .8c0 0-7.03-.01-7 0c0 .9.6 3.1 3.1 3.1c1.1 0 2.3-.6 2.8-1.5c0 0 .8.7.8.7zm-.8-3.3c0-1.5-1.3-2.7-2.9-2.7c-2.4 0-3 2.3-3 2.7c0 0 5.9 0 5.9 0zm10.7 3.4c0 0-.03.02 0 0c-.7 1.2-2.1 1.7-3.4 1.7c-2.5 0-4.3-1.8-4.3-4.4c0-2.5 1.8-4.4 4.3-4.4c1.3 0 2.7.6 3.4 1.7c-.03.02 0 0 0 0l0-6.7l1.1 0l0 13.6l-1.1 0l0-1.5zm-3.4-6.1c-2 0-3.3 1.5-3.3 3.4c0 1.9 1.3 3.4 3.3 3.4c2 0 3.5-1.5 3.5-3.4c0-1.9-1.5-3.4-3.5-3.4zm7.5 6l1.3 0l-1.4 4.1l-1.1 0l1.2-4.1zm7.6-6.7l1.2 0l2 6.9l0 0l2.3-6.9l1.1 0l2.4 6.9l.1 0l1.9-6.9l1.1 0l-2.4 8.3l-1.2 0l-2.4-6.8l-.1 0l-2.3 6.8l-1.1 0l-2.6-8.3zm13.9-5.3l1.1 0l0 6.7c0 0 .02.02 0 0c.5-.9 1.5-1.7 2.9-1.7c2.6 0 3.1 1.8 3.1 3.6c.03.03 0 5 0 5l-1 0c0 0-.05-4.92 0-4.9c0-1.4-.4-2.7-2.1-2.7c-1.6 0-2.9 1.1-2.9 3.4c-.01.02 0 4.2 0 4.2l-1.1 0l0-13.6zm10 5.3l1.1 0l0 8.3l-1.1 0l0-8.3zm.5-4.1c.5 0 .8.3.8.8c0 .4-.3.8-.8.8c-.4 0-.8-.4-.8-.8c0-.5.4-.8.8-.8zm10.4 11.2c-.8.9-1.9 1.4-3.1 1.4c-2.5 0-4.3-1.8-4.3-4.4c0-2.5 1.8-4.4 4.3-4.4c1.2 0 2.3.6 3.1 1.5c0 0-.8.6-.8.6c-.7-.6-1.4-1.1-2.3-1.1c-2 0-3.3 1.5-3.3 3.4c0 1.9 1.3 3.4 3.3 3.4c.9 0 1.7-.4 2.3-1.1c0 0 .8.7.8.7zm1.8-12.4l1.1 0l0 6.7c0 0 0 .02 0 0c.4-.9 1.5-1.7 2.8-1.7c2.6 0 3.2 1.8 3.2 3.6c.01.03 0 5 0 5l-1.1 0c0 0 .03-4.92 0-4.9c0-1.4-.3-2.7-2.1-2.7c-1.6 0-2.8 1.1-2.8 3.4c-.04.02 0 4.2 0 4.2l-1.1 0l0-13.6zm21.6 12.4c-.8.9-1.8 1.4-3 1.4c-2.6 0-4.4-1.8-4.4-4.4c0-2.5 1.8-4.4 4.4-4.4c1.2 0 2.3.6 3.1 1.5c0 0-.9.6-.9.6c-.6-.6-1.4-1.1-2.2-1.1c-2.1 0-3.3 1.5-3.3 3.4c0 1.9 1.2 3.4 3.3 3.4c.9 0 1.7-.4 2.2-1.1c0 0 .8.7.8.7zm1.8-12.4l1.1 0l0 6.7c0 0 .05.02.1 0c.4-.9 1.4-1.7 2.8-1.7c2.6 0 3.2 1.8 3.2 3.6c-.04.03 0 5 0 5l-1.1 0c0 0-.02-4.92 0-4.9c0-1.4-.4-2.7-2.1-2.7c-1.6 0-2.9 1.1-2.9 3.4c.02.02 0 4.2 0 4.2l-1.1 0l0-13.6zm16.3 10.1c0 1.6 0 2.5.2 3.5c0 0-1 0-1 0c-.1-.4-.2-.9-.2-1.4c0 0 0 0 0 0c-.6 1.1-1.5 1.6-2.9 1.6c-1.4 0-2.9-.7-2.9-2.5c0-2.5 2.9-2.8 4.6-2.8c-.03.04 1.2 0 1.2 0c0 0 .03-.46 0-.5c0-1.4-1-2-2.3-2c-1 0-1.8.3-2.6 1c0 0-.6-.8-.6-.8c.8-.7 2.1-1.2 3.2-1.2c2 0 3.3.9 3.3 3.1c0 0 0 2 0 2zm-2.2-.7c-1.8 0-3.6.5-3.6 1.9c0 1 1 1.5 1.9 1.5c2.3 0 2.9-1.5 2.9-2.8c.03-.04 0-.6 0-.6c0 0-1.16 0-1.2 0zm5-1.8c0-.6-.1-1.9-.1-2.3c0 0 1.1 0 1.1 0c0 .6 0 1.3.1 1.4c0 0 0 0 0 0c.4-.9 1.5-1.7 2.9-1.7c2.6 0 3.1 1.8 3.1 3.6c.03.03 0 5 0 5l-1.1 0c0 0 .05-4.92 0-4.9c0-1.4-.3-2.7-2-2.7c-1.6 0-2.9 1.1-2.9 3.4c-.02.02 0 4.2 0 4.2l-1.1 0c0 0 0-6 0-6zm18.2 5.4c0 4.2-2.8 4.9-4.4 4.9c-1.7 0-3.3-.6-4.2-1.7c0 0 .9-.8.9-.8c.7 1 2 1.5 3.3 1.5c3.2 0 3.3-2.9 3.3-3.8c0 .01 0-1.1 0-1.1c0 0-.04-.04 0 0c-.7.9-1.8 1.6-3.2 1.6c-2.4 0-4.4-1.9-4.4-4.3c0-2.3 2-4.3 4.4-4.3c1.4 0 2.5.7 3.2 1.7c-.04-.03 0 0 0 0l0-1.4l1.1 0c0 0-.02 7.74 0 7.7zm-4.4-7c-1.8 0-3.3 1.5-3.3 3.3c0 1.8 1.5 3.3 3.3 3.3c1.9 0 3.3-1.5 3.3-3.3c0-1.8-1.4-3.3-3.3-3.3zm14.4 6c-.8 1.3-2.1 1.8-3.6 1.8c-2.5 0-4.2-1.8-4.2-4.4c0-2.5 1.8-4.4 4.2-4.4c2.5 0 3.9 2 3.9 3.9c0 .04 0 .8 0 .8c0 0-6.98-.01-7 0c0 .9.6 3.1 3.2 3.1c1.1 0 2.2-.6 2.8-1.5c0 0 .7.7.7.7zm-.8-3.3c0-1.5-1.3-2.7-2.9-2.7c-2.3 0-3 2.3-3 2.7c0 0 5.9 0 5.9 0zm10.7 3.4c0 0 .01.02 0 0c-.7 1.2-2.1 1.7-3.3 1.7c-2.6 0-4.4-1.8-4.4-4.4c0-2.5 1.8-4.4 4.4-4.4c1.2 0 2.6.6 3.3 1.7c.01.02 0 0 0 0l0-6.7l1.1 0l0 13.6l-1.1 0l0-1.5zm-3.3-6.1c-2.1 0-3.3 1.5-3.3 3.4c0 1.9 1.2 3.4 3.3 3.4c1.9 0 3.5-1.5 3.5-3.4c0-1.9-1.6-3.4-3.5-3.4z" stroke="none" fill="#000"/></g><g id="Polygon46784"><path d="m1.6 173.4l1.1 0l0 8.3l-1.1 0l0-8.3zm.6-4.1c.4 0 .8.3.8.8c0 .4-.4.8-.8.8c-.5 0-.9-.4-.9-.8c0-.5.4-.8.9-.8zm3.4 6.4c0-.6-.1-1.9-.1-2.3c0 0 1.1 0 1.1 0c0 .6 0 1.3.1 1.4c0 0 0 0 0 0c.5-.9 1.5-1.7 2.9-1.7c2.6 0 3.1 1.8 3.1 3.6c.03.03 0 5 0 5l-1 0c0 0-.05-4.92 0-4.9c0-1.4-.4-2.7-2.1-2.7c-1.6 0-2.9 1.1-2.9 3.4c-.01.02 0 4.2 0 4.2l-1.1 0c0 0 .01-6 0-6zm13.9-1.4l-2.3 0c0 0-.03 5.45 0 5.5c0 .7.4 1.1 1.1 1.1c.4 0 .9-.1 1.2-.3c0 0 .1 1 .1 1c-.4.2-1 .3-1.4.3c-1.5 0-2.1-1-2.1-2.1c-.01-.05 0-5.5 0-5.5l-1.8 0l0-.9l1.8 0l0-2.4l1.1 0l0 2.4l2.3 0l0 .9zm5.6-1.2c2.5 0 4.3 1.9 4.3 4.4c0 2.6-1.8 4.4-4.3 4.4c-2.6 0-4.4-1.8-4.4-4.4c0-2.5 1.8-4.4 4.4-4.4zm0 7.8c2 0 3.2-1.5 3.2-3.4c0-1.9-1.2-3.4-3.2-3.4c-2.1 0-3.3 1.5-3.3 3.4c0 1.9 1.2 3.4 3.3 3.4zm10.3-7.5l1.1 0l2.1 6.9l0 0l2.3-6.9l1 0l2.5 6.9l0 0l2-6.9l1.1 0l-2.5 8.3l-1.1 0l-2.5-6.8l0 0l-2.3 6.8l-1.1 0l-2.6-8.3zm13.9-5.3l1.1 0l0 6.7c0 0 0 .02 0 0c.4-.9 1.5-1.7 2.8-1.7c2.6 0 3.2 1.8 3.2 3.6c.01.03 0 5 0 5l-1.1 0c0 0 .03-4.92 0-4.9c0-1.4-.3-2.7-2.1-2.7c-1.6 0-2.8 1.1-2.8 3.4c-.04.02 0 4.2 0 4.2l-1.1 0l0-13.6zm10 5.3l1 0l0 8.3l-1 0l0-8.3zm.5-4.1c.5 0 .8.3.8.8c0 .4-.3.8-.8.8c-.4 0-.8-.4-.8-.8c0-.5.4-.8.8-.8zm10.4 11.2c-.8.9-1.9 1.4-3.1 1.4c-2.6 0-4.4-1.8-4.4-4.4c0-2.5 1.8-4.4 4.4-4.4c1.2 0 2.3.6 3.1 1.5c0 0-.9.6-.9.6c-.6-.6-1.3-1.1-2.2-1.1c-2 0-3.3 1.5-3.3 3.4c0 1.9 1.3 3.4 3.3 3.4c.9 0 1.7-.4 2.2-1.1c0 0 .9.7.9.7zm1.8-12.4l1 0l0 6.7c0 0 .08.02.1 0c.4-.9 1.5-1.7 2.8-1.7c2.6 0 3.2 1.8 3.2 3.6c-.01.03 0 5 0 5l-1.1 0c0 0 .01-4.92 0-4.9c0-1.4-.4-2.7-2.1-2.7c-1.6 0-2.9 1.1-2.9 3.4c.04.02 0 4.2 0 4.2l-1 0l0-13.6zm14.6 7.6c0-.6 0-1.9 0-2.3c0 0 1 0 1 0c.1.6.1 1.3.1 1.4c0 0 .1 0 .1 0c.4-.9 1.5-1.7 2.8-1.7c1.1 0 2.1.6 2.5 1.8c.5-1.2 1.7-1.8 2.8-1.8c2.6 0 3.2 1.8 3.2 3.6c0 .03 0 5 0 5l-1.1 0c0 0 .02-4.92 0-4.9c0-1.4-.4-2.7-2.1-2.7c-2 0-2.5 1.7-2.5 2.9c.02 0 0 4.7 0 4.7l-1.1 0c0 0 .04-5.02 0-5c0-1.6-.5-2.6-1.7-2.6c-1.6 0-2.9 1.1-2.9 3.4c.03.02 0 4.2 0 4.2l-1.1 0c0 0 .05-6 0-6zm22.7 4.4c-.9 1.3-2.1 1.8-3.6 1.8c-2.6 0-4.2-1.8-4.2-4.4c0-2.5 1.7-4.4 4.1-4.4c2.6 0 3.9 2 3.9 3.9c.03.04 0 .8 0 .8c0 0-6.96-.01-7 0c0 .9.7 3.1 3.2 3.1c1.1 0 2.2-.6 2.8-1.5c0 0 .8.7.8.7zm-.9-3.3c0-1.5-1.2-2.7-2.8-2.7c-2.4 0-3.1 2.3-3.1 2.7c0 0 5.9 0 5.9 0zm3.5-1.1c0-.6-.1-1.9-.1-2.3c0 0 1.1 0 1.1 0c0 .6 0 1.3 0 1.4c0 0 .1 0 .1 0c.4-.9 1.5-1.7 2.8-1.7c1.1 0 2.2.6 2.5 1.8c.6-1.2 1.7-1.8 2.9-1.8c2.6 0 3.1 1.8 3.1 3.6c.04.03 0 5 0 5l-1 0c0 0-.04-4.92 0-4.9c0-1.4-.4-2.7-2.1-2.7c-2 0-2.5 1.7-2.5 2.9c-.05 0 0 4.7 0 4.7l-1.1 0c0 0-.03-5.02 0-5c0-1.6-.6-2.6-1.8-2.6c-1.6 0-2.8 1.1-2.8 3.4c-.03.02 0 4.2 0 4.2l-1.1 0c0 0-.01-6 0-6zm15.1-7.6l1.1 0l0 6.7c0 0 .05.02.1 0c.6-1.1 2-1.7 3.3-1.7c2.5 0 4.4 1.9 4.4 4.4c0 2.6-1.9 4.4-4.4 4.4c-1.3 0-2.7-.5-3.3-1.7c-.05.02-.1 0-.1 0l0 1.5l-1.1 0l0-13.6zm4.5 12.8c2 0 3.3-1.5 3.3-3.4c0-1.9-1.3-3.4-3.3-3.4c-2 0-3.5 1.5-3.5 3.4c0 1.9 1.5 3.4 3.5 3.4zm14.1-.8c-.9 1.3-2.2 1.8-3.6 1.8c-2.6 0-4.2-1.8-4.2-4.4c0-2.5 1.7-4.4 4.1-4.4c2.6 0 3.9 2 3.9 3.9c.03.04 0 .8 0 .8c0 0-6.96-.01-7 0c0 .9.7 3.1 3.2 3.1c1.1 0 2.2-.6 2.8-1.5c0 0 .8.7.8.7zm-.9-3.3c0-1.5-1.2-2.7-2.8-2.7c-2.4 0-3.1 2.3-3.1 2.7c0 0 5.9 0 5.9 0zm3.5-1.1c0-.6-.1-1.9-.1-2.3c0 0 1.1 0 1.1 0c0 .6 0 1.3 0 1.4c.6-1 1.4-1.7 2.7-1.7c.2 0 .4.1.6.1c0 0-.1 1.1-.1 1.1c-.2-.1-.3-.1-.4-.1c-1.9 0-2.7 1.3-2.7 2.9c-.04.04 0 4.6 0 4.6l-1.1 0c0 0-.02-6 0-6zm6.2 3.9c.5.8 1.5 1.3 2.4 1.3c1 0 1.9-.6 1.9-1.5c0-2.3-4.9-.7-4.9-3.9c0-1.6 1.5-2.4 2.9-2.4c1.3 0 2.3.6 2.9 1.6c0 0-1 .6-1 .6c-.4-.8-1-1.2-1.9-1.2c-.8 0-1.8.5-1.8 1.4c0 2.2 4.9.5 4.9 3.8c0 1.7-1.4 2.6-3 2.6c-1.4 0-2.7-.5-3.3-1.7c0 0 .9-.6.9-.6zm18.8-1.4c0 1.6 0 2.5.2 3.5c0 0-1 0-1 0c-.1-.4-.1-.9-.1-1.4c0 0-.1 0-.1 0c-.6 1.1-1.5 1.6-2.9 1.6c-1.4 0-2.9-.7-2.9-2.5c0-2.5 2.9-2.8 4.6-2.8c-.02.04 1.2 0 1.2 0c0 0 .04-.46 0-.5c0-1.4-1-2-2.3-2c-1 0-1.8.3-2.5 1c0 0-.7-.8-.7-.8c.8-.7 2.1-1.2 3.2-1.2c2 0 3.3.9 3.3 3.1c0 0 0 2 0 2zm-2.1-.7c-1.8 0-3.6.5-3.6 1.9c0 1 .9 1.5 1.8 1.5c2.3 0 2.9-1.5 2.9-2.8c.04-.04 0-.6 0-.6c0 0-1.15 0-1.1 0zm4.9-1.8c0-.6-.1-1.9-.1-2.3c0 0 1.1 0 1.1 0c0 .6 0 1.3.1 1.4c.5-1 1.4-1.7 2.6-1.7c.2 0 .4.1.7.1c0 0-.2 1.1-.2 1.1c-.1-.1-.3-.1-.4-.1c-1.9 0-2.7 1.3-2.7 2.9c0 .04 0 4.6 0 4.6l-1.1 0c0 0 .02-6 0-6zm13.1 4.4c-.8 1.3-2.1 1.8-3.6 1.8c-2.5 0-4.2-1.8-4.2-4.4c0-2.5 1.7-4.4 4.2-4.4c2.5 0 3.9 2 3.9 3.9c-.04.04 0 .8 0 .8c0 0-7.03-.01-7 0c0 .9.6 3.1 3.1 3.1c1.1 0 2.3-.6 2.8-1.5c0 0 .8.7.8.7zm-.8-3.3c0-1.5-1.3-2.7-2.9-2.7c-2.4 0-3 2.3-3 2.7c0 0 5.9 0 5.9 0z" stroke="none" fill="#000"/></g><g id="Polygon46783"><path d="m5.3 149.1c2.6 0 4.4 1.9 4.4 4.4c0 2.6-1.8 4.4-4.4 4.4c-2.5 0-4.3-1.8-4.3-4.4c0-2.5 1.8-4.4 4.3-4.4zm0 7.8c2.1 0 3.3-1.5 3.3-3.4c0-1.9-1.2-3.4-3.3-3.4c-2 0-3.2 1.5-3.2 3.4c0 1.9 1.2 3.4 3.2 3.4zm7.2-6.6l-1.8 0l0-.9l1.8 0c0 0-.02-2.75 0-2.8c0-2.1 1.4-2.7 2.5-2.7c.5 0 .9 0 1.2.2c0 0-.2.9-.2.9c-.3-.1-.6-.2-1-.2c-1 0-1.4.7-1.4 2.2c-.04.04 0 2.4 0 2.4l1.9 0l0 .9l-1.9 0l0 7.4l-1.1 0l0-7.4zm9.4 1.4c0-.6-.1-1.9-.1-2.3c0 0 1.1 0 1.1 0c0 .6 0 1.3 0 1.4c0 0 .1 0 .1 0c.4-.9 1.5-1.7 2.8-1.7c2.6 0 3.2 1.8 3.2 3.6c0 .03 0 5 0 5l-1.1 0c0 0 .02-4.92 0-4.9c0-1.4-.4-2.7-2.1-2.7c-1.6 0-2.8 1.1-2.8 3.4c-.05.02 0 4.2 0 4.2l-1.1 0c0 0-.03-6 0-6zm13.8-2.6c2.5 0 4.4 1.9 4.4 4.4c0 2.6-1.9 4.4-4.4 4.4c-2.6 0-4.4-1.8-4.4-4.4c0-2.5 1.8-4.4 4.4-4.4zm0 7.8c2 0 3.3-1.5 3.3-3.4c0-1.9-1.3-3.4-3.3-3.4c-2 0-3.3 1.5-3.3 3.4c0 1.9 1.3 3.4 3.3 3.4zm6.7-5.2c0-.6-.1-1.9-.1-2.3c0 0 1.1 0 1.1 0c0 .6 0 1.3.1 1.4c0 0 0 0 0 0c.4-.9 1.5-1.7 2.8-1.7c2.6 0 3.2 1.8 3.2 3.6c.02.03 0 5 0 5l-1.1 0c0 0 .04-4.92 0-4.9c0-1.4-.3-2.7-2.1-2.7c-1.6 0-2.8 1.1-2.8 3.4c-.03.02 0 4.2 0 4.2l-1.1 0c0 0-.01-6 0-6zm9.4 1.2l4.5 0l0 1l-4.5 0l0-1zm6.8-8.8l1.1 0l0 9l4.1-3.7l1.6 0l-4.3 3.8l4.8 4.5l-1.7 0l-4.5-4.4l0 4.4l-1.1 0l0-13.6zm9 5.3l1.1 0l0 8.3l-1.1 0l0-8.3zm.5-4.1c.5 0 .8.3.8.8c0 .4-.3.8-.8.8c-.4 0-.8-.4-.8-.8c0-.5.4-.8.8-.8zm3.5 6.4c0-.6-.1-1.9-.1-2.3c0 0 1.1 0 1.1 0c0 .6 0 1.3 0 1.4c0 0 .1 0 .1 0c.4-.9 1.5-1.7 2.8-1.7c2.6 0 3.2 1.8 3.2 3.6c0 .03 0 5 0 5l-1.1 0c0 0 .02-4.92 0-4.9c0-1.4-.4-2.7-2.1-2.7c-1.6 0-2.8 1.1-2.8 3.4c-.04.02 0 4.2 0 4.2l-1.1 0c0 0-.02-6 0-6zm21.1 2.5c0 1.6.1 2.5.2 3.5c0 0-1 0-1 0c-.1-.4-.1-.9-.1-1.4c0 0-.1 0-.1 0c-.6 1.1-1.5 1.6-2.9 1.6c-1.4 0-2.9-.7-2.9-2.5c0-2.5 3-2.8 4.6-2.8c-.01.04 1.3 0 1.3 0c0 0-.05-.46 0-.5c0-1.4-1.1-2-2.4-2c-1 0-1.8.3-2.5 1c0 0-.7-.8-.7-.8c.8-.7 2.1-1.2 3.2-1.2c2 0 3.3.9 3.3 3.1c0 0 0 2 0 2zm-2.1-.7c-1.8 0-3.6.5-3.6 1.9c0 1 1 1.5 1.9 1.5c2.3 0 2.9-1.5 2.9-2.8c-.05-.04 0-.6 0-.6c0 0-1.23 0-1.2 0zm5 2.1c.5.8 1.5 1.3 2.4 1.3c1 0 1.9-.6 1.9-1.5c0-2.3-4.9-.7-4.9-3.9c0-1.6 1.5-2.4 2.9-2.4c1.3 0 2.4.6 2.9 1.6c0 0-1 .6-1 .6c-.4-.8-1-1.2-1.9-1.2c-.8 0-1.8.5-1.8 1.4c0 2.2 4.9.5 4.9 3.8c0 1.7-1.4 2.6-3 2.6c-1.4 0-2.7-.5-3.3-1.7c0 0 .9-.6.9-.6zm7.9 0c.5.8 1.5 1.3 2.4 1.3c1 0 2-.6 2-1.5c0-2.3-5-.7-5-3.9c0-1.6 1.5-2.4 2.9-2.4c1.3 0 2.4.6 2.9 1.6c0 0-1 .6-1 .6c-.4-.8-1-1.2-1.9-1.2c-.8 0-1.8.5-1.8 1.4c0 2.2 4.9.5 4.9 3.8c0 1.7-1.4 2.6-3 2.6c-1.4 0-2.7-.5-3.3-1.7c0 0 .9-.6.9-.6zm11.6-6.5c2.5 0 4.3 1.9 4.3 4.4c0 2.6-1.8 4.4-4.3 4.4c-2.6 0-4.4-1.8-4.4-4.4c0-2.5 1.8-4.4 4.4-4.4zm0 7.8c2 0 3.3-1.5 3.3-3.4c0-1.9-1.3-3.4-3.3-3.4c-2.1 0-3.3 1.5-3.3 3.4c0 1.9 1.2 3.4 3.3 3.4zm13.7-.4c-.8.9-1.9 1.4-3.1 1.4c-2.5 0-4.4-1.8-4.4-4.4c0-2.5 1.9-4.4 4.4-4.4c1.2 0 2.3.6 3.1 1.5c0 0-.9.6-.9.6c-.6-.6-1.3-1.1-2.2-1.1c-2 0-3.3 1.5-3.3 3.4c0 1.9 1.3 3.4 3.3 3.4c.9 0 1.7-.4 2.2-1.1c0 0 .9.7.9.7zm1.9-7.1l1 0l0 8.3l-1 0l0-8.3zm.5-4.1c.5 0 .8.3.8.8c0 .4-.3.8-.8.8c-.4 0-.8-.4-.8-.8c0-.5.4-.8.8-.8zm9.7 8.9c0 1.6.1 2.5.2 3.5c0 0-1 0-1 0c-.1-.4-.1-.9-.1-1.4c0 0-.1 0-.1 0c-.6 1.1-1.5 1.6-2.9 1.6c-1.4 0-2.9-.7-2.9-2.5c0-2.5 3-2.8 4.6-2.8c0 .04 1.3 0 1.3 0c0 0-.04-.46 0-.5c0-1.4-1.1-2-2.4-2c-1 0-1.8.3-2.5 1c0 0-.7-.8-.7-.8c.8-.7 2.1-1.2 3.2-1.2c2 0 3.3.9 3.3 3.1c0 0 0 2 0 2zm-2.1-.7c-1.8 0-3.6.5-3.6 1.9c0 1 1 1.5 1.9 1.5c2.3 0 2.9-1.5 2.9-2.8c-.04-.04 0-.6 0-.6c0 0-1.23 0-1.2 0zm9-3.2l-2.4 0c0 0 .01 5.45 0 5.5c0 .7.4 1.1 1.2 1.1c.4 0 .8-.1 1.2-.3c0 0 .1 1 .1 1c-.4.2-1 .3-1.4.3c-1.6 0-2.2-1-2.2-2.1c.03-.05 0-5.5 0-5.5l-1.8 0l0-.9l1.8 0l0-2.4l1.1 0l0 2.4l2.4 0l0 .9zm2-.9l1.1 0l0 8.3l-1.1 0l0-8.3zm.5-4.1c.5 0 .9.3.9.8c0 .4-.4.8-.9.8c-.4 0-.8-.4-.8-.8c0-.5.4-.8.8-.8zm7.3 3.8c2.6 0 4.4 1.9 4.4 4.4c0 2.6-1.8 4.4-4.4 4.4c-2.5 0-4.3-1.8-4.3-4.4c0-2.5 1.8-4.4 4.3-4.4zm0 7.8c2.1 0 3.3-1.5 3.3-3.4c0-1.9-1.2-3.4-3.3-3.4c-2 0-3.3 1.5-3.3 3.4c0 1.9 1.3 3.4 3.3 3.4zm6.7-5.2c0-.6 0-1.9 0-2.3c0 0 1 0 1 0c.1.6.1 1.3.1 1.4c0 0 .1 0 .1 0c.4-.9 1.5-1.7 2.8-1.7c2.6 0 3.2 1.8 3.2 3.6c-.03.03 0 5 0 5l-1.1 0c0 0-.01-4.92 0-4.9c0-1.4-.4-2.7-2.1-2.7c-1.6 0-2.9 1.1-2.9 3.4c.02.02 0 4.2 0 4.2l-1.1 0c0 0 .04-6 0-6zm10.1 3.9c.4.8 1.4 1.3 2.4 1.3c.9 0 1.9-.6 1.9-1.5c0-2.3-4.9-.7-4.9-3.9c0-1.6 1.4-2.4 2.8-2.4c1.4 0 2.4.6 2.9 1.6c0 0-.9.6-.9.6c-.4-.8-1-1.2-2-1.2c-.8 0-1.8.5-1.8 1.4c0 2.2 5 .5 5 3.8c0 1.7-1.5 2.6-3 2.6c-1.5 0-2.7-.5-3.4-1.7c0 0 1-.6 1-.6z" stroke="none" fill="#000"/></g><g id="Polygon46782"><path d="m1.4 120.1l1.1 0l0 6.7c0 0 .06.02.1 0c.4-.9 1.4-1.7 2.8-1.7c2.6 0 3.2 1.8 3.2 3.6c-.03.03 0 5 0 5l-1.1 0c0 0-.01-4.92 0-4.9c0-1.4-.4-2.7-2.1-2.7c-1.6 0-2.9 1.1-2.9 3.4c.02.02 0 4.2 0 4.2l-1.1 0l0-13.6zm16.3 10.1c0 1.6 0 2.5.2 3.5c0 0-1 0-1 0c-.1-.4-.2-.9-.2-1.4c0 0 0 0 0 0c-.6 1.1-1.5 1.6-2.9 1.6c-1.4 0-2.9-.7-2.9-2.5c0-2.5 2.9-2.8 4.6-2.8c-.03.04 1.2 0 1.2 0c0 0 .03-.46 0-.5c0-1.4-1-2-2.3-2c-1 0-1.8.3-2.5 1c0 0-.7-.8-.7-.8c.8-.7 2.1-1.2 3.2-1.2c2 0 3.3.9 3.3 3.1c0 0 0 2 0 2zm-2.2-.7c-1.8 0-3.6.5-3.6 1.9c0 1 1 1.5 1.9 1.5c2.3 0 2.9-1.5 2.9-2.8c.03-.04 0-.6 0-.6c0 0-1.16 0-1.2 0zm12.2 2.7c0 0 0 .02 0 0c-.7 1.2-2.1 1.7-3.3 1.7c-2.6 0-4.4-1.8-4.4-4.4c0-2.5 1.8-4.4 4.4-4.4c1.2 0 2.6.6 3.3 1.7c0 .02 0 0 0 0l0-6.7l1.1 0l0 13.6l-1.1 0l0-1.5zm-3.3-6.1c-2.1 0-3.3 1.5-3.3 3.4c0 1.9 1.2 3.4 3.3 3.4c1.9 0 3.4-1.5 3.4-3.4c0-1.9-1.5-3.4-3.4-3.4zm18.2 4.1c0 1.6 0 2.5.2 3.5c0 0-1 0-1 0c-.1-.4-.2-.9-.2-1.4c0 0 0 0 0 0c-.6 1.1-1.5 1.6-2.9 1.6c-1.4 0-2.9-.7-2.9-2.5c0-2.5 2.9-2.8 4.6-2.8c-.03.04 1.2 0 1.2 0c0 0 .03-.46 0-.5c0-1.4-1-2-2.3-2c-1 0-1.8.3-2.5 1c0 0-.7-.8-.7-.8c.8-.7 2.1-1.2 3.2-1.2c2 0 3.3.9 3.3 3.1c0 0 0 2 0 2zm-2.2-.7c-1.8 0-3.6.5-3.6 1.9c0 1 1 1.5 1.9 1.5c2.3 0 2.9-1.5 2.9-2.8c.03-.04 0-.6 0-.6c0 0-1.16 0-1.2 0zm16.7 3c-.8.9-1.8 1.4-3 1.4c-2.6 0-4.4-1.8-4.4-4.4c0-2.5 1.8-4.4 4.4-4.4c1.2 0 2.3.6 3.1 1.5c0 0-.9.6-.9.6c-.6-.6-1.4-1.1-2.2-1.1c-2.1 0-3.3 1.5-3.3 3.4c0 1.9 1.2 3.4 3.3 3.4c.9 0 1.6-.4 2.2-1.1c0 0 .8.7.8.7zm5.6-7.4c2.5 0 4.3 1.9 4.3 4.4c0 2.6-1.8 4.4-4.3 4.4c-2.6 0-4.4-1.8-4.4-4.4c0-2.5 1.8-4.4 4.4-4.4zm0 7.8c2 0 3.3-1.5 3.3-3.4c0-1.9-1.3-3.4-3.3-3.4c-2.1 0-3.3 1.5-3.3 3.4c0 1.9 1.2 3.4 3.3 3.4zm6.7-5.2c0-.6-.1-1.9-.1-2.3c0 0 1.1 0 1.1 0c0 .6 0 1.3 0 1.4c0 0 .1 0 .1 0c.4-.9 1.5-1.7 2.8-1.7c1.1 0 2.1.6 2.5 1.8c.5-1.2 1.7-1.8 2.8-1.8c2.6 0 3.2 1.8 3.2 3.6c.02.03 0 5 0 5l-1.1 0c0 0 .04-4.92 0-4.9c0-1.4-.3-2.7-2.1-2.7c-1.9 0-2.5 1.7-2.5 2.9c.03 0 0 4.7 0 4.7l-1.1 0c0 0 .05-5.02 0-5c0-1.6-.5-2.6-1.7-2.6c-1.6 0-2.9 1.1-2.9 3.4c.04.02 0 4.2 0 4.2l-1 0c0 0-.04-6 0-6zm15.1-2.3l1.1 0l0 1.4c0 0 .03.02 0 0c.7-1.1 2.1-1.7 3.4-1.7c2.5 0 4.3 1.9 4.3 4.4c0 2.6-1.8 4.4-4.3 4.4c-1.3 0-2.7-.5-3.4-1.7c.03.02 0 0 0 0l0 5.6l-1.1 0l0-12.4zm4.5 7.5c2 0 3.3-1.5 3.3-3.4c0-1.9-1.3-3.4-3.3-3.4c-2 0-3.5 1.5-3.5 3.4c0 1.9 1.5 3.4 3.5 3.4zm6.8-12.8l1.1 0l0 13.6l-1.1 0l0-13.6zm11.3 12c-.8 1.3-2.1 1.8-3.6 1.8c-2.5 0-4.2-1.8-4.2-4.4c0-2.5 1.7-4.4 4.2-4.4c2.5 0 3.9 2 3.9 3.9c-.02.04 0 .8 0 .8c0 0-7-.01-7 0c0 .9.6 3.1 3.2 3.1c1 0 2.2-.6 2.7-1.5c0 0 .8.7.8.7zm-.8-3.3c0-1.5-1.3-2.7-2.9-2.7c-2.3 0-3 2.3-3 2.7c0 0 5.9 0 5.9 0zm5.4.4l-2.9-3.8l1.3 0l2.3 3.1l2.3-3.1l1.4 0l-2.9 3.8l3.5 4.5l-1.4 0l-2.9-3.8l-2.8 3.8l-1.3 0l3.4-4.5zm11.3 2.4c.4.8 1.4 1.3 2.4 1.3c.9 0 1.9-.6 1.9-1.5c0-2.3-5-.7-5-3.9c0-1.6 1.5-2.4 2.9-2.4c1.3 0 2.4.6 2.9 1.6c0 0-.9.6-.9.6c-.5-.8-1-1.2-2-1.2c-.8 0-1.8.5-1.8 1.4c0 2.2 5 .5 5 3.8c0 1.7-1.5 2.6-3 2.6c-1.5 0-2.7-.5-3.4-1.7c0 0 1-.6 1-.6zm10 4.7c-.4 1-1.1 1.7-2.3 1.7c-.3 0-.7-.1-1-.2c0 0 .1-1 .1-1c.3.1.6.2 1 .2c.7 0 1.1-.7 1.3-1.4c.04.04.8-1.9.8-1.9l-3.4-8.3l1.2 0l2.8 7l2.7-7l1.1 0c0 0-4.28 10.85-4.3 10.9zm6.1-4.7c.5.8 1.5 1.3 2.5 1.3c.9 0 1.9-.6 1.9-1.5c0-2.3-5-.7-5-3.9c0-1.6 1.5-2.4 2.9-2.4c1.3 0 2.4.6 2.9 1.6c0 0-1 .6-1 .6c-.4-.8-1-1.2-1.9-1.2c-.8 0-1.8.5-1.8 1.4c0 2.2 4.9.5 4.9 3.8c0 1.7-1.4 2.6-3 2.6c-1.4 0-2.7-.5-3.3-1.7c0 0 .9-.6.9-.6zm12-5.3l-2.4 0c0 0 .01 5.45 0 5.5c0 .7.4 1.1 1.2 1.1c.4 0 .8-.1 1.2-.3c0 0 .1 1 .1 1c-.4.2-1 .3-1.4.3c-1.6 0-2.2-1-2.2-2.1c.03-.05 0-5.5 0-5.5l-1.8 0l0-.9l1.8 0l0-2.4l1.1 0l0 2.4l2.4 0l0 .9zm9 5.8c-.9 1.3-2.2 1.8-3.6 1.8c-2.6 0-4.2-1.8-4.2-4.4c0-2.5 1.7-4.4 4.1-4.4c2.6 0 3.9 2 3.9 3.9c.02.04 0 .8 0 .8c0 0-6.96-.01-7 0c0 .9.7 3.1 3.2 3.1c1.1 0 2.2-.6 2.8-1.5c0 0 .8.7.8.7zm-.9-3.3c0-1.5-1.2-2.7-2.8-2.7c-2.4 0-3.1 2.3-3.1 2.7c0 0 5.9 0 5.9 0zm3.5-1.1c0-.6-.1-1.9-.1-2.3c0 0 1.1 0 1.1 0c0 .6 0 1.3 0 1.4c0 0 .1 0 .1 0c.4-.9 1.5-1.7 2.8-1.7c1.1 0 2.1.6 2.5 1.8c.6-1.2 1.7-1.8 2.9-1.8c2.6 0 3.1 1.8 3.1 3.6c.03.03 0 5 0 5l-1 0c0 0-.05-4.92 0-4.9c0-1.4-.4-2.7-2.1-2.7c-2 0-2.6 1.7-2.6 2.9c.05 0 0 4.7 0 4.7l-1 0c0 0-.03-5.02 0-5c0-1.6-.6-2.6-1.8-2.6c-1.6 0-2.8 1.1-2.8 3.4c-.04.02 0 4.2 0 4.2l-1.1 0c0 0-.02-6 0-6z" stroke="none" fill="#000"/></g><g id="Polygon46781"><path d="m8.4 108.5c-.8.9-1.9 1.4-3.1 1.4c-2.5 0-4.3-1.8-4.3-4.4c0-2.5 1.8-4.4 4.3-4.4c1.3 0 2.3.6 3.1 1.5c0 0-.8.6-.8.6c-.7-.6-1.4-1.1-2.3-1.1c-2 0-3.2 1.5-3.2 3.4c0 1.9 1.2 3.4 3.2 3.4c.9 0 1.7-.4 2.3-1.1c0 0 .8.7.8.7zm5.5-7.4c2.6 0 4.4 1.9 4.4 4.4c0 2.6-1.8 4.4-4.4 4.4c-2.5 0-4.3-1.8-4.3-4.4c0-2.5 1.8-4.4 4.3-4.4zm0 7.8c2.1 0 3.3-1.5 3.3-3.4c0-1.9-1.2-3.4-3.3-3.4c-2 0-3.3 1.5-3.3 3.4c0 1.9 1.3 3.4 3.3 3.4zm13.8-1.6c0 .7.1 1.9.1 2.4c0 0-1.1 0-1.1 0c0-.6 0-1.3-.1-1.5c0 0 0 0 0 0c-.4.9-1.5 1.7-2.9 1.7c-2.5 0-3.1-1.8-3.1-3.6c-.02.01 0-4.9 0-4.9l1.1 0c0 0-.04 4.86 0 4.9c0 1.3.3 2.6 2 2.6c1.6 0 2.9-1.1 2.9-3.4c.03.02 0-4.1 0-4.1l1.1 0c0 0 .01 5.94 0 5.9zm2.9-3.6c0-.6-.1-1.9-.1-2.3c0 0 1.1 0 1.1 0c0 .6 0 1.3 0 1.4c0 0 .1 0 .1 0c.4-.9 1.5-1.7 2.8-1.7c2.6 0 3.2 1.8 3.2 3.6c.01.03 0 5 0 5l-1.1 0c0 0 .03-4.92 0-4.9c0-1.4-.4-2.7-2.1-2.7c-1.6 0-2.8 1.1-2.8 3.4c-.04.02 0 4.2 0 4.2l-1.1 0c0 0-.02-6 0-6zm13.9-1.4l-2.4 0c0 0 .04 5.45 0 5.5c0 .7.5 1.1 1.2 1.1c.4 0 .8-.1 1.2-.3c0 0 .1 1 .1 1c-.4.2-1 .3-1.4.3c-1.5 0-2.1-1-2.1-2.1c-.04-.05 0-5.5 0-5.5l-1.8 0l0-.9l1.8 0l0-2.4l1 0l0 2.4l2.4 0l0 .9zm1.9 1.4c0-.6 0-1.9 0-2.3c0 0 1 0 1 0c.1.6.1 1.3.1 1.4c.6-1 1.4-1.7 2.7-1.7c.2 0 .4.1.6.1c0 0-.1 1.1-.1 1.1c-.2-.1-.3-.1-.5-.1c-1.8 0-2.7 1.3-2.7 2.9c.03.04 0 4.6 0 4.6l-1.1 0c0 0 .05-6 0-6zm9.1 8.6c-.5 1-1.1 1.7-2.3 1.7c-.4 0-.7-.1-1.1-.2c0 0 .1-1 .1-1c.3.1.7.2 1 .2c.8 0 1.1-.7 1.4-1.4c-.02.04.7-1.9.7-1.9l-3.3-8.3l1.2 0l2.7 7l2.7-7l1.1 0c0 0-4.24 10.85-4.2 10.9zm14.5-11.2c2.6 0 4.4 1.9 4.4 4.4c0 2.6-1.8 4.4-4.4 4.4c-2.5 0-4.3-1.8-4.3-4.4c0-2.5 1.8-4.4 4.3-4.4zm0 7.8c2.1 0 3.3-1.5 3.3-3.4c0-1.9-1.2-3.4-3.3-3.4c-2 0-3.3 1.5-3.3 3.4c0 1.9 1.3 3.4 3.3 3.4zm7.2-6.6l-1.8 0l0-.9l1.8 0c0 0-.03-2.75 0-2.8c0-2.1 1.4-2.7 2.5-2.7c.5 0 .9 0 1.2.2c0 0-.2.9-.2.9c-.3-.1-.6-.2-1-.2c-1 0-1.4.7-1.4 2.2c-.05.04 0 2.4 0 2.4l1.9 0l0 .9l-1.9 0l0 7.4l-1.1 0l0-7.4zm9.5-5.4l1.8 0l4.7 10.7l4.6-10.7l1.7 0l0 12.8l-1.2 0l0-11.3l0 0l-4.9 11.3l-.5 0l-4.9-11.3l-.1 0l0 11.3l-1.2 0l0-12.8zm22.2 9.3c0 1.6 0 2.5.1 3.5c0 0-1 0-1 0c-.1-.4-.1-.9-.1-1.4c0 0 0 0 0 0c-.6 1.1-1.5 1.6-2.9 1.6c-1.5 0-3-.7-3-2.5c0-2.5 3-2.8 4.6-2.8c.03.04 1.3 0 1.3 0c0 0-.01-.46 0-.5c0-1.4-1-2-2.4-2c-.9 0-1.8.3-2.5 1c0 0-.6-.8-.6-.8c.8-.7 2.1-1.2 3.1-1.2c2.1 0 3.4.9 3.4 3.1c0 0 0 2 0 2zm-2.2-.7c-1.8 0-3.6.5-3.6 1.9c0 1 1 1.5 1.9 1.5c2.3 0 2.9-1.5 2.9-2.8c-.01-.04 0-.6 0-.6c0 0-1.2 0-1.2 0zm5.1-9.4l1 0l0 13.6l-1 0l0-13.6zm4 5.3l1.1 0l0 8.3l-1.1 0l0-8.3zm.6-4.1c.4 0 .8.3.8.8c0 .4-.4.8-.8.8c-.5 0-.9-.4-.9-.8c0-.5.4-.8.9-.8zm4 10.8c.5 0 .9.3.9.8c0 .5-.4.9-.9.9c-.5 0-.8-.4-.8-.9c0-.5.3-.8.8-.8zm11.6-10.1l-4.3 0l0-1.1l9.9 0l0 1.1l-4.4 0l0 11.7l-1.2 0l0-11.7zm7.3-1.9l1.1 0l0 6.7c0 0 .01.02 0 0c.4-.9 1.5-1.7 2.9-1.7c2.5 0 3.1 1.8 3.1 3.6c.02.03 0 5 0 5l-1.1 0c0 0 .04-4.92 0-4.9c0-1.4-.3-2.7-2-2.7c-1.6 0-2.9 1.1-2.9 3.4c-.03.02 0 4.2 0 4.2l-1.1 0l0-13.6zm17.2 12c-.8 1.3-2.1 1.8-3.6 1.8c-2.5 0-4.2-1.8-4.2-4.4c0-2.5 1.8-4.4 4.2-4.4c2.5 0 3.9 2 3.9 3.9c0 .04 0 .8 0 .8c0 0-6.98-.01-7 0c0 .9.6 3.1 3.2 3.1c1.1 0 2.2-.6 2.8-1.5c0 0 .7.7.7.7zm-.8-3.3c0-1.5-1.3-2.7-2.9-2.7c-2.3 0-3 2.3-3 2.7c0 0 5.9 0 5.9 0zm5.7 7.5c-.5 1-1.1 1.7-2.3 1.7c-.4 0-.7-.1-1.1-.2c0 0 .1-1 .1-1c.3.1.7.2 1 .2c.8 0 1.1-.7 1.4-1.4c-.02.04.7-1.9.7-1.9l-3.4-8.3l1.3 0l2.7 7l2.7-7l1.1 0c0 0-4.24 10.85-4.2 10.9zm14.5-11.2c2.6 0 4.4 1.9 4.4 4.4c0 2.6-1.8 4.4-4.4 4.4c-2.5 0-4.3-1.8-4.3-4.4c0-2.5 1.8-4.4 4.3-4.4zm0 7.8c2.1 0 3.3-1.5 3.3-3.4c0-1.9-1.2-3.4-3.3-3.4c-2 0-3.3 1.5-3.3 3.4c0 1.9 1.3 3.4 3.3 3.4zm6.7-5.2c0-.6-.1-1.9-.1-2.3c0 0 1.1 0 1.1 0c0 .6.1 1.3.1 1.4c0 0 .1 0 .1 0c.4-.9 1.4-1.7 2.8-1.7c2.6 0 3.2 1.8 3.2 3.6c-.03.03 0 5 0 5l-1.1 0c0 0-.01-4.92 0-4.9c0-1.4-.4-2.7-2.1-2.7c-1.6 0-2.9 1.1-2.9 3.4c.02.02 0 4.2 0 4.2l-1.1 0c0 0 .04-6 0-6zm16.9 4.8c-.8.9-1.9 1.4-3 1.4c-2.6 0-4.4-1.8-4.4-4.4c0-2.5 1.8-4.4 4.4-4.4c1.2 0 2.2.6 3 1.5c0 0-.8.6-.8.6c-.6-.6-1.4-1.1-2.2-1.1c-2.1 0-3.3 1.5-3.3 3.4c0 1.9 1.2 3.4 3.3 3.4c.9 0 1.6-.4 2.2-1.1c0 0 .8.7.8.7zm9-.4c-.8 1.3-2.1 1.8-3.6 1.8c-2.5 0-4.2-1.8-4.2-4.4c0-2.5 1.7-4.4 4.1-4.4c2.6 0 4 2 4 3.9c-.05.04 0 .8 0 .8c0 0-7.03-.01-7 0c0 .9.6 3.1 3.1 3.1c1.1 0 2.3-.6 2.8-1.5c0 0 .8.7.8.7zm-.8-3.3c0-1.5-1.3-2.7-2.9-2.7c-2.4 0-3 2.3-3 2.7c0 0 5.9 0 5.9 0z" stroke="none" fill="#000"/></g><g id="Polygon46780"><path d="m5.5 78.3l-2.4 0c0 0 .03 5.45 0 5.5c0 .7.5 1.1 1.2 1.1c.4 0 .8-.1 1.2-.3c0 0 .1 1 .1 1c-.4.2-1 .3-1.4.3c-1.6 0-2.1-1-2.1-2.1c-.05-.05 0-5.5 0-5.5l-1.8 0l0-.9l1.8 0l0-2.4l1 0l0 2.4l2.4 0l0 .9zm1.9-6.2l1.1 0l0 6.7c0 0 .06.02.1 0c.4-.9 1.5-1.7 2.8-1.7c2.6 0 3.2 1.8 3.2 3.6c-.03.03 0 5 0 5l-1.1 0c0 0-.01-4.92 0-4.9c0-1.4-.4-2.7-2.1-2.7c-1.6 0-2.9 1.1-2.9 3.4c.02.02 0 4.2 0 4.2l-1.1 0l0-13.6zm16.3 10.1c0 1.6 0 2.5.2 3.5c0 0-1 0-1 0c-.1-.4-.2-.9-.2-1.4c0 0 0 0 0 0c-.6 1.1-1.5 1.6-2.9 1.6c-1.4 0-2.9-.7-2.9-2.5c0-2.5 2.9-2.8 4.6-2.8c-.03.04 1.2 0 1.2 0c0 0 .03-.46 0-.5c0-1.4-1-2-2.3-2c-1 0-1.8.3-2.5 1c0 0-.7-.8-.7-.8c.8-.7 2.1-1.2 3.2-1.2c2 0 3.3.9 3.3 3.1c0 0 0 2 0 2zm-2.2-.7c-1.8 0-3.6.5-3.6 1.9c0 1 1 1.5 1.9 1.5c2.3 0 2.9-1.5 2.9-2.8c.03-.04 0-.6 0-.6c0 0-1.16 0-1.2 0zm9.1-3.2l-2.4 0c0 0-.02 5.45 0 5.5c0 .7.4 1.1 1.1 1.1c.4 0 .9-.1 1.3-.3c0 0 0 1 0 1c-.3.2-.9.3-1.4.3c-1.5 0-2.1-1-2.1-2.1c0-.05 0-5.5 0-5.5l-1.8 0l0-.9l1.8 0l0-2.4l1.1 0l0 2.4l2.4 0l0 .9zm6.7-6.2l1.1 0l0 13.6l-1.1 0l0-13.6zm4.1 5.3l1.1 0l0 8.3l-1.1 0l0-8.3zm.5-4.1c.5 0 .9.3.9.8c0 .4-.4.8-.9.8c-.4 0-.8-.4-.8-.8c0-.5.4-.8.8-.8zm2.4 4.1l1.3 0l2.7 7.1l2.7-7.1l1.1 0l-3.2 8.3l-1.2 0l-3.4-8.3zm16.6 6.7c-.8 1.3-2.1 1.8-3.6 1.8c-2.5 0-4.2-1.8-4.2-4.4c0-2.5 1.8-4.4 4.2-4.4c2.5 0 3.9 2 3.9 3.9c-.01.04 0 .8 0 .8c0 0-6.99-.01-7 0c0 .9.6 3.1 3.2 3.1c1.1 0 2.2-.6 2.7-1.5c0 0 .8.7.8.7zm-.8-3.3c0-1.5-1.3-2.7-2.9-2.7c-2.3 0-3 2.3-3 2.7c0 0 5.9 0 5.9 0zm8.4-3.4l1 0l0 8.3l-1 0l0-8.3zm.5-4.1c.5 0 .8.3.8.8c0 .4-.3.8-.8.8c-.4 0-.8-.4-.8-.8c0-.5.4-.8.8-.8zm3.4 6.4c0-.6 0-1.9 0-2.3c0 0 1 0 1 0c.1.6.1 1.3.1 1.4c0 0 .1 0 .1 0c.4-.9 1.5-1.7 2.8-1.7c2.6 0 3.2 1.8 3.2 3.6c-.02.03 0 5 0 5l-1.1 0c0 0 0-4.92 0-4.9c0-1.4-.4-2.7-2.1-2.7c-1.6 0-2.9 1.1-2.9 3.4c.03.02 0 4.2 0 4.2l-1.1 0c0 0 .05-6 0-6zm18.8-1.4l-2.4 0c0 0 .03 5.45 0 5.5c0 .7.5 1.1 1.2 1.1c.4 0 .8-.1 1.2-.3c0 0 .1 1 .1 1c-.4.2-1 .3-1.4.3c-1.6 0-2.2-1-2.2-2.1c.05-.05 0-5.5 0-5.5l-1.8 0l0-.9l1.8 0l0-2.4l1.1 0l0 2.4l2.4 0l0 .9zm1.9-6.2l1.1 0l0 6.7c0 0 .05.02.1 0c.4-.9 1.4-1.7 2.8-1.7c2.6 0 3.2 1.8 3.2 3.6c-.03.03 0 5 0 5l-1.1 0c0 0-.01-4.92 0-4.9c0-1.4-.4-2.7-2.1-2.7c-1.6 0-2.9 1.1-2.9 3.4c.02.02 0 4.2 0 4.2l-1.1 0l0-13.6zm17.3 12c-.9 1.3-2.1 1.8-3.6 1.8c-2.5 0-4.2-1.8-4.2-4.4c0-2.5 1.7-4.4 4.1-4.4c2.6 0 3.9 2 3.9 3.9c.04.04 0 .8 0 .8c0 0-6.94-.01-6.9 0c0 .9.6 3.1 3.1 3.1c1.1 0 2.3-.6 2.8-1.5c0 0 .8.7.8.7zm-.8-3.3c0-1.5-1.3-2.7-2.9-2.7c-2.4 0-3 2.3-3 2.7c0 0 5.9 0 5.9 0zm6.8-7.9l1.2 0l3.2 11.3l0 0l3.2-11.3l1.5 0l3.3 11.3l0 0l3.2-11.3l1.2 0l-3.7 12.8l-1.5 0l-3.2-11.4l0 0l-3.2 11.4l-1.5 0l-3.7-12.8zm25.1 11.2c-.9 1.3-2.1 1.8-3.6 1.8c-2.5 0-4.2-1.8-4.2-4.4c0-2.5 1.7-4.4 4.1-4.4c2.6 0 3.9 2 3.9 3.9c.04.04 0 .8 0 .8c0 0-6.94-.01-6.9 0c0 .9.6 3.1 3.1 3.1c1.1 0 2.3-.6 2.8-1.5c0 0 .8.7.8.7zm-.8-3.3c0-1.5-1.3-2.7-2.9-2.7c-2.4 0-3 2.3-3 2.7c0 0 5.9 0 5.9 0zm3.5 2.8c.5.8 1.5 1.3 2.5 1.3c.9 0 1.9-.6 1.9-1.5c0-2.3-5-.7-5-3.9c0-1.6 1.5-2.4 2.9-2.4c1.3 0 2.4.6 2.9 1.6c0 0-1 .6-1 .6c-.4-.8-1-1.2-1.9-1.2c-.8 0-1.8.5-1.8 1.4c0 2.2 4.9.5 4.9 3.8c0 1.7-1.4 2.6-3 2.6c-1.4 0-2.7-.5-3.3-1.7c0 0 .9-.6.9-.6zm12-5.3l-2.4 0c0 0 .01 5.45 0 5.5c0 .7.4 1.1 1.2 1.1c.4 0 .8-.1 1.2-.3c0 0 .1 1 .1 1c-.4.2-1 .3-1.4.3c-1.6 0-2.2-1-2.2-2.1c.03-.05 0-5.5 0-5.5l-1.8 0l0-.9l1.8 0l0-2.4l1.1 0l0 2.4l2.4 0l0 .9zm10.8-5.4l1.2 0l5.4 12.8l-1.3 0l-1.4-3.4l-6.8 0l-1.4 3.4l-1.3 0l5.6-12.8zm.6 1.3l-3 7l5.8 0l-2.8-7zm8 4.1l-1.8 0l0-.9l1.8 0c0 0-.03-2.75 0-2.8c0-2.1 1.4-2.7 2.5-2.7c.5 0 .9 0 1.2.2c0 0-.2.9-.2.9c-.3-.1-.6-.2-1-.2c-1 0-1.5.7-1.5 2.2c.05.04 0 2.4 0 2.4l2 0l0 .9l-2 0l0 7.4l-1 0l0-7.4zm4.8 1.4c0-.6-.1-1.9-.1-2.3c0 0 1.1 0 1.1 0c0 .6 0 1.3.1 1.4c.5-1 1.4-1.7 2.6-1.7c.2 0 .4.1.6.1c0 0-.1 1.1-.1 1.1c-.2-.1-.3-.1-.4-.1c-1.9 0-2.7 1.3-2.7 2.9c-.02.04 0 4.6 0 4.6l-1.1 0c0 0 0-6 0-6zm6.2-2.3l1.1 0l0 8.3l-1.1 0l0-8.3zm.5-4.1c.5 0 .8.3.8.8c0 .4-.3.8-.8.8c-.4 0-.8-.4-.8-.8c0-.5.4-.8.8-.8zm10.4 11.2c-.8.9-1.9 1.4-3.1 1.4c-2.5 0-4.4-1.8-4.4-4.4c0-2.5 1.9-4.4 4.4-4.4c1.2 0 2.3.6 3.1 1.5c0 0-.9.6-.9.6c-.6-.6-1.3-1.1-2.2-1.1c-2 0-3.3 1.5-3.3 3.4c0 1.9 1.3 3.4 3.3 3.4c.9 0 1.7-.4 2.2-1.1c0 0 .9.7.9.7zm8.4-2.3c0 1.6 0 2.5.1 3.5c0 0-1 0-1 0c-.1-.4-.1-.9-.1-1.4c0 0 0 0 0 0c-.6 1.1-1.5 1.6-3 1.6c-1.4 0-2.9-.7-2.9-2.5c0-2.5 3-2.8 4.6-2.8c.02.04 1.3 0 1.3 0c0 0-.02-.46 0-.5c0-1.4-1-2-2.4-2c-.9 0-1.8.3-2.5 1c0 0-.6-.8-.6-.8c.8-.7 2.1-1.2 3.1-1.2c2.1 0 3.4.9 3.4 3.1c0 0 0 2 0 2zm-2.2-.7c-1.8 0-3.6.5-3.6 1.9c0 1 1 1.5 1.9 1.5c2.3 0 2.9-1.5 2.9-2.8c-.02-.04 0-.6 0-.6c0 0-1.21 0-1.2 0zm5-1.8c0-.6-.1-1.9-.1-2.3c0 0 1 0 1 0c.1.6.1 1.3.1 1.4c0 0 .1 0 .1 0c.4-.9 1.5-1.7 2.8-1.7c2.6 0 3.2 1.8 3.2 3.6c-.01.03 0 5 0 5l-1.1 0c0 0 .01-4.92 0-4.9c0-1.4-.4-2.7-2.1-2.7c-1.6 0-2.9 1.1-2.9 3.4c.04.02 0 4.2 0 4.2l-1 0c0 0-.04-6 0-6z" stroke="none" fill="#000"/></g><g id="Polygon46779"><path d="m5.3 53.1c2.6 0 4.4 1.9 4.4 4.4c0 2.6-1.8 4.4-4.4 4.4c-2.5 0-4.3-1.8-4.3-4.4c0-2.5 1.8-4.4 4.3-4.4zm0 7.8c2.1 0 3.3-1.5 3.3-3.4c0-1.9-1.2-3.4-3.3-3.4c-2 0-3.2 1.5-3.2 3.4c0 1.9 1.2 3.4 3.2 3.4zm7.2-6.6l-1.8 0l0-.9l1.8 0c0 0-.02-2.75 0-2.8c0-2.1 1.4-2.7 2.5-2.7c.5 0 .9 0 1.2.2c0 0-.2.9-.2.9c-.3-.1-.6-.2-1-.2c-1 0-1.4.7-1.4 2.2c-.04.04 0 2.4 0 2.4l1.9 0l0 .9l-1.9 0l0 7.4l-1.1 0l0-7.4zm13.4 0l-2.3 0c0 0-.03 5.45 0 5.5c0 .7.4 1.1 1.1 1.1c.4 0 .9-.1 1.2-.3c0 0 .1 1 .1 1c-.4.2-1 .3-1.4.3c-1.5 0-2.1-1-2.1-2.1c-.01-.05 0-5.5 0-5.5l-1.8 0l0-.9l1.8 0l0-2.4l1.1 0l0 2.4l2.3 0l0 .9zm2-6.2l1.1 0l0 6.7c0 0-.01.02 0 0c.4-.9 1.5-1.7 2.8-1.7c2.6 0 3.2 1.8 3.2 3.6c0 .03 0 5 0 5l-1.1 0c0 0 .02-4.92 0-4.9c0-1.4-.4-2.7-2.1-2.7c-1.6 0-2.8 1.1-2.8 3.4c-.05.02 0 4.2 0 4.2l-1.1 0l0-13.6zm17.2 12c-.8 1.3-2.1 1.8-3.6 1.8c-2.5 0-4.2-1.8-4.2-4.4c0-2.5 1.7-4.4 4.2-4.4c2.5 0 3.9 2 3.9 3.9c-.02.04 0 .8 0 .8c0 0-7-.01-7 0c0 .9.6 3.1 3.1 3.1c1.1 0 2.3-.6 2.8-1.5c0 0 .8.7.8.7zm-.8-3.3c0-1.5-1.3-2.7-2.9-2.7c-2.3 0-3 2.3-3 2.7c0 0 5.9 0 5.9 0zm8.4-8.7l1 0l0 13.6l-1 0l0-13.6zm10.3 10.1c0 1.6 0 2.5.2 3.5c0 0-1.1 0-1.1 0c0-.4-.1-.9-.1-1.4c0 0 0 0 0 0c-.6 1.1-1.5 1.6-2.9 1.6c-1.4 0-2.9-.7-2.9-2.5c0-2.5 2.9-2.8 4.6-2.8c-.04.04 1.2 0 1.2 0c0 0 .02-.46 0-.5c0-1.4-1-2-2.3-2c-1 0-1.8.3-2.6 1c0 0-.6-.8-.6-.8c.8-.7 2.1-1.2 3.2-1.2c2 0 3.3.9 3.3 3.1c0 0 0 2 0 2zm-2.2-.7c-1.8 0-3.6.5-3.6 1.9c0 1 1 1.5 1.9 1.5c2.3 0 2.9-1.5 2.9-2.8c.02-.04 0-.6 0-.6c0 0-1.17 0-1.2 0zm5-1.8c0-.6-.1-1.9-.1-2.3c0 0 1.1 0 1.1 0c0 .6 0 1.3.1 1.4c.5-1 1.4-1.7 2.6-1.7c.2 0 .4.1.6.1c0 0-.1 1.1-.1 1.1c-.2-.1-.3-.1-.4-.1c-1.9 0-2.7 1.3-2.7 2.9c-.03.04 0 4.6 0 4.6l-1.1 0c0 0-.01-6 0-6zm14 5.4c0 4.2-2.8 4.9-4.5 4.9c-1.6 0-3.2-.6-4.1-1.7c0 0 .9-.8.9-.8c.7 1 1.9 1.5 3.2 1.5c3.3 0 3.4-2.9 3.4-3.8c-.02.01 0-1.1 0-1.1c0 0-.05-.04-.1 0c-.6.9-1.7 1.6-3.1 1.6c-2.4 0-4.4-1.9-4.4-4.3c0-2.3 2-4.3 4.4-4.3c1.4 0 2.5.7 3.1 1.7c.05-.03.1 0 .1 0l0-1.4l1.1 0c0 0-.04 7.74 0 7.7zm-4.4-7c-1.8 0-3.3 1.5-3.3 3.3c0 1.8 1.5 3.3 3.3 3.3c1.8 0 3.3-1.5 3.3-3.3c0-1.8-1.5-3.3-3.3-3.3zm14.4 6c-.8 1.3-2.1 1.8-3.6 1.8c-2.5 0-4.2-1.8-4.2-4.4c0-2.5 1.7-4.4 4.2-4.4c2.5 0 3.9 2 3.9 3.9c-.01.04 0 .8 0 .8c0 0-7-.01-7 0c0 .9.6 3.1 3.2 3.1c1 0 2.2-.6 2.7-1.5c0 0 .8.7.8.7zm-.8-3.3c0-1.5-1.3-2.7-2.9-2.7c-2.3 0-3 2.3-3 2.7c0 0 5.9 0 5.9 0zm3.4-1.1c0-.6 0-1.9 0-2.3c0 0 1 0 1 0c.1.6.1 1.3.1 1.4c.5-1 1.4-1.7 2.7-1.7c.2 0 .4.1.6.1c0 0-.1 1.1-.1 1.1c-.2-.1-.4-.1-.5-.1c-1.8 0-2.7 1.3-2.7 2.9c.02.04 0 4.6 0 4.6l-1.1 0c0 0 .04-6 0-6zm18.1 4.4c-.9 1.3-2.2 1.8-3.6 1.8c-2.6 0-4.3-1.8-4.3-4.4c0-2.5 1.8-4.4 4.2-4.4c2.6 0 3.9 2 3.9 3.9c.01.04 0 .8 0 .8c0 0-6.97-.01-7 0c0 .9.7 3.1 3.2 3.1c1.1 0 2.2-.6 2.8-1.5c0 0 .8.7.8.7zm-.9-3.3c0-1.5-1.2-2.7-2.8-2.7c-2.4 0-3.1 2.3-3.1 2.7c0 0 5.9 0 5.9 0zm7.5-2.5l-2.4 0c0 0 .01 5.45 0 5.5c0 .7.4 1.1 1.2 1.1c.4 0 .8-.1 1.2-.3c0 0 .1 1 .1 1c-.4.2-1 .3-1.4.3c-1.6 0-2.2-1-2.2-2.1c.03-.05 0-5.5 0-5.5l-1.8 0l0-.9l1.8 0l0-2.4l1.1 0l0 2.4l2.4 0l0 .9zm1.9-6.2l1.1 0l0 6.7c0 0 .03.02 0 0c.5-.9 1.5-1.7 2.9-1.7c2.6 0 3.1 1.8 3.1 3.6c.04.03 0 5 0 5l-1 0c0 0-.04-4.92 0-4.9c0-1.4-.4-2.7-2.1-2.7c-1.6 0-2.9 1.1-2.9 3.4c-.01.02 0 4.2 0 4.2l-1.1 0l0-13.6zm9.9 7.6c0-.6-.1-1.9-.1-2.3c0 0 1.1 0 1.1 0c0 .6 0 1.3.1 1.4c0 0 0 0 0 0c.5-.9 1.5-1.7 2.9-1.7c2.6 0 3.2 1.8 3.2 3.6c-.05.03 0 5 0 5l-1.1 0c0 0-.03-4.92 0-4.9c0-1.4-.4-2.7-2.1-2.7c-1.6 0-2.9 1.1-2.9 3.4c0 .02 0 4.2 0 4.2l-1.1 0c0 0 .02-6 0-6zm10-2.3l1.1 0l0 8.3l-1.1 0l0-8.3zm.5-4.1c.5 0 .9.3.9.8c0 .4-.4.8-.9.8c-.4 0-.8-.4-.8-.8c0-.5.4-.8.8-.8zm10.4 11.2c-.8.9-1.9 1.4-3.1 1.4c-2.5 0-4.3-1.8-4.3-4.4c0-2.5 1.8-4.4 4.3-4.4c1.2 0 2.3.6 3.1 1.5c0 0-.8.6-.8.6c-.7-.6-1.4-1.1-2.3-1.1c-2 0-3.3 1.5-3.3 3.4c0 1.9 1.3 3.4 3.3 3.4c.9 0 1.7-.4 2.3-1.1c0 0 .8.7.8.7zm14.7.6c0 4.2-2.7 4.9-4.4 4.9c-1.7 0-3.3-.6-4.1-1.7c0 0 .8-.8.8-.8c.8 1 2 1.5 3.3 1.5c3.3 0 3.3-2.9 3.3-3.8c.05.01 0-1.1 0-1.1c0 0 .01-.04 0 0c-.6.9-1.7 1.6-3.1 1.6c-2.5 0-4.5-1.9-4.5-4.3c0-2.3 2-4.3 4.5-4.3c1.4 0 2.5.7 3.1 1.7c.01-.03 0 0 0 0l0-1.4l1.1 0c0 0 .03 7.74 0 7.7zm-4.3-7c-1.8 0-3.3 1.5-3.3 3.3c0 1.8 1.5 3.3 3.3 3.3c1.8 0 3.3-1.5 3.3-3.3c0-1.8-1.5-3.3-3.3-3.3zm7 1.6c0-.6-.1-1.9-.1-2.3c0 0 1.1 0 1.1 0c0 .6.1 1.3.1 1.4c.5-1 1.4-1.7 2.6-1.7c.3 0 .5.1.7.1c0 0-.2 1.1-.2 1.1c-.1-.1-.3-.1-.4-.1c-1.8 0-2.7 1.3-2.7 2.9c.01.04 0 4.6 0 4.6l-1.1 0c0 0 .03-6 0-6zm9.7-2.6c2.5 0 4.3 1.9 4.3 4.4c0 2.6-1.8 4.4-4.3 4.4c-2.6 0-4.4-1.8-4.4-4.4c0-2.5 1.8-4.4 4.4-4.4zm0 7.8c2 0 3.3-1.5 3.3-3.4c0-1.9-1.3-3.4-3.3-3.4c-2.1 0-3.3 1.5-3.3 3.4c0 1.9 1.2 3.4 3.3 3.4zm13.7-1.6c0 .7.1 1.9.1 2.4c0 0-1.1 0-1.1 0c0-.6 0-1.3 0-1.5c0 0-.1 0-.1 0c-.4.9-1.5 1.7-2.8 1.7c-2.6 0-3.2-1.8-3.2-3.6c0 .01 0-4.9 0-4.9l1.1 0c0 0-.02 4.86 0 4.9c0 1.3.4 2.6 2.1 2.6c1.6 0 2.8-1.1 2.8-3.4c.05.02 0-4.1 0-4.1l1.1 0c0 0 .03 5.94 0 5.9zm2.8-5.9l1.1 0l0 1.4c0 0-.01.02 0 0c.7-1.1 2.1-1.7 3.3-1.7c2.6 0 4.4 1.9 4.4 4.4c0 2.6-1.8 4.4-4.4 4.4c-1.2 0-2.6-.5-3.3-1.7c-.01.02 0 0 0 0l0 5.6l-1.1 0l0-12.4zm4.4 7.5c2.1 0 3.3-1.5 3.3-3.4c0-1.9-1.2-3.4-3.3-3.4c-1.9 0-3.5 1.5-3.5 3.4c0 1.9 1.6 3.4 3.5 3.4zm6.8-1.3c.4.8 1.4 1.3 2.4 1.3c.9 0 1.9-.6 1.9-1.5c0-2.3-4.9-.7-4.9-3.9c0-1.6 1.5-2.4 2.8-2.4c1.4 0 2.4.6 3 1.6c0 0-1 .6-1 .6c-.4-.8-1-1.2-2-1.2c-.7 0-1.7.5-1.7 1.4c0 2.2 4.9.5 4.9 3.8c0 1.7-1.4 2.6-3 2.6c-1.4 0-2.7-.5-3.4-1.7c0 0 1-.6 1-.6z" stroke="none" fill="#000"/></g><g id="Polygon46778"><path d="m4.6 26l-4.4 0l0-1.1l9.9 0l0 1.1l-4.3 0l0 11.7l-1.2 0l0-11.7zm7.2-1.9l1.1 0l0 6.7c0 0 .06.02.1 0c.4-.9 1.5-1.7 2.8-1.7c2.6 0 3.2 1.8 3.2 3.6c-.03.03 0 5 0 5l-1.1 0c0 0-.01-4.92 0-4.9c0-1.4-.4-2.7-2.1-2.7c-1.6 0-2.9 1.1-2.9 3.4c.02.02 0 4.2 0 4.2l-1.1 0l0-13.6zm17.3 12c-.9 1.3-2.1 1.8-3.6 1.8c-2.5 0-4.2-1.8-4.2-4.4c0-2.5 1.7-4.4 4.1-4.4c2.6 0 3.9 2 3.9 3.9c.05.04 0 .8 0 .8c0 0-6.94-.01-6.9 0c0 .9.6 3.1 3.1 3.1c1.1 0 2.3-.6 2.8-1.5c0 0 .8.7.8.7zm-.8-3.3c0-1.5-1.3-2.7-2.9-2.7c-2.4 0-3 2.3-3 2.7c0 0 5.9 0 5.9 0zm8.4-7.9c0 0 3.72.04 3.7 0c2 0 4.1.5 4.1 3.4c0 1.3-.8 2.3-2.3 2.6c0 0 0 .1 0 .1c1.7.1 2.9 1.3 2.9 3.1c0 2.9-2.6 3.6-4.3 3.6c.01-.02-4.1 0-4.1 0l0-12.8zm1.2 5.5c0 0 2.5.04 2.5 0c2.5 0 2.9-1.3 2.9-2.1c0-1.8-1.2-2.3-2.7-2.3c-.04.02-2.7 0-2.7 0l0 4.4zm0 6.2c0 0 2.75 0 2.8 0c2.7 0 3.2-1.5 3.2-2.4c0-1.9-1.6-2.7-3.1-2.7c.03.02-2.9 0-2.9 0l0 5.1zm16-2.4c0 1.6.1 2.5.2 3.5c0 0-1 0-1 0c-.1-.4-.1-.9-.1-1.4c0 0 0 0 0 0c-.7 1.1-1.6 1.6-3 1.6c-1.4 0-2.9-.7-2.9-2.5c0-2.5 3-2.8 4.6-2.8c.02.04 1.3 0 1.3 0c0 0-.02-.46 0-.5c0-1.4-1-2-2.4-2c-.9 0-1.8.3-2.5 1c0 0-.6-.8-.6-.8c.8-.7 2.1-1.2 3.1-1.2c2.1 0 3.3.9 3.3 3.1c0 0 0 2 0 2zm-2.1-.7c-1.8 0-3.6.5-3.6 1.9c0 1 1 1.5 1.9 1.5c2.3 0 2.9-1.5 2.9-2.8c-.02-.04 0-.6 0-.6c0 0-1.21 0-1.2 0zm5-1.8c0-.6-.1-1.9-.1-2.3c0 0 1 0 1 0c.1.6.1 1.3.1 1.4c0 0 .1 0 .1 0c.4-.9 1.5-1.7 2.8-1.7c1.1 0 2.1.6 2.5 1.8c.5-1.2 1.7-1.8 2.8-1.8c2.6 0 3.2 1.8 3.2 3.6c.01.03 0 5 0 5l-1.1 0c0 0 .03-4.92 0-4.9c0-1.4-.4-2.7-2.1-2.7c-2 0-2.5 1.7-2.5 2.9c.02 0 0 4.7 0 4.7l-1.1 0c0 0 .04-5.02 0-5c0-1.6-.5-2.6-1.7-2.6c-1.6 0-2.9 1.1-2.9 3.4c.03.02 0 4.2 0 4.2l-1 0c0 0-.05-6 0-6zm21.6 2.5c0 1.6 0 2.5.1 3.5c0 0-1 0-1 0c-.1-.4-.1-.9-.1-1.4c0 0 0 0 0 0c-.6 1.1-1.5 1.6-2.9 1.6c-1.5 0-3-.7-3-2.5c0-2.5 3-2.8 4.6-2.8c.03.04 1.3 0 1.3 0c0 0-.01-.46 0-.5c0-1.4-1-2-2.4-2c-.9 0-1.8.3-2.5 1c0 0-.6-.8-.6-.8c.8-.7 2.1-1.2 3.1-1.2c2.1 0 3.4.9 3.4 3.1c0 0 0 2 0 2zm-2.2-.7c-1.8 0-3.6.5-3.6 1.9c0 1 1 1.5 1.9 1.5c2.3 0 2.9-1.5 2.9-2.8c-.01-.04 0-.6 0-.6c0 0-1.2 0-1.2 0zm5-1.8c0-.6-.1-1.9-.1-2.3c0 0 1.1 0 1.1 0c0 .6 0 1.3 0 1.4c0 0 .1 0 .1 0c.4-.9 1.5-1.7 2.8-1.7c2.6 0 3.2 1.8 3.2 3.6c-.01.03 0 5 0 5l-1.1 0c0 0 .01-4.92 0-4.9c0-1.4-.4-2.7-2.1-2.7c-1.6 0-2.9 1.1-2.9 3.4c.04.02 0 4.2 0 4.2l-1 0c0 0-.04-6 0-6zm16.2 2.5c0 1.6.1 2.5.2 3.5c0 0-1 0-1 0c-.1-.4-.1-.9-.1-1.4c0 0-.1 0-.1 0c-.6 1.1-1.5 1.6-2.9 1.6c-1.4 0-2.9-.7-2.9-2.5c0-2.5 3-2.8 4.6-2.8c-.01.04 1.3 0 1.3 0c0 0-.05-.46 0-.5c0-1.4-1.1-2-2.4-2c-1 0-1.8.3-2.5 1c0 0-.7-.8-.7-.8c.8-.7 2.1-1.2 3.2-1.2c2 0 3.3.9 3.3 3.1c0 0 0 2 0 2zm-2.1-.7c-1.8 0-3.6.5-3.6 1.9c0 1 1 1.5 1.9 1.5c2.3 0 2.9-1.5 2.9-2.8c-.05-.04 0-.6 0-.6c0 0-1.24 0-1.2 0zm16.7 3c-.9.9-1.9 1.4-3.1 1.4c-2.6 0-4.4-1.8-4.4-4.4c0-2.5 1.8-4.4 4.4-4.4c1.2 0 2.3.6 3.1 1.5c0 0-.9.6-.9.6c-.6-.6-1.3-1.1-2.2-1.1c-2 0-3.3 1.5-3.3 3.4c0 1.9 1.3 3.4 3.3 3.4c.9 0 1.7-.4 2.2-1.1c0 0 .9.7.9.7zm5.5-7.4c2.5 0 4.4 1.9 4.4 4.4c0 2.6-1.9 4.4-4.4 4.4c-2.6 0-4.4-1.8-4.4-4.4c0-2.5 1.8-4.4 4.4-4.4zm0 7.8c2 0 3.3-1.5 3.3-3.4c0-1.9-1.3-3.4-3.3-3.4c-2.1 0-3.3 1.5-3.3 3.4c0 1.9 1.2 3.4 3.3 3.4zm6.7-5.2c0-.6-.1-1.9-.1-2.3c0 0 1.1 0 1.1 0c0 .6 0 1.3 0 1.4c0 0 .1 0 .1 0c.4-.9 1.5-1.7 2.8-1.7c2.6 0 3.2 1.8 3.2 3.6c.01.03 0 5 0 5l-1.1 0c0 0 .03-4.92 0-4.9c0-1.4-.3-2.7-2.1-2.7c-1.6 0-2.8 1.1-2.8 3.4c-.04.02 0 4.2 0 4.2l-1.1 0c0 0-.02-6 0-6zm10 3.9c.5.8 1.4 1.3 2.4 1.3c1 0 1.9-.6 1.9-1.5c0-2.3-4.9-.7-4.9-3.9c0-1.6 1.5-2.4 2.8-2.4c1.4 0 2.4.6 3 1.6c0 0-1 .6-1 .6c-.4-.8-1-1.2-2-1.2c-.7 0-1.7.5-1.7 1.4c0 2.2 4.9.5 4.9 3.8c0 1.7-1.4 2.6-3 2.6c-1.4 0-2.7-.5-3.3-1.7c0 0 .9-.6.9-.6zm12-5.3l-2.4 0c0 0-.02 5.45 0 5.5c0 .7.4 1.1 1.1 1.1c.4 0 .9-.1 1.3-.3c0 0 0 1 0 1c-.4.2-.9.3-1.4.3c-1.5 0-2.1-1-2.1-2.1c0-.05 0-5.5 0-5.5l-1.8 0l0-.9l1.8 0l0-2.4l1.1 0l0 2.4l2.4 0l0 .9zm2-.9l1.1 0l0 8.3l-1.1 0l0-8.3zm.5-4.1c.5 0 .8.3.8.8c0 .4-.3.8-.8.8c-.4 0-.8-.4-.8-.8c0-.5.4-.8.8-.8zm7.7 5l-2.4 0c0 0-.02 5.45 0 5.5c0 .7.4 1.1 1.1 1.1c.4 0 .9-.1 1.3-.3c0 0 0 1 0 1c-.3.2-.9.3-1.4.3c-1.5 0-2.1-1-2.1-2.1c0-.05 0-5.5 0-5.5l-1.8 0l0-.9l1.8 0l0-2.4l1.1 0l0 2.4l2.4 0l0 .9zm8.9 5c0 .7.1 1.9.1 2.4c0 0-1.1 0-1.1 0c0-.6 0-1.3 0-1.5c0 0-.1 0-.1 0c-.4.9-1.5 1.7-2.8 1.7c-2.6 0-3.2-1.8-3.2-3.6c0 .01 0-4.9 0-4.9l1.1 0c0 0-.02 4.86 0 4.9c0 1.3.4 2.6 2.1 2.6c1.6 0 2.9-1.1 2.9-3.4c-.05.02 0-4.1 0-4.1l1 0c0 0 .03 5.94 0 5.9zm7.1-5l-2.4 0c0 0 .04 5.45 0 5.5c0 .7.5 1.1 1.2 1.1c.4 0 .8-.1 1.2-.3c0 0 .1 1 .1 1c-.4.2-1 .3-1.4.3c-1.6 0-2.1-1-2.1-2.1c-.04-.05 0-5.5 0-5.5l-1.8 0l0-.9l1.8 0l0-2.4l1 0l0 2.4l2.4 0l0 .9zm9 5.8c-.8 1.3-2.1 1.8-3.6 1.8c-2.5 0-4.2-1.8-4.2-4.4c0-2.5 1.7-4.4 4.1-4.4c2.6 0 3.9 2 3.9 3.9c.05.04 0 .8 0 .8c0 0-6.94-.01-6.9 0c0 .9.6 3.1 3.1 3.1c1.1 0 2.3-.6 2.8-1.5c0 0 .8.7.8.7zm-.8-3.3c0-1.5-1.3-2.7-2.9-2.7c-2.4 0-3 2.3-3 2.7c0 0 5.9 0 5.9 0zm12-3.7c2.6 0 4.4 1.9 4.4 4.4c0 2.6-1.8 4.4-4.4 4.4c-2.5 0-4.3-1.8-4.3-4.4c0-2.5 1.8-4.4 4.3-4.4zm0 7.8c2.1 0 3.3-1.5 3.3-3.4c0-1.9-1.2-3.4-3.3-3.4c-2 0-3.2 1.5-3.2 3.4c0 1.9 1.2 3.4 3.2 3.4zm6.7-5.2c0-.6 0-1.9 0-2.3c0 0 1 0 1 0c.1.6.1 1.3.1 1.4c0 0 .1 0 .1 0c.4-.9 1.5-1.7 2.8-1.7c2.6 0 3.2 1.8 3.2 3.6c-.02.03 0 5 0 5l-1.1 0c0 0 0-4.92 0-4.9c0-1.4-.4-2.7-2.1-2.7c-1.6 0-2.9 1.1-2.9 3.4c.03.02 0 4.2 0 4.2l-1.1 0c0 0 .05-6 0-6zm17.3 4.4c-.8 1.3-2.1 1.8-3.6 1.8c-2.5 0-4.2-1.8-4.2-4.4c0-2.5 1.7-4.4 4.1-4.4c2.6 0 4 2 4 3.9c-.05.04 0 .8 0 .8c0 0-7.03-.01-7 0c0 .9.6 3.1 3.1 3.1c1.1 0 2.3-.6 2.8-1.5c0 0 .8.7.8.7zm-.8-3.3c0-1.5-1.3-2.7-2.9-2.7c-2.4 0-3 2.3-3 2.7c0 0 5.9 0 5.9 0z" stroke="none" fill="#000"/></g><g id="Polygon46777"><path d="m7.7 3.7c-.5-.7-1.4-1-2.3-1c-1 0-2.1.4-2.1 1.6c0 2.6 6.1 1.1 6.1 5.6c0 2.8-2.2 4.1-4.7 4.1c-1.6 0-3.1-.5-4.1-1.7c0 0 1.7-1.7 1.7-1.7c.5.9 1.5 1.4 2.5 1.4c1 0 2.2-.6 2.2-1.8c0-2.8-6-1.2-6-5.7c0-2.7 2.3-3.9 4.7-3.9c1.3 0 2.6.4 3.6 1.3c0 0-1.6 1.8-1.6 1.8zm7.9-2.8l1.9 0l5.5 12.8l-2.6 0l-1.2-2.9l-5.5 0l-1.1 2.9l-2.6 0l5.6-12.8zm2.8 7.9l-1.9-5.2l-2 5.2l3.9 0zm14.2-4.9c-1-1-1.8-1.2-2.7-1.2c-2.7 0-4.4 2-4.4 4.5c0 2.7 1.7 4.8 4.4 4.8c1 0 2-.5 2.8-1.6c0 0 1.9 1.3 1.9 1.3c-1.1 1.6-2.9 2.3-4.7 2.3c-4 0-6.8-2.7-6.8-6.6c0-4.1 2.8-6.8 6.8-6.8c1.7 0 3.2.6 4.4 2c0 0-1.7 1.3-1.7 1.3zm3.5-3c0 0 4.4.04 4.4 0c2.4 0 4.8.8 4.8 3.7c0 1.8-1.1 3.2-3 3.4c0 .05 3.4 5.7 3.4 5.7l-2.8 0l-2.9-5.4l-1.7 0l0 5.4l-2.2 0l0-12.8zm4 5.4c1.3 0 2.8-.1 2.8-1.7c0-1.5-1.4-1.7-2.6-1.7c0-.02-2 0-2 0l0 3.4c0 0 1.81.04 1.8 0zm7.3-5.4l8.4 0l0 2.1l-6.1 0l0 3.1l5.8 0l0 2.1l-5.8 0l0 3.4l6.4 0l0 2.1l-8.7 0l0-12.8zm10.9 0c0 0 5.05.04 5 0c3.4 0 6.5 2.1 6.5 6.4c0 4.4-3.7 6.4-6.7 6.4c-.02-.02-4.8 0-4.8 0l0-12.8zm4 10.7c2.8 0 5.2-1.2 5.2-4.3c0-3.1-2.1-4.3-4.8-4.3c-.04-.01-2.1 0-2.1 0l0 8.6c0 0 1.69.03 1.7 0zm19.1-10.7l2 0l5.5 12.8l-2.6 0l-1.2-2.9l-5.5 0l-1.2 2.9l-2.5 0l5.5-12.8zm2.9 7.9l-1.9-5.2l-2 5.2l3.9 0zm12.5-5.1c-.5-.7-1.4-1-2.3-1c-1 0-2.1.4-2.1 1.6c0 2.6 6.1 1.1 6.1 5.6c0 2.8-2.2 4.1-4.7 4.1c-1.6 0-3.1-.5-4.2-1.7c0 0 1.8-1.7 1.8-1.7c.5.9 1.5 1.4 2.5 1.4c1 0 2.2-.6 2.2-1.8c0-2.8-6-1.2-6-5.7c0-2.7 2.3-3.9 4.7-3.9c1.3 0 2.6.4 3.6 1.3c0 0-1.6 1.8-1.6 1.8zm10 0c-.5-.7-1.4-1-2.3-1c-1 0-2 .4-2 1.6c0 2.6 6 1.1 6 5.6c0 2.8-2.2 4.1-4.7 4.1c-1.5 0-3.1-.5-4.1-1.7c0 0 1.7-1.7 1.7-1.7c.5.9 1.5 1.4 2.5 1.4c1 0 2.2-.6 2.2-1.8c0-2.8-6-1.2-6-5.7c0-2.7 2.3-3.9 4.7-3.9c1.3 0 2.6.4 3.6 1.3c0 0-1.6 1.8-1.6 1.8zm9.9-3.1c3.9-.1 6.7 2.6 6.7 6.7c0 4-2.8 6.6-6.7 6.7c-4 0-6.8-2.7-6.8-6.6c0-4.1 2.8-6.8 6.8-6.8zm0 11.4c2.6 0 4.4-2.1 4.4-4.8c0-2.5-1.8-4.5-4.4-4.5c-2.6 0-4.4 2-4.4 4.5c0 2.7 1.8 4.8 4.4 4.8zm17.6-8.1c-.9-1-1.8-1.2-2.7-1.2c-2.6 0-4.3 2-4.3 4.5c0 2.7 1.7 4.8 4.3 4.8c1.1 0 2.1-.5 2.9-1.6c0 0 1.9 1.3 1.9 1.3c-1.2 1.6-2.9 2.3-4.8 2.3c-3.9 0-6.7-2.7-6.7-6.6c0-4.1 2.8-6.8 6.7-6.8c1.8 0 3.2.6 4.5 2c0 0-1.8 1.3-1.8 1.3zm3.5-3l2.3 0l0 12.8l-2.3 0l0-12.8zm9.2 0l1.9 0l5.5 12.8l-2.6 0l-1.2-2.9l-5.5 0l-1.1 2.9l-2.6 0l5.6-12.8zm2.9 7.9l-2-5.2l-2 5.2l4 0zm7.2-5.8l-3.9 0l0-2.1l10.1 0l0 2.1l-3.9 0l0 10.7l-2.3 0l0-10.7zm7.6-2.1l2.3 0l0 12.8l-2.3 0l0-12.8zm11.1-.3c4-.1 6.8 2.6 6.8 6.7c0 4-2.8 6.6-6.8 6.7c-3.9 0-6.7-2.7-6.7-6.6c0-4.1 2.8-6.8 6.7-6.8zm0 11.4c2.7 0 4.4-2.1 4.4-4.8c0-2.5-1.7-4.5-4.4-4.5c-2.6 0-4.4 2-4.4 4.5c0 2.7 1.8 4.8 4.4 4.8zm8.9-11.1l3 0l6.2 9.5l0 0l0 0l0 0l0-9.5l2.3 0l0 12.8l-2.9 0l-6.3-9.8l0 0l0 9.8l-2.3 0l0-12.8zm20.4 2.8c-.5-.7-1.3-1-2.2-1c-1.1 0-2.1.4-2.1 1.6c0 2.6 6 1.1 6 5.6c0 2.8-2.1 4.1-4.6 4.1c-1.6 0-3.1-.5-4.2-1.7c0 0 1.7-1.7 1.7-1.7c.6.9 1.5 1.4 2.5 1.4c1.1 0 2.3-.6 2.3-1.8c0-2.8-6.1-1.2-6.1-5.7c0-2.7 2.4-3.9 4.7-3.9c1.4 0 2.7.4 3.7 1.3c0 0-1.7 1.8-1.7 1.8z" stroke="none" fill="#be870e"/></g></svg>