<svg xmlns="http://www.w3.org/2000/svg" version="1.1" width="194px" height="189.9px" viewBox="0 0 194 189.9"><desc>A recent accession to the MIA s African collection brings with it ritual riches and a bellyful of intrigue</desc><defs/><g id="Polygon46550"><path d="m3.4 133.8c.4 1 1.2 1.8 2.2 1.8c1.7 0 2.5-1.5 2.5-3.2c0-1.8-.8-3.2-2.5-3.2c-1 0-1.8.7-2.2 1.8c0 0 0 2.8 0 2.8zm-1.1 2.6l-.5 0c0 0 0-10.33 0-10.3c0-2.2-.3-2.6-1.7-2.6c-.03 0 0-.5 0-.5l3.3-.5c0 0-.03 7.16 0 7.2c.6-.9 1.5-1.3 2.7-1.3c2 0 3.8 1.8 3.8 4c0 2.2-1.8 4-3.8 4c-1.2 0-2.2-.5-2.9-1.4c.03-.04-.9 1.4-.9 1.4zm14.6-5.4c.3-.7-.1-1.8-1.5-1.8c-1 0-1.8.7-2.1 1.8c0 0 3.6 0 3.6 0zm-.9 4.5c.7 0 1.8-.4 2.4-1c0 0 .4.5.4.5c-.7.8-2.1 1.4-3.3 1.4c-2.4 0-4.1-1.8-4.1-4c0-2.3 2-4 4.1-4c1.9 0 3.5 1.5 3 3.4c0 0-5.3 0-5.3 0c-.3 2.1.6 3.7 2.8 3.7zm3.8.6c0 0-.02-.5 0-.5c1.4 0 1.7-.4 1.7-2.6c0 0 0-6.9 0-6.9c0-2.2-.3-2.6-1.7-2.6c-.02 0 0-.5 0-.5l3.3-.5c0 0-.02 10.52 0 10.5c0 2.2.3 2.6 1.7 2.6c.01 0 0 .5 0 .5l-5 0zm5.9 0c0 0-.03-.5 0-.5c1.4 0 1.7-.4 1.7-2.6c0 0 0-6.9 0-6.9c0-2.2-.3-2.6-1.7-2.6c-.03 0 0-.5 0-.5l3.3-.5c0 0-.03 10.52 0 10.5c0 2.2.3 2.6 1.7 2.6c0 0 0 .5 0 .5l-5 0zm7.5 2.6c-.02 0 1.1-2.8 1.1-2.8c0 0-2.55-5.43-2.6-5.4c-.4-1-.7-1.3-1.4-1.3c-.03-.03 0-.5 0-.5l3.9 0c0 0-.03.47 0 .5c-1 0-1.2.2-.7 1.3c-.04-.03 1.6 3.5 1.6 3.5c0 0 1.38-3.53 1.4-3.5c.4-1 .2-1.3-.7-1.3c.04-.03 0-.5 0-.5l3.1 0c0 0 .02.47 0 .5c-.7 0-1.1.3-1.5 1.3c0 0-4.3 10.7-4.3 10.7c-.2.4-.5.8-.8.8c-.4 0-.8-.2-.8-.7c0-.9 1-.9 1.7-2.6zm9.9-5.7c0 2.2.3 2.6 1.7 2.6c.03 0 0 .5 0 .5l-5 0c0 0-.01-.5 0-.5c1.4 0 1.7-.4 1.7-2.6c.03.02 0-3.5 0-3.5l-1.8 0l0-.8l1.8 0c0 0 .03-2.08 0-2.1c0-3 1.8-4.1 3.6-4.1c1.5 0 2.2.9 2.2 1.6c0 .5-.2.8-.7.8c-1.1 0-.5-1.7-1.9-1.7c-1.1 0-1.6.9-1.6 3.4c-.01.02 0 2.1 0 2.1l2.2 0l0 .8l-2.2 0c0 0-.01 3.52 0 3.5zm10.8 3.4c-.1-.2-.3-1-.3-1.4c-.6.6-1.6 1.4-2.9 1.4c-2 0-2.8-1.4-2.8-3.3c0 0 0-1.4 0-1.4c0-2.2-.2-2.5-1.7-2.5c.01-.03 0-.5 0-.5l3.3 0c0 0 .01 4.32 0 4.3c0 1.5.5 2.4 1.7 2.4c.8 0 2.4-.8 2.4-2.2c0 0 0-1.5 0-1.5c0-2.2-.3-2.5-1.8-2.5c0-.03 0-.5 0-.5l3.3 0c0 0 0 4.15 0 4.1c0 2.2.3 2.6 1.8 2.6c-.04.02 0 .5 0 .5c0 0-2.99.53-3 .5zm3.8-.3c0 0 .02-.5 0-.5c1.5 0 1.8-.4 1.8-2.6c0 0 0-6.9 0-6.9c0-2.2-.3-2.6-1.8-2.6c.02 0 0-.5 0-.5l3.3-.5c0 0 .02 10.52 0 10.5c0 2.2.3 2.6 1.8 2.6c-.04 0 0 .5 0 .5l-5.1 0zm14.8.3c-2.4 0-4.4-1.8-4.4-4c0-2.2 2-4 4.4-4c2.4 0 4.5 1.8 4.5 4c0 2.2-2.1 4-4.5 4zm0-7.2c-1.8 0-2.7 1.4-2.7 3.2c0 1.7.9 3.2 2.7 3.2c1.8 0 2.7-1.5 2.7-3.2c0-1.8-.9-3.2-2.7-3.2zm8.7 3.8c0 2.2.3 2.6 1.8 2.6c-.05 0 0 .5 0 .5l-5.1 0c0 0 .02-.5 0-.5c1.5 0 1.8-.4 1.8-2.6c-.05.02 0-3.5 0-3.5l-1.9 0l0-.8l1.9 0c0 0-.05-2.08 0-2.1c0-3 1.8-4.1 3.6-4.1c1.4 0 2.2.9 2.2 1.6c0 .5-.3.8-.8.8c-1 0-.4-1.7-1.8-1.7c-1.2 0-1.7.9-1.7 3.4c.02.02 0 2.1 0 2.1l2.2 0l0 .8l-2.2 0c0 0 .02 3.52 0 3.5zm7.4 3.1c0 0 .01-.5 0-.5c1.5 0 1.7-.4 1.7-2.6c0 0 0-1.1 0-1.1c0-2.2-.2-2.5-1.7-2.5c.01-.03 0-.5 0-.5l3.3-.5c0 0 .01 4.62 0 4.6c0 2.2.3 2.6 1.7 2.6c.04 0 0 .5 0 .5l-5 0zm2.5-9.9c-.5 0-1-.4-1-1c0-.5.5-1 1-1c.5 0 1 .5 1 1c0 .6-.5 1-1 1zm9.9 2.2c2 0 2.9 1.4 2.9 3.2c0 0 0 1.4 0 1.4c0 2.2.3 2.6 1.7 2.6c.05 0 0 .5 0 .5l-5 0c0 0 .01-.5 0-.5c1.4 0 1.7-.4 1.7-2.6c0 0 0-1.3 0-1.3c0-1.4-.5-2.3-1.8-2.3c-1.2 0-2.5 1-2.5 2.2c0 0 0 1.4 0 1.4c0 2.3.2 2.6 1.5 2.6c.03 0 0 .5 0 .5l-4.8 0c0 0-.01-.5 0-.5c1.4 0 1.7-.4 1.7-2.6c0 0 0-1.1 0-1.1c0-2.2-.3-2.5-1.7-2.5c-.01-.03 0-.5 0-.5c0 0 2.92-.54 2.9-.5c.1.2.3 1.1.4 1.5c.6-.7 1.6-1.5 3-1.5zm4.9 1.1c0 0 .03-.52 0-.5c1.3-.3 1.8-1.3 2-2.7c-.01.01.7 0 .7 0l0 2.4l1.9 0l0 .8l-1.9 0c0 0 .03 4.45 0 4.4c0 1.1.3 1.7 1 1.7c.4 0 .9-.3 1.5-.8c0 0 .3.4.3.4c-.6.7-1.6 1.2-2.3 1.2c-1.2 0-2-.7-2-2.5c-.03.05 0-4.4 0-4.4l-1.2 0zm13 1.3c-.4 0-.8-.4-.8-.8c0-.5-.2-.8-.7-.8c-.5 0-1.7.9-1.7 2.6c0 0 0 1.2 0 1.2c0 2.2.3 2.6 1.8 2.6c-.02 0 0 .5 0 .5l-5.1 0c0 0 .04-.5 0-.5c1.5 0 1.8-.4 1.8-2.6c0 0 0-1.1 0-1.1c0-2.2-.3-2.5-1.8-2.5c.04-.03 0-.5 0-.5c0 0 2.97-.54 3-.5c.1.2.3 1.1.3 1.5c.5-.8 1.5-1.5 2.4-1.5c1.2 0 1.7.8 1.7 1.3c0 .5-.2 1.1-.9 1.1zm2 5.3c0 0-.03-.5 0-.5c1.4 0 1.7-.4 1.7-2.6c0 0 0-1.1 0-1.1c0-2.2-.3-2.5-1.7-2.5c-.03-.03 0-.5 0-.5l3.3-.5c0 0-.03 4.62 0 4.6c0 2.2.2 2.6 1.7 2.6c.01 0 0 .5 0 .5l-5 0zm2.5-9.9c-.6 0-1-.4-1-1c0-.5.4-1 1-1c.5 0 .9.5.9 1c0 .6-.4 1-.9 1zm6.9 2.9c-1.1 0-1.6 1-1.6 2.3c0 1.2.5 2.2 1.6 2.2c1.1 0 1.6-1 1.6-2.2c0-1.3-.5-2.3-1.6-2.3zm-.1 7c3.1.2 4 1.5 4 2.9c0 1.8-1.7 2.9-3.9 2.9c-3.7 0-5.1-2.7-2.4-4.1c0 0 .4.2.4.2c-1.9 2.1.3 3.1 2 3.1c1.4 0 2.8-.7 2.8-1.7c0-1.1-1.1-1.4-3-1.6c-1.8-.1-3.1-.7-3.1-2c0-.8.7-1.4 1.8-1.8c-1.1-.5-1.8-1.5-1.8-2.6c0-1.7 1.5-3 3.3-3c.9 0 1.6.3 2.2.8c.4-.5 1.2-.8 1.7-.8c1.5 0 1.6 1.8.7 1.8c-.9.1-.4-1-1.3-1c-.2 0-.4.1-.7.4c.4.5.7 1.1.7 1.8c0 1.6-1.5 2.7-2.9 2.9c-1 .2-2.5.4-2.5 1c0 .6 1.3.7 2 .8zm13.6.3c-.1-.2-.3-1-.4-1.4c-.5.6-1.6 1.4-2.8 1.4c-2.1 0-2.8-1.4-2.8-3.3c0 0 0-1.4 0-1.4c0-2.2-.2-2.5-1.7-2.5c-.02-.03 0-.5 0-.5l3.3 0c0 0-.02 4.32 0 4.3c0 1.5.5 2.4 1.7 2.4c.8 0 2.3-.8 2.3-2.2c0 0 0-1.5 0-1.5c0-2.2-.3-2.5-1.7-2.5c-.03-.03 0-.5 0-.5l3.3 0c0 0-.03 4.15 0 4.1c0 2.2.3 2.6 1.7 2.6c.03.02 0 .5 0 .5c0 0-2.92.53-2.9.5zm9.1-5.4c.2-.7-.1-1.8-1.6-1.8c-.9 0-1.7.7-2 1.8c0 0 3.6 0 3.6 0zm-.9 4.5c.7 0 1.8-.4 2.4-1c0 0 .4.5.4.5c-.8.8-2.1 1.4-3.4 1.4c-2.4 0-4-1.8-4-4c0-2.3 2-4 4-4c2 0 3.6 1.5 3 3.4c0 0-5.3 0-5.3 0c-.2 2.1.6 3.7 2.9 3.7zm6.1.7c-.7 0-1.2-.5-1.2-1.1c0-.6.5-1.2 1.2-1.2c.7 0 1.2.6 1.2 1.2c0 .6-.5 1.1-1.2 1.1z" stroke="none" fill="#fff"/></g><g id="Polygon46549"><path d="m.8 106.1c0 0 .04-.5 0-.5c1.5 0 1.8-.4 1.8-2.6c0 0 0-1.1 0-1.1c0-2.2-.3-2.5-1.8-2.5c.04-.03 0-.5 0-.5l3.3-.5c0 0 .04 4.62 0 4.6c0 2.2.3 2.6 1.8 2.6c-.03 0 0 .5 0 .5l-5.1 0zm2.5-9.9c-.5 0-.9-.4-.9-1c0-.5.4-1 .9-1c.6 0 1 .5 1 1c0 .6-.4 1-1 1zm2.8 3.3c0 0 .03-.52 0-.5c1.4-.3 1.8-1.3 2-2.7c-.01.01.7 0 .7 0l0 2.4l2 0l0 .8l-2 0c0 0 .04 4.45 0 4.4c0 1.1.3 1.7 1 1.7c.4 0 1-.3 1.5-.8c0 0 .3.4.3.4c-.6.7-1.6 1.2-2.3 1.2c-1.2 0-2-.7-2-2.5c-.02.05 0-4.4 0-4.4l-1.2 0zm17 1.3c-.4 0-.8-.4-.8-.8c0-.5-.2-.8-.7-.8c-.5 0-1.7.9-1.7 2.6c0 0 0 1.2 0 1.2c0 2.2.3 2.6 1.8 2.6c-.02 0 0 .5 0 .5l-5.1 0c0 0 .05-.5 0-.5c1.5 0 1.8-.4 1.8-2.6c0 0 0-1.1 0-1.1c0-2.2-.3-2.5-1.8-2.5c.05-.03 0-.5 0-.5c0 0 2.97-.54 3-.5c.1.2.3 1.1.3 1.5c.5-.8 1.5-1.5 2.4-1.5c1.2 0 1.7.8 1.7 1.3c0 .5-.2 1.1-.9 1.1zm2 5.3c0 0-.03-.5 0-.5c1.4 0 1.7-.4 1.7-2.6c0 0 0-1.1 0-1.1c0-2.2-.3-2.5-1.7-2.5c-.03-.03 0-.5 0-.5l3.3-.5c0 0-.03 4.62 0 4.6c0 2.2.2 2.6 1.7 2.6c.01 0 0 .5 0 .5l-5 0zm2.5-9.9c-.5 0-1-.4-1-1c0-.5.5-1 1-1c.5 0 1 .5 1 1c0 .6-.5 1-1 1zm2.8 3.3c0 0-.03-.52 0-.5c1.3-.3 1.8-1.3 1.9-2.7c.03.01.8 0 .8 0l0 2.4l1.9 0l0 .8l-1.9 0c0 0-.02 4.45 0 4.4c0 1.1.3 1.7 1 1.7c.4 0 .9-.3 1.4-.8c0 0 .4.4.4.4c-.6.7-1.6 1.2-2.3 1.2c-1.2 0-2.1-.7-2.1-2.5c.01.05 0-4.4 0-4.4l-1.1 0zm13.5 6.9c-.1-.2-.2-1-.3-1.4c-.6.6-1.6 1.4-2.9 1.4c-2 0-2.7-1.4-2.7-3.3c0 0 0-1.4 0-1.4c0-2.2-.3-2.5-1.8-2.5c.04-.03 0-.5 0-.5l3.3 0c0 0 .04 4.32 0 4.3c0 1.5.5 2.4 1.7 2.4c.9 0 2.4-.8 2.4-2.2c0 0 0-1.5 0-1.5c0-2.2-.3-2.5-1.8-2.5c.03-.03 0-.5 0-.5l3.3 0c0 0 .03 4.15 0 4.1c0 2.2.3 2.6 1.8 2.6c-.01.02 0 .5 0 .5c0 0-2.96.53-3 .5zm10.2-.1c-.8 0-1.4-.5-1.5-1.3c-1 1-1.8 1.3-2.7 1.3c-1.1 0-2-.6-2-1.8c0-1.9 2.2-2.7 4.7-3.1c0-1.7-.2-2.3-1.5-2.3c-.5 0-1.2.3-1.2 1c0 .5-.4.8-.8.8c-.4 0-.8-.3-.8-.8c0-1 1.4-1.7 2.8-1.7c2.2 0 3.1.9 3.1 3c0 0 0 3.3 0 3.3c0 .5.1.8.5.8c.2 0 .4-.1.6-.3c0 0 .3.4.3.4c-.4.5-1 .7-1.5.7zm-1.5-4.2c-2.1.4-3 1.2-3 2.1c0 .7.4 1.2 1 1.2c.5 0 1-.2 2-1.1c0 0 0-2.2 0-2.2zm3.8 4c0 0 0-.5 0-.5c1.5 0 1.7-.4 1.7-2.6c0 0 0-6.9 0-6.9c0-2.2-.2-2.6-1.7-2.6c0 0 0-.5 0-.5l3.3-.5c0 0 0 10.52 0 10.5c0 2.2.3 2.6 1.7 2.6c.04 0 0 .5 0 .5l-5 0zm16.6-5.3c-.4 0-.8-.4-.8-.8c0-.5-.2-.8-.7-.8c-.5 0-1.7.9-1.7 2.6c0 0 0 1.2 0 1.2c0 2.2.3 2.6 1.8 2.6c-.04 0 0 .5 0 .5l-5.1 0c0 0 .02-.5 0-.5c1.5 0 1.8-.4 1.8-2.6c0 0 0-1.1 0-1.1c0-2.2-.3-2.5-1.8-2.5c.02-.03 0-.5 0-.5c0 0 2.95-.54 3-.5c.1.2.3 1.1.3 1.5c.5-.8 1.5-1.5 2.3-1.5c1.2 0 1.8.8 1.8 1.3c0 .5-.2 1.1-.9 1.1zm2 5.3c0 0-.05-.5 0-.5c1.4 0 1.7-.4 1.7-2.6c0 0 0-1.1 0-1.1c0-2.2-.3-2.5-1.7-2.5c-.05-.03 0-.5 0-.5l3.3-.5c0 0-.05 4.62 0 4.6c0 2.2.2 2.6 1.7 2.6c-.01 0 0 .5 0 .5l-5 0zm2.5-9.9c-.6 0-1-.4-1-1c0-.5.4-1 1-1c.5 0 .9.5.9 1c0 .6-.4 1-.9 1zm5 6.4c0 1.7.8 2.9 2.6 2.9c.8 0 1.7-.3 2.4-1c0 0 .4.5.4.5c-.9.9-2.1 1.4-3.3 1.4c-2.5 0-3.9-1.6-3.9-3.8c0-2.6 2.1-4.2 3.9-4.2c1.8 0 2.6.7 2.6 1.5c0 .4-.2 1-1 1c-.5 0-.8-.4-.8-.9c0-.7-.4-.9-.8-.9c-1.2 0-2.1 1.5-2.1 3.5zm11.9 3.5c0 0 0-.5 0-.5c1.4 0 1.6-.3 1.6-2.6c0 0 0-1.3 0-1.3c0-1.4-.6-2.3-1.7-2.3c-1.1 0-2.4.9-2.4 2.2c0 0 0 1.4 0 1.4c0 2.3.2 2.6 1.4 2.6c0 0 0 .5 0 .5l-4.7 0c0 0 .01-.5 0-.5c1.5 0 1.7-.4 1.7-2.6c0 0 0-6.9 0-6.9c0-2.2-.2-2.6-1.7-2.6c.01 0 0-.5 0-.5l3.3-.5c0 0 .01 7.44 0 7.4c.6-.7 1.6-1.5 2.9-1.5c2 0 2.7 1.4 2.7 3.2c0 0 0 1.4 0 1.4c0 2.2.3 2.6 1.8 2.6c-.04 0 0 .5 0 .5l-4.9 0zm11-5.1c.3-.7-.1-1.8-1.6-1.8c-.9 0-1.7.7-2 1.8c0 0 3.6 0 3.6 0zm-.9 4.5c.7 0 1.8-.4 2.4-1c0 0 .4.5.4.5c-.7.8-2.1 1.4-3.3 1.4c-2.5 0-4.1-1.8-4.1-4c0-2.3 2-4 4.1-4c1.9 0 3.5 1.5 3 3.4c0 0-5.4 0-5.4 0c-.2 2.1.6 3.7 2.9 3.7zm6.9.9c-1.5 0-2.3-1.5-2.3 0c-.04.03-.5 0-.5 0l0-3.2c0 0 .46.02.5 0c0 1 .8 2.5 2.4 2.5c.7 0 1.2-.5 1.2-1.1c0-.6-.4-1-1.2-1.4c0 0-1.2-.6-1.2-.6c-1.1-.6-1.5-1.5-1.5-2.2c0-1.2 1.1-2 2.2-2c1.7 0 2 1.1 2 0c.02-.04.5 0 .5 0l0 2.5c0 0-.48.01-.5 0c0-.9-.6-1.8-1.8-1.8c-.7 0-1.1.4-1.1.9c0 .5.4.8 1.4 1.4c0 0 1 .5 1 .5c1 .6 1.5 1.3 1.5 2.1c0 1.5-1.2 2.4-2.6 2.4zm14.2-.1c-.8 0-1.3-.5-1.4-1.3c-1.1 1-1.9 1.3-2.8 1.3c-1.1 0-2-.6-2-1.8c0-1.9 2.2-2.7 4.7-3.1c0-1.7-.2-2.3-1.5-2.3c-.5 0-1.2.3-1.2 1c0 .5-.3.8-.8.8c-.4 0-.7-.3-.7-.8c0-1 1.3-1.7 2.8-1.7c2.1 0 3 .9 3 3c0 0 0 3.3 0 3.3c0 .5.1.8.5.8c.2 0 .4-.1.6-.3c0 0 .3.4.3.4c-.4.5-1 .7-1.5.7zm-1.5-4.2c-2.1.4-3 1.2-3 2.1c0 .7.5 1.2 1 1.2c.5 0 1-.2 2-1.1c0 0 0-2.2 0-2.2zm10.4-3.7c2 0 2.8 1.4 2.8 3.2c0 0 0 1.4 0 1.4c0 2.2.3 2.6 1.8 2.6c-.02 0 0 .5 0 .5l-5.1 0c0 0 .04-.5 0-.5c1.5 0 1.8-.4 1.8-2.6c0 0 0-1.3 0-1.3c0-1.4-.5-2.3-1.8-2.3c-1.3 0-2.6 1-2.6 2.2c0 0 0 1.4 0 1.4c0 2.3.2 2.6 1.6 2.6c-.03 0 0 .5 0 .5l-4.9 0c0 0 .03-.5 0-.5c1.5 0 1.8-.4 1.8-2.6c0 0 0-1.1 0-1.1c0-2.2-.3-2.5-1.8-2.5c.03-.03 0-.5 0-.5c0 0 2.95-.54 3-.5c.1.2.3 1.1.3 1.5c.6-.7 1.6-1.5 3.1-1.5zm11.7 2.6c-.4-1.1-1.2-1.8-2.2-1.8c-1.7 0-2.5 1.4-2.5 3.2c0 1.7.8 3.2 2.5 3.2c1 0 1.8-.8 2.2-1.8c0 0 0-2.8 0-2.8zm0-4.9c0-2.2-.2-2.6-1.7-2.6c-.02 0 0-.5 0-.5l3.3-.5c0 0-.02 10.35 0 10.3c0 2.2.3 2.6 1.7 2.6c.02.02 0 .5 0 .5c0 0-2.9.53-2.9.5c-.1-.2-.3-1-.4-1.3c-.6.8-1.5 1.3-2.7 1.3c-2.1 0-3.8-1.8-3.8-4c0-2.2 1.7-4 3.8-4c1.1 0 2.1.4 2.7 1.3c0 0 0-3.6 0-3.6zm14.6 10.2c-.9 0-1.4-.5-1.5-1.3c-1.1 1-1.9 1.3-2.7 1.3c-1.1 0-2-.6-2-1.8c0-1.9 2.2-2.7 4.7-3.1c0-1.7-.3-2.3-1.5-2.3c-.5 0-1.3.3-1.3 1c0 .5-.3.8-.7.8c-.4 0-.8-.3-.8-.8c0-1 1.4-1.7 2.8-1.7c2.1 0 3 .9 3 3c0 0 0 3.3 0 3.3c0 .5.2.8.5.8c.3 0 .5-.1.7-.3c0 0 .3.4.3.4c-.5.5-1 .7-1.5.7zm-1.5-4.2c-2.1.4-3.1 1.2-3.1 2.1c0 .7.5 1.2 1.1 1.2c.4 0 1-.2 2-1.1c0 0 0-2.2 0-2.2z" stroke="none" fill="#fff"/></g><g id="Polygon46548"><path d="m2.8 72.6c0 1.7.9 2.9 2.7 2.9c.7 0 1.6-.3 2.4-1c0 0 .3.5.3.5c-.8.9-2 1.4-3.3 1.4c-2.4 0-3.8-1.6-3.8-3.8c0-2.6 2.1-4.2 3.8-4.2c1.9 0 2.7.7 2.7 1.5c0 .4-.3 1-1 1c-.5 0-.9-.4-.9-.9c0-.7-.4-.9-.8-.9c-1.1 0-2.1 1.5-2.1 3.5zm10.7 3.8c-2.5 0-4.5-1.8-4.5-4c0-2.2 2-4 4.5-4c2.4 0 4.4 1.8 4.4 4c0 2.2-2 4-4.4 4zm0-7.2c-1.8 0-2.7 1.4-2.7 3.2c0 1.7.9 3.2 2.7 3.2c1.8 0 2.7-1.5 2.7-3.2c0-1.8-.9-3.2-2.7-3.2zm5.1 6.9c0 0-.01-.5 0-.5c1.5 0 1.7-.4 1.7-2.6c0 0 0-6.9 0-6.9c0-2.2-.2-2.6-1.7-2.6c-.01 0 0-.5 0-.5l3.3-.5c0 0-.01 10.52 0 10.5c0 2.2.3 2.6 1.7 2.6c.03 0 0 .5 0 .5l-5 0zm5.9 0c0 0-.01-.5 0-.5c1.5 0 1.7-.4 1.7-2.6c0 0 0-6.9 0-6.9c0-2.2-.2-2.6-1.7-2.6c-.01 0 0-.5 0-.5l3.3-.5c0 0-.01 10.52 0 10.5c0 2.2.3 2.6 1.7 2.6c.02 0 0 .5 0 .5l-5 0zm11.2-5.1c.2-.7-.1-1.8-1.6-1.8c-.9 0-1.8.7-2.1 1.8c0 0 3.7 0 3.7 0zm-.9 4.5c.7 0 1.7-.4 2.4-1c0 0 .4.5.4.5c-.8.8-2.1 1.4-3.4 1.4c-2.4 0-4.1-1.8-4.1-4c0-2.3 2.1-4 4.1-4c2 0 3.5 1.5 3 3.4c0 0-5.3 0-5.3 0c-.3 2.1.6 3.7 2.9 3.7zm5.7-2.9c0 1.7.9 2.9 2.7 2.9c.7 0 1.6-.3 2.4-1c0 0 .3.5.3.5c-.8.9-2 1.4-3.2 1.4c-2.5 0-3.9-1.6-3.9-3.8c0-2.6 2.1-4.2 3.9-4.2c1.8 0 2.6.7 2.6 1.5c0 .4-.2 1-1 1c-.5 0-.9-.4-.9-.9c0-.7-.4-.9-.7-.9c-1.2 0-2.2 1.5-2.2 3.5zm6-3.1c0 0 .03-.52 0-.5c1.4-.3 1.8-1.3 2-2.7c-.01.01.7 0 .7 0l0 2.4l2 0l0 .8l-2 0c0 0 .04 4.45 0 4.4c0 1.1.3 1.7 1 1.7c.4 0 1-.3 1.5-.8c0 0 .3.4.3.4c-.6.7-1.6 1.2-2.3 1.2c-1.2 0-2-.7-2-2.5c-.02.05 0-4.4 0-4.4l-1.2 0zm6.5 6.6c0 0 .05-.5 0-.5c1.5 0 1.8-.4 1.8-2.6c0 0 0-1.1 0-1.1c0-2.2-.3-2.5-1.8-2.5c.05-.03 0-.5 0-.5l3.3-.5c0 0 .05 4.62 0 4.6c0 2.2.3 2.6 1.8 2.6c-.01 0 0 .5 0 .5l-5.1 0zm2.6-9.9c-.6 0-1-.4-1-1c0-.5.4-1 1-1c.5 0 .9.5.9 1c0 .6-.4 1-.9 1zm7.5 10.2c-2.4 0-4.4-1.8-4.4-4c0-2.2 2-4 4.4-4c2.5 0 4.5 1.8 4.5 4c0 2.2-2 4-4.5 4zm0-7.2c-1.8 0-2.6 1.4-2.6 3.2c0 1.7.8 3.2 2.6 3.2c1.8 0 2.7-1.5 2.7-3.2c0-1.8-.9-3.2-2.7-3.2zm11.8-.8c2 0 2.9 1.4 2.9 3.2c0 0 0 1.4 0 1.4c0 2.2.2 2.6 1.7 2.6c.02 0 0 .5 0 .5l-5 0c0 0-.02-.5 0-.5c1.4 0 1.7-.4 1.7-2.6c0 0 0-1.3 0-1.3c0-1.4-.5-2.3-1.8-2.3c-1.2 0-2.5 1-2.5 2.2c0 0 0 1.4 0 1.4c0 2.3.1 2.6 1.5 2.6c0 0 0 .5 0 .5l-4.8 0c0 0-.04-.5 0-.5c1.4 0 1.7-.4 1.7-2.6c0 0 0-1.1 0-1.1c0-2.2-.3-2.5-1.7-2.5c-.04-.03 0-.5 0-.5c0 0 2.89-.54 2.9-.5c.1.2.3 1.1.4 1.5c.6-.7 1.6-1.5 3-1.5zm12.2 5.4c.4 1 1.2 1.8 2.2 1.8c1.7 0 2.5-1.5 2.5-3.2c0-1.8-.8-3.2-2.5-3.2c-1 0-1.8.7-2.2 1.8c0 0 0 2.8 0 2.8zm-1.1 2.6l-.5 0c0 0 .05-10.33 0-10.3c0-2.2-.2-2.6-1.7-2.6c.01 0 0-.5 0-.5l3.3-.5c0 0 .01 7.16 0 7.2c.7-.9 1.6-1.3 2.7-1.3c2.1 0 3.8 1.8 3.8 4c0 2.2-1.7 4-3.8 4c-1.2 0-2.2-.5-2.8-1.4c-.02-.04-1 1.4-1 1.4zm15-5.6c-.4 0-.7-.4-.7-.8c0-.5-.3-.8-.7-.8c-.5 0-1.7.9-1.7 2.6c0 0 0 1.2 0 1.2c0 2.2.2 2.6 1.7 2.6c0 0 0 .5 0 .5l-5 0c0 0-.04-.5 0-.5c1.4 0 1.7-.4 1.7-2.6c0 0 0-1.1 0-1.1c0-2.2-.3-2.5-1.7-2.5c-.04-.03 0-.5 0-.5c0 0 2.89-.54 2.9-.5c.1.2.3 1.1.4 1.5c.4-.8 1.4-1.5 2.3-1.5c1.2 0 1.7.8 1.7 1.3c0 .5-.2 1.1-.9 1.1zm2 5.3c0 0-.01-.5 0-.5c1.4 0 1.7-.4 1.7-2.6c0 0 0-1.1 0-1.1c0-2.2-.3-2.5-1.7-2.5c-.01-.03 0-.5 0-.5l3.3-.5c0 0-.01 4.62 0 4.6c0 2.2.3 2.6 1.7 2.6c.03 0 0 .5 0 .5l-5 0zm2.5-9.9c-.5 0-1-.4-1-1c0-.5.5-1 1-1c.5 0 1 .5 1 1c0 .6-.5 1-1 1zm9.9 2.2c2 0 2.9 1.4 2.9 3.2c0 0 0 1.4 0 1.4c0 2.2.3 2.6 1.7 2.6c.03 0 0 .5 0 .5l-5 0c0 0-.01-.5 0-.5c1.4 0 1.7-.4 1.7-2.6c0 0 0-1.3 0-1.3c0-1.4-.5-2.3-1.8-2.3c-1.2 0-2.5 1-2.5 2.2c0 0 0 1.4 0 1.4c0 2.3.2 2.6 1.5 2.6c.02 0 0 .5 0 .5l-4.8 0c0 0-.02-.5 0-.5c1.4 0 1.7-.4 1.7-2.6c0 0 0-1.1 0-1.1c0-2.2-.3-2.5-1.7-2.5c-.02-.03 0-.5 0-.5c0 0 2.9-.54 2.9-.5c.1.2.3 1.1.4 1.5c.6-.7 1.6-1.5 3-1.5zm9 .7c-1.1 0-1.6 1-1.6 2.3c0 1.2.5 2.2 1.6 2.2c1.1 0 1.6-1 1.6-2.2c0-1.3-.5-2.3-1.6-2.3zm0 7c3 .2 4 1.5 4 2.9c0 1.8-1.8 2.9-3.9 2.9c-3.7 0-5.2-2.7-2.5-4.1c0 0 .4.2.4.2c-1.8 2.1.4 3.1 2.1 3.1c1.4 0 2.7-.7 2.7-1.7c0-1.1-1.1-1.4-2.9-1.6c-1.8-.1-3.2-.7-3.2-2c0-.8.7-1.4 1.9-1.8c-1.1-.5-1.9-1.5-1.9-2.6c0-1.7 1.5-3 3.3-3c.9 0 1.7.3 2.3.8c.4-.5 1.2-.8 1.6-.8c1.6 0 1.6 1.8.8 1.8c-1 .1-.5-1-1.4-1c-.1 0-.4.1-.6.4c.4.5.6 1.1.6 1.8c0 1.6-1.4 2.7-2.9 2.9c-.9.2-2.4.4-2.4 1c0 .6 1.3.7 2 .8zm8.8.3c-1.5 0-2.4-1.5-2.4 0c.03.03-.4 0-.4 0l0-3.2c0 0 .43.02.4 0c0 1 .9 2.5 2.4 2.5c.8 0 1.3-.5 1.3-1.1c0-.6-.5-1-1.3-1.4c0 0-1.2-.6-1.2-.6c-1-.6-1.4-1.5-1.4-2.2c0-1.2 1.1-2 2.2-2c1.7 0 2 1.1 2 0c-.01-.04.5 0 .5 0l0 2.5c0 0-.51.01-.5 0c0-.9-.7-1.8-1.8-1.8c-.7 0-1.1.4-1.1.9c0 .5.4.8 1.3 1.4c0 0 1.1.5 1.1.5c1 .6 1.5 1.3 1.5 2.1c0 1.5-1.2 2.4-2.6 2.4zm11.2.1l-.4 0c0 0-2.59-6.03-2.6-6c-.4-1-.8-1.3-1.5-1.3c.01-.03 0-.5 0-.5l4 0c0 0 0 .47 0 .5c-.9 0-1.2.4-.8 1.3c0-.03 1.5 3.4 1.5 3.4l1.8-5.2l.5 0l2.2 5.2c0 0 1.2-3.43 1.2-3.4c.3-.9.1-1.3-.6-1.3c-.04-.03 0-.5 0-.5l3 0c0 0 .04.47 0 .5c-.7 0-1.2.3-1.5 1.3c-.02-.03-2.2 6-2.2 6l-.5 0l-2.2-5.1l-1.9 5.1zm9-.4c0 0 .04-.5 0-.5c1.5 0 1.8-.4 1.8-2.6c0 0 0-1.1 0-1.1c0-2.2-.3-2.5-1.8-2.5c.04-.03 0-.5 0-.5l3.3-.5c0 0 .04 4.62 0 4.6c0 2.2.3 2.6 1.8 2.6c-.02 0 0 .5 0 .5l-5.1 0zm2.6-9.9c-.6 0-1-.4-1-1c0-.5.4-1 1-1c.5 0 .9.5.9 1c0 .6-.4 1-.9 1zm2.7 3.3c0 0 .04-.52 0-.5c1.4-.3 1.8-1.3 2-2.7c0 .01.7 0 .7 0l0 2.4l2 0l0 .8l-2 0c0 0 .04 4.45 0 4.4c0 1.1.3 1.7 1 1.7c.4 0 1-.3 1.5-.8c0 0 .3.4.3.4c-.6.7-1.5 1.2-2.3 1.2c-1.2 0-2-.7-2-2.5c-.02.05 0-4.4 0-4.4l-1.2 0zm12.1 6.6c0 0 .03-.5 0-.5c1.4 0 1.6-.3 1.6-2.6c0 0 0-1.3 0-1.3c0-1.4-.5-2.3-1.7-2.3c-1.1 0-2.4.9-2.4 2.2c0 0 0 1.4 0 1.4c0 2.3.2 2.6 1.4 2.6c.03 0 0 .5 0 .5l-4.7 0c0 0 .05-.5 0-.5c1.5 0 1.8-.4 1.8-2.6c0 0 0-6.9 0-6.9c0-2.2-.3-2.6-1.8-2.6c.05 0 0-.5 0-.5l3.3-.5c0 0 .05 7.44 0 7.4c.7-.7 1.7-1.5 2.9-1.5c2.1 0 2.7 1.4 2.7 3.2c0 0 0 1.4 0 1.4c0 2.2.3 2.6 1.8 2.6c0 0 0 .5 0 .5l-4.9 0z" stroke="none" fill="#fff"/></g><g id="Polygon46547"><path d="m.6 39.5c0 0 .02-.52 0-.5c1.3-.3 1.8-1.3 2-2.7c-.03.01.7 0 .7 0l0 2.4l1.9 0l0 .8l-1.9 0c0 0 .02 4.45 0 4.4c0 1.1.3 1.7 1 1.7c.4 0 .9-.3 1.4-.8c0 0 .4.4.4.4c-.6.7-1.6 1.2-2.3 1.2c-1.2 0-2-.7-2-2.5c-.04.05 0-4.4 0-4.4l-1.2 0zm12.1 6.6c0 0 .01-.5 0-.5c1.4 0 1.6-.3 1.6-2.6c0 0 0-1.3 0-1.3c0-1.4-.6-2.3-1.7-2.3c-1.1 0-2.4.9-2.4 2.2c0 0 0 1.4 0 1.4c0 2.3.2 2.6 1.4 2.6c.01 0 0 .5 0 .5l-4.7 0c0 0 .03-.5 0-.5c1.5 0 1.8-.4 1.8-2.6c0 0 0-6.9 0-6.9c0-2.2-.3-2.6-1.8-2.6c.03 0 0-.5 0-.5l3.3-.5c0 0 .03 7.44 0 7.4c.6-.7 1.6-1.5 2.9-1.5c2 0 2.7 1.4 2.7 3.2c0 0 0 1.4 0 1.4c0 2.2.3 2.6 1.8 2.6c-.03 0 0 .5 0 .5l-4.9 0zm11-5.1c.3-.7-.1-1.8-1.5-1.8c-1 0-1.8.7-2.1 1.8c0 0 3.6 0 3.6 0zm-.9 4.5c.7 0 1.8-.4 2.4-1c0 0 .4.5.4.5c-.7.8-2.1 1.4-3.3 1.4c-2.4 0-4.1-1.8-4.1-4c0-2.3 2-4 4.1-4c1.9 0 3.5 1.5 3 3.4c0 0-5.3 0-5.3 0c-.3 2.1.6 3.7 2.8 3.7zm11.2-2.5c0 2.2.3 2.6 2.1 2.6c-.01 0 0 .5 0 .5l-5 0c0 0-.03-.5 0-.5c1.8 0 2.1-.4 2.1-2.6c0 0 0-7.1 0-7.1c0-2.2-.3-2.6-2.1-2.6c-.03.02 0-.4 0-.4l3.7 0l4.7 10.7l4.6-10.7l3.5 0c0 0-.03.42 0 .4c-1.9 0-2.1.4-2.1 2.6c0 0 0 7.1 0 7.1c0 2.2.2 2.6 2.1 2.6c-.03 0 0 .5 0 .5l-6 0c0 0 .03-.5 0-.5c1.9 0 2.1-.4 2.1-2.6c.02.02 0-7.1 0-7.1l-4.6 10.5l-.2 0l-4.9-11.2c0 0-.02 7.82 0 7.8zm15.2 3.1c0 0 .02-.5 0-.5c1.8 0 2.1-.4 2.1-2.6c0 0 0-7.1 0-7.1c0-2.2-.3-2.6-2.1-2.6c.02.02 0-.4 0-.4l6 0c0 0-.04.42 0 .4c-1.9 0-2.1.4-2.1 2.6c0 0 0 7.1 0 7.1c0 2.2.2 2.6 2.1 2.6c-.04 0 0 .5 0 .5l-6 0zm10.2-2.2c-.5 1.2-.1 1.7 1.7 1.7c.01 0 0 .5 0 .5l-5.1 0c0 0-.04-.5 0-.5c1.8 0 1.9-.4 2.6-1.9c0-.02 4.8-11.2 4.8-11.2l.3 0c0 0 4.89 11.18 4.9 11.2c.7 1.5.8 1.9 2.6 1.9c.01 0 0 .5 0 .5l-6.1 0c0 0 .02-.5 0-.5c1.8 0 2.3-.5 1.7-1.7c.03.03-1-2.4-1-2.4l-5.3 0c0 0-1.1 2.43-1.1 2.4zm3.7-8.5l-2.3 5.3l4.6 0l-2.3-5.3zm7.9-.8c-.6 0-1.1-.5-1.1-1c0-.6.5-1.1 1.1-1.1c.6 0 1.2.4 1.2 1.4c0 1-.7 2.4-2.1 3.3c0 0-.2-.2-.2-.2c.8-.9 1.1-1.5 1.3-2.4c-.1 0-.2 0-.2 0zm4.9 11.8c-1.6 0-2.4-1.5-2.4 0c.01.03-.4 0-.4 0l0-3.2c0 0 .41.02.4 0c0 1 .8 2.5 2.4 2.5c.7 0 1.3-.5 1.3-1.1c0-.6-.5-1-1.3-1.4c0 0-1.2-.6-1.2-.6c-1.1-.6-1.5-1.5-1.5-2.2c0-1.2 1.1-2 2.3-2c1.6 0 2 1.1 2 0c-.03-.04.4 0 .4 0l0 2.5c0 0-.43.01-.4 0c0-.9-.7-1.8-1.8-1.8c-.8 0-1.1.4-1.1.9c0 .5.3.8 1.3 1.4c0 0 1.1.5 1.1.5c.9.6 1.5 1.3 1.5 2.1c0 1.5-1.2 2.4-2.6 2.4zm9.7-2.5c-.5 1.2-.1 1.7 1.7 1.7c.05 0 0 .5 0 .5l-5.1 0c0 0 0-.5 0-.5c1.8 0 2-.4 2.6-1.9c.04-.02 4.9-11.2 4.9-11.2l.3 0c0 0 4.83 11.18 4.8 11.2c.7 1.5.8 1.9 2.6 1.9c.05 0 0 .5 0 .5l-6 0c0 0-.05-.5 0-.5c1.8 0 2.2-.5 1.7-1.7c-.03.03-1.1-2.4-1.1-2.4l-5.3 0c0 0-1.07 2.43-1.1 2.4zm3.7-8.5l-2.3 5.3l4.6 0l-2.3-5.3zm12.1 7.6c0 2.2.3 2.6 1.7 2.6c.03 0 0 .5 0 .5l-5 0c0 0-.01-.5 0-.5c1.4 0 1.7-.4 1.7-2.6c.03.02 0-3.5 0-3.5l-1.8 0l0-.8l1.8 0c0 0 .03-2.08 0-2.1c0-3 1.8-4.1 3.6-4.1c1.5 0 2.2.9 2.2 1.6c0 .5-.2.8-.7.8c-1.1 0-.5-1.7-1.9-1.7c-1.1 0-1.6.9-1.6 3.4c-.01.02 0 2.1 0 2.1l2.2 0l0 .8l-2.2 0c0 0-.01 3.52 0 3.5zm9.8-2.2c-.4 0-.8-.4-.8-.8c0-.5-.3-.8-.7-.8c-.5 0-1.7.9-1.7 2.6c0 0 0 1.2 0 1.2c0 2.2.3 2.6 1.7 2.6c.05 0 0 .5 0 .5l-5 0c0 0 .01-.5 0-.5c1.5 0 1.7-.4 1.7-2.6c0 0 0-1.1 0-1.1c0-2.2-.2-2.5-1.7-2.5c.01-.03 0-.5 0-.5c0 0 2.94-.54 2.9-.5c.1.2.3 1.1.4 1.5c.4-.8 1.4-1.5 2.3-1.5c1.2 0 1.8.8 1.8 1.3c0 .5-.2 1.1-.9 1.1zm1.9 5.3c0 0 .04-.5 0-.5c1.5 0 1.8-.4 1.8-2.6c0 0 0-1.1 0-1.1c0-2.2-.3-2.5-1.8-2.5c.04-.03 0-.5 0-.5l3.3-.5c0 0 .04 4.62 0 4.6c0 2.2.3 2.6 1.8 2.6c-.03 0 0 .5 0 .5l-5.1 0zm2.5-9.9c-.5 0-.9-.4-.9-1c0-.5.4-1 .9-1c.6 0 1 .5 1 1c0 .6-.4 1-1 1zm5.1 6.4c0 1.7.8 2.9 2.6 2.9c.7 0 1.6-.3 2.4-1c0 0 .3.5.3.5c-.8.9-2 1.4-3.2 1.4c-2.5 0-3.9-1.6-3.9-3.8c0-2.6 2.1-4.2 3.9-4.2c1.8 0 2.6.7 2.6 1.5c0 .4-.2 1-1 1c-.5 0-.8-.4-.8-.9c0-.7-.4-.9-.8-.9c-1.2 0-2.1 1.5-2.1 3.5zm12.6 3.7c-.8 0-1.4-.5-1.5-1.3c-1 1-1.8 1.3-2.7 1.3c-1.1 0-2-.6-2-1.8c0-1.9 2.2-2.7 4.7-3.1c0-1.7-.2-2.3-1.5-2.3c-.5 0-1.2.3-1.2 1c0 .5-.4.8-.8.8c-.4 0-.8-.3-.8-.8c0-1 1.4-1.7 2.8-1.7c2.2 0 3.1.9 3.1 3c0 0 0 3.3 0 3.3c0 .5.1.8.5.8c.2 0 .4-.1.6-.3c0 0 .3.4.3.4c-.4.5-1 .7-1.5.7zm-1.5-4.2c-2.1.4-3 1.2-3 2.1c0 .7.4 1.2 1 1.2c.4 0 1-.2 2-1.1c0 0 0-2.2 0-2.2zm10.4-3.7c1.9 0 2.8 1.4 2.8 3.2c0 0 0 1.4 0 1.4c0 2.2.3 2.6 1.8 2.6c-.04 0 0 .5 0 .5l-5.1 0c0 0 .02-.5 0-.5c1.5 0 1.8-.4 1.8-2.6c0 0 0-1.3 0-1.3c0-1.4-.5-2.3-1.9-2.3c-1.2 0-2.5 1-2.5 2.2c0 0 0 1.4 0 1.4c0 2.3.2 2.6 1.5 2.6c.05 0 0 .5 0 .5l-4.8 0c0 0 .01-.5 0-.5c1.5 0 1.7-.4 1.7-2.6c0 0 0-1.1 0-1.1c0-2.2-.2-2.5-1.7-2.5c.01-.03 0-.5 0-.5c0 0 2.93-.54 2.9-.5c.1.2.3 1.1.4 1.5c.6-.7 1.6-1.5 3.1-1.5z" stroke="none" fill="#fff"/></g><g id="Polygon46546"><path d="m2.6 13.9c-.5 1.2-.1 1.7 1.7 1.7c.01 0 0 .5 0 .5l-5.1 0c0 0-.04-.5 0-.5c1.8 0 1.9-.4 2.6-1.9c0-.02 4.8-11.2 4.8-11.2l.3 0c0 0 4.89 11.18 4.9 11.2c.7 1.5.8 1.9 2.6 1.9c.01 0 0 .5 0 .5l-6.1 0c0 0 .02-.5 0-.5c1.8 0 2.3-.5 1.7-1.7c.03.03-1-2.4-1-2.4l-5.3 0c0 0-1.1 2.43-1.1 2.4zm3.7-8.5l-2.3 5.3l4.6 0l-2.3-5.3zm18.4 5.4c-.4 0-.8-.4-.8-.8c0-.5-.3-.8-.7-.8c-.5 0-1.7.9-1.7 2.6c0 0 0 1.2 0 1.2c0 2.2.3 2.6 1.8 2.6c-.05 0 0 .5 0 .5l-5.1 0c0 0 .02-.5 0-.5c1.5 0 1.8-.4 1.8-2.6c0 0 0-1.1 0-1.1c0-2.2-.3-2.5-1.8-2.5c.02-.03 0-.5 0-.5c0 0 2.94-.54 2.9-.5c.2.2.3 1.1.4 1.5c.5-.8 1.4-1.5 2.3-1.5c1.2 0 1.8.8 1.8 1.3c0 .5-.2 1.1-.9 1.1zm7.3.2c.3-.7-.1-1.8-1.5-1.8c-1 0-1.8.7-2.1 1.8c0 0 3.6 0 3.6 0zm-.9 4.5c.8 0 1.8-.4 2.4-1c0 0 .4.5.4.5c-.7.8-2.1 1.4-3.3 1.4c-2.4 0-4.1-1.8-4.1-4c0-2.3 2-4 4.1-4c1.9 0 3.5 1.5 3 3.4c0 0-5.3 0-5.3 0c-.3 2.1.6 3.7 2.8 3.7zm5.8-2.9c0 1.7.9 2.9 2.7 2.9c.7 0 1.6-.3 2.3-1c0 0 .4.5.4.5c-.8.9-2 1.4-3.3 1.4c-2.4 0-3.9-1.6-3.9-3.8c0-2.6 2.2-4.2 3.9-4.2c1.8 0 2.6.7 2.6 1.5c0 .4-.2 1-.9 1c-.5 0-.9-.4-.9-.9c0-.7-.4-.9-.8-.9c-1.1 0-2.1 1.5-2.1 3.5zm11.8-1.6c.3-.7-.1-1.8-1.6-1.8c-.9 0-1.7.7-2 1.8c0 0 3.6 0 3.6 0zm-.9 4.5c.7 0 1.8-.4 2.4-1c0 0 .4.5.4.5c-.8.8-2.1 1.4-3.4 1.4c-2.4 0-4-1.8-4-4c0-2.3 2-4 4-4c2 0 3.6 1.5 3 3.4c0 0-5.3 0-5.3 0c-.2 2.1.6 3.7 2.9 3.7zm10.3-7.1c2 0 2.9 1.4 2.9 3.2c0 0 0 1.4 0 1.4c0 2.2.2 2.6 1.7 2.6c0 0 0 .5 0 .5l-5 0c0 0-.03-.5 0-.5c1.4 0 1.7-.4 1.7-2.6c0 0 0-1.3 0-1.3c0-1.4-.5-2.3-1.8-2.3c-1.2 0-2.6 1-2.6 2.2c0 0 0 1.4 0 1.4c0 2.3.2 2.6 1.6 2.6c-.01 0 0 .5 0 .5l-4.9 0c0 0 .05-.5 0-.5c1.5 0 1.8-.4 1.8-2.6c0 0 0-1.1 0-1.1c0-2.2-.3-2.5-1.8-2.5c.05-.03 0-.5 0-.5c0 0 2.97-.54 3-.5c.1.2.3 1.1.3 1.5c.6-.7 1.7-1.5 3.1-1.5zm4.9 1.1c0 0-.02-.52 0-.5c1.3-.3 1.8-1.3 1.9-2.7c.04.01.8 0 .8 0l0 2.4l1.9 0l0 .8l-1.9 0c0 0-.01 4.45 0 4.4c0 1.1.3 1.7 1 1.7c.4 0 .9-.3 1.4-.8c0 0 .4.4.4.4c-.6.7-1.6 1.2-2.3 1.2c-1.2 0-2.1-.7-2.1-2.5c.03.05 0-4.4 0-4.4l-1.1 0zm16.7 6.8c-.8 0-1.4-.5-1.5-1.3c-1 1-1.8 1.3-2.7 1.3c-1.1 0-2-.6-2-1.8c0-1.9 2.2-2.7 4.7-3.1c0-1.7-.2-2.3-1.5-2.3c-.5 0-1.2.3-1.2 1c0 .5-.4.8-.8.8c-.4 0-.8-.3-.8-.8c0-1 1.4-1.7 2.8-1.7c2.2 0 3 .9 3 3c0 0 0 3.3 0 3.3c0 .5.2.8.6.8c.2 0 .4-.1.6-.3c0 0 .3.4.3.4c-.4.5-1 .7-1.5.7zm-1.5-4.2c-2.1.4-3.1 1.2-3.1 2.1c0 .7.5 1.2 1.1 1.2c.4 0 1-.2 2-1.1c0 0 0-2.2 0-2.2zm5.5.5c0 1.7.8 2.9 2.6 2.9c.8 0 1.7-.3 2.4-1c0 0 .4.5.4.5c-.9.9-2.1 1.4-3.3 1.4c-2.5 0-3.9-1.6-3.9-3.8c0-2.6 2.1-4.2 3.9-4.2c1.8 0 2.6.7 2.6 1.5c0 .4-.2 1-1 1c-.5 0-.8-.4-.8-.9c0-.7-.4-.9-.8-.9c-1.2 0-2.1 1.5-2.1 3.5zm8.1 0c0 1.7.8 2.9 2.6 2.9c.8 0 1.7-.3 2.4-1c0 0 .4.5.4.5c-.9.9-2.1 1.4-3.3 1.4c-2.5 0-3.9-1.6-3.9-3.8c0-2.6 2.1-4.2 3.9-4.2c1.8 0 2.6.7 2.6 1.5c0 .4-.2 1-1 1c-.5 0-.8-.4-.8-.9c0-.7-.4-.9-.8-.9c-1.2 0-2.1 1.5-2.1 3.5zm11.8-1.6c.2-.7-.2-1.8-1.6-1.8c-1 0-1.8.7-2.1 1.8c0 0 3.7 0 3.7 0zm-1 4.5c.8 0 1.8-.4 2.5-1c0 0 .4.5.4.5c-.8.8-2.1 1.4-3.4 1.4c-2.4 0-4.1-1.8-4.1-4c0-2.3 2.1-4 4.1-4c2 0 3.5 1.5 3 3.4c0 0-5.3 0-5.3 0c-.3 2.1.6 3.7 2.8 3.7zm7 .9c-1.6 0-2.4-1.5-2.4 0c0 .03-.4 0-.4 0l0-3.2c0 0 .4.02.4 0c0 1 .8 2.5 2.4 2.5c.7 0 1.3-.5 1.3-1.1c0-.6-.5-1-1.3-1.4c0 0-1.2-.6-1.2-.6c-1.1-.6-1.5-1.5-1.5-2.2c0-1.2 1.1-2 2.3-2c1.6 0 2 1.1 2 0c-.04-.04.4 0 .4 0l0 2.5c0 0-.44.01-.4 0c0-.9-.7-1.8-1.8-1.8c-.8 0-1.1.4-1.1.9c0 .5.3.8 1.3 1.4c0 0 1.1.5 1.1.5c.9.6 1.5 1.3 1.5 2.1c0 1.5-1.2 2.4-2.6 2.4zm6.8 0c-1.6 0-2.4-1.5-2.4 0c.01.03-.4 0-.4 0l0-3.2c0 0 .41.02.4 0c0 1 .8 2.5 2.4 2.5c.7 0 1.3-.5 1.3-1.1c0-.6-.5-1-1.3-1.4c0 0-1.2-.6-1.2-.6c-1.1-.6-1.5-1.5-1.5-2.2c0-1.2 1.1-2 2.3-2c1.6 0 2 1.1 2 0c-.03-.04.4 0 .4 0l0 2.5c0 0-.43.01-.4 0c0-.9-.7-1.8-1.8-1.8c-.8 0-1.1.4-1.1.9c0 .5.3.8 1.3 1.4c0 0 1.1.5 1.1.5c.9.6 1.5 1.3 1.5 2.1c0 1.5-1.2 2.4-2.6 2.4zm3.6-.3c0 0 .05-.5 0-.5c1.5 0 1.8-.4 1.8-2.6c0 0 0-1.1 0-1.1c0-2.2-.3-2.5-1.8-2.5c.05-.03 0-.5 0-.5l3.3-.5c0 0 .05 4.62 0 4.6c0 2.2.3 2.6 1.8 2.6c-.01 0 0 .5 0 .5l-5.1 0zm2.6-9.9c-.6 0-1-.4-1-1c0-.5.4-1 1-1c.5 0 .9.5.9 1c0 .6-.4 1-.9 1zm7.5 10.2c-2.4 0-4.4-1.8-4.4-4c0-2.2 2-4 4.4-4c2.5 0 4.5 1.8 4.5 4c0 2.2-2 4-4.5 4zm0-7.2c-1.8 0-2.6 1.4-2.6 3.2c0 1.7.8 3.2 2.6 3.2c1.8 0 2.7-1.5 2.7-3.2c0-1.8-.9-3.2-2.7-3.2zm11.8-.8c2 0 2.9 1.4 2.9 3.2c0 0 0 1.4 0 1.4c0 2.2.2 2.6 1.7 2.6c.02 0 0 .5 0 .5l-5 0c0 0-.02-.5 0-.5c1.4 0 1.7-.4 1.7-2.6c0 0 0-1.3 0-1.3c0-1.4-.5-2.3-1.8-2.3c-1.2 0-2.5 1-2.5 2.2c0 0 0 1.4 0 1.4c0 2.3.1 2.6 1.5 2.6c0 0 0 .5 0 .5l-4.8 0c0 0-.04-.5 0-.5c1.4 0 1.7-.4 1.7-2.6c0 0 0-1.1 0-1.1c0-2.2-.3-2.5-1.7-2.5c-.04-.03 0-.5 0-.5c0 0 2.89-.54 2.9-.5c.1.2.3 1.1.4 1.5c.6-.7 1.6-1.5 3-1.5zm9.5 1.1c0 0-.04-.52 0-.5c1.3-.3 1.8-1.3 1.9-2.7c.02.01.8 0 .8 0l0 2.4l1.9 0l0 .8l-1.9 0c0 0-.03 4.45 0 4.4c0 1.1.3 1.7 1 1.7c.4 0 .9-.3 1.4-.8c0 0 .4.4.4.4c-.7.7-1.6 1.2-2.4 1.2c-1.2 0-2-.7-2-2.5c0 .05 0-4.4 0-4.4l-1.1 0zm10.6 6.9c-2.4 0-4.4-1.8-4.4-4c0-2.2 2-4 4.4-4c2.5 0 4.5 1.8 4.5 4c0 2.2-2 4-4.5 4zm0-7.2c-1.8 0-2.7 1.4-2.7 3.2c0 1.7.9 3.2 2.7 3.2c1.8 0 2.7-1.5 2.7-3.2c0-1.8-.9-3.2-2.7-3.2z" stroke="none" fill="#fff"/></g></svg>