<svg xmlns="http://www.w3.org/2000/svg" version="1.1" width="139px" height="265.3px" viewBox="0 0 139 265.3"><desc>Dense crust indicates original surface prior to ritual additions</desc><defs/><g id="Polygon47702"><path d="m1.4 67.7c0-.6-.1-1.9-.1-2.3c0 0 1.1 0 1.1 0c0 .6.1 1.3.1 1.4c.5-1 1.4-1.7 2.6-1.7c.3 0 .5.1.7.1c0 0-.1 1.1-.1 1.1c-.2-.1-.4-.1-.5-.1c-1.8 0-2.7 1.3-2.7 2.9c.02.04 0 4.6 0 4.6l-1.1 0c0 0 .04-6 0-6zm6.2-2.3l1.1 0l0 8.3l-1.1 0l0-8.3zm.6-4.1c.4 0 .8.3.8.8c0 .4-.4.8-.8.8c-.5 0-.9-.4-.9-.8c0-.5.4-.8.9-.8zm7.6 5l-2.4 0c0 0 .03 5.45 0 5.5c0 .7.5 1.1 1.2 1.1c.4 0 .8-.1 1.2-.3c0 0 .1 1 .1 1c-.4.2-1 .3-1.4.3c-1.6 0-2.2-1-2.2-2.1c.05-.05 0-5.5 0-5.5l-1.8 0l0-.9l1.8 0l0-2.4l1.1 0l0 2.4l2.4 0l0 .9zm9 5c0 .7.1 1.9.1 2.4c0 0-1.1 0-1.1 0c0-.6 0-1.3-.1-1.5c0 0 0 0 0 0c-.5.9-1.5 1.7-2.9 1.7c-2.6 0-3.2-1.8-3.2-3.6c.05.01 0-4.9 0-4.9l1.1 0c0 0 .03 4.86 0 4.9c0 1.3.4 2.6 2.1 2.6c1.6 0 2.9-1.1 2.9-3.4c0 .02 0-4.1 0-4.1l1.1 0c0 0-.02 5.94 0 5.9zm9.2-1.1c0 1.6 0 2.5.1 3.5c0 0-1 0-1 0c-.1-.4-.1-.9-.1-1.4c0 0 0 0 0 0c-.6 1.1-1.5 1.6-2.9 1.6c-1.5 0-3-.7-3-2.5c0-2.5 3-2.8 4.6-2.8c.03.04 1.3 0 1.3 0c0 0-.01-.46 0-.5c0-1.4-1-2-2.3-2c-1 0-1.8.3-2.6 1c0 0-.6-.8-.6-.8c.8-.7 2.1-1.2 3.2-1.2c2 0 3.3.9 3.3 3.1c0 0 0 2 0 2zm-2.2-.7c-1.8 0-3.6.5-3.6 1.9c0 1 1 1.5 1.9 1.5c2.3 0 2.9-1.5 2.9-2.8c-.01-.04 0-.6 0-.6c0 0-1.2 0-1.2 0zm5.1-9.4l1 0l0 13.6l-1 0l0-13.6zm15.2 10.1c0 1.6.1 2.5.2 3.5c0 0-1 0-1 0c-.1-.4-.1-.9-.1-1.4c0 0 0 0 0 0c-.7 1.1-1.6 1.6-3 1.6c-1.4 0-2.9-.7-2.9-2.5c0-2.5 3-2.8 4.6-2.8c.01.04 1.3 0 1.3 0c0 0-.03-.46 0-.5c0-1.4-1-2-2.4-2c-.9 0-1.8.3-2.5 1c0 0-.6-.8-.6-.8c.8-.7 2.1-1.2 3.1-1.2c2 0 3.3.9 3.3 3.1c0 0 0 2 0 2zm-2.1-.7c-1.8 0-3.6.5-3.6 1.9c0 1 1 1.5 1.9 1.5c2.3 0 2.9-1.5 2.9-2.8c-.03-.04 0-.6 0-.6c0 0-1.22 0-1.2 0zm12.2 2.7c0 0-.06.02-.1 0c-.6 1.2-2 1.7-3.3 1.7c-2.5 0-4.4-1.8-4.4-4.4c0-2.5 1.9-4.4 4.4-4.4c1.3 0 2.7.6 3.3 1.7c.04.02.1 0 .1 0l0-6.7l1.1 0l0 13.6l-1.1 0l0-1.5zm-3.4-6.1c-2 0-3.3 1.5-3.3 3.4c0 1.9 1.3 3.4 3.3 3.4c2 0 3.5-1.5 3.5-3.4c0-1.9-1.5-3.4-3.5-3.4zm14.4 6.1c0 0-.01.02 0 0c-.7 1.2-2.1 1.7-3.3 1.7c-2.6 0-4.4-1.8-4.4-4.4c0-2.5 1.8-4.4 4.4-4.4c1.2 0 2.6.6 3.3 1.7c-.01.02 0 0 0 0l0-6.7l1.1 0l0 13.6l-1.1 0l0-1.5zm-3.3-6.1c-2.1 0-3.3 1.5-3.3 3.4c0 1.9 1.2 3.4 3.3 3.4c1.9 0 3.4-1.5 3.4-3.4c0-1.9-1.5-3.4-3.4-3.4zm7.2-.7l1.1 0l0 8.3l-1.1 0l0-8.3zm.5-4.1c.5 0 .8.3.8.8c0 .4-.3.8-.8.8c-.4 0-.8-.4-.8-.8c0-.5.4-.8.8-.8zm7.7 5l-2.4 0c0 0 0 5.45 0 5.5c0 .7.4 1.1 1.2 1.1c.4 0 .8-.1 1.2-.3c0 0 .1 1 .1 1c-.4.2-1 .3-1.4.3c-1.6 0-2.2-1-2.2-2.1c.02-.05 0-5.5 0-5.5l-1.8 0l0-.9l1.8 0l0-2.4l1.1 0l0 2.4l2.4 0l0 .9zm2-.9l1.1 0l0 8.3l-1.1 0l0-8.3zm.5-4.1c.5 0 .9.3.9.8c0 .4-.4.8-.9.8c-.4 0-.8-.4-.8-.8c0-.5.4-.8.8-.8zm7.3 3.8c2.6 0 4.4 1.9 4.4 4.4c0 2.6-1.8 4.4-4.4 4.4c-2.5 0-4.3-1.8-4.3-4.4c0-2.5 1.8-4.4 4.3-4.4zm0 7.8c2.1 0 3.3-1.5 3.3-3.4c0-1.9-1.2-3.4-3.3-3.4c-2 0-3.3 1.5-3.3 3.4c0 1.9 1.3 3.4 3.3 3.4zm6.7-5.2c0-.6-.1-1.9-.1-2.3c0 0 1.1 0 1.1 0c0 .6.1 1.3.1 1.4c0 0 .1 0 .1 0c.4-.9 1.4-1.7 2.8-1.7c2.6 0 3.2 1.8 3.2 3.6c-.03.03 0 5 0 5l-1.1 0c0 0-.01-4.92 0-4.9c0-1.4-.4-2.7-2.1-2.7c-1.6 0-2.9 1.1-2.9 3.4c.02.02 0 4.2 0 4.2l-1.1 0c0 0 .04-6 0-6zm10.1 3.9c.4.8 1.4 1.3 2.4 1.3c.9 0 1.9-.6 1.9-1.5c0-2.3-4.9-.7-4.9-3.9c0-1.6 1.4-2.4 2.8-2.4c1.3 0 2.4.6 2.9 1.6c0 0-.9.6-.9.6c-.5-.8-1-1.2-2-1.2c-.8 0-1.8.5-1.8 1.4c0 2.2 5 .5 5 3.8c0 1.7-1.5 2.6-3 2.6c-1.5 0-2.7-.5-3.4-1.7c0 0 1-.6 1-.6z" stroke="none" fill="#000"/></g><g id="Polygon47701"><path d="m1.5 51.6c.4.8 1.4 1.3 2.4 1.3c.9 0 1.9-.6 1.9-1.5c0-2.3-5-.7-5-3.9c0-1.6 1.5-2.4 2.9-2.4c1.3 0 2.4.6 2.9 1.6c0 0-.9.6-.9.6c-.5-.8-1-1.2-2-1.2c-.8 0-1.8.5-1.8 1.4c0 2.2 5 .5 5 3.8c0 1.7-1.5 2.6-3 2.6c-1.5 0-2.7-.5-3.4-1.7c0 0 1-.6 1-.6zm14.6-.3c0 .7.1 1.9.1 2.4c0 0-1.1 0-1.1 0c0-.6-.1-1.3-.1-1.5c0 0-.1 0-.1 0c-.4.9-1.4 1.7-2.8 1.7c-2.6 0-3.2-1.8-3.2-3.6c.04.01 0-4.9 0-4.9l1.1 0c0 0 .02 4.86 0 4.9c0 1.3.4 2.6 2.1 2.6c1.6 0 2.9-1.1 2.9-3.4c-.02.02 0-4.1 0-4.1l1.1 0c0 0-.04 5.94 0 5.9zm2.8-3.6c0-.6-.1-1.9-.1-2.3c0 0 1.1 0 1.1 0c0 .6.1 1.3.1 1.4c.5-1 1.4-1.7 2.6-1.7c.3 0 .5.1.7.1c0 0-.2 1.1-.2 1.1c-.1-.1-.3-.1-.4-.1c-1.8 0-2.7 1.3-2.7 2.9c.02.04 0 4.6 0 4.6l-1.1 0c0 0 .04-6 0-6zm7.3-1.4l-1.7 0l0-.9l1.7 0c0 0 0-2.75 0-2.8c0-2.1 1.4-2.7 2.5-2.7c.5 0 .9 0 1.2.2c0 0-.2.9-.2.9c-.2-.1-.5-.2-1-.2c-.9 0-1.4.7-1.4 2.2c-.02.04 0 2.4 0 2.4l1.9 0l0 .9l-1.9 0l0 7.4l-1.1 0l0-7.4zm11.3 3.9c0 1.6 0 2.5.1 3.5c0 0-1 0-1 0c-.1-.4-.1-.9-.1-1.4c0 0 0 0 0 0c-.6 1.1-1.5 1.6-2.9 1.6c-1.5 0-3-.7-3-2.5c0-2.5 3-2.8 4.6-2.8c.03.04 1.3 0 1.3 0c0 0-.01-.46 0-.5c0-1.4-1-2-2.4-2c-.9 0-1.8.3-2.5 1c0 0-.6-.8-.6-.8c.8-.7 2.1-1.2 3.1-1.2c2.1 0 3.4.9 3.4 3.1c0 0 0 2 0 2zm-2.2-.7c-1.8 0-3.6.5-3.6 1.9c0 1 1 1.5 1.9 1.5c2.3 0 2.9-1.5 2.9-2.8c-.01-.04 0-.6 0-.6c0 0-1.2 0-1.2 0zm11.9 3c-.8.9-1.9 1.4-3.1 1.4c-2.5 0-4.3-1.8-4.3-4.4c0-2.5 1.8-4.4 4.3-4.4c1.2 0 2.3.6 3.1 1.5c0 0-.8.6-.8.6c-.7-.6-1.4-1.1-2.3-1.1c-2 0-3.3 1.5-3.3 3.4c0 1.9 1.3 3.4 3.3 3.4c.9 0 1.7-.4 2.3-1.1c0 0 .8.7.8.7zm9-.4c-.9 1.3-2.2 1.8-3.6 1.8c-2.6 0-4.2-1.8-4.2-4.4c0-2.5 1.7-4.4 4.1-4.4c2.6 0 3.9 2 3.9 3.9c.03.04 0 .8 0 .8c0 0-6.96-.01-7 0c0 .9.7 3.1 3.2 3.1c1.1 0 2.2-.6 2.8-1.5c0 0 .8.7.8.7zm-.9-3.3c0-1.5-1.2-2.7-2.8-2.7c-2.4 0-3.1 2.3-3.1 2.7c0 0 5.9 0 5.9 0zm8-3.4l1.1 0l0 1.4c0 0 0 .02 0 0c.7-1.1 2.1-1.7 3.3-1.7c2.6 0 4.4 1.9 4.4 4.4c0 2.6-1.8 4.4-4.4 4.4c-1.2 0-2.6-.5-3.3-1.7c0 .02 0 0 0 0l0 5.6l-1.1 0l0-12.4zm4.4 7.5c2.1 0 3.3-1.5 3.3-3.4c0-1.9-1.2-3.4-3.3-3.4c-1.9 0-3.4 1.5-3.4 3.4c0 1.9 1.5 3.4 3.4 3.4zm6.7-5.2c0-.6-.1-1.9-.1-2.3c0 0 1.1 0 1.1 0c0 .6.1 1.3.1 1.4c.5-1 1.4-1.7 2.6-1.7c.3 0 .5.1.7.1c0 0-.2 1.1-.2 1.1c-.1-.1-.3-.1-.4-.1c-1.8 0-2.7 1.3-2.7 2.9c.01.04 0 4.6 0 4.6l-1.1 0c0 0 .03-6 0-6zm6.2-2.3l1.1 0l0 8.3l-1.1 0l0-8.3zm.6-4.1c.4 0 .8.3.8.8c0 .4-.4.8-.8.8c-.5 0-.9-.4-.9-.8c0-.5.4-.8.9-.8zm7.2 3.8c2.6 0 4.4 1.9 4.4 4.4c0 2.6-1.8 4.4-4.4 4.4c-2.5 0-4.3-1.8-4.3-4.4c0-2.5 1.8-4.4 4.3-4.4zm0 7.8c2.1 0 3.3-1.5 3.3-3.4c0-1.9-1.2-3.4-3.3-3.4c-2 0-3.2 1.5-3.2 3.4c0 1.9 1.2 3.4 3.2 3.4zm6.7-5.2c0-.6 0-1.9 0-2.3c0 0 1 0 1 0c.1.6.1 1.3.1 1.4c.6-1 1.4-1.7 2.7-1.7c.2 0 .4.1.6.1c0 0-.1 1.1-.1 1.1c-.2-.1-.3-.1-.5-.1c-1.8 0-2.7 1.3-2.7 2.9c.03.04 0 4.6 0 4.6l-1.1 0c0 0 .05-6 0-6zm14.8-1.4l-2.4 0c0 0 .01 5.45 0 5.5c0 .7.4 1.1 1.2 1.1c.4 0 .8-.1 1.2-.3c0 0 .1 1 .1 1c-.4.2-1 .3-1.4.3c-1.6 0-2.2-1-2.2-2.1c.03-.05 0-5.5 0-5.5l-1.8 0l0-.9l1.8 0l0-2.4l1.1 0l0 2.4l2.4 0l0 .9zm5.5-1.2c2.6 0 4.4 1.9 4.4 4.4c0 2.6-1.8 4.4-4.4 4.4c-2.6 0-4.4-1.8-4.4-4.4c0-2.5 1.8-4.4 4.4-4.4zm0 7.8c2 0 3.3-1.5 3.3-3.4c0-1.9-1.3-3.4-3.3-3.4c-2 0-3.3 1.5-3.3 3.4c0 1.9 1.3 3.4 3.3 3.4z" stroke="none" fill="#000"/></g><g id="Polygon47700"><path d="m1.6 25.4l1.1 0l0 8.3l-1.1 0l0-8.3zm.6-4.1c.4 0 .8.3.8.8c0 .4-.4.8-.8.8c-.5 0-.9-.4-.9-.8c0-.5.4-.8.9-.8zm3.4 6.4c0-.6-.1-1.9-.1-2.3c0 0 1.1 0 1.1 0c0 .6 0 1.3.1 1.4c0 0 0 0 0 0c.5-.9 1.5-1.7 2.9-1.7c2.6 0 3.1 1.8 3.1 3.6c.03.03 0 5 0 5l-1 0c0 0-.05-4.92 0-4.9c0-1.4-.4-2.7-2.1-2.7c-1.6 0-2.9 1.1-2.9 3.4c-.01.02 0 4.2 0 4.2l-1.1 0c0 0 .01-6 0-6zm17.2 4.5c0 0-.05.02 0 0c-.7 1.2-2.1 1.7-3.4 1.7c-2.5 0-4.4-1.8-4.4-4.4c0-2.5 1.9-4.4 4.4-4.4c1.3 0 2.7.6 3.4 1.7c-.05.02 0 0 0 0l0-6.7l1.1 0l0 13.6l-1.1 0l0-1.5zm-3.4-6.1c-2 0-3.3 1.5-3.3 3.4c0 1.9 1.3 3.4 3.3 3.4c2 0 3.5-1.5 3.5-3.4c0-1.9-1.5-3.4-3.5-3.4zm7.3-.7l1 0l0 8.3l-1 0l0-8.3zm.5-4.1c.4 0 .8.3.8.8c0 .4-.4.8-.8.8c-.5 0-.8-.4-.8-.8c0-.5.3-.8.8-.8zm10.4 11.2c-.9.9-1.9 1.4-3.1 1.4c-2.6 0-4.4-1.8-4.4-4.4c0-2.5 1.8-4.4 4.4-4.4c1.2 0 2.3.6 3.1 1.5c0 0-.9.6-.9.6c-.6-.6-1.3-1.1-2.2-1.1c-2 0-3.3 1.5-3.3 3.4c0 1.9 1.3 3.4 3.3 3.4c.9 0 1.7-.4 2.2-1.1c0 0 .9.7.9.7zm8.3-2.3c0 1.6.1 2.5.2 3.5c0 0-1 0-1 0c-.1-.4-.1-.9-.1-1.4c0 0-.1 0-.1 0c-.6 1.1-1.5 1.6-2.9 1.6c-1.4 0-2.9-.7-2.9-2.5c0-2.5 3-2.8 4.6-2.8c0 .04 1.3 0 1.3 0c0 0-.04-.46 0-.5c0-1.4-1-2-2.4-2c-1 0-1.8.3-2.5 1c0 0-.6-.8-.6-.8c.7-.7 2-1.2 3.1-1.2c2 0 3.3.9 3.3 3.1c0 0 0 2 0 2zm-2.1-.7c-1.8 0-3.6.5-3.6 1.9c0 1 1 1.5 1.9 1.5c2.3 0 2.9-1.5 2.9-2.8c-.04-.04 0-.6 0-.6c0 0-1.23 0-1.2 0zm9-3.2l-2.4 0c0 0 .01 5.45 0 5.5c0 .7.4 1.1 1.2 1.1c.4 0 .8-.1 1.2-.3c0 0 .1 1 .1 1c-.4.2-1 .3-1.4.3c-1.6 0-2.2-1-2.2-2.1c.03-.05 0-5.5 0-5.5l-1.8 0l0-.9l1.8 0l0-2.4l1.1 0l0 2.4l2.4 0l0 .9zm9 5.8c-.9 1.3-2.2 1.8-3.6 1.8c-2.6 0-4.2-1.8-4.2-4.4c0-2.5 1.7-4.4 4.1-4.4c2.6 0 3.9 2 3.9 3.9c.03.04 0 .8 0 .8c0 0-6.96-.01-7 0c0 .9.7 3.1 3.2 3.1c1.1 0 2.2-.6 2.8-1.5c0 0 .8.7.8.7zm-.9-3.3c0-1.5-1.2-2.7-2.8-2.7c-2.4 0-3.1 2.3-3.1 2.7c0 0 5.9 0 5.9 0zm3.6 2.8c.5.8 1.5 1.3 2.4 1.3c1 0 1.9-.6 1.9-1.5c0-2.3-4.9-.7-4.9-3.9c0-1.6 1.5-2.4 2.9-2.4c1.3 0 2.4.6 2.9 1.6c0 0-1 .6-1 .6c-.4-.8-1-1.2-1.9-1.2c-.8 0-1.8.5-1.8 1.4c0 2.2 4.9.5 4.9 3.8c0 1.7-1.4 2.6-3 2.6c-1.4 0-2.7-.5-3.3-1.7c0 0 .9-.6.9-.6zm16.3-6.5c2.5 0 4.3 1.9 4.3 4.4c0 2.6-1.8 4.4-4.3 4.4c-2.6 0-4.4-1.8-4.4-4.4c0-2.5 1.8-4.4 4.4-4.4zm0 7.8c2 0 3.3-1.5 3.3-3.4c0-1.9-1.3-3.4-3.3-3.4c-2.1 0-3.3 1.5-3.3 3.4c0 1.9 1.2 3.4 3.3 3.4zm6.7-5.2c0-.6-.1-1.9-.1-2.3c0 0 1.1 0 1.1 0c0 .6 0 1.3 0 1.4c.6-1 1.4-1.7 2.7-1.7c.2 0 .4.1.6.1c0 0-.1 1.1-.1 1.1c-.2-.1-.3-.1-.4-.1c-1.9 0-2.8 1.3-2.8 2.9c.04.04 0 4.6 0 4.6l-1 0c0 0-.04-6 0-6zm6.1-2.3l1.1 0l0 8.3l-1.1 0l0-8.3zm.6-4.1c.4 0 .8.3.8.8c0 .4-.4.8-.8.8c-.5 0-.8-.4-.8-.8c0-.5.3-.8.8-.8zm11.6 11.8c0 4.2-2.7 4.9-4.4 4.9c-1.7 0-3.3-.6-4.1-1.7c0 0 .8-.8.8-.8c.8 1 2 1.5 3.3 1.5c3.3 0 3.4-2.9 3.4-3.8c-.05.01 0-1.1 0-1.1c0 0-.08-.04-.1 0c-.6.9-1.7 1.6-3.1 1.6c-2.5 0-4.5-1.9-4.5-4.3c0-2.3 2-4.3 4.5-4.3c1.4 0 2.5.7 3.1 1.7c.02-.03.1 0 .1 0l0-1.4l1 0c0 0 .03 7.74 0 7.7zm-4.3-7c-1.8 0-3.3 1.5-3.3 3.3c0 1.8 1.5 3.3 3.3 3.3c1.8 0 3.3-1.5 3.3-3.3c0-1.8-1.5-3.3-3.3-3.3zm7.1-.7l1.1 0l0 8.3l-1.1 0l0-8.3zm.6-4.1c.4 0 .8.3.8.8c0 .4-.4.8-.8.8c-.5 0-.9-.4-.9-.8c0-.5.4-.8.9-.8zm3.4 6.4c0-.6-.1-1.9-.1-2.3c0 0 1.1 0 1.1 0c0 .6 0 1.3.1 1.4c0 0 0 0 0 0c.5-.9 1.5-1.7 2.9-1.7c2.6 0 3.1 1.8 3.1 3.6c.03.03 0 5 0 5l-1 0c0 0-.05-4.92 0-4.9c0-1.4-.4-2.7-2.1-2.7c-1.6 0-2.9 1.1-2.9 3.4c-.01.02 0 4.2 0 4.2l-1.1 0c0 0 .01-6 0-6zm16.3 2.5c0 1.6 0 2.5.1 3.5c0 0-1 0-1 0c-.1-.4-.1-.9-.1-1.4c0 0 0 0 0 0c-.6 1.1-1.5 1.6-2.9 1.6c-1.5 0-3-.7-3-2.5c0-2.5 3-2.8 4.6-2.8c.04.04 1.3 0 1.3 0c0 0 0-.46 0-.5c0-1.4-1-2-2.3-2c-1 0-1.8.3-2.6 1c0 0-.6-.8-.6-.8c.8-.7 2.1-1.2 3.2-1.2c2 0 3.3.9 3.3 3.1c0 0 0 2 0 2zm-2.2-.7c-1.8 0-3.6.5-3.6 1.9c0 1 1 1.5 1.9 1.5c2.3 0 2.9-1.5 2.9-2.8c0-.04 0-.6 0-.6c0 0-1.19 0-1.2 0zm5.1-9.4l1 0l0 13.6l-1 0l0-13.6z" stroke="none" fill="#000"/></g><g id="Polygon47699"><path d="m1.6.9c0 0 3.93.04 3.9 0c6.6 0 6.9 5.5 6.9 6.4c0 .9-.3 6.4-6.9 6.4c.03-.02-3.9 0-3.9 0l0-12.8zm1.2 11.7c0 0 2.42 0 2.4 0c3.4 0 6-1.6 6-5.3c0-3.6-2.6-5.3-6-5.3c.02.02-2.4 0-2.4 0l0 10.6zm19.2-.5c-.8 1.3-2.1 1.8-3.6 1.8c-2.5 0-4.2-1.8-4.2-4.4c0-2.5 1.7-4.4 4.2-4.4c2.5 0 3.9 2 3.9 3.9c-.03.04 0 .8 0 .8c0 0-7.01-.01-7 0c0 .9.6 3.1 3.1 3.1c1.1 0 2.3-.6 2.8-1.5c0 0 .8.7.8.7zm-.8-3.3c0-1.5-1.3-2.7-2.9-2.7c-2.3 0-3 2.3-3 2.7c0 0 5.9 0 5.9 0zm3.4-1.1c0-.6-.1-1.9-.1-2.3c0 0 1.1 0 1.1 0c0 .6.1 1.3.1 1.4c0 0 0 0 0 0c.5-.9 1.5-1.7 2.9-1.7c2.6 0 3.2 1.8 3.2 3.6c-.04.03 0 5 0 5l-1.1 0c0 0-.02-4.92 0-4.9c0-1.4-.4-2.7-2.1-2.7c-1.6 0-2.9 1.1-2.9 3.4c.01.02 0 4.2 0 4.2l-1.1 0c0 0 .03-6 0-6zm10.1 3.9c.4.8 1.4 1.3 2.4 1.3c.9 0 1.9-.6 1.9-1.5c0-2.3-5-.7-5-3.9c0-1.6 1.5-2.4 2.9-2.4c1.3 0 2.4.6 2.9 1.6c0 0-1 .6-1 .6c-.4-.8-.9-1.2-1.9-1.2c-.8 0-1.8.5-1.8 1.4c0 2.2 5 .5 5 3.8c0 1.7-1.5 2.6-3.1 2.6c-1.4 0-2.7-.5-3.3-1.7c0 0 1-.6 1-.6zm14.9.5c-.8 1.3-2.1 1.8-3.6 1.8c-2.5 0-4.2-1.8-4.2-4.4c0-2.5 1.7-4.4 4.2-4.4c2.5 0 3.9 2 3.9 3.9c-.02.04 0 .8 0 .8c0 0-7-.01-7 0c0 .9.6 3.1 3.1 3.1c1.1 0 2.3-.6 2.8-1.5c0 0 .8.7.8.7zm-.8-3.3c0-1.5-1.3-2.7-2.9-2.7c-2.3 0-3 2.3-3 2.7c0 0 5.9 0 5.9 0zm15.1 3.7c-.8.9-1.8 1.4-3 1.4c-2.6 0-4.4-1.8-4.4-4.4c0-2.5 1.8-4.4 4.4-4.4c1.2 0 2.3.6 3.1 1.5c0 0-.9.6-.9.6c-.6-.6-1.4-1.1-2.2-1.1c-2.1 0-3.3 1.5-3.3 3.4c0 1.9 1.2 3.4 3.3 3.4c.9 0 1.7-.4 2.2-1.1c0 0 .8.7.8.7zm1.9-4.8c0-.6-.1-1.9-.1-2.3c0 0 1.1 0 1.1 0c0 .6 0 1.3 0 1.4c.6-1 1.4-1.7 2.7-1.7c.2 0 .4.1.6.1c0 0-.1 1.1-.1 1.1c-.2-.1-.3-.1-.4-.1c-1.9 0-2.8 1.3-2.8 2.9c.04.04 0 4.6 0 4.6l-1 0c0 0-.04-6 0-6zm13.1 3.6c0 .7.1 1.9.1 2.4c0 0-1.1 0-1.1 0c0-.6 0-1.3 0-1.5c0 0-.1 0-.1 0c-.4.9-1.5 1.7-2.8 1.7c-2.6 0-3.2-1.8-3.2-3.6c0 .01 0-4.9 0-4.9l1.1 0c0 0-.02 4.86 0 4.9c0 1.3.4 2.6 2.1 2.6c1.6 0 2.8-1.1 2.8-3.4c.05.02 0-4.1 0-4.1l1.1 0c0 0 .03 5.94 0 5.9zm3 .3c.5.8 1.5 1.3 2.4 1.3c1 0 1.9-.6 1.9-1.5c0-2.3-4.9-.7-4.9-3.9c0-1.6 1.5-2.4 2.8-2.4c1.4 0 2.4.6 3 1.6c0 0-1 .6-1 .6c-.4-.8-1-1.2-2-1.2c-.7 0-1.7.5-1.7 1.4c0 2.2 4.9.5 4.9 3.8c0 1.7-1.4 2.6-3 2.6c-1.4 0-2.7-.5-3.3-1.7c0 0 .9-.6.9-.6zm12-5.3l-2.4 0c0 0-.02 5.45 0 5.5c0 .7.4 1.1 1.1 1.1c.5 0 .9-.1 1.3-.3c0 0 .1 1 .1 1c-.4.2-1 .3-1.5.3c-1.5 0-2.1-1-2.1-2.1c0-.05 0-5.5 0-5.5l-1.8 0l0-.9l1.8 0l0-2.4l1.1 0l0 2.4l2.4 0l0 .9z" stroke="none" fill="#000"/></g></svg>