<?xml version="1.0" standalone="no"?><!DOCTYPE svg PUBLIC "-//W3C//DTD SVG 1.1//EN" "http://www.w3.org/Graphics/SVG/1.1/DTD/svg11.dtd"><svg xmlns="http://www.w3.org/2000/svg" version="1.1" width="222px" height="343.3px" viewBox="0 0 222 343.3">  <desc>Sagittal slices When a 3D model is built by stacking the slices obtained during the scan, the multi-planar reconstru</desc>  <defs/>  <g id="Polygon47470">    <path d="M 1.5 287.6 C 1.9 288.4 2.9 288.9 3.9 288.9 C 4.8 288.9 5.8 288.3 5.8 287.4 C 5.8 285.1 0.8 286.7 0.8 283.5 C 0.8 281.9 2.3 281.1 3.7 281.1 C 5 281.1 6.1 281.7 6.6 282.7 C 6.6 282.7 5.7 283.3 5.7 283.3 C 5.2 282.5 4.7 282.1 3.7 282.1 C 2.9 282.1 1.9 282.6 1.9 283.5 C 1.9 285.7 6.9 284 6.9 287.3 C 6.9 289 5.4 289.9 3.9 289.9 C 2.4 289.9 1.2 289.4 0.5 288.2 C 0.5 288.2 1.5 287.6 1.5 287.6 Z M 9.1 281.4 L 10.2 281.4 L 10.2 289.7 L 9.1 289.7 L 9.1 281.4 Z M 9.7 277.3 C 10.1 277.3 10.5 277.6 10.5 278.1 C 10.5 278.5 10.1 278.9 9.7 278.9 C 9.2 278.9 8.9 278.5 8.9 278.1 C 8.9 277.6 9.2 277.3 9.7 277.3 Z M 13.1 283.7 C 13.1 283.1 13 281.8 13 281.4 C 13 281.4 14.1 281.4 14.1 281.4 C 14.1 282 14.1 282.7 14.2 282.8 C 14.2 282.8 14.2 282.8 14.2 282.8 C 14.7 281.9 15.7 281.1 17.1 281.1 C 19.7 281.1 20.2 282.9 20.2 284.7 C 20.25 284.73 20.2 289.7 20.2 289.7 L 19.2 289.7 C 19.2 289.7 19.17 284.78 19.2 284.8 C 19.2 283.4 18.8 282.1 17.1 282.1 C 15.5 282.1 14.2 283.2 14.2 285.5 C 14.2 285.52 14.2 289.7 14.2 289.7 L 13.1 289.7 C 13.1 289.7 13.12 283.7 13.1 283.7 Z M 31.3 289.1 C 31.3 293.3 28.6 294 26.9 294 C 25.2 294 23.6 293.4 22.7 292.3 C 22.7 292.3 23.6 291.5 23.6 291.5 C 24.3 292.5 25.6 293 26.9 293 C 30.2 293 30.2 290.1 30.2 289.2 C 30.21 289.21 30.2 288.1 30.2 288.1 C 30.2 288.1 30.18 288.06 30.2 288.1 C 29.5 289 28.5 289.7 27 289.7 C 24.6 289.7 22.6 287.8 22.6 285.4 C 22.6 283.1 24.6 281.1 27 281.1 C 28.5 281.1 29.5 281.8 30.2 282.8 C 30.18 282.77 30.2 282.8 30.2 282.8 L 30.2 281.4 L 31.3 281.4 C 31.3 281.4 31.29 289.14 31.3 289.1 Z M 27 282.1 C 25.1 282.1 23.7 283.6 23.7 285.4 C 23.7 287.2 25.1 288.7 27 288.7 C 28.8 288.7 30.3 287.2 30.3 285.4 C 30.3 283.6 28.8 282.1 27 282.1 Z M 34.1 276.1 L 35.2 276.1 L 35.2 289.7 L 34.1 289.7 L 34.1 276.1 Z M 45.4 288.1 C 44.6 289.4 43.3 289.9 41.8 289.9 C 39.3 289.9 37.6 288.1 37.6 285.5 C 37.6 283 39.3 281.1 41.8 281.1 C 44.3 281.1 45.7 283.1 45.7 285 C 45.68 285.04 45.7 285.8 45.7 285.8 C 45.7 285.8 38.69 285.79 38.7 285.8 C 38.7 286.7 39.3 288.9 41.8 288.9 C 42.9 288.9 44.1 288.3 44.6 287.4 C 44.6 287.4 45.4 288.1 45.4 288.1 Z M 44.6 284.8 C 44.6 283.3 43.3 282.1 41.7 282.1 C 39.4 282.1 38.7 284.4 38.7 284.8 C 38.7 284.8 44.6 284.8 44.6 284.8 Z M 51.6 281.4 L 52.8 281.4 L 55.6 288.5 L 58.3 281.4 L 59.4 281.4 L 56.1 289.7 L 55 289.7 L 51.6 281.4 Z M 61.3 281.4 L 62.4 281.4 L 62.4 289.7 L 61.3 289.7 L 61.3 281.4 Z M 61.8 277.3 C 62.3 277.3 62.6 277.6 62.6 278.1 C 62.6 278.5 62.3 278.9 61.8 278.9 C 61.4 278.9 61 278.5 61 278.1 C 61 277.6 61.4 277.3 61.8 277.3 Z M 65.3 283.7 C 65.3 283.1 65.2 281.8 65.2 281.4 C 65.2 281.4 66.2 281.4 66.2 281.4 C 66.3 282 66.3 282.7 66.3 282.8 C 66.9 281.8 67.7 281.1 69 281.1 C 69.2 281.1 69.4 281.2 69.6 281.2 C 69.6 281.2 69.5 282.3 69.5 282.3 C 69.3 282.2 69.2 282.2 69.1 282.2 C 67.2 282.2 66.3 283.5 66.3 285.1 C 66.34 285.14 66.3 289.7 66.3 289.7 L 65.3 289.7 C 65.3 289.7 65.26 283.7 65.3 283.7 Z M 76 282.3 L 73.6 282.3 C 73.6 282.3 73.64 287.75 73.6 287.8 C 73.6 288.5 74.1 288.9 74.8 288.9 C 75.2 288.9 75.6 288.8 76 288.6 C 76 288.6 76.1 289.6 76.1 289.6 C 75.7 289.8 75.1 289.9 74.7 289.9 C 73.2 289.9 72.6 288.9 72.6 287.8 C 72.56 287.75 72.6 282.3 72.6 282.3 L 70.8 282.3 L 70.8 281.4 L 72.6 281.4 L 72.6 279 L 73.6 279 L 73.6 281.4 L 76 281.4 L 76 282.3 Z M 85 287.3 C 85 288 85.1 289.2 85.1 289.7 C 85.1 289.7 84 289.7 84 289.7 C 84 289.1 84 288.4 83.9 288.2 C 83.9 288.2 83.9 288.2 83.9 288.2 C 83.4 289.1 82.4 289.9 81 289.9 C 78.4 289.9 77.9 288.1 77.9 286.3 C 77.86 286.31 77.9 281.4 77.9 281.4 L 78.9 281.4 C 78.9 281.4 78.94 286.26 78.9 286.3 C 78.9 287.6 79.3 288.9 81 288.9 C 82.6 288.9 83.9 287.8 83.9 285.5 C 83.91 285.52 83.9 281.4 83.9 281.4 L 85 281.4 C 85 281.4 84.99 287.34 85 287.3 Z M 94.2 286.2 C 94.2 287.8 94.2 288.7 94.3 289.7 C 94.3 289.7 93.3 289.7 93.3 289.7 C 93.3 289.3 93.2 288.8 93.2 288.3 C 93.2 288.3 93.2 288.3 93.2 288.3 C 92.6 289.4 91.7 289.9 90.3 289.9 C 88.8 289.9 87.3 289.2 87.3 287.4 C 87.3 284.9 90.3 284.6 91.9 284.6 C 91.94 284.64 93.2 284.6 93.2 284.6 C 93.2 284.6 93.2 284.14 93.2 284.1 C 93.2 282.7 92.2 282.1 90.9 282.1 C 89.9 282.1 89.1 282.4 88.3 283.1 C 88.3 283.1 87.7 282.3 87.7 282.3 C 88.5 281.6 89.8 281.1 90.9 281.1 C 92.9 281.1 94.2 282 94.2 284.2 C 94.2 284.2 94.2 286.2 94.2 286.2 Z M 92 285.5 C 90.2 285.5 88.4 286 88.4 287.4 C 88.4 288.4 89.4 288.9 90.3 288.9 C 92.6 288.9 93.2 287.4 93.2 286.1 C 93.2 286.06 93.2 285.5 93.2 285.5 C 93.2 285.5 92.01 285.5 92 285.5 Z M 97.1 276.1 L 98.2 276.1 L 98.2 289.7 L 97.1 289.7 L 97.1 276.1 Z M 105.9 287.6 C 106.4 288.4 107.4 288.9 108.3 288.9 C 109.3 288.9 110.2 288.3 110.2 287.4 C 110.2 285.1 105.3 286.7 105.3 283.5 C 105.3 281.9 106.8 281.1 108.1 281.1 C 109.5 281.1 110.5 281.7 111.1 282.7 C 111.1 282.7 110.1 283.3 110.1 283.3 C 109.7 282.5 109.1 282.1 108.1 282.1 C 107.4 282.1 106.4 282.6 106.4 283.5 C 106.4 285.7 111.3 284 111.3 287.3 C 111.3 289 109.9 289.9 108.3 289.9 C 106.9 289.9 105.6 289.4 105 288.2 C 105 288.2 105.9 287.6 105.9 287.6 Z M 113.6 276.1 L 114.7 276.1 L 114.7 289.7 L 113.6 289.7 L 113.6 276.1 Z M 117.7 281.4 L 118.8 281.4 L 118.8 289.7 L 117.7 289.7 L 117.7 281.4 Z M 118.2 277.3 C 118.7 277.3 119.1 277.6 119.1 278.1 C 119.1 278.5 118.7 278.9 118.2 278.9 C 117.8 278.9 117.4 278.5 117.4 278.1 C 117.4 277.6 117.8 277.3 118.2 277.3 Z M 128.6 288.5 C 127.8 289.4 126.7 289.9 125.5 289.9 C 123 289.9 121.2 288.1 121.2 285.5 C 121.2 283 123 281.1 125.5 281.1 C 126.8 281.1 127.8 281.7 128.6 282.6 C 128.6 282.6 127.8 283.2 127.8 283.2 C 127.1 282.6 126.4 282.1 125.5 282.1 C 123.5 282.1 122.3 283.6 122.3 285.5 C 122.3 287.4 123.5 288.9 125.5 288.9 C 126.4 288.9 127.2 288.5 127.8 287.8 C 127.8 287.8 128.6 288.5 128.6 288.5 Z M 137.6 288.1 C 136.7 289.4 135.5 289.9 134 289.9 C 131.5 289.9 129.8 288.1 129.8 285.5 C 129.8 283 131.5 281.1 133.9 281.1 C 136.5 281.1 137.8 283.1 137.8 285 C 137.85 285.04 137.8 285.8 137.8 285.8 C 137.8 285.8 130.86 285.79 130.9 285.8 C 130.9 286.7 131.5 288.9 134 288.9 C 135.1 288.9 136.3 288.3 136.8 287.4 C 136.8 287.4 137.6 288.1 137.6 288.1 Z M 136.8 284.8 C 136.8 283.3 135.5 282.1 133.9 282.1 C 131.5 282.1 130.9 284.4 130.9 284.8 C 130.9 284.8 136.8 284.8 136.8 284.8 Z M 140.7 288.1 C 141.1 288.1 141.5 288.4 141.5 288.9 C 141.5 289.4 141.1 289.8 140.7 289.8 C 140.2 289.8 139.8 289.4 139.8 288.9 C 139.8 288.4 140.2 288.1 140.7 288.1 Z " stroke="none" fill="#000"/>  </g>  <g id="Polygon47469">    <path d="M 4.6 254 L 0.2 254 L 0.2 252.9 L 10.1 252.9 L 10.1 254 L 5.8 254 L 5.8 265.7 L 4.6 265.7 L 4.6 254 Z M 11.8 252.1 L 12.9 252.1 L 12.9 258.8 C 12.9 258.8 12.96 258.82 13 258.8 C 13.4 257.9 14.5 257.1 15.8 257.1 C 18.4 257.1 19 258.9 19 260.7 C 18.97 260.73 19 265.7 19 265.7 L 17.9 265.7 C 17.9 265.7 17.89 260.78 17.9 260.8 C 17.9 259.4 17.5 258.1 15.8 258.1 C 14.2 258.1 12.9 259.2 12.9 261.5 C 12.92 261.52 12.9 265.7 12.9 265.7 L 11.8 265.7 L 11.8 252.1 Z M 21.8 257.4 L 22.9 257.4 L 22.9 265.7 L 21.8 265.7 L 21.8 257.4 Z M 22.4 253.3 C 22.8 253.3 23.2 253.6 23.2 254.1 C 23.2 254.5 22.8 254.9 22.4 254.9 C 21.9 254.9 21.6 254.5 21.6 254.1 C 21.6 253.6 21.9 253.3 22.4 253.3 Z M 25.8 259.7 C 25.8 259.1 25.7 257.8 25.7 257.4 C 25.7 257.4 26.8 257.4 26.8 257.4 C 26.8 258 26.8 258.7 26.9 258.8 C 26.9 258.8 26.9 258.8 26.9 258.8 C 27.4 257.9 28.4 257.1 29.8 257.1 C 32.4 257.1 32.9 258.9 32.9 260.7 C 32.94 260.73 32.9 265.7 32.9 265.7 L 31.9 265.7 C 31.9 265.7 31.86 260.78 31.9 260.8 C 31.9 259.4 31.5 258.1 29.8 258.1 C 28.2 258.1 26.9 259.2 26.9 261.5 C 26.89 261.52 26.9 265.7 26.9 265.7 L 25.8 265.7 C 25.8 265.7 25.81 259.7 25.8 259.7 Z M 35.7 252.1 L 36.8 252.1 L 36.8 261.1 L 40.9 257.4 L 42.5 257.4 L 38.2 261.2 L 43 265.7 L 41.4 265.7 L 36.8 261.3 L 36.8 265.7 L 35.7 265.7 L 35.7 252.1 Z M 53 257.1 C 55.5 257.1 57.4 259 57.4 261.5 C 57.4 264.1 55.5 265.9 53 265.9 C 50.4 265.9 48.6 264.1 48.6 261.5 C 48.6 259 50.4 257.1 53 257.1 Z M 53 264.9 C 55 264.9 56.3 263.4 56.3 261.5 C 56.3 259.6 55 258.1 53 258.1 C 50.9 258.1 49.7 259.6 49.7 261.5 C 49.7 263.4 50.9 264.9 53 264.9 Z M 60.1 258.3 L 58.4 258.3 L 58.4 257.4 L 60.1 257.4 C 60.1 257.4 60.11 254.65 60.1 254.6 C 60.1 252.5 61.5 251.9 62.6 251.9 C 63.1 251.9 63.5 251.9 63.8 252.1 C 63.8 252.1 63.6 253 63.6 253 C 63.4 252.9 63.1 252.8 62.6 252.8 C 61.7 252.8 61.2 253.5 61.2 255 C 61.19 255.04 61.2 257.4 61.2 257.4 L 63.1 257.4 L 63.1 258.3 L 61.2 258.3 L 61.2 265.7 L 60.1 265.7 L 60.1 258.3 Z M 73.6 258.3 L 71.2 258.3 C 71.2 258.3 71.2 263.75 71.2 263.8 C 71.2 264.5 71.6 264.9 72.3 264.9 C 72.8 264.9 73.2 264.8 73.6 264.6 C 73.6 264.6 73.7 265.6 73.7 265.6 C 73.3 265.8 72.7 265.9 72.3 265.9 C 70.7 265.9 70.1 264.9 70.1 263.8 C 70.12 263.75 70.1 258.3 70.1 258.3 L 68.3 258.3 L 68.3 257.4 L 70.1 257.4 L 70.1 255 L 71.2 255 L 71.2 257.4 L 73.6 257.4 L 73.6 258.3 Z M 75.5 252.1 L 76.6 252.1 L 76.6 258.8 C 76.6 258.8 76.62 258.82 76.6 258.8 C 77.1 257.9 78.1 257.1 79.5 257.1 C 82.1 257.1 82.6 258.9 82.6 260.7 C 82.63 260.73 82.6 265.7 82.6 265.7 L 81.6 265.7 C 81.6 265.7 81.55 260.78 81.6 260.8 C 81.6 259.4 81.2 258.1 79.5 258.1 C 77.9 258.1 76.6 259.2 76.6 261.5 C 76.59 261.52 76.6 265.7 76.6 265.7 L 75.5 265.7 L 75.5 252.1 Z M 85.5 257.4 L 86.6 257.4 L 86.6 265.7 L 85.5 265.7 L 85.5 257.4 Z M 86 253.3 C 86.5 253.3 86.8 253.6 86.8 254.1 C 86.8 254.5 86.5 254.9 86 254.9 C 85.6 254.9 85.2 254.5 85.2 254.1 C 85.2 253.6 85.6 253.3 86 253.3 Z M 89.6 263.6 C 90 264.4 91 264.9 92 264.9 C 92.9 264.9 93.9 264.3 93.9 263.4 C 93.9 261.1 89 262.7 89 259.5 C 89 257.9 90.5 257.1 91.8 257.1 C 93.2 257.1 94.2 257.7 94.8 258.7 C 94.8 258.7 93.8 259.3 93.8 259.3 C 93.4 258.5 92.8 258.1 91.8 258.1 C 91.1 258.1 90.1 258.6 90.1 259.5 C 90.1 261.7 95 260 95 263.3 C 95 265 93.6 265.9 92 265.9 C 90.6 265.9 89.3 265.4 88.6 264.2 C 88.6 264.2 89.6 263.6 89.6 263.6 Z M 102.1 257.4 L 103.2 257.4 L 103.2 265.7 L 102.1 265.7 L 102.1 257.4 Z M 102.6 253.3 C 103.1 253.3 103.5 253.6 103.5 254.1 C 103.5 254.5 103.1 254.9 102.6 254.9 C 102.2 254.9 101.8 254.5 101.8 254.1 C 101.8 253.6 102.2 253.3 102.6 253.3 Z M 106.1 259.7 C 106.1 259.1 106 257.8 106 257.4 C 106 257.4 107.1 257.4 107.1 257.4 C 107.1 258 107.1 258.7 107.2 258.8 C 107.2 258.8 107.2 258.8 107.2 258.8 C 107.6 257.9 108.7 257.1 110.1 257.1 C 111.1 257.1 112.2 257.7 112.6 258.9 C 113.1 257.7 114.2 257.1 115.4 257.1 C 118 257.1 118.5 258.9 118.5 260.7 C 118.55 260.73 118.5 265.7 118.5 265.7 L 117.5 265.7 C 117.5 265.7 117.47 260.78 117.5 260.8 C 117.5 259.4 117.1 258.1 115.4 258.1 C 113.4 258.1 112.9 259.8 112.9 261 C 112.86 261 112.9 265.7 112.9 265.7 L 111.8 265.7 C 111.8 265.7 111.78 260.68 111.8 260.7 C 111.8 259.1 111.2 258.1 110.1 258.1 C 108.4 258.1 107.2 259.2 107.2 261.5 C 107.17 261.52 107.2 265.7 107.2 265.7 L 106.1 265.7 C 106.1 265.7 106.09 259.7 106.1 259.7 Z M 127.7 262.2 C 127.7 263.8 127.7 264.7 127.9 265.7 C 127.9 265.7 126.9 265.7 126.9 265.7 C 126.8 265.3 126.7 264.8 126.7 264.3 C 126.7 264.3 126.7 264.3 126.7 264.3 C 126.1 265.4 125.2 265.9 123.8 265.9 C 122.4 265.9 120.9 265.2 120.9 263.4 C 120.9 260.9 123.8 260.6 125.5 260.6 C 125.47 260.64 126.7 260.6 126.7 260.6 C 126.7 260.6 126.73 260.14 126.7 260.1 C 126.7 258.7 125.7 258.1 124.4 258.1 C 123.4 258.1 122.6 258.4 121.8 259.1 C 121.8 259.1 121.2 258.3 121.2 258.3 C 122 257.6 123.3 257.1 124.4 257.1 C 126.4 257.1 127.7 258 127.7 260.2 C 127.7 260.2 127.7 262.2 127.7 262.2 Z M 125.5 261.5 C 123.7 261.5 121.9 262 121.9 263.4 C 121.9 264.4 122.9 264.9 123.8 264.9 C 126.1 264.9 126.7 263.4 126.7 262.1 C 126.73 262.06 126.7 261.5 126.7 261.5 C 126.7 261.5 125.54 261.5 125.5 261.5 Z M 138.7 265.1 C 138.7 269.3 136 270 134.3 270 C 132.6 270 131 269.4 130.2 268.3 C 130.2 268.3 131 267.5 131 267.5 C 131.8 268.5 133 269 134.3 269 C 137.6 269 137.6 266.1 137.6 265.2 C 137.64 265.21 137.6 264.1 137.6 264.1 C 137.6 264.1 137.6 264.06 137.6 264.1 C 137 265 135.9 265.7 134.5 265.7 C 132 265.7 130 263.8 130 261.4 C 130 259.1 132 257.1 134.5 257.1 C 135.9 257.1 137 257.8 137.6 258.8 C 137.6 258.77 137.6 258.8 137.6 258.8 L 137.6 257.4 L 138.7 257.4 C 138.7 257.4 138.72 265.14 138.7 265.1 Z M 134.4 258.1 C 132.6 258.1 131.1 259.6 131.1 261.4 C 131.1 263.2 132.6 264.7 134.4 264.7 C 136.2 264.7 137.7 263.2 137.7 261.4 C 137.7 259.6 136.2 258.1 134.4 258.1 Z M 148.8 264.1 C 147.9 265.4 146.7 265.9 145.2 265.9 C 142.7 265.9 141 264.1 141 261.5 C 141 259 142.7 257.1 145.1 257.1 C 147.7 257.1 149 259.1 149 261 C 149.04 261.04 149 261.8 149 261.8 C 149 261.8 142.06 261.79 142.1 261.8 C 142.1 262.7 142.7 264.9 145.2 264.9 C 146.3 264.9 147.5 264.3 148 263.4 C 148 263.4 148.8 264.1 148.8 264.1 Z M 148 260.8 C 148 259.3 146.7 258.1 145.1 258.1 C 142.7 258.1 142.1 260.4 142.1 260.8 C 142.1 260.8 148 260.8 148 260.8 Z M 162.6 262.2 C 162.6 263.8 162.6 264.7 162.8 265.7 C 162.8 265.7 161.7 265.7 161.7 265.7 C 161.7 265.3 161.6 264.8 161.6 264.3 C 161.6 264.3 161.6 264.3 161.6 264.3 C 161 265.4 160.1 265.9 158.7 265.9 C 157.3 265.9 155.8 265.2 155.8 263.4 C 155.8 260.9 158.7 260.6 160.4 260.6 C 160.36 260.64 161.6 260.6 161.6 260.6 C 161.6 260.6 161.62 260.14 161.6 260.1 C 161.6 258.7 160.6 258.1 159.3 258.1 C 158.3 258.1 157.5 258.4 156.7 259.1 C 156.7 259.1 156.1 258.3 156.1 258.3 C 156.9 257.6 158.2 257.1 159.3 257.1 C 161.3 257.1 162.6 258 162.6 260.2 C 162.6 260.2 162.6 262.2 162.6 262.2 Z M 160.4 261.5 C 158.6 261.5 156.8 262 156.8 263.4 C 156.8 264.4 157.8 264.9 158.7 264.9 C 161 264.9 161.6 263.4 161.6 262.1 C 161.62 262.06 161.6 261.5 161.6 261.5 C 161.6 261.5 160.44 261.5 160.4 261.5 Z M 165.5 263.6 C 165.9 264.4 166.9 264.9 167.9 264.9 C 168.8 264.9 169.8 264.3 169.8 263.4 C 169.8 261.1 164.9 262.7 164.9 259.5 C 164.9 257.9 166.4 257.1 167.7 257.1 C 169.1 257.1 170.1 257.7 170.7 258.7 C 170.7 258.7 169.7 259.3 169.7 259.3 C 169.3 258.5 168.7 258.1 167.7 258.1 C 167 258.1 166 258.6 166 259.5 C 166 261.7 170.9 260 170.9 263.3 C 170.9 265 169.5 265.9 167.9 265.9 C 166.5 265.9 165.2 265.4 164.5 264.2 C 164.5 264.2 165.5 263.6 165.5 263.6 Z M 184.3 262.2 C 184.3 263.8 184.3 264.7 184.4 265.7 C 184.4 265.7 183.4 265.7 183.4 265.7 C 183.4 265.3 183.3 264.8 183.3 264.3 C 183.3 264.3 183.3 264.3 183.3 264.3 C 182.7 265.4 181.8 265.9 180.4 265.9 C 179 265.9 177.4 265.2 177.4 263.4 C 177.4 260.9 180.4 260.6 182.1 260.6 C 182.05 260.64 183.3 260.6 183.3 260.6 C 183.3 260.6 183.31 260.14 183.3 260.1 C 183.3 258.7 182.3 258.1 181 258.1 C 180 258.1 179.2 258.4 178.4 259.1 C 178.4 259.1 177.8 258.3 177.8 258.3 C 178.6 257.6 179.9 257.1 181 257.1 C 183 257.1 184.3 258 184.3 260.2 C 184.3 260.2 184.3 262.2 184.3 262.2 Z M 182.1 261.5 C 180.3 261.5 178.5 262 178.5 263.4 C 178.5 264.4 179.5 264.9 180.4 264.9 C 182.7 264.9 183.3 263.4 183.3 262.1 C 183.31 262.06 183.3 261.5 183.3 261.5 C 183.3 261.5 182.13 261.5 182.1 261.5 Z " stroke="none" fill="#000"/>  </g>  <g id="Polygon47468">    <path d="M 1.2 221.4 L 2.3 221.4 L 2.3 222.8 C 2.3 222.8 2.32 222.82 2.3 222.8 C 3 221.7 4.4 221.1 5.7 221.1 C 8.2 221.1 10 223 10 225.5 C 10 228.1 8.2 229.9 5.7 229.9 C 4.4 229.9 3 229.4 2.3 228.2 C 2.32 228.22 2.3 228.2 2.3 228.2 L 2.3 233.8 L 1.2 233.8 L 1.2 221.4 Z M 5.7 228.9 C 7.7 228.9 8.9 227.4 8.9 225.5 C 8.9 223.6 7.7 222.1 5.7 222.1 C 3.7 222.1 2.2 223.6 2.2 225.5 C 2.2 227.4 3.7 228.9 5.7 228.9 Z M 18.7 226.2 C 18.7 227.8 18.8 228.7 18.9 229.7 C 18.9 229.7 17.9 229.7 17.9 229.7 C 17.8 229.3 17.8 228.8 17.8 228.3 C 17.8 228.3 17.8 228.3 17.8 228.3 C 17.1 229.4 16.2 229.9 14.8 229.9 C 13.4 229.9 11.9 229.2 11.9 227.4 C 11.9 224.9 14.9 224.6 16.5 224.6 C 16.51 224.64 17.8 224.6 17.8 224.6 C 17.8 224.6 17.77 224.14 17.8 224.1 C 17.8 222.7 16.8 222.1 15.4 222.1 C 14.5 222.1 13.6 222.4 12.9 223.1 C 12.9 223.1 12.3 222.3 12.3 222.3 C 13.1 221.6 14.4 221.1 15.4 221.1 C 17.4 221.1 18.7 222 18.7 224.2 C 18.7 224.2 18.7 226.2 18.7 226.2 Z M 16.6 225.5 C 14.8 225.5 13 226 13 227.4 C 13 228.4 14 228.9 14.9 228.9 C 17.2 228.9 17.8 227.4 17.8 226.1 C 17.77 226.06 17.8 225.5 17.8 225.5 C 17.8 225.5 16.58 225.5 16.6 225.5 Z M 21.5 223.7 C 21.5 223.1 21.5 221.8 21.5 221.4 C 21.5 221.4 22.5 221.4 22.5 221.4 C 22.6 222 22.6 222.7 22.6 222.8 C 23.1 221.8 24 221.1 25.3 221.1 C 25.5 221.1 25.7 221.2 25.9 221.2 C 25.9 221.2 25.8 222.3 25.8 222.3 C 25.6 222.2 25.5 222.2 25.3 222.2 C 23.5 222.2 22.6 223.5 22.6 225.1 C 22.63 225.14 22.6 229.7 22.6 229.7 L 21.5 229.7 C 21.5 229.7 21.55 223.7 21.5 223.7 Z M 32.3 222.3 L 29.9 222.3 C 29.9 222.3 29.93 227.75 29.9 227.8 C 29.9 228.5 30.4 228.9 31.1 228.9 C 31.5 228.9 31.9 228.8 32.3 228.6 C 32.3 228.6 32.4 229.6 32.4 229.6 C 32 229.8 31.4 229.9 31 229.9 C 29.4 229.9 28.9 228.9 28.9 227.8 C 28.85 227.75 28.9 222.3 28.9 222.3 L 27.1 222.3 L 27.1 221.4 L 28.9 221.4 L 28.9 219 L 29.9 219 L 29.9 221.4 L 32.3 221.4 L 32.3 222.3 Z M 34.3 221.4 L 35.4 221.4 L 35.4 229.7 L 34.3 229.7 L 34.3 221.4 Z M 34.9 217.3 C 35.3 217.3 35.7 217.6 35.7 218.1 C 35.7 218.5 35.3 218.9 34.9 218.9 C 34.4 218.9 34.1 218.5 34.1 218.1 C 34.1 217.6 34.4 217.3 34.9 217.3 Z M 45.2 228.5 C 44.4 229.4 43.4 229.9 42.2 229.9 C 39.6 229.9 37.8 228.1 37.8 225.5 C 37.8 223 39.6 221.1 42.2 221.1 C 43.4 221.1 44.5 221.7 45.3 222.6 C 45.3 222.6 44.4 223.2 44.4 223.2 C 43.8 222.6 43 222.1 42.2 222.1 C 40.1 222.1 38.9 223.6 38.9 225.5 C 38.9 227.4 40.1 228.9 42.2 228.9 C 43.1 228.9 43.8 228.5 44.4 227.8 C 44.4 227.8 45.2 228.5 45.2 228.5 Z M 54.1 227.3 C 54.1 228 54.2 229.2 54.2 229.7 C 54.2 229.7 53.1 229.7 53.1 229.7 C 53.1 229.1 53.1 228.4 53 228.2 C 53 228.2 53 228.2 53 228.2 C 52.6 229.1 51.5 229.9 50.1 229.9 C 47.6 229.9 47 228.1 47 226.3 C 46.98 226.31 47 221.4 47 221.4 L 48.1 221.4 C 48.1 221.4 48.06 226.26 48.1 226.3 C 48.1 227.6 48.4 228.9 50.1 228.9 C 51.7 228.9 53 227.8 53 225.5 C 53.03 225.52 53 221.4 53 221.4 L 54.1 221.4 C 54.1 221.4 54.11 227.34 54.1 227.3 Z M 57.1 216.1 L 58.1 216.1 L 58.1 229.7 L 57.1 229.7 L 57.1 216.1 Z M 67.4 226.2 C 67.4 227.8 67.4 228.7 67.6 229.7 C 67.6 229.7 66.6 229.7 66.6 229.7 C 66.5 229.3 66.4 228.8 66.4 228.3 C 66.4 228.3 66.4 228.3 66.4 228.3 C 65.8 229.4 64.9 229.9 63.5 229.9 C 62.1 229.9 60.6 229.2 60.6 227.4 C 60.6 224.9 63.5 224.6 65.2 224.6 C 65.17 224.64 66.4 224.6 66.4 224.6 C 66.4 224.6 66.43 224.14 66.4 224.1 C 66.4 222.7 65.4 222.1 64.1 222.1 C 63.1 222.1 62.3 222.4 61.5 223.1 C 61.5 223.1 60.9 222.3 60.9 222.3 C 61.7 221.6 63 221.1 64.1 221.1 C 66.1 221.1 67.4 222 67.4 224.2 C 67.4 224.2 67.4 226.2 67.4 226.2 Z M 65.2 225.5 C 63.4 225.5 61.6 226 61.6 227.4 C 61.6 228.4 62.6 228.9 63.5 228.9 C 65.8 228.9 66.4 227.4 66.4 226.1 C 66.43 226.06 66.4 225.5 66.4 225.5 C 66.4 225.5 65.24 225.5 65.2 225.5 Z M 70.2 223.7 C 70.2 223.1 70.1 221.8 70.1 221.4 C 70.1 221.4 71.2 221.4 71.2 221.4 C 71.2 222 71.2 222.7 71.3 222.8 C 71.8 221.8 72.7 221.1 73.9 221.1 C 74.1 221.1 74.3 221.2 74.5 221.2 C 74.5 221.2 74.4 222.3 74.4 222.3 C 74.3 222.2 74.1 222.2 74 222.2 C 72.1 222.2 71.3 223.5 71.3 225.1 C 71.28 225.14 71.3 229.7 71.3 229.7 L 70.2 229.7 C 70.2 229.7 70.2 223.7 70.2 223.7 Z M 80.9 227.6 C 81.3 228.4 82.3 228.9 83.3 228.9 C 84.2 228.9 85.2 228.3 85.2 227.4 C 85.2 225.1 80.3 226.7 80.3 223.5 C 80.3 221.9 81.8 221.1 83.1 221.1 C 84.5 221.1 85.5 221.7 86.1 222.7 C 86.1 222.7 85.1 223.3 85.1 223.3 C 84.7 222.5 84.1 222.1 83.1 222.1 C 82.4 222.1 81.4 222.6 81.4 223.5 C 81.4 225.7 86.3 224 86.3 227.3 C 86.3 229 84.9 229.9 83.3 229.9 C 81.9 229.9 80.6 229.4 79.9 228.2 C 79.9 228.2 80.9 227.6 80.9 227.6 Z M 92.8 222.3 L 90.5 222.3 C 90.5 222.3 90.46 227.75 90.5 227.8 C 90.5 228.5 90.9 228.9 91.6 228.9 C 92 228.9 92.5 228.8 92.8 228.6 C 92.8 228.6 92.9 229.6 92.9 229.6 C 92.5 229.8 91.9 229.9 91.5 229.9 C 90 229.9 89.4 228.9 89.4 227.8 C 89.38 227.75 89.4 222.3 89.4 222.3 L 87.6 222.3 L 87.6 221.4 L 89.4 221.4 L 89.4 219 L 90.5 219 L 90.5 221.4 L 92.8 221.4 L 92.8 222.3 Z M 94.8 223.7 C 94.8 223.1 94.7 221.8 94.7 221.4 C 94.7 221.4 95.8 221.4 95.8 221.4 C 95.8 222 95.8 222.7 95.8 222.8 C 96.4 221.8 97.2 221.1 98.5 221.1 C 98.7 221.1 98.9 221.2 99.1 221.2 C 99.1 221.2 99 222.3 99 222.3 C 98.8 222.2 98.7 222.2 98.6 222.2 C 96.7 222.2 95.9 223.5 95.9 225.1 C 95.85 225.14 95.9 229.7 95.9 229.7 L 94.8 229.7 C 94.8 229.7 94.77 223.7 94.8 223.7 Z M 107.9 227.3 C 107.9 228 108 229.2 108 229.7 C 108 229.7 106.9 229.7 106.9 229.7 C 106.9 229.1 106.9 228.4 106.9 228.2 C 106.9 228.2 106.8 228.2 106.8 228.2 C 106.4 229.1 105.3 229.9 104 229.9 C 101.4 229.9 100.8 228.1 100.8 226.3 C 100.81 226.31 100.8 221.4 100.8 221.4 L 101.9 221.4 C 101.9 221.4 101.89 226.26 101.9 226.3 C 101.9 227.6 102.3 228.9 104 228.9 C 105.6 228.9 106.9 227.8 106.9 225.5 C 106.86 225.52 106.9 221.4 106.9 221.4 L 107.9 221.4 C 107.9 221.4 107.94 227.34 107.9 227.3 Z M 117.7 228.5 C 116.9 229.4 115.9 229.9 114.7 229.9 C 112.1 229.9 110.3 228.1 110.3 225.5 C 110.3 223 112.1 221.1 114.7 221.1 C 115.9 221.1 117 221.7 117.8 222.6 C 117.8 222.6 116.9 223.2 116.9 223.2 C 116.3 222.6 115.5 222.1 114.7 222.1 C 112.6 222.1 111.4 223.6 111.4 225.5 C 111.4 227.4 112.6 228.9 114.7 228.9 C 115.6 228.9 116.4 228.5 116.9 227.8 C 116.9 227.8 117.7 228.5 117.7 228.5 Z M 124.2 222.3 L 121.8 222.3 C 121.8 222.3 121.81 227.75 121.8 227.8 C 121.8 228.5 122.2 228.9 123 228.9 C 123.4 228.9 123.8 228.8 124.2 228.6 C 124.2 228.6 124.3 229.6 124.3 229.6 C 123.9 229.8 123.3 229.9 122.9 229.9 C 121.3 229.9 120.7 228.9 120.7 227.8 C 120.73 227.75 120.7 222.3 120.7 222.3 L 118.9 222.3 L 118.9 221.4 L 120.7 221.4 L 120.7 219 L 121.8 219 L 121.8 221.4 L 124.2 221.4 L 124.2 222.3 Z M 133.2 227.3 C 133.2 228 133.2 229.2 133.2 229.7 C 133.2 229.7 132.2 229.7 132.2 229.7 C 132.1 229.1 132.1 228.4 132.1 228.2 C 132.1 228.2 132 228.2 132 228.2 C 131.6 229.1 130.5 229.9 129.2 229.9 C 126.6 229.9 126 228.1 126 226.3 C 126.02 226.31 126 221.4 126 221.4 L 127.1 221.4 C 127.1 221.4 127.1 226.26 127.1 226.3 C 127.1 227.6 127.5 228.9 129.2 228.9 C 130.8 228.9 132.1 227.8 132.1 225.5 C 132.07 225.52 132.1 221.4 132.1 221.4 L 133.2 221.4 C 133.2 221.4 133.15 227.34 133.2 227.3 Z M 136 223.7 C 136 223.1 135.9 221.8 135.9 221.4 C 135.9 221.4 137 221.4 137 221.4 C 137 222 137 222.7 137.1 222.8 C 137.6 221.8 138.5 221.1 139.7 221.1 C 139.9 221.1 140.1 221.2 140.4 221.2 C 140.4 221.2 140.2 222.3 140.2 222.3 C 140.1 222.2 139.9 222.2 139.8 222.2 C 137.9 222.2 137.1 223.5 137.1 225.1 C 137.1 225.14 137.1 229.7 137.1 229.7 L 136 229.7 C 136 229.7 136.02 223.7 136 223.7 Z M 149.1 228.1 C 148.3 229.4 147 229.9 145.5 229.9 C 143 229.9 141.3 228.1 141.3 225.5 C 141.3 223 143 221.1 145.5 221.1 C 148 221.1 149.4 223.1 149.4 225 C 149.37 225.04 149.4 225.8 149.4 225.8 C 149.4 225.8 142.38 225.79 142.4 225.8 C 142.4 226.7 143 228.9 145.5 228.9 C 146.6 228.9 147.8 228.3 148.3 227.4 C 148.3 227.4 149.1 228.1 149.1 228.1 Z M 148.3 224.8 C 148.3 223.3 147 222.1 145.4 222.1 C 143 222.1 142.4 224.4 142.4 224.8 C 142.4 224.8 148.3 224.8 148.3 224.8 Z M 152.2 228.1 C 152.7 228.1 153 228.4 153 228.9 C 153 229.4 152.7 229.8 152.2 229.8 C 151.7 229.8 151.3 229.4 151.3 228.9 C 151.3 228.4 151.7 228.1 152.2 228.1 Z " stroke="none" fill="#000"/>  </g>  <g id="Polygon47467">    <path d="M 1.2 197.4 L 2.3 197.4 L 2.3 198.8 C 2.3 198.8 2.32 198.82 2.3 198.8 C 3 197.7 4.4 197.1 5.7 197.1 C 8.2 197.1 10 199 10 201.5 C 10 204.1 8.2 205.9 5.7 205.9 C 4.4 205.9 3 205.4 2.3 204.2 C 2.32 204.22 2.3 204.2 2.3 204.2 L 2.3 209.8 L 1.2 209.8 L 1.2 197.4 Z M 5.7 204.9 C 7.7 204.9 8.9 203.4 8.9 201.5 C 8.9 199.6 7.7 198.1 5.7 198.1 C 3.7 198.1 2.2 199.6 2.2 201.5 C 2.2 203.4 3.7 204.9 5.7 204.9 Z M 12.5 192.1 L 13.6 192.1 L 13.6 205.7 L 12.5 205.7 L 12.5 192.1 Z M 22.8 202.2 C 22.8 203.8 22.9 204.7 23 205.7 C 23 205.7 22 205.7 22 205.7 C 21.9 205.3 21.9 204.8 21.9 204.3 C 21.9 204.3 21.8 204.3 21.8 204.3 C 21.2 205.4 20.3 205.9 18.9 205.9 C 17.5 205.9 16 205.2 16 203.4 C 16 200.9 18.9 200.6 20.6 200.6 C 20.58 200.64 21.8 200.6 21.8 200.6 C 21.8 200.6 21.84 200.14 21.8 200.1 C 21.8 198.7 20.8 198.1 19.5 198.1 C 18.5 198.1 17.7 198.4 17 199.1 C 17 199.1 16.3 198.3 16.3 198.3 C 17.1 197.6 18.4 197.1 19.5 197.1 C 21.5 197.1 22.8 198 22.8 200.2 C 22.8 200.2 22.8 202.2 22.8 202.2 Z M 20.7 201.5 C 18.9 201.5 17.1 202 17.1 203.4 C 17.1 204.4 18 204.9 18.9 204.9 C 21.3 204.9 21.8 203.4 21.8 202.1 C 21.84 202.06 21.8 201.5 21.8 201.5 C 21.8 201.5 20.66 201.5 20.7 201.5 Z M 25.6 199.7 C 25.6 199.1 25.5 197.8 25.5 197.4 C 25.5 197.4 26.6 197.4 26.6 197.4 C 26.6 198 26.6 198.7 26.7 198.8 C 26.7 198.8 26.7 198.8 26.7 198.8 C 27.2 197.9 28.2 197.1 29.6 197.1 C 32.2 197.1 32.7 198.9 32.7 200.7 C 32.75 200.73 32.7 205.7 32.7 205.7 L 31.7 205.7 C 31.7 205.7 31.67 200.78 31.7 200.8 C 31.7 199.4 31.3 198.1 29.6 198.1 C 28 198.1 26.7 199.2 26.7 201.5 C 26.7 201.52 26.7 205.7 26.7 205.7 L 25.6 205.7 C 25.6 205.7 25.62 199.7 25.6 199.7 Z M 42.9 204.1 C 42 205.4 40.7 205.9 39.3 205.9 C 36.7 205.9 35.1 204.1 35.1 201.5 C 35.1 199 36.8 197.1 39.2 197.1 C 41.8 197.1 43.1 199.1 43.1 201 C 43.13 201.04 43.1 201.8 43.1 201.8 C 43.1 201.8 36.14 201.79 36.1 201.8 C 36.1 202.7 36.8 204.9 39.3 204.9 C 40.4 204.9 41.5 204.3 42.1 203.4 C 42.1 203.4 42.9 204.1 42.9 204.1 Z M 42 200.8 C 42 199.3 40.8 198.1 39.2 198.1 C 36.8 198.1 36.1 200.4 36.1 200.8 C 36.1 200.8 42 200.8 42 200.8 Z M 50.8 198.3 L 49.1 198.3 L 49.1 197.4 L 50.8 197.4 C 50.8 197.4 50.83 194.65 50.8 194.6 C 50.8 192.5 52.3 191.9 53.3 191.9 C 53.8 191.9 54.2 191.9 54.6 192.1 C 54.6 192.1 54.3 193 54.3 193 C 54.1 192.9 53.8 192.8 53.4 192.8 C 52.4 192.8 51.9 193.5 51.9 195 C 51.91 195.04 51.9 197.4 51.9 197.4 L 53.9 197.4 L 53.9 198.3 L 51.9 198.3 L 51.9 205.7 L 50.8 205.7 L 50.8 198.3 Z M 59.2 197.1 C 61.8 197.1 63.6 199 63.6 201.5 C 63.6 204.1 61.8 205.9 59.2 205.9 C 56.6 205.9 54.8 204.1 54.8 201.5 C 54.8 199 56.6 197.1 59.2 197.1 Z M 59.2 204.9 C 61.2 204.9 62.5 203.4 62.5 201.5 C 62.5 199.6 61.2 198.1 59.2 198.1 C 57.2 198.1 55.9 199.6 55.9 201.5 C 55.9 203.4 57.2 204.9 59.2 204.9 Z M 65.9 199.7 C 65.9 199.1 65.8 197.8 65.8 197.4 C 65.8 197.4 66.9 197.4 66.9 197.4 C 66.9 198 66.9 198.7 67 198.8 C 67.5 197.8 68.4 197.1 69.6 197.1 C 69.8 197.1 70 197.2 70.2 197.2 C 70.2 197.2 70.1 198.3 70.1 198.3 C 70 198.2 69.8 198.2 69.7 198.2 C 67.8 198.2 67 199.5 67 201.1 C 66.98 201.14 67 205.7 67 205.7 L 65.9 205.7 C 65.9 205.7 65.9 199.7 65.9 199.7 Z M 83.9 204.2 C 83.9 204.2 83.81 204.22 83.8 204.2 C 83.1 205.4 81.7 205.9 80.5 205.9 C 77.9 205.9 76.1 204.1 76.1 201.5 C 76.1 199 77.9 197.1 80.5 197.1 C 81.7 197.1 83.1 197.7 83.8 198.8 C 83.81 198.82 83.9 198.8 83.9 198.8 L 83.9 192.1 L 84.9 192.1 L 84.9 205.7 L 83.9 205.7 L 83.9 204.2 Z M 80.5 198.1 C 78.5 198.1 77.2 199.6 77.2 201.5 C 77.2 203.4 78.5 204.9 80.5 204.9 C 82.4 204.9 84 203.4 84 201.5 C 84 199.6 82.4 198.1 80.5 198.1 Z M 87.7 197.4 L 88.8 197.4 L 88.8 205.7 L 87.7 205.7 L 87.7 197.4 Z M 88.3 193.3 C 88.7 193.3 89.1 193.6 89.1 194.1 C 89.1 194.5 88.7 194.9 88.3 194.9 C 87.8 194.9 87.4 194.5 87.4 194.1 C 87.4 193.6 87.8 193.3 88.3 193.3 Z M 91.8 203.6 C 92.3 204.4 93.3 204.9 94.2 204.9 C 95.2 204.9 96.1 204.3 96.1 203.4 C 96.1 201.1 91.2 202.7 91.2 199.5 C 91.2 197.9 92.7 197.1 94.1 197.1 C 95.4 197.1 96.4 197.7 97 198.7 C 97 198.7 96 199.3 96 199.3 C 95.6 198.5 95 198.1 94.1 198.1 C 93.3 198.1 92.3 198.6 92.3 199.5 C 92.3 201.7 97.2 200 97.2 203.3 C 97.2 205 95.8 205.9 94.2 205.9 C 92.8 205.9 91.5 205.4 90.9 204.2 C 90.9 204.2 91.8 203.6 91.8 203.6 Z M 99.3 197.4 L 100.4 197.4 L 100.4 198.8 C 100.4 198.8 100.45 198.82 100.4 198.8 C 101.1 197.7 102.5 197.1 103.8 197.1 C 106.3 197.1 108.2 199 108.2 201.5 C 108.2 204.1 106.3 205.9 103.8 205.9 C 102.5 205.9 101.1 205.4 100.4 204.2 C 100.45 204.22 100.4 204.2 100.4 204.2 L 100.4 209.8 L 99.3 209.8 L 99.3 197.4 Z M 103.8 204.9 C 105.8 204.9 107.1 203.4 107.1 201.5 C 107.1 199.6 105.8 198.1 103.8 198.1 C 101.8 198.1 100.3 199.6 100.3 201.5 C 100.3 203.4 101.8 204.9 103.8 204.9 Z M 110.6 192.1 L 111.7 192.1 L 111.7 205.7 L 110.6 205.7 L 110.6 192.1 Z M 120.9 202.2 C 120.9 203.8 121 204.7 121.1 205.7 C 121.1 205.7 120.1 205.7 120.1 205.7 C 120 205.3 120 204.8 120 204.3 C 120 204.3 120 204.3 120 204.3 C 119.3 205.4 118.4 205.9 117 205.9 C 115.6 205.9 114.1 205.2 114.1 203.4 C 114.1 200.9 117.1 200.6 118.7 200.6 C 118.71 200.64 120 200.6 120 200.6 C 120 200.6 119.97 200.14 120 200.1 C 120 198.7 119 198.1 117.6 198.1 C 116.7 198.1 115.8 198.4 115.1 199.1 C 115.1 199.1 114.5 198.3 114.5 198.3 C 115.3 197.6 116.6 197.1 117.6 197.1 C 119.6 197.1 120.9 198 120.9 200.2 C 120.9 200.2 120.9 202.2 120.9 202.2 Z M 118.8 201.5 C 117 201.5 115.2 202 115.2 203.4 C 115.2 204.4 116.2 204.9 117.1 204.9 C 119.4 204.9 120 203.4 120 202.1 C 119.97 202.06 120 201.5 120 201.5 C 120 201.5 118.78 201.5 118.8 201.5 Z M 125.9 208.3 C 125.5 209.3 124.8 210 123.6 210 C 123.2 210 122.9 209.9 122.5 209.8 C 122.5 209.8 122.7 208.8 122.7 208.8 C 123 208.9 123.3 209 123.6 209 C 124.4 209 124.8 208.3 125 207.6 C 125.01 207.64 125.8 205.7 125.8 205.7 L 122.4 197.4 L 123.6 197.4 L 126.3 204.4 L 129 197.4 L 130.2 197.4 C 130.2 197.4 125.9 208.25 125.9 208.3 Z M 132.1 197.4 L 133.1 197.4 L 133.1 205.7 L 132.1 205.7 L 132.1 197.4 Z M 132.6 193.3 C 133 193.3 133.4 193.6 133.4 194.1 C 133.4 194.5 133 194.9 132.6 194.9 C 132.1 194.9 131.8 194.5 131.8 194.1 C 131.8 193.6 132.1 193.3 132.6 193.3 Z M 136 199.7 C 136 199.1 136 197.8 136 197.4 C 136 197.4 137 197.4 137 197.4 C 137.1 198 137.1 198.7 137.1 198.8 C 137.1 198.8 137.2 198.8 137.2 198.8 C 137.6 197.9 138.7 197.1 140 197.1 C 142.6 197.1 143.2 198.9 143.2 200.7 C 143.17 200.73 143.2 205.7 143.2 205.7 L 142.1 205.7 C 142.1 205.7 142.09 200.78 142.1 200.8 C 142.1 199.4 141.7 198.1 140 198.1 C 138.4 198.1 137.1 199.2 137.1 201.5 C 137.12 201.52 137.1 205.7 137.1 205.7 L 136 205.7 C 136 205.7 136.04 199.7 136 199.7 Z M 154.2 205.1 C 154.2 209.3 151.5 210 149.8 210 C 148.1 210 146.5 209.4 145.7 208.3 C 145.7 208.3 146.5 207.5 146.5 207.5 C 147.3 208.5 148.5 209 149.8 209 C 153.1 209 153.1 206.1 153.1 205.2 C 153.14 205.21 153.1 204.1 153.1 204.1 C 153.1 204.1 153.1 204.06 153.1 204.1 C 152.5 205 151.4 205.7 150 205.7 C 147.5 205.7 145.5 203.8 145.5 201.4 C 145.5 199.1 147.5 197.1 150 197.1 C 151.4 197.1 152.5 197.8 153.1 198.8 C 153.1 198.77 153.1 198.8 153.1 198.8 L 153.1 197.4 L 154.2 197.4 C 154.2 197.4 154.22 205.14 154.2 205.1 Z M 149.9 198.1 C 148.1 198.1 146.6 199.6 146.6 201.4 C 146.6 203.2 148.1 204.7 149.9 204.7 C 151.7 204.7 153.2 203.2 153.2 201.4 C 153.2 199.6 151.7 198.1 149.9 198.1 Z M 168 202.2 C 168 203.8 168 204.7 168.2 205.7 C 168.2 205.7 167.2 205.7 167.2 205.7 C 167.1 205.3 167.1 204.8 167.1 204.3 C 167.1 204.3 167 204.3 167 204.3 C 166.4 205.4 165.5 205.9 164.1 205.9 C 162.7 205.9 161.2 205.2 161.2 203.4 C 161.2 200.9 164.1 200.6 165.8 200.6 C 165.78 200.64 167 200.6 167 200.6 C 167 200.6 167.04 200.14 167 200.1 C 167 198.7 166 198.1 164.7 198.1 C 163.7 198.1 162.9 198.4 162.2 199.1 C 162.2 199.1 161.5 198.3 161.5 198.3 C 162.3 197.6 163.6 197.1 164.7 197.1 C 166.7 197.1 168 198 168 200.2 C 168 200.2 168 202.2 168 202.2 Z M 165.8 201.5 C 164 201.5 162.2 202 162.2 203.4 C 162.2 204.4 163.2 204.9 164.1 204.9 C 166.4 204.9 167 203.4 167 202.1 C 167.04 202.06 167 201.5 167 201.5 C 167 201.5 165.85 201.5 165.8 201.5 Z " stroke="none" fill="#000"/>  </g>  <g id="Polygon47466">    <path d="M 0.3 173.4 L 1.5 173.4 L 3.5 180.3 L 3.5 180.3 L 5.8 173.4 L 6.9 173.4 L 9.3 180.3 L 9.4 180.3 L 11.3 173.4 L 12.4 173.4 L 10 181.7 L 8.8 181.7 L 6.4 174.9 L 6.3 174.9 L 4 181.7 L 2.9 181.7 L 0.3 173.4 Z M 20.6 178.2 C 20.6 179.8 20.6 180.7 20.7 181.7 C 20.7 181.7 19.7 181.7 19.7 181.7 C 19.7 181.3 19.6 180.8 19.6 180.3 C 19.6 180.3 19.6 180.3 19.6 180.3 C 19 181.4 18.1 181.9 16.7 181.9 C 15.3 181.9 13.7 181.2 13.7 179.4 C 13.7 176.9 16.7 176.6 18.3 176.6 C 18.35 176.64 19.6 176.6 19.6 176.6 C 19.6 176.6 19.61 176.14 19.6 176.1 C 19.6 174.7 18.6 174.1 17.3 174.1 C 16.3 174.1 15.5 174.4 14.7 175.1 C 14.7 175.1 14.1 174.3 14.1 174.3 C 14.9 173.6 16.2 173.1 17.3 173.1 C 19.3 173.1 20.6 174 20.6 176.2 C 20.6 176.2 20.6 178.2 20.6 178.2 Z M 18.4 177.5 C 16.6 177.5 14.8 178 14.8 179.4 C 14.8 180.4 15.8 180.9 16.7 180.9 C 19 180.9 19.6 179.4 19.6 178.1 C 19.61 178.06 19.6 177.5 19.6 177.5 C 19.6 177.5 18.42 177.5 18.4 177.5 Z M 25.5 184.3 C 25.1 185.3 24.4 186 23.2 186 C 22.9 186 22.5 185.9 22.2 185.8 C 22.2 185.8 22.3 184.8 22.3 184.8 C 22.6 184.9 22.9 185 23.3 185 C 24.1 185 24.4 184.3 24.7 183.6 C 24.65 183.64 25.4 181.7 25.4 181.7 L 22 173.4 L 23.2 173.4 L 26 180.4 L 28.7 173.4 L 29.8 173.4 C 29.8 173.4 25.53 184.25 25.5 184.3 Z M 40.3 174.3 L 37.9 174.3 C 37.9 174.3 37.9 179.75 37.9 179.8 C 37.9 180.5 38.3 180.9 39.1 180.9 C 39.5 180.9 39.9 180.8 40.3 180.6 C 40.3 180.6 40.4 181.6 40.4 181.6 C 40 181.8 39.4 181.9 39 181.9 C 37.4 181.9 36.8 180.9 36.8 179.8 C 36.82 179.75 36.8 174.3 36.8 174.3 L 35 174.3 L 35 173.4 L 36.8 173.4 L 36.8 171 L 37.9 171 L 37.9 173.4 L 40.3 173.4 L 40.3 174.3 Z M 45.8 173.1 C 48.3 173.1 50.2 175 50.2 177.5 C 50.2 180.1 48.3 181.9 45.8 181.9 C 43.2 181.9 41.4 180.1 41.4 177.5 C 41.4 175 43.2 173.1 45.8 173.1 Z M 45.8 180.9 C 47.8 180.9 49.1 179.4 49.1 177.5 C 49.1 175.6 47.8 174.1 45.8 174.1 C 43.8 174.1 42.5 175.6 42.5 177.5 C 42.5 179.4 43.8 180.9 45.8 180.9 Z M 64.2 180.5 C 63.4 181.4 62.3 181.9 61.2 181.9 C 58.6 181.9 56.8 180.1 56.8 177.5 C 56.8 175 58.6 173.1 61.2 173.1 C 62.4 173.1 63.4 173.7 64.3 174.6 C 64.3 174.6 63.4 175.2 63.4 175.2 C 62.8 174.6 62 174.1 61.2 174.1 C 59.1 174.1 57.9 175.6 57.9 177.5 C 57.9 179.4 59.1 180.9 61.2 180.9 C 62.1 180.9 62.8 180.5 63.4 179.8 C 63.4 179.8 64.2 180.5 64.2 180.5 Z M 66 168.1 L 67.1 168.1 L 67.1 174.8 C 67.1 174.8 67.13 174.82 67.1 174.8 C 67.6 173.9 68.6 173.1 70 173.1 C 72.6 173.1 73.1 174.9 73.1 176.7 C 73.14 176.73 73.1 181.7 73.1 181.7 L 72.1 181.7 C 72.1 181.7 72.06 176.78 72.1 176.8 C 72.1 175.4 71.7 174.1 70 174.1 C 68.4 174.1 67.1 175.2 67.1 177.5 C 67.1 177.52 67.1 181.7 67.1 181.7 L 66 181.7 L 66 168.1 Z M 79.8 173.1 C 82.4 173.1 84.2 175 84.2 177.5 C 84.2 180.1 82.4 181.9 79.8 181.9 C 77.3 181.9 75.5 180.1 75.5 177.5 C 75.5 175 77.3 173.1 79.8 173.1 Z M 79.8 180.9 C 81.9 180.9 83.1 179.4 83.1 177.5 C 83.1 175.6 81.9 174.1 79.8 174.1 C 77.8 174.1 76.5 175.6 76.5 177.5 C 76.5 179.4 77.8 180.9 79.8 180.9 Z M 90.5 173.1 C 93 173.1 94.9 175 94.9 177.5 C 94.9 180.1 93 181.9 90.5 181.9 C 87.9 181.9 86.1 180.1 86.1 177.5 C 86.1 175 87.9 173.1 90.5 173.1 Z M 90.5 180.9 C 92.5 180.9 93.8 179.4 93.8 177.5 C 93.8 175.6 92.5 174.1 90.5 174.1 C 88.4 174.1 87.2 175.6 87.2 177.5 C 87.2 179.4 88.4 180.9 90.5 180.9 Z M 97.3 179.6 C 97.7 180.4 98.7 180.9 99.7 180.9 C 100.6 180.9 101.6 180.3 101.6 179.4 C 101.6 177.1 96.6 178.7 96.6 175.5 C 96.6 173.9 98.1 173.1 99.5 173.1 C 100.8 173.1 101.9 173.7 102.4 174.7 C 102.4 174.7 101.5 175.3 101.5 175.3 C 101 174.5 100.5 174.1 99.5 174.1 C 98.7 174.1 97.7 174.6 97.7 175.5 C 97.7 177.7 102.7 176 102.7 179.3 C 102.7 181 101.2 181.9 99.7 181.9 C 98.2 181.9 97 181.4 96.3 180.2 C 96.3 180.2 97.3 179.6 97.3 179.6 Z M 112.2 180.1 C 111.4 181.4 110.1 181.9 108.6 181.9 C 106.1 181.9 104.4 180.1 104.4 177.5 C 104.4 175 106.2 173.1 108.6 173.1 C 111.1 173.1 112.5 175.1 112.5 177 C 112.49 177.04 112.5 177.8 112.5 177.8 C 112.5 177.8 105.5 177.79 105.5 177.8 C 105.5 178.7 106.1 180.9 108.7 180.9 C 109.8 180.9 110.9 180.3 111.4 179.4 C 111.4 179.4 112.2 180.1 112.2 180.1 Z M 111.4 176.8 C 111.4 175.3 110.1 174.1 108.5 174.1 C 106.2 174.1 105.5 176.4 105.5 176.8 C 105.5 176.8 111.4 176.8 111.4 176.8 Z M 123.6 174.3 L 121.3 174.3 C 121.3 174.3 121.27 179.75 121.3 179.8 C 121.3 180.5 121.7 180.9 122.4 180.9 C 122.8 180.9 123.3 180.8 123.6 180.6 C 123.6 180.6 123.7 181.6 123.7 181.6 C 123.3 181.8 122.7 181.9 122.3 181.9 C 120.8 181.9 120.2 180.9 120.2 179.8 C 120.19 179.75 120.2 174.3 120.2 174.3 L 118.4 174.3 L 118.4 173.4 L 120.2 173.4 L 120.2 171 L 121.3 171 L 121.3 173.4 L 123.6 173.4 L 123.6 174.3 Z M 125.6 168.1 L 126.7 168.1 L 126.7 174.8 C 126.7 174.8 126.7 174.82 126.7 174.8 C 127.1 173.9 128.2 173.1 129.5 173.1 C 132.1 173.1 132.7 174.9 132.7 176.7 C 132.71 176.73 132.7 181.7 132.7 181.7 L 131.6 181.7 C 131.6 181.7 131.63 176.78 131.6 176.8 C 131.6 175.4 131.3 174.1 129.5 174.1 C 127.9 174.1 126.7 175.2 126.7 177.5 C 126.66 177.52 126.7 181.7 126.7 181.7 L 125.6 181.7 L 125.6 168.1 Z M 142.8 180.1 C 142 181.4 140.7 181.9 139.2 181.9 C 136.7 181.9 135 180.1 135 177.5 C 135 175 136.8 173.1 139.2 173.1 C 141.7 173.1 143.1 175.1 143.1 177 C 143.09 177.04 143.1 177.8 143.1 177.8 C 143.1 177.8 136.1 177.79 136.1 177.8 C 136.1 178.7 136.7 180.9 139.3 180.9 C 140.4 180.9 141.5 180.3 142 179.4 C 142 179.4 142.8 180.1 142.8 180.1 Z M 142 176.8 C 142 175.3 140.7 174.1 139.1 174.1 C 136.8 174.1 136.1 176.4 136.1 176.8 C 136.1 176.8 142 176.8 142 176.8 Z M 149.9 168.1 L 151 168.1 L 151 174.8 C 151 174.8 151.06 174.82 151.1 174.8 C 151.7 173.7 153.1 173.1 154.4 173.1 C 156.9 173.1 158.8 175 158.8 177.5 C 158.8 180.1 156.9 181.9 154.4 181.9 C 153.1 181.9 151.7 181.4 151.1 180.2 C 151.06 180.22 151 180.2 151 180.2 L 151 181.7 L 149.9 181.7 L 149.9 168.1 Z M 154.4 180.9 C 156.4 180.9 157.7 179.4 157.7 177.5 C 157.7 175.6 156.4 174.1 154.4 174.1 C 152.4 174.1 150.9 175.6 150.9 177.5 C 150.9 179.4 152.4 180.9 154.4 180.9 Z M 168.5 180.1 C 167.6 181.4 166.4 181.9 164.9 181.9 C 162.3 181.9 160.7 180.1 160.7 177.5 C 160.7 175 162.4 173.1 164.8 173.1 C 167.4 173.1 168.7 175.1 168.7 177 C 168.73 177.04 168.7 177.8 168.7 177.8 C 168.7 177.8 161.75 177.79 161.7 177.8 C 161.7 178.7 162.4 180.9 164.9 180.9 C 166 180.9 167.1 180.3 167.7 179.4 C 167.7 179.4 168.5 180.1 168.5 180.1 Z M 167.7 176.8 C 167.7 175.3 166.4 174.1 164.8 174.1 C 162.4 174.1 161.7 176.4 161.7 176.8 C 161.7 176.8 167.7 176.8 167.7 176.8 Z M 171.2 179.6 C 171.7 180.4 172.7 180.9 173.6 180.9 C 174.6 180.9 175.6 180.3 175.6 179.4 C 175.6 177.1 170.6 178.7 170.6 175.5 C 170.6 173.9 172.1 173.1 173.5 173.1 C 174.8 173.1 175.9 173.7 176.4 174.7 C 176.4 174.7 175.4 175.3 175.4 175.3 C 175 174.5 174.4 174.1 173.5 174.1 C 172.7 174.1 171.7 174.6 171.7 175.5 C 171.7 177.7 176.6 176 176.6 179.3 C 176.6 181 175.2 181.9 173.6 181.9 C 172.2 181.9 170.9 181.4 170.3 180.2 C 170.3 180.2 171.2 179.6 171.2 179.6 Z M 183.2 174.3 L 180.8 174.3 C 180.8 174.3 180.8 179.75 180.8 179.8 C 180.8 180.5 181.2 180.9 182 180.9 C 182.4 180.9 182.8 180.8 183.2 180.6 C 183.2 180.6 183.3 181.6 183.3 181.6 C 182.9 181.8 182.3 181.9 181.9 181.9 C 180.3 181.9 179.7 180.9 179.7 179.8 C 179.72 179.75 179.7 174.3 179.7 174.3 L 177.9 174.3 L 177.9 173.4 L 179.7 173.4 L 179.7 171 L 180.8 171 L 180.8 173.4 L 183.2 173.4 L 183.2 174.3 Z " stroke="none" fill="#000"/>  </g>  <g id="Polygon47465">    <path d="M 7.9 154.2 C 7.9 155.8 7.9 156.7 8.1 157.7 C 8.1 157.7 7.1 157.7 7.1 157.7 C 7 157.3 6.9 156.8 6.9 156.3 C 6.9 156.3 6.9 156.3 6.9 156.3 C 6.3 157.4 5.4 157.9 4 157.9 C 2.6 157.9 1.1 157.2 1.1 155.4 C 1.1 152.9 4 152.6 5.7 152.6 C 5.67 152.64 6.9 152.6 6.9 152.6 C 6.9 152.6 6.93 152.14 6.9 152.1 C 6.9 150.7 5.9 150.1 4.6 150.1 C 3.6 150.1 2.8 150.4 2.1 151.1 C 2.1 151.1 1.4 150.3 1.4 150.3 C 2.2 149.6 3.5 149.1 4.6 149.1 C 6.6 149.1 7.9 150 7.9 152.2 C 7.9 152.2 7.9 154.2 7.9 154.2 Z M 5.7 153.5 C 3.9 153.5 2.1 154 2.1 155.4 C 2.1 156.4 3.1 156.9 4 156.9 C 6.3 156.9 6.9 155.4 6.9 154.1 C 6.93 154.06 6.9 153.5 6.9 153.5 C 6.9 153.5 5.74 153.5 5.7 153.5 Z M 10.8 144.1 L 11.9 144.1 L 11.9 157.7 L 10.8 157.7 L 10.8 144.1 Z M 23.1 157.1 C 23.1 161.3 20.3 162 18.6 162 C 16.9 162 15.3 161.4 14.5 160.3 C 14.5 160.3 15.3 159.5 15.3 159.5 C 16.1 160.5 17.3 161 18.6 161 C 21.9 161 22 158.1 22 157.2 C 21.97 157.21 22 156.1 22 156.1 C 22 156.1 21.93 156.06 21.9 156.1 C 21.3 157 20.2 157.7 18.8 157.7 C 16.3 157.7 14.3 155.8 14.3 153.4 C 14.3 151.1 16.3 149.1 18.8 149.1 C 20.2 149.1 21.3 149.8 21.9 150.8 C 21.93 150.77 22 150.8 22 150.8 L 22 149.4 L 23.1 149.4 C 23.1 149.4 23.05 157.14 23.1 157.1 Z M 18.7 150.1 C 16.9 150.1 15.4 151.6 15.4 153.4 C 15.4 155.2 16.9 156.7 18.7 156.7 C 20.5 156.7 22 155.2 22 153.4 C 22 151.6 20.5 150.1 18.7 150.1 Z M 29.7 149.1 C 32.2 149.1 34 151 34 153.5 C 34 156.1 32.2 157.9 29.7 157.9 C 27.1 157.9 25.3 156.1 25.3 153.5 C 25.3 151 27.1 149.1 29.7 149.1 Z M 29.7 156.9 C 31.7 156.9 32.9 155.4 32.9 153.5 C 32.9 151.6 31.7 150.1 29.7 150.1 C 27.6 150.1 26.4 151.6 26.4 153.5 C 26.4 155.4 27.6 156.9 29.7 156.9 Z M 36.4 151.7 C 36.4 151.1 36.3 149.8 36.3 149.4 C 36.3 149.4 37.3 149.4 37.3 149.4 C 37.4 150 37.4 150.7 37.4 150.8 C 38 149.8 38.8 149.1 40.1 149.1 C 40.3 149.1 40.5 149.2 40.7 149.2 C 40.7 149.2 40.6 150.3 40.6 150.3 C 40.4 150.2 40.3 150.2 40.2 150.2 C 38.3 150.2 37.4 151.5 37.4 153.1 C 37.43 153.14 37.4 157.7 37.4 157.7 L 36.4 157.7 C 36.4 157.7 36.35 151.7 36.4 151.7 Z M 42.5 149.4 L 43.6 149.4 L 43.6 157.7 L 42.5 157.7 L 42.5 149.4 Z M 43.1 145.3 C 43.5 145.3 43.9 145.6 43.9 146.1 C 43.9 146.5 43.5 146.9 43.1 146.9 C 42.6 146.9 42.3 146.5 42.3 146.1 C 42.3 145.6 42.6 145.3 43.1 145.3 Z M 50.7 150.3 L 48.3 150.3 C 48.3 150.3 48.34 155.75 48.3 155.8 C 48.3 156.5 48.8 156.9 49.5 156.9 C 49.9 156.9 50.3 156.8 50.7 156.6 C 50.7 156.6 50.8 157.6 50.8 157.6 C 50.4 157.8 49.8 157.9 49.4 157.9 C 47.9 157.9 47.3 156.9 47.3 155.8 C 47.26 155.75 47.3 150.3 47.3 150.3 L 45.5 150.3 L 45.5 149.4 L 47.3 149.4 L 47.3 147 L 48.3 147 L 48.3 149.4 L 50.7 149.4 L 50.7 150.3 Z M 52.7 144.1 L 53.7 144.1 L 53.7 150.8 C 53.7 150.8 53.77 150.82 53.8 150.8 C 54.2 149.9 55.3 149.1 56.6 149.1 C 59.2 149.1 59.8 150.9 59.8 152.7 C 59.78 152.73 59.8 157.7 59.8 157.7 L 58.7 157.7 C 58.7 157.7 58.7 152.78 58.7 152.8 C 58.7 151.4 58.3 150.1 56.6 150.1 C 55 150.1 53.7 151.2 53.7 153.5 C 53.73 153.52 53.7 157.7 53.7 157.7 L 52.7 157.7 L 52.7 144.1 Z M 62.6 151.7 C 62.6 151.1 62.5 149.8 62.5 149.4 C 62.5 149.4 63.6 149.4 63.6 149.4 C 63.6 150 63.6 150.7 63.6 150.8 C 63.6 150.8 63.7 150.8 63.7 150.8 C 64.1 149.9 65.2 149.1 66.5 149.1 C 67.6 149.1 68.6 149.7 69 150.9 C 69.5 149.7 70.7 149.1 71.8 149.1 C 74.4 149.1 75 150.9 75 152.7 C 75.02 152.73 75 157.7 75 157.7 L 73.9 157.7 C 73.9 157.7 73.94 152.78 73.9 152.8 C 73.9 151.4 73.6 150.1 71.8 150.1 C 69.9 150.1 69.3 151.8 69.3 153 C 69.33 153 69.3 157.7 69.3 157.7 L 68.2 157.7 C 68.2 157.7 68.25 152.68 68.2 152.7 C 68.2 151.1 67.7 150.1 66.5 150.1 C 64.9 150.1 63.6 151.2 63.6 153.5 C 63.64 153.52 63.6 157.7 63.6 157.7 L 62.6 157.7 C 62.6 157.7 62.56 151.7 62.6 151.7 Z M 82.8 149.4 L 83.8 149.4 L 83.8 157.7 L 82.8 157.7 L 82.8 149.4 Z M 83.3 145.3 C 83.7 145.3 84.1 145.6 84.1 146.1 C 84.1 146.5 83.7 146.9 83.3 146.9 C 82.8 146.9 82.5 146.5 82.5 146.1 C 82.5 145.6 82.8 145.3 83.3 145.3 Z M 86.9 155.6 C 87.3 156.4 88.3 156.9 89.3 156.9 C 90.2 156.9 91.2 156.3 91.2 155.4 C 91.2 153.1 86.3 154.7 86.3 151.5 C 86.3 149.9 87.7 149.1 89.1 149.1 C 90.4 149.1 91.5 149.7 92 150.7 C 92 150.7 91.1 151.3 91.1 151.3 C 90.6 150.5 90.1 150.1 89.1 150.1 C 88.3 150.1 87.3 150.6 87.3 151.5 C 87.3 153.7 92.3 152 92.3 155.3 C 92.3 157 90.8 157.9 89.3 157.9 C 87.8 157.9 86.6 157.4 85.9 156.2 C 85.9 156.2 86.9 155.6 86.9 155.6 Z M 103.3 150.3 L 100.9 150.3 C 100.9 150.3 100.88 155.75 100.9 155.8 C 100.9 156.5 101.3 156.9 102 156.9 C 102.5 156.9 102.9 156.8 103.3 156.6 C 103.3 156.6 103.4 157.6 103.4 157.6 C 103 157.8 102.4 157.9 101.9 157.9 C 100.4 157.9 99.8 156.9 99.8 155.8 C 99.8 155.75 99.8 150.3 99.8 150.3 L 98 150.3 L 98 149.4 L 99.8 149.4 L 99.8 147 L 100.9 147 L 100.9 149.4 L 103.3 149.4 L 103.3 150.3 Z M 105.2 144.1 L 106.3 144.1 L 106.3 150.8 C 106.3 150.8 106.31 150.82 106.3 150.8 C 106.7 149.9 107.8 149.1 109.2 149.1 C 111.7 149.1 112.3 150.9 112.3 152.7 C 112.32 152.73 112.3 157.7 112.3 157.7 L 111.2 157.7 C 111.2 157.7 111.24 152.78 111.2 152.8 C 111.2 151.4 110.9 150.1 109.2 150.1 C 107.6 150.1 106.3 151.2 106.3 153.5 C 106.27 153.52 106.3 157.7 106.3 157.7 L 105.2 157.7 L 105.2 144.1 Z M 122.4 156.1 C 121.6 157.4 120.3 157.9 118.8 157.9 C 116.3 157.9 114.6 156.1 114.6 153.5 C 114.6 151 116.4 149.1 118.8 149.1 C 121.3 149.1 122.7 151.1 122.7 153 C 122.7 153.04 122.7 153.8 122.7 153.8 C 122.7 153.8 115.71 153.79 115.7 153.8 C 115.7 154.7 116.3 156.9 118.9 156.9 C 120 156.9 121.1 156.3 121.7 155.4 C 121.7 155.4 122.4 156.1 122.4 156.1 Z M 121.6 152.8 C 121.6 151.3 120.3 150.1 118.7 150.1 C 116.4 150.1 115.7 152.4 115.7 152.8 C 115.7 152.8 121.6 152.8 121.6 152.8 Z M 129.8 155.6 C 130.3 156.4 131.2 156.9 132.2 156.9 C 133.2 156.9 134.1 156.3 134.1 155.4 C 134.1 153.1 129.2 154.7 129.2 151.5 C 129.2 149.9 130.7 149.1 132 149.1 C 133.4 149.1 134.4 149.7 135 150.7 C 135 150.7 134 151.3 134 151.3 C 133.6 150.5 133 150.1 132 150.1 C 131.3 150.1 130.3 150.6 130.3 151.5 C 130.3 153.7 135.2 152 135.2 155.3 C 135.2 157 133.8 157.9 132.2 157.9 C 130.8 157.9 129.5 157.4 128.9 156.2 C 128.9 156.2 129.8 155.6 129.8 155.6 Z M 137.5 149.4 L 138.6 149.4 L 138.6 157.7 L 137.5 157.7 L 137.5 149.4 Z M 138 145.3 C 138.5 145.3 138.8 145.6 138.8 146.1 C 138.8 146.5 138.5 146.9 138 146.9 C 137.6 146.9 137.2 146.5 137.2 146.1 C 137.2 145.6 137.6 145.3 138 145.3 Z M 141.5 151.7 C 141.5 151.1 141.4 149.8 141.4 149.4 C 141.4 149.4 142.5 149.4 142.5 149.4 C 142.5 150 142.5 150.7 142.5 150.8 C 142.5 150.8 142.6 150.8 142.6 150.8 C 143 149.9 144.1 149.1 145.4 149.1 C 146.5 149.1 147.5 149.7 147.9 150.9 C 148.5 149.7 149.6 149.1 150.8 149.1 C 153.3 149.1 153.9 150.9 153.9 152.7 C 153.92 152.73 153.9 157.7 153.9 157.7 L 152.8 157.7 C 152.8 157.7 152.84 152.78 152.8 152.8 C 152.8 151.4 152.5 150.1 150.8 150.1 C 148.8 150.1 148.2 151.8 148.2 153 C 148.24 153 148.2 157.7 148.2 157.7 L 147.2 157.7 C 147.2 157.7 147.16 152.68 147.2 152.7 C 147.2 151.1 146.6 150.1 145.4 150.1 C 143.8 150.1 142.5 151.2 142.5 153.5 C 142.55 153.52 142.5 157.7 142.5 157.7 L 141.5 157.7 C 141.5 157.7 141.47 151.7 141.5 151.7 Z M 156.6 149.4 L 157.7 149.4 L 157.7 150.8 C 157.7 150.8 157.74 150.82 157.7 150.8 C 158.4 149.7 159.8 149.1 161.1 149.1 C 163.6 149.1 165.4 151 165.4 153.5 C 165.4 156.1 163.6 157.9 161.1 157.9 C 159.8 157.9 158.4 157.4 157.7 156.2 C 157.74 156.22 157.7 156.2 157.7 156.2 L 157.7 161.8 L 156.6 161.8 L 156.6 149.4 Z M 161.1 156.9 C 163.1 156.9 164.4 155.4 164.4 153.5 C 164.4 151.6 163.1 150.1 161.1 150.1 C 159.1 150.1 157.6 151.6 157.6 153.5 C 157.6 155.4 159.1 156.9 161.1 156.9 Z M 167.9 144.1 L 169 144.1 L 169 157.7 L 167.9 157.7 L 167.9 144.1 Z M 179.2 156.1 C 178.4 157.4 177.1 157.9 175.6 157.9 C 173.1 157.9 171.4 156.1 171.4 153.5 C 171.4 151 173.2 149.1 175.6 149.1 C 178.1 149.1 179.5 151.1 179.5 153 C 179.49 153.04 179.5 153.8 179.5 153.8 C 179.5 153.8 172.51 153.79 172.5 153.8 C 172.5 154.7 173.1 156.9 175.7 156.9 C 176.8 156.9 177.9 156.3 178.4 155.4 C 178.4 155.4 179.2 156.1 179.2 156.1 Z M 178.4 152.8 C 178.4 151.3 177.1 150.1 175.5 150.1 C 173.2 150.1 172.5 152.4 172.5 152.8 C 172.5 152.8 178.4 152.8 178.4 152.8 Z M 182 155.6 C 182.4 156.4 183.4 156.9 184.4 156.9 C 185.3 156.9 186.3 156.3 186.3 155.4 C 186.3 153.1 181.4 154.7 181.4 151.5 C 181.4 149.9 182.9 149.1 184.2 149.1 C 185.6 149.1 186.6 149.7 187.2 150.7 C 187.2 150.7 186.2 151.3 186.2 151.3 C 185.8 150.5 185.2 150.1 184.2 150.1 C 183.5 150.1 182.5 150.6 182.5 151.5 C 182.5 153.7 187.4 152 187.4 155.3 C 187.4 157 186 157.9 184.4 157.9 C 183 157.9 181.7 157.4 181 156.2 C 181 156.2 182 155.6 182 155.6 Z M 193.9 150.3 L 191.6 150.3 C 191.6 150.3 191.56 155.75 191.6 155.8 C 191.6 156.5 192 156.9 192.7 156.9 C 193.1 156.9 193.6 156.8 193.9 156.6 C 193.9 156.6 194 157.6 194 157.6 C 193.6 157.8 193 157.9 192.6 157.9 C 191.1 157.9 190.5 156.9 190.5 155.8 C 190.48 155.75 190.5 150.3 190.5 150.3 L 188.7 150.3 L 188.7 149.4 L 190.5 149.4 L 190.5 147 L 191.6 147 L 191.6 149.4 L 193.9 149.4 L 193.9 150.3 Z " stroke="none" fill="#000"/>  </g>  <g id="Polygon47464">    <path d="M 1.4 127.7 C 1.4 127.1 1.3 125.8 1.3 125.4 C 1.3 125.4 2.4 125.4 2.4 125.4 C 2.4 126 2.5 126.7 2.5 126.8 C 3 125.8 3.9 125.1 5.1 125.1 C 5.4 125.1 5.6 125.2 5.8 125.2 C 5.8 125.2 5.7 126.3 5.7 126.3 C 5.5 126.2 5.3 126.2 5.2 126.2 C 3.4 126.2 2.5 127.5 2.5 129.1 C 2.52 129.14 2.5 133.7 2.5 133.7 L 1.4 133.7 C 1.4 133.7 1.44 127.7 1.4 127.7 Z M 14.5 132.1 C 13.7 133.4 12.4 133.9 10.9 133.9 C 8.4 133.9 6.7 132.1 6.7 129.5 C 6.7 127 8.4 125.1 10.9 125.1 C 13.4 125.1 14.8 127.1 14.8 129 C 14.78 129.04 14.8 129.8 14.8 129.8 C 14.8 129.8 7.8 129.79 7.8 129.8 C 7.8 130.7 8.4 132.9 10.9 132.9 C 12 132.9 13.2 132.3 13.7 131.4 C 13.7 131.4 14.5 132.1 14.5 132.1 Z M 13.7 128.8 C 13.7 127.3 12.4 126.1 10.8 126.1 C 8.5 126.1 7.8 128.4 7.8 128.8 C 7.8 128.8 13.7 128.8 13.7 128.8 Z M 24.1 132.5 C 23.3 133.4 22.2 133.9 21.1 133.9 C 18.5 133.9 16.7 132.1 16.7 129.5 C 16.7 127 18.5 125.1 21.1 125.1 C 22.3 125.1 23.3 125.7 24.2 126.6 C 24.2 126.6 23.3 127.2 23.3 127.2 C 22.7 126.6 21.9 126.1 21.1 126.1 C 19 126.1 17.8 127.6 17.8 129.5 C 17.8 131.4 19 132.9 21.1 132.9 C 22 132.9 22.7 132.5 23.3 131.8 C 23.3 131.8 24.1 132.5 24.1 132.5 Z M 29.7 125.1 C 32.2 125.1 34 127 34 129.5 C 34 132.1 32.2 133.9 29.7 133.9 C 27.1 133.9 25.3 132.1 25.3 129.5 C 25.3 127 27.1 125.1 29.7 125.1 Z M 29.7 132.9 C 31.7 132.9 32.9 131.4 32.9 129.5 C 32.9 127.6 31.7 126.1 29.7 126.1 C 27.6 126.1 26.4 127.6 26.4 129.5 C 26.4 131.4 27.6 132.9 29.7 132.9 Z M 36.4 127.7 C 36.4 127.1 36.3 125.8 36.3 125.4 C 36.3 125.4 37.3 125.4 37.3 125.4 C 37.4 126 37.4 126.7 37.4 126.8 C 37.4 126.8 37.5 126.8 37.5 126.8 C 37.9 125.9 39 125.1 40.3 125.1 C 42.9 125.1 43.5 126.9 43.5 128.7 C 43.48 128.73 43.5 133.7 43.5 133.7 L 42.4 133.7 C 42.4 133.7 42.4 128.78 42.4 128.8 C 42.4 127.4 42 126.1 40.3 126.1 C 38.7 126.1 37.4 127.2 37.4 129.5 C 37.43 129.52 37.4 133.7 37.4 133.7 L 36.4 133.7 C 36.4 133.7 36.35 127.7 36.4 127.7 Z M 46.4 131.6 C 46.8 132.4 47.8 132.9 48.8 132.9 C 49.7 132.9 50.7 132.3 50.7 131.4 C 50.7 129.1 45.8 130.7 45.8 127.5 C 45.8 125.9 47.2 125.1 48.6 125.1 C 50 125.1 51 125.7 51.5 126.7 C 51.5 126.7 50.6 127.3 50.6 127.3 C 50.2 126.5 49.6 126.1 48.6 126.1 C 47.8 126.1 46.8 126.6 46.8 127.5 C 46.8 129.7 51.8 128 51.8 131.3 C 51.8 133 50.4 133.9 48.8 133.9 C 47.4 133.9 46.1 133.4 45.4 132.2 C 45.4 132.2 46.4 131.6 46.4 131.6 Z M 58.3 126.3 L 55.9 126.3 C 55.9 126.3 55.95 131.75 55.9 131.8 C 55.9 132.5 56.4 132.9 57.1 132.9 C 57.5 132.9 57.9 132.8 58.3 132.6 C 58.3 132.6 58.4 133.6 58.4 133.6 C 58 133.8 57.4 133.9 57 133.9 C 55.5 133.9 54.9 132.9 54.9 131.8 C 54.87 131.75 54.9 126.3 54.9 126.3 L 53.1 126.3 L 53.1 125.4 L 54.9 125.4 L 54.9 123 L 55.9 123 L 55.9 125.4 L 58.3 125.4 L 58.3 126.3 Z M 60.3 127.7 C 60.3 127.1 60.2 125.8 60.2 125.4 C 60.2 125.4 61.2 125.4 61.2 125.4 C 61.3 126 61.3 126.7 61.3 126.8 C 61.9 125.8 62.7 125.1 64 125.1 C 64.2 125.1 64.4 125.2 64.6 125.2 C 64.6 125.2 64.5 126.3 64.5 126.3 C 64.3 126.2 64.2 126.2 64.1 126.2 C 62.2 126.2 61.3 127.5 61.3 129.1 C 61.33 129.14 61.3 133.7 61.3 133.7 L 60.3 133.7 C 60.3 133.7 60.25 127.7 60.3 127.7 Z M 73.4 131.3 C 73.4 132 73.5 133.2 73.5 133.7 C 73.5 133.7 72.4 133.7 72.4 133.7 C 72.4 133.1 72.4 132.4 72.4 132.2 C 72.4 132.2 72.3 132.2 72.3 132.2 C 71.9 133.1 70.8 133.9 69.5 133.9 C 66.9 133.9 66.3 132.1 66.3 130.3 C 66.29 130.31 66.3 125.4 66.3 125.4 L 67.4 125.4 C 67.4 125.4 67.37 130.26 67.4 130.3 C 67.4 131.6 67.7 132.9 69.5 132.9 C 71.1 132.9 72.3 131.8 72.3 129.5 C 72.34 129.52 72.3 125.4 72.3 125.4 L 73.4 125.4 C 73.4 125.4 73.42 131.34 73.4 131.3 Z M 83.2 132.5 C 82.4 133.4 81.4 133.9 80.2 133.9 C 77.6 133.9 75.8 132.1 75.8 129.5 C 75.8 127 77.6 125.1 80.2 125.1 C 81.4 125.1 82.5 125.7 83.3 126.6 C 83.3 126.6 82.4 127.2 82.4 127.2 C 81.8 126.6 81 126.1 80.2 126.1 C 78.1 126.1 76.9 127.6 76.9 129.5 C 76.9 131.4 78.1 132.9 80.2 132.9 C 81.1 132.9 81.8 132.5 82.4 131.8 C 82.4 131.8 83.2 132.5 83.2 132.5 Z M 89.7 126.3 L 87.3 126.3 C 87.3 126.3 87.29 131.75 87.3 131.8 C 87.3 132.5 87.7 132.9 88.4 132.9 C 88.9 132.9 89.3 132.8 89.7 132.6 C 89.7 132.6 89.8 133.6 89.8 133.6 C 89.4 133.8 88.8 133.9 88.4 133.9 C 86.8 133.9 86.2 132.9 86.2 131.8 C 86.21 131.75 86.2 126.3 86.2 126.3 L 84.4 126.3 L 84.4 125.4 L 86.2 125.4 L 86.2 123 L 87.3 123 L 87.3 125.4 L 89.7 125.4 L 89.7 126.3 Z M 91.7 125.4 L 92.8 125.4 L 92.8 133.7 L 91.7 133.7 L 91.7 125.4 Z M 92.2 121.3 C 92.7 121.3 93 121.6 93 122.1 C 93 122.5 92.7 122.9 92.2 122.9 C 91.8 122.9 91.4 122.5 91.4 122.1 C 91.4 121.6 91.8 121.3 92.2 121.3 Z M 99.5 125.1 C 102.1 125.1 103.9 127 103.9 129.5 C 103.9 132.1 102.1 133.9 99.5 133.9 C 97 133.9 95.1 132.1 95.1 129.5 C 95.1 127 97 125.1 99.5 125.1 Z M 99.5 132.9 C 101.6 132.9 102.8 131.4 102.8 129.5 C 102.8 127.6 101.6 126.1 99.5 126.1 C 97.5 126.1 96.2 127.6 96.2 129.5 C 96.2 131.4 97.5 132.9 99.5 132.9 Z M 106.2 127.7 C 106.2 127.1 106.1 125.8 106.1 125.4 C 106.1 125.4 107.2 125.4 107.2 125.4 C 107.2 126 107.2 126.7 107.3 126.8 C 107.3 126.8 107.3 126.8 107.3 126.8 C 107.8 125.9 108.8 125.1 110.2 125.1 C 112.8 125.1 113.4 126.9 113.4 128.7 C 113.35 128.73 113.4 133.7 113.4 133.7 L 112.3 133.7 C 112.3 133.7 112.27 128.78 112.3 128.8 C 112.3 127.4 111.9 126.1 110.2 126.1 C 108.6 126.1 107.3 127.2 107.3 129.5 C 107.3 129.52 107.3 133.7 107.3 133.7 L 106.2 133.7 C 106.2 133.7 106.22 127.7 106.2 127.7 Z M 123.9 121.1 C 122.4 123.1 121.6 126 121.6 128.5 C 121.6 131.3 122.5 133.6 123.9 135.9 C 123.9 135.9 123.1 136.5 123.1 136.5 C 121.4 134.2 120.5 131.2 120.5 128.5 C 120.5 125.7 121.4 122.7 123 120.5 C 123 120.5 123.9 121.1 123.9 121.1 Z M 125.7 120.9 L 127.5 120.9 L 132.1 131.6 L 136.8 120.9 L 138.5 120.9 L 138.5 133.7 L 137.3 133.7 L 137.3 122.4 L 137.2 122.4 L 132.4 133.7 L 131.9 133.7 L 126.9 122.4 L 126.9 122.4 L 126.9 133.7 L 125.7 133.7 L 125.7 120.9 Z M 141.7 120.9 C 141.7 120.9 145.35 120.94 145.3 120.9 C 147.1 120.9 149.5 121.6 149.5 124.3 C 149.5 126.6 147.6 127.6 145.6 127.6 C 145.62 127.63 142.9 127.6 142.9 127.6 L 142.9 133.7 L 141.7 133.7 L 141.7 120.9 Z M 142.9 126.6 C 142.9 126.6 145.56 126.55 145.6 126.6 C 146.9 126.6 148.3 126 148.3 124.3 C 148.3 122.7 146.9 122 145.5 122 C 145.49 122.02 142.9 122 142.9 122 L 142.9 126.6 Z M 152.8 126.6 C 152.8 126.6 155.3 126.55 155.3 126.6 C 157.8 126.6 158.3 125.2 158.3 124.3 C 158.3 123.4 157.8 122 155.3 122 C 155.3 122.02 152.8 122 152.8 122 L 152.8 126.6 Z M 151.6 120.9 C 151.6 120.9 154.94 120.94 154.9 120.9 C 155.9 120.9 159.5 120.9 159.5 124.3 C 159.5 126.7 157.6 127.4 156.2 127.6 C 156.21 127.56 159.9 133.7 159.9 133.7 L 158.6 133.7 L 155 127.6 L 152.8 127.6 L 152.8 133.7 L 151.6 133.7 L 151.6 120.9 Z M 160.6 135.9 C 162.1 133.9 162.9 131 162.9 128.5 C 162.9 125.7 162.1 123.4 160.6 121 C 160.6 121 161.4 120.5 161.4 120.5 C 163.1 122.8 164 125.8 164 128.5 C 164 131.3 163.1 134.3 161.5 136.5 C 161.5 136.5 160.6 135.9 160.6 135.9 Z " stroke="none" fill="#000"/>  </g>  <g id="Polygon47463">    <path d="M 1.5 107.6 C 1.9 108.4 2.9 108.9 3.9 108.9 C 4.8 108.9 5.8 108.3 5.8 107.4 C 5.8 105.1 0.8 106.7 0.8 103.5 C 0.8 101.9 2.3 101.1 3.7 101.1 C 5 101.1 6.1 101.7 6.6 102.7 C 6.6 102.7 5.7 103.3 5.7 103.3 C 5.2 102.5 4.7 102.1 3.7 102.1 C 2.9 102.1 1.9 102.6 1.9 103.5 C 1.9 105.7 6.9 104 6.9 107.3 C 6.9 109 5.4 109.9 3.9 109.9 C 2.4 109.9 1.2 109.4 0.5 108.2 C 0.5 108.2 1.5 107.6 1.5 107.6 Z M 16 108.5 C 15.2 109.4 14.2 109.9 13 109.9 C 10.4 109.9 8.6 108.1 8.6 105.5 C 8.6 103 10.4 101.1 13 101.1 C 14.2 101.1 15.3 101.7 16.1 102.6 C 16.1 102.6 15.2 103.2 15.2 103.2 C 14.6 102.6 13.8 102.1 13 102.1 C 11 102.1 9.7 103.6 9.7 105.5 C 9.7 107.4 11 108.9 13 108.9 C 13.9 108.9 14.7 108.5 15.2 107.8 C 15.2 107.8 16 108.5 16 108.5 Z M 24.4 106.2 C 24.4 107.8 24.5 108.7 24.6 109.7 C 24.6 109.7 23.6 109.7 23.6 109.7 C 23.5 109.3 23.5 108.8 23.5 108.3 C 23.5 108.3 23.4 108.3 23.4 108.3 C 22.8 109.4 21.9 109.9 20.5 109.9 C 19.1 109.9 17.6 109.2 17.6 107.4 C 17.6 104.9 20.6 104.6 22.2 104.6 C 22.19 104.64 23.5 104.6 23.5 104.6 C 23.5 104.6 23.45 104.14 23.5 104.1 C 23.5 102.7 22.4 102.1 21.1 102.1 C 20.1 102.1 19.3 102.4 18.6 103.1 C 18.6 103.1 17.9 102.3 17.9 102.3 C 18.7 101.6 20 101.1 21.1 101.1 C 23.1 101.1 24.4 102 24.4 104.2 C 24.4 104.2 24.4 106.2 24.4 106.2 Z M 22.3 105.5 C 20.5 105.5 18.7 106 18.7 107.4 C 18.7 108.4 19.7 108.9 20.6 108.9 C 22.9 108.9 23.5 107.4 23.5 106.1 C 23.45 106.06 23.5 105.5 23.5 105.5 C 23.5 105.5 22.26 105.5 22.3 105.5 Z M 27.2 103.7 C 27.2 103.1 27.1 101.8 27.1 101.4 C 27.1 101.4 28.2 101.4 28.2 101.4 C 28.2 102 28.3 102.7 28.3 102.8 C 28.3 102.8 28.3 102.8 28.3 102.8 C 28.8 101.9 29.8 101.1 31.2 101.1 C 33.8 101.1 34.4 102.9 34.4 104.7 C 34.36 104.73 34.4 109.7 34.4 109.7 L 33.3 109.7 C 33.3 109.7 33.28 104.78 33.3 104.8 C 33.3 103.4 32.9 102.1 31.2 102.1 C 29.6 102.1 28.3 103.2 28.3 105.5 C 28.31 105.52 28.3 109.7 28.3 109.7 L 27.2 109.7 C 27.2 109.7 27.23 103.7 27.2 103.7 Z M 37.5 108.1 L 38.8 108.1 L 37.4 112.2 L 36.3 112.2 L 37.5 108.1 Z M 50.3 102.3 L 47.9 102.3 C 47.9 102.3 47.93 107.75 47.9 107.8 C 47.9 108.5 48.4 108.9 49.1 108.9 C 49.5 108.9 49.9 108.8 50.3 108.6 C 50.3 108.6 50.4 109.6 50.4 109.6 C 50 109.8 49.4 109.9 49 109.9 C 47.4 109.9 46.8 108.9 46.8 107.8 C 46.85 107.75 46.8 102.3 46.8 102.3 L 45 102.3 L 45 101.4 L 46.8 101.4 L 46.8 99 L 47.9 99 L 47.9 101.4 L 50.3 101.4 L 50.3 102.3 Z M 52.2 96.1 L 53.3 96.1 L 53.3 102.8 C 53.3 102.8 53.35 102.82 53.4 102.8 C 53.8 101.9 54.8 101.1 56.2 101.1 C 58.8 101.1 59.4 102.9 59.4 104.7 C 59.37 104.73 59.4 109.7 59.4 109.7 L 58.3 109.7 C 58.3 109.7 58.29 104.78 58.3 104.8 C 58.3 103.4 57.9 102.1 56.2 102.1 C 54.6 102.1 53.3 103.2 53.3 105.5 C 53.32 105.52 53.3 109.7 53.3 109.7 L 52.2 109.7 L 52.2 96.1 Z M 69.5 108.1 C 68.6 109.4 67.4 109.9 65.9 109.9 C 63.4 109.9 61.7 108.1 61.7 105.5 C 61.7 103 63.4 101.1 65.8 101.1 C 68.4 101.1 69.7 103.1 69.7 105 C 69.74 105.04 69.7 105.8 69.7 105.8 C 69.7 105.8 62.76 105.79 62.8 105.8 C 62.8 106.7 63.4 108.9 65.9 108.9 C 67 108.9 68.2 108.3 68.7 107.4 C 68.7 107.4 69.5 108.1 69.5 108.1 Z M 68.7 104.8 C 68.7 103.3 67.4 102.1 65.8 102.1 C 63.4 102.1 62.8 104.4 62.8 104.8 C 62.8 104.8 68.7 104.8 68.7 104.8 Z M 76.8 103.7 C 76.8 103.1 76.7 101.8 76.7 101.4 C 76.7 101.4 77.8 101.4 77.8 101.4 C 77.8 102 77.9 102.7 77.9 102.8 C 77.9 102.8 77.9 102.8 77.9 102.8 C 78.4 101.9 79.4 101.1 80.8 101.1 C 81.9 101.1 82.9 101.7 83.3 102.9 C 83.8 101.7 85 101.1 86.1 101.1 C 88.7 101.1 89.3 102.9 89.3 104.7 C 89.29 104.73 89.3 109.7 89.3 109.7 L 88.2 109.7 C 88.2 109.7 88.21 104.78 88.2 104.8 C 88.2 103.4 87.8 102.1 86.1 102.1 C 84.1 102.1 83.6 103.8 83.6 105 C 83.6 105 83.6 109.7 83.6 109.7 L 82.5 109.7 C 82.5 109.7 82.52 104.68 82.5 104.7 C 82.5 103.1 82 102.1 80.8 102.1 C 79.2 102.1 77.9 103.2 77.9 105.5 C 77.91 105.52 77.9 109.7 77.9 109.7 L 76.8 109.7 C 76.8 109.7 76.83 103.7 76.8 103.7 Z M 99.1 107.3 C 99.1 108 99.2 109.2 99.2 109.7 C 99.2 109.7 98.1 109.7 98.1 109.7 C 98.1 109.1 98.1 108.4 98.1 108.2 C 98.1 108.2 98 108.2 98 108.2 C 97.6 109.1 96.5 109.9 95.2 109.9 C 92.6 109.9 92 108.1 92 106.3 C 92 106.31 92 101.4 92 101.4 L 93.1 101.4 C 93.1 101.4 93.08 106.26 93.1 106.3 C 93.1 107.6 93.5 108.9 95.2 108.9 C 96.8 108.9 98 107.8 98 105.5 C 98.05 105.52 98 101.4 98 101.4 L 99.1 101.4 C 99.1 101.4 99.13 107.34 99.1 107.3 Z M 102.1 96.1 L 103.2 96.1 L 103.2 109.7 L 102.1 109.7 L 102.1 96.1 Z M 110.3 102.3 L 107.9 102.3 C 107.9 102.3 107.89 107.75 107.9 107.8 C 107.9 108.5 108.3 108.9 109 108.9 C 109.5 108.9 109.9 108.8 110.3 108.6 C 110.3 108.6 110.4 109.6 110.4 109.6 C 110 109.8 109.4 109.9 109 109.9 C 107.4 109.9 106.8 108.9 106.8 107.8 C 106.81 107.75 106.8 102.3 106.8 102.3 L 105 102.3 L 105 101.4 L 106.8 101.4 L 106.8 99 L 107.9 99 L 107.9 101.4 L 110.3 101.4 L 110.3 102.3 Z M 112.3 101.4 L 113.4 101.4 L 113.4 109.7 L 112.3 109.7 L 112.3 101.4 Z M 112.8 97.3 C 113.3 97.3 113.6 97.6 113.6 98.1 C 113.6 98.5 113.3 98.9 112.8 98.9 C 112.4 98.9 112 98.5 112 98.1 C 112 97.6 112.4 97.3 112.8 97.3 Z M 115.7 104.9 L 120.2 104.9 L 120.2 105.9 L 115.7 105.9 L 115.7 104.9 Z M 122.4 101.4 L 123.4 101.4 L 123.4 102.8 C 123.4 102.8 123.48 102.82 123.5 102.8 C 124.1 101.7 125.6 101.1 126.8 101.1 C 129.4 101.1 131.2 103 131.2 105.5 C 131.2 108.1 129.4 109.9 126.8 109.9 C 125.6 109.9 124.1 109.4 123.5 108.2 C 123.48 108.22 123.4 108.2 123.4 108.2 L 123.4 113.8 L 122.4 113.8 L 122.4 101.4 Z M 126.8 108.9 C 128.8 108.9 130.1 107.4 130.1 105.5 C 130.1 103.6 128.8 102.1 126.8 102.1 C 124.8 102.1 123.3 103.6 123.3 105.5 C 123.3 107.4 124.8 108.9 126.8 108.9 Z M 133.6 96.1 L 134.7 96.1 L 134.7 109.7 L 133.6 109.7 L 133.6 96.1 Z M 144 106.2 C 144 107.8 144 108.7 144.1 109.7 C 144.1 109.7 143.1 109.7 143.1 109.7 C 143.1 109.3 143 108.8 143 108.3 C 143 108.3 143 108.3 143 108.3 C 142.4 109.4 141.5 109.9 140.1 109.9 C 138.6 109.9 137.1 109.2 137.1 107.4 C 137.1 104.9 140.1 104.6 141.7 104.6 C 141.74 104.64 143 104.6 143 104.6 C 143 104.6 143 104.14 143 104.1 C 143 102.7 142 102.1 140.7 102.1 C 139.7 102.1 138.9 102.4 138.1 103.1 C 138.1 103.1 137.5 102.3 137.5 102.3 C 138.3 101.6 139.6 101.1 140.7 101.1 C 142.7 101.1 144 102 144 104.2 C 144 104.2 144 106.2 144 106.2 Z M 141.8 105.5 C 140 105.5 138.2 106 138.2 107.4 C 138.2 108.4 139.2 108.9 140.1 108.9 C 142.4 108.9 143 107.4 143 106.1 C 143 106.06 143 105.5 143 105.5 C 143 105.5 141.81 105.5 141.8 105.5 Z M 146.8 103.7 C 146.8 103.1 146.7 101.8 146.7 101.4 C 146.7 101.4 147.8 101.4 147.8 101.4 C 147.8 102 147.8 102.7 147.8 102.8 C 147.8 102.8 147.9 102.8 147.9 102.8 C 148.3 101.9 149.4 101.1 150.7 101.1 C 153.3 101.1 153.9 102.9 153.9 104.7 C 153.9 104.73 153.9 109.7 153.9 109.7 L 152.8 109.7 C 152.8 109.7 152.82 104.78 152.8 104.8 C 152.8 103.4 152.4 102.1 150.7 102.1 C 149.1 102.1 147.9 103.2 147.9 105.5 C 147.86 105.52 147.9 109.7 147.9 109.7 L 146.8 109.7 C 146.8 109.7 146.78 103.7 146.8 103.7 Z M 163 106.2 C 163 107.8 163.1 108.7 163.2 109.7 C 163.2 109.7 162.2 109.7 162.2 109.7 C 162.1 109.3 162.1 108.8 162.1 108.3 C 162.1 108.3 162 108.3 162 108.3 C 161.4 109.4 160.5 109.9 159.1 109.9 C 157.7 109.9 156.2 109.2 156.2 107.4 C 156.2 104.9 159.2 104.6 160.8 104.6 C 160.8 104.64 162.1 104.6 162.1 104.6 C 162.1 104.6 162.06 104.14 162.1 104.1 C 162.1 102.7 161.1 102.1 159.7 102.1 C 158.8 102.1 157.9 102.4 157.2 103.1 C 157.2 103.1 156.6 102.3 156.6 102.3 C 157.3 101.6 158.6 101.1 159.7 101.1 C 161.7 101.1 163 102 163 104.2 C 163 104.2 163 106.2 163 106.2 Z M 160.9 105.5 C 159.1 105.5 157.3 106 157.3 107.4 C 157.3 108.4 158.3 108.9 159.2 108.9 C 161.5 108.9 162.1 107.4 162.1 106.1 C 162.06 106.06 162.1 105.5 162.1 105.5 C 162.1 105.5 160.88 105.5 160.9 105.5 Z M 165.8 103.7 C 165.8 103.1 165.8 101.8 165.8 101.4 C 165.8 101.4 166.8 101.4 166.8 101.4 C 166.8 102 166.9 102.7 166.9 102.8 C 167.4 101.8 168.3 101.1 169.5 101.1 C 169.8 101.1 170 101.2 170.2 101.2 C 170.2 101.2 170.1 102.3 170.1 102.3 C 169.9 102.2 169.7 102.2 169.6 102.2 C 167.8 102.2 166.9 103.5 166.9 105.1 C 166.92 105.14 166.9 109.7 166.9 109.7 L 165.8 109.7 C 165.8 109.7 165.84 103.7 165.8 103.7 Z " stroke="none" fill="#000"/>  </g>  <g id="Polygon47462">    <path d="M 5.3 77.1 C 7.9 77.1 9.7 79 9.7 81.5 C 9.7 84.1 7.9 85.9 5.3 85.9 C 2.8 85.9 1 84.1 1 81.5 C 1 79 2.8 77.1 5.3 77.1 Z M 5.3 84.9 C 7.4 84.9 8.6 83.4 8.6 81.5 C 8.6 79.6 7.4 78.1 5.3 78.1 C 3.3 78.1 2.1 79.6 2.1 81.5 C 2.1 83.4 3.3 84.9 5.3 84.9 Z M 11.9 72.1 L 13 72.1 L 13 78.8 C 13 78.8 13.06 78.82 13.1 78.8 C 13.7 77.7 15.2 77.1 16.4 77.1 C 19 77.1 20.8 79 20.8 81.5 C 20.8 84.1 19 85.9 16.4 85.9 C 15.2 85.9 13.7 85.4 13.1 84.2 C 13.06 84.22 13 84.2 13 84.2 L 13 85.7 L 11.9 85.7 L 11.9 72.1 Z M 16.4 84.9 C 18.4 84.9 19.7 83.4 19.7 81.5 C 19.7 79.6 18.4 78.1 16.4 78.1 C 14.4 78.1 12.9 79.6 12.9 81.5 C 12.9 83.4 14.4 84.9 16.4 84.9 Z M 27 78.3 L 24.7 78.3 C 24.7 78.3 24.65 83.75 24.7 83.8 C 24.7 84.5 25.1 84.9 25.8 84.9 C 26.2 84.9 26.6 84.8 27 84.6 C 27 84.6 27.1 85.6 27.1 85.6 C 26.7 85.8 26.1 85.9 25.7 85.9 C 24.2 85.9 23.6 84.9 23.6 83.8 C 23.57 83.75 23.6 78.3 23.6 78.3 L 21.8 78.3 L 21.8 77.4 L 23.6 77.4 L 23.6 75 L 24.7 75 L 24.7 77.4 L 27 77.4 L 27 78.3 Z M 35.5 82.2 C 35.5 83.8 35.5 84.7 35.6 85.7 C 35.6 85.7 34.6 85.7 34.6 85.7 C 34.5 85.3 34.5 84.8 34.5 84.3 C 34.5 84.3 34.5 84.3 34.5 84.3 C 33.9 85.4 33 85.9 31.6 85.9 C 30.1 85.9 28.6 85.2 28.6 83.4 C 28.6 80.9 31.6 80.6 33.2 80.6 C 33.23 80.64 34.5 80.6 34.5 80.6 C 34.5 80.6 34.49 80.14 34.5 80.1 C 34.5 78.7 33.5 78.1 32.2 78.1 C 31.2 78.1 30.4 78.4 29.6 79.1 C 29.6 79.1 29 78.3 29 78.3 C 29.8 77.6 31.1 77.1 32.2 77.1 C 34.2 77.1 35.5 78 35.5 80.2 C 35.5 80.2 35.5 82.2 35.5 82.2 Z M 33.3 81.5 C 31.5 81.5 29.7 82 29.7 83.4 C 29.7 84.4 30.7 84.9 31.6 84.9 C 33.9 84.9 34.5 83.4 34.5 82.1 C 34.49 82.06 34.5 81.5 34.5 81.5 C 34.5 81.5 33.31 81.5 33.3 81.5 Z M 38.3 77.4 L 39.4 77.4 L 39.4 85.7 L 38.3 85.7 L 38.3 77.4 Z M 38.9 73.3 C 39.3 73.3 39.7 73.6 39.7 74.1 C 39.7 74.5 39.3 74.9 38.9 74.9 C 38.4 74.9 38.1 74.5 38.1 74.1 C 38.1 73.6 38.4 73.3 38.9 73.3 Z M 42.3 79.7 C 42.3 79.1 42.2 77.8 42.2 77.4 C 42.2 77.4 43.3 77.4 43.3 77.4 C 43.3 78 43.4 78.7 43.4 78.8 C 43.4 78.8 43.5 78.8 43.5 78.8 C 43.9 77.9 44.9 77.1 46.3 77.1 C 48.9 77.1 49.5 78.9 49.5 80.7 C 49.46 80.73 49.5 85.7 49.5 85.7 L 48.4 85.7 C 48.4 85.7 48.38 80.78 48.4 80.8 C 48.4 79.4 48 78.1 46.3 78.1 C 44.7 78.1 43.4 79.2 43.4 81.5 C 43.42 81.52 43.4 85.7 43.4 85.7 L 42.3 85.7 C 42.3 85.7 42.34 79.7 42.3 79.7 Z M 59.6 84.1 C 58.7 85.4 57.5 85.9 56 85.9 C 53.5 85.9 51.8 84.1 51.8 81.5 C 51.8 79 53.5 77.1 55.9 77.1 C 58.5 77.1 59.8 79.1 59.8 81 C 59.84 81.04 59.8 81.8 59.8 81.8 C 59.8 81.8 52.86 81.79 52.9 81.8 C 52.9 82.7 53.5 84.9 56 84.9 C 57.1 84.9 58.3 84.3 58.8 83.4 C 58.8 83.4 59.6 84.1 59.6 84.1 Z M 58.8 80.8 C 58.8 79.3 57.5 78.1 55.9 78.1 C 53.5 78.1 52.9 80.4 52.9 80.8 C 52.9 80.8 58.8 80.8 58.8 80.8 Z M 69.5 84.2 C 69.5 84.2 69.45 84.22 69.4 84.2 C 68.8 85.4 67.4 85.9 66.1 85.9 C 63.6 85.9 61.7 84.1 61.7 81.5 C 61.7 79 63.6 77.1 66.1 77.1 C 67.4 77.1 68.8 77.7 69.4 78.8 C 69.45 78.82 69.5 78.8 69.5 78.8 L 69.5 72.1 L 70.6 72.1 L 70.6 85.7 L 69.5 85.7 L 69.5 84.2 Z M 66.1 78.1 C 64.1 78.1 62.8 79.6 62.8 81.5 C 62.8 83.4 64.1 84.9 66.1 84.9 C 68.1 84.9 69.6 83.4 69.6 81.5 C 69.6 79.6 68.1 78.1 66.1 78.1 Z M 85.2 84.2 C 85.2 84.2 85.13 84.22 85.1 84.2 C 84.5 85.4 83 85.9 81.8 85.9 C 79.2 85.9 77.4 84.1 77.4 81.5 C 77.4 79 79.2 77.1 81.8 77.1 C 83 77.1 84.5 77.7 85.1 78.8 C 85.13 78.82 85.2 78.8 85.2 78.8 L 85.2 72.1 L 86.2 72.1 L 86.2 85.7 L 85.2 85.7 L 85.2 84.2 Z M 81.8 78.1 C 79.8 78.1 78.5 79.6 78.5 81.5 C 78.5 83.4 79.8 84.9 81.8 84.9 C 83.8 84.9 85.3 83.4 85.3 81.5 C 85.3 79.6 83.8 78.1 81.8 78.1 Z M 96 83.3 C 96 84 96.1 85.2 96.1 85.7 C 96.1 85.7 95 85.7 95 85.7 C 95 85.1 95 84.4 94.9 84.2 C 94.9 84.2 94.9 84.2 94.9 84.2 C 94.4 85.1 93.4 85.9 92 85.9 C 89.4 85.9 88.9 84.1 88.9 82.3 C 88.87 82.31 88.9 77.4 88.9 77.4 L 89.9 77.4 C 89.9 77.4 89.95 82.26 89.9 82.3 C 89.9 83.6 90.3 84.9 92 84.9 C 93.6 84.9 94.9 83.8 94.9 81.5 C 94.92 81.52 94.9 77.4 94.9 77.4 L 96 77.4 C 96 77.4 96 83.34 96 83.3 Z M 98.9 79.7 C 98.9 79.1 98.8 77.8 98.8 77.4 C 98.8 77.4 99.9 77.4 99.9 77.4 C 99.9 78 99.9 78.7 99.9 78.8 C 100.5 77.8 101.3 77.1 102.6 77.1 C 102.8 77.1 103 77.2 103.2 77.2 C 103.2 77.2 103.1 78.3 103.1 78.3 C 102.9 78.2 102.8 78.2 102.7 78.2 C 100.8 78.2 99.9 79.5 99.9 81.1 C 99.95 81.14 99.9 85.7 99.9 85.7 L 98.9 85.7 C 98.9 85.7 98.87 79.7 98.9 79.7 Z M 105 77.4 L 106.1 77.4 L 106.1 85.7 L 105 85.7 L 105 77.4 Z M 105.6 73.3 C 106 73.3 106.4 73.6 106.4 74.1 C 106.4 74.5 106 74.9 105.6 74.9 C 105.1 74.9 104.8 74.5 104.8 74.1 C 104.8 73.6 105.1 73.3 105.6 73.3 Z M 109 79.7 C 109 79.1 108.9 77.8 108.9 77.4 C 108.9 77.4 110 77.4 110 77.4 C 110 78 110.1 78.7 110.1 78.8 C 110.1 78.8 110.1 78.8 110.1 78.8 C 110.6 77.9 111.6 77.1 113 77.1 C 115.6 77.1 116.2 78.9 116.2 80.7 C 116.16 80.73 116.2 85.7 116.2 85.7 L 115.1 85.7 C 115.1 85.7 115.08 80.78 115.1 80.8 C 115.1 79.4 114.7 78.1 113 78.1 C 111.4 78.1 110.1 79.2 110.1 81.5 C 110.11 81.52 110.1 85.7 110.1 85.7 L 109 85.7 C 109 85.7 109.03 79.7 109 79.7 Z M 127.2 85.1 C 127.2 89.3 124.5 90 122.8 90 C 121.1 90 119.5 89.4 118.7 88.3 C 118.7 88.3 119.5 87.5 119.5 87.5 C 120.3 88.5 121.5 89 122.8 89 C 126.1 89 126.1 86.1 126.1 85.2 C 126.13 85.21 126.1 84.1 126.1 84.1 C 126.1 84.1 126.09 84.06 126.1 84.1 C 125.5 85 124.4 85.7 122.9 85.7 C 120.5 85.7 118.5 83.8 118.5 81.4 C 118.5 79.1 120.5 77.1 122.9 77.1 C 124.4 77.1 125.5 77.8 126.1 78.8 C 126.09 78.77 126.1 78.8 126.1 78.8 L 126.1 77.4 L 127.2 77.4 C 127.2 77.4 127.21 85.14 127.2 85.1 Z M 122.9 78.1 C 121.1 78.1 119.6 79.6 119.6 81.4 C 119.6 83.2 121.1 84.7 122.9 84.7 C 124.7 84.7 126.2 83.2 126.2 81.4 C 126.2 79.6 124.7 78.1 122.9 78.1 Z M 138.6 78.3 L 136.2 78.3 C 136.2 78.3 136.23 83.75 136.2 83.8 C 136.2 84.5 136.7 84.9 137.4 84.9 C 137.8 84.9 138.2 84.8 138.6 84.6 C 138.6 84.6 138.7 85.6 138.7 85.6 C 138.3 85.8 137.7 85.9 137.3 85.9 C 135.7 85.9 135.1 84.9 135.1 83.8 C 135.15 83.75 135.1 78.3 135.1 78.3 L 133.3 78.3 L 133.3 77.4 L 135.1 77.4 L 135.1 75 L 136.2 75 L 136.2 77.4 L 138.6 77.4 L 138.6 78.3 Z M 140.5 72.1 L 141.6 72.1 L 141.6 78.8 C 141.6 78.8 141.65 78.82 141.7 78.8 C 142.1 77.9 143.1 77.1 144.5 77.1 C 147.1 77.1 147.7 78.9 147.7 80.7 C 147.66 80.73 147.7 85.7 147.7 85.7 L 146.6 85.7 C 146.6 85.7 146.58 80.78 146.6 80.8 C 146.6 79.4 146.2 78.1 144.5 78.1 C 142.9 78.1 141.6 79.2 141.6 81.5 C 141.62 81.52 141.6 85.7 141.6 85.7 L 140.5 85.7 L 140.5 72.1 Z M 157.8 84.1 C 156.9 85.4 155.7 85.9 154.2 85.9 C 151.7 85.9 150 84.1 150 81.5 C 150 79 151.7 77.1 154.1 77.1 C 156.7 77.1 158 79.1 158 81 C 158.04 81.04 158 81.8 158 81.8 C 158 81.8 151.06 81.79 151.1 81.8 C 151.1 82.7 151.7 84.9 154.2 84.9 C 155.3 84.9 156.5 84.3 157 83.4 C 157 83.4 157.8 84.1 157.8 84.1 Z M 157 80.8 C 157 79.3 155.7 78.1 154.1 78.1 C 151.7 78.1 151.1 80.4 151.1 80.8 C 151.1 80.8 157 80.8 157 80.8 Z " stroke="none" fill="#000"/>  </g>  <g id="Polygon47461">    <path d="M 1.2 48.1 L 2.3 48.1 L 2.3 54.8 C 2.3 54.8 2.32 54.82 2.3 54.8 C 3 53.7 4.4 53.1 5.7 53.1 C 8.2 53.1 10 55 10 57.5 C 10 60.1 8.2 61.9 5.7 61.9 C 4.4 61.9 3 61.4 2.3 60.2 C 2.32 60.22 2.3 60.2 2.3 60.2 L 2.3 61.7 L 1.2 61.7 L 1.2 48.1 Z M 5.7 60.9 C 7.7 60.9 8.9 59.4 8.9 57.5 C 8.9 55.6 7.7 54.1 5.7 54.1 C 3.7 54.1 2.2 55.6 2.2 57.5 C 2.2 59.4 3.7 60.9 5.7 60.9 Z M 14.5 64.3 C 14.1 65.3 13.4 66 12.2 66 C 11.9 66 11.5 65.9 11.2 65.8 C 11.2 65.8 11.3 64.8 11.3 64.8 C 11.6 64.9 11.9 65 12.3 65 C 13 65 13.4 64.3 13.6 63.6 C 13.64 63.64 14.4 61.7 14.4 61.7 L 11 53.4 L 12.2 53.4 L 15 60.4 L 17.7 53.4 L 18.8 53.4 C 18.8 53.4 14.52 64.25 14.5 64.3 Z M 25.2 59.6 C 25.7 60.4 26.7 60.9 27.6 60.9 C 28.6 60.9 29.5 60.3 29.5 59.4 C 29.5 57.1 24.6 58.7 24.6 55.5 C 24.6 53.9 26.1 53.1 27.4 53.1 C 28.8 53.1 29.8 53.7 30.4 54.7 C 30.4 54.7 29.4 55.3 29.4 55.3 C 29 54.5 28.4 54.1 27.4 54.1 C 26.7 54.1 25.7 54.6 25.7 55.5 C 25.7 57.7 30.6 56 30.6 59.3 C 30.6 61 29.2 61.9 27.6 61.9 C 26.2 61.9 24.9 61.4 24.3 60.2 C 24.3 60.2 25.2 59.6 25.2 59.6 Z M 37.2 54.3 L 34.8 54.3 C 34.8 54.3 34.78 59.75 34.8 59.8 C 34.8 60.5 35.2 60.9 35.9 60.9 C 36.3 60.9 36.8 60.8 37.2 60.6 C 37.2 60.6 37.2 61.6 37.2 61.6 C 36.8 61.8 36.3 61.9 35.8 61.9 C 34.3 61.9 33.7 60.9 33.7 59.8 C 33.7 59.75 33.7 54.3 33.7 54.3 L 31.9 54.3 L 31.9 53.4 L 33.7 53.4 L 33.7 51 L 34.8 51 L 34.8 53.4 L 37.2 53.4 L 37.2 54.3 Z M 45.6 58.2 C 45.6 59.8 45.6 60.7 45.8 61.7 C 45.8 61.7 44.7 61.7 44.7 61.7 C 44.7 61.3 44.6 60.8 44.6 60.3 C 44.6 60.3 44.6 60.3 44.6 60.3 C 44 61.4 43.1 61.9 41.7 61.9 C 40.3 61.9 38.8 61.2 38.8 59.4 C 38.8 56.9 41.7 56.6 43.4 56.6 C 43.36 56.64 44.6 56.6 44.6 56.6 C 44.6 56.6 44.62 56.14 44.6 56.1 C 44.6 54.7 43.6 54.1 42.3 54.1 C 41.3 54.1 40.5 54.4 39.7 55.1 C 39.7 55.1 39.1 54.3 39.1 54.3 C 39.9 53.6 41.2 53.1 42.3 53.1 C 44.3 53.1 45.6 54 45.6 56.2 C 45.6 56.2 45.6 58.2 45.6 58.2 Z M 43.4 57.5 C 41.6 57.5 39.8 58 39.8 59.4 C 39.8 60.4 40.8 60.9 41.7 60.9 C 44 60.9 44.6 59.4 44.6 58.1 C 44.62 58.06 44.6 57.5 44.6 57.5 C 44.6 57.5 43.44 57.5 43.4 57.5 Z M 55.3 60.5 C 54.5 61.4 53.5 61.9 52.3 61.9 C 49.7 61.9 47.9 60.1 47.9 57.5 C 47.9 55 49.7 53.1 52.3 53.1 C 53.5 53.1 54.5 53.7 55.4 54.6 C 55.4 54.6 54.5 55.2 54.5 55.2 C 53.9 54.6 53.1 54.1 52.3 54.1 C 50.2 54.1 49 55.6 49 57.5 C 49 59.4 50.2 60.9 52.3 60.9 C 53.2 60.9 53.9 60.5 54.5 59.8 C 54.5 59.8 55.3 60.5 55.3 60.5 Z M 57.1 48.1 L 58.2 48.1 L 58.2 57.1 L 62.3 53.4 L 63.9 53.4 L 59.6 57.2 L 64.4 61.7 L 62.8 61.7 L 58.2 57.3 L 58.2 61.7 L 57.1 61.7 L 57.1 48.1 Z M 66.1 53.4 L 67.2 53.4 L 67.2 61.7 L 66.1 61.7 L 66.1 53.4 Z M 66.6 49.3 C 67.1 49.3 67.5 49.6 67.5 50.1 C 67.5 50.5 67.1 50.9 66.6 50.9 C 66.2 50.9 65.8 50.5 65.8 50.1 C 65.8 49.6 66.2 49.3 66.6 49.3 Z M 70.1 55.7 C 70.1 55.1 70 53.8 70 53.4 C 70 53.4 71.1 53.4 71.1 53.4 C 71.1 54 71.1 54.7 71.2 54.8 C 71.2 54.8 71.2 54.8 71.2 54.8 C 71.6 53.9 72.7 53.1 74.1 53.1 C 76.6 53.1 77.2 54.9 77.2 56.7 C 77.22 56.73 77.2 61.7 77.2 61.7 L 76.1 61.7 C 76.1 61.7 76.14 56.78 76.1 56.8 C 76.1 55.4 75.8 54.1 74.1 54.1 C 72.5 54.1 71.2 55.2 71.2 57.5 C 71.18 57.52 71.2 61.7 71.2 61.7 L 70.1 61.7 C 70.1 61.7 70.1 55.7 70.1 55.7 Z M 88.3 61.1 C 88.3 65.3 85.5 66 83.8 66 C 82.2 66 80.6 65.4 79.7 64.3 C 79.7 64.3 80.6 63.5 80.6 63.5 C 81.3 64.5 82.5 65 83.8 65 C 87.1 65 87.2 62.1 87.2 61.2 C 87.19 61.21 87.2 60.1 87.2 60.1 C 87.2 60.1 87.16 60.06 87.2 60.1 C 86.5 61 85.4 61.7 84 61.7 C 81.6 61.7 79.6 59.8 79.6 57.4 C 79.6 55.1 81.6 53.1 84 53.1 C 85.4 53.1 86.5 53.8 87.2 54.8 C 87.16 54.77 87.2 54.8 87.2 54.8 L 87.2 53.4 L 88.3 53.4 C 88.3 53.4 88.27 61.14 88.3 61.1 Z M 83.9 54.1 C 82.1 54.1 80.6 55.6 80.6 57.4 C 80.6 59.2 82.1 60.7 83.9 60.7 C 85.8 60.7 87.2 59.2 87.2 57.4 C 87.2 55.6 85.8 54.1 83.9 54.1 Z M 99.7 54.3 L 97.3 54.3 C 97.3 54.3 97.29 59.75 97.3 59.8 C 97.3 60.5 97.7 60.9 98.4 60.9 C 98.9 60.9 99.3 60.8 99.7 60.6 C 99.7 60.6 99.8 61.6 99.8 61.6 C 99.4 61.8 98.8 61.9 98.4 61.9 C 96.8 61.9 96.2 60.9 96.2 59.8 C 96.21 59.75 96.2 54.3 96.2 54.3 L 94.4 54.3 L 94.4 53.4 L 96.2 53.4 L 96.2 51 L 97.3 51 L 97.3 53.4 L 99.7 53.4 L 99.7 54.3 Z M 101.6 48.1 L 102.7 48.1 L 102.7 54.8 C 102.7 54.8 102.72 54.82 102.7 54.8 C 103.1 53.9 104.2 53.1 105.6 53.1 C 108.2 53.1 108.7 54.9 108.7 56.7 C 108.73 56.73 108.7 61.7 108.7 61.7 L 107.6 61.7 C 107.6 61.7 107.65 56.78 107.6 56.8 C 107.6 55.4 107.3 54.1 105.6 54.1 C 104 54.1 102.7 55.2 102.7 57.5 C 102.68 57.52 102.7 61.7 102.7 61.7 L 101.6 61.7 L 101.6 48.1 Z M 118.9 60.1 C 118 61.4 116.7 61.9 115.3 61.9 C 112.7 61.9 111 60.1 111 57.5 C 111 55 112.8 53.1 115.2 53.1 C 117.8 53.1 119.1 55.1 119.1 57 C 119.1 57.04 119.1 57.8 119.1 57.8 C 119.1 57.8 112.12 57.79 112.1 57.8 C 112.1 58.7 112.8 60.9 115.3 60.9 C 116.4 60.9 117.5 60.3 118.1 59.4 C 118.1 59.4 118.9 60.1 118.9 60.1 Z M 118 56.8 C 118 55.3 116.7 54.1 115.1 54.1 C 112.8 54.1 112.1 56.4 112.1 56.8 C 112.1 56.8 118 56.8 118 56.8 Z M 126.2 59.6 C 126.7 60.4 127.7 60.9 128.6 60.9 C 129.6 60.9 130.5 60.3 130.5 59.4 C 130.5 57.1 125.6 58.7 125.6 55.5 C 125.6 53.9 127.1 53.1 128.4 53.1 C 129.8 53.1 130.8 53.7 131.4 54.7 C 131.4 54.7 130.4 55.3 130.4 55.3 C 130 54.5 129.4 54.1 128.4 54.1 C 127.7 54.1 126.7 54.6 126.7 55.5 C 126.7 57.7 131.6 56 131.6 59.3 C 131.6 61 130.2 61.9 128.6 61.9 C 127.2 61.9 125.9 61.4 125.3 60.2 C 125.3 60.2 126.2 59.6 126.2 59.6 Z M 133.9 48.1 L 135 48.1 L 135 61.7 L 133.9 61.7 L 133.9 48.1 Z M 138 53.4 L 139.1 53.4 L 139.1 61.7 L 138 61.7 L 138 53.4 Z M 138.6 49.3 C 139 49.3 139.4 49.6 139.4 50.1 C 139.4 50.5 139 50.9 138.6 50.9 C 138.1 50.9 137.7 50.5 137.7 50.1 C 137.7 49.6 138.1 49.3 138.6 49.3 Z M 148.9 60.5 C 148.1 61.4 147 61.9 145.9 61.9 C 143.3 61.9 141.5 60.1 141.5 57.5 C 141.5 55 143.3 53.1 145.9 53.1 C 147.1 53.1 148.1 53.7 148.9 54.6 C 148.9 54.6 148.1 55.2 148.1 55.2 C 147.5 54.6 146.7 54.1 145.9 54.1 C 143.8 54.1 142.6 55.6 142.6 57.5 C 142.6 59.4 143.8 60.9 145.9 60.9 C 146.8 60.9 147.5 60.5 148.1 59.8 C 148.1 59.8 148.9 60.5 148.9 60.5 Z M 157.9 60.1 C 157.1 61.4 155.8 61.9 154.3 61.9 C 151.8 61.9 150.1 60.1 150.1 57.5 C 150.1 55 151.8 53.1 154.2 53.1 C 156.8 53.1 158.1 55.1 158.1 57 C 158.15 57.04 158.1 57.8 158.1 57.8 C 158.1 57.8 151.17 57.79 151.2 57.8 C 151.2 58.7 151.8 60.9 154.3 60.9 C 155.4 60.9 156.6 60.3 157.1 59.4 C 157.1 59.4 157.9 60.1 157.9 60.1 Z M 157.1 56.8 C 157.1 55.3 155.8 54.1 154.2 54.1 C 151.8 54.1 151.2 56.4 151.2 56.8 C 151.2 56.8 157.1 56.8 157.1 56.8 Z M 160.6 59.6 C 161.1 60.4 162.1 60.9 163.1 60.9 C 164 60.9 165 60.3 165 59.4 C 165 57.1 160 58.7 160 55.5 C 160 53.9 161.5 53.1 162.9 53.1 C 164.2 53.1 165.3 53.7 165.8 54.7 C 165.8 54.7 164.8 55.3 164.8 55.3 C 164.4 54.5 163.9 54.1 162.9 54.1 C 162.1 54.1 161.1 54.6 161.1 55.5 C 161.1 57.7 166 56 166 59.3 C 166 61 164.6 61.9 163 61.9 C 161.6 61.9 160.3 61.4 159.7 60.2 C 159.7 60.2 160.6 59.6 160.6 59.6 Z " stroke="none" fill="#000"/>  </g>  <g id="Polygon47460">    <path d="M 0.1 24.9 L 1.3 24.9 L 4.5 36.2 L 4.5 36.2 L 7.7 24.9 L 9.3 24.9 L 12.5 36.2 L 12.5 36.2 L 15.7 24.9 L 16.9 24.9 L 13.2 37.7 L 11.7 37.7 L 8.5 26.3 L 8.5 26.3 L 5.3 37.7 L 3.8 37.7 L 0.1 24.9 Z M 18.6 24.1 L 19.7 24.1 L 19.7 30.8 C 19.7 30.8 19.71 30.82 19.7 30.8 C 20.1 29.9 21.2 29.1 22.6 29.1 C 25.1 29.1 25.7 30.9 25.7 32.7 C 25.72 32.73 25.7 37.7 25.7 37.7 L 24.6 37.7 C 24.6 37.7 24.64 32.78 24.6 32.8 C 24.6 31.4 24.3 30.1 22.6 30.1 C 21 30.1 19.7 31.2 19.7 33.5 C 19.67 33.52 19.7 37.7 19.7 37.7 L 18.6 37.7 L 18.6 24.1 Z M 35.8 36.1 C 35 37.4 33.7 37.9 32.2 37.9 C 29.7 37.9 28 36.1 28 33.5 C 28 31 29.8 29.1 32.2 29.1 C 34.7 29.1 36.1 31.1 36.1 33 C 36.1 33.04 36.1 33.8 36.1 33.8 C 36.1 33.8 29.11 33.79 29.1 33.8 C 29.1 34.7 29.7 36.9 32.3 36.9 C 33.4 36.9 34.5 36.3 35.1 35.4 C 35.1 35.4 35.8 36.1 35.8 36.1 Z M 35 32.8 C 35 31.3 33.7 30.1 32.1 30.1 C 29.8 30.1 29.1 32.4 29.1 32.8 C 29.1 32.8 35 32.8 35 32.8 Z M 38.5 31.7 C 38.5 31.1 38.4 29.8 38.4 29.4 C 38.4 29.4 39.4 29.4 39.4 29.4 C 39.5 30 39.5 30.7 39.5 30.8 C 39.5 30.8 39.6 30.8 39.6 30.8 C 40 29.9 41.1 29.1 42.4 29.1 C 45 29.1 45.6 30.9 45.6 32.7 C 45.58 32.73 45.6 37.7 45.6 37.7 L 44.5 37.7 C 44.5 37.7 44.5 32.78 44.5 32.8 C 44.5 31.4 44.1 30.1 42.4 30.1 C 40.8 30.1 39.5 31.2 39.5 33.5 C 39.54 33.52 39.5 37.7 39.5 37.7 L 38.5 37.7 C 38.5 37.7 38.46 31.7 38.5 31.7 Z M 59.6 34.2 C 59.6 35.8 59.6 36.7 59.8 37.7 C 59.8 37.7 58.8 37.7 58.8 37.7 C 58.7 37.3 58.7 36.8 58.7 36.3 C 58.7 36.3 58.6 36.3 58.6 36.3 C 58 37.4 57.1 37.9 55.7 37.9 C 54.3 37.9 52.8 37.2 52.8 35.4 C 52.8 32.9 55.7 32.6 57.4 32.6 C 57.37 32.64 58.6 32.6 58.6 32.6 C 58.6 32.6 58.63 32.14 58.6 32.1 C 58.6 30.7 57.6 30.1 56.3 30.1 C 55.3 30.1 54.5 30.4 53.8 31.1 C 53.8 31.1 53.1 30.3 53.1 30.3 C 53.9 29.6 55.2 29.1 56.3 29.1 C 58.3 29.1 59.6 30 59.6 32.2 C 59.6 32.2 59.6 34.2 59.6 34.2 Z M 57.4 33.5 C 55.6 33.5 53.8 34 53.8 35.4 C 53.8 36.4 54.8 36.9 55.7 36.9 C 58 36.9 58.6 35.4 58.6 34.1 C 58.63 34.06 58.6 33.5 58.6 33.5 C 58.6 33.5 57.45 33.5 57.4 33.5 Z M 67.6 35 C 68.1 36.2 68.9 36.9 70.3 36.9 C 72.2 36.9 73.2 35.7 73.2 34.2 C 73.2 32.3 71.4 31.5 69.8 31.5 C 69.79 31.52 69.3 31.5 69.3 31.5 L 69.3 30.4 C 69.3 30.4 69.87 30.44 69.9 30.4 C 71.2 30.4 72.7 29.8 72.7 28 C 72.7 26.7 71.8 25.7 70.4 25.7 C 69.3 25.7 68.4 26.3 67.9 27.2 C 67.9 27.2 66.9 26.6 66.9 26.6 C 67.6 25.3 68.9 24.7 70.4 24.7 C 72.3 24.7 73.9 25.8 73.9 28 C 73.9 29.4 73.1 30.6 71.6 30.9 C 71.6 30.9 71.6 31 71.6 31 C 73.3 31.3 74.3 32.6 74.3 34.2 C 74.3 36.3 73 37.9 70.4 37.9 C 68.5 37.9 67.1 37.1 66.5 35.4 C 66.5 35.4 67.6 35 67.6 35 Z M 76.8 24.9 C 76.8 24.9 80.71 24.94 80.7 24.9 C 87.3 24.9 87.6 30.4 87.6 31.3 C 87.6 32.2 87.3 37.7 80.7 37.7 C 80.71 37.68 76.8 37.7 76.8 37.7 L 76.8 24.9 Z M 78 36.6 C 78 36.6 80.4 36.6 80.4 36.6 C 83.8 36.6 86.4 35 86.4 31.3 C 86.4 27.7 83.8 26 80.4 26 C 80.4 26.02 78 26 78 26 L 78 36.6 Z M 94.6 31.7 C 94.6 31.1 94.6 29.8 94.6 29.4 C 94.6 29.4 95.6 29.4 95.6 29.4 C 95.6 30 95.7 30.7 95.7 30.8 C 95.7 30.8 95.8 30.8 95.8 30.8 C 96.2 29.9 97.3 29.1 98.6 29.1 C 99.7 29.1 100.7 29.7 101.1 30.9 C 101.6 29.7 102.8 29.1 103.9 29.1 C 106.5 29.1 107.1 30.9 107.1 32.7 C 107.1 32.73 107.1 37.7 107.1 37.7 L 106 37.7 C 106 37.7 106.02 32.78 106 32.8 C 106 31.4 105.6 30.1 103.9 30.1 C 101.9 30.1 101.4 31.8 101.4 33 C 101.41 33 101.4 37.7 101.4 37.7 L 100.3 37.7 C 100.3 37.7 100.33 32.68 100.3 32.7 C 100.3 31.1 99.8 30.1 98.6 30.1 C 97 30.1 95.7 31.2 95.7 33.5 C 95.72 33.52 95.7 37.7 95.7 37.7 L 94.6 37.7 C 94.6 37.7 94.64 31.7 94.6 31.7 Z M 113.8 29.1 C 116.4 29.1 118.2 31 118.2 33.5 C 118.2 36.1 116.4 37.9 113.8 37.9 C 111.2 37.9 109.4 36.1 109.4 33.5 C 109.4 31 111.2 29.1 113.8 29.1 Z M 113.8 36.9 C 115.8 36.9 117.1 35.4 117.1 33.5 C 117.1 31.6 115.8 30.1 113.8 30.1 C 111.8 30.1 110.5 31.6 110.5 33.5 C 110.5 35.4 111.8 36.9 113.8 36.9 Z M 127.8 36.2 C 127.8 36.2 127.78 36.22 127.8 36.2 C 127.1 37.4 125.7 37.9 124.5 37.9 C 121.9 37.9 120.1 36.1 120.1 33.5 C 120.1 31 121.9 29.1 124.5 29.1 C 125.7 29.1 127.1 29.7 127.8 30.8 C 127.78 30.82 127.8 30.8 127.8 30.8 L 127.8 24.1 L 128.9 24.1 L 128.9 37.7 L 127.8 37.7 L 127.8 36.2 Z M 124.5 30.1 C 122.4 30.1 121.2 31.6 121.2 33.5 C 121.2 35.4 122.4 36.9 124.5 36.9 C 126.4 36.9 127.9 35.4 127.9 33.5 C 127.9 31.6 126.4 30.1 124.5 30.1 Z M 139 36.1 C 138.1 37.4 136.8 37.9 135.4 37.9 C 132.8 37.9 131.2 36.1 131.2 33.5 C 131.2 31 132.9 29.1 135.3 29.1 C 137.9 29.1 139.2 31.1 139.2 33 C 139.22 33.04 139.2 33.8 139.2 33.8 C 139.2 33.8 132.24 33.79 132.2 33.8 C 132.2 34.7 132.9 36.9 135.4 36.9 C 136.5 36.9 137.6 36.3 138.2 35.4 C 138.2 35.4 139 36.1 139 36.1 Z M 138.1 32.8 C 138.1 31.3 136.9 30.1 135.3 30.1 C 132.9 30.1 132.2 32.4 132.2 32.8 C 132.2 32.8 138.1 32.8 138.1 32.8 Z M 141.7 24.1 L 142.8 24.1 L 142.8 37.7 L 141.7 37.7 L 141.7 24.1 Z M 150.7 29.4 L 151.8 29.4 L 151.8 37.7 L 150.7 37.7 L 150.7 29.4 Z M 151.2 25.3 C 151.7 25.3 152 25.6 152 26.1 C 152 26.5 151.7 26.9 151.2 26.9 C 150.8 26.9 150.4 26.5 150.4 26.1 C 150.4 25.6 150.8 25.3 151.2 25.3 Z M 154.8 35.6 C 155.3 36.4 156.2 36.9 157.2 36.9 C 158.2 36.9 159.1 36.3 159.1 35.4 C 159.1 33.1 154.2 34.7 154.2 31.5 C 154.2 29.9 155.7 29.1 157 29.1 C 158.4 29.1 159.4 29.7 160 30.7 C 160 30.7 159 31.3 159 31.3 C 158.6 30.5 158 30.1 157 30.1 C 156.3 30.1 155.3 30.6 155.3 31.5 C 155.3 33.7 160.2 32 160.2 35.3 C 160.2 37 158.8 37.9 157.2 37.9 C 155.8 37.9 154.5 37.4 153.8 36.2 C 153.8 36.2 154.8 35.6 154.8 35.6 Z M 166.9 24.1 L 168 24.1 L 168 30.8 C 168 30.8 168.02 30.82 168 30.8 C 168.7 29.7 170.1 29.1 171.3 29.1 C 173.9 29.1 175.7 31 175.7 33.5 C 175.7 36.1 173.9 37.9 171.3 37.9 C 170.1 37.9 168.7 37.4 168 36.2 C 168.02 36.22 168 36.2 168 36.2 L 168 37.7 L 166.9 37.7 L 166.9 24.1 Z M 171.3 36.9 C 173.4 36.9 174.6 35.4 174.6 33.5 C 174.6 31.6 173.4 30.1 171.3 30.1 C 169.4 30.1 167.9 31.6 167.9 33.5 C 167.9 35.4 169.4 36.9 171.3 36.9 Z M 185.1 35.3 C 185.1 36 185.2 37.2 185.2 37.7 C 185.2 37.7 184.1 37.7 184.1 37.7 C 184.1 37.1 184.1 36.4 184.1 36.2 C 184.1 36.2 184 36.2 184 36.2 C 183.6 37.1 182.5 37.9 181.2 37.9 C 178.6 37.9 178 36.1 178 34.3 C 177.99 34.31 178 29.4 178 29.4 L 179.1 29.4 C 179.1 29.4 179.07 34.26 179.1 34.3 C 179.1 35.6 179.4 36.9 181.2 36.9 C 182.8 36.9 184 35.8 184 33.5 C 184.04 33.52 184 29.4 184 29.4 L 185.1 29.4 C 185.1 29.4 185.12 35.34 185.1 35.3 Z M 188.1 29.4 L 189.2 29.4 L 189.2 37.7 L 188.1 37.7 L 188.1 29.4 Z M 188.6 25.3 C 189.1 25.3 189.4 25.6 189.4 26.1 C 189.4 26.5 189.1 26.9 188.6 26.9 C 188.2 26.9 187.8 26.5 187.8 26.1 C 187.8 25.6 188.2 25.3 188.6 25.3 Z M 192.1 24.1 L 193.2 24.1 L 193.2 37.7 L 192.1 37.7 L 192.1 24.1 Z M 200.3 30.3 L 198 30.3 C 198 30.3 197.96 35.75 198 35.8 C 198 36.5 198.4 36.9 199.1 36.9 C 199.5 36.9 200 36.8 200.3 36.6 C 200.3 36.6 200.4 37.6 200.4 37.6 C 200 37.8 199.4 37.9 199 37.9 C 197.5 37.9 196.9 36.9 196.9 35.8 C 196.88 35.75 196.9 30.3 196.9 30.3 L 195.1 30.3 L 195.1 29.4 L 196.9 29.4 L 196.9 27 L 198 27 L 198 29.4 L 200.3 29.4 L 200.3 30.3 Z " stroke="none" fill="#000"/>  </g>  <g id="Polygon47459">    <path d="M 7.7 3.7 C 7.2 3 6.3 2.7 5.4 2.7 C 4.4 2.7 3.3 3.1 3.3 4.3 C 3.3 6.9 9.4 5.4 9.4 9.9 C 9.4 12.7 7.2 14 4.7 14 C 3.1 14 1.6 13.5 0.6 12.3 C 0.6 12.3 2.3 10.6 2.3 10.6 C 2.8 11.5 3.8 12 4.8 12 C 5.8 12 7 11.4 7 10.2 C 7 7.4 1 9 1 4.5 C 1 1.8 3.3 0.6 5.7 0.6 C 7 0.6 8.3 1 9.3 1.9 C 9.3 1.9 7.7 3.7 7.7 3.7 Z M 16.9 12.5 C 16.9 12.5 16.8 12.49 16.8 12.5 C 16.2 13.5 15.2 13.9 14 13.9 C 12.4 13.9 10.9 13 10.9 11.3 C 10.9 8.5 14.2 8.3 16.3 8.3 C 16.31 8.3 16.9 8.3 16.9 8.3 C 16.9 8.3 16.85 8.06 16.9 8.1 C 16.9 7 16 6.4 14.9 6.4 C 14 6.4 13.1 6.8 12.6 7.3 C 12.6 7.3 11.4 6.2 11.4 6.2 C 12.4 5.2 13.7 4.8 15.1 4.8 C 18.8 4.8 18.8 7.5 18.8 8.7 C 18.8 8.71 18.8 13.7 18.8 13.7 L 16.9 13.7 L 16.9 12.5 Z M 16.7 9.8 C 16.7 9.8 16.28 9.81 16.3 9.8 C 15.1 9.8 13 9.9 13 11.1 C 13 11.9 13.8 12.3 14.5 12.3 C 16 12.3 16.7 11.5 16.7 10.3 C 16.73 10.3 16.7 9.8 16.7 9.8 Z M 30.1 5 C 30.1 5 30.07 12.91 30.1 12.9 C 30.1 16 28.6 18 25.2 18 C 23.6 18 22.1 17.7 20.9 16.6 C 20.9 16.6 22.2 14.8 22.2 14.8 C 23.1 15.6 24 16.1 25.2 16.1 C 27.3 16.1 27.9 14.9 27.9 13.2 C 27.91 13.16 27.9 12.5 27.9 12.5 C 27.9 12.5 27.88 12.53 27.9 12.5 C 27.2 13.4 26.1 13.8 25.1 13.8 C 22.5 13.8 20.7 11.8 20.7 9.4 C 20.7 6.8 22.4 4.8 25 4.8 C 26.2 4.8 27.4 5.3 28 6.3 C 27.99 6.34 28 6.3 28 6.3 L 28 5 L 30.1 5 Z M 22.9 9.3 C 22.9 10.7 24 11.8 25.4 11.8 C 27 11.8 28 10.7 28 9.3 C 28 7.8 27 6.8 25.5 6.8 C 24 6.8 22.9 7.8 22.9 9.3 Z M 32.6 5 L 34.7 5 L 34.7 13.7 L 32.6 13.7 L 32.6 5 Z M 33.6 0.8 C 34.4 0.8 35.1 1.4 35.1 2.1 C 35.1 2.8 34.4 3.4 33.6 3.4 C 32.9 3.4 32.3 2.8 32.3 2.1 C 32.3 1.4 32.9 0.8 33.6 0.8 Z M 36.2 6.9 L 36.2 5 L 38 5 L 38 2.5 L 40.2 2.5 L 40.2 5 L 42.5 5 L 42.5 6.9 L 40.2 6.9 C 40.2 6.9 40.15 10.66 40.2 10.7 C 40.2 11.5 40.4 12.1 41.4 12.1 C 41.7 12.1 42.3 12 42.5 11.8 C 42.5 11.8 42.5 13.6 42.5 13.6 C 42.1 13.8 41.3 13.9 40.8 13.9 C 38.5 13.9 38 12.9 38 10.8 C 37.99 10.84 38 6.9 38 6.9 L 36.2 6.9 Z M 43.6 6.9 L 43.6 5 L 45.4 5 L 45.4 2.5 L 47.6 2.5 L 47.6 5 L 49.9 5 L 49.9 6.9 L 47.6 6.9 C 47.6 6.9 47.56 10.66 47.6 10.7 C 47.6 11.5 47.8 12.1 48.8 12.1 C 49.1 12.1 49.7 12 49.9 11.8 C 49.9 11.8 49.9 13.6 49.9 13.6 C 49.5 13.8 48.7 13.9 48.2 13.9 C 45.9 13.9 45.4 12.9 45.4 10.8 C 45.4 10.84 45.4 6.9 45.4 6.9 L 43.6 6.9 Z M 57.2 12.5 C 57.2 12.5 57.15 12.49 57.2 12.5 C 56.5 13.5 55.5 13.9 54.4 13.9 C 52.8 13.9 51.2 13 51.2 11.3 C 51.2 8.5 54.5 8.3 56.7 8.3 C 56.67 8.3 57.2 8.3 57.2 8.3 C 57.2 8.3 57.21 8.06 57.2 8.1 C 57.2 7 56.4 6.4 55.2 6.4 C 54.3 6.4 53.5 6.8 52.9 7.3 C 52.9 7.3 51.8 6.2 51.8 6.2 C 52.7 5.2 54.1 4.8 55.5 4.8 C 59.2 4.8 59.2 7.5 59.2 8.7 C 59.15 8.71 59.2 13.7 59.2 13.7 L 57.2 13.7 L 57.2 12.5 Z M 57.1 9.8 C 57.1 9.8 56.63 9.81 56.6 9.8 C 55.4 9.8 53.4 9.9 53.4 11.1 C 53.4 11.9 54.2 12.3 54.9 12.3 C 56.4 12.3 57.1 11.5 57.1 10.3 C 57.08 10.3 57.1 9.8 57.1 9.8 Z M 61.6 0.1 L 63.7 0.1 L 63.7 13.7 L 61.6 13.7 L 61.6 0.1 Z M 76.2 7.4 C 75.8 6.9 75.2 6.6 74.5 6.6 C 73.9 6.6 73.2 6.8 73.2 7.5 C 73.2 9 77.9 7.8 77.9 11.1 C 77.9 13.2 75.9 13.9 74.1 13.9 C 72.8 13.9 71.7 13.6 70.8 12.6 C 70.8 12.6 72.2 11.2 72.2 11.2 C 72.8 11.8 73.4 12.3 74.3 12.3 C 74.9 12.3 75.7 12 75.7 11.3 C 75.7 9.5 71.1 10.9 71.1 7.6 C 71.1 5.7 72.8 4.8 74.5 4.8 C 75.7 4.8 76.9 5.2 77.6 6.1 C 77.6 6.1 76.2 7.4 76.2 7.4 Z M 79.8 0.1 L 81.9 0.1 L 81.9 13.7 L 79.8 13.7 L 79.8 0.1 Z M 84.4 5 L 86.6 5 L 86.6 13.7 L 84.4 13.7 L 84.4 5 Z M 85.5 0.8 C 86.3 0.8 86.9 1.4 86.9 2.1 C 86.9 2.8 86.3 3.4 85.5 3.4 C 84.7 3.4 84.1 2.8 84.1 2.1 C 84.1 1.4 84.7 0.8 85.5 0.8 Z M 94.9 7.6 C 94.4 7.1 93.9 6.8 93.3 6.8 C 91.7 6.8 90.7 8 90.7 9.4 C 90.7 10.7 91.7 12 93.3 12 C 93.9 12 94.6 11.7 95 11.1 C 95 11.1 96.4 12.7 96.4 12.7 C 95.5 13.6 94 13.9 93.3 13.9 C 90.7 13.9 88.6 12.1 88.6 9.4 C 88.6 6.6 90.7 4.8 93.3 4.8 C 94.4 4.8 95.6 5.2 96.4 6.1 C 96.4 6.1 94.9 7.6 94.9 7.6 Z M 99.3 10.1 C 99.5 11.4 100.5 12.2 101.7 12.2 C 102.7 12.2 103.4 11.7 104 11 C 104 11 105.5 12.2 105.5 12.2 C 104.5 13.4 103.2 13.9 101.9 13.9 C 99.3 13.9 97.2 12.1 97.2 9.4 C 97.2 6.6 99.3 4.8 101.9 4.8 C 104.3 4.8 105.9 6.5 105.9 9.5 C 105.93 9.52 105.9 10.1 105.9 10.1 C 105.9 10.1 99.34 10.12 99.3 10.1 Z M 103.8 8.5 C 103.7 7.2 102.9 6.4 101.6 6.4 C 100.3 6.4 99.5 7.3 99.3 8.5 C 99.3 8.5 103.8 8.5 103.8 8.5 Z M 112.6 7.4 C 112.2 6.9 111.6 6.6 110.9 6.6 C 110.3 6.6 109.6 6.8 109.6 7.5 C 109.6 9 114.3 7.8 114.3 11.1 C 114.3 13.2 112.3 13.9 110.6 13.9 C 109.2 13.9 108.1 13.6 107.2 12.6 C 107.2 12.6 108.6 11.2 108.6 11.2 C 109.2 11.8 109.8 12.3 110.7 12.3 C 111.3 12.3 112.1 12 112.1 11.3 C 112.1 9.5 107.5 10.9 107.5 7.6 C 107.5 5.7 109.2 4.8 110.9 4.8 C 112.1 4.8 113.3 5.2 114 6.1 C 114 6.1 112.6 7.4 112.6 7.4 Z " stroke="none" fill="#be870e"/>  </g></svg>