<?xml version="1.0" standalone="no"?><!DOCTYPE svg PUBLIC "-//W3C//DTD SVG 1.1//EN" "http://www.w3.org/Graphics/SVG/1.1/DTD/svg11.dtd"><svg xmlns="http://www.w3.org/2000/svg" version="1.1" width="137px" height="35.4px" viewBox="0 0 137 35.4">  <desc>tap for video 00:48</desc>  <defs/>  <g id="Polygon47743">    <path d="M 15.7 13.4 L 13.5 13.4 L 13.5 12.2 L 19.1 12.2 L 19.1 13.4 L 16.9 13.4 L 16.9 19.3 L 15.7 19.3 L 15.7 13.4 Z M 21.8 12.2 L 22.9 12.2 L 26 19.3 L 24.5 19.3 L 23.9 17.7 L 20.8 17.7 L 20.2 19.3 L 18.8 19.3 L 21.8 12.2 Z M 23.4 16.6 L 22.3 13.7 L 21.2 16.6 L 23.4 16.6 Z M 27.1 12.2 C 27.1 12.2 29.44 12.22 29.4 12.2 C 30.8 12.2 32 12.7 32 14.3 C 32 16 30.7 16.4 29.2 16.4 C 29.22 16.37 28.3 16.4 28.3 16.4 L 28.3 19.3 L 27.1 19.3 L 27.1 12.2 Z M 29.1 15.3 C 29.8 15.3 30.7 15.3 30.7 14.3 C 30.7 13.4 29.9 13.3 29.2 13.3 C 29.22 13.3 28.3 13.3 28.3 13.3 L 28.3 15.3 C 28.3 15.3 29.08 15.29 29.1 15.3 Z M 36.5 12.2 L 41.1 12.2 L 41.1 13.4 L 37.8 13.4 L 37.8 15.2 L 40.9 15.2 L 40.9 16.4 L 37.8 16.4 L 37.8 19.3 L 36.5 19.3 L 36.5 12.2 Z M 45.8 12 C 48 12 49.6 13.5 49.6 15.7 C 49.6 18 48 19.4 45.8 19.5 C 43.6 19.5 42.1 18 42.1 15.8 C 42.1 13.5 43.6 12 45.8 12 Z M 45.8 18.3 C 47.3 18.3 48.3 17.2 48.3 15.7 C 48.3 14.3 47.3 13.2 45.8 13.2 C 44.4 13.2 43.4 14.3 43.4 15.7 C 43.4 17.2 44.4 18.3 45.8 18.3 Z M 51.1 12.2 C 51.1 12.2 53.53 12.22 53.5 12.2 C 54.9 12.2 56.2 12.7 56.2 14.2 C 56.2 15.3 55.6 16 54.5 16.2 C 54.53 16.17 56.4 19.3 56.4 19.3 L 54.9 19.3 L 53.2 16.3 L 52.3 16.3 L 52.3 19.3 L 51.1 19.3 L 51.1 12.2 Z M 53.3 15.2 C 54 15.2 54.8 15.2 54.8 14.2 C 54.8 13.4 54.1 13.3 53.4 13.3 C 53.42 13.3 52.3 13.3 52.3 13.3 L 52.3 15.2 C 52.3 15.2 53.31 15.22 53.3 15.2 Z M 59.9 12.2 L 61.4 12.2 L 63.3 17.6 L 65.3 12.2 L 66.6 12.2 L 63.8 19.3 L 62.7 19.3 L 59.9 12.2 Z M 67.7 12.2 L 68.9 12.2 L 68.9 19.3 L 67.7 19.3 L 67.7 12.2 Z M 70.8 12.2 C 70.8 12.2 73.55 12.22 73.6 12.2 C 75.4 12.2 77.2 13.4 77.2 15.8 C 77.2 18.2 75.1 19.3 73.4 19.3 C 73.4 19.3 70.8 19.3 70.8 19.3 L 70.8 12.2 Z M 73 18.2 C 74.5 18.2 75.8 17.5 75.8 15.8 C 75.8 14 74.7 13.4 73.2 13.4 C 73.17 13.36 72 13.4 72 13.4 L 72 18.2 C 72 18.2 72.96 18.16 73 18.2 Z M 78.6 12.2 L 83.3 12.2 L 83.3 13.4 L 79.9 13.4 L 79.9 15.1 L 83.1 15.1 L 83.1 16.2 L 79.9 16.2 L 79.9 18.2 L 83.5 18.2 L 83.5 19.3 L 78.6 19.3 L 78.6 12.2 Z M 88.2 12 C 90.4 12 92 13.5 92 15.7 C 92 18 90.4 19.4 88.2 19.5 C 86 19.5 84.5 18 84.5 15.8 C 84.5 13.5 86 12 88.2 12 Z M 88.2 18.3 C 89.7 18.3 90.7 17.2 90.7 15.7 C 90.7 14.3 89.7 13.2 88.2 13.2 C 86.8 13.2 85.8 14.3 85.8 15.7 C 85.8 17.2 86.8 18.3 88.2 18.3 Z M 98.7 12.1 C 99.5 12.1 101.3 12.4 101.3 15.8 C 101.3 19.1 99.5 19.4 98.7 19.4 C 97.9 19.4 96.2 19.1 96.2 15.8 C 96.2 12.4 97.9 12.1 98.7 12.1 Z M 98.7 18.3 C 99.9 18.3 100.1 16.6 100.1 15.8 C 100.1 14.9 99.9 13.2 98.7 13.2 C 97.5 13.2 97.4 14.9 97.4 15.8 C 97.4 16.6 97.5 18.3 98.7 18.3 Z M 105.1 12.1 C 105.9 12.1 107.6 12.4 107.6 15.8 C 107.6 19.1 105.9 19.4 105.1 19.4 C 104.3 19.4 102.5 19.1 102.5 15.8 C 102.5 12.4 104.3 12.1 105.1 12.1 Z M 105.1 18.3 C 106.3 18.3 106.4 16.6 106.4 15.8 C 106.4 14.9 106.3 13.2 105.1 13.2 C 103.9 13.2 103.7 14.9 103.7 15.8 C 103.7 16.6 103.9 18.3 105.1 18.3 Z M 109.7 17.8 C 110.2 17.8 110.5 18.2 110.5 18.6 C 110.5 19 110.2 19.4 109.7 19.4 C 109.3 19.4 108.9 19 108.9 18.6 C 108.9 18.2 109.3 17.8 109.7 17.8 Z M 109.7 14.4 C 110.2 14.4 110.5 14.8 110.5 15.2 C 110.5 15.6 110.2 16 109.7 16 C 109.3 16 108.9 15.6 108.9 15.2 C 108.9 14.8 109.3 14.4 109.7 14.4 Z M 114.7 17.9 L 111.7 17.9 L 111.7 16.7 L 114.5 12.2 L 115.9 12.2 L 115.9 16.8 L 116.9 16.8 L 116.9 17.9 L 115.9 17.9 L 115.9 19.3 L 114.7 19.3 L 114.7 17.9 Z M 114.7 13.9 L 114.7 13.9 L 112.9 16.8 L 114.7 16.8 L 114.7 13.9 Z M 122.6 14 C 122.6 14.7 122.3 15.3 121.5 15.6 C 121.5 15.6 121.5 15.6 121.5 15.6 C 122.2 15.7 122.8 16.4 122.8 17.3 C 122.8 18.7 121.8 19.4 120.4 19.4 C 119.1 19.4 118.1 18.7 118.1 17.3 C 118.1 16.4 118.7 15.7 119.3 15.6 C 119.3 15.6 119.3 15.5 119.3 15.5 C 118.6 15.3 118.3 14.7 118.3 14 C 118.3 12.8 119.2 12.1 120.4 12.1 C 121.6 12.1 122.6 12.8 122.6 14 Z M 119.5 14.1 C 119.5 14.6 119.9 15.1 120.4 15.1 C 121 15.1 121.4 14.6 121.4 14.1 C 121.4 13.5 121 13.1 120.4 13.1 C 119.8 13.1 119.5 13.5 119.5 14.1 Z M 119.3 17.1 C 119.3 17.8 119.8 18.3 120.4 18.3 C 121.1 18.3 121.6 17.8 121.6 17.1 C 121.6 16.5 121.1 16 120.4 16 C 119.8 16 119.3 16.5 119.3 17.1 Z " stroke="none" fill="#808284"/>  </g></svg>