<?xml version="1.0" standalone="no"?><!DOCTYPE svg PUBLIC "-//W3C//DTD SVG 1.1//EN" "http://www.w3.org/Graphics/SVG/1.1/DTD/svg11.dtd"><svg xmlns="http://www.w3.org/2000/svg" version="1.1" width="944px" height="76.4px" viewBox="0 0 944 76.4">  <desc>Modern imaging techniques and interpretive expertise reveal surprising details</desc>  <defs/>  <g id="Polygon47000">    <path d="M 5.3 18.4 C 5.3 21.5 5.7 22 8.2 22 C 8.25 21.98 8.2 22.6 8.2 22.6 L 1.2 22.6 C 1.2 22.6 1.18 21.98 1.2 22 C 3.8 22 4.1 21.5 4.1 18.4 C 4.1 18.4 4.1 8.3 4.1 8.3 C 4.1 5.2 3.8 4.7 1.2 4.7 C 1.18 4.68 1.2 4 1.2 4 L 6.4 4 L 13 19.1 L 19.6 4 L 24.4 4 C 24.4 4 24.43 4.68 24.4 4.7 C 21.8 4.7 21.5 5.2 21.5 8.3 C 21.5 8.3 21.5 18.4 21.5 18.4 C 21.5 21.5 21.8 22 24.4 22 C 24.43 21.98 24.4 22.6 24.4 22.6 L 16.1 22.6 C 16.1 22.6 16.06 21.98 16.1 22 C 18.6 22 19 21.5 19 18.4 C 19 18.35 19 8.2 19 8.2 L 12.6 23.2 L 12.2 23.2 L 5.3 7.3 C 5.3 7.3 5.27 18.35 5.3 18.4 Z M 32 23.2 C 28.6 23.2 25.8 20.6 25.8 17.5 C 25.8 14.3 28.6 11.8 32 11.8 C 35.5 11.8 38.3 14.3 38.3 17.5 C 38.3 20.6 35.5 23.2 32 23.2 Z M 32 13 C 29.5 13 28.3 15 28.3 17.5 C 28.3 19.9 29.5 21.9 32 21.9 C 34.6 21.9 35.8 19.9 35.8 17.5 C 35.8 15 34.6 13 32 13 Z M 49.7 15.5 C 49.1 14 47.9 13 46.6 13 C 44.1 13 43 15 43 17.5 C 43 19.9 44.1 21.9 46.6 21.9 C 47.9 21.9 49.1 20.9 49.7 19.5 C 49.7 19.5 49.7 15.5 49.7 15.5 Z M 49.7 8.6 C 49.7 5.5 49.3 4.9 47.2 4.9 C 47.23 4.93 47.2 4.3 47.2 4.3 L 51.9 3.5 C 51.9 3.5 51.88 18.1 51.9 18.1 C 51.9 21.2 52.3 21.7 54.3 21.7 C 54.33 21.73 54.3 22.4 54.3 22.4 C 54.3 22.4 50.21 23.16 50.2 23.2 C 50.1 22.8 49.8 21.8 49.7 21.3 C 48.8 22.4 47.6 23.2 45.9 23.2 C 43 23.2 40.5 20.6 40.5 17.5 C 40.5 14.3 43 11.8 45.9 11.8 C 47.5 11.8 48.8 12.5 49.7 13.6 C 49.7 13.6 49.7 8.6 49.7 8.6 Z M 62.9 15.5 C 63.3 14.5 62.8 13 60.7 13 C 59.4 13 58.2 14 57.8 15.5 C 57.8 15.5 62.9 15.5 62.9 15.5 Z M 61.6 21.9 C 62.7 21.9 64.1 21.3 65 20.4 C 65 20.4 65.6 21.1 65.6 21.1 C 64.5 22.3 62.6 23.2 60.9 23.2 C 57.5 23.2 55.1 20.6 55.1 17.5 C 55.1 14.2 58 11.8 60.9 11.8 C 63.6 11.8 65.8 14 65.1 16.7 C 65.1 16.7 57.6 16.7 57.6 16.7 C 57.2 19.6 58.4 21.9 61.6 21.9 Z M 76.2 15.2 C 75.7 15.2 75.2 14.6 75.2 14 C 75.2 13.4 74.8 13 74.2 13 C 73.5 13 71.8 14.2 71.8 16.6 C 71.8 16.6 71.8 18.4 71.8 18.4 C 71.8 21.5 72.1 22 74.2 22 C 74.23 21.98 74.2 22.6 74.2 22.6 L 67.1 22.6 C 67.1 22.6 67.13 21.98 67.1 22 C 69.2 22 69.6 21.5 69.6 18.4 C 69.6 18.4 69.6 16.8 69.6 16.8 C 69.6 13.7 69.2 13.2 67.1 13.2 C 67.13 13.21 67.1 12.6 67.1 12.6 C 67.1 12.6 71.25 11.78 71.2 11.8 C 71.4 12.1 71.7 13.4 71.8 14 C 72.4 12.8 73.8 11.8 75 11.8 C 76.7 11.8 77.5 12.9 77.5 13.7 C 77.5 14.4 77.2 15.2 76.2 15.2 Z M 87.9 11.8 C 90.7 11.8 91.9 13.8 91.9 16.4 C 91.9 16.4 91.9 18.4 91.9 18.4 C 91.9 21.5 92.3 22 94.4 22 C 94.36 21.98 94.4 22.6 94.4 22.6 L 87.3 22.6 C 87.3 22.6 87.26 21.98 87.3 22 C 89.3 22 89.7 21.5 89.7 18.4 C 89.7 18.4 89.7 16.6 89.7 16.6 C 89.7 14.5 89 13.2 87.1 13.2 C 85.4 13.2 83.6 14.6 83.6 16.3 C 83.6 16.3 83.6 18.4 83.6 18.4 C 83.6 21.5 83.8 22 85.7 22 C 85.74 21.98 85.7 22.6 85.7 22.6 L 78.9 22.6 C 78.9 22.6 78.92 21.98 78.9 22 C 81 22 81.4 21.5 81.4 18.4 C 81.4 18.4 81.4 16.8 81.4 16.8 C 81.4 13.7 81 13.2 78.9 13.2 C 78.92 13.21 78.9 12.6 78.9 12.6 C 78.9 12.6 83.04 11.78 83 11.8 C 83.2 12.1 83.5 13.4 83.6 14 C 84.4 13 85.8 11.8 87.9 11.8 Z M 101.5 22.6 C 101.5 22.6 101.49 21.98 101.5 22 C 103.5 22 103.9 21.5 103.9 18.4 C 103.9 18.4 103.9 16.8 103.9 16.8 C 103.9 13.7 103.5 13.2 101.5 13.2 C 101.49 13.21 101.5 12.6 101.5 12.6 L 106.1 11.8 C 106.1 11.8 106.14 18.35 106.1 18.4 C 106.1 21.5 106.5 22 108.6 22 C 108.59 21.98 108.6 22.6 108.6 22.6 L 101.5 22.6 Z M 105 8.7 C 104.3 8.7 103.7 8.1 103.7 7.3 C 103.7 6.6 104.3 6 105 6 C 105.8 6 106.4 6.6 106.4 7.3 C 106.4 8.1 105.8 8.7 105 8.7 Z M 122.2 18.4 C 122.2 21.6 122.4 22 124.2 22 C 124.18 21.98 124.2 22.6 124.2 22.6 L 118.1 22.6 C 118.1 22.6 118.1 21.98 118.1 22 C 119.8 22 120.1 21.6 120.1 18.4 C 120.1 18.4 120.1 16.6 120.1 16.6 C 120.1 14.5 119.4 13.2 117.8 13.2 C 116.7 13.2 114.6 14.4 114.6 16.3 C 114.6 16.3 114.6 18.4 114.6 18.4 C 114.6 21.6 114.8 22 116.6 22 C 116.55 21.98 116.6 22.6 116.6 22.6 L 110 22.6 C 110 22.6 109.98 21.98 110 22 C 112 22 112.4 21.5 112.4 18.4 C 112.4 18.4 112.4 16.8 112.4 16.8 C 112.4 13.7 112 13.2 110 13.2 C 109.98 13.21 110 12.6 110 12.6 C 110 12.6 114.11 11.78 114.1 11.8 C 114.3 12.1 114.5 13.4 114.6 14 C 115.5 13 116.9 11.8 118.7 11.8 C 120.6 11.8 121.5 12.7 121.9 14.1 C 122.7 13.1 124.5 11.8 126.3 11.8 C 129 11.8 129.9 13.8 129.9 16.4 C 129.9 16.4 129.9 18.4 129.9 18.4 C 129.9 21.5 130.3 22 132.3 22 C 132.3 21.98 132.3 22.6 132.3 22.6 L 125.7 22.6 C 125.7 22.6 125.73 21.98 125.7 22 C 127.4 22 127.7 21.6 127.7 18.4 C 127.7 18.4 127.7 16.6 127.7 16.6 C 127.7 14.5 127.1 13.2 125.5 13.2 C 124.4 13.2 122.2 14.4 122.2 16.3 C 122.2 16.3 122.2 18.4 122.2 18.4 Z M 142.5 23 C 141.3 23 140.5 22.3 140.4 21.2 C 138.8 22.5 137.7 23 136.5 23 C 135 23 133.7 22.1 133.7 20.4 C 133.7 17.8 136.8 16.6 140.3 16 C 140.3 13.7 140 12.8 138.2 12.8 C 137.5 12.8 136.5 13.3 136.5 14.3 C 136.5 14.9 136 15.3 135.4 15.3 C 134.8 15.3 134.3 14.9 134.3 14.3 C 134.3 12.8 136.3 11.8 138.3 11.8 C 141.3 11.8 142.5 13.1 142.5 16 C 142.5 16 142.5 20.7 142.5 20.7 C 142.5 21.5 142.7 21.9 143.2 21.9 C 143.5 21.9 143.9 21.6 144.1 21.4 C 144.1 21.4 144.5 22 144.5 22 C 143.9 22.6 143.1 23 142.5 23 Z M 140.3 17 C 137.4 17.7 136 18.7 136 20.1 C 136 21 136.7 21.6 137.5 21.6 C 138.1 21.6 138.9 21.4 140.3 20.1 C 140.3 20.1 140.3 17 140.3 17 Z M 150.6 12.8 C 149 12.8 148.3 14.2 148.3 16 C 148.3 17.8 149 19.2 150.6 19.2 C 152.1 19.2 152.8 17.8 152.8 16 C 152.8 14.2 152.1 12.8 150.6 12.8 Z M 150.5 22.7 C 154.8 23 156.1 24.9 156.1 26.8 C 156.1 29.3 153.7 30.9 150.7 30.9 C 145.4 30.9 143.4 27.1 147.2 25.1 C 147.2 25.1 147.7 25.4 147.7 25.4 C 145.2 28.3 148.2 29.7 150.7 29.7 C 152.6 29.7 154.5 28.8 154.5 27.3 C 154.5 25.9 152.9 25.4 150.3 25.1 C 147.8 24.9 145.9 24.1 145.9 22.3 C 145.9 21.1 146.9 20.3 148.5 19.8 C 147 19 145.9 17.7 145.9 16 C 145.9 13.7 148 11.8 150.6 11.8 C 151.8 11.8 152.9 12.2 153.8 13 C 154.3 12.3 155.4 11.8 156.1 11.8 C 158.2 11.8 158.3 14.3 157.1 14.4 C 155.7 14.5 156.5 13 155.2 13 C 155 13 154.6 13.1 154.3 13.5 C 154.8 14.2 155.2 15.1 155.2 16 C 155.2 18.3 153.2 19.9 151.1 20.2 C 149.8 20.4 147.7 20.7 147.7 21.5 C 147.7 22.4 149.5 22.6 150.5 22.7 Z M 159 22.6 C 159 22.6 158.96 21.98 159 22 C 161 22 161.4 21.5 161.4 18.4 C 161.4 18.4 161.4 16.8 161.4 16.8 C 161.4 13.7 161 13.2 159 13.2 C 158.96 13.21 159 12.6 159 12.6 L 163.6 11.8 C 163.6 11.8 163.61 18.35 163.6 18.4 C 163.6 21.5 164 22 166.1 22 C 166.06 21.98 166.1 22.6 166.1 22.6 L 159 22.6 Z M 162.5 8.7 C 161.7 8.7 161.1 8.1 161.1 7.3 C 161.1 6.6 161.7 6 162.5 6 C 163.2 6 163.9 6.6 163.9 7.3 C 163.9 8.1 163.2 8.7 162.5 8.7 Z M 176.4 11.8 C 179.2 11.8 180.4 13.8 180.4 16.4 C 180.4 16.4 180.4 18.4 180.4 18.4 C 180.4 21.5 180.8 22 182.9 22 C 182.89 21.98 182.9 22.6 182.9 22.6 L 175.8 22.6 C 175.8 22.6 175.79 21.98 175.8 22 C 177.8 22 178.2 21.5 178.2 18.4 C 178.2 18.4 178.2 16.6 178.2 16.6 C 178.2 14.5 177.5 13.2 175.7 13.2 C 174 13.2 172.1 14.6 172.1 16.3 C 172.1 16.3 172.1 18.4 172.1 18.4 C 172.1 21.5 172.3 22 174.3 22 C 174.27 21.98 174.3 22.6 174.3 22.6 L 167.5 22.6 C 167.5 22.6 167.45 21.98 167.5 22 C 169.5 22 169.9 21.5 169.9 18.4 C 169.9 18.4 169.9 16.8 169.9 16.8 C 169.9 13.7 169.5 13.2 167.5 13.2 C 167.45 13.21 167.5 12.6 167.5 12.6 C 167.5 12.6 171.57 11.78 171.6 11.8 C 171.7 12.1 172 13.4 172.1 14 C 172.9 13 174.4 11.8 176.4 11.8 Z M 189 12.8 C 187.5 12.8 186.7 14.2 186.7 16 C 186.7 17.8 187.5 19.2 189 19.2 C 190.5 19.2 191.2 17.8 191.2 16 C 191.2 14.2 190.5 12.8 189 12.8 Z M 188.9 22.7 C 193.2 23 194.6 24.9 194.6 26.8 C 194.6 29.3 192.1 30.9 189.1 30.9 C 183.8 30.9 181.8 27.1 185.6 25.1 C 185.6 25.1 186.2 25.4 186.2 25.4 C 183.6 28.3 186.6 29.7 189.1 29.7 C 191 29.7 192.9 28.8 192.9 27.3 C 192.9 25.9 191.4 25.4 188.8 25.1 C 186.2 24.9 184.4 24.1 184.4 22.3 C 184.4 21.1 185.4 20.3 187 19.8 C 185.4 19 184.4 17.7 184.4 16 C 184.4 13.7 186.5 11.8 189 11.8 C 190.2 11.8 191.4 12.2 192.2 13 C 192.7 12.3 193.9 11.8 194.5 11.8 C 196.7 11.8 196.8 14.3 195.5 14.4 C 194.2 14.5 194.9 13 193.7 13 C 193.4 13 193.1 13.1 192.7 13.5 C 193.3 14.2 193.6 15.1 193.6 16 C 193.6 18.3 191.6 19.9 189.6 20.2 C 188.2 20.4 186.1 20.7 186.1 21.5 C 186.1 22.4 187.9 22.6 188.9 22.7 Z M 202.4 13.4 C 202.4 13.4 202.42 12.65 202.4 12.6 C 204.3 12.2 205 10.9 205.2 8.9 C 205.18 8.9 206.2 8.9 206.2 8.9 L 206.2 12.3 L 208.9 12.3 L 208.9 13.4 L 206.2 13.4 C 206.2 13.4 206.23 19.65 206.2 19.7 C 206.2 21.1 206.6 21.9 207.6 21.9 C 208.2 21.9 208.9 21.5 209.6 20.8 C 209.6 20.8 210.2 21.4 210.2 21.4 C 209.3 22.4 207.9 23.2 206.9 23.2 C 205.2 23.2 204 22.1 204 19.7 C 204.03 19.65 204 13.4 204 13.4 L 202.4 13.4 Z M 219 15.5 C 219.3 14.5 218.8 13 216.7 13 C 215.4 13 214.3 14 213.8 15.5 C 213.8 15.5 219 15.5 219 15.5 Z M 217.7 21.9 C 218.7 21.9 220.2 21.3 221.1 20.4 C 221.1 20.4 221.6 21.1 221.6 21.1 C 220.5 22.3 218.7 23.2 216.9 23.2 C 213.5 23.2 211.2 20.6 211.2 17.5 C 211.2 14.2 214 11.8 216.9 11.8 C 219.7 11.8 221.9 14 221.1 16.7 C 221.1 16.7 213.6 16.7 213.6 16.7 C 213.3 19.6 214.5 21.9 217.7 21.9 Z M 225.7 17.7 C 225.7 20.2 226.9 21.9 229.5 21.9 C 230.5 21.9 231.8 21.4 232.8 20.4 C 232.8 20.4 233.3 21.1 233.3 21.1 C 232.1 22.4 230.5 23.2 228.7 23.2 C 225.3 23.2 223.2 20.8 223.2 17.7 C 223.2 14.1 226.2 11.8 228.7 11.8 C 231.3 11.8 232.4 12.9 232.4 14 C 232.4 14.5 232.1 15.3 231 15.3 C 230.3 15.3 229.8 14.8 229.8 14.1 C 229.8 13.1 229.3 12.8 228.7 12.8 C 227.1 12.8 225.7 14.9 225.7 17.7 Z M 242.5 22.6 C 242.5 22.6 242.45 21.98 242.5 22 C 244.4 22 244.7 21.5 244.7 18.4 C 244.7 18.4 244.7 16.6 244.7 16.6 C 244.7 14.5 243.9 13.2 242.3 13.2 C 240.7 13.2 239 14.6 239 16.3 C 239 16.3 239 18.4 239 18.4 C 239 21.6 239.2 22 240.9 22 C 240.9 21.98 240.9 22.6 240.9 22.6 L 234.3 22.6 C 234.3 22.6 234.3 21.98 234.3 22 C 236.4 22 236.7 21.5 236.7 18.4 C 236.7 18.4 236.7 8.6 236.7 8.6 C 236.7 5.5 236.4 4.9 234.3 4.9 C 234.3 4.93 234.3 4.3 234.3 4.3 L 239 3.5 C 239 3.5 238.95 14.01 239 14 C 239.8 13 241.2 11.8 243 11.8 C 245.9 11.8 246.8 13.8 246.8 16.4 C 246.8 16.4 246.8 18.4 246.8 18.4 C 246.8 21.5 247.2 22 249.3 22 C 249.3 21.98 249.3 22.6 249.3 22.6 L 242.5 22.6 Z M 259.7 11.8 C 262.5 11.8 263.7 13.8 263.7 16.4 C 263.7 16.4 263.7 18.4 263.7 18.4 C 263.7 21.5 264.1 22 266.2 22 C 266.17 21.98 266.2 22.6 266.2 22.6 L 259.1 22.6 C 259.1 22.6 259.07 21.98 259.1 22 C 261.1 22 261.5 21.5 261.5 18.4 C 261.5 18.4 261.5 16.6 261.5 16.6 C 261.5 14.5 260.8 13.2 258.9 13.2 C 257.2 13.2 255.4 14.6 255.4 16.3 C 255.4 16.3 255.4 18.4 255.4 18.4 C 255.4 21.5 255.6 22 257.5 22 C 257.55 21.98 257.5 22.6 257.5 22.6 L 250.7 22.6 C 250.7 22.6 250.73 21.98 250.7 22 C 252.8 22 253.2 21.5 253.2 18.4 C 253.2 18.4 253.2 16.8 253.2 16.8 C 253.2 13.7 252.8 13.2 250.7 13.2 C 250.73 13.21 250.7 12.6 250.7 12.6 C 250.7 12.6 254.85 11.78 254.9 11.8 C 255 12.1 255.3 13.4 255.4 14 C 256.2 13 257.6 11.8 259.7 11.8 Z M 267.6 22.6 C 267.6 22.6 267.59 21.98 267.6 22 C 269.6 22 270 21.5 270 18.4 C 270 18.4 270 16.8 270 16.8 C 270 13.7 269.6 13.2 267.6 13.2 C 267.59 13.21 267.6 12.6 267.6 12.6 L 272.2 11.8 C 272.2 11.8 272.24 18.35 272.2 18.4 C 272.2 21.5 272.6 22 274.7 22 C 274.69 21.98 274.7 22.6 274.7 22.6 L 267.6 22.6 Z M 271.1 8.7 C 270.4 8.7 269.8 8.1 269.8 7.3 C 269.8 6.6 270.4 6 271.1 6 C 271.9 6 272.5 6.6 272.5 7.3 C 272.5 8.1 271.9 8.7 271.1 8.7 Z M 284.6 15.5 C 284.1 14 282.9 13 281.5 13 C 279.1 13 278 15 278 17.5 C 278 19.9 279.1 21.9 281.5 21.9 C 282.9 21.9 284.1 20.9 284.6 19.4 C 284.6 19.4 284.6 15.5 284.6 15.5 Z M 289.3 29.7 C 289.28 29.73 289.3 30.4 289.3 30.4 L 282.2 30.4 C 282.2 30.4 282.18 29.73 282.2 29.7 C 284.3 29.7 284.6 29.2 284.6 26.1 C 284.6 26.1 284.6 21.3 284.6 21.3 C 283.7 22.4 282.4 23.2 280.8 23.2 C 277.9 23.2 275.5 20.6 275.5 17.5 C 275.5 14.3 277.9 11.8 280.8 11.8 C 282.5 11.8 283.9 12.6 284.8 13.9 C 284.81 13.86 286.2 11.8 286.2 11.8 L 286.8 11.8 C 286.8 11.8 286.83 26.13 286.8 26.1 C 286.8 29.2 287.2 29.7 289.3 29.7 Z M 299.7 23.2 C 299.6 22.8 299.3 21.7 299.3 21.2 C 298.5 22 297 23.2 295.2 23.2 C 292.3 23.2 291.3 21.1 291.3 18.5 C 291.3 18.5 291.3 16.6 291.3 16.6 C 291.3 13.5 291 12.9 288.9 12.9 C 288.9 12.93 288.9 12.3 288.9 12.3 L 293.5 12.3 C 293.5 12.3 293.55 18.35 293.5 18.4 C 293.5 20.4 294.2 21.7 295.9 21.7 C 297.1 21.7 299.3 20.5 299.3 18.6 C 299.3 18.6 299.3 16.6 299.3 16.6 C 299.3 13.5 298.9 12.9 296.8 12.9 C 296.77 12.93 296.8 12.3 296.8 12.3 L 301.4 12.3 C 301.4 12.3 301.42 18.1 301.4 18.1 C 301.4 21.2 301.8 21.7 303.9 21.7 C 303.9 21.73 303.9 22.4 303.9 22.4 C 303.9 22.4 299.75 23.16 299.7 23.2 Z M 312.5 15.5 C 312.8 14.5 312.3 13 310.3 13 C 308.9 13 307.8 14 307.4 15.5 C 307.4 15.5 312.5 15.5 312.5 15.5 Z M 311.2 21.9 C 312.2 21.9 313.7 21.3 314.6 20.4 C 314.6 20.4 315.2 21.1 315.2 21.1 C 314.1 22.3 312.2 23.2 310.4 23.2 C 307 23.2 304.7 20.6 304.7 17.5 C 304.7 14.2 307.5 11.8 310.4 11.8 C 313.2 11.8 315.4 14 314.6 16.7 C 314.6 16.7 307.2 16.7 307.2 16.7 C 306.8 19.6 308 21.9 311.2 21.9 Z M 320.9 23.2 C 318.7 23.2 317.5 21 317.5 23.2 C 317.54 23.16 316.9 23.2 316.9 23.2 L 316.9 18.6 C 316.9 18.6 317.54 18.63 317.5 18.6 C 317.5 20 318.7 22.1 320.9 22.1 C 321.9 22.1 322.7 21.4 322.7 20.5 C 322.7 19.7 322 19.2 320.9 18.6 C 320.9 18.6 319.2 17.7 319.2 17.7 C 317.7 16.9 317.2 15.6 317.2 14.6 C 317.2 12.9 318.7 11.8 320.3 11.8 C 322.7 11.8 323.1 13.4 323.1 11.8 C 323.12 11.78 323.8 11.8 323.8 11.8 L 323.8 15.4 C 323.8 15.4 323.12 15.38 323.1 15.4 C 323.1 14.1 322.2 12.8 320.6 12.8 C 319.6 12.8 319 13.3 319 14.1 C 319 14.8 319.6 15.3 320.9 16 C 320.9 16 322.4 16.8 322.4 16.8 C 323.8 17.6 324.5 18.7 324.5 19.8 C 324.5 21.8 322.9 23.2 320.9 23.2 Z M 340.9 23 C 339.7 23 339 22.3 338.8 21.2 C 337.3 22.5 336.2 23 334.9 23 C 333.4 23 332.1 22.1 332.1 20.4 C 332.1 17.8 335.2 16.6 338.7 16 C 338.7 13.7 338.4 12.8 336.7 12.8 C 336 12.8 334.9 13.3 334.9 14.3 C 334.9 14.9 334.4 15.3 333.8 15.3 C 333.2 15.3 332.8 14.9 332.8 14.3 C 332.8 12.8 334.7 11.8 336.7 11.8 C 339.7 11.8 340.9 13.1 340.9 16 C 340.9 16 340.9 20.7 340.9 20.7 C 340.9 21.5 341.2 21.9 341.7 21.9 C 342 21.9 342.3 21.6 342.5 21.4 C 342.5 21.4 343 22 343 22 C 342.4 22.6 341.6 23 340.9 23 Z M 338.7 17 C 335.8 17.7 334.5 18.7 334.5 20.1 C 334.5 21 335.1 21.6 335.9 21.6 C 336.6 21.6 337.3 21.4 338.7 20.1 C 338.7 20.1 338.7 17 338.7 17 Z M 353.3 11.8 C 356.1 11.8 357.3 13.8 357.3 16.4 C 357.3 16.4 357.3 18.4 357.3 18.4 C 357.3 21.5 357.7 22 359.8 22 C 359.76 21.98 359.8 22.6 359.8 22.6 L 352.7 22.6 C 352.7 22.6 352.66 21.98 352.7 22 C 354.7 22 355.1 21.5 355.1 18.4 C 355.1 18.4 355.1 16.6 355.1 16.6 C 355.1 14.5 354.4 13.2 352.5 13.2 C 350.8 13.2 349 14.6 349 16.3 C 349 16.3 349 18.4 349 18.4 C 349 21.5 349.2 22 351.1 22 C 351.14 21.98 351.1 22.6 351.1 22.6 L 344.3 22.6 C 344.3 22.6 344.32 21.98 344.3 22 C 346.4 22 346.8 21.5 346.8 18.4 C 346.8 18.4 346.8 16.8 346.8 16.8 C 346.8 13.7 346.4 13.2 344.3 13.2 C 344.32 13.21 344.3 12.6 344.3 12.6 C 344.3 12.6 348.45 11.78 348.4 11.8 C 348.6 12.1 348.9 13.4 349 14 C 349.8 13 351.2 11.8 353.3 11.8 Z M 369.7 15.5 C 369.2 14 368 13 366.6 13 C 364.2 13 363.1 15 363.1 17.5 C 363.1 19.9 364.2 21.9 366.6 21.9 C 368 21.9 369.2 20.9 369.7 19.5 C 369.7 19.5 369.7 15.5 369.7 15.5 Z M 369.7 8.6 C 369.7 5.5 369.4 4.9 367.3 4.9 C 367.28 4.93 367.3 4.3 367.3 4.3 L 371.9 3.5 C 371.9 3.5 371.93 18.1 371.9 18.1 C 371.9 21.2 372.3 21.7 374.4 21.7 C 374.38 21.73 374.4 22.4 374.4 22.4 C 374.4 22.4 370.26 23.16 370.3 23.2 C 370.1 22.8 369.9 21.8 369.8 21.3 C 368.9 22.4 367.7 23.2 365.9 23.2 C 363 23.2 360.6 20.6 360.6 17.5 C 360.6 14.3 363 11.8 365.9 11.8 C 367.5 11.8 368.8 12.5 369.7 13.6 C 369.7 13.6 369.7 8.6 369.7 8.6 Z M 381.5 22.6 C 381.5 22.6 381.51 21.98 381.5 22 C 383.6 22 384 21.5 384 18.4 C 384 18.4 384 16.8 384 16.8 C 384 13.7 383.6 13.2 381.5 13.2 C 381.51 13.21 381.5 12.6 381.5 12.6 L 386.2 11.8 C 386.2 11.8 386.16 18.35 386.2 18.4 C 386.2 21.5 386.5 22 388.6 22 C 388.61 21.98 388.6 22.6 388.6 22.6 L 381.5 22.6 Z M 385 8.7 C 384.3 8.7 383.7 8.1 383.7 7.3 C 383.7 6.6 384.3 6 385 6 C 385.8 6 386.4 6.6 386.4 7.3 C 386.4 8.1 385.8 8.7 385 8.7 Z M 399 11.8 C 401.8 11.8 403 13.8 403 16.4 C 403 16.4 403 18.4 403 18.4 C 403 21.5 403.4 22 405.4 22 C 405.44 21.98 405.4 22.6 405.4 22.6 L 398.3 22.6 C 398.3 22.6 398.34 21.98 398.3 22 C 400.4 22 400.8 21.5 400.8 18.4 C 400.8 18.4 400.8 16.6 400.8 16.6 C 400.8 14.5 400.1 13.2 398.2 13.2 C 396.5 13.2 394.7 14.6 394.7 16.3 C 394.7 16.3 394.7 18.4 394.7 18.4 C 394.7 21.5 394.9 22 396.8 22 C 396.82 21.98 396.8 22.6 396.8 22.6 L 390 22.6 C 390 22.6 390 21.98 390 22 C 392.1 22 392.5 21.5 392.5 18.4 C 392.5 18.4 392.5 16.8 392.5 16.8 C 392.5 13.7 392.1 13.2 390 13.2 C 390 13.21 390 12.6 390 12.6 C 390 12.6 394.13 11.78 394.1 11.8 C 394.3 12.1 394.6 13.4 394.7 14 C 395.5 13 396.9 11.8 399 11.8 Z M 405.7 13.4 C 405.7 13.4 405.74 12.65 405.7 12.6 C 407.6 12.2 408.3 10.9 408.5 8.9 C 408.5 8.9 409.6 8.9 409.6 8.9 L 409.6 12.3 L 412.3 12.3 L 412.3 13.4 L 409.6 13.4 C 409.6 13.4 409.56 19.65 409.6 19.7 C 409.6 21.1 410 21.9 411 21.9 C 411.5 21.9 412.3 21.5 413 20.8 C 413 20.8 413.5 21.4 413.5 21.4 C 412.6 22.4 411.3 23.2 410.2 23.2 C 408.5 23.2 407.4 22.1 407.4 19.7 C 407.35 19.65 407.4 13.4 407.4 13.4 L 405.7 13.4 Z M 422.3 15.5 C 422.6 14.5 422.1 13 420.1 13 C 418.7 13 417.6 14 417.1 15.5 C 417.1 15.5 422.3 15.5 422.3 15.5 Z M 421 21.9 C 422 21.9 423.5 21.3 424.4 20.4 C 424.4 20.4 425 21.1 425 21.1 C 423.9 22.3 422 23.2 420.2 23.2 C 416.8 23.2 414.5 20.6 414.5 17.5 C 414.5 14.2 417.3 11.8 420.2 11.8 C 423 11.8 425.2 14 424.4 16.7 C 424.4 16.7 417 16.7 417 16.7 C 416.6 19.6 417.8 21.9 421 21.9 Z M 435.6 15.2 C 435 15.2 434.5 14.6 434.5 14 C 434.5 13.4 434.1 13 433.5 13 C 432.8 13 431.1 14.2 431.1 16.6 C 431.1 16.6 431.1 18.4 431.1 18.4 C 431.1 21.5 431.5 22 433.6 22 C 433.58 21.98 433.6 22.6 433.6 22.6 L 426.5 22.6 C 426.5 22.6 426.48 21.98 426.5 22 C 428.5 22 428.9 21.5 428.9 18.4 C 428.9 18.4 428.9 16.8 428.9 16.8 C 428.9 13.7 428.5 13.2 426.5 13.2 C 426.48 13.21 426.5 12.6 426.5 12.6 C 426.5 12.6 430.6 11.78 430.6 11.8 C 430.8 12.1 431 13.4 431.1 14 C 431.8 12.8 433.1 11.8 434.4 11.8 C 436.1 11.8 436.8 12.9 436.8 13.7 C 436.8 14.4 436.6 15.2 435.6 15.2 Z M 445.8 13 C 444.4 13 443.2 14 442.6 15.4 C 442.6 15.4 442.6 19.4 442.6 19.4 C 443.2 20.9 444.4 21.9 445.8 21.9 C 448.2 21.9 449.3 19.9 449.3 17.5 C 449.3 15 448.2 13 445.8 13 Z M 445.1 29.7 C 445.09 29.73 445.1 30.4 445.1 30.4 L 438 30.4 C 438 30.4 437.99 29.73 438 29.7 C 440.1 29.7 440.4 29.2 440.4 26.1 C 440.4 26.1 440.4 16.8 440.4 16.8 C 440.4 13.7 440.1 13.2 438 13.2 C 437.99 13.21 438 12.6 438 12.6 C 438 12.6 442.15 11.78 442.1 11.8 C 442.3 12.1 442.5 13.2 442.6 13.7 C 443.5 12.6 444.7 11.8 446.5 11.8 C 449.4 11.8 451.8 14.3 451.8 17.5 C 451.8 20.6 449.4 23.2 446.5 23.2 C 444.9 23.2 443.6 22.4 442.6 21.3 C 442.6 21.3 442.6 26.1 442.6 26.1 C 442.6 29.2 443 29.7 445.1 29.7 Z M 462.2 15.2 C 461.6 15.2 461.1 14.6 461.1 14 C 461.1 13.4 460.7 13 460.1 13 C 459.4 13 457.7 14.2 457.7 16.6 C 457.7 16.6 457.7 18.4 457.7 18.4 C 457.7 21.5 458.1 22 460.2 22 C 460.16 21.98 460.2 22.6 460.2 22.6 L 453.1 22.6 C 453.1 22.6 453.06 21.98 453.1 22 C 455.1 22 455.5 21.5 455.5 18.4 C 455.5 18.4 455.5 16.8 455.5 16.8 C 455.5 13.7 455.1 13.2 453.1 13.2 C 453.06 13.21 453.1 12.6 453.1 12.6 C 453.1 12.6 457.19 11.78 457.2 11.8 C 457.3 12.1 457.6 13.4 457.7 14 C 458.3 12.8 459.7 11.8 461 11.8 C 462.7 11.8 463.4 12.9 463.4 13.7 C 463.4 14.4 463.1 15.2 462.2 15.2 Z M 472.5 15.5 C 472.8 14.5 472.3 13 470.2 13 C 468.9 13 467.8 14 467.3 15.5 C 467.3 15.5 472.5 15.5 472.5 15.5 Z M 471.2 21.9 C 472.2 21.9 473.7 21.3 474.6 20.4 C 474.6 20.4 475.1 21.1 475.1 21.1 C 474 22.3 472.2 23.2 470.4 23.2 C 467 23.2 464.7 20.6 464.7 17.5 C 464.7 14.2 467.5 11.8 470.4 11.8 C 473.2 11.8 475.4 14 474.6 16.7 C 474.6 16.7 467.1 16.7 467.1 16.7 C 466.8 19.6 468 21.9 471.2 21.9 Z M 476.2 13.4 C 476.2 13.4 476.15 12.65 476.2 12.6 C 478 12.2 478.7 10.9 478.9 8.9 C 478.91 8.9 480 8.9 480 8.9 L 480 12.3 L 482.7 12.3 L 482.7 13.4 L 480 13.4 C 480 13.4 479.97 19.65 480 19.7 C 480 21.1 480.4 21.9 481.4 21.9 C 481.9 21.9 482.7 21.5 483.4 20.8 C 483.4 20.8 483.9 21.4 483.9 21.4 C 483 22.4 481.7 23.2 480.6 23.2 C 478.9 23.2 477.8 22.1 477.8 19.7 C 477.77 19.65 477.8 13.4 477.8 13.4 L 476.2 13.4 Z M 485.3 22.6 C 485.3 22.6 485.25 21.98 485.3 22 C 487.3 22 487.7 21.5 487.7 18.4 C 487.7 18.4 487.7 16.8 487.7 16.8 C 487.7 13.7 487.3 13.2 485.3 13.2 C 485.25 13.21 485.3 12.6 485.3 12.6 L 489.9 11.8 C 489.9 11.8 489.9 18.35 489.9 18.4 C 489.9 21.5 490.3 22 492.4 22 C 492.35 21.98 492.4 22.6 492.4 22.6 L 485.3 22.6 Z M 488.8 8.7 C 488 8.7 487.4 8.1 487.4 7.3 C 487.4 6.6 488 6 488.8 6 C 489.5 6 490.2 6.6 490.2 7.3 C 490.2 8.1 489.5 8.7 488.8 8.7 Z M 501.7 14.8 C 501.7 14.76 498.2 23.2 498.2 23.2 L 497.6 23.2 C 497.6 23.2 493.8 14.76 493.8 14.8 C 493.2 13.4 492.7 12.9 491.7 12.9 C 491.66 12.93 491.7 12.3 491.7 12.3 L 497.2 12.3 C 497.2 12.3 497.18 12.93 497.2 12.9 C 495.7 12.9 495.6 13.3 496.2 14.8 C 496.18 14.76 498.4 19.7 498.4 19.7 C 498.4 19.7 500.46 14.76 500.5 14.8 C 501 13.4 500.9 12.9 499.6 12.9 C 499.56 12.93 499.6 12.3 499.6 12.3 L 503.9 12.3 C 503.9 12.3 503.9 12.93 503.9 12.9 C 502.8 12.9 502.3 13.4 501.7 14.8 Z M 511.9 15.5 C 512.2 14.5 511.7 13 509.7 13 C 508.3 13 507.2 14 506.7 15.5 C 506.7 15.5 511.9 15.5 511.9 15.5 Z M 510.6 21.9 C 511.6 21.9 513.1 21.3 514 20.4 C 514 20.4 514.6 21.1 514.6 21.1 C 513.5 22.3 511.6 23.2 509.8 23.2 C 506.4 23.2 504.1 20.6 504.1 17.5 C 504.1 14.2 506.9 11.8 509.8 11.8 C 512.6 11.8 514.8 14 514 16.7 C 514 16.7 506.6 16.7 506.6 16.7 C 506.2 19.6 507.4 21.9 510.6 21.9 Z M 530.3 15.5 C 530.7 14.5 530.1 13 528.1 13 C 526.8 13 525.6 14 525.2 15.5 C 525.2 15.5 530.3 15.5 530.3 15.5 Z M 529 21.9 C 530.1 21.9 531.5 21.3 532.4 20.4 C 532.4 20.4 533 21.1 533 21.1 C 531.9 22.3 530 23.2 528.3 23.2 C 524.8 23.2 522.5 20.6 522.5 17.5 C 522.5 14.2 525.4 11.8 528.3 11.8 C 531 11.8 533.2 14 532.5 16.7 C 532.5 16.7 525 16.7 525 16.7 C 524.6 19.6 525.8 21.9 529 21.9 Z M 538.1 20.2 C 536.9 21.4 537.2 22 538.7 22 C 538.75 21.98 538.7 22.6 538.7 22.6 L 534 22.6 C 534 22.6 533.97 21.98 534 22 C 534.6 22 535.3 21.5 536.7 20.2 C 536.67 20.18 539 17.7 539 17.7 C 539 17.7 536.89 14.76 536.9 14.8 C 535.8 13.3 535.2 12.9 534.2 12.9 C 534.16 12.93 534.2 12.3 534.2 12.3 L 540.4 12.3 C 540.4 12.3 540.42 12.93 540.4 12.9 C 538.7 12.9 538.4 13.3 539.5 14.8 C 539.52 14.76 540.5 16.1 540.5 16.1 C 540.5 16.1 541.82 14.76 541.8 14.8 C 543.1 13.5 542.4 12.9 541.2 12.9 C 541.17 12.93 541.2 12.3 541.2 12.3 L 546.2 12.3 C 546.2 12.3 546.22 12.93 546.2 12.9 C 545.4 12.9 544.5 13.5 543.2 14.8 C 543.24 14.76 541.1 17 541.1 17 C 541.1 17 543.46 20.18 543.5 20.2 C 544.4 21.6 545.2 22 546.4 22 C 546.41 21.98 546.4 22.6 546.4 22.6 L 539.9 22.6 C 539.9 22.6 539.9 21.98 539.9 22 C 541.6 22 541.7 21.4 540.8 20.2 C 540.83 20.18 539.6 18.5 539.6 18.5 C 539.6 18.5 538.1 20.18 538.1 20.2 Z M 555 13 C 553.5 13 552.4 14 551.8 15.4 C 551.8 15.4 551.8 19.4 551.8 19.4 C 552.4 20.9 553.5 21.9 555 21.9 C 557.3 21.9 558.5 19.9 558.5 17.5 C 558.5 15 557.3 13 555 13 Z M 554.2 29.7 C 554.25 29.73 554.2 30.4 554.2 30.4 L 547.1 30.4 C 547.1 30.4 547.15 29.73 547.1 29.7 C 549.2 29.7 549.6 29.2 549.6 26.1 C 549.6 26.1 549.6 16.8 549.6 16.8 C 549.6 13.7 549.2 13.2 547.1 13.2 C 547.15 13.21 547.1 12.6 547.1 12.6 C 547.1 12.6 551.3 11.78 551.3 11.8 C 551.5 12.1 551.7 13.2 551.8 13.7 C 552.7 12.6 553.9 11.8 555.6 11.8 C 558.6 11.8 561 14.3 561 17.5 C 561 20.6 558.6 23.2 555.6 23.2 C 554.1 23.2 552.7 22.4 551.8 21.3 C 551.8 21.3 551.8 26.1 551.8 26.1 C 551.8 29.2 552.2 29.7 554.2 29.7 Z M 570.9 15.5 C 571.2 14.5 570.7 13 568.6 13 C 567.3 13 566.1 14 565.7 15.5 C 565.7 15.5 570.9 15.5 570.9 15.5 Z M 569.6 21.9 C 570.6 21.9 572.1 21.3 573 20.4 C 573 20.4 573.5 21.1 573.5 21.1 C 572.4 22.3 570.6 23.2 568.8 23.2 C 565.4 23.2 563 20.6 563 17.5 C 563 14.2 565.9 11.8 568.8 11.8 C 571.5 11.8 573.7 14 573 16.7 C 573 16.7 565.5 16.7 565.5 16.7 C 565.2 19.6 566.4 21.9 569.6 21.9 Z M 584.2 15.2 C 583.6 15.2 583.1 14.6 583.1 14 C 583.1 13.4 582.7 13 582.1 13 C 581.4 13 579.7 14.2 579.7 16.6 C 579.7 16.6 579.7 18.4 579.7 18.4 C 579.7 21.5 580.1 22 582.1 22 C 582.15 21.98 582.1 22.6 582.1 22.6 L 575 22.6 C 575 22.6 575.05 21.98 575 22 C 577.1 22 577.5 21.5 577.5 18.4 C 577.5 18.4 577.5 16.8 577.5 16.8 C 577.5 13.7 577.1 13.2 575 13.2 C 575.05 13.21 575 12.6 575 12.6 C 575 12.6 579.17 11.78 579.2 11.8 C 579.3 12.1 579.6 13.4 579.7 14 C 580.3 12.8 581.7 11.8 583 11.8 C 584.7 11.8 585.4 12.9 585.4 13.7 C 585.4 14.4 585.1 15.2 584.2 15.2 Z M 586.7 13.4 C 586.7 13.4 586.69 12.65 586.7 12.6 C 588.6 12.2 589.2 10.9 589.5 8.9 C 589.45 8.9 590.5 8.9 590.5 8.9 L 590.5 12.3 L 593.2 12.3 L 593.2 13.4 L 590.5 13.4 C 590.5 13.4 590.51 19.65 590.5 19.7 C 590.5 21.1 590.9 21.9 591.9 21.9 C 592.5 21.9 593.2 21.5 593.9 20.8 C 593.9 20.8 594.4 21.4 594.4 21.4 C 593.6 22.4 592.2 23.2 591.2 23.2 C 589.5 23.2 588.3 22.1 588.3 19.7 C 588.3 19.65 588.3 13.4 588.3 13.4 L 586.7 13.4 Z M 595.8 22.6 C 595.8 22.6 595.79 21.98 595.8 22 C 597.8 22 598.2 21.5 598.2 18.4 C 598.2 18.4 598.2 16.8 598.2 16.8 C 598.2 13.7 597.8 13.2 595.8 13.2 C 595.79 13.21 595.8 12.6 595.8 12.6 L 600.4 11.8 C 600.4 11.8 600.44 18.35 600.4 18.4 C 600.4 21.5 600.8 22 602.9 22 C 602.89 21.98 602.9 22.6 602.9 22.6 L 595.8 22.6 Z M 599.3 8.7 C 598.6 8.7 598 8.1 598 7.3 C 598 6.6 598.6 6 599.3 6 C 600.1 6 600.7 6.6 600.7 7.3 C 600.7 8.1 600.1 8.7 599.3 8.7 Z M 608.3 23.2 C 606.2 23.2 605 21 605 23.2 C 604.98 23.16 604.4 23.2 604.4 23.2 L 604.4 18.6 C 604.4 18.6 604.98 18.63 605 18.6 C 605 20 606.2 22.1 608.4 22.1 C 609.4 22.1 610.1 21.4 610.1 20.5 C 610.1 19.7 609.5 19.2 608.4 18.6 C 608.4 18.6 606.7 17.7 606.7 17.7 C 605.2 16.9 604.6 15.6 604.6 14.6 C 604.6 12.9 606.2 11.8 607.8 11.8 C 610.1 11.8 610.6 13.4 610.6 11.8 C 610.56 11.78 611.2 11.8 611.2 11.8 L 611.2 15.4 C 611.2 15.4 610.56 15.38 610.6 15.4 C 610.6 14.1 609.6 12.8 608 12.8 C 607 12.8 606.5 13.3 606.5 14.1 C 606.5 14.8 607 15.3 608.4 16 C 608.4 16 609.8 16.8 609.8 16.8 C 611.2 17.6 612 18.7 612 19.8 C 612 21.8 610.3 23.2 608.3 23.2 Z M 621.5 15.5 C 621.9 14.5 621.3 13 619.3 13 C 617.9 13 616.8 14 616.4 15.5 C 616.4 15.5 621.5 15.5 621.5 15.5 Z M 620.2 21.9 C 621.2 21.9 622.7 21.3 623.6 20.4 C 623.6 20.4 624.2 21.1 624.2 21.1 C 623.1 22.3 621.2 23.2 619.4 23.2 C 616 23.2 613.7 20.6 613.7 17.5 C 613.7 14.2 616.6 11.8 619.4 11.8 C 622.2 11.8 624.4 14 623.7 16.7 C 623.7 16.7 616.2 16.7 616.2 16.7 C 615.8 19.6 617 21.9 620.2 21.9 Z M 641 15.2 C 640.4 15.2 639.9 14.6 639.9 14 C 639.9 13.4 639.5 13 638.9 13 C 638.2 13 636.5 14.2 636.5 16.6 C 636.5 16.6 636.5 18.4 636.5 18.4 C 636.5 21.5 636.9 22 638.9 22 C 638.94 21.98 638.9 22.6 638.9 22.6 L 631.8 22.6 C 631.8 22.6 631.84 21.98 631.8 22 C 633.9 22 634.3 21.5 634.3 18.4 C 634.3 18.4 634.3 16.8 634.3 16.8 C 634.3 13.7 633.9 13.2 631.8 13.2 C 631.84 13.21 631.8 12.6 631.8 12.6 C 631.8 12.6 635.96 11.78 636 11.8 C 636.1 12.1 636.4 13.4 636.5 14 C 637.1 12.8 638.5 11.8 639.7 11.8 C 641.4 11.8 642.2 12.9 642.2 13.7 C 642.2 14.4 641.9 15.2 641 15.2 Z M 651.2 15.5 C 651.6 14.5 651.1 13 649 13 C 647.7 13 646.5 14 646.1 15.5 C 646.1 15.5 651.2 15.5 651.2 15.5 Z M 649.9 21.9 C 651 21.9 652.5 21.3 653.4 20.4 C 653.4 20.4 653.9 21.1 653.9 21.1 C 652.8 22.3 650.9 23.2 649.2 23.2 C 645.8 23.2 643.4 20.6 643.4 17.5 C 643.4 14.2 646.3 11.8 649.2 11.8 C 651.9 11.8 654.1 14 653.4 16.7 C 653.4 16.7 645.9 16.7 645.9 16.7 C 645.5 19.6 646.7 21.9 649.9 21.9 Z M 664.2 14.8 C 664.19 14.76 660.7 23.2 660.7 23.2 L 660.1 23.2 C 660.1 23.2 656.28 14.76 656.3 14.8 C 655.7 13.4 655.2 12.9 654.1 12.9 C 654.14 12.93 654.1 12.3 654.1 12.3 L 659.7 12.3 C 659.7 12.3 659.66 12.93 659.7 12.9 C 658.2 12.9 658.1 13.3 658.7 14.8 C 658.67 14.76 660.9 19.7 660.9 19.7 C 660.9 19.7 662.95 14.76 662.9 14.8 C 663.5 13.4 663.4 12.9 662 12.9 C 662.05 12.93 662 12.3 662 12.3 L 666.4 12.3 C 666.4 12.3 666.39 12.93 666.4 12.9 C 665.3 12.9 664.7 13.4 664.2 14.8 Z M 674.4 15.5 C 674.7 14.5 674.2 13 672.1 13 C 670.8 13 669.7 14 669.2 15.5 C 669.2 15.5 674.4 15.5 674.4 15.5 Z M 673.1 21.9 C 674.1 21.9 675.6 21.3 676.5 20.4 C 676.5 20.4 677 21.1 677 21.1 C 676 22.3 674.1 23.2 672.3 23.2 C 668.9 23.2 666.6 20.6 666.6 17.5 C 666.6 14.2 669.4 11.8 672.3 11.8 C 675.1 11.8 677.3 14 676.5 16.7 C 676.5 16.7 669 16.7 669 16.7 C 668.7 19.6 669.9 21.9 673.1 21.9 Z M 687.5 23 C 686.3 23 685.5 22.3 685.4 21.2 C 683.9 22.5 682.7 23 681.5 23 C 680 23 678.7 22.1 678.7 20.4 C 678.7 17.8 681.8 16.6 685.3 16 C 685.3 13.7 685 12.8 683.2 12.8 C 682.5 12.8 681.5 13.3 681.5 14.3 C 681.5 14.9 681 15.3 680.4 15.3 C 679.8 15.3 679.3 14.9 679.3 14.3 C 679.3 12.8 681.3 11.8 683.3 11.8 C 686.3 11.8 687.5 13.1 687.5 16 C 687.5 16 687.5 20.7 687.5 20.7 C 687.5 21.5 687.8 21.9 688.2 21.9 C 688.5 21.9 688.9 21.6 689.1 21.4 C 689.1 21.4 689.5 22 689.5 22 C 688.9 22.6 688.2 23 687.5 23 Z M 685.3 17 C 682.4 17.7 681 18.7 681 20.1 C 681 21 681.7 21.6 682.5 21.6 C 683.1 21.6 683.9 21.4 685.3 20.1 C 685.3 20.1 685.3 17 685.3 17 Z M 690.6 22.6 C 690.6 22.6 690.61 21.98 690.6 22 C 692.7 22 693.1 21.5 693.1 18.4 C 693.1 18.4 693.1 8.6 693.1 8.6 C 693.1 5.5 692.7 4.9 690.6 4.9 C 690.61 4.93 690.6 4.3 690.6 4.3 L 695.3 3.5 C 695.3 3.5 695.26 18.35 695.3 18.4 C 695.3 21.5 695.7 22 697.7 22 C 697.71 21.98 697.7 22.6 697.7 22.6 L 690.6 22.6 Z M 709 23.2 C 706.8 23.2 705.6 21 705.6 23.2 C 705.64 23.16 705 23.2 705 23.2 L 705 18.6 C 705 18.6 705.64 18.63 705.6 18.6 C 705.6 20 706.8 22.1 709.1 22.1 C 710 22.1 710.8 21.4 710.8 20.5 C 710.8 19.7 710.1 19.2 709.1 18.6 C 709.1 18.6 707.3 17.7 707.3 17.7 C 705.8 16.9 705.3 15.6 705.3 14.6 C 705.3 12.9 706.8 11.8 708.4 11.8 C 710.8 11.8 711.2 13.4 711.2 11.8 C 711.22 11.78 711.9 11.8 711.9 11.8 L 711.9 15.4 C 711.9 15.4 711.22 15.38 711.2 15.4 C 711.2 14.1 710.3 12.8 708.7 12.8 C 707.7 12.8 707.1 13.3 707.1 14.1 C 707.1 14.8 707.7 15.3 709 16 C 709 16 710.5 16.8 710.5 16.8 C 711.9 17.6 712.6 18.7 712.6 19.8 C 712.6 21.8 711 23.2 709 23.2 Z M 724.4 23.2 C 724.3 22.8 724 21.7 723.9 21.2 C 723.2 22 721.7 23.2 719.9 23.2 C 717 23.2 716 21.1 716 18.5 C 716 18.5 716 16.6 716 16.6 C 716 13.5 715.7 12.9 713.6 12.9 C 713.58 12.93 713.6 12.3 713.6 12.3 L 718.2 12.3 C 718.2 12.3 718.23 18.35 718.2 18.4 C 718.2 20.4 718.9 21.7 720.6 21.7 C 721.8 21.7 723.9 20.5 723.9 18.6 C 723.9 18.6 723.9 16.6 723.9 16.6 C 723.9 13.5 723.5 12.9 721.5 12.9 C 721.46 12.93 721.5 12.3 721.5 12.3 L 726.1 12.3 C 726.1 12.3 726.11 18.1 726.1 18.1 C 726.1 21.2 726.5 21.7 728.6 21.7 C 728.59 21.73 728.6 22.4 728.6 22.4 C 728.6 22.4 724.43 23.16 724.4 23.2 Z M 739.1 15.2 C 738.5 15.2 738 14.6 738 14 C 738 13.4 737.7 13 737 13 C 736.3 13 734.7 14.2 734.7 16.6 C 734.7 16.6 734.7 18.4 734.7 18.4 C 734.7 21.5 735 22 737.1 22 C 737.11 21.98 737.1 22.6 737.1 22.6 L 730 22.6 C 730 22.6 730.01 21.98 730 22 C 732.1 22 732.5 21.5 732.5 18.4 C 732.5 18.4 732.5 16.8 732.5 16.8 C 732.5 13.7 732.1 13.2 730 13.2 C 730.01 13.21 730 12.6 730 12.6 C 730 12.6 734.14 11.78 734.1 11.8 C 734.3 12.1 734.6 13.4 734.7 14 C 735.3 12.8 736.7 11.8 737.9 11.8 C 739.6 11.8 740.4 12.9 740.4 13.7 C 740.4 14.4 740.1 15.2 739.1 15.2 Z M 749.3 13 C 747.9 13 746.8 14 746.2 15.4 C 746.2 15.4 746.2 19.4 746.2 19.4 C 746.8 20.9 747.9 21.9 749.3 21.9 C 751.7 21.9 752.8 19.9 752.8 17.5 C 752.8 15 751.7 13 749.3 13 Z M 748.6 29.7 C 748.62 29.73 748.6 30.4 748.6 30.4 L 741.5 30.4 C 741.5 30.4 741.52 29.73 741.5 29.7 C 743.6 29.7 744 29.2 744 26.1 C 744 26.1 744 16.8 744 16.8 C 744 13.7 743.6 13.2 741.5 13.2 C 741.52 13.21 741.5 12.6 741.5 12.6 C 741.5 12.6 745.68 11.78 745.7 11.8 C 745.8 12.1 746 13.2 746.1 13.7 C 747 12.6 748.3 11.8 750 11.8 C 752.9 11.8 755.3 14.3 755.3 17.5 C 755.3 20.6 752.9 23.2 750 23.2 C 748.4 23.2 747.1 22.4 746.2 21.3 C 746.2 21.3 746.2 26.1 746.2 26.1 C 746.2 29.2 746.6 29.7 748.6 29.7 Z M 765.7 15.2 C 765.1 15.2 764.6 14.6 764.6 14 C 764.6 13.4 764.3 13 763.6 13 C 762.9 13 761.2 14.2 761.2 16.6 C 761.2 16.6 761.2 18.4 761.2 18.4 C 761.2 21.5 761.6 22 763.7 22 C 763.69 21.98 763.7 22.6 763.7 22.6 L 756.6 22.6 C 756.6 22.6 756.59 21.98 756.6 22 C 758.6 22 759 21.5 759 18.4 C 759 18.4 759 16.8 759 16.8 C 759 13.7 758.6 13.2 756.6 13.2 C 756.59 13.21 756.6 12.6 756.6 12.6 C 756.6 12.6 760.72 11.78 760.7 11.8 C 760.9 12.1 761.2 13.4 761.2 14 C 761.9 12.8 763.3 11.8 764.5 11.8 C 766.2 11.8 766.9 12.9 766.9 13.7 C 766.9 14.4 766.7 15.2 765.7 15.2 Z M 768.4 22.6 C 768.4 22.6 768.39 21.98 768.4 22 C 770.4 22 770.8 21.5 770.8 18.4 C 770.8 18.4 770.8 16.8 770.8 16.8 C 770.8 13.7 770.4 13.2 768.4 13.2 C 768.39 13.21 768.4 12.6 768.4 12.6 L 773 11.8 C 773 11.8 773.04 18.35 773 18.4 C 773 21.5 773.4 22 775.5 22 C 775.49 21.98 775.5 22.6 775.5 22.6 L 768.4 22.6 Z M 771.9 8.7 C 771.2 8.7 770.6 8.1 770.6 7.3 C 770.6 6.6 771.2 6 771.9 6 C 772.7 6 773.3 6.6 773.3 7.3 C 773.3 8.1 772.7 8.7 771.9 8.7 Z M 780.9 23.2 C 778.8 23.2 777.6 21 777.6 23.2 C 777.58 23.16 777 23.2 777 23.2 L 777 18.6 C 777 18.6 777.58 18.63 777.6 18.6 C 777.6 20 778.8 22.1 781 22.1 C 782 22.1 782.7 21.4 782.7 20.5 C 782.7 19.7 782.1 19.2 781 18.6 C 781 18.6 779.3 17.7 779.3 17.7 C 777.8 16.9 777.2 15.6 777.2 14.6 C 777.2 12.9 778.8 11.8 780.4 11.8 C 782.7 11.8 783.2 13.4 783.2 11.8 C 783.16 11.78 783.8 11.8 783.8 11.8 L 783.8 15.4 C 783.8 15.4 783.16 15.38 783.2 15.4 C 783.2 14.1 782.2 12.8 780.6 12.8 C 779.6 12.8 779.1 13.3 779.1 14.1 C 779.1 14.8 779.6 15.3 781 16 C 781 16 782.4 16.8 782.4 16.8 C 783.8 17.6 784.6 18.7 784.6 19.8 C 784.6 21.8 782.9 23.2 780.9 23.2 Z M 786 22.6 C 786 22.6 786 21.98 786 22 C 788 22 788.4 21.5 788.4 18.4 C 788.4 18.4 788.4 16.8 788.4 16.8 C 788.4 13.7 788 13.2 786 13.2 C 786 13.21 786 12.6 786 12.6 L 790.6 11.8 C 790.6 11.8 790.65 18.35 790.6 18.4 C 790.6 21.5 791 22 793.1 22 C 793.1 21.98 793.1 22.6 793.1 22.6 L 786 22.6 Z M 789.5 8.7 C 788.8 8.7 788.2 8.1 788.2 7.3 C 788.2 6.6 788.8 6 789.5 6 C 790.3 6 790.9 6.6 790.9 7.3 C 790.9 8.1 790.3 8.7 789.5 8.7 Z M 803.5 11.8 C 806.2 11.8 807.5 13.8 807.5 16.4 C 807.5 16.4 807.5 18.4 807.5 18.4 C 807.5 21.5 807.9 22 809.9 22 C 809.93 21.98 809.9 22.6 809.9 22.6 L 802.8 22.6 C 802.8 22.6 802.83 21.98 802.8 22 C 804.8 22 805.3 21.5 805.3 18.4 C 805.3 18.4 805.3 16.6 805.3 16.6 C 805.3 14.5 804.6 13.2 802.7 13.2 C 801 13.2 799.1 14.6 799.1 16.3 C 799.1 16.3 799.1 18.4 799.1 18.4 C 799.1 21.5 799.4 22 801.3 22 C 801.31 21.98 801.3 22.6 801.3 22.6 L 794.5 22.6 C 794.5 22.6 794.49 21.98 794.5 22 C 796.5 22 796.9 21.5 796.9 18.4 C 796.9 18.4 796.9 16.8 796.9 16.8 C 796.9 13.7 796.5 13.2 794.5 13.2 C 794.49 13.21 794.5 12.6 794.5 12.6 C 794.5 12.6 798.61 11.78 798.6 11.8 C 798.8 12.1 799 13.4 799.1 14 C 800 13 801.4 11.8 803.5 11.8 Z M 816 12.8 C 814.5 12.8 813.8 14.2 813.8 16 C 813.8 17.8 814.5 19.2 816 19.2 C 817.6 19.2 818.3 17.8 818.3 16 C 818.3 14.2 817.6 12.8 816 12.8 Z M 816 22.7 C 820.3 23 821.6 24.9 821.6 26.8 C 821.6 29.3 819.2 30.9 816.1 30.9 C 810.9 30.9 808.8 27.1 812.7 25.1 C 812.7 25.1 813.2 25.4 813.2 25.4 C 810.6 28.3 813.7 29.7 816.1 29.7 C 818.1 29.7 820 28.8 820 27.3 C 820 25.9 818.4 25.4 815.8 25.1 C 813.3 24.9 811.4 24.1 811.4 22.3 C 811.4 21.1 812.4 20.3 814 19.8 C 812.5 19 811.4 17.7 811.4 16 C 811.4 13.7 813.5 11.8 816 11.8 C 817.3 11.8 818.4 12.2 819.2 13 C 819.8 12.3 820.9 11.8 821.6 11.8 C 823.7 11.8 823.8 14.3 822.6 14.4 C 821.2 14.5 822 13 820.7 13 C 820.5 13 820.1 13.1 819.8 13.5 C 820.3 14.2 820.7 15.1 820.7 16 C 820.7 18.3 818.6 19.9 816.6 20.2 C 815.3 20.4 813.2 20.7 813.2 21.5 C 813.2 22.4 815 22.6 816 22.7 Z M 839.3 15.5 C 838.7 14 837.5 13 836.1 13 C 833.7 13 832.6 15 832.6 17.5 C 832.6 19.9 833.7 21.9 836.1 21.9 C 837.5 21.9 838.7 20.9 839.3 19.5 C 839.3 19.5 839.3 15.5 839.3 15.5 Z M 839.3 8.6 C 839.3 5.5 838.9 4.9 836.8 4.9 C 836.81 4.93 836.8 4.3 836.8 4.3 L 841.5 3.5 C 841.5 3.5 841.46 18.1 841.5 18.1 C 841.5 21.2 841.9 21.7 843.9 21.7 C 843.9 21.73 843.9 22.4 843.9 22.4 C 843.9 22.4 839.78 23.16 839.8 23.2 C 839.6 22.8 839.4 21.8 839.3 21.3 C 838.4 22.4 837.2 23.2 835.5 23.2 C 832.5 23.2 830.1 20.6 830.1 17.5 C 830.1 14.3 832.5 11.8 835.5 11.8 C 837 11.8 838.3 12.5 839.3 13.6 C 839.3 13.6 839.3 8.6 839.3 8.6 Z M 852.5 15.5 C 852.9 14.5 852.3 13 850.3 13 C 848.9 13 847.8 14 847.4 15.5 C 847.4 15.5 852.5 15.5 852.5 15.5 Z M 851.2 21.9 C 852.2 21.9 853.7 21.3 854.6 20.4 C 854.6 20.4 855.2 21.1 855.2 21.1 C 854.1 22.3 852.2 23.2 850.4 23.2 C 847 23.2 844.7 20.6 844.7 17.5 C 844.7 14.2 847.5 11.8 850.4 11.8 C 853.2 11.8 855.4 14 854.6 16.7 C 854.6 16.7 847.2 16.7 847.2 16.7 C 846.8 19.6 848 21.9 851.2 21.9 Z M 856.2 13.4 C 856.2 13.4 856.2 12.65 856.2 12.6 C 858.1 12.2 858.7 10.9 859 8.9 C 858.95 8.9 860 8.9 860 8.9 L 860 12.3 L 862.7 12.3 L 862.7 13.4 L 860 13.4 C 860 13.4 860.01 19.65 860 19.7 C 860 21.1 860.4 21.9 861.4 21.9 C 862 21.9 862.7 21.5 863.4 20.8 C 863.4 20.8 863.9 21.4 863.9 21.4 C 863.1 22.4 861.7 23.2 860.7 23.2 C 859 23.2 857.8 22.1 857.8 19.7 C 857.81 19.65 857.8 13.4 857.8 13.4 L 856.2 13.4 Z M 874.1 23 C 872.9 23 872.1 22.3 872 21.2 C 870.5 22.5 869.3 23 868.1 23 C 866.6 23 865.3 22.1 865.3 20.4 C 865.3 17.8 868.4 16.6 871.9 16 C 871.9 13.7 871.6 12.8 869.8 12.8 C 869.1 12.8 868.1 13.3 868.1 14.3 C 868.1 14.9 867.6 15.3 867 15.3 C 866.4 15.3 865.9 14.9 865.9 14.3 C 865.9 12.8 867.9 11.8 869.9 11.8 C 872.9 11.8 874.1 13.1 874.1 16 C 874.1 16 874.1 20.7 874.1 20.7 C 874.1 21.5 874.4 21.9 874.8 21.9 C 875.1 21.9 875.5 21.6 875.7 21.4 C 875.7 21.4 876.1 22 876.1 22 C 875.5 22.6 874.8 23 874.1 23 Z M 871.9 17 C 869 17.7 867.6 18.7 867.6 20.1 C 867.6 21 868.3 21.6 869.1 21.6 C 869.7 21.6 870.5 21.4 871.9 20.1 C 871.9 20.1 871.9 17 871.9 17 Z M 877.5 22.6 C 877.5 22.6 877.5 21.98 877.5 22 C 879.5 22 879.9 21.5 879.9 18.4 C 879.9 18.4 879.9 16.8 879.9 16.8 C 879.9 13.7 879.5 13.2 877.5 13.2 C 877.5 13.21 877.5 12.6 877.5 12.6 L 882.1 11.8 C 882.1 11.8 882.15 18.35 882.1 18.4 C 882.1 21.5 882.5 22 884.6 22 C 884.59 21.98 884.6 22.6 884.6 22.6 L 877.5 22.6 Z M 881 8.7 C 880.3 8.7 879.7 8.1 879.7 7.3 C 879.7 6.6 880.3 6 881 6 C 881.8 6 882.4 6.6 882.4 7.3 C 882.4 8.1 881.8 8.7 881 8.7 Z M 885.7 22.6 C 885.7 22.6 885.7 21.98 885.7 22 C 887.8 22 888.2 21.5 888.2 18.4 C 888.2 18.4 888.2 8.6 888.2 8.6 C 888.2 5.5 887.8 4.9 885.7 4.9 C 885.7 4.93 885.7 4.3 885.7 4.3 L 890.4 3.5 C 890.4 3.5 890.35 18.35 890.4 18.4 C 890.4 21.5 890.8 22 892.8 22 C 892.8 21.98 892.8 22.6 892.8 22.6 L 885.7 22.6 Z M 898.2 23.2 C 896.1 23.2 894.9 21 894.9 23.2 C 894.91 23.16 894.3 23.2 894.3 23.2 L 894.3 18.6 C 894.3 18.6 894.91 18.63 894.9 18.6 C 894.9 20 896.1 22.1 898.3 22.1 C 899.3 22.1 900.1 21.4 900.1 20.5 C 900.1 19.7 899.4 19.2 898.3 18.6 C 898.3 18.6 896.6 17.7 896.6 17.7 C 895.1 16.9 894.5 15.6 894.5 14.6 C 894.5 12.9 896.1 11.8 897.7 11.8 C 900 11.8 900.5 13.4 900.5 11.8 C 900.49 11.78 901.1 11.8 901.1 11.8 L 901.1 15.4 C 901.1 15.4 900.49 15.38 900.5 15.4 C 900.5 14.1 899.6 12.8 898 12.8 C 896.9 12.8 896.4 13.3 896.4 14.1 C 896.4 14.8 896.9 15.3 898.3 16 C 898.3 16 899.8 16.8 899.8 16.8 C 901.1 17.6 901.9 18.7 901.9 19.8 C 901.9 21.8 900.2 23.2 898.2 23.2 Z M 906.7 22.9 C 905.7 22.9 905 22.1 905 21.3 C 905 20.4 905.7 19.6 906.7 19.6 C 907.7 19.6 908.5 20.4 908.5 21.3 C 908.5 22.1 907.7 22.9 906.7 22.9 Z " stroke="none" fill="#fff"/>  </g></svg>