<?xml version="1.0" standalone="no"?><!DOCTYPE svg PUBLIC "-//W3C//DTD SVG 1.1//EN" "http://www.w3.org/Graphics/SVG/1.1/DTD/svg11.dtd"><svg xmlns="http://www.w3.org/2000/svg" version="1.1" width="139px" height="265.3px" viewBox="0 0 139 265.3">  <desc>Dense crust indicates original surface prior to ritual additions</desc>  <defs/>  <g id="Polygon47575">    <path d="M 1.4 67.7 C 1.4 67.1 1.3 65.8 1.3 65.4 C 1.3 65.4 2.4 65.4 2.4 65.4 C 2.4 66 2.5 66.7 2.5 66.8 C 3 65.8 3.9 65.1 5.1 65.1 C 5.4 65.1 5.6 65.2 5.8 65.2 C 5.8 65.2 5.7 66.3 5.7 66.3 C 5.5 66.2 5.3 66.2 5.2 66.2 C 3.4 66.2 2.5 67.5 2.5 69.1 C 2.52 69.14 2.5 73.7 2.5 73.7 L 1.4 73.7 C 1.4 73.7 1.44 67.7 1.4 67.7 Z M 7.6 65.4 L 8.7 65.4 L 8.7 73.7 L 7.6 73.7 L 7.6 65.4 Z M 8.2 61.3 C 8.6 61.3 9 61.6 9 62.1 C 9 62.5 8.6 62.9 8.2 62.9 C 7.7 62.9 7.3 62.5 7.3 62.1 C 7.3 61.6 7.7 61.3 8.2 61.3 Z M 15.8 66.3 L 13.4 66.3 C 13.4 66.3 13.43 71.75 13.4 71.8 C 13.4 72.5 13.9 72.9 14.6 72.9 C 15 72.9 15.4 72.8 15.8 72.6 C 15.8 72.6 15.9 73.6 15.9 73.6 C 15.5 73.8 14.9 73.9 14.5 73.9 C 12.9 73.9 12.3 72.9 12.3 71.8 C 12.35 71.75 12.3 66.3 12.3 66.3 L 10.5 66.3 L 10.5 65.4 L 12.3 65.4 L 12.3 63 L 13.4 63 L 13.4 65.4 L 15.8 65.4 L 15.8 66.3 Z M 24.8 71.3 C 24.8 72 24.9 73.2 24.9 73.7 C 24.9 73.7 23.8 73.7 23.8 73.7 C 23.8 73.1 23.8 72.4 23.7 72.2 C 23.7 72.2 23.7 72.2 23.7 72.2 C 23.2 73.1 22.2 73.9 20.8 73.9 C 18.2 73.9 17.6 72.1 17.6 70.3 C 17.65 70.31 17.6 65.4 17.6 65.4 L 18.7 65.4 C 18.7 65.4 18.73 70.26 18.7 70.3 C 18.7 71.6 19.1 72.9 20.8 72.9 C 22.4 72.9 23.7 71.8 23.7 69.5 C 23.7 69.52 23.7 65.4 23.7 65.4 L 24.8 65.4 C 24.8 65.4 24.78 71.34 24.8 71.3 Z M 34 70.2 C 34 71.8 34 72.7 34.1 73.7 C 34.1 73.7 33.1 73.7 33.1 73.7 C 33 73.3 33 72.8 33 72.3 C 33 72.3 33 72.3 33 72.3 C 32.4 73.4 31.5 73.9 30.1 73.9 C 28.6 73.9 27.1 73.2 27.1 71.4 C 27.1 68.9 30.1 68.6 31.7 68.6 C 31.73 68.64 33 68.6 33 68.6 C 33 68.6 32.99 68.14 33 68.1 C 33 66.7 32 66.1 30.7 66.1 C 29.7 66.1 28.9 66.4 28.1 67.1 C 28.1 67.1 27.5 66.3 27.5 66.3 C 28.3 65.6 29.6 65.1 30.7 65.1 C 32.7 65.1 34 66 34 68.2 C 34 68.2 34 70.2 34 70.2 Z M 31.8 69.5 C 30 69.5 28.2 70 28.2 71.4 C 28.2 72.4 29.2 72.9 30.1 72.9 C 32.4 72.9 33 71.4 33 70.1 C 32.99 70.06 33 69.5 33 69.5 C 33 69.5 31.8 69.5 31.8 69.5 Z M 36.9 60.1 L 37.9 60.1 L 37.9 73.7 L 36.9 73.7 L 36.9 60.1 Z M 52.1 70.2 C 52.1 71.8 52.2 72.7 52.3 73.7 C 52.3 73.7 51.3 73.7 51.3 73.7 C 51.2 73.3 51.2 72.8 51.2 72.3 C 51.2 72.3 51.2 72.3 51.2 72.3 C 50.5 73.4 49.6 73.9 48.2 73.9 C 46.8 73.9 45.3 73.2 45.3 71.4 C 45.3 68.9 48.3 68.6 49.9 68.6 C 49.91 68.64 51.2 68.6 51.2 68.6 C 51.2 68.6 51.17 68.14 51.2 68.1 C 51.2 66.7 50.2 66.1 48.8 66.1 C 47.9 66.1 47 66.4 46.3 67.1 C 46.3 67.1 45.7 66.3 45.7 66.3 C 46.5 65.6 47.8 65.1 48.8 65.1 C 50.8 65.1 52.1 66 52.1 68.2 C 52.1 68.2 52.1 70.2 52.1 70.2 Z M 50 69.5 C 48.2 69.5 46.4 70 46.4 71.4 C 46.4 72.4 47.4 72.9 48.3 72.9 C 50.6 72.9 51.2 71.4 51.2 70.1 C 51.17 70.06 51.2 69.5 51.2 69.5 C 51.2 69.5 49.98 69.5 50 69.5 Z M 62.2 72.2 C 62.2 72.2 62.14 72.22 62.1 72.2 C 61.5 73.4 60.1 73.9 58.8 73.9 C 56.3 73.9 54.4 72.1 54.4 69.5 C 54.4 67 56.3 65.1 58.8 65.1 C 60.1 65.1 61.5 65.7 62.1 66.8 C 62.14 66.82 62.2 66.8 62.2 66.8 L 62.2 60.1 L 63.3 60.1 L 63.3 73.7 L 62.2 73.7 L 62.2 72.2 Z M 58.8 66.1 C 56.8 66.1 55.5 67.6 55.5 69.5 C 55.5 71.4 56.8 72.9 58.8 72.9 C 60.8 72.9 62.3 71.4 62.3 69.5 C 62.3 67.6 60.8 66.1 58.8 66.1 Z M 73.2 72.2 C 73.2 72.2 73.19 72.22 73.2 72.2 C 72.5 73.4 71.1 73.9 69.9 73.9 C 67.3 73.9 65.5 72.1 65.5 69.5 C 65.5 67 67.3 65.1 69.9 65.1 C 71.1 65.1 72.5 65.7 73.2 66.8 C 73.19 66.82 73.2 66.8 73.2 66.8 L 73.2 60.1 L 74.3 60.1 L 74.3 73.7 L 73.2 73.7 L 73.2 72.2 Z M 69.9 66.1 C 67.8 66.1 66.6 67.6 66.6 69.5 C 66.6 71.4 67.8 72.9 69.9 72.9 C 71.8 72.9 73.3 71.4 73.3 69.5 C 73.3 67.6 71.8 66.1 69.9 66.1 Z M 77.1 65.4 L 78.2 65.4 L 78.2 73.7 L 77.1 73.7 L 77.1 65.4 Z M 77.6 61.3 C 78.1 61.3 78.4 61.6 78.4 62.1 C 78.4 62.5 78.1 62.9 77.6 62.9 C 77.2 62.9 76.8 62.5 76.8 62.1 C 76.8 61.6 77.2 61.3 77.6 61.3 Z M 85.3 66.3 L 82.9 66.3 C 82.9 66.3 82.9 71.75 82.9 71.8 C 82.9 72.5 83.3 72.9 84.1 72.9 C 84.5 72.9 84.9 72.8 85.3 72.6 C 85.3 72.6 85.4 73.6 85.4 73.6 C 85 73.8 84.4 73.9 84 73.9 C 82.4 73.9 81.8 72.9 81.8 71.8 C 81.82 71.75 81.8 66.3 81.8 66.3 L 80 66.3 L 80 65.4 L 81.8 65.4 L 81.8 63 L 82.9 63 L 82.9 65.4 L 85.3 65.4 L 85.3 66.3 Z M 87.3 65.4 L 88.4 65.4 L 88.4 73.7 L 87.3 73.7 L 87.3 65.4 Z M 87.8 61.3 C 88.3 61.3 88.7 61.6 88.7 62.1 C 88.7 62.5 88.3 62.9 87.8 62.9 C 87.4 62.9 87 62.5 87 62.1 C 87 61.6 87.4 61.3 87.8 61.3 Z M 95.1 65.1 C 97.7 65.1 99.5 67 99.5 69.5 C 99.5 72.1 97.7 73.9 95.1 73.9 C 92.6 73.9 90.8 72.1 90.8 69.5 C 90.8 67 92.6 65.1 95.1 65.1 Z M 95.1 72.9 C 97.2 72.9 98.4 71.4 98.4 69.5 C 98.4 67.6 97.2 66.1 95.1 66.1 C 93.1 66.1 91.8 67.6 91.8 69.5 C 91.8 71.4 93.1 72.9 95.1 72.9 Z M 101.8 67.7 C 101.8 67.1 101.7 65.8 101.7 65.4 C 101.7 65.4 102.8 65.4 102.8 65.4 C 102.8 66 102.9 66.7 102.9 66.8 C 102.9 66.8 103 66.8 103 66.8 C 103.4 65.9 104.4 65.1 105.8 65.1 C 108.4 65.1 109 66.9 109 68.7 C 108.97 68.73 109 73.7 109 73.7 L 107.9 73.7 C 107.9 73.7 107.89 68.78 107.9 68.8 C 107.9 67.4 107.5 66.1 105.8 66.1 C 104.2 66.1 102.9 67.2 102.9 69.5 C 102.92 69.52 102.9 73.7 102.9 73.7 L 101.8 73.7 C 101.8 73.7 101.84 67.7 101.8 67.7 Z M 111.9 71.6 C 112.3 72.4 113.3 72.9 114.3 72.9 C 115.2 72.9 116.2 72.3 116.2 71.4 C 116.2 69.1 111.3 70.7 111.3 67.5 C 111.3 65.9 112.7 65.1 114.1 65.1 C 115.4 65.1 116.5 65.7 117 66.7 C 117 66.7 116.1 67.3 116.1 67.3 C 115.6 66.5 115.1 66.1 114.1 66.1 C 113.3 66.1 112.3 66.6 112.3 67.5 C 112.3 69.7 117.3 68 117.3 71.3 C 117.3 73 115.8 73.9 114.3 73.9 C 112.8 73.9 111.6 73.4 110.9 72.2 C 110.9 72.2 111.9 71.6 111.9 71.6 Z " stroke="none" fill="#000"/>  </g>  <g id="Polygon47574">    <path d="M 1.5 51.6 C 1.9 52.4 2.9 52.9 3.9 52.9 C 4.8 52.9 5.8 52.3 5.8 51.4 C 5.8 49.1 0.8 50.7 0.8 47.5 C 0.8 45.9 2.3 45.1 3.7 45.1 C 5 45.1 6.1 45.7 6.6 46.7 C 6.6 46.7 5.7 47.3 5.7 47.3 C 5.2 46.5 4.7 46.1 3.7 46.1 C 2.9 46.1 1.9 46.6 1.9 47.5 C 1.9 49.7 6.9 48 6.9 51.3 C 6.9 53 5.4 53.9 3.9 53.9 C 2.4 53.9 1.2 53.4 0.5 52.2 C 0.5 52.2 1.5 51.6 1.5 51.6 Z M 16.1 51.3 C 16.1 52 16.2 53.2 16.2 53.7 C 16.2 53.7 15.1 53.7 15.1 53.7 C 15.1 53.1 15 52.4 15 52.2 C 15 52.2 14.9 52.2 14.9 52.2 C 14.5 53.1 13.5 53.9 12.1 53.9 C 9.5 53.9 8.9 52.1 8.9 50.3 C 8.94 50.31 8.9 45.4 8.9 45.4 L 10 45.4 C 10 45.4 10.02 50.26 10 50.3 C 10 51.6 10.4 52.9 12.1 52.9 C 13.7 52.9 15 51.8 15 49.5 C 14.98 49.52 15 45.4 15 45.4 L 16.1 45.4 C 16.1 45.4 16.06 51.34 16.1 51.3 Z M 18.9 47.7 C 18.9 47.1 18.8 45.8 18.8 45.4 C 18.8 45.4 19.9 45.4 19.9 45.4 C 19.9 46 20 46.7 20 46.8 C 20.5 45.8 21.4 45.1 22.6 45.1 C 22.9 45.1 23.1 45.2 23.3 45.2 C 23.3 45.2 23.1 46.3 23.1 46.3 C 23 46.2 22.8 46.2 22.7 46.2 C 20.9 46.2 20 47.5 20 49.1 C 20.02 49.14 20 53.7 20 53.7 L 18.9 53.7 C 18.9 53.7 18.94 47.7 18.9 47.7 Z M 26.2 46.3 L 24.5 46.3 L 24.5 45.4 L 26.2 45.4 C 26.2 45.4 26.2 42.65 26.2 42.6 C 26.2 40.5 27.6 39.9 28.7 39.9 C 29.2 39.9 29.6 39.9 29.9 40.1 C 29.9 40.1 29.7 41 29.7 41 C 29.5 40.9 29.2 40.8 28.7 40.8 C 27.8 40.8 27.3 41.5 27.3 43 C 27.28 43.04 27.3 45.4 27.3 45.4 L 29.2 45.4 L 29.2 46.3 L 27.3 46.3 L 27.3 53.7 L 26.2 53.7 L 26.2 46.3 Z M 37.5 50.2 C 37.5 51.8 37.5 52.7 37.6 53.7 C 37.6 53.7 36.6 53.7 36.6 53.7 C 36.5 53.3 36.5 52.8 36.5 52.3 C 36.5 52.3 36.5 52.3 36.5 52.3 C 35.9 53.4 35 53.9 33.6 53.9 C 32.1 53.9 30.6 53.2 30.6 51.4 C 30.6 48.9 33.6 48.6 35.2 48.6 C 35.23 48.64 36.5 48.6 36.5 48.6 C 36.5 48.6 36.49 48.14 36.5 48.1 C 36.5 46.7 35.5 46.1 34.1 46.1 C 33.2 46.1 32.3 46.4 31.6 47.1 C 31.6 47.1 31 46.3 31 46.3 C 31.8 45.6 33.1 45.1 34.1 45.1 C 36.2 45.1 37.5 46 37.5 48.2 C 37.5 48.2 37.5 50.2 37.5 50.2 Z M 35.3 49.5 C 33.5 49.5 31.7 50 31.7 51.4 C 31.7 52.4 32.7 52.9 33.6 52.9 C 35.9 52.9 36.5 51.4 36.5 50.1 C 36.49 50.06 36.5 49.5 36.5 49.5 C 36.5 49.5 35.3 49.5 35.3 49.5 Z M 47.2 52.5 C 46.4 53.4 45.3 53.9 44.1 53.9 C 41.6 53.9 39.8 52.1 39.8 49.5 C 39.8 47 41.6 45.1 44.1 45.1 C 45.3 45.1 46.4 45.7 47.2 46.6 C 47.2 46.6 46.4 47.2 46.4 47.2 C 45.7 46.6 45 46.1 44.1 46.1 C 42.1 46.1 40.8 47.6 40.8 49.5 C 40.8 51.4 42.1 52.9 44.1 52.9 C 45 52.9 45.8 52.5 46.4 51.8 C 46.4 51.8 47.2 52.5 47.2 52.5 Z M 56.2 52.1 C 55.3 53.4 54 53.9 52.6 53.9 C 50 53.9 48.4 52.1 48.4 49.5 C 48.4 47 50.1 45.1 52.5 45.1 C 55.1 45.1 56.4 47.1 56.4 49 C 56.43 49.04 56.4 49.8 56.4 49.8 C 56.4 49.8 49.44 49.79 49.4 49.8 C 49.4 50.7 50.1 52.9 52.6 52.9 C 53.7 52.9 54.8 52.3 55.4 51.4 C 55.4 51.4 56.2 52.1 56.2 52.1 Z M 55.3 48.8 C 55.3 47.3 54.1 46.1 52.5 46.1 C 50.1 46.1 49.4 48.4 49.4 48.8 C 49.4 48.8 55.3 48.8 55.3 48.8 Z M 63.3 45.4 L 64.4 45.4 L 64.4 46.8 C 64.4 46.8 64.4 46.82 64.4 46.8 C 65.1 45.7 66.5 45.1 67.7 45.1 C 70.3 45.1 72.1 47 72.1 49.5 C 72.1 52.1 70.3 53.9 67.7 53.9 C 66.5 53.9 65.1 53.4 64.4 52.2 C 64.4 52.22 64.4 52.2 64.4 52.2 L 64.4 57.8 L 63.3 57.8 L 63.3 45.4 Z M 67.7 52.9 C 69.8 52.9 71 51.4 71 49.5 C 71 47.6 69.8 46.1 67.7 46.1 C 65.8 46.1 64.3 47.6 64.3 49.5 C 64.3 51.4 65.8 52.9 67.7 52.9 Z M 74.4 47.7 C 74.4 47.1 74.3 45.8 74.3 45.4 C 74.3 45.4 75.4 45.4 75.4 45.4 C 75.4 46 75.5 46.7 75.5 46.8 C 76 45.8 76.9 45.1 78.1 45.1 C 78.4 45.1 78.6 45.2 78.8 45.2 C 78.8 45.2 78.6 46.3 78.6 46.3 C 78.5 46.2 78.3 46.2 78.2 46.2 C 76.4 46.2 75.5 47.5 75.5 49.1 C 75.51 49.14 75.5 53.7 75.5 53.7 L 74.4 53.7 C 74.4 53.7 74.43 47.7 74.4 47.7 Z M 80.6 45.4 L 81.7 45.4 L 81.7 53.7 L 80.6 53.7 L 80.6 45.4 Z M 81.2 41.3 C 81.6 41.3 82 41.6 82 42.1 C 82 42.5 81.6 42.9 81.2 42.9 C 80.7 42.9 80.3 42.5 80.3 42.1 C 80.3 41.6 80.7 41.3 81.2 41.3 Z M 88.4 45.1 C 91 45.1 92.8 47 92.8 49.5 C 92.8 52.1 91 53.9 88.4 53.9 C 85.9 53.9 84.1 52.1 84.1 49.5 C 84.1 47 85.9 45.1 88.4 45.1 Z M 88.4 52.9 C 90.5 52.9 91.7 51.4 91.7 49.5 C 91.7 47.6 90.5 46.1 88.4 46.1 C 86.4 46.1 85.2 47.6 85.2 49.5 C 85.2 51.4 86.4 52.9 88.4 52.9 Z M 95.1 47.7 C 95.1 47.1 95.1 45.8 95.1 45.4 C 95.1 45.4 96.1 45.4 96.1 45.4 C 96.2 46 96.2 46.7 96.2 46.8 C 96.8 45.8 97.6 45.1 98.9 45.1 C 99.1 45.1 99.3 45.2 99.5 45.2 C 99.5 45.2 99.4 46.3 99.4 46.3 C 99.2 46.2 99.1 46.2 98.9 46.2 C 97.1 46.2 96.2 47.5 96.2 49.1 C 96.23 49.14 96.2 53.7 96.2 53.7 L 95.1 53.7 C 95.1 53.7 95.15 47.7 95.1 47.7 Z M 109.9 46.3 L 107.5 46.3 C 107.5 46.3 107.51 51.75 107.5 51.8 C 107.5 52.5 107.9 52.9 108.7 52.9 C 109.1 52.9 109.5 52.8 109.9 52.6 C 109.9 52.6 110 53.6 110 53.6 C 109.6 53.8 109 53.9 108.6 53.9 C 107 53.9 106.4 52.9 106.4 51.8 C 106.43 51.75 106.4 46.3 106.4 46.3 L 104.6 46.3 L 104.6 45.4 L 106.4 45.4 L 106.4 43 L 107.5 43 L 107.5 45.4 L 109.9 45.4 L 109.9 46.3 Z M 115.4 45.1 C 118 45.1 119.8 47 119.8 49.5 C 119.8 52.1 118 53.9 115.4 53.9 C 112.8 53.9 111 52.1 111 49.5 C 111 47 112.8 45.1 115.4 45.1 Z M 115.4 52.9 C 117.4 52.9 118.7 51.4 118.7 49.5 C 118.7 47.6 117.4 46.1 115.4 46.1 C 113.4 46.1 112.1 47.6 112.1 49.5 C 112.1 51.4 113.4 52.9 115.4 52.9 Z " stroke="none" fill="#000"/>  </g>  <g id="Polygon47573">    <path d="M 1.6 25.4 L 2.7 25.4 L 2.7 33.7 L 1.6 33.7 L 1.6 25.4 Z M 2.2 21.3 C 2.6 21.3 3 21.6 3 22.1 C 3 22.5 2.6 22.9 2.2 22.9 C 1.7 22.9 1.3 22.5 1.3 22.1 C 1.3 21.6 1.7 21.3 2.2 21.3 Z M 5.6 27.7 C 5.6 27.1 5.5 25.8 5.5 25.4 C 5.5 25.4 6.6 25.4 6.6 25.4 C 6.6 26 6.6 26.7 6.7 26.8 C 6.7 26.8 6.7 26.8 6.7 26.8 C 7.2 25.9 8.2 25.1 9.6 25.1 C 12.2 25.1 12.7 26.9 12.7 28.7 C 12.73 28.73 12.7 33.7 12.7 33.7 L 11.7 33.7 C 11.7 33.7 11.65 28.78 11.7 28.8 C 11.7 27.4 11.3 26.1 9.6 26.1 C 8 26.1 6.7 27.2 6.7 29.5 C 6.69 29.52 6.7 33.7 6.7 33.7 L 5.6 33.7 C 5.6 33.7 5.61 27.7 5.6 27.7 Z M 22.8 32.2 C 22.8 32.2 22.75 32.22 22.8 32.2 C 22.1 33.4 20.7 33.9 19.4 33.9 C 16.9 33.9 15 32.1 15 29.5 C 15 27 16.9 25.1 19.4 25.1 C 20.7 25.1 22.1 25.7 22.8 26.8 C 22.75 26.82 22.8 26.8 22.8 26.8 L 22.8 20.1 L 23.9 20.1 L 23.9 33.7 L 22.8 33.7 L 22.8 32.2 Z M 19.4 26.1 C 17.4 26.1 16.1 27.6 16.1 29.5 C 16.1 31.4 17.4 32.9 19.4 32.9 C 21.4 32.9 22.9 31.4 22.9 29.5 C 22.9 27.6 21.4 26.1 19.4 26.1 Z M 26.7 25.4 L 27.7 25.4 L 27.7 33.7 L 26.7 33.7 L 26.7 25.4 Z M 27.2 21.3 C 27.6 21.3 28 21.6 28 22.1 C 28 22.5 27.6 22.9 27.2 22.9 C 26.7 22.9 26.4 22.5 26.4 22.1 C 26.4 21.6 26.7 21.3 27.2 21.3 Z M 37.6 32.5 C 36.7 33.4 35.7 33.9 34.5 33.9 C 31.9 33.9 30.1 32.1 30.1 29.5 C 30.1 27 31.9 25.1 34.5 25.1 C 35.7 25.1 36.8 25.7 37.6 26.6 C 37.6 26.6 36.7 27.2 36.7 27.2 C 36.1 26.6 35.4 26.1 34.5 26.1 C 32.5 26.1 31.2 27.6 31.2 29.5 C 31.2 31.4 32.5 32.9 34.5 32.9 C 35.4 32.9 36.2 32.5 36.7 31.8 C 36.7 31.8 37.6 32.5 37.6 32.5 Z M 45.9 30.2 C 45.9 31.8 46 32.7 46.1 33.7 C 46.1 33.7 45.1 33.7 45.1 33.7 C 45 33.3 45 32.8 45 32.3 C 45 32.3 44.9 32.3 44.9 32.3 C 44.3 33.4 43.4 33.9 42 33.9 C 40.6 33.9 39.1 33.2 39.1 31.4 C 39.1 28.9 42.1 28.6 43.7 28.6 C 43.7 28.64 45 28.6 45 28.6 C 45 28.6 44.96 28.14 45 28.1 C 45 26.7 44 26.1 42.6 26.1 C 41.6 26.1 40.8 26.4 40.1 27.1 C 40.1 27.1 39.5 26.3 39.5 26.3 C 40.2 25.6 41.5 25.1 42.6 25.1 C 44.6 25.1 45.9 26 45.9 28.2 C 45.9 28.2 45.9 30.2 45.9 30.2 Z M 43.8 29.5 C 42 29.5 40.2 30 40.2 31.4 C 40.2 32.4 41.2 32.9 42.1 32.9 C 44.4 32.9 45 31.4 45 30.1 C 44.96 30.06 45 29.5 45 29.5 C 45 29.5 43.77 29.5 43.8 29.5 Z M 52.8 26.3 L 50.4 26.3 C 50.4 26.3 50.41 31.75 50.4 31.8 C 50.4 32.5 50.8 32.9 51.6 32.9 C 52 32.9 52.4 32.8 52.8 32.6 C 52.8 32.6 52.9 33.6 52.9 33.6 C 52.5 33.8 51.9 33.9 51.5 33.9 C 49.9 33.9 49.3 32.9 49.3 31.8 C 49.33 31.75 49.3 26.3 49.3 26.3 L 47.5 26.3 L 47.5 25.4 L 49.3 25.4 L 49.3 23 L 50.4 23 L 50.4 25.4 L 52.8 25.4 L 52.8 26.3 Z M 61.8 32.1 C 60.9 33.4 59.6 33.9 58.2 33.9 C 55.6 33.9 54 32.1 54 29.5 C 54 27 55.7 25.1 58.1 25.1 C 60.7 25.1 62 27.1 62 29 C 62.03 29.04 62 29.8 62 29.8 C 62 29.8 55.04 29.79 55 29.8 C 55 30.7 55.7 32.9 58.2 32.9 C 59.3 32.9 60.4 32.3 61 31.4 C 61 31.4 61.8 32.1 61.8 32.1 Z M 60.9 28.8 C 60.9 27.3 59.7 26.1 58.1 26.1 C 55.7 26.1 55 28.4 55 28.8 C 55 28.8 60.9 28.8 60.9 28.8 Z M 64.5 31.6 C 65 32.4 66 32.9 66.9 32.9 C 67.9 32.9 68.8 32.3 68.8 31.4 C 68.8 29.1 63.9 30.7 63.9 27.5 C 63.9 25.9 65.4 25.1 66.8 25.1 C 68.1 25.1 69.2 25.7 69.7 26.7 C 69.7 26.7 68.7 27.3 68.7 27.3 C 68.3 26.5 67.7 26.1 66.8 26.1 C 66 26.1 65 26.6 65 27.5 C 65 29.7 69.9 28 69.9 31.3 C 69.9 33 68.5 33.9 66.9 33.9 C 65.5 33.9 64.2 33.4 63.6 32.2 C 63.6 32.2 64.5 31.6 64.5 31.6 Z M 80.8 25.1 C 83.3 25.1 85.1 27 85.1 29.5 C 85.1 32.1 83.3 33.9 80.8 33.9 C 78.2 33.9 76.4 32.1 76.4 29.5 C 76.4 27 78.2 25.1 80.8 25.1 Z M 80.8 32.9 C 82.8 32.9 84.1 31.4 84.1 29.5 C 84.1 27.6 82.8 26.1 80.8 26.1 C 78.7 26.1 77.5 27.6 77.5 29.5 C 77.5 31.4 78.7 32.9 80.8 32.9 Z M 87.5 27.7 C 87.5 27.1 87.4 25.8 87.4 25.4 C 87.4 25.4 88.5 25.4 88.5 25.4 C 88.5 26 88.5 26.7 88.5 26.8 C 89.1 25.8 89.9 25.1 91.2 25.1 C 91.4 25.1 91.6 25.2 91.8 25.2 C 91.8 25.2 91.7 26.3 91.7 26.3 C 91.5 26.2 91.4 26.2 91.3 26.2 C 89.4 26.2 88.5 27.5 88.5 29.1 C 88.54 29.14 88.5 33.7 88.5 33.7 L 87.5 33.7 C 87.5 33.7 87.46 27.7 87.5 27.7 Z M 93.6 25.4 L 94.7 25.4 L 94.7 33.7 L 93.6 33.7 L 93.6 25.4 Z M 94.2 21.3 C 94.6 21.3 95 21.6 95 22.1 C 95 22.5 94.6 22.9 94.2 22.9 C 93.7 22.9 93.4 22.5 93.4 22.1 C 93.4 21.6 93.7 21.3 94.2 21.3 Z M 105.8 33.1 C 105.8 37.3 103.1 38 101.4 38 C 99.7 38 98.1 37.4 97.3 36.3 C 97.3 36.3 98.1 35.5 98.1 35.5 C 98.9 36.5 100.1 37 101.4 37 C 104.7 37 104.8 34.1 104.8 33.2 C 104.75 33.21 104.8 32.1 104.8 32.1 C 104.8 32.1 104.72 32.06 104.7 32.1 C 104.1 33 103 33.7 101.6 33.7 C 99.1 33.7 97.1 31.8 97.1 29.4 C 97.1 27.1 99.1 25.1 101.6 25.1 C 103 25.1 104.1 25.8 104.7 26.8 C 104.72 26.77 104.8 26.8 104.8 26.8 L 104.8 25.4 L 105.8 25.4 C 105.8 25.4 105.83 33.14 105.8 33.1 Z M 101.5 26.1 C 99.7 26.1 98.2 27.6 98.2 29.4 C 98.2 31.2 99.7 32.7 101.5 32.7 C 103.3 32.7 104.8 31.2 104.8 29.4 C 104.8 27.6 103.3 26.1 101.5 26.1 Z M 108.6 25.4 L 109.7 25.4 L 109.7 33.7 L 108.6 33.7 L 108.6 25.4 Z M 109.2 21.3 C 109.6 21.3 110 21.6 110 22.1 C 110 22.5 109.6 22.9 109.2 22.9 C 108.7 22.9 108.3 22.5 108.3 22.1 C 108.3 21.6 108.7 21.3 109.2 21.3 Z M 112.6 27.7 C 112.6 27.1 112.5 25.8 112.5 25.4 C 112.5 25.4 113.6 25.4 113.6 25.4 C 113.6 26 113.6 26.7 113.7 26.8 C 113.7 26.8 113.7 26.8 113.7 26.8 C 114.2 25.9 115.2 25.1 116.6 25.1 C 119.2 25.1 119.7 26.9 119.7 28.7 C 119.73 28.73 119.7 33.7 119.7 33.7 L 118.7 33.7 C 118.7 33.7 118.65 28.78 118.7 28.8 C 118.7 27.4 118.3 26.1 116.6 26.1 C 115 26.1 113.7 27.2 113.7 29.5 C 113.69 29.52 113.7 33.7 113.7 33.7 L 112.6 33.7 C 112.6 33.7 112.61 27.7 112.6 27.7 Z M 128.9 30.2 C 128.9 31.8 128.9 32.7 129 33.7 C 129 33.7 128 33.7 128 33.7 C 127.9 33.3 127.9 32.8 127.9 32.3 C 127.9 32.3 127.9 32.3 127.9 32.3 C 127.3 33.4 126.4 33.9 125 33.9 C 123.5 33.9 122 33.2 122 31.4 C 122 28.9 125 28.6 126.6 28.6 C 126.64 28.64 127.9 28.6 127.9 28.6 C 127.9 28.6 127.9 28.14 127.9 28.1 C 127.9 26.7 126.9 26.1 125.6 26.1 C 124.6 26.1 123.8 26.4 123 27.1 C 123 27.1 122.4 26.3 122.4 26.3 C 123.2 25.6 124.5 25.1 125.6 25.1 C 127.6 25.1 128.9 26 128.9 28.2 C 128.9 28.2 128.9 30.2 128.9 30.2 Z M 126.7 29.5 C 124.9 29.5 123.1 30 123.1 31.4 C 123.1 32.4 124.1 32.9 125 32.9 C 127.3 32.9 127.9 31.4 127.9 30.1 C 127.9 30.06 127.9 29.5 127.9 29.5 C 127.9 29.5 126.71 29.5 126.7 29.5 Z M 131.8 20.1 L 132.8 20.1 L 132.8 33.7 L 131.8 33.7 L 131.8 20.1 Z " stroke="none" fill="#000"/>  </g>  <g id="Polygon47572">    <path d="M 1.6 0.9 C 1.6 0.9 5.53 0.94 5.5 0.9 C 12.1 0.9 12.4 6.4 12.4 7.3 C 12.4 8.2 12.1 13.7 5.5 13.7 C 5.53 13.68 1.6 13.7 1.6 13.7 L 1.6 0.9 Z M 2.8 12.6 C 2.8 12.6 5.22 12.6 5.2 12.6 C 8.6 12.6 11.2 11 11.2 7.3 C 11.2 3.7 8.6 2 5.2 2 C 5.22 2.02 2.8 2 2.8 2 L 2.8 12.6 Z M 22 12.1 C 21.2 13.4 19.9 13.9 18.4 13.9 C 15.9 13.9 14.2 12.1 14.2 9.5 C 14.2 7 15.9 5.1 18.4 5.1 C 20.9 5.1 22.3 7.1 22.3 9 C 22.27 9.04 22.3 9.8 22.3 9.8 C 22.3 9.8 15.29 9.79 15.3 9.8 C 15.3 10.7 15.9 12.9 18.4 12.9 C 19.5 12.9 20.7 12.3 21.2 11.4 C 21.2 11.4 22 12.1 22 12.1 Z M 21.2 8.8 C 21.2 7.3 19.9 6.1 18.3 6.1 C 16 6.1 15.3 8.4 15.3 8.8 C 15.3 8.8 21.2 8.8 21.2 8.8 Z M 24.6 7.7 C 24.6 7.1 24.5 5.8 24.5 5.4 C 24.5 5.4 25.6 5.4 25.6 5.4 C 25.6 6 25.7 6.7 25.7 6.8 C 25.7 6.8 25.7 6.8 25.7 6.8 C 26.2 5.9 27.2 5.1 28.6 5.1 C 31.2 5.1 31.8 6.9 31.8 8.7 C 31.76 8.73 31.8 13.7 31.8 13.7 L 30.7 13.7 C 30.7 13.7 30.68 8.78 30.7 8.8 C 30.7 7.4 30.3 6.1 28.6 6.1 C 27 6.1 25.7 7.2 25.7 9.5 C 25.71 9.52 25.7 13.7 25.7 13.7 L 24.6 13.7 C 24.6 13.7 24.63 7.7 24.6 7.7 Z M 34.7 11.6 C 35.1 12.4 36.1 12.9 37.1 12.9 C 38 12.9 39 12.3 39 11.4 C 39 9.1 34 10.7 34 7.5 C 34 5.9 35.5 5.1 36.9 5.1 C 38.2 5.1 39.3 5.7 39.8 6.7 C 39.8 6.7 38.8 7.3 38.8 7.3 C 38.4 6.5 37.9 6.1 36.9 6.1 C 36.1 6.1 35.1 6.6 35.1 7.5 C 35.1 9.7 40.1 8 40.1 11.3 C 40.1 13 38.6 13.9 37 13.9 C 35.6 13.9 34.3 13.4 33.7 12.2 C 33.7 12.2 34.7 11.6 34.7 11.6 Z M 49.6 12.1 C 48.8 13.4 47.5 13.9 46 13.9 C 43.5 13.9 41.8 12.1 41.8 9.5 C 41.8 7 43.5 5.1 46 5.1 C 48.5 5.1 49.9 7.1 49.9 9 C 49.88 9.04 49.9 9.8 49.9 9.8 C 49.9 9.8 42.9 9.79 42.9 9.8 C 42.9 10.7 43.5 12.9 46 12.9 C 47.1 12.9 48.3 12.3 48.8 11.4 C 48.8 11.4 49.6 12.1 49.6 12.1 Z M 48.8 8.8 C 48.8 7.3 47.5 6.1 45.9 6.1 C 43.6 6.1 42.9 8.4 42.9 8.8 C 42.9 8.8 48.8 8.8 48.8 8.8 Z M 63.9 12.5 C 63.1 13.4 62.1 13.9 60.9 13.9 C 58.3 13.9 56.5 12.1 56.5 9.5 C 56.5 7 58.3 5.1 60.9 5.1 C 62.1 5.1 63.2 5.7 64 6.6 C 64 6.6 63.1 7.2 63.1 7.2 C 62.5 6.6 61.7 6.1 60.9 6.1 C 58.8 6.1 57.6 7.6 57.6 9.5 C 57.6 11.4 58.8 12.9 60.9 12.9 C 61.8 12.9 62.6 12.5 63.1 11.8 C 63.1 11.8 63.9 12.5 63.9 12.5 Z M 65.8 7.7 C 65.8 7.1 65.7 5.8 65.7 5.4 C 65.7 5.4 66.8 5.4 66.8 5.4 C 66.8 6 66.8 6.7 66.8 6.8 C 67.4 5.8 68.2 5.1 69.5 5.1 C 69.7 5.1 69.9 5.2 70.1 5.2 C 70.1 5.2 70 6.3 70 6.3 C 69.8 6.2 69.7 6.2 69.6 6.2 C 67.7 6.2 66.8 7.5 66.8 9.1 C 66.84 9.14 66.8 13.7 66.8 13.7 L 65.8 13.7 C 65.8 13.7 65.76 7.7 65.8 7.7 Z M 78.9 11.3 C 78.9 12 79 13.2 79 13.7 C 79 13.7 77.9 13.7 77.9 13.7 C 77.9 13.1 77.9 12.4 77.9 12.2 C 77.9 12.2 77.8 12.2 77.8 12.2 C 77.4 13.1 76.3 13.9 75 13.9 C 72.4 13.9 71.8 12.1 71.8 10.3 C 71.8 10.31 71.8 5.4 71.8 5.4 L 72.9 5.4 C 72.9 5.4 72.88 10.26 72.9 10.3 C 72.9 11.6 73.3 12.9 75 12.9 C 76.6 12.9 77.8 11.8 77.8 9.5 C 77.85 9.52 77.8 5.4 77.8 5.4 L 78.9 5.4 C 78.9 5.4 78.93 11.34 78.9 11.3 Z M 81.9 11.6 C 82.4 12.4 83.4 12.9 84.3 12.9 C 85.3 12.9 86.2 12.3 86.2 11.4 C 86.2 9.1 81.3 10.7 81.3 7.5 C 81.3 5.9 82.8 5.1 84.1 5.1 C 85.5 5.1 86.5 5.7 87.1 6.7 C 87.1 6.7 86.1 7.3 86.1 7.3 C 85.7 6.5 85.1 6.1 84.1 6.1 C 83.4 6.1 82.4 6.6 82.4 7.5 C 82.4 9.7 87.3 8 87.3 11.3 C 87.3 13 85.9 13.9 84.3 13.9 C 82.9 13.9 81.6 13.4 81 12.2 C 81 12.2 81.9 11.6 81.9 11.6 Z M 93.9 6.3 L 91.5 6.3 C 91.5 6.3 91.48 11.75 91.5 11.8 C 91.5 12.5 91.9 12.9 92.6 12.9 C 93.1 12.9 93.5 12.8 93.9 12.6 C 93.9 12.6 94 13.6 94 13.6 C 93.6 13.8 93 13.9 92.5 13.9 C 91 13.9 90.4 12.9 90.4 11.8 C 90.4 11.75 90.4 6.3 90.4 6.3 L 88.6 6.3 L 88.6 5.4 L 90.4 5.4 L 90.4 3 L 91.5 3 L 91.5 5.4 L 93.9 5.4 L 93.9 6.3 Z " stroke="none" fill="#000"/>  </g></svg>