<?xml version="1.0" standalone="no"?><!DOCTYPE svg PUBLIC "-//W3C//DTD SVG 1.1//EN" "http://www.w3.org/Graphics/SVG/1.1/DTD/svg11.dtd"><svg xmlns="http://www.w3.org/2000/svg" version="1.1" width="508px" height="40.6px" viewBox="0 0 508 40.6">  <desc>Bamana artist, Mali, Boli zoomorphic altar, first half of the 20th century; wood, bark, soil, animal blood; The John</desc>  <defs/>  <g id="Polygon46573">    <path d="M 6 27 L 3.5 27 L 3.5 33.7 L 2.6 33.7 L 2.6 27 L 0.1 27 L 0.1 26.1 L 6 26.1 L 6 27 Z M 6.9 25.6 L 7.8 25.6 L 7.8 29.4 C 7.8 29.4 7.79 29.39 7.8 29.4 C 8 29 8.6 28.6 9.4 28.6 C 10.7 28.6 11.3 29.4 11.3 30.6 C 11.3 30.61 11.3 33.7 11.3 33.7 L 10.5 33.7 C 10.5 33.7 10.47 30.7 10.5 30.7 C 10.5 29.9 10.1 29.3 9.3 29.3 C 8.2 29.3 7.8 30.1 7.8 31.3 C 7.77 31.26 7.8 33.7 7.8 33.7 L 6.9 33.7 L 6.9 25.6 Z M 17.4 32.8 C 16.8 33.6 16.1 33.8 15.1 33.8 C 13.6 33.8 12.6 32.7 12.6 31.2 C 12.6 29.6 13.7 28.6 15.2 28.6 C 16.6 28.6 17.5 29.5 17.5 31.2 C 17.54 31.19 17.5 31.5 17.5 31.5 C 17.5 31.5 13.49 31.46 13.5 31.5 C 13.6 32.3 14.2 33.1 15.1 33.1 C 15.8 33.1 16.3 32.8 16.7 32.3 C 16.7 32.3 17.4 32.8 17.4 32.8 Z M 16.6 30.8 C 16.6 29.9 16.1 29.3 15.1 29.3 C 14.2 29.3 13.6 29.9 13.5 30.8 C 13.5 30.8 16.6 30.8 16.6 30.8 Z M 25.2 31.7 C 25.2 32.8 24.7 33.9 23.1 33.9 C 22 33.9 21.2 33.3 21 32.3 C 21 32.3 21.9 32.1 21.9 32.1 C 22.1 32.7 22.4 33.1 23.1 33.1 C 24.1 33.1 24.3 32.3 24.3 31.4 C 24.33 31.44 24.3 26.1 24.3 26.1 L 25.2 26.1 C 25.2 26.1 25.23 31.75 25.2 31.7 Z M 29.3 28.6 C 30.9 28.6 32 29.6 32 31.2 C 32 32.8 30.9 33.8 29.3 33.8 C 27.8 33.8 26.7 32.8 26.7 31.2 C 26.7 29.6 27.8 28.6 29.3 28.6 Z M 29.3 33.1 C 30.4 33.1 31.1 32.2 31.1 31.2 C 31.1 30.2 30.4 29.3 29.3 29.3 C 28.3 29.3 27.6 30.2 27.6 31.2 C 27.6 32.2 28.3 33.1 29.3 33.1 Z M 33.3 25.6 L 34.2 25.6 L 34.2 29.4 C 34.2 29.4 34.17 29.39 34.2 29.4 C 34.4 29 35 28.6 35.8 28.6 C 37.1 28.6 37.7 29.4 37.7 30.6 C 37.68 30.61 37.7 33.7 37.7 33.7 L 36.9 33.7 C 36.9 33.7 36.85 30.7 36.9 30.7 C 36.9 29.9 36.5 29.3 35.7 29.3 C 34.6 29.3 34.2 30.1 34.2 31.3 C 34.15 31.26 34.2 33.7 34.2 33.7 L 33.3 33.7 L 33.3 25.6 Z M 39.3 29.9 C 39.3 29.4 39.2 29 39.2 28.7 C 39.2 28.7 40 28.7 40 28.7 C 40 29 40 29.2 40 29.5 C 40 29.5 40.1 29.5 40.1 29.5 C 40.3 29 40.9 28.6 41.7 28.6 C 43 28.6 43.6 29.4 43.6 30.6 C 43.63 30.61 43.6 33.7 43.6 33.7 L 42.8 33.7 C 42.8 33.7 42.8 30.7 42.8 30.7 C 42.8 29.9 42.4 29.3 41.7 29.3 C 40.6 29.3 40.1 30.1 40.1 31.3 C 40.1 31.26 40.1 33.7 40.1 33.7 L 39.3 33.7 C 39.3 33.7 39.27 29.88 39.3 29.9 Z M 48.3 26.1 C 48.3 26.1 50.28 26.13 50.3 26.1 C 51.7 26.1 53.3 26.3 53.3 28.2 C 53.3 29.3 52.6 30 51.4 30.2 C 51.4 30.21 53.6 33.7 53.6 33.7 L 52.5 33.7 L 50.4 30.3 L 49.2 30.3 L 49.2 33.7 L 48.3 33.7 L 48.3 26.1 Z M 49.2 29.5 C 49.2 29.5 50.04 29.47 50 29.5 C 51 29.5 52.3 29.5 52.3 28.2 C 52.3 27.1 51.4 27 50.5 27 C 50.5 26.96 49.2 27 49.2 27 L 49.2 29.5 Z M 56.1 33.1 C 56.1 33.5 55.8 33.8 55.4 33.8 C 55.1 33.8 54.8 33.5 54.8 33.1 C 54.8 32.8 55.1 32.5 55.4 32.5 C 55.8 32.5 56.1 32.8 56.1 33.1 Z M 59.8 26.1 L 60.8 26.1 L 63.1 32.4 L 63.2 32.4 L 65.6 26.1 L 66.5 26.1 L 63.6 33.7 L 62.7 33.7 L 59.8 26.1 Z M 66.6 29.3 C 67.1 28.8 67.8 28.6 68.6 28.6 C 70 28.6 70.7 29.3 70.7 30.7 C 70.7 30.7 70.7 32.8 70.7 32.8 C 70.7 33.1 70.7 33.4 70.7 33.7 C 70.7 33.7 69.9 33.7 69.9 33.7 C 69.9 33.5 69.9 33.2 69.9 33 C 69.9 33 69.9 33 69.9 33 C 69.5 33.5 69 33.8 68.2 33.8 C 67.2 33.8 66.3 33.3 66.3 32.3 C 66.3 30.7 68.3 30.6 69.5 30.6 C 69.5 30.59 69.8 30.6 69.8 30.6 C 69.8 30.6 69.82 30.44 69.8 30.4 C 69.8 29.7 69.4 29.3 68.6 29.3 C 68 29.3 67.5 29.5 67.1 29.9 C 67.1 29.9 66.6 29.3 66.6 29.3 Z M 69 31.3 C 67.9 31.3 67.2 31.6 67.2 32.3 C 67.2 32.9 67.7 33.1 68.3 33.1 C 69.3 33.1 69.8 32.4 69.8 31.6 C 69.82 31.62 69.8 31.3 69.8 31.3 C 69.8 31.3 68.98 31.29 69 31.3 Z M 72.2 29.9 C 72.2 29.4 72.1 29 72.1 28.7 C 72.1 28.7 72.9 28.7 72.9 28.7 C 72.9 29 73 29.2 73 29.5 C 73 29.5 73 29.5 73 29.5 C 73.2 29 73.8 28.6 74.6 28.6 C 76 28.6 76.5 29.4 76.5 30.6 C 76.55 30.61 76.5 33.7 76.5 33.7 L 75.7 33.7 C 75.7 33.7 75.71 30.7 75.7 30.7 C 75.7 29.9 75.4 29.3 74.6 29.3 C 73.5 29.3 73 30.1 73 31.3 C 73.02 31.26 73 33.7 73 33.7 L 72.2 33.7 C 72.2 33.7 72.18 29.88 72.2 29.9 Z M 81.1 26.1 C 81.1 26.1 84.03 26.13 84 26.1 C 85.5 26.1 87.7 27.1 87.7 29.9 C 87.7 32.7 85.5 33.7 84 33.7 C 84.03 33.7 81.1 33.7 81.1 33.7 L 81.1 26.1 Z M 82 32.9 C 82 32.9 83.73 32.87 83.7 32.9 C 85.5 32.9 86.8 32 86.8 29.9 C 86.8 27.8 85.5 27 83.7 27 C 83.73 26.96 82 27 82 27 L 82 32.9 Z M 93.5 32.8 C 92.9 33.6 92.2 33.8 91.3 33.8 C 89.7 33.8 88.7 32.7 88.7 31.2 C 88.7 29.6 89.8 28.6 91.3 28.6 C 92.7 28.6 93.7 29.5 93.7 31.2 C 93.69 31.19 93.7 31.5 93.7 31.5 C 93.7 31.5 89.64 31.46 89.6 31.5 C 89.7 32.3 90.4 33.1 91.3 33.1 C 92 33.1 92.5 32.8 92.9 32.3 C 92.9 32.3 93.5 32.8 93.5 32.8 Z M 92.8 30.8 C 92.8 29.9 92.2 29.3 91.3 29.3 C 90.4 29.3 89.8 29.9 89.6 30.8 C 89.6 30.8 92.8 30.8 92.8 30.8 Z M 95 29.9 C 95 29.4 94.9 29 94.9 28.7 C 94.9 28.7 95.7 28.7 95.7 28.7 C 95.7 29 95.8 29.2 95.8 29.5 C 95.8 29.5 95.8 29.5 95.8 29.5 C 96 29 96.6 28.6 97.4 28.6 C 97.6 28.6 97.7 28.6 97.8 28.6 C 97.8 28.6 97.7 29.5 97.7 29.5 C 97.6 29.4 97.4 29.4 97.3 29.4 C 96.3 29.4 95.8 30.1 95.8 31.3 C 95.82 31.26 95.8 33.7 95.8 33.7 L 95 33.7 C 95 33.7 94.98 29.88 95 29.9 Z M 98.8 25.6 L 99.7 25.6 L 99.7 33.7 L 98.8 33.7 L 98.8 25.6 Z M 101.4 28.7 L 102.2 28.7 L 102.2 33.7 L 101.4 33.7 L 101.4 28.7 Z M 101.8 26.1 C 102.2 26.1 102.4 26.4 102.4 26.7 C 102.4 27.1 102.2 27.3 101.8 27.3 C 101.5 27.3 101.2 27.1 101.2 26.7 C 101.2 26.4 101.5 26.1 101.8 26.1 Z M 103.8 28.7 L 104.7 28.7 L 104.7 29.4 C 104.7 29.4 104.7 29.42 104.7 29.4 C 105.2 28.9 105.8 28.6 106.5 28.6 C 108.1 28.6 109.1 29.7 109.1 31.2 C 109.1 32.7 108 33.8 106.6 33.8 C 105.7 33.8 105 33.4 104.7 32.8 C 104.7 32.82 104.7 32.8 104.7 32.8 L 104.7 36.1 L 103.8 36.1 L 103.8 28.7 Z M 106.5 33.1 C 107.5 33.1 108.2 32.2 108.2 31.2 C 108.2 30.2 107.5 29.3 106.5 29.3 C 105.4 29.3 104.7 30.2 104.7 31.2 C 104.7 32.2 105.4 33.1 106.5 33.1 Z M 113.5 26.1 L 118.2 26.1 L 118.2 27 L 114.4 27 L 114.4 29.5 L 118 29.5 L 118 30.3 L 114.4 30.3 L 114.4 33.7 L 113.5 33.7 L 113.5 26.1 Z M 123.7 32.5 C 123.7 33 123.8 33.4 123.8 33.7 C 123.8 33.7 123 33.7 123 33.7 C 123 33.4 122.9 33.2 122.9 32.9 C 122.9 32.9 122.9 32.9 122.9 32.9 C 122.7 33.4 122.1 33.8 121.3 33.8 C 119.9 33.8 119.3 33 119.3 31.8 C 119.35 31.79 119.3 28.7 119.3 28.7 L 120.2 28.7 C 120.2 28.7 120.18 31.7 120.2 31.7 C 120.2 32.5 120.5 33.1 121.3 33.1 C 122.4 33.1 122.9 32.3 122.9 31.1 C 122.88 31.14 122.9 28.7 122.9 28.7 L 123.7 28.7 C 123.7 28.7 123.71 32.52 123.7 32.5 Z M 125.3 29.9 C 125.3 29.4 125.3 29 125.3 28.7 C 125.3 28.7 126 28.7 126 28.7 C 126 29 126.1 29.2 126.1 29.5 C 126.1 29.5 126.1 29.5 126.1 29.5 C 126.3 29 126.9 28.6 127.8 28.6 C 129.1 28.6 129.7 29.4 129.7 30.6 C 129.66 30.61 129.7 33.7 129.7 33.7 L 128.8 33.7 C 128.8 33.7 128.83 30.7 128.8 30.7 C 128.8 29.9 128.5 29.3 127.7 29.3 C 126.6 29.3 126.1 30.1 126.1 31.3 C 126.13 31.26 126.1 33.7 126.1 33.7 L 125.3 33.7 C 125.3 33.7 125.3 29.88 125.3 29.9 Z M 135.4 32.8 C 135.4 32.8 135.39 32.82 135.4 32.8 C 135.1 33.4 134.4 33.8 133.5 33.8 C 132.1 33.8 131 32.7 131 31.2 C 131 29.7 132 28.6 133.6 28.6 C 134.3 28.6 134.9 28.9 135.4 29.4 C 135.39 29.42 135.4 29.4 135.4 29.4 L 135.4 25.6 L 136.2 25.6 L 136.2 33.7 L 135.4 33.7 L 135.4 32.8 Z M 133.6 29.3 C 132.6 29.3 131.9 30.2 131.9 31.2 C 131.9 32.2 132.6 33.1 133.6 33.1 C 134.7 33.1 135.4 32.2 135.4 31.2 C 135.4 30.2 134.7 29.3 133.6 29.3 Z M 138.4 35.2 L 137.5 35.2 L 138.3 32.6 L 139.2 32.6 L 138.4 35.2 Z M 143.5 32.7 C 143.5 32.7 146.33 29.89 146.3 29.9 C 147.1 29.2 147.4 28.8 147.4 28.1 C 147.4 27.3 146.8 26.8 146 26.8 C 145.3 26.8 144.7 27.3 144.6 28 C 144.6 28 143.6 27.9 143.6 27.9 C 143.8 26.7 144.8 26 146 26 C 147.2 26 148.3 26.7 148.3 28.1 C 148.3 29.3 147.6 29.9 146.8 30.7 C 146.83 30.65 144.5 32.8 144.5 32.8 L 144.5 32.9 L 148.4 32.9 L 148.4 33.7 L 143.5 33.7 L 143.5 32.7 Z M 151.9 26 C 154 26 154.4 28.2 154.4 29.9 C 154.4 31.6 154 33.8 151.9 33.8 C 149.8 33.8 149.3 31.6 149.3 29.9 C 149.3 28.2 149.8 26 151.9 26 Z M 151.9 33.1 C 153.4 33.1 153.5 31 153.5 29.9 C 153.5 28.8 153.4 26.8 151.9 26.8 C 150.4 26.8 150.2 28.8 150.2 29.9 C 150.2 31 150.4 33.1 151.9 33.1 Z M 158.7 33.7 L 157.8 33.7 L 157.8 27.3 L 157.8 27.3 L 156.4 28.4 L 155.9 27.8 L 157.9 26.1 L 158.7 26.1 L 158.7 33.7 Z M 161.3 32.7 C 161.3 32.7 164.18 29.89 164.2 29.9 C 164.9 29.2 165.3 28.8 165.3 28.1 C 165.3 27.3 164.6 26.8 163.9 26.8 C 163.1 26.8 162.6 27.3 162.4 28 C 162.4 28 161.5 27.9 161.5 27.9 C 161.7 26.7 162.6 26 163.8 26 C 165.1 26 166.1 26.7 166.1 28.1 C 166.1 29.3 165.4 29.9 164.7 30.7 C 164.67 30.65 162.3 32.8 162.3 32.8 L 162.3 32.9 L 166.2 32.9 L 166.2 33.7 L 161.3 33.7 L 161.3 32.7 Z M 168.9 33.1 C 168.9 33.5 168.6 33.8 168.2 33.8 C 167.9 33.8 167.6 33.5 167.6 33.1 C 167.6 32.8 167.9 32.5 168.2 32.5 C 168.6 32.5 168.9 32.8 168.9 33.1 Z M 171.9 29.3 C 171.9 29.3 171.92 29.31 171.9 29.3 C 172.2 29.1 172.6 29.1 172.9 29.1 C 174.2 29.1 175.2 30 175.2 31.5 C 175.2 32.9 174.1 33.8 172.7 33.8 C 171.3 33.8 170.2 32.9 170.2 31.5 C 170.2 30.6 170.5 30 170.9 29.3 C 170.87 29.33 172.9 26.1 172.9 26.1 L 173.9 26.1 L 171.9 29.3 Z M 171 31.5 C 171 32.4 171.8 33.1 172.7 33.1 C 173.6 33.1 174.3 32.4 174.3 31.5 C 174.3 30.5 173.6 29.9 172.7 29.9 C 171.8 29.9 171 30.5 171 31.5 Z M 180.7 27 L 177.6 27 C 177.6 27 177.61 29.01 177.6 29 C 177.9 28.9 178.3 28.8 178.6 28.8 C 180 28.8 181 29.9 181 31.3 C 181 32.8 179.9 33.8 178.4 33.8 C 177.3 33.8 176.6 33.3 176.2 32.5 C 176.2 32.5 177.1 32.1 177.1 32.1 C 177.3 32.7 177.8 33.1 178.5 33.1 C 179.4 33.1 180.1 32.4 180.1 31.3 C 180.1 30.2 179.3 29.6 178.2 29.6 C 177.7 29.6 177.1 29.8 176.7 30.1 C 176.69 30.06 176.8 26.1 176.8 26.1 L 180.7 26.1 L 180.7 27 Z " stroke="none" fill="#fff"/>  </g>  <g id="Polygon46572">    <path d="M 0.9 12.1 C 0.9 12.1 3.25 12.13 3.3 12.1 C 4.5 12.1 5.8 12.6 5.8 14 C 5.8 14.9 5.3 15.5 4.4 15.7 C 4.4 15.7 4.4 15.7 4.4 15.7 C 5.4 15.8 6.2 16.6 6.2 17.6 C 6.2 19.3 4.6 19.7 3.2 19.7 C 3.2 19.7 0.9 19.7 0.9 19.7 L 0.9 12.1 Z M 1.8 15.3 C 1.8 15.3 3.08 15.34 3.1 15.3 C 3.9 15.3 4.8 15.2 4.8 14.1 C 4.8 13.2 4 13 3.2 13 C 3.18 12.96 1.8 13 1.8 13 L 1.8 15.3 Z M 1.8 18.9 C 1.8 18.9 3.36 18.87 3.4 18.9 C 4.2 18.9 5.2 18.5 5.2 17.6 C 5.2 16.5 4.3 16.2 3.4 16.2 C 3.38 16.17 1.8 16.2 1.8 16.2 L 1.8 18.9 Z M 7.5 15.3 C 8 14.8 8.7 14.6 9.5 14.6 C 10.9 14.6 11.6 15.3 11.6 16.7 C 11.6 16.7 11.6 18.8 11.6 18.8 C 11.6 19.1 11.6 19.4 11.6 19.7 C 11.6 19.7 10.8 19.7 10.8 19.7 C 10.8 19.5 10.8 19.2 10.8 19 C 10.8 19 10.8 19 10.8 19 C 10.4 19.5 9.9 19.8 9.1 19.8 C 8.1 19.8 7.2 19.3 7.2 18.3 C 7.2 16.7 9.2 16.6 10.4 16.6 C 10.4 16.59 10.7 16.6 10.7 16.6 C 10.7 16.6 10.72 16.44 10.7 16.4 C 10.7 15.7 10.3 15.3 9.5 15.3 C 8.9 15.3 8.4 15.5 8 15.9 C 8 15.9 7.5 15.3 7.5 15.3 Z M 9.9 17.3 C 8.8 17.3 8.1 17.6 8.1 18.3 C 8.1 18.9 8.6 19.1 9.2 19.1 C 10.2 19.1 10.7 18.4 10.7 17.6 C 10.72 17.62 10.7 17.3 10.7 17.3 C 10.7 17.3 9.89 17.29 9.9 17.3 Z M 13.1 15.9 C 13.1 15.4 13 15 13 14.7 C 13 14.7 13.8 14.7 13.8 14.7 C 13.8 15 13.9 15.2 13.9 15.5 C 13.9 15.5 13.9 15.5 13.9 15.5 C 14.1 15 14.7 14.6 15.5 14.6 C 16.6 14.6 17 15.2 17.1 15.5 C 17.5 14.9 18 14.6 18.7 14.6 C 20.1 14.6 20.6 15.4 20.6 16.7 C 20.62 16.66 20.6 19.7 20.6 19.7 L 19.8 19.7 C 19.8 19.7 19.78 16.71 19.8 16.7 C 19.8 16 19.5 15.3 18.6 15.3 C 17.9 15.3 17.3 15.9 17.3 16.8 C 17.27 16.81 17.3 19.7 17.3 19.7 L 16.4 19.7 C 16.4 19.7 16.44 16.87 16.4 16.9 C 16.4 15.8 16.2 15.3 15.5 15.3 C 14.4 15.3 13.9 16.1 13.9 17.3 C 13.92 17.26 13.9 19.7 13.9 19.7 L 13.1 19.7 C 13.1 19.7 13.09 15.88 13.1 15.9 Z M 22.1 15.3 C 22.7 14.8 23.4 14.6 24.1 14.6 C 25.6 14.6 26.2 15.3 26.2 16.7 C 26.2 16.7 26.2 18.8 26.2 18.8 C 26.2 19.1 26.3 19.4 26.3 19.7 C 26.3 19.7 25.5 19.7 25.5 19.7 C 25.4 19.5 25.4 19.2 25.4 19 C 25.4 19 25.4 19 25.4 19 C 25.1 19.5 24.5 19.8 23.8 19.8 C 22.8 19.8 21.9 19.3 21.9 18.3 C 21.9 16.7 23.8 16.6 25.1 16.6 C 25.07 16.59 25.4 16.6 25.4 16.6 C 25.4 16.6 25.39 16.44 25.4 16.4 C 25.4 15.7 24.9 15.3 24.1 15.3 C 23.6 15.3 23.1 15.5 22.7 15.9 C 22.7 15.9 22.1 15.3 22.1 15.3 Z M 24.6 17.3 C 23.5 17.3 22.8 17.6 22.8 18.3 C 22.8 18.9 23.3 19.1 23.9 19.1 C 24.9 19.1 25.4 18.4 25.4 17.6 C 25.39 17.62 25.4 17.3 25.4 17.3 C 25.4 17.3 24.56 17.29 24.6 17.3 Z M 27.8 15.9 C 27.8 15.4 27.7 15 27.7 14.7 C 27.7 14.7 28.5 14.7 28.5 14.7 C 28.5 15 28.5 15.2 28.5 15.5 C 28.5 15.5 28.5 15.5 28.5 15.5 C 28.8 15 29.4 14.6 30.2 14.6 C 31.5 14.6 32.1 15.4 32.1 16.6 C 32.12 16.61 32.1 19.7 32.1 19.7 L 31.3 19.7 C 31.3 19.7 31.29 16.7 31.3 16.7 C 31.3 15.9 30.9 15.3 30.1 15.3 C 29.1 15.3 28.6 16.1 28.6 17.3 C 28.59 17.26 28.6 19.7 28.6 19.7 L 27.8 19.7 C 27.8 19.7 27.76 15.88 27.8 15.9 Z M 33.6 15.3 C 34.2 14.8 34.9 14.6 35.6 14.6 C 37.1 14.6 37.7 15.3 37.7 16.7 C 37.7 16.7 37.7 18.8 37.7 18.8 C 37.7 19.1 37.8 19.4 37.8 19.7 C 37.8 19.7 37 19.7 37 19.7 C 36.9 19.5 36.9 19.2 36.9 19 C 36.9 19 36.9 19 36.9 19 C 36.6 19.5 36 19.8 35.3 19.8 C 34.3 19.8 33.4 19.3 33.4 18.3 C 33.4 16.7 35.3 16.6 36.6 16.6 C 36.57 16.59 36.9 16.6 36.9 16.6 C 36.9 16.6 36.89 16.44 36.9 16.4 C 36.9 15.7 36.4 15.3 35.7 15.3 C 35.1 15.3 34.6 15.5 34.2 15.9 C 34.2 15.9 33.6 15.3 33.6 15.3 Z M 36.1 17.3 C 35 17.3 34.3 17.6 34.3 18.3 C 34.3 18.9 34.8 19.1 35.4 19.1 C 36.4 19.1 36.9 18.4 36.9 17.6 C 36.89 17.62 36.9 17.3 36.9 17.3 C 36.9 17.3 36.06 17.29 36.1 17.3 Z M 42.2 15.3 C 42.7 14.8 43.4 14.6 44.2 14.6 C 45.6 14.6 46.3 15.3 46.3 16.7 C 46.3 16.7 46.3 18.8 46.3 18.8 C 46.3 19.1 46.3 19.4 46.3 19.7 C 46.3 19.7 45.5 19.7 45.5 19.7 C 45.5 19.5 45.5 19.2 45.5 19 C 45.5 19 45.5 19 45.5 19 C 45.1 19.5 44.6 19.8 43.8 19.8 C 42.8 19.8 41.9 19.3 41.9 18.3 C 41.9 16.7 43.9 16.6 45.1 16.6 C 45.1 16.59 45.4 16.6 45.4 16.6 C 45.4 16.6 45.42 16.44 45.4 16.4 C 45.4 15.7 45 15.3 44.2 15.3 C 43.6 15.3 43.1 15.5 42.7 15.9 C 42.7 15.9 42.2 15.3 42.2 15.3 Z M 44.6 17.3 C 43.5 17.3 42.8 17.6 42.8 18.3 C 42.8 18.9 43.3 19.1 43.9 19.1 C 44.9 19.1 45.4 18.4 45.4 17.6 C 45.42 17.62 45.4 17.3 45.4 17.3 C 45.4 17.3 44.59 17.29 44.6 17.3 Z M 47.8 15.9 C 47.8 15.4 47.7 15 47.7 14.7 C 47.7 14.7 48.5 14.7 48.5 14.7 C 48.5 15 48.6 15.2 48.6 15.5 C 48.6 15.5 48.6 15.5 48.6 15.5 C 48.8 15 49.4 14.6 50.2 14.6 C 50.4 14.6 50.5 14.6 50.6 14.6 C 50.6 14.6 50.5 15.5 50.5 15.5 C 50.4 15.4 50.2 15.4 50.1 15.4 C 49.1 15.4 48.6 16.1 48.6 17.3 C 48.62 17.26 48.6 19.7 48.6 19.7 L 47.8 19.7 C 47.8 19.7 47.79 15.88 47.8 15.9 Z M 54.3 15.4 L 52.8 15.4 C 52.8 15.4 52.81 17.91 52.8 17.9 C 52.8 18.5 52.8 19.1 53.6 19.1 C 53.8 19.1 54.1 19 54.3 18.9 C 54.3 18.9 54.3 19.6 54.3 19.6 C 54 19.8 53.7 19.8 53.4 19.8 C 52.2 19.8 52 19.2 52 18.2 C 51.98 18.15 52 15.4 52 15.4 L 50.9 15.4 L 50.9 14.7 L 52 14.7 L 52 13.3 L 52.8 13.3 L 52.8 14.7 L 54.3 14.7 L 54.3 15.4 Z M 55.4 14.7 L 56.2 14.7 L 56.2 19.7 L 55.4 19.7 L 55.4 14.7 Z M 55.8 12.1 C 56.2 12.1 56.4 12.4 56.4 12.7 C 56.4 13.1 56.2 13.3 55.8 13.3 C 55.5 13.3 55.2 13.1 55.2 12.7 C 55.2 12.4 55.5 12.1 55.8 12.1 Z M 58 18.4 C 58.3 18.8 58.7 19.1 59.3 19.1 C 59.8 19.1 60.4 18.8 60.4 18.3 C 60.4 17.8 59.8 17.6 59.3 17.5 C 58.4 17.3 57.5 17.1 57.5 16 C 57.5 15.1 58.5 14.6 59.4 14.6 C 60.1 14.6 60.8 14.8 61.1 15.5 C 61.1 15.5 60.4 15.9 60.4 15.9 C 60.2 15.6 59.9 15.3 59.4 15.3 C 58.9 15.3 58.4 15.6 58.4 16 C 58.4 16.4 59 16.6 59.6 16.8 C 60.5 16.9 61.3 17.3 61.3 18.3 C 61.3 19.4 60.3 19.8 59.3 19.8 C 58.4 19.8 57.8 19.6 57.3 18.9 C 57.3 18.9 58 18.4 58 18.4 Z M 65.2 15.4 L 63.7 15.4 C 63.7 15.4 63.71 17.91 63.7 17.9 C 63.7 18.5 63.7 19.1 64.5 19.1 C 64.7 19.1 65 19 65.2 18.9 C 65.2 18.9 65.2 19.6 65.2 19.6 C 64.9 19.8 64.6 19.8 64.3 19.8 C 63.1 19.8 62.9 19.2 62.9 18.2 C 62.87 18.15 62.9 15.4 62.9 15.4 L 61.8 15.4 L 61.8 14.7 L 62.9 14.7 L 62.9 13.3 L 63.7 13.3 L 63.7 14.7 L 65.2 14.7 L 65.2 15.4 Z M 66.8 21.2 L 66 21.2 L 66.7 18.6 L 67.7 18.6 L 66.8 21.2 Z M 72.3 12.1 L 73.6 12.1 L 76.2 18.1 L 76.2 18.1 L 78.8 12.1 L 80.1 12.1 L 80.1 19.7 L 79.2 19.7 L 79.2 13.3 L 79.2 13.3 L 76.5 19.7 L 75.9 19.7 L 73.2 13.3 L 73.2 13.3 L 73.2 19.7 L 72.3 19.7 L 72.3 12.1 Z M 81.8 15.3 C 82.3 14.8 83.1 14.6 83.8 14.6 C 85.3 14.6 85.9 15.3 85.9 16.7 C 85.9 16.7 85.9 18.8 85.9 18.8 C 85.9 19.1 85.9 19.4 86 19.7 C 86 19.7 85.2 19.7 85.2 19.7 C 85.1 19.5 85.1 19.2 85.1 19 C 85.1 19 85.1 19 85.1 19 C 84.8 19.5 84.2 19.8 83.4 19.8 C 82.4 19.8 81.6 19.3 81.6 18.3 C 81.6 16.7 83.5 16.6 84.7 16.6 C 84.73 16.59 85.1 16.6 85.1 16.6 C 85.1 16.6 85.05 16.44 85.1 16.4 C 85.1 15.7 84.6 15.3 83.8 15.3 C 83.3 15.3 82.7 15.5 82.3 15.9 C 82.3 15.9 81.8 15.3 81.8 15.3 Z M 84.2 17.3 C 83.2 17.3 82.5 17.6 82.5 18.3 C 82.5 18.9 82.9 19.1 83.6 19.1 C 84.5 19.1 85 18.4 85.1 17.6 C 85.05 17.62 85.1 17.3 85.1 17.3 C 85.1 17.3 84.22 17.29 84.2 17.3 Z M 87.5 11.6 L 88.3 11.6 L 88.3 19.7 L 87.5 19.7 L 87.5 11.6 Z M 90.1 14.7 L 90.9 14.7 L 90.9 19.7 L 90.1 19.7 L 90.1 14.7 Z M 90.5 12.1 C 90.8 12.1 91.1 12.4 91.1 12.7 C 91.1 13.1 90.8 13.3 90.5 13.3 C 90.1 13.3 89.9 13.1 89.9 12.7 C 89.9 12.4 90.1 12.1 90.5 12.1 Z M 93.1 21.2 L 92.3 21.2 L 93 18.6 L 94 18.6 L 93.1 21.2 Z M 99.7 12.1 C 99.7 12.1 102.02 12.13 102 12.1 C 102.3 12.1 102.6 12.2 102.9 12.2 C 103.2 12.3 103.5 12.4 103.7 12.5 C 103.9 12.7 104.1 12.9 104.2 13.1 C 104.3 13.3 104.3 13.6 104.3 14 C 104.2 14.4 104 14.8 103.8 15.1 C 103.5 15.4 103.1 15.6 102.7 15.7 C 102.7 15.7 102.7 15.7 102.7 15.7 C 103 15.7 103.2 15.8 103.4 15.9 C 103.6 16 103.7 16.1 103.8 16.3 C 104 16.5 104.1 16.7 104.1 16.9 C 104.2 17.1 104.2 17.3 104.2 17.6 C 104.1 18 104 18.4 103.7 18.6 C 103.5 18.9 103.3 19.1 103 19.3 C 102.7 19.4 102.3 19.5 102 19.6 C 101.6 19.7 101.3 19.7 100.9 19.7 C 100.91 19.7 98.7 19.7 98.7 19.7 L 99.7 12.1 Z M 100.2 15.3 C 100.2 15.3 101.4 15.34 101.4 15.3 C 101.6 15.3 101.8 15.3 102 15.3 C 102.2 15.3 102.4 15.2 102.6 15.1 C 102.8 15 102.9 14.9 103.1 14.7 C 103.2 14.6 103.3 14.4 103.3 14.1 C 103.3 13.9 103.3 13.7 103.2 13.5 C 103.2 13.4 103.1 13.3 102.9 13.2 C 102.8 13.1 102.6 13 102.4 13 C 102.2 13 102 13 101.8 13 C 101.83 12.96 100.5 13 100.5 13 L 100.2 15.3 Z M 99.7 18.9 C 99.7 18.9 101.18 18.87 101.2 18.9 C 101.4 18.9 101.6 18.8 101.8 18.8 C 102.1 18.8 102.3 18.7 102.5 18.6 C 102.7 18.5 102.8 18.3 102.9 18.2 C 103.1 18 103.2 17.8 103.2 17.6 C 103.2 17.3 103.2 17.1 103.1 16.9 C 103.1 16.7 102.9 16.6 102.8 16.5 C 102.6 16.4 102.5 16.3 102.2 16.2 C 102 16.2 101.8 16.2 101.6 16.2 C 101.58 16.17 100 16.2 100 16.2 L 99.7 18.9 Z M 105.3 17.2 C 105.4 16.8 105.5 16.5 105.7 16.1 C 105.8 15.8 106.1 15.5 106.3 15.3 C 106.6 15.1 106.9 14.9 107.3 14.8 C 107.6 14.6 108 14.6 108.3 14.6 C 108.7 14.6 109.1 14.6 109.4 14.8 C 109.7 14.9 110 15.1 110.2 15.3 C 110.4 15.5 110.5 15.8 110.6 16.1 C 110.7 16.5 110.7 16.8 110.6 17.2 C 110.6 17.6 110.5 17.9 110.3 18.3 C 110.1 18.6 109.9 18.9 109.6 19.1 C 109.4 19.3 109.1 19.5 108.7 19.6 C 108.4 19.8 108 19.8 107.6 19.8 C 107.2 19.8 106.9 19.8 106.6 19.6 C 106.3 19.5 106 19.3 105.8 19.1 C 105.6 18.9 105.4 18.6 105.4 18.3 C 105.3 17.9 105.2 17.6 105.3 17.2 Z M 106.2 17.2 C 106.2 17.5 106.2 17.7 106.2 17.9 C 106.3 18.2 106.4 18.4 106.5 18.5 C 106.6 18.7 106.8 18.8 107 18.9 C 107.2 19 107.4 19.1 107.7 19.1 C 108 19.1 108.2 19 108.5 18.9 C 108.7 18.8 108.9 18.7 109.1 18.5 C 109.3 18.4 109.4 18.2 109.5 17.9 C 109.6 17.7 109.7 17.5 109.7 17.2 C 109.8 16.9 109.8 16.7 109.7 16.5 C 109.7 16.2 109.6 16 109.5 15.9 C 109.3 15.7 109.2 15.6 109 15.5 C 108.7 15.4 108.5 15.3 108.2 15.3 C 108 15.3 107.7 15.4 107.5 15.5 C 107.3 15.6 107 15.7 106.9 15.9 C 106.7 16 106.5 16.2 106.4 16.5 C 106.3 16.7 106.2 16.9 106.2 17.2 Z M 112.8 11.6 L 113.6 11.6 L 112.5 19.7 L 111.7 19.7 L 112.8 11.6 Z M 114.9 14.7 L 115.8 14.7 L 115.1 19.7 L 114.3 19.7 L 114.9 14.7 Z M 115 12.7 C 115.1 12.6 115.1 12.4 115.3 12.3 C 115.4 12.2 115.6 12.1 115.7 12.1 C 115.9 12.1 116 12.2 116.1 12.3 C 116.2 12.4 116.3 12.6 116.3 12.7 C 116.2 12.9 116.1 13.1 116 13.2 C 115.9 13.3 115.7 13.3 115.6 13.3 C 115.4 13.3 115.2 13.3 115.1 13.2 C 115 13.1 115 12.9 115 12.7 Z M 119.3 19.1 L 122.2 15.4 L 119.4 15.4 L 119.4 14.7 L 123.3 14.7 L 123.3 15.3 L 120.3 19 L 123.4 19 L 123.4 19.7 L 119.3 19.7 L 119.3 19.1 Z M 126.9 14.6 C 128.4 14.6 129.5 15.6 129.5 17.2 C 129.5 18.8 128.4 19.8 126.9 19.8 C 125.3 19.8 124.2 18.8 124.2 17.2 C 124.2 15.6 125.3 14.6 126.9 14.6 Z M 126.9 19.1 C 127.9 19.1 128.6 18.2 128.6 17.2 C 128.6 16.2 127.9 15.3 126.9 15.3 C 125.8 15.3 125.1 16.2 125.1 17.2 C 125.1 18.2 125.8 19.1 126.9 19.1 Z M 133.2 14.6 C 134.8 14.6 135.9 15.6 135.9 17.2 C 135.9 18.8 134.8 19.8 133.2 19.8 C 131.7 19.8 130.5 18.8 130.5 17.2 C 130.5 15.6 131.7 14.6 133.2 14.6 Z M 133.2 19.1 C 134.3 19.1 135 18.2 135 17.2 C 135 16.2 134.3 15.3 133.2 15.3 C 132.1 15.3 131.4 16.2 131.4 17.2 C 131.4 18.2 132.1 19.1 133.2 19.1 Z M 137.2 15.9 C 137.2 15.4 137.1 15 137.1 14.7 C 137.1 14.7 137.9 14.7 137.9 14.7 C 137.9 15 138 15.2 138 15.5 C 138 15.5 138 15.5 138 15.5 C 138.2 15 138.8 14.6 139.6 14.6 C 140.7 14.6 141.1 15.2 141.2 15.5 C 141.6 14.9 142.1 14.6 142.8 14.6 C 144.2 14.6 144.7 15.4 144.7 16.7 C 144.71 16.66 144.7 19.7 144.7 19.7 L 143.9 19.7 C 143.9 19.7 143.88 16.71 143.9 16.7 C 143.9 16 143.6 15.3 142.7 15.3 C 142 15.3 141.4 15.9 141.4 16.8 C 141.37 16.81 141.4 19.7 141.4 19.7 L 140.5 19.7 C 140.5 19.7 140.53 16.87 140.5 16.9 C 140.5 15.8 140.3 15.3 139.6 15.3 C 138.5 15.3 138 16.1 138 17.3 C 138.02 17.26 138 19.7 138 19.7 L 137.2 19.7 C 137.2 19.7 137.18 15.88 137.2 15.9 Z M 148.7 14.6 C 150.2 14.6 151.4 15.6 151.4 17.2 C 151.4 18.8 150.2 19.8 148.7 19.8 C 147.1 19.8 146 18.8 146 17.2 C 146 15.6 147.1 14.6 148.7 14.6 Z M 148.7 19.1 C 149.8 19.1 150.5 18.2 150.5 17.2 C 150.5 16.2 149.8 15.3 148.7 15.3 C 147.6 15.3 146.9 16.2 146.9 17.2 C 146.9 18.2 147.6 19.1 148.7 19.1 Z M 152.7 15.9 C 152.7 15.4 152.6 15 152.6 14.7 C 152.6 14.7 153.4 14.7 153.4 14.7 C 153.4 15 153.4 15.2 153.4 15.5 C 153.4 15.5 153.4 15.5 153.4 15.5 C 153.7 15 154.3 14.6 155.1 14.6 C 155.2 14.6 155.3 14.6 155.5 14.6 C 155.5 14.6 155.4 15.5 155.4 15.5 C 155.3 15.4 155.1 15.4 155 15.4 C 153.9 15.4 153.5 16.1 153.5 17.3 C 153.49 17.26 153.5 19.7 153.5 19.7 L 152.7 19.7 C 152.7 19.7 152.66 15.88 152.7 15.9 Z M 156.4 14.7 L 157.2 14.7 L 157.2 15.4 C 157.2 15.4 157.23 15.42 157.2 15.4 C 157.7 14.9 158.3 14.6 159 14.6 C 160.6 14.6 161.7 15.7 161.7 17.2 C 161.7 18.7 160.6 19.8 159.2 19.8 C 158.3 19.8 157.5 19.4 157.2 18.8 C 157.23 18.82 157.2 18.8 157.2 18.8 L 157.2 22.1 L 156.4 22.1 L 156.4 14.7 Z M 159 19.1 C 160.1 19.1 160.8 18.2 160.8 17.2 C 160.8 16.2 160.1 15.3 159 15.3 C 157.9 15.3 157.2 16.2 157.2 17.2 C 157.2 18.2 157.9 19.1 159 19.1 Z M 163 11.6 L 163.8 11.6 L 163.8 15.4 C 163.8 15.4 163.81 15.39 163.8 15.4 C 164 15 164.6 14.6 165.4 14.6 C 166.7 14.6 167.3 15.4 167.3 16.6 C 167.32 16.61 167.3 19.7 167.3 19.7 L 166.5 19.7 C 166.5 19.7 166.49 16.7 166.5 16.7 C 166.5 15.9 166.1 15.3 165.3 15.3 C 164.3 15.3 163.8 16.1 163.8 17.3 C 163.79 17.26 163.8 19.7 163.8 19.7 L 163 19.7 L 163 11.6 Z M 169 14.7 L 169.8 14.7 L 169.8 19.7 L 169 19.7 L 169 14.7 Z M 169.4 12.1 C 169.7 12.1 170 12.4 170 12.7 C 170 13.1 169.8 13.3 169.4 13.3 C 169 13.3 168.8 13.1 168.8 12.7 C 168.8 12.4 169.1 12.1 169.4 12.1 Z M 175 15.9 C 174.7 15.5 174.3 15.3 173.8 15.3 C 172.7 15.3 172.1 16.2 172.1 17.2 C 172.1 18.2 172.8 19.1 173.8 19.1 C 174.3 19.1 174.7 18.9 175 18.4 C 175 18.4 175.7 19 175.7 19 C 175.2 19.6 174.5 19.8 173.8 19.8 C 172.2 19.8 171.2 18.7 171.2 17.2 C 171.2 15.7 172.2 14.6 173.8 14.6 C 174.5 14.6 175.2 14.8 175.7 15.4 C 175.7 15.4 175 15.9 175 15.9 Z M 179.5 15.3 C 180.1 14.8 180.8 14.6 181.5 14.6 C 183 14.6 183.6 15.3 183.6 16.7 C 183.6 16.7 183.6 18.8 183.6 18.8 C 183.6 19.1 183.7 19.4 183.7 19.7 C 183.7 19.7 182.9 19.7 182.9 19.7 C 182.9 19.5 182.9 19.2 182.9 19 C 182.9 19 182.8 19 182.8 19 C 182.5 19.5 181.9 19.8 181.2 19.8 C 180.2 19.8 179.3 19.3 179.3 18.3 C 179.3 16.7 181.2 16.6 182.5 16.6 C 182.48 16.59 182.8 16.6 182.8 16.6 C 182.8 16.6 182.8 16.44 182.8 16.4 C 182.8 15.7 182.3 15.3 181.6 15.3 C 181 15.3 180.5 15.5 180.1 15.9 C 180.1 15.9 179.5 15.3 179.5 15.3 Z M 182 17.3 C 180.9 17.3 180.2 17.6 180.2 18.3 C 180.2 18.9 180.7 19.1 181.3 19.1 C 182.3 19.1 182.8 18.4 182.8 17.6 C 182.8 17.62 182.8 17.3 182.8 17.3 C 182.8 17.3 181.96 17.29 182 17.3 Z M 185.2 11.6 L 186.1 11.6 L 186.1 19.7 L 185.2 19.7 L 185.2 11.6 Z M 190.5 15.4 L 189 15.4 C 189 15.4 188.99 17.91 189 17.9 C 189 18.5 189 19.1 189.7 19.1 C 190 19.1 190.3 19 190.5 18.9 C 190.5 18.9 190.5 19.6 190.5 19.6 C 190.2 19.8 189.8 19.8 189.5 19.8 C 188.3 19.8 188.2 19.2 188.2 18.2 C 188.16 18.15 188.2 15.4 188.2 15.4 L 187.1 15.4 L 187.1 14.7 L 188.2 14.7 L 188.2 13.3 L 189 13.3 L 189 14.7 L 190.5 14.7 L 190.5 15.4 Z M 191.4 15.3 C 191.9 14.8 192.7 14.6 193.4 14.6 C 194.9 14.6 195.5 15.3 195.5 16.7 C 195.5 16.7 195.5 18.8 195.5 18.8 C 195.5 19.1 195.5 19.4 195.6 19.7 C 195.6 19.7 194.8 19.7 194.8 19.7 C 194.7 19.5 194.7 19.2 194.7 19 C 194.7 19 194.7 19 194.7 19 C 194.4 19.5 193.8 19.8 193.1 19.8 C 192.1 19.8 191.2 19.3 191.2 18.3 C 191.2 16.7 193.1 16.6 194.4 16.6 C 194.36 16.59 194.7 16.6 194.7 16.6 C 194.7 16.6 194.68 16.44 194.7 16.4 C 194.7 15.7 194.2 15.3 193.4 15.3 C 192.9 15.3 192.4 15.5 192 15.9 C 192 15.9 191.4 15.3 191.4 15.3 Z M 193.8 17.3 C 192.8 17.3 192.1 17.6 192.1 18.3 C 192.1 18.9 192.6 19.1 193.2 19.1 C 194.2 19.1 194.7 18.4 194.7 17.6 C 194.68 17.62 194.7 17.3 194.7 17.3 C 194.7 17.3 193.85 17.29 193.8 17.3 Z M 197 15.9 C 197 15.4 197 15 197 14.7 C 197 14.7 197.8 14.7 197.8 14.7 C 197.8 15 197.8 15.2 197.8 15.5 C 197.8 15.5 197.8 15.5 197.8 15.5 C 198.1 15 198.7 14.6 199.5 14.6 C 199.6 14.6 199.7 14.6 199.9 14.6 C 199.9 14.6 199.8 15.5 199.8 15.5 C 199.7 15.4 199.5 15.4 199.3 15.4 C 198.3 15.4 197.9 16.1 197.9 17.3 C 197.88 17.26 197.9 19.7 197.9 19.7 L 197 19.7 C 197 19.7 197.05 15.88 197 15.9 Z M 200.4 21.2 L 199.6 21.2 L 200.3 18.6 L 201.3 18.6 L 200.4 21.2 Z M 208.3 15.4 L 207 15.4 L 207 19.7 L 206.2 19.7 L 206.2 15.4 L 205.1 15.4 L 205.1 14.7 L 206.2 14.7 C 206.2 14.7 206.21 13.57 206.2 13.6 C 206.2 12.4 206.6 11.5 208 11.5 C 208.2 11.5 208.5 11.5 208.6 11.6 C 208.6 11.6 208.5 12.4 208.5 12.4 C 208.3 12.3 208.1 12.3 207.9 12.3 C 207.1 12.3 207 12.9 207 13.8 C 207.04 13.75 207 14.7 207 14.7 L 208.3 14.7 L 208.3 15.4 Z M 209 14.7 L 209.9 14.7 L 209.9 19.7 L 209 19.7 L 209 14.7 Z M 209.5 12.1 C 209.8 12.1 210.1 12.4 210.1 12.7 C 210.1 13.1 209.8 13.3 209.5 13.3 C 209.1 13.3 208.8 13.1 208.8 12.7 C 208.8 12.4 209.1 12.1 209.5 12.1 Z M 211.5 15.9 C 211.5 15.4 211.5 15 211.5 14.7 C 211.5 14.7 212.3 14.7 212.3 14.7 C 212.3 15 212.3 15.2 212.3 15.5 C 212.3 15.5 212.3 15.5 212.3 15.5 C 212.5 15 213.2 14.6 214 14.6 C 214.1 14.6 214.2 14.6 214.3 14.6 C 214.3 14.6 214.3 15.5 214.3 15.5 C 214.1 15.4 214 15.4 213.8 15.4 C 212.8 15.4 212.4 16.1 212.4 17.3 C 212.36 17.26 212.4 19.7 212.4 19.7 L 211.5 19.7 C 211.5 19.7 211.53 15.88 211.5 15.9 Z M 215.4 18.4 C 215.7 18.8 216.1 19.1 216.7 19.1 C 217.2 19.1 217.8 18.8 217.8 18.3 C 217.8 17.8 217.3 17.6 216.7 17.5 C 215.8 17.3 215 17.1 215 16 C 215 15.1 215.9 14.6 216.8 14.6 C 217.5 14.6 218.2 14.8 218.5 15.5 C 218.5 15.5 217.8 15.9 217.8 15.9 C 217.6 15.6 217.3 15.3 216.8 15.3 C 216.3 15.3 215.8 15.6 215.8 16 C 215.8 16.4 216.4 16.6 217 16.8 C 217.9 16.9 218.7 17.3 218.7 18.3 C 218.7 19.4 217.7 19.8 216.7 19.8 C 215.8 19.8 215.2 19.6 214.7 18.9 C 214.7 18.9 215.4 18.4 215.4 18.4 Z M 222.6 15.4 L 221.1 15.4 C 221.1 15.4 221.11 17.91 221.1 17.9 C 221.1 18.5 221.1 19.1 221.9 19.1 C 222.1 19.1 222.4 19 222.6 18.9 C 222.6 18.9 222.6 19.6 222.6 19.6 C 222.3 19.8 222 19.8 221.7 19.8 C 220.5 19.8 220.3 19.2 220.3 18.2 C 220.28 18.15 220.3 15.4 220.3 15.4 L 219.2 15.4 L 219.2 14.7 L 220.3 14.7 L 220.3 13.3 L 221.1 13.3 L 221.1 14.7 L 222.6 14.7 L 222.6 15.4 Z M 226.6 11.6 L 227.4 11.6 L 227.4 15.4 C 227.4 15.4 227.45 15.39 227.4 15.4 C 227.7 15 228.3 14.6 229.1 14.6 C 230.4 14.6 231 15.4 231 16.6 C 230.96 16.61 231 19.7 231 19.7 L 230.1 19.7 C 230.1 19.7 230.12 16.7 230.1 16.7 C 230.1 15.9 229.8 15.3 229 15.3 C 227.9 15.3 227.4 16.1 227.4 17.3 C 227.43 17.26 227.4 19.7 227.4 19.7 L 226.6 19.7 L 226.6 11.6 Z M 232.5 15.3 C 233 14.8 233.7 14.6 234.5 14.6 C 235.9 14.6 236.6 15.3 236.6 16.7 C 236.6 16.7 236.6 18.8 236.6 18.8 C 236.6 19.1 236.6 19.4 236.6 19.7 C 236.6 19.7 235.8 19.7 235.8 19.7 C 235.8 19.5 235.8 19.2 235.8 19 C 235.8 19 235.8 19 235.8 19 C 235.4 19.5 234.9 19.8 234.1 19.8 C 233.1 19.8 232.3 19.3 232.3 18.3 C 232.3 16.7 234.2 16.6 235.4 16.6 C 235.41 16.59 235.7 16.6 235.7 16.6 C 235.7 16.6 235.73 16.44 235.7 16.4 C 235.7 15.7 235.3 15.3 234.5 15.3 C 234 15.3 233.4 15.5 233 15.9 C 233 15.9 232.5 15.3 232.5 15.3 Z M 234.9 17.3 C 233.8 17.3 233.2 17.6 233.2 18.3 C 233.2 18.9 233.6 19.1 234.3 19.1 C 235.2 19.1 235.7 18.4 235.7 17.6 C 235.73 17.62 235.7 17.3 235.7 17.3 C 235.7 17.3 234.9 17.29 234.9 17.3 Z M 238.2 11.6 L 239 11.6 L 239 19.7 L 238.2 19.7 L 238.2 11.6 Z M 241.1 15.4 L 240 15.4 L 240 14.7 L 241.1 14.7 C 241.1 14.7 241.09 13.57 241.1 13.6 C 241.1 12.4 241.5 11.5 242.9 11.5 C 243.1 11.5 243.3 11.5 243.5 11.6 C 243.5 11.6 243.4 12.4 243.4 12.4 C 243.2 12.3 243 12.3 242.8 12.3 C 242 12.3 241.9 12.9 241.9 13.8 C 241.92 13.75 241.9 14.7 241.9 14.7 L 243.1 14.7 L 243.1 15.4 L 241.9 15.4 L 241.9 19.7 L 241.1 19.7 L 241.1 15.4 Z M 249.4 14.6 C 250.9 14.6 252.1 15.6 252.1 17.2 C 252.1 18.8 250.9 19.8 249.4 19.8 C 247.9 19.8 246.7 18.8 246.7 17.2 C 246.7 15.6 247.9 14.6 249.4 14.6 Z M 249.4 19.1 C 250.5 19.1 251.2 18.2 251.2 17.2 C 251.2 16.2 250.5 15.3 249.4 15.3 C 248.3 15.3 247.6 16.2 247.6 17.2 C 247.6 18.2 248.3 19.1 249.4 19.1 Z M 253.8 15.4 L 252.7 15.4 L 252.7 14.7 L 253.8 14.7 C 253.8 14.7 253.79 13.57 253.8 13.6 C 253.8 12.4 254.2 11.5 255.6 11.5 C 255.8 11.5 256 11.5 256.2 11.6 C 256.2 11.6 256.1 12.4 256.1 12.4 C 255.9 12.3 255.7 12.3 255.5 12.3 C 254.7 12.3 254.6 12.9 254.6 13.8 C 254.63 13.75 254.6 14.7 254.6 14.7 L 255.8 14.7 L 255.8 15.4 L 254.6 15.4 L 254.6 19.7 L 253.8 19.7 L 253.8 15.4 Z M 262.4 15.4 L 261 15.4 C 261 15.4 260.97 17.91 261 17.9 C 261 18.5 261 19.1 261.7 19.1 C 262 19.1 262.2 19 262.5 18.9 C 262.5 18.9 262.5 19.6 262.5 19.6 C 262.2 19.8 261.8 19.8 261.5 19.8 C 260.3 19.8 260.1 19.2 260.1 18.2 C 260.14 18.15 260.1 15.4 260.1 15.4 L 259 15.4 L 259 14.7 L 260.1 14.7 L 260.1 13.3 L 261 13.3 L 261 14.7 L 262.4 14.7 L 262.4 15.4 Z M 263.5 11.6 L 264.3 11.6 L 264.3 15.4 C 264.3 15.4 264.33 15.39 264.3 15.4 C 264.6 15 265.2 14.6 265.9 14.6 C 267.3 14.6 267.8 15.4 267.8 16.6 C 267.84 16.61 267.8 19.7 267.8 19.7 L 267 19.7 C 267 19.7 267.01 16.7 267 16.7 C 267 15.9 266.6 15.3 265.9 15.3 C 264.8 15.3 264.3 16.1 264.3 17.3 C 264.31 17.26 264.3 19.7 264.3 19.7 L 263.5 19.7 L 263.5 11.6 Z M 273.9 18.8 C 273.3 19.6 272.6 19.8 271.7 19.8 C 270.1 19.8 269.1 18.7 269.1 17.2 C 269.1 15.6 270.2 14.6 271.7 14.6 C 273.1 14.6 274.1 15.5 274.1 17.2 C 274.08 17.19 274.1 17.5 274.1 17.5 C 274.1 17.5 270.03 17.46 270 17.5 C 270.1 18.3 270.8 19.1 271.7 19.1 C 272.4 19.1 272.9 18.8 273.3 18.3 C 273.3 18.3 273.9 18.8 273.9 18.8 Z M 273.2 16.8 C 273.1 15.9 272.6 15.3 271.7 15.3 C 270.8 15.3 270.1 15.9 270 16.8 C 270 16.8 273.2 16.8 273.2 16.8 Z M 278.1 18.7 C 278.1 18.7 280.95 15.89 280.9 15.9 C 281.7 15.2 282 14.8 282 14.1 C 282 13.3 281.4 12.8 280.6 12.8 C 279.9 12.8 279.3 13.3 279.2 14 C 279.2 14 278.2 13.9 278.2 13.9 C 278.4 12.7 279.4 12 280.6 12 C 281.9 12 282.9 12.7 282.9 14.1 C 282.9 15.3 282.2 15.9 281.4 16.7 C 281.44 16.65 279.1 18.8 279.1 18.8 L 279.1 18.9 L 283 18.9 L 283 19.7 L 278.1 19.7 L 278.1 18.7 Z M 286.5 12 C 288.6 12 289 14.2 289 15.9 C 289 17.6 288.6 19.8 286.5 19.8 C 284.4 19.8 283.9 17.6 283.9 15.9 C 283.9 14.2 284.4 12 286.5 12 Z M 286.5 19.1 C 288 19.1 288.1 17 288.1 15.9 C 288.1 14.8 288 12.8 286.5 12.8 C 285 12.8 284.8 14.8 284.8 15.9 C 284.8 17 285 19.1 286.5 19.1 Z M 293 15.4 L 291.5 15.4 C 291.5 15.4 291.51 17.91 291.5 17.9 C 291.5 18.5 291.5 19.1 292.3 19.1 C 292.5 19.1 292.8 19 293 18.9 C 293 18.9 293 19.6 293 19.6 C 292.7 19.8 292.4 19.8 292.1 19.8 C 290.9 19.8 290.7 19.2 290.7 18.2 C 290.67 18.15 290.7 15.4 290.7 15.4 L 289.6 15.4 L 289.6 14.7 L 290.7 14.7 L 290.7 13.3 L 291.5 13.3 L 291.5 14.7 L 293 14.7 L 293 15.4 Z M 294 11.6 L 294.8 11.6 L 294.8 15.4 C 294.8 15.4 294.87 15.39 294.9 15.4 C 295.1 15 295.7 14.6 296.5 14.6 C 297.8 14.6 298.4 15.4 298.4 16.6 C 298.38 16.61 298.4 19.7 298.4 19.7 L 297.5 19.7 C 297.5 19.7 297.54 16.7 297.5 16.7 C 297.5 15.9 297.2 15.3 296.4 15.3 C 295.3 15.3 294.8 16.1 294.8 17.3 C 294.85 17.26 294.8 19.7 294.8 19.7 L 294 19.7 L 294 11.6 Z M 306.5 15.9 C 306.1 15.5 305.7 15.3 305.2 15.3 C 304.1 15.3 303.5 16.2 303.5 17.2 C 303.5 18.2 304.2 19.1 305.2 19.1 C 305.8 19.1 306.2 18.9 306.5 18.4 C 306.5 18.4 307.1 19 307.1 19 C 306.6 19.6 306 19.8 305.2 19.8 C 303.7 19.8 302.6 18.7 302.6 17.2 C 302.6 15.7 303.7 14.6 305.2 14.6 C 306 14.6 306.7 14.8 307.2 15.4 C 307.2 15.4 306.5 15.9 306.5 15.9 Z M 312.6 18.8 C 312 19.6 311.3 19.8 310.3 19.8 C 308.8 19.8 307.8 18.7 307.8 17.2 C 307.8 15.6 308.9 14.6 310.4 14.6 C 311.8 14.6 312.7 15.5 312.7 17.2 C 312.75 17.19 312.7 17.5 312.7 17.5 C 312.7 17.5 308.7 17.46 308.7 17.5 C 308.8 18.3 309.4 19.1 310.3 19.1 C 311.1 19.1 311.5 18.8 311.9 18.3 C 311.9 18.3 312.6 18.8 312.6 18.8 Z M 311.8 16.8 C 311.8 15.9 311.3 15.3 310.3 15.3 C 309.4 15.3 308.8 15.9 308.7 16.8 C 308.7 16.8 311.8 16.8 311.8 16.8 Z M 314 15.9 C 314 15.4 314 15 314 14.7 C 314 14.7 314.8 14.7 314.8 14.7 C 314.8 15 314.8 15.2 314.8 15.5 C 314.8 15.5 314.8 15.5 314.8 15.5 C 315.1 15 315.7 14.6 316.5 14.6 C 317.8 14.6 318.4 15.4 318.4 16.6 C 318.41 16.61 318.4 19.7 318.4 19.7 L 317.6 19.7 C 317.6 19.7 317.57 16.7 317.6 16.7 C 317.6 15.9 317.2 15.3 316.4 15.3 C 315.3 15.3 314.9 16.1 314.9 17.3 C 314.88 17.26 314.9 19.7 314.9 19.7 L 314 19.7 C 314 19.7 314.04 15.88 314 15.9 Z M 322.7 15.4 L 321.3 15.4 C 321.3 15.4 321.25 17.91 321.3 17.9 C 321.3 18.5 321.3 19.1 322 19.1 C 322.2 19.1 322.5 19 322.7 18.9 C 322.7 18.9 322.8 19.6 322.8 19.6 C 322.5 19.8 322.1 19.8 321.8 19.8 C 320.6 19.8 320.4 19.2 320.4 18.2 C 320.42 18.15 320.4 15.4 320.4 15.4 L 319.3 15.4 L 319.3 14.7 L 320.4 14.7 L 320.4 13.3 L 321.3 13.3 L 321.3 14.7 L 322.7 14.7 L 322.7 15.4 Z M 328.1 18.5 C 328.1 19 328.2 19.4 328.2 19.7 C 328.2 19.7 327.4 19.7 327.4 19.7 C 327.4 19.4 327.4 19.2 327.4 18.9 C 327.4 18.9 327.3 18.9 327.3 18.9 C 327.1 19.4 326.5 19.8 325.7 19.8 C 324.3 19.8 323.8 19 323.8 17.8 C 323.76 17.79 323.8 14.7 323.8 14.7 L 324.6 14.7 C 324.6 14.7 324.59 17.7 324.6 17.7 C 324.6 18.5 325 19.1 325.7 19.1 C 326.8 19.1 327.3 18.3 327.3 17.1 C 327.29 17.14 327.3 14.7 327.3 14.7 L 328.1 14.7 C 328.1 14.7 328.12 18.52 328.1 18.5 Z M 329.7 15.9 C 329.7 15.4 329.7 15 329.7 14.7 C 329.7 14.7 330.5 14.7 330.5 14.7 C 330.5 15 330.5 15.2 330.5 15.5 C 330.5 15.5 330.5 15.5 330.5 15.5 C 330.7 15 331.3 14.6 332.2 14.6 C 332.3 14.6 332.4 14.6 332.5 14.6 C 332.5 14.6 332.5 15.5 332.5 15.5 C 332.3 15.4 332.2 15.4 332 15.4 C 331 15.4 330.5 16.1 330.5 17.3 C 330.54 17.26 330.5 19.7 330.5 19.7 L 329.7 19.7 C 329.7 19.7 329.71 15.88 329.7 15.9 Z M 335.3 20.8 C 335 21.7 334.7 22.3 333.6 22.3 C 333.4 22.3 333.1 22.2 332.9 22.1 C 332.9 22.1 333 21.4 333 21.4 C 333.2 21.5 333.4 21.5 333.6 21.5 C 334.1 21.5 334.3 21.2 334.5 20.7 C 334.52 20.68 334.9 19.7 334.9 19.7 L 332.8 14.7 L 333.8 14.7 L 335.3 18.6 L 335.3 18.6 L 336.8 14.7 L 337.7 14.7 C 337.7 14.7 335.31 20.85 335.3 20.8 Z M 339.2 21.2 L 338.4 21.2 L 339.1 18.6 L 340.1 18.6 L 339.2 21.2 Z M 340 15.2 C 340 15.6 339.7 15.9 339.3 15.9 C 339 15.9 338.7 15.6 338.7 15.2 C 338.7 14.9 339 14.6 339.3 14.6 C 339.7 14.6 340 14.9 340 15.2 Z M 350 19.7 L 349.1 19.7 L 347.7 15.9 L 347.7 15.9 L 346.4 19.7 L 345.6 19.7 L 343.9 14.7 L 344.9 14.7 L 346 18.5 L 346 18.5 L 347.3 14.7 L 348.2 14.7 L 349.5 18.5 L 349.5 18.5 L 350.7 14.7 L 351.6 14.7 L 350 19.7 Z M 354.9 14.6 C 356.4 14.6 357.6 15.6 357.6 17.2 C 357.6 18.8 356.4 19.8 354.9 19.8 C 353.4 19.8 352.2 18.8 352.2 17.2 C 352.2 15.6 353.4 14.6 354.9 14.6 Z M 354.9 19.1 C 356 19.1 356.7 18.2 356.7 17.2 C 356.7 16.2 356 15.3 354.9 15.3 C 353.8 15.3 353.1 16.2 353.1 17.2 C 353.1 18.2 353.8 19.1 354.9 19.1 Z M 361.3 14.6 C 362.8 14.6 363.9 15.6 363.9 17.2 C 363.9 18.8 362.8 19.8 361.3 19.8 C 359.7 19.8 358.6 18.8 358.6 17.2 C 358.6 15.6 359.7 14.6 361.3 14.6 Z M 361.3 19.1 C 362.3 19.1 363 18.2 363 17.2 C 363 16.2 362.3 15.3 361.3 15.3 C 360.2 15.3 359.5 16.2 359.5 17.2 C 359.5 18.2 360.2 19.1 361.3 19.1 Z M 369.4 18.8 C 369.4 18.8 369.36 18.82 369.4 18.8 C 369.1 19.4 368.3 19.8 367.4 19.8 C 366 19.8 364.9 18.7 364.9 17.2 C 364.9 15.7 366 14.6 367.6 14.6 C 368.3 14.6 368.9 14.9 369.4 15.4 C 369.36 15.42 369.4 15.4 369.4 15.4 L 369.4 11.6 L 370.2 11.6 L 370.2 19.7 L 369.4 19.7 L 369.4 18.8 Z M 367.6 15.3 C 366.5 15.3 365.8 16.2 365.8 17.2 C 365.8 18.2 366.5 19.1 367.6 19.1 C 368.7 19.1 369.4 18.2 369.4 17.2 C 369.4 16.2 368.7 15.3 367.6 15.3 Z M 372.3 21.2 L 371.5 21.2 L 372.3 18.6 L 373.2 18.6 L 372.3 21.2 Z M 377.7 11.6 L 378.5 11.6 L 378.5 15.4 C 378.5 15.4 378.52 15.42 378.5 15.4 C 379 14.9 379.6 14.6 380.3 14.6 C 381.9 14.6 382.9 15.7 382.9 17.2 C 382.9 18.7 381.8 19.8 380.4 19.8 C 379.5 19.8 378.8 19.4 378.5 18.8 C 378.52 18.82 378.5 18.8 378.5 18.8 L 378.5 19.7 L 377.7 19.7 L 377.7 11.6 Z M 380.3 19.1 C 381.4 19.1 382.1 18.2 382.1 17.2 C 382.1 16.2 381.4 15.3 380.3 15.3 C 379.2 15.3 378.5 16.2 378.5 17.2 C 378.5 18.2 379.2 19.1 380.3 19.1 Z M 384.2 15.3 C 384.7 14.8 385.4 14.6 386.2 14.6 C 387.6 14.6 388.3 15.3 388.3 16.7 C 388.3 16.7 388.3 18.8 388.3 18.8 C 388.3 19.1 388.3 19.4 388.3 19.7 C 388.3 19.7 387.5 19.7 387.5 19.7 C 387.5 19.5 387.5 19.2 387.5 19 C 387.5 19 387.5 19 387.5 19 C 387.1 19.5 386.6 19.8 385.8 19.8 C 384.8 19.8 384 19.3 384 18.3 C 384 16.7 385.9 16.6 387.1 16.6 C 387.11 16.59 387.4 16.6 387.4 16.6 C 387.4 16.6 387.43 16.44 387.4 16.4 C 387.4 15.7 387 15.3 386.2 15.3 C 385.7 15.3 385.1 15.5 384.7 15.9 C 384.7 15.9 384.2 15.3 384.2 15.3 Z M 386.6 17.3 C 385.5 17.3 384.9 17.6 384.9 18.3 C 384.9 18.9 385.3 19.1 386 19.1 C 386.9 19.1 387.4 18.4 387.4 17.6 C 387.43 17.62 387.4 17.3 387.4 17.3 C 387.4 17.3 386.6 17.29 386.6 17.3 Z M 389.8 15.9 C 389.8 15.4 389.8 15 389.8 14.7 C 389.8 14.7 390.5 14.7 390.5 14.7 C 390.5 15 390.6 15.2 390.6 15.5 C 390.6 15.5 390.6 15.5 390.6 15.5 C 390.8 15 391.4 14.6 392.3 14.6 C 392.4 14.6 392.5 14.6 392.6 14.6 C 392.6 14.6 392.5 15.5 392.5 15.5 C 392.4 15.4 392.2 15.4 392.1 15.4 C 391.1 15.4 390.6 16.1 390.6 17.3 C 390.63 17.26 390.6 19.7 390.6 19.7 L 389.8 19.7 C 389.8 19.7 389.8 15.88 389.8 15.9 Z M 393.6 11.6 L 394.4 11.6 L 394.4 16.9 L 396.7 14.7 L 397.9 14.7 L 395.4 17 L 398.1 19.7 L 396.9 19.7 L 394.4 17.1 L 394.4 19.7 L 393.6 19.7 L 393.6 11.6 Z M 399.5 21.2 L 398.7 21.2 L 399.4 18.6 L 400.4 18.6 L 399.5 21.2 Z M 405 18.4 C 405.3 18.8 405.7 19.1 406.3 19.1 C 406.8 19.1 407.4 18.8 407.4 18.3 C 407.4 17.8 406.8 17.6 406.3 17.5 C 405.3 17.3 404.5 17.1 404.5 16 C 404.5 15.1 405.5 14.6 406.4 14.6 C 407.1 14.6 407.8 14.8 408.1 15.5 C 408.1 15.5 407.4 15.9 407.4 15.9 C 407.2 15.6 406.8 15.3 406.3 15.3 C 405.9 15.3 405.4 15.6 405.4 16 C 405.4 16.4 406 16.6 406.6 16.8 C 407.5 16.9 408.3 17.3 408.3 18.3 C 408.3 19.4 407.3 19.8 406.3 19.8 C 405.4 19.8 404.8 19.6 404.3 18.9 C 404.3 18.9 405 18.4 405 18.4 Z M 411.8 14.6 C 413.3 14.6 414.5 15.6 414.5 17.2 C 414.5 18.8 413.3 19.8 411.8 19.8 C 410.3 19.8 409.1 18.8 409.1 17.2 C 409.1 15.6 410.3 14.6 411.8 14.6 Z M 411.8 19.1 C 412.9 19.1 413.6 18.2 413.6 17.2 C 413.6 16.2 412.9 15.3 411.8 15.3 C 410.7 15.3 410 16.2 410 17.2 C 410 18.2 410.7 19.1 411.8 19.1 Z M 415.9 14.7 L 416.7 14.7 L 416.7 19.7 L 415.9 19.7 L 415.9 14.7 Z M 416.3 12.1 C 416.6 12.1 416.9 12.4 416.9 12.7 C 416.9 13.1 416.6 13.3 416.3 13.3 C 415.9 13.3 415.7 13.1 415.7 12.7 C 415.7 12.4 415.9 12.1 416.3 12.1 Z M 418.4 11.6 L 419.3 11.6 L 419.3 19.7 L 418.4 19.7 L 418.4 11.6 Z M 421.5 21.2 L 420.7 21.2 L 421.4 18.6 L 422.4 18.6 L 421.5 21.2 Z M 426.8 15.3 C 427.3 14.8 428.1 14.6 428.8 14.6 C 430.3 14.6 430.9 15.3 430.9 16.7 C 430.9 16.7 430.9 18.8 430.9 18.8 C 430.9 19.1 430.9 19.4 431 19.7 C 431 19.7 430.2 19.7 430.2 19.7 C 430.1 19.5 430.1 19.2 430.1 19 C 430.1 19 430.1 19 430.1 19 C 429.8 19.5 429.2 19.8 428.4 19.8 C 427.4 19.8 426.6 19.3 426.6 18.3 C 426.6 16.7 428.5 16.6 429.7 16.6 C 429.73 16.59 430.1 16.6 430.1 16.6 C 430.1 16.6 430.05 16.44 430.1 16.4 C 430.1 15.7 429.6 15.3 428.8 15.3 C 428.3 15.3 427.7 15.5 427.3 15.9 C 427.3 15.9 426.8 15.3 426.8 15.3 Z M 429.2 17.3 C 428.2 17.3 427.5 17.6 427.5 18.3 C 427.5 18.9 427.9 19.1 428.6 19.1 C 429.5 19.1 430 18.4 430.1 17.6 C 430.05 17.62 430.1 17.3 430.1 17.3 C 430.1 17.3 429.22 17.29 429.2 17.3 Z M 432.4 15.9 C 432.4 15.4 432.4 15 432.4 14.7 C 432.4 14.7 433.2 14.7 433.2 14.7 C 433.2 15 433.2 15.2 433.2 15.5 C 433.2 15.5 433.2 15.5 433.2 15.5 C 433.4 15 434.1 14.6 434.9 14.6 C 436.2 14.6 436.8 15.4 436.8 16.6 C 436.78 16.61 436.8 19.7 436.8 19.7 L 435.9 19.7 C 435.9 19.7 435.95 16.7 435.9 16.7 C 435.9 15.9 435.6 15.3 434.8 15.3 C 433.7 15.3 433.2 16.1 433.2 17.3 C 433.25 17.26 433.2 19.7 433.2 19.7 L 432.4 19.7 C 432.4 19.7 432.42 15.88 432.4 15.9 Z M 438.4 14.7 L 439.3 14.7 L 439.3 19.7 L 438.4 19.7 L 438.4 14.7 Z M 438.9 12.1 C 439.2 12.1 439.5 12.4 439.5 12.7 C 439.5 13.1 439.2 13.3 438.9 13.3 C 438.5 13.3 438.2 13.1 438.2 12.7 C 438.2 12.4 438.5 12.1 438.9 12.1 Z M 440.9 15.9 C 440.9 15.4 440.9 15 440.9 14.7 C 440.9 14.7 441.7 14.7 441.7 14.7 C 441.7 15 441.7 15.2 441.7 15.5 C 441.7 15.5 441.7 15.5 441.7 15.5 C 441.9 15 442.6 14.6 443.4 14.6 C 444.5 14.6 444.8 15.2 445 15.5 C 445.3 14.9 445.8 14.6 446.6 14.6 C 448 14.6 448.5 15.4 448.5 16.7 C 448.46 16.66 448.5 19.7 448.5 19.7 L 447.6 19.7 C 447.6 19.7 447.63 16.71 447.6 16.7 C 447.6 16 447.4 15.3 446.4 15.3 C 445.7 15.3 445.1 15.9 445.1 16.8 C 445.12 16.81 445.1 19.7 445.1 19.7 L 444.3 19.7 C 444.3 19.7 444.28 16.87 444.3 16.9 C 444.3 15.8 444 15.3 443.3 15.3 C 442.2 15.3 441.8 16.1 441.8 17.3 C 441.77 17.26 441.8 19.7 441.8 19.7 L 440.9 19.7 C 440.9 19.7 440.93 15.88 440.9 15.9 Z M 450 15.3 C 450.5 14.8 451.2 14.6 452 14.6 C 453.5 14.6 454.1 15.3 454.1 16.7 C 454.1 16.7 454.1 18.8 454.1 18.8 C 454.1 19.1 454.1 19.4 454.1 19.7 C 454.1 19.7 453.3 19.7 453.3 19.7 C 453.3 19.5 453.3 19.2 453.3 19 C 453.3 19 453.3 19 453.3 19 C 452.9 19.5 452.4 19.8 451.6 19.8 C 450.6 19.8 449.8 19.3 449.8 18.3 C 449.8 16.7 451.7 16.6 452.9 16.6 C 452.92 16.59 453.2 16.6 453.2 16.6 C 453.2 16.6 453.24 16.44 453.2 16.4 C 453.2 15.7 452.8 15.3 452 15.3 C 451.5 15.3 450.9 15.5 450.5 15.9 C 450.5 15.9 450 15.3 450 15.3 Z M 452.4 17.3 C 451.3 17.3 450.7 17.6 450.7 18.3 C 450.7 18.9 451.1 19.1 451.8 19.1 C 452.7 19.1 453.2 18.4 453.2 17.6 C 453.24 17.62 453.2 17.3 453.2 17.3 C 453.2 17.3 452.4 17.29 452.4 17.3 Z M 455.7 11.6 L 456.5 11.6 L 456.5 19.7 L 455.7 19.7 L 455.7 11.6 Z M 461.1 11.6 L 461.9 11.6 L 461.9 15.4 C 461.9 15.4 461.96 15.42 462 15.4 C 462.4 14.9 463 14.6 463.8 14.6 C 465.3 14.6 466.4 15.7 466.4 17.2 C 466.4 18.7 465.3 19.8 463.9 19.8 C 463 19.8 462.3 19.4 462 18.8 C 461.96 18.82 461.9 18.8 461.9 18.8 L 461.9 19.7 L 461.1 19.7 L 461.1 11.6 Z M 463.7 19.1 C 464.8 19.1 465.5 18.2 465.5 17.2 C 465.5 16.2 464.8 15.3 463.7 15.3 C 462.6 15.3 461.9 16.2 461.9 17.2 C 461.9 18.2 462.6 19.1 463.7 19.1 Z M 467.8 11.6 L 468.6 11.6 L 468.6 19.7 L 467.8 19.7 L 467.8 11.6 Z M 472.6 14.6 C 474.2 14.6 475.3 15.6 475.3 17.2 C 475.3 18.8 474.2 19.8 472.6 19.8 C 471.1 19.8 470 18.8 470 17.2 C 470 15.6 471.1 14.6 472.6 14.6 Z M 472.6 19.1 C 473.7 19.1 474.4 18.2 474.4 17.2 C 474.4 16.2 473.7 15.3 472.6 15.3 C 471.6 15.3 470.9 16.2 470.9 17.2 C 470.9 18.2 471.6 19.1 472.6 19.1 Z M 479 14.6 C 480.5 14.6 481.7 15.6 481.7 17.2 C 481.7 18.8 480.5 19.8 479 19.8 C 477.5 19.8 476.3 18.8 476.3 17.2 C 476.3 15.6 477.5 14.6 479 14.6 Z M 479 19.1 C 480.1 19.1 480.8 18.2 480.8 17.2 C 480.8 16.2 480.1 15.3 479 15.3 C 477.9 15.3 477.2 16.2 477.2 17.2 C 477.2 18.2 477.9 19.1 479 19.1 Z M 487.1 18.8 C 487.1 18.8 487.1 18.82 487.1 18.8 C 486.8 19.4 486.1 19.8 485.2 19.8 C 483.8 19.8 482.7 18.7 482.7 17.2 C 482.7 15.7 483.7 14.6 485.3 14.6 C 486 14.6 486.6 14.9 487.1 15.4 C 487.1 15.42 487.1 15.4 487.1 15.4 L 487.1 11.6 L 488 11.6 L 488 19.7 L 487.1 19.7 L 487.1 18.8 Z M 485.3 15.3 C 484.3 15.3 483.6 16.2 483.6 17.2 C 483.6 18.2 484.3 19.1 485.3 19.1 C 486.4 19.1 487.1 18.2 487.1 17.2 C 487.1 16.2 486.4 15.3 485.3 15.3 Z M 490.1 21.2 L 489.3 21.2 L 490 18.6 L 491 18.6 L 490.1 21.2 Z M 490.8 15.2 C 490.8 15.6 490.5 15.9 490.2 15.9 C 489.9 15.9 489.6 15.6 489.6 15.2 C 489.6 14.9 489.8 14.6 490.2 14.6 C 490.5 14.6 490.8 14.9 490.8 15.2 Z " stroke="none" fill="#fff"/>  </g></svg>