<?xml version="1.0" standalone="no"?><!DOCTYPE svg PUBLIC "-//W3C//DTD SVG 1.1//EN" "http://www.w3.org/Graphics/SVG/1.1/DTD/svg11.dtd"><svg xmlns="http://www.w3.org/2000/svg" version="1.1" width="511px" height="54.3px" viewBox="0 0 511 54.3">  <desc>Link to the MIA s Arts of Africa and the Americas Collection Page</desc>  <defs/>  <g id="Polygon48002">    <path d="M 45.6 26.2 C 45.1 25.6 44.3 25.2 43.2 25.2 C 41.1 25.2 39.5 26.9 39.5 29.3 C 39.5 31.7 41.1 33.4 43.1 33.4 C 44.3 33.4 45.2 32.9 45.8 32 C 45.8 32 48.1 33.8 48.1 33.8 C 47 35.3 45.2 36 43.5 36 C 39.5 36 36.6 33.4 36.6 29.3 C 36.6 25.2 39.5 22.6 43.5 22.6 C 44.9 22.6 46.7 23.1 47.8 24.5 C 47.8 24.5 45.6 26.2 45.6 26.2 Z M 53.7 26.7 C 56.4 26.7 58.6 28.5 58.6 31.3 C 58.6 34.1 56.4 35.9 53.7 35.9 C 51 35.9 48.8 34.1 48.8 31.3 C 48.8 28.5 51 26.7 53.7 26.7 Z M 53.7 33.5 C 55 33.5 55.9 32.6 55.9 31.3 C 55.9 30 55 29.1 53.7 29.1 C 52.3 29.1 51.5 30 51.5 31.3 C 51.5 32.6 52.3 33.5 53.7 33.5 Z M 60.2 22.1 L 62.9 22.1 L 62.9 35.7 L 60.2 35.7 L 60.2 22.1 Z M 65 22.1 L 67.7 22.1 L 67.7 35.7 L 65 35.7 L 65 22.1 Z M 78 34.2 C 77.1 35.3 75.7 35.9 74.3 35.9 C 71.6 35.9 69.4 34.1 69.4 31.3 C 69.4 28.5 71.6 26.7 74.3 26.7 C 76.8 26.7 78.4 28.5 78.4 31.3 C 78.37 31.31 78.4 32.2 78.4 32.2 C 78.4 32.2 72.11 32.15 72.1 32.2 C 72.3 33.2 73.1 33.8 74.1 33.8 C 75 33.8 75.6 33.4 76.1 32.8 C 76.1 32.8 78 34.2 78 34.2 Z M 75.7 30.3 C 75.7 29.4 75 28.7 74 28.7 C 72.8 28.7 72.2 29.5 72.1 30.3 C 72.1 30.3 75.7 30.3 75.7 30.3 Z M 85.9 29.8 C 85.6 29.4 85.1 29.1 84.5 29.1 C 83.2 29.1 82.4 30 82.4 31.3 C 82.4 32.6 83.2 33.5 84.5 33.5 C 85.1 33.5 85.6 33.2 85.9 32.9 C 85.9 32.9 87.7 34.7 87.7 34.7 C 86.8 35.6 85.6 35.9 84.5 35.9 C 81.8 35.9 79.7 34.1 79.7 31.3 C 79.7 28.5 81.8 26.7 84.5 26.7 C 85.6 26.7 86.8 27 87.7 27.9 C 87.7 27.9 85.9 29.8 85.9 29.8 Z M 95.1 29.1 L 92.7 29.1 C 92.7 29.1 92.74 32.01 92.7 32 C 92.7 32.9 92.9 33.6 94 33.6 C 94.3 33.6 94.9 33.6 95.1 33.4 C 95.1 33.4 95.1 35.6 95.1 35.6 C 94.5 35.8 93.9 35.9 93.2 35.9 C 91.4 35.9 90 35.2 90 33.2 C 90.04 33.25 90 29.1 90 29.1 L 88.3 29.1 L 88.3 26.9 L 90 26.9 L 90 24.3 L 92.7 24.3 L 92.7 26.9 L 95.1 26.9 L 95.1 29.1 Z M 96.8 26.9 L 99.5 26.9 L 99.5 35.7 L 96.8 35.7 L 96.8 26.9 Z M 98.1 22.6 C 99 22.6 99.7 23.3 99.7 24.2 C 99.7 25 99 25.7 98.1 25.7 C 97.3 25.7 96.6 25 96.6 24.2 C 96.6 23.3 97.3 22.6 98.1 22.6 Z M 105.9 26.7 C 108.6 26.7 110.8 28.5 110.8 31.3 C 110.8 34.1 108.6 35.9 105.9 35.9 C 103.2 35.9 101.1 34.1 101.1 31.3 C 101.1 28.5 103.2 26.7 105.9 26.7 Z M 105.9 33.5 C 107.3 33.5 108.1 32.6 108.1 31.3 C 108.1 30 107.3 29.1 105.9 29.1 C 104.6 29.1 103.8 30 103.8 31.3 C 103.8 32.6 104.6 33.5 105.9 33.5 Z M 112.4 26.9 L 115 26.9 L 115 28.1 C 115 28.1 115.07 28.12 115.1 28.1 C 115.4 27.4 116.3 26.7 117.6 26.7 C 120.4 26.7 120.9 28.5 120.9 30.9 C 120.87 30.86 120.9 35.7 120.9 35.7 L 118.2 35.7 C 118.2 35.7 118.17 31.4 118.2 31.4 C 118.2 30.4 118.1 29.1 116.8 29.1 C 115.4 29.1 115.1 30.2 115.1 31.3 C 115.14 31.32 115.1 35.7 115.1 35.7 L 112.4 35.7 L 112.4 26.9 Z M 128.4 22.9 C 128.4 22.9 133.18 22.94 133.2 22.9 C 135.8 22.9 138 23.8 138 26.8 C 138 29.8 136 30.7 133.3 30.7 C 133.3 30.71 131.3 30.7 131.3 30.7 L 131.3 35.7 L 128.4 35.7 L 128.4 22.9 Z M 131.3 28.3 C 131.3 28.3 133.12 28.34 133.1 28.3 C 134.1 28.3 135.1 28 135.1 26.8 C 135.1 25.5 133.8 25.3 132.7 25.3 C 132.69 25.31 131.3 25.3 131.3 25.3 L 131.3 28.3 Z M 144.7 34.6 C 144.7 34.6 144.66 34.58 144.7 34.6 C 144.1 35.5 143 35.9 141.9 35.9 C 140.2 35.9 138.8 35 138.8 33.2 C 138.8 30.2 142.4 30.1 144.7 30.1 C 144.7 29.2 143.9 28.6 143 28.6 C 142.1 28.6 141.3 28.9 140.8 29.6 C 140.8 29.6 139.3 28.1 139.3 28.1 C 140.3 27.2 141.8 26.7 143.2 26.7 C 146.3 26.7 147.2 28.3 147.2 31.2 C 147.18 31.23 147.2 35.7 147.2 35.7 L 144.7 35.7 L 144.7 34.6 Z M 144 31.8 C 143.2 31.8 141.4 31.9 141.4 33.1 C 141.4 33.8 142 34.1 142.6 34.1 C 143.7 34.1 144.7 33.5 144.7 32.4 C 144.69 32.42 144.7 31.8 144.7 31.8 C 144.7 31.8 144.03 31.85 144 31.8 Z M 158.2 34.9 C 158.2 38.2 156.5 40 153.1 40 C 151.6 40 150 39.7 148.7 38.7 C 148.7 38.7 150.2 36.5 150.2 36.5 C 151.1 37.2 152 37.6 153.1 37.6 C 154.7 37.6 155.5 36.7 155.5 35.5 C 155.48 35.48 155.5 34.6 155.5 34.6 C 155.5 34.6 155.45 34.64 155.4 34.6 C 154.8 35.5 153.8 35.8 153 35.8 C 150.4 35.8 148.7 33.9 148.7 31.3 C 148.7 28.9 150.2 26.7 152.7 26.7 C 154.2 26.7 155.2 27.5 155.7 28.1 C 155.66 28.08 155.7 28.1 155.7 28.1 L 155.7 26.9 L 158.2 26.9 C 158.2 26.9 158.18 34.94 158.2 34.9 Z M 153.5 33.4 C 154.8 33.4 155.7 32.4 155.7 31.3 C 155.7 30.1 154.8 29.1 153.5 29.1 C 152.3 29.1 151.4 30.1 151.4 31.3 C 151.4 32.4 152.3 33.4 153.5 33.4 Z M 168.5 34.2 C 167.7 35.3 166.2 35.9 164.8 35.9 C 162.1 35.9 160 34.1 160 31.3 C 160 28.5 162.1 26.7 164.8 26.7 C 167.4 26.7 168.9 28.5 168.9 31.3 C 168.94 31.31 168.9 32.2 168.9 32.2 C 168.9 32.2 162.67 32.15 162.7 32.2 C 162.9 33.2 163.7 33.8 164.7 33.8 C 165.6 33.8 166.2 33.4 166.6 32.8 C 166.6 32.8 168.5 34.2 168.5 34.2 Z M 166.2 30.3 C 166.3 29.4 165.6 28.7 164.6 28.7 C 163.4 28.7 162.7 29.5 162.7 30.3 C 162.7 30.3 166.2 30.3 166.2 30.3 Z " stroke="none" fill="#be870e"/>  </g>  <g id="Polygon48001">    <path d="M 6.4 10.5 L 12.1 8.2 L 12.1 8.2 L 6.4 6 L 6.4 3.5 L 15.5 7.1 L 15.5 9.4 L 6.4 12.9 L 6.4 10.5 Z M 17.1 10.5 L 22.8 8.2 L 22.8 8.2 L 17.1 6 L 17.1 3.5 L 26.2 7.1 L 26.2 9.4 L 17.1 12.9 L 17.1 10.5 Z M 37.4 0.9 L 40.2 0.9 L 40.2 11.1 L 45.4 11.1 L 45.4 13.7 L 37.4 13.7 L 37.4 0.9 Z M 46.6 4.9 L 49.3 4.9 L 49.3 13.7 L 46.6 13.7 L 46.6 4.9 Z M 48 0.6 C 48.8 0.6 49.5 1.3 49.5 2.2 C 49.5 3 48.8 3.7 48 3.7 C 47.1 3.7 46.4 3 46.4 2.2 C 46.4 1.3 47.1 0.6 48 0.6 Z M 51.4 4.9 L 54 4.9 L 54 6.1 C 54 6.1 54.02 6.12 54 6.1 C 54.4 5.4 55.3 4.7 56.6 4.7 C 59.3 4.7 59.8 6.5 59.8 8.9 C 59.81 8.86 59.8 13.7 59.8 13.7 L 57.1 13.7 C 57.1 13.7 57.11 9.4 57.1 9.4 C 57.1 8.4 57.1 7.1 55.7 7.1 C 54.3 7.1 54.1 8.2 54.1 9.3 C 54.09 9.32 54.1 13.7 54.1 13.7 L 51.4 13.7 L 51.4 4.9 Z M 61.9 0.1 L 64.6 0.1 L 64.6 8.4 L 67.5 4.9 L 70.9 4.9 L 67.4 8.9 L 70.9 13.7 L 67.5 13.7 L 64.6 9.3 L 64.6 9.3 L 64.6 13.7 L 61.9 13.7 L 61.9 0.1 Z M 83.2 7.1 L 80.8 7.1 C 80.8 7.1 80.78 10.01 80.8 10 C 80.8 10.9 80.9 11.6 82.1 11.6 C 82.3 11.6 82.9 11.6 83.2 11.4 C 83.2 11.4 83.2 13.6 83.2 13.6 C 82.6 13.8 81.9 13.9 81.3 13.9 C 79.5 13.9 78.1 13.2 78.1 11.2 C 78.08 11.25 78.1 7.1 78.1 7.1 L 76.3 7.1 L 76.3 4.9 L 78.1 4.9 L 78.1 2.3 L 80.8 2.3 L 80.8 4.9 L 83.2 4.9 L 83.2 7.1 Z M 89.1 4.7 C 91.8 4.7 93.9 6.5 93.9 9.3 C 93.9 12.1 91.8 13.9 89.1 13.9 C 86.4 13.9 84.2 12.1 84.2 9.3 C 84.2 6.5 86.4 4.7 89.1 4.7 Z M 89.1 11.5 C 90.4 11.5 91.2 10.6 91.2 9.3 C 91.2 8 90.4 7.1 89.1 7.1 C 87.7 7.1 86.9 8 86.9 9.3 C 86.9 10.6 87.7 11.5 89.1 11.5 Z M 106.8 7.1 L 104.4 7.1 C 104.4 7.1 104.42 10.01 104.4 10 C 104.4 10.9 104.5 11.6 105.7 11.6 C 106 11.6 106.6 11.6 106.8 11.4 C 106.8 11.4 106.8 13.6 106.8 13.6 C 106.2 13.8 105.5 13.9 104.9 13.9 C 103.1 13.9 101.7 13.2 101.7 11.2 C 101.72 11.25 101.7 7.1 101.7 7.1 L 100 7.1 L 100 4.9 L 101.7 4.9 L 101.7 2.3 L 104.4 2.3 L 104.4 4.9 L 106.8 4.9 L 106.8 7.1 Z M 111.2 0.1 L 111.2 6.1 C 111.2 6.1 111.23 6.12 111.2 6.1 C 111.5 5.4 112.4 4.7 113.7 4.7 C 116.4 4.7 116.9 6.5 116.9 8.9 C 116.92 8.86 116.9 13.7 116.9 13.7 L 114.2 13.7 C 114.2 13.7 114.22 9.4 114.2 9.4 C 114.2 8.4 114.2 7.1 112.8 7.1 C 111.4 7.1 111.2 8.2 111.2 9.3 C 111.19 9.32 111.2 13.7 111.2 13.7 L 108.5 13.7 L 108.5 0.1 L 111.2 0.1 Z M 127.1 12.2 C 126.2 13.3 124.8 13.9 123.4 13.9 C 120.7 13.9 118.5 12.1 118.5 9.3 C 118.5 6.5 120.7 4.7 123.4 4.7 C 125.9 4.7 127.5 6.5 127.5 9.3 C 127.51 9.31 127.5 10.2 127.5 10.2 C 127.5 10.2 121.25 10.15 121.2 10.2 C 121.5 11.2 122.2 11.8 123.3 11.8 C 124.2 11.8 124.8 11.4 125.2 10.8 C 125.2 10.8 127.1 12.2 127.1 12.2 Z M 124.8 8.3 C 124.8 7.4 124.1 6.7 123.2 6.7 C 122 6.7 121.3 7.5 121.2 8.3 C 121.2 8.3 124.8 8.3 124.8 8.3 Z M 134.8 0.9 L 139.1 0.9 L 142 9.3 L 142 9.3 L 145 0.9 L 149.2 0.9 L 149.2 13.7 L 146.4 13.7 L 146.4 3.9 L 146.4 3.9 L 143 13.7 L 140.9 13.7 L 137.7 3.9 L 137.6 3.9 L 137.6 13.7 L 134.8 13.7 L 134.8 0.9 Z M 151.7 0.9 L 154.6 0.9 L 154.6 13.7 L 151.7 13.7 L 151.7 0.9 Z M 161.2 0.9 L 163.6 0.9 L 169.1 13.7 L 165.9 13.7 L 164.8 11 L 159.9 11 L 158.8 13.7 L 155.7 13.7 L 161.2 0.9 Z M 162.3 4.6 L 160.8 8.6 L 163.9 8.6 L 162.3 4.6 Z M 170.7 6 L 168.4 6 L 169.7 0.9 L 172.3 0.9 L 170.7 6 Z M 178.2 7.5 C 177.8 7 177.3 6.8 176.6 6.8 C 176.2 6.8 175.6 7 175.6 7.5 C 175.6 8.8 180.2 7.7 180.2 11 C 180.2 13.2 178 13.9 176.2 13.9 C 174.9 13.9 173.6 13.6 172.7 12.7 C 172.7 12.7 174.4 10.9 174.4 10.9 C 174.9 11.5 175.5 11.8 176.3 11.8 C 176.9 11.8 177.5 11.7 177.5 11.2 C 177.5 9.8 172.9 11 172.9 7.7 C 172.9 5.6 174.8 4.7 176.6 4.7 C 177.8 4.7 179 5 179.9 5.9 C 179.9 5.9 178.2 7.5 178.2 7.5 Z M 191.4 0.9 L 193.8 0.9 L 199.3 13.7 L 196.1 13.7 L 195 11 L 190.1 11 L 189 13.7 L 185.9 13.7 L 191.4 0.9 Z M 192.5 4.6 L 191 8.6 L 194.1 8.6 L 192.5 4.6 Z M 200.4 4.9 L 203.1 4.9 L 203.1 6.3 C 203.1 6.3 203.11 6.34 203.1 6.3 C 203.7 5.3 204.4 4.7 205.6 4.7 C 205.9 4.7 206.3 4.7 206.5 4.8 C 206.5 4.8 206.5 7.3 206.5 7.3 C 206.1 7.2 205.8 7.1 205.4 7.1 C 203.3 7.1 203.1 8.3 203.1 10 C 203.07 10.03 203.1 13.7 203.1 13.7 L 200.4 13.7 L 200.4 4.9 Z M 214.1 7.1 L 211.7 7.1 C 211.7 7.1 211.7 10.01 211.7 10 C 211.7 10.9 211.8 11.6 213 11.6 C 213.3 11.6 213.8 11.6 214.1 11.4 C 214.1 11.4 214.1 13.6 214.1 13.6 C 213.5 13.8 212.8 13.9 212.2 13.9 C 210.4 13.9 209 13.2 209 11.2 C 209 11.25 209 7.1 209 7.1 L 207.3 7.1 L 207.3 4.9 L 209 4.9 L 209 2.3 L 211.7 2.3 L 211.7 4.9 L 214.1 4.9 L 214.1 7.1 Z M 220.6 7.5 C 220.2 7 219.7 6.8 219 6.8 C 218.6 6.8 218 7 218 7.5 C 218 8.8 222.6 7.7 222.6 11 C 222.6 13.2 220.4 13.9 218.6 13.9 C 217.3 13.9 216 13.6 215.1 12.7 C 215.1 12.7 216.8 10.9 216.8 10.9 C 217.3 11.5 217.9 11.8 218.7 11.8 C 219.3 11.8 219.9 11.7 219.9 11.2 C 219.9 9.8 215.3 11 215.3 7.7 C 215.3 5.6 217.2 4.7 219 4.7 C 220.2 4.7 221.4 5 222.3 5.9 C 222.3 5.9 220.6 7.5 220.6 7.5 Z M 233.8 4.7 C 236.5 4.7 238.7 6.5 238.7 9.3 C 238.7 12.1 236.5 13.9 233.8 13.9 C 231.1 13.9 229 12.1 229 9.3 C 229 6.5 231.1 4.7 233.8 4.7 Z M 233.8 11.5 C 235.2 11.5 236 10.6 236 9.3 C 236 8 235.2 7.1 233.8 7.1 C 232.5 7.1 231.7 8 231.7 9.3 C 231.7 10.6 232.5 11.5 233.8 11.5 Z M 241.3 7.1 L 239.5 7.1 L 239.5 4.9 L 241.3 4.9 C 241.3 4.9 241.26 3.38 241.3 3.4 C 241.3 1.5 241.7 -0.1 244.7 -0.1 C 245.2 -0.1 245.8 -0.1 246.3 0 C 246.3 0 246.1 2.3 246.1 2.3 C 245.8 2.2 245.6 2.1 245.3 2.1 C 244.4 2.1 244 2.4 244 3.5 C 243.96 3.55 244 4.9 244 4.9 L 246 4.9 L 246 7.1 L 244 7.1 L 244 13.7 L 241.3 13.7 L 241.3 7.1 Z M 256.8 0.9 L 259.2 0.9 L 264.7 13.7 L 261.5 13.7 L 260.4 11 L 255.5 11 L 254.4 13.7 L 251.3 13.7 L 256.8 0.9 Z M 257.9 4.6 L 256.4 8.6 L 259.5 8.6 L 257.9 4.6 Z M 266.3 7.1 L 264.5 7.1 L 264.5 4.9 L 266.3 4.9 C 266.3 4.9 266.28 3.38 266.3 3.4 C 266.3 1.5 266.8 -0.1 269.7 -0.1 C 270.2 -0.1 270.8 -0.1 271.3 0 C 271.3 0 271.2 2.3 271.2 2.3 C 270.9 2.2 270.6 2.1 270.3 2.1 C 269.4 2.1 269 2.4 269 3.5 C 268.98 3.55 269 4.9 269 4.9 L 271 4.9 L 271 7.1 L 269 7.1 L 269 13.7 L 266.3 13.7 L 266.3 7.1 Z M 272.1 4.9 L 274.8 4.9 L 274.8 6.3 C 274.8 6.3 274.82 6.34 274.8 6.3 C 275.4 5.3 276.2 4.7 277.3 4.7 C 277.6 4.7 278 4.7 278.2 4.8 C 278.2 4.8 278.2 7.3 278.2 7.3 C 277.9 7.2 277.5 7.1 277.1 7.1 C 275 7.1 274.8 8.3 274.8 10 C 274.78 10.03 274.8 13.7 274.8 13.7 L 272.1 13.7 L 272.1 4.9 Z M 279.4 4.9 L 282.1 4.9 L 282.1 13.7 L 279.4 13.7 L 279.4 4.9 Z M 280.8 0.6 C 281.6 0.6 282.3 1.3 282.3 2.2 C 282.3 3 281.6 3.7 280.8 3.7 C 279.9 3.7 279.2 3 279.2 2.2 C 279.2 1.3 279.9 0.6 280.8 0.6 Z M 289.9 7.8 C 289.7 7.4 289.2 7.1 288.6 7.1 C 287.3 7.1 286.5 8 286.5 9.3 C 286.5 10.6 287.3 11.5 288.6 11.5 C 289.2 11.5 289.6 11.2 289.9 10.9 C 289.9 10.9 291.7 12.7 291.7 12.7 C 290.9 13.6 289.6 13.9 288.6 13.9 C 285.9 13.9 283.8 12.1 283.8 9.3 C 283.8 6.5 285.9 4.7 288.6 4.7 C 289.6 4.7 290.9 5 291.7 5.9 C 291.7 5.9 289.9 7.8 289.9 7.8 Z M 298.4 12.6 C 298.4 12.6 298.33 12.58 298.3 12.6 C 297.7 13.5 296.7 13.9 295.6 13.9 C 293.9 13.9 292.4 13 292.4 11.2 C 292.4 8.2 296.1 8.1 298.4 8.1 C 298.4 7.2 297.6 6.6 296.6 6.6 C 295.8 6.6 295 6.9 294.4 7.6 C 294.4 7.6 293 6.1 293 6.1 C 294 5.2 295.4 4.7 296.9 4.7 C 300 4.7 300.9 6.3 300.9 9.2 C 300.85 9.23 300.9 13.7 300.9 13.7 L 298.4 13.7 L 298.4 12.6 Z M 297.7 9.8 C 296.9 9.8 295 9.9 295 11.1 C 295 11.8 295.7 12.1 296.3 12.1 C 297.4 12.1 298.4 11.5 298.4 10.4 C 298.37 10.42 298.4 9.8 298.4 9.8 C 298.4 9.8 297.7 9.85 297.7 9.8 Z M 313.4 12.6 C 313.4 12.6 313.33 12.58 313.3 12.6 C 312.7 13.5 311.7 13.9 310.6 13.9 C 308.9 13.9 307.4 13 307.4 11.2 C 307.4 8.2 311.1 8.1 313.4 8.1 C 313.4 7.2 312.6 6.6 311.6 6.6 C 310.8 6.6 310 6.9 309.4 7.6 C 309.4 7.6 308 6.1 308 6.1 C 309 5.2 310.4 4.7 311.8 4.7 C 315 4.7 315.8 6.3 315.8 9.2 C 315.85 9.23 315.8 13.7 315.8 13.7 L 313.4 13.7 L 313.4 12.6 Z M 312.7 9.8 C 311.9 9.8 310 9.9 310 11.1 C 310 11.8 310.7 12.1 311.3 12.1 C 312.4 12.1 313.4 11.5 313.4 10.4 C 313.36 10.42 313.4 9.8 313.4 9.8 C 313.4 9.8 312.7 9.85 312.7 9.8 Z M 317.8 4.9 L 320.4 4.9 L 320.4 6.1 C 320.4 6.1 320.4 6.12 320.4 6.1 C 320.8 5.4 321.6 4.7 323 4.7 C 325.7 4.7 326.2 6.5 326.2 8.9 C 326.2 8.86 326.2 13.7 326.2 13.7 L 323.5 13.7 C 323.5 13.7 323.5 9.4 323.5 9.4 C 323.5 8.4 323.5 7.1 322.1 7.1 C 320.7 7.1 320.5 8.2 320.5 9.3 C 320.48 9.32 320.5 13.7 320.5 13.7 L 317.8 13.7 L 317.8 4.9 Z M 337.3 13.7 L 334.9 13.7 L 334.9 12.5 C 334.9 12.5 334.82 12.53 334.8 12.5 C 334.4 13.2 333.4 13.9 332.1 13.9 C 329.5 13.9 327.8 12 327.8 9.4 C 327.8 6.9 329.4 4.7 331.8 4.7 C 333 4.7 334 5 334.6 5.9 C 334.61 5.87 334.6 5.9 334.6 5.9 L 334.6 0.1 L 337.3 0.1 L 337.3 13.7 Z M 332.7 7.1 C 331.3 7.1 330.5 8 330.5 9.3 C 330.5 10.6 331.3 11.5 332.7 11.5 C 334 11.5 334.9 10.6 334.9 9.3 C 334.9 8 334 7.1 332.7 7.1 Z M 350.8 7.1 L 348.4 7.1 C 348.4 7.1 348.41 10.01 348.4 10 C 348.4 10.9 348.5 11.6 349.7 11.6 C 350 11.6 350.6 11.6 350.8 11.4 C 350.8 11.4 350.8 13.6 350.8 13.6 C 350.2 13.8 349.5 13.9 348.9 13.9 C 347.1 13.9 345.7 13.2 345.7 11.2 C 345.71 11.25 345.7 7.1 345.7 7.1 L 344 7.1 L 344 4.9 L 345.7 4.9 L 345.7 2.3 L 348.4 2.3 L 348.4 4.9 L 350.8 4.9 L 350.8 7.1 Z M 355.2 0.1 L 355.2 6.1 C 355.2 6.1 355.22 6.12 355.2 6.1 C 355.5 5.4 356.4 4.7 357.7 4.7 C 360.4 4.7 360.9 6.5 360.9 8.9 C 360.91 8.86 360.9 13.7 360.9 13.7 L 358.2 13.7 C 358.2 13.7 358.21 9.4 358.2 9.4 C 358.2 8.4 358.2 7.1 356.8 7.1 C 355.4 7.1 355.2 8.2 355.2 9.3 C 355.18 9.32 355.2 13.7 355.2 13.7 L 352.5 13.7 L 352.5 0.1 L 355.2 0.1 Z M 371.1 12.2 C 370.2 13.3 368.8 13.9 367.4 13.9 C 364.7 13.9 362.5 12.1 362.5 9.3 C 362.5 6.5 364.7 4.7 367.4 4.7 C 369.9 4.7 371.5 6.5 371.5 9.3 C 371.5 9.31 371.5 10.2 371.5 10.2 C 371.5 10.2 365.24 10.15 365.2 10.2 C 365.5 11.2 366.2 11.8 367.3 11.8 C 368.2 11.8 368.7 11.4 369.2 10.8 C 369.2 10.8 371.1 12.2 371.1 12.2 Z M 368.8 8.3 C 368.8 7.4 368.1 6.7 367.1 6.7 C 366 6.7 365.3 7.5 365.2 8.3 C 365.2 8.3 368.8 8.3 368.8 8.3 Z M 383 0.9 L 385.3 0.9 L 390.9 13.7 L 387.7 13.7 L 386.6 11 L 381.7 11 L 380.6 13.7 L 377.5 13.7 L 383 0.9 Z M 384.1 4.6 L 382.5 8.6 L 385.6 8.6 L 384.1 4.6 Z M 391.9 4.9 L 394.5 4.9 L 394.5 6.1 C 394.5 6.1 394.56 6.12 394.6 6.1 C 394.9 5.4 395.8 4.7 397.1 4.7 C 398.3 4.7 399.3 5.2 399.8 6.3 C 400.4 5.2 401.3 4.7 402.6 4.7 C 405 4.7 405.7 6.4 405.7 8.5 C 405.68 8.51 405.7 13.7 405.7 13.7 L 403 13.7 C 403 13.7 402.98 8.59 403 8.6 C 403 7.8 402.7 7.1 401.8 7.1 C 400.6 7.1 400.2 8 400.2 9.1 C 400.16 9.05 400.2 13.7 400.2 13.7 L 397.5 13.7 C 397.5 13.7 397.46 9.05 397.5 9.1 C 397.5 8.4 397.5 7.1 396.3 7.1 C 394.8 7.1 394.6 8.2 394.6 9.3 C 394.63 9.32 394.6 13.7 394.6 13.7 L 391.9 13.7 L 391.9 4.9 Z M 415.9 12.2 C 415 13.3 413.6 13.9 412.2 13.9 C 409.5 13.9 407.3 12.1 407.3 9.3 C 407.3 6.5 409.5 4.7 412.2 4.7 C 414.7 4.7 416.3 6.5 416.3 9.3 C 416.3 9.31 416.3 10.2 416.3 10.2 C 416.3 10.2 410.03 10.15 410 10.2 C 410.3 11.2 411 11.8 412.1 11.8 C 413 11.8 413.5 11.4 414 10.8 C 414 10.8 415.9 12.2 415.9 12.2 Z M 413.6 8.3 C 413.6 7.4 412.9 6.7 411.9 6.7 C 410.8 6.7 410.1 7.5 410 8.3 C 410 8.3 413.6 8.3 413.6 8.3 Z M 418 4.9 L 420.7 4.9 L 420.7 6.3 C 420.7 6.3 420.76 6.34 420.8 6.3 C 421.3 5.3 422.1 4.7 423.3 4.7 C 423.6 4.7 423.9 4.7 424.2 4.8 C 424.2 4.8 424.2 7.3 424.2 7.3 C 423.8 7.2 423.4 7.1 423 7.1 C 421 7.1 420.7 8.3 420.7 10 C 420.72 10.03 420.7 13.7 420.7 13.7 L 418 13.7 L 418 4.9 Z M 425.4 4.9 L 428.1 4.9 L 428.1 13.7 L 425.4 13.7 L 425.4 4.9 Z M 426.7 0.6 C 427.6 0.6 428.3 1.3 428.3 2.2 C 428.3 3 427.6 3.7 426.7 3.7 C 425.8 3.7 425.1 3 425.1 2.2 C 425.1 1.3 425.8 0.6 426.7 0.6 Z M 435.9 7.8 C 435.6 7.4 435.1 7.1 434.6 7.1 C 433.2 7.1 432.4 8 432.4 9.3 C 432.4 10.6 433.2 11.5 434.6 11.5 C 435.1 11.5 435.6 11.2 435.9 10.9 C 435.9 10.9 437.7 12.7 437.7 12.7 C 436.8 13.6 435.6 13.9 434.6 13.9 C 431.9 13.9 429.7 12.1 429.7 9.3 C 429.7 6.5 431.9 4.7 434.6 4.7 C 435.6 4.7 436.8 5 437.7 5.9 C 437.7 5.9 435.9 7.8 435.9 7.8 Z M 444.3 12.6 C 444.3 12.6 444.27 12.58 444.3 12.6 C 443.7 13.5 442.6 13.9 441.5 13.9 C 439.9 13.9 438.4 13 438.4 11.2 C 438.4 8.2 442.1 8.1 444.3 8.1 C 444.3 7.2 443.5 6.6 442.6 6.6 C 441.7 6.6 441 6.9 440.4 7.6 C 440.4 7.6 438.9 6.1 438.9 6.1 C 439.9 5.2 441.4 4.7 442.8 4.7 C 445.9 4.7 446.8 6.3 446.8 9.2 C 446.79 9.23 446.8 13.7 446.8 13.7 L 444.3 13.7 L 444.3 12.6 Z M 443.6 9.8 C 442.8 9.8 441 9.9 441 11.1 C 441 11.8 441.7 12.1 442.3 12.1 C 443.3 12.1 444.3 11.5 444.3 10.4 C 444.3 10.42 444.3 9.8 444.3 9.8 C 444.3 9.8 443.64 9.85 443.6 9.8 Z M 453.6 7.5 C 453.2 7 452.7 6.8 452 6.8 C 451.6 6.8 451 7 451 7.5 C 451 8.8 455.6 7.7 455.6 11 C 455.6 13.2 453.4 13.9 451.6 13.9 C 450.3 13.9 449 13.6 448.1 12.7 C 448.1 12.7 449.8 10.9 449.8 10.9 C 450.3 11.5 450.9 11.8 451.7 11.8 C 452.3 11.8 452.9 11.7 452.9 11.2 C 452.9 9.8 448.3 11 448.3 7.7 C 448.3 5.6 450.2 4.7 452 4.7 C 453.2 4.7 454.4 5 455.2 5.9 C 455.2 5.9 453.6 7.5 453.6 7.5 Z " stroke="none" fill="#be870e"/>  </g></svg>