<?xml version="1.0" standalone="no"?><!DOCTYPE svg PUBLIC "-//W3C//DTD SVG 1.1//EN" "http://www.w3.org/Graphics/SVG/1.1/DTD/svg11.dtd"><svg xmlns="http://www.w3.org/2000/svg" version="1.1" width="939px" height="221.3px" viewBox="0 0 939 221.3">  <desc>Inner Being CT Scan Reveals a Sacred Surprise</desc>  <defs/>  <g id="Polygon46346">    <path d="M 1.9 157.6 C 2.8 159.1 4.3 159.9 6.2 159.9 C 8.5 159.9 10.4 158.5 10.4 156.3 C 10.4 151.1 0.8 154.1 0.8 147 C 0.8 143.7 3.6 142 6.7 142 C 8.8 142 10.5 142.6 11.8 144.3 C 11.8 144.3 10.3 145.4 10.3 145.4 C 9.4 144.2 8.3 143.5 6.7 143.5 C 4.4 143.5 2.5 144.7 2.5 147 C 2.5 152.6 12.1 149.3 12.1 156.3 C 12.1 159.6 9.3 161.5 6.3 161.5 C 3.9 161.5 1.7 160.7 0.3 158.7 C 0.3 158.7 1.9 157.6 1.9 157.6 Z M 24.2 155.9 C 24.2 158.3 24.3 159.6 24.5 161 C 24.5 161 23 161 23 161 C 22.9 160.4 22.9 159.7 22.9 159.1 C 22.9 159.1 22.8 159.1 22.8 159.1 C 21.9 160.6 20.6 161.3 18.5 161.3 C 16.5 161.3 14.3 160.3 14.3 157.7 C 14.3 154 18.6 153.7 21 153.7 C 20.98 153.67 22.8 153.7 22.8 153.7 C 22.8 153.7 22.82 152.94 22.8 152.9 C 22.8 150.8 21.4 150 19.4 150 C 18 150 16.8 150.4 15.7 151.4 C 15.7 151.4 14.8 150.3 14.8 150.3 C 15.9 149.2 17.8 148.6 19.4 148.6 C 22.4 148.6 24.2 149.9 24.2 153 C 24.2 153 24.2 155.9 24.2 155.9 Z M 21.1 154.9 C 18.5 154.9 15.8 155.6 15.8 157.7 C 15.8 159.2 17.3 159.9 18.6 159.9 C 22 159.9 22.8 157.8 22.8 155.7 C 22.82 155.75 22.8 154.9 22.8 154.9 C 22.8 154.9 21.09 154.93 21.1 154.9 Z M 37.8 159.2 C 36.7 160.7 35.1 161.3 33.4 161.3 C 29.6 161.3 27 158.7 27 155 C 27 151.3 29.6 148.6 33.4 148.6 C 35.1 148.6 36.7 149.3 37.9 150.7 C 37.9 150.7 36.6 151.6 36.6 151.6 C 35.7 150.6 34.6 150 33.4 150 C 30.4 150 28.6 152.2 28.6 155 C 28.6 157.7 30.4 159.9 33.4 159.9 C 34.7 159.9 35.8 159.2 36.6 158.2 C 36.6 158.2 37.8 159.2 37.8 159.2 Z M 39.9 152.3 C 39.9 151.4 39.8 149.5 39.8 148.9 C 39.8 148.9 41.4 148.9 41.4 148.9 C 41.4 149.8 41.4 150.8 41.5 151 C 42.2 149.6 43.5 148.6 45.3 148.6 C 45.6 148.6 45.9 148.6 46.2 148.7 C 46.2 148.7 46.1 150.3 46.1 150.3 C 45.8 150.2 45.6 150.1 45.5 150.1 C 42.7 150.1 41.5 152 41.5 154.4 C 41.49 154.41 41.5 161 41.5 161 L 39.9 161 C 39.9 161 39.91 152.3 39.9 152.3 Z M 58.4 158.7 C 57.2 160.6 55.3 161.3 53.2 161.3 C 49.5 161.3 47 158.7 47 154.9 C 47 151.3 49.5 148.6 53.1 148.6 C 56.8 148.6 58.8 151.4 58.8 154.2 C 58.78 154.25 58.8 155.4 58.8 155.4 C 58.8 155.4 48.59 155.35 48.6 155.4 C 48.6 156.7 49.5 159.9 53.2 159.9 C 54.8 159.9 56.5 159.1 57.3 157.8 C 57.3 157.8 58.4 158.7 58.4 158.7 Z M 57.2 153.9 C 57.2 151.8 55.3 150 53 150 C 49.6 150 48.6 153.3 48.6 153.9 C 48.6 153.9 57.2 153.9 57.2 153.9 Z M 72.3 158.9 C 72.3 158.9 72.21 158.9 72.2 158.9 C 71.2 160.6 69.2 161.3 67.3 161.3 C 63.6 161.3 61 158.7 61 155 C 61 151.3 63.6 148.6 67.3 148.6 C 69.2 148.6 71.2 149.3 72.2 151 C 72.21 151.02 72.3 151 72.3 151 L 72.3 141.2 L 73.8 141.2 L 73.8 161 L 72.3 161 L 72.3 158.9 Z M 67.3 150 C 64.4 150 62.5 152.2 62.5 155 C 62.5 157.7 64.4 159.9 67.3 159.9 C 70.2 159.9 72.4 157.7 72.4 155 C 72.4 152.2 70.2 150 67.3 150 Z M 84.4 157.6 C 85.3 159.1 86.8 159.9 88.7 159.9 C 91 159.9 92.9 158.5 92.9 156.3 C 92.9 151.1 83.3 154.1 83.3 147 C 83.3 143.7 86.1 142 89.2 142 C 91.3 142 93 142.6 94.3 144.3 C 94.3 144.3 92.8 145.4 92.8 145.4 C 91.9 144.2 90.8 143.5 89.2 143.5 C 87 143.5 85 144.7 85 147 C 85 152.6 94.6 149.3 94.6 156.3 C 94.6 159.6 91.8 161.5 88.8 161.5 C 86.4 161.5 84.2 160.7 82.8 158.7 C 82.8 158.7 84.4 157.6 84.4 157.6 Z M 107.7 157.6 C 107.7 158.5 107.8 160.4 107.8 161 C 107.8 161 106.2 161 106.2 161 C 106.2 160.1 106.2 159.1 106.1 158.9 C 106.1 158.9 106 158.9 106 158.9 C 105.4 160.2 103.9 161.3 101.9 161.3 C 98.1 161.3 97.3 158.8 97.3 156.1 C 97.26 156.12 97.3 148.9 97.3 148.9 L 98.8 148.9 C 98.8 148.9 98.84 156.04 98.8 156 C 98.8 158 99.4 159.9 101.9 159.9 C 104.2 159.9 106.1 158.3 106.1 155 C 106.09 154.96 106.1 148.9 106.1 148.9 L 107.7 148.9 C 107.7 148.9 107.67 157.61 107.7 157.6 Z M 111.3 152.3 C 111.3 151.4 111.1 149.5 111.1 148.9 C 111.1 148.9 112.7 148.9 112.7 148.9 C 112.7 149.8 112.8 150.8 112.8 151 C 113.6 149.6 114.9 148.6 116.7 148.6 C 117 148.6 117.3 148.6 117.6 148.7 C 117.6 148.7 117.4 150.3 117.4 150.3 C 117.2 150.2 117 150.1 116.8 150.1 C 114.1 150.1 112.8 152 112.8 154.4 C 112.83 154.41 112.8 161 112.8 161 L 111.3 161 C 111.3 161 111.25 152.3 111.3 152.3 Z M 119.4 148.9 L 121 148.9 L 121 151 C 121 151 121.01 151.02 121 151 C 122 149.3 124.1 148.6 125.9 148.6 C 129.6 148.6 132.3 151.3 132.3 155 C 132.3 158.7 129.6 161.3 125.9 161.3 C 124.1 161.3 122 160.6 121 158.9 C 121.01 158.9 121 158.9 121 158.9 L 121 167 L 119.4 167 L 119.4 148.9 Z M 125.9 159.9 C 128.8 159.9 130.7 157.7 130.7 155 C 130.7 152.2 128.8 150 125.9 150 C 123 150 120.8 152.2 120.8 155 C 120.8 157.7 123 159.9 125.9 159.9 Z M 135.1 152.3 C 135.1 151.4 134.9 149.5 134.9 148.9 C 134.9 148.9 136.5 148.9 136.5 148.9 C 136.5 149.8 136.6 150.8 136.6 151 C 137.4 149.6 138.7 148.6 140.5 148.6 C 140.8 148.6 141.1 148.6 141.4 148.7 C 141.4 148.7 141.2 150.3 141.2 150.3 C 141 150.2 140.8 150.1 140.6 150.1 C 137.9 150.1 136.6 152 136.6 154.4 C 136.63 154.41 136.6 161 136.6 161 L 135.1 161 C 135.1 161 135.05 152.3 135.1 152.3 Z M 143.5 148.9 L 145.1 148.9 L 145.1 161 L 143.5 161 L 143.5 148.9 Z M 144.3 142.9 C 144.9 142.9 145.4 143.4 145.4 144.1 C 145.4 144.7 144.9 145.3 144.3 145.3 C 143.6 145.3 143.1 144.7 143.1 144.1 C 143.1 143.4 143.6 142.9 144.3 142.9 Z M 148.9 157.9 C 149.5 159.2 151 159.9 152.4 159.9 C 153.8 159.9 155.2 159.1 155.2 157.7 C 155.2 154.4 148 156.7 148 152.1 C 148 149.7 150.1 148.6 152.1 148.6 C 154.1 148.6 155.6 149.3 156.4 150.9 C 156.4 150.9 155 151.7 155 151.7 C 154.4 150.6 153.5 150 152.1 150 C 151 150 149.5 150.7 149.5 151.9 C 149.5 155.2 156.8 152.7 156.8 157.6 C 156.8 160.1 154.7 161.3 152.4 161.3 C 150.3 161.3 148.4 160.6 147.5 158.9 C 147.5 158.9 148.9 157.9 148.9 157.9 Z M 170.1 158.7 C 168.9 160.6 167 161.3 164.9 161.3 C 161.2 161.3 158.7 158.7 158.7 154.9 C 158.7 151.3 161.2 148.6 164.8 148.6 C 168.5 148.6 170.5 151.4 170.5 154.2 C 170.49 154.25 170.5 155.4 170.5 155.4 C 170.5 155.4 160.3 155.35 160.3 155.4 C 160.3 156.7 161.2 159.9 164.9 159.9 C 166.5 159.9 168.2 159.1 169 157.8 C 169 157.8 170.1 158.7 170.1 158.7 Z M 168.9 153.9 C 168.9 151.8 167 150 164.7 150 C 161.3 150 160.3 153.3 160.3 153.9 C 160.3 153.9 168.9 153.9 168.9 153.9 Z " stroke="none" fill="#be870e"/>  </g>  <g id="Polygon46345">    <path d="M 17.6 128.1 C 15.9 130.5 13.4 131.5 10.7 131.5 C 5 131.5 1.1 127.4 1.1 121.7 C 1.1 116 5 112 10.7 112 C 13.2 112 15.5 112.8 17.1 114.9 C 17.1 114.9 15.7 116 15.7 116 C 14.5 114.3 12.6 113.5 10.7 113.5 C 5.9 113.5 2.8 117.1 2.8 121.7 C 2.8 126.4 5.9 129.9 10.7 129.9 C 12.6 129.9 14.9 129 16.2 127 C 16.2 127 17.6 128.1 17.6 128.1 Z M 24.7 114 L 18.3 114 L 18.3 112.4 L 32.7 112.4 L 32.7 114 L 26.4 114 L 26.4 131 L 24.7 131 L 24.7 114 Z M 41.9 127.6 C 42.8 129.1 44.3 129.9 46.1 129.9 C 48.5 129.9 50.3 128.5 50.3 126.3 C 50.3 121.1 40.7 124.1 40.7 117 C 40.7 113.7 43.6 112 46.7 112 C 48.7 112 50.5 112.6 51.8 114.3 C 51.8 114.3 50.3 115.4 50.3 115.4 C 49.4 114.2 48.3 113.5 46.6 113.5 C 44.4 113.5 42.5 114.7 42.5 117 C 42.5 122.6 52.1 119.3 52.1 126.3 C 52.1 129.6 49.3 131.5 46.3 131.5 C 43.8 131.5 41.7 130.7 40.2 128.7 C 40.2 128.7 41.9 127.6 41.9 127.6 Z M 65 129.2 C 63.8 130.7 62.3 131.3 60.5 131.3 C 56.8 131.3 54.2 128.7 54.2 125 C 54.2 121.3 56.8 118.6 60.5 118.6 C 62.3 118.6 63.9 119.3 65.1 120.7 C 65.1 120.7 63.8 121.6 63.8 121.6 C 62.9 120.6 61.8 120 60.5 120 C 57.6 120 55.7 122.2 55.7 125 C 55.7 127.7 57.6 129.9 60.5 129.9 C 61.9 129.9 63 129.2 63.8 128.2 C 63.8 128.2 65 129.2 65 129.2 Z M 76.7 125.9 C 76.7 128.3 76.7 129.6 76.9 131 C 76.9 131 75.4 131 75.4 131 C 75.3 130.4 75.3 129.7 75.3 129.1 C 75.3 129.1 75.2 129.1 75.2 129.1 C 74.3 130.6 73 131.3 70.9 131.3 C 68.9 131.3 66.7 130.3 66.7 127.7 C 66.7 124 71 123.7 73.4 123.7 C 73.39 123.67 75.2 123.7 75.2 123.7 C 75.2 123.7 75.23 122.94 75.2 122.9 C 75.2 120.8 73.8 120 71.8 120 C 70.4 120 69.2 120.4 68.1 121.4 C 68.1 121.4 67.2 120.3 67.2 120.3 C 68.3 119.2 70.2 118.6 71.8 118.6 C 74.8 118.6 76.7 119.9 76.7 123 C 76.7 123 76.7 125.9 76.7 125.9 Z M 73.5 124.9 C 70.9 124.9 68.2 125.6 68.2 127.7 C 68.2 129.2 69.7 129.9 71 129.9 C 74.4 129.9 75.2 127.8 75.2 125.7 C 75.23 125.75 75.2 124.9 75.2 124.9 C 75.2 124.9 73.5 124.93 73.5 124.9 Z M 80.1 122.3 C 80.1 121.4 80 119.5 80 118.9 C 80 118.9 81.6 118.9 81.6 118.9 C 81.6 119.8 81.6 120.8 81.7 121 C 81.7 121 81.8 121 81.8 121 C 82.4 119.7 84 118.6 85.9 118.6 C 89.7 118.6 90.6 121.1 90.6 123.8 C 90.55 123.8 90.6 131 90.6 131 L 89 131 C 89 131 88.97 123.88 89 123.9 C 89 121.9 88.4 120 85.9 120 C 83.6 120 81.7 121.6 81.7 125 C 81.72 124.96 81.7 131 81.7 131 L 80.1 131 C 80.1 131 80.14 122.3 80.1 122.3 Z M 102.7 120.6 C 102.7 120.6 106.4 120.62 106.4 120.6 C 110 120.6 110.8 118.6 110.8 117.3 C 110.8 116 110 114 106.4 114 C 106.4 114 102.7 114 102.7 114 L 102.7 120.6 Z M 101 112.4 C 101 112.4 105.87 112.42 105.9 112.4 C 107.3 112.4 112.5 112.4 112.5 117.3 C 112.5 120.9 109.8 121.8 107.7 122.1 C 107.74 122.09 113.2 131 113.2 131 L 111.2 131 L 105.9 122.2 L 102.7 122.2 L 102.7 131 L 101 131 L 101 112.4 Z M 125.7 128.7 C 124.4 130.6 122.6 131.3 120.4 131.3 C 116.7 131.3 114.3 128.7 114.3 124.9 C 114.3 121.3 116.8 118.6 120.3 118.6 C 124.1 118.6 126 121.4 126 124.2 C 126.04 124.25 126 125.4 126 125.4 C 126 125.4 115.84 125.35 115.8 125.4 C 115.8 126.7 116.8 129.9 120.4 129.9 C 122 129.9 123.7 129.1 124.5 127.8 C 124.5 127.8 125.7 128.7 125.7 128.7 Z M 124.5 123.9 C 124.5 121.8 122.6 120 120.3 120 C 116.8 120 115.8 123.3 115.8 123.9 C 115.8 123.9 124.5 123.9 124.5 123.9 Z M 127 118.9 L 128.7 118.9 L 132.8 129.3 L 136.7 118.9 L 138.3 118.9 L 133.5 131 L 131.9 131 L 127 118.9 Z M 150.6 128.7 C 149.3 130.6 147.5 131.3 145.3 131.3 C 141.6 131.3 139.2 128.7 139.2 124.9 C 139.2 121.3 141.7 118.6 145.2 118.6 C 149 118.6 150.9 121.4 150.9 124.2 C 150.94 124.25 150.9 125.4 150.9 125.4 C 150.9 125.4 140.74 125.35 140.7 125.4 C 140.7 126.7 141.7 129.9 145.3 129.9 C 146.9 129.9 148.6 129.1 149.4 127.8 C 149.4 127.8 150.6 128.7 150.6 128.7 Z M 149.4 123.9 C 149.4 121.8 147.5 120 145.2 120 C 141.7 120 140.7 123.3 140.7 123.9 C 140.7 123.9 149.4 123.9 149.4 123.9 Z M 163 125.9 C 163 128.3 163 129.6 163.2 131 C 163.2 131 161.7 131 161.7 131 C 161.6 130.4 161.6 129.7 161.6 129.1 C 161.6 129.1 161.5 129.1 161.5 129.1 C 160.6 130.6 159.3 131.3 157.3 131.3 C 155.2 131.3 153 130.3 153 127.7 C 153 124 157.3 123.7 159.7 123.7 C 159.69 123.67 161.5 123.7 161.5 123.7 C 161.5 123.7 161.53 122.94 161.5 122.9 C 161.5 120.8 160.1 120 158.1 120 C 156.7 120 155.5 120.4 154.4 121.4 C 154.4 121.4 153.5 120.3 153.5 120.3 C 154.6 119.2 156.5 118.6 158.1 118.6 C 161.1 118.6 163 119.9 163 123 C 163 123 163 125.9 163 125.9 Z M 159.8 124.9 C 157.2 124.9 154.5 125.6 154.5 127.7 C 154.5 129.2 156 129.9 157.3 129.9 C 160.7 129.9 161.5 127.8 161.5 125.7 C 161.53 125.75 161.5 124.9 161.5 124.9 C 161.5 124.9 159.8 124.93 159.8 124.9 Z M 166.6 111.2 L 168.2 111.2 L 168.2 131 L 166.6 131 L 166.6 111.2 Z M 172 127.9 C 172.6 129.2 174.1 129.9 175.5 129.9 C 176.9 129.9 178.3 129.1 178.3 127.7 C 178.3 124.4 171.1 126.7 171.1 122.1 C 171.1 119.7 173.2 118.6 175.2 118.6 C 177.2 118.6 178.7 119.3 179.5 120.9 C 179.5 120.9 178.1 121.7 178.1 121.7 C 177.5 120.6 176.7 120 175.2 120 C 174.1 120 172.7 120.7 172.7 121.9 C 172.7 125.2 179.9 122.7 179.9 127.6 C 179.9 130.1 177.8 131.3 175.5 131.3 C 173.4 131.3 171.5 130.6 170.6 128.9 C 170.6 128.9 172 127.9 172 127.9 Z M 198.4 125.9 C 198.4 128.3 198.4 129.6 198.6 131 C 198.6 131 197.1 131 197.1 131 C 197 130.4 197 129.7 197 129.1 C 197 129.1 196.9 129.1 196.9 129.1 C 196 130.6 194.7 131.3 192.7 131.3 C 190.6 131.3 188.4 130.3 188.4 127.7 C 188.4 124 192.7 123.7 195.1 123.7 C 195.11 123.67 196.9 123.7 196.9 123.7 C 196.9 123.7 196.95 122.94 196.9 122.9 C 196.9 120.8 195.5 120 193.5 120 C 192.1 120 190.9 120.4 189.8 121.4 C 189.8 121.4 188.9 120.3 188.9 120.3 C 190.1 119.2 192 118.6 193.5 118.6 C 196.5 118.6 198.4 119.9 198.4 123 C 198.4 123 198.4 125.9 198.4 125.9 Z M 195.2 124.9 C 192.6 124.9 190 125.6 190 127.7 C 190 129.2 191.4 129.9 192.7 129.9 C 196.1 129.9 196.9 127.8 196.9 125.7 C 196.95 125.75 196.9 124.9 196.9 124.9 C 196.9 124.9 195.21 124.93 195.2 124.9 Z " stroke="none" fill="#be870e"/>  </g>  <g id="Polygon46344">    <path d="M -0.1 81 C -0.1 81 -0.09 78.7 -0.1 78.7 C 9.1 78.7 10.5 76.8 10.5 65.7 C 10.5 65.7 10.5 29.6 10.5 29.6 C 10.5 18.5 9.1 16.8 -0.1 16.8 C -0.09 16.76 -0.1 14.4 -0.1 14.4 L 29.9 14.4 C 29.9 14.4 29.88 16.76 29.9 16.8 C 20.7 16.8 19.3 18.5 19.3 29.6 C 19.3 29.6 19.3 65.7 19.3 65.7 C 19.3 76.8 20.7 78.7 29.9 78.7 C 29.88 78.7 29.9 81 29.9 81 L -0.1 81 Z M 67.6 42.2 C 77.6 42.2 82 49.3 82 58.7 C 82 58.7 82 65.7 82 65.7 C 82 76.8 83.4 78.7 90.8 78.7 C 90.79 78.7 90.8 81 90.8 81 L 65.4 81 C 65.4 81 65.37 78.7 65.4 78.7 C 72.6 78.7 74.1 76.8 74.1 65.7 C 74.1 65.7 74.1 59.3 74.1 59.3 C 74.1 52.1 71.6 47.4 64.9 47.4 C 58.8 47.4 52.2 52.4 52.2 58.5 C 52.2 58.5 52.2 65.7 52.2 65.7 C 52.2 77.1 53 78.7 59.9 78.7 C 59.93 78.7 59.9 81 59.9 81 L 35.5 81 C 35.5 81 35.51 78.7 35.5 78.7 C 42.8 78.7 44.3 76.8 44.3 65.7 C 44.3 65.7 44.3 60.2 44.3 60.2 C 44.3 49.1 42.8 47.3 35.5 47.3 C 35.51 47.29 35.5 45 35.5 45 C 35.5 45 50.27 42.18 50.3 42.2 C 50.8 43.3 51.8 47.8 52.2 50.2 C 55.2 46.4 60.3 42.2 67.6 42.2 Z M 126.8 42.2 C 136.8 42.2 141.2 49.3 141.2 58.7 C 141.2 58.7 141.2 65.7 141.2 65.7 C 141.2 76.8 142.5 78.7 150 78.7 C 149.98 78.7 150 81 150 81 L 124.6 81 C 124.6 81 124.57 78.7 124.6 78.7 C 131.8 78.7 133.3 76.8 133.3 65.7 C 133.3 65.7 133.3 59.3 133.3 59.3 C 133.3 52.1 130.8 47.4 124.1 47.4 C 118 47.4 111.4 52.4 111.4 58.5 C 111.4 58.5 111.4 65.7 111.4 65.7 C 111.4 77.1 112.2 78.7 119.1 78.7 C 119.13 78.7 119.1 81 119.1 81 L 94.7 81 C 94.7 81 94.71 78.7 94.7 78.7 C 102 78.7 103.5 76.8 103.5 65.7 C 103.5 65.7 103.5 60.2 103.5 60.2 C 103.5 49.1 102 47.3 94.7 47.3 C 94.71 47.29 94.7 45 94.7 45 C 94.7 45 109.47 42.18 109.5 42.2 C 110 43.3 111 47.8 111.4 50.2 C 114.4 46.4 119.5 42.2 126.8 42.2 Z M 179.4 55.6 C 180.6 52.1 178.7 46.6 171.4 46.6 C 166.6 46.6 162.5 50.2 161 55.6 C 161 55.6 179.4 55.6 179.4 55.6 Z M 174.7 78.3 C 178.4 78.3 183.7 76.1 186.9 73.1 C 186.9 73.1 188.9 75.6 188.9 75.6 C 185 79.7 178.3 82.9 172 82.9 C 159.7 82.9 151.4 73.7 151.4 62.5 C 151.4 50.7 161.6 42.2 172 42.2 C 181.8 42.2 189.7 50.2 187 59.7 C 187 59.7 160.3 59.7 160.3 59.7 C 159 70.2 163.3 78.3 174.7 78.3 Z M 225.7 54.3 C 223.6 54.3 221.8 52.4 221.8 50.3 C 221.8 48 220.5 46.6 218.3 46.6 C 215.7 46.6 209.7 50.7 209.7 59.6 C 209.7 59.6 209.7 65.7 209.7 65.7 C 209.7 76.8 211.1 78.7 218.5 78.7 C 218.5 78.7 218.5 81 218.5 81 L 193.1 81 C 193.1 81 193.08 78.7 193.1 78.7 C 200.4 78.7 201.9 76.8 201.9 65.7 C 201.9 65.7 201.9 60.2 201.9 60.2 C 201.9 49.1 200.4 47.3 193.1 47.3 C 193.08 47.29 193.1 45 193.1 45 C 193.1 45 207.85 42.18 207.8 42.2 C 208.4 43.3 209.4 47.8 209.7 50.2 C 212 45.7 216.9 42.2 221.4 42.2 C 227.5 42.2 230.2 46.3 230.2 49.1 C 230.2 51.5 229.2 54.3 225.7 54.3 Z M 303 62.4 C 303 54.3 298.4 47.6 288.8 47.6 C 288.76 47.62 275.3 47.6 275.3 47.6 C 275.3 47.6 275.33 64.05 275.3 64 C 275.3 75.1 276.7 76.9 285.9 76.9 C 285.9 76.9 288.8 76.9 288.8 76.9 C 298.4 76.9 303 70.4 303 62.4 Z M 275.3 43.5 C 275.3 43.5 285.21 43.51 285.2 43.5 C 293.5 43.5 297.4 38 297.4 31.1 C 297.4 24.2 293.5 18.5 285.2 18.5 C 285.21 18.54 275.3 18.5 275.3 18.5 L 275.3 43.5 Z M 312.7 62.4 C 312.7 72.7 304.3 81 288.9 81 C 288.87 81.03 255.9 81 255.9 81 C 255.9 81 255.91 78.7 255.9 78.7 C 265.1 78.7 266.5 76.8 266.5 65.7 C 266.5 65.7 266.5 29.6 266.5 29.6 C 266.5 18.5 265.1 16.8 255.9 16.8 C 255.91 16.76 255.9 14.4 255.9 14.4 C 255.9 14.4 285.77 14.43 285.8 14.4 C 299.9 14.4 307.2 21.9 307.2 31.1 C 307.2 36.9 303.6 41.8 298.5 44.8 C 307.1 47.5 312.7 54.4 312.7 62.4 Z M 348.6 55.6 C 349.8 52.1 347.9 46.6 340.6 46.6 C 335.8 46.6 331.7 50.2 330.1 55.6 C 330.1 55.6 348.6 55.6 348.6 55.6 Z M 343.9 78.3 C 347.6 78.3 352.9 76.1 356.1 73.1 C 356.1 73.1 358.1 75.6 358.1 75.6 C 354.2 79.7 347.5 82.9 341.1 82.9 C 328.9 82.9 320.6 73.7 320.6 62.5 C 320.6 50.7 330.8 42.2 341.1 42.2 C 351 42.2 358.9 50.2 356.2 59.7 C 356.2 59.7 329.5 59.7 329.5 59.7 C 328.1 70.2 332.5 78.3 343.9 78.3 Z M 362.3 81 C 362.3 81 362.27 78.7 362.3 78.7 C 369.6 78.7 371 76.8 371 65.7 C 371 65.7 371 60.2 371 60.2 C 371 49.1 369.6 47.3 362.3 47.3 C 362.27 47.29 362.3 45 362.3 45 L 378.9 42.2 C 378.9 42.2 378.92 65.71 378.9 65.7 C 378.9 76.8 380.2 78.7 387.7 78.7 C 387.69 78.7 387.7 81 387.7 81 L 362.3 81 Z M 374.9 31.3 C 372.3 31.3 370 29.1 370 26.3 C 370 23.6 372.3 21.4 374.9 21.4 C 377.6 21.4 379.8 23.6 379.8 26.3 C 379.8 29.1 377.6 31.3 374.9 31.3 Z M 423.6 42.2 C 433.6 42.2 438 49.3 438 58.7 C 438 58.7 438 65.7 438 65.7 C 438 76.8 439.3 78.7 446.8 78.7 C 446.76 78.7 446.8 81 446.8 81 L 421.3 81 C 421.3 81 421.34 78.7 421.3 78.7 C 428.6 78.7 430.1 76.8 430.1 65.7 C 430.1 65.7 430.1 59.3 430.1 59.3 C 430.1 52.1 427.6 47.4 420.9 47.4 C 414.8 47.4 408.1 52.4 408.1 58.5 C 408.1 58.5 408.1 65.7 408.1 65.7 C 408.1 77.1 409 78.7 415.9 78.7 C 415.9 78.7 415.9 81 415.9 81 L 391.5 81 C 391.5 81 391.48 78.7 391.5 78.7 C 398.8 78.7 400.3 76.8 400.3 65.7 C 400.3 65.7 400.3 60.2 400.3 60.2 C 400.3 49.1 398.8 47.3 391.5 47.3 C 391.48 47.29 391.5 45 391.5 45 C 391.5 45 406.24 42.18 406.2 42.2 C 406.8 43.3 407.8 47.8 408.1 50.2 C 411.1 46.4 416.2 42.2 423.6 42.2 Z M 467.4 45.7 C 462 45.7 459.3 50.7 459.3 57.3 C 459.3 63.7 462 68.7 467.4 68.7 C 472.9 68.7 475.4 63.7 475.4 57.3 C 475.4 50.7 472.9 45.7 467.4 45.7 Z M 467.2 81.3 C 482.5 82.5 487.4 89 487.4 95.8 C 487.4 105 478.6 110.7 467.7 110.7 C 449 110.7 441.7 96.9 455.3 89.8 C 455.3 89.8 457.3 91 457.3 91 C 448.1 101.3 459 106.3 467.7 106.3 C 474.6 106.3 481.5 103 481.5 97.8 C 481.5 92.6 476 90.9 466.6 90 C 457.5 89.1 450.9 86.4 450.9 79.7 C 450.9 75.7 454.4 72.6 460.2 70.8 C 454.7 68.2 450.9 63.3 450.9 57.3 C 450.9 49 458.3 42.2 467.4 42.2 C 471.9 42.2 475.9 43.7 478.8 46.4 C 480.8 44 484.8 42.2 487.2 42.2 C 494.8 42.2 495.3 51.3 490.8 51.5 C 486 51.8 488.7 46.5 484.2 46.5 C 483.3 46.5 482 47.1 480.7 48.3 C 482.7 50.7 484 53.9 484 57.3 C 484 65.5 476.7 71.4 469.5 72.4 C 464.6 72.9 457.1 74 457.1 77 C 457.1 80 463.5 80.9 467.2 81.3 Z " stroke="none" fill="#be870e"/>  </g></svg>