<svg xmlns="http://www.w3.org/2000/svg" version="1.1" width="139px" height="49.4px" viewBox="0 0 139 49.4"><desc>tap to reveal more images</desc><defs/><g id="Polygon48321"><path d="m1.1 16.7l2.7 0l2.7 7l2.7-7l2.6 0l0 9.9l-1.7 0l0-8.2l0 0l-3 8.2l-1.2 0l-3-8.2l-.1 0l0 8.2l-1.7 0l0-9.9zm17.6-.2c3.1-.1 5.3 2 5.3 5.2c0 3.1-2.2 5.1-5.3 5.2c-3 0-5.2-2.1-5.2-5.2c0-3.2 2.2-5.2 5.2-5.2zm0 8.8c2.1 0 3.5-1.6 3.5-3.7c0-2-1.4-3.5-3.5-3.5c-2 0-3.4 1.5-3.4 3.5c0 2.1 1.4 3.7 3.4 3.7zm7-8.6c0 0 3.42.03 3.4 0c1.9 0 3.7.6 3.7 2.9c0 1.4-.8 2.4-2.3 2.7c.02-.04 2.6 4.3 2.6 4.3l-2.1 0l-2.3-4.2l-1.3 0l0 4.2l-1.7 0l0-9.9zm3.1 4.2c1 0 2.2-.1 2.2-1.3c0-1.2-1.1-1.4-2-1.4c-.04.04-1.6 0-1.6 0l0 2.7c0 0 1.41.03 1.4 0zm5.7-4.2l6.6 0l0 1.6l-4.9 0l0 2.5l4.6 0l0 1.6l-4.6 0l0 2.6l5.1 0l0 1.6l-6.8 0l0-9.9zm12.6 0l1.8 0l0 9.9l-1.8 0l0-9.9zm4 0l2.6 0l2.7 7l2.7-7l2.6 0l0 9.9l-1.7 0l0-8.2l0 0l-3 8.2l-1.2 0l-3-8.2l-.1 0l0 8.2l-1.6 0l0-9.9zm16.1 0l1.5 0l4.3 9.9l-2 0l-1-2.2l-4.3 0l-.9 2.2l-1.9 0l4.3-9.9zm2.2 6.2l-1.5-4.1l-1.6 4.1l3.1 0zm13 3c-1.2.7-2.6 1-4.1 1c-3 0-5.2-2.1-5.2-5.2c0-3.2 2.2-5.2 5.2-5.2c1.5 0 2.9.3 3.9 1.2c0 0-1.3 1.3-1.3 1.3c-.6-.6-1.6-.9-2.6-.9c-2 0-3.4 1.5-3.4 3.5c0 2.1 1.4 3.7 3.4 3.7c.9 0 1.7-.2 2.3-.5c.05-.02 0-2.4 0-2.4l-2 0l0-1.6l3.8 0c0 0 .01 5.11 0 5.1zm2.1-9.2l6.5 0l0 1.6l-4.8 0l0 2.5l4.6 0l0 1.6l-4.6 0l0 2.6l5.1 0l0 1.6l-6.8 0l0-9.9zm13.4 2.2c-.4-.6-1.1-.8-1.7-.8c-.9 0-1.7.3-1.7 1.2c0 2 4.7.9 4.7 4.4c0 2.2-1.6 3.2-3.6 3.2c-1.2 0-2.4-.4-3.2-1.4c0 0 1.3-1.2 1.3-1.2c.4.6 1.2 1 2 1c.8 0 1.7-.5 1.7-1.4c0-2.1-4.7-.9-4.7-4.4c0-2.1 1.8-3 3.6-3c1.1 0 2.1.3 2.9 1c0 0-1.3 1.4-1.3 1.4zm4 5.7c.6 0 1.1.4 1.1 1c0 .6-.5 1.1-1.1 1.1c-.6 0-1.1-.4-1.1-1c0-.6.5-1.1 1.1-1.1z" stroke="none" fill="#808284"/></g><g id="Polygon48320"><path d="m3.1 2.3l-3 0l0-1.6l7.8 0l0 1.6l-3 0l0 8.3l-1.8 0l0-8.3zm8.2-1.6l1.5 0l4.3 9.9l-2 0l-.9-2.2l-4.3 0l-.9 2.2l-2 0l4.3-9.9zm2.3 6.2l-1.6-4.1l-1.5 4.1l3.1 0zm4.6-6.2c0 0 3.36.03 3.4 0c1.9 0 3.6.7 3.6 2.9c0 2.5-1.8 2.9-3.9 2.9c-.05.04-1.3 0-1.3 0l0 4.1l-1.8 0l0-9.9zm2.9 4.3c1 0 2.3 0 2.3-1.4c0-1.2-1.2-1.4-2.1-1.4c-.05.04-1.3 0-1.3 0l0 2.8c0 0 1.06.03 1.1 0zm11.9-2.7l-3.1 0l0-1.6l7.9 0l0 1.6l-3.1 0l0 8.3l-1.7 0l0-8.3zm10.4-1.8c3.1-.1 5.3 2 5.3 5.2c0 3.1-2.2 5.1-5.3 5.2c-3 0-5.2-2.1-5.2-5.2c0-3.2 2.2-5.2 5.2-5.2zm0 8.8c2.1 0 3.5-1.6 3.5-3.7c0-2-1.4-3.5-3.5-3.5c-2 0-3.4 1.5-3.4 3.5c0 2.1 1.4 3.7 3.4 3.7zm11.1-8.6c0 0 3.48.03 3.5 0c1.9 0 3.7.6 3.7 2.9c0 1.4-.9 2.4-2.3 2.7c-.02-.04 2.6 4.3 2.6 4.3l-2.1 0l-2.3-4.2l-1.3 0l0 4.2l-1.8 0l0-9.9zm3.2 4.2c1 0 2.1-.1 2.1-1.3c0-1.2-1.1-1.4-2-1.4c.02.04-1.5 0-1.5 0l0 2.7c0 0 1.37.03 1.4 0zm5.6-4.2l6.6 0l0 1.6l-4.8 0l0 2.5l4.6 0l0 1.6l-4.6 0l0 2.6l5.1 0l0 1.6l-6.9 0l0-9.9zm7.6 0l2 0l2.7 7.5l2.8-7.5l1.9 0l-4 9.9l-1.5 0l-3.9-9.9zm10.5 0l6.6 0l0 1.6l-4.8 0l0 2.5l4.5 0l0 1.6l-4.5 0l0 2.6l5 0l0 1.6l-6.8 0l0-9.9zm12 0l1.5 0l4.3 9.9l-2 0l-.9-2.2l-4.3 0l-.9 2.2l-2 0l4.3-9.9zm2.2 6.2l-1.5-4.1l-1.5 4.1l3 0zm4.7-6.2l1.8 0l0 8.3l4.2 0l0 1.6l-6 0l0-9.9z" stroke="none" fill="#808284"/></g></svg>