<svg xmlns="http://www.w3.org/2000/svg" version="1.1" width="137px" height="35.4px" viewBox="0 0 137 35.4"><desc>swipe finger to reveal boli interior</desc><defs/><g id="Polygon46674"><path d="m.8 18.2c0 0 2.45.02 2.4 0c1.4 0 2.7.5 2.7 2c0 1.1-.6 1.8-1.6 2c-.05-.03 1.8 3.1 1.8 3.1l-1.5 0l-1.6-3l-1 0l0 3l-1.2 0l0-7.1zm2.2 3c.7 0 1.6 0 1.6-1c0-.8-.8-.9-1.5-.9c.04 0-1.1 0-1.1 0l0 1.9c0 0 1.03.02 1 0zm4.4-3l4.7 0l0 1.2l-3.5 0l0 1.7l3.3 0l0 1.1l-3.3 0l0 2l3.6 0l0 1.1l-4.8 0l0-7.1zm5.6 0l1.5 0l1.9 5.4l2-5.4l1.4 0l-2.9 7.1l-1.1 0l-2.8-7.1zm7.8 0l4.7 0l0 1.2l-3.4 0l0 1.7l3.3 0l0 1.1l-3.3 0l0 2l3.6 0l0 1.1l-4.9 0l0-7.1zm8.9 0l1.1 0l3 7.1l-1.4 0l-.7-1.6l-3 0l-.7 1.6l-1.4 0l3.1-7.1zm1.6 4.4l-1.1-2.9l-1.1 2.9l2.2 0zm3.6-4.4l1.3 0l0 6l3 0l0 1.1l-4.3 0l0-7.1zm9.6 0c0 0 2.73.02 2.7 0c1.1 0 2.1.5 1.9 1.8c-.1.8-.6 1.3-1.4 1.6c0 0 0 0 0 0c.9.1 1.4.8 1.3 1.7c-.2 1.5-1.6 2-3 2c.02 0-2.5 0-2.5 0l1-7.1zm.8 2.9c0 0 1.17 0 1.2 0c.8 0 1.3-.4 1.4-.9c0-.6-.3-.9-1.3-.9c.02 0-1 0-1 0l-.3 1.8zm-.4 3.1c0 0 1.15.02 1.1 0c.7 0 1.6-.1 1.7-1c.1-.8-.3-1-1.3-1c-.02-.02-1.2 0-1.2 0l-.3 2zm9.7-6.2c2.2 0 3.5 1.5 3.2 3.7c-.3 2.3-2.1 3.7-4.3 3.8c-2.1 0-3.5-1.5-3.2-3.7c.3-2.3 2.1-3.8 4.3-3.8zm-.9 6.3c1.5 0 2.6-1.1 2.8-2.6c.2-1.4-.6-2.5-2.1-2.5c-1.4 0-2.6 1.1-2.8 2.5c-.2 1.5.6 2.6 2.1 2.6zm6.1-6.1l1.3 0l-.8 6l3 0l-.2 1.1l-4.3 0l1-7.1zm5.1 0l1.3 0l-1 7.1l-1.3 0l1-7.1zm5.2 0l1.2 0l0 7.1l-1.2 0l0-7.1zm3 0l1.7 0l3.4 5.3l.1 0l-.1 0l.1 0l0-5.3l1.2 0l0 7.1l-1.6 0l-3.5-5.4l0 0l0 5.4l-1.3 0l0-7.1zm9.7 1.2l-2.2 0l0-1.2l5.6 0l0 1.2l-2.1 0l0 5.9l-1.3 0l0-5.9zm4.6-1.2l4.7 0l0 1.2l-3.5 0l0 1.7l3.3 0l0 1.1l-3.3 0l0 2l3.6 0l0 1.1l-4.8 0l0-7.1zm6.3 0c0 0 2.5.02 2.5 0c1.4 0 2.6.5 2.6 2c0 1.1-.5 1.8-1.6 2c0-.03 1.9 3.1 1.9 3.1l-1.5 0l-1.7-3l-.9 0l0 3l-1.3 0l0-7.1zm2.3 3c.7 0 1.5 0 1.5-1c0-.8-.8-.9-1.4-.9c-.01 0-1.1 0-1.1 0l0 1.9c0 0 .98.02 1 0zm4.3-3l1.3 0l0 7.1l-1.3 0l0-7.1zm6.4-.2c2.3 0 3.8 1.5 3.8 3.7c0 2.3-1.5 3.7-3.8 3.8c-2.1 0-3.7-1.5-3.7-3.7c0-2.3 1.6-3.8 3.7-3.8zm.1 6.3c1.4 0 2.4-1.1 2.4-2.6c0-1.4-1-2.5-2.4-2.5c-1.5 0-2.5 1.1-2.5 2.5c0 1.5 1 2.6 2.5 2.6zm5.2-6.1c0 0 2.45.02 2.4 0c1.4 0 2.7.5 2.7 2c0 1.1-.6 1.8-1.7 2c.05-.03 1.9 3.1 1.9 3.1l-1.5 0l-1.6-3l-1 0l0 3l-1.2 0l0-7.1zm2.2 3c.7 0 1.6 0 1.6-1c0-.8-.8-.9-1.5-.9c.04 0-1.1 0-1.1 0l0 1.9c0 0 1.03.02 1 0z" stroke="none" fill="#fff"/></g><g id="Polygon46673"><path d="m4.3 7.7c-.3-.3-.8-.5-1.3-.5c-.6 0-1.1.2-1.1.9c0 1.4 3.3.6 3.3 3.1c0 1.5-1.2 2.3-2.6 2.3c-.9 0-1.7-.3-2.3-1c0 0 1-.9 1-.9c.3.5.8.7 1.4.7c.5 0 1.2-.3 1.2-.9c0-1.6-3.4-.7-3.4-3.2c0-1.5 1.3-2.2 2.7-2.2c.7 0 1.4.3 2 .8c0 0-.9.9-.9.9zm1.8-1.5l1.4 0l1.3 5.1l0 0l1.6-5.1l1.2 0l1.6 5.1l0 0l1.4-5.1l1.3 0l-2.1 7.1l-1.2 0l-1.6-5.4l0 0l-1.7 5.4l-1.1 0l-2.1-7.1zm10.9 0l1.2 0l0 7.1l-1.2 0l0-7.1zm3 0c0 0 2.42.02 2.4 0c1.4 0 2.6.5 2.6 2.1c0 1.7-1.3 2.1-2.8 2.1c0-.03-.9 0-.9 0l0 2.9l-1.3 0l0-7.1zm2.1 3.1c.7 0 1.6 0 1.6-1c0-.9-.8-1-1.5-1c0 0-.9 0-.9 0l0 2c0 0 .76-.01.8 0zm4.2-3.1l4.7 0l0 1.2l-3.5 0l0 1.7l3.3 0l0 1.1l-3.3 0l0 2l3.7 0l0 1.1l-4.9 0l0-7.1zm9.5 0l4.5 0l0 1.2l-3.3 0l0 1.8l3.1 0l0 1.2l-3.1 0l0 2.9l-1.2 0l0-7.1zm5.9 0l1.2 0l0 7.1l-1.2 0l0-7.1zm3 0l1.7 0l3.4 5.3l0 0l0 0l0 0l0-5.3l1.3 0l0 7.1l-1.6 0l-3.5-5.4l0 0l0 5.4l-1.3 0l0-7.1zm14.5 6.6c-.8.4-1.8.7-2.9.7c-2.2 0-3.7-1.5-3.7-3.7c0-2.3 1.5-3.8 3.7-3.8c1.1 0 2.1.3 2.8.9c0 0-.9 1-.9 1c-.5-.5-1.2-.7-1.9-.7c-1.4 0-2.4 1.1-2.4 2.5c0 1.5 1 2.6 2.4 2.6c.7 0 1.2-.1 1.7-.3c-.01-.03 0-1.7 0-1.7l-1.5 0l0-1.1l2.7 0c0 0 .05 3.58 0 3.6zm1.8-6.6l4.7 0l0 1.2l-3.4 0l0 1.7l3.2 0l0 1.1l-3.2 0l0 2l3.6 0l0 1.1l-4.9 0l0-7.1zm6.4 0c0 0 2.44.02 2.4 0c1.4 0 2.7.5 2.7 2c0 1.1-.6 1.8-1.7 2c.04-.03 1.9 3.1 1.9 3.1l-1.5 0l-1.6-3l-1 0l0 3l-1.2 0l0-7.1zm2.2 3c.7 0 1.6 0 1.6-1c0-.8-.8-.9-1.5-.9c.03 0-1.1 0-1.1 0l0 1.9c0 0 1.02.02 1 0zm8.9-1.8l-2.2 0l0-1.2l5.6 0l0 1.2l-2.2 0l0 5.9l-1.2 0l0-5.9zm7.8-1.4c2.2 0 3.7 1.5 3.7 3.7c0 2.3-1.5 3.7-3.7 3.8c-2.2 0-3.8-1.5-3.8-3.7c0-2.3 1.6-3.8 3.8-3.8zm0 6.3c1.4 0 2.4-1.1 2.4-2.6c0-1.4-1-2.5-2.4-2.5c-1.5 0-2.5 1.1-2.5 2.5c0 1.5 1 2.6 2.5 2.6z" stroke="none" fill="#fff"/></g></svg>