<?xml version="1.0" encoding="utf-8"?>
<!-- Generator: Adobe Illustrator 24.1.2, SVG Export Plug-In . SVG Version: 6.00 Build 0)  -->
<svg version="1.1" id="Layer_1" xmlns="http://www.w3.org/2000/svg" xmlns:xlink="http://www.w3.org/1999/xlink" x="0px" y="0px"
	 viewBox="0 0 501.2 54" style="enable-background:new 0 0 501.2 54;" xml:space="preserve">
<style type="text/css">
	.st0{fill:#231F20;}
	.st1{fill:none;stroke:#231F20;stroke-width:1.08;}
</style>
<g>
	<path class="st0" d="M27.5,44.8c-1.7,0.9-5.2,1.7-9.6,1.7C7.7,46.5,0,40,0,28C0,16.6,7.7,8.9,19,8.9c4.5,0,7.4,1,8.6,1.6l-1.2,3.8
		c-1.7-0.9-4.3-1.5-7.3-1.5c-8.5,0-14.2,5.5-14.2,15c0,9,5.1,14.6,13.9,14.6c2.9,0,5.8-0.6,7.7-1.5L27.5,44.8z"/>
	<path class="st0" d="M33.6,7.6h4.8v16.4h0.1c0.8-1.3,1.9-2.6,3.4-3.4c1.4-0.8,3.1-1.3,4.9-1.3c3.5,0,9.1,2.2,9.1,11.1v15.6h-4.8
		v-15c0-4.2-1.6-7.7-6-7.7c-3.1,0-5.5,2.2-6.4,4.7c-0.3,0.7-0.3,1.4-0.3,2.3v15.8h-4.8V7.6z"/>
	<path class="st0" d="M82.2,39.6c0,2.3,0.1,4.5,0.4,6.3h-4.3l-0.4-3.3h-0.2c-1.5,2.1-4.3,3.9-8,3.9c-5.3,0-8-3.7-8-7.5
		c0-6.3,5.6-9.8,15.7-9.7v-0.5c0-2.1-0.6-6-5.9-6c-2.5,0-5,0.7-6.9,1.9l-1.1-3.2c2.2-1.4,5.3-2.3,8.6-2.3c8,0,9.9,5.5,9.9,10.6V39.6
		z M77.6,32.6c-5.2-0.1-11.1,0.8-11.1,5.9c0,3.1,2.1,4.5,4.4,4.5c3.5,0,5.7-2.2,6.4-4.4c0.2-0.5,0.2-1.1,0.2-1.5V32.6z"/>
	<path class="st0" d="M90.1,26.8c0-2.8-0.1-4.9-0.2-7.1h4.2l0.3,4.3h0.1c1.3-2.4,4.3-4.9,8.6-4.9c3.6,0,9.2,2.2,9.2,11.1v15.6h-4.8
		V30.8c0-4.2-1.6-7.7-6-7.7c-3.1,0-5.5,2.2-6.4,4.9c-0.2,0.6-0.3,1.4-0.3,2.2v15.7h-4.8V26.8z"/>
	<path class="st0" d="M120.3,26.8c0-2.8-0.1-4.9-0.2-7.1h4.2l0.3,4.3h0.1c1.3-2.4,4.3-4.9,8.6-4.9c3.6,0,9.2,2.2,9.2,11.1v15.6h-4.8
		V30.8c0-4.2-1.6-7.7-6-7.7c-3.1,0-5.5,2.2-6.4,4.9c-0.2,0.6-0.3,1.4-0.3,2.2v15.7h-4.8V26.8z"/>
	<path class="st0" d="M153.2,33.7c0.1,6.4,4.2,9.1,9,9.1c3.4,0,5.5-0.6,7.2-1.4l0.9,3.4c-1.7,0.8-4.6,1.7-8.7,1.7
		c-8,0-12.9-5.3-12.9-13.2c0-7.9,4.6-14,12.3-14c8.6,0,10.8,7.5,10.8,12.3c0,1-0.1,1.7-0.2,2.2H153.2z M167.1,30.3
		c0.1-3-1.2-7.7-6.6-7.7c-4.9,0-6.9,4.4-7.3,7.7H167.1z"/>
	<path class="st0" d="M177.9,7.6h4.8v38.3h-4.8V7.6z"/>
	<path class="st0" d="M207.5,9.5v36.4h-4.8V9.5H207.5z"/>
	<path class="st0" d="M215.1,41.1c1.5,0.9,3.9,1.8,6.3,1.8c3.4,0,5-1.7,5-3.9c0-2.3-1.4-3.5-4.8-4.8c-4.8-1.7-7-4.3-7-7.4
		c0-4.2,3.5-7.7,9-7.7c2.6,0,5,0.7,6.4,1.6l-1.1,3.5c-1-0.6-2.9-1.6-5.3-1.6c-2.8,0-4.3,1.6-4.3,3.6c0,2.2,1.5,3.1,4.9,4.5
		c4.5,1.7,6.9,3.9,6.9,7.8c0,4.6-3.6,7.9-9.7,7.9c-2.9,0-5.5-0.8-7.3-1.8L215.1,41.1z"/>
	<path class="st0" d="M237.4,7.6h4.8v38.3h-4.8V7.6z"/>
	<path class="st0" d="M268.8,39.6c0,2.3,0.1,4.5,0.4,6.3h-4.3l-0.4-3.3h-0.2c-1.5,2.1-4.3,3.9-8,3.9c-5.3,0-8-3.7-8-7.5
		c0-6.3,5.6-9.8,15.7-9.7v-0.5c0-2.1-0.6-6-5.9-6c-2.5,0-5,0.7-6.9,1.9l-1.1-3.2c2.2-1.4,5.3-2.3,8.6-2.3c8,0,9.9,5.5,9.9,10.6V39.6
		z M264.2,32.6c-5.2-0.1-11.1,0.8-11.1,5.9c0,3.1,2.1,4.5,4.4,4.5c3.5,0,5.7-2.2,6.4-4.4c0.2-0.5,0.2-1.1,0.2-1.5V32.6z"/>
	<path class="st0" d="M276.7,26.8c0-2.8-0.1-4.9-0.2-7.1h4.2l0.3,4.3h0.1c1.3-2.4,4.3-4.9,8.6-4.9c3.6,0,9.2,2.2,9.2,11.1v15.6h-4.8
		V30.8c0-4.2-1.6-7.7-6-7.7c-3.1,0-5.5,2.2-6.4,4.9c-0.2,0.6-0.3,1.4-0.3,2.2v15.7h-4.8V26.8z"/>
	<path class="st0" d="M329.4,7.6v31.6c0,2.3,0.1,5,0.2,6.8h-4.2l-0.2-4.5h-0.2c-1.4,2.9-4.5,5.1-8.8,5.1c-6.3,0-11.2-5.3-11.2-13.3
		c-0.1-8.7,5.4-14,11.7-14c4.1,0,6.7,1.9,7.9,3.9h0.1V7.6H329.4z M324.8,30.4c0-0.6-0.1-1.4-0.2-2c-0.7-3-3.3-5.5-6.9-5.5
		c-4.9,0-7.8,4.3-7.8,10c0,5.3,2.6,9.7,7.7,9.7c3.2,0,6.1-2.2,7-5.7c0.2-0.6,0.2-1.3,0.2-2.1V30.4z"/>
	<path class="st0" d="M337,41.1c1.5,0.9,3.9,1.8,6.3,1.8c3.4,0,5-1.7,5-3.9c0-2.3-1.3-3.5-4.8-4.8c-4.8-1.7-7-4.3-7-7.4
		c0-4.2,3.5-7.7,9-7.7c2.6,0,5,0.7,6.4,1.6l-1.1,3.5c-1-0.6-2.9-1.6-5.3-1.6c-2.8,0-4.3,1.6-4.3,3.6c0,2.2,1.5,3.1,4.9,4.5
		c4.5,1.7,6.9,3.9,6.9,7.8c0,4.6-3.6,7.9-9.7,7.9c-2.9,0-5.5-0.8-7.3-1.8L337,41.1z"/>
</g>
<path class="st0" d="M383.8,21.1V8h3.5l2.7,4.8c0.8,1.4,1.5,3,2.1,4.5h0c-0.2-1.7-0.2-3.5-0.2-5.5V8h2.7v13.1h-3.1l-2.8-5.1
	c-0.8-1.4-1.7-3.1-2.3-4.6h-0.1c0.1,1.7,0.1,3.6,0.1,5.7v3.9H383.8z"/>
<path class="st0" d="M405.1,18.8c0,0.9,0,1.8,0.2,2.3h-2.7l-0.2-1h-0.1c-0.6,0.8-1.6,1.2-2.7,1.2c-1.9,0-3.1-1.4-3.1-2.9
	c0-2.5,2.2-3.6,5.6-3.6v-0.1c0-0.5-0.3-1.2-1.7-1.2c-1,0-2,0.3-2.6,0.7l-0.5-1.9c0.7-0.4,2-0.9,3.7-0.9c3.2,0,4.2,1.9,4.2,4.1V18.8z
	 M402.3,16.6c-1.6,0-2.8,0.4-2.8,1.5c0,0.8,0.5,1.1,1.2,1.1c0.7,0,1.3-0.5,1.5-1.1c0-0.2,0.1-0.3,0.1-0.5V16.6z"/>
<path class="st0" d="M410.8,9v2.6h2.1v2.2h-2.1v3.4c0,1.1,0.3,1.7,1.2,1.7c0.4,0,0.6,0,0.9-0.1l0,2.2c-0.4,0.1-1.1,0.3-1.9,0.3
	c-1,0-1.7-0.3-2.2-0.8c-0.5-0.6-0.8-1.5-0.8-2.8v-3.9h-1.3v-2.2h1.3V9.8L410.8,9z"/>
<path class="st0" d="M417.7,8.9c0,0.8-0.6,1.5-1.6,1.5c-0.9,0-1.5-0.7-1.5-1.5c0-0.8,0.6-1.5,1.6-1.5S417.7,8.1,417.7,8.9z
	 M414.7,21.1v-9.5h3v9.5H414.7z"/>
<path class="st0" d="M429.5,16.2c0,3.5-2.5,5.1-5,5.1c-2.8,0-4.9-1.8-4.9-4.9c0-3.1,2-5.1,5.1-5.1C427.6,11.3,429.5,13.3,429.5,16.2
	z M422.6,16.3c0,1.6,0.7,2.9,1.9,2.9c1.2,0,1.9-1.1,1.9-2.9c0-1.4-0.5-2.8-1.9-2.8C423.2,13.4,422.6,14.9,422.6,16.3z"/>
<path class="st0" d="M431.4,14.6c0-1.2,0-2.2-0.1-3h2.6l0.1,1.3h0.1c0.4-0.6,1.3-1.5,2.9-1.5c1.9,0,3.4,1.3,3.4,4.1v5.6h-3v-5.3
	c0-1.2-0.4-2.1-1.5-2.1c-0.8,0-1.3,0.6-1.5,1.1c-0.1,0.2-0.1,0.5-0.1,0.7v5.5h-3V14.6z"/>
<path class="st0" d="M450.8,18.8c0,0.9,0,1.8,0.2,2.3h-2.7l-0.2-1h-0.1c-0.6,0.8-1.6,1.2-2.7,1.2c-1.9,0-3.1-1.4-3.1-2.9
	c0-2.5,2.2-3.6,5.6-3.6v-0.1c0-0.5-0.3-1.2-1.7-1.2c-1,0-2,0.3-2.6,0.7l-0.5-1.9c0.7-0.4,2-0.9,3.7-0.9c3.2,0,4.2,1.9,4.2,4.1V18.8z
	 M448,16.6c-1.6,0-2.8,0.4-2.8,1.5c0,0.8,0.5,1.1,1.2,1.1c0.7,0,1.3-0.5,1.5-1.1c0-0.2,0.1-0.3,0.1-0.5V16.6z"/>
<path class="st0" d="M453.3,7.3h3v13.8h-3V7.3z"/>
<path class="st0" d="M462.8,8.1c0.9-0.2,2.2-0.3,4-0.3c1.8,0,3.1,0.3,4,1c0.9,0.7,1.4,1.7,1.4,3s-0.4,2.4-1.2,3.1
	c-1,0.9-2.5,1.4-4.3,1.4c-0.4,0-0.7,0-1-0.1v4.7h-2.9V8.1z M465.7,14.1c0.3,0.1,0.5,0.1,1,0.1c1.6,0,2.5-0.8,2.5-2.1
	c0-1.2-0.8-1.9-2.3-1.9c-0.6,0-1,0-1.2,0.1V14.1z"/>
<path class="st0" d="M481.7,18.8c0,0.9,0,1.8,0.2,2.3h-2.7l-0.2-1h-0.1c-0.6,0.8-1.6,1.2-2.7,1.2c-1.9,0-3.1-1.4-3.1-2.9
	c0-2.5,2.2-3.6,5.6-3.6v-0.1c0-0.5-0.3-1.2-1.7-1.2c-1,0-2,0.3-2.6,0.7l-0.5-1.9c0.7-0.4,2-0.9,3.7-0.9c3.2,0,4.2,1.9,4.2,4.1V18.8z
	 M478.8,16.6c-1.6,0-2.8,0.4-2.8,1.5c0,0.8,0.5,1.1,1.2,1.1c0.7,0,1.3-0.5,1.5-1.1c0-0.2,0.1-0.3,0.1-0.5V16.6z"/>
<path class="st0" d="M484.1,14.7c0-1.4,0-2.3-0.1-3.1h2.5l0.1,1.7h0.1c0.5-1.4,1.6-2,2.6-2c0.3,0,0.4,0,0.6,0.1v2.8
	c-0.2,0-0.5-0.1-0.8-0.1c-1.1,0-1.8,0.6-2,1.5c0,0.2-0.1,0.4-0.1,0.7v4.8h-3V14.7z"/>
<path class="st0" d="M494.5,15.6L494.5,15.6c0.3-0.4,0.5-0.8,0.7-1.1l1.9-2.9h3.6l-3.4,3.8l3.9,5.7h-3.6l-2.3-3.9l-0.7,0.9v3h-3V7.3
	h3V15.6z"/>
<path class="st0" d="M393.1,45.5c-0.6,0.3-1.9,0.6-3.5,0.6c-3.7,0-6.5-2.3-6.5-6.6c0-4.1,2.8-6.9,6.8-6.9c1.6,0,2.7,0.4,3.1,0.6
	l-0.4,1.4c-0.6-0.3-1.5-0.5-2.6-0.5c-3.1,0-5.1,2-5.1,5.4c0,3.2,1.8,5.3,5,5.3c1,0,2.1-0.2,2.8-0.5L393.1,45.5z"/>
<path class="st0" d="M401.8,43.6c0,0.8,0,1.6,0.1,2.3h-1.5l-0.1-1.2h-0.1c-0.5,0.7-1.5,1.4-2.9,1.4c-1.9,0-2.9-1.3-2.9-2.7
	c0-2.3,2-3.5,5.7-3.5v-0.2c0-0.8-0.2-2.2-2.1-2.2c-0.9,0-1.8,0.3-2.5,0.7l-0.4-1.1c0.8-0.5,1.9-0.8,3.1-0.8c2.9,0,3.6,2,3.6,3.8
	V43.6z M400.2,41.1c-1.9,0-4,0.3-4,2.1c0,1.1,0.7,1.6,1.6,1.6c1.2,0,2-0.8,2.3-1.6c0.1-0.2,0.1-0.4,0.1-0.5V41.1z"/>
<path class="st0" d="M404.7,32.1h1.7v13.8h-1.7V32.1z"/>
<path class="st0" d="M411.2,33.9c0,0.6-0.4,1-1.1,1c-0.6,0-1-0.5-1-1s0.4-1.1,1.1-1.1C410.8,32.8,411.2,33.2,411.2,33.9z
	 M409.3,45.9v-9.4h1.7v9.4H409.3z"/>
<path class="st0" d="M414.1,45.9v-8.1h-1.3v-1.3h1.3V36c0-1.3,0.3-2.5,1.1-3.3c0.6-0.6,1.5-0.9,2.3-0.9c0.6,0,1.1,0.1,1.5,0.3
	l-0.2,1.3c-0.3-0.1-0.6-0.2-1.1-0.2c-1.5,0-1.8,1.3-1.8,2.7v0.5h2.3v1.3h-2.3v8.1H414.1z"/>
<path class="st0" d="M428,41.1c0,3.5-2.4,5-4.7,5c-2.5,0-4.5-1.9-4.5-4.8c0-3.1,2.1-5,4.7-5C426.2,36.3,428,38.3,428,41.1z
	 M420.6,41.2c0,2.1,1.2,3.6,2.8,3.6c1.6,0,2.9-1.5,2.9-3.7c0-1.6-0.8-3.6-2.8-3.6C421.5,37.6,420.6,39.5,420.6,41.2z"/>
<path class="st0" d="M430.3,39.4c0-1.1,0-2.1-0.1-2.9h1.5l0.1,1.9h0.1c0.4-1.3,1.5-2.1,2.6-2.1c0.2,0,0.3,0,0.5,0V38
	c-0.2,0-0.4,0-0.6,0c-1.2,0-2.1,0.9-2.3,2.2c0,0.2-0.1,0.5-0.1,0.8v5h-1.7V39.4z"/>
<path class="st0" d="M436.8,39c0-1,0-1.8-0.1-2.5h1.5l0.1,1.6h0c0.5-0.9,1.6-1.8,3.1-1.8c1.3,0,3.3,0.8,3.3,4v5.6h-1.7v-5.4
	c0-1.5-0.6-2.8-2.2-2.8c-1.1,0-2,0.8-2.3,1.7c-0.1,0.2-0.1,0.5-0.1,0.8v5.7h-1.7V39z"/>
<path class="st0" d="M449.6,33.9c0,0.6-0.4,1-1.1,1c-0.6,0-1-0.5-1-1s0.4-1.1,1.1-1.1C449.2,32.8,449.6,33.2,449.6,33.9z
	 M447.7,45.9v-9.4h1.7v9.4H447.7z"/>
<path class="st0" d="M458.9,43.6c0,0.8,0,1.6,0.1,2.3h-1.5l-0.1-1.2h-0.1c-0.5,0.7-1.5,1.4-2.9,1.4c-1.9,0-2.9-1.3-2.9-2.7
	c0-2.3,2-3.5,5.7-3.5v-0.2c0-0.8-0.2-2.2-2.1-2.2c-0.9,0-1.8,0.3-2.5,0.7l-0.4-1.1c0.8-0.5,1.9-0.8,3.1-0.8c2.9,0,3.6,2,3.6,3.8
	V43.6z M457.3,41.1c-1.9,0-4,0.3-4,2.1c0,1.1,0.7,1.6,1.6,1.6c1.2,0,2-0.8,2.3-1.6c0.1-0.2,0.1-0.4,0.1-0.5V41.1z"/>
<g>
	<line class="st1" x1="367.4" y1="0" x2="367.4" y2="54"/>
</g>
</svg>
