<?xml version="1.0" encoding="utf-8"?><!-- Generator: Adobe Illustrator 24.1.2, SVG Export Plug-In . SVG Version: 6.00 Build 0)  --><svg version="1.1" id="Layer_1" xmlns="http://www.w3.org/2000/svg" xmlns:xlink="http://www.w3.org/1999/xlink" x="0px" y="0px" viewBox="0 0 501.2 54" style="enable-background:new 0 0 501.2 54;" xml:space="preserve"><style type="text/css">
	.st0{fill:#231F20;}
	.st1{fill:none;stroke:#231F20;stroke-width:1.08;}
</style><g><path class="st0" d="m27.5 44.8c-1.7.9-5.2 1.7-9.6 1.7c-10.2 0-17.9-6.5-17.9-18.5c0-11.4 7.7-19.1 19-19.1c4.5 0 7.4 1 8.6 1.6l-1.2 3.8c-1.7-.9-4.3-1.5-7.3-1.5c-8.5 0-14.2 5.5-14.2 15c0 9 5.1 14.6 13.9 14.6c2.9 0 5.8-.6 7.7-1.5l1 3.9z"/><path class="st0" d="m33.6 7.6h4.8v16.4h.1c.8-1.3 1.9-2.6 3.4-3.4c1.4-.8 3.1-1.3 4.9-1.3c3.5 0 9.1 2.2 9.1 11.1v15.6h-4.8v-15c0-4.2-1.6-7.7-6-7.7c-3.1 0-5.5 2.2-6.4 4.7c-.3.7-.3 1.4-.3 2.3v15.8h-4.8v-38.5z"/><path class="st0" d="m82.2 39.6c0 2.3.1 4.5.4 6.3h-4.3l-.4-3.3h-.2c-1.5 2.1-4.3 3.9-8 3.9c-5.3 0-8-3.7-8-7.5c0-6.3 5.6-9.8 15.7-9.7v-.5c0-2.1-.6-6-5.9-6c-2.5 0-5 .7-6.9 1.9l-1.1-3.2c2.2-1.4 5.3-2.3 8.6-2.3c8 0 9.9 5.5 9.9 10.6v9.8zm-4.6-7c-5.2-.1-11.1.8-11.1 5.9c0 3.1 2.1 4.5 4.4 4.5c3.5 0 5.7-2.2 6.4-4.4c.2-.5.2-1.1.2-1.5v-4.5z"/><path class="st0" d="m90.1 26.8c0-2.8-.1-4.9-.2-7.1h4.2l.3 4.3h.1c1.3-2.4 4.3-4.9 8.6-4.9c3.6 0 9.2 2.2 9.2 11.1v15.6h-4.8v-15c0-4.2-1.6-7.7-6-7.7c-3.1 0-5.5 2.2-6.4 4.9c-.2.6-.3 1.4-.3 2.2v15.7h-4.8v-19.1z"/><path class="st0" d="m120.3 26.8c0-2.8-.1-4.9-.2-7.1h4.2l.3 4.3h.1c1.3-2.4 4.3-4.9 8.6-4.9c3.6 0 9.2 2.2 9.2 11.1v15.6h-4.8v-15c0-4.2-1.6-7.7-6-7.7c-3.1 0-5.5 2.2-6.4 4.9c-.2.6-.3 1.4-.3 2.2v15.7h-4.8v-19.1z"/><path class="st0" d="m153.2 33.7c.1 6.4 4.2 9.1 9 9.1c3.4 0 5.5-.6 7.2-1.4l.9 3.4c-1.7.8-4.6 1.7-8.7 1.7c-8 0-12.9-5.3-12.9-13.2c0-7.9 4.6-14 12.3-14c8.6 0 10.8 7.5 10.8 12.3c0 1-.1 1.7-.2 2.2h-18.4zm13.9-3.4c.1-3-1.2-7.7-6.6-7.7c-4.9 0-6.9 4.4-7.3 7.7h13.9z"/><path class="st0" d="m177.9 7.6h4.8v38.3h-4.8v-38.3z"/><path class="st0" d="m207.5 9.5v36.4h-4.8v-36.4h4.8z"/><path class="st0" d="m215.1 41.1c1.5.9 3.9 1.8 6.3 1.8c3.4 0 5-1.7 5-3.9c0-2.3-1.4-3.5-4.8-4.8c-4.8-1.7-7-4.3-7-7.4c0-4.2 3.5-7.7 9-7.7c2.6 0 5 .7 6.4 1.6l-1.1 3.5c-1-.6-2.9-1.6-5.3-1.6c-2.8 0-4.3 1.6-4.3 3.6c0 2.2 1.5 3.1 4.9 4.5c4.5 1.7 6.9 3.9 6.9 7.8c0 4.6-3.6 7.9-9.7 7.9c-2.9 0-5.5-.8-7.3-1.8l1-3.5z"/><path class="st0" d="m237.4 7.6h4.8v38.3h-4.8v-38.3z"/><path class="st0" d="m268.8 39.6c0 2.3.1 4.5.4 6.3h-4.3l-.4-3.3h-.2c-1.5 2.1-4.3 3.9-8 3.9c-5.3 0-8-3.7-8-7.5c0-6.3 5.6-9.8 15.7-9.7v-.5c0-2.1-.6-6-5.9-6c-2.5 0-5 .7-6.9 1.9l-1.1-3.2c2.2-1.4 5.3-2.3 8.6-2.3c8 0 9.9 5.5 9.9 10.6v9.8zm-4.6-7c-5.2-.1-11.1.8-11.1 5.9c0 3.1 2.1 4.5 4.4 4.5c3.5 0 5.7-2.2 6.4-4.4c.2-.5.2-1.1.2-1.5v-4.5z"/><path class="st0" d="m276.7 26.8c0-2.8-.1-4.9-.2-7.1h4.2l.3 4.3h.1c1.3-2.4 4.3-4.9 8.6-4.9c3.6 0 9.2 2.2 9.2 11.1v15.6h-4.8v-15c0-4.2-1.6-7.7-6-7.7c-3.1 0-5.5 2.2-6.4 4.9c-.2.6-.3 1.4-.3 2.2v15.7h-4.8v-19.1z"/><path class="st0" d="m329.4 7.6v31.6c0 2.3.1 5 .2 6.8h-4.2l-.2-4.5h-.2c-1.4 2.9-4.5 5.1-8.8 5.1c-6.3 0-11.2-5.3-11.2-13.3c-.1-8.7 5.4-14 11.7-14c4.1 0 6.7 1.9 7.9 3.9h.1v-15.6h4.7zm-4.6 22.8c0-.6-.1-1.4-.2-2c-.7-3-3.3-5.5-6.9-5.5c-4.9 0-7.8 4.3-7.8 10c0 5.3 2.6 9.7 7.7 9.7c3.2 0 6.1-2.2 7-5.7c.2-.6.2-1.3.2-2.1v-4.4z"/><path class="st0" d="m337 41.1c1.5.9 3.9 1.8 6.3 1.8c3.4 0 5-1.7 5-3.9c0-2.3-1.3-3.5-4.8-4.8c-4.8-1.7-7-4.3-7-7.4c0-4.2 3.5-7.7 9-7.7c2.6 0 5 .7 6.4 1.6l-1.1 3.5c-1-.6-2.9-1.6-5.3-1.6c-2.8 0-4.3 1.6-4.3 3.6c0 2.2 1.5 3.1 4.9 4.5c4.5 1.7 6.9 3.9 6.9 7.8c0 4.6-3.6 7.9-9.7 7.9c-2.9 0-5.5-.8-7.3-1.8l1-3.5z"/></g><path class="st0" d="m383.8 21.1v-13.1h3.5l2.7 4.8c.8 1.4 1.5 3 2.1 4.5h0c-.2-1.7-.2-3.5-.2-5.5v-3.8h2.7v13.1h-3.1l-2.8-5.1c-.8-1.4-1.7-3.1-2.3-4.6h-.1c.1 1.7.1 3.6.1 5.7v3.9h-2.6z"/><path class="st0" d="m405.1 18.8c0 .9 0 1.8.2 2.3h-2.7l-.2-1h-.1c-.6.8-1.6 1.2-2.7 1.2c-1.9 0-3.1-1.4-3.1-2.9c0-2.5 2.2-3.6 5.6-3.6v-.1c0-.5-.3-1.2-1.7-1.2c-1 0-2 .3-2.6.7l-.5-1.9c.7-.4 2-.9 3.7-.9c3.2 0 4.2 1.9 4.2 4.1v3.3zm-2.8-2.2c-1.6 0-2.8.4-2.8 1.5c0 .8.5 1.1 1.2 1.1c.7 0 1.3-.5 1.5-1.1c0-.2.1-.3.1-.5v-1z"/><path class="st0" d="m410.8 9v2.6h2.1v2.2h-2.1v3.4c0 1.1.3 1.7 1.2 1.7c.4 0 .6 0 .9-.1l0 2.2c-.4.1-1.1.3-1.9.3c-1 0-1.7-.3-2.2-.8c-.5-.6-.8-1.5-.8-2.8v-3.9h-1.3v-2.2h1.3v-1.8l2.8-.8z"/><path class="st0" d="m417.7 8.9c0 .8-.6 1.5-1.6 1.5c-.9 0-1.5-.7-1.5-1.5c0-.8.6-1.5 1.6-1.5s1.5.7 1.5 1.5zm-3 12.2v-9.5h3v9.5h-3z"/><path class="st0" d="m429.5 16.2c0 3.5-2.5 5.1-5 5.1c-2.8 0-4.9-1.8-4.9-4.9c0-3.1 2-5.1 5.1-5.1c2.9 0 4.8 2 4.8 4.9zm-6.9.1c0 1.6.7 2.9 1.9 2.9c1.2 0 1.9-1.1 1.9-2.9c0-1.4-.5-2.8-1.9-2.8c-1.3-.1-1.9 1.4-1.9 2.8z"/><path class="st0" d="m431.4 14.6c0-1.2 0-2.2-.1-3h2.6l.1 1.3h.1c.4-.6 1.3-1.5 2.9-1.5c1.9 0 3.4 1.3 3.4 4.1v5.6h-3v-5.3c0-1.2-.4-2.1-1.5-2.1c-.8 0-1.3.6-1.5 1.1c-.1.2-.1.5-.1.7v5.5h-3v-6.4z"/><path class="st0" d="m450.8 18.8c0 .9 0 1.8.2 2.3h-2.7l-.2-1h-.1c-.6.8-1.6 1.2-2.7 1.2c-1.9 0-3.1-1.4-3.1-2.9c0-2.5 2.2-3.6 5.6-3.6v-.1c0-.5-.3-1.2-1.7-1.2c-1 0-2 .3-2.6.7l-.5-1.9c.7-.4 2-.9 3.7-.9c3.2 0 4.2 1.9 4.2 4.1v3.3zm-2.8-2.2c-1.6 0-2.8.4-2.8 1.5c0 .8.5 1.1 1.2 1.1c.7 0 1.3-.5 1.5-1.1c0-.2.1-.3.1-.5v-1z"/><path class="st0" d="m453.3 7.3h3v13.8h-3v-13.8z"/><path class="st0" d="m462.8 8.1c.9-.2 2.2-.3 4-.3c1.8 0 3.1.3 4 1c.9.7 1.4 1.7 1.4 3s-.4 2.4-1.2 3.1c-1 .9-2.5 1.4-4.3 1.4c-.4 0-.7 0-1-.1v4.7h-2.9v-12.8zm2.9 6c.3.1.5.1 1 .1c1.6 0 2.5-.8 2.5-2.1c0-1.2-.8-1.9-2.3-1.9c-.6 0-1 0-1.2.1v3.8z"/><path class="st0" d="m481.7 18.8c0 .9 0 1.8.2 2.3h-2.7l-.2-1h-.1c-.6.8-1.6 1.2-2.7 1.2c-1.9 0-3.1-1.4-3.1-2.9c0-2.5 2.2-3.6 5.6-3.6v-.1c0-.5-.3-1.2-1.7-1.2c-1 0-2 .3-2.6.7l-.5-1.9c.7-.4 2-.9 3.7-.9c3.2 0 4.2 1.9 4.2 4.1v3.3zm-2.9-2.2c-1.6 0-2.8.4-2.8 1.5c0 .8.5 1.1 1.2 1.1c.7 0 1.3-.5 1.5-1.1c0-.2.1-.3.1-.5v-1z"/><path class="st0" d="m484.1 14.7c0-1.4 0-2.3-.1-3.1h2.5l.1 1.7h.1c.5-1.4 1.6-2 2.6-2c.3 0 .4 0 .6.1v2.8c-.2 0-.5-.1-.8-.1c-1.1 0-1.8.6-2 1.5c0 .2-.1.4-.1.7v4.8h-3v-6.4z"/><path class="st0" d="m494.5 15.6l0 0c.3-.4.5-.8.7-1.1l1.9-2.9h3.6l-3.4 3.8l3.9 5.7h-3.6l-2.3-3.9l-.7.9v3h-3v-13.8h3v8.3z"/><path class="st0" d="m393.1 45.5c-.6.3-1.9.6-3.5.6c-3.7 0-6.5-2.3-6.5-6.6c0-4.1 2.8-6.9 6.8-6.9c1.6 0 2.7.4 3.1.6l-.4 1.4c-.6-.3-1.5-.5-2.6-.5c-3.1 0-5.1 2-5.1 5.4c0 3.2 1.8 5.3 5 5.3c1 0 2.1-.2 2.8-.5l.4 1.2z"/><path class="st0" d="m401.8 43.6c0 .8 0 1.6.1 2.3h-1.5l-.1-1.2h-.1c-.5.7-1.5 1.4-2.9 1.4c-1.9 0-2.9-1.3-2.9-2.7c0-2.3 2-3.5 5.7-3.5v-.2c0-.8-.2-2.2-2.1-2.2c-.9 0-1.8.3-2.5.7l-.4-1.1c.8-.5 1.9-.8 3.1-.8c2.9 0 3.6 2 3.6 3.8v3.5zm-1.6-2.5c-1.9 0-4 .3-4 2.1c0 1.1.7 1.6 1.6 1.6c1.2 0 2-.8 2.3-1.6c.1-.2.1-.4.1-.5v-1.6z"/><path class="st0" d="m404.7 32.1h1.7v13.8h-1.7v-13.8z"/><path class="st0" d="m411.2 33.9c0 .6-.4 1-1.1 1c-.6 0-1-.5-1-1s.4-1.1 1.1-1.1c.6 0 1 .4 1 1.1zm-1.9 12v-9.4h1.7v9.4h-1.7z"/><path class="st0" d="m414.1 45.9v-8.1h-1.3v-1.3h1.3v-.5c0-1.3.3-2.5 1.1-3.3c.6-.6 1.5-.9 2.3-.9c.6 0 1.1.1 1.5.3l-.2 1.3c-.3-.1-.6-.2-1.1-.2c-1.5 0-1.8 1.3-1.8 2.7v.5h2.3v1.3h-2.3v8.1h-1.8z"/><path class="st0" d="m428 41.1c0 3.5-2.4 5-4.7 5c-2.5 0-4.5-1.9-4.5-4.8c0-3.1 2.1-5 4.7-5c2.7 0 4.5 2 4.5 4.8zm-7.4.1c0 2.1 1.2 3.6 2.8 3.6c1.6 0 2.9-1.5 2.9-3.7c0-1.6-.8-3.6-2.8-3.6c-2 .1-2.9 2-2.9 3.7z"/><path class="st0" d="m430.3 39.4c0-1.1 0-2.1-.1-2.9h1.5l.1 1.9h.1c.4-1.3 1.5-2.1 2.6-2.1c.2 0 .3 0 .5 0v1.7c-.2 0-.4 0-.6 0c-1.2 0-2.1.9-2.3 2.2c0 .2-.1.5-.1.8v5h-1.7v-6.6z"/><path class="st0" d="m436.8 39c0-1 0-1.8-.1-2.5h1.5l.1 1.6h0c.5-.9 1.6-1.8 3.1-1.8c1.3 0 3.3.8 3.3 4v5.6h-1.7v-5.4c0-1.5-.6-2.8-2.2-2.8c-1.1 0-2 .8-2.3 1.7c-.1.2-.1.5-.1.8v5.7h-1.7v-6.9z"/><path class="st0" d="m449.6 33.9c0 .6-.4 1-1.1 1c-.6 0-1-.5-1-1s.4-1.1 1.1-1.1c.6 0 1 .4 1 1.1zm-1.9 12v-9.4h1.7v9.4h-1.7z"/><path class="st0" d="m458.9 43.6c0 .8 0 1.6.1 2.3h-1.5l-.1-1.2h-.1c-.5.7-1.5 1.4-2.9 1.4c-1.9 0-2.9-1.3-2.9-2.7c0-2.3 2-3.5 5.7-3.5v-.2c0-.8-.2-2.2-2.1-2.2c-.9 0-1.8.3-2.5.7l-.4-1.1c.8-.5 1.9-.8 3.1-.8c2.9 0 3.6 2 3.6 3.8v3.5zm-1.6-2.5c-1.9 0-4 .3-4 2.1c0 1.1.7 1.6 1.6 1.6c1.2 0 2-.8 2.3-1.6c.1-.2.1-.4.1-.5v-1.6z"/><g><line class="st1" x1="367.4" y1="0" x2="367.4" y2="54"/></g></svg>