<?xml version="1.0" encoding="utf-8"?><!-- Generator: Adobe Illustrator 24.1.2, SVG Export Plug-In . SVG Version: 6.00 Build 0)  --><svg version="1.1" id="Layer_1" xmlns="http://www.w3.org/2000/svg" xmlns:xlink="http://www.w3.org/1999/xlink" x="0px" y="0px" viewBox="0 0 528.3 528.3" style="enable-background:new 0 0 528.3 528.3;" xml:space="preserve"><style type="text/css">
	.st0{fill:#00AA32;}
	.st1{fill:#A8E2B9;}
	.st2{fill:#FFFFFF;}
</style><rect class="st0" width="528.3" height="528.3"/><polygon class="st1" points="280.7,116.3 446,72 401.7,237.3 "/><g><path class="st2" d="m162.7 313.8c-4.4 1.7-13.2 4.2-23.5 4.2c-11.5 0-21-2.9-28.4-10c-6.5-6.3-10.6-16.5-10.6-28.3c0-22.7 15.7-39.2 41.2-39.2c8.8 0 15.8 1.9 19.1 3.5l-2.5 8c-4.1-1.9-9.1-3.3-16.8-3.3c-18.5 0-30.6 11.5-30.6 30.6c0 19.3 11.5 30.7 29.3 30.7c6.4 0 10.8-.9 13.1-2v-22.7h-15.3v-7.9h25v36.4z"/><path class="st2" d="m188.3 247.3c0 3.4-2.4 6.1-6.3 6.1c-3.6 0-6-2.7-6-6.1c0-3.4 2.5-6.2 6.2-6.2c3.6 0 6.1 2.7 6.1 6.2zm-11.1 69.9v-54.6h9.9v54.6h-9.9z"/><path class="st2" d="m203.6 237.1h9.9v80.1h-9.9v-80.1z"/><path class="st2" d="m230.2 237.1h9.8v34.3h.2c3.5-6.1 9.8-9.9 18.6-9.9c13.6 0 23.1 11.3 23.1 27.7c0 19.5-12.4 29.2-24.6 29.2c-7.9 0-14.2-3-18.4-10.1h-.2l-.6 8.9h-8.5c.2-3.7.5-9.2.5-14.1v-66zm9.8 58.2c0 1.2.1 2.5.5 3.6c1.8 6.9 7.7 11.6 14.9 11.6c10.5 0 16.6-8.5 16.6-21c0-10.9-5.6-20.3-16.4-20.3c-6.7 0-13 4.7-15 12.2c-.3 1.2-.6 2.6-.6 4.2v9.7z"/><path class="st2" d="m299.9 291.7c.2 13.4 8.7 18.9 18.7 18.9c7.1 0 11.5-1.2 15.1-2.8l1.8 7.1c-3.5 1.6-9.6 3.5-18.3 3.5c-16.8 0-26.8-11.2-26.8-27.6c0-16.5 9.7-29.3 25.6-29.3c17.9 0 22.6 15.6 22.6 25.6c0 2-.1 3.5-.3 4.6h-38.4zm29.1-7.1c.1-6.2-2.6-16-13.8-16c-10.2 0-14.4 9.1-15.2 16h29z"/><path class="st2" d="m350.9 279.7c0-6.4-.1-12-.5-17h8.7l.5 10.8h.3c2.5-7.3 8.6-12 15.2-12c1 0 1.8.1 2.7.2v9.4c-1-.2-2-.2-3.4-.2c-7 0-12 5.2-13.3 12.6c-.2 1.4-.3 3-.3 4.6v29.1h-9.9v-37.5z"/><path class="st2" d="m402.4 249.5v13.1h14.2v7.6h-14.2v29.4c0 6.8 1.9 10.6 7.4 10.6c2.7 0 4.3-.2 5.8-.7l.5 7.6c-1.9.7-5 1.4-8.8 1.4c-4.6 0-8.3-1.6-10.7-4.2c-2.7-3-3.8-7.9-3.8-14.3v-29.8h-8.5v-7.6h8.5v-10.2l9.6-2.9z"/><path class="st2" d="m162.7 426.6c-4.4 1.7-13.2 4.2-23.5 4.2c-11.5 0-21-2.9-28.4-10c-6.5-6.3-10.6-16.5-10.6-28.3c0-22.7 15.7-39.2 41.2-39.2c8.8 0 15.8 1.9 19.1 3.5l-2.5 8c-4.1-1.9-9.1-3.3-16.8-3.3c-18.5 0-30.6 11.5-30.6 30.6c0 19.3 11.5 30.7 29.3 30.7c6.4 0 10.8-.9 13.1-2v-22.8h-15.3v-7.9h25v36.5z"/><path class="st2" d="m222.9 415c0 5.8.1 10.7.5 15h-8.8l-.6-8.9h-.2c-2.5 4.4-8.3 10.1-18 10.1c-8.6 0-18.8-4.8-18.8-23.9v-31.9h9.9v30.1c0 10.4 3.3 17.5 12.2 17.5c6.7 0 11.3-4.6 13.1-9.1c.6-1.4.9-3.2.9-5.1v-33.4h9.9v39.6z"/><path class="st2" d="m250.4 360.1c0 3.4-2.4 6.1-6.3 6.1c-3.6 0-6-2.7-6-6.1c0-3.4 2.5-6.2 6.2-6.2c3.6 0 6.1 2.7 6.1 6.2zm-11 69.9v-54.6h9.9v54.6h-9.9z"/><path class="st2" d="m312.8 349.9v66c0 4.8.2 10.4.5 14.1h-8.8l-.5-9.5h-.3c-2.9 6.1-9.5 10.7-18.4 10.7c-13.2 0-23.5-11.2-23.5-27.7c-.1-18.2 11.3-29.2 24.5-29.2c8.5 0 14 3.9 16.5 8.2h.2v-32.6h9.8zm-9.8 47.7c0-1.2-.1-2.9-.5-4.2c-1.5-6.2-6.9-11.4-14.3-11.4c-10.3 0-16.4 9-16.4 21c0 11.1 5.5 20.2 16.1 20.2c6.7 0 12.7-4.5 14.5-11.8c.3-1.4.5-2.7.5-4.3v-9.5z"/><path class="st2" d="m334.9 404.5c.2 13.4 8.7 18.9 18.7 18.9c7.1 0 11.5-1.2 15.1-2.8l1.8 7.1c-3.5 1.6-9.6 3.5-18.3 3.5c-16.8 0-26.8-11.2-26.8-27.6c0-16.5 9.7-29.3 25.6-29.3c17.9 0 22.6 15.6 22.6 25.6c0 2-.1 3.5-.3 4.6h-38.4zm29.1-7.1c.1-6.2-2.6-16-13.8-16c-10.2 0-14.4 9.1-15.2 16h29z"/><path class="st2" d="m384.5 420c3 1.8 8.2 3.8 13.2 3.8c7.1 0 10.5-3.5 10.5-8.1c0-4.7-2.8-7.2-10-9.9c-9.9-3.6-14.5-8.9-14.5-15.5c0-8.8 7.2-16 18.8-16c5.5 0 10.4 1.5 13.3 3.4l-2.4 7.2c-2.1-1.4-6.1-3.3-11.2-3.3c-5.9 0-9 3.4-9 7.4c0 4.5 3.2 6.5 10.3 9.4c9.4 3.5 14.3 8.2 14.3 16.4c0 9.7-7.6 16.5-20.3 16.5c-6 0-11.5-1.6-15.3-3.8l2.3-7.5z"/></g></svg>