<?xml version="1.0" standalone="no"?><!DOCTYPE svg PUBLIC "-//W3C//DTD SVG 1.1//EN" "http://www.w3.org/Graphics/SVG/1.1/DTD/svg11.dtd"><svg xmlns="http://www.w3.org/2000/svg" version="1.1" width="380px" height="84.5px" viewBox="0 0 380 84.5">  <desc>Anacapa Island 699 acres</desc>  <defs/>  <g id="Polygon12166">    <path d="M 8.3 54.6 C 8 54.6 7.7 54.6 7.2 54.7 C 4.8 54.9 3.7 56.1 3.4 57.5 C 3.4 57.5 3.4 57.5 3.4 57.5 C 4 56.9 4.9 56.6 5.9 56.6 C 7.9 56.6 9.6 58 9.6 60.4 C 9.6 62.8 7.8 64.7 5.3 64.7 C 2.1 64.7 0.5 62.4 0.5 59.5 C 0.5 57.3 1.4 55.5 2.7 54.3 C 3.8 53.2 5.4 52.6 7.2 52.5 C 7.7 52.5 8.1 52.5 8.3 52.5 C 8.3 52.5 8.3 54.6 8.3 54.6 Z M 6.8 60.6 C 6.8 59.5 6.2 58.5 5 58.5 C 4.3 58.5 3.7 59 3.4 59.6 C 3.3 59.7 3.3 60 3.3 60.3 C 3.3 61.5 3.9 62.7 5.2 62.7 C 6.2 62.7 6.8 61.8 6.8 60.6 Z M 11.7 62.5 C 12.1 62.6 12.4 62.5 12.9 62.5 C 13.8 62.5 14.6 62.2 15.2 61.8 C 16 61.3 16.5 60.5 16.7 59.6 C 16.7 59.6 16.7 59.6 16.7 59.6 C 16.2 60.1 15.4 60.4 14.3 60.4 C 12.3 60.4 10.6 59 10.6 56.7 C 10.6 54.4 12.5 52.5 15.1 52.5 C 18.1 52.5 19.6 54.8 19.6 57.6 C 19.6 60 18.8 61.8 17.5 63 C 16.4 64 14.8 64.6 13 64.7 C 12.5 64.7 12 64.7 11.7 64.7 C 11.7 64.7 11.7 62.5 11.7 62.5 Z M 13.4 56.6 C 13.4 57.6 13.9 58.5 15 58.5 C 15.8 58.5 16.3 58.1 16.6 57.7 C 16.7 57.5 16.7 57.3 16.7 57 C 16.7 55.7 16.3 54.5 15 54.5 C 14 54.5 13.4 55.3 13.4 56.6 Z M 21.8 62.5 C 22.2 62.6 22.4 62.5 23 62.5 C 23.8 62.5 24.7 62.2 25.3 61.8 C 26.1 61.3 26.6 60.5 26.8 59.6 C 26.8 59.6 26.8 59.6 26.8 59.6 C 26.2 60.1 25.5 60.4 24.4 60.4 C 22.4 60.4 20.7 59 20.7 56.7 C 20.7 54.4 22.6 52.5 25.2 52.5 C 28.2 52.5 29.6 54.8 29.6 57.6 C 29.6 60 28.9 61.8 27.6 63 C 26.4 64 24.9 64.6 23 64.7 C 22.6 64.7 22.1 64.7 21.8 64.7 C 21.8 64.7 21.8 62.5 21.8 62.5 Z M 23.5 56.6 C 23.5 57.6 24 58.5 25.1 58.5 C 25.9 58.5 26.4 58.1 26.7 57.7 C 26.8 57.5 26.8 57.3 26.8 57 C 26.8 55.7 26.4 54.5 25.1 54.5 C 24.1 54.5 23.5 55.3 23.5 56.6 Z M 42.4 62.4 C 42.4 63.2 42.5 64 42.6 64.5 C 42.58 64.5 40.1 64.5 40.1 64.5 L 39.9 63.6 C 39.9 63.6 39.87 63.61 39.9 63.6 C 39.3 64.3 38.4 64.7 37.3 64.7 C 35.5 64.7 34.5 63.4 34.5 62 C 34.5 59.7 36.5 58.6 39.7 58.6 C 39.7 58.6 39.7 58.5 39.7 58.5 C 39.7 58 39.4 57.3 38.1 57.3 C 37.1 57.3 36.2 57.6 35.6 58 C 35.6 58 35.1 56.2 35.1 56.2 C 35.7 55.8 36.9 55.4 38.5 55.4 C 41.5 55.4 42.4 57.1 42.4 59.2 C 42.4 59.2 42.4 62.4 42.4 62.4 Z M 39.8 60.3 C 38.3 60.3 37.2 60.6 37.2 61.7 C 37.2 62.4 37.7 62.8 38.3 62.8 C 38.9 62.8 39.5 62.3 39.7 61.7 C 39.7 61.6 39.8 61.4 39.8 61.3 C 39.8 61.3 39.8 60.3 39.8 60.3 Z M 51.3 64.3 C 50.8 64.5 49.9 64.7 48.8 64.7 C 46 64.7 44.1 62.9 44.1 60.1 C 44.1 57.5 45.9 55.4 49.2 55.4 C 49.9 55.4 50.7 55.5 51.3 55.8 C 51.3 55.8 50.9 57.8 50.9 57.8 C 50.6 57.7 50.1 57.5 49.3 57.5 C 47.9 57.5 46.9 58.6 47 60 C 47 61.6 48.1 62.5 49.4 62.5 C 50.1 62.5 50.6 62.4 51 62.2 C 51 62.2 51.3 64.3 51.3 64.3 Z M 52.8 58.5 C 52.8 57.2 52.8 56.4 52.8 55.6 C 52.76 55.61 55.1 55.6 55.1 55.6 L 55.2 57.2 C 55.2 57.2 55.3 57.25 55.3 57.2 C 55.8 55.9 56.8 55.4 57.7 55.4 C 58 55.4 58.1 55.4 58.3 55.4 C 58.3 55.4 58.3 58 58.3 58 C 58.1 58 57.8 58 57.5 58 C 56.5 58 55.8 58.5 55.6 59.4 C 55.6 59.6 55.6 59.8 55.6 60 C 55.59 59.99 55.6 64.5 55.6 64.5 L 52.8 64.5 C 52.8 64.5 52.83 58.54 52.8 58.5 Z M 61.7 60.9 C 61.8 62.1 62.9 62.6 64.2 62.6 C 65.2 62.6 65.9 62.5 66.7 62.2 C 66.7 62.2 67 64.1 67 64.1 C 66.1 64.5 65 64.7 63.8 64.7 C 60.8 64.7 59.1 62.9 59.1 60.2 C 59.1 57.9 60.5 55.4 63.6 55.4 C 66.4 55.4 67.5 57.6 67.5 59.8 C 67.5 60.3 67.5 60.7 67.4 60.9 C 67.4 60.9 61.7 60.9 61.7 60.9 Z M 65 59 C 65 58.4 64.7 57.2 63.4 57.2 C 62.2 57.2 61.8 58.3 61.7 59 C 61.7 59 65 59 65 59 Z M 69.2 62.1 C 69.7 62.4 70.7 62.8 71.6 62.8 C 72.4 62.8 72.7 62.5 72.7 62 C 72.7 61.6 72.5 61.3 71.4 61 C 69.6 60.4 68.9 59.4 68.9 58.3 C 68.9 56.6 70.3 55.4 72.5 55.4 C 73.5 55.4 74.5 55.6 75 55.9 C 75 55.9 74.5 57.8 74.5 57.8 C 74.1 57.6 73.3 57.3 72.6 57.3 C 71.9 57.3 71.6 57.6 71.6 58 C 71.6 58.5 71.9 58.7 73 59.1 C 74.7 59.6 75.4 60.5 75.4 61.8 C 75.4 63.5 74.1 64.7 71.6 64.7 C 70.4 64.7 69.4 64.4 68.7 64.1 C 68.7 64.1 69.2 62.1 69.2 62.1 Z " stroke="none" fill="#000"/>  </g>  <g id="Polygon12165">    <path d="M 13.2 21.9 C 13.24 21.93 12.3 19.1 12.3 19.1 L 5.7 19.1 C 5.7 19.1 4.76 21.93 4.8 21.9 C 5.4 22 5.8 22.1 6.2 22.3 C 6.21 22.29 6.2 24.1 6.2 24.1 L 0.4 24.1 C 0.4 24.1 0.36 22.29 0.4 22.3 C 0.7 22.2 1.1 22.1 1.5 22 C 1.5 22 7.9 4.7 7.9 4.7 C 8.4 4.6 9.4 4.5 10.3 4.5 C 11.1 4.5 12.2 4.6 12.7 4.7 C 12.7 4.7 19 22 19 22 C 19.5 22.1 19.9 22.2 20.2 22.3 C 20.17 22.29 20.2 24.1 20.2 24.1 L 11.6 24.1 C 11.6 24.1 11.63 22.29 11.6 22.3 C 12 22.1 12.6 22 13.2 21.9 Z M 11.4 16.6 L 9 9.7 L 6.6 16.6 L 11.4 16.6 Z M 22.8 22 C 22.78 22.02 22.8 12.2 22.8 12.2 L 21.3 11.8 C 21.3 11.8 21.26 10.03 21.3 10 C 23 9.6 25.3 9.2 27.9 9.2 C 27.9 9.2 27.9 11.6 27.9 11.6 C 28.9 9.9 30.8 9.1 32.9 9.1 C 35.9 9.1 37.5 10.9 37.5 13.6 C 37.5 13.6 37.5 22 37.5 22 C 38.2 22.1 38.7 22.3 39 22.4 C 39.04 22.41 39 24.1 39 24.1 L 30.9 24.1 C 30.9 24.1 30.87 22.41 30.9 22.4 C 31.2 22.3 31.7 22.1 32.4 22 C 32.4 22 32.4 14.7 32.4 14.7 C 32.4 13.4 31.7 12.7 30.5 12.7 C 29.5 12.7 28.7 13 27.9 13.8 C 27.9 13.8 27.9 22 27.9 22 C 28.5 22.1 29.1 22.3 29.4 22.4 C 29.44 22.41 29.4 24.1 29.4 24.1 L 21.2 24.1 C 21.2 24.1 21.23 22.41 21.2 22.4 C 21.6 22.3 22.1 22.1 22.8 22 Z M 48.5 15.6 C 48.5 15.6 48.5 13.7 48.5 13.7 C 48.5 12.3 47.9 11.6 46.3 11.6 C 45.9 11.6 45.4 11.7 45 11.8 C 44.95 11.75 44.5 14.3 44.5 14.3 C 44.5 14.3 41.59 14.3 41.6 14.3 C 41.3 13.5 41.2 12.7 41.2 11.9 C 41.2 11.5 41.3 10.9 41.4 10.6 C 43.2 9.6 45.6 9.1 47.9 9.1 C 51.6 9.1 53.6 10.5 53.6 13.5 C 53.6 15.9 53.4 18.9 53.4 21.6 C 53.43 21.6 54.9 22 54.9 22 C 54.9 22 54.95 23.66 54.9 23.7 C 53.2 24.1 51.1 24.4 48.6 24.4 C 48.6 24.4 48.6 22.2 48.6 22.2 C 47.9 23.6 46.3 24.4 44.6 24.4 C 42 24.4 40.3 23.1 40.3 20.4 C 40.3 16.5 44 15.8 48.5 15.6 Z M 48.5 21 C 48.5 21 48.5 17.4 48.5 17.4 C 46.3 17.6 45.1 18.2 45.1 19.8 C 45.1 21 45.9 21.6 46.9 21.6 C 47.5 21.6 48 21.4 48.5 21 Z M 64.3 9.1 C 66.2 9.1 68.2 9.6 69.1 10.2 C 69.1 11.8 69 13.4 68.5 15.2 C 68.46 15.21 65.9 15.2 65.9 15.2 C 65.9 15.2 65.21 11.51 65.2 11.5 C 65 11.5 64.9 11.5 64.7 11.5 C 62.9 11.5 61.5 12.7 61.5 16.1 C 61.5 19.8 63.2 21.2 65.2 21.2 C 66.8 21.2 67.8 20.5 68.7 19.6 C 68.7 19.6 69.5 20.9 69.5 20.9 C 68.6 22.8 66.7 24.4 63.6 24.4 C 59.4 24.4 56.4 22.1 56.4 16.6 C 56.4 11.8 60 9.1 64.3 9.1 Z M 79 15.6 C 79 15.6 79 13.7 79 13.7 C 79 12.3 78.4 11.6 76.9 11.6 C 76.5 11.6 76 11.7 75.5 11.8 C 75.51 11.75 75.1 14.3 75.1 14.3 C 75.1 14.3 72.15 14.3 72.2 14.3 C 71.9 13.5 71.8 12.7 71.8 11.9 C 71.8 11.5 71.8 10.9 71.9 10.6 C 73.8 9.6 76.2 9.1 78.4 9.1 C 82.1 9.1 84.1 10.5 84.1 13.5 C 84.1 15.9 84 18.9 84 21.6 C 83.99 21.6 85.5 22 85.5 22 C 85.5 22 85.51 23.66 85.5 23.7 C 83.8 24.1 81.7 24.4 79.1 24.4 C 79.1 24.4 79.1 22.2 79.1 22.2 C 78.4 23.6 76.9 24.4 75.1 24.4 C 72.6 24.4 70.8 23.1 70.8 20.4 C 70.8 16.5 74.6 15.8 79 15.6 Z M 79 21 C 79 21 79 17.4 79 17.4 C 76.9 17.6 75.7 18.2 75.7 19.8 C 75.7 21 76.5 21.6 77.5 21.6 C 78.1 21.6 78.6 21.4 79 21 Z M 88.4 27.7 C 88.39 27.72 88.4 12.2 88.4 12.2 L 86.9 11.8 C 86.9 11.8 86.87 10.03 86.9 10 C 88.6 9.6 90.8 9.3 93.4 9.3 C 93.4 9.3 93.4 11.6 93.4 11.6 C 94.2 10.1 95.9 9.1 97.8 9.1 C 101.4 9.1 103.4 11.8 103.4 16.4 C 103.4 21.4 100.7 24.6 96.5 24.6 C 95.3 24.6 94.2 24.1 93.5 23.5 C 93.5 23.5 93.5 27.7 93.5 27.7 C 94.2 27.8 94.9 28 95.3 28.1 C 95.32 28.11 95.3 29.8 95.3 29.8 L 86.8 29.8 C 86.8 29.8 86.84 28.11 86.8 28.1 C 87.2 28 87.7 27.8 88.4 27.7 Z M 93.5 13.3 C 93.5 13.3 93.5 21.5 93.5 21.5 C 93.8 21.6 94.2 21.7 94.6 21.7 C 96.9 21.7 98.1 19.8 98.1 16.8 C 98.1 13.5 97 12.4 95.4 12.4 C 94.7 12.4 94 12.7 93.5 13.3 Z M 113.2 15.6 C 113.2 15.6 113.2 13.7 113.2 13.7 C 113.2 12.3 112.6 11.6 111 11.6 C 110.6 11.6 110.2 11.7 109.7 11.8 C 109.68 11.75 109.2 14.3 109.2 14.3 C 109.2 14.3 106.32 14.3 106.3 14.3 C 106.1 13.5 106 12.7 106 11.9 C 106 11.5 106 10.9 106.1 10.6 C 108 9.6 110.4 9.1 112.6 9.1 C 116.3 9.1 118.3 10.5 118.3 13.5 C 118.3 15.9 118.2 18.9 118.2 21.6 C 118.16 21.6 119.7 22 119.7 22 C 119.7 22 119.67 23.66 119.7 23.7 C 118 24.1 115.9 24.4 113.3 24.4 C 113.3 24.4 113.3 22.2 113.3 22.2 C 112.6 23.6 111.1 24.4 109.3 24.4 C 106.8 24.4 105 23.1 105 20.4 C 105 16.5 108.7 15.8 113.2 15.6 Z M 113.2 21 C 113.2 21 113.2 17.4 113.2 17.4 C 111.1 17.6 109.8 18.2 109.8 19.8 C 109.8 21 110.6 21.6 111.6 21.6 C 112.3 21.6 112.8 21.4 113.2 21 Z M 128.4 21.9 C 128.4 21.9 128.4 6.9 128.4 6.9 C 127.6 6.9 127 6.7 126.6 6.5 C 126.58 6.54 126.6 4.7 126.6 4.7 L 135.6 4.7 C 135.6 4.7 135.61 6.54 135.6 6.5 C 135.2 6.7 134.6 6.9 133.8 6.9 C 133.8 6.9 133.8 21.9 133.8 21.9 C 134.6 22 135.2 22.1 135.6 22.3 C 135.61 22.29 135.6 24.1 135.6 24.1 L 126.6 24.1 C 126.6 24.1 126.58 22.29 126.6 22.3 C 127 22.1 127.6 22 128.4 21.9 Z M 137.3 22.4 C 137.3 21.4 137.5 20.4 137.7 19.4 C 137.7 19.39 140.4 19.4 140.4 19.4 C 140.4 19.4 140.85 22.08 140.8 22.1 C 141.3 22.2 141.8 22.2 142.3 22.2 C 143.6 22.2 144.5 21.7 144.5 20.5 C 144.5 19.4 143.7 19.1 142.2 18.6 C 142.2 18.6 140.6 18.1 140.6 18.1 C 138.7 17.5 137.3 16.3 137.3 13.8 C 137.3 10.4 140.4 9.1 143.9 9.1 C 145.5 9.1 147.5 9.4 148.6 9.9 C 148.7 10.3 148.7 10.8 148.7 11.2 C 148.7 12.1 148.6 13.2 148.3 14.2 C 148.3 14.18 145.7 14.2 145.7 14.2 C 145.7 14.2 145.15 11.51 145.1 11.5 C 144.8 11.4 144.4 11.4 143.9 11.4 C 142.8 11.4 141.7 11.8 141.7 12.9 C 141.7 14.1 142.6 14.4 143.8 14.8 C 143.8 14.8 145.4 15.3 145.4 15.3 C 147.7 16 149.3 17.1 149.3 19.5 C 149.3 22.7 146.9 24.5 142.3 24.5 C 140.6 24.5 138.6 24.2 137.5 23.7 C 137.3 23.3 137.3 22.8 137.3 22.4 Z M 152.1 22 C 152.09 22.02 152.1 5.8 152.1 5.8 L 150.3 5.4 C 150.3 5.4 150.3 3.6 150.3 3.6 C 152 3.1 154.6 2.9 157.2 2.9 C 157.2 2.9 157.2 22 157.2 22 C 157.8 22.1 158.4 22.3 158.7 22.4 C 158.75 22.41 158.7 24.1 158.7 24.1 L 150.5 24.1 C 150.5 24.1 150.54 22.41 150.5 22.4 C 150.9 22.3 151.4 22.1 152.1 22 Z M 168.1 15.6 C 168.1 15.6 168.1 13.7 168.1 13.7 C 168.1 12.3 167.5 11.6 166 11.6 C 165.6 11.6 165.1 11.7 164.6 11.8 C 164.63 11.75 164.2 14.3 164.2 14.3 C 164.2 14.3 161.26 14.3 161.3 14.3 C 161 13.5 160.9 12.7 160.9 11.9 C 160.9 11.5 161 10.9 161.1 10.6 C 162.9 9.6 165.3 9.1 167.5 9.1 C 171.2 9.1 173.2 10.5 173.2 13.5 C 173.2 15.9 173.1 18.9 173.1 21.6 C 173.11 21.6 174.6 22 174.6 22 C 174.6 22 174.62 23.66 174.6 23.7 C 172.9 24.1 170.8 24.4 168.2 24.4 C 168.2 24.4 168.2 22.2 168.2 22.2 C 167.5 23.6 166 24.4 164.2 24.4 C 161.7 24.4 160 23.1 160 20.4 C 160 16.5 163.7 15.8 168.1 15.6 Z M 168.1 21 C 168.1 21 168.1 17.4 168.1 17.4 C 166 17.6 164.8 18.2 164.8 19.8 C 164.8 21 165.6 21.6 166.6 21.6 C 167.2 21.6 167.7 21.4 168.1 21 Z M 177.6 22 C 177.56 22.02 177.6 12.2 177.6 12.2 L 176 11.8 C 176 11.8 176.04 10.03 176 10 C 177.8 9.6 180.1 9.2 182.6 9.2 C 182.6 9.2 182.6 11.6 182.6 11.6 C 183.7 9.9 185.6 9.1 187.7 9.1 C 190.7 9.1 192.3 10.9 192.3 13.6 C 192.3 13.6 192.3 22 192.3 22 C 192.9 22.1 193.5 22.3 193.8 22.4 C 193.83 22.41 193.8 24.1 193.8 24.1 L 185.6 24.1 C 185.6 24.1 185.65 22.41 185.6 22.4 C 186 22.3 186.5 22.1 187.2 22 C 187.2 22 187.2 14.7 187.2 14.7 C 187.2 13.4 186.5 12.7 185.3 12.7 C 184.3 12.7 183.5 13 182.6 13.8 C 182.6 13.8 182.6 22 182.6 22 C 183.3 22.1 183.9 22.3 184.2 22.4 C 184.22 22.41 184.2 24.1 184.2 24.1 L 176 24.1 C 176 24.1 176.01 22.41 176 22.4 C 176.3 22.3 176.9 22.1 177.6 22 Z M 202.2 9 C 203.5 9 204.5 9.5 205.2 10.2 C 205.15 10.21 205.2 5.8 205.2 5.8 L 203.3 5.4 C 203.3 5.4 203.28 3.6 203.3 3.6 C 205 3.1 207.7 2.9 210.2 2.9 C 210.24 2.91 210.2 21.6 210.2 21.6 L 211.8 22 C 211.8 22 211.76 23.66 211.8 23.7 C 210.1 24.1 207.8 24.4 205.2 24.4 C 205.2 24.4 205.2 22 205.2 22 C 204.5 23.6 202.9 24.5 201.1 24.5 C 197.5 24.5 195.2 21.7 195.2 17.1 C 195.2 12.1 198 9 202.2 9 Z M 205.2 20.4 C 205.2 20.4 205.2 12.1 205.2 12.1 C 204.8 12 204.4 12 204 12 C 201.7 12 200.5 14 200.5 16.7 C 200.5 20 201.7 21.2 203.3 21.2 C 204 21.2 204.6 20.9 205.2 20.4 Z " stroke="none" fill="#404040"/>  </g></svg>