<?xml version="1.0" standalone="no"?><!DOCTYPE svg PUBLIC "-//W3C//DTD SVG 1.1//EN" "http://www.w3.org/Graphics/SVG/1.1/DTD/svg11.dtd"><svg xmlns="http://www.w3.org/2000/svg" version="1.1" width="181px" height="155.3px" viewBox="0 0 181 155.3"><desc>Harchil ipsamus quataerit labo Itas ilit in natus autas nectio Et audi beatur seque vollabo Neque ommolut fuga Na</desc><defs/><g id="Polygon13122"><path d="m3.4 136.2c1.4 0 2.3.7 2.3 2.2c0 .3 0 .4-.1.7c.02-.03-3.9 0-3.9 0c0 0 .02.08 0 .1c0 1.7.9 2.4 2 2.4c.7 0 1.2-.3 1.6-.8c0 0 .3.2.3.2c-.5.9-1.2 1.5-2.3 1.5c-1.5 0-2.8-1-2.8-3.2c0-2 1.3-3.1 2.9-3.1zm-1.6 2.3c-.05 0 2.7 0 2.7 0c0 0 .02-.21 0-.2c0-1.1-.4-1.6-1.2-1.6c-.7 0-1.4.5-1.5 1.8zm5.2 2c-.03-.02.6 0 .6 0c0 0 .23 1.31.2 1.3c.3.1.6.1.9.1c.8 0 1.4-.3 1.4-1.1c0-.5-.4-.8-1.1-1c0 0-.7-.2-.7-.2c-1-.3-1.5-.8-1.5-1.7c0-1.1 1-1.8 2.2-1.8c.8 0 1.6.2 1.9.4c0 0 0 .2 0 .2c0 .4-.1 1-.2 1.4c.01-.02-.7 0-.7 0c0 0-.13-1.3-.1-1.3c-.3-.1-.6-.1-.9-.1c-.7 0-1.2.3-1.2.9c0 .6.4.9.9 1.1c0 0 .8.2.8.2c1 .3 1.6.7 1.6 1.7c0 1.1-1 1.9-2.4 1.9c-.8 0-1.6-.2-1.9-.4c0 0 0-.2 0-.2c0-.4 0-1 .2-1.4zm5.8-4.3c0 0 0-1.2 0-1.2c.3 0 .8-.1 1.1-.1c-.02.01 0 1.4 0 1.4l1.5 0l0 .6l-1.5 0c0 0-.07 3.89-.1 3.9c0 .7.3.9.8.9c.3 0 .5-.1.8-.4c0 0 .3.2.3.2c-.4.7-1 1-1.6 1c-.9 0-1.4-.5-1.4-1.6c-.01.04 0-4 0-4l-.9 0c0 0 0-.38 0-.4c.2 0 .5-.2 1-.3zm4.7 4.5c.6 0 .9.4.9 1.2c0 .7-.4 1.9-1.5 2.3c0 0-.3-.4-.3-.4c.5-.4.9-.9.9-1.6c-.1.1-.1 0-.1 0c-.4 0-.7-.3-.7-.7c0-.5.2-.8.8-.8zm4.7-3.9c0 0-.05-.38 0-.4c.4-.1 1.1-.2 2-.2c0 0 0 4.3 0 4.3c0 .8.3 1.2 1.1 1.2c.7 0 1.3-.3 1.6-.6c.04-.04 0-4.1 0-4.1l-.8-.2c0 0-.05-.38 0-.4c.4-.1 1.1-.2 2-.2c-.02-.04 0 5.4 0 5.4l.9.2c0 0-.04.39 0 .4c-.5.1-1.2.3-2.1.3c0 0 0-1 0-1c-.4.6-1.1 1-2 1c-1.1 0-1.9-.6-1.9-1.8c.04.04 0-3.7 0-3.7l-.8-.2zm8.3-.6c0 0 .1-1.2.1-1.2c.3 0 .7-.1 1.1-.1c-.03.01 0 1.4 0 1.4l1.5 0l0 .6l-1.6 0c0 0 .02 3.89 0 3.9c0 .7.3.9.7.9c.4 0 .6-.1.9-.4c0 0 .3.2.3.2c-.4.7-1 1-1.6 1c-.9 0-1.5-.5-1.4-1.6c-.03.04 0-4 0-4l-.9 0c0 0-.01-.38 0-.4c.2 0 .5-.2.9-.3zm6.1.6c0 0 .01-.38 0-.4c.5-.1 1.2-.2 2-.2c0 0 0 4.3 0 4.3c0 .8.3 1.2 1.2 1.2c.7 0 1.2-.3 1.6-.6c-.01-.04 0-4.1 0-4.1l-.9-.2c0 0 .01-.38 0-.4c.5-.1 1.2-.2 2-.2c.04-.04 0 5.4 0 5.4l.9.2c0 0 .02.39 0 .4c-.4.1-1.2.3-2 .3c0 0 0-1 0-1c-.4.6-1.2 1-2.1 1c-1.1 0-1.8-.6-1.8-1.8c-.01.04 0-3.7 0-3.7l-.9-.2zm8.6 4.9c-.01.02 0-4.7 0-4.7l-.9-.2c0 0 0-.38 0-.4c.5-.1 1.2-.2 2-.2c0 0 0 1 0 1c.4-.7 1.2-1.1 2.1-1.1c1.1 0 1.8.6 1.8 1.8c0 0 0 3.8 0 3.8c.4 0 .7.1 1 .2c-.03.03 0 .4 0 .4l-3 0c0 0-.05-.37 0-.4c.2-.1.5-.2.9-.2c0 0 0-3.6 0-3.6c0-.7-.4-1.1-1.3-1.1c-.6 0-1.1.2-1.5.6c0 0 0 4.1 0 4.1c.4 0 .7.1 1 .2c-.03.03 0 .4 0 .4l-3 0c0 0-.05-.37 0-.4c.2-.1.5-.2.9-.2zm7.5-5.5c0 0 .1-1.2.1-1.2c.2 0 .7-.1 1-.1c.02.01 0 1.4 0 1.4l1.6 0l0 .6l-1.6 0c0 0-.03 3.89 0 3.9c0 .7.2.9.7.9c.3 0 .6-.1.9-.4c0 0 .2.2.2.2c-.4.7-.9 1-1.6 1c-.9 0-1.4-.5-1.4-1.6c.02.04.1-4 .1-4l-1 0c0 0 .04-.38 0-.4c.2 0 .6-.2 1-.3zm3.9 5.4c0-.6.3-.9.9-.9c.5 0 .8.3.8.9c0 .5-.3.9-.8.9c-.6 0-.9-.4-.9-.9z" stroke="none" fill="#404040"/></g><g id="Polygon13121"><path d="m.8 124c.03-.02.7 0 .7 0c0 0 .19 1.31.2 1.3c.3.1.6.1.8.1c.8 0 1.5-.3 1.5-1.1c0-.5-.4-.8-1.1-1c0 0-.8-.2-.8-.2c-.9-.3-1.4-.8-1.4-1.7c0-1.1 1-1.8 2.2-1.8c.8 0 1.6.2 1.9.4c0 0 0 .2 0 .2c0 .4-.1 1-.2 1.4c-.02-.02-.7 0-.7 0c0 0-.17-1.3-.2-1.3c-.2-.1-.5-.1-.8-.1c-.7 0-1.2.3-1.2.9c0 .6.3.9.9 1.1c0 0 .7.2.7.2c1.1.3 1.7.7 1.7 1.7c0 1.1-1 1.9-2.5 1.9c-.7 0-1.6-.2-1.9-.4c0 0 0-.2 0-.2c0-.4.1-1 .2-1.4zm6.1-6.5c0-.2 0-.4 0-.5c.2 0 .4 0 .6 0c.2 0 .4 0 .6 0c0 .1 0 .3 0 .5c0 .4 0 .7-.1.9c-.1.1-.4.1-.5.1c-.2 0-.4 0-.5-.1c-.1-.2-.1-.5-.1-.9zm0 7.7c-.04.02 0-4.7 0-4.7l-.9-.2c0 0-.02-.38 0-.4c.4-.1 1.2-.2 2-.2c0 0 0 5.5 0 5.5c.4 0 .7.1.9.2c.04.03 0 .4 0 .4l-3 0c0 0 .03-.37 0-.4c.3-.1.6-.2 1-.2zm3.7 0c.01.02 0-4.7 0-4.7l-.9-.2c0 0 .02-.38 0-.4c.5-.1 1.2-.2 2.1-.2c0 0 0 1 0 1c.3-.7 1.1-1.1 2-1.1c1.1 0 1.9.6 1.9 1.8c0 0 0 3.8 0 3.8c.3 0 .6.1.9.2c-.01.03 0 .4 0 .4l-3 0c0 0-.03-.37 0-.4c.2-.1.5-.2.9-.2c0 0 0-3.6 0-3.6c0-.7-.4-1.1-1.2-1.1c-.6 0-1.2.2-1.5.6c0 0 0 4.1 0 4.1c.3 0 .6.1.9.2c-.01.03 0 .4 0 .4l-3 0c0 0-.03-.37 0-.4c.2-.1.5-.2.9-.2zm10.3 0c0 .02 0-4.7 0-4.7l-.9-.2c0 0 .02-.38 0-.4c.5-.1 1.2-.2 2-.2c0 0 0 .9 0 .9c.4-.6 1.2-.9 1.8-.9c.3 0 .6 0 .7.1c0 .6-.1 1.4-.2 1.8c.04-.02-.6 0-.6 0l-.2-1.2c0 0-.07.04-.1 0c-.5 0-1.1.3-1.4.7c0 0 0 4.1 0 4.1c.5 0 .9.1 1.2.2c.04.03 0 .4 0 .4l-3.2 0c0 0-.03-.37 0-.4c.2-.1.5-.2.9-.2zm7.1-5.5c1.4 0 2.3.7 2.3 2.2c0 .3 0 .4-.1.7c.02-.03-3.9 0-3.9 0c0 0 .02.08 0 .1c0 1.7.9 2.4 2 2.4c.7 0 1.2-.3 1.6-.8c0 0 .3.2.3.2c-.4.9-1.2 1.5-2.3 1.5c-1.5 0-2.8-1-2.8-3.2c0-2 1.3-3.1 2.9-3.1zm-1.6 2.3c-.04 0 2.7 0 2.7 0c0 0 .03-.21 0-.2c0-1.1-.4-1.6-1.2-1.6c-.7 0-1.4.5-1.5 1.8zm5.8 2.2c.6 0 .9.4.9 1.2c0 .7-.4 1.9-1.5 2.3c0 0-.3-.4-.3-.4c.6-.4.9-.9.9-1.6c0 .1-.1 0-.1 0c-.4 0-.7-.3-.7-.7c0-.5.3-.8.8-.8zm5.1-.2c0-.02.7 0 .7 0c0 0 .15 1.31.2 1.3c.2.1.5.1.8.1c.8 0 1.4-.3 1.4-1.1c0-.5-.4-.8-1.1-1c0 0-.7-.2-.7-.2c-.9-.3-1.4-.8-1.4-1.7c0-1.1.9-1.8 2.2-1.8c.8 0 1.5.2 1.8.4c0 0 0 .2 0 .2c0 .4 0 1-.2 1.4c.04-.02-.6 0-.6 0c0 0-.2-1.3-.2-1.3c-.3-.1-.6-.1-.8-.1c-.8 0-1.2.3-1.2.9c0 .6.3.9.9 1.1c0 0 .7.2.7.2c1.1.3 1.7.7 1.7 1.7c0 1.1-1 1.9-2.5 1.9c-.8 0-1.6-.2-1.9-.4c0 0 0-.2 0-.2c0-.4.1-1 .2-1.4zm8.7-1.6c0 0 0-1 0-1c0-.8-.4-1.1-1.2-1.1c-.3 0-.6 0-.9.1c.04-.04-.2 1.2-.2 1.2c0 0-.66.04-.7 0c0-.2-.1-.6-.1-.9c0-.2 0-.3.1-.4c.5-.5 1.4-.6 2.3-.6c1.2 0 1.8.5 1.8 1.5c0 .7 0 2.7 0 3.9c-.03.03.9.2.9.2c0 0-.04.39 0 .4c-.5.1-1.2.3-2 .3c0 0 0-1.1 0-1.1c-.4.6-1 1.1-1.7 1.1c-1.1 0-1.8-.6-1.8-1.6c0-1.5 1.4-1.8 3.5-2zm0 2.2c0 0 0-1.7 0-1.7c-1.6.1-2.3.4-2.3 1.3c0 .7.4 1 1 1c.5 0 1-.2 1.3-.6zm3.7.6c.02.02 0-4.7 0-4.7l-.9-.2c0 0 .04-.38 0-.4c.5-.1 1.2-.2 2.1-.2c0 0 0 1 0 1c.3-.7 1.1-1.1 2-1.1c1.1 0 1.9.6 1.9 1.8c0 0 0 3.8 0 3.8c.3 0 .6.1.9.2c0 .03 0 .4 0 .4l-3 0c0 0-.01-.37 0-.4c.2-.1.6-.2.9-.2c0 0 0-3.6 0-3.6c0-.7-.4-1.1-1.2-1.1c-.6 0-1.2.2-1.5.6c0 0 0 4.1 0 4.1c.3 0 .6.1.9.2c0 .03 0 .4 0 .4l-3 0c0 0-.01-.37 0-.4c.2-.1.6-.2.9-.2zm9.8-5.6c.6 0 1 .2 1.3.5c.03-.02 0-2.5 0-2.5l-1-.2c0 0-.01-.39 0-.4c.5-.1 1.3-.3 2.2-.3c-.03.05 0 8.4 0 8.4l.9.2c0 0-.05.39 0 .4c-.5.1-1.2.3-2.1.3c0 0 0-1.2 0-1.2c-.3.7-1 1.2-1.8 1.2c-1.4 0-2.4-1.1-2.4-3.1c0-2 1.2-3.3 2.9-3.3zm1.3 4.9c0 0 0-4.1 0-4.1c-.2-.1-.5-.1-1-.1c-1.2 0-2 .9-2 2.5c0 1.6.6 2.4 1.6 2.4c.6 0 1.1-.3 1.4-.7zm3.8-7c0-.2 0-.4.1-.5c.2 0 .3 0 .5 0c.3 0 .4 0 .6 0c0 .1.1.3.1.5c0 .4-.1.7-.1.9c-.2.1-.4.1-.6.1c-.1 0-.3 0-.5-.1c0-.2-.1-.5-.1-.9zm0 7.7c.02.02 0-4.7 0-4.7l-.9-.2c0 0 .04-.38 0-.4c.5-.1 1.2-.2 2.1-.2c0 0 0 5.5 0 5.5c.3 0 .6.1.9.2c0 .03 0 .4 0 .4l-3 0c0 0-.01-.37 0-.4c.2-.1.6-.2.9-.2zm5.8-1.2c.05-.02.7 0 .7 0c0 0 .2 1.31.2 1.3c.3.1.6.1.9.1c.7 0 1.4-.3 1.4-1.1c0-.5-.4-.8-1.1-1c0 0-.8-.2-.8-.2c-.9-.3-1.4-.8-1.4-1.7c0-1.1 1-1.8 2.2-1.8c.8 0 1.6.2 1.9.4c0 0 0 .2 0 .2c0 .4-.1 1-.2 1.4c-.01-.02-.7 0-.7 0c0 0-.15-1.3-.2-1.3c-.2-.1-.5-.1-.8-.1c-.7 0-1.2.3-1.2.9c0 .6.3.9.9 1.1c0 0 .7.2.7.2c1.1.3 1.7.7 1.7 1.7c0 1.1-1 1.9-2.4 1.9c-.8 0-1.6-.2-2-.4c0 0 0-.2 0-.2c.1-.4.1-1 .2-1.4zm8.1-4.3c1.5 0 2.3.7 2.3 2.2c0 .3 0 .4-.1.7c.04-.03-3.9 0-3.9 0c0 0 .04.08 0 .1c0 1.7.9 2.4 2 2.4c.7 0 1.2-.3 1.6-.8c0 0 .3.2.3.2c-.4.9-1.2 1.5-2.2 1.5c-1.6 0-2.9-1-2.9-3.2c0-2 1.3-3.1 2.9-3.1zm-1.6 2.3c-.02 0 2.8 0 2.8 0c0 0-.05-.21 0-.2c0-1.1-.5-1.6-1.2-1.6c-.8 0-1.5.5-1.6 1.8zm7.9-2.3c.6 0 1.1.2 1.4.5c.1-.3.4-.6.6-.7c.03-.05.5 0 .5 0c0 0-.01 8.17 0 8.2c.4 0 .7.1.9.2c.03-.02 0 .4 0 .4l-3.1 0c0 0-.04-.42 0-.4c.3-.1.7-.2 1.1-.2c0 0 0-2.9 0-2.9c-.4.7-1.1 1.2-1.9 1.2c-1.4 0-2.4-1.1-2.4-3.1c0-2 1.2-3.2 2.9-3.2zm1.4 4.7c0 0 0-3.9 0-3.9c-.3-.1-.6-.2-1-.2c-1.3 0-2.1.9-2.1 2.5c0 1.6.6 2.3 1.6 2.3c.6 0 1.1-.2 1.5-.7zm2.4-4.1c0 0 .05-.38 0-.4c.5-.1 1.2-.2 2.1-.2c0 0 0 4.3 0 4.3c0 .8.3 1.2 1.1 1.2c.7 0 1.3-.3 1.6-.6c.03-.04 0-4.1 0-4.1l-.9-.2c0 0 .05-.38 0-.4c.5-.1 1.2-.2 2.1-.2c-.03-.04 0 5.4 0 5.4l.9.2c0 0-.04.39 0 .4c-.5.1-1.2.3-2.1.3c0 0 0-1 0-1c-.4.6-1.1 1-2 1c-1.1 0-1.9-.6-1.9-1.8c.03.04 0-3.7 0-3.7l-.9-.2zm8.6-2.8c0-.2.1-.4.1-.5c.2 0 .3 0 .6 0c.2 0 .3 0 .5 0c0 .1.1.3.1.5c0 .4-.1.7-.1.9c-.2.1-.4.1-.5.1c-.2 0-.4 0-.6-.1c0-.2-.1-.5-.1-.9zm0 7.7c.03.02 0-4.7 0-4.7l-.9-.2c0 0 .04-.38 0-.4c.5-.1 1.2-.2 2.1-.2c0 0 0 5.5 0 5.5c.3 0 .6.1.9.2c.01.03 0 .4 0 .4l-3 0c0 0-.01-.37 0-.4c.3-.1.6-.2.9-.2zm6.3-2.8c0 0 0-1 0-1c0-.8-.4-1.1-1.2-1.1c-.2 0-.5 0-.8.1c-.02-.04-.2 1.2-.2 1.2c0 0-.72.04-.7 0c-.1-.2-.2-.6-.2-.9c0-.2.1-.3.1-.4c.6-.5 1.4-.6 2.3-.6c1.2 0 1.9.5 1.9 1.5c0 .7-.1 2.7-.1 3.9c.01.03.9.2.9.2c0 0-.01.39 0 .4c-.5.1-1.2.3-2 .3c0 0 0-1.1 0-1.1c-.3.6-1 1.1-1.7 1.1c-1.1 0-1.7-.6-1.7-1.6c0-1.5 1.4-1.8 3.4-2zm0 2.2c0 0 0-1.7 0-1.7c-1.5.1-2.3.4-2.3 1.3c0 .7.4 1 1.1 1c.5 0 .9-.2 1.2-.6zm5.7-4.9c1.4 0 2.3.7 2.3 2.2c0 .3 0 .4-.1.7c.02-.03-3.9 0-3.9 0c0 0 .02.08 0 .1c0 1.7.9 2.4 2 2.4c.7 0 1.2-.3 1.6-.8c0 0 .3.2.3.2c-.4.9-1.2 1.5-2.3 1.5c-1.5 0-2.8-1-2.8-3.2c0-2 1.3-3.1 2.9-3.1zm-1.6 2.3c-.04 0 2.7 0 2.7 0c0 0 .03-.21 0-.2c0-1.1-.4-1.6-1.2-1.6c-.7 0-1.4.5-1.5 1.8zm8.4 3.2c0 .02 0-4.7 0-4.7l-.9-.2c0 0 .01-.38 0-.4c.5-.1 1.2-.2 2-.2c0 0 0 .9 0 .9c.4-.6 1.1-.9 1.8-.9c.3 0 .6 0 .7.1c0 .6-.1 1.4-.2 1.8c.03-.02-.6 0-.6 0l-.2-1.2c0 0-.08.04-.1 0c-.5 0-1.1.3-1.4.7c0 0 0 4.1 0 4.1c.5 0 .9.1 1.2.2c.04.03 0 .4 0 .4l-3.2 0c0 0-.04-.37 0-.4c.2-.1.5-.2.9-.2zm4.3-4.9c0 0-.03-.38 0-.4c.4-.1 1.2-.2 2-.2c0 0 0 4.3 0 4.3c0 .8.3 1.2 1.1 1.2c.7 0 1.3-.3 1.7-.6c-.04-.04 0-4.1 0-4.1l-.9-.2c0 0-.03-.38 0-.4c.4-.1 1.2-.2 2-.2c0-.04 0 5.4 0 5.4l.9.2c0 0-.01.39 0 .4c-.5.1-1.2.3-2 .3c0 0 0-1 0-1c-.4.6-1.2 1-2.1 1c-1.1 0-1.8-.6-1.8-1.8c-.04.04 0-3.7 0-3.7l-.9-.2zm8.5 7.4c0-.03 0-7.2 0-7.2l-.9-.2c0 0 .02-.38 0-.4c.5-.1 1.2-.2 2-.2c0 0 0 1.1 0 1.1c.4-.7 1.2-1.2 2-1.2c1.4 0 2.3 1 2.3 3c0 2.1-1.2 3.4-2.9 3.4c-.5 0-1-.2-1.4-.4c0 0 0 2.1 0 2.1c.5 0 .8.1 1.1.2c.04-.02 0 .4 0 .4l-3.1 0c0 0-.03-.42 0-.4c.2-.1.5-.2.9-.2zm1.1-6.6c0 0 0 4.1 0 4.1c.3.1.6.1 1 .1c1.3 0 2.1-.9 2.1-2.6c0-1.6-.6-2.3-1.6-2.3c-.6 0-1.1.3-1.5.7zm6.1-1.4c0 0 0-1.2 0-1.2c.3 0 .7-.1 1.1-.1c-.03.01 0 1.4 0 1.4l1.5 0l0 .6l-1.6 0c0 0 .02 3.89 0 3.9c0 .7.3.9.7.9c.4 0 .6-.1.9-.4c0 0 .3.2.3.2c-.4.7-1 1-1.6 1c-.9 0-1.5-.5-1.4-1.6c-.03.04 0-4 0-4l-.9 0c0 0-.01-.38 0-.4c.2 0 .5-.2 1-.3zm7.1 2.7c0 0 0-1 0-1c0-.8-.4-1.1-1.2-1.1c-.3 0-.5 0-.8.1c-.04-.04-.3 1.2-.3 1.2c0 0-.64.04-.6 0c-.1-.2-.2-.6-.2-.9c0-.2 0-.3.1-.4c.6-.5 1.4-.6 2.3-.6c1.2 0 1.8.5 1.8 1.5c0 .7 0 2.7 0 3.9c-.01.03.9.2.9.2c0 0-.02.39 0 .4c-.5.1-1.2.3-2 .3c0 0 0-1.1 0-1.1c-.3.6-1 1.1-1.7 1.1c-1.1 0-1.7-.6-1.7-1.6c0-1.5 1.3-1.8 3.4-2zm0 2.2c0 0 0-1.7 0-1.7c-1.5.1-2.3.4-2.3 1.3c0 .7.4 1 1.1 1c.5 0 .9-.2 1.2-.6zm3.4-4.9c0 0 0-1.2 0-1.2c.3 0 .7-.1 1.1-.1c-.03.01 0 1.4 0 1.4l1.5 0l0 .6l-1.6 0c0 0 .02 3.89 0 3.9c0 .7.3.9.8.9c.3 0 .5-.1.8-.4c0 0 .3.2.3.2c-.4.7-1 1-1.6 1c-.9 0-1.4-.5-1.4-1.6c-.02.04 0-4 0-4l-.9 0c0 0-.01-.38 0-.4c.2 0 .5-.2 1-.3zm3.3.6c0 0 .01-.38 0-.4c.5-.1 1.2-.2 2-.2c0 0 0 4.3 0 4.3c0 .8.4 1.2 1.2 1.2c.7 0 1.2-.3 1.6-.6c-.01-.04 0-4.1 0-4.1l-.9-.2c0 0 .01-.38 0-.4c.5-.1 1.2-.2 2-.2c.04-.04 0 5.4 0 5.4l.9.2c0 0 .02.39 0 .4c-.4.1-1.2.3-2 .3c0 0 0-1 0-1c-.4.6-1.2 1-2.1 1c-1.1 0-1.8-.6-1.8-1.8c-.01.04 0-3.7 0-3.7l-.9-.2zm8.6 4.9c-.01.02 0-4.7 0-4.7l-.9-.2c0 0 .01-.38 0-.4c.5-.1 1.2-.2 2-.2c0 0 0 .9 0 .9c.4-.6 1.1-.9 1.8-.9c.3 0 .5 0 .7.1c0 .6-.1 1.4-.2 1.8c.02-.02-.7 0-.7 0l-.1-1.2c0 0-.09.04-.1 0c-.5 0-1.1.3-1.4.7c0 0 0 4.1 0 4.1c.5 0 .9.1 1.2.2c.03.03 0 .4 0 .4l-3.2 0c0 0-.05-.37 0-.4c.2-.1.5-.2.9-.2zm4.8-1c.6 0 .9.4.9 1.2c0 .7-.4 1.9-1.5 2.3c0 0-.3-.4-.3-.4c.6-.4.9-.9.9-1.6c0 .1-.1 0-.1 0c-.4 0-.7-.3-.7-.7c0-.5.3-.8.8-.8zm5.4-4.5c0 0 .1-1.2.1-1.2c.3 0 .7-.1 1-.1c.04.01 0 1.4 0 1.4l1.6 0l0 .6l-1.6 0c0 0-.01 3.89 0 3.9c0 .7.2.9.7.9c.3 0 .6-.1.9-.4c0 0 .3.2.3.2c-.4.7-1 1-1.7 1c-.9 0-1.4-.5-1.4-1.6c.04.04.1-4 .1-4l-.9 0c0 0-.04-.38 0-.4c.1 0 .5-.2.9-.3zm6.4 0c1.5 0 2.3.7 2.3 2.2c0 .3 0 .4 0 .7c-.02-.03-3.9 0-3.9 0c0 0-.02.08 0 .1c0 1.7.9 2.4 2 2.4c.6 0 1.2-.3 1.6-.8c0 0 .2.2.2.2c-.4.9-1.1 1.5-2.2 1.5c-1.6 0-2.8-1-2.8-3.2c0-2 1.3-3.1 2.8-3.1zm-1.6 2.3c.02 0 2.8 0 2.8 0c0 0-.01-.21 0-.2c0-1.1-.5-1.6-1.2-1.6c-.8 0-1.4.5-1.6 1.8z" stroke="none" fill="#404040"/></g><g id="Polygon13120"><path d="m8.9 108.7c0 0 0-3.6 0-3.6c0-.7-.3-1.1-1.1-1.1c-.6 0-1.1.2-1.5.6c0 0 0 4.1 0 4.1c.4 0 .7.1.9.2c.03.03 0 .4 0 .4l-3 0c0 0 .01-.37 0-.4c.3-.1.6-.2.9-.2c0 0 0-3.6 0-3.6c0-.7-.3-1.1-1.1-1.1c-.6 0-1.1.2-1.5.6c0 0 0 4.1 0 4.1c.4 0 .7.1.9.2c.03.03 0 .4 0 .4l-3 0c0 0 .02-.37 0-.4c.3-.1.6-.2 1-.2c-.05.02 0-4.7 0-4.7l-.9-.2c0 0-.03-.38 0-.4c.4-.1 1.2-.2 2-.2c0 0 0 1 0 1c.4-.7 1.2-1.1 2.1-1.1c.8 0 1.4.4 1.6 1.1c.4-.6 1.2-1.1 2.2-1.1c1.1 0 1.7.6 1.7 1.8c0 0 0 3.8 0 3.8c.4 0 .7.1.9.2c.02.03 0 .4 0 .4l-3 0c0 0 .01-.37 0-.4c.3-.1.6-.2.9-.2zm5.8-5.5c1.8 0 2.7 1 2.7 3.1c0 2-1.2 3.2-2.9 3.2c-1.8 0-2.7-1.1-2.7-3.2c0-2 1.2-3.1 2.9-3.1zm1.5 3.2c0-1.8-.5-2.7-1.6-2.7c-.9 0-1.5.7-1.5 2.5c0 1.8.5 2.7 1.5 2.7c1 0 1.6-.7 1.6-2.5zm5.4-3.3c.6 0 1 .2 1.3.5c.01-.02 0-2.5 0-2.5l-1-.2c0 0-.03-.39 0-.4c.4-.1 1.3-.3 2.1-.3c.05.05 0 8.4 0 8.4l.9.2c0 0 .03.39 0 .4c-.4.1-1.2.3-2 .3c0 0 0-1.2 0-1.2c-.3.7-1 1.2-1.8 1.2c-1.5 0-2.5-1.1-2.5-3.1c0-2 1.3-3.3 3-3.3zm1.3 4.9c0 0 0-4.1 0-4.1c-.3-.1-.6-.1-1-.1c-1.2 0-2.1.9-2.1 2.5c0 1.6.7 2.4 1.7 2.4c.6 0 1.1-.3 1.4-.7zm3.8-7c0-.2 0-.4.1-.5c.1 0 .3 0 .5 0c.2 0 .4 0 .6 0c0 .1 0 .3 0 .5c0 .4 0 .7-.1.9c-.1.1-.3.1-.5.1c-.1 0-.3 0-.5-.1c0-.2-.1-.5-.1-.9zm0 7.7c0 .02 0-4.7 0-4.7l-.9-.2c0 0 .02-.38 0-.4c.5-.1 1.2-.2 2-.2c0 0 0 5.5 0 5.5c.4 0 .7.1 1 .2c-.02.03 0 .4 0 .4l-3 0c0 0-.03-.37 0-.4c.2-.1.5-.2.9-.2zm3.6-5.5c0 0 0-1.2 0-1.2c.3 0 .8-.1 1.1-.1c-.02.01 0 1.4 0 1.4l1.5 0l0 .6l-1.5 0c0 0-.07 3.89-.1 3.9c0 .7.3.9.8.9c.3 0 .5-.1.8-.4c0 0 .3.2.3.2c-.4.7-1 1-1.6 1c-.9 0-1.4-.5-1.4-1.6c-.01.04 0-4 0-4l-.9 0c0 0 0-.38 0-.4c.2 0 .5-.2 1-.3zm7.1 2.7c0 0 0-1 0-1c0-.8-.4-1.1-1.2-1.1c-.2 0-.5 0-.8.1c-.03-.04-.2 1.2-.2 1.2c0 0-.72.04-.7 0c-.1-.2-.2-.6-.2-.9c0-.2.1-.3.1-.4c.6-.5 1.4-.6 2.3-.6c1.2 0 1.9.5 1.9 1.5c0 .7-.1 2.7-.1 3.9c.01.03.9.2.9.2c0 0-.01.39 0 .4c-.5.1-1.2.3-2 .3c0 0 0-1.1 0-1.1c-.3.6-1 1.1-1.7 1.1c-1.1 0-1.7-.6-1.7-1.6c0-1.5 1.3-1.8 3.4-2zm0 2.2c0 0 0-1.7 0-1.7c-1.5.1-2.3.4-2.3 1.3c0 .7.4 1 1.1 1c.5 0 .9-.2 1.2-.6zm3.4-4.9c0 0 0-1.2 0-1.2c.3 0 .8-.1 1.1-.1c-.01.01 0 1.4 0 1.4l1.5 0l0 .6l-1.5 0c0 0-.07 3.89-.1 3.9c0 .7.3.9.8.9c.3 0 .5-.1.8-.4c0 0 .3.2.3.2c-.4.7-1 1-1.6 1c-.9 0-1.4-.5-1.4-1.6c-.01.04 0-4 0-4l-.9 0c0 0 .01-.38 0-.4c.2 0 .5-.2 1-.3zm4.4-2.2c0-.2 0-.4 0-.5c.2 0 .4 0 .6 0c.2 0 .4 0 .6 0c0 .1 0 .3 0 .5c0 .4 0 .7-.1.9c-.2.1-.4.1-.5.1c-.2 0-.4 0-.5-.1c-.1-.2-.1-.5-.1-.9zm0 7.7c-.04.02 0-4.7 0-4.7l-.9-.2c0 0-.02-.38 0-.4c.4-.1 1.2-.2 2-.2c0 0 0 5.5 0 5.5c.4 0 .7.1.9.2c.04.03 0 .4 0 .4l-3 0c0 0 .03-.37 0-.4c.3-.1.6-.2 1-.2zm6.3-2.8c0 0 0-1 0-1c0-.8-.5-1.1-1.2-1.1c-.3 0-.6 0-.9.1c.01-.04-.2 1.2-.2 1.2c0 0-.68.04-.7 0c-.1-.2-.1-.6-.1-.9c0-.2 0-.3 0-.4c.6-.5 1.5-.6 2.3-.6c1.3 0 1.9.5 1.9 1.5c0 .7-.1 2.7-.1 3.9c.05.03.9.2.9.2c0 0 .03.39 0 .4c-.4.1-1.1.3-1.9.3c0 0 0-1.1 0-1.1c-.4.6-1 1.1-1.8 1.1c-1 0-1.7-.6-1.7-1.6c0-1.5 1.4-1.8 3.5-2zm0 2.2c0 0 0-1.7 0-1.7c-1.6.1-2.3.4-2.3 1.3c0 .7.3 1 1 1c.5 0 1-.2 1.3-.6zm5.6-4.9c1.5 0 2.3.7 2.3 2.2c0 .3 0 .4 0 .7c-.04-.03-3.9 0-3.9 0c0 0-.04.08 0 .1c0 1.7.8 2.4 1.9 2.4c.7 0 1.2-.3 1.6-.8c0 0 .3.2.3.2c-.4.9-1.1 1.5-2.2 1.5c-1.6 0-2.8-1-2.8-3.2c0-2 1.3-3.1 2.8-3.1zm-1.6 2.3c0 0 2.8 0 2.8 0c0 0-.03-.21 0-.2c0-1.1-.5-1.6-1.2-1.6c-.8 0-1.4.5-1.6 1.8zm8.4 3.2c.03.02 0-4.7 0-4.7l-.9-.2c0 0 .05-.38 0-.4c.5-.1 1.2-.2 2.1-.2c0 0 0 1 0 1c.4-.7 1.1-1.1 2.1-1.1c1 0 1.8.6 1.8 1.8c0 0 0 3.8 0 3.8c.3 0 .7.1.9.2c.01.03 0 .4 0 .4l-3 0c0 0 0-.37 0-.4c.3-.1.6-.2.9-.2c0 0 0-3.6 0-3.6c0-.7-.4-1.1-1.2-1.1c-.6 0-1.2.2-1.5.6c0 0 0 4.1 0 4.1c.3 0 .7.1.9.2c.01.03 0 .4 0 .4l-3 0c0 0 0-.37 0-.4c.3-.1.6-.2.9-.2zm9.7-5.5c1.8 0 2.7 1 2.7 3.1c0 2-1.2 3.2-2.9 3.2c-1.8 0-2.7-1.1-2.7-3.2c0-2 1.2-3.1 2.9-3.1zm1.5 3.2c0-1.8-.6-2.7-1.6-2.7c-.9 0-1.5.7-1.5 2.5c0 1.8.5 2.7 1.5 2.7c1 0 1.6-.7 1.6-2.5zm2.5 1.1c-.02-.02.7 0 .7 0c0 0 .14 1.31.1 1.3c.3.1.6.1.9.1c.8 0 1.4-.3 1.4-1.1c0-.5-.4-.8-1.1-1c0 0-.7-.2-.7-.2c-1-.3-1.4-.8-1.4-1.7c0-1.1.9-1.8 2.2-1.8c.7 0 1.5.2 1.8.4c0 0 0 .2 0 .2c0 .4 0 1-.2 1.4c.03-.02-.6 0-.6 0c0 0-.22-1.3-.2-1.3c-.3-.1-.6-.1-.8-.1c-.8 0-1.3.3-1.3.9c0 .6.4.9 1 1.1c0 0 .7.2.7.2c1 .3 1.6.7 1.6 1.7c0 1.1-.9 1.9-2.4 1.9c-.8 0-1.6-.2-1.9-.4c0 0 0-.2 0-.2c0-.4.1-1 .2-1.4zm8.7-1.6c0 0 0-1 0-1c0-.8-.4-1.1-1.2-1.1c-.3 0-.6 0-.9.1c.03-.04-.2 1.2-.2 1.2c0 0-.67.04-.7 0c0-.2-.1-.6-.1-.9c0-.2 0-.3 0-.4c.6-.5 1.5-.6 2.3-.6c1.3 0 1.9.5 1.9 1.5c0 .7 0 2.7 0 3.9c-.04.03.8.2.8.2c0 0 .04.39 0 .4c-.4.1-1.1.3-1.9.3c0 0 0-1.1 0-1.1c-.4.6-1 1.1-1.7 1.1c-1.1 0-1.8-.6-1.8-1.6c0-1.5 1.4-1.8 3.5-2zm0 2.2c0 0 0-1.7 0-1.7c-1.6.1-2.3.4-2.3 1.3c0 .7.4 1 1 1c.5 0 1-.2 1.3-.6zm11.3.6c0 0 0-3.6 0-3.6c0-.7-.4-1.1-1.1-1.1c-.6 0-1.2.2-1.5.6c0 0 0 4.1 0 4.1c.3 0 .6.1.9.2c-.01.03 0 .4 0 .4l-3 0c0 0-.03-.37 0-.4c.2-.1.5-.2.9-.2c0 0 0-3.6 0-3.6c0-.7-.4-1.1-1.1-1.1c-.6 0-1.2.2-1.5.6c0 0 0 4.1 0 4.1c.3 0 .6.1.9.2c-.01.03 0 .4 0 .4l-3 0c0 0-.03-.37 0-.4c.2-.1.5-.2.9-.2c.01.02 0-4.7 0-4.7l-.9-.2c0 0 .03-.38 0-.4c.5-.1 1.2-.2 2.1-.2c0 0 0 1 0 1c.3-.7 1.1-1.1 2-1.1c.9 0 1.4.4 1.6 1.1c.5-.6 1.2-1.1 2.2-1.1c1.1 0 1.7.6 1.7 1.8c0 0 0 3.8 0 3.8c.4 0 .7.1 1 .2c-.02.03 0 .4 0 .4l-3 0c0 0-.03-.37 0-.4c.2-.1.5-.2.9-.2zm6.3 0c-.01.02 0-7.6 0-7.6l-.9-.2c0 0 .01-.39 0-.4c.5-.1 1.2-.3 2-.3c0 0 0 4 0 4c.4-.7 1.2-1.1 2.1-1.1c1.1 0 1.8.6 1.8 1.8c0 0 0 3.8 0 3.8c.4 0 .7.1 1 .2c-.03.03 0 .4 0 .4l-3 0c0 0-.04-.37 0-.4c.2-.1.5-.2.9-.2c0 0 0-3.6 0-3.6c0-.7-.4-1.1-1.3-1.1c-.6 0-1.1.2-1.5.6c0 0 0 4.1 0 4.1c.4 0 .7.1 1 .2c-.03.03 0 .4 0 .4l-3 0c0 0-.04-.37 0-.4c.2-.1.5-.2.9-.2zm7.7-7.7c0-.2 0-.4 0-.5c.2 0 .4 0 .6 0c.2 0 .4 0 .6 0c0 .1 0 .3 0 .5c0 .4 0 .7-.1.9c-.1.1-.3.1-.5.1c-.1 0-.3 0-.5-.1c-.1-.2-.1-.5-.1-.9zm0 7.7c-.01.02 0-4.7 0-4.7l-.9-.2c0 0 .01-.38 0-.4c.5-.1 1.2-.2 2-.2c0 0 0 5.5 0 5.5c.4 0 .7.1 1 .2c-.03.03 0 .4 0 .4l-3 0c0 0-.05-.37 0-.4c.2-.1.5-.2.9-.2zm3.6-5.5c0 0 0-1.2 0-1.2c.3 0 .7-.1 1.1-.1c-.03.01 0 1.4 0 1.4l1.5 0l0 .6l-1.6 0c0 0 .02 3.89 0 3.9c0 .7.3.9.7.9c.4 0 .6-.1.9-.4c0 0 .3.2.3.2c-.4.7-1 1-1.6 1c-.9 0-1.5-.5-1.4-1.6c-.03.04 0-4 0-4l-.9 0c0 0-.01-.38 0-.4c.2 0 .5-.2 1-.3zm4.7 4.5c.6 0 .9.4.9 1.2c0 .7-.4 1.9-1.5 2.3c0 0-.3-.4-.3-.4c.5-.4.9-.9.9-1.6c-.1.1-.1 0-.2 0c-.4 0-.6-.3-.6-.7c0-.5.2-.8.8-.8zm7.7-4.5c.6 0 1.1.2 1.4.5c.1-.3.4-.6.6-.7c.03-.05.5 0 .5 0c0 0 0 8.17 0 8.2c.4 0 .7.1.9.2c.04-.02 0 .4 0 .4l-3.1 0c0 0-.03-.42 0-.4c.3-.1.7-.2 1.1-.2c0 0 0-2.9 0-2.9c-.4.7-1.1 1.2-1.9 1.2c-1.4 0-2.4-1.1-2.4-3.1c0-2 1.2-3.2 2.9-3.2zm1.4 4.7c0 0 0-3.9 0-3.9c-.3-.1-.6-.2-1-.2c-1.3 0-2.1.9-2.1 2.5c0 1.6.6 2.3 1.7 2.3c.6 0 1-.2 1.4-.7zm2.5-4.1c0 0-.05-.38 0-.4c.4-.1 1.2-.2 2-.2c0 0 0 4.3 0 4.3c0 .8.3 1.2 1.1 1.2c.7 0 1.3-.3 1.6-.6c.04-.04 0-4.1 0-4.1l-.8-.2c0 0-.05-.38 0-.4c.4-.1 1.2-.2 2-.2c-.02-.04 0 5.4 0 5.4l.9.2c0 0-.03.39 0 .4c-.5.1-1.2.3-2.1.3c0 0 0-1 0-1c-.4.6-1.1 1-2 1c-1.1 0-1.9-.6-1.9-1.8c.04.04 0-3.7 0-3.7l-.8-.2zm11.1 2.1c0 0 0-1 0-1c0-.8-.4-1.1-1.2-1.1c-.3 0-.6 0-.9.1c.04-.04-.2 1.2-.2 1.2c0 0-.66.04-.7 0c0-.2-.1-.6-.1-.9c0-.2 0-.3.1-.4c.5-.5 1.4-.6 2.3-.6c1.2 0 1.8.5 1.8 1.5c0 .7 0 2.7 0 3.9c-.03.03.9.2.9.2c0 0-.04.39 0 .4c-.5.1-1.2.3-2 .3c0 0 0-1.1 0-1.1c-.4.6-1 1.1-1.7 1.1c-1.1 0-1.7-.6-1.7-1.6c0-1.5 1.3-1.8 3.4-2zm0 2.2c0 0 0-1.7 0-1.7c-1.6.1-2.3.4-2.3 1.3c0 .7.4 1 1 1c.5 0 1-.2 1.3-.6zm3.3-4.9c0 0 .1-1.2.1-1.2c.3 0 .7-.1 1.1-.1c-.05.01-.1 1.4-.1 1.4l1.6 0l0 .6l-1.6 0c0 0 0 3.89 0 3.9c0 .7.3.9.7.9c.4 0 .6-.1.9-.4c0 0 .3.2.3.2c-.4.7-1 1-1.6 1c-.9 0-1.5-.5-1.4-1.6c-.04.04 0-4 0-4l-.9 0c0 0-.03-.38 0-.4c.1 0 .5-.2.9-.3zm3.4.6c0 0-.01-.38 0-.4c.5-.1 1.2-.2 2-.2c0 0 0 4.3 0 4.3c0 .8.3 1.2 1.2 1.2c.7 0 1.2-.3 1.6-.6c-.03-.04 0-4.1 0-4.1l-.9-.2c0 0-.01-.38 0-.4c.5-.1 1.2-.2 2-.2c.02-.04 0 5.4 0 5.4l.9.2c0 0 0 .39 0 .4c-.5.1-1.2.3-2 .3c0 0 0-1 0-1c-.4.6-1.2 1-2.1 1c-1.1 0-1.8-.6-1.8-1.8c-.03.04 0-3.7 0-3.7l-.9-.2zm8.6 4.9c-.03.02 0-4.7 0-4.7l-.9-.2c0 0-.01-.38 0-.4c.5-.1 1.2-.2 2-.2c0 0 0 .9 0 .9c.4-.6 1.1-.9 1.8-.9c.3 0 .5 0 .7.1c0 .6-.1 1.4-.2 1.8c0-.02-.7 0-.7 0l-.1-1.2c0 0-.11.04-.1 0c-.5 0-1.1.3-1.4.7c0 0 0 4.1 0 4.1c.5 0 .9.1 1.2.2c.01.03 0 .4 0 .4l-3.3 0c0 0 .03-.37 0-.4c.3-.1.6-.2 1-.2z" stroke="none" fill="#404040"/></g><g id="Polygon13119"><path d="m8.5 92.2c0 0 0-7 0-7c-.5 0-.8-.1-1.1-.2c.02 0 0-.5 0-.5l3.3 0c0 0 .04.5 0 .5c-.2.1-.6.2-1 .2c0 0 0 3.1 0 3.1l4 0c0 0 .01-3.1 0-3.1c-.4 0-.7-.1-1-.2c-.03 0 0-.5 0-.5l3.3 0c0 0 0 .5 0 .5c-.3.1-.6.2-1 .2c0 0 0 7 0 7c.4 0 .7.1 1 .2c0-.02 0 .4 0 .4l-3.3 0c0 0-.03-.42 0-.4c.3-.1.6-.2 1-.2c.01-.03 0-3.2 0-3.2l-4 0c0 0 0 3.17 0 3.2c.4 0 .8.1 1 .2c.04-.02 0 .4 0 .4l-3.3 0c0 0 .02-.42 0-.4c.3-.1.6-.2 1.1-.2zm11.1-5.5c1.5 0 2.3.7 2.3 2.2c0 .3 0 .4 0 .7c-.03-.03-3.9 0-3.9 0c0 0-.03.08 0 .1c0 1.7.9 2.4 1.9 2.4c.7 0 1.2-.3 1.7-.8c0 0 .2.2.2.2c-.4.9-1.1 1.5-2.2 1.5c-1.6 0-2.8-1-2.8-3.2c0-2 1.3-3.1 2.8-3.1zm-1.6 2.3c.01 0 2.8 0 2.8 0c0 0-.02-.21 0-.2c0-1.1-.5-1.6-1.2-1.6c-.8 0-1.4.5-1.6 1.8zm5.7 3.2c.04.02 0-4.7 0-4.7l-.8-.2c0 0-.04-.38 0-.4c.4-.1 1.2-.2 2-.2c0 0 0 1 0 1c.4-.7 1.2-1.1 2.1-1.1c1.1 0 1.8.6 1.8 1.8c0 0 0 3.8 0 3.8c.4 0 .7.1.9.2c.02.03 0 .4 0 .4l-3 0c0 0 .01-.37 0-.4c.3-.1.6-.2.9-.2c0 0 0-3.6 0-3.6c0-.7-.4-1.1-1.2-1.1c-.6 0-1.1.2-1.5.6c0 0 0 4.1 0 4.1c.4 0 .7.1.9.2c.02.03 0 .4 0 .4l-3 0c0 0 .01-.37 0-.4c.3-.1.6-.2.9-.2zm9.8-5.6c.6 0 1.1.2 1.3.5c.05-.02 0-2.5 0-2.5l-1-.2c0 0 .01-.39 0-.4c.5-.1 1.4-.3 2.2-.3c-.01.05 0 8.4 0 8.4l.9.2c0 0-.03.39 0 .4c-.5.1-1.2.3-2.1.3c0 0 0-1.2 0-1.2c-.3.7-1 1.2-1.8 1.2c-1.4 0-2.4-1.1-2.4-3.1c0-2 1.2-3.3 2.9-3.3zm1.3 4.9c0 0 0-4.1 0-4.1c-.2-.1-.5-.1-.9-.1c-1.3 0-2.1.9-2.1 2.5c0 1.6.6 2.4 1.6 2.4c.6 0 1.1-.3 1.4-.7zm6.4-2.1c0 0 0-1 0-1c0-.8-.4-1.1-1.2-1.1c-.3 0-.6 0-.9.1c.05-.04-.2 1.2-.2 1.2c0 0-.65.04-.6 0c-.1-.2-.2-.6-.2-.9c0-.2 0-.3.1-.4c.5-.5 1.4-.6 2.3-.6c1.2 0 1.8.5 1.8 1.5c0 .7 0 2.7 0 3.9c-.02.03.9.2.9.2c0 0-.03.39 0 .4c-.5.1-1.2.3-2 .3c0 0 0-1.1 0-1.1c-.3.6-1 1.1-1.7 1.1c-1.1 0-1.7-.6-1.7-1.6c0-1.5 1.3-1.8 3.4-2zm0 2.2c0 0 0-1.7 0-1.7c-1.5.1-2.3.4-2.3 1.3c0 .7.4 1 1 1c.5 0 1-.2 1.3-.6zm3.7.6c.03.02 0-4.7 0-4.7l-.9-.2c0 0 .05-.38 0-.4c.5-.1 1.2-.2 2.1-.2c0 0 0 1 0 1c.4-.7 1.1-1.1 2.1-1.1c1 0 1.8.6 1.8 1.8c0 0 0 3.8 0 3.8c.3 0 .7.1.9.2c.01.03 0 .4 0 .4l-3 0c0 0 0-.37 0-.4c.3-.1.6-.2.9-.2c0 0 0-3.6 0-3.6c0-.7-.4-1.1-1.2-1.1c-.6 0-1.2.2-1.5.6c0 0 0 4.1 0 4.1c.3 0 .7.1.9.2c.01.03 0 .4 0 .4l-3 0c0 0 0-.37 0-.4c.3-.1.6-.2.9-.2zm9.8-5.6c.6 0 1 .2 1.3.5c.04-.02 0-2.5 0-2.5l-1-.2c0 0 0-.39 0-.4c.5-.1 1.3-.3 2.2-.3c-.02.05 0 8.4 0 8.4l.9.2c0 0-.04.39 0 .4c-.5.1-1.2.3-2.1.3c0 0 0-1.2 0-1.2c-.3.7-1 1.2-1.8 1.2c-1.4 0-2.4-1.1-2.4-3.1c0-2 1.2-3.3 2.9-3.3zm1.3 4.9c0 0 0-4.1 0-4.1c-.2-.1-.5-.1-1-.1c-1.2 0-2 .9-2 2.5c0 1.6.6 2.4 1.6 2.4c.6 0 1.1-.3 1.4-.7zm5.7-4.8c1.4 0 2.2.7 2.2 2.2c0 .3 0 .4 0 .7c-.01-.03-3.9 0-3.9 0c0 0-.01.08 0 .1c0 1.7.9 2.4 2 2.4c.6 0 1.2-.3 1.6-.8c0 0 .2.2.2.2c-.4.9-1.1 1.5-2.2 1.5c-1.6 0-2.8-1-2.8-3.2c0-2 1.3-3.1 2.9-3.1zm-1.7 2.3c.03 0 2.8 0 2.8 0c0 0 0-.21 0-.2c0-1.1-.5-1.6-1.2-1.6c-.8 0-1.4.5-1.6 1.8zm13.4 3.2c0 0 0-3.6 0-3.6c0-.7-.4-1.1-1.2-1.1c-.6 0-1.1.2-1.5.6c0 0 0 4.1 0 4.1c.4 0 .7.1.9.2c.04.03 0 .4 0 .4l-3 0c0 0 .02-.37 0-.4c.3-.1.6-.2 1-.2c0 0 0-3.6 0-3.6c0-.7-.4-1.1-1.2-1.1c-.6 0-1.1.2-1.5.6c0 0 0 4.1 0 4.1c.4 0 .7.1.9.2c.04.03 0 .4 0 .4l-3 0c0 0 .02-.37 0-.4c.3-.1.6-.2 1-.2c-.04.02 0-4.7 0-4.7l-.9-.2c0 0-.02-.38 0-.4c.4-.1 1.2-.2 2-.2c0 0 0 1 0 1c.4-.7 1.2-1.1 2.1-1.1c.9 0 1.4.4 1.6 1.1c.4-.6 1.2-1.1 2.2-1.1c1.1 0 1.7.6 1.7 1.8c0 0 0 3.8 0 3.8c.4 0 .7.1.9.2c.03.03 0 .4 0 .4l-3 0c0 0 .02-.37 0-.4c.3-.1.6-.2 1-.2zm3.1-.1c0-.6.3-.9.9-.9c.6 0 .9.3.9.9c0 .5-.3.9-.9.9c-.6 0-.9-.4-.9-.9zm6.6.1c0 0 0-7 0-7c-.4 0-.8-.1-1.1-.2c.04 0 0-.5 0-.5l2.2 0l4.3 6.1c0 0 .04-5.4 0-5.4c-.5 0-1-.1-1.3-.2c.04 0 0-.5 0-.5l3.2 0c0 0 .01.5 0 .5c-.3.1-.6.2-1 .2c-.03 0 0 7.8 0 7.8l-.7 0l-4.8-6.9c0 0 .01 6.07 0 6.1c.5 0 1 .1 1.3.2c.01-.02 0 .4 0 .4l-3.2 0c0 0 .04-.42 0-.4c.3-.1.7-.2 1.1-.2zm11.5-2.8c0 0 0-1 0-1c0-.8-.4-1.1-1.2-1.1c-.2 0-.5 0-.8.1c-.02-.04-.2 1.2-.2 1.2c0 0-.72.04-.7 0c-.1-.2-.1-.6-.1-.9c0-.2 0-.3 0-.4c.6-.5 1.4-.6 2.3-.6c1.2 0 1.9.5 1.9 1.5c0 .7-.1 2.7-.1 3.9c.01.03.9.2.9.2c0 0 0 .39 0 .4c-.5.1-1.1.3-2 .3c0 0 0-1.1 0-1.1c-.3.6-1 1.1-1.7 1.1c-1.1 0-1.7-.6-1.7-1.6c0-1.5 1.4-1.8 3.4-2zm0 2.2c0 0 0-1.7 0-1.7c-1.5.1-2.3.4-2.3 1.3c0 .7.4 1 1.1 1c.5 0 .9-.2 1.2-.6zm11.4.6c0 0 0-3.6 0-3.6c0-.7-.4-1.1-1.2-1.1c-.6 0-1.1.2-1.5.6c0 0 0 4.1 0 4.1c.4 0 .7.1.9.2c.04.03 0 .4 0 .4l-3 0c0 0 .02-.37 0-.4c.3-.1.6-.2 1-.2c0 0 0-3.6 0-3.6c0-.7-.4-1.1-1.2-1.1c-.6 0-1.1.2-1.5.6c0 0 0 4.1 0 4.1c.4 0 .7.1.9.2c.04.03 0 .4 0 .4l-3 0c0 0 .03-.37 0-.4c.3-.1.6-.2 1-.2c-.04.02 0-4.7 0-4.7l-.9-.2c0 0-.02-.38 0-.4c.4-.1 1.2-.2 2-.2c0 0 0 1 0 1c.4-.7 1.2-1.1 2.1-1.1c.9 0 1.4.4 1.6 1.1c.4-.6 1.2-1.1 2.2-1.1c1.1 0 1.7.6 1.7 1.8c0 0 0 3.8 0 3.8c.4 0 .7.1.9.2c.04.03 0 .4 0 .4l-3 0c0 0 .02-.37 0-.4c.3-.1.6-.2 1-.2zm4-1c.6 0 .9.4.9 1.2c0 .7-.4 1.9-1.5 2.3c0 0-.3-.4-.3-.4c.5-.4.9-.9.9-1.6c-.1.1-.1 0-.2 0c-.4 0-.6-.3-.6-.7c0-.5.2-.8.8-.8zm7.7-4.5c.6 0 1.1.2 1.4.5c.1-.3.4-.6.6-.7c.04-.05.5 0 .5 0c0 0 0 8.17 0 8.2c.4 0 .7.1.9.2c.04-.02 0 .4 0 .4l-3.1 0c0 0-.03-.42 0-.4c.3-.1.7-.2 1.1-.2c0 0 0-2.9 0-2.9c-.4.7-1.1 1.2-1.9 1.2c-1.4 0-2.4-1.1-2.4-3.1c0-2 1.2-3.2 2.9-3.2zm1.4 4.7c0 0 0-3.9 0-3.9c-.3-.1-.6-.2-1-.2c-1.3 0-2.1.9-2.1 2.5c0 1.6.6 2.3 1.7 2.3c.6 0 1-.2 1.4-.7zm2.5-4.1c0 0-.04-.38 0-.4c.4-.1 1.2-.2 2-.2c0 0 0 4.3 0 4.3c0 .8.3 1.2 1.1 1.2c.7 0 1.3-.3 1.6-.6c.04-.04 0-4.1 0-4.1l-.8-.2c0 0-.04-.38 0-.4c.4-.1 1.2-.2 2-.2c-.02-.04 0 5.4 0 5.4l.9.2c0 0-.03.39 0 .4c-.5.1-1.2.3-2.1.3c0 0 0-1 0-1c-.4.6-1.1 1-2 1c-1.1 0-1.9-.6-1.9-1.8c.04.04 0-3.7 0-3.7l-.8-.2zm8.5-2.8c0-.2.1-.4.1-.5c.2 0 .4 0 .6 0c.2 0 .3 0 .5 0c.1.1.1.3.1.5c0 .4-.1.7-.1.9c-.2.1-.4.1-.5.1c-.2 0-.4 0-.6-.1c0-.2-.1-.5-.1-.9zm0 7.7c.04.02 0-4.7 0-4.7l-.8-.2c0 0-.05-.38 0-.4c.4-.1 1.1-.2 2-.2c0 0 0 5.5 0 5.5c.3 0 .7.1.9.2c.02.03 0 .4 0 .4l-3 0c0 0 0-.37 0-.4c.3-.1.6-.2.9-.2zm5.7-5.6c.6 0 1.1.2 1.4.5c-.04-.02 0-2.5 0-2.5l-1.1-.2c0 0 .02-.39 0-.4c.5-.1 1.4-.3 2.2-.3c0 .05 0 8.4 0 8.4l.9.2c0 0-.02.39 0 .4c-.5.1-1.2.3-2 .3c0 0 0-1.2 0-1.2c-.4.7-1.1 1.2-1.9 1.2c-1.4 0-2.4-1.1-2.4-3.1c0-2 1.2-3.3 2.9-3.3zm1.4 4.9c0 0 0-4.1 0-4.1c-.3-.1-.6-.1-1-.1c-1.3 0-2.1.9-2.1 2.5c0 1.6.6 2.4 1.7 2.4c.5 0 1-.3 1.4-.7zm2.6-4.2c0 0-.04-.38 0-.4c.4-.1 1.2-.2 2-.2c0 0 0 4.3 0 4.3c0 .8.3 1.2 1.1 1.2c.7 0 1.3-.3 1.6-.6c.04-.04 0-4.1 0-4.1l-.8-.2c0 0-.04-.38 0-.4c.4-.1 1.2-.2 2-.2c-.02-.04 0 5.4 0 5.4l.9.2c0 0-.03.39 0 .4c-.5.1-1.2.3-2.1.3c0 0 0-1 0-1c-.4.6-1.1 1-2 1c-1.1 0-1.9-.6-1.9-1.8c.04.04 0-3.7 0-3.7l-.8-.2zm10.7-.6c.6 0 1.3.2 1.6.4c0 .4 0 1.1-.2 1.5c.02.04-.7 0-.7 0c0 0-.13-1.3-.1-1.3c-.3 0-.5-.1-.7-.1c-.9 0-1.8.7-1.8 2.5c0 1.6.8 2.4 1.9 2.4c.6 0 1.1-.3 1.5-.8c0 0 .3.2.3.2c-.4.9-1.1 1.5-2.2 1.5c-1.6 0-2.6-1.1-2.6-3.2c0-2 1.3-3.1 3-3.1zm3.5-2.2c0-.2 0-.4.1-.5c.1 0 .3 0 .5 0c.2 0 .4 0 .6 0c0 .1.1.3.1.5c0 .4-.1.7-.2.9c-.1.1-.3.1-.5.1c-.1 0-.3 0-.5-.1c0-.2-.1-.5-.1-.9zm0 7.7c0 .02 0-4.7 0-4.7l-.9-.2c0 0 .02-.38 0-.4c.5-.1 1.2-.2 2-.2c0 0 0 5.5 0 5.5c.4 0 .7.1 1 .2c-.02.03 0 .4 0 .4l-3 0c0 0-.03-.37 0-.4c.2-.1.5-.2.9-.2zm3.7 0c0 .02 0-7.6 0-7.6l-.9-.2c0 0 .01-.39 0-.4c.5-.1 1.2-.3 2-.3c0 0 0 8.5 0 8.5c.4 0 .7.1 1 .2c-.02.03 0 .4 0 .4l-3 0c0 0-.04-.37 0-.4c.2-.1.5-.2.9-.2z" stroke="none" fill="#404040"/></g><g id="Polygon13118"><path d="m3.4 70.2c1.8 0 2.7 1 2.7 3.1c0 2-1.2 3.2-2.9 3.2c-1.8 0-2.7-1.1-2.7-3.2c0-2 1.2-3.1 2.9-3.1zm1.5 3.2c0-1.8-.6-2.7-1.6-2.7c-.9 0-1.5.7-1.5 2.5c0 1.8.5 2.7 1.5 2.7c1 0 1.6-.7 1.6-2.5zm5.3-3.3c.7 0 1.1.2 1.4.5c0-.02 0-2.5 0-2.5l-1-.2c0 0-.04-.39 0-.4c.4-.1 1.3-.3 2.1-.3c.04.05 0 8.4 0 8.4l.9.2c0 0 .02.39 0 .4c-.4.1-1.2.3-2 .3c0 0 0-1.2 0-1.2c-.3.7-1 1.2-1.8 1.2c-1.5 0-2.5-1.1-2.5-3.1c0-2 1.3-3.3 2.9-3.3zm1.4 4.9c0 0 0-4.1 0-4.1c-.3-.1-.6-.1-1-.1c-1.2 0-2.1.9-2.1 2.5c0 1.6.7 2.4 1.7 2.4c.6 0 1.1-.3 1.4-.7zm3.8-7c0-.2 0-.4 0-.5c.2 0 .4 0 .6 0c.2 0 .4 0 .6 0c0 .1 0 .3 0 .5c0 .4 0 .7-.1.9c-.1.1-.3.1-.5.1c-.1 0-.3 0-.5-.1c-.1-.2-.1-.5-.1-.9zm0 7.7c-.01.02 0-4.7 0-4.7l-.9-.2c0 0 .01-.38 0-.4c.5-.1 1.2-.2 2-.2c0 0 0 5.5 0 5.5c.4 0 .7.1 1 .2c-.03.03 0 .4 0 .4l-3 0c0 0-.04-.37 0-.4c.2-.1.5-.2.9-.2zm3.1-1.2c.01-.02.7 0 .7 0c0 0 .17 1.31.2 1.3c.3.1.6.1.8.1c.8 0 1.4-.3 1.4-1.1c0-.5-.4-.8-1.1-1c0 0-.7-.2-.7-.2c-.9-.3-1.4-.8-1.4-1.7c0-1.1.9-1.8 2.2-1.8c.8 0 1.6.2 1.9.4c0 0 0 .2 0 .2c0 .4-.1 1-.2 1.4c-.04-.02-.7 0-.7 0c0 0-.19-1.3-.2-1.3c-.3-.1-.5-.1-.8-.1c-.7 0-1.2.3-1.2.9c0 .6.3.9.9 1.1c0 0 .7.2.7.2c1.1.3 1.7.7 1.7 1.7c0 1.1-1 1.9-2.5 1.9c-.8 0-1.6-.2-1.9-.4c0 0 0-.2 0-.2c0-.4.1-1 .2-1.4zm8.2-4.3c.7 0 1.4.2 1.7.4c0 .4-.1 1.1-.2 1.5c-.02.04-.7 0-.7 0c0 0-.17-1.3-.2-1.3c-.2 0-.4-.1-.6-.1c-1 0-1.8.7-1.8 2.5c0 1.6.8 2.4 1.8 2.4c.7 0 1.2-.3 1.6-.8c0 0 .2.2.2.2c-.4.9-1 1.5-2.1 1.5c-1.6 0-2.7-1.1-2.7-3.2c0-2 1.3-3.1 3-3.1zm3.6-2.2c0-.2 0-.4 0-.5c.2 0 .4 0 .6 0c.2 0 .4 0 .6 0c0 .1 0 .3 0 .5c0 .4 0 .7-.1.9c-.1.1-.4.1-.5.1c-.2 0-.4 0-.5-.1c-.1-.2-.1-.5-.1-.9zm0 7.7c-.04.02 0-4.7 0-4.7l-.9-.2c0 0-.02-.38 0-.4c.4-.1 1.2-.2 2-.2c0 0 0 5.5 0 5.5c.4 0 .7.1.9.2c.04.03 0 .4 0 .4l-3 0c0 0 .03-.37 0-.4c.3-.1.6-.2 1-.2zm2.5-4.9c0 0 .01-.38 0-.4c.5-.1 1.2-.2 2-.2c0 0 0 4.3 0 4.3c0 .8.4 1.2 1.2 1.2c.7 0 1.2-.3 1.6-.6c0-.04 0-4.1 0-4.1l-.9-.2c0 0 .01-.38 0-.4c.5-.1 1.2-.2 2-.2c.04-.04 0 5.4 0 5.4l.9.2c0 0 .02.39 0 .4c-.4.1-1.2.3-2 .3c0 0 0-1 0-1c-.4.6-1.2 1-2.1 1c-1.1 0-1.8-.6-1.8-1.8c0 .04 0-3.7 0-3.7l-.9-.2zm8.1 3.7c-.03-.02.6 0 .6 0c0 0 .23 1.31.2 1.3c.3.1.6.1.9.1c.8 0 1.4-.3 1.4-1.1c0-.5-.4-.8-1.1-1c0 0-.7-.2-.7-.2c-1-.3-1.5-.8-1.5-1.7c0-1.1 1-1.8 2.3-1.8c.7 0 1.5.2 1.8.4c0 0 0 .2 0 .2c0 .4-.1 1-.2 1.4c.02-.02-.7 0-.7 0c0 0-.13-1.3-.1-1.3c-.3-.1-.6-.1-.8-.1c-.8 0-1.3.3-1.3.9c0 .6.4.9.9 1.1c0 0 .8.2.8.2c1 .3 1.6.7 1.6 1.7c0 1.1-1 1.9-2.4 1.9c-.8 0-1.6-.2-1.9-.4c0 0 0-.2 0-.2c0-.4 0-1 .2-1.4zm5.8-4.3c0 0 0-1.2 0-1.2c.3 0 .8-.1 1.1-.1c-.01.01 0 1.4 0 1.4l1.5 0l0 .6l-1.5 0c0 0-.06 3.89-.1 3.9c0 .7.3.9.8.9c.3 0 .5-.1.8-.4c0 0 .3.2.3.2c-.4.7-1 1-1.6 1c-.9 0-1.4-.5-1.4-1.6c-.01.04 0-4 0-4l-.9 0c0 0 .01-.38 0-.4c.2 0 .5-.2 1-.3zm7 5.5c-.04.02 0-4.7 0-4.7l-.9-.2c0 0-.02-.38 0-.4c.4-.1 1.2-.2 2-.2c0 0 0 .9 0 .9c.3-.6 1.1-.9 1.8-.9c.3 0 .5 0 .7.1c0 .6-.1 1.4-.2 1.8c0-.02-.7 0-.7 0l-.1-1.2c0 0-.11.04-.1 0c-.5 0-1.1.3-1.4.7c0 0 0 4.1 0 4.1c.5 0 .9.1 1.2.2c0 .03 0 .4 0 .4l-3.3 0c0 0 .03-.37 0-.4c.3-.1.6-.2 1-.2zm7-5.5c1.5 0 2.3.7 2.3 2.2c0 .3 0 .4 0 .7c-.02-.03-3.9 0-3.9 0c0 0-.02.08 0 .1c0 1.7.9 2.4 2 2.4c.6 0 1.2-.3 1.6-.8c0 0 .2.2.2.2c-.4.9-1.1 1.5-2.2 1.5c-1.6 0-2.8-1-2.8-3.2c0-2 1.3-3.1 2.8-3.1zm-1.6 2.3c.02 0 2.8 0 2.8 0c0 0-.01-.21 0-.2c0-1.1-.5-1.6-1.2-1.6c-.8 0-1.4.5-1.6 1.8zm5.8 5.7c-.04-.03 0-7.2 0-7.2l-.9-.2c0 0-.03-.38 0-.4c.4-.1 1.2-.2 2-.2c0 0 0 1.1 0 1.1c.3-.7 1.1-1.2 1.9-1.2c1.4 0 2.4 1 2.4 3c0 2.1-1.3 3.4-2.9 3.4c-.6 0-1.1-.2-1.4-.4c0 0 0 2.1 0 2.1c.5 0 .8.1 1.1.2c-.01-.02 0 .4 0 .4l-3.2 0c0 0 .02-.42 0-.4c.3-.1.6-.2 1-.2zm1.1-6.6c0 0 0 4.1 0 4.1c.3.1.6.1 1 .1c1.2 0 2.1-.9 2.1-2.6c0-1.6-.7-2.3-1.6-2.3c-.6 0-1.2.3-1.5.7zm8.3-1.4c1.5 0 2.3.7 2.3 2.2c0 .3 0 .4 0 .7c-.04-.03-3.9 0-3.9 0c0 0-.04.08 0 .1c0 1.7.8 2.4 1.9 2.4c.7 0 1.2-.3 1.6-.8c0 0 .3.2.3.2c-.4.9-1.1 1.5-2.2 1.5c-1.6 0-2.8-1-2.8-3.2c0-2 1.3-3.1 2.8-3.1zm-1.6 2.3c0 0 2.8 0 2.8 0c0 0-.04-.21 0-.2c0-1.1-.5-1.6-1.2-1.6c-.8 0-1.4.5-1.6 1.8zm5.5 3.2c.02.02 0-7.6 0-7.6l-.9-.2c0 0 .04-.39 0-.4c.5-.1 1.2-.3 2.1-.3c0 0 0 8.5 0 8.5c.3 0 .6.1.9.2c0 .03 0 .4 0 .4l-3 0c0 0-.02-.37 0-.4c.2-.1.6-.2.9-.2zm6.4-7.7c0-.2 0-.4.1-.5c.2 0 .3 0 .5 0c.2 0 .4 0 .6 0c0 .1.1.3.1.5c0 .4-.1.7-.1.9c-.2.1-.4.1-.6.1c-.1 0-.3 0-.5-.1c0-.2-.1-.5-.1-.9zm0 7.7c.02.02 0-4.7 0-4.7l-.9-.2c0 0 .03-.38 0-.4c.5-.1 1.2-.2 2.1-.2c0 0 0 5.5 0 5.5c.3 0 .6.1.9.2c0 .03 0 .4 0 .4l-3 0c0 0-.02-.37 0-.4c.2-.1.6-.2.9-.2zm3.7 0c.01.02 0-7.6 0-7.6l-.9-.2c0 0 .02-.39 0-.4c.5-.1 1.2-.3 2.1-.3c0 0 0 8.5 0 8.5c.3 0 .6.1.9.2c-.01.03 0 .4 0 .4l-3 0c0 0-.03-.37 0-.4c.2-.1.5-.2.9-.2zm14 0c0 0 0-3.6 0-3.6c0-.7-.4-1.1-1.1-1.1c-.6 0-1.2.2-1.6.6c0 0 0 4.1 0 4.1c.4 0 .7.1 1 .2c-.02.03 0 .4 0 .4l-3 0c0 0-.04-.37 0-.4c.2-.1.5-.2.9-.2c0 0 0-3.6 0-3.6c0-.7-.4-1.1-1.1-1.1c-.6 0-1.2.2-1.6.6c0 0 0 4.1 0 4.1c.4 0 .7.1 1 .2c-.02.03 0 .4 0 .4l-3 0c0 0-.03-.37 0-.4c.2-.1.5-.2.9-.2c0 .02 0-4.7 0-4.7l-.9-.2c0 0 .02-.38 0-.4c.5-.1 1.2-.2 2-.2c0 0 0 1 0 1c.4-.7 1.2-1.1 2.1-1.1c.9 0 1.4.4 1.6 1.1c.5-.6 1.2-1.1 2.2-1.1c1.1 0 1.7.6 1.7 1.8c0 0 0 3.8 0 3.8c.4 0 .7.1 1 .2c-.02.03 0 .4 0 .4l-3 0c0 0-.04-.37 0-.4c.2-.1.5-.2.9-.2zm3.8-7.7c0-.2 0-.4 0-.5c.2 0 .4 0 .6 0c.2 0 .4 0 .6 0c0 .1 0 .3 0 .5c0 .4 0 .7-.1.9c-.1.1-.3.1-.5.1c-.1 0-.3 0-.5-.1c-.1-.2-.1-.5-.1-.9zm0 7.7c-.01.02 0-4.7 0-4.7l-.9-.2c0 0 .01-.38 0-.4c.5-.1 1.2-.2 2-.2c0 0 0 5.5 0 5.5c.4 0 .7.1 1 .2c-.03.03 0 .4 0 .4l-3 0c0 0-.04-.37 0-.4c.2-.1.5-.2.9-.2zm4-1c.5 0 .8.4.8 1.2c0 .7-.3 1.9-1.5 2.3c0 0-.2-.4-.2-.4c.5-.4.9-.9.9-1.6c-.1.1-.1 0-.2 0c-.4 0-.7-.3-.7-.7c0-.5.3-.8.9-.8zm4.6-3.9c0 0 .02-.38 0-.4c.5-.1 1.2-.2 2.1-.2c0 0 0 4.3 0 4.3c0 .8.3 1.2 1.1 1.2c.7 0 1.2-.3 1.6-.6c.01-.04 0-4.1 0-4.1l-.9-.2c0 0 .02-.38 0-.4c.5-.1 1.2-.2 2.1-.2c-.05-.04 0 5.4 0 5.4l.8.2c0 0 .04.39 0 .4c-.4.1-1.2.3-2 .3c0 0 0-1 0-1c-.4.6-1.2 1-2.1 1c-1.1 0-1.8-.6-1.8-1.8c.01.04 0-3.7 0-3.7l-.9-.2zm8.4-.6c0 0 .1-1.2.1-1.2c.3 0 .7-.1 1-.1c.04.01 0 1.4 0 1.4l1.6 0l0 .6l-1.6 0c0 0-.01 3.89 0 3.9c0 .7.2.9.7.9c.3 0 .6-.1.9-.4c0 0 .3.2.3.2c-.4.7-1 1-1.7 1c-.9 0-1.4-.5-1.4-1.6c.04.04.1-4 .1-4l-.9 0c0 0-.04-.38 0-.4c.1 0 .5-.2.9-.3zm9.1-.1c.7 0 1.1.2 1.4.5c0-.02 0-2.5 0-2.5l-1-.2c0 0-.04-.39 0-.4c.4-.1 1.3-.3 2.1-.3c.04.05 0 8.4 0 8.4l.9.2c0 0 .03.39 0 .4c-.4.1-1.2.3-2 .3c0 0 0-1.2 0-1.2c-.3.7-1 1.2-1.8 1.2c-1.5 0-2.5-1.1-2.5-3.1c0-2 1.3-3.3 2.9-3.3zm1.4 4.9c0 0 0-4.1 0-4.1c-.3-.1-.6-.1-1-.1c-1.2 0-2.1.9-2.1 2.5c0 1.6.7 2.4 1.7 2.4c.6 0 1.1-.3 1.4-.7zm3.8-7c0-.2 0-.4 0-.5c.2 0 .4 0 .6 0c.2 0 .4 0 .6 0c0 .1 0 .3 0 .5c0 .4 0 .7-.1.9c-.1.1-.3.1-.5.1c-.1 0-.3 0-.5-.1c-.1-.2-.1-.5-.1-.9zm0 7.7c0 .02 0-4.7 0-4.7l-.9-.2c0 0 .01-.38 0-.4c.5-.1 1.2-.2 2-.2c0 0 0 5.5 0 5.5c.4 0 .7.1 1 .2c-.02.03 0 .4 0 .4l-3 0c0 0-.04-.37 0-.4c.2-.1.5-.2.9-.2zm3.6-5.5c0 0 0-1.2 0-1.2c.3 0 .8-.1 1.1-.1c-.02.01 0 1.4 0 1.4l1.5 0l0 .6l-1.6 0c0 0 .02 3.89 0 3.9c0 .7.3.9.8.9c.3 0 .5-.1.8-.4c0 0 .3.2.3.2c-.4.7-1 1-1.6 1c-.9 0-1.4-.5-1.4-1.6c-.02.04 0-4 0-4l-.9 0c0 0 0-.38 0-.4c.2 0 .5-.2 1-.3zm4.4-2.2c0-.2 0-.4 0-.5c.2 0 .4 0 .6 0c.2 0 .4 0 .5 0c.1.1.1.3.1.5c0 .4-.1.7-.1.9c-.2.1-.4.1-.5.1c-.2 0-.4 0-.5-.1c-.1-.2-.1-.5-.1-.9zm0 7.7c-.05.02 0-4.7 0-4.7l-.9-.2c0 0-.03-.38 0-.4c.4-.1 1.2-.2 2-.2c0 0 0 5.5 0 5.5c.4 0 .7.1.9.2c.03.03 0 .4 0 .4l-3 0c0 0 .02-.37 0-.4c.3-.1.6-.2 1-.2zm6.2-2.8c0 0 0-1 0-1c0-.8-.4-1.1-1.2-1.1c-.2 0-.5 0-.8.1c0-.04-.2 1.2-.2 1.2c0 0-.69.04-.7 0c-.1-.2-.1-.6-.1-.9c0-.2 0-.3 0-.4c.6-.5 1.5-.6 2.3-.6c1.3 0 1.9.5 1.9 1.5c0 .7-.1 2.7-.1 3.9c.04.03.9.2.9.2c0 0 .02.39 0 .4c-.4.1-1.1.3-2 .3c0 0 0-1.1 0-1.1c-.3.6-.9 1.1-1.7 1.1c-1 0-1.7-.6-1.7-1.6c0-1.5 1.4-1.8 3.4-2zm0 2.2c0 0 0-1.7 0-1.7c-1.5.1-2.2.4-2.2 1.3c0 .7.3 1 1 1c.5 0 1-.2 1.2-.6zm3.4-4.9c0 0 .1-1.2.1-1.2c.2 0 .7-.1 1-.1c.02.01 0 1.4 0 1.4l1.6 0l0 .6l-1.6 0c0 0-.04 3.89 0 3.9c0 .7.2.9.7.9c.3 0 .6-.1.9-.4c0 0 .2.2.2.2c-.4.7-.9 1-1.6 1c-.9 0-1.4-.5-1.4-1.6c.02.04.1-4 .1-4l-1 0c0 0 .04-.38 0-.4c.2 0 .6-.2 1-.3zm3.9 5.4c0-.6.3-.9.9-.9c.5 0 .8.3.8.9c0 .5-.3.9-.8.9c-.6 0-.9-.4-.9-.9z" stroke="none" fill="#404040"/></g><g id="Polygon13117"><path d="m1.5 59.2c0 0 0-7 0-7c-.5 0-.8-.1-1.1-.2c.02 0 0-.5 0-.5l2.1 0l4.4 6.1c0 0 .02-5.4 0-5.4c-.5 0-1-.1-1.3-.2c.02 0 0-.5 0-.5l3.2 0c0 0-.01.5 0 .5c-.3.1-.6.2-1.1.2c.05 0 0 7.8 0 7.8l-.6 0l-4.8-6.9c0 0-.01 6.07 0 6.1c.5 0 1 .1 1.3.2c-.01-.02 0 .4 0 .4l-3.2 0c0 0 .02-.42 0-.4c.3-.1.6-.2 1.1-.2zm11-5.5c1.4 0 2.2.7 2.2 2.2c0 .3 0 .4 0 .7c-.01-.03-3.9 0-3.9 0c0 0-.01.08 0 .1c0 1.7.9 2.4 2 2.4c.6 0 1.2-.3 1.6-.8c0 0 .2.2.2.2c-.4.9-1.1 1.5-2.2 1.5c-1.6 0-2.8-1-2.8-3.2c0-2 1.3-3.1 2.9-3.1zm-1.7 2.3c.03 0 2.8 0 2.8 0c0 0 0-.21 0-.2c0-1.1-.5-1.6-1.2-1.6c-.8 0-1.4.5-1.6 1.8zm7.9-2.3c.7 0 1.1.2 1.4.5c.2-.3.5-.6.7-.7c-.03-.05.4 0 .4 0c0 0 .04 8.17 0 8.2c.4 0 .7.1 1 .2c-.02-.02 0 .4 0 .4l-3.2 0c0 0 .01-.42 0-.4c.3-.1.7-.2 1.1-.2c0 0 0-2.9 0-2.9c-.3.7-1 1.2-1.8 1.2c-1.5 0-2.5-1.1-2.5-3.1c0-2 1.3-3.2 2.9-3.2zm1.4 4.7c0 0 0-3.9 0-3.9c-.3-.1-.6-.2-1-.2c-1.2 0-2.1.9-2.1 2.5c0 1.6.7 2.3 1.7 2.3c.6 0 1.1-.2 1.4-.7zm2.5-4.1c0 0-.01-.38 0-.4c.5-.1 1.2-.2 2-.2c0 0 0 4.3 0 4.3c0 .8.3 1.2 1.2 1.2c.7 0 1.2-.3 1.6-.6c-.02-.04 0-4.1 0-4.1l-.9-.2c0 0-.01-.38 0-.4c.5-.1 1.2-.2 2-.2c.02-.04 0 5.4 0 5.4l.9.2c0 0 .01.39 0 .4c-.5.1-1.2.3-2 .3c0 0 0-1 0-1c-.4.6-1.2 1-2.1 1c-1.1 0-1.8-.6-1.8-1.8c-.02.04 0-3.7 0-3.7l-.9-.2zm10.5-.6c1.5 0 2.3.7 2.3 2.2c0 .3 0 .4 0 .7c-.01-.03-3.9 0-3.9 0c0 0-.01.08 0 .1c0 1.7.9 2.4 2 2.4c.6 0 1.2-.3 1.6-.8c0 0 .2.2.2.2c-.4.9-1.1 1.5-2.2 1.5c-1.6 0-2.8-1-2.8-3.2c0-2 1.3-3.1 2.8-3.1zm-1.6 2.3c.02 0 2.8 0 2.8 0c0 0-.01-.21 0-.2c0-1.1-.5-1.6-1.2-1.6c-.8 0-1.4.5-1.6 1.8zm10.5-2.3c1.8 0 2.7 1 2.7 3.1c0 2-1.2 3.2-2.9 3.2c-1.8 0-2.7-1.1-2.7-3.2c0-2 1.2-3.1 2.9-3.1zm1.5 3.2c0-1.8-.5-2.7-1.6-2.7c-.9 0-1.5.7-1.5 2.5c0 1.8.5 2.7 1.5 2.7c1 0 1.6-.7 1.6-2.5zm10.6 2.3c0 0 0-3.6 0-3.6c0-.7-.4-1.1-1.1-1.1c-.6 0-1.2.2-1.5.6c0 0 0 4.1 0 4.1c.3 0 .6.1.9.2c-.01.03 0 .4 0 .4l-3 0c0 0-.03-.37 0-.4c.2-.1.5-.2.9-.2c0 0 0-3.6 0-3.6c0-.7-.4-1.1-1.1-1.1c-.6 0-1.2.2-1.5.6c0 0 0 4.1 0 4.1c.3 0 .6.1.9.2c-.01.03 0 .4 0 .4l-3 0c0 0-.02-.37 0-.4c.2-.1.5-.2.9-.2c.01.02 0-4.7 0-4.7l-.9-.2c0 0 .03-.38 0-.4c.5-.1 1.2-.2 2.1-.2c0 0 0 1 0 1c.3-.7 1.1-1.1 2-1.1c.9 0 1.4.4 1.6 1.1c.5-.6 1.2-1.1 2.2-1.1c1.1 0 1.7.6 1.7 1.8c0 0 0 3.8 0 3.8c.4 0 .7.1 1 .2c-.01.03 0 .4 0 .4l-3 0c0 0-.03-.37 0-.4c.2-.1.5-.2.9-.2zm11.4 0c0 0 0-3.6 0-3.6c0-.7-.4-1.1-1.2-1.1c-.5 0-1.1.2-1.5.6c0 0 0 4.1 0 4.1c.4 0 .7.1 1 .2c-.02.03 0 .4 0 .4l-3 0c0 0-.04-.37 0-.4c.2-.1.5-.2.9-.2c0 0 0-3.6 0-3.6c0-.7-.4-1.1-1.1-1.1c-.6 0-1.2.2-1.6.6c0 0 0 4.1 0 4.1c.4 0 .7.1 1 .2c-.02.03 0 .4 0 .4l-3 0c0 0-.03-.37 0-.4c.2-.1.5-.2.9-.2c0 .02 0-4.7 0-4.7l-.9-.2c0 0 .02-.38 0-.4c.5-.1 1.2-.2 2-.2c0 0 0 1 0 1c.4-.7 1.2-1.1 2.1-1.1c.9 0 1.4.4 1.6 1.1c.5-.6 1.2-1.1 2.2-1.1c1.1 0 1.7.6 1.7 1.8c0 0 0 3.8 0 3.8c.4 0 .7.1 1 .2c-.03.03 0 .4 0 .4l-3 0c0 0-.04-.37 0-.4c.2-.1.5-.2.9-.2zm5.7-5.5c1.8 0 2.8 1 2.8 3.1c0 2-1.2 3.2-2.9 3.2c-1.8 0-2.7-1.1-2.7-3.2c0-2 1.1-3.1 2.8-3.1zm1.5 3.2c0-1.8-.5-2.7-1.5-2.7c-1 0-1.6.7-1.6 2.5c0 1.8.6 2.7 1.6 2.7c.9 0 1.5-.7 1.5-2.5zm2.9 2.3c.01.02 0-7.6 0-7.6l-.9-.2c0 0 .02-.39 0-.4c.5-.1 1.2-.3 2.1-.3c0 0 0 8.5 0 8.5c.3 0 .6.1.9.2c-.01.03 0 .4 0 .4l-3 0c0 0-.03-.37 0-.4c.2-.1.5-.2.9-.2zm2.6-4.9c0 0 .01-.38 0-.4c.5-.1 1.2-.2 2-.2c0 0 0 4.3 0 4.3c0 .8.3 1.2 1.2 1.2c.7 0 1.2-.3 1.6-.6c-.01-.04 0-4.1 0-4.1l-.9-.2c0 0 .01-.38 0-.4c.5-.1 1.2-.2 2-.2c.04-.04 0 5.4 0 5.4l.9.2c0 0 .02.39 0 .4c-.4.1-1.2.3-2 .3c0 0 0-1 0-1c-.4.6-1.2 1-2.1 1c-1.1 0-1.8-.6-1.8-1.8c-.01.04 0-3.7 0-3.7l-.9-.2zm8.4-.6c0 0 .1-1.2.1-1.2c.2 0 .7-.1 1-.1c.02.01 0 1.4 0 1.4l1.6 0l0 .6l-1.6 0c0 0-.03 3.89 0 3.9c0 .7.2.9.7.9c.3 0 .6-.1.9-.4c0 0 .2.2.2.2c-.3.7-.9 1-1.6 1c-.9 0-1.4-.5-1.4-1.6c.03.04.1-4 .1-4l-1 0c0 0 .04-.38 0-.4c.2 0 .6-.2 1-.3zm7 .1c0 0 0-.8 0-.8c0-1.3.8-2.3 2.3-2.3c.6 0 1.3.2 1.7.3c0 .4 0 .9-.2 1.4c.05-.04-.6 0-.6 0c0 0-.29-1.17-.3-1.2c-.1 0-.2 0-.3 0c-1 0-1.5.6-1.5 1.7c.04-.05 0 .9 0 .9l1.6 0l0 .6l-1.6 0c0 0 .04 4.82 0 4.8c.5 0 .9.1 1.2.2c.04.03 0 .4 0 .4l-3.2 0c0 0-.04-.37 0-.4c.2-.1.5-.2.9-.2c0 .02 0-4.8 0-4.8l-.9 0c0 0 .02-.38 0-.4c.2 0 .5-.2.9-.2zm3.3.5c0 0-.02-.38 0-.4c.4-.1 1.2-.2 2-.2c0 0 0 4.3 0 4.3c0 .8.3 1.2 1.1 1.2c.7 0 1.3-.3 1.7-.6c-.04-.04 0-4.1 0-4.1l-.9-.2c0 0-.02-.38 0-.4c.4-.1 1.2-.2 2-.2c0-.04 0 5.4 0 5.4l.9.2c0 0-.01.39 0 .4c-.5.1-1.2.3-2 .3c0 0 0-1 0-1c-.4.6-1.2 1-2.1 1c-1.1 0-1.8-.6-1.8-1.8c-.04.04 0-3.7 0-3.7l-.9-.2zm8.8 5.2c-.3-.2-.6-.5-.6-.9c0-.5.3-.9.7-1.2c-.7-.3-1.1-.9-1.1-1.7c0-1.3 1.1-2.1 2.5-2.1c.6 0 1.1.1 1.6.4c.3-.2.7-.3 1.3-.3c.1.1.1.3.1.4c0 .2 0 .3-.1.4c0 0-1 0-1 0c.2.3.4.7.4 1.1c0 1.3-.9 2.1-2.5 2.1c-.3 0-.6-.1-.9-.2c-.1.2-.1.4-.1.7c0 .3.1.5.5.5c0 0 1.8 0 1.8 0c1.2 0 1.8.5 1.8 1.5c0 1.3-1.3 2.2-3.1 2.2c-1.8 0-2.6-.6-2.6-1.6c0-.7.5-1.1 1.3-1.3zm2.6-3.9c0-1-.5-1.5-1.2-1.5c-.8 0-1.2.4-1.2 1.4c0 1.1.5 1.6 1.2 1.6c.8 0 1.2-.5 1.2-1.5zm-2.8 5c0 .8.5 1.2 1.5 1.2c1.3 0 2.1-.4 2.1-1.3c0-.5-.4-.9-1-.9c0 0-2.3 0-2.3 0c-.2.3-.3.5-.3 1zm8.9-4.2c0 0 0-1 0-1c0-.8-.4-1.1-1.2-1.1c-.3 0-.5 0-.8.1c-.04-.04-.3 1.2-.3 1.2c0 0-.64.04-.6 0c-.1-.2-.2-.6-.2-.9c0-.2 0-.3.1-.4c.6-.5 1.4-.6 2.3-.6c1.2 0 1.8.5 1.8 1.5c0 .7 0 2.7 0 3.9c-.01.03.9.2.9.2c0 0-.02.39 0 .4c-.5.1-1.2.3-2 .3c0 0 0-1.1 0-1.1c-.3.6-1 1.1-1.7 1.1c-1.1 0-1.7-.6-1.7-1.6c0-1.5 1.3-1.8 3.4-2zm0 2.2c0 0 0-1.7 0-1.7c-1.5.1-2.3.4-2.3 1.3c0 .7.4 1 1.1 1c.5 0 .9-.2 1.2-.6zm3.1.5c0-.6.3-.9.9-.9c.6 0 .9.3.9.9c0 .5-.3.9-.9.9c-.6 0-.9-.4-.9-.9zm6.6.1c0 0 0-7 0-7c-.4 0-.8-.1-1.1-.2c.03 0 0-.5 0-.5l2.2 0l4.3 6.1c0 0 .03-5.4 0-5.4c-.5 0-1-.1-1.3-.2c.03 0 0-.5 0-.5l3.2 0c0 0 0 .5 0 .5c-.3.1-.6.2-1 .2c-.04 0 0 7.8 0 7.8l-.7 0l-4.8-6.9c0 0 0 6.07 0 6.1c.5 0 1 .1 1.3.2c0-.02 0 .4 0 .4l-3.2 0c0 0 .03-.42 0-.4c.3-.1.7-.2 1.1-.2zm11.5-2.8c0 0 0-1 0-1c0-.8-.4-1.1-1.2-1.1c-.2 0-.5 0-.8.1c-.03-.04-.2 1.2-.2 1.2c0 0-.72.04-.7 0c-.1-.2-.2-.6-.2-.9c0-.2.1-.3.1-.4c.6-.5 1.4-.6 2.3-.6c1.2 0 1.9.5 1.9 1.5c0 .7-.1 2.7-.1 3.9c.01.03.9.2.9.2c0 0-.01.39 0 .4c-.5.1-1.2.3-2 .3c0 0 0-1.1 0-1.1c-.3.6-1 1.1-1.7 1.1c-1.1 0-1.7-.6-1.7-1.6c0-1.5 1.3-1.8 3.4-2zm0 2.2c0 0 0-1.7 0-1.7c-1.5.1-2.3.4-2.3 1.3c0 .7.4 1 1.1 1c.5 0 .9-.2 1.2-.6zm11.4.6c0 0 0-3.6 0-3.6c0-.7-.4-1.1-1.2-1.1c-.6 0-1.1.2-1.5.6c0 0 0 4.1 0 4.1c.4 0 .7.1.9.2c.03.03 0 .4 0 .4l-3 0c0 0 .02-.37 0-.4c.3-.1.6-.2 1-.2c0 0 0-3.6 0-3.6c0-.7-.4-1.1-1.2-1.1c-.6 0-1.1.2-1.5.6c0 0 0 4.1 0 4.1c.4 0 .7.1.9.2c.04.03 0 .4 0 .4l-3 0c0 0 .02-.37 0-.4c.3-.1.6-.2 1-.2c-.04.02 0-4.7 0-4.7l-.9-.2c0 0-.03-.38 0-.4c.4-.1 1.2-.2 2-.2c0 0 0 1 0 1c.4-.7 1.2-1.1 2.1-1.1c.9 0 1.4.4 1.6 1.1c.4-.6 1.2-1.1 2.2-1.1c1.1 0 1.7.6 1.7 1.8c0 0 0 3.8 0 3.8c.4 0 .7.1.9.2c.03.03 0 .4 0 .4l-3 0c0 0 .01-.37 0-.4c.3-.1.6-.2 1-.2zm4-1c.6 0 .9.4.9 1.2c0 .7-.4 1.9-1.5 2.3c0 0-.3-.4-.3-.4c.5-.4.9-.9.9-1.6c-.1.1-.1 0-.2 0c-.4 0-.7-.3-.7-.7c0-.5.3-.8.9-.8z" stroke="none" fill="#404040"/></g><g id="Polygon13116"><path d="m1.5 42.7c0 0 0-7 0-7c-.5 0-.8-.1-1.1-.2c.02 0 0-.5 0-.5c0 0 6.2.03 6.2 0c.1.3.1.6.1.9c0 .4 0 1-.1 1.3c0 .01-.6 0-.6 0l-.3-1.5l-3 0l0 3.2c0 0 1.88-.02 1.9 0c0-.3.1-.7.2-1c0 0 .6 0 .6 0c0 .3.1.8.1 1.3c0 .6-.1 1.2-.1 1.5c0 0-.6 0-.6 0c-.1-.4-.2-.8-.2-1.2c-.02 0-1.9 0-1.9 0l0 3.2l3.1 0l.5-1.6c0 0 .62.06.6.1c0 .6 0 1.4-.2 2.1c-.04.05-6.3 0-6.3 0c0 0 .02-.42 0-.4c.3-.1.6-.2 1.1-.2zm7.2-5.5c0 0 0-1.2 0-1.2c.3 0 .8-.1 1.1-.1c-.02.01 0 1.4 0 1.4l1.5 0l0 .6l-1.6 0c0 0 .02 3.89 0 3.9c0 .7.3.9.8.9c.3 0 .5-.1.8-.4c0 0 .3.2.3.2c-.4.7-1 1-1.6 1c-.9 0-1.4-.5-1.4-1.6c-.02.04 0-4 0-4l-.9 0c0 0 0-.38 0-.4c.2 0 .5-.2 1-.3zm9.5 2.7c0 0 0-1 0-1c0-.8-.4-1.1-1.2-1.1c-.3 0-.5 0-.8.1c-.04-.04-.3 1.2-.3 1.2c0 0-.64.04-.6 0c-.1-.2-.2-.6-.2-.9c0-.2 0-.3.1-.4c.6-.5 1.4-.6 2.3-.6c1.2 0 1.8.5 1.8 1.5c0 .7 0 2.7 0 3.9c-.01.03.9.2.9.2c0 0-.02.39 0 .4c-.5.1-1.2.3-2 .3c0 0 0-1.1 0-1.1c-.3.6-1 1.1-1.7 1.1c-1.1 0-1.7-.6-1.7-1.6c0-1.5 1.3-1.8 3.4-2zm0 2.2c0 0 0-1.7 0-1.7c-1.5.1-2.3.4-2.3 1.3c0 .7.4 1 1.1 1c.5 0 .9-.2 1.2-.6zm2.5-4.3c0 0 .05-.38 0-.4c.5-.1 1.2-.2 2.1-.2c0 0 0 4.3 0 4.3c0 .8.3 1.2 1.1 1.2c.7 0 1.3-.3 1.6-.6c.03-.04 0-4.1 0-4.1l-.9-.2c0 0 .05-.38 0-.4c.5-.1 1.2-.2 2.1-.2c-.02-.04 0 5.4 0 5.4l.9.2c0 0-.04.39 0 .4c-.5.1-1.2.3-2.1.3c0 0 0-1 0-1c-.4.6-1.1 1-2 1c-1.1 0-1.9-.6-1.9-1.8c.03.04 0-3.7 0-3.7l-.9-.2zm10.7-.7c.6 0 1.1.2 1.4.5c-.04-.02 0-2.5 0-2.5l-1.1-.2c0 0 .02-.39 0-.4c.5-.1 1.4-.3 2.2-.3c0 .05 0 8.4 0 8.4l.9.2c0 0-.01.39 0 .4c-.5.1-1.2.3-2 .3c0 0 0-1.2 0-1.2c-.4.7-1.1 1.2-1.9 1.2c-1.4 0-2.4-1.1-2.4-3.1c0-2 1.2-3.3 2.9-3.3zm1.4 4.9c0 0 0-4.1 0-4.1c-.3-.1-.6-.1-1-.1c-1.3 0-2.1.9-2.1 2.5c0 1.6.6 2.4 1.7 2.4c.5 0 1-.3 1.4-.7zm3.8-7c0-.2 0-.4 0-.5c.2 0 .4 0 .6 0c.2 0 .4 0 .6 0c0 .1 0 .3 0 .5c0 .4 0 .7-.1.9c-.2.1-.4.1-.5.1c-.2 0-.4 0-.5-.1c-.1-.2-.1-.5-.1-.9zm0 7.7c-.04.02 0-4.7 0-4.7l-.9-.2c0 0-.03-.38 0-.4c.4-.1 1.2-.2 2-.2c0 0 0 5.5 0 5.5c.4 0 .7.1.9.2c.04.03 0 .4 0 .4l-3 0c0 0 .02-.37 0-.4c.3-.1.6-.2 1-.2zm5.2-7.8c0 0-.04-.39 0-.4c.4-.1 1.2-.3 2-.3c0 0 0 4.1 0 4.1c.3-.7 1.1-1.1 1.9-1.1c1.4 0 2.3.9 2.3 2.9c0 2.1-1.2 3.4-2.9 3.4c-.5 0-1.1-.2-1.4-.5c-.03-.03-.5.4-.5.4l-.6 0l0-8.3l-.8-.2zm2 3.8c0 0 0 3.9 0 3.9c.3.1.6.2 1 .2c1.2 0 2.1-.9 2.1-2.6c0-1.6-.7-2.2-1.7-2.2c-.6 0-1.1.3-1.4.7zm8.3-1.5c1.5 0 2.3.7 2.3 2.2c0 .3 0 .4-.1.7c.04-.03-3.9 0-3.9 0c0 0 .04.08 0 .1c0 1.7.9 2.4 2 2.4c.7 0 1.2-.3 1.6-.8c0 0 .3.2.3.2c-.4.9-1.2 1.5-2.2 1.5c-1.6 0-2.9-1-2.9-3.2c0-2 1.3-3.1 2.9-3.1zm-1.6 2.3c-.02 0 2.7 0 2.7 0c0 0 .05-.21 0-.2c0-1.1-.4-1.6-1.1-1.6c-.8 0-1.5.5-1.6 1.8zm8.4.4c0 0 0-1 0-1c0-.8-.5-1.1-1.2-1.1c-.3 0-.6 0-.9.1c.02-.04-.2 1.2-.2 1.2c0 0-.67.04-.7 0c-.1-.2-.1-.6-.1-.9c0-.2 0-.3 0-.4c.6-.5 1.5-.6 2.3-.6c1.3 0 1.9.5 1.9 1.5c0 .7 0 2.7 0 3.9c-.04.03.8.2.8.2c0 0 .04.39 0 .4c-.4.1-1.1.3-1.9.3c0 0 0-1.1 0-1.1c-.4.6-1 1.1-1.8 1.1c-1 0-1.7-.6-1.7-1.6c0-1.5 1.4-1.8 3.5-2zm0 2.2c0 0 0-1.7 0-1.7c-1.6.1-2.3.4-2.3 1.3c0 .7.4 1 1 1c.5 0 1-.2 1.3-.6zm3.3-4.9c0 0 .1-1.2.1-1.2c.3 0 .7-.1 1-.1c.04.01 0 1.4 0 1.4l1.6 0l0 .6l-1.6 0c0 0-.02 3.89 0 3.9c0 .7.2.9.7.9c.3 0 .6-.1.9-.4c0 0 .3.2.3.2c-.4.7-1 1-1.7 1c-.9 0-1.4-.5-1.4-1.6c.04.04.1-4 .1-4l-.9 0c0 0-.04-.38 0-.4c.1 0 .5-.2.9-.3zm3.4.6c0 0-.03-.38 0-.4c.4-.1 1.2-.2 2-.2c0 0 0 4.3 0 4.3c0 .8.3 1.2 1.1 1.2c.7 0 1.3-.3 1.7-.6c-.04-.04 0-4.1 0-4.1l-.9-.2c0 0-.03-.38 0-.4c.4-.1 1.2-.2 2-.2c0-.04 0 5.4 0 5.4l.9.2c0 0-.02.39 0 .4c-.5.1-1.2.3-2 .3c0 0 0-1 0-1c-.4.6-1.2 1-2.1 1c-1.1 0-1.8-.6-1.8-1.8c-.04.04 0-3.7 0-3.7l-.9-.2zm8.6 4.9c-.05.02 0-4.7 0-4.7l-.9-.2c0 0-.03-.38 0-.4c.4-.1 1.2-.2 2-.2c0 0 0 .9 0 .9c.3-.6 1.1-.9 1.8-.9c.2 0 .5 0 .7.1c0 .6-.1 1.4-.2 1.8c-.02-.02-.7 0-.7 0l-.2-1.2c0 0-.03.04 0 0c-.5 0-1.1.3-1.4.7c0 0 0 4.1 0 4.1c.5 0 .9.1 1.2.2c-.01.03 0 .4 0 .4l-3.3 0c0 0 .02-.37 0-.4c.3-.1.6-.2 1-.2zm7.2-1.2c.04-.02.7 0 .7 0c0 0 .2 1.31.2 1.3c.3.1.6.1.9.1c.7 0 1.4-.3 1.4-1.1c0-.5-.4-.8-1.1-1c0 0-.8-.2-.8-.2c-.9-.3-1.4-.8-1.4-1.7c0-1.1 1-1.8 2.2-1.8c.8 0 1.6.2 1.9.4c0 0 0 .2 0 .2c0 .4-.1 1-.2 1.4c-.01-.02-.7 0-.7 0c0 0-.16-1.3-.2-1.3c-.2-.1-.5-.1-.8-.1c-.7 0-1.2.3-1.2.9c0 .6.3.9.9 1.1c0 0 .7.2.7.2c1.1.3 1.7.7 1.7 1.7c0 1.1-1 1.9-2.4 1.9c-.8 0-1.7-.2-2-.4c0 0 0-.2 0-.2c0-.4.1-1 .2-1.4zm8.1-4.3c1.5 0 2.3.7 2.3 2.2c0 .3 0 .4-.1.7c.04-.03-3.9 0-3.9 0c0 0 .04.08 0 .1c0 1.7.9 2.4 2 2.4c.7 0 1.2-.3 1.6-.8c0 0 .3.2.3.2c-.4.9-1.2 1.5-2.2 1.5c-1.6 0-2.9-1-2.9-3.2c0-2 1.3-3.1 2.9-3.1zm-1.6 2.3c-.02 0 2.7 0 2.7 0c0 0 .05-.21 0-.2c0-1.1-.4-1.6-1.1-1.6c-.8 0-1.5.5-1.6 1.8zm7.9-2.3c.6 0 1.1.2 1.4.5c.1-.3.4-.6.6-.7c.02-.05.5 0 .5 0c0 0-.01 8.17 0 8.2c.4 0 .7.1.9.2c.03-.02 0 .4 0 .4l-3.1 0c0 0-.04-.42 0-.4c.3-.1.7-.2 1-.2c0 0 0-2.9 0-2.9c-.3.7-1 1.2-1.8 1.2c-1.4 0-2.4-1.1-2.4-3.1c0-2 1.2-3.2 2.9-3.2zm1.3 4.7c0 0 0-3.9 0-3.9c-.2-.1-.5-.2-.9-.2c-1.3 0-2.1.9-2.1 2.5c0 1.6.6 2.3 1.6 2.3c.6 0 1.1-.2 1.4-.7zm2.5-4.1c0 0 .04-.38 0-.4c.5-.1 1.2-.2 2.1-.2c0 0 0 4.3 0 4.3c0 .8.3 1.2 1.1 1.2c.7 0 1.3-.3 1.6-.6c.03-.04 0-4.1 0-4.1l-.9-.2c0 0 .04-.38 0-.4c.5-.1 1.2-.2 2.1-.2c-.03-.04 0 5.4 0 5.4l.9.2c0 0-.04.39 0 .4c-.5.1-1.2.3-2.1.3c0 0 0-1 0-1c-.4.6-1.1 1-2.1 1c-1 0-1.8-.6-1.8-1.8c.03.04 0-3.7 0-3.7l-.9-.2zm10.6-.6c1.5 0 2.3.7 2.3 2.2c0 .3 0 .4-.1.7c.04-.03-3.9 0-3.9 0c0 0 .04.08 0 .1c0 1.7.9 2.4 2 2.4c.7 0 1.2-.3 1.6-.8c0 0 .3.2.3.2c-.4.9-1.2 1.5-2.3 1.5c-1.5 0-2.8-1-2.8-3.2c0-2 1.3-3.1 2.9-3.1zm-1.6 2.3c-.03 0 2.7 0 2.7 0c0 0 .04-.21 0-.2c0-1.1-.4-1.6-1.2-1.6c-.7 0-1.4.5-1.5 1.8zm7.2-1.8c-.04-.02 0-.4 0-.4l2.6 0c0 0 .02.38 0 .4c-.2.1-.5.2-.9.2c.01-.01 1.5 4 1.5 4c0 0 1.56-4.01 1.6-4c-.4-.1-.7-.1-.9-.2c.02-.02 0-.4 0-.4l2.3 0c0 0-.05.38 0 .4c-.3.1-.4.1-.6.2c-.01-.04-2.3 5.4-2.3 5.4l-.6 0c0 0-2.19-5.44-2.2-5.4c-.2-.1-.4-.1-.5-.2zm9.3-.5c1.8 0 2.8 1 2.8 3.1c0 2-1.2 3.2-2.9 3.2c-1.8 0-2.7-1.1-2.7-3.2c0-2 1.1-3.1 2.8-3.1zm1.5 3.2c0-1.8-.5-2.7-1.5-2.7c-1 0-1.6.7-1.6 2.5c0 1.8.6 2.7 1.6 2.7c.9 0 1.5-.7 1.5-2.5zm2.9 2.3c-.01.02 0-7.6 0-7.6l-.9-.2c0 0 .01-.39 0-.4c.5-.1 1.2-.3 2-.3c0 0 0 8.5 0 8.5c.4 0 .7.1 1 .2c-.03.03 0 .4 0 .4l-3 0c0 0-.04-.37 0-.4c.2-.1.5-.2.9-.2zm3.7 0c.04.02 0-7.6 0-7.6l-.8-.2c0 0-.05-.39 0-.4c.4-.1 1.1-.3 2-.3c0 0 0 8.5 0 8.5c.3 0 .7.1.9.2c.02.03 0 .4 0 .4l-3 0c0 0 0-.37 0-.4c.3-.1.6-.2.9-.2zm6.4-2.8c0 0 0-1 0-1c0-.8-.4-1.1-1.2-1.1c-.3 0-.6 0-.9.1c.04-.04-.2 1.2-.2 1.2c0 0-.66.04-.7 0c0-.2-.1-.6-.1-.9c0-.2 0-.3.1-.4c.5-.5 1.4-.6 2.3-.6c1.2 0 1.8.5 1.8 1.5c0 .7 0 2.7 0 3.9c-.03.03.9.2.9.2c0 0-.04.39 0 .4c-.5.1-1.2.3-2 .3c0 0 0-1.1 0-1.1c-.4.6-1 1.1-1.7 1.1c-1.1 0-1.8-.6-1.8-1.6c0-1.5 1.4-1.8 3.5-2zm0 2.2c0 0 0-1.7 0-1.7c-1.6.1-2.3.4-2.3 1.3c0 .7.4 1 1 1c.5 0 1-.2 1.3-.6zm2.4-7.2c0 0 .02-.39 0-.4c.5-.1 1.2-.3 2.1-.3c0 0 0 4.1 0 4.1c.3-.7 1.1-1.1 1.9-1.1c1.4 0 2.3.9 2.3 2.9c0 2.1-1.2 3.4-2.9 3.4c-.5 0-1.1-.2-1.5-.5c.03-.03-.5.4-.5.4l-.5 0l0-8.3l-.9-.2zm2.1 3.8c0 0 0 3.9 0 3.9c.2.1.5.2.9.2c1.3 0 2.1-.9 2.1-2.6c0-1.6-.6-2.2-1.6-2.2c-.6 0-1.1.3-1.4.7zm8.3-1.5c1.8 0 2.7 1 2.7 3.1c0 2-1.2 3.2-2.9 3.2c-1.8 0-2.7-1.1-2.7-3.2c0-2 1.1-3.1 2.9-3.1zm1.5 3.2c0-1.8-.6-2.7-1.6-2.7c-.9 0-1.5.7-1.5 2.5c0 1.8.5 2.7 1.5 2.7c1 0 1.6-.7 1.6-2.5zm2.3 2.2c0-.6.3-.9.9-.9c.6 0 .9.3.9.9c0 .5-.3.9-.9.9c-.6 0-.9-.4-.9-.9z" stroke="none" fill="#404040"/></g><g id="Polygon13115"><path d="m1.5 26.2c0 0 0-7 0-7c-.5 0-.8-.1-1.1-.2c.02 0 0-.5 0-.5l3.3 0c0 0 .04.5 0 .5c-.2.1-.6.2-1 .2c0 0 0 7 0 7c.4 0 .8.1 1 .2c.04-.02 0 .4 0 .4l-3.3 0c0 0 .02-.42 0-.4c.3-.1.6-.2 1.1-.2zm3.8-5.5c0 0 .1-1.2.1-1.2c.3 0 .7-.1 1-.1c.05.01 0 1.4 0 1.4l1.6 0l0 .6l-1.6 0c0 0 0 3.89 0 3.9c0 .7.3.9.7.9c.3 0 .6-.1.9-.4c0 0 .3.2.3.2c-.4.7-1 1-1.6 1c-1 0-1.5-.5-1.4-1.6c-.05.04 0-4 0-4l-.9 0c0 0-.03-.38 0-.4c.1 0 .5-.2.9-.3zm7.2 2.7c0 0 0-1 0-1c0-.8-.4-1.1-1.2-1.1c-.3 0-.6 0-.9.1c.04-.04-.2 1.2-.2 1.2c0 0-.66.04-.7 0c0-.2-.1-.6-.1-.9c0-.2 0-.3.1-.4c.5-.5 1.4-.6 2.3-.6c1.2 0 1.8.5 1.8 1.5c0 .7 0 2.7 0 3.9c-.03.03.9.2.9.2c0 0-.04.39 0 .4c-.5.1-1.2.3-2 .3c0 0 0-1.1 0-1.1c-.4.6-1 1.1-1.7 1.1c-1.1 0-1.8-.6-1.8-1.6c0-1.5 1.4-1.8 3.5-2zm0 2.2c0 0 0-1.7 0-1.7c-1.6.1-2.3.4-2.3 1.3c0 .7.4 1 1 1c.5 0 1-.2 1.3-.6zm3.2-.6c0-.02.7 0 .7 0c0 0 .16 1.31.2 1.3c.2.1.5.1.8.1c.8 0 1.4-.3 1.4-1.1c0-.5-.4-.8-1.1-1c0 0-.7-.2-.7-.2c-.9-.3-1.4-.8-1.4-1.7c0-1.1.9-1.8 2.2-1.8c.8 0 1.5.2 1.9.4c0 0 0 .2 0 .2c-.1.4-.1 1-.3 1.4c.05-.02-.6 0-.6 0c0 0-.2-1.3-.2-1.3c-.3-.1-.6-.1-.8-.1c-.7 0-1.2.3-1.2.9c0 .6.3.9.9 1.1c0 0 .7.2.7.2c1.1.3 1.7.7 1.7 1.7c0 1.1-1 1.9-2.5 1.9c-.8 0-1.6-.2-1.9-.4c0 0 0-.2 0-.2c0-.4.1-1 .2-1.4zm8.7-6.5c0-.2.1-.4.1-.5c.2 0 .4 0 .6 0c.2 0 .4 0 .5 0c.1.1.1.3.1.5c0 .4-.1.7-.1.9c-.2.1-.4.1-.5.1c-.2 0-.4 0-.6-.1c0-.2-.1-.5-.1-.9zm0 7.7c.04.02 0-4.7 0-4.7l-.8-.2c0 0-.04-.38 0-.4c.4-.1 1.2-.2 2-.2c0 0 0 5.5 0 5.5c.3 0 .7.1.9.2c.02.03 0 .4 0 .4l-3 0c0 0 0-.37 0-.4c.3-.1.6-.2.9-.2zm3.7 0c.03.02 0-7.6 0-7.6l-.9-.2c0 0 .05-.39 0-.4c.5-.1 1.2-.3 2.1-.3c0 0 0 8.5 0 8.5c.3 0 .7.1.9.2c.01.03 0 .4 0 .4l-3 0c0 0 0-.37 0-.4c.3-.1.6-.2.9-.2zm3.8-7.7c0-.2.1-.4.1-.5c.2 0 .3 0 .6 0c.2 0 .3 0 .5 0c0 .1.1.3.1.5c0 .4-.1.7-.1.9c-.2.1-.4.1-.5.1c-.2 0-.4 0-.6-.1c0-.2-.1-.5-.1-.9zm0 7.7c.03.02 0-4.7 0-4.7l-.9-.2c0 0 .04-.38 0-.4c.5-.1 1.2-.2 2.1-.2c0 0 0 5.5 0 5.5c.3 0 .6.1.9.2c.01.03 0 .4 0 .4l-3 0c0 0-.01-.37 0-.4c.3-.1.6-.2.9-.2zm3.6-5.5c0 0 .1-1.2.1-1.2c.2 0 .7-.1 1-.1c.01.01 0 1.4 0 1.4l1.6 0l0 .6l-1.6 0c0 0-.04 3.89 0 3.9c0 .7.2.9.7.9c.3 0 .5-.1.9-.4c0 0 .2.2.2.2c-.4.7-.9 1-1.6 1c-.9 0-1.4-.5-1.4-1.6c.01.04.1-4 .1-4l-1 0c0 0 .03-.38 0-.4c.2 0 .5-.2 1-.3zm7-2.2c0-.2 0-.4 0-.5c.2 0 .4 0 .6 0c.2 0 .4 0 .6 0c0 .1 0 .3 0 .5c0 .4 0 .7-.1.9c-.1.1-.3.1-.5.1c-.1 0-.4 0-.5-.1c-.1-.2-.1-.5-.1-.9zm0 7.7c-.02.02 0-4.7 0-4.7l-.9-.2c0 0 0-.38 0-.4c.5-.1 1.2-.2 2-.2c0 0 0 5.5 0 5.5c.4 0 .7.1 1 .2c-.04.03 0 .4 0 .4l-3.1 0c0 0 .05-.37 0-.4c.3-.1.6-.2 1-.2zm3.7 0c.03.02 0-4.7 0-4.7l-.9-.2c0 0 .04-.38 0-.4c.5-.1 1.2-.2 2.1-.2c0 0 0 1 0 1c.3-.7 1.1-1.1 2.1-1.1c1 0 1.8.6 1.8 1.8c0 0 0 3.8 0 3.8c.3 0 .6.1.9.2c.01.03 0 .4 0 .4l-3 0c0 0-.01-.37 0-.4c.3-.1.6-.2.9-.2c0 0 0-3.6 0-3.6c0-.7-.4-1.1-1.2-1.1c-.6 0-1.2.2-1.5.6c0 0 0 4.1 0 4.1c.3 0 .6.1.9.2c.01.03 0 .4 0 .4l-3 0c0 0-.01-.37 0-.4c.3-.1.6-.2.9-.2zm10.3 0c.02.02 0-4.7 0-4.7l-.9-.2c0 0 .04-.38 0-.4c.5-.1 1.2-.2 2.1-.2c0 0 0 1 0 1c.3-.7 1.1-1.1 2-1.1c1.1 0 1.9.6 1.9 1.8c0 0 0 3.8 0 3.8c.3 0 .6.1.9.2c0 .03 0 .4 0 .4l-3 0c0 0-.01-.37 0-.4c.2-.1.6-.2.9-.2c0 0 0-3.6 0-3.6c0-.7-.4-1.1-1.2-1.1c-.6 0-1.2.2-1.5.6c0 0 0 4.1 0 4.1c.3 0 .6.1.9.2c0 .03 0 .4 0 .4l-3 0c0 0-.01-.37 0-.4c.2-.1.6-.2.9-.2zm10.3-2.8c0 0 0-1 0-1c0-.8-.4-1.1-1.2-1.1c-.3 0-.6 0-.9.1c.03-.04-.2 1.2-.2 1.2c0 0-.67.04-.7 0c0-.2-.1-.6-.1-.9c0-.2 0-.3 0-.4c.6-.5 1.5-.6 2.3-.6c1.3 0 1.9.5 1.9 1.5c0 .7 0 2.7 0 3.9c-.04.03.8.2.8.2c0 0 .04.39 0 .4c-.4.1-1.1.3-1.9.3c0 0 0-1.1 0-1.1c-.4.6-1 1.1-1.7 1.1c-1.1 0-1.8-.6-1.8-1.6c0-1.5 1.4-1.8 3.5-2zm0 2.2c0 0 0-1.7 0-1.7c-1.6.1-2.3.4-2.3 1.3c0 .7.4 1 1 1c.5 0 1-.2 1.3-.6zm3.3-4.9c0 0 .1-1.2.1-1.2c.3 0 .7-.1 1-.1c.04.01 0 1.4 0 1.4l1.6 0l0 .6l-1.6 0c0 0-.01 3.89 0 3.9c0 .7.2.9.7.9c.3 0 .6-.1.9-.4c0 0 .3.2.3.2c-.4.7-1 1-1.7 1c-.9 0-1.4-.5-1.4-1.6c.04.04.1-4 .1-4l-.9 0c0 0-.04-.38 0-.4c.1 0 .5-.2.9-.3zm3.4.6c0 0-.03-.38 0-.4c.4-.1 1.2-.2 2-.2c0 0 0 4.3 0 4.3c0 .8.3 1.2 1.1 1.2c.7 0 1.3-.3 1.7-.6c-.04-.04 0-4.1 0-4.1l-.9-.2c0 0-.03-.38 0-.4c.4-.1 1.2-.2 2-.2c0-.04 0 5.4 0 5.4l.9.2c0 0-.01.39 0 .4c-.5.1-1.2.3-2 .3c0 0 0-1 0-1c-.4.6-1.2 1-2.1 1c-1.1 0-1.8-.6-1.8-1.8c-.04.04 0-3.7 0-3.7l-.9-.2zm8 3.7c.03-.02.7 0 .7 0c0 0 .19 1.31.2 1.3c.3.1.6.1.9.1c.7 0 1.4-.3 1.4-1.1c0-.5-.4-.8-1.1-1c0 0-.8-.2-.8-.2c-.9-.3-1.4-.8-1.4-1.7c0-1.1 1-1.8 2.2-1.8c.8 0 1.6.2 1.9.4c0 0 0 .2 0 .2c0 .4-.1 1-.2 1.4c-.02-.02-.7 0-.7 0c0 0-.17-1.3-.2-1.3c-.2-.1-.5-.1-.8-.1c-.7 0-1.2.3-1.2.9c0 .6.3.9.9 1.1c0 0 .7.2.7.2c1.1.3 1.7.7 1.7 1.7c0 1.1-1 1.9-2.4 1.9c-.8 0-1.7-.2-2-.4c0 0 0-.2 0-.2c0-.4.1-1 .2-1.4zm11.3-1.6c0 0 0-1 0-1c0-.8-.4-1.1-1.2-1.1c-.2 0-.5 0-.8.1c-.02-.04-.2 1.2-.2 1.2c0 0-.72.04-.7 0c-.1-.2-.1-.6-.1-.9c0-.2 0-.3 0-.4c.6-.5 1.4-.6 2.3-.6c1.2 0 1.9.5 1.9 1.5c0 .7-.1 2.7-.1 3.9c.01.03.9.2.9.2c0 0-.01.39 0 .4c-.5.1-1.1.3-2 .3c0 0 0-1.1 0-1.1c-.3.6-1 1.1-1.7 1.1c-1.1 0-1.7-.6-1.7-1.6c0-1.5 1.4-1.8 3.4-2zm0 2.2c0 0 0-1.7 0-1.7c-1.5.1-2.3.4-2.3 1.3c0 .7.4 1 1.1 1c.5 0 .9-.2 1.2-.6zm2.6-4.3c0 0-.03-.38 0-.4c.4-.1 1.2-.2 2-.2c0 0 0 4.3 0 4.3c0 .8.3 1.2 1.1 1.2c.7 0 1.3-.3 1.7-.6c-.05-.04 0-4.1 0-4.1l-.9-.2c0 0-.03-.38 0-.4c.4-.1 1.2-.2 2-.2c-.01-.04 0 5.4 0 5.4l.9.2c0 0-.02.39 0 .4c-.5.1-1.2.3-2 .3c0 0 0-1 0-1c-.4.6-1.2 1-2.1 1c-1.1 0-1.8-.6-1.8-1.8c-.05.04 0-3.7 0-3.7l-.9-.2zm8.4-.6c0 0 0-1.2 0-1.2c.3 0 .8-.1 1.1-.1c-.02.01 0 1.4 0 1.4l1.5 0l0 .6l-1.5 0c0 0-.07 3.89-.1 3.9c0 .7.3.9.8.9c.3 0 .5-.1.8-.4c0 0 .3.2.3.2c-.4.7-1 1-1.6 1c-.9 0-1.4-.5-1.4-1.6c-.01.04 0-4 0-4l-.9 0c0 0 0-.38 0-.4c.2 0 .5-.2 1-.3zm7.1 2.7c0 0 0-1 0-1c0-.8-.4-1.1-1.2-1.1c-.2 0-.5 0-.8.1c-.03-.04-.2 1.2-.2 1.2c0 0-.72.04-.7 0c-.1-.2-.2-.6-.2-.9c0-.2.1-.3.1-.4c.6-.5 1.4-.6 2.3-.6c1.2 0 1.9.5 1.9 1.5c0 .7-.1 2.7-.1 3.9c.01.03.9.2.9.2c0 0-.01.39 0 .4c-.5.1-1.2.3-2 .3c0 0 0-1.1 0-1.1c-.3.6-1 1.1-1.7 1.1c-1.1 0-1.7-.6-1.7-1.6c0-1.5 1.3-1.8 3.4-2zm0 2.2c0 0 0-1.7 0-1.7c-1.5.1-2.3.4-2.3 1.3c0 .7.4 1 1.1 1c.5 0 .9-.2 1.2-.6zm3.2-.6c.04-.02.7 0 .7 0c0 0 .2 1.31.2 1.3c.3.1.6.1.9.1c.7 0 1.4-.3 1.4-1.1c0-.5-.4-.8-1.1-1c0 0-.8-.2-.8-.2c-.9-.3-1.4-.8-1.4-1.7c0-1.1 1-1.8 2.2-1.8c.8 0 1.6.2 1.9.4c0 0 0 .2 0 .2c0 .4-.1 1-.2 1.4c-.02-.02-.7 0-.7 0c0 0-.16-1.3-.2-1.3c-.2-.1-.5-.1-.8-.1c-.7 0-1.2.3-1.2.9c0 .6.3.9.9 1.1c0 0 .7.2.7.2c1.1.3 1.7.7 1.7 1.7c0 1.1-1 1.9-2.4 1.9c-.8 0-1.7-.2-2-.4c0 0 0-.2 0-.2c0-.4.1-1 .2-1.4zm8.8 1.2c-.03.02 0-4.7 0-4.7l-.9-.2c0 0-.01-.38 0-.4c.5-.1 1.2-.2 2-.2c0 0 0 1 0 1c.4-.7 1.2-1.1 2.1-1.1c1.1 0 1.8.6 1.8 1.8c0 0 0 3.8 0 3.8c.4 0 .7.1 1 .2c-.05.03 0 .4 0 .4l-3.1 0c0 0 .04-.37 0-.4c.3-.1.6-.2 1-.2c0 0 0-3.6 0-3.6c0-.7-.4-1.1-1.3-1.1c-.6 0-1.1.2-1.5.6c0 0 0 4.1 0 4.1c.4 0 .7.1 1 .2c-.05.03 0 .4 0 .4l-3.1 0c0 0 .04-.37 0-.4c.3-.1.6-.2 1-.2zm9.6-5.5c1.5 0 2.3.7 2.3 2.2c0 .3 0 .4 0 .7c-.04-.03-3.9 0-3.9 0c0 0-.04.08 0 .1c0 1.7.8 2.4 1.9 2.4c.7 0 1.2-.3 1.6-.8c0 0 .3.2.3.2c-.4.9-1.1 1.5-2.2 1.5c-1.6 0-2.8-1-2.8-3.2c0-2 1.3-3.1 2.8-3.1zm-1.6 2.3c0 0 2.8 0 2.8 0c0 0-.04-.21 0-.2c0-1.1-.5-1.6-1.2-1.6c-.8 0-1.4.5-1.6 1.8zm8-2.3c.6 0 1.3.2 1.6.4c0 .4 0 1.1-.2 1.5c.02.04-.7 0-.7 0c0 0-.14-1.3-.1-1.3c-.3 0-.5-.1-.7-.1c-.9 0-1.8.7-1.8 2.5c0 1.6.8 2.4 1.9 2.4c.6 0 1.1-.3 1.5-.8c0 0 .3.2.3.2c-.4.9-1.1 1.5-2.2 1.5c-1.6 0-2.7-1.1-2.7-3.2c0-2 1.3-3.1 3.1-3.1zm3.4 0c0 0 0-1.2 0-1.2c.3 0 .8-.1 1.1-.1c-.01.01 0 1.4 0 1.4l1.5 0l0 .6l-1.5 0c0 0-.06 3.89-.1 3.9c0 .7.3.9.8.9c.3 0 .5-.1.8-.4c0 0 .3.2.3.2c-.4.7-1 1-1.6 1c-.9 0-1.4-.5-1.4-1.6c-.01.04 0-4 0-4l-.9 0c0 0 .01-.38 0-.4c.2 0 .5-.2 1-.3zm4.4-2.2c0-.2 0-.4 0-.5c.2 0 .4 0 .6 0c.2 0 .4 0 .6 0c0 .1 0 .3 0 .5c0 .4 0 .7-.1.9c-.1.1-.4.1-.5.1c-.2 0-.4 0-.5-.1c-.1-.2-.1-.5-.1-.9zm0 7.7c-.04.02 0-4.7 0-4.7l-.9-.2c0 0-.02-.38 0-.4c.4-.1 1.2-.2 2-.2c0 0 0 5.5 0 5.5c.4 0 .7.1.9.2c.04.03 0 .4 0 .4l-3 0c0 0 .03-.37 0-.4c.3-.1.6-.2 1-.2zm5.5-5.5c1.8 0 2.8 1 2.8 3.1c0 2-1.2 3.2-2.9 3.2c-1.8 0-2.7-1.1-2.7-3.2c0-2 1.1-3.1 2.8-3.1zm1.5 3.2c0-1.8-.5-2.7-1.5-2.7c-1 0-1.6.7-1.6 2.5c0 1.8.6 2.7 1.6 2.7c.9 0 1.5-.7 1.5-2.5zm2.4 2.2c0-.6.3-.9.9-.9c.5 0 .8.3.8.9c0 .5-.3.9-.8.9c-.6 0-.9-.4-.9-.9z" stroke="none" fill="#404040"/></g><g id="Polygon13114"><path d="m1.5 9.7c0 0 0-7 0-7c-.5 0-.8-.1-1.1-.2c.02 0 0-.5 0-.5l3.3 0c0 0 .04.5 0 .5c-.2.1-.6.2-1 .2c0 0 0 3.1 0 3.1l4 0c0 0 .01-3.1 0-3.1c-.4 0-.7-.1-1-.2c-.03 0 0-.5 0-.5l3.3 0c0 0 0 .5 0 .5c-.3.1-.6.2-1 .2c0 0 0 7 0 7c.4 0 .7.1 1 .2c0-.02 0 .4 0 .4l-3.3 0c0 0-.03-.42 0-.4c.3-.1.6-.2 1-.2c.01-.03 0-3.2 0-3.2l-4 0c0 0 0 3.17 0 3.2c.4 0 .8.1 1 .2c.04-.02 0 .4 0 .4l-3.3 0c0 0 .02-.42 0-.4c.3-.1.6-.2 1.1-.2zm11.8-2.8c0 0 0-1 0-1c0-.8-.4-1.1-1.2-1.1c-.2 0-.5 0-.8.1c-.03-.04-.3 1.2-.3 1.2c0 0-.63.04-.6 0c-.1-.2-.2-.6-.2-.9c0-.2.1-.3.1-.4c.6-.5 1.4-.6 2.3-.6c1.2 0 1.9.5 1.9 1.5c0 .7-.1 2.7-.1 3.9c0 .03.9.2.9.2c0 0-.01.39 0 .4c-.5.1-1.2.3-2 .3c0 0 0-1.1 0-1.1c-.3.6-1 1.1-1.7 1.1c-1.1 0-1.7-.6-1.7-1.6c0-1.5 1.3-1.8 3.4-2zm0 2.2c0 0 0-1.7 0-1.7c-1.5.1-2.3.4-2.3 1.3c0 .7.4 1 1.1 1c.5 0 .9-.2 1.2-.6zm3.8.6c-.04.02 0-4.7 0-4.7l-.9-.2c0 0-.03-.38 0-.4c.4-.1 1.2-.2 2-.2c0 0 0 .9 0 .9c.3-.6 1.1-.9 1.8-.9c.3 0 .5 0 .7.1c0 .6-.1 1.4-.2 1.8c-.01-.02-.7 0-.7 0l-.2-1.2c0 0-.02.04 0 0c-.5 0-1.1.3-1.4.7c0 0 0 4.1 0 4.1c.5 0 .9.1 1.2.2c0 .03 0 .4 0 .4l-3.3 0c0 0 .02-.37 0-.4c.3-.1.6-.2 1-.2zm7.2-5.5c.7 0 1.3.2 1.7.4c0 .4-.1 1.1-.2 1.5c-.05.04-.7 0-.7 0c0 0-.21-1.3-.2-1.3c-.2 0-.5-.1-.7-.1c-.9 0-1.7.7-1.7 2.5c0 1.6.8 2.4 1.8 2.4c.7 0 1.1-.3 1.6-.8c0 0 .2.2.2.2c-.4.9-1.1 1.5-2.2 1.5c-1.5 0-2.6-1.1-2.6-3.2c0-2 1.3-3.1 3-3.1zm3.3 5.5c.02.02 0-7.6 0-7.6l-.9-.2c0 0 .04-.39 0-.4c.5-.1 1.2-.3 2.1-.3c0 0 0 4 0 4c.3-.7 1.1-1.1 2-1.1c1.1 0 1.9.6 1.9 1.8c0 0 0 3.8 0 3.8c.3 0 .6.1.9.2c0 .03 0 .4 0 .4l-3 0c0 0-.01-.37 0-.4c.2-.1.6-.2.9-.2c0 0 0-3.6 0-3.6c0-.7-.4-1.1-1.2-1.1c-.6 0-1.2.2-1.5.6c0 0 0 4.1 0 4.1c.3 0 .6.1.9.2c0 .03 0 .4 0 .4l-3 0c0 0-.01-.37 0-.4c.2-.1.6-.2.9-.2zm7.7-7.7c0-.2 0-.4.1-.5c.2 0 .3 0 .5 0c.3 0 .4 0 .6 0c0 .1.1.3.1.5c0 .4-.1.7-.1.9c-.2.1-.4.1-.6.1c-.1 0-.3 0-.5-.1c0-.2-.1-.5-.1-.9zm0 7.7c.02.02 0-4.7 0-4.7l-.9-.2c0 0 .04-.38 0-.4c.5-.1 1.2-.2 2.1-.2c0 0 0 5.5 0 5.5c.3 0 .6.1.9.2c0 .03 0 .4 0 .4l-3 0c0 0-.02-.37 0-.4c.2-.1.6-.2.9-.2zm3.7 0c.01.02 0-7.6 0-7.6l-.9-.2c0 0 .03-.39 0-.4c.5-.1 1.2-.3 2.1-.3c0 0 0 8.5 0 8.5c.3 0 .6.1.9.2c-.01.03 0 .4 0 .4l-3 0c0 0-.02-.37 0-.4c.2-.1.5-.2.9-.2zm6.4-7.7c0-.2 0-.4.1-.5c.1 0 .3 0 .5 0c.2 0 .4 0 .6 0c0 .1.1.3.1.5c0 .4-.1.7-.1.9c-.2.1-.4.1-.6.1c-.1 0-.3 0-.5-.1c0-.2-.1-.5-.1-.9zm0 7.7c.01.02 0-4.7 0-4.7l-.9-.2c0 0 .02-.38 0-.4c.5-.1 1.2-.2 2.1-.2c0 0 0 5.5 0 5.5c.3 0 .6.1.9.2c-.01.03 0 .4 0 .4l-3 0c0 0-.03-.37 0-.4c.2-.1.5-.2.9-.2zm3.6 2.5c.05-.03 0-7.2 0-7.2l-.8-.2c0 0-.04-.38 0-.4c.4-.1 1.2-.2 2-.2c0 0 0 1.1 0 1.1c.3-.7 1.1-1.2 1.9-1.2c1.4 0 2.4 1 2.4 3c0 2.1-1.3 3.4-3 3.4c-.5 0-1-.2-1.3-.4c0 0 0 2.1 0 2.1c.5 0 .8.1 1.1.2c-.02-.02 0 .4 0 .4l-3.2 0c0 0 .01-.42 0-.4c.3-.1.6-.2.9-.2zm1.2-6.6c0 0 0 4.1 0 4.1c.3.1.6.1 1 .1c1.2 0 2.1-.9 2.1-2.6c0-1.6-.7-2.3-1.7-2.3c-.5 0-1.1.3-1.4.7zm5.6 2.9c-.04-.02.6 0 .6 0c0 0 .21 1.31.2 1.3c.3.1.6.1.9.1c.8 0 1.4-.3 1.4-1.1c0-.5-.4-.8-1.1-1c0 0-.7-.2-.7-.2c-1-.3-1.5-.8-1.5-1.7c0-1.1 1-1.8 2.2-1.8c.8 0 1.6.2 1.9.4c0 0 0 .2 0 .2c0 .4-.1 1-.2 1.4c0-.02-.7 0-.7 0c0 0-.14-1.3-.1-1.3c-.3-.1-.6-.1-.9-.1c-.7 0-1.2.3-1.2.9c0 .6.3.9.9 1.1c0 0 .8.2.8.2c1 .3 1.6.7 1.6 1.7c0 1.1-1 1.9-2.4 1.9c-.8 0-1.6-.2-2-.4c0 0 0-.2 0-.2c.1-.4.1-1 .3-1.4zm8.6-1.6c0 0 0-1 0-1c0-.8-.4-1.1-1.2-1.1c-.2 0-.5 0-.8.1c0-.04-.2 1.2-.2 1.2c0 0-.7.04-.7 0c-.1-.2-.1-.6-.1-.9c0-.2 0-.3 0-.4c.6-.5 1.5-.6 2.3-.6c1.3 0 1.9.5 1.9 1.5c0 .7-.1 2.7-.1 3.9c.03.03.9.2.9.2c0 0 .02.39 0 .4c-.5.1-1.1.3-2 .3c0 0 0-1.1 0-1.1c-.3.6-.9 1.1-1.7 1.1c-1 0-1.7-.6-1.7-1.6c0-1.5 1.4-1.8 3.4-2zm0 2.2c0 0 0-1.7 0-1.7c-1.5.1-2.2.4-2.2 1.3c0 .7.3 1 1 1c.5 0 1-.2 1.2-.6zm11.4.6c0 0 0-3.6 0-3.6c0-.7-.4-1.1-1.2-1.1c-.6 0-1.1.2-1.5.6c0 0 0 4.1 0 4.1c.4 0 .7.1 1 .2c-.04.03 0 .4 0 .4l-3.1 0c0 0 .04-.37 0-.4c.3-.1.6-.2 1-.2c0 0 0-3.6 0-3.6c0-.7-.4-1.1-1.2-1.1c-.6 0-1.1.2-1.5.6c0 0 0 4.1 0 4.1c.4 0 .7.1 1 .2c-.04.03 0 .4 0 .4l-3.1 0c0 0 .05-.37 0-.4c.3-.1.6-.2 1-.2c-.02.02 0-4.7 0-4.7l-.9-.2c0 0 0-.38 0-.4c.5-.1 1.2-.2 2-.2c0 0 0 1 0 1c.4-.7 1.2-1.1 2.1-1.1c.9 0 1.4.4 1.6 1.1c.4-.6 1.2-1.1 2.2-1.1c1.1 0 1.7.6 1.7 1.8c0 0 0 3.8 0 3.8c.4 0 .7.1 1 .2c-.04.03 0 .4 0 .4l-3.1 0c0 0 .04-.37 0-.4c.3-.1.6-.2 1-.2zm2.7-4.9c0 0 .03-.38 0-.4c.5-.1 1.2-.2 2.1-.2c0 0 0 4.3 0 4.3c0 .8.3 1.2 1.1 1.2c.7 0 1.3-.3 1.6-.6c.02-.04 0-4.1 0-4.1l-.9-.2c0 0 .03-.38 0-.4c.5-.1 1.2-.2 2.1-.2c-.04-.04 0 5.4 0 5.4l.8.2c0 0 .04.39 0 .4c-.4.1-1.2.3-2 .3c0 0 0-1 0-1c-.4.6-1.2 1-2.1 1c-1.1 0-1.8-.6-1.8-1.8c.02.04 0-3.7 0-3.7l-.9-.2zm8.1 3.7c-.01-.02.7 0 .7 0c0 0 .15 1.31.2 1.3c.2.1.5.1.8.1c.8 0 1.4-.3 1.4-1.1c0-.5-.4-.8-1.1-1c0 0-.7-.2-.7-.2c-.9-.3-1.4-.8-1.4-1.7c0-1.1.9-1.8 2.2-1.8c.8 0 1.5.2 1.8.4c0 0 0 .2 0 .2c0 .4 0 1-.2 1.4c.04-.02-.6 0-.6 0c0 0-.21-1.3-.2-1.3c-.3-.1-.6-.1-.8-.1c-.8 0-1.2.3-1.2.9c0 .6.3.9.9 1.1c0 0 .7.2.7.2c1.1.3 1.7.7 1.7 1.7c0 1.1-1 1.9-2.5 1.9c-.8 0-1.6-.2-1.9-.4c0 0 0-.2 0-.2c0-.4.1-1 .2-1.4zm10.9-4.3c.6 0 1 .2 1.3.5c.2-.3.5-.6.7-.7c-.01-.05.5 0 .5 0c0 0-.04 8.17 0 8.2c.3 0 .6.1.9.2c-.01-.02 0 .4 0 .4l-3.2 0c0 0 .02-.42 0-.4c.3-.1.7-.2 1.1-.2c0 0 0-2.9 0-2.9c-.3.7-1 1.2-1.8 1.2c-1.5 0-2.5-1.1-2.5-3.1c0-2 1.3-3.2 3-3.2zm1.3 4.7c0 0 0-3.9 0-3.9c-.3-.1-.6-.2-1-.2c-1.2 0-2.1.9-2.1 2.5c0 1.6.7 2.3 1.7 2.3c.6 0 1.1-.2 1.4-.7zm2.5-4.1c0 0 .01-.38 0-.4c.5-.1 1.2-.2 2-.2c0 0 0 4.3 0 4.3c0 .8.3 1.2 1.2 1.2c.7 0 1.2-.3 1.6-.6c-.01-.04 0-4.1 0-4.1l-.9-.2c0 0 .01-.38 0-.4c.5-.1 1.2-.2 2-.2c.04-.04 0 5.4 0 5.4l.9.2c0 0 .02.39 0 .4c-.4.1-1.2.3-2 .3c0 0 0-1 0-1c-.4.6-1.2 1-2.1 1c-1.1 0-1.8-.6-1.8-1.8c-.01.04 0-3.7 0-3.7l-.9-.2zm11.1 2.1c0 0 0-1 0-1c0-.8-.4-1.1-1.2-1.1c-.2 0-.5 0-.8.1c-.01-.04-.2 1.2-.2 1.2c0 0-.7.04-.7 0c-.1-.2-.1-.6-.1-.9c0-.2 0-.3 0-.4c.6-.5 1.5-.6 2.3-.6c1.3 0 1.9.5 1.9 1.5c0 .7-.1 2.7-.1 3.9c.03.03.9.2.9.2c0 0 .01.39 0 .4c-.5.1-1.1.3-2 .3c0 0 0-1.1 0-1.1c-.3.6-.9 1.1-1.7 1.1c-1 0-1.7-.6-1.7-1.6c0-1.5 1.4-1.8 3.4-2zm0 2.2c0 0 0-1.7 0-1.7c-1.5.1-2.3.4-2.3 1.3c0 .7.4 1 1.1 1c.5 0 1-.2 1.2-.6zm3.4-4.9c0 0 .1-1.2.1-1.2c.2 0 .7-.1 1-.1c.01.01 0 1.4 0 1.4l1.6 0l0 .6l-1.6 0c0 0-.04 3.89 0 3.9c0 .7.2.9.7.9c.3 0 .5-.1.9-.4c0 0 .2.2.2.2c-.4.7-.9 1-1.6 1c-.9 0-1.4-.5-1.4-1.6c.01.04.1-4 .1-4l-1 0c0 0 .03-.38 0-.4c.2 0 .5-.2 1-.3zm7.1 2.7c0 0 0-1 0-1c0-.8-.4-1.1-1.2-1.1c-.2 0-.5 0-.8.1c0-.04-.2 1.2-.2 1.2c0 0-.7.04-.7 0c-.1-.2-.1-.6-.1-.9c0-.2 0-.3 0-.4c.6-.5 1.5-.6 2.3-.6c1.3 0 1.9.5 1.9 1.5c0 .7-.1 2.7-.1 3.9c.03.03.9.2.9.2c0 0 .02.39 0 .4c-.5.1-1.1.3-2 .3c0 0 0-1.1 0-1.1c-.3.6-.9 1.1-1.7 1.1c-1 0-1.7-.6-1.7-1.6c0-1.5 1.4-1.8 3.4-2zm0 2.2c0 0 0-1.7 0-1.7c-1.5.1-2.2.4-2.2 1.3c0 .7.3 1 1 1c.5 0 1-.2 1.2-.6zm5.7-4.9c1.5 0 2.3.7 2.3 2.2c0 .3 0 .4-.1.7c.04-.03-3.9 0-3.9 0c0 0 .04.08 0 .1c0 1.7.9 2.4 2 2.4c.7 0 1.2-.3 1.6-.8c0 0 .3.2.3.2c-.4.9-1.2 1.5-2.2 1.5c-1.6 0-2.9-1-2.9-3.2c0-2 1.3-3.1 2.9-3.1zm-1.6 2.3c-.02 0 2.8 0 2.8 0c0 0-.05-.21 0-.2c0-1.1-.5-1.6-1.2-1.6c-.8 0-1.5.5-1.6 1.8zm5.7 3.2c.02.02 0-4.7 0-4.7l-.9-.2c0 0 .03-.38 0-.4c.5-.1 1.2-.2 2.1-.2c0 0 0 .9 0 .9c.3-.6 1.1-.9 1.8-.9c.2 0 .5 0 .6.1c0 .6-.1 1.4-.2 1.8c.05-.02-.6 0-.6 0l-.2-1.2c0 0-.06.04-.1 0c-.5 0-1.1.3-1.3.7c0 0 0 4.1 0 4.1c.4 0 .8.1 1.2.2c-.04.03 0 .4 0 .4l-3.3 0c0 0-.02-.37 0-.4c.2-.1.6-.2.9-.2zm5.2-7.7c0-.2.1-.4.1-.5c.2 0 .3 0 .6 0c.2 0 .3 0 .5 0c.1.1.1.3.1.5c0 .4-.1.7-.1.9c-.2.1-.4.1-.5.1c-.2 0-.4 0-.6-.1c0-.2-.1-.5-.1-.9zm0 7.7c.03.02 0-4.7 0-4.7l-.9-.2c0 0 .04-.38 0-.4c.5-.1 1.2-.2 2.1-.2c0 0 0 5.5 0 5.5c.3 0 .6.1.9.2c.01.03 0 .4 0 .4l-3 0c0 0-.01-.37 0-.4c.3-.1.6-.2.9-.2zm3.6-5.5c0 0 .1-1.2.1-1.2c.2 0 .7-.1 1-.1c.01.01 0 1.4 0 1.4l1.6 0l0 .6l-1.6 0c0 0-.04 3.89 0 3.9c0 .7.2.9.7.9c.3 0 .5-.1.9-.4c0 0 .2.2.2.2c-.4.7-.9 1-1.6 1c-.9 0-1.4-.5-1.4-1.6c.01.04.1-4 .1-4l-1 0c0 0 .03-.38 0-.4c.2 0 .5-.2 1-.3zm6.9 5.5c.03.02 0-7.6 0-7.6l-.9-.2c0 0 .05-.39 0-.4c.5-.1 1.2-.3 2.1-.3c0 0 0 8.5 0 8.5c.3 0 .7.1.9.2c.01.03 0 .4 0 .4l-3 0c0 0 0-.37 0-.4c.3-.1.6-.2.9-.2zm6.4-2.8c0 0 0-1 0-1c0-.8-.4-1.1-1.2-1.1c-.3 0-.6 0-.9.1c.04-.04-.2 1.2-.2 1.2c0 0-.66.04-.7 0c0-.2-.1-.6-.1-.9c0-.2 0-.3 0-.4c.6-.5 1.5-.6 2.3-.6c1.3 0 1.9.5 1.9 1.5c0 .7 0 2.7 0 3.9c-.03.03.9.2.9.2c0 0-.05.39 0 .4c-.5.1-1.2.3-2 .3c0 0 0-1.1 0-1.1c-.4.6-1 1.1-1.7 1.1c-1.1 0-1.8-.6-1.8-1.6c0-1.5 1.4-1.8 3.5-2zm0 2.2c0 0 0-1.7 0-1.7c-1.6.1-2.3.4-2.3 1.3c0 .7.4 1 1 1c.5 0 1-.2 1.3-.6zm2.4-7.2c0 0 .02-.39 0-.4c.5-.1 1.2-.3 2-.3c0 0 0 4.1 0 4.1c.4-.7 1.2-1.1 2-1.1c1.4 0 2.3.9 2.3 2.9c0 2.1-1.2 3.4-2.9 3.4c-.5 0-1.1-.2-1.5-.5c.03-.03-.5.4-.5.4l-.5 0l0-8.3l-.9-.2zm2 3.8c0 0 0 3.9 0 3.9c.3.1.6.2 1 .2c1.3 0 2.1-.9 2.1-2.6c0-1.6-.6-2.2-1.6-2.2c-.6 0-1.1.3-1.5.7zm8.4-1.5c1.8 0 2.7 1 2.7 3.1c0 2-1.2 3.2-2.9 3.2c-1.8 0-2.7-1.1-2.7-3.2c0-2 1.1-3.1 2.9-3.1zm1.5 3.2c0-1.8-.6-2.7-1.6-2.7c-.9 0-1.5.7-1.5 2.5c0 1.8.5 2.7 1.5 2.7c1 0 1.6-.7 1.6-2.5zm2.3 2.2c0-.6.3-.9.9-.9c.6 0 .9.3.9.9c0 .5-.3.9-.9.9c-.6 0-.9-.4-.9-.9z" stroke="none" fill="#404040"/></g></svg>