<?xml version="1.0" standalone="no"?><!DOCTYPE svg PUBLIC "-//W3C//DTD SVG 1.1//EN" "http://www.w3.org/Graphics/SVG/1.1/DTD/svg11.dtd"><svg xmlns="http://www.w3.org/2000/svg" version="1.1" width="72.3px" height="21.3px" viewBox="0 0 72.3 21.3">  <desc>1 of 2</desc>  <defs/>  <g id="Polygon13721">    <path d="M 45 2.4 L 44.9 2.4 L 43.4 3.2 L 43.2 2.3 L 45.1 1.3 L 46.1 1.3 L 46.1 10 L 45 10 L 45 2.4 Z M 58.3 6.7 C 58.3 9.1 56.6 10.1 55.1 10.1 C 53.3 10.1 52 8.9 52 6.8 C 52 4.7 53.4 3.4 55.2 3.4 C 57 3.4 58.3 4.8 58.3 6.7 Z M 53.2 6.8 C 53.2 8.2 54 9.3 55.1 9.3 C 56.2 9.3 57.1 8.2 57.1 6.8 C 57.1 5.7 56.5 4.3 55.2 4.3 C 53.8 4.3 53.2 5.6 53.2 6.8 Z M 59.9 10 L 59.9 4.4 L 59 4.4 L 59 3.5 L 59.9 3.5 C 59.9 3.5 59.88 3.24 59.9 3.2 C 59.9 2.3 60.1 1.5 60.6 1 C 61.1 0.6 61.7 0.4 62.2 0.4 C 62.6 0.4 63 0.5 63.2 0.6 C 63.2 0.6 63 1.5 63 1.5 C 62.9 1.4 62.6 1.3 62.3 1.3 C 61.3 1.3 61 2.2 61 3.2 C 61.04 3.2 61 3.5 61 3.5 L 62.6 3.5 L 62.6 4.4 L 61 4.4 L 61 10 L 59.9 10 Z M 66.1 10 L 66.1 9.3 C 66.1 9.3 67.02 8.38 67 8.4 C 69.2 6.3 70.2 5.2 70.2 3.9 C 70.2 3 69.8 2.2 68.5 2.2 C 67.8 2.2 67.1 2.6 66.7 2.9 C 66.7 2.9 66.3 2.1 66.3 2.1 C 66.9 1.6 67.8 1.2 68.8 1.2 C 70.6 1.2 71.4 2.5 71.4 3.7 C 71.4 5.3 70.3 6.6 68.4 8.4 C 68.44 8.36 67.8 9 67.8 9 L 67.8 9 L 71.6 9 L 71.6 10 L 66.1 10 Z " stroke="none" fill="#fff"/>  </g></svg>