<?xml version="1.0" standalone="no"?><!DOCTYPE svg PUBLIC "-//W3C//DTD SVG 1.1//EN" "http://www.w3.org/Graphics/SVG/1.1/DTD/svg11.dtd"><svg xmlns="http://www.w3.org/2000/svg" version="1.1" width="125px" height="46px" viewBox="0 0 125 46"><desc>Islands</desc><defs/><g id="Polygon10757"><path d="m32.1 15.2l0 10.8l-2.4 0l0-10.8l2.4 0zm2 8.7c.4.3 1.4.6 2.1.6c.7 0 1-.3 1-.7c0-.4-.2-.6-1.1-.9c-1.7-.5-2.3-1.4-2.3-2.3c0-1.5 1.3-2.6 3.2-2.6c.9 0 1.7.2 2.2.4c0 0-.4 1.7-.4 1.7c-.4-.2-1-.4-1.7-.4c-.6 0-.9.2-.9.6c0 .4.3.6 1.2.9c1.5.5 2.1 1.3 2.1 2.4c0 1.5-1.1 2.6-3.3 2.6c-1.1 0-2-.3-2.6-.6c0 0 .5-1.7.5-1.7zm6.9-9.3l2.5 0l0 11.4l-2.5 0l0-11.4zm10.9 9.5c0 .7.1 1.5.2 1.9c-.02 0-2.2 0-2.2 0l-.2-.8c0 0-.01.02 0 0c-.5.6-1.3 1-2.2 1c-1.6 0-2.6-1.2-2.6-2.4c0-2.1 1.8-3 4.6-3c0 0 0-.1 0-.1c0-.4-.2-1-1.4-1c-.8 0-1.7.2-2.2.6c0 0-.4-1.6-.4-1.6c.5-.3 1.6-.7 3-.7c2.6 0 3.4 1.5 3.4 3.4c0 0 0 2.7 0 2.7zm-2.3-1.8c-1.3 0-2.3.3-2.3 1.2c0 .7.4 1 1 1c.6 0 1.1-.4 1.2-.9c.1-.2.1-.3.1-.4c0 0 0-.9 0-.9zm4.3-1.6c0-1 0-1.8-.1-2.5c.02-.02 2.1 0 2.1 0l.1 1.1c0 0 .09-.04.1 0c.3-.5 1.1-1.3 2.4-1.3c1.6 0 2.8 1.1 2.8 3.4c.01-.02 0 4.6 0 4.6l-2.4 0c0 0-.02-4.34 0-4.3c0-1-.4-1.7-1.3-1.7c-.6 0-1 .4-1.2.9c-.1.1-.1.4-.1.6c.02-.01 0 4.5 0 4.5l-2.4 0c0 0-.02-5.33 0-5.3zm16.9-6.1c0 0 .04 9.06 0 9.1c0 .8.1 1.8.1 2.3c.01 0-2.2 0-2.2 0l0-1.1c0 0-.1-.04-.1 0c-.5.8-1.4 1.3-2.4 1.3c-1.9 0-3.4-1.6-3.4-4c0-2.7 1.6-4.2 3.5-4.2c1 0 1.7.3 2.1.9c-.02-.04 0 0 0 0l0-4.3l2.4 0zm-2.4 6.9c0-.1 0-.3 0-.5c-.2-.6-.7-1.1-1.4-1.1c-1.2 0-1.7.9-1.7 2.2c0 1.3.6 2.1 1.6 2.1c.7 0 1.3-.4 1.5-1.1c0-.2 0-.4 0-.6c0 0 0-1 0-1zm4.4 2.4c.4.3 1.4.6 2.1.6c.7 0 1-.3 1-.7c0-.4-.2-.6-1.1-.9c-1.7-.5-2.3-1.4-2.3-2.3c0-1.5 1.3-2.6 3.2-2.6c.9 0 1.7.2 2.2.4c0 0-.4 1.7-.4 1.7c-.4-.2-1-.4-1.7-.4c-.6 0-.9.2-.9.6c0 .4.3.6 1.2.9c1.5.5 2.1 1.3 2.2 2.4c0 1.5-1.2 2.6-3.4 2.6c-1 0-2-.3-2.6-.6c0 0 .5-1.7.5-1.7z" stroke="none" fill="#fff"/></g></svg>