<?xml version="1.0" standalone="no"?><!DOCTYPE svg PUBLIC "-//W3C//DTD SVG 1.1//EN" "http://www.w3.org/Graphics/SVG/1.1/DTD/svg11.dtd"><svg xmlns="http://www.w3.org/2000/svg" version="1.1" width="360px" height="54px" viewBox="0 0 360 54">  <desc>Islands</desc>  <defs/>  <g id="Polygon11149">    <path d="M 103.5 19.2 L 103.5 30 L 101.1 30 L 101.1 19.2 L 103.5 19.2 Z M 105.5 27.9 C 105.9 28.2 106.8 28.5 107.6 28.5 C 108.3 28.5 108.6 28.2 108.6 27.8 C 108.6 27.4 108.4 27.2 107.5 26.9 C 105.8 26.4 105.2 25.5 105.2 24.6 C 105.2 23.1 106.5 22 108.4 22 C 109.3 22 110.1 22.2 110.6 22.4 C 110.6 22.4 110.2 24.1 110.2 24.1 C 109.8 23.9 109.2 23.7 108.5 23.7 C 107.9 23.7 107.6 23.9 107.6 24.3 C 107.6 24.7 107.9 24.9 108.8 25.2 C 110.3 25.7 110.9 26.5 110.9 27.6 C 110.9 29.1 109.8 30.2 107.6 30.2 C 106.5 30.2 105.6 29.9 105 29.6 C 105 29.6 105.5 27.9 105.5 27.9 Z M 112.4 18.6 L 114.9 18.6 L 114.9 30 L 112.4 30 L 112.4 18.6 Z M 123.3 28.1 C 123.3 28.8 123.4 29.6 123.5 30 C 123.47 30 121.3 30 121.3 30 L 121.1 29.2 C 121.1 29.2 121.09 29.22 121.1 29.2 C 120.6 29.8 119.8 30.2 118.8 30.2 C 117.3 30.2 116.3 29 116.3 27.8 C 116.3 25.7 118.1 24.8 120.9 24.8 C 120.9 24.8 120.9 24.7 120.9 24.7 C 120.9 24.3 120.7 23.7 119.5 23.7 C 118.7 23.7 117.8 23.9 117.3 24.3 C 117.3 24.3 116.9 22.7 116.9 22.7 C 117.4 22.4 118.5 22 119.9 22 C 122.5 22 123.3 23.5 123.3 25.4 C 123.3 25.4 123.3 28.1 123.3 28.1 Z M 121 26.3 C 119.7 26.3 118.7 26.6 118.7 27.5 C 118.7 28.2 119.1 28.5 119.7 28.5 C 120.3 28.5 120.8 28.1 120.9 27.6 C 121 27.4 121 27.3 121 27.2 C 121 27.2 121 26.3 121 26.3 Z M 125.3 24.7 C 125.3 23.7 125.2 22.9 125.2 22.2 C 125.22 22.18 127.3 22.2 127.3 22.2 L 127.4 23.3 C 127.4 23.3 127.49 23.26 127.5 23.3 C 127.8 22.8 128.6 22 129.9 22 C 131.5 22 132.7 23.1 132.7 25.4 C 132.7 25.38 132.7 30 132.7 30 L 130.3 30 C 130.3 30 130.27 25.66 130.3 25.7 C 130.3 24.7 129.9 24 129 24 C 128.4 24 128 24.4 127.8 24.9 C 127.7 25 127.7 25.3 127.7 25.5 C 127.71 25.49 127.7 30 127.7 30 L 125.3 30 C 125.3 30 125.28 24.67 125.3 24.7 Z M 142.2 18.6 C 142.2 18.6 142.24 27.66 142.2 27.7 C 142.2 28.5 142.3 29.5 142.3 30 C 142.3 30 140.1 30 140.1 30 L 140 28.9 C 140 28.9 140 28.86 140 28.9 C 139.5 29.7 138.6 30.2 137.6 30.2 C 135.7 30.2 134.2 28.6 134.2 26.2 C 134.2 23.5 135.8 22 137.7 22 C 138.7 22 139.4 22.3 139.8 22.9 C 139.78 22.86 139.8 22.9 139.8 22.9 L 139.8 18.6 L 142.2 18.6 Z M 139.8 25.5 C 139.8 25.4 139.8 25.2 139.8 25 C 139.6 24.4 139.1 23.9 138.4 23.9 C 137.2 23.9 136.7 24.8 136.7 26.1 C 136.7 27.4 137.3 28.2 138.3 28.2 C 139 28.2 139.6 27.8 139.8 27.1 C 139.8 26.9 139.8 26.7 139.8 26.5 C 139.8 26.5 139.8 25.5 139.8 25.5 Z M 144.2 27.9 C 144.6 28.2 145.6 28.5 146.3 28.5 C 147 28.5 147.3 28.2 147.3 27.8 C 147.3 27.4 147.1 27.2 146.2 26.9 C 144.5 26.4 143.9 25.5 143.9 24.6 C 143.9 23.1 145.2 22 147.1 22 C 148 22 148.8 22.2 149.3 22.4 C 149.3 22.4 148.9 24.1 148.9 24.1 C 148.5 23.9 147.9 23.7 147.2 23.7 C 146.6 23.7 146.3 23.9 146.3 24.3 C 146.3 24.7 146.6 24.9 147.5 25.2 C 149 25.7 149.6 26.5 149.6 27.6 C 149.6 29.1 148.5 30.2 146.3 30.2 C 145.2 30.2 144.3 29.9 143.7 29.6 C 143.7 29.6 144.2 27.9 144.2 27.9 Z " stroke="none" fill="#fff"/>  </g></svg>