<?xml version="1.0" standalone="no"?><!DOCTYPE svg PUBLIC "-//W3C//DTD SVG 1.1//EN" "http://www.w3.org/Graphics/SVG/1.1/DTD/svg11.dtd"><svg xmlns="http://www.w3.org/2000/svg" version="1.1" width="610px" height="223.1px" viewBox="0 0 610 223.1"><desc>Getting there Few people actually see this park because it isn t easy to get to — you can t drive to the islands A s</desc><defs/><g id="Polygon11795"><path d="m26.3 19.5c0 0 .02 2.42 0 2.4c-.6.3-1.2.5-2.3.5c0 .04 0 9.9 0 9.9c0 0-2.16-.02-2.2 0c-.5-.2-1.1-.5-1.7-.9c-1.7.6-3.7.9-6 .9c-8.1 0-12.9-4.5-12.9-13.1c0-9 6.8-13.4 14.7-13.4c3.1 0 5.9.5 7.4 1.2c.2.6.3 1.7.3 2.5c0 1.3-.2 2.9-.5 4.2c.02-.02-3.4 0-3.4 0c0 0-1.06-4.62-1.1-4.6c-.7-.1-1.5-.2-2.2-.2c-4.6 0-7.7 3.4-7.7 9.7c0 7.5 3.3 10.6 7.9 10.6c.2 0 .6 0 .9-.1c0 0 0-6.7 0-6.7c-1.2 0-2.4-.2-3.1-.5c-.04.02 0-2.4 0-2.4l11.9 0zm12.5-7.4c5.4 0 8.2 3.1 8.2 8.1c0 .9-.1 1.4-.2 2.4c0 0-11.2 0-11.2 0c.3 4 2.3 5.4 5.1 5.4c2.1 0 3.7-.9 4.8-2.1c0 0 1.1 1.7 1.1 1.7c-1.2 2.6-3.9 4.7-8 4.7c-5.6 0-9.8-3-9.8-10.3c0-6.5 4.6-9.9 10-9.9zm-3.2 7.9c0 0 5.4 0 5.4 0c.1-.4.1-.8.1-1.1c0-2.3-.9-3.7-2.5-3.7c-1.6 0-2.8 1.3-3 4.8zm22-4.3c0 0-.2 10.38-.2 10.4c0 1.5.7 2.1 1.8 2.1c.6 0 1.1-.2 1.6-.7c0 0 1.1 2 1.1 2c-1.2 1.5-2.9 2.8-5.8 2.8c-3.9 0-5.5-2.1-5.4-5.5c-.02 0 .1-11.1.1-11.1l-2 0c0 0 0-2.38 0-2.4c.4-.2 1.1-.4 2.2-.7c0 0 .3-3.3.3-3.3c1.6-.4 4.1-.6 6.4-.6c-.02.02-.1 4-.1 4l6.4 0c0 0 .24-3.42.2-3.4c1.7-.4 4.2-.6 6.4-.6c.04.02 0 4 0 4l4.2 0l0 3l-4.3 0c0 0-.14 9.78-.1 9.8c0 1.8.5 2.5 1.8 2.5c1 0 1.7-.5 2.4-1.2c0 0 1.2 1.7 1.2 1.7c-1 1.9-3.3 3.8-6.6 3.8c-3.6 0-5.6-2-5.6-5.5c.04 0 .2-11.1.2-11.1l-6.2 0zm21.2-9.2c0-1.1.1-1.5.2-2.1c.8-.3 2.1-.4 3.3-.4c1.1 0 2.4.1 3.3.4c.1.6.1 1 .1 2.1c0 1.3-.1 2.4-.3 3.2c-.7.2-2 .4-3.1.4c-1.1 0-2.5-.2-3.2-.4c-.1-.8-.3-1.9-.3-3.2zm0 22.6c0-.02 0-13 0-13l-2-.5c0 0 0-2.36 0-2.4c2.3-.6 5.4-1 8.7-1c0 0 0 16.9 0 16.9c.9.1 1.7.3 2.1.5c0 0 0 2.2 0 2.2l-10.8 0c0 0-.04-2.2 0-2.2c.4-.2 1.1-.4 2-.5zm12.5 0c-.02-.02 0-13 0-13l-2-.5c0 0-.02-2.36 0-2.4c2.3-.6 5.3-1 8.7-1c0 0 0 3.1 0 3.1c1.4-2.2 3.9-3.3 6.6-3.3c4 0 6.1 2.4 6.1 6c0 0 0 11.1 0 11.1c.9.1 1.6.3 2.1.5c-.04 0 0 2.2 0 2.2l-10.8 0c0 0-.04-2.2 0-2.2c.4-.2 1.1-.4 2-.5c0 0 0-9.7 0-9.7c0-1.7-.9-2.6-2.5-2.6c-1.3 0-2.4.4-3.5 1.4c0 0 0 10.9 0 10.9c.9.1 1.6.3 2.1.5c-.02 0 0 2.2 0 2.2l-10.9 0c0 0 .04-2.2 0-2.2c.5-.2 1.2-.4 2.1-.5zm26.2 2.1c-1-.6-2-1.7-2-3.3c0-1.7 1.3-3.1 2.7-3.9c-2.2-1-3.8-2.6-3.8-5.4c0-4.5 4.2-6.6 9.2-6.6c2 0 3.9.4 5.4 1.4c1.1-1.3 2.4-1.9 4.4-2c.2.6.2 1.3.2 2c0 .7 0 1.4-.2 2.1c0 0-2.7 0-2.7 0c.9.7 1.3 1.7 1.3 3.2c0 3.9-3.5 6-9.2 6c-.6 0-1.2 0-1.8-.1c-.3.4-.6.8-.6 1.2c0 .6.4 1 1.4 1c0 0 5.4 0 5.4 0c3.8 0 6.5 1.8 6.5 5.3c0 5.2-5.7 7.6-11.5 7.6c-5.4 0-8.5-1.5-8.5-4.6c0-1.9 1.5-3.2 3.8-3.9zm8.5-12.8c0-2.7-1.2-3.7-2.6-3.7c-1.5 0-2.6 1-2.6 3.3c0 2.7 1.1 3.8 2.6 3.8c1.6 0 2.6-1 2.6-3.4zm-6.8 15.8c0 1.7 1.3 2.5 3.8 2.5c3.2 0 5.1-1 5.1-2.8c0-1.2-1-1.8-2.6-1.8c0 0-5.5 0-5.5 0c-.4.5-.8 1.2-.8 2.1zm25.3-21.6c0 0 .2-3.3.2-3.3c1.7-.4 4.1-.6 6.4-.6c.02.02-.1 3.8-.1 3.8l4.3 0l0 3.2l-4.3 0c0 0-.16 9.78-.2 9.8c0 1.8.6 2.5 1.9 2.5c1 0 1.7-.5 2.4-1.2c0 0 1.1 1.7 1.1 1.7c-1 1.9-3.2 3.8-6.6 3.8c-3.5 0-5.5-2-5.5-5.5c.02 0 .2-11.1.2-11.1l-2.1 0c0 0 .04-2.38 0-2.4c.4-.2 1.2-.4 2.3-.7zm14.8 16.5c.02-.02 0-21.5 0-21.5l-2.3-.5c0 0-.04-2.34 0-2.3c2.2-.6 5.7-1 9-1c0 0 0 11.5 0 11.5c1.4-2.2 3.9-3.3 6.7-3.3c3.9 0 6.1 2.4 6.1 6c0 0 0 11.1 0 11.1c.8.1 1.6.3 2 .5c0 0 0 2.2 0 2.2l-10.8 0c0 0 0-2.2 0-2.2c.4-.2 1.2-.4 2-.5c0 0 0-9.7 0-9.7c0-1.7-.9-2.6-2.5-2.6c-1.3 0-2.4.4-3.5 1.4c0 0 0 10.9 0 10.9c.9.1 1.6.3 2.1.5c.02 0 0 2.2 0 2.2l-10.8 0c0 0-.02-2.2 0-2.2c.4-.2 1.1-.4 2-.5zm33.3-17c5.4 0 8.2 3.1 8.2 8.1c0 .9-.1 1.4-.2 2.4c0 0-11.2 0-11.2 0c.3 4 2.3 5.4 5.1 5.4c2.1 0 3.7-.9 4.8-2.1c0 0 1.1 1.7 1.1 1.7c-1.2 2.6-3.9 4.7-8 4.7c-5.6 0-9.8-3-9.8-10.3c0-6.5 4.6-9.9 10-9.9zm-3.2 7.9c0 0 5.4 0 5.4 0c.1-.4.1-.8.1-1.1c0-2.3-.9-3.7-2.5-3.7c-1.6 0-2.8 1.3-3 4.8zm15.4 9.1c0-.02 0-13 0-13l-2-.5c0 0 0-2.36 0-2.4c2.3-.6 5.4-1 8.7-1c0 0 0 3.4 0 3.4c1.3-2.4 3.5-3.5 5.5-3.5c.9 0 1.8.3 2.4.8c0 2.8-.3 4.8-1 7.1c.04.04-3.3 0-3.3 0c0 0-.62-3.2-.6-3.2c-1.2.1-2.2.6-3 1.6c0 0 0 10.7 0 10.7c1.2.1 2.2.3 2.8.5c-.02 0 0 2.2 0 2.2l-11.5 0c0 0-.04-2.2 0-2.2c.4-.2 1.1-.4 2-.5zm25.8-17c5.5 0 8.2 3.1 8.2 8.1c0 .9 0 1.4-.2 2.4c0 0-11.2 0-11.2 0c.4 4 2.4 5.4 5.2 5.4c2 0 3.6-.9 4.8-2.1c0 0 1.1 1.7 1.1 1.7c-1.3 2.6-3.9 4.7-8 4.7c-5.7 0-9.9-3-9.9-10.3c0-6.5 4.6-9.9 10-9.9zm-3.2 7.9c0 0 5.5 0 5.5 0c.1-.4.1-.8.1-1.1c0-2.3-.9-3.7-2.5-3.7c-1.6 0-2.9 1.3-3.1 4.8z" stroke="none" fill="#404040"/></g><g id="Group11800"><path d="m1.9 86.8c0 0 2.3-15.2 2.3-15.2c-.8 0-1.4-.2-1.9-.4c.04.03.3-1.6.3-1.6c0 0 14.41.04 14.4 0c0 1.7-.2 3.6-.7 5.4c-.01.04-2.3 0-2.3 0l-.3-3.4l-5.1 0l-1 6.6c0 0 2.84.02 2.8 0c.2-.7.5-1.4.9-1.9c0 0 1.7 0 1.7 0c0 2-.4 4.4-.9 6.4c0 0-1.8 0-1.8 0c-.2-.8-.2-1.6-.2-2.4c.04-.04-2.8 0-2.8 0c0 0-1.06 6.53-1.1 6.5c1 .1 1.9.2 2.5.4c.03.05-.2 1.6-.2 1.6l-8.7 0c0 0 .23-1.55.2-1.6c.5-.1 1.1-.3 1.9-.4zm21.1-12.6c2.9 0 4.4 1.3 4.4 3.4c0 2.8-2.1 4.5-6.7 4.5c0 0-1.1 0-1.1 0c-.1.4-.1.9-.1 1.4c0 1.9.9 2.8 2.1 2.8c1.4 0 2.4-.8 3.4-2.4c0 0 1.4.6 1.4.6c-1.2 3.1-3.4 4.7-6.2 4.7c-3.3 0-5-1.9-5-5.4c0-5.1 2.7-9.6 7.8-9.6zm-3.3 6.4c0 0 .6 0 .6 0c2.4 0 3.4-1.2 3.4-2.7c0-.9-.4-1.5-1.2-1.5c-1.4 0-2.4 1.8-2.8 4.2zm21.7-6.3c0 0 1.6 10.4 1.6 10.4c1.9-2.9 2.6-5.2 2.8-7.7c-.02-.04-1.9-.5-1.9-.5c0 0 .23-1.46.2-1.5c1-.4 2.4-.7 3.5-.7c1.4 0 1.7.6 1.7 1.8c0 2.7-1.9 6.6-7.2 12.7c-.01.04-2.4 0-2.4 0c0 0-.91-5.57-.9-5.6c-1.2 1.7-2.6 3.5-4.2 5.6c-.01.04-2.4 0-2.4 0l-2.1-11.9l-1.7-.4c0 0 .16-1.46.2-1.5c1.2-.4 3.3-.7 5.2-.7c0 0 1.7 10.2 1.7 10.2c1.1-1.7 2-3.3 2.7-5c-.04-.02-.5-2.6-.5-2.6l-1.5-.4c0 0 .19-1.46.2-1.5c1.2-.4 3-.7 5-.7zm20.9 0c0 0-.4 2.5-.4 2.5c1-1.6 2.4-2.6 4.2-2.6c2.6 0 3.9 2 3.9 5c0 5.3-2.4 9.9-7.1 9.9c-1.3 0-2.2-.3-2.8-.9c0 0-.6 4.3-.6 4.3c1 .1 1.9.2 2.5.4c.01.05-.2 1.6-.2 1.6l-8.6 0c0 0 .29-1.55.3-1.6c.5-.2 1-.3 1.8-.4c-.01.03 2.5-15.6 2.5-15.6l-1.9-.4c0 0 .23-1.46.2-1.5c1.4-.4 4-.7 6.2-.7zm-.7 4.5c0 0-1.2 7.7-1.2 7.7c.4.1.8.3 1.3.3c2.5 0 4-3.6 4-7.5c0-1.6-.5-2.4-1.6-2.4c-1 0-1.8.8-2.5 1.9zm17.9-4.6c2.9 0 4.5 1.3 4.5 3.4c0 2.8-2.2 4.5-6.7 4.5c0 0-1.2 0-1.2 0c0 .4 0 .9 0 1.4c0 1.9.8 2.8 2 2.8c1.4 0 2.4-.8 3.4-2.4c0 0 1.4.6 1.4.6c-1.1 3.1-3.3 4.7-6.1 4.7c-3.4 0-5-1.9-5-5.4c0-5.1 2.7-9.6 7.7-9.6zm-3.2 6.4c0 0 .6 0 .6 0c2.3 0 3.3-1.2 3.3-2.7c0-.9-.4-1.5-1.2-1.5c-1.4 0-2.3 1.8-2.7 4.2zm16.6-6.4c4.1 0 5.9 2.2 5.9 5.6c0 4.8-2.7 9.4-8.1 9.4c-4.2 0-5.9-2.3-5.9-5.6c0-4.8 2.6-9.4 8.1-9.4zm-2 12.9c2.3 0 3.6-4.4 3.6-7.9c0-1.6-.5-2.9-1.8-2.9c-2.3 0-3.6 4.3-3.6 7.9c0 1.6.5 2.9 1.8 2.9zm16-12.8c0 0-.3 2.5-.3 2.5c.9-1.6 2.3-2.6 4.2-2.6c2.5 0 3.8 2 3.8 5c0 5.3-2.4 9.9-7.1 9.9c-1.2 0-2.1-.3-2.7-.9c0 0-.7 4.3-.7 4.3c1 .1 1.9.2 2.5.4c.02.05-.2 1.6-.2 1.6l-8.5 0c0 0 .2-1.55.2-1.6c.5-.2 1-.3 1.8-.4c0 .03 2.5-15.6 2.5-15.6l-1.8-.4c0 0 .14-1.46.1-1.5c1.4-.4 4-.7 6.2-.7zm-.7 4.5c0 0-1.2 7.7-1.2 7.7c.4.1.8.3 1.3.3c2.5 0 4-3.6 4-7.5c0-1.6-.5-2.4-1.6-2.4c-1 0-1.8.8-2.5 1.9zm17-11c0 0-2.5 16.4-2.5 16.4c-.1.7-.2 1.2-.2 1.6c0 .6.3.8 1.1.8c.02.05.9 0 .9 0c0 0-.22 1.7-.2 1.7c-.8.4-2.2.8-3.6.8c-1.6 0-2.5-.8-2.5-2.2c0-.5.1-1.2.2-1.7c0 .01 2.3-14.7 2.3-14.7l-2.1-.4c0 0 .16-1.48.2-1.5c1.3-.4 4.2-.8 6.4-.8zm8.6 6.4c2.9 0 4.4 1.3 4.4 3.4c0 2.8-2.1 4.5-6.7 4.5c0 0-1.1 0-1.1 0c-.1.4-.1.9-.1 1.4c0 1.9.9 2.8 2.1 2.8c1.4 0 2.4-.8 3.4-2.4c0 0 1.4.6 1.4.6c-1.2 3.1-3.4 4.7-6.2 4.7c-3.3 0-5-1.9-5-5.4c0-5.1 2.7-9.6 7.8-9.6zm-3.3 6.4c0 0 .6 0 .6 0c2.4 0 3.4-1.2 3.4-2.7c0-.9-.4-1.5-1.2-1.5c-1.4 0-2.4 1.8-2.8 4.2zm21.5-6.4c1.4 0 2.3.5 2.9 1.3c.6-.6 1.7-1.1 2.6-1.3c.02 0 1.4.4 1.4.4c0 0-1.5 9.77-1.5 9.8c-.1.5-.2 1.1-.2 1.4c0 .6.3.8 1.1.8c.03.05 1 0 1 0c0 0-.28 1.7-.3 1.7c-.8.4-2.1.8-3.6.8c-1.7 0-2.4-.8-2.4-2.2c0-.2 0-.3 0-.5c-.9 1.7-2.3 2.7-4.3 2.7c-2.5 0-3.8-1.8-3.8-5c0-5.4 2.9-9.9 7.1-9.9zm1.3 10.3c0 0 1.2-7.7 1.2-7.7c-.4-.1-.9-.2-1.3-.2c-2.5 0-4 3.5-4 7.4c0 1.6.5 2.4 1.6 2.4c1 0 1.7-.8 2.5-1.9zm15.4-10.3c1.7 0 3.2.5 4 1.1c0 1.4-.5 3.2-1.1 4.3c.05.03-2.1 0-2.1 0c0 0-.19-3.12-.2-3.1c-.1-.1-.3-.1-.4-.1c-2.4 0-3.8 3.7-3.8 7.1c0 1.9.8 2.8 2 2.8c1.4 0 2.5-.9 3.4-2.4c0 0 1.4.6 1.4.6c-1.2 3.1-3.3 4.7-6.3 4.7c-3.2 0-4.8-2-4.8-5.4c0-5.1 2.7-9.6 7.9-9.6zm7.5.2c0 0 .7-2.3.7-2.3c.8-.2 2.4-.4 3.7-.4c-.01-.02-.5 2.8-.5 2.8l3.3 0l-.3 2.1l-3.3 0c0 0-.95 6.39-1 6.4c-.1.8-.2 1.5-.2 2.1c0 .8.3 1.2.8 1.2c.9 0 1.7-1.1 2.3-2.3c0 0 1.3.5 1.3.5c-.9 2.7-2.6 4.6-5.3 4.6c-2.2 0-3.3-1.2-3.3-3.2c0-.7.2-1.8.3-2.8c.01.01 1-6.5 1-6.5l-2 0c0 0 .26-1.5.3-1.5c.4-.3 1.2-.6 2.2-.7zm22.4-.1c0 0-1.6 10.1-1.6 10.1c-.1.5-.2 1.1-.2 1.4c0 .6.3.8 1.1.8c0 .05 1 0 1 0c0 0-.31 1.7-.3 1.7c-.8.4-2.2.8-3.6.8c-1.7 0-2.4-.8-2.4-2.2c0-.3 0-.8.1-1.1c0 0 0 0 0 0c-1.2 2.1-3.1 3.3-5.1 3.3c-2.1 0-3.1-1.1-3.1-2.8c0-.5.1-.9.2-1.5c0 .05 1.3-7.9 1.3-7.9l-1.8-.4c0 0 .17-1.46.2-1.5c1.3-.4 3.9-.7 6.1-.7c0 0-1.5 9.3-1.5 9.3c-.1.5-.1 1-.1 1.4c0 .7.3 1.1 1.1 1.1c1 0 2-.6 2.9-2.1c-.01.01 1.1-7.1 1.1-7.1l-1.8-.4c0 0 .27-1.46.3-1.5c1.3-.4 3.8-.7 6.1-.7zm9.1-.1c1.4 0 2.3.5 2.9 1.3c.6-.6 1.7-1.1 2.6-1.3c-.03 0 1.4.4 1.4.4c0 0-1.55 9.77-1.6 9.8c0 .5-.1 1.1-.1 1.4c0 .6.2.8 1.1.8c-.02.05.9 0 .9 0c0 0-.23 1.7-.2 1.7c-.8.4-2.2.8-3.6.8c-1.7 0-2.4-.8-2.4-2.2c0-.2 0-.3 0-.5c-1 1.7-2.4 2.7-4.3 2.7c-2.5 0-3.9-1.8-3.9-5c0-5.4 2.9-9.9 7.2-9.9zm1.2 10.3c0 0 1.2-7.7 1.2-7.7c-.4-.1-.8-.2-1.3-.2c-2.5 0-3.9 3.5-3.9 7.4c0 1.6.5 2.4 1.5 2.4c1 0 1.8-.8 2.5-1.9zm14.9-16.7c0 0-2.6 16.4-2.6 16.4c-.1.7-.2 1.2-.2 1.6c0 .6.3.8 1.1.8c.04.05 1 0 1 0c0 0-.3 1.7-.3 1.7c-.8.4-2.2.8-3.6.8c-1.6 0-2.4-.8-2.4-2.2c0-.5 0-1.2.1-1.7c.02.01 2.3-14.7 2.3-14.7l-2.1-.4c0 0 .18-1.48.2-1.5c1.3-.4 4.2-.8 6.5-.8zm8 0c0 0-2.5 16.4-2.5 16.4c-.1.7-.2 1.2-.2 1.6c0 .6.3.8 1.1.8c.01.05.9 0 .9 0c0 0-.23 1.7-.2 1.7c-.8.4-2.2.8-3.6.8c-1.7 0-2.5-.8-2.5-2.2c0-.5.1-1.2.2-1.7c-.01.01 2.3-14.7 2.3-14.7l-2.1-.4c0 0 .15-1.48.1-1.5c1.4-.4 4.3-.8 6.5-.8zm4 21.8c-.04.02.1-.2.1-.2l-2.2-12.5l-1.8-.4c0 0 .23-1.46.2-1.5c1.3-.4 3.4-.7 5.3-.7c0 0 1.8 10.7 1.8 10.7c2-2.7 2.8-5.3 3-8c.01-.04-1.8-.5-1.8-.5c0 0 .22-1.46.2-1.5c1-.4 2.4-.7 3.4-.7c1.4 0 1.8.6 1.8 1.8c0 2.7-2.1 6-5.1 10.1c0 0-2.9 4-2.9 4c-1.7 2.2-3.4 4.5-5.6 4.5c-1.3 0-2.2-.6-2.8-1.6c0 0 .3-1.4.3-1.4c.7.3 1.7.5 2.4.5c1.9 0 2.8-1.2 3.7-2.6zm16.8-5.3c.01.04 2.1 0 2.1 0c0 0 .16 2.92.2 2.9c.4.1.8.1 1.2.1c1.6 0 2.6-.8 2.6-1.9c0-1.2-1.1-1.7-2.5-2.5c0 0-.9-.5-.9-.5c-1.2-.7-2.2-1.8-2.2-3.5c0-3 2.3-4.7 5.8-4.7c1.9 0 3.8.4 4.7.8c0 1.4-.2 2.7-.9 4c.02 0-2.1 0-2.1 0c0 0-.07-2.79-.1-2.8c-.4-.1-.8-.1-1.3-.1c-1.3 0-2.3.6-2.3 1.9c0 1 1 1.5 2 2.1c0 0 1.1.6 1.1.6c1.4.8 2.8 1.8 2.8 3.7c0 2.9-2.4 4.7-6.3 4.7c-1.7 0-3.8-.3-4.9-.8c.1-1.6.4-2.9 1-4zm19.8-10.1c2.9 0 4.5 1.3 4.5 3.4c0 2.8-2.2 4.5-6.7 4.5c0 0-1.2 0-1.2 0c0 .4 0 .9 0 1.4c0 1.9.8 2.8 2.1 2.8c1.3 0 2.3-.8 3.3-2.4c0 0 1.4.6 1.4.6c-1.1 3.1-3.3 4.7-6.1 4.7c-3.3 0-5-1.9-5-5.4c0-5.1 2.7-9.6 7.7-9.6zm-3.2 6.4c0 0 .6 0 .6 0c2.3 0 3.3-1.2 3.3-2.7c0-.9-.4-1.5-1.2-1.5c-1.4 0-2.3 1.8-2.7 4.2zm16.3-6.4c2.9 0 4.4 1.3 4.4 3.4c0 2.8-2.1 4.5-6.7 4.5c0 0-1.1 0-1.1 0c-.1.4-.1.9-.1 1.4c0 1.9.9 2.8 2.1 2.8c1.4 0 2.4-.8 3.4-2.4c0 0 1.4.6 1.4.6c-1.2 3.1-3.3 4.7-6.2 4.7c-3.3 0-5-1.9-5-5.4c0-5.1 2.8-9.6 7.8-9.6zm-3.2 6.4c0 0 .6 0 .6 0c2.3 0 3.3-1.2 3.3-2.7c0-.9-.4-1.5-1.2-1.5c-1.4 0-2.4 1.8-2.7 4.2zm16.9-6.2c0 0 .7-2.3.7-2.3c.8-.2 2.5-.4 3.7-.4c.01-.02-.4 2.8-.4 2.8l3.2 0l-.3 2.1l-3.2 0c0 0-1.03 6.39-1 6.4c-.1.8-.2 1.5-.2 2.1c0 .8.2 1.2.8 1.2c.8 0 1.6-1.1 2.3-2.3c0 0 1.2.5 1.2.5c-.9 2.7-2.6 4.6-5.3 4.6c-2.2 0-3.2-1.2-3.2-3.2c0-.7.1-1.8.2-2.8c.03.01 1-6.5 1-6.5l-2 0c0 0 .28-1.5.3-1.5c.4-.3 1.2-.6 2.2-.7zm16.3 10.8c0 0 1-5.5 1-5.5c.1-.5.2-1 .2-1.3c0-.8-.4-1.2-1.2-1.2c-1 0-1.9.7-2.9 2.1c-.05 0-1.5 9.5-1.5 9.5l-4.2 0l2.9-18.3l-2.1-.4c0 0 .14-1.48.1-1.5c1.4-.4 4.3-.8 6.5-.8c0 0-1.5 9.7-1.5 9.7c1.3-2.1 3-3.3 5-3.3c2.1 0 3.2 1.2 3.2 2.8c0 .6-.1 1.1-.2 1.7c0 0-1 5.7-1 5.7c-.2.7-.2 1.1-.2 1.4c0 .6.2.8 1.1.8c-.02.05.9 0 .9 0c0 0-.23 1.7-.2 1.7c-.8.4-2.2.8-3.6.8c-1.7 0-2.5-.7-2.5-2.2c0-.6.1-1.3.2-1.7zm11.1-16.9c.5-.1 1.3-.2 2.1-.2c.8 0 1.6.1 2 .2c0 1-.4 2.8-.9 3.7c-.5.2-1.1.3-1.9.3c-.7 0-1.3-.1-1.8-.3c0-1.4.2-2.7.5-3.7zm3.1 6c0 0-1.5 9.9-1.5 9.9c-.1.7-.2 1.2-.2 1.6c0 .6.3.8 1.1.8c-.02.05.9 0 .9 0c0 0-.23 1.7-.2 1.7c-.8.4-2.2.8-3.6.8c-1.6 0-2.5-.8-2.5-2.2c0-.5.1-1.2.2-1.7c-.01.01 1.3-8.3 1.3-8.3l-1.8-.4c0 0 .13-1.46.1-1.5c1.4-.4 4-.7 6.2-.7zm2.6 10c-.01.04 2 0 2 0c0 0 .24 2.92.2 2.9c.4.1.9.1 1.3.1c1.6 0 2.6-.8 2.6-1.9c0-1.2-1.2-1.7-2.5-2.5c0 0-1-.5-1-.5c-1.2-.7-2.2-1.8-2.2-3.5c0-3 2.4-4.7 5.9-4.7c1.9 0 3.7.4 4.7.8c0 1.4-.2 2.7-.9 4c0 0-2.1 0-2.1 0c0 0-.09-2.79-.1-2.8c-.4-.1-.8-.1-1.3-.1c-1.3 0-2.3.6-2.3 1.9c0 1 1 1.5 2 2.1c0 0 1.1.6 1.1.6c1.4.8 2.8 1.8 2.8 3.7c0 2.9-2.4 4.7-6.4 4.7c-1.6 0-3.7-.3-4.8-.8c.1-1.6.4-2.9 1-4zm24.3-10c0 0-.4 2.5-.4 2.5c.9-1.6 2.3-2.6 4.2-2.6c2.6 0 3.9 2 3.9 5c0 5.3-2.5 9.9-7.2 9.9c-1.2 0-2.1-.3-2.7-.9c0 0-.7 4.3-.7 4.3c1 .1 2 .2 2.6.4c-.04.05-.3 1.6-.3 1.6l-8.5 0c0 0 .24-1.55.2-1.6c.6-.2 1.1-.3 1.8-.4c.04.03 2.5-15.6 2.5-15.6l-1.8-.4c0 0 .18-1.46.2-1.5c1.3-.4 3.9-.7 6.2-.7zm-.7 4.5c0 0-1.2 7.7-1.2 7.7c.3.1.8.3 1.3.3c2.5 0 4-3.6 4-7.5c0-1.6-.6-2.4-1.7-2.4c-.9 0-1.7.8-2.4 1.9zm17.3-4.6c1.4 0 2.3.5 2.9 1.3c.6-.6 1.7-1.1 2.6-1.3c0 0 1.4.4 1.4.4c0 0-1.52 9.77-1.5 9.8c-.1.5-.2 1.1-.2 1.4c0 .6.3.8 1.1.8c.01.05 1 0 1 0c0 0-.3 1.7-.3 1.7c-.8.4-2.2.8-3.6.8c-1.7 0-2.4-.8-2.4-2.2c0-.2 0-.3 0-.5c-.9 1.7-2.3 2.7-4.3 2.7c-2.5 0-3.8-1.8-3.8-5c0-5.4 2.9-9.9 7.1-9.9zm1.2 10.3c0 0 1.3-7.7 1.3-7.7c-.4-.1-.9-.2-1.3-.2c-2.5 0-4 3.5-4 7.4c0 1.6.5 2.4 1.6 2.4c1 0 1.7-.8 2.4-1.9zm14.1-10.2c0 0-.5 3.5-.5 3.5c1.1-2.3 2.6-3.6 4.3-3.6c.8 0 1.4.3 1.7.5c0 1.7-.5 3.8-1 5c-.02-.01-2.3 0-2.3 0c0 0-.18-2.56-.2-2.6c-.9.2-1.9 1.2-2.9 2.9c.04-.04-1.3 8.8-1.3 8.8l-4.2 0l1.9-11.9l-1.8-.4c0 0 .13-1.46.1-1.5c1.4-.4 4-.7 6.2-.7zm12.9-6.5c-.02.04-3.3 21-3.3 21l-4 0l2.8-18.2l-2.1-.5c0 0 .16-1.48.2-1.5c1.3-.4 4.2-.8 6.4-.8zm7.6 6.7c.03 0-.2 1.6-.2 1.6l-2 .8l-3.6 3.4c0 0 1.84 4.97 1.8 5c.5 1.1.9 1.3 1.9 1.3c0 .05.8 0 .8 0c0 0-.2 1.7-.2 1.7c-.8.4-1.9.8-3.2.8c-1.7 0-2.4-.7-3-2.2c.02-.04-1.9-5.6-1.9-5.6l4.4-4.4l-2-.5c0 0 .18-1.18.2-1.2c1.7-.5 4.8-.7 7-.7zm13.1-6.7c0 0-1.4 9-1.4 9c1-1.6 2.3-2.6 4.2-2.6c2.6 0 3.9 2 3.9 5c0 5.3-2.5 9.9-7.2 9.9c-1.3 0-2.4-.4-3.1-1.2c-.6.6-1.5 1.1-2.4 1.2c-.02.04-1.4-.3-1.4-.3l2.9-18.3l-2.2-.4c0 0 .2-1.48.2-1.5c1.4-.4 4.3-.8 6.5-.8zm-1.7 11c0 0-1.2 7.7-1.2 7.7c.4.1.8.3 1.3.3c2.5 0 4-3.6 4-7.5c0-1.6-.6-2.4-1.6-2.4c-1 0-1.8.8-2.5 1.9zm17.9-4.6c2.9 0 4.5 1.3 4.5 3.4c0 2.8-2.2 4.5-6.7 4.5c0 0-1.2 0-1.2 0c0 .4 0 .9 0 1.4c0 1.9.8 2.8 2 2.8c1.4 0 2.4-.8 3.4-2.4c0 0 1.4.6 1.4.6c-1.1 3.1-3.3 4.7-6.1 4.7c-3.4 0-5.1-1.9-5.1-5.4c0-5.1 2.8-9.6 7.8-9.6zm-3.2 6.4c0 0 .6 0 .6 0c2.3 0 3.3-1.2 3.3-2.7c0-.9-.4-1.5-1.2-1.5c-1.4 0-2.3 1.8-2.7 4.2zm16.4-6.4c1.8 0 3.2.5 4 1.1c0 1.4-.5 3.2-1 4.3c-.02.03-2.2 0-2.2 0c0 0-.16-3.12-.2-3.1c-.1-.1-.2-.1-.4-.1c-2.3 0-3.8 3.7-3.8 7.1c0 1.9.9 2.8 2.1 2.8c1.4 0 2.4-.9 3.3-2.4c0 0 1.5.6 1.5.6c-1.2 3.1-3.3 4.7-6.3 4.7c-3.2 0-4.9-2-4.9-5.4c0-5.1 2.8-9.6 7.9-9.6zm11.9 0c1.4 0 2.3.5 2.9 1.3c.6-.6 1.7-1.1 2.6-1.3c.01 0 1.4.4 1.4.4c0 0-1.51 9.77-1.5 9.8c-.1.5-.2 1.1-.2 1.4c0 .6.3.8 1.1.8c.02.05 1 0 1 0c0 0-.29 1.7-.3 1.7c-.8.4-2.1.8-3.6.8c-1.7 0-2.4-.8-2.4-2.2c0-.2 0-.3 0-.5c-.9 1.7-2.3 2.7-4.3 2.7c-2.5 0-3.8-1.8-3.8-5c0-5.4 2.9-9.9 7.1-9.9zm1.3 10.3c0 0 1.2-7.7 1.2-7.7c-.4-.1-.9-.2-1.3-.2c-2.5 0-4 3.5-4 7.4c0 1.6.5 2.4 1.6 2.4c1 0 1.7-.8 2.5-1.9zm22-10.2c0 0-1.6 10.1-1.6 10.1c-.1.5-.2 1.1-.2 1.4c0 .6.3.8 1.1.8c.01.05 1 0 1 0c0 0-.3 1.7-.3 1.7c-.8.4-2.2.8-3.6.8c-1.7 0-2.4-.8-2.4-2.2c0-.3.1-.8.1-1.1c0 0 0 0 0 0c-1.2 2.1-3.1 3.3-5.1 3.3c-2.1 0-3-1.1-3-2.8c0-.5 0-.9.1-1.5c.01.05 1.3-7.9 1.3-7.9l-1.8-.4c0 0 .18-1.46.2-1.5c1.3-.4 3.9-.7 6.2-.7c0 0-1.6 9.3-1.6 9.3c-.1.5-.1 1-.1 1.4c0 .7.3 1.1 1.1 1.1c1 0 2-.6 2.9-2.1c0 .01 1.1-7.1 1.1-7.1l-1.8-.4c0 0 .28-1.46.3-1.5c1.3-.4 3.8-.7 6.1-.7zm2.5 10c.05.04 2.1 0 2.1 0c0 0 .2 2.92.2 2.9c.4.1.8.1 1.2.1c1.6 0 2.6-.8 2.6-1.9c0-1.2-1.1-1.7-2.4-2.5c0 0-1-.5-1-.5c-1.2-.7-2.2-1.8-2.2-3.5c0-3 2.4-4.7 5.8-4.7c1.9 0 3.8.4 4.8.8c0 1.4-.2 2.7-.9 4c-.04 0-2.2 0-2.2 0c0 0-.03-2.79 0-2.8c-.4-.1-.9-.1-1.3-.1c-1.4 0-2.3.6-2.3 1.9c0 1 1 1.5 2 2.1c0 0 1 .6 1 .6c1.5.8 2.8 1.8 2.8 3.7c0 2.9-2.3 4.7-6.3 4.7c-1.6 0-3.7-.3-4.8-.8c0-1.6.4-2.9.9-4zm19.8-10.1c3 0 4.5 1.3 4.5 3.4c0 2.8-2.1 4.5-6.7 4.5c0 0-1.1 0-1.1 0c-.1.4-.1.9-.1 1.4c0 1.9.9 2.8 2.1 2.8c1.4 0 2.4-.8 3.4-2.4c0 0 1.4.6 1.4.6c-1.2 3.1-3.4 4.7-6.2 4.7c-3.3 0-5-1.9-5-5.4c0-5.1 2.7-9.6 7.7-9.6zm-3.2 6.4c0 0 .6 0 .6 0c2.3 0 3.4-1.2 3.4-2.7c0-.9-.5-1.5-1.2-1.5c-1.4 0-2.4 1.8-2.8 4.2zm17.8-12.3c.5-.1 1.3-.2 2.2-.2c.7 0 1.5.1 2 .2c0 1-.5 2.8-.9 3.7c-.6.2-1.1.3-2 .3c-.7 0-1.3-.1-1.8-.3c0-1.4.2-2.7.5-3.7zm3.1 6c0 0-1.5 9.9-1.5 9.9c-.1.7-.2 1.2-.2 1.6c0 .6.3.8 1.1.8c.02.05 1 0 1 0c0 0-.29 1.7-.3 1.7c-.7.4-2.2.8-3.6.8c-1.6 0-2.5-.8-2.5-2.2c0-.5.1-1.2.2-1.7c.03.01 1.3-8.3 1.3-8.3l-1.8-.4c0 0 .17-1.46.2-1.5c1.3-.4 3.9-.7 6.1-.7zm4.3.1c0 0 .7-2.3.7-2.3c.8-.2 2.4-.4 3.7-.4c-.01-.02-.5 2.8-.5 2.8l3.3 0l-.3 2.1l-3.3 0c0 0-.95 6.39-1 6.4c-.1.8-.2 1.5-.2 2.1c0 .8.3 1.2.8 1.2c.9 0 1.7-1.1 2.3-2.3c0 0 1.3.5 1.3.5c-.9 2.7-2.6 4.6-5.3 4.6c-2.2 0-3.3-1.2-3.3-3.2c0-.7.2-1.8.3-2.8c.01.01 1-6.5 1-6.5l-2 0c0 0 .26-1.5.3-1.5c.4-.3 1.2-.6 2.2-.7zm16.6-6.1c.5-.1 1.3-.2 2.2-.2c.7 0 1.5.1 2 .2c0 1-.5 2.8-.9 3.7c-.6.2-1.1.3-2 .3c-.7 0-1.3-.1-1.8-.3c0-1.4.2-2.7.5-3.7zm3.1 6c0 0-1.5 9.9-1.5 9.9c-.1.7-.2 1.2-.2 1.6c0 .6.3.8 1.1.8c.02.05 1 0 1 0c0 0-.29 1.7-.3 1.7c-.7.4-2.2.8-3.6.8c-1.6 0-2.5-.8-2.5-2.2c0-.5.1-1.2.2-1.7c.03.01 1.3-8.3 1.3-8.3l-1.8-.4c0 0 .17-1.46.2-1.5c1.3-.4 3.9-.7 6.1-.7zm2.6 10c.03.04 2.1 0 2.1 0c0 0 .18 2.92.2 2.9c.4.1.8.1 1.2.1c1.6 0 2.6-.8 2.6-1.9c0-1.2-1.1-1.7-2.4-2.5c0 0-1-.5-1-.5c-1.2-.7-2.2-1.8-2.2-3.5c0-3 2.3-4.7 5.8-4.7c1.9 0 3.8.4 4.7.8c0 1.4-.1 2.7-.9 4c.04 0-2.1 0-2.1 0c0 0-.05-2.79-.1-2.8c-.3-.1-.8-.1-1.2-.1c-1.4 0-2.4.6-2.4 1.9c0 1 1 1.5 2.1 2.1c0 0 1 .6 1 .6c1.4.8 2.8 1.8 2.8 3.7c0 2.9-2.3 4.7-6.3 4.7c-1.7 0-3.8-.3-4.9-.8c.1-1.6.5-2.9 1-4zm18.8-10c0 0-.5 3.2-.5 3.2c1.3-2.1 2.9-3.3 4.9-3.3c2.1 0 3.2 1.2 3.2 2.8c0 .6-.1 1.1-.2 1.7c0 0-1 5.7-1 5.7c-.1.7-.2 1.1-.2 1.4c0 .6.3.8 1.1.8c.03.05 1 0 1 0c0 0-.28 1.7-.3 1.7c-.7.4-2.1.8-3.6.8c-1.7 0-2.5-.7-2.5-2.2c0-.6.1-1.3.2-1.7c0 0 1-5.5 1-5.5c.1-.5.2-1 .2-1.3c0-.8-.4-1.2-1.2-1.2c-.9 0-1.9.7-2.9 2.1c.03-.03-1.5 9.5-1.5 9.5l-4.1 0l1.8-11.9l-1.8-.4c0 0 .2-1.46.2-1.5c1.3-.4 4-.7 6.2-.7zm13.3-5c1.7 0 2.5 1.1 2.5 2.9c0 2.8-2 5.7-5.5 6.7c0 0-.8-1.4-.8-1.4c1.6-.7 3-1.9 3.3-3.5c-1.2 0-2-.9-2-2.1c0-1.5 1-2.6 2.5-2.6zm5.9 5.1c0 0 .7-2.3.7-2.3c.8-.2 2.5-.4 3.7-.4c.02-.02-.4 2.8-.4 2.8l3.2 0l-.3 2.1l-3.2 0c0 0-1.02 6.39-1 6.4c-.1.8-.2 1.5-.2 2.1c0 .8.2 1.2.8 1.2c.8 0 1.6-1.1 2.3-2.3c0 0 1.2.5 1.2.5c-.9 2.7-2.6 4.6-5.3 4.6c-2.2 0-3.2-1.2-3.2-3.2c0-.7.1-1.8.2-2.8c.04.01 1-6.5 1-6.5l-2 0c0 0 .29-1.5.3-1.5c.4-.3 1.2-.6 2.2-.7z" stroke="none" fill="#404040"/><path d="m8.7 111.2c2.9 0 4.5 1.3 4.5 3.4c0 2.8-2.2 4.5-6.7 4.5c0 0-1.2 0-1.2 0c0 .4 0 .9 0 1.4c0 1.9.8 2.8 2 2.8c1.4 0 2.4-.8 3.4-2.4c0 0 1.4.6 1.4.6c-1.1 3.1-3.3 4.7-6.1 4.7c-3.4 0-5-1.9-5-5.4c0-5.1 2.7-9.6 7.7-9.6zm-3.2 6.4c0 0 .6 0 .6 0c2.3 0 3.3-1.2 3.3-2.7c0-.9-.4-1.5-1.2-1.5c-1.4 0-2.3 1.8-2.7 4.2zm15.7-6.4c1.4 0 2.3.5 2.9 1.3c.6-.6 1.7-1.1 2.6-1.3c0 0 1.4.4 1.4.4c0 0-1.52 9.77-1.5 9.8c-.1.5-.2 1.1-.2 1.4c0 .6.3.8 1.1.8c.01.05 1 0 1 0c0 0-.3 1.7-.3 1.7c-.8.4-2.2.8-3.6.8c-1.7 0-2.4-.8-2.4-2.2c0-.2 0-.3 0-.5c-.9 1.7-2.3 2.7-4.3 2.7c-2.5 0-3.8-1.8-3.8-5c0-5.4 2.8-9.9 7.1-9.9zm1.2 10.3c0 0 1.3-7.7 1.3-7.7c-.4-.1-.9-.2-1.3-.2c-2.5 0-4 3.5-4 7.4c0 1.6.5 2.4 1.6 2.4c1 0 1.7-.8 2.4-1.9zm8.2-.2c0 .04 2 0 2 0c0 0 .25 2.92.2 2.9c.4.1.9.1 1.3.1c1.6 0 2.6-.8 2.6-1.9c0-1.2-1.2-1.7-2.5-2.5c0 0-1-.5-1-.5c-1.2-.7-2.2-1.8-2.2-3.5c0-3 2.4-4.7 5.9-4.7c1.9 0 3.7.4 4.7.8c0 1.4-.2 2.7-.9 4c.01 0-2.1 0-2.1 0c0 0-.08-2.79-.1-2.8c-.4-.1-.8-.1-1.3-.1c-1.3 0-2.3.6-2.3 1.9c0 1 1 1.5 2 2.1c0 0 1.1.6 1.1.6c1.4.8 2.8 1.8 2.8 3.7c0 2.9-2.4 4.7-6.4 4.7c-1.6 0-3.7-.3-4.8-.8c.1-1.6.4-2.9 1-4zm15.9 5.3c.03.02.1-.2.1-.2l-2.1-12.5l-1.8-.4c0 0 .2-1.46.2-1.5c1.2-.4 3.4-.7 5.3-.7c0 0 1.8 10.7 1.8 10.7c2-2.7 2.8-5.3 3-8c-.02-.04-1.8-.5-1.8-.5c0 0 .19-1.46.2-1.5c.9-.4 2.4-.7 3.4-.7c1.4 0 1.8.6 1.8 1.8c0 2.7-2.2 6-5.2 10.1c0 0-2.8 4-2.8 4c-1.7 2.2-3.4 4.5-5.6 4.5c-1.3 0-2.2-.6-2.9-1.6c0 0 .4-1.4.4-1.4c.7.3 1.7.5 2.4.5c1.9 0 2.7-1.2 3.6-2.6zm19-15.2c0 0 .7-2.3.7-2.3c.8-.2 2.5-.4 3.7-.4c.03-.02-.4 2.8-.4 2.8l3.2 0l-.3 2.1l-3.2 0c0 0-1.01 6.39-1 6.4c-.1.8-.2 1.5-.2 2.1c0 .8.2 1.2.8 1.2c.9 0 1.6-1.1 2.3-2.3c0 0 1.2.5 1.2.5c-.9 2.7-2.6 4.6-5.3 4.6c-2.2 0-3.2-1.2-3.2-3.2c0-.7.1-1.8.2-2.8c.05.01 1-6.5 1-6.5l-2 0c0 0 .3-1.5.3-1.5c.4-.3 1.2-.6 2.2-.7zm16.1-.2c4.1 0 5.9 2.2 5.9 5.6c0 4.8-2.7 9.4-8.1 9.4c-4.2 0-5.9-2.3-5.9-5.6c0-4.8 2.6-9.4 8.1-9.4zm-2 12.9c2.3 0 3.6-4.4 3.6-7.9c0-1.6-.5-2.9-1.8-2.9c-2.4 0-3.6 4.3-3.6 7.9c0 1.6.5 2.9 1.8 2.9zm16.7 1.2c-.8-.4-1.2-1.1-1.2-2c0-1.2 1-2.5 2.7-3.2c-1.8-.6-2.7-2-2.7-3.6c0-3.1 2.4-5.3 6.6-5.3c1.6 0 2.8.3 3.7.8c.8-.7 2.3-1.1 3.7-1.1c0 .7-.1 1.7-.5 2.7c0 0-1.7 0-1.7 0c.2.5.4 1.1.4 1.8c0 3.1-2.5 5.2-6.7 5.2c-.5 0-1 0-1.5-.1c-.4.3-.7.7-.7 1.1c0 .5.3.8 1 .8c0 0 3.4.3 3.4.3c3 .2 4.2 1.2 4.2 3.3c0 2.9-3.1 5.7-8.5 5.7c-3.7 0-5.6-1.2-5.6-3.1c0-1.7 1.2-2.8 3.4-3.3zm7-10.2c0-1.4-.6-2.3-1.8-2.3c-1.7 0-2.4 1.8-2.4 3.9c0 1.5.6 2.3 1.7 2.3c1.7 0 2.5-1.8 2.5-3.9zm-7.1 12.8c0 1.3 1.2 1.9 3.1 1.9c2.5 0 4.2-.8 4.2-2.4c0-.9-.5-1.3-2-1.4c0 0-3.7-.3-3.7-.3c-1.1.5-1.6 1.3-1.6 2.2zm20.2-16.7c2.9 0 4.5 1.3 4.5 3.4c0 2.8-2.2 4.5-6.7 4.5c0 0-1.2 0-1.2 0c0 .4 0 .9 0 1.4c0 1.9.8 2.8 2.1 2.8c1.4 0 2.3-.8 3.3-2.4c0 0 1.4.6 1.4.6c-1.1 3.1-3.3 4.7-6.1 4.7c-3.3 0-5-1.9-5-5.4c0-5.1 2.7-9.6 7.7-9.6zm-3.2 6.4c0 0 .6 0 .6 0c2.3 0 3.3-1.2 3.3-2.7c0-.9-.4-1.5-1.2-1.5c-1.4 0-2.3 1.8-2.7 4.2zm11.4-6.2c0 0 .6-2.3.6-2.3c.8-.2 2.5-.4 3.7-.4c.04-.02-.4 2.8-.4 2.8l3.2 0l-.3 2.1l-3.2 0c0 0-1 6.39-1 6.4c-.1.8-.2 1.5-.2 2.1c0 .8.2 1.2.8 1.2c.9 0 1.6-1.1 2.3-2.3c0 0 1.2.5 1.2.5c-.9 2.7-2.5 4.6-5.3 4.6c-2.2 0-3.2-1.2-3.2-3.2c0-.7.1-1.8.3-2.8c-.04.01.9-6.5.9-6.5l-2 0c0 0 .31-1.5.3-1.5c.4-.3 1.2-.6 2.3-.7zm15.8 0c0 0 .7-2.3.7-2.3c.7-.2 2.4-.4 3.6-.4c.05-.02-.4 2.8-.4 2.8l3.2 0l-.3 2.1l-3.2 0c0 0-.99 6.39-1 6.4c-.1.8-.2 1.5-.2 2.1c0 .8.2 1.2.8 1.2c.9 0 1.6-1.1 2.3-2.3c0 0 1.2.5 1.2.5c-.9 2.7-2.5 4.6-5.3 4.6c-2.2 0-3.2-1.2-3.2-3.2c0-.7.1-1.8.3-2.8c-.03.01 1-6.5 1-6.5l-2.1 0c0 0 .32-1.5.3-1.5c.4-.3 1.2-.6 2.3-.7zm16-.2c4.1 0 5.9 2.2 5.9 5.6c0 4.8-2.6 9.4-8.1 9.4c-4.1 0-5.9-2.3-5.9-5.6c0-4.8 2.7-9.4 8.1-9.4zm-2 12.9c2.3 0 3.6-4.4 3.6-7.9c0-1.6-.5-2.9-1.8-2.9c-2.3 0-3.6 4.3-3.6 7.9c0 1.6.5 2.9 1.8 2.9zm36.5-7.6l-.4 2.7l-22.7 0l.4-2.7l22.7 0zm8.5 10.1c-.02.02.1-.2.1-.2l-2.2-12.5l-1.7-.4c0 0 .15-1.46.1-1.5c1.3-.4 3.4-.7 5.3-.7c0 0 1.8 10.7 1.8 10.7c2-2.7 2.8-5.3 3-8c.03-.04-1.7-.5-1.7-.5c0 0 .14-1.46.1-1.5c1-.4 2.4-.7 3.5-.7c1.4 0 1.7.6 1.7 1.8c0 2.7-2.1 6-5.1 10.1c0 0-2.9 4-2.9 4c-1.6 2.2-3.4 4.5-5.6 4.5c-1.3 0-2.2-.6-2.8-1.6c0 0 .3-1.4.3-1.4c.7.3 1.8.5 2.4.5c1.9 0 2.8-1.2 3.7-2.6zm18.5-15.4c4.2 0 6 2.2 6 5.6c0 4.8-2.7 9.4-8.1 9.4c-4.2 0-5.9-2.3-5.9-5.6c0-4.8 2.6-9.4 8-9.4zm-1.9 12.9c2.3 0 3.5-4.4 3.5-7.9c0-1.6-.4-2.9-1.7-2.9c-2.4 0-3.6 4.3-3.6 7.9c0 1.6.5 2.9 1.8 2.9zm23.9-12.8c0 0-1.6 10.1-1.6 10.1c-.1.5-.2 1.1-.2 1.4c0 .6.3.8 1.1.8c.02.05 1 0 1 0c0 0-.29 1.7-.3 1.7c-.7.4-2.2.8-3.6.8c-1.7 0-2.4-.8-2.4-2.2c0-.3.1-.8.1-1.1c0 0 0 0 0 0c-1.2 2.1-3.1 3.3-5.1 3.3c-2 0-3-1.1-3-2.8c0-.5 0-.9.1-1.5c.02.05 1.3-7.9 1.3-7.9l-1.8-.4c0 0 .19-1.46.2-1.5c1.3-.4 3.9-.7 6.2-.7c0 0-1.6 9.3-1.6 9.3c-.1.5-.1 1-.1 1.4c0 .7.3 1.1 1.2 1.1c.9 0 1.9-.6 2.8-2.1c.01.01 1.1-7.1 1.1-7.1l-1.8-.4c0 0 .29-1.46.3-1.5c1.3-.4 3.9-.7 6.1-.7zm15.2-.1c1.8 0 3.2.5 4 1.1c0 1.4-.5 3.2-1 4.3c-.01.03-2.2 0-2.2 0c0 0-.15-3.12-.2-3.1c-.1-.1-.2-.1-.4-.1c-2.3 0-3.8 3.7-3.8 7.1c0 1.9.9 2.8 2.1 2.8c1.4 0 2.4-.9 3.3-2.4c0 0 1.5.6 1.5.6c-1.2 3.1-3.3 4.7-6.3 4.7c-3.2 0-4.9-2-4.9-5.4c0-5.1 2.8-9.6 7.9-9.6zm11.9 0c1.4 0 2.3.5 2.9 1.3c.6-.6 1.7-1.1 2.6-1.3c.02 0 1.4.4 1.4.4c0 0-1.5 9.77-1.5 9.8c-.1.5-.2 1.1-.2 1.4c0 .6.3.8 1.1.8c.03.05 1 0 1 0c0 0-.28 1.7-.3 1.7c-.8.4-2.1.8-3.6.8c-1.7 0-2.4-.8-2.4-2.2c0-.2 0-.3 0-.5c-.9 1.7-2.3 2.7-4.3 2.7c-2.5 0-3.8-1.8-3.8-5c0-5.4 2.9-9.9 7.1-9.9zm1.3 10.3c0 0 1.2-7.7 1.2-7.7c-.4-.1-.9-.2-1.3-.2c-2.5 0-4 3.5-4 7.4c0 1.6.5 2.4 1.6 2.4c1 0 1.7-.8 2.5-1.9zm14.1-10.2c0 0-.6 3.2-.6 3.2c1.4-2.1 2.9-3.3 5-3.3c2.1 0 3.2 1.2 3.2 2.8c0 .6-.1 1.1-.2 1.7c0 0-1.1 5.7-1.1 5.7c-.1.7-.1 1.1-.1 1.4c0 .6.2.8 1.1.8c-.02.05.9 0 .9 0c0 0-.23 1.7-.2 1.7c-.8.4-2.2.8-3.6.8c-1.7 0-2.5-.7-2.5-2.2c0-.6.1-1.3.2-1.7c0 0 1-5.5 1-5.5c.1-.5.2-1 .2-1.3c0-.8-.4-1.2-1.2-1.2c-1 0-1.9.7-2.9 2.1c-.02-.03-1.5 9.5-1.5 9.5l-4.2 0l1.9-11.9l-1.8-.4c0 0 .15-1.46.1-1.5c1.4-.4 4-.7 6.3-.7zm13.3-5c1.7 0 2.4 1.1 2.4 2.9c0 2.8-2 5.7-5.4 6.7c0 0-.8-1.4-.8-1.4c1.5-.7 2.9-1.9 3.3-3.5c-1.3 0-2.1-.9-2.1-2.1c0-1.5 1.1-2.6 2.6-2.6zm5.9 5.1c0 0 .7-2.3.7-2.3c.8-.2 2.4-.4 3.7-.4c-.04-.02-.5 2.8-.5 2.8l3.3 0l-.3 2.1l-3.3 0c0 0-.98 6.39-1 6.4c-.1.8-.2 1.5-.2 2.1c0 .8.3 1.2.8 1.2c.9 0 1.6-1.1 2.3-2.3c0 0 1.2.5 1.2.5c-.9 2.7-2.5 4.6-5.2 4.6c-2.3 0-3.3-1.2-3.3-3.2c0-.7.1-1.8.3-2.8c-.02.01 1-6.5 1-6.5l-2.1 0c0 0 .33-1.5.3-1.5c.5-.3 1.3-.6 2.3-.7zm28.3-6.6c0 0-2.6 16.4-2.6 16.4c-.1.7-.2 1.3-.2 1.6c0 .6.3.8 1.1.8c-.01.05 1 0 1 0c0 0-.32 1.7-.3 1.7c-.8.4-2.2.8-3.6.8c-1.7 0-2.4-.8-2.4-2.2c0-.2 0-.3 0-.5c-.9 1.7-2.4 2.7-4.3 2.7c-2.5 0-3.8-1.8-3.8-5c0-5.4 2.8-9.9 7.1-9.9c1.2 0 2.1.4 2.7 1.1c-.01.01.7-4.7.7-4.7l-2.2-.5c0 0 .2-1.48.2-1.5c1.4-.4 4.4-.8 6.6-.8zm-6.7 16.7c0 0 1.2-7.7 1.2-7.7c-.4-.1-.9-.2-1.3-.2c-2.6 0-4 3.5-4 7.4c0 1.6.5 2.4 1.6 2.4c1 0 1.7-.8 2.5-1.9zm14-10.2c0 0-.5 3.5-.5 3.5c1.1-2.3 2.6-3.6 4.2-3.6c.9 0 1.5.3 1.8.5c0 1.7-.5 3.8-1 5c-.04-.01-2.3 0-2.3 0c0 0-.2-2.56-.2-2.6c-.9.2-1.9 1.2-2.9 2.9c.02-.04-1.4 8.8-1.4 8.8l-4.1 0l1.9-11.9l-1.9-.4c0 0 .21-1.46.2-1.5c1.4-.4 4-.7 6.2-.7zm9.7-6c.5-.1 1.2-.2 2.1-.2c.7 0 1.6.1 2 .2c0 1-.5 2.8-.9 3.7c-.5.2-1.1.3-1.9.3c-.7 0-1.4-.1-1.8-.3c0-1.4.1-2.7.5-3.7zm3.1 6c0 0-1.6 9.9-1.6 9.9c-.1.7-.1 1.2-.1 1.6c0 .6.2.8 1 .8c.04.05 1 0 1 0c0 0-.27 1.7-.3 1.7c-.7.4-2.1.8-3.6.8c-1.6 0-2.4-.8-2.4-2.2c0-.5 0-1.2.2-1.7c-.05.01 1.2-8.3 1.2-8.3l-1.8-.4c0 0 .19-1.46.2-1.5c1.3-.4 4-.7 6.2-.7zm1.1 2.2c0 0 .19-1.46.2-1.5c1.2-.4 3.4-.7 5.3-.7c-.03-.04 1.8 10.7 1.8 10.7c0 0 .6-.99.6-1c1.7-2.6 2.3-4.7 2.4-7c0-.04-1.8-.5-1.8-.5c0 0 .18-1.46.2-1.5c.9-.4 2.4-.7 3.4-.7c1.4 0 1.8.6 1.8 1.8c0 2.3-1.5 5.6-5.2 10.2c.01-.04-2.2 2.5-2.2 2.5l-2.6 0l-2.1-11.9l-1.8-.4zm22.1-2.3c2.9 0 4.4 1.3 4.4 3.4c0 2.8-2.1 4.5-6.7 4.5c0 0-1.1 0-1.1 0c-.1.4-.1.9-.1 1.4c0 1.9.9 2.8 2.1 2.8c1.4 0 2.4-.8 3.4-2.4c0 0 1.4.6 1.4.6c-1.2 3.1-3.3 4.7-6.2 4.7c-3.3 0-5-1.9-5-5.4c0-5.1 2.8-9.6 7.8-9.6zm-3.2 6.4c0 0 .6 0 .6 0c2.3 0 3.3-1.2 3.3-2.7c0-.9-.4-1.5-1.2-1.5c-1.4 0-2.4 1.8-2.7 4.2zm16.9-6.2c0 0 .7-2.3.7-2.3c.8-.2 2.5-.4 3.7-.4c.01-.02-.4 2.8-.4 2.8l3.2 0l-.3 2.1l-3.2 0c0 0-1.03 6.39-1 6.4c-.1.8-.2 1.5-.2 2.1c0 .8.2 1.2.8 1.2c.8 0 1.6-1.1 2.3-2.3c0 0 1.2.5 1.2.5c-.9 2.7-2.6 4.6-5.3 4.6c-2.2 0-3.2-1.2-3.2-3.2c0-.7.1-1.8.2-2.8c.03.01 1-6.5 1-6.5l-2 0c0 0 .28-1.5.3-1.5c.4-.3 1.2-.6 2.2-.7zm16.1-.2c4.1 0 5.9 2.2 5.9 5.6c0 4.8-2.7 9.4-8.1 9.4c-4.2 0-5.9-2.3-5.9-5.6c0-4.8 2.6-9.4 8.1-9.4zm-2 12.9c2.3 0 3.5-4.4 3.5-7.9c0-1.6-.4-2.9-1.7-2.9c-2.4 0-3.6 4.3-3.6 7.9c0 1.6.5 2.9 1.8 2.9zm17.6-12.7c0 0 .7-2.3.7-2.3c.8-.2 2.5-.4 3.7-.4c.02-.02-.4 2.8-.4 2.8l3.2 0l-.3 2.1l-3.2 0c0 0-1.02 6.39-1 6.4c-.1.8-.2 1.5-.2 2.1c0 .8.2 1.2.8 1.2c.9 0 1.6-1.1 2.3-2.3c0 0 1.2.5 1.2.5c-.9 2.7-2.6 4.6-5.3 4.6c-2.2 0-3.2-1.2-3.2-3.2c0-.7.1-1.8.2-2.8c.04.01 1-6.5 1-6.5l-2 0c0 0 .29-1.5.3-1.5c.4-.3 1.2-.6 2.2-.7zm16.3 10.8c0 0 1-5.5 1-5.5c.1-.5.2-1 .2-1.3c0-.8-.4-1.2-1.2-1.2c-1 0-1.9.7-2.9 2.1c-.04 0-1.5 9.5-1.5 9.5l-4.2 0l2.9-18.3l-2.1-.4c0 0 .15-1.48.2-1.5c1.3-.4 4.2-.8 6.4-.8c0 0-1.5 9.7-1.5 9.7c1.4-2.1 3-3.3 5-3.3c2.1 0 3.2 1.2 3.2 2.8c0 .6-.1 1.1-.2 1.7c0 0-1 5.7-1 5.7c-.2.7-.2 1.1-.2 1.4c0 .6.3.8 1.1.8c-.01.05 1 0 1 0c0 0-.32 1.7-.3 1.7c-.8.4-2.2.8-3.6.8c-1.7 0-2.5-.7-2.5-2.2c0-.6.1-1.3.2-1.7zm15.5-11c2.9 0 4.4 1.3 4.4 3.4c0 2.8-2.1 4.5-6.7 4.5c0 0-1.1 0-1.1 0c-.1.4-.1.9-.1 1.4c0 1.9.9 2.8 2.1 2.8c1.4 0 2.4-.8 3.4-2.4c0 0 1.4.6 1.4.6c-1.2 3.1-3.4 4.7-6.2 4.7c-3.3 0-5-1.9-5-5.4c0-5.1 2.7-9.6 7.8-9.6zm-3.3 6.4c0 0 .6 0 .6 0c2.4 0 3.4-1.2 3.4-2.7c0-.9-.4-1.5-1.2-1.5c-1.4 0-2.4 1.8-2.8 4.2zm17.8-12.3c.5-.1 1.3-.2 2.2-.2c.7 0 1.6.1 2 .2c0 1-.5 2.8-.9 3.7c-.6.2-1.1.3-1.9.3c-.8 0-1.4-.1-1.8-.3c0-1.4.1-2.7.4-3.7zm3.2 6c0 0-1.6 9.9-1.6 9.9c-.1.7-.2 1.2-.2 1.6c0 .6.3.8 1.1.8c.02.05 1 0 1 0c0 0-.29 1.7-.3 1.7c-.7.4-2.1.8-3.6.8c-1.6 0-2.4-.8-2.4-2.2c0-.5 0-1.2.1-1.7c.03.01 1.3-8.3 1.3-8.3l-1.8-.4c0 0 .17-1.46.2-1.5c1.3-.4 3.9-.7 6.2-.7zm2.5 10c.03.04 2.1 0 2.1 0c0 0 .18 2.92.2 2.9c.4.1.8.1 1.2.1c1.6 0 2.6-.8 2.6-1.9c0-1.2-1.1-1.7-2.4-2.5c0 0-1-.5-1-.5c-1.2-.7-2.2-1.8-2.2-3.5c0-3 2.3-4.7 5.8-4.7c1.9 0 3.8.4 4.7.8c0 1.4-.1 2.7-.9 4c.04 0-2.1 0-2.1 0c0 0-.05-2.79-.1-2.8c-.3-.1-.8-.1-1.2-.1c-1.4 0-2.4.6-2.4 1.9c0 1 1 1.5 2.1 2.1c0 0 1 .6 1 .6c1.4.8 2.8 1.8 2.8 3.7c0 2.9-2.3 4.7-6.3 4.7c-1.7 0-3.8-.3-4.9-.8c.1-1.6.5-2.9 1-4zm19.3-16.5c0 0-2.5 16.4-2.5 16.4c-.2.7-.2 1.2-.2 1.6c0 .6.3.8 1.1.8c0 .05.9 0 .9 0c0 0-.24 1.7-.2 1.7c-.8.4-2.2.8-3.6.8c-1.7 0-2.5-.8-2.5-2.2c0-.5.1-1.2.2-1.7c-.02.01 2.3-14.7 2.3-14.7l-2.1-.4c0 0 .14-1.48.1-1.5c1.4-.4 4.3-.8 6.5-.8zm8 6.4c1.4 0 2.3.5 2.9 1.3c.6-.6 1.7-1.1 2.6-1.3c-.01 0 1.4.4 1.4.4c0 0-1.53 9.77-1.5 9.8c-.1.5-.2 1.1-.2 1.4c0 .6.3.8 1.1.8c0 .05 1 0 1 0c0 0-.31 1.7-.3 1.7c-.8.4-2.2.8-3.6.8c-1.7 0-2.4-.8-2.4-2.2c0-.2 0-.3 0-.5c-.9 1.7-2.4 2.7-4.3 2.7c-2.5 0-3.8-1.8-3.8-5c0-5.4 2.8-9.9 7.1-9.9zm1.2 10.3c0 0 1.3-7.7 1.3-7.7c-.4-.1-.9-.2-1.3-.2c-2.6 0-4 3.5-4 7.4c0 1.6.5 2.4 1.6 2.4c1 0 1.7-.8 2.4-1.9zm14.1-10.2c0 0-.5 3.2-.5 3.2c1.3-2.1 2.9-3.3 5-3.3c2.1 0 3.1 1.2 3.1 2.8c0 .6 0 1.1-.1 1.7c0 0-1.1 5.7-1.1 5.7c-.1.7-.2 1.1-.2 1.4c0 .6.3.8 1.1.8c.05.05 1 0 1 0c0 0-.26 1.7-.3 1.7c-.7.4-2.1.8-3.6.8c-1.7 0-2.5-.7-2.5-2.2c0-.6.2-1.3.2-1.7c0 0 1-5.5 1-5.5c.1-.5.2-1 .2-1.3c0-.8-.3-1.2-1.2-1.2c-.9 0-1.8.7-2.9 2.1c.05-.03-1.5 9.5-1.5 9.5l-4.1 0l1.9-11.9l-1.9-.4c0 0 .22-1.46.2-1.5c1.4-.4 4-.7 6.2-.7zm25-6.5c0 0-2.5 16.4-2.5 16.4c-.1.7-.2 1.3-.2 1.6c0 .6.3.8 1.1.8c-.03.05.9 0 .9 0c0 0-.24 1.7-.2 1.7c-.8.4-2.2.8-3.6.8c-1.7 0-2.4-.8-2.4-2.2c0-.2 0-.3 0-.5c-1 1.7-2.4 2.7-4.3 2.7c-2.6 0-3.9-1.8-3.9-5c0-5.4 2.9-9.9 7.2-9.9c1.2 0 2.1.4 2.7 1.1c-.03.01.7-4.7.7-4.7l-2.2-.5c0 0 .18-1.48.2-1.5c1.3-.4 4.3-.8 6.5-.8zm-6.7 16.7c0 0 1.2-7.7 1.2-7.7c-.4-.1-.8-.2-1.3-.2c-2.5 0-4 3.5-4 7.4c0 1.6.6 2.4 1.6 2.4c1 0 1.8-.8 2.5-1.9zm8.3-.2c-.02.04 2 0 2 0c0 0 .23 2.92.2 2.9c.4.1.8.1 1.3.1c1.6 0 2.5-.8 2.5-1.9c0-1.2-1.1-1.7-2.4-2.5c0 0-1-.5-1-.5c-1.2-.7-2.2-1.8-2.2-3.5c0-3 2.4-4.7 5.8-4.7c2 0 3.8.4 4.8.8c0 1.4-.2 2.7-.9 4c-.01 0-2.1 0-2.1 0c0 0-.1-2.79-.1-2.8c-.4-.1-.8-.1-1.3-.1c-1.3 0-2.3.6-2.3 1.9c0 1 1 1.5 2 2.1c0 0 1.1.6 1.1.6c1.4.8 2.7 1.8 2.7 3.7c0 2.9-2.3 4.7-6.3 4.7c-1.6 0-3.7-.3-4.8-.8c0-1.6.4-2.9 1-4zm12.3 2.7c0-1.8 1.1-3 2.7-3c1.5 0 2.3.8 2.3 2.3c0 1.7-1 2.9-2.6 2.9c-1.4 0-2.4-.8-2.4-2.2zm24.3-.1c.04-.04-.5-3.4-.5-3.4l-6.3 0c0 0-1.59 3.33-1.6 3.3c.8.1 1.5.3 2 .4c-.01.05-.3 1.6-.3 1.6l-6.2 0c0 0 .25-1.55.2-1.6c.3-.1.8-.2 1.4-.3c0 0 9-17.3 9-17.3c.5-.1 1.3-.2 1.9-.2c.6 0 1.1.1 1.6.2c0 0 3.4 17.3 3.4 17.3c.5 0 1 .2 1.3.3c.02.05-.2 1.6-.2 1.6l-8 0c0 0 .18-1.55.2-1.6c.4-.1 1.4-.3 2.1-.3zm-.9-5.6l-1.3-7.2l-3.5 7.2l4.8 0z" stroke="none" fill="#404040"/><path d="m1.5 158.3c0 .04 2 0 2 0c0 0 .25 2.92.3 2.9c.3.1.8.1 1.2.1c1.6 0 2.6-.8 2.6-1.9c0-1.2-1.2-1.7-2.5-2.5c0 0-1-.5-1-.5c-1.2-.7-2.2-1.8-2.2-3.5c0-3 2.4-4.7 5.9-4.7c1.9 0 3.8.4 4.7.8c0 1.4-.2 2.7-.9 4c.01 0-2.1 0-2.1 0c0 0-.08-2.79-.1-2.8c-.4-.1-.8-.1-1.3-.1c-1.3 0-2.3.6-2.3 1.9c0 1 1 1.5 2 2.1c0 0 1.1.6 1.1.6c1.4.8 2.8 1.8 2.8 3.7c0 2.9-2.4 4.7-6.4 4.7c-1.6 0-3.7-.3-4.8-.8c.1-1.6.4-2.9 1-4zm20.5.9c0 0 1-5.5 1-5.5c.1-.5.2-1 .2-1.3c0-.8-.3-1.2-1.2-1.2c-.9 0-1.8.7-2.9 2.1c.01 0-1.5 9.5-1.5 9.5l-4.1 0l2.8-18.3l-2.1-.4c0 0 .2-1.48.2-1.5c1.3-.4 4.3-.8 6.5-.8c0 0-1.5 9.7-1.5 9.7c1.3-2.1 2.9-3.3 5-3.3c2.1 0 3.1 1.2 3.1 2.8c0 .6-.1 1.1-.1 1.7c0 0-1.1 5.7-1.1 5.7c-.1.7-.2 1.1-.2 1.4c0 .6.3.8 1.1.8c.04.05 1 0 1 0c0 0-.27 1.7-.3 1.7c-.7.4-2.1.8-3.6.8c-1.7 0-2.5-.7-2.5-2.2c0-.6.2-1.3.2-1.7zm15.8-11c4.2 0 5.9 2.2 5.9 5.6c0 4.8-2.6 9.4-8 9.4c-4.2 0-5.9-2.3-5.9-5.6c0-4.8 2.6-9.4 8-9.4zm-2 12.9c2.4 0 3.6-4.4 3.6-7.9c0-1.6-.5-2.9-1.8-2.9c-2.3 0-3.5 4.3-3.5 7.9c0 1.6.5 2.9 1.7 2.9zm16.1-12.8c0 0-.5 3.5-.5 3.5c1-2.3 2.6-3.6 4.2-3.6c.9 0 1.5.3 1.8.5c0 1.7-.5 3.8-1.1 5c.04-.01-2.2 0-2.2 0c0 0-.22-2.56-.2-2.6c-1 .2-1.9 1.2-2.9 2.9c0-.04-1.4 8.8-1.4 8.8l-4.2 0l1.9-11.9l-1.8-.4c0 0 .19-1.46.2-1.5c1.3-.4 3.9-.7 6.2-.7zm9.1.1c0 0 .7-2.3.7-2.3c.8-.2 2.4-.4 3.7-.4c0-.02-.5 2.8-.5 2.8l3.3 0l-.3 2.1l-3.3 0c0 0-.94 6.39-.9 6.4c-.2.8-.3 1.5-.3 2.1c0 .8.3 1.2.9 1.2c.8 0 1.6-1.1 2.2-2.3c0 0 1.3.5 1.3.5c-.9 2.7-2.6 4.6-5.3 4.6c-2.2 0-3.3-1.2-3.3-3.2c0-.7.2-1.8.3-2.8c.02.01 1-6.5 1-6.5l-2 0c0 0 .27-1.5.3-1.5c.4-.3 1.2-.6 2.2-.7zm20.8-6.6c0 0-1.4 9-1.4 9c.9-1.6 2.3-2.6 4.2-2.6c2.5 0 3.9 2 3.9 5c0 5.3-2.6 9.9-7.2 9.9c-1.4 0-2.4-.4-3.1-1.2c-.7.6-1.6 1.1-2.5 1.2c.05.04-1.3-.3-1.3-.3l2.8-18.3l-2.1-.4c0 0 .17-1.48.2-1.5c1.3-.4 4.3-.8 6.5-.8zm-1.7 11c0 0-1.2 7.7-1.2 7.7c.3.1.8.3 1.3.3c2.4 0 3.9-3.6 3.9-7.5c0-1.6-.5-2.4-1.6-2.4c-.9 0-1.7.8-2.4 1.9zm24.4-4.5c0 0-1.5 10.1-1.5 10.1c-.1.5-.2 1.1-.2 1.4c0 .6.2.8 1.1.8c-.01.05.9 0 .9 0c0 0-.22 1.7-.2 1.7c-.8.4-2.2.8-3.6.8c-1.7 0-2.4-.8-2.4-2.2c0-.3 0-.8.1-1.1c0 0 0 0 0 0c-1.2 2.1-3.1 3.3-5.1 3.3c-2.1 0-3.1-1.1-3.1-2.8c0-.5.1-.9.2-1.5c-.01.05 1.3-7.9 1.3-7.9l-1.8-.4c0 0 .16-1.46.2-1.5c1.3-.4 3.9-.7 6.1-.7c0 0-1.5 9.3-1.5 9.3c-.1.5-.1 1-.1 1.4c0 .7.3 1.1 1.1 1.1c1 0 1.9-.6 2.9-2.1c-.02.01 1.1-7.1 1.1-7.1l-1.8-.4c0 0 .26-1.46.3-1.5c1.3-.4 3.8-.7 6-.7zm4.3.1c0 0 .7-2.3.7-2.3c.8-.2 2.4-.4 3.7-.4c-.01-.02-.5 2.8-.5 2.8l3.3 0l-.3 2.1l-3.3 0c0 0-.95 6.39-1 6.4c-.1.8-.2 1.5-.2 2.1c0 .8.3 1.2.8 1.2c.9 0 1.7-1.1 2.3-2.3c0 0 1.3.5 1.3.5c-.9 2.7-2.6 4.6-5.3 4.6c-2.2 0-3.3-1.2-3.3-3.2c0-.7.2-1.8.3-2.8c.01.01 1-6.5 1-6.5l-2 0c0 0 .26-1.5.3-1.5c.4-.3 1.2-.6 2.2-.7zm20.9-.2c2.9 0 4.4 1.3 4.4 3.4c0 2.8-2.1 4.5-6.7 4.5c0 0-1.1 0-1.1 0c-.1.4-.1.9-.1 1.4c0 1.9.9 2.8 2.1 2.8c1.4 0 2.4-.8 3.4-2.4c0 0 1.4.6 1.4.6c-1.2 3.1-3.4 4.7-6.2 4.7c-3.3 0-5-1.9-5-5.4c0-5.1 2.7-9.6 7.8-9.6zm-3.3 6.4c0 0 .6 0 .6 0c2.4 0 3.4-1.2 3.4-2.7c0-.9-.4-1.5-1.2-1.5c-1.4 0-2.4 1.8-2.8 4.2zm14.2-6.3c.04-.04 1.9 5 1.9 5c0 0 2.46-4.71 2.5-4.7c.5-.1 3.5-.1 4-.1c0 0-.2 1.6-.2 1.6c-.4.1-.9.3-1.5.4c.03.04-3.9 5.1-3.9 5.1c0 0 1.53 3.79 1.5 3.8c.4 1.1.7 1.2 1.8 1.2c-.03.05.8 0 .8 0c0 0-.23 1.7-.2 1.7c-1 .5-2 .8-3.1.8c-1.7 0-2.6-.7-3.2-2.4c.03.04-.9-2.4-.9-2.4l-2.4 4.5l-4.1 0c0 0 .29-1.55.3-1.6c.3-.1.9-.3 1.5-.4c-.01.03 3.8-4.9 3.8-4.9l-1.9-4.9l-1.9-.5c0 0 .14-1.46.1-1.5c1.3-.4 3.3-.7 5.1-.7zm16-.1c1.8 0 3.2.5 4 1.1c0 1.4-.5 3.2-1 4.3c0 .03-2.2 0-2.2 0c0 0-.14-3.12-.1-3.1c-.2-.1-.3-.1-.5-.1c-2.3 0-3.8 3.7-3.8 7.1c0 1.9.9 2.8 2.1 2.8c1.4 0 2.4-.9 3.4-2.4c0 0 1.4.6 1.4.6c-1.2 3.1-3.3 4.7-6.3 4.7c-3.2 0-4.9-2-4.9-5.4c0-5.1 2.8-9.6 7.9-9.6zm8.7-5.9c.5-.1 1.3-.2 2.1-.2c.7 0 1.6.1 2 .2c0 1-.4 2.8-.9 3.7c-.5.2-1.1.3-1.9.3c-.7 0-1.4-.1-1.8-.3c0-1.4.1-2.7.5-3.7zm3.1 6c0 0-1.5 9.9-1.5 9.9c-.2.7-.2 1.2-.2 1.6c0 .6.2.8 1.1.8c-.04.05.9 0 .9 0c0 0-.25 1.7-.3 1.7c-.7.4-2.1.8-3.6.8c-1.6 0-2.4-.8-2.4-2.2c0-.5 0-1.2.2-1.7c-.03.01 1.3-8.3 1.3-8.3l-1.9-.4c0 0 .21-1.46.2-1.5c1.3-.4 4-.7 6.2-.7zm4.2.1c0 0 .7-2.3.7-2.3c.8-.2 2.5-.4 3.7-.4c.03-.02-.4 2.8-.4 2.8l3.2 0l-.3 2.1l-3.2 0c0 0-1.01 6.39-1 6.4c-.1.8-.2 1.5-.2 2.1c0 .8.2 1.2.8 1.2c.9 0 1.6-1.1 2.3-2.3c0 0 1.2.5 1.2.5c-.9 2.7-2.6 4.6-5.3 4.6c-2.2 0-3.2-1.2-3.2-3.2c0-.7.1-1.8.2-2.8c.05.01 1-6.5 1-6.5l-2 0c0 0 .3-1.5.3-1.5c.4-.3 1.2-.6 2.2-.7zm11.3-6.1c.5-.1 1.3-.2 2.1-.2c.7 0 1.6.1 2 .2c0 1-.4 2.8-.9 3.7c-.5.2-1.1.3-1.9.3c-.7 0-1.4-.1-1.8-.3c0-1.4.1-2.7.5-3.7zm3.1 6c0 0-1.5 9.9-1.5 9.9c-.2.7-.2 1.2-.2 1.6c0 .6.2.8 1.1.8c-.04.05.9 0 .9 0c0 0-.25 1.7-.3 1.7c-.7.4-2.1.8-3.6.8c-1.6 0-2.4-.8-2.4-2.2c0-.5 0-1.2.2-1.7c-.03.01 1.3-8.3 1.3-8.3l-1.9-.4c0 0 .21-1.46.2-1.5c1.3-.4 4-.7 6.2-.7zm8.4 0c0 0-.5 3.2-.5 3.2c1.3-2.1 2.9-3.3 4.9-3.3c2.1 0 3.2 1.2 3.2 2.8c0 .6-.1 1.1-.2 1.7c0 0-1 5.7-1 5.7c-.1.7-.2 1.1-.2 1.4c0 .6.3.8 1.1.8c.01.05 1 0 1 0c0 0-.3 1.7-.3 1.7c-.8.4-2.2.8-3.6.8c-1.7 0-2.5-.7-2.5-2.2c0-.6.1-1.3.2-1.7c0 0 1-5.5 1-5.5c.1-.5.2-1 .2-1.3c0-.8-.4-1.2-1.2-1.2c-.9 0-1.9.7-2.9 2.1c.01-.03-1.5 9.5-1.5 9.5l-4.2 0l1.9-11.9l-1.8-.4c0 0 .18-1.46.2-1.5c1.3-.4 3.9-.7 6.2-.7zm11.3 14c-.8-.4-1.2-1.1-1.2-2c0-1.2 1-2.5 2.7-3.2c-1.8-.6-2.7-2-2.7-3.6c0-3.1 2.5-5.3 6.7-5.3c1.5 0 2.7.3 3.6.8c.8-.7 2.4-1.1 3.7-1.1c0 .7 0 1.7-.4 2.7c0 0-1.8 0-1.8 0c.3.5.4 1.1.4 1.8c0 3.1-2.5 5.2-6.6 5.2c-.6 0-1.1 0-1.5-.1c-.4.3-.8.7-.8 1.1c0 .5.3.8 1.1.8c0 0 3.3.3 3.3.3c3 .2 4.2 1.2 4.2 3.3c0 2.9-3.1 5.7-8.5 5.7c-3.7 0-5.6-1.2-5.6-3.1c0-1.7 1.2-2.8 3.4-3.3zm7-10.2c0-1.4-.6-2.3-1.8-2.3c-1.7 0-2.4 1.8-2.4 3.9c0 1.5.6 2.3 1.8 2.3c1.7 0 2.4-1.8 2.4-3.9zm-7.1 12.8c0 1.3 1.2 1.9 3.2 1.9c2.4 0 4.1-.8 4.1-2.4c0-.9-.5-1.3-2-1.4c0 0-3.7-.3-3.7-.3c-1.1.5-1.6 1.3-1.6 2.2zm26.5-16.7c4.2 0 5.9 2.2 5.9 5.6c0 4.8-2.6 9.4-8 9.4c-4.2 0-5.9-2.3-5.9-5.6c0-4.8 2.6-9.4 8-9.4zm-2 12.9c2.4 0 3.6-4.4 3.6-7.9c0-1.6-.5-2.9-1.8-2.9c-2.3 0-3.5 4.3-3.5 7.9c0 1.6.5 2.9 1.7 2.9zm17.5-12.9c1.8 0 3.2.5 4 1.1c0 1.4-.5 3.2-1 4.3c.01.03-2.2 0-2.2 0c0 0-.13-3.12-.1-3.1c-.2-.1-.3-.1-.5-.1c-2.3 0-3.8 3.7-3.8 7.1c0 1.9.9 2.8 2.1 2.8c1.4 0 2.4-.9 3.4-2.4c0 0 1.4.6 1.4.6c-1.2 3.1-3.3 4.7-6.3 4.7c-3.2 0-4.9-2-4.9-5.4c0-5.1 2.8-9.6 7.9-9.6zm12.5 0c2.9 0 4.5 1.3 4.5 3.4c0 2.8-2.2 4.5-6.7 4.5c0 0-1.2 0-1.2 0c0 .4 0 .9 0 1.4c0 1.9.8 2.8 2 2.8c1.4 0 2.4-.8 3.4-2.4c0 0 1.4.6 1.4.6c-1.1 3.1-3.3 4.7-6.1 4.7c-3.4 0-5.1-1.9-5.1-5.4c0-5.1 2.8-9.6 7.8-9.6zm-3.2 6.4c0 0 .6 0 .6 0c2.3 0 3.3-1.2 3.3-2.7c0-.9-.4-1.5-1.2-1.5c-1.4 0-2.3 1.8-2.7 4.2zm15.7-6.4c1.4 0 2.3.5 2.9 1.3c.6-.6 1.7-1.1 2.6-1.3c-.01 0 1.4.4 1.4.4c0 0-1.53 9.77-1.5 9.8c-.1.5-.2 1.1-.2 1.4c0 .6.3.8 1.1.8c0 .05 1 0 1 0c0 0-.31 1.7-.3 1.7c-.8.4-2.2.8-3.6.8c-1.7 0-2.4-.8-2.4-2.2c0-.2 0-.3 0-.5c-.9 1.7-2.4 2.7-4.3 2.7c-2.5 0-3.8-1.8-3.8-5c0-5.4 2.8-9.9 7.1-9.9zm1.2 10.3c0 0 1.3-7.7 1.3-7.7c-.4-.1-.9-.2-1.3-.2c-2.6 0-4 3.5-4 7.4c0 1.6.5 2.4 1.6 2.4c1 0 1.7-.8 2.4-1.9zm14.1-10.2c0 0-.5 3.2-.5 3.2c1.3-2.1 2.9-3.3 5-3.3c2.1 0 3.1 1.2 3.1 2.8c0 .6 0 1.1-.1 1.7c0 0-1.1 5.7-1.1 5.7c-.1.7-.2 1.1-.2 1.4c0 .6.3.8 1.1.8c.05.05 1 0 1 0c0 0-.26 1.7-.3 1.7c-.7.4-2.1.8-3.6.8c-1.7 0-2.5-.7-2.5-2.2c0-.6.2-1.3.2-1.7c0 0 1-5.5 1-5.5c.1-.5.2-1 .2-1.3c0-.8-.3-1.2-1.2-1.2c-.9 0-1.8.7-2.9 2.1c.05-.03-1.5 9.5-1.5 9.5l-4.1 0l1.9-11.9l-1.9-.4c0 0 .22-1.46.2-1.5c1.4-.4 4-.7 6.2-.7zm14.8 2.2c0 0 .17-1.46.2-1.5c1.2-.4 3.4-.7 5.2-.7c.05-.04 1.8 10.7 1.8 10.7c0 0 .68-.99.7-1c1.6-2.6 2.2-4.7 2.4-7c-.02-.04-1.8-.5-1.8-.5c0 0 .16-1.46.2-1.5c.9-.4 2.4-.7 3.4-.7c1.4 0 1.7.6 1.7 1.8c0 2.3-1.4 5.6-5.1 10.2c-.01-.04-2.2 2.5-2.2 2.5l-2.7 0l-2-11.9l-1.8-.4zm22.4-2.3c4.1 0 5.9 2.2 5.9 5.6c0 4.8-2.7 9.4-8.1 9.4c-4.2 0-5.9-2.3-5.9-5.6c0-4.8 2.6-9.4 8.1-9.4zm-2 12.9c2.3 0 3.6-4.4 3.6-7.9c0-1.6-.5-2.9-1.8-2.9c-2.4 0-3.6 4.3-3.6 7.9c0 1.6.5 2.9 1.8 2.9zm12.3 2.5c.05.02.2-.2.2-.2l-2.2-12.5l-1.8-.4c0 0 .22-1.46.2-1.5c1.2-.4 3.4-.7 5.3-.7c0 0 1.8 10.7 1.8 10.7c2-2.7 2.8-5.3 3-8c0-.04-1.8-.5-1.8-.5c0 0 .21-1.46.2-1.5c1-.4 2.4-.7 3.4-.7c1.4 0 1.8.6 1.8 1.8c0 2.7-2.1 6-5.1 10.1c0 0-2.9 4-2.9 4c-1.7 2.2-3.4 4.5-5.6 4.5c-1.3 0-2.2-.6-2.8-1.6c0 0 .3-1.4.3-1.4c.7.3 1.7.5 2.4.5c1.9 0 2.7-1.2 3.6-2.6zm17.7-15.4c1.4 0 2.4.5 2.9 1.3c.7-.6 1.7-1.1 2.6-1.3c.04 0 1.4.4 1.4.4c0 0-1.48 9.77-1.5 9.8c0 .5-.2 1.1-.2 1.4c0 .6.3.8 1.1.8c.05.05 1 0 1 0c0 0-.26 1.7-.3 1.7c-.7.4-2.1.8-3.6.8c-1.7 0-2.4-.8-2.4-2.2c0-.2 0-.3.1-.5c-1 1.7-2.4 2.7-4.4 2.7c-2.5 0-3.8-1.8-3.8-5c0-5.4 2.9-9.9 7.1-9.9zm1.3 10.3c0 0 1.2-7.7 1.2-7.7c-.4-.1-.8-.2-1.3-.2c-2.5 0-4 3.5-4 7.4c0 1.6.6 2.4 1.6 2.4c1 0 1.8-.8 2.5-1.9zm8.9 3.8c-.8-.4-1.2-1.1-1.2-2c0-1.2 1-2.5 2.7-3.2c-1.8-.6-2.7-2-2.7-3.6c0-3.1 2.4-5.3 6.6-5.3c1.6 0 2.8.3 3.7.8c.8-.7 2.3-1.1 3.7-1.1c0 .7 0 1.7-.5 2.7c0 0-1.7 0-1.7 0c.2.5.4 1.1.4 1.8c0 3.1-2.5 5.2-6.6 5.2c-.6 0-1.1 0-1.5-.1c-.5.3-.8.7-.8 1.1c0 .5.3.8 1.1.8c0 0 3.3.3 3.3.3c3 .2 4.2 1.2 4.2 3.3c0 2.9-3.1 5.7-8.5 5.7c-3.7 0-5.6-1.2-5.6-3.1c0-1.7 1.2-2.8 3.4-3.3zm7-10.2c0-1.4-.6-2.3-1.8-2.3c-1.7 0-2.4 1.8-2.4 3.9c0 1.5.6 2.3 1.7 2.3c1.8 0 2.5-1.8 2.5-3.9zm-7.1 12.8c0 1.3 1.2 1.9 3.1 1.9c2.5 0 4.2-.8 4.2-2.4c0-.9-.5-1.3-2-1.4c0 0-3.7-.3-3.7-.3c-1.1.5-1.6 1.3-1.6 2.2zm20.2-16.7c3 0 4.5 1.3 4.5 3.4c0 2.8-2.1 4.5-6.7 4.5c0 0-1.1 0-1.1 0c-.1.4-.1.9-.1 1.4c0 1.9.9 2.8 2.1 2.8c1.4 0 2.4-.8 3.4-2.4c0 0 1.4.6 1.4.6c-1.2 3.1-3.4 4.7-6.2 4.7c-3.3 0-5-1.9-5-5.4c0-5.1 2.7-9.6 7.7-9.6zm-3.2 6.4c0 0 .6 0 .6 0c2.3 0 3.4-1.2 3.4-2.7c0-.9-.5-1.5-1.2-1.5c-1.4 0-2.4 1.8-2.8 4.2zm22.4-6.4c4.1 0 5.9 2.2 5.9 5.6c0 4.8-2.6 9.4-8.1 9.4c-4.1 0-5.9-2.3-5.9-5.6c0-4.8 2.7-9.4 8.1-9.4zm-2 12.9c2.3 0 3.6-4.4 3.6-7.9c0-1.6-.5-2.9-1.8-2.9c-2.3 0-3.6 4.3-3.6 7.9c0 1.6.5 2.9 1.8 2.9zm16.1-12.8c0 0-.6 3.5-.6 3.5c1.1-2.3 2.6-3.6 4.3-3.6c.8 0 1.4.3 1.7.5c0 1.7-.5 3.8-1 5c-.01-.01-2.3 0-2.3 0c0 0-.17-2.56-.2-2.6c-.9.2-1.9 1.2-2.8 2.9c-.05-.04-1.4 8.8-1.4 8.8l-4.2 0l1.9-11.9l-1.8-.4c0 0 .14-1.46.1-1.5c1.4-.4 4-.7 6.3-.7zm18.4-.1c1.4 0 2.3.5 2.9 1.3c.6-.6 1.7-1.1 2.6-1.3c.02 0 1.4.4 1.4.4c0 0-1.5 9.77-1.5 9.8c-.1.5-.2 1.1-.2 1.4c0 .6.3.8 1.1.8c.03.05 1 0 1 0c0 0-.28 1.7-.3 1.7c-.8.4-2.1.8-3.6.8c-1.7 0-2.4-.8-2.4-2.2c0-.2 0-.3.1-.5c-1 1.7-2.4 2.7-4.4 2.7c-2.5 0-3.8-1.8-3.8-5c0-5.4 2.9-9.9 7.1-9.9zm1.3 10.3c0 0 1.2-7.7 1.2-7.7c-.4-.1-.8-.2-1.3-.2c-2.5 0-4 3.5-4 7.4c0 1.6.6 2.4 1.6 2.4c1 0 1.7-.8 2.5-1.9zm20.8-10.3c1.8 0 3.2.5 4 1.1c0 1.4-.5 3.2-1 4.3c-.05.03-2.2 0-2.2 0c0 0-.19-3.12-.2-3.1c-.1-.1-.3-.1-.4-.1c-2.4 0-3.8 3.7-3.8 7.1c0 1.9.8 2.8 2.1 2.8c1.3 0 2.4-.9 3.3-2.4c0 0 1.4.6 1.4.6c-1.2 3.1-3.2 4.7-6.2 4.7c-3.3 0-4.9-2-4.9-5.4c0-5.1 2.8-9.6 7.9-9.6zm12.8 0c4.1 0 5.9 2.2 5.9 5.6c0 4.8-2.7 9.4-8.1 9.4c-4.2 0-5.9-2.3-5.9-5.6c0-4.8 2.6-9.4 8.1-9.4zm-2 12.9c2.3 0 3.6-4.4 3.6-7.9c0-1.6-.5-2.9-1.8-2.9c-2.4 0-3.6 4.3-3.6 7.9c0 1.6.5 2.9 1.8 2.9zm16-12.8c0 0-.5 3.2-.5 3.2c1.3-2.1 2.8-3.3 4.9-3.3c2.1 0 3.2 1.1 3.2 2.8c0 .1 0 .3 0 .4c1.3-2 2.9-3.2 4.9-3.2c2.1 0 3.1 1.2 3.1 2.8c0 .6 0 1.1-.1 1.7c0 0-1.1 5.7-1.1 5.7c-.1.7-.2 1.1-.2 1.4c0 .6.3.8 1.2.8c-.04.05.9 0 .9 0c0 0-.28 1.7-.3 1.7c-.7.4-2.1.8-3.6.8c-1.7 0-2.4-.7-2.4-2.2c0-.6.1-1.3.1-1.7c0 0 1-5.5 1-5.5c.2-.5.2-1 .2-1.3c0-.8-.3-1.2-1.2-1.2c-.9 0-1.8.7-2.8 2c.02.01-1.6 9.6-1.6 9.6l-4.1 0c0 0 1.55-9.23 1.6-9.2c0-.5.1-.9.1-1.2c0-.8-.4-1.2-1.2-1.2c-.9 0-1.8.7-2.8 2.1c-.05-.03-1.5 9.5-1.5 9.5l-4.2 0l1.9-11.9l-1.9-.4c0 0 .22-1.46.2-1.5c1.4-.4 4-.7 6.2-.7zm24.6 0c0 0-.5 3.2-.5 3.2c1.3-2.1 2.8-3.3 4.8-3.3c2.1 0 3.2 1.1 3.2 2.8c0 .1 0 .3 0 .4c1.4-2 2.9-3.2 4.9-3.2c2.1 0 3.2 1.2 3.2 2.8c0 .6-.1 1.1-.2 1.7c0 0-1 5.7-1 5.7c-.2.7-.2 1.1-.2 1.4c0 .6.3.8 1.1.8c0 .05.9 0 .9 0c0 0-.24 1.7-.2 1.7c-.8.4-2.2.8-3.6.8c-1.7 0-2.5-.7-2.5-2.2c0-.6.1-1.3.2-1.7c0 0 1-5.5 1-5.5c.1-.5.2-1 .2-1.3c0-.8-.4-1.2-1.2-1.2c-.9 0-1.8.7-2.8 2c-.04.01-1.6 9.6-1.6 9.6l-4.2 0c0 0 1.59-9.23 1.6-9.2c.1-.5.1-.9.1-1.2c0-.8-.3-1.2-1.2-1.2c-.9 0-1.8.7-2.8 2.1c-.01-.03-1.5 9.5-1.5 9.5l-4.2 0l1.9-11.9l-1.8-.4c0 0 .16-1.46.2-1.5c1.3-.4 3.9-.7 6.2-.7zm25.5-.1c2.9 0 4.5 1.3 4.5 3.4c0 2.8-2.2 4.5-6.7 4.5c0 0-1.2 0-1.2 0c0 .4 0 .9 0 1.4c0 1.9.9 2.8 2.1 2.8c1.4 0 2.4-.8 3.3-2.4c0 0 1.5.6 1.5.6c-1.2 3.1-3.4 4.7-6.2 4.7c-3.3 0-5-1.9-5-5.4c0-5.1 2.7-9.6 7.7-9.6zm-3.2 6.4c0 0 .6 0 .6 0c2.3 0 3.4-1.2 3.4-2.7c0-.9-.5-1.5-1.2-1.5c-1.5 0-2.4 1.8-2.8 4.2zm15.5-6.3c0 0-.5 3.5-.5 3.5c1-2.3 2.6-3.6 4.2-3.6c.9 0 1.5.3 1.8.5c0 1.7-.5 3.8-1.1 5c.04-.01-2.2 0-2.2 0c0 0-.22-2.56-.2-2.6c-.9.2-1.9 1.2-2.9 2.9c0-.04-1.4 8.8-1.4 8.8l-4.1 0l1.8-11.9l-1.8-.4c0 0 .19-1.46.2-1.5c1.3-.4 4-.7 6.2-.7zm13.4-.1c1.8 0 3.3.5 4 1.1c0 1.4-.4 3.2-1 4.3c.01.03-2.2 0-2.2 0c0 0-.13-3.12-.1-3.1c-.1-.1-.3-.1-.4-.1c-2.4 0-3.9 3.7-3.9 7.1c0 1.9.9 2.8 2.1 2.8c1.4 0 2.4-.9 3.4-2.4c0 0 1.4.6 1.4.6c-1.2 3.1-3.3 4.7-6.3 4.7c-3.2 0-4.9-2-4.9-5.4c0-5.1 2.8-9.6 7.9-9.6zm8.7-5.9c.5-.1 1.3-.2 2.1-.2c.8 0 1.6.1 2 .2c0 1-.4 2.8-.9 3.7c-.5.2-1.1.3-1.9.3c-.7 0-1.3-.1-1.8-.3c0-1.4.2-2.7.5-3.7zm3.1 6c0 0-1.5 9.9-1.5 9.9c-.1.7-.2 1.2-.2 1.6c0 .6.3.8 1.1.8c-.03.05.9 0 .9 0c0 0-.24 1.7-.2 1.7c-.8.4-2.2.8-3.6.8c-1.7 0-2.5-.8-2.5-2.2c0-.5.1-1.2.2-1.7c-.02.01 1.3-8.3 1.3-8.3l-1.9-.4c0 0 .22-1.46.2-1.5c1.3-.4 4-.7 6.2-.7zm9-.1c1.4 0 2.3.5 2.9 1.3c.6-.6 1.7-1.1 2.6-1.3c-.01 0 1.4.4 1.4.4c0 0-1.53 9.77-1.5 9.8c-.1.5-.2 1.1-.2 1.4c0 .6.3.8 1.1.8c0 .05 1 0 1 0c0 0-.31 1.7-.3 1.7c-.8.4-2.2.8-3.6.8c-1.7 0-2.4-.8-2.4-2.2c0-.2 0-.3 0-.5c-.9 1.7-2.3 2.7-4.3 2.7c-2.5 0-3.8-1.8-3.8-5c0-5.4 2.8-9.9 7.1-9.9zm1.2 10.3c0 0 1.3-7.7 1.3-7.7c-.4-.1-.9-.2-1.3-.2c-2.5 0-4 3.5-4 7.4c0 1.6.5 2.4 1.6 2.4c1 0 1.7-.8 2.4-1.9zm14.9-16.7c0 0-2.6 16.4-2.6 16.4c-.1.7-.1 1.2-.1 1.6c0 .6.2.8 1.1.8c-.04.05.9 0 .9 0c0 0-.28 1.7-.3 1.7c-.7.4-2.1.8-3.6.8c-1.6 0-2.4-.8-2.4-2.2c0-.5.1-1.2.1-1.7c.04.01 2.4-14.7 2.4-14.7l-2.2-.4c0 0 .2-1.48.2-1.5c1.3-.4 4.3-.8 6.5-.8z" stroke="none" fill="#404040"/><path d="m3.5 185.4c0 0 .1-.1.1-.1c.6-4.4 3.1-6.5 6.8-6.5c.9 0 1.8.2 2.5.4c1.4-.2 3-.4 4.3-.4c0 0-2.5 16.4-2.5 16.4c-.2.7-.2 1.2-.2 1.6c0 .6.2.8 1.1.8c-.03.05.9 0 .9 0c0 0-.24 1.7-.2 1.7c-.8.4-2.2.8-3.6.8c-1.7 0-2.5-.8-2.5-2.2c0-.5.1-1.2.1-1.7c0 0 2.5-15.3 2.5-15.3c-.5-.1-1.1-.2-1.7-.2c-1.8 0-2.9 1-3.3 4c-.03.05-.2.8-.2.8l2.6 0l-.3 2l-2.6 0c0 0-1.6 11.65-1.6 11.6c-.6 4.2-3.8 6.6-6.1 6.6c-1.2 0-2.2-.7-2.8-1.5c0 0 .1-1.5.1-1.5c.7.2 1.4.3 2.1.3c1.7 0 2.1-.4 2.5-3.1c-.03 0 1.7-12.4 1.7-12.4l-1.9 0c0 0 .23-1.4.2-1.4c.4-.2 1.1-.5 2-.7zm17.8-6.1c.5-.1 1.3-.2 2.1-.2c.7 0 1.6.1 2 .2c0 1-.4 2.8-.9 3.7c-.5.2-1.1.3-1.9.3c-.7 0-1.4-.1-1.8-.3c0-1.4.1-2.7.5-3.7zm3.1 6c0 0-1.5 9.9-1.5 9.9c-.2.7-.2 1.2-.2 1.6c0 .6.2.8 1.1.8c-.04.05.9 0 .9 0c0 0-.25 1.7-.3 1.7c-.7.4-2.1.8-3.6.8c-1.6 0-2.4-.8-2.4-2.2c0-.5 0-1.2.2-1.7c-.03.01 1.3-8.3 1.3-8.3l-1.9-.4c0 0 .21-1.46.2-1.5c1.3-.4 4-.7 6.2-.7zm3.1 14c-.7-.4-1.2-1.1-1.2-2c0-1.2 1-2.5 2.7-3.2c-1.8-.6-2.6-2-2.6-3.6c0-3.1 2.4-5.3 6.6-5.3c1.5 0 2.7.3 3.6.8c.8-.7 2.4-1.1 3.8-1.1c0 .7-.1 1.7-.5 2.7c0 0-1.8 0-1.8 0c.3.5.4 1.1.4 1.8c0 3.1-2.4 5.2-6.6 5.2c-.5 0-1 0-1.5-.1c-.4.3-.8.7-.8 1.1c0 .5.3.8 1.1.8c0 0 3.4.3 3.4.3c2.9.2 4.1 1.2 4.1 3.3c0 2.9-3.1 5.7-8.4 5.7c-3.8 0-5.6-1.2-5.6-3.1c0-1.7 1.1-2.8 3.3-3.3zm7-10.2c0-1.4-.6-2.3-1.7-2.3c-1.7 0-2.4 1.8-2.4 3.9c0 1.5.6 2.3 1.7 2.3c1.7 0 2.4-1.8 2.4-3.9zm-7.1 12.8c0 1.3 1.3 1.9 3.2 1.9c2.4 0 4.2-.8 4.2-2.4c0-.9-.6-1.3-2.1-1.4c0 0-3.7-.3-3.7-.3c-1 .5-1.6 1.3-1.6 2.2zm21.3-5.7c0 0 1-5.5 1-5.5c.1-.5.2-1 .2-1.3c0-.8-.3-1.2-1.2-1.2c-.9 0-1.8.7-2.9 2.1c.01 0-1.5 9.5-1.5 9.5l-4.1 0l2.8-18.3l-2.1-.4c0 0 .2-1.48.2-1.5c1.3-.4 4.3-.8 6.5-.8c0 0-1.5 9.7-1.5 9.7c1.3-2.1 2.9-3.3 5-3.3c2.1 0 3.1 1.2 3.1 2.8c0 .6-.1 1.1-.1 1.7c0 0-1.1 5.7-1.1 5.7c-.1.7-.2 1.1-.2 1.4c0 .6.3.8 1.1.8c.04.05 1 0 1 0c0 0-.27 1.7-.3 1.7c-.7.4-2.1.8-3.6.8c-1.7 0-2.5-.7-2.5-2.2c0-.6.2-1.3.2-1.7zm10.2-10.8c0 0 .7-2.3.7-2.3c.8-.2 2.4-.4 3.7-.4c0-.02-.5 2.8-.5 2.8l3.3 0l-.3 2.1l-3.3 0c0 0-.94 6.39-.9 6.4c-.2.8-.3 1.5-.3 2.1c0 .8.3 1.2.9 1.2c.8 0 1.6-1.1 2.2-2.3c0 0 1.3.5 1.3.5c-.9 2.7-2.6 4.6-5.3 4.6c-2.2 0-3.3-1.2-3.3-3.2c0-.7.2-1.8.3-2.8c.02.01 1-6.5 1-6.5l-2 0c0 0 .27-1.5.3-1.5c.4-.3 1.2-.6 2.2-.7zm16.6-6.1c.5-.1 1.3-.2 2.2-.2c.7 0 1.6.1 2 .2c0 1-.5 2.8-.9 3.7c-.6.2-1.1.3-1.9.3c-.8 0-1.4-.1-1.8-.3c0-1.4.1-2.7.4-3.7zm3.2 6c0 0-1.6 9.9-1.6 9.9c-.1.7-.2 1.2-.2 1.6c0 .6.3.8 1.1.8c.03.05 1 0 1 0c0 0-.28 1.7-.3 1.7c-.7.4-2.1.8-3.6.8c-1.6 0-2.4-.8-2.4-2.2c0-.5 0-1.2.1-1.7c.04.01 1.3-8.3 1.3-8.3l-1.8-.4c0 0 .18-1.46.2-1.5c1.3-.4 3.9-.7 6.2-.7zm8.4 0c0 0-.6 3.2-.6 3.2c1.4-2.1 2.9-3.3 5-3.3c2.1 0 3.2 1.2 3.2 2.8c0 .6-.1 1.1-.2 1.7c0 0-1.1 5.7-1.1 5.7c-.1.7-.1 1.1-.1 1.4c0 .6.2.8 1.1.8c-.02.05.9 0 .9 0c0 0-.23 1.7-.2 1.7c-.8.4-2.2.8-3.6.8c-1.7 0-2.5-.7-2.5-2.2c0-.6.1-1.3.2-1.7c0 0 1-5.5 1-5.5c.1-.5.2-1 .2-1.3c0-.8-.4-1.2-1.2-1.2c-1 0-1.9.7-2.9 2.1c-.02-.03-1.5 9.5-1.5 9.5l-4.2 0l1.9-11.9l-1.8-.4c0 0 .15-1.46.1-1.5c1.4-.4 4-.7 6.3-.7zm22.4-.1c1.4 0 2.3.5 2.9 1.3c.6-.6 1.7-1.1 2.6-1.3c-.01 0 1.4.4 1.4.4c0 0-1.53 9.77-1.5 9.8c-.1.5-.2 1.1-.2 1.4c0 .6.3.8 1.1.8c0 .05 1 0 1 0c0 0-.31 1.7-.3 1.7c-.8.4-2.2.8-3.6.8c-1.7 0-2.4-.8-2.4-2.2c0-.2 0-.3 0-.5c-.9 1.7-2.4 2.7-4.3 2.7c-2.5 0-3.8-1.8-3.8-5c0-5.4 2.8-9.9 7.1-9.9zm1.2 10.3c0 0 1.3-7.7 1.3-7.7c-.4-.1-.9-.2-1.3-.2c-2.6 0-4 3.5-4 7.4c0 1.6.5 2.4 1.6 2.4c1 0 1.7-.8 2.4-1.9zm13.5-.2c-.03.04 2 0 2 0c0 0 .22 2.92.2 2.9c.4.1.8.1 1.2.1c1.7 0 2.6-.8 2.6-1.9c0-1.2-1.1-1.7-2.4-2.5c0 0-1-.5-1-.5c-1.2-.7-2.2-1.8-2.2-3.5c0-3 2.4-4.7 5.8-4.7c2 0 3.8.4 4.8.8c0 1.4-.2 2.7-.9 4c-.02 0-2.2 0-2.2 0c0 0-.01-2.79 0-2.8c-.4-.1-.9-.1-1.3-.1c-1.4 0-2.3.6-2.3 1.9c0 1 1 1.5 2 2.1c0 0 1 .6 1 .6c1.5.8 2.8 1.8 2.8 3.7c0 2.9-2.3 4.7-6.3 4.7c-1.6 0-3.7-.3-4.8-.8c0-1.6.4-2.9 1-4zm18.7-10c0 0-.5 3.2-.5 3.2c1.4-2.1 2.9-3.3 4.9-3.3c2.1 0 3.2 1.1 3.2 2.8c0 .1 0 .3 0 .4c1.3-2 2.9-3.2 4.9-3.2c2.1 0 3.1 1.2 3.1 2.8c0 .6 0 1.1-.1 1.7c0 0-1.1 5.7-1.1 5.7c-.1.7-.2 1.1-.2 1.4c0 .6.3.8 1.2.8c-.02.05.9 0 .9 0c0 0-.26 1.7-.3 1.7c-.7.4-2.1.8-3.6.8c-1.6 0-2.4-.7-2.4-2.2c0-.6.1-1.3.2-1.7c0 0 .9-5.5.9-5.5c.2-.5.2-1 .2-1.3c0-.8-.3-1.2-1.1-1.2c-.9 0-1.8.7-2.9 2c.04.01-1.6 9.6-1.6 9.6l-4.1 0c0 0 1.57-9.23 1.6-9.2c0-.5.1-.9.1-1.2c0-.8-.4-1.2-1.2-1.2c-.9 0-1.8.7-2.8 2.1c-.03-.03-1.5 9.5-1.5 9.5l-4.2 0l1.9-11.9l-1.8-.4c0 0 .14-1.46.1-1.5c1.4-.4 4-.7 6.2-.7zm25.1-.1c1.3 0 2.3.5 2.8 1.3c.7-.6 1.8-1.1 2.7-1.3c-.04 0 1.4.4 1.4.4c0 0-1.56 9.77-1.6 9.8c0 .5-.1 1.1-.1 1.4c0 .6.2.8 1.1.8c-.03.05.9 0 .9 0c0 0-.24 1.7-.2 1.7c-.8.4-2.2.8-3.6.8c-1.8 0-2.4-.8-2.4-2.2c0-.2 0-.3 0-.5c-1 1.7-2.4 2.7-4.3 2.7c-2.6 0-3.9-1.8-3.9-5c0-5.4 2.9-9.9 7.2-9.9zm1.2 10.3c0 0 1.2-7.7 1.2-7.7c-.4-.1-.8-.2-1.3-.2c-2.5 0-4 3.5-4 7.4c0 1.6.6 2.4 1.6 2.4c1 0 1.8-.8 2.5-1.9zm14.8-16.7c0 0-2.5 16.4-2.5 16.4c-.1.7-.2 1.2-.2 1.6c0 .6.3.8 1.1.8c.03.05 1 0 1 0c0 0-.31 1.7-.3 1.7c-.8.4-2.2.8-3.6.8c-1.6 0-2.4-.8-2.4-2.2c0-.5 0-1.2.1-1.7c.01.01 2.3-14.7 2.3-14.7l-2.1-.4c0 0 .17-1.48.2-1.5c1.3-.4 4.2-.8 6.4-.8zm8.1 0c0 0-2.5 16.4-2.5 16.4c-.2.7-.2 1.2-.2 1.6c0 .6.3.8 1.1.8c0 .05.9 0 .9 0c0 0-.24 1.7-.2 1.7c-.8.4-2.2.8-3.6.8c-1.7 0-2.5-.8-2.5-2.2c0-.5.1-1.2.2-1.7c-.02.01 2.3-14.7 2.3-14.7l-2.1-.4c0 0 .14-1.48.1-1.5c1.4-.4 4.3-.8 6.5-.8zm13.4 6.4c1.4 0 2.3.5 2.9 1.3c.6-.6 1.7-1.1 2.6-1.3c-.01 0 1.4.4 1.4.4c0 0-1.53 9.77-1.5 9.8c-.1.5-.2 1.1-.2 1.4c0 .6.3.8 1.1.8c0 .05 1 0 1 0c0 0-.31 1.7-.3 1.7c-.8.4-2.2.8-3.6.8c-1.7 0-2.4-.8-2.4-2.2c0-.2 0-.3 0-.5c-.9 1.7-2.4 2.7-4.3 2.7c-2.5 0-3.8-1.8-3.8-5c0-5.4 2.8-9.9 7.1-9.9zm1.2 10.3c0 0 1.3-7.7 1.3-7.7c-.4-.1-.9-.2-1.3-.2c-2.6 0-4 3.5-4 7.4c0 1.6.5 2.4 1.6 2.4c1 0 1.7-.8 2.4-1.9zm10.9-16.2c.5-.1 1.2-.2 2.1-.2c.7 0 1.6.1 2 .2c0 1-.5 2.8-.9 3.7c-.5.2-1.1.3-1.9.3c-.7 0-1.4-.1-1.8-.3c0-1.4.1-2.7.5-3.7zm3.1 6c0 0-1.6 9.9-1.6 9.9c-.1.7-.1 1.2-.1 1.6c0 .6.2.8 1 .8c.05.05 1 0 1 0c0 0-.26 1.7-.3 1.7c-.7.4-2.1.8-3.6.8c-1.6 0-2.4-.8-2.4-2.2c0-.5 0-1.2.2-1.7c-.04.01 1.2-8.3 1.2-8.3l-1.8-.4c0 0 .2-1.46.2-1.5c1.3-.4 4-.7 6.2-.7zm8.4 0c0 0-.6 3.5-.6 3.5c1.1-2.3 2.6-3.6 4.3-3.6c.8 0 1.4.3 1.7.5c0 1.7-.4 3.8-1 5c.01-.01-2.2 0-2.2 0c0 0-.25-2.56-.2-2.6c-1 .2-1.9 1.2-2.9 2.9c-.03-.04-1.4 8.8-1.4 8.8l-4.2 0l1.9-11.9l-1.8-.4c0 0 .16-1.46.2-1.5c1.3-.4 3.9-.7 6.2-.7zm13.1 0c0 0-.4 2.5-.4 2.5c.9-1.6 2.3-2.6 4.2-2.6c2.5 0 3.8 2 3.8 5c0 5.3-2.4 9.9-7.1 9.9c-1.2 0-2.1-.3-2.7-.9c0 0-.7 4.3-.7 4.3c1 .1 1.9.2 2.5.4c.02.05-.2 1.6-.2 1.6l-8.5 0c0 0 .2-1.55.2-1.6c.5-.2 1.1-.3 1.8-.4c0 .03 2.5-15.6 2.5-15.6l-1.8-.4c0 0 .14-1.46.1-1.5c1.4-.4 4-.7 6.3-.7zm-.8 4.5c0 0-1.2 7.7-1.2 7.7c.4.1.8.3 1.3.3c2.5 0 4-3.6 4-7.5c0-1.6-.5-2.4-1.6-2.4c-1 0-1.7.8-2.5 1.9zm17-11c0 0-2.5 16.4-2.5 16.4c-.1.7-.2 1.2-.2 1.6c0 .6.3.8 1.1.8c.02.05 1 0 1 0c0 0-.32 1.7-.3 1.7c-.8.4-2.2.8-3.6.8c-1.6 0-2.4-.8-2.4-2.2c0-.5 0-1.2.1-1.7c0 .01 2.3-14.7 2.3-14.7l-2.1-.4c0 0 .16-1.48.2-1.5c1.3-.4 4.2-.8 6.4-.8zm8 6.4c1.4 0 2.3.5 2.9 1.3c.6-.6 1.7-1.1 2.6-1.3c.01 0 1.4.4 1.4.4c0 0-1.51 9.77-1.5 9.8c-.1.5-.2 1.1-.2 1.4c0 .6.3.8 1.1.8c.02.05 1 0 1 0c0 0-.29 1.7-.3 1.7c-.8.4-2.1.8-3.6.8c-1.7 0-2.4-.8-2.4-2.2c0-.2 0-.3 0-.5c-.9 1.7-2.3 2.7-4.3 2.7c-2.5 0-3.8-1.8-3.8-5c0-5.4 2.9-9.9 7.1-9.9zm1.3 10.3c0 0 1.2-7.7 1.2-7.7c-.4-.1-.9-.2-1.3-.2c-2.5 0-4 3.5-4 7.4c0 1.6.5 2.4 1.6 2.4c1 0 1.7-.8 2.5-1.9zm14.1-10.2c0 0-.6 3.2-.6 3.2c1.4-2.1 2.9-3.3 5-3.3c2.1 0 3.2 1.2 3.2 2.8c0 .6-.1 1.1-.2 1.7c0 0-1.1 5.7-1.1 5.7c-.1.7-.1 1.1-.1 1.4c0 .6.2.8 1.1.8c-.03.05.9 0 .9 0c0 0-.24 1.7-.2 1.7c-.8.4-2.2.8-3.6.8c-1.7 0-2.5-.7-2.5-2.2c0-.6.1-1.3.2-1.7c0 0 1-5.5 1-5.5c.1-.5.2-1 .2-1.3c0-.8-.4-1.2-1.2-1.2c-1 0-1.9.7-2.9 2.1c-.03-.03-1.5 9.5-1.5 9.5l-4.2 0l1.9-11.9l-1.8-.4c0 0 .14-1.46.1-1.5c1.4-.4 4-.7 6.3-.7zm17.5-.1c2.9 0 4.5 1.3 4.5 3.4c0 2.8-2.2 4.5-6.7 4.5c0 0-1.2 0-1.2 0c0 .4 0 .9 0 1.4c0 1.9.9 2.8 2.1 2.8c1.4 0 2.4-.8 3.3-2.4c0 0 1.5.6 1.5.6c-1.2 3.1-3.4 4.7-6.2 4.7c-3.3 0-5-1.9-5-5.4c0-5.1 2.7-9.6 7.7-9.6zm-3.2 6.4c0 0 .6 0 .6 0c2.3 0 3.4-1.2 3.4-2.7c0-.9-.5-1.5-1.2-1.5c-1.5 0-2.4 1.8-2.8 4.2zm17.8-12.3c.5-.1 1.3-.2 2.1-.2c.8 0 1.6.1 2.1.2c0 1-.5 2.8-.9 3.7c-.6.2-1.2.3-2 .3c-.7 0-1.3-.1-1.8-.3c0-1.4.2-2.7.5-3.7zm3.1 6c0 0-1.5 9.9-1.5 9.9c-.1.7-.2 1.2-.2 1.6c0 .6.3.8 1.1.8c0 .05 1 0 1 0c0 0-.31 1.7-.3 1.7c-.8.4-2.2.8-3.6.8c-1.6 0-2.5-.8-2.5-2.2c0-.5.1-1.2.2-1.7c.01.01 1.3-8.3 1.3-8.3l-1.8-.4c0 0 .15-1.46.2-1.5c1.3-.4 3.9-.7 6.1-.7zm2.6 10c.01.04 2.1 0 2.1 0c0 0 .16 2.92.2 2.9c.4.1.8.1 1.2.1c1.6 0 2.6-.8 2.6-1.9c0-1.2-1.1-1.7-2.5-2.5c0 0-.9-.5-.9-.5c-1.2-.7-2.2-1.8-2.2-3.5c0-3 2.3-4.7 5.8-4.7c1.9 0 3.8.4 4.7.8c0 1.4-.2 2.7-.9 4c.02 0-2.1 0-2.1 0c0 0-.07-2.79-.1-2.8c-.4-.1-.8-.1-1.3-.1c-1.3 0-2.3.6-2.3 1.9c0 1 1 1.5 2 2.1c0 0 1.1.6 1.1.6c1.4.8 2.8 1.8 2.8 3.7c0 2.9-2.4 4.7-6.3 4.7c-1.7 0-3.8-.3-4.9-.8c.1-1.6.4-2.9 1-4zm24.3-10c0 0-.5 3.5-.5 3.5c1.1-2.3 2.6-3.6 4.2-3.6c.9 0 1.5.3 1.8.5c0 1.7-.5 3.8-1 5c-.05-.01-2.3 0-2.3 0c0 0-.21-2.56-.2-2.6c-.9.2-1.9 1.2-2.9 2.9c.01-.04-1.4 8.8-1.4 8.8l-4.1 0l1.9-11.9l-1.9-.4c0 0 .2-1.46.2-1.5c1.4-.4 4-.7 6.2-.7zm13.3-.1c2.9 0 4.4 1.3 4.4 3.4c0 2.8-2.1 4.5-6.6 4.5c0 0-1.2 0-1.2 0c0 .4 0 .9 0 1.4c0 1.9.8 2.8 2 2.8c1.4 0 2.4-.8 3.4-2.4c0 0 1.4.6 1.4.6c-1.1 3.1-3.3 4.7-6.2 4.7c-3.3 0-5-1.9-5-5.4c0-5.1 2.8-9.6 7.8-9.6zm-3.2 6.4c0 0 .6 0 .6 0c2.3 0 3.3-1.2 3.3-2.7c0-.9-.4-1.5-1.2-1.5c-1.4 0-2.3 1.8-2.7 4.2zm15.7-6.4c1.4 0 2.4.5 2.9 1.3c.7-.6 1.6-1.1 2.5-1.3c.01 0 1.5.4 1.5.4c0 0-2.84 17.93-2.8 17.9c.6.1 1.2.2 1.7.4c.03.05-.2 1.6-.2 1.6l-8.5 0c0 0 .21-1.55.2-1.6c.6-.2 1.6-.3 2.7-.4c0 0 .9-5.9.9-5.9c-.9 1.6-2.3 2.5-4.2 2.5c-2.5 0-3.9-1.8-3.9-5c0-5.4 2.9-9.9 7.2-9.9zm1.2 10.3c0 0 1.2-7.7 1.2-7.7c-.3-.1-.8-.2-1.2-.2c-2.6 0-4 3.5-4 7.4c0 1.6.5 2.4 1.6 2.4c.9 0 1.7-.8 2.4-1.9zm21.6-10.2c0 0-1.5 10.1-1.5 10.1c-.1.5-.2 1.1-.2 1.4c0 .6.2.8 1.1.8c-.02.05.9 0 .9 0c0 0-.23 1.7-.2 1.7c-.8.4-2.2.8-3.6.8c-1.7 0-2.4-.8-2.4-2.2c0-.3 0-.8.1-1.1c0 0 0 0 0 0c-1.2 2.1-3.1 3.3-5.1 3.3c-2.1 0-3.1-1.1-3.1-2.8c0-.5.1-.9.2-1.5c-.02.05 1.3-7.9 1.3-7.9l-1.8-.4c0 0 .15-1.46.2-1.5c1.3-.4 3.9-.7 6.1-.7c0 0-1.5 9.3-1.5 9.3c-.1.5-.1 1-.1 1.4c0 .7.3 1.1 1.1 1.1c1 0 1.9-.6 2.9-2.1c-.03.01 1.1-7.1 1.1-7.1l-1.8-.4c0 0 .25-1.46.3-1.5c1.3-.4 3.8-.7 6-.7zm5.3-6c.5-.1 1.3-.2 2.1-.2c.8 0 1.6.1 2 .2c0 1-.4 2.8-.9 3.7c-.5.2-1.1.3-1.9.3c-.7 0-1.3-.1-1.8-.3c0-1.4.2-2.7.5-3.7zm3.1 6c0 0-1.5 9.9-1.5 9.9c-.1.7-.2 1.2-.2 1.6c0 .6.3.8 1.1.8c-.02.05.9 0 .9 0c0 0-.23 1.7-.2 1.7c-.8.4-2.2.8-3.6.8c-1.6 0-2.5-.8-2.5-2.2c0-.5.1-1.2.2-1.7c-.01.01 1.3-8.3 1.3-8.3l-1.8-.4c0 0 .13-1.46.1-1.5c1.4-.4 4-.7 6.2-.7zm8.4 0c0 0-.5 3.5-.5 3.5c1.1-2.3 2.6-3.6 4.2-3.6c.9 0 1.5.3 1.8.5c0 1.7-.5 3.8-1 5c-.05-.01-2.3 0-2.3 0c0 0-.21-2.56-.2-2.6c-.9.2-1.9 1.2-2.9 2.9c.01-.04-1.4 8.8-1.4 8.8l-4.1 0l1.9-11.9l-1.9-.4c0 0 .2-1.46.2-1.5c1.4-.4 4-.7 6.2-.7zm13.3-.1c2.9 0 4.4 1.3 4.4 3.4c0 2.8-2.1 4.5-6.6 4.5c0 0-1.2 0-1.2 0c0 .4 0 .9 0 1.4c0 1.9.8 2.8 2 2.8c1.4 0 2.4-.8 3.4-2.4c0 0 1.4.6 1.4.6c-1.1 3.1-3.3 4.7-6.2 4.7c-3.3 0-5-1.9-5-5.4c0-5.1 2.8-9.6 7.8-9.6zm-3.2 6.4c0 0 .6 0 .6 0c2.3 0 3.3-1.2 3.3-2.7c0-.9-.4-1.5-1.2-1.5c-1.4 0-2.3 1.8-2.7 4.2zm23.7-12.8c0 0-2.6 16.4-2.6 16.4c-.1.7-.2 1.3-.2 1.6c0 .6.3.8 1.1.8c-.02.05.9 0 .9 0c0 0-.23 1.7-.2 1.7c-.8.4-2.2.8-3.6.8c-1.7 0-2.4-.8-2.4-2.2c0-.2 0-.3 0-.5c-1 1.7-2.4 2.7-4.3 2.7c-2.5 0-3.9-1.8-3.9-5c0-5.4 2.9-9.9 7.2-9.9c1.2 0 2.1.4 2.7 1.1c-.02.01.7-4.7.7-4.7l-2.2-.5c0 0 .19-1.48.2-1.5c1.3-.4 4.3-.8 6.6-.8zm-6.8 16.7c0 0 1.2-7.7 1.2-7.7c-.3-.1-.8-.2-1.2-.2c-2.6 0-4 3.5-4 7.4c0 1.6.5 2.4 1.6 2.4c.9 0 1.7-.8 2.4-1.9zm7.6 2.5c0-1.8 1-3 2.6-3c1.5 0 2.4.8 2.4 2.3c0 1.7-1 2.9-2.7 2.9c-1.4 0-2.3-.8-2.3-2.2z" stroke="none" fill="#404040"/></g></svg>