<?xml version="1.0" standalone="no"?><!DOCTYPE svg PUBLIC "-//W3C//DTD SVG 1.1//EN" "http://www.w3.org/Graphics/SVG/1.1/DTD/svg11.dtd"><svg xmlns="http://www.w3.org/2000/svg" version="1.1" width="345.3px" height="90.5px" viewBox="0 0 345.3 90.5">  <desc>Santa Cruz Island 60,645 acres</desc>  <defs/>  <g id="Polygon9700">    <path d="M 8.3 62.7 C 8 62.7 7.7 62.7 7.2 62.7 C 4.8 62.9 3.7 64.2 3.4 65.5 C 3.4 65.5 3.4 65.5 3.4 65.5 C 4 65 4.9 64.6 5.9 64.6 C 7.9 64.6 9.6 66 9.6 68.5 C 9.6 70.8 7.8 72.7 5.3 72.7 C 2.1 72.7 0.5 70.4 0.5 67.6 C 0.5 65.4 1.4 63.5 2.7 62.3 C 3.8 61.2 5.4 60.7 7.2 60.6 C 7.7 60.5 8.1 60.5 8.3 60.6 C 8.3 60.6 8.3 62.7 8.3 62.7 Z M 6.8 68.6 C 6.8 67.5 6.2 66.6 5 66.6 C 4.3 66.6 3.7 67 3.4 67.6 C 3.3 67.8 3.3 68 3.3 68.3 C 3.3 69.6 3.9 70.7 5.2 70.7 C 6.2 70.7 6.8 69.8 6.8 68.6 Z M 19.6 66.6 C 19.6 70.2 18.1 72.7 15.1 72.7 C 12 72.7 10.7 70 10.7 66.6 C 10.7 63.2 12.1 60.5 15.2 60.5 C 18.3 60.5 19.6 63.3 19.6 66.6 Z M 13.4 66.6 C 13.4 69.4 14.1 70.6 15.2 70.6 C 16.2 70.6 16.8 69.3 16.8 66.6 C 16.8 64 16.2 62.6 15.1 62.6 C 14.1 62.6 13.4 63.9 13.4 66.6 Z M 20.2 74.7 C 20.8 73.1 21.3 71.2 21.5 69.5 C 21.5 69.5 24.3 69.4 24.3 69.4 C 23.7 71.2 22.9 73.1 22 74.5 C 22 74.5 20.2 74.7 20.2 74.7 Z M 33.2 62.7 C 32.9 62.7 32.6 62.7 32.1 62.7 C 29.7 62.9 28.6 64.2 28.3 65.5 C 28.3 65.5 28.3 65.5 28.3 65.5 C 28.9 65 29.8 64.6 30.8 64.6 C 32.8 64.6 34.5 66 34.5 68.5 C 34.5 70.8 32.7 72.7 30.2 72.7 C 27 72.7 25.4 70.4 25.4 67.6 C 25.4 65.4 26.3 63.5 27.6 62.3 C 28.7 61.2 30.3 60.7 32.1 60.6 C 32.6 60.5 32.9 60.5 33.2 60.6 C 33.2 60.6 33.2 62.7 33.2 62.7 Z M 31.7 68.6 C 31.7 67.5 31.1 66.6 29.9 66.6 C 29.2 66.6 28.6 67 28.3 67.6 C 28.2 67.8 28.2 68 28.2 68.3 C 28.2 69.6 28.8 70.7 30.1 70.7 C 31.1 70.7 31.7 69.8 31.7 68.6 Z M 40.6 72.5 L 40.6 69.7 L 35.4 69.7 L 35.4 67.9 L 39.9 60.7 L 43.3 60.7 L 43.3 67.6 L 44.7 67.6 L 44.7 69.7 L 43.3 69.7 L 43.3 72.5 L 40.6 72.5 Z M 40.6 67.6 C 40.6 67.6 40.64 65.03 40.6 65 C 40.6 64.3 40.7 63.6 40.7 62.8 C 40.7 62.8 40.7 62.8 40.7 62.8 C 40.3 63.6 39.9 64.3 39.5 65 C 39.55 65.03 38 67.6 38 67.6 L 38 67.6 L 40.6 67.6 Z M 53.7 63 L 49.1 63 C 49.1 63 48.89 64.81 48.9 64.8 C 49.1 64.8 49.4 64.8 49.7 64.8 C 50.8 64.8 51.9 65 52.8 65.6 C 53.6 66.2 54.2 67.2 54.2 68.6 C 54.2 70.8 52.3 72.7 49.1 72.7 C 47.7 72.7 46.5 72.4 45.8 72.1 C 45.8 72.1 46.3 70 46.3 70 C 46.9 70.2 47.9 70.6 49 70.6 C 50.1 70.6 51.4 70 51.4 68.8 C 51.4 67.6 50.4 66.8 48 66.8 C 47.4 66.8 46.9 66.8 46.5 66.9 C 46.45 66.92 47.2 60.7 47.2 60.7 L 53.7 60.7 L 53.7 63 Z M 67.3 70.4 C 67.3 71.2 67.4 72 67.5 72.5 C 67.48 72.53 65 72.5 65 72.5 L 64.8 71.6 C 64.8 71.6 64.77 71.64 64.8 71.6 C 64.2 72.4 63.3 72.7 62.2 72.7 C 60.4 72.7 59.4 71.4 59.4 70 C 59.4 67.7 61.4 66.6 64.6 66.6 C 64.6 66.6 64.6 66.5 64.6 66.5 C 64.6 66 64.3 65.3 63 65.3 C 62 65.3 61.1 65.6 60.5 66 C 60.5 66 60 64.2 60 64.2 C 60.6 63.9 61.8 63.4 63.4 63.4 C 66.4 63.4 67.3 65.2 67.3 67.3 C 67.3 67.3 67.3 70.4 67.3 70.4 Z M 64.7 68.3 C 63.2 68.3 62.1 68.7 62.1 69.7 C 62.1 70.4 62.6 70.8 63.2 70.8 C 63.8 70.8 64.4 70.3 64.6 69.8 C 64.6 69.6 64.7 69.5 64.7 69.3 C 64.7 69.3 64.7 68.3 64.7 68.3 Z M 76.2 72.3 C 75.7 72.5 74.8 72.7 73.7 72.7 C 70.9 72.7 69 71 69 68.2 C 69 65.6 70.8 63.4 74.1 63.4 C 74.8 63.4 75.6 63.6 76.2 63.8 C 76.2 63.8 75.8 65.8 75.8 65.8 C 75.5 65.7 75 65.6 74.2 65.6 C 72.8 65.6 71.8 66.6 71.9 68.1 C 71.9 69.7 72.9 70.6 74.3 70.6 C 74.9 70.6 75.5 70.4 75.9 70.3 C 75.9 70.3 76.2 72.3 76.2 72.3 Z M 77.7 66.6 C 77.7 65.3 77.7 64.4 77.7 63.6 C 77.66 63.65 80 63.6 80 63.6 L 80.1 65.3 C 80.1 65.3 80.2 65.28 80.2 65.3 C 80.7 64 81.7 63.4 82.6 63.4 C 82.9 63.4 83 63.4 83.2 63.5 C 83.2 63.5 83.2 66.1 83.2 66.1 C 83 66 82.7 66 82.4 66 C 81.4 66 80.7 66.6 80.5 67.4 C 80.5 67.6 80.5 67.8 80.5 68 C 80.49 68.03 80.5 72.5 80.5 72.5 L 77.7 72.5 C 77.7 72.5 77.73 66.57 77.7 66.6 Z M 86.6 69 C 86.7 70.1 87.8 70.7 89.1 70.7 C 90.1 70.7 90.8 70.5 91.6 70.3 C 91.6 70.3 91.9 72.2 91.9 72.2 C 91 72.5 89.9 72.7 88.7 72.7 C 85.7 72.7 84 71 84 68.2 C 84 65.9 85.4 63.4 88.5 63.4 C 91.3 63.4 92.4 65.7 92.4 67.9 C 92.4 68.4 92.4 68.8 92.3 69 C 92.3 69 86.6 69 86.6 69 Z M 89.9 67.1 C 89.9 66.4 89.6 65.3 88.3 65.3 C 87.1 65.3 86.7 66.4 86.6 67.1 C 86.6 67.1 89.9 67.1 89.9 67.1 Z M 94.1 70.1 C 94.6 70.4 95.6 70.8 96.4 70.8 C 97.3 70.8 97.6 70.5 97.6 70.1 C 97.6 69.6 97.4 69.4 96.3 69 C 94.5 68.4 93.8 67.4 93.8 66.4 C 93.8 64.7 95.2 63.4 97.4 63.4 C 98.4 63.4 99.4 63.7 99.9 64 C 99.9 64 99.4 65.9 99.4 65.9 C 99 65.6 98.2 65.4 97.5 65.4 C 96.8 65.4 96.4 65.6 96.4 66.1 C 96.4 66.5 96.8 66.7 97.9 67.1 C 99.6 67.7 100.3 68.6 100.3 69.8 C 100.3 71.5 99 72.7 96.4 72.7 C 95.3 72.7 94.2 72.5 93.6 72.1 C 93.6 72.1 94.1 70.1 94.1 70.1 Z " stroke="none" fill="#000"/>  </g>  <g id="Polygon9699">    <path d="M 1.4 24.4 C 1.37 24.39 5 23.8 5 23.8 C 5 23.8 6.74 29.2 6.7 29.2 C 7.6 29.4 8.4 29.5 9.2 29.5 C 11.9 29.5 13.4 28.3 13.4 25.8 C 13.4 23.7 12.2 23 10.2 22.3 C 10.2 22.3 7.5 21.4 7.5 21.4 C 3.8 20.2 1.4 17.9 1.4 13.8 C 1.4 8.2 6.4 5.8 12 5.8 C 15.1 5.8 18 6.4 19.4 7.1 C 19.6 7.7 19.7 8.7 19.7 9.5 C 19.7 10.8 19.6 12.6 19.3 13.8 C 19.26 13.81 15.8 13.8 15.8 13.8 C 15.8 13.8 14.78 9.25 14.8 9.2 C 13.9 9.1 13 9 12.2 9 C 9.9 9 7.9 10 7.9 12.3 C 7.9 14.1 8.7 15.1 10.7 15.7 C 10.7 15.7 14.1 16.7 14.1 16.7 C 18.5 18.1 20.6 20.2 20.6 24.1 C 20.6 30.2 14.8 32.6 9.4 32.6 C 6.3 32.6 3.6 31.9 2 30.9 C 1.5 29.3 1.4 26.3 1.4 24.4 Z M 33.9 20.8 C 33.9 20.8 33.9 18.3 33.9 18.3 C 33.9 16.4 33.1 15.5 31 15.5 C 30.5 15.5 29.8 15.5 29.2 15.7 C 29.2 15.67 28.6 19.1 28.6 19.1 C 28.6 19.1 24.72 19.06 24.7 19.1 C 24.4 18 24.2 16.9 24.2 15.9 C 24.2 15.3 24.3 14.6 24.4 14.1 C 26.9 12.8 30.1 12.2 33.1 12.2 C 38 12.2 40.7 14.1 40.7 18 C 40.7 21.2 40.5 25.2 40.5 28.8 C 40.51 28.8 42.5 29.3 42.5 29.3 C 42.5 29.3 42.53 31.54 42.5 31.5 C 40.3 32.1 37.4 32.5 34 32.5 C 34 32.5 34 29.6 34 29.6 C 33.1 31.4 31.1 32.6 28.7 32.6 C 25.3 32.6 23 30.8 23 27.1 C 23 22 27.9 21.1 33.9 20.8 Z M 33.9 28 C 33.9 28 33.9 23.2 33.9 23.2 C 31.1 23.4 29.4 24.2 29.4 26.4 C 29.4 28 30.5 28.8 31.8 28.8 C 32.6 28.8 33.3 28.5 33.9 28 Z M 46.4 29.4 C 46.44 29.36 46.4 16.3 46.4 16.3 L 44.4 15.8 C 44.4 15.8 44.42 13.37 44.4 13.4 C 46.7 12.8 49.8 12.3 53.2 12.3 C 53.2 12.3 53.2 15.4 53.2 15.4 C 54.6 13.2 57.1 12.2 59.9 12.2 C 63.9 12.2 66.1 14.6 66.1 18.1 C 66.1 18.1 66.1 29.4 66.1 29.4 C 67 29.4 67.7 29.7 68.1 29.9 C 68.13 29.89 68.1 32.1 68.1 32.1 L 57.2 32.1 C 57.2 32.1 57.23 29.89 57.2 29.9 C 57.7 29.7 58.4 29.4 59.3 29.4 C 59.3 29.4 59.3 19.5 59.3 19.5 C 59.3 17.9 58.4 17 56.7 17 C 55.5 17 54.3 17.3 53.2 18.4 C 53.2 18.4 53.2 29.4 53.2 29.4 C 54.1 29.4 54.9 29.7 55.3 29.9 C 55.33 29.89 55.3 32.1 55.3 32.1 L 44.4 32.1 C 44.4 32.1 44.38 29.89 44.4 29.9 C 44.8 29.7 45.6 29.4 46.4 29.4 Z M 72 12.8 C 72 12.8 72.2 9.4 72.2 9.4 C 73.9 9 76.4 8.8 78.7 8.8 C 78.67 8.8 78.6 12.6 78.6 12.6 L 82.9 12.6 L 82.9 15.8 L 78.6 15.8 C 78.6 15.8 78.39 25.73 78.4 25.7 C 78.4 27.5 79 28.3 80.3 28.3 C 81.3 28.3 81.9 27.8 82.7 27.1 C 82.7 27.1 83.8 28.8 83.8 28.8 C 82.8 30.7 80.6 32.6 77.2 32.6 C 73.6 32.6 71.6 30.6 71.6 27.1 C 71.6 27.06 71.8 15.8 71.8 15.8 L 69.7 15.8 C 69.7 15.8 69.71 13.45 69.7 13.4 C 70.1 13.2 70.8 13 72 12.8 Z M 96.2 20.8 C 96.2 20.8 96.2 18.3 96.2 18.3 C 96.2 16.4 95.4 15.5 93.3 15.5 C 92.8 15.5 92.2 15.5 91.5 15.7 C 91.51 15.67 90.9 19.1 90.9 19.1 C 90.9 19.1 87.03 19.06 87 19.1 C 86.7 18 86.5 16.9 86.5 15.9 C 86.5 15.3 86.6 14.6 86.7 14.1 C 89.2 12.8 92.4 12.2 95.4 12.2 C 100.3 12.2 103 14.1 103 18 C 103 21.2 102.8 25.2 102.8 28.8 C 102.82 28.8 104.8 29.3 104.8 29.3 C 104.8 29.3 104.84 31.54 104.8 31.5 C 102.6 32.1 99.8 32.5 96.3 32.5 C 96.3 32.5 96.3 29.6 96.3 29.6 C 95.4 31.4 93.4 32.6 91 32.6 C 87.6 32.6 85.3 30.8 85.3 27.1 C 85.3 22 90.3 21.1 96.2 20.8 Z M 96.2 28 C 96.2 28 96.2 23.2 96.2 23.2 C 93.4 23.4 91.7 24.2 91.7 26.4 C 91.7 28 92.8 28.8 94.1 28.8 C 94.9 28.8 95.6 28.5 96.2 28 Z M 129 5.8 C 132.1 5.8 134.6 6.4 136.1 7.1 C 136.3 7.7 136.4 8.8 136.4 9.6 C 136.4 10.9 136.2 12.6 135.9 13.8 C 135.94 13.81 132.5 13.8 132.5 13.8 C 132.5 13.8 131.42 9.13 131.4 9.1 C 130.8 9 130.1 9 129.4 9 C 124.9 9 122 12.5 122 18.8 C 122 26.4 125.4 29.4 130 29.4 C 130.3 29.4 130.7 29.4 131.1 29.4 C 131.09 29.4 132.9 23.8 132.9 23.8 C 132.9 23.8 136.51 24.39 136.5 24.4 C 136.5 26.3 136.3 28.6 135.7 30.8 C 133.8 32 130.9 32.6 127.5 32.6 C 119.3 32.6 114.4 28.1 114.4 19.4 C 114.4 10.3 121 5.8 129 5.8 Z M 141 29.4 C 140.99 29.36 141 16.3 141 16.3 L 139 15.8 C 139 15.8 138.97 13.37 139 13.4 C 141.3 12.8 144.4 12.3 147.8 12.3 C 147.8 12.3 147.8 15.8 147.8 15.8 C 149 13.3 151.2 12.2 153.3 12.2 C 154.2 12.2 155.2 12.5 155.8 13 C 155.8 15.8 155.4 17.9 154.8 20.2 C 154.76 20.23 151.4 20.2 151.4 20.2 C 151.4 20.2 150.76 16.96 150.8 17 C 149.6 17.1 148.5 17.6 147.8 18.6 C 147.8 18.6 147.8 29.4 147.8 29.4 C 148.9 29.4 150 29.7 150.6 29.9 C 150.56 29.89 150.6 32.1 150.6 32.1 L 138.9 32.1 C 138.9 32.1 138.93 29.89 138.9 29.9 C 139.4 29.7 140.1 29.4 141 29.4 Z M 157.5 15.8 C 157.5 15.8 157.51 13.37 157.5 13.4 C 159.8 12.8 162.9 12.3 166.3 12.3 C 166.3 12.3 166.3 25 166.3 25 C 166.3 27 167 28 168.8 28 C 170.1 28 171.3 27.6 172.4 26.6 C 172.37 26.57 172.4 16.3 172.4 16.3 L 170.3 15.8 C 170.3 15.8 170.35 13.37 170.3 13.4 C 172.7 12.8 175.7 12.3 179.2 12.3 C 179.15 12.32 179.2 28.8 179.2 28.8 L 181.2 29.3 C 181.2 29.3 181.17 31.54 181.2 31.5 C 178.9 32.1 175.8 32.5 172.4 32.5 C 172.4 32.5 172.4 29.4 172.4 29.4 C 171 31.6 168.5 32.6 165.7 32.6 C 161.7 32.6 159.5 30.2 159.5 26.4 C 159.53 26.41 159.5 16.3 159.5 16.3 L 157.5 15.8 Z M 182.9 15.6 C 182.9 14.5 182.9 13.6 183.2 12.6 C 183.19 12.64 200 12.6 200 12.6 L 200 14.9 L 190.5 29.1 L 195.5 28.9 L 197 24.9 C 197 24.9 200.28 24.88 200.3 24.9 C 200.3 27.4 200.1 30 199.5 32.1 C 199.51 32.15 182.9 32.1 182.9 32.1 L 182.9 29.9 L 192.4 15.7 L 187.4 15.9 L 186.6 20.2 C 186.6 20.2 183.23 20.23 183.2 20.2 C 183 18.7 182.9 17.3 182.9 15.6 Z M 211.7 29.2 C 211.7 29.2 211.7 9.2 211.7 9.2 C 210.6 9.2 209.9 9 209.3 8.7 C 209.28 8.72 209.3 6.3 209.3 6.3 L 221.3 6.3 C 221.3 6.3 221.32 8.72 221.3 8.7 C 220.7 9 219.9 9.2 218.9 9.2 C 218.9 9.2 218.9 29.2 218.9 29.2 C 219.9 29.3 220.7 29.5 221.3 29.7 C 221.32 29.72 221.3 32.1 221.3 32.1 L 209.3 32.1 C 209.3 32.1 209.28 29.72 209.3 29.7 C 209.9 29.5 210.6 29.3 211.7 29.2 Z M 223.6 29.9 C 223.6 28.6 223.8 27.1 224.1 25.8 C 224.1 25.85 227.7 25.8 227.7 25.8 C 227.7 25.8 228.3 29.44 228.3 29.4 C 228.9 29.6 229.6 29.6 230.3 29.6 C 232 29.6 233.2 28.9 233.2 27.3 C 233.2 25.9 232.1 25.4 230.2 24.8 C 230.2 24.8 228 24.2 228 24.2 C 225.4 23.4 223.5 21.7 223.5 18.4 C 223.5 13.9 227.7 12.2 232.4 12.2 C 234.6 12.2 237.1 12.6 238.6 13.2 C 238.8 13.7 238.8 14.4 238.8 14.9 C 238.8 16.2 238.6 17.6 238.2 18.9 C 238.24 18.9 234.7 18.9 234.7 18.9 C 234.7 18.9 234.04 15.35 234 15.3 C 233.6 15.2 233 15.1 232.4 15.1 C 230.9 15.1 229.5 15.8 229.5 17.2 C 229.5 18.8 230.6 19.2 232.2 19.7 C 232.2 19.7 234.4 20.4 234.4 20.4 C 237.4 21.3 239.5 22.7 239.5 26 C 239.5 30.3 236.3 32.6 230.3 32.6 C 228 32.6 225.3 32.2 223.8 31.6 C 223.6 31.1 223.6 30.4 223.6 29.9 Z M 243.3 29.4 C 243.29 29.36 243.3 7.7 243.3 7.7 L 240.9 7.2 C 240.9 7.2 240.9 4.81 240.9 4.8 C 243.2 4.2 246.7 3.9 250.1 3.9 C 250.1 3.9 250.1 29.4 250.1 29.4 C 251 29.4 251.7 29.7 252.2 29.9 C 252.17 29.89 252.2 32.1 252.2 32.1 L 241.2 32.1 C 241.2 32.1 241.23 29.89 241.2 29.9 C 241.7 29.7 242.4 29.4 243.3 29.4 Z M 264.7 20.8 C 264.7 20.8 264.7 18.3 264.7 18.3 C 264.7 16.4 263.9 15.5 261.8 15.5 C 261.3 15.5 260.7 15.5 260 15.7 C 260.01 15.67 259.4 19.1 259.4 19.1 C 259.4 19.1 255.52 19.06 255.5 19.1 C 255.2 18 255 16.9 255 15.9 C 255 15.3 255.1 14.6 255.2 14.1 C 257.7 12.8 260.9 12.2 263.9 12.2 C 268.8 12.2 271.5 14.1 271.5 18 C 271.5 21.2 271.3 25.2 271.3 28.8 C 271.32 28.8 273.3 29.3 273.3 29.3 C 273.3 29.3 273.33 31.54 273.3 31.5 C 271.1 32.1 268.2 32.5 264.8 32.5 C 264.8 32.5 264.8 29.6 264.8 29.6 C 263.9 31.4 261.9 32.6 259.5 32.6 C 256.1 32.6 253.8 30.8 253.8 27.1 C 253.8 22 258.8 21.1 264.7 20.8 Z M 264.7 28 C 264.7 28 264.7 23.2 264.7 23.2 C 261.9 23.4 260.2 24.2 260.2 26.4 C 260.2 28 261.3 28.8 262.6 28.8 C 263.4 28.8 264.1 28.5 264.7 28 Z M 277.3 29.4 C 277.25 29.36 277.3 16.3 277.3 16.3 L 275.2 15.8 C 275.2 15.8 275.23 13.37 275.2 13.4 C 277.5 12.8 280.6 12.3 284 12.3 C 284 12.3 284 15.4 284 15.4 C 285.5 13.2 288 12.2 290.7 12.2 C 294.7 12.2 296.9 14.6 296.9 18.1 C 296.9 18.1 296.9 29.4 296.9 29.4 C 297.8 29.4 298.5 29.7 298.9 29.9 C 298.94 29.89 298.9 32.1 298.9 32.1 L 288 32.1 C 288 32.1 288.04 29.89 288 29.9 C 288.5 29.7 289.2 29.4 290.1 29.4 C 290.1 29.4 290.1 19.5 290.1 19.5 C 290.1 17.9 289.2 17 287.6 17 C 286.3 17 285.1 17.3 284 18.4 C 284 18.4 284 29.4 284 29.4 C 284.9 29.4 285.7 29.7 286.1 29.9 C 286.14 29.89 286.1 32.1 286.1 32.1 L 275.2 32.1 C 275.2 32.1 275.19 29.89 275.2 29.9 C 275.6 29.7 276.4 29.4 277.3 29.4 Z M 310.1 12 C 311.8 12 313.2 12.7 314 13.6 C 314.04 13.61 314 7.7 314 7.7 L 311.5 7.2 C 311.5 7.2 311.54 4.81 311.5 4.8 C 313.8 4.2 317.4 3.9 320.8 3.9 C 320.83 3.88 320.8 28.8 320.8 28.8 L 322.8 29.3 C 322.8 29.3 322.85 31.54 322.8 31.5 C 320.6 32.1 317.6 32.5 314.2 32.5 C 314.2 32.5 314.2 29.3 314.2 29.3 C 313.1 31.4 311.1 32.6 308.6 32.6 C 303.9 32.6 300.8 29 300.8 22.9 C 300.8 16.2 304.6 12 310.1 12 Z M 314 27.1 C 314 27.1 314 16.1 314 16.1 C 313.6 16 313.1 16 312.6 16 C 309.5 16 307.9 18.7 307.9 22.3 C 307.9 26.7 309.4 28.3 311.6 28.3 C 312.6 28.3 313.4 27.9 314 27.1 Z " stroke="none" fill="#404040"/>  </g></svg>