<?xml version="1.0" standalone="no"?><!DOCTYPE svg PUBLIC "-//W3C//DTD SVG 1.1//EN" "http://www.w3.org/Graphics/SVG/1.1/DTD/svg11.dtd"><svg xmlns="http://www.w3.org/2000/svg" xmlns:xlink="http://www.w3.org/1999/xlink" version="1.1" width="628.3px" height="90.9px" viewBox="0 0 628.3 90.9">  <desc>Dolphin seem to enjoy cavorting in the bow waves of large boats These dolphin were observed from the deck of the</desc>  <defs/>  <g class="svg-textframe-underlines">    <rect class="svg-underline" x="470.1" y="55.1" width="145.3" height="2" style="fill:#00aa32;"/>  </g>  <g id="Polygon14201">    <path d="M 2 33.7 C 2 33.7 14.6 33.7 14.6 33.7 C 14.6 35 14.5 36.3 14 37.8 C 14.02 37.78 13 37.8 13 37.8 L 12.8 34.9 L 9.2 34.9 C 9.2 34.9 7.2 47.86 7.2 47.9 C 8 47.9 9 48 9.5 48.2 C 9.5 48.24 9.4 49.1 9.4 49.1 L 2.8 49.1 C 2.8 49.1 2.93 48.24 2.9 48.2 C 3.4 48.1 4.3 47.9 5.1 47.9 C 5.09 47.86 7.1 34.9 7.1 34.9 L 3.7 34.9 L 2.6 37.8 C 2.6 37.8 1.54 37.78 1.5 37.8 C 1.5 36.4 1.7 34.8 2 33.7 Z M 21.7 46.8 C 21.7 46.8 22.8 41 22.8 41 C 22.8 40.8 22.9 40.5 22.9 40.2 C 22.9 39.6 22.6 39.2 21.8 39.2 C 21 39.2 19.9 39.9 18.5 41.9 C 18.46 41.86 17.3 49.1 17.3 49.1 L 15.4 49.1 L 17.9 33.9 L 15.9 33.6 C 15.9 33.6 15.94 32.88 15.9 32.9 C 16.9 32.6 18.4 32.3 20 32.3 C 20 32.3 18.6 40.7 18.6 40.7 C 19.9 38.7 21.1 37.7 22.7 37.7 C 24.1 37.7 24.9 38.5 24.9 39.6 C 24.9 40 24.8 40.3 24.8 40.5 C 24.8 40.5 23.7 46.5 23.7 46.5 C 23.6 46.9 23.6 47.1 23.6 47.4 C 23.6 47.9 23.8 48 24.6 48 C 24.6 47.95 25.6 48 25.6 48 C 25.6 48 25.42 48.72 25.4 48.7 C 24.9 49 24.1 49.3 23.2 49.3 C 22.1 49.3 21.6 48.7 21.6 47.8 C 21.6 47.5 21.7 47 21.7 46.8 Z M 33.2 37.7 C 35.2 37.7 36.1 38.7 36.1 40.1 C 36.1 42.3 34.4 43.5 30.6 43.5 C 30.6 43.5 29.6 43.5 29.6 43.5 C 29.5 44.2 29.4 44.9 29.4 45.5 C 29.4 47.1 30.3 47.9 31.3 47.9 C 32.7 47.9 33.7 47.2 34.8 45.4 C 34.8 45.4 35.4 45.7 35.4 45.7 C 34.3 48.2 32.8 49.4 30.8 49.4 C 28.5 49.4 27.4 48 27.4 45.4 C 27.4 41.8 29 37.7 33.2 37.7 Z M 29.7 42.8 C 29.7 42.8 30.5 42.8 30.5 42.8 C 33 42.8 34.1 41.9 34.1 40.2 C 34.1 39.3 33.7 38.6 32.9 38.6 C 31.2 38.6 30.2 40.6 29.7 42.8 Z M 37.8 45.7 C 37.82 45.74 39.1 45.7 39.1 45.7 C 39.1 45.7 39.14 48.19 39.1 48.2 C 39.6 48.3 40.1 48.3 40.5 48.3 C 41.8 48.3 42.9 47.7 42.9 46.4 C 42.9 45.2 42 44.9 40.8 44.2 C 40.8 44.2 39.9 43.7 39.9 43.7 C 39 43.1 38.3 42.3 38.3 41.1 C 38.3 39 39.7 37.7 42.3 37.7 C 43.4 37.7 44.8 38 45.4 38.4 C 45.4 39.4 45.1 40.4 44.7 41.2 C 44.74 41.23 43.5 41.2 43.5 41.2 C 43.5 41.2 43.39 38.76 43.4 38.8 C 43 38.7 42.5 38.6 42.2 38.6 C 40.8 38.6 40 39.3 40 40.6 C 40 41.4 40.7 41.9 41.4 42.3 C 41.4 42.3 42.3 42.8 42.3 42.8 C 43.5 43.5 44.7 44.1 44.7 45.8 C 44.7 48 43.1 49.3 40.4 49.3 C 39.3 49.3 37.7 49 37.2 48.6 C 37.2 47.6 37.4 46.6 37.8 45.7 Z M 52.6 37.7 C 54.6 37.7 55.6 38.7 55.6 40.1 C 55.6 42.3 53.9 43.5 50 43.5 C 50 43.5 49 43.5 49 43.5 C 48.9 44.2 48.9 44.9 48.9 45.5 C 48.9 47.1 49.7 47.9 50.8 47.9 C 52.1 47.9 53.1 47.2 54.2 45.4 C 54.2 45.4 54.8 45.7 54.8 45.7 C 53.8 48.2 52.2 49.4 50.2 49.4 C 47.9 49.4 46.8 48 46.8 45.4 C 46.8 41.8 48.5 37.7 52.6 37.7 Z M 49.2 42.8 C 49.2 42.8 49.9 42.8 49.9 42.8 C 52.4 42.8 53.6 41.9 53.6 40.2 C 53.6 39.3 53.2 38.6 52.3 38.6 C 50.7 38.6 49.6 40.6 49.2 42.8 Z M 72.7 32.3 C 72.7 32.3 70.5 46.5 70.5 46.5 C 70.4 46.8 70.4 47.1 70.4 47.3 C 70.4 47.9 70.6 48 71.4 48 C 71.38 47.95 72.3 48 72.3 48 C 72.3 48 72.19 48.72 72.2 48.7 C 71.7 49 70.9 49.3 69.9 49.3 C 68.9 49.3 68.5 48.7 68.5 47.7 C 68.5 47.5 68.5 47 68.6 46.8 C 68.6 46.8 68.7 46.2 68.7 46.2 C 67.7 48.3 66.4 49.3 64.8 49.3 C 63.1 49.3 62.2 48 62.2 45.7 C 62.2 41.9 64.1 37.7 67.7 37.7 C 68.6 37.7 69.3 38 69.8 38.6 C 69.84 38.59 70.6 33.9 70.6 33.9 L 68.6 33.6 C 68.6 33.6 68.66 32.88 68.7 32.9 C 69.6 32.6 71.1 32.3 72.7 32.3 Z M 68.8 45.2 C 68.8 45.2 69.7 39.2 69.7 39.2 C 69.3 39 68.8 38.8 68.2 38.8 C 65.6 38.8 64.2 42.4 64.2 45.6 C 64.2 47.1 64.7 47.8 65.7 47.8 C 66.8 47.8 67.8 46.8 68.8 45.2 Z M 79.8 37.7 C 82.7 37.7 83.7 39.6 83.7 41.8 C 83.7 45.4 81.9 49.4 78 49.4 C 75 49.4 74.1 47.5 74.1 45.3 C 74.1 41.7 75.9 37.7 79.8 37.7 Z M 78.1 48.4 C 80.4 48.4 81.7 44.7 81.7 41.6 C 81.7 40 81.1 38.6 79.7 38.6 C 77.4 38.6 76.1 42.4 76.1 45.5 C 76.1 47.1 76.7 48.4 78.1 48.4 Z M 90 32.3 C 90 32.3 87.7 46.5 87.7 46.5 C 87.6 46.8 87.6 47.1 87.6 47.3 C 87.6 47.9 87.8 48 88.6 48 C 88.61 47.95 89.6 48 89.6 48 C 89.6 48 89.42 48.72 89.4 48.7 C 88.9 49 88.1 49.3 87.2 49.3 C 86.1 49.3 85.6 48.7 85.6 47.7 C 85.6 47.5 85.7 47 85.7 46.8 C 85.73 46.8 87.8 33.9 87.8 33.9 L 85.8 33.6 C 85.8 33.6 85.9 32.88 85.9 32.9 C 86.9 32.6 88.3 32.3 90 32.3 Z M 95.4 37.7 C 95.4 37.7 95 40.5 95 40.5 C 96 38.6 97.2 37.7 98.8 37.7 C 100.4 37.7 101.4 39 101.4 41.2 C 101.4 45.1 99.6 49.3 95.8 49.3 C 94.9 49.3 94.2 49 93.7 48.4 C 93.7 48.4 93 52.5 93 52.5 C 93.9 52.5 94.7 52.7 95.3 52.8 C 95.25 52.85 95.1 53.6 95.1 53.6 L 89.4 53.6 C 89.4 53.6 89.54 52.85 89.5 52.8 C 90 52.7 90.5 52.5 91.1 52.5 C 91.13 52.46 93.3 39.3 93.3 39.3 L 91.5 39 C 91.5 39 91.58 38.26 91.6 38.3 C 92.6 38 93.8 37.7 95.4 37.7 Z M 94.8 41.8 C 94.8 41.8 93.8 47.8 93.8 47.8 C 94.2 48 94.8 48.1 95.4 48.1 C 97.9 48.1 99.4 44.6 99.4 41.3 C 99.4 39.9 98.9 39.2 97.8 39.2 C 96.8 39.2 95.8 40.2 94.8 41.8 Z M 109.6 46.8 C 109.6 46.8 110.6 41 110.6 41 C 110.7 40.8 110.7 40.5 110.7 40.2 C 110.7 39.6 110.4 39.2 109.7 39.2 C 108.8 39.2 107.8 39.9 106.3 41.9 C 106.32 41.86 105.2 49.1 105.2 49.1 L 103.2 49.1 L 105.7 33.9 L 103.7 33.6 C 103.7 33.6 103.8 32.88 103.8 32.9 C 104.8 32.6 106.2 32.3 107.9 32.3 C 107.9 32.3 106.5 40.7 106.5 40.7 C 107.7 38.7 109 37.7 110.5 37.7 C 112 37.7 112.7 38.5 112.7 39.6 C 112.7 40 112.7 40.3 112.7 40.5 C 112.7 40.5 111.6 46.5 111.6 46.5 C 111.5 46.9 111.4 47.1 111.4 47.4 C 111.4 47.9 111.7 48 112.5 48 C 112.46 47.95 113.4 48 113.4 48 C 113.4 48 113.28 48.72 113.3 48.7 C 112.8 49 112 49.3 111 49.3 C 110 49.3 109.5 48.7 109.5 47.8 C 109.5 47.5 109.5 47 109.6 46.8 Z M 118.2 32.8 C 118.4 32.7 118.9 32.7 119.3 32.7 C 119.7 32.7 120.2 32.7 120.4 32.8 C 120.4 33.6 120 34.7 119.7 35.4 C 119.5 35.4 119.2 35.5 118.8 35.5 C 118.4 35.5 118.1 35.4 117.9 35.4 C 117.9 34.6 118 33.5 118.2 32.8 Z M 119.4 37.7 C 119.4 37.7 118 46.5 118 46.5 C 118 46.8 117.9 47.1 117.9 47.3 C 117.9 47.9 118.2 48 118.9 48 C 118.92 47.95 119.9 48 119.9 48 C 119.9 48 119.73 48.72 119.7 48.7 C 119.2 49 118.4 49.3 117.5 49.3 C 116.4 49.3 115.9 48.7 115.9 47.7 C 115.9 47.5 116 47 116 46.8 C 116.04 46.8 117.3 39.3 117.3 39.3 L 115.5 39 C 115.5 39 115.53 38.26 115.5 38.3 C 116.5 38 117.8 37.7 119.4 37.7 Z M 125.8 37.7 C 125.8 37.7 125.3 40.7 125.3 40.7 C 126.5 38.7 127.7 37.7 129.3 37.7 C 130.8 37.7 131.5 38.5 131.5 39.6 C 131.5 40 131.4 40.3 131.4 40.5 C 131.4 40.5 130.3 46.5 130.3 46.5 C 130.2 46.9 130.2 47.1 130.2 47.4 C 130.2 47.9 130.5 48 131.2 48 C 131.23 47.95 132.2 48 132.2 48 C 132.2 48 132.05 48.72 132 48.7 C 131.5 49 130.8 49.3 129.8 49.3 C 128.7 49.3 128.3 48.7 128.3 47.8 C 128.3 47.5 128.3 47 128.4 46.8 C 128.4 46.8 129.4 41 129.4 41 C 129.5 40.8 129.5 40.5 129.5 40.2 C 129.5 39.6 129.2 39.2 128.4 39.2 C 127.6 39.2 126.6 39.9 125.1 41.9 C 125.09 41.88 123.9 49.1 123.9 49.1 L 122 49.1 L 123.6 39.3 L 121.8 39 C 121.8 39 121.89 38.26 121.9 38.3 C 122.9 38 124.1 37.7 125.8 37.7 Z M 147.5 37.7 C 147.5 37.7 148.9 47 148.9 47 C 150.9 43.9 151.9 41.7 152 39.3 C 151.99 39.26 150.4 39 150.4 39 C 150.4 39 150.45 38.26 150.5 38.3 C 151.2 38 152 37.8 152.8 37.8 C 153.6 37.8 153.8 38.4 153.8 39 C 153.8 40.5 153.3 42.9 148.5 49.1 C 148.46 49.1 147.4 49.1 147.4 49.1 C 147.4 49.1 146.57 43.85 146.6 43.8 C 145.7 45.2 144.5 46.9 142.8 49.1 C 142.8 49.1 141.7 49.1 141.7 49.1 L 140 39.3 L 138.5 39 C 138.5 39 138.55 38.26 138.6 38.3 C 139.4 38 140.5 37.7 141.6 37.7 C 141.6 37.7 143.3 47.1 143.3 47.1 C 144.6 44.9 145.7 43.2 146.2 41.6 C 146.21 41.64 145.8 39.3 145.8 39.3 L 144.3 39 C 144.3 39 144.41 38.26 144.4 38.3 C 145.3 38 146.4 37.7 147.5 37.7 Z M 160.6 37.7 C 162.6 37.7 163.6 38.7 163.6 40.1 C 163.6 42.3 161.8 43.5 158 43.5 C 158 43.5 157 43.5 157 43.5 C 156.9 44.2 156.8 44.9 156.8 45.5 C 156.8 47.1 157.7 47.9 158.8 47.9 C 160.1 47.9 161.1 47.2 162.2 45.4 C 162.2 45.4 162.8 45.7 162.8 45.7 C 161.8 48.2 160.2 49.4 158.2 49.4 C 155.9 49.4 154.8 48 154.8 45.4 C 154.8 41.8 156.5 37.7 160.6 37.7 Z M 157.1 42.8 C 157.1 42.8 157.9 42.8 157.9 42.8 C 160.4 42.8 161.5 41.9 161.5 40.2 C 161.5 39.3 161.2 38.6 160.3 38.6 C 158.7 38.6 157.6 40.6 157.1 42.8 Z M 169.2 37.7 C 169.2 37.7 168.6 40.8 168.6 40.8 C 169.7 38.7 170.8 37.8 172 37.8 C 172.7 37.8 173.1 38 173.3 38.2 C 173.3 39.2 173 40.4 172.6 41.2 C 172.61 41.23 171.4 41.2 171.4 41.2 L 171.3 39.2 C 171.3 39.2 171.26 39.22 171.3 39.2 C 170.5 39.2 169.6 40.2 168.4 42.4 C 168.41 42.36 167.3 49.1 167.3 49.1 L 165.4 49.1 L 167 39.3 L 165.2 39 C 165.2 39 165.29 38.26 165.3 38.3 C 166.3 38 167.5 37.7 169.2 37.7 Z M 179.5 37.7 C 181.6 37.7 182.5 38.7 182.5 40.1 C 182.5 42.3 180.8 43.5 177 43.5 C 177 43.5 175.9 43.5 175.9 43.5 C 175.8 44.2 175.8 44.9 175.8 45.5 C 175.8 47.1 176.7 47.9 177.7 47.9 C 179.1 47.9 180.1 47.2 181.1 45.4 C 181.1 45.4 181.8 45.7 181.8 45.7 C 180.7 48.2 179.2 49.4 177.1 49.4 C 174.8 49.4 173.8 48 173.8 45.4 C 173.8 41.8 175.4 37.7 179.5 37.7 Z M 176.1 42.8 C 176.1 42.8 176.9 42.8 176.9 42.8 C 179.4 42.8 180.5 41.9 180.5 40.2 C 180.5 39.3 180.1 38.6 179.3 38.6 C 177.6 38.6 176.6 40.6 176.1 42.8 Z M 194.7 37.7 C 197.6 37.7 198.6 39.6 198.6 41.8 C 198.6 45.4 196.8 49.4 192.9 49.4 C 190 49.4 189 47.5 189 45.3 C 189 41.7 190.8 37.7 194.7 37.7 Z M 193 48.4 C 195.3 48.4 196.6 44.7 196.6 41.6 C 196.6 40 196 38.6 194.6 38.6 C 192.3 38.6 191 42.4 191 45.5 C 191 47.1 191.6 48.4 193 48.4 Z M 204.9 32.3 C 204.9 32.3 203.6 40.5 203.6 40.5 C 204.6 38.6 205.8 37.7 207.4 37.7 C 209 37.7 210 39 210 41.2 C 210 45.1 208.1 49.3 204.4 49.3 C 203.4 49.3 202.7 48.9 202.2 48.3 C 201.8 48.7 201.3 49.1 200.8 49.3 C 200.83 49.3 200.3 49.1 200.3 49.1 L 202.7 33.9 L 200.7 33.6 C 200.7 33.6 200.81 32.88 200.8 32.9 C 201.8 32.6 203.2 32.3 204.9 32.3 Z M 203.4 41.7 C 203.4 41.7 202.4 47.8 202.4 47.8 C 202.8 48 203.3 48.1 203.9 48.1 C 206.5 48.1 207.9 44.6 207.9 41.3 C 207.9 39.9 207.5 39.2 206.4 39.2 C 205.3 39.2 204.3 40.2 203.4 41.7 Z M 212.1 45.7 C 212.11 45.74 213.4 45.7 213.4 45.7 C 213.4 45.7 213.43 48.19 213.4 48.2 C 213.9 48.3 214.4 48.3 214.8 48.3 C 216.1 48.3 217.2 47.7 217.2 46.4 C 217.2 45.2 216.3 44.9 215.1 44.2 C 215.1 44.2 214.2 43.7 214.2 43.7 C 213.3 43.1 212.6 42.3 212.6 41.1 C 212.6 39 214 37.7 216.6 37.7 C 217.7 37.7 219.1 38 219.7 38.4 C 219.7 39.4 219.4 40.4 219 41.2 C 219.02 41.23 217.8 41.2 217.8 41.2 C 217.8 41.2 217.68 38.76 217.7 38.8 C 217.2 38.7 216.8 38.6 216.5 38.6 C 215.1 38.6 214.3 39.3 214.3 40.6 C 214.3 41.4 214.9 41.9 215.7 42.3 C 215.7 42.3 216.6 42.8 216.6 42.8 C 217.8 43.5 219 44.1 219 45.8 C 219 48 217.3 49.3 214.7 49.3 C 213.6 49.3 212 49 211.4 48.6 C 211.4 47.6 211.7 46.6 212.1 45.7 Z M 226.9 37.7 C 228.9 37.7 229.9 38.7 229.9 40.1 C 229.9 42.3 228.1 43.5 224.3 43.5 C 224.3 43.5 223.3 43.5 223.3 43.5 C 223.2 44.2 223.2 44.9 223.2 45.5 C 223.2 47.1 224 47.9 225.1 47.9 C 226.4 47.9 227.4 47.2 228.5 45.4 C 228.5 45.4 229.1 45.7 229.1 45.7 C 228.1 48.2 226.5 49.4 224.5 49.4 C 222.2 49.4 221.1 48 221.1 45.4 C 221.1 41.8 222.8 37.7 226.9 37.7 Z M 223.4 42.8 C 223.4 42.8 224.2 42.8 224.2 42.8 C 226.7 42.8 227.9 41.9 227.9 40.2 C 227.9 39.3 227.5 38.6 226.6 38.6 C 225 38.6 223.9 40.6 223.4 42.8 Z M 235.5 37.7 C 235.5 37.7 235 40.8 235 40.8 C 236 38.7 237.1 37.8 238.3 37.8 C 239 37.8 239.4 38 239.6 38.2 C 239.6 39.2 239.3 40.4 238.9 41.2 C 238.92 41.23 237.7 41.2 237.7 41.2 L 237.6 39.2 C 237.6 39.2 237.57 39.22 237.6 39.2 C 236.8 39.2 235.9 40.2 234.7 42.4 C 234.72 42.36 233.6 49.1 233.6 49.1 L 231.7 49.1 L 233.3 39.3 L 231.5 39 C 231.5 39 231.6 38.26 231.6 38.3 C 232.6 38 233.8 37.7 235.5 37.7 Z M 240.9 39 C 240.9 39 240.93 38.26 240.9 38.3 C 241.7 38 243 37.7 244 37.7 C 244.03 37.68 245.6 47.1 245.6 47.1 C 245.6 47.1 246.33 46.03 246.3 46 C 248.2 43.3 248.9 41.4 248.9 39.3 C 248.93 39.26 247.3 39 247.3 39 C 247.3 39 247.37 38.26 247.4 38.3 C 248.1 38 248.9 37.8 249.7 37.8 C 250.6 37.8 250.7 38.4 250.7 39 C 250.7 40.5 250.2 42.4 246.6 47.2 C 246.62 47.18 245.2 49.1 245.2 49.1 L 244.1 49.1 L 242.4 39.3 L 240.9 39 Z M 257.5 37.7 C 259.5 37.7 260.5 38.7 260.5 40.1 C 260.5 42.3 258.7 43.5 254.9 43.5 C 254.9 43.5 253.9 43.5 253.9 43.5 C 253.8 44.2 253.7 44.9 253.7 45.5 C 253.7 47.1 254.6 47.9 255.7 47.9 C 257 47.9 258 47.2 259.1 45.4 C 259.1 45.4 259.7 45.7 259.7 45.7 C 258.7 48.2 257.1 49.4 255.1 49.4 C 252.8 49.4 251.7 48 251.7 45.4 C 251.7 41.8 253.4 37.7 257.5 37.7 Z M 254 42.8 C 254 42.8 254.8 42.8 254.8 42.8 C 257.3 42.8 258.5 41.9 258.5 40.2 C 258.5 39.3 258.1 38.6 257.2 38.6 C 255.6 38.6 254.5 40.6 254 42.8 Z M 272.4 32.3 C 272.4 32.3 270.1 46.5 270.1 46.5 C 270.1 46.8 270 47.1 270 47.3 C 270 47.9 270.3 48 271.1 48 C 271.05 47.95 272 48 272 48 C 272 48 271.87 48.72 271.9 48.7 C 271.3 49 270.6 49.3 269.6 49.3 C 268.6 49.3 268.2 48.7 268.2 47.7 C 268.2 47.5 268.2 47 268.3 46.8 C 268.3 46.8 268.4 46.2 268.4 46.2 C 267.3 48.3 266.1 49.3 264.4 49.3 C 262.8 49.3 261.8 48 261.8 45.7 C 261.8 41.9 263.8 37.7 267.4 37.7 C 268.3 37.7 269 38 269.5 38.6 C 269.52 38.59 270.3 33.9 270.3 33.9 L 268.3 33.6 C 268.3 33.6 268.34 32.88 268.3 32.9 C 269.3 32.6 270.8 32.3 272.4 32.3 Z M 268.4 45.2 C 268.4 45.2 269.4 39.2 269.4 39.2 C 269 39 268.5 38.8 267.9 38.8 C 265.3 38.8 263.9 42.4 263.9 45.6 C 263.9 47.1 264.3 47.8 265.4 47.8 C 266.4 47.8 267.5 46.8 268.4 45.2 Z M 281.1 37.7 C 281.1 37.7 281.2 37 281.2 37 C 281.7 33.8 283.1 32.3 286.1 32.3 C 287 32.3 288.3 32.4 288.9 32.6 C 288.8 33.6 288.6 34.3 288.2 35.2 C 288.19 35.18 286.7 35.2 286.7 35.2 C 286.7 35.2 286.75 33.29 286.7 33.3 C 286.6 33.3 286.4 33.3 286.2 33.3 C 284.6 33.3 283.6 34 283.2 36.4 C 283.2 36.43 283 37.9 283 37.9 L 285.4 37.9 L 285.2 39.1 L 282.8 39.1 C 282.8 39.1 281.28 48.91 281.3 48.9 C 280.8 52 278.8 53.8 277 53.8 C 276.2 53.8 275.6 53.4 275.1 52.9 C 275.1 52.9 275.2 52.1 275.2 52.1 C 275.6 52.2 276.3 52.3 276.9 52.3 C 278.7 52.3 278.9 52.3 279.4 49.1 C 279.36 49.1 280.8 39.1 280.8 39.1 L 279 39.1 C 279 39.1 279.12 38.35 279.1 38.4 C 279.5 38.2 280.1 37.9 281.1 37.7 Z M 290.4 37.7 C 290.4 37.7 289.9 40.8 289.9 40.8 C 290.9 38.7 292 37.8 293.3 37.8 C 294 37.8 294.4 38 294.5 38.2 C 294.5 39.2 294.3 40.4 293.9 41.2 C 293.88 41.23 292.6 41.2 292.6 41.2 L 292.6 39.2 C 292.6 39.2 292.53 39.22 292.5 39.2 C 291.8 39.2 290.9 40.2 289.7 42.4 C 289.68 42.36 288.6 49.1 288.6 49.1 L 286.7 49.1 L 288.3 39.3 L 286.5 39 C 286.5 39 286.56 38.26 286.6 38.3 C 287.5 38 288.8 37.7 290.4 37.7 Z M 300.7 37.7 C 303.7 37.7 304.7 39.6 304.7 41.8 C 304.7 45.4 302.8 49.4 299 49.4 C 296 49.4 295.1 47.5 295.1 45.3 C 295.1 41.7 296.9 37.7 300.7 37.7 Z M 299.1 48.4 C 301.4 48.4 302.6 44.7 302.6 41.6 C 302.6 40 302.1 38.6 300.6 38.6 C 298.3 38.6 297.1 42.4 297.1 45.5 C 297.1 47.1 297.6 48.4 299.1 48.4 Z M 310.6 37.7 C 310.6 37.7 310.1 40.7 310.1 40.7 C 311.3 38.7 312.6 37.7 314.2 37.7 C 315.6 37.7 316.4 38.4 316.4 39.6 C 316.4 39.9 316.3 40.3 316.3 40.5 C 316.3 40.5 316.3 40.6 316.3 40.6 C 317.5 38.6 318.7 37.7 320.2 37.7 C 321.7 37.7 322.4 38.5 322.4 39.6 C 322.4 40 322.4 40.3 322.3 40.5 C 322.3 40.5 321.2 46.5 321.2 46.5 C 321.2 46.9 321.1 47.1 321.1 47.4 C 321.1 47.9 321.4 48 322.1 48 C 322.15 47.95 323.1 48 323.1 48 C 323.1 48 322.97 48.72 323 48.7 C 322.4 49 321.7 49.3 320.7 49.3 C 319.7 49.3 319.2 48.7 319.2 47.8 C 319.2 47.5 319.2 47 319.3 46.8 C 319.3 46.8 320.3 41 320.3 41 C 320.4 40.8 320.4 40.5 320.4 40.2 C 320.4 39.6 320.1 39.2 319.4 39.2 C 318.5 39.2 317.5 39.8 316.1 41.8 C 316.05 41.81 314.8 49.1 314.8 49.1 L 312.8 49.1 C 312.8 49.1 314.28 41.04 314.3 41 C 314.3 40.8 314.4 40.5 314.4 40.2 C 314.4 39.6 314.1 39.2 313.3 39.2 C 312.5 39.2 311.4 39.9 310 41.9 C 309.96 41.88 308.8 49.1 308.8 49.1 L 306.9 49.1 L 308.5 39.3 L 306.7 39 C 306.7 39 306.77 38.26 306.8 38.3 C 307.7 38 309 37.7 310.6 37.7 Z M 332.2 37.7 C 332.2 37.7 332.7 35.8 332.7 35.8 C 333 35.7 333.7 35.6 334.3 35.6 C 334.34 35.57 334 37.9 334 37.9 L 336.9 37.9 L 336.7 39.1 L 333.8 39.1 C 333.8 39.1 332.76 45.55 332.8 45.6 C 332.7 46 332.6 46.4 332.6 46.8 C 332.6 47.4 332.8 47.9 333.4 47.9 C 334.4 47.9 335.3 46.6 335.9 45.4 C 335.9 45.4 336.5 45.6 336.5 45.6 C 335.8 47.9 334.5 49.3 332.8 49.3 C 331.3 49.3 330.7 48.6 330.7 47.2 C 330.7 46.9 330.7 46.6 330.7 46.2 C 330.74 46.22 331.8 39.1 331.8 39.1 L 330 39.1 C 330 39.1 330.12 38.35 330.1 38.4 C 330.5 38.2 331.1 37.8 332.2 37.7 Z M 344.3 46.8 C 344.3 46.8 345.4 41 345.4 41 C 345.4 40.8 345.5 40.5 345.5 40.2 C 345.5 39.6 345.2 39.2 344.4 39.2 C 343.6 39.2 342.5 39.9 341 41.9 C 341.04 41.86 339.9 49.1 339.9 49.1 L 338 49.1 L 340.4 33.9 L 338.4 33.6 C 338.4 33.6 338.52 32.88 338.5 32.9 C 339.5 32.6 340.9 32.3 342.6 32.3 C 342.6 32.3 341.2 40.7 341.2 40.7 C 342.5 38.7 343.7 37.7 345.3 37.7 C 346.7 37.7 347.4 38.5 347.4 39.6 C 347.4 40 347.4 40.3 347.4 40.5 C 347.4 40.5 346.3 46.5 346.3 46.5 C 346.2 46.9 346.1 47.1 346.1 47.4 C 346.1 47.9 346.4 48 347.2 48 C 347.18 47.95 348.1 48 348.1 48 C 348.1 48 348 48.72 348 48.7 C 347.5 49 346.7 49.3 345.7 49.3 C 344.7 49.3 344.2 48.7 344.2 47.8 C 344.2 47.5 344.3 47 344.3 46.8 Z M 355.7 37.7 C 357.8 37.7 358.7 38.7 358.7 40.1 C 358.7 42.3 357 43.5 353.2 43.5 C 353.2 43.5 352.1 43.5 352.1 43.5 C 352.1 44.2 352 44.9 352 45.5 C 352 47.1 352.9 47.9 353.9 47.9 C 355.3 47.9 356.3 47.2 357.3 45.4 C 357.3 45.4 358 45.7 358 45.7 C 356.9 48.2 355.4 49.4 353.3 49.4 C 351 49.4 350 48 350 45.4 C 350 41.8 351.6 37.7 355.7 37.7 Z M 352.3 42.8 C 352.3 42.8 353.1 42.8 353.1 42.8 C 355.6 42.8 356.7 41.9 356.7 40.2 C 356.7 39.3 356.3 38.6 355.5 38.6 C 353.8 38.6 352.8 40.6 352.3 42.8 Z M 375.9 32.3 C 375.9 32.3 373.6 46.5 373.6 46.5 C 373.6 46.8 373.5 47.1 373.5 47.3 C 373.5 47.9 373.7 48 374.5 48 C 374.52 47.95 375.5 48 375.5 48 C 375.5 48 375.33 48.72 375.3 48.7 C 374.8 49 374 49.3 373.1 49.3 C 372 49.3 371.6 48.7 371.6 47.7 C 371.6 47.5 371.7 47 371.7 46.8 C 371.7 46.8 371.8 46.2 371.8 46.2 C 370.8 48.3 369.5 49.3 367.9 49.3 C 366.3 49.3 365.3 48 365.3 45.7 C 365.3 41.9 367.2 37.7 370.9 37.7 C 371.8 37.7 372.5 38 373 38.6 C 372.98 38.59 373.7 33.9 373.7 33.9 L 371.7 33.6 C 371.7 33.6 371.8 32.88 371.8 32.9 C 372.8 32.6 374.2 32.3 375.9 32.3 Z M 371.9 45.2 C 371.9 45.2 372.9 39.2 372.9 39.2 C 372.5 39 371.9 38.8 371.3 38.8 C 368.8 38.8 367.3 42.4 367.3 45.6 C 367.3 47.1 367.8 47.8 368.9 47.8 C 369.9 47.8 370.9 46.8 371.9 45.2 Z M 383 37.7 C 385 37.7 386 38.7 386 40.1 C 386 42.3 384.2 43.5 380.4 43.5 C 380.4 43.5 379.4 43.5 379.4 43.5 C 379.3 44.2 379.2 44.9 379.2 45.5 C 379.2 47.1 380.1 47.9 381.2 47.9 C 382.5 47.9 383.5 47.2 384.6 45.4 C 384.6 45.4 385.2 45.7 385.2 45.7 C 384.2 48.2 382.6 49.4 380.6 49.4 C 378.3 49.4 377.2 48 377.2 45.4 C 377.2 41.8 378.9 37.7 383 37.7 Z M 379.5 42.8 C 379.5 42.8 380.3 42.8 380.3 42.8 C 382.8 42.8 383.9 41.9 383.9 40.2 C 383.9 39.3 383.6 38.6 382.7 38.6 C 381.1 38.6 380 40.6 379.5 42.8 Z M 393.2 37.7 C 394.1 37.7 395.2 38 395.7 38.4 C 395.7 39.4 395.4 40.4 395 41.2 C 395.01 41.23 393.8 41.2 393.8 41.2 C 393.8 41.2 393.67 38.69 393.7 38.7 C 393.5 38.7 393.3 38.6 393.1 38.6 C 390.5 38.6 389.3 42.5 389.3 45.5 C 389.3 47.1 390.1 47.9 391.2 47.9 C 392.5 47.9 393.5 47.2 394.6 45.4 C 394.6 45.4 395.2 45.7 395.2 45.7 C 394.2 48.2 392.6 49.4 390.6 49.4 C 388.3 49.4 387.2 48 387.2 45.4 C 387.2 41.8 388.9 37.7 393.2 37.7 Z M 401.6 32.3 C 401.56 32.3 398.9 49.1 398.9 49.1 L 397 49.1 L 399.4 33.9 L 397.4 33.6 C 397.4 33.6 397.51 32.88 397.5 32.9 C 398.5 32.6 399.9 32.3 401.6 32.3 Z M 407.4 37.9 C 407.42 37.87 407.3 38.8 407.3 38.8 L 406.1 39.3 L 402.1 42.8 C 402.1 42.8 403.87 46.8 403.9 46.8 C 404.3 47.8 404.6 48 405.4 48 C 405.4 47.95 406.3 48 406.3 48 C 406.3 48 406.17 48.72 406.2 48.7 C 405.6 49 404.9 49.3 404.3 49.3 C 403.3 49.3 402.8 48.8 402.2 47.7 C 402.24 47.66 400.2 43.1 400.2 43.1 L 404.3 39.4 L 402.4 39 C 402.4 39 402.5 38.35 402.5 38.4 C 403.5 38.1 405.8 37.9 407.4 37.9 Z M 418.4 37.7 C 421.4 37.7 422.3 39.6 422.3 41.8 C 422.3 45.4 420.5 49.4 416.7 49.4 C 413.7 49.4 412.7 47.5 412.7 45.3 C 412.7 41.7 414.6 37.7 418.4 37.7 Z M 416.8 48.4 C 419.1 48.4 420.3 44.7 420.3 41.6 C 420.3 40 419.8 38.6 418.3 38.6 C 416 38.6 414.8 42.4 414.8 45.5 C 414.8 47.1 415.3 48.4 416.8 48.4 Z M 426.1 37.7 C 426.1 37.7 426.2 37 426.2 37 C 426.7 33.8 428.1 32.3 431.1 32.3 C 432.1 32.3 433.3 32.4 433.9 32.6 C 433.8 33.6 433.6 34.3 433.2 35.2 C 433.22 35.18 431.8 35.2 431.8 35.2 C 431.8 35.2 431.78 33.29 431.8 33.3 C 431.6 33.3 431.4 33.3 431.2 33.3 C 429.7 33.3 428.6 34 428.2 36.4 C 428.23 36.43 428 37.9 428 37.9 L 430.4 37.9 L 430.2 39.1 L 427.8 39.1 C 427.8 39.1 426.31 48.91 426.3 48.9 C 425.8 52 423.8 53.8 422 53.8 C 421.2 53.8 420.6 53.4 420.2 52.9 C 420.2 52.9 420.3 52.1 420.3 52.1 C 420.6 52.2 421.3 52.3 421.9 52.3 C 423.7 52.3 423.9 52.3 424.4 49.1 C 424.39 49.1 425.9 39.1 425.9 39.1 L 424 39.1 C 424 39.1 424.15 38.35 424.1 38.4 C 424.5 38.2 425.2 37.9 426.1 37.7 Z M 438 37.7 C 438 37.7 438.5 35.8 438.5 35.8 C 438.9 35.7 439.6 35.6 440.2 35.6 C 440.23 35.57 439.9 37.9 439.9 37.9 L 442.8 37.9 L 442.6 39.1 L 439.7 39.1 C 439.7 39.1 438.64 45.55 438.6 45.6 C 438.6 46 438.5 46.4 438.5 46.8 C 438.5 47.4 438.7 47.9 439.3 47.9 C 440.3 47.9 441.2 46.6 441.8 45.4 C 441.8 45.4 442.4 45.6 442.4 45.6 C 441.6 47.9 440.4 49.3 438.6 49.3 C 437.2 49.3 436.6 48.6 436.6 47.2 C 436.6 46.9 436.6 46.6 436.6 46.2 C 436.63 46.22 437.7 39.1 437.7 39.1 L 435.9 39.1 C 435.9 39.1 436 38.35 436 38.4 C 436.4 38.2 437 37.8 438 37.7 Z M 450.2 46.8 C 450.2 46.8 451.2 41 451.2 41 C 451.3 40.8 451.3 40.5 451.3 40.2 C 451.3 39.6 451.1 39.2 450.3 39.2 C 449.4 39.2 448.4 39.9 446.9 41.9 C 446.92 41.86 445.8 49.1 445.8 49.1 L 443.9 49.1 L 446.3 33.9 L 444.3 33.6 C 444.3 33.6 444.4 32.88 444.4 32.9 C 445.4 32.6 446.8 32.3 448.5 32.3 C 448.5 32.3 447.1 40.7 447.1 40.7 C 448.3 38.7 449.6 37.7 451.1 37.7 C 452.6 37.7 453.3 38.5 453.3 39.6 C 453.3 40 453.3 40.3 453.3 40.5 C 453.3 40.5 452.2 46.5 452.2 46.5 C 452.1 46.9 452 47.1 452 47.4 C 452 47.9 452.3 48 453.1 48 C 453.07 47.95 454 48 454 48 C 454 48 453.88 48.72 453.9 48.7 C 453.4 49 452.6 49.3 451.6 49.3 C 450.6 49.3 450.1 48.7 450.1 47.8 C 450.1 47.5 450.1 47 450.2 46.8 Z M 461.6 37.7 C 463.7 37.7 464.6 38.7 464.6 40.1 C 464.6 42.3 462.9 43.5 459 43.5 C 459 43.5 458 43.5 458 43.5 C 457.9 44.2 457.9 44.9 457.9 45.5 C 457.9 47.1 458.8 47.9 459.8 47.9 C 461.2 47.9 462.2 47.2 463.2 45.4 C 463.2 45.4 463.9 45.7 463.9 45.7 C 462.8 48.2 461.3 49.4 459.2 49.4 C 456.9 49.4 455.9 48 455.9 45.4 C 455.9 41.8 457.5 37.7 461.6 37.7 Z M 458.2 42.8 C 458.2 42.8 458.9 42.8 458.9 42.8 C 461.4 42.8 462.6 41.9 462.6 40.2 C 462.6 39.3 462.2 38.6 461.3 38.6 C 459.7 38.6 458.7 40.6 458.2 42.8 Z M 616.1 48 C 616.1 46.9 616.8 46.2 617.7 46.2 C 618.5 46.2 619 46.7 619 47.6 C 619 48.7 618.3 49.4 617.5 49.4 C 616.6 49.4 616.1 48.9 616.1 48 Z " stroke="none" fill="#fff"/>    <a xlink:href="http://www.nps.gov/chis/learn/news/ipco-new-boat.htm?target=_lightbox" class="lightbox" xlink:show="undefined" xlink:title="Island Explorer">      <rect style="fill:transparent;" x="469" y="31" width="146" height="22"/>    </a>  </g>  <g id="Polygon14200">    <path d="M 1.7 17.9 C 1.7 17.9 3.7 5 3.7 5 C 3 4.9 2.3 4.8 1.8 4.6 C 1.82 4.61 2 3.7 2 3.7 C 2 3.7 8.06 3.74 8.1 3.7 C 12.2 3.7 14.7 6.1 14.7 9.9 C 14.7 15.3 11.5 19.1 6.3 19.1 C 6.34 19.1 -0.2 19.1 -0.2 19.1 C -0.2 19.1 -0.05 18.24 0 18.2 C 0.5 18.1 1 17.9 1.7 17.9 Z M 3.8 18 C 3.8 18 6.62 17.95 6.6 18 C 10.6 18 12.4 14 12.4 9.8 C 12.4 6.4 10.7 4.9 7.9 4.9 C 7.87 4.9 5.8 4.9 5.8 4.9 L 3.8 18 Z M 22.1 7.7 C 25.1 7.7 26 9.6 26 11.8 C 26 15.4 24.2 19.4 20.4 19.4 C 17.4 19.4 16.4 17.5 16.4 15.3 C 16.4 11.7 18.3 7.7 22.1 7.7 Z M 20.5 18.4 C 22.8 18.4 24 14.7 24 11.6 C 24 10 23.4 8.6 22 8.6 C 19.7 8.6 18.5 12.4 18.5 15.5 C 18.5 17.1 19 18.4 20.5 18.4 Z M 32.3 2.3 C 32.3 2.3 30 16.5 30 16.5 C 30 16.8 30 17.1 30 17.3 C 30 17.9 30.2 18 31 18 C 30.96 17.95 31.9 18 31.9 18 C 31.9 18 31.78 18.72 31.8 18.7 C 31.2 19 30.5 19.3 29.5 19.3 C 28.5 19.3 28 18.7 28 17.7 C 28 17.5 28 17 28.1 16.8 C 28.08 16.8 30.2 3.9 30.2 3.9 L 28.2 3.6 C 28.2 3.6 28.25 2.88 28.2 2.9 C 29.2 2.6 30.7 2.3 32.3 2.3 Z M 37.8 7.7 C 37.8 7.7 37.3 10.5 37.3 10.5 C 38.4 8.6 39.6 7.7 41.2 7.7 C 42.8 7.7 43.8 9 43.8 11.2 C 43.8 15.1 41.9 19.3 38.2 19.3 C 37.3 19.3 36.6 19 36.1 18.4 C 36.1 18.4 35.4 22.5 35.4 22.5 C 36.3 22.5 37 22.7 37.6 22.8 C 37.61 22.85 37.5 23.6 37.5 23.6 L 31.8 23.6 C 31.8 23.6 31.9 22.85 31.9 22.8 C 32.4 22.7 32.8 22.5 33.5 22.5 C 33.48 22.46 35.7 9.3 35.7 9.3 L 33.9 9 C 33.9 9 33.94 8.26 33.9 8.3 C 34.9 8 36.2 7.7 37.8 7.7 Z M 37.1 11.8 C 37.1 11.8 36.2 17.8 36.2 17.8 C 36.6 18 37.1 18.1 37.7 18.1 C 40.3 18.1 41.7 14.6 41.7 11.3 C 41.7 9.9 41.3 9.2 40.2 9.2 C 39.1 9.2 38.1 10.2 37.1 11.8 Z M 51.9 16.8 C 51.9 16.8 53 11 53 11 C 53 10.8 53.1 10.5 53.1 10.2 C 53.1 9.6 52.8 9.2 52 9.2 C 51.2 9.2 50.2 9.9 48.7 11.9 C 48.67 11.86 47.5 19.1 47.5 19.1 L 45.6 19.1 L 48.1 3.9 L 46.1 3.6 C 46.1 3.6 46.15 2.88 46.2 2.9 C 47.1 2.6 48.6 2.3 50.2 2.3 C 50.2 2.3 48.9 10.7 48.9 10.7 C 50.1 8.7 51.3 7.7 52.9 7.7 C 54.3 7.7 55.1 8.5 55.1 9.6 C 55.1 10 55 10.3 55 10.5 C 55 10.5 53.9 16.5 53.9 16.5 C 53.8 16.9 53.8 17.1 53.8 17.4 C 53.8 17.9 54 18 54.8 18 C 54.82 17.95 55.8 18 55.8 18 C 55.8 18 55.63 18.72 55.6 18.7 C 55.1 19 54.3 19.3 53.4 19.3 C 52.3 19.3 51.8 18.7 51.8 17.8 C 51.8 17.5 51.9 17 51.9 16.8 Z M 60.6 2.8 C 60.8 2.7 61.3 2.7 61.7 2.7 C 62 2.7 62.5 2.7 62.7 2.8 C 62.7 3.6 62.4 4.7 62 5.4 C 61.8 5.4 61.5 5.5 61.1 5.5 C 60.7 5.5 60.4 5.4 60.2 5.4 C 60.2 4.6 60.4 3.5 60.6 2.8 Z M 61.8 7.7 C 61.8 7.7 60.4 16.5 60.4 16.5 C 60.3 16.8 60.3 17.1 60.3 17.3 C 60.3 17.9 60.5 18 61.3 18 C 61.27 17.95 62.2 18 62.2 18 C 62.2 18 62.09 18.72 62.1 18.7 C 61.6 19 60.8 19.3 59.8 19.3 C 58.8 19.3 58.3 18.7 58.3 17.7 C 58.3 17.5 58.3 17 58.4 16.8 C 58.39 16.8 59.6 9.3 59.6 9.3 L 57.8 9 C 57.8 9 57.89 8.26 57.9 8.3 C 58.9 8 60.1 7.7 61.8 7.7 Z M 68.1 7.7 C 68.1 7.7 67.6 10.7 67.6 10.7 C 68.8 8.7 70.1 7.7 71.7 7.7 C 73.1 7.7 73.8 8.5 73.8 9.6 C 73.8 10 73.8 10.3 73.8 10.5 C 73.8 10.5 72.7 16.5 72.7 16.5 C 72.6 16.9 72.6 17.1 72.6 17.4 C 72.6 17.9 72.8 18 73.6 18 C 73.58 17.95 74.5 18 74.5 18 C 74.5 18 74.4 18.72 74.4 18.7 C 73.9 19 73.1 19.3 72.1 19.3 C 71.1 19.3 70.6 18.7 70.6 17.8 C 70.6 17.5 70.7 17 70.7 16.8 C 70.7 16.8 71.8 11 71.8 11 C 71.8 10.8 71.9 10.5 71.9 10.2 C 71.9 9.6 71.6 9.2 70.8 9.2 C 70 9.2 68.9 9.9 67.4 11.9 C 67.44 11.88 66.3 19.1 66.3 19.1 L 64.4 19.1 L 66 9.3 L 64.2 9 C 64.2 9 64.25 8.26 64.2 8.3 C 65.2 8 66.5 7.7 68.1 7.7 Z M 81.6 15.7 C 81.62 15.74 82.9 15.7 82.9 15.7 C 82.9 15.7 82.94 18.19 82.9 18.2 C 83.4 18.3 83.9 18.3 84.3 18.3 C 85.6 18.3 86.7 17.7 86.7 16.4 C 86.7 15.2 85.8 14.9 84.6 14.2 C 84.6 14.2 83.7 13.7 83.7 13.7 C 82.8 13.1 82.1 12.3 82.1 11.1 C 82.1 9 83.5 7.7 86.1 7.7 C 87.2 7.7 88.6 8 89.2 8.4 C 89.2 9.4 88.9 10.4 88.5 11.2 C 88.53 11.23 87.3 11.2 87.3 11.2 C 87.3 11.2 87.19 8.76 87.2 8.8 C 86.8 8.7 86.3 8.6 86 8.6 C 84.6 8.6 83.8 9.3 83.8 10.6 C 83.8 11.4 84.5 11.9 85.2 12.3 C 85.2 12.3 86.1 12.8 86.1 12.8 C 87.3 13.5 88.5 14.1 88.5 15.8 C 88.5 18 86.9 19.3 84.2 19.3 C 83.1 19.3 81.5 19 81 18.6 C 81 17.6 81.2 16.6 81.6 15.7 Z M 96.4 7.7 C 98.4 7.7 99.4 8.7 99.4 10.1 C 99.4 12.3 97.7 13.5 93.8 13.5 C 93.8 13.5 92.8 13.5 92.8 13.5 C 92.7 14.2 92.7 14.9 92.7 15.5 C 92.7 17.1 93.5 17.9 94.6 17.9 C 95.9 17.9 96.9 17.2 98 15.4 C 98 15.4 98.6 15.7 98.6 15.7 C 97.6 18.2 96 19.4 94 19.4 C 91.7 19.4 90.6 18 90.6 15.4 C 90.6 11.8 92.3 7.7 96.4 7.7 Z M 93 12.8 C 93 12.8 93.7 12.8 93.7 12.8 C 96.2 12.8 97.4 11.9 97.4 10.2 C 97.4 9.3 97 8.6 96.1 8.6 C 94.5 8.6 93.4 10.6 93 12.8 Z M 106.4 7.7 C 108.4 7.7 109.4 8.7 109.4 10.1 C 109.4 12.3 107.7 13.5 103.8 13.5 C 103.8 13.5 102.8 13.5 102.8 13.5 C 102.7 14.2 102.7 14.9 102.7 15.5 C 102.7 17.1 103.5 17.9 104.6 17.9 C 105.9 17.9 106.9 17.2 108 15.4 C 108 15.4 108.6 15.7 108.6 15.7 C 107.6 18.2 106 19.4 104 19.4 C 101.7 19.4 100.7 18 100.7 15.4 C 100.7 11.8 102.3 7.7 106.4 7.7 Z M 103 12.8 C 103 12.8 103.7 12.8 103.7 12.8 C 106.2 12.8 107.4 11.9 107.4 10.2 C 107.4 9.3 107 8.6 106.1 8.6 C 104.5 8.6 103.4 10.6 103 12.8 Z M 115 7.7 C 115 7.7 114.5 10.7 114.5 10.7 C 115.7 8.7 117 7.7 118.5 7.7 C 119.9 7.7 120.7 8.4 120.7 9.6 C 120.7 9.9 120.7 10.3 120.6 10.5 C 120.6 10.5 120.6 10.6 120.6 10.6 C 121.8 8.6 123 7.7 124.6 7.7 C 126 7.7 126.8 8.5 126.8 9.6 C 126.8 10 126.7 10.3 126.7 10.5 C 126.7 10.5 125.6 16.5 125.6 16.5 C 125.5 16.9 125.5 17.1 125.5 17.4 C 125.5 17.9 125.7 18 126.5 18 C 126.5 17.95 127.5 18 127.5 18 C 127.5 18 127.32 18.72 127.3 18.7 C 126.8 19 126 19.3 125.1 19.3 C 124 19.3 123.5 18.7 123.5 17.8 C 123.5 17.5 123.6 17 123.6 16.8 C 123.6 16.8 124.7 11 124.7 11 C 124.7 10.8 124.8 10.5 124.8 10.2 C 124.8 9.6 124.5 9.2 123.7 9.2 C 122.9 9.2 121.8 9.8 120.4 11.8 C 120.41 11.81 119.1 19.1 119.1 19.1 L 117.2 19.1 C 117.2 19.1 118.63 11.04 118.6 11 C 118.7 10.8 118.7 10.5 118.7 10.2 C 118.7 9.6 118.4 9.2 117.7 9.2 C 116.8 9.2 115.8 9.9 114.3 11.9 C 114.31 11.88 113.2 19.1 113.2 19.1 L 111.2 19.1 L 112.8 9.3 L 111 9 C 111 9 111.12 8.26 111.1 8.3 C 112.1 8 113.4 7.7 115 7.7 Z M 136.5 7.7 C 136.5 7.7 137 5.8 137 5.8 C 137.4 5.7 138.1 5.6 138.7 5.6 C 138.69 5.57 138.3 7.9 138.3 7.9 L 141.2 7.9 L 141 9.1 L 138.1 9.1 C 138.1 9.1 137.11 15.55 137.1 15.6 C 137 16 137 16.4 137 16.8 C 137 17.4 137.2 17.9 137.8 17.9 C 138.7 17.9 139.7 16.6 140.2 15.4 C 140.2 15.4 140.9 15.6 140.9 15.6 C 140.1 17.9 138.8 19.3 137.1 19.3 C 135.7 19.3 135 18.6 135 17.2 C 135 16.9 135 16.6 135.1 16.2 C 135.09 16.22 136.2 9.1 136.2 9.1 L 134.3 9.1 C 134.3 9.1 134.47 8.35 134.5 8.4 C 134.9 8.2 135.5 7.8 136.5 7.7 Z M 148.2 7.7 C 151.1 7.7 152.1 9.6 152.1 11.8 C 152.1 15.4 150.3 19.4 146.4 19.4 C 143.5 19.4 142.5 17.5 142.5 15.3 C 142.5 11.7 144.3 7.7 148.2 7.7 Z M 146.5 18.4 C 148.8 18.4 150.1 14.7 150.1 11.6 C 150.1 10 149.5 8.6 148.1 8.6 C 145.8 8.6 144.5 12.4 144.5 15.5 C 144.5 17.1 145.1 18.4 146.5 18.4 Z M 164.8 7.7 C 166.8 7.7 167.8 8.7 167.8 10.1 C 167.8 12.3 166.1 13.5 162.2 13.5 C 162.2 13.5 161.2 13.5 161.2 13.5 C 161.1 14.2 161.1 14.9 161.1 15.5 C 161.1 17.1 161.9 17.9 163 17.9 C 164.3 17.9 165.4 17.2 166.4 15.4 C 166.4 15.4 167.1 15.7 167.1 15.7 C 166 18.2 164.4 19.4 162.4 19.4 C 160.1 19.4 159.1 18 159.1 15.4 C 159.1 11.8 160.7 7.7 164.8 7.7 Z M 161.4 12.8 C 161.4 12.8 162.1 12.8 162.1 12.8 C 164.6 12.8 165.8 11.9 165.8 10.2 C 165.8 9.3 165.4 8.6 164.5 8.6 C 162.9 8.6 161.9 10.6 161.4 12.8 Z M 173.4 7.7 C 173.4 7.7 172.9 10.7 172.9 10.7 C 174.1 8.7 175.4 7.7 176.9 7.7 C 178.4 7.7 179.1 8.5 179.1 9.6 C 179.1 10 179.1 10.3 179.1 10.5 C 179.1 10.5 178 16.5 178 16.5 C 177.9 16.9 177.8 17.1 177.8 17.4 C 177.8 17.9 178.1 18 178.9 18 C 178.87 17.95 179.8 18 179.8 18 C 179.8 18 179.69 18.72 179.7 18.7 C 179.2 19 178.4 19.3 177.4 19.3 C 176.4 19.3 175.9 18.7 175.9 17.8 C 175.9 17.5 175.9 17 176 16.8 C 176 16.8 177 11 177 11 C 177.1 10.8 177.1 10.5 177.1 10.2 C 177.1 9.6 176.9 9.2 176.1 9.2 C 175.2 9.2 174.2 9.9 172.7 11.9 C 172.73 11.88 171.6 19.1 171.6 19.1 L 169.7 19.1 L 171.3 9.3 L 169.5 9 C 169.5 9 169.53 8.26 169.5 8.3 C 170.5 8 171.8 7.7 173.4 7.7 Z M 184.7 2.8 C 184.9 2.7 185.4 2.7 185.8 2.7 C 186.2 2.7 186.7 2.7 186.9 2.8 C 186.9 3.6 186.5 4.7 186.2 5.4 C 186 5.4 185.7 5.5 185.3 5.5 C 184.9 5.5 184.6 5.4 184.4 5.4 C 184.4 4.6 184.5 3.5 184.7 2.8 Z M 185.9 7.7 C 185.9 7.7 184.2 18.5 184.2 18.5 C 183.7 21.6 181.7 23.8 179.9 23.8 C 179.1 23.8 178.5 23.4 178 22.9 C 178 22.9 178.1 22.1 178.1 22.1 C 178.5 22.2 179.4 22.3 179.9 22.3 C 181.5 22.3 181.6 22.3 182.2 19.1 C 182.16 19.1 183.8 9.3 183.8 9.3 L 182 9 C 182 9 182.04 8.26 182 8.3 C 183 8 184.3 7.7 185.9 7.7 Z M 193.3 7.7 C 196.3 7.7 197.3 9.6 197.3 11.8 C 197.3 15.4 195.4 19.4 191.6 19.4 C 188.6 19.4 187.7 17.5 187.7 15.3 C 187.7 11.7 189.5 7.7 193.3 7.7 Z M 191.7 18.4 C 194 18.4 195.2 14.7 195.2 11.6 C 195.2 10 194.7 8.6 193.2 8.6 C 190.9 8.6 189.7 12.4 189.7 15.5 C 189.7 17.1 190.2 18.4 191.7 18.4 Z M 201.2 19.9 C 201.17 19.87 201.5 19.3 201.5 19.3 L 199.7 9.3 L 198.2 9 C 198.2 9 198.31 8.26 198.3 8.3 C 199.1 8 200.3 7.7 201.4 7.7 C 201.41 7.68 203 17.2 203 17.2 C 203 17.2 203.66 16.22 203.7 16.2 C 205.1 14 206.2 11.8 206.3 9.3 C 206.28 9.26 204.7 9 204.7 9 C 204.7 9 204.74 8.26 204.7 8.3 C 205.4 8 206.3 7.8 207.1 7.8 C 207.9 7.8 208.1 8.4 208.1 9 C 208.1 10.8 207 13.2 204.9 16.2 C 204.9 16.2 202.3 19.9 202.3 19.9 C 201.1 21.6 199.6 23.8 197.9 23.8 C 197 23.8 196.5 23.4 195.9 22.8 C 195.9 22.8 196 22 196 22 C 196.6 22.2 197.1 22.3 197.7 22.3 C 199.2 22.3 200.2 21.4 201.2 19.9 Z M 220.6 7.7 C 221.5 7.7 222.6 8 223.1 8.4 C 223.1 9.4 222.8 10.4 222.4 11.2 C 222.38 11.23 221.1 11.2 221.1 11.2 C 221.1 11.2 221.04 8.69 221 8.7 C 220.9 8.7 220.7 8.6 220.5 8.6 C 217.9 8.6 216.6 12.5 216.6 15.5 C 216.6 17.1 217.5 17.9 218.5 17.9 C 219.9 17.9 220.9 17.2 221.9 15.4 C 221.9 15.4 222.6 15.7 222.6 15.7 C 221.5 18.2 220 19.4 218 19.4 C 215.7 19.4 214.6 18 214.6 15.4 C 214.6 11.8 216.2 7.7 220.6 7.7 Z M 230 7.7 C 230.9 7.7 231.6 8.1 232.1 8.7 C 232.5 8.3 233 7.9 233.4 7.7 C 233.45 7.68 234.1 7.9 234.1 7.9 C 234.1 7.9 232.73 16.51 232.7 16.5 C 232.7 16.8 232.6 17.1 232.6 17.3 C 232.6 17.9 232.9 18 233.6 18 C 233.64 17.95 234.6 18 234.6 18 C 234.6 18 234.45 18.72 234.5 18.7 C 233.9 19 233.2 19.3 232.2 19.3 C 231.1 19.3 230.8 18.7 230.8 17.7 C 230.8 17.5 230.8 17 230.9 16.8 C 230.9 16.8 230.9 16.2 230.9 16.2 C 229.9 18.3 228.7 19.3 227 19.3 C 225.4 19.3 224.4 18 224.4 15.7 C 224.4 11.9 226.3 7.7 230 7.7 Z M 231 15.2 C 231 15.2 232 9.2 232 9.2 C 231.6 9 231.1 8.8 230.5 8.8 C 227.9 8.8 226.4 12.4 226.4 15.6 C 226.4 17.1 226.9 17.8 228 17.8 C 229 17.8 230 16.8 231 15.2 Z M 235.6 9 C 235.6 9 235.65 8.26 235.7 8.3 C 236.4 8 237.7 7.7 238.7 7.7 C 238.75 7.68 240.4 17.1 240.4 17.1 C 240.4 17.1 241.05 16.03 241.1 16 C 242.9 13.3 243.6 11.4 243.6 9.3 C 243.65 9.26 242 9 242 9 C 242 9 242.09 8.26 242.1 8.3 C 242.8 8 243.6 7.8 244.4 7.8 C 245.3 7.8 245.5 8.4 245.5 9 C 245.5 10.5 244.9 12.4 241.3 17.2 C 241.34 17.18 239.9 19.1 239.9 19.1 L 238.8 19.1 L 237.1 9.3 L 235.6 9 Z M 252.1 7.7 C 255.1 7.7 256.1 9.6 256.1 11.8 C 256.1 15.4 254.2 19.4 250.4 19.4 C 247.4 19.4 246.5 17.5 246.5 15.3 C 246.5 11.7 248.3 7.7 252.1 7.7 Z M 250.5 18.4 C 252.8 18.4 254 14.7 254 11.6 C 254 10 253.5 8.6 252 8.6 C 249.7 8.6 248.5 12.4 248.5 15.5 C 248.5 17.1 249 18.4 250.5 18.4 Z M 262 7.7 C 262 7.7 261.5 10.8 261.5 10.8 C 262.5 8.7 263.6 7.8 264.9 7.8 C 265.6 7.8 266 8 266.2 8.2 C 266.2 9.2 265.9 10.4 265.5 11.2 C 265.49 11.23 264.2 11.2 264.2 11.2 L 264.2 9.2 C 264.2 9.2 264.14 9.22 264.1 9.2 C 263.4 9.2 262.5 10.2 261.3 12.4 C 261.29 12.36 260.2 19.1 260.2 19.1 L 258.3 19.1 L 259.9 9.3 L 258.1 9 C 258.1 9 258.17 8.26 258.2 8.3 C 259.1 8 260.4 7.7 262 7.7 Z M 269.7 7.7 C 269.7 7.7 270.2 5.8 270.2 5.8 C 270.6 5.7 271.3 5.6 271.9 5.6 C 271.89 5.57 271.5 7.9 271.5 7.9 L 274.4 7.9 L 274.2 9.1 L 271.3 9.1 C 271.3 9.1 270.31 15.55 270.3 15.6 C 270.2 16 270.2 16.4 270.2 16.8 C 270.2 17.4 270.4 17.9 271 17.9 C 271.9 17.9 272.9 16.6 273.4 15.4 C 273.4 15.4 274.1 15.6 274.1 15.6 C 273.3 17.9 272 19.3 270.3 19.3 C 268.9 19.3 268.2 18.6 268.2 17.2 C 268.2 16.9 268.2 16.6 268.3 16.2 C 268.29 16.22 269.4 9.1 269.4 9.1 L 267.5 9.1 C 267.5 9.1 267.67 8.35 267.7 8.4 C 268.1 8.2 268.7 7.8 269.7 7.7 Z M 278.3 2.8 C 278.5 2.7 279 2.7 279.4 2.7 C 279.7 2.7 280.2 2.7 280.4 2.8 C 280.4 3.6 280.1 4.7 279.7 5.4 C 279.5 5.4 279.2 5.5 278.8 5.5 C 278.4 5.5 278.1 5.4 277.9 5.4 C 277.9 4.6 278.1 3.5 278.3 2.8 Z M 279.5 7.7 C 279.5 7.7 278.1 16.5 278.1 16.5 C 278 16.8 278 17.1 278 17.3 C 278 17.9 278.2 18 279 18 C 278.97 17.95 279.9 18 279.9 18 C 279.9 18 279.79 18.72 279.8 18.7 C 279.3 19 278.5 19.3 277.5 19.3 C 276.5 19.3 276 18.7 276 17.7 C 276 17.5 276 17 276.1 16.8 C 276.09 16.8 277.3 9.3 277.3 9.3 L 275.5 9 C 275.5 9 275.59 8.26 275.6 8.3 C 276.6 8 277.8 7.7 279.5 7.7 Z M 285.8 7.7 C 285.8 7.7 285.3 10.7 285.3 10.7 C 286.5 8.7 287.8 7.7 289.4 7.7 C 290.8 7.7 291.5 8.5 291.5 9.6 C 291.5 10 291.5 10.3 291.5 10.5 C 291.5 10.5 290.4 16.5 290.4 16.5 C 290.3 16.9 290.3 17.1 290.3 17.4 C 290.3 17.9 290.5 18 291.3 18 C 291.29 17.95 292.2 18 292.2 18 C 292.2 18 292.1 18.72 292.1 18.7 C 291.6 19 290.8 19.3 289.8 19.3 C 288.8 19.3 288.3 18.7 288.3 17.8 C 288.3 17.5 288.4 17 288.4 16.8 C 288.4 16.8 289.5 11 289.5 11 C 289.5 10.8 289.6 10.5 289.6 10.2 C 289.6 9.6 289.3 9.2 288.5 9.2 C 287.7 9.2 286.6 9.9 285.1 11.9 C 285.14 11.88 284 19.1 284 19.1 L 282.1 19.1 L 283.7 9.3 L 281.9 9 C 281.9 9 281.95 8.26 281.9 8.3 C 282.9 8 284.2 7.7 285.8 7.7 Z M 295.5 18.6 C 295 18.3 294.6 17.9 294.6 17.1 C 294.6 16.4 295.2 15.5 296.4 15 C 295.1 14.4 294.4 13.3 294.4 12 C 294.4 9.3 296.6 7.7 299 7.7 C 300 7.7 300.9 7.9 301.5 8.4 C 302.1 7.9 303.2 7.6 304.5 7.6 C 304.5 8.2 304.4 8.6 304.1 9.1 C 304.1 9.1 302.3 9.1 302.3 9.1 C 302.6 9.6 302.8 10.3 302.8 10.9 C 302.8 13.6 300.6 15.3 298.2 15.3 C 297.8 15.3 297.5 15.2 297.1 15.2 C 296.6 15.6 296.2 16 296.2 16.4 C 296.2 16.9 296.4 17.1 297.1 17.2 C 297.1 17.2 299.9 17.4 299.9 17.4 C 302 17.5 302.9 18.1 302.9 19.6 C 302.9 21.7 300.5 23.8 296.8 23.8 C 294 23.8 292.6 22.9 292.6 21.3 C 292.6 19.9 293.8 19 295.5 18.6 Z M 300.8 10.9 C 300.8 9.6 300.2 8.6 299 8.6 C 297.4 8.6 296.4 9.9 296.4 12 C 296.4 13.3 297 14.3 298.2 14.3 C 299.9 14.3 300.8 13.1 300.8 10.9 Z M 294.4 20.8 C 294.4 22.1 295.4 22.8 297.1 22.8 C 299.6 22.8 301.1 21.8 301.1 20.4 C 301.1 19.5 300.7 19.1 299.3 19 C 299.3 19 296.2 18.8 296.2 18.8 C 295 19.3 294.4 20 294.4 20.8 Z M 313.1 2.8 C 313.2 2.7 313.7 2.7 314.1 2.7 C 314.5 2.7 315 2.7 315.2 2.8 C 315.2 3.6 314.8 4.7 314.5 5.4 C 314.3 5.4 314 5.5 313.6 5.5 C 313.2 5.5 312.9 5.4 312.7 5.4 C 312.7 4.6 312.8 3.5 313.1 2.8 Z M 314.2 7.7 C 314.2 7.7 312.8 16.5 312.8 16.5 C 312.8 16.8 312.7 17.1 312.7 17.3 C 312.7 17.9 313 18 313.7 18 C 313.72 17.95 314.7 18 314.7 18 C 314.7 18 314.54 18.72 314.5 18.7 C 314 19 313.2 19.3 312.3 19.3 C 311.2 19.3 310.7 18.7 310.7 17.7 C 310.7 17.5 310.8 17 310.8 16.8 C 310.84 16.8 312.1 9.3 312.1 9.3 L 310.3 9 C 310.3 9 310.34 8.26 310.3 8.3 C 311.3 8 312.6 7.7 314.2 7.7 Z M 320.6 7.7 C 320.6 7.7 320.1 10.7 320.1 10.7 C 321.3 8.7 322.5 7.7 324.1 7.7 C 325.6 7.7 326.3 8.5 326.3 9.6 C 326.3 10 326.3 10.3 326.2 10.5 C 326.2 10.5 325.1 16.5 325.1 16.5 C 325.1 16.9 325 17.1 325 17.4 C 325 17.9 325.3 18 326 18 C 326.04 17.95 327 18 327 18 C 327 18 326.85 18.72 326.9 18.7 C 326.3 19 325.6 19.3 324.6 19.3 C 323.5 19.3 323.1 18.7 323.1 17.8 C 323.1 17.5 323.1 17 323.2 16.8 C 323.2 16.8 324.2 11 324.2 11 C 324.3 10.8 324.3 10.5 324.3 10.2 C 324.3 9.6 324 9.2 323.3 9.2 C 322.4 9.2 321.4 9.9 319.9 11.9 C 319.89 11.88 318.7 19.1 318.7 19.1 L 316.8 19.1 L 318.4 9.3 L 316.6 9 C 316.6 9 316.7 8.26 316.7 8.3 C 317.7 8 318.9 7.7 320.6 7.7 Z M 336 7.7 C 336 7.7 336.5 5.8 336.5 5.8 C 336.9 5.7 337.6 5.6 338.2 5.6 C 338.23 5.57 337.9 7.9 337.9 7.9 L 340.8 7.9 L 340.6 9.1 L 337.7 9.1 C 337.7 9.1 336.64 15.55 336.6 15.6 C 336.6 16 336.5 16.4 336.5 16.8 C 336.5 17.4 336.7 17.9 337.3 17.9 C 338.3 17.9 339.2 16.6 339.8 15.4 C 339.8 15.4 340.4 15.6 340.4 15.6 C 339.6 17.9 338.4 19.3 336.6 19.3 C 335.2 19.3 334.6 18.6 334.6 17.2 C 334.6 16.9 334.6 16.6 334.6 16.2 C 334.63 16.22 335.7 9.1 335.7 9.1 L 333.9 9.1 C 333.9 9.1 334 8.35 334 8.4 C 334.4 8.2 335 7.8 336 7.7 Z M 348.2 16.8 C 348.2 16.8 349.2 11 349.2 11 C 349.3 10.8 349.3 10.5 349.3 10.2 C 349.3 9.6 349.1 9.2 348.3 9.2 C 347.4 9.2 346.4 9.9 344.9 11.9 C 344.92 11.86 343.8 19.1 343.8 19.1 L 341.9 19.1 L 344.3 3.9 L 342.3 3.6 C 342.3 3.6 342.4 2.88 342.4 2.9 C 343.4 2.6 344.8 2.3 346.5 2.3 C 346.5 2.3 345.1 10.7 345.1 10.7 C 346.3 8.7 347.6 7.7 349.1 7.7 C 350.6 7.7 351.3 8.5 351.3 9.6 C 351.3 10 351.3 10.3 351.3 10.5 C 351.3 10.5 350.2 16.5 350.2 16.5 C 350.1 16.9 350 17.1 350 17.4 C 350 17.9 350.3 18 351.1 18 C 351.07 17.95 352 18 352 18 C 352 18 351.88 18.72 351.9 18.7 C 351.4 19 350.6 19.3 349.6 19.3 C 348.6 19.3 348.1 18.7 348.1 17.8 C 348.1 17.5 348.1 17 348.2 16.8 Z M 359.6 7.7 C 361.7 7.7 362.6 8.7 362.6 10.1 C 362.6 12.3 360.9 13.5 357 13.5 C 357 13.5 356 13.5 356 13.5 C 355.9 14.2 355.9 14.9 355.9 15.5 C 355.9 17.1 356.8 17.9 357.8 17.9 C 359.2 17.9 360.2 17.2 361.2 15.4 C 361.2 15.4 361.9 15.7 361.9 15.7 C 360.8 18.2 359.3 19.4 357.2 19.4 C 354.9 19.4 353.9 18 353.9 15.4 C 353.9 11.8 355.5 7.7 359.6 7.7 Z M 356.2 12.8 C 356.2 12.8 356.9 12.8 356.9 12.8 C 359.4 12.8 360.6 11.9 360.6 10.2 C 360.6 9.3 360.2 8.6 359.3 8.6 C 357.7 8.6 356.7 10.6 356.2 12.8 Z M 374 2.3 C 374 2.3 372.7 10.5 372.7 10.5 C 373.7 8.6 374.9 7.7 376.5 7.7 C 378.1 7.7 379.1 9 379.1 11.2 C 379.1 15.1 377.3 19.3 373.5 19.3 C 372.5 19.3 371.8 18.9 371.3 18.3 C 370.9 18.7 370.4 19.1 370 19.3 C 369.96 19.3 369.4 19.1 369.4 19.1 L 371.9 3.9 L 369.9 3.6 C 369.9 3.6 369.93 2.88 369.9 2.9 C 370.9 2.6 372.4 2.3 374 2.3 Z M 372.5 11.7 C 372.5 11.7 371.5 17.8 371.5 17.8 C 371.9 18 372.4 18.1 373 18.1 C 375.6 18.1 377.1 14.6 377.1 11.3 C 377.1 9.9 376.6 9.2 375.5 9.2 C 374.4 9.2 373.5 10.2 372.5 11.7 Z M 386.8 7.7 C 389.8 7.7 390.7 9.6 390.7 11.8 C 390.7 15.4 388.9 19.4 385.1 19.4 C 382.1 19.4 381.1 17.5 381.1 15.3 C 381.1 11.7 382.9 7.7 386.8 7.7 Z M 385.1 18.4 C 387.5 18.4 388.7 14.7 388.7 11.6 C 388.7 10 388.1 8.6 386.7 8.6 C 384.4 8.6 383.1 12.4 383.1 15.5 C 383.1 17.1 383.7 18.4 385.1 18.4 Z M 400.7 7.7 C 400.7 7.7 402.1 17 402.1 17 C 404.1 13.9 405.1 11.7 405.2 9.3 C 405.21 9.26 403.6 9 403.6 9 C 403.6 9 403.68 8.26 403.7 8.3 C 404.4 8 405.2 7.8 406 7.8 C 406.9 7.8 407.1 8.4 407.1 9 C 407.1 10.5 406.5 12.9 401.7 19.1 C 401.68 19.1 400.6 19.1 400.6 19.1 C 400.6 19.1 399.79 13.85 399.8 13.8 C 398.9 15.2 397.7 16.9 396 19.1 C 396.02 19.1 395 19.1 395 19.1 L 393.2 9.3 L 391.7 9 C 391.7 9 391.77 8.26 391.8 8.3 C 392.7 8 393.7 7.7 394.9 7.7 C 394.9 7.7 396.5 17.1 396.5 17.1 C 397.9 14.9 398.9 13.2 399.4 11.6 C 399.43 11.64 399 9.3 399 9.3 L 397.6 9 C 397.6 9 397.63 8.26 397.6 8.3 C 398.5 8 399.6 7.7 400.7 7.7 Z M 422 7.7 C 422 7.7 423.4 17 423.4 17 C 425.4 13.9 426.4 11.7 426.5 9.3 C 426.48 9.26 424.9 9 424.9 9 C 424.9 9 424.94 8.26 424.9 8.3 C 425.6 8 426.5 7.8 427.3 7.8 C 428.1 7.8 428.3 8.4 428.3 9 C 428.3 10.5 427.7 12.9 422.9 19.1 C 422.95 19.1 421.9 19.1 421.9 19.1 C 421.9 19.1 421.05 13.85 421.1 13.8 C 420.2 15.2 419 16.9 417.3 19.1 C 417.28 19.1 416.2 19.1 416.2 19.1 L 414.5 9.3 L 413 9 C 413 9 413.04 8.26 413 8.3 C 413.9 8 415 7.7 416.1 7.7 C 416.1 7.7 417.7 17.1 417.7 17.1 C 419.1 14.9 420.2 13.2 420.7 11.6 C 420.69 11.64 420.3 9.3 420.3 9.3 L 418.8 9 C 418.8 9 418.89 8.26 418.9 8.3 C 419.8 8 420.8 7.7 422 7.7 Z M 435 7.7 C 435.9 7.7 436.6 8.1 437.1 8.7 C 437.4 8.3 438 7.9 438.4 7.7 C 438.43 7.68 439.1 7.9 439.1 7.9 C 439.1 7.9 437.71 16.51 437.7 16.5 C 437.7 16.8 437.6 17.1 437.6 17.3 C 437.6 17.9 437.9 18 438.6 18 C 438.62 17.95 439.6 18 439.6 18 C 439.6 18 439.44 18.72 439.4 18.7 C 438.9 19 438.1 19.3 437.2 19.3 C 436.1 19.3 435.7 18.7 435.7 17.7 C 435.7 17.5 435.8 17 435.8 16.8 C 435.8 16.8 435.9 16.2 435.9 16.2 C 434.9 18.3 433.7 19.3 432 19.3 C 430.4 19.3 429.4 18 429.4 15.7 C 429.4 11.9 431.3 7.7 435 7.7 Z M 436 15.2 C 436 15.2 437 9.2 437 9.2 C 436.6 9 436.1 8.8 435.5 8.8 C 432.9 8.8 431.4 12.4 431.4 15.6 C 431.4 17.1 431.9 17.8 433 17.8 C 434 17.8 435 16.8 436 15.2 Z M 440.6 9 C 440.6 9 440.64 8.26 440.6 8.3 C 441.4 8 442.7 7.7 443.7 7.7 C 443.73 7.68 445.3 17.1 445.3 17.1 C 445.3 17.1 446.04 16.03 446 16 C 447.9 13.3 448.6 11.4 448.6 9.3 C 448.63 9.26 447 9 447 9 C 447 9 447.07 8.26 447.1 8.3 C 447.8 8 448.6 7.8 449.4 7.8 C 450.3 7.8 450.5 8.4 450.5 9 C 450.5 10.5 449.9 12.4 446.3 17.2 C 446.32 17.18 444.9 19.1 444.9 19.1 L 443.8 19.1 L 442.1 9.3 L 440.6 9 Z M 457.2 7.7 C 459.2 7.7 460.2 8.7 460.2 10.1 C 460.2 12.3 458.4 13.5 454.6 13.5 C 454.6 13.5 453.6 13.5 453.6 13.5 C 453.5 14.2 453.5 14.9 453.5 15.5 C 453.5 17.1 454.3 17.9 455.4 17.9 C 456.7 17.9 457.7 17.2 458.8 15.4 C 458.8 15.4 459.4 15.7 459.4 15.7 C 458.4 18.2 456.8 19.4 454.8 19.4 C 452.5 19.4 451.4 18 451.4 15.4 C 451.4 11.8 453.1 7.7 457.2 7.7 Z M 453.7 12.8 C 453.7 12.8 454.5 12.8 454.5 12.8 C 457 12.8 458.2 11.9 458.2 10.2 C 458.2 9.3 457.8 8.6 456.9 8.6 C 455.3 8.6 454.2 10.6 453.7 12.8 Z M 461.9 15.7 C 461.85 15.74 463.1 15.7 463.1 15.7 C 463.1 15.7 463.17 18.19 463.2 18.2 C 463.7 18.3 464.1 18.3 464.5 18.3 C 465.8 18.3 466.9 17.7 466.9 16.4 C 466.9 15.2 466 14.9 464.8 14.2 C 464.8 14.2 464 13.7 464 13.7 C 463.1 13.1 462.4 12.3 462.4 11.1 C 462.4 9 463.8 7.7 466.3 7.7 C 467.5 7.7 468.9 8 469.4 8.4 C 469.4 9.4 469.1 10.4 468.8 11.2 C 468.76 11.23 467.5 11.2 467.5 11.2 C 467.5 11.2 467.42 8.76 467.4 8.8 C 467 8.7 466.6 8.6 466.2 8.6 C 464.9 8.6 464 9.3 464 10.6 C 464 11.4 464.7 11.9 465.4 12.3 C 465.4 12.3 466.3 12.8 466.3 12.8 C 467.6 13.5 468.8 14.1 468.8 15.8 C 468.8 18 467.1 19.3 464.4 19.3 C 463.3 19.3 461.8 19 461.2 18.6 C 461.2 17.6 461.5 16.6 461.9 15.7 Z M 481.7 7.7 C 484.6 7.7 485.6 9.6 485.6 11.8 C 485.6 15.4 483.8 19.4 479.9 19.4 C 476.9 19.4 476 17.5 476 15.3 C 476 11.7 477.8 7.7 481.7 7.7 Z M 480 18.4 C 482.3 18.4 483.6 14.7 483.6 11.6 C 483.6 10 483 8.6 481.6 8.6 C 479.3 8.6 478 12.4 478 15.5 C 478 17.1 478.6 18.4 480 18.4 Z M 489.3 7.7 C 489.3 7.7 489.5 7 489.5 7 C 490 3.8 491.4 2.3 494.3 2.3 C 495.3 2.3 496.6 2.4 497.1 2.6 C 497 3.6 496.8 4.3 496.5 5.2 C 496.46 5.18 495 5.2 495 5.2 C 495 5.2 495.02 3.29 495 3.3 C 494.8 3.3 494.6 3.3 494.4 3.3 C 492.9 3.3 491.9 4 491.5 6.4 C 491.47 6.43 491.3 7.9 491.3 7.9 L 493.7 7.9 L 493.5 9.1 L 491.1 9.1 C 491.1 9.1 489.55 18.91 489.5 18.9 C 489.1 22 487.1 23.8 485.2 23.8 C 484.5 23.8 483.9 23.4 483.4 22.9 C 483.4 22.9 483.5 22.1 483.5 22.1 C 483.9 22.2 484.6 22.3 485.1 22.3 C 487 22.3 487.1 22.3 487.6 19.1 C 487.63 19.1 489.1 9.1 489.1 9.1 L 487.2 9.1 C 487.2 9.1 487.39 8.35 487.4 8.4 C 487.8 8.2 488.4 7.9 489.3 7.7 Z M 504 2.3 C 504 2.3 501.7 16.5 501.7 16.5 C 501.7 16.8 501.6 17.1 501.6 17.3 C 501.6 17.9 501.9 18 502.7 18 C 502.65 17.95 503.6 18 503.6 18 C 503.6 18 503.47 18.72 503.5 18.7 C 502.9 19 502.2 19.3 501.2 19.3 C 500.2 19.3 499.7 18.7 499.7 17.7 C 499.7 17.5 499.7 17 499.8 16.8 C 499.77 16.8 501.9 3.9 501.9 3.9 L 499.9 3.6 C 499.9 3.6 499.94 2.88 499.9 2.9 C 500.9 2.6 502.4 2.3 504 2.3 Z M 511 7.7 C 511.9 7.7 512.7 8.1 513.2 8.7 C 513.5 8.3 514 7.9 514.5 7.7 C 514.48 7.68 515.1 7.9 515.1 7.9 C 515.1 7.9 513.76 16.51 513.8 16.5 C 513.7 16.8 513.7 17.1 513.7 17.3 C 513.7 17.9 513.9 18 514.7 18 C 514.68 17.95 515.6 18 515.6 18 C 515.6 18 515.49 18.72 515.5 18.7 C 515 19 514.2 19.3 513.2 19.3 C 512.2 19.3 511.8 18.7 511.8 17.7 C 511.8 17.5 511.8 17 511.9 16.8 C 511.9 16.8 512 16.2 512 16.2 C 511 18.3 509.7 19.3 508.1 19.3 C 506.4 19.3 505.5 18 505.5 15.7 C 505.5 11.9 507.4 7.7 511 7.7 Z M 512.1 15.2 C 512.1 15.2 513 9.2 513 9.2 C 512.6 9 512.1 8.8 511.5 8.8 C 508.9 8.8 507.5 12.4 507.5 15.6 C 507.5 17.1 508 17.8 509 17.8 C 510.1 17.8 511.1 16.8 512.1 15.2 Z M 521.5 7.7 C 521.5 7.7 521 10.8 521 10.8 C 522 8.7 523.1 7.8 524.4 7.8 C 525.1 7.8 525.5 8 525.6 8.2 C 525.6 9.2 525.4 10.4 525 11.2 C 524.97 11.23 523.7 11.2 523.7 11.2 L 523.7 9.2 C 523.7 9.2 523.63 9.22 523.6 9.2 C 522.9 9.2 521.9 10.2 520.8 12.4 C 520.77 12.36 519.7 19.1 519.7 19.1 L 517.8 19.1 L 519.4 9.3 L 517.6 9 C 517.6 9 517.65 8.26 517.7 8.3 C 518.6 8 519.9 7.7 521.5 7.7 Z M 527.9 18.6 C 527.4 18.3 527 17.9 527 17.1 C 527 16.4 527.6 15.5 528.9 15 C 527.5 14.4 526.8 13.3 526.8 12 C 526.8 9.3 529 7.7 531.4 7.7 C 532.5 7.7 533.3 7.9 533.9 8.4 C 534.5 7.9 535.6 7.6 536.9 7.6 C 536.9 8.2 536.8 8.6 536.5 9.1 C 536.5 9.1 534.7 9.1 534.7 9.1 C 535.1 9.6 535.3 10.3 535.3 10.9 C 535.3 13.6 533.1 15.3 530.7 15.3 C 530.3 15.3 529.9 15.2 529.6 15.2 C 529 15.6 528.6 16 528.6 16.4 C 528.6 16.9 528.8 17.1 529.5 17.2 C 529.5 17.2 532.3 17.4 532.3 17.4 C 534.4 17.5 535.3 18.1 535.3 19.6 C 535.3 21.7 533 23.8 529.2 23.8 C 526.4 23.8 525 22.9 525 21.3 C 525 19.9 526.2 19 527.9 18.6 Z M 533.3 10.9 C 533.3 9.6 532.7 8.6 531.4 8.6 C 529.8 8.6 528.8 9.9 528.8 12 C 528.8 13.3 529.4 14.3 530.7 14.3 C 532.3 14.3 533.3 13.1 533.3 10.9 Z M 526.9 20.8 C 526.9 22.1 527.9 22.8 529.5 22.8 C 532 22.8 533.5 21.8 533.5 20.4 C 533.5 19.5 533.2 19.1 531.7 19 C 531.7 19 528.6 18.8 528.6 18.8 C 527.4 19.3 526.9 20 526.9 20.8 Z M 542.9 7.7 C 544.9 7.7 545.9 8.7 545.9 10.1 C 545.9 12.3 544.1 13.5 540.3 13.5 C 540.3 13.5 539.3 13.5 539.3 13.5 C 539.2 14.2 539.1 14.9 539.1 15.5 C 539.1 17.1 540 17.9 541.1 17.9 C 542.4 17.9 543.4 17.2 544.5 15.4 C 544.5 15.4 545.1 15.7 545.1 15.7 C 544.1 18.2 542.5 19.4 540.5 19.4 C 538.2 19.4 537.1 18 537.1 15.4 C 537.1 11.8 538.7 7.7 542.9 7.7 Z M 539.4 12.8 C 539.4 12.8 540.2 12.8 540.2 12.8 C 542.7 12.8 543.8 11.9 543.8 10.2 C 543.8 9.3 543.5 8.6 542.6 8.6 C 541 8.6 539.9 10.6 539.4 12.8 Z M 557.2 2.3 C 557.2 2.3 555.9 10.5 555.9 10.5 C 556.9 8.6 558.1 7.7 559.7 7.7 C 561.4 7.7 562.3 9 562.3 11.2 C 562.3 15.1 560.5 19.3 556.7 19.3 C 555.8 19.3 555 18.9 554.5 18.3 C 554.1 18.7 553.7 19.1 553.2 19.3 C 553.2 19.3 552.6 19.1 552.6 19.1 L 555.1 3.9 L 553.1 3.6 C 553.1 3.6 553.17 2.88 553.2 2.9 C 554.2 2.6 555.6 2.3 557.2 2.3 Z M 555.7 11.7 C 555.7 11.7 554.8 17.8 554.8 17.8 C 555.2 18 555.7 18.1 556.3 18.1 C 558.9 18.1 560.3 14.6 560.3 11.3 C 560.3 9.9 559.8 9.2 558.8 9.2 C 557.7 9.2 556.7 10.2 555.7 11.7 Z M 570 7.7 C 573 7.7 574 9.6 574 11.8 C 574 15.4 572.1 19.4 568.3 19.4 C 565.3 19.4 564.4 17.5 564.4 15.3 C 564.4 11.7 566.2 7.7 570 7.7 Z M 568.4 18.4 C 570.7 18.4 571.9 14.7 571.9 11.6 C 571.9 10 571.4 8.6 569.9 8.6 C 567.6 8.6 566.4 12.4 566.4 15.5 C 566.4 17.1 566.9 18.4 568.4 18.4 Z M 581.6 7.7 C 582.5 7.7 583.2 8.1 583.7 8.7 C 584 8.3 584.6 7.9 585 7.7 C 585.02 7.68 585.6 7.9 585.6 7.9 C 585.6 7.9 584.3 16.51 584.3 16.5 C 584.3 16.8 584.2 17.1 584.2 17.3 C 584.2 17.9 584.4 18 585.2 18 C 585.21 17.95 586.2 18 586.2 18 C 586.2 18 586.03 18.72 586 18.7 C 585.5 19 584.7 19.3 583.8 19.3 C 582.7 19.3 582.3 18.7 582.3 17.7 C 582.3 17.5 582.4 17 582.4 16.8 C 582.4 16.8 582.5 16.2 582.5 16.2 C 581.5 18.3 580.2 19.3 578.6 19.3 C 577 19.3 576 18 576 15.7 C 576 11.9 577.9 7.7 581.6 7.7 Z M 582.6 15.2 C 582.6 15.2 583.6 9.2 583.6 9.2 C 583.2 9 582.6 8.8 582 8.8 C 579.5 8.8 578 12.4 578 15.6 C 578 17.1 578.5 17.8 579.5 17.8 C 580.6 17.8 581.6 16.8 582.6 15.2 Z M 590 7.7 C 590 7.7 590.5 5.8 590.5 5.8 C 590.9 5.7 591.6 5.6 592.2 5.6 C 592.2 5.57 591.8 7.9 591.8 7.9 L 594.7 7.9 L 594.5 9.1 L 591.6 9.1 C 591.6 9.1 590.61 15.55 590.6 15.6 C 590.5 16 590.5 16.4 590.5 16.8 C 590.5 17.4 590.7 17.9 591.3 17.9 C 592.2 17.9 593.2 16.6 593.7 15.4 C 593.7 15.4 594.4 15.6 594.4 15.6 C 593.6 17.9 592.3 19.3 590.6 19.3 C 589.2 19.3 588.5 18.6 588.5 17.2 C 588.5 16.9 588.5 16.6 588.6 16.2 C 588.6 16.22 589.7 9.1 589.7 9.1 L 587.8 9.1 C 587.8 9.1 587.97 8.35 588 8.4 C 588.4 8.2 589 7.8 590 7.7 Z M 596.4 15.7 C 596.42 15.74 597.7 15.7 597.7 15.7 C 597.7 15.7 597.74 18.19 597.7 18.2 C 598.2 18.3 598.7 18.3 599.1 18.3 C 600.4 18.3 601.5 17.7 601.5 16.4 C 601.5 15.2 600.6 14.9 599.4 14.2 C 599.4 14.2 598.5 13.7 598.5 13.7 C 597.6 13.1 596.9 12.3 596.9 11.1 C 596.9 9 598.3 7.7 600.9 7.7 C 602 7.7 603.4 8 604 8.4 C 604 9.4 603.7 10.4 603.3 11.2 C 603.33 11.23 602.1 11.2 602.1 11.2 C 602.1 11.2 601.99 8.76 602 8.8 C 601.6 8.7 601.1 8.6 600.8 8.6 C 599.4 8.6 598.6 9.3 598.6 10.6 C 598.6 11.4 599.3 11.9 600 12.3 C 600 12.3 600.9 12.8 600.9 12.8 C 602.1 13.5 603.3 14.1 603.3 15.8 C 603.3 18 601.7 19.3 599 19.3 C 597.9 19.3 596.3 19 595.7 18.6 C 595.7 17.6 596 16.6 596.4 15.7 Z M 605.8 18 C 605.8 16.9 606.5 16.2 607.4 16.2 C 608.2 16.2 608.7 16.7 608.7 17.6 C 608.7 18.7 608 19.4 607.2 19.4 C 606.3 19.4 605.8 18.9 605.8 18 Z " stroke="none" fill="#fff"/>  </g>  <g id="Polygon14202">    <path d="M 472.1 47.9 C 472.1 47.9 474 35 474 35 C 473.3 34.9 472.7 34.8 472.1 34.6 C 472.15 34.61 472.3 33.7 472.3 33.7 L 478 33.7 C 478 33.7 477.86 34.61 477.9 34.6 C 477.3 34.8 476.9 34.9 476.1 35 C 476.1 35 474.2 47.9 474.2 47.9 C 474.9 47.9 475.6 48 476.1 48.2 C 476.08 48.24 475.9 49.1 475.9 49.1 L 470.1 49.1 C 470.1 49.1 470.28 48.24 470.3 48.2 C 470.8 48.1 471.3 47.9 472.1 47.9 Z M 478.7 45.7 C 478.72 45.74 480 45.7 480 45.7 C 480 45.7 480.04 48.19 480 48.2 C 480.5 48.3 481 48.3 481.4 48.3 C 482.7 48.3 483.8 47.7 483.8 46.4 C 483.8 45.2 482.9 44.9 481.7 44.2 C 481.7 44.2 480.8 43.7 480.8 43.7 C 479.9 43.1 479.2 42.3 479.2 41.1 C 479.2 39 480.6 37.7 483.2 37.7 C 484.3 37.7 485.7 38 486.3 38.4 C 486.3 39.4 486 40.4 485.6 41.2 C 485.64 41.23 484.4 41.2 484.4 41.2 C 484.4 41.2 484.29 38.76 484.3 38.8 C 483.9 38.7 483.4 38.6 483.1 38.6 C 481.7 38.6 480.9 39.3 480.9 40.6 C 480.9 41.4 481.6 41.9 482.3 42.3 C 482.3 42.3 483.2 42.8 483.2 42.8 C 484.4 43.5 485.6 44.1 485.6 45.8 C 485.6 48 484 49.3 481.3 49.3 C 480.2 49.3 478.6 49 478.1 48.6 C 478.1 47.6 478.3 46.6 478.7 45.7 Z M 492.5 32.3 C 492.5 32.3 490.2 46.5 490.2 46.5 C 490.1 46.8 490.1 47.1 490.1 47.3 C 490.1 47.9 490.3 48 491.1 48 C 491.11 47.95 492.1 48 492.1 48 C 492.1 48 491.92 48.72 491.9 48.7 C 491.4 49 490.6 49.3 489.7 49.3 C 488.6 49.3 488.1 48.7 488.1 47.7 C 488.1 47.5 488.2 47 488.2 46.8 C 488.23 46.8 490.3 33.9 490.3 33.9 L 488.3 33.6 C 488.3 33.6 488.4 32.88 488.4 32.9 C 489.4 32.6 490.8 32.3 492.5 32.3 Z M 499.5 37.7 C 500.4 37.7 501.1 38.1 501.6 38.7 C 502 38.3 502.5 37.9 502.9 37.7 C 502.94 37.68 503.6 37.9 503.6 37.9 C 503.6 37.9 502.22 46.51 502.2 46.5 C 502.2 46.8 502.1 47.1 502.1 47.3 C 502.1 47.9 502.4 48 503.1 48 C 503.13 47.95 504.1 48 504.1 48 C 504.1 48 503.95 48.72 503.9 48.7 C 503.4 49 502.7 49.3 501.7 49.3 C 500.6 49.3 500.3 48.7 500.3 47.7 C 500.3 47.5 500.3 47 500.3 46.8 C 500.3 46.8 500.4 46.2 500.4 46.2 C 499.4 48.3 498.2 49.3 496.5 49.3 C 494.9 49.3 493.9 48 493.9 45.7 C 493.9 41.9 495.8 37.7 499.5 37.7 Z M 500.5 45.2 C 500.5 45.2 501.5 39.2 501.5 39.2 C 501.1 39 500.6 38.8 500 38.8 C 497.4 38.8 495.9 42.4 495.9 45.6 C 495.9 47.1 496.4 47.8 497.5 47.8 C 498.5 47.8 499.5 46.8 500.5 45.2 Z M 510 37.7 C 510 37.7 509.5 40.7 509.5 40.7 C 510.7 38.7 511.9 37.7 513.5 37.7 C 515 37.7 515.7 38.5 515.7 39.6 C 515.7 40 515.7 40.3 515.6 40.5 C 515.6 40.5 514.5 46.5 514.5 46.5 C 514.5 46.9 514.4 47.1 514.4 47.4 C 514.4 47.9 514.7 48 515.4 48 C 515.44 47.95 516.4 48 516.4 48 C 516.4 48 516.26 48.72 516.3 48.7 C 515.7 49 515 49.3 514 49.3 C 512.9 49.3 512.5 48.7 512.5 47.8 C 512.5 47.5 512.5 47 512.6 46.8 C 512.6 46.8 513.6 41 513.6 41 C 513.7 40.8 513.7 40.5 513.7 40.2 C 513.7 39.6 513.4 39.2 512.7 39.2 C 511.8 39.2 510.8 39.9 509.3 41.9 C 509.3 41.88 508.1 49.1 508.1 49.1 L 506.2 49.1 L 507.8 39.3 L 506 39 C 506 39 506.11 38.26 506.1 38.3 C 507.1 38 508.3 37.7 510 37.7 Z M 528.9 32.3 C 528.9 32.3 526.7 46.5 526.7 46.5 C 526.6 46.8 526.6 47.1 526.6 47.3 C 526.6 47.9 526.8 48 527.6 48 C 527.56 47.95 528.5 48 528.5 48 C 528.5 48 528.38 48.72 528.4 48.7 C 527.9 49 527.1 49.3 526.1 49.3 C 525.1 49.3 524.7 48.7 524.7 47.7 C 524.7 47.5 524.7 47 524.8 46.8 C 524.8 46.8 524.9 46.2 524.9 46.2 C 523.8 48.3 522.6 49.3 520.9 49.3 C 519.3 49.3 518.3 48 518.3 45.7 C 518.3 41.9 520.3 37.7 523.9 37.7 C 524.8 37.7 525.5 38 526 38.6 C 526.03 38.59 526.8 33.9 526.8 33.9 L 524.8 33.6 C 524.8 33.6 524.85 32.88 524.9 32.9 C 525.8 32.6 527.3 32.3 528.9 32.3 Z M 524.9 45.2 C 524.9 45.2 525.9 39.2 525.9 39.2 C 525.5 39 525 38.8 524.4 38.8 C 521.8 38.8 520.4 42.4 520.4 45.6 C 520.4 47.1 520.8 47.8 521.9 47.8 C 523 47.8 524 46.8 524.9 45.2 Z M 536.2 47.9 C 536.2 47.9 538.1 35 538.1 35 C 537.4 34.9 536.8 34.8 536.3 34.6 C 536.25 34.61 536.4 33.7 536.4 33.7 C 536.4 33.7 547.48 33.74 547.5 33.7 C 547.5 35 547.4 36.3 546.9 37.8 C 546.91 37.78 545.9 37.8 545.9 37.8 L 545.7 34.9 L 540.3 34.9 L 539.3 40.8 C 539.3 40.8 542.64 40.85 542.6 40.8 C 542.8 40.3 543 39.6 543.3 39.1 C 543.3 39.1 544.3 39.1 544.3 39.1 C 544.3 40.8 544 42.8 543.6 44.2 C 543.6 44.2 542.6 44.2 542.6 44.2 C 542.5 43.5 542.5 42.7 542.5 42 C 542.49 42 539.2 42 539.2 42 L 538.2 48 L 543.7 48 L 545.2 45.1 C 545.2 45.1 546.33 45.07 546.3 45.1 C 546.3 46.1 545.9 48 545.4 49.1 C 545.37 49.1 534.2 49.1 534.2 49.1 C 534.2 49.1 534.38 48.24 534.4 48.2 C 534.9 48.1 535.4 47.9 536.2 47.9 Z M 551.9 37.7 C 551.92 37.68 553.3 42.2 553.3 42.2 C 553.3 42.2 555.86 38.06 555.9 38.1 C 556.8 37.9 557.3 37.9 558.2 37.9 C 558.2 37.9 558 38.7 558 38.7 C 557.8 38.9 557.4 39.1 556.9 39.2 C 556.92 39.22 553.7 43.3 553.7 43.3 C 553.7 43.3 555 46.8 555 46.8 C 555.3 47.8 555.5 48 556.3 48 C 556.34 47.95 557.2 48 557.2 48 C 557.2 48 557.11 48.72 557.1 48.7 C 556.6 49 556.1 49.3 555.3 49.3 C 554.3 49.3 553.7 48.8 553.3 47.6 C 553.27 47.57 552.4 44.8 552.4 44.8 L 549.7 49.1 L 547.4 49.1 C 547.4 49.1 547.56 48.24 547.6 48.2 C 547.8 48.1 548.3 47.9 548.9 47.8 C 548.85 47.78 552 43.7 552 43.7 L 550.5 39.3 L 548.8 39 C 548.8 39 548.83 38.26 548.8 38.3 C 549.6 38 550.9 37.7 551.9 37.7 Z M 563 37.7 C 563 37.7 562.5 40.5 562.5 40.5 C 563.5 38.6 564.7 37.7 566.3 37.7 C 568 37.7 568.9 39 568.9 41.2 C 568.9 45.1 567.1 49.3 563.4 49.3 C 562.5 49.3 561.8 49 561.3 48.4 C 561.3 48.4 560.6 52.5 560.6 52.5 C 561.5 52.5 562.2 52.7 562.8 52.8 C 562.8 52.85 562.7 53.6 562.7 53.6 L 556.9 53.6 C 556.9 53.6 557.08 52.85 557.1 52.8 C 557.6 52.7 558 52.5 558.7 52.5 C 558.67 52.46 560.9 39.3 560.9 39.3 L 559.1 39 C 559.1 39 559.12 38.26 559.1 38.3 C 560.1 38 561.4 37.7 563 37.7 Z M 562.3 41.8 C 562.3 41.8 561.4 47.8 561.4 47.8 C 561.8 48 562.3 48.1 562.9 48.1 C 565.5 48.1 566.9 44.6 566.9 41.3 C 566.9 39.9 566.4 39.2 565.4 39.2 C 564.3 39.2 563.3 40.2 562.3 41.8 Z M 575.3 32.3 C 575.3 32.3 573 46.5 573 46.5 C 573 46.8 572.9 47.1 572.9 47.3 C 572.9 47.9 573.2 48 574 48 C 573.96 47.95 574.9 48 574.9 48 C 574.9 48 574.77 48.72 574.8 48.7 C 574.2 49 573.5 49.3 572.5 49.3 C 571.5 49.3 571 48.7 571 47.7 C 571 47.5 571 47 571.1 46.8 C 571.08 46.8 573.2 33.9 573.2 33.9 L 571.2 33.6 C 571.2 33.6 571.24 32.88 571.2 32.9 C 572.2 32.6 573.7 32.3 575.3 32.3 Z M 582.3 37.7 C 585.3 37.7 586.3 39.6 586.3 41.8 C 586.3 45.4 584.4 49.4 580.6 49.4 C 577.6 49.4 576.7 47.5 576.7 45.3 C 576.7 41.7 578.5 37.7 582.3 37.7 Z M 580.7 48.4 C 583 48.4 584.3 44.7 584.3 41.6 C 584.3 40 583.7 38.6 582.2 38.6 C 579.9 38.6 578.7 42.4 578.7 45.5 C 578.7 47.1 579.3 48.4 580.7 48.4 Z M 592.2 37.7 C 592.2 37.7 591.7 40.8 591.7 40.8 C 592.7 38.7 593.9 37.8 595.1 37.8 C 595.8 37.8 596.2 38 596.4 38.2 C 596.4 39.2 596.1 40.4 595.7 41.2 C 595.7 41.23 594.5 41.2 594.5 41.2 L 594.4 39.2 C 594.4 39.2 594.36 39.22 594.4 39.2 C 593.6 39.2 592.7 40.2 591.5 42.4 C 591.5 42.36 590.4 49.1 590.4 49.1 L 588.5 49.1 L 590.1 39.3 L 588.3 39 C 588.3 39 588.38 38.26 588.4 38.3 C 589.4 38 590.6 37.7 592.2 37.7 Z M 602.6 37.7 C 604.7 37.7 605.6 38.7 605.6 40.1 C 605.6 42.3 603.9 43.5 600 43.5 C 600 43.5 599 43.5 599 43.5 C 598.9 44.2 598.9 44.9 598.9 45.5 C 598.9 47.1 599.8 47.9 600.8 47.9 C 602.2 47.9 603.2 47.2 604.2 45.4 C 604.2 45.4 604.9 45.7 604.9 45.7 C 603.8 48.2 602.3 49.4 600.2 49.4 C 597.9 49.4 596.9 48 596.9 45.4 C 596.9 41.8 598.5 37.7 602.6 37.7 Z M 599.2 42.8 C 599.2 42.8 599.9 42.8 599.9 42.8 C 602.4 42.8 603.6 41.9 603.6 40.2 C 603.6 39.3 603.2 38.6 602.3 38.6 C 600.7 38.6 599.7 40.6 599.2 42.8 Z M 611.2 37.7 C 611.2 37.7 610.7 40.8 610.7 40.8 C 611.7 38.7 612.8 37.8 614.1 37.8 C 614.8 37.8 615.1 38 615.3 38.2 C 615.3 39.2 615 40.4 614.7 41.2 C 614.66 41.23 613.4 41.2 613.4 41.2 L 613.3 39.2 C 613.3 39.2 613.32 39.22 613.3 39.2 C 612.6 39.2 611.6 40.2 610.5 42.4 C 610.46 42.36 609.4 49.1 609.4 49.1 L 607.5 49.1 L 609.1 39.3 L 607.3 39 C 607.3 39 607.34 38.26 607.3 38.3 C 608.3 38 609.6 37.7 611.2 37.7 Z " stroke="none" fill="#fff"/>  </g></svg>