<?xml version="1.0" standalone="no"?><!DOCTYPE svg PUBLIC "-//W3C//DTD SVG 1.1//EN" "http://www.w3.org/Graphics/SVG/1.1/DTD/svg11.dtd"><svg xmlns="http://www.w3.org/2000/svg" version="1.1" width="195.5px" height="54px" viewBox="0 0 195.5 54"><desc>Hiking</desc><defs/><g id="Polygon11261"><path d="m43.5 19.2l0 4.2l4 0l0-4.2l2.5 0l0 10.8l-2.5 0l0-4.5l-4 0l0 4.5l-2.4 0l0-10.8l2.4 0zm8.5 10.8l0-7.8l2.5 0l0 7.8l-2.5 0zm2.6-10c0 .7-.5 1.2-1.4 1.2c-.7 0-1.2-.5-1.2-1.2c0-.7.5-1.2 1.3-1.2c.8 0 1.2.5 1.3 1.2zm4.3 5.5c0 0 0-.03 0 0c.2-.4.4-.7.6-1c-.04.03 1.5-2.3 1.5-2.3l3 0l-2.8 3.1l3.2 4.7l-3 0l-1.9-3.2l-.6.8l0 2.4l-2.5 0l0-11.4l2.5 0l0 6.9zm6.4 4.5l0-7.8l2.4 0l0 7.8l-2.4 0zm2.5-10c0 .7-.5 1.2-1.3 1.2c-.8 0-1.3-.5-1.3-1.2c0-.7.5-1.2 1.3-1.2c.8 0 1.3.5 1.3 1.2zm1.8 4.7c0-1 0-1.8 0-2.5c-.02-.02 2.1 0 2.1 0l.1 1.1c0 0 .06-.04.1 0c.3-.5 1.1-1.3 2.4-1.3c1.6 0 2.8 1.1 2.8 3.4c-.03-.02 0 4.6 0 4.6l-2.5 0c0 0 .04-4.34 0-4.3c0-1-.3-1.7-1.2-1.7c-.7 0-1.1.4-1.2.9c-.1.1-.1.4-.1.6c-.02-.01 0 4.5 0 4.5l-2.5 0c0 0 .05-5.33 0-5.3zm16.8 4.2c0 1.5-.3 2.7-1.2 3.5c-.8.7-2 .9-3.1.9c-1.1 0-2.1-.2-2.9-.5c0 0 .5-1.9.5-1.9c.5.3 1.4.6 2.3.6c1.2 0 2-.6 2-2.1c.03.02 0-.5 0-.5c0 0 0 .03 0 0c-.5.7-1.2 1-2.1 1c-1.9 0-3.3-1.5-3.3-3.8c0-2.5 1.6-4.1 3.5-4.1c1.1 0 1.8.5 2.2 1.1c-.03.02 0 0 0 0l.1-.9c0 0 2.1-.02 2.1 0c0 .5-.1 1.1-.1 2.3c0 0 0 4.4 0 4.4zm-2.4-3.5c0-.2 0-.3 0-.5c-.2-.6-.7-1.1-1.4-1.1c-.9 0-1.6.8-1.6 2.3c0 1.1.6 2 1.6 2c.7 0 1.2-.4 1.3-.9c.1-.2.1-.5.1-.7c0 0 0-1.1 0-1.1z" stroke="none" fill="#fff"/></g></svg>