<?xml version="1.0" standalone="no"?><!DOCTYPE svg PUBLIC "-//W3C//DTD SVG 1.1//EN" "http://www.w3.org/Graphics/SVG/1.1/DTD/svg11.dtd"><svg xmlns="http://www.w3.org/2000/svg" version="1.1" width="428px" height="329.1px" viewBox="0 0 428 329.1"><desc>Im dolorescipid quaepeditate prorro et ad maio dem facillab ilibusa percimi, odi cum velis moluptam rat quam alicte q</desc><defs/><g id="Polygon12208"><path d="m.2 293.6c.04.01 0-1 0-1l6.2 0c0 0 .02 1.01 0 1c-.6.3-1.3.4-2.1.5c0 0 3.5 9.4 3.5 9.4c0 0 3.62-9.4 3.6-9.4c-.7-.1-1.4-.2-1.9-.5c-.05.01 0-1 0-1l5.2 0c0 0-.04 1.01 0 1c-.5.2-.8.3-1.3.4c-.04.04-5.3 12.8-5.3 12.8l-1.6 0c0 0-4.99-12.76-5-12.8c-.5-.1-.8-.2-1.3-.4zm21.9-1.2c4.1 0 6.4 2.4 6.4 7.3c0 4.6-2.9 7.4-6.8 7.4c-4.2 0-6.3-2.4-6.3-7.3c0-4.8 2.6-7.4 6.7-7.4zm3.5 7.5c0-4.1-1.3-6.2-3.7-6.2c-2.2 0-3.6 1.6-3.6 5.7c0 4.4 1.3 6.3 3.6 6.3c2.3 0 3.7-1.5 3.7-5.8zm6.6 5.5c.03-.04 0-17.7 0-17.7l-2-.5c0 0-.03-.98 0-1c1.1-.3 2.8-.6 4.7-.6c0 0 0 19.8 0 19.8c.8 0 1.6.2 2.2.4c-.02.05 0 1 0 1l-7.1 0c0 0 .05-.95 0-1c.7-.2 1.4-.4 2.2-.4zm6.1-11.4c0 0-.01-.99 0-1c1.1-.4 2.8-.6 4.7-.6c0 0 0 10.1 0 10.1c0 1.9.7 2.7 2.7 2.7c1.6 0 2.9-.5 3.7-1.4c.03.02 0-9.3 0-9.3l-2-.5c0 0-.03-.99 0-1c1.1-.4 2.8-.6 4.7-.6c0 0 0 12.7 0 12.7l2.1.5c0 0-.04.86 0 .9c-1.1.3-2.8.6-4.8.6c0 0 0-2.4 0-2.4c-.9 1.6-2.7 2.5-4.8 2.5c-2.6 0-4.3-1.5-4.3-4.1c.05-.04 0-8.6 0-8.6l-2-.5zm19.9 17.1c-.04-.04 0-16.6 0-16.6l-2.1-.5c0 0 0-.99 0-1c1.1-.4 2.8-.6 4.7-.6c0 0 0 2.6 0 2.6c.8-1.6 2.7-2.7 4.5-2.7c3.3 0 5.5 2.4 5.5 6.9c0 5-2.9 8-6.8 8c-1.2 0-2.4-.4-3.2-1c0 0 0 4.9 0 4.9c1.1 0 1.8.2 2.6.4c-.03.04 0 1 0 1l-7.4 0c0 0-.02-.96 0-1c.6-.2 1.3-.4 2.2-.4zm2.6-15.2c0 0 0 9.4 0 9.4c.7.2 1.4.3 2.3.3c2.9 0 4.9-2.2 4.9-6.1c0-3.7-1.5-5.3-3.8-5.3c-1.4 0-2.7.7-3.4 1.7zm14.4-8.5c0-.5.1-.9.2-1.2c.4-.1.8-.1 1.3-.1c.5 0 .9 0 1.3.1c.1.3.1.7.1 1.2c0 1-.1 1.6-.2 2.1c-.4.1-.8.1-1.2.1c-.4 0-.9 0-1.2-.1c-.1-.5-.3-1.1-.3-2.1zm0 18c.04-.04 0-10.9 0-10.9l-2-.5c0 0-.02-.99 0-1c1.1-.4 2.8-.6 4.7-.6c0 0 0 13 0 13c.9 0 1.6.2 2.2.4c-.01.05 0 1 0 1l-7 0c0 0-.04-.95 0-1c.6-.2 1.3-.4 2.1-.4zm13-13c3.4 0 5.3 1.8 5.3 5.2c0 .6 0 .9-.1 1.6c.02-.01-9.1 0-9.1 0c0 0 .03.23 0 .2c0 4.1 2.1 5.7 4.6 5.7c1.6 0 2.8-.7 3.8-1.8c0 0 .6.5.6.5c-1 1.9-2.7 3.3-5.2 3.3c-3.7 0-6.6-2.2-6.6-7.3c0-4.7 3.1-7.4 6.7-7.4zm-3.8 5.5c.02-.05 6.5 0 6.5 0c0 0-.03-.53 0-.5c0-2.6-1.1-3.7-2.8-3.7c-1.8 0-3.3 1.2-3.7 4.2zm13.4 7.5c-.02-.04 0-10.9 0-10.9l-2.1-.5c0 0 .02-.99 0-1c1.1-.4 2.8-.6 4.7-.6c0 0 0 2.3 0 2.3c.9-1.5 2.8-2.4 4.9-2.4c2.5 0 4.2 1.4 4.2 4.1c0 0 0 9 0 9c.9 0 1.6.2 2.2.4c.01.05 0 1 0 1l-7 0c0 0-.02-.95 0-1c.6-.2 1.3-.4 2.2-.4c0 0 0-8.4 0-8.4c0-1.8-1-2.7-2.9-2.7c-1.4 0-2.7.5-3.6 1.4c0 0 0 9.7 0 9.7c.9 0 1.6.2 2.2.4c.02.05 0 1 0 1l-7 0c0 0 0-.95 0-1c.6-.2 1.3-.4 2.2-.4zm17.5-12.8c0 0 .2-2.9.2-2.9c.6-.1 1.6-.2 2.4-.2c-.01-.01 0 3.1 0 3.1l3.6 0l0 1.6l-3.7 0c0 0-.03 8.98 0 9c0 1.6.6 2 1.7 2c.7 0 1.3-.2 2-.9c0 0 .6.5.6.5c-.9 1.6-2.2 2.3-3.7 2.3c-2.1 0-3.4-1.1-3.3-3.6c0 .05.1-9.3.1-9.3l-2.2 0c0 0 .04-.95 0-1c.4-.1 1.3-.4 2.3-.6zm22.2 6.3c0 0 0-2.5 0-2.5c0-1.8-1-2.5-2.8-2.5c-.6 0-1.2 0-1.9.1c-.04.04-.6 3-.6 3c0 0-1.53 0-1.5 0c-.2-.6-.3-1.4-.3-2.2c0-.3 0-.7.1-.9c1.3-1.1 3.4-1.5 5.3-1.5c2.9 0 4.4 1.2 4.4 3.5c0 1.7-.1 6.4-.1 9.3c-.04-.05 2 .4 2 .4c0 0 .02.86 0 .9c-1.1.3-2.6.6-4.6.6c0 0 0-2.5 0-2.5c-.8 1.5-2.3 2.5-4 2.5c-2.5 0-4-1.3-4-3.7c0-3.5 3.2-4.2 8-4.5zm0 5c0 0 0-4 0-4c-3.6.3-5.3.9-5.3 3c0 1.7.9 2.5 2.4 2.5c1.2 0 2.3-.7 2.9-1.5zm13.6-1.4c-.01-.04 1.6 0 1.6 0c0 0 .39 3.08.4 3.1c.7.2 1.3.2 2 .2c1.8 0 3.3-.8 3.3-2.5c0-1.3-1-1.9-2.6-2.4c0 0-1.7-.5-1.7-.5c-2.2-.6-3.3-1.9-3.3-4c0-2.6 2.2-4.1 5.1-4.1c1.9 0 3.7.5 4.4.9c0 0 0 .4 0 .4c0 1-.2 2.3-.5 3.3c.01-.02-1.6 0-1.6 0c0 0-.36-3.02-.4-3c-.6-.2-1.3-.3-1.9-.3c-1.7 0-2.8.7-2.8 2.2c0 1.4.7 2 2.1 2.4c0 0 1.7.5 1.7.5c2.5.7 3.9 1.7 3.9 4.1c0 2.6-2.3 4.4-5.7 4.4c-1.8 0-3.8-.5-4.5-1c0 0 0-.4 0-.4c0-1 .2-2.4.5-3.3zm11.4-8.5c0 0-.02-.99 0-1c1.1-.4 2.8-.6 4.7-.6c0 0 0 10.1 0 10.1c0 1.9.7 2.7 2.7 2.7c1.6 0 2.9-.5 3.7-1.4c.02.02 0-9.3 0-9.3l-2-.5c0 0-.04-.99 0-1c1.1-.4 2.7-.6 4.7-.6c-.01 0 0 12.7 0 12.7l2 .5c0 0 .05.86 0 .9c-1 .3-2.7.6-4.7.6c0 0 0-2.4 0-2.4c-.9 1.6-2.7 2.5-4.8 2.5c-2.6 0-4.3-1.5-4.3-4.1c.04-.04 0-8.6 0-8.6l-2-.5zm37.7 11.4c0 0 0-8.4 0-8.4c0-1.8-.9-2.7-2.7-2.7c-1.4 0-2.7.5-3.5 1.4c0 0 0 9.7 0 9.7c.8 0 1.6.2 2.2.4c-.04.05 0 1 0 1l-7.1 0c0 0 .03-.95 0-1c.6-.2 1.4-.4 2.2-.4c0 0 0-8.4 0-8.4c0-1.8-.8-2.7-2.7-2.7c-1.3 0-2.6.5-3.5 1.4c0 0 0 9.7 0 9.7c.9 0 1.6.2 2.2.4c.01.05 0 1 0 1l-7 0c0 0-.01-.95 0-1c.6-.2 1.3-.4 2.2-.4c-.03-.04 0-10.9 0-10.9l-2.1-.5c0 0 .01-.99 0-1c1.1-.4 2.8-.6 4.7-.6c0 0 0 2.3 0 2.3c.9-1.5 2.8-2.4 4.9-2.4c2 0 3.3.9 3.7 2.6c1-1.5 2.8-2.6 5.1-2.6c2.6 0 4 1.4 4 4.1c0 0 0 9 0 9c.9 0 1.6.2 2.2.4c0 .05 0 1 0 1l-7 0c0 0-.02-.95 0-1c.6-.2 1.3-.4 2.2-.4zm19.6-13c3.4 0 5.3 1.8 5.3 5.2c0 .6 0 .9-.1 1.6c-.01-.01-9.1 0-9.1 0c0 0 .01.23 0 .2c0 4.1 2.1 5.7 4.6 5.7c1.6 0 2.8-.7 3.8-1.8c0 0 .6.5.6.5c-1 1.9-2.7 3.3-5.2 3.3c-3.7 0-6.6-2.2-6.6-7.3c0-4.7 3-7.4 6.7-7.4zm-3.8 5.5c0-.05 6.4 0 6.4 0c0 0 .05-.53 0-.5c0-2.6-1-3.7-2.7-3.7c-1.8 0-3.3 1.2-3.7 4.2zm11.5 7.4c.04.03 4.5-5.5 4.5-5.5c0 0-4.55-5.73-4.6-5.7c-.4-.2-.9-.3-1.3-.5c-.02.01 0-1 0-1l6.5 0c0 0 .03 1.01 0 1c-.6.2-1.3.4-1.9.5c-.04-.03 3.1 4.3 3.1 4.3c0 0 3.04-4.18 3-4.2c-.7-.1-1.5-.3-2.1-.6c-.01.01 0-1 0-1l5.7 0c0 0-.02 1.01 0 1c-.4.3-1 .4-1.5.6c0-.01-4.2 5.3-4.2 5.3c0 0 4.65 5.89 4.7 5.9c.5.1.8.3 1.3.4c.05.05 0 1 0 1l-6.5 0c0 0 0-.95 0-1c.6-.1 1.2-.3 1.9-.4c-.02-.01-3.2-4.5-3.2-4.5c0 0-3.06 4.34-3.1 4.3c.8.2 1.4.4 2 .6c-.02.05 0 1 0 1l-5.7 0c0 0-.02-.95 0-1c.4-.1.9-.3 1.4-.5zm16.3 5.8c-.03-.04 0-16.6 0-16.6l-2.1-.5c0 0 .01-.99 0-1c1.1-.4 2.8-.6 4.7-.6c0 0 0 2.6 0 2.6c.8-1.6 2.7-2.7 4.5-2.7c3.3 0 5.5 2.4 5.5 6.9c0 5-2.9 8-6.8 8c-1.2 0-2.4-.4-3.2-1c0 0 0 4.9 0 4.9c1.1 0 1.9.2 2.6.4c-.02.04 0 1 0 1l-7.4 0c0 0-.01-.96 0-1c.6-.2 1.3-.4 2.2-.4zm2.6-15.2c0 0 0 9.4 0 9.4c.7.2 1.4.3 2.3.3c2.9 0 4.9-2.2 4.9-6.1c0-3.7-1.5-5.3-3.8-5.3c-1.4 0-2.6.7-3.4 1.7zm13.9 9.5c-.05-.04 0-17.7 0-17.7l-2.1-.5c0 0-.01-.98 0-1c1.1-.3 2.8-.6 4.7-.6c0 0 0 19.8 0 19.8c.9 0 1.6.2 2.2.4c0 .05 0 1 0 1l-7 0c0 0-.03-.95 0-1c.6-.2 1.3-.4 2.2-.4zm14.7-6.5c0 0 0-2.5 0-2.5c0-1.8-.9-2.5-2.8-2.5c-.6 0-1.2 0-1.9.1c-.02.04-.5 3-.5 3c0 0-1.61 0-1.6 0c-.2-.6-.3-1.4-.3-2.2c0-.3 0-.7.1-.9c1.3-1.1 3.4-1.5 5.3-1.5c2.9 0 4.4 1.2 4.4 3.5c0 1.7-.1 6.4-.1 9.3c-.02-.05 2 .4 2 .4c0 0 .04.86 0 .9c-1.1.3-2.6.6-4.6.6c0 0 0-2.5 0-2.5c-.8 1.5-2.2 2.5-4 2.5c-2.4 0-4-1.3-4-3.7c0-3.5 3.2-4.2 8-4.5zm0 5c0 0 0-4 0-4c-3.5.3-5.3.9-5.3 3c0 1.7.9 2.5 2.4 2.5c1.2 0 2.3-.7 2.9-1.5zm13.6-11.5c1.6 0 3.2.5 3.9 1c0 1.1-.2 2.5-.5 3.6c0 0-1.6 0-1.6 0c0 0-.4-3.12-.4-3.1c-.5-.1-1.1-.2-1.5-.2c-2.2 0-4.1 1.6-4.1 5.7c0 3.8 1.8 5.7 4.2 5.7c1.6 0 2.7-.7 3.6-1.8c0 0 .6.5.6.5c-.9 1.9-2.5 3.3-5 3.3c-3.7 0-6.2-2.6-6.2-7.3c0-4.9 3-7.4 7-7.4zm8.2-5c0-.5.1-.9.2-1.2c.4-.1.8-.1 1.3-.1c.5 0 .9 0 1.3.1c.1.3.1.7.1 1.2c0 1-.1 1.6-.2 2.1c-.4.1-.8.1-1.2.1c-.4 0-.9 0-1.2-.1c-.1-.5-.3-1.1-.3-2.1zm0 18c.04-.04 0-10.9 0-10.9l-2-.5c0 0-.02-.99 0-1c1.1-.4 2.8-.6 4.7-.6c0 0 0 13 0 13c.9 0 1.6.2 2.2.4c-.01.05 0 1 0 1l-7 0c0 0-.04-.95 0-1c.6-.2 1.3-.4 2.1-.4zm8.3-12.8c0 0 .2-2.9.2-2.9c.6-.1 1.7-.2 2.4-.2c.05-.01 0 3.1 0 3.1l3.7 0l0 1.6l-3.7 0c0 0-.07 8.98-.1 9c0 1.6.6 2 1.7 2c.8 0 1.3-.2 2.1-.9c0 0 .6.5.6.5c-.9 1.6-2.3 2.3-3.8 2.3c-2.1 0-3.3-1.1-3.2-3.6c-.04.05.1-9.3.1-9.3l-2.2 0c0 0 0-.95 0-1c.4-.1 1.2-.4 2.2-.6zm15-.2c3.4 0 5.3 1.8 5.3 5.2c0 .6 0 .9-.1 1.6c.01-.01-9.1 0-9.1 0c0 0 .03.23 0 .2c0 4.1 2.1 5.7 4.6 5.7c1.6 0 2.8-.7 3.8-1.8c0 0 .6.5.6.5c-1 1.9-2.7 3.3-5.2 3.3c-3.7 0-6.6-2.2-6.6-7.3c0-4.7 3.1-7.4 6.7-7.4zm-3.8 5.5c.02-.05 6.5 0 6.5 0c0 0-.03-.53 0-.5c0-2.6-1.1-3.7-2.8-3.7c-1.8 0-3.3 1.2-3.7 4.2zm31.1 7.5c0 0 0-8.4 0-8.4c0-1.8-.9-2.7-2.7-2.7c-1.4 0-2.7.5-3.5 1.4c0 0 0 9.7 0 9.7c.8 0 1.6.2 2.2.4c-.03.05 0 1 0 1l-7.1 0c0 0 .04-.95 0-1c.6-.2 1.4-.4 2.2-.4c0 0 0-8.4 0-8.4c0-1.8-.8-2.7-2.6-2.7c-1.4 0-2.7.5-3.6 1.4c0 0 0 9.7 0 9.7c.9 0 1.6.2 2.2.4c.02.05 0 1 0 1l-7 0c0 0 0-.95 0-1c.6-.2 1.3-.4 2.2-.4c-.02-.04 0-10.9 0-10.9l-2.1-.5c0 0 .02-.99 0-1c1.1-.4 2.8-.6 4.7-.6c0 0 0 2.3 0 2.3c.9-1.5 2.8-2.4 4.9-2.4c2 0 3.3.9 3.7 2.6c1-1.5 2.8-2.6 5.1-2.6c2.6 0 4 1.4 4 4.1c0 0 0 9 0 9c.9 0 1.6.2 2.2.4c.01.05 0 1 0 1l-7 0c0 0-.02-.95 0-1c.6-.2 1.3-.4 2.2-.4zm7.4-.3c0-1.3.7-2.2 2-2.2c1.3 0 2 .9 2 2.2c0 1.2-.7 2.1-2 2.1c-1.3 0-2-.9-2-2.1z" stroke="none" fill="#404040"/></g><g id="Polygon12207"><path d="m2.7 257.2c0 0 .2-2.8.2-2.8c.6-.1 1.7-.2 2.4-.2c.03-.05 0 3.1 0 3.1l3.7 0l0 1.6l-3.7 0c0 0-.09 8.95-.1 8.9c0 1.6.6 2.1 1.7 2.1c.8 0 1.3-.3 2.1-1c0 0 .6.5.6.5c-.9 1.6-2.3 2.3-3.8 2.3c-2.1 0-3.3-1-3.3-3.5c.04.01.2-9.3.2-9.3l-2.2 0c0 0-.02-.99 0-1c.4-.1 1.2-.4 2.2-.7zm15-.1c3.4 0 5.3 1.8 5.3 5.2c0 .6 0 .8-.1 1.5c0 .05-9.1 0-9.1 0c0 0 .01.29 0 .3c0 4.1 2.1 5.7 4.6 5.7c1.6 0 2.8-.7 3.8-1.8c0 0 .6.5.6.5c-1 1.9-2.7 3.2-5.2 3.2c-3.7 0-6.6-2.2-6.6-7.2c0-4.8 3.1-7.4 6.7-7.4zm-3.8 5.4c0 .01 6.5 0 6.5 0c0 0-.05-.47 0-.5c0-2.5-1.1-3.6-2.8-3.6c-1.8 0-3.3 1.2-3.7 4.1zm13.4 7.5c-.04.03 0-10.9 0-10.9l-2.1-.5c0 0 0-.93 0-.9c1.1-.4 2.8-.6 4.7-.6c0 0 0 2.3 0 2.3c.9-1.6 2.8-2.5 4.9-2.5c2.5 0 4.2 1.5 4.2 4.2c0 0 0 8.9 0 8.9c.9.1 1.6.3 2.2.5c-.01.01 0 1 0 1l-7 0c0 0-.03-.99 0-1c.6-.2 1.3-.4 2.1-.5c0 0 0-8.3 0-8.3c0-1.9-.9-2.7-2.9-2.7c-1.4 0-2.6.5-3.5 1.3c0 0 0 9.7 0 9.7c.9.1 1.6.3 2.2.5c.01.01 0 1 0 1l-7 0c0 0-.02-.99 0-1c.6-.2 1.3-.4 2.2-.5zm22.7-13.1c1.4 0 2.5.5 3.1 1.1c.03.03 0-5.7 0-5.7l-2.4-.4c0 0 .01-1.02 0-1c1.1-.4 3.2-.6 5.1-.6c-.01-.02 0 19.5 0 19.5l2.1.5c0 0-.05.82 0 .8c-1.1.4-2.8.6-4.8.6c0 0 0-2.6 0-2.6c-.8 1.7-2.4 2.7-4.2 2.7c-3.4 0-5.7-2.6-5.7-7.1c0-4.9 2.9-7.8 6.8-7.8zm3.1 11.4c0 0 0-9.5 0-9.5c-.6-.1-1.3-.3-2.3-.3c-2.9 0-4.8 2.1-4.8 5.8c0 3.8 1.4 5.6 3.9 5.6c1.3 0 2.5-.6 3.2-1.6zm8.9-16.2c0-.5 0-.9.1-1.2c.4-.1.8-.1 1.3-.1c.5 0 .9 0 1.4.1c0 .3.1.7.1 1.2c0 1-.1 1.6-.3 2.1c-.3 0-.8.1-1.2.1c-.3 0-.8-.1-1.2-.1c-.1-.5-.2-1.1-.2-2.1zm0 17.9c-.03.03 0-10.9 0-10.9l-2.1-.5c0 0 .01-.93 0-.9c1.1-.4 2.8-.6 4.7-.6c0 0 0 12.9 0 12.9c.9.1 1.6.3 2.2.5c.02.01 0 1 0 1l-7 0c0 0-.01-.99 0-1c.6-.2 1.3-.4 2.2-.5zm12.9-12.9c4.2 0 6.5 2.3 6.5 7.2c0 4.7-2.9 7.4-6.8 7.4c-4.2 0-6.3-2.4-6.3-7.2c0-4.8 2.6-7.4 6.6-7.4zm3.6 7.5c0-4.2-1.3-6.2-3.7-6.2c-2.2 0-3.6 1.5-3.6 5.7c0 4.4 1.3 6.3 3.6 6.3c2.3 0 3.7-1.6 3.7-5.8zm5.8 2.5c-.03.02 1.5 0 1.5 0c0 0 .47 3.14.5 3.1c.6.2 1.3.3 2 .3c1.8 0 3.2-.8 3.2-2.5c0-1.4-.9-2-2.5-2.5c0 0-1.7-.4-1.7-.4c-2.2-.7-3.3-1.9-3.3-4c0-2.6 2.2-4.2 5.1-4.2c1.8 0 3.6.5 4.4 1c0 0 0 .4 0 .4c-.1 1-.2 2.3-.5 3.2c-.01.04-1.6 0-1.6 0c0 0-.38-2.95-.4-3c-.6-.1-1.3-.2-1.9-.2c-1.7 0-2.8.7-2.8 2.2c0 1.4.7 2 2.1 2.4c0 0 1.7.5 1.7.5c2.5.7 3.9 1.7 3.9 4.1c0 2.5-2.3 4.3-5.7 4.3c-1.9 0-3.8-.4-4.5-.9c0 0 0-.4 0-.4c0-1 .2-2.4.5-3.4zm12.6 0c-.03.02 1.5 0 1.5 0c0 0 .47 3.14.5 3.1c.6.2 1.3.3 2 .3c1.8 0 3.2-.8 3.2-2.5c0-1.4-.9-2-2.5-2.5c0 0-1.7-.4-1.7-.4c-2.2-.7-3.3-1.9-3.3-4c0-2.6 2.2-4.2 5.1-4.2c1.8 0 3.6.5 4.4 1c0 0 0 .4 0 .4c-.1 1-.2 2.3-.5 3.2c-.01.04-1.6 0-1.6 0c0 0-.38-2.95-.4-3c-.6-.1-1.3-.2-1.9-.2c-1.7 0-2.8.7-2.8 2.2c0 1.4.7 2 2.1 2.4c0 0 1.7.5 1.7.5c2.5.7 3.9 1.7 3.9 4.1c0 2.5-2.3 4.3-5.7 4.3c-1.9 0-3.8-.4-4.5-.9c0 0 0-.4 0-.4c0-1 .2-2.4.5-3.4zm14-15c0-.5.1-.9.1-1.2c.5-.1.9-.1 1.4-.1c.5 0 .9 0 1.3.1c.1.3.1.7.1 1.2c0 1-.1 1.6-.2 2.1c-.4 0-.9.1-1.2.1c-.4 0-.9-.1-1.2-.1c-.2-.5-.3-1.1-.3-2.1zm0 17.9c.02.03 0-10.9 0-10.9l-2-.5c0 0-.04-.93 0-.9c1.1-.4 2.7-.6 4.7-.6c0 0 0 12.9 0 12.9c.8.1 1.6.3 2.2.5c-.03.01 0 1 0 1l-7.1 0c0 0 .04-.99 0-1c.6-.2 1.4-.4 2.2-.5zm8.7 0c.05.03 0-10.9 0-10.9l-2-.5c0 0-.01-.93 0-.9c1.1-.4 2.8-.6 4.7-.6c0 0 0 2.3 0 2.3c.9-1.6 2.7-2.5 4.9-2.5c2.5 0 4.2 1.5 4.2 4.2c0 0 0 8.9 0 8.9c.8.1 1.6.3 2.2.5c-.02.01 0 1 0 1l-7 0c0 0-.05-.99 0-1c.6-.2 1.3-.4 2.1-.5c0 0 0-8.3 0-8.3c0-1.9-.9-2.7-2.9-2.7c-1.4 0-2.6.5-3.5 1.3c0 0 0 9.7 0 9.7c.9.1 1.6.3 2.2.5c-.01.01 0 1 0 1l-7 0c0 0-.04-.99 0-1c.6-.2 1.3-.4 2.1-.5zm24 0c.03.03 0-10.9 0-10.9l-2-.5c0 0-.02-.93 0-.9c1.1-.4 2.8-.6 4.7-.6c0 0 0 2.3 0 2.3c.9-1.6 2.7-2.5 4.8-2.5c2.6 0 4.3 1.5 4.3 4.2c0 0 0 8.9 0 8.9c.8.1 1.6.3 2.2.5c-.03.01 0 1 0 1l-7.1 0c0 0 .04-.99 0-1c.6-.2 1.4-.4 2.2-.5c0 0 0-8.3 0-8.3c0-1.9-.9-2.7-2.9-2.7c-1.4 0-2.7.5-3.5 1.3c0 0 0 9.7 0 9.7c.8.1 1.6.3 2.2.5c-.02.01 0 1 0 1l-7 0c0 0-.05-.99 0-1c.6-.2 1.3-.4 2.1-.5zm22.5-12.9c3.4 0 5.3 1.8 5.3 5.2c0 .6 0 .8-.1 1.5c.02.05-9.1 0-9.1 0c0 0 .03.29 0 .3c0 4.1 2.1 5.7 4.6 5.7c1.6 0 2.8-.7 3.8-1.8c0 0 .6.5.6.5c-1 1.9-2.7 3.2-5.2 3.2c-3.6 0-6.6-2.2-6.6-7.2c0-4.8 3.1-7.4 6.7-7.4zm-3.8 5.4c.02.01 6.5 0 6.5 0c0 0-.02-.47 0-.5c0-2.5-1.1-3.6-2.8-3.6c-1.8 0-3.3 1.2-3.7 4.1zm13.2-5.3c0 0 .2-2.8.2-2.8c.6-.1 1.6-.2 2.4-.2c0-.05 0 3.1 0 3.1l3.6 0l0 1.6l-3.7 0c0 0-.02 8.95 0 8.9c0 1.6.6 2.1 1.7 2.1c.7 0 1.3-.3 2-1c0 0 .6.5.6.5c-.9 1.6-2.2 2.3-3.7 2.3c-2.1 0-3.3-1-3.3-3.5c.02.01.1-9.3.1-9.3l-2.1 0c0 0-.04-.99 0-1c.4-.1 1.2-.4 2.2-.7zm21-.1c4.2 0 6.4 2.3 6.4 7.2c0 4.7-2.8 7.4-6.7 7.4c-4.2 0-6.3-2.4-6.3-7.2c0-4.8 2.6-7.4 6.6-7.4zm3.5 7.5c0-4.2-1.2-6.2-3.6-6.2c-2.2 0-3.6 1.5-3.6 5.7c0 4.4 1.3 6.3 3.6 6.3c2.2 0 3.6-1.6 3.6-5.8zm12.6-7.5c1.6 0 3.2.4 3.9.9c0 1.1-.1 2.6-.5 3.7c.03-.03-1.5 0-1.5 0c0 0-.47-3.15-.5-3.2c-.5 0-1-.1-1.5-.1c-2.2 0-4.1 1.6-4.1 5.7c0 3.7 1.8 5.7 4.2 5.7c1.6 0 2.7-.7 3.7-1.8c0 0 .6.5.6.5c-1 1.9-2.6 3.2-5.1 3.2c-3.6 0-6.2-2.5-6.2-7.2c0-4.9 3-7.4 7-7.4zm13.2 0c1.6 0 3.2.4 3.9.9c0 1.1-.1 2.6-.5 3.7c.03-.03-1.5 0-1.5 0c0 0-.47-3.15-.5-3.2c-.5 0-1-.1-1.5-.1c-2.2 0-4.1 1.6-4.1 5.7c0 3.7 1.8 5.7 4.2 5.7c1.6 0 2.7-.7 3.7-1.8c0 0 .6.5.6.5c-1 1.9-2.6 3.2-5.1 3.2c-3.6 0-6.2-2.5-6.2-7.2c0-4.9 3-7.4 7-7.4zm14.3 6.4c0 0 0-2.4 0-2.4c0-1.9-.9-2.6-2.7-2.6c-.7 0-1.3.1-2 .2c-.02 0-.5 3-.5 3c0 0-1.61-.03-1.6 0c-.2-.6-.3-1.5-.3-2.2c0-.4 0-.7.1-1c1.3-1 3.4-1.4 5.3-1.4c2.9 0 4.4 1.2 4.4 3.5c0 1.6-.1 6.4-.1 9.2c-.02.01 2 .5 2 .5c0 0 .04.82 0 .8c-1 .4-2.6.6-4.6.6c0 0 0-2.4 0-2.4c-.7 1.5-2.2 2.4-4 2.4c-2.4 0-4-1.3-4-3.6c0-3.5 3.2-4.3 8-4.6zm0 5c0 0 0-3.9 0-3.9c-3.5.2-5.3.9-5.3 3c0 1.6.9 2.4 2.4 2.4c1.2 0 2.3-.6 2.9-1.5zm13.2-11.4c3.4 0 5.4 1.8 5.4 5.2c0 .6 0 .8-.1 1.5c-.05.05-9.1 0-9.1 0c0 0-.03.29 0 .3c0 4.1 2 5.7 4.6 5.7c1.5 0 2.8-.7 3.7-1.8c0 0 .6.5.6.5c-.9 1.9-2.6 3.2-5.2 3.2c-3.6 0-6.5-2.2-6.5-7.2c0-4.8 3-7.4 6.6-7.4zm-3.7 5.4c-.04.01 6.4 0 6.4 0c0 0 .01-.47 0-.5c0-2.5-1.1-3.6-2.8-3.6c-1.8 0-3.3 1.2-3.6 4.1zm25.6 1c0 0 0-2.4 0-2.4c0-1.9-1-2.6-2.8-2.6c-.6 0-1.3.1-2 .2c0 0-.5 3-.5 3c0 0-1.59-.03-1.6 0c-.2-.6-.3-1.5-.3-2.2c0-.4 0-.7.1-1c1.4-1 3.4-1.4 5.4-1.4c2.9 0 4.3 1.2 4.3 3.5c0 1.6-.1 6.4-.1 9.2c0 .01 2.1.5 2.1.5c0 0-.04.82 0 .8c-1.1.4-2.7.6-4.6.6c0 0 0-2.4 0-2.4c-.8 1.5-2.3 2.4-4 2.4c-2.5 0-4-1.3-4-3.6c0-3.5 3.1-4.3 8-4.6zm0 5c0 0 0-3.9 0-3.9c-3.6.2-5.4.9-5.4 3c0 1.6.9 2.4 2.4 2.4c1.2 0 2.3-.6 3-1.5zm5.9-9.9c0 0-.01-.93 0-.9c1.1-.4 2.8-.6 4.7-.6c0 0 0 10 0 10c0 2 .7 2.8 2.7 2.8c1.6 0 2.9-.5 3.7-1.4c.04-.02 0-9.4 0-9.4l-2-.5c0 0-.02-.93 0-.9c1.1-.4 2.8-.6 4.7-.6c0-.04 0 12.7 0 12.7l2.1.5c0 0-.04.82 0 .8c-1.1.4-2.8.6-4.8.6c0 0 0-2.3 0-2.3c-.9 1.6-2.7 2.4-4.8 2.4c-2.6 0-4.3-1.4-4.3-4.1c.05.02 0-8.6 0-8.6l-2-.5zm19.6-1.4c0 0 .1-2.8.1-2.8c.6-.1 1.7-.2 2.5-.2c-.04-.05-.1 3.1-.1 3.1l3.7 0l0 1.6l-3.7 0c0 0-.06 8.95-.1 8.9c0 1.6.6 2.1 1.7 2.1c.8 0 1.3-.3 2.1-1c0 0 .6.5.6.5c-.9 1.6-2.2 2.3-3.8 2.3c-2.1 0-3.3-1-3.2-3.5c-.02.01.1-9.3.1-9.3l-2.2 0c0 0 .02-.99 0-1c.4-.1 1.2-.4 2.3-.7zm14.9-.1c3.4 0 5.4 1.8 5.4 5.2c0 .6 0 .8-.2 1.5c.03.05-9.1 0-9.1 0c0 0 .04.29 0 .3c0 4.1 2.1 5.7 4.6 5.7c1.6 0 2.8-.7 3.8-1.8c0 0 .6.5.6.5c-1 1.9-2.7 3.2-5.2 3.2c-3.6 0-6.5-2.2-6.5-7.2c0-4.8 3-7.4 6.6-7.4zm-3.8 5.4c.03.01 6.5 0 6.5 0c0 0-.01-.47 0-.5c0-2.5-1.1-3.6-2.8-3.6c-1.8 0-3.3 1.2-3.7 4.1z" stroke="none" fill="#404040"/></g><g id="Polygon12206"><path d="m8.2 221.7c1.6 0 3.2.5 3.9 1c0 1.1-.1 2.6-.5 3.6c.03.03-1.5 0-1.5 0c0 0-.47-3.09-.5-3.1c-.5-.1-1-.1-1.5-.1c-2.2 0-4.1 1.5-4.1 5.7c0 3.7 1.8 5.6 4.2 5.6c1.6 0 2.7-.7 3.7-1.8c0 0 .6.5.6.5c-1 2-2.6 3.3-5.1 3.3c-3.6 0-6.2-2.6-6.2-7.3c0-4.8 3-7.4 7-7.4zm6.1 1.6c0 0 0-.97 0-1c1.1-.3 2.8-.6 4.7-.6c0 0 0 10.1 0 10.1c0 1.9.7 2.8 2.7 2.8c1.6 0 2.9-.6 3.7-1.5c.04.04 0-9.3 0-9.3l-2-.5c0 0-.02-.97 0-1c1.1-.3 2.8-.6 4.7-.6c.01.02 0 12.7 0 12.7l2.1.5c0 0-.03.88 0 .9c-1.1.3-2.8.6-4.8.6c0 0 0-2.3 0-2.3c-.9 1.5-2.7 2.4-4.8 2.4c-2.5 0-4.2-1.4-4.2-4.1c-.04-.01 0-8.6 0-8.6l-2.1-.5zm18.8 8.5c-.02-.02 1.6 0 1.6 0c0 0 .38 3.1.4 3.1c.6.2 1.3.3 2 .3c1.8 0 3.2-.9 3.2-2.6c0-1.3-.9-1.9-2.5-2.4c0 0-1.7-.5-1.7-.5c-2.2-.6-3.3-1.9-3.3-4c0-2.6 2.2-4.1 5.1-4.1c1.8 0 3.7.5 4.4 1c0 0 0 .3 0 .3c0 1.1-.2 2.4-.5 3.3c0 .01-1.6 0-1.6 0c0 0-.37-2.99-.4-3c-.6-.1-1.3-.3-1.9-.3c-1.7 0-2.8.8-2.8 2.2c0 1.5.7 2 2.1 2.4c0 0 1.7.5 1.7.5c2.5.8 3.9 1.7 3.9 4.1c0 2.6-2.3 4.4-5.7 4.4c-1.8 0-3.8-.5-4.5-1c0 0 0-.3 0-.3c0-1.1.2-2.5.5-3.4zm20.2-3.6c0 0 0-2.5 0-2.5c0-1.8-1-2.5-2.8-2.5c-.6 0-1.2 0-1.9.2c-.05-.04-.6 2.9-.6 2.9c0 0-1.54.03-1.5 0c-.2-.6-.3-1.4-.3-2.2c0-.3 0-.7.1-.9c1.3-1.1 3.3-1.5 5.3-1.5c2.9 0 4.4 1.2 4.4 3.5c0 1.7-.1 6.4-.1 9.3c-.05-.02 2 .4 2 .4c0 0 .01.88 0 .9c-1.1.3-2.7.6-4.6.6c0 0 0-2.4 0-2.4c-.8 1.4-2.3 2.4-4 2.4c-2.5 0-4-1.3-4-3.7c0-3.4 3.2-4.2 8-4.5zm0 5c0 0 0-4 0-4c-3.6.3-5.3.9-5.3 3.1c0 1.6.9 2.4 2.4 2.4c1.2 0 2.3-.6 2.9-1.5zm8.2 7.2c.05-.02 0-16.6 0-16.6l-2-.5c0 0-.01-.97 0-1c1.1-.3 2.8-.6 4.7-.6c0 0 0 2.7 0 2.7c.8-1.7 2.6-2.8 4.5-2.8c3.3 0 5.4 2.4 5.4 6.9c0 5-2.9 8-6.7 8c-1.2 0-2.4-.4-3.2-1c0 0 0 4.9 0 4.9c1.1 0 1.8.2 2.6.5c-.04-.03 0 .9 0 .9l-7.4 0c0 0-.03-.93 0-.9c.6-.3 1.3-.5 2.1-.5zm2.7-15.2c0 0 0 9.4 0 9.4c.7.2 1.4.3 2.3.3c2.9 0 4.9-2.2 4.9-6c0-3.8-1.5-5.4-3.8-5.4c-1.4 0-2.7.7-3.4 1.7zm14.4-8.4c0-.5.1-1 .2-1.3c.4 0 .8-.1 1.3-.1c.5 0 .9.1 1.3.1c.1.3.1.8.1 1.3c0 .9-.1 1.5-.2 2c-.4.1-.9.1-1.2.1c-.4 0-.9 0-1.2-.1c-.1-.5-.3-1.1-.3-2zm0 17.9c.03-.01 0-10.9 0-10.9l-2-.5c0 0-.03-.97 0-1c1.1-.3 2.8-.6 4.7-.6c0 0 0 13 0 13c.8 0 1.6.2 2.2.5c-.02-.03 0 .9 0 .9l-7 0c0 0-.05-.93 0-.9c.6-.3 1.3-.5 2.1-.5zm13.4-13c1.5 0 3.1.5 3.8 1c0 1.1-.1 2.6-.4 3.6c-.05.03-1.6 0-1.6 0c0 0-.45-3.09-.4-3.1c-.6-.1-1.1-.1-1.6-.1c-2.1 0-4.1 1.5-4.1 5.7c0 3.7 1.8 5.6 4.3 5.6c1.5 0 2.6-.7 3.6-1.8c0 0 .6.5.6.5c-1 2-2.5 3.3-5.1 3.3c-3.6 0-6.2-2.6-6.2-7.3c0-4.8 3.1-7.4 7.1-7.4zm7.9.2c0 0 .2-2.8.2-2.8c.6-.2 1.6-.3 2.4-.3c0 .02 0 3.2 0 3.2l3.6 0l0 1.5l-3.7 0c0 0-.02 9.01 0 9c0 1.6.6 2.1 1.7 2.1c.7 0 1.3-.3 2-1c0 0 .6.5.6.5c-.9 1.6-2.2 2.3-3.7 2.3c-2.1 0-3.3-1-3.3-3.5c.01-.03.1-9.4.1-9.4l-2.1 0c0 0-.05-.93 0-.9c.3-.2 1.2-.5 2.2-.7zm15-.2c3.4 0 5.3 1.8 5.3 5.2c0 .6 0 .9-.1 1.6c-.03.01-9.1 0-9.1 0c0 0-.02.25 0 .3c0 4.1 2 5.6 4.6 5.6c1.6 0 2.8-.7 3.7-1.8c0 0 .6.5.6.5c-.9 2-2.6 3.3-5.2 3.3c-3.6 0-6.5-2.2-6.5-7.3c0-4.7 3-7.4 6.7-7.4zm-3.8 5.5c-.03-.02 6.4 0 6.4 0c0 0 .02-.51 0-.5c0-2.6-1.1-3.6-2.8-3.6c-1.7 0-3.3 1.1-3.6 4.1zm31 7.5c0 0 0-8.4 0-8.4c0-1.8-.8-2.6-2.6-2.6c-1.4 0-2.7.4-3.6 1.3c0 0 0 9.7 0 9.7c.9 0 1.6.2 2.2.5c.02-.03 0 .9 0 .9l-7 0c0 0-.01-.93 0-.9c.6-.3 1.3-.5 2.2-.5c0 0 0-8.4 0-8.4c0-1.8-.9-2.6-2.7-2.6c-1.4 0-2.7.4-3.5 1.3c0 0 0 9.7 0 9.7c.8 0 1.6.2 2.2.5c-.02-.03 0 .9 0 .9l-7.1 0c0 0 .05-.93 0-.9c.7-.3 1.4-.5 2.2-.5c.03-.01 0-10.9 0-10.9l-2-.5c0 0-.03-.97 0-1c1.1-.3 2.8-.6 4.7-.6c0 0 0 2.4 0 2.4c.9-1.6 2.7-2.5 4.8-2.5c2.1 0 3.3.9 3.8 2.6c1-1.5 2.8-2.6 5.1-2.6c2.5 0 4 1.5 4 4.1c0 0 0 9 0 9c.8 0 1.6.2 2.2.5c-.03-.03 0 .9 0 .9l-7.1 0c0 0 .04-.93 0-.9c.6-.3 1.4-.5 2.2-.5zm19.9-13.1c1.4 0 2.5.5 3.1 1.1c.04-.01 0-5.7 0-5.7l-2.4-.5c0 0 .02-.96 0-1c1.1-.3 3.2-.6 5.1-.6c.01.04 0 19.5 0 19.5l2.1.5c0 0-.03.88 0 .9c-1.1.3-2.8.6-4.8.6c0 0 0-2.7 0-2.7c-.7 1.7-2.4 2.8-4.2 2.8c-3.4 0-5.7-2.7-5.7-7.1c0-4.9 2.9-7.8 6.8-7.8zm3.1 11.3c0 0 0-9.4 0-9.4c-.6-.2-1.3-.3-2.3-.3c-2.9 0-4.8 2-4.8 5.8c0 3.7 1.4 5.6 3.9 5.6c1.3 0 2.5-.7 3.2-1.7zm13.1-11.2c3.4 0 5.4 1.8 5.4 5.2c0 .6 0 .9-.2 1.6c.04.01-9.1 0-9.1 0c0 0 .05.25 0 .3c0 4.1 2.1 5.6 4.7 5.6c1.5 0 2.7-.7 3.7-1.8c0 0 .6.5.6.5c-1 2-2.7 3.3-5.2 3.3c-3.6 0-6.5-2.2-6.5-7.3c0-4.7 3-7.4 6.6-7.4zm-3.8 5.5c.04-.02 6.5 0 6.5 0c0 0-.01-.51 0-.5c0-2.6-1.1-3.6-2.8-3.6c-1.8 0-3.3 1.1-3.7 4.1zm13.4 7.5c0-.01 0-10.9 0-10.9l-2.1-.5c0 0 .04-.97 0-1c1.1-.3 2.8-.6 4.8-.6c0 0 0 2.4 0 2.4c.8-1.6 2.7-2.5 4.8-2.5c2.6 0 4.2 1.5 4.2 4.1c0 0 0 9 0 9c.9 0 1.6.2 2.2.5c.03-.03 0 .9 0 .9l-7 0c0 0 0-.93 0-.9c.6-.3 1.3-.5 2.2-.5c0 0 0-8.4 0-8.4c0-1.8-1-2.6-2.9-2.6c-1.4 0-2.7.4-3.5 1.3c0 0 0 9.7 0 9.7c.8 0 1.5.2 2.1.5c.04-.03 0 .9 0 .9l-7 0c0 0 .02-.93 0-.9c.6-.3 1.3-.5 2.2-.5zm22.7-13.1c1.5 0 2.5.5 3.2 1.1c-.04-.01 0-5.7 0-5.7l-2.5-.5c0 0 .04-.96 0-1c1.1-.3 3.2-.6 5.1-.6c.03.04 0 19.5 0 19.5l2.1.5c0 0-.01.88 0 .9c-1.1.3-2.8.6-4.7.6c0 0 0-2.7 0-2.7c-.8 1.7-2.4 2.8-4.3 2.8c-3.4 0-5.7-2.7-5.7-7.1c0-4.9 2.9-7.8 6.8-7.8zm3.2 11.3c0 0 0-9.4 0-9.4c-.7-.2-1.4-.3-2.3-.3c-2.9 0-4.9 2-4.9 5.8c0 3.7 1.5 5.6 3.9 5.6c1.4 0 2.5-.7 3.3-1.7zm13.1-11.2c3.3 0 5.3 1.8 5.3 5.2c0 .6 0 .9-.1 1.6c-.04.01-9.1 0-9.1 0c0 0-.03.25 0 .3c0 4.1 2 5.6 4.6 5.6c1.6 0 2.8-.7 3.7-1.8c0 0 .6.5.6.5c-.9 2-2.6 3.3-5.2 3.3c-3.6 0-6.5-2.2-6.5-7.3c0-4.7 3-7.4 6.7-7.4zm-3.8 5.5c-.04-.02 6.4 0 6.4 0c0 0 .02-.51 0-.5c0-2.6-1.1-3.6-2.8-3.6c-1.8 0-3.3 1.1-3.6 4.1zm12.1 4.6c.01-.02 1.6 0 1.6 0c0 0 .41 3.1.4 3.1c.7.2 1.4.3 2 .3c1.8 0 3.3-.9 3.3-2.6c0-1.3-.9-1.9-2.6-2.4c0 0-1.7-.5-1.7-.5c-2.1-.6-3.3-1.9-3.3-4c0-2.6 2.2-4.1 5.2-4.1c1.8 0 3.6.5 4.3 1c0 0 0 .3 0 .3c0 1.1-.2 2.4-.5 3.3c.03.01-1.5 0-1.5 0c0 0-.43-2.99-.4-3c-.7-.1-1.3-.3-1.9-.3c-1.7 0-2.9.8-2.9 2.2c0 1.5.8 2 2.1 2.4c0 0 1.7.5 1.7.5c2.5.8 3.9 1.7 3.9 4.1c0 2.6-2.3 4.4-5.7 4.4c-1.8 0-3.7-.5-4.5-1c0 0 0-.3 0-.3c.1-1.1.2-2.5.5-3.4zm13.5-9.9c0 0 .2-2.8.2-2.8c.6-.2 1.7-.3 2.4-.3c.02.02 0 3.2 0 3.2l3.7 0l0 1.5l-3.7 0c0 0-.1 9.01-.1 9c0 1.6.6 2.1 1.7 2.1c.8 0 1.3-.3 2.1-1c0 0 .6.5.6.5c-.9 1.6-2.3 2.3-3.8 2.3c-2.1 0-3.3-1-3.3-3.5c.04-.03.2-9.4.2-9.4l-2.2 0c0 0-.02-.93 0-.9c.4-.2 1.2-.5 2.2-.7zm10.3-5.1c0-.5 0-1 .1-1.3c.4 0 .8-.1 1.3-.1c.5 0 .9.1 1.3.1c.1.3.2.8.2 1.3c0 .9-.2 1.5-.3 2c-.3.1-.8.1-1.2.1c-.4 0-.8 0-1.2-.1c-.1-.5-.2-1.1-.2-2zm0 17.9c-.04-.01 0-10.9 0-10.9l-2.1-.5c0 0 0-.97 0-1c1.1-.3 2.8-.6 4.7-.6c0 0 0 13 0 13c.9 0 1.6.2 2.2.5c0-.03 0 .9 0 .9l-7 0c0 0-.02-.93 0-.9c.6-.3 1.3-.5 2.2-.5zm7.2-2.9c.03-.02 1.6 0 1.6 0c0 0 .43 3.1.4 3.1c.7.2 1.4.3 2 .3c1.8 0 3.3-.9 3.3-2.6c0-1.3-.9-1.9-2.5-2.4c0 0-1.7-.5-1.7-.5c-2.2-.6-3.4-1.9-3.4-4c0-2.6 2.3-4.1 5.2-4.1c1.8 0 3.6.5 4.3 1c0 0 0 .3 0 .3c0 1.1-.1 2.4-.4 3.3c-.05.01-1.6 0-1.6 0c0 0-.42-2.99-.4-3c-.7-.1-1.3-.3-1.9-.3c-1.7 0-2.9.8-2.9 2.2c0 1.5.8 2 2.1 2.4c0 0 1.7.5 1.7.5c2.5.8 3.9 1.7 3.9 4.1c0 2.6-2.3 4.4-5.7 4.4c-1.8 0-3.7-.5-4.5-1c0 0 0-.3 0-.3c.1-1.1.2-2.5.5-3.4zm38.1 2.9c0 0 0-8.4 0-8.4c0-1.8-.9-2.6-2.7-2.6c-1.4 0-2.7.4-3.5 1.3c0 0 0 9.7 0 9.7c.8 0 1.6.2 2.2.5c-.03-.03 0 .9 0 .9l-7.1 0c0 0 .05-.93 0-.9c.7-.3 1.4-.5 2.2-.5c0 0 0-8.4 0-8.4c0-1.8-.8-2.6-2.6-2.6c-1.4 0-2.7.4-3.6 1.3c0 0 0 9.7 0 9.7c.9 0 1.6.2 2.2.5c.03-.03 0 .9 0 .9l-7 0c0 0 0-.93 0-.9c.6-.3 1.3-.5 2.2-.5c-.02-.01 0-10.9 0-10.9l-2.1-.5c0 0 .02-.97 0-1c1.1-.3 2.8-.6 4.7-.6c0 0 0 2.4 0 2.4c.9-1.6 2.8-2.5 4.9-2.5c2 0 3.3.9 3.7 2.6c1-1.5 2.8-2.6 5.1-2.6c2.6 0 4 1.5 4 4.1c0 0 0 9 0 9c.9 0 1.6.2 2.2.5c.02-.03 0 .9 0 .9l-7 0c0 0-.01-.93 0-.9c.6-.3 1.3-.5 2.2-.5zm13.4-13c4.1 0 6.4 2.4 6.4 7.3c0 4.7-2.9 7.4-6.8 7.4c-4.2 0-6.3-2.4-6.3-7.3c0-4.7 2.6-7.4 6.7-7.4zm3.5 7.5c0-4.1-1.3-6.1-3.7-6.1c-2.2 0-3.6 1.5-3.6 5.7c0 4.3 1.3 6.3 3.6 6.3c2.3 0 3.7-1.6 3.7-5.9zm6.6 5.5c.04-.01 0-17.7 0-17.7l-2-.5c0 0-.02-.96 0-1c1.1-.3 2.8-.6 4.7-.6c0 0 0 19.8 0 19.8c.9 0 1.6.2 2.2.5c-.02-.03 0 .9 0 .9l-7 0c0 0-.04-.93 0-.9c.6-.3 1.3-.5 2.1-.5zm6.1-11.4c0 0 0-.97 0-1c1.1-.3 2.8-.6 4.7-.6c0 0 0 10.1 0 10.1c0 1.9.7 2.8 2.7 2.8c1.6 0 2.9-.6 3.7-1.5c.04.04 0-9.3 0-9.3l-2-.5c0 0-.02-.97 0-1c1.1-.3 2.8-.6 4.7-.6c.01.02 0 12.7 0 12.7l2.1.5c0 0-.03.88 0 .9c-1.1.3-2.8.6-4.8.6c0 0 0-2.3 0-2.3c-.9 1.5-2.7 2.4-4.8 2.4c-2.5 0-4.2-1.4-4.2-4.1c-.05-.01 0-8.6 0-8.6l-2.1-.5zm19.9 17.1c-.03-.02 0-16.6 0-16.6l-2.1-.5c0 0 .01-.97 0-1c1.1-.3 2.8-.6 4.7-.6c0 0 0 2.7 0 2.7c.8-1.7 2.7-2.8 4.5-2.8c3.3 0 5.5 2.4 5.5 6.9c0 5-2.9 8-6.8 8c-1.2 0-2.4-.4-3.2-1c0 0 0 4.9 0 4.9c1.1 0 1.8.2 2.6.5c-.02-.03 0 .9 0 .9l-7.4 0c0 0-.02-.93 0-.9c.6-.3 1.3-.5 2.2-.5zm2.6-15.2c0 0 0 9.4 0 9.4c.7.2 1.4.3 2.3.3c2.9 0 4.9-2.2 4.9-6c0-3.8-1.5-5.4-3.8-5.4c-1.4 0-2.6.7-3.4 1.7zm14-3.3c0 0 .2-2.8.2-2.8c.6-.2 1.7-.3 2.4-.3c.03.02 0 3.2 0 3.2l3.7 0l0 1.5l-3.7 0c0 0-.09 9.01-.1 9c0 1.6.6 2.1 1.7 2.1c.8 0 1.3-.3 2.1-1c0 0 .6.5.6.5c-.9 1.6-2.3 2.3-3.8 2.3c-2.1 0-3.3-1-3.3-3.5c.04-.03.2-9.4.2-9.4l-2.2 0c0 0-.02-.93 0-.9c.4-.2 1.2-.5 2.2-.7zm16.7 6.3c0 0 0-2.5 0-2.5c0-1.8-1-2.5-2.8-2.5c-.6 0-1.3 0-2 .2c.03-.04-.5 2.9-.5 2.9c0 0-1.56.03-1.6 0c-.1-.6-.3-1.4-.3-2.2c0-.3.1-.7.1-.9c1.4-1.1 3.4-1.5 5.4-1.5c2.9 0 4.3 1.2 4.3 3.5c0 1.7-.1 6.4-.1 9.3c.03-.02 2.1.4 2.1.4c0 0-.01.88 0 .9c-1.1.3-2.7.6-4.6.6c0 0 0-2.4 0-2.4c-.8 1.4-2.3 2.4-4 2.4c-2.5 0-4-1.3-4-3.7c0-3.4 3.2-4.2 8-4.5zm0 5c0 0 0-4 0-4c-3.6.3-5.3.9-5.3 3.1c0 1.6.8 2.4 2.4 2.4c1.2 0 2.2-.6 2.9-1.5z" stroke="none" fill="#404040"/></g><g id="Polygon12205"><path d="m33.7 199.2c0 0 0-16.2 0-16.2c-1-.1-1.8-.2-2.4-.5c-.04.01 0-1.1 0-1.1c0 0 14.38.02 14.4 0c.2.7.2 1.4.2 2.1c0 .9-.1 2.2-.2 3c-.02.01-1.4 0-1.4 0l-.7-3.6l-7 0l0 7.5c0 0 4.35-.02 4.4 0c.1-.7.3-1.6.6-2.2c0 0 1.2 0 1.2 0c.1.7.2 1.7.2 3c0 1.4-.1 2.6-.2 3.4c0 0-1.2 0-1.2 0c-.3-.9-.5-1.9-.6-2.8c-.05.04-4.4 0-4.4 0l0 7.5l7.1 0l1.4-3.8c0 0 1.3.21 1.3.2c0 1.5-.1 3.4-.6 5.1c0 0-14.5 0-14.5 0c0 0-.04-1.09 0-1.1c.6-.2 1.4-.4 2.4-.5zm17.1.1c-.03.05 0-17.6 0-17.6l-2.1-.5c0 0 .01-.99 0-1c1.1-.4 2.8-.6 4.7-.6c0 0 0 19.7 0 19.7c.9.1 1.6.3 2.2.5c.01.03 0 1 0 1l-7 0c0 0-.01-.97 0-1c.6-.2 1.3-.4 2.2-.5zm8.8-17.9c0-.5.1-.9.1-1.2c.5-.1.9-.1 1.4-.1c.4 0 .9 0 1.3.1c.1.3.1.7.1 1.2c0 1-.1 1.6-.2 2.1c-.4.1-.9.1-1.2.1c-.4 0-.9 0-1.2-.1c-.2-.5-.3-1.1-.3-2.1zm0 17.9c.01.05 0-10.9 0-10.9l-2-.4c0 0-.05-1.01 0-1c1-.4 2.7-.6 4.7-.6c0 0 0 12.9 0 12.9c.8.1 1.6.3 2.2.5c-.04.03 0 1 0 1l-7.1 0c0 0 .03-.97 0-1c.6-.2 1.4-.4 2.2-.5zm8.3-12.8c0 0 .2-2.8.2-2.8c.6-.1 1.7-.2 2.4-.2c.01-.02 0 3.1 0 3.1l3.6 0l0 1.6l-3.6 0c0 0-.11 8.97-.1 9c0 1.5.6 2 1.7 2c.7 0 1.3-.2 2-.9c0 0 .7.4.7.4c-1 1.6-2.3 2.3-3.8 2.3c-2.1 0-3.3-1-3.3-3.5c.03.03.1-9.3.1-9.3l-2.1 0c0 0-.03-.97 0-1c.4-.1 1.2-.4 2.2-.7zm21-.1c3.4 0 5.4 1.8 5.4 5.2c0 .6 0 .8-.2 1.6c.04-.03-9 0-9 0c0 0-.05.21 0 .2c0 4.1 2 5.7 4.6 5.7c1.5 0 2.7-.7 3.7-1.8c0 0 .6.5.6.5c-.9 1.9-2.6 3.2-5.2 3.2c-3.6 0-6.5-2.1-6.5-7.2c0-4.7 3-7.4 6.6-7.4zm-3.8 5.4c.04.04 6.5 0 6.5 0c0 0 0-.45 0-.4c0-2.6-1.1-3.7-2.8-3.7c-1.8 0-3.3 1.2-3.7 4.1zm13.4 7.5c0 .05 0-10.9 0-10.9l-2.1-.4c0 0 .04-1.01 0-1c1.1-.4 2.8-.6 4.8-.6c0 0 0 2.2 0 2.2c.8-1.3 2.5-2.2 4.1-2.2c.7 0 1.3.1 1.6.2c0 1.6-.2 3.4-.4 4.3c0-.03-1.6 0-1.6 0l-.4-2.7c0 0-.12 0-.1 0c-1.2 0-2.6.5-3.2 1.4c0 0 0 9.7 0 9.7c1.1.1 2 .3 2.8.5c-.05.03 0 1 0 1l-7.7 0c0 0 .02-.97 0-1c.6-.2 1.4-.4 2.2-.5zm12.1-17.9c0-.5.1-.9.2-1.2c.4-.1.8-.1 1.3-.1c.5 0 .9 0 1.3.1c.1.3.2.7.2 1.2c0 1-.2 1.6-.3 2.1c-.3.1-.8.1-1.2.1c-.4 0-.8 0-1.2-.1c-.1-.5-.3-1.1-.3-2.1zm0 17.9c.05.05 0-10.9 0-10.9l-2-.4c0 0-.01-1.01 0-1c1.1-.4 2.8-.6 4.7-.6c0 0 0 12.9 0 12.9c.9.1 1.6.3 2.2.5c-.01.03 0 1 0 1l-7 0c0 0-.03-.97 0-1c.6-.2 1.3-.4 2.1-.5zm6.1-18.1c0 0 .01-.99 0-1c1.1-.4 2.8-.6 4.7-.6c0 0 0 9.5 0 9.5c.8-1.6 2.7-2.7 4.5-2.7c3.3 0 5.5 2.3 5.5 6.8c0 4.9-2.9 7.8-6.8 7.8c-1.3 0-2.7-.4-3.4-1.1c-.04.02-1.2 1-1.2 1l-1.2 0l0-19.2l-2.1-.5zm4.7 8.8c0 0 0 9.2 0 9.2c.7.2 1.4.3 2.3.3c2.9 0 4.9-2.1 4.9-6c0-3.7-1.5-5.2-3.8-5.2c-1.4 0-2.6.7-3.4 1.7zm11.9-2c0 0 .01-1.01 0-1c1.1-.4 2.8-.6 4.7-.6c0 0 0 10 0 10c0 2 .8 2.8 2.7 2.8c1.6 0 2.9-.5 3.8-1.4c-.05 0 0-9.4 0-9.4l-2.1-.4c0 0-.01-1.01 0-1c1.1-.4 2.8-.6 4.7-.6c.02-.01 0 12.7 0 12.7l2.1.5c0 0-.02.84 0 .8c-1.1.4-2.8.6-4.7.6c0 0 0-2.3 0-2.3c-1 1.6-2.8 2.5-4.9 2.5c-2.5 0-4.2-1.5-4.2-4.2c-.04.05 0-8.6 0-8.6l-2.1-.4zm18.8 8.4c-.02.04 1.6 0 1.6 0c0 0 .38 3.16.4 3.2c.7.1 1.3.2 2 .2c1.8 0 3.3-.8 3.3-2.5c0-1.3-1-1.9-2.6-2.4c0 0-1.7-.5-1.7-.5c-2.2-.7-3.3-1.9-3.3-4c0-2.6 2.2-4.1 5.1-4.1c1.8 0 3.7.4 4.4.9c0 0 0 .4 0 .4c0 1-.2 2.3-.5 3.3c.01-.03-1.6 0-1.6 0c0 0-.36-3.03-.4-3c-.6-.2-1.3-.3-1.9-.3c-1.7 0-2.8.7-2.8 2.2c0 1.4.7 2 2.1 2.4c0 0 1.7.5 1.7.5c2.5.7 3.9 1.7 3.9 4.1c0 2.5-2.3 4.4-5.7 4.4c-1.8 0-3.8-.5-4.5-1c0 0 0-.4 0-.4c0-1 .2-2.4.5-3.4zm19.1 0c.03.04 1.6 0 1.6 0c0 0 .43 3.16.4 3.2c.7.1 1.4.2 2 .2c1.8 0 3.3-.8 3.3-2.5c0-1.3-.9-1.9-2.5-2.4c0 0-1.7-.5-1.7-.5c-2.2-.7-3.4-1.9-3.4-4c0-2.6 2.3-4.1 5.2-4.1c1.8 0 3.6.4 4.3.9c0 0 0 .4 0 .4c0 1-.1 2.3-.4 3.3c-.05-.03-1.6 0-1.6 0c0 0-.42-3.03-.4-3c-.7-.2-1.3-.3-1.9-.3c-1.7 0-2.9.7-2.9 2.2c0 1.4.8 2 2.1 2.4c0 0 1.7.5 1.7.5c2.5.7 3.9 1.7 3.9 4.1c0 2.5-2.3 4.4-5.7 4.4c-1.8 0-3.7-.5-4.5-1c0 0 0-.4 0-.4c.1-1 .2-2.4.5-3.4zm11.4-8.4c0 0 .02-1.01 0-1c1.1-.4 2.8-.6 4.7-.6c0 0 0 10 0 10c0 2 .8 2.8 2.7 2.8c1.6 0 2.9-.5 3.8-1.4c-.04 0 0-9.4 0-9.4l-2.1-.4c0 0 0-1.01 0-1c1.1-.4 2.8-.6 4.7-.6c.03-.01 0 12.7 0 12.7l2.1.5c0 0-.01.84 0 .8c-1.1.4-2.8.6-4.7.6c0 0 0-2.3 0-2.3c-.9 1.6-2.8 2.5-4.9 2.5c-2.5 0-4.2-1.5-4.2-4.2c-.02.05 0-8.6 0-8.6l-2.1-.4zm18.8 8.4c0 .04 1.6 0 1.6 0c0 0 .4 3.16.4 3.2c.7.1 1.4.2 2 .2c1.8 0 3.3-.8 3.3-2.5c0-1.3-.9-1.9-2.6-2.4c0 0-1.7-.5-1.7-.5c-2.2-.7-3.3-1.9-3.3-4c0-2.6 2.2-4.1 5.1-4.1c1.9 0 3.7.4 4.4.9c0 0 0 .4 0 .4c0 1-.2 2.3-.5 3.3c.02-.03-1.6 0-1.6 0c0 0-.35-3.03-.3-3c-.7-.2-1.4-.3-2-.3c-1.7 0-2.8.7-2.8 2.2c0 1.4.8 2 2.1 2.4c0 0 1.7.5 1.7.5c2.5.7 3.9 1.7 3.9 4.1c0 2.5-2.3 4.4-5.7 4.4c-1.8 0-3.8-.5-4.5-1c0 0 0-.4 0-.4c0-1 .2-2.4.5-3.4zm14.4.5c1.3 0 2 1.1 2 2.9c0 1.5-.9 4.3-3.5 5.3c0 0-.6-1-.6-1c1.2-.8 2-2 2.1-3.5c-.2 0-.3 0-.4 0c-.9-.1-1.6-.7-1.6-1.7c0-1.2.7-2 2-2zm11.8-.5c-.03.04 1.5 0 1.5 0c0 0 .47 3.16.5 3.2c.6.1 1.3.2 2 .2c1.8 0 3.2-.8 3.2-2.5c0-1.3-.9-1.9-2.5-2.4c0 0-1.7-.5-1.7-.5c-2.2-.7-3.3-1.9-3.3-4c0-2.6 2.2-4.1 5.1-4.1c1.8 0 3.6.4 4.4.9c0 0 0 .4 0 .4c-.1 1-.2 2.3-.5 3.3c-.01-.03-1.6 0-1.6 0c0 0-.38-3.03-.4-3c-.6-.2-1.3-.3-1.9-.3c-1.7 0-2.8.7-2.8 2.2c0 1.4.7 2 2.1 2.4c0 0 1.7.5 1.7.5c2.5.7 3.9 1.7 3.9 4.1c0 2.5-2.3 4.4-5.7 4.4c-1.9 0-3.8-.5-4.5-1c0 0 0-.4 0-.4c0-1 .2-2.4.5-3.4zm18.7-10c3.4 0 5.4 1.8 5.4 5.2c0 .6 0 .8-.1 1.6c-.04-.03-9.1 0-9.1 0c0 0-.03.21 0 .2c0 4.1 2 5.7 4.6 5.7c1.5 0 2.8-.7 3.7-1.8c0 0 .6.5.6.5c-.9 1.9-2.6 3.2-5.2 3.2c-3.6 0-6.5-2.1-6.5-7.2c0-4.7 3-7.4 6.6-7.4zm-3.7 5.4c-.04.04 6.4 0 6.4 0c0 0 .01-.45 0-.4c0-2.6-1.1-3.7-2.8-3.7c-1.8 0-3.3 1.2-3.6 4.1zm18.4-5.4c1.5 0 2.5.5 3.2 1.1c.4-.6 1-1.2 1.5-1.6c.03 0 1.1.1 1.1.1c0 0 .02 19.04 0 19c.9.1 1.6.3 2.2.5c0 .03 0 1 0 1l-7.4 0c0 0 .01-.97 0-1c.7-.2 1.7-.4 2.6-.5c0 0 0-6.7 0-6.7c-.8 1.7-2.5 2.7-4.3 2.7c-3.4 0-5.7-2.5-5.7-7c0-4.8 2.9-7.6 6.8-7.6zm3.2 11.1c0 0 0-9.2 0-9.2c-.7-.2-1.4-.3-2.3-.3c-3 0-4.9 1.9-4.9 5.7c0 3.7 1.5 5.4 3.9 5.4c1.4 0 2.5-.6 3.3-1.6zm5.8-9.5c0 0-.03-1.01 0-1c1.1-.4 2.8-.6 4.7-.6c0 0 0 10 0 10c0 2 .7 2.8 2.7 2.8c1.6 0 2.9-.5 3.7-1.4c.02 0 0-9.4 0-9.4l-2-.4c0 0-.04-1.01 0-1c1.1-.4 2.7-.6 4.7-.6c-.01-.01 0 12.7 0 12.7l2 .5c0 0 .05.84 0 .8c-1 .4-2.7.6-4.7.6c0 0 0-2.3 0-2.3c-.9 1.6-2.7 2.5-4.8 2.5c-2.6 0-4.3-1.5-4.3-4.2c.03.05 0-8.6 0-8.6l-2-.4zm20-6.6c0-.5 0-.9.1-1.2c.4-.1.8-.1 1.3-.1c.5 0 .9 0 1.4.1c0 .3.1.7.1 1.2c0 1-.1 1.6-.3 2.1c-.3.1-.8.1-1.2.1c-.3 0-.8 0-1.2-.1c-.1-.5-.2-1.1-.2-2.1zm0 17.9c-.04.05 0-10.9 0-10.9l-2.1-.4c0 0 0-1.01 0-1c1.1-.4 2.8-.6 4.7-.6c0 0 0 12.9 0 12.9c.9.1 1.6.3 2.2.5c.01.03 0 1 0 1l-7 0c0 0-.02-.97 0-1c.6-.2 1.3-.4 2.2-.5z" stroke="none" fill="#404040"/></g><g id="Polygon12204"><path d="m1.9 161.1c.04 0 1.6 0 1.6 0c0 0 .44 3.12.4 3.1c.7.2 1.4.3 2 .3c1.9 0 3.3-.9 3.3-2.5c0-1.4-.9-2-2.5-2.5c0 0-1.7-.5-1.7-.5c-2.2-.6-3.4-1.8-3.4-4c0-2.6 2.3-4.1 5.2-4.1c1.8 0 3.6.5 4.3 1c0 0 0 .4 0 .4c0 1-.1 2.3-.4 3.2c-.04.03-1.6 0-1.6 0c0 0-.41-2.97-.4-3c-.6-.1-1.3-.2-1.9-.2c-1.7 0-2.9.7-2.9 2.1c0 1.5.8 2.1 2.2 2.5c0 0 1.7.4 1.7.4c2.4.8 3.8 1.7 3.8 4.2c0 2.5-2.3 4.3-5.7 4.3c-1.8 0-3.7-.5-4.4-.9c0 0 0-.4 0-.4c0-1.1.1-2.5.4-3.4zm20.3-3.6c0 0 0-2.5 0-2.5c0-1.8-1-2.5-2.8-2.5c-.6 0-1.3.1-2 .2c.02-.02-.5 3-.5 3c0 0-1.57-.05-1.6 0c-.2-.7-.3-1.5-.3-2.2c0-.4.1-.8.1-1c1.4-1 3.4-1.5 5.4-1.5c2.9 0 4.3 1.3 4.3 3.6c0 1.6-.1 6.4-.1 9.2c.02 0 2.1.5 2.1.5c0 0-.02.8 0 .8c-1.1.4-2.7.6-4.6.6c0 0 0-2.4 0-2.4c-.8 1.4-2.3 2.4-4 2.4c-2.5 0-4-1.3-4-3.6c0-3.5 3.2-4.3 8-4.6zm0 5c0 0 0-3.9 0-3.9c-3.6.2-5.4.8-5.4 3c0 1.6.9 2.4 2.5 2.4c1.1 0 2.2-.6 2.9-1.5zm8.7 1.5c0 .01 0-10.9 0-10.9l-2.1-.5c0 0 .04-.95 0-.9c1.1-.4 2.8-.7 4.8-.7c0 0 0 2.4 0 2.4c.8-1.6 2.7-2.5 4.8-2.5c2.6 0 4.2 1.5 4.2 4.1c0 0 0 9 0 9c.9.1 1.6.3 2.2.5c.03 0 0 1 0 1l-7 0c0 0 0-1 0-1c.6-.2 1.3-.4 2.2-.5c0 0 0-8.3 0-8.3c0-1.9-1-2.7-2.9-2.7c-1.4 0-2.7.4-3.5 1.3c0 0 0 9.7 0 9.7c.8.1 1.5.3 2.1.5c.04 0 0 1 0 1l-7 0c0 0 .01-1 0-1c.6-.2 1.3-.4 2.2-.5zm22.7-13.1c1.5 0 2.5.5 3.2 1.1c-.04.02 0-5.7 0-5.7l-2.5-.5c0 0 .04-.93 0-.9c1.1-.4 3.2-.6 5.1-.6c.03-.04 0 19.5 0 19.5l2.1.5c0 0-.01.8 0 .8c-1.1.4-2.8.6-4.7.6c0 0 0-2.6 0-2.6c-.8 1.6-2.4 2.7-4.3 2.7c-3.4 0-5.7-2.6-5.7-7.1c0-4.9 2.9-7.8 6.8-7.8zm3.2 11.4c0 0 0-9.5 0-9.5c-.7-.1-1.4-.3-2.3-.3c-2.9 0-4.9 2.1-4.9 5.8c0 3.8 1.5 5.6 3.9 5.6c1.4 0 2.5-.6 3.3-1.6zm8.8-16.2c0-.5.1-.9.1-1.2c.5-.1.9-.2 1.4-.2c.4 0 .9.1 1.3.2c.1.3.1.7.1 1.2c0 .9-.1 1.6-.2 2c-.4.1-.9.2-1.2.2c-.4 0-.9-.1-1.2-.2c-.2-.4-.3-1.1-.3-2zm0 17.9c.01.01 0-10.9 0-10.9l-2.1-.5c0 0 .05-.95 0-.9c1.1-.4 2.8-.7 4.8-.7c0 0 0 13 0 13c.8.1 1.5.3 2.2.5c-.05 0 0 1 0 1l-7.1 0c0 0 .03-1 0-1c.6-.2 1.4-.4 2.2-.5zm8.3-12.8c0 0 .2-2.8.2-2.8c.6-.1 1.7-.3 2.4-.3c.01.04 0 3.2 0 3.2l3.6 0l0 1.6l-3.6 0c0 0-.11 8.93-.1 8.9c0 1.6.6 2.1 1.7 2.1c.7 0 1.3-.3 2-1c0 0 .7.5.7.5c-1 1.6-2.3 2.3-3.8 2.3c-2.1 0-3.3-1-3.3-3.5c.03-.01.1-9.3.1-9.3l-2.1 0c0 0-.03-1.01 0-1c.4-.2 1.2-.5 2.2-.7zm16.7 6.3c0 0 0-2.5 0-2.5c0-1.8-1-2.5-2.8-2.5c-.6 0-1.3.1-2 .2c.01-.02-.5 3-.5 3c0 0-1.58-.05-1.6 0c-.2-.7-.3-1.5-.3-2.2c0-.4 0-.8.1-1c1.4-1 3.4-1.5 5.4-1.5c2.9 0 4.3 1.3 4.3 3.6c0 1.6-.1 6.4-.1 9.2c.01 0 2.1.5 2.1.5c0 0-.03.8 0 .8c-1.1.4-2.7.6-4.6.6c0 0 0-2.4 0-2.4c-.8 1.4-2.3 2.4-4 2.4c-2.5 0-4-1.3-4-3.6c0-3.5 3.2-4.3 8-4.6zm0 5c0 0 0-3.9 0-3.9c-3.6.2-5.4.8-5.4 3c0 1.6.9 2.4 2.5 2.4c1.1 0 2.2-.6 2.9-1.5zm11.8-10.2c.04-.04 0-1 0-1l6.2 0c0 0 .02.96 0 1c-.6.2-1.3.4-2.1.4c0 .04 3.5 9.4 3.5 9.4c0 0 3.62-9.36 3.6-9.4c-.7 0-1.4-.2-2-.4c.05-.04 0-1 0-1l5.3 0c0 0-.04.96 0 1c-.5.1-.8.3-1.3.4c-.04-.02-5.3 12.8-5.3 12.8l-1.6 0c0 0-4.99-12.82-5-12.8c-.5-.1-.8-.3-1.3-.4zm21.8-1.3c4.2 0 6.5 2.4 6.5 7.3c0 4.7-2.9 7.4-6.8 7.4c-4.2 0-6.3-2.4-6.3-7.3c0-4.7 2.6-7.4 6.6-7.4zm3.6 7.6c0-4.2-1.3-6.2-3.7-6.2c-2.2 0-3.6 1.5-3.6 5.7c0 4.3 1.3 6.3 3.6 6.3c2.3 0 3.7-1.6 3.7-5.8zm6.6 5.4c.03.01 0-17.7 0-17.7l-2-.5c0 0-.03-.93 0-.9c1.1-.4 2.8-.6 4.7-.6c0 0 0 19.7 0 19.7c.8.1 1.6.3 2.2.5c-.03 0 0 1 0 1l-7.1 0c0 0 .05-1 0-1c.7-.2 1.4-.4 2.2-.5zm6.1-11.4c0 0-.02-.95 0-.9c1.1-.4 2.8-.7 4.7-.7c0 0 0 10.1 0 10.1c0 1.9.7 2.8 2.7 2.8c1.6 0 2.9-.6 3.7-1.4c.03-.03 0-9.4 0-9.4l-2-.5c0 0-.03-.95 0-.9c1.1-.4 2.8-.7 4.7-.7c0 .05 0 12.8 0 12.8l2.1.5c0 0-.04.8 0 .8c-1.1.4-2.8.6-4.8.6c0 0 0-2.3 0-2.3c-.9 1.5-2.7 2.4-4.8 2.4c-2.6 0-4.3-1.4-4.3-4.1c.04.01 0-8.6 0-8.6l-2-.5zm19.9 17.1c-.05.01 0-16.6 0-16.6l-2.1-.5c0 0-.01-.95 0-.9c1.1-.4 2.8-.7 4.7-.7c0 0 0 2.7 0 2.7c.8-1.7 2.7-2.8 4.5-2.8c3.3 0 5.5 2.4 5.5 6.9c0 5-3 8-6.8 8c-1.2 0-2.4-.3-3.2-.9c0 0 0 4.8 0 4.8c1.1.1 1.8.2 2.6.5c-.04-.01 0 1 0 1l-7.4 0c0 0-.03-1.01 0-1c.6-.3 1.3-.4 2.2-.5zm2.6-15.2c0 0 0 9.5 0 9.5c.7.2 1.4.3 2.3.3c2.9 0 4.9-2.2 4.9-6.1c0-3.8-1.5-5.3-3.8-5.3c-1.4 0-2.7.6-3.4 1.6zm14-3.3c0 0 .2-2.8.2-2.8c.6-.1 1.7-.3 2.4-.3c.02.04 0 3.2 0 3.2l3.7 0l0 1.6l-3.7 0c0 0-.1 8.93-.1 8.9c0 1.6.6 2.1 1.7 2.1c.8 0 1.3-.3 2.1-1c0 0 .6.5.6.5c-.9 1.6-2.3 2.3-3.8 2.3c-2.1 0-3.3-1-3.3-3.5c.03-.01.2-9.3.2-9.3l-2.2 0c0 0-.03-1.01 0-1c.4-.2 1.2-.5 2.2-.7zm16.7 6.3c0 0 0-2.5 0-2.5c0-1.8-1-2.5-2.8-2.5c-.6 0-1.3.1-2 .2c.02-.02-.5 3-.5 3c0 0-1.57-.05-1.6 0c-.2-.7-.3-1.5-.3-2.2c0-.4.1-.8.1-1c1.4-1 3.4-1.5 5.4-1.5c2.9 0 4.3 1.3 4.3 3.6c0 1.6-.1 6.4-.1 9.2c.02 0 2.1.5 2.1.5c0 0-.02.8 0 .8c-1.1.4-2.7.6-4.6.6c0 0 0-2.4 0-2.4c-.8 1.4-2.3 2.4-4 2.4c-2.5 0-4-1.3-4-3.6c0-3.5 3.2-4.3 8-4.6zm0 5c0 0 0-3.9 0-3.9c-3.6.2-5.4.8-5.4 3c0 1.6.9 2.4 2.5 2.4c1.1 0 2.2-.6 2.9-1.5zm13.2-11.5c3.4 0 5.3 1.9 5.3 5.3c0 .6 0 .8-.1 1.5c-.01.03-9.1 0-9.1 0c0 0 0 .27 0 .3c0 4.1 2.1 5.7 4.6 5.7c1.6 0 2.8-.8 3.8-1.8c0 0 .6.4.6.4c-1 2-2.7 3.3-5.2 3.3c-3.7 0-6.6-2.2-6.6-7.3c0-4.7 3-7.4 6.7-7.4zm-3.8 5.5c-.01 0 6.4 0 6.4 0c0 0 .05-.49 0-.5c0-2.5-1-3.6-2.7-3.6c-1.8 0-3.3 1.2-3.7 4.1zm19.4 13.2c.01.01 0-16.6 0-16.6l-2.1-.5c0 0 .05-.95 0-.9c1.1-.4 2.8-.7 4.8-.7c0 0 0 2.7 0 2.7c.8-1.7 2.6-2.8 4.5-2.8c3.2 0 5.4 2.4 5.4 6.9c0 5-2.9 8-6.8 8c-1.2 0-2.4-.3-3.1-.9c0 0 0 4.8 0 4.8c1.1.1 1.8.2 2.5.5c.02-.01 0 1 0 1l-7.4 0c0 0 .03-1.01 0-1c.6-.3 1.4-.4 2.2-.5zm2.7-15.2c0 0 0 9.5 0 9.5c.6.2 1.4.3 2.3.3c2.9 0 4.8-2.2 4.8-6.1c0-3.8-1.4-5.3-3.7-5.3c-1.4 0-2.7.6-3.4 1.6zm14.2 9.5c-.05.01 0-10.9 0-10.9l-2.1-.5c0 0-.01-.95 0-.9c1.1-.4 2.8-.7 4.7-.7c0 0 0 2.3 0 2.3c.8-1.4 2.6-2.3 4.2-2.3c.6 0 1.2.2 1.6.3c0 1.6-.3 3.4-.5 4.2c.05.03-1.5 0-1.5 0l-.4-2.6c0 0-.17-.04-.2 0c-1.1 0-2.5.5-3.2 1.4c0 0 0 9.7 0 9.7c1.1.1 2.1.3 2.8.5c0 0 0 1 0 1l-7.6 0c0 0-.03-1 0-1c.6-.2 1.3-.4 2.2-.5zm16.5-13c3.4 0 5.3 1.9 5.3 5.3c0 .6 0 .8-.1 1.5c-.03.03-9.1 0-9.1 0c0 0-.02.27 0 .3c0 4.1 2 5.7 4.6 5.7c1.6 0 2.8-.8 3.7-1.8c0 0 .6.4.6.4c-.9 2-2.6 3.3-5.2 3.3c-3.6 0-6.5-2.2-6.5-7.3c0-4.7 3-7.4 6.7-7.4zm-3.8 5.5c-.03 0 6.4 0 6.4 0c0 0 .02-.49 0-.5c0-2.5-1.1-3.6-2.8-3.6c-1.7 0-3.3 1.2-3.6 4.1zm12.1 4.6c.02 0 1.6 0 1.6 0c0 0 .42 3.12.4 3.1c.7.2 1.4.3 2 .3c1.8 0 3.3-.9 3.3-2.5c0-1.4-.9-2-2.6-2.5c0 0-1.7-.5-1.7-.5c-2.1-.6-3.3-1.8-3.3-4c0-2.6 2.3-4.1 5.2-4.1c1.8 0 3.6.5 4.3 1c0 0 0 .4 0 .4c0 1-.2 2.3-.5 3.2c.04.03-1.5 0-1.5 0c0 0-.43-2.97-.4-3c-.7-.1-1.3-.2-1.9-.2c-1.7 0-2.9.7-2.9 2.1c0 1.5.8 2.1 2.1 2.5c0 0 1.7.4 1.7.4c2.5.8 3.9 1.7 3.9 4.2c0 2.5-2.3 4.3-5.7 4.3c-1.8 0-3.7-.5-4.5-.9c0 0 0-.4 0-.4c.1-1.1.2-2.5.5-3.4zm13.5-9.9c0 0 .2-2.8.2-2.8c.6-.1 1.7-.3 2.4-.3c.03.04 0 3.2 0 3.2l3.7 0l0 1.6l-3.7 0c0 0-.09 8.93-.1 8.9c0 1.6.6 2.1 1.7 2.1c.8 0 1.3-.3 2.1-1c0 0 .6.5.6.5c-.9 1.6-2.3 2.3-3.8 2.3c-2.1 0-3.3-1-3.3-3.5c.05-.01.2-9.3.2-9.3l-2.2 0c0 0-.01-1.01 0-1c.4-.2 1.2-.5 2.2-.7zm11.1 10.4c1.3 0 2 1 2 2.8c0 1.6-.9 4.4-3.5 5.4c0 0-.6-1-.6-1c1.2-.8 2-2 2.1-3.6c-.2.1-.3 0-.4 0c-.9 0-1.6-.7-1.6-1.7c0-1.1.7-1.9 2-1.9zm13-15.5c0-.5 0-.9.1-1.2c.4-.1.8-.2 1.3-.2c.5 0 .9.1 1.4.2c0 .3.1.7.1 1.2c0 .9-.1 1.6-.3 2c-.3.1-.8.2-1.2.2c-.3 0-.8-.1-1.2-.2c-.1-.4-.2-1.1-.2-2zm0 17.9c-.02.01 0-10.9 0-10.9l-2.1-.5c0 0 .02-.95 0-.9c1.1-.4 2.8-.7 4.7-.7c0 0 0 13 0 13c.9.1 1.6.3 2.2.5c.02 0 0 1 0 1l-7 0c0 0 0-1 0-1c.6-.2 1.3-.4 2.2-.5zm8.7 0c0 .01 0-10.9 0-10.9l-2.1-.5c0 0 .04-.95 0-.9c1.1-.4 2.8-.7 4.8-.7c0 0 0 2.4 0 2.4c.8-1.6 2.7-2.5 4.8-2.5c2.6 0 4.3 1.5 4.3 4.1c0 0 0 9 0 9c.8.1 1.5.3 2.1.5c.03 0 0 1 0 1l-7 0c0 0 .01-1 0-1c.6-.2 1.3-.4 2.2-.5c0 0 0-8.3 0-8.3c0-1.9-1-2.7-2.9-2.7c-1.4 0-2.7.4-3.5 1.3c0 0 0 9.7 0 9.7c.8.1 1.5.3 2.1.5c.05 0 0 1 0 1l-7 0c0 0 .02-1 0-1c.6-.2 1.4-.4 2.2-.5zm14.1-11.7c-.04-.04 0-1 0-1l6.1 0c0 0 .03.96 0 1c-.6.2-1.3.4-2.1.4c.01.04 3.5 9.4 3.5 9.4c0 0 3.63-9.36 3.6-9.4c-.7 0-1.4-.2-1.9-.4c-.04-.04 0-1 0-1l5.2 0c0 0-.03.96 0 1c-.5.1-.8.3-1.3.4c-.03-.02-5.3 12.8-5.3 12.8l-1.5 0c0 0-5.07-12.82-5.1-12.8c-.5-.1-.8-.3-1.2-.4zm21.8-1.3c3.4 0 5.3 1.9 5.3 5.3c0 .6 0 .8-.1 1.5c-.03.03-9.1 0-9.1 0c0 0-.01.27 0 .3c0 4.1 2 5.7 4.6 5.7c1.6 0 2.8-.8 3.7-1.8c0 0 .7.4.7.4c-1 2-2.7 3.3-5.3 3.3c-3.6 0-6.5-2.2-6.5-7.3c0-4.7 3-7.4 6.7-7.4zm-3.8 5.5c-.02 0 6.4 0 6.4 0c0 0 .03-.49 0-.5c0-2.5-1.1-3.6-2.8-3.6c-1.7 0-3.3 1.2-3.6 4.1zm13.3 7.5c.04.01 0-10.9 0-10.9l-2-.5c0 0-.02-.95 0-.9c1.1-.4 2.8-.7 4.7-.7c0 0 0 2.4 0 2.4c.9-1.6 2.7-2.5 4.8-2.5c2.6 0 4.3 1.5 4.3 4.1c0 0 0 9 0 9c.8.1 1.6.3 2.2.5c-.03 0 0 1 0 1l-7.1 0c0 0 .04-1 0-1c.6-.2 1.4-.4 2.2-.5c0 0 0-8.3 0-8.3c0-1.9-.9-2.7-2.9-2.7c-1.4 0-2.7.4-3.5 1.3c0 0 0 9.7 0 9.7c.8.1 1.6.3 2.2.5c-.02 0 0 1 0 1l-7 0c0 0-.05-1 0-1c.6-.2 1.3-.4 2.1-.5zm17.5-12.8c0 0 .2-2.8.2-2.8c.6-.1 1.7-.3 2.4-.3c.05.04 0 3.2 0 3.2l3.7 0l0 1.6l-3.7 0c0 0-.07 8.93-.1 8.9c0 1.6.6 2.1 1.7 2.1c.8 0 1.3-.3 2.1-1c0 0 .6.5.6.5c-.9 1.6-2.3 2.3-3.8 2.3c-2.1 0-3.3-1-3.2-3.5c-.04-.01.1-9.3.1-9.3l-2.2 0c0 0 0-1.01 0-1c.4-.2 1.2-.5 2.2-.7zm9.1 12.5c0-1.3.7-2.1 2-2.1c1.4 0 2 .8 2 2.1c0 1.3-.6 2.1-2 2.1c-1.3 0-2-.9-2-2.1z" stroke="none" fill="#404040"/></g><g id="Polygon12203"><path d="m20.8 128.7c0 0 0-8.4 0-8.4c0-1.8-.8-2.7-2.6-2.7c-1.4 0-2.7.5-3.5 1.4c0 0 0 9.7 0 9.7c.8 0 1.5.2 2.1.5c.04-.04 0 .9 0 .9l-7 0c0 0 .01-.94 0-.9c.6-.3 1.3-.5 2.2-.5c0 0 0-8.4 0-8.4c0-1.8-.9-2.7-2.7-2.7c-1.4 0-2.6.5-3.5 1.4c0 0 0 9.7 0 9.7c.9 0 1.6.2 2.2.5c0-.04 0 .9 0 .9l-7 0c0 0-.03-.94 0-.9c.6-.3 1.3-.5 2.2-.5c-.05-.03 0-10.9 0-10.9l-2.1-.5c0 0-.01-.99 0-1c1.1-.3 2.8-.6 4.7-.6c0 0 0 2.3 0 2.3c.9-1.5 2.7-2.4 4.9-2.4c2 0 3.2.9 3.7 2.6c1-1.5 2.8-2.6 5.1-2.6c2.6 0 4 1.4 4 4.1c0 0 0 9 0 9c.9 0 1.6.2 2.2.5c-.01-.04 0 .9 0 .9l-7 0c0 0-.04-.94 0-.9c.6-.3 1.3-.5 2.1-.5zm13.4-13c4.2 0 6.4 2.4 6.4 7.3c0 4.6-2.8 7.4-6.7 7.4c-4.2 0-6.3-2.4-6.3-7.3c0-4.8 2.6-7.4 6.6-7.4zm3.5 7.5c0-4.1-1.2-6.2-3.6-6.2c-2.2 0-3.6 1.6-3.6 5.7c0 4.4 1.3 6.3 3.6 6.3c2.2 0 3.6-1.5 3.6-5.8zm6.7 5.5c.01-.03 0-17.7 0-17.7l-2.1-.5c0 0 .05-.97 0-1c1.1-.3 2.8-.6 4.8-.6c0 0 0 19.8 0 19.8c.8 0 1.5.2 2.2.5c-.05-.04 0 .9 0 .9l-7.1 0c0 0 .02-.94 0-.9c.6-.3 1.4-.5 2.2-.5zm6.1-11.4c0 0-.04-.99 0-1c1.1-.3 2.8-.6 4.7-.6c0 0 0 10.1 0 10.1c0 1.9.7 2.8 2.7 2.8c1.6 0 2.9-.6 3.7-1.5c.01.03 0-9.3 0-9.3l-2-.5c0 0-.05-.99 0-1c1-.3 2.7-.6 4.7-.6c-.02.01 0 12.7 0 12.7l2 .5c0 0 .04.86 0 .9c-1.1.3-2.8.6-4.7.6c0 0 0-2.4 0-2.4c-.9 1.6-2.7 2.5-4.8 2.5c-2.6 0-4.3-1.5-4.3-4.1c.02-.03 0-8.6 0-8.6l-2-.5zm19.8 17.1c.03-.03 0-16.6 0-16.6l-2-.5c0 0-.03-.99 0-1c1.1-.3 2.8-.6 4.7-.6c0 0 0 2.6 0 2.6c.8-1.6 2.6-2.7 4.5-2.7c3.3 0 5.4 2.4 5.4 6.9c0 5-2.9 8-6.8 8c-1.2 0-2.3-.4-3.1-1c0 0 0 4.9 0 4.9c1.1 0 1.8.2 2.5.5c.04-.05 0 .9 0 .9l-7.3 0c0 0-.05-.95 0-.9c.6-.3 1.3-.5 2.1-.5zm2.7-15.2c0 0 0 9.4 0 9.4c.7.2 1.4.3 2.3.3c2.9 0 4.8-2.2 4.8-6c0-3.8-1.4-5.4-3.7-5.4c-1.4 0-2.7.7-3.4 1.7zm14-3.3c0 0 .2-2.9.2-2.9c.6-.1 1.6-.2 2.4-.2c0 0 0 3.2 0 3.2l3.6 0l0 1.5l-3.7 0c0 0-.02 8.99 0 9c0 1.6.6 2.1 1.7 2.1c.7 0 1.3-.3 2-1c0 0 .6.5.6.5c-.9 1.6-2.2 2.3-3.7 2.3c-2.1 0-3.3-1.1-3.3-3.5c.01-.05.1-9.4.1-9.4l-2.1 0c0 0-.05-.94 0-.9c.3-.2 1.2-.5 2.2-.7zm16.7 6.3c0 0 0-2.5 0-2.5c0-1.8-1-2.5-2.8-2.5c-.6 0-1.3 0-2 .1c0 .04-.5 3-.5 3c0 0-1.59.01-1.6 0c-.2-.6-.3-1.4-.3-2.2c0-.3 0-.7.1-.9c1.4-1.1 3.4-1.5 5.4-1.5c2.9 0 4.3 1.2 4.3 3.5c0 1.7-.1 6.4-.1 9.3c0-.04 2.1.4 2.1.4c0 0-.04.86 0 .9c-1.1.3-2.7.6-4.6.6c0 0 0-2.5 0-2.5c-.8 1.5-2.3 2.5-4 2.5c-2.5 0-4-1.3-4-3.7c0-3.4 3.1-4.2 8-4.5zm0 5c0 0 0-4 0-4c-3.6.3-5.4.9-5.4 3c0 1.7.9 2.5 2.4 2.5c1.2 0 2.3-.7 3-1.5zm26.4 1.5c0 0 0-8.4 0-8.4c0-1.8-.9-2.7-2.7-2.7c-1.4 0-2.7.5-3.5 1.4c0 0 0 9.7 0 9.7c.8 0 1.6.2 2.2.5c-.03-.04 0 .9 0 .9l-7.1 0c0 0 .04-.94 0-.9c.6-.3 1.4-.5 2.2-.5c0 0 0-8.4 0-8.4c0-1.8-.8-2.7-2.6-2.7c-1.4 0-2.7.5-3.6 1.4c0 0 0 9.7 0 9.7c.9 0 1.6.2 2.2.5c.02-.04 0 .9 0 .9l-7 0c0 0-.01-.94 0-.9c.6-.3 1.3-.5 2.2-.5c-.02-.03 0-10.9 0-10.9l-2.1-.5c0 0 .02-.99 0-1c1.1-.3 2.8-.6 4.7-.6c0 0 0 2.3 0 2.3c.9-1.5 2.8-2.4 4.9-2.4c2 0 3.3.9 3.7 2.6c1-1.5 2.8-2.6 5.1-2.6c2.6 0 4 1.4 4 4.1c0 0 0 9 0 9c.9 0 1.6.2 2.2.5c.01-.04 0 .9 0 .9l-7 0c0 0-.02-.94 0-.9c.6-.3 1.3-.5 2.2-.5zm14.9 0c-.03-.03 0-10.9 0-10.9l-2.1-.5c0 0 .01-.99 0-1c1.1-.3 2.8-.6 4.7-.6c0 0 0 2.2 0 2.2c.8-1.3 2.6-2.2 4.2-2.2c.6 0 1.2.1 1.6.3c0 1.5-.3 3.3-.4 4.2c-.04-.01-1.6 0-1.6 0l-.4-2.7c0 0-.16.03-.2 0c-1.1 0-2.5.6-3.2 1.4c0 0 0 9.8 0 9.8c1.1 0 2.1.2 2.8.5c.02-.04 0 .9 0 .9l-7.6 0c0 0-.01-.94 0-.9c.6-.3 1.3-.5 2.2-.5zm17.9-6.5c0 0 0-2.5 0-2.5c0-1.8-.9-2.5-2.8-2.5c-.6 0-1.2 0-1.9.1c-.03.04-.5 3-.5 3c0 0-1.62.01-1.6 0c-.2-.6-.3-1.4-.3-2.2c0-.3 0-.7.1-.9c1.3-1.1 3.4-1.5 5.3-1.5c2.9 0 4.4 1.2 4.4 3.5c0 1.7-.1 6.4-.1 9.3c-.03-.04 2 .4 2 .4c0 0 .03.86 0 .9c-1.1.3-2.6.6-4.6.6c0 0 0-2.5 0-2.5c-.8 1.5-2.2 2.5-4 2.5c-2.5 0-4-1.3-4-3.7c0-3.4 3.2-4.2 8-4.5zm0 5c0 0 0-4 0-4c-3.5.3-5.3.9-5.3 3c0 1.7.9 2.5 2.4 2.5c1.2 0 2.3-.7 2.9-1.5zm7.8-11.3c0 0 .2-2.9.2-2.9c.6-.1 1.7-.2 2.4-.2c.05 0 0 3.2 0 3.2l3.7 0l0 1.5l-3.7 0c0 0-.07 8.99-.1 9c0 1.6.6 2.1 1.7 2.1c.8 0 1.3-.3 2.1-1c0 0 .6.5.6.5c-.9 1.6-2.3 2.3-3.8 2.3c-2.1 0-3.3-1.1-3.2-3.5c-.04-.05.1-9.4.1-9.4l-2.2 0c0 0 0-.94 0-.9c.4-.2 1.2-.5 2.2-.7zm21.3-.2c1.5 0 2.5.5 3.2 1.2c.4-.6 1-1.3 1.5-1.7c.03.02 1.1.1 1.1.1c0 0 .02 19.07 0 19.1c.9 0 1.6.2 2.2.5c0-.05 0 .9 0 .9l-7.4 0c0 0 .01-.95 0-.9c.7-.3 1.7-.5 2.6-.5c0 0 0-6.8 0-6.8c-.8 1.7-2.5 2.8-4.3 2.8c-3.4 0-5.7-2.6-5.7-7.1c0-4.8 2.9-7.6 6.8-7.6zm3.2 11.1c0 0 0-9.2 0-9.2c-.7-.2-1.4-.3-2.3-.3c-3 0-4.9 1.9-4.9 5.7c0 3.7 1.5 5.4 3.9 5.4c1.4 0 2.5-.5 3.3-1.6zm5.8-9.5c0 0-.03-.99 0-1c1.1-.3 2.8-.6 4.7-.6c0 0 0 10.1 0 10.1c0 1.9.7 2.8 2.7 2.8c1.6 0 2.9-.6 3.7-1.5c.02.03 0-9.3 0-9.3l-2-.5c0 0-.04-.99 0-1c1.1-.3 2.7-.6 4.7-.6c-.01.01 0 12.7 0 12.7l2 .5c0 0 .05.86 0 .9c-1 .3-2.7.6-4.7.6c0 0 0-2.4 0-2.4c-.9 1.6-2.7 2.5-4.8 2.5c-2.6 0-4.3-1.5-4.3-4.1c.03-.03 0-8.6 0-8.6l-2-.5zm25.9 4.9c0 0 0-2.5 0-2.5c0-1.8-1-2.5-2.8-2.5c-.6 0-1.3 0-2 .1c.05.04-.5 3-.5 3c0 0-1.54.01-1.5 0c-.2-.6-.3-1.4-.3-2.2c0-.3 0-.7 0-.9c1.4-1.1 3.4-1.5 5.4-1.5c2.9 0 4.4 1.2 4.4 3.5c0 1.7-.2 6.4-.2 9.3c.05-.04 2.1.4 2.1.4c0 0 .01.86 0 .9c-1.1.3-2.7.6-4.6.6c0 0 0-2.5 0-2.5c-.8 1.5-2.3 2.5-4 2.5c-2.5 0-4-1.3-4-3.7c0-3.4 3.2-4.2 8-4.5zm0 5c0 0 0-4 0-4c-3.6.3-5.3.9-5.3 3c0 1.7.8 2.5 2.4 2.5c1.2 0 2.3-.7 2.9-1.5zm26.4 1.5c0 0 0-8.4 0-8.4c0-1.8-.8-2.7-2.7-2.7c-1.3 0-2.6.5-3.5 1.4c0 0 0 9.7 0 9.7c.9 0 1.6.2 2.2.5c.02-.04 0 .9 0 .9l-7 0c0 0-.01-.94 0-.9c.6-.3 1.3-.5 2.2-.5c0 0 0-8.4 0-8.4c0-1.8-.9-2.7-2.7-2.7c-1.4 0-2.7.5-3.5 1.4c0 0 0 9.7 0 9.7c.8 0 1.6.2 2.2.5c-.03-.04 0 .9 0 .9l-7.1 0c0 0 .04-.94 0-.9c.6-.3 1.4-.5 2.2-.5c.02-.03 0-10.9 0-10.9l-2-.5c0 0-.03-.99 0-1c1.1-.3 2.8-.6 4.7-.6c0 0 0 2.3 0 2.3c.9-1.5 2.7-2.4 4.8-2.4c2.1 0 3.3.9 3.8 2.6c1-1.5 2.8-2.6 5.1-2.6c2.5 0 4 1.4 4 4.1c0 0 0 9 0 9c.8 0 1.6.2 2.2.5c-.04-.04 0 .9 0 .9l-7.1 0c0 0 .03-.94 0-.9c.6-.3 1.4-.5 2.2-.5zm20.9-6.5c0 0 0-2.5 0-2.5c0-1.8-1-2.5-2.8-2.5c-.6 0-1.3 0-2 .1c0 .04-.5 3-.5 3c0 0-1.59.01-1.6 0c-.2-.6-.3-1.4-.3-2.2c0-.3 0-.7.1-.9c1.4-1.1 3.4-1.5 5.4-1.5c2.9 0 4.3 1.2 4.3 3.5c0 1.7-.1 6.4-.1 9.3c0-.04 2.1.4 2.1.4c0 0-.04.86 0 .9c-1.1.3-2.7.6-4.6.6c0 0 0-2.5 0-2.5c-.8 1.5-2.3 2.5-4 2.5c-2.5 0-4-1.3-4-3.7c0-3.4 3.1-4.2 8-4.5zm0 5c0 0 0-4 0-4c-3.6.3-5.4.9-5.4 3c0 1.7.9 2.5 2.4 2.5c1.2 0 2.3-.7 3-1.5zm8.6 1.5c-.04-.03 0-17.7 0-17.7l-2.1-.5c0 0 0-.97 0-1c1.1-.3 2.8-.6 4.7-.6c0 0 0 19.8 0 19.8c.9 0 1.6.2 2.2.5c0-.04 0 .9 0 .9l-7 0c0 0-.03-.94 0-.9c.6-.3 1.3-.5 2.2-.5zm8.8-18c0-.4.1-.9.1-1.2c.4-.1.9-.1 1.4-.1c.4 0 .9 0 1.3.1c0 .3.1.8.1 1.2c0 1-.1 1.6-.2 2.1c-.4.1-.9.1-1.2.1c-.4 0-.9 0-1.3-.1c-.1-.5-.2-1.1-.2-2.1zm0 18c0-.03 0-10.9 0-10.9l-2.1-.5c0 0 .04-.99 0-1c1.1-.3 2.8-.6 4.8-.6c0 0 0 13 0 13c.8 0 1.5.2 2.1.5c.05-.04 0 .9 0 .9l-7 0c0 0 .02-.94 0-.9c.6-.3 1.4-.5 2.2-.5zm13.3-13c1.6 0 3.2.5 3.9 1c0 1.1-.1 2.6-.5 3.6c.02.01-1.6 0-1.6 0c0 0-.38-3.11-.4-3.1c-.5-.1-1-.2-1.5-.2c-2.2 0-4.1 1.6-4.1 5.7c0 3.8 1.8 5.7 4.2 5.7c1.6 0 2.7-.7 3.7-1.8c0 0 .6.5.6.5c-1 1.9-2.6 3.3-5.1 3.3c-3.7 0-6.2-2.6-6.2-7.3c0-4.8 3-7.4 7-7.4zm8 .2c0 0 .1-2.9.1-2.9c.7-.1 1.7-.2 2.5-.2c-.03 0-.1 3.2-.1 3.2l3.7 0l0 1.5l-3.7 0c0 0-.05 8.99-.1 9c0 1.6.7 2.1 1.7 2.1c.8 0 1.3-.3 2.1-1c0 0 .6.5.6.5c-.9 1.6-2.2 2.3-3.7 2.3c-2.2 0-3.4-1.1-3.3-3.5c-.02-.05.1-9.4.1-9.4l-2.2 0c0 0 .02-.94 0-.9c.4-.2 1.2-.5 2.3-.7zm14.9-.2c3.4 0 5.4 1.8 5.4 5.2c0 .6 0 .9-.2 1.6c.04-.01-9.1 0-9.1 0c0 0 .05.24 0 .2c0 4.2 2.1 5.7 4.7 5.7c1.5 0 2.7-.7 3.7-1.8c0 0 .6.5.6.5c-1 1.9-2.7 3.3-5.2 3.3c-3.6 0-6.5-2.2-6.5-7.3c0-4.7 3-7.4 6.6-7.4zm-3.8 5.5c.04-.04 6.5 0 6.5 0c0 0-.01-.52 0-.5c0-2.6-1.1-3.7-2.8-3.7c-1.8 0-3.3 1.2-3.7 4.2zm24.7-5.5c1.5 0 2.5.5 3.1 1.2c.4-.6 1.1-1.3 1.6-1.7c-.01.02 1.1.1 1.1.1c0 0-.02 19.07 0 19.1c.8 0 1.6.2 2.2.5c-.04-.05 0 .9 0 .9l-7.4 0c0 0-.03-.95 0-.9c.7-.3 1.7-.5 2.5-.5c0 0 0-6.8 0-6.8c-.7 1.7-2.4 2.8-4.2 2.8c-3.4 0-5.7-2.6-5.7-7.1c0-4.8 2.9-7.6 6.8-7.6zm3.1 11.1c0 0 0-9.2 0-9.2c-.6-.2-1.3-.3-2.3-.3c-2.9 0-4.8 1.9-4.8 5.7c0 3.7 1.4 5.4 3.8 5.4c1.4 0 2.6-.5 3.3-1.6zm5.8-9.5c0 0 .03-.99 0-1c1.1-.3 2.8-.6 4.8-.6c0 0 0 10.1 0 10.1c0 1.9.7 2.8 2.6 2.8c1.6 0 2.9-.6 3.8-1.5c-.02.03 0-9.3 0-9.3l-2.1-.5c0 0 .02-.99 0-1c1.1-.3 2.8-.6 4.7-.6c.04.01 0 12.7 0 12.7l2.1.5c0 0 0 .86 0 .9c-1.1.3-2.8.6-4.7.6c0 0 0-2.4 0-2.4c-.9 1.6-2.7 2.5-4.9 2.5c-2.5 0-4.2-1.5-4.2-4.1c-.01-.03 0-8.6 0-8.6l-2.1-.5zm26 4.9c0 0 0-2.5 0-2.5c0-1.8-1-2.5-2.8-2.5c-.6 0-1.3 0-2 .1c0 .04-.5 3-.5 3c0 0-1.59.01-1.6 0c-.2-.6-.3-1.4-.3-2.2c0-.3 0-.7.1-.9c1.4-1.1 3.4-1.5 5.4-1.5c2.9 0 4.3 1.2 4.3 3.5c0 1.7-.1 6.4-.1 9.3c0-.04 2.1.4 2.1.4c0 0-.04.86 0 .9c-1.1.3-2.7.6-4.6.6c0 0 0-2.5 0-2.5c-.8 1.5-2.3 2.5-4 2.5c-2.5 0-4-1.3-4-3.7c0-3.4 3.1-4.2 8-4.5zm0 5c0 0 0-4 0-4c-3.6.3-5.4.9-5.4 3c0 1.7.9 2.5 2.5 2.5c1.1 0 2.2-.7 2.9-1.5zm26.4 1.5c0 0 0-8.4 0-8.4c0-1.8-.9-2.7-2.7-2.7c-1.4 0-2.7.5-3.5 1.4c0 0 0 9.7 0 9.7c.8 0 1.6.2 2.2.5c-.03-.04 0 .9 0 .9l-7.1 0c0 0 .05-.94 0-.9c.7-.3 1.4-.5 2.2-.5c0 0 0-8.4 0-8.4c0-1.8-.8-2.7-2.6-2.7c-1.4 0-2.7.5-3.6 1.4c0 0 0 9.7 0 9.7c.9 0 1.6.2 2.2.5c.03-.04 0 .9 0 .9l-7 0c0 0 0-.94 0-.9c.6-.3 1.3-.5 2.2-.5c-.02-.03 0-10.9 0-10.9l-2.1-.5c0 0 .02-.99 0-1c1.1-.3 2.8-.6 4.7-.6c0 0 0 2.3 0 2.3c.9-1.5 2.8-2.4 4.9-2.4c2 0 3.3.9 3.8 2.6c.9-1.5 2.7-2.6 5-2.6c2.6 0 4 1.4 4 4.1c0 0 0 9 0 9c.9 0 1.6.2 2.2.5c.02-.04 0 .9 0 .9l-7 0c0 0-.01-.94 0-.9c.6-.3 1.3-.5 2.2-.5z" stroke="none" fill="#404040"/></g><g id="Polygon12202"><path d="m3.2 75.4c0-.5 0-.9.1-1.2c.4-.1.8-.1 1.3-.1c.5 0 .9 0 1.3.1c.1.3.2.7.2 1.2c0 1-.2 1.6-.3 2.1c-.3.1-.8.1-1.2.1c-.4 0-.8 0-1.2-.1c-.1-.5-.2-1.1-.2-2.1zm0 17.9c-.05.03 0-10.9 0-10.9l-2.1-.5c0 0-.01-.92 0-.9c1.1-.4 2.8-.6 4.7-.6c0 0 0 12.9 0 12.9c.9.1 1.6.3 2.2.5c0 .02 0 1 0 1l-7 0c0 0-.03-.98 0-1c.6-.2 1.3-.4 2.2-.5zm8.6 0c-.05.03 0-17.7 0-17.7l-2.1-.4c0 0-.01-1.01 0-1c1.1-.4 2.8-.6 4.7-.6c0 0 0 19.7 0 19.7c.9.1 1.6.3 2.2.5c0 .02 0 1 0 1l-7 0c0 0-.03-.98 0-1c.6-.2 1.3-.4 2.2-.5zm8.8-17.9c0-.5.1-.9.1-1.2c.4-.1.9-.1 1.4-.1c.4 0 .9 0 1.3.1c0 .3.1.7.1 1.2c0 1-.1 1.6-.2 2.1c-.4.1-.9.1-1.2.1c-.4 0-.9 0-1.3-.1c-.1-.5-.2-1.1-.2-2.1zm0 17.9c0 .03 0-10.9 0-10.9l-2.1-.5c0 0 .04-.92 0-.9c1.1-.4 2.8-.6 4.8-.6c0 0 0 12.9 0 12.9c.8.1 1.5.3 2.1.5c.04.02 0 1 0 1l-7 0c0 0 .02-.98 0-1c.6-.2 1.3-.4 2.2-.5zm6.1-18.1c0 0-.05-1.01 0-1c1-.4 2.7-.6 4.7-.6c0 0 0 9.5 0 9.5c.8-1.6 2.6-2.7 4.5-2.7c3.2 0 5.4 2.3 5.4 6.8c0 4.9-2.9 7.8-6.8 7.8c-1.2 0-2.6-.4-3.4-1.1c.01.01-1.2 1-1.2 1l-1.2 0l0-19.3l-2-.4zm4.7 8.7c0 0 0 9.3 0 9.3c.6.2 1.4.3 2.3.3c2.9 0 4.8-2.1 4.8-6c0-3.7-1.4-5.2-3.7-5.2c-1.4 0-2.7.7-3.4 1.6zm11.9-2c0 0-.05-.92 0-.9c1-.4 2.7-.6 4.7-.6c0 0 0 10 0 10c0 2 .7 2.8 2.6 2.8c1.6 0 3-.5 3.8-1.4c0-.01 0-9.4 0-9.4l-2.1-.5c0 0 .04-.92 0-.9c1.1-.4 2.8-.6 4.8-.6c-.03-.03 0 12.7 0 12.7l2 .5c0 0 .03.82 0 .8c-1.1.4-2.8.6-4.7.6c0 0 0-2.3 0-2.3c-.9 1.6-2.7 2.5-4.8 2.5c-2.6 0-4.3-1.5-4.3-4.2c.01.03 0-8.6 0-8.6l-2-.5zm18.7 8.5c.03.03 1.6 0 1.6 0c0 0 .43 3.15.4 3.1c.7.2 1.4.3 2 .3c1.8 0 3.3-.8 3.3-2.5c0-1.4-.9-2-2.5-2.4c0 0-1.7-.5-1.7-.5c-2.2-.7-3.4-1.9-3.4-4c0-2.6 2.3-4.2 5.2-4.2c1.8 0 3.6.5 4.3 1c0 0 0 .4 0 .4c0 1-.1 2.3-.4 3.3c-.04-.05-1.6 0-1.6 0c0 0-.41-3.05-.4-3c-.6-.2-1.3-.3-1.9-.3c-1.7 0-2.9.7-2.9 2.2c0 1.4.8 2 2.2 2.4c0 0 1.6.5 1.6.5c2.5.7 3.9 1.7 3.9 4.1c0 2.5-2.3 4.4-5.7 4.4c-1.8 0-3.7-.5-4.5-1c0 0 0-.4 0-.4c.1-1 .2-2.4.5-3.4zm20.3-3.6c0 0 0-2.4 0-2.4c0-1.8-1-2.6-2.8-2.6c-.6 0-1.3.1-2 .2c.01.01-.5 3-.5 3c0 0-1.58-.03-1.6 0c-.2-.6-.3-1.5-.3-2.2c0-.4 0-.7.1-1c1.4-1 3.4-1.4 5.4-1.4c2.9 0 4.3 1.2 4.3 3.5c0 1.6-.1 6.4-.1 9.2c.01.02 2.1.5 2.1.5c0 0-.03.82 0 .8c-1.1.4-2.7.6-4.6.6c0 0 0-2.4 0-2.4c-.8 1.5-2.3 2.4-4 2.4c-2.5 0-4-1.3-4-3.6c0-3.5 3.2-4.3 8-4.6zm0 5c0 0 0-3.9 0-3.9c-3.6.2-5.4.9-5.4 3c0 1.6.9 2.4 2.5 2.4c1.1 0 2.2-.6 2.9-1.5zm14.5 7.2c.01.03 0-16.6 0-16.6l-2.1-.5c0 0 .05-.92 0-.9c1.1-.4 2.8-.6 4.8-.6c0 0 0 2.6 0 2.6c.8-1.7 2.6-2.8 4.5-2.8c3.2 0 5.4 2.5 5.4 7c0 4.9-2.9 8-6.8 8c-1.2 0-2.4-.4-3.1-1c0 0 0 4.8 0 4.8c1.1.1 1.8.3 2.5.5c.02.01 0 1 0 1l-7.4 0c0 0 .03-.99 0-1c.6-.2 1.4-.4 2.2-.5zm2.7-15.2c0 0 0 9.5 0 9.5c.6.2 1.4.3 2.3.3c2.9 0 4.8-2.2 4.8-6.1c0-3.7-1.4-5.3-3.7-5.3c-1.4 0-2.7.7-3.4 1.6zm19.4-3.4c3.3 0 5.3 1.8 5.3 5.2c0 .6 0 .8-.1 1.6c-.03-.05-9.1 0-9.1 0c0 0-.02.2 0 .2c0 4.1 2 5.7 4.6 5.7c1.6 0 2.8-.7 3.7-1.8c0 0 .6.5.6.5c-.9 1.9-2.6 3.2-5.2 3.2c-3.6 0-6.5-2.2-6.5-7.2c0-4.8 3-7.4 6.7-7.4zm-3.8 5.4c-.03.02 6.4 0 6.4 0c0 0 .02-.46 0-.5c0-2.5-1.1-3.6-2.8-3.6c-1.8 0-3.3 1.2-3.6 4.1zm13.3 7.5c.03.03 0-10.9 0-10.9l-2-.5c0 0-.03-.92 0-.9c1.1-.4 2.8-.6 4.7-.6c0 0 0 2.2 0 2.2c.8-1.4 2.6-2.2 4.2-2.2c.6 0 1.2.1 1.5.2c0 1.6-.2 3.4-.4 4.3c.03-.05-1.5 0-1.5 0l-.4-2.7c0 0-.19-.01-.2 0c-1.1 0-2.5.5-3.2 1.4c0 0 0 9.7 0 9.7c1.1.1 2.1.3 2.8.5c-.02.02 0 1 0 1l-7.7 0c0 0 .05-.98 0-1c.7-.2 1.4-.4 2.2-.5zm16.9-12.9c1.6 0 3.2.5 3.9.9c0 1.1-.2 2.6-.5 3.7c-.01-.03-1.6 0-1.6 0c0 0-.41-3.15-.4-3.1c-.5-.1-1.1-.2-1.5-.2c-2.2 0-4.1 1.6-4.1 5.7c0 3.8 1.8 5.7 4.2 5.7c1.6 0 2.7-.7 3.6-1.8c0 0 .6.5.6.5c-.9 1.9-2.5 3.2-5 3.2c-3.7 0-6.2-2.5-6.2-7.2c0-4.9 3-7.4 7-7.4zm8.2-5c0-.5.1-.9.2-1.2c.4-.1.8-.1 1.3-.1c.5 0 .9 0 1.3.1c.1.3.1.7.1 1.2c0 1-.1 1.6-.2 2.1c-.4.1-.8.1-1.2.1c-.4 0-.9 0-1.2-.1c-.1-.5-.3-1.1-.3-2.1zm0 17.9c.04.03 0-10.9 0-10.9l-2-.5c0 0-.02-.92 0-.9c1.1-.4 2.8-.6 4.7-.6c0 0 0 12.9 0 12.9c.9.1 1.6.3 2.2.5c-.01.02 0 1 0 1l-7 0c0 0-.04-.98 0-1c.6-.2 1.3-.4 2.1-.5zm26.5 0c0 0 0-8.3 0-8.3c0-1.8-.9-2.7-2.7-2.7c-1.4 0-2.7.5-3.5 1.3c0 0 0 9.7 0 9.7c.8.1 1.5.3 2.2.5c-.05.02 0 1 0 1l-7.1 0c0 0 .03-.98 0-1c.6-.2 1.4-.4 2.2-.5c0 0 0-8.3 0-8.3c0-1.8-.8-2.7-2.7-2.7c-1.4 0-2.6.5-3.5 1.3c0 0 0 9.7 0 9.7c.9.1 1.6.3 2.2.5c.01.02 0 1 0 1l-7 0c0 0-.02-.98 0-1c.6-.2 1.3-.4 2.2-.5c-.04.03 0-10.9 0-10.9l-2.1-.5c0 0 0-.92 0-.9c1.1-.4 2.8-.6 4.7-.6c0 0 0 2.3 0 2.3c.9-1.5 2.8-2.5 4.9-2.5c2 0 3.2 1 3.7 2.7c1-1.6 2.8-2.7 5.1-2.7c2.6 0 4 1.5 4 4.2c0 0 0 8.9 0 8.9c.9.1 1.6.3 2.2.5c0 .02 0 1 0 1l-7 0c0 0-.03-.98 0-1c.6-.2 1.3-.4 2.2-.5zm8.8-17.9c0-.5.1-.9.1-1.2c.4-.1.9-.1 1.3-.1c.5 0 1 0 1.4.1c0 .3.1.7.1 1.2c0 1-.1 1.6-.2 2.1c-.4.1-.9.1-1.3.1c-.3 0-.8 0-1.2-.1c-.1-.5-.2-1.1-.2-2.1zm0 17.9c0 .03 0-10.9 0-10.9l-2.1-.5c0 0 .04-.92 0-.9c1.1-.4 2.8-.6 4.8-.6c0 0 0 12.9 0 12.9c.8.1 1.5.3 2.1.5c.04.02 0 1 0 1l-7 0c0 0 .02-.98 0-1c.6-.2 1.3-.4 2.2-.5zm9.3-2.4c1.3 0 2 1 2 2.9c0 1.5-.9 4.3-3.5 5.3c0 0-.6-1-.6-1c1.2-.8 2-2 2.1-3.6c-.2.1-.3 0-.4 0c-.9 0-1.6-.7-1.6-1.7c0-1.1.7-1.9 2-1.9zm17.7-10.5c4.2 0 6.4 2.3 6.4 7.2c0 4.7-2.8 7.4-6.7 7.4c-4.2 0-6.3-2.4-6.3-7.2c0-4.8 2.6-7.4 6.6-7.4zm3.5 7.5c0-4.2-1.2-6.2-3.6-6.2c-2.2 0-3.6 1.5-3.6 5.7c0 4.4 1.3 6.3 3.6 6.3c2.2 0 3.6-1.5 3.6-5.8zm12.5-7.7c1.5 0 2.5.5 3.2 1.1c-.04.04 0-5.7 0-5.7l-2.5-.4c0 0 .03-1.01 0-1c1.1-.4 3.2-.6 5.1-.6c.02-.02 0 19.5 0 19.5l2.1.5c0 0-.02.82 0 .8c-1.1.4-2.8.6-4.7.6c0 0 0-2.6 0-2.6c-.8 1.7-2.4 2.8-4.3 2.8c-3.4 0-5.7-2.7-5.7-7.2c0-4.8 2.9-7.8 6.8-7.8zm3.2 11.4c0 0 0-9.4 0-9.4c-.7-.2-1.4-.4-2.3-.4c-3 0-4.9 2.1-4.9 5.8c0 3.8 1.5 5.6 3.9 5.6c1.3 0 2.5-.6 3.3-1.6zm8.8-16.2c0-.5.1-.9.1-1.2c.4-.1.9-.1 1.4-.1c.4 0 .9 0 1.3.1c0 .3.1.7.1 1.2c0 1-.1 1.6-.2 2.1c-.4.1-.9.1-1.2.1c-.4 0-.9 0-1.3-.1c-.1-.5-.2-1.1-.2-2.1zm0 17.9c0 .03 0-10.9 0-10.9l-2.1-.5c0 0 .04-.92 0-.9c1.1-.4 2.8-.6 4.8-.6c0 0 0 12.9 0 12.9c.8.1 1.5.3 2.1.5c.05.02 0 1 0 1l-7 0c0 0 .02-.98 0-1c.6-.2 1.4-.4 2.2-.5zm19.9-12.9c1.5 0 3.1.5 3.8.9c0 1.1-.1 2.6-.4 3.7c-.04-.03-1.6 0-1.6 0c0 0-.43-3.15-.4-3.1c-.5-.1-1.1-.2-1.5-.2c-2.2 0-4.2 1.6-4.2 5.7c0 3.8 1.8 5.7 4.3 5.7c1.5 0 2.6-.7 3.6-1.8c0 0 .6.5.6.5c-1 1.9-2.5 3.2-5.1 3.2c-3.6 0-6.2-2.5-6.2-7.2c0-4.9 3.1-7.4 7.1-7.4zm6 1.5c0 0 .03-.92 0-.9c1.1-.4 2.8-.6 4.8-.6c0 0 0 10 0 10c0 2 .7 2.8 2.6 2.8c1.6 0 2.9-.5 3.8-1.4c-.02-.01 0-9.4 0-9.4l-2.1-.5c0 0 .02-.92 0-.9c1.1-.4 2.8-.6 4.7-.6c.04-.03 0 12.7 0 12.7l2.1.5c0 0 0 .82 0 .8c-1.1.4-2.8.6-4.7.6c0 0 0-2.3 0-2.3c-.9 1.6-2.7 2.5-4.9 2.5c-2.5 0-4.2-1.5-4.2-4.2c-.01.03 0-8.6 0-8.6l-2.1-.5zm37.7 11.4c0 0 0-8.3 0-8.3c0-1.8-.8-2.7-2.7-2.7c-1.3 0-2.6.5-3.5 1.3c0 0 0 9.7 0 9.7c.9.1 1.6.3 2.2.5c.01.02 0 1 0 1l-7 0c0 0-.02-.98 0-1c.6-.2 1.3-.4 2.2-.5c0 0 0-8.3 0-8.3c0-1.8-.9-2.7-2.7-2.7c-1.4 0-2.7.5-3.5 1.3c0 0 0 9.7 0 9.7c.8.1 1.6.3 2.2.5c-.03.02 0 1 0 1l-7.1 0c0 0 .04-.98 0-1c.6-.2 1.4-.4 2.2-.5c.02.03 0-10.9 0-10.9l-2-.5c0 0-.04-.92 0-.9c1.1-.4 2.7-.6 4.7-.6c0 0 0 2.3 0 2.3c.9-1.5 2.7-2.5 4.8-2.5c2.1 0 3.3 1 3.8 2.7c1-1.6 2.8-2.7 5.1-2.7c2.5 0 4 1.5 4 4.2c0 0 0 8.9 0 8.9c.8.1 1.6.3 2.2.5c-.04.02 0 1 0 1l-7.1 0c0 0 .03-.98 0-1c.6-.2 1.4-.4 2.2-.5zm12-11.7c0-.02 0-1 0-1l6.2 0c0 0-.02.98 0 1c-.6.2-1.3.4-2.1.5c-.04-.03 3.5 9.3 3.5 9.3c0 0 3.58-9.33 3.6-9.3c-.8-.1-1.4-.3-2-.5c.01-.02 0-1 0-1l5.2 0c0 0 .02.98 0 1c-.5.2-.8.3-1.3.4c.02.01-5.2 12.8-5.2 12.8l-1.6 0c0 0-5.02-12.79-5-12.8c-.5-.1-.9-.2-1.3-.4zm21.8-1.2c3.4 0 5.3 1.8 5.3 5.2c0 .6 0 .8-.1 1.6c.02-.05-9.1 0-9.1 0c0 0 .04.2 0 .2c0 4.1 2.1 5.7 4.6 5.7c1.6 0 2.8-.7 3.8-1.8c0 0 .6.5.6.5c-1 1.9-2.7 3.2-5.2 3.2c-3.6 0-6.5-2.2-6.5-7.2c0-4.8 3-7.4 6.6-7.4zm-3.8 5.4c.03.02 6.5 0 6.5 0c0 0-.02-.46 0-.5c0-2.5-1.1-3.6-2.8-3.6c-1.8 0-3.3 1.2-3.7 4.1zm12.9 7.5c0 .03 0-17.7 0-17.7l-2.1-.4c0 0 .04-1.01 0-1c1.1-.4 2.8-.6 4.8-.6c0 0 0 19.7 0 19.7c.8.1 1.5.3 2.1.5c.05.02 0 1 0 1l-7 0c0 0 .02-.98 0-1c.6-.2 1.4-.4 2.2-.5zm8.8-17.9c0-.5.1-.9.2-1.2c.4-.1.8-.1 1.3-.1c.5 0 .9 0 1.3.1c.1.3.2.7.2 1.2c0 1-.2 1.6-.3 2.1c-.4.1-.8.1-1.2.1c-.4 0-.8 0-1.2-.1c-.1-.5-.3-1.1-.3-2.1zm0 17.9c.05.03 0-10.9 0-10.9l-2-.5c0 0-.01-.92 0-.9c1.1-.4 2.8-.6 4.7-.6c0 0 0 12.9 0 12.9c.9.1 1.6.3 2.2.5c-.01.02 0 1 0 1l-7 0c0 0-.04-.98 0-1c.6-.2 1.3-.4 2.1-.5zm7.3-2.9c.02.03 1.6 0 1.6 0c0 0 .41 3.15.4 3.1c.7.2 1.4.3 2 .3c1.8 0 3.3-.8 3.3-2.5c0-1.4-.9-2-2.6-2.4c0 0-1.7-.5-1.7-.5c-2.1-.7-3.3-1.9-3.3-4c0-2.6 2.3-4.2 5.2-4.2c1.8 0 3.6.5 4.3 1c0 0 0 .4 0 .4c0 1-.2 2.3-.5 3.3c.04-.05-1.5 0-1.5 0c0 0-.43-3.05-.4-3c-.7-.2-1.3-.3-1.9-.3c-1.7 0-2.9.7-2.9 2.2c0 1.4.8 2 2.1 2.4c0 0 1.7.5 1.7.5c2.5.7 3.9 1.7 3.9 4.1c0 2.5-2.3 4.4-5.7 4.4c-1.8 0-3.7-.5-4.5-1c0 0 0-.4 0-.4c.1-1 .2-2.4.5-3.4z" stroke="none" fill="#404040"/></g><g id="Polygon12201"><path d="m2.9 63.7c.01-.01 0-16.6 0-16.6l-2.1-.5c0 0 .05-.96 0-1c1.1-.3 2.8-.6 4.8-.6c0 0 0 2.7 0 2.7c.8-1.7 2.6-2.8 4.5-2.8c3.2 0 5.4 2.4 5.4 6.9c0 5-2.9 8-6.8 8c-1.2 0-2.4-.4-3.1-1c0 0 0 4.9 0 4.9c1.1.1 1.8.2 2.5.5c.02-.03 0 .9 0 .9l-7.4 0c0 0 .03-.93 0-.9c.6-.3 1.4-.4 2.2-.5zm2.7-15.2c0 0 0 9.4 0 9.4c.6.2 1.4.3 2.3.3c2.9 0 4.8-2.1 4.8-6c0-3.8-1.4-5.4-3.7-5.4c-1.4 0-2.7.7-3.4 1.7zm14.1 9.5c.05 0 0-10.9 0-10.9l-2-.5c0 0-.01-.96 0-1c1.1-.3 2.8-.6 4.7-.6c0 0 0 2.2 0 2.2c.8-1.3 2.6-2.2 4.2-2.2c.6 0 1.2.2 1.6.3c0 1.5-.3 3.4-.5 4.2c.05.01-1.5 0-1.5 0l-.4-2.7c0 0-.17.05-.2 0c-1.1 0-2.5.6-3.2 1.5c0 0 0 9.7 0 9.7c1.1.1 2.1.2 2.8.5c0-.02 0 .9 0 .9l-7.6 0c0 0-.03-.92 0-.9c.6-.3 1.3-.4 2.1-.5zm16.6-13c4.1 0 6.4 2.4 6.4 7.3c0 4.7-2.9 7.4-6.8 7.4c-4.2 0-6.3-2.4-6.3-7.3c0-4.7 2.6-7.4 6.7-7.4zm3.5 7.5c0-4.1-1.3-6.1-3.7-6.1c-2.2 0-3.6 1.5-3.6 5.7c0 4.3 1.3 6.3 3.6 6.3c2.3 0 3.7-1.6 3.7-5.9zm7 5.5c0 0 0-10.9 0-10.9l-2.1-.5c0 0 .04-.96 0-1c1.1-.3 2.8-.6 4.8-.6c0 0 0 2.2 0 2.2c.8-1.3 2.5-2.2 4.1-2.2c.6 0 1.3.2 1.6.3c0 1.5-.2 3.4-.4 4.2c-.01.01-1.6 0-1.6 0l-.4-2.7c0 0-.13.05-.1 0c-1.2 0-2.6.6-3.2 1.5c0 0 0 9.7 0 9.7c1.1.1 2 .2 2.8.5c-.05-.02 0 .9 0 .9l-7.7 0c0 0 .02-.92 0-.9c.6-.3 1.3-.4 2.2-.5zm12.1 0c.04 0 0-10.9 0-10.9l-2-.5c0 0-.02-.96 0-1c1.1-.3 2.8-.6 4.7-.6c0 0 0 2.2 0 2.2c.8-1.3 2.6-2.2 4.2-2.2c.6 0 1.2.2 1.6.3c0 1.5-.3 3.4-.5 4.2c.04.01-1.5 0-1.5 0l-.4-2.7c0 0-.18.05-.2 0c-1.1 0-2.5.6-3.2 1.5c0 0 0 9.7 0 9.7c1.1.1 2.1.2 2.8.5c0-.02 0 .9 0 .9l-7.6 0c0 0-.04-.92 0-.9c.6-.3 1.3-.4 2.1-.5zm16.6-13c4.1 0 6.4 2.4 6.4 7.3c0 4.7-2.9 7.4-6.8 7.4c-4.2 0-6.3-2.4-6.3-7.3c0-4.7 2.6-7.4 6.7-7.4zm3.5 7.5c0-4.1-1.3-6.1-3.7-6.1c-2.2 0-3.6 1.5-3.6 5.7c0 4.3 1.3 6.3 3.6 6.3c2.3 0 3.7-1.6 3.7-5.9zm18-7.5c3.4 0 5.3 1.8 5.3 5.2c0 .6 0 .9-.1 1.6c.03.02-9.1 0-9.1 0c0 0 .04.26 0 .3c0 4.1 2.1 5.7 4.6 5.7c1.6 0 2.8-.8 3.8-1.9c0 0 .6.5.6.5c-1 2-2.7 3.3-5.2 3.3c-3.6 0-6.5-2.2-6.5-7.3c0-4.7 3-7.4 6.6-7.4zm-3.8 5.5c.03-.02 6.5 0 6.5 0c0 0-.02-.5 0-.5c0-2.5-1.1-3.6-2.8-3.6c-1.8 0-3.3 1.1-3.7 4.1zm13.2-5.3c0 0 .2-2.8.2-2.8c.6-.2 1.7-.3 2.4-.3c.01.02 0 3.2 0 3.2l3.6 0l0 1.5l-3.6 0c0 0-.11 9.01-.1 9c0 1.6.6 2.1 1.7 2.1c.7 0 1.3-.3 2-1c0 0 .7.5.7.5c-1 1.6-2.3 2.3-3.8 2.3c-2.1 0-3.3-1-3.3-3.5c.03-.02.1-9.4.1-9.4l-2.1 0c0 0-.03-.92 0-.9c.4-.2 1.2-.5 2.2-.7zm22.2 6.3c0 0 0-2.5 0-2.5c0-1.8-.9-2.5-2.7-2.5c-.7 0-1.3 0-2 .2c-.01-.03-.5 2.9-.5 2.9c0 0-1.61.04-1.6 0c-.2-.6-.3-1.4-.3-2.1c0-.4 0-.8.1-1c1.3-1 3.4-1.5 5.3-1.5c3 0 4.4 1.2 4.4 3.5c0 1.7-.1 6.4-.1 9.3c-.02-.02 2 .4 2 .4c0 0 .04.89 0 .9c-1 .3-2.6.6-4.6.6c0 0 0-2.4 0-2.4c-.7 1.4-2.2 2.4-4 2.4c-2.4 0-4-1.3-4-3.6c0-3.5 3.2-4.3 8-4.6zm0 5c0 0 0-4 0-4c-3.5.3-5.3.9-5.3 3.1c0 1.6.9 2.4 2.4 2.4c1.2 0 2.3-.6 2.9-1.5zm13.5-11.6c1.4 0 2.5.5 3.1 1.1c.04 0 0-5.7 0-5.7l-2.4-.5c0 0 .02-.95 0-.9c1.1-.4 3.2-.7 5.1-.7c.01.05 0 19.6 0 19.6l2.1.4c0 0-.04.89 0 .9c-1.1.3-2.8.6-4.8.6c0 0 0-2.6 0-2.6c-.7 1.6-2.4 2.7-4.2 2.7c-3.4 0-5.7-2.7-5.7-7.1c0-4.9 2.9-7.8 6.8-7.8zm3.1 11.3c0 0 0-9.4 0-9.4c-.6-.2-1.3-.3-2.3-.3c-2.9 0-4.8 2-4.8 5.8c0 3.8 1.4 5.6 3.9 5.6c1.3 0 2.5-.7 3.2-1.7zm32.6 1.8c0 0 0-8.4 0-8.4c0-1.8-.8-2.6-2.6-2.6c-1.4 0-2.7.4-3.5 1.3c0 0 0 9.7 0 9.7c.8.1 1.5.2 2.1.5c.03-.02 0 .9 0 .9l-7 0c0 0 .01-.92 0-.9c.6-.3 1.3-.4 2.2-.5c0 0 0-8.4 0-8.4c0-1.8-.9-2.6-2.7-2.6c-1.4 0-2.6.4-3.5 1.3c0 0 0 9.7 0 9.7c.9.1 1.6.2 2.2.5c-.01-.02 0 .9 0 .9l-7 0c0 0-.04-.92 0-.9c.6-.3 1.3-.4 2.1-.5c.04 0 0-10.9 0-10.9l-2-.5c0 0-.02-.96 0-1c1.1-.3 2.8-.6 4.7-.6c0 0 0 2.4 0 2.4c.9-1.6 2.7-2.5 4.9-2.5c2 0 3.2.9 3.7 2.6c1-1.5 2.8-2.6 5.1-2.6c2.5 0 4 1.5 4 4.1c0 0 0 9 0 9c.8.1 1.6.2 2.2.5c-.02-.02 0 .9 0 .9l-7 0c0 0-.05-.92 0-.9c.6-.3 1.3-.4 2.1-.5zm14.8-6.5c0 0 0-2.5 0-2.5c0-1.8-1-2.5-2.8-2.5c-.6 0-1.2 0-1.9.2c-.04-.03-.6 2.9-.6 2.9c0 0-1.53.04-1.5 0c-.2-.6-.3-1.4-.3-2.1c0-.4 0-.8.1-1c1.3-1 3.3-1.5 5.3-1.5c2.9 0 4.4 1.2 4.4 3.5c0 1.7-.1 6.4-.1 9.3c-.04-.02 2 .4 2 .4c0 0 .02.89 0 .9c-1.1.3-2.6.6-4.6.6c0 0 0-2.4 0-2.4c-.8 1.4-2.3 2.4-4 2.4c-2.5 0-4-1.3-4-3.6c0-3.5 3.2-4.3 8-4.6zm0 5c0 0 0-4 0-4c-3.6.3-5.3.9-5.3 3.1c0 1.6.9 2.4 2.4 2.4c1.2 0 2.3-.6 2.9-1.5zm8.7-16.4c0-.5.1-.9.2-1.2c.4-.1.8-.2 1.3-.2c.5 0 .9.1 1.3.2c.1.3.1.7.1 1.2c0 .9-.1 1.5-.2 2c-.4.1-.8.1-1.2.1c-.4 0-.9 0-1.2-.1c-.1-.5-.3-1.1-.3-2zm0 17.9c.04 0 0-10.9 0-10.9l-2-.5c0 0-.02-.96 0-1c1.1-.3 2.8-.6 4.7-.6c0 0 0 13 0 13c.8.1 1.6.2 2.2.5c-.02-.02 0 .9 0 .9l-7 0c0 0-.04-.92 0-.9c.6-.3 1.3-.4 2.1-.5zm13-13c4.2 0 6.4 2.4 6.4 7.3c0 4.7-2.8 7.4-6.8 7.4c-4.1 0-6.3-2.4-6.3-7.3c0-4.7 2.7-7.4 6.7-7.4zm3.5 7.5c0-4.1-1.3-6.1-3.6-6.1c-2.3 0-3.7 1.5-3.7 5.7c0 4.3 1.3 6.3 3.7 6.3c2.2 0 3.6-1.6 3.6-5.9zm18.3-7.6c1.5 0 2.5.5 3.2 1.1c-.04 0 0-5.7 0-5.7l-2.5-.5c0 0 .04-.95 0-.9c1.1-.4 3.2-.7 5.1-.7c.02.05 0 19.6 0 19.6l2.1.4c0 0-.02.89 0 .9c-1.1.3-2.8.6-4.7.6c0 0 0-2.6 0-2.6c-.8 1.6-2.4 2.7-4.3 2.7c-3.4 0-5.7-2.7-5.7-7.1c0-4.9 2.9-7.8 6.8-7.8zm3.2 11.3c0 0 0-9.4 0-9.4c-.7-.2-1.4-.3-2.3-.3c-3 0-4.9 2-4.9 5.8c0 3.8 1.5 5.6 3.9 5.6c1.4 0 2.5-.7 3.3-1.7zm13-11.2c3.4 0 5.4 1.8 5.4 5.2c0 .6 0 .9-.1 1.6c-.05.02-9.1 0-9.1 0c0 0-.03.26 0 .3c0 4.1 2 5.7 4.6 5.7c1.5 0 2.8-.8 3.7-1.9c0 0 .6.5.6.5c-.9 2-2.6 3.3-5.2 3.3c-3.6 0-6.5-2.2-6.5-7.3c0-4.7 3-7.4 6.6-7.4zm-3.7 5.5c-.04-.02 6.4 0 6.4 0c0 0 .01-.5 0-.5c0-2.5-1.1-3.6-2.8-3.6c-1.8 0-3.3 1.1-3.6 4.1zm31 7.5c0 0 0-8.4 0-8.4c0-1.8-.8-2.6-2.7-2.6c-1.4 0-2.6.4-3.5 1.3c0 0 0 9.7 0 9.7c.9.1 1.6.2 2.2.5c.01-.02 0 .9 0 .9l-7 0c0 0-.02-.92 0-.9c.6-.3 1.3-.4 2.2-.5c0 0 0-8.4 0-8.4c0-1.8-.9-2.6-2.7-2.6c-1.4 0-2.7.4-3.5 1.3c0 0 0 9.7 0 9.7c.8.1 1.6.2 2.2.5c-.04-.02 0 .9 0 .9l-7.1 0c0 0 .04-.92 0-.9c.6-.3 1.4-.4 2.2-.5c.02 0 0-10.9 0-10.9l-2-.5c0 0-.04-.96 0-1c1-.3 2.7-.6 4.7-.6c0 0 0 2.4 0 2.4c.9-1.6 2.7-2.5 4.8-2.5c2.1 0 3.3.9 3.8 2.6c1-1.5 2.8-2.6 5.1-2.6c2.5 0 4 1.5 4 4.1c0 0 0 9 0 9c.8.1 1.5.2 2.2.5c-.05-.02 0 .9 0 .9l-7.1 0c0 0 .03-.92 0-.9c.6-.3 1.4-.4 2.2-.5zm14.9-12.8c0 0 0-1.7 0-1.7c0-3 1.9-5.3 5.4-5.3c1.4 0 3.1.3 3.8.7c.2.9.1 2.1-.2 3.1c-.03 0-1.6 0-1.6 0c0 0-.61-2.63-.6-2.6c-.3-.1-.5-.1-.7-.1c-2.4 0-3.4 1.5-3.4 3.9c-.03-.05 0 2.1 0 2.1l3.5 0l0 1.5l-3.5 0c0 0-.03 11.2 0 11.2c1.1.1 2 .2 2.8.5c-.04-.02 0 .9 0 .9l-7.7 0c0 0 .03-.92 0-.9c.6-.3 1.4-.4 2.2-.5c.01 0 0-11.2 0-11.2l-2.1 0c0 0 .05-.92 0-.9c.4-.2 1.1-.4 2.1-.7zm15.8 6.3c0 0 0-2.5 0-2.5c0-1.8-1-2.5-2.8-2.5c-.6 0-1.3 0-2 .2c0-.03-.5 2.9-.5 2.9c0 0-1.59.04-1.6 0c-.2-.6-.3-1.4-.3-2.1c0-.4 0-.8.1-1c1.4-1 3.4-1.5 5.4-1.5c2.9 0 4.3 1.2 4.3 3.5c0 1.7-.1 6.4-.1 9.3c0-.02 2.1.4 2.1.4c0 0-.04.89 0 .9c-1.1.3-2.7.6-4.6.6c0 0 0-2.4 0-2.4c-.8 1.4-2.3 2.4-4 2.4c-2.5 0-4-1.3-4-3.6c0-3.5 3.1-4.3 8-4.6zm0 5c0 0 0-4 0-4c-3.6.3-5.4.9-5.4 3.1c0 1.6.9 2.4 2.5 2.4c1.1 0 2.2-.6 2.9-1.5zm13.5-11.5c1.6 0 3.2.5 3.9 1c0 1.1-.1 2.6-.5 3.6c.02.04-1.6 0-1.6 0c0 0-.38-3.08-.4-3.1c-.5-.1-1-.1-1.5-.1c-2.2 0-4.1 1.5-4.1 5.7c0 3.7 1.8 5.7 4.2 5.7c1.6 0 2.7-.8 3.7-1.9c0 0 .6.5.6.5c-1 2-2.6 3.3-5.1 3.3c-3.7 0-6.2-2.6-6.2-7.3c0-4.8 3-7.4 7-7.4zm8.3-4.9c0-.5 0-.9.1-1.2c.4-.1.8-.2 1.3-.2c.5 0 .9.1 1.4.2c0 .3.1.7.1 1.2c0 .9-.1 1.5-.3 2c-.3.1-.8.1-1.2.1c-.3 0-.8 0-1.2-.1c-.1-.5-.2-1.1-.2-2zm0 17.9c-.03 0 0-10.9 0-10.9l-2.1-.5c0 0 .01-.96 0-1c1.1-.3 2.8-.6 4.7-.6c0 0 0 13 0 13c.9.1 1.6.2 2.2.5c.01-.02 0 .9 0 .9l-7 0c0 0-.01-.92 0-.9c.6-.3 1.3-.4 2.2-.5zm8.6 0c-.03 0 0-17.7 0-17.7l-2.1-.5c0 0 .01-.95 0-.9c1.1-.4 2.8-.7 4.7-.7c0 0 0 19.8 0 19.8c.9.1 1.6.2 2.2.5c.02-.02 0 .9 0 .9l-7 0c0 0-.01-.92 0-.9c.6-.3 1.3-.4 2.2-.5zm8.7 0c-.01 0 0-17.7 0-17.7l-2.1-.5c0 0 .03-.95 0-.9c1.1-.4 2.8-.7 4.8-.7c0 0 0 19.8 0 19.8c.8.1 1.5.2 2.1.5c.04-.02 0 .9 0 .9l-7 0c0 0 .01-.92 0-.9c.6-.3 1.3-.4 2.2-.5zm14.8-6.5c0 0 0-2.5 0-2.5c0-1.8-1-2.5-2.8-2.5c-.6 0-1.3 0-2 .2c.02-.03-.5 2.9-.5 2.9c0 0-1.57.04-1.6 0c-.2-.6-.3-1.4-.3-2.1c0-.4.1-.8.1-1c1.4-1 3.4-1.5 5.4-1.5c2.9 0 4.3 1.2 4.3 3.5c0 1.7-.1 6.4-.1 9.3c.02-.02 2.1.4 2.1.4c0 0-.02.89 0 .9c-1.1.3-2.7.6-4.6.6c0 0 0-2.4 0-2.4c-.8 1.4-2.3 2.4-4 2.4c-2.5 0-4-1.3-4-3.6c0-3.5 3.2-4.3 8-4.6zm0 5c0 0 0-4 0-4c-3.6.3-5.4.9-5.4 3.1c0 1.6.9 2.4 2.5 2.4c1.1 0 2.2-.6 2.9-1.5zm5.7-16.7c0 0-.03-.95 0-.9c1.1-.4 2.8-.7 4.7-.7c0 0 0 9.6 0 9.6c.8-1.7 2.6-2.8 4.5-2.8c3.2 0 5.4 2.3 5.4 6.8c0 5-2.9 7.9-6.8 7.9c-1.2 0-2.6-.4-3.4-1.1c.02-.03-1.2 1-1.2 1l-1.2 0l0-19.3l-2-.5zm4.7 8.8c0 0 0 9.2 0 9.2c.7.2 1.4.3 2.3.3c2.9 0 4.8-2 4.8-5.9c0-3.8-1.4-5.2-3.7-5.2c-1.4 0-2.7.6-3.4 1.6z" stroke="none" fill="#404040"/></g><g id="Polygon12200"><path d="m3.4 22.5c0 0 0-16.2 0-16.2c-1-.1-1.8-.2-2.4-.5c-.03.02 0-1.1 0-1.1l7.7 0c0 0 .02 1.12 0 1.1c-.6.3-1.4.4-2.4.5c0 0 0 16.2 0 16.2c1 .1 1.8.3 2.4.5c.02.02 0 1.1 0 1.1l-7.7 0c0 0-.03-1.08 0-1.1c.6-.2 1.4-.4 2.4-.5zm27.1.2c0 0 0-8.4 0-8.4c0-1.8-.8-2.7-2.6-2.7c-1.4 0-2.7.5-3.5 1.4c0 0 0 9.7 0 9.7c.8 0 1.5.2 2.1.4c.03.04 0 1 0 1l-7 0c0 0 .01-.96 0-1c.6-.2 1.3-.4 2.2-.4c0 0 0-8.4 0-8.4c0-1.8-.9-2.7-2.7-2.7c-1.4 0-2.6.5-3.5 1.4c0 0 0 9.7 0 9.7c.9 0 1.6.2 2.2.4c-.01.04 0 1 0 1l-7 0c0 0-.04-.96 0-1c.6-.2 1.3-.4 2.1-.4c.04-.04 0-10.9 0-10.9l-2-.5c0 0-.02-1 0-1c1.1-.4 2.8-.6 4.7-.6c0 0 0 2.3 0 2.3c.9-1.5 2.7-2.4 4.9-2.4c2 0 3.2.9 3.7 2.6c1-1.5 2.8-2.6 5.1-2.6c2.5 0 4 1.4 4 4.1c0 0 0 9 0 9c.8 0 1.6.2 2.2.4c-.02.04 0 1 0 1l-7 0c0 0-.05-.96 0-1c.6-.2 1.3-.4 2.1-.4zm19.9-13.1c1.5 0 2.5.4 3.2 1.1c-.05-.04 0-5.7 0-5.7l-2.5-.5c0 0 .03-.99 0-1c1.1-.4 3.2-.6 5.1-.6c.02.01 0 19.5 0 19.5l2.1.5c0 0-.02.85 0 .8c-1.1.4-2.8.7-4.7.7c0 0 0-2.7 0-2.7c-.8 1.7-2.4 2.8-4.3 2.8c-3.4 0-5.7-2.7-5.7-7.2c0-4.8 2.9-7.7 6.8-7.7zm3.2 11.3c0 0 0-9.4 0-9.4c-.7-.2-1.4-.4-2.3-.4c-3 0-4.9 2.1-4.9 5.9c0 3.7 1.5 5.5 3.9 5.5c1.3 0 2.5-.6 3.3-1.6zm13-11.2c4.2 0 6.5 2.4 6.5 7.3c0 4.6-2.9 7.4-6.8 7.4c-4.2 0-6.3-2.4-6.3-7.3c0-4.8 2.6-7.4 6.6-7.4zm3.6 7.5c0-4.1-1.3-6.2-3.7-6.2c-2.2 0-3.6 1.6-3.6 5.7c0 4.4 1.3 6.3 3.6 6.3c2.3 0 3.7-1.5 3.7-5.8zm6.6 5.5c.02-.04 0-17.7 0-17.7l-2-.5c0 0-.04-.99 0-1c1-.4 2.7-.6 4.7-.6c0 0 0 19.8 0 19.8c.8 0 1.6.2 2.2.4c-.04.04 0 1 0 1l-7.1 0c0 0 .03-.96 0-1c.6-.2 1.4-.4 2.2-.4zm13.1-13c4.2 0 6.4 2.4 6.4 7.3c0 4.6-2.8 7.4-6.8 7.4c-4.1 0-6.3-2.4-6.3-7.3c0-4.8 2.7-7.4 6.7-7.4zm3.5 7.5c0-4.1-1.3-6.2-3.6-6.2c-2.3 0-3.7 1.6-3.7 5.7c0 4.4 1.3 6.3 3.7 6.3c2.2 0 3.6-1.5 3.6-5.8zm7 5.5c.04-.04 0-10.9 0-10.9l-2-.5c0 0-.02-1 0-1c1.1-.4 2.8-.6 4.7-.6c0 0 0 2.2 0 2.2c.8-1.3 2.6-2.2 4.2-2.2c.6 0 1.2.1 1.6.2c0 1.6-.3 3.4-.5 4.3c.04-.02-1.5 0-1.5 0l-.4-2.7c0 0-.18.01-.2 0c-1.1 0-2.5.6-3.2 1.4c0 0 0 9.8 0 9.8c1.1 0 2.1.2 2.8.4c-.01.04 0 1 0 1l-7.6 0c0 0-.04-.96 0-1c.6-.2 1.3-.4 2.1-.4zm16.5-13c3.4 0 5.4 1.8 5.4 5.2c0 .6 0 .9-.1 1.6c-.04-.02-9.1 0-9.1 0c0 0-.03.22 0 .2c0 4.1 2 5.7 4.6 5.7c1.6 0 2.8-.7 3.7-1.8c0 0 .6.5.6.5c-.9 1.9-2.6 3.3-5.2 3.3c-3.6 0-6.5-2.2-6.5-7.3c0-4.7 3-7.4 6.6-7.4zm-3.7 5.4c-.04.04 6.4 0 6.4 0c0 0 .02-.44 0-.4c0-2.6-1.1-3.7-2.8-3.7c-1.8 0-3.3 1.2-3.6 4.1zm12.1 4.6c.01.05 1.6 0 1.6 0c0 0 .41 3.17.4 3.2c.7.2 1.4.2 2 .2c1.8 0 3.3-.8 3.3-2.5c0-1.3-.9-1.9-2.6-2.4c0 0-1.7-.5-1.7-.5c-2.1-.6-3.3-1.9-3.3-4c0-2.6 2.2-4.1 5.2-4.1c1.8 0 3.6.5 4.3.9c0 0 0 .4 0 .4c0 1-.2 2.3-.5 3.3c.03-.02-1.5 0-1.5 0c0 0-.44-3.02-.4-3c-.7-.2-1.3-.3-1.9-.3c-1.7 0-2.9.7-2.9 2.2c0 1.4.8 2 2.1 2.4c0 0 1.7.5 1.7.5c2.5.7 3.9 1.7 3.9 4.1c0 2.6-2.3 4.4-5.7 4.4c-1.8 0-3.7-.5-4.5-1c0 0 0-.4 0-.4c.1-1 .2-2.4.5-3.4zm19.2-10c1.5 0 3.1.5 3.8 1c0 1.1-.1 2.5-.5 3.6c.05 0-1.5 0-1.5 0c0 0-.45-3.12-.5-3.1c-.5-.1-1-.2-1.5-.2c-2.1 0-4.1 1.6-4.1 5.7c0 3.8 1.8 5.7 4.3 5.7c1.5 0 2.6-.7 3.6-1.8c0 0 .6.5.6.5c-1 1.9-2.6 3.3-5.1 3.3c-3.6 0-6.2-2.6-6.2-7.3c0-4.9 3.1-7.4 7.1-7.4zm8.2-5c0-.5.1-.9.1-1.2c.4-.1.9-.1 1.3-.1c.5 0 1 0 1.4.1c0 .3.1.7.1 1.2c0 1-.1 1.6-.2 2.1c-.4.1-.9.1-1.3.1c-.3 0-.8 0-1.2-.1c-.1-.5-.2-1.1-.2-2.1zm0 18c-.01-.04 0-10.9 0-10.9l-2.1-.5c0 0 .03-1 0-1c1.1-.4 2.8-.6 4.8-.6c0 0 0 13 0 13c.8 0 1.5.2 2.1.4c.04.04 0 1 0 1l-7 0c0 0 .01-.96 0-1c.6-.2 1.3-.4 2.2-.4zm8.5 5.7c-.03-.05 0-16.6 0-16.6l-2.1-.5c0 0 .01-1 0-1c1.1-.4 2.8-.6 4.7-.6c0 0 0 2.6 0 2.6c.8-1.6 2.7-2.7 4.5-2.7c3.3 0 5.5 2.4 5.5 6.9c0 4.9-2.9 8-6.8 8c-1.2 0-2.4-.4-3.2-1c0 0 0 4.9 0 4.9c1.1 0 1.9.2 2.6.4c-.02.04 0 1 0 1l-7.4 0c0 0-.01-.96 0-1c.6-.2 1.3-.4 2.2-.4zm2.6-15.3c0 0 0 9.5 0 9.5c.7.2 1.4.3 2.3.3c2.9 0 4.9-2.2 4.9-6.1c0-3.7-1.5-5.3-3.8-5.3c-1.4 0-2.6.7-3.4 1.6zm14.5-8.4c0-.5 0-.9.1-1.2c.4-.1.8-.1 1.3-.1c.5 0 .9 0 1.3.1c.1.3.2.7.2 1.2c0 1-.2 1.6-.3 2.1c-.3.1-.8.1-1.2.1c-.4 0-.8 0-1.2-.1c-.1-.5-.2-1.1-.2-2.1zm0 18c-.04-.04 0-10.9 0-10.9l-2.1-.5c0 0 0-1 0-1c1.1-.4 2.8-.6 4.7-.6c0 0 0 13 0 13c.9 0 1.6.2 2.2.4c0 .04 0 1 0 1l-7 0c0 0-.02-.96 0-1c.6-.2 1.3-.4 2.2-.4zm13.2-13.1c1.4 0 2.4.4 3.1 1.1c.01-.04 0-5.7 0-5.7l-2.4-.5c0 0-.01-.99 0-1c1.1-.4 3.1-.6 5.1-.6c-.02.01 0 19.5 0 19.5l2 .5c0 0 .04.85 0 .8c-1.1.4-2.7.7-4.7.7c0 0 0-2.7 0-2.7c-.8 1.7-2.4 2.8-4.2 2.8c-3.4 0-5.7-2.7-5.7-7.2c0-4.8 2.9-7.7 6.8-7.7zm3.1 11.3c0 0 0-9.4 0-9.4c-.6-.2-1.3-.4-2.3-.4c-2.9 0-4.8 2.1-4.8 5.9c0 3.7 1.4 5.5 3.8 5.5c1.4 0 2.6-.6 3.3-1.6zm19.9-11.2c1.5 0 2.5.5 3.2 1.1c.4-.6 1-1.2 1.5-1.6c.01.01 1.1.1 1.1.1c0 0 0 19.05 0 19.1c.8 0 1.6.2 2.2.4c-.02.04 0 1 0 1l-7.4 0c0 0-.01-.96 0-1c.7-.2 1.7-.4 2.5-.4c0 0 0-6.8 0-6.8c-.7 1.7-2.4 2.8-4.2 2.8c-3.4 0-5.7-2.6-5.7-7.1c0-4.8 2.9-7.6 6.8-7.6zm3.1 11.1c0 0 0-9.2 0-9.2c-.6-.2-1.3-.3-2.3-.3c-2.9 0-4.8 1.9-4.8 5.7c0 3.7 1.4 5.4 3.9 5.4c1.4 0 2.5-.6 3.2-1.6zm5.8-9.5c0 0 .05-1 0-1c1.1-.4 2.8-.6 4.8-.6c0 0 0 10 0 10c0 2 .7 2.8 2.6 2.8c1.6 0 2.9-.5 3.8-1.4c0 .01 0-9.3 0-9.3l-2.1-.5c0 0 .04-1 0-1c1.1-.4 2.8-.6 4.8-.6c-.04-.01 0 12.7 0 12.7l2 .5c0 0 .02.85 0 .8c-1.1.4-2.8.7-4.7.7c0 0 0-2.4 0-2.4c-.9 1.6-2.7 2.5-4.9 2.5c-2.5 0-4.2-1.5-4.2-4.1c.01-.05 0-8.6 0-8.6l-2.1-.5zm26 4.8c0 0 0-2.4 0-2.4c0-1.8-1-2.6-2.8-2.6c-.6 0-1.3.1-2 .2c.02.03-.5 3-.5 3c0 0-1.57 0-1.6 0c-.2-.6-.3-1.5-.3-2.2c0-.3.1-.7.1-1c1.4-1 3.4-1.4 5.4-1.4c2.9 0 4.3 1.2 4.3 3.5c0 1.7-.1 6.4-.1 9.2c.02.04 2.1.5 2.1.5c0 0-.02.85 0 .8c-1.1.4-2.7.7-4.6.7c0 0 0-2.5 0-2.5c-.8 1.5-2.3 2.5-4 2.5c-2.5 0-4-1.3-4-3.7c0-3.5 3.2-4.3 8-4.6zm0 5c0 0 0-3.9 0-3.9c-3.6.2-5.4.9-5.4 3c0 1.7.9 2.5 2.5 2.5c1.2 0 2.2-.7 2.9-1.6zm13.2-11.4c3.4 0 5.3 1.8 5.3 5.2c0 .6 0 .9-.1 1.6c-.01-.02-9.1 0-9.1 0c0 0 .01.22 0 .2c0 4.1 2.1 5.7 4.6 5.7c1.6 0 2.8-.7 3.8-1.8c0 0 .6.5.6.5c-1 1.9-2.7 3.3-5.2 3.3c-3.7 0-6.6-2.2-6.6-7.3c0-4.7 3-7.4 6.7-7.4zm-3.8 5.4c0 .04 6.4 0 6.4 0c0 0 .05-.44 0-.4c0-2.6-1-3.7-2.7-3.7c-1.8 0-3.3 1.2-3.7 4.1zm13.4 13.3c-.04-.05 0-16.6 0-16.6l-2.1-.5c0 0 0-1 0-1c1.1-.4 2.8-.6 4.7-.6c0 0 0 2.6 0 2.6c.8-1.6 2.7-2.7 4.5-2.7c3.3 0 5.5 2.4 5.5 6.9c0 4.9-3 8-6.8 8c-1.2 0-2.4-.4-3.2-1c0 0 0 4.9 0 4.9c1.1 0 1.8.2 2.6.4c-.03.04 0 1 0 1l-7.4 0c0 0-.03-.96 0-1c.6-.2 1.3-.4 2.2-.4zm2.6-15.3c0 0 0 9.5 0 9.5c.7.2 1.4.3 2.3.3c2.9 0 4.9-2.2 4.9-6.1c0-3.7-1.5-5.3-3.8-5.3c-1.4 0-2.7.7-3.4 1.6zm19.4-3.4c3.4 0 5.3 1.8 5.3 5.2c0 .6 0 .9-.1 1.6c.02-.02-9.1 0-9.1 0c0 0 .03.22 0 .2c0 4.1 2.1 5.7 4.6 5.7c1.6 0 2.8-.7 3.8-1.8c0 0 .6.5.6.5c-1 1.9-2.7 3.3-5.2 3.3c-3.6 0-6.6-2.2-6.6-7.3c0-4.7 3.1-7.4 6.7-7.4zm-3.8 5.4c.02.04 6.5 0 6.5 0c0 0-.03-.44 0-.4c0-2.6-1.1-3.7-2.8-3.7c-1.8 0-3.3 1.2-3.7 4.1zm18.5-5.5c1.4 0 2.5.4 3.1 1.1c.02-.04 0-5.7 0-5.7l-2.4-.5c0 0-.01-.99 0-1c1.1-.4 3.1-.6 5.1-.6c-.02.01 0 19.5 0 19.5l2 .5c0 0 .04.85 0 .8c-1 .4-2.7.7-4.7.7c0 0 0-2.7 0-2.7c-.8 1.7-2.4 2.8-4.2 2.8c-3.4 0-5.7-2.7-5.7-7.2c0-4.8 2.9-7.7 6.8-7.7zm3.1 11.3c0 0 0-9.4 0-9.4c-.6-.2-1.3-.4-2.3-.4c-2.9 0-4.8 2.1-4.8 5.9c0 3.7 1.4 5.5 3.8 5.5c1.4 0 2.6-.6 3.3-1.6zm8.9-16.2c0-.5 0-.9.1-1.2c.4-.1.8-.1 1.3-.1c.5 0 .9 0 1.3.1c.1.3.2.7.2 1.2c0 1-.2 1.6-.3 2.1c-.3.1-.8.1-1.2.1c-.3 0-.8 0-1.2-.1c-.1-.5-.2-1.1-.2-2.1zm0 18c-.04-.04 0-10.9 0-10.9l-2.1-.5c0 0 0-1 0-1c1.1-.4 2.8-.6 4.7-.6c0 0 0 13 0 13c.9 0 1.6.2 2.2.4c.01.04 0 1 0 1l-7 0c0 0-.02-.96 0-1c.6-.2 1.3-.4 2.2-.4zm8.3-12.9c0 0 .1-2.8.1-2.8c.6-.1 1.7-.2 2.5-.2c-.03-.02-.1 3.1-.1 3.1l3.7 0l0 1.6l-3.7 0c0 0-.06 8.98-.1 9c0 1.6.7 2 1.7 2c.8 0 1.3-.2 2.1-.9c0 0 .6.5.6.5c-.9 1.6-2.2 2.3-3.7 2.3c-2.2 0-3.4-1.1-3.3-3.6c-.02.04.1-9.3.1-9.3l-2.2 0c0 0 .02-.96 0-1c.4-.1 1.2-.4 2.3-.7zm16.6 6.3c0 0 0-2.4 0-2.4c0-1.8-.9-2.6-2.8-2.6c-.6 0-1.2.1-1.9.2c-.04.03-.6 3-.6 3c0 0-1.53 0-1.5 0c-.2-.6-.3-1.5-.3-2.2c0-.3 0-.7.1-1c1.3-1 3.4-1.4 5.3-1.4c2.9 0 4.4 1.2 4.4 3.5c0 1.7-.1 6.4-.1 9.2c-.04.04 2 .5 2 .5c0 0 .02.85 0 .8c-1.1.4-2.6.7-4.6.7c0 0 0-2.5 0-2.5c-.8 1.5-2.3 2.5-4 2.5c-2.5 0-4-1.3-4-3.7c0-3.5 3.2-4.3 8-4.6zm0 5c0 0 0-3.9 0-3.9c-3.6.2-5.3.9-5.3 3c0 1.7.9 2.5 2.4 2.5c1.2 0 2.3-.7 2.9-1.6zm7.8-11.3c0 0 .2-2.8.2-2.8c.6-.1 1.7-.2 2.4-.2c.04-.02 0 3.1 0 3.1l3.7 0l0 1.6l-3.7 0c0 0-.08 8.98-.1 9c0 1.6.6 2 1.7 2c.8 0 1.3-.2 2.1-.9c0 0 .6.5.6.5c-.9 1.6-2.3 2.3-3.8 2.3c-2.1 0-3.3-1.1-3.2-3.6c-.05.04.1-9.3.1-9.3l-2.2 0c0 0-.01-.96 0-1c.4-.1 1.2-.4 2.2-.7zm15-.1c3.4 0 5.3 1.8 5.3 5.2c0 .6 0 .9-.1 1.6c.01-.02-9.1 0-9.1 0c0 0 .02.22 0 .2c0 4.1 2.1 5.7 4.6 5.7c1.6 0 2.8-.7 3.8-1.8c0 0 .6.5.6.5c-1 1.9-2.7 3.3-5.2 3.3c-3.7 0-6.6-2.2-6.6-7.3c0-4.7 3.1-7.4 6.7-7.4zm-3.8 5.4c.01.04 6.5 0 6.5 0c0 0-.04-.44 0-.4c0-2.6-1.1-3.7-2.8-3.7c-1.8 0-3.3 1.2-3.7 4.1z" stroke="none" fill="#404040"/></g></svg>