<?xml version="1.0" standalone="no"?><!DOCTYPE svg PUBLIC "-//W3C//DTD SVG 1.1//EN" "http://www.w3.org/Graphics/SVG/1.1/DTD/svg11.dtd"><svg xmlns="http://www.w3.org/2000/svg" version="1.1" width="375px" height="118.1px" viewBox="0 0 375 118.1"><desc>The park is one of the least visited of all of America s national parks The relatively light visitation enhances the</desc><defs/><g id="Polygon12221"><path d="m21.6 85.3c0-.2 0-.4 0-.6c.2 0 .4 0 .7 0c.2 0 .4 0 .6 0c.1.2.1.4.1.6c0 .5-.1.8-.1 1.1c-.2 0-.4 0-.6 0c-.2 0-.4 0-.6 0c-.1-.3-.1-.6-.1-1.1zm0 8.9c-.04.02 0-5.4 0-5.4l-1.1-.2c0 0 .04-.5 0-.5c.6-.2 1.4-.3 2.4-.3c0 0 0 6.4 0 6.4c.4.1.8.1 1.1.3c-.04-.04 0 .4 0 .4l-3.5 0c0 0-.02-.44 0-.4c.3-.2.6-.2 1.1-.3zm4.3 0c-.02.02 0-5.4 0-5.4l-1-.2c0 0-.04-.5 0-.5c.5-.2 1.3-.3 2.3-.3c0 0 0 1.2 0 1.2c.4-.8 1.3-1.3 2.4-1.3c1.3 0 2.1.8 2.1 2.1c0 0 0 4.4 0 4.4c.4.1.8.1 1.1.3c-.02-.04 0 .4 0 .4l-3.5 0c0 0 0-.44 0-.4c.3-.2.7-.2 1.1-.3c0 0 0-4.1 0-4.1c0-.9-.5-1.3-1.5-1.3c-.7 0-1.3.2-1.7.6c0 0 0 4.8 0 4.8c.4.1.8.1 1.1.3c-.02-.04 0 .4 0 .4l-3.5 0c0 0 0-.44 0-.4c.3-.2.7-.2 1.1-.3zm10.5-6c.2-.1.6-.2 1.2-.3c0 0 0-1.4 0-1.4c.3-.1.9-.1 1.2-.1c.04-.04 0 1.5 0 1.5l1.8 0l0 .8l-1.8 0c0 0-.02 4.44 0 4.4c0 .8.3 1.1.8 1.1c.4 0 .7-.2 1-.5c0 0 .3.2.3.2c-.4.8-1.1 1.2-1.8 1.2c-1.1 0-1.7-.6-1.6-1.8c-.04.02 0-4.6 0-4.6l-1.1 0l0-.5c0 0 .04.02 0 0zm6.1 6c0 .02 0-8.7 0-8.7l-1-.3c0 0-.02-.46 0-.5c.5-.1 1.4-.3 2.3-.3c0 0 0 4.6 0 4.6c.5-.8 1.4-1.3 2.4-1.3c1.3 0 2.1.8 2.1 2.1c0 0 0 4.4 0 4.4c.4.1.8.1 1.1.3c0-.04 0 .4 0 .4l-3.5 0c0 0 .02-.44 0-.4c.3-.2.7-.2 1.1-.3c0 0 0-4.1 0-4.1c0-.9-.5-1.3-1.4-1.3c-.7 0-1.4.2-1.8.6c0 0 0 4.8 0 4.8c.4.1.8.1 1.1.3c0-.04 0 .4 0 .4l-3.5 0c0 0 .02-.44 0-.4c.3-.2.7-.2 1.1-.3zm11.1-6.4c1.7 0 2.7.9 2.7 2.6c0 .3 0 .4-.1.8c.01-.04-4.5 0-4.5 0c0 0 .01.08 0 .1c0 2 1 2.8 2.3 2.8c.8 0 1.4-.4 1.8-.9c0 0 .3.2.3.2c-.4 1-1.3 1.7-2.5 1.7c-1.8 0-3.3-1.1-3.3-3.6c0-2.4 1.5-3.7 3.3-3.7zm-1.8 2.7c-.05 0 3.2 0 3.2 0c0 0-.05-.24 0-.2c0-1.3-.6-1.8-1.4-1.8c-.9 0-1.7.5-1.8 2zm9.6 6.5c-.03.04 0-8.2 0-8.2l-1-.2c0 0-.05-.5 0-.5c.5-.2 1.3-.3 2.3-.3c0 0 0 1.3 0 1.3c.4-.8 1.3-1.4 2.2-1.4c1.6 0 2.7 1.2 2.7 3.5c0 2.4-1.4 3.9-3.4 3.9c-.6 0-1.1-.2-1.5-.5c0 0 0 2.4 0 2.4c.5.1.9.2 1.2.3c.05-.02 0 .5 0 .5l-3.6 0c0 0-.01-.52 0-.5c.3-.1.7-.2 1.1-.3zm1.3-7.5c0 0 0 4.7 0 4.7c.3.1.7.1 1.1.1c1.5 0 2.4-1 2.4-3c0-1.8-.7-2.6-1.8-2.6c-.7 0-1.4.3-1.7.8zm7 4.7c.01.02 0-5.4 0-5.4l-1-.2c0 0-.01-.5 0-.5c.5-.2 1.4-.3 2.3-.3c0 0 0 1.1 0 1.1c.4-.7 1.3-1.1 2.1-1.1c.3 0 .6.1.8.1c0 .8-.1 1.7-.2 2.1c-.03.02-.8 0-.8 0l-.2-1.3c0 0-.08 0-.1 0c-.6 0-1.2.3-1.6.7c0 0 0 4.8 0 4.8c.6.1 1 .1 1.4.3c.01-.04 0 .4 0 .4l-3.8 0c0 0 .03-.44 0-.4c.3-.2.7-.2 1.1-.3zm8.2-6.4c2.1 0 3.2 1.2 3.2 3.6c0 2.3-1.4 3.7-3.4 3.7c-2.1 0-3.1-1.2-3.1-3.6c0-2.4 1.3-3.7 3.3-3.7zm1.7 3.7c0-2-.6-3-1.8-3c-1.1 0-1.8.7-1.8 2.8c0 2.1.7 3.1 1.8 3.1c1.1 0 1.8-.8 1.8-2.9zm2.3-3.3c.2-.1.6-.2 1.1-.3c0 0 .1-1.4.1-1.4c.3-.1.8-.1 1.2-.1c0-.04 0 1.5 0 1.5l1.8 0l0 .8l-1.8 0c0 0-.06 4.44-.1 4.4c0 .8.3 1.1.9 1.1c.4 0 .6-.2 1-.5c0 0 .3.2.3.2c-.4.8-1.1 1.2-1.9 1.2c-1 0-1.6-.6-1.6-1.8c.03.02.1-4.6.1-4.6l-1.1 0l0-.5c0 0 .01.02 0 0zm8.5-.4c1.7 0 2.7.9 2.7 2.6c0 .3 0 .4-.1.8c0-.04-4.5 0-4.5 0c0 0 0 .08 0 .1c0 2 1 2.8 2.3 2.8c.8 0 1.4-.4 1.8-.9c0 0 .3.2.3.2c-.4 1-1.3 1.7-2.5 1.7c-1.8 0-3.3-1.1-3.3-3.6c0-2.4 1.5-3.7 3.3-3.7zm-1.9 2.7c.05 0 3.2 0 3.2 0c0 0 .05-.24 0-.2c0-1.3-.5-1.8-1.3-1.8c-.9 0-1.7.5-1.9 2zm9.2-2.7c.8 0 1.6.2 2 .5c0 .5-.1 1.3-.3 1.8c.02-.02-.8 0-.8 0c0 0-.17-1.57-.2-1.6c-.2 0-.5 0-.7 0c-1.1 0-2.1.7-2.1 2.8c0 1.8.9 2.8 2.1 2.8c.8 0 1.4-.4 1.8-.9c0 0 .3.2.3.2c-.4 1-1.2 1.7-2.5 1.7c-1.8 0-3-1.3-3-3.6c0-2.4 1.5-3.7 3.4-3.7zm2.9.4c.2-.1.6-.2 1.1-.3c0 0 .1-1.4.1-1.4c.3-.1.8-.1 1.2-.1c-.04-.04-.1 1.5-.1 1.5l1.9 0l0 .8l-1.9 0c0 0 0 4.44 0 4.4c0 .8.3 1.1.8 1.1c.4 0 .7-.2 1.1-.5c0 0 .3.2.3.2c-.5.8-1.1 1.2-1.9 1.2c-1 0-1.6-.6-1.6-1.8c-.02.02 0-4.6 0-4.6l-1 0l0-.5c0 0-.04.02 0 0zm6.1-2.9c0-.2.1-.4.1-.6c.2 0 .4 0 .7 0c.2 0 .4 0 .6 0c.1.2.1.4.1.6c0 .5-.1.8-.1 1.1c-.2 0-.5 0-.6 0c-.2 0-.5 0-.6 0c-.1-.3-.2-.6-.2-1.1zm0 8.9c.04.02 0-5.4 0-5.4l-1-.2c0 0 .02-.5 0-.5c.6-.2 1.4-.3 2.4-.3c0 0 0 6.4 0 6.4c.4.1.7.1 1 .3c.04-.04 0 .4 0 .4l-3.4 0c0 0-.04-.44 0-.4c.3-.2.6-.2 1-.3zm6.5-6.4c2 0 3.1 1.2 3.1 3.6c0 2.3-1.4 3.7-3.3 3.7c-2.1 0-3.1-1.2-3.1-3.6c0-2.4 1.3-3.7 3.3-3.7zm1.7 3.7c0-2-.6-3-1.8-3c-1.1 0-1.8.7-1.8 2.8c0 2.1.6 3.1 1.8 3.1c1.1 0 1.8-.8 1.8-2.9zm3.5 2.7c-.02.02 0-5.4 0-5.4l-1-.2c0 0-.04-.5 0-.5c.5-.2 1.3-.3 2.3-.3c0 0 0 1.2 0 1.2c.4-.8 1.4-1.3 2.4-1.3c1.3 0 2.1.8 2.1 2.1c0 0 0 4.4 0 4.4c.4.1.8.1 1.1.3c-.02-.04 0 .4 0 .4l-3.5 0c0 0 0-.44 0-.4c.3-.2.7-.2 1.1-.3c0 0 0-4.1 0-4.1c0-.9-.5-1.3-1.5-1.3c-.6 0-1.3.2-1.7.6c0 0 0 4.8 0 4.8c.4.1.8.1 1.1.3c-.02-.04 0 .4 0 .4l-3.5 0c0 0 0-.44 0-.4c.3-.2.7-.2 1.1-.3zm14.2-6.4c2.1 0 3.2 1.2 3.2 3.6c0 2.3-1.4 3.7-3.4 3.7c-2 0-3.1-1.2-3.1-3.6c0-2.4 1.3-3.7 3.3-3.7zm1.7 3.7c0-2-.6-3-1.8-3c-1.1 0-1.8.7-1.8 2.8c0 2.1.7 3.1 1.8 3.1c1.2 0 1.8-.8 1.8-2.9zm3.5-3.6c0 0 0-.9 0-.9c0-1.5.9-2.6 2.6-2.6c.7 0 1.5.2 1.9.3c.1.5.1 1.1-.1 1.6c0 0-.8 0-.8 0c0 0-.28-1.31-.3-1.3c-.1 0-.2 0-.3 0c-1.2 0-1.7.7-1.7 1.9c-.02-.03 0 1 0 1l1.7 0l0 .8l-1.7 0c0 0-.02 5.52 0 5.5c.5.1 1 .1 1.4.3c-.04-.04 0 .4 0 .4l-3.8 0c0 0-.02-.44 0-.4c.3-.2.6-.2 1.1-.3c-.04.02 0-5.5 0-5.5l-1.1 0c0 0 .04-.48 0-.5c.2-.1.6-.2 1.1-.3zm7.9 0c0 0 0-.9 0-.9c0-1.5.9-2.6 2.7-2.6c.6 0 1.5.2 1.8.3c.1.5.1 1.1-.1 1.6c.02 0-.8 0-.8 0c0 0-.26-1.31-.3-1.3c-.1 0-.2 0-.3 0c-1.2 0-1.7.7-1.7 1.9c0-.03 0 1 0 1l1.7 0l0 .8l-1.7 0c0 0 0 5.52 0 5.5c.5.1 1 .1 1.4.3c-.02-.04 0 .4 0 .4l-3.8 0c0 0 0-.44 0-.4c.3-.2.7-.2 1.1-.3c-.02.02 0-5.5 0-5.5l-1 0c0 0-.04-.48 0-.5c.1-.1.5-.2 1-.3zm4.9 6.3c0 .02 0-5.4 0-5.4l-1-.2c0 0-.02-.5 0-.5c.5-.2 1.4-.3 2.3-.3c0 0 0 1.1 0 1.1c.4-.7 1.3-1.1 2.1-1.1c.3 0 .6.1.8.1c0 .8-.1 1.7-.2 2.1c-.04.02-.8 0-.8 0l-.2-1.3c0 0-.09 0-.1 0c-.6 0-1.2.3-1.6.7c0 0 0 4.8 0 4.8c.6.1 1 .1 1.4.3c0-.04 0 .4 0 .4l-3.8 0c0 0 .02-.44 0-.4c.3-.2.7-.2 1.1-.3zm8.9-3.2c0 0 0-1.2 0-1.2c0-.9-.5-1.3-1.4-1.3c-.3 0-.6 0-1 .1c.04.01-.2 1.5-.2 1.5c0 0-.79-.02-.8 0c-.1-.3-.1-.7-.1-1.1c0-.2 0-.4 0-.5c.7-.5 1.7-.7 2.7-.7c1.4 0 2.1.6 2.1 1.7c0 .9 0 3.2 0 4.6c-.04.02 1 .2 1 .2c0 0-.02.46 0 .5c-.6.1-1.3.3-2.3.3c0 0 0-1.2 0-1.2c-.4.7-1.1 1.2-2 1.2c-1.2 0-2-.7-2-1.8c0-1.8 1.6-2.2 4-2.3zm0 2.5c0 0 0-2 0-2c-1.8.1-2.6.5-2.6 1.5c0 .8.4 1.2 1.2 1.2c.5 0 1.1-.3 1.4-.7zm4.4 1c-.3-.1-.6-.5-.6-1c0-.6.4-1 .8-1.3c-.8-.4-1.2-1.1-1.2-2.1c0-1.5 1.2-2.4 2.8-2.4c.7 0 1.2.1 1.8.5c.4-.2.9-.4 1.6-.4c0 .2.1.4.1.5c0 .2-.1.4-.1.5c0 0-1.2 0-1.2 0c.3.3.4.7.4 1.2c0 1.5-1 2.4-2.9 2.4c-.3 0-.7 0-1-.1c0 .2-.1.4-.1.7c0 .4.2.6.7.6c0 0 2 0 2 0c1.3 0 2 .6 2 1.8c0 1.5-1.5 2.5-3.5 2.5c-2 0-3-.7-3-1.9c0-.7.5-1.2 1.4-1.5zm1.7-2.7c.9 0 1.4-.5 1.4-1.8c0-1.1-.6-1.7-1.4-1.7c-.9 0-1.4.5-1.4 1.6c0 1.3.5 1.9 1.4 1.9c0 0 0 0 0 0zm-1.5 2.9c-.3.3-.4.6-.4 1.1c0 .9.7 1.4 1.8 1.4c1.5 0 2.4-.5 2.4-1.5c0-.6-.5-1-1.2-1c0 0-2.6 0-2.6 0c0 0-.04 0 0 0zm7-9.4c0-.2 0-.4 0-.6c.2 0 .5 0 .7 0c.2 0 .4 0 .7 0c0 .2 0 .4 0 .6c0 .5 0 .8-.1 1.1c-.2 0-.4 0-.6 0c-.2 0-.4 0-.6 0c-.1-.3-.1-.6-.1-1.1zm0 8.9c-.02.02 0-5.4 0-5.4l-1-.2c0 0-.04-.5 0-.5c.5-.2 1.3-.3 2.3-.3c0 0 0 6.4 0 6.4c.4.1.8.1 1.1.3c-.02-.04 0 .4 0 .4l-3.5 0c0 0 0-.44 0-.4c.3-.2.7-.2 1.1-.3zm4.2 0c.04.02 0-8.7 0-8.7l-1-.3c0 0 .02-.46 0-.5c.6-.1 1.4-.3 2.4-.3c0 0 0 9.8 0 9.8c.4.1.7.1 1 .3c.04-.04 0 .4 0 .4l-3.4 0c0 0-.04-.44 0-.4c.3-.2.6-.2 1-.3zm6.5-6.4c1.7 0 2.7.9 2.7 2.6c0 .3 0 .4-.1.8c0-.04-4.5 0-4.5 0c0 0 0 .08 0 .1c0 2 1 2.8 2.3 2.8c.8 0 1.4-.4 1.8-.9c0 0 .3.2.3.2c-.4 1-1.3 1.7-2.5 1.7c-1.8 0-3.3-1.1-3.3-3.6c0-2.4 1.5-3.7 3.3-3.7zm-1.9 2.7c.04 0 3.2 0 3.2 0c0 0 .04-.24 0-.2c0-1.3-.5-1.8-1.3-1.8c-.9 0-1.7.5-1.9 2zm9.8 3.7c-.02.02 0-5.4 0-5.4l-1-.2c0 0-.04-.5 0-.5c.5-.2 1.3-.3 2.3-.3c0 0 0 1.1 0 1.1c.4-.7 1.3-1.1 2.1-1.1c.3 0 .6.1.7.1c0 .8-.1 1.7-.2 2.1c.04.02-.7 0-.7 0l-.2-1.3c0 0-.11 0-.1 0c-.6 0-1.3.3-1.6.7c0 0 0 4.8 0 4.8c.5.1 1 .1 1.4.3c-.02-.04 0 .4 0 .4l-3.8 0c0 0 0-.44 0-.4c.3-.2.7-.2 1.1-.3zm8.2-6.4c1.6 0 2.6.9 2.6 2.6c0 .3 0 .4-.1.8c.03-.04-4.5 0-4.5 0c0 0 .03.08 0 .1c0 2 1.1 2.8 2.3 2.8c.8 0 1.4-.4 1.9-.9c0 0 .3.2.3.2c-.5 1-1.3 1.7-2.6 1.7c-1.8 0-3.2-1.1-3.2-3.6c0-2.4 1.5-3.7 3.3-3.7zm-1.9 2.7c-.02 0 3.2 0 3.2 0c0 0-.03-.24 0-.2c0-1.3-.6-1.8-1.4-1.8c-.9 0-1.6.5-1.8 2zm6 2.3c-.01-.02.8 0 .8 0c0 0 .18 1.53.2 1.5c.3.1.7.2 1 .2c.9 0 1.6-.5 1.6-1.3c0-.7-.5-1-1.3-1.2c0 0-.8-.2-.8-.2c-1.1-.4-1.7-1-1.7-2c0-1.3 1.2-2.1 2.6-2.1c.9 0 1.8.3 2.2.5c0 0 0 .2 0 .2c-.1.5-.1 1.2-.3 1.6c.01.02-.8 0-.8 0c0 0-.16-1.47-.2-1.5c-.3 0-.6-.1-.9-.1c-.8 0-1.4.4-1.4 1.1c0 .7.4 1 1 1.2c0 0 .9.2.9.2c1.2.4 1.9.9 1.9 2.1c0 1.2-1.1 2.1-2.8 2.1c-.9 0-1.9-.2-2.2-.5c0 0 0-.1 0-.1c0-.6 0-1.3.2-1.7zm9.3-5c2.1 0 3.2 1.2 3.2 3.6c0 2.3-1.4 3.7-3.4 3.7c-2.1 0-3.1-1.2-3.1-3.6c0-2.4 1.3-3.7 3.3-3.7zm1.7 3.7c0-2-.6-3-1.8-3c-1.1 0-1.8.7-1.8 2.8c0 2.1.7 3.1 1.8 3.1c1.1 0 1.8-.8 1.8-2.9zm2.4-2.9c0 0-.03-.5 0-.5c.5-.2 1.4-.3 2.3-.3c0 0 0 5 0 5c0 .9.4 1.4 1.3 1.4c.8 0 1.5-.3 1.9-.7c-.01-.05 0-4.7 0-4.7l-1-.2c0 0-.03-.5 0-.5c.5-.2 1.4-.3 2.3-.3c.01 0 0 6.3 0 6.3l1 .2c0 0 .03.46 0 .5c-.5.1-1.3.3-2.3.3c0 0 0-1.2 0-1.2c-.5.8-1.4 1.2-2.4 1.2c-1.3 0-2.1-.7-2.1-2c-.01-.02 0-4.3 0-4.3l-1-.2zm9.9 5.6c-.03.02 0-5.4 0-5.4l-1-.2c0 0-.05-.5 0-.5c.5-.2 1.3-.3 2.3-.3c0 0 0 1.1 0 1.1c.4-.7 1.3-1.1 2.1-1.1c.3 0 .6.1.7.1c0 .8-.1 1.7-.2 2.1c.03.02-.7 0-.7 0l-.2-1.3c0 0-.12 0-.1 0c-.6 0-1.3.3-1.6.7c0 0 0 4.8 0 4.8c.5.1 1 .1 1.4.3c-.03-.04 0 .4 0 .4l-3.8 0c0 0-.01-.44 0-.4c.3-.2.7-.2 1.1-.3zm8.3-6.4c.8 0 1.6.2 1.9.5c0 .5 0 1.3-.2 1.8c.01-.02-.8 0-.8 0c0 0-.18-1.57-.2-1.6c-.2 0-.5 0-.7 0c-1.1 0-2.1.7-2.1 2.8c0 1.8.9 2.8 2.1 2.8c.8 0 1.3-.4 1.8-.9c0 0 .3.2.3.2c-.5 1-1.2 1.7-2.5 1.7c-1.8 0-3.1-1.3-3.1-3.6c0-2.4 1.5-3.7 3.5-3.7zm6.4 0c1.7 0 2.6.9 2.6 2.6c0 .3 0 .4 0 .8c-.03-.04-4.5 0-4.5 0c0 0-.03.08 0 .1c0 2 1 2.8 2.2 2.8c.8 0 1.4-.4 1.9-.9c0 0 .3.2.3.2c-.5 1-1.3 1.7-2.6 1.7c-1.8 0-3.2-1.1-3.2-3.6c0-2.4 1.5-3.7 3.3-3.7zm-1.9 2.7c.01 0 3.2 0 3.2 0c0 0 .01-.24 0-.2c0-1.3-.5-1.8-1.4-1.8c-.9 0-1.6.5-1.8 2zm6 2.3c.03-.02.8 0 .8 0c0 0 .22 1.53.2 1.5c.3.1.7.2 1 .2c.9 0 1.6-.5 1.6-1.3c0-.7-.4-1-1.2-1.2c0 0-.9-.2-.9-.2c-1.1-.4-1.6-1-1.6-2c0-1.3 1.1-2.1 2.5-2.1c.9 0 1.8.3 2.2.5c0 0 0 .2 0 .2c0 .5-.1 1.2-.3 1.6c.05.02-.7 0-.7 0c0 0-.23-1.47-.2-1.5c-.3 0-.7-.1-1-.1c-.8 0-1.4.4-1.4 1.1c0 .7.4 1 1.1 1.2c0 0 .8.2.8.2c1.2.4 1.9.9 1.9 2.1c0 1.2-1.1 2.1-2.8 2.1c-.9 0-1.9-.2-2.2-.5c0 0 0-.1 0-.1c0-.6.1-1.3.2-1.7zm6.2 1.3c0-.7.3-1.1 1-1.1c.6 0 1 .4 1 1.1c0 .6-.4 1-1 1c-.7 0-1-.4-1-1z" stroke="none" fill="#404040"/></g><g id="Polygon12220"><path d="m280.3 70c0 0 0-1.2 0-1.2c0-.9-.5-1.3-1.4-1.3c-.3 0-.6 0-.9.1c-.05.01-.3 1.5-.3 1.5c0 0-.78-.02-.8 0c-.1-.3-.1-.7-.1-1.1c0-.2 0-.4 0-.5c.7-.5 1.7-.7 2.7-.7c1.4 0 2.1.6 2.1 1.7c0 .9 0 3.2 0 4.6c-.03.02 1 .2 1 .2c0 0-.01.46 0 .5c-.6.1-1.3.3-2.3.3c0 0 0-1.2 0-1.2c-.4.7-1.1 1.2-2 1.2c-1.2 0-2-.7-2-1.8c0-1.8 1.6-2.2 4-2.3zm0 2.5c0 0 0-2 0-2c-1.8.1-2.6.5-2.6 1.5c0 .8.4 1.2 1.2 1.2c.6 0 1.1-.3 1.4-.7zm4.3.7c.03.02 0-5.4 0-5.4l-1-.2c0 0 .01-.5 0-.5c.5-.2 1.4-.3 2.3-.3c0 0 0 1.2 0 1.2c.5-.8 1.4-1.3 2.4-1.3c1.3 0 2.1.8 2.1 2.1c0 0 0 4.4 0 4.4c.5.1.8.1 1.1.3c.03-.04 0 .4 0 .4l-3.5 0c0 0 .05-.44 0-.4c.3-.2.7-.2 1.1-.3c0 0 0-4.1 0-4.1c0-.9-.5-1.3-1.4-1.3c-.7 0-1.3.2-1.8.6c0 0 0 4.8 0 4.8c.5.1.8.1 1.1.3c.03-.04 0 .4 0 .4l-3.5 0c0 0 .05-.44 0-.4c.3-.2.7-.2 1.1-.3zm11.3-6.5c.7 0 1.2.3 1.5.6c.04-.02 0-2.8 0-2.8l-1.2-.3c0 0 .04-.46 0-.5c.6-.1 1.6-.3 2.6-.3c-.04.04 0 9.7 0 9.7l1 .2c0 0-.02.46 0 .5c-.6.1-1.4.3-2.4.3c0 0 0-1.3 0-1.3c-.4.8-1.1 1.3-2.1 1.3c-1.6 0-2.8-1.3-2.8-3.5c0-2.4 1.5-3.9 3.4-3.9zm1.5 5.7c0 0 0-4.7 0-4.7c-.3-.1-.6-.2-1.1-.2c-1.4 0-2.4 1-2.4 2.9c0 1.9.7 2.8 1.9 2.8c.7 0 1.3-.4 1.6-.8zm10.4-2.4c0 0 0-1.2 0-1.2c0-.9-.5-1.3-1.4-1.3c-.3 0-.7 0-1 .1c0 .01-.3 1.5-.3 1.5c0 0-.73-.02-.7 0c-.1-.3-.2-.7-.2-1.1c0-.2 0-.4.1-.5c.6-.5 1.6-.7 2.6-.7c1.5 0 2.2.6 2.2 1.7c0 .9-.1 3.2-.1 4.6c.02.02 1 .2 1 .2c0 0 .04.46 0 .5c-.5.1-1.3.3-2.2.3c0 0 0-1.2 0-1.2c-.4.7-1.2 1.2-2 1.2c-1.3 0-2-.7-2-1.8c0-1.8 1.6-2.2 4-2.3zm0 2.5c0 0 0-2 0-2c-1.8.1-2.7.5-2.7 1.5c0 .8.5 1.2 1.2 1.2c.6 0 1.1-.3 1.5-.7zm3.7-.7c-.02-.02.8 0 .8 0c0 0 .17 1.53.2 1.5c.3.1.6.2 1 .2c.9 0 1.6-.5 1.6-1.3c0-.7-.5-1-1.3-1.2c0 0-.8-.2-.8-.2c-1.1-.4-1.7-1-1.7-2c0-1.3 1.1-2.1 2.6-2.1c.9 0 1.8.3 2.1.5c0 0 0 .2 0 .2c0 .5-.1 1.2-.2 1.6c0 .02-.8 0-.8 0c0 0-.18-1.47-.2-1.5c-.3 0-.6-.1-.9-.1c-.9 0-1.4.4-1.4 1.1c0 .7.3 1 1 1.2c0 0 .9.2.9.2c1.2.4 1.9.9 1.9 2.1c0 1.2-1.2 2.1-2.8 2.1c-.9 0-1.9-.2-2.3-.5c0 0 0-.1 0-.1c.1-.6.1-1.3.3-1.7zm6.2 0c.02-.02.8 0 .8 0c0 0 .21 1.53.2 1.5c.3.1.7.2 1 .2c.9 0 1.6-.5 1.6-1.3c0-.7-.4-1-1.2-1.2c0 0-.9-.2-.9-.2c-1.1-.4-1.6-1-1.6-2c0-1.3 1.1-2.1 2.5-2.1c.9 0 1.8.3 2.2.5c0 0 0 .2 0 .2c0 .5-.1 1.2-.3 1.6c.04.02-.7 0-.7 0c0 0-.24-1.47-.2-1.5c-.4 0-.7-.1-1-.1c-.8 0-1.4.4-1.4 1.1c0 .7.4 1 1.1 1.2c0 0 .8.2.8.2c1.2.4 1.9.9 1.9 2.1c0 1.2-1.1 2.1-2.8 2.1c-.9 0-1.9-.2-2.2-.5c0 0 0-.1 0-.1c0-.6.1-1.3.2-1.7zm7-7.5c0-.2 0-.4 0-.6c.2 0 .5 0 .7 0c.2 0 .4 0 .7 0c0 .2 0 .4 0 .6c0 .5 0 .8-.1 1.1c-.2 0-.4 0-.6 0c-.2 0-.4 0-.6 0c-.1-.3-.1-.6-.1-1.1zm0 8.9c-.02.02 0-5.4 0-5.4l-1-.2c0 0-.04-.5 0-.5c.5-.2 1.3-.3 2.3-.3c0 0 0 6.4 0 6.4c.4.1.8.1 1.1.3c-.02-.04 0 .4 0 .4l-3.5 0c0 0 0-.44 0-.4c.3-.2.7-.2 1.1-.3zm3.6-1.4c-.02-.02.8 0 .8 0c0 0 .17 1.53.2 1.5c.3.1.6.2 1 .2c.9 0 1.6-.5 1.6-1.3c0-.7-.5-1-1.3-1.2c0 0-.8-.2-.8-.2c-1.1-.4-1.7-1-1.7-2c0-1.3 1.1-2.1 2.6-2.1c.9 0 1.8.3 2.1.5c0 0 0 .2 0 .2c0 .5-.1 1.2-.2 1.6c0 .02-.8 0-.8 0c0 0-.18-1.47-.2-1.5c-.3 0-.6-.1-.9-.1c-.9 0-1.4.4-1.4 1.1c0 .7.3 1 1 1.2c0 0 .9.2.9.2c1.2.4 1.9.9 1.9 2.1c0 1.2-1.2 2.1-2.8 2.1c-.9 0-1.9-.2-2.3-.5c0 0 0-.1 0-.1c.1-.6.1-1.3.3-1.7zm5.6-4.6c.2-.1.6-.2 1.1-.3c0 0 .1-1.4.1-1.4c.3-.1.8-.1 1.2-.1c-.04-.04-.1 1.5-.1 1.5l1.9 0l0 .8l-1.9 0c0 0 0 4.44 0 4.4c0 .8.3 1.1.8 1.1c.4 0 .7-.2 1.1-.5c0 0 .3.2.3.2c-.5.8-1.2 1.2-1.9 1.2c-1.1 0-1.7-.6-1.6-1.8c-.02.02 0-4.6 0-4.6l-1 0l0-.5c0 0-.04.02 0 0zm5.6 4.6c0-.02.8 0 .8 0c0 0 .19 1.53.2 1.5c.3.1.7.2 1 .2c.9 0 1.6-.5 1.6-1.3c0-.7-.5-1-1.3-1.2c0 0-.8-.2-.8-.2c-1.1-.4-1.7-1-1.7-2c0-1.3 1.2-2.1 2.6-2.1c.9 0 1.8.3 2.2.5c0 0 0 .2 0 .2c-.1.5-.1 1.2-.3 1.6c.02.02-.8 0-.8 0c0 0-.16-1.47-.2-1.5c-.3 0-.6-.1-.9-.1c-.8 0-1.4.4-1.4 1.1c0 .7.4 1 1 1.2c0 0 .9.2.9.2c1.2.4 1.9.9 1.9 2.1c0 1.2-1.1 2.1-2.8 2.1c-.9 0-1.9-.2-2.2-.5c0 0 0-.1 0-.1c0-.6 0-1.3.2-1.7z" stroke="none" fill="#404040"/></g><g id="Polygon12219"><path d="m161.1 66.9c0 0 0-.9 0-.9c0-1.5.9-2.6 2.7-2.6c.6 0 1.5.2 1.8.3c.1.5.1 1.1-.1 1.6c.03 0-.8 0-.8 0c0 0-.25-1.31-.3-1.3c-.1 0-.2 0-.3 0c-1.2 0-1.7.7-1.7 1.9c.01-.03 0 1 0 1l1.7 0l0 .8l-1.7 0c0 0 .01 5.52 0 5.5c.5.1 1 .1 1.4.3c-.01-.04 0 .4 0 .4l-3.8 0c0 0 .01-.44 0-.4c.3-.2.7-.2 1.1-.3c-.01.02 0-5.5 0-5.5l-1 0c0 0-.03-.48 0-.5c.1-.1.5-.2 1-.3zm7-.1c1.7 0 2.6.9 2.6 2.6c0 .3 0 .4 0 .8c-.01-.04-4.5 0-4.5 0c0 0-.01.08 0 .1c0 2 1 2.8 2.3 2.8c.7 0 1.3-.4 1.8-.9c0 0 .3.2.3.2c-.5 1-1.3 1.7-2.6 1.7c-1.8 0-3.2-1.1-3.2-3.6c0-2.4 1.5-3.7 3.3-3.7zm-1.9 2.7c.03 0 3.2 0 3.2 0c0 0 .03-.24 0-.2c0-1.3-.5-1.8-1.4-1.8c-.8 0-1.6.5-1.8 2zm9-2.7c1.7 0 2.7.9 2.7 2.6c0 .3 0 .4-.1.8c.03-.04-4.5 0-4.5 0c0 0 .03.08 0 .1c0 2 1 2.8 2.3 2.8c.8 0 1.4-.4 1.9-.9c0 0 .3.2.3.2c-.5 1-1.4 1.7-2.6 1.7c-1.8 0-3.3-1.1-3.3-3.6c0-2.4 1.5-3.7 3.3-3.7zm-1.8 2.7c-.03 0 3.2 0 3.2 0c0 0-.03-.24 0-.2c0-1.3-.6-1.8-1.4-1.8c-.9 0-1.6.5-1.8 2zm6.3 3.7c.05.02 0-8.7 0-8.7l-1-.3c0 0 .03-.46 0-.5c.6-.1 1.4-.3 2.4-.3c0 0 0 9.8 0 9.8c.4.1.7.1 1 .3c.05-.04 0 .4 0 .4l-3.4 0c0 0-.03-.44 0-.4c.3-.2.6-.2 1-.3zm4.4-8.9c0-.2.1-.4.1-.6c.2 0 .4 0 .6 0c.3 0 .5 0 .7 0c0 .2.1.4.1.6c0 .5-.1.8-.2 1.1c-.1 0-.4 0-.6 0c-.1 0-.4 0-.6 0c0-.3-.1-.6-.1-1.1zm0 8.9c.03.02 0-5.4 0-5.4l-1-.2c0 0 .01-.5 0-.5c.5-.2 1.4-.3 2.3-.3c0 0 0 6.4 0 6.4c.5.1.8.1 1.1.3c.03-.04 0 .4 0 .4l-3.5 0c0 0 .05-.44 0-.4c.3-.2.7-.2 1.1-.3zm4.3 0c.05.02 0-5.4 0-5.4l-1-.2c0 0 .03-.5 0-.5c.6-.2 1.4-.3 2.4-.3c0 0 0 1.2 0 1.2c.4-.8 1.3-1.3 2.4-1.3c1.2 0 2.1.8 2.1 2.1c0 0 0 4.4 0 4.4c.4.1.7.1 1 .3c.05-.04 0 .4 0 .4l-3.4 0c0 0-.03-.44 0-.4c.3-.2.6-.2 1-.3c0 0 0-4.1 0-4.1c0-.9-.4-1.3-1.4-1.3c-.7 0-1.3.2-1.7.6c0 0 0 4.8 0 4.8c.4.1.7.1 1 .3c.05-.04 0 .4 0 .4l-3.4 0c0 0-.03-.44 0-.4c.3-.2.6-.2 1-.3zm9.1.3c-.4-.1-.6-.5-.6-1c0-.6.3-1 .8-1.3c-.8-.4-1.3-1.1-1.3-2.1c0-1.5 1.2-2.4 2.8-2.4c.7 0 1.3.1 1.9.5c.4-.2.9-.4 1.6-.4c0 .2 0 .4 0 .5c0 .2 0 .4 0 .5c0 0-1.2 0-1.2 0c.3.3.4.7.4 1.2c0 1.5-1 2.4-2.9 2.4c-.4 0-.7 0-1-.1c-.1.2-.1.4-.1.7c0 .4.1.6.6.6c0 0 2.1 0 2.1 0c1.3 0 2 .6 2 1.8c0 1.5-1.5 2.5-3.5 2.5c-2.1 0-3-.7-3-1.9c0-.7.5-1.2 1.4-1.5zm1.6-2.7c1 0 1.5-.5 1.5-1.8c0-1.1-.6-1.7-1.5-1.7c-.8 0-1.4.5-1.4 1.6c0 1.3.6 1.9 1.4 1.9c0 0 0 0 0 0zm-1.5 2.9c-.2.3-.3.6-.3 1.1c0 .9.6 1.4 1.8 1.4c1.5 0 2.4-.5 2.4-1.5c0-.6-.5-1-1.2-1c-.03 0-2.7 0-2.7 0c0 0 .03 0 0 0zm12.4-6.9c2.1 0 3.2 1.2 3.2 3.6c0 2.3-1.4 3.7-3.4 3.7c-2.1 0-3.1-1.2-3.1-3.6c0-2.4 1.3-3.7 3.3-3.7zm1.7 3.7c0-2-.6-3-1.8-3c-1.1 0-1.8.7-1.8 2.8c0 2.1.7 3.1 1.8 3.1c1.1 0 1.8-.8 1.8-2.9zm3.4-3.6c0 0 0-.9 0-.9c0-1.5 1-2.6 2.7-2.6c.7 0 1.5.2 1.9.3c.1.5 0 1.1-.1 1.6c-.01 0-.8 0-.8 0c0 0-.29-1.31-.3-1.3c-.1 0-.2 0-.3 0c-1.2 0-1.7.7-1.7 1.9c-.03-.03 0 1 0 1l1.7 0l0 .8l-1.7 0c0 0-.03 5.52 0 5.5c.5.1 1 .1 1.3.3c.05-.04 0 .4 0 .4l-3.7 0c0 0-.03-.44 0-.4c.3-.2.6-.2 1-.3c.05.02 0-5.5 0-5.5l-1 0c0 0 .03-.48 0-.5c.2-.1.6-.2 1-.3zm7.4 4.9c-.03-.02.7 0 .7 0c0 0 .26 1.53.3 1.5c.3.1.6.2.9.2c.9 0 1.7-.5 1.7-1.3c0-.7-.5-1-1.3-1.2c0 0-.8-.2-.8-.2c-1.1-.4-1.7-1-1.7-2c0-1.3 1.1-2.1 2.6-2.1c.9 0 1.8.3 2.1.5c0 0 0 .2 0 .2c0 .5-.1 1.2-.2 1.6c-.01.02-.8 0-.8 0c0 0-.19-1.47-.2-1.5c-.3 0-.6-.1-.9-.1c-.9 0-1.4.4-1.4 1.1c0 .7.3 1 1 1.2c0 0 .8.2.8.2c1.3.4 2 .9 2 2.1c0 1.2-1.2 2.1-2.9 2.1c-.9 0-1.8-.2-2.2-.5c0 0 0-.1 0-.1c0-.6.1-1.3.3-1.7zm9.3-5c2 0 3.1 1.2 3.1 3.6c0 2.3-1.4 3.7-3.3 3.7c-2.1 0-3.1-1.2-3.1-3.6c0-2.4 1.3-3.7 3.3-3.7zm1.7 3.7c0-2-.6-3-1.8-3c-1.1 0-1.8.7-1.8 2.8c0 2.1.7 3.1 1.8 3.1c1.1 0 1.8-.8 1.8-2.9zm3.3 2.7c.01.02 0-8.7 0-8.7l-1-.3c0 0-.01-.46 0-.5c.5-.1 1.4-.3 2.3-.3c0 0 0 9.8 0 9.8c.4.1.8.1 1.1.3c.01-.04 0 .4 0 .4l-3.5 0c0 0 .03-.44 0-.4c.3-.2.7-.2 1.1-.3zm4.4-8.9c0-.2 0-.4 0-.6c.3 0 .5 0 .7 0c.2 0 .5 0 .7 0c0 .2 0 .4 0 .6c0 .5 0 .8-.1 1.1c-.2 0-.4 0-.6 0c-.2 0-.4 0-.6 0c-.1-.3-.1-.6-.1-1.1zm0 8.9c-.01.02 0-5.4 0-5.4l-1-.2c0 0-.03-.5 0-.5c.5-.2 1.3-.3 2.3-.3c0 0 0 6.4 0 6.4c.4.1.8.1 1.1.3c-.01-.04 0 .4 0 .4l-3.5 0c0 0 .01-.44 0-.4c.3-.2.7-.2 1.1-.3zm3-6c.2-.1.6-.2 1.1-.3c0 0 .1-1.4.1-1.4c.3-.1.8-.1 1.2-.1c-.01-.04 0 1.5 0 1.5l1.8 0l0 .8l-1.8 0c0 0-.07 4.44-.1 4.4c0 .8.3 1.1.9 1.1c.3 0 .6-.2 1-.5c0 0 .3.2.3.2c-.5.8-1.1 1.2-1.9 1.2c-1 0-1.6-.6-1.6-1.8c.01.02.1-4.6.1-4.6l-1.1 0l0-.5c0 0-.01.02 0 0zm5 .4c0 0-.03-.5 0-.5c.5-.2 1.3-.3 2.3-.3c0 0 0 5 0 5c0 .9.4 1.4 1.3 1.4c.8 0 1.5-.3 1.9-.7c-.01-.05 0-4.7 0-4.7l-1-.2c0 0-.03-.5 0-.5c.5-.2 1.3-.3 2.3-.3c.01 0 0 6.3 0 6.3l1 .2c0 0 .03.46 0 .5c-.5.1-1.4.3-2.3.3c0 0 0-1.2 0-1.2c-.5.8-1.4 1.2-2.4 1.2c-1.3 0-2.1-.7-2.1-2c-.01-.02 0-4.3 0-4.3l-1-.2zm12.3-.9c.7 0 1.2.3 1.5.6c.03-.02 0-2.8 0-2.8l-1.2-.3c0 0 .03-.46 0-.5c.6-.1 1.6-.3 2.5-.3c.05.04 0 9.7 0 9.7l1.1.2c0 0-.03.46 0 .5c-.6.1-1.4.3-2.4.3c0 0 0-1.3 0-1.3c-.4.8-1.2 1.3-2.1 1.3c-1.7 0-2.8-1.3-2.8-3.5c0-2.4 1.4-3.9 3.4-3.9zm1.5 5.7c0 0 0-4.7 0-4.7c-.3-.1-.6-.2-1.1-.2c-1.5 0-2.4 1-2.4 2.9c0 1.9.7 2.8 1.9 2.8c.7 0 1.3-.4 1.6-.8zm6.5-5.6c1.7 0 2.6.9 2.6 2.6c0 .3 0 .4 0 .8c-.01-.04-4.5 0-4.5 0c0 0-.01.08 0 .1c0 2 1 2.8 2.3 2.8c.7 0 1.3-.4 1.8-.9c0 0 .3.2.3.2c-.5 1-1.3 1.7-2.6 1.7c-1.8 0-3.2-1.1-3.2-3.6c0-2.4 1.5-3.7 3.3-3.7zm-1.9 2.7c.03 0 3.2 0 3.2 0c0 0 .03-.24 0-.2c0-1.3-.5-1.8-1.4-1.8c-.8 0-1.6.5-1.8 2z" stroke="none" fill="#00aa32"/></g><g id="Polygon12218"><path d="m23.9 66.8c1.7 0 2.6.9 2.6 2.6c0 .3 0 .4 0 .8c-.02-.04-4.5 0-4.5 0c0 0-.02.08 0 .1c0 2 1 2.8 2.3 2.8c.7 0 1.3-.4 1.8-.9c0 0 .3.2.3.2c-.5 1-1.3 1.7-2.6 1.7c-1.8 0-3.2-1.1-3.2-3.6c0-2.4 1.5-3.7 3.3-3.7zm-1.9 2.7c.02 0 3.2 0 3.2 0c0 0 .02-.24 0-.2c0-1.3-.5-1.8-1.4-1.8c-.8 0-1.6.5-1.8 2zm6.6 3.7c.04.02 0-5.4 0-5.4l-1-.2c0 0 .02-.5 0-.5c.6-.2 1.4-.3 2.4-.3c0 0 0 1.2 0 1.2c.4-.8 1.3-1.3 2.4-1.3c1.2 0 2.1.8 2.1 2.1c0 0 0 4.4 0 4.4c.4.1.7.1 1 .3c.04-.04 0 .4 0 .4l-3.4 0c0 0-.04-.44 0-.4c.3-.2.6-.2 1-.3c0 0 0-4.1 0-4.1c0-.9-.4-1.3-1.4-1.3c-.7 0-1.3.2-1.7.6c0 0 0 4.8 0 4.8c.4.1.7.1 1 .3c.04-.04 0 .4 0 .4l-3.4 0c0 0-.04-.44 0-.4c.3-.2.6-.2 1-.3zm8.8 0c0 .02 0-8.7 0-8.7l-1-.3c0 0-.02-.46 0-.5c.5-.1 1.4-.3 2.3-.3c0 0 0 4.6 0 4.6c.5-.8 1.4-1.3 2.4-1.3c1.3 0 2.1.8 2.1 2.1c0 0 0 4.4 0 4.4c.4.1.8.1 1.1.3c0-.04 0 .4 0 .4l-3.5 0c0 0 .02-.44 0-.4c.3-.2.7-.2 1.1-.3c0 0 0-4.1 0-4.1c0-.9-.5-1.3-1.4-1.3c-.7 0-1.4.2-1.8.6c0 0 0 4.8 0 4.8c.4.1.8.1 1.1.3c0-.04 0 .4 0 .4l-3.5 0c0 0 .02-.44 0-.4c.3-.2.7-.2 1.1-.3zm11.8-3.2c0 0 0-1.2 0-1.2c0-.9-.5-1.3-1.4-1.3c-.3 0-.6 0-.9.1c-.04.01-.3 1.5-.3 1.5c0 0-.77-.02-.8 0c-.1-.3-.1-.7-.1-1.1c0-.2 0-.4 0-.5c.7-.5 1.7-.7 2.7-.7c1.4 0 2.1.6 2.1 1.7c0 .9 0 3.2 0 4.6c-.02.02 1 .2 1 .2c0 0 0 .46 0 .5c-.5.1-1.3.3-2.3.3c0 0 0-1.2 0-1.2c-.4.7-1.1 1.2-2 1.2c-1.2 0-1.9-.7-1.9-1.8c0-1.8 1.5-2.2 3.9-2.3zm0 2.5c0 0 0-2 0-2c-1.8.1-2.6.5-2.6 1.5c0 .8.4 1.2 1.2 1.2c.6 0 1.1-.3 1.4-.7zm4.3.7c.04.02 0-5.4 0-5.4l-1-.2c0 0 .02-.5 0-.5c.6-.2 1.4-.3 2.4-.3c0 0 0 1.2 0 1.2c.4-.8 1.3-1.3 2.4-1.3c1.2 0 2.1.8 2.1 2.1c0 0 0 4.4 0 4.4c.4.1.7.1 1 .3c.04-.04 0 .4 0 .4l-3.4 0c0 0-.04-.44 0-.4c.3-.2.6-.2 1-.3c0 0 0-4.1 0-4.1c0-.9-.4-1.3-1.4-1.3c-.7 0-1.3.2-1.7.6c0 0 0 4.8 0 4.8c.4.1.7.1 1 .3c.04-.04 0 .4 0 .4l-3.4 0c0 0-.04-.44 0-.4c.3-.2.6-.2 1-.3zm11.3-6.4c.8 0 1.6.2 2 .5c0 .5-.1 1.3-.3 1.8c.03-.02-.8 0-.8 0c0 0-.16-1.57-.2-1.6c-.2 0-.5 0-.7 0c-1.1 0-2.1.7-2.1 2.8c0 1.8.9 2.8 2.1 2.8c.8 0 1.4-.4 1.8-.9c0 0 .3.2.3.2c-.4 1-1.2 1.7-2.5 1.7c-1.8 0-3-1.3-3-3.6c0-2.4 1.5-3.7 3.4-3.7zm6.4 0c1.7 0 2.6.9 2.6 2.6c0 .3 0 .4 0 .8c-.01-.04-4.5 0-4.5 0c0 0-.01.08 0 .1c0 2 1 2.8 2.3 2.8c.8 0 1.3-.4 1.8-.9c0 0 .3.2.3.2c-.5 1-1.3 1.7-2.6 1.7c-1.8 0-3.2-1.1-3.2-3.6c0-2.4 1.5-3.7 3.3-3.7zm-1.9 2.7c.03 0 3.2 0 3.2 0c0 0 .03-.24 0-.2c0-1.3-.5-1.8-1.4-1.8c-.8 0-1.6.5-1.8 2zm6.1 2.3c-.05-.02.7 0 .7 0c0 0 .24 1.53.2 1.5c.4.1.7.2 1 .2c.9 0 1.7-.5 1.7-1.3c0-.7-.5-1-1.3-1.2c0 0-.9-.2-.9-.2c-1-.4-1.6-1-1.6-2c0-1.3 1.1-2.1 2.5-2.1c1 0 1.8.3 2.2.5c0 0 0 .2 0 .2c0 .5-.1 1.2-.2 1.6c-.03.02-.8 0-.8 0c0 0-.2-1.47-.2-1.5c-.3 0-.7-.1-1-.1c-.8 0-1.4.4-1.4 1.1c0 .7.4 1 1.1 1.2c0 0 .8.2.8.2c1.3.4 1.9.9 1.9 2.1c0 1.2-1.1 2.1-2.8 2.1c-.9 0-1.8-.2-2.2-.5c0 0 0-.1 0-.1c0-.6.1-1.3.3-1.7zm8.7-4.6c.2-.1.6-.2 1.1-.3c0 0 .1-1.4.1-1.4c.3-.1.8-.1 1.2-.1c.01-.04 0 1.5 0 1.5l1.8 0l0 .8l-1.8 0c0 0-.05 4.44-.1 4.4c0 .8.3 1.1.9 1.1c.4 0 .6-.2 1-.5c0 0 .3.2.3.2c-.4.8-1.1 1.2-1.9 1.2c-1 0-1.6-.6-1.6-1.8c.03.02.1-4.6.1-4.6l-1.1 0l0-.5c0 0 .01.02 0 0zm6.1 6c-.03.02 0-8.7 0-8.7l-1-.3c0 0-.05-.46 0-.5c.5-.1 1.3-.3 2.3-.3c0 0 0 4.6 0 4.6c.4-.8 1.3-1.3 2.4-1.3c1.2 0 2.1.8 2.1 2.1c0 0 0 4.4 0 4.4c.4.1.8.1 1.1.3c-.03-.04 0 .4 0 .4l-3.5 0c0 0-.01-.44 0-.4c.3-.2.7-.2 1.1-.3c0 0 0-4.1 0-4.1c0-.9-.5-1.3-1.5-1.3c-.7 0-1.3.2-1.7.6c0 0 0 4.8 0 4.8c.4.1.8.1 1.1.3c-.03-.04 0 .4 0 .4l-3.5 0c0 0-.01-.44 0-.4c.3-.2.7-.2 1.1-.3zm11.1-6.4c1.7 0 2.6.9 2.6 2.6c0 .3 0 .4 0 .8c-.02-.04-4.5 0-4.5 0c0 0-.02.08 0 .1c0 2 1 2.8 2.3 2.8c.7 0 1.3-.4 1.8-.9c0 0 .3.2.3.2c-.5 1-1.3 1.7-2.6 1.7c-1.8 0-3.2-1.1-3.2-3.6c0-2.4 1.5-3.7 3.3-3.7zm-1.9 2.7c.02 0 3.2 0 3.2 0c0 0 .02-.24 0-.2c0-1.3-.5-1.8-1.4-1.8c-.8 0-1.6.5-1.8 2zm9.8-5.2c0-.2 0-.4 0-.6c.2 0 .4 0 .7 0c.2 0 .4 0 .6 0c.1.2.1.4.1.6c0 .5-.1.8-.1 1.1c-.2 0-.4 0-.6 0c-.2 0-.4 0-.6 0c-.1-.3-.1-.6-.1-1.1zm0 8.9c-.04.02 0-5.4 0-5.4l-1.1-.2c0 0 .04-.5 0-.5c.6-.2 1.4-.3 2.4-.3c0 0 0 6.4 0 6.4c.4.1.8.1 1.1.3c-.04-.04 0 .4 0 .4l-3.5 0c0 0-.02-.44 0-.4c.3-.2.6-.2 1.1-.3zm3.6-1.4c-.04-.02.7 0 .7 0c0 0 .25 1.53.2 1.5c.4.1.7.2 1 .2c.9 0 1.7-.5 1.7-1.3c0-.7-.5-1-1.3-1.2c0 0-.8-.2-.8-.2c-1.1-.4-1.7-1-1.7-2c0-1.3 1.1-2.1 2.6-2.1c.9 0 1.8.3 2.1.5c0 0 0 .2 0 .2c0 .5-.1 1.2-.2 1.6c-.02.02-.8 0-.8 0c0 0-.2-1.47-.2-1.5c-.3 0-.6-.1-.9-.1c-.9 0-1.5.4-1.5 1.1c0 .7.4 1 1.1 1.2c0 0 .8.2.8.2c1.3.4 2 .9 2 2.1c0 1.2-1.2 2.1-2.9 2.1c-.9 0-1.8-.2-2.2-.5c0 0 0-.1 0-.1c0-.6.1-1.3.3-1.7zm6.7 1.4c-.02.02 0-8.7 0-8.7l-1-.3c0 0-.04-.46 0-.5c.5-.1 1.3-.3 2.3-.3c0 0 0 9.8 0 9.8c.4.1.8.1 1.1.3c-.02-.04 0 .4 0 .4l-3.5 0c0 0 0-.44 0-.4c.3-.2.7-.2 1.1-.3zm7.3-3.2c0 0 0-1.2 0-1.2c0-.9-.5-1.3-1.4-1.3c-.3 0-.6 0-1 .1c.04.01-.2 1.5-.2 1.5c0 0-.79-.02-.8 0c-.1-.3-.1-.7-.1-1.1c0-.2 0-.4 0-.5c.7-.5 1.7-.7 2.7-.7c1.4 0 2.1.6 2.1 1.7c0 .9 0 3.2 0 4.6c-.04.02 1 .2 1 .2c0 0-.02.46 0 .5c-.6.1-1.3.3-2.3.3c0 0 0-1.2 0-1.2c-.4.7-1.1 1.2-2 1.2c-1.2 0-2-.7-2-1.8c0-1.8 1.6-2.2 4-2.3zm0 2.5c0 0 0-2 0-2c-1.8.1-2.6.5-2.6 1.5c0 .8.4 1.2 1.2 1.2c.5 0 1.1-.3 1.4-.7zm4.3.7c.02.02 0-5.4 0-5.4l-1-.2c0 0 0-.5 0-.5c.5-.2 1.4-.3 2.3-.3c0 0 0 1.2 0 1.2c.5-.8 1.4-1.3 2.4-1.3c1.3 0 2.1.8 2.1 2.1c0 0 0 4.4 0 4.4c.5.1.8.1 1.1.3c.02-.04 0 .4 0 .4l-3.5 0c0 0 .04-.44 0-.4c.3-.2.7-.2 1.1-.3c0 0 0-4.1 0-4.1c0-.9-.5-1.3-1.4-1.3c-.7 0-1.3.2-1.8.6c0 0 0 4.8 0 4.8c.5.1.8.1 1.1.3c.02-.04 0 .4 0 .4l-3.5 0c0 0 .04-.44 0-.4c.3-.2.7-.2 1.1-.3zm11.3-6.5c.7 0 1.2.3 1.5.6c.03-.02 0-2.8 0-2.8l-1.2-.3c0 0 .03-.46 0-.5c.6-.1 1.6-.3 2.5-.3c.05.04 0 9.7 0 9.7l1.1.2c0 0-.03.46 0 .5c-.6.1-1.4.3-2.4.3c0 0 0-1.3 0-1.3c-.4.8-1.2 1.3-2.1 1.3c-1.7 0-2.8-1.3-2.8-3.5c0-2.4 1.4-3.9 3.4-3.9zm1.5 5.7c0 0 0-4.7 0-4.7c-.3-.1-.6-.2-1.1-.2c-1.5 0-2.4 1-2.4 2.9c0 1.9.7 2.8 1.9 2.8c.7 0 1.3-.4 1.6-.8zm3.7-.6c-.01-.02.8 0 .8 0c0 0 .18 1.53.2 1.5c.3.1.7.2 1 .2c.9 0 1.6-.5 1.6-1.3c0-.7-.5-1-1.3-1.2c0 0-.8-.2-.8-.2c-1.1-.4-1.7-1-1.7-2c0-1.3 1.1-2.1 2.6-2.1c.9 0 1.8.3 2.1.5c0 0 0 .2 0 .2c0 .5 0 1.2-.2 1.6c.01.02-.8 0-.8 0c0 0-.17-1.47-.2-1.5c-.3 0-.6-.1-.9-.1c-.9 0-1.4.4-1.4 1.1c0 .7.4 1 1 1.2c0 0 .9.2.9.2c1.2.4 1.9.9 1.9 2.1c0 1.2-1.2 2.1-2.8 2.1c-.9 0-1.9-.2-2.2-.5c0 0 0-.1 0-.1c0-.6 0-1.3.2-1.7zm7.2-7.6c.6 0 1 .5 1 1.4c0 .7-.4 2.1-1.7 2.6c0 0-.3-.5-.3-.5c.6-.3 1-1 1-1.7c-.1 0-.1 0-.2 0c-.4-.1-.8-.4-.8-.9c0-.5.3-.9 1-.9z" stroke="none" fill="#404040"/></g><g id="Polygon12217"><path d="m21.6 52.2c-.04.02 0-5.4 0-5.4l-1.1-.2c0 0 .04-.5 0-.5c.6-.2 1.4-.3 2.4-.3c0 0 0 1.2 0 1.2c.4-.8 1.3-1.3 2.4-1.3c1.2 0 2.1.8 2.1 2.1c0 0 0 4.4 0 4.4c.4.1.8.1 1.1.3c-.04-.04 0 .4 0 .4l-3.5 0c0 0-.02-.44 0-.4c.3-.2.6-.2 1.1-.3c0 0 0-4.1 0-4.1c0-.9-.5-1.3-1.5-1.3c-.7 0-1.3.2-1.7.6c0 0 0 4.8 0 4.8c.4.1.8.1 1.1.3c-.04-.04 0 .4 0 .4l-3.5 0c0 0-.02-.44 0-.4c.3-.2.6-.2 1.1-.3zm11.8-3.2c0 0 0-1.2 0-1.2c0-.9-.5-1.3-1.4-1.3c-.3 0-.6 0-1 .1c.02.01-.2 1.5-.2 1.5c0 0-.81-.02-.8 0c-.1-.3-.2-.7-.2-1.1c0-.2.1-.4.1-.5c.7-.5 1.7-.7 2.6-.7c1.5 0 2.2.6 2.2 1.7c0 .9-.1 3.2-.1 4.6c.04.02 1.1.2 1.1.2c0 0-.04.46 0 .5c-.6.1-1.4.3-2.3.3c0 0 0-1.2 0-1.2c-.4.7-1.1 1.2-2 1.2c-1.2 0-2-.7-2-1.8c0-1.8 1.6-2.2 4-2.3zm0 2.5c0 0 0-2 0-2c-1.8.1-2.7.5-2.7 1.5c0 .8.5 1.2 1.2 1.2c.6 0 1.2-.3 1.5-.7zm2.7-5.3c.2-.1.6-.2 1.2-.3c0 0 0-1.4 0-1.4c.3-.1.9-.1 1.2-.1c.04-.04 0 1.5 0 1.5l1.8 0l0 .8l-1.8 0c0 0-.02 4.44 0 4.4c0 .8.3 1.1.8 1.1c.4 0 .7-.2 1-.5c0 0 .3.2.3.2c-.4.8-1.1 1.2-1.8 1.2c-1.1 0-1.7-.6-1.6-1.8c-.04.02 0-4.6 0-4.6l-1.1 0l0-.5c0 0 .04.02 0 0zm6.2-2.9c0-.2.1-.4.1-.6c.2 0 .4 0 .6 0c.3 0 .5 0 .7 0c0 .2.1.4.1.6c0 .5-.1.8-.2 1.1c-.1 0-.4 0-.6 0c-.1 0-.4 0-.6 0c0-.3-.1-.6-.1-1.1zm0 8.9c.02.02 0-5.4 0-5.4l-1-.2c0 0 0-.5 0-.5c.5-.2 1.4-.3 2.3-.3c0 0 0 6.4 0 6.4c.5.1.8.1 1.1.3c.02-.04 0 .4 0 .4l-3.5 0c0 0 .04-.44 0-.4c.3-.2.7-.2 1.1-.3zm6.4-6.4c2.1 0 3.2 1.2 3.2 3.6c0 2.3-1.4 3.7-3.3 3.7c-2.1 0-3.2-1.2-3.2-3.6c0-2.4 1.3-3.7 3.3-3.7zm1.8 3.7c0-2-.6-3-1.8-3c-1.1 0-1.8.7-1.8 2.8c0 2.1.6 3.1 1.8 3.1c1.1 0 1.8-.8 1.8-2.9zm3.5 2.7c-.04.02 0-5.4 0-5.4l-1.1-.2c0 0 .04-.5 0-.5c.6-.2 1.4-.3 2.4-.3c0 0 0 1.2 0 1.2c.4-.8 1.3-1.3 2.4-1.3c1.2 0 2.1.8 2.1 2.1c0 0 0 4.4 0 4.4c.4.1.8.1 1.1.3c-.04-.04 0 .4 0 .4l-3.5 0c0 0-.02-.44 0-.4c.3-.2.6-.2 1.1-.3c0 0 0-4.1 0-4.1c0-.9-.5-1.3-1.5-1.3c-.7 0-1.3.2-1.7.6c0 0 0 4.8 0 4.8c.4.1.8.1 1.1.3c-.04-.04 0 .4 0 .4l-3.5 0c0 0-.02-.44 0-.4c.3-.2.6-.2 1.1-.3zm11.8-3.2c0 0 0-1.2 0-1.2c0-.9-.5-1.3-1.4-1.3c-.3 0-.6 0-1 .1c.02.01-.2 1.5-.2 1.5c0 0-.81-.02-.8 0c-.1-.3-.2-.7-.2-1.1c0-.2.1-.4.1-.5c.7-.5 1.7-.7 2.6-.7c1.5 0 2.2.6 2.2 1.7c0 .9-.1 3.2-.1 4.6c.04.02 1.1.2 1.1.2c0 0-.04.46 0 .5c-.6.1-1.4.3-2.3.3c0 0 0-1.2 0-1.2c-.4.7-1.1 1.2-2 1.2c-1.2 0-2-.7-2-1.8c0-1.8 1.6-2.2 4-2.3zm0 2.5c0 0 0-2 0-2c-1.8.1-2.7.5-2.7 1.5c0 .8.5 1.2 1.2 1.2c.6 0 1.2-.3 1.5-.7zm4.2.7c.04.02 0-8.7 0-8.7l-1-.3c0 0 .02-.46 0-.5c.6-.1 1.4-.3 2.4-.3c0 0 0 9.8 0 9.8c.4.1.7.1 1 .3c.04-.04 0 .4 0 .4l-3.4 0c0 0-.04-.44 0-.4c.3-.2.6-.2 1-.3zm7.3 2.8c0 .04 0-8.2 0-8.2l-1-.2c0 0-.02-.5 0-.5c.5-.2 1.4-.3 2.3-.3c0 0 0 1.3 0 1.3c.4-.8 1.3-1.4 2.2-1.4c1.7 0 2.7 1.2 2.7 3.5c0 2.4-1.4 3.9-3.3 3.9c-.6 0-1.2-.2-1.6-.5c0 0 0 2.4 0 2.4c.6.1.9.2 1.3.3c-.02-.02 0 .5 0 .5l-3.7 0c0 0 .02-.52 0-.5c.3-.1.7-.2 1.1-.3zm1.3-7.5c0 0 0 4.7 0 4.7c.3.1.7.1 1.2.1c1.4 0 2.4-1 2.4-3c0-1.8-.8-2.6-1.9-2.6c-.7 0-1.3.3-1.7.8zm10.2 1.5c0 0 0-1.2 0-1.2c0-.9-.5-1.3-1.4-1.3c-.3 0-.6 0-.9.1c-.04.01-.3 1.5-.3 1.5c0 0-.77-.02-.8 0c-.1-.3-.1-.7-.1-1.1c0-.2 0-.4 0-.5c.7-.5 1.7-.7 2.7-.7c1.4 0 2.1.6 2.1 1.7c0 .9 0 3.2 0 4.6c-.02.02 1 .2 1 .2c0 0 0 .46 0 .5c-.5.1-1.3.3-2.3.3c0 0 0-1.2 0-1.2c-.4.7-1.1 1.2-2 1.2c-1.2 0-1.9-.7-1.9-1.8c0-1.8 1.5-2.2 3.9-2.3zm0 2.5c0 0 0-2 0-2c-1.8.1-2.6.5-2.6 1.5c0 .8.4 1.2 1.2 1.2c.6 0 1.1-.3 1.4-.7zm4.3.7c.04.02 0-5.4 0-5.4l-1-.2c0 0 .02-.5 0-.5c.6-.2 1.4-.3 2.4-.3c0 0 0 1.1 0 1.1c.3-.7 1.2-1.1 2-1.1c.3 0 .6.1.8.1c0 .8-.1 1.7-.2 2.1c0 .02-.8 0-.8 0l-.2-1.3c0 0-.05 0-.1 0c-.5 0-1.2.3-1.5.7c0 0 0 4.8 0 4.8c.5.1 1 .1 1.3.3c.04-.04 0 .4 0 .4l-3.7 0c0 0-.04-.44 0-.4c.3-.2.6-.2 1-.3zm5.6 0c-.02.02 0-8.7 0-8.7l-1-.3c0 0-.04-.46 0-.5c.5-.1 1.3-.3 2.3-.3c0 0 0 9.8 0 9.8c.4.1.8.1 1.1.3c-.03-.04 0 .4 0 .4l-3.5 0c0 0 0-.44 0-.4c.3-.2.7-.2 1.1-.3zm4.1-5.6c-.5 0-.8-.1-1.1-.2c-.02 0 0-.5 0-.5l3.3 0c0 0-.03.5 0 .5c-.3.1-.7.2-1.1.2c.04.04-2.4 2.3-2.4 2.3c0 0 2.81 3.35 2.8 3.4c.3 0 .6.1.8.2c-.01-.04 0 .4 0 .4l-3.2 0c0 0-.04-.44 0-.4c.2-.1.5-.2.8-.3c-.01.04-2.5-2.9-2.5-2.9l0-.1c0 0 2.55-2.56 2.6-2.6zm3.4 4.2c.03-.02.8 0 .8 0c0 0 .22 1.53.2 1.5c.4.1.7.2 1 .2c.9 0 1.6-.5 1.6-1.3c0-.7-.4-1-1.2-1.2c0 0-.9-.2-.9-.2c-1-.4-1.6-1-1.6-2c0-1.3 1.1-2.1 2.5-2.1c.9 0 1.8.3 2.2.5c0 0 0 .2 0 .2c0 .5-.1 1.2-.2 1.6c-.05.02-.8 0-.8 0c0 0-.22-1.47-.2-1.5c-.3 0-.7-.1-1-.1c-.8 0-1.4.4-1.4 1.1c0 .7.4 1 1.1 1.2c0 0 .8.2.8.2c1.2.4 1.9.9 1.9 2.1c0 1.2-1.1 2.1-2.8 2.1c-.9 0-1.8-.2-2.2-.5c0 0 0-.1 0-.1c0-.6.1-1.3.2-1.7zm6.2 1.3c0-.7.3-1.1 1-1.1c.6 0 1 .4 1 1.1c0 .6-.4 1-1 1c-.7 0-1-.4-1-1zm6.2-7.7c0-.4 0-.7.1-1.1c0 0 7.8 0 7.8 0c.1.4.1.7.1 1.1c0 .4 0 1.1-.1 1.5c.01-.04-.6 0-.6 0l-.4-1.8l-2.2 0c0 0 .03 8.06 0 8.1c.6 0 1.2.1 1.5.2c.03 0 0 .5 0 .5l-4.4 0c0 0-.01-.5 0-.5c.3-.1.9-.2 1.5-.2c-.01-.04 0-8.1 0-8.1l-2.2 0l-.3 1.8c0 0-.69-.04-.7 0c-.1-.4-.1-1.1-.1-1.5zm9.8 7.8c.03.02 0-8.7 0-8.7l-1-.3c0 0 .01-.46 0-.5c.6-.1 1.4-.3 2.4-.3c0 0 0 4.6 0 4.6c.4-.8 1.3-1.3 2.4-1.3c1.2 0 2.1.8 2.1 2.1c0 0 0 4.4 0 4.4c.4.1.7.1 1 .3c.03-.04 0 .4 0 .4l-3.4 0c0 0-.05-.44 0-.4c.3-.2.6-.2 1-.3c0 0 0-4.1 0-4.1c0-.9-.4-1.3-1.4-1.3c-.7 0-1.3.2-1.7.6c0 0 0 4.8 0 4.8c.4.1.7.1 1 .3c.03-.04 0 .4 0 .4l-3.4 0c0 0-.05-.44 0-.4c.3-.2.6-.2 1-.3zm11.2-6.4c1.6 0 2.6.9 2.6 2.6c0 .3 0 .4-.1.8c.04-.04-4.5 0-4.5 0c0 0 .04.08 0 .1c0 2 1.1 2.8 2.3 2.8c.8 0 1.4-.4 1.9-.9c0 0 .3.2.3.2c-.5 1-1.3 1.7-2.6 1.7c-1.8 0-3.2-1.1-3.2-3.6c0-2.4 1.5-3.7 3.3-3.7zm-1.9 2.7c-.01 0 3.2 0 3.2 0c0 0-.01-.24 0-.2c0-1.3-.6-1.8-1.4-1.8c-.9 0-1.6.5-1.8 2zm9.7 3.7c.02.02 0-5.4 0-5.4l-1-.2c0 0 0-.5 0-.5c.5-.2 1.4-.3 2.3-.3c0 0 0 1.1 0 1.1c.4-.7 1.3-1.1 2.1-1.1c.3 0 .6.1.8.1c0 .8-.1 1.7-.2 2.1c-.02.02-.8 0-.8 0l-.2-1.3c0 0-.07 0-.1 0c-.5 0-1.2.3-1.6.7c0 0 0 4.8 0 4.8c.6.1 1.1.1 1.4.3c.02-.04 0 .4 0 .4l-3.8 0c0 0 .04-.44 0-.4c.3-.2.7-.2 1.1-.3zm8.2-6.4c1.7 0 2.6.9 2.6 2.6c0 .3 0 .4 0 .8c-.02-.04-4.5 0-4.5 0c0 0-.02.08 0 .1c0 2 1 2.8 2.3 2.8c.7 0 1.3-.4 1.8-.9c0 0 .3.2.3.2c-.5 1-1.3 1.7-2.6 1.7c-1.8 0-3.2-1.1-3.2-3.6c0-2.4 1.5-3.7 3.3-3.7zm-1.9 2.7c.02 0 3.2 0 3.2 0c0 0 .02-.24 0-.2c0-1.3-.5-1.8-1.4-1.8c-.8 0-1.6.5-1.8 2zm6.4 3.7c0 .02 0-8.7 0-8.7l-1-.3c0 0-.02-.46 0-.5c.5-.1 1.4-.3 2.3-.3c0 0 0 9.8 0 9.8c.4.1.8.1 1.1.3c0-.04 0 .4 0 .4l-3.5 0c0 0 .02-.44 0-.4c.3-.2.7-.2 1.1-.3zm7.3-3.2c0 0 0-1.2 0-1.2c0-.9-.5-1.3-1.4-1.3c-.3 0-.6 0-.9.1c-.04.01-.3 1.5-.3 1.5c0 0-.77-.02-.8 0c-.1-.3-.1-.7-.1-1.1c0-.2 0-.4 0-.5c.7-.5 1.7-.7 2.7-.7c1.4 0 2.1.6 2.1 1.7c0 .9 0 3.2 0 4.6c-.02.02 1 .2 1 .2c0 0 0 .46 0 .5c-.5.1-1.3.3-2.3.3c0 0 0-1.2 0-1.2c-.4.7-1.1 1.2-2 1.2c-1.2 0-1.9-.7-1.9-1.8c0-1.8 1.5-2.2 3.9-2.3zm0 2.5c0 0 0-2 0-2c-1.8.1-2.6.5-2.6 1.5c0 .8.4 1.2 1.2 1.2c.6 0 1.1-.3 1.4-.7zm2.8-5.3c.2-.1.6-.2 1.1-.3c0 0 .1-1.4.1-1.4c.3-.1.8-.1 1.2-.1c-.02-.04 0 1.5 0 1.5l1.8 0l0 .8l-1.9 0c0 0 .02 4.44 0 4.4c0 .8.3 1.1.9 1.1c.3 0 .6-.2 1-.5c0 0 .3.2.3.2c-.5.8-1.1 1.2-1.9 1.2c-1 0-1.6-.6-1.6-1.8c0 .02.1-4.6.1-4.6l-1.1 0l0-.5c0 0-.02.02 0 0zm6.2-2.9c0-.2 0-.4 0-.6c.2 0 .4 0 .7 0c.2 0 .4 0 .6 0c.1.2.1.4.1.6c0 .5-.1.8-.1 1.1c-.2 0-.4 0-.6 0c-.2 0-.4 0-.6 0c-.1-.3-.1-.6-.1-1.1zm0 8.9c-.04.02 0-5.4 0-5.4l-1.1-.2c0 0 .04-.5 0-.5c.6-.2 1.4-.3 2.4-.3c0 0 0 6.4 0 6.4c.4.1.8.1 1.1.3c-.04-.04 0 .4 0 .4l-3.5 0c0 0-.02-.44 0-.4c.3-.2.6-.2 1.1-.3zm2.5-5.8c-.02 0 0-.5 0-.5l3 0c0 0 .04.5 0 .5c-.3.1-.6.2-1 .2c-.01.04 1.7 4.7 1.7 4.7c0 0 1.81-4.66 1.8-4.7c-.4 0-.7-.1-1-.2c.04 0 0-.5 0-.5l2.6 0c0 0 .02.5 0 .5c-.2.1-.4.2-.6.2c-.03.01-2.6 6.3-2.6 6.3l-.8 0c0 0-2.49-6.29-2.5-6.3c-.2 0-.4-.1-.6-.2zm10.8-.6c1.7 0 2.6.9 2.6 2.6c0 .3 0 .4 0 .8c-.04-.04-4.5 0-4.5 0c0 0-.04.08 0 .1c0 2 1 2.8 2.2 2.8c.8 0 1.4-.4 1.9-.9c0 0 .3.2.3.2c-.5 1-1.3 1.7-2.6 1.7c-1.8 0-3.2-1.1-3.2-3.6c0-2.4 1.5-3.7 3.3-3.7zm-1.9 2.7c0 0 3.2 0 3.2 0c0 0 0-.24 0-.2c0-1.3-.5-1.8-1.4-1.8c-.9 0-1.6.5-1.8 2zm6.4 3.7c-.02.02 0-8.7 0-8.7l-1-.3c0 0-.04-.46 0-.5c.5-.1 1.3-.3 2.3-.3c0 0 0 9.8 0 9.8c.4.1.8.1 1.1.3c-.02-.04 0 .4 0 .4l-3.5 0c0 0 0-.44 0-.4c.3-.2.7-.2 1.1-.3zm5.7.8c0 0-2.5-6.4-2.5-6.4c-.3 0-.4-.1-.6-.2c-.04 0 0-.5 0-.5l3 0c0 0 .02.5 0 .5c-.3.1-.6.2-1 .2c-.05.04 1.7 4.8 1.7 4.8c0 0 1.81-4.76 1.8-4.8c-.4 0-.7-.1-1-.2c.02 0 0-.5 0-.5l2.6 0c0 0 0 .5 0 .5c-.2.1-.4.2-.6.2c-.05.01-2.4 5.9-2.4 5.9l-1.3 3.3l-1.2 0c0 0-.14-.46-.1-.5c.6-.6 1.1-1.3 1.6-2.3zm8.6-.8c.02.02 0-8.7 0-8.7l-1-.3c0 0 0-.46 0-.5c.5-.1 1.4-.3 2.3-.3c0 0 0 9.8 0 9.8c.5.1.8.1 1.1.3c.02-.04 0 .4 0 .4l-3.5 0c0 0 .04-.44 0-.4c.3-.2.7-.2 1.1-.3zm4.4-8.9c0-.2 0-.4.1-.6c.2 0 .4 0 .6 0c.3 0 .5 0 .7 0c0 .2 0 .4 0 .6c0 .5 0 .8-.1 1.1c-.2 0-.4 0-.6 0c-.2 0-.4 0-.6 0c0-.3-.1-.6-.1-1.1zm0 8.9c0 .02 0-5.4 0-5.4l-1-.2c0 0-.02-.5 0-.5c.5-.2 1.4-.3 2.3-.3c0 0 0 6.4 0 6.4c.4.1.8.1 1.1.3c0-.04 0 .4 0 .4l-3.5 0c0 0 .02-.44 0-.4c.3-.2.7-.2 1.1-.3zm4.5.3c-.3-.1-.5-.5-.5-1c0-.6.3-1 .7-1.3c-.8-.4-1.2-1.1-1.2-2.1c0-1.5 1.2-2.4 2.8-2.4c.7 0 1.3.1 1.8.5c.5-.2.9-.4 1.6-.4c.1.2.1.4.1.5c0 .2 0 .4-.1.5c0 0-1.2 0-1.2 0c.3.3.4.7.4 1.2c0 1.5-1 2.4-2.8 2.4c-.4 0-.7 0-1-.1c-.1.2-.2.4-.2.7c0 .4.2.6.7.6c0 0 2 0 2 0c1.3 0 2.1.6 2.1 1.8c0 1.5-1.5 2.5-3.6 2.5c-2 0-3-.7-3-1.9c0-.7.5-1.2 1.4-1.5zm1.7-2.7c.9 0 1.4-.5 1.4-1.8c0-1.1-.6-1.7-1.4-1.7c-.9 0-1.4.5-1.4 1.6c0 1.3.6 1.9 1.4 1.9c0 0 0 0 0 0zm-1.5 2.9c-.2.3-.4.6-.4 1.1c0 .9.7 1.4 1.8 1.4c1.5 0 2.4-.5 2.4-1.5c0-.6-.5-1-1.2-1c.02 0-2.6 0-2.6 0c0 0-.02 0 0 0zm6.8-.5c-.04.02 0-8.7 0-8.7l-1.1-.3c0 0 .04-.46 0-.5c.6-.1 1.4-.3 2.4-.3c0 0 0 4.6 0 4.6c.4-.8 1.3-1.3 2.4-1.3c1.2 0 2.1.8 2.1 2.1c0 0 0 4.4 0 4.4c.4.1.8.1 1.1.3c-.04-.04 0 .4 0 .4l-3.5 0c0 0-.02-.44 0-.4c.3-.2.6-.2 1.1-.3c0 0 0-4.1 0-4.1c0-.9-.5-1.3-1.5-1.3c-.7 0-1.3.2-1.7.6c0 0 0 4.8 0 4.8c.4.1.8.1 1.1.3c-.04-.04 0 .4 0 .4l-3.5 0c0 0-.02-.44 0-.4c.3-.2.6-.2 1.1-.3zm7.5-6c.2-.1.6-.2 1.1-.3c0 0 .1-1.4.1-1.4c.3-.1.8-.1 1.2-.1c.02-.04 0 1.5 0 1.5l1.8 0l0 .8l-1.8 0c0 0-.04 4.44 0 4.4c0 .8.3 1.1.8 1.1c.4 0 .6-.2 1-.5c0 0 .3.2.3.2c-.4.8-1.1 1.2-1.8 1.2c-1.1 0-1.7-.6-1.7-1.8c.04.02.1-4.6.1-4.6l-1.1 0l0-.5c0 0 .02.02 0 0zm7.8.2c-.04 0 0-.5 0-.5l3 0c0 0 .02.5 0 .5c-.3.1-.6.2-1 .2c-.03.04 1.7 4.7 1.7 4.7c0 0 1.79-4.66 1.8-4.7c-.4 0-.7-.1-1-.2c.02 0 0-.5 0-.5l2.6 0c0 0 0 .5 0 .5c-.2.1-.4.2-.6.2c-.05.01-2.6 6.3-2.6 6.3l-.8 0c0 0-2.51-6.29-2.5-6.3c-.3 0-.4-.1-.6-.2zm8.8-3.1c0-.2 0-.4 0-.6c.2 0 .5 0 .7 0c.2 0 .4 0 .7 0c0 .2 0 .4 0 .6c0 .5 0 .8-.1 1.1c-.2 0-.4 0-.6 0c-.2 0-.4 0-.6 0c-.1-.3-.1-.6-.1-1.1zm0 8.9c-.02.02 0-5.4 0-5.4l-1-.2c0 0-.04-.5 0-.5c.5-.2 1.3-.3 2.3-.3c0 0 0 6.4 0 6.4c.4.1.8.1 1.1.3c-.02-.04 0 .4 0 .4l-3.5 0c0 0 0-.44 0-.4c.3-.2.7-.2 1.1-.3zm3.6-1.4c-.02-.02.8 0 .8 0c0 0 .17 1.53.2 1.5c.3.1.6.2 1 .2c.9 0 1.6-.5 1.6-1.3c0-.7-.5-1-1.3-1.2c0 0-.8-.2-.8-.2c-1.1-.4-1.7-1-1.7-2c0-1.3 1.1-2.1 2.6-2.1c.9 0 1.8.3 2.1.5c0 0 0 .2 0 .2c0 .5-.1 1.2-.2 1.6c0 .02-.8 0-.8 0c0 0-.18-1.47-.2-1.5c-.3 0-.6-.1-.9-.1c-.9 0-1.4.4-1.4 1.1c0 .7.3 1 1 1.2c0 0 .9.2.9.2c1.2.4 1.9.9 1.9 2.1c0 1.2-1.2 2.1-2.8 2.1c-.9 0-1.9-.2-2.3-.5c0 0 0-.1 0-.1c.1-.6.1-1.3.3-1.7zm6.9-7.5c0-.2.1-.4.1-.6c.2 0 .4 0 .7 0c.2 0 .4 0 .6 0c0 .2.1.4.1.6c0 .5-.1.8-.1 1.1c-.2 0-.5 0-.6 0c-.2 0-.5 0-.6 0c-.1-.3-.2-.6-.2-1.1zm0 8.9c.04.02 0-5.4 0-5.4l-1-.2c0 0 .02-.5 0-.5c.6-.2 1.4-.3 2.4-.3c0 0 0 6.4 0 6.4c.4.1.7.1 1 .3c.04-.04 0 .4 0 .4l-3.4 0c0 0-.04-.44 0-.4c.3-.2.6-.2 1-.3zm3-6c.2-.1.6-.2 1.1-.3c0 0 .1-1.4.1-1.4c.3-.1.9-.1 1.2-.1c.04-.04 0 1.5 0 1.5l1.8 0l0 .8l-1.8 0c0 0-.02 4.44 0 4.4c0 .8.3 1.1.8 1.1c.4 0 .7-.2 1-.5c0 0 .3.2.3.2c-.4.8-1.1 1.2-1.8 1.2c-1.1 0-1.7-.6-1.6-1.8c-.04.02 0-4.6 0-4.6l-1.1 0l0-.5c0 0 .04.02 0 0zm9.4 2.8c0 0 0-1.2 0-1.2c0-.9-.5-1.3-1.4-1.3c-.3 0-.6 0-1 .1c.04.01-.2 1.5-.2 1.5c0 0-.79-.02-.8 0c-.1-.3-.1-.7-.1-1.1c0-.2 0-.4 0-.5c.7-.5 1.7-.7 2.7-.7c1.4 0 2.1.6 2.1 1.7c0 .9 0 3.2 0 4.6c-.04.02 1 .2 1 .2c0 0-.02.46 0 .5c-.6.1-1.3.3-2.3.3c0 0 0-1.2 0-1.2c-.4.7-1.1 1.2-2 1.2c-1.2 0-2-.7-2-1.8c0-1.8 1.6-2.2 4-2.3zm0 2.5c0 0 0-2 0-2c-1.8.1-2.6.5-2.6 1.5c0 .8.4 1.2 1.2 1.2c.5 0 1.1-.3 1.4-.7zm2.8-5.3c.2-.1.6-.2 1.1-.3c0 0 .1-1.4.1-1.4c.3-.1.8-.1 1.2-.1c-.04-.04-.1 1.5-.1 1.5l1.9 0l0 .8l-1.9 0c0 0 0 4.44 0 4.4c0 .8.3 1.1.8 1.1c.4 0 .7-.2 1.1-.5c0 0 .3.2.3.2c-.5.8-1.2 1.2-1.9 1.2c-1.1 0-1.7-.6-1.6-1.8c-.02.02 0-4.6 0-4.6l-1 0l0-.5c0 0-.04.02 0 0zm6.1-2.9c0-.2.1-.4.1-.6c.2 0 .4 0 .7 0c.2 0 .4 0 .6 0c0 .2.1.4.1.6c0 .5-.1.8-.1 1.1c-.2 0-.5 0-.6 0c-.2 0-.5 0-.6 0c-.1-.3-.2-.6-.2-1.1zm0 8.9c.04.02 0-5.4 0-5.4l-1-.2c0 0 .02-.5 0-.5c.6-.2 1.4-.3 2.4-.3c0 0 0 6.4 0 6.4c.4.1.7.1 1 .3c.04-.04 0 .4 0 .4l-3.4 0c0 0-.04-.44 0-.4c.3-.2.6-.2 1-.3zm6.5-6.4c2 0 3.1 1.2 3.1 3.6c0 2.3-1.4 3.7-3.3 3.7c-2.1 0-3.1-1.2-3.1-3.6c0-2.4 1.3-3.7 3.3-3.7zm1.7 3.7c0-2-.6-3-1.8-3c-1.1 0-1.8.7-1.8 2.8c0 2.1.6 3.1 1.8 3.1c1.1 0 1.8-.8 1.8-2.9zm3.5 2.7c-.02.02 0-5.4 0-5.4l-1-.2c0 0-.04-.5 0-.5c.5-.2 1.3-.3 2.3-.3c0 0 0 1.2 0 1.2c.4-.8 1.3-1.3 2.4-1.3c1.3 0 2.1.8 2.1 2.1c0 0 0 4.4 0 4.4c.4.1.8.1 1.1.3c-.02-.04 0 .4 0 .4l-3.5 0c0 0 0-.44 0-.4c.3-.2.7-.2 1.1-.3c0 0 0-4.1 0-4.1c0-.9-.5-1.3-1.5-1.3c-.7 0-1.3.2-1.7.6c0 0 0 4.8 0 4.8c.4.1.8.1 1.1.3c-.02-.04 0 .4 0 .4l-3.5 0c0 0 0-.44 0-.4c.3-.2.7-.2 1.1-.3z" stroke="none" fill="#404040"/></g><g id="Polygon12216"><path d="m241.6 24.8c2 0 3.1 1.2 3.1 3.6c0 2.3-1.4 3.7-3.3 3.7c-2.1 0-3.1-1.2-3.1-3.6c0-2.4 1.3-3.7 3.3-3.7zm1.7 3.7c0-2-.6-3-1.8-3c-1.1 0-1.8.7-1.8 2.8c0 2.1.6 3.1 1.8 3.1c1.1 0 1.8-.8 1.8-2.9zm3.4-3.6c0 0 0-.9 0-.9c0-1.5 1-2.6 2.7-2.6c.7 0 1.5.2 1.9.3c.1.5 0 1.1-.1 1.6c-.04 0-.8 0-.8 0c0 0-.32-1.31-.3-1.3c-.2 0-.3 0-.4 0c-1.1 0-1.7.7-1.7 1.9c.04-.03 0 1 0 1l1.8 0l0 .8l-1.8 0c0 0 .04 5.52 0 5.5c.6.1 1.1.1 1.4.3c.02-.04 0 .4 0 .4l-3.8 0c0 0 .04-.44 0-.4c.3-.2.7-.2 1.1-.3c.02.02 0-5.5 0-5.5l-1 0c0 0 0-.48 0-.5c.2-.1.5-.2 1-.3zm10.9 3.1c0 0 0-1.2 0-1.2c0-.9-.5-1.3-1.4-1.3c-.3 0-.6 0-1 .1c.03.01-.2 1.5-.2 1.5c0 0-.81-.02-.8 0c-.1-.3-.2-.7-.2-1.1c0-.2.1-.4.1-.5c.7-.5 1.7-.7 2.6-.7c1.5 0 2.2.6 2.2 1.7c0 .9-.1 3.2-.1 4.6c.04.02 1.1.2 1.1.2c0 0-.04.46 0 .5c-.6.1-1.4.3-2.3.3c0 0 0-1.2 0-1.2c-.4.7-1.1 1.2-2 1.2c-1.2 0-2-.7-2-1.8c0-1.8 1.6-2.2 4-2.3zm0 2.5c0 0 0-2 0-2c-1.8.1-2.7.5-2.7 1.5c0 .8.5 1.2 1.2 1.2c.6 0 1.2-.3 1.5-.7zm4.2.7c.04.02 0-8.7 0-8.7l-1-.3c0 0 .02-.46 0-.5c.6-.1 1.4-.3 2.4-.3c0 0 0 9.8 0 9.8c.4.1.7.1 1 .3c.04-.04 0 .4 0 .4l-3.4 0c0 0-.04-.44 0-.4c.3-.2.6-.2 1-.3zm4.4 0c-.04.02 0-8.7 0-8.7l-1.1-.3c0 0 .04-.46 0-.5c.6-.1 1.4-.3 2.4-.3c0 0 0 9.8 0 9.8c.4.1.8.1 1.1.3c-.04-.04 0 .4 0 .4l-3.5 0c0 0-.02-.44 0-.4c.3-.2.6-.2 1.1-.3zm9.7-6.4c2.1 0 3.2 1.2 3.2 3.6c0 2.3-1.4 3.7-3.4 3.7c-2.1 0-3.1-1.2-3.1-3.6c0-2.4 1.3-3.7 3.3-3.7zm1.7 3.7c0-2-.6-3-1.8-3c-1.1 0-1.8.7-1.8 2.8c0 2.1.7 3.1 1.8 3.1c1.1 0 1.8-.8 1.8-2.9zm3.4-3.6c0 0 0-.9 0-.9c0-1.5 1-2.6 2.7-2.6c.7 0 1.5.2 1.9.3c.1.5 0 1.1-.1 1.6c-.02 0-.8 0-.8 0c0 0-.3-1.31-.3-1.3c-.1 0-.3 0-.3 0c-1.2 0-1.7.7-1.7 1.9c-.04-.03 0 1 0 1l1.7 0l0 .8l-1.7 0c0 0-.04 5.52 0 5.5c.5.1 1 .1 1.3.3c.04-.04 0 .4 0 .4l-3.7 0c0 0-.04-.44 0-.4c.3-.2.6-.2 1-.3c.04.02 0-5.5 0-5.5l-1 0c0 0 .02-.48 0-.5c.2-.1.6-.2 1-.3zm13.5 6.3c0-.02-.8-2.4-.8-2.4l-3.6 0c0 0-.76 2.38-.8 2.4c.4 0 .8.1 1 .2c.04 0 0 .5 0 .5l-2.7 0c0 0-.02-.5 0-.5c.2-.1.4-.1.7-.2c0 0 3.2-8.9 3.2-8.9c.2 0 .5 0 .6 0c.2 0 .5 0 .7 0c0 0 3.2 8.9 3.2 8.9c.3.1.5.1.6.2c.04 0 0 .5 0 .5l-3.3 0c0 0 .04-.5 0-.5c.3-.1.8-.2 1.2-.2zm-1.1-3.2l-1.5-4.2l-1.5 4.2l3 0zm13.7 3.2c0 0 0-4.1 0-4.1c0-.9-.4-1.3-1.3-1.3c-.7 0-1.3.2-1.7.6c0 0 0 4.8 0 4.8c.4.1.8.1 1.1.3c-.04-.04 0 .4 0 .4l-3.5 0c0 0-.02-.44 0-.4c.3-.2.6-.2 1.1-.3c0 0 0-4.1 0-4.1c0-.9-.5-1.3-1.4-1.3c-.6 0-1.3.2-1.7.6c0 0 0 4.8 0 4.8c.4.1.8.1 1.1.3c-.02-.04 0 .4 0 .4l-3.5 0c0 0 0-.44 0-.4c.3-.2.7-.2 1.1-.3c-.02.02 0-5.4 0-5.4l-1-.2c0 0-.04-.5 0-.5c.5-.2 1.3-.3 2.3-.3c0 0 0 1.2 0 1.2c.4-.8 1.4-1.3 2.4-1.3c1 0 1.6.5 1.9 1.3c.4-.7 1.3-1.3 2.5-1.3c1.2 0 2 .8 2 2.1c0 0 0 4.4 0 4.4c.4.1.7.1 1 .3c.04-.04 0 .4 0 .4l-3.4 0c0 0-.04-.44 0-.4c.3-.2.6-.2 1-.3zm6.7-6.4c1.7 0 2.6.9 2.6 2.6c0 .3 0 .4 0 .8c-.05-.04-4.5 0-4.5 0c0 0-.05.08 0 .1c0 2 1 2.8 2.2 2.8c.8 0 1.4-.4 1.9-.9c0 0 .3.2.3.2c-.5 1-1.3 1.7-2.6 1.7c-1.8 0-3.2-1.1-3.2-3.6c0-2.4 1.5-3.7 3.3-3.7zm-1.9 2.7c0 0 3.2 0 3.2 0c0 0-.01-.24 0-.2c0-1.3-.5-1.8-1.4-1.8c-.9 0-1.6.5-1.8 2zm6.6 3.7c.01.02 0-5.4 0-5.4l-1-.2c0 0-.01-.5 0-.5c.5-.2 1.4-.3 2.3-.3c0 0 0 1.1 0 1.1c.4-.7 1.3-1.1 2.1-1.1c.3 0 .6.1.8.1c0 .8-.1 1.7-.2 2.1c-.03.02-.8 0-.8 0l-.2-1.3c0 0-.08 0-.1 0c-.5 0-1.2.3-1.6.7c0 0 0 4.8 0 4.8c.6.1 1.1.1 1.4.3c.01-.04 0 .4 0 .4l-3.8 0c0 0 .03-.44 0-.4c.3-.2.7-.2 1.1-.3zm6-8.9c0-.2.1-.4.1-.6c.2 0 .4 0 .6 0c.3 0 .5 0 .7 0c0 .2.1.4.1.6c0 .5-.1.8-.2 1.1c-.1 0-.4 0-.6 0c-.1 0-.4 0-.6 0c0-.3-.1-.6-.1-1.1zm0 8.9c.03.02 0-5.4 0-5.4l-1-.2c0 0 .01-.5 0-.5c.5-.2 1.4-.3 2.3-.3c0 0 0 6.4 0 6.4c.5.1.8.1 1.1.3c.03-.04 0 .4 0 .4l-3.5 0c0 0 .05-.44 0-.4c.3-.2.7-.2 1.1-.3zm6.6-6.4c.8 0 1.6.2 1.9.5c0 .5 0 1.3-.2 1.8c.01-.02-.8 0-.8 0c0 0-.18-1.57-.2-1.6c-.2 0-.5 0-.7 0c-1.1 0-2.1.7-2.1 2.8c0 1.8.9 2.8 2.1 2.8c.8 0 1.3-.4 1.8-.9c0 0 .3.2.3.2c-.5 1-1.2 1.7-2.5 1.7c-1.8 0-3.1-1.3-3.1-3.6c0-2.4 1.5-3.7 3.5-3.7zm7.1 3.2c0 0 0-1.2 0-1.2c0-.9-.5-1.3-1.4-1.3c-.3 0-.6 0-.9.1c-.05.01-.3 1.5-.3 1.5c0 0-.78-.02-.8 0c-.1-.3-.1-.7-.1-1.1c0-.2 0-.4 0-.5c.7-.5 1.7-.7 2.7-.7c1.4 0 2.1.6 2.1 1.7c0 .9 0 3.2 0 4.6c-.03.02 1 .2 1 .2c0 0-.01.46 0 .5c-.6.1-1.3.3-2.3.3c0 0 0-1.2 0-1.2c-.4.7-1.1 1.2-2 1.2c-1.2 0-2-.7-2-1.8c0-1.8 1.6-2.2 4-2.3zm0 2.5c0 0 0-2 0-2c-1.8.1-2.6.5-2.6 1.5c0 .8.4 1.2 1.2 1.2c.6 0 1.1-.3 1.4-.7zm4.4-8.3c.7 0 1.1.5 1.1 1.4c0 .7-.5 2.1-1.8 2.6c0 0-.3-.5-.3-.5c.6-.3 1-1 1-1.7c0 0-.1 0-.1 0c-.5-.1-.8-.4-.8-.9c0-.5.3-.9.9-.9zm2.7 7.6c.05-.02.8 0 .8 0c0 0 .24 1.53.2 1.5c.4.1.7.2 1 .2c.9 0 1.6-.5 1.6-1.3c0-.7-.4-1-1.2-1.2c0 0-.9-.2-.9-.2c-1-.4-1.6-1-1.6-2c0-1.3 1.1-2.1 2.5-2.1c.9 0 1.8.3 2.2.5c0 0 0 .2 0 .2c0 .5-.1 1.2-.2 1.6c-.03.02-.8 0-.8 0c0 0-.21-1.47-.2-1.5c-.3 0-.7-.1-1-.1c-.8 0-1.4.4-1.4 1.1c0 .7.4 1 1.1 1.2c0 0 .8.2.8.2c1.3.4 1.9.9 1.9 2.1c0 1.2-1.1 2.1-2.8 2.1c-.9 0-1.8-.2-2.2-.5c0 0 0-.1 0-.1c0-.6.1-1.3.2-1.7z" stroke="none" fill="#404040"/></g><g id="Polygon12215"><path d="m160.8 31.2c0 .02 0-8.7 0-8.7l-1-.3c0 0-.02-.46 0-.5c.5-.1 1.4-.3 2.3-.3c0 0 0 9.8 0 9.8c.4.1.8.1 1.1.3c0-.04 0 .4 0 .4l-3.5 0c0 0 .02-.44 0-.4c.3-.2.7-.2 1.1-.3zm6.5-6.4c1.7 0 2.6.9 2.6 2.6c0 .3 0 .4 0 .8c-.04-.04-4.5 0-4.5 0c0 0-.04.08 0 .1c0 2 1 2.8 2.2 2.8c.8 0 1.4-.4 1.9-.9c0 0 .3.2.3.2c-.5 1-1.3 1.7-2.6 1.7c-1.8 0-3.2-1.1-3.2-3.6c0-2.4 1.5-3.7 3.3-3.7zm-1.9 2.7c.01 0 3.2 0 3.2 0c0 0 0-.24 0-.2c0-1.3-.5-1.8-1.4-1.8c-.9 0-1.6.5-1.8 2zm9.7.5c0 0 0-1.2 0-1.2c0-.9-.5-1.3-1.4-1.3c-.3 0-.6 0-1 .1c.03.01-.2 1.5-.2 1.5c0 0-.81-.02-.8 0c-.1-.3-.2-.7-.2-1.1c0-.2.1-.4.1-.5c.7-.5 1.7-.7 2.6-.7c1.5 0 2.2.6 2.2 1.7c0 .9-.1 3.2-.1 4.6c.04.02 1.1.2 1.1.2c0 0-.04.46 0 .5c-.6.1-1.4.3-2.3.3c0 0 0-1.2 0-1.2c-.4.7-1.1 1.2-2 1.2c-1.2 0-2-.7-2-1.8c0-1.8 1.6-2.2 4-2.3zm0 2.5c0 0 0-2 0-2c-1.8.1-2.7.5-2.7 1.5c0 .8.5 1.2 1.2 1.2c.6 0 1.2-.3 1.5-.7zm3.7-.7c0-.02.8 0 .8 0c0 0 .19 1.53.2 1.5c.3.1.7.2 1 .2c.9 0 1.6-.5 1.6-1.3c0-.7-.4-1-1.3-1.2c0 0-.8-.2-.8-.2c-1.1-.4-1.6-1-1.6-2c0-1.3 1.1-2.1 2.5-2.1c.9 0 1.8.3 2.2.5c0 0 0 .2 0 .2c-.1.5-.1 1.2-.3 1.6c.02.02-.8 0-.8 0c0 0-.15-1.47-.2-1.5c-.3 0-.6-.1-.9-.1c-.8 0-1.4.4-1.4 1.1c0 .7.4 1 1 1.2c0 0 .9.2.9.2c1.2.4 1.9.9 1.9 2.1c0 1.2-1.1 2.1-2.8 2.1c-.9 0-1.9-.2-2.2-.5c0 0 0-.1 0-.1c0-.6.1-1.3.2-1.7zm5.6-4.6c.2-.1.6-.2 1.1-.3c0 0 .1-1.4.1-1.4c.3-.1.8-.1 1.2-.1c-.02-.04 0 1.5 0 1.5l1.8 0l0 .8l-1.8 0c0 0-.08 4.44-.1 4.4c0 .8.3 1.1.9 1.1c.3 0 .6-.2 1-.5c0 0 .3.2.3.2c-.5.8-1.1 1.2-1.9 1.2c-1 0-1.6-.6-1.6-1.8c0 .02.1-4.6.1-4.6l-1.1 0l0-.5c0 0-.02.02 0 0zm7.7.2c.02 0 0-.5 0-.5l3.1 0c0 0-.02.5 0 .5c-.3.1-.7.2-1.1.2c.03.04 1.8 4.7 1.8 4.7c0 0 1.76-4.66 1.8-4.7c-.4 0-.7-.1-1-.2c-.02 0 0-.5 0-.5l2.6 0c0 0-.04.5 0 .5c-.3.1-.4.2-.7.2c.02.01-2.6 6.3-2.6 6.3l-.8 0c0 0-2.45-6.29-2.4-6.3c-.3 0-.5-.1-.7-.2zm8.8-3.1c0-.2.1-.4.1-.6c.2 0 .4 0 .7 0c.2 0 .4 0 .6 0c.1.2.1.4.1.6c0 .5-.1.8-.1 1.1c-.2 0-.5 0-.6 0c-.2 0-.5 0-.6 0c-.1-.3-.2-.6-.2-1.1zm0 8.9c.04.02 0-5.4 0-5.4l-1-.2c0 0 .02-.5 0-.5c.6-.2 1.4-.3 2.4-.3c0 0 0 6.4 0 6.4c.4.1.7.1 1 .3c.04-.04 0 .4 0 .4l-3.4 0c0 0-.04-.44 0-.4c.3-.2.6-.2 1-.3zm3.6-1.4c.04-.02.8 0 .8 0c0 0 .23 1.53.2 1.5c.4.1.7.2 1 .2c.9 0 1.6-.5 1.6-1.3c0-.7-.4-1-1.2-1.2c0 0-.9-.2-.9-.2c-1-.4-1.6-1-1.6-2c0-1.3 1.1-2.1 2.5-2.1c.9 0 1.8.3 2.2.5c0 0 0 .2 0 .2c0 .5-.1 1.2-.2 1.6c-.04.02-.8 0-.8 0c0 0-.21-1.47-.2-1.5c-.3 0-.7-.1-1-.1c-.8 0-1.4.4-1.4 1.1c0 .7.4 1 1.1 1.2c0 0 .8.2.8.2c1.3.4 1.9.9 1.9 2.1c0 1.2-1.1 2.1-2.8 2.1c-.9 0-1.8-.2-2.2-.5c0 0 0-.1 0-.1c0-.6.1-1.3.2-1.7zm7-7.5c0-.2 0-.4.1-.6c.2 0 .4 0 .6 0c.3 0 .5 0 .7 0c0 .2 0 .4 0 .6c0 .5 0 .8-.1 1.1c-.2 0-.4 0-.6 0c-.2 0-.4 0-.6 0c0-.3-.1-.6-.1-1.1zm0 8.9c0 .02 0-5.4 0-5.4l-1-.2c0 0-.02-.5 0-.5c.5-.2 1.4-.3 2.3-.3c0 0 0 6.4 0 6.4c.4.1.8.1 1.1.3c0-.04 0 .4 0 .4l-3.5 0c0 0 .02-.44 0-.4c.3-.2.7-.2 1.1-.3zm3-6c.2-.1.6-.2 1.1-.3c0 0 .1-1.4.1-1.4c.3-.1.8-.1 1.2-.1c0-.04 0 1.5 0 1.5l1.8 0l0 .8l-1.8 0c0 0-.06 4.44-.1 4.4c0 .8.3 1.1.9 1.1c.4 0 .6-.2 1-.5c0 0 .3.2.3.2c-.4.8-1.1 1.2-1.9 1.2c-1 0-1.6-.6-1.6-1.8c.02.02.1-4.6.1-4.6l-1.1 0l0-.5c0 0 0 .02 0 0zm8.5-.4c1.7 0 2.7.9 2.7 2.6c0 .3 0 .4-.1.8c0-.04-4.5 0-4.5 0c0 0 0 .08 0 .1c0 2 1 2.8 2.3 2.8c.8 0 1.4-.4 1.8-.9c0 0 .3.2.3.2c-.4 1-1.3 1.7-2.5 1.7c-1.8 0-3.3-1.1-3.3-3.6c0-2.4 1.5-3.7 3.3-3.7zm-1.9 2.7c.05 0 3.2 0 3.2 0c0 0 .04-.24 0-.2c0-1.3-.5-1.8-1.3-1.8c-.9 0-1.7.5-1.9 2zm9.2-2.8c.7 0 1.2.3 1.5.6c.04-.02 0-2.8 0-2.8l-1.2-.3c0 0 .04-.46 0-.5c.6-.1 1.6-.3 2.6-.3c-.04.04 0 9.7 0 9.7l1 .2c0 0-.02.46 0 .5c-.6.1-1.4.3-2.4.3c0 0 0-1.3 0-1.3c-.3.8-1.1 1.3-2.1 1.3c-1.6 0-2.8-1.3-2.8-3.5c0-2.4 1.5-3.9 3.4-3.9zm1.5 5.7c0 0 0-4.7 0-4.7c-.3-.1-.6-.2-1.1-.2c-1.4 0-2.4 1-2.4 2.9c0 1.9.7 2.8 1.9 2.8c.7 0 1.3-.4 1.6-.8z" stroke="none" fill="#00aa32"/></g><g id="Polygon12214"><path d="m20.4 23.4c0-.4 0-.7.1-1.1c0 0 7.8 0 7.8 0c.1.4.1.7.1 1.1c0 .4 0 1.1-.1 1.5c-.02-.04-.7 0-.7 0l-.3-1.8l-2.2 0c0 0 0 8.06 0 8.1c.6 0 1.2.1 1.5.2c0 0 0 .5 0 .5l-4.4 0c0 0-.04-.5 0-.5c.3-.1.9-.2 1.5-.2c-.04-.04 0-8.1 0-8.1l-2.2 0l-.4 1.8c0 0-.62-.04-.6 0c-.1-.4-.1-1.1-.1-1.5zm9.8 7.8c0 .02 0-8.7 0-8.7l-1-.3c0 0-.02-.46 0-.5c.5-.1 1.4-.3 2.3-.3c0 0 0 4.6 0 4.6c.5-.8 1.4-1.3 2.4-1.3c1.3 0 2.1.8 2.1 2.1c0 0 0 4.4 0 4.4c.4.1.8.1 1.1.3c0-.04 0 .4 0 .4l-3.5 0c0 0 .02-.44 0-.4c.3-.2.7-.2 1.1-.3c0 0 0-4.1 0-4.1c0-.9-.5-1.3-1.4-1.3c-.7 0-1.4.2-1.8.6c0 0 0 4.8 0 4.8c.4.1.8.1 1.1.3c0-.04 0 .4 0 .4l-3.5 0c0 0 .02-.44 0-.4c.3-.2.7-.2 1.1-.3zm11.1-6.4c1.7 0 2.7.9 2.7 2.6c0 .3 0 .4-.1.8c.01-.04-4.5 0-4.5 0c0 0 .01.08 0 .1c0 2 1 2.8 2.3 2.8c.8 0 1.4-.4 1.8-.9c0 0 .3.2.3.2c-.4 1-1.3 1.7-2.5 1.7c-1.8 0-3.3-1.1-3.3-3.6c0-2.4 1.5-3.7 3.3-3.7zm-1.8 2.7c-.05 0 3.2 0 3.2 0c0 0-.05-.24 0-.2c0-1.3-.6-1.8-1.4-1.8c-.9 0-1.7.5-1.8 2zm9.6 6.5c-.03.04 0-8.2 0-8.2l-1-.2c0 0-.05-.5 0-.5c.5-.2 1.3-.3 2.3-.3c0 0 0 1.3 0 1.3c.4-.8 1.3-1.4 2.2-1.4c1.6 0 2.7 1.2 2.7 3.5c0 2.4-1.4 3.9-3.4 3.9c-.6 0-1.1-.2-1.5-.5c0 0 0 2.4 0 2.4c.5.1.9.2 1.2.3c.05-.02 0 .5 0 .5l-3.6 0c0 0-.01-.52 0-.5c.3-.1.7-.2 1.1-.3zm1.3-7.5c0 0 0 4.7 0 4.7c.3.1.7.1 1.1.1c1.5 0 2.4-1 2.4-3c0-1.8-.7-2.6-1.8-2.6c-.7 0-1.4.3-1.7.8zm10.2 1.5c0 0 0-1.2 0-1.2c0-.9-.5-1.3-1.4-1.3c-.3 0-.6 0-1 .1c.03.01-.2 1.5-.2 1.5c0 0-.8-.02-.8 0c-.1-.3-.1-.7-.1-1.1c0-.2 0-.4 0-.5c.7-.5 1.7-.7 2.7-.7c1.4 0 2.1.6 2.1 1.7c0 .9-.1 3.2-.1 4.6c.05.02 1.1.2 1.1.2c0 0-.03.46 0 .5c-.6.1-1.4.3-2.3.3c0 0 0-1.2 0-1.2c-.4.7-1.1 1.2-2 1.2c-1.2 0-2-.7-2-1.8c0-1.8 1.6-2.2 4-2.3zm0 2.5c0 0 0-2 0-2c-1.8.1-2.7.5-2.7 1.5c0 .8.5 1.2 1.2 1.2c.6 0 1.2-.3 1.5-.7zm4.3.7c.01.02 0-5.4 0-5.4l-1-.2c0 0-.01-.5 0-.5c.5-.2 1.4-.3 2.3-.3c0 0 0 1.1 0 1.1c.4-.7 1.3-1.1 2.1-1.1c.3 0 .6.1.8.1c0 .8-.1 1.7-.2 2.1c-.03.02-.8 0-.8 0l-.2-1.3c0 0-.08 0-.1 0c-.6 0-1.2.3-1.6.7c0 0 0 4.8 0 4.8c.6.1 1 .1 1.4.3c.01-.04 0 .4 0 .4l-3.8 0c0 0 .03-.44 0-.4c.3-.2.7-.2 1.1-.3zm5.5 0c.05.02 0-8.7 0-8.7l-1-.3c0 0 .03-.46 0-.5c.6-.1 1.4-.3 2.4-.3c0 0 0 9.8 0 9.8c.4.1.7.1 1 .3c.05-.04 0 .4 0 .4l-3.4 0c0 0-.03-.44 0-.4c.3-.2.6-.2 1-.3zm4.1-5.6c-.4 0-.8-.1-1.1-.2c.05 0 0-.5 0-.5l3.3 0c0 0 .04.5 0 .5c-.2.1-.6.2-1 .2c.01.04-2.4 2.3-2.4 2.3c0 0 2.78 3.35 2.8 3.4c.3 0 .5.1.8.2c-.04-.04 0 .4 0 .4l-3.3 0c0 0 .03-.44 0-.4c.3-.1.5-.2.9-.3c-.03.04-2.5-2.9-2.5-2.9l0-.1c0 0 2.53-2.56 2.5-2.6zm7-3.3c0-.2 0-.4 0-.6c.3 0 .5 0 .7 0c.2 0 .5 0 .7 0c0 .2 0 .4 0 .6c0 .5 0 .8-.1 1.1c-.2 0-.4 0-.6 0c-.2 0-.4 0-.6 0c-.1-.3-.1-.6-.1-1.1zm0 8.9c-.01.02 0-5.4 0-5.4l-1-.2c0 0-.03-.5 0-.5c.5-.2 1.3-.3 2.3-.3c0 0 0 6.4 0 6.4c.4.1.8.1 1.1.3c-.02-.04 0 .4 0 .4l-3.5 0c0 0 .01-.44 0-.4c.3-.2.7-.2 1.1-.3zm3.6-1.4c-.01-.02.8 0 .8 0c0 0 .17 1.53.2 1.5c.3.1.6.2 1 .2c.9 0 1.6-.5 1.6-1.3c0-.7-.5-1-1.3-1.2c0 0-.8-.2-.8-.2c-1.1-.4-1.7-1-1.7-2c0-1.3 1.1-2.1 2.6-2.1c.9 0 1.8.3 2.1.5c0 0 0 .2 0 .2c0 .5 0 1.2-.2 1.6c0 .02-.8 0-.8 0c0 0-.17-1.47-.2-1.5c-.3 0-.6-.1-.9-.1c-.9 0-1.4.4-1.4 1.1c0 .7.3 1 1 1.2c0 0 .9.2.9.2c1.2.4 1.9.9 1.9 2.1c0 1.2-1.2 2.1-2.8 2.1c-.9 0-1.9-.2-2.3-.5c0 0 0-.1 0-.1c.1-.6.1-1.3.3-1.7zm12.4-5c2.1 0 3.2 1.2 3.2 3.6c0 2.3-1.4 3.7-3.4 3.7c-2 0-3.1-1.2-3.1-3.6c0-2.4 1.3-3.7 3.3-3.7zm1.7 3.7c0-2-.6-3-1.8-3c-1.1 0-1.8.7-1.8 2.8c0 2.1.7 3.1 1.8 3.1c1.2 0 1.8-.8 1.8-2.9zm3.5 2.7c.03.02 0-5.4 0-5.4l-1-.2c0 0 .01-.5 0-.5c.5-.2 1.4-.3 2.3-.3c0 0 0 1.2 0 1.2c.5-.8 1.4-1.3 2.4-1.3c1.3 0 2.1.8 2.1 2.1c0 0 0 4.4 0 4.4c.5.1.8.1 1.1.3c.02-.04 0 .4 0 .4l-3.5 0c0 0 .04-.44 0-.4c.3-.2.7-.2 1.1-.3c0 0 0-4.1 0-4.1c0-.9-.5-1.3-1.4-1.3c-.7 0-1.3.2-1.8.6c0 0 0 4.8 0 4.8c.5.1.8.1 1.1.3c.02-.04 0 .4 0 .4l-3.5 0c0 0 .05-.44 0-.4c.3-.2.7-.2 1.1-.3zm11.2-6.4c1.6 0 2.6.9 2.6 2.6c0 .3 0 .4-.1.8c.03-.04-4.5 0-4.5 0c0 0 .03.08 0 .1c0 2 1.1 2.8 2.3 2.8c.8 0 1.4-.4 1.9-.9c0 0 .3.2.3.2c-.5 1-1.3 1.7-2.6 1.7c-1.8 0-3.2-1.1-3.2-3.6c0-2.4 1.5-3.7 3.3-3.7zm-1.9 2.7c-.02 0 3.2 0 3.2 0c0 0-.02-.24 0-.2c0-1.3-.6-1.8-1.4-1.8c-.9 0-1.6.5-1.8 2zm12.1-2.7c2 0 3.1 1.2 3.1 3.6c0 2.3-1.4 3.7-3.3 3.7c-2.1 0-3.1-1.2-3.1-3.6c0-2.4 1.3-3.7 3.3-3.7zm1.7 3.7c0-2-.6-3-1.8-3c-1.1 0-1.8.7-1.8 2.8c0 2.1.6 3.1 1.8 3.1c1.1 0 1.8-.8 1.8-2.9zm3.4-3.6c0 0 0-.9 0-.9c0-1.5.9-2.6 2.7-2.6c.7 0 1.5.2 1.9.3c0 .5 0 1.1-.1 1.6c-.05 0-.8 0-.8 0c0 0-.33-1.31-.3-1.3c-.2 0-.3 0-.4 0c-1.2 0-1.7.7-1.7 1.9c.03-.03 0 1 0 1l1.8 0l0 .8l-1.8 0c0 0 .03 5.52 0 5.5c.6.1 1.1.1 1.4.3c.01-.04 0 .4 0 .4l-3.8 0c0 0 .04-.44 0-.4c.3-.2.7-.2 1.1-.3c.02.02 0-5.5 0-5.5l-1 0c0 0 0-.48 0-.5c.2-.1.5-.2 1-.3zm6.6.3c.2-.1.6-.2 1.1-.3c0 0 .1-1.4.1-1.4c.3-.1.8-.1 1.2-.1c.01-.04 0 1.5 0 1.5l1.8 0l0 .8l-1.8 0c0 0-.05 4.44 0 4.4c0 .8.3 1.1.8 1.1c.4 0 .6-.2 1-.5c0 0 .3.2.3.2c-.4.8-1.1 1.2-1.8 1.2c-1.1 0-1.7-.6-1.7-1.8c.04.02.1-4.6.1-4.6l-1.1 0l0-.5c0 0 .02.02 0 0zm6.1 6c-.03.02 0-8.7 0-8.7l-1-.3c0 0-.05-.46 0-.5c.5-.1 1.3-.3 2.3-.3c0 0 0 4.6 0 4.6c.4-.8 1.3-1.3 2.4-1.3c1.3 0 2.1.8 2.1 2.1c0 0 0 4.4 0 4.4c.4.1.8.1 1.1.3c-.03-.04 0 .4 0 .4l-3.5 0c0 0-.01-.44 0-.4c.3-.2.7-.2 1.1-.3c0 0 0-4.1 0-4.1c0-.9-.5-1.3-1.5-1.3c-.7 0-1.3.2-1.7.6c0 0 0 4.8 0 4.8c.4.1.8.1 1.1.3c-.03-.04 0 .4 0 .4l-3.5 0c0 0-.01-.44 0-.4c.3-.2.7-.2 1.1-.3zm11.1-6.4c1.7 0 2.6.9 2.6 2.6c0 .3 0 .4 0 .8c-.02-.04-4.5 0-4.5 0c0 0-.02.08 0 .1c0 2 1 2.8 2.3 2.8c.7 0 1.3-.4 1.8-.9c0 0 .3.2.3.2c-.5 1-1.3 1.7-2.6 1.7c-1.8 0-3.2-1.1-3.2-3.6c0-2.4 1.5-3.7 3.3-3.7zm-1.9 2.7c.03 0 3.2 0 3.2 0c0 0 .02-.24 0-.2c0-1.3-.5-1.8-1.4-1.8c-.8 0-1.6.5-1.8 2z" stroke="none" fill="#404040"/></g></svg>