<?xml version="1.0" standalone="no"?><!DOCTYPE svg PUBLIC "-//W3C//DTD SVG 1.1//EN" "http://www.w3.org/Graphics/SVG/1.1/DTD/svg11.dtd"><svg xmlns="http://www.w3.org/2000/svg" version="1.1" width="72.3px" height="21.3px" viewBox="0 0 72.3 21.3">  <desc>Video 00:16</desc>  <defs/>  <g id="Polygon12340">    <path d="M 3 10 L 0 1 L 1.3 1 C 1.3 1 2.71 5.44 2.7 5.4 C 3.1 6.7 3.4 7.7 3.7 8.8 C 3.7 8.8 3.7 8.8 3.7 8.8 C 3.9 7.8 4.3 6.6 4.7 5.4 C 4.72 5.45 6.2 1 6.2 1 L 7.5 1 L 4.3 10 L 3 10 Z M 8.2 10 L 8.2 3.5 L 9.4 3.5 L 9.4 10 L 8.2 10 Z M 9.5 1.7 C 9.5 2.1 9.2 2.5 8.8 2.5 C 8.3 2.5 8 2.1 8 1.7 C 8 1.3 8.3 1 8.8 1 C 9.2 1 9.5 1.3 9.5 1.7 Z M 16.9 0.5 C 16.9 0.5 16.87 8.33 16.9 8.3 C 16.9 8.9 16.9 9.6 16.9 10 C 16.92 9.99 15.9 10 15.9 10 L 15.8 8.9 C 15.8 8.9 15.79 8.88 15.8 8.9 C 15.4 9.6 14.7 10.1 13.6 10.1 C 12.1 10.1 10.8 8.8 10.8 6.9 C 10.8 4.7 12.2 3.4 13.7 3.4 C 14.7 3.4 15.4 3.9 15.7 4.4 C 15.68 4.38 15.7 4.4 15.7 4.4 L 15.7 0.5 L 16.9 0.5 Z M 15.7 6.2 C 15.7 6 15.7 5.8 15.7 5.7 C 15.5 4.9 14.8 4.3 14 4.3 C 12.8 4.3 12 5.4 12 6.8 C 12 8.1 12.7 9.2 13.9 9.2 C 14.7 9.2 15.4 8.7 15.7 7.8 C 15.7 7.6 15.7 7.5 15.7 7.3 C 15.7 7.3 15.7 6.2 15.7 6.2 Z M 19.5 7 C 19.5 8.6 20.5 9.2 21.7 9.2 C 22.5 9.2 23.1 9.1 23.5 8.9 C 23.5 8.9 23.7 9.7 23.7 9.7 C 23.3 9.9 22.6 10.1 21.5 10.1 C 19.5 10.1 18.4 8.8 18.4 6.9 C 18.4 4.9 19.5 3.4 21.4 3.4 C 23.5 3.4 24.1 5.3 24.1 6.4 C 24.1 6.7 24 6.8 24 7 C 24 7 19.5 7 19.5 7 Z M 22.9 6.1 C 22.9 5.4 22.6 4.2 21.3 4.2 C 20.1 4.2 19.6 5.3 19.5 6.1 C 19.5 6.1 22.9 6.1 22.9 6.1 Z M 31.3 6.7 C 31.3 9.1 29.7 10.1 28.1 10.1 C 26.4 10.1 25 8.9 25 6.8 C 25 4.7 26.5 3.4 28.2 3.4 C 30.1 3.4 31.3 4.8 31.3 6.7 Z M 26.2 6.8 C 26.2 8.2 27 9.3 28.2 9.3 C 29.3 9.3 30.1 8.2 30.1 6.8 C 30.1 5.7 29.6 4.3 28.2 4.3 C 26.8 4.3 26.2 5.6 26.2 6.8 Z M 35.8 11.5 L 35.8 0.9 L 38.2 0.9 L 38.2 1.6 L 36.7 1.6 L 36.7 10.8 L 38.2 10.8 L 38.2 11.5 L 35.8 11.5 Z M 44.8 5.6 C 44.8 8.5 43.7 10.1 41.8 10.1 C 40.1 10.1 39 8.6 38.9 5.7 C 38.9 2.8 40.2 1.2 42 1.2 C 43.8 1.2 44.8 2.8 44.8 5.6 Z M 40.1 5.7 C 40.1 8 40.8 9.2 41.9 9.2 C 43.1 9.2 43.6 7.8 43.6 5.6 C 43.6 3.5 43.1 2.1 41.9 2.1 C 40.9 2.1 40.1 3.3 40.1 5.7 Z M 51.7 5.6 C 51.7 8.5 50.6 10.1 48.6 10.1 C 47 10.1 45.8 8.6 45.8 5.7 C 45.8 2.8 47 1.2 48.8 1.2 C 50.6 1.2 51.7 2.8 51.7 5.6 Z M 47 5.7 C 47 8 47.6 9.2 48.7 9.2 C 49.9 9.2 50.5 7.8 50.5 5.6 C 50.5 3.5 49.9 2.1 48.7 2.1 C 47.7 2.1 47 3.3 47 5.7 Z M 52.8 4.6 C 52.8 4.1 53.2 3.8 53.6 3.8 C 54.1 3.8 54.4 4.1 54.4 4.6 C 54.4 5.1 54.1 5.4 53.6 5.4 C 53.2 5.4 52.8 5.1 52.8 4.6 Z M 52.8 9.3 C 52.8 8.8 53.2 8.5 53.6 8.5 C 54.1 8.5 54.4 8.8 54.4 9.3 C 54.4 9.8 54.1 10.1 53.6 10.1 C 53.2 10.1 52.8 9.8 52.8 9.3 Z M 58 2.4 L 58 2.4 L 56.5 3.2 L 56.3 2.3 L 58.2 1.3 L 59.2 1.3 L 59.2 10 L 58 10 L 58 2.4 Z M 67.3 2.2 C 67 2.1 66.7 2.2 66.4 2.2 C 64.5 2.5 63.6 3.9 63.4 5.3 C 63.4 5.3 63.4 5.3 63.4 5.3 C 63.8 4.7 64.5 4.3 65.5 4.3 C 67 4.3 68.1 5.4 68.1 7.1 C 68.1 8.7 67 10.1 65.2 10.1 C 63.4 10.1 62.2 8.7 62.2 6.4 C 62.2 4.7 62.8 3.4 63.6 2.5 C 64.4 1.8 65.3 1.4 66.4 1.3 C 66.8 1.2 67.1 1.2 67.3 1.2 C 67.3 1.2 67.3 2.2 67.3 2.2 Z M 66.9 7.2 C 66.9 5.9 66.2 5.2 65.1 5.2 C 64.4 5.2 63.8 5.6 63.5 6.2 C 63.4 6.4 63.3 6.5 63.3 6.7 C 63.3 8.2 64 9.2 65.3 9.2 C 66.3 9.2 66.9 8.4 66.9 7.2 Z M 71.3 0.9 L 71.3 11.5 L 68.8 11.5 L 68.8 10.8 L 70.3 10.8 L 70.3 1.6 L 68.8 1.6 L 68.8 0.9 L 71.3 0.9 Z " stroke="none" fill="#fff"/>  </g></svg>