<?xml version="1.0" standalone="no"?><!DOCTYPE svg PUBLIC "-//W3C//DTD SVG 1.1//EN" "http://www.w3.org/Graphics/SVG/1.1/DTD/svg11.dtd"><svg xmlns="http://www.w3.org/2000/svg" version="1.1" width="125px" height="46px" viewBox="0 0 125 46">  <desc>Getting there</desc>  <defs/>  <g id="Polygon10622">    <path d="M 15.9 25.5 C 15.2 25.8 13.7 26.1 12.3 26.1 C 10.4 26.1 8.9 25.6 7.9 24.7 C 7 23.7 6.4 22.3 6.4 20.7 C 6.4 17.2 9 15.1 12.6 15.1 C 14 15.1 15 15.4 15.6 15.6 C 15.6 15.6 15.1 17.6 15.1 17.6 C 14.5 17.3 13.7 17.1 12.6 17.1 C 10.5 17.1 9 18.3 9 20.6 C 9 22.8 10.4 24.1 12.4 24.1 C 12.9 24.1 13.4 24.1 13.6 24 C 13.57 24 13.6 21.7 13.6 21.7 L 11.9 21.7 L 11.9 19.8 L 15.9 19.8 C 15.9 19.8 15.92 25.5 15.9 25.5 Z M 19.7 22.9 C 19.8 23.9 20.8 24.4 21.9 24.4 C 22.8 24.4 23.4 24.2 24.1 24 C 24.1 24 24.4 25.7 24.4 25.7 C 23.6 26 22.6 26.2 21.6 26.2 C 18.9 26.2 17.4 24.6 17.4 22.2 C 17.4 20.2 18.6 18 21.3 18 C 23.9 18 24.8 20 24.8 21.9 C 24.8 22.3 24.8 22.7 24.8 22.9 C 24.8 22.9 19.7 22.9 19.7 22.9 Z M 22.6 21.2 C 22.6 20.6 22.3 19.6 21.2 19.6 C 20.2 19.6 19.8 20.6 19.7 21.2 C 19.7 21.2 22.6 21.2 22.6 21.2 Z M 29 16.1 L 29 18.2 L 30.8 18.2 L 30.8 20 L 29 20 C 29 20 29.01 22.8 29 22.8 C 29 23.7 29.3 24.2 30 24.2 C 30.3 24.2 30.5 24.2 30.7 24.1 C 30.7 24.1 30.7 26 30.7 26 C 30.4 26.1 29.8 26.2 29.1 26.2 C 28.4 26.2 27.7 25.9 27.3 25.5 C 26.9 25 26.6 24.3 26.6 23.2 C 26.63 23.17 26.6 20 26.6 20 L 25.6 20 L 25.6 18.2 L 26.6 18.2 L 26.6 16.7 L 29 16.1 Z M 34.9 16.1 L 34.9 18.2 L 36.6 18.2 L 36.6 20 L 34.9 20 C 34.9 20 34.88 22.8 34.9 22.8 C 34.9 23.7 35.1 24.2 35.8 24.2 C 36.2 24.2 36.3 24.2 36.6 24.1 C 36.6 24.1 36.6 26 36.6 26 C 36.3 26.1 35.7 26.2 35 26.2 C 34.2 26.2 33.6 25.9 33.2 25.5 C 32.7 25 32.5 24.3 32.5 23.2 C 32.5 23.17 32.5 20 32.5 20 L 31.5 20 L 31.5 18.2 L 32.5 18.2 L 32.5 16.7 L 34.9 16.1 Z M 38 26 L 38 18.2 L 40.5 18.2 L 40.5 26 L 38 26 Z M 40.5 16 C 40.5 16.7 40.1 17.2 39.2 17.2 C 38.5 17.2 38 16.7 38 16 C 38 15.3 38.5 14.8 39.3 14.8 C 40.1 14.8 40.5 15.3 40.5 16 Z M 42.4 20.7 C 42.4 19.7 42.4 18.9 42.4 18.2 C 42.36 18.18 44.5 18.2 44.5 18.2 L 44.6 19.3 C 44.6 19.3 44.63 19.26 44.6 19.3 C 44.9 18.8 45.7 18 47 18 C 48.6 18 49.8 19.1 49.8 21.4 C 49.84 21.38 49.8 26 49.8 26 L 47.4 26 C 47.4 26 47.41 21.66 47.4 21.7 C 47.4 20.7 47.1 20 46.2 20 C 45.5 20 45.1 20.4 44.9 20.9 C 44.9 21 44.9 21.3 44.9 21.5 C 44.85 21.49 44.9 26 44.9 26 L 42.4 26 C 42.4 26 42.42 20.67 42.4 20.7 Z M 59.2 24.9 C 59.2 26.4 58.9 27.6 58 28.4 C 57.2 29.1 56 29.3 54.8 29.3 C 53.8 29.3 52.7 29.1 52 28.8 C 52 28.8 52.5 26.9 52.5 26.9 C 53 27.2 53.8 27.5 54.8 27.5 C 55.9 27.5 56.8 26.9 56.8 25.4 C 56.8 25.42 56.8 24.9 56.8 24.9 C 56.8 24.9 56.77 24.93 56.8 24.9 C 56.3 25.6 55.6 25.9 54.7 25.9 C 52.7 25.9 51.3 24.4 51.3 22.1 C 51.3 19.6 53 18 54.9 18 C 56 18 56.6 18.5 57 19.1 C 57.04 19.12 57.1 19.1 57.1 19.1 L 57.2 18.2 C 57.2 18.2 59.27 18.18 59.3 18.2 C 59.2 18.7 59.2 19.3 59.2 20.5 C 59.2 20.5 59.2 24.9 59.2 24.9 Z M 56.8 21.4 C 56.8 21.2 56.8 21.1 56.7 20.9 C 56.5 20.3 56.1 19.8 55.4 19.8 C 54.5 19.8 53.8 20.6 53.8 22.1 C 53.8 23.2 54.4 24.1 55.4 24.1 C 56 24.1 56.5 23.7 56.7 23.2 C 56.8 23 56.8 22.7 56.8 22.5 C 56.8 22.5 56.8 21.4 56.8 21.4 Z M 67.1 16.1 L 67.1 18.2 L 68.9 18.2 L 68.9 20 L 67.1 20 C 67.1 20 67.11 22.8 67.1 22.8 C 67.1 23.7 67.3 24.2 68.1 24.2 C 68.4 24.2 68.6 24.2 68.8 24.1 C 68.8 24.1 68.8 26 68.8 26 C 68.5 26.1 67.9 26.2 67.2 26.2 C 66.5 26.2 65.8 25.9 65.4 25.5 C 64.9 25 64.7 24.3 64.7 23.2 C 64.72 23.17 64.7 20 64.7 20 L 63.7 20 L 63.7 18.2 L 64.7 18.2 L 64.7 16.7 L 67.1 16.1 Z M 70.3 14.6 L 72.7 14.6 L 72.7 19.1 C 72.7 19.1 72.72 19.12 72.7 19.1 C 73 18.8 73.3 18.5 73.7 18.3 C 74.1 18.1 74.5 18 74.9 18 C 76.5 18 77.7 19.1 77.7 21.4 C 77.68 21.44 77.7 26 77.7 26 L 75.3 26 C 75.3 26 75.25 21.7 75.3 21.7 C 75.3 20.7 74.9 20 74 20 C 73.3 20 72.9 20.4 72.8 20.8 C 72.7 21 72.7 21.2 72.7 21.4 C 72.69 21.36 72.7 26 72.7 26 L 70.3 26 L 70.3 14.6 Z M 81.5 22.9 C 81.6 23.9 82.6 24.4 83.7 24.4 C 84.5 24.4 85.2 24.2 85.9 24 C 85.9 24 86.2 25.7 86.2 25.7 C 85.4 26 84.4 26.2 83.4 26.2 C 80.7 26.2 79.2 24.6 79.2 22.2 C 79.2 20.2 80.4 18 83.1 18 C 85.7 18 86.6 20 86.6 21.9 C 86.6 22.3 86.6 22.7 86.5 22.9 C 86.5 22.9 81.5 22.9 81.5 22.9 Z M 84.4 21.2 C 84.4 20.6 84.1 19.6 83 19.6 C 82 19.6 81.6 20.6 81.5 21.2 C 81.5 21.2 84.4 21.2 84.4 21.2 Z M 88.1 20.8 C 88.1 19.6 88.1 18.8 88 18.2 C 88.02 18.18 90.1 18.2 90.1 18.2 L 90.2 19.6 C 90.2 19.6 90.26 19.62 90.3 19.6 C 90.7 18.5 91.6 18 92.4 18 C 92.6 18 92.7 18 92.9 18 C 92.9 18 92.9 20.3 92.9 20.3 C 92.7 20.3 92.5 20.3 92.2 20.3 C 91.3 20.3 90.7 20.7 90.6 21.5 C 90.5 21.6 90.5 21.8 90.5 22 C 90.52 22.03 90.5 26 90.5 26 L 88.1 26 C 88.1 26 88.08 20.75 88.1 20.8 Z M 95.9 22.9 C 96 23.9 97 24.4 98.1 24.4 C 98.9 24.4 99.6 24.2 100.3 24 C 100.3 24 100.6 25.7 100.6 25.7 C 99.8 26 98.8 26.2 97.8 26.2 C 95.1 26.2 93.6 24.6 93.6 22.2 C 93.6 20.2 94.8 18 97.5 18 C 100.1 18 101 20 101 21.9 C 101 22.3 101 22.7 100.9 22.9 C 100.9 22.9 95.9 22.9 95.9 22.9 Z M 98.8 21.2 C 98.8 20.6 98.5 19.6 97.4 19.6 C 96.4 19.6 96 20.6 95.9 21.2 C 95.9 21.2 98.8 21.2 98.8 21.2 Z " stroke="none" fill="#fff"/>  </g></svg>