<?xml version="1.0" standalone="no"?><!DOCTYPE svg PUBLIC "-//W3C//DTD SVG 1.1//EN" "http://www.w3.org/Graphics/SVG/1.1/DTD/svg11.dtd"><svg xmlns="http://www.w3.org/2000/svg" version="1.1" width="246px" height="393.9px" viewBox="0 0 246 393.9"><desc>The park is one of the least visited of all of America s national parks The relatively light visitation enhances the</desc><defs/><g id="Polygon11985"><path d="m22.5 352.6c0 0 0-1.4 0-1.4c0-2.3 1.5-4.1 4.3-4.1c1.1 0 2.4.2 3 .5c.1.7 0 1.7-.2 2.5c0-.03-1.2 0-1.2 0c0 0-.53-2.12-.5-2.1c-.2 0-.4 0-.6 0c-1.9 0-2.7 1.1-2.7 3c.01-.02 0 1.7 0 1.7l2.8 0l0 1.2l-2.8 0c0 0 .01 8.84 0 8.8c.9.1 1.6.2 2.2.4c.02.03 0 .8 0 .8l-6 0c0 0-.03-.77 0-.8c.4-.2 1-.3 1.7-.4c0 .04 0-8.8 0-8.8l-1.6 0c0 0-.04-.76 0-.8c.3-.1.8-.3 1.6-.5zm7.9 10.1c-.03.04 0-8.6 0-8.6l-1.7-.4c0 0 .04-.75 0-.7c.9-.3 2.2-.5 3.8-.5c0 0 0 1.7 0 1.7c.6-1 2-1.7 3.3-1.7c.5 0 1 .1 1.2.2c0 1.2-.2 2.7-.3 3.3c0 .02-1.2 0-1.2 0l-.4-2.1c0 0-.08.01-.1 0c-.9 0-2 .4-2.5 1.1c0 0 0 7.7 0 7.7c.8.1 1.6.2 2.2.4c-.01.03 0 .8 0 .8l-6.1 0c0 0 .04-.77 0-.8c.5-.2 1.1-.3 1.8-.4zm14.2-5.1c0 0 0-2 0-2c0-1.4-.8-2-2.2-2c-.5 0-1 .1-1.6.2c.03-.03-.4 2.3-.4 2.3c0 0-1.22.02-1.2 0c-.2-.5-.3-1.1-.3-1.7c0-.3.1-.6.1-.8c1.1-.8 2.7-1.1 4.3-1.1c2.3 0 3.4.9 3.4 2.8c0 1.3-.1 5-.1 7.3c.02-.02 1.6.3 1.6.3c0 0 .05.71 0 .7c-.8.3-2.1.5-3.6.5c0 0 0-1.9 0-1.9c-.6 1.1-1.8 1.9-3.2 1.9c-1.9 0-3.1-1-3.1-2.9c0-2.8 2.5-3.4 6.3-3.6zm0 3.9c0 0 0-3.1 0-3.1c-2.8.2-4.2.7-4.2 2.4c0 1.3.7 1.9 1.9 1.9c.9 0 1.8-.5 2.3-1.2zm7.1 1.7c-.6-.2-1-.9-1-1.6c0-.9.5-1.6 1.3-2.1c-1.3-.6-2-1.7-2-3.3c0-2.4 1.9-3.8 4.5-3.8c1.1 0 2 .1 2.9.8c.7-.5 1.5-.7 2.6-.7c0 .2.1.5.1.8c0 .4-.1.6-.1.8c0 0-1.9 0-1.9 0c.4.5.6 1.2.6 1.9c0 2.4-1.6 3.9-4.6 3.9c-.6 0-1.1-.1-1.6-.3c-.1.4-.2.7-.2 1.2c0 .6.3.9 1 .9c0 0 3.3 0 3.3 0c2.1 0 3.3 1 3.3 2.9c0 2.4-2.4 4-5.7 4c-3.3 0-4.8-1.2-4.8-3c0-1.2.8-2 2.3-2.4zm4.9-7.2c0-1.8-.9-2.8-2.3-2.8c-1.3 0-2.2.9-2.2 2.6c0 2.1.9 3.1 2.2 3.1c1.5 0 2.3-.9 2.3-2.9zm-5.3 9.2c0 1.6 1.1 2.3 2.9 2.3c2.4 0 3.8-.8 3.8-2.4c0-1-.7-1.6-1.9-1.6c0 0-4.2 0-4.2 0c-.3.4-.6.9-.6 1.7zm11.8-16.7c0-.3.1-.7.1-.9c.4-.1.7-.1 1.1-.1c.4 0 .7 0 1 .1c.1.2.1.6.1.9c0 .8-.1 1.3-.2 1.7c-.2 0-.6.1-.9.1c-.3 0-.7-.1-1-.1c-.1-.4-.2-.9-.2-1.7zm0 14.2c.03.04 0-8.6 0-8.6l-1.6-.4c0 0 0-.75 0-.7c.9-.3 2.2-.5 3.7-.5c0 0 0 10.2 0 10.2c.7.1 1.3.2 1.8.4c-.03.03 0 .8 0 .8l-5.6 0c0 0 0-.77 0-.8c.5-.2 1.1-.3 1.7-.4zm6.8 0c.04.04 0-14 0-14l-1.6-.4c0 0 .01-.72 0-.7c.9-.3 2.2-.5 3.8-.5c0 0 0 15.6 0 15.6c.6.1 1.2.2 1.7.4c-.02.03 0 .8 0 .8l-5.6 0c0 0 .01-.77 0-.8c.5-.2 1.1-.3 1.7-.4zm10.4-10.2c2.7 0 4.2 1.4 4.2 4.1c0 .5 0 .7-.1 1.2c.04.05-7.2 0-7.2 0c0 0 .04.24 0 .2c0 3.3 1.7 4.6 3.7 4.6c1.2 0 2.2-.6 3-1.5c0 0 .4.4.4.4c-.7 1.5-2.1 2.6-4.1 2.6c-2.9 0-5.2-1.7-5.2-5.8c0-3.7 2.4-5.8 5.3-5.8zm-3 4.3c.01-.01 5.1 0 5.1 0c0 0 .02-.39 0-.4c0-2-.8-2.9-2.2-2.9c-1.4 0-2.6 1-2.9 3.3zm15.6 5.9c-.01.04 0-8.6 0-8.6l-1.6-.4c0 0-.05-.75 0-.7c.8-.3 2.2-.5 3.7-.5c0 0 0 1.7 0 1.7c.6-1 2-1.7 3.3-1.7c.5 0 1 .1 1.3.2c0 1.2-.2 2.7-.4 3.3c.02.02-1.2 0-1.2 0l-.3-2.1c0 0-.16.01-.2 0c-.9 0-2 .4-2.5 1.1c0 0 0 7.7 0 7.7c.9.1 1.6.2 2.2.4c.01.03 0 .8 0 .8l-6 0c0 0-.04-.77 0-.8c.4-.2 1-.3 1.7-.4zm13.1-10.2c2.7 0 4.2 1.4 4.2 4.1c0 .5 0 .7-.1 1.2c-.01.05-7.2 0-7.2 0c0 0-.01.24 0 .2c0 3.3 1.6 4.6 3.6 4.6c1.3 0 2.3-.6 3-1.5c0 0 .5.4.5.4c-.8 1.5-2.1 2.6-4.1 2.6c-2.9 0-5.2-1.7-5.2-5.8c0-3.7 2.4-5.8 5.3-5.8zm-3 4.3c-.03-.01 5.1 0 5.1 0c0 0-.02-.39 0-.4c0-2-.9-2.9-2.2-2.9c-1.4 0-2.6 1-2.9 3.3zm9.6 3.6c-.01.04 1.2 0 1.2 0c0 0 .37 2.51.4 2.5c.5.2 1.1.2 1.6.2c1.4 0 2.6-.6 2.6-2c0-1-.8-1.5-2.1-1.9c0 0-1.3-.4-1.3-.4c-1.7-.5-2.6-1.5-2.6-3.2c0-2 1.7-3.2 4-3.2c1.5 0 2.9.4 3.5.7c0 0 0 .3 0 .3c0 .8-.2 1.9-.4 2.6c0 .02-1.2 0-1.2 0c0 0-.36-2.35-.4-2.4c-.5-.1-1-.2-1.5-.2c-1.3 0-2.2.6-2.2 1.8c0 1.1.6 1.6 1.7 1.9c0 0 1.3.4 1.3.4c2 .5 3.1 1.3 3.1 3.2c0 2-1.9 3.5-4.5 3.5c-1.5 0-3-.4-3.6-.8c0 0 0-.3 0-.3c0-.8.2-1.9.4-2.7zm14.9-7.9c3.3 0 5.1 1.8 5.1 5.7c0 3.7-2.3 5.9-5.4 5.9c-3.3 0-5-1.9-5-5.8c0-3.7 2.1-5.8 5.3-5.8zm2.8 5.9c0-3.3-1.1-4.9-2.9-4.9c-1.8 0-2.9 1.3-2.9 4.5c0 3.5 1 5 2.9 5c1.8 0 2.9-1.2 2.9-4.6zm3.7-4.7c0 0 0-.75 0-.7c.9-.3 2.2-.5 3.7-.5c0 0 0 7.9 0 7.9c0 1.6.6 2.2 2.2 2.2c1.2 0 2.3-.4 2.9-1.1c.03.02 0-7.4 0-7.4l-1.6-.4c0 0 0-.75 0-.7c.9-.3 2.2-.5 3.7-.5c.04-.03 0 10.1 0 10.1l1.7.3c0 0-.03.71 0 .7c-.9.3-2.2.5-3.8.5c0 0 0-1.9 0-1.9c-.7 1.3-2.1 2-3.8 2c-2 0-3.4-1.2-3.4-3.3c.03.02 0-6.8 0-6.8l-1.6-.4zm15.8 9c.04.04 0-8.6 0-8.6l-1.6-.4c0 0 .01-.75 0-.7c.9-.3 2.2-.5 3.8-.5c0 0 0 1.7 0 1.7c.6-1 2-1.7 3.3-1.7c.4 0 .9.1 1.2.2c0 1.2-.2 2.7-.3 3.3c-.03.02-1.3 0-1.3 0l-.3-2.1c0 0-.11.01-.1 0c-.9 0-2 .4-2.5 1.1c0 0 0 7.7 0 7.7c.8.1 1.6.2 2.2.4c-.04.03 0 .8 0 .8l-6.1 0c0 0 .01-.77 0-.8c.5-.2 1.1-.3 1.7-.4zm13.4-10.2c1.3 0 2.5.4 3.1.7c0 .9-.1 2.1-.4 2.9c-.01.02-1.3 0-1.3 0c0 0-.29-2.45-.3-2.5c-.4 0-.8-.1-1.2-.1c-1.7 0-3.3 1.3-3.3 4.5c0 3 1.5 4.6 3.4 4.6c1.3 0 2.1-.6 2.9-1.5c0 0 .5.4.5.4c-.8 1.5-2 2.6-4.1 2.6c-2.8 0-4.9-2-4.9-5.8c0-3.8 2.4-5.8 5.6-5.8zm10.2 0c2.7 0 4.2 1.4 4.2 4.1c0 .5 0 .7-.1 1.2c.01.05-7.2 0-7.2 0c0 0 .01.24 0 .2c0 3.3 1.6 4.6 3.7 4.6c1.2 0 2.2-.6 2.9-1.5c0 0 .5.4.5.4c-.8 1.5-2.1 2.6-4.1 2.6c-2.9 0-5.2-1.7-5.2-5.8c0-3.7 2.4-5.8 5.3-5.8zm-3 4.3c-.02-.01 5.1 0 5.1 0c0 0-.01-.39 0-.4c0-2-.9-2.9-2.2-2.9c-1.4 0-2.6 1-2.9 3.3zm9.6 3.6c.01.04 1.3 0 1.3 0c0 0 .29 2.51.3 2.5c.5.2 1.1.2 1.6.2c1.4 0 2.6-.6 2.6-2c0-1-.8-1.5-2-1.9c0 0-1.4-.4-1.4-.4c-1.7-.5-2.6-1.5-2.6-3.2c0-2 1.7-3.2 4-3.2c1.5 0 2.9.4 3.5.7c0 0 0 .3 0 .3c0 .8-.1 1.9-.4 2.6c.02.02-1.2 0-1.2 0c0 0-.34-2.35-.3-2.4c-.5-.1-1.1-.2-1.6-.2c-1.3 0-2.2.6-2.2 1.8c0 1.1.6 1.6 1.7 1.9c0 0 1.3.4 1.3.4c2 .5 3.1 1.3 3.1 3.2c0 2-1.8 3.5-4.5 3.5c-1.5 0-3-.4-3.6-.8c0 0 0-.3 0-.3c0-.8.2-1.9.4-2.7zm9.8 2.1c0-1 .6-1.7 1.6-1.7c1.1 0 1.6.7 1.6 1.7c0 1-.5 1.7-1.6 1.7c-1 0-1.6-.7-1.6-1.7z" stroke="none" fill="#404040"/></g><g id="Polygon11984"><path d="m22.5 316.5c0-.3 0-.7.1-.9c.3-.1.7-.1 1-.1c.4 0 .8 0 1.1.1c.1.2.1.6.1.9c0 .8-.1 1.3-.2 1.7c-.3 0-.7.1-1 .1c-.2 0-.6-.1-.9-.1c-.1-.4-.2-.9-.2-1.7zm0 14.2c0 .04 0-8.6 0-8.6l-1.6-.4c0 0-.04-.75 0-.7c.8-.3 2.2-.5 3.7-.5c0 0 0 10.2 0 10.2c.7.1 1.3.2 1.7.4c.04.03 0 .8 0 .8l-5.5 0c0 0-.03-.77 0-.8c.4-.2 1-.3 1.7-.4zm6.9 0c.01.04 0-8.6 0-8.6l-1.6-.4c0 0-.02-.75 0-.7c.8-.3 2.2-.5 3.7-.5c0 0 0 1.8 0 1.8c.7-1.2 2.2-1.9 3.9-1.9c2 0 3.3 1.1 3.3 3.2c0 0 0 7.1 0 7.1c.7.1 1.3.2 1.7.4c.05.03 0 .8 0 .8l-5.5 0c0 0-.02-.77 0-.8c.5-.2 1-.3 1.7-.4c0 0 0-6.6 0-6.6c0-1.4-.8-2.1-2.3-2.1c-1.1 0-2.1.4-2.8 1.1c0 0 0 7.6 0 7.6c.7.1 1.3.2 1.7.4c.05.03 0 .8 0 .8l-5.5 0c0 0-.02-.77 0-.8c.5-.2 1-.3 1.7-.4zm18.7-10.1c0 0 .1-2.2.1-2.2c.5-.1 1.3-.2 1.9-.2c.04-.03 0 2.5 0 2.5l2.9 0l0 1.2l-2.9 0c0 0-.05 7.12-.1 7.1c0 1.3.5 1.6 1.4 1.6c.6 0 1-.2 1.6-.7c0 0 .5.4.5.4c-.7 1.2-1.8 1.8-3 1.8c-1.7 0-2.6-.8-2.6-2.8c.04 0 .1-7.4.1-7.4l-1.7 0c0 0 0-.76 0-.8c.3-.1 1-.3 1.8-.5zm7.9 10.1c0 .04 0-14 0-14l-1.6-.4c0 0-.03-.72 0-.7c.8-.3 2.2-.5 3.7-.5c0 0 0 7.2 0 7.2c.7-1.2 2.2-1.9 3.9-1.9c2 0 3.3 1.1 3.3 3.2c0 0 0 7.1 0 7.1c.7.1 1.3.2 1.7.4c.04.03 0 .8 0 .8l-5.5 0c0 0-.03-.77 0-.8c.5-.2 1-.3 1.7-.4c0 0 0-6.6 0-6.6c0-1.4-.8-2.1-2.3-2.1c-1.1 0-2.1.4-2.8 1.1c0 0 0 7.6 0 7.6c.7.1 1.3.2 1.7.4c.04.03 0 .8 0 .8l-5.5 0c0 0-.03-.77 0-.8c.5-.2 1-.3 1.7-.4zm17.8-10.2c2.7 0 4.2 1.4 4.2 4.1c0 .5 0 .7-.1 1.2c.04.05-7.2 0-7.2 0c0 0 .04.24 0 .2c0 3.3 1.7 4.6 3.7 4.6c1.2 0 2.2-.6 3-1.5c0 0 .4.4.4.4c-.7 1.5-2.1 2.6-4.1 2.6c-2.9 0-5.2-1.7-5.2-5.8c0-3.7 2.4-5.8 5.3-5.8zm-3 4.3c.01-.01 5.1 0 5.1 0c0 0 .02-.39 0-.4c0-2-.8-2.9-2.2-2.9c-1.4 0-2.6 1-2.9 3.3zm15.4 10.5c-.01-.04 0-13.2 0-13.2l-1.6-.4c0 0-.04-.75 0-.7c.8-.3 2.2-.5 3.7-.5c0 0 0 2.1 0 2.1c.6-1.4 2.1-2.2 3.6-2.2c2.5 0 4.3 1.9 4.3 5.4c0 4-2.3 6.4-5.4 6.4c-1 0-1.9-.3-2.5-.8c0 0 0 3.9 0 3.9c.9 0 1.4.1 2 .3c.02.04 0 .8 0 .8l-5.8 0c0 0-.04-.76 0-.8c.4-.2 1-.3 1.7-.3zm2.1-12.1c0 0 0 7.5 0 7.5c.5.2 1.1.2 1.8.2c2.3 0 3.9-1.7 3.9-4.8c0-2.9-1.2-4.2-3-4.2c-1.1 0-2.1.5-2.7 1.3zm11.2 7.5c.04.04 0-8.6 0-8.6l-1.6-.4c0 0 0-.75 0-.7c.9-.3 2.2-.5 3.7-.5c0 0 0 1.7 0 1.7c.7-1 2.1-1.7 3.4-1.7c.4 0 .9.1 1.2.2c0 1.2-.2 2.7-.3 3.3c-.03.02-1.3 0-1.3 0l-.3-2.1c0 0-.11.01-.1 0c-.9 0-2 .4-2.6 1.1c0 0 0 7.7 0 7.7c.9.1 1.7.2 2.3.4c-.04.03 0 .8 0 .8l-6.1 0c0 0 .01-.77 0-.8c.5-.2 1.1-.3 1.7-.4zm13.1-10.2c3.3 0 5.1 1.8 5.1 5.7c0 3.7-2.3 5.9-5.4 5.9c-3.3 0-5-1.9-5-5.8c0-3.7 2.1-5.8 5.3-5.8zm2.8 5.9c0-3.3-1-4.9-2.9-4.9c-1.8 0-2.9 1.3-2.9 4.5c0 3.5 1.1 5 2.9 5c1.8 0 2.9-1.2 2.9-4.6zm5.4-5.8c0 0 .2-2.2.2-2.2c.4-.1 1.3-.2 1.9-.2c-.01-.03 0 2.5 0 2.5l2.9 0l0 1.2l-3 0c0 0-.01 7.12 0 7.1c0 1.3.5 1.6 1.3 1.6c.6 0 1.1-.2 1.7-.7c0 0 .4.4.4.4c-.7 1.2-1.7 1.8-2.9 1.8c-1.7 0-2.7-.8-2.6-2.8c-.02 0 .1-7.4.1-7.4l-1.8 0c0 0 .05-.76 0-.8c.4-.1 1-.3 1.8-.5zm11.9-.1c2.7 0 4.2 1.4 4.2 4.1c0 .5 0 .7-.1 1.2c.01.05-7.2 0-7.2 0c0 0 .01.24 0 .2c0 3.3 1.6 4.6 3.7 4.6c1.2 0 2.2-.6 2.9-1.5c0 0 .5.4.5.4c-.8 1.5-2.1 2.6-4.1 2.6c-2.9 0-5.2-1.7-5.2-5.8c0-3.7 2.4-5.8 5.3-5.8zm-3 4.3c-.02-.01 5.1 0 5.1 0c0 0-.01-.39 0-.4c0-2-.9-2.9-2.2-2.9c-1.4 0-2.6 1-2.9 3.3zm14.7-4.3c1.2 0 2.5.4 3.1.7c0 .9-.2 2.1-.4 2.9c-.02.02-1.3 0-1.3 0c0 0-.31-2.45-.3-2.5c-.4 0-.8-.1-1.2-.1c-1.7 0-3.3 1.3-3.3 4.5c0 3 1.5 4.6 3.4 4.6c1.2 0 2.1-.6 2.9-1.5c0 0 .5.4.5.4c-.8 1.5-2.1 2.6-4.1 2.6c-2.9 0-4.9-2-4.9-5.8c0-3.8 2.4-5.8 5.6-5.8zm6.3.1c0 0 .1-2.2.1-2.2c.5-.1 1.3-.2 1.9-.2c.04-.03 0 2.5 0 2.5l2.9 0l0 1.2l-2.9 0c0 0-.05 7.12-.1 7.1c0 1.3.5 1.6 1.4 1.6c.6 0 1-.2 1.6-.7c0 0 .5.4.5.4c-.7 1.2-1.8 1.8-3 1.8c-1.7 0-2.6-.8-2.6-2.8c.03 0 .1-7.4.1-7.4l-1.7 0c0 0 0-.76 0-.8c.3-.1 1-.3 1.8-.5zm8.1-4.1c0-.3 0-.7.1-.9c.3-.1.7-.1 1-.1c.4 0 .8 0 1.1.1c0 .2.1.6.1.9c0 .8-.1 1.3-.2 1.7c-.3 0-.7.1-1 .1c-.2 0-.6-.1-.9-.1c-.1-.4-.2-.9-.2-1.7zm0 14.2c-.01.04 0-8.6 0-8.6l-1.6-.4c0 0-.04-.75 0-.7c.8-.3 2.2-.5 3.7-.5c0 0 0 10.2 0 10.2c.7.1 1.3.2 1.7.4c.03.03 0 .8 0 .8l-5.5 0c0 0-.04-.77 0-.8c.4-.2 1-.3 1.7-.4zm10.3-10.2c3.3 0 5.1 1.8 5.1 5.7c0 3.7-2.3 5.9-5.4 5.9c-3.3 0-5-1.9-5-5.8c0-3.7 2.1-5.8 5.3-5.8zm2.7 5.9c0-3.3-1-4.9-2.8-4.9c-1.8 0-2.9 1.3-2.9 4.5c0 3.5 1 5 2.9 5c1.7 0 2.8-1.2 2.8-4.6zm5.6 4.3c.01.04 0-8.6 0-8.6l-1.6-.4c0 0-.02-.75 0-.7c.8-.3 2.2-.5 3.7-.5c0 0 0 1.8 0 1.8c.7-1.2 2.2-1.9 3.9-1.9c2 0 3.3 1.1 3.3 3.2c0 0 0 7.1 0 7.1c.7.1 1.3.2 1.8.4c-.05.03 0 .8 0 .8l-5.6 0c0 0-.01-.77 0-.8c.5-.2 1-.3 1.7-.4c0 0 0-6.6 0-6.6c0-1.4-.8-2.1-2.3-2.1c-1.1 0-2.1.4-2.8 1.1c0 0 0 7.6 0 7.6c.7.1 1.3.2 1.8.4c-.05.03 0 .8 0 .8l-5.6 0c0 0-.01-.77 0-.8c.5-.2 1-.3 1.7-.4zm22.8-10.2c3.3 0 5.1 1.8 5.1 5.7c0 3.7-2.3 5.9-5.4 5.9c-3.3 0-5-1.9-5-5.8c0-3.7 2.1-5.8 5.3-5.8zm2.8 5.9c0-3.3-1.1-4.9-2.9-4.9c-1.8 0-2.9 1.3-2.9 4.5c0 3.5 1 5 2.9 5c1.7 0 2.9-1.2 2.9-4.6zm5.4-5.8c0 0 0-1.4 0-1.4c0-2.3 1.5-4.1 4.3-4.1c1.1 0 2.4.2 3 .5c.1.7.1 1.7-.2 2.5c.03-.03-1.2 0-1.2 0c0 0-.5-2.12-.5-2.1c-.2 0-.4 0-.6 0c-1.8 0-2.7 1.1-2.7 3c.03-.02 0 1.7 0 1.7l2.8 0l0 1.2l-2.8 0c0 0 .03 8.84 0 8.8c.9.1 1.7.2 2.2.4c.04.03 0 .8 0 .8l-6 0c0 0-.01-.77 0-.8c.5-.2 1.1-.3 1.7-.4c.02.04 0-8.8 0-8.8l-1.6 0c0 0-.01-.76 0-.8c.3-.1.9-.3 1.6-.5z" stroke="none" fill="#404040"/></g><g id="Polygon11983"><path d="m114.1 293.6c0 0 0-2 0-2c0-1.4-.8-2-2.2-2c-.5 0-1 .1-1.6.2c.01-.03-.4 2.3-.4 2.3c0 0-1.24.02-1.2 0c-.2-.5-.3-1.1-.3-1.7c0-.3 0-.6.1-.8c1.1-.8 2.7-1.1 4.2-1.1c2.3 0 3.5.9 3.5 2.8c0 1.3-.1 5-.1 7.3c0-.02 1.6.3 1.6.3c0 0 .03.71 0 .7c-.8.3-2.1.5-3.6.5c0 0 0-1.9 0-1.9c-.6 1.1-1.8 1.9-3.2 1.9c-2 0-3.2-1-3.2-2.9c0-2.8 2.6-3.4 6.4-3.6zm0 3.9c0 0 0-3.1 0-3.1c-2.9.2-4.2.7-4.2 2.4c0 1.3.7 1.9 1.9 1.9c.9 0 1.8-.5 2.3-1.2zm6.9 1.2c-.01.04 0-8.6 0-8.6l-1.6-.4c0 0-.04-.75 0-.7c.8-.3 2.2-.5 3.7-.5c0 0 0 1.8 0 1.8c.7-1.2 2.2-1.9 3.8-1.9c2.1 0 3.4 1.1 3.4 3.2c0 0 0 7.1 0 7.1c.7.1 1.3.2 1.7.4c.03.03 0 .8 0 .8l-5.5 0c0 0-.04-.77 0-.8c.4-.2 1-.3 1.7-.4c0 0 0-6.6 0-6.6c0-1.4-.8-2.1-2.3-2.1c-1.1 0-2.1.4-2.8 1.1c0 0 0 7.6 0 7.6c.7.1 1.3.2 1.7.4c.03.03 0 .8 0 .8l-5.5 0c0 0-.04-.77 0-.8c.4-.2 1-.3 1.7-.4zm18-10.3c1.1 0 2 .3 2.5.8c-.01.04 0-4.5 0-4.5l-1.9-.4c0 0-.03-.72 0-.7c.8-.3 2.5-.5 4-.5c0 0 0 15.5 0 15.5l1.6.3c0 0 .03.71 0 .7c-.8.3-2.2.5-3.7.5c0 0 0-2.1 0-2.1c-.6 1.3-1.9 2.2-3.4 2.2c-2.7 0-4.5-2.1-4.5-5.7c0-3.8 2.3-6.1 5.4-6.1zm2.5 9c0 0 0-7.5 0-7.5c-.5-.2-1.1-.3-1.8-.3c-2.3 0-3.9 1.7-3.9 4.6c0 3 1.2 4.4 3.1 4.4c1.1 0 2-.5 2.6-1.2zm16.5-3.8c0 0 0-2 0-2c0-1.4-.8-2-2.2-2c-.5 0-1 .1-1.6.2c.03-.03-.4 2.3-.4 2.3c0 0-1.22.02-1.2 0c-.2-.5-.3-1.1-.3-1.7c0-.3.1-.6.1-.8c1.1-.8 2.7-1.1 4.3-1.1c2.3 0 3.4.9 3.4 2.8c0 1.3-.1 5-.1 7.3c.02-.02 1.6.3 1.6.3c0 0 .05.71 0 .7c-.8.3-2.1.5-3.6.5c0 0 0-1.9 0-1.9c-.6 1.1-1.8 1.9-3.2 1.9c-1.9 0-3.1-1-3.1-2.9c0-2.8 2.5-3.4 6.3-3.6zm0 3.9c0 0 0-3.1 0-3.1c-2.8.2-4.2.7-4.2 2.4c0 1.3.7 1.9 1.9 1.9c.9 0 1.8-.5 2.3-1.2zm6-1.1c-.05.04 1.2 0 1.2 0c0 0 .34 2.51.3 2.5c.6.2 1.1.2 1.6.2c1.5 0 2.6-.6 2.6-2c0-1-.7-1.5-2-1.9c0 0-1.3-.4-1.3-.4c-1.8-.5-2.7-1.5-2.7-3.2c0-2 1.8-3.2 4.1-3.2c1.4 0 2.9.4 3.4.7c0 0 0 .3 0 .3c0 .8-.1 1.9-.3 2.6c-.04.02-1.3 0-1.3 0c0 0-.3-2.35-.3-2.4c-.5-.1-1-.2-1.5-.2c-1.4 0-2.3.6-2.3 1.8c0 1.1.6 1.6 1.7 1.9c0 0 1.4.4 1.4.4c1.9.5 3 1.3 3 3.2c0 2-1.8 3.5-4.5 3.5c-1.4 0-3-.4-3.5-.8c0 0 0-.3 0-.3c0-.8.1-1.9.4-2.7zm9.9 0c.04.04 1.3 0 1.3 0c0 0 .32 2.51.3 2.5c.5.2 1.1.2 1.6.2c1.4 0 2.6-.6 2.6-2c0-1-.7-1.5-2-1.9c0 0-1.4-.4-1.4-.4c-1.7-.5-2.6-1.5-2.6-3.2c0-2 1.8-3.2 4.1-3.2c1.4 0 2.9.4 3.4.7c0 0 0 .3 0 .3c0 .8-.1 1.9-.4 2.6c.05.02-1.2 0-1.2 0c0 0-.31-2.35-.3-2.4c-.5-.1-1-.2-1.5-.2c-1.4 0-2.3.6-2.3 1.8c0 1.1.6 1.6 1.7 1.9c0 0 1.3.4 1.3.4c2 .5 3.1 1.3 3.1 3.2c0 2-1.8 3.5-4.5 3.5c-1.4 0-3-.4-3.5-.8c0 0 0-.3 0-.3c0-.8.1-1.9.3-2.7zm11.2-11.9c0-.3 0-.7.1-.9c.3-.1.6-.1 1-.1c.4 0 .7 0 1.1.1c0 .2.1.6.1.9c0 .8-.1 1.3-.2 1.7c-.3 0-.7.1-1 .1c-.3 0-.6-.1-.9-.1c-.1-.4-.2-.9-.2-1.7zm0 14.2c-.03.04 0-8.6 0-8.6l-1.7-.4c0 0 .04-.75 0-.7c.9-.3 2.2-.5 3.8-.5c0 0 0 10.2 0 10.2c.7.1 1.2.2 1.7.4c.01.03 0 .8 0 .8l-5.6 0c0 0 .04-.77 0-.8c.5-.2 1.1-.3 1.8-.4zm5.7-2.3c.03.04 1.3 0 1.3 0c0 0 .31 2.51.3 2.5c.5.2 1.1.2 1.6.2c1.4 0 2.6-.6 2.6-2c0-1-.7-1.5-2-1.9c0 0-1.4-.4-1.4-.4c-1.7-.5-2.6-1.5-2.6-3.2c0-2 1.8-3.2 4.1-3.2c1.4 0 2.9.4 3.4.7c0 0 0 .3 0 .3c0 .8-.1 1.9-.4 2.6c.04.02-1.2 0-1.2 0c0 0-.32-2.35-.3-2.4c-.5-.1-1-.2-1.5-.2c-1.4 0-2.3.6-2.3 1.8c0 1.1.6 1.6 1.7 1.9c0 0 1.3.4 1.3.4c2 .5 3.1 1.3 3.1 3.2c0 2-1.8 3.5-4.5 3.5c-1.4 0-3-.4-3.6-.8c0 0 0-.3 0-.3c.1-.8.2-1.9.4-2.7zm10.7-7.8c0 0 .2-2.2.2-2.2c.5-.1 1.3-.2 1.9-.2c0-.03 0 2.5 0 2.5l2.9 0l0 1.2l-2.9 0c0 0-.1 7.12-.1 7.1c0 1.3.5 1.6 1.3 1.6c.6 0 1.1-.2 1.7-.7c0 0 .5.4.5.4c-.8 1.2-1.8 1.8-3 1.8c-1.7 0-2.7-.8-2.6-2.8c-.01 0 .1-7.4.1-7.4l-1.7 0c0 0-.04-.76 0-.8c.3-.1.9-.3 1.7-.5zm7.3 7.8c-.02.04 1.2 0 1.2 0c0 0 .37 2.51.4 2.5c.5.2 1 .2 1.6.2c1.4 0 2.5-.6 2.5-2c0-1-.7-1.5-2-1.9c0 0-1.3-.4-1.3-.4c-1.7-.5-2.7-1.5-2.7-3.2c0-2 1.8-3.2 4.1-3.2c1.5 0 2.9.4 3.5.7c0 0 0 .3 0 .3c0 .8-.2 1.9-.4 2.6c-.01.02-1.3 0-1.3 0c0 0-.27-2.35-.3-2.4c-.5-.1-1-.2-1.5-.2c-1.3 0-2.2.6-2.2 1.8c0 1.1.6 1.6 1.6 1.9c0 0 1.4.4 1.4.4c2 .5 3.1 1.3 3.1 3.2c0 2-1.9 3.5-4.5 3.5c-1.5 0-3-.4-3.6-.8c0 0 0-.3 0-.3c0-.8.1-1.9.4-2.7z" stroke="none" fill="#404040"/></g><g id="Polygon11982"><path d="m21.5 296.4c.04.04 1.3 0 1.3 0c0 0 .32 2.51.3 2.5c.5.2 1.1.2 1.6.2c1.4 0 2.6-.6 2.6-2c0-1-.7-1.5-2-1.9c0 0-1.4-.4-1.4-.4c-1.7-.5-2.6-1.5-2.6-3.2c0-2 1.8-3.2 4.1-3.2c1.4 0 2.9.4 3.4.7c0 0 0 .3 0 .3c0 .8-.1 1.9-.4 2.6c.05.02-1.2 0-1.2 0c0 0-.31-2.35-.3-2.4c-.5-.1-1-.2-1.5-.2c-1.4 0-2.3.6-2.3 1.8c0 1.1.6 1.6 1.7 1.9c0 0 1.3.4 1.3.4c2 .5 3.1 1.3 3.1 3.2c0 2-1.8 3.5-4.5 3.5c-1.4 0-3-.4-3.5-.8c0 0 0-.3 0-.3c0-.8.1-1.9.3-2.7zm14.9-7.9c3.3 0 5.1 1.8 5.1 5.7c0 3.7-2.3 5.9-5.4 5.9c-3.3 0-5-1.9-5-5.8c0-3.7 2.1-5.8 5.3-5.8zm2.8 5.9c0-3.3-1-4.9-2.9-4.9c-1.8 0-2.9 1.3-2.9 4.5c0 3.5 1.1 5 2.9 5c1.8 0 2.9-1.2 2.9-4.6zm5.3 4.3c-.02.04 0-14 0-14l-1.7-.4c0 0 .05-.72 0-.7c.9-.3 2.3-.5 3.8-.5c0 0 0 15.6 0 15.6c.7.1 1.2.2 1.7.4c.02.03 0 .8 0 .8l-5.5 0c0 0-.05-.77 0-.8c.4-.2 1-.3 1.7-.4zm7-14.2c0-.3 0-.7.1-.9c.3-.1.7-.1 1-.1c.4 0 .8 0 1.1.1c0 .2.1.6.1.9c0 .8-.1 1.3-.2 1.7c-.3 0-.7.1-1 .1c-.2 0-.6-.1-.9-.1c-.1-.4-.2-.9-.2-1.7zm0 14.2c-.01.04 0-8.6 0-8.6l-1.6-.4c0 0-.04-.75 0-.7c.8-.3 2.2-.5 3.7-.5c0 0 0 10.2 0 10.2c.7.1 1.2.2 1.7.4c.03.03 0 .8 0 .8l-5.5 0c0 0-.04-.77 0-.8c.4-.2 1-.3 1.7-.4zm6.6-10.1c0 0 .1-2.2.1-2.2c.5-.1 1.3-.2 1.9-.2c.03-.03 0 2.5 0 2.5l2.9 0l0 1.2l-2.9 0c0 0-.07 7.12-.1 7.1c0 1.3.5 1.6 1.4 1.6c.6 0 1-.2 1.6-.7c0 0 .5.4.5.4c-.7 1.2-1.8 1.8-3 1.8c-1.7 0-2.6-.8-2.6-2.8c.02 0 .1-7.4.1-7.4l-1.7 0c0 0-.01-.76 0-.8c.3-.1.9-.3 1.8-.5zm6.2 1.1c0 0-.04-.75 0-.7c.8-.3 2.2-.5 3.7-.5c0 0 0 7.9 0 7.9c0 1.6.6 2.2 2.1 2.2c1.3 0 2.3-.4 3-1.1c-.01.02 0-7.4 0-7.4l-1.6-.4c0 0-.04-.75 0-.7c.8-.3 2.2-.5 3.7-.5c0-.03 0 10.1 0 10.1l1.6.3c0 0 .03.71 0 .7c-.8.3-2.2.5-3.7.5c0 0 0-1.9 0-1.9c-.7 1.3-2.2 2-3.9 2c-2 0-3.3-1.2-3.3-3.3c-.01.02 0-6.8 0-6.8l-1.6-.4zm19.6-1.3c1.2 0 2 .3 2.5.8c.03.04 0-4.5 0-4.5l-1.9-.4c0 0 .01-.72 0-.7c.9-.3 2.5-.5 4-.5c.04 0 0 15.5 0 15.5l1.7.3c0 0-.02.71 0 .7c-.9.3-2.2.5-3.8.5c0 0 0-2.1 0-2.1c-.6 1.3-1.9 2.2-3.3 2.2c-2.7 0-4.5-2.1-4.5-5.7c0-3.8 2.3-6.1 5.3-6.1zm2.5 9c0 0 0-7.5 0-7.5c-.5-.2-1-.3-1.8-.3c-2.3 0-3.8 1.7-3.8 4.6c0 3 1.1 4.4 3 4.4c1.1 0 2-.5 2.6-1.2zm10.4-8.9c2.7 0 4.2 1.4 4.2 4.1c0 .5 0 .7-.1 1.2c.03.05-7.2 0-7.2 0c0 0 .03.24 0 .2c0 3.3 1.7 4.6 3.7 4.6c1.2 0 2.2-.6 3-1.5c0 0 .4.4.4.4c-.7 1.5-2.1 2.6-4.1 2.6c-2.9 0-5.2-1.7-5.2-5.8c0-3.7 2.4-5.8 5.3-5.8zm-3 4.3c0-.01 5.1 0 5.1 0c0 0 .01-.39 0-.4c0-2-.9-2.9-2.2-2.9c-1.4 0-2.6 1-2.9 3.3z" stroke="none" fill="#00aa32"/></g><g id="Polygon11981"><path d="m105.6 256.6c0 0 0-1.4 0-1.4c0-2.3 1.5-4.1 4.3-4.1c1.1 0 2.4.2 3 .5c.1.7 0 1.7-.2 2.5c-.01-.03-1.3 0-1.3 0c0 0-.44-2.12-.4-2.1c-.3 0-.4 0-.6 0c-1.9 0-2.7 1.1-2.7 3c0-.02 0 1.7 0 1.7l2.8 0l0 1.2l-2.8 0c0 0 0 8.84 0 8.8c.9.1 1.6.2 2.2.4c0 .03 0 .8 0 .8l-6 0c0 0-.04-.77 0-.8c.4-.2 1-.3 1.7-.4c-.02.04 0-8.8 0-8.8l-1.6 0c0 0-.05-.76 0-.8c.2-.1.8-.3 1.6-.5zm11.2-.1c2.7 0 4.2 1.4 4.2 4.1c0 .5 0 .7-.1 1.2c.04.05-7.2 0-7.2 0c0 0 .04.24 0 .2c0 3.3 1.7 4.6 3.7 4.6c1.2 0 2.2-.6 3-1.5c0 0 .4.4.4.4c-.7 1.5-2.1 2.6-4.1 2.6c-2.9 0-5.2-1.7-5.2-5.8c0-3.7 2.4-5.8 5.3-5.8zm-3 4.3c.02-.01 5.1 0 5.1 0c0 0 .03-.39 0-.4c0-2-.8-2.9-2.2-2.9c-1.4 0-2.6 1-2.9 3.3zm14.4-4.3c2.7 0 4.3 1.4 4.3 4.1c0 .5 0 .7-.1 1.2c-.03.05-7.2 0-7.2 0c0 0-.03.24 0 .2c0 3.3 1.6 4.6 3.6 4.6c1.3 0 2.2-.6 3-1.5c0 0 .5.4.5.4c-.8 1.5-2.1 2.6-4.2 2.6c-2.8 0-5.1-1.7-5.1-5.8c0-3.7 2.4-5.8 5.2-5.8zm-3 4.3c.04-.01 5.2 0 5.2 0c0 0-.05-.39 0-.4c0-2-.9-2.9-2.3-2.9c-1.4 0-2.6 1-2.9 3.3zm10.2 5.9c.04.04 0-14 0-14l-1.6-.4c0 0 .01-.72 0-.7c.9-.3 2.2-.5 3.8-.5c0 0 0 15.6 0 15.6c.6.1 1.2.2 1.7.4c-.02.03 0 .8 0 .8l-5.6 0c0 0 .01-.77 0-.8c.5-.2 1.1-.3 1.7-.4zm7-14.2c0-.3.1-.7.1-.9c.4-.1.7-.1 1.1-.1c.4 0 .7 0 1.1.1c0 .2.1.6.1.9c0 .8-.1 1.3-.2 1.7c-.3 0-.7.1-1 .1c-.3 0-.7-.1-1-.1c-.1-.4-.2-.9-.2-1.7zm0 14.2c.05.04 0-8.6 0-8.6l-1.6-.4c0 0 .02-.75 0-.7c.9-.3 2.2-.5 3.8-.5c0 0 0 10.2 0 10.2c.6.1 1.2.2 1.7.4c-.01.03 0 .8 0 .8l-5.6 0c0 0 .02-.77 0-.8c.5-.2 1.1-.3 1.7-.4zm7 0c-.04.04 0-8.6 0-8.6l-1.7-.4c0 0 .03-.75 0-.7c.9-.3 2.2-.5 3.8-.5c0 0 0 1.8 0 1.8c.7-1.2 2.1-1.9 3.8-1.9c2 0 3.4 1.1 3.4 3.2c0 0 0 7.1 0 7.1c.6.1 1.2.2 1.7.4c0 .03 0 .8 0 .8l-5.6 0c0 0 .03-.77 0-.8c.5-.2 1.1-.3 1.8-.4c0 0 0-6.6 0-6.6c0-1.4-.8-2.1-2.3-2.1c-1.1 0-2.2.4-2.8 1.1c0 0 0 7.6 0 7.6c.6.1 1.2.2 1.7.4c0 .03 0 .8 0 .8l-5.6 0c0 0 .03-.77 0-.8c.5-.2 1.1-.3 1.8-.4zm14.4.5c-.5-.2-.9-.9-.9-1.6c0-.9.5-1.6 1.2-2.1c-1.2-.6-2-1.7-2-3.3c0-2.4 1.9-3.8 4.5-3.8c1.1 0 2.1.1 3 .8c.7-.5 1.4-.7 2.5-.7c.1.2.1.5.1.8c0 .4 0 .6-.1.8c0 0-1.9 0-1.9 0c.4.5.7 1.2.7 1.9c0 2.4-1.7 3.9-4.6 3.9c-.6 0-1.1-.1-1.6-.3c-.2.4-.3.7-.3 1.2c0 .6.3.9 1.1.9c0 0 3.3 0 3.3 0c2.1 0 3.2 1 3.2 2.9c0 2.4-2.4 4-5.6 4c-3.3 0-4.8-1.2-4.8-3c0-1.2.8-2 2.2-2.4zm5-7.2c0-1.8-1-2.8-2.4-2.8c-1.3 0-2.2.9-2.2 2.6c0 2.1.9 3.1 2.2 3.1c1.5 0 2.4-.9 2.4-2.9zm-5.3 9.2c0 1.6 1 2.3 2.9 2.3c2.4 0 3.8-.8 3.8-2.4c0-1-.8-1.6-1.9-1.6c0 0-4.3 0-4.3 0c-.3.4-.5.9-.5 1.7zm20.3-12.7c3.3 0 5.1 1.8 5.1 5.7c0 3.7-2.2 5.9-5.4 5.9c-3.3 0-5-1.9-5-5.8c0-3.7 2.1-5.8 5.3-5.8zm2.8 5.9c0-3.3-1-4.9-2.9-4.9c-1.7 0-2.9 1.3-2.9 4.5c0 3.5 1.1 5 2.9 5c1.8 0 2.9-1.2 2.9-4.6zm5.5-5.8c0 0 0-1.4 0-1.4c0-2.3 1.5-4.1 4.3-4.1c1.1 0 2.4.2 3 .5c.1.7 0 1.7-.2 2.5c-.02-.03-1.3 0-1.3 0c0 0-.45-2.12-.4-2.1c-.3 0-.5 0-.6 0c-1.9 0-2.7 1.1-2.7 3c-.01-.02 0 1.7 0 1.7l2.8 0l0 1.2l-2.8 0c0 0-.01 8.84 0 8.8c.9.1 1.6.2 2.2.4c0 .03 0 .8 0 .8l-6 0c0 0-.05-.77 0-.8c.4-.2 1-.3 1.7-.4c-.02.04 0-8.8 0-8.8l-1.7 0c0 0 .05-.76 0-.8c.3-.1.9-.3 1.7-.5z" stroke="none" fill="#00aa32"/></g><g id="Polygon11980"><path d="m22.5 252.5c0-.3 0-.7.1-.9c.3-.1.7-.1 1-.1c.4 0 .8 0 1.1.1c.1.2.1.6.1.9c0 .8-.1 1.3-.2 1.7c-.3 0-.7.1-1 .1c-.2 0-.6-.1-.9-.1c-.1-.4-.2-.9-.2-1.7zm0 14.2c0 .04 0-8.6 0-8.6l-1.6-.4c0 0-.04-.75 0-.7c.8-.3 2.2-.5 3.7-.5c0 0 0 10.2 0 10.2c.7.1 1.3.2 1.7.4c.04.03 0 .8 0 .8l-5.5 0c0 0-.03-.77 0-.8c.4-.2 1-.3 1.7-.4zm5.8-2.3c-.04.04 1.2 0 1.2 0c0 0 .34 2.51.3 2.5c.6.2 1.1.2 1.6.2c1.5 0 2.6-.6 2.6-2c0-1-.7-1.5-2-1.9c0 0-1.3-.4-1.3-.4c-1.8-.5-2.7-1.5-2.7-3.2c0-2 1.8-3.2 4.1-3.2c1.4 0 2.9.4 3.5.7c0 0 0 .3 0 .3c-.1.8-.2 1.9-.4 2.6c-.03.02-1.3 0-1.3 0c0 0-.29-2.35-.3-2.4c-.5-.1-1-.2-1.5-.2c-1.3 0-2.3.6-2.3 1.8c0 1.1.6 1.6 1.7 1.9c0 0 1.4.4 1.4.4c1.9.5 3 1.3 3 3.2c0 2-1.8 3.5-4.5 3.5c-1.4 0-3-.4-3.5-.8c0 0 0-.3 0-.3c0-.8.1-1.9.4-2.7zm10.7 2.3c.01.04 0-14 0-14l-1.6-.4c0 0-.02-.72 0-.7c.8-.3 2.2-.5 3.7-.5c0 0 0 15.6 0 15.6c.7.1 1.3.2 1.7.4c.05.03 0 .8 0 .8l-5.5 0c0 0-.02-.77 0-.8c.5-.2 1-.3 1.7-.4zm11.7-5.1c0 0 0-2 0-2c0-1.4-.7-2-2.2-2c-.5 0-1 .1-1.5.2c-.05-.03-.5 2.3-.5 2.3c0 0-1.2.02-1.2 0c-.1-.5-.2-1.1-.2-1.7c0-.3 0-.6 0-.8c1.1-.8 2.7-1.1 4.3-1.1c2.3 0 3.4.9 3.4 2.8c0 1.3-.1 5-.1 7.3c.04-.02 1.7.3 1.7.3c0 0-.03.71 0 .7c-.9.3-2.1.5-3.7.5c0 0 0-1.9 0-1.9c-.6 1.1-1.8 1.9-3.1 1.9c-2 0-3.2-1-3.2-2.9c0-2.8 2.5-3.4 6.3-3.6zm0 3.9c0 0 0-3.1 0-3.1c-2.8.2-4.2.7-4.2 2.4c0 1.3.7 1.9 1.9 1.9c1 0 1.8-.5 2.3-1.2zm6.9 1.2c.03.04 0-8.6 0-8.6l-1.6-.4c0 0 0-.75 0-.7c.9-.3 2.2-.5 3.7-.5c0 0 0 1.8 0 1.8c.7-1.2 2.2-1.9 3.9-1.9c2 0 3.3 1.1 3.3 3.2c0 0 0 7.1 0 7.1c.7.1 1.3.2 1.8.4c-.03.03 0 .8 0 .8l-5.6 0c0 0 0-.77 0-.8c.5-.2 1.1-.3 1.7-.4c0 0 0-6.6 0-6.6c0-1.4-.7-2.1-2.3-2.1c-1.1 0-2.1.4-2.8 1.1c0 0 0 7.6 0 7.6c.7.1 1.3.2 1.8.4c-.03.03 0 .8 0 .8l-5.6 0c0 0 0-.77 0-.8c.5-.2 1.1-.3 1.7-.4zm18-10.3c1.2 0 2 .3 2.5.8c.03.04 0-4.5 0-4.5l-1.9-.4c0 0 .01-.72 0-.7c.9-.3 2.5-.5 4-.5c.04 0 0 15.5 0 15.5l1.7.3c0 0-.03.71 0 .7c-.9.3-2.2.5-3.8.5c0 0 0-2.1 0-2.1c-.6 1.3-1.9 2.2-3.3 2.2c-2.7 0-4.5-2.1-4.5-5.7c0-3.8 2.3-6.1 5.3-6.1zm2.5 9c0 0 0-7.5 0-7.5c-.5-.2-1-.3-1.8-.3c-2.3 0-3.8 1.7-3.8 4.6c0 3 1.1 4.4 3 4.4c1.1 0 2-.5 2.6-1.2zm5.9-1c-.02.04 1.2 0 1.2 0c0 0 .37 2.51.4 2.5c.5.2 1 .2 1.6.2c1.4 0 2.5-.6 2.5-2c0-1-.7-1.5-2-1.9c0 0-1.3-.4-1.3-.4c-1.7-.5-2.7-1.5-2.7-3.2c0-2 1.8-3.2 4.1-3.2c1.5 0 2.9.4 3.5.7c0 0 0 .3 0 .3c0 .8-.2 1.9-.4 2.6c0 .02-1.3 0-1.3 0c0 0-.26-2.35-.3-2.4c-.5-.1-1-.2-1.5-.2c-1.3 0-2.2.6-2.2 1.8c0 1.1.6 1.6 1.6 1.9c0 0 1.4.4 1.4.4c2 .5 3.1 1.3 3.1 3.2c0 2-1.9 3.5-4.5 3.5c-1.5 0-3-.4-3.6-.8c0 0 0-.3 0-.3c0-.8.1-1.9.4-2.7zm11.5-12.2c1.1 0 1.6.9 1.6 2.3c0 1.3-.7 3.5-2.7 4.2c0 0-.5-.7-.5-.7c1-.6 1.6-1.6 1.6-2.9c-.1.1-.2 0-.3 0c-.7 0-1.2-.5-1.2-1.3c0-.9.5-1.6 1.5-1.6z" stroke="none" fill="#404040"/></g><g id="Polygon11979"><path d="m26.2 224.5c2.7 0 4.3 1.4 4.3 4.1c0 .5 0 .7-.1 1.2c-.03.05-7.2 0-7.2 0c0 0-.03.24 0 .2c0 3.3 1.6 4.6 3.6 4.6c1.3 0 2.2-.6 3-1.5c0 0 .5.4.5.4c-.8 1.5-2.1 2.6-4.2 2.6c-2.8 0-5.1-1.7-5.1-5.8c0-3.7 2.4-5.8 5.2-5.8zm-3 4.3c.04-.01 5.2 0 5.2 0c0 0-.05-.39 0-.4c0-2-.9-2.9-2.3-2.9c-1.4 0-2.6 1-2.9 3.3zm10.6 5.9c.02.04 0-8.6 0-8.6l-1.6-.4c0 0-.01-.75 0-.7c.9-.3 2.2-.5 3.7-.5c0 0 0 1.8 0 1.8c.7-1.2 2.2-1.9 3.9-1.9c2 0 3.3 1.1 3.3 3.2c0 0 0 7.1 0 7.1c.7.1 1.3.2 1.8.4c-.04.03 0 .8 0 .8l-5.6 0c0 0 0-.77 0-.8c.5-.2 1.1-.3 1.7-.4c0 0 0-6.6 0-6.6c0-1.4-.7-2.1-2.3-2.1c-1.1 0-2.1.4-2.8 1.1c0 0 0 7.6 0 7.6c.7.1 1.3.2 1.8.4c-.04.03 0 .8 0 .8l-5.6 0c0 0 0-.77 0-.8c.5-.2 1.1-.3 1.7-.4zm14 0c.04.04 0-14 0-14l-1.6-.4c0 0 .01-.72 0-.7c.9-.3 2.2-.5 3.8-.5c0 0 0 7.2 0 7.2c.6-1.2 2.1-1.9 3.8-1.9c2 0 3.4 1.1 3.4 3.2c0 0 0 7.1 0 7.1c.6.1 1.2.2 1.7.4c-.02.03 0 .8 0 .8l-5.6 0c0 0 .01-.77 0-.8c.5-.2 1.1-.3 1.7-.4c0 0 0-6.6 0-6.6c0-1.4-.7-2.1-2.3-2.1c-1.1 0-2.1.4-2.7 1.1c0 0 0 7.6 0 7.6c.6.1 1.2.2 1.7.4c-.02.03 0 .8 0 .8l-5.6 0c0 0 .01-.77 0-.8c.5-.2 1.1-.3 1.7-.4zm19-5.1c0 0 0-2 0-2c0-1.4-.8-2-2.3-2c-.4 0-1 .1-1.5.2c-.02-.03-.4 2.3-.4 2.3c0 0-1.27.02-1.3 0c-.1-.5-.2-1.1-.2-1.7c0-.3 0-.6.1-.8c1-.8 2.6-1.1 4.2-1.1c2.3 0 3.5.9 3.5 2.8c0 1.3-.1 5-.1 7.3c-.03-.02 1.6.3 1.6.3c0 0 0 .71 0 .7c-.9.3-2.1.5-3.6.5c0 0 0-1.9 0-1.9c-.7 1.1-1.8 1.9-3.2 1.9c-2 0-3.2-1-3.2-2.9c0-2.8 2.5-3.4 6.4-3.6zm0 3.9c0 0 0-3.1 0-3.1c-2.9.2-4.3.7-4.3 2.4c0 1.3.7 1.9 1.9 1.9c1 0 1.8-.5 2.4-1.2zm6.9 1.2c-.04.04 0-8.6 0-8.6l-1.7-.4c0 0 .03-.75 0-.7c.9-.3 2.2-.5 3.8-.5c0 0 0 1.8 0 1.8c.7-1.2 2.1-1.9 3.8-1.9c2 0 3.4 1.1 3.4 3.2c0 0 0 7.1 0 7.1c.6.1 1.2.2 1.7.4c0 .03 0 .8 0 .8l-5.6 0c0 0 .04-.77 0-.8c.5-.2 1.1-.3 1.8-.4c0 0 0-6.6 0-6.6c0-1.4-.8-2.1-2.3-2.1c-1.1 0-2.2.4-2.8 1.1c0 0 0 7.6 0 7.6c.6.1 1.2.2 1.7.4c0 .03 0 .8 0 .8l-5.6 0c0 0 .04-.77 0-.8c.5-.2 1.1-.3 1.8-.4zm18.1-10.2c1.2 0 2.5.4 3 .7c0 .9-.1 2.1-.4 2.9c.05.02-1.2 0-1.2 0c0 0-.34-2.45-.3-2.5c-.4 0-.9-.1-1.2-.1c-1.8 0-3.3 1.3-3.3 4.5c0 3 1.4 4.6 3.4 4.6c1.2 0 2.1-.6 2.8-1.5c0 0 .5.4.5.4c-.7 1.5-2 2.6-4 2.6c-2.9 0-4.9-2-4.9-5.8c0-3.8 2.4-5.8 5.6-5.8zm10.1 0c2.7 0 4.3 1.4 4.3 4.1c0 .5 0 .7-.1 1.2c-.04.05-7.2 0-7.2 0c0 0-.04.24 0 .2c0 3.3 1.6 4.6 3.6 4.6c1.3 0 2.2-.6 3-1.5c0 0 .5.4.5.4c-.8 1.5-2.1 2.6-4.2 2.6c-2.8 0-5.1-1.7-5.1-5.8c0-3.7 2.4-5.8 5.2-5.8zm-3 4.3c.04-.01 5.1 0 5.1 0c0 0 .05-.39 0-.4c0-2-.8-2.9-2.2-2.9c-1.4 0-2.6 1-2.9 3.3zm9.7 3.6c-.04.04 1.2 0 1.2 0c0 0 .34 2.51.3 2.5c.6.2 1.1.2 1.6.2c1.5 0 2.6-.6 2.6-2c0-1-.7-1.5-2-1.9c0 0-1.3-.4-1.3-.4c-1.8-.5-2.7-1.5-2.7-3.2c0-2 1.8-3.2 4.1-3.2c1.4 0 2.9.4 3.5.7c0 0 0 .3 0 .3c-.1.8-.2 1.9-.4 2.6c-.03.02-1.3 0-1.3 0c0 0-.29-2.35-.3-2.4c-.5-.1-1-.2-1.5-.2c-1.3 0-2.3.6-2.3 1.8c0 1.1.6 1.6 1.7 1.9c0 0 1.4.4 1.4.4c1.9.5 3 1.3 3 3.2c0 2-1.8 3.5-4.5 3.5c-1.4 0-2.9-.4-3.5-.8c0 0 0-.3 0-.3c0-.8.1-1.9.4-2.7zm15.8-7.8c0 0 .1-2.2.1-2.2c.5-.1 1.3-.2 1.9-.2c.02-.03 0 2.5 0 2.5l2.9 0l0 1.2l-2.9 0c0 0-.08 7.12-.1 7.1c0 1.3.5 1.6 1.4 1.6c.6 0 1-.2 1.6-.7c0 0 .5.4.5.4c-.7 1.2-1.8 1.8-3 1.8c-1.7 0-2.6-.8-2.6-2.8c.01 0 .1-7.4.1-7.4l-1.7 0c0 0-.02-.76 0-.8c.3-.1.9-.3 1.8-.5zm7.9 10.1c-.03.04 0-14 0-14l-1.7-.4c0 0 .04-.72 0-.7c.9-.3 2.2-.5 3.8-.5c0 0 0 7.2 0 7.2c.7-1.2 2.1-1.9 3.8-1.9c2 0 3.4 1.1 3.4 3.2c0 0 0 7.1 0 7.1c.7.1 1.2.2 1.7.4c.01.03 0 .8 0 .8l-5.6 0c0 0 .04-.77 0-.8c.5-.2 1.1-.3 1.8-.4c0 0 0-6.6 0-6.6c0-1.4-.8-2.1-2.3-2.1c-1.1 0-2.1.4-2.8 1.1c0 0 0 7.6 0 7.6c.7.1 1.2.2 1.7.4c.01.03 0 .8 0 .8l-5.6 0c0 0 .04-.77 0-.8c.5-.2 1.1-.3 1.8-.4zm17.8-10.2c2.7 0 4.2 1.4 4.2 4.1c0 .5 0 .7-.1 1.2c.01.05-7.2 0-7.2 0c0 0 .01.24 0 .2c0 3.3 1.6 4.6 3.7 4.6c1.2 0 2.2-.6 2.9-1.5c0 0 .5.4.5.4c-.8 1.5-2.1 2.6-4.1 2.6c-2.9 0-5.2-1.7-5.2-5.8c0-3.7 2.4-5.8 5.3-5.8zm-3 4.3c-.02-.01 5.1 0 5.1 0c0 0-.01-.39 0-.4c0-2-.9-2.9-2.2-2.9c-1.4 0-2.6 1-2.9 3.3z" stroke="none" fill="#404040"/></g><g id="Polygon11978"><path d="m22.4 202.7c0 .04 0-14 0-14l-1.6-.4c0 0-.03-.72 0-.7c.8-.3 2.2-.5 3.7-.5c0 0 0 15.6 0 15.6c.7.1 1.3.2 1.7.4c.04.03 0 .8 0 .8l-5.5 0c0 0-.03-.77 0-.8c.5-.2 1-.3 1.7-.4zm7-14.2c0-.3.1-.7.1-.9c.3-.1.7-.1 1.1-.1c.3 0 .7 0 1 .1c.1.2.1.6.1.9c0 .8-.1 1.3-.2 1.7c-.3 0-.7.1-.9.1c-.3 0-.7-.1-1-.1c-.1-.4-.2-.9-.2-1.7zm0 14.2c.01.04 0-8.6 0-8.6l-1.6-.4c0 0-.02-.75 0-.7c.8-.3 2.2-.5 3.7-.5c0 0 0 10.2 0 10.2c.7.1 1.3.2 1.7.4c.05.03 0 .8 0 .8l-5.5 0c0 0-.02-.77 0-.8c.5-.2 1-.3 1.7-.4zm7.3.5c-.6-.2-1-.9-1-1.6c0-.9.5-1.6 1.3-2.1c-1.3-.6-2-1.7-2-3.3c0-2.4 1.9-3.8 4.5-3.8c1.1 0 2 .1 2.9.8c.7-.5 1.5-.7 2.6-.7c0 .2.1.5.1.8c0 .4-.1.6-.1.8c0 0-1.9 0-1.9 0c.4.5.6 1.2.6 1.9c0 2.4-1.6 3.9-4.6 3.9c-.6 0-1.1-.1-1.6-.3c-.1.4-.2.7-.2 1.2c0 .6.3.9 1 .9c0 0 3.3 0 3.3 0c2.1 0 3.3 1 3.3 2.9c0 2.4-2.4 4-5.7 4c-3.3 0-4.8-1.2-4.8-3c0-1.2.8-2 2.3-2.4zm4.9-7.2c0-1.8-.9-2.8-2.3-2.8c-1.3 0-2.2.9-2.2 2.6c0 2.1.9 3.1 2.2 3.1c1.5 0 2.3-.9 2.3-2.9zm-5.3 9.2c0 1.6 1.1 2.3 2.9 2.3c2.4 0 3.8-.8 3.8-2.4c0-1-.7-1.6-1.9-1.6c0 0-4.2 0-4.2 0c-.3.4-.6.9-.6 1.7zm11.4-2.5c.04.04 0-14 0-14l-1.6-.4c0 0 .01-.72 0-.7c.9-.3 2.2-.5 3.8-.5c0 0 0 7.2 0 7.2c.7-1.2 2.1-1.9 3.8-1.9c2 0 3.4 1.1 3.4 3.2c0 0 0 7.1 0 7.1c.6.1 1.2.2 1.7.4c-.02.03 0 .8 0 .8l-5.6 0c0 0 .02-.77 0-.8c.5-.2 1.1-.3 1.7-.4c0 0 0-6.6 0-6.6c0-1.4-.7-2.1-2.3-2.1c-1.1 0-2.1.4-2.7 1.1c0 0 0 7.6 0 7.6c.6.1 1.2.2 1.7.4c-.02.03 0 .8 0 .8l-5.6 0c0 0 .02-.77 0-.8c.5-.2 1.1-.3 1.7-.4zm13.9-10.1c0 0 .2-2.2.2-2.2c.4-.1 1.3-.2 1.9-.2c-.02-.03 0 2.5 0 2.5l2.9 0l0 1.2l-3 0c0 0-.02 7.12 0 7.1c0 1.3.5 1.6 1.3 1.6c.6 0 1.1-.2 1.7-.7c0 0 .4.4.4.4c-.7 1.2-1.7 1.8-2.9 1.8c-1.7 0-2.7-.8-2.6-2.8c-.03 0 .1-7.4.1-7.4l-1.8 0c0 0 .04-.76 0-.8c.4-.1 1-.3 1.8-.5zm10.6.8c.02.03 0-.7 0-.7l4.9 0c0 0 .02.73 0 .7c-.5.2-1 .4-1.7.4c.04.02 2.8 7.4 2.8 7.4c0 0 2.88-7.38 2.9-7.4c-.6-.1-1.1-.2-1.6-.4c.02.03 0-.7 0-.7l4.1 0c0 0 .05.73 0 .7c-.3.2-.6.3-1 .4c.02-.03-4.1 10.1-4.1 10.1l-1.3 0c0 0-3.97-10.13-4-10.1c-.4-.1-.6-.2-1-.4zm14.1-4.9c0-.3.1-.7.1-.9c.4-.1.7-.1 1.1-.1c.4 0 .7 0 1 .1c.1.2.1.6.1.9c0 .8-.1 1.3-.2 1.7c-.2 0-.6.1-.9.1c-.3 0-.7-.1-1-.1c-.1-.4-.2-.9-.2-1.7zm0 14.2c.03.04 0-8.6 0-8.6l-1.6-.4c0 0 0-.75 0-.7c.9-.3 2.2-.5 3.7-.5c0 0 0 10.2 0 10.2c.7.1 1.3.2 1.8.4c-.03.03 0 .8 0 .8l-5.6 0c0 0 .01-.77 0-.8c.5-.2 1.1-.3 1.7-.4zm5.8-2.3c-.01.04 1.2 0 1.2 0c0 0 .38 2.51.4 2.5c.5.2 1.1.2 1.6.2c1.4 0 2.6-.6 2.6-2c0-1-.8-1.5-2.1-1.9c0 0-1.3-.4-1.3-.4c-1.7-.5-2.6-1.5-2.6-3.2c0-2 1.7-3.2 4-3.2c1.5 0 2.9.4 3.5.7c0 0 0 .3 0 .3c0 .8-.2 1.9-.4 2.6c.01.02-1.2 0-1.2 0c0 0-.35-2.35-.4-2.4c-.5-.1-1-.2-1.5-.2c-1.3 0-2.2.6-2.2 1.8c0 1.1.6 1.6 1.7 1.9c0 0 1.3.4 1.3.4c2 .5 3.1 1.3 3.1 3.2c0 2-1.8 3.5-4.5 3.5c-1.5 0-3-.4-3.6-.8c0 0 0-.3 0-.3c0-.8.2-1.9.4-2.7zm11.1-11.9c0-.3.1-.7.1-.9c.4-.1.7-.1 1.1-.1c.4 0 .7 0 1 .1c.1.2.1.6.1.9c0 .8-.1 1.3-.2 1.7c-.2 0-.6.1-.9.1c-.3 0-.7-.1-1-.1c-.1-.4-.2-.9-.2-1.7zm0 14.2c.03.04 0-8.6 0-8.6l-1.6-.4c0 0 0-.75 0-.7c.9-.3 2.2-.5 3.7-.5c0 0 0 10.2 0 10.2c.7.1 1.3.2 1.8.4c-.03.03 0 .8 0 .8l-5.6 0c0 0 0-.77 0-.8c.5-.2 1.1-.3 1.7-.4zm6.6-10.1c0 0 .2-2.2.2-2.2c.4-.1 1.3-.2 1.9-.2c-.03-.03-.1 2.5-.1 2.5l3 0l0 1.2l-3 0c0 0-.03 7.12 0 7.1c0 1.3.5 1.6 1.3 1.6c.6 0 1.1-.2 1.7-.7c0 0 .4.4.4.4c-.7 1.2-1.7 1.8-2.9 1.8c-1.7 0-2.7-.8-2.6-2.8c-.04 0 .1-7.4.1-7.4l-1.8 0c0 0 .03-.76 0-.8c.3-.1 1-.3 1.8-.5zm13.2 5c0 0 0-2 0-2c0-1.4-.8-2-2.2-2c-.5 0-1 .1-1.6.2c.04-.03-.4 2.3-.4 2.3c0 0-1.22.02-1.2 0c-.2-.5-.3-1.1-.3-1.7c0-.3.1-.6.1-.8c1.1-.8 2.7-1.1 4.3-1.1c2.3 0 3.4.9 3.4 2.8c0 1.3-.1 5-.1 7.3c.02-.02 1.7.3 1.7.3c0 0-.05.71 0 .7c-.9.3-2.2.5-3.7.5c0 0 0-1.9 0-1.9c-.6 1.1-1.8 1.9-3.2 1.9c-1.9 0-3.1-1-3.1-2.9c0-2.8 2.5-3.4 6.3-3.6zm0 3.9c0 0 0-3.1 0-3.1c-2.8.2-4.2.7-4.2 2.4c0 1.3.7 1.9 1.9 1.9c.9 0 1.8-.5 2.3-1.2zm6.2-8.9c0 0 .1-2.2.1-2.2c.5-.1 1.4-.2 2-.2c-.04-.03-.1 2.5-.1 2.5l2.9 0l0 1.2l-2.9 0c0 0-.03 7.12 0 7.1c0 1.3.4 1.6 1.3 1.6c.6 0 1-.2 1.6-.7c0 0 .5.4.5.4c-.7 1.2-1.8 1.8-3 1.8c-1.6 0-2.6-.8-2.5-2.8c-.05 0 .1-7.4.1-7.4l-1.8 0c0 0 .02-.76 0-.8c.3-.1 1-.3 1.8-.5zm8.1-4.1c0-.3.1-.7.1-.9c.3-.1.7-.1 1.1-.1c.3 0 .7 0 1 .1c.1.2.1.6.1.9c0 .8-.1 1.3-.2 1.7c-.3 0-.6.1-.9.1c-.3 0-.7-.1-1-.1c-.1-.4-.2-.9-.2-1.7zm0 14.2c.01.04 0-8.6 0-8.6l-1.6-.4c0 0-.02-.75 0-.7c.8-.3 2.2-.5 3.7-.5c0 0 0 10.2 0 10.2c.7.1 1.3.2 1.8.4c-.05.03 0 .8 0 .8l-5.6 0c0 0-.02-.77 0-.8c.5-.2 1-.3 1.7-.4zm10.3-10.2c3.3 0 5.1 1.8 5.1 5.7c0 3.7-2.3 5.9-5.4 5.9c-3.3 0-5-1.9-5-5.8c0-3.7 2.1-5.8 5.3-5.8zm2.8 5.9c0-3.3-1-4.9-2.9-4.9c-1.8 0-2.9 1.3-2.9 4.5c0 3.5 1 5 2.9 5c1.8 0 2.9-1.2 2.9-4.6zm5.5 4.3c.03.04 0-8.6 0-8.6l-1.6-.4c0 0 0-.75 0-.7c.9-.3 2.2-.5 3.7-.5c0 0 0 1.8 0 1.8c.7-1.2 2.2-1.9 3.9-1.9c2 0 3.3 1.1 3.3 3.2c0 0 0 7.1 0 7.1c.7.1 1.3.2 1.8.4c-.03.03 0 .8 0 .8l-5.6 0c0 0 .01-.77 0-.8c.5-.2 1.1-.3 1.7-.4c0 0 0-6.6 0-6.6c0-1.4-.7-2.1-2.3-2.1c-1.1 0-2.1.4-2.8 1.1c0 0 0 7.6 0 7.6c.7.1 1.3.2 1.8.4c-.03.03 0 .8 0 .8l-5.6 0c0 0 .01-.77 0-.8c.5-.2 1.1-.3 1.7-.4z" stroke="none" fill="#404040"/></g><g id="Polygon11977"><path d="m20.6 158.2c0-.6 0-1.1.2-1.7c0 0 12.4 0 12.4 0c.2.6.2 1.1.2 1.7c0 .7 0 1.8-.2 2.4c.05-.03-1 0-1 0l-.6-2.9l-3.4 0c0 0-.04 12.95 0 12.9c.9.1 1.8.2 2.4.4c-.04.03 0 .9 0 .9l-7.1 0c0 0-.04-.87 0-.9c.5-.2 1.4-.3 2.4-.4c-.04.05 0-12.9 0-12.9l-3.5 0l-.6 2.9c0 0-1.03-.03-1 0c-.2-.6-.2-1.7-.2-2.4zm15.7 12.5c.02.04 0-14 0-14l-1.6-.4c0 0-.01-.72 0-.7c.9-.3 2.2-.5 3.7-.5c0 0 0 7.2 0 7.2c.7-1.2 2.2-1.9 3.9-1.9c2 0 3.3 1.1 3.3 3.2c0 0 0 7.1 0 7.1c.7.1 1.3.2 1.8.4c-.04.03 0 .8 0 .8l-5.6 0c0 0-.01-.77 0-.8c.5-.2 1-.3 1.7-.4c0 0 0-6.6 0-6.6c0-1.4-.7-2.1-2.3-2.1c-1.1 0-2.1.4-2.8 1.1c0 0 0 7.6 0 7.6c.7.1 1.3.2 1.8.4c-.04.03 0 .8 0 .8l-5.6 0c0 0-.01-.77 0-.8c.5-.2 1-.3 1.7-.4zm17.8-10.2c2.7 0 4.3 1.4 4.3 4.1c0 .5 0 .7-.1 1.2c-.04.05-7.2 0-7.2 0c0 0-.04.24 0 .2c0 3.3 1.6 4.6 3.6 4.6c1.3 0 2.2-.6 3-1.5c0 0 .5.4.5.4c-.8 1.5-2.2 2.6-4.2 2.6c-2.8 0-5.2-1.7-5.2-5.8c0-3.7 2.4-5.8 5.3-5.8zm-3 4.3c.03-.01 5.1 0 5.1 0c0 0 .04-.39 0-.4c0-2-.8-2.9-2.2-2.9c-1.4 0-2.6 1-2.9 3.3zm15.6 5.9c0 .04 0-8.6 0-8.6l-1.6-.4c0 0-.03-.75 0-.7c.8-.3 2.2-.5 3.7-.5c0 0 0 1.7 0 1.7c.6-1 2.1-1.7 3.3-1.7c.5 0 1 .1 1.3.2c0 1.2-.2 2.7-.4 3.3c.04.02-1.2 0-1.2 0l-.3-2.1c0 0-.14.01-.1 0c-1 0-2.1.4-2.6 1.1c0 0 0 7.7 0 7.7c.9.1 1.6.2 2.2.4c.02.03 0 .8 0 .8l-6 0c0 0-.02-.77 0-.8c.5-.2 1-.3 1.7-.4zm13.1-10.2c2.7 0 4.2 1.4 4.2 4.1c0 .5 0 .7-.1 1.2c.01.05-7.2 0-7.2 0c0 0 .01.24 0 .2c0 3.3 1.6 4.6 3.7 4.6c1.2 0 2.2-.6 2.9-1.5c0 0 .5.4.5.4c-.8 1.5-2.1 2.6-4.1 2.6c-2.9 0-5.2-1.7-5.2-5.8c0-3.7 2.4-5.8 5.3-5.8zm-3 4.3c-.02-.01 5.1 0 5.1 0c0 0 0-.39 0-.4c0-2-.9-2.9-2.2-2.9c-1.4 0-2.6 1-2.9 3.3zm10.2 5.9c-.02.04 0-14 0-14l-1.6-.4c0 0-.05-.72 0-.7c.8-.3 2.2-.5 3.7-.5c0 0 0 15.6 0 15.6c.7.1 1.2.2 1.7.4c.02.03 0 .8 0 .8l-5.5 0c0 0-.04-.77 0-.8c.4-.2 1-.3 1.7-.4zm11.7-5.1c0 0 0-2 0-2c0-1.4-.8-2-2.2-2c-.5 0-1 .1-1.6.2c.03-.03-.4 2.3-.4 2.3c0 0-1.23.02-1.2 0c-.2-.5-.3-1.1-.3-1.7c0-.3.1-.6.1-.8c1.1-.8 2.7-1.1 4.3-1.1c2.3 0 3.4.9 3.4 2.8c0 1.3-.1 5-.1 7.3c.01-.02 1.6.3 1.6.3c0 0 .04.71 0 .7c-.8.3-2.1.5-3.6.5c0 0 0-1.9 0-1.9c-.6 1.1-1.8 1.9-3.2 1.9c-1.9 0-3.1-1-3.1-2.9c0-2.8 2.5-3.4 6.3-3.6zm0 3.9c0 0 0-3.1 0-3.1c-2.8.2-4.2.7-4.2 2.4c0 1.3.7 1.9 1.9 1.9c.9 0 1.8-.5 2.3-1.2zm6.2-8.9c0 0 .1-2.2.1-2.2c.5-.1 1.4-.2 2-.2c-.05-.03-.1 2.5-.1 2.5l2.9 0l0 1.2l-2.9 0c0 0-.04 7.12 0 7.1c0 1.3.4 1.6 1.3 1.6c.6 0 1-.2 1.6-.7c0 0 .5.4.5.4c-.7 1.2-1.8 1.8-3 1.8c-1.6 0-2.6-.8-2.6-2.8c.04 0 .1-7.4.1-7.4l-1.7 0c0 0 .01-.76 0-.8c.3-.1 1-.3 1.8-.5zm8.1-4.1c0-.3 0-.7.1-.9c.3-.1.7-.1 1.1-.1c.3 0 .7 0 1 .1c.1.2.1.6.1.9c0 .8-.1 1.3-.2 1.7c-.3 0-.7.1-.9.1c-.3 0-.7-.1-1-.1c-.1-.4-.2-.9-.2-1.7zm0 14.2c0 .04 0-8.6 0-8.6l-1.6-.4c0 0-.03-.75 0-.7c.8-.3 2.2-.5 3.7-.5c0 0 0 10.2 0 10.2c.7.1 1.3.2 1.7.4c.04.03 0 .8 0 .8l-5.5 0c0 0-.03-.77 0-.8c.5-.2 1-.3 1.7-.4zm4-9.3c.03.03 0-.7 0-.7l4.9 0c0 0 .03.73 0 .7c-.5.2-1 .4-1.7.4c.05.02 2.8 7.4 2.8 7.4c0 0 2.89-7.38 2.9-7.4c-.6-.1-1.1-.2-1.6-.4c.03.03 0-.7 0-.7l4.2 0c0 0-.04.73 0 .7c-.4.2-.7.3-1.1.4c.02-.03-4.1 10.1-4.1 10.1l-1.3 0c0 0-3.96-10.13-4-10.1c-.3-.1-.6-.2-1-.4zm17.3-.9c2.7 0 4.2 1.4 4.2 4.1c0 .5 0 .7-.1 1.2c.04.05-7.2 0-7.2 0c0 0 .04.24 0 .2c0 3.3 1.7 4.6 3.7 4.6c1.2 0 2.2-.6 3-1.5c0 0 .4.4.4.4c-.7 1.5-2.1 2.6-4.1 2.6c-2.9 0-5.2-1.7-5.2-5.8c0-3.7 2.4-5.8 5.3-5.8zm-3 4.3c.01-.01 5.1 0 5.1 0c0 0 .02-.39 0-.4c0-2-.8-2.9-2.2-2.9c-1.4 0-2.6 1-2.9 3.3zm10.2 5.9c.01.04 0-14 0-14l-1.6-.4c0 0-.02-.72 0-.7c.8-.3 2.2-.5 3.7-.5c0 0 0 15.6 0 15.6c.7.1 1.3.2 1.8.4c-.05.03 0 .8 0 .8l-5.6 0c0 0-.02-.77 0-.8c.5-.2 1-.3 1.7-.4zm9.1 1.3c0 0-4-10.2-4-10.2c-.3-.1-.6-.2-1-.4c.04.03 0-.7 0-.7l4.9 0c0 0 .04.73 0 .7c-.4.2-1 .4-1.7.4c.03.02 2.8 7.6 2.8 7.6c0 0 2.92-7.58 2.9-7.6c-.6-.1-1.1-.2-1.6-.4c.04.03 0-.7 0-.7l4.2 0c0 0-.04.73 0 .7c-.4.2-.7.3-1.1.4c.03-.03-3.7 9.3-3.7 9.3l-2.1 5.3l-1.9 0c0 0-.26-.66-.3-.7c1-1 1.8-2.1 2.6-3.7z" stroke="none" fill="#404040"/></g><g id="Polygon11976"><path d="m22.5 138.7c0 .04 0-8.6 0-8.6l-1.6-.4c0 0-.04-.75 0-.7c.8-.3 2.2-.5 3.7-.5c0 0 0 1.8 0 1.8c.7-1.2 2.2-1.9 3.8-1.9c2.1 0 3.4 1.1 3.4 3.2c0 0 0 7.1 0 7.1c.7.1 1.3.2 1.7.4c.04.03 0 .8 0 .8l-5.5 0c0 0-.03-.77 0-.8c.4-.2 1-.3 1.7-.4c0 0 0-6.6 0-6.6c0-1.4-.8-2.1-2.3-2.1c-1.1 0-2.1.4-2.8 1.1c0 0 0 7.6 0 7.6c.7.1 1.3.2 1.7.4c.04.03 0 .8 0 .8l-5.5 0c0 0-.03-.77 0-.8c.4-.2 1-.3 1.7-.4zm18.9-5.1c0 0 0-2 0-2c0-1.4-.8-2-2.2-2c-.5 0-1 .1-1.6.2c.04-.03-.4 2.3-.4 2.3c0 0-1.22.02-1.2 0c-.2-.5-.3-1.1-.3-1.7c0-.3.1-.6.1-.8c1.1-.8 2.7-1.1 4.3-1.1c2.3 0 3.4.9 3.4 2.8c0 1.3-.1 5-.1 7.3c.02-.02 1.7.3 1.7.3c0 0-.04.71 0 .7c-.9.3-2.2.5-3.7.5c0 0 0-1.9 0-1.9c-.6 1.1-1.8 1.9-3.2 1.9c-1.9 0-3.1-1-3.1-2.9c0-2.8 2.5-3.4 6.3-3.6zm0 3.9c0 0 0-3.1 0-3.1c-2.8.2-4.2.7-4.2 2.4c0 1.3.7 1.9 1.9 1.9c.9 0 1.8-.5 2.3-1.2zm6.2-8.9c0 0 .1-2.2.1-2.2c.5-.1 1.4-.2 2-.2c-.04-.03-.1 2.5-.1 2.5l2.9 0l0 1.2l-2.9 0c0 0-.03 7.12 0 7.1c0 1.3.4 1.6 1.3 1.6c.6 0 1-.2 1.6-.7c0 0 .5.4.5.4c-.7 1.2-1.8 1.8-3 1.8c-1.6 0-2.6-.8-2.5-2.8c-.04 0 .1-7.4.1-7.4l-1.8 0c0 0 .02-.76 0-.8c.3-.1 1-.3 1.8-.5zm8.1-4.1c0-.3.1-.7.1-.9c.3-.1.7-.1 1.1-.1c.3 0 .7 0 1 .1c.1.2.1.6.1.9c0 .8-.1 1.3-.2 1.7c-.3 0-.6.1-.9.1c-.3 0-.7-.1-1-.1c-.1-.4-.2-.9-.2-1.7zm0 14.2c.01.04 0-8.6 0-8.6l-1.6-.4c0 0-.02-.75 0-.7c.8-.3 2.2-.5 3.7-.5c0 0 0 10.2 0 10.2c.7.1 1.3.2 1.8.4c-.05.03 0 .8 0 .8l-5.6 0c0 0-.02-.77 0-.8c.5-.2 1-.3 1.7-.4zm10.3-10.2c3.3 0 5.1 1.8 5.1 5.7c0 3.7-2.3 5.9-5.4 5.9c-3.3 0-5-1.9-5-5.8c0-3.7 2.1-5.8 5.3-5.8zm2.8 5.9c0-3.3-1-4.9-2.9-4.9c-1.8 0-2.9 1.3-2.9 4.5c0 3.5 1 5 2.9 5c1.8 0 2.9-1.2 2.9-4.6zm5.5 4.3c.04.04 0-8.6 0-8.6l-1.6-.4c0 0 0-.75 0-.7c.9-.3 2.2-.5 3.7-.5c0 0 0 1.8 0 1.8c.7-1.2 2.2-1.9 3.9-1.9c2 0 3.3 1.1 3.3 3.2c0 0 0 7.1 0 7.1c.7.1 1.3.2 1.8.4c-.02.03 0 .8 0 .8l-5.6 0c0 0 .01-.77 0-.8c.5-.2 1.1-.3 1.7-.4c0 0 0-6.6 0-6.6c0-1.4-.7-2.1-2.3-2.1c-1.1 0-2.1.4-2.8 1.1c0 0 0 7.6 0 7.6c.7.1 1.3.2 1.8.4c-.02.03 0 .8 0 .8l-5.6 0c0 0 .01-.77 0-.8c.5-.2 1.1-.3 1.7-.4zm18.9-5.1c0 0 0-2 0-2c0-1.4-.7-2-2.2-2c-.4 0-1 .1-1.5.2c-.02-.03-.4 2.3-.4 2.3c0 0-1.28.02-1.3 0c-.1-.5-.2-1.1-.2-1.7c0-.3 0-.6.1-.8c1-.8 2.6-1.1 4.2-1.1c2.3 0 3.5.9 3.5 2.8c0 1.3-.1 5-.1 7.3c-.04-.02 1.6.3 1.6.3c0 0 0 .71 0 .7c-.9.3-2.1.5-3.7.5c0 0 0-1.9 0-1.9c-.6 1.1-1.8 1.9-3.1 1.9c-2 0-3.2-1-3.2-2.9c0-2.8 2.5-3.4 6.3-3.6zm0 3.9c0 0 0-3.1 0-3.1c-2.8.2-4.2.7-4.2 2.4c0 1.3.7 1.9 1.9 1.9c1 0 1.8-.5 2.3-1.2zm6.9 1.2c-.04.04 0-14 0-14l-1.7-.4c0 0 .03-.72 0-.7c.9-.3 2.2-.5 3.8-.5c0 0 0 15.6 0 15.6c.6.1 1.2.2 1.7.4c0 .03 0 .8 0 .8l-5.6 0c0 0 .04-.77 0-.8c.5-.2 1.1-.3 1.8-.4zm11.6 4.6c-.02-.04 0-13.2 0-13.2l-1.7-.4c0 0 .05-.75 0-.7c.9-.3 2.3-.5 3.8-.5c0 0 0 2.1 0 2.1c.6-1.4 2.1-2.2 3.5-2.2c2.6 0 4.4 1.9 4.4 5.4c0 4-2.3 6.4-5.4 6.4c-1 0-1.9-.3-2.5-.8c0 0 0 3.9 0 3.9c.9 0 1.4.1 2 .3c.01.04 0 .8 0 .8l-5.8 0c0 0-.05-.76 0-.8c.4-.2 1-.3 1.7-.3zm2.1-12.1c0 0 0 7.5 0 7.5c.5.2 1.1.2 1.8.2c2.3 0 3.9-1.7 3.9-4.8c0-2.9-1.2-4.2-3-4.2c-1.1 0-2.1.5-2.7 1.3zm16.3 2.4c0 0 0-2 0-2c0-1.4-.8-2-2.2-2c-.5 0-1 .1-1.6.2c.04-.03-.4 2.3-.4 2.3c0 0-1.21.02-1.2 0c-.2-.5-.3-1.1-.3-1.7c0-.3.1-.6.1-.8c1.1-.8 2.7-1.1 4.3-1.1c2.3 0 3.4.9 3.4 2.8c0 1.3-.1 5-.1 7.3c.03-.02 1.7.3 1.7.3c0 0-.04.71 0 .7c-.9.3-2.2.5-3.7.5c0 0 0-1.9 0-1.9c-.6 1.1-1.8 1.9-3.2 1.9c-1.9 0-3.1-1-3.1-2.9c0-2.8 2.5-3.4 6.3-3.6zm0 3.9c0 0 0-3.1 0-3.1c-2.8.2-4.2.7-4.2 2.4c0 1.3.7 1.9 1.9 1.9c.9 0 1.8-.5 2.3-1.2zm6.9 1.2c.02.04 0-8.6 0-8.6l-1.6-.4c0 0-.01-.75 0-.7c.9-.3 2.2-.5 3.7-.5c0 0 0 1.7 0 1.7c.7-1 2.1-1.7 3.3-1.7c.5 0 1 .1 1.3.2c0 1.2-.2 2.7-.3 3.3c-.04.02-1.3 0-1.3 0l-.3-2.1c0 0-.12.01-.1 0c-.9 0-2 .4-2.6 1.1c0 0 0 7.7 0 7.7c.9.1 1.7.2 2.2.4c.04.03 0 .8 0 .8l-6 0c0 0-.01-.77 0-.8c.5-.2 1.1-.3 1.7-.4zm8.9 0c-.02.04 0-14 0-14l-1.7-.4c0 0 .05-.72 0-.7c.9-.3 2.3-.5 3.8-.5c0 0 0 15.6 0 15.6c.7.1 1.2.2 1.7.4c.02.03 0 .8 0 .8l-5.5 0c0 0-.05-.77 0-.8c.4-.2 1-.3 1.7-.4zm6.5-8.9c-.7 0-1.2-.2-1.7-.4c-.02.03 0-.7 0-.7l5.3 0c0 0-.04.73 0 .7c-.5.2-1 .4-1.7.4c0 .02-3.9 3.7-3.9 3.7c0 0 4.5 5.29 4.5 5.3c.5.1.9.2 1.3.3c-.05.03 0 .8 0 .8l-5.2 0c0 0-.03-.77 0-.8c.4-.1.8-.3 1.3-.3c.01-.03-3.9-4.8-3.9-4.8l0-.2c0 0 4.01-3.98 4-4zm5.6 6.6c-.03.04 1.2 0 1.2 0c0 0 .36 2.51.4 2.5c.5.2 1 .2 1.5.2c1.5 0 2.6-.6 2.6-2c0-1-.7-1.5-2-1.9c0 0-1.3-.4-1.3-.4c-1.8-.5-2.7-1.5-2.7-3.2c0-2 1.8-3.2 4.1-3.2c1.5 0 2.9.4 3.5.7c0 0 0 .3 0 .3c-.1.8-.2 1.9-.4 2.6c-.01.02-1.3 0-1.3 0c0 0-.27-2.35-.3-2.4c-.5-.1-1-.2-1.5-.2c-1.3 0-2.2.6-2.2 1.8c0 1.1.6 1.6 1.6 1.9c0 0 1.4.4 1.4.4c2 .5 3.1 1.3 3.1 3.2c0 2-1.9 3.5-4.6 3.5c-1.4 0-2.9-.4-3.5-.8c0 0 0-.3 0-.3c0-.8.1-1.9.4-2.7zm9.8 2.1c0-1 .5-1.7 1.6-1.7c1.1 0 1.6.7 1.6 1.7c0 1-.5 1.7-1.6 1.7c-1.1 0-1.6-.7-1.6-1.7z" stroke="none" fill="#404040"/></g><g id="Polygon11975"><path d="m26.2 96.5c3.4 0 5.1 1.8 5.1 5.7c0 3.7-2.2 5.9-5.3 5.9c-3.4 0-5-1.9-5-5.8c0-3.7 2-5.8 5.2-5.8zm2.8 5.9c0-3.3-1-4.9-2.9-4.9c-1.7 0-2.8 1.3-2.8 4.5c0 3.5 1 5 2.8 5c1.8 0 2.9-1.2 2.9-4.6zm5.5-5.8c0 0 0-1.4 0-1.4c0-2.3 1.5-4.1 4.3-4.1c1.1 0 2.4.2 3 .5c.1.7 0 1.7-.2 2.5c0-.03-1.2 0-1.2 0c0 0-.53-2.12-.5-2.1c-.2 0-.4 0-.6 0c-1.9 0-2.7 1.1-2.7 3c.01-.02 0 1.7 0 1.7l2.8 0l0 1.2l-2.8 0c0 0 .01 8.84 0 8.8c.9.1 1.6.2 2.2.4c.02.03 0 .8 0 .8l-6 0c0 0-.03-.77 0-.8c.4-.2 1-.3 1.7-.4c0 .04 0-8.8 0-8.8l-1.6 0c0 0-.04-.76 0-.8c.3-.1.8-.3 1.6-.5zm17.4 5c0 0 0-2 0-2c0-1.4-.8-2-2.2-2c-.5 0-1 .1-1.6.2c0-.03-.4 2.3-.4 2.3c0 0-1.25.02-1.3 0c-.1-.5-.2-1.1-.2-1.7c0-.3 0-.6.1-.8c1.1-.8 2.7-1.1 4.2-1.1c2.3 0 3.5.9 3.5 2.8c0 1.3-.1 5-.1 7.3c-.01-.02 1.6.3 1.6.3c0 0 .02.71 0 .7c-.8.3-2.1.5-3.6.5c0 0 0-1.9 0-1.9c-.7 1.1-1.8 1.9-3.2 1.9c-2 0-3.2-1-3.2-2.9c0-2.8 2.6-3.4 6.4-3.6zm0 3.9c0 0 0-3.1 0-3.1c-2.9.2-4.3.7-4.3 2.4c0 1.3.7 1.9 2 1.9c.9 0 1.8-.5 2.3-1.2zm6.8 1.2c-.01.04 0-14 0-14l-1.6-.4c0 0-.04-.72 0-.7c.8-.3 2.2-.5 3.7-.5c0 0 0 15.6 0 15.6c.7.1 1.2.2 1.7.4c.03.03 0 .8 0 .8l-5.5 0c0 0-.04-.77 0-.8c.4-.2 1-.3 1.7-.4zm6.9 0c0 .04 0-14 0-14l-1.6-.4c0 0-.03-.72 0-.7c.8-.3 2.2-.5 3.7-.5c0 0 0 15.6 0 15.6c.7.1 1.3.2 1.7.4c.04.03 0 .8 0 .8l-5.5 0c0 0-.03-.77 0-.8c.5-.2 1-.3 1.7-.4zm15.6-10.2c3.3 0 5 1.8 5 5.7c0 3.7-2.2 5.9-5.3 5.9c-3.3 0-5-1.9-5-5.8c0-3.7 2.1-5.8 5.3-5.8zm2.7 5.9c0-3.3-1-4.9-2.8-4.9c-1.8 0-2.9 1.3-2.9 4.5c0 3.5 1 5 2.9 5c1.7 0 2.8-1.2 2.8-4.6zm5.5-5.8c0 0 0-1.4 0-1.4c0-2.3 1.5-4.1 4.3-4.1c1.1 0 2.4.2 3 .5c.1.7.1 1.7-.2 2.5c.01-.03-1.2 0-1.2 0c0 0-.52-2.12-.5-2.1c-.2 0-.4 0-.6 0c-1.9 0-2.7 1.1-2.7 3c.02-.02 0 1.7 0 1.7l2.8 0l0 1.2l-2.8 0c0 0 .02 8.84 0 8.8c.9.1 1.7.2 2.2.4c.03.03 0 .8 0 .8l-6 0c0 0-.02-.77 0-.8c.5-.2 1-.3 1.7-.4c.01.04 0-8.8 0-8.8l-1.6 0c0 0-.02-.76 0-.8c.3-.1.8-.3 1.6-.5zm21.5 10.1c.03-.03-1.3-3.8-1.3-3.8l-5.6 0c0 0-1.32 3.77-1.3 3.8c.6 0 1.1.2 1.6.3c-.01.03 0 .9 0 .9l-4.4 0c0 0-.03-.87 0-.9c.3-.1.6-.2 1.1-.3c0 0 5.1-14.2 5.1-14.2c.3 0 .8-.1 1.1-.1c.3 0 .7.1 1 .1c0 0 5.2 14.2 5.2 14.2c.3.1.7.2 1 .3c-.03.03 0 .9 0 .9l-5.3 0c0 0-.01-.87 0-.9c.4-.1 1.2-.3 1.8-.3zm-1.7-5l-2.4-6.8l-2.4 6.8l4.8 0zm22 5c0 0 0-6.6 0-6.6c0-1.4-.7-2.1-2.1-2.1c-1.1 0-2.2.4-2.8 1.1c0 0 0 7.6 0 7.6c.6.1 1.2.2 1.7.4c0 .03 0 .8 0 .8l-5.6 0c0 0 .03-.77 0-.8c.5-.2 1.1-.3 1.8-.4c0 0 0-6.6 0-6.6c0-1.4-.7-2.1-2.2-2.1c-1.1 0-2.1.4-2.7 1.1c0 0 0 7.6 0 7.6c.6.1 1.2.2 1.7.4c-.01.03 0 .8 0 .8l-5.6 0c0 0 .02-.77 0-.8c.5-.2 1.1-.3 1.8-.4c-.05.04 0-8.6 0-8.6l-1.7-.4c0 0 .02-.75 0-.7c.9-.3 2.2-.5 3.8-.5c0 0 0 1.8 0 1.8c.7-1.2 2.1-1.9 3.8-1.9c1.6 0 2.6.7 3 2.1c.7-1.3 2.2-2.1 4-2.1c2 0 3.2 1.1 3.2 3.2c0 0 0 7.1 0 7.1c.7.1 1.2.2 1.7.4c.01.03 0 .8 0 .8l-5.6 0c0 0 .04-.77 0-.8c.5-.2 1.1-.3 1.8-.4zm10.6-10.2c2.7 0 4.2 1.4 4.2 4.1c0 .5 0 .7-.1 1.2c0 .05-7.2 0-7.2 0c0 0 0 .24 0 .2c0 3.3 1.6 4.6 3.7 4.6c1.2 0 2.2-.6 2.9-1.5c0 0 .5.4.5.4c-.8 1.5-2.1 2.6-4.1 2.6c-2.9 0-5.2-1.7-5.2-5.8c0-3.7 2.4-5.8 5.3-5.8zm-3 4.3c-.03-.01 5.1 0 5.1 0c0 0-.01-.39 0-.4c0-2-.9-2.9-2.2-2.9c-1.4 0-2.6 1-2.9 3.3zm10.6 5.9c-.04.04 0-8.6 0-8.6l-1.7-.4c0 0 .03-.75 0-.7c.9-.3 2.2-.5 3.8-.5c0 0 0 1.7 0 1.7c.6-1 2-1.7 3.3-1.7c.5 0 .9.1 1.2.2c0 1.2-.2 2.7-.3 3.3c-.01.02-1.3 0-1.3 0l-.3-2.1c0 0-.09.01-.1 0c-.9 0-2 .4-2.5 1.1c0 0 0 7.7 0 7.7c.8.1 1.6.2 2.2.4c-.02.03 0 .8 0 .8l-6.1 0c0 0 .03-.77 0-.8c.5-.2 1.1-.3 1.8-.4zm9.6-14.2c0-.3 0-.7.1-.9c.3-.1.7-.1 1-.1c.4 0 .8 0 1.1.1c0 .2.1.6.1.9c0 .8-.1 1.3-.2 1.7c-.3 0-.7.1-1 .1c-.3 0-.6-.1-.9-.1c-.1-.4-.2-.9-.2-1.7zm0 14.2c-.02.04 0-8.6 0-8.6l-1.6-.4c0 0-.05-.75 0-.7c.8-.3 2.2-.5 3.7-.5c0 0 0 10.2 0 10.2c.7.1 1.2.2 1.7.4c.02.03 0 .8 0 .8l-5.5 0c0 0-.05-.77 0-.8c.4-.2 1-.3 1.7-.4zm10.5-10.2c1.3 0 2.5.4 3.1.7c0 .9-.1 2.1-.4 2.9c.03.02-1.2 0-1.2 0c0 0-.35-2.45-.4-2.5c-.4 0-.8-.1-1.2-.1c-1.7 0-3.2 1.3-3.2 4.5c0 3 1.4 4.6 3.3 4.6c1.3 0 2.2-.6 2.9-1.5c0 0 .5.4.5.4c-.8 1.5-2 2.6-4 2.6c-2.9 0-4.9-2-4.9-5.8c0-3.8 2.4-5.8 5.5-5.8zm11.4 5.1c0 0 0-2 0-2c0-1.4-.8-2-2.2-2c-.5 0-1 .1-1.6.2c0-.03-.4 2.3-.4 2.3c0 0-1.25.02-1.3 0c-.1-.5-.2-1.1-.2-1.7c0-.3 0-.6.1-.8c1.1-.8 2.7-1.1 4.2-1.1c2.3 0 3.5.9 3.5 2.8c0 1.3-.1 5-.1 7.3c-.01-.02 1.6.3 1.6.3c0 0 .02.71 0 .7c-.8.3-2.1.5-3.6.5c0 0 0-1.9 0-1.9c-.7 1.1-1.8 1.9-3.2 1.9c-2 0-3.2-1-3.2-2.9c0-2.8 2.6-3.4 6.4-3.6zm0 3.9c0 0 0-3.1 0-3.1c-2.9.2-4.3.7-4.3 2.4c0 1.3.7 1.9 2 1.9c.9 0 1.8-.5 2.3-1.2zm7.1-13.3c1 0 1.6.9 1.6 2.3c0 1.3-.7 3.5-2.8 4.2c0 0-.5-.7-.5-.7c1-.6 1.6-1.6 1.7-2.9c-.1.1-.2 0-.3 0c-.7 0-1.3-.5-1.3-1.3c0-.9.5-1.6 1.6-1.6zm4.3 12.2c-.01.04 1.2 0 1.2 0c0 0 .38 2.51.4 2.5c.5.2 1.1.2 1.6.2c1.4 0 2.6-.6 2.6-2c0-1-.8-1.5-2.1-1.9c0 0-1.3-.4-1.3-.4c-1.7-.5-2.6-1.5-2.6-3.2c0-2 1.7-3.2 4-3.2c1.5 0 2.9.4 3.5.7c0 0 0 .3 0 .3c0 .8-.2 1.9-.4 2.6c.01.02-1.2 0-1.2 0c0 0-.35-2.35-.4-2.4c-.5-.1-1-.2-1.5-.2c-1.3 0-2.2.6-2.2 1.8c0 1.1.6 1.6 1.7 1.9c0 0 1.3.4 1.3.4c2 .5 3.1 1.3 3.1 3.2c0 2-1.9 3.5-4.5 3.5c-1.5 0-3-.4-3.6-.8c0 0 0-.3 0-.3c0-.8.2-1.9.4-2.7z" stroke="none" fill="#404040"/></g><g id="Polygon11974"><path d="m60.4 74.7c-.03.04 0-14 0-14l-1.7-.4c0 0 .04-.72 0-.7c.9-.3 2.2-.5 3.8-.5c0 0 0 15.6 0 15.6c.7.1 1.2.2 1.7.4c.01.03 0 .8 0 .8l-5.6 0c0 0 .04-.77 0-.8c.5-.2 1.1-.3 1.8-.4zm10.3-10.2c2.7 0 4.3 1.4 4.3 4.1c0 .5 0 .7-.1 1.2c-.04.05-7.2 0-7.2 0c0 0-.04.24 0 .2c0 3.3 1.6 4.6 3.6 4.6c1.3 0 2.2-.6 3-1.5c0 0 .5.4.5.4c-.8 1.5-2.1 2.6-4.2 2.6c-2.8 0-5.1-1.7-5.1-5.8c0-3.7 2.4-5.8 5.2-5.8zm-3 4.3c.04-.01 5.1 0 5.1 0c0 0 .05-.39 0-.4c0-2-.8-2.9-2.2-2.9c-1.4 0-2.6 1-2.9 3.3zm15.5.8c0 0 0-2 0-2c0-1.4-.8-2-2.2-2c-.5 0-1 .1-1.6.2c.05-.03-.4 2.3-.4 2.3c0 0-1.21.02-1.2 0c-.2-.5-.2-1.1-.2-1.7c0-.3 0-.6 0-.8c1.1-.8 2.7-1.1 4.3-1.1c2.3 0 3.4.9 3.4 2.8c0 1.3-.1 5-.1 7.3c.03-.02 1.7.3 1.7.3c0 0-.04.71 0 .7c-.9.3-2.1.5-3.7.5c0 0 0-1.9 0-1.9c-.6 1.1-1.8 1.9-3.2 1.9c-1.9 0-3.1-1-3.1-2.9c0-2.8 2.5-3.4 6.3-3.6zm0 3.9c0 0 0-3.1 0-3.1c-2.8.2-4.2.7-4.2 2.4c0 1.3.7 1.9 1.9 1.9c.9 0 1.8-.5 2.3-1.2zm6-1.1c-.03.04 1.2 0 1.2 0c0 0 .35 2.51.4 2.5c.5.2 1 .2 1.5.2c1.5 0 2.6-.6 2.6-2c0-1-.7-1.5-2-1.9c0 0-1.3-.4-1.3-.4c-1.8-.5-2.7-1.5-2.7-3.2c0-2 1.8-3.2 4.1-3.2c1.4 0 2.9.4 3.5.7c0 0 0 .3 0 .3c-.1.8-.2 1.9-.4 2.6c-.02.02-1.3 0-1.3 0c0 0-.28-2.35-.3-2.4c-.5-.1-1-.2-1.5-.2c-1.3 0-2.2.6-2.2 1.8c0 1.1.6 1.6 1.6 1.9c0 0 1.4.4 1.4.4c1.9.5 3 1.3 3 3.2c0 2-1.8 3.5-4.5 3.5c-1.4 0-2.9-.4-3.5-.8c0 0 0-.3 0-.3c0-.8.1-1.9.4-2.7zm10.7-7.8c0 0 .1-2.2.1-2.2c.5-.1 1.3-.2 1.9-.2c.04-.03 0 2.5 0 2.5l2.9 0l0 1.2l-2.9 0c0 0-.06 7.12-.1 7.1c0 1.3.5 1.6 1.4 1.6c.6 0 1-.2 1.6-.7c0 0 .5.4.5.4c-.7 1.2-1.8 1.8-3 1.8c-1.7 0-2.6-.8-2.6-2.8c.03 0 .1-7.4.1-7.4l-1.7 0c0 0 0-.76 0-.8c.3-.1 1-.3 1.8-.5zm10.6.8c-.02.03 0-.7 0-.7l4.9 0c0 0-.02.73 0 .7c-.5.2-1.1.4-1.7.4c0 .02 2.8 7.4 2.8 7.4c0 0 2.84-7.38 2.8-7.4c-.6-.1-1.1-.2-1.5-.4c-.02.03 0-.7 0-.7l4.1 0c0 0 0 .73 0 .7c-.4.2-.6.3-1 .4c-.03-.03-4.2 10.1-4.2 10.1l-1.2 0c0 0-4.01-10.13-4-10.1c-.4-.1-.7-.2-1-.4zm14.1-4.9c0-.3 0-.7.1-.9c.3-.1.7-.1 1-.1c.4 0 .8 0 1.1.1c0 .2.1.6.1.9c0 .8-.1 1.3-.2 1.7c-.3 0-.7.1-1 .1c-.2 0-.6-.1-.9-.1c-.1-.4-.2-.9-.2-1.7zm0 14.2c-.01.04 0-8.6 0-8.6l-1.6-.4c0 0-.04-.75 0-.7c.8-.3 2.2-.5 3.7-.5c0 0 0 10.2 0 10.2c.7.1 1.3.2 1.7.4c.03.03 0 .8 0 .8l-5.5 0c0 0-.04-.77 0-.8c.4-.2 1-.3 1.7-.4zm5.8-2.3c-.05.04 1.2 0 1.2 0c0 0 .33 2.51.3 2.5c.6.2 1.1.2 1.6.2c1.5 0 2.6-.6 2.6-2c0-1-.7-1.5-2-1.9c0 0-1.3-.4-1.3-.4c-1.8-.5-2.7-1.5-2.7-3.2c0-2 1.8-3.2 4.1-3.2c1.4 0 2.9.4 3.4.7c0 0 0 .3 0 .3c0 .8-.1 1.9-.3 2.6c-.04.02-1.3 0-1.3 0c0 0-.3-2.35-.3-2.4c-.5-.1-1-.2-1.5-.2c-1.4 0-2.3.6-2.3 1.8c0 1.1.6 1.6 1.7 1.9c0 0 1.4.4 1.4.4c1.9.5 3 1.3 3 3.2c0 2-1.8 3.5-4.5 3.5c-1.4 0-3-.4-3.5-.8c0 0 0-.3 0-.3c0-.8.1-1.9.4-2.7zm11.1-11.9c0-.3 0-.7.1-.9c.3-.1.7-.1 1-.1c.4 0 .8 0 1.1.1c0 .2.1.6.1.9c0 .8-.1 1.3-.2 1.7c-.3 0-.7.1-1 .1c-.2 0-.6-.1-.9-.1c-.1-.4-.2-.9-.2-1.7zm0 14.2c-.01.04 0-8.6 0-8.6l-1.6-.4c0 0-.05-.75 0-.7c.8-.3 2.2-.5 3.7-.5c0 0 0 10.2 0 10.2c.7.1 1.2.2 1.7.4c.03.03 0 .8 0 .8l-5.5 0c0 0-.04-.77 0-.8c.4-.2 1-.3 1.7-.4zm6.6-10.1c0 0 .1-2.2.1-2.2c.5-.1 1.3-.2 1.9-.2c.03-.03 0 2.5 0 2.5l2.9 0l0 1.2l-2.9 0c0 0-.07 7.12-.1 7.1c0 1.3.5 1.6 1.4 1.6c.6 0 1-.2 1.6-.7c0 0 .5.4.5.4c-.7 1.2-1.8 1.8-3 1.8c-1.7 0-2.6-.8-2.6-2.8c.02 0 .1-7.4.1-7.4l-1.7 0c0 0-.01-.76 0-.8c.3-.1.9-.3 1.8-.5zm11.8-.1c2.7 0 4.2 1.4 4.2 4.1c0 .5 0 .7-.1 1.2c.05.05-7.2 0-7.2 0c0 0 .05.24 0 .2c0 3.3 1.7 4.6 3.7 4.6c1.2 0 2.2-.6 3-1.5c0 0 .5.4.5.4c-.8 1.5-2.2 2.6-4.2 2.6c-2.9 0-5.2-1.7-5.2-5.8c0-3.7 2.4-5.8 5.3-5.8zm-3 4.3c.02-.01 5.1 0 5.1 0c0 0 .03-.39 0-.4c0-2-.8-2.9-2.2-2.9c-1.4 0-2.6 1-2.9 3.3zm14.6-4.4c1.2 0 2 .3 2.5.8c.03.04 0-4.5 0-4.5l-1.9-.4c0 0 .01-.72 0-.7c.9-.3 2.5-.5 4-.5c.04 0 0 15.5 0 15.5l1.7.3c0 0-.03.71 0 .7c-.9.3-2.2.5-3.8.5c0 0 0-2.1 0-2.1c-.6 1.3-1.9 2.2-3.3 2.2c-2.7 0-4.5-2.1-4.5-5.7c0-3.8 2.3-6.1 5.3-6.1zm2.5 9c0 0 0-7.5 0-7.5c-.5-.2-1-.3-1.8-.3c-2.3 0-3.8 1.7-3.8 4.6c0 3 1.1 4.4 3 4.4c1.1 0 2-.5 2.6-1.2z" stroke="none" fill="#00aa32"/></g><g id="Polygon11973"><path d="m22.2 64.6c0 0 .1-2.2.1-2.2c.5-.1 1.3-.2 1.9-.2c.02-.03 0 2.5 0 2.5l2.9 0l0 1.2l-2.9 0c0 0-.07 7.12-.1 7.1c0 1.3.5 1.6 1.4 1.6c.6 0 1-.2 1.6-.7c0 0 .5.4.5.4c-.7 1.2-1.8 1.8-3 1.8c-1.7 0-2.6-.8-2.6-2.8c.02 0 .1-7.4.1-7.4l-1.7 0c0 0-.02-.76 0-.8c.3-.1.9-.3 1.8-.5zm7.9 10.1c-.02.04 0-14 0-14l-1.7-.4c0 0 .05-.72 0-.7c.9-.3 2.3-.5 3.8-.5c0 0 0 7.2 0 7.2c.7-1.2 2.2-1.9 3.8-1.9c2 0 3.4 1.1 3.4 3.2c0 0 0 7.1 0 7.1c.7.1 1.2.2 1.7.4c.02.03 0 .8 0 .8l-5.5 0c0 0-.05-.77 0-.8c.4-.2 1-.3 1.7-.4c0 0 0-6.6 0-6.6c0-1.4-.8-2.1-2.3-2.1c-1.1 0-2.1.4-2.8 1.1c0 0 0 7.6 0 7.6c.7.1 1.2.2 1.7.4c.02.03 0 .8 0 .8l-5.5 0c0 0-.05-.77 0-.8c.4-.2 1-.3 1.7-.4zm17.8-10.2c2.7 0 4.2 1.4 4.2 4.1c0 .5 0 .7-.1 1.2c.02.05-7.2 0-7.2 0c0 0 .02.24 0 .2c0 3.3 1.6 4.6 3.7 4.6c1.2 0 2.2-.6 2.9-1.5c0 0 .5.4.5.4c-.7 1.5-2.1 2.6-4.1 2.6c-2.9 0-5.2-1.7-5.2-5.8c0-3.7 2.4-5.8 5.3-5.8zm-3 4.3c-.01-.01 5.1 0 5.1 0c0 0 0-.39 0-.4c0-2-.9-2.9-2.2-2.9c-1.4 0-2.6 1-2.9 3.3z" stroke="none" fill="#404040"/></g><g id="Polygon11972"><path d="m20.6 30.2c0-.6 0-1.1.2-1.7c0 0 12.4 0 12.4 0c.2.6.2 1.1.2 1.7c0 .7 0 1.8-.2 2.4c.05-.03-1 0-1 0l-.6-2.9l-3.4 0c0 0-.04 12.95 0 12.9c.9.1 1.8.2 2.4.4c-.04.03 0 .9 0 .9l-7.1 0c0 0-.04-.87 0-.9c.5-.2 1.4-.3 2.4-.4c-.04.05 0-12.9 0-12.9l-3.5 0l-.6 2.9c0 0-1.03-.03-1 0c-.2-.6-.2-1.7-.2-2.4zm15.7 12.5c.02.04 0-14 0-14l-1.6-.4c0 0-.01-.72 0-.7c.9-.3 2.2-.5 3.7-.5c0 0 0 7.2 0 7.2c.7-1.2 2.2-1.9 3.9-1.9c2 0 3.3 1.1 3.3 3.2c0 0 0 7.1 0 7.1c.7.1 1.3.2 1.8.4c-.04.03 0 .8 0 .8l-5.6 0c0 0-.01-.77 0-.8c.5-.2 1-.3 1.7-.4c0 0 0-6.6 0-6.6c0-1.4-.7-2.1-2.3-2.1c-1.1 0-2.1.4-2.8 1.1c0 0 0 7.6 0 7.6c.7.1 1.3.2 1.8.4c-.04.03 0 .8 0 .8l-5.6 0c0 0-.01-.77 0-.8c.5-.2 1-.3 1.7-.4zm17.8-10.2c2.7 0 4.3 1.4 4.3 4.1c0 .5 0 .7-.1 1.2c-.04.05-7.2 0-7.2 0c0 0-.04.24 0 .2c0 3.3 1.6 4.6 3.6 4.6c1.3 0 2.2-.6 3-1.5c0 0 .5.4.5.4c-.8 1.5-2.2 2.6-4.2 2.6c-2.8 0-5.2-1.7-5.2-5.8c0-3.7 2.4-5.8 5.3-5.8zm-3 4.3c.03-.01 5.1 0 5.1 0c0 0 .04-.39 0-.4c0-2-.8-2.9-2.2-2.9c-1.4 0-2.6 1-2.9 3.3zm15.4 10.5c.01-.04 0-13.2 0-13.2l-1.6-.4c0 0-.02-.75 0-.7c.8-.3 2.2-.5 3.7-.5c0 0 0 2.1 0 2.1c.6-1.4 2.1-2.2 3.6-2.2c2.6 0 4.3 1.9 4.3 5.4c0 4-2.3 6.4-5.4 6.4c-.9 0-1.9-.3-2.5-.8c0 0 0 3.9 0 3.9c.9 0 1.5.1 2 .3c.04.04 0 .8 0 .8l-5.8 0c0 0-.02-.76 0-.8c.5-.2 1-.3 1.7-.3zm2.1-12.1c0 0 0 7.5 0 7.5c.6.2 1.1.2 1.8.2c2.4 0 3.9-1.7 3.9-4.8c0-2.9-1.2-4.2-3-4.2c-1.1 0-2.1.5-2.7 1.3zm16.3 2.4c0 0 0-2 0-2c0-1.4-.7-2-2.2-2c-.4 0-1 .1-1.5.2c-.02-.03-.4 2.3-.4 2.3c0 0-1.28.02-1.3 0c-.1-.5-.2-1.1-.2-1.7c0-.3 0-.6.1-.8c1-.8 2.6-1.1 4.2-1.1c2.3 0 3.5.9 3.5 2.8c0 1.3-.1 5-.1 7.3c-.04-.02 1.6.3 1.6.3c0 0-.01.71 0 .7c-.9.3-2.1.5-3.7.5c0 0 0-1.9 0-1.9c-.6 1.1-1.8 1.9-3.1 1.9c-2 0-3.2-1-3.2-2.9c0-2.8 2.5-3.4 6.3-3.6zm0 3.9c0 0 0-3.1 0-3.1c-2.8.2-4.2.7-4.2 2.4c0 1.3.7 1.9 1.9 1.9c1 0 1.8-.5 2.3-1.2zm7 1.2c-.04.04 0-8.6 0-8.6l-1.7-.4c0 0 .02-.75 0-.7c.9-.3 2.2-.5 3.8-.5c0 0 0 1.7 0 1.7c.6-1 2-1.7 3.3-1.7c.5 0 .9.1 1.2.2c0 1.2-.2 2.7-.3 3.3c-.01.02-1.3 0-1.3 0l-.3-2.1c0 0-.09.01-.1 0c-.9 0-2 .4-2.5 1.1c0 0 0 7.7 0 7.7c.8.1 1.6.2 2.2.4c-.02.03 0 .8 0 .8l-6.1 0c0 0 .03-.77 0-.8c.5-.2 1.1-.3 1.8-.4zm8.8 0c.01.04 0-14 0-14l-1.6-.4c0 0-.02-.72 0-.7c.8-.3 2.2-.5 3.7-.5c0 0 0 15.6 0 15.6c.7.1 1.3.2 1.8.4c-.05.03 0 .8 0 .8l-5.6 0c0 0-.02-.77 0-.8c.5-.2 1-.3 1.7-.4zm6.5-8.9c-.6 0-1.2-.2-1.7-.4c.01.03 0-.7 0-.7l5.3 0c0 0-.01.73 0 .7c-.5.2-1 .4-1.7.4c.04.02-3.9 3.7-3.9 3.7c0 0 4.54 5.29 4.5 5.3c.5.1.9.2 1.3.3c-.02.03 0 .8 0 .8l-5.2 0c0 0 0-.77 0-.8c.4-.1.8-.3 1.3-.3c.04-.03-3.9-4.8-3.9-4.8l0-.2c0 0 4.04-3.98 4-4zm11.2-5.3c0-.3 0-.7.1-.9c.3-.1.6-.1 1-.1c.4 0 .7 0 1.1.1c0 .2.1.6.1.9c0 .8-.1 1.3-.2 1.7c-.3 0-.7.1-1 .1c-.3 0-.6-.1-.9-.1c-.1-.4-.2-.9-.2-1.7zm0 14.2c-.02.04 0-8.6 0-8.6l-1.7-.4c0 0 .04-.75 0-.7c.9-.3 2.3-.5 3.8-.5c0 0 0 10.2 0 10.2c.7.1 1.2.2 1.7.4c.02.03 0 .8 0 .8l-5.6 0c0 0 .05-.77 0-.8c.5-.2 1.1-.3 1.8-.4zm5.7-2.3c.04.04 1.3 0 1.3 0c0 0 .32 2.51.3 2.5c.5.2 1.1.2 1.6.2c1.4 0 2.6-.6 2.6-2c0-1-.7-1.5-2-1.9c0 0-1.4-.4-1.4-.4c-1.7-.5-2.6-1.5-2.6-3.2c0-2 1.8-3.2 4.1-3.2c1.4 0 2.9.4 3.4.7c0 0 0 .3 0 .3c0 .8-.1 1.9-.4 2.6c.05.02-1.2 0-1.2 0c0 0-.31-2.35-.3-2.4c-.5-.1-1-.2-1.5-.2c-1.4 0-2.3.6-2.3 1.8c0 1.1.6 1.6 1.7 1.9c0 0 1.3.4 1.3.4c2 .5 3.1 1.3 3.1 3.2c0 2-1.8 3.5-4.5 3.5c-1.4 0-3-.4-3.5-.8c0 0 0-.3 0-.3c0-.8.1-1.9.3-2.7zm19.9-7.9c3.3 0 5.1 1.8 5.1 5.7c0 3.7-2.3 5.9-5.4 5.9c-3.3 0-5-1.9-5-5.8c0-3.7 2.1-5.8 5.3-5.8zm2.8 5.9c0-3.3-1-4.9-2.9-4.9c-1.8 0-2.9 1.3-2.9 4.5c0 3.5 1.1 5 2.9 5c1.8 0 2.9-1.2 2.9-4.6zm5.6 4.3c-.04.04 0-8.6 0-8.6l-1.7-.4c0 0 .03-.75 0-.7c.9-.3 2.2-.5 3.8-.5c0 0 0 1.8 0 1.8c.7-1.2 2.1-1.9 3.8-1.9c2 0 3.4 1.1 3.4 3.2c0 0 0 7.1 0 7.1c.6.1 1.2.2 1.7.4c0 .03 0 .8 0 .8l-5.6 0c0 0 .03-.77 0-.8c.5-.2 1.1-.3 1.8-.4c0 0 0-6.6 0-6.6c0-1.4-.8-2.1-2.3-2.1c-1.1 0-2.2.4-2.8 1.1c0 0 0 7.6 0 7.6c.6.1 1.2.2 1.7.4c0 .03 0 .8 0 .8l-5.6 0c0 0 .03-.77 0-.8c.5-.2 1.1-.3 1.8-.4zm17.8-10.2c2.7 0 4.2 1.4 4.2 4.1c0 .5 0 .7-.1 1.2c0 .05-7.2 0-7.2 0c0 0 0 .24 0 .2c0 3.3 1.6 4.6 3.6 4.6c1.3 0 2.3-.6 3-1.5c0 0 .5.4.5.4c-.8 1.5-2.1 2.6-4.1 2.6c-2.9 0-5.2-1.7-5.2-5.8c0-3.7 2.4-5.8 5.3-5.8zm-3 4.3c-.03-.01 5.1 0 5.1 0c0 0-.02-.39 0-.4c0-2-.9-2.9-2.2-2.9c-1.4 0-2.6 1-2.9 3.3zm19.3-4.3c3.3 0 5.1 1.8 5.1 5.7c0 3.7-2.3 5.9-5.4 5.9c-3.3 0-5-1.9-5-5.8c0-3.7 2.1-5.8 5.3-5.8zm2.8 5.9c0-3.3-1-4.9-2.9-4.9c-1.8 0-2.9 1.3-2.9 4.5c0 3.5 1 5 2.9 5c1.8 0 2.9-1.2 2.9-4.6zm5.4-5.8c0 0 0-1.4 0-1.4c0-2.3 1.5-4.1 4.3-4.1c1.1 0 2.4.2 3 .5c.2.7.1 1.7-.2 2.5c.05-.03-1.2 0-1.2 0c0 0-.48-2.12-.5-2.1c-.2 0-.4 0-.5 0c-1.9 0-2.7 1.1-2.7 3c-.05-.02 0 1.7 0 1.7l2.7 0l0 1.2l-2.7 0c0 0-.05 8.84 0 8.8c.8.1 1.6.2 2.2.4c-.04.03 0 .8 0 .8l-6.1 0c0 0 .01-.77 0-.8c.5-.2 1.1-.3 1.7-.4c.04.04 0-8.8 0-8.8l-1.6 0c0 0 .01-.76 0-.8c.3-.1.9-.3 1.6-.5z" stroke="none" fill="#404040"/></g></svg>