<?xml version="1.0" standalone="no"?><!DOCTYPE svg PUBLIC "-//W3C//DTD SVG 1.1//EN" "http://www.w3.org/Graphics/SVG/1.1/DTD/svg11.dtd"><svg xmlns="http://www.w3.org/2000/svg" version="1.1" width="171px" height="41.8px" viewBox="0 0 171 41.8">  <desc>Santa Cruz Island 60,645 acres</desc>  <defs/>  <g id="Polygon13061">    <path d="M 2.5 29 C 2.4 29 2.3 29 2.2 29 C 1.4 29 1.1 29.4 1 29.8 C 1 29.8 1 29.8 1 29.8 C 1.2 29.6 1.5 29.5 1.8 29.5 C 2.4 29.5 2.9 30 2.9 30.7 C 2.9 31.4 2.4 32 1.6 32 C 0.6 32 0.2 31.3 0.2 30.4 C 0.2 29.8 0.4 29.2 0.8 28.8 C 1.2 28.5 1.6 28.3 2.2 28.3 C 2.3 28.3 2.4 28.3 2.5 28.3 C 2.5 28.3 2.5 29 2.5 29 Z M 2.1 30.8 C 2.1 30.4 1.9 30.1 1.5 30.1 C 1.3 30.1 1.1 30.3 1 30.4 C 1 30.5 1 30.6 1 30.7 C 1 31 1.2 31.4 1.6 31.4 C 1.9 31.4 2.1 31.1 2.1 30.8 Z M 5.9 30.1 C 5.9 31.2 5.5 32 4.6 32 C 3.6 32 3.2 31.2 3.2 30.2 C 3.2 29.1 3.7 28.3 4.6 28.3 C 5.5 28.3 5.9 29.2 5.9 30.1 Z M 4.1 30.2 C 4.1 31 4.3 31.4 4.6 31.4 C 4.9 31.4 5.1 31 5.1 30.1 C 5.1 29.4 4.9 28.9 4.6 28.9 C 4.3 28.9 4.1 29.3 4.1 30.2 Z M 6.1 32.6 C 6.3 32.1 6.4 31.5 6.5 31 C 6.5 31 7.4 31 7.4 31 C 7.2 31.5 6.9 32.1 6.7 32.6 C 6.7 32.6 6.1 32.6 6.1 32.6 Z M 10 29 C 10 29 9.9 29 9.7 29 C 9 29 8.7 29.4 8.6 29.8 C 8.6 29.8 8.6 29.8 8.6 29.8 C 8.8 29.6 9 29.5 9.3 29.5 C 9.9 29.5 10.4 30 10.4 30.7 C 10.4 31.4 9.9 32 9.1 32 C 8.2 32 7.7 31.3 7.7 30.4 C 7.7 29.8 7.9 29.2 8.3 28.8 C 8.7 28.5 9.2 28.3 9.7 28.3 C 9.9 28.3 10 28.3 10 28.3 C 10 28.3 10 29 10 29 Z M 9.6 30.8 C 9.6 30.4 9.4 30.1 9.1 30.1 C 8.8 30.1 8.6 30.3 8.6 30.4 C 8.5 30.5 8.5 30.6 8.5 30.7 C 8.5 31 8.7 31.4 9.1 31.4 C 9.4 31.4 9.6 31.1 9.6 30.8 Z M 12.3 31.9 L 12.3 31.1 L 10.7 31.1 L 10.7 30.5 L 12.1 28.4 L 13.1 28.4 L 13.1 30.5 L 13.5 30.5 L 13.5 31.1 L 13.1 31.1 L 13.1 31.9 L 12.3 31.9 Z M 12.3 30.5 C 12.3 30.5 12.3 29.67 12.3 29.7 C 12.3 29.5 12.3 29.2 12.3 29 C 12.3 29 12.3 29 12.3 29 C 12.2 29.2 12.1 29.4 12 29.7 C 11.97 29.67 11.5 30.4 11.5 30.4 L 11.5 30.5 L 12.3 30.5 Z M 16.3 29.1 L 14.9 29.1 C 14.9 29.1 14.8 29.6 14.8 29.6 C 14.9 29.6 14.9 29.6 15 29.6 C 15.4 29.6 15.7 29.7 16 29.8 C 16.2 30 16.4 30.3 16.4 30.7 C 16.4 31.4 15.8 32 14.9 32 C 14.4 32 14.1 31.9 13.9 31.8 C 13.9 31.8 14 31.2 14 31.2 C 14.2 31.2 14.5 31.3 14.8 31.3 C 15.2 31.3 15.5 31.2 15.5 30.8 C 15.5 30.4 15.3 30.2 14.5 30.2 C 14.3 30.2 14.2 30.2 14.1 30.2 C 14.06 30.24 14.3 28.4 14.3 28.4 L 16.3 28.4 L 16.3 29.1 Z M 20.4 31.3 C 20.4 31.5 20.4 31.8 20.4 31.9 C 20.42 31.94 19.7 31.9 19.7 31.9 L 19.6 31.7 C 19.6 31.7 19.6 31.67 19.6 31.7 C 19.4 31.9 19.2 32 18.8 32 C 18.3 32 18 31.6 18 31.2 C 18 30.5 18.6 30.1 19.5 30.1 C 19.5 30.1 19.5 30.1 19.5 30.1 C 19.5 30 19.5 29.8 19.1 29.8 C 18.8 29.8 18.5 29.9 18.3 30 C 18.3 30 18.2 29.4 18.2 29.4 C 18.3 29.3 18.7 29.2 19.2 29.2 C 20.1 29.2 20.4 29.7 20.4 30.4 C 20.4 30.4 20.4 31.3 20.4 31.3 Z M 19.6 30.7 C 19.1 30.7 18.8 30.8 18.8 31.1 C 18.8 31.3 18.9 31.4 19.1 31.4 C 19.3 31.4 19.5 31.3 19.6 31.1 C 19.6 31.1 19.6 31 19.6 31 C 19.6 31 19.6 30.7 19.6 30.7 Z M 23.1 31.9 C 22.9 31.9 22.6 32 22.3 32 C 21.4 32 20.9 31.5 20.9 30.6 C 20.9 29.8 21.4 29.2 22.4 29.2 C 22.6 29.2 22.9 29.2 23.1 29.3 C 23.1 29.3 22.9 29.9 22.9 29.9 C 22.8 29.9 22.7 29.8 22.5 29.8 C 22 29.8 21.7 30.1 21.7 30.6 C 21.7 31.1 22.1 31.3 22.5 31.3 C 22.7 31.3 22.8 31.3 23 31.3 C 23 31.3 23.1 31.9 23.1 31.9 Z M 23.5 30.1 C 23.5 29.7 23.5 29.5 23.5 29.3 C 23.5 29.25 24.2 29.3 24.2 29.3 L 24.2 29.7 C 24.2 29.7 24.27 29.75 24.3 29.7 C 24.4 29.3 24.7 29.2 25 29.2 C 25.1 29.2 25.1 29.2 25.2 29.2 C 25.2 29.2 25.2 30 25.2 30 C 25.1 30 25 30 24.9 30 C 24.6 30 24.4 30.1 24.4 30.4 C 24.4 30.4 24.4 30.5 24.4 30.6 C 24.36 30.58 24.4 31.9 24.4 31.9 L 23.5 31.9 C 23.5 31.9 23.52 30.14 23.5 30.1 Z M 26.2 30.9 C 26.2 31.2 26.6 31.4 27 31.4 C 27.3 31.4 27.5 31.3 27.7 31.3 C 27.7 31.3 27.8 31.8 27.8 31.8 C 27.5 31.9 27.2 32 26.9 32 C 25.9 32 25.4 31.5 25.4 30.6 C 25.4 29.9 25.8 29.2 26.8 29.2 C 27.6 29.2 28 29.9 28 30.5 C 28 30.7 28 30.8 27.9 30.9 C 27.9 30.9 26.2 30.9 26.2 30.9 Z M 27.2 30.3 C 27.2 30.1 27.1 29.7 26.7 29.7 C 26.4 29.7 26.2 30.1 26.2 30.3 C 26.2 30.3 27.2 30.3 27.2 30.3 Z M 28.5 31.2 C 28.6 31.3 28.9 31.4 29.2 31.4 C 29.4 31.4 29.5 31.3 29.5 31.2 C 29.5 31 29.5 31 29.2 30.9 C 28.6 30.7 28.4 30.4 28.4 30.1 C 28.4 29.6 28.8 29.2 29.5 29.2 C 29.8 29.2 30.1 29.3 30.2 29.3 C 30.2 29.3 30.1 29.9 30.1 29.9 C 30 29.9 29.7 29.8 29.5 29.8 C 29.3 29.8 29.2 29.8 29.2 30 C 29.2 30.1 29.3 30.2 29.6 30.3 C 30.1 30.5 30.3 30.7 30.3 31.1 C 30.3 31.6 30 32 29.2 32 C 28.8 32 28.5 31.9 28.3 31.8 C 28.3 31.8 28.5 31.2 28.5 31.2 Z " stroke="none" fill="#000"/>  </g>  <g id="Polygon13060">    <path d="M 0.5 9.1 C 0.51 9.06 1.8 8.8 1.8 8.8 C 1.8 8.8 2.5 10.84 2.5 10.8 C 2.8 10.9 3.1 10.9 3.4 10.9 C 4.4 10.9 5 10.5 5 9.6 C 5 8.8 4.5 8.5 3.8 8.3 C 3.8 8.3 2.8 8 2.8 8 C 1.4 7.5 0.5 6.6 0.5 5.1 C 0.5 3.1 2.4 2.2 4.5 2.2 C 5.6 2.2 6.7 2.4 7.2 2.6 C 7.3 2.8 7.3 3.2 7.3 3.5 C 7.3 4 7.3 4.7 7.2 5.1 C 7.15 5.13 5.9 5.1 5.9 5.1 C 5.9 5.1 5.49 3.43 5.5 3.4 C 5.2 3.4 4.8 3.3 4.5 3.3 C 3.7 3.3 2.9 3.7 2.9 4.6 C 2.9 5.2 3.2 5.6 4 5.8 C 4 5.8 5.2 6.2 5.2 6.2 C 6.9 6.7 7.6 7.5 7.6 9 C 7.6 11.2 5.5 12.1 3.5 12.1 C 2.3 12.1 1.3 11.8 0.7 11.5 C 0.6 10.9 0.5 9.8 0.5 9.1 Z M 12.6 7.7 C 12.6 7.7 12.6 6.8 12.6 6.8 C 12.6 6.1 12.3 5.7 11.5 5.7 C 11.3 5.7 11.1 5.8 10.8 5.8 C 10.84 5.82 10.6 7.1 10.6 7.1 C 10.6 7.1 9.18 7.08 9.2 7.1 C 9.1 6.7 9 6.3 9 5.9 C 9 5.7 9 5.4 9.1 5.2 C 10 4.8 11.2 4.5 12.3 4.5 C 14.1 4.5 15.1 5.2 15.1 6.7 C 15.1 7.9 15 9.3 15 10.7 C 15.04 10.69 15.8 10.9 15.8 10.9 C 15.8 10.9 15.79 11.71 15.8 11.7 C 15 11.9 13.9 12.1 12.6 12.1 C 12.6 12.1 12.6 11 12.6 11 C 12.3 11.7 11.5 12.1 10.6 12.1 C 9.4 12.1 8.5 11.4 8.5 10.1 C 8.5 8.2 10.4 7.8 12.6 7.7 Z M 12.6 10.4 C 12.6 10.4 12.6 8.6 12.6 8.6 C 11.5 8.7 10.9 9 10.9 9.8 C 10.9 10.4 11.3 10.7 11.8 10.7 C 12.1 10.7 12.4 10.6 12.6 10.4 Z M 17.2 10.9 C 17.25 10.9 17.2 6 17.2 6 L 16.5 5.8 C 16.5 5.8 16.5 4.96 16.5 5 C 17.4 4.7 18.5 4.6 19.8 4.6 C 19.8 4.6 19.8 5.7 19.8 5.7 C 20.3 4.9 21.2 4.5 22.3 4.5 C 23.7 4.5 24.5 5.4 24.5 6.7 C 24.5 6.7 24.5 10.9 24.5 10.9 C 24.9 10.9 25.1 11 25.3 11.1 C 25.3 11.1 25.3 11.9 25.3 11.9 L 21.3 11.9 C 21.3 11.9 21.25 11.1 21.3 11.1 C 21.4 11 21.7 10.9 22 10.9 C 22 10.9 22 7.3 22 7.3 C 22 6.6 21.7 6.3 21.1 6.3 C 20.6 6.3 20.2 6.4 19.8 6.8 C 19.8 6.8 19.8 10.9 19.8 10.9 C 20.1 10.9 20.4 11 20.5 11.1 C 20.55 11.1 20.5 11.9 20.5 11.9 L 16.5 11.9 C 16.5 11.9 16.48 11.1 16.5 11.1 C 16.6 11 16.9 10.9 17.2 10.9 Z M 26.7 4.7 C 26.7 4.7 26.8 3.5 26.8 3.5 C 27.4 3.3 28.4 3.3 29.2 3.3 C 29.22 3.27 29.2 4.7 29.2 4.7 L 30.8 4.7 L 30.8 5.9 L 29.2 5.9 C 29.2 5.9 29.11 9.55 29.1 9.6 C 29.1 10.2 29.3 10.5 29.8 10.5 C 30.2 10.5 30.4 10.3 30.7 10.1 C 30.7 10.1 31.1 10.7 31.1 10.7 C 30.8 11.4 29.9 12.1 28.7 12.1 C 27.3 12.1 26.6 11.4 26.6 10 C 26.59 10.05 26.7 5.9 26.7 5.9 L 25.9 5.9 C 25.9 5.9 25.89 4.99 25.9 5 C 26 4.9 26.3 4.8 26.7 4.7 Z M 35.7 7.7 C 35.7 7.7 35.7 6.8 35.7 6.8 C 35.7 6.1 35.4 5.7 34.7 5.7 C 34.5 5.7 34.2 5.8 34 5.8 C 33.99 5.82 33.8 7.1 33.8 7.1 C 33.8 7.1 32.32 7.08 32.3 7.1 C 32.2 6.7 32.1 6.3 32.1 5.9 C 32.1 5.7 32.2 5.4 32.2 5.2 C 33.1 4.8 34.3 4.5 35.4 4.5 C 37.3 4.5 38.2 5.2 38.2 6.7 C 38.2 7.9 38.2 9.3 38.2 10.7 C 38.19 10.69 38.9 10.9 38.9 10.9 C 38.9 10.9 38.94 11.71 38.9 11.7 C 38.1 11.9 37 12.1 35.8 12.1 C 35.8 12.1 35.8 11 35.8 11 C 35.4 11.7 34.7 12.1 33.8 12.1 C 32.5 12.1 31.7 11.4 31.7 10.1 C 31.7 8.2 33.5 7.8 35.7 7.7 Z M 35.7 10.4 C 35.7 10.4 35.7 8.6 35.7 8.6 C 34.7 8.7 34.1 9 34.1 9.8 C 34.1 10.4 34.5 10.7 35 10.7 C 35.3 10.7 35.5 10.6 35.7 10.4 Z M 47.9 2.2 C 49.1 2.2 50 2.4 50.5 2.6 C 50.6 2.8 50.7 3.3 50.7 3.6 C 50.7 4 50.6 4.7 50.5 5.1 C 50.49 5.13 49.2 5.1 49.2 5.1 C 49.2 5.1 48.81 3.39 48.8 3.4 C 48.6 3.3 48.3 3.3 48.1 3.3 C 46.4 3.3 45.3 4.6 45.3 7 C 45.3 9.8 46.6 10.9 48.3 10.9 C 48.4 10.9 48.5 10.9 48.7 10.9 C 48.69 10.92 49.4 8.8 49.4 8.8 C 49.4 8.8 50.7 9.06 50.7 9.1 C 50.7 9.8 50.6 10.6 50.4 11.4 C 49.7 11.9 48.6 12.1 47.3 12.1 C 44.3 12.1 42.5 10.4 42.5 7.2 C 42.5 3.8 44.9 2.2 47.9 2.2 Z M 52.4 10.9 C 52.36 10.9 52.4 6 52.4 6 L 51.6 5.8 C 51.6 5.8 51.61 4.96 51.6 5 C 52.5 4.7 53.6 4.6 54.9 4.6 C 54.9 4.6 54.9 5.9 54.9 5.9 C 55.3 4.9 56.2 4.5 56.9 4.5 C 57.3 4.5 57.6 4.6 57.9 4.8 C 57.9 5.9 57.7 6.6 57.5 7.5 C 57.48 7.51 56.2 7.5 56.2 7.5 C 56.2 7.5 55.99 6.3 56 6.3 C 55.5 6.3 55.2 6.5 54.9 6.9 C 54.9 6.9 54.9 10.9 54.9 10.9 C 55.3 10.9 55.7 11 55.9 11.1 C 55.92 11.1 55.9 11.9 55.9 11.9 L 51.6 11.9 C 51.6 11.9 51.6 11.1 51.6 11.1 C 51.8 11 52 10.9 52.4 10.9 Z M 58.5 5.8 C 58.5 5.8 58.5 4.96 58.5 5 C 59.4 4.7 60.5 4.6 61.8 4.6 C 61.8 4.6 61.8 9.3 61.8 9.3 C 61.8 10 62 10.4 62.7 10.4 C 63.2 10.4 63.6 10.3 64 9.9 C 64.02 9.87 64 6 64 6 L 63.3 5.8 C 63.3 5.8 63.27 4.96 63.3 5 C 64.1 4.7 65.3 4.6 66.5 4.6 C 66.54 4.57 66.5 10.7 66.5 10.7 L 67.3 10.9 C 67.3 10.9 67.29 11.71 67.3 11.7 C 66.4 11.9 65.3 12.1 64 12.1 C 64 12.1 64 10.9 64 10.9 C 63.5 11.7 62.6 12.1 61.5 12.1 C 60 12.1 59.2 11.2 59.2 9.8 C 59.25 9.81 59.2 6 59.2 6 L 58.5 5.8 Z M 67.9 5.8 C 67.9 5.4 67.9 5 68 4.7 C 68.04 4.69 74.3 4.7 74.3 4.7 L 74.3 5.5 L 70.8 10.8 L 72.6 10.7 L 73.2 9.2 C 73.2 9.2 74.38 9.24 74.4 9.2 C 74.4 10.2 74.3 11.1 74.1 11.9 C 74.1 11.94 67.9 11.9 67.9 11.9 L 67.9 11.1 L 71.5 5.8 L 69.6 5.9 L 69.3 7.5 C 69.3 7.5 68.05 7.51 68.1 7.5 C 68 7 67.9 6.4 67.9 5.8 Z M 78.6 10.8 C 78.6 10.8 78.6 3.4 78.6 3.4 C 78.2 3.4 78 3.3 77.7 3.2 C 77.73 3.24 77.7 2.3 77.7 2.3 L 82.2 2.3 C 82.2 2.3 82.2 3.24 82.2 3.2 C 82 3.3 81.7 3.4 81.3 3.4 C 81.3 3.4 81.3 10.8 81.3 10.8 C 81.7 10.9 82 10.9 82.2 11 C 82.2 11.04 82.2 11.9 82.2 11.9 L 77.7 11.9 C 77.7 11.9 77.73 11.04 77.7 11 C 78 10.9 78.2 10.9 78.6 10.8 Z M 83 11.1 C 83 10.6 83.1 10.1 83.2 9.6 C 83.23 9.6 84.6 9.6 84.6 9.6 C 84.6 9.6 84.79 10.93 84.8 10.9 C 85 11 85.3 11 85.5 11 C 86.2 11 86.6 10.7 86.6 10.2 C 86.6 9.6 86.2 9.4 85.5 9.2 C 85.5 9.2 84.7 9 84.7 9 C 83.7 8.7 83 8.1 83 6.8 C 83 5.2 84.6 4.5 86.3 4.5 C 87.1 4.5 88.1 4.7 88.6 4.9 C 88.7 5.1 88.7 5.4 88.7 5.5 C 88.7 6 88.6 6.5 88.5 7 C 88.48 7.02 87.2 7 87.2 7 C 87.2 7 86.92 5.7 86.9 5.7 C 86.7 5.7 86.5 5.6 86.3 5.6 C 85.8 5.6 85.2 5.8 85.2 6.4 C 85.2 7 85.7 7.1 86.2 7.3 C 86.2 7.3 87 7.6 87 7.6 C 88.2 7.9 89 8.4 89 9.6 C 89 11.3 87.8 12.1 85.5 12.1 C 84.7 12.1 83.7 12 83.1 11.7 C 83.1 11.5 83 11.3 83 11.1 Z M 90.4 10.9 C 90.36 10.9 90.4 2.9 90.4 2.9 L 89.5 2.7 C 89.5 2.7 89.47 1.78 89.5 1.8 C 90.3 1.6 91.6 1.4 92.9 1.4 C 92.9 1.4 92.9 10.9 92.9 10.9 C 93.2 10.9 93.5 11 93.7 11.1 C 93.66 11.1 93.7 11.9 93.7 11.9 L 89.6 11.9 C 89.6 11.9 89.59 11.1 89.6 11.1 C 89.8 11 90 10.9 90.4 10.9 Z M 98.3 7.7 C 98.3 7.7 98.3 6.8 98.3 6.8 C 98.3 6.1 98 5.7 97.2 5.7 C 97 5.7 96.8 5.8 96.6 5.8 C 96.57 5.82 96.3 7.1 96.3 7.1 C 96.3 7.1 94.9 7.08 94.9 7.1 C 94.8 6.7 94.7 6.3 94.7 5.9 C 94.7 5.7 94.8 5.4 94.8 5.2 C 95.7 4.8 96.9 4.5 98 4.5 C 99.8 4.5 100.8 5.2 100.8 6.7 C 100.8 7.9 100.8 9.3 100.8 10.7 C 100.77 10.69 101.5 10.9 101.5 10.9 C 101.5 10.9 101.52 11.71 101.5 11.7 C 100.7 11.9 99.6 12.1 98.4 12.1 C 98.4 12.1 98.4 11 98.4 11 C 98 11.7 97.3 12.1 96.4 12.1 C 95.1 12.1 94.3 11.4 94.3 10.1 C 94.3 8.2 96.1 7.8 98.3 7.7 Z M 98.3 10.4 C 98.3 10.4 98.3 8.6 98.3 8.6 C 97.3 8.7 96.6 9 96.6 9.8 C 96.6 10.4 97 10.7 97.5 10.7 C 97.8 10.7 98.1 10.6 98.3 10.4 Z M 103 10.9 C 102.97 10.9 103 6 103 6 L 102.2 5.8 C 102.2 5.8 102.22 4.96 102.2 5 C 103.1 4.7 104.2 4.6 105.5 4.6 C 105.5 4.6 105.5 5.7 105.5 5.7 C 106 4.9 106.9 4.5 108 4.5 C 109.5 4.5 110.3 5.4 110.3 6.7 C 110.3 6.7 110.3 10.9 110.3 10.9 C 110.6 10.9 110.9 11 111 11.1 C 111.03 11.1 111 11.9 111 11.9 L 107 11.9 C 107 11.9 106.98 11.1 107 11.1 C 107.1 11 107.4 10.9 107.7 10.9 C 107.7 10.9 107.7 7.3 107.7 7.3 C 107.7 6.6 107.4 6.3 106.8 6.3 C 106.3 6.3 105.9 6.4 105.5 6.8 C 105.5 6.8 105.5 10.9 105.5 10.9 C 105.8 10.9 106.1 11 106.3 11.1 C 106.27 11.1 106.3 11.9 106.3 11.9 L 102.2 11.9 C 102.2 11.9 102.21 11.1 102.2 11.1 C 102.4 11 102.6 10.9 103 10.9 Z M 115.2 4.5 C 115.8 4.5 116.3 4.7 116.6 5.1 C 116.64 5.05 116.6 2.9 116.6 2.9 L 115.7 2.7 C 115.7 2.7 115.71 1.78 115.7 1.8 C 116.6 1.6 117.9 1.4 119.2 1.4 C 119.16 1.44 119.2 10.7 119.2 10.7 L 119.9 10.9 C 119.9 10.9 119.91 11.71 119.9 11.7 C 119.1 11.9 118 12.1 116.7 12.1 C 116.7 12.1 116.7 10.9 116.7 10.9 C 116.3 11.7 115.5 12.1 114.6 12.1 C 112.9 12.1 111.7 10.8 111.7 8.5 C 111.7 6 113.1 4.5 115.2 4.5 Z M 116.6 10.1 C 116.6 10.1 116.6 6 116.6 6 C 116.5 5.9 116.3 5.9 116.1 5.9 C 114.9 5.9 114.3 6.9 114.3 8.3 C 114.3 9.9 114.9 10.5 115.7 10.5 C 116.1 10.5 116.4 10.3 116.6 10.1 Z " stroke="none" fill="#404040"/>  </g></svg>