<?xml version="1.0" standalone="no"?><!DOCTYPE svg PUBLIC "-//W3C//DTD SVG 1.1//EN" "http://www.w3.org/Graphics/SVG/1.1/DTD/svg11.dtd"><svg xmlns="http://www.w3.org/2000/svg" version="1.1" width="195px" height="41.8px" viewBox="0 0 195 41.8">  <desc>San Miguel Island 9,325 acres</desc>  <defs/>  <g id="Polygon10688">    <path d="M 0.5 31.3 C 0.6 31.4 0.7 31.3 0.9 31.3 C 1.1 31.3 1.4 31.3 1.6 31.1 C 1.8 31 1.9 30.7 2 30.5 C 2 30.5 2 30.4 2 30.4 C 1.8 30.6 1.6 30.7 1.3 30.7 C 0.7 30.7 0.2 30.3 0.2 29.6 C 0.2 28.9 0.7 28.3 1.5 28.3 C 2.4 28.3 2.9 29 2.9 29.8 C 2.9 30.6 2.6 31.1 2.2 31.5 C 1.9 31.8 1.4 32 0.9 32 C 0.7 32 0.6 32 0.5 32 C 0.5 32 0.5 31.3 0.5 31.3 Z M 1 29.5 C 1 29.9 1.2 30.1 1.5 30.1 C 1.7 30.1 1.9 30 2 29.9 C 2 29.8 2 29.8 2 29.7 C 2 29.3 1.9 28.9 1.5 28.9 C 1.2 28.9 1 29.2 1 29.5 Z M 3.1 32.6 C 3.2 32.1 3.4 31.5 3.5 31 C 3.5 31 4.3 31 4.3 31 C 4.1 31.5 3.9 32.1 3.6 32.6 C 3.6 32.6 3.1 32.6 3.1 32.6 Z M 4.9 31.1 C 5 31.2 5.4 31.3 5.7 31.3 C 6.1 31.3 6.3 31.1 6.3 30.9 C 6.3 30.5 6 30.4 5.6 30.4 C 5.63 30.35 5.3 30.4 5.3 30.4 L 5.3 29.8 C 5.3 29.8 5.62 29.75 5.6 29.8 C 5.9 29.8 6.2 29.6 6.2 29.3 C 6.2 29.1 6.1 29 5.7 29 C 5.4 29 5.1 29.1 5 29.2 C 5 29.2 4.8 28.6 4.8 28.6 C 5 28.4 5.4 28.3 5.9 28.3 C 6.7 28.3 7.1 28.7 7.1 29.2 C 7.1 29.6 6.9 29.9 6.4 30 C 6.4 30 6.4 30 6.4 30 C 6.9 30.1 7.2 30.4 7.2 30.9 C 7.2 31.5 6.7 32 5.8 32 C 5.3 32 4.9 31.9 4.7 31.8 C 4.7 31.8 4.9 31.1 4.9 31.1 Z M 7.8 31.9 L 7.8 31.4 C 7.8 31.4 8.23 31.02 8.2 31 C 9 30.3 9.4 29.9 9.4 29.5 C 9.4 29.2 9.2 29 8.8 29 C 8.5 29 8.2 29.1 8.1 29.3 C 8.1 29.3 7.8 28.7 7.8 28.7 C 8.1 28.5 8.5 28.3 9 28.3 C 9.8 28.3 10.2 28.8 10.2 29.4 C 10.2 30 9.8 30.5 9.3 31 C 9.28 30.97 9 31.2 9 31.2 L 9 31.3 L 10.3 31.3 L 10.3 31.9 L 7.8 31.9 Z M 13.2 29.1 L 11.8 29.1 C 11.8 29.1 11.74 29.6 11.7 29.6 C 11.8 29.6 11.9 29.6 12 29.6 C 12.3 29.6 12.7 29.7 12.9 29.8 C 13.2 30 13.3 30.3 13.3 30.7 C 13.3 31.4 12.8 32 11.8 32 C 11.4 32 11 31.9 10.8 31.8 C 10.8 31.8 11 31.2 11 31.2 C 11.1 31.2 11.5 31.3 11.8 31.3 C 12.1 31.3 12.5 31.2 12.5 30.8 C 12.5 30.4 12.2 30.2 11.5 30.2 C 11.3 30.2 11.1 30.2 11 30.2 C 11.01 30.24 11.2 28.4 11.2 28.4 L 13.2 28.4 L 13.2 29.1 Z M 17.3 31.3 C 17.3 31.5 17.3 31.8 17.4 31.9 C 17.37 31.94 16.6 31.9 16.6 31.9 L 16.6 31.7 C 16.6 31.7 16.55 31.67 16.5 31.7 C 16.4 31.9 16.1 32 15.8 32 C 15.2 32 14.9 31.6 14.9 31.2 C 14.9 30.5 15.5 30.1 16.5 30.1 C 16.5 30.1 16.5 30.1 16.5 30.1 C 16.5 30 16.4 29.8 16 29.8 C 15.7 29.8 15.4 29.9 15.3 30 C 15.3 30 15.1 29.4 15.1 29.4 C 15.3 29.3 15.7 29.2 16.1 29.2 C 17 29.2 17.3 29.7 17.3 30.4 C 17.3 30.4 17.3 31.3 17.3 31.3 Z M 16.5 30.7 C 16.1 30.7 15.7 30.8 15.7 31.1 C 15.7 31.3 15.9 31.4 16.1 31.4 C 16.3 31.4 16.4 31.3 16.5 31.1 C 16.5 31.1 16.5 31 16.5 31 C 16.5 31 16.5 30.7 16.5 30.7 Z M 20 31.9 C 19.9 31.9 19.6 32 19.3 32 C 18.4 32 17.8 31.5 17.8 30.6 C 17.8 29.8 18.4 29.2 19.4 29.2 C 19.6 29.2 19.8 29.2 20 29.3 C 20 29.3 19.9 29.9 19.9 29.9 C 19.8 29.9 19.6 29.8 19.4 29.8 C 19 29.8 18.7 30.1 18.7 30.6 C 18.7 31.1 19 31.3 19.4 31.3 C 19.6 31.3 19.8 31.3 19.9 31.3 C 19.9 31.3 20 31.9 20 31.9 Z M 20.5 30.1 C 20.5 29.7 20.5 29.5 20.4 29.3 C 20.45 29.25 21.2 29.3 21.2 29.3 L 21.2 29.7 C 21.2 29.7 21.22 29.75 21.2 29.7 C 21.4 29.3 21.7 29.2 21.9 29.2 C 22 29.2 22.1 29.2 22.1 29.2 C 22.1 29.2 22.1 30 22.1 30 C 22.1 30 22 30 21.9 30 C 21.6 30 21.4 30.1 21.3 30.4 C 21.3 30.4 21.3 30.5 21.3 30.6 C 21.31 30.58 21.3 31.9 21.3 31.9 L 20.5 31.9 C 20.5 31.9 20.47 30.14 20.5 30.1 Z M 23.2 30.9 C 23.2 31.2 23.5 31.4 23.9 31.4 C 24.2 31.4 24.4 31.3 24.7 31.3 C 24.7 31.3 24.8 31.8 24.8 31.8 C 24.5 31.9 24.2 32 23.8 32 C 22.9 32 22.4 31.5 22.4 30.6 C 22.4 29.9 22.8 29.2 23.7 29.2 C 24.6 29.2 24.9 29.9 24.9 30.5 C 24.9 30.7 24.9 30.8 24.9 30.9 C 24.9 30.9 23.2 30.9 23.2 30.9 Z M 24.1 30.3 C 24.1 30.1 24.1 29.7 23.7 29.7 C 23.3 29.7 23.2 30.1 23.2 30.3 C 23.2 30.3 24.1 30.3 24.1 30.3 Z M 25.4 31.2 C 25.6 31.3 25.9 31.4 26.1 31.4 C 26.4 31.4 26.5 31.3 26.5 31.2 C 26.5 31 26.4 31 26.1 30.9 C 25.5 30.7 25.3 30.4 25.3 30.1 C 25.3 29.6 25.8 29.2 26.4 29.2 C 26.7 29.2 27 29.3 27.2 29.3 C 27.2 29.3 27 29.9 27 29.9 C 26.9 29.9 26.7 29.8 26.5 29.8 C 26.3 29.8 26.1 29.8 26.1 30 C 26.1 30.1 26.2 30.2 26.6 30.3 C 27.1 30.5 27.3 30.7 27.3 31.1 C 27.3 31.6 26.9 32 26.1 32 C 25.8 32 25.5 31.9 25.3 31.8 C 25.3 31.8 25.4 31.2 25.4 31.2 Z " stroke="none" fill="#000"/>  </g>  <g id="Polygon10687">    <path d="M 0.5 9.1 C 0.51 9.06 1.8 8.8 1.8 8.8 C 1.8 8.8 2.5 10.84 2.5 10.8 C 2.8 10.9 3.1 10.9 3.4 10.9 C 4.4 10.9 5 10.5 5 9.6 C 5 8.8 4.5 8.5 3.8 8.3 C 3.8 8.3 2.8 8 2.8 8 C 1.4 7.5 0.5 6.6 0.5 5.1 C 0.5 3.1 2.4 2.2 4.5 2.2 C 5.6 2.2 6.7 2.4 7.2 2.6 C 7.3 2.8 7.3 3.2 7.3 3.5 C 7.3 4 7.3 4.7 7.2 5.1 C 7.15 5.13 5.9 5.1 5.9 5.1 C 5.9 5.1 5.49 3.43 5.5 3.4 C 5.2 3.4 4.8 3.3 4.5 3.3 C 3.7 3.3 2.9 3.7 2.9 4.6 C 2.9 5.2 3.2 5.6 4 5.8 C 4 5.8 5.2 6.2 5.2 6.2 C 6.9 6.7 7.6 7.5 7.6 9 C 7.6 11.2 5.5 12.1 3.5 12.1 C 2.3 12.1 1.3 11.8 0.7 11.5 C 0.6 10.9 0.5 9.8 0.5 9.1 Z M 12.6 7.7 C 12.6 7.7 12.6 6.8 12.6 6.8 C 12.6 6.1 12.3 5.7 11.5 5.7 C 11.3 5.7 11.1 5.8 10.8 5.8 C 10.84 5.82 10.6 7.1 10.6 7.1 C 10.6 7.1 9.18 7.08 9.2 7.1 C 9.1 6.7 9 6.3 9 5.9 C 9 5.7 9 5.4 9.1 5.2 C 10 4.8 11.2 4.5 12.3 4.5 C 14.1 4.5 15.1 5.2 15.1 6.7 C 15.1 7.9 15 9.3 15 10.7 C 15.04 10.69 15.8 10.9 15.8 10.9 C 15.8 10.9 15.79 11.71 15.8 11.7 C 15 11.9 13.9 12.1 12.6 12.1 C 12.6 12.1 12.6 11 12.6 11 C 12.3 11.7 11.5 12.1 10.6 12.1 C 9.4 12.1 8.5 11.4 8.5 10.1 C 8.5 8.2 10.4 7.8 12.6 7.7 Z M 12.6 10.4 C 12.6 10.4 12.6 8.6 12.6 8.6 C 11.5 8.7 10.9 9 10.9 9.8 C 10.9 10.4 11.3 10.7 11.8 10.7 C 12.1 10.7 12.4 10.6 12.6 10.4 Z M 17.2 10.9 C 17.25 10.9 17.2 6 17.2 6 L 16.5 5.8 C 16.5 5.8 16.5 4.96 16.5 5 C 17.4 4.7 18.5 4.6 19.8 4.6 C 19.8 4.6 19.8 5.7 19.8 5.7 C 20.3 4.9 21.2 4.5 22.3 4.5 C 23.7 4.5 24.5 5.4 24.5 6.7 C 24.5 6.7 24.5 10.9 24.5 10.9 C 24.9 10.9 25.1 11 25.3 11.1 C 25.3 11.1 25.3 11.9 25.3 11.9 L 21.3 11.9 C 21.3 11.9 21.25 11.1 21.3 11.1 C 21.4 11 21.7 10.9 22 10.9 C 22 10.9 22 7.3 22 7.3 C 22 6.6 21.7 6.3 21.1 6.3 C 20.6 6.3 20.2 6.4 19.8 6.8 C 19.8 6.8 19.8 10.9 19.8 10.9 C 20.1 10.9 20.4 11 20.5 11.1 C 20.55 11.1 20.5 11.9 20.5 11.9 L 16.5 11.9 C 16.5 11.9 16.48 11.1 16.5 11.1 C 16.6 11 16.9 10.9 17.2 10.9 Z M 29.6 10.8 C 29.6 10.8 29.6 3.4 29.6 3.4 C 29.2 3.4 28.9 3.3 28.7 3.2 C 28.68 3.24 28.7 2.3 28.7 2.3 L 33 2.3 L 35.1 7.8 L 37.2 2.3 L 41.4 2.3 C 41.4 2.3 41.41 3.24 41.4 3.2 C 41.2 3.3 40.9 3.4 40.5 3.4 C 40.5 3.4 40.5 10.8 40.5 10.8 C 40.9 10.9 41.2 10.9 41.4 11 C 41.41 11.04 41.4 11.9 41.4 11.9 L 37 11.9 C 37 11.9 36.96 11.04 37 11 C 37.2 10.9 37.5 10.9 37.8 10.8 C 37.84 10.84 37.8 4.7 37.8 4.7 L 35 11.9 L 33.9 11.9 L 31.2 4.7 C 31.2 4.7 31.2 10.84 31.2 10.8 C 31.6 10.9 31.9 10.9 32.1 11 C 32.08 11.04 32.1 11.9 32.1 11.9 L 28.7 11.9 C 28.7 11.9 28.68 11.04 28.7 11 C 28.9 10.9 29.2 10.9 29.6 10.8 Z M 42.8 2.4 C 42.8 2 42.8 1.9 42.9 1.6 C 43.2 1.5 43.7 1.5 44.1 1.5 C 44.5 1.5 45 1.5 45.3 1.6 C 45.4 1.9 45.4 2 45.4 2.4 C 45.4 2.9 45.3 3.3 45.3 3.6 C 45 3.7 44.5 3.8 44.1 3.8 C 43.7 3.8 43.2 3.7 42.9 3.6 C 42.9 3.3 42.8 2.9 42.8 2.4 Z M 42.8 10.9 C 42.79 10.9 42.8 6 42.8 6 L 42 5.8 C 42 5.8 42.04 4.96 42 5 C 42.9 4.7 44.1 4.6 45.3 4.6 C 45.3 4.6 45.3 10.9 45.3 10.9 C 45.6 10.9 45.9 11 46.1 11.1 C 46.09 11.1 46.1 11.9 46.1 11.9 L 42 11.9 C 42 11.9 42.03 11.1 42 11.1 C 42.2 11 42.5 10.9 42.8 10.9 Z M 47.8 11.7 C 47.5 11.5 47.1 11.1 47.1 10.5 C 47.1 9.8 47.6 9.3 48.1 9 C 47.3 8.6 46.7 8 46.7 7 C 46.7 5.3 48.2 4.5 50.1 4.5 C 50.9 4.5 51.6 4.7 52.2 5 C 52.6 4.5 53.1 4.3 53.8 4.3 C 53.9 4.5 53.9 4.8 53.9 5 C 53.9 5.3 53.9 5.5 53.8 5.8 C 53.8 5.8 52.8 5.8 52.8 5.8 C 53.1 6.1 53.3 6.5 53.3 7 C 53.3 8.5 52 9.3 49.8 9.3 C 49.6 9.3 49.4 9.3 49.1 9.2 C 49 9.4 48.9 9.5 48.9 9.7 C 48.9 9.9 49.1 10.1 49.4 10.1 C 49.4 10.1 51.5 10.1 51.5 10.1 C 52.9 10.1 53.9 10.7 53.9 12 C 53.9 14 51.8 14.9 49.6 14.9 C 47.6 14.9 46.4 14.3 46.4 13.2 C 46.4 12.5 47 12 47.8 11.7 Z M 51 6.9 C 51 5.9 50.6 5.5 50.1 5.5 C 49.5 5.5 49.1 5.9 49.1 6.8 C 49.1 7.8 49.5 8.2 50.1 8.2 C 50.6 8.2 51 7.8 51 6.9 Z M 48.5 12.8 C 48.5 13.5 49 13.8 49.9 13.8 C 51.1 13.8 51.8 13.4 51.8 12.7 C 51.8 12.3 51.4 12 50.8 12 C 50.8 12 48.8 12 48.8 12 C 48.6 12.2 48.5 12.5 48.5 12.8 Z M 54.4 5.8 C 54.4 5.8 54.36 4.96 54.4 5 C 55.2 4.7 56.4 4.6 57.6 4.6 C 57.6 4.6 57.6 9.3 57.6 9.3 C 57.6 10 57.9 10.4 58.6 10.4 C 59.1 10.4 59.5 10.3 59.9 9.9 C 59.88 9.87 59.9 6 59.9 6 L 59.1 5.8 C 59.1 5.8 59.13 4.96 59.1 5 C 60 4.7 61.1 4.6 62.4 4.6 C 62.4 4.57 62.4 10.7 62.4 10.7 L 63.1 10.9 C 63.1 10.9 63.15 11.71 63.1 11.7 C 62.3 11.9 61.2 12.1 59.9 12.1 C 59.9 12.1 59.9 10.9 59.9 10.9 C 59.4 11.7 58.4 12.1 57.4 12.1 C 55.9 12.1 55.1 11.2 55.1 9.8 C 55.11 9.81 55.1 6 55.1 6 L 54.4 5.8 Z M 67.6 4.5 C 69.6 4.5 70.7 5.7 70.7 7.6 C 70.7 7.9 70.6 8.1 70.6 8.5 C 70.6 8.5 66.4 8.5 66.4 8.5 C 66.5 10 67.3 10.5 68.3 10.5 C 69.1 10.5 69.7 10.2 70.1 9.7 C 70.1 9.7 70.5 10.3 70.5 10.3 C 70.1 11.3 69.1 12.1 67.5 12.1 C 65.4 12.1 63.8 11 63.8 8.2 C 63.8 5.8 65.6 4.5 67.6 4.5 Z M 66.4 7.5 C 66.4 7.5 68.4 7.5 68.4 7.5 C 68.5 7.4 68.5 7.2 68.5 7.1 C 68.5 6.2 68.1 5.7 67.5 5.7 C 66.9 5.7 66.5 6.2 66.4 7.5 Z M 72 10.9 C 72.03 10.9 72 2.9 72 2.9 L 71.1 2.7 C 71.1 2.7 71.14 1.78 71.1 1.8 C 72 1.6 73.3 1.4 74.5 1.4 C 74.5 1.4 74.5 10.9 74.5 10.9 C 74.9 10.9 75.1 11 75.3 11.1 C 75.33 11.1 75.3 11.9 75.3 11.9 L 71.3 11.9 C 71.3 11.9 71.26 11.1 71.3 11.1 C 71.4 11 71.7 10.9 72 10.9 Z M 79.6 10.8 C 79.6 10.8 79.6 3.4 79.6 3.4 C 79.2 3.4 78.9 3.3 78.7 3.2 C 78.69 3.24 78.7 2.3 78.7 2.3 L 83.2 2.3 C 83.2 2.3 83.16 3.24 83.2 3.2 C 82.9 3.3 82.6 3.4 82.3 3.4 C 82.3 3.4 82.3 10.8 82.3 10.8 C 82.6 10.9 82.9 10.9 83.2 11 C 83.16 11.04 83.2 11.9 83.2 11.9 L 78.7 11.9 C 78.7 11.9 78.69 11.04 78.7 11 C 78.9 10.9 79.2 10.9 79.6 10.8 Z M 84 11.1 C 84 10.6 84.1 10.1 84.2 9.6 C 84.19 9.6 85.5 9.6 85.5 9.6 C 85.5 9.6 85.75 10.93 85.8 10.9 C 86 11 86.2 11 86.5 11 C 87.1 11 87.6 10.7 87.6 10.2 C 87.6 9.6 87.1 9.4 86.4 9.2 C 86.4 9.2 85.6 9 85.6 9 C 84.7 8.7 84 8.1 84 6.8 C 84 5.2 85.5 4.5 87.3 4.5 C 88.1 4.5 89 4.7 89.6 4.9 C 89.6 5.1 89.6 5.4 89.6 5.5 C 89.6 6 89.6 6.5 89.4 7 C 89.44 7.02 88.1 7 88.1 7 C 88.1 7 87.88 5.7 87.9 5.7 C 87.7 5.7 87.5 5.6 87.3 5.6 C 86.7 5.6 86.2 5.8 86.2 6.4 C 86.2 7 86.6 7.1 87.2 7.3 C 87.2 7.3 88 7.6 88 7.6 C 89.1 7.9 89.9 8.4 89.9 9.6 C 89.9 11.3 88.7 12.1 86.5 12.1 C 85.6 12.1 84.6 12 84.1 11.7 C 84 11.5 84 11.3 84 11.1 Z M 91.3 10.9 C 91.32 10.9 91.3 2.9 91.3 2.9 L 90.4 2.7 C 90.4 2.7 90.43 1.78 90.4 1.8 C 91.3 1.6 92.6 1.4 93.8 1.4 C 93.8 1.4 93.8 10.9 93.8 10.9 C 94.2 10.9 94.4 11 94.6 11.1 C 94.62 11.1 94.6 11.9 94.6 11.9 L 90.6 11.9 C 90.6 11.9 90.55 11.1 90.6 11.1 C 90.7 11 91 10.9 91.3 10.9 Z M 99.3 7.7 C 99.3 7.7 99.3 6.8 99.3 6.8 C 99.3 6.1 99 5.7 98.2 5.7 C 98 5.7 97.8 5.8 97.5 5.8 C 97.53 5.82 97.3 7.1 97.3 7.1 C 97.3 7.1 95.86 7.08 95.9 7.1 C 95.7 6.7 95.7 6.3 95.7 5.9 C 95.7 5.7 95.7 5.4 95.8 5.2 C 96.7 4.8 97.9 4.5 99 4.5 C 100.8 4.5 101.8 5.2 101.8 6.7 C 101.8 7.9 101.7 9.3 101.7 10.7 C 101.73 10.69 102.5 10.9 102.5 10.9 C 102.5 10.9 102.48 11.71 102.5 11.7 C 101.6 11.9 100.6 12.1 99.3 12.1 C 99.3 12.1 99.3 11 99.3 11 C 99 11.7 98.2 12.1 97.3 12.1 C 96.1 12.1 95.2 11.4 95.2 10.1 C 95.2 8.2 97.1 7.8 99.3 7.7 Z M 99.3 10.4 C 99.3 10.4 99.3 8.6 99.3 8.6 C 98.2 8.7 97.6 9 97.6 9.8 C 97.6 10.4 98 10.7 98.5 10.7 C 98.8 10.7 99.1 10.6 99.3 10.4 Z M 103.9 10.9 C 103.93 10.9 103.9 6 103.9 6 L 103.2 5.8 C 103.2 5.8 103.18 4.96 103.2 5 C 104 4.7 105.2 4.6 106.5 4.6 C 106.5 4.6 106.5 5.7 106.5 5.7 C 107 4.9 107.9 4.5 108.9 4.5 C 110.4 4.5 111.2 5.4 111.2 6.7 C 111.2 6.7 111.2 10.9 111.2 10.9 C 111.6 10.9 111.8 11 112 11.1 C 111.99 11.1 112 11.9 112 11.9 L 107.9 11.9 C 107.9 11.9 107.94 11.1 107.9 11.1 C 108.1 11 108.4 10.9 108.7 10.9 C 108.7 10.9 108.7 7.3 108.7 7.3 C 108.7 6.6 108.4 6.3 107.8 6.3 C 107.3 6.3 106.9 6.4 106.5 6.8 C 106.5 6.8 106.5 10.9 106.5 10.9 C 106.8 10.9 107.1 11 107.2 11.1 C 107.23 11.1 107.2 11.9 107.2 11.9 L 103.2 11.9 C 103.2 11.9 103.17 11.1 103.2 11.1 C 103.3 11 103.6 10.9 103.9 10.9 Z M 116.1 4.5 C 116.8 4.5 117.3 4.7 117.6 5.1 C 117.6 5.05 117.6 2.9 117.6 2.9 L 116.7 2.7 C 116.7 2.7 116.67 1.78 116.7 1.8 C 117.5 1.6 118.8 1.4 120.1 1.4 C 120.12 1.44 120.1 10.7 120.1 10.7 L 120.9 10.9 C 120.9 10.9 120.87 11.71 120.9 11.7 C 120 11.9 118.9 12.1 117.6 12.1 C 117.6 12.1 117.6 10.9 117.6 10.9 C 117.3 11.7 116.5 12.1 115.6 12.1 C 113.8 12.1 112.7 10.8 112.7 8.5 C 112.7 6 114.1 4.5 116.1 4.5 Z M 117.6 10.1 C 117.6 10.1 117.6 6 117.6 6 C 117.4 5.9 117.2 5.9 117 5.9 C 115.9 5.9 115.3 6.9 115.3 8.3 C 115.3 9.9 115.9 10.5 116.7 10.5 C 117 10.5 117.3 10.3 117.6 10.1 Z " stroke="none" fill="#404040"/>  </g></svg>