<?xml version="1.0" standalone="no"?><!DOCTYPE svg PUBLIC "-//W3C//DTD SVG 1.1//EN" "http://www.w3.org/Graphics/SVG/1.1/DTD/svg11.dtd"><svg xmlns="http://www.w3.org/2000/svg" version="1.1" width="69px" height="28.8px" viewBox="0 0 69 28.8"><desc>Tap to plan your visit</desc><defs/><g id="Polygon4642"><path d="m14.8 13.9c0 0 1.19 3.17 1.2 3.2c.1.3.3.7.3 1.1c0 0 .1 0 .1 0c.1-.4.2-.8.3-1.1c0-.05 1.1-3.2 1.1-3.2l1 0c0 0-1.47 3.82-1.5 3.8c-.7 1.8-1.1 2.8-1.8 3.4c-.5.4-.9.5-1.2.6c0 0-.2-.8-.2-.8c.2-.1.5-.3.8-.5c.3-.2.6-.6.8-1.1c.1-.1.1-.2.1-.2c0-.1 0-.1-.1-.3c.04.03-1.9-4.9-1.9-4.9l1 0zm9.6 2.6c0 2-1.4 2.9-2.7 2.9c-1.4 0-2.5-1.1-2.5-2.8c0-1.7 1.1-2.8 2.6-2.8c1.5 0 2.6 1.1 2.6 2.7zm-4.2.1c0 1.2.6 2 1.6 2c.9 0 1.6-.8 1.6-2c0-.9-.5-2.1-1.6-2.1c-1.1 0-1.6 1.1-1.6 2.1zm9.8 1.2c0 .5.1 1 .1 1.4c-.01.05-.9 0-.9 0l0-.8c0 0-.04-.02 0 0c-.3.4-.9 1-1.8 1c-.8 0-1.8-.5-1.8-2.4c-.04.04 0-3.1 0-3.1l.9 0c0 0 .03 2.96 0 3c0 1 .3 1.7 1.2 1.7c.7 0 1.1-.5 1.3-.9c0-.2.1-.3.1-.5c-.02-.02 0-3.3 0-3.3l.9 0c0 0 .05 3.89 0 3.9zm1.7-2.2c0-.6-.1-1.2-.1-1.7c.01.03.9 0 .9 0l0 1.1c0 0 .03-.02 0 0c.3-.7.9-1.2 1.5-1.2c.1 0 .2 0 .3 0c0 0 0 1 0 1c-.1-.1-.2-.1-.3-.1c-.7 0-1.2.5-1.3 1.3c-.1.1-.1.3-.1.4c.02.01 0 2.8 0 2.8l-.9 0c0 0-.05-3.61 0-3.6zm6.3-1.7c0 0 1 3.01 1 3c.2.5.3.9.4 1.4c0 0 .1 0 .1 0c.1-.5.2-.9.4-1.4c.01.01 1-3 1-3l1.1 0l-2.1 5.3l-1 0l-2-5.3l1.1 0zm4.9 5.3l0-5.3l.9 0l0 5.3l-.9 0zm1.1-6.8c0 .4-.3.6-.7.6c-.3 0-.5-.2-.5-.6c0-.3.2-.6.6-.6c.3 0 .6.3.6.6zm1.3 5.9c.3.1.8.3 1.3.3c.7 0 1-.3 1-.7c0-.5-.2-.8-1-1c-.9-.4-1.4-.9-1.4-1.5c0-.9.7-1.6 1.9-1.6c.5 0 1 .2 1.3.3c0 0-.3.7-.3.7c-.2-.1-.6-.3-1.1-.3c-.5 0-.8.4-.8.8c0 .4.3.6 1 .9c.9.3 1.4.8 1.4 1.6c0 .9-.8 1.6-2 1.6c-.6 0-1.1-.2-1.5-.4c0 0 .2-.7.2-.7zm4.5.9l0-5.3l1 0l0 5.3l-1 0zm1.1-6.8c0 .4-.3.6-.6.6c-.4 0-.6-.2-.6-.6c0-.3.2-.6.6-.6c.3 0 .6.3.6.6zm2.6.3l0 1.2l1.4 0l0 .8l-1.4 0c0 0 .04 2.83 0 2.8c0 .7.2 1.1.8 1.1c.2 0 .4-.1.5-.1c0 0 .1.7.1.7c-.2.1-.5.2-.9.2c-.4 0-.8-.2-1-.4c-.3-.3-.4-.8-.4-1.4c0-.03 0-2.9 0-2.9l-.8 0l0-.8l.8 0l0-1l.9-.2z" stroke="none" fill="#fff"/></g><g id="Polygon4641"><path d="m11.3 1.6l-2.3 0l0-.8l5.5 0l0 .8l-2.3 0l0 6.6l-.9 0l0-6.6zm7 5.4c0 .4 0 .9.1 1.2c0 .05-.9 0-.9 0l0-.6c0 0-.08-.02-.1 0c-.3.4-.8.8-1.6.8c-1.1 0-1.6-.8-1.6-1.6c0-1.2 1.1-1.9 3.2-1.9c0 0 0-.1 0-.1c0-.5-.2-1.3-1.2-1.3c-.6 0-1.1.2-1.4.4c0 0-.3-.6-.3-.6c.5-.3 1.1-.5 1.8-.5c1.6 0 2 1.1 2 2.2c0 0 0 2 0 2zm-.9-1.5c-1.1 0-2.3.2-2.3 1.2c0 .7.4 1 .9 1c.7 0 1.2-.5 1.3-.9c.1-.1.1-.3.1-.3c0 0 0-1 0-1zm2.5-.8c0-.7 0-1.3-.1-1.8c.04.03.9 0 .9 0l.1.9c0 0-.03.04 0 0c.4-.6 1-1 1.9-1c1.3 0 2.2 1.1 2.2 2.7c0 1.9-1.1 2.9-2.4 2.9c-.7 0-1.3-.3-1.6-.9c-.04.04-.1 0-.1 0l0 2.9l-.9 0c0 0-.02-5.74 0-5.7zm.9 1.4c0 .1.1.3.1.4c.2.7.7 1.1 1.4 1.1c1.1 0 1.7-.8 1.7-2c0-1.1-.6-2-1.6-2c-.7 0-1.3.4-1.5 1.2c0 .1-.1.2-.1.4c0 0 0 .9 0 .9zm8.8-4.4l0 1.2l1.4 0l0 .8l-1.4 0c0 0 .04 2.83 0 2.8c0 .7.2 1.1.8 1.1c.2 0 .4-.1.5-.1c0 0 .1.7.1.7c-.2.1-.5.2-.9.2c-.4 0-.8-.2-1-.4c-.3-.3-.4-.8-.4-1.4c0-.03 0-2.9 0-2.9l-.8 0l0-.8l.8 0l0-1l.9-.2zm7.3 3.8c0 2-1.4 2.9-2.7 2.9c-1.4 0-2.5-1.1-2.5-2.8c0-1.7 1.1-2.8 2.6-2.8c1.5 0 2.6 1.1 2.6 2.7zm-4.2.1c0 1.2.6 2 1.6 2c.9 0 1.6-.8 1.6-2c0-.9-.5-2.1-1.6-2.1c-1.2 0-1.6 1.1-1.6 2.1zm7.7-.9c0-.7 0-1.3 0-1.8c-.02.03.8 0 .8 0l.1.9c0 0 .01.04 0 0c.4-.6 1-1 1.9-1c1.3 0 2.3 1.1 2.3 2.7c0 1.9-1.2 2.9-2.5 2.9c-.7 0-1.3-.3-1.6-.9c0 .04 0 0 0 0l0 2.9l-1 0c0 0 .02-5.74 0-5.7zm1 1.4c0 .1 0 .3 0 .4c.2.7.8 1.1 1.5 1.1c1 0 1.6-.8 1.6-2c0-1.1-.6-2-1.6-2c-.7 0-1.3.4-1.5 1.2c0 .1 0 .2 0 .4c0 0 0 .9 0 .9zm5.3-5.7l.9 0l0 7.8l-.9 0l0-7.8zm6.3 6.6c0 .4 0 .9.1 1.2c-.01.05-.9 0-.9 0l-.1-.6c0 0 .01-.02 0 0c-.3.4-.9.8-1.6.8c-1.1 0-1.6-.8-1.6-1.6c0-1.2 1.1-1.9 3.2-1.9c0 0 0-.1 0-.1c0-.5-.2-1.3-1.3-1.3c-.5 0-1 .2-1.3.4c0 0-.3-.6-.3-.6c.5-.3 1.1-.5 1.8-.5c1.6 0 2 1.1 2 2.2c0 0 0 2 0 2zm-.9-1.5c-1.1 0-2.3.2-2.3 1.2c0 .7.4 1 .9 1c.7 0 1.2-.5 1.3-.9c.1-.1.1-.3.1-.3c0 0 0-1 0-1zm2.5-1.1c0-.6 0-1-.1-1.5c.03.03.9 0 .9 0l0 .9c0 0 .07.01.1 0c.2-.5.8-1 1.7-1c.8 0 1.9.5 1.9 2.3c.01-.02 0 3.1 0 3.1l-1 0c0 0 .04-3.02 0-3c0-.9-.3-1.6-1.2-1.6c-.6 0-1.1.5-1.3 1c0 .1-.1.3-.1.4c.04.05 0 3.2 0 3.2l-.9 0c0 0-.02-3.83 0-3.8z" stroke="none" fill="#fff"/></g></svg>