<?xml version="1.0" standalone="no"?><!DOCTYPE svg PUBLIC "-//W3C//DTD SVG 1.1//EN" "http://www.w3.org/Graphics/SVG/1.1/DTD/svg11.dtd"><svg xmlns="http://www.w3.org/2000/svg" version="1.1" width="125px" height="163.5px" viewBox="0 0 125 163.5">  <desc>Dolphin</desc>  <defs/>  <g id="Polygon11655">    <path d="M 42.9 73.4 C 43.4 73.3 44.1 73.2 44.9 73.2 C 46.1 73.2 47 73.5 47.7 74.1 C 48.5 74.9 49 76.2 49 78.2 C 49 80.2 48.5 81.7 47.6 82.5 C 46.9 83.1 45.9 83.4 44.5 83.4 C 43.9 83.4 43.3 83.4 42.9 83.3 C 42.9 83.3 42.9 73.4 42.9 73.4 Z M 44.8 81.8 C 44.9 81.8 45.1 81.8 45.2 81.8 C 46.1 81.8 47 80.9 47 78.1 C 47 76.1 46.4 74.8 45.2 74.8 C 45.1 74.8 45 74.8 44.8 74.8 C 44.8 74.8 44.8 81.8 44.8 81.8 Z M 55.4 79.7 C 55.4 82.7 53.7 83.5 52.6 83.5 C 50.9 83.5 49.8 82.1 49.8 79.7 C 49.8 77.1 51.2 75.9 52.6 75.9 C 54.4 75.9 55.4 77.4 55.4 79.7 Z M 51.8 79.7 C 51.8 80.9 51.9 82 52.7 82 C 53.3 82 53.5 80.8 53.5 79.7 C 53.5 78.7 53.3 77.4 52.6 77.4 C 51.9 77.4 51.8 78.7 51.8 79.7 Z M 56.5 73 L 58.5 73 L 58.5 83.4 L 56.5 83.4 L 56.5 73 Z M 59.9 78.4 C 59.9 77.5 59.9 76.7 59.8 76 C 59.82 76.04 61.5 76 61.5 76 L 61.6 76.9 C 61.6 76.9 61.67 76.88 61.7 76.9 C 62 76.3 62.5 75.9 63.2 75.9 C 64.8 75.9 65.5 77.7 65.5 79.7 C 65.5 82.3 64.3 83.5 63.1 83.5 C 62.5 83.5 62.1 83.1 61.9 82.8 C 61.88 82.78 61.8 82.8 61.8 82.8 L 61.8 86.3 L 59.9 86.3 C 59.9 86.3 59.88 78.37 59.9 78.4 Z M 61.8 80.7 C 61.8 80.9 61.9 81.2 62 81.3 C 62.1 81.8 62.4 81.9 62.6 81.9 C 63.3 81.9 63.5 80.9 63.5 79.7 C 63.5 78.3 63.2 77.6 62.6 77.6 C 62.3 77.6 62 77.9 61.9 78.2 C 61.9 78.3 61.8 78.5 61.8 78.7 C 61.8 78.7 61.8 80.7 61.8 80.7 Z M 66.6 73 L 68.6 73 L 68.6 76.8 C 68.6 76.8 68.6 76.81 68.6 76.8 C 68.8 76.6 69 76.4 69.2 76.2 C 69.5 76 69.9 75.9 70.2 75.9 C 71.6 75.9 72.1 77.1 72.1 78.9 C 72.09 78.92 72.1 83.4 72.1 83.4 L 70.1 83.4 C 70.1 83.4 70.13 78.92 70.1 78.9 C 70.1 78.2 70 77.6 69.4 77.6 C 69.1 77.6 68.8 77.8 68.6 78.3 C 68.6 78.4 68.6 78.7 68.6 78.8 C 68.57 78.82 68.6 83.4 68.6 83.4 L 66.6 83.4 L 66.6 73 Z M 73.5 83.4 L 73.5 76 L 75.4 76 L 75.4 83.4 L 73.5 83.4 Z M 75.4 74.1 C 75.5 74.7 75 75.2 74.4 75.2 C 73.9 75.2 73.4 74.7 73.4 74.1 C 73.4 73.4 73.9 73 74.4 73 C 75 73 75.4 73.4 75.4 74.1 Z M 76.8 78.2 C 76.8 77.5 76.8 76.7 76.8 76 C 76.76 76.04 78.5 76 78.5 76 L 78.6 76.9 C 78.6 76.9 78.59 76.88 78.6 76.9 C 79 76.3 79.6 75.9 80.4 75.9 C 81.8 75.9 82.3 77 82.3 78.7 C 82.31 78.66 82.3 83.4 82.3 83.4 L 80.3 83.4 C 80.3 83.4 80.34 78.79 80.3 78.8 C 80.3 78.2 80.2 77.6 79.6 77.6 C 79.3 77.6 79 77.8 78.9 78.2 C 78.8 78.4 78.8 78.6 78.8 78.9 C 78.78 78.91 78.8 83.4 78.8 83.4 L 76.8 83.4 C 76.8 83.4 76.82 78.24 76.8 78.2 Z " stroke="none" fill="#000" fill-opacity="0.7"/>  </g></svg>