<?xml version="1.0" standalone="no"?><!DOCTYPE svg PUBLIC "-//W3C//DTD SVG 1.1//EN" "http://www.w3.org/Graphics/SVG/1.1/DTD/svg11.dtd"><svg xmlns="http://www.w3.org/2000/svg" version="1.1" width="125px" height="46px" viewBox="0 0 125 46">  <desc>Islands</desc>  <defs/>  <g id="Polygon10267">    <path d="M 32.1 15.2 L 32.1 26 L 29.7 26 L 29.7 15.2 L 32.1 15.2 Z M 34.1 23.9 C 34.5 24.2 35.5 24.5 36.2 24.5 C 36.9 24.5 37.2 24.2 37.2 23.8 C 37.2 23.4 37 23.2 36.1 22.9 C 34.4 22.4 33.8 21.5 33.8 20.6 C 33.8 19.1 35.1 18 37 18 C 37.9 18 38.7 18.2 39.2 18.4 C 39.2 18.4 38.8 20.1 38.8 20.1 C 38.4 19.9 37.8 19.7 37.1 19.7 C 36.5 19.7 36.2 19.9 36.2 20.3 C 36.2 20.7 36.5 20.9 37.4 21.2 C 38.9 21.7 39.5 22.5 39.5 23.6 C 39.5 25.1 38.4 26.2 36.2 26.2 C 35.1 26.2 34.2 25.9 33.6 25.6 C 33.6 25.6 34.1 23.9 34.1 23.9 Z M 41 14.6 L 43.5 14.6 L 43.5 26 L 41 26 L 41 14.6 Z M 51.9 24.1 C 51.9 24.8 52 25.6 52.1 26 C 52.08 26 49.9 26 49.9 26 L 49.7 25.2 C 49.7 25.2 49.69 25.22 49.7 25.2 C 49.2 25.8 48.4 26.2 47.5 26.2 C 45.9 26.2 44.9 25 44.9 23.8 C 44.9 21.7 46.7 20.8 49.5 20.8 C 49.5 20.8 49.5 20.7 49.5 20.7 C 49.5 20.3 49.3 19.7 48.1 19.7 C 47.3 19.7 46.4 19.9 45.9 20.3 C 45.9 20.3 45.5 18.7 45.5 18.7 C 46 18.4 47.1 18 48.5 18 C 51.1 18 51.9 19.5 51.9 21.4 C 51.9 21.4 51.9 24.1 51.9 24.1 Z M 49.6 22.3 C 48.3 22.3 47.3 22.6 47.3 23.5 C 47.3 24.2 47.7 24.5 48.3 24.5 C 48.9 24.5 49.4 24.1 49.5 23.6 C 49.6 23.4 49.6 23.3 49.6 23.2 C 49.6 23.2 49.6 22.3 49.6 22.3 Z M 53.9 20.7 C 53.9 19.7 53.9 18.9 53.8 18.2 C 53.82 18.18 55.9 18.2 55.9 18.2 L 56 19.3 C 56 19.3 56.09 19.26 56.1 19.3 C 56.4 18.8 57.2 18 58.5 18 C 60.1 18 61.3 19.1 61.3 21.4 C 61.31 21.38 61.3 26 61.3 26 L 58.9 26 C 58.9 26 58.88 21.66 58.9 21.7 C 58.9 20.7 58.5 20 57.6 20 C 57 20 56.6 20.4 56.4 20.9 C 56.3 21 56.3 21.3 56.3 21.5 C 56.32 21.49 56.3 26 56.3 26 L 53.9 26 C 53.9 26 53.88 20.67 53.9 20.7 Z M 70.8 14.6 C 70.8 14.6 70.84 23.66 70.8 23.7 C 70.8 24.5 70.9 25.5 70.9 26 C 70.91 26 68.7 26 68.7 26 L 68.7 24.9 C 68.7 24.9 68.6 24.86 68.6 24.9 C 68.1 25.7 67.2 26.2 66.2 26.2 C 64.3 26.2 62.8 24.6 62.8 22.2 C 62.8 19.5 64.4 18 66.3 18 C 67.3 18 68 18.3 68.4 18.9 C 68.38 18.86 68.4 18.9 68.4 18.9 L 68.4 14.6 L 70.8 14.6 Z M 68.4 21.5 C 68.4 21.4 68.4 21.2 68.4 21 C 68.2 20.4 67.7 19.9 67 19.9 C 65.8 19.9 65.3 20.8 65.3 22.1 C 65.3 23.4 65.9 24.2 66.9 24.2 C 67.6 24.2 68.2 23.8 68.4 23.1 C 68.4 22.9 68.4 22.7 68.4 22.5 C 68.4 22.5 68.4 21.5 68.4 21.5 Z M 72.8 23.9 C 73.2 24.2 74.2 24.5 74.9 24.5 C 75.6 24.5 75.9 24.2 75.9 23.8 C 75.9 23.4 75.7 23.2 74.8 22.9 C 73.1 22.4 72.5 21.5 72.5 20.6 C 72.5 19.1 73.8 18 75.7 18 C 76.6 18 77.4 18.2 77.9 18.4 C 77.9 18.4 77.5 20.1 77.5 20.1 C 77.1 19.9 76.5 19.7 75.8 19.7 C 75.2 19.7 74.9 19.9 74.9 20.3 C 74.9 20.7 75.2 20.9 76.1 21.2 C 77.6 21.7 78.2 22.5 78.3 23.6 C 78.3 25.1 77.1 26.2 74.9 26.2 C 73.9 26.2 72.9 25.9 72.3 25.6 C 72.3 25.6 72.8 23.9 72.8 23.9 Z " stroke="none" fill="#fff"/>  </g></svg>