<?xml version="1.0" standalone="no"?><!DOCTYPE svg PUBLIC "-//W3C//DTD SVG 1.1//EN" "http://www.w3.org/Graphics/SVG/1.1/DTD/svg11.dtd"><svg xmlns="http://www.w3.org/2000/svg" version="1.1" width="427px" height="197.5px" viewBox="0 0 427 197.5"><desc>Dolphin</desc><defs/><g id="Polygon13922"><path d="m188.1 89.3c.6-.2 1.6-.3 2.6-.3c1.6 0 2.7.4 3.6 1.2c1.1 1 1.7 2.7 1.7 5.2c0 2.7-.7 4.5-1.8 5.5c-.9.9-2.2 1.3-4 1.3c-.8 0-1.6-.1-2.1-.2c0 0 0-12.7 0-12.7zm2.5 10.8c.2 0 .3 0 .5 0c1.2 0 2.3-1.2 2.3-4.8c0-2.6-.7-4.2-2.3-4.2c-.1 0-.3 0-.5 0c0 0 0 9 0 9zm13.6-2.8c0 4-2.2 4.9-3.6 4.9c-2.2 0-3.6-1.7-3.6-4.8c0-3.4 1.8-4.9 3.7-4.9c2.2 0 3.5 1.9 3.5 4.8zm-4.7 0c0 1.7.3 3 1.2 3c.8 0 1-1.6 1-3c0-1.2-.2-2.9-1.1-2.9c-.9 0-1.1 1.7-1.1 2.9zm6.2-8.5l2.5 0l0 13.3l-2.5 0l0-13.3zm4.3 6.9c0-1.2-.1-2.1-.1-3c-.01-.04 2.2 0 2.2 0l.1 1c0 0 .06.04.1 0c.3-.7 1.1-1.2 1.9-1.2c2.1 0 3 2.2 3 4.9c0 3.3-1.5 4.8-3.1 4.8c-.8 0-1.3-.4-1.6-.9c.03.02 0 0 0 0l0 4.5l-2.5 0c0 0-.03-10.15 0-10.1zm2.5 3c0 .3 0 .6.1.7c.2.6.6.8.8.8c.9 0 1.3-1.3 1.3-2.8c0-1.8-.5-2.8-1.2-2.8c-.4 0-.8.4-.9.8c-.1.2-.1.5-.1.7c0 0 0 2.6 0 2.6zm6.1-9.9l2.5 0l0 4.8c0 0 .07.05.1 0c.2-.3.5-.5.8-.7c.3-.3.8-.4 1.3-.4c1.7 0 2.4 1.5 2.4 3.9c-.04-.03 0 5.7 0 5.7l-2.6 0c0 0 .04-5.73 0-5.7c0-1-.1-1.8-.9-1.8c-.4 0-.8.3-1 .9c0 .2-.1.5-.1.7c.03.03 0 5.9 0 5.9l-2.5 0l0-13.3zm8.8 13.3l0-9.4l2.6 0l0 9.4l-2.6 0zm2.6-11.9c0 .8-.6 1.3-1.4 1.3c-.7 0-1.2-.5-1.2-1.3c0-.9.6-1.4 1.3-1.4c.7 0 1.3.5 1.3 1.4zm1.7 5.3c0-1 0-1.9 0-2.8c-.04-.04 2.1 0 2.1 0l.2 1c0 0 .01.04 0 0c.5-.7 1.3-1.2 2.3-1.2c1.8 0 2.5 1.4 2.5 3.5c-.01.04 0 6.1 0 6.1l-2.5 0c0 0-.04-5.91 0-5.9c0-.8-.2-1.6-1-1.6c-.4 0-.7.3-.9.9c-.1.2-.1.5-.1.8c-.04.05 0 5.8 0 5.8l-2.6 0c0 0 .03-6.6 0-6.6z" stroke="none" fill="#000" fill-opacity="0.7"/></g></svg>