<?xml version="1.0" standalone="no"?><!DOCTYPE svg PUBLIC "-//W3C//DTD SVG 1.1//EN" "http://www.w3.org/Graphics/SVG/1.1/DTD/svg11.dtd"><svg xmlns="http://www.w3.org/2000/svg" version="1.1" width="163.5px" height="32.8px" viewBox="0 0 163.5 32.8"><desc>Video 00:16</desc><defs/><g id="Polygon14359"><path d="m4.3 14.3l-4.2-12.9l1.8 0c0 0 1.96 6.35 2 6.4c.5 1.7 1 3.2 1.3 4.7c0 0 .1 0 .1 0c.3-1.4.8-3.1 1.4-4.7c.03-.03 2.2-6.4 2.2-6.4l1.8 0l-4.6 12.9l-1.8 0zm7.4 0l0-9.2l1.7 0l0 9.2l-1.7 0zm1.8-11.8c0 .5-.4 1-1 1c-.6 0-1-.5-1-1c0-.6.4-1.1 1-1.1c.6 0 1 .5 1 1.1zm10.6-1.7c0 0-.05 11.08 0 11.1c0 .8 0 1.7 0 2.4c.03-.05-1.5 0-1.5 0l0-1.6c0 0-.08-.05-.1 0c-.5 1-1.6 1.8-3.1 1.8c-2.2 0-3.9-1.9-3.9-4.7c-.1-3.1 1.9-4.9 4.1-4.9c1.4 0 2.3.6 2.8 1.4c-.04-.05 0 0 0 0l0-5.5l1.7 0zm-1.7 8c0-.2 0-.5-.1-.7c-.2-1.1-1.1-1.9-2.4-1.9c-1.7 0-2.7 1.5-2.7 3.5c0 1.9.9 3.4 2.7 3.4c1.1 0 2.1-.7 2.4-2c.1-.2.1-.4.1-.7c0 0 0-1.6 0-1.6zm5.4 1.2c0 2.2 1.4 3.1 3.1 3.1c1.2 0 2-.2 2.6-.4c0 0 .3 1.2.3 1.2c-.6.2-1.6.6-3.1.6c-2.8 0-4.5-1.9-4.5-4.7c0-2.8 1.6-4.9 4.3-4.9c3 0 3.8 2.6 3.8 4.3c0 .3 0 .6-.1.8c0 0-6.4 0-6.4 0zm4.9-1.2c0-1.1-.5-2.7-2.3-2.7c-1.7 0-2.5 1.5-2.6 2.7c0 0 4.9 0 4.9 0zm12 .8c0 3.4-2.4 4.9-4.6 4.9c-2.5 0-4.4-1.9-4.4-4.8c0-3 2-4.8 4.6-4.8c2.6 0 4.4 1.9 4.4 4.7zm-7.3.1c0 2 1.2 3.5 2.8 3.5c1.6 0 2.8-1.5 2.8-3.6c0-1.5-.8-3.5-2.8-3.5c-1.9 0-2.8 1.8-2.8 3.6zm13.6 6.7l0-15.2l3.5 0l0 1.1l-2.2 0l0 13l2.2 0l0 1.1l-3.5 0zm12.9-8.5c0 4.2-1.6 6.6-4.3 6.6c-2.4 0-4-2.3-4.1-6.4c0-4.1 1.8-6.4 4.3-6.4c2.6 0 4.1 2.3 4.1 6.2zm-6.7.2c0 3.2 1 5.1 2.5 5.1c1.7 0 2.5-2 2.5-5.2c0-3-.7-5-2.5-5c-1.4 0-2.5 1.8-2.5 5.1zm16.5-.2c0 4.2-1.6 6.6-4.3 6.6c-2.4 0-4.1-2.3-4.1-6.4c0-4.1 1.8-6.4 4.3-6.4c2.6 0 4.1 2.3 4.1 6.2zm-6.7.2c0 3.2.9 5.1 2.5 5.1c1.7 0 2.5-2 2.5-5.2c0-3-.8-5-2.5-5c-1.5 0-2.5 1.8-2.5 5.1zm8.3-1.5c0-.7.5-1.2 1.2-1.2c.6 0 1.1.5 1.1 1.2c0 .6-.5 1.2-1.2 1.2c-.6 0-1.1-.6-1.1-1.2zm0 6.7c0-.7.5-1.2 1.2-1.2c.6 0 1.1.5 1.1 1.2c0 .6-.5 1.2-1.2 1.2c-.6 0-1.1-.6-1.1-1.2zm7.4-9.8l0 0l-2.1 1.1l-.4-1.3l2.7-1.4l1.5 0l0 12.4l-1.7 0l0-10.8zm13.2-.4c-.3 0-.8 0-1.2.1c-2.7.4-4.1 2.3-4.3 4.3c0 0 0 0 0 0c.6-.8 1.6-1.4 3-1.4c2.2 0 3.7 1.6 3.7 4c0 2.3-1.5 4.4-4.1 4.4c-2.6 0-4.3-2.1-4.3-5.3c0-2.4.8-4.4 2-5.6c1.1-1 2.4-1.6 4-1.8c.5-.1.9-.1 1.2-.1c0 0 0 1.4 0 1.4zm-.5 7.1c0-1.8-1-2.8-2.5-2.8c-1 0-2 .6-2.4 1.5c-.1.2-.2.4-.2.7c0 2 1 3.6 2.7 3.6c1.5 0 2.4-1.2 2.4-3zm6.2-9l0 15.2l-3.5 0l0-1.1l2.2 0l0-13l-2.2 0l0-1.1l3.5 0z" stroke="none" fill="#fff"/></g></svg>