<?xml version="1.0" standalone="no"?><!DOCTYPE svg PUBLIC "-//W3C//DTD SVG 1.1//EN" "http://www.w3.org/Graphics/SVG/1.1/DTD/svg11.dtd"><svg xmlns="http://www.w3.org/2000/svg" version="1.1" width="93px" height="38.7px" viewBox="0 0 93 38.7"><desc>Tap to plan your visit</desc><defs/><g id="Polygon10458"><path d="m20 18.7c0 0 1.51 4.27 1.5 4.3c.2.4.4 1 .5 1.4c0 0 0 0 0 0c.1-.4.3-.9.5-1.5c-.03.04 1.4-4.2 1.4-4.2l1.4 0c0 0-1.99 5.14-2 5.1c-.9 2.5-1.6 3.7-2.4 4.5c-.7.6-1.3.8-1.6.9c0 0-.4-1.1-.4-1.1c.4-.1.8-.3 1.2-.7c.3-.2.8-.7 1.1-1.4c0-.1.1-.3.1-.3c0-.1-.1-.2-.1-.4c-.03.03-2.7-6.6-2.7-6.6l1.5 0zm12.8 3.6c0 2.6-1.9 3.8-3.6 3.8c-1.9 0-3.4-1.5-3.4-3.7c0-2.4 1.6-3.8 3.5-3.8c2.1 0 3.5 1.5 3.5 3.7zm-5.7 0c0 1.6.9 2.8 2.2 2.8c1.2 0 2.2-1.2 2.2-2.8c0-1.2-.7-2.7-2.2-2.7c-1.5 0-2.2 1.4-2.2 2.7zm13.3 1.6c0 .8 0 1.4.1 2c-.02-.01-1.2 0-1.2 0l0-1.2c0 0-.08.03-.1 0c-.3.6-1.1 1.4-2.3 1.4c-1.2 0-2.5-.7-2.5-3.2c-.02.02 0-4.2 0-4.2l1.3 0c0 0-.02 3.99 0 4c0 1.3.4 2.3 1.6 2.3c.9 0 1.5-.6 1.7-1.2c.1-.2.1-.4.1-.7c.02.01 0-4.4 0-4.4l1.3 0c0 0 .02 5.23 0 5.2zm2.2-2.9c0-.9 0-1.6-.1-2.3c.02.03 1.2 0 1.2 0l0 1.5c0 0 .06-.05.1 0c.3-1 1.1-1.6 2-1.6c.1 0 .2 0 .3 0c0 0 0 1.2 0 1.2c-.1 0-.3 0-.4 0c-.9 0-1.6.7-1.8 1.7c0 .1 0 .4 0 .6c-.02-.02 0 3.8 0 3.8l-1.3 0c0 0-.02-4.93 0-4.9zm8.5-2.3c0 0 1.36 4.04 1.4 4c.2.7.4 1.3.5 1.9c0 0 .1 0 .1 0c.1-.6.4-1.2.6-1.9c-.01.04 1.4-4 1.4-4l1.3 0l-2.8 7.2l-1.2 0l-2.7-7.2l1.4 0zm6.6 7.2l0-7.2l1.3 0l0 7.2l-1.3 0zm1.4-9.2c0 .5-.3.8-.8.8c-.5 0-.8-.3-.8-.8c0-.4.3-.8.8-.8c.5 0 .8.4.8.8zm1.9 7.9c.4.2 1 .5 1.7.5c.9 0 1.4-.5 1.4-1.1c0-.6-.4-.9-1.4-1.3c-1.3-.5-1.9-1.2-1.9-2c0-1.2 1-2.1 2.5-2.1c.7 0 1.4.2 1.8.4c0 0-.4 1-.4 1c-.2-.2-.8-.5-1.4-.5c-.8 0-1.2.5-1.2 1c0 .6.4.9 1.3 1.3c1.3.4 1.9 1 1.9 2.1c0 1.3-1 2.2-2.6 2.2c-.8 0-1.5-.2-2.1-.5c0 0 .4-1 .4-1zm6 1.3l0-7.2l1.3 0l0 7.2l-1.3 0zm1.4-9.2c0 .5-.3.8-.8.8c-.5 0-.8-.3-.8-.8c0-.4.4-.8.8-.8c.5 0 .8.4.8.8zm3.6.3l0 1.7l1.9 0l0 1l-1.9 0c0 0 .03 3.89 0 3.9c0 .9.3 1.4 1 1.4c.4 0 .6-.1.8-.1c0 0 0 1 0 1c-.2.1-.6.2-1.1.2c-.6 0-1.1-.2-1.4-.6c-.4-.4-.5-1-.5-1.9c-.05.04 0-3.9 0-3.9l-1.2 0l0-1l1.2 0l0-1.3l1.2-.4z" stroke="none" fill="#fff"/></g><g id="Polygon10457"><path d="m15.1 2.2l-3 0l0-1.1l7.4 0l0 1.1l-3.1 0l0 8.9l-1.3 0l0-8.9zm9.5 7.2c0 .6.1 1.2.1 1.7c.05 0-1.1 0-1.1 0l-.1-.9c0 0-.07 0-.1 0c-.4.6-1.1 1.1-2.2 1.1c-1.4 0-2.1-1.1-2.1-2.1c0-1.7 1.5-2.7 4.3-2.7c0 0 0-.1 0-.1c0-.6-.2-1.7-1.7-1.7c-.6 0-1.3.2-1.8.6c0 0-.3-.9-.3-.9c.5-.4 1.4-.6 2.3-.6c2.2 0 2.7 1.5 2.7 2.9c0 0 0 2.7 0 2.7zm-1.2-2c-1.4 0-3 .3-3 1.7c0 .8.5 1.2 1.2 1.2c.9 0 1.5-.6 1.7-1.2c.1-.1.1-.3.1-.4c0 0 0-1.3 0-1.3zm3.3-1.1c0-.9 0-1.7 0-2.4c-.01.04 1.1 0 1.1 0l.1 1.3c0 0 .05-.04 0 0c.6-.9 1.4-1.4 2.6-1.4c1.7 0 3 1.5 3 3.6c0 2.6-1.5 3.9-3.2 3.9c-1 0-1.8-.5-2.2-1.2c-.04.04-.1 0-.1 0l0 3.9l-1.3 0c0 0 .05-7.73 0-7.7zm1.3 1.9c0 .2 0 .4.1.5c.2.9 1 1.5 1.9 1.5c1.4 0 2.2-1.1 2.2-2.7c0-1.4-.7-2.7-2.1-2.7c-.9 0-1.7.6-2 1.6c0 .2-.1.4-.1.5c0 0 0 1.3 0 1.3zm11.9-6l0 1.7l1.8 0l0 1l-1.8 0c0 0-.03 3.89 0 3.9c0 .9.2 1.4.9 1.4c.4 0 .6 0 .8-.1c0 0 .1 1 .1 1c-.3.1-.7.2-1.2.2c-.6 0-1.1-.2-1.4-.6c-.4-.4-.5-1-.5-1.9c0 .04 0-3.9 0-3.9l-1.1 0l0-1l1.1 0l0-1.3l1.3-.4zm9.7 5.3c0 2.6-1.9 3.8-3.6 3.8c-1.9 0-3.4-1.5-3.4-3.7c0-2.4 1.6-3.8 3.5-3.8c2.1 0 3.5 1.5 3.5 3.7zm-5.7 0c0 1.6.9 2.8 2.2 2.8c1.2 0 2.2-1.2 2.2-2.8c0-1.2-.6-2.7-2.2-2.7c-1.5 0-2.2 1.4-2.2 2.7zm10.5-1.2c0-.9-.1-1.7-.1-2.4c.02.04 1.2 0 1.2 0l0 1.3c0 0 .07-.04.1 0c.5-.9 1.3-1.4 2.5-1.4c1.8 0 3.1 1.5 3.1 3.6c0 2.6-1.6 3.9-3.3 3.9c-1 0-1.8-.5-2.2-1.2c-.01.04 0 0 0 0l0 3.9l-1.3 0c0 0-.03-7.73 0-7.7zm1.3 1.9c0 .2 0 .4 0 .5c.3.9 1 1.5 2 1.5c1.3 0 2.1-1.1 2.1-2.7c0-1.4-.7-2.7-2.1-2.7c-.9 0-1.7.6-2 1.6c0 .2 0 .4 0 .5c0 0 0 1.3 0 1.3zm7.1-7.6l1.3 0l0 10.5l-1.3 0l0-10.5zm8.5 8.8c0 .6 0 1.2.1 1.7c.02 0-1.1 0-1.1 0l-.2-.9c0 0 0 0 0 0c-.4.6-1.2 1.1-2.2 1.1c-1.4 0-2.2-1.1-2.2-2.1c0-1.7 1.6-2.7 4.3-2.7c0 0 0-.1 0-.1c0-.6-.1-1.7-1.6-1.7c-.7 0-1.4.2-1.9.6c0 0-.3-.9-.3-.9c.6-.4 1.5-.6 2.4-.6c2.2 0 2.7 1.5 2.7 2.9c0 0 0 2.7 0 2.7zm-1.2-2c-1.5 0-3.1.3-3.1 1.7c0 .8.6 1.2 1.2 1.2c1 0 1.6-.6 1.8-1.2c0-.1.1-.3.1-.4c0 0 0-1.3 0-1.3zm3.3-1.5c0-.8 0-1.4 0-2c-.04.04 1.1 0 1.1 0l.1 1.2c0 0 .01.02 0 0c.4-.6 1.2-1.3 2.4-1.3c1 0 2.5.6 2.5 3c.01.04 0 4.3 0 4.3l-1.3 0c0 0 .01-4.13 0-4.1c0-1.2-.4-2.1-1.6-2.1c-.9 0-1.6.6-1.8 1.3c-.1.1-.1.4-.1.6c.02-.01 0 4.3 0 4.3l-1.3 0c0 0 .02-5.23 0-5.2z" stroke="none" fill="#fff"/></g></svg>