<?xml version="1.0" standalone="no"?><!DOCTYPE svg PUBLIC "-//W3C//DTD SVG 1.1//EN" "http://www.w3.org/Graphics/SVG/1.1/DTD/svg11.dtd"><svg xmlns="http://www.w3.org/2000/svg" version="1.1" width="375px" height="89.4px" viewBox="0 0 375 89.4">  <desc>The park is one of the least visited of all of America s national parks The relatively light visitation enhances the</desc>  <defs/>  <g id="Polygon8963">    <path d="M 11.5 68.5 C 11.5 68.5 11.52 68.19 11.5 68.2 C 11.5 67.7 11.6 67.3 11.7 67 C 11.8 66.6 12 65.9 12.8 65.2 C 13.4 64.7 13.9 64.5 14.5 64.4 C 15 64.4 15.4 64.6 15.7 64.9 C 15.8 65.1 15.8 65.3 15.7 65.4 C 15.7 65.6 15.6 65.7 15.5 65.8 C 15.3 65.9 15.2 65.9 15.1 65.7 C 14.8 65.5 14.3 65.2 13.8 65.2 C 13.4 65.2 13.2 65.4 13 65.6 C 12.8 65.9 12.7 66.6 12.7 67.9 C 12.7 67.92 12.7 68.5 12.7 68.5 C 12.7 68.5 14.47 68.52 14.5 68.5 C 14.6 68.7 14.5 69 14.3 69.1 C 14.32 69.11 12.7 69.1 12.7 69.1 C 12.7 69.1 12.7 73.43 12.7 73.4 C 12.7 74.5 12.8 74.6 14 74.7 C 13.99 74.7 14 75.1 14 75.1 L 10.5 75.1 C 10.5 75.1 10.45 74.69 10.5 74.7 C 11.4 74.6 11.5 74.5 11.5 73.5 C 11.52 73.53 11.5 69.1 11.5 69.1 L 10.5 69.1 L 10.4 69 L 10.8 68.5 L 11.5 68.5 Z M 17.3 69.9 C 17.8 69.2 18.4 68.3 19.1 68.3 C 19.7 68.3 20 68.7 20 69.1 C 20 69.4 19.8 69.7 19.5 69.8 C 19.4 69.9 19.2 69.9 19.1 69.8 C 18.9 69.6 18.7 69.5 18.5 69.5 C 18.1 69.5 17.6 69.9 17.3 70.8 C 17.3 70.8 17.3 73.5 17.3 73.5 C 17.3 74.5 17.4 74.6 18.5 74.7 C 18.53 74.69 18.5 75.1 18.5 75.1 L 15.1 75.1 C 15.1 75.1 15.09 74.69 15.1 74.7 C 16 74.6 16.1 74.5 16.1 73.5 C 16.1 73.5 16.1 70.4 16.1 70.4 C 16.1 69.4 16 69.4 15.2 69.2 C 15.2 69.2 15.2 68.9 15.2 68.9 C 15.9 68.8 16.6 68.6 17.3 68.3 C 17.3 68.3 17.3 69.9 17.3 69.9 C 17.3 69.9 17.33 69.93 17.3 69.9 Z M 25.4 75.3 C 25.1 75.3 24.8 75.1 24.7 75 C 24.5 74.8 24.4 74.6 24.3 74.3 C 23.7 74.7 23 75.3 22.5 75.3 C 21.5 75.3 20.7 74.4 20.7 73.4 C 20.7 72.7 21.1 72.2 22 71.9 C 22.9 71.6 24 71.2 24.3 71 C 24.3 71 24.3 70.7 24.3 70.7 C 24.3 69.6 23.8 69 23 69 C 22.7 69 22.5 69.1 22.3 69.3 C 22.1 69.5 22 69.8 21.9 70.3 C 21.8 70.5 21.7 70.6 21.5 70.6 C 21.2 70.6 20.8 70.3 20.8 70 C 20.8 69.8 21 69.6 21.3 69.4 C 21.7 69.1 22.7 68.5 23.5 68.3 C 24 68.3 24.4 68.5 24.8 68.7 C 25.3 69.2 25.4 69.8 25.4 70.6 C 25.4 70.6 25.4 73.4 25.4 73.4 C 25.4 74 25.7 74.3 26 74.3 C 26.1 74.3 26.3 74.2 26.5 74.1 C 26.5 74.1 26.6 74.5 26.6 74.5 C 26.6 74.5 25.37 75.26 25.4 75.3 Z M 24.3 71.5 C 24 71.6 23.2 72 22.9 72.1 C 22.3 72.4 22 72.7 22 73.2 C 22 74 22.6 74.4 23.1 74.4 C 23.5 74.3 24 74.1 24.3 73.8 C 24.3 73.8 24.3 71.5 24.3 71.5 Z M 33.7 68.6 C 33.5 68.9 33.2 69.3 33 69.4 C 33 69.4 32.2 69.4 32.2 69.4 C 32.4 69.7 32.6 70.1 32.6 70.7 C 32.6 72.3 31.3 73.1 30 73.1 C 29.7 73.1 29.5 73 29.2 73 C 29 73.1 28.8 73.4 28.8 73.6 C 28.8 73.9 29 74.2 29.7 74.2 C 30.2 74.2 30.8 74.2 31.3 74.2 C 32.2 74.2 33.4 74.5 33.4 76 C 33.4 77.5 31.7 78.9 29.7 78.9 C 28 78.9 27.1 78 27.1 77.1 C 27.1 76.8 27.2 76.5 27.5 76.3 C 27.8 76 28.3 75.5 28.7 75.2 C 28.2 75 27.8 74.7 27.6 74.4 C 27.5 74.2 27.4 73.9 27.4 73.8 C 28 73.5 28.5 73.1 28.7 72.8 C 28.1 72.6 27.4 71.9 27.4 70.8 C 27.4 69.1 29 68.3 30.1 68.3 C 30.6 68.3 31.1 68.5 31.6 68.7 C 32.3 68.7 33.1 68.6 33.6 68.5 C 33.6 68.5 33.7 68.6 33.7 68.6 Z M 28.7 70.6 C 28.7 71.8 29.3 72.6 30.1 72.6 C 30.8 72.6 31.4 72 31.4 70.8 C 31.4 69.6 30.8 68.8 30 68.8 C 29.3 68.8 28.7 69.4 28.7 70.6 Z M 29 75.6 C 28.6 75.9 28.3 76.3 28.3 76.7 C 28.3 77.6 29.2 78.2 30.3 78.2 C 31.7 78.2 32.4 77.4 32.4 76.5 C 32.4 76 32.2 75.6 31.7 75.4 C 31.4 75.3 30.9 75.2 30.3 75.2 C 29.6 75.2 29.2 75.3 29 75.6 Z M 35 66.3 C 35 65.8 35.4 65.5 35.8 65.5 C 36.2 65.5 36.5 65.8 36.5 66.3 C 36.5 66.7 36.2 67 35.8 67 C 35.4 67 35 66.7 35 66.3 Z M 34.2 75.1 C 34.2 75.1 34.24 74.69 34.2 74.7 C 35.2 74.6 35.3 74.5 35.3 73.5 C 35.3 73.5 35.3 70.4 35.3 70.4 C 35.3 69.5 35.2 69.4 34.3 69.3 C 34.3 69.3 34.3 68.9 34.3 68.9 C 35.1 68.8 35.8 68.6 36.5 68.3 C 36.5 68.3 36.5 73.5 36.5 73.5 C 36.5 74.5 36.6 74.6 37.5 74.7 C 37.54 74.69 37.5 75.1 37.5 75.1 L 34.2 75.1 Z M 38.1 75.1 C 38.1 75.1 38.08 74.69 38.1 74.7 C 39 74.6 39.2 74.5 39.2 73.5 C 39.2 73.5 39.2 66.4 39.2 66.4 C 39.2 65.4 39.1 65.4 38.1 65.3 C 38.1 65.3 38.1 64.9 38.1 64.9 C 38.9 64.8 39.8 64.6 40.3 64.4 C 40.3 64.4 40.3 73.5 40.3 73.5 C 40.3 74.5 40.5 74.6 41.4 74.7 C 41.42 74.69 41.4 75.1 41.4 75.1 L 38.1 75.1 Z M 47.6 73.8 C 46.6 75 45.6 75.3 45.1 75.3 C 43.3 75.3 42.2 73.8 42.2 72.1 C 42.2 71 42.6 70.1 43.2 69.4 C 43.8 68.7 44.6 68.3 45.4 68.3 C 46.6 68.3 47.6 69.5 47.6 70.6 C 47.6 70.9 47.6 71 47.3 71.1 C 47 71.1 45.2 71.3 43.4 71.4 C 43.4 73.4 44.6 74.2 45.6 74.2 C 46.2 74.2 46.8 74 47.3 73.5 C 47.3 73.5 47.6 73.8 47.6 73.8 Z M 43.5 70.7 C 44.3 70.7 45.1 70.7 46 70.7 C 46.3 70.7 46.4 70.6 46.4 70.4 C 46.4 69.6 45.9 68.9 45 68.9 C 44.3 68.9 43.7 69.5 43.5 70.7 Z M 54.2 69.9 C 54.6 69.2 55.3 68.3 56 68.3 C 56.5 68.3 56.9 68.7 56.9 69.1 C 56.9 69.4 56.7 69.7 56.4 69.8 C 56.2 69.9 56.1 69.9 56 69.8 C 55.8 69.6 55.6 69.5 55.3 69.5 C 55 69.5 54.5 69.9 54.1 70.8 C 54.1 70.8 54.1 73.5 54.1 73.5 C 54.1 74.5 54.2 74.6 55.4 74.7 C 55.37 74.69 55.4 75.1 55.4 75.1 L 51.9 75.1 C 51.9 75.1 51.92 74.69 51.9 74.7 C 52.9 74.6 53 74.5 53 73.5 C 53 73.5 53 70.4 53 70.4 C 53 69.4 52.9 69.4 52 69.2 C 52 69.2 52 68.9 52 68.9 C 52.8 68.8 53.4 68.6 54.1 68.3 C 54.14 68.3 54.1 69.9 54.1 69.9 C 54.1 69.9 54.17 69.93 54.2 69.9 Z M 62.7 73.8 C 61.8 75 60.7 75.3 60.3 75.3 C 58.4 75.3 57.4 73.8 57.4 72.1 C 57.4 71 57.7 70.1 58.3 69.4 C 59 68.7 59.8 68.3 60.5 68.3 C 61.8 68.3 62.8 69.5 62.8 70.6 C 62.8 70.9 62.7 71 62.5 71.1 C 62.2 71.1 60.3 71.3 58.5 71.4 C 58.6 73.4 59.7 74.2 60.8 74.2 C 61.4 74.2 61.9 74 62.5 73.5 C 62.5 73.5 62.7 73.8 62.7 73.8 Z M 58.6 70.7 C 59.5 70.7 60.3 70.7 61.1 70.7 C 61.4 70.7 61.5 70.6 61.5 70.4 C 61.5 69.6 61 68.9 60.2 68.9 C 59.5 68.9 58.8 69.5 58.6 70.7 Z M 67.6 70.3 C 67.3 69.4 66.8 68.8 66 68.8 C 65.5 68.8 65.1 69.3 65.1 69.8 C 65.1 70.5 65.7 70.9 66.3 71.1 C 67.5 71.6 68.2 72.2 68.2 73.2 C 68.2 74.6 67 75.3 65.8 75.3 C 65 75.3 64.3 75 64 74.7 C 63.9 74.5 63.8 73.5 63.8 73 C 63.8 73 64.2 72.9 64.2 72.9 C 64.4 73.9 65.1 74.8 66 74.8 C 66.6 74.8 67.1 74.3 67.1 73.7 C 67.1 73.1 66.7 72.7 65.9 72.3 C 65 71.9 64 71.4 64 70.3 C 64 69.2 64.9 68.3 66.3 68.3 C 66.9 68.3 67.3 68.5 67.6 68.6 C 67.8 68.9 67.9 69.8 68 70.2 C 68 70.2 67.6 70.3 67.6 70.3 Z M 75.9 71.7 C 75.9 74.1 74.1 75.3 72.6 75.3 C 70.6 75.3 69.4 73.6 69.4 71.9 C 69.4 69.5 71.3 68.3 72.6 68.3 C 74.5 68.3 75.9 69.8 75.9 71.7 Z M 70.7 71.5 C 70.7 73.4 71.6 74.8 72.8 74.8 C 73.7 74.8 74.5 74.1 74.5 72 C 74.5 70.3 73.8 68.8 72.5 68.8 C 71.6 68.8 70.7 69.8 70.7 71.5 Z M 84.1 74.7 C 83.4 74.8 82.6 75 81.8 75.3 C 81.85 75.26 81.8 75.2 81.8 75.2 C 81.8 75.2 81.76 74.1 81.8 74.1 C 81.4 74.4 81.1 74.6 80.6 74.9 C 80.2 75.1 79.9 75.3 79.5 75.3 C 78.5 75.3 77.6 74.6 77.6 73 C 77.6 73 77.6 70.1 77.6 70.1 C 77.6 69.3 77.6 69.2 76.7 69 C 76.7 69 76.7 68.7 76.7 68.7 C 77.4 68.6 78.1 68.6 78.9 68.4 C 78.8 68.9 78.8 69.6 78.8 70.6 C 78.8 70.6 78.8 72.6 78.8 72.6 C 78.8 74 79.5 74.3 80.1 74.3 C 80.7 74.3 81.2 74.1 81.8 73.6 C 81.8 73.6 81.8 70.1 81.8 70.1 C 81.8 69.2 81.7 69.2 80.6 69 C 80.6 69 80.6 68.7 80.6 68.7 C 81.4 68.6 82.1 68.6 82.9 68.4 C 82.9 68.4 82.9 73.4 82.9 73.4 C 82.9 74.2 83.1 74.3 83.6 74.3 C 83.63 74.31 84.1 74.3 84.1 74.3 C 84.1 74.3 84.05 74.72 84.1 74.7 Z M 87 69.9 C 87.4 69.2 88.1 68.3 88.8 68.3 C 89.3 68.3 89.7 68.7 89.7 69.1 C 89.7 69.4 89.5 69.7 89.2 69.8 C 89 69.9 88.9 69.9 88.8 69.8 C 88.6 69.6 88.4 69.5 88.2 69.5 C 87.8 69.5 87.3 69.9 87 70.8 C 87 70.8 87 73.5 87 73.5 C 87 74.5 87 74.6 88.2 74.7 C 88.19 74.69 88.2 75.1 88.2 75.1 L 84.7 75.1 C 84.7 75.1 84.74 74.69 84.7 74.7 C 85.7 74.6 85.8 74.5 85.8 73.5 C 85.8 73.5 85.8 70.4 85.8 70.4 C 85.8 69.4 85.7 69.4 84.8 69.2 C 84.8 69.2 84.8 68.9 84.8 68.9 C 85.6 68.8 86.2 68.6 87 68.3 C 86.96 68.3 87 69.9 87 69.9 C 87 69.9 86.99 69.93 87 69.9 Z M 95.7 73.7 C 95.1 74.6 94.1 75.3 93.2 75.3 C 91.3 75.3 90.2 73.7 90.2 72.1 C 90.2 71 90.7 70 91.7 69.2 C 92.5 68.6 93.4 68.3 94 68.3 C 94.6 68.3 95 68.5 95.3 68.7 C 95.5 68.9 95.5 69 95.5 69.2 C 95.5 69.5 95.2 69.8 95 69.8 C 95 69.8 94.9 69.8 94.7 69.7 C 94.3 69.3 93.8 69.1 93.2 69.1 C 92.3 69.1 91.4 69.9 91.4 71.5 C 91.4 73.5 92.8 74.2 93.7 74.2 C 94.3 74.2 94.8 74.1 95.5 73.4 C 95.5 73.4 95.7 73.7 95.7 73.7 Z M 101.9 73.8 C 100.9 75 99.9 75.3 99.4 75.3 C 97.6 75.3 96.5 73.8 96.5 72.1 C 96.5 71 96.9 70.1 97.5 69.4 C 98.1 68.7 98.9 68.3 99.7 68.3 C 101 68.3 102 69.5 102 70.6 C 102 70.9 101.9 71 101.6 71.1 C 101.4 71.1 99.5 71.3 97.7 71.4 C 97.7 73.4 98.9 74.2 99.9 74.2 C 100.5 74.2 101.1 74 101.6 73.5 C 101.6 73.5 101.9 73.8 101.9 73.8 Z M 97.8 70.7 C 98.6 70.7 99.4 70.7 100.3 70.7 C 100.6 70.7 100.7 70.6 100.7 70.4 C 100.7 69.6 100.2 68.9 99.4 68.9 C 98.7 68.9 98 69.5 97.8 70.7 Z M 106.7 70.3 C 106.5 69.4 105.9 68.8 105.2 68.8 C 104.6 68.8 104.2 69.3 104.2 69.8 C 104.2 70.5 104.8 70.9 105.5 71.1 C 106.6 71.6 107.4 72.2 107.4 73.2 C 107.4 74.6 106.1 75.3 104.9 75.3 C 104.2 75.3 103.5 75 103.2 74.7 C 103.1 74.5 103 73.5 103 73 C 103 73 103.3 72.9 103.3 72.9 C 103.6 73.9 104.3 74.8 105.2 74.8 C 105.7 74.8 106.3 74.3 106.3 73.7 C 106.3 73.1 105.8 72.7 105.1 72.3 C 104.2 71.9 103.2 71.4 103.2 70.3 C 103.2 69.2 104.1 68.3 105.5 68.3 C 106.1 68.3 106.5 68.5 106.8 68.6 C 106.9 68.9 107.1 69.8 107.1 70.2 C 107.1 70.2 106.7 70.3 106.7 70.3 Z M 108.7 74.4 C 108.7 73.9 109.1 73.5 109.6 73.5 C 110 73.5 110.4 73.9 110.4 74.4 C 110.4 74.9 110 75.3 109.6 75.3 C 109.1 75.3 108.7 74.9 108.7 74.4 Z " stroke="none" fill="#000"/>  </g>  <g id="Polygon8962">    <path d="M 172.2 57.3 C 172 57.3 171.7 57.1 171.5 57 C 171.3 56.8 171.2 56.6 171.1 56.3 C 170.5 56.7 169.8 57.3 169.4 57.3 C 168.3 57.3 167.6 56.4 167.6 55.4 C 167.6 54.7 167.9 54.2 168.8 53.9 C 169.7 53.6 170.8 53.2 171.1 53 C 171.1 53 171.1 52.7 171.1 52.7 C 171.1 51.6 170.6 51 169.8 51 C 169.5 51 169.3 51.1 169.2 51.3 C 169 51.5 168.8 51.8 168.7 52.3 C 168.7 52.5 168.5 52.6 168.3 52.6 C 168 52.6 167.6 52.3 167.6 52 C 167.6 51.8 167.8 51.6 168.1 51.4 C 168.5 51.1 169.5 50.5 170.3 50.3 C 170.8 50.3 171.2 50.5 171.6 50.7 C 172.1 51.2 172.3 51.8 172.3 52.6 C 172.3 52.6 172.3 55.4 172.3 55.4 C 172.3 56 172.5 56.3 172.8 56.3 C 173 56.3 173.2 56.2 173.3 56.1 C 173.32 56.1 173.5 56.5 173.5 56.5 C 173.5 56.5 172.19 57.26 172.2 57.3 Z M 171.1 53.5 C 170.8 53.6 170.1 54 169.7 54.1 C 169.2 54.4 168.8 54.7 168.8 55.2 C 168.8 56 169.4 56.4 169.9 56.4 C 170.3 56.3 170.8 56.1 171.1 55.8 C 171.1 55.8 171.1 53.5 171.1 53.5 Z M 178.1 57.1 C 178.1 57.1 178.15 56.69 178.1 56.7 C 179 56.6 179.1 56.5 179.1 55.4 C 179.1 55.4 179.1 52.9 179.1 52.9 C 179.1 51.9 178.8 51.2 177.8 51.2 C 177.2 51.2 176.6 51.6 176.1 52 C 176.1 52 176.1 55.5 176.1 55.5 C 176.1 56.5 176.2 56.6 177.1 56.7 C 177.11 56.69 177.1 57.1 177.1 57.1 L 173.9 57.1 C 173.9 57.1 173.86 56.69 173.9 56.7 C 174.9 56.6 175 56.5 175 55.5 C 175 55.5 175 52.4 175 52.4 C 175 51.5 174.9 51.4 174.1 51.3 C 174.1 51.3 174.1 50.9 174.1 50.9 C 174.8 50.8 175.5 50.6 176.1 50.3 C 176.1 50.3 176.1 51.5 176.1 51.5 C 176.4 51.3 176.8 51 177.1 50.8 C 177.6 50.5 178 50.3 178.4 50.3 C 179.6 50.3 180.3 51.2 180.3 52.6 C 180.3 52.6 180.3 55.5 180.3 55.5 C 180.3 56.5 180.4 56.6 181.3 56.7 C 181.27 56.69 181.3 57.1 181.3 57.1 L 178.1 57.1 Z M 189.3 56.7 C 189 56.7 187.9 56.9 187 57.3 C 187 57.26 187 56.3 187 56.3 C 187 56.3 186.08 56.82 186.1 56.8 C 185.5 57.2 185.1 57.3 184.9 57.3 C 183.7 57.3 182.1 56.2 182.1 54.1 C 182.1 52 184 50.3 186 50.3 C 186.2 50.3 186.7 50.4 187 50.5 C 187 50.5 187 48.4 187 48.4 C 187 47.4 186.9 47.4 185.8 47.3 C 185.8 47.3 185.8 46.9 185.8 46.9 C 186.6 46.8 187.6 46.6 188.2 46.4 C 188.2 46.4 188.2 55.4 188.2 55.4 C 188.2 56.1 188.3 56.2 188.8 56.3 C 188.84 56.27 189.3 56.3 189.3 56.3 C 189.3 56.3 189.32 56.69 189.3 56.7 Z M 187 51.7 C 186.6 51.1 186 50.9 185.5 50.9 C 184.8 50.9 183.5 51.5 183.5 53.7 C 183.5 55.4 184.6 56.3 185.6 56.3 C 186.1 56.3 186.6 56.1 187 55.8 C 187 55.8 187 51.7 187 51.7 Z M 198.1 57.3 C 197.9 57.3 197.6 57.1 197.4 57 C 197.2 56.8 197.1 56.6 197 56.3 C 196.4 56.7 195.7 57.3 195.3 57.3 C 194.2 57.3 193.5 56.4 193.5 55.4 C 193.5 54.7 193.9 54.2 194.7 53.9 C 195.6 53.6 196.7 53.2 197 53 C 197 53 197 52.7 197 52.7 C 197 51.6 196.5 51 195.8 51 C 195.5 51 195.2 51.1 195.1 51.3 C 194.9 51.5 194.8 51.8 194.6 52.3 C 194.6 52.5 194.4 52.6 194.2 52.6 C 193.9 52.6 193.5 52.3 193.5 52 C 193.5 51.8 193.7 51.6 194 51.4 C 194.4 51.1 195.4 50.5 196.3 50.3 C 196.7 50.3 197.2 50.5 197.5 50.7 C 198 51.2 198.2 51.8 198.2 52.6 C 198.2 52.6 198.2 55.4 198.2 55.4 C 198.2 56 198.4 56.3 198.7 56.3 C 198.9 56.3 199.1 56.2 199.2 56.1 C 199.24 56.1 199.4 56.5 199.4 56.5 C 199.4 56.5 198.11 57.26 198.1 57.3 Z M 197 53.5 C 196.7 53.6 196 54 195.7 54.1 C 195.1 54.4 194.8 54.7 194.8 55.2 C 194.8 56 195.4 56.4 195.8 56.4 C 196.2 56.3 196.7 56.1 197 55.8 C 197 55.8 197 53.5 197 53.5 Z M 203.8 52.3 C 203.6 51.4 203 50.8 202.3 50.8 C 201.7 50.8 201.3 51.3 201.3 51.8 C 201.3 52.5 201.9 52.9 202.6 53.1 C 203.7 53.6 204.5 54.2 204.5 55.2 C 204.5 56.6 203.2 57.3 202 57.3 C 201.2 57.3 200.6 57 200.3 56.7 C 200.2 56.5 200 55.5 200 55 C 200 55 200.4 54.9 200.4 54.9 C 200.7 55.9 201.4 56.8 202.3 56.8 C 202.8 56.8 203.3 56.3 203.3 55.7 C 203.3 55.1 202.9 54.7 202.2 54.3 C 201.3 53.9 200.3 53.4 200.3 52.3 C 200.3 51.2 201.2 50.3 202.6 50.3 C 203.2 50.3 203.6 50.5 203.9 50.6 C 204 50.9 204.2 51.8 204.2 52.2 C 204.2 52.2 203.8 52.3 203.8 52.3 Z M 209.3 52.3 C 209 51.4 208.5 50.8 207.7 50.8 C 207.2 50.8 206.8 51.3 206.8 51.8 C 206.8 52.5 207.4 52.9 208 53.1 C 209.2 53.6 209.9 54.2 209.9 55.2 C 209.9 56.6 208.6 57.3 207.4 57.3 C 206.7 57.3 206 57 205.7 56.7 C 205.6 56.5 205.5 55.5 205.5 55 C 205.5 55 205.9 54.9 205.9 54.9 C 206.1 55.9 206.8 56.8 207.7 56.8 C 208.3 56.8 208.8 56.3 208.8 55.7 C 208.8 55.1 208.3 54.7 207.6 54.3 C 206.7 53.9 205.7 53.4 205.7 52.3 C 205.7 51.2 206.6 50.3 208 50.3 C 208.6 50.3 209 50.5 209.3 50.6 C 209.5 50.9 209.6 51.8 209.7 52.2 C 209.7 52.2 209.3 52.3 209.3 52.3 Z M 211.6 48.3 C 211.6 47.8 212 47.5 212.4 47.5 C 212.8 47.5 213.2 47.8 213.2 48.3 C 213.2 48.7 212.8 49 212.4 49 C 212 49 211.6 48.7 211.6 48.3 Z M 210.8 57.1 C 210.8 57.1 210.85 56.69 210.8 56.7 C 211.8 56.6 211.9 56.5 211.9 55.5 C 211.9 55.5 211.9 52.4 211.9 52.4 C 211.9 51.5 211.9 51.4 211 51.3 C 211 51.3 211 50.9 211 50.9 C 211.7 50.8 212.4 50.6 213.1 50.3 C 213.1 50.3 213.1 55.5 213.1 55.5 C 213.1 56.5 213.2 56.6 214.1 56.7 C 214.15 56.69 214.1 57.1 214.1 57.1 L 210.8 57.1 Z M 218.8 52.3 C 218.5 51.4 217.9 50.8 217.2 50.8 C 216.6 50.8 216.2 51.3 216.2 51.8 C 216.2 52.5 216.8 52.9 217.5 53.1 C 218.6 53.6 219.4 54.2 219.4 55.2 C 219.4 56.6 218.1 57.3 216.9 57.3 C 216.2 57.3 215.5 57 215.2 56.7 C 215.1 56.5 215 55.5 215 55 C 215 55 215.3 54.9 215.3 54.9 C 215.6 55.9 216.3 56.8 217.2 56.8 C 217.7 56.8 218.3 56.3 218.3 55.7 C 218.3 55.1 217.8 54.7 217.1 54.3 C 216.2 53.9 215.2 53.4 215.2 52.3 C 215.2 51.2 216.1 50.3 217.5 50.3 C 218.1 50.3 218.5 50.5 218.8 50.6 C 218.9 50.9 219.1 51.8 219.1 52.2 C 219.1 52.2 218.8 52.3 218.8 52.3 Z M 223.2 57.1 C 223 57.2 222.7 57.3 222.6 57.3 C 221.6 57.3 221.1 56.7 221.1 55.5 C 221.12 55.47 221.1 51.1 221.1 51.1 L 220.1 51.1 L 220 51 L 220.4 50.5 L 221.1 50.5 L 221.1 49.4 L 222.1 48.4 L 222.3 48.5 L 222.3 50.5 C 222.3 50.5 224 50.52 224 50.5 C 224.1 50.7 224.1 51 223.9 51.1 C 223.91 51.11 222.3 51.1 222.3 51.1 C 222.3 51.1 222.31 54.96 222.3 55 C 222.3 56.2 222.8 56.4 223.2 56.4 C 223.6 56.4 223.9 56.3 224.1 56.1 C 224.11 56.15 224.2 56.5 224.2 56.5 C 224.2 56.5 223.22 57.06 223.2 57.1 Z M 228.8 52.3 C 228.5 51.4 227.9 50.8 227.2 50.8 C 226.6 50.8 226.2 51.3 226.2 51.8 C 226.2 52.5 226.8 52.9 227.5 53.1 C 228.6 53.6 229.4 54.2 229.4 55.2 C 229.4 56.6 228.1 57.3 226.9 57.3 C 226.2 57.3 225.5 57 225.2 56.7 C 225.1 56.5 225 55.5 225 55 C 225 55 225.4 54.9 225.4 54.9 C 225.6 55.9 226.3 56.8 227.2 56.8 C 227.8 56.8 228.3 56.3 228.3 55.7 C 228.3 55.1 227.8 54.7 227.1 54.3 C 226.2 53.9 225.2 53.4 225.2 52.3 C 225.2 51.2 226.1 50.3 227.5 50.3 C 228.1 50.3 228.5 50.5 228.8 50.6 C 228.9 50.9 229.1 51.8 229.1 52.2 C 229.1 52.2 228.8 52.3 228.8 52.3 Z M 234.5 48.3 C 234.5 47.8 234.9 47.5 235.3 47.5 C 235.7 47.5 236 47.8 236 48.3 C 236 48.7 235.7 49 235.3 49 C 234.9 49 234.5 48.7 234.5 48.3 Z M 233.7 57.1 C 233.7 57.1 233.74 56.69 233.7 56.7 C 234.7 56.6 234.8 56.5 234.8 55.5 C 234.8 55.5 234.8 52.4 234.8 52.4 C 234.8 51.5 234.7 51.4 233.8 51.3 C 233.8 51.3 233.8 50.9 233.8 50.9 C 234.6 50.8 235.3 50.6 236 50.3 C 236 50.3 236 55.5 236 55.5 C 236 56.5 236.1 56.6 237 56.7 C 237.04 56.69 237 57.1 237 57.1 L 233.7 57.1 Z M 242 57.1 C 242 57.1 242 56.69 242 56.7 C 242.9 56.6 243 56.5 243 55.4 C 243 55.4 243 52.9 243 52.9 C 243 51.9 242.6 51.2 241.6 51.2 C 241 51.2 240.4 51.6 240 52 C 240 52 240 55.5 240 55.5 C 240 56.5 240.1 56.6 241 56.7 C 240.97 56.69 241 57.1 241 57.1 L 237.7 57.1 C 237.7 57.1 237.71 56.69 237.7 56.7 C 238.7 56.6 238.8 56.5 238.8 55.5 C 238.8 55.5 238.8 52.4 238.8 52.4 C 238.8 51.5 238.7 51.4 237.9 51.3 C 237.9 51.3 237.9 50.9 237.9 50.9 C 238.6 50.8 239.3 50.6 240 50.3 C 240 50.3 240 51.5 240 51.5 C 240.3 51.3 240.6 51 241 50.8 C 241.4 50.5 241.8 50.3 242.2 50.3 C 243.4 50.3 244.2 51.2 244.2 52.6 C 244.2 52.6 244.2 55.5 244.2 55.5 C 244.2 56.5 244.3 56.6 245.1 56.7 C 245.12 56.69 245.1 57.1 245.1 57.1 L 242 57.1 Z M 252.3 57.1 C 252.1 57.2 251.8 57.3 251.7 57.3 C 250.8 57.3 250.2 56.7 250.2 55.5 C 250.24 55.47 250.2 51.1 250.2 51.1 L 249.2 51.1 L 249.1 51 L 249.5 50.5 L 250.2 50.5 L 250.2 49.4 L 251.2 48.4 L 251.4 48.5 L 251.4 50.5 C 251.4 50.5 253.12 50.52 253.1 50.5 C 253.3 50.7 253.2 51 253 51.1 C 253.03 51.11 251.4 51.1 251.4 51.1 C 251.4 51.1 251.42 54.96 251.4 55 C 251.4 56.2 251.9 56.4 252.3 56.4 C 252.7 56.4 253 56.3 253.2 56.1 C 253.22 56.15 253.4 56.5 253.4 56.5 C 253.4 56.5 252.34 57.06 252.3 57.1 Z M 258.1 57.1 C 258.1 57.1 258.08 56.69 258.1 56.7 C 259 56.6 259.1 56.5 259.1 55.5 C 259.1 55.5 259.1 53 259.1 53 C 259.1 51.8 258.6 51.2 257.6 51.2 C 257 51.2 256.5 51.5 256 52 C 256 52 256 55.5 256 55.5 C 256 56.5 256.1 56.6 257 56.7 C 257 56.69 257 57.1 257 57.1 L 253.8 57.1 C 253.8 57.1 253.82 56.69 253.8 56.7 C 254.7 56.6 254.9 56.5 254.9 55.5 C 254.9 55.5 254.9 48.4 254.9 48.4 C 254.9 47.4 254.8 47.4 253.8 47.3 C 253.8 47.3 253.8 46.9 253.8 46.9 C 254.6 46.8 255.5 46.6 256 46.4 C 256 46.4 256 51.4 256 51.4 C 256.6 50.9 257.4 50.3 258.2 50.3 C 259.4 50.3 260.3 51.1 260.3 52.9 C 260.3 52.9 260.3 55.5 260.3 55.5 C 260.3 56.5 260.4 56.6 261.2 56.7 C 261.25 56.69 261.2 57.1 261.2 57.1 L 258.1 57.1 Z M 267.4 55.8 C 266.5 57 265.4 57.3 265 57.3 C 263.1 57.3 262.1 55.8 262.1 54.1 C 262.1 53 262.4 52.1 263 51.4 C 263.7 50.7 264.5 50.3 265.3 50.3 C 266.5 50.3 267.5 51.5 267.5 52.6 C 267.5 52.9 267.4 53 267.2 53.1 C 266.9 53.1 265 53.3 263.2 53.4 C 263.3 55.4 264.4 56.2 265.5 56.2 C 266.1 56.2 266.6 56 267.2 55.5 C 267.2 55.5 267.4 55.8 267.4 55.8 Z M 263.3 52.7 C 264.2 52.7 265 52.7 265.9 52.7 C 266.1 52.7 266.2 52.6 266.2 52.4 C 266.2 51.6 265.7 50.9 264.9 50.9 C 264.2 50.9 263.5 51.5 263.3 52.7 Z M 275.2 50.6 C 275.5 50.4 275.8 50.3 275.9 50.3 C 277.6 50.3 278.6 51.7 278.6 53.2 C 278.6 55.4 276.8 56.9 274.9 57.3 C 274.4 57.2 274 57.1 273.8 57 C 273.8 57 273.8 59 273.8 59 C 273.8 60.1 273.9 60.2 275.1 60.3 C 275.09 60.27 275.1 60.7 275.1 60.7 L 271.5 60.7 C 271.5 60.7 271.54 60.27 271.5 60.3 C 272.5 60.2 272.6 60.1 272.6 59.1 C 272.6 59.1 272.6 52.3 272.6 52.3 C 272.6 51.3 272.6 51.3 271.6 51.2 C 271.6 51.2 271.6 50.8 271.6 50.8 C 272.3 50.7 273.1 50.5 273.8 50.2 C 273.82 50.19 273.8 51.4 273.8 51.4 C 273.8 51.4 275.2 50.57 275.2 50.6 Z M 273.8 55.9 C 274.1 56.3 274.7 56.5 275.2 56.5 C 276.5 56.5 277.3 55.4 277.3 53.7 C 277.3 52.1 276.4 51.2 275.3 51.2 C 274.8 51.2 274.2 51.6 273.8 51.9 C 273.8 51.9 273.8 55.9 273.8 55.9 Z M 281.7 51.9 C 282.2 51.2 282.8 50.3 283.5 50.3 C 284 50.3 284.4 50.7 284.4 51.1 C 284.4 51.4 284.2 51.7 283.9 51.8 C 283.7 51.9 283.6 51.9 283.5 51.8 C 283.3 51.6 283.1 51.5 282.9 51.5 C 282.5 51.5 282 51.9 281.7 52.8 C 281.7 52.8 281.7 55.5 281.7 55.5 C 281.7 56.5 281.7 56.6 282.9 56.7 C 282.9 56.69 282.9 57.1 282.9 57.1 L 279.5 57.1 C 279.5 57.1 279.46 56.69 279.5 56.7 C 280.4 56.6 280.5 56.5 280.5 55.5 C 280.5 55.5 280.5 52.4 280.5 52.4 C 280.5 51.4 280.4 51.4 279.6 51.2 C 279.6 51.2 279.6 50.9 279.6 50.9 C 280.3 50.8 281 50.6 281.7 50.3 C 281.67 50.3 281.7 51.9 281.7 51.9 C 281.7 51.9 281.7 51.93 281.7 51.9 Z M 291.4 53.7 C 291.4 56.1 289.7 57.3 288.2 57.3 C 286.1 57.3 284.9 55.6 284.9 53.9 C 284.9 51.5 286.8 50.3 288.2 50.3 C 290 50.3 291.4 51.8 291.4 53.7 Z M 286.3 53.5 C 286.3 55.4 287.1 56.8 288.3 56.8 C 289.3 56.8 290 56.1 290 54 C 290 52.3 289.3 50.8 288 50.8 C 287.1 50.8 286.3 51.8 286.3 53.5 Z M 295.3 57.1 C 295 57.2 294.8 57.3 294.6 57.3 C 293.7 57.3 293.2 56.7 293.2 55.5 C 293.17 55.47 293.2 51.1 293.2 51.1 L 292.1 51.1 L 292.1 51 L 292.5 50.5 L 293.2 50.5 L 293.2 49.4 L 294.1 48.4 L 294.4 48.5 L 294.4 50.5 C 294.4 50.5 296.05 50.52 296 50.5 C 296.2 50.7 296.1 51 296 51.1 C 295.96 51.11 294.4 51.1 294.4 51.1 C 294.4 51.1 294.35 54.96 294.4 55 C 294.4 56.2 294.8 56.4 295.2 56.4 C 295.6 56.4 295.9 56.3 296.2 56.1 C 296.15 56.15 296.3 56.5 296.3 56.5 C 296.3 56.5 295.27 57.06 295.3 57.1 Z M 302.2 55.8 C 301.3 57 300.2 57.3 299.8 57.3 C 297.9 57.3 296.9 55.8 296.9 54.1 C 296.9 53 297.2 52.1 297.8 51.4 C 298.5 50.7 299.3 50.3 300.1 50.3 C 301.3 50.3 302.3 51.5 302.3 52.6 C 302.3 52.9 302.2 53 302 53.1 C 301.7 53.1 299.8 53.3 298 53.4 C 298.1 55.4 299.2 56.2 300.3 56.2 C 300.9 56.2 301.4 56 302 55.5 C 302 55.5 302.2 55.8 302.2 55.8 Z M 298.1 52.7 C 299 52.7 299.8 52.7 300.7 52.7 C 300.9 52.7 301 52.6 301 52.4 C 301 51.6 300.5 50.9 299.7 50.9 C 299 50.9 298.3 51.5 298.1 52.7 Z M 308.9 55.7 C 308.2 56.6 307.2 57.3 306.3 57.3 C 304.4 57.3 303.3 55.7 303.3 54.1 C 303.3 53 303.8 52 304.8 51.2 C 305.6 50.6 306.5 50.3 307.1 50.3 C 307.7 50.3 308.2 50.5 308.4 50.7 C 308.6 50.9 308.7 51 308.7 51.2 C 308.7 51.5 308.3 51.8 308.2 51.8 C 308.1 51.8 308 51.8 307.9 51.7 C 307.4 51.3 306.9 51.1 306.4 51.1 C 305.4 51.1 304.5 51.9 304.5 53.5 C 304.5 55.5 305.9 56.2 306.8 56.2 C 307.4 56.2 307.9 56.1 308.6 55.4 C 308.6 55.4 308.9 55.7 308.9 55.7 Z M 312.6 57.1 C 312.4 57.2 312.2 57.3 312 57.3 C 311.1 57.3 310.6 56.7 310.6 55.5 C 310.55 55.47 310.6 51.1 310.6 51.1 L 309.5 51.1 L 309.5 51 L 309.9 50.5 L 310.6 50.5 L 310.6 49.4 L 311.5 48.4 L 311.7 48.5 L 311.7 50.5 C 311.7 50.5 313.43 50.52 313.4 50.5 C 313.6 50.7 313.5 51 313.3 51.1 C 313.34 51.11 311.7 51.1 311.7 51.1 C 311.7 51.1 311.73 54.96 311.7 55 C 311.7 56.2 312.2 56.4 312.6 56.4 C 313 56.4 313.3 56.3 313.5 56.1 C 313.53 56.15 313.7 56.5 313.7 56.5 C 313.7 56.5 312.65 57.06 312.6 57.1 Z M 315.1 48.3 C 315.1 47.8 315.5 47.5 315.9 47.5 C 316.3 47.5 316.6 47.8 316.6 48.3 C 316.6 48.7 316.3 49 315.9 49 C 315.5 49 315.1 48.7 315.1 48.3 Z M 314.3 57.1 C 314.3 57.1 314.33 56.69 314.3 56.7 C 315.3 56.6 315.4 56.5 315.4 55.5 C 315.4 55.5 315.4 52.4 315.4 52.4 C 315.4 51.5 315.3 51.4 314.4 51.3 C 314.4 51.3 314.4 50.9 314.4 50.9 C 315.2 50.8 315.9 50.6 316.6 50.3 C 316.6 50.3 316.6 55.5 316.6 55.5 C 316.6 56.5 316.7 56.6 317.6 56.7 C 317.63 56.69 317.6 57.1 317.6 57.1 L 314.3 57.1 Z M 325 53.7 C 325 56.1 323.2 57.3 321.7 57.3 C 319.7 57.3 318.4 55.6 318.4 53.9 C 318.4 51.5 320.3 50.3 321.7 50.3 C 323.6 50.3 325 51.8 325 53.7 Z M 319.8 53.5 C 319.8 55.4 320.6 56.8 321.9 56.8 C 322.8 56.8 323.6 56.1 323.6 54 C 323.6 52.3 322.9 50.8 321.6 50.8 C 320.6 50.8 319.8 51.8 319.8 53.5 Z M 330.1 57.1 C 330.1 57.1 330.07 56.69 330.1 56.7 C 331 56.6 331.1 56.5 331.1 55.4 C 331.1 55.4 331.1 52.9 331.1 52.9 C 331.1 51.9 330.7 51.2 329.7 51.2 C 329.1 51.2 328.5 51.6 328.1 52 C 328.1 52 328.1 55.5 328.1 55.5 C 328.1 56.5 328.1 56.6 329 56.7 C 329.03 56.69 329 57.1 329 57.1 L 325.8 57.1 C 325.8 57.1 325.78 56.69 325.8 56.7 C 326.8 56.6 326.9 56.5 326.9 55.5 C 326.9 55.5 326.9 52.4 326.9 52.4 C 326.9 51.5 326.8 51.4 326 51.3 C 326 51.3 326 50.9 326 50.9 C 326.7 50.8 327.4 50.6 328.1 50.3 C 328.1 50.3 328.1 51.5 328.1 51.5 C 328.4 51.3 328.7 51 329.1 50.8 C 329.5 50.5 329.9 50.3 330.3 50.3 C 331.5 50.3 332.2 51.2 332.2 52.6 C 332.2 52.6 332.2 55.5 332.2 55.5 C 332.2 56.5 332.3 56.6 333.2 56.7 C 333.18 56.69 333.2 57.1 333.2 57.1 L 330.1 57.1 Z M 344 53.7 C 344 56.1 342.3 57.3 340.8 57.3 C 338.7 57.3 337.5 55.6 337.5 53.9 C 337.5 51.5 339.4 50.3 340.8 50.3 C 342.7 50.3 344 51.8 344 53.7 Z M 338.9 53.5 C 338.9 55.4 339.7 56.8 341 56.8 C 341.9 56.8 342.7 56.1 342.7 54 C 342.7 52.3 341.9 50.8 340.6 50.8 C 339.7 50.8 338.9 51.8 338.9 53.5 Z M 345.9 50.5 C 345.9 50.5 345.94 50.19 345.9 50.2 C 345.9 49.7 346 49.3 346.1 49 C 346.2 48.6 346.4 47.9 347.3 47.2 C 347.8 46.7 348.3 46.5 348.9 46.4 C 349.4 46.4 349.8 46.6 350.1 46.9 C 350.2 47.1 350.2 47.3 350.2 47.4 C 350.1 47.6 350 47.7 349.9 47.8 C 349.7 47.9 349.6 47.9 349.5 47.7 C 349.2 47.5 348.8 47.2 348.3 47.2 C 347.9 47.2 347.6 47.4 347.5 47.6 C 347.3 47.9 347.1 48.6 347.1 49.9 C 347.12 49.92 347.1 50.5 347.1 50.5 C 347.1 50.5 348.89 50.52 348.9 50.5 C 349 50.7 348.9 51 348.7 51.1 C 348.74 51.11 347.1 51.1 347.1 51.1 C 347.1 51.1 347.12 55.43 347.1 55.4 C 347.1 56.5 347.2 56.6 348.4 56.7 C 348.41 56.7 348.4 57.1 348.4 57.1 L 344.9 57.1 C 344.9 57.1 344.87 56.69 344.9 56.7 C 345.8 56.6 345.9 56.5 345.9 55.5 C 345.94 55.53 345.9 51.1 345.9 51.1 L 344.9 51.1 L 344.8 51 L 345.2 50.5 L 345.9 50.5 Z " stroke="none" fill="#000"/>  </g>  <g id="Polygon8961">    <path d="M 58.9 50.5 C 58.9 50.5 58.89 50.19 58.9 50.2 C 58.9 49.7 58.9 49.3 59.1 49 C 59.2 48.6 59.4 47.9 60.2 47.2 C 60.7 46.7 61.3 46.5 61.9 46.4 C 62.4 46.4 62.8 46.6 63 46.9 C 63.2 47.1 63.2 47.3 63.1 47.4 C 63.1 47.6 63 47.7 62.8 47.8 C 62.7 47.9 62.6 47.9 62.4 47.7 C 62.1 47.5 61.7 47.2 61.2 47.2 C 60.8 47.2 60.6 47.4 60.4 47.6 C 60.2 47.9 60.1 48.6 60.1 49.9 C 60.07 49.92 60.1 50.5 60.1 50.5 C 60.1 50.5 61.84 50.52 61.8 50.5 C 61.9 50.7 61.9 51 61.7 51.1 C 61.69 51.11 60.1 51.1 60.1 51.1 C 60.1 51.1 60.07 55.43 60.1 55.4 C 60.1 56.5 60.2 56.6 61.4 56.7 C 61.36 56.7 61.4 57.1 61.4 57.1 L 57.8 57.1 C 57.8 57.1 57.82 56.69 57.8 56.7 C 58.8 56.6 58.9 56.5 58.9 55.5 C 58.89 55.53 58.9 51.1 58.9 51.1 L 57.8 51.1 L 57.8 51 L 58.2 50.5 L 58.9 50.5 Z M 67.6 55.8 C 66.7 57 65.6 57.3 65.2 57.3 C 63.3 57.3 62.2 55.8 62.2 54.1 C 62.2 53 62.6 52.1 63.2 51.4 C 63.8 50.7 64.6 50.3 65.4 50.3 C 66.7 50.3 67.7 51.5 67.7 52.6 C 67.7 52.9 67.6 53 67.3 53.1 C 67.1 53.1 65.2 53.3 63.4 53.4 C 63.4 55.4 64.6 56.2 65.7 56.2 C 66.3 56.2 66.8 56 67.4 55.5 C 67.4 55.5 67.6 55.8 67.6 55.8 Z M 63.5 52.7 C 64.3 52.7 65.2 52.7 66 52.7 C 66.3 52.7 66.4 52.6 66.4 52.4 C 66.4 51.6 65.9 50.9 65.1 50.9 C 64.4 50.9 63.7 51.5 63.5 52.7 Z M 74 55.8 C 73.1 57 72.1 57.3 71.6 57.3 C 69.8 57.3 68.7 55.8 68.7 54.1 C 68.7 53 69.1 52.1 69.7 51.4 C 70.3 50.7 71.1 50.3 71.9 50.3 C 73.1 50.3 74.1 51.5 74.1 52.6 C 74.1 52.9 74 53 73.8 53.1 C 73.5 53.1 71.6 53.3 69.9 53.4 C 69.9 55.4 71 56.2 72.1 56.2 C 72.7 56.2 73.3 56 73.8 55.5 C 73.8 55.5 74 55.8 74 55.8 Z M 69.9 52.7 C 70.8 52.7 71.6 52.7 72.5 52.7 C 72.7 52.7 72.8 52.6 72.8 52.4 C 72.9 51.6 72.3 50.9 71.5 50.9 C 70.8 50.9 70.2 51.5 69.9 52.7 Z M 74.7 57.1 C 74.7 57.1 74.67 56.69 74.7 56.7 C 75.6 56.6 75.7 56.5 75.7 55.5 C 75.7 55.5 75.7 48.4 75.7 48.4 C 75.7 47.4 75.7 47.4 74.7 47.3 C 74.7 47.3 74.7 46.9 74.7 46.9 C 75.5 46.8 76.4 46.6 76.9 46.4 C 76.9 46.4 76.9 55.5 76.9 55.5 C 76.9 56.5 77 56.6 78 56.7 C 78.01 56.69 78 57.1 78 57.1 L 74.7 57.1 Z M 79.5 48.3 C 79.5 47.8 79.9 47.5 80.3 47.5 C 80.7 47.5 81 47.8 81 48.3 C 81 48.7 80.7 49 80.3 49 C 79.9 49 79.5 48.7 79.5 48.3 Z M 78.7 57.1 C 78.7 57.1 78.71 56.69 78.7 56.7 C 79.7 56.6 79.8 56.5 79.8 55.5 C 79.8 55.5 79.8 52.4 79.8 52.4 C 79.8 51.5 79.7 51.4 78.8 51.3 C 78.8 51.3 78.8 50.9 78.8 50.9 C 79.6 50.8 80.3 50.6 80.9 50.3 C 80.9 50.3 80.9 55.5 80.9 55.5 C 80.9 56.5 81.1 56.6 82 56.7 C 82.01 56.69 82 57.1 82 57.1 L 78.7 57.1 Z M 87 57.1 C 87 57.1 86.98 56.69 87 56.7 C 87.9 56.6 88 56.5 88 55.4 C 88 55.4 88 52.9 88 52.9 C 88 51.9 87.6 51.2 86.6 51.2 C 86 51.2 85.4 51.6 85 52 C 85 52 85 55.5 85 55.5 C 85 56.5 85.1 56.6 85.9 56.7 C 85.94 56.69 85.9 57.1 85.9 57.1 L 82.7 57.1 C 82.7 57.1 82.69 56.69 82.7 56.7 C 83.7 56.6 83.8 56.5 83.8 55.5 C 83.8 55.5 83.8 52.4 83.8 52.4 C 83.8 51.5 83.7 51.4 82.9 51.3 C 82.9 51.3 82.9 50.9 82.9 50.9 C 83.6 50.8 84.3 50.6 85 50.3 C 85 50.3 85 51.5 85 51.5 C 85.3 51.3 85.6 51 86 50.8 C 86.4 50.5 86.8 50.3 87.2 50.3 C 88.4 50.3 89.2 51.2 89.2 52.6 C 89.2 52.6 89.2 55.5 89.2 55.5 C 89.2 56.5 89.2 56.6 90.1 56.7 C 90.1 56.69 90.1 57.1 90.1 57.1 L 87 57.1 Z M 97.4 50.6 C 97.2 50.9 96.9 51.3 96.7 51.4 C 96.7 51.4 95.8 51.4 95.8 51.4 C 96.1 51.7 96.3 52.1 96.3 52.7 C 96.3 54.3 94.9 55.1 93.7 55.1 C 93.4 55.1 93.1 55 92.9 55 C 92.7 55.1 92.4 55.4 92.4 55.6 C 92.4 55.9 92.7 56.2 93.4 56.2 C 93.9 56.2 94.5 56.2 95 56.2 C 95.9 56.2 97.1 56.5 97.1 58 C 97.1 59.5 95.4 60.9 93.4 60.9 C 91.7 60.9 90.8 60 90.8 59.1 C 90.8 58.8 90.9 58.5 91.1 58.3 C 91.4 58 92 57.5 92.4 57.2 C 91.8 57 91.5 56.7 91.3 56.4 C 91.1 56.2 91.1 55.9 91.1 55.8 C 91.7 55.5 92.2 55.1 92.4 54.8 C 91.7 54.6 91.1 53.9 91.1 52.8 C 91.1 51.1 92.6 50.3 93.8 50.3 C 94.3 50.3 94.8 50.5 95.2 50.7 C 96 50.7 96.7 50.6 97.3 50.5 C 97.3 50.5 97.4 50.6 97.4 50.6 Z M 92.4 52.6 C 92.4 53.8 93 54.6 93.8 54.6 C 94.5 54.6 95 54 95 52.8 C 95 51.6 94.5 50.8 93.6 50.8 C 93 50.8 92.4 51.4 92.4 52.6 Z M 92.6 57.6 C 92.3 57.9 92 58.3 92 58.7 C 92 59.6 92.8 60.2 93.9 60.2 C 95.4 60.2 96.1 59.4 96.1 58.5 C 96.1 58 95.8 57.6 95.4 57.4 C 95 57.3 94.6 57.2 94 57.2 C 93.2 57.2 92.9 57.3 92.6 57.6 Z M 107.9 53.7 C 107.9 56.1 106.1 57.3 104.6 57.3 C 102.5 57.3 101.3 55.6 101.3 53.9 C 101.3 51.5 103.2 50.3 104.6 50.3 C 106.5 50.3 107.9 51.8 107.9 53.7 Z M 102.7 53.5 C 102.7 55.4 103.5 56.8 104.8 56.8 C 105.7 56.8 106.5 56.1 106.5 54 C 106.5 52.3 105.8 50.8 104.5 50.8 C 103.5 50.8 102.7 51.8 102.7 53.5 Z M 109.7 50.5 C 109.7 50.5 109.75 50.19 109.7 50.2 C 109.7 49.7 109.8 49.3 109.9 49 C 110 48.6 110.3 47.9 111.1 47.2 C 111.6 46.7 112.1 46.5 112.7 46.4 C 113.2 46.4 113.7 46.6 113.9 46.9 C 114 47.1 114.1 47.3 114 47.4 C 113.9 47.6 113.8 47.7 113.7 47.8 C 113.6 47.9 113.4 47.9 113.3 47.7 C 113 47.5 112.6 47.2 112.1 47.2 C 111.7 47.2 111.4 47.4 111.3 47.6 C 111.1 47.9 110.9 48.6 110.9 49.9 C 110.93 49.92 110.9 50.5 110.9 50.5 C 110.9 50.5 112.7 50.52 112.7 50.5 C 112.8 50.7 112.7 51 112.6 51.1 C 112.55 51.11 110.9 51.1 110.9 51.1 C 110.9 51.1 110.93 55.43 110.9 55.4 C 110.9 56.5 111 56.6 112.2 56.7 C 112.22 56.7 112.2 57.1 112.2 57.1 L 108.7 57.1 C 108.7 57.1 108.68 56.69 108.7 56.7 C 109.6 56.6 109.7 56.5 109.7 55.5 C 109.75 55.53 109.7 51.1 109.7 51.1 L 108.7 51.1 L 108.6 51 L 109 50.5 L 109.7 50.5 Z M 120.5 52.3 C 120.2 51.4 119.7 50.8 118.9 50.8 C 118.4 50.8 118 51.3 118 51.8 C 118 52.5 118.6 52.9 119.2 53.1 C 120.4 53.6 121.1 54.2 121.1 55.2 C 121.1 56.6 119.9 57.3 118.7 57.3 C 117.9 57.3 117.2 57 116.9 56.7 C 116.8 56.5 116.7 55.5 116.7 55 C 116.7 55 117.1 54.9 117.1 54.9 C 117.4 55.9 118 56.8 118.9 56.8 C 119.5 56.8 120 56.3 120 55.7 C 120 55.1 119.6 54.7 118.8 54.3 C 117.9 53.9 116.9 53.4 116.9 52.3 C 116.9 51.2 117.8 50.3 119.2 50.3 C 119.8 50.3 120.2 50.5 120.5 50.6 C 120.7 50.9 120.8 51.8 120.9 52.2 C 120.9 52.2 120.5 52.3 120.5 52.3 Z M 128.8 53.7 C 128.8 56.1 127 57.3 125.5 57.3 C 123.5 57.3 122.3 55.6 122.3 53.9 C 122.3 51.5 124.2 50.3 125.5 50.3 C 127.4 50.3 128.8 51.8 128.8 53.7 Z M 123.7 53.5 C 123.7 55.4 124.5 56.8 125.7 56.8 C 126.6 56.8 127.4 56.1 127.4 54 C 127.4 52.3 126.7 50.8 125.4 50.8 C 124.5 50.8 123.7 51.8 123.7 53.5 Z M 129.5 57.1 C 129.5 57.1 129.47 56.69 129.5 56.7 C 130.4 56.6 130.6 56.5 130.6 55.5 C 130.6 55.5 130.6 48.4 130.6 48.4 C 130.6 47.4 130.5 47.4 129.5 47.3 C 129.5 47.3 129.5 46.9 129.5 46.9 C 130.3 46.8 131.2 46.6 131.7 46.4 C 131.7 46.4 131.7 55.5 131.7 55.5 C 131.7 56.5 131.9 56.6 132.8 56.7 C 132.82 56.69 132.8 57.1 132.8 57.1 L 129.5 57.1 Z M 134.3 48.3 C 134.3 47.8 134.7 47.5 135.1 47.5 C 135.5 47.5 135.8 47.8 135.8 48.3 C 135.8 48.7 135.5 49 135.1 49 C 134.7 49 134.3 48.7 134.3 48.3 Z M 133.5 57.1 C 133.5 57.1 133.52 56.69 133.5 56.7 C 134.5 56.6 134.6 56.5 134.6 55.5 C 134.6 55.5 134.6 52.4 134.6 52.4 C 134.6 51.5 134.5 51.4 133.6 51.3 C 133.6 51.3 133.6 50.9 133.6 50.9 C 134.4 50.8 135.1 50.6 135.8 50.3 C 135.8 50.3 135.8 55.5 135.8 55.5 C 135.8 56.5 135.9 56.6 136.8 56.7 C 136.82 56.69 136.8 57.1 136.8 57.1 L 133.5 57.1 Z M 140.3 57.1 C 140.1 57.2 139.8 57.3 139.7 57.3 C 138.8 57.3 138.2 56.7 138.2 55.5 C 138.23 55.47 138.2 51.1 138.2 51.1 L 137.2 51.1 L 137.1 51 L 137.5 50.5 L 138.2 50.5 L 138.2 49.4 L 139.2 48.4 L 139.4 48.5 L 139.4 50.5 C 139.4 50.5 141.11 50.52 141.1 50.5 C 141.2 50.7 141.2 51 141 51.1 C 141.02 51.11 139.4 51.1 139.4 51.1 C 139.4 51.1 139.42 54.96 139.4 55 C 139.4 56.2 139.9 56.4 140.3 56.4 C 140.7 56.4 141 56.3 141.2 56.1 C 141.22 56.15 141.4 56.5 141.4 56.5 C 141.4 56.5 140.33 57.06 140.3 57.1 Z M 149.1 56.7 C 148.4 56.8 147.6 57 146.9 57.3 C 146.87 57.26 146.8 57.2 146.8 57.2 C 146.8 57.2 146.78 56.1 146.8 56.1 C 146.4 56.4 146.1 56.6 145.7 56.9 C 145.2 57.1 144.9 57.3 144.5 57.3 C 143.5 57.3 142.7 56.6 142.7 55 C 142.7 55 142.7 52.1 142.7 52.1 C 142.7 51.3 142.6 51.2 141.7 51 C 141.7 51 141.7 50.7 141.7 50.7 C 142.4 50.6 143.2 50.6 143.9 50.4 C 143.8 50.9 143.8 51.6 143.8 52.6 C 143.8 52.6 143.8 54.6 143.8 54.6 C 143.8 56 144.5 56.3 145.2 56.3 C 145.7 56.3 146.3 56.1 146.8 55.6 C 146.8 55.6 146.8 52.1 146.8 52.1 C 146.8 51.2 146.7 51.2 145.6 51 C 145.6 51 145.6 50.7 145.6 50.7 C 146.4 50.6 147.2 50.6 148 50.4 C 148 50.4 148 55.4 148 55.4 C 148 56.2 148.1 56.3 148.7 56.3 C 148.66 56.31 149.1 56.3 149.1 56.3 C 149.1 56.3 149.08 56.72 149.1 56.7 Z M 157 56.7 C 156.7 56.7 155.6 56.9 154.7 57.3 C 154.7 57.26 154.7 56.3 154.7 56.3 C 154.7 56.3 153.79 56.82 153.8 56.8 C 153.2 57.2 152.8 57.3 152.6 57.3 C 151.4 57.3 149.8 56.2 149.8 54.1 C 149.8 52 151.7 50.3 153.7 50.3 C 153.9 50.3 154.4 50.4 154.7 50.5 C 154.7 50.5 154.7 48.4 154.7 48.4 C 154.7 47.4 154.6 47.4 153.5 47.3 C 153.5 47.3 153.5 46.9 153.5 46.9 C 154.3 46.8 155.3 46.6 155.9 46.4 C 155.9 46.4 155.9 55.4 155.9 55.4 C 155.9 56.1 156 56.2 156.5 56.3 C 156.55 56.27 157 56.3 157 56.3 C 157 56.3 157.03 56.69 157 56.7 Z M 154.7 51.7 C 154.3 51.1 153.7 50.9 153.2 50.9 C 152.5 50.9 151.2 51.5 151.2 53.7 C 151.2 55.4 152.3 56.3 153.3 56.3 C 153.8 56.3 154.3 56.1 154.7 55.8 C 154.7 55.8 154.7 51.7 154.7 51.7 Z M 163.1 55.8 C 162.2 57 161.1 57.3 160.7 57.3 C 158.8 57.3 157.7 55.8 157.7 54.1 C 157.7 53 158.1 52.1 158.7 51.4 C 159.4 50.7 160.2 50.3 160.9 50.3 C 162.2 50.3 163.2 51.5 163.2 52.6 C 163.2 52.9 163.1 53 162.8 53.1 C 162.6 53.1 160.7 53.3 158.9 53.4 C 158.9 55.4 160.1 56.2 161.2 56.2 C 161.8 56.2 162.3 56 162.9 55.5 C 162.9 55.5 163.1 55.8 163.1 55.8 Z M 159 52.7 C 159.8 52.7 160.7 52.7 161.5 52.7 C 161.8 52.7 161.9 52.6 161.9 52.4 C 161.9 51.6 161.4 50.9 160.6 50.9 C 159.9 50.9 159.2 51.5 159 52.7 Z " stroke="none" fill="#00aa32"/>  </g>  <g id="Polygon8960">    <path d="M 11.3 48.3 C 11.3 47.8 11.6 47.5 12 47.5 C 12.5 47.5 12.8 47.8 12.8 48.3 C 12.8 48.7 12.5 49 12 49 C 11.6 49 11.3 48.7 11.3 48.3 Z M 10.5 57.1 C 10.5 57.1 10.48 56.69 10.5 56.7 C 11.4 56.6 11.5 56.5 11.5 55.5 C 11.5 55.5 11.5 52.4 11.5 52.4 C 11.5 51.5 11.5 51.4 10.6 51.3 C 10.6 51.3 10.6 50.9 10.6 50.9 C 11.4 50.8 12.1 50.6 12.7 50.3 C 12.7 50.3 12.7 55.5 12.7 55.5 C 12.7 56.5 12.8 56.6 13.8 56.7 C 13.78 56.69 13.8 57.1 13.8 57.1 L 10.5 57.1 Z M 18.4 52.3 C 18.1 51.4 17.6 50.8 16.8 50.8 C 16.3 50.8 15.9 51.3 15.9 51.8 C 15.9 52.5 16.5 52.9 17.1 53.1 C 18.3 53.6 19 54.2 19 55.2 C 19 56.6 17.8 57.3 16.6 57.3 C 15.8 57.3 15.1 57 14.8 56.7 C 14.7 56.5 14.6 55.5 14.6 55 C 14.6 55 15 54.9 15 54.9 C 15.3 55.9 15.9 56.8 16.8 56.8 C 17.4 56.8 17.9 56.3 17.9 55.7 C 17.9 55.1 17.5 54.7 16.7 54.3 C 15.8 53.9 14.8 53.4 14.8 52.3 C 14.8 51.2 15.7 50.3 17.1 50.3 C 17.7 50.3 18.1 50.5 18.4 50.6 C 18.6 50.9 18.7 51.8 18.8 52.2 C 18.8 52.2 18.4 52.3 18.4 52.3 Z M 19.6 57.1 C 19.6 57.1 19.65 56.69 19.6 56.7 C 20.6 56.6 20.7 56.5 20.7 55.5 C 20.7 55.5 20.7 48.4 20.7 48.4 C 20.7 47.4 20.6 47.4 19.7 47.3 C 19.7 47.3 19.7 46.9 19.7 46.9 C 20.5 46.8 21.4 46.6 21.9 46.4 C 21.9 46.4 21.9 55.5 21.9 55.5 C 21.9 56.5 22 56.6 23 56.7 C 22.99 56.69 23 57.1 23 57.1 L 19.6 57.1 Z M 28.5 57.3 C 28.3 57.3 27.9 57.1 27.8 57 C 27.6 56.8 27.5 56.6 27.4 56.3 C 26.8 56.7 26.1 57.3 25.6 57.3 C 24.6 57.3 23.8 56.4 23.8 55.4 C 23.8 54.7 24.2 54.2 25.1 53.9 C 26 53.6 27.1 53.2 27.4 53 C 27.4 53 27.4 52.7 27.4 52.7 C 27.4 51.6 26.9 51 26.1 51 C 25.8 51 25.6 51.1 25.4 51.3 C 25.3 51.5 25.1 51.8 25 52.3 C 24.9 52.5 24.8 52.6 24.6 52.6 C 24.3 52.6 23.9 52.3 23.9 52 C 23.9 51.8 24.1 51.6 24.4 51.4 C 24.8 51.1 25.8 50.5 26.6 50.3 C 27.1 50.3 27.5 50.5 27.9 50.7 C 28.4 51.2 28.5 51.8 28.5 52.6 C 28.5 52.6 28.5 55.4 28.5 55.4 C 28.5 56 28.8 56.3 29.1 56.3 C 29.2 56.3 29.5 56.2 29.6 56.1 C 29.6 56.1 29.8 56.5 29.8 56.5 C 29.8 56.5 28.48 57.26 28.5 57.3 Z M 27.4 53.5 C 27.1 53.6 26.3 54 26 54.1 C 25.4 54.4 25.1 54.7 25.1 55.2 C 25.1 56 25.7 56.4 26.2 56.4 C 26.6 56.3 27.1 56.1 27.4 55.8 C 27.4 55.8 27.4 53.5 27.4 53.5 Z M 34.4 57.1 C 34.4 57.1 34.44 56.69 34.4 56.7 C 35.3 56.6 35.4 56.5 35.4 55.4 C 35.4 55.4 35.4 52.9 35.4 52.9 C 35.4 51.9 35.1 51.2 34.1 51.2 C 33.5 51.2 32.9 51.6 32.4 52 C 32.4 52 32.4 55.5 32.4 55.5 C 32.4 56.5 32.5 56.6 33.4 56.7 C 33.4 56.69 33.4 57.1 33.4 57.1 L 30.1 57.1 C 30.1 57.1 30.15 56.69 30.1 56.7 C 31.2 56.6 31.2 56.5 31.2 55.5 C 31.2 55.5 31.2 52.4 31.2 52.4 C 31.2 51.5 31.2 51.4 30.3 51.3 C 30.3 51.3 30.3 50.9 30.3 50.9 C 31.1 50.8 31.8 50.6 32.4 50.3 C 32.4 50.3 32.4 51.5 32.4 51.5 C 32.7 51.3 33.1 51 33.4 50.8 C 33.8 50.5 34.2 50.3 34.7 50.3 C 35.9 50.3 36.6 51.2 36.6 52.6 C 36.6 52.6 36.6 55.5 36.6 55.5 C 36.6 56.5 36.7 56.6 37.6 56.7 C 37.55 56.69 37.6 57.1 37.6 57.1 L 34.4 57.1 Z M 45.6 56.7 C 45.3 56.7 44.2 56.9 43.3 57.3 C 43.29 57.26 43.3 56.3 43.3 56.3 C 43.3 56.3 42.37 56.82 42.4 56.8 C 41.8 57.2 41.4 57.3 41.2 57.3 C 40 57.3 38.4 56.2 38.4 54.1 C 38.4 52 40.3 50.3 42.3 50.3 C 42.5 50.3 42.9 50.4 43.3 50.5 C 43.3 50.5 43.3 48.4 43.3 48.4 C 43.3 47.4 43.2 47.4 42.1 47.3 C 42.1 47.3 42.1 46.9 42.1 46.9 C 42.9 46.8 43.9 46.6 44.5 46.4 C 44.5 46.4 44.5 55.4 44.5 55.4 C 44.5 56.1 44.6 56.2 45.1 56.3 C 45.13 56.27 45.6 56.3 45.6 56.3 C 45.6 56.3 45.61 56.69 45.6 56.7 Z M 43.3 51.7 C 42.9 51.1 42.3 50.9 41.7 50.9 C 41 50.9 39.8 51.5 39.8 53.7 C 39.8 55.4 40.9 56.3 41.8 56.3 C 42.4 56.3 42.9 56.1 43.3 55.8 C 43.3 55.8 43.3 51.7 43.3 51.7 Z M 50.1 52.3 C 49.9 51.4 49.3 50.8 48.6 50.8 C 48 50.8 47.6 51.3 47.6 51.8 C 47.6 52.5 48.2 52.9 48.9 53.1 C 50 53.6 50.8 54.2 50.8 55.2 C 50.8 56.6 49.5 57.3 48.3 57.3 C 47.5 57.3 46.9 57 46.6 56.7 C 46.5 56.5 46.3 55.5 46.3 55 C 46.3 55 46.7 54.9 46.7 54.9 C 47 55.9 47.7 56.8 48.6 56.8 C 49.1 56.8 49.6 56.3 49.6 55.7 C 49.6 55.1 49.2 54.7 48.5 54.3 C 47.6 53.9 46.6 53.4 46.6 52.3 C 46.6 51.2 47.5 50.3 48.9 50.3 C 49.5 50.3 49.9 50.5 50.2 50.6 C 50.3 50.9 50.5 51.8 50.5 52.2 C 50.5 52.2 50.1 52.3 50.1 52.3 Z M 53.3 48 C 53.3 49 52.3 49.7 51.4 49.9 C 51.4 49.9 51.3 49.5 51.3 49.5 C 52 49.2 52.4 48.9 52.4 48.2 C 52.4 47.7 52 47.4 51.5 47.3 C 51.4 47.3 51.3 47.2 51.3 47 C 51.3 46.6 51.7 46.4 51.9 46.4 C 52.6 46.4 53.3 47 53.3 48 Z " stroke="none" fill="#000"/>  </g>  <g id="Polygon8959">    <path d="M 13.4 39.1 C 13.2 39.2 13 39.3 12.8 39.3 C 11.9 39.3 11.4 38.7 11.4 37.5 C 11.35 37.47 11.4 33.1 11.4 33.1 L 10.3 33.1 L 10.3 33 L 10.7 32.5 L 11.4 32.5 L 11.4 31.4 L 12.3 30.4 L 12.5 30.5 L 12.5 32.5 C 12.5 32.5 14.23 32.52 14.2 32.5 C 14.4 32.7 14.3 33 14.1 33.1 C 14.14 33.11 12.5 33.1 12.5 33.1 C 12.5 33.1 12.53 36.96 12.5 37 C 12.5 38.2 13 38.4 13.4 38.4 C 13.8 38.4 14.1 38.3 14.3 38.1 C 14.33 38.15 14.5 38.5 14.5 38.5 C 14.5 38.5 13.45 39.06 13.4 39.1 Z M 15.9 30.3 C 15.9 29.8 16.3 29.5 16.7 29.5 C 17.1 29.5 17.4 29.8 17.4 30.3 C 17.4 30.7 17.1 31 16.7 31 C 16.3 31 15.9 30.7 15.9 30.3 Z M 15.1 39.1 C 15.1 39.1 15.13 38.69 15.1 38.7 C 16.1 38.6 16.2 38.5 16.2 37.5 C 16.2 37.5 16.2 34.4 16.2 34.4 C 16.2 33.5 16.1 33.4 15.2 33.3 C 15.2 33.3 15.2 32.9 15.2 32.9 C 16 32.8 16.7 32.6 17.4 32.3 C 17.4 32.3 17.4 37.5 17.4 37.5 C 17.4 38.5 17.5 38.6 18.4 38.7 C 18.43 38.69 18.4 39.1 18.4 39.1 L 15.1 39.1 Z M 25.8 35.7 C 25.8 38.1 24 39.3 22.5 39.3 C 20.5 39.3 19.2 37.6 19.2 35.9 C 19.2 33.5 21.1 32.3 22.5 32.3 C 24.4 32.3 25.8 33.8 25.8 35.7 Z M 20.6 35.5 C 20.6 37.4 21.4 38.8 22.7 38.8 C 23.6 38.8 24.4 38.1 24.4 36 C 24.4 34.3 23.7 32.8 22.4 32.8 C 21.4 32.8 20.6 33.8 20.6 35.5 Z M 30.9 39.1 C 30.9 39.1 30.86 38.69 30.9 38.7 C 31.8 38.6 31.9 38.5 31.9 37.4 C 31.9 37.4 31.9 34.9 31.9 34.9 C 31.9 33.9 31.5 33.2 30.5 33.2 C 29.9 33.2 29.3 33.6 28.9 34 C 28.9 34 28.9 37.5 28.9 37.5 C 28.9 38.5 28.9 38.6 29.8 38.7 C 29.83 38.69 29.8 39.1 29.8 39.1 L 26.6 39.1 C 26.6 39.1 26.58 38.69 26.6 38.7 C 27.6 38.6 27.7 38.5 27.7 37.5 C 27.7 37.5 27.7 34.4 27.7 34.4 C 27.7 33.5 27.6 33.4 26.8 33.3 C 26.8 33.3 26.8 32.9 26.8 32.9 C 27.5 32.8 28.2 32.6 28.9 32.3 C 28.9 32.3 28.9 33.5 28.9 33.5 C 29.2 33.3 29.5 33 29.9 32.8 C 30.3 32.5 30.7 32.3 31.1 32.3 C 32.3 32.3 33 33.2 33 34.6 C 33 34.6 33 37.5 33 37.5 C 33 38.5 33.1 38.6 34 38.7 C 33.98 38.69 34 39.1 34 39.1 L 30.9 39.1 Z M 39.5 39.3 C 39.3 39.3 39 39.1 38.8 39 C 38.6 38.8 38.5 38.6 38.5 38.3 C 37.9 38.7 37.1 39.3 36.7 39.3 C 35.6 39.3 34.9 38.4 34.9 37.4 C 34.9 36.7 35.3 36.2 36.1 35.9 C 37 35.6 38.1 35.2 38.4 35 C 38.4 35 38.4 34.7 38.4 34.7 C 38.4 33.6 37.9 33 37.2 33 C 36.9 33 36.6 33.1 36.5 33.3 C 36.3 33.5 36.2 33.8 36 34.3 C 36 34.5 35.8 34.6 35.6 34.6 C 35.3 34.6 34.9 34.3 34.9 34 C 34.9 33.8 35.1 33.6 35.4 33.4 C 35.8 33.1 36.8 32.5 37.7 32.3 C 38.1 32.3 38.6 32.5 38.9 32.7 C 39.4 33.2 39.6 33.8 39.6 34.6 C 39.6 34.6 39.6 37.4 39.6 37.4 C 39.6 38 39.8 38.3 40.1 38.3 C 40.3 38.3 40.5 38.2 40.6 38.1 C 40.64 38.1 40.8 38.5 40.8 38.5 C 40.8 38.5 39.52 39.26 39.5 39.3 Z M 38.4 35.5 C 38.1 35.6 37.4 36 37.1 36.1 C 36.5 36.4 36.2 36.7 36.2 37.2 C 36.2 38 36.8 38.4 37.2 38.4 C 37.6 38.3 38.1 38.1 38.4 37.8 C 38.4 37.8 38.4 35.5 38.4 35.5 Z M 41.2 39.1 C 41.2 39.1 41.19 38.69 41.2 38.7 C 42.1 38.6 42.3 38.5 42.3 37.5 C 42.3 37.5 42.3 30.4 42.3 30.4 C 42.3 29.4 42.2 29.4 41.2 29.3 C 41.2 29.3 41.2 28.9 41.2 28.9 C 42 28.8 42.9 28.6 43.4 28.4 C 43.4 28.4 43.4 37.5 43.4 37.5 C 43.4 38.5 43.6 38.6 44.5 38.7 C 44.53 38.69 44.5 39.1 44.5 39.1 L 41.2 39.1 Z M 52.1 32.6 C 52.3 32.4 52.6 32.3 52.8 32.3 C 54.5 32.3 55.5 33.7 55.5 35.2 C 55.5 37.4 53.7 38.9 51.7 39.3 C 51.3 39.2 50.9 39.1 50.7 39 C 50.7 39 50.7 41 50.7 41 C 50.7 42.1 50.8 42.2 52 42.3 C 51.97 42.27 52 42.7 52 42.7 L 48.4 42.7 C 48.4 42.7 48.42 42.27 48.4 42.3 C 49.4 42.2 49.5 42.1 49.5 41.1 C 49.5 41.1 49.5 34.3 49.5 34.3 C 49.5 33.3 49.5 33.3 48.5 33.2 C 48.5 33.2 48.5 32.8 48.5 32.8 C 49.2 32.7 50 32.5 50.7 32.2 C 50.69 32.19 50.7 33.4 50.7 33.4 C 50.7 33.4 52.07 32.57 52.1 32.6 Z M 50.7 37.9 C 51 38.3 51.6 38.5 52.1 38.5 C 53.4 38.5 54.2 37.4 54.2 35.7 C 54.2 34.1 53.3 33.2 52.2 33.2 C 51.7 33.2 51.1 33.6 50.7 33.9 C 50.7 33.9 50.7 37.9 50.7 37.9 Z M 61.3 39.3 C 61.1 39.3 60.8 39.1 60.6 39 C 60.4 38.8 60.3 38.6 60.2 38.3 C 59.6 38.7 58.9 39.3 58.5 39.3 C 57.4 39.3 56.7 38.4 56.7 37.4 C 56.7 36.7 57.1 36.2 57.9 35.9 C 58.8 35.6 59.9 35.2 60.2 35 C 60.2 35 60.2 34.7 60.2 34.7 C 60.2 33.6 59.7 33 59 33 C 58.7 33 58.4 33.1 58.3 33.3 C 58.1 33.5 58 33.8 57.8 34.3 C 57.8 34.5 57.6 34.6 57.4 34.6 C 57.1 34.6 56.7 34.3 56.7 34 C 56.7 33.8 56.9 33.6 57.2 33.4 C 57.6 33.1 58.6 32.5 59.5 32.3 C 59.9 32.3 60.4 32.5 60.7 32.7 C 61.2 33.2 61.4 33.8 61.4 34.6 C 61.4 34.6 61.4 37.4 61.4 37.4 C 61.4 38 61.6 38.3 61.9 38.3 C 62.1 38.3 62.3 38.2 62.4 38.1 C 62.44 38.1 62.6 38.5 62.6 38.5 C 62.6 38.5 61.31 39.26 61.3 39.3 Z M 60.2 35.5 C 59.9 35.6 59.2 36 58.9 36.1 C 58.3 36.4 58 36.7 58 37.2 C 58 38 58.6 38.4 59 38.4 C 59.4 38.3 59.9 38.1 60.2 37.8 C 60.2 37.8 60.2 35.5 60.2 35.5 Z M 65.3 33.9 C 65.7 33.2 66.4 32.3 67.1 32.3 C 67.6 32.3 68 32.7 68 33.1 C 68 33.4 67.8 33.7 67.5 33.8 C 67.3 33.9 67.2 33.9 67.1 33.8 C 66.9 33.6 66.7 33.5 66.5 33.5 C 66.1 33.5 65.6 33.9 65.3 34.8 C 65.3 34.8 65.3 37.5 65.3 37.5 C 65.3 38.5 65.3 38.6 66.5 38.7 C 66.49 38.69 66.5 39.1 66.5 39.1 L 63 39.1 C 63 39.1 63.04 38.69 63 38.7 C 64 38.6 64.1 38.5 64.1 37.5 C 64.1 37.5 64.1 34.4 64.1 34.4 C 64.1 33.4 64 33.4 63.1 33.2 C 63.1 33.2 63.1 32.9 63.1 32.9 C 63.9 32.8 64.5 32.6 65.3 32.3 C 65.26 32.3 65.3 33.9 65.3 33.9 C 65.3 33.9 65.29 33.93 65.3 33.9 Z M 73.7 39.1 C 73 38.3 72.1 37.1 71.2 36.1 C 71 35.9 70.9 35.8 70.8 35.8 C 70.7 35.8 70.6 35.8 70.5 35.9 C 70.5 35.9 70.5 37.5 70.5 37.5 C 70.5 38.5 70.7 38.6 71.6 38.7 C 71.62 38.69 71.6 39.1 71.6 39.1 L 68.3 39.1 C 68.3 39.1 68.26 38.69 68.3 38.7 C 69.3 38.6 69.4 38.5 69.4 37.5 C 69.4 37.5 69.4 30.4 69.4 30.4 C 69.4 29.4 69.3 29.4 68.4 29.3 C 68.4 29.3 68.4 28.9 68.4 28.9 C 69.1 28.8 69.9 28.6 70.5 28.4 C 70.5 28.4 70.5 35.5 70.5 35.5 C 71 35.4 71.2 35.2 71.5 34.9 C 71.8 34.6 72.2 34 72.5 33.6 C 72.8 33.2 72.8 33 72.1 33 C 72.08 32.96 72.1 32.6 72.1 32.6 L 75.1 32.4 C 75.1 32.4 75.14 32.81 75.1 32.8 C 74.1 33 73.8 33.1 73.2 33.7 C 72.8 34.1 72.6 34.4 71.9 35.1 C 72.2 35.6 73.7 37.3 74.2 37.9 C 74.8 38.4 75.2 38.7 75.7 38.7 C 75.74 38.69 75.7 39.1 75.7 39.1 C 75.7 39.1 73.69 39.11 73.7 39.1 Z M 79.9 34.3 C 79.6 33.4 79.1 32.8 78.4 32.8 C 77.8 32.8 77.4 33.3 77.4 33.8 C 77.4 34.5 78 34.9 78.7 35.1 C 79.8 35.6 80.5 36.2 80.5 37.2 C 80.5 38.6 79.3 39.3 78.1 39.3 C 77.3 39.3 76.6 39 76.3 38.7 C 76.2 38.5 76.1 37.5 76.1 37 C 76.1 37 76.5 36.9 76.5 36.9 C 76.8 37.9 77.4 38.8 78.3 38.8 C 78.9 38.8 79.4 38.3 79.4 37.7 C 79.4 37.1 79 36.7 78.2 36.3 C 77.3 35.9 76.3 35.4 76.3 34.3 C 76.3 33.2 77.2 32.3 78.6 32.3 C 79.2 32.3 79.6 32.5 80 32.6 C 80.1 32.9 80.2 33.8 80.3 34.2 C 80.3 34.2 79.9 34.3 79.9 34.3 Z M 81.9 38.4 C 81.9 37.9 82.2 37.5 82.7 37.5 C 83.2 37.5 83.5 37.9 83.5 38.4 C 83.5 38.9 83.2 39.3 82.7 39.3 C 82.2 39.3 81.9 38.9 81.9 38.4 Z M 100.4 39.1 C 100.4 39.1 100.42 38.69 100.4 38.7 C 101.3 38.6 101.4 38.5 101.4 37.5 C 101.4 37.5 101.4 35 101.4 35 C 101.4 33.8 100.9 33.2 99.9 33.2 C 99.4 33.2 98.8 33.5 98.4 34 C 98.4 34 98.4 37.5 98.4 37.5 C 98.4 38.5 98.5 38.6 99.4 38.7 C 99.35 38.69 99.4 39.1 99.4 39.1 L 96.1 39.1 C 96.1 39.1 96.14 38.69 96.1 38.7 C 97.1 38.6 97.2 38.5 97.2 37.5 C 97.2 37.5 97.2 30 97.2 30 C 96.4 29.9 95.6 29.9 94.3 29.9 C 94.25 29.87 93.2 29.9 93.2 29.9 C 93.2 29.9 93.2 37.19 93.2 37.2 C 93.2 38.5 93.3 38.6 94.7 38.7 C 94.69 38.67 94.7 39.1 94.7 39.1 L 90.5 39.1 C 90.5 39.1 90.47 38.67 90.5 38.7 C 91.8 38.6 91.9 38.5 91.9 37.2 C 91.93 37.19 91.9 29.9 91.9 29.9 C 91.9 29.9 90.98 29.87 91 29.9 C 89.6 29.9 89.4 30 89.2 30.3 C 89 30.6 88.8 31 88.7 31.7 C 88.7 31.7 88.2 31.7 88.2 31.7 C 88.3 30.8 88.4 29.8 88.4 29 C 88.4 29 88.7 29 88.7 29 C 88.9 29.3 89.1 29.3 89.5 29.3 C 89.5 29.3 95.8 29.3 95.8 29.3 C 97 29.3 97.2 29.2 97.2 28.9 C 97.2 28.9 97.2 28.7 97.2 28.7 C 97.5 28.7 98 28.5 98.4 28.4 C 98.4 28.4 98.4 33.4 98.4 33.4 C 98.9 32.9 99.7 32.4 100.5 32.3 C 101.7 32.3 102.6 33.1 102.6 34.9 C 102.6 34.9 102.6 37.5 102.6 37.5 C 102.6 38.5 102.7 38.6 103.6 38.7 C 103.6 38.69 103.6 39.1 103.6 39.1 L 100.4 39.1 Z M 109.7 37.8 C 108.8 39 107.8 39.3 107.3 39.3 C 105.5 39.3 104.4 37.8 104.4 36.1 C 104.4 35 104.8 34.1 105.4 33.4 C 106 32.7 106.8 32.3 107.6 32.3 C 108.8 32.3 109.8 33.5 109.8 34.6 C 109.8 34.9 109.7 35 109.5 35.1 C 109.2 35.1 107.3 35.3 105.6 35.4 C 105.6 37.4 106.7 38.2 107.8 38.2 C 108.4 38.2 109 38 109.5 37.5 C 109.5 37.5 109.7 37.8 109.7 37.8 Z M 105.6 34.7 C 106.5 34.7 107.3 34.7 108.2 34.7 C 108.4 34.7 108.5 34.6 108.5 34.4 C 108.5 33.6 108 32.9 107.2 32.9 C 106.5 32.9 105.9 33.5 105.6 34.7 Z M 116.3 33.9 C 116.8 33.2 117.4 32.3 118.2 32.3 C 118.7 32.3 119 32.7 119 33.1 C 119 33.4 118.8 33.7 118.6 33.8 C 118.4 33.9 118.2 33.9 118.1 33.8 C 117.9 33.6 117.8 33.5 117.5 33.5 C 117.1 33.5 116.6 33.9 116.3 34.8 C 116.3 34.8 116.3 37.5 116.3 37.5 C 116.3 38.5 116.4 38.6 117.5 38.7 C 117.55 38.69 117.5 39.1 117.5 39.1 L 114.1 39.1 C 114.1 39.1 114.1 38.69 114.1 38.7 C 115 38.6 115.1 38.5 115.1 37.5 C 115.1 37.5 115.1 34.4 115.1 34.4 C 115.1 33.4 115.1 33.4 114.2 33.2 C 114.2 33.2 114.2 32.9 114.2 32.9 C 114.9 32.8 115.6 32.6 116.3 32.3 C 116.32 32.3 116.3 33.9 116.3 33.9 C 116.3 33.9 116.35 33.93 116.3 33.9 Z M 124.9 37.8 C 124 39 122.9 39.3 122.5 39.3 C 120.6 39.3 119.5 37.8 119.5 36.1 C 119.5 35 119.9 34.1 120.5 33.4 C 121.1 32.7 121.9 32.3 122.7 32.3 C 124 32.3 125 33.5 125 34.6 C 125 34.9 124.9 35 124.6 35.1 C 124.4 35.1 122.5 35.3 120.7 35.4 C 120.7 37.4 121.9 38.2 122.9 38.2 C 123.5 38.2 124.1 38 124.7 37.5 C 124.7 37.5 124.9 37.8 124.9 37.8 Z M 120.8 34.7 C 121.6 34.7 122.5 34.7 123.3 34.7 C 123.6 34.7 123.7 34.6 123.7 34.4 C 123.7 33.6 123.2 32.9 122.4 32.9 C 121.7 32.9 121 33.5 120.8 34.7 Z M 125.5 39.1 C 125.5 39.1 125.51 38.69 125.5 38.7 C 126.5 38.6 126.6 38.5 126.6 37.5 C 126.6 37.5 126.6 30.4 126.6 30.4 C 126.6 29.4 126.5 29.4 125.6 29.3 C 125.6 29.3 125.6 28.9 125.6 28.9 C 126.3 28.8 127.3 28.6 127.8 28.4 C 127.8 28.4 127.8 37.5 127.8 37.5 C 127.8 38.5 127.9 38.6 128.9 38.7 C 128.86 38.69 128.9 39.1 128.9 39.1 L 125.5 39.1 Z M 134.3 39.3 C 134.1 39.3 133.8 39.1 133.6 39 C 133.4 38.8 133.4 38.6 133.3 38.3 C 132.7 38.7 132 39.3 131.5 39.3 C 130.4 39.3 129.7 38.4 129.7 37.4 C 129.7 36.7 130.1 36.2 130.9 35.9 C 131.8 35.6 132.9 35.2 133.3 35 C 133.3 35 133.3 34.7 133.3 34.7 C 133.3 33.6 132.7 33 132 33 C 131.7 33 131.5 33.1 131.3 33.3 C 131.1 33.5 131 33.8 130.9 34.3 C 130.8 34.5 130.6 34.6 130.4 34.6 C 130.2 34.6 129.8 34.3 129.8 34 C 129.8 33.8 130 33.6 130.3 33.4 C 130.7 33.1 131.6 32.5 132.5 32.3 C 133 32.3 133.4 32.5 133.7 32.7 C 134.3 33.2 134.4 33.8 134.4 34.6 C 134.4 34.6 134.4 37.4 134.4 37.4 C 134.4 38 134.7 38.3 134.9 38.3 C 135.1 38.3 135.3 38.2 135.5 38.1 C 135.47 38.1 135.6 38.5 135.6 38.5 C 135.6 38.5 134.35 39.26 134.3 39.3 Z M 133.3 35.5 C 132.9 35.6 132.2 36 131.9 36.1 C 131.3 36.4 131 36.7 131 37.2 C 131 38 131.6 38.4 132.1 38.4 C 132.4 38.3 133 38.1 133.3 37.8 C 133.3 37.8 133.3 35.5 133.3 35.5 Z M 138.9 39.1 C 138.6 39.2 138.4 39.3 138.2 39.3 C 137.3 39.3 136.8 38.7 136.8 37.5 C 136.78 37.47 136.8 33.1 136.8 33.1 L 135.7 33.1 L 135.7 33 L 136.1 32.5 L 136.8 32.5 L 136.8 31.4 L 137.8 30.4 L 138 30.5 L 138 32.5 C 138 32.5 139.66 32.52 139.7 32.5 C 139.8 32.7 139.7 33 139.6 33.1 C 139.57 33.11 138 33.1 138 33.1 C 138 33.1 137.96 36.96 138 37 C 138 38.2 138.5 38.4 138.8 38.4 C 139.2 38.4 139.6 38.3 139.8 38.1 C 139.76 38.15 139.9 38.5 139.9 38.5 C 139.9 38.5 138.88 39.06 138.9 39.1 Z M 141.4 30.3 C 141.4 29.8 141.7 29.5 142.1 29.5 C 142.5 29.5 142.9 29.8 142.9 30.3 C 142.9 30.7 142.5 31 142.1 31 C 141.7 31 141.4 30.7 141.4 30.3 Z M 140.6 39.1 C 140.6 39.1 140.56 38.69 140.6 38.7 C 141.5 38.6 141.6 38.5 141.6 37.5 C 141.6 37.5 141.6 34.4 141.6 34.4 C 141.6 33.5 141.6 33.4 140.7 33.3 C 140.7 33.3 140.7 32.9 140.7 32.9 C 141.4 32.8 142.1 32.6 142.8 32.3 C 142.8 32.3 142.8 37.5 142.8 37.5 C 142.8 38.5 142.9 38.6 143.9 38.7 C 143.86 38.69 143.9 39.1 143.9 39.1 L 140.6 39.1 Z M 151.1 32.9 C 150.4 33 150.2 33.1 149.8 34 C 149.3 35.2 148.5 37 147.7 39.2 C 147.7 39.2 147.3 39.2 147.3 39.2 C 146.6 37.4 145.9 35.7 145.2 34 C 144.9 33.1 144.8 33 144 32.9 C 143.96 32.9 144 32.5 144 32.5 L 147 32.5 C 147 32.5 147.04 32.9 147 32.9 C 146.2 33 146.2 33.1 146.4 33.8 C 146.8 34.8 147.4 36.4 147.9 37.5 C 148.4 36.2 148.9 34.9 149.2 33.9 C 149.4 33.2 149.3 33 148.5 32.9 C 148.48 32.9 148.5 32.5 148.5 32.5 L 151.1 32.5 C 151.1 32.5 151.15 32.9 151.1 32.9 Z M 156.7 37.8 C 155.8 39 154.8 39.3 154.3 39.3 C 152.5 39.3 151.4 37.8 151.4 36.1 C 151.4 35 151.7 34.1 152.4 33.4 C 153 32.7 153.8 32.3 154.6 32.3 C 155.8 32.3 156.8 33.5 156.8 34.6 C 156.8 34.9 156.7 35 156.5 35.1 C 156.2 35.1 154.3 35.3 152.6 35.4 C 152.6 37.4 153.7 38.2 154.8 38.2 C 155.4 38.2 156 38 156.5 37.5 C 156.5 37.5 156.7 37.8 156.7 37.8 Z M 152.6 34.7 C 153.5 34.7 154.3 34.7 155.2 34.7 C 155.4 34.7 155.5 34.6 155.5 34.4 C 155.5 33.6 155 32.9 154.2 32.9 C 153.5 32.9 152.9 33.5 152.6 34.7 Z M 157.4 39.1 C 157.4 39.1 157.36 38.69 157.4 38.7 C 158.3 38.6 158.4 38.5 158.4 37.5 C 158.4 37.5 158.4 30.4 158.4 30.4 C 158.4 29.4 158.3 29.4 157.4 29.3 C 157.4 29.3 157.4 28.9 157.4 28.9 C 158.2 28.8 159.1 28.6 159.6 28.4 C 159.6 28.4 159.6 37.5 159.6 37.5 C 159.6 38.5 159.7 38.6 160.7 38.7 C 160.7 38.69 160.7 39.1 160.7 39.1 L 157.4 39.1 Z M 168 32.9 C 167.2 33 167.1 33.1 166.7 34 C 166.3 34.8 165.8 36 164.8 38.5 C 163.8 40.9 163.4 41.8 163.2 42.6 C 163.2 42.9 163 42.9 162.8 42.9 C 162.3 42.9 161.9 42.6 161.9 42.2 C 161.9 42 162 41.8 162.3 41.7 C 162.8 41.4 163.1 41 163.4 40.3 C 163.7 39.8 163.8 39.5 163.9 39.3 C 163.9 39.1 163.9 38.9 163.9 38.6 C 163.3 36.9 162.6 35.1 162.1 34 C 161.8 33.2 161.7 33 160.8 32.9 C 160.84 32.9 160.8 32.5 160.8 32.5 L 163.9 32.5 C 163.9 32.5 163.88 32.9 163.9 32.9 C 163.2 33 163.1 33.2 163.3 33.7 C 163.3 33.7 164.7 37.5 164.7 37.5 C 165.1 36.5 165.7 34.7 166.1 33.8 C 166.2 33.2 166.1 33 165.3 32.9 C 165.28 32.9 165.3 32.5 165.3 32.5 L 168 32.5 C 168 32.5 167.99 32.9 168 32.9 Z M 171.3 39.1 C 171.3 39.1 171.34 38.69 171.3 38.7 C 172.3 38.6 172.4 38.5 172.4 37.5 C 172.4 37.5 172.4 30.4 172.4 30.4 C 172.4 29.4 172.3 29.4 171.4 29.3 C 171.4 29.3 171.4 28.9 171.4 28.9 C 172.2 28.8 173.1 28.6 173.6 28.4 C 173.6 28.4 173.6 37.5 173.6 37.5 C 173.6 38.5 173.7 38.6 174.7 38.7 C 174.68 38.69 174.7 39.1 174.7 39.1 L 171.3 39.1 Z M 176.2 30.3 C 176.2 29.8 176.5 29.5 176.9 29.5 C 177.4 29.5 177.7 29.8 177.7 30.3 C 177.7 30.7 177.4 31 176.9 31 C 176.5 31 176.2 30.7 176.2 30.3 Z M 175.4 39.1 C 175.4 39.1 175.39 38.69 175.4 38.7 C 176.3 38.6 176.4 38.5 176.4 37.5 C 176.4 37.5 176.4 34.4 176.4 34.4 C 176.4 33.5 176.4 33.4 175.5 33.3 C 175.5 33.3 175.5 32.9 175.5 32.9 C 176.3 32.8 177 32.6 177.6 32.3 C 177.6 32.3 177.6 37.5 177.6 37.5 C 177.6 38.5 177.7 38.6 178.7 38.7 C 178.69 38.69 178.7 39.1 178.7 39.1 L 175.4 39.1 Z M 185.9 32.6 C 185.8 32.9 185.5 33.3 185.3 33.4 C 185.3 33.4 184.4 33.4 184.4 33.4 C 184.7 33.7 184.9 34.1 184.9 34.7 C 184.9 36.3 183.5 37.1 182.2 37.1 C 182 37.1 181.7 37 181.5 37 C 181.3 37.1 181 37.4 181 37.6 C 181 37.9 181.3 38.2 182 38.2 C 182.5 38.2 183.1 38.2 183.5 38.2 C 184.5 38.2 185.7 38.5 185.7 40 C 185.7 41.5 184 42.9 182 42.9 C 180.3 42.9 179.4 42 179.4 41.1 C 179.4 40.8 179.5 40.5 179.7 40.3 C 180 40 180.6 39.5 181 39.2 C 180.4 39 180.1 38.7 179.9 38.4 C 179.7 38.2 179.7 37.9 179.7 37.8 C 180.3 37.5 180.8 37.1 181 36.8 C 180.3 36.6 179.7 35.9 179.7 34.8 C 179.7 33.1 181.2 32.3 182.4 32.3 C 182.9 32.3 183.4 32.5 183.8 32.7 C 184.6 32.7 185.3 32.6 185.9 32.5 C 185.9 32.5 185.9 32.6 185.9 32.6 Z M 181 34.6 C 181 35.8 181.6 36.6 182.4 36.6 C 183.1 36.6 183.6 36 183.6 34.8 C 183.6 33.6 183.1 32.8 182.2 32.8 C 181.6 32.8 181 33.4 181 34.6 Z M 181.2 39.6 C 180.8 39.9 180.5 40.3 180.5 40.7 C 180.5 41.6 181.4 42.2 182.5 42.2 C 184 42.2 184.7 41.4 184.7 40.5 C 184.7 40 184.4 39.6 184 39.4 C 183.6 39.3 183.2 39.2 182.6 39.2 C 181.8 39.2 181.5 39.3 181.2 39.6 Z M 190.6 39.1 C 190.6 39.1 190.58 38.69 190.6 38.7 C 191.5 38.6 191.6 38.5 191.6 37.5 C 191.6 37.5 191.6 35 191.6 35 C 191.6 33.8 191.1 33.2 190.1 33.2 C 189.5 33.2 189 33.5 188.5 34 C 188.5 34 188.5 37.5 188.5 37.5 C 188.5 38.5 188.6 38.6 189.5 38.7 C 189.5 38.69 189.5 39.1 189.5 39.1 L 186.3 39.1 C 186.3 39.1 186.32 38.69 186.3 38.7 C 187.2 38.6 187.4 38.5 187.4 37.5 C 187.4 37.5 187.4 30.4 187.4 30.4 C 187.4 29.4 187.3 29.4 186.3 29.3 C 186.3 29.3 186.3 28.9 186.3 28.9 C 187.1 28.8 188 28.6 188.5 28.4 C 188.5 28.4 188.5 33.4 188.5 33.4 C 189.1 32.9 189.9 32.3 190.7 32.3 C 191.9 32.3 192.8 33.1 192.8 34.9 C 192.8 34.9 192.8 37.5 192.8 37.5 C 192.8 38.5 192.9 38.6 193.7 38.7 C 193.75 38.69 193.7 39.1 193.7 39.1 L 190.6 39.1 Z M 197.2 39.1 C 197 39.2 196.7 39.3 196.6 39.3 C 195.7 39.3 195.1 38.7 195.1 37.5 C 195.13 37.47 195.1 33.1 195.1 33.1 L 194.1 33.1 L 194 33 L 194.4 32.5 L 195.1 32.5 L 195.1 31.4 L 196.1 30.4 L 196.3 30.5 L 196.3 32.5 C 196.3 32.5 198.01 32.52 198 32.5 C 198.1 32.7 198.1 33 197.9 33.1 C 197.92 33.11 196.3 33.1 196.3 33.1 C 196.3 33.1 196.31 36.96 196.3 37 C 196.3 38.2 196.8 38.4 197.2 38.4 C 197.6 38.4 197.9 38.3 198.1 38.1 C 198.11 38.15 198.2 38.5 198.2 38.5 C 198.2 38.5 197.23 39.06 197.2 39.1 Z M 208.9 32.9 C 208.1 33 208 33.1 207.6 34 C 207.1 35.2 206.3 37 205.5 39.2 C 205.5 39.2 205.1 39.2 205.1 39.2 C 204.4 37.4 203.7 35.7 203 34 C 202.7 33.1 202.5 33 201.7 32.9 C 201.73 32.9 201.7 32.5 201.7 32.5 L 204.8 32.5 C 204.8 32.5 204.8 32.9 204.8 32.9 C 204 33 204 33.1 204.2 33.8 C 204.6 34.8 205.2 36.4 205.6 37.5 C 206.2 36.2 206.6 34.9 207 33.9 C 207.2 33.2 207.1 33 206.2 32.9 C 206.24 32.9 206.2 32.5 206.2 32.5 L 208.9 32.5 C 208.9 32.5 208.91 32.9 208.9 32.9 Z M 210 30.3 C 210 29.8 210.4 29.5 210.8 29.5 C 211.2 29.5 211.5 29.8 211.5 30.3 C 211.5 30.7 211.2 31 210.8 31 C 210.4 31 210 30.7 210 30.3 Z M 209.2 39.1 C 209.2 39.1 209.23 38.69 209.2 38.7 C 210.2 38.6 210.3 38.5 210.3 37.5 C 210.3 37.5 210.3 34.4 210.3 34.4 C 210.3 33.5 210.2 33.4 209.3 33.3 C 209.3 33.3 209.3 32.9 209.3 32.9 C 210.1 32.8 210.8 32.6 211.5 32.3 C 211.5 32.3 211.5 37.5 211.5 37.5 C 211.5 38.5 211.6 38.6 212.5 38.7 C 212.52 38.69 212.5 39.1 212.5 39.1 L 209.2 39.1 Z M 217.1 34.3 C 216.8 33.4 216.3 32.8 215.6 32.8 C 215 32.8 214.6 33.3 214.6 33.8 C 214.6 34.5 215.2 34.9 215.9 35.1 C 217 35.6 217.8 36.2 217.8 37.2 C 217.8 38.6 216.5 39.3 215.3 39.3 C 214.5 39.3 213.8 39 213.6 38.7 C 213.5 38.5 213.3 37.5 213.3 37 C 213.3 37 213.7 36.9 213.7 36.9 C 214 37.9 214.7 38.8 215.6 38.8 C 216.1 38.8 216.6 38.3 216.6 37.7 C 216.6 37.1 216.2 36.7 215.5 36.3 C 214.6 35.9 213.6 35.4 213.6 34.3 C 213.6 33.2 214.5 32.3 215.9 32.3 C 216.5 32.3 216.9 32.5 217.2 32.6 C 217.3 32.9 217.5 33.8 217.5 34.2 C 217.5 34.2 217.1 34.3 217.1 34.3 Z M 219.5 30.3 C 219.5 29.8 219.9 29.5 220.3 29.5 C 220.7 29.5 221 29.8 221 30.3 C 221 30.7 220.7 31 220.3 31 C 219.9 31 219.5 30.7 219.5 30.3 Z M 218.7 39.1 C 218.7 39.1 218.71 38.69 218.7 38.7 C 219.7 38.6 219.8 38.5 219.8 37.5 C 219.8 37.5 219.8 34.4 219.8 34.4 C 219.8 33.5 219.7 33.4 218.8 33.3 C 218.8 33.3 218.8 32.9 218.8 32.9 C 219.6 32.8 220.3 32.6 220.9 32.3 C 220.9 32.3 220.9 37.5 220.9 37.5 C 220.9 38.5 221 38.6 222 38.7 C 222 38.69 222 39.1 222 39.1 L 218.7 39.1 Z M 225.5 39.1 C 225.3 39.2 225 39.3 224.9 39.3 C 223.9 39.3 223.4 38.7 223.4 37.5 C 223.42 37.47 223.4 33.1 223.4 33.1 L 222.4 33.1 L 222.3 33 L 222.7 32.5 L 223.4 32.5 L 223.4 31.4 L 224.4 30.4 L 224.6 30.5 L 224.6 32.5 C 224.6 32.5 226.29 32.52 226.3 32.5 C 226.4 32.7 226.4 33 226.2 33.1 C 226.2 33.11 224.6 33.1 224.6 33.1 C 224.6 33.1 224.6 36.96 224.6 37 C 224.6 38.2 225.1 38.4 225.5 38.4 C 225.8 38.4 226.2 38.3 226.4 38.1 C 226.4 38.15 226.5 38.5 226.5 38.5 C 226.5 38.5 225.51 39.06 225.5 39.1 Z M 231.9 39.3 C 231.7 39.3 231.4 39.1 231.2 39 C 231.1 38.8 231 38.6 230.9 38.3 C 230.3 38.7 229.6 39.3 229.1 39.3 C 228.1 39.3 227.3 38.4 227.3 37.4 C 227.3 36.7 227.7 36.2 228.5 35.9 C 229.4 35.6 230.5 35.2 230.9 35 C 230.9 35 230.9 34.7 230.9 34.7 C 230.9 33.6 230.3 33 229.6 33 C 229.3 33 229.1 33.1 228.9 33.3 C 228.7 33.5 228.6 33.8 228.5 34.3 C 228.4 34.5 228.2 34.6 228 34.6 C 227.8 34.6 227.4 34.3 227.4 34 C 227.4 33.8 227.6 33.6 227.9 33.4 C 228.3 33.1 229.3 32.5 230.1 32.3 C 230.6 32.3 231 32.5 231.3 32.7 C 231.9 33.2 232 33.8 232 34.6 C 232 34.6 232 37.4 232 37.4 C 232 38 232.3 38.3 232.5 38.3 C 232.7 38.3 232.9 38.2 233.1 38.1 C 233.07 38.1 233.2 38.5 233.2 38.5 C 233.2 38.5 231.95 39.26 231.9 39.3 Z M 230.9 35.5 C 230.5 35.6 229.8 36 229.5 36.1 C 228.9 36.4 228.6 36.7 228.6 37.2 C 228.6 38 229.2 38.4 229.7 38.4 C 230 38.3 230.6 38.1 230.9 37.8 C 230.9 37.8 230.9 35.5 230.9 35.5 Z M 236.5 39.1 C 236.2 39.2 236 39.3 235.8 39.3 C 234.9 39.3 234.4 38.7 234.4 37.5 C 234.38 37.47 234.4 33.1 234.4 33.1 L 233.3 33.1 L 233.3 33 L 233.7 32.5 L 234.4 32.5 L 234.4 31.4 L 235.4 30.4 L 235.6 30.5 L 235.6 32.5 C 235.6 32.5 237.26 32.52 237.3 32.5 C 237.4 32.7 237.3 33 237.2 33.1 C 237.17 33.11 235.6 33.1 235.6 33.1 C 235.6 33.1 235.56 36.96 235.6 37 C 235.6 38.2 236.1 38.4 236.4 38.4 C 236.8 38.4 237.2 38.3 237.4 38.1 C 237.36 38.15 237.5 38.5 237.5 38.5 C 237.5 38.5 236.48 39.06 236.5 39.1 Z M 239 30.3 C 239 29.8 239.3 29.5 239.7 29.5 C 240.1 29.5 240.5 29.8 240.5 30.3 C 240.5 30.7 240.1 31 239.7 31 C 239.3 31 239 30.7 239 30.3 Z M 238.2 39.1 C 238.2 39.1 238.16 38.69 238.2 38.7 C 239.1 38.6 239.2 38.5 239.2 37.5 C 239.2 37.5 239.2 34.4 239.2 34.4 C 239.2 33.5 239.2 33.4 238.3 33.3 C 238.3 33.3 238.3 32.9 238.3 32.9 C 239 32.8 239.7 32.6 240.4 32.3 C 240.4 32.3 240.4 37.5 240.4 37.5 C 240.4 38.5 240.5 38.6 241.5 38.7 C 241.46 38.69 241.5 39.1 241.5 39.1 L 238.2 39.1 Z M 248.8 35.7 C 248.8 38.1 247 39.3 245.5 39.3 C 243.5 39.3 242.3 37.6 242.3 35.9 C 242.3 33.5 244.2 32.3 245.5 32.3 C 247.4 32.3 248.8 33.8 248.8 35.7 Z M 243.6 35.5 C 243.6 37.4 244.5 38.8 245.7 38.8 C 246.6 38.8 247.4 38.1 247.4 36 C 247.4 34.3 246.7 32.8 245.4 32.8 C 244.5 32.8 243.6 33.8 243.6 35.5 Z M 253.9 39.1 C 253.9 39.1 253.9 38.69 253.9 38.7 C 254.8 38.6 254.9 38.5 254.9 37.4 C 254.9 37.4 254.9 34.9 254.9 34.9 C 254.9 33.9 254.5 33.2 253.5 33.2 C 252.9 33.2 252.3 33.6 251.9 34 C 251.9 34 251.9 37.5 251.9 37.5 C 251.9 38.5 252 38.6 252.9 38.7 C 252.86 38.69 252.9 39.1 252.9 39.1 L 249.6 39.1 C 249.6 39.1 249.61 38.69 249.6 38.7 C 250.6 38.6 250.7 38.5 250.7 37.5 C 250.7 37.5 250.7 34.4 250.7 34.4 C 250.7 33.5 250.6 33.4 249.8 33.3 C 249.8 33.3 249.8 32.9 249.8 32.9 C 250.5 32.8 251.2 32.6 251.9 32.3 C 251.9 32.3 251.9 33.5 251.9 33.5 C 252.2 33.3 252.5 33 252.9 32.8 C 253.3 32.5 253.7 32.3 254.1 32.3 C 255.3 32.3 256.1 33.2 256.1 34.6 C 256.1 34.6 256.1 37.5 256.1 37.5 C 256.1 38.5 256.1 38.6 257 38.7 C 257.01 38.69 257 39.1 257 39.1 L 253.9 39.1 Z M 266.7 37.8 C 265.8 39 264.7 39.3 264.3 39.3 C 262.4 39.3 261.3 37.8 261.3 36.1 C 261.3 35 261.7 34.1 262.3 33.4 C 262.9 32.7 263.7 32.3 264.5 32.3 C 265.8 32.3 266.8 33.5 266.8 34.6 C 266.8 34.9 266.7 35 266.4 35.1 C 266.2 35.1 264.3 35.3 262.5 35.4 C 262.5 37.4 263.7 38.2 264.8 38.2 C 265.4 38.2 265.9 38 266.5 37.5 C 266.5 37.5 266.7 37.8 266.7 37.8 Z M 262.6 34.7 C 263.4 34.7 264.3 34.7 265.1 34.7 C 265.4 34.7 265.5 34.6 265.5 34.4 C 265.5 33.6 265 32.9 264.2 32.9 C 263.5 32.9 262.8 33.5 262.6 34.7 Z M 271.9 39.1 C 271.9 39.1 271.88 38.69 271.9 38.7 C 272.8 38.6 272.9 38.5 272.9 37.4 C 272.9 37.4 272.9 34.9 272.9 34.9 C 272.9 33.9 272.5 33.2 271.5 33.2 C 270.9 33.2 270.3 33.6 269.9 34 C 269.9 34 269.9 37.5 269.9 37.5 C 269.9 38.5 270 38.6 270.8 38.7 C 270.84 38.69 270.8 39.1 270.8 39.1 L 267.6 39.1 C 267.6 39.1 267.59 38.69 267.6 38.7 C 268.6 38.6 268.7 38.5 268.7 37.5 C 268.7 37.5 268.7 34.4 268.7 34.4 C 268.7 33.5 268.6 33.4 267.8 33.3 C 267.8 33.3 267.8 32.9 267.8 32.9 C 268.5 32.8 269.2 32.6 269.9 32.3 C 269.9 32.3 269.9 33.5 269.9 33.5 C 270.2 33.3 270.5 33 270.9 32.8 C 271.3 32.5 271.7 32.3 272.1 32.3 C 273.3 32.3 274.1 33.2 274.1 34.6 C 274.1 34.6 274.1 37.5 274.1 37.5 C 274.1 38.5 274.1 38.6 275 38.7 C 275 38.69 275 39.1 275 39.1 L 271.9 39.1 Z M 280 39.1 C 280 39.1 279.96 38.69 280 38.7 C 280.8 38.6 281 38.5 281 37.5 C 281 37.5 281 35 281 35 C 281 33.8 280.5 33.2 279.5 33.2 C 278.9 33.2 278.3 33.5 277.9 34 C 277.9 34 277.9 37.5 277.9 37.5 C 277.9 38.5 278 38.6 278.9 38.7 C 278.88 38.69 278.9 39.1 278.9 39.1 L 275.7 39.1 C 275.7 39.1 275.71 38.69 275.7 38.7 C 276.6 38.6 276.7 38.5 276.7 37.5 C 276.7 37.5 276.7 30.4 276.7 30.4 C 276.7 29.4 276.7 29.4 275.7 29.3 C 275.7 29.3 275.7 28.9 275.7 28.9 C 276.4 28.8 277.3 28.6 277.9 28.4 C 277.9 28.4 277.9 33.4 277.9 33.4 C 278.4 32.9 279.3 32.3 280.1 32.3 C 281.3 32.3 282.1 33.1 282.1 34.9 C 282.1 34.9 282.1 37.5 282.1 37.5 C 282.1 38.5 282.2 38.6 283.1 38.7 C 283.13 38.69 283.1 39.1 283.1 39.1 L 280 39.1 Z M 288.6 39.3 C 288.4 39.3 288.1 39.1 287.9 39 C 287.7 38.8 287.6 38.6 287.6 38.3 C 287 38.7 286.2 39.3 285.8 39.3 C 284.7 39.3 284 38.4 284 37.4 C 284 36.7 284.4 36.2 285.2 35.9 C 286.1 35.6 287.2 35.2 287.5 35 C 287.5 35 287.5 34.7 287.5 34.7 C 287.5 33.6 287 33 286.3 33 C 286 33 285.7 33.1 285.6 33.3 C 285.4 33.5 285.3 33.8 285.1 34.3 C 285.1 34.5 284.9 34.6 284.7 34.6 C 284.4 34.6 284 34.3 284 34 C 284 33.8 284.2 33.6 284.5 33.4 C 284.9 33.1 285.9 32.5 286.8 32.3 C 287.2 32.3 287.7 32.5 288 32.7 C 288.5 33.2 288.7 33.8 288.7 34.6 C 288.7 34.6 288.7 37.4 288.7 37.4 C 288.7 38 288.9 38.3 289.2 38.3 C 289.4 38.3 289.6 38.2 289.7 38.1 C 289.74 38.1 289.9 38.5 289.9 38.5 C 289.9 38.5 288.62 39.26 288.6 39.3 Z M 287.5 35.5 C 287.2 35.6 286.5 36 286.2 36.1 C 285.6 36.4 285.3 36.7 285.3 37.2 C 285.3 38 285.9 38.4 286.3 38.4 C 286.7 38.3 287.2 38.1 287.5 37.8 C 287.5 37.8 287.5 35.5 287.5 35.5 Z M 294.6 39.1 C 294.6 39.1 294.57 38.69 294.6 38.7 C 295.5 38.6 295.6 38.5 295.6 37.4 C 295.6 37.4 295.6 34.9 295.6 34.9 C 295.6 33.9 295.2 33.2 294.2 33.2 C 293.6 33.2 293 33.6 292.6 34 C 292.6 34 292.6 37.5 292.6 37.5 C 292.6 38.5 292.7 38.6 293.5 38.7 C 293.54 38.69 293.5 39.1 293.5 39.1 L 290.3 39.1 C 290.3 39.1 290.29 38.69 290.3 38.7 C 291.3 38.6 291.4 38.5 291.4 37.5 C 291.4 37.5 291.4 34.4 291.4 34.4 C 291.4 33.5 291.3 33.4 290.5 33.3 C 290.5 33.3 290.5 32.9 290.5 32.9 C 291.2 32.8 291.9 32.6 292.6 32.3 C 292.6 32.3 292.6 33.5 292.6 33.5 C 292.9 33.3 293.2 33 293.6 32.8 C 294 32.5 294.4 32.3 294.8 32.3 C 296 32.3 296.7 33.2 296.7 34.6 C 296.7 34.6 296.7 37.5 296.7 37.5 C 296.7 38.5 296.8 38.6 297.7 38.7 C 297.69 38.69 297.7 39.1 297.7 39.1 L 294.6 39.1 Z M 304.1 37.7 C 303.5 38.6 302.4 39.3 301.6 39.3 C 299.7 39.3 298.6 37.7 298.6 36.1 C 298.6 35 299.1 34 300.1 33.2 C 300.8 32.6 301.7 32.3 302.3 32.3 C 302.9 32.3 303.4 32.5 303.7 32.7 C 303.9 32.9 303.9 33 303.9 33.2 C 303.9 33.5 303.6 33.8 303.4 33.8 C 303.3 33.8 303.3 33.8 303.1 33.7 C 302.7 33.3 302.1 33.1 301.6 33.1 C 300.6 33.1 299.8 33.9 299.8 35.5 C 299.8 37.5 301.2 38.2 302 38.2 C 302.7 38.2 303.2 38.1 303.9 37.4 C 303.9 37.4 304.1 37.7 304.1 37.7 Z M 310.3 37.8 C 309.3 39 308.3 39.3 307.8 39.3 C 306 39.3 304.9 37.8 304.9 36.1 C 304.9 35 305.3 34.1 305.9 33.4 C 306.5 32.7 307.3 32.3 308.1 32.3 C 309.3 32.3 310.3 33.5 310.3 34.6 C 310.3 34.9 310.3 35 310 35.1 C 309.7 35.1 307.9 35.3 306.1 35.4 C 306.1 37.4 307.3 38.2 308.3 38.2 C 308.9 38.2 309.5 38 310 37.5 C 310 37.5 310.3 37.8 310.3 37.8 Z M 306.2 34.7 C 307 34.7 307.8 34.7 308.7 34.7 C 309 34.7 309.1 34.6 309.1 34.4 C 309.1 33.6 308.6 32.9 307.7 32.9 C 307 32.9 306.4 33.5 306.2 34.7 Z M 315.1 34.3 C 314.8 33.4 314.3 32.8 313.6 32.8 C 313 32.8 312.6 33.3 312.6 33.8 C 312.6 34.5 313.2 34.9 313.9 35.1 C 315 35.6 315.8 36.2 315.8 37.2 C 315.8 38.6 314.5 39.3 313.3 39.3 C 312.5 39.3 311.8 39 311.6 38.7 C 311.5 38.5 311.3 37.5 311.3 37 C 311.3 37 311.7 36.9 311.7 36.9 C 312 37.9 312.7 38.8 313.6 38.8 C 314.1 38.8 314.6 38.3 314.6 37.7 C 314.6 37.1 314.2 36.7 313.4 36.3 C 312.5 35.9 311.6 35.4 311.6 34.3 C 311.6 33.2 312.5 32.3 313.8 32.3 C 314.5 32.3 314.9 32.5 315.2 32.6 C 315.3 32.9 315.5 33.8 315.5 34.2 C 315.5 34.2 315.1 34.3 315.1 34.3 Z M 323.1 39.1 C 322.8 39.2 322.6 39.3 322.4 39.3 C 321.5 39.3 321 38.7 321 37.5 C 320.97 37.47 321 33.1 321 33.1 L 319.9 33.1 L 319.9 33 L 320.3 32.5 L 321 32.5 L 321 31.4 L 321.9 30.4 L 322.2 30.5 L 322.2 32.5 C 322.2 32.5 323.85 32.52 323.9 32.5 C 324 32.7 323.9 33 323.8 33.1 C 323.76 33.11 322.2 33.1 322.2 33.1 C 322.2 33.1 322.16 36.96 322.2 37 C 322.2 38.2 322.7 38.4 323 38.4 C 323.4 38.4 323.7 38.3 324 38.1 C 323.96 38.15 324.1 38.5 324.1 38.5 C 324.1 38.5 323.07 39.06 323.1 39.1 Z M 328.8 39.1 C 328.8 39.1 328.82 38.69 328.8 38.7 C 329.7 38.6 329.8 38.5 329.8 37.5 C 329.8 37.5 329.8 35 329.8 35 C 329.8 33.8 329.3 33.2 328.3 33.2 C 327.8 33.2 327.2 33.5 326.8 34 C 326.8 34 326.8 37.5 326.8 37.5 C 326.8 38.5 326.9 38.6 327.7 38.7 C 327.74 38.69 327.7 39.1 327.7 39.1 L 324.6 39.1 C 324.6 39.1 324.56 38.69 324.6 38.7 C 325.5 38.6 325.6 38.5 325.6 37.5 C 325.6 37.5 325.6 30.4 325.6 30.4 C 325.6 29.4 325.6 29.4 324.6 29.3 C 324.6 29.3 324.6 28.9 324.6 28.9 C 325.3 28.8 326.2 28.6 326.8 28.4 C 326.8 28.4 326.8 33.4 326.8 33.4 C 327.3 32.9 328.1 32.3 328.9 32.3 C 330.1 32.3 331 33.1 331 34.9 C 331 34.9 331 37.5 331 37.5 C 331 38.5 331.1 38.6 332 38.7 C 331.98 38.69 332 39.1 332 39.1 L 328.8 39.1 Z M 338.2 37.8 C 337.2 39 336.2 39.3 335.7 39.3 C 333.9 39.3 332.8 37.8 332.8 36.1 C 332.8 35 333.2 34.1 333.8 33.4 C 334.4 32.7 335.2 32.3 336 32.3 C 337.2 32.3 338.2 33.5 338.2 34.6 C 338.2 34.9 338.2 35 337.9 35.1 C 337.6 35.1 335.8 35.3 334 35.4 C 334 37.4 335.2 38.2 336.2 38.2 C 336.8 38.2 337.4 38 337.9 37.5 C 337.9 37.5 338.2 37.8 338.2 37.8 Z M 334.1 34.7 C 334.9 34.7 335.7 34.7 336.6 34.7 C 336.9 34.7 336.9 34.6 336.9 34.4 C 337 33.6 336.5 32.9 335.6 32.9 C 334.9 32.9 334.3 33.5 334.1 34.7 Z " stroke="none" fill="#000"/>  </g>  <g id="Polygon8958">    <path d="M 222.4 17.7 C 222.4 20.1 220.6 21.3 219.1 21.3 C 217.1 21.3 215.8 19.6 215.8 17.9 C 215.8 15.5 217.8 14.3 219.1 14.3 C 221 14.3 222.4 15.8 222.4 17.7 Z M 217.2 17.5 C 217.2 19.4 218.1 20.8 219.3 20.8 C 220.2 20.8 221 20.1 221 18 C 221 16.3 220.3 14.8 219 14.8 C 218 14.8 217.2 15.8 217.2 17.5 Z M 224.3 14.5 C 224.3 14.5 224.27 14.19 224.3 14.2 C 224.3 13.7 224.3 13.3 224.4 13 C 224.5 12.6 224.8 11.9 225.6 11.2 C 226.1 10.7 226.7 10.5 227.2 10.4 C 227.8 10.4 228.2 10.6 228.4 10.9 C 228.6 11.1 228.6 11.3 228.5 11.4 C 228.5 11.6 228.4 11.7 228.2 11.8 C 228.1 11.9 227.9 11.9 227.8 11.7 C 227.5 11.5 227.1 11.2 226.6 11.2 C 226.2 11.2 226 11.4 225.8 11.6 C 225.6 11.9 225.4 12.6 225.5 13.9 C 225.46 13.92 225.5 14.5 225.5 14.5 C 225.5 14.5 227.23 14.52 227.2 14.5 C 227.3 14.7 227.2 15 227.1 15.1 C 227.08 15.11 225.5 15.1 225.5 15.1 C 225.5 15.1 225.46 19.43 225.5 19.4 C 225.5 20.5 225.6 20.6 226.7 20.7 C 226.75 20.7 226.7 21.1 226.7 21.1 L 223.2 21.1 C 223.2 21.1 223.21 20.69 223.2 20.7 C 224.2 20.6 224.3 20.5 224.3 19.5 C 224.27 19.53 224.3 15.1 224.3 15.1 L 223.2 15.1 L 223.2 15 L 223.6 14.5 L 224.3 14.5 Z M 235.8 21.3 C 235.6 21.3 235.3 21.1 235.1 21 C 234.9 20.8 234.8 20.6 234.8 20.3 C 234.2 20.7 233.4 21.3 233 21.3 C 231.9 21.3 231.2 20.4 231.2 19.4 C 231.2 18.7 231.6 18.2 232.4 17.9 C 233.3 17.6 234.4 17.2 234.7 17 C 234.7 17 234.7 16.7 234.7 16.7 C 234.7 15.6 234.2 15 233.5 15 C 233.2 15 232.9 15.1 232.8 15.3 C 232.6 15.5 232.5 15.8 232.3 16.3 C 232.3 16.5 232.1 16.6 231.9 16.6 C 231.6 16.6 231.2 16.3 231.2 16 C 231.2 15.8 231.4 15.6 231.7 15.4 C 232.1 15.1 233.1 14.5 234 14.3 C 234.4 14.3 234.9 14.5 235.2 14.7 C 235.7 15.2 235.9 15.8 235.9 16.6 C 235.9 16.6 235.9 19.4 235.9 19.4 C 235.9 20 236.1 20.3 236.4 20.3 C 236.6 20.3 236.8 20.2 236.9 20.1 C 236.94 20.1 237.1 20.5 237.1 20.5 C 237.1 20.5 235.82 21.26 235.8 21.3 Z M 234.7 17.5 C 234.4 17.6 233.7 18 233.4 18.1 C 232.8 18.4 232.5 18.7 232.5 19.2 C 232.5 20 233.1 20.4 233.5 20.4 C 233.9 20.3 234.4 20.1 234.7 19.8 C 234.7 19.8 234.7 17.5 234.7 17.5 Z M 237.5 21.1 C 237.5 21.1 237.49 20.69 237.5 20.7 C 238.4 20.6 238.6 20.5 238.6 19.5 C 238.6 19.5 238.6 12.4 238.6 12.4 C 238.6 11.4 238.5 11.4 237.5 11.3 C 237.5 11.3 237.5 10.9 237.5 10.9 C 238.3 10.8 239.2 10.6 239.7 10.4 C 239.7 10.4 239.7 19.5 239.7 19.5 C 239.7 20.5 239.9 20.6 240.8 20.7 C 240.83 20.69 240.8 21.1 240.8 21.1 L 237.5 21.1 Z M 241.4 21.1 C 241.4 21.1 241.36 20.69 241.4 20.7 C 242.3 20.6 242.4 20.5 242.4 19.5 C 242.4 19.5 242.4 12.4 242.4 12.4 C 242.4 11.4 242.3 11.4 241.4 11.3 C 241.4 11.3 241.4 10.9 241.4 10.9 C 242.2 10.8 243.1 10.6 243.6 10.4 C 243.6 10.4 243.6 19.5 243.6 19.5 C 243.6 20.5 243.7 20.6 244.7 20.7 C 244.7 20.69 244.7 21.1 244.7 21.1 L 241.4 21.1 Z M 255.4 17.7 C 255.4 20.1 253.7 21.3 252.2 21.3 C 250.1 21.3 248.9 19.6 248.9 17.9 C 248.9 15.5 250.8 14.3 252.2 14.3 C 254 14.3 255.4 15.8 255.4 17.7 Z M 250.3 17.5 C 250.3 19.4 251.1 20.8 252.3 20.8 C 253.3 20.8 254 20.1 254 18 C 254 16.3 253.3 14.8 252 14.8 C 251.1 14.8 250.3 15.8 250.3 17.5 Z M 257.3 14.5 C 257.3 14.5 257.32 14.19 257.3 14.2 C 257.3 13.7 257.4 13.3 257.5 13 C 257.6 12.6 257.8 11.9 258.6 11.2 C 259.2 10.7 259.7 10.5 260.3 10.4 C 260.8 10.4 261.2 10.6 261.5 10.9 C 261.6 11.1 261.6 11.3 261.5 11.4 C 261.5 11.6 261.4 11.7 261.3 11.8 C 261.1 11.9 261 11.9 260.9 11.7 C 260.6 11.5 260.1 11.2 259.6 11.2 C 259.2 11.2 259 11.4 258.8 11.6 C 258.6 11.9 258.5 12.6 258.5 13.9 C 258.5 13.92 258.5 14.5 258.5 14.5 C 258.5 14.5 260.27 14.52 260.3 14.5 C 260.4 14.7 260.3 15 260.1 15.1 C 260.12 15.11 258.5 15.1 258.5 15.1 C 258.5 15.1 258.5 19.43 258.5 19.4 C 258.5 20.5 258.6 20.6 259.8 20.7 C 259.79 20.7 259.8 21.1 259.8 21.1 L 256.3 21.1 C 256.3 21.1 256.25 20.69 256.3 20.7 C 257.2 20.6 257.3 20.5 257.3 19.5 C 257.32 19.53 257.3 15.1 257.3 15.1 L 256.3 15.1 L 256.2 15 L 256.6 14.5 L 257.3 14.5 Z M 270.1 21.1 C 270.1 21.1 270.07 20.66 270.1 20.7 C 271 20.5 271.1 20.4 271 19.8 C 270.8 19.2 270.5 18.4 270.1 17.5 C 270.1 17.5 266.9 17.5 266.9 17.5 C 266.7 18.2 266.5 18.8 266.3 19.5 C 265.9 20.4 266.1 20.6 267.2 20.7 C 267.2 20.66 267.2 21.1 267.2 21.1 L 263.9 21.1 C 263.9 21.1 263.95 20.66 263.9 20.7 C 264.9 20.5 265.1 20.4 265.6 19.1 C 265.62 19.11 268.7 11.2 268.7 11.2 C 268.7 11.2 269.19 11.1 269.2 11.1 C 270.1 13.7 271.1 16.5 272.1 19.1 C 272.6 20.4 272.8 20.6 273.7 20.7 C 273.74 20.66 273.7 21.1 273.7 21.1 L 270.1 21.1 Z M 268.6 13.1 C 268.6 13.1 268.56 13.05 268.6 13.1 C 268.1 14.3 267.6 15.6 267.2 16.9 C 267.15 16.88 269.9 16.9 269.9 16.9 L 268.6 13.1 Z M 282.7 21.1 C 282.7 21.1 282.71 20.69 282.7 20.7 C 283.6 20.6 283.8 20.5 283.8 19.5 C 283.8 19.5 283.8 17 283.8 17 C 283.8 15.9 283.4 15.2 282.4 15.2 C 281.9 15.2 281.3 15.5 280.8 16 C 280.8 16.2 280.8 16.4 280.8 16.6 C 280.8 16.6 280.8 19.6 280.8 19.6 C 280.8 20.5 280.9 20.6 281.8 20.7 C 281.76 20.69 281.8 21.1 281.8 21.1 L 278.6 21.1 C 278.6 21.1 278.55 20.69 278.6 20.7 C 279.5 20.6 279.6 20.5 279.6 19.5 C 279.6 19.5 279.6 17 279.6 17 C 279.6 15.8 279.2 15.2 278.3 15.2 C 277.7 15.2 277.1 15.6 276.7 16 C 276.7 16 276.7 19.5 276.7 19.5 C 276.7 20.5 276.8 20.6 277.5 20.7 C 277.53 20.69 277.5 21.1 277.5 21.1 L 274.4 21.1 C 274.4 21.1 274.37 20.69 274.4 20.7 C 275.4 20.6 275.5 20.5 275.5 19.5 C 275.5 19.5 275.5 16.4 275.5 16.4 C 275.5 15.5 275.5 15.4 274.6 15.3 C 274.6 15.3 274.6 14.9 274.6 14.9 C 275.2 14.8 276 14.6 276.7 14.3 C 276.7 14.3 276.7 15.5 276.7 15.5 C 277 15.3 277.3 15 277.8 14.7 C 278.1 14.5 278.5 14.3 279 14.3 C 279.7 14.3 280.4 14.8 280.7 15.6 C 281.1 15.2 281.5 15 281.9 14.7 C 282.2 14.5 282.6 14.3 283 14.3 C 284.2 14.3 284.9 15.2 284.9 16.6 C 284.9 16.6 284.9 19.5 284.9 19.5 C 284.9 20.5 285 20.6 285.9 20.7 C 285.9 20.69 285.9 21.1 285.9 21.1 L 282.7 21.1 Z M 292.1 19.8 C 291.2 21 290.1 21.3 289.7 21.3 C 287.8 21.3 286.7 19.8 286.7 18.1 C 286.7 17 287.1 16.1 287.7 15.4 C 288.3 14.7 289.2 14.3 289.9 14.3 C 291.2 14.3 292.2 15.5 292.2 16.6 C 292.2 16.9 292.1 17 291.8 17.1 C 291.6 17.1 289.7 17.3 287.9 17.4 C 287.9 19.4 289.1 20.2 290.2 20.2 C 290.8 20.2 291.3 20 291.9 19.5 C 291.9 19.5 292.1 19.8 292.1 19.8 Z M 288 16.7 C 288.8 16.7 289.7 16.7 290.5 16.7 C 290.8 16.7 290.9 16.6 290.9 16.4 C 290.9 15.6 290.4 14.9 289.6 14.9 C 288.9 14.9 288.2 15.5 288 16.7 Z M 295.3 15.9 C 295.8 15.2 296.4 14.3 297.1 14.3 C 297.6 14.3 298 14.7 298 15.1 C 298 15.4 297.8 15.7 297.5 15.8 C 297.3 15.9 297.2 15.9 297.1 15.8 C 296.9 15.6 296.7 15.5 296.5 15.5 C 296.1 15.5 295.6 15.9 295.3 16.8 C 295.3 16.8 295.3 19.5 295.3 19.5 C 295.3 20.5 295.4 20.6 296.5 20.7 C 296.51 20.69 296.5 21.1 296.5 21.1 L 293.1 21.1 C 293.1 21.1 293.06 20.69 293.1 20.7 C 294 20.6 294.1 20.5 294.1 19.5 C 294.1 19.5 294.1 16.4 294.1 16.4 C 294.1 15.4 294 15.4 293.2 15.2 C 293.2 15.2 293.2 14.9 293.2 14.9 C 293.9 14.8 294.6 14.6 295.3 14.3 C 295.28 14.3 295.3 15.9 295.3 15.9 C 295.3 15.9 295.31 15.93 295.3 15.9 Z M 299.5 12.3 C 299.5 11.8 299.9 11.5 300.3 11.5 C 300.7 11.5 301 11.8 301 12.3 C 301 12.7 300.7 13 300.2 13 C 299.9 13 299.5 12.7 299.5 12.3 Z M 298.7 21.1 C 298.7 21.1 298.7 20.69 298.7 20.7 C 299.6 20.6 299.7 20.5 299.7 19.5 C 299.7 19.5 299.7 16.4 299.7 16.4 C 299.7 15.5 299.7 15.4 298.8 15.3 C 298.8 15.3 298.8 14.9 298.8 14.9 C 299.6 14.8 300.3 14.6 300.9 14.3 C 300.9 14.3 300.9 19.5 300.9 19.5 C 300.9 20.5 301 20.6 302 20.7 C 302 20.69 302 21.1 302 21.1 L 298.7 21.1 Z M 308.4 19.7 C 307.7 20.6 306.7 21.3 305.8 21.3 C 303.9 21.3 302.8 19.7 302.8 18.1 C 302.8 17 303.3 16 304.3 15.2 C 305.1 14.6 306 14.3 306.6 14.3 C 307.2 14.3 307.7 14.5 307.9 14.7 C 308.1 14.9 308.1 15 308.1 15.2 C 308.1 15.5 307.8 15.8 307.7 15.8 C 307.6 15.8 307.5 15.8 307.4 15.7 C 306.9 15.3 306.4 15.1 305.9 15.1 C 304.9 15.1 304 15.9 304 17.5 C 304 19.5 305.4 20.2 306.3 20.2 C 306.9 20.2 307.4 20.1 308.1 19.4 C 308.1 19.4 308.4 19.7 308.4 19.7 Z M 313.8 21.3 C 313.6 21.3 313.3 21.1 313.1 21 C 312.9 20.8 312.9 20.6 312.8 20.3 C 312.2 20.7 311.5 21.3 311 21.3 C 309.9 21.3 309.2 20.4 309.2 19.4 C 309.2 18.7 309.6 18.2 310.4 17.9 C 311.3 17.6 312.4 17.2 312.8 17 C 312.8 17 312.8 16.7 312.8 16.7 C 312.8 15.6 312.2 15 311.5 15 C 311.2 15 311 15.1 310.8 15.3 C 310.6 15.5 310.5 15.8 310.4 16.3 C 310.3 16.5 310.1 16.6 309.9 16.6 C 309.7 16.6 309.3 16.3 309.3 16 C 309.3 15.8 309.5 15.6 309.8 15.4 C 310.2 15.1 311.1 14.5 312 14.3 C 312.5 14.3 312.9 14.5 313.2 14.7 C 313.8 15.2 313.9 15.8 313.9 16.6 C 313.9 16.6 313.9 19.4 313.9 19.4 C 313.9 20 314.2 20.3 314.4 20.3 C 314.6 20.3 314.8 20.2 315 20.1 C 314.97 20.1 315.1 20.5 315.1 20.5 C 315.1 20.5 313.85 21.26 313.8 21.3 Z M 312.8 17.5 C 312.4 17.6 311.7 18 311.4 18.1 C 310.8 18.4 310.5 18.7 310.5 19.2 C 310.5 20 311.1 20.4 311.6 20.4 C 311.9 20.3 312.5 20.1 312.8 19.8 C 312.8 19.8 312.8 17.5 312.8 17.5 Z M 316.7 12 C 316.7 13 315.8 13.7 314.8 13.9 C 314.8 13.9 314.7 13.5 314.7 13.5 C 315.4 13.2 315.8 12.9 315.8 12.2 C 315.8 11.7 315.4 11.4 314.9 11.3 C 314.8 11.3 314.7 11.2 314.7 11 C 314.7 10.6 315.1 10.4 315.3 10.4 C 316 10.4 316.7 11 316.7 12 Z M 320.4 16.3 C 320.1 15.4 319.5 14.8 318.8 14.8 C 318.2 14.8 317.8 15.3 317.8 15.8 C 317.8 16.5 318.4 16.9 319.1 17.1 C 320.2 17.6 321 18.2 321 19.2 C 321 20.6 319.7 21.3 318.5 21.3 C 317.8 21.3 317.1 21 316.8 20.7 C 316.7 20.5 316.6 19.5 316.6 19 C 316.6 19 317 18.9 317 18.9 C 317.2 19.9 317.9 20.8 318.8 20.8 C 319.4 20.8 319.9 20.3 319.9 19.7 C 319.9 19.1 319.4 18.7 318.7 18.3 C 317.8 17.9 316.8 17.4 316.8 16.3 C 316.8 15.2 317.7 14.3 319.1 14.3 C 319.7 14.3 320.1 14.5 320.4 14.6 C 320.5 14.9 320.7 15.8 320.7 16.2 C 320.7 16.2 320.4 16.3 320.4 16.3 Z M 329.6 21.1 C 329.6 21.1 329.58 20.69 329.6 20.7 C 330.5 20.6 330.6 20.5 330.6 19.4 C 330.6 19.4 330.6 16.9 330.6 16.9 C 330.6 15.9 330.2 15.2 329.2 15.2 C 328.6 15.2 328 15.6 327.6 16 C 327.6 16 327.6 19.5 327.6 19.5 C 327.6 20.5 327.7 20.6 328.5 20.7 C 328.55 20.69 328.5 21.1 328.5 21.1 L 325.3 21.1 C 325.3 21.1 325.29 20.69 325.3 20.7 C 326.3 20.6 326.4 20.5 326.4 19.5 C 326.4 19.5 326.4 16.4 326.4 16.4 C 326.4 15.5 326.3 15.4 325.5 15.3 C 325.5 15.3 325.5 14.9 325.5 14.9 C 326.2 14.8 326.9 14.6 327.6 14.3 C 327.6 14.3 327.6 15.5 327.6 15.5 C 327.9 15.3 328.2 15 328.6 14.8 C 329 14.5 329.4 14.3 329.8 14.3 C 331 14.3 331.8 15.2 331.8 16.6 C 331.8 16.6 331.8 19.5 331.8 19.5 C 331.8 20.5 331.8 20.6 332.7 20.7 C 332.7 20.69 332.7 21.1 332.7 21.1 L 329.6 21.1 Z M 338.2 21.3 C 338 21.3 337.7 21.1 337.5 21 C 337.3 20.8 337.2 20.6 337.2 20.3 C 336.6 20.7 335.9 21.3 335.4 21.3 C 334.3 21.3 333.6 20.4 333.6 19.4 C 333.6 18.7 334 18.2 334.8 17.9 C 335.7 17.6 336.8 17.2 337.1 17 C 337.1 17 337.1 16.7 337.1 16.7 C 337.1 15.6 336.6 15 335.9 15 C 335.6 15 335.4 15.1 335.2 15.3 C 335 15.5 334.9 15.8 334.8 16.3 C 334.7 16.5 334.5 16.6 334.3 16.6 C 334.1 16.6 333.7 16.3 333.7 16 C 333.7 15.8 333.9 15.6 334.1 15.4 C 334.6 15.1 335.5 14.5 336.4 14.3 C 336.8 14.3 337.3 14.5 337.6 14.7 C 338.1 15.2 338.3 15.8 338.3 16.6 C 338.3 16.6 338.3 19.4 338.3 19.4 C 338.3 20 338.6 20.3 338.8 20.3 C 339 20.3 339.2 20.2 339.4 20.1 C 339.36 20.1 339.5 20.5 339.5 20.5 C 339.5 20.5 338.24 21.26 338.2 21.3 Z M 337.1 17.5 C 336.8 17.6 336.1 18 335.8 18.1 C 335.2 18.4 334.9 18.7 334.9 19.2 C 334.9 20 335.5 20.4 335.9 20.4 C 336.3 20.3 336.9 20.1 337.1 19.8 C 337.1 19.8 337.1 17.5 337.1 17.5 Z M 343.9 18.1 L 340.5 18.1 L 340.7 17.3 L 344.1 17.3 L 343.9 18.1 Z " stroke="none" fill="#000"/>  </g>  <g id="Polygon8957">    <path d="M 142.7 21.1 C 142.7 21.1 142.73 20.69 142.7 20.7 C 143.7 20.6 143.8 20.5 143.8 19.5 C 143.8 19.5 143.8 12.4 143.8 12.4 C 143.8 11.4 143.7 11.4 142.8 11.3 C 142.8 11.3 142.8 10.9 142.8 10.9 C 143.6 10.8 144.5 10.6 145 10.4 C 145 10.4 145 19.5 145 19.5 C 145 20.5 145.1 20.6 146.1 20.7 C 146.08 20.69 146.1 21.1 146.1 21.1 L 142.7 21.1 Z M 152.2 19.8 C 151.3 21 150.2 21.3 149.8 21.3 C 147.9 21.3 146.9 19.8 146.9 18.1 C 146.9 17 147.2 16.1 147.8 15.4 C 148.5 14.7 149.3 14.3 150.1 14.3 C 151.3 14.3 152.3 15.5 152.3 16.6 C 152.3 16.9 152.2 17 152 17.1 C 151.7 17.1 149.8 17.3 148 17.4 C 148.1 19.4 149.2 20.2 150.3 20.2 C 150.9 20.2 151.4 20 152 19.5 C 152 19.5 152.2 19.8 152.2 19.8 Z M 148.1 16.7 C 149 16.7 149.8 16.7 150.7 16.7 C 150.9 16.7 151 16.6 151 16.4 C 151 15.6 150.5 14.9 149.7 14.9 C 149 14.9 148.3 15.5 148.1 16.7 Z M 158 21.3 C 157.8 21.3 157.4 21.1 157.3 21 C 157.1 20.8 157 20.6 156.9 20.3 C 156.3 20.7 155.6 21.3 155.2 21.3 C 154.1 21.3 153.4 20.4 153.4 19.4 C 153.4 18.7 153.7 18.2 154.6 17.9 C 155.5 17.6 156.6 17.2 156.9 17 C 156.9 17 156.9 16.7 156.9 16.7 C 156.9 15.6 156.4 15 155.6 15 C 155.3 15 155.1 15.1 155 15.3 C 154.8 15.5 154.6 15.8 154.5 16.3 C 154.4 16.5 154.3 16.6 154.1 16.6 C 153.8 16.6 153.4 16.3 153.4 16 C 153.4 15.8 153.6 15.6 153.9 15.4 C 154.3 15.1 155.3 14.5 156.1 14.3 C 156.6 14.3 157 14.5 157.4 14.7 C 157.9 15.2 158 15.8 158 16.6 C 158 16.6 158 19.4 158 19.4 C 158 20 158.3 20.3 158.6 20.3 C 158.8 20.3 159 20.2 159.1 20.1 C 159.11 20.1 159.3 20.5 159.3 20.5 C 159.3 20.5 157.99 21.26 158 21.3 Z M 156.9 17.5 C 156.6 17.6 155.9 18 155.5 18.1 C 155 18.4 154.6 18.7 154.6 19.2 C 154.6 20 155.2 20.4 155.7 20.4 C 156.1 20.3 156.6 20.1 156.9 19.8 C 156.9 19.8 156.9 17.5 156.9 17.5 Z M 163.7 16.3 C 163.4 15.4 162.9 14.8 162.2 14.8 C 161.6 14.8 161.2 15.3 161.2 15.8 C 161.2 16.5 161.8 16.9 162.5 17.1 C 163.6 17.6 164.4 18.2 164.4 19.2 C 164.4 20.6 163.1 21.3 161.9 21.3 C 161.1 21.3 160.4 21 160.2 20.7 C 160.1 20.5 159.9 19.5 159.9 19 C 159.9 19 160.3 18.9 160.3 18.9 C 160.6 19.9 161.3 20.8 162.2 20.8 C 162.7 20.8 163.2 20.3 163.2 19.7 C 163.2 19.1 162.8 18.7 162 18.3 C 161.1 17.9 160.2 17.4 160.2 16.3 C 160.2 15.2 161.1 14.3 162.4 14.3 C 163.1 14.3 163.5 14.5 163.8 14.6 C 163.9 14.9 164.1 15.8 164.1 16.2 C 164.1 16.2 163.7 16.3 163.7 16.3 Z M 168.2 21.1 C 167.9 21.2 167.7 21.3 167.6 21.3 C 166.6 21.3 166.1 20.7 166.1 19.5 C 166.09 19.47 166.1 15.1 166.1 15.1 L 165.1 15.1 L 165 15 L 165.4 14.5 L 166.1 14.5 L 166.1 13.4 L 167.1 12.4 L 167.3 12.5 L 167.3 14.5 C 167.3 14.5 168.97 14.52 169 14.5 C 169.1 14.7 169.1 15 168.9 15.1 C 168.88 15.11 167.3 15.1 167.3 15.1 C 167.3 15.1 167.27 18.96 167.3 19 C 167.3 20.2 167.8 20.4 168.1 20.4 C 168.5 20.4 168.9 20.3 169.1 20.1 C 169.07 20.15 169.2 20.5 169.2 20.5 C 169.2 20.5 168.19 21.06 168.2 21.1 Z M 179.9 14.9 C 179.1 15 179 15.1 178.6 16 C 178.1 17.2 177.3 19 176.4 21.2 C 176.4 21.2 176 21.2 176 21.2 C 175.4 19.4 174.7 17.7 174 16 C 173.6 15.1 173.5 15 172.7 14.9 C 172.69 14.9 172.7 14.5 172.7 14.5 L 175.8 14.5 C 175.8 14.5 175.76 14.9 175.8 14.9 C 175 15 174.9 15.1 175.2 15.8 C 175.6 16.8 176.2 18.4 176.6 19.5 C 177.1 18.2 177.6 16.9 177.9 15.9 C 178.1 15.2 178.1 15 177.2 14.9 C 177.2 14.9 177.2 14.5 177.2 14.5 L 179.9 14.5 C 179.9 14.5 179.87 14.9 179.9 14.9 Z M 181 12.3 C 181 11.8 181.3 11.5 181.7 11.5 C 182.2 11.5 182.5 11.8 182.5 12.3 C 182.5 12.7 182.2 13 181.7 13 C 181.3 13 181 12.7 181 12.3 Z M 180.2 21.1 C 180.2 21.1 180.19 20.69 180.2 20.7 C 181.1 20.6 181.2 20.5 181.2 19.5 C 181.2 19.5 181.2 16.4 181.2 16.4 C 181.2 15.5 181.2 15.4 180.3 15.3 C 180.3 15.3 180.3 14.9 180.3 14.9 C 181.1 14.8 181.8 14.6 182.4 14.3 C 182.4 14.3 182.4 19.5 182.4 19.5 C 182.4 20.5 182.5 20.6 183.5 20.7 C 183.49 20.69 183.5 21.1 183.5 21.1 L 180.2 21.1 Z M 188.1 16.3 C 187.8 15.4 187.3 14.8 186.5 14.8 C 186 14.8 185.6 15.3 185.6 15.8 C 185.6 16.5 186.2 16.9 186.8 17.1 C 188 17.6 188.7 18.2 188.7 19.2 C 188.7 20.6 187.5 21.3 186.3 21.3 C 185.5 21.3 184.8 21 184.5 20.7 C 184.4 20.5 184.3 19.5 184.3 19 C 184.3 19 184.7 18.9 184.7 18.9 C 185 19.9 185.6 20.8 186.5 20.8 C 187.1 20.8 187.6 20.3 187.6 19.7 C 187.6 19.1 187.2 18.7 186.4 18.3 C 185.5 17.9 184.5 17.4 184.5 16.3 C 184.5 15.2 185.4 14.3 186.8 14.3 C 187.4 14.3 187.8 14.5 188.2 14.6 C 188.3 14.9 188.4 15.8 188.5 16.2 C 188.5 16.2 188.1 16.3 188.1 16.3 Z M 190.5 12.3 C 190.5 11.8 190.8 11.5 191.2 11.5 C 191.6 11.5 192 11.8 192 12.3 C 192 12.7 191.6 13 191.2 13 C 190.8 13 190.5 12.7 190.5 12.3 Z M 189.7 21.1 C 189.7 21.1 189.67 20.69 189.7 20.7 C 190.6 20.6 190.7 20.5 190.7 19.5 C 190.7 19.5 190.7 16.4 190.7 16.4 C 190.7 15.5 190.7 15.4 189.8 15.3 C 189.8 15.3 189.8 14.9 189.8 14.9 C 190.5 14.8 191.2 14.6 191.9 14.3 C 191.9 14.3 191.9 19.5 191.9 19.5 C 191.9 20.5 192 20.6 193 20.7 C 192.97 20.69 193 21.1 193 21.1 L 189.7 21.1 Z M 196.5 21.1 C 196.2 21.2 196 21.3 195.8 21.3 C 194.9 21.3 194.4 20.7 194.4 19.5 C 194.38 19.47 194.4 15.1 194.4 15.1 L 193.3 15.1 L 193.3 15 L 193.7 14.5 L 194.4 14.5 L 194.4 13.4 L 195.4 12.4 L 195.6 12.5 L 195.6 14.5 C 195.6 14.5 197.26 14.52 197.3 14.5 C 197.4 14.7 197.3 15 197.2 15.1 C 197.17 15.11 195.6 15.1 195.6 15.1 C 195.6 15.1 195.56 18.96 195.6 19 C 195.6 20.2 196.1 20.4 196.4 20.4 C 196.8 20.4 197.2 20.3 197.4 20.1 C 197.36 20.15 197.5 20.5 197.5 20.5 C 197.5 20.5 196.48 21.06 196.5 21.1 Z M 203.4 19.8 C 202.5 21 201.5 21.3 201 21.3 C 199.1 21.3 198.1 19.8 198.1 18.1 C 198.1 17 198.4 16.1 199.1 15.4 C 199.7 14.7 200.5 14.3 201.3 14.3 C 202.5 14.3 203.5 15.5 203.5 16.6 C 203.5 16.9 203.4 17 203.2 17.1 C 202.9 17.1 201 17.3 199.3 17.4 C 199.3 19.4 200.4 20.2 201.5 20.2 C 202.1 20.2 202.7 20 203.2 19.5 C 203.2 19.5 203.4 19.8 203.4 19.8 Z M 199.3 16.7 C 200.2 16.7 201 16.7 201.9 16.7 C 202.1 16.7 202.2 16.6 202.2 16.4 C 202.2 15.6 201.7 14.9 200.9 14.9 C 200.2 14.9 199.6 15.5 199.3 16.7 Z M 211.7 20.7 C 211.4 20.7 210.3 20.9 209.4 21.3 C 209.39 21.26 209.4 20.3 209.4 20.3 C 209.4 20.3 208.48 20.82 208.5 20.8 C 207.9 21.2 207.5 21.3 207.3 21.3 C 206.1 21.3 204.5 20.2 204.5 18.1 C 204.5 16 206.4 14.3 208.4 14.3 C 208.6 14.3 209 14.4 209.4 14.5 C 209.4 14.5 209.4 12.4 209.4 12.4 C 209.4 11.4 209.3 11.4 208.2 11.3 C 208.2 11.3 208.2 10.9 208.2 10.9 C 209 10.8 210 10.6 210.6 10.4 C 210.6 10.4 210.6 19.4 210.6 19.4 C 210.6 20.1 210.7 20.2 211.2 20.3 C 211.24 20.27 211.7 20.3 211.7 20.3 C 211.7 20.3 211.72 20.69 211.7 20.7 Z M 209.4 15.7 C 209 15.1 208.4 14.9 207.8 14.9 C 207.2 14.9 205.9 15.5 205.9 17.7 C 205.9 19.4 207 20.3 208 20.3 C 208.5 20.3 209 20.1 209.4 19.8 C 209.4 19.8 209.4 15.7 209.4 15.7 Z " stroke="none" fill="#00aa32"/>  </g>  <g id="Polygon8956">    <path d="M 22.6 21.1 C 22.6 21.1 22.6 20.69 22.6 20.7 C 23.5 20.6 23.6 20.5 23.6 19.5 C 23.6 19.5 23.6 17 23.6 17 C 23.6 15.8 23.1 15.2 22.1 15.2 C 21.5 15.2 20.9 15.5 20.6 16 C 20.6 16 20.6 19.5 20.6 19.5 C 20.6 20.5 20.6 20.6 21.5 20.7 C 21.53 20.69 21.5 21.1 21.5 21.1 L 18.3 21.1 C 18.3 21.1 18.33 20.69 18.3 20.7 C 19.3 20.6 19.4 20.5 19.4 19.5 C 19.4 19.5 19.4 12 19.4 12 C 18.6 11.9 17.8 11.9 16.4 11.9 C 16.43 11.87 15.4 11.9 15.4 11.9 C 15.4 11.9 15.38 19.19 15.4 19.2 C 15.4 20.5 15.5 20.6 16.9 20.7 C 16.87 20.67 16.9 21.1 16.9 21.1 L 12.7 21.1 C 12.7 21.1 12.66 20.67 12.7 20.7 C 14 20.6 14.1 20.5 14.1 19.2 C 14.11 19.19 14.1 11.9 14.1 11.9 C 14.1 11.9 13.17 11.87 13.2 11.9 C 11.8 11.9 11.6 12 11.3 12.3 C 11.2 12.6 11 13 10.9 13.7 C 10.9 13.7 10.4 13.7 10.4 13.7 C 10.5 12.8 10.6 11.8 10.6 11 C 10.6 11 10.9 11 10.9 11 C 11.1 11.3 11.3 11.3 11.7 11.3 C 11.7 11.3 17.9 11.3 17.9 11.3 C 19.2 11.3 19.4 11.2 19.4 10.9 C 19.4 10.9 19.4 10.7 19.4 10.7 C 19.7 10.7 20.1 10.5 20.6 10.4 C 20.6 10.4 20.6 15.4 20.6 15.4 C 21.1 14.9 21.9 14.4 22.6 14.3 C 23.9 14.3 24.8 15.1 24.8 16.9 C 24.8 16.9 24.8 19.5 24.8 19.5 C 24.8 20.5 24.9 20.6 25.8 20.7 C 25.78 20.69 25.8 21.1 25.8 21.1 L 22.6 21.1 Z M 31.9 19.8 C 31 21 30 21.3 29.5 21.3 C 27.6 21.3 26.6 19.8 26.6 18.1 C 26.6 17 26.9 16.1 27.5 15.4 C 28.2 14.7 29 14.3 29.8 14.3 C 31 14.3 32 15.5 32 16.6 C 32 16.9 31.9 17 31.7 17.1 C 31.4 17.1 29.5 17.3 27.7 17.4 C 27.8 19.4 28.9 20.2 30 20.2 C 30.6 20.2 31.2 20 31.7 19.5 C 31.7 19.5 31.9 19.8 31.9 19.8 Z M 27.8 16.7 C 28.7 16.7 29.5 16.7 30.4 16.7 C 30.6 16.7 30.7 16.6 30.7 16.4 C 30.7 15.6 30.2 14.9 29.4 14.9 C 28.7 14.9 28 15.5 27.8 16.7 Z M 39.7 14.6 C 40 14.4 40.3 14.3 40.4 14.3 C 42.1 14.3 43.1 15.7 43.1 17.2 C 43.1 19.4 41.3 20.9 39.4 21.3 C 38.9 21.2 38.5 21.1 38.3 21 C 38.3 21 38.3 23 38.3 23 C 38.3 24.1 38.4 24.2 39.6 24.3 C 39.59 24.27 39.6 24.7 39.6 24.7 L 36 24.7 C 36 24.7 36.04 24.27 36 24.3 C 37 24.2 37.1 24.1 37.1 23.1 C 37.1 23.1 37.1 16.3 37.1 16.3 C 37.1 15.3 37.1 15.3 36.1 15.2 C 36.1 15.2 36.1 14.8 36.1 14.8 C 36.8 14.7 37.6 14.5 38.3 14.2 C 38.32 14.19 38.3 15.4 38.3 15.4 C 38.3 15.4 39.7 14.57 39.7 14.6 Z M 38.3 19.9 C 38.6 20.3 39.2 20.5 39.7 20.5 C 41 20.5 41.8 19.4 41.8 17.7 C 41.8 16.1 40.9 15.2 39.8 15.2 C 39.3 15.2 38.7 15.6 38.3 15.9 C 38.3 15.9 38.3 19.9 38.3 19.9 Z M 48.9 21.3 C 48.7 21.3 48.4 21.1 48.2 21 C 48 20.8 48 20.6 47.9 20.3 C 47.3 20.7 46.6 21.3 46.1 21.3 C 45 21.3 44.3 20.4 44.3 19.4 C 44.3 18.7 44.7 18.2 45.5 17.9 C 46.4 17.6 47.5 17.2 47.8 17 C 47.8 17 47.8 16.7 47.8 16.7 C 47.8 15.6 47.3 15 46.6 15 C 46.3 15 46.1 15.1 45.9 15.3 C 45.7 15.5 45.6 15.8 45.5 16.3 C 45.4 16.5 45.2 16.6 45 16.6 C 44.8 16.6 44.4 16.3 44.4 16 C 44.4 15.8 44.6 15.6 44.8 15.4 C 45.3 15.1 46.2 14.5 47.1 14.3 C 47.5 14.3 48 14.5 48.3 14.7 C 48.8 15.2 49 15.8 49 16.6 C 49 16.6 49 19.4 49 19.4 C 49 20 49.3 20.3 49.5 20.3 C 49.7 20.3 49.9 20.2 50.1 20.1 C 50.06 20.1 50.2 20.5 50.2 20.5 C 50.2 20.5 48.94 21.26 48.9 21.3 Z M 47.8 17.5 C 47.5 17.6 46.8 18 46.5 18.1 C 45.9 18.4 45.6 18.7 45.6 19.2 C 45.6 20 46.2 20.4 46.6 20.4 C 47 20.3 47.6 20.1 47.8 19.8 C 47.8 19.8 47.8 17.5 47.8 17.5 Z M 52.9 15.9 C 53.4 15.2 54 14.3 54.7 14.3 C 55.2 14.3 55.6 14.7 55.6 15.1 C 55.6 15.4 55.4 15.7 55.1 15.8 C 54.9 15.9 54.8 15.9 54.7 15.8 C 54.5 15.6 54.3 15.5 54.1 15.5 C 53.7 15.5 53.2 15.9 52.9 16.8 C 52.9 16.8 52.9 19.5 52.9 19.5 C 52.9 20.5 53 20.6 54.1 20.7 C 54.11 20.69 54.1 21.1 54.1 21.1 L 50.7 21.1 C 50.7 21.1 50.67 20.69 50.7 20.7 C 51.6 20.6 51.7 20.5 51.7 19.5 C 51.7 19.5 51.7 16.4 51.7 16.4 C 51.7 15.4 51.6 15.4 50.8 15.2 C 50.8 15.2 50.8 14.9 50.8 14.9 C 51.5 14.8 52.2 14.6 52.9 14.3 C 52.88 14.3 52.9 15.9 52.9 15.9 C 52.9 15.9 52.91 15.93 52.9 15.9 Z M 61.3 21.1 C 60.6 20.3 59.7 19.1 58.9 18.1 C 58.7 17.9 58.5 17.8 58.4 17.8 C 58.3 17.8 58.3 17.8 58.1 17.9 C 58.1 17.9 58.1 19.5 58.1 19.5 C 58.1 20.5 58.3 20.6 59.2 20.7 C 59.24 20.69 59.2 21.1 59.2 21.1 L 55.9 21.1 C 55.9 21.1 55.89 20.69 55.9 20.7 C 56.9 20.6 57 20.5 57 19.5 C 57 19.5 57 12.4 57 12.4 C 57 11.4 56.9 11.4 56 11.3 C 56 11.3 56 10.9 56 10.9 C 56.7 10.8 57.6 10.6 58.1 10.4 C 58.1 10.4 58.1 17.5 58.1 17.5 C 58.6 17.4 58.9 17.2 59.1 16.9 C 59.4 16.6 59.9 16 60.2 15.6 C 60.5 15.2 60.4 15 59.7 15 C 59.71 14.96 59.7 14.6 59.7 14.6 L 62.8 14.4 C 62.8 14.4 62.77 14.81 62.8 14.8 C 61.7 15 61.4 15.1 60.8 15.7 C 60.5 16.1 60.2 16.4 59.5 17.1 C 59.8 17.6 61.4 19.3 61.9 19.9 C 62.4 20.4 62.8 20.7 63.4 20.7 C 63.37 20.69 63.4 21.1 63.4 21.1 C 63.4 21.1 61.31 21.11 61.3 21.1 Z M 67.8 12.3 C 67.8 11.8 68.2 11.5 68.6 11.5 C 69 11.5 69.3 11.8 69.3 12.3 C 69.3 12.7 69 13 68.5 13 C 68.2 13 67.8 12.7 67.8 12.3 Z M 67 21.1 C 67 21.1 67 20.69 67 20.7 C 67.9 20.6 68 20.5 68 19.5 C 68 19.5 68 16.4 68 16.4 C 68 15.5 68 15.4 67.1 15.3 C 67.1 15.3 67.1 14.9 67.1 14.9 C 67.9 14.8 68.6 14.6 69.2 14.3 C 69.2 14.3 69.2 19.5 69.2 19.5 C 69.2 20.5 69.3 20.6 70.3 20.7 C 70.3 20.69 70.3 21.1 70.3 21.1 L 67 21.1 Z M 74.9 16.3 C 74.6 15.4 74.1 14.8 73.4 14.8 C 72.8 14.8 72.4 15.3 72.4 15.8 C 72.4 16.5 73 16.9 73.7 17.1 C 74.8 17.6 75.5 18.2 75.5 19.2 C 75.5 20.6 74.3 21.3 73.1 21.3 C 72.3 21.3 71.6 21 71.3 20.7 C 71.2 20.5 71.1 19.5 71.1 19 C 71.1 19 71.5 18.9 71.5 18.9 C 71.8 19.9 72.4 20.8 73.3 20.8 C 73.9 20.8 74.4 20.3 74.4 19.7 C 74.4 19.1 74 18.7 73.2 18.3 C 72.3 17.9 71.3 17.4 71.3 16.3 C 71.3 15.2 72.2 14.3 73.6 14.3 C 74.2 14.3 74.6 14.5 75 14.6 C 75.1 14.9 75.2 15.8 75.3 16.2 C 75.3 16.2 74.9 16.3 74.9 16.3 Z M 86.5 17.7 C 86.5 20.1 84.7 21.3 83.2 21.3 C 81.2 21.3 80 19.6 80 17.9 C 80 15.5 81.9 14.3 83.2 14.3 C 85.1 14.3 86.5 15.8 86.5 17.7 Z M 81.4 17.5 C 81.4 19.4 82.2 20.8 83.4 20.8 C 84.3 20.8 85.1 20.1 85.1 18 C 85.1 16.3 84.4 14.8 83.1 14.8 C 82.2 14.8 81.4 15.8 81.4 17.5 Z M 91.6 21.1 C 91.6 21.1 91.6 20.69 91.6 20.7 C 92.5 20.6 92.6 20.5 92.6 19.4 C 92.6 19.4 92.6 16.9 92.6 16.9 C 92.6 15.9 92.2 15.2 91.2 15.2 C 90.6 15.2 90 15.6 89.6 16 C 89.6 16 89.6 19.5 89.6 19.5 C 89.6 20.5 89.7 20.6 90.6 20.7 C 90.56 20.69 90.6 21.1 90.6 21.1 L 87.3 21.1 C 87.3 21.1 87.31 20.69 87.3 20.7 C 88.3 20.6 88.4 20.5 88.4 19.5 C 88.4 19.5 88.4 16.4 88.4 16.4 C 88.4 15.5 88.3 15.4 87.5 15.3 C 87.5 15.3 87.5 14.9 87.5 14.9 C 88.2 14.8 88.9 14.6 89.6 14.3 C 89.6 14.3 89.6 15.5 89.6 15.5 C 89.9 15.3 90.2 15 90.6 14.8 C 91 14.5 91.4 14.3 91.8 14.3 C 93 14.3 93.8 15.2 93.8 16.6 C 93.8 16.6 93.8 19.5 93.8 19.5 C 93.8 20.5 93.8 20.6 94.7 20.7 C 94.72 20.69 94.7 21.1 94.7 21.1 L 91.6 21.1 Z M 100.9 19.8 C 100 21 99 21.3 98.5 21.3 C 96.7 21.3 95.6 19.8 95.6 18.1 C 95.6 17 95.9 16.1 96.6 15.4 C 97.2 14.7 98 14.3 98.8 14.3 C 100 14.3 101 15.5 101 16.6 C 101 16.9 100.9 17 100.7 17.1 C 100.4 17.1 98.5 17.3 96.8 17.4 C 96.8 19.4 97.9 20.2 99 20.2 C 99.6 20.2 100.2 20 100.7 19.5 C 100.7 19.5 100.9 19.8 100.9 19.8 Z M 96.8 16.7 C 97.7 16.7 98.5 16.7 99.4 16.7 C 99.6 16.7 99.7 16.6 99.7 16.4 C 99.7 15.6 99.2 14.9 98.4 14.9 C 97.7 14.9 97.1 15.5 96.8 16.7 Z M 111.9 17.7 C 111.9 20.1 110.1 21.3 108.6 21.3 C 106.6 21.3 105.4 19.6 105.4 17.9 C 105.4 15.5 107.3 14.3 108.6 14.3 C 110.5 14.3 111.9 15.8 111.9 17.7 Z M 106.7 17.5 C 106.7 19.4 107.6 20.8 108.8 20.8 C 109.7 20.8 110.5 20.1 110.5 18 C 110.5 16.3 109.8 14.8 108.5 14.8 C 107.6 14.8 106.7 15.8 106.7 17.5 Z M 113.8 14.5 C 113.8 14.5 113.78 14.19 113.8 14.2 C 113.8 13.7 113.8 13.3 113.9 13 C 114.1 12.6 114.3 11.9 115.1 11.2 C 115.6 10.7 116.2 10.5 116.8 10.4 C 117.3 10.4 117.7 10.6 117.9 10.9 C 118.1 11.1 118.1 11.3 118 11.4 C 118 11.6 117.9 11.7 117.7 11.8 C 117.6 11.9 117.5 11.9 117.3 11.7 C 117 11.5 116.6 11.2 116.1 11.2 C 115.7 11.2 115.5 11.4 115.3 11.6 C 115.1 11.9 115 12.6 115 13.9 C 114.97 13.92 115 14.5 115 14.5 C 115 14.5 116.74 14.52 116.7 14.5 C 116.8 14.7 116.8 15 116.6 15.1 C 116.59 15.11 115 15.1 115 15.1 C 115 15.1 114.97 19.43 115 19.4 C 115 20.5 115.1 20.6 116.3 20.7 C 116.26 20.7 116.3 21.1 116.3 21.1 L 112.7 21.1 C 112.7 21.1 112.72 20.69 112.7 20.7 C 113.7 20.6 113.8 20.5 113.8 19.5 C 113.78 19.53 113.8 15.1 113.8 15.1 L 112.7 15.1 L 112.7 15 L 113.1 14.5 L 113.8 14.5 Z M 123.6 21.1 C 123.3 21.2 123.1 21.3 122.9 21.3 C 122 21.3 121.5 20.7 121.5 19.5 C 121.46 19.47 121.5 15.1 121.5 15.1 L 120.4 15.1 L 120.4 15 L 120.8 14.5 L 121.5 14.5 L 121.5 13.4 L 122.4 12.4 L 122.6 12.5 L 122.6 14.5 C 122.6 14.5 124.34 14.52 124.3 14.5 C 124.5 14.7 124.4 15 124.3 15.1 C 124.25 15.11 122.6 15.1 122.6 15.1 C 122.6 15.1 122.65 18.96 122.6 19 C 122.6 20.2 123.1 20.4 123.5 20.4 C 123.9 20.4 124.2 20.3 124.4 20.1 C 124.45 20.15 124.6 20.5 124.6 20.5 C 124.6 20.5 123.56 21.06 123.6 21.1 Z M 129.3 21.1 C 129.3 21.1 129.31 20.69 129.3 20.7 C 130.2 20.6 130.3 20.5 130.3 19.5 C 130.3 19.5 130.3 17 130.3 17 C 130.3 15.8 129.8 15.2 128.8 15.2 C 128.3 15.2 127.7 15.5 127.3 16 C 127.3 16 127.3 19.5 127.3 19.5 C 127.3 20.5 127.3 20.6 128.2 20.7 C 128.23 20.69 128.2 21.1 128.2 21.1 L 125 21.1 C 125 21.1 125.05 20.69 125 20.7 C 125.9 20.6 126.1 20.5 126.1 19.5 C 126.1 19.5 126.1 12.4 126.1 12.4 C 126.1 11.4 126.1 11.4 125.1 11.3 C 125.1 11.3 125.1 10.9 125.1 10.9 C 125.8 10.8 126.7 10.6 127.3 10.4 C 127.3 10.4 127.3 15.4 127.3 15.4 C 127.8 14.9 128.6 14.3 129.4 14.3 C 130.6 14.3 131.5 15.1 131.5 16.9 C 131.5 16.9 131.5 19.5 131.5 19.5 C 131.5 20.5 131.6 20.6 132.5 20.7 C 132.47 20.69 132.5 21.1 132.5 21.1 L 129.3 21.1 Z M 138.7 19.8 C 137.7 21 136.7 21.3 136.2 21.3 C 134.4 21.3 133.3 19.8 133.3 18.1 C 133.3 17 133.7 16.1 134.3 15.4 C 134.9 14.7 135.7 14.3 136.5 14.3 C 137.7 14.3 138.7 15.5 138.7 16.6 C 138.7 16.9 138.7 17 138.4 17.1 C 138.1 17.1 136.3 17.3 134.5 17.4 C 134.5 19.4 135.7 20.2 136.7 20.2 C 137.3 20.2 137.9 20 138.4 19.5 C 138.4 19.5 138.7 19.8 138.7 19.8 Z M 134.5 16.7 C 135.4 16.7 136.2 16.7 137.1 16.7 C 137.3 16.7 137.4 16.6 137.4 16.4 C 137.5 15.6 136.9 14.9 136.1 14.9 C 135.4 14.9 134.8 15.5 134.5 16.7 Z " stroke="none" fill="#000"/>  </g></svg>