<?xml version="1.0" standalone="no"?><!DOCTYPE svg PUBLIC "-//W3C//DTD SVG 1.1//EN" "http://www.w3.org/Graphics/SVG/1.1/DTD/svg11.dtd"><svg xmlns="http://www.w3.org/2000/svg" version="1.1" width="219.4px" height="54px" viewBox="0 0 219.4 54">  <desc>About</desc>  <defs/>  <g id="Polygon11377">    <path d="M 43.6 27.2 L 42.8 30 L 40.3 30 L 43.6 19.2 L 46.8 19.2 L 50.1 30 L 47.5 30 L 46.7 27.2 L 43.6 27.2 Z M 46.3 25.4 C 46.3 25.4 45.63 23.12 45.6 23.1 C 45.4 22.5 45.2 21.7 45.1 21 C 45.1 21 45.1 21 45.1 21 C 44.9 21.7 44.7 22.5 44.6 23.1 C 44.56 23.12 43.9 25.4 43.9 25.4 L 46.3 25.4 Z M 51.4 18.6 L 53.8 18.6 L 53.8 23.1 C 53.8 23.1 53.84 23.1 53.8 23.1 C 54.3 22.4 55.1 22 56.2 22 C 58.1 22 59.4 23.6 59.4 26 C 59.4 28.8 57.6 30.2 55.9 30.2 C 54.9 30.2 54 29.8 53.5 28.9 C 53.5 28.91 53.5 28.9 53.5 28.9 L 53.4 30 C 53.4 30 51.31 30 51.3 30 C 51.3 29.5 51.4 28.5 51.4 27.7 C 51.38 27.66 51.4 18.6 51.4 18.6 Z M 53.8 26.7 C 53.8 26.8 53.8 27 53.9 27.1 C 54 27.7 54.6 28.3 55.3 28.3 C 56.3 28.3 57 27.5 57 26 C 57 24.8 56.4 23.9 55.3 23.9 C 54.6 23.9 54 24.4 53.9 25.1 C 53.8 25.2 53.8 25.4 53.8 25.5 C 53.8 25.5 53.8 26.7 53.8 26.7 Z M 68.7 26 C 68.7 28.9 66.7 30.2 64.6 30.2 C 62.3 30.2 60.5 28.7 60.5 26.1 C 60.5 23.6 62.2 22 64.7 22 C 67.1 22 68.7 23.6 68.7 26 Z M 63.1 26.1 C 63.1 27.4 63.6 28.4 64.7 28.4 C 65.6 28.4 66.2 27.5 66.2 26.1 C 66.2 24.9 65.8 23.7 64.7 23.7 C 63.5 23.7 63.1 24.9 63.1 26.1 Z M 77.6 27.5 C 77.6 28.5 77.6 29.3 77.7 30 C 77.66 30 75.6 30 75.6 30 L 75.4 28.9 C 75.4 28.9 75.39 28.9 75.4 28.9 C 75.1 29.4 74.4 30.2 72.9 30.2 C 71.3 30.2 70.2 29.2 70.2 26.8 C 70.19 26.77 70.2 22.2 70.2 22.2 L 72.6 22.2 C 72.6 22.2 72.62 26.38 72.6 26.4 C 72.6 27.5 73 28.2 73.9 28.2 C 74.5 28.2 74.9 27.7 75.1 27.4 C 75.1 27.2 75.2 27 75.2 26.8 C 75.17 26.83 75.2 22.2 75.2 22.2 L 77.6 22.2 C 77.6 22.2 77.6 27.49 77.6 27.5 Z M 82.3 20.1 L 82.3 22.2 L 84 22.2 L 84 24 L 82.3 24 C 82.3 24 82.27 26.8 82.3 26.8 C 82.3 27.7 82.5 28.2 83.2 28.2 C 83.6 28.2 83.7 28.2 84 28.1 C 84 28.1 84 30 84 30 C 83.7 30.1 83.1 30.2 82.4 30.2 C 81.6 30.2 81 29.9 80.6 29.5 C 80.1 29 79.9 28.3 79.9 27.2 C 79.89 27.17 79.9 24 79.9 24 L 78.8 24 L 78.8 22.2 L 79.9 22.2 L 79.9 20.7 L 82.3 20.1 Z " stroke="none" fill="#fff"/>  </g></svg>