<?xml version="1.0" standalone="no"?><!DOCTYPE svg PUBLIC "-//W3C//DTD SVG 1.1//EN" "http://www.w3.org/Graphics/SVG/1.1/DTD/svg11.dtd"><svg xmlns="http://www.w3.org/2000/svg" version="1.1" width="360px" height="54px" viewBox="0 0 360 54">  <desc>Wildlife</desc>  <defs/>  <g id="Polygon10991">    <path d="M 102.8 30 L 100.2 19.2 L 102.8 19.2 C 102.8 19.2 103.66 23.65 103.7 23.6 C 103.9 24.9 104.1 26.3 104.3 27.4 C 104.3 27.4 104.3 27.4 104.3 27.4 C 104.5 26.3 104.8 25 105 23.6 C 105.04 23.62 106 19.2 106 19.2 L 108.5 19.2 C 108.5 19.2 109.41 23.76 109.4 23.8 C 109.6 25 109.8 26.2 110 27.4 C 110 27.4 110 27.4 110 27.4 C 110.2 26.2 110.4 24.9 110.6 23.6 C 110.64 23.62 111.5 19.2 111.5 19.2 L 114 19.2 L 111.2 30 L 108.6 30 C 108.6 30 107.66 25.36 107.7 25.4 C 107.5 24.3 107.3 23.3 107.2 22 C 107.2 22 107.1 22 107.1 22 C 106.9 23.2 106.8 24.3 106.5 25.4 C 106.5 25.36 105.5 30 105.5 30 L 102.8 30 Z M 114.8 30 L 114.8 22.2 L 117.2 22.2 L 117.2 30 L 114.8 30 Z M 117.3 20 C 117.3 20.7 116.8 21.2 116 21.2 C 115.2 21.2 114.7 20.7 114.7 20 C 114.7 19.3 115.2 18.8 116 18.8 C 116.8 18.8 117.2 19.3 117.3 20 Z M 119.1 18.6 L 121.6 18.6 L 121.6 30 L 119.1 30 L 119.1 18.6 Z M 131.1 18.6 C 131.1 18.6 131.12 27.66 131.1 27.7 C 131.1 28.5 131.2 29.5 131.2 30 C 131.18 30 129 30 129 30 L 128.9 28.9 C 128.9 28.9 128.88 28.86 128.9 28.9 C 128.4 29.7 127.4 30.2 126.4 30.2 C 124.6 30.2 123.1 28.6 123.1 26.2 C 123.1 23.5 124.7 22 126.6 22 C 127.6 22 128.3 22.3 128.7 22.9 C 128.66 22.86 128.7 22.9 128.7 22.9 L 128.7 18.6 L 131.1 18.6 Z M 128.7 25.5 C 128.7 25.4 128.7 25.2 128.7 25 C 128.5 24.4 128 23.9 127.2 23.9 C 126.1 23.9 125.6 24.8 125.6 26.1 C 125.6 27.4 126.2 28.2 127.2 28.2 C 127.9 28.2 128.5 27.8 128.6 27.1 C 128.7 26.9 128.7 26.7 128.7 26.5 C 128.7 26.5 128.7 25.5 128.7 25.5 Z M 133.1 18.6 L 135.5 18.6 L 135.5 30 L 133.1 30 L 133.1 18.6 Z M 137.5 30 L 137.5 22.2 L 139.9 22.2 L 139.9 30 L 137.5 30 Z M 140 20 C 140 20.7 139.5 21.2 138.7 21.2 C 137.9 21.2 137.4 20.7 137.4 20 C 137.4 19.3 137.9 18.8 138.7 18.8 C 139.5 18.8 140 19.3 140 20 Z M 142.1 30 L 142.1 24 L 141.1 24 L 141.1 22.2 L 142.1 22.2 C 142.1 22.2 142.14 21.87 142.1 21.9 C 142.1 20.9 142.4 19.9 143.1 19.2 C 143.7 18.7 144.6 18.5 145.3 18.5 C 145.8 18.5 146.2 18.5 146.6 18.6 C 146.6 18.6 146.5 20.5 146.5 20.5 C 146.3 20.4 146 20.4 145.7 20.4 C 144.9 20.4 144.6 21 144.6 21.8 C 144.56 21.78 144.6 22.2 144.6 22.2 L 146.1 22.2 L 146.1 24 L 144.6 24 L 144.6 30 L 142.1 30 Z M 149 26.9 C 149.1 27.9 150.1 28.4 151.2 28.4 C 152.1 28.4 152.7 28.2 153.4 28 C 153.4 28 153.7 29.7 153.7 29.7 C 152.9 30 151.9 30.2 150.9 30.2 C 148.2 30.2 146.7 28.6 146.7 26.2 C 146.7 24.2 147.9 22 150.7 22 C 153.2 22 154.1 24 154.1 25.9 C 154.1 26.3 154.1 26.7 154.1 26.9 C 154.1 26.9 149 26.9 149 26.9 Z M 151.9 25.2 C 151.9 24.6 151.6 23.6 150.5 23.6 C 149.5 23.6 149.1 24.6 149 25.2 C 149 25.2 151.9 25.2 151.9 25.2 Z " stroke="none" fill="#fff"/>  </g></svg>