<?xml version="1.0" standalone="no"?><!DOCTYPE svg PUBLIC "-//W3C//DTD SVG 1.1//EN" "http://www.w3.org/Graphics/SVG/1.1/DTD/svg11.dtd"><svg xmlns="http://www.w3.org/2000/svg" version="1.1" width="125px" height="46px" viewBox="0 0 125 46">  <desc>More</desc>  <defs/>  <g id="Polygon10294">    <path d="M 37.4 21.9 C 37.3 20.6 37.3 19 37.3 17.4 C 37.3 17.4 37.3 17.4 37.3 17.4 C 36.9 18.8 36.5 20.4 36 21.6 C 36.04 21.62 34.7 25.8 34.7 25.8 L 32.8 25.8 C 32.8 25.8 31.67 21.66 31.7 21.7 C 31.3 20.4 31 18.8 30.7 17.4 C 30.7 17.4 30.7 17.4 30.7 17.4 C 30.6 18.9 30.5 20.6 30.5 21.9 C 30.48 21.9 30.3 26 30.3 26 L 28 26 L 28.7 15.2 L 32 15.2 C 32 15.2 33.01 18.82 33 18.8 C 33.4 20.1 33.7 21.4 33.9 22.7 C 33.9 22.7 34 22.7 34 22.7 C 34.3 21.4 34.6 20 35 18.8 C 35.01 18.8 36.1 15.2 36.1 15.2 L 39.3 15.2 L 39.9 26 L 37.6 26 C 37.6 26 37.38 21.87 37.4 21.9 Z M 49.5 22 C 49.5 24.9 47.5 26.2 45.4 26.2 C 43.1 26.2 41.3 24.7 41.3 22.1 C 41.3 19.6 43 18 45.5 18 C 47.9 18 49.5 19.6 49.5 22 Z M 43.8 22.1 C 43.8 23.4 44.4 24.4 45.4 24.4 C 46.4 24.4 47 23.5 47 22.1 C 47 20.9 46.5 19.7 45.4 19.7 C 44.3 19.7 43.8 20.9 43.8 22.1 Z M 51 20.8 C 51 19.6 51 18.8 50.9 18.2 C 50.93 18.18 53 18.2 53 18.2 L 53.1 19.6 C 53.1 19.6 53.17 19.62 53.2 19.6 C 53.6 18.5 54.5 18 55.3 18 C 55.5 18 55.6 18 55.8 18 C 55.8 18 55.8 20.3 55.8 20.3 C 55.6 20.3 55.4 20.3 55.1 20.3 C 54.2 20.3 53.6 20.7 53.5 21.5 C 53.4 21.6 53.4 21.8 53.4 22 C 53.43 22.03 53.4 26 53.4 26 L 51 26 C 51 26 51 20.75 51 20.8 Z M 58.8 22.9 C 58.9 23.9 59.9 24.4 61 24.4 C 61.9 24.4 62.5 24.2 63.2 24 C 63.2 24 63.5 25.7 63.5 25.7 C 62.7 26 61.7 26.2 60.7 26.2 C 58 26.2 56.5 24.6 56.5 22.2 C 56.5 20.2 57.7 18 60.5 18 C 63 18 63.9 20 63.9 21.9 C 63.9 22.3 63.9 22.7 63.9 22.9 C 63.9 22.9 58.8 22.9 58.8 22.9 Z M 61.7 21.2 C 61.7 20.6 61.4 19.6 60.3 19.6 C 59.3 19.6 58.9 20.6 58.8 21.2 C 58.8 21.2 61.7 21.2 61.7 21.2 Z M 65.4 24.7 C 65.4 23.8 66 23.2 66.8 23.2 C 67.7 23.2 68.2 23.8 68.3 24.7 C 68.3 25.6 67.7 26.2 66.8 26.2 C 66 26.2 65.4 25.6 65.4 24.7 Z M 70.7 24.7 C 70.7 23.8 71.3 23.2 72.2 23.2 C 73 23.2 73.6 23.8 73.6 24.7 C 73.6 25.6 73 26.2 72.1 26.2 C 71.3 26.2 70.7 25.6 70.7 24.7 Z M 76.1 24.7 C 76.1 23.8 76.7 23.2 77.5 23.2 C 78.4 23.2 78.9 23.8 78.9 24.7 C 78.9 25.6 78.4 26.2 77.5 26.2 C 76.7 26.2 76.1 25.6 76.1 24.7 Z " stroke="none" fill="#fff"/>  </g></svg>