<?xml version="1.0" standalone="no"?><!DOCTYPE svg PUBLIC "-//W3C//DTD SVG 1.1//EN" "http://www.w3.org/Graphics/SVG/1.1/DTD/svg11.dtd"><svg xmlns="http://www.w3.org/2000/svg" version="1.1" width="219.4px" height="54px" viewBox="0 0 219.4 54">  <desc>Islands</desc>  <defs/>  <g id="Polygon11213">    <path d="M 43.5 19.2 L 43.5 30 L 41.1 30 L 41.1 19.2 L 43.5 19.2 Z M 45.5 27.9 C 45.9 28.2 46.8 28.5 47.6 28.5 C 48.3 28.5 48.6 28.2 48.6 27.8 C 48.6 27.4 48.4 27.2 47.5 26.9 C 45.8 26.4 45.2 25.5 45.2 24.6 C 45.2 23.1 46.5 22 48.4 22 C 49.3 22 50.1 22.2 50.6 22.4 C 50.6 22.4 50.2 24.1 50.2 24.1 C 49.8 23.9 49.2 23.7 48.5 23.7 C 47.9 23.7 47.6 23.9 47.6 24.3 C 47.6 24.7 47.9 24.9 48.8 25.2 C 50.3 25.7 50.9 26.5 50.9 27.6 C 50.9 29.1 49.8 30.2 47.6 30.2 C 46.5 30.2 45.6 29.9 45 29.6 C 45 29.6 45.5 27.9 45.5 27.9 Z M 52.4 18.6 L 54.9 18.6 L 54.9 30 L 52.4 30 L 52.4 18.6 Z M 63.3 28.1 C 63.3 28.8 63.4 29.6 63.5 30 C 63.47 30 61.3 30 61.3 30 L 61.1 29.2 C 61.1 29.2 61.09 29.22 61.1 29.2 C 60.6 29.8 59.8 30.2 58.8 30.2 C 57.3 30.2 56.3 29 56.3 27.8 C 56.3 25.7 58.1 24.8 60.9 24.8 C 60.9 24.8 60.9 24.7 60.9 24.7 C 60.9 24.3 60.7 23.7 59.5 23.7 C 58.7 23.7 57.8 23.9 57.3 24.3 C 57.3 24.3 56.9 22.7 56.9 22.7 C 57.4 22.4 58.5 22 59.9 22 C 62.5 22 63.3 23.5 63.3 25.4 C 63.3 25.4 63.3 28.1 63.3 28.1 Z M 61 26.3 C 59.7 26.3 58.7 26.6 58.7 27.5 C 58.7 28.2 59.1 28.5 59.7 28.5 C 60.3 28.5 60.8 28.1 60.9 27.6 C 61 27.4 61 27.3 61 27.2 C 61 27.2 61 26.3 61 26.3 Z M 65.3 24.7 C 65.3 23.7 65.2 22.9 65.2 22.2 C 65.22 22.18 67.3 22.2 67.3 22.2 L 67.4 23.3 C 67.4 23.3 67.49 23.26 67.5 23.3 C 67.8 22.8 68.6 22 69.9 22 C 71.5 22 72.7 23.1 72.7 25.4 C 72.7 25.38 72.7 30 72.7 30 L 70.3 30 C 70.3 30 70.27 25.66 70.3 25.7 C 70.3 24.7 69.9 24 69 24 C 68.4 24 68 24.4 67.8 24.9 C 67.7 25 67.7 25.3 67.7 25.5 C 67.71 25.49 67.7 30 67.7 30 L 65.3 30 C 65.3 30 65.28 24.67 65.3 24.7 Z M 82.2 18.6 C 82.2 18.6 82.24 27.66 82.2 27.7 C 82.2 28.5 82.3 29.5 82.3 30 C 82.3 30 80.1 30 80.1 30 L 80 28.9 C 80 28.9 80 28.86 80 28.9 C 79.5 29.7 78.6 30.2 77.6 30.2 C 75.7 30.2 74.2 28.6 74.2 26.2 C 74.2 23.5 75.8 22 77.7 22 C 78.7 22 79.4 22.3 79.8 22.9 C 79.78 22.86 79.8 22.9 79.8 22.9 L 79.8 18.6 L 82.2 18.6 Z M 79.8 25.5 C 79.8 25.4 79.8 25.2 79.8 25 C 79.6 24.4 79.1 23.9 78.4 23.9 C 77.2 23.9 76.7 24.8 76.7 26.1 C 76.7 27.4 77.3 28.2 78.3 28.2 C 79 28.2 79.6 27.8 79.8 27.1 C 79.8 26.9 79.8 26.7 79.8 26.5 C 79.8 26.5 79.8 25.5 79.8 25.5 Z M 84.2 27.9 C 84.6 28.2 85.6 28.5 86.3 28.5 C 87 28.5 87.3 28.2 87.3 27.8 C 87.3 27.4 87.1 27.2 86.2 26.9 C 84.5 26.4 83.9 25.5 83.9 24.6 C 83.9 23.1 85.2 22 87.1 22 C 88 22 88.8 22.2 89.3 22.4 C 89.3 22.4 88.9 24.1 88.9 24.1 C 88.5 23.9 87.9 23.7 87.2 23.7 C 86.6 23.7 86.3 23.9 86.3 24.3 C 86.3 24.7 86.6 24.9 87.5 25.2 C 89 25.7 89.6 26.5 89.6 27.6 C 89.6 29.1 88.5 30.2 86.3 30.2 C 85.2 30.2 84.3 29.9 83.7 29.6 C 83.7 29.6 84.2 27.9 84.2 27.9 Z " stroke="none" fill="#fff"/>  </g></svg>