<?xml version="1.0" standalone="no"?><!DOCTYPE svg PUBLIC "-//W3C//DTD SVG 1.1//EN" "http://www.w3.org/Graphics/SVG/1.1/DTD/svg11.dtd"><svg xmlns="http://www.w3.org/2000/svg" version="1.1" width="335px" height="139.3px" viewBox="0 0 335 139.3"><desc>Getting there Few people actually see this park because it isn t easy to get to — you can t drive to the islands A s</desc><defs/><g id="Polygon11976"><path d="m19.7 14.6c0 0 .04 1.84 0 1.8c-.4.2-.9.4-1.7.4c0 .03 0 7.4 0 7.4c0 0-1.62.01-1.6 0c-.4-.1-.9-.4-1.3-.6c-1.3.4-2.8.6-4.5.6c-6.1 0-9.7-3.4-9.7-9.8c0-6.8 5.1-10.1 11-10.1c2.4 0 4.5.4 5.6 1c.1.4.2 1.2.2 1.8c0 1-.2 2.2-.4 3.2c.04-.04-2.5 0-2.5 0c0 0-.82-3.49-.8-3.5c-.6-.1-1.2-.1-1.7-.1c-3.4 0-5.8 2.5-5.8 7.2c0 5.7 2.5 8 5.9 8c.2 0 .5 0 .7-.1c0 0 0-5 0-5c-.9 0-1.8-.2-2.3-.4c-.03.04 0-1.8 0-1.8l8.9 0zm9.4-5.5c4 0 6.1 2.3 6.1 6c0 .7 0 1.1-.1 1.8c0 0-8.4 0-8.4 0c.2 3.1 1.7 4.1 3.8 4.1c1.6 0 2.8-.7 3.6-1.6c0 0 .9 1.3.9 1.3c-1 1.9-3 3.5-6.1 3.5c-4.2 0-7.3-2.2-7.3-7.7c0-4.9 3.4-7.4 7.5-7.4zm-2.4 5.9c0 0 4.1 0 4.1 0c0-.3 0-.6 0-.8c0-1.8-.6-2.8-1.9-2.8c-1.2 0-2.1 1-2.2 3.6zm16.5-3.2c0 0-.15 7.76-.2 7.8c0 1.1.6 1.5 1.4 1.5c.4 0 .8-.1 1.2-.5c0 0 .8 1.5.8 1.5c-.9 1.1-2.2 2.1-4.3 2.1c-3 0-4.1-1.6-4.1-4.1c.01 0 .1-8.3.1-8.3l-1.5 0c0 0 0-1.81 0-1.8c.3-.2.8-.3 1.7-.5c0 0 .2-2.5.2-2.5c1.2-.3 3-.5 4.8-.5c-.04.04-.1 3-.1 3l4.8 0c0 0 .18-2.54.2-2.5c1.2-.3 3.1-.5 4.8-.5c-.02.04-.1 3-.1 3l3.2 0l0 2.3l-3.2 0c0 0-.13 7.31-.1 7.3c0 1.4.4 1.9 1.4 1.9c.7 0 1.2-.4 1.7-.9c0 0 .9 1.3.9 1.3c-.7 1.4-2.4 2.8-4.9 2.8c-2.7 0-4.2-1.5-4.2-4.1c.03 0 .1-8.3.1-8.3l-4.6 0zm15.9-6.9c0-.9.1-1.2.1-1.6c.7-.2 1.6-.3 2.5-.3c.9 0 1.8.1 2.5.3c.1.4.1.7.1 1.6c0 .9-.1 1.8-.3 2.4c-.5.1-1.5.3-2.3.3c-.8 0-1.8-.2-2.4-.3c-.1-.6-.2-1.5-.2-2.4zm0 16.9c0 .01 0-9.7 0-9.7l-1.5-.4c0 0 0-1.77 0-1.8c1.7-.4 4-.8 6.5-.8c0 0 0 12.7 0 12.7c.7.1 1.3.2 1.6.4c0 0 0 1.7 0 1.7l-8.1 0c0 0-.03-1.7 0-1.7c.3-.2.8-.3 1.5-.4zm9.4 0c-.04.01 0-9.7 0-9.7l-1.5-.4c0 0-.04-1.77 0-1.8c1.7-.4 4-.8 6.5-.8c0 0 0 2.4 0 2.4c1-1.7 2.9-2.5 5-2.5c2.9 0 4.5 1.8 4.5 4.5c0 0 0 8.3 0 8.3c.7.1 1.2.2 1.6.4c-.03 0 0 1.7 0 1.7l-8.1 0c0 0-.03-1.7 0-1.7c.3-.2.8-.3 1.5-.4c0 0 0-7.3 0-7.3c0-1.2-.7-1.9-1.9-1.9c-1 0-1.8.3-2.6 1c0 0 0 8.2 0 8.2c.7.1 1.2.2 1.6.4c-.04 0 0 1.7 0 1.7l-8.2 0c0 0 .03-1.7 0-1.7c.4-.2.9-.3 1.6-.4zm19.6 1.6c-.7-.5-1.5-1.3-1.5-2.5c0-1.3 1-2.3 2.1-2.9c-1.7-.7-2.9-2-2.9-4c0-3.4 3.1-5 6.9-5c1.5 0 2.9.3 4.1 1c.8-.9 1.7-1.4 3.3-1.5c.1.5.1 1 .1 1.5c0 .6 0 1.1-.1 1.6c0 0-2.1 0-2.1 0c.7.6 1 1.3 1 2.4c0 2.9-2.6 4.5-6.9 4.5c-.5 0-.9 0-1.4-.1c-.2.3-.4.6-.4.9c0 .5.3.8 1 .8c0 0 4.1 0 4.1 0c2.8 0 4.9 1.3 4.9 4c0 3.9-4.3 5.7-8.7 5.7c-4 0-6.3-1.1-6.3-3.5c0-1.4 1.1-2.4 2.8-2.9zm6.4-9.6c0-2-.9-2.8-2-2.8c-1.1 0-1.9.8-1.9 2.5c0 2 .8 2.9 1.9 2.9c1.2 0 2-.8 2-2.6zm-5.1 11.8c0 1.3 1 1.9 2.8 1.9c2.5 0 3.9-.7 3.9-2.1c0-.9-.8-1.3-2-1.3c0 0-4.1 0-4.1 0c-.3.3-.6.9-.6 1.5zm19-16.1c0 0 .1-2.5.1-2.5c1.3-.3 3.1-.5 4.8-.5c.04.04 0 2.9 0 2.9l3.2 0l0 2.4l-3.3 0c0 0-.07 7.31-.1 7.3c0 1.4.4 1.9 1.4 1.9c.8 0 1.3-.4 1.8-.9c0 0 .9 1.3.9 1.3c-.8 1.4-2.5 2.8-5 2.8c-2.6 0-4.1-1.5-4.1-4.1c-.01 0 .1-8.3.1-8.3l-1.5 0c0 0-.02-1.81 0-1.8c.2-.2.8-.3 1.7-.5zm11.1 12.3c-.01.01 0-16.1 0-16.1l-1.8-.4c0 0 .02-1.73 0-1.7c1.7-.5 4.3-.7 6.8-.7c0 0 0 8.6 0 8.6c1.1-1.7 2.9-2.5 5-2.5c3 0 4.6 1.8 4.6 4.5c0 0 0 8.3 0 8.3c.6.1 1.2.2 1.5.4c0 0 0 1.7 0 1.7l-8.1 0c0 0 0-1.7 0-1.7c.3-.2.9-.3 1.5-.4c0 0 0-7.3 0-7.3c0-1.2-.7-1.9-1.9-1.9c-1 0-1.8.3-2.6 1c0 0 0 8.2 0 8.2c.7.1 1.2.2 1.6.4c-.01 0 0 1.7 0 1.7l-8.1 0c0 0-.04-1.7 0-1.7c.3-.2.8-.3 1.5-.4zm24.9-12.7c4.1 0 6.2 2.3 6.2 6c0 .7-.1 1.1-.2 1.8c0 0-8.4 0-8.4 0c.3 3.1 1.8 4.1 3.9 4.1c1.5 0 2.7-.7 3.6-1.6c0 0 .8 1.3.8 1.3c-.9 1.9-2.9 3.5-6 3.5c-4.2 0-7.4-2.2-7.4-7.7c0-4.9 3.5-7.4 7.5-7.4zm-2.4 5.9c0 0 4.1 0 4.1 0c.1-.3.1-.6.1-.8c0-1.8-.7-2.8-1.9-2.8c-1.2 0-2.1 1-2.3 3.6zm11.6 6.8c0 .01 0-9.7 0-9.7l-1.5-.4c0 0 0-1.77 0-1.8c1.7-.4 4-.8 6.5-.8c0 0 0 2.6 0 2.6c1-1.8 2.6-2.6 4.1-2.6c.7 0 1.4.2 1.9.6c0 2.1-.3 3.6-.8 5.3c.03.03-2.5 0-2.5 0c0 0-.44-2.4-.4-2.4c-.9.1-1.7.5-2.3 1.2c0 0 0 8 0 8c.9.1 1.7.2 2.1.4c.01 0 0 1.7 0 1.7l-8.6 0c0 0-.03-1.7 0-1.7c.3-.2.8-.3 1.5-.4zm19.4-12.7c4.1 0 6.1 2.3 6.1 6c0 .7 0 1.1-.1 1.8c0 0-8.4 0-8.4 0c.2 3.1 1.7 4.1 3.8 4.1c1.6 0 2.8-.7 3.6-1.6c0 0 .9 1.3.9 1.3c-1 1.9-3 3.5-6 3.5c-4.3 0-7.4-2.2-7.4-7.7c0-4.9 3.4-7.4 7.5-7.4zm-2.4 5.9c0 0 4.1 0 4.1 0c0-.3 0-.6 0-.8c0-1.8-.6-2.8-1.8-2.8c-1.2 0-2.2 1-2.3 3.6z" stroke="none" fill="#404040"/></g><g id="Group11981"><path d="m1 62.8c0 0 1.2-8.1 1.2-8.1c-.4 0-.7-.1-1-.2c.05-.01.2-.9.2-.9c0 0 7.67.04 7.7 0c0 .9-.1 1.9-.4 2.9c-.01.02-1.2 0-1.2 0l-.2-1.8l-2.7 0l-.6 3.5c0 0 1.57.02 1.6 0c.1-.4.2-.7.4-1c0 0 1 0 1 0c-.1 1-.3 2.3-.6 3.4c0 0-.9 0-.9 0c-.1-.4-.1-.8-.1-1.3c.01 0-1.5 0-1.5 0c0 0-.57 3.51-.6 3.5c.5 0 1 .1 1.4.2c-.04.03-.2.9-.2.9l-4.6 0c0 0 .12-.87.1-.9c.3-.1.6-.2 1-.2zm11.2-6.7c1.6 0 2.4.7 2.4 1.8c0 1.5-1.1 2.4-3.5 2.4c0 0-.7 0-.7 0c0 .2 0 .5 0 .7c0 1.1.5 1.5 1.1 1.5c.8 0 1.3-.4 1.8-1.3c0 0 .8.4.8.4c-.6 1.6-1.8 2.5-3.3 2.5c-1.8 0-2.7-1.1-2.7-2.9c0-2.7 1.5-5.1 4.1-5.1zm-1.7 3.4c0 0 .3 0 .3 0c1.3 0 1.8-.7 1.8-1.5c0-.5-.2-.7-.6-.7c-.8 0-1.3.9-1.5 2.2zm11.6-3.4c0 0 .8 5.6.8 5.6c1-1.6 1.4-2.8 1.5-4.2c.02.04-1-.2-1-.2c0 0 .14-.78.1-.8c.5-.2 1.3-.4 1.9-.4c.7 0 .9.4.9 1c0 1.4-1 3.5-3.9 6.8c.05-.02-1.2 0-1.2 0c0 0-.51-3.01-.5-3c-.6.9-1.4 1.9-2.3 3c.05-.02-1.2 0-1.2 0l-1.1-6.4l-1-.2c0 0 .13-.78.1-.8c.7-.2 1.8-.4 2.8-.4c0 0 .9 5.5.9 5.5c.6-.9 1.1-1.8 1.5-2.7c-.05-.01-.3-1.4-.3-1.4l-.8-.2c0 0 .11-.78.1-.8c.7-.2 1.6-.4 2.7-.4zm11.1 0c0 0-.2 1.3-.2 1.3c.5-.8 1.3-1.3 2.3-1.3c1.3 0 2 1.1 2 2.7c0 2.8-1.3 5.2-3.8 5.2c-.6 0-1.1-.2-1.4-.5c0 0-.4 2.3-.4 2.3c.6.1 1.1.1 1.4.3c-.03-.03-.2.8-.2.8l-4.5 0c0 0 .13-.83.1-.8c.3-.1.6-.2 1-.3c-.01.05 1.3-8.3 1.3-8.3l-1-.2c0 0 .14-.78.1-.8c.8-.2 2.1-.4 3.3-.4zm-.3 2.5c0 0-.7 4-.7 4c.2.1.5.2.7.2c1.3 0 2.1-1.9 2.1-4c0-.9-.2-1.3-.8-1.3c-.5 0-1 .4-1.3 1.1zm9.5-2.5c1.6 0 2.4.7 2.4 1.8c0 1.5-1.2 2.4-3.6 2.4c0 0-.6 0-.6 0c0 .2 0 .5 0 .7c0 1.1.4 1.5 1.1 1.5c.7 0 1.2-.4 1.8-1.3c0 0 .7.4.7.4c-.6 1.6-1.8 2.5-3.3 2.5c-1.7 0-2.6-1.1-2.6-2.9c0-2.7 1.4-5.1 4.1-5.1zm-1.7 3.4c0 0 .3 0 .3 0c1.2 0 1.8-.7 1.8-1.5c0-.5-.2-.7-.7-.7c-.7 0-1.2.9-1.4 2.2zm8.8-3.4c2.2 0 3.2 1.2 3.2 2.9c0 2.6-1.4 5.1-4.3 5.1c-2.2 0-3.2-1.2-3.2-3c0-2.6 1.4-5 4.3-5zm-1 6.9c1.2 0 1.9-2.4 1.9-4.3c0-.8-.3-1.5-1-1.5c-1.2 0-1.9 2.3-1.9 4.2c0 .9.3 1.6 1 1.6zm8.5-6.9c0 0-.2 1.3-.2 1.3c.5-.8 1.3-1.3 2.3-1.3c1.3 0 2 1.1 2 2.7c0 2.8-1.3 5.2-3.8 5.2c-.6 0-1.1-.2-1.4-.5c0 0-.4 2.3-.4 2.3c.5.1 1 .1 1.4.3c-.04-.03-.2.8-.2.8l-4.5 0c0 0 .12-.83.1-.8c.3-.1.6-.2 1-.3c-.02.05 1.3-8.3 1.3-8.3l-1-.2c0 0 .13-.78.1-.8c.7-.2 2.1-.4 3.3-.4zm-.3 2.5c0 0-.7 4-.7 4c.2.1.4.2.7.2c1.3 0 2.1-1.9 2.1-4c0-.9-.3-1.3-.8-1.3c-.5 0-1 .4-1.3 1.1zm9-5.9c0 0-1.3 8.7-1.3 8.7c-.1.4-.1.7-.1.8c0 .4.1.5.6.5c-.04.01.5 0 .5 0c0 0-.18.89-.2.9c-.4.2-1.1.4-1.9.4c-.9 0-1.3-.4-1.3-1.2c0-.2 0-.6.1-.9c-.02.04 1.2-7.8 1.2-7.8l-1.1-.2c0 0 .07-.8.1-.8c.7-.2 2.2-.4 3.4-.4zm4.6 3.4c1.5 0 2.4.7 2.4 1.8c0 1.5-1.2 2.4-3.6 2.4c0 0-.6 0-.6 0c-.1.2-.1.5-.1.7c0 1.1.5 1.5 1.2 1.5c.7 0 1.2-.4 1.7-1.3c0 0 .8.4.8.4c-.6 1.6-1.8 2.5-3.3 2.5c-1.8 0-2.7-1.1-2.7-2.9c0-2.7 1.5-5.1 4.2-5.1zm-1.7 3.4c0 0 .3 0 .3 0c1.2 0 1.8-.7 1.8-1.5c0-.5-.3-.7-.7-.7c-.7 0-1.2.9-1.4 2.2zm11.4-3.4c.8 0 1.2.2 1.6.7c.3-.3.9-.6 1.3-.7c.04-.03.8.2.8.2c0 0-.82 5.2-.8 5.2c-.1.3-.1.6-.1.8c0 .3.1.4.6.4c-.03.01.5 0 .5 0c0 0-.16.89-.2.9c-.4.2-1.1.4-1.9.4c-.9 0-1.3-.4-1.3-1.2c0 0 0-.1.1-.2c-.6.9-1.3 1.4-2.3 1.4c-1.4 0-2.1-1-2.1-2.7c0-2.8 1.5-5.2 3.8-5.2zm.7 5.5c0 0 .6-4.1.6-4.1c-.2-.1-.4-.2-.7-.2c-1.3 0-2.1 1.9-2.1 4c0 .9.3 1.3.9 1.3c.5 0 .9-.4 1.3-1zm8.2-5.5c.9 0 1.7.2 2.1.5c0 .8-.2 1.8-.5 2.4c-.02-.03-1.2 0-1.2 0c0 0-.07-1.71-.1-1.7c0 0-.1 0-.2 0c-1.3 0-2 1.9-2 3.7c0 1 .4 1.5 1.1 1.5c.7 0 1.3-.4 1.8-1.3c0 0 .7.4.7.4c-.6 1.6-1.7 2.5-3.3 2.5c-1.7 0-2.6-1.1-2.6-2.9c0-2.7 1.5-5.1 4.2-5.1zm4 .1c0 0 .4-1.2.4-1.2c.4-.2 1.3-.3 1.9-.3c.05.03-.2 1.5-.2 1.5l1.7 0l-.1 1.2l-1.8 0c0 0-.48 3.36-.5 3.4c0 .4-.1.8-.1 1.1c0 .4.1.6.4.6c.5 0 .9-.6 1.3-1.2c0 0 .6.3.6.3c-.5 1.4-1.3 2.4-2.8 2.4c-1.2 0-1.7-.6-1.7-1.7c0-.4 0-.9.1-1.5c.01.02.5-3.4.5-3.4l-1 0c0 0 .11-.85.1-.8c.2-.2.7-.4 1.2-.4zm11.9-.1c0 0-.8 5.4-.8 5.4c0 .3-.1.6-.1.8c0 .3.1.4.6.4c-.02.01.5 0 .5 0c0 0-.15.89-.2.9c-.4.2-1.1.4-1.9.4c-.9 0-1.3-.4-1.3-1.2c0-.1.1-.4.1-.5c0 0 0-.1 0-.1c-.6 1.2-1.7 1.8-2.7 1.8c-1.1 0-1.6-.6-1.6-1.5c0-.2 0-.5 0-.7c.04-.05.7-4.3.7-4.3l-.9-.2c0 0 .06-.78.1-.8c.7-.2 2.1-.4 3.3-.4c0 0-.9 5-.9 5c0 .2 0 .5 0 .7c0 .4.1.6.6.6c.5 0 1-.3 1.5-1.1c.01 0 .6-3.8.6-3.8l-.9-.2c0 0 .08-.78.1-.8c.7-.2 2-.4 3.2-.4zm4.9 0c.7 0 1.2.2 1.5.7c.4-.3.9-.6 1.4-.7c.02-.03.8.2.8.2c0 0-.84 5.2-.8 5.2c-.1.3-.1.6-.1.8c0 .3.1.4.6.4c-.05.01.5 0 .5 0c0 0-.18.89-.2.9c-.4.2-1.1.4-1.9.4c-.9 0-1.3-.4-1.3-1.2c0 0 0-.1 0-.2c-.5.9-1.2 1.4-2.3 1.4c-1.3 0-2-1-2-2.7c0-2.8 1.5-5.2 3.8-5.2zm.6 5.5c0 0 .7-4.1.7-4.1c-.2-.1-.4-.2-.7-.2c-1.3 0-2.1 1.9-2.1 4c0 .9.3 1.3.8 1.3c.6 0 1-.4 1.3-1zm8-8.9c0 0-1.4 8.7-1.4 8.7c-.1.4-.1.7-.1.8c0 .4.2.5.6.5c.01.01.5 0 .5 0c0 0-.14.89-.1.9c-.4.2-1.2.4-2 .4c-.8 0-1.3-.4-1.3-1.2c0-.2.1-.6.1-.9c.02.04 1.3-7.8 1.3-7.8l-1.2-.2c0 0 .11-.8.1-.8c.7-.2 2.3-.4 3.5-.4zm4.3 0c0 0-1.4 8.7-1.4 8.7c-.1.4-.1.7-.1.8c0 .4.2.5.6.5c.01.01.5 0 .5 0c0 0-.14.89-.1.9c-.4.2-1.2.4-2 .4c-.8 0-1.3-.4-1.3-1.2c0-.2.1-.6.1-.9c.03.04 1.3-7.8 1.3-7.8l-1.2-.2c0 0 .12-.8.1-.8c.7-.2 2.3-.4 3.5-.4zm2.1 11.6c-.03 0 0-.1 0-.1l-1.1-6.7l-1-.2c0 0 .13-.78.1-.8c.7-.2 1.8-.4 2.8-.4c0 0 1 5.7 1 5.7c1.1-1.4 1.5-2.8 1.6-4.3c.01.04-.9-.2-.9-.2c0 0 .06-.78.1-.8c.5-.2 1.2-.4 1.8-.4c.7 0 .9.4.9 1c0 1.4-1.1 3.2-2.7 5.4c0 0-1.5 2.1-1.5 2.1c-.9 1.2-1.9 2.4-3 2.4c-.7 0-1.2-.3-1.5-.9c0 0 .1-.7.1-.7c.4.2 1 .3 1.3.3c1 0 1.5-.7 2-1.4zm9-2.8c-.04-.02 1 0 1 0c0 0 .16 1.52.2 1.5c.2 0 .4.1.6.1c.9 0 1.4-.5 1.4-1.1c0-.6-.6-.9-1.3-1.3c0 0-.5-.3-.5-.3c-.7-.3-1.2-.9-1.2-1.8c0-1.6 1.3-2.5 3.1-2.5c1 0 2 .2 2.5.4c0 .8-.1 1.5-.4 2.1c-.05.03-1.2 0-1.2 0c0 0-.01-1.46 0-1.5c-.2 0-.5 0-.7 0c-.7 0-1.2.3-1.2 1c0 .5.5.8 1 1.1c0 0 .6.3.6.3c.8.5 1.5 1 1.5 2c0 1.6-1.3 2.5-3.4 2.5c-.9 0-2-.1-2.6-.4c.1-.8.3-1.5.6-2.1zm10.5-5.4c1.6 0 2.4.7 2.4 1.8c0 1.5-1.1 2.4-3.6 2.4c0 0-.6 0-.6 0c0 .2 0 .5 0 .7c0 1.1.4 1.5 1.1 1.5c.7 0 1.3-.4 1.8-1.3c0 0 .7.4.7.4c-.6 1.6-1.7 2.5-3.2 2.5c-1.8 0-2.7-1.1-2.7-2.9c0-2.7 1.4-5.1 4.1-5.1zm-1.7 3.4c0 0 .3 0 .3 0c1.3 0 1.8-.7 1.8-1.5c0-.5-.2-.7-.6-.7c-.8 0-1.3.9-1.5 2.2zm8.7-3.4c1.5 0 2.4.7 2.4 1.8c0 1.5-1.2 2.4-3.6 2.4c0 0-.6 0-.6 0c0 .2 0 .5 0 .7c0 1.1.4 1.5 1.1 1.5c.7 0 1.2-.4 1.8-1.3c0 0 .7.4.7.4c-.6 1.6-1.8 2.5-3.3 2.5c-1.8 0-2.6-1.1-2.6-2.9c0-2.7 1.4-5.1 4.1-5.1zm-1.7 3.4c0 0 .3 0 .3 0c1.2 0 1.8-.7 1.8-1.5c0-.5-.3-.7-.7-.7c-.7 0-1.2.9-1.4 2.2zm9-3.3c0 0 .4-1.2.4-1.2c.4-.2 1.3-.3 2-.3c-.04.03-.3 1.5-.3 1.5l1.7 0l-.1 1.2l-1.7 0c0 0-.57 3.36-.6 3.4c0 .4-.1.8-.1 1.1c0 .4.1.6.5.6c.4 0 .8-.6 1.2-1.2c0 0 .6.3.6.3c-.5 1.4-1.3 2.4-2.8 2.4c-1.2 0-1.7-.6-1.7-1.7c0-.4 0-.9.1-1.5c.02.02.6-3.4.6-3.4l-1.1 0c0 0 .12-.85.1-.8c.2-.2.7-.4 1.2-.4zm8.7 5.7c0 0 .5-2.9.5-2.9c.1-.3.1-.5.1-.7c0-.4-.2-.6-.6-.6c-.5 0-1 .3-1.6 1.1c.03-.01-.8 5.1-.8 5.1l-2.2 0l1.6-9.8l-1.2-.2c0 0 .12-.8.1-.8c.7-.2 2.3-.4 3.5-.4c0 0-.8 5.1-.8 5.1c.7-1.1 1.5-1.7 2.6-1.7c1.1 0 1.7.6 1.7 1.5c0 .3 0 .6-.1.9c0 0-.5 3-.5 3c-.1.4-.1.6-.1.8c0 .3.1.4.6.4c-.04.01.5 0 .5 0c0 0-.17.89-.2.9c-.4.2-1.1.4-1.9.4c-.9 0-1.3-.4-1.3-1.1c0-.3 0-.7.1-1zm5.9-9c.3 0 .7-.1 1.2-.1c.4 0 .8.1 1 .1c0 .6-.2 1.5-.5 2c-.2.1-.5.2-1 .2c-.4 0-.7-.1-.9-.2c0-.7 0-1.4.2-2zm1.7 3.2c0 0-.8 5.3-.8 5.3c-.1.4-.1.7-.1.8c0 .4.1.5.5.5c.04.01.6 0 .6 0c0 0-.19.89-.2.9c-.4.2-1.1.4-1.9.4c-.9 0-1.3-.4-1.3-1.2c0-.2 0-.6.1-.9c-.02.04.7-4.4.7-4.4l-1-.2c0 0 .08-.78.1-.8c.7-.2 2.1-.4 3.3-.4zm1.4 5.4c-.04-.02 1 0 1 0c0 0 .16 1.52.2 1.5c.2 0 .4.1.6.1c.9 0 1.4-.5 1.4-1.1c0-.6-.6-.9-1.3-1.3c0 0-.5-.3-.5-.3c-.7-.3-1.2-.9-1.2-1.8c0-1.6 1.3-2.5 3.1-2.5c1 0 2 .2 2.5.4c0 .8-.1 1.5-.5 2.1c.05.03-1.1 0-1.1 0c0 0-.02-1.46 0-1.5c-.2 0-.5 0-.7 0c-.7 0-1.2.3-1.2 1c0 .5.5.8 1 1.1c0 0 .6.3.6.3c.8.5 1.5 1 1.5 2c0 1.6-1.3 2.5-3.4 2.5c-.9 0-2-.1-2.6-.4c.1-.8.3-1.5.6-2.1zm12.9-5.4c0 0-.2 1.3-.2 1.3c.5-.8 1.2-1.3 2.2-1.3c1.4 0 2.1 1.1 2.1 2.7c0 2.8-1.3 5.2-3.8 5.2c-.7 0-1.1-.2-1.5-.5c0 0-.3 2.3-.3 2.3c.5.1 1 .1 1.3.3c.04-.03-.1.8-.1.8l-4.5 0c0 0 .1-.83.1-.8c.3-.1.6-.2 1-.3c-.04.05 1.3-8.3 1.3-8.3l-1-.2c0 0 .1-.78.1-.8c.7-.2 2.1-.4 3.3-.4zm-.4 2.5c0 0-.6 4-.6 4c.2.1.4.2.7.2c1.3 0 2.1-1.9 2.1-4c0-.9-.3-1.3-.9-1.3c-.5 0-.9.4-1.3 1.1zm9.3-2.5c.7 0 1.2.2 1.5.7c.4-.3.9-.6 1.4-.7c.01-.03.8.2.8.2c0 0-.86 5.2-.9 5.2c0 .3-.1.6-.1.8c0 .3.2.4.6.4c.04.01.6 0 .6 0c0 0-.19.89-.2.9c-.4.2-1.1.4-1.9.4c-.9 0-1.3-.4-1.3-1.2c0 0 0-.1 0-.2c-.5.9-1.2 1.4-2.3 1.4c-1.3 0-2-1-2-2.7c0-2.8 1.5-5.2 3.8-5.2zm.6 5.5c0 0 .7-4.1.7-4.1c-.2-.1-.5-.2-.7-.2c-1.3 0-2.1 1.9-2.1 4c0 .9.3 1.3.8 1.3c.6 0 1-.4 1.3-1zm7.6-5.5c0 0-.3 1.9-.3 1.9c.5-1.2 1.4-1.9 2.2-1.9c.5 0 .8.1 1 .2c0 .9-.3 2.1-.6 2.7c.02 0-1.2 0-1.2 0c0 0-.09-1.36-.1-1.4c-.5.1-1 .7-1.5 1.5c-.02.04-.8 4.8-.8 4.8l-2.2 0l1-6.4l-1-.2c0 0 .14-.78.1-.8c.8-.2 2.2-.4 3.4-.4zm6.8-3.4c0-.02-1.7 11.2-1.7 11.2l-2.2 0l1.5-9.8l-1.1-.2c0 0 .08-.8.1-.8c.7-.2 2.2-.4 3.4-.4zm4.1 3.5c-.02.03-.1.9-.1.9l-1.1.4l-1.9 1.8c0 0 .96 2.68 1 2.7c.2.6.4.7.9.7c.05.01.5 0 .5 0c0 0-.13.89-.1.9c-.4.2-1.1.4-1.7.4c-1 0-1.3-.4-1.6-1.2c-.03.02-1.1-3-1.1-3l2.4-2.3l-1.1-.2c0 0 .12-.68.1-.7c.9-.2 2.6-.4 3.8-.4zm7-3.5c0 0-.8 4.8-.8 4.8c.5-.9 1.2-1.4 2.3-1.4c1.3 0 2 1.1 2 2.7c0 2.8-1.3 5.2-3.8 5.2c-.7 0-1.3-.2-1.6-.6c-.4.3-.9.5-1.4.6c.04.04-.7-.2-.7-.2l1.5-9.7l-1.1-.2c0 0 .09-.8.1-.8c.7-.2 2.3-.4 3.5-.4zm-1 5.9c0 0-.6 4-.6 4c.2.1.4.2.7.2c1.3 0 2.1-1.9 2.1-4c0-.9-.3-1.3-.8-1.3c-.6 0-1 .4-1.4 1.1zm9.6-2.5c1.5 0 2.4.7 2.4 1.8c0 1.5-1.2 2.4-3.6 2.4c0 0-.6 0-.6 0c0 .2 0 .5 0 .7c0 1.1.4 1.5 1.1 1.5c.7 0 1.2-.4 1.8-1.3c0 0 .7.4.7.4c-.6 1.6-1.8 2.5-3.3 2.5c-1.7 0-2.6-1.1-2.6-2.9c0-2.7 1.4-5.1 4.1-5.1zm-1.7 3.4c0 0 .3 0 .3 0c1.2 0 1.8-.7 1.8-1.5c0-.5-.3-.7-.7-.7c-.7 0-1.2.9-1.4 2.2zm8.7-3.4c1 0 1.8.2 2.2.5c0 .8-.3 1.8-.6 2.4c.02-.03-1.1 0-1.1 0c0 0-.13-1.71-.1-1.7c-.1 0-.2 0-.2 0c-1.3 0-2.1 1.9-2.1 3.7c0 1 .5 1.5 1.1 1.5c.8 0 1.3-.4 1.8-1.3c0 0 .8.4.8.4c-.7 1.6-1.8 2.5-3.4 2.5c-1.7 0-2.6-1.1-2.6-2.9c0-2.7 1.5-5.1 4.2-5.1zm6.4 0c.7 0 1.2.2 1.5.7c.4-.3.9-.6 1.4-.7c.02-.03.8.2.8.2c0 0-.85 5.2-.8 5.2c-.1.3-.1.6-.1.8c0 .3.1.4.6.4c-.05.01.5 0 .5 0c0 0-.18.89-.2.9c-.4.2-1.1.4-1.9.4c-.9 0-1.3-.4-1.3-1.2c0 0 0-.1 0-.2c-.5.9-1.2 1.4-2.3 1.4c-1.3 0-2-1-2-2.7c0-2.8 1.5-5.2 3.8-5.2zm.6 5.5c0 0 .7-4.1.7-4.1c-.2-.1-.4-.2-.7-.2c-1.3 0-2.1 1.9-2.1 4c0 .9.3 1.3.8 1.3c.6 0 1-.4 1.3-1zm11.8-5.5c0 0-.9 5.4-.9 5.4c0 .3-.1.6-.1.8c0 .3.2.4.6.4c.04.01.6 0 .6 0c0 0-.19.89-.2.9c-.4.2-1.1.4-1.9.4c-.9 0-1.3-.4-1.3-1.2c0-.1 0-.4.1-.5c0 0 0-.1 0-.1c-.7 1.2-1.7 1.8-2.8 1.8c-1.1 0-1.6-.6-1.6-1.5c0-.2.1-.5.1-.7c0-.05.7-4.3.7-4.3l-1-.2c0 0 .12-.78.1-.8c.7-.2 2.1-.4 3.3-.4c0 0-.8 5-.8 5c0 .2-.1.5-.1.7c0 .4.2.6.6.6c.5 0 1.1-.3 1.6-1.1c-.03 0 .6-3.8.6-3.8l-1-.2c0 0 .14-.78.1-.8c.7-.2 2.1-.4 3.3-.4zm1.4 5.4c-.03-.02 1.1 0 1.1 0c0 0 .07 1.52.1 1.5c.2 0 .4.1.6.1c.9 0 1.4-.5 1.4-1.1c0-.6-.6-.9-1.3-1.3c0 0-.5-.3-.5-.3c-.7-.3-1.2-.9-1.2-1.8c0-1.6 1.3-2.5 3.1-2.5c1 0 2 .2 2.5.4c0 .8-.1 1.5-.4 2.1c-.04.03-1.2 0-1.2 0c0 0-.01-1.46 0-1.5c-.2 0-.5 0-.7 0c-.7 0-1.2.3-1.2 1c0 .5.5.8 1 1.1c0 0 .6.3.6.3c.8.5 1.5 1 1.5 2c0 1.6-1.3 2.5-3.4 2.5c-.8 0-2-.1-2.6-.4c.1-.8.3-1.5.6-2.1zm10.5-5.4c1.6 0 2.4.7 2.4 1.8c0 1.5-1.1 2.4-3.6 2.4c0 0-.6 0-.6 0c0 .2 0 .5 0 .7c0 1.1.5 1.5 1.1 1.5c.7 0 1.3-.4 1.8-1.3c0 0 .8.4.8.4c-.7 1.6-1.8 2.5-3.3 2.5c-1.8 0-2.7-1.1-2.7-2.9c0-2.7 1.5-5.1 4.1-5.1zm-1.7 3.4c0 0 .3 0 .3 0c1.3 0 1.8-.7 1.8-1.5c0-.5-.2-.7-.6-.7c-.8 0-1.3.9-1.5 2.2zm9.5-6.6c.3 0 .7-.1 1.1-.1c.4 0 .9.1 1.1.1c0 .6-.2 1.5-.5 2c-.3.1-.6.2-1 .2c-.4 0-.7-.1-1-.2c0-.7.1-1.4.3-2zm1.7 3.2c0 0-.9 5.3-.9 5.3c0 .4 0 .7 0 .8c0 .4.1.5.5.5c.03.01.5 0 .5 0c0 0-.1.89-.1.9c-.4.2-1.2.4-1.9.4c-.9 0-1.3-.4-1.3-1.2c0-.2 0-.6.1-.9c-.04.04.6-4.4.6-4.4l-.9-.2c0 0 .07-.78.1-.8c.7-.2 2.1-.4 3.3-.4zm2.2.1c0 0 .4-1.2.4-1.2c.4-.2 1.3-.3 2-.3c-.03.03-.3 1.5-.3 1.5l1.8 0l-.2 1.2l-1.7 0c0 0-.55 3.36-.6 3.4c0 .4-.1.8-.1 1.1c0 .4.2.6.5.6c.4 0 .8-.6 1.2-1.2c0 0 .6.3.6.3c-.4 1.4-1.3 2.4-2.8 2.4c-1.2 0-1.7-.6-1.7-1.7c0-.4.1-.9.1-1.5c.04.02.6-3.4.6-3.4l-1.1 0c0 0 .14-.85.1-.8c.3-.2.7-.4 1.2-.4zm8.9-3.3c.3 0 .7-.1 1.1-.1c.4 0 .9.1 1.1.1c0 .6-.2 1.5-.5 2c-.3.1-.6.2-1 .2c-.4 0-.7-.1-1-.2c0-.7.1-1.4.3-2zm1.7 3.2c0 0-.9 5.3-.9 5.3c0 .4 0 .7 0 .8c0 .4.1.5.5.5c.03.01.5 0 .5 0c0 0-.1.89-.1.9c-.4.2-1.2.4-1.9.4c-.9 0-1.3-.4-1.3-1.2c0-.2 0-.6.1-.9c-.04.04.6-4.4.6-4.4l-.9-.2c0 0 .07-.78.1-.8c.7-.2 2.1-.4 3.3-.4zm1.3 5.4c.04-.02 1.1 0 1.1 0c0 0 .14 1.52.1 1.5c.2 0 .5.1.7.1c.9 0 1.4-.5 1.4-1.1c0-.6-.6-.9-1.3-1.3c0 0-.6-.3-.6-.3c-.6-.3-1.1-.9-1.1-1.8c0-1.6 1.2-2.5 3.1-2.5c1 0 2 .2 2.5.4c0 .8-.1 1.5-.5 2.1c.03.03-1.1 0-1.1 0c0 0-.03-1.46 0-1.5c-.2 0-.5 0-.7 0c-.7 0-1.3.3-1.3 1c0 .5.6.8 1.1 1.1c0 0 .6.3.6.3c.7.5 1.5 1 1.5 2c0 1.6-1.3 2.5-3.4 2.5c-.9 0-2-.1-2.6-.4c0-.8.2-1.5.5-2.1zm10.1-5.4c0 0-.3 1.7-.3 1.7c.7-1.1 1.5-1.7 2.6-1.7c1.1 0 1.7.6 1.7 1.5c0 .3 0 .6-.1.9c0 0-.5 3-.5 3c-.1.4-.1.6-.1.8c0 .3.1.4.6.4c-.04.01.5 0 .5 0c0 0-.17.89-.2.9c-.4.2-1.1.4-1.9.4c-.9 0-1.3-.4-1.3-1.1c0-.3 0-.7.1-1c0 0 .5-2.9.5-2.9c.1-.3.1-.5.1-.7c0-.4-.2-.6-.6-.6c-.5 0-1 .3-1.6 1.1c.04-.02-.8 5.1-.8 5.1l-2.2 0l1-6.4l-1-.2c0 0 .14-.78.1-.8c.8-.2 2.2-.4 3.4-.4zm7.1-2.7c.9 0 1.3.6 1.3 1.6c0 1.5-1.1 3.1-2.9 3.6c0 0-.5-.8-.5-.8c.9-.3 1.6-1 1.8-1.8c-.7 0-1.1-.5-1.1-1.2c0-.8.6-1.4 1.4-1.4zm3.1 2.8c0 0 .4-1.2.4-1.2c.4-.2 1.3-.3 1.9-.3c.05.03-.2 1.5-.2 1.5l1.7 0l-.1 1.2l-1.8 0c0 0-.48 3.36-.5 3.4c0 .4-.1.8-.1 1.1c0 .4.1.6.4.6c.5 0 .9-.6 1.3-1.2c0 0 .6.3.6.3c-.5 1.4-1.3 2.4-2.8 2.4c-1.2 0-1.7-.6-1.7-1.7c0-.4 0-.9.1-1.5c.01.02.5-3.4.5-3.4l-1 0c0 0 .11-.85.1-.8c.2-.2.7-.4 1.2-.4z" stroke="none" fill="#404040"/><path d="m4.6 76.1c1.6 0 2.4.7 2.4 1.8c0 1.5-1.1 2.4-3.5 2.4c0 0-.7 0-.7 0c0 .2 0 .5 0 .7c0 1.1.5 1.5 1.1 1.5c.8 0 1.3-.4 1.8-1.3c0 0 .8.4.8.4c-.6 1.6-1.8 2.5-3.3 2.5c-1.8 0-2.7-1.1-2.7-2.9c0-2.7 1.5-5.1 4.1-5.1zm-1.7 3.4c0 0 .3 0 .3 0c1.3 0 1.8-.7 1.8-1.5c0-.5-.2-.7-.6-.7c-.8 0-1.3.9-1.5 2.2zm8.4-3.4c.7 0 1.2.2 1.5.7c.4-.3 1-.6 1.4-.7c.04-.03.8.2.8.2c0 0-.82 5.2-.8 5.2c-.1.3-.1.6-.1.8c0 .3.1.4.6.4c-.03.01.5 0 .5 0c0 0-.16.89-.2.9c-.4.2-1.1.4-1.9.4c-.9 0-1.3-.4-1.3-1.2c0 0 0-.1.1-.2c-.6.9-1.3 1.4-2.3 1.4c-1.4 0-2.1-1-2.1-2.7c0-2.8 1.5-5.2 3.8-5.2zm.7 5.5c0 0 .6-4.1.6-4.1c-.2-.1-.4-.2-.7-.2c-1.3 0-2.1 1.9-2.1 4c0 .9.3 1.3.9 1.3c.5 0 .9-.4 1.3-1zm4.3-.1c.02-.02 1.1 0 1.1 0c0 0 .12 1.52.1 1.5c.2 0 .5.1.7.1c.8 0 1.4-.5 1.4-1.1c0-.6-.6-.9-1.3-1.3c0 0-.6-.3-.6-.3c-.6-.3-1.1-.9-1.1-1.8c0-1.6 1.2-2.5 3.1-2.5c1 0 2 .2 2.5.4c0 .8-.1 1.5-.5 2.1c.01.03-1.1 0-1.1 0c0 0-.06-1.46-.1-1.5c-.2 0-.4 0-.6 0c-.8 0-1.3.3-1.3 1c0 .5.6.8 1.1 1.1c0 0 .6.3.6.3c.7.5 1.4 1 1.4 2c0 1.6-1.2 2.5-3.3 2.5c-.9 0-2-.1-2.6-.4c0-.8.2-1.5.5-2.1zm8.5 2.8c.02 0 .1-.1.1-.1l-1.2-6.7l-.9-.2c0 0 .08-.78.1-.8c.6-.2 1.8-.4 2.8-.4c0 0 1 5.7 1 5.7c1-1.4 1.5-2.8 1.6-4.3c-.04.04-1-.2-1-.2c0 0 .11-.78.1-.8c.5-.2 1.3-.4 1.8-.4c.8 0 1 .4 1 1c0 1.4-1.2 3.2-2.8 5.4c0 0-1.5 2.1-1.5 2.1c-.9 1.2-1.8 2.4-3 2.4c-.7 0-1.1-.3-1.5-.9c0 0 .2-.7.2-.7c.4.2.9.3 1.3.3c1 0 1.4-.7 1.9-1.4zm10.2-8.1c0 0 .3-1.2.3-1.2c.4-.2 1.3-.3 2-.3c-.01.03-.2 1.5-.2 1.5l1.7 0l-.2 1.2l-1.7 0c0 0-.53 3.36-.5 3.4c-.1.4-.1.8-.1 1.1c0 .4.1.6.4.6c.5 0 .9-.6 1.2-1.2c0 0 .7.3.7.3c-.5 1.4-1.4 2.4-2.9 2.4c-1.1 0-1.7-.6-1.7-1.7c0-.4.1-.9.2-1.5c-.04.02.5-3.4.5-3.4l-1.1 0c0 0 .16-.85.2-.8c.2-.2.6-.4 1.2-.4zm8.5-.1c2.2 0 3.2 1.2 3.2 2.9c0 2.6-1.5 5.1-4.3 5.1c-2.3 0-3.2-1.2-3.2-3c0-2.6 1.4-5 4.3-5zm-1.1 6.9c1.3 0 2-2.4 2-4.3c0-.8-.3-1.5-1-1.5c-1.2 0-1.9 2.3-1.9 4.2c0 .9.3 1.6.9 1.6zm8.9.6c-.4-.2-.6-.6-.6-1.1c0-.6.5-1.3 1.4-1.7c-.9-.3-1.4-1-1.4-1.9c0-1.7 1.3-2.8 3.6-2.8c.8 0 1.4.1 1.9.4c.4-.4 1.3-.6 2-.6c0 .4 0 .9-.3 1.5c0 0-.9 0-.9 0c.1.2.2.6.2.9c0 1.7-1.3 2.8-3.5 2.8c-.3 0-.6 0-.8-.1c-.2.2-.4.4-.4.6c0 .3.1.4.5.5c0 0 1.8.1 1.8.1c1.6.1 2.3.6 2.3 1.7c0 1.6-1.7 3.1-4.6 3.1c-2 0-2.9-.6-2.9-1.6c0-1 .6-1.5 1.7-1.8zm3.8-5.5c0-.7-.3-1.2-1-1.2c-.9 0-1.3 1-1.3 2.1c0 .8.4 1.2 1 1.2c.9 0 1.3-.9 1.3-2.1zm-3.8 6.9c0 .7.7 1 1.7 1c1.3 0 2.2-.4 2.2-1.3c0-.5-.3-.7-1.1-.7c0 0-2-.2-2-.2c-.5.3-.8.7-.8 1.2zm10.8-8.9c1.5 0 2.4.7 2.4 1.8c0 1.5-1.2 2.4-3.6 2.4c0 0-.6 0-.6 0c0 .2 0 .5 0 .7c0 1.1.4 1.5 1.1 1.5c.7 0 1.2-.4 1.8-1.3c0 0 .7.4.7.4c-.6 1.6-1.8 2.5-3.3 2.5c-1.7 0-2.6-1.1-2.6-2.9c0-2.7 1.4-5.1 4.1-5.1zm-1.7 3.4c0 0 .3 0 .3 0c1.2 0 1.8-.7 1.8-1.5c0-.5-.2-.7-.7-.7c-.7 0-1.2.9-1.4 2.2zm6-3.3c0 0 .4-1.2.4-1.2c.4-.2 1.3-.3 2-.3c-.03.03-.3 1.5-.3 1.5l1.8 0l-.2 1.2l-1.7 0c0 0-.56 3.36-.6 3.4c0 .4-.1.8-.1 1.1c0 .4.2.6.5.6c.4 0 .8-.6 1.2-1.2c0 0 .6.3.6.3c-.4 1.4-1.3 2.4-2.8 2.4c-1.2 0-1.7-.6-1.7-1.7c0-.4.1-.9.1-1.5c.03.02.6-3.4.6-3.4l-1.1 0c0 0 .13-.85.1-.8c.3-.2.7-.4 1.2-.4zm8.5 0c0 0 .3-1.2.3-1.2c.4-.2 1.3-.3 2-.3c0 .03-.2 1.5-.2 1.5l1.7 0l-.2 1.2l-1.7 0c0 0-.53 3.36-.5 3.4c-.1.4-.1.8-.1 1.1c0 .4.1.6.4.6c.5 0 .9-.6 1.2-1.2c0 0 .7.3.7.3c-.5 1.4-1.4 2.4-2.9 2.4c-1.1 0-1.7-.6-1.7-1.7c0-.4.1-.9.2-1.5c-.04.02.5-3.4.5-3.4l-1.1 0c0 0 .16-.85.2-.8c.2-.2.6-.4 1.2-.4zm8.5-.1c2.2 0 3.2 1.2 3.2 2.9c0 2.6-1.5 5.1-4.3 5.1c-2.3 0-3.2-1.2-3.2-3c0-2.6 1.4-5 4.3-5zm-1.1 6.9c1.3 0 2-2.4 2-4.3c0-.8-.3-1.5-1-1.5c-1.2 0-1.9 2.3-1.9 4.2c0 .9.3 1.6.9 1.6zm19.5-4.1l-.2 1.5l-12.1 0l.2-1.5l12.1 0zm4.5 5.4c.03 0 .1-.1.1-.1l-1.2-6.7l-.9-.2c0 0 .1-.78.1-.8c.7-.2 1.8-.4 2.8-.4c0 0 1 5.7 1 5.7c1-1.4 1.5-2.8 1.6-4.3c-.03.04-1-.2-1-.2c0 0 .13-.78.1-.8c.5-.2 1.3-.4 1.8-.4c.8 0 1 .4 1 1c0 1.4-1.1 3.2-2.7 5.4c0 0-1.6 2.1-1.6 2.1c-.9 1.2-1.8 2.4-3 2.4c-.7 0-1.1-.3-1.5-.9c0 0 .2-.7.2-.7c.4.2.9.3 1.3.3c1 0 1.5-.7 1.9-1.4zm9.9-8.2c2.2 0 3.2 1.2 3.2 2.9c0 2.6-1.4 5.1-4.3 5.1c-2.2 0-3.2-1.2-3.2-3c0-2.6 1.4-5 4.3-5zm-1 6.9c1.2 0 1.9-2.4 1.9-4.3c0-.8-.3-1.5-1-1.5c-1.2 0-1.9 2.3-1.9 4.2c0 .9.3 1.6 1 1.6zm12.7-6.9c0 0-.8 5.4-.8 5.4c0 .3-.1.6-.1.8c0 .3.1.4.6.4c-.02.01.5 0 .5 0c0 0-.15.89-.2.9c-.4.2-1.1.4-1.9.4c-.9 0-1.3-.4-1.3-1.2c0-.1.1-.4.1-.5c0 0 0-.1 0-.1c-.6 1.2-1.7 1.8-2.7 1.8c-1.1 0-1.6-.6-1.6-1.5c0-.2 0-.5 0-.7c.04-.05.7-4.3.7-4.3l-.9-.2c0 0 .07-.78.1-.8c.7-.2 2.1-.4 3.3-.4c0 0-.9 5-.9 5c0 .2 0 .5 0 .7c0 .4.1.6.6.6c.5 0 1-.3 1.5-1.1c.01 0 .6-3.8.6-3.8l-.9-.2c0 0 .09-.78.1-.8c.7-.2 2-.4 3.2-.4zm8.2 0c.9 0 1.7.2 2.1.5c0 .8-.3 1.8-.6 2.4c.05-.03-1.1 0-1.1 0c0 0-.1-1.71-.1-1.7c-.1 0-.1 0-.2 0c-1.3 0-2.1 1.9-2.1 3.7c0 1 .5 1.5 1.1 1.5c.8 0 1.3-.4 1.8-1.3c0 0 .8.4.8.4c-.7 1.6-1.8 2.5-3.4 2.5c-1.7 0-2.6-1.1-2.6-2.9c0-2.7 1.5-5.1 4.3-5.1zm6.3 0c.7 0 1.2.2 1.5.7c.4-.3 1-.6 1.4-.7c.04-.03.8.2.8.2c0 0-.82 5.2-.8 5.2c-.1.3-.1.6-.1.8c0 .3.1.4.6.4c-.03.01.5 0 .5 0c0 0-.16.89-.2.9c-.4.2-1.1.4-1.9.4c-.9 0-1.3-.4-1.3-1.2c0 0 0-.1.1-.2c-.6.9-1.3 1.4-2.3 1.4c-1.4 0-2.1-1-2.1-2.7c0-2.8 1.5-5.2 3.8-5.2zm.7 5.5c0 0 .6-4.1.6-4.1c-.2-.1-.4-.2-.7-.2c-1.3 0-2.1 1.9-2.1 4c0 .9.3 1.3.9 1.3c.5 0 .9-.4 1.3-1zm7.5-5.5c0 0-.3 1.7-.3 1.7c.7-1.1 1.6-1.7 2.7-1.7c1.1 0 1.7.6 1.7 1.5c0 .3-.1.6-.1.9c0 0-.6 3-.6 3c-.1.4-.1.6-.1.8c0 .3.1.4.6.4c-.01.01.5 0 .5 0c0 0-.14.89-.1.9c-.4.2-1.2.4-2 .4c-.9 0-1.3-.4-1.3-1.1c0-.3.1-.7.1-1c0 0 .6-2.9.6-2.9c0-.3 0-.5 0-.7c0-.4-.1-.6-.6-.6c-.5 0-1 .3-1.5 1.1c-.03-.02-.8 5.1-.8 5.1l-2.3 0l1.1-6.4l-1-.2c0 0 .08-.78.1-.8c.7-.2 2.1-.4 3.3-.4zm7.1-2.7c.9 0 1.3.6 1.3 1.6c0 1.5-1.1 3.1-2.9 3.6c0 0-.4-.8-.4-.8c.8-.3 1.5-1 1.7-1.8c-.6 0-1.1-.5-1.1-1.2c0-.8.6-1.4 1.4-1.4zm3.1 2.8c0 0 .4-1.2.4-1.2c.4-.2 1.3-.3 2-.3c-.02.03-.3 1.5-.3 1.5l1.8 0l-.2 1.2l-1.7 0c0 0-.55 3.36-.5 3.4c-.1.4-.2.8-.2 1.1c0 .4.2.6.5.6c.4 0 .8-.6 1.2-1.2c0 0 .6.3.6.3c-.4 1.4-1.3 2.4-2.8 2.4c-1.2 0-1.7-.6-1.7-1.7c0-.4.1-.9.1-1.5c.05.02.6-3.4.6-3.4l-1.1 0c0 0 .15-.85.1-.8c.3-.2.7-.4 1.2-.4zm15.1-3.5c0 0-1.3 8.7-1.3 8.7c-.1.4-.1.7-.1.9c0 .3.1.4.5.4c.04.01.5 0 .5 0c0 0-.1.89-.1.9c-.4.2-1.1.4-1.9.4c-.9 0-1.3-.4-1.3-1.2c0 0 0-.1 0-.2c-.5.9-1.2 1.4-2.3 1.4c-1.3 0-2-1-2-2.7c0-2.8 1.5-5.2 3.8-5.2c.6 0 1.1.2 1.4.6c.02-.04.4-2.6.4-2.6l-1.2-.2c0 0 .13-.8.1-.8c.7-.2 2.3-.4 3.5-.4zm-3.6 8.8c0 0 .7-4 .7-4c-.2-.1-.5-.2-.7-.2c-1.3 0-2.1 1.9-2.1 4c0 .9.3 1.3.8 1.3c.5 0 1-.4 1.3-1.1zm7.6-5.4c0 0-.3 1.9-.3 1.9c.5-1.2 1.4-1.9 2.2-1.9c.5 0 .8.1 1 .2c0 .9-.3 2.1-.6 2.7c.02 0-1.2 0-1.2 0c0 0-.09-1.36-.1-1.4c-.5.1-1 .7-1.5 1.5c-.03.04-.8 4.8-.8 4.8l-2.2 0l1-6.4l-1-.2c0 0 .14-.78.1-.8c.8-.2 2.2-.4 3.4-.4zm5.1-3.2c.3 0 .7-.1 1.1-.1c.4 0 .9.1 1.1.1c0 .6-.2 1.5-.5 2c-.3.1-.6.2-1 .2c-.4 0-.7-.1-1-.2c0-.7.1-1.4.3-2zm1.7 3.2c0 0-.9 5.3-.9 5.3c0 .4-.1.7-.1.8c0 .4.2.5.6.5c.02.01.5 0 .5 0c0 0-.12.89-.1.9c-.4.2-1.2.4-1.9.4c-.9 0-1.3-.4-1.3-1.2c0-.2 0-.6 0-.9c.05.04.7-4.4.7-4.4l-.9-.2c0 0 .06-.78.1-.8c.7-.2 2.1-.4 3.3-.4zm.6 1.2c0 0 .06-.78.1-.8c.6-.2 1.8-.4 2.8-.4c-.03 0 .9 5.7.9 5.7c0 0 .37-.5.4-.5c.8-1.4 1.2-2.5 1.2-3.8c.05.04-.9-.2-.9-.2c0 0 .08-.78.1-.8c.5-.2 1.3-.4 1.8-.4c.8 0 1 .4 1 1c0 1.2-.8 3-2.8 5.4c0 0-1.2 1.4-1.2 1.4l-1.4 0l-1.1-6.4l-.9-.2zm11.7-1.2c1.6 0 2.4.7 2.4 1.8c0 1.5-1.1 2.4-3.6 2.4c0 0-.6 0-.6 0c0 .2 0 .5 0 .7c0 1.1.4 1.5 1.1 1.5c.7 0 1.3-.4 1.8-1.3c0 0 .7.4.7.4c-.6 1.6-1.7 2.5-3.2 2.5c-1.8 0-2.7-1.1-2.7-2.9c0-2.7 1.4-5.1 4.1-5.1zm-1.7 3.4c0 0 .3 0 .3 0c1.3 0 1.8-.7 1.8-1.5c0-.5-.2-.7-.6-.7c-.8 0-1.3.9-1.5 2.2zm9.1-3.3c0 0 .3-1.2.3-1.2c.4-.2 1.3-.3 2-.3c0 .03-.2 1.5-.2 1.5l1.7 0l-.2 1.2l-1.7 0c0 0-.53 3.36-.5 3.4c-.1.4-.1.8-.1 1.1c0 .4.1.6.4.6c.5 0 .9-.6 1.2-1.2c0 0 .7.3.7.3c-.5 1.4-1.4 2.4-2.9 2.4c-1.1 0-1.7-.6-1.7-1.7c0-.4.1-.9.2-1.5c-.04.02.5-3.4.5-3.4l-1.1 0c0 0 .16-.85.2-.8c.2-.2.6-.4 1.2-.4zm8.5-.1c2.2 0 3.2 1.2 3.2 2.9c0 2.6-1.4 5.1-4.3 5.1c-2.3 0-3.2-1.2-3.2-3c0-2.6 1.4-5 4.3-5zm-1 6.9c1.2 0 1.9-2.4 1.9-4.3c0-.8-.3-1.5-1-1.5c-1.2 0-1.9 2.3-1.9 4.2c0 .9.3 1.6 1 1.6zm9.4-6.8c0 0 .3-1.2.3-1.2c.5-.2 1.3-.3 2-.3c.01.03-.2 1.5-.2 1.5l1.7 0l-.2 1.2l-1.7 0c0 0-.52 3.36-.5 3.4c-.1.4-.1.8-.1 1.1c0 .4.1.6.4.6c.5 0 .9-.6 1.2-1.2c0 0 .7.3.7.3c-.5 1.4-1.4 2.4-2.8 2.4c-1.2 0-1.8-.6-1.8-1.7c0-.4.1-.9.2-1.5c-.02.02.5-3.4.5-3.4l-1.1 0c0 0 .18-.85.2-.8c.2-.2.6-.4 1.2-.4zm8.6 5.7c0 0 .6-2.9.6-2.9c0-.3.1-.5.1-.7c0-.4-.2-.6-.7-.6c-.5 0-1 .3-1.5 1.1c-.02-.01-.8 5.1-.8 5.1l-2.2 0l1.5-9.8l-1.1-.2c0 0 .07-.8.1-.8c.7-.2 2.2-.4 3.4-.4c0 0-.8 5.1-.8 5.1c.7-1.1 1.6-1.7 2.7-1.7c1.1 0 1.7.6 1.7 1.5c0 .3-.1.6-.1.9c0 0-.6 3-.6 3c0 .4-.1.6-.1.8c0 .3.2.4.6.4c.02.01.5 0 .5 0c0 0-.12.89-.1.9c-.4.2-1.2.4-1.9.4c-.9 0-1.4-.4-1.4-1.1c0-.3.1-.7.1-1zm8.3-5.8c1.5 0 2.4.7 2.4 1.8c0 1.5-1.2 2.4-3.6 2.4c0 0-.6 0-.6 0c0 .2 0 .5 0 .7c0 1.1.4 1.5 1.1 1.5c.7 0 1.2-.4 1.8-1.3c0 0 .7.4.7.4c-.6 1.6-1.8 2.5-3.3 2.5c-1.7 0-2.6-1.1-2.6-2.9c0-2.7 1.4-5.1 4.1-5.1zm-1.7 3.4c0 0 .3 0 .3 0c1.2 0 1.8-.7 1.8-1.5c0-.5-.3-.7-.7-.7c-.7 0-1.2.9-1.4 2.2zm9.5-6.6c.2 0 .7-.1 1.1-.1c.4 0 .8.1 1.1.1c0 .6-.3 1.5-.5 2c-.3.1-.6.2-1 .2c-.4 0-.8-.1-1-.2c0-.7.1-1.4.3-2zm1.6 3.2c0 0-.8 5.3-.8 5.3c-.1.4-.1.7-.1.8c0 .4.2.5.6.5c-.01.01.5 0 .5 0c0 0-.14.89-.1.9c-.4.2-1.2.4-2 .4c-.8 0-1.3-.4-1.3-1.2c0-.2.1-.6.1-.9c.02.04.7-4.4.7-4.4l-1-.2c0 0 .13-.78.1-.8c.7-.2 2.1-.4 3.3-.4zm1.4 5.4c0-.02 1.1 0 1.1 0c0 0 .1 1.52.1 1.5c.2 0 .4.1.7.1c.8 0 1.3-.5 1.3-1.1c0-.6-.6-.9-1.3-1.3c0 0-.5-.3-.5-.3c-.6-.3-1.2-.9-1.2-1.8c0-1.6 1.3-2.5 3.1-2.5c1.1 0 2.1.2 2.6.4c0 .8-.1 1.5-.5 2.1c-.01.03-1.1 0-1.1 0c0 0-.07-1.46-.1-1.5c-.2 0-.4 0-.7 0c-.7 0-1.2.3-1.2 1c0 .5.5.8 1.1 1.1c0 0 .5.3.5.3c.8.5 1.5 1 1.5 2c0 1.6-1.2 2.5-3.3 2.5c-.9 0-2-.1-2.6-.4c0-.8.2-1.5.5-2.1zm10.3-8.8c0 0-1.4 8.7-1.4 8.7c0 .4-.1.7-.1.8c0 .4.2.5.6.5c.03.01.5 0 .5 0c0 0-.12.89-.1.9c-.4.2-1.2.4-1.9.4c-.9 0-1.3-.4-1.3-1.2c0-.2 0-.6 0-.9c.04.04 1.3-7.8 1.3-7.8l-1.2-.2c0 0 .13-.8.1-.8c.7-.2 2.3-.4 3.5-.4zm4.2 3.4c.8 0 1.3.2 1.6.7c.3-.3.9-.6 1.4-.7c-.03-.03.7.2.7.2c0 0-.79 5.2-.8 5.2c0 .3-.1.6-.1.8c0 .3.2.4.6.4c.01.01.5 0 .5 0c0 0-.13.89-.1.9c-.4.2-1.2.4-1.9.4c-1 0-1.3-.4-1.3-1.2c0 0 0-.1 0-.2c-.5.9-1.3 1.4-2.3 1.4c-1.4 0-2.1-1-2.1-2.7c0-2.8 1.6-5.2 3.8-5.2zm.7 5.5c0 0 .7-4.1.7-4.1c-.2-.1-.5-.2-.7-.2c-1.4 0-2.2 1.9-2.2 4c0 .9.3 1.3.9 1.3c.5 0 .9-.4 1.3-1zm7.5-5.5c0 0-.2 1.7-.2 1.7c.7-1.1 1.5-1.7 2.6-1.7c1.1 0 1.7.6 1.7 1.5c0 .3-.1.6-.1.9c0 0-.6 3-.6 3c0 .4-.1.6-.1.8c0 .3.2.4.6.4c.03.01.5 0 .5 0c0 0-.11.89-.1.9c-.4.2-1.2.4-1.9.4c-.9 0-1.4-.4-1.4-1.1c0-.3.1-.7.1-1c0 0 .6-2.9.6-2.9c0-.3.1-.5.1-.7c0-.4-.2-.6-.7-.6c-.5 0-.9.3-1.5 1.1c.01-.02-.8 5.1-.8 5.1l-2.2 0l1-6.4l-1-.2c0 0 .11-.78.1-.8c.7-.2 2.1-.4 3.3-.4zm13.4-3.4c0 0-1.4 8.7-1.4 8.7c-.1.4-.1.7-.1.9c0 .3.1.4.6.4c-.03.01.5 0 .5 0c0 0-.16.89-.2.9c-.4.2-1.1.4-1.9.4c-.9 0-1.3-.4-1.3-1.2c0 0 0-.1.1-.2c-.6.9-1.3 1.4-2.4 1.4c-1.3 0-2-1-2-2.7c0-2.8 1.5-5.2 3.8-5.2c.7 0 1.1.2 1.4.6c.05-.04.4-2.6.4-2.6l-1.1-.2c0 0 .06-.8.1-.8c.7-.2 2.3-.4 3.5-.4zm-3.6 8.8c0 0 .6-4 .6-4c-.2-.1-.4-.2-.7-.2c-1.3 0-2.1 1.9-2.1 4c0 .9.3 1.3.9 1.3c.5 0 .9-.4 1.3-1.1zm4.4 0c-.02-.02 1.1 0 1.1 0c0 0 .08 1.52.1 1.5c.2 0 .4.1.6.1c.9 0 1.4-.5 1.4-1.1c0-.6-.6-.9-1.3-1.3c0 0-.5-.3-.5-.3c-.7-.3-1.2-.9-1.2-1.8c0-1.6 1.3-2.5 3.1-2.5c1 0 2 .2 2.6.4c0 .8-.1 1.5-.5 2.1c-.03.03-1.2 0-1.2 0c0 0 .01-1.46 0-1.5c-.2 0-.4 0-.7 0c-.7 0-1.2.3-1.2 1c0 .5.5.8 1.1 1.1c0 0 .5.3.5.3c.8.5 1.5 1 1.5 2c0 1.6-1.2 2.5-3.4 2.5c-.8 0-2-.1-2.5-.4c0-.8.2-1.5.5-2.1zm6.6 1.4c0-1 .5-1.6 1.4-1.6c.8 0 1.2.4 1.2 1.2c0 .9-.5 1.6-1.4 1.6c-.7 0-1.2-.5-1.2-1.2zm12.9-.1c.03.02-.3-1.8-.3-1.8l-3.3 0c0 0-.86 1.81-.9 1.8c.4 0 .9.1 1.1.2c-.01.03-.1.9-.1.9l-3.4 0c0 0 .16-.87.2-.9c.1 0 .4-.1.7-.2c0 0 4.8-9.2 4.8-9.2c.2 0 .7-.1 1-.1c.3 0 .6.1.9.1c0 0 1.7 9.2 1.7 9.2c.3.1.6.2.8.2c-.03.03-.2.9-.2.9l-4.2 0c0 0 .08-.87.1-.9c.2-.1.7-.1 1.1-.2zm-.5-3l-.6-3.8l-1.9 3.8l2.5 0z" stroke="none" fill="#404040"/><path d="m.8 101.5c0-.02 1.1 0 1.1 0c0 0 .1 1.52.1 1.5c.2 0 .4.1.7.1c.8 0 1.3-.5 1.3-1.1c0-.6-.6-.9-1.3-1.3c0 0-.5-.3-.5-.3c-.6-.3-1.2-.9-1.2-1.8c0-1.6 1.3-2.5 3.1-2.5c1.1 0 2.1.2 2.6.4c0 .8-.1 1.5-.5 2.1c-.01.03-1.1 0-1.1 0c0 0-.08-1.46-.1-1.5c-.2 0-.4 0-.7 0c-.7 0-1.2.3-1.2 1c0 .5.5.8 1.1 1.1c0 0 .5.3.5.3c.8.5 1.5 1 1.5 2c0 1.6-1.2 2.5-3.4 2.5c-.8 0-1.9-.1-2.5-.4c0-.8.2-1.5.5-2.1zm10.9.4c0 0 .6-2.9.6-2.9c0-.3.1-.5.1-.7c0-.4-.2-.6-.7-.6c-.5 0-.9.3-1.5 1.1c-.01-.01-.8 5.1-.8 5.1l-2.2 0l1.5-9.8l-1.1-.2c0 0 .08-.8.1-.8c.7-.2 2.3-.4 3.4-.4c0 0-.8 5.1-.8 5.1c.7-1.1 1.6-1.7 2.7-1.7c1.1 0 1.7.6 1.7 1.5c0 .3-.1.6-.1.9c0 0-.6 3-.6 3c0 .4-.1.6-.1.8c0 .3.2.4.6.4c.03.01.5 0 .5 0c0 0-.1.89-.1.9c-.4.2-1.2.4-1.9.4c-.9 0-1.4-.4-1.4-1.1c0-.3.1-.7.1-1zm8.5-5.8c2.2 0 3.1 1.2 3.1 2.9c0 2.6-1.4 5.1-4.3 5.1c-2.2 0-3.1-1.2-3.1-3c0-2.6 1.4-5 4.3-5zm-1.1 6.9c1.3 0 1.9-2.4 1.9-4.3c0-.8-.2-1.5-.9-1.5c-1.3 0-1.9 2.3-1.9 4.2c0 .9.2 1.6.9 1.6zm8.6-6.9c0 0-.3 1.9-.3 1.9c.6-1.2 1.4-1.9 2.3-1.9c.4 0 .7.1.9.2c0 .9-.3 2.1-.6 2.7c.05 0-1.2 0-1.2 0c0 0-.06-1.36-.1-1.4c-.5.1-1 .7-1.5 1.5c0 .04-.7 4.8-.7 4.8l-2.3 0l1-6.4l-.9-.2c0 0 .07-.78.1-.8c.7-.2 2.1-.4 3.3-.4zm4.8.1c0 0 .4-1.2.4-1.2c.4-.2 1.3-.3 2-.3c-.02.03-.3 1.5-.3 1.5l1.8 0l-.2 1.2l-1.7 0c0 0-.55 3.36-.5 3.4c-.1.4-.2.8-.2 1.1c0 .4.2.6.5.6c.4 0 .8-.6 1.2-1.2c0 0 .6.3.6.3c-.4 1.4-1.3 2.4-2.8 2.4c-1.2 0-1.7-.6-1.7-1.7c0-.4.1-.9.1-1.5c.04.02.6-3.4.6-3.4l-1.1 0c0 0 .14-.85.1-.8c.3-.2.7-.4 1.2-.4zm11.1-3.5c0 0-.7 4.8-.7 4.8c.5-.9 1.2-1.4 2.2-1.4c1.4 0 2.1 1.1 2.1 2.7c0 2.8-1.4 5.2-3.9 5.2c-.7 0-1.2-.2-1.6-.6c-.4.3-.8.5-1.3.6c0 .04-.7-.2-.7-.2l1.5-9.7l-1.2-.2c0 0 .14-.8.1-.8c.8-.2 2.3-.4 3.5-.4zm-.9 5.9c0 0-.6 4-.6 4c.2.1.4.2.7.2c1.3 0 2.1-1.9 2.1-4c0-.9-.3-1.3-.9-1.3c-.5 0-.9.4-1.3 1.1zm13.1-2.5c0 0-.9 5.4-.9 5.4c0 .3-.1.6-.1.8c0 .3.2.4.6.4c.01.01.5 0 .5 0c0 0-.12.89-.1.9c-.4.2-1.2.4-1.9.4c-1 0-1.3-.4-1.3-1.2c0-.1 0-.4 0-.5c0 0 0-.1 0-.1c-.6 1.2-1.6 1.8-2.7 1.8c-1.1 0-1.6-.6-1.6-1.5c0-.2 0-.5.1-.7c-.03-.05.7-4.3.7-4.3l-1-.2c0 0 .09-.78.1-.8c.7-.2 2.1-.4 3.3-.4c0 0-.8 5-.8 5c-.1.2-.1.5-.1.7c0 .4.2.6.6.6c.5 0 1-.3 1.5-1.1c.04 0 .6-3.8.6-3.8l-.9-.2c0 0 .11-.78.1-.8c.7-.2 2.1-.4 3.3-.4zm2.2.1c0 0 .4-1.2.4-1.2c.4-.2 1.3-.3 2-.3c-.03.03-.3 1.5-.3 1.5l1.8 0l-.2 1.2l-1.7 0c0 0-.56 3.36-.6 3.4c0 .4-.1.8-.1 1.1c0 .4.2.6.5.6c.4 0 .8-.6 1.2-1.2c0 0 .6.3.6.3c-.4 1.4-1.3 2.4-2.8 2.4c-1.2 0-1.7-.6-1.7-1.7c0-.4.1-.9.1-1.5c.03.02.6-3.4.6-3.4l-1.1 0c0 0 .13-.85.1-.8c.3-.2.7-.4 1.2-.4zm11.2-.1c1.5 0 2.3.7 2.3 1.8c0 1.5-1.1 2.4-3.5 2.4c0 0-.7 0-.7 0c0 .2 0 .5 0 .7c0 1.1.5 1.5 1.1 1.5c.8 0 1.3-.4 1.8-1.3c0 0 .8.4.8.4c-.6 1.6-1.8 2.5-3.3 2.5c-1.8 0-2.7-1.1-2.7-2.9c0-2.7 1.5-5.1 4.2-5.1zm-1.8 3.4c0 0 .4 0 .4 0c1.2 0 1.7-.7 1.7-1.5c0-.5-.2-.7-.6-.7c-.8 0-1.3.9-1.5 2.2zm7.6-3.4c.01 0 1 2.7 1 2.7c0 0 1.31-2.52 1.3-2.5c.3-.1 1.9-.1 2.2-.1c0 0-.2.9-.2.9c-.1.1-.4.2-.7.2c-.03.02-2.1 2.7-2.1 2.7c0 0 .79 2.04.8 2c.2.6.4.7.9.7c.02.01.5 0 .5 0c0 0-.16.89-.2.9c-.5.3-1 .4-1.6.4c-.9 0-1.4-.4-1.7-1.2c.01-.04-.5-1.3-.5-1.3l-1.3 2.4l-2.1 0c0 0 .11-.87.1-.9c.2 0 .5-.1.8-.2c.01.01 2-2.6 2-2.6l-1-2.6l-1-.3c0 0 .09-.78.1-.8c.6-.2 1.7-.4 2.7-.4zm8.5 0c1 0 1.7.2 2.2.5c0 .8-.3 1.8-.6 2.4c.02-.03-1.1 0-1.1 0c0 0-.13-1.71-.1-1.7c-.1 0-.2 0-.3 0c-1.2 0-2 1.9-2 3.7c0 1 .5 1.5 1.1 1.5c.8 0 1.3-.4 1.8-1.3c0 0 .8.4.8.4c-.7 1.6-1.8 2.5-3.4 2.5c-1.7 0-2.6-1.1-2.6-2.9c0-2.7 1.5-5.1 4.2-5.1zm4.6-3.2c.3 0 .7-.1 1.2-.1c.4 0 .8.1 1.1.1c0 .6-.3 1.5-.5 2c-.3.1-.6.2-1.1.2c-.3 0-.7-.1-.9-.2c0-.7.1-1.4.2-2zm1.7 3.2c0 0-.8 5.3-.8 5.3c-.1.4-.1.7-.1.8c0 .4.1.5.6.5c-.03.01.5 0 .5 0c0 0-.16.89-.2.9c-.4.2-1.1.4-1.9.4c-.8 0-1.3-.4-1.3-1.2c0-.2 0-.6.1-.9c0 .04.7-4.4.7-4.4l-1-.2c0 0 .11-.78.1-.8c.7-.2 2.1-.4 3.3-.4zm2.3.1c0 0 .3-1.2.3-1.2c.5-.2 1.3-.3 2-.3c.01.03-.2 1.5-.2 1.5l1.7 0l-.2 1.2l-1.7 0c0 0-.51 3.36-.5 3.4c-.1.4-.1.8-.1 1.1c0 .4.1.6.4.6c.5 0 .9-.6 1.2-1.2c0 0 .7.3.7.3c-.5 1.4-1.4 2.4-2.8 2.4c-1.2 0-1.8-.6-1.8-1.7c0-.4.1-.9.2-1.5c-.02.02.5-3.4.5-3.4l-1.1 0c0 0 .18-.85.2-.8c.2-.2.6-.4 1.2-.4zm6-3.3c.2 0 .7-.1 1.1-.1c.4 0 .8.1 1.1.1c0 .6-.3 1.5-.5 2c-.3.1-.6.2-1 .2c-.4 0-.8-.1-1-.2c0-.7.1-1.4.3-2zm1.6 3.2c0 0-.8 5.3-.8 5.3c-.1.4-.1.7-.1.8c0 .4.2.5.6.5c-.01.01.5 0 .5 0c0 0-.14.89-.1.9c-.4.2-1.2.4-2 .4c-.8 0-1.3-.4-1.3-1.2c0-.2.1-.6.1-.9c.02.04.7-4.4.7-4.4l-1-.2c0 0 .13-.78.1-.8c.7-.2 2.1-.4 3.3-.4zm4.5 0c0 0-.3 1.7-.3 1.7c.7-1.1 1.6-1.7 2.7-1.7c1.1 0 1.7.6 1.7 1.5c0 .3-.1.6-.1.9c0 0-.6 3-.6 3c0 .4-.1.6-.1.8c0 .3.2.4.6.4c.01.01.5 0 .5 0c0 0-.12.89-.1.9c-.4.2-1.2.4-1.9.4c-1 0-1.4-.4-1.4-1.1c0-.3.1-.7.1-1c0 0 .6-2.9.6-2.9c0-.3.1-.5.1-.7c0-.4-.2-.6-.7-.6c-.5 0-1 .3-1.5 1.1c-.01-.02-.8 5.1-.8 5.1l-2.2 0l1-6.4l-1-.2c0 0 .09-.78.1-.8c.7-.2 2.1-.4 3.3-.4zm6 7.5c-.4-.2-.6-.6-.6-1.1c0-.6.5-1.3 1.4-1.7c-.9-.3-1.4-1-1.4-1.9c0-1.7 1.3-2.8 3.6-2.8c.8 0 1.4.1 1.9.4c.4-.4 1.3-.6 2-.6c0 .4 0 .9-.3 1.5c0 0-.9 0-.9 0c.1.2.2.6.2.9c0 1.7-1.3 2.8-3.5 2.8c-.3 0-.6 0-.8-.1c-.2.2-.4.4-.4.6c0 .3.1.4.5.5c0 0 1.8.1 1.8.1c1.6.1 2.3.6 2.3 1.7c0 1.6-1.7 3.1-4.6 3.1c-2 0-3-.6-3-1.6c0-1 .7-1.5 1.8-1.8zm3.8-5.5c0-.7-.4-1.2-1-1.2c-.9 0-1.3 1-1.3 2.1c0 .8.4 1.2 1 1.2c.9 0 1.3-.9 1.3-2.1zm-3.8 6.9c0 .7.6 1 1.7 1c1.3 0 2.2-.4 2.2-1.3c0-.5-.3-.7-1.1-.7c0 0-2-.2-2-.2c-.5.3-.8.7-.8 1.2zm14.1-8.9c2.2 0 3.2 1.2 3.2 2.9c0 2.6-1.4 5.1-4.3 5.1c-2.2 0-3.2-1.2-3.2-3c0-2.6 1.4-5 4.3-5zm-1 6.9c1.2 0 1.9-2.4 1.9-4.3c0-.8-.3-1.5-1-1.5c-1.2 0-1.9 2.3-1.9 4.2c0 .9.3 1.6 1 1.6zm9.3-6.9c1 0 1.7.2 2.1.5c0 .8-.2 1.8-.5 2.4c-.01-.03-1.2 0-1.2 0c0 0-.06-1.71-.1-1.7c0 0-.1 0-.2 0c-1.2 0-2 1.9-2 3.7c0 1 .4 1.5 1.1 1.5c.7 0 1.3-.4 1.8-1.3c0 0 .7.4.7.4c-.6 1.6-1.7 2.5-3.3 2.5c-1.7 0-2.6-1.1-2.6-2.9c0-2.7 1.5-5.1 4.2-5.1zm6.6 0c1.6 0 2.4.7 2.4 1.8c0 1.5-1.1 2.4-3.5 2.4c0 0-.7 0-.7 0c0 .2 0 .5 0 .7c0 1.1.5 1.5 1.1 1.5c.8 0 1.3-.4 1.8-1.3c0 0 .8.4.8.4c-.6 1.6-1.8 2.5-3.3 2.5c-1.8 0-2.7-1.1-2.7-2.9c0-2.7 1.5-5.1 4.1-5.1zm-1.7 3.4c0 0 .4 0 .4 0c1.2 0 1.7-.7 1.7-1.5c0-.5-.2-.7-.6-.7c-.8 0-1.3.9-1.5 2.2zm8.4-3.4c.8 0 1.2.2 1.6.7c.3-.3.9-.6 1.3-.7c.05-.03.8.2.8.2c0 0-.82 5.2-.8 5.2c-.1.3-.1.6-.1.8c0 .3.1.4.6.4c-.02.01.5 0 .5 0c0 0-.15.89-.2.9c-.4.2-1.1.4-1.9.4c-.9 0-1.3-.4-1.3-1.2c0 0 0-.1.1-.2c-.6.9-1.3 1.4-2.3 1.4c-1.4 0-2.1-1-2.1-2.7c0-2.8 1.5-5.2 3.8-5.2zm.7 5.5c0 0 .6-4.1.6-4.1c-.2-.1-.4-.2-.7-.2c-1.3 0-2.1 1.9-2.1 4c0 .9.3 1.3.9 1.3c.5 0 .9-.4 1.3-1zm7.5-5.5c0 0-.3 1.7-.3 1.7c.7-1.1 1.6-1.7 2.7-1.7c1.1 0 1.7.6 1.7 1.5c0 .3-.1.6-.1.9c0 0-.6 3-.6 3c-.1.4-.1.6-.1.8c0 .3.1.4.6.4c0 .01.5 0 .5 0c0 0-.13.89-.1.9c-.4.2-1.2.4-2 .4c-.9 0-1.3-.4-1.3-1.1c0-.3.1-.7.1-1c0 0 .6-2.9.6-2.9c0-.3.1-.5.1-.7c0-.4-.2-.6-.7-.6c-.5 0-1 .3-1.5 1.1c-.02-.02-.8 5.1-.8 5.1l-2.2 0l1-6.4l-1-.2c0 0 .08-.78.1-.8c.7-.2 2.1-.4 3.3-.4zm7.9 1.2c0 0 .06-.78.1-.8c.6-.2 1.8-.4 2.8-.4c-.02 0 .9 5.7.9 5.7c0 0 .37-.5.4-.5c.9-1.4 1.2-2.5 1.3-3.8c-.05.04-1-.2-1-.2c0 0 .09-.78.1-.8c.5-.2 1.3-.4 1.8-.4c.8 0 1 .4 1 1c0 1.2-.8 3-2.8 5.4c.01 0-1.2 1.4-1.2 1.4l-1.4 0l-1.1-6.4l-.9-.2zm11.9-1.2c2.2 0 3.2 1.2 3.2 2.9c0 2.6-1.5 5.1-4.4 5.1c-2.2 0-3.1-1.2-3.1-3c0-2.6 1.4-5 4.3-5zm-1.1 6.9c1.3 0 1.9-2.4 1.9-4.3c0-.8-.2-1.5-.9-1.5c-1.2 0-1.9 2.3-1.9 4.2c0 .9.3 1.6.9 1.6zm6.6 1.3c.04 0 .1-.1.1-.1l-1.2-6.7l-.9-.2c0 0 .1-.78.1-.8c.7-.2 1.8-.4 2.8-.4c0 0 1 5.7 1 5.7c1-1.4 1.5-2.8 1.6-4.3c-.02.04-1-.2-1-.2c0 0 .13-.78.1-.8c.5-.2 1.3-.4 1.9-.4c.7 0 .9.4.9 1c0 1.4-1.1 3.2-2.7 5.4c0 0-1.6 2.1-1.6 2.1c-.9 1.2-1.8 2.4-3 2.4c-.7 0-1.1-.3-1.5-.9c0 0 .2-.7.2-.7c.4.2.9.3 1.3.3c1 0 1.5-.7 1.9-1.4zm9.5-8.2c.7 0 1.2.2 1.5.7c.3-.3.9-.6 1.4-.7c.01-.03.8.2.8.2c0 0-.86 5.2-.9 5.2c0 .3-.1.6-.1.8c0 .3.2.4.6.4c.04.01.5 0 .5 0c0 0-.09.89-.1.9c-.4.2-1.1.4-1.9.4c-.9 0-1.3-.4-1.3-1.2c0 0 0-.1 0-.2c-.5.9-1.2 1.4-2.3 1.4c-1.3 0-2-1-2-2.7c0-2.8 1.5-5.2 3.8-5.2zm.6 5.5c0 0 .7-4.1.7-4.1c-.2-.1-.5-.2-.7-.2c-1.3 0-2.1 1.9-2.1 4c0 .9.3 1.3.8 1.3c.5 0 .9-.4 1.3-1zm4.8 2c-.4-.2-.7-.6-.7-1.1c0-.6.6-1.3 1.5-1.7c-1-.3-1.4-1-1.4-1.9c0-1.7 1.3-2.8 3.5-2.8c.8 0 1.5.1 1.9.4c.5-.4 1.3-.6 2-.6c0 .4 0 .9-.2 1.5c0 0-1 0-1 0c.2.2.3.6.3.9c0 1.7-1.4 2.8-3.6 2.8c-.3 0-.5 0-.8-.1c-.2.2-.4.4-.4.6c0 .3.2.4.6.5c0 0 1.8.1 1.8.1c1.6.1 2.2.6 2.2 1.7c0 1.6-1.7 3.1-4.5 3.1c-2 0-3-.6-3-1.6c0-1 .6-1.5 1.8-1.8zm3.7-5.5c0-.7-.3-1.2-.9-1.2c-.9 0-1.3 1-1.3 2.1c0 .8.3 1.2.9 1.2c.9 0 1.3-.9 1.3-2.1zm-3.8 6.9c0 .7.7 1 1.7 1c1.3 0 2.2-.4 2.2-1.3c0-.5-.2-.7-1-.7c0 0-2-.2-2-.2c-.6.3-.9.7-.9 1.2zm10.8-8.9c1.6 0 2.4.7 2.4 1.8c0 1.5-1.1 2.4-3.5 2.4c0 0-.7 0-.7 0c0 .2 0 .5 0 .7c0 1.1.5 1.5 1.1 1.5c.8 0 1.3-.4 1.8-1.3c0 0 .8.4.8.4c-.6 1.6-1.8 2.5-3.3 2.5c-1.8 0-2.7-1.1-2.7-2.9c0-2.7 1.5-5.1 4.1-5.1zm-1.7 3.4c0 0 .3 0 .3 0c1.3 0 1.8-.7 1.8-1.5c0-.5-.2-.7-.6-.7c-.8 0-1.3.9-1.5 2.2zm11.9-3.4c2.3 0 3.2 1.2 3.2 2.9c0 2.6-1.4 5.1-4.3 5.1c-2.2 0-3.2-1.2-3.2-3c0-2.6 1.4-5 4.3-5zm-1 6.9c1.2 0 1.9-2.4 1.9-4.3c0-.8-.3-1.5-1-1.5c-1.2 0-1.9 2.3-1.9 4.2c0 .9.3 1.6 1 1.6zm8.5-6.9c0 0-.2 1.9-.2 1.9c.5-1.2 1.4-1.9 2.2-1.9c.5 0 .8.1 1 .2c0 .9-.3 2.1-.6 2.7c.02 0-1.2 0-1.2 0c0 0-.1-1.36-.1-1.4c-.5.1-1 .7-1.5 1.5c-.03.04-.8 4.8-.8 4.8l-2.2 0l1-6.4l-1-.2c0 0 .14-.78.1-.8c.8-.2 2.1-.4 3.3-.4zm9.9 0c.7 0 1.2.2 1.5.7c.4-.3 1-.6 1.4-.7c.03-.03.8.2.8.2c0 0-.83 5.2-.8 5.2c-.1.3-.1.6-.1.8c0 .3.1.4.6.4c-.04.01.5 0 .5 0c0 0-.17.89-.2.9c-.4.2-1.1.4-1.9.4c-.9 0-1.3-.4-1.3-1.2c0 0 0-.1 0-.2c-.5.9-1.2 1.4-2.3 1.4c-1.3 0-2-1-2-2.7c0-2.8 1.5-5.2 3.8-5.2zm.7 5.5c0 0 .6-4.1.6-4.1c-.2-.1-.4-.2-.7-.2c-1.3 0-2.1 1.9-2.1 4c0 .9.3 1.3.8 1.3c.6 0 1-.4 1.4-1zm11.1-5.5c.9 0 1.7.2 2.1.5c0 .8-.3 1.8-.6 2.4c.05-.03-1.1 0-1.1 0c0 0-.1-1.71-.1-1.7c-.1 0-.1 0-.2 0c-1.3 0-2.1 1.9-2.1 3.7c0 1 .5 1.5 1.1 1.5c.8 0 1.3-.4 1.8-1.3c0 0 .8.4.8.4c-.6 1.6-1.8 2.5-3.4 2.5c-1.7 0-2.6-1.1-2.6-2.9c0-2.7 1.5-5.1 4.3-5.1zm6.8 0c2.2 0 3.1 1.2 3.1 2.9c0 2.6-1.4 5.1-4.3 5.1c-2.2 0-3.1-1.2-3.1-3c0-2.6 1.4-5 4.3-5zm-1.1 6.9c1.3 0 1.9-2.4 1.9-4.3c0-.8-.2-1.5-.9-1.5c-1.3 0-1.9 2.3-1.9 4.2c0 .9.2 1.6.9 1.6zm8.6-6.9c0 0-.3 1.7-.3 1.7c.7-1.1 1.5-1.7 2.6-1.7c1.1 0 1.7.6 1.7 1.5c0 0 0 .1 0 .2c.7-1.1 1.6-1.7 2.6-1.7c1.1 0 1.7.6 1.7 1.5c0 .3 0 .6-.1.9c0 0-.5 3-.5 3c-.1.4-.1.6-.1.8c0 .3.1.4.6.4c-.04.01.5 0 .5 0c0 0-.19.89-.2.9c-.4.2-1.1.4-1.9.4c-.9 0-1.3-.4-1.3-1.1c0-.3 0-.7.1-1c0 0 .5-2.9.5-2.9c.1-.3.1-.5.1-.7c0-.4-.2-.6-.6-.6c-.5 0-1 .3-1.5 1c-.03.04-.9 5.2-.9 5.2l-2.2 0c0 0 .85-4.96.8-5c.1-.2.1-.4.1-.6c0-.4-.2-.6-.6-.6c-.5 0-1 .3-1.5 1.1c-.03-.02-.8 5.1-.8 5.1l-2.3 0l1.1-6.4l-1-.2c0 0 .07-.78.1-.8c.7-.2 2.1-.4 3.3-.4zm13.1 0c0 0-.3 1.7-.3 1.7c.7-1.1 1.5-1.7 2.6-1.7c1.1 0 1.7.6 1.7 1.5c0 0 0 .1 0 .2c.7-1.1 1.5-1.7 2.6-1.7c1.1 0 1.7.6 1.7 1.5c0 .3 0 .6-.1.9c0 0-.5 3-.5 3c-.1.4-.2.6-.2.8c0 .3.2.4.6.4c.05.01.5 0 .5 0c0 0-.1.89-.1.9c-.4.2-1.1.4-1.9.4c-.9 0-1.3-.4-1.3-1.1c0-.3 0-.7.1-1c0 0 .5-2.9.5-2.9c.1-.3.1-.5.1-.7c0-.4-.2-.6-.6-.6c-.5 0-1 .3-1.5 1c-.04.04-.9 5.2-.9 5.2l-2.2 0c0 0 .84-4.96.8-5c.1-.2.1-.4.1-.6c0-.4-.2-.6-.6-.6c-.5 0-1 .3-1.5 1.1c-.04-.02-.8 5.1-.8 5.1l-2.3 0l1-6.4l-.9-.2c0 0 .06-.78.1-.8c.7-.2 2.1-.4 3.3-.4zm13.6 0c1.6 0 2.4.7 2.4 1.8c0 1.5-1.2 2.4-3.6 2.4c0 0-.6 0-.6 0c0 .2 0 .5 0 .7c0 1.1.4 1.5 1.1 1.5c.7 0 1.2-.4 1.8-1.3c0 0 .7.4.7.4c-.6 1.6-1.7 2.5-3.3 2.5c-1.7 0-2.6-1.1-2.6-2.9c0-2.7 1.4-5.1 4.1-5.1zm-1.7 3.4c0 0 .3 0 .3 0c1.2 0 1.8-.7 1.8-1.5c0-.5-.2-.7-.7-.7c-.7 0-1.2.9-1.4 2.2zm8.2-3.4c0 0-.2 1.9-.2 1.9c.5-1.2 1.4-1.9 2.2-1.9c.5 0 .8.1 1 .2c0 .9-.3 2.1-.6 2.7c.02 0-1.2 0-1.2 0c0 0-.1-1.36-.1-1.4c-.5.1-1 .7-1.5 1.5c-.03.04-.8 4.8-.8 4.8l-2.2 0l1-6.4l-1-.2c0 0 .14-.78.1-.8c.8-.2 2.1-.4 3.3-.4zm7.2 0c1 0 1.7.2 2.1.5c0 .8-.2 1.8-.5 2.4c0-.03-1.2 0-1.2 0c0 0-.05-1.71 0-1.7c-.1 0-.2 0-.3 0c-1.2 0-2 1.9-2 3.7c0 1 .4 1.5 1.1 1.5c.7 0 1.3-.4 1.8-1.3c0 0 .7.4.7.4c-.6 1.6-1.7 2.5-3.3 2.5c-1.7 0-2.6-1.1-2.6-2.9c0-2.7 1.5-5.1 4.2-5.1zm4.6-3.2c.3 0 .7-.1 1.2-.1c.4 0 .8.1 1 .1c0 .6-.2 1.5-.4 2c-.3.1-.6.2-1.1.2c-.4 0-.7-.1-.9-.2c0-.7 0-1.4.2-2zm1.7 3.2c0 0-.8 5.3-.8 5.3c-.1.4-.1.7-.1.8c0 .4.1.5.6.5c-.05.01.5 0 .5 0c0 0-.18.89-.2.9c-.4.2-1.1.4-1.9.4c-.9 0-1.3-.4-1.3-1.2c0-.2 0-.6.1-.9c-.02.04.7-4.4.7-4.4l-1-.2c0 0 .09-.78.1-.8c.7-.2 2.1-.4 3.3-.4zm4.8 0c.7 0 1.2.2 1.5.7c.4-.3.9-.6 1.4-.7c.02-.03.8.2.8.2c0 0-.85 5.2-.8 5.2c-.1.3-.1.6-.1.8c0 .3.1.4.5.4c.05.01.6 0 .6 0c0 0-.18.89-.2.9c-.4.2-1.1.4-1.9.4c-.9 0-1.3-.4-1.3-1.2c0 0 0-.1 0-.2c-.5.9-1.2 1.4-2.3 1.4c-1.3 0-2-1-2-2.7c0-2.8 1.5-5.2 3.8-5.2zm.6 5.5c0 0 .7-4.1.7-4.1c-.2-.1-.4-.2-.7-.2c-1.3 0-2.1 1.9-2.1 4c0 .9.3 1.3.8 1.3c.6 0 1-.4 1.3-1zm8-8.9c0 0-1.4 8.7-1.4 8.7c-.1.4-.1.7-.1.8c0 .4.2.5.6.5c0 .01.5 0 .5 0c0 0-.15.89-.1.9c-.4.2-1.2.4-2 .4c-.8 0-1.3-.4-1.3-1.2c0-.2.1-.6.1-.9c.01.04 1.2-7.8 1.2-7.8l-1.1-.2c0 0 .11-.8.1-.8c.7-.2 2.3-.4 3.5-.4z" stroke="none" fill="#404040"/><path d="m1.9 116.2c0 0 0-.1 0-.1c.3-2.3 1.7-3.4 3.6-3.4c.5 0 1 0 1.4.2c.7-.2 1.6-.2 2.3-.2c0 0-1.4 8.7-1.4 8.7c0 .4-.1.7-.1.8c0 .4.2.5.6.5c0 .01.5 0 .5 0c0 0-.13.89-.1.9c-.4.2-1.2.4-1.9.4c-.9 0-1.4-.4-1.4-1.2c0-.2.1-.6.1-.9c0 0 1.3-8.1 1.3-8.1c-.3-.1-.5-.1-.9-.1c-1 0-1.5.5-1.8 2.1c.04.03 0 .4 0 .4l1.4 0l-.2 1.1l-1.4 0c0 0-.86 6.21-.9 6.2c-.3 2.2-2 3.5-3.2 3.5c-.7 0-1.2-.4-1.5-.8c0 0 .1-.8.1-.8c.3.1.7.2 1.1.2c.9 0 1.1-.3 1.3-1.7c-.02.01.9-6.6.9-6.6l-1 0c0 0 .12-.75.1-.7c.2-.2.6-.3 1.1-.4zm9.4-3.3c.3 0 .7-.1 1.2-.1c.4 0 .8.1 1.1.1c0 .6-.3 1.5-.5 2c-.3.1-.6.2-1.1.2c-.3 0-.7-.1-.9-.2c0-.7.1-1.4.2-2zm1.7 3.2c0 0-.8 5.3-.8 5.3c-.1.4-.1.7-.1.8c0 .4.1.5.6.5c-.03.01.5 0 .5 0c0 0-.16.89-.2.9c-.4.2-1.1.4-1.9.4c-.8 0-1.3-.4-1.3-1.2c0-.2 0-.6.1-.9c0 .04.7-4.4.7-4.4l-1-.2c0 0 .11-.78.1-.8c.7-.2 2.1-.4 3.3-.4zm1.7 7.5c-.4-.2-.7-.6-.7-1.1c0-.6.6-1.3 1.5-1.7c-1-.3-1.4-1-1.4-1.9c0-1.7 1.3-2.8 3.5-2.8c.8 0 1.5.1 1.9.4c.5-.4 1.3-.6 2-.6c0 .4 0 .9-.2 1.5c0 0-1 0-1 0c.2.2.3.6.3.9c0 1.7-1.4 2.8-3.6 2.8c-.3 0-.5 0-.8-.1c-.2.2-.4.4-.4.6c0 .3.2.4.6.5c0 0 1.8.1 1.8.1c1.6.1 2.2.6 2.2 1.7c0 1.6-1.7 3.1-4.5 3.1c-2 0-3-.6-3-1.6c0-1 .6-1.5 1.8-1.8zm3.7-5.5c0-.7-.3-1.2-.9-1.2c-.9 0-1.3 1-1.3 2.1c0 .8.3 1.2.9 1.2c.9 0 1.3-.9 1.3-2.1zm-3.8 6.9c0 .7.7 1 1.7 1c1.3 0 2.2-.4 2.2-1.3c0-.5-.2-.7-1-.7c0 0-2-.2-2-.2c-.6.3-.9.7-.9 1.2zm11.4-3.1c0 0 .5-2.9.5-2.9c.1-.3.1-.5.1-.7c0-.4-.2-.6-.6-.6c-.5 0-1 .3-1.6 1.1c.03-.01-.8 5.1-.8 5.1l-2.2 0l1.6-9.8l-1.2-.2c0 0 .12-.8.1-.8c.7-.2 2.3-.4 3.5-.4c0 0-.8 5.1-.8 5.1c.7-1.1 1.5-1.7 2.6-1.7c1.2 0 1.7.6 1.7 1.5c0 .3 0 .6-.1.9c0 0-.5 3-.5 3c-.1.4-.1.6-.1.8c0 .3.1.4.6.4c-.03.01.5 0 .5 0c0 0-.16.89-.2.9c-.4.2-1.1.4-1.9.4c-.9 0-1.3-.4-1.3-1.1c0-.3.1-.7.1-1zm5.4-5.7c0 0 .4-1.2.4-1.2c.4-.2 1.3-.3 2-.3c-.04.03-.3 1.5-.3 1.5l1.7 0l-.1 1.2l-1.7 0c0 0-.57 3.36-.6 3.4c0 .4-.1.8-.1 1.1c0 .4.1.6.5.6c.4 0 .8-.6 1.2-1.2c0 0 .6.3.6.3c-.5 1.4-1.3 2.4-2.8 2.4c-1.2 0-1.7-.6-1.7-1.7c0-.4 0-.9.1-1.5c.02.02.6-3.4.6-3.4l-1.1 0c0 0 .12-.85.1-.8c.2-.2.7-.4 1.2-.4zm8.9-3.3c.3 0 .7-.1 1.1-.1c.4 0 .9.1 1.1.1c0 .6-.2 1.5-.5 2c-.3.1-.6.2-1 .2c-.4 0-.7-.1-1-.2c0-.7.1-1.4.3-2zm1.7 3.2c0 0-.9 5.3-.9 5.3c0 .4-.1.7-.1.8c0 .4.2.5.6.5c.02.01.5 0 .5 0c0 0-.12.89-.1.9c-.4.2-1.2.4-1.9.4c-.9 0-1.3-.4-1.3-1.2c0-.2 0-.6 0-.9c.05.04.7-4.4.7-4.4l-.9-.2c0 0 .06-.78.1-.8c.7-.2 2.1-.4 3.3-.4zm4.4 0c0 0-.2 1.7-.2 1.7c.7-1.1 1.5-1.7 2.6-1.7c1.1 0 1.7.6 1.7 1.5c0 .3-.1.6-.1.9c0 0-.6 3-.6 3c0 .4-.1.6-.1.8c0 .3.2.4.6.4c.04.01.5 0 .5 0c0 0-.1.89-.1.9c-.4.2-1.1.4-1.9.4c-.9 0-1.3-.4-1.3-1.1c0-.3 0-.7.1-1c0 0 .5-2.9.5-2.9c0-.3.1-.5.1-.7c0-.4-.2-.6-.6-.6c-.5 0-1 .3-1.6 1.1c.02-.02-.8 5.1-.8 5.1l-2.2 0l1-6.4l-1-.2c0 0 .12-.78.1-.8c.7-.2 2.1-.4 3.3-.4zm12 0c.7 0 1.2.2 1.5.7c.4-.3.9-.6 1.4-.7c.03-.03.8.2.8.2c0 0-.84 5.2-.8 5.2c-.1.3-.1.6-.1.8c0 .3.1.4.6.4c-.04.01.5 0 .5 0c0 0-.17.89-.2.9c-.4.2-1.1.4-1.9.4c-.9 0-1.3-.4-1.3-1.2c0 0 0-.1 0-.2c-.5.9-1.2 1.4-2.3 1.4c-1.3 0-2-1-2-2.7c0-2.8 1.5-5.2 3.8-5.2zm.7 5.5c0 0 .6-4.1.6-4.1c-.2-.1-.4-.2-.7-.2c-1.3 0-2.1 1.9-2.1 4c0 .9.3 1.3.8 1.3c.6 0 1-.4 1.4-1zm7.1-.1c.02-.02 1.1 0 1.1 0c0 0 .12 1.52.1 1.5c.2 0 .5.1.7.1c.8 0 1.4-.5 1.4-1.1c0-.6-.6-.9-1.3-1.3c0 0-.6-.3-.6-.3c-.6-.3-1.1-.9-1.1-1.8c0-1.6 1.2-2.5 3.1-2.5c1 0 2 .2 2.5.4c0 .8-.1 1.5-.5 2.1c.01.03-1.1 0-1.1 0c0 0-.05-1.46-.1-1.5c-.2 0-.4 0-.6 0c-.8 0-1.3.3-1.3 1c0 .5.6.8 1.1 1.1c0 0 .6.3.6.3c.7.5 1.4 1 1.4 2c0 1.6-1.2 2.5-3.3 2.5c-.9 0-2-.1-2.6-.4c0-.8.2-1.5.5-2.1zm10-5.4c0 0-.2 1.7-.2 1.7c.7-1.1 1.5-1.7 2.6-1.7c1.1 0 1.7.6 1.7 1.5c0 0 0 .1 0 .2c.7-1.1 1.5-1.7 2.6-1.7c1.1 0 1.7.6 1.7 1.5c0 .3-.1.6-.1.9c0 0-.6 3-.6 3c-.1.4-.1.6-.1.8c0 .3.2.4.6.4c.01.01.5 0 .5 0c0 0-.13.89-.1.9c-.4.2-1.2.4-2 .4c-.8 0-1.3-.4-1.3-1.1c0-.3.1-.7.1-1c0 0 .6-2.9.6-2.9c0-.3.1-.5.1-.7c0-.4-.2-.6-.7-.6c-.4 0-.9.3-1.5 1c.03.04-.8 5.2-.8 5.2l-2.2 0c0 0 .8-4.96.8-5c0-.2.1-.4.1-.6c0-.4-.2-.6-.7-.6c-.5 0-.9.3-1.5 1.1c.02-.02-.8 5.1-.8 5.1l-2.2 0l1-6.4l-1-.2c0 0 .13-.78.1-.8c.7-.2 2.1-.4 3.3-.4zm13.4 0c.7 0 1.2.2 1.5.7c.4-.3.9-.6 1.4-.7c.01-.03.8.2.8.2c0 0-.85 5.2-.9 5.2c0 .3 0 .6 0 .8c0 .3.1.4.5.4c.04.01.6 0 .6 0c0 0-.19.89-.2.9c-.4.2-1.1.4-1.9.4c-.9 0-1.3-.4-1.3-1.2c0 0 0-.1 0-.2c-.5.9-1.2 1.4-2.3 1.4c-1.3 0-2-1-2-2.7c0-2.8 1.5-5.2 3.8-5.2zm.6 5.5c0 0 .7-4.1.7-4.1c-.2-.1-.5-.2-.7-.2c-1.3 0-2.1 1.9-2.1 4c0 .9.3 1.3.8 1.3c.6 0 1-.4 1.3-1zm8-8.9c0 0-1.4 8.7-1.4 8.7c-.1.4-.1.7-.1.8c0 .4.1.5.6.5c-.01.01.5 0 .5 0c0 0-.15.89-.2.9c-.4.2-1.1.4-1.9.4c-.8 0-1.3-.4-1.3-1.2c0-.2.1-.6.1-.9c.01.04 1.2-7.8 1.2-7.8l-1.1-.2c0 0 .1-.8.1-.8c.7-.2 2.3-.4 3.5-.4zm4.3 0c0 0-1.4 8.7-1.4 8.7c-.1.4-.1.7-.1.8c0 .4.2.5.6.5c0 .01.5 0 .5 0c0 0-.15.89-.2.9c-.3.2-1.1.4-1.9.4c-.8 0-1.3-.4-1.3-1.2c0-.2.1-.6.1-.9c.01.04 1.2-7.8 1.2-7.8l-1.1-.2c0 0 .11-.8.1-.8c.7-.2 2.3-.4 3.5-.4zm7.1 3.4c.7 0 1.2.2 1.5.7c.4-.3.9-.6 1.4-.7c.03-.03.8.2.8.2c0 0-.84 5.2-.8 5.2c-.1.3-.1.6-.1.8c0 .3.1.4.6.4c-.04.01.5 0 .5 0c0 0-.17.89-.2.9c-.4.2-1.1.4-1.9.4c-.9 0-1.3-.4-1.3-1.2c0 0 0-.1 0-.2c-.5.9-1.2 1.4-2.3 1.4c-1.3 0-2-1-2-2.7c0-2.8 1.5-5.2 3.8-5.2zm.7 5.5c0 0 .6-4.1.6-4.1c-.2-.1-.4-.2-.7-.2c-1.3 0-2.1 1.9-2.1 4c0 .9.3 1.3.8 1.3c.6 0 1-.4 1.4-1zm5.7-8.7c.3 0 .7-.1 1.2-.1c.4 0 .8.1 1 .1c0 .6-.2 1.5-.4 2c-.3.1-.6.2-1.1.2c-.4 0-.7-.1-.9-.2c0-.7.1-1.4.2-2zm1.7 3.2c0 0-.8 5.3-.8 5.3c-.1.4-.1.7-.1.8c0 .4.1.5.6.5c-.04.01.5 0 .5 0c0 0-.17.89-.2.9c-.4.2-1.1.4-1.9.4c-.9 0-1.3-.4-1.3-1.2c0-.2 0-.6.1-.9c-.01.04.7-4.4.7-4.4l-1-.2c0 0 .1-.78.1-.8c.7-.2 2.1-.4 3.3-.4zm4.5 0c0 0-.3 1.9-.3 1.9c.6-1.2 1.4-1.9 2.3-1.9c.4 0 .7.1.9.2c0 .9-.3 2.1-.6 2.7c.04 0-1.2 0-1.2 0c0 0-.07-1.36-.1-1.4c-.5.1-1 .7-1.5 1.5c-.01.04-.7 4.8-.7 4.8l-2.3 0l1-6.4l-.9-.2c0 0 .06-.78.1-.8c.7-.2 2.1-.4 3.3-.4zm6.9 0c0 0-.2 1.3-.2 1.3c.5-.8 1.3-1.3 2.3-1.3c1.3 0 2 1.1 2 2.7c0 2.8-1.3 5.2-3.8 5.2c-.6 0-1.1-.2-1.4-.5c0 0-.4 2.3-.4 2.3c.6.1 1.1.1 1.4.3c-.03-.03-.2.8-.2.8l-4.5 0c0 0 .13-.83.1-.8c.3-.1.6-.2 1-.3c-.01.05 1.3-8.3 1.3-8.3l-1-.2c0 0 .14-.78.1-.8c.8-.2 2.1-.4 3.3-.4zm-.3 2.5c0 0-.7 4-.7 4c.2.1.5.2.7.2c1.3 0 2.1-1.9 2.1-4c0-.9-.2-1.3-.8-1.3c-.5 0-1 .4-1.3 1.1zm9-5.9c0 0-1.3 8.7-1.3 8.7c-.1.4-.1.7-.1.8c0 .4.1.5.6.5c-.03.01.5 0 .5 0c0 0-.18.89-.2.9c-.4.2-1.1.4-1.9.4c-.9 0-1.3-.4-1.3-1.2c0-.2 0-.6.1-.9c-.01.04 1.2-7.8 1.2-7.8l-1.1-.2c0 0 .08-.8.1-.8c.7-.2 2.3-.4 3.4-.4zm4.3 3.4c.7 0 1.2.2 1.5.7c.4-.3.9-.6 1.4-.7c.02-.03.8.2.8.2c0 0-.84 5.2-.8 5.2c-.1.3-.1.6-.1.8c0 .3.1.4.6.4c-.05.01.5 0 .5 0c0 0-.18.89-.2.9c-.4.2-1.1.4-1.9.4c-.9 0-1.3-.4-1.3-1.2c0 0 0-.1 0-.2c-.5.9-1.2 1.4-2.3 1.4c-1.3 0-2-1-2-2.7c0-2.8 1.5-5.2 3.8-5.2zm.6 5.5c0 0 .7-4.1.7-4.1c-.2-.1-.4-.2-.7-.2c-1.3 0-2.1 1.9-2.1 4c0 .9.3 1.3.8 1.3c.6 0 1-.4 1.3-1zm7.6-5.5c0 0-.3 1.7-.3 1.7c.7-1.1 1.5-1.7 2.6-1.7c1.2 0 1.7.6 1.7 1.5c0 .3 0 .6-.1.9c0 0-.5 3-.5 3c-.1.4-.1.6-.1.8c0 .3.1.4.6.4c-.03.01.5 0 .5 0c0 0-.16.89-.2.9c-.4.2-1.1.4-1.9.4c-.9 0-1.3-.4-1.3-1.1c0-.3.1-.7.1-1c0 0 .5-2.9.5-2.9c.1-.3.1-.5.1-.7c0-.4-.2-.6-.6-.6c-.5 0-1 .3-1.5 1.1c-.05-.02-.8 5.1-.8 5.1l-2.3 0l1-6.4l-.9-.2c0 0 .06-.78.1-.8c.7-.2 2.1-.4 3.3-.4zm9.3 0c1.6 0 2.4.7 2.4 1.8c0 1.5-1.1 2.4-3.5 2.4c0 0-.7 0-.7 0c0 .2 0 .5 0 .7c0 1.1.5 1.5 1.1 1.5c.8 0 1.3-.4 1.8-1.3c0 0 .8.4.8.4c-.6 1.6-1.8 2.5-3.3 2.5c-1.8 0-2.7-1.1-2.7-2.9c0-2.7 1.5-5.1 4.1-5.1zm-1.7 3.4c0 0 .4 0 .4 0c1.2 0 1.7-.7 1.7-1.5c0-.5-.2-.7-.6-.7c-.8 0-1.3.9-1.5 2.2zm9.5-6.6c.3 0 .7-.1 1.2-.1c.4 0 .8.1 1 .1c0 .6-.2 1.5-.5 2c-.2.1-.5.2-1 .2c-.4 0-.7-.1-.9-.2c0-.7 0-1.4.2-2zm1.7 3.2c0 0-.8 5.3-.8 5.3c-.1.4-.1.7-.1.8c0 .4.1.5.5.5c.05.01.6 0 .6 0c0 0-.18.89-.2.9c-.4.2-1.1.4-1.9.4c-.9 0-1.3-.4-1.3-1.2c0-.2 0-.6.1-.9c-.02.04.7-4.4.7-4.4l-1-.2c0 0 .09-.78.1-.8c.7-.2 2.1-.4 3.3-.4zm1.4 5.4c-.04-.02 1 0 1 0c0 0 .16 1.52.2 1.5c.2 0 .4.1.6.1c.9 0 1.4-.5 1.4-1.1c0-.6-.6-.9-1.3-1.3c0 0-.5-.3-.5-.3c-.7-.3-1.2-.9-1.2-1.8c0-1.6 1.3-2.5 3.1-2.5c1 0 2 .2 2.5.4c0 .8-.1 1.5-.4 2.1c-.05.03-1.2 0-1.2 0c0 0-.02-1.46 0-1.5c-.2 0-.5 0-.7 0c-.7 0-1.2.3-1.2 1c0 .5.5.8 1 1.1c0 0 .6.3.6.3c.8.5 1.5 1 1.5 2c0 1.6-1.3 2.5-3.4 2.5c-.9 0-2-.1-2.6-.4c.1-.8.3-1.5.6-2.1zm12.9-5.4c0 0-.3 1.9-.3 1.9c.6-1.2 1.4-1.9 2.3-1.9c.5 0 .8.1.9.2c0 .9-.2 2.1-.5 2.7c-.01 0-1.2 0-1.2 0c0 0-.12-1.36-.1-1.4c-.5.1-1 .7-1.6 1.5c.04.04-.7 4.8-.7 4.8l-2.2 0l1-6.4l-1-.2c0 0 .11-.78.1-.8c.7-.2 2.1-.4 3.3-.4zm7.1 0c1.5 0 2.4.7 2.4 1.8c0 1.5-1.2 2.4-3.6 2.4c0 0-.6 0-.6 0c0 .2 0 .5 0 .7c0 1.1.4 1.5 1.1 1.5c.7 0 1.2-.4 1.8-1.3c0 0 .7.4.7.4c-.6 1.6-1.8 2.5-3.3 2.5c-1.7 0-2.6-1.1-2.6-2.9c0-2.7 1.4-5.1 4.1-5.1zm-1.7 3.4c0 0 .3 0 .3 0c1.2 0 1.8-.7 1.8-1.5c0-.5-.2-.7-.7-.7c-.7 0-1.2.9-1.4 2.2zm8.4-3.4c.7 0 1.2.2 1.5.6c.4-.3.9-.5 1.4-.6c-.04-.03.7.2.7.2c0 0-1.46 9.55-1.5 9.5c.4.1.7.2 1 .3c-.02-.03-.1.8-.1.8l-4.6 0c0 0 .14-.83.1-.8c.4-.2.9-.2 1.4-.3c0 0 .6-3.1.6-3.1c-.6.8-1.3 1.3-2.3 1.3c-1.3 0-2-1-2-2.7c0-2.8 1.5-5.2 3.8-5.2zm.6 5.5c0 0 .7-4.1.7-4.1c-.2-.1-.5-.2-.7-.2c-1.4 0-2.1 1.9-2.1 4c0 .9.2 1.3.8 1.3c.5 0 1-.4 1.3-1zm11.6-5.5c0 0-.9 5.4-.9 5.4c0 .3-.1.6-.1.8c0 .3.2.4.6.4c0 .01.5 0 .5 0c0 0-.13.89-.1.9c-.4.2-1.2.4-1.9.4c-1 0-1.3-.4-1.3-1.2c0-.1 0-.4 0-.5c0 0 0-.1 0-.1c-.6 1.2-1.6 1.8-2.7 1.8c-1.1 0-1.6-.6-1.6-1.5c0-.2 0-.5.1-.7c-.04-.05.7-4.3.7-4.3l-1-.2c0 0 .09-.78.1-.8c.7-.2 2.1-.4 3.3-.4c0 0-.8 5-.8 5c-.1.2-.1.5-.1.7c0 .4.2.6.6.6c.5 0 1-.3 1.5-1.1c.03 0 .6-3.8.6-3.8l-.9-.2c0 0 .11-.78.1-.8c.7-.2 2.1-.4 3.3-.4zm2.8-3.2c.2 0 .6-.1 1.1-.1c.4 0 .8.1 1.1.1c0 .6-.3 1.5-.5 2c-.3.1-.6.2-1 .2c-.4 0-.8-.1-1-.2c0-.7.1-1.4.3-2zm1.6 3.2c0 0-.8 5.3-.8 5.3c-.1.4-.1.7-.1.8c0 .4.2.5.6.5c-.02.01.5 0 .5 0c0 0-.15.89-.1.9c-.4.2-1.2.4-2 .4c-.8 0-1.3-.4-1.3-1.2c0-.2.1-.6.1-.9c.02.04.7-4.4.7-4.4l-1-.2c0 0 .12-.78.1-.8c.7-.2 2.1-.4 3.3-.4zm4.5 0c0 0-.3 1.9-.3 1.9c.6-1.2 1.4-1.9 2.3-1.9c.4 0 .8.1.9.2c0 .9-.2 2.1-.5 2.7c-.03 0-1.2 0-1.2 0c0 0-.14-1.36-.1-1.4c-.5.1-1.1.7-1.6 1.5c.02.04-.7 4.8-.7 4.8l-2.2 0l1-6.4l-1-.2c0 0 .09-.78.1-.8c.7-.2 2.1-.4 3.3-.4zm7.1 0c1.5 0 2.4.7 2.4 1.8c0 1.5-1.2 2.4-3.6 2.4c0 0-.6 0-.6 0c-.1.2-.1.5-.1.7c0 1.1.5 1.5 1.2 1.5c.7 0 1.2-.4 1.7-1.3c0 0 .8.4.8.4c-.6 1.6-1.8 2.5-3.3 2.5c-1.8 0-2.7-1.1-2.7-2.9c0-2.7 1.5-5.1 4.2-5.1zm-1.7 3.4c0 0 .3 0 .3 0c1.2 0 1.8-.7 1.8-1.5c0-.5-.3-.7-.7-.7c-.7 0-1.2.9-1.4 2.2zm12.6-6.8c0 0-1.4 8.7-1.4 8.7c0 .4-.1.7-.1.9c0 .3.2.4.6.4c0 .01.5 0 .5 0c0 0-.13.89-.1.9c-.4.2-1.2.4-1.9.4c-.9 0-1.3-.4-1.3-1.2c0 0 0-.1 0-.2c-.5.9-1.3 1.4-2.3 1.4c-1.4 0-2.1-1-2.1-2.7c0-2.8 1.6-5.2 3.8-5.2c.7 0 1.2.2 1.5.6c-.02-.04.4-2.6.4-2.6l-1.2-.2c0 0 .09-.8.1-.8c.7-.2 2.3-.4 3.5-.4zm-3.6 8.8c0 0 .7-4 .7-4c-.3-.1-.5-.2-.7-.2c-1.4 0-2.2 1.9-2.2 4c0 .9.3 1.3.9 1.3c.5 0 .9-.4 1.3-1.1zm4 1.4c0-1 .6-1.6 1.5-1.6c.7 0 1.2.4 1.2 1.2c0 .9-.5 1.6-1.4 1.6c-.8 0-1.3-.5-1.3-1.2z" stroke="none" fill="#404040"/></g></svg>