<?xml version="1.0" standalone="no"?><!DOCTYPE svg PUBLIC "-//W3C//DTD SVG 1.1//EN" "http://www.w3.org/Graphics/SVG/1.1/DTD/svg11.dtd"><svg xmlns="http://www.w3.org/2000/svg" version="1.1" width="188px" height="41.8px" viewBox="0 0 188 41.8">  <desc>Anacapa Island 699 acres</desc>  <defs/>  <g id="Polygon12597">    <path d="M 2.5 29 C 2.4 29 2.3 29 2.2 29 C 1.4 29 1.1 29.4 1 29.8 C 1 29.8 1 29.8 1 29.8 C 1.2 29.6 1.5 29.5 1.8 29.5 C 2.4 29.5 2.9 30 2.9 30.7 C 2.9 31.4 2.4 32 1.6 32 C 0.6 32 0.2 31.3 0.2 30.4 C 0.2 29.8 0.4 29.2 0.8 28.8 C 1.2 28.5 1.6 28.3 2.2 28.3 C 2.3 28.3 2.4 28.3 2.5 28.3 C 2.5 28.3 2.5 29 2.5 29 Z M 2.1 30.8 C 2.1 30.4 1.9 30.1 1.5 30.1 C 1.3 30.1 1.1 30.3 1 30.4 C 1 30.5 1 30.6 1 30.7 C 1 31 1.2 31.4 1.6 31.4 C 1.9 31.4 2.1 31.1 2.1 30.8 Z M 3.5 31.3 C 3.7 31.4 3.7 31.3 3.9 31.3 C 4.2 31.3 4.4 31.3 4.6 31.1 C 4.8 31 5 30.7 5.1 30.5 C 5.1 30.5 5 30.4 5 30.4 C 4.9 30.6 4.7 30.7 4.3 30.7 C 3.7 30.7 3.2 30.3 3.2 29.6 C 3.2 28.9 3.8 28.3 4.6 28.3 C 5.5 28.3 5.9 29 5.9 29.8 C 5.9 30.6 5.7 31.1 5.3 31.5 C 5 31.8 4.5 32 3.9 32 C 3.8 32 3.6 32 3.5 32 C 3.5 32 3.5 31.3 3.5 31.3 Z M 4 29.5 C 4 29.9 4.2 30.1 4.6 30.1 C 4.8 30.1 4.9 30 5 29.9 C 5 29.8 5.1 29.8 5.1 29.7 C 5.1 29.3 4.9 28.9 4.5 28.9 C 4.3 28.9 4 29.2 4 29.5 Z M 6.6 31.3 C 6.7 31.4 6.8 31.3 7 31.3 C 7.2 31.3 7.5 31.3 7.7 31.1 C 7.9 31 8.1 30.7 8.1 30.5 C 8.1 30.5 8.1 30.4 8.1 30.4 C 7.9 30.6 7.7 30.7 7.4 30.7 C 6.8 30.7 6.3 30.3 6.3 29.6 C 6.3 28.9 6.8 28.3 7.6 28.3 C 8.5 28.3 9 29 9 29.8 C 9 30.6 8.7 31.1 8.3 31.5 C 8 31.8 7.5 32 7 32 C 6.8 32 6.7 32 6.6 32 C 6.6 32 6.6 31.3 6.6 31.3 Z M 7.1 29.5 C 7.1 29.9 7.3 30.1 7.6 30.1 C 7.8 30.1 8 30 8.1 29.9 C 8.1 29.8 8.1 29.8 8.1 29.7 C 8.1 29.3 8 28.9 7.6 28.9 C 7.3 28.9 7.1 29.2 7.1 29.5 Z M 12.8 31.3 C 12.8 31.5 12.9 31.8 12.9 31.9 C 12.89 31.94 12.1 31.9 12.1 31.9 L 12.1 31.7 C 12.1 31.7 12.07 31.67 12.1 31.7 C 11.9 31.9 11.6 32 11.3 32 C 10.8 32 10.4 31.6 10.4 31.2 C 10.4 30.5 11.1 30.1 12 30.1 C 12 30.1 12 30.1 12 30.1 C 12 30 11.9 29.8 11.5 29.8 C 11.2 29.8 11 29.9 10.8 30 C 10.8 30 10.6 29.4 10.6 29.4 C 10.8 29.3 11.2 29.2 11.7 29.2 C 12.6 29.2 12.8 29.7 12.8 30.4 C 12.8 30.4 12.8 31.3 12.8 31.3 Z M 12 30.7 C 11.6 30.7 11.3 30.8 11.3 31.1 C 11.3 31.3 11.4 31.4 11.6 31.4 C 11.8 31.4 12 31.3 12 31.1 C 12 31.1 12 31 12 31 C 12 31 12 30.7 12 30.7 Z M 15.5 31.9 C 15.4 31.9 15.1 32 14.8 32 C 13.9 32 13.4 31.5 13.4 30.6 C 13.4 29.8 13.9 29.2 14.9 29.2 C 15.1 29.2 15.4 29.2 15.5 29.3 C 15.5 29.3 15.4 29.9 15.4 29.9 C 15.3 29.9 15.2 29.8 14.9 29.8 C 14.5 29.8 14.2 30.1 14.2 30.6 C 14.2 31.1 14.5 31.3 14.9 31.3 C 15.1 31.3 15.3 31.3 15.4 31.3 C 15.4 31.3 15.5 31.9 15.5 31.9 Z M 16 30.1 C 16 29.7 16 29.5 16 29.3 C 15.97 29.25 16.7 29.3 16.7 29.3 L 16.7 29.7 C 16.7 29.7 16.74 29.75 16.7 29.7 C 16.9 29.3 17.2 29.2 17.5 29.2 C 17.5 29.2 17.6 29.2 17.6 29.2 C 17.6 29.2 17.6 30 17.6 30 C 17.6 30 17.5 30 17.4 30 C 17.1 30 16.9 30.1 16.8 30.4 C 16.8 30.4 16.8 30.5 16.8 30.6 C 16.82 30.58 16.8 31.9 16.8 31.9 L 16 31.9 C 16 31.9 15.99 30.14 16 30.1 Z M 18.7 30.9 C 18.7 31.2 19 31.4 19.4 31.4 C 19.7 31.4 20 31.3 20.2 31.3 C 20.2 31.3 20.3 31.8 20.3 31.8 C 20 31.9 19.7 32 19.3 32 C 18.4 32 17.9 31.5 17.9 30.6 C 17.9 29.9 18.3 29.2 19.2 29.2 C 20.1 29.2 20.4 29.9 20.4 30.5 C 20.4 30.7 20.4 30.8 20.4 30.9 C 20.4 30.9 18.7 30.9 18.7 30.9 Z M 19.7 30.3 C 19.7 30.1 19.6 29.7 19.2 29.7 C 18.8 29.7 18.7 30.1 18.7 30.3 C 18.7 30.3 19.7 30.3 19.7 30.3 Z M 20.9 31.2 C 21.1 31.3 21.4 31.4 21.7 31.4 C 21.9 31.4 22 31.3 22 31.2 C 22 31 21.9 31 21.6 30.9 C 21.1 30.7 20.8 30.4 20.9 30.1 C 20.9 29.6 21.3 29.2 21.9 29.2 C 22.3 29.2 22.5 29.3 22.7 29.3 C 22.7 29.3 22.6 29.9 22.6 29.9 C 22.4 29.9 22.2 29.8 22 29.8 C 21.8 29.8 21.7 29.8 21.7 30 C 21.7 30.1 21.8 30.2 22.1 30.3 C 22.6 30.5 22.8 30.7 22.8 31.1 C 22.8 31.6 22.4 32 21.7 32 C 21.3 32 21 31.9 20.8 31.8 C 20.8 31.8 20.9 31.2 20.9 31.2 Z " stroke="none" fill="#000"/>  </g>  <g id="Polygon12596">    <path d="M 6.6 10.9 C 6.55 10.86 6.1 9.5 6.1 9.5 L 2.8 9.5 C 2.8 9.5 2.36 10.86 2.4 10.9 C 2.7 10.9 2.9 11 3.1 11 C 3.08 11.04 3.1 11.9 3.1 11.9 L 0.2 11.9 C 0.2 11.9 0.18 11.04 0.2 11 C 0.3 11 0.5 10.9 0.8 10.9 C 0.8 10.9 3.9 2.3 3.9 2.3 C 4.2 2.3 4.7 2.2 5.1 2.2 C 5.5 2.2 6.1 2.3 6.3 2.3 C 6.3 2.3 9.4 10.9 9.4 10.9 C 9.7 10.9 9.8 11 10 11 C 9.99 11.04 10 11.9 10 11.9 L 5.8 11.9 C 5.8 11.9 5.76 11.04 5.8 11 C 6 11 6.2 10.9 6.6 10.9 Z M 5.6 8.2 L 4.5 4.8 L 3.3 8.2 L 5.6 8.2 Z M 11.3 10.9 C 11.28 10.9 11.3 6 11.3 6 L 10.5 5.8 C 10.5 5.8 10.53 4.96 10.5 5 C 11.4 4.7 12.5 4.6 13.8 4.6 C 13.8 4.6 13.8 5.7 13.8 5.7 C 14.3 4.9 15.3 4.5 16.3 4.5 C 17.8 4.5 18.6 5.4 18.6 6.7 C 18.6 6.7 18.6 10.9 18.6 10.9 C 18.9 10.9 19.2 11 19.3 11.1 C 19.33 11.1 19.3 11.9 19.3 11.9 L 15.3 11.9 C 15.3 11.9 15.28 11.1 15.3 11.1 C 15.4 11 15.7 10.9 16 10.9 C 16 10.9 16 7.3 16 7.3 C 16 6.6 15.7 6.3 15.1 6.3 C 14.6 6.3 14.2 6.4 13.8 6.8 C 13.8 6.8 13.8 10.9 13.8 10.9 C 14.1 10.9 14.4 11 14.6 11.1 C 14.58 11.1 14.6 11.9 14.6 11.9 L 10.5 11.9 C 10.5 11.9 10.51 11.1 10.5 11.1 C 10.7 11 10.9 10.9 11.3 10.9 Z M 24 7.7 C 24 7.7 24 6.8 24 6.8 C 24 6.1 23.7 5.7 22.9 5.7 C 22.7 5.7 22.5 5.8 22.3 5.8 C 22.26 5.82 22 7.1 22 7.1 C 22 7.1 20.59 7.08 20.6 7.1 C 20.5 6.7 20.4 6.3 20.4 5.9 C 20.4 5.7 20.4 5.4 20.5 5.2 C 21.4 4.8 22.6 4.5 23.7 4.5 C 25.5 4.5 26.5 5.2 26.5 6.7 C 26.5 7.9 26.5 9.3 26.5 10.7 C 26.46 10.69 27.2 10.9 27.2 10.9 C 27.2 10.9 27.21 11.71 27.2 11.7 C 26.4 11.9 25.3 12.1 24 12.1 C 24 12.1 24 11 24 11 C 23.7 11.7 22.9 12.1 22.1 12.1 C 20.8 12.1 19.9 11.4 19.9 10.1 C 19.9 8.2 21.8 7.8 24 7.7 Z M 24 10.4 C 24 10.4 24 8.6 24 8.6 C 22.9 8.7 22.3 9 22.3 9.8 C 22.3 10.4 22.7 10.7 23.2 10.7 C 23.5 10.7 23.8 10.6 24 10.4 Z M 31.9 4.5 C 32.8 4.5 33.8 4.8 34.2 5.1 C 34.2 5.8 34.2 6.6 33.9 7.5 C 33.9 7.53 32.6 7.5 32.6 7.5 C 32.6 7.5 32.29 5.7 32.3 5.7 C 32.2 5.7 32.1 5.7 32 5.7 C 31.2 5.7 30.5 6.3 30.5 8 C 30.5 9.8 31.3 10.5 32.3 10.5 C 33.1 10.5 33.6 10.2 34 9.7 C 34 9.7 34.4 10.3 34.4 10.3 C 34 11.3 33 12.1 31.5 12.1 C 29.4 12.1 27.9 10.9 27.9 8.2 C 27.9 5.8 29.7 4.5 31.9 4.5 Z M 39.1 7.7 C 39.1 7.7 39.1 6.8 39.1 6.8 C 39.1 6.1 38.8 5.7 38.1 5.7 C 37.9 5.7 37.6 5.8 37.4 5.8 C 37.39 5.82 37.2 7.1 37.2 7.1 C 37.2 7.1 35.73 7.08 35.7 7.1 C 35.6 6.7 35.5 6.3 35.5 5.9 C 35.5 5.7 35.6 5.4 35.6 5.2 C 36.5 4.8 37.7 4.5 38.8 4.5 C 40.7 4.5 41.7 5.2 41.7 6.7 C 41.7 7.9 41.6 9.3 41.6 10.7 C 41.59 10.69 42.3 10.9 42.3 10.9 C 42.3 10.9 42.34 11.71 42.3 11.7 C 41.5 11.9 40.5 12.1 39.2 12.1 C 39.2 12.1 39.2 11 39.2 11 C 38.8 11.7 38.1 12.1 37.2 12.1 C 36 12.1 35.1 11.4 35.1 10.1 C 35.1 8.2 36.9 7.8 39.1 7.7 Z M 39.1 10.4 C 39.1 10.4 39.1 8.6 39.1 8.6 C 38.1 8.7 37.5 9 37.5 9.8 C 37.5 10.4 37.9 10.7 38.4 10.7 C 38.7 10.7 38.9 10.6 39.1 10.4 Z M 43.8 13.7 C 43.77 13.72 43.8 6 43.8 6 L 43 5.8 C 43 5.8 43.02 4.96 43 5 C 43.9 4.7 45 4.6 46.2 4.6 C 46.2 4.6 46.2 5.8 46.2 5.8 C 46.6 5 47.5 4.5 48.4 4.5 C 50.2 4.5 51.2 5.8 51.2 8.1 C 51.2 10.6 49.9 12.2 47.8 12.2 C 47.2 12.2 46.6 11.9 46.3 11.7 C 46.3 11.7 46.3 13.7 46.3 13.7 C 46.6 13.8 47 13.8 47.2 13.9 C 47.2 13.92 47.2 14.8 47.2 14.8 L 43 14.8 C 43 14.8 43 13.92 43 13.9 C 43.2 13.8 43.4 13.8 43.8 13.7 Z M 46.3 6.6 C 46.3 6.6 46.3 10.6 46.3 10.6 C 46.5 10.7 46.6 10.7 46.9 10.7 C 48 10.7 48.6 9.8 48.6 8.3 C 48.6 6.7 48 6.1 47.3 6.1 C 46.9 6.1 46.5 6.3 46.3 6.6 Z M 56.1 7.7 C 56.1 7.7 56.1 6.8 56.1 6.8 C 56.1 6.1 55.8 5.7 55 5.7 C 54.8 5.7 54.6 5.8 54.3 5.8 C 54.31 5.82 54.1 7.1 54.1 7.1 C 54.1 7.1 52.65 7.08 52.6 7.1 C 52.5 6.7 52.5 6.3 52.5 5.9 C 52.5 5.7 52.5 5.4 52.5 5.2 C 53.5 4.8 54.7 4.5 55.8 4.5 C 57.6 4.5 58.6 5.2 58.6 6.7 C 58.6 7.9 58.5 9.3 58.5 10.7 C 58.51 10.69 59.3 10.9 59.3 10.9 C 59.3 10.9 59.26 11.71 59.3 11.7 C 58.4 11.9 57.4 12.1 56.1 12.1 C 56.1 12.1 56.1 11 56.1 11 C 55.8 11.7 55 12.1 54.1 12.1 C 52.9 12.1 52 11.4 52 10.1 C 52 8.2 53.8 7.8 56.1 7.7 Z M 56.1 10.4 C 56.1 10.4 56.1 8.6 56.1 8.6 C 55 8.7 54.4 9 54.4 9.8 C 54.4 10.4 54.8 10.7 55.3 10.7 C 55.6 10.7 55.8 10.6 56.1 10.4 Z M 63.6 10.8 C 63.6 10.8 63.6 3.4 63.6 3.4 C 63.2 3.4 62.9 3.3 62.7 3.2 C 62.68 3.24 62.7 2.3 62.7 2.3 L 67.2 2.3 C 67.2 2.3 67.15 3.24 67.2 3.2 C 66.9 3.3 66.6 3.4 66.3 3.4 C 66.3 3.4 66.3 10.8 66.3 10.8 C 66.6 10.9 66.9 10.9 67.2 11 C 67.15 11.04 67.2 11.9 67.2 11.9 L 62.7 11.9 C 62.7 11.9 62.68 11.04 62.7 11 C 62.9 10.9 63.2 10.9 63.6 10.8 Z M 68 11.1 C 68 10.6 68.1 10.1 68.2 9.6 C 68.19 9.6 69.5 9.6 69.5 9.6 C 69.5 9.6 69.75 10.93 69.7 10.9 C 70 11 70.2 11 70.5 11 C 71.1 11 71.6 10.7 71.6 10.2 C 71.6 9.6 71.1 9.4 70.4 9.2 C 70.4 9.2 69.6 9 69.6 9 C 68.7 8.7 68 8.1 68 6.8 C 68 5.2 69.5 4.5 71.3 4.5 C 72.1 4.5 73 4.7 73.6 4.9 C 73.6 5.1 73.6 5.4 73.6 5.5 C 73.6 6 73.6 6.5 73.4 7 C 73.44 7.02 72.1 7 72.1 7 C 72.1 7 71.88 5.7 71.9 5.7 C 71.7 5.7 71.5 5.6 71.3 5.6 C 70.7 5.6 70.2 5.8 70.2 6.4 C 70.2 7 70.6 7.1 71.2 7.3 C 71.2 7.3 72 7.6 72 7.6 C 73.1 7.9 73.9 8.4 73.9 9.6 C 73.9 11.3 72.7 12.1 70.5 12.1 C 69.6 12.1 68.6 12 68.1 11.7 C 68 11.5 68 11.3 68 11.1 Z M 75.3 10.9 C 75.31 10.9 75.3 2.9 75.3 2.9 L 74.4 2.7 C 74.4 2.7 74.43 1.78 74.4 1.8 C 75.3 1.6 76.6 1.4 77.8 1.4 C 77.8 1.4 77.8 10.9 77.8 10.9 C 78.2 10.9 78.4 11 78.6 11.1 C 78.61 11.1 78.6 11.9 78.6 11.9 L 74.5 11.9 C 74.5 11.9 74.55 11.1 74.5 11.1 C 74.7 11 75 10.9 75.3 10.9 Z M 83.3 7.7 C 83.3 7.7 83.3 6.8 83.3 6.8 C 83.3 6.1 83 5.7 82.2 5.7 C 82 5.7 81.8 5.8 81.5 5.8 C 81.52 5.82 81.3 7.1 81.3 7.1 C 81.3 7.1 79.86 7.08 79.9 7.1 C 79.7 6.7 79.7 6.3 79.7 5.9 C 79.7 5.7 79.7 5.4 79.8 5.2 C 80.7 4.8 81.9 4.5 83 4.5 C 84.8 4.5 85.8 5.2 85.8 6.7 C 85.8 7.9 85.7 9.3 85.7 10.7 C 85.72 10.69 86.5 10.9 86.5 10.9 C 86.5 10.9 86.47 11.71 86.5 11.7 C 85.6 11.9 84.6 12.1 83.3 12.1 C 83.3 12.1 83.3 11 83.3 11 C 83 11.7 82.2 12.1 81.3 12.1 C 80.1 12.1 79.2 11.4 79.2 10.1 C 79.2 8.2 81.1 7.8 83.3 7.7 Z M 83.3 10.4 C 83.3 10.4 83.3 8.6 83.3 8.6 C 82.2 8.7 81.6 9 81.6 9.8 C 81.6 10.4 82 10.7 82.5 10.7 C 82.8 10.7 83.1 10.6 83.3 10.4 Z M 87.9 10.9 C 87.93 10.9 87.9 6 87.9 6 L 87.2 5.8 C 87.2 5.8 87.18 4.96 87.2 5 C 88 4.7 89.2 4.6 90.4 4.6 C 90.4 4.6 90.4 5.7 90.4 5.7 C 91 4.9 91.9 4.5 92.9 4.5 C 94.4 4.5 95.2 5.4 95.2 6.7 C 95.2 6.7 95.2 10.9 95.2 10.9 C 95.5 10.9 95.8 11 96 11.1 C 95.98 11.1 96 11.9 96 11.9 L 91.9 11.9 C 91.9 11.9 91.93 11.1 91.9 11.1 C 92.1 11 92.4 10.9 92.7 10.9 C 92.7 10.9 92.7 7.3 92.7 7.3 C 92.7 6.6 92.4 6.3 91.8 6.3 C 91.3 6.3 90.9 6.4 90.4 6.8 C 90.4 6.8 90.4 10.9 90.4 10.9 C 90.8 10.9 91.1 11 91.2 11.1 C 91.23 11.1 91.2 11.9 91.2 11.9 L 87.2 11.9 C 87.2 11.9 87.16 11.1 87.2 11.1 C 87.3 11 87.6 10.9 87.9 10.9 Z M 100.1 4.5 C 100.8 4.5 101.3 4.7 101.6 5.1 C 101.59 5.05 101.6 2.9 101.6 2.9 L 100.7 2.7 C 100.7 2.7 100.66 1.78 100.7 1.8 C 101.5 1.6 102.8 1.4 104.1 1.4 C 104.11 1.44 104.1 10.7 104.1 10.7 L 104.9 10.9 C 104.9 10.9 104.86 11.71 104.9 11.7 C 104 11.9 102.9 12.1 101.6 12.1 C 101.6 12.1 101.6 10.9 101.6 10.9 C 101.2 11.7 100.5 12.1 99.6 12.1 C 97.8 12.1 96.7 10.8 96.7 8.5 C 96.7 6 98.1 4.5 100.1 4.5 Z M 101.6 10.1 C 101.6 10.1 101.6 6 101.6 6 C 101.4 5.9 101.2 5.9 101 5.9 C 99.9 5.9 99.3 6.9 99.3 8.3 C 99.3 9.9 99.9 10.5 100.7 10.5 C 101 10.5 101.3 10.3 101.6 10.1 Z " stroke="none" fill="#404040"/>  </g></svg>