<?xml version="1.0" standalone="no"?><!DOCTYPE svg PUBLIC "-//W3C//DTD SVG 1.1//EN" "http://www.w3.org/Graphics/SVG/1.1/DTD/svg11.dtd"><svg xmlns="http://www.w3.org/2000/svg" version="1.1" width="380px" height="90.5px" viewBox="0 0 380 90.5">  <desc>Anacapa Island 699 acres</desc>  <defs/>  <g id="Polygon9569">    <path d="M 8.3 62.7 C 8 62.7 7.7 62.7 7.2 62.7 C 4.8 62.9 3.7 64.2 3.4 65.5 C 3.4 65.5 3.4 65.5 3.4 65.5 C 4 65 4.9 64.6 5.9 64.6 C 7.9 64.6 9.6 66 9.6 68.5 C 9.6 70.8 7.8 72.7 5.3 72.7 C 2.1 72.7 0.5 70.4 0.5 67.6 C 0.5 65.4 1.4 63.5 2.7 62.3 C 3.8 61.2 5.4 60.7 7.2 60.6 C 7.7 60.5 8.1 60.5 8.3 60.6 C 8.3 60.6 8.3 62.7 8.3 62.7 Z M 6.8 68.6 C 6.8 67.5 6.2 66.6 5 66.6 C 4.3 66.6 3.7 67 3.4 67.6 C 3.3 67.8 3.3 68 3.3 68.3 C 3.3 69.6 3.9 70.7 5.2 70.7 C 6.2 70.7 6.8 69.8 6.8 68.6 Z M 11.7 70.6 C 12.1 70.6 12.4 70.6 12.9 70.6 C 13.8 70.5 14.6 70.3 15.2 69.8 C 16 69.3 16.5 68.5 16.7 67.6 C 16.7 67.6 16.7 67.6 16.7 67.6 C 16.2 68.2 15.4 68.5 14.3 68.5 C 12.3 68.5 10.6 67.1 10.6 64.8 C 10.6 62.5 12.5 60.5 15.1 60.5 C 18.1 60.5 19.6 62.8 19.6 65.6 C 19.6 68.1 18.8 69.9 17.5 71.1 C 16.4 72.1 14.8 72.6 13 72.7 C 12.5 72.7 12 72.7 11.7 72.7 C 11.7 72.7 11.7 70.6 11.7 70.6 Z M 13.4 64.6 C 13.4 65.6 13.9 66.5 15 66.5 C 15.8 66.5 16.3 66.2 16.6 65.7 C 16.7 65.6 16.7 65.4 16.7 65 C 16.7 63.8 16.3 62.5 15 62.5 C 14 62.5 13.4 63.4 13.4 64.6 Z M 21.8 70.6 C 22.2 70.6 22.4 70.6 23 70.6 C 23.8 70.5 24.7 70.3 25.3 69.8 C 26.1 69.3 26.6 68.5 26.8 67.6 C 26.8 67.6 26.8 67.6 26.8 67.6 C 26.2 68.2 25.5 68.5 24.4 68.5 C 22.4 68.5 20.7 67.1 20.7 64.8 C 20.7 62.5 22.6 60.5 25.2 60.5 C 28.2 60.5 29.6 62.8 29.6 65.6 C 29.6 68.1 28.9 69.9 27.6 71.1 C 26.4 72.1 24.9 72.6 23 72.7 C 22.6 72.7 22.1 72.7 21.8 72.7 C 21.8 72.7 21.8 70.6 21.8 70.6 Z M 23.5 64.6 C 23.5 65.6 24 66.5 25.1 66.5 C 25.9 66.5 26.4 66.2 26.7 65.7 C 26.8 65.6 26.8 65.4 26.8 65 C 26.8 63.8 26.4 62.5 25.1 62.5 C 24.1 62.5 23.5 63.4 23.5 64.6 Z M 42.4 70.4 C 42.4 71.2 42.5 72 42.6 72.5 C 42.58 72.53 40.1 72.5 40.1 72.5 L 39.9 71.6 C 39.9 71.6 39.87 71.64 39.9 71.6 C 39.3 72.4 38.4 72.7 37.3 72.7 C 35.5 72.7 34.5 71.4 34.5 70 C 34.5 67.7 36.5 66.6 39.7 66.6 C 39.7 66.6 39.7 66.5 39.7 66.5 C 39.7 66 39.4 65.3 38.1 65.3 C 37.1 65.3 36.2 65.6 35.6 66 C 35.6 66 35.1 64.2 35.1 64.2 C 35.7 63.9 36.9 63.4 38.5 63.4 C 41.5 63.4 42.4 65.2 42.4 67.3 C 42.4 67.3 42.4 70.4 42.4 70.4 Z M 39.8 68.3 C 38.3 68.3 37.2 68.7 37.2 69.7 C 37.2 70.4 37.7 70.8 38.3 70.8 C 38.9 70.8 39.5 70.3 39.7 69.8 C 39.7 69.6 39.8 69.5 39.8 69.3 C 39.8 69.3 39.8 68.3 39.8 68.3 Z M 51.3 72.3 C 50.8 72.5 49.9 72.7 48.8 72.7 C 46 72.7 44.1 71 44.1 68.2 C 44.1 65.6 45.9 63.4 49.2 63.4 C 49.9 63.4 50.7 63.6 51.3 63.8 C 51.3 63.8 50.9 65.8 50.9 65.8 C 50.6 65.7 50.1 65.6 49.3 65.6 C 47.9 65.6 46.9 66.6 47 68.1 C 47 69.7 48.1 70.6 49.4 70.6 C 50.1 70.6 50.6 70.4 51 70.3 C 51 70.3 51.3 72.3 51.3 72.3 Z M 52.8 66.6 C 52.8 65.3 52.8 64.4 52.8 63.6 C 52.76 63.65 55.1 63.6 55.1 63.6 L 55.2 65.3 C 55.2 65.3 55.3 65.28 55.3 65.3 C 55.8 64 56.8 63.4 57.7 63.4 C 58 63.4 58.1 63.4 58.3 63.5 C 58.3 63.5 58.3 66.1 58.3 66.1 C 58.1 66 57.8 66 57.5 66 C 56.5 66 55.8 66.6 55.6 67.4 C 55.6 67.6 55.6 67.8 55.6 68 C 55.59 68.03 55.6 72.5 55.6 72.5 L 52.8 72.5 C 52.8 72.5 52.83 66.57 52.8 66.6 Z M 61.7 69 C 61.8 70.1 62.9 70.7 64.2 70.7 C 65.2 70.7 65.9 70.5 66.7 70.3 C 66.7 70.3 67 72.2 67 72.2 C 66.1 72.5 65 72.7 63.8 72.7 C 60.8 72.7 59.1 71 59.1 68.2 C 59.1 65.9 60.5 63.4 63.6 63.4 C 66.4 63.4 67.5 65.7 67.5 67.9 C 67.5 68.4 67.5 68.8 67.4 69 C 67.4 69 61.7 69 61.7 69 Z M 65 67.1 C 65 66.4 64.7 65.3 63.4 65.3 C 62.2 65.3 61.8 66.4 61.7 67.1 C 61.7 67.1 65 67.1 65 67.1 Z M 69.2 70.1 C 69.7 70.4 70.7 70.8 71.6 70.8 C 72.4 70.8 72.7 70.5 72.7 70.1 C 72.7 69.6 72.5 69.4 71.4 69 C 69.6 68.4 68.9 67.4 68.9 66.4 C 68.9 64.7 70.3 63.4 72.5 63.4 C 73.5 63.4 74.5 63.7 75 64 C 75 64 74.5 65.9 74.5 65.9 C 74.1 65.6 73.3 65.4 72.6 65.4 C 71.9 65.4 71.6 65.6 71.6 66.1 C 71.6 66.5 71.9 66.7 73 67.1 C 74.7 67.7 75.4 68.6 75.4 69.8 C 75.4 71.5 74.1 72.7 71.6 72.7 C 70.4 72.7 69.4 72.5 68.7 72.1 C 68.7 72.1 69.2 70.1 69.2 70.1 Z " stroke="none" fill="#000"/>  </g>  <g id="Polygon9568">    <path d="M 17.6 29.2 C 17.65 29.24 16.4 25.5 16.4 25.5 L 7.6 25.5 C 7.6 25.5 6.34 29.24 6.3 29.2 C 7.1 29.4 7.8 29.5 8.3 29.7 C 8.28 29.72 8.3 32.1 8.3 32.1 L 0.5 32.1 C 0.5 32.1 0.48 29.72 0.5 29.7 C 0.9 29.6 1.4 29.4 2.1 29.3 C 2.1 29.3 10.5 6.3 10.5 6.3 C 11.2 6.1 12.5 6 13.7 6 C 14.9 6 16.3 6.1 16.9 6.3 C 16.9 6.3 25.4 29.3 25.4 29.3 C 26 29.4 26.5 29.6 26.9 29.7 C 26.9 29.72 26.9 32.1 26.9 32.1 L 15.5 32.1 C 15.5 32.1 15.51 29.72 15.5 29.7 C 16 29.5 16.8 29.3 17.6 29.2 Z M 15.2 22.1 L 12 12.9 L 8.8 22.1 L 15.2 22.1 Z M 30.4 29.4 C 30.37 29.36 30.4 16.3 30.4 16.3 L 28.4 15.8 C 28.4 15.8 28.35 13.37 28.4 13.4 C 30.7 12.8 33.8 12.3 37.2 12.3 C 37.2 12.3 37.2 15.4 37.2 15.4 C 38.6 13.2 41.1 12.2 43.9 12.2 C 47.9 12.2 50 14.6 50 18.1 C 50 18.1 50 29.4 50 29.4 C 50.9 29.4 51.6 29.7 52.1 29.9 C 52.06 29.89 52.1 32.1 52.1 32.1 L 41.2 32.1 C 41.2 32.1 41.15 29.89 41.2 29.9 C 41.6 29.7 42.3 29.4 43.2 29.4 C 43.2 29.4 43.2 19.5 43.2 19.5 C 43.2 17.9 42.3 17 40.7 17 C 39.4 17 38.2 17.3 37.2 18.4 C 37.2 18.4 37.2 29.4 37.2 29.4 C 38 29.4 38.8 29.7 39.3 29.9 C 39.26 29.89 39.3 32.1 39.3 32.1 L 28.3 32.1 C 28.3 32.1 28.31 29.89 28.3 29.9 C 28.8 29.7 29.5 29.4 30.4 29.4 Z M 64.6 20.8 C 64.6 20.8 64.6 18.3 64.6 18.3 C 64.6 16.4 63.8 15.5 61.8 15.5 C 61.2 15.5 60.6 15.5 59.9 15.7 C 59.93 15.67 59.3 19.1 59.3 19.1 C 59.3 19.1 55.45 19.06 55.5 19.1 C 55.1 18 55 16.9 55 15.9 C 55 15.3 55 14.6 55.2 14.1 C 57.6 12.8 60.9 12.2 63.8 12.2 C 68.7 12.2 71.4 14.1 71.4 18 C 71.4 21.2 71.2 25.2 71.2 28.8 C 71.24 28.8 73.3 29.3 73.3 29.3 C 73.3 29.3 73.26 31.54 73.3 31.5 C 71 32.1 68.2 32.5 64.7 32.5 C 64.7 32.5 64.7 29.6 64.7 29.6 C 63.8 31.4 61.8 32.6 59.4 32.6 C 56.1 32.6 53.7 30.8 53.7 27.1 C 53.7 22 58.7 21.1 64.6 20.8 Z M 64.6 28 C 64.6 28 64.6 23.2 64.6 23.2 C 61.8 23.4 60.1 24.2 60.1 26.4 C 60.1 28 61.2 28.8 62.6 28.8 C 63.4 28.8 64.1 28.5 64.6 28 Z M 85.8 12.2 C 88.2 12.2 91 12.8 92.1 13.6 C 92.1 15.7 92 17.9 91.3 20.3 C 91.27 20.27 87.8 20.3 87.8 20.3 C 87.8 20.3 86.95 15.35 87 15.3 C 86.7 15.3 86.5 15.3 86.2 15.3 C 83.9 15.3 82 16.9 82 21.4 C 82 26.5 84.2 28.2 87 28.2 C 89.1 28.2 90.4 27.3 91.6 26.1 C 91.6 26.1 92.7 27.9 92.7 27.9 C 91.4 30.5 88.9 32.6 84.8 32.6 C 79.2 32.6 75.2 29.4 75.2 22.2 C 75.2 15.7 80 12.2 85.8 12.2 Z M 105.4 20.8 C 105.4 20.8 105.4 18.3 105.4 18.3 C 105.4 16.4 104.6 15.5 102.5 15.5 C 101.9 15.5 101.3 15.5 100.7 15.7 C 100.68 15.67 100.1 19.1 100.1 19.1 C 100.1 19.1 96.2 19.06 96.2 19.1 C 95.9 18 95.7 16.9 95.7 15.9 C 95.7 15.3 95.8 14.6 95.9 14.1 C 98.4 12.8 101.6 12.2 104.6 12.2 C 109.5 12.2 112.2 14.1 112.2 18 C 112.2 21.2 112 25.2 112 28.8 C 111.99 28.8 114 29.3 114 29.3 C 114 29.3 114.01 31.54 114 31.5 C 111.7 32.1 108.9 32.5 105.5 32.5 C 105.5 32.5 105.5 29.6 105.5 29.6 C 104.6 31.4 102.5 32.6 100.2 32.6 C 96.8 32.6 94.5 30.8 94.5 27.1 C 94.5 22 99.4 21.1 105.4 20.8 Z M 105.4 28 C 105.4 28 105.4 23.2 105.4 23.2 C 102.5 23.4 100.9 24.2 100.9 26.4 C 100.9 28 101.9 28.8 103.3 28.8 C 104.1 28.8 104.8 28.5 105.4 28 Z M 117.8 37 C 117.85 36.95 117.8 16.3 117.8 16.3 L 115.8 15.8 C 115.8 15.8 115.83 13.37 115.8 13.4 C 118.1 12.8 121.1 12.4 124.5 12.4 C 124.5 12.4 124.5 15.5 124.5 15.5 C 125.6 13.4 127.9 12.2 130.4 12.2 C 135.2 12.2 137.9 15.8 137.9 21.8 C 137.9 28.5 134.2 32.8 128.7 32.8 C 127.1 32.8 125.6 32.1 124.6 31.4 C 124.6 31.4 124.6 37 124.6 37 C 125.6 37 126.6 37.3 127.1 37.5 C 127.1 37.48 127.1 39.7 127.1 39.7 L 115.8 39.7 C 115.8 39.7 115.79 37.48 115.8 37.5 C 116.2 37.3 117 37 117.8 37 Z M 124.6 17.7 C 124.6 17.7 124.6 28.7 124.6 28.7 C 125.1 28.8 125.6 28.9 126.2 28.9 C 129.2 28.9 130.8 26.4 130.8 22.3 C 130.8 18 129.4 16.6 127.3 16.6 C 126.3 16.6 125.3 16.9 124.6 17.7 Z M 150.9 20.8 C 150.9 20.8 150.9 18.3 150.9 18.3 C 150.9 16.4 150.1 15.5 148.1 15.5 C 147.5 15.5 146.9 15.5 146.2 15.7 C 146.24 15.67 145.6 19.1 145.6 19.1 C 145.6 19.1 141.76 19.06 141.8 19.1 C 141.4 18 141.3 16.9 141.3 15.9 C 141.3 15.3 141.4 14.6 141.5 14.1 C 143.9 12.8 147.2 12.2 150.1 12.2 C 155 12.2 157.7 14.1 157.7 18 C 157.7 21.2 157.5 25.2 157.5 28.8 C 157.55 28.8 159.6 29.3 159.6 29.3 C 159.6 29.3 159.57 31.54 159.6 31.5 C 157.3 32.1 154.5 32.5 151 32.5 C 151 32.5 151 29.6 151 29.6 C 150.1 31.4 148.1 32.6 145.7 32.6 C 142.4 32.6 140 30.8 140 27.1 C 140 22 145 21.1 150.9 20.8 Z M 150.9 28 C 150.9 28 150.9 23.2 150.9 23.2 C 148.1 23.4 146.4 24.2 146.4 26.4 C 146.4 28 147.5 28.8 148.9 28.8 C 149.7 28.8 150.4 28.5 150.9 28 Z M 171.2 29.2 C 171.2 29.2 171.2 9.2 171.2 9.2 C 170.1 9.2 169.4 9 168.8 8.7 C 168.77 8.72 168.8 6.3 168.8 6.3 L 180.8 6.3 C 180.8 6.3 180.81 8.72 180.8 8.7 C 180.2 9 179.4 9.2 178.4 9.2 C 178.4 9.2 178.4 29.2 178.4 29.2 C 179.4 29.3 180.2 29.5 180.8 29.7 C 180.81 29.72 180.8 32.1 180.8 32.1 L 168.8 32.1 C 168.8 32.1 168.77 29.72 168.8 29.7 C 169.4 29.5 170.1 29.3 171.2 29.2 Z M 183.1 29.9 C 183.1 28.6 183.3 27.1 183.6 25.8 C 183.6 25.85 187.2 25.8 187.2 25.8 C 187.2 25.8 187.8 29.44 187.8 29.4 C 188.4 29.6 189.1 29.6 189.8 29.6 C 191.5 29.6 192.7 28.9 192.7 27.3 C 192.7 25.9 191.6 25.4 189.7 24.8 C 189.7 24.8 187.5 24.2 187.5 24.2 C 184.9 23.4 183 21.7 183 18.4 C 183 13.9 187.2 12.2 191.9 12.2 C 194.1 12.2 196.6 12.6 198.1 13.2 C 198.3 13.7 198.3 14.4 198.3 14.9 C 198.3 16.2 198.1 17.6 197.7 18.9 C 197.73 18.9 194.2 18.9 194.2 18.9 C 194.2 18.9 193.53 15.35 193.5 15.3 C 193 15.2 192.5 15.1 191.9 15.1 C 190.4 15.1 189 15.8 189 17.2 C 189 18.8 190.1 19.2 191.7 19.7 C 191.7 19.7 193.9 20.4 193.9 20.4 C 196.9 21.3 199 22.7 199 26 C 199 30.3 195.8 32.6 189.8 32.6 C 187.5 32.6 184.8 32.2 183.3 31.6 C 183.1 31.1 183.1 30.4 183.1 29.9 Z M 202.8 29.4 C 202.78 29.36 202.8 7.7 202.8 7.7 L 200.4 7.2 C 200.4 7.2 200.4 4.81 200.4 4.8 C 202.7 4.2 206.2 3.9 209.6 3.9 C 209.6 3.9 209.6 29.4 209.6 29.4 C 210.5 29.4 211.2 29.7 211.7 29.9 C 211.67 29.89 211.7 32.1 211.7 32.1 L 200.7 32.1 C 200.7 32.1 200.72 29.89 200.7 29.9 C 201.2 29.7 201.9 29.4 202.8 29.4 Z M 224.2 20.8 C 224.2 20.8 224.2 18.3 224.2 18.3 C 224.2 16.4 223.4 15.5 221.3 15.5 C 220.8 15.5 220.1 15.5 219.5 15.7 C 219.5 15.67 218.9 19.1 218.9 19.1 C 218.9 19.1 215.02 19.06 215 19.1 C 214.7 18 214.5 16.9 214.5 15.9 C 214.5 15.3 214.6 14.6 214.7 14.1 C 217.2 12.8 220.4 12.2 223.4 12.2 C 228.3 12.2 231 14.1 231 18 C 231 21.2 230.8 25.2 230.8 28.8 C 230.81 28.8 232.8 29.3 232.8 29.3 C 232.8 29.3 232.83 31.54 232.8 31.5 C 230.6 32.1 227.7 32.5 224.3 32.5 C 224.3 32.5 224.3 29.6 224.3 29.6 C 223.4 31.4 221.4 32.6 219 32.6 C 215.6 32.6 213.3 30.8 213.3 27.1 C 213.3 22 218.2 21.1 224.2 20.8 Z M 224.2 28 C 224.2 28 224.2 23.2 224.2 23.2 C 221.4 23.4 219.7 24.2 219.7 26.4 C 219.7 28 220.8 28.8 222.1 28.8 C 222.9 28.8 223.6 28.5 224.2 28 Z M 236.7 29.4 C 236.75 29.36 236.7 16.3 236.7 16.3 L 234.7 15.8 C 234.7 15.8 234.73 13.37 234.7 13.4 C 237 12.8 240.1 12.3 243.5 12.3 C 243.5 12.3 243.5 15.4 243.5 15.4 C 244.9 13.2 247.4 12.2 250.2 12.2 C 254.2 12.2 256.4 14.6 256.4 18.1 C 256.4 18.1 256.4 29.4 256.4 29.4 C 257.3 29.4 258 29.7 258.4 29.9 C 258.43 29.89 258.4 32.1 258.4 32.1 L 247.5 32.1 C 247.5 32.1 247.53 29.89 247.5 29.9 C 248 29.7 248.7 29.4 249.6 29.4 C 249.6 29.4 249.6 19.5 249.6 19.5 C 249.6 17.9 248.7 17 247 17 C 245.8 17 244.6 17.3 243.5 18.4 C 243.5 18.4 243.5 29.4 243.5 29.4 C 244.4 29.4 245.2 29.7 245.6 29.9 C 245.63 29.89 245.6 32.1 245.6 32.1 L 234.7 32.1 C 234.7 32.1 234.69 29.89 234.7 29.9 C 235.1 29.7 235.9 29.4 236.7 29.4 Z M 269.6 12 C 271.3 12 272.6 12.7 273.5 13.6 C 273.54 13.61 273.5 7.7 273.5 7.7 L 271 7.2 C 271 7.2 271.03 4.81 271 4.8 C 273.3 4.2 276.9 3.9 280.3 3.9 C 280.32 3.88 280.3 28.8 280.3 28.8 L 282.3 29.3 C 282.3 29.3 282.34 31.54 282.3 31.5 C 280.1 32.1 277.1 32.5 273.7 32.5 C 273.7 32.5 273.7 29.3 273.7 29.3 C 272.6 31.4 270.6 32.6 268.1 32.6 C 263.4 32.6 260.3 29 260.3 22.9 C 260.3 16.2 264 12 269.6 12 Z M 273.5 27.1 C 273.5 27.1 273.5 16.1 273.5 16.1 C 273.1 16 272.6 16 272 16 C 269 16 267.4 18.7 267.4 22.3 C 267.4 26.7 268.9 28.3 271.1 28.3 C 272 28.3 272.9 27.9 273.5 27.1 Z " stroke="none" fill="#404040"/>  </g></svg>