<?xml version="1.0" standalone="no"?><!DOCTYPE svg PUBLIC "-//W3C//DTD SVG 1.1//EN" "http://www.w3.org/Graphics/SVG/1.1/DTD/svg11.dtd"><svg xmlns="http://www.w3.org/2000/svg" version="1.1" width="427px" height="197.5px" viewBox="0 0 427 197.5">  <desc>California Sea Lions</desc>  <defs/>  <g id="Polygon13348">    <path d="M 155.6 101.9 C 155.2 102.1 154.5 102.2 153.6 102.2 C 150.3 102.2 148.7 99.5 148.7 95.8 C 148.7 90.9 151.4 89 154 89 C 154.9 89 155.5 89.2 155.7 89.3 C 155.7 89.3 155.3 91.4 155.3 91.4 C 155 91.3 154.7 91.2 154.1 91.2 C 152.7 91.2 151.4 92.4 151.4 95.7 C 151.4 98.8 152.6 100 154.1 100 C 154.5 100 155 99.9 155.3 99.8 C 155.3 99.8 155.6 101.9 155.6 101.9 Z M 163.2 99.9 C 163.2 100.7 163.2 101.5 163.3 102.1 C 163.32 102.09 161.1 102.1 161.1 102.1 L 160.9 101.2 C 160.9 101.2 160.87 101.17 160.9 101.2 C 160.4 101.9 159.6 102.2 158.8 102.2 C 157.4 102.2 156.3 101.1 156.3 99.4 C 156.3 96.9 158.5 95.9 160.6 95.9 C 160.6 95.9 160.6 95.7 160.6 95.7 C 160.6 94.9 160.2 94.4 159.3 94.4 C 158.5 94.4 157.9 94.6 157.4 94.9 C 157.4 94.9 156.9 93.2 156.9 93.2 C 157.4 92.9 158.5 92.5 159.8 92.5 C 162.7 92.5 163.2 94.5 163.2 96.4 C 163.2 96.4 163.2 99.9 163.2 99.9 Z M 160.7 97.5 C 159.9 97.5 158.7 97.8 158.7 99.1 C 158.7 100 159.2 100.4 159.6 100.4 C 160 100.4 160.5 100.1 160.6 99.6 C 160.7 99.4 160.7 99.3 160.7 99.1 C 160.7 99.1 160.7 97.5 160.7 97.5 Z M 165 88.8 L 167.5 88.8 L 167.5 102.1 L 165 102.1 L 165 88.8 Z M 169.3 102.1 L 169.3 92.7 L 171.8 92.7 L 171.8 102.1 L 169.3 102.1 Z M 171.8 90.2 C 171.8 91 171.3 91.5 170.5 91.5 C 169.8 91.5 169.2 91 169.2 90.2 C 169.2 89.3 169.8 88.8 170.5 88.8 C 171.3 88.8 171.8 89.3 171.8 90.2 Z M 174 102.1 L 174 94.5 L 172.8 94.5 L 172.8 92.7 L 174 92.7 C 174 92.7 174.04 92.3 174 92.3 C 174 91.2 174.3 90.2 175 89.5 C 175.6 88.9 176.4 88.6 177.3 88.6 C 177.9 88.6 178.4 88.7 178.8 88.8 C 178.8 88.8 178.5 90.8 178.5 90.8 C 178.3 90.7 178 90.7 177.7 90.7 C 176.9 90.7 176.6 91.4 176.6 92.2 C 176.56 92.22 176.6 92.7 176.6 92.7 L 178.2 92.7 L 178.2 94.5 L 176.6 94.5 L 176.6 102.1 L 174 102.1 Z M 185.8 97.3 C 185.8 101.3 183.7 102.2 182.2 102.2 C 180 102.2 178.6 100.5 178.6 97.4 C 178.6 94 180.4 92.5 182.3 92.5 C 184.5 92.5 185.8 94.4 185.8 97.3 Z M 181.1 97.3 C 181.1 99 181.4 100.3 182.3 100.3 C 183.1 100.3 183.3 98.7 183.3 97.3 C 183.3 96.1 183.1 94.4 182.2 94.4 C 181.3 94.4 181.1 96.1 181.1 97.3 Z M 187.3 95.5 C 187.3 94.6 187.2 93.6 187.2 92.7 C 187.18 92.66 189.4 92.7 189.4 92.7 L 189.5 94 C 189.5 94 189.57 94.03 189.6 94 C 190 93 190.7 92.5 191.4 92.5 C 191.7 92.5 191.8 92.5 192 92.5 C 192 92.5 192 95 192 95 C 191.8 95 191.6 95 191.4 95 C 190.9 95 190.2 95.4 189.9 96.3 C 189.8 96.6 189.8 96.9 189.8 97.3 C 189.79 97.29 189.8 102.1 189.8 102.1 L 187.3 102.1 C 187.3 102.1 187.26 95.5 187.3 95.5 Z M 192.9 95.5 C 192.9 94.5 192.9 93.6 192.9 92.7 C 192.85 92.66 195 92.7 195 92.7 L 195.2 93.7 C 195.2 93.7 195.2 93.74 195.2 93.7 C 195.7 93 196.5 92.5 197.5 92.5 C 199.3 92.5 200 93.9 200 96 C 199.98 96.04 200 102.1 200 102.1 L 197.5 102.1 C 197.5 102.1 197.46 96.19 197.5 96.2 C 197.5 95.4 197.3 94.6 196.5 94.6 C 196.1 94.6 195.8 94.9 195.6 95.5 C 195.5 95.7 195.5 96 195.5 96.3 C 195.45 96.35 195.5 102.1 195.5 102.1 L 192.9 102.1 C 192.9 102.1 192.93 95.5 192.9 95.5 Z M 201.8 102.1 L 201.8 92.7 L 204.3 92.7 L 204.3 102.1 L 201.8 102.1 Z M 204.3 90.2 C 204.3 91 203.7 91.5 203 91.5 C 202.3 91.5 201.7 91 201.7 90.2 C 201.7 89.3 202.3 88.8 203 88.8 C 203.7 88.8 204.3 89.3 204.3 90.2 Z M 212.4 99.9 C 212.4 100.7 212.5 101.5 212.6 102.1 C 212.55 102.09 210.3 102.1 210.3 102.1 L 210.2 101.2 C 210.2 101.2 210.1 101.17 210.1 101.2 C 209.6 101.9 208.9 102.2 208 102.2 C 206.6 102.2 205.5 101.1 205.5 99.4 C 205.5 96.9 207.7 95.9 209.9 95.9 C 209.9 95.9 209.9 95.7 209.9 95.7 C 209.9 94.9 209.4 94.4 208.5 94.4 C 207.8 94.4 207.2 94.6 206.6 94.9 C 206.6 94.9 206.1 93.2 206.1 93.2 C 206.7 92.9 207.8 92.5 209.1 92.5 C 212 92.5 212.4 94.5 212.4 96.4 C 212.4 96.4 212.4 99.9 212.4 99.9 Z M 209.9 97.5 C 209.1 97.5 207.9 97.8 207.9 99.1 C 207.9 100 208.4 100.4 208.8 100.4 C 209.3 100.4 209.7 100.1 209.9 99.6 C 209.9 99.4 209.9 99.3 209.9 99.1 C 209.9 99.1 209.9 97.5 209.9 97.5 Z M 217.2 99.5 C 217.7 99.8 218.6 100 219.3 100 C 220.5 100 221.1 99.4 221.1 98.5 C 221.1 97.6 220.5 97.1 219.4 96.4 C 217.7 95.3 217 94 217 92.8 C 217 90.7 218.4 89 221.1 89 C 221.9 89 222.8 89.2 223.1 89.4 C 223.1 89.4 222.7 91.6 222.7 91.6 C 222.3 91.4 221.8 91.2 221.1 91.2 C 220 91.2 219.5 91.8 219.5 92.5 C 219.5 93.3 219.9 93.7 221.2 94.6 C 223 95.6 223.6 96.9 223.6 98.3 C 223.6 100.6 221.8 102.2 219.3 102.2 C 218.3 102.2 217.3 101.9 216.8 101.7 C 216.8 101.7 217.2 99.5 217.2 99.5 Z M 227.1 98.3 C 227.2 99.7 228 100.3 229.1 100.3 C 229.8 100.3 230.5 100.1 230.9 100 C 230.9 100 231.3 101.8 231.3 101.8 C 230.6 102 229.6 102.2 228.7 102.2 C 226.1 102.2 224.7 100.5 224.7 97.6 C 224.7 94.4 226.4 92.5 228.5 92.5 C 230.5 92.5 231.7 94.1 231.7 97 C 231.7 97.6 231.6 98 231.6 98.3 C 231.6 98.3 227.1 98.3 227.1 98.3 Z M 229.4 96.5 C 229.4 95.3 229.1 94.3 228.3 94.3 C 227.5 94.3 227.2 95.6 227.1 96.5 C 227.1 96.5 229.4 96.5 229.4 96.5 Z M 239.5 99.9 C 239.5 100.7 239.5 101.5 239.6 102.1 C 239.6 102.09 237.3 102.1 237.3 102.1 L 237.2 101.2 C 237.2 101.2 237.15 101.17 237.2 101.2 C 236.6 101.9 235.9 102.2 235.1 102.2 C 233.6 102.2 232.6 101.1 232.6 99.4 C 232.6 96.9 234.8 95.9 236.9 95.9 C 236.9 95.9 236.9 95.7 236.9 95.7 C 236.9 94.9 236.5 94.4 235.6 94.4 C 234.8 94.4 234.2 94.6 233.6 94.9 C 233.6 94.9 233.2 93.2 233.2 93.2 C 233.7 92.9 234.8 92.5 236.1 92.5 C 239 92.5 239.5 94.5 239.5 96.4 C 239.5 96.4 239.5 99.9 239.5 99.9 Z M 237 97.5 C 236.1 97.5 235 97.8 235 99.1 C 235 100 235.5 100.4 235.9 100.4 C 236.3 100.4 236.7 100.1 236.9 99.6 C 237 99.4 237 99.3 237 99.1 C 237 99.1 237 97.5 237 97.5 Z M 244.5 89.1 L 247.1 89.1 L 247.1 100 L 250.4 100 L 250.4 102.1 L 244.5 102.1 L 244.5 89.1 Z M 251.6 102.1 L 251.6 92.7 L 254.2 92.7 L 254.2 102.1 L 251.6 102.1 Z M 254.2 90.2 C 254.2 91 253.6 91.5 252.8 91.5 C 252.1 91.5 251.6 91 251.6 90.2 C 251.6 89.3 252.2 88.8 252.9 88.8 C 253.6 88.8 254.2 89.3 254.2 90.2 Z M 262.8 97.3 C 262.8 101.3 260.6 102.2 259.2 102.2 C 256.9 102.2 255.6 100.5 255.6 97.4 C 255.6 94 257.4 92.5 259.2 92.5 C 261.5 92.5 262.8 94.4 262.8 97.3 Z M 258.1 97.3 C 258.1 99 258.4 100.3 259.3 100.3 C 260.1 100.3 260.3 98.7 260.3 97.3 C 260.3 96.1 260.1 94.4 259.2 94.4 C 258.3 94.4 258.1 96.1 258.1 97.3 Z M 264.2 95.5 C 264.2 94.5 264.2 93.6 264.2 92.7 C 264.16 92.66 266.3 92.7 266.3 92.7 L 266.5 93.7 C 266.5 93.7 266.51 93.74 266.5 93.7 C 267 93 267.8 92.5 268.8 92.5 C 270.6 92.5 271.3 93.9 271.3 96 C 271.29 96.04 271.3 102.1 271.3 102.1 L 268.8 102.1 C 268.8 102.1 268.77 96.19 268.8 96.2 C 268.8 95.4 268.6 94.6 267.8 94.6 C 267.4 94.6 267.1 94.9 266.9 95.5 C 266.8 95.7 266.8 96 266.8 96.3 C 266.76 96.35 266.8 102.1 266.8 102.1 L 264.2 102.1 C 264.2 102.1 264.24 95.5 264.2 95.5 Z M 273 99.8 C 273.4 100 274 100.3 274.7 100.3 C 275.3 100.3 275.7 100 275.7 99.5 C 275.7 99 275.4 98.7 274.6 98.2 C 273.1 97.3 272.7 96.3 272.7 95.5 C 272.7 93.8 273.9 92.5 275.8 92.5 C 276.6 92.5 277.2 92.7 277.7 92.9 C 277.7 92.9 277.3 94.8 277.3 94.8 C 276.9 94.6 276.5 94.4 276 94.4 C 275.3 94.4 275 94.8 275 95.2 C 275 95.6 275.2 95.9 276.1 96.4 C 277.5 97.2 278 98.2 278 99.2 C 278 101.2 276.6 102.2 274.7 102.2 C 273.9 102.2 273 102 272.5 101.7 C 272.5 101.7 273 99.8 273 99.8 Z " stroke="none" fill="#000" fill-opacity="0.7"/>  </g></svg>