<?xml version="1.0" standalone="no"?><!DOCTYPE svg PUBLIC "-//W3C//DTD SVG 1.1//EN" "http://www.w3.org/Graphics/SVG/1.1/DTD/svg11.dtd"><svg xmlns="http://www.w3.org/2000/svg" version="1.1" width="195.5px" height="54px" viewBox="0 0 195.5 54"><desc>About</desc><defs/><g id="Polygon11498"><path d="m43.6 27.2l-.8 2.8l-2.5 0l3.3-10.8l3.2 0l3.3 10.8l-2.6 0l-.8-2.8l-3.1 0zm2.7-1.8c0 0-.67-2.28-.7-2.3c-.2-.6-.4-1.4-.5-2.1c0 0 0 0 0 0c-.2.7-.4 1.5-.5 2.1c-.04.02-.7 2.3-.7 2.3l2.4 0zm5.1-6.8l2.4 0l0 4.5c0 0 .04 0 0 0c.5-.7 1.3-1.1 2.4-1.1c1.9 0 3.2 1.6 3.2 4c0 2.8-1.8 4.2-3.5 4.2c-1 0-1.9-.4-2.4-1.3c0 .01 0 0 0 0l-.1 1.1c0 0-2.09 0-2.1 0c0-.5.1-1.5.1-2.3c-.02-.04 0-9.1 0-9.1zm2.4 8.1c0 .1 0 .3.1.4c.1.6.7 1.2 1.4 1.2c1 0 1.7-.8 1.7-2.3c0-1.2-.6-2.1-1.7-2.1c-.7 0-1.3.5-1.4 1.2c-.1.1-.1.3-.1.4c0 0 0 1.2 0 1.2zm14.9-.7c0 2.9-2 4.2-4.1 4.2c-2.3 0-4.1-1.5-4.1-4.1c0-2.5 1.7-4.1 4.2-4.1c2.4 0 4 1.6 4 4zm-5.6.1c0 1.3.5 2.3 1.6 2.3c.9 0 1.5-.9 1.5-2.3c0-1.2-.4-2.4-1.5-2.4c-1.2 0-1.6 1.2-1.6 2.4zm14.5 1.4c0 1 0 1.8.1 2.5c-.04 0-2.1 0-2.1 0l-.2-1.1c0 0-.01 0 0 0c-.3.5-1 1.3-2.5 1.3c-1.6 0-2.7-1-2.7-3.4c-.01-.03 0-4.6 0-4.6l2.4 0c0 0 .02 4.18 0 4.2c0 1.1.4 1.8 1.3 1.8c.6 0 1-.5 1.2-.8c0-.2.1-.4.1-.6c-.03.03 0-4.6 0-4.6l2.4 0c0 0 0 5.29 0 5.3zm4.7-7.4l0 2.1l1.7 0l0 1.8l-1.7 0c0 0-.03 2.8 0 2.8c0 .9.2 1.4.9 1.4c.4 0 .5 0 .8-.1c0 0 0 1.9 0 1.9c-.3.1-.9.2-1.6.2c-.8 0-1.4-.3-1.8-.7c-.5-.5-.7-1.2-.7-2.3c-.01-.03 0-3.2 0-3.2l-1.1 0l0-1.8l1.1 0l0-1.5l2.4-.6z" stroke="none" fill="#fff"/></g></svg>