<?xml version="1.0" standalone="no"?><!DOCTYPE svg PUBLIC "-//W3C//DTD SVG 1.1//EN" "http://www.w3.org/Graphics/SVG/1.1/DTD/svg11.dtd"><svg xmlns="http://www.w3.org/2000/svg" version="1.1" width="345.3px" height="84.5px" viewBox="0 0 345.3 84.5">  <desc>Santa Cruz Island 60,645 acres</desc>  <defs/>  <g id="Polygon12053">    <path d="M 8.3 54.6 C 8 54.6 7.7 54.6 7.2 54.7 C 4.8 54.9 3.7 56.1 3.4 57.5 C 3.4 57.5 3.4 57.5 3.4 57.5 C 4 56.9 4.9 56.6 5.9 56.6 C 7.9 56.6 9.6 58 9.6 60.4 C 9.6 62.8 7.8 64.7 5.3 64.7 C 2.1 64.7 0.5 62.4 0.5 59.5 C 0.5 57.3 1.4 55.5 2.7 54.3 C 3.8 53.2 5.4 52.6 7.2 52.5 C 7.7 52.5 8.1 52.5 8.3 52.5 C 8.3 52.5 8.3 54.6 8.3 54.6 Z M 6.8 60.6 C 6.8 59.5 6.2 58.5 5 58.5 C 4.3 58.5 3.7 59 3.4 59.6 C 3.3 59.7 3.3 60 3.3 60.3 C 3.3 61.5 3.9 62.7 5.2 62.7 C 6.2 62.7 6.8 61.8 6.8 60.6 Z M 19.6 58.5 C 19.6 62.2 18.1 64.7 15.1 64.7 C 12 64.7 10.7 62 10.7 58.6 C 10.7 55.2 12.1 52.5 15.2 52.5 C 18.3 52.5 19.6 55.3 19.6 58.5 Z M 13.4 58.6 C 13.4 61.3 14.1 62.6 15.2 62.6 C 16.2 62.6 16.8 61.3 16.8 58.6 C 16.8 56 16.2 54.6 15.1 54.6 C 14.1 54.6 13.4 55.8 13.4 58.6 Z M 20.2 66.7 C 20.8 65 21.3 63.2 21.5 61.5 C 21.5 61.5 24.3 61.3 24.3 61.3 C 23.7 63.2 22.9 65.1 22 66.5 C 22 66.5 20.2 66.7 20.2 66.7 Z M 33.2 54.6 C 32.9 54.6 32.6 54.6 32.1 54.7 C 29.7 54.9 28.6 56.1 28.3 57.5 C 28.3 57.5 28.3 57.5 28.3 57.5 C 28.9 56.9 29.8 56.6 30.8 56.6 C 32.8 56.6 34.5 58 34.5 60.4 C 34.5 62.8 32.7 64.7 30.2 64.7 C 27 64.7 25.4 62.4 25.4 59.5 C 25.4 57.3 26.3 55.5 27.6 54.3 C 28.7 53.2 30.3 52.6 32.1 52.5 C 32.6 52.5 32.9 52.5 33.2 52.5 C 33.2 52.5 33.2 54.6 33.2 54.6 Z M 31.7 60.6 C 31.7 59.5 31.1 58.5 29.9 58.5 C 29.2 58.5 28.6 59 28.3 59.6 C 28.2 59.7 28.2 60 28.2 60.3 C 28.2 61.5 28.8 62.7 30.1 62.7 C 31.1 62.7 31.7 61.8 31.7 60.6 Z M 40.6 64.5 L 40.6 61.7 L 35.4 61.7 L 35.4 59.9 L 39.9 52.7 L 43.3 52.7 L 43.3 59.6 L 44.7 59.6 L 44.7 61.7 L 43.3 61.7 L 43.3 64.5 L 40.6 64.5 Z M 40.6 59.6 C 40.6 59.6 40.64 56.99 40.6 57 C 40.6 56.3 40.7 55.6 40.7 54.8 C 40.7 54.8 40.7 54.8 40.7 54.8 C 40.3 55.6 39.9 56.2 39.5 57 C 39.55 56.99 38 59.6 38 59.6 L 38 59.6 L 40.6 59.6 Z M 53.7 55 L 49.1 55 C 49.1 55 48.89 56.77 48.9 56.8 C 49.1 56.7 49.4 56.7 49.7 56.7 C 50.8 56.7 51.9 57 52.8 57.6 C 53.6 58.2 54.2 59.2 54.2 60.6 C 54.2 62.8 52.3 64.7 49.1 64.7 C 47.7 64.7 46.5 64.4 45.8 64 C 45.8 64 46.3 62 46.3 62 C 46.9 62.2 47.9 62.5 49 62.5 C 50.1 62.5 51.4 62 51.4 60.7 C 51.4 59.5 50.4 58.8 48 58.8 C 47.4 58.8 46.9 58.8 46.5 58.9 C 46.45 58.88 47.2 52.7 47.2 52.7 L 53.7 52.7 L 53.7 55 Z M 67.3 62.4 C 67.3 63.2 67.4 64 67.5 64.5 C 67.48 64.5 65 64.5 65 64.5 L 64.8 63.6 C 64.8 63.6 64.77 63.61 64.8 63.6 C 64.2 64.3 63.3 64.7 62.2 64.7 C 60.4 64.7 59.4 63.4 59.4 62 C 59.4 59.7 61.4 58.6 64.6 58.6 C 64.6 58.6 64.6 58.5 64.6 58.5 C 64.6 58 64.3 57.3 63 57.3 C 62 57.3 61.1 57.6 60.5 58 C 60.5 58 60 56.2 60 56.2 C 60.6 55.8 61.8 55.4 63.4 55.4 C 66.4 55.4 67.3 57.1 67.3 59.2 C 67.3 59.2 67.3 62.4 67.3 62.4 Z M 64.7 60.3 C 63.2 60.3 62.1 60.6 62.1 61.7 C 62.1 62.4 62.6 62.8 63.2 62.8 C 63.8 62.8 64.4 62.3 64.6 61.7 C 64.6 61.6 64.7 61.4 64.7 61.3 C 64.7 61.3 64.7 60.3 64.7 60.3 Z M 76.2 64.3 C 75.7 64.5 74.8 64.7 73.7 64.7 C 70.9 64.7 69 62.9 69 60.1 C 69 57.5 70.8 55.4 74.1 55.4 C 74.8 55.4 75.6 55.5 76.2 55.8 C 76.2 55.8 75.8 57.8 75.8 57.8 C 75.5 57.7 75 57.5 74.2 57.5 C 72.8 57.5 71.8 58.6 71.9 60 C 71.9 61.6 72.9 62.5 74.3 62.5 C 74.9 62.5 75.5 62.4 75.9 62.2 C 75.9 62.2 76.2 64.3 76.2 64.3 Z M 77.7 58.5 C 77.7 57.2 77.7 56.4 77.7 55.6 C 77.66 55.61 80 55.6 80 55.6 L 80.1 57.2 C 80.1 57.2 80.2 57.25 80.2 57.2 C 80.7 55.9 81.7 55.4 82.6 55.4 C 82.9 55.4 83 55.4 83.2 55.4 C 83.2 55.4 83.2 58 83.2 58 C 83 58 82.7 58 82.4 58 C 81.4 58 80.7 58.5 80.5 59.4 C 80.5 59.6 80.5 59.8 80.5 60 C 80.49 59.99 80.5 64.5 80.5 64.5 L 77.7 64.5 C 77.7 64.5 77.73 58.54 77.7 58.5 Z M 86.6 60.9 C 86.7 62.1 87.8 62.6 89.1 62.6 C 90.1 62.6 90.8 62.5 91.6 62.2 C 91.6 62.2 91.9 64.1 91.9 64.1 C 91 64.5 89.9 64.7 88.7 64.7 C 85.7 64.7 84 62.9 84 60.2 C 84 57.9 85.4 55.4 88.5 55.4 C 91.3 55.4 92.4 57.6 92.4 59.8 C 92.4 60.3 92.4 60.7 92.3 60.9 C 92.3 60.9 86.6 60.9 86.6 60.9 Z M 89.9 59 C 89.9 58.4 89.6 57.2 88.3 57.2 C 87.1 57.2 86.7 58.3 86.6 59 C 86.6 59 89.9 59 89.9 59 Z M 94.1 62.1 C 94.6 62.4 95.6 62.8 96.4 62.8 C 97.3 62.8 97.6 62.5 97.6 62 C 97.6 61.6 97.4 61.3 96.3 61 C 94.5 60.4 93.8 59.4 93.8 58.3 C 93.8 56.6 95.2 55.4 97.4 55.4 C 98.4 55.4 99.4 55.6 99.9 55.9 C 99.9 55.9 99.4 57.8 99.4 57.8 C 99 57.6 98.2 57.3 97.5 57.3 C 96.8 57.3 96.4 57.6 96.4 58 C 96.4 58.5 96.8 58.7 97.9 59.1 C 99.6 59.6 100.3 60.5 100.3 61.8 C 100.3 63.5 99 64.7 96.4 64.7 C 95.3 64.7 94.2 64.4 93.6 64.1 C 93.6 64.1 94.1 62.1 94.1 62.1 Z " stroke="none" fill="#000"/>  </g>  <g id="Polygon12052">    <path d="M 1 18.3 C 1.03 18.29 3.7 17.9 3.7 17.9 C 3.7 17.9 5.06 21.9 5.1 21.9 C 5.7 22.1 6.3 22.1 6.9 22.1 C 8.9 22.1 10.1 21.2 10.1 19.4 C 10.1 17.7 9.1 17.3 7.6 16.8 C 7.6 16.8 5.6 16.1 5.6 16.1 C 2.8 15.1 1 13.4 1 10.3 C 1 6.2 4.8 4.4 9 4.4 C 11.3 4.4 13.5 4.8 14.6 5.3 C 14.7 5.8 14.8 6.5 14.8 7.1 C 14.8 8.1 14.7 9.4 14.4 10.4 C 14.45 10.36 11.9 10.4 11.9 10.4 C 11.9 10.4 11.09 6.94 11.1 6.9 C 10.5 6.8 9.8 6.7 9.2 6.7 C 7.4 6.7 5.9 7.5 5.9 9.2 C 5.9 10.6 6.5 11.3 8.1 11.8 C 8.1 11.8 10.5 12.5 10.5 12.5 C 13.8 13.6 15.4 15.1 15.4 18.1 C 15.4 22.6 11.1 24.5 7 24.5 C 4.7 24.5 2.7 23.9 1.5 23.2 C 1.1 22 1 19.7 1 18.3 Z M 25.4 15.6 C 25.4 15.6 25.4 13.7 25.4 13.7 C 25.4 12.3 24.8 11.6 23.3 11.6 C 22.8 11.6 22.4 11.7 21.9 11.8 C 21.9 11.75 21.4 14.3 21.4 14.3 C 21.4 14.3 18.54 14.3 18.5 14.3 C 18.3 13.5 18.2 12.7 18.2 11.9 C 18.2 11.5 18.2 10.9 18.3 10.6 C 20.2 9.6 22.6 9.1 24.8 9.1 C 28.5 9.1 30.5 10.5 30.5 13.5 C 30.5 15.9 30.4 18.9 30.4 21.6 C 30.38 21.6 31.9 22 31.9 22 C 31.9 22 31.89 23.66 31.9 23.7 C 30.2 24.1 28.1 24.4 25.5 24.4 C 25.5 24.4 25.5 22.2 25.5 22.2 C 24.8 23.6 23.3 24.4 21.5 24.4 C 19 24.4 17.2 23.1 17.2 20.4 C 17.2 16.5 21 15.8 25.4 15.6 Z M 25.4 21 C 25.4 21 25.4 17.4 25.4 17.4 C 23.3 17.6 22.1 18.2 22.1 19.8 C 22.1 21 22.8 21.6 23.9 21.6 C 24.5 21.6 25 21.4 25.4 21 Z M 34.8 22 C 34.83 22.02 34.8 12.2 34.8 12.2 L 33.3 11.8 C 33.3 11.8 33.32 10.03 33.3 10 C 35 9.6 37.4 9.2 39.9 9.2 C 39.9 9.2 39.9 11.6 39.9 11.6 C 41 9.9 42.9 9.1 44.9 9.1 C 47.9 9.1 49.6 10.9 49.6 13.6 C 49.6 13.6 49.6 22 49.6 22 C 50.2 22.1 50.8 22.3 51.1 22.4 C 51.1 22.41 51.1 24.1 51.1 24.1 L 42.9 24.1 C 42.9 24.1 42.92 22.41 42.9 22.4 C 43.3 22.3 43.8 22.1 44.5 22 C 44.5 22 44.5 14.7 44.5 14.7 C 44.5 13.4 43.8 12.7 42.6 12.7 C 41.6 12.7 40.7 13 39.9 13.8 C 39.9 13.8 39.9 22 39.9 22 C 40.6 22.1 41.2 22.3 41.5 22.4 C 41.5 22.41 41.5 24.1 41.5 24.1 L 33.3 24.1 C 33.3 24.1 33.29 22.41 33.3 22.4 C 33.6 22.3 34.2 22.1 34.8 22 Z M 54 9.6 C 54 9.6 54.2 7 54.2 7 C 55.4 6.7 57.3 6.6 59 6.6 C 59 6.6 58.9 9.5 58.9 9.5 L 62.2 9.5 L 62.2 11.9 L 58.9 11.9 C 58.9 11.9 58.79 19.29 58.8 19.3 C 58.8 20.7 59.2 21.2 60.2 21.2 C 61 21.2 61.5 20.8 62 20.3 C 62 20.3 62.9 21.6 62.9 21.6 C 62.1 23 60.4 24.4 57.9 24.4 C 55.2 24.4 53.7 22.9 53.7 20.3 C 53.7 20.29 53.8 11.9 53.8 11.9 L 52.3 11.9 C 52.3 11.9 52.28 10.09 52.3 10.1 C 52.6 9.9 53.1 9.8 54 9.6 Z M 72.1 15.6 C 72.1 15.6 72.1 13.7 72.1 13.7 C 72.1 12.3 71.5 11.6 70 11.6 C 69.6 11.6 69.1 11.7 68.6 11.8 C 68.64 11.75 68.2 14.3 68.2 14.3 C 68.2 14.3 65.27 14.3 65.3 14.3 C 65 13.5 64.9 12.7 64.9 11.9 C 64.9 11.5 65 10.9 65.1 10.6 C 66.9 9.6 69.3 9.1 71.5 9.1 C 75.2 9.1 77.2 10.5 77.2 13.5 C 77.2 15.9 77.1 18.9 77.1 21.6 C 77.12 21.6 78.6 22 78.6 22 C 78.6 22 78.63 23.66 78.6 23.7 C 76.9 24.1 74.8 24.4 72.2 24.4 C 72.2 24.4 72.2 22.2 72.2 22.2 C 71.5 23.6 70 24.4 68.2 24.4 C 65.7 24.4 64 23.1 64 20.4 C 64 16.5 67.7 15.8 72.1 15.6 Z M 72.1 21 C 72.1 21 72.1 17.4 72.1 17.4 C 70 17.6 68.8 18.2 68.8 19.8 C 68.8 21 69.6 21.6 70.6 21.6 C 71.2 21.6 71.7 21.4 72.1 21 Z M 96.7 4.4 C 99.1 4.4 101 4.8 102.1 5.3 C 102.2 5.8 102.3 6.6 102.3 7.2 C 102.3 8.1 102.2 9.4 102 10.4 C 101.96 10.36 99.4 10.4 99.4 10.4 C 99.4 10.4 98.56 6.85 98.6 6.8 C 98.1 6.8 97.6 6.7 97.1 6.7 C 93.7 6.7 91.5 9.4 91.5 14.1 C 91.5 19.8 94 22.1 97.5 22.1 C 97.7 22.1 98 22.1 98.3 22.1 C 98.32 22.05 99.7 17.9 99.7 17.9 C 99.7 17.9 102.38 18.29 102.4 18.3 C 102.4 19.7 102.2 21.5 101.8 23.1 C 100.3 24 98.1 24.5 95.6 24.5 C 89.5 24.5 85.8 21.1 85.8 14.6 C 85.8 7.8 90.7 4.4 96.7 4.4 Z M 105.7 22 C 105.74 22.02 105.7 12.2 105.7 12.2 L 104.2 11.8 C 104.2 11.8 104.23 10.03 104.2 10 C 106 9.6 108.3 9.2 110.8 9.2 C 110.8 9.2 110.8 11.8 110.8 11.8 C 111.8 10 113.4 9.1 115 9.1 C 115.7 9.1 116.4 9.4 116.8 9.8 C 116.8 11.9 116.6 13.4 116.1 15.2 C 116.07 15.18 113.5 15.2 113.5 15.2 C 113.5 15.2 113.07 12.72 113.1 12.7 C 112.2 12.8 111.4 13.2 110.8 13.9 C 110.8 13.9 110.8 22 110.8 22 C 111.7 22.1 112.5 22.3 112.9 22.4 C 112.92 22.41 112.9 24.1 112.9 24.1 L 104.2 24.1 C 104.2 24.1 104.2 22.41 104.2 22.4 C 104.5 22.3 105.1 22.1 105.7 22 Z M 118.1 11.8 C 118.1 11.8 118.13 10.03 118.1 10 C 119.9 9.6 122.2 9.2 124.7 9.2 C 124.7 9.2 124.7 18.7 124.7 18.7 C 124.7 20.3 125.3 21 126.6 21 C 127.6 21 128.5 20.7 129.3 19.9 C 129.28 19.93 129.3 12.2 129.3 12.2 L 127.8 11.8 C 127.8 11.8 127.76 10.03 127.8 10 C 129.5 9.6 131.8 9.2 134.4 9.2 C 134.36 9.24 134.4 21.6 134.4 21.6 L 135.9 22 C 135.9 22 135.88 23.66 135.9 23.7 C 134.2 24.1 131.9 24.4 129.3 24.4 C 129.3 24.4 129.3 22 129.3 22 C 128.2 23.7 126.3 24.5 124.2 24.5 C 121.2 24.5 119.6 22.7 119.6 19.8 C 119.64 19.81 119.6 12.2 119.6 12.2 L 118.1 11.8 Z M 137.2 11.7 C 137.2 10.9 137.2 10.2 137.4 9.5 C 137.39 9.48 150 9.5 150 9.5 L 150 11.2 L 142.9 21.8 L 146.6 21.7 L 147.8 18.7 C 147.8 18.7 150.21 18.66 150.2 18.7 C 150.2 20.6 150.1 22.5 149.6 24.1 C 149.63 24.11 137.2 24.1 137.2 24.1 L 137.2 22.4 L 144.3 11.8 L 140.6 11.9 L 140 15.2 C 140 15.2 137.42 15.18 137.4 15.2 C 137.2 14.1 137.2 13 137.2 11.7 Z M 158.7 21.9 C 158.7 21.9 158.7 6.9 158.7 6.9 C 158 6.9 157.4 6.7 157 6.5 C 156.96 6.54 157 4.7 157 4.7 L 166 4.7 C 166 4.7 165.99 6.54 166 6.5 C 165.5 6.7 165 6.9 164.2 6.9 C 164.2 6.9 164.2 21.9 164.2 21.9 C 165 22 165.5 22.1 166 22.3 C 165.99 22.29 166 24.1 166 24.1 L 157 24.1 C 157 24.1 156.96 22.29 157 22.3 C 157.4 22.1 158 22 158.7 21.9 Z M 167.7 22.4 C 167.7 21.4 167.8 20.4 168.1 19.4 C 168.08 19.39 170.7 19.4 170.7 19.4 C 170.7 19.4 171.23 22.08 171.2 22.1 C 171.7 22.2 172.2 22.2 172.7 22.2 C 174 22.2 174.9 21.7 174.9 20.5 C 174.9 19.4 174 19.1 172.6 18.6 C 172.6 18.6 171 18.1 171 18.1 C 169 17.5 167.7 16.3 167.7 13.8 C 167.7 10.4 170.7 9.1 174.3 9.1 C 175.9 9.1 177.8 9.4 179 9.9 C 179.1 10.3 179.1 10.8 179.1 11.2 C 179.1 12.1 179 13.2 178.7 14.2 C 178.68 14.18 176 14.2 176 14.2 C 176 14.2 175.53 11.51 175.5 11.5 C 175.2 11.4 174.7 11.4 174.3 11.4 C 173.2 11.4 172.1 11.8 172.1 12.9 C 172.1 14.1 173 14.4 174.2 14.8 C 174.2 14.8 175.8 15.3 175.8 15.3 C 178.1 16 179.6 17.1 179.6 19.5 C 179.6 22.7 177.3 24.5 172.7 24.5 C 171 24.5 169 24.2 167.8 23.7 C 167.7 23.3 167.7 22.8 167.7 22.4 Z M 182.5 22 C 182.47 22.02 182.5 5.8 182.5 5.8 L 180.7 5.4 C 180.7 5.4 180.68 3.6 180.7 3.6 C 182.4 3.1 185 2.9 187.6 2.9 C 187.6 2.9 187.6 22 187.6 22 C 188.2 22.1 188.8 22.3 189.1 22.4 C 189.13 22.41 189.1 24.1 189.1 24.1 L 180.9 24.1 C 180.9 24.1 180.92 22.41 180.9 22.4 C 181.3 22.3 181.8 22.1 182.5 22 Z M 198.5 15.6 C 198.5 15.6 198.5 13.7 198.5 13.7 C 198.5 12.3 197.9 11.6 196.4 11.6 C 195.9 11.6 195.5 11.7 195 11.8 C 195.01 11.75 194.6 14.3 194.6 14.3 C 194.6 14.3 191.64 14.3 191.6 14.3 C 191.4 13.5 191.3 12.7 191.3 11.9 C 191.3 11.5 191.3 10.9 191.4 10.6 C 193.3 9.6 195.7 9.1 197.9 9.1 C 201.6 9.1 203.6 10.5 203.6 13.5 C 203.6 15.9 203.5 18.9 203.5 21.6 C 203.49 21.6 205 22 205 22 C 205 22 205 23.66 205 23.7 C 203.3 24.1 201.2 24.4 198.6 24.4 C 198.6 24.4 198.6 22.2 198.6 22.2 C 197.9 23.6 196.4 24.4 194.6 24.4 C 192.1 24.4 190.3 23.1 190.3 20.4 C 190.3 16.5 194.1 15.8 198.5 15.6 Z M 198.5 21 C 198.5 21 198.5 17.4 198.5 17.4 C 196.4 17.6 195.2 18.2 195.2 19.8 C 195.2 21 195.9 21.6 197 21.6 C 197.6 21.6 198.1 21.4 198.5 21 Z M 207.9 22 C 207.94 22.02 207.9 12.2 207.9 12.2 L 206.4 11.8 C 206.4 11.8 206.42 10.03 206.4 10 C 208.2 9.6 210.5 9.2 213 9.2 C 213 9.2 213 11.6 213 11.6 C 214.1 9.9 216 9.1 218.1 9.1 C 221.1 9.1 222.7 10.9 222.7 13.6 C 222.7 13.6 222.7 22 222.7 22 C 223.3 22.1 223.9 22.3 224.2 22.4 C 224.2 22.41 224.2 24.1 224.2 24.1 L 216 24.1 C 216 24.1 216.03 22.41 216 22.4 C 216.4 22.3 216.9 22.1 217.6 22 C 217.6 22 217.6 14.7 217.6 14.7 C 217.6 13.4 216.9 12.7 215.7 12.7 C 214.7 12.7 213.8 13 213 13.8 C 213 13.8 213 22 213 22 C 213.7 22.1 214.3 22.3 214.6 22.4 C 214.6 22.41 214.6 24.1 214.6 24.1 L 206.4 24.1 C 206.4 24.1 206.39 22.41 206.4 22.4 C 206.7 22.3 207.3 22.1 207.9 22 Z M 232.6 9 C 233.8 9 234.9 9.5 235.5 10.2 C 235.53 10.21 235.5 5.8 235.5 5.8 L 233.7 5.4 C 233.7 5.4 233.66 3.6 233.7 3.6 C 235.4 3.1 238 2.9 240.6 2.9 C 240.62 2.91 240.6 21.6 240.6 21.6 L 242.1 22 C 242.1 22 242.14 23.66 242.1 23.7 C 240.4 24.1 238.2 24.4 235.6 24.4 C 235.6 24.4 235.6 22 235.6 22 C 234.8 23.6 233.3 24.5 231.5 24.5 C 227.9 24.5 225.6 21.7 225.6 17.1 C 225.6 12.1 228.4 9 232.6 9 Z M 235.5 20.4 C 235.5 20.4 235.5 12.1 235.5 12.1 C 235.2 12 234.8 12 234.4 12 C 232.1 12 230.9 14 230.9 16.7 C 230.9 20 232.1 21.2 233.7 21.2 C 234.4 21.2 235 20.9 235.5 20.4 Z " stroke="none" fill="#404040"/>  </g></svg>