<?xml version="1.0" standalone="no"?><!DOCTYPE svg PUBLIC "-//W3C//DTD SVG 1.1//EN" "http://www.w3.org/Graphics/SVG/1.1/DTD/svg11.dtd"><svg xmlns="http://www.w3.org/2000/svg" version="1.1" width="360px" height="54px" viewBox="0 0 360 54">  <desc>Hiking</desc>  <defs/>  <g id="Polygon10838">    <path d="M 103.5 19.2 L 103.5 23.4 L 107.5 23.4 L 107.5 19.2 L 110 19.2 L 110 30 L 107.5 30 L 107.5 25.5 L 103.5 25.5 L 103.5 30 L 101.1 30 L 101.1 19.2 L 103.5 19.2 Z M 112 30 L 112 22.2 L 114.5 22.2 L 114.5 30 L 112 30 Z M 114.6 20 C 114.6 20.7 114.1 21.2 113.2 21.2 C 112.5 21.2 112 20.7 112 20 C 112 19.3 112.5 18.8 113.3 18.8 C 114.1 18.8 114.5 19.3 114.6 20 Z M 118.9 25.5 C 118.9 25.5 118.9 25.47 118.9 25.5 C 119.1 25.1 119.3 24.8 119.5 24.5 C 119.46 24.53 121 22.2 121 22.2 L 124 22.2 L 121.2 25.3 L 124.4 30 L 121.4 30 L 119.5 26.8 L 118.9 27.6 L 118.9 30 L 116.4 30 L 116.4 18.6 L 118.9 18.6 L 118.9 25.5 Z M 125.3 30 L 125.3 22.2 L 127.7 22.2 L 127.7 30 L 125.3 30 Z M 127.8 20 C 127.8 20.7 127.3 21.2 126.5 21.2 C 125.7 21.2 125.2 20.7 125.2 20 C 125.2 19.3 125.7 18.8 126.5 18.8 C 127.3 18.8 127.8 19.3 127.8 20 Z M 129.6 24.7 C 129.6 23.7 129.6 22.9 129.6 22.2 C 129.58 22.18 131.7 22.2 131.7 22.2 L 131.8 23.3 C 131.8 23.3 131.86 23.26 131.9 23.3 C 132.2 22.8 133 22 134.3 22 C 135.9 22 137.1 23.1 137.1 25.4 C 137.07 25.38 137.1 30 137.1 30 L 134.6 30 C 134.6 30 134.64 25.66 134.6 25.7 C 134.6 24.7 134.3 24 133.4 24 C 132.7 24 132.3 24.4 132.2 24.9 C 132.1 25 132.1 25.3 132.1 25.5 C 132.08 25.49 132.1 30 132.1 30 L 129.6 30 C 129.6 30 129.65 24.67 129.6 24.7 Z M 146.4 28.9 C 146.4 30.4 146.1 31.6 145.2 32.4 C 144.4 33.1 143.2 33.3 142.1 33.3 C 141 33.3 140 33.1 139.2 32.8 C 139.2 32.8 139.7 30.9 139.7 30.9 C 140.2 31.2 141.1 31.5 142 31.5 C 143.2 31.5 144 30.9 144 29.4 C 144.03 29.42 144 28.9 144 28.9 C 144 28.9 144 28.93 144 28.9 C 143.5 29.6 142.8 29.9 141.9 29.9 C 140 29.9 138.6 28.4 138.6 26.1 C 138.6 23.6 140.2 22 142.1 22 C 143.2 22 143.9 22.5 144.3 23.1 C 144.27 23.12 144.3 23.1 144.3 23.1 L 144.4 22.2 C 144.4 22.2 146.5 22.18 146.5 22.2 C 146.5 22.7 146.4 23.3 146.4 24.5 C 146.4 24.5 146.4 28.9 146.4 28.9 Z M 144 25.4 C 144 25.2 144 25.1 144 24.9 C 143.8 24.3 143.3 23.8 142.6 23.8 C 141.7 23.8 141 24.6 141 26.1 C 141 27.2 141.6 28.1 142.6 28.1 C 143.3 28.1 143.8 27.7 143.9 27.2 C 144 27 144 26.7 144 26.5 C 144 26.5 144 25.4 144 25.4 Z " stroke="none" fill="#fff"/>  </g></svg>