<?xml version="1.0" standalone="no"?><!DOCTYPE svg PUBLIC "-//W3C//DTD SVG 1.1//EN" "http://www.w3.org/Graphics/SVG/1.1/DTD/svg11.dtd"><svg xmlns="http://www.w3.org/2000/svg" version="1.1" width="125px" height="46px" viewBox="0 0 125 46">  <desc>Wildlife</desc>  <defs/>  <g id="Polygon10376">    <path d="M 29.2 26 L 26.6 15.2 L 29.2 15.2 C 29.2 15.2 30.04 19.65 30 19.6 C 30.3 20.9 30.5 22.3 30.7 23.4 C 30.7 23.4 30.7 23.4 30.7 23.4 C 30.9 22.3 31.1 21 31.4 19.6 C 31.41 19.62 32.3 15.2 32.3 15.2 L 34.9 15.2 C 34.9 15.2 35.78 19.76 35.8 19.8 C 36 21 36.2 22.2 36.4 23.4 C 36.4 23.4 36.4 23.4 36.4 23.4 C 36.5 22.2 36.8 20.9 37 19.6 C 37.01 19.62 37.9 15.2 37.9 15.2 L 40.4 15.2 L 37.6 26 L 34.9 26 C 34.9 26 34.04 21.36 34 21.4 C 33.8 20.3 33.7 19.3 33.5 18 C 33.5 18 33.5 18 33.5 18 C 33.3 19.2 33.1 20.3 32.9 21.4 C 32.87 21.36 31.8 26 31.8 26 L 29.2 26 Z M 41.1 26 L 41.1 18.2 L 43.6 18.2 L 43.6 26 L 41.1 26 Z M 43.6 16 C 43.6 16.7 43.1 17.2 42.3 17.2 C 41.6 17.2 41.1 16.7 41.1 16 C 41.1 15.3 41.6 14.8 42.4 14.8 C 43.1 14.8 43.6 15.3 43.6 16 Z M 45.5 14.6 L 47.9 14.6 L 47.9 26 L 45.5 26 L 45.5 14.6 Z M 57.5 14.6 C 57.5 14.6 57.49 23.66 57.5 23.7 C 57.5 24.5 57.5 25.5 57.6 26 C 57.56 26 55.4 26 55.4 26 L 55.3 24.9 C 55.3 24.9 55.25 24.86 55.3 24.9 C 54.8 25.7 53.8 26.2 52.8 26.2 C 50.9 26.2 49.5 24.6 49.5 22.2 C 49.4 19.5 51.1 18 53 18 C 53.9 18 54.7 18.3 55 18.9 C 55.03 18.86 55.1 18.9 55.1 18.9 L 55.1 14.6 L 57.5 14.6 Z M 55.1 21.5 C 55.1 21.4 55.1 21.2 55 21 C 54.9 20.4 54.4 19.9 53.6 19.9 C 52.5 19.9 51.9 20.8 51.9 22.1 C 51.9 23.4 52.6 24.2 53.6 24.2 C 54.3 24.2 54.9 23.8 55 23.1 C 55 22.9 55.1 22.7 55.1 22.5 C 55.1 22.5 55.1 21.5 55.1 21.5 Z M 59.4 14.6 L 61.9 14.6 L 61.9 26 L 59.4 26 L 59.4 14.6 Z M 63.8 26 L 63.8 18.2 L 66.3 18.2 L 66.3 26 L 63.8 26 Z M 66.4 16 C 66.4 16.7 65.9 17.2 65 17.2 C 64.3 17.2 63.8 16.7 63.8 16 C 63.8 15.3 64.3 14.8 65.1 14.8 C 65.9 14.8 66.3 15.3 66.4 16 Z M 68.5 26 L 68.5 20 L 67.5 20 L 67.5 18.2 L 68.5 18.2 C 68.5 18.2 68.52 17.87 68.5 17.9 C 68.5 16.9 68.8 15.9 69.5 15.2 C 70.1 14.7 70.9 14.5 71.7 14.5 C 72.2 14.5 72.6 14.5 72.9 14.6 C 72.9 14.6 72.9 16.5 72.9 16.5 C 72.6 16.4 72.4 16.4 72.1 16.4 C 71.3 16.4 70.9 17 70.9 17.8 C 70.93 17.78 70.9 18.2 70.9 18.2 L 72.5 18.2 L 72.5 20 L 70.9 20 L 70.9 26 L 68.5 26 Z M 75.4 22.9 C 75.5 23.9 76.5 24.4 77.6 24.4 C 78.4 24.4 79.1 24.2 79.8 24 C 79.8 24 80.1 25.7 80.1 25.7 C 79.3 26 78.3 26.2 77.3 26.2 C 74.6 26.2 73.1 24.6 73.1 22.2 C 73.1 20.2 74.3 18 77 18 C 79.6 18 80.5 20 80.5 21.9 C 80.5 22.3 80.5 22.7 80.4 22.9 C 80.4 22.9 75.4 22.9 75.4 22.9 Z M 78.3 21.2 C 78.3 20.6 78 19.6 76.9 19.6 C 75.9 19.6 75.4 20.6 75.4 21.2 C 75.4 21.2 78.3 21.2 78.3 21.2 Z " stroke="none" fill="#fff"/>  </g></svg>