<?xml version="1.0" standalone="no"?><!DOCTYPE svg PUBLIC "-//W3C//DTD SVG 1.1//EN" "http://www.w3.org/Graphics/SVG/1.1/DTD/svg11.dtd"><svg xmlns="http://www.w3.org/2000/svg" version="1.1" width="360px" height="54px" viewBox="0 0 360 54">  <desc>More</desc>  <defs/>  <g id="Polygon10912">    <path d="M 110.2 25.9 C 110.1 24.6 110.1 23 110.1 21.4 C 110.1 21.4 110 21.4 110 21.4 C 109.7 22.8 109.2 24.4 108.8 25.6 C 108.83 25.62 107.5 29.8 107.5 29.8 L 105.6 29.8 C 105.6 29.8 104.46 25.66 104.5 25.7 C 104.1 24.4 103.8 22.8 103.5 21.4 C 103.5 21.4 103.5 21.4 103.5 21.4 C 103.4 22.9 103.3 24.6 103.3 25.9 C 103.28 25.9 103.1 30 103.1 30 L 100.8 30 L 101.5 19.2 L 104.8 19.2 C 104.8 19.2 105.81 22.82 105.8 22.8 C 106.2 24.1 106.5 25.4 106.7 26.7 C 106.7 26.7 106.8 26.7 106.8 26.7 C 107.1 25.4 107.4 24 107.8 22.8 C 107.81 22.8 108.9 19.2 108.9 19.2 L 112.1 19.2 L 112.7 30 L 110.4 30 C 110.4 30 110.18 25.87 110.2 25.9 Z M 122.3 26 C 122.3 28.9 120.3 30.2 118.2 30.2 C 115.9 30.2 114.1 28.7 114.1 26.1 C 114.1 23.6 115.8 22 118.3 22 C 120.7 22 122.3 23.6 122.3 26 Z M 116.6 26.1 C 116.6 27.4 117.2 28.4 118.2 28.4 C 119.2 28.4 119.8 27.5 119.8 26.1 C 119.8 24.9 119.3 23.7 118.2 23.7 C 117.1 23.7 116.6 24.9 116.6 26.1 Z M 123.8 24.8 C 123.8 23.6 123.8 22.8 123.7 22.2 C 123.73 22.18 125.8 22.2 125.8 22.2 L 125.9 23.6 C 125.9 23.6 125.97 23.62 126 23.6 C 126.4 22.5 127.3 22 128.1 22 C 128.3 22 128.4 22 128.6 22 C 128.6 22 128.6 24.3 128.6 24.3 C 128.4 24.3 128.2 24.3 127.9 24.3 C 127 24.3 126.4 24.7 126.3 25.5 C 126.2 25.6 126.2 25.8 126.2 26 C 126.22 26.03 126.2 30 126.2 30 L 123.8 30 C 123.8 30 123.79 24.75 123.8 24.8 Z M 131.6 26.9 C 131.7 27.9 132.7 28.4 133.8 28.4 C 134.7 28.4 135.3 28.2 136 28 C 136 28 136.3 29.7 136.3 29.7 C 135.5 30 134.5 30.2 133.5 30.2 C 130.8 30.2 129.3 28.6 129.3 26.2 C 129.3 24.2 130.5 22 133.2 22 C 135.8 22 136.7 24 136.7 25.9 C 136.7 26.3 136.7 26.7 136.7 26.9 C 136.7 26.9 131.6 26.9 131.6 26.9 Z M 134.5 25.2 C 134.5 24.6 134.2 23.6 133.1 23.6 C 132.1 23.6 131.7 24.6 131.6 25.2 C 131.6 25.2 134.5 25.2 134.5 25.2 Z M 138.2 28.7 C 138.2 27.8 138.8 27.2 139.6 27.2 C 140.5 27.2 141 27.8 141.1 28.7 C 141.1 29.6 140.5 30.2 139.6 30.2 C 138.8 30.2 138.2 29.6 138.2 28.7 Z M 143.5 28.7 C 143.5 27.8 144.1 27.2 145 27.2 C 145.8 27.2 146.4 27.8 146.4 28.7 C 146.4 29.6 145.8 30.2 144.9 30.2 C 144.1 30.2 143.5 29.6 143.5 28.7 Z M 148.9 28.7 C 148.9 27.8 149.5 27.2 150.3 27.2 C 151.2 27.2 151.7 27.8 151.7 28.7 C 151.7 29.6 151.2 30.2 150.3 30.2 C 149.5 30.2 148.9 29.6 148.9 28.7 Z " stroke="none" fill="#fff"/>  </g></svg>