<?xml version="1.0" standalone="no"?><!DOCTYPE svg PUBLIC "-//W3C//DTD SVG 1.1//EN" "http://www.w3.org/Graphics/SVG/1.1/DTD/svg11.dtd"><svg xmlns="http://www.w3.org/2000/svg" version="1.1" width="125px" height="145.8px" viewBox="0 0 125 145.8">  <desc>Dolphin</desc>  <defs/>  <g id="Polygon13990">    <path d="M 42.9 64.8 C 43.4 64.7 44.1 64.6 44.9 64.6 C 46.1 64.6 47 64.9 47.7 65.5 C 48.5 66.3 49 67.6 49 69.6 C 49 71.6 48.5 73.1 47.6 73.9 C 46.9 74.5 45.9 74.8 44.5 74.8 C 43.9 74.8 43.3 74.8 42.9 74.7 C 42.9 74.7 42.9 64.8 42.9 64.8 Z M 44.8 73.2 C 44.9 73.2 45.1 73.2 45.2 73.2 C 46.1 73.2 47 72.3 47 69.5 C 47 67.4 46.4 66.2 45.2 66.2 C 45.1 66.2 45 66.2 44.8 66.2 C 44.8 66.2 44.8 73.2 44.8 73.2 Z M 55.4 71.1 C 55.4 74.1 53.7 74.9 52.6 74.9 C 50.9 74.9 49.8 73.5 49.8 71.1 C 49.8 68.5 51.2 67.3 52.6 67.3 C 54.4 67.3 55.4 68.7 55.4 71.1 Z M 51.8 71.1 C 51.8 72.3 51.9 73.4 52.7 73.4 C 53.3 73.4 53.5 72.1 53.5 71.1 C 53.5 70.1 53.3 68.8 52.6 68.8 C 51.9 68.8 51.8 70.1 51.8 71.1 Z M 56.5 64.4 L 58.5 64.4 L 58.5 74.8 L 56.5 74.8 L 56.5 64.4 Z M 59.9 69.7 C 59.9 68.9 59.9 68.1 59.8 67.4 C 59.82 67.41 61.5 67.4 61.5 67.4 L 61.6 68.3 C 61.6 68.3 61.67 68.26 61.7 68.3 C 62 67.7 62.5 67.3 63.2 67.3 C 64.8 67.3 65.5 69 65.5 71.1 C 65.5 73.7 64.3 74.9 63.1 74.9 C 62.5 74.9 62.1 74.5 61.9 74.2 C 61.88 74.15 61.8 74.2 61.8 74.2 L 61.8 77.6 L 59.9 77.6 C 59.9 77.6 59.88 69.74 59.9 69.7 Z M 61.8 72.1 C 61.8 72.3 61.9 72.5 62 72.7 C 62.1 73.1 62.4 73.3 62.6 73.3 C 63.3 73.3 63.5 72.2 63.5 71.1 C 63.5 69.7 63.2 68.9 62.6 68.9 C 62.3 68.9 62 69.2 61.9 69.6 C 61.9 69.7 61.8 69.9 61.8 70.1 C 61.8 70.1 61.8 72.1 61.8 72.1 Z M 66.6 64.4 L 68.6 64.4 L 68.6 68.2 C 68.6 68.2 68.6 68.18 68.6 68.2 C 68.8 67.9 69 67.7 69.2 67.6 C 69.5 67.4 69.9 67.3 70.2 67.3 C 71.6 67.3 72.1 68.4 72.1 70.3 C 72.09 70.3 72.1 74.8 72.1 74.8 L 70.1 74.8 C 70.1 74.8 70.13 70.3 70.1 70.3 C 70.1 69.6 70 68.9 69.4 68.9 C 69.1 68.9 68.8 69.1 68.6 69.6 C 68.6 69.8 68.6 70 68.6 70.2 C 68.57 70.19 68.6 74.8 68.6 74.8 L 66.6 74.8 L 66.6 64.4 Z M 73.5 74.8 L 73.5 67.4 L 75.4 67.4 L 75.4 74.8 L 73.5 74.8 Z M 75.4 65.5 C 75.5 66.1 75 66.5 74.4 66.5 C 73.9 66.5 73.4 66.1 73.4 65.5 C 73.4 64.8 73.9 64.4 74.4 64.4 C 75 64.4 75.4 64.8 75.4 65.5 Z M 76.8 69.6 C 76.8 68.8 76.8 68.1 76.8 67.4 C 76.76 67.41 78.5 67.4 78.5 67.4 L 78.6 68.3 C 78.6 68.3 78.59 68.26 78.6 68.3 C 79 67.7 79.6 67.3 80.4 67.3 C 81.8 67.3 82.3 68.4 82.3 70 C 82.31 70.04 82.3 74.8 82.3 74.8 L 80.3 74.8 C 80.3 74.8 80.34 70.16 80.3 70.2 C 80.3 69.5 80.2 68.9 79.6 68.9 C 79.3 68.9 79 69.2 78.9 69.6 C 78.8 69.8 78.8 70 78.8 70.3 C 78.78 70.28 78.8 74.8 78.8 74.8 L 76.8 74.8 C 76.8 74.8 76.82 69.62 76.8 69.6 Z " stroke="none" fill="#000" fill-opacity="0.7"/>  </g></svg>