<?xml version="1.0" standalone="no"?><!DOCTYPE svg PUBLIC "-//W3C//DTD SVG 1.1//EN" "http://www.w3.org/Graphics/SVG/1.1/DTD/svg11.dtd"><svg xmlns="http://www.w3.org/2000/svg" xmlns:xlink="http://www.w3.org/1999/xlink" version="1.1" width="335px" height="64.9px" viewBox="0 0 335 64.9">  <desc>Dolphin seem to enjoy cavorting in the bow waves of large boats These dolphin were observed from the deck of the</desc>  <defs/>  <g class="svg-textframe-underlines">    <rect class="svg-underline" x="0" y="50.6" width="83.7" height="1" style="fill:#00aa32;"/>  </g>  <g id="Polygon14461">    <path d="M 84.1 46.5 C 84.1 45.9 84.5 45.5 85 45.5 C 85.5 45.5 85.8 45.7 85.8 46.2 C 85.8 46.9 85.4 47.3 84.9 47.3 C 84.4 47.3 84.1 47 84.1 46.5 Z " stroke="none" fill="#fff"/>  </g>  <g id="Polygon14459">    <path d="M 3.4 19.3 C 3.4 19.3 2.7 24.1 2.7 24.1 C 3.2 23 3.9 22.5 4.9 22.5 C 5.8 22.5 6.4 23.3 6.4 24.6 C 6.4 26.8 5.3 29.3 3.1 29.3 C 2.6 29.3 2.1 29 1.8 28.7 C 1.6 28.9 1.3 29.2 1.1 29.3 C 1.06 29.25 0.7 29.1 0.7 29.1 L 2.2 20.3 L 1 20.1 C 1 20.1 1.05 19.68 1.1 19.7 C 1.6 19.5 2.5 19.3 3.4 19.3 Z M 2.5 24.8 C 2.5 24.8 2 28.4 2 28.4 C 2.2 28.5 2.5 28.6 2.9 28.6 C 4.4 28.6 5.2 26.5 5.2 24.6 C 5.2 23.8 4.9 23.4 4.3 23.4 C 3.7 23.4 3.1 23.9 2.5 24.8 Z M 10.8 22.5 C 12.5 22.5 13.1 23.6 13.1 24.9 C 13.1 27 12 29.3 9.8 29.3 C 8.1 29.3 7.5 28.2 7.5 26.9 C 7.5 24.8 8.6 22.5 10.8 22.5 Z M 9.9 28.8 C 11.2 28.8 11.9 26.6 11.9 24.8 C 11.9 23.8 11.6 23 10.8 23 C 9.4 23 8.7 25.2 8.7 27 C 8.7 28 9 28.8 9.9 28.8 Z M 17.5 22.5 C 18 22.5 18.4 22.7 18.7 23.1 C 18.9 22.8 19.2 22.6 19.5 22.5 C 19.49 22.48 19.9 22.6 19.9 22.6 C 19.9 22.6 19.07 27.63 19.1 27.6 C 19 27.8 19 28 19 28.1 C 19 28.4 19.2 28.5 19.6 28.5 C 19.6 28.47 20.2 28.5 20.2 28.5 C 20.2 28.5 20.08 28.92 20.1 28.9 C 19.8 29.1 19.3 29.3 18.8 29.3 C 18.1 29.3 17.9 28.9 17.9 28.3 C 17.9 28.2 17.9 27.9 18 27.8 C 18 27.8 18 27.5 18 27.5 C 17.4 28.7 16.7 29.3 15.7 29.3 C 14.8 29.3 14.2 28.5 14.2 27.2 C 14.2 24.9 15.3 22.5 17.5 22.5 Z M 18.1 26.9 C 18.1 26.9 18.6 23.4 18.6 23.4 C 18.4 23.3 18.1 23.2 17.8 23.2 C 16.2 23.2 15.4 25.2 15.4 27.1 C 15.4 28 15.7 28.4 16.3 28.4 C 16.9 28.4 17.5 27.8 18.1 26.9 Z M 22.3 22.5 C 22.3 22.5 22.6 21.4 22.6 21.4 C 22.8 21.3 23.2 21.2 23.6 21.2 C 23.6 21.25 23.4 22.6 23.4 22.6 L 25.1 22.6 L 25 23.3 L 23.3 23.3 C 23.3 23.3 22.68 27.07 22.7 27.1 C 22.6 27.3 22.6 27.6 22.6 27.8 C 22.6 28.2 22.7 28.4 23.1 28.4 C 23.6 28.4 24.2 27.7 24.5 27 C 24.5 27 24.9 27.1 24.9 27.1 C 24.4 28.5 23.7 29.3 22.7 29.3 C 21.8 29.3 21.5 28.9 21.5 28 C 21.5 27.9 21.5 27.7 21.5 27.5 C 21.5 27.46 22.1 23.3 22.1 23.3 L 21.1 23.3 C 21.1 23.3 21.14 22.87 21.1 22.9 C 21.4 22.8 21.7 22.6 22.3 22.5 Z M 26 27.2 C 26 27.18 26.7 27.2 26.7 27.2 C 26.7 27.2 26.77 28.61 26.8 28.6 C 27 28.7 27.3 28.7 27.5 28.7 C 28.3 28.7 29 28.3 29 27.6 C 29 26.9 28.4 26.7 27.7 26.3 C 27.7 26.3 27.2 26 27.2 26 C 26.7 25.7 26.3 25.2 26.3 24.5 C 26.3 23.3 27.1 22.5 28.6 22.5 C 29.3 22.5 30.1 22.6 30.4 22.9 C 30.4 23.5 30.3 24 30 24.6 C 30.03 24.55 29.3 24.6 29.3 24.6 C 29.3 24.6 29.25 23.11 29.2 23.1 C 29 23.1 28.7 23 28.5 23 C 27.8 23 27.3 23.4 27.3 24.2 C 27.3 24.6 27.6 25 28.1 25.2 C 28.1 25.2 28.6 25.5 28.6 25.5 C 29.3 25.9 30 26.2 30 27.2 C 30 28.5 29.1 29.3 27.5 29.3 C 26.9 29.3 25.9 29.1 25.6 28.9 C 25.6 28.2 25.8 27.7 26 27.2 Z M 31.4 28.5 C 31.4 27.9 31.8 27.5 32.3 27.5 C 32.8 27.5 33.1 27.7 33.1 28.2 C 33.1 28.9 32.7 29.3 32.2 29.3 C 31.7 29.3 31.4 29 31.4 28.5 Z M 38.2 20.2 C 38.2 20.2 45.6 20.2 45.6 20.2 C 45.6 20.9 45.5 21.7 45.2 22.5 C 45.25 22.53 44.6 22.5 44.6 22.5 L 44.5 20.9 L 42.4 20.9 C 42.4 20.9 41.27 28.42 41.3 28.4 C 41.7 28.4 42.3 28.5 42.6 28.6 C 42.62 28.64 42.5 29.1 42.5 29.1 L 38.7 29.1 C 38.7 29.1 38.78 28.64 38.8 28.6 C 39.1 28.5 39.6 28.4 40 28.4 C 40.04 28.42 41.2 20.9 41.2 20.9 L 39.2 20.9 L 38.6 22.5 C 38.6 22.5 37.97 22.53 38 22.5 C 38 21.7 38.1 20.8 38.2 20.2 Z M 49.6 28.4 C 49.6 28.2 49.6 27.9 49.7 27.8 C 49.7 27.8 50.3 24.4 50.3 24.4 C 50.3 24.3 50.3 24.1 50.3 24 C 50.3 23.6 50.2 23.4 49.7 23.4 C 49.2 23.4 48.6 23.8 47.8 24.9 C 47.77 24.91 47.1 29.1 47.1 29.1 L 46 29.1 L 47.4 20.3 L 46.3 20.1 C 46.3 20.1 46.3 19.68 46.3 19.7 C 46.9 19.5 47.7 19.3 48.7 19.3 C 48.7 19.3 47.9 24.2 47.9 24.2 C 48.6 23.1 49.3 22.5 50.2 22.5 C 51.1 22.5 51.5 23 51.5 23.6 C 51.5 23.8 51.5 24 51.5 24.1 C 51.5 24.1 50.8 27.6 50.8 27.6 C 50.8 27.8 50.7 28 50.7 28.1 C 50.7 28.4 50.9 28.5 51.4 28.5 C 51.35 28.47 51.9 28.5 51.9 28.5 C 51.9 28.5 51.83 28.92 51.8 28.9 C 51.5 29.1 51.1 29.3 50.5 29.3 C 49.9 29.3 49.6 28.9 49.6 28.4 C 49.6 28.4 49.6 28.4 49.6 28.4 Z M 56.3 22.5 C 57.5 22.5 58 23.1 58 23.9 C 58 25.2 57 25.9 54.8 25.9 C 54.8 25.9 54.2 25.9 54.2 25.9 C 54.1 26.3 54.1 26.7 54.1 27 C 54.1 28 54.6 28.4 55.2 28.4 C 56 28.4 56.6 28 57.2 27 C 57.2 27 57.6 27.1 57.6 27.1 C 57 28.6 56.1 29.3 54.9 29.3 C 53.5 29.3 52.9 28.5 52.9 27 C 52.9 24.9 53.9 22.5 56.3 22.5 Z M 54.3 25.4 C 54.3 25.4 54.7 25.4 54.7 25.4 C 56.2 25.4 56.8 24.9 56.8 23.9 C 56.8 23.4 56.6 23 56.1 23 C 55.2 23 54.5 24.2 54.3 25.4 Z M 58.9 27.2 C 58.93 27.18 59.7 27.2 59.7 27.2 C 59.7 27.2 59.7 28.61 59.7 28.6 C 60 28.7 60.2 28.7 60.5 28.7 C 61.2 28.7 61.9 28.3 61.9 27.6 C 61.9 26.9 61.4 26.7 60.7 26.3 C 60.7 26.3 60.2 26 60.2 26 C 59.6 25.7 59.2 25.2 59.2 24.5 C 59.2 23.3 60 22.5 61.5 22.5 C 62.2 22.5 63 22.6 63.3 22.9 C 63.3 23.5 63.2 24 63 24.6 C 62.96 24.55 62.2 24.6 62.2 24.6 C 62.2 24.6 62.17 23.11 62.2 23.1 C 61.9 23.1 61.7 23 61.5 23 C 60.7 23 60.2 23.4 60.2 24.2 C 60.2 24.6 60.6 25 61 25.2 C 61 25.2 61.5 25.5 61.5 25.5 C 62.3 25.9 63 26.2 63 27.2 C 63 28.5 62 29.3 60.4 29.3 C 59.8 29.3 58.9 29.1 58.5 28.9 C 58.5 28.2 58.7 27.7 58.9 27.2 Z M 67.5 22.5 C 68.7 22.5 69.2 23.1 69.2 23.9 C 69.2 25.2 68.2 25.9 66 25.9 C 66 25.9 65.4 25.9 65.4 25.9 C 65.3 26.3 65.3 26.7 65.3 27 C 65.3 28 65.8 28.4 66.4 28.4 C 67.2 28.4 67.8 28 68.4 27 C 68.4 27 68.8 27.1 68.8 27.1 C 68.2 28.6 67.3 29.3 66.1 29.3 C 64.7 29.3 64.1 28.5 64.1 27 C 64.1 24.9 65.1 22.5 67.5 22.5 Z M 65.5 25.4 C 65.5 25.4 65.9 25.4 65.9 25.4 C 67.4 25.4 68 24.9 68 23.9 C 68 23.4 67.8 23 67.3 23 C 66.4 23 65.7 24.2 65.5 25.4 Z M 79.1 19.3 C 79.1 19.3 77.8 27.6 77.8 27.6 C 77.7 27.8 77.7 28 77.7 28.1 C 77.7 28.4 77.8 28.5 78.3 28.5 C 78.29 28.47 78.8 28.5 78.8 28.5 C 78.8 28.5 78.76 28.92 78.8 28.9 C 78.5 29.1 78 29.3 77.4 29.3 C 76.8 29.3 76.6 28.9 76.6 28.3 C 76.6 28.2 76.6 27.9 76.7 27.8 C 76.7 27.8 76.7 27.5 76.7 27.5 C 76.1 28.7 75.4 29.3 74.4 29.3 C 73.5 29.3 72.9 28.5 72.9 27.2 C 72.9 24.9 74 22.5 76.2 22.5 C 76.7 22.5 77.1 22.7 77.4 23 C 77.39 23.01 77.8 20.3 77.8 20.3 L 76.7 20.1 C 76.7 20.1 76.71 19.68 76.7 19.7 C 77.3 19.5 78.1 19.3 79.1 19.3 Z M 76.8 26.9 C 76.8 26.9 77.3 23.4 77.3 23.4 C 77.1 23.3 76.8 23.2 76.4 23.2 C 74.9 23.2 74.1 25.2 74.1 27.1 C 74.1 28 74.4 28.4 75 28.4 C 75.6 28.4 76.2 27.8 76.8 26.9 Z M 83.1 22.5 C 84.8 22.5 85.4 23.6 85.4 24.9 C 85.4 27 84.3 29.3 82.1 29.3 C 80.4 29.3 79.8 28.2 79.8 26.9 C 79.8 24.8 80.9 22.5 83.1 22.5 Z M 82.2 28.8 C 83.5 28.8 84.2 26.6 84.2 24.8 C 84.2 23.8 83.9 23 83 23 C 81.7 23 81 25.2 81 27 C 81 28 81.3 28.8 82.2 28.8 Z M 89 19.3 C 89 19.3 87.7 27.6 87.7 27.6 C 87.6 27.8 87.6 28 87.6 28.1 C 87.6 28.4 87.7 28.5 88.2 28.5 C 88.2 28.47 88.8 28.5 88.8 28.5 C 88.8 28.5 88.67 28.92 88.7 28.9 C 88.4 29.1 87.9 29.3 87.4 29.3 C 86.7 29.3 86.5 28.9 86.5 28.3 C 86.5 28.2 86.5 27.9 86.5 27.8 C 86.52 27.8 87.7 20.3 87.7 20.3 L 86.6 20.1 C 86.6 20.1 86.62 19.68 86.6 19.7 C 87.2 19.5 88 19.3 89 19.3 Z M 92.1 22.5 C 92.1 22.5 91.9 24.1 91.9 24.1 C 92.4 23 93.1 22.5 94.1 22.5 C 95 22.5 95.6 23.3 95.6 24.6 C 95.6 26.8 94.5 29.3 92.3 29.3 C 91.8 29.3 91.4 29.1 91.1 28.7 C 91.1 28.7 90.7 31.1 90.7 31.1 C 91.2 31.1 91.7 31.2 92 31.3 C 92.01 31.33 91.9 31.8 91.9 31.8 L 88.6 31.8 C 88.6 31.8 88.68 31.33 88.7 31.3 C 89 31.2 89.2 31.1 89.6 31.1 C 89.6 31.1 90.9 23.4 90.9 23.4 L 89.8 23.3 C 89.8 23.3 89.87 22.82 89.9 22.8 C 90.4 22.6 91.2 22.5 92.1 22.5 Z M 91.7 24.9 C 91.7 24.9 91.2 28.4 91.2 28.4 C 91.4 28.5 91.7 28.6 92.1 28.6 C 93.6 28.6 94.4 26.5 94.4 24.6 C 94.4 23.8 94.1 23.4 93.5 23.4 C 92.9 23.4 92.3 24 91.7 24.9 Z M 100.2 28.4 C 100.2 28.2 100.3 27.9 100.3 27.8 C 100.3 27.8 100.9 24.4 100.9 24.4 C 100.9 24.3 101 24.1 101 24 C 101 23.6 100.8 23.4 100.4 23.4 C 99.9 23.4 99.3 23.8 98.4 24.9 C 98.39 24.91 97.7 29.1 97.7 29.1 L 96.6 29.1 L 98 20.3 L 96.9 20.1 C 96.9 20.1 96.92 19.68 96.9 19.7 C 97.5 19.5 98.3 19.3 99.3 19.3 C 99.3 19.3 98.5 24.2 98.5 24.2 C 99.2 23.1 99.9 22.5 100.9 22.5 C 101.7 22.5 102.1 23 102.1 23.6 C 102.1 23.8 102.1 24 102.1 24.1 C 102.1 24.1 101.4 27.6 101.4 27.6 C 101.4 27.8 101.4 28 101.4 28.1 C 101.4 28.4 101.5 28.5 102 28.5 C 101.97 28.47 102.5 28.5 102.5 28.5 C 102.5 28.5 102.45 28.92 102.4 28.9 C 102.1 29.1 101.7 29.3 101.1 29.3 C 100.5 29.3 100.2 28.9 100.2 28.4 C 100.2 28.4 100.2 28.4 100.2 28.4 Z M 105.3 19.6 C 105.4 19.6 105.7 19.6 105.9 19.6 C 106.1 19.6 106.4 19.6 106.5 19.6 C 106.5 20.1 106.3 20.7 106.1 21.1 C 106 21.2 105.8 21.2 105.6 21.2 C 105.4 21.2 105.2 21.2 105.1 21.1 C 105.1 20.7 105.1 20 105.3 19.6 Z M 105.9 22.5 C 105.9 22.5 105.1 27.6 105.1 27.6 C 105.1 27.8 105.1 28 105.1 28.1 C 105.1 28.4 105.2 28.5 105.7 28.5 C 105.67 28.47 106.2 28.5 106.2 28.5 C 106.2 28.5 106.15 28.92 106.1 28.9 C 105.8 29.1 105.4 29.3 104.8 29.3 C 104.2 29.3 103.9 28.9 103.9 28.3 C 103.9 28.2 104 27.9 104 27.8 C 103.99 27.8 104.7 23.4 104.7 23.4 L 103.7 23.3 C 103.7 23.3 103.7 22.82 103.7 22.8 C 104.3 22.6 105 22.5 105.9 22.5 Z M 109.6 22.5 C 109.6 22.5 109.3 24.2 109.3 24.2 C 110 23.1 110.7 22.5 111.7 22.5 C 112.5 22.5 112.9 23 112.9 23.6 C 112.9 23.8 112.9 24 112.9 24.1 C 112.9 24.1 112.2 27.6 112.2 27.6 C 112.2 27.8 112.2 28 112.2 28.1 C 112.2 28.4 112.3 28.5 112.8 28.5 C 112.78 28.47 113.3 28.5 113.3 28.5 C 113.3 28.5 113.26 28.92 113.3 28.9 C 112.9 29.1 112.5 29.3 111.9 29.3 C 111.3 29.3 111 28.9 111 28.4 C 111 28.2 111.1 27.9 111.1 27.8 C 111.1 27.8 111.7 24.4 111.7 24.4 C 111.7 24.3 111.8 24.1 111.8 24 C 111.8 23.6 111.6 23.4 111.2 23.4 C 110.7 23.4 110.1 23.8 109.2 24.9 C 109.2 24.93 108.5 29.1 108.5 29.1 L 107.4 29.1 L 108.3 23.4 L 107.3 23.3 C 107.3 23.3 107.34 22.82 107.3 22.8 C 107.9 22.6 108.6 22.5 109.6 22.5 Z M 122.1 22.5 C 122.1 22.5 123 27.9 123 27.9 C 124.1 26.1 124.7 24.8 124.8 23.4 C 124.75 23.4 123.8 23.3 123.8 23.3 C 123.8 23.3 123.86 22.82 123.9 22.8 C 124.3 22.6 124.8 22.5 125.2 22.5 C 125.7 22.5 125.8 22.9 125.8 23.3 C 125.8 24.1 125.5 25.5 122.7 29.1 C 122.7 29.14 122.1 29.1 122.1 29.1 C 122.1 29.1 121.59 26.08 121.6 26.1 C 121.1 26.9 120.4 27.8 119.4 29.1 C 119.39 29.14 118.8 29.1 118.8 29.1 L 117.8 23.4 L 116.9 23.3 C 116.9 23.3 116.91 22.82 116.9 22.8 C 117.4 22.6 118 22.5 118.7 22.5 C 118.7 22.5 119.7 28 119.7 28 C 120.5 26.7 121.1 25.7 121.4 24.8 C 121.38 24.79 121.2 23.4 121.2 23.4 L 120.3 23.3 C 120.3 23.3 120.33 22.82 120.3 22.8 C 120.8 22.6 121.5 22.5 122.1 22.5 Z M 129.7 22.5 C 130.9 22.5 131.4 23.1 131.4 23.9 C 131.4 25.2 130.4 25.9 128.2 25.9 C 128.2 25.9 127.6 25.9 127.6 25.9 C 127.5 26.3 127.5 26.7 127.5 27 C 127.5 28 128 28.4 128.6 28.4 C 129.4 28.4 130 28 130.6 27 C 130.6 27 131 27.1 131 27.1 C 130.4 28.6 129.5 29.3 128.3 29.3 C 127 29.3 126.3 28.5 126.3 27 C 126.3 24.9 127.3 22.5 129.7 22.5 Z M 127.7 25.4 C 127.7 25.4 128.1 25.4 128.1 25.4 C 129.6 25.4 130.3 24.9 130.3 23.9 C 130.3 23.4 130 23 129.5 23 C 128.6 23 128 24.2 127.7 25.4 Z M 134.6 22.5 C 134.6 22.5 134.3 24.3 134.3 24.3 C 134.9 23.1 135.6 22.5 136.3 22.5 C 136.7 22.5 136.9 22.6 137 22.8 C 137 23.4 136.9 24 136.6 24.6 C 136.64 24.55 135.9 24.6 135.9 24.6 L 135.9 23.4 C 135.9 23.4 135.86 23.37 135.9 23.4 C 135.4 23.4 134.9 24 134.2 25.2 C 134.19 25.21 133.6 29.1 133.6 29.1 L 132.4 29.1 L 133.4 23.4 L 132.3 23.3 C 132.3 23.3 132.37 22.82 132.4 22.8 C 132.9 22.6 133.7 22.5 134.6 22.5 Z M 140.6 22.5 C 141.8 22.5 142.3 23.1 142.3 23.9 C 142.3 25.2 141.3 25.9 139.1 25.9 C 139.1 25.9 138.5 25.9 138.5 25.9 C 138.5 26.3 138.4 26.7 138.4 27 C 138.4 28 138.9 28.4 139.6 28.4 C 140.3 28.4 140.9 28 141.5 27 C 141.5 27 141.9 27.1 141.9 27.1 C 141.3 28.6 140.4 29.3 139.2 29.3 C 137.9 29.3 137.3 28.5 137.3 27 C 137.3 24.9 138.2 22.5 140.6 22.5 Z M 138.6 25.4 C 138.6 25.4 139 25.4 139 25.4 C 140.5 25.4 141.2 24.9 141.2 23.9 C 141.2 23.4 141 23 140.4 23 C 139.5 23 138.9 24.2 138.6 25.4 Z M 149.3 22.5 C 151 22.5 151.6 23.6 151.6 24.9 C 151.6 27 150.5 29.3 148.3 29.3 C 146.6 29.3 146 28.2 146 26.9 C 146 24.8 147.1 22.5 149.3 22.5 Z M 148.3 28.8 C 149.7 28.8 150.4 26.6 150.4 24.8 C 150.4 23.8 150.1 23 149.2 23 C 147.9 23 147.2 25.2 147.2 27 C 147.2 28 147.5 28.8 148.3 28.8 Z M 155.2 19.3 C 155.2 19.3 154.4 24.1 154.4 24.1 C 155 23 155.7 22.5 156.6 22.5 C 157.6 22.5 158.1 23.3 158.1 24.6 C 158.1 26.8 157.1 29.3 154.9 29.3 C 154.3 29.3 153.9 29 153.6 28.7 C 153.4 28.9 153.1 29.2 152.8 29.3 C 152.82 29.25 152.5 29.1 152.5 29.1 L 153.9 20.3 L 152.8 20.1 C 152.8 20.1 152.81 19.68 152.8 19.7 C 153.4 19.5 154.2 19.3 155.2 19.3 Z M 154.3 24.8 C 154.3 24.8 153.7 28.4 153.7 28.4 C 154 28.5 154.3 28.6 154.6 28.6 C 156.1 28.6 157 26.5 157 24.6 C 157 23.8 156.7 23.4 156.1 23.4 C 155.4 23.4 154.9 23.9 154.3 24.8 Z M 159.3 27.2 C 159.33 27.18 160.1 27.2 160.1 27.2 C 160.1 27.2 160.1 28.61 160.1 28.6 C 160.4 28.7 160.6 28.7 160.9 28.7 C 161.7 28.7 162.3 28.3 162.3 27.6 C 162.3 26.9 161.8 26.7 161.1 26.3 C 161.1 26.3 160.6 26 160.6 26 C 160 25.7 159.6 25.2 159.6 24.5 C 159.6 23.3 160.5 22.5 161.9 22.5 C 162.6 22.5 163.4 22.6 163.8 22.9 C 163.8 23.5 163.6 24 163.4 24.6 C 163.36 24.55 162.6 24.6 162.6 24.6 C 162.6 24.6 162.58 23.11 162.6 23.1 C 162.3 23.1 162.1 23 161.9 23 C 161.1 23 160.6 23.4 160.6 24.2 C 160.6 24.6 161 25 161.4 25.2 C 161.4 25.2 161.9 25.5 161.9 25.5 C 162.7 25.9 163.4 26.2 163.4 27.2 C 163.4 28.5 162.4 29.3 160.8 29.3 C 160.2 29.3 159.3 29.1 158.9 28.9 C 158.9 28.2 159.1 27.7 159.3 27.2 Z M 167.9 22.5 C 169.1 22.5 169.6 23.1 169.6 23.9 C 169.6 25.2 168.6 25.9 166.4 25.9 C 166.4 25.9 165.8 25.9 165.8 25.9 C 165.7 26.3 165.7 26.7 165.7 27 C 165.7 28 166.2 28.4 166.8 28.4 C 167.6 28.4 168.2 28 168.8 27 C 168.8 27 169.2 27.1 169.2 27.1 C 168.6 28.6 167.7 29.3 166.5 29.3 C 165.1 29.3 164.5 28.5 164.5 27 C 164.5 24.9 165.5 22.5 167.9 22.5 Z M 165.9 25.4 C 165.9 25.4 166.3 25.4 166.3 25.4 C 167.8 25.4 168.4 24.9 168.4 23.9 C 168.4 23.4 168.2 23 167.7 23 C 166.8 23 166.1 24.2 165.9 25.4 Z M 172.8 22.5 C 172.8 22.5 172.5 24.3 172.5 24.3 C 173.1 23.1 173.8 22.5 174.5 22.5 C 174.9 22.5 175.1 22.6 175.2 22.8 C 175.2 23.4 175.1 24 174.8 24.6 C 174.83 24.55 174.1 24.6 174.1 24.6 L 174.1 23.4 C 174.1 23.4 174.05 23.37 174 23.4 C 173.6 23.4 173.1 24 172.4 25.2 C 172.38 25.21 171.8 29.1 171.8 29.1 L 170.6 29.1 L 171.6 23.4 L 170.5 23.3 C 170.5 23.3 170.56 22.82 170.6 22.8 C 171.1 22.6 171.9 22.5 172.8 22.5 Z M 175.9 23.3 C 175.9 23.3 175.94 22.82 175.9 22.8 C 176.4 22.6 177.1 22.5 177.7 22.5 C 177.74 22.48 178.7 28 178.7 28 C 178.7 28 179.09 27.35 179.1 27.4 C 180.2 25.8 180.6 24.6 180.6 23.4 C 180.6 23.4 179.6 23.3 179.6 23.3 C 179.6 23.3 179.69 22.82 179.7 22.8 C 180.1 22.6 180.6 22.5 181 22.5 C 181.5 22.5 181.7 22.9 181.7 23.3 C 181.7 24.1 181.4 25.2 179.3 28 C 179.25 28.02 178.4 29.1 178.4 29.1 L 177.8 29.1 L 176.8 23.4 L 175.9 23.3 Z M 185.5 22.5 C 186.7 22.5 187.3 23.1 187.3 23.9 C 187.3 25.2 186.3 25.9 184 25.9 C 184 25.9 183.4 25.9 183.4 25.9 C 183.4 26.3 183.3 26.7 183.3 27 C 183.3 28 183.8 28.4 184.5 28.4 C 185.2 28.4 185.8 28 186.5 27 C 186.5 27 186.8 27.1 186.8 27.1 C 186.2 28.6 185.3 29.3 184.1 29.3 C 182.8 29.3 182.2 28.5 182.2 27 C 182.2 24.9 183.1 22.5 185.5 22.5 Z M 183.5 25.4 C 183.5 25.4 184 25.4 184 25.4 C 185.4 25.4 186.1 24.9 186.1 23.9 C 186.1 23.4 185.9 23 185.4 23 C 184.4 23 183.8 24.2 183.5 25.4 Z M 194.1 19.3 C 194.1 19.3 192.8 27.6 192.8 27.6 C 192.8 27.8 192.8 28 192.8 28.1 C 192.8 28.4 192.9 28.5 193.4 28.5 C 193.37 28.47 193.9 28.5 193.9 28.5 C 193.9 28.5 193.84 28.92 193.8 28.9 C 193.5 29.1 193.1 29.3 192.5 29.3 C 191.9 29.3 191.7 28.9 191.7 28.3 C 191.7 28.2 191.7 27.9 191.7 27.8 C 191.7 27.8 191.8 27.5 191.8 27.5 C 191.2 28.7 190.5 29.3 189.5 29.3 C 188.6 29.3 188 28.5 188 27.2 C 188 24.9 189.1 22.5 191.2 22.5 C 191.8 22.5 192.2 22.7 192.5 23 C 192.47 23.01 192.9 20.3 192.9 20.3 L 191.7 20.1 C 191.7 20.1 191.78 19.68 191.8 19.7 C 192.4 19.5 193.2 19.3 194.1 19.3 Z M 191.8 26.9 C 191.8 26.9 192.4 23.4 192.4 23.4 C 192.2 23.3 191.9 23.2 191.5 23.2 C 190 23.2 189.2 25.2 189.2 27.1 C 189.2 28 189.4 28.4 190.1 28.4 C 190.7 28.4 191.3 27.8 191.8 26.9 Z M 197.9 22.9 C 198.2 22.8 198.5 22.6 199.1 22.5 C 199.1 22.5 199.1 22.1 199.1 22.1 C 199.4 20.2 200.3 19.3 202 19.3 C 202.6 19.3 203.3 19.4 203.6 19.5 C 203.6 20.1 203.4 20.5 203.2 21 C 203.22 21.02 202.4 21 202.4 21 C 202.4 21 202.38 19.92 202.4 19.9 C 202.3 19.9 202.2 19.9 202 19.9 C 201.1 19.9 200.5 20.3 200.3 21.8 C 200.31 21.75 200.2 22.6 200.2 22.6 L 201.6 22.6 L 201.5 23.3 L 200.1 23.3 C 200.1 23.3 199.19 29.03 199.2 29 C 198.9 30.8 197.7 31.9 196.7 31.9 C 196.2 31.9 195.9 31.7 195.6 31.4 C 195.6 31.4 195.7 30.9 195.7 30.9 C 195.9 30.9 196.3 31 196.6 31 C 197.7 31 197.8 31 198.1 29.1 C 198.07 29.14 198.9 23.3 198.9 23.3 L 197.8 23.3 L 197.9 22.9 C 197.9 22.9 197.93 22.87 197.9 22.9 Z M 204.5 22.5 C 204.5 22.5 204.2 24.3 204.2 24.3 C 204.7 23.1 205.4 22.5 206.1 22.5 C 206.5 22.5 206.7 22.6 206.9 22.8 C 206.9 23.4 206.7 24 206.5 24.6 C 206.47 24.55 205.7 24.6 205.7 24.6 L 205.7 23.4 C 205.7 23.4 205.69 23.37 205.7 23.4 C 205.3 23.4 204.7 24 204 25.2 C 204.02 25.21 203.4 29.1 203.4 29.1 L 202.3 29.1 L 203.2 23.4 L 202.2 23.3 C 202.2 23.3 202.2 22.82 202.2 22.8 C 202.8 22.6 203.5 22.5 204.5 22.5 Z M 210.4 22.5 C 212.1 22.5 212.7 23.6 212.7 24.9 C 212.7 27 211.6 29.3 209.4 29.3 C 207.6 29.3 207.1 28.2 207.1 26.9 C 207.1 24.8 208.1 22.5 210.4 22.5 Z M 209.4 28.8 C 210.8 28.8 211.5 26.6 211.5 24.8 C 211.5 23.8 211.2 23 210.3 23 C 209 23 208.3 25.2 208.3 27 C 208.3 28 208.6 28.8 209.4 28.8 Z M 216.1 22.5 C 216.1 22.5 215.8 24.2 215.8 24.2 C 216.5 23.1 217.3 22.5 218.2 22.5 C 219 22.5 219.4 22.9 219.4 23.6 C 219.4 23.8 219.4 24 219.4 24.1 C 219.4 24.1 219.4 24.2 219.4 24.2 C 220.1 23 220.8 22.5 221.7 22.5 C 222.5 22.5 223 23 223 23.6 C 223 23.8 222.9 24 222.9 24.1 C 222.9 24.1 222.3 27.6 222.3 27.6 C 222.2 27.8 222.2 28 222.2 28.1 C 222.2 28.4 222.4 28.5 222.8 28.5 C 222.82 28.47 223.4 28.5 223.4 28.5 C 223.4 28.5 223.3 28.92 223.3 28.9 C 223 29.1 222.5 29.3 222 29.3 C 221.4 29.3 221.1 28.9 221.1 28.4 C 221.1 28.2 221.1 27.9 221.1 27.8 C 221.1 27.8 221.8 24.4 221.8 24.4 C 221.8 24.3 221.8 24.1 221.8 24 C 221.8 23.6 221.6 23.4 221.2 23.4 C 220.7 23.4 220.1 23.7 219.3 24.9 C 219.27 24.89 218.5 29.1 218.5 29.1 L 217.4 29.1 C 217.4 29.1 218.23 24.44 218.2 24.4 C 218.3 24.3 218.3 24.1 218.3 24 C 218.3 23.6 218.1 23.4 217.7 23.4 C 217.2 23.4 216.6 23.8 215.7 24.9 C 215.71 24.93 215 29.1 215 29.1 L 213.9 29.1 L 214.9 23.4 L 213.8 23.3 C 213.8 23.3 213.85 22.82 213.8 22.8 C 214.4 22.6 215.2 22.5 216.1 22.5 Z M 228.5 22.5 C 228.5 22.5 228.8 21.4 228.8 21.4 C 229 21.3 229.4 21.2 229.8 21.2 C 229.79 21.25 229.6 22.6 229.6 22.6 L 231.3 22.6 L 231.2 23.3 L 229.5 23.3 C 229.5 23.3 228.87 27.07 228.9 27.1 C 228.8 27.3 228.8 27.6 228.8 27.8 C 228.8 28.2 228.9 28.4 229.3 28.4 C 229.8 28.4 230.4 27.7 230.7 27 C 230.7 27 231.1 27.1 231.1 27.1 C 230.6 28.5 229.9 29.3 228.9 29.3 C 228 29.3 227.7 28.9 227.7 28 C 227.7 27.9 227.7 27.7 227.7 27.5 C 227.69 27.46 228.3 23.3 228.3 23.3 L 227.2 23.3 C 227.2 23.3 227.33 22.87 227.3 22.9 C 227.6 22.8 227.9 22.6 228.5 22.5 Z M 235.5 28.4 C 235.5 28.2 235.5 27.9 235.5 27.8 C 235.5 27.8 236.2 24.4 236.2 24.4 C 236.2 24.3 236.2 24.1 236.2 24 C 236.2 23.6 236 23.4 235.6 23.4 C 235.1 23.4 234.5 23.8 233.6 24.9 C 233.63 24.91 233 29.1 233 29.1 L 231.8 29.1 L 233.3 20.3 L 232.1 20.1 C 232.1 20.1 232.16 19.68 232.2 19.7 C 232.7 19.5 233.6 19.3 234.5 19.3 C 234.5 19.3 233.7 24.2 233.7 24.2 C 234.5 23.1 235.2 22.5 236.1 22.5 C 236.9 22.5 237.4 23 237.4 23.6 C 237.4 23.8 237.3 24 237.3 24.1 C 237.3 24.1 236.7 27.6 236.7 27.6 C 236.6 27.8 236.6 28 236.6 28.1 C 236.6 28.4 236.8 28.5 237.2 28.5 C 237.21 28.47 237.8 28.5 237.8 28.5 C 237.8 28.5 237.69 28.92 237.7 28.9 C 237.4 29.1 236.9 29.3 236.4 29.3 C 235.8 29.3 235.5 28.9 235.5 28.4 C 235.5 28.4 235.5 28.4 235.5 28.4 Z M 242.1 22.5 C 243.3 22.5 243.9 23.1 243.9 23.9 C 243.9 25.2 242.9 25.9 240.6 25.9 C 240.6 25.9 240 25.9 240 25.9 C 240 26.3 240 26.7 240 27 C 240 28 240.5 28.4 241.1 28.4 C 241.9 28.4 242.5 28 243.1 27 C 243.1 27 243.4 27.1 243.4 27.1 C 242.8 28.6 241.9 29.3 240.7 29.3 C 239.4 29.3 238.8 28.5 238.8 27 C 238.8 24.9 239.7 22.5 242.1 22.5 Z M 240.1 25.4 C 240.1 25.4 240.6 25.4 240.6 25.4 C 242 25.4 242.7 24.9 242.7 23.9 C 242.7 23.4 242.5 23 242 23 C 241 23 240.4 24.2 240.1 25.4 Z M 253.7 19.3 C 253.7 19.3 252.4 27.6 252.4 27.6 C 252.4 27.8 252.4 28 252.4 28.1 C 252.4 28.4 252.5 28.5 252.9 28.5 C 252.95 28.47 253.5 28.5 253.5 28.5 C 253.5 28.5 253.42 28.92 253.4 28.9 C 253.1 29.1 252.7 29.3 252.1 29.3 C 251.5 29.3 251.3 28.9 251.3 28.3 C 251.3 28.2 251.3 27.9 251.3 27.8 C 251.3 27.8 251.4 27.5 251.4 27.5 C 250.8 28.7 250.1 29.3 249.1 29.3 C 248.1 29.3 247.6 28.5 247.6 27.2 C 247.6 24.9 248.7 22.5 250.8 22.5 C 251.3 22.5 251.8 22.7 252.1 23 C 252.05 23.01 252.5 20.3 252.5 20.3 L 251.3 20.1 C 251.3 20.1 251.37 19.68 251.4 19.7 C 251.9 19.5 252.8 19.3 253.7 19.3 Z M 251.4 26.9 C 251.4 26.9 252 23.4 252 23.4 C 251.7 23.3 251.5 23.2 251.1 23.2 C 249.6 23.2 248.7 25.2 248.7 27.1 C 248.7 28 249 28.4 249.6 28.4 C 250.3 28.4 250.9 27.8 251.4 26.9 Z M 257.8 22.5 C 259 22.5 259.6 23.1 259.6 23.9 C 259.6 25.2 258.6 25.9 256.3 25.9 C 256.3 25.9 255.7 25.9 255.7 25.9 C 255.7 26.3 255.6 26.7 255.6 27 C 255.6 28 256.1 28.4 256.8 28.4 C 257.5 28.4 258.1 28 258.7 27 C 258.7 27 259.1 27.1 259.1 27.1 C 258.5 28.6 257.6 29.3 256.4 29.3 C 255.1 29.3 254.5 28.5 254.5 27 C 254.5 24.9 255.4 22.5 257.8 22.5 Z M 255.8 25.4 C 255.8 25.4 256.3 25.4 256.3 25.4 C 257.7 25.4 258.4 24.9 258.4 23.9 C 258.4 23.4 258.2 23 257.7 23 C 256.7 23 256.1 24.2 255.8 25.4 Z M 263.7 22.5 C 264.3 22.5 264.9 22.6 265.2 22.9 C 265.2 23.5 265 24 264.8 24.6 C 264.77 24.55 264 24.6 264 24.6 C 264 24.6 263.98 23.07 264 23.1 C 263.9 23.1 263.8 23 263.6 23 C 262.1 23 261.4 25.3 261.4 27 C 261.4 28 261.9 28.4 262.5 28.4 C 263.3 28.4 263.9 28 264.5 27 C 264.5 27 264.9 27.1 264.9 27.1 C 264.3 28.6 263.4 29.3 262.2 29.3 C 260.8 29.3 260.2 28.5 260.2 27 C 260.2 24.9 261.2 22.5 263.7 22.5 Z M 268.5 19.3 C 268.52 19.34 267 29.1 267 29.1 L 265.8 29.1 L 267.3 20.3 L 266.1 20.1 C 266.1 20.1 266.15 19.68 266.2 19.7 C 266.7 19.5 267.6 19.3 268.5 19.3 Z M 271.9 22.6 C 271.93 22.59 271.9 23.2 271.9 23.2 L 271.1 23.4 L 268.8 25.4 C 268.8 25.4 269.86 27.8 269.9 27.8 C 270.1 28.4 270.3 28.5 270.8 28.5 C 270.76 28.47 271.3 28.5 271.3 28.5 C 271.3 28.5 271.2 28.92 271.2 28.9 C 270.9 29.1 270.5 29.3 270.1 29.3 C 269.5 29.3 269.2 29 268.9 28.3 C 268.91 28.3 267.7 25.6 267.7 25.6 L 270.1 23.5 L 269 23.3 C 269 23.3 269.06 22.87 269.1 22.9 C 269.6 22.7 271 22.6 271.9 22.6 Z M 278.2 22.5 C 279.9 22.5 280.5 23.6 280.5 24.9 C 280.5 27 279.4 29.3 277.2 29.3 C 275.5 29.3 274.9 28.2 274.9 26.9 C 274.9 24.8 276 22.5 278.2 22.5 Z M 277.3 28.8 C 278.6 28.8 279.3 26.6 279.3 24.8 C 279.3 23.8 279 23 278.1 23 C 276.8 23 276.1 25.2 276.1 27 C 276.1 28 276.4 28.8 277.3 28.8 Z M 281.5 22.9 C 281.7 22.8 282.1 22.6 282.6 22.5 C 282.6 22.5 282.7 22.1 282.7 22.1 C 283 20.2 283.8 19.3 285.5 19.3 C 286.1 19.3 286.8 19.4 287.2 19.5 C 287.1 20.1 287 20.5 286.8 21 C 286.77 21.02 285.9 21 285.9 21 C 285.9 21 285.93 19.92 285.9 19.9 C 285.8 19.9 285.7 19.9 285.6 19.9 C 284.7 19.9 284.1 20.3 283.9 21.8 C 283.86 21.75 283.7 22.6 283.7 22.6 L 285.1 22.6 L 285 23.3 L 283.6 23.3 C 283.6 23.3 282.74 29.03 282.7 29 C 282.5 30.8 281.3 31.9 280.2 31.9 C 279.8 31.9 279.4 31.7 279.2 31.4 C 279.2 31.4 279.2 30.9 279.2 30.9 C 279.4 30.9 279.8 31 280.2 31 C 281.2 31 281.3 31 281.6 29.1 C 281.62 29.14 282.5 23.3 282.5 23.3 L 281.4 23.3 L 281.5 22.9 C 281.5 22.9 281.48 22.87 281.5 22.9 Z M 289.4 22.5 C 289.4 22.5 289.7 21.4 289.7 21.4 C 290 21.3 290.4 21.2 290.7 21.2 C 290.72 21.25 290.5 22.6 290.5 22.6 L 292.2 22.6 L 292.1 23.3 L 290.4 23.3 C 290.4 23.3 289.8 27.07 289.8 27.1 C 289.8 27.3 289.7 27.6 289.7 27.8 C 289.7 28.2 289.8 28.4 290.2 28.4 C 290.7 28.4 291.3 27.7 291.6 27 C 291.6 27 292 27.1 292 27.1 C 291.5 28.5 290.8 29.3 289.8 29.3 C 289 29.3 288.6 28.9 288.6 28 C 288.6 27.9 288.6 27.7 288.6 27.5 C 288.62 27.46 289.3 23.3 289.3 23.3 L 288.2 23.3 C 288.2 23.3 288.26 22.87 288.3 22.9 C 288.5 22.8 288.9 22.6 289.4 22.5 Z M 296.4 28.4 C 296.4 28.2 296.4 27.9 296.5 27.8 C 296.5 27.8 297.1 24.4 297.1 24.4 C 297.1 24.3 297.1 24.1 297.1 24 C 297.1 23.6 297 23.4 296.5 23.4 C 296 23.4 295.4 23.8 294.6 24.9 C 294.56 24.91 293.9 29.1 293.9 29.1 L 292.8 29.1 L 294.2 20.3 L 293 20.1 C 293 20.1 293.09 19.68 293.1 19.7 C 293.7 19.5 294.5 19.3 295.5 19.3 C 295.5 19.3 294.7 24.2 294.7 24.2 C 295.4 23.1 296.1 22.5 297 22.5 C 297.9 22.5 298.3 23 298.3 23.6 C 298.3 23.8 298.3 24 298.3 24.1 C 298.3 24.1 297.6 27.6 297.6 27.6 C 297.6 27.8 297.5 28 297.5 28.1 C 297.5 28.4 297.7 28.5 298.1 28.5 C 298.14 28.47 298.7 28.5 298.7 28.5 C 298.7 28.5 298.62 28.92 298.6 28.9 C 298.3 29.1 297.9 29.3 297.3 29.3 C 296.7 29.3 296.4 28.9 296.4 28.4 C 296.4 28.4 296.4 28.4 296.4 28.4 Z M 303.1 22.5 C 304.2 22.5 304.8 23.1 304.8 23.9 C 304.8 25.2 303.8 25.9 301.6 25.9 C 301.6 25.9 301 25.9 301 25.9 C 300.9 26.3 300.9 26.7 300.9 27 C 300.9 28 301.4 28.4 302 28.4 C 302.8 28.4 303.4 28 304 27 C 304 27 304.4 27.1 304.4 27.1 C 303.8 28.6 302.8 29.3 301.7 29.3 C 300.3 29.3 299.7 28.5 299.7 27 C 299.7 24.9 300.7 22.5 303.1 22.5 Z M 301.1 25.4 C 301.1 25.4 301.5 25.4 301.5 25.4 C 303 25.4 303.6 24.9 303.6 23.9 C 303.6 23.4 303.4 23 302.9 23 C 301.9 23 301.3 24.2 301.1 25.4 Z " stroke="none" fill="#fff"/>    <a xlink:href="http://www.nps.gov/chis/learn/news/ipco-new-boat.htm?target=_lightbox" class="lightbox" xlink:show="undefined" xlink:title="Island Explorer">      <rect style="fill:transparent;" x="-1" y="36" width="85" height="13"/>    </a>  </g>  <g id="Polygon14458">    <path d="M 0 10.6 C 0.3 10.5 0.6 10.4 1 10.4 C 1 10.4 2.2 2.9 2.2 2.9 C 1.7 2.9 1.4 2.8 1.1 2.7 C 1.06 2.69 1.1 2.2 1.1 2.2 C 1.1 2.2 4.7 2.18 4.7 2.2 C 7.1 2.2 8.6 3.6 8.6 5.8 C 8.6 8.9 6.7 11.1 3.7 11.1 C 3.7 11.14 -0.1 11.1 -0.1 11.1 L 0 10.6 C 0 10.6 -0.03 10.64 0 10.6 Z M 2.2 10.5 C 2.2 10.5 3.86 10.47 3.9 10.5 C 6.2 10.5 7.2 8.2 7.2 5.7 C 7.2 3.8 6.2 2.9 4.6 2.9 C 4.59 2.85 3.4 2.9 3.4 2.9 L 2.2 10.5 Z M 12.8 4.5 C 14.6 4.5 15.1 5.6 15.1 6.9 C 15.1 9 14.1 11.3 11.8 11.3 C 10.1 11.3 9.5 10.2 9.5 8.9 C 9.5 6.8 10.6 4.5 12.8 4.5 Z M 11.9 10.8 C 13.2 10.8 13.9 8.6 13.9 6.8 C 13.9 5.8 13.6 5 12.8 5 C 11.4 5 10.7 7.2 10.7 9 C 10.7 10 11 10.8 11.9 10.8 Z M 18.7 1.3 C 18.7 1.3 17.4 9.6 17.4 9.6 C 17.4 9.8 17.3 10 17.3 10.1 C 17.3 10.4 17.5 10.5 17.9 10.5 C 17.92 10.47 18.5 10.5 18.5 10.5 C 18.5 10.5 18.39 10.92 18.4 10.9 C 18.1 11.1 17.6 11.3 17.1 11.3 C 16.5 11.3 16.2 10.9 16.2 10.3 C 16.2 10.2 16.2 9.9 16.2 9.8 C 16.24 9.8 17.5 2.3 17.5 2.3 L 16.3 2.1 C 16.3 2.1 16.34 1.68 16.3 1.7 C 16.9 1.5 17.8 1.3 18.7 1.3 Z M 21.8 4.5 C 21.8 4.5 21.6 6.1 21.6 6.1 C 22.2 5 22.9 4.5 23.8 4.5 C 24.8 4.5 25.3 5.3 25.3 6.6 C 25.3 8.8 24.2 11.3 22.1 11.3 C 21.5 11.3 21.1 11.1 20.8 10.7 C 20.8 10.7 20.4 13.1 20.4 13.1 C 20.9 13.1 21.4 13.2 21.7 13.3 C 21.73 13.33 21.6 13.8 21.6 13.8 L 18.3 13.8 C 18.3 13.8 18.4 13.33 18.4 13.3 C 18.7 13.2 18.9 13.1 19.3 13.1 C 19.32 13.1 20.6 5.4 20.6 5.4 L 19.5 5.3 C 19.5 5.3 19.59 4.82 19.6 4.8 C 20.2 4.6 20.9 4.5 21.8 4.5 Z M 21.4 6.9 C 21.4 6.9 20.9 10.4 20.9 10.4 C 21.1 10.5 21.4 10.6 21.8 10.6 C 23.3 10.6 24.1 8.5 24.1 6.6 C 24.1 5.8 23.9 5.4 23.2 5.4 C 22.6 5.4 22 6 21.4 6.9 Z M 30 10.4 C 30 10.2 30 9.9 30 9.8 C 30 9.8 30.6 6.4 30.6 6.4 C 30.7 6.3 30.7 6.1 30.7 6 C 30.7 5.6 30.5 5.4 30.1 5.4 C 29.6 5.4 29 5.8 28.1 6.9 C 28.11 6.91 27.4 11.1 27.4 11.1 L 26.3 11.1 L 27.8 2.3 L 26.6 2.1 C 26.6 2.1 26.64 1.68 26.6 1.7 C 27.2 1.5 28.1 1.3 29 1.3 C 29 1.3 28.2 6.2 28.2 6.2 C 28.9 5.1 29.7 4.5 30.6 4.5 C 31.4 4.5 31.8 5 31.8 5.6 C 31.8 5.8 31.8 6 31.8 6.1 C 31.8 6.1 31.2 9.6 31.2 9.6 C 31.1 9.8 31.1 10 31.1 10.1 C 31.1 10.4 31.2 10.5 31.7 10.5 C 31.69 10.47 32.3 10.5 32.3 10.5 C 32.3 10.5 32.17 10.92 32.2 10.9 C 31.9 11.1 31.4 11.3 30.9 11.3 C 30.2 11.3 30 10.9 30 10.4 C 30 10.4 30 10.4 30 10.4 Z M 35 1.6 C 35.1 1.6 35.4 1.6 35.6 1.6 C 35.8 1.6 36.1 1.6 36.2 1.6 C 36.2 2.1 36 2.7 35.8 3.1 C 35.7 3.2 35.5 3.2 35.3 3.2 C 35.1 3.2 34.9 3.2 34.8 3.1 C 34.8 2.7 34.9 2 35 1.6 Z M 35.7 4.5 C 35.7 4.5 34.9 9.6 34.9 9.6 C 34.8 9.8 34.8 10 34.8 10.1 C 34.8 10.4 34.9 10.5 35.4 10.5 C 35.39 10.47 36 10.5 36 10.5 C 36 10.5 35.87 10.92 35.9 10.9 C 35.6 11.1 35.1 11.3 34.6 11.3 C 33.9 11.3 33.7 10.9 33.7 10.3 C 33.7 10.2 33.7 9.9 33.7 9.8 C 33.71 9.8 34.4 5.4 34.4 5.4 L 33.4 5.3 C 33.4 5.3 33.42 4.82 33.4 4.8 C 34 4.6 34.7 4.5 35.7 4.5 Z M 39.3 4.5 C 39.3 4.5 39 6.2 39 6.2 C 39.7 5.1 40.5 4.5 41.4 4.5 C 42.2 4.5 42.7 5 42.7 5.6 C 42.7 5.8 42.6 6 42.6 6.1 C 42.6 6.1 42 9.6 42 9.6 C 41.9 9.8 41.9 10 41.9 10.1 C 41.9 10.4 42.1 10.5 42.5 10.5 C 42.5 10.47 43.1 10.5 43.1 10.5 C 43.1 10.5 42.98 10.92 43 10.9 C 42.7 11.1 42.2 11.3 41.7 11.3 C 41 11.3 40.8 10.9 40.8 10.4 C 40.8 10.2 40.8 9.9 40.8 9.8 C 40.8 9.8 41.4 6.4 41.4 6.4 C 41.5 6.3 41.5 6.1 41.5 6 C 41.5 5.6 41.3 5.4 40.9 5.4 C 40.4 5.4 39.8 5.8 38.9 6.9 C 38.92 6.93 38.2 11.1 38.2 11.1 L 37.1 11.1 L 38.1 5.4 L 37 5.3 C 37 5.3 37.06 4.82 37.1 4.8 C 37.6 4.6 38.4 4.5 39.3 4.5 Z M 47.1 9.2 C 47.05 9.18 47.8 9.2 47.8 9.2 C 47.8 9.2 47.82 10.61 47.8 10.6 C 48.1 10.7 48.4 10.7 48.6 10.7 C 49.4 10.7 50 10.3 50 9.6 C 50 8.9 49.5 8.7 48.8 8.3 C 48.8 8.3 48.3 8 48.3 8 C 47.8 7.7 47.3 7.2 47.3 6.5 C 47.3 5.3 48.2 4.5 49.7 4.5 C 50.3 4.5 51.1 4.6 51.5 4.9 C 51.5 5.5 51.3 6 51.1 6.6 C 51.08 6.55 50.4 6.6 50.4 6.6 C 50.4 6.6 50.3 5.11 50.3 5.1 C 50.1 5.1 49.8 5 49.6 5 C 48.8 5 48.3 5.4 48.3 6.2 C 48.3 6.6 48.7 7 49.1 7.2 C 49.1 7.2 49.6 7.5 49.6 7.5 C 50.4 7.9 51.1 8.2 51.1 9.2 C 51.1 10.5 50.1 11.3 48.5 11.3 C 47.9 11.3 47 11.1 46.7 10.9 C 46.7 10.2 46.8 9.7 47.1 9.2 Z M 55.6 4.5 C 56.8 4.5 57.3 5.1 57.3 5.9 C 57.3 7.2 56.3 7.9 54.1 7.9 C 54.1 7.9 53.5 7.9 53.5 7.9 C 53.5 8.3 53.4 8.7 53.4 9 C 53.4 10 53.9 10.4 54.5 10.4 C 55.3 10.4 55.9 10 56.5 9 C 56.5 9 56.9 9.1 56.9 9.1 C 56.3 10.6 55.4 11.3 54.2 11.3 C 52.9 11.3 52.2 10.5 52.2 9 C 52.2 6.9 53.2 4.5 55.6 4.5 Z M 53.6 7.4 C 53.6 7.4 54 7.4 54 7.4 C 55.5 7.4 56.2 6.9 56.2 5.9 C 56.2 5.4 55.9 5 55.4 5 C 54.5 5 53.9 6.2 53.6 7.4 Z M 61.4 4.5 C 62.6 4.5 63.1 5.1 63.1 5.9 C 63.1 7.2 62.1 7.9 59.9 7.9 C 59.9 7.9 59.3 7.9 59.3 7.9 C 59.2 8.3 59.2 8.7 59.2 9 C 59.2 10 59.7 10.4 60.3 10.4 C 61.1 10.4 61.7 10 62.3 9 C 62.3 9 62.7 9.1 62.7 9.1 C 62.1 10.6 61.2 11.3 60 11.3 C 58.6 11.3 58 10.5 58 9 C 58 6.9 59 4.5 61.4 4.5 Z M 59.4 7.4 C 59.4 7.4 59.8 7.4 59.8 7.4 C 61.3 7.4 61.9 6.9 61.9 5.9 C 61.9 5.4 61.7 5 61.2 5 C 60.3 5 59.6 6.2 59.4 7.4 Z M 66.3 4.5 C 66.3 4.5 66 6.2 66 6.2 C 66.7 5.1 67.5 4.5 68.4 4.5 C 69.2 4.5 69.6 4.9 69.6 5.6 C 69.6 5.8 69.6 6 69.6 6.1 C 69.6 6.1 69.6 6.2 69.6 6.2 C 70.3 5 71 4.5 71.9 4.5 C 72.7 4.5 73.2 5 73.2 5.6 C 73.2 5.8 73.1 6 73.1 6.1 C 73.1 6.1 72.5 9.6 72.5 9.6 C 72.4 9.8 72.4 10 72.4 10.1 C 72.4 10.4 72.6 10.5 73 10.5 C 73.02 10.47 73.6 10.5 73.6 10.5 C 73.6 10.5 73.5 10.92 73.5 10.9 C 73.2 11.1 72.7 11.3 72.2 11.3 C 71.6 11.3 71.3 10.9 71.3 10.4 C 71.3 10.2 71.3 9.9 71.3 9.8 C 71.3 9.8 72 6.4 72 6.4 C 72 6.3 72 6.1 72 6 C 72 5.6 71.8 5.4 71.4 5.4 C 70.9 5.4 70.3 5.7 69.5 6.9 C 69.47 6.89 68.7 11.1 68.7 11.1 L 67.6 11.1 C 67.6 11.1 68.43 6.44 68.4 6.4 C 68.5 6.3 68.5 6.1 68.5 6 C 68.5 5.6 68.3 5.4 67.9 5.4 C 67.4 5.4 66.8 5.8 65.9 6.9 C 65.91 6.93 65.2 11.1 65.2 11.1 L 64.1 11.1 L 65.1 5.4 L 64 5.3 C 64 5.3 64.05 4.82 64.1 4.8 C 64.6 4.6 65.4 4.5 66.3 4.5 Z M 78.7 4.5 C 78.7 4.5 79 3.4 79 3.4 C 79.2 3.3 79.6 3.2 80 3.2 C 79.99 3.25 79.8 4.6 79.8 4.6 L 81.5 4.6 L 81.4 5.3 L 79.7 5.3 C 79.7 5.3 79.07 9.07 79.1 9.1 C 79 9.3 79 9.6 79 9.8 C 79 10.2 79.1 10.4 79.5 10.4 C 80 10.4 80.6 9.7 80.9 9 C 80.9 9 81.3 9.1 81.3 9.1 C 80.8 10.5 80.1 11.3 79.1 11.3 C 78.2 11.3 77.9 10.9 77.9 10 C 77.9 9.9 77.9 9.7 77.9 9.5 C 77.9 9.46 78.5 5.3 78.5 5.3 L 77.4 5.3 C 77.4 5.3 77.53 4.87 77.5 4.9 C 77.8 4.8 78.1 4.6 78.7 4.5 Z M 85.5 4.5 C 87.2 4.5 87.7 5.6 87.7 6.9 C 87.7 9 86.7 11.3 84.4 11.3 C 82.7 11.3 82.2 10.2 82.2 8.9 C 82.2 6.8 83.2 4.5 85.5 4.5 Z M 84.5 10.8 C 85.8 10.8 86.6 8.6 86.6 6.8 C 86.6 5.8 86.2 5 85.4 5 C 84.1 5 83.3 7.2 83.3 9 C 83.3 10 83.7 10.8 84.5 10.8 Z M 95 4.5 C 96.2 4.5 96.8 5.1 96.8 5.9 C 96.8 7.2 95.8 7.9 93.5 7.9 C 93.5 7.9 92.9 7.9 92.9 7.9 C 92.9 8.3 92.8 8.7 92.8 9 C 92.8 10 93.4 10.4 94 10.4 C 94.8 10.4 95.3 10 96 9 C 96 9 96.3 9.1 96.3 9.1 C 95.7 10.6 94.8 11.3 93.6 11.3 C 92.3 11.3 91.7 10.5 91.7 9 C 91.7 6.9 92.6 4.5 95 4.5 Z M 93 7.4 C 93 7.4 93.5 7.4 93.5 7.4 C 94.9 7.4 95.6 6.9 95.6 5.9 C 95.6 5.4 95.4 5 94.9 5 C 93.9 5 93.3 6.2 93 7.4 Z M 100 4.5 C 100 4.5 99.7 6.2 99.7 6.2 C 100.4 5.1 101.1 4.5 102 4.5 C 102.9 4.5 103.3 5 103.3 5.6 C 103.3 5.8 103.3 6 103.3 6.1 C 103.3 6.1 102.6 9.6 102.6 9.6 C 102.6 9.8 102.5 10 102.5 10.1 C 102.5 10.4 102.7 10.5 103.1 10.5 C 103.15 10.47 103.7 10.5 103.7 10.5 C 103.7 10.5 103.63 10.92 103.6 10.9 C 103.3 11.1 102.9 11.3 102.3 11.3 C 101.7 11.3 101.4 10.9 101.4 10.4 C 101.4 10.2 101.4 9.9 101.5 9.8 C 101.5 9.8 102.1 6.4 102.1 6.4 C 102.1 6.3 102.1 6.1 102.1 6 C 102.1 5.6 102 5.4 101.5 5.4 C 101 5.4 100.4 5.8 99.6 6.9 C 99.57 6.93 98.9 11.1 98.9 11.1 L 97.8 11.1 L 98.7 5.4 L 97.7 5.3 C 97.7 5.3 97.71 4.82 97.7 4.8 C 98.3 4.6 99 4.5 100 4.5 Z M 106.5 1.6 C 106.6 1.6 106.9 1.6 107.1 1.6 C 107.3 1.6 107.6 1.6 107.7 1.6 C 107.7 2.1 107.5 2.7 107.3 3.1 C 107.2 3.2 107 3.2 106.8 3.2 C 106.6 3.2 106.4 3.2 106.3 3.1 C 106.3 2.7 106.4 2 106.5 1.6 Z M 107.2 4.5 C 107.2 4.5 106.2 10.8 106.2 10.8 C 105.9 12.6 104.7 13.9 103.7 13.9 C 103.2 13.9 102.9 13.7 102.6 13.4 C 102.6 13.4 102.6 12.9 102.6 12.9 C 102.9 12.9 103.4 13 103.7 13 C 104.6 13 104.7 13 105 11.1 C 105 11.14 105.9 5.4 105.9 5.4 L 104.9 5.3 C 104.9 5.3 104.93 4.82 104.9 4.8 C 105.5 4.6 106.2 4.5 107.2 4.5 Z M 111.4 4.5 C 113.2 4.5 113.7 5.6 113.7 6.9 C 113.7 9 112.7 11.3 110.4 11.3 C 108.7 11.3 108.1 10.2 108.1 8.9 C 108.1 6.8 109.2 4.5 111.4 4.5 Z M 110.5 10.8 C 111.8 10.8 112.6 8.6 112.6 6.8 C 112.6 5.8 112.2 5 111.4 5 C 110 5 109.3 7.2 109.3 9 C 109.3 10 109.6 10.8 110.5 10.8 Z M 115.9 11.6 C 115.95 11.59 116.2 11.3 116.2 11.3 L 115.1 5.4 L 114.2 5.3 C 114.2 5.3 114.28 4.82 114.3 4.8 C 114.7 4.6 115.5 4.5 116.1 4.5 C 116.09 4.48 117 10 117 10 C 117 10 117.4 9.46 117.4 9.5 C 118.3 8.2 118.9 6.9 118.9 5.4 C 118.93 5.4 118 5.3 118 5.3 C 118 5.3 118.03 4.82 118 4.8 C 118.4 4.6 118.9 4.5 119.4 4.5 C 119.9 4.5 120 4.9 120 5.3 C 120 6.3 119.4 7.7 118.1 9.5 C 118.1 9.5 116.6 11.6 116.6 11.6 C 115.9 12.6 115 13.9 114.1 13.9 C 113.5 13.9 113.2 13.7 112.9 13.3 C 112.9 13.3 113 12.8 113 12.8 C 113.3 12.9 113.6 13 113.9 13 C 114.8 13 115.4 12.5 115.9 11.6 Z M 127.1 4.5 C 127.7 4.5 128.3 4.6 128.6 4.9 C 128.6 5.5 128.4 6 128.2 6.6 C 128.18 6.55 127.5 6.6 127.5 6.6 C 127.5 6.6 127.4 5.07 127.4 5.1 C 127.3 5.1 127.2 5 127.1 5 C 125.6 5 124.8 7.3 124.8 9 C 124.8 10 125.3 10.4 125.9 10.4 C 126.7 10.4 127.3 10 127.9 9 C 127.9 9 128.3 9.1 128.3 9.1 C 127.7 10.6 126.8 11.3 125.6 11.3 C 124.3 11.3 123.6 10.5 123.6 9 C 123.6 6.9 124.6 4.5 127.1 4.5 Z M 132.6 4.5 C 133.1 4.5 133.5 4.7 133.8 5.1 C 134 4.8 134.3 4.6 134.6 4.5 C 134.57 4.48 134.9 4.6 134.9 4.6 C 134.9 4.6 134.15 9.63 134.1 9.6 C 134.1 9.8 134.1 10 134.1 10.1 C 134.1 10.4 134.2 10.5 134.7 10.5 C 134.68 10.47 135.2 10.5 135.2 10.5 C 135.2 10.5 135.15 10.92 135.2 10.9 C 134.8 11.1 134.4 11.3 133.8 11.3 C 133.2 11.3 133 10.9 133 10.3 C 133 10.2 133 9.9 133.1 9.8 C 133.1 9.8 133.1 9.5 133.1 9.5 C 132.5 10.7 131.8 11.3 130.8 11.3 C 129.9 11.3 129.3 10.5 129.3 9.2 C 129.3 6.9 130.4 4.5 132.6 4.5 Z M 133.2 8.9 C 133.2 8.9 133.7 5.4 133.7 5.4 C 133.5 5.3 133.2 5.2 132.8 5.2 C 131.3 5.2 130.5 7.2 130.5 9.1 C 130.5 10 130.8 10.4 131.4 10.4 C 132 10.4 132.6 9.8 133.2 8.9 Z M 135.7 5.3 C 135.7 5.3 135.79 4.82 135.8 4.8 C 136.2 4.6 137 4.5 137.6 4.5 C 137.59 4.48 138.5 10 138.5 10 C 138.5 10 138.94 9.35 138.9 9.4 C 140 7.8 140.4 6.6 140.4 5.4 C 140.45 5.4 139.5 5.3 139.5 5.3 C 139.5 5.3 139.54 4.82 139.5 4.8 C 139.9 4.6 140.4 4.5 140.9 4.5 C 141.4 4.5 141.5 4.9 141.5 5.3 C 141.5 6.1 141.2 7.2 139.1 10 C 139.1 10.02 138.3 11.1 138.3 11.1 L 137.6 11.1 L 136.6 5.4 L 135.7 5.3 Z M 145.3 4.5 C 147.1 4.5 147.6 5.6 147.6 6.9 C 147.6 9 146.6 11.3 144.3 11.3 C 142.6 11.3 142 10.2 142 8.9 C 142 6.8 143.1 4.5 145.3 4.5 Z M 144.4 10.8 C 145.7 10.8 146.4 8.6 146.4 6.8 C 146.4 5.8 146.1 5 145.3 5 C 143.9 5 143.2 7.2 143.2 9 C 143.2 10 143.5 10.8 144.4 10.8 Z M 151 4.5 C 151 4.5 150.7 6.3 150.7 6.3 C 151.3 5.1 152 4.5 152.7 4.5 C 153.1 4.5 153.3 4.6 153.4 4.8 C 153.4 5.4 153.3 6 153 6.6 C 153.05 6.55 152.3 6.6 152.3 6.6 L 152.3 5.4 C 152.3 5.4 152.26 5.37 152.3 5.4 C 151.8 5.4 151.3 6 150.6 7.2 C 150.6 7.21 150 11.1 150 11.1 L 148.8 11.1 L 149.8 5.4 L 148.7 5.3 C 148.7 5.3 148.78 4.82 148.8 4.8 C 149.4 4.6 150.1 4.5 151 4.5 Z M 155.4 4.5 C 155.4 4.5 155.7 3.4 155.7 3.4 C 156 3.3 156.3 3.2 156.7 3.2 C 156.71 3.25 156.5 4.6 156.5 4.6 L 158.2 4.6 L 158.1 5.3 L 156.4 5.3 C 156.4 5.3 155.79 9.07 155.8 9.1 C 155.7 9.3 155.7 9.6 155.7 9.8 C 155.7 10.2 155.8 10.4 156.2 10.4 C 156.7 10.4 157.3 9.7 157.6 9 C 157.6 9 158 9.1 158 9.1 C 157.5 10.5 156.8 11.3 155.8 11.3 C 155 11.3 154.6 10.9 154.6 10 C 154.6 9.9 154.6 9.7 154.6 9.5 C 154.62 9.46 155.2 5.3 155.2 5.3 L 154.2 5.3 C 154.2 5.3 154.25 4.87 154.3 4.9 C 154.5 4.8 154.9 4.6 155.4 4.5 Z M 160.4 1.6 C 160.5 1.6 160.8 1.6 161 1.6 C 161.2 1.6 161.5 1.6 161.6 1.6 C 161.6 2.1 161.4 2.7 161.2 3.1 C 161.1 3.2 160.9 3.2 160.7 3.2 C 160.5 3.2 160.3 3.2 160.2 3.1 C 160.2 2.7 160.2 2 160.4 1.6 Z M 161.1 4.5 C 161.1 4.5 160.2 9.6 160.2 9.6 C 160.2 9.8 160.2 10 160.2 10.1 C 160.2 10.4 160.3 10.5 160.8 10.5 C 160.77 10.47 161.3 10.5 161.3 10.5 C 161.3 10.5 161.25 10.92 161.2 10.9 C 160.9 11.1 160.5 11.3 159.9 11.3 C 159.3 11.3 159 10.9 159 10.3 C 159 10.2 159.1 9.9 159.1 9.8 C 159.1 9.8 159.8 5.4 159.8 5.4 L 158.8 5.3 C 158.8 5.3 158.8 4.82 158.8 4.8 C 159.4 4.6 160.1 4.5 161.1 4.5 Z M 164.7 4.5 C 164.7 4.5 164.4 6.2 164.4 6.2 C 165.1 5.1 165.8 4.5 166.8 4.5 C 167.6 4.5 168 5 168 5.6 C 168 5.8 168 6 168 6.1 C 168 6.1 167.4 9.6 167.4 9.6 C 167.3 9.8 167.3 10 167.3 10.1 C 167.3 10.4 167.4 10.5 167.9 10.5 C 167.89 10.47 168.4 10.5 168.4 10.5 C 168.4 10.5 168.36 10.92 168.4 10.9 C 168.1 11.1 167.6 11.3 167 11.3 C 166.4 11.3 166.2 10.9 166.2 10.4 C 166.2 10.2 166.2 9.9 166.2 9.8 C 166.2 9.8 166.8 6.4 166.8 6.4 C 166.9 6.3 166.9 6.1 166.9 6 C 166.9 5.6 166.7 5.4 166.3 5.4 C 165.8 5.4 165.2 5.8 164.3 6.9 C 164.3 6.93 163.6 11.1 163.6 11.1 L 162.5 11.1 L 163.4 5.4 L 162.4 5.3 C 162.4 5.3 162.44 4.82 162.4 4.8 C 163 4.6 163.7 4.5 164.7 4.5 Z M 170.3 10.8 C 170 10.7 169.7 10.4 169.7 10 C 169.7 9.5 170.1 9.1 170.8 8.7 C 170 8.4 169.6 7.7 169.6 7 C 169.6 5.4 170.9 4.5 172.3 4.5 C 172.9 4.5 173.4 4.6 173.8 4.9 C 174.1 4.6 174.8 4.4 175.5 4.4 C 175.5 4.8 175.4 5 175.3 5.3 C 175.3 5.3 174.2 5.3 174.2 5.3 C 174.4 5.6 174.5 6 174.5 6.4 C 174.5 8 173.3 8.9 171.9 8.9 C 171.6 8.9 171.4 8.9 171.2 8.8 C 170.9 9.1 170.7 9.3 170.7 9.6 C 170.7 9.9 170.8 10 171.2 10 C 171.2 10 172.8 10.1 172.8 10.1 C 174.1 10.2 174.6 10.6 174.6 11.4 C 174.6 12.7 173.2 13.9 171 13.9 C 169.4 13.9 168.6 13.4 168.6 12.4 C 168.6 11.6 169.3 11.1 170.3 10.8 Z M 171.9 8.3 C 172.8 8.3 173.4 7.6 173.4 6.4 C 173.4 5.6 173 5 172.3 5 C 171.4 5 170.8 5.8 170.8 7 C 170.8 7.8 171.1 8.3 171.9 8.3 C 171.9 8.3 171.9 8.3 171.9 8.3 Z M 169.6 12.2 C 169.6 12.9 170.2 13.3 171.2 13.3 C 172.6 13.3 173.5 12.7 173.5 11.9 C 173.5 11.4 173.3 11.1 172.5 11.1 C 172.5 11.1 170.7 11 170.7 11 C 170 11.3 169.6 11.7 169.6 12.2 Z M 180.4 1.6 C 180.5 1.6 180.8 1.6 181 1.6 C 181.2 1.6 181.5 1.6 181.6 1.6 C 181.6 2.1 181.4 2.7 181.2 3.1 C 181.1 3.2 180.9 3.2 180.7 3.2 C 180.5 3.2 180.3 3.2 180.1 3.1 C 180.1 2.7 180.2 2 180.4 1.6 Z M 181 4.5 C 181 4.5 180.2 9.6 180.2 9.6 C 180.2 9.8 180.2 10 180.2 10.1 C 180.2 10.4 180.3 10.5 180.8 10.5 C 180.77 10.47 181.3 10.5 181.3 10.5 C 181.3 10.5 181.24 10.92 181.2 10.9 C 180.9 11.1 180.5 11.3 179.9 11.3 C 179.3 11.3 179 10.9 179 10.3 C 179 10.2 179.1 9.9 179.1 9.8 C 179.09 9.8 179.8 5.4 179.8 5.4 L 178.8 5.3 C 178.8 5.3 178.79 4.82 178.8 4.8 C 179.4 4.6 180.1 4.5 181 4.5 Z M 184.7 4.5 C 184.7 4.5 184.4 6.2 184.4 6.2 C 185.1 5.1 185.8 4.5 186.8 4.5 C 187.6 4.5 188 5 188 5.6 C 188 5.8 188 6 188 6.1 C 188 6.1 187.3 9.6 187.3 9.6 C 187.3 9.8 187.3 10 187.3 10.1 C 187.3 10.4 187.4 10.5 187.9 10.5 C 187.88 10.47 188.4 10.5 188.4 10.5 C 188.4 10.5 188.35 10.92 188.4 10.9 C 188 11.1 187.6 11.3 187 11.3 C 186.4 11.3 186.1 10.9 186.1 10.4 C 186.1 10.2 186.2 9.9 186.2 9.8 C 186.2 9.8 186.8 6.4 186.8 6.4 C 186.8 6.3 186.9 6.1 186.9 6 C 186.9 5.6 186.7 5.4 186.3 5.4 C 185.8 5.4 185.2 5.8 184.3 6.9 C 184.29 6.93 183.6 11.1 183.6 11.1 L 182.5 11.1 L 183.4 5.4 L 182.4 5.3 C 182.4 5.3 182.43 4.82 182.4 4.8 C 183 4.6 183.7 4.5 184.7 4.5 Z M 193.6 4.5 C 193.6 4.5 193.9 3.4 193.9 3.4 C 194.1 3.3 194.5 3.2 194.8 3.2 C 194.85 3.25 194.6 4.6 194.6 4.6 L 196.3 4.6 L 196.2 5.3 L 194.5 5.3 C 194.5 5.3 193.92 9.07 193.9 9.1 C 193.9 9.3 193.9 9.6 193.9 9.8 C 193.9 10.2 194 10.4 194.3 10.4 C 194.9 10.4 195.4 9.7 195.7 9 C 195.7 9 196.1 9.1 196.1 9.1 C 195.7 10.5 194.9 11.3 193.9 11.3 C 193.1 11.3 192.7 10.9 192.7 10 C 192.7 9.9 192.7 9.7 192.8 9.5 C 192.75 9.46 193.4 5.3 193.4 5.3 L 192.3 5.3 C 192.3 5.3 192.39 4.87 192.4 4.9 C 192.6 4.8 193 4.6 193.6 4.5 Z M 200.5 10.4 C 200.5 10.2 200.6 9.9 200.6 9.8 C 200.6 9.8 201.2 6.4 201.2 6.4 C 201.2 6.3 201.3 6.1 201.3 6 C 201.3 5.6 201.1 5.4 200.6 5.4 C 200.2 5.4 199.6 5.8 198.7 6.9 C 198.69 6.91 198 11.1 198 11.1 L 196.9 11.1 L 198.3 2.3 L 197.2 2.1 C 197.2 2.1 197.22 1.68 197.2 1.7 C 197.8 1.5 198.6 1.3 199.6 1.3 C 199.6 1.3 198.8 6.2 198.8 6.2 C 199.5 5.1 200.2 4.5 201.2 4.5 C 202 4.5 202.4 5 202.4 5.6 C 202.4 5.8 202.4 6 202.4 6.1 C 202.4 6.1 201.7 9.6 201.7 9.6 C 201.7 9.8 201.7 10 201.7 10.1 C 201.7 10.4 201.8 10.5 202.3 10.5 C 202.27 10.47 202.8 10.5 202.8 10.5 C 202.8 10.5 202.74 10.92 202.7 10.9 C 202.4 11.1 202 11.3 201.4 11.3 C 200.8 11.3 200.5 10.9 200.5 10.4 C 200.5 10.4 200.5 10.4 200.5 10.4 Z M 207.2 4.5 C 208.4 4.5 208.9 5.1 208.9 5.9 C 208.9 7.2 207.9 7.9 205.7 7.9 C 205.7 7.9 205.1 7.9 205.1 7.9 C 205 8.3 205 8.7 205 9 C 205 10 205.5 10.4 206.1 10.4 C 206.9 10.4 207.5 10 208.1 9 C 208.1 9 208.5 9.1 208.5 9.1 C 207.9 10.6 207 11.3 205.8 11.3 C 204.5 11.3 203.8 10.5 203.8 9 C 203.8 6.9 204.8 4.5 207.2 4.5 Z M 205.2 7.4 C 205.2 7.4 205.6 7.4 205.6 7.4 C 207.1 7.4 207.8 6.9 207.8 5.9 C 207.8 5.4 207.5 5 207 5 C 206.1 5 205.5 6.2 205.2 7.4 Z M 215.4 1.3 C 215.4 1.3 214.7 6.1 214.7 6.1 C 215.3 5 215.9 4.5 216.9 4.5 C 217.8 4.5 218.4 5.3 218.4 6.6 C 218.4 8.8 217.3 11.3 215.2 11.3 C 214.6 11.3 214.1 11 213.8 10.7 C 213.6 10.9 213.4 11.2 213.1 11.3 C 213.08 11.25 212.7 11.1 212.7 11.1 L 214.2 2.3 L 213 2.1 C 213 2.1 213.06 1.68 213.1 1.7 C 213.6 1.5 214.5 1.3 215.4 1.3 Z M 214.5 6.8 C 214.5 6.8 214 10.4 214 10.4 C 214.2 10.5 214.5 10.6 214.9 10.6 C 216.4 10.6 217.2 8.5 217.2 6.6 C 217.2 5.8 216.9 5.4 216.3 5.4 C 215.7 5.4 215.1 5.9 214.5 6.8 Z M 222.8 4.5 C 224.6 4.5 225.1 5.6 225.1 6.9 C 225.1 9 224.1 11.3 221.8 11.3 C 220.1 11.3 219.5 10.2 219.5 8.9 C 219.5 6.8 220.6 4.5 222.8 4.5 Z M 221.9 10.8 C 223.2 10.8 223.9 8.6 223.9 6.8 C 223.9 5.8 223.6 5 222.8 5 C 221.4 5 220.7 7.2 220.7 9 C 220.7 10 221 10.8 221.9 10.8 Z M 230.9 4.5 C 230.9 4.5 231.7 9.9 231.7 9.9 C 232.9 8.1 233.5 6.8 233.5 5.4 C 233.5 5.4 232.6 5.3 232.6 5.3 C 232.6 5.3 232.61 4.82 232.6 4.8 C 233 4.6 233.5 4.5 234 4.5 C 234.5 4.5 234.6 4.9 234.6 5.3 C 234.6 6.1 234.2 7.5 231.4 11.1 C 231.45 11.14 230.8 11.1 230.8 11.1 C 230.8 11.1 230.34 8.08 230.3 8.1 C 229.8 8.9 229.1 9.8 228.1 11.1 C 228.14 11.14 227.5 11.1 227.5 11.1 L 226.5 5.4 L 225.6 5.3 C 225.6 5.3 225.66 4.82 225.7 4.8 C 226.2 4.6 226.8 4.5 227.5 4.5 C 227.5 4.5 228.4 10 228.4 10 C 229.2 8.7 229.8 7.7 230.1 6.8 C 230.13 6.79 229.9 5.4 229.9 5.4 L 229 5.3 C 229 5.3 229.08 4.82 229.1 4.8 C 229.6 4.6 230.2 4.5 230.9 4.5 Z M 243.2 4.5 C 243.2 4.5 244 9.9 244 9.9 C 245.1 8.1 245.7 6.8 245.8 5.4 C 245.77 5.4 244.8 5.3 244.8 5.3 C 244.8 5.3 244.87 4.82 244.9 4.8 C 245.3 4.6 245.8 4.5 246.2 4.5 C 246.7 4.5 246.8 4.9 246.8 5.3 C 246.8 6.1 246.5 7.5 243.7 11.1 C 243.71 11.14 243.1 11.1 243.1 11.1 C 243.1 11.1 242.6 8.08 242.6 8.1 C 242.1 8.9 241.4 9.8 240.4 11.1 C 240.41 11.14 239.8 11.1 239.8 11.1 L 238.8 5.4 L 237.9 5.3 C 237.9 5.3 237.93 4.82 237.9 4.8 C 238.4 4.6 239.1 4.5 239.7 4.5 C 239.7 4.5 240.7 10 240.7 10 C 241.5 8.7 242.1 7.7 242.4 6.8 C 242.39 6.79 242.2 5.4 242.2 5.4 L 241.3 5.3 C 241.3 5.3 241.34 4.82 241.3 4.8 C 241.9 4.6 242.5 4.5 243.2 4.5 Z M 250.7 4.5 C 251.2 4.5 251.6 4.7 251.9 5.1 C 252.1 4.8 252.4 4.6 252.7 4.5 C 252.67 4.48 253 4.6 253 4.6 C 253 4.6 252.25 9.63 252.2 9.6 C 252.2 9.8 252.2 10 252.2 10.1 C 252.2 10.4 252.3 10.5 252.8 10.5 C 252.78 10.47 253.3 10.5 253.3 10.5 C 253.3 10.5 253.26 10.92 253.3 10.9 C 252.9 11.1 252.5 11.3 251.9 11.3 C 251.3 11.3 251.1 10.9 251.1 10.3 C 251.1 10.2 251.1 9.9 251.2 9.8 C 251.2 9.8 251.2 9.5 251.2 9.5 C 250.6 10.7 249.9 11.3 248.9 11.3 C 248 11.3 247.4 10.5 247.4 9.2 C 247.4 6.9 248.5 4.5 250.7 4.5 Z M 251.3 8.9 C 251.3 8.9 251.8 5.4 251.8 5.4 C 251.6 5.3 251.3 5.2 250.9 5.2 C 249.4 5.2 248.6 7.2 248.6 9.1 C 248.6 10 248.9 10.4 249.5 10.4 C 250.1 10.4 250.7 9.8 251.3 8.9 Z M 253.8 5.3 C 253.8 5.3 253.89 4.82 253.9 4.8 C 254.4 4.6 255.1 4.5 255.7 4.5 C 255.69 4.48 256.6 10 256.6 10 C 256.6 10 257.04 9.35 257 9.4 C 258.1 7.8 258.5 6.6 258.6 5.4 C 258.55 5.4 257.6 5.3 257.6 5.3 C 257.6 5.3 257.64 4.82 257.6 4.8 C 258 4.6 258.6 4.5 259 4.5 C 259.5 4.5 259.6 4.9 259.6 5.3 C 259.6 6.1 259.3 7.2 257.2 10 C 257.21 10.02 256.4 11.1 256.4 11.1 L 255.8 11.1 L 254.7 5.4 L 253.8 5.3 Z M 263.5 4.5 C 264.7 4.5 265.2 5.1 265.2 5.9 C 265.2 7.2 264.2 7.9 262 7.9 C 262 7.9 261.4 7.9 261.4 7.9 C 261.3 8.3 261.3 8.7 261.3 9 C 261.3 10 261.8 10.4 262.4 10.4 C 263.2 10.4 263.8 10 264.4 9 C 264.4 9 264.8 9.1 264.8 9.1 C 264.2 10.6 263.3 11.3 262.1 11.3 C 260.7 11.3 260.1 10.5 260.1 9 C 260.1 6.9 261.1 4.5 263.5 4.5 Z M 261.5 7.4 C 261.5 7.4 261.9 7.4 261.9 7.4 C 263.4 7.4 264 6.9 264 5.9 C 264 5.4 263.8 5 263.3 5 C 262.4 5 261.7 6.2 261.5 7.4 Z M 266.1 9.2 C 266.12 9.18 266.9 9.2 266.9 9.2 C 266.9 9.2 266.89 10.61 266.9 10.6 C 267.2 10.7 267.4 10.7 267.7 10.7 C 268.4 10.7 269.1 10.3 269.1 9.6 C 269.1 8.9 268.6 8.7 267.9 8.3 C 267.9 8.3 267.4 8 267.4 8 C 266.8 7.7 266.4 7.2 266.4 6.5 C 266.4 5.3 267.2 4.5 268.7 4.5 C 269.4 4.5 270.2 4.6 270.5 4.9 C 270.5 5.5 270.4 6 270.2 6.6 C 270.16 6.55 269.4 6.6 269.4 6.6 C 269.4 6.6 269.37 5.11 269.4 5.1 C 269.1 5.1 268.9 5 268.7 5 C 267.9 5 267.4 5.4 267.4 6.2 C 267.4 6.6 267.8 7 268.2 7.2 C 268.2 7.2 268.7 7.5 268.7 7.5 C 269.5 7.9 270.2 8.2 270.2 9.2 C 270.2 10.5 269.2 11.3 267.6 11.3 C 267 11.3 266.1 11.1 265.7 10.9 C 265.7 10.2 265.9 9.7 266.1 9.2 Z M 277.5 4.5 C 279.3 4.5 279.8 5.6 279.8 6.9 C 279.8 9 278.8 11.3 276.5 11.3 C 274.8 11.3 274.2 10.2 274.2 8.9 C 274.2 6.8 275.3 4.5 277.5 4.5 Z M 276.6 10.8 C 277.9 10.8 278.7 8.6 278.7 6.8 C 278.7 5.8 278.3 5 277.5 5 C 276.1 5 275.4 7.2 275.4 9 C 275.4 10 275.7 10.8 276.6 10.8 Z M 280.8 4.9 C 281 4.8 281.4 4.6 281.9 4.5 C 281.9 4.5 282 4.1 282 4.1 C 282.3 2.2 283.1 1.3 284.9 1.3 C 285.4 1.3 286.2 1.4 286.5 1.5 C 286.4 2.1 286.3 2.5 286.1 3 C 286.1 3.02 285.3 3 285.3 3 C 285.3 3 285.26 1.92 285.3 1.9 C 285.2 1.9 285 1.9 284.9 1.9 C 284 1.9 283.4 2.3 283.2 3.8 C 283.19 3.75 283.1 4.6 283.1 4.6 L 284.5 4.6 L 284.4 5.3 L 283 5.3 C 283 5.3 282.07 11.03 282.1 11 C 281.8 12.8 280.6 13.9 279.6 13.9 C 279.1 13.9 278.8 13.7 278.5 13.4 C 278.5 13.4 278.5 12.9 278.5 12.9 C 278.8 12.9 279.2 13 279.5 13 C 280.6 13 280.7 13 281 11.1 C 280.95 11.14 281.8 5.3 281.8 5.3 L 280.7 5.3 L 280.8 4.9 C 280.8 4.9 280.81 4.87 280.8 4.9 Z M 290.4 1.3 C 290.4 1.3 289 9.6 289 9.6 C 289 9.8 289 10 289 10.1 C 289 10.4 289.1 10.5 289.6 10.5 C 289.57 10.47 290.1 10.5 290.1 10.5 C 290.1 10.5 290.05 10.92 290 10.9 C 289.7 11.1 289.3 11.3 288.7 11.3 C 288.1 11.3 287.8 10.9 287.8 10.3 C 287.8 10.2 287.9 9.9 287.9 9.8 C 287.89 9.8 289.1 2.3 289.1 2.3 L 288 2.1 C 288 2.1 287.99 1.68 288 1.7 C 288.6 1.5 289.4 1.3 290.4 1.3 Z M 294.4 4.5 C 294.9 4.5 295.4 4.7 295.6 5.1 C 295.8 4.8 296.1 4.6 296.4 4.5 C 296.4 4.48 296.8 4.6 296.8 4.6 C 296.8 4.6 295.98 9.63 296 9.6 C 296 9.8 295.9 10 295.9 10.1 C 295.9 10.4 296.1 10.5 296.5 10.5 C 296.52 10.47 297.1 10.5 297.1 10.5 C 297.1 10.5 296.99 10.92 297 10.9 C 296.7 11.1 296.2 11.3 295.7 11.3 C 295.1 11.3 294.8 10.9 294.8 10.3 C 294.8 10.2 294.9 9.9 294.9 9.8 C 294.9 9.8 295 9.5 295 9.5 C 294.3 10.7 293.6 11.3 292.7 11.3 C 291.7 11.3 291.1 10.5 291.1 9.2 C 291.1 6.9 292.3 4.5 294.4 4.5 Z M 295 8.9 C 295 8.9 295.6 5.4 295.6 5.4 C 295.3 5.3 295 5.2 294.7 5.2 C 293.2 5.2 292.3 7.2 292.3 9.1 C 292.3 10 292.6 10.4 293.2 10.4 C 293.8 10.4 294.4 9.8 295 8.9 Z M 300.4 4.5 C 300.4 4.5 300.1 6.3 300.1 6.3 C 300.7 5.1 301.4 4.5 302.1 4.5 C 302.5 4.5 302.7 4.6 302.8 4.8 C 302.8 5.4 302.7 6 302.5 6.6 C 302.45 6.55 301.7 6.6 301.7 6.6 L 301.7 5.4 C 301.7 5.4 301.67 5.37 301.7 5.4 C 301.2 5.4 300.7 6 300 7.2 C 300 7.21 299.4 11.1 299.4 11.1 L 298.3 11.1 L 299.2 5.4 L 298.1 5.3 C 298.1 5.3 298.18 4.82 298.2 4.8 C 298.8 4.6 299.5 4.5 300.4 4.5 Z M 304.1 10.8 C 303.8 10.7 303.6 10.4 303.6 10 C 303.6 9.5 303.9 9.1 304.7 8.7 C 303.9 8.4 303.5 7.7 303.5 7 C 303.5 5.4 304.7 4.5 306.1 4.5 C 306.8 4.5 307.3 4.6 307.6 4.9 C 308 4.6 308.6 4.4 309.3 4.4 C 309.3 4.8 309.3 5 309.1 5.3 C 309.1 5.3 308.1 5.3 308.1 5.3 C 308.3 5.6 308.4 6 308.4 6.4 C 308.4 8 307.1 8.9 305.7 8.9 C 305.5 8.9 305.3 8.9 305.1 8.8 C 304.7 9.1 304.5 9.3 304.5 9.6 C 304.5 9.9 304.6 10 305 10 C 305 10 306.7 10.1 306.7 10.1 C 307.9 10.2 308.4 10.6 308.4 11.4 C 308.4 12.7 307 13.9 304.9 13.9 C 303.2 13.9 302.4 13.4 302.4 12.4 C 302.4 11.6 303.1 11.1 304.1 10.8 Z M 305.7 8.3 C 306.7 8.3 307.2 7.6 307.2 6.4 C 307.2 5.6 306.9 5 306.1 5 C 305.2 5 304.6 5.8 304.6 7 C 304.6 7.8 305 8.3 305.7 8.3 C 305.7 8.3 305.7 8.3 305.7 8.3 Z M 303.5 12.2 C 303.5 12.9 304.1 13.3 305 13.3 C 306.5 13.3 307.4 12.7 307.4 11.9 C 307.4 11.4 307.2 11.1 306.3 11.1 C 306.3 11.1 304.5 11 304.5 11 C 303.8 11.3 303.5 11.7 303.5 12.2 Z M 312.8 4.5 C 313.9 4.5 314.5 5.1 314.5 5.9 C 314.5 7.2 313.5 7.9 311.2 7.9 C 311.2 7.9 310.7 7.9 310.7 7.9 C 310.6 8.3 310.6 8.7 310.6 9 C 310.6 10 311.1 10.4 311.7 10.4 C 312.5 10.4 313.1 10 313.7 9 C 313.7 9 314.1 9.1 314.1 9.1 C 313.4 10.6 312.5 11.3 311.4 11.3 C 310 11.3 309.4 10.5 309.4 9 C 309.4 6.9 310.3 4.5 312.8 4.5 Z M 310.7 7.4 C 310.7 7.4 311.2 7.4 311.2 7.4 C 312.6 7.4 313.3 6.9 313.3 5.9 C 313.3 5.4 313.1 5 312.6 5 C 311.6 5 311 6.2 310.7 7.4 Z " stroke="none" fill="#fff"/>  </g>  <g id="Polygon14460">    <path d="M 1.1 46.4 C 1.1 46.4 2.3 38.9 2.3 38.9 C 1.8 38.9 1.5 38.8 1.2 38.7 C 1.18 38.69 1.3 38.2 1.3 38.2 L 4.6 38.2 C 4.6 38.2 4.51 38.69 4.5 38.7 C 4.2 38.8 3.9 38.9 3.5 38.9 C 3.5 38.9 2.4 46.4 2.4 46.4 C 2.8 46.4 3.2 46.5 3.5 46.6 C 3.47 46.64 3.4 47.1 3.4 47.1 L 0 47.1 C 0 47.1 0.08 46.64 0.1 46.6 C 0.4 46.5 0.7 46.4 1.1 46.4 Z M 4.9 45.2 C 4.94 45.18 5.7 45.2 5.7 45.2 C 5.7 45.2 5.71 46.61 5.7 46.6 C 6 46.7 6.3 46.7 6.5 46.7 C 7.3 46.7 7.9 46.3 7.9 45.6 C 7.9 44.9 7.4 44.7 6.7 44.3 C 6.7 44.3 6.2 44 6.2 44 C 5.6 43.7 5.2 43.2 5.2 42.5 C 5.2 41.3 6.1 40.5 7.5 40.5 C 8.2 40.5 9 40.6 9.4 40.9 C 9.4 41.5 9.2 42 9 42.6 C 8.97 42.55 8.2 42.6 8.2 42.6 C 8.2 42.6 8.19 41.11 8.2 41.1 C 7.9 41.1 7.7 41 7.5 41 C 6.7 41 6.2 41.4 6.2 42.2 C 6.2 42.6 6.6 43 7 43.2 C 7 43.2 7.5 43.5 7.5 43.5 C 8.3 43.9 9 44.2 9 45.2 C 9 46.5 8 47.3 6.4 47.3 C 5.8 47.3 4.9 47.1 4.5 46.9 C 4.5 46.2 4.7 45.7 4.9 45.2 Z M 12.9 37.3 C 12.9 37.3 11.6 45.6 11.6 45.6 C 11.5 45.8 11.5 46 11.5 46.1 C 11.5 46.4 11.6 46.5 12.1 46.5 C 12.09 46.47 12.7 46.5 12.7 46.5 C 12.7 46.5 12.57 46.92 12.6 46.9 C 12.3 47.1 11.8 47.3 11.3 47.3 C 10.6 47.3 10.4 46.9 10.4 46.3 C 10.4 46.2 10.4 45.9 10.4 45.8 C 10.42 45.8 11.6 38.3 11.6 38.3 L 10.5 38.1 C 10.5 38.1 10.51 37.68 10.5 37.7 C 11.1 37.5 11.9 37.3 12.9 37.3 Z M 16.9 40.5 C 17.4 40.5 17.9 40.7 18.2 41.1 C 18.4 40.8 18.7 40.6 18.9 40.5 C 18.93 40.48 19.3 40.6 19.3 40.6 C 19.3 40.6 18.51 45.63 18.5 45.6 C 18.5 45.8 18.4 46 18.4 46.1 C 18.4 46.4 18.6 46.5 19 46.5 C 19.04 46.47 19.6 46.5 19.6 46.5 C 19.6 46.5 19.51 46.92 19.5 46.9 C 19.2 47.1 18.8 47.3 18.2 47.3 C 17.6 47.3 17.4 46.9 17.4 46.3 C 17.4 46.2 17.4 45.9 17.4 45.8 C 17.4 45.8 17.5 45.5 17.5 45.5 C 16.9 46.7 16.1 47.3 15.2 47.3 C 14.2 47.3 13.7 46.5 13.7 45.2 C 13.7 42.9 14.8 40.5 16.9 40.5 Z M 17.5 44.9 C 17.5 44.9 18.1 41.4 18.1 41.4 C 17.8 41.3 17.5 41.2 17.2 41.2 C 15.7 41.2 14.8 43.2 14.8 45.1 C 14.8 46 15.1 46.4 15.7 46.4 C 16.4 46.4 16.9 45.8 17.5 44.9 Z M 23 40.5 C 23 40.5 22.7 42.2 22.7 42.2 C 23.4 41.1 24.1 40.5 25 40.5 C 25.9 40.5 26.3 41 26.3 41.6 C 26.3 41.8 26.3 42 26.3 42.1 C 26.3 42.1 25.6 45.6 25.6 45.6 C 25.6 45.8 25.5 46 25.5 46.1 C 25.5 46.4 25.7 46.5 26.2 46.5 C 26.15 46.47 26.7 46.5 26.7 46.5 C 26.7 46.5 26.63 46.92 26.6 46.9 C 26.3 47.1 25.9 47.3 25.3 47.3 C 24.7 47.3 24.4 46.9 24.4 46.4 C 24.4 46.2 24.4 45.9 24.5 45.8 C 24.5 45.8 25.1 42.4 25.1 42.4 C 25.1 42.3 25.1 42.1 25.1 42 C 25.1 41.6 25 41.4 24.5 41.4 C 24 41.4 23.4 41.8 22.6 42.9 C 22.57 42.93 21.9 47.1 21.9 47.1 L 20.8 47.1 L 21.7 41.4 L 20.7 41.3 C 20.7 41.3 20.71 40.82 20.7 40.8 C 21.3 40.6 22 40.5 23 40.5 Z M 33.9 37.3 C 33.9 37.3 32.6 45.6 32.6 45.6 C 32.6 45.8 32.6 46 32.6 46.1 C 32.6 46.4 32.7 46.5 33.1 46.5 C 33.15 46.47 33.7 46.5 33.7 46.5 C 33.7 46.5 33.63 46.92 33.6 46.9 C 33.3 47.1 32.9 47.3 32.3 47.3 C 31.7 47.3 31.5 46.9 31.5 46.3 C 31.5 46.2 31.5 45.9 31.5 45.8 C 31.5 45.8 31.6 45.5 31.6 45.5 C 31 46.7 30.3 47.3 29.3 47.3 C 28.3 47.3 27.8 46.5 27.8 45.2 C 27.8 42.9 28.9 40.5 31 40.5 C 31.5 40.5 32 40.7 32.3 41 C 32.25 41.01 32.7 38.3 32.7 38.3 L 31.5 38.1 C 31.5 38.1 31.57 37.68 31.6 37.7 C 32.1 37.5 33 37.3 33.9 37.3 Z M 31.6 44.9 C 31.6 44.9 32.2 41.4 32.2 41.4 C 31.9 41.3 31.7 41.2 31.3 41.2 C 29.8 41.2 28.9 43.2 28.9 45.1 C 28.9 46 29.2 46.4 29.8 46.4 C 30.5 46.4 31.1 45.8 31.6 44.9 Z M 37 46.6 C 37.3 46.5 37.6 46.4 38 46.4 C 38 46.4 39.2 38.9 39.2 38.9 C 38.7 38.9 38.4 38.8 38.1 38.7 C 38.08 38.69 38.2 38.2 38.2 38.2 C 38.2 38.2 44.63 38.18 44.6 38.2 C 44.6 38.9 44.6 39.7 44.3 40.5 C 44.29 40.53 43.7 40.5 43.7 40.5 L 43.6 38.9 L 40.4 38.9 L 39.9 42.3 C 39.9 42.3 41.8 42.33 41.8 42.3 C 41.9 42 42 41.6 42.2 41.3 C 42.2 41.3 42.8 41.3 42.8 41.3 C 42.8 42.3 42.6 43.4 42.4 44.3 C 42.4 44.3 41.8 44.3 41.8 44.3 C 41.7 43.9 41.7 43.4 41.7 43 C 41.72 43 39.8 43 39.8 43 L 39.2 46.5 L 42.4 46.5 L 43.3 44.8 C 43.3 44.8 43.96 44.79 44 44.8 C 44 45.4 43.7 46.5 43.4 47.1 C 43.4 47.14 36.9 47.1 36.9 47.1 L 37 46.6 C 37 46.6 36.99 46.64 37 46.6 Z M 47.2 40.5 C 47.15 40.48 48 43.1 48 43.1 C 48 43.1 49.45 40.7 49.4 40.7 C 50 40.6 50.3 40.6 50.8 40.6 C 50.8 40.6 50.7 41.1 50.7 41.1 C 50.6 41.2 50.3 41.3 50.1 41.4 C 50.06 41.38 48.2 43.8 48.2 43.8 C 48.2 43.8 48.94 45.8 48.9 45.8 C 49.1 46.4 49.2 46.5 49.7 46.5 C 49.73 46.47 50.2 46.5 50.2 46.5 C 50.2 46.5 50.17 46.92 50.2 46.9 C 49.9 47.1 49.6 47.3 49.1 47.3 C 48.6 47.3 48.2 47 47.9 46.2 C 47.93 46.25 47.4 44.6 47.4 44.6 L 45.9 47.1 L 44.5 47.1 C 44.5 47.1 44.6 46.64 44.6 46.6 C 44.8 46.6 45.1 46.4 45.4 46.4 C 45.36 46.37 47.2 44 47.2 44 L 46.3 41.4 L 45.3 41.3 C 45.3 41.3 45.35 40.82 45.3 40.8 C 45.8 40.6 46.5 40.5 47.2 40.5 Z M 53.5 40.5 C 53.5 40.5 53.3 42.1 53.3 42.1 C 53.9 41 54.6 40.5 55.5 40.5 C 56.4 40.5 57 41.3 57 42.6 C 57 44.8 55.9 47.3 53.8 47.3 C 53.2 47.3 52.8 47.1 52.5 46.7 C 52.5 46.7 52.1 49.1 52.1 49.1 C 52.6 49.1 53.1 49.2 53.4 49.3 C 53.42 49.33 53.3 49.8 53.3 49.8 L 50 49.8 C 50 49.8 50.09 49.33 50.1 49.3 C 50.4 49.2 50.6 49.1 51 49.1 C 51.02 49.1 52.3 41.4 52.3 41.4 L 51.2 41.3 C 51.2 41.3 51.28 40.82 51.3 40.8 C 51.9 40.6 52.6 40.5 53.5 40.5 Z M 53.1 42.9 C 53.1 42.9 52.6 46.4 52.6 46.4 C 52.8 46.5 53.1 46.6 53.5 46.6 C 55 46.6 55.8 44.5 55.8 42.6 C 55.8 41.8 55.6 41.4 54.9 41.4 C 54.3 41.4 53.7 42 53.1 42.9 Z M 60.6 37.3 C 60.6 37.3 59.3 45.6 59.3 45.6 C 59.3 45.8 59.3 46 59.3 46.1 C 59.3 46.4 59.4 46.5 59.9 46.5 C 59.86 46.47 60.4 46.5 60.4 46.5 C 60.4 46.5 60.34 46.92 60.3 46.9 C 60 47.1 59.6 47.3 59 47.3 C 58.4 47.3 58.1 46.9 58.1 46.3 C 58.1 46.2 58.2 45.9 58.2 45.8 C 58.18 45.8 59.4 38.3 59.4 38.3 L 58.2 38.1 C 58.2 38.1 58.28 37.68 58.3 37.7 C 58.9 37.5 59.7 37.3 60.6 37.3 Z M 64.7 40.5 C 66.4 40.5 67 41.6 67 42.9 C 67 45 65.9 47.3 63.7 47.3 C 61.9 47.3 61.4 46.2 61.4 44.9 C 61.4 42.8 62.4 40.5 64.7 40.5 Z M 63.7 46.8 C 65.1 46.8 65.8 44.6 65.8 42.8 C 65.8 41.8 65.5 41 64.6 41 C 63.3 41 62.5 43.2 62.5 45 C 62.5 46 62.9 46.8 63.7 46.8 Z M 70.4 40.5 C 70.4 40.5 70.1 42.3 70.1 42.3 C 70.7 41.1 71.3 40.5 72.1 40.5 C 72.5 40.5 72.7 40.6 72.8 40.8 C 72.8 41.4 72.6 42 72.4 42.6 C 72.41 42.55 71.7 42.6 71.7 42.6 L 71.6 41.4 C 71.6 41.4 71.62 41.37 71.6 41.4 C 71.2 41.4 70.6 42 70 43.2 C 69.96 43.21 69.3 47.1 69.3 47.1 L 68.2 47.1 L 69.1 41.4 L 68.1 41.3 C 68.1 41.3 68.14 40.82 68.1 40.8 C 68.7 40.6 69.4 40.5 70.4 40.5 Z M 76.4 40.5 C 77.6 40.5 78.1 41.1 78.1 41.9 C 78.1 43.2 77.1 43.9 74.9 43.9 C 74.9 43.9 74.3 43.9 74.3 43.9 C 74.2 44.3 74.2 44.7 74.2 45 C 74.2 46 74.7 46.4 75.3 46.4 C 76.1 46.4 76.7 46 77.3 45 C 77.3 45 77.7 45.1 77.7 45.1 C 77.1 46.6 76.2 47.3 75 47.3 C 73.6 47.3 73 46.5 73 45 C 73 42.9 74 40.5 76.4 40.5 Z M 74.4 43.4 C 74.4 43.4 74.8 43.4 74.8 43.4 C 76.3 43.4 76.9 42.9 76.9 41.9 C 76.9 41.4 76.7 41 76.2 41 C 75.3 41 74.6 42.2 74.4 43.4 Z M 81.3 40.5 C 81.3 40.5 81 42.3 81 42.3 C 81.6 41.1 82.2 40.5 83 40.5 C 83.4 40.5 83.6 40.6 83.7 40.8 C 83.7 41.4 83.6 42 83.3 42.6 C 83.33 42.55 82.6 42.6 82.6 42.6 L 82.6 41.4 C 82.6 41.4 82.54 41.37 82.5 41.4 C 82.1 41.4 81.6 42 80.9 43.2 C 80.88 43.21 80.2 47.1 80.2 47.1 L 79.1 47.1 L 80.1 41.4 L 79 41.3 C 79 41.3 79.06 40.82 79.1 40.8 C 79.6 40.6 80.4 40.5 81.3 40.5 Z " stroke="none" fill="#fff"/>  </g></svg>