<?xml version="1.0" standalone="no"?><!DOCTYPE svg PUBLIC "-//W3C//DTD SVG 1.1//EN" "http://www.w3.org/Graphics/SVG/1.1/DTD/svg11.dtd"><svg xmlns="http://www.w3.org/2000/svg" xmlns:xlink="http://www.w3.org/1999/xlink" version="1.1" width="278px" height="83.8px" viewBox="0 0 278 83.8"><desc>Dolphin seem to enjoy cavorting in the bow waves of large boats These dolphin were observed from the deck of the</desc><defs/><g class="svg-textframe-underlines"><rect class="svg-underline" x="91.8" y="64.9" width="3.1" height="0.8" style="fill:#4f5cd5;"/><rect class="svg-underline" x="0" y="67" width="91.8" height="1.5" style="fill:#00aa32;"/></g><g id="Polygon7978"><path d="m92.6 63c0-.6.4-1 .9-1c.5 0 .9.4.9 1c0 .5-.4.9-.9.9c-.5 0-.9-.4-.9-.9z" stroke="none" fill="#4f5cd5"/></g><g id="Polygon7976"><path d="m1.6 39c0 0 1 3.68 1 3.7c.2.8.4 1.5.5 2.3c0 0 .1 0 .1 0c.1-.7.4-1.5.6-2.3c.01-.01 1.2-3.7 1.2-3.7l1.1 0c0 0 1.13 3.62 1.1 3.6c.3.9.5 1.7.7 2.4c0 0 0 0 0 0c.1-.7.3-1.5.6-2.4c-.03.03 1-3.6 1-3.6l1.3 0l-2.3 7.2l-1.2 0c0 0-1.14-3.41-1.1-3.4c-.3-.8-.5-1.5-.7-2.4c0 0 0 0 0 0c-.2.9-.4 1.6-.7 2.4c.03 0-1.1 3.4-1.1 3.4l-1.2 0l-2.2-7.2l1.3 0zm11.2 3.9c0 1.7 1.1 2.5 2.5 2.5c.9 0 1.5-.2 2-.4c0 0 .2.9.2.9c-.4.3-1.2.5-2.4.5c-2.2 0-3.6-1.5-3.6-3.7c0-2.2 1.3-3.9 3.4-3.9c2.4 0 3 2.1 3 3.4c0 .3 0 .5 0 .7c0 0-5.1 0-5.1 0zm3.9-1c0-.8-.4-2.1-1.9-2.1c-1.3 0-1.9 1.2-2 2.1c0 0 3.9 0 3.9 0zm3-.6c0-.9-.1-1.6-.1-2.3c-.01-.01 1.1 0 1.1 0l.1 1.4c0 0 .05.03 0 0c.4-.9 1.2-1.6 2.1-1.6c.1 0 .2.1.3.1c0 0 0 1.2 0 1.2c-.1 0-.2 0-.4 0c-.9 0-1.6.7-1.8 1.7c0 .1 0 .4 0 .6c-.03-.02 0 3.8 0 3.8l-1.3 0c0 0-.05-4.94 0-4.9zm5.5 1.6c0 1.7 1.2 2.5 2.5 2.5c1 0 1.5-.2 2-.4c0 0 .3.9.3.9c-.5.3-1.3.5-2.5.5c-2.2 0-3.5-1.5-3.5-3.7c0-2.2 1.2-3.9 3.4-3.9c2.3 0 3 2.1 3 3.4c0 .3-.1.5-.1.7c0 0-5.1 0-5.1 0zm3.9-1c0-.8-.4-2.1-1.8-2.1c-1.4 0-2 1.2-2.1 2.1c0 0 3.9 0 3.9 0zm12.8.7c0 2.6-1.9 3.8-3.6 3.8c-2 0-3.5-1.4-3.5-3.7c0-2.4 1.6-3.9 3.6-3.9c2.1 0 3.5 1.6 3.5 3.8zm-5.8 0c0 1.6.9 2.8 2.2 2.8c1.3 0 2.2-1.2 2.2-2.8c0-1.2-.6-2.8-2.1-2.8c-1.6 0-2.3 1.5-2.3 2.8zm7.5-7l1.3 0l0 4.6c0 0 .07-.04.1 0c.4-.8 1.3-1.4 2.4-1.4c1.9 0 3.1 1.5 3.1 3.7c0 2.6-1.6 3.9-3.3 3.9c-1 0-1.8-.4-2.4-1.3c0-.03 0 0 0 0l-.1 1.1c0 0-1.12.05-1.1 0c0-.4 0-1.2 0-1.8c.04-.02 0-8.8 0-8.8zm1.3 7.7c0 .2.1.4.1.5c.2.9 1 1.6 2 1.6c1.4 0 2.2-1.2 2.2-2.8c0-1.5-.8-2.7-2.2-2.7c-.9 0-1.7.6-2 1.6c0 .2-.1.3-.1.5c0 0 0 1.3 0 1.3zm7.2 1.6c.4.3 1.1.5 1.7.5c1 0 1.4-.4 1.4-1.1c0-.6-.4-.9-1.3-1.3c-1.3-.5-2-1.2-2-2c0-1.2 1-2.2 2.5-2.2c.8 0 1.4.2 1.8.5c0 0-.3.9-.3.9c-.3-.1-.8-.4-1.5-.4c-.8 0-1.2.5-1.2 1c0 .6.4.9 1.4 1.2c1.2.5 1.9 1.1 1.9 2.2c0 1.3-1 2.2-2.7 2.2c-.8 0-1.5-.2-2-.5c0 0 .3-1 .3-1zm6.9-2c0 1.7 1.1 2.5 2.5 2.5c.9 0 1.5-.2 2-.4c0 0 .2.9.2.9c-.4.3-1.2.5-2.4.5c-2.2 0-3.6-1.5-3.6-3.7c0-2.2 1.3-3.9 3.4-3.9c2.4 0 3 2.1 3 3.4c0 .3 0 .5 0 .7c0 0-5.1 0-5.1 0zm3.9-1c0-.8-.4-2.1-1.9-2.1c-1.3 0-1.9 1.2-2 2.1c0 0 3.9 0 3.9 0zm3-.6c0-.9-.1-1.6-.1-2.3c-.01-.01 1.1 0 1.1 0l.1 1.4c0 0 .05.03 0 0c.4-.9 1.2-1.6 2.1-1.6c.1 0 .2.1.3.1c0 0 0 1.2 0 1.2c-.1 0-.2 0-.4 0c-.9 0-1.6.7-1.8 1.7c0 .1 0 .4 0 .6c-.03-.02 0 3.8 0 3.8l-1.3 0c0 0-.05-4.94 0-4.9zm5.8-2.3c0 0 1.44 4.06 1.4 4.1c.3.6.5 1.2.6 1.8c0 0 .1 0 .1 0c.1-.6.3-1.2.6-1.8c-.02-.05 1.4-4.1 1.4-4.1l1.4 0l-2.9 7.2l-1.2 0l-2.8-7.2l1.4 0zm7.4 3.9c0 1.7 1.1 2.5 2.5 2.5c.9 0 1.5-.2 2-.4c0 0 .2.9.2.9c-.4.3-1.3.5-2.4.5c-2.2 0-3.6-1.5-3.6-3.7c0-2.2 1.3-3.9 3.4-3.9c2.4 0 3 2.1 3 3.4c0 .3 0 .5 0 .7c0 0-5.1 0-5.1 0zm3.8-1c.1-.8-.3-2.1-1.8-2.1c-1.3 0-1.9 1.2-2 2.1c0 0 3.8 0 3.8 0zm9.3-6.3c0 0-.01 8.77 0 8.8c0 .6 0 1.4 0 1.8c.05.05-1.1 0-1.1 0l-.1-1.2c0 0-.03-.01 0 0c-.4.8-1.3 1.4-2.5 1.4c-1.7 0-3.1-1.5-3.1-3.7c0-2.4 1.5-3.9 3.3-3.9c1.1 0 1.8.6 2.2 1.1c-.05.03 0 0 0 0l0-4.3l1.3 0zm-1.3 6.3c0-.1 0-.3-.1-.5c-.2-.8-.9-1.5-1.9-1.5c-1.3 0-2.2 1.2-2.2 2.8c0 1.4.8 2.7 2.2 2.7c.9 0 1.7-.6 1.9-1.6c.1-.2.1-.4.1-.6c0 0 0-1.3 0-1.3zm7 4.3l0-6.2l-1 0l0-1l1 0c0 0-.04-.35 0-.4c0-1 .2-1.9.8-2.5c.5-.5 1.2-.7 1.8-.7c.4 0 .8.1 1.1.2c0 0-.2 1.1-.2 1.1c-.2-.1-.4-.2-.8-.2c-1.2 0-1.4 1-1.4 2.1c-.04 0 0 .4 0 .4l1.7 0l0 1l-1.7 0l0 6.2l-1.3 0zm4.3-4.9c0-.9 0-1.6-.1-2.3c.02-.01 1.2 0 1.2 0l0 1.4c0 0 .08.03.1 0c.3-.9 1.1-1.6 2-1.6c.1 0 .2.1.4.1c0 0 0 1.2 0 1.2c-.2 0-.3 0-.5 0c-.9 0-1.6.7-1.8 1.7c0 .1 0 .4 0 .6c0-.02 0 3.8 0 3.8l-1.3 0c0 0-.02-4.94 0-4.9zm11.4 1.3c0 2.6-1.9 3.8-3.6 3.8c-2 0-3.5-1.4-3.5-3.7c0-2.4 1.6-3.9 3.6-3.9c2.1 0 3.5 1.6 3.5 3.8zm-5.8 0c0 1.6.9 2.8 2.2 2.8c1.3 0 2.2-1.2 2.2-2.8c0-1.2-.6-2.8-2.1-2.8c-1.6 0-2.3 1.5-2.3 2.8zm7.5-1.6c0-.8 0-1.4 0-2c-.04-.01 1.1 0 1.1 0l.1 1.2c0 0 .02-.03 0 0c.4-.7 1.1-1.4 2.3-1.4c1 0 1.7.6 2.1 1.5c0 0 0 0 0 0c.2-.4.5-.7.8-.9c.4-.4.9-.6 1.6-.6c1 0 2.4.7 2.4 3.2c0-.01 0 4.2 0 4.2l-1.3 0c0 0 .01-4.05 0-4c0-1.5-.5-2.3-1.6-2.3c-.7 0-1.3.6-1.5 1.2c-.1.2-.1.4-.1.7c-.05-.04 0 4.4 0 4.4l-1.3 0c0 0-.04-4.3 0-4.3c0-1.2-.5-2-1.6-2c-.8 0-1.4.7-1.6 1.3c-.1.2-.1.5-.1.7c.01-.02 0 4.3 0 4.3l-1.3 0c0 0 .02-5.24 0-5.2zm17.4-3.7l0 1.7l1.9 0l0 1l-1.9 0c0 0 .05 3.91 0 3.9c0 .9.3 1.4 1 1.4c.4 0 .6 0 .8-.1c0 0 .1 1 .1 1c-.3.1-.7.2-1.2.2c-.6 0-1.1-.2-1.4-.5c-.4-.4-.5-1.1-.5-1.9c-.04-.04 0-4 0-4l-1.2 0l0-1l1.2 0l0-1.4l1.2-.3zm3.5-1.7l1.3 0l0 4.5c0 0 .05.04 0 0c.3-.3.6-.7 1-.9c.4-.2.8-.4 1.3-.4c1 0 2.6.6 2.6 3.1c-.02.03 0 4.3 0 4.3l-1.3 0c0 0-.04-4.12 0-4.1c0-1.2-.5-2.2-1.7-2.2c-.9 0-1.5.6-1.8 1.3c-.1.2-.1.4-.1.7c.02-.03 0 4.3 0 4.3l-1.3 0l0-10.6zm9.1 7.3c.1 1.7 1.2 2.5 2.5 2.5c1 0 1.6-.2 2-.4c0 0 .3.9.3.9c-.5.3-1.3.5-2.5.5c-2.2 0-3.5-1.5-3.5-3.7c0-2.2 1.3-3.9 3.4-3.9c2.4 0 3 2.1 3 3.4c0 .3 0 .5-.1.7c0 0-5.1 0-5.1 0zm3.9-1c0-.8-.3-2.1-1.8-2.1c-1.4 0-1.9 1.2-2.1 2.1c0 0 3.9 0 3.9 0zm12.5-6.3c0 0 0 8.77 0 8.8c0 .6 0 1.4.1 1.8c-.04.05-1.2 0-1.2 0l-.1-1.2c0 0-.02-.01 0 0c-.4.8-1.3 1.4-2.5 1.4c-1.7 0-3.1-1.5-3.1-3.7c0-2.4 1.5-3.9 3.3-3.9c1.1 0 1.8.6 2.2 1.1c-.04.03 0 0 0 0l0-4.3l1.3 0zm-1.3 6.3c0-.1 0-.3-.1-.5c-.2-.8-.9-1.5-1.9-1.5c-1.3 0-2.1 1.2-2.1 2.8c0 1.4.7 2.7 2.1 2.7c.9 0 1.7-.6 1.9-1.6c.1-.2.1-.4.1-.6c0 0 0-1.3 0-1.3zm4.3 1c0 1.7 1.2 2.5 2.5 2.5c.9 0 1.5-.2 2-.4c0 0 .3.9.3.9c-.5.3-1.3.5-2.5.5c-2.2 0-3.5-1.5-3.5-3.7c0-2.2 1.2-3.9 3.4-3.9c2.3 0 3 2.1 3 3.4c0 .3-.1.5-.1.7c0 0-5.1 0-5.1 0zm3.9-1c0-.8-.4-2.1-1.8-2.1c-1.4 0-2 1.2-2.1 2.1c0 0 3.9 0 3.9 0zm8.1 4.1c-.3.2-1.1.4-2 .4c-2.2 0-3.7-1.5-3.7-3.7c0-2.2 1.6-3.9 3.9-3.9c.8 0 1.5.2 1.9.4c0 0-.3 1-.3 1c-.3-.1-.8-.3-1.6-.3c-1.6 0-2.5 1.2-2.5 2.7c0 1.7 1.1 2.8 2.5 2.8c.7 0 1.2-.2 1.6-.4c0 0 .2 1 .2 1zm3-3.7c0 0 0 .02 0 0c.2-.2.4-.5.6-.8c.03 0 2.2-2.5 2.2-2.5l1.5 0l-2.7 3l3.2 4.2l-1.7 0l-2.5-3.4l-.6.7l0 2.7l-1.3 0l0-10.6l1.3 0l0 6.7zm15.6.3c0 2.6-1.9 3.8-3.6 3.8c-2 0-3.5-1.4-3.5-3.7c0-2.4 1.6-3.9 3.6-3.9c2.1 0 3.5 1.6 3.5 3.8zm-5.7 0c0 1.6.9 2.8 2.1 2.8c1.3 0 2.2-1.2 2.2-2.8c0-1.2-.6-2.8-2.1-2.8c-1.6 0-2.2 1.5-2.2 2.8zm7.6 3.6l0-6.2l-1 0l0-1l1 0c0 0-.03-.35 0-.4c0-1 .2-1.9.8-2.5c.5-.5 1.2-.7 1.8-.7c.5 0 .9.1 1.1.2c0 0-.2 1.1-.2 1.1c-.2-.1-.4-.2-.8-.2c-1.1 0-1.4 1-1.4 2.1c-.02 0 0 .4 0 .4l1.7 0l0 1l-1.7 0l0 6.2l-1.3 0zm9.1-8.9l0 1.7l1.9 0l0 1l-1.9 0c0 0 .04 3.91 0 3.9c0 .9.3 1.4 1 1.4c.4 0 .6 0 .8-.1c0 0 .1 1 .1 1c-.3.1-.7.2-1.2.2c-.6 0-1.1-.2-1.4-.5c-.4-.4-.6-1.1-.6-1.9c.05-.04 0-4 0-4l-1.1 0l0-1l1.1 0l0-1.4l1.3-.3zm3.5-1.7l1.3 0l0 4.5c0 0 .04.04 0 0c.2-.3.6-.7 1-.9c.4-.2.8-.4 1.3-.4c1 0 2.6.6 2.6 3.1c-.03.03 0 4.3 0 4.3l-1.4 0c0 0 .05-4.12 0-4.1c0-1.2-.4-2.2-1.6-2.2c-.9 0-1.5.6-1.8 1.3c-.1.2-.1.4-.1.7c.01-.03 0 4.3 0 4.3l-1.3 0l0-10.6zm9.1 7.3c.1 1.7 1.2 2.5 2.5 2.5c1 0 1.5-.2 2-.4c0 0 .3.9.3.9c-.5.3-1.3.5-2.5.5c-2.2 0-3.5-1.5-3.5-3.7c0-2.2 1.3-3.9 3.4-3.9c2.4 0 3 2.1 3 3.4c0 .3 0 .5-.1.7c0 0-5.1 0-5.1 0zm3.9-1c0-.8-.4-2.1-1.8-2.1c-1.4 0-2 1.2-2.1 2.1c0 0 3.9 0 3.9 0z" stroke="none" fill="#fff"/><a xlink:href="http://www.nps.gov/chis/learn/news/ipco-new-boat.htm?target=_lightbox" class="lightbox" xlink:show="undefined" xlink:title="Island Explorer"><rect style="fill:transparent;" x="-1" y="52" width="93" height="15"/></a></g><g id="Polygon7975"><path d="m1.1 18.1l1.3 0l0 4.6c0 0 .03-.04 0 0c.5-.8 1.3-1.4 2.5-1.4c1.8 0 3.1 1.5 3.1 3.7c0 2.6-1.7 3.9-3.3 3.9c-1 0-1.9-.4-2.4-1.3c-.04-.03-.1 0-.1 0l0 1.1c0 0-1.16.05-1.2 0c.1-.4.1-1.2.1-1.8c0-.02 0-8.8 0-8.8zm1.3 7.7c0 .2 0 .4.1.5c.2.9 1 1.6 1.9 1.6c1.4 0 2.2-1.2 2.2-2.8c0-1.5-.7-2.7-2.1-2.7c-.9 0-1.8.6-2 1.6c-.1.2-.1.3-.1.5c0 0 0 1.3 0 1.3zm13.9-.7c0 2.6-1.9 3.8-3.6 3.8c-2 0-3.5-1.4-3.5-3.7c0-2.4 1.6-3.9 3.6-3.9c2.1 0 3.5 1.6 3.5 3.8zm-5.8 0c0 1.6.9 2.8 2.2 2.8c1.3 0 2.2-1.2 2.2-2.8c0-1.2-.6-2.8-2.2-2.8c-1.5 0-2.2 1.5-2.2 2.8zm7.9-3.6c0 0 1.01 3.68 1 3.7c.2.8.4 1.5.5 2.3c0 0 .1 0 .1 0c.1-.7.4-1.5.6-2.3c.03-.01 1.2-3.7 1.2-3.7l1.1 0c0 0 1.14 3.62 1.1 3.6c.3.9.5 1.7.7 2.4c0 0 0 0 0 0c.2-.7.3-1.5.6-2.4c-.01.03 1-3.6 1-3.6l1.3 0l-2.3 7.2l-1.2 0c0 0-1.12-3.41-1.1-3.4c-.3-.8-.5-1.5-.7-2.4c0 0 0 0 0 0c-.2.9-.4 1.6-.7 2.4c.04 0-1.1 3.4-1.1 3.4l-1.2 0l-2.2-7.2l1.3 0zm14.4 0c0 0 .98 3.68 1 3.7c.2.8.4 1.5.5 2.3c0 0 .1 0 .1 0c.1-.7.4-1.5.6-2.3c-.01-.01 1.2-3.7 1.2-3.7l1.1 0c0 0 1.11 3.62 1.1 3.6c.3.9.5 1.7.7 2.4c0 0 0 0 0 0c.1-.7.3-1.5.6-2.4c-.04.03 1-3.6 1-3.6l1.3 0l-2.3 7.2l-1.2 0c0 0-1.15-3.41-1.2-3.4c-.2-.8-.4-1.5-.6-2.4c0 0 0 0 0 0c-.2.9-.4 1.6-.7 2.4c.01 0-1.2 3.4-1.2 3.4l-1.2 0l-2.1-7.2l1.3 0zm15.6 5.5c0 .6.1 1.3.1 1.7c.04.05-1.1 0-1.1 0l-.1-.9c0 0-.09.04-.1 0c-.4.6-1.2 1.1-2.2 1.1c-1.5 0-2.2-1-2.2-2.1c0-1.7 1.5-2.7 4.3-2.7c0 0 0-.1 0-.1c0-.6-.1-1.7-1.6-1.7c-.7 0-1.4.2-1.9.6c0 0-.3-.9-.3-.9c.6-.4 1.5-.7 2.4-.7c2.2 0 2.7 1.6 2.7 3c0 0 0 2.7 0 2.7zm-1.2-2c-1.5 0-3.1.3-3.1 1.7c0 .9.6 1.2 1.2 1.2c1 0 1.6-.6 1.8-1.2c0-.1.1-.3.1-.4c0 0 0-1.3 0-1.3zm3.8-3.5c0 0 1.45 4.06 1.5 4.1c.2.6.4 1.2.5 1.8c0 0 .1 0 .1 0c.1-.6.4-1.2.6-1.8c0-.05 1.4-4.1 1.4-4.1l1.4 0l-2.9 7.2l-1.2 0l-2.8-7.2l1.4 0zm7.4 3.9c0 1.7 1.1 2.5 2.5 2.5c.9 0 1.5-.2 2-.4c0 0 .2.9.2.9c-.4.3-1.2.5-2.4.5c-2.2 0-3.6-1.5-3.6-3.7c0-2.2 1.3-3.9 3.4-3.9c2.4 0 3 2.1 3 3.4c0 .3 0 .5 0 .7c0 0-5.1 0-5.1 0zm3.9-1c0-.8-.4-2.1-1.9-2.1c-1.3 0-1.9 1.2-2 2.1c0 0 3.9 0 3.9 0zm2.8 3c.4.3 1.1.5 1.7.5c1 0 1.4-.4 1.4-1.1c0-.6-.4-.9-1.3-1.3c-1.3-.5-1.9-1.2-1.9-2c0-1.2.9-2.2 2.5-2.2c.7 0 1.3.2 1.7.5c0 0-.3.9-.3.9c-.3-.1-.8-.4-1.5-.4c-.8 0-1.2.5-1.2 1c0 .6.4.9 1.4 1.2c1.2.5 1.9 1.1 1.9 2.2c0 1.3-1 2.2-2.7 2.2c-.8 0-1.5-.2-2-.5c0 0 .3-1 .3-1zm16-2.3c0 2.6-1.9 3.8-3.6 3.8c-2 0-3.5-1.4-3.5-3.7c0-2.4 1.6-3.9 3.6-3.9c2.1 0 3.5 1.6 3.5 3.8zm-5.8 0c0 1.6.9 2.8 2.2 2.8c1.3 0 2.2-1.2 2.2-2.8c0-1.2-.6-2.8-2.1-2.8c-1.6 0-2.3 1.5-2.3 2.8zm7.7 3.6l0-6.2l-1 0l0-1l1 0c0 0-.04-.35 0-.4c0-1 .2-1.9.8-2.5c.5-.5 1.2-.7 1.8-.7c.5 0 .8.1 1.1.2c0 0-.2 1.1-.2 1.1c-.2-.1-.4-.2-.8-.2c-1.1 0-1.4 1-1.4 2.1c-.03 0 0 .4 0 .4l1.7 0l0 1l-1.7 0l0 6.2l-1.3 0zm7.5-10.6l1.4 0l0 10.6l-1.4 0l0-10.6zm8.8 8.9c0 .6 0 1.3.1 1.7c-.04.05-1.2 0-1.2 0l-.1-.9c0 0-.08.04-.1 0c-.4.6-1.2 1.1-2.2 1.1c-1.5 0-2.2-1-2.2-2.1c0-1.7 1.5-2.7 4.3-2.7c0 0 0-.1 0-.1c0-.6-.1-1.7-1.6-1.7c-.7 0-1.4.2-1.9.6c0 0-.3-.9-.3-.9c.6-.4 1.5-.7 2.4-.7c2.2 0 2.8 1.6 2.8 3c0 0 0 2.7 0 2.7zm-1.3-2c-1.5 0-3.1.3-3.1 1.7c0 .9.6 1.2 1.2 1.2c1 0 1.6-.6 1.8-1.2c.1-.1.1-.3.1-.4c0 0 0-1.3 0-1.3zm3.5-1.2c0-.9-.1-1.6-.1-2.3c0-.01 1.2 0 1.2 0l0 1.4c0 0 .06.03.1 0c.3-.9 1.1-1.6 2-1.6c.1 0 .2.1.3.1c0 0 0 1.2 0 1.2c-.1 0-.2 0-.4 0c-.9 0-1.6.7-1.8 1.7c0 .1 0 .4 0 .6c-.02-.02 0 3.8 0 3.8l-1.3 0c0 0-.04-4.94 0-4.9zm11 3.9c0 1.7-.3 2.7-1 3.3c-.7.7-1.7.9-2.7.9c-.8 0-1.8-.2-2.4-.6c0 0 .4-1 .4-1c.4.3 1.2.6 2.1.6c1.3 0 2.3-.8 2.3-2.6c.02 0 0-.8 0-.8c0 0-.01.01 0 0c-.4.7-1.2 1.2-2.3 1.2c-1.8 0-3.1-1.5-3.1-3.5c0-2.5 1.6-3.9 3.3-3.9c1.2 0 1.9.7 2.2 1.3c.04-.02.1 0 .1 0l0-1.1c0 0 1.19-.01 1.2 0c-.1.5-.1 1.1-.1 2c0 0 0 4.2 0 4.2zm-1.3-3.3c0-.3 0-.5-.1-.6c-.2-.8-.8-1.4-1.8-1.4c-1.3 0-2.2 1-2.2 2.7c0 1.4.8 2.6 2.2 2.6c.8 0 1.5-.5 1.8-1.3c.1-.3.1-.5.1-.7c0 0 0-1.3 0-1.3zm4.3 1c0 1.7 1.2 2.5 2.5 2.5c.9 0 1.5-.2 2-.4c0 0 .3.9.3.9c-.5.3-1.3.5-2.5.5c-2.2 0-3.5-1.5-3.5-3.7c0-2.2 1.2-3.9 3.4-3.9c2.3 0 3 2.1 3 3.4c0 .3-.1.5-.1.7c0 0-5.1 0-5.1 0zm3.9-1c0-.8-.4-2.1-1.8-2.1c-1.4 0-2 1.2-2.1 2.1c0 0 3.9 0 3.9 0zm6.2-6.3l1.3 0l0 4.6c0 0 .06-.04.1 0c.4-.8 1.3-1.4 2.4-1.4c1.8 0 3.1 1.5 3.1 3.7c0 2.6-1.6 3.9-3.3 3.9c-1 0-1.9-.4-2.4-1.3c-.01-.03 0 0 0 0l-.1 1.1c0 0-1.14.05-1.1 0c0-.4 0-1.2 0-1.8c.02-.02 0-8.8 0-8.8zm1.3 7.7c0 .2 0 .4.1.5c.2.9 1 1.6 2 1.6c1.4 0 2.2-1.2 2.2-2.8c0-1.5-.8-2.7-2.2-2.7c-.9 0-1.7.6-2 1.6c0 .2-.1.3-.1.5c0 0 0 1.3 0 1.3zm13.9-.7c0 2.6-1.9 3.8-3.6 3.8c-2 0-3.5-1.4-3.5-3.7c0-2.4 1.6-3.9 3.6-3.9c2.1 0 3.5 1.6 3.5 3.8zm-5.7 0c0 1.6.9 2.8 2.1 2.8c1.3 0 2.3-1.2 2.3-2.8c0-1.2-.7-2.8-2.2-2.8c-1.6 0-2.2 1.5-2.2 2.8zm12.5 1.9c0 .6.1 1.3.1 1.7c.05.05-1.1 0-1.1 0l-.1-.9c0 0-.09.04-.1 0c-.4.6-1.2 1.1-2.2 1.1c-1.5 0-2.2-1-2.2-2.1c0-1.7 1.5-2.7 4.3-2.7c0 0 0-.1 0-.1c0-.6-.1-1.7-1.6-1.7c-.7 0-1.4.2-1.9.6c0 0-.3-.9-.3-.9c.6-.4 1.5-.7 2.4-.7c2.2 0 2.7 1.6 2.7 3c0 0 0 2.7 0 2.7zm-1.2-2c-1.5 0-3.1.3-3.1 1.7c0 .9.6 1.2 1.2 1.2c1 0 1.6-.6 1.8-1.2c.1-.1.1-.3.1-.4c0 0 0-1.3 0-1.3zm5-5.2l0 1.7l1.9 0l0 1l-1.9 0c0 0-.02 3.91 0 3.9c0 .9.2 1.4 1 1.4c.3 0 .5 0 .7-.1c0 0 .1 1 .1 1c-.3.1-.7.2-1.2.2c-.6 0-1.1-.2-1.4-.5c-.4-.4-.5-1.1-.5-1.9c-.01-.04 0-4 0-4l-1.1 0l0-1l1.1 0l0-1.4l1.3-.3zm3.2 7.6c.5.3 1.1.5 1.8.5c.9 0 1.4-.4 1.4-1.1c0-.6-.4-.9-1.3-1.3c-1.4-.5-2-1.2-2-2c0-1.2 1-2.2 2.5-2.2c.8 0 1.4.2 1.8.5c0 0-.3.9-.3.9c-.3-.1-.8-.4-1.5-.4c-.8 0-1.2.5-1.2 1c0 .6.4.9 1.4 1.2c1.2.5 1.9 1.1 1.9 2.2c0 1.3-1 2.2-2.7 2.2c-.8 0-1.6-.2-2.1-.5c0 0 .3-1 .3-1zm5.8.6c0-.6.3-1 .9-1c.5 0 .8.4.8 1c0 .5-.3.9-.9.9c-.5 0-.8-.4-.8-.9zm8.1-8.3l-3.1 0l0-1.1l7.5 0l0 1.1l-3.1 0l0 9l-1.3 0l0-9zm5.4-1.6l1.3 0l0 4.5c0 0 .07.04.1 0c.2-.3.5-.7.9-.9c.4-.2.9-.4 1.4-.4c.9 0 2.5.6 2.5 3.1c0 .03 0 4.3 0 4.3l-1.3 0c0 0-.02-4.12 0-4.1c0-1.2-.5-2.2-1.7-2.2c-.9 0-1.5.6-1.8 1.3c0 .2-.1.4-.1.7c.04-.03 0 4.3 0 4.3l-1.3 0l0-10.6zm9.2 7.3c0 1.7 1.1 2.5 2.4 2.5c1 0 1.6-.2 2.1-.4c0 0 .2.9.2.9c-.5.3-1.3.5-2.4.5c-2.3 0-3.6-1.5-3.6-3.7c0-2.2 1.3-3.9 3.4-3.9c2.4 0 3 2.1 3 3.4c0 .3 0 .5 0 .7c0 0-5.1 0-5.1 0zm3.8-1c0-.8-.3-2.1-1.8-2.1c-1.4 0-1.9 1.2-2 2.1c0 0 3.8 0 3.8 0zm2.8 3c.4.3 1.1.5 1.8.5c.9 0 1.4-.4 1.4-1.1c0-.6-.4-.9-1.4-1.3c-1.3-.5-1.9-1.2-1.9-2c0-1.2 1-2.2 2.5-2.2c.8 0 1.4.2 1.8.5c0 0-.3.9-.3.9c-.3-.1-.8-.4-1.5-.4c-.8 0-1.2.5-1.2 1c0 .6.4.9 1.4 1.2c1.2.5 1.9 1.1 1.9 2.2c0 1.3-1 2.2-2.7 2.2c-.8 0-1.6-.2-2.1-.5c0 0 .3-1 .3-1zm7-2c0 1.7 1.1 2.5 2.5 2.5c.9 0 1.5-.2 2-.4c0 0 .2.9.2.9c-.5.3-1.3.5-2.4.5c-2.3 0-3.6-1.5-3.6-3.7c0-2.2 1.3-3.9 3.4-3.9c2.4 0 3 2.1 3 3.4c0 .3 0 .5 0 .7c0 0-5.1 0-5.1 0zm3.8-1c0-.8-.3-2.1-1.8-2.1c-1.3 0-1.9 1.2-2 2.1c0 0 3.8 0 3.8 0zm12.5-6.3c0 0 .03 8.77 0 8.8c0 .6.1 1.4.1 1.8c-.01.05-1.2 0-1.2 0l0-1.2c0 0-.09-.01-.1 0c-.4.8-1.2 1.4-2.4 1.4c-1.8 0-3.2-1.5-3.2-3.7c0-2.4 1.5-3.9 3.3-3.9c1.1 0 1.9.6 2.2 1.1c-.01.03 0 0 0 0l0-4.3l1.3 0zm-1.3 6.3c0-.1 0-.3 0-.5c-.2-.8-1-1.5-1.9-1.5c-1.4 0-2.2 1.2-2.2 2.8c0 1.4.7 2.7 2.1 2.7c.9 0 1.7-.6 2-1.6c0-.2 0-.4 0-.6c0 0 0-1.3 0-1.3zm10.2.7c0 2.6-1.9 3.8-3.6 3.8c-2 0-3.5-1.4-3.5-3.7c0-2.4 1.6-3.9 3.6-3.9c2.1 0 3.5 1.6 3.5 3.8zm-5.8 0c0 1.6.9 2.8 2.2 2.8c1.3 0 2.2-1.2 2.2-2.8c0-1.2-.6-2.8-2.1-2.8c-1.6 0-2.3 1.5-2.3 2.8zm7.5-7l1.3 0l0 10.6l-1.3 0l0-10.6zm3.6 5.8c0-1 0-1.7 0-2.4c-.03-.01 1.1 0 1.1 0l.1 1.2c0 0 .05.03 0 0c.6-.8 1.4-1.4 2.6-1.4c1.8 0 3.1 1.5 3.1 3.7c0 2.6-1.6 3.9-3.3 3.9c-1 0-1.8-.4-2.2-1.1c-.03-.02-.1 0-.1 0l0 3.9l-1.3 0c0 0 .03-7.84 0-7.8zm1.3 1.9c0 .2.1.4.1.5c.2 1 1 1.6 2 1.6c1.4 0 2.2-1.2 2.2-2.8c0-1.5-.8-2.7-2.2-2.7c-.9 0-1.7.6-2 1.6c0 .2-.1.4-.1.5c0 0 0 1.3 0 1.3zm7.3-7.7l1.4 0l0 4.5c0 0-.01.04 0 0c.2-.3.5-.7.9-.9c.4-.2.9-.4 1.4-.4c1 0 2.5.6 2.5 3.1c.02.03 0 4.3 0 4.3l-1.3 0c0 0 0-4.12 0-4.1c0-1.2-.4-2.2-1.7-2.2c-.8 0-1.5.6-1.7 1.3c-.1.2-.1.4-.1.7c-.04-.03 0 4.3 0 4.3l-1.4 0l0-10.6zm8.4 10.6l0-7.2l1.4 0l0 7.2l-1.4 0zm1.5-9.2c0 .4-.3.8-.8.8c-.5 0-.8-.4-.8-.8c0-.5.3-.9.8-.9c.5 0 .8.4.8.9zm2.1 4c0-.8 0-1.4 0-2c-.03-.01 1.1 0 1.1 0l.1 1.2c0 0 .04-.01 0 0c.4-.7 1.2-1.4 2.4-1.4c1 0 2.6.6 2.6 3.1c.01.03 0 4.3 0 4.3l-1.3 0c0 0-.01-4.14 0-4.1c0-1.2-.4-2.2-1.7-2.2c-.8 0-1.5.6-1.8 1.4c0 .1-.1.4-.1.6c.05-.02 0 4.3 0 4.3l-1.3 0c0 0 .03-5.24 0-5.2z" stroke="none" fill="#fff"/></g><g id="Polygon7974"><path d="m1.1 1.3c.8-.1 1.8-.2 2.8-.2c1.9 0 3.2.4 4.1 1.2c.9.8 1.4 2 1.4 3.7c0 1.6-.5 3-1.4 3.9c-1 .9-2.5 1.4-4.5 1.4c-.9 0-1.7 0-2.4-.1c0 0 0-9.9 0-9.9zm1.3 8.9c.4.1.9.1 1.4.1c2.8 0 4.3-1.6 4.3-4.3c0-2.4-1.4-3.9-4.1-3.9c-.7 0-1.2.1-1.6.1c0 0 0 8 0 8zm15.4-2.6c0 2.6-1.9 3.8-3.6 3.8c-2 0-3.5-1.4-3.5-3.7c0-2.4 1.6-3.9 3.6-3.9c2.1 0 3.5 1.6 3.5 3.8zm-5.8 0c0 1.6.9 2.8 2.2 2.8c1.3 0 2.2-1.2 2.2-2.8c0-1.2-.6-2.8-2.1-2.8c-1.6 0-2.3 1.5-2.3 2.8zm7.5-7l1.3 0l0 10.6l-1.3 0l0-10.6zm3.6 5.8c0-1 0-1.7 0-2.4c-.01-.01 1.2 0 1.2 0l0 1.2c0 0 .06.03.1 0c.5-.8 1.4-1.4 2.5-1.4c1.8 0 3.1 1.5 3.1 3.7c0 2.6-1.6 3.9-3.3 3.9c-.9 0-1.8-.4-2.2-1.1c-.02-.02-.1 0-.1 0l0 3.9l-1.3 0c0 0 .05-7.84 0-7.8zm1.3 1.9c0 .2.1.4.1.5c.2 1 1 1.6 2 1.6c1.4 0 2.2-1.2 2.2-2.8c0-1.5-.8-2.7-2.2-2.7c-.9 0-1.7.6-2 1.6c0 .2-.1.4-.1.5c0 0 0 1.3 0 1.3zm7.4-7.7l1.3 0l0 4.5c0 0 0 .04 0 0c.2-.3.5-.7.9-.9c.4-.2.9-.4 1.4-.4c1 0 2.5.6 2.5 3.1c.03.03 0 4.3 0 4.3l-1.3 0c0 0 .02-4.12 0-4.1c0-1.2-.4-2.2-1.7-2.2c-.8 0-1.5.6-1.7 1.3c-.1.2-.1.4-.1.7c-.03-.03 0 4.3 0 4.3l-1.3 0l0-10.6zm8.4 10.6l0-7.2l1.3 0l0 7.2l-1.3 0zm1.4-9.2c0 .4-.3.8-.8.8c-.5 0-.8-.4-.8-.8c0-.5.3-.9.8-.9c.5 0 .8.4.8.9zm2.1 4c0-.8 0-1.4 0-2c-.02-.01 1.1 0 1.1 0l.1 1.2c0 0 .05-.01.1 0c.3-.7 1.2-1.4 2.4-1.4c1 0 2.5.6 2.5 3.1c.02.03 0 4.3 0 4.3l-1.3 0c0 0 0-4.14 0-4.1c0-1.2-.4-2.2-1.7-2.2c-.8 0-1.5.6-1.8 1.4c0 .1 0 .4 0 .6c-.04-.02 0 4.3 0 4.3l-1.4 0c0 0 .04-5.24 0-5.2zm11.5 3.9c.4.3 1.1.5 1.8.5c.9 0 1.4-.4 1.4-1.1c0-.6-.4-.9-1.4-1.3c-1.3-.5-1.9-1.2-1.9-2c0-1.2 1-2.2 2.5-2.2c.7 0 1.4.2 1.8.5c0 0-.3.9-.3.9c-.3-.1-.9-.4-1.5-.4c-.8 0-1.2.5-1.2 1c0 .6.4.9 1.3 1.2c1.3.5 1.9 1.1 1.9 2.2c0 1.3-1 2.2-2.7 2.2c-.8 0-1.5-.2-2-.5c0 0 .3-1 .3-1zm6.9-2c.1 1.7 1.2 2.5 2.5 2.5c1 0 1.6-.2 2-.4c0 0 .3.9.3.9c-.5.3-1.3.5-2.4.5c-2.3 0-3.6-1.5-3.6-3.7c0-2.2 1.3-3.9 3.4-3.9c2.4 0 3 2.1 3 3.4c0 .3 0 .5-.1.7c0 0-5.1 0-5.1 0zm3.9-1c0-.8-.3-2.1-1.8-2.1c-1.4 0-1.9 1.2-2 2.1c0 0 3.8 0 3.8 0zm3.7 1c.1 1.7 1.2 2.5 2.5 2.5c1 0 1.6-.2 2-.4c0 0 .3.9.3.9c-.5.3-1.3.5-2.5.5c-2.2 0-3.5-1.5-3.5-3.7c0-2.2 1.3-3.9 3.4-3.9c2.4 0 3 2.1 3 3.4c0 .3 0 .5-.1.7c0 0-5.1 0-5.1 0zm3.9-1c0-.8-.3-2.1-1.8-2.1c-1.4 0-1.9 1.2-2.1 2.1c0 0 3.9 0 3.9 0zm3-.9c0-.8 0-1.4-.1-2c.03-.01 1.2 0 1.2 0l0 1.2c0 0 .09-.03.1 0c.4-.7 1.1-1.4 2.3-1.4c1 0 1.7.6 2 1.5c0 0 .1 0 .1 0c.2-.4.5-.7.8-.9c.4-.4.9-.6 1.6-.6c.9 0 2.4.7 2.4 3.2c-.03-.01 0 4.2 0 4.2l-1.3 0c0 0-.02-4.05 0-4c0-1.5-.5-2.3-1.6-2.3c-.8 0-1.3.6-1.6 1.2c0 .2-.1.4-.1.7c.02-.04 0 4.4 0 4.4l-1.3 0c0 0 .03-4.3 0-4.3c0-1.2-.5-2-1.5-2c-.8 0-1.4.7-1.6 1.3c-.1.2-.1.5-.1.7c-.02-.02 0 4.3 0 4.3l-1.3 0c0 0-.01-5.24 0-5.2zm17.4-3.7l0 1.7l1.9 0l0 1l-1.9 0c0 0 .02 3.91 0 3.9c0 .9.3 1.4 1 1.4c.4 0 .6 0 .8-.1c0 0 0 1 0 1c-.2.1-.6.2-1.1.2c-.7 0-1.1-.2-1.5-.5c-.3-.4-.5-1.1-.5-1.9c.03-.04 0-4 0-4l-1.1 0l0-1l1.1 0l0-1.4l1.3-.3zm9.9 5.3c0 2.6-1.8 3.8-3.6 3.8c-1.9 0-3.4-1.4-3.4-3.7c0-2.4 1.6-3.9 3.6-3.9c2 0 3.4 1.6 3.4 3.8zm-5.7 0c0 1.6.9 2.8 2.2 2.8c1.3 0 2.2-1.2 2.2-2.8c0-1.2-.6-2.8-2.2-2.8c-1.5 0-2.2 1.5-2.2 2.8zm11.5.3c0 1.7 1.1 2.5 2.5 2.5c.9 0 1.5-.2 2-.4c0 0 .2.9.2.9c-.4.3-1.3.5-2.4.5c-2.2 0-3.6-1.5-3.6-3.7c0-2.2 1.3-3.9 3.4-3.9c2.4 0 3 2.1 3 3.4c0 .3 0 .5 0 .7c0 0-5.1 0-5.1 0zm3.8-1c.1-.8-.3-2.1-1.8-2.1c-1.3 0-1.9 1.2-2 2.1c0 0 3.8 0 3.8 0zm3-.9c0-.8 0-1.4 0-2c-.03-.01 1.1 0 1.1 0l.1 1.2c0 0 .05-.01 0 0c.4-.7 1.2-1.4 2.4-1.4c1.1 0 2.6.6 2.6 3.1c.01.03 0 4.3 0 4.3l-1.3 0c0 0-.01-4.14 0-4.1c0-1.2-.4-2.2-1.7-2.2c-.8 0-1.5.6-1.8 1.4c0 .1 0 .4 0 .6c-.05-.02 0 4.3 0 4.3l-1.4 0c0 0 .03-5.24 0-5.2zm6.6 7.4c.7-.1 1.2-.2 1.5-.6c.3-.4.5-1 .5-2.7c0 0 0-6.1 0-6.1l1.3 0c0 0 .02 6.61 0 6.6c0 1.4-.2 2.3-.9 3c-.5.6-1.5.8-2.2.8c0 0-.2-1-.2-1zm3.5-11.4c0 .4-.3.8-.9.8c-.5 0-.8-.4-.8-.8c0-.5.4-.9.9-.9c.5 0 .8.4.8.9zm8.6 5.6c0 2.6-1.9 3.8-3.6 3.8c-1.9 0-3.5-1.4-3.5-3.7c0-2.4 1.6-3.9 3.6-3.9c2.1 0 3.5 1.6 3.5 3.8zm-5.7 0c0 1.6.9 2.8 2.2 2.8c1.2 0 2.2-1.2 2.2-2.8c0-1.2-.6-2.8-2.2-2.8c-1.5 0-2.2 1.5-2.2 2.8zm7.8-3.6c0 0 1.61 4.28 1.6 4.3c.2.5.4 1 .5 1.5c0 0 0 0 0 0c.2-.5.3-1 .5-1.5c-.01-.05 1.4-4.3 1.4-4.3l1.4 0c0 0-1.96 5.17-2 5.2c-.9 2.5-1.5 3.7-2.4 4.5c-.7.6-1.3.8-1.7.9c0 0-.3-1.1-.3-1.1c.3-.1.8-.4 1.2-.7c.3-.3.8-.8 1.1-1.5c0-.1.1-.2.1-.3c0 0-.1-.2-.1-.3c-.03-.02-2.7-6.7-2.7-6.7l1.4 0zm15.1 7c-.3.2-1.1.4-2.1.4c-2.1 0-3.6-1.5-3.6-3.7c0-2.2 1.6-3.9 3.9-3.9c.8 0 1.5.2 1.9.4c0 0-.3 1-.3 1c-.4-.1-.9-.3-1.6-.3c-1.6 0-2.5 1.2-2.5 2.7c0 1.7 1 2.8 2.5 2.8c.7 0 1.2-.2 1.6-.4c0 0 .2 1 .2 1zm6.7-1.5c0 .6.1 1.3.2 1.7c-.05.05-1.2 0-1.2 0l-.1-.9c0 0-.08.04-.1 0c-.4.6-1.2 1.1-2.2 1.1c-1.5 0-2.2-1-2.2-2.1c0-1.7 1.5-2.7 4.3-2.7c0 0 0-.1 0-.1c0-.6-.1-1.7-1.6-1.7c-.7 0-1.4.2-1.9.6c0 0-.3-.9-.3-.9c.6-.4 1.5-.7 2.4-.7c2.2 0 2.7 1.6 2.7 3c0 0 0 2.7 0 2.7zm-1.2-2c-1.5 0-3.1.3-3.1 1.7c0 .9.6 1.2 1.2 1.2c1 0 1.6-.6 1.8-1.2c.1-.1.1-.3.1-.4c0 0 0-1.3 0-1.3zm3.8-3.5c0 0 1.47 4.06 1.5 4.1c.2.6.4 1.2.6 1.8c0 0 0 0 0 0c.2-.6.4-1.2.6-1.8c.01-.05 1.4-4.1 1.4-4.1l1.4 0l-2.8 7.2l-1.3 0l-2.8-7.2l1.4 0zm13.2 3.6c0 2.6-1.8 3.8-3.6 3.8c-1.9 0-3.5-1.4-3.5-3.7c0-2.4 1.7-3.9 3.6-3.9c2.1 0 3.5 1.6 3.5 3.8zm-5.7 0c0 1.6.9 2.8 2.2 2.8c1.2 0 2.2-1.2 2.2-2.8c0-1.2-.6-2.8-2.2-2.8c-1.5 0-2.2 1.5-2.2 2.8zm7.5-1.3c0-.9 0-1.6-.1-2.3c.02-.01 1.2 0 1.2 0l0 1.4c0 0 .08.03.1 0c.3-.9 1.1-1.6 2-1.6c.1 0 .2.1.4.1c0 0 0 1.2 0 1.2c-.2 0-.3 0-.5 0c-.9 0-1.6.7-1.8 1.7c0 .1 0 .4 0 .6c0-.02 0 3.8 0 3.8l-1.3 0c0 0-.02-4.94 0-4.9zm6.9-4l0 1.7l1.9 0l0 1l-1.9 0c0 0 .01 3.91 0 3.9c0 .9.3 1.4 1 1.4c.4 0 .6 0 .8-.1c0 0 0 1 0 1c-.2.1-.6.2-1.1.2c-.7 0-1.2-.2-1.5-.5c-.3-.4-.5-1.1-.5-1.9c.02-.04 0-4 0-4l-1.1 0l0-1l1.1 0l0-1.4l1.3-.3zm3.5 8.9l0-7.2l1.3 0l0 7.2l-1.3 0zm1.4-9.2c0 .4-.3.8-.8.8c-.5 0-.8-.4-.8-.8c0-.5.3-.9.8-.9c.5 0 .8.4.8.9zm2.1 4c0-.8 0-1.4 0-2c-.01-.01 1.2 0 1.2 0l0 1.2c0 0 .06-.01.1 0c.3-.7 1.2-1.4 2.4-1.4c1 0 2.5.6 2.5 3.1c.03.03 0 4.3 0 4.3l-1.3 0c0 0 .01-4.14 0-4.1c0-1.2-.4-2.2-1.7-2.2c-.8 0-1.5.6-1.7 1.4c-.1.1-.1.4-.1.6c-.03-.02 0 4.3 0 4.3l-1.4 0c0 0 .05-5.24 0-5.2zm14.7 4.2c0 1.7-.4 2.7-1.1 3.3c-.7.7-1.7.9-2.6.9c-.9 0-1.9-.2-2.4-.6c0 0 .3-1 .3-1c.5.3 1.2.6 2.1.6c1.4 0 2.4-.8 2.4-2.6c-.05 0 0-.8 0-.8c0 0-.08.01-.1 0c-.4.7-1.2 1.2-2.3 1.2c-1.8 0-3.1-1.5-3.1-3.5c0-2.5 1.6-3.9 3.3-3.9c1.3 0 1.9.7 2.3 1.3c-.03-.02 0 0 0 0l0-1.1c0 0 1.22-.01 1.2 0c0 .5 0 1.1 0 2c0 0 0 4.2 0 4.2zm-1.4-3.3c0-.3 0-.5 0-.6c-.3-.8-.9-1.4-1.9-1.4c-1.2 0-2.1 1-2.1 2.7c0 1.4.7 2.6 2.1 2.6c.8 0 1.6-.5 1.8-1.3c.1-.3.1-.5.1-.7c0 0 0-1.3 0-1.3zm6.9 4.3l0-7.2l1.3 0l0 7.2l-1.3 0zm1.4-9.2c0 .4-.3.8-.8.8c-.5 0-.8-.4-.8-.8c0-.5.3-.9.8-.9c.5 0 .8.4.8.9zm2.1 4c0-.8 0-1.4 0-2c-.01-.01 1.2 0 1.2 0l0 1.2c0 0 .06-.01.1 0c.3-.7 1.2-1.4 2.4-1.4c1 0 2.5.6 2.5 3.1c.03.03 0 4.3 0 4.3l-1.3 0c0 0 .01-4.14 0-4.1c0-1.2-.4-2.2-1.7-2.2c-.8 0-1.5.6-1.7 1.4c-.1.1-.1.4-.1.6c-.03-.02 0 4.3 0 4.3l-1.4 0c0 0 .05-5.24 0-5.2zm13.3-3.7l0 1.7l1.9 0l0 1l-1.9 0c0 0-.01 3.91 0 3.9c0 .9.2 1.4 1 1.4c.3 0 .6 0 .7-.1c0 0 .1 1 .1 1c-.2.1-.7.2-1.2.2c-.6 0-1.1-.2-1.4-.5c-.3-.4-.5-1.1-.5-1.9c0-.04 0-4 0-4l-1.1 0l0-1l1.1 0l0-1.4l1.3-.3zm3.4-1.7l1.4 0l0 4.5c0 0-.01.04 0 0c.2-.3.5-.7.9-.9c.4-.2.9-.4 1.4-.4c1 0 2.5.6 2.5 3.1c.02.03 0 4.3 0 4.3l-1.3 0c0 0 0-4.12 0-4.1c0-1.2-.4-2.2-1.7-2.2c-.8 0-1.5.6-1.7 1.3c-.1.2-.1.4-.1.7c-.04-.03 0 4.3 0 4.3l-1.4 0l0-10.6zm9.2 7.3c0 1.7 1.1 2.5 2.5 2.5c.9 0 1.5-.2 2-.4c0 0 .2.9.2.9c-.4.3-1.3.5-2.4.5c-2.2 0-3.6-1.5-3.6-3.7c0-2.2 1.3-3.9 3.4-3.9c2.4 0 3 2.1 3 3.4c0 .3 0 .5 0 .7c0 0-5.1 0-5.1 0zm3.8-1c.1-.8-.3-2.1-1.8-2.1c-1.3 0-1.9 1.2-2 2.1c0 0 3.8 0 3.8 0z" stroke="none" fill="#fff"/></g><g id="Polygon7977"><path d="m1.3 53.6l0 10.1l-1.3 0l0-10.1l1.3 0zm2.1 8.8c.5.3 1.1.5 1.8.5c.9 0 1.4-.4 1.4-1.1c0-.6-.4-.9-1.3-1.3c-1.4-.5-2-1.2-2-2c0-1.2 1-2.2 2.5-2.2c.8 0 1.4.2 1.8.5c0 0-.3.9-.3.9c-.3-.1-.8-.4-1.5-.4c-.8 0-1.2.5-1.2 1c0 .6.4.9 1.4 1.2c1.2.5 1.9 1.1 1.9 2.2c0 1.3-1 2.2-2.7 2.2c-.8 0-1.6-.2-2.1-.5c0 0 .3-1 .3-1zm6.2-9.3l1.4 0l0 10.6l-1.4 0l0-10.6zm8.8 8.9c0 .6 0 1.3.1 1.7c-.04.05-1.2 0-1.2 0l-.1-.9c0 0-.07.04-.1 0c-.4.6-1.2 1.1-2.2 1.1c-1.5 0-2.2-1-2.2-2.1c0-1.7 1.5-2.7 4.4-2.7c0 0 0-.1 0-.1c0-.6-.2-1.7-1.7-1.7c-.7 0-1.4.2-1.9.6c0 0-.3-.9-.3-.9c.6-.4 1.5-.7 2.4-.7c2.2 0 2.8 1.6 2.8 3c0 0 0 2.7 0 2.7zm-1.3-2c-1.5 0-3.1.3-3.1 1.7c0 .9.6 1.2 1.2 1.2c1 0 1.6-.6 1.8-1.2c.1-.1.1-.3.1-.4c0 0 0-1.3 0-1.3zm3.5-1.5c0-.8-.1-1.4-.1-2c0-.01 1.2 0 1.2 0l0 1.2c0 0 .08-.01.1 0c.3-.7 1.2-1.4 2.4-1.4c1 0 2.5.6 2.5 3.1c.04.03 0 4.3 0 4.3l-1.3 0c0 0 .02-4.14 0-4.1c0-1.2-.4-2.2-1.7-2.2c-.8 0-1.5.6-1.7 1.4c-.1.1-.1.4-.1.6c-.02-.02 0 4.3 0 4.3l-1.3 0c0 0-.04-5.24 0-5.2zm14.6-5.4c0 0 .02 8.77 0 8.8c0 .6 0 1.4.1 1.8c-.02.05-1.2 0-1.2 0l-.1-1.2c0 0 0-.01 0 0c-.4.8-1.3 1.4-2.4 1.4c-1.8 0-3.2-1.5-3.2-3.7c0-2.4 1.5-3.9 3.3-3.9c1.1 0 1.9.6 2.2 1.1c-.02.03 0 0 0 0l0-4.3l1.3 0zm-1.3 6.3c0-.1 0-.3 0-.5c-.2-.8-1-1.5-2-1.5c-1.3 0-2.1 1.2-2.1 2.8c0 1.4.7 2.7 2.1 2.7c.9 0 1.7-.6 2-1.6c0-.2 0-.4 0-.6c0 0 0-1.3 0-1.3zm12.1-.4l-3.9 0l0 3.7l4.4 0l0 1l-5.7 0l0-10.1l5.5 0l0 1.1l-4.2 0l0 3.2l3.9 0l0 1.1zm2.8-2.5c0 0 1.06 1.55 1.1 1.6c.2.4.5.7.7 1.1c0 0 0 0 0 0c.3-.4.5-.8.8-1.2c-.03.04 1-1.5 1-1.5l1.4 0l-2.5 3.5l2.6 3.7l-1.5 0c0 0-1.09-1.59-1.1-1.6c-.3-.4-.5-.8-.8-1.2c0 0 0 0 0 0c-.2.4-.5.8-.8 1.2c.04.01-1 1.6-1 1.6l-1.5 0l2.6-3.7l-2.4-3.5l1.4 0zm6.4 2.4c0-1 0-1.7 0-2.4c-.03-.01 1.1 0 1.1 0l.1 1.2c0 0 .04.03 0 0c.6-.8 1.4-1.4 2.6-1.4c1.8 0 3.1 1.5 3.1 3.7c0 2.6-1.6 3.9-3.3 3.9c-1 0-1.8-.4-2.2-1.1c-.04-.02-.1 0-.1 0l0 3.9l-1.3 0c0 0 .03-7.84 0-7.8zm1.3 1.9c0 .2 0 .4.1.5c.2 1 1 1.6 2 1.6c1.4 0 2.2-1.2 2.2-2.8c0-1.5-.8-2.7-2.2-2.7c-.9 0-1.7.6-2 1.6c0 .2-.1.4-.1.5c0 0 0 1.3 0 1.3zm7.3-7.7l1.4 0l0 10.6l-1.4 0l0-10.6zm10.2 7c0 2.6-1.9 3.8-3.6 3.8c-1.9 0-3.5-1.4-3.5-3.7c0-2.4 1.6-3.9 3.6-3.9c2.1 0 3.5 1.6 3.5 3.8zm-5.7 0c0 1.6.9 2.8 2.2 2.8c1.2 0 2.2-1.2 2.2-2.8c0-1.2-.6-2.8-2.2-2.8c-1.5 0-2.2 1.5-2.2 2.8zm7.5-1.3c0-.9-.1-1.6-.1-2.3c0-.01 1.2 0 1.2 0l0 1.4c0 0 .06.03.1 0c.3-.9 1.1-1.6 2-1.6c.1 0 .2.1.3.1c0 0 0 1.2 0 1.2c-.1 0-.2 0-.4 0c-.9 0-1.6.7-1.8 1.7c0 .1 0 .4 0 .6c-.02-.02 0 3.8 0 3.8l-1.3 0c0 0-.04-4.94 0-4.9zm5.5 1.6c.1 1.7 1.2 2.5 2.5 2.5c1 0 1.5-.2 2-.4c0 0 .3.9.3.9c-.5.3-1.3.5-2.5.5c-2.2 0-3.5-1.5-3.5-3.7c0-2.2 1.3-3.9 3.4-3.9c2.4 0 3 2.1 3 3.4c0 .3 0 .5-.1.7c0 0-5.1 0-5.1 0zm3.9-1c0-.8-.3-2.1-1.8-2.1c-1.4 0-2 1.2-2.1 2.1c0 0 3.9 0 3.9 0zm3-.6c0-.9 0-1.6-.1-2.3c.02-.01 1.2 0 1.2 0l0 1.4c0 0 .08.03.1 0c.3-.9 1.1-1.6 2-1.6c.1 0 .2.1.4.1c0 0 0 1.2 0 1.2c-.2 0-.3 0-.5 0c-.9 0-1.6.7-1.8 1.7c0 .1 0 .4 0 .6c0-.02 0 3.8 0 3.8l-1.3 0c0 0-.02-4.94 0-4.9z" stroke="none" fill="#4f5cd5"/></g></svg>