<?xml version="1.0" standalone="no"?><!DOCTYPE svg PUBLIC "-//W3C//DTD SVG 1.1//EN" "http://www.w3.org/Graphics/SVG/1.1/DTD/svg11.dtd"><svg xmlns="http://www.w3.org/2000/svg" version="1.1" width="360px" height="54px" viewBox="0 0 360 54">  <desc>Getting there</desc>  <defs/>  <g id="Polygon11228">    <path d="M 110.1 29.5 C 109.3 29.8 107.9 30.1 106.5 30.1 C 104.5 30.1 103.1 29.6 102.1 28.7 C 101.1 27.7 100.6 26.3 100.6 24.7 C 100.6 21.2 103.2 19.1 106.7 19.1 C 108.1 19.1 109.2 19.4 109.7 19.6 C 109.7 19.6 109.2 21.6 109.2 21.6 C 108.6 21.3 107.9 21.1 106.7 21.1 C 104.7 21.1 103.1 22.3 103.1 24.6 C 103.1 26.8 104.5 28.1 106.5 28.1 C 107.1 28.1 107.5 28.1 107.7 28 C 107.71 28 107.7 25.7 107.7 25.7 L 106 25.7 L 106 23.8 L 110.1 23.8 C 110.1 23.8 110.06 29.5 110.1 29.5 Z M 113.9 26.9 C 113.9 27.9 114.9 28.4 116.1 28.4 C 116.9 28.4 117.6 28.2 118.2 28 C 118.2 28 118.5 29.7 118.5 29.7 C 117.7 30 116.8 30.2 115.7 30.2 C 113.1 30.2 111.5 28.6 111.5 26.2 C 111.5 24.2 112.8 22 115.5 22 C 118 22 119 24 119 25.9 C 119 26.3 118.9 26.7 118.9 26.9 C 118.9 26.9 113.9 26.9 113.9 26.9 Z M 116.7 25.2 C 116.7 24.6 116.5 23.6 115.3 23.6 C 114.3 23.6 113.9 24.6 113.8 25.2 C 113.8 25.2 116.7 25.2 116.7 25.2 Z M 123.2 20.1 L 123.2 22.2 L 124.9 22.2 L 124.9 24 L 123.2 24 C 123.2 24 123.15 26.8 123.2 26.8 C 123.2 27.7 123.4 28.2 124.1 28.2 C 124.4 28.2 124.6 28.2 124.8 28.1 C 124.8 28.1 124.8 30 124.8 30 C 124.5 30.1 124 30.2 123.3 30.2 C 122.5 30.2 121.8 29.9 121.4 29.5 C 121 29 120.8 28.3 120.8 27.2 C 120.77 27.17 120.8 24 120.8 24 L 119.7 24 L 119.7 22.2 L 120.8 22.2 L 120.8 20.7 L 123.2 20.1 Z M 129 20.1 L 129 22.2 L 130.8 22.2 L 130.8 24 L 129 24 C 129 24 129.02 26.8 129 26.8 C 129 27.7 129.3 28.2 130 28.2 C 130.3 28.2 130.5 28.2 130.7 28.1 C 130.7 28.1 130.7 30 130.7 30 C 130.4 30.1 129.8 30.2 129.2 30.2 C 128.4 30.2 127.7 29.9 127.3 29.5 C 126.9 29 126.6 28.3 126.6 27.2 C 126.64 27.17 126.6 24 126.6 24 L 125.6 24 L 125.6 22.2 L 126.6 22.2 L 126.6 20.7 L 129 20.1 Z M 132.2 30 L 132.2 22.2 L 134.6 22.2 L 134.6 30 L 132.2 30 Z M 134.7 20 C 134.7 20.7 134.2 21.2 133.4 21.2 C 132.6 21.2 132.1 20.7 132.1 20 C 132.1 19.3 132.6 18.8 133.4 18.8 C 134.2 18.8 134.7 19.3 134.7 20 Z M 136.6 24.7 C 136.6 23.7 136.5 22.9 136.5 22.2 C 136.5 22.18 138.6 22.2 138.6 22.2 L 138.7 23.3 C 138.7 23.3 138.77 23.26 138.8 23.3 C 139.1 22.8 139.9 22 141.2 22 C 142.8 22 144 23.1 144 25.4 C 143.98 25.38 144 30 144 30 L 141.6 30 C 141.6 30 141.55 25.66 141.6 25.7 C 141.6 24.7 141.2 24 140.3 24 C 139.6 24 139.2 24.4 139.1 24.9 C 139 25 139 25.3 139 25.5 C 138.99 25.49 139 30 139 30 L 136.6 30 C 136.6 30 136.56 24.67 136.6 24.7 Z M 153.3 28.9 C 153.3 30.4 153 31.6 152.1 32.4 C 151.3 33.1 150.1 33.3 149 33.3 C 147.9 33.3 146.9 33.1 146.2 32.8 C 146.2 32.8 146.6 30.9 146.6 30.9 C 147.1 31.2 148 31.5 148.9 31.5 C 150.1 31.5 150.9 30.9 150.9 29.4 C 150.94 29.42 150.9 28.9 150.9 28.9 C 150.9 28.9 150.91 28.93 150.9 28.9 C 150.4 29.6 149.7 29.9 148.8 29.9 C 146.9 29.9 145.5 28.4 145.5 26.1 C 145.5 23.6 147.1 22 149 22 C 150.1 22 150.8 22.5 151.2 23.1 C 151.18 23.12 151.2 23.1 151.2 23.1 L 151.3 22.2 C 151.3 22.2 153.41 22.18 153.4 22.2 C 153.4 22.7 153.3 23.3 153.3 24.5 C 153.3 24.5 153.3 28.9 153.3 28.9 Z M 150.9 25.4 C 150.9 25.2 150.9 25.1 150.9 24.9 C 150.7 24.3 150.2 23.8 149.6 23.8 C 148.7 23.8 148 24.6 148 26.1 C 148 27.2 148.5 28.1 149.5 28.1 C 150.2 28.1 150.7 27.7 150.8 27.2 C 150.9 27 150.9 26.7 150.9 26.5 C 150.9 26.5 150.9 25.4 150.9 25.4 Z M 161.2 20.1 L 161.2 22.2 L 163 22.2 L 163 24 L 161.2 24 C 161.2 24 161.25 26.8 161.2 26.8 C 161.2 27.7 161.5 28.2 162.2 28.2 C 162.5 28.2 162.7 28.2 162.9 28.1 C 162.9 28.1 162.9 30 162.9 30 C 162.6 30.1 162 30.2 161.4 30.2 C 160.6 30.2 159.9 29.9 159.5 29.5 C 159.1 29 158.9 28.3 158.9 27.2 C 158.86 27.17 158.9 24 158.9 24 L 157.8 24 L 157.8 22.2 L 158.9 22.2 L 158.9 20.7 L 161.2 20.1 Z M 164.4 18.6 L 166.8 18.6 L 166.8 23.1 C 166.8 23.1 166.86 23.12 166.9 23.1 C 167.1 22.8 167.4 22.5 167.8 22.3 C 168.2 22.1 168.6 22 169.1 22 C 170.6 22 171.8 23.1 171.8 25.4 C 171.82 25.44 171.8 30 171.8 30 L 169.4 30 C 169.4 30 169.39 25.7 169.4 25.7 C 169.4 24.7 169 24 168.1 24 C 167.5 24 167.1 24.4 166.9 24.8 C 166.8 25 166.8 25.2 166.8 25.4 C 166.83 25.36 166.8 30 166.8 30 L 164.4 30 L 164.4 18.6 Z M 175.6 26.9 C 175.7 27.9 176.7 28.4 177.9 28.4 C 178.7 28.4 179.4 28.2 180 28 C 180 28 180.3 29.7 180.3 29.7 C 179.5 30 178.6 30.2 177.5 30.2 C 174.8 30.2 173.3 28.6 173.3 26.2 C 173.3 24.2 174.6 22 177.3 22 C 179.8 22 180.8 24 180.8 25.9 C 180.8 26.3 180.7 26.7 180.7 26.9 C 180.7 26.9 175.6 26.9 175.6 26.9 Z M 178.5 25.2 C 178.5 24.6 178.3 23.6 177.1 23.6 C 176.1 23.6 175.7 24.6 175.6 25.2 C 175.6 25.2 178.5 25.2 178.5 25.2 Z M 182.2 24.8 C 182.2 23.6 182.2 22.8 182.2 22.2 C 182.16 22.18 184.2 22.2 184.2 22.2 L 184.3 23.6 C 184.3 23.6 184.4 23.62 184.4 23.6 C 184.8 22.5 185.7 22 186.5 22 C 186.7 22 186.8 22 187 22 C 187 22 187 24.3 187 24.3 C 186.8 24.3 186.6 24.3 186.4 24.3 C 185.5 24.3 184.9 24.7 184.7 25.5 C 184.7 25.6 184.7 25.8 184.7 26 C 184.65 26.03 184.7 30 184.7 30 L 182.2 30 C 182.2 30 182.22 24.75 182.2 24.8 Z M 190 26.9 C 190.1 27.9 191.1 28.4 192.3 28.4 C 193.1 28.4 193.8 28.2 194.4 28 C 194.4 28 194.7 29.7 194.7 29.7 C 193.9 30 193 30.2 191.9 30.2 C 189.2 30.2 187.7 28.6 187.7 26.2 C 187.7 24.2 189 22 191.7 22 C 194.2 22 195.2 24 195.2 25.9 C 195.2 26.3 195.1 26.7 195.1 26.9 C 195.1 26.9 190 26.9 190 26.9 Z M 192.9 25.2 C 192.9 24.6 192.7 23.6 191.5 23.6 C 190.5 23.6 190.1 24.6 190 25.2 C 190 25.2 192.9 25.2 192.9 25.2 Z " stroke="none" fill="#fff"/>  </g></svg>