<?xml version="1.0" standalone="no"?><!DOCTYPE svg PUBLIC "-//W3C//DTD SVG 1.1//EN" "http://www.w3.org/Graphics/SVG/1.1/DTD/svg11.dtd"><svg xmlns="http://www.w3.org/2000/svg" version="1.1" width="188px" height="41.8px" viewBox="0 0 188 41.8"><desc>Anacapa Island 699 acres</desc><defs/><g id="Polygon13049"><path d="m2.5 29c-.1 0-.2 0-.3 0c-.8 0-1.1.4-1.2.8c0 0 0 0 0 0c.2-.2.5-.3.8-.3c.6 0 1.1.5 1.1 1.2c0 .7-.5 1.3-1.3 1.3c-1 0-1.4-.7-1.4-1.6c0-.6.2-1.2.6-1.6c.4-.3.8-.5 1.4-.5c.1 0 .2 0 .3 0c0 0 0 .7 0 .7zm-.4 1.8c0-.4-.2-.7-.6-.7c-.2 0-.4.2-.5.3c0 .1 0 .2 0 .3c0 .3.2.7.6.7c.3 0 .5-.3.5-.6zm1.4.5c.2.1.2 0 .4 0c.3 0 .5 0 .7-.2c.2-.1.4-.4.5-.6c0 0-.1-.1-.1-.1c-.1.2-.3.3-.7.3c-.6 0-1.1-.4-1.1-1.1c0-.7.6-1.3 1.4-1.3c.9 0 1.3.7 1.3 1.5c0 .8-.2 1.3-.6 1.7c-.3.3-.8.5-1.4.5c-.1 0-.3 0-.4 0c0 0 0-.7 0-.7zm.5-1.8c0 .4.2.6.6.6c.2 0 .3-.1.4-.2c0-.1.1-.1.1-.2c0-.4-.2-.8-.6-.8c-.2 0-.5.3-.5.6zm2.6 1.8c.1.1.2 0 .4 0c.2 0 .5 0 .7-.2c.2-.1.4-.4.4-.6c0 0 0-.1 0-.1c-.2.2-.4.3-.7.3c-.6 0-1.1-.4-1.1-1.1c0-.7.5-1.3 1.3-1.3c.9 0 1.4.7 1.4 1.5c0 .8-.3 1.3-.7 1.7c-.3.3-.8.5-1.3.5c-.2 0-.3 0-.4 0c0 0 0-.7 0-.7zm.5-1.8c0 .4.2.6.5.6c.2 0 .4-.1.5-.2c0-.1 0-.1 0-.2c0-.4-.1-.8-.5-.8c-.3 0-.5.3-.5.6zm5.7 1.8c0 .2.1.5.1.6c-.01.04-.8 0-.8 0l0-.2c0 0-.03-.03 0 0c-.2.2-.5.3-.8.3c-.5 0-.9-.4-.9-.8c0-.7.7-1.1 1.6-1.1c0 0 0 0 0 0c0-.1-.1-.3-.5-.3c-.3 0-.5.1-.7.2c0 0-.2-.6-.2-.6c.2-.1.6-.2 1.1-.2c.9 0 1.1.5 1.1 1.2c0 0 0 .9 0 .9zm-.8-.6c-.4 0-.7.1-.7.4c0 .2.1.3.3.3c.2 0 .4-.1.4-.3c0 0 0-.1 0-.1c0 0 0-.3 0-.3zm3.5 1.2c-.1 0-.4.1-.7.1c-.9 0-1.4-.5-1.4-1.4c0-.8.5-1.4 1.5-1.4c.2 0 .5 0 .6.1c0 0-.1.6-.1.6c-.1 0-.2-.1-.5-.1c-.4 0-.7.3-.7.8c0 .5.3.7.7.7c.2 0 .4 0 .5 0c0 0 .1.6.1.6zm.5-1.8c0-.4 0-.6 0-.8c-.03-.05.7 0 .7 0l0 .4c0 0 .04.05 0 0c.2-.4.5-.5.8-.5c0 0 .1 0 .1 0c0 0 0 .8 0 .8c0 0-.1 0-.2 0c-.3 0-.5.1-.6.4c0 0 0 .1 0 .2c.02-.02 0 1.3 0 1.3l-.8 0c0 0-.01-1.76 0-1.8zm2.7.8c0 .3.3.5.7.5c.3 0 .6-.1.8-.1c0 0 .1.5.1.5c-.3.1-.6.2-1 .2c-.9 0-1.4-.5-1.4-1.4c0-.7.4-1.4 1.3-1.4c.9 0 1.2.7 1.2 1.3c0 .2 0 .3 0 .4c0 0-1.7 0-1.7 0zm1-.6c0-.2-.1-.6-.5-.6c-.4 0-.5.4-.5.6c0 0 1 0 1 0zm1.2.9c.2.1.5.2.8.2c.2 0 .3-.1.3-.2c0-.2-.1-.2-.4-.3c-.5-.2-.8-.5-.7-.8c0-.5.4-.9 1-.9c.4 0 .6.1.8.1c0 0-.1.6-.1.6c-.2 0-.4-.1-.6-.1c-.2 0-.3 0-.3.2c0 .1.1.2.4.3c.5.2.7.4.7.8c0 .5-.4.9-1.1.9c-.4 0-.7-.1-.9-.2c0 0 .1-.6.1-.6z" stroke="none" fill="#000"/></g><g id="Polygon13048"><path d="m6.6 10.9c-.05-.04-.5-1.4-.5-1.4l-3.3 0c0 0-.44 1.36-.4 1.4c.3 0 .5.1.7.1c-.02.04 0 .9 0 .9l-2.9 0c0 0-.02-.86 0-.9c.1 0 .3-.1.6-.1c0 0 3.1-8.6 3.1-8.6c.3 0 .8-.1 1.2-.1c.4 0 1 .1 1.2.1c0 0 3.1 8.6 3.1 8.6c.3 0 .4.1.6.1c-.01.04 0 .9 0 .9l-4.2 0c0 0-.04-.86 0-.9c.2 0 .4-.1.8-.1zm-1-2.7l-1.1-3.4l-1.2 3.4l2.3 0zm5.7 2.7c-.02 0 0-4.9 0-4.9l-.8-.2c0 0 .03-.84 0-.8c.9-.3 2-.4 3.3-.4c0 0 0 1.1 0 1.1c.5-.8 1.5-1.2 2.5-1.2c1.5 0 2.3.9 2.3 2.2c0 0 0 4.2 0 4.2c.3 0 .6.1.7.2c.03 0 0 .8 0 .8l-4 0c0 0-.02-.8 0-.8c.1-.1.4-.2.7-.2c0 0 0-3.6 0-3.6c0-.7-.3-1-.9-1c-.5 0-.9.1-1.3.5c0 0 0 4.1 0 4.1c.3 0 .6.1.8.2c-.02 0 0 .8 0 .8l-4.1 0c0 0 .01-.8 0-.8c.2-.1.4-.2.8-.2zm12.7-3.2c0 0 0-.9 0-.9c0-.7-.3-1.1-1.1-1.1c-.2 0-.4.1-.6.1c-.04.02-.3 1.3-.3 1.3c0 0-1.41-.02-1.4 0c-.1-.4-.2-.8-.2-1.2c0-.2 0-.5.1-.7c.9-.4 2.1-.7 3.2-.7c1.8 0 2.8.7 2.8 2.2c0 1.2 0 2.6 0 4c-.04-.01.7.2.7.2c0 0 .01.81 0 .8c-.8.2-1.9.4-3.2.4c0 0 0-1.1 0-1.1c-.3.7-1.1 1.1-1.9 1.1c-1.3 0-2.2-.7-2.2-2c0-1.9 1.9-2.3 4.1-2.4zm0 2.7c0 0 0-1.8 0-1.8c-1.1.1-1.7.4-1.7 1.2c0 .6.4.9.9.9c.3 0 .6-.1.8-.3zm7.9-5.9c.9 0 1.9.3 2.3.6c0 .7 0 1.5-.3 2.4c0 .03-1.3 0-1.3 0c0 0-.31-1.8-.3-1.8c-.1 0-.2 0-.3 0c-.8 0-1.5.6-1.5 2.3c0 1.8.8 2.5 1.8 2.5c.8 0 1.3-.3 1.7-.8c0 0 .4.6.4.6c-.4 1-1.4 1.8-2.9 1.8c-2.1 0-3.6-1.2-3.6-3.9c0-2.4 1.8-3.7 4-3.7zm7.2 3.2c0 0 0-.9 0-.9c0-.7-.3-1.1-1-1.1c-.2 0-.5.1-.7.1c-.01.02-.2 1.3-.2 1.3c0 0-1.47-.02-1.5 0c-.1-.4-.2-.8-.2-1.2c0-.2.1-.5.1-.7c.9-.4 2.1-.7 3.2-.7c1.9 0 2.9.7 2.9 2.2c0 1.2-.1 2.6-.1 4c-.01-.01.7.2.7.2c0 0 .04.81 0 .8c-.8.2-1.8.4-3.1.4c0 0 0-1.1 0-1.1c-.4.7-1.1 1.1-2 1.1c-1.2 0-2.1-.7-2.1-2c0-1.9 1.8-2.3 4-2.4zm0 2.7c0 0 0-1.8 0-1.8c-1 .1-1.6.4-1.6 1.2c0 .6.4.9.9.9c.3 0 .5-.1.7-.3zm4.7 3.3c-.03.02 0-7.7 0-7.7l-.8-.2c0 0 .02-.84 0-.8c.9-.3 2-.4 3.2-.4c0 0 0 1.2 0 1.2c.4-.8 1.3-1.3 2.2-1.3c1.8 0 2.8 1.3 2.8 3.6c0 2.5-1.3 4.1-3.4 4.1c-.6 0-1.2-.3-1.5-.5c0 0 0 2 0 2c.3.1.7.1.9.2c0 .02 0 .9 0 .9l-4.2 0c0 0 0-.88 0-.9c.2-.1.4-.1.8-.2zm2.5-7.1c0 0 0 4 0 4c.2.1.3.1.6.1c1.1 0 1.7-.9 1.7-2.4c0-1.6-.6-2.2-1.3-2.2c-.4 0-.8.2-1 .5zm9.8 1.1c0 0 0-.9 0-.9c0-.7-.3-1.1-1.1-1.1c-.2 0-.4.1-.7.1c.01.02-.2 1.3-.2 1.3c0 0-1.45-.02-1.5 0c-.1-.4-.1-.8-.1-1.2c0-.2 0-.5 0-.7c1-.4 2.2-.7 3.3-.7c1.8 0 2.8.7 2.8 2.2c0 1.2-.1 2.6-.1 4c.01-.01.8.2.8.2c0 0-.04.81 0 .8c-.9.2-1.9.4-3.2.4c0 0 0-1.1 0-1.1c-.3.7-1.1 1.1-2 1.1c-1.2 0-2.1-.7-2.1-2c0-1.9 1.8-2.3 4.1-2.4zm0 2.7c0 0 0-1.8 0-1.8c-1.1.1-1.7.4-1.7 1.2c0 .6.4.9.9.9c.3 0 .5-.1.8-.3zm7.5.4c0 0 0-7.4 0-7.4c-.4 0-.7-.1-.9-.2c-.02.04 0-.9 0-.9l4.5 0c0 0-.05.94 0 .9c-.3.1-.6.2-.9.2c0 0 0 7.4 0 7.4c.3.1.6.1.9.2c-.05.04 0 .9 0 .9l-4.5 0c0 0-.02-.86 0-.9c.2-.1.5-.1.9-.2zm4.4.3c0-.5.1-1 .2-1.5c-.01 0 1.3 0 1.3 0c0 0 .25 1.33.2 1.3c.3.1.5.1.8.1c.6 0 1.1-.3 1.1-.8c0-.6-.5-.8-1.2-1c0 0-.8-.2-.8-.2c-.9-.3-1.6-.9-1.6-2.2c0-1.6 1.5-2.3 3.3-2.3c.8 0 1.7.2 2.3.4c0 .2 0 .5 0 .6c0 .5 0 1-.2 1.5c.04.02-1.3 0-1.3 0c0 0-.22-1.3-.2-1.3c-.2 0-.4-.1-.6-.1c-.6 0-1.1.2-1.1.8c0 .6.4.7 1 .9c0 0 .8.3.8.3c1.1.3 1.9.8 1.9 2c0 1.7-1.2 2.5-3.4 2.5c-.9 0-1.9-.1-2.4-.4c-.1-.2-.1-.4-.1-.6zm7.3-.2c.01 0 0-8 0-8l-.9-.2c0 0 .03-.92 0-.9c.9-.2 2.2-.4 3.4-.4c0 0 0 9.5 0 9.5c.4 0 .6.1.8.2c.01 0 0 .8 0 .8l-4.1 0c0 0 .05-.8 0-.8c.2-.1.5-.2.8-.2zm8-3.2c0 0 0-.9 0-.9c0-.7-.3-1.1-1.1-1.1c-.2 0-.4.1-.7.1c.02.02-.2 1.3-.2 1.3c0 0-1.44-.02-1.4 0c-.2-.4-.2-.8-.2-1.2c0-.2 0-.5.1-.7c.9-.4 2.1-.7 3.2-.7c1.8 0 2.8.7 2.8 2.2c0 1.2-.1 2.6-.1 4c.02-.01.8.2.8.2c0 0-.03.81 0 .8c-.9.2-1.9.4-3.2.4c0 0 0-1.1 0-1.1c-.3.7-1.1 1.1-2 1.1c-1.2 0-2.1-.7-2.1-2c0-1.9 1.9-2.3 4.1-2.4zm0 2.7c0 0 0-1.8 0-1.8c-1.1.1-1.7.4-1.7 1.2c0 .6.4.9.9.9c.3 0 .6-.1.8-.3zm4.6.5c.03 0 0-4.9 0-4.9l-.7-.2c0 0-.02-.84 0-.8c.8-.3 2-.4 3.2-.4c0 0 0 1.1 0 1.1c.6-.8 1.5-1.2 2.5-1.2c1.5 0 2.3.9 2.3 2.2c0 0 0 4.2 0 4.2c.3 0 .6.1.8.2c-.02 0 0 .8 0 .8l-4.1 0c0 0 .03-.8 0-.8c.2-.1.5-.2.8-.2c0 0 0-3.6 0-3.6c0-.7-.3-1-.9-1c-.5 0-.9.1-1.4.5c0 0 0 4.1 0 4.1c.4 0 .7.1.8.2c.03 0 0 .8 0 .8l-4 0c0 0-.04-.8 0-.8c.1-.1.4-.2.7-.2zm12.2-6.4c.7 0 1.2.2 1.5.6c-.01-.05 0-2.2 0-2.2l-.9-.2c0 0-.04-.92 0-.9c.8-.2 2.1-.4 3.4-.4c.01.04 0 9.3 0 9.3l.8.2c0 0-.04.81 0 .8c-.9.2-2 .4-3.3.4c0 0 0-1.2 0-1.2c-.4.8-1.1 1.2-2 1.2c-1.8 0-2.9-1.3-2.9-3.6c0-2.5 1.4-4 3.4-4zm1.5 5.6c0 0 0-4.1 0-4.1c-.2-.1-.4-.1-.6-.1c-1.1 0-1.7 1-1.7 2.4c0 1.6.6 2.2 1.4 2.2c.3 0 .6-.2.9-.4z" stroke="none" fill="#404040"/></g></svg>