<?xml version="1.0" standalone="no"?><!DOCTYPE svg PUBLIC "-//W3C//DTD SVG 1.1//EN" "http://www.w3.org/Graphics/SVG/1.1/DTD/svg11.dtd"><svg xmlns="http://www.w3.org/2000/svg" version="1.1" width="427px" height="197.5px" viewBox="0 0 427 197.5"><desc>Squirrel</desc><defs/><g id="Polygon13973"><path d="m187.6 99.5c.5.3 1.5.5 2.2.5c1.1 0 1.7-.6 1.7-1.5c0-.9-.5-1.4-1.6-2.1c-1.8-1.1-2.5-2.4-2.5-3.6c0-2.1 1.4-3.8 4.1-3.8c.9 0 1.7.2 2 .4c0 0-.4 2.2-.4 2.2c-.3-.2-.9-.4-1.6-.4c-1.1 0-1.6.6-1.6 1.3c0 .8.4 1.2 1.8 2.1c1.7 1 2.3 2.3 2.3 3.7c0 2.3-1.7 3.9-4.3 3.9c-1 0-2-.3-2.4-.5c0 0 .3-2.2.3-2.2zm12.2 1.8c0 0-.05-.02 0 0c-.4.5-1 .9-1.8.9c-1.8 0-2.9-2.1-2.9-4.6c0-3.2 1.4-5.1 3.2-5.1c.6 0 1.3.3 1.7 1.1c.04.05.1.1.1.1l.1-1c0 0 2.19-.04 2.2 0c0 .8-.1 1.9-.1 3c.02-.05 0 10.1 0 10.1l-2.5 0l0-4.5zm0-5.2c0-.2 0-.4-.1-.5c-.1-.6-.5-1-.9-1c-.7 0-1.1 1.1-1.1 2.8c0 1.7.4 2.8 1.1 2.8c.4 0 .7-.2.9-.8c.1-.2.1-.5.1-.7c0 0 0-2.6 0-2.6zm11.2 3.1c0 1 0 2 0 2.9c.05-.01-2.1 0-2.1 0l-.2-1c0 0 0-.01 0 0c-.4.6-1.2 1.1-2.2 1.1c-1.8 0-2.5-1.3-2.5-3.8c-.01-.03 0-5.7 0-5.7l2.5 0c0 0 .02 5.4 0 5.4c0 1.2.3 2 1 2c.4 0 .7-.3.8-.6c.1-.2.1-.5.1-.8c.05-.02 0-6 0-6l2.6 0c0 0-.03 6.52 0 6.5zm1.8 2.9l0-9.4l2.5 0l0 9.4l-2.5 0zm2.5-11.9c0 .8-.5 1.3-1.3 1.3c-.7 0-1.3-.5-1.3-1.3c0-.9.6-1.4 1.3-1.4c.8 0 1.3.5 1.3 1.4zm1.8 5.3c0-.9-.1-1.9-.1-2.8c.01-.04 2.2 0 2.2 0l.1 1.3c0 0 .1.03.1 0c.4-1 1.2-1.5 1.8-1.5c.3 0 .5 0 .6 0c0 0 0 2.5 0 2.5c-.2 0-.3 0-.6 0c-.5 0-1.2.4-1.5 1.3c-.1.3-.1.6-.1 1c.01-.01 0 4.8 0 4.8l-2.5 0c0 0-.02-6.6 0-6.6zm5.7 0c0-.9-.1-1.9-.1-2.8c-.03-.04 2.2 0 2.2 0l.1 1.3c0 0 .06.03.1 0c.4-1 1.1-1.5 1.8-1.5c.3 0 .4 0 .6 0c0 0 0 2.5 0 2.5c-.2 0-.4 0-.6 0c-.5 0-1.2.4-1.5 1.3c-.1.3-.1.6-.1 1c-.02-.01 0 4.8 0 4.8l-2.5 0c0 0-.05-6.6 0-6.6zm7.7 2.8c0 1.4.8 2 1.9 2c.8 0 1.4-.2 1.8-.3c0 0 .4 1.8.4 1.8c-.7.2-1.7.4-2.6.4c-2.6 0-4-1.7-4-4.6c0-3.2 1.7-5.1 3.8-5.1c2 0 3.2 1.6 3.2 4.5c0 .6 0 1-.1 1.3c0 0-4.4 0-4.4 0zm2.2-1.8c0-1.2-.3-2.2-1.1-2.2c-.8 0-1.1 1.3-1.1 2.2c0 0 2.2 0 2.2 0zm3.7-7.7l2.5 0l0 13.3l-2.5 0l0-13.3z" stroke="none" fill="#000" fill-opacity="0.7"/></g></svg>