<?xml version="1.0" standalone="no"?><!DOCTYPE svg PUBLIC "-//W3C//DTD SVG 1.1//EN" "http://www.w3.org/Graphics/SVG/1.1/DTD/svg11.dtd"><svg xmlns="http://www.w3.org/2000/svg" version="1.1" width="125px" height="46px" viewBox="0 0 125 46"><desc>About</desc><defs/><g id="Polygon10848"><path d="m35 23.2l-.7 2.8l-2.6 0l3.3-10.8l3.2 0l3.4 10.8l-2.7 0l-.8-2.8l-3.1 0zm2.8-1.8c0 0-.71-2.28-.7-2.3c-.2-.6-.4-1.4-.6-2.1c0 0 0 0 0 0c-.1.7-.3 1.5-.5 2.1c.02.02-.6 2.3-.6 2.3l2.4 0zm5-6.8l2.5 0l0 4.5c0 0 0 0 0 0c.5-.7 1.3-1.1 2.4-1.1c1.8 0 3.2 1.6 3.2 4c0 2.8-1.8 4.2-3.6 4.2c-.9 0-1.8-.4-2.3-1.3c-.04.01-.1 0-.1 0l-.1 1.1c0 0-2.03 0-2 0c0-.5 0-1.5 0-2.3c.04-.04 0-9.1 0-9.1zm2.5 8.1c0 .1 0 .3 0 .4c.2.6.7 1.2 1.4 1.2c1.1 0 1.7-.8 1.7-2.3c0-1.2-.5-2.1-1.7-2.1c-.6 0-1.2.5-1.4 1.2c0 .1 0 .3 0 .4c0 0 0 1.2 0 1.2zm14.9-.7c0 2.9-2.1 4.2-4.1 4.2c-2.3 0-4.1-1.5-4.1-4.1c0-2.5 1.7-4.1 4.2-4.1c2.4 0 4 1.6 4 4zm-5.7.1c0 1.3.6 2.3 1.6 2.3c1 0 1.6-.9 1.6-2.3c0-1.2-.5-2.4-1.6-2.4c-1.1 0-1.6 1.2-1.6 2.4zm14.6 1.4c0 1 0 1.8 0 2.5c.02 0-2.1 0-2.1 0l-.1-1.1c0 0-.05 0 0 0c-.4.5-1.1 1.3-2.5 1.3c-1.6 0-2.7-1-2.7-3.4c-.05-.03 0-4.6 0-4.6l2.4 0c0 0-.02 4.18 0 4.2c0 1.1.4 1.8 1.2 1.8c.7 0 1.1-.5 1.2-.8c.1-.2.1-.4.1-.6c.03.03 0-4.6 0-4.6l2.5 0c0 0-.04 5.29 0 5.3zm4.6-7.4l0 2.1l1.8 0l0 1.8l-1.8 0c0 0 .03 2.8 0 2.8c0 .9.3 1.4 1 1.4c.3 0 .5 0 .7-.1c0 0 0 1.9 0 1.9c-.3.1-.9.2-1.5.2c-.8 0-1.5-.3-1.9-.7c-.4-.5-.7-1.2-.7-2.3c.05-.03 0-3.2 0-3.2l-1 0l0-1.8l1 0l0-1.5l2.4-.6z" stroke="none" fill="#fff"/></g></svg>