<?xml version="1.0" standalone="no"?><!DOCTYPE svg PUBLIC "-//W3C//DTD SVG 1.1//EN" "http://www.w3.org/Graphics/SVG/1.1/DTD/svg11.dtd"><svg xmlns="http://www.w3.org/2000/svg" version="1.1" width="259px" height="47.5px" viewBox="0 0 259 47.5"><desc>Santa Barbara Island 639 acres</desc><defs/><g id="Polygon6173"><path d="m4.1 30.1c-.1 0-.3 0-.5 0c-1.2.1-1.8.8-1.9 1.4c0 0 0 0 0 0c.3-.3.7-.4 1.2-.4c1 0 1.9.7 1.9 1.9c0 1.1-.9 2.1-2.2 2.1c-1.6 0-2.3-1.2-2.3-2.6c0-1.1.4-2 1-2.6c.6-.5 1.4-.8 2.3-.8c.2 0 .4 0 .5 0c0 0 0 1 0 1zm-.7 3c0-.6-.3-1.1-.9-1.1c-.4 0-.7.3-.8.6c-.1 0-.1.2-.1.3c.1.6.4 1.2 1 1.2c.5 0 .8-.4.8-1zm2.2.6c.3.1.8.3 1.4.3c.7 0 1-.3 1-.8c0-.5-.5-.8-1.1-.8c-.03 0-.6 0-.6 0l0-1c0 0 .55.02.5 0c.5 0 1.1-.2 1.1-.7c0-.3-.3-.6-.9-.6c-.5 0-1 .2-1.2.4c0 0-.3-1-.3-1c.4-.2 1.1-.4 1.8-.4c1.3 0 2 .6 2 1.4c0 .6-.4 1.1-1.1 1.4c0 0 0 0 0 0c.7.1 1.3.6 1.3 1.4c0 1-.9 1.8-2.4 1.8c-.8 0-1.4-.2-1.8-.4c0 0 .3-1 .3-1zm5.2.3c.2 0 .3 0 .6 0c.4 0 .8-.1 1.1-.3c.4-.3.7-.7.8-1.1c0 0 0 0 0 0c-.3.2-.7.4-1.2.4c-1 0-1.8-.7-1.8-1.8c0-1.2.9-2.1 2.2-2.1c1.5 0 2.2 1.1 2.2 2.5c0 1.2-.4 2.1-1 2.7c-.6.5-1.4.7-2.3.8c-.2 0-.5 0-.6 0c0 0 0-1.1 0-1.1zm.8-2.9c0 .5.3.9.8.9c.4 0 .7-.2.8-.4c.1-.1.1-.1.1-.3c0-.6-.3-1.2-.9-1.2c-.4 0-.8.4-.8 1zm9.4 2.8c0 .5 0 .9.1 1.1c-.01 0-1.2 0-1.2 0l-.1-.4c0 0-.05-.04-.1 0c-.2.3-.7.5-1.2.5c-.9 0-1.4-.6-1.4-1.4c0-1.1 1-1.6 2.5-1.6c0 0 0-.1 0-.1c0-.2-.1-.6-.8-.6c-.4 0-.9.2-1.2.4c0 0-.2-.9-.2-.9c.3-.2.9-.4 1.7-.4c1.5 0 1.9.9 1.9 1.9c0 0 0 1.5 0 1.5zm-1.3-1c-.7 0-1.3.2-1.3.7c0 .4.2.5.6.5c.3 0 .6-.2.7-.5c0 0 0-.1 0-.2c0 0 0-.5 0-.5zm5.7 2c-.2.1-.7.2-1.2.2c-1.4 0-2.3-.9-2.3-2.3c0-1.2.8-2.3 2.5-2.3c.3 0 .7.1 1 .2c0 0-.2 1-.2 1c-.2-.1-.4-.1-.8-.1c-.7 0-1.2.5-1.1 1.2c0 .8.5 1.2 1.2 1.2c.3 0 .5 0 .7-.1c0 0 .2 1 .2 1zm.8-2.9c0-.6 0-1-.1-1.4c.03 0 1.2 0 1.2 0l.1.8c0 0-.01.01 0 0c.2-.6.7-.9 1.2-.9c.1 0 .2 0 .3 0c0 0 0 1.3 0 1.3c-.1 0-.3 0-.4 0c-.5 0-.9.2-.9.7c-.1.1-.1.2-.1.3c.03-.03 0 2.2 0 2.2l-1.3 0c0 0-.04-2.95 0-3zm4.4 1.2c0 .6.6.9 1.2.9c.5 0 .9-.1 1.2-.2c0 0 .2.9.2.9c-.4.2-1 .3-1.6.3c-1.5 0-2.3-.9-2.3-2.3c0-1.1.7-2.3 2.2-2.3c1.4 0 1.9 1.1 1.9 2.2c0 .2 0 .4 0 .5c0 0-2.8 0-2.8 0zm1.6-.9c0-.3-.2-.9-.8-.9c-.6 0-.8.5-.8.9c0 0 1.6 0 1.6 0zm2.1 1.5c.2.2.7.3 1.1.3c.4 0 .6-.1.6-.3c0-.3-.1-.4-.6-.5c-.9-.3-1.3-.8-1.3-1.4c0-.8.7-1.4 1.8-1.4c.5 0 1 .1 1.2.3c0 0-.2.9-.2.9c-.2-.1-.6-.3-.9-.3c-.4 0-.6.2-.6.4c0 .2.2.3.7.5c.9.3 1.2.7 1.2 1.4c0 .8-.6 1.4-1.9 1.4c-.5 0-1.1-.1-1.4-.3c0 0 .3-1 .3-1z" stroke="none" fill="#000"/></g><g id="Polygon6172"><path d="m1.4 11.9c.8.4 2.1.8 3.4.8c1.4 0 2.1-.6 2.1-1.5c0-.8-.6-1.3-2.2-1.8c-2.3-.8-3.7-2.1-3.7-4c0-2.3 1.9-4.1 5.1-4.1c1.5 0 2.6.3 3.4.7c0 0-.7 2.4-.7 2.4c-.5-.2-1.5-.6-2.8-.6c-1.3 0-1.9.6-1.9 1.3c0 .9.7 1.2 2.5 1.9c2.3.9 3.4 2.1 3.4 4c0 2.3-1.7 4.2-5.4 4.2c-1.5 0-3-.4-3.8-.8c0 0 .6-2.5.6-2.5zm18.9.7c0 1 .1 1.9.2 2.4c-.02 0-2.8 0-2.8 0l-.1-1c0 0-.1.02-.1 0c-.6.8-1.6 1.2-2.8 1.2c-2 0-3.2-1.4-3.2-3c0-2.5 2.3-3.7 5.8-3.7c0 0 0-.1 0-.1c0-.6-.3-1.3-1.8-1.3c-1 0-2.1.3-2.7.7c0 0-.6-1.9-.6-1.9c.7-.4 2.1-.9 3.8-.9c3.3 0 4.3 1.9 4.3 4.2c0 0 0 3.4 0 3.4zm-2.9-2.2c-1.6 0-2.9.4-2.9 1.5c0 .8.6 1.2 1.2 1.2c.8 0 1.4-.5 1.6-1.1c.1-.2.1-.4.1-.6c0 0 0-1 0-1zm5.3-2.1c0-1.2 0-2.2 0-3.1c-.04.02 2.6 0 2.6 0l.1 1.4c0 0 .1-.02.1 0c.4-.7 1.4-1.6 3-1.6c2 0 3.5 1.3 3.5 4.2c.02.02 0 5.8 0 5.8l-3 0c0 0-.02-5.42 0-5.4c0-1.3-.5-2.1-1.6-2.1c-.8 0-1.3.5-1.5 1.1c-.1.2-.1.5-.1.8c-.02-.04 0 5.6 0 5.6l-3.1 0c0 0 .04-6.66 0-6.7zm15-5.7l0 2.6l2.2 0l0 2.3l-2.2 0c0 0 .04 3.5 0 3.5c0 1.2.3 1.7 1.2 1.7c.5 0 .7 0 .9-.1c0 0 .1 2.3.1 2.3c-.4.2-1.2.3-2 .3c-1 0-1.8-.3-2.3-.8c-.6-.6-.8-1.6-.8-2.9c-.04-.04 0-4 0-4l-1.3 0l0-2.3l1.3 0l0-1.8l2.9-.8zm12.1 10c0 1 .1 1.9.2 2.4c-.02 0-2.8 0-2.8 0l-.1-1c0 0-.1.02-.1 0c-.6.8-1.6 1.2-2.8 1.2c-2 0-3.2-1.4-3.2-3c0-2.5 2.3-3.7 5.8-3.7c0 0 0-.1 0-.1c0-.6-.3-1.3-1.8-1.3c-1 0-2.1.3-2.7.7c0 0-.6-1.9-.6-1.9c.7-.4 2.1-.9 3.8-.9c3.3 0 4.3 1.9 4.3 4.2c0 0 0 3.4 0 3.4zm-2.9-2.2c-1.6 0-2.9.4-2.9 1.5c0 .8.6 1.2 1.2 1.2c.8 0 1.4-.5 1.6-1.1c.1-.2.1-.4.1-.6c0 0 0-1 0-1zm9.5-8.7c.8-.1 2.4-.3 3.9-.3c1.9 0 3 .2 4 .8c1 .5 1.6 1.4 1.6 2.6c0 1.2-.7 2.3-2.2 2.9c0 0 0 0 0 0c1.5.4 2.7 1.6 2.7 3.3c0 1.3-.6 2.2-1.4 2.9c-1 .8-2.6 1.2-5.3 1.2c-1.5 0-2.6-.1-3.3-.2c0 0 0-13.2 0-13.2zm3 5.2c0 0 1-.04 1 0c1.6 0 2.5-.7 2.5-1.7c0-1-.8-1.6-2.2-1.6c-.7 0-1.1.1-1.3.1c0 .02 0 3.2 0 3.2zm0 5.9c.3.1.7.1 1.2.1c1.4 0 2.6-.6 2.6-2c0-1.3-1.2-1.9-2.8-1.9c.04.04-1 0-1 0c0 0 0 3.84 0 3.8zm17.2-.2c0 1 0 1.9.1 2.4c.02 0-2.7 0-2.7 0l-.2-1c0 0-.06.02-.1 0c-.6.8-1.6 1.2-2.8 1.2c-1.9 0-3.1-1.4-3.1-3c0-2.5 2.3-3.7 5.7-3.7c0 0 0-.1 0-.1c0-.6-.3-1.3-1.8-1.3c-1 0-2 .3-2.7.7c0 0-.5-1.9-.5-1.9c.7-.4 2-.9 3.8-.9c3.2 0 4.3 1.9 4.3 4.2c0 0 0 3.4 0 3.4zm-3-2.2c-1.6 0-2.8.4-2.8 1.5c0 .8.5 1.2 1.2 1.2c.7 0 1.4-.5 1.6-1.1c0-.2 0-.4 0-.6c0 0 0-1 0-1zm5.4-2c0-1.4 0-2.3-.1-3.2c0 .02 2.6 0 2.6 0l.1 1.8c0 0 .1.02.1 0c.5-1.4 1.7-2 2.6-2c.3 0 .5 0 .7 0c0 0 0 2.9 0 2.9c-.3 0-.5-.1-.8-.1c-1.2 0-1.9.6-2.1 1.6c-.1.2-.1.4-.1.6c.02.04 0 5 0 5l-3 0c0 0-.02-6.56 0-6.6zm7.5-7.6l3.1 0l0 5.6c0 0 0-.02 0 0c.6-.9 1.6-1.4 3-1.4c2.3 0 4 1.9 4 4.9c0 3.6-2.2 5.3-4.5 5.3c-1.1 0-2.2-.4-2.9-1.6c-.02.04-.1 0-.1 0l-.1 1.4c0 0-2.56 0-2.6 0c.1-.6.1-1.8.1-2.9c.02-.02 0-11.3 0-11.3zm3.1 10c0 .2 0 .4 0 .6c.2.8.9 1.4 1.8 1.4c1.3 0 2.1-1 2.1-2.7c0-1.6-.7-2.8-2.1-2.8c-.8 0-1.6.7-1.8 1.5c0 .2 0 .4 0 .6c0 0 0 1.4 0 1.4zm17 1.8c0 1 .1 1.9.2 2.4c-.02 0-2.8 0-2.8 0l-.1-1c0 0-.1.02-.1 0c-.6.8-1.6 1.2-2.8 1.2c-2 0-3.2-1.4-3.2-3c0-2.5 2.3-3.7 5.8-3.7c0 0 0-.1 0-.1c0-.6-.3-1.3-1.8-1.3c-1 0-2.1.3-2.7.7c0 0-.6-1.9-.6-1.9c.7-.4 2.1-.9 3.8-.9c3.3 0 4.3 1.9 4.3 4.2c0 0 0 3.4 0 3.4zm-2.9-2.2c-1.6 0-2.9.4-2.9 1.5c0 .8.6 1.2 1.2 1.2c.8 0 1.4-.5 1.6-1.1c.1-.2.1-.4.1-.6c0 0 0-1 0-1zm5.3-2c0-1.4 0-2.3 0-3.2c-.04.02 2.6 0 2.6 0l.1 1.8c0 0 .06.02.1 0c.5-1.4 1.6-2 2.6-2c.3 0 .4 0 .6 0c0 0 0 2.9 0 2.9c-.2 0-.4-.1-.8-.1c-1.1 0-1.9.6-2.1 1.6c0 .2 0 .4 0 .6c-.02.04 0 5 0 5l-3.1 0c0 0 .04-6.56 0-6.6zm15.6 4.2c0 1 0 1.9.1 2.4c.02 0-2.7 0-2.7 0l-.2-1c0 0-.06.02-.1 0c-.6.8-1.6 1.2-2.8 1.2c-1.9 0-3.1-1.4-3.1-3c0-2.5 2.3-3.7 5.7-3.7c0 0 0-.1 0-.1c0-.6-.3-1.3-1.8-1.3c-1 0-2 .3-2.7.7c0 0-.5-1.9-.5-1.9c.7-.4 2-.9 3.8-.9c3.2 0 4.3 1.9 4.3 4.2c0 0 0 3.4 0 3.4zm-3-2.2c-1.6 0-2.8.4-2.8 1.5c0 .8.5 1.2 1.2 1.2c.7 0 1.4-.5 1.6-1.1c0-.2 0-.4 0-.6c0 0 0-1 0-1zm12.6-8.9l0 13.5l-3.1 0l0-13.5l3.1 0zm2.4 10.9c.6.3 1.8.7 2.7.7c.9 0 1.3-.3 1.3-.8c0-.5-.3-.8-1.5-1.2c-2-.6-2.8-1.7-2.8-2.9c0-1.8 1.6-3.2 4-3.2c1.2 0 2.2.3 2.8.6c0 0-.6 2.1-.6 2.1c-.4-.3-1.3-.6-2.1-.6c-.7 0-1.1.3-1.1.8c0 .5.3.7 1.5 1.1c1.9.7 2.7 1.6 2.7 3c0 1.9-1.4 3.2-4.2 3.2c-1.3 0-2.5-.3-3.2-.7c0 0 .5-2.1.5-2.1zm8.7-11.6l3.1 0l0 14.2l-3.1 0l0-14.2zm13.7 11.8c0 1 0 1.9.1 2.4c.04 0-2.7 0-2.7 0l-.2-1c0 0-.04.02 0 0c-.7.8-1.7 1.2-2.8 1.2c-2 0-3.2-1.4-3.2-3c0-2.5 2.3-3.7 5.7-3.7c0 0 0-.1 0-.1c0-.6-.2-1.3-1.7-1.3c-1 0-2.1.3-2.7.7c0 0-.6-1.9-.6-1.9c.7-.4 2-.9 3.8-.9c3.3 0 4.3 1.9 4.3 4.2c0 0 0 3.4 0 3.4zm-3-2.2c-1.6 0-2.8.4-2.8 1.5c0 .8.5 1.2 1.2 1.2c.7 0 1.4-.5 1.6-1.1c0-.2 0-.4 0-.6c0 0 0-1 0-1zm5.4-2.1c0-1.2 0-2.2-.1-3.1c.02.02 2.7 0 2.7 0l.1 1.4c0 0 .06-.02.1 0c.4-.7 1.3-1.6 3-1.6c2 0 3.5 1.3 3.5 4.2c-.02.02 0 5.8 0 5.8l-3.1 0c0 0 .04-5.42 0-5.4c0-1.3-.4-2.1-1.5-2.1c-.8 0-1.3.5-1.6 1.1c0 .2-.1.5-.1.8c.04-.04 0 5.6 0 5.6l-3 0c0 0 0-6.66 0-6.7zm21.2-7.5c0 0 0 11.28 0 11.3c0 1.1 0 2.2.1 2.9c-.02 0-2.7 0-2.7 0l-.1-1.4c0 0-.1-.02-.1 0c-.6 1.1-1.8 1.6-3.1 1.6c-2.3 0-4.1-2-4.1-5c-.1-3.3 2-5.2 4.3-5.2c1.3 0 2.2.4 2.6 1.1c.02-.02.1 0 .1 0l0-5.3l3 0zm-3 8.6c0-.2 0-.4-.1-.6c-.2-.8-.8-1.5-1.8-1.5c-1.4 0-2.1 1.3-2.1 2.8c0 1.7.9 2.7 2.1 2.7c.9 0 1.6-.6 1.8-1.5c0-.2.1-.4.1-.7c0 0 0-1.2 0-1.2z" stroke="none" fill="#000"/></g></svg>