<?xml version="1.0" standalone="no"?><!DOCTYPE svg PUBLIC "-//W3C//DTD SVG 1.1//EN" "http://www.w3.org/Graphics/SVG/1.1/DTD/svg11.dtd"><svg xmlns="http://www.w3.org/2000/svg" version="1.1" width="427px" height="197.5px" viewBox="0 0 427 197.5"><desc>California Sea Lions</desc><defs/><g id="Polygon13932"><path d="m155.6 101.9c-.4.2-1.1.3-2 .3c-3.3 0-4.9-2.7-4.9-6.4c0-4.9 2.7-6.8 5.3-6.8c.9 0 1.5.2 1.7.3c0 0-.4 2.1-.4 2.1c-.3-.1-.6-.2-1.2-.2c-1.4 0-2.7 1.2-2.7 4.5c0 3.1 1.2 4.3 2.7 4.3c.4 0 .9-.1 1.2-.2c0 0 .3 2.1.3 2.1zm7.6-2c0 .8 0 1.6.1 2.2c.02-.01-2.2 0-2.2 0l-.2-.9c0 0-.03-.03 0 0c-.5.7-1.3 1-2.1 1c-1.4 0-2.5-1.1-2.5-2.8c0-2.5 2.2-3.5 4.3-3.5c0 0 0-.2 0-.2c0-.8-.4-1.3-1.3-1.3c-.8 0-1.4.2-1.9.5c0 0-.5-1.7-.5-1.7c.5-.3 1.6-.7 2.9-.7c2.9 0 3.4 2 3.4 3.9c0 0 0 3.5 0 3.5zm-2.5-2.4c-.8 0-2 .3-2 1.6c0 .9.5 1.3.9 1.3c.4 0 .9-.3 1-.8c.1-.2.1-.3.1-.5c0 0 0-1.6 0-1.6zm4.3-8.7l2.5 0l0 13.3l-2.5 0l0-13.3zm4.3 13.3l0-9.4l2.5 0l0 9.4l-2.5 0zm2.5-11.9c0 .8-.5 1.3-1.3 1.3c-.7 0-1.3-.5-1.3-1.3c0-.9.6-1.4 1.3-1.4c.8 0 1.3.5 1.3 1.4zm2.2 11.9l0-7.6l-1.2 0l0-1.8l1.2 0c0 0 .04-.4 0-.4c0-1.1.3-2.1 1-2.8c.6-.6 1.4-.9 2.3-.9c.6 0 1.1.1 1.5.2c0 0-.3 2-.3 2c-.2-.1-.5-.1-.8-.1c-.8 0-1.1.7-1.1 1.5c-.04.02 0 .5 0 .5l1.6 0l0 1.8l-1.6 0l0 7.6l-2.6 0zm11.8-4.8c0 4-2.1 4.9-3.6 4.9c-2.2 0-3.6-1.7-3.6-4.8c0-3.4 1.8-4.9 3.7-4.9c2.2 0 3.5 1.9 3.5 4.8zm-4.7 0c0 1.7.3 3 1.2 3c.8 0 1-1.6 1-3c0-1.2-.2-2.9-1.1-2.9c-.9 0-1.1 1.7-1.1 2.9zm6.2-1.8c0-.9-.1-1.9-.1-2.8c-.02-.04 2.2 0 2.2 0l.1 1.3c0 0 .07.03.1 0c.4-1 1.1-1.5 1.8-1.5c.3 0 .4 0 .6 0c0 0 0 2.5 0 2.5c-.2 0-.4 0-.6 0c-.5 0-1.2.4-1.5 1.3c-.1.3-.1.6-.1 1c-.01-.01 0 4.8 0 4.8l-2.5 0c0 0-.04-6.6 0-6.6zm5.6 0c0-1 0-1.9 0-2.8c-.05-.04 2.1 0 2.1 0l.2 1c0 0 0 .04 0 0c.5-.7 1.3-1.2 2.3-1.2c1.8 0 2.5 1.4 2.5 3.5c-.02.04 0 6.1 0 6.1l-2.5 0c0 0-.04-5.91 0-5.9c0-.8-.2-1.6-1-1.6c-.4 0-.7.3-.9.9c-.1.2-.1.5-.1.8c-.05.05 0 5.8 0 5.8l-2.6 0c0 0 .03-6.6 0-6.6zm8.9 6.6l0-9.4l2.5 0l0 9.4l-2.5 0zm2.5-11.9c0 .8-.6 1.3-1.3 1.3c-.7 0-1.3-.5-1.3-1.3c0-.9.6-1.4 1.3-1.4c.7 0 1.3.5 1.3 1.4zm8.1 9.7c0 .8.1 1.6.2 2.2c-.05-.01-2.3 0-2.3 0l-.1-.9c0 0-.1-.03-.1 0c-.5.7-1.2 1-2.1 1c-1.4 0-2.5-1.1-2.5-2.8c0-2.5 2.2-3.5 4.4-3.5c0 0 0-.2 0-.2c0-.8-.5-1.3-1.4-1.3c-.7 0-1.3.2-1.9.5c0 0-.5-1.7-.5-1.7c.6-.3 1.7-.7 3-.7c2.9 0 3.3 2 3.3 3.9c0 0 0 3.5 0 3.5zm-2.5-2.4c-.8 0-2 .3-2 1.6c0 .9.5 1.3.9 1.3c.5 0 .9-.3 1.1-.8c0-.2 0-.3 0-.5c0 0 0-1.6 0-1.6zm7.3 2c.5.3 1.4.5 2.1.5c1.2 0 1.8-.6 1.8-1.5c0-.9-.6-1.4-1.7-2.1c-1.7-1.1-2.4-2.4-2.4-3.6c0-2.1 1.4-3.8 4.1-3.8c.8 0 1.7.2 2 .4c0 0-.4 2.2-.4 2.2c-.4-.2-.9-.4-1.6-.4c-1.1 0-1.6.6-1.6 1.3c0 .8.4 1.2 1.7 2.1c1.8 1 2.4 2.3 2.4 3.7c0 2.3-1.8 3.9-4.3 3.9c-1 0-2-.3-2.5-.5c0 0 .4-2.2.4-2.2zm9.9-1.2c.1 1.4.9 2 2 2c.7 0 1.4-.2 1.8-.3c0 0 .4 1.8.4 1.8c-.7.2-1.7.4-2.6.4c-2.6 0-4-1.7-4-4.6c0-3.2 1.7-5.1 3.8-5.1c2 0 3.2 1.6 3.2 4.5c0 .6-.1 1-.1 1.3c0 0-4.5 0-4.5 0zm2.3-1.8c0-1.2-.3-2.2-1.1-2.2c-.8 0-1.1 1.3-1.2 2.2c0 0 2.3 0 2.3 0zm10.1 3.4c0 .8 0 1.6.1 2.2c0-.01-2.3 0-2.3 0l-.1-.9c0 0-.05-.03 0 0c-.6.7-1.3 1-2.1 1c-1.5 0-2.5-1.1-2.5-2.8c0-2.5 2.2-3.5 4.3-3.5c0 0 0-.2 0-.2c0-.8-.4-1.3-1.3-1.3c-.8 0-1.4.2-2 .5c0 0-.4-1.7-.4-1.7c.5-.3 1.6-.7 2.9-.7c2.9 0 3.4 2 3.4 3.9c0 0 0 3.5 0 3.5zm-2.5-2.4c-.9 0-2 .3-2 1.6c0 .9.5 1.3.9 1.3c.4 0 .8-.3 1-.8c.1-.2.1-.3.1-.5c0 0 0-1.6 0-1.6zm7.5-8.4l2.6 0l0 10.9l3.3 0l0 2.1l-5.9 0l0-13zm7.1 13l0-9.4l2.6 0l0 9.4l-2.6 0zm2.6-11.9c0 .8-.6 1.3-1.4 1.3c-.7 0-1.2-.5-1.2-1.3c0-.9.6-1.4 1.3-1.4c.7 0 1.3.5 1.3 1.4zm8.6 7.1c0 4-2.2 4.9-3.6 4.9c-2.3 0-3.6-1.7-3.6-4.8c0-3.4 1.8-4.9 3.6-4.9c2.3 0 3.6 1.9 3.6 4.8zm-4.7 0c0 1.7.3 3 1.2 3c.8 0 1-1.6 1-3c0-1.2-.2-2.9-1.1-2.9c-.9 0-1.1 1.7-1.1 2.9zm6.1-1.8c0-1 0-1.9 0-2.8c-.04-.04 2.1 0 2.1 0l.2 1c0 0 .01.04 0 0c.5-.7 1.3-1.2 2.3-1.2c1.8 0 2.5 1.4 2.5 3.5c-.01.04 0 6.1 0 6.1l-2.5 0c0 0-.03-5.91 0-5.9c0-.8-.2-1.6-1-1.6c-.4 0-.7.3-.9.9c-.1.2-.1.5-.1.8c-.04.05 0 5.8 0 5.8l-2.6 0c0 0 .04-6.6 0-6.6zm8.8 4.3c.4.2 1 .5 1.7.5c.6 0 1-.3 1-.8c0-.5-.3-.8-1.1-1.3c-1.5-.9-1.9-1.9-1.9-2.7c0-1.7 1.2-3 3.1-3c.8 0 1.4.2 1.9.4c0 0-.4 1.9-.4 1.9c-.4-.2-.8-.4-1.3-.4c-.7 0-1 .4-1 .8c0 .4.2.7 1.1 1.2c1.4.8 1.9 1.8 1.9 2.8c0 2-1.4 3-3.3 3c-.8 0-1.7-.2-2.2-.5c0 0 .5-1.9.5-1.9z" stroke="none" fill="#000" fill-opacity="0.7"/></g></svg>