<?xml version="1.0" standalone="no"?><!DOCTYPE svg PUBLIC "-//W3C//DTD SVG 1.1//EN" "http://www.w3.org/Graphics/SVG/1.1/DTD/svg11.dtd"><svg xmlns="http://www.w3.org/2000/svg" xmlns:xlink="http://www.w3.org/1999/xlink" version="1.1" width="278px" height="70.9px" viewBox="0 0 278 70.9">  <desc>Dolphin seem to enjoy cavorting in the bow waves of large boats These dolphin were observed from the deck of the</desc>  <defs/>  <g class="svg-textframe-underlines">    <rect class="svg-underline" x="81.2" y="50.6" width="83.7" height="1" style="fill:#00aa32;"/>  </g>  <g id="Polygon14139">    <path d="M 1.8 40.5 C 1.8 40.5 2.1 39.4 2.1 39.4 C 2.4 39.3 2.7 39.2 3.1 39.2 C 3.11 39.25 2.9 40.6 2.9 40.6 L 4.6 40.6 L 4.5 41.3 L 2.8 41.3 C 2.8 41.3 2.18 45.07 2.2 45.1 C 2.1 45.3 2.1 45.6 2.1 45.8 C 2.1 46.2 2.2 46.4 2.6 46.4 C 3.1 46.4 3.7 45.7 4 45 C 4 45 4.4 45.1 4.4 45.1 C 3.9 46.5 3.2 47.3 2.2 47.3 C 1.3 47.3 1 46.9 1 46 C 1 45.9 1 45.7 1 45.5 C 1.01 45.46 1.6 41.3 1.6 41.3 L 0.6 41.3 C 0.6 41.3 0.64 40.87 0.6 40.9 C 0.9 40.8 1.2 40.6 1.8 40.5 Z M 8.8 46.4 C 8.8 46.2 8.8 45.9 8.8 45.8 C 8.8 45.8 9.5 42.4 9.5 42.4 C 9.5 42.3 9.5 42.1 9.5 42 C 9.5 41.6 9.4 41.4 8.9 41.4 C 8.4 41.4 7.8 41.8 6.9 42.9 C 6.94 42.91 6.3 47.1 6.3 47.1 L 5.2 47.1 L 6.6 38.3 L 5.4 38.1 C 5.4 38.1 5.47 37.68 5.5 37.7 C 6 37.5 6.9 37.3 7.8 37.3 C 7.8 37.3 7.1 42.2 7.1 42.2 C 7.8 41.1 8.5 40.5 9.4 40.5 C 10.2 40.5 10.7 41 10.7 41.6 C 10.7 41.8 10.7 42 10.6 42.1 C 10.6 42.1 10 45.6 10 45.6 C 10 45.8 9.9 46 9.9 46.1 C 9.9 46.4 10.1 46.5 10.5 46.5 C 10.53 46.47 11.1 46.5 11.1 46.5 C 11.1 46.5 11 46.92 11 46.9 C 10.7 47.1 10.2 47.3 9.7 47.3 C 9.1 47.3 8.8 46.9 8.8 46.4 C 8.8 46.4 8.8 46.4 8.8 46.4 Z M 15.5 40.5 C 16.6 40.5 17.2 41.1 17.2 41.9 C 17.2 43.2 16.2 43.9 13.9 43.9 C 13.9 43.9 13.4 43.9 13.4 43.9 C 13.3 44.3 13.3 44.7 13.3 45 C 13.3 46 13.8 46.4 14.4 46.4 C 15.2 46.4 15.8 46 16.4 45 C 16.4 45 16.8 45.1 16.8 45.1 C 16.1 46.6 15.2 47.3 14.1 47.3 C 12.7 47.3 12.1 46.5 12.1 45 C 12.1 42.9 13 40.5 15.5 40.5 Z M 13.4 43.4 C 13.4 43.4 13.9 43.4 13.9 43.4 C 15.3 43.4 16 42.9 16 41.9 C 16 41.4 15.8 41 15.3 41 C 14.3 41 13.7 42.2 13.4 43.4 Z M 27 37.3 C 27 37.3 25.7 45.6 25.7 45.6 C 25.7 45.8 25.7 46 25.7 46.1 C 25.7 46.4 25.8 46.5 26.3 46.5 C 26.26 46.47 26.8 46.5 26.8 46.5 C 26.8 46.5 26.74 46.92 26.7 46.9 C 26.4 47.1 26 47.3 25.4 47.3 C 24.8 47.3 24.6 46.9 24.6 46.3 C 24.6 46.2 24.6 45.9 24.6 45.8 C 24.6 45.8 24.7 45.5 24.7 45.5 C 24.1 46.7 23.4 47.3 22.4 47.3 C 21.4 47.3 20.9 46.5 20.9 45.2 C 20.9 42.9 22 40.5 24.1 40.5 C 24.7 40.5 25.1 40.7 25.4 41 C 25.37 41.01 25.8 38.3 25.8 38.3 L 24.6 38.1 C 24.6 38.1 24.68 37.68 24.7 37.7 C 25.3 37.5 26.1 37.3 27 37.3 Z M 24.7 44.9 C 24.7 44.9 25.3 41.4 25.3 41.4 C 25.1 41.3 24.8 41.2 24.4 41.2 C 22.9 41.2 22.1 43.2 22.1 45.1 C 22.1 46 22.3 46.4 23 46.4 C 23.6 46.4 24.2 45.8 24.7 44.9 Z M 31.1 40.5 C 32.3 40.5 32.9 41.1 32.9 41.9 C 32.9 43.2 31.9 43.9 29.6 43.9 C 29.6 43.9 29 43.9 29 43.9 C 29 44.3 29 44.7 29 45 C 29 46 29.5 46.4 30.1 46.4 C 30.9 46.4 31.4 46 32.1 45 C 32.1 45 32.4 45.1 32.4 45.1 C 31.8 46.6 30.9 47.3 29.7 47.3 C 28.4 47.3 27.8 46.5 27.8 45 C 27.8 42.9 28.7 40.5 31.1 40.5 Z M 29.1 43.4 C 29.1 43.4 29.6 43.4 29.6 43.4 C 31 43.4 31.7 42.9 31.7 41.9 C 31.7 41.4 31.5 41 31 41 C 30 41 29.4 42.2 29.1 43.4 Z M 37 40.5 C 37.6 40.5 38.2 40.6 38.5 40.9 C 38.5 41.5 38.3 42 38.1 42.6 C 38.08 42.55 37.4 42.6 37.4 42.6 C 37.4 42.6 37.3 41.07 37.3 41.1 C 37.2 41.1 37.1 41 37 41 C 35.4 41 34.7 43.3 34.7 45 C 34.7 46 35.2 46.4 35.8 46.4 C 36.6 46.4 37.2 46 37.8 45 C 37.8 45 38.2 45.1 38.2 45.1 C 37.6 46.6 36.7 47.3 35.5 47.3 C 34.2 47.3 33.5 46.5 33.5 45 C 33.5 42.9 34.5 40.5 37 40.5 Z M 41.8 37.3 C 41.83 37.34 40.3 47.1 40.3 47.1 L 39.1 47.1 L 40.6 38.3 L 39.4 38.1 C 39.4 38.1 39.47 37.68 39.5 37.7 C 40 37.5 40.9 37.3 41.8 37.3 Z M 45.2 40.6 C 45.25 40.59 45.2 41.2 45.2 41.2 L 44.5 41.4 L 42.1 43.4 C 42.1 43.4 43.18 45.8 43.2 45.8 C 43.4 46.4 43.6 46.5 44.1 46.5 C 44.07 46.47 44.6 46.5 44.6 46.5 C 44.6 46.5 44.52 46.92 44.5 46.9 C 44.2 47.1 43.8 47.3 43.4 47.3 C 42.8 47.3 42.5 47 42.2 46.3 C 42.22 46.3 41 43.6 41 43.6 L 43.4 41.5 L 42.3 41.3 C 42.3 41.3 42.38 40.87 42.4 40.9 C 43 40.7 44.3 40.6 45.2 40.6 Z M 51.5 40.5 C 53.3 40.5 53.8 41.6 53.8 42.9 C 53.8 45 52.8 47.3 50.5 47.3 C 48.8 47.3 48.2 46.2 48.2 44.9 C 48.2 42.8 49.3 40.5 51.5 40.5 Z M 50.6 46.8 C 51.9 46.8 52.6 44.6 52.6 42.8 C 52.6 41.8 52.3 41 51.5 41 C 50.1 41 49.4 43.2 49.4 45 C 49.4 46 49.7 46.8 50.6 46.8 Z M 54.8 40.9 C 55 40.8 55.4 40.6 55.9 40.5 C 55.9 40.5 56 40.1 56 40.1 C 56.3 38.2 57.1 37.3 58.9 37.3 C 59.4 37.3 60.1 37.4 60.5 37.5 C 60.4 38.1 60.3 38.5 60.1 39 C 60.09 39.02 59.2 39 59.2 39 C 59.2 39 59.25 37.92 59.2 37.9 C 59.1 37.9 59 37.9 58.9 37.9 C 58 37.9 57.4 38.3 57.2 39.8 C 57.17 39.75 57 40.6 57 40.6 L 58.5 40.6 L 58.4 41.3 L 56.9 41.3 C 56.9 41.3 56.06 47.03 56.1 47 C 55.8 48.8 54.6 49.9 53.5 49.9 C 53.1 49.9 52.8 49.7 52.5 49.4 C 52.5 49.4 52.5 48.9 52.5 48.9 C 52.8 48.9 53.1 49 53.5 49 C 54.5 49 54.7 49 54.9 47.1 C 54.94 47.14 55.8 41.3 55.8 41.3 L 54.7 41.3 L 54.8 40.9 C 54.8 40.9 54.8 40.87 54.8 40.9 Z M 62.8 40.5 C 62.8 40.5 63.1 39.4 63.1 39.4 C 63.3 39.3 63.7 39.2 64 39.2 C 64.03 39.25 63.8 40.6 63.8 40.6 L 65.5 40.6 L 65.4 41.3 L 63.7 41.3 C 63.7 41.3 63.11 45.07 63.1 45.1 C 63.1 45.3 63 45.6 63 45.8 C 63 46.2 63.2 46.4 63.5 46.4 C 64.1 46.4 64.6 45.7 64.9 45 C 64.9 45 65.3 45.1 65.3 45.1 C 64.9 46.5 64.1 47.3 63.1 47.3 C 62.3 47.3 61.9 46.9 61.9 46 C 61.9 45.9 61.9 45.7 61.9 45.5 C 61.94 45.46 62.6 41.3 62.6 41.3 L 61.5 41.3 C 61.5 41.3 61.57 40.87 61.6 40.9 C 61.8 40.8 62.2 40.6 62.8 40.5 Z M 69.7 46.4 C 69.7 46.2 69.7 45.9 69.8 45.8 C 69.8 45.8 70.4 42.4 70.4 42.4 C 70.4 42.3 70.4 42.1 70.4 42 C 70.4 41.6 70.3 41.4 69.8 41.4 C 69.3 41.4 68.7 41.8 67.9 42.9 C 67.87 42.91 67.2 47.1 67.2 47.1 L 66.1 47.1 L 67.5 38.3 L 66.4 38.1 C 66.4 38.1 66.4 37.68 66.4 37.7 C 67 37.5 67.8 37.3 68.8 37.3 C 68.8 37.3 68 42.2 68 42.2 C 68.7 41.1 69.4 40.5 70.3 40.5 C 71.2 40.5 71.6 41 71.6 41.6 C 71.6 41.8 71.6 42 71.6 42.1 C 71.6 42.1 70.9 45.6 70.9 45.6 C 70.9 45.8 70.9 46 70.9 46.1 C 70.9 46.4 71 46.5 71.5 46.5 C 71.45 46.47 72 46.5 72 46.5 C 72 46.5 71.93 46.92 71.9 46.9 C 71.6 47.1 71.2 47.3 70.6 47.3 C 70 47.3 69.7 46.9 69.7 46.4 C 69.7 46.4 69.7 46.4 69.7 46.4 Z M 76.4 40.5 C 77.6 40.5 78.1 41.1 78.1 41.9 C 78.1 43.2 77.1 43.9 74.9 43.9 C 74.9 43.9 74.3 43.9 74.3 43.9 C 74.2 44.3 74.2 44.7 74.2 45 C 74.2 46 74.7 46.4 75.3 46.4 C 76.1 46.4 76.7 46 77.3 45 C 77.3 45 77.7 45.1 77.7 45.1 C 77.1 46.6 76.2 47.3 75 47.3 C 73.6 47.3 73 46.5 73 45 C 73 42.9 74 40.5 76.4 40.5 Z M 74.4 43.4 C 74.4 43.4 74.8 43.4 74.8 43.4 C 76.3 43.4 76.9 42.9 76.9 41.9 C 76.9 41.4 76.7 41 76.2 41 C 75.3 41 74.6 42.2 74.4 43.4 Z M 165.3 46.5 C 165.3 45.9 165.7 45.5 166.2 45.5 C 166.7 45.5 167 45.7 167 46.2 C 167 46.9 166.6 47.3 166.1 47.3 C 165.6 47.3 165.3 47 165.3 46.5 Z " stroke="none" fill="#fff"/>    <a xlink:href="http://www.nps.gov/chis/learn/news/ipco-new-boat.htm?target=_lightbox" class="lightbox" xlink:show="undefined" xlink:title="Island Explorer">      <rect style="fill:transparent;" x="80" y="36" width="85" height="13"/>    </a>  </g>  <g id="Polygon14138">    <path d="M 3.9 22.5 C 5.6 22.5 6.2 23.6 6.2 24.9 C 6.2 27 5.1 29.3 2.9 29.3 C 1.1 29.3 0.6 28.2 0.6 26.9 C 0.6 24.8 1.6 22.5 3.9 22.5 Z M 2.9 28.8 C 4.3 28.8 5 26.6 5 24.8 C 5 23.8 4.6 23 3.8 23 C 2.5 23 1.7 25.2 1.7 27 C 1.7 28 2.1 28.8 2.9 28.8 Z M 7.1 22.9 C 7.4 22.8 7.7 22.6 8.3 22.5 C 8.3 22.5 8.3 22.1 8.3 22.1 C 8.6 20.2 9.5 19.3 11.2 19.3 C 11.8 19.3 12.5 19.4 12.8 19.5 C 12.8 20.1 12.7 20.5 12.4 21 C 12.43 21.02 11.6 21 11.6 21 C 11.6 21 11.59 19.92 11.6 19.9 C 11.5 19.9 11.4 19.9 11.3 19.9 C 10.4 19.9 9.7 20.3 9.5 21.8 C 9.52 21.75 9.4 22.6 9.4 22.6 L 10.8 22.6 L 10.7 23.3 L 9.3 23.3 C 9.3 23.3 8.4 29.03 8.4 29 C 8.1 30.8 6.9 31.9 5.9 31.9 C 5.4 31.9 5.1 31.7 4.8 31.4 C 4.8 31.4 4.9 30.9 4.9 30.9 C 5.1 30.9 5.5 31 5.8 31 C 6.9 31 7 31 7.3 29.1 C 7.28 29.14 8.1 23.3 8.1 23.3 L 7.1 23.3 L 7.1 22.9 C 7.1 22.9 7.14 22.87 7.1 22.9 Z M 16.7 19.3 C 16.7 19.3 15.4 27.6 15.4 27.6 C 15.3 27.8 15.3 28 15.3 28.1 C 15.3 28.4 15.5 28.5 15.9 28.5 C 15.9 28.47 16.5 28.5 16.5 28.5 C 16.5 28.5 16.38 28.92 16.4 28.9 C 16.1 29.1 15.6 29.3 15.1 29.3 C 14.4 29.3 14.2 28.9 14.2 28.3 C 14.2 28.2 14.2 27.9 14.2 27.8 C 14.22 27.8 15.4 20.3 15.4 20.3 L 14.3 20.1 C 14.3 20.1 14.32 19.68 14.3 19.7 C 14.9 19.5 15.7 19.3 16.7 19.3 Z M 20.7 22.5 C 21.3 22.5 21.7 22.7 22 23.1 C 22.2 22.8 22.5 22.6 22.7 22.5 C 22.74 22.48 23.1 22.6 23.1 22.6 C 23.1 22.6 22.32 27.63 22.3 27.6 C 22.3 27.8 22.3 28 22.3 28.1 C 22.3 28.4 22.4 28.5 22.8 28.5 C 22.85 28.47 23.4 28.5 23.4 28.5 C 23.4 28.5 23.32 28.92 23.3 28.9 C 23 29.1 22.6 29.3 22 29.3 C 21.4 29.3 21.2 28.9 21.2 28.3 C 21.2 28.2 21.2 27.9 21.2 27.8 C 21.2 27.8 21.3 27.5 21.3 27.5 C 20.7 28.7 19.9 29.3 19 29.3 C 18 29.3 17.5 28.5 17.5 27.2 C 17.5 24.9 18.6 22.5 20.7 22.5 Z M 21.3 26.9 C 21.3 26.9 21.9 23.4 21.9 23.4 C 21.7 23.3 21.4 23.2 21 23.2 C 19.5 23.2 18.6 25.2 18.6 27.1 C 18.6 28 18.9 28.4 19.5 28.4 C 20.2 28.4 20.7 27.8 21.3 26.9 Z M 26.8 22.5 C 26.8 22.5 26.5 24.3 26.5 24.3 C 27.1 23.1 27.7 22.5 28.4 22.5 C 28.8 22.5 29.1 22.6 29.2 22.8 C 29.2 23.4 29 24 28.8 24.6 C 28.78 24.55 28.1 24.6 28.1 24.6 L 28 23.4 C 28 23.4 28 23.37 28 23.4 C 27.6 23.4 27 24 26.3 25.2 C 26.33 25.21 25.7 29.1 25.7 29.1 L 24.6 29.1 L 25.5 23.4 L 24.5 23.3 C 24.5 23.3 24.51 22.82 24.5 22.8 C 25.1 22.6 25.8 22.5 26.8 22.5 Z M 30.4 28.8 C 30.1 28.7 29.9 28.4 29.9 28 C 29.9 27.5 30.3 27.1 31 26.7 C 30.2 26.4 29.8 25.7 29.8 25 C 29.8 23.4 31.1 22.5 32.5 22.5 C 33.1 22.5 33.6 22.6 34 22.9 C 34.3 22.6 34.9 22.4 35.7 22.4 C 35.7 22.8 35.6 23 35.4 23.3 C 35.4 23.3 34.4 23.3 34.4 23.3 C 34.6 23.6 34.7 24 34.7 24.4 C 34.7 26 33.4 26.9 32 26.9 C 31.8 26.9 31.6 26.9 31.4 26.8 C 31.1 27.1 30.9 27.3 30.9 27.6 C 30.9 27.9 31 28 31.4 28 C 31.4 28 33 28.1 33 28.1 C 34.2 28.2 34.7 28.6 34.7 29.4 C 34.7 30.7 33.4 31.9 31.2 31.9 C 29.6 31.9 28.8 31.4 28.8 30.4 C 28.8 29.6 29.4 29.1 30.4 28.8 Z M 32 26.3 C 33 26.3 33.5 25.6 33.5 24.4 C 33.5 23.6 33.2 23 32.5 23 C 31.5 23 31 23.8 31 25 C 31 25.8 31.3 26.3 32 26.3 C 32 26.3 32 26.3 32 26.3 Z M 29.8 30.2 C 29.8 30.9 30.4 31.3 31.4 31.3 C 32.8 31.3 33.7 30.7 33.7 29.9 C 33.7 29.4 33.5 29.1 32.6 29.1 C 32.6 29.1 30.8 29 30.8 29 C 30.1 29.3 29.8 29.7 29.8 30.2 Z M 39.1 22.5 C 40.3 22.5 40.8 23.1 40.8 23.9 C 40.8 25.2 39.8 25.9 37.6 25.9 C 37.6 25.9 37 25.9 37 25.9 C 36.9 26.3 36.9 26.7 36.9 27 C 36.9 28 37.4 28.4 38 28.4 C 38.8 28.4 39.4 28 40 27 C 40 27 40.4 27.1 40.4 27.1 C 39.8 28.6 38.9 29.3 37.7 29.3 C 36.3 29.3 35.7 28.5 35.7 27 C 35.7 24.9 36.7 22.5 39.1 22.5 Z M 37.1 25.4 C 37.1 25.4 37.5 25.4 37.5 25.4 C 39 25.4 39.6 24.9 39.6 23.9 C 39.6 23.4 39.4 23 38.9 23 C 38 23 37.4 24.2 37.1 25.4 Z M 47.3 19.3 C 47.3 19.3 46.6 24.1 46.6 24.1 C 47.2 23 47.8 22.5 48.8 22.5 C 49.7 22.5 50.3 23.3 50.3 24.6 C 50.3 26.8 49.2 29.3 47 29.3 C 46.5 29.3 46 29 45.7 28.7 C 45.5 28.9 45.2 29.2 45 29.3 C 44.97 29.25 44.6 29.1 44.6 29.1 L 46.1 20.3 L 44.9 20.1 C 44.9 20.1 44.95 19.68 45 19.7 C 45.5 19.5 46.4 19.3 47.3 19.3 Z M 46.4 24.8 C 46.4 24.8 45.9 28.4 45.9 28.4 C 46.1 28.5 46.4 28.6 46.8 28.6 C 48.3 28.6 49.1 26.5 49.1 24.6 C 49.1 23.8 48.8 23.4 48.2 23.4 C 47.6 23.4 47 23.9 46.4 24.8 Z M 54.7 22.5 C 56.4 22.5 57 23.6 57 24.9 C 57 27 55.9 29.3 53.7 29.3 C 52 29.3 51.4 28.2 51.4 26.9 C 51.4 24.8 52.5 22.5 54.7 22.5 Z M 53.8 28.8 C 55.1 28.8 55.8 26.6 55.8 24.8 C 55.8 23.8 55.5 23 54.7 23 C 53.3 23 52.6 25.2 52.6 27 C 52.6 28 52.9 28.8 53.8 28.8 Z M 61.4 22.5 C 61.9 22.5 62.3 22.7 62.6 23.1 C 62.8 22.8 63.1 22.6 63.4 22.5 C 63.39 22.48 63.8 22.6 63.8 22.6 C 63.8 22.6 62.97 27.63 63 27.6 C 62.9 27.8 62.9 28 62.9 28.1 C 62.9 28.4 63.1 28.5 63.5 28.5 C 63.5 28.47 64.1 28.5 64.1 28.5 C 64.1 28.5 63.98 28.92 64 28.9 C 63.7 29.1 63.2 29.3 62.7 29.3 C 62 29.3 61.8 28.9 61.8 28.3 C 61.8 28.2 61.9 27.9 61.9 27.8 C 61.9 27.8 61.9 27.5 61.9 27.5 C 61.3 28.7 60.6 29.3 59.6 29.3 C 58.7 29.3 58.1 28.5 58.1 27.2 C 58.1 24.9 59.2 22.5 61.4 22.5 Z M 62 26.9 C 62 26.9 62.6 23.4 62.6 23.4 C 62.3 23.3 62 23.2 61.7 23.2 C 60.1 23.2 59.3 25.2 59.3 27.1 C 59.3 28 59.6 28.4 60.2 28.4 C 60.8 28.4 61.4 27.8 62 26.9 Z M 66.2 22.5 C 66.2 22.5 66.5 21.4 66.5 21.4 C 66.8 21.3 67.1 21.2 67.5 21.2 C 67.51 21.25 67.3 22.6 67.3 22.6 L 69 22.6 L 68.9 23.3 L 67.2 23.3 C 67.2 23.3 66.58 27.07 66.6 27.1 C 66.5 27.3 66.5 27.6 66.5 27.8 C 66.5 28.2 66.6 28.4 67 28.4 C 67.5 28.4 68.1 27.7 68.4 27 C 68.4 27 68.8 27.1 68.8 27.1 C 68.3 28.5 67.6 29.3 66.6 29.3 C 65.7 29.3 65.4 28.9 65.4 28 C 65.4 27.9 65.4 27.7 65.4 27.5 C 65.41 27.46 66 23.3 66 23.3 L 65 23.3 C 65 23.3 65.04 22.87 65 22.9 C 65.3 22.8 65.6 22.6 66.2 22.5 Z M 69.9 27.2 C 69.9 27.18 70.6 27.2 70.6 27.2 C 70.6 27.2 70.67 28.61 70.7 28.6 C 71 28.7 71.2 28.7 71.4 28.7 C 72.2 28.7 72.9 28.3 72.9 27.6 C 72.9 26.9 72.3 26.7 71.6 26.3 C 71.6 26.3 71.1 26 71.1 26 C 70.6 25.7 70.2 25.2 70.2 24.5 C 70.2 23.3 71 22.5 72.5 22.5 C 73.2 22.5 74 22.6 74.3 22.9 C 74.3 23.5 74.2 24 73.9 24.6 C 73.93 24.55 73.2 24.6 73.2 24.6 C 73.2 24.6 73.15 23.11 73.1 23.1 C 72.9 23.1 72.6 23 72.5 23 C 71.7 23 71.2 23.4 71.2 24.2 C 71.2 24.6 71.6 25 72 25.2 C 72 25.2 72.5 25.5 72.5 25.5 C 73.2 25.9 73.9 26.2 73.9 27.2 C 73.9 28.5 73 29.3 71.4 29.3 C 70.8 29.3 69.8 29.1 69.5 28.9 C 69.5 28.2 69.7 27.7 69.9 27.2 Z M 75.3 28.5 C 75.3 27.9 75.7 27.5 76.2 27.5 C 76.7 27.5 77 27.7 77 28.2 C 77 28.9 76.6 29.3 76.1 29.3 C 75.6 29.3 75.3 29 75.3 28.5 Z M 82.2 20.2 C 82.2 20.2 89.5 20.2 89.5 20.2 C 89.5 20.9 89.4 21.7 89.2 22.5 C 89.15 22.53 88.5 22.5 88.5 22.5 L 88.4 20.9 L 86.3 20.9 C 86.3 20.9 85.18 28.42 85.2 28.4 C 85.6 28.4 86.2 28.5 86.5 28.6 C 86.52 28.64 86.4 29.1 86.4 29.1 L 82.6 29.1 C 82.6 29.1 82.68 28.64 82.7 28.6 C 83 28.5 83.5 28.4 83.9 28.4 C 83.94 28.42 85.1 20.9 85.1 20.9 L 83.1 20.9 L 82.5 22.5 C 82.5 22.5 81.87 22.53 81.9 22.5 C 81.9 21.7 82 20.8 82.2 20.2 Z M 93.5 28.4 C 93.5 28.2 93.5 27.9 93.6 27.8 C 93.6 27.8 94.2 24.4 94.2 24.4 C 94.2 24.3 94.2 24.1 94.2 24 C 94.2 23.6 94.1 23.4 93.6 23.4 C 93.1 23.4 92.5 23.8 91.7 24.9 C 91.67 24.91 91 29.1 91 29.1 L 89.9 29.1 L 91.3 20.3 L 90.2 20.1 C 90.2 20.1 90.2 19.68 90.2 19.7 C 90.8 19.5 91.6 19.3 92.6 19.3 C 92.6 19.3 91.8 24.2 91.8 24.2 C 92.5 23.1 93.2 22.5 94.1 22.5 C 95 22.5 95.4 23 95.4 23.6 C 95.4 23.8 95.4 24 95.4 24.1 C 95.4 24.1 94.7 27.6 94.7 27.6 C 94.7 27.8 94.7 28 94.7 28.1 C 94.7 28.4 94.8 28.5 95.3 28.5 C 95.25 28.47 95.8 28.5 95.8 28.5 C 95.8 28.5 95.73 28.92 95.7 28.9 C 95.4 29.1 95 29.3 94.4 29.3 C 93.8 29.3 93.5 28.9 93.5 28.4 C 93.5 28.4 93.5 28.4 93.5 28.4 Z M 100.2 22.5 C 101.4 22.5 101.9 23.1 101.9 23.9 C 101.9 25.2 100.9 25.9 98.7 25.9 C 98.7 25.9 98.1 25.9 98.1 25.9 C 98 26.3 98 26.7 98 27 C 98 28 98.5 28.4 99.1 28.4 C 99.9 28.4 100.5 28 101.1 27 C 101.1 27 101.5 27.1 101.5 27.1 C 100.9 28.6 100 29.3 98.8 29.3 C 97.4 29.3 96.8 28.5 96.8 27 C 96.8 24.9 97.8 22.5 100.2 22.5 Z M 98.2 25.4 C 98.2 25.4 98.6 25.4 98.6 25.4 C 100.1 25.4 100.7 24.9 100.7 23.9 C 100.7 23.4 100.5 23 100 23 C 99.1 23 98.4 24.2 98.2 25.4 Z M 102.8 27.2 C 102.83 27.18 103.6 27.2 103.6 27.2 C 103.6 27.2 103.6 28.61 103.6 28.6 C 103.9 28.7 104.1 28.7 104.4 28.7 C 105.2 28.7 105.8 28.3 105.8 27.6 C 105.8 26.9 105.3 26.7 104.6 26.3 C 104.6 26.3 104.1 26 104.1 26 C 103.5 25.7 103.1 25.2 103.1 24.5 C 103.1 23.3 103.9 22.5 105.4 22.5 C 106.1 22.5 106.9 22.6 107.3 22.9 C 107.3 23.5 107.1 24 106.9 24.6 C 106.86 24.55 106.1 24.6 106.1 24.6 C 106.1 24.6 106.08 23.11 106.1 23.1 C 105.8 23.1 105.6 23 105.4 23 C 104.6 23 104.1 23.4 104.1 24.2 C 104.1 24.6 104.5 25 104.9 25.2 C 104.9 25.2 105.4 25.5 105.4 25.5 C 106.2 25.9 106.9 26.2 106.9 27.2 C 106.9 28.5 105.9 29.3 104.3 29.3 C 103.7 29.3 102.8 29.1 102.4 28.9 C 102.4 28.2 102.6 27.7 102.8 27.2 Z M 111.4 22.5 C 112.6 22.5 113.1 23.1 113.1 23.9 C 113.1 25.2 112.1 25.9 109.9 25.9 C 109.9 25.9 109.3 25.9 109.3 25.9 C 109.2 26.3 109.2 26.7 109.2 27 C 109.2 28 109.7 28.4 110.3 28.4 C 111.1 28.4 111.7 28 112.3 27 C 112.3 27 112.7 27.1 112.7 27.1 C 112.1 28.6 111.2 29.3 110 29.3 C 108.6 29.3 108 28.5 108 27 C 108 24.9 109 22.5 111.4 22.5 Z M 109.4 25.4 C 109.4 25.4 109.8 25.4 109.8 25.4 C 111.3 25.4 111.9 24.9 111.9 23.9 C 111.9 23.4 111.7 23 111.2 23 C 110.3 23 109.6 24.2 109.4 25.4 Z M 123 19.3 C 123 19.3 121.7 27.6 121.7 27.6 C 121.6 27.8 121.6 28 121.6 28.1 C 121.6 28.4 121.7 28.5 122.2 28.5 C 122.19 28.47 122.7 28.5 122.7 28.5 C 122.7 28.5 122.67 28.92 122.7 28.9 C 122.4 29.1 121.9 29.3 121.4 29.3 C 120.7 29.3 120.5 28.9 120.5 28.3 C 120.5 28.2 120.5 27.9 120.6 27.8 C 120.6 27.8 120.6 27.5 120.6 27.5 C 120 28.7 119.3 29.3 118.3 29.3 C 117.4 29.3 116.8 28.5 116.8 27.2 C 116.8 24.9 117.9 22.5 120.1 22.5 C 120.6 22.5 121 22.7 121.3 23 C 121.29 23.01 121.7 20.3 121.7 20.3 L 120.6 20.1 C 120.6 20.1 120.61 19.68 120.6 19.7 C 121.2 19.5 122 19.3 123 19.3 Z M 120.7 26.9 C 120.7 26.9 121.2 23.4 121.2 23.4 C 121 23.3 120.7 23.2 120.3 23.2 C 118.8 23.2 118 25.2 118 27.1 C 118 28 118.3 28.4 118.9 28.4 C 119.5 28.4 120.1 27.8 120.7 26.9 Z M 127 22.5 C 128.7 22.5 129.3 23.6 129.3 24.9 C 129.3 27 128.2 29.3 126 29.3 C 124.3 29.3 123.7 28.2 123.7 26.9 C 123.7 24.8 124.8 22.5 127 22.5 Z M 126.1 28.8 C 127.4 28.8 128.1 26.6 128.1 24.8 C 128.1 23.8 127.8 23 127 23 C 125.6 23 124.9 25.2 124.9 27 C 124.9 28 125.2 28.8 126.1 28.8 Z M 132.9 19.3 C 132.9 19.3 131.6 27.6 131.6 27.6 C 131.5 27.8 131.5 28 131.5 28.1 C 131.5 28.4 131.7 28.5 132.1 28.5 C 132.1 28.47 132.7 28.5 132.7 28.5 C 132.7 28.5 132.58 28.92 132.6 28.9 C 132.3 29.1 131.8 29.3 131.3 29.3 C 130.6 29.3 130.4 28.9 130.4 28.3 C 130.4 28.2 130.4 27.9 130.4 27.8 C 130.42 27.8 131.6 20.3 131.6 20.3 L 130.5 20.1 C 130.5 20.1 130.52 19.68 130.5 19.7 C 131.1 19.5 131.9 19.3 132.9 19.3 Z M 136 22.5 C 136 22.5 135.8 24.1 135.8 24.1 C 136.3 23 137 22.5 138 22.5 C 138.9 22.5 139.5 23.3 139.5 24.6 C 139.5 26.8 138.4 29.3 136.2 29.3 C 135.7 29.3 135.3 29.1 135 28.7 C 135 28.7 134.6 31.1 134.6 31.1 C 135.1 31.1 135.6 31.2 135.9 31.3 C 135.91 31.33 135.8 31.8 135.8 31.8 L 132.5 31.8 C 132.5 31.8 132.58 31.33 132.6 31.3 C 132.9 31.2 133.1 31.1 133.5 31.1 C 133.5 31.1 134.8 23.4 134.8 23.4 L 133.7 23.3 C 133.7 23.3 133.77 22.82 133.8 22.8 C 134.3 22.6 135.1 22.5 136 22.5 Z M 135.6 24.9 C 135.6 24.9 135.1 28.4 135.1 28.4 C 135.3 28.5 135.6 28.6 136 28.6 C 137.5 28.6 138.3 26.5 138.3 24.6 C 138.3 23.8 138 23.4 137.4 23.4 C 136.8 23.4 136.2 24 135.6 24.9 Z M 144.1 28.4 C 144.1 28.2 144.2 27.9 144.2 27.8 C 144.2 27.8 144.8 24.4 144.8 24.4 C 144.8 24.3 144.9 24.1 144.9 24 C 144.9 23.6 144.7 23.4 144.3 23.4 C 143.8 23.4 143.2 23.8 142.3 24.9 C 142.3 24.91 141.6 29.1 141.6 29.1 L 140.5 29.1 L 141.9 20.3 L 140.8 20.1 C 140.8 20.1 140.83 19.68 140.8 19.7 C 141.4 19.5 142.2 19.3 143.2 19.3 C 143.2 19.3 142.4 24.2 142.4 24.2 C 143.1 23.1 143.8 22.5 144.8 22.5 C 145.6 22.5 146 23 146 23.6 C 146 23.8 146 24 146 24.1 C 146 24.1 145.3 27.6 145.3 27.6 C 145.3 27.8 145.3 28 145.3 28.1 C 145.3 28.4 145.4 28.5 145.9 28.5 C 145.88 28.47 146.4 28.5 146.4 28.5 C 146.4 28.5 146.35 28.92 146.4 28.9 C 146 29.1 145.6 29.3 145 29.3 C 144.4 29.3 144.1 28.9 144.1 28.4 C 144.1 28.4 144.1 28.4 144.1 28.4 Z M 149.2 19.6 C 149.3 19.6 149.6 19.6 149.8 19.6 C 150 19.6 150.3 19.6 150.4 19.6 C 150.4 20.1 150.2 20.7 150 21.1 C 149.9 21.2 149.7 21.2 149.5 21.2 C 149.3 21.2 149.1 21.2 149 21.1 C 149 20.7 149 20 149.2 19.6 Z M 149.9 22.5 C 149.9 22.5 149 27.6 149 27.6 C 149 27.8 149 28 149 28.1 C 149 28.4 149.1 28.5 149.6 28.5 C 149.57 28.47 150.1 28.5 150.1 28.5 C 150.1 28.5 150.05 28.92 150 28.9 C 149.7 29.1 149.3 29.3 148.7 29.3 C 148.1 29.3 147.8 28.9 147.8 28.3 C 147.8 28.2 147.9 27.9 147.9 27.8 C 147.9 27.8 148.6 23.4 148.6 23.4 L 147.6 23.3 C 147.6 23.3 147.6 22.82 147.6 22.8 C 148.2 22.6 148.9 22.5 149.9 22.5 Z M 153.5 22.5 C 153.5 22.5 153.2 24.2 153.2 24.2 C 153.9 23.1 154.6 22.5 155.6 22.5 C 156.4 22.5 156.8 23 156.8 23.6 C 156.8 23.8 156.8 24 156.8 24.1 C 156.8 24.1 156.2 27.6 156.2 27.6 C 156.1 27.8 156.1 28 156.1 28.1 C 156.1 28.4 156.2 28.5 156.7 28.5 C 156.69 28.47 157.2 28.5 157.2 28.5 C 157.2 28.5 157.16 28.92 157.2 28.9 C 156.9 29.1 156.4 29.3 155.8 29.3 C 155.2 29.3 155 28.9 155 28.4 C 155 28.2 155 27.9 155 27.8 C 155 27.8 155.6 24.4 155.6 24.4 C 155.7 24.3 155.7 24.1 155.7 24 C 155.7 23.6 155.5 23.4 155.1 23.4 C 154.6 23.4 154 23.8 153.1 24.9 C 153.1 24.93 152.4 29.1 152.4 29.1 L 151.3 29.1 L 152.2 23.4 L 151.2 23.3 C 151.2 23.3 151.24 22.82 151.2 22.8 C 151.8 22.6 152.5 22.5 153.5 22.5 Z M 166 22.5 C 166 22.5 166.9 27.9 166.9 27.9 C 168 26.1 168.6 24.8 168.7 23.4 C 168.66 23.4 167.7 23.3 167.7 23.3 C 167.7 23.3 167.76 22.82 167.8 22.8 C 168.2 22.6 168.7 22.5 169.1 22.5 C 169.6 22.5 169.7 22.9 169.7 23.3 C 169.7 24.1 169.4 25.5 166.6 29.1 C 166.6 29.14 166 29.1 166 29.1 C 166 29.1 165.49 26.08 165.5 26.1 C 165 26.9 164.3 27.8 163.3 29.1 C 163.29 29.14 162.7 29.1 162.7 29.1 L 161.7 23.4 L 160.8 23.3 C 160.8 23.3 160.82 22.82 160.8 22.8 C 161.3 22.6 162 22.5 162.6 22.5 C 162.6 22.5 163.6 28 163.6 28 C 164.4 26.7 165 25.7 165.3 24.8 C 165.28 24.79 165.1 23.4 165.1 23.4 L 164.2 23.3 C 164.2 23.3 164.23 22.82 164.2 22.8 C 164.8 22.6 165.4 22.5 166 22.5 Z M 173.6 22.5 C 174.8 22.5 175.3 23.1 175.3 23.9 C 175.3 25.2 174.3 25.9 172.1 25.9 C 172.1 25.9 171.5 25.9 171.5 25.9 C 171.4 26.3 171.4 26.7 171.4 27 C 171.4 28 171.9 28.4 172.5 28.4 C 173.3 28.4 173.9 28 174.5 27 C 174.5 27 174.9 27.1 174.9 27.1 C 174.3 28.6 173.4 29.3 172.2 29.3 C 170.9 29.3 170.2 28.5 170.2 27 C 170.2 24.9 171.2 22.5 173.6 22.5 Z M 171.6 25.4 C 171.6 25.4 172 25.4 172 25.4 C 173.5 25.4 174.2 24.9 174.2 23.9 C 174.2 23.4 173.9 23 173.4 23 C 172.5 23 171.9 24.2 171.6 25.4 Z M 178.5 22.5 C 178.5 22.5 178.2 24.3 178.2 24.3 C 178.8 23.1 179.5 22.5 180.2 22.5 C 180.6 22.5 180.8 22.6 180.9 22.8 C 180.9 23.4 180.8 24 180.5 24.6 C 180.54 24.55 179.8 24.6 179.8 24.6 L 179.8 23.4 C 179.8 23.4 179.76 23.37 179.8 23.4 C 179.3 23.4 178.8 24 178.1 25.2 C 178.09 25.21 177.5 29.1 177.5 29.1 L 176.3 29.1 L 177.3 23.4 L 176.2 23.3 C 176.2 23.3 176.27 22.82 176.3 22.8 C 176.8 22.6 177.6 22.5 178.5 22.5 Z M 184.5 22.5 C 185.7 22.5 186.3 23.1 186.3 23.9 C 186.3 25.2 185.2 25.9 183 25.9 C 183 25.9 182.4 25.9 182.4 25.9 C 182.4 26.3 182.3 26.7 182.3 27 C 182.3 28 182.8 28.4 183.5 28.4 C 184.2 28.4 184.8 28 185.4 27 C 185.4 27 185.8 27.1 185.8 27.1 C 185.2 28.6 184.3 29.3 183.1 29.3 C 181.8 29.3 181.2 28.5 181.2 27 C 181.2 24.9 182.1 22.5 184.5 22.5 Z M 182.5 25.4 C 182.5 25.4 182.9 25.4 182.9 25.4 C 184.4 25.4 185.1 24.9 185.1 23.9 C 185.1 23.4 184.9 23 184.4 23 C 183.4 23 182.8 24.2 182.5 25.4 Z M 193.2 22.5 C 194.9 22.5 195.5 23.6 195.5 24.9 C 195.5 27 194.4 29.3 192.2 29.3 C 190.5 29.3 189.9 28.2 189.9 26.9 C 189.9 24.8 191 22.5 193.2 22.5 Z M 192.2 28.8 C 193.6 28.8 194.3 26.6 194.3 24.8 C 194.3 23.8 194 23 193.1 23 C 191.8 23 191.1 25.2 191.1 27 C 191.1 28 191.4 28.8 192.2 28.8 Z M 199.1 19.3 C 199.1 19.3 198.3 24.1 198.3 24.1 C 198.9 23 199.6 22.5 200.5 22.5 C 201.5 22.5 202 23.3 202 24.6 C 202 26.8 201 29.3 198.8 29.3 C 198.2 29.3 197.8 29 197.5 28.7 C 197.3 28.9 197 29.2 196.7 29.3 C 196.73 29.25 196.4 29.1 196.4 29.1 L 197.8 20.3 L 196.7 20.1 C 196.7 20.1 196.71 19.68 196.7 19.7 C 197.3 19.5 198.1 19.3 199.1 19.3 Z M 198.2 24.8 C 198.2 24.8 197.6 28.4 197.6 28.4 C 197.9 28.5 198.2 28.6 198.5 28.6 C 200 28.6 200.9 26.5 200.9 24.6 C 200.9 23.8 200.6 23.4 200 23.4 C 199.3 23.4 198.8 23.9 198.2 24.8 Z M 203.2 27.2 C 203.24 27.18 204 27.2 204 27.2 C 204 27.2 204.01 28.61 204 28.6 C 204.3 28.7 204.6 28.7 204.8 28.7 C 205.6 28.7 206.2 28.3 206.2 27.6 C 206.2 26.9 205.7 26.7 205 26.3 C 205 26.3 204.5 26 204.5 26 C 203.9 25.7 203.5 25.2 203.5 24.5 C 203.5 23.3 204.4 22.5 205.8 22.5 C 206.5 22.5 207.3 22.6 207.7 22.9 C 207.7 23.5 207.5 24 207.3 24.6 C 207.27 24.55 206.5 24.6 206.5 24.6 C 206.5 24.6 206.48 23.11 206.5 23.1 C 206.2 23.1 206 23 205.8 23 C 205 23 204.5 23.4 204.5 24.2 C 204.5 24.6 204.9 25 205.3 25.2 C 205.3 25.2 205.8 25.5 205.8 25.5 C 206.6 25.9 207.3 26.2 207.3 27.2 C 207.3 28.5 206.3 29.3 204.7 29.3 C 204.1 29.3 203.2 29.1 202.8 28.9 C 202.8 28.2 203 27.7 203.2 27.2 Z M 211.8 22.5 C 213 22.5 213.5 23.1 213.5 23.9 C 213.5 25.2 212.5 25.9 210.3 25.9 C 210.3 25.9 209.7 25.9 209.7 25.9 C 209.6 26.3 209.6 26.7 209.6 27 C 209.6 28 210.1 28.4 210.7 28.4 C 211.5 28.4 212.1 28 212.7 27 C 212.7 27 213.1 27.1 213.1 27.1 C 212.5 28.6 211.6 29.3 210.4 29.3 C 209 29.3 208.4 28.5 208.4 27 C 208.4 24.9 209.4 22.5 211.8 22.5 Z M 209.8 25.4 C 209.8 25.4 210.2 25.4 210.2 25.4 C 211.7 25.4 212.4 24.9 212.4 23.9 C 212.4 23.4 212.1 23 211.6 23 C 210.7 23 210.1 24.2 209.8 25.4 Z M 216.7 22.5 C 216.7 22.5 216.4 24.3 216.4 24.3 C 217 23.1 217.7 22.5 218.4 22.5 C 218.8 22.5 219 22.6 219.1 22.8 C 219.1 23.4 219 24 218.7 24.6 C 218.73 24.55 218 24.6 218 24.6 L 218 23.4 C 218 23.4 217.95 23.37 218 23.4 C 217.5 23.4 217 24 216.3 25.2 C 216.28 25.21 215.7 29.1 215.7 29.1 L 214.5 29.1 L 215.5 23.4 L 214.4 23.3 C 214.4 23.3 214.46 22.82 214.5 22.8 C 215 22.6 215.8 22.5 216.7 22.5 Z M 219.8 23.3 C 219.8 23.3 219.84 22.82 219.8 22.8 C 220.3 22.6 221 22.5 221.6 22.5 C 221.65 22.48 222.6 28 222.6 28 C 222.6 28 222.99 27.35 223 27.4 C 224.1 25.8 224.5 24.6 224.5 23.4 C 224.5 23.4 223.6 23.3 223.6 23.3 C 223.6 23.3 223.59 22.82 223.6 22.8 C 224 22.6 224.5 22.5 224.9 22.5 C 225.5 22.5 225.6 22.9 225.6 23.3 C 225.6 24.1 225.3 25.2 223.2 28 C 223.16 28.02 222.3 29.1 222.3 29.1 L 221.7 29.1 L 220.7 23.4 L 219.8 23.3 Z M 229.4 22.5 C 230.6 22.5 231.2 23.1 231.2 23.9 C 231.2 25.2 230.2 25.9 227.9 25.9 C 227.9 25.9 227.3 25.9 227.3 25.9 C 227.3 26.3 227.2 26.7 227.2 27 C 227.2 28 227.7 28.4 228.4 28.4 C 229.2 28.4 229.7 28 230.4 27 C 230.4 27 230.7 27.1 230.7 27.1 C 230.1 28.6 229.2 29.3 228 29.3 C 226.7 29.3 226.1 28.5 226.1 27 C 226.1 24.9 227 22.5 229.4 22.5 Z M 227.4 25.4 C 227.4 25.4 227.9 25.4 227.9 25.4 C 229.3 25.4 230 24.9 230 23.9 C 230 23.4 229.8 23 229.3 23 C 228.3 23 227.7 24.2 227.4 25.4 Z M 238.1 19.3 C 238.1 19.3 236.7 27.6 236.7 27.6 C 236.7 27.8 236.7 28 236.7 28.1 C 236.7 28.4 236.8 28.5 237.3 28.5 C 237.27 28.47 237.8 28.5 237.8 28.5 C 237.8 28.5 237.75 28.92 237.7 28.9 C 237.4 29.1 237 29.3 236.4 29.3 C 235.8 29.3 235.6 28.9 235.6 28.3 C 235.6 28.2 235.6 27.9 235.6 27.8 C 235.6 27.8 235.7 27.5 235.7 27.5 C 235.1 28.7 234.4 29.3 233.4 29.3 C 232.5 29.3 231.9 28.5 231.9 27.2 C 231.9 24.9 233 22.5 235.1 22.5 C 235.7 22.5 236.1 22.7 236.4 23 C 236.37 23.01 236.8 20.3 236.8 20.3 L 235.6 20.1 C 235.6 20.1 235.69 19.68 235.7 19.7 C 236.3 19.5 237.1 19.3 238.1 19.3 Z M 235.7 26.9 C 235.7 26.9 236.3 23.4 236.3 23.4 C 236.1 23.3 235.8 23.2 235.4 23.2 C 233.9 23.2 233.1 25.2 233.1 27.1 C 233.1 28 233.3 28.4 234 28.4 C 234.6 28.4 235.2 27.8 235.7 26.9 Z M 241.8 22.9 C 242.1 22.8 242.4 22.6 243 22.5 C 243 22.5 243 22.1 243 22.1 C 243.3 20.2 244.2 19.3 245.9 19.3 C 246.5 19.3 247.2 19.4 247.5 19.5 C 247.5 20.1 247.3 20.5 247.1 21 C 247.13 21.02 246.3 21 246.3 21 C 246.3 21 246.29 19.92 246.3 19.9 C 246.2 19.9 246.1 19.9 246 19.9 C 245.1 19.9 244.4 20.3 244.2 21.8 C 244.21 21.75 244.1 22.6 244.1 22.6 L 245.5 22.6 L 245.4 23.3 L 244 23.3 C 244 23.3 243.09 29.03 243.1 29 C 242.8 30.8 241.6 31.9 240.6 31.9 C 240.1 31.9 239.8 31.7 239.5 31.4 C 239.5 31.4 239.6 30.9 239.6 30.9 C 239.8 30.9 240.2 31 240.5 31 C 241.6 31 241.7 31 242 29.1 C 241.97 29.14 242.8 23.3 242.8 23.3 L 241.8 23.3 L 241.8 22.9 C 241.8 22.9 241.83 22.87 241.8 22.9 Z M 248.4 22.5 C 248.4 22.5 248.1 24.3 248.1 24.3 C 248.7 23.1 249.3 22.5 250 22.5 C 250.4 22.5 250.7 22.6 250.8 22.8 C 250.8 23.4 250.6 24 250.4 24.6 C 250.37 24.55 249.6 24.6 249.6 24.6 L 249.6 23.4 C 249.6 23.4 249.59 23.37 249.6 23.4 C 249.2 23.4 248.6 24 247.9 25.2 C 247.92 25.21 247.3 29.1 247.3 29.1 L 246.2 29.1 L 247.1 23.4 L 246.1 23.3 C 246.1 23.3 246.1 22.82 246.1 22.8 C 246.7 22.6 247.4 22.5 248.4 22.5 Z M 254.3 22.5 C 256 22.5 256.6 23.6 256.6 24.9 C 256.6 27 255.5 29.3 253.3 29.3 C 251.5 29.3 251 28.2 251 26.9 C 251 24.8 252.1 22.5 254.3 22.5 Z M 253.3 28.8 C 254.7 28.8 255.4 26.6 255.4 24.8 C 255.4 23.8 255.1 23 254.2 23 C 252.9 23 252.2 25.2 252.2 27 C 252.2 28 252.5 28.8 253.3 28.8 Z M 260 22.5 C 260 22.5 259.7 24.2 259.7 24.2 C 260.4 23.1 261.2 22.5 262.1 22.5 C 262.9 22.5 263.4 22.9 263.4 23.6 C 263.4 23.8 263.3 24 263.3 24.1 C 263.3 24.1 263.3 24.2 263.3 24.2 C 264 23 264.7 22.5 265.6 22.5 C 266.4 22.5 266.9 23 266.9 23.6 C 266.9 23.8 266.9 24 266.8 24.1 C 266.8 24.1 266.2 27.6 266.2 27.6 C 266.2 27.8 266.1 28 266.1 28.1 C 266.1 28.4 266.3 28.5 266.7 28.5 C 266.72 28.47 267.3 28.5 267.3 28.5 C 267.3 28.5 267.2 28.92 267.2 28.9 C 266.9 29.1 266.4 29.3 265.9 29.3 C 265.3 29.3 265 28.9 265 28.4 C 265 28.2 265 27.9 265 27.8 C 265 27.8 265.7 24.4 265.7 24.4 C 265.7 24.3 265.7 24.1 265.7 24 C 265.7 23.6 265.6 23.4 265.1 23.4 C 264.6 23.4 264 23.7 263.2 24.9 C 263.17 24.89 262.4 29.1 262.4 29.1 L 261.3 29.1 C 261.3 29.1 262.13 24.44 262.1 24.4 C 262.2 24.3 262.2 24.1 262.2 24 C 262.2 23.6 262 23.4 261.6 23.4 C 261.1 23.4 260.5 23.8 259.6 24.9 C 259.61 24.93 258.9 29.1 258.9 29.1 L 257.8 29.1 L 258.8 23.4 L 257.7 23.3 C 257.7 23.3 257.75 22.82 257.8 22.8 C 258.3 22.6 259.1 22.5 260 22.5 Z " stroke="none" fill="#fff"/>  </g>  <g id="Polygon14137">    <path d="M 0 10.6 C 0.3 10.5 0.6 10.4 1 10.4 C 1 10.4 2.2 2.9 2.2 2.9 C 1.7 2.9 1.4 2.8 1.1 2.7 C 1.06 2.69 1.1 2.2 1.1 2.2 C 1.1 2.2 4.7 2.18 4.7 2.2 C 7.1 2.2 8.6 3.6 8.6 5.8 C 8.6 8.9 6.7 11.1 3.7 11.1 C 3.7 11.14 -0.1 11.1 -0.1 11.1 L 0 10.6 C 0 10.6 -0.03 10.64 0 10.6 Z M 2.2 10.5 C 2.2 10.5 3.86 10.47 3.9 10.5 C 6.2 10.5 7.2 8.2 7.2 5.7 C 7.2 3.8 6.2 2.9 4.6 2.9 C 4.59 2.85 3.4 2.9 3.4 2.9 L 2.2 10.5 Z M 12.8 4.5 C 14.6 4.5 15.1 5.6 15.1 6.9 C 15.1 9 14.1 11.3 11.8 11.3 C 10.1 11.3 9.5 10.2 9.5 8.9 C 9.5 6.8 10.6 4.5 12.8 4.5 Z M 11.9 10.8 C 13.2 10.8 13.9 8.6 13.9 6.8 C 13.9 5.8 13.6 5 12.8 5 C 11.4 5 10.7 7.2 10.7 9 C 10.7 10 11 10.8 11.9 10.8 Z M 18.7 1.3 C 18.7 1.3 17.4 9.6 17.4 9.6 C 17.4 9.8 17.3 10 17.3 10.1 C 17.3 10.4 17.5 10.5 17.9 10.5 C 17.92 10.47 18.5 10.5 18.5 10.5 C 18.5 10.5 18.39 10.92 18.4 10.9 C 18.1 11.1 17.6 11.3 17.1 11.3 C 16.5 11.3 16.2 10.9 16.2 10.3 C 16.2 10.2 16.2 9.9 16.2 9.8 C 16.24 9.8 17.5 2.3 17.5 2.3 L 16.3 2.1 C 16.3 2.1 16.34 1.68 16.3 1.7 C 16.9 1.5 17.8 1.3 18.7 1.3 Z M 21.8 4.5 C 21.8 4.5 21.6 6.1 21.6 6.1 C 22.2 5 22.9 4.5 23.8 4.5 C 24.8 4.5 25.3 5.3 25.3 6.6 C 25.3 8.8 24.2 11.3 22.1 11.3 C 21.5 11.3 21.1 11.1 20.8 10.7 C 20.8 10.7 20.4 13.1 20.4 13.1 C 20.9 13.1 21.4 13.2 21.7 13.3 C 21.73 13.33 21.6 13.8 21.6 13.8 L 18.3 13.8 C 18.3 13.8 18.4 13.33 18.4 13.3 C 18.7 13.2 18.9 13.1 19.3 13.1 C 19.32 13.1 20.6 5.4 20.6 5.4 L 19.5 5.3 C 19.5 5.3 19.59 4.82 19.6 4.8 C 20.2 4.6 20.9 4.5 21.8 4.5 Z M 21.4 6.9 C 21.4 6.9 20.9 10.4 20.9 10.4 C 21.1 10.5 21.4 10.6 21.8 10.6 C 23.3 10.6 24.1 8.5 24.1 6.6 C 24.1 5.8 23.9 5.4 23.2 5.4 C 22.6 5.4 22 6 21.4 6.9 Z M 30 10.4 C 30 10.2 30 9.9 30 9.8 C 30 9.8 30.6 6.4 30.6 6.4 C 30.7 6.3 30.7 6.1 30.7 6 C 30.7 5.6 30.5 5.4 30.1 5.4 C 29.6 5.4 29 5.8 28.1 6.9 C 28.11 6.91 27.4 11.1 27.4 11.1 L 26.3 11.1 L 27.8 2.3 L 26.6 2.1 C 26.6 2.1 26.64 1.68 26.6 1.7 C 27.2 1.5 28.1 1.3 29 1.3 C 29 1.3 28.2 6.2 28.2 6.2 C 28.9 5.1 29.7 4.5 30.6 4.5 C 31.4 4.5 31.8 5 31.8 5.6 C 31.8 5.8 31.8 6 31.8 6.1 C 31.8 6.1 31.2 9.6 31.2 9.6 C 31.1 9.8 31.1 10 31.1 10.1 C 31.1 10.4 31.2 10.5 31.7 10.5 C 31.69 10.47 32.3 10.5 32.3 10.5 C 32.3 10.5 32.17 10.92 32.2 10.9 C 31.9 11.1 31.4 11.3 30.9 11.3 C 30.2 11.3 30 10.9 30 10.4 C 30 10.4 30 10.4 30 10.4 Z M 35 1.6 C 35.1 1.6 35.4 1.6 35.6 1.6 C 35.8 1.6 36.1 1.6 36.2 1.6 C 36.2 2.1 36 2.7 35.8 3.1 C 35.7 3.2 35.5 3.2 35.3 3.2 C 35.1 3.2 34.9 3.2 34.8 3.1 C 34.8 2.7 34.9 2 35 1.6 Z M 35.7 4.5 C 35.7 4.5 34.9 9.6 34.9 9.6 C 34.8 9.8 34.8 10 34.8 10.1 C 34.8 10.4 34.9 10.5 35.4 10.5 C 35.39 10.47 36 10.5 36 10.5 C 36 10.5 35.87 10.92 35.9 10.9 C 35.6 11.1 35.1 11.3 34.6 11.3 C 33.9 11.3 33.7 10.9 33.7 10.3 C 33.7 10.2 33.7 9.9 33.7 9.8 C 33.71 9.8 34.4 5.4 34.4 5.4 L 33.4 5.3 C 33.4 5.3 33.42 4.82 33.4 4.8 C 34 4.6 34.7 4.5 35.7 4.5 Z M 39.3 4.5 C 39.3 4.5 39 6.2 39 6.2 C 39.7 5.1 40.5 4.5 41.4 4.5 C 42.2 4.5 42.7 5 42.7 5.6 C 42.7 5.8 42.6 6 42.6 6.1 C 42.6 6.1 42 9.6 42 9.6 C 41.9 9.8 41.9 10 41.9 10.1 C 41.9 10.4 42.1 10.5 42.5 10.5 C 42.5 10.47 43.1 10.5 43.1 10.5 C 43.1 10.5 42.98 10.92 43 10.9 C 42.7 11.1 42.2 11.3 41.7 11.3 C 41 11.3 40.8 10.9 40.8 10.4 C 40.8 10.2 40.8 9.9 40.8 9.8 C 40.8 9.8 41.4 6.4 41.4 6.4 C 41.5 6.3 41.5 6.1 41.5 6 C 41.5 5.6 41.3 5.4 40.9 5.4 C 40.4 5.4 39.8 5.8 38.9 6.9 C 38.92 6.93 38.2 11.1 38.2 11.1 L 37.1 11.1 L 38.1 5.4 L 37 5.3 C 37 5.3 37.06 4.82 37.1 4.8 C 37.6 4.6 38.4 4.5 39.3 4.5 Z M 47.1 9.2 C 47.05 9.18 47.8 9.2 47.8 9.2 C 47.8 9.2 47.82 10.61 47.8 10.6 C 48.1 10.7 48.4 10.7 48.6 10.7 C 49.4 10.7 50 10.3 50 9.6 C 50 8.9 49.5 8.7 48.8 8.3 C 48.8 8.3 48.3 8 48.3 8 C 47.8 7.7 47.3 7.2 47.3 6.5 C 47.3 5.3 48.2 4.5 49.7 4.5 C 50.3 4.5 51.1 4.6 51.5 4.9 C 51.5 5.5 51.3 6 51.1 6.6 C 51.08 6.55 50.4 6.6 50.4 6.6 C 50.4 6.6 50.3 5.11 50.3 5.1 C 50.1 5.1 49.8 5 49.6 5 C 48.8 5 48.3 5.4 48.3 6.2 C 48.3 6.6 48.7 7 49.1 7.2 C 49.1 7.2 49.6 7.5 49.6 7.5 C 50.4 7.9 51.1 8.2 51.1 9.2 C 51.1 10.5 50.1 11.3 48.5 11.3 C 47.9 11.3 47 11.1 46.7 10.9 C 46.7 10.2 46.8 9.7 47.1 9.2 Z M 55.6 4.5 C 56.8 4.5 57.3 5.1 57.3 5.9 C 57.3 7.2 56.3 7.9 54.1 7.9 C 54.1 7.9 53.5 7.9 53.5 7.9 C 53.5 8.3 53.4 8.7 53.4 9 C 53.4 10 53.9 10.4 54.5 10.4 C 55.3 10.4 55.9 10 56.5 9 C 56.5 9 56.9 9.1 56.9 9.1 C 56.3 10.6 55.4 11.3 54.2 11.3 C 52.9 11.3 52.2 10.5 52.2 9 C 52.2 6.9 53.2 4.5 55.6 4.5 Z M 53.6 7.4 C 53.6 7.4 54 7.4 54 7.4 C 55.5 7.4 56.2 6.9 56.2 5.9 C 56.2 5.4 55.9 5 55.4 5 C 54.5 5 53.9 6.2 53.6 7.4 Z M 61.4 4.5 C 62.6 4.5 63.1 5.1 63.1 5.9 C 63.1 7.2 62.1 7.9 59.9 7.9 C 59.9 7.9 59.3 7.9 59.3 7.9 C 59.2 8.3 59.2 8.7 59.2 9 C 59.2 10 59.7 10.4 60.3 10.4 C 61.1 10.4 61.7 10 62.3 9 C 62.3 9 62.7 9.1 62.7 9.1 C 62.1 10.6 61.2 11.3 60 11.3 C 58.6 11.3 58 10.5 58 9 C 58 6.9 59 4.5 61.4 4.5 Z M 59.4 7.4 C 59.4 7.4 59.8 7.4 59.8 7.4 C 61.3 7.4 61.9 6.9 61.9 5.9 C 61.9 5.4 61.7 5 61.2 5 C 60.3 5 59.6 6.2 59.4 7.4 Z M 66.3 4.5 C 66.3 4.5 66 6.2 66 6.2 C 66.7 5.1 67.5 4.5 68.4 4.5 C 69.2 4.5 69.6 4.9 69.6 5.6 C 69.6 5.8 69.6 6 69.6 6.1 C 69.6 6.1 69.6 6.2 69.6 6.2 C 70.3 5 71 4.5 71.9 4.5 C 72.7 4.5 73.2 5 73.2 5.6 C 73.2 5.8 73.1 6 73.1 6.1 C 73.1 6.1 72.5 9.6 72.5 9.6 C 72.4 9.8 72.4 10 72.4 10.1 C 72.4 10.4 72.6 10.5 73 10.5 C 73.02 10.47 73.6 10.5 73.6 10.5 C 73.6 10.5 73.5 10.92 73.5 10.9 C 73.2 11.1 72.7 11.3 72.2 11.3 C 71.6 11.3 71.3 10.9 71.3 10.4 C 71.3 10.2 71.3 9.9 71.3 9.8 C 71.3 9.8 72 6.4 72 6.4 C 72 6.3 72 6.1 72 6 C 72 5.6 71.8 5.4 71.4 5.4 C 70.9 5.4 70.3 5.7 69.5 6.9 C 69.47 6.89 68.7 11.1 68.7 11.1 L 67.6 11.1 C 67.6 11.1 68.43 6.44 68.4 6.4 C 68.5 6.3 68.5 6.1 68.5 6 C 68.5 5.6 68.3 5.4 67.9 5.4 C 67.4 5.4 66.8 5.8 65.9 6.9 C 65.91 6.93 65.2 11.1 65.2 11.1 L 64.1 11.1 L 65.1 5.4 L 64 5.3 C 64 5.3 64.05 4.82 64.1 4.8 C 64.6 4.6 65.4 4.5 66.3 4.5 Z M 78.7 4.5 C 78.7 4.5 79 3.4 79 3.4 C 79.2 3.3 79.6 3.2 80 3.2 C 79.99 3.25 79.8 4.6 79.8 4.6 L 81.5 4.6 L 81.4 5.3 L 79.7 5.3 C 79.7 5.3 79.07 9.07 79.1 9.1 C 79 9.3 79 9.6 79 9.8 C 79 10.2 79.1 10.4 79.5 10.4 C 80 10.4 80.6 9.7 80.9 9 C 80.9 9 81.3 9.1 81.3 9.1 C 80.8 10.5 80.1 11.3 79.1 11.3 C 78.2 11.3 77.9 10.9 77.9 10 C 77.9 9.9 77.9 9.7 77.9 9.5 C 77.9 9.46 78.5 5.3 78.5 5.3 L 77.4 5.3 C 77.4 5.3 77.53 4.87 77.5 4.9 C 77.8 4.8 78.1 4.6 78.7 4.5 Z M 85.5 4.5 C 87.2 4.5 87.7 5.6 87.7 6.9 C 87.7 9 86.7 11.3 84.4 11.3 C 82.7 11.3 82.2 10.2 82.2 8.9 C 82.2 6.8 83.2 4.5 85.5 4.5 Z M 84.5 10.8 C 85.8 10.8 86.6 8.6 86.6 6.8 C 86.6 5.8 86.2 5 85.4 5 C 84.1 5 83.3 7.2 83.3 9 C 83.3 10 83.7 10.8 84.5 10.8 Z M 95 4.5 C 96.2 4.5 96.8 5.1 96.8 5.9 C 96.8 7.2 95.8 7.9 93.5 7.9 C 93.5 7.9 92.9 7.9 92.9 7.9 C 92.9 8.3 92.8 8.7 92.8 9 C 92.8 10 93.4 10.4 94 10.4 C 94.8 10.4 95.3 10 96 9 C 96 9 96.3 9.1 96.3 9.1 C 95.7 10.6 94.8 11.3 93.6 11.3 C 92.3 11.3 91.7 10.5 91.7 9 C 91.7 6.9 92.6 4.5 95 4.5 Z M 93 7.4 C 93 7.4 93.5 7.4 93.5 7.4 C 94.9 7.4 95.6 6.9 95.6 5.9 C 95.6 5.4 95.4 5 94.9 5 C 93.9 5 93.3 6.2 93 7.4 Z M 100 4.5 C 100 4.5 99.7 6.2 99.7 6.2 C 100.4 5.1 101.1 4.5 102 4.5 C 102.9 4.5 103.3 5 103.3 5.6 C 103.3 5.8 103.3 6 103.3 6.1 C 103.3 6.1 102.6 9.6 102.6 9.6 C 102.6 9.8 102.5 10 102.5 10.1 C 102.5 10.4 102.7 10.5 103.1 10.5 C 103.15 10.47 103.7 10.5 103.7 10.5 C 103.7 10.5 103.63 10.92 103.6 10.9 C 103.3 11.1 102.9 11.3 102.3 11.3 C 101.7 11.3 101.4 10.9 101.4 10.4 C 101.4 10.2 101.4 9.9 101.5 9.8 C 101.5 9.8 102.1 6.4 102.1 6.4 C 102.1 6.3 102.1 6.1 102.1 6 C 102.1 5.6 102 5.4 101.5 5.4 C 101 5.4 100.4 5.8 99.6 6.9 C 99.57 6.93 98.9 11.1 98.9 11.1 L 97.8 11.1 L 98.7 5.4 L 97.7 5.3 C 97.7 5.3 97.71 4.82 97.7 4.8 C 98.3 4.6 99 4.5 100 4.5 Z M 106.5 1.6 C 106.6 1.6 106.9 1.6 107.1 1.6 C 107.3 1.6 107.6 1.6 107.7 1.6 C 107.7 2.1 107.5 2.7 107.3 3.1 C 107.2 3.2 107 3.2 106.8 3.2 C 106.6 3.2 106.4 3.2 106.3 3.1 C 106.3 2.7 106.4 2 106.5 1.6 Z M 107.2 4.5 C 107.2 4.5 106.2 10.8 106.2 10.8 C 105.9 12.6 104.7 13.9 103.7 13.9 C 103.2 13.9 102.9 13.7 102.6 13.4 C 102.6 13.4 102.6 12.9 102.6 12.9 C 102.9 12.9 103.4 13 103.7 13 C 104.6 13 104.7 13 105 11.1 C 105 11.14 105.9 5.4 105.9 5.4 L 104.9 5.3 C 104.9 5.3 104.93 4.82 104.9 4.8 C 105.5 4.6 106.2 4.5 107.2 4.5 Z M 111.4 4.5 C 113.2 4.5 113.7 5.6 113.7 6.9 C 113.7 9 112.7 11.3 110.4 11.3 C 108.7 11.3 108.1 10.2 108.1 8.9 C 108.1 6.8 109.2 4.5 111.4 4.5 Z M 110.5 10.8 C 111.8 10.8 112.6 8.6 112.6 6.8 C 112.6 5.8 112.2 5 111.4 5 C 110 5 109.3 7.2 109.3 9 C 109.3 10 109.6 10.8 110.5 10.8 Z M 115.9 11.6 C 115.95 11.59 116.2 11.3 116.2 11.3 L 115.1 5.4 L 114.2 5.3 C 114.2 5.3 114.28 4.82 114.3 4.8 C 114.7 4.6 115.5 4.5 116.1 4.5 C 116.09 4.48 117 10 117 10 C 117 10 117.4 9.46 117.4 9.5 C 118.3 8.2 118.9 6.9 118.9 5.4 C 118.93 5.4 118 5.3 118 5.3 C 118 5.3 118.03 4.82 118 4.8 C 118.4 4.6 118.9 4.5 119.4 4.5 C 119.9 4.5 120 4.9 120 5.3 C 120 6.3 119.4 7.7 118.1 9.5 C 118.1 9.5 116.6 11.6 116.6 11.6 C 115.9 12.6 115 13.9 114.1 13.9 C 113.5 13.9 113.2 13.7 112.9 13.3 C 112.9 13.3 113 12.8 113 12.8 C 113.3 12.9 113.6 13 113.9 13 C 114.8 13 115.4 12.5 115.9 11.6 Z M 127.1 4.5 C 127.7 4.5 128.3 4.6 128.6 4.9 C 128.6 5.5 128.4 6 128.2 6.6 C 128.18 6.55 127.5 6.6 127.5 6.6 C 127.5 6.6 127.4 5.07 127.4 5.1 C 127.3 5.1 127.2 5 127.1 5 C 125.6 5 124.8 7.3 124.8 9 C 124.8 10 125.3 10.4 125.9 10.4 C 126.7 10.4 127.3 10 127.9 9 C 127.9 9 128.3 9.1 128.3 9.1 C 127.7 10.6 126.8 11.3 125.6 11.3 C 124.3 11.3 123.6 10.5 123.6 9 C 123.6 6.9 124.6 4.5 127.1 4.5 Z M 132.6 4.5 C 133.1 4.5 133.5 4.7 133.8 5.1 C 134 4.8 134.3 4.6 134.6 4.5 C 134.57 4.48 134.9 4.6 134.9 4.6 C 134.9 4.6 134.15 9.63 134.1 9.6 C 134.1 9.8 134.1 10 134.1 10.1 C 134.1 10.4 134.2 10.5 134.7 10.5 C 134.68 10.47 135.2 10.5 135.2 10.5 C 135.2 10.5 135.15 10.92 135.2 10.9 C 134.8 11.1 134.4 11.3 133.8 11.3 C 133.2 11.3 133 10.9 133 10.3 C 133 10.2 133 9.9 133.1 9.8 C 133.1 9.8 133.1 9.5 133.1 9.5 C 132.5 10.7 131.8 11.3 130.8 11.3 C 129.9 11.3 129.3 10.5 129.3 9.2 C 129.3 6.9 130.4 4.5 132.6 4.5 Z M 133.2 8.9 C 133.2 8.9 133.7 5.4 133.7 5.4 C 133.5 5.3 133.2 5.2 132.8 5.2 C 131.3 5.2 130.5 7.2 130.5 9.1 C 130.5 10 130.8 10.4 131.4 10.4 C 132 10.4 132.6 9.8 133.2 8.9 Z M 135.7 5.3 C 135.7 5.3 135.79 4.82 135.8 4.8 C 136.2 4.6 137 4.5 137.6 4.5 C 137.59 4.48 138.5 10 138.5 10 C 138.5 10 138.94 9.35 138.9 9.4 C 140 7.8 140.4 6.6 140.4 5.4 C 140.45 5.4 139.5 5.3 139.5 5.3 C 139.5 5.3 139.54 4.82 139.5 4.8 C 139.9 4.6 140.4 4.5 140.9 4.5 C 141.4 4.5 141.5 4.9 141.5 5.3 C 141.5 6.1 141.2 7.2 139.1 10 C 139.1 10.02 138.3 11.1 138.3 11.1 L 137.6 11.1 L 136.6 5.4 L 135.7 5.3 Z M 145.3 4.5 C 147.1 4.5 147.6 5.6 147.6 6.9 C 147.6 9 146.6 11.3 144.3 11.3 C 142.6 11.3 142 10.2 142 8.9 C 142 6.8 143.1 4.5 145.3 4.5 Z M 144.4 10.8 C 145.7 10.8 146.4 8.6 146.4 6.8 C 146.4 5.8 146.1 5 145.3 5 C 143.9 5 143.2 7.2 143.2 9 C 143.2 10 143.5 10.8 144.4 10.8 Z M 151 4.5 C 151 4.5 150.7 6.3 150.7 6.3 C 151.3 5.1 152 4.5 152.7 4.5 C 153.1 4.5 153.3 4.6 153.4 4.8 C 153.4 5.4 153.3 6 153 6.6 C 153.05 6.55 152.3 6.6 152.3 6.6 L 152.3 5.4 C 152.3 5.4 152.26 5.37 152.3 5.4 C 151.8 5.4 151.3 6 150.6 7.2 C 150.6 7.21 150 11.1 150 11.1 L 148.8 11.1 L 149.8 5.4 L 148.7 5.3 C 148.7 5.3 148.78 4.82 148.8 4.8 C 149.4 4.6 150.1 4.5 151 4.5 Z M 155.4 4.5 C 155.4 4.5 155.7 3.4 155.7 3.4 C 156 3.3 156.3 3.2 156.7 3.2 C 156.71 3.25 156.5 4.6 156.5 4.6 L 158.2 4.6 L 158.1 5.3 L 156.4 5.3 C 156.4 5.3 155.79 9.07 155.8 9.1 C 155.7 9.3 155.7 9.6 155.7 9.8 C 155.7 10.2 155.8 10.4 156.2 10.4 C 156.7 10.4 157.3 9.7 157.6 9 C 157.6 9 158 9.1 158 9.1 C 157.5 10.5 156.8 11.3 155.8 11.3 C 155 11.3 154.6 10.9 154.6 10 C 154.6 9.9 154.6 9.7 154.6 9.5 C 154.62 9.46 155.2 5.3 155.2 5.3 L 154.2 5.3 C 154.2 5.3 154.25 4.87 154.3 4.9 C 154.5 4.8 154.9 4.6 155.4 4.5 Z M 160.4 1.6 C 160.5 1.6 160.8 1.6 161 1.6 C 161.2 1.6 161.5 1.6 161.6 1.6 C 161.6 2.1 161.4 2.7 161.2 3.1 C 161.1 3.2 160.9 3.2 160.7 3.2 C 160.5 3.2 160.3 3.2 160.2 3.1 C 160.2 2.7 160.2 2 160.4 1.6 Z M 161.1 4.5 C 161.1 4.5 160.2 9.6 160.2 9.6 C 160.2 9.8 160.2 10 160.2 10.1 C 160.2 10.4 160.3 10.5 160.8 10.5 C 160.77 10.47 161.3 10.5 161.3 10.5 C 161.3 10.5 161.25 10.92 161.2 10.9 C 160.9 11.1 160.5 11.3 159.9 11.3 C 159.3 11.3 159 10.9 159 10.3 C 159 10.2 159.1 9.9 159.1 9.8 C 159.1 9.8 159.8 5.4 159.8 5.4 L 158.8 5.3 C 158.8 5.3 158.8 4.82 158.8 4.8 C 159.4 4.6 160.1 4.5 161.1 4.5 Z M 164.7 4.5 C 164.7 4.5 164.4 6.2 164.4 6.2 C 165.1 5.1 165.8 4.5 166.8 4.5 C 167.6 4.5 168 5 168 5.6 C 168 5.8 168 6 168 6.1 C 168 6.1 167.4 9.6 167.4 9.6 C 167.3 9.8 167.3 10 167.3 10.1 C 167.3 10.4 167.4 10.5 167.9 10.5 C 167.89 10.47 168.4 10.5 168.4 10.5 C 168.4 10.5 168.36 10.92 168.4 10.9 C 168.1 11.1 167.6 11.3 167 11.3 C 166.4 11.3 166.2 10.9 166.2 10.4 C 166.2 10.2 166.2 9.9 166.2 9.8 C 166.2 9.8 166.8 6.4 166.8 6.4 C 166.9 6.3 166.9 6.1 166.9 6 C 166.9 5.6 166.7 5.4 166.3 5.4 C 165.8 5.4 165.2 5.8 164.3 6.9 C 164.3 6.93 163.6 11.1 163.6 11.1 L 162.5 11.1 L 163.4 5.4 L 162.4 5.3 C 162.4 5.3 162.44 4.82 162.4 4.8 C 163 4.6 163.7 4.5 164.7 4.5 Z M 170.3 10.8 C 170 10.7 169.7 10.4 169.7 10 C 169.7 9.5 170.1 9.1 170.8 8.7 C 170 8.4 169.6 7.7 169.6 7 C 169.6 5.4 170.9 4.5 172.3 4.5 C 172.9 4.5 173.4 4.6 173.8 4.9 C 174.1 4.6 174.8 4.4 175.5 4.4 C 175.5 4.8 175.4 5 175.3 5.3 C 175.3 5.3 174.2 5.3 174.2 5.3 C 174.4 5.6 174.5 6 174.5 6.4 C 174.5 8 173.3 8.9 171.9 8.9 C 171.6 8.9 171.4 8.9 171.2 8.8 C 170.9 9.1 170.7 9.3 170.7 9.6 C 170.7 9.9 170.8 10 171.2 10 C 171.2 10 172.8 10.1 172.8 10.1 C 174.1 10.2 174.6 10.6 174.6 11.4 C 174.6 12.7 173.2 13.9 171 13.9 C 169.4 13.9 168.6 13.4 168.6 12.4 C 168.6 11.6 169.3 11.1 170.3 10.8 Z M 171.9 8.3 C 172.8 8.3 173.4 7.6 173.4 6.4 C 173.4 5.6 173 5 172.3 5 C 171.4 5 170.8 5.8 170.8 7 C 170.8 7.8 171.1 8.3 171.9 8.3 C 171.9 8.3 171.9 8.3 171.9 8.3 Z M 169.6 12.2 C 169.6 12.9 170.2 13.3 171.2 13.3 C 172.6 13.3 173.5 12.7 173.5 11.9 C 173.5 11.4 173.3 11.1 172.5 11.1 C 172.5 11.1 170.7 11 170.7 11 C 170 11.3 169.6 11.7 169.6 12.2 Z M 180.4 1.6 C 180.5 1.6 180.8 1.6 181 1.6 C 181.2 1.6 181.5 1.6 181.6 1.6 C 181.6 2.1 181.4 2.7 181.2 3.1 C 181.1 3.2 180.9 3.2 180.7 3.2 C 180.5 3.2 180.3 3.2 180.1 3.1 C 180.1 2.7 180.2 2 180.4 1.6 Z M 181 4.5 C 181 4.5 180.2 9.6 180.2 9.6 C 180.2 9.8 180.2 10 180.2 10.1 C 180.2 10.4 180.3 10.5 180.8 10.5 C 180.77 10.47 181.3 10.5 181.3 10.5 C 181.3 10.5 181.24 10.92 181.2 10.9 C 180.9 11.1 180.5 11.3 179.9 11.3 C 179.3 11.3 179 10.9 179 10.3 C 179 10.2 179.1 9.9 179.1 9.8 C 179.09 9.8 179.8 5.4 179.8 5.4 L 178.8 5.3 C 178.8 5.3 178.79 4.82 178.8 4.8 C 179.4 4.6 180.1 4.5 181 4.5 Z M 184.7 4.5 C 184.7 4.5 184.4 6.2 184.4 6.2 C 185.1 5.1 185.8 4.5 186.8 4.5 C 187.6 4.5 188 5 188 5.6 C 188 5.8 188 6 188 6.1 C 188 6.1 187.3 9.6 187.3 9.6 C 187.3 9.8 187.3 10 187.3 10.1 C 187.3 10.4 187.4 10.5 187.9 10.5 C 187.88 10.47 188.4 10.5 188.4 10.5 C 188.4 10.5 188.35 10.92 188.4 10.9 C 188 11.1 187.6 11.3 187 11.3 C 186.4 11.3 186.1 10.9 186.1 10.4 C 186.1 10.2 186.2 9.9 186.2 9.8 C 186.2 9.8 186.8 6.4 186.8 6.4 C 186.8 6.3 186.9 6.1 186.9 6 C 186.9 5.6 186.7 5.4 186.3 5.4 C 185.8 5.4 185.2 5.8 184.3 6.9 C 184.29 6.93 183.6 11.1 183.6 11.1 L 182.5 11.1 L 183.4 5.4 L 182.4 5.3 C 182.4 5.3 182.43 4.82 182.4 4.8 C 183 4.6 183.7 4.5 184.7 4.5 Z M 193.6 4.5 C 193.6 4.5 193.9 3.4 193.9 3.4 C 194.1 3.3 194.5 3.2 194.8 3.2 C 194.85 3.25 194.6 4.6 194.6 4.6 L 196.3 4.6 L 196.2 5.3 L 194.5 5.3 C 194.5 5.3 193.92 9.07 193.9 9.1 C 193.9 9.3 193.9 9.6 193.9 9.8 C 193.9 10.2 194 10.4 194.3 10.4 C 194.9 10.4 195.4 9.7 195.7 9 C 195.7 9 196.1 9.1 196.1 9.1 C 195.7 10.5 194.9 11.3 193.9 11.3 C 193.1 11.3 192.7 10.9 192.7 10 C 192.7 9.9 192.7 9.7 192.8 9.5 C 192.75 9.46 193.4 5.3 193.4 5.3 L 192.3 5.3 C 192.3 5.3 192.39 4.87 192.4 4.9 C 192.6 4.8 193 4.6 193.6 4.5 Z M 200.5 10.4 C 200.5 10.2 200.6 9.9 200.6 9.8 C 200.6 9.8 201.2 6.4 201.2 6.4 C 201.2 6.3 201.3 6.1 201.3 6 C 201.3 5.6 201.1 5.4 200.6 5.4 C 200.2 5.4 199.6 5.8 198.7 6.9 C 198.69 6.91 198 11.1 198 11.1 L 196.9 11.1 L 198.3 2.3 L 197.2 2.1 C 197.2 2.1 197.22 1.68 197.2 1.7 C 197.8 1.5 198.6 1.3 199.6 1.3 C 199.6 1.3 198.8 6.2 198.8 6.2 C 199.5 5.1 200.2 4.5 201.2 4.5 C 202 4.5 202.4 5 202.4 5.6 C 202.4 5.8 202.4 6 202.4 6.1 C 202.4 6.1 201.7 9.6 201.7 9.6 C 201.7 9.8 201.7 10 201.7 10.1 C 201.7 10.4 201.8 10.5 202.3 10.5 C 202.27 10.47 202.8 10.5 202.8 10.5 C 202.8 10.5 202.74 10.92 202.7 10.9 C 202.4 11.1 202 11.3 201.4 11.3 C 200.8 11.3 200.5 10.9 200.5 10.4 C 200.5 10.4 200.5 10.4 200.5 10.4 Z M 207.2 4.5 C 208.4 4.5 208.9 5.1 208.9 5.9 C 208.9 7.2 207.9 7.9 205.7 7.9 C 205.7 7.9 205.1 7.9 205.1 7.9 C 205 8.3 205 8.7 205 9 C 205 10 205.5 10.4 206.1 10.4 C 206.9 10.4 207.5 10 208.1 9 C 208.1 9 208.5 9.1 208.5 9.1 C 207.9 10.6 207 11.3 205.8 11.3 C 204.5 11.3 203.8 10.5 203.8 9 C 203.8 6.9 204.8 4.5 207.2 4.5 Z M 205.2 7.4 C 205.2 7.4 205.6 7.4 205.6 7.4 C 207.1 7.4 207.8 6.9 207.8 5.9 C 207.8 5.4 207.5 5 207 5 C 206.1 5 205.5 6.2 205.2 7.4 Z M 215.4 1.3 C 215.4 1.3 214.7 6.1 214.7 6.1 C 215.3 5 215.9 4.5 216.9 4.5 C 217.8 4.5 218.4 5.3 218.4 6.6 C 218.4 8.8 217.3 11.3 215.2 11.3 C 214.6 11.3 214.1 11 213.8 10.7 C 213.6 10.9 213.4 11.2 213.1 11.3 C 213.08 11.25 212.7 11.1 212.7 11.1 L 214.2 2.3 L 213 2.1 C 213 2.1 213.06 1.68 213.1 1.7 C 213.6 1.5 214.5 1.3 215.4 1.3 Z M 214.5 6.8 C 214.5 6.8 214 10.4 214 10.4 C 214.2 10.5 214.5 10.6 214.9 10.6 C 216.4 10.6 217.2 8.5 217.2 6.6 C 217.2 5.8 216.9 5.4 216.3 5.4 C 215.7 5.4 215.1 5.9 214.5 6.8 Z M 222.8 4.5 C 224.6 4.5 225.1 5.6 225.1 6.9 C 225.1 9 224.1 11.3 221.8 11.3 C 220.1 11.3 219.5 10.2 219.5 8.9 C 219.5 6.8 220.6 4.5 222.8 4.5 Z M 221.9 10.8 C 223.2 10.8 223.9 8.6 223.9 6.8 C 223.9 5.8 223.6 5 222.8 5 C 221.4 5 220.7 7.2 220.7 9 C 220.7 10 221 10.8 221.9 10.8 Z M 230.9 4.5 C 230.9 4.5 231.7 9.9 231.7 9.9 C 232.9 8.1 233.5 6.8 233.5 5.4 C 233.5 5.4 232.6 5.3 232.6 5.3 C 232.6 5.3 232.61 4.82 232.6 4.8 C 233 4.6 233.5 4.5 234 4.5 C 234.5 4.5 234.6 4.9 234.6 5.3 C 234.6 6.1 234.2 7.5 231.4 11.1 C 231.45 11.14 230.8 11.1 230.8 11.1 C 230.8 11.1 230.34 8.08 230.3 8.1 C 229.8 8.9 229.1 9.8 228.1 11.1 C 228.14 11.14 227.5 11.1 227.5 11.1 L 226.5 5.4 L 225.6 5.3 C 225.6 5.3 225.66 4.82 225.7 4.8 C 226.2 4.6 226.8 4.5 227.5 4.5 C 227.5 4.5 228.4 10 228.4 10 C 229.2 8.7 229.8 7.7 230.1 6.8 C 230.13 6.79 229.9 5.4 229.9 5.4 L 229 5.3 C 229 5.3 229.08 4.82 229.1 4.8 C 229.6 4.6 230.2 4.5 230.9 4.5 Z M 243.2 4.5 C 243.2 4.5 244 9.9 244 9.9 C 245.1 8.1 245.7 6.8 245.8 5.4 C 245.77 5.4 244.8 5.3 244.8 5.3 C 244.8 5.3 244.87 4.82 244.9 4.8 C 245.3 4.6 245.8 4.5 246.2 4.5 C 246.7 4.5 246.8 4.9 246.8 5.3 C 246.8 6.1 246.5 7.5 243.7 11.1 C 243.71 11.14 243.1 11.1 243.1 11.1 C 243.1 11.1 242.6 8.08 242.6 8.1 C 242.1 8.9 241.4 9.8 240.4 11.1 C 240.41 11.14 239.8 11.1 239.8 11.1 L 238.8 5.4 L 237.9 5.3 C 237.9 5.3 237.93 4.82 237.9 4.8 C 238.4 4.6 239.1 4.5 239.7 4.5 C 239.7 4.5 240.7 10 240.7 10 C 241.5 8.7 242.1 7.7 242.4 6.8 C 242.39 6.79 242.2 5.4 242.2 5.4 L 241.3 5.3 C 241.3 5.3 241.34 4.82 241.3 4.8 C 241.9 4.6 242.5 4.5 243.2 4.5 Z M 250.7 4.5 C 251.2 4.5 251.6 4.7 251.9 5.1 C 252.1 4.8 252.4 4.6 252.7 4.5 C 252.67 4.48 253 4.6 253 4.6 C 253 4.6 252.25 9.63 252.2 9.6 C 252.2 9.8 252.2 10 252.2 10.1 C 252.2 10.4 252.3 10.5 252.8 10.5 C 252.78 10.47 253.3 10.5 253.3 10.5 C 253.3 10.5 253.26 10.92 253.3 10.9 C 252.9 11.1 252.5 11.3 251.9 11.3 C 251.3 11.3 251.1 10.9 251.1 10.3 C 251.1 10.2 251.1 9.9 251.2 9.8 C 251.2 9.8 251.2 9.5 251.2 9.5 C 250.6 10.7 249.9 11.3 248.9 11.3 C 248 11.3 247.4 10.5 247.4 9.2 C 247.4 6.9 248.5 4.5 250.7 4.5 Z M 251.3 8.9 C 251.3 8.9 251.8 5.4 251.8 5.4 C 251.6 5.3 251.3 5.2 250.9 5.2 C 249.4 5.2 248.6 7.2 248.6 9.1 C 248.6 10 248.9 10.4 249.5 10.4 C 250.1 10.4 250.7 9.8 251.3 8.9 Z M 253.8 5.3 C 253.8 5.3 253.89 4.82 253.9 4.8 C 254.4 4.6 255.1 4.5 255.7 4.5 C 255.69 4.48 256.6 10 256.6 10 C 256.6 10 257.04 9.35 257 9.4 C 258.1 7.8 258.5 6.6 258.6 5.4 C 258.55 5.4 257.6 5.3 257.6 5.3 C 257.6 5.3 257.64 4.82 257.6 4.8 C 258 4.6 258.6 4.5 259 4.5 C 259.5 4.5 259.6 4.9 259.6 5.3 C 259.6 6.1 259.3 7.2 257.2 10 C 257.21 10.02 256.4 11.1 256.4 11.1 L 255.8 11.1 L 254.7 5.4 L 253.8 5.3 Z M 263.5 4.5 C 264.7 4.5 265.2 5.1 265.2 5.9 C 265.2 7.2 264.2 7.9 262 7.9 C 262 7.9 261.4 7.9 261.4 7.9 C 261.3 8.3 261.3 8.7 261.3 9 C 261.3 10 261.8 10.4 262.4 10.4 C 263.2 10.4 263.8 10 264.4 9 C 264.4 9 264.8 9.1 264.8 9.1 C 264.2 10.6 263.3 11.3 262.1 11.3 C 260.7 11.3 260.1 10.5 260.1 9 C 260.1 6.9 261.1 4.5 263.5 4.5 Z M 261.5 7.4 C 261.5 7.4 261.9 7.4 261.9 7.4 C 263.4 7.4 264 6.9 264 5.9 C 264 5.4 263.8 5 263.3 5 C 262.4 5 261.7 6.2 261.5 7.4 Z M 266.1 9.2 C 266.12 9.18 266.9 9.2 266.9 9.2 C 266.9 9.2 266.89 10.61 266.9 10.6 C 267.2 10.7 267.4 10.7 267.7 10.7 C 268.4 10.7 269.1 10.3 269.1 9.6 C 269.1 8.9 268.6 8.7 267.9 8.3 C 267.9 8.3 267.4 8 267.4 8 C 266.8 7.7 266.4 7.2 266.4 6.5 C 266.4 5.3 267.2 4.5 268.7 4.5 C 269.4 4.5 270.2 4.6 270.5 4.9 C 270.5 5.5 270.4 6 270.2 6.6 C 270.16 6.55 269.4 6.6 269.4 6.6 C 269.4 6.6 269.37 5.11 269.4 5.1 C 269.1 5.1 268.9 5 268.7 5 C 267.9 5 267.4 5.4 267.4 6.2 C 267.4 6.6 267.8 7 268.2 7.2 C 268.2 7.2 268.7 7.5 268.7 7.5 C 269.5 7.9 270.2 8.2 270.2 9.2 C 270.2 10.5 269.2 11.3 267.6 11.3 C 267 11.3 266.1 11.1 265.7 10.9 C 265.7 10.2 265.9 9.7 266.1 9.2 Z " stroke="none" fill="#fff"/>  </g>  <g id="Polygon14140">    <path d="M 82.3 46.4 C 82.3 46.4 83.5 38.9 83.5 38.9 C 83 38.9 82.7 38.8 82.4 38.7 C 82.37 38.69 82.5 38.2 82.5 38.2 L 85.8 38.2 C 85.8 38.2 85.71 38.69 85.7 38.7 C 85.4 38.8 85.1 38.9 84.7 38.9 C 84.7 38.9 83.6 46.4 83.6 46.4 C 84 46.4 84.4 46.5 84.7 46.6 C 84.67 46.64 84.6 47.1 84.6 47.1 L 81.2 47.1 C 81.2 47.1 81.28 46.64 81.3 46.6 C 81.6 46.5 81.9 46.4 82.3 46.4 Z M 86.1 45.2 C 86.14 45.18 86.9 45.2 86.9 45.2 C 86.9 45.2 86.91 46.61 86.9 46.6 C 87.2 46.7 87.5 46.7 87.7 46.7 C 88.5 46.7 89.1 46.3 89.1 45.6 C 89.1 44.9 88.6 44.7 87.9 44.3 C 87.9 44.3 87.4 44 87.4 44 C 86.8 43.7 86.4 43.2 86.4 42.5 C 86.4 41.3 87.3 40.5 88.7 40.5 C 89.4 40.5 90.2 40.6 90.6 40.9 C 90.6 41.5 90.4 42 90.2 42.6 C 90.17 42.55 89.4 42.6 89.4 42.6 C 89.4 42.6 89.39 41.11 89.4 41.1 C 89.1 41.1 88.9 41 88.7 41 C 87.9 41 87.4 41.4 87.4 42.2 C 87.4 42.6 87.8 43 88.2 43.2 C 88.2 43.2 88.7 43.5 88.7 43.5 C 89.5 43.9 90.2 44.2 90.2 45.2 C 90.2 46.5 89.2 47.3 87.6 47.3 C 87 47.3 86.1 47.1 85.7 46.9 C 85.7 46.2 85.9 45.7 86.1 45.2 Z M 94.1 37.3 C 94.1 37.3 92.8 45.6 92.8 45.6 C 92.7 45.8 92.7 46 92.7 46.1 C 92.7 46.4 92.8 46.5 93.3 46.5 C 93.29 46.47 93.9 46.5 93.9 46.5 C 93.9 46.5 93.77 46.92 93.8 46.9 C 93.5 47.1 93 47.3 92.5 47.3 C 91.8 47.3 91.6 46.9 91.6 46.3 C 91.6 46.2 91.6 45.9 91.6 45.8 C 91.62 45.8 92.8 38.3 92.8 38.3 L 91.7 38.1 C 91.7 38.1 91.71 37.68 91.7 37.7 C 92.3 37.5 93.1 37.3 94.1 37.3 Z M 98.1 40.5 C 98.6 40.5 99.1 40.7 99.4 41.1 C 99.6 40.8 99.9 40.6 100.1 40.5 C 100.13 40.48 100.5 40.6 100.5 40.6 C 100.5 40.6 99.71 45.63 99.7 45.6 C 99.7 45.8 99.6 46 99.6 46.1 C 99.6 46.4 99.8 46.5 100.2 46.5 C 100.24 46.47 100.8 46.5 100.8 46.5 C 100.8 46.5 100.71 46.92 100.7 46.9 C 100.4 47.1 100 47.3 99.4 47.3 C 98.8 47.3 98.6 46.9 98.6 46.3 C 98.6 46.2 98.6 45.9 98.6 45.8 C 98.6 45.8 98.7 45.5 98.7 45.5 C 98.1 46.7 97.3 47.3 96.4 47.3 C 95.4 47.3 94.9 46.5 94.9 45.2 C 94.9 42.9 96 40.5 98.1 40.5 Z M 98.7 44.9 C 98.7 44.9 99.3 41.4 99.3 41.4 C 99 41.3 98.7 41.2 98.4 41.2 C 96.9 41.2 96 43.2 96 45.1 C 96 46 96.3 46.4 96.9 46.4 C 97.6 46.4 98.1 45.8 98.7 44.9 Z M 104.2 40.5 C 104.2 40.5 103.9 42.2 103.9 42.2 C 104.6 41.1 105.3 40.5 106.2 40.5 C 107.1 40.5 107.5 41 107.5 41.6 C 107.5 41.8 107.5 42 107.5 42.1 C 107.5 42.1 106.8 45.6 106.8 45.6 C 106.8 45.8 106.7 46 106.7 46.1 C 106.7 46.4 106.9 46.5 107.3 46.5 C 107.35 46.47 107.9 46.5 107.9 46.5 C 107.9 46.5 107.83 46.92 107.8 46.9 C 107.5 47.1 107.1 47.3 106.5 47.3 C 105.9 47.3 105.6 46.9 105.6 46.4 C 105.6 46.2 105.6 45.9 105.7 45.8 C 105.7 45.8 106.3 42.4 106.3 42.4 C 106.3 42.3 106.3 42.1 106.3 42 C 106.3 41.6 106.2 41.4 105.7 41.4 C 105.2 41.4 104.6 41.8 103.8 42.9 C 103.77 42.93 103.1 47.1 103.1 47.1 L 102 47.1 L 102.9 41.4 L 101.9 41.3 C 101.9 41.3 101.91 40.82 101.9 40.8 C 102.5 40.6 103.2 40.5 104.2 40.5 Z M 115.1 37.3 C 115.1 37.3 113.8 45.6 113.8 45.6 C 113.8 45.8 113.8 46 113.8 46.1 C 113.8 46.4 113.9 46.5 114.3 46.5 C 114.35 46.47 114.9 46.5 114.9 46.5 C 114.9 46.5 114.83 46.92 114.8 46.9 C 114.5 47.1 114.1 47.3 113.5 47.3 C 112.9 47.3 112.7 46.9 112.7 46.3 C 112.7 46.2 112.7 45.9 112.7 45.8 C 112.7 45.8 112.8 45.5 112.8 45.5 C 112.2 46.7 111.5 47.3 110.5 47.3 C 109.5 47.3 109 46.5 109 45.2 C 109 42.9 110.1 40.5 112.2 40.5 C 112.7 40.5 113.2 40.7 113.5 41 C 113.45 41.01 113.9 38.3 113.9 38.3 L 112.7 38.1 C 112.7 38.1 112.77 37.68 112.8 37.7 C 113.3 37.5 114.2 37.3 115.1 37.3 Z M 112.8 44.9 C 112.8 44.9 113.4 41.4 113.4 41.4 C 113.1 41.3 112.9 41.2 112.5 41.2 C 111 41.2 110.1 43.2 110.1 45.1 C 110.1 46 110.4 46.4 111 46.4 C 111.7 46.4 112.3 45.8 112.8 44.9 Z M 118.2 46.6 C 118.5 46.5 118.8 46.4 119.2 46.4 C 119.2 46.4 120.4 38.9 120.4 38.9 C 119.9 38.9 119.6 38.8 119.3 38.7 C 119.28 38.69 119.4 38.2 119.4 38.2 C 119.4 38.2 125.83 38.18 125.8 38.2 C 125.8 38.9 125.8 39.7 125.5 40.5 C 125.49 40.53 124.9 40.5 124.9 40.5 L 124.8 38.9 L 121.6 38.9 L 121.1 42.3 C 121.1 42.3 123 42.33 123 42.3 C 123.1 42 123.2 41.6 123.4 41.3 C 123.4 41.3 124 41.3 124 41.3 C 124 42.3 123.8 43.4 123.6 44.3 C 123.6 44.3 123 44.3 123 44.3 C 122.9 43.9 122.9 43.4 122.9 43 C 122.92 43 121 43 121 43 L 120.4 46.5 L 123.6 46.5 L 124.5 44.8 C 124.5 44.8 125.16 44.79 125.2 44.8 C 125.2 45.4 124.9 46.5 124.6 47.1 C 124.6 47.14 118.1 47.1 118.1 47.1 L 118.2 46.6 C 118.2 46.6 118.19 46.64 118.2 46.6 Z M 128.4 40.5 C 128.35 40.48 129.2 43.1 129.2 43.1 C 129.2 43.1 130.65 40.7 130.6 40.7 C 131.2 40.6 131.5 40.6 132 40.6 C 132 40.6 131.9 41.1 131.9 41.1 C 131.8 41.2 131.5 41.3 131.3 41.4 C 131.26 41.38 129.4 43.8 129.4 43.8 C 129.4 43.8 130.14 45.8 130.1 45.8 C 130.3 46.4 130.4 46.5 130.9 46.5 C 130.93 46.47 131.4 46.5 131.4 46.5 C 131.4 46.5 131.37 46.92 131.4 46.9 C 131.1 47.1 130.8 47.3 130.3 47.3 C 129.7 47.3 129.4 47 129.1 46.2 C 129.13 46.25 128.6 44.6 128.6 44.6 L 127.1 47.1 L 125.7 47.1 C 125.7 47.1 125.8 46.64 125.8 46.6 C 126 46.6 126.3 46.4 126.6 46.4 C 126.56 46.37 128.4 44 128.4 44 L 127.5 41.4 L 126.5 41.3 C 126.5 41.3 126.54 40.82 126.5 40.8 C 127 40.6 127.7 40.5 128.4 40.5 Z M 134.7 40.5 C 134.7 40.5 134.5 42.1 134.5 42.1 C 135.1 41 135.8 40.5 136.7 40.5 C 137.6 40.5 138.2 41.3 138.2 42.6 C 138.2 44.8 137.1 47.3 135 47.3 C 134.4 47.3 134 47.1 133.7 46.7 C 133.7 46.7 133.3 49.1 133.3 49.1 C 133.8 49.1 134.3 49.2 134.6 49.3 C 134.62 49.33 134.5 49.8 134.5 49.8 L 131.2 49.8 C 131.2 49.8 131.29 49.33 131.3 49.3 C 131.6 49.2 131.8 49.1 132.2 49.1 C 132.22 49.1 133.5 41.4 133.5 41.4 L 132.4 41.3 C 132.4 41.3 132.48 40.82 132.5 40.8 C 133.1 40.6 133.8 40.5 134.7 40.5 Z M 134.3 42.9 C 134.3 42.9 133.8 46.4 133.8 46.4 C 134 46.5 134.3 46.6 134.7 46.6 C 136.2 46.6 137 44.5 137 42.6 C 137 41.8 136.8 41.4 136.1 41.4 C 135.5 41.4 134.9 42 134.3 42.9 Z M 141.8 37.3 C 141.8 37.3 140.5 45.6 140.5 45.6 C 140.5 45.8 140.5 46 140.5 46.1 C 140.5 46.4 140.6 46.5 141.1 46.5 C 141.06 46.47 141.6 46.5 141.6 46.5 C 141.6 46.5 141.54 46.92 141.5 46.9 C 141.2 47.1 140.8 47.3 140.2 47.3 C 139.6 47.3 139.3 46.9 139.3 46.3 C 139.3 46.2 139.4 45.9 139.4 45.8 C 139.38 45.8 140.6 38.3 140.6 38.3 L 139.4 38.1 C 139.4 38.1 139.48 37.68 139.5 37.7 C 140.1 37.5 140.9 37.3 141.8 37.3 Z M 145.9 40.5 C 147.6 40.5 148.2 41.6 148.2 42.9 C 148.2 45 147.1 47.3 144.9 47.3 C 143.1 47.3 142.6 46.2 142.6 44.9 C 142.6 42.8 143.6 40.5 145.9 40.5 Z M 144.9 46.8 C 146.3 46.8 147 44.6 147 42.8 C 147 41.8 146.7 41 145.8 41 C 144.5 41 143.7 43.2 143.7 45 C 143.7 46 144.1 46.8 144.9 46.8 Z M 151.6 40.5 C 151.6 40.5 151.3 42.3 151.3 42.3 C 151.9 41.1 152.5 40.5 153.3 40.5 C 153.7 40.5 153.9 40.6 154 40.8 C 154 41.4 153.8 42 153.6 42.6 C 153.61 42.55 152.9 42.6 152.9 42.6 L 152.8 41.4 C 152.8 41.4 152.82 41.37 152.8 41.4 C 152.4 41.4 151.8 42 151.2 43.2 C 151.16 43.21 150.5 47.1 150.5 47.1 L 149.4 47.1 L 150.3 41.4 L 149.3 41.3 C 149.3 41.3 149.34 40.82 149.3 40.8 C 149.9 40.6 150.6 40.5 151.6 40.5 Z M 157.6 40.5 C 158.8 40.5 159.3 41.1 159.3 41.9 C 159.3 43.2 158.3 43.9 156.1 43.9 C 156.1 43.9 155.5 43.9 155.5 43.9 C 155.4 44.3 155.4 44.7 155.4 45 C 155.4 46 155.9 46.4 156.5 46.4 C 157.3 46.4 157.9 46 158.5 45 C 158.5 45 158.9 45.1 158.9 45.1 C 158.3 46.6 157.4 47.3 156.2 47.3 C 154.8 47.3 154.2 46.5 154.2 45 C 154.2 42.9 155.2 40.5 157.6 40.5 Z M 155.6 43.4 C 155.6 43.4 156 43.4 156 43.4 C 157.5 43.4 158.1 42.9 158.1 41.9 C 158.1 41.4 157.9 41 157.4 41 C 156.5 41 155.8 42.2 155.6 43.4 Z M 162.5 40.5 C 162.5 40.5 162.2 42.3 162.2 42.3 C 162.8 41.1 163.4 40.5 164.2 40.5 C 164.6 40.5 164.8 40.6 164.9 40.8 C 164.9 41.4 164.7 42 164.5 42.6 C 164.53 42.55 163.8 42.6 163.8 42.6 L 163.8 41.4 C 163.8 41.4 163.74 41.37 163.7 41.4 C 163.3 41.4 162.8 42 162.1 43.2 C 162.08 43.21 161.4 47.1 161.4 47.1 L 160.3 47.1 L 161.3 41.4 L 160.2 41.3 C 160.2 41.3 160.26 40.82 160.3 40.8 C 160.8 40.6 161.6 40.5 162.5 40.5 Z " stroke="none" fill="#fff"/>  </g></svg>