<?xml version="1.0" standalone="no"?><!DOCTYPE svg PUBLIC "-//W3C//DTD SVG 1.1//EN" "http://www.w3.org/Graphics/SVG/1.1/DTD/svg11.dtd"><svg xmlns="http://www.w3.org/2000/svg" version="1.1" width="335px" height="46.1px" viewBox="0 0 335 46.1"><desc>Islands</desc><defs/><g id="Polygon12883"><path d="m2.4 21.7c0 0 0-14.8 0-14.8c-.8-.1-1.4-.2-1.8-.4c0-.02 0-1.8 0-1.8l8.9 0c0 0 .04 1.78 0 1.8c-.4.2-1 .3-1.8.4c0 0 0 14.8 0 14.8c.8 0 1.4.2 1.8.4c.04-.02 0 1.8 0 1.8l-8.9 0c0 0 0-1.82 0-1.8c.4-.2 1-.4 1.8-.4zm8.8.5c0-1 .2-2 .4-3c.01 0 2.6 0 2.6 0c0 0 .53 2.67.5 2.7c.5.1 1 .1 1.5.1c1.3 0 2.2-.6 2.2-1.7c0-1-.9-1.4-2.3-1.9c0 0-1.6-.4-1.6-.4c-1.9-.6-3.3-1.9-3.3-4.4c0-3.3 3-4.6 6.6-4.6c1.6 0 3.5.3 4.6.8c.1.4.1.9.1 1.3c0 .9-.1 2-.4 2.9c.01.04-2.6 0-2.6 0c0 0-.51-2.6-.5-2.6c-.4-.1-.8-.2-1.2-.2c-1.1 0-2.2.5-2.2 1.6c0 1.1.9 1.5 2 1.8c0 0 1.6.5 1.6.5c2.3.7 3.9 1.8 3.9 4.2c0 3.2-2.4 4.9-6.9 4.9c-1.7 0-3.7-.3-4.8-.7c-.2-.4-.2-.9-.2-1.3zm14.7-.4c-.04.01 0-16.1 0-16.1l-1.8-.4c0 0-.01-1.73 0-1.7c1.7-.5 4.3-.7 6.8-.7c0 0 0 18.9 0 18.9c.7.1 1.2.2 1.6.4c-.04 0 0 1.7 0 1.7l-8.2 0c0 0 .03-1.7 0-1.7c.4-.2.9-.3 1.6-.4zm15.9-6.4c0 0 0-1.8 0-1.8c0-1.4-.6-2.1-2.2-2.1c-.4 0-.8 0-1.3.1c-.02.04-.5 2.6-.5 2.6c0 0-2.85-.04-2.9 0c-.2-.8-.3-1.7-.3-2.4c0-.4 0-1 .1-1.3c1.9-1 4.3-1.4 6.5-1.4c3.6 0 5.6 1.3 5.6 4.2c0 2.4-.1 5.4-.1 8.1c-.02-.01 1.5.4 1.5.4c0 0-.02 1.63 0 1.6c-1.7.5-3.8.7-6.4.7c0 0 0-2.1 0-2.1c-.6 1.3-2.1 2.2-3.9 2.2c-2.5 0-4.2-1.3-4.2-4c0-3.9 3.6-4.5 8.1-4.8zm0 5.4c0 0 0-3.6 0-3.6c-2.1.2-3.4.8-3.4 2.4c0 1.2.8 1.8 1.8 1.8c.6 0 1.1-.3 1.6-.6zm9.3 1c-.01.01 0-9.7 0-9.7l-1.5-.4c0 0-.01-1.77 0-1.8c1.7-.4 4-.8 6.5-.8c0 0 0 2.4 0 2.4c1.1-1.7 2.9-2.5 5-2.5c3 0 4.6 1.8 4.6 4.5c0 0 0 8.3 0 8.3c.6.1 1.2.2 1.5.4c0 0 0 1.7 0 1.7l-8.1 0c0 0 0-1.7 0-1.7c.3-.2.9-.3 1.5-.4c0 0 0-7.3 0-7.3c0-1.2-.7-1.9-1.9-1.9c-.9 0-1.8.3-2.6 1c0 0 0 8.2 0 8.2c.7.1 1.3.2 1.6.4c-.01 0 0 1.7 0 1.7l-8.1 0c0 0-.04-1.7 0-1.7c.3-.2.8-.3 1.5-.4zm24.4-12.9c1.2 0 2.3.5 2.9 1.2c.02.01 0-4.4 0-4.4l-1.8-.4c0 0-.04-1.73 0-1.7c1.7-.5 4.3-.7 6.9-.7c-.04-.02 0 18.5 0 18.5l1.5.4c0 0-.04 1.63 0 1.6c-1.7.5-3.9.7-6.5.7c0 0 0-2.3 0-2.3c-.8 1.5-2.3 2.4-4.1 2.4c-3.5 0-5.8-2.7-5.8-7.2c0-5 2.8-8.1 6.9-8.1zm2.9 11.3c0 0 0-8.2 0-8.2c-.3-.1-.7-.2-1.1-.2c-2.3 0-3.5 2.1-3.5 4.7c0 3.3 1.2 4.5 2.8 4.5c.7 0 1.3-.3 1.8-.8zm8.3 2c0-1 .1-2 .4-3c-.04 0 2.6 0 2.6 0c0 0 .48 2.67.5 2.7c.4.1.9.1 1.4.1c1.3 0 2.2-.6 2.2-1.7c0-1-.8-1.4-2.2-1.9c0 0-1.6-.4-1.6-.4c-2-.6-3.4-1.9-3.4-4.4c0-3.3 3.1-4.6 6.6-4.6c1.6 0 3.5.3 4.6.8c.1.4.1.9.1 1.3c0 .9-.1 2-.3 2.9c-.04.04-2.7 0-2.7 0c0 0-.46-2.6-.5-2.6c-.3-.1-.7-.2-1.2-.2c-1.1 0-2.2.5-2.2 1.6c0 1.1.9 1.5 2.1 1.8c0 0 1.6.5 1.6.5c2.3.7 3.8 1.8 3.8 4.2c0 3.2-2.4 4.9-6.9 4.9c-1.6 0-3.7-.3-4.8-.7c-.1-.4-.1-.9-.1-1.3z" stroke="none" fill="#404040"/></g></svg>