<?xml version="1.0" standalone="no"?><!DOCTYPE svg PUBLIC "-//W3C//DTD SVG 1.1//EN" "http://www.w3.org/Graphics/SVG/1.1/DTD/svg11.dtd"><svg xmlns="http://www.w3.org/2000/svg" version="1.1" width="203px" height="41.8px" viewBox="0 0 203 41.8">  <desc>Santa Rosa Island 52,794 acres</desc>  <defs/>  <g id="Polygon10558">    <path d="M 2.6 29.1 L 1.2 29.1 C 1.2 29.1 1.16 29.6 1.2 29.6 C 1.2 29.6 1.3 29.6 1.4 29.6 C 1.7 29.6 2.1 29.7 2.3 29.8 C 2.6 30 2.8 30.3 2.8 30.7 C 2.8 31.4 2.2 32 1.2 32 C 0.8 32 0.4 31.9 0.2 31.8 C 0.2 31.8 0.4 31.2 0.4 31.2 C 0.5 31.2 0.9 31.3 1.2 31.3 C 1.5 31.3 1.9 31.2 1.9 30.8 C 1.9 30.4 1.6 30.2 0.9 30.2 C 0.7 30.2 0.6 30.2 0.4 30.2 C 0.42 30.24 0.6 28.4 0.6 28.4 L 2.6 28.4 L 2.6 29.1 Z M 3.3 31.9 L 3.3 31.4 C 3.3 31.4 3.75 31.02 3.7 31 C 4.5 30.3 4.9 29.9 4.9 29.5 C 4.9 29.2 4.7 29 4.3 29 C 4 29 3.8 29.1 3.6 29.3 C 3.6 29.3 3.3 28.7 3.3 28.7 C 3.6 28.5 4 28.3 4.5 28.3 C 5.3 28.3 5.8 28.8 5.8 29.4 C 5.8 30 5.3 30.5 4.8 31 C 4.8 30.97 4.5 31.2 4.5 31.2 L 4.5 31.3 L 5.8 31.3 L 5.8 31.9 L 3.3 31.9 Z M 6.1 32.6 C 6.3 32.1 6.4 31.5 6.5 31 C 6.5 31 7.4 31 7.4 31 C 7.2 31.5 6.9 32.1 6.7 32.6 C 6.7 32.6 6.1 32.6 6.1 32.6 Z M 10.3 28.4 L 10.3 28.9 L 8.9 31.9 L 8 31.9 L 9.4 29.1 L 9.4 29.1 L 7.8 29.1 L 7.8 28.4 L 10.3 28.4 Z M 11.1 31.3 C 11.2 31.4 11.3 31.3 11.4 31.3 C 11.7 31.3 12 31.3 12.1 31.1 C 12.4 31 12.5 30.7 12.6 30.5 C 12.6 30.5 12.6 30.4 12.6 30.4 C 12.4 30.6 12.2 30.7 11.9 30.7 C 11.3 30.7 10.8 30.3 10.8 29.6 C 10.8 28.9 11.3 28.3 12.1 28.3 C 13 28.3 13.5 29 13.5 29.8 C 13.5 30.6 13.2 31.1 12.8 31.5 C 12.5 31.8 12 32 11.5 32 C 11.3 32 11.2 32 11.1 32 C 11.1 32 11.1 31.3 11.1 31.3 Z M 11.6 29.5 C 11.6 29.9 11.8 30.1 12.1 30.1 C 12.3 30.1 12.5 30 12.6 29.9 C 12.6 29.8 12.6 29.8 12.6 29.7 C 12.6 29.3 12.5 28.9 12.1 28.9 C 11.8 28.9 11.6 29.2 11.6 29.5 Z M 15.4 31.9 L 15.4 31.1 L 13.8 31.1 L 13.8 30.5 L 15.1 28.4 L 16.1 28.4 L 16.1 30.5 L 16.6 30.5 L 16.6 31.1 L 16.1 31.1 L 16.1 31.9 L 15.4 31.9 Z M 15.4 30.5 C 15.4 30.5 15.35 29.67 15.4 29.7 C 15.4 29.5 15.4 29.2 15.4 29 C 15.4 29 15.4 29 15.4 29 C 15.2 29.2 15.1 29.4 15 29.7 C 15.02 29.67 14.5 30.4 14.5 30.4 L 14.5 30.5 L 15.4 30.5 Z M 20.4 31.3 C 20.4 31.5 20.4 31.8 20.4 31.9 C 20.42 31.94 19.7 31.9 19.7 31.9 L 19.6 31.7 C 19.6 31.7 19.6 31.67 19.6 31.7 C 19.4 31.9 19.2 32 18.8 32 C 18.3 32 18 31.6 18 31.2 C 18 30.5 18.6 30.1 19.5 30.1 C 19.5 30.1 19.5 30.1 19.5 30.1 C 19.5 30 19.5 29.8 19.1 29.8 C 18.8 29.8 18.5 29.9 18.3 30 C 18.3 30 18.2 29.4 18.2 29.4 C 18.3 29.3 18.7 29.2 19.2 29.2 C 20.1 29.2 20.4 29.7 20.4 30.4 C 20.4 30.4 20.4 31.3 20.4 31.3 Z M 19.6 30.7 C 19.1 30.7 18.8 30.8 18.8 31.1 C 18.8 31.3 18.9 31.4 19.1 31.4 C 19.3 31.4 19.5 31.3 19.6 31.1 C 19.6 31.1 19.6 31 19.6 31 C 19.6 31 19.6 30.7 19.6 30.7 Z M 23.1 31.9 C 22.9 31.9 22.6 32 22.3 32 C 21.4 32 20.9 31.5 20.9 30.6 C 20.9 29.8 21.4 29.2 22.4 29.2 C 22.6 29.2 22.9 29.2 23.1 29.3 C 23.1 29.3 22.9 29.9 22.9 29.9 C 22.8 29.9 22.7 29.8 22.5 29.8 C 22 29.8 21.7 30.1 21.7 30.6 C 21.7 31.1 22.1 31.3 22.5 31.3 C 22.7 31.3 22.8 31.3 23 31.3 C 23 31.3 23.1 31.9 23.1 31.9 Z M 23.5 30.1 C 23.5 29.7 23.5 29.5 23.5 29.3 C 23.5 29.25 24.2 29.3 24.2 29.3 L 24.2 29.7 C 24.2 29.7 24.27 29.75 24.3 29.7 C 24.4 29.3 24.7 29.2 25 29.2 C 25.1 29.2 25.1 29.2 25.2 29.2 C 25.2 29.2 25.2 30 25.2 30 C 25.1 30 25 30 24.9 30 C 24.6 30 24.4 30.1 24.4 30.4 C 24.4 30.4 24.4 30.5 24.4 30.6 C 24.36 30.58 24.4 31.9 24.4 31.9 L 23.5 31.9 C 23.5 31.9 23.52 30.14 23.5 30.1 Z M 26.2 30.9 C 26.2 31.2 26.6 31.4 27 31.4 C 27.3 31.4 27.5 31.3 27.7 31.3 C 27.7 31.3 27.8 31.8 27.8 31.8 C 27.5 31.9 27.2 32 26.9 32 C 25.9 32 25.4 31.5 25.4 30.6 C 25.4 29.9 25.8 29.2 26.8 29.2 C 27.6 29.2 28 29.9 28 30.5 C 28 30.7 28 30.8 27.9 30.9 C 27.9 30.9 26.2 30.9 26.2 30.9 Z M 27.2 30.3 C 27.2 30.1 27.1 29.7 26.7 29.7 C 26.4 29.7 26.2 30.1 26.2 30.3 C 26.2 30.3 27.2 30.3 27.2 30.3 Z M 28.5 31.2 C 28.6 31.3 28.9 31.4 29.2 31.4 C 29.4 31.4 29.5 31.3 29.5 31.2 C 29.5 31 29.5 31 29.2 30.9 C 28.6 30.7 28.4 30.4 28.4 30.1 C 28.4 29.6 28.8 29.2 29.5 29.2 C 29.8 29.2 30.1 29.3 30.2 29.3 C 30.2 29.3 30.1 29.9 30.1 29.9 C 30 29.9 29.7 29.8 29.5 29.8 C 29.3 29.8 29.2 29.8 29.2 30 C 29.2 30.1 29.3 30.2 29.6 30.3 C 30.1 30.5 30.3 30.7 30.3 31.1 C 30.3 31.6 30 32 29.2 32 C 28.8 32 28.5 31.9 28.3 31.8 C 28.3 31.8 28.5 31.2 28.5 31.2 Z " stroke="none" fill="#000"/>  </g>  <g id="Polygon10557">    <path d="M 0.5 9.1 C 0.51 9.06 1.8 8.8 1.8 8.8 C 1.8 8.8 2.5 10.84 2.5 10.8 C 2.8 10.9 3.1 10.9 3.4 10.9 C 4.4 10.9 5 10.5 5 9.6 C 5 8.8 4.5 8.5 3.8 8.3 C 3.8 8.3 2.8 8 2.8 8 C 1.4 7.5 0.5 6.6 0.5 5.1 C 0.5 3.1 2.4 2.2 4.5 2.2 C 5.6 2.2 6.7 2.4 7.2 2.6 C 7.3 2.8 7.3 3.2 7.3 3.5 C 7.3 4 7.3 4.7 7.2 5.1 C 7.15 5.13 5.9 5.1 5.9 5.1 C 5.9 5.1 5.49 3.43 5.5 3.4 C 5.2 3.4 4.8 3.3 4.5 3.3 C 3.7 3.3 2.9 3.7 2.9 4.6 C 2.9 5.2 3.2 5.6 4 5.8 C 4 5.8 5.2 6.2 5.2 6.2 C 6.9 6.7 7.6 7.5 7.6 9 C 7.6 11.2 5.5 12.1 3.5 12.1 C 2.3 12.1 1.3 11.8 0.7 11.5 C 0.6 10.9 0.5 9.8 0.5 9.1 Z M 12.6 7.7 C 12.6 7.7 12.6 6.8 12.6 6.8 C 12.6 6.1 12.3 5.7 11.5 5.7 C 11.3 5.7 11.1 5.8 10.8 5.8 C 10.84 5.82 10.6 7.1 10.6 7.1 C 10.6 7.1 9.18 7.08 9.2 7.1 C 9.1 6.7 9 6.3 9 5.9 C 9 5.7 9 5.4 9.1 5.2 C 10 4.8 11.2 4.5 12.3 4.5 C 14.1 4.5 15.1 5.2 15.1 6.7 C 15.1 7.9 15 9.3 15 10.7 C 15.04 10.69 15.8 10.9 15.8 10.9 C 15.8 10.9 15.79 11.71 15.8 11.7 C 15 11.9 13.9 12.1 12.6 12.1 C 12.6 12.1 12.6 11 12.6 11 C 12.3 11.7 11.5 12.1 10.6 12.1 C 9.4 12.1 8.5 11.4 8.5 10.1 C 8.5 8.2 10.4 7.8 12.6 7.7 Z M 12.6 10.4 C 12.6 10.4 12.6 8.6 12.6 8.6 C 11.5 8.7 10.9 9 10.9 9.8 C 10.9 10.4 11.3 10.7 11.8 10.7 C 12.1 10.7 12.4 10.6 12.6 10.4 Z M 17.2 10.9 C 17.25 10.9 17.2 6 17.2 6 L 16.5 5.8 C 16.5 5.8 16.5 4.96 16.5 5 C 17.4 4.7 18.5 4.6 19.8 4.6 C 19.8 4.6 19.8 5.7 19.8 5.7 C 20.3 4.9 21.2 4.5 22.3 4.5 C 23.7 4.5 24.5 5.4 24.5 6.7 C 24.5 6.7 24.5 10.9 24.5 10.9 C 24.9 10.9 25.1 11 25.3 11.1 C 25.3 11.1 25.3 11.9 25.3 11.9 L 21.3 11.9 C 21.3 11.9 21.25 11.1 21.3 11.1 C 21.4 11 21.7 10.9 22 10.9 C 22 10.9 22 7.3 22 7.3 C 22 6.6 21.7 6.3 21.1 6.3 C 20.6 6.3 20.2 6.4 19.8 6.8 C 19.8 6.8 19.8 10.9 19.8 10.9 C 20.1 10.9 20.4 11 20.5 11.1 C 20.55 11.1 20.5 11.9 20.5 11.9 L 16.5 11.9 C 16.5 11.9 16.48 11.1 16.5 11.1 C 16.6 11 16.9 10.9 17.2 10.9 Z M 26.7 4.7 C 26.7 4.7 26.8 3.5 26.8 3.5 C 27.4 3.3 28.4 3.3 29.2 3.3 C 29.22 3.27 29.2 4.7 29.2 4.7 L 30.8 4.7 L 30.8 5.9 L 29.2 5.9 C 29.2 5.9 29.11 9.55 29.1 9.6 C 29.1 10.2 29.3 10.5 29.8 10.5 C 30.2 10.5 30.4 10.3 30.7 10.1 C 30.7 10.1 31.1 10.7 31.1 10.7 C 30.8 11.4 29.9 12.1 28.7 12.1 C 27.3 12.1 26.6 11.4 26.6 10 C 26.59 10.05 26.7 5.9 26.7 5.9 L 25.9 5.9 C 25.9 5.9 25.89 4.99 25.9 5 C 26 4.9 26.3 4.8 26.7 4.7 Z M 35.7 7.7 C 35.7 7.7 35.7 6.8 35.7 6.8 C 35.7 6.1 35.4 5.7 34.7 5.7 C 34.5 5.7 34.2 5.8 34 5.8 C 33.99 5.82 33.8 7.1 33.8 7.1 C 33.8 7.1 32.32 7.08 32.3 7.1 C 32.2 6.7 32.1 6.3 32.1 5.9 C 32.1 5.7 32.2 5.4 32.2 5.2 C 33.1 4.8 34.3 4.5 35.4 4.5 C 37.3 4.5 38.2 5.2 38.2 6.7 C 38.2 7.9 38.2 9.3 38.2 10.7 C 38.19 10.69 38.9 10.9 38.9 10.9 C 38.9 10.9 38.94 11.71 38.9 11.7 C 38.1 11.9 37 12.1 35.8 12.1 C 35.8 12.1 35.8 11 35.8 11 C 35.4 11.7 34.7 12.1 33.8 12.1 C 32.5 12.1 31.7 11.4 31.7 10.1 C 31.7 8.2 33.5 7.8 35.7 7.7 Z M 35.7 10.4 C 35.7 10.4 35.7 8.6 35.7 8.6 C 34.7 8.7 34.1 9 34.1 9.8 C 34.1 10.4 34.5 10.7 35 10.7 C 35.3 10.7 35.5 10.6 35.7 10.4 Z M 43.2 10.8 C 43.2 10.8 43.2 3.4 43.2 3.4 C 42.9 3.4 42.6 3.3 42.4 3.2 C 42.36 3.24 42.4 2.3 42.4 2.3 C 42.4 2.3 47.52 2.34 47.5 2.3 C 49.5 2.3 50.8 3.3 50.8 5 C 50.8 6.1 50.1 6.9 49.2 7.2 C 49.2 7.2 50.9 10.9 50.9 10.9 C 51.2 10.9 51.4 11 51.6 11 C 51.63 11.04 51.6 11.9 51.6 11.9 L 48.5 11.9 L 46.9 8.1 L 45.9 8.1 C 45.9 8.1 45.93 10.84 45.9 10.8 C 46.3 10.9 46.6 10.9 46.8 11 C 46.83 11.04 46.8 11.9 46.8 11.9 L 42.4 11.9 C 42.4 11.9 42.36 11.04 42.4 11 C 42.6 10.9 42.9 10.9 43.2 10.8 Z M 45.9 6.9 C 45.9 6.9 46.65 6.91 46.6 6.9 C 47.6 6.9 48.1 6.2 48.1 5.1 C 48.1 4 47.6 3.4 46.6 3.4 C 46.6 3.42 45.9 3.4 45.9 3.4 L 45.9 6.9 Z M 55.9 4.5 C 58.2 4.5 59.7 5.6 59.7 8.3 C 59.7 10.9 58 12.1 55.7 12.1 C 53.4 12.1 52 11 52 8.4 C 52 5.8 53.7 4.5 55.9 4.5 Z M 57.1 8.6 C 57.1 7 56.8 5.7 55.8 5.7 C 54.9 5.7 54.6 6.6 54.6 8 C 54.6 9.6 54.9 10.9 55.9 10.9 C 56.8 10.9 57.1 10.1 57.1 8.6 Z M 60.6 11.1 C 60.6 10.6 60.7 10.1 60.8 9.6 C 60.81 9.6 62.1 9.6 62.1 9.6 C 62.1 9.6 62.37 10.93 62.4 10.9 C 62.6 11 62.8 11 63.1 11 C 63.7 11 64.2 10.7 64.2 10.2 C 64.2 9.6 63.8 9.4 63.1 9.2 C 63.1 9.2 62.3 9 62.3 9 C 61.3 8.7 60.6 8.1 60.6 6.8 C 60.6 5.2 62.1 4.5 63.9 4.5 C 64.7 4.5 65.6 4.7 66.2 4.9 C 66.3 5.1 66.3 5.4 66.3 5.5 C 66.3 6 66.2 6.5 66.1 7 C 66.06 7.02 64.8 7 64.8 7 C 64.8 7 64.5 5.7 64.5 5.7 C 64.3 5.7 64.1 5.6 63.9 5.6 C 63.3 5.6 62.8 5.8 62.8 6.4 C 62.8 7 63.2 7.1 63.8 7.3 C 63.8 7.3 64.6 7.6 64.6 7.6 C 65.8 7.9 66.5 8.4 66.5 9.6 C 66.5 11.3 65.4 12.1 63.1 12.1 C 62.3 12.1 61.2 12 60.7 11.7 C 60.6 11.5 60.6 11.3 60.6 11.1 Z M 71.4 7.7 C 71.4 7.7 71.4 6.8 71.4 6.8 C 71.4 6.1 71.1 5.7 70.3 5.7 C 70.1 5.7 69.9 5.8 69.7 5.8 C 69.67 5.82 69.4 7.1 69.4 7.1 C 69.4 7.1 68.01 7.08 68 7.1 C 67.9 6.7 67.8 6.3 67.8 5.9 C 67.8 5.7 67.9 5.4 67.9 5.2 C 68.8 4.8 70 4.5 71.1 4.5 C 72.9 4.5 73.9 5.2 73.9 6.7 C 73.9 7.9 73.9 9.3 73.9 10.7 C 73.87 10.69 74.6 10.9 74.6 10.9 C 74.6 10.9 74.62 11.71 74.6 11.7 C 73.8 11.9 72.7 12.1 71.5 12.1 C 71.5 12.1 71.5 11 71.5 11 C 71.1 11.7 70.4 12.1 69.5 12.1 C 68.2 12.1 67.4 11.4 67.4 10.1 C 67.4 8.2 69.2 7.8 71.4 7.7 Z M 71.4 10.4 C 71.4 10.4 71.4 8.6 71.4 8.6 C 70.4 8.7 69.7 9 69.7 9.8 C 69.7 10.4 70.1 10.7 70.6 10.7 C 70.9 10.7 71.2 10.6 71.4 10.4 Z M 78.9 10.8 C 78.9 10.8 78.9 3.4 78.9 3.4 C 78.5 3.4 78.3 3.3 78 3.2 C 78.04 3.24 78 2.3 78 2.3 L 82.5 2.3 C 82.5 2.3 82.51 3.24 82.5 3.2 C 82.3 3.3 82 3.4 81.6 3.4 C 81.6 3.4 81.6 10.8 81.6 10.8 C 82 10.9 82.3 10.9 82.5 11 C 82.51 11.04 82.5 11.9 82.5 11.9 L 78 11.9 C 78 11.9 78.04 11.04 78 11 C 78.3 10.9 78.5 10.9 78.9 10.8 Z M 83.4 11.1 C 83.4 10.6 83.4 10.1 83.5 9.6 C 83.55 9.6 84.9 9.6 84.9 9.6 C 84.9 9.6 85.11 10.93 85.1 10.9 C 85.3 11 85.6 11 85.8 11 C 86.5 11 86.9 10.7 86.9 10.2 C 86.9 9.6 86.5 9.4 85.8 9.2 C 85.8 9.2 85 9 85 9 C 84 8.7 83.3 8.1 83.3 6.8 C 83.3 5.2 84.9 4.5 86.6 4.5 C 87.4 4.5 88.4 4.7 88.9 4.9 C 89 5.1 89 5.4 89 5.5 C 89 6 88.9 6.5 88.8 7 C 88.8 7.02 87.5 7 87.5 7 C 87.5 7 87.24 5.7 87.2 5.7 C 87.1 5.7 86.8 5.6 86.6 5.6 C 86.1 5.6 85.5 5.8 85.5 6.4 C 85.5 7 86 7.1 86.6 7.3 C 86.6 7.3 87.4 7.6 87.4 7.6 C 88.5 7.9 89.3 8.4 89.3 9.6 C 89.3 11.3 88.1 12.1 85.8 12.1 C 85 12.1 84 12 83.4 11.7 C 83.4 11.5 83.4 11.3 83.4 11.1 Z M 90.7 10.9 C 90.67 10.9 90.7 2.9 90.7 2.9 L 89.8 2.7 C 89.8 2.7 89.79 1.78 89.8 1.8 C 90.6 1.6 91.9 1.4 93.2 1.4 C 93.2 1.4 93.2 10.9 93.2 10.9 C 93.5 10.9 93.8 11 94 11.1 C 93.97 11.1 94 11.9 94 11.9 L 89.9 11.9 C 89.9 11.9 89.91 11.1 89.9 11.1 C 90.1 11 90.3 10.9 90.7 10.9 Z M 98.6 7.7 C 98.6 7.7 98.6 6.8 98.6 6.8 C 98.6 6.1 98.3 5.7 97.6 5.7 C 97.3 5.7 97.1 5.8 96.9 5.8 C 96.88 5.82 96.7 7.1 96.7 7.1 C 96.7 7.1 95.22 7.08 95.2 7.1 C 95.1 6.7 95 6.3 95 5.9 C 95 5.7 95.1 5.4 95.1 5.2 C 96 4.8 97.2 4.5 98.3 4.5 C 100.2 4.5 101.1 5.2 101.1 6.7 C 101.1 7.9 101.1 9.3 101.1 10.7 C 101.08 10.69 101.8 10.9 101.8 10.9 C 101.8 10.9 101.83 11.71 101.8 11.7 C 101 11.9 99.9 12.1 98.7 12.1 C 98.7 12.1 98.7 11 98.7 11 C 98.3 11.7 97.6 12.1 96.7 12.1 C 95.4 12.1 94.6 11.4 94.6 10.1 C 94.6 8.2 96.4 7.8 98.6 7.7 Z M 98.6 10.4 C 98.6 10.4 98.6 8.6 98.6 8.6 C 97.6 8.7 97 9 97 9.8 C 97 10.4 97.3 10.7 97.9 10.7 C 98.2 10.7 98.4 10.6 98.6 10.4 Z M 103.3 10.9 C 103.29 10.9 103.3 6 103.3 6 L 102.5 5.8 C 102.5 5.8 102.54 4.96 102.5 5 C 103.4 4.7 104.5 4.6 105.8 4.6 C 105.8 4.6 105.8 5.7 105.8 5.7 C 106.3 4.9 107.3 4.5 108.3 4.5 C 109.8 4.5 110.6 5.4 110.6 6.7 C 110.6 6.7 110.6 10.9 110.6 10.9 C 110.9 10.9 111.2 11 111.3 11.1 C 111.34 11.1 111.3 11.9 111.3 11.9 L 107.3 11.9 C 107.3 11.9 107.29 11.1 107.3 11.1 C 107.5 11 107.7 10.9 108.1 10.9 C 108.1 10.9 108.1 7.3 108.1 7.3 C 108.1 6.6 107.7 6.3 107.1 6.3 C 106.6 6.3 106.2 6.4 105.8 6.8 C 105.8 6.8 105.8 10.9 105.8 10.9 C 106.1 10.9 106.4 11 106.6 11.1 C 106.59 11.1 106.6 11.9 106.6 11.9 L 102.5 11.9 C 102.5 11.9 102.52 11.1 102.5 11.1 C 102.7 11 103 10.9 103.3 10.9 Z M 115.5 4.5 C 116.1 4.5 116.6 4.7 117 5.1 C 116.95 5.05 117 2.9 117 2.9 L 116 2.7 C 116 2.7 116.02 1.78 116 1.8 C 116.9 1.6 118.2 1.4 119.5 1.4 C 119.47 1.44 119.5 10.7 119.5 10.7 L 120.2 10.9 C 120.2 10.9 120.22 11.71 120.2 11.7 C 119.4 11.9 118.3 12.1 117 12.1 C 117 12.1 117 10.9 117 10.9 C 116.6 11.7 115.9 12.1 114.9 12.1 C 113.2 12.1 112 10.8 112 8.5 C 112 6 113.4 4.5 115.5 4.5 Z M 117 10.1 C 117 10.1 117 6 117 6 C 116.8 5.9 116.6 5.9 116.4 5.9 C 115.3 5.9 114.7 6.9 114.7 8.3 C 114.7 9.9 115.2 10.5 116.1 10.5 C 116.4 10.5 116.7 10.3 117 10.1 Z " stroke="none" fill="#404040"/>  </g></svg>