<?xml version="1.0" standalone="no"?><!DOCTYPE svg PUBLIC "-//W3C//DTD SVG 1.1//EN" "http://www.w3.org/Graphics/SVG/1.1/DTD/svg11.dtd"><svg xmlns="http://www.w3.org/2000/svg" version="1.1" width="335px" height="139.3px" viewBox="0 0 335 139.3">  <desc>Getting there Few people actually see this park because it isn t easy to get to — you can t drive to the islands A s</desc>  <defs/>  <g id="Polygon11754">    <path d="M 19.7 14.6 C 19.7 14.6 19.74 16.44 19.7 16.4 C 19.3 16.6 18.8 16.8 18 16.8 C 18 16.83 18 24.2 18 24.2 C 18 24.2 16.38 24.21 16.4 24.2 C 16 24.1 15.5 23.8 15.1 23.6 C 13.8 24 12.3 24.2 10.6 24.2 C 4.5 24.2 0.9 20.8 0.9 14.4 C 0.9 7.6 6 4.3 11.9 4.3 C 14.3 4.3 16.4 4.7 17.5 5.3 C 17.6 5.7 17.7 6.5 17.7 7.1 C 17.7 8.1 17.5 9.3 17.3 10.3 C 17.34 10.26 14.8 10.3 14.8 10.3 C 14.8 10.3 13.98 6.81 14 6.8 C 13.4 6.7 12.8 6.7 12.3 6.7 C 8.9 6.7 6.5 9.2 6.5 13.9 C 6.5 19.6 9 21.9 12.4 21.9 C 12.6 21.9 12.9 21.9 13.1 21.8 C 13.1 21.8 13.1 16.8 13.1 16.8 C 12.2 16.8 11.3 16.6 10.8 16.4 C 10.77 16.44 10.8 14.6 10.8 14.6 L 19.7 14.6 Z M 29.1 9.1 C 33.1 9.1 35.2 11.4 35.2 15.1 C 35.2 15.8 35.2 16.2 35.1 16.9 C 35.1 16.9 26.7 16.9 26.7 16.9 C 26.9 20 28.4 21 30.5 21 C 32.1 21 33.3 20.3 34.1 19.4 C 34.1 19.4 35 20.7 35 20.7 C 34 22.6 32 24.2 28.9 24.2 C 24.7 24.2 21.6 22 21.6 16.5 C 21.6 11.6 25 9.1 29.1 9.1 Z M 26.7 15 C 26.7 15 30.8 15 30.8 15 C 30.8 14.7 30.8 14.4 30.8 14.2 C 30.8 12.4 30.2 11.4 28.9 11.4 C 27.7 11.4 26.8 12.4 26.7 15 Z M 43.2 11.8 C 43.2 11.8 43.05 19.56 43 19.6 C 43 20.7 43.6 21.1 44.4 21.1 C 44.8 21.1 45.2 21 45.6 20.6 C 45.6 20.6 46.4 22.1 46.4 22.1 C 45.5 23.2 44.2 24.2 42.1 24.2 C 39.1 24.2 38 22.6 38 20.1 C 38.01 20.1 38.1 11.8 38.1 11.8 L 36.6 11.8 C 36.6 11.8 36.6 9.99 36.6 10 C 36.9 9.8 37.4 9.7 38.3 9.5 C 38.3 9.5 38.5 7 38.5 7 C 39.7 6.7 41.5 6.5 43.3 6.5 C 43.26 6.54 43.2 9.5 43.2 9.5 L 48 9.5 C 48 9.5 48.18 6.96 48.2 7 C 49.4 6.7 51.3 6.5 53 6.5 C 52.98 6.54 52.9 9.5 52.9 9.5 L 56.1 9.5 L 56.1 11.8 L 52.9 11.8 C 52.9 11.8 52.77 19.11 52.8 19.1 C 52.8 20.5 53.2 21 54.2 21 C 54.9 21 55.4 20.6 55.9 20.1 C 55.9 20.1 56.8 21.4 56.8 21.4 C 56.1 22.8 54.4 24.2 51.9 24.2 C 49.2 24.2 47.7 22.7 47.7 20.1 C 47.73 20.1 47.8 11.8 47.8 11.8 L 43.2 11.8 Z M 59.1 4.9 C 59.1 4 59.2 3.7 59.2 3.3 C 59.9 3.1 60.8 3 61.7 3 C 62.6 3 63.5 3.1 64.2 3.3 C 64.3 3.7 64.3 4 64.3 4.9 C 64.3 5.8 64.2 6.7 64 7.3 C 63.5 7.4 62.5 7.6 61.7 7.6 C 60.9 7.6 59.9 7.4 59.3 7.3 C 59.2 6.7 59.1 5.8 59.1 4.9 Z M 59.1 21.8 C 59.1 21.81 59.1 12.1 59.1 12.1 L 57.6 11.7 C 57.6 11.7 57.6 9.93 57.6 9.9 C 59.3 9.5 61.6 9.1 64.1 9.1 C 64.1 9.1 64.1 21.8 64.1 21.8 C 64.8 21.9 65.4 22 65.7 22.2 C 65.7 22.2 65.7 23.9 65.7 23.9 L 57.6 23.9 C 57.6 23.9 57.57 22.2 57.6 22.2 C 57.9 22 58.4 21.9 59.1 21.8 Z M 68.5 21.8 C 68.46 21.81 68.5 12.1 68.5 12.1 L 67 11.7 C 67 11.7 66.96 9.93 67 9.9 C 68.7 9.5 71 9.1 73.5 9.1 C 73.5 9.1 73.5 11.5 73.5 11.5 C 74.5 9.8 76.4 9 78.5 9 C 81.4 9 83 10.8 83 13.5 C 83 13.5 83 21.8 83 21.8 C 83.7 21.9 84.2 22 84.6 22.2 C 84.57 22.2 84.6 23.9 84.6 23.9 L 76.5 23.9 C 76.5 23.9 76.47 22.2 76.5 22.2 C 76.8 22 77.3 21.9 78 21.8 C 78 21.8 78 14.5 78 14.5 C 78 13.3 77.3 12.6 76.1 12.6 C 75.1 12.6 74.3 12.9 73.5 13.6 C 73.5 13.6 73.5 21.8 73.5 21.8 C 74.2 21.9 74.7 22 75.1 22.2 C 75.06 22.2 75.1 23.9 75.1 23.9 L 66.9 23.9 C 66.9 23.9 66.93 22.2 66.9 22.2 C 67.3 22 67.8 21.9 68.5 21.8 Z M 88.1 23.4 C 87.4 22.9 86.6 22.1 86.6 20.9 C 86.6 19.6 87.6 18.6 88.7 18 C 87 17.3 85.8 16 85.8 14 C 85.8 10.6 88.9 9 92.7 9 C 94.2 9 95.6 9.3 96.8 10 C 97.6 9.1 98.5 8.6 100.1 8.5 C 100.2 9 100.2 9.5 100.2 10 C 100.2 10.6 100.2 11.1 100.1 11.6 C 100.1 11.6 98 11.6 98 11.6 C 98.7 12.2 99 12.9 99 14 C 99 16.9 96.4 18.5 92.1 18.5 C 91.6 18.5 91.2 18.5 90.7 18.4 C 90.5 18.7 90.3 19 90.3 19.3 C 90.3 19.8 90.6 20.1 91.3 20.1 C 91.3 20.1 95.4 20.1 95.4 20.1 C 98.2 20.1 100.3 21.4 100.3 24.1 C 100.3 28 96 29.8 91.6 29.8 C 87.6 29.8 85.3 28.7 85.3 26.3 C 85.3 24.9 86.4 23.9 88.1 23.4 Z M 94.5 13.8 C 94.5 11.8 93.6 11 92.5 11 C 91.4 11 90.6 11.8 90.6 13.5 C 90.6 15.5 91.4 16.4 92.5 16.4 C 93.7 16.4 94.5 15.6 94.5 13.8 Z M 89.4 25.6 C 89.4 26.9 90.4 27.5 92.2 27.5 C 94.7 27.5 96.1 26.8 96.1 25.4 C 96.1 24.5 95.3 24.1 94.1 24.1 C 94.1 24.1 90 24.1 90 24.1 C 89.7 24.4 89.4 25 89.4 25.6 Z M 108.4 9.5 C 108.4 9.5 108.5 7 108.5 7 C 109.8 6.7 111.6 6.5 113.3 6.5 C 113.34 6.54 113.3 9.4 113.3 9.4 L 116.5 9.4 L 116.5 11.8 L 113.2 11.8 C 113.2 11.8 113.13 19.11 113.1 19.1 C 113.1 20.5 113.5 21 114.5 21 C 115.3 21 115.8 20.6 116.3 20.1 C 116.3 20.1 117.2 21.4 117.2 21.4 C 116.4 22.8 114.7 24.2 112.2 24.2 C 109.6 24.2 108.1 22.7 108.1 20.1 C 108.09 20.1 108.2 11.8 108.2 11.8 L 106.7 11.8 C 106.7 11.8 106.68 9.99 106.7 10 C 106.9 9.8 107.5 9.7 108.4 9.5 Z M 119.5 21.8 C 119.49 21.81 119.5 5.7 119.5 5.7 L 117.7 5.3 C 117.7 5.3 117.72 3.57 117.7 3.6 C 119.4 3.1 122 2.9 124.5 2.9 C 124.5 2.9 124.5 11.5 124.5 11.5 C 125.6 9.8 127.4 9 129.5 9 C 132.5 9 134.1 10.8 134.1 13.5 C 134.1 13.5 134.1 21.8 134.1 21.8 C 134.7 21.9 135.3 22 135.6 22.2 C 135.6 22.2 135.6 23.9 135.6 23.9 L 127.5 23.9 C 127.5 23.9 127.5 22.2 127.5 22.2 C 127.8 22 128.4 21.9 129 21.8 C 129 21.8 129 14.5 129 14.5 C 129 13.3 128.3 12.6 127.1 12.6 C 126.1 12.6 125.3 12.9 124.5 13.6 C 124.5 13.6 124.5 21.8 124.5 21.8 C 125.2 21.9 125.7 22 126.1 22.2 C 126.09 22.2 126.1 23.9 126.1 23.9 L 118 23.9 C 118 23.9 117.96 22.2 118 22.2 C 118.3 22 118.8 21.9 119.5 21.8 Z M 144.4 9.1 C 148.5 9.1 150.6 11.4 150.6 15.1 C 150.6 15.8 150.5 16.2 150.4 16.9 C 150.4 16.9 142 16.9 142 16.9 C 142.3 20 143.8 21 145.9 21 C 147.4 21 148.6 20.3 149.5 19.4 C 149.5 19.4 150.3 20.7 150.3 20.7 C 149.4 22.6 147.4 24.2 144.3 24.2 C 140.1 24.2 136.9 22 136.9 16.5 C 136.9 11.6 140.4 9.1 144.4 9.1 Z M 142 15 C 142 15 146.1 15 146.1 15 C 146.2 14.7 146.2 14.4 146.2 14.2 C 146.2 12.4 145.5 11.4 144.3 11.4 C 143.1 11.4 142.2 12.4 142 15 Z M 153.6 21.8 C 153.6 21.81 153.6 12.1 153.6 12.1 L 152.1 11.7 C 152.1 11.7 152.1 9.93 152.1 9.9 C 153.8 9.5 156.1 9.1 158.6 9.1 C 158.6 9.1 158.6 11.7 158.6 11.7 C 159.6 9.9 161.2 9.1 162.7 9.1 C 163.4 9.1 164.1 9.3 164.6 9.7 C 164.6 11.8 164.3 13.3 163.8 15 C 163.83 15.03 161.3 15 161.3 15 C 161.3 15 160.86 12.6 160.9 12.6 C 160 12.7 159.2 13.1 158.6 13.8 C 158.6 13.8 158.6 21.8 158.6 21.8 C 159.5 21.9 160.3 22 160.7 22.2 C 160.71 22.2 160.7 23.9 160.7 23.9 L 152.1 23.9 C 152.1 23.9 152.07 22.2 152.1 22.2 C 152.4 22 152.9 21.9 153.6 21.8 Z M 173 9.1 C 177.1 9.1 179.1 11.4 179.1 15.1 C 179.1 15.8 179.1 16.2 179 16.9 C 179 16.9 170.6 16.9 170.6 16.9 C 170.8 20 172.3 21 174.4 21 C 176 21 177.2 20.3 178 19.4 C 178 19.4 178.9 20.7 178.9 20.7 C 177.9 22.6 175.9 24.2 172.9 24.2 C 168.6 24.2 165.5 22 165.5 16.5 C 165.5 11.6 168.9 9.1 173 9.1 Z M 170.6 15 C 170.6 15 174.7 15 174.7 15 C 174.7 14.7 174.7 14.4 174.7 14.2 C 174.7 12.4 174.1 11.4 172.9 11.4 C 171.7 11.4 170.7 12.4 170.6 15 Z " stroke="none" fill="#404040"/>  </g>  <g id="Group11759">    <path d="M 1 62.8 C 1 62.8 2.2 54.7 2.2 54.7 C 1.8 54.7 1.5 54.6 1.2 54.5 C 1.25 54.49 1.4 53.6 1.4 53.6 C 1.4 53.6 9.07 53.64 9.1 53.6 C 9.1 54.5 9 55.5 8.7 56.5 C 8.69 56.52 7.5 56.5 7.5 56.5 L 7.3 54.7 L 4.6 54.7 L 4 58.2 C 4 58.2 5.57 58.22 5.6 58.2 C 5.7 57.8 5.8 57.5 6 57.2 C 6 57.2 7 57.2 7 57.2 C 6.9 58.2 6.7 59.5 6.4 60.6 C 6.4 60.6 5.5 60.6 5.5 60.6 C 5.4 60.2 5.4 59.8 5.4 59.3 C 5.41 59.3 3.9 59.3 3.9 59.3 C 3.9 59.3 3.33 62.81 3.3 62.8 C 3.8 62.8 4.3 62.9 4.7 63 C 4.66 63.03 4.5 63.9 4.5 63.9 L -0.1 63.9 C -0.1 63.9 0.02 63.03 0 63 C 0.3 62.9 0.6 62.8 1 62.8 Z M 12.2 56.1 C 13.8 56.1 14.6 56.8 14.6 57.9 C 14.6 59.4 13.5 60.3 11.1 60.3 C 11.1 60.3 10.4 60.3 10.4 60.3 C 10.4 60.5 10.4 60.8 10.4 61 C 10.4 62.1 10.9 62.5 11.5 62.5 C 12.3 62.5 12.8 62.1 13.3 61.2 C 13.3 61.2 14.1 61.6 14.1 61.6 C 13.5 63.2 12.3 64.1 10.8 64.1 C 9 64.1 8.1 63 8.1 61.2 C 8.1 58.5 9.6 56.1 12.2 56.1 Z M 10.5 59.5 C 10.5 59.5 10.8 59.5 10.8 59.5 C 12.1 59.5 12.6 58.8 12.6 58 C 12.6 57.5 12.4 57.3 12 57.3 C 11.2 57.3 10.7 58.2 10.5 59.5 Z M 22.1 56.1 C 22.1 56.1 22.9 61.7 22.9 61.7 C 23.9 60.1 24.3 58.9 24.4 57.5 C 24.42 57.54 23.4 57.3 23.4 57.3 C 23.4 57.3 23.54 56.52 23.5 56.5 C 24 56.3 24.8 56.1 25.4 56.1 C 26.1 56.1 26.3 56.5 26.3 57.1 C 26.3 58.5 25.3 60.6 22.4 63.9 C 22.45 63.88 21.2 63.9 21.2 63.9 C 21.2 63.9 20.69 60.89 20.7 60.9 C 20.1 61.8 19.3 62.8 18.4 63.9 C 18.45 63.88 17.2 63.9 17.2 63.9 L 16.1 57.5 L 15.1 57.3 C 15.1 57.3 15.23 56.52 15.2 56.5 C 15.9 56.3 17 56.1 18 56.1 C 18 56.1 18.9 61.6 18.9 61.6 C 19.5 60.7 20 59.8 20.4 58.9 C 20.35 58.89 20.1 57.5 20.1 57.5 L 19.3 57.3 C 19.3 57.3 19.41 56.52 19.4 56.5 C 20.1 56.3 21 56.1 22.1 56.1 Z M 33.2 56.1 C 33.2 56.1 33 57.4 33 57.4 C 33.5 56.6 34.3 56.1 35.3 56.1 C 36.6 56.1 37.3 57.2 37.3 58.8 C 37.3 61.6 36 64 33.5 64 C 32.9 64 32.4 63.8 32.1 63.5 C 32.1 63.5 31.7 65.8 31.7 65.8 C 32.3 65.9 32.8 65.9 33.1 66.1 C 33.07 66.07 32.9 66.9 32.9 66.9 L 28.4 66.9 C 28.4 66.9 28.53 66.07 28.5 66.1 C 28.8 66 29.1 65.9 29.5 65.8 C 29.49 65.85 30.8 57.5 30.8 57.5 L 29.8 57.3 C 29.8 57.3 29.94 56.52 29.9 56.5 C 30.7 56.3 32 56.1 33.2 56.1 Z M 32.9 58.6 C 32.9 58.6 32.2 62.6 32.2 62.6 C 32.4 62.7 32.7 62.8 32.9 62.8 C 34.2 62.8 35 60.9 35 58.8 C 35 57.9 34.8 57.5 34.2 57.5 C 33.7 57.5 33.2 57.9 32.9 58.6 Z M 42.4 56.1 C 44 56.1 44.8 56.8 44.8 57.9 C 44.8 59.4 43.6 60.3 41.2 60.3 C 41.2 60.3 40.6 60.3 40.6 60.3 C 40.6 60.5 40.6 60.8 40.6 61 C 40.6 62.1 41 62.5 41.7 62.5 C 42.4 62.5 42.9 62.1 43.5 61.2 C 43.5 61.2 44.2 61.6 44.2 61.6 C 43.6 63.2 42.4 64.1 40.9 64.1 C 39.2 64.1 38.3 63 38.3 61.2 C 38.3 58.5 39.7 56.1 42.4 56.1 Z M 40.7 59.5 C 40.7 59.5 41 59.5 41 59.5 C 42.2 59.5 42.8 58.8 42.8 58 C 42.8 57.5 42.6 57.3 42.1 57.3 C 41.4 57.3 40.9 58.2 40.7 59.5 Z M 49.5 56.1 C 51.7 56.1 52.7 57.3 52.7 59 C 52.7 61.6 51.3 64.1 48.4 64.1 C 46.2 64.1 45.2 62.9 45.2 61.1 C 45.2 58.5 46.6 56.1 49.5 56.1 Z M 48.5 63 C 49.7 63 50.4 60.6 50.4 58.7 C 50.4 57.9 50.1 57.2 49.4 57.2 C 48.2 57.2 47.5 59.5 47.5 61.4 C 47.5 62.3 47.8 63 48.5 63 Z M 57 56.1 C 57 56.1 56.8 57.4 56.8 57.4 C 57.3 56.6 58.1 56.1 59.1 56.1 C 60.4 56.1 61.1 57.2 61.1 58.8 C 61.1 61.6 59.8 64 57.3 64 C 56.7 64 56.2 63.8 55.9 63.5 C 55.9 63.5 55.5 65.8 55.5 65.8 C 56 65.9 56.5 65.9 56.9 66.1 C 56.86 66.07 56.7 66.9 56.7 66.9 L 52.2 66.9 C 52.2 66.9 52.32 66.07 52.3 66.1 C 52.6 66 52.9 65.9 53.3 65.8 C 53.28 65.85 54.6 57.5 54.6 57.5 L 53.6 57.3 C 53.6 57.3 53.73 56.52 53.7 56.5 C 54.4 56.3 55.8 56.1 57 56.1 Z M 56.7 58.6 C 56.7 58.6 56 62.6 56 62.6 C 56.2 62.7 56.4 62.8 56.7 62.8 C 58 62.8 58.8 60.9 58.8 58.8 C 58.8 57.9 58.5 57.5 58 57.5 C 57.5 57.5 57 57.9 56.7 58.6 Z M 65.7 52.7 C 65.7 52.7 64.4 61.4 64.4 61.4 C 64.3 61.8 64.3 62.1 64.3 62.2 C 64.3 62.6 64.4 62.7 64.9 62.7 C 64.86 62.71 65.4 62.7 65.4 62.7 C 65.4 62.7 65.22 63.59 65.2 63.6 C 64.8 63.8 64.1 64 63.3 64 C 62.4 64 62 63.6 62 62.8 C 62 62.6 62 62.2 62.1 61.9 C 62.08 61.94 63.3 54.1 63.3 54.1 L 62.2 53.9 C 62.2 53.9 62.27 53.1 62.3 53.1 C 63 52.9 64.5 52.7 65.7 52.7 Z M 70.3 56.1 C 71.8 56.1 72.7 56.8 72.7 57.9 C 72.7 59.4 71.5 60.3 69.1 60.3 C 69.1 60.3 68.5 60.3 68.5 60.3 C 68.4 60.5 68.4 60.8 68.4 61 C 68.4 62.1 68.9 62.5 69.6 62.5 C 70.3 62.5 70.8 62.1 71.3 61.2 C 71.3 61.2 72.1 61.6 72.1 61.6 C 71.5 63.2 70.3 64.1 68.8 64.1 C 67 64.1 66.1 63 66.1 61.2 C 66.1 58.5 67.6 56.1 70.3 56.1 Z M 68.6 59.5 C 68.6 59.5 68.9 59.5 68.9 59.5 C 70.1 59.5 70.7 58.8 70.7 58 C 70.7 57.5 70.4 57.3 70 57.3 C 69.3 57.3 68.8 58.2 68.6 59.5 Z M 80 56.1 C 80.8 56.1 81.2 56.3 81.6 56.8 C 81.9 56.5 82.5 56.2 82.9 56.1 C 82.94 56.07 83.7 56.3 83.7 56.3 C 83.7 56.3 82.88 61.5 82.9 61.5 C 82.8 61.8 82.8 62.1 82.8 62.3 C 82.8 62.6 82.9 62.7 83.4 62.7 C 83.37 62.71 83.9 62.7 83.9 62.7 C 83.9 62.7 83.74 63.59 83.7 63.6 C 83.3 63.8 82.6 64 81.8 64 C 80.9 64 80.5 63.6 80.5 62.8 C 80.5 62.8 80.5 62.7 80.6 62.6 C 80 63.5 79.3 64 78.3 64 C 76.9 64 76.2 63 76.2 61.3 C 76.2 58.5 77.7 56.1 80 56.1 Z M 80.7 61.6 C 80.7 61.6 81.3 57.5 81.3 57.5 C 81.1 57.4 80.9 57.3 80.6 57.3 C 79.3 57.3 78.5 59.2 78.5 61.3 C 78.5 62.2 78.8 62.6 79.4 62.6 C 79.9 62.6 80.3 62.2 80.7 61.6 Z M 88.9 56.1 C 89.8 56.1 90.6 56.3 91 56.6 C 91 57.4 90.8 58.4 90.5 59 C 90.48 58.97 89.3 59 89.3 59 C 89.3 59 89.23 57.29 89.2 57.3 C 89.2 57.3 89.1 57.3 89 57.3 C 87.7 57.3 87 59.2 87 61 C 87 62 87.4 62.5 88.1 62.5 C 88.8 62.5 89.4 62.1 89.9 61.2 C 89.9 61.2 90.6 61.6 90.6 61.6 C 90 63.2 88.9 64.1 87.3 64.1 C 85.6 64.1 84.7 63 84.7 61.2 C 84.7 58.5 86.2 56.1 88.9 56.1 Z M 92.9 56.2 C 92.9 56.2 93.3 55 93.3 55 C 93.7 54.8 94.6 54.7 95.2 54.7 C 95.25 54.73 95 56.2 95 56.2 L 96.7 56.2 L 96.6 57.4 L 94.8 57.4 C 94.8 57.4 94.32 60.76 94.3 60.8 C 94.3 61.2 94.2 61.6 94.2 61.9 C 94.2 62.3 94.3 62.5 94.6 62.5 C 95.1 62.5 95.5 61.9 95.9 61.3 C 95.9 61.3 96.5 61.6 96.5 61.6 C 96 63 95.2 64 93.7 64 C 92.5 64 92 63.4 92 62.3 C 92 61.9 92 61.4 92.1 60.8 C 92.11 60.82 92.6 57.4 92.6 57.4 L 91.6 57.4 C 91.6 57.4 91.71 56.55 91.7 56.6 C 91.9 56.4 92.4 56.2 92.9 56.2 Z M 104.8 56.1 C 104.8 56.1 104 61.5 104 61.5 C 104 61.8 103.9 62.1 103.9 62.3 C 103.9 62.6 104 62.7 104.5 62.7 C 104.48 62.71 105 62.7 105 62.7 C 105 62.7 104.85 63.59 104.8 63.6 C 104.4 63.8 103.7 64 102.9 64 C 102 64 101.6 63.6 101.6 62.8 C 101.6 62.7 101.7 62.4 101.7 62.3 C 101.7 62.3 101.7 62.2 101.7 62.2 C 101.1 63.4 100 64 99 64 C 97.9 64 97.4 63.4 97.4 62.5 C 97.4 62.3 97.4 62 97.4 61.8 C 97.44 61.75 98.1 57.5 98.1 57.5 L 97.2 57.3 C 97.2 57.3 97.26 56.52 97.3 56.5 C 98 56.3 99.4 56.1 100.6 56.1 C 100.6 56.1 99.7 61.1 99.7 61.1 C 99.7 61.3 99.7 61.6 99.7 61.8 C 99.7 62.2 99.8 62.4 100.3 62.4 C 100.8 62.4 101.3 62.1 101.8 61.3 C 101.81 61.3 102.4 57.5 102.4 57.5 L 101.5 57.3 C 101.5 57.3 101.58 56.52 101.6 56.5 C 102.3 56.3 103.6 56.1 104.8 56.1 Z M 109.7 56.1 C 110.4 56.1 110.9 56.3 111.2 56.8 C 111.6 56.5 112.1 56.2 112.6 56.1 C 112.62 56.07 113.4 56.3 113.4 56.3 C 113.4 56.3 112.56 61.5 112.6 61.5 C 112.5 61.8 112.5 62.1 112.5 62.3 C 112.5 62.6 112.6 62.7 113.1 62.7 C 113.05 62.71 113.6 62.7 113.6 62.7 C 113.6 62.7 113.42 63.59 113.4 63.6 C 113 63.8 112.3 64 111.5 64 C 110.6 64 110.2 63.6 110.2 62.8 C 110.2 62.8 110.2 62.7 110.2 62.6 C 109.7 63.5 109 64 107.9 64 C 106.6 64 105.9 63 105.9 61.3 C 105.9 58.5 107.4 56.1 109.7 56.1 Z M 110.3 61.6 C 110.3 61.6 111 57.5 111 57.5 C 110.8 57.4 110.6 57.3 110.3 57.3 C 109 57.3 108.2 59.2 108.2 61.3 C 108.2 62.2 108.5 62.6 109 62.6 C 109.6 62.6 110 62.2 110.3 61.6 Z M 118.3 52.7 C 118.3 52.7 116.9 61.4 116.9 61.4 C 116.8 61.8 116.8 62.1 116.8 62.2 C 116.8 62.6 117 62.7 117.4 62.7 C 117.41 62.71 117.9 62.7 117.9 62.7 C 117.9 62.7 117.76 63.59 117.8 63.6 C 117.4 63.8 116.6 64 115.8 64 C 115 64 114.5 63.6 114.5 62.8 C 114.5 62.6 114.6 62.2 114.6 61.9 C 114.62 61.94 115.9 54.1 115.9 54.1 L 114.7 53.9 C 114.7 53.9 114.81 53.1 114.8 53.1 C 115.5 52.9 117.1 52.7 118.3 52.7 Z M 122.6 52.7 C 122.6 52.7 121.2 61.4 121.2 61.4 C 121.1 61.8 121.1 62.1 121.1 62.2 C 121.1 62.6 121.3 62.7 121.7 62.7 C 121.71 62.71 122.2 62.7 122.2 62.7 C 122.2 62.7 122.06 63.59 122.1 63.6 C 121.7 63.8 120.9 64 120.1 64 C 119.3 64 118.8 63.6 118.8 62.8 C 118.8 62.6 118.9 62.2 118.9 61.9 C 118.93 61.94 120.2 54.1 120.2 54.1 L 119 53.9 C 119 53.9 119.12 53.1 119.1 53.1 C 119.8 52.9 121.4 52.7 122.6 52.7 Z M 124.7 64.3 C 124.67 64.3 124.7 64.2 124.7 64.2 L 123.6 57.5 L 122.6 57.3 C 122.6 57.3 122.73 56.52 122.7 56.5 C 123.4 56.3 124.5 56.1 125.5 56.1 C 125.5 56.1 126.5 61.8 126.5 61.8 C 127.6 60.4 128 59 128.1 57.5 C 128.11 57.54 127.2 57.3 127.2 57.3 C 127.2 57.3 127.26 56.52 127.3 56.5 C 127.8 56.3 128.5 56.1 129.1 56.1 C 129.8 56.1 130 56.5 130 57.1 C 130 58.5 128.9 60.3 127.3 62.5 C 127.3 62.5 125.8 64.6 125.8 64.6 C 124.9 65.8 123.9 67 122.8 67 C 122.1 67 121.6 66.7 121.3 66.1 C 121.3 66.1 121.4 65.4 121.4 65.4 C 121.8 65.6 122.4 65.7 122.7 65.7 C 123.7 65.7 124.2 65 124.7 64.3 Z M 133.7 61.5 C 133.66 61.48 134.7 61.5 134.7 61.5 C 134.7 61.5 134.86 63.02 134.9 63 C 135.1 63 135.3 63.1 135.5 63.1 C 136.4 63.1 136.9 62.6 136.9 62 C 136.9 61.4 136.3 61.1 135.6 60.7 C 135.6 60.7 135.1 60.4 135.1 60.4 C 134.4 60.1 133.9 59.5 133.9 58.6 C 133.9 57 135.2 56.1 137 56.1 C 138 56.1 139 56.3 139.5 56.5 C 139.5 57.3 139.4 58 139.1 58.6 C 139.05 58.63 137.9 58.6 137.9 58.6 C 137.9 58.6 137.89 57.14 137.9 57.1 C 137.7 57.1 137.4 57.1 137.2 57.1 C 136.5 57.1 136 57.4 136 58.1 C 136 58.6 136.5 58.9 137 59.2 C 137 59.2 137.6 59.5 137.6 59.5 C 138.4 60 139.1 60.5 139.1 61.5 C 139.1 63.1 137.8 64 135.7 64 C 134.8 64 133.7 63.9 133.1 63.6 C 133.2 62.8 133.4 62.1 133.7 61.5 Z M 144.2 56.1 C 145.8 56.1 146.6 56.8 146.6 57.9 C 146.6 59.4 145.5 60.3 143 60.3 C 143 60.3 142.4 60.3 142.4 60.3 C 142.4 60.5 142.4 60.8 142.4 61 C 142.4 62.1 142.8 62.5 143.5 62.5 C 144.2 62.5 144.8 62.1 145.3 61.2 C 145.3 61.2 146 61.6 146 61.6 C 145.4 63.2 144.3 64.1 142.8 64.1 C 141 64.1 140.1 63 140.1 61.2 C 140.1 58.5 141.5 56.1 144.2 56.1 Z M 142.5 59.5 C 142.5 59.5 142.8 59.5 142.8 59.5 C 144.1 59.5 144.6 58.8 144.6 58 C 144.6 57.5 144.4 57.3 144 57.3 C 143.2 57.3 142.7 58.2 142.5 59.5 Z M 151.2 56.1 C 152.7 56.1 153.6 56.8 153.6 57.9 C 153.6 59.4 152.4 60.3 150 60.3 C 150 60.3 149.4 60.3 149.4 60.3 C 149.4 60.5 149.4 60.8 149.4 61 C 149.4 62.1 149.8 62.5 150.5 62.5 C 151.2 62.5 151.7 62.1 152.3 61.2 C 152.3 61.2 153 61.6 153 61.6 C 152.4 63.2 151.2 64.1 149.7 64.1 C 147.9 64.1 147.1 63 147.1 61.2 C 147.1 58.5 148.5 56.1 151.2 56.1 Z M 149.5 59.5 C 149.5 59.5 149.8 59.5 149.8 59.5 C 151 59.5 151.6 58.8 151.6 58 C 151.6 57.5 151.3 57.3 150.9 57.3 C 150.2 57.3 149.7 58.2 149.5 59.5 Z M 158.5 56.2 C 158.5 56.2 158.9 55 158.9 55 C 159.3 54.8 160.2 54.7 160.9 54.7 C 160.86 54.73 160.6 56.2 160.6 56.2 L 162.3 56.2 L 162.2 57.4 L 160.5 57.4 C 160.5 57.4 159.93 60.76 159.9 60.8 C 159.9 61.2 159.8 61.6 159.8 61.9 C 159.8 62.3 159.9 62.5 160.3 62.5 C 160.7 62.5 161.1 61.9 161.5 61.3 C 161.5 61.3 162.1 61.6 162.1 61.6 C 161.6 63 160.8 64 159.3 64 C 158.1 64 157.6 63.4 157.6 62.3 C 157.6 61.9 157.6 61.4 157.7 60.8 C 157.72 60.82 158.3 57.4 158.3 57.4 L 157.2 57.4 C 157.2 57.4 157.32 56.55 157.3 56.6 C 157.5 56.4 158 56.2 158.5 56.2 Z M 167.2 61.9 C 167.2 61.9 167.7 59 167.7 59 C 167.8 58.7 167.8 58.5 167.8 58.3 C 167.8 57.9 167.6 57.7 167.2 57.7 C 166.7 57.7 166.2 58 165.6 58.8 C 165.63 58.79 164.8 63.9 164.8 63.9 L 162.6 63.9 L 164.2 54.1 L 163 53.9 C 163 53.9 163.12 53.1 163.1 53.1 C 163.8 52.9 165.4 52.7 166.6 52.7 C 166.6 52.7 165.8 57.8 165.8 57.8 C 166.5 56.7 167.3 56.1 168.4 56.1 C 169.5 56.1 170.1 56.7 170.1 57.6 C 170.1 57.9 170.1 58.2 170 58.5 C 170 58.5 169.5 61.5 169.5 61.5 C 169.4 61.9 169.4 62.1 169.4 62.3 C 169.4 62.6 169.5 62.7 170 62.7 C 169.96 62.71 170.5 62.7 170.5 62.7 C 170.5 62.7 170.33 63.59 170.3 63.6 C 169.9 63.8 169.2 64 168.4 64 C 167.5 64 167.1 63.6 167.1 62.9 C 167.1 62.6 167.1 62.2 167.2 61.9 Z M 173.1 52.9 C 173.4 52.9 173.8 52.8 174.3 52.8 C 174.7 52.8 175.1 52.9 175.3 52.9 C 175.3 53.5 175.1 54.4 174.8 54.9 C 174.6 55 174.3 55.1 173.8 55.1 C 173.4 55.1 173.1 55 172.9 54.9 C 172.9 54.2 172.9 53.5 173.1 52.9 Z M 174.8 56.1 C 174.8 56.1 174 61.4 174 61.4 C 173.9 61.8 173.9 62.1 173.9 62.2 C 173.9 62.6 174 62.7 174.4 62.7 C 174.44 62.71 175 62.7 175 62.7 C 175 62.7 174.81 63.59 174.8 63.6 C 174.4 63.8 173.7 64 172.9 64 C 172 64 171.6 63.6 171.6 62.8 C 171.6 62.6 171.6 62.2 171.7 61.9 C 171.68 61.94 172.4 57.5 172.4 57.5 L 171.4 57.3 C 171.4 57.3 171.48 56.52 171.5 56.5 C 172.2 56.3 173.6 56.1 174.8 56.1 Z M 176.2 61.5 C 176.16 61.48 177.2 61.5 177.2 61.5 C 177.2 61.5 177.36 63.02 177.4 63 C 177.6 63 177.8 63.1 178 63.1 C 178.9 63.1 179.4 62.6 179.4 62 C 179.4 61.4 178.8 61.1 178.1 60.7 C 178.1 60.7 177.6 60.4 177.6 60.4 C 176.9 60.1 176.4 59.5 176.4 58.6 C 176.4 57 177.7 56.1 179.5 56.1 C 180.5 56.1 181.5 56.3 182 56.5 C 182 57.3 181.9 58 181.5 58.6 C 181.55 58.63 180.4 58.6 180.4 58.6 C 180.4 58.6 180.38 57.14 180.4 57.1 C 180.2 57.1 179.9 57.1 179.7 57.1 C 179 57.1 178.5 57.4 178.5 58.1 C 178.5 58.6 179 58.9 179.5 59.2 C 179.5 59.2 180.1 59.5 180.1 59.5 C 180.9 60 181.6 60.5 181.6 61.5 C 181.6 63.1 180.3 64 178.2 64 C 177.3 64 176.2 63.9 175.6 63.6 C 175.7 62.8 175.9 62.1 176.2 61.5 Z M 189.1 56.1 C 189.1 56.1 188.9 57.4 188.9 57.4 C 189.4 56.6 190.1 56.1 191.1 56.1 C 192.5 56.1 193.2 57.2 193.2 58.8 C 193.2 61.6 191.9 64 189.4 64 C 188.7 64 188.3 63.8 187.9 63.5 C 187.9 63.5 187.6 65.8 187.6 65.8 C 188.1 65.9 188.6 65.9 188.9 66.1 C 188.94 66.07 188.8 66.9 188.8 66.9 L 184.3 66.9 C 184.3 66.9 184.4 66.07 184.4 66.1 C 184.7 66 185 65.9 185.4 65.8 C 185.36 65.85 186.7 57.5 186.7 57.5 L 185.7 57.3 C 185.7 57.3 185.8 56.52 185.8 56.5 C 186.5 56.3 187.9 56.1 189.1 56.1 Z M 188.7 58.6 C 188.7 58.6 188.1 62.6 188.1 62.6 C 188.3 62.7 188.5 62.8 188.8 62.8 C 190.1 62.8 190.9 60.9 190.9 58.8 C 190.9 57.9 190.6 57.5 190 57.5 C 189.5 57.5 189.1 57.9 188.7 58.6 Z M 198 56.1 C 198.7 56.1 199.2 56.3 199.5 56.8 C 199.9 56.5 200.4 56.2 200.9 56.1 C 200.91 56.07 201.7 56.3 201.7 56.3 C 201.7 56.3 200.84 61.5 200.8 61.5 C 200.8 61.8 200.7 62.1 200.7 62.3 C 200.7 62.6 200.9 62.7 201.3 62.7 C 201.34 62.71 201.9 62.7 201.9 62.7 C 201.9 62.7 201.71 63.59 201.7 63.6 C 201.3 63.8 200.6 64 199.8 64 C 198.9 64 198.5 63.6 198.5 62.8 C 198.5 62.8 198.5 62.7 198.5 62.6 C 198 63.5 197.3 64 196.2 64 C 194.9 64 194.2 63 194.2 61.3 C 194.2 58.5 195.7 56.1 198 56.1 Z M 198.6 61.6 C 198.6 61.6 199.3 57.5 199.3 57.5 C 199.1 57.4 198.8 57.3 198.6 57.3 C 197.3 57.3 196.5 59.2 196.5 61.3 C 196.5 62.2 196.8 62.6 197.3 62.6 C 197.9 62.6 198.3 62.2 198.6 61.6 Z M 206.2 56.1 C 206.2 56.1 205.9 58 205.9 58 C 206.4 56.8 207.3 56.1 208.1 56.1 C 208.6 56.1 208.9 56.2 209.1 56.3 C 209.1 57.2 208.8 58.4 208.5 59 C 208.52 59 207.3 59 207.3 59 C 207.3 59 207.21 57.64 207.2 57.6 C 206.7 57.7 206.2 58.3 205.7 59.1 C 205.68 59.14 204.9 63.9 204.9 63.9 L 202.7 63.9 L 203.7 57.5 L 202.7 57.3 C 202.7 57.3 202.84 56.52 202.8 56.5 C 203.6 56.3 205 56.1 206.2 56.1 Z M 213 52.7 C 213 52.68 211.3 63.9 211.3 63.9 L 209.1 63.9 L 210.6 54.1 L 209.5 53.9 C 209.5 53.9 209.58 53.1 209.6 53.1 C 210.3 52.9 211.8 52.7 213 52.7 Z M 217.1 56.2 C 217.08 56.23 217 57.1 217 57.1 L 215.9 57.5 L 214 59.3 C 214 59.3 214.96 61.98 215 62 C 215.2 62.6 215.4 62.7 215.9 62.7 C 215.95 62.71 216.4 62.7 216.4 62.7 C 216.4 62.7 216.27 63.59 216.3 63.6 C 215.9 63.8 215.2 64 214.6 64 C 213.6 64 213.3 63.6 213 62.8 C 212.97 62.82 211.9 59.8 211.9 59.8 L 214.3 57.5 L 213.2 57.3 C 213.2 57.3 213.32 56.62 213.3 56.6 C 214.2 56.4 215.9 56.2 217.1 56.2 Z M 224.1 52.7 C 224.1 52.7 223.3 57.5 223.3 57.5 C 223.8 56.6 224.5 56.1 225.6 56.1 C 226.9 56.1 227.6 57.2 227.6 58.8 C 227.6 61.6 226.3 64 223.8 64 C 223.1 64 222.5 63.8 222.2 63.4 C 221.8 63.7 221.3 63.9 220.8 64 C 220.84 64.04 220.1 63.8 220.1 63.8 L 221.6 54.1 L 220.5 53.9 C 220.5 53.9 220.59 53.1 220.6 53.1 C 221.3 52.9 222.9 52.7 224.1 52.7 Z M 223.1 58.6 C 223.1 58.6 222.5 62.6 222.5 62.6 C 222.7 62.7 222.9 62.8 223.2 62.8 C 224.5 62.8 225.3 60.9 225.3 58.8 C 225.3 57.9 225 57.5 224.5 57.5 C 223.9 57.5 223.5 57.9 223.1 58.6 Z M 232.7 56.1 C 234.2 56.1 235.1 56.8 235.1 57.9 C 235.1 59.4 233.9 60.3 231.5 60.3 C 231.5 60.3 230.9 60.3 230.9 60.3 C 230.9 60.5 230.9 60.8 230.9 61 C 230.9 62.1 231.3 62.5 232 62.5 C 232.7 62.5 233.2 62.1 233.8 61.2 C 233.8 61.2 234.5 61.6 234.5 61.6 C 233.9 63.2 232.7 64.1 231.2 64.1 C 229.5 64.1 228.6 63 228.6 61.2 C 228.6 58.5 230 56.1 232.7 56.1 Z M 231 59.5 C 231 59.5 231.3 59.5 231.3 59.5 C 232.5 59.5 233.1 58.8 233.1 58 C 233.1 57.5 232.8 57.3 232.4 57.3 C 231.7 57.3 231.2 58.2 231 59.5 Z M 239.7 56.1 C 240.7 56.1 241.5 56.3 241.9 56.6 C 241.9 57.4 241.6 58.4 241.3 59 C 241.32 58.97 240.2 59 240.2 59 C 240.2 59 240.07 57.29 240.1 57.3 C 240 57.3 239.9 57.3 239.9 57.3 C 238.6 57.3 237.8 59.2 237.8 61 C 237.8 62 238.3 62.5 238.9 62.5 C 239.7 62.5 240.2 62.1 240.7 61.2 C 240.7 61.2 241.5 61.6 241.5 61.6 C 240.8 63.2 239.7 64.1 238.1 64.1 C 236.4 64.1 235.5 63 235.5 61.2 C 235.5 58.5 237 56.1 239.7 56.1 Z M 246.1 56.1 C 246.8 56.1 247.3 56.3 247.6 56.8 C 248 56.5 248.5 56.2 249 56.1 C 249.02 56.07 249.8 56.3 249.8 56.3 C 249.8 56.3 248.95 61.5 249 61.5 C 248.9 61.8 248.9 62.1 248.9 62.3 C 248.9 62.6 249 62.7 249.5 62.7 C 249.45 62.71 250 62.7 250 62.7 C 250 62.7 249.82 63.59 249.8 63.6 C 249.4 63.8 248.7 64 247.9 64 C 247 64 246.6 63.6 246.6 62.8 C 246.6 62.8 246.6 62.7 246.6 62.6 C 246.1 63.5 245.4 64 244.3 64 C 243 64 242.3 63 242.3 61.3 C 242.3 58.5 243.8 56.1 246.1 56.1 Z M 246.7 61.6 C 246.7 61.6 247.4 57.5 247.4 57.5 C 247.2 57.4 247 57.3 246.7 57.3 C 245.4 57.3 244.6 59.2 244.6 61.3 C 244.6 62.2 244.9 62.6 245.4 62.6 C 246 62.6 246.4 62.2 246.7 61.6 Z M 258.5 56.1 C 258.5 56.1 257.6 61.5 257.6 61.5 C 257.6 61.8 257.5 62.1 257.5 62.3 C 257.5 62.6 257.7 62.7 258.1 62.7 C 258.14 62.71 258.7 62.7 258.7 62.7 C 258.7 62.7 258.51 63.59 258.5 63.6 C 258.1 63.8 257.4 64 256.6 64 C 255.7 64 255.3 63.6 255.3 62.8 C 255.3 62.7 255.3 62.4 255.4 62.3 C 255.4 62.3 255.4 62.2 255.4 62.2 C 254.7 63.4 253.7 64 252.6 64 C 251.5 64 251 63.4 251 62.5 C 251 62.3 251.1 62 251.1 61.8 C 251.1 61.75 251.8 57.5 251.8 57.5 L 250.8 57.3 C 250.8 57.3 250.92 56.52 250.9 56.5 C 251.6 56.3 253 56.1 254.2 56.1 C 254.2 56.1 253.4 61.1 253.4 61.1 C 253.4 61.3 253.3 61.6 253.3 61.8 C 253.3 62.2 253.5 62.4 253.9 62.4 C 254.4 62.4 255 62.1 255.5 61.3 C 255.47 61.3 256.1 57.5 256.1 57.5 L 255.1 57.3 C 255.1 57.3 255.24 56.52 255.2 56.5 C 255.9 56.3 257.3 56.1 258.5 56.1 Z M 259.9 61.5 C 259.87 61.48 261 61.5 261 61.5 C 261 61.5 261.07 63.02 261.1 63 C 261.3 63 261.5 63.1 261.7 63.1 C 262.6 63.1 263.1 62.6 263.1 62 C 263.1 61.4 262.5 61.1 261.8 60.7 C 261.8 60.7 261.3 60.4 261.3 60.4 C 260.6 60.1 260.1 59.5 260.1 58.6 C 260.1 57 261.4 56.1 263.2 56.1 C 264.2 56.1 265.2 56.3 265.7 56.5 C 265.7 57.3 265.6 58 265.3 58.6 C 265.26 58.63 264.1 58.6 264.1 58.6 C 264.1 58.6 264.09 57.14 264.1 57.1 C 263.9 57.1 263.6 57.1 263.4 57.1 C 262.7 57.1 262.2 57.4 262.2 58.1 C 262.2 58.6 262.7 58.9 263.2 59.2 C 263.2 59.2 263.8 59.5 263.8 59.5 C 264.6 60 265.3 60.5 265.3 61.5 C 265.3 63.1 264 64 261.9 64 C 261.1 64 259.9 63.9 259.3 63.6 C 259.4 62.8 259.6 62.1 259.9 61.5 Z M 270.4 56.1 C 272 56.1 272.8 56.8 272.8 57.9 C 272.8 59.4 271.7 60.3 269.2 60.3 C 269.2 60.3 268.6 60.3 268.6 60.3 C 268.6 60.5 268.6 60.8 268.6 61 C 268.6 62.1 269.1 62.5 269.7 62.5 C 270.4 62.5 271 62.1 271.5 61.2 C 271.5 61.2 272.3 61.6 272.3 61.6 C 271.6 63.2 270.5 64.1 269 64.1 C 267.2 64.1 266.3 63 266.3 61.2 C 266.3 58.5 267.8 56.1 270.4 56.1 Z M 268.7 59.5 C 268.7 59.5 269 59.5 269 59.5 C 270.3 59.5 270.8 58.8 270.8 58 C 270.8 57.5 270.6 57.3 270.2 57.3 C 269.4 57.3 268.9 58.2 268.7 59.5 Z M 278.2 52.9 C 278.5 52.9 278.9 52.8 279.3 52.8 C 279.7 52.8 280.2 52.9 280.4 52.9 C 280.4 53.5 280.2 54.4 279.9 54.9 C 279.6 55 279.3 55.1 278.9 55.1 C 278.5 55.1 278.2 55 277.9 54.9 C 277.9 54.2 278 53.5 278.2 52.9 Z M 279.9 56.1 C 279.9 56.1 279 61.4 279 61.4 C 279 61.8 279 62.1 279 62.2 C 279 62.6 279.1 62.7 279.5 62.7 C 279.53 62.71 280 62.7 280 62.7 C 280 62.7 279.9 63.59 279.9 63.6 C 279.5 63.8 278.7 64 278 64 C 277.1 64 276.7 63.6 276.7 62.8 C 276.7 62.6 276.7 62.2 276.8 61.9 C 276.76 61.94 277.4 57.5 277.4 57.5 L 276.5 57.3 C 276.5 57.3 276.57 56.52 276.6 56.5 C 277.3 56.3 278.7 56.1 279.9 56.1 Z M 282.1 56.2 C 282.1 56.2 282.5 55 282.5 55 C 282.9 54.8 283.8 54.7 284.5 54.7 C 284.47 54.73 284.2 56.2 284.2 56.2 L 286 56.2 L 285.8 57.4 L 284.1 57.4 C 284.1 57.4 283.55 60.76 283.5 60.8 C 283.5 61.2 283.4 61.6 283.4 61.9 C 283.4 62.3 283.6 62.5 283.9 62.5 C 284.3 62.5 284.7 61.9 285.1 61.3 C 285.1 61.3 285.7 61.6 285.7 61.6 C 285.3 63 284.4 64 282.9 64 C 281.7 64 281.2 63.4 281.2 62.3 C 281.2 61.9 281.3 61.4 281.3 60.8 C 281.34 60.82 281.9 57.4 281.9 57.4 L 280.8 57.4 C 280.8 57.4 280.94 56.55 280.9 56.6 C 281.2 56.4 281.6 56.2 282.1 56.2 Z M 291 52.9 C 291.3 52.9 291.7 52.8 292.1 52.8 C 292.5 52.8 293 52.9 293.2 52.9 C 293.2 53.5 293 54.4 292.7 54.9 C 292.4 55 292.1 55.1 291.7 55.1 C 291.3 55.1 291 55 290.7 54.9 C 290.7 54.2 290.8 53.5 291 52.9 Z M 292.7 56.1 C 292.7 56.1 291.8 61.4 291.8 61.4 C 291.8 61.8 291.8 62.1 291.8 62.2 C 291.8 62.6 291.9 62.7 292.3 62.7 C 292.33 62.71 292.8 62.7 292.8 62.7 C 292.8 62.7 292.7 63.59 292.7 63.6 C 292.3 63.8 291.5 64 290.8 64 C 289.9 64 289.5 63.6 289.5 62.8 C 289.5 62.6 289.5 62.2 289.6 61.9 C 289.56 61.94 290.2 57.5 290.2 57.5 L 289.3 57.3 C 289.3 57.3 289.37 56.52 289.4 56.5 C 290.1 56.3 291.5 56.1 292.7 56.1 Z M 294 61.5 C 294.04 61.48 295.1 61.5 295.1 61.5 C 295.1 61.5 295.24 63.02 295.2 63 C 295.4 63 295.7 63.1 295.9 63.1 C 296.8 63.1 297.3 62.6 297.3 62 C 297.3 61.4 296.7 61.1 296 60.7 C 296 60.7 295.4 60.4 295.4 60.4 C 294.8 60.1 294.3 59.5 294.3 58.6 C 294.3 57 295.5 56.1 297.4 56.1 C 298.4 56.1 299.4 56.3 299.9 56.5 C 299.9 57.3 299.8 58 299.4 58.6 C 299.43 58.63 298.3 58.6 298.3 58.6 C 298.3 58.6 298.27 57.14 298.3 57.1 C 298.1 57.1 297.8 57.1 297.6 57.1 C 296.9 57.1 296.3 57.4 296.3 58.1 C 296.3 58.6 296.9 58.9 297.4 59.2 C 297.4 59.2 298 59.5 298 59.5 C 298.7 60 299.5 60.5 299.5 61.5 C 299.5 63.1 298.2 64 296.1 64 C 295.2 64 294.1 63.9 293.5 63.6 C 293.5 62.8 293.7 62.1 294 61.5 Z M 304.1 56.1 C 304.1 56.1 303.8 57.8 303.8 57.8 C 304.5 56.7 305.3 56.1 306.4 56.1 C 307.5 56.1 308.1 56.7 308.1 57.6 C 308.1 57.9 308.1 58.2 308 58.5 C 308 58.5 307.5 61.5 307.5 61.5 C 307.4 61.9 307.4 62.1 307.4 62.3 C 307.4 62.6 307.5 62.7 308 62.7 C 307.96 62.71 308.5 62.7 308.5 62.7 C 308.5 62.7 308.33 63.59 308.3 63.6 C 307.9 63.8 307.2 64 306.4 64 C 305.5 64 305.1 63.6 305.1 62.9 C 305.1 62.6 305.1 62.2 305.2 61.9 C 305.2 61.9 305.7 59 305.7 59 C 305.8 58.7 305.8 58.5 305.8 58.3 C 305.8 57.9 305.6 57.7 305.2 57.7 C 304.7 57.7 304.2 58 303.6 58.8 C 303.64 58.78 302.8 63.9 302.8 63.9 L 300.6 63.9 L 301.6 57.5 L 300.6 57.3 C 300.6 57.3 300.74 56.52 300.7 56.5 C 301.5 56.3 302.9 56.1 304.1 56.1 Z M 311.2 53.4 C 312.1 53.4 312.5 54 312.5 55 C 312.5 56.5 311.4 58.1 309.6 58.6 C 309.6 58.6 309.1 57.8 309.1 57.8 C 310 57.5 310.7 56.8 310.9 56 C 310.2 56 309.8 55.5 309.8 54.8 C 309.8 54 310.4 53.4 311.2 53.4 Z M 314.3 56.2 C 314.3 56.2 314.7 55 314.7 55 C 315.1 54.8 316 54.7 316.6 54.7 C 316.65 54.73 316.4 56.2 316.4 56.2 L 318.1 56.2 L 318 57.4 L 316.2 57.4 C 316.2 57.4 315.72 60.76 315.7 60.8 C 315.7 61.2 315.6 61.6 315.6 61.9 C 315.6 62.3 315.7 62.5 316 62.5 C 316.5 62.5 316.9 61.9 317.3 61.3 C 317.3 61.3 317.9 61.6 317.9 61.6 C 317.4 63 316.6 64 315.1 64 C 313.9 64 313.4 63.4 313.4 62.3 C 313.4 61.9 313.4 61.4 313.5 60.8 C 313.51 60.82 314 57.4 314 57.4 L 313 57.4 C 313 57.4 313.11 56.55 313.1 56.6 C 313.3 56.4 313.8 56.2 314.3 56.2 Z " stroke="none" fill="#404040"/>    <path d="M 4.6 76.1 C 6.2 76.1 7 76.8 7 77.9 C 7 79.4 5.9 80.3 3.5 80.3 C 3.5 80.3 2.8 80.3 2.8 80.3 C 2.8 80.5 2.8 80.8 2.8 81 C 2.8 82.1 3.3 82.5 3.9 82.5 C 4.7 82.5 5.2 82.1 5.7 81.2 C 5.7 81.2 6.5 81.6 6.5 81.6 C 5.9 83.2 4.7 84.1 3.2 84.1 C 1.4 84.1 0.5 83 0.5 81.2 C 0.5 78.5 2 76.1 4.6 76.1 Z M 2.9 79.5 C 2.9 79.5 3.2 79.5 3.2 79.5 C 4.5 79.5 5 78.8 5 78 C 5 77.5 4.8 77.3 4.4 77.3 C 3.6 77.3 3.1 78.2 2.9 79.5 Z M 11.3 76.1 C 12 76.1 12.5 76.3 12.8 76.8 C 13.2 76.5 13.8 76.2 14.2 76.1 C 14.24 76.07 15 76.3 15 76.3 C 15 76.3 14.18 81.5 14.2 81.5 C 14.1 81.8 14.1 82.1 14.1 82.3 C 14.1 82.6 14.2 82.7 14.7 82.7 C 14.67 82.71 15.2 82.7 15.2 82.7 C 15.2 82.7 15.04 83.59 15 83.6 C 14.6 83.8 13.9 84 13.1 84 C 12.2 84 11.8 83.6 11.8 82.8 C 11.8 82.8 11.8 82.7 11.9 82.6 C 11.3 83.5 10.6 84 9.6 84 C 8.2 84 7.5 83 7.5 81.3 C 7.5 78.5 9 76.1 11.3 76.1 Z M 12 81.6 C 12 81.6 12.6 77.5 12.6 77.5 C 12.4 77.4 12.2 77.3 11.9 77.3 C 10.6 77.3 9.8 79.2 9.8 81.3 C 9.8 82.2 10.1 82.6 10.7 82.6 C 11.2 82.6 11.6 82.2 12 81.6 Z M 16.3 81.5 C 16.32 81.48 17.4 81.5 17.4 81.5 C 17.4 81.5 17.52 83.02 17.5 83 C 17.7 83 18 83.1 18.2 83.1 C 19 83.1 19.6 82.6 19.6 82 C 19.6 81.4 19 81.1 18.3 80.7 C 18.3 80.7 17.7 80.4 17.7 80.4 C 17.1 80.1 16.6 79.5 16.6 78.6 C 16.6 77 17.8 76.1 19.7 76.1 C 20.7 76.1 21.7 76.3 22.2 76.5 C 22.2 77.3 22.1 78 21.7 78.6 C 21.71 78.63 20.6 78.6 20.6 78.6 C 20.6 78.6 20.54 77.14 20.5 77.1 C 20.3 77.1 20.1 77.1 19.9 77.1 C 19.1 77.1 18.6 77.4 18.6 78.1 C 18.6 78.6 19.2 78.9 19.7 79.2 C 19.7 79.2 20.3 79.5 20.3 79.5 C 21 80 21.7 80.5 21.7 81.5 C 21.7 83.1 20.5 84 18.4 84 C 17.5 84 16.4 83.9 15.8 83.6 C 15.8 82.8 16 82.1 16.3 81.5 Z M 24.8 84.3 C 24.82 84.3 24.9 84.2 24.9 84.2 L 23.7 77.5 L 22.8 77.3 C 22.8 77.3 22.88 76.52 22.9 76.5 C 23.5 76.3 24.7 76.1 25.7 76.1 C 25.7 76.1 26.7 81.8 26.7 81.8 C 27.7 80.4 28.2 79 28.3 77.5 C 28.26 77.54 27.3 77.3 27.3 77.3 C 27.3 77.3 27.41 76.52 27.4 76.5 C 27.9 76.3 28.7 76.1 29.2 76.1 C 30 76.1 30.2 76.5 30.2 77.1 C 30.2 78.5 29 80.3 27.4 82.5 C 27.4 82.5 25.9 84.6 25.9 84.6 C 25 85.8 24.1 87 22.9 87 C 22.2 87 21.8 86.7 21.4 86.1 C 21.4 86.1 21.6 85.4 21.6 85.4 C 22 85.6 22.5 85.7 22.9 85.7 C 23.9 85.7 24.3 85 24.8 84.3 Z M 35 76.2 C 35 76.2 35.3 75 35.3 75 C 35.7 74.8 36.6 74.7 37.3 74.7 C 37.29 74.73 37.1 76.2 37.1 76.2 L 38.8 76.2 L 38.6 77.4 L 36.9 77.4 C 36.9 77.4 36.37 80.76 36.4 80.8 C 36.3 81.2 36.3 81.6 36.3 81.9 C 36.3 82.3 36.4 82.5 36.7 82.5 C 37.2 82.5 37.6 81.9 37.9 81.3 C 37.9 81.3 38.6 81.6 38.6 81.6 C 38.1 83 37.2 84 35.7 84 C 34.6 84 34 83.4 34 82.3 C 34 81.9 34.1 81.4 34.2 80.8 C 34.16 80.82 34.7 77.4 34.7 77.4 L 33.6 77.4 C 33.6 77.4 33.76 76.55 33.8 76.6 C 34 76.4 34.4 76.2 35 76.2 Z M 43.5 76.1 C 45.7 76.1 46.7 77.3 46.7 79 C 46.7 81.6 45.2 84.1 42.4 84.1 C 40.1 84.1 39.2 82.9 39.2 81.1 C 39.2 78.5 40.6 76.1 43.5 76.1 Z M 42.4 83 C 43.7 83 44.4 80.6 44.4 78.7 C 44.4 77.9 44.1 77.2 43.4 77.2 C 42.2 77.2 41.5 79.5 41.5 81.4 C 41.5 82.3 41.8 83 42.4 83 Z M 51.3 83.6 C 50.9 83.4 50.7 83 50.7 82.5 C 50.7 81.9 51.2 81.2 52.1 80.8 C 51.2 80.5 50.7 79.8 50.7 78.9 C 50.7 77.2 52 76.1 54.3 76.1 C 55.1 76.1 55.7 76.2 56.2 76.5 C 56.6 76.1 57.5 75.9 58.2 75.9 C 58.2 76.3 58.2 76.8 57.9 77.4 C 57.9 77.4 57 77.4 57 77.4 C 57.1 77.6 57.2 78 57.2 78.3 C 57.2 80 55.9 81.1 53.7 81.1 C 53.4 81.1 53.1 81.1 52.9 81 C 52.7 81.2 52.5 81.4 52.5 81.6 C 52.5 81.9 52.6 82 53 82.1 C 53 82.1 54.8 82.2 54.8 82.2 C 56.4 82.3 57.1 82.8 57.1 83.9 C 57.1 85.5 55.4 87 52.5 87 C 50.5 87 49.6 86.4 49.6 85.4 C 49.6 84.4 50.2 83.9 51.3 83.6 Z M 55.1 78.1 C 55.1 77.4 54.8 76.9 54.1 76.9 C 53.2 76.9 52.8 77.9 52.8 79 C 52.8 79.8 53.2 80.2 53.8 80.2 C 54.7 80.2 55.1 79.3 55.1 78.1 Z M 51.3 85 C 51.3 85.7 52 86 53 86 C 54.3 86 55.2 85.6 55.2 84.7 C 55.2 84.2 54.9 84 54.1 84 C 54.1 84 52.1 83.8 52.1 83.8 C 51.6 84.1 51.3 84.5 51.3 85 Z M 62.1 76.1 C 63.6 76.1 64.5 76.8 64.5 77.9 C 64.5 79.4 63.3 80.3 60.9 80.3 C 60.9 80.3 60.3 80.3 60.3 80.3 C 60.3 80.5 60.3 80.8 60.3 81 C 60.3 82.1 60.7 82.5 61.4 82.5 C 62.1 82.5 62.6 82.1 63.2 81.2 C 63.2 81.2 63.9 81.6 63.9 81.6 C 63.3 83.2 62.1 84.1 60.6 84.1 C 58.9 84.1 58 83 58 81.2 C 58 78.5 59.4 76.1 62.1 76.1 Z M 60.4 79.5 C 60.4 79.5 60.7 79.5 60.7 79.5 C 61.9 79.5 62.5 78.8 62.5 78 C 62.5 77.5 62.3 77.3 61.8 77.3 C 61.1 77.3 60.6 78.2 60.4 79.5 Z M 66.4 76.2 C 66.4 76.2 66.8 75 66.8 75 C 67.2 74.8 68.1 74.7 68.8 74.7 C 68.77 74.73 68.5 76.2 68.5 76.2 L 70.3 76.2 L 70.1 77.4 L 68.4 77.4 C 68.4 77.4 67.84 80.76 67.8 80.8 C 67.8 81.2 67.7 81.6 67.7 81.9 C 67.7 82.3 67.9 82.5 68.2 82.5 C 68.6 82.5 69 81.9 69.4 81.3 C 69.4 81.3 70 81.6 70 81.6 C 69.6 83 68.7 84 67.2 84 C 66 84 65.5 83.4 65.5 82.3 C 65.5 81.9 65.6 81.4 65.6 80.8 C 65.63 80.82 66.2 77.4 66.2 77.4 L 65.1 77.4 C 65.1 77.4 65.23 76.55 65.2 76.6 C 65.5 76.4 65.9 76.2 66.4 76.2 Z M 74.9 76.2 C 74.9 76.2 75.2 75 75.2 75 C 75.6 74.8 76.5 74.7 77.2 74.7 C 77.2 74.73 77 76.2 77 76.2 L 78.7 76.2 L 78.5 77.4 L 76.8 77.4 C 76.8 77.4 76.27 80.76 76.3 80.8 C 76.2 81.2 76.2 81.6 76.2 81.9 C 76.2 82.3 76.3 82.5 76.6 82.5 C 77.1 82.5 77.5 81.9 77.8 81.3 C 77.8 81.3 78.5 81.6 78.5 81.6 C 78 83 77.1 84 75.6 84 C 74.5 84 73.9 83.4 73.9 82.3 C 73.9 81.9 74 81.4 74.1 80.8 C 74.06 80.82 74.6 77.4 74.6 77.4 L 73.5 77.4 C 73.5 77.4 73.66 76.55 73.7 76.6 C 73.9 76.4 74.3 76.2 74.9 76.2 Z M 83.4 76.1 C 85.6 76.1 86.6 77.3 86.6 79 C 86.6 81.6 85.1 84.1 82.3 84.1 C 80 84.1 79.1 82.9 79.1 81.1 C 79.1 78.5 80.5 76.1 83.4 76.1 Z M 82.3 83 C 83.6 83 84.3 80.6 84.3 78.7 C 84.3 77.9 84 77.2 83.3 77.2 C 82.1 77.2 81.4 79.5 81.4 81.4 C 81.4 82.3 81.7 83 82.3 83 Z M 101.8 78.9 L 101.6 80.4 L 89.5 80.4 L 89.7 78.9 L 101.8 78.9 Z M 106.3 84.3 C 106.33 84.3 106.4 84.2 106.4 84.2 L 105.2 77.5 L 104.3 77.3 C 104.3 77.3 104.4 76.52 104.4 76.5 C 105.1 76.3 106.2 76.1 107.2 76.1 C 107.2 76.1 108.2 81.8 108.2 81.8 C 109.2 80.4 109.7 79 109.8 77.5 C 109.77 77.54 108.8 77.3 108.8 77.3 C 108.8 77.3 108.93 76.52 108.9 76.5 C 109.4 76.3 110.2 76.1 110.7 76.1 C 111.5 76.1 111.7 76.5 111.7 77.1 C 111.7 78.5 110.6 80.3 109 82.5 C 109 82.5 107.4 84.6 107.4 84.6 C 106.5 85.8 105.6 87 104.4 87 C 103.7 87 103.3 86.7 102.9 86.1 C 102.9 86.1 103.1 85.4 103.1 85.4 C 103.5 85.6 104 85.7 104.4 85.7 C 105.4 85.7 105.9 85 106.3 84.3 Z M 116.2 76.1 C 118.4 76.1 119.4 77.3 119.4 79 C 119.4 81.6 118 84.1 115.1 84.1 C 112.9 84.1 111.9 82.9 111.9 81.1 C 111.9 78.5 113.3 76.1 116.2 76.1 Z M 115.2 83 C 116.4 83 117.1 80.6 117.1 78.7 C 117.1 77.9 116.8 77.2 116.1 77.2 C 114.9 77.2 114.2 79.5 114.2 81.4 C 114.2 82.3 114.5 83 115.2 83 Z M 127.9 76.1 C 127.9 76.1 127.1 81.5 127.1 81.5 C 127.1 81.8 127 82.1 127 82.3 C 127 82.6 127.1 82.7 127.6 82.7 C 127.58 82.71 128.1 82.7 128.1 82.7 C 128.1 82.7 127.95 83.59 127.9 83.6 C 127.5 83.8 126.8 84 126 84 C 125.1 84 124.7 83.6 124.7 82.8 C 124.7 82.7 124.8 82.4 124.8 82.3 C 124.8 82.3 124.8 82.2 124.8 82.2 C 124.2 83.4 123.1 84 122.1 84 C 121 84 120.5 83.4 120.5 82.5 C 120.5 82.3 120.5 82 120.5 81.8 C 120.54 81.75 121.2 77.5 121.2 77.5 L 120.3 77.3 C 120.3 77.3 120.37 76.52 120.4 76.5 C 121.1 76.3 122.5 76.1 123.7 76.1 C 123.7 76.1 122.8 81.1 122.8 81.1 C 122.8 81.3 122.8 81.6 122.8 81.8 C 122.8 82.2 122.9 82.4 123.4 82.4 C 123.9 82.4 124.4 82.1 124.9 81.3 C 124.91 81.3 125.5 77.5 125.5 77.5 L 124.6 77.3 C 124.6 77.3 124.69 76.52 124.7 76.5 C 125.4 76.3 126.7 76.1 127.9 76.1 Z M 136.1 76.1 C 137 76.1 137.8 76.3 138.2 76.6 C 138.2 77.4 137.9 78.4 137.6 79 C 137.65 78.97 136.5 79 136.5 79 C 136.5 79 136.4 77.29 136.4 77.3 C 136.3 77.3 136.3 77.3 136.2 77.3 C 134.9 77.3 134.1 79.2 134.1 81 C 134.1 82 134.6 82.5 135.2 82.5 C 136 82.5 136.5 82.1 137 81.2 C 137 81.2 137.8 81.6 137.8 81.6 C 137.1 83.2 136 84.1 134.4 84.1 C 132.7 84.1 131.8 83 131.8 81.2 C 131.8 78.5 133.3 76.1 136.1 76.1 Z M 142.4 76.1 C 143.1 76.1 143.6 76.3 143.9 76.8 C 144.3 76.5 144.9 76.2 145.3 76.1 C 145.34 76.07 146.1 76.3 146.1 76.3 C 146.1 76.3 145.28 81.5 145.3 81.5 C 145.2 81.8 145.2 82.1 145.2 82.3 C 145.2 82.6 145.3 82.7 145.8 82.7 C 145.77 82.71 146.3 82.7 146.3 82.7 C 146.3 82.7 146.14 83.59 146.1 83.6 C 145.7 83.8 145 84 144.2 84 C 143.3 84 142.9 83.6 142.9 82.8 C 142.9 82.8 142.9 82.7 143 82.6 C 142.4 83.5 141.7 84 140.7 84 C 139.3 84 138.6 83 138.6 81.3 C 138.6 78.5 140.1 76.1 142.4 76.1 Z M 143.1 81.6 C 143.1 81.6 143.7 77.5 143.7 77.5 C 143.5 77.4 143.3 77.3 143 77.3 C 141.7 77.3 140.9 79.2 140.9 81.3 C 140.9 82.2 141.2 82.6 141.8 82.6 C 142.3 82.6 142.7 82.2 143.1 81.6 Z M 150.6 76.1 C 150.6 76.1 150.3 77.8 150.3 77.8 C 151 76.7 151.9 76.1 153 76.1 C 154.1 76.1 154.7 76.7 154.7 77.6 C 154.7 77.9 154.6 78.2 154.6 78.5 C 154.6 78.5 154 81.5 154 81.5 C 153.9 81.9 153.9 82.1 153.9 82.3 C 153.9 82.6 154 82.7 154.5 82.7 C 154.49 82.71 155 82.7 155 82.7 C 155 82.7 154.86 83.59 154.9 83.6 C 154.5 83.8 153.7 84 152.9 84 C 152 84 151.6 83.6 151.6 82.9 C 151.6 82.6 151.7 82.2 151.7 81.9 C 151.7 81.9 152.3 79 152.3 79 C 152.3 78.7 152.3 78.5 152.3 78.3 C 152.3 77.9 152.2 77.7 151.7 77.7 C 151.2 77.7 150.7 78 150.2 78.8 C 150.17 78.78 149.4 83.9 149.4 83.9 L 147.1 83.9 L 148.2 77.5 L 147.2 77.3 C 147.2 77.3 147.28 76.52 147.3 76.5 C 148 76.3 149.4 76.1 150.6 76.1 Z M 157.7 73.4 C 158.6 73.4 159 74 159 75 C 159 76.5 157.9 78.1 156.1 78.6 C 156.1 78.6 155.7 77.8 155.7 77.8 C 156.5 77.5 157.2 76.8 157.4 76 C 156.8 76 156.3 75.5 156.3 74.8 C 156.3 74 156.9 73.4 157.7 73.4 Z M 160.8 76.2 C 160.8 76.2 161.2 75 161.2 75 C 161.6 74.8 162.5 74.7 163.2 74.7 C 163.18 74.73 162.9 76.2 162.9 76.2 L 164.7 76.2 L 164.5 77.4 L 162.8 77.4 C 162.8 77.4 162.25 80.76 162.3 80.8 C 162.2 81.2 162.1 81.6 162.1 81.9 C 162.1 82.3 162.3 82.5 162.6 82.5 C 163 82.5 163.4 81.9 163.8 81.3 C 163.8 81.3 164.4 81.6 164.4 81.6 C 164 83 163.1 84 161.6 84 C 160.4 84 159.9 83.4 159.9 82.3 C 159.9 81.9 160 81.4 160 80.8 C 160.05 80.82 160.6 77.4 160.6 77.4 L 159.5 77.4 C 159.5 77.4 159.65 76.55 159.6 76.6 C 159.9 76.4 160.3 76.2 160.8 76.2 Z M 175.9 72.7 C 175.9 72.7 174.6 81.4 174.6 81.4 C 174.5 81.8 174.5 82.1 174.5 82.3 C 174.5 82.6 174.6 82.7 175 82.7 C 175.04 82.71 175.5 82.7 175.5 82.7 C 175.5 82.7 175.4 83.59 175.4 83.6 C 175 83.8 174.3 84 173.5 84 C 172.6 84 172.2 83.6 172.2 82.8 C 172.2 82.8 172.2 82.7 172.2 82.6 C 171.7 83.5 171 84 169.9 84 C 168.6 84 167.9 83 167.9 81.3 C 167.9 78.5 169.4 76.1 171.7 76.1 C 172.3 76.1 172.8 76.3 173.1 76.7 C 173.12 76.66 173.5 74.1 173.5 74.1 L 172.3 73.9 C 172.3 73.9 172.43 73.1 172.4 73.1 C 173.1 72.9 174.7 72.7 175.9 72.7 Z M 172.3 81.5 C 172.3 81.5 173 77.5 173 77.5 C 172.8 77.4 172.5 77.3 172.3 77.3 C 171 77.3 170.2 79.2 170.2 81.3 C 170.2 82.2 170.5 82.6 171 82.6 C 171.5 82.6 172 82.2 172.3 81.5 Z M 179.9 76.1 C 179.9 76.1 179.6 78 179.6 78 C 180.1 76.8 181 76.1 181.8 76.1 C 182.3 76.1 182.6 76.2 182.8 76.3 C 182.8 77.2 182.5 78.4 182.2 79 C 182.22 79 181 79 181 79 C 181 79 180.91 77.64 180.9 77.6 C 180.4 77.7 179.9 78.3 179.4 79.1 C 179.37 79.14 178.6 83.9 178.6 83.9 L 176.4 83.9 L 177.4 77.5 L 176.4 77.3 C 176.4 77.3 176.54 76.52 176.5 76.5 C 177.3 76.3 178.7 76.1 179.9 76.1 Z M 185 72.9 C 185.3 72.9 185.7 72.8 186.1 72.8 C 186.5 72.8 187 72.9 187.2 72.9 C 187.2 73.5 187 74.4 186.7 74.9 C 186.4 75 186.1 75.1 185.7 75.1 C 185.3 75.1 185 75 184.7 74.9 C 184.7 74.2 184.8 73.5 185 72.9 Z M 186.7 76.1 C 186.7 76.1 185.8 81.4 185.8 81.4 C 185.8 81.8 185.7 82.1 185.7 82.2 C 185.7 82.6 185.9 82.7 186.3 82.7 C 186.32 82.71 186.8 82.7 186.8 82.7 C 186.8 82.7 186.68 83.59 186.7 83.6 C 186.3 83.8 185.5 84 184.8 84 C 183.9 84 183.5 83.6 183.5 82.8 C 183.5 82.6 183.5 82.2 183.5 81.9 C 183.55 81.94 184.2 77.5 184.2 77.5 L 183.3 77.3 C 183.3 77.3 183.36 76.52 183.4 76.5 C 184.1 76.3 185.5 76.1 186.7 76.1 Z M 187.3 77.3 C 187.3 77.3 187.36 76.52 187.4 76.5 C 188 76.3 189.2 76.1 190.2 76.1 C 190.17 76.1 191.1 81.8 191.1 81.8 C 191.1 81.8 191.47 81.3 191.5 81.3 C 192.3 79.9 192.7 78.8 192.7 77.5 C 192.75 77.54 191.8 77.3 191.8 77.3 C 191.8 77.3 191.88 76.52 191.9 76.5 C 192.4 76.3 193.2 76.1 193.7 76.1 C 194.5 76.1 194.7 76.5 194.7 77.1 C 194.7 78.3 193.9 80.1 191.9 82.5 C 191.9 82.5 190.7 83.9 190.7 83.9 L 189.3 83.9 L 188.2 77.5 L 187.3 77.3 Z M 199 76.1 C 200.6 76.1 201.4 76.8 201.4 77.9 C 201.4 79.4 200.3 80.3 197.8 80.3 C 197.8 80.3 197.2 80.3 197.2 80.3 C 197.2 80.5 197.2 80.8 197.2 81 C 197.2 82.1 197.6 82.5 198.3 82.5 C 199 82.5 199.6 82.1 200.1 81.2 C 200.1 81.2 200.8 81.6 200.8 81.6 C 200.2 83.2 199.1 84.1 197.6 84.1 C 195.8 84.1 194.9 83 194.9 81.2 C 194.9 78.5 196.3 76.1 199 76.1 Z M 197.3 79.5 C 197.3 79.5 197.6 79.5 197.6 79.5 C 198.9 79.5 199.4 78.8 199.4 78 C 199.4 77.5 199.2 77.3 198.8 77.3 C 198 77.3 197.5 78.2 197.3 79.5 Z M 206.4 76.2 C 206.4 76.2 206.7 75 206.7 75 C 207.1 74.8 208 74.7 208.7 74.7 C 208.7 74.73 208.5 76.2 208.5 76.2 L 210.2 76.2 L 210 77.4 L 208.3 77.4 C 208.3 77.4 207.77 80.76 207.8 80.8 C 207.7 81.2 207.7 81.6 207.7 81.9 C 207.7 82.3 207.8 82.5 208.1 82.5 C 208.6 82.5 209 81.9 209.3 81.3 C 209.3 81.3 210 81.6 210 81.6 C 209.5 83 208.6 84 207.1 84 C 206 84 205.4 83.4 205.4 82.3 C 205.4 81.9 205.5 81.4 205.6 80.8 C 205.56 80.82 206.1 77.4 206.1 77.4 L 205 77.4 C 205 77.4 205.16 76.55 205.2 76.6 C 205.4 76.4 205.8 76.2 206.4 76.2 Z M 214.9 76.1 C 217.1 76.1 218.1 77.3 218.1 79 C 218.1 81.6 216.7 84.1 213.8 84.1 C 211.5 84.1 210.6 82.9 210.6 81.1 C 210.6 78.5 212 76.1 214.9 76.1 Z M 213.9 83 C 215.1 83 215.8 80.6 215.8 78.7 C 215.8 77.9 215.5 77.2 214.8 77.2 C 213.6 77.2 212.9 79.5 212.9 81.4 C 212.9 82.3 213.2 83 213.9 83 Z M 223.3 76.2 C 223.3 76.2 223.6 75 223.6 75 C 224.1 74.8 224.9 74.7 225.6 74.7 C 225.61 74.73 225.4 76.2 225.4 76.2 L 227.1 76.2 L 226.9 77.4 L 225.2 77.4 C 225.2 77.4 224.68 80.76 224.7 80.8 C 224.6 81.2 224.6 81.6 224.6 81.9 C 224.6 82.3 224.7 82.5 225 82.5 C 225.5 82.5 225.9 81.9 226.2 81.3 C 226.2 81.3 226.9 81.6 226.9 81.6 C 226.4 83 225.5 84 224.1 84 C 222.9 84 222.3 83.4 222.3 82.3 C 222.3 81.9 222.4 81.4 222.5 80.8 C 222.48 80.82 223 77.4 223 77.4 L 221.9 77.4 C 221.9 77.4 222.08 76.55 222.1 76.6 C 222.3 76.4 222.7 76.2 223.3 76.2 Z M 231.9 81.9 C 231.9 81.9 232.5 79 232.5 79 C 232.5 78.7 232.6 78.5 232.6 78.3 C 232.6 77.9 232.4 77.7 231.9 77.7 C 231.4 77.7 230.9 78 230.4 78.8 C 230.38 78.79 229.6 83.9 229.6 83.9 L 227.4 83.9 L 228.9 74.1 L 227.8 73.9 C 227.8 73.9 227.87 73.1 227.9 73.1 C 228.6 72.9 230.1 72.7 231.3 72.7 C 231.3 72.7 230.5 77.8 230.5 77.8 C 231.2 76.7 232.1 76.1 233.2 76.1 C 234.3 76.1 234.9 76.7 234.9 77.6 C 234.9 77.9 234.8 78.2 234.8 78.5 C 234.8 78.5 234.2 81.5 234.2 81.5 C 234.2 81.9 234.1 82.1 234.1 82.3 C 234.1 82.6 234.3 82.7 234.7 82.7 C 234.72 82.71 235.2 82.7 235.2 82.7 C 235.2 82.7 235.08 83.59 235.1 83.6 C 234.7 83.8 233.9 84 233.2 84 C 232.3 84 231.8 83.6 231.8 82.9 C 231.8 82.6 231.9 82.2 231.9 81.9 Z M 240.2 76.1 C 241.7 76.1 242.6 76.8 242.6 77.9 C 242.6 79.4 241.4 80.3 239 80.3 C 239 80.3 238.4 80.3 238.4 80.3 C 238.4 80.5 238.4 80.8 238.4 81 C 238.4 82.1 238.8 82.5 239.5 82.5 C 240.2 82.5 240.7 82.1 241.3 81.2 C 241.3 81.2 242 81.6 242 81.6 C 241.4 83.2 240.2 84.1 238.7 84.1 C 237 84.1 236.1 83 236.1 81.2 C 236.1 78.5 237.5 76.1 240.2 76.1 Z M 238.5 79.5 C 238.5 79.5 238.8 79.5 238.8 79.5 C 240 79.5 240.6 78.8 240.6 78 C 240.6 77.5 240.3 77.3 239.9 77.3 C 239.2 77.3 238.7 78.2 238.5 79.5 Z M 248 72.9 C 248.2 72.9 248.7 72.8 249.1 72.8 C 249.5 72.8 249.9 72.9 250.2 72.9 C 250.2 73.5 249.9 74.4 249.7 74.9 C 249.4 75 249.1 75.1 248.7 75.1 C 248.3 75.1 247.9 75 247.7 74.9 C 247.7 74.2 247.8 73.5 248 72.9 Z M 249.6 76.1 C 249.6 76.1 248.8 81.4 248.8 81.4 C 248.7 81.8 248.7 82.1 248.7 82.2 C 248.7 82.6 248.9 82.7 249.3 82.7 C 249.29 82.71 249.8 82.7 249.8 82.7 C 249.8 82.7 249.66 83.59 249.7 83.6 C 249.3 83.8 248.5 84 247.7 84 C 246.9 84 246.4 83.6 246.4 82.8 C 246.4 82.6 246.5 82.2 246.5 81.9 C 246.52 81.94 247.2 77.5 247.2 77.5 L 246.2 77.3 C 246.2 77.3 246.33 76.52 246.3 76.5 C 247 76.3 248.4 76.1 249.6 76.1 Z M 251 81.5 C 251 81.48 252.1 81.5 252.1 81.5 C 252.1 81.5 252.2 83.02 252.2 83 C 252.4 83 252.6 83.1 252.9 83.1 C 253.7 83.1 254.2 82.6 254.2 82 C 254.2 81.4 253.6 81.1 252.9 80.7 C 252.9 80.7 252.4 80.4 252.4 80.4 C 251.8 80.1 251.2 79.5 251.2 78.6 C 251.2 77 252.5 76.1 254.3 76.1 C 255.4 76.1 256.4 76.3 256.9 76.5 C 256.9 77.3 256.8 78 256.4 78.6 C 256.39 78.63 255.3 78.6 255.3 78.6 C 255.3 78.6 255.23 77.14 255.2 77.1 C 255 77.1 254.8 77.1 254.5 77.1 C 253.8 77.1 253.3 77.4 253.3 78.1 C 253.3 78.6 253.8 78.9 254.4 79.2 C 254.4 79.2 254.9 79.5 254.9 79.5 C 255.7 80 256.4 80.5 256.4 81.5 C 256.4 83.1 255.2 84 253.1 84 C 252.2 84 251.1 83.9 250.5 83.6 C 250.5 82.8 250.7 82.1 251 81.5 Z M 261.3 72.7 C 261.3 72.7 259.9 81.4 259.9 81.4 C 259.9 81.8 259.8 82.1 259.8 82.2 C 259.8 82.6 260 82.7 260.4 82.7 C 260.43 82.71 260.9 82.7 260.9 82.7 C 260.9 82.7 260.78 83.59 260.8 83.6 C 260.4 83.8 259.6 84 258.9 84 C 258 84 257.6 83.6 257.6 82.8 C 257.6 82.6 257.6 82.2 257.6 81.9 C 257.64 81.94 258.9 74.1 258.9 74.1 L 257.7 73.9 C 257.7 73.9 257.83 73.1 257.8 73.1 C 258.5 72.9 260.1 72.7 261.3 72.7 Z M 265.5 76.1 C 266.3 76.1 266.8 76.3 267.1 76.8 C 267.4 76.5 268 76.2 268.5 76.1 C 268.47 76.07 269.2 76.3 269.2 76.3 C 269.2 76.3 268.41 81.5 268.4 81.5 C 268.4 81.8 268.3 82.1 268.3 82.3 C 268.3 82.6 268.5 82.7 268.9 82.7 C 268.91 82.71 269.4 82.7 269.4 82.7 C 269.4 82.7 269.27 83.59 269.3 83.6 C 268.9 83.8 268.1 84 267.4 84 C 266.4 84 266.1 83.6 266.1 82.8 C 266.1 82.8 266.1 82.7 266.1 82.6 C 265.6 83.5 264.8 84 263.8 84 C 262.4 84 261.7 83 261.7 81.3 C 261.7 78.5 263.3 76.1 265.5 76.1 Z M 266.2 81.6 C 266.2 81.6 266.9 77.5 266.9 77.5 C 266.7 77.4 266.4 77.3 266.2 77.3 C 264.8 77.3 264 79.2 264 81.3 C 264 82.2 264.3 82.6 264.9 82.6 C 265.4 82.6 265.8 82.2 266.2 81.6 Z M 273.7 76.1 C 273.7 76.1 273.5 77.8 273.5 77.8 C 274.2 76.7 275 76.1 276.1 76.1 C 277.2 76.1 277.8 76.7 277.8 77.6 C 277.8 77.9 277.7 78.2 277.7 78.5 C 277.7 78.5 277.1 81.5 277.1 81.5 C 277.1 81.9 277 82.1 277 82.3 C 277 82.6 277.2 82.7 277.6 82.7 C 277.63 82.71 278.1 82.7 278.1 82.7 C 278.1 82.7 277.99 83.59 278 83.6 C 277.6 83.8 276.8 84 276.1 84 C 275.2 84 274.7 83.6 274.7 82.9 C 274.7 82.6 274.8 82.2 274.8 81.9 C 274.8 81.9 275.4 79 275.4 79 C 275.4 78.7 275.5 78.5 275.5 78.3 C 275.5 77.9 275.3 77.7 274.8 77.7 C 274.3 77.7 273.9 78 273.3 78.8 C 273.31 78.78 272.5 83.9 272.5 83.9 L 270.3 83.9 L 271.3 77.5 L 270.3 77.3 C 270.3 77.3 270.41 76.52 270.4 76.5 C 271.1 76.3 272.5 76.1 273.7 76.1 Z M 287.1 72.7 C 287.1 72.7 285.7 81.4 285.7 81.4 C 285.6 81.8 285.6 82.1 285.6 82.3 C 285.6 82.6 285.7 82.7 286.2 82.7 C 286.17 82.71 286.7 82.7 286.7 82.7 C 286.7 82.7 286.54 83.59 286.5 83.6 C 286.1 83.8 285.4 84 284.6 84 C 283.7 84 283.3 83.6 283.3 82.8 C 283.3 82.8 283.3 82.7 283.4 82.6 C 282.8 83.5 282.1 84 281 84 C 279.7 84 279 83 279 81.3 C 279 78.5 280.5 76.1 282.8 76.1 C 283.5 76.1 283.9 76.3 284.2 76.7 C 284.25 76.66 284.6 74.1 284.6 74.1 L 283.5 73.9 C 283.5 73.9 283.56 73.1 283.6 73.1 C 284.3 72.9 285.9 72.7 287.1 72.7 Z M 283.5 81.5 C 283.5 81.5 284.1 77.5 284.1 77.5 C 283.9 77.4 283.7 77.3 283.4 77.3 C 282.1 77.3 281.3 79.2 281.3 81.3 C 281.3 82.2 281.6 82.6 282.2 82.6 C 282.7 82.6 283.1 82.2 283.5 81.5 Z M 287.9 81.5 C 287.88 81.48 289 81.5 289 81.5 C 289 81.5 289.08 83.02 289.1 83 C 289.3 83 289.5 83.1 289.7 83.1 C 290.6 83.1 291.1 82.6 291.1 82 C 291.1 81.4 290.5 81.1 289.8 80.7 C 289.8 80.7 289.3 80.4 289.3 80.4 C 288.6 80.1 288.1 79.5 288.1 78.6 C 288.1 77 289.4 76.1 291.2 76.1 C 292.2 76.1 293.2 76.3 293.8 76.5 C 293.8 77.3 293.7 78 293.3 78.6 C 293.27 78.63 292.1 78.6 292.1 78.6 C 292.1 78.6 292.11 77.14 292.1 77.1 C 291.9 77.1 291.7 77.1 291.4 77.1 C 290.7 77.1 290.2 77.4 290.2 78.1 C 290.2 78.6 290.7 78.9 291.3 79.2 C 291.3 79.2 291.8 79.5 291.8 79.5 C 292.6 80 293.3 80.5 293.3 81.5 C 293.3 83.1 292.1 84 289.9 84 C 289.1 84 287.9 83.9 287.4 83.6 C 287.4 82.8 287.6 82.1 287.9 81.5 Z M 294.5 82.9 C 294.5 81.9 295 81.3 295.9 81.3 C 296.7 81.3 297.1 81.7 297.1 82.5 C 297.1 83.4 296.6 84.1 295.7 84.1 C 295 84.1 294.5 83.6 294.5 82.9 Z M 307.4 82.8 C 307.43 82.82 307.1 81 307.1 81 L 303.8 81 C 303.8 81 302.94 82.81 302.9 82.8 C 303.3 82.8 303.8 82.9 304 83 C 303.99 83.03 303.9 83.9 303.9 83.9 L 300.5 83.9 C 300.5 83.9 300.66 83.03 300.7 83 C 300.8 83 301.1 82.9 301.4 82.8 C 301.4 82.8 306.2 73.6 306.2 73.6 C 306.4 73.6 306.9 73.5 307.2 73.5 C 307.5 73.5 307.8 73.6 308.1 73.6 C 308.1 73.6 309.8 82.8 309.8 82.8 C 310.1 82.9 310.4 83 310.6 83 C 310.57 83.03 310.4 83.9 310.4 83.9 L 306.2 83.9 C 306.2 83.9 306.28 83.03 306.3 83 C 306.5 82.9 307 82.9 307.4 82.8 Z M 306.9 79.8 L 306.3 76 L 304.4 79.8 L 306.9 79.8 Z " stroke="none" fill="#404040"/>    <path d="M 0.8 101.5 C 0.8 101.48 1.9 101.5 1.9 101.5 C 1.9 101.5 2 103.02 2 103 C 2.2 103 2.4 103.1 2.7 103.1 C 3.5 103.1 4 102.6 4 102 C 4 101.4 3.4 101.1 2.7 100.7 C 2.7 100.7 2.2 100.4 2.2 100.4 C 1.6 100.1 1 99.5 1 98.6 C 1 97 2.3 96.1 4.1 96.1 C 5.2 96.1 6.2 96.3 6.7 96.5 C 6.7 97.3 6.6 98 6.2 98.6 C 6.19 98.63 5.1 98.6 5.1 98.6 C 5.1 98.6 5.02 97.14 5 97.1 C 4.8 97.1 4.6 97.1 4.3 97.1 C 3.6 97.1 3.1 97.4 3.1 98.1 C 3.1 98.6 3.6 98.9 4.2 99.2 C 4.2 99.2 4.7 99.5 4.7 99.5 C 5.5 100 6.2 100.5 6.2 101.5 C 6.2 103.1 5 104 2.8 104 C 2 104 0.9 103.9 0.3 103.6 C 0.3 102.8 0.5 102.1 0.8 101.5 Z M 11.7 101.9 C 11.7 101.9 12.3 99 12.3 99 C 12.3 98.7 12.4 98.5 12.4 98.3 C 12.4 97.9 12.2 97.7 11.7 97.7 C 11.2 97.7 10.8 98 10.2 98.8 C 10.19 98.79 9.4 103.9 9.4 103.9 L 7.2 103.9 L 8.7 94.1 L 7.6 93.9 C 7.6 93.9 7.68 93.1 7.7 93.1 C 8.4 92.9 10 92.7 11.1 92.7 C 11.1 92.7 10.3 97.8 10.3 97.8 C 11 96.7 11.9 96.1 13 96.1 C 14.1 96.1 14.7 96.7 14.7 97.6 C 14.7 97.9 14.6 98.2 14.6 98.5 C 14.6 98.5 14 101.5 14 101.5 C 14 101.9 13.9 102.1 13.9 102.3 C 13.9 102.6 14.1 102.7 14.5 102.7 C 14.53 102.71 15 102.7 15 102.7 C 15 102.7 14.9 103.59 14.9 103.6 C 14.5 103.8 13.7 104 13 104 C 12.1 104 11.6 103.6 11.6 102.9 C 11.6 102.6 11.7 102.2 11.7 101.9 Z M 20.2 96.1 C 22.4 96.1 23.3 97.3 23.3 99 C 23.3 101.6 21.9 104.1 19 104.1 C 16.8 104.1 15.9 102.9 15.9 101.1 C 15.9 98.5 17.3 96.1 20.2 96.1 Z M 19.1 103 C 20.4 103 21 100.6 21 98.7 C 21 97.9 20.8 97.2 20.1 97.2 C 18.8 97.2 18.2 99.5 18.2 101.4 C 18.2 102.3 18.4 103 19.1 103 Z M 27.7 96.1 C 27.7 96.1 27.4 98 27.4 98 C 28 96.8 28.8 96.1 29.7 96.1 C 30.1 96.1 30.4 96.2 30.6 96.3 C 30.6 97.2 30.3 98.4 30 99 C 30.05 99 28.8 99 28.8 99 C 28.8 99 28.74 97.64 28.7 97.6 C 28.2 97.7 27.7 98.3 27.2 99.1 C 27.2 99.14 26.5 103.9 26.5 103.9 L 24.2 103.9 L 25.2 97.5 L 24.3 97.3 C 24.3 97.3 24.37 96.52 24.4 96.5 C 25.1 96.3 26.5 96.1 27.7 96.1 Z M 32.5 96.2 C 32.5 96.2 32.9 95 32.9 95 C 33.3 94.8 34.2 94.7 34.9 94.7 C 34.88 94.73 34.6 96.2 34.6 96.2 L 36.4 96.2 L 36.2 97.4 L 34.5 97.4 C 34.5 97.4 33.95 100.76 34 100.8 C 33.9 101.2 33.8 101.6 33.8 101.9 C 33.8 102.3 34 102.5 34.3 102.5 C 34.7 102.5 35.1 101.9 35.5 101.3 C 35.5 101.3 36.1 101.6 36.1 101.6 C 35.7 103 34.8 104 33.3 104 C 32.1 104 31.6 103.4 31.6 102.3 C 31.6 101.9 31.7 101.4 31.7 100.8 C 31.74 100.82 32.3 97.4 32.3 97.4 L 31.2 97.4 C 31.2 97.4 31.34 96.55 31.3 96.6 C 31.6 96.4 32 96.2 32.5 96.2 Z M 43.6 92.7 C 43.6 92.7 42.9 97.5 42.9 97.5 C 43.4 96.6 44.1 96.1 45.1 96.1 C 46.5 96.1 47.2 97.2 47.2 98.8 C 47.2 101.6 45.8 104 43.3 104 C 42.6 104 42.1 103.8 41.7 103.4 C 41.3 103.7 40.9 103.9 40.4 104 C 40.4 104.04 39.7 103.8 39.7 103.8 L 41.2 94.1 L 40 93.9 C 40 93.9 40.14 93.1 40.1 93.1 C 40.9 92.9 42.4 92.7 43.6 92.7 Z M 42.7 98.6 C 42.7 98.6 42.1 102.6 42.1 102.6 C 42.3 102.7 42.5 102.8 42.8 102.8 C 44.1 102.8 44.9 100.9 44.9 98.8 C 44.9 97.9 44.6 97.5 44 97.5 C 43.5 97.5 43.1 97.9 42.7 98.6 Z M 55.8 96.1 C 55.8 96.1 54.9 101.5 54.9 101.5 C 54.9 101.8 54.8 102.1 54.8 102.3 C 54.8 102.6 55 102.7 55.4 102.7 C 55.41 102.71 55.9 102.7 55.9 102.7 C 55.9 102.7 55.78 103.59 55.8 103.6 C 55.4 103.8 54.6 104 53.9 104 C 52.9 104 52.6 103.6 52.6 102.8 C 52.6 102.7 52.6 102.4 52.6 102.3 C 52.6 102.3 52.6 102.2 52.6 102.2 C 52 103.4 51 104 49.9 104 C 48.8 104 48.3 103.4 48.3 102.5 C 48.3 102.3 48.3 102 48.4 101.8 C 48.37 101.75 49.1 97.5 49.1 97.5 L 48.1 97.3 C 48.1 97.3 48.19 96.52 48.2 96.5 C 48.9 96.3 50.3 96.1 51.5 96.1 C 51.5 96.1 50.7 101.1 50.7 101.1 C 50.6 101.3 50.6 101.6 50.6 101.8 C 50.6 102.2 50.8 102.4 51.2 102.4 C 51.7 102.4 52.2 102.1 52.7 101.3 C 52.74 101.3 53.3 97.5 53.3 97.5 L 52.4 97.3 C 52.4 97.3 52.51 96.52 52.5 96.5 C 53.2 96.3 54.6 96.1 55.8 96.1 Z M 58 96.2 C 58 96.2 58.4 95 58.4 95 C 58.8 94.8 59.7 94.7 60.4 94.7 C 60.37 94.73 60.1 96.2 60.1 96.2 L 61.9 96.2 L 61.7 97.4 L 60 97.4 C 60 97.4 59.44 100.76 59.4 100.8 C 59.4 101.2 59.3 101.6 59.3 101.9 C 59.3 102.3 59.5 102.5 59.8 102.5 C 60.2 102.5 60.6 101.9 61 101.3 C 61 101.3 61.6 101.6 61.6 101.6 C 61.2 103 60.3 104 58.8 104 C 57.6 104 57.1 103.4 57.1 102.3 C 57.1 101.9 57.2 101.4 57.2 100.8 C 57.23 100.82 57.8 97.4 57.8 97.4 L 56.7 97.4 C 56.7 97.4 56.83 96.55 56.8 96.6 C 57.1 96.4 57.5 96.2 58 96.2 Z M 69.2 96.1 C 70.7 96.1 71.5 96.8 71.5 97.9 C 71.5 99.4 70.4 100.3 68 100.3 C 68 100.3 67.3 100.3 67.3 100.3 C 67.3 100.5 67.3 100.8 67.3 101 C 67.3 102.1 67.8 102.5 68.4 102.5 C 69.2 102.5 69.7 102.1 70.2 101.2 C 70.2 101.2 71 101.6 71 101.6 C 70.4 103.2 69.2 104.1 67.7 104.1 C 65.9 104.1 65 103 65 101.2 C 65 98.5 66.5 96.1 69.2 96.1 Z M 67.4 99.5 C 67.4 99.5 67.8 99.5 67.8 99.5 C 69 99.5 69.5 98.8 69.5 98 C 69.5 97.5 69.3 97.3 68.9 97.3 C 68.1 97.3 67.6 98.2 67.4 99.5 Z M 75 96.1 C 75.01 96.1 76 98.8 76 98.8 C 76 98.8 77.31 96.28 77.3 96.3 C 77.6 96.2 79.2 96.2 79.5 96.2 C 79.5 96.2 79.3 97.1 79.3 97.1 C 79.2 97.2 78.9 97.3 78.6 97.3 C 78.57 97.32 76.5 100 76.5 100 C 76.5 100 77.29 102.04 77.3 102 C 77.5 102.6 77.7 102.7 78.2 102.7 C 78.22 102.71 78.7 102.7 78.7 102.7 C 78.7 102.7 78.54 103.59 78.5 103.6 C 78 103.9 77.5 104 76.9 104 C 76 104 75.5 103.6 75.2 102.8 C 75.21 102.76 74.7 101.5 74.7 101.5 L 73.4 103.9 L 71.3 103.9 C 71.3 103.9 71.41 103.03 71.4 103 C 71.6 103 71.9 102.9 72.2 102.8 C 72.21 102.81 74.2 100.2 74.2 100.2 L 73.2 97.6 L 72.2 97.3 C 72.2 97.3 72.29 96.52 72.3 96.5 C 72.9 96.3 74 96.1 75 96.1 Z M 83.5 96.1 C 84.5 96.1 85.2 96.3 85.7 96.6 C 85.7 97.4 85.4 98.4 85.1 99 C 85.12 98.97 84 99 84 99 C 84 99 83.87 97.29 83.9 97.3 C 83.8 97.3 83.7 97.3 83.6 97.3 C 82.4 97.3 81.6 99.2 81.6 101 C 81.6 102 82.1 102.5 82.7 102.5 C 83.5 102.5 84 102.1 84.5 101.2 C 84.5 101.2 85.3 101.6 85.3 101.6 C 84.6 103.2 83.5 104.1 81.9 104.1 C 80.2 104.1 79.3 103 79.3 101.2 C 79.3 98.5 80.8 96.1 83.5 96.1 Z M 88.1 92.9 C 88.4 92.9 88.8 92.8 89.3 92.8 C 89.7 92.8 90.1 92.9 90.4 92.9 C 90.4 93.5 90.1 94.4 89.9 94.9 C 89.6 95 89.3 95.1 88.8 95.1 C 88.5 95.1 88.1 95 87.9 94.9 C 87.9 94.2 88 93.5 88.1 92.9 Z M 89.8 96.1 C 89.8 96.1 89 101.4 89 101.4 C 88.9 101.8 88.9 102.1 88.9 102.2 C 88.9 102.6 89 102.7 89.5 102.7 C 89.47 102.71 90 102.7 90 102.7 C 90 102.7 89.84 103.59 89.8 103.6 C 89.4 103.8 88.7 104 87.9 104 C 87.1 104 86.6 103.6 86.6 102.8 C 86.6 102.6 86.6 102.2 86.7 101.9 C 86.7 101.94 87.4 97.5 87.4 97.5 L 86.4 97.3 C 86.4 97.3 86.51 96.52 86.5 96.5 C 87.2 96.3 88.6 96.1 89.8 96.1 Z M 92.1 96.2 C 92.1 96.2 92.4 95 92.4 95 C 92.9 94.8 93.7 94.7 94.4 94.7 C 94.41 94.73 94.2 96.2 94.2 96.2 L 95.9 96.2 L 95.7 97.4 L 94 97.4 C 94 97.4 93.49 100.76 93.5 100.8 C 93.4 101.2 93.4 101.6 93.4 101.9 C 93.4 102.3 93.5 102.5 93.8 102.5 C 94.3 102.5 94.7 101.9 95 101.3 C 95 101.3 95.7 101.6 95.7 101.6 C 95.2 103 94.3 104 92.9 104 C 91.7 104 91.1 103.4 91.1 102.3 C 91.1 101.9 91.2 101.4 91.3 100.8 C 91.28 100.82 91.8 97.4 91.8 97.4 L 90.7 97.4 C 90.7 97.4 90.88 96.55 90.9 96.6 C 91.1 96.4 91.5 96.2 92.1 96.2 Z M 98.1 92.9 C 98.3 92.9 98.8 92.8 99.2 92.8 C 99.6 92.8 100 92.9 100.3 92.9 C 100.3 93.5 100 94.4 99.8 94.9 C 99.5 95 99.2 95.1 98.8 95.1 C 98.4 95.1 98 95 97.8 94.9 C 97.8 94.2 97.9 93.5 98.1 92.9 Z M 99.7 96.1 C 99.7 96.1 98.9 101.4 98.9 101.4 C 98.8 101.8 98.8 102.1 98.8 102.2 C 98.8 102.6 99 102.7 99.4 102.7 C 99.39 102.71 99.9 102.7 99.9 102.7 C 99.9 102.7 99.76 103.59 99.8 103.6 C 99.4 103.8 98.6 104 97.8 104 C 97 104 96.5 103.6 96.5 102.8 C 96.5 102.6 96.6 102.2 96.6 101.9 C 96.62 101.94 97.3 97.5 97.3 97.5 L 96.3 97.3 C 96.3 97.3 96.43 96.52 96.4 96.5 C 97.1 96.3 98.5 96.1 99.7 96.1 Z M 104.2 96.1 C 104.2 96.1 103.9 97.8 103.9 97.8 C 104.6 96.7 105.5 96.1 106.6 96.1 C 107.7 96.1 108.3 96.7 108.3 97.6 C 108.3 97.9 108.2 98.2 108.2 98.5 C 108.2 98.5 107.6 101.5 107.6 101.5 C 107.6 101.9 107.5 102.1 107.5 102.3 C 107.5 102.6 107.7 102.7 108.1 102.7 C 108.11 102.71 108.6 102.7 108.6 102.7 C 108.6 102.7 108.48 103.59 108.5 103.6 C 108.1 103.8 107.3 104 106.6 104 C 105.6 104 105.2 103.6 105.2 102.9 C 105.2 102.6 105.3 102.2 105.3 101.9 C 105.3 101.9 105.9 99 105.9 99 C 105.9 98.7 106 98.5 106 98.3 C 106 97.9 105.8 97.7 105.3 97.7 C 104.8 97.7 104.3 98 103.8 98.8 C 103.79 98.78 103 103.9 103 103.9 L 100.8 103.9 L 101.8 97.5 L 100.8 97.3 C 100.8 97.3 100.89 96.52 100.9 96.5 C 101.6 96.3 103 96.1 104.2 96.1 Z M 110.2 103.6 C 109.8 103.4 109.6 103 109.6 102.5 C 109.6 101.9 110.1 101.2 111 100.8 C 110.1 100.5 109.6 99.8 109.6 98.9 C 109.6 97.2 110.9 96.1 113.2 96.1 C 114 96.1 114.6 96.2 115.1 96.5 C 115.5 96.1 116.4 95.9 117.1 95.9 C 117.1 96.3 117.1 96.8 116.8 97.4 C 116.8 97.4 115.9 97.4 115.9 97.4 C 116 97.6 116.1 98 116.1 98.3 C 116.1 100 114.8 101.1 112.6 101.1 C 112.3 101.1 112 101.1 111.8 101 C 111.6 101.2 111.4 101.4 111.4 101.6 C 111.4 101.9 111.5 102 111.9 102.1 C 111.9 102.1 113.7 102.2 113.7 102.2 C 115.3 102.3 116 102.8 116 103.9 C 116 105.5 114.3 107 111.4 107 C 109.4 107 108.4 106.4 108.4 105.4 C 108.4 104.4 109.1 103.9 110.2 103.6 Z M 114 98.1 C 114 97.4 113.6 96.9 113 96.9 C 112.1 96.9 111.7 97.9 111.7 99 C 111.7 99.8 112.1 100.2 112.7 100.2 C 113.6 100.2 114 99.3 114 98.1 Z M 110.2 105 C 110.2 105.7 110.8 106 111.9 106 C 113.2 106 114.1 105.6 114.1 104.7 C 114.1 104.2 113.8 104 113 104 C 113 104 111 103.8 111 103.8 C 110.5 104.1 110.2 104.5 110.2 105 Z M 124.3 96.1 C 126.5 96.1 127.5 97.3 127.5 99 C 127.5 101.6 126.1 104.1 123.2 104.1 C 121 104.1 120 102.9 120 101.1 C 120 98.5 121.4 96.1 124.3 96.1 Z M 123.3 103 C 124.5 103 125.2 100.6 125.2 98.7 C 125.2 97.9 124.9 97.2 124.2 97.2 C 123 97.2 122.3 99.5 122.3 101.4 C 122.3 102.3 122.6 103 123.3 103 Z M 132.6 96.1 C 133.6 96.1 134.3 96.3 134.7 96.6 C 134.7 97.4 134.5 98.4 134.2 99 C 134.19 98.97 133 99 133 99 C 133 99 132.94 97.29 132.9 97.3 C 132.9 97.3 132.8 97.3 132.7 97.3 C 131.5 97.3 130.7 99.2 130.7 101 C 130.7 102 131.1 102.5 131.8 102.5 C 132.5 102.5 133.1 102.1 133.6 101.2 C 133.6 101.2 134.3 101.6 134.3 101.6 C 133.7 103.2 132.6 104.1 131 104.1 C 129.3 104.1 128.4 103 128.4 101.2 C 128.4 98.5 129.9 96.1 132.6 96.1 Z M 139.2 96.1 C 140.8 96.1 141.6 96.8 141.6 97.9 C 141.6 99.4 140.5 100.3 138.1 100.3 C 138.1 100.3 137.4 100.3 137.4 100.3 C 137.4 100.5 137.4 100.8 137.4 101 C 137.4 102.1 137.9 102.5 138.5 102.5 C 139.3 102.5 139.8 102.1 140.3 101.2 C 140.3 101.2 141.1 101.6 141.1 101.6 C 140.5 103.2 139.3 104.1 137.8 104.1 C 136 104.1 135.1 103 135.1 101.2 C 135.1 98.5 136.6 96.1 139.2 96.1 Z M 137.5 99.5 C 137.5 99.5 137.9 99.5 137.9 99.5 C 139.1 99.5 139.6 98.8 139.6 98 C 139.6 97.5 139.4 97.3 139 97.3 C 138.2 97.3 137.7 98.2 137.5 99.5 Z M 145.9 96.1 C 146.7 96.1 147.1 96.3 147.5 96.8 C 147.8 96.5 148.4 96.2 148.8 96.1 C 148.85 96.07 149.6 96.3 149.6 96.3 C 149.6 96.3 148.78 101.5 148.8 101.5 C 148.7 101.8 148.7 102.1 148.7 102.3 C 148.7 102.6 148.8 102.7 149.3 102.7 C 149.28 102.71 149.8 102.7 149.8 102.7 C 149.8 102.7 149.65 103.59 149.6 103.6 C 149.2 103.8 148.5 104 147.7 104 C 146.8 104 146.4 103.6 146.4 102.8 C 146.4 102.8 146.4 102.7 146.5 102.6 C 145.9 103.5 145.2 104 144.2 104 C 142.8 104 142.1 103 142.1 101.3 C 142.1 98.5 143.6 96.1 145.9 96.1 Z M 146.6 101.6 C 146.6 101.6 147.2 97.5 147.2 97.5 C 147 97.4 146.8 97.3 146.5 97.3 C 145.2 97.3 144.4 99.2 144.4 101.3 C 144.4 102.2 144.7 102.6 145.3 102.6 C 145.8 102.6 146.2 102.2 146.6 101.6 Z M 154.1 96.1 C 154.1 96.1 153.8 97.8 153.8 97.8 C 154.5 96.7 155.4 96.1 156.5 96.1 C 157.6 96.1 158.2 96.7 158.2 97.6 C 158.2 97.9 158.1 98.2 158.1 98.5 C 158.1 98.5 157.5 101.5 157.5 101.5 C 157.4 101.9 157.4 102.1 157.4 102.3 C 157.4 102.6 157.5 102.7 158 102.7 C 158 102.71 158.5 102.7 158.5 102.7 C 158.5 102.7 158.37 103.59 158.4 103.6 C 158 103.8 157.2 104 156.4 104 C 155.5 104 155.1 103.6 155.1 102.9 C 155.1 102.6 155.2 102.2 155.2 101.9 C 155.2 101.9 155.8 99 155.8 99 C 155.8 98.7 155.9 98.5 155.9 98.3 C 155.9 97.9 155.7 97.7 155.2 97.7 C 154.7 97.7 154.2 98 153.7 98.8 C 153.68 98.78 152.9 103.9 152.9 103.9 L 150.7 103.9 L 151.7 97.5 L 150.7 97.3 C 150.7 97.3 150.78 96.52 150.8 96.5 C 151.5 96.3 152.9 96.1 154.1 96.1 Z M 162 97.3 C 162 97.3 162.06 96.52 162.1 96.5 C 162.7 96.3 163.9 96.1 164.9 96.1 C 164.88 96.1 165.8 101.8 165.8 101.8 C 165.8 101.8 166.17 101.3 166.2 101.3 C 167.1 99.9 167.4 98.8 167.5 97.5 C 167.45 97.54 166.5 97.3 166.5 97.3 C 166.5 97.3 166.59 96.52 166.6 96.5 C 167.1 96.3 167.9 96.1 168.4 96.1 C 169.2 96.1 169.4 96.5 169.4 97.1 C 169.4 98.3 168.6 100.1 166.6 102.5 C 166.61 102.5 165.4 103.9 165.4 103.9 L 164 103.9 L 162.9 97.5 L 162 97.3 Z M 173.9 96.1 C 176.1 96.1 177.1 97.3 177.1 99 C 177.1 101.6 175.6 104.1 172.7 104.1 C 170.5 104.1 169.6 102.9 169.6 101.1 C 169.6 98.5 171 96.1 173.9 96.1 Z M 172.8 103 C 174.1 103 174.7 100.6 174.7 98.7 C 174.7 97.9 174.5 97.2 173.8 97.2 C 172.6 97.2 171.9 99.5 171.9 101.4 C 171.9 102.3 172.2 103 172.8 103 Z M 179.4 104.3 C 179.44 104.3 179.5 104.2 179.5 104.2 L 178.3 97.5 L 177.4 97.3 C 177.4 97.3 177.5 96.52 177.5 96.5 C 178.2 96.3 179.3 96.1 180.3 96.1 C 180.3 96.1 181.3 101.8 181.3 101.8 C 182.3 100.4 182.8 99 182.9 97.5 C 182.88 97.54 181.9 97.3 181.9 97.3 C 181.9 97.3 182.03 96.52 182 96.5 C 182.5 96.3 183.3 96.1 183.9 96.1 C 184.6 96.1 184.8 96.5 184.8 97.1 C 184.8 98.5 183.7 100.3 182.1 102.5 C 182.1 102.5 180.5 104.6 180.5 104.6 C 179.6 105.8 178.7 107 177.5 107 C 176.8 107 176.4 106.7 176 106.1 C 176 106.1 176.2 105.4 176.2 105.4 C 176.6 105.6 177.1 105.7 177.5 105.7 C 178.5 105.7 179 105 179.4 104.3 Z M 188.9 96.1 C 189.6 96.1 190.1 96.3 190.4 96.8 C 190.7 96.5 191.3 96.2 191.8 96.1 C 191.81 96.07 192.6 96.3 192.6 96.3 C 192.6 96.3 191.74 101.5 191.7 101.5 C 191.7 101.8 191.6 102.1 191.6 102.3 C 191.6 102.6 191.8 102.7 192.2 102.7 C 192.24 102.71 192.7 102.7 192.7 102.7 C 192.7 102.7 192.61 103.59 192.6 103.6 C 192.2 103.8 191.5 104 190.7 104 C 189.8 104 189.4 103.6 189.4 102.8 C 189.4 102.8 189.4 102.7 189.4 102.6 C 188.9 103.5 188.2 104 187.1 104 C 185.8 104 185.1 103 185.1 101.3 C 185.1 98.5 186.6 96.1 188.9 96.1 Z M 189.5 101.6 C 189.5 101.6 190.2 97.5 190.2 97.5 C 190 97.4 189.7 97.3 189.5 97.3 C 188.2 97.3 187.4 99.2 187.4 101.3 C 187.4 102.2 187.7 102.6 188.2 102.6 C 188.7 102.6 189.1 102.2 189.5 101.6 Z M 194.3 103.6 C 193.9 103.4 193.6 103 193.6 102.5 C 193.6 101.9 194.2 101.2 195.1 100.8 C 194.1 100.5 193.7 99.8 193.7 98.9 C 193.7 97.2 195 96.1 197.2 96.1 C 198 96.1 198.7 96.2 199.1 96.5 C 199.6 96.1 200.4 95.9 201.1 95.9 C 201.1 96.3 201.1 96.8 200.9 97.4 C 200.9 97.4 199.9 97.4 199.9 97.4 C 200.1 97.6 200.2 98 200.2 98.3 C 200.2 100 198.8 101.1 196.6 101.1 C 196.3 101.1 196.1 101.1 195.8 101 C 195.6 101.2 195.4 101.4 195.4 101.6 C 195.4 101.9 195.6 102 196 102.1 C 196 102.1 197.8 102.2 197.8 102.2 C 199.4 102.3 200 102.8 200 103.9 C 200 105.5 198.3 107 195.5 107 C 193.5 107 192.5 106.4 192.5 105.4 C 192.5 104.4 193.1 103.9 194.3 103.6 Z M 198 98.1 C 198 97.4 197.7 96.9 197.1 96.9 C 196.2 96.9 195.8 97.9 195.8 99 C 195.8 99.8 196.1 100.2 196.7 100.2 C 197.6 100.2 198 99.3 198 98.1 Z M 194.2 105 C 194.2 105.7 194.9 106 195.9 106 C 197.2 106 198.1 105.6 198.1 104.7 C 198.1 104.2 197.9 104 197.1 104 C 197.1 104 195.1 103.8 195.1 103.8 C 194.5 104.1 194.2 104.5 194.2 105 Z M 205 96.1 C 206.6 96.1 207.4 96.8 207.4 97.9 C 207.4 99.4 206.3 100.3 203.9 100.3 C 203.9 100.3 203.2 100.3 203.2 100.3 C 203.2 100.5 203.2 100.8 203.2 101 C 203.2 102.1 203.7 102.5 204.3 102.5 C 205.1 102.5 205.6 102.1 206.1 101.2 C 206.1 101.2 206.9 101.6 206.9 101.6 C 206.3 103.2 205.1 104.1 203.6 104.1 C 201.8 104.1 200.9 103 200.9 101.2 C 200.9 98.5 202.4 96.1 205 96.1 Z M 203.3 99.5 C 203.3 99.5 203.6 99.5 203.6 99.5 C 204.9 99.5 205.4 98.8 205.4 98 C 205.4 97.5 205.2 97.3 204.8 97.3 C 204 97.3 203.5 98.2 203.3 99.5 Z M 215.2 96.1 C 217.5 96.1 218.4 97.3 218.4 99 C 218.4 101.6 217 104.1 214.1 104.1 C 211.9 104.1 210.9 102.9 210.9 101.1 C 210.9 98.5 212.3 96.1 215.2 96.1 Z M 214.2 103 C 215.4 103 216.1 100.6 216.1 98.7 C 216.1 97.9 215.8 97.2 215.1 97.2 C 213.9 97.2 213.2 99.5 213.2 101.4 C 213.2 102.3 213.5 103 214.2 103 Z M 222.7 96.1 C 222.7 96.1 222.5 98 222.5 98 C 223 96.8 223.9 96.1 224.7 96.1 C 225.2 96.1 225.5 96.2 225.7 96.3 C 225.7 97.2 225.4 98.4 225.1 99 C 225.12 99 223.9 99 223.9 99 C 223.9 99 223.8 97.64 223.8 97.6 C 223.3 97.7 222.8 98.3 222.3 99.1 C 222.27 99.14 221.5 103.9 221.5 103.9 L 219.3 103.9 L 220.3 97.5 L 219.3 97.3 C 219.3 97.3 219.44 96.52 219.4 96.5 C 220.2 96.3 221.5 96.1 222.7 96.1 Z M 232.6 96.1 C 233.3 96.1 233.8 96.3 234.1 96.8 C 234.5 96.5 235.1 96.2 235.5 96.1 C 235.53 96.07 236.3 96.3 236.3 96.3 C 236.3 96.3 235.47 101.5 235.5 101.5 C 235.4 101.8 235.4 102.1 235.4 102.3 C 235.4 102.6 235.5 102.7 236 102.7 C 235.96 102.71 236.5 102.7 236.5 102.7 C 236.5 102.7 236.33 103.59 236.3 103.6 C 235.9 103.8 235.2 104 234.4 104 C 233.5 104 233.1 103.6 233.1 102.8 C 233.1 102.8 233.1 102.7 233.1 102.6 C 232.6 103.5 231.9 104 230.8 104 C 229.5 104 228.8 103 228.8 101.3 C 228.8 98.5 230.3 96.1 232.6 96.1 Z M 233.3 101.6 C 233.3 101.6 233.9 97.5 233.9 97.5 C 233.7 97.4 233.5 97.3 233.2 97.3 C 231.9 97.3 231.1 99.2 231.1 101.3 C 231.1 102.2 231.4 102.6 231.9 102.6 C 232.5 102.6 232.9 102.2 233.3 101.6 Z M 244.4 96.1 C 245.3 96.1 246.1 96.3 246.5 96.6 C 246.5 97.4 246.2 98.4 245.9 99 C 245.95 98.97 244.8 99 244.8 99 C 244.8 99 244.7 97.29 244.7 97.3 C 244.6 97.3 244.6 97.3 244.5 97.3 C 243.2 97.3 242.4 99.2 242.4 101 C 242.4 102 242.9 102.5 243.5 102.5 C 244.3 102.5 244.8 102.1 245.3 101.2 C 245.3 101.2 246.1 101.6 246.1 101.6 C 245.5 103.2 244.3 104.1 242.7 104.1 C 241 104.1 240.1 103 240.1 101.2 C 240.1 98.5 241.6 96.1 244.4 96.1 Z M 251.2 96.1 C 253.4 96.1 254.3 97.3 254.3 99 C 254.3 101.6 252.9 104.1 250 104.1 C 247.8 104.1 246.9 102.9 246.9 101.1 C 246.9 98.5 248.3 96.1 251.2 96.1 Z M 250.1 103 C 251.4 103 252 100.6 252 98.7 C 252 97.9 251.8 97.2 251.1 97.2 C 249.8 97.2 249.2 99.5 249.2 101.4 C 249.2 102.3 249.4 103 250.1 103 Z M 258.7 96.1 C 258.7 96.1 258.4 97.8 258.4 97.8 C 259.1 96.7 259.9 96.1 261 96.1 C 262.1 96.1 262.7 96.7 262.7 97.6 C 262.7 97.6 262.7 97.7 262.7 97.8 C 263.4 96.7 264.3 96.1 265.3 96.1 C 266.4 96.1 267 96.7 267 97.6 C 267 97.9 267 98.2 266.9 98.5 C 266.9 98.5 266.4 101.5 266.4 101.5 C 266.3 101.9 266.3 102.1 266.3 102.3 C 266.3 102.6 266.4 102.7 266.9 102.7 C 266.86 102.71 267.4 102.7 267.4 102.7 C 267.4 102.7 267.21 103.59 267.2 103.6 C 266.8 103.8 266.1 104 265.3 104 C 264.4 104 264 103.6 264 102.9 C 264 102.6 264 102.2 264.1 101.9 C 264.1 101.9 264.6 99 264.6 99 C 264.7 98.7 264.7 98.5 264.7 98.3 C 264.7 97.9 264.5 97.7 264.1 97.7 C 263.6 97.7 263.1 98 262.6 98.7 C 262.57 98.74 261.7 103.9 261.7 103.9 L 259.5 103.9 C 259.5 103.9 260.35 98.94 260.3 98.9 C 260.4 98.7 260.4 98.5 260.4 98.3 C 260.4 97.9 260.2 97.7 259.8 97.7 C 259.3 97.7 258.8 98 258.3 98.8 C 258.27 98.78 257.5 103.9 257.5 103.9 L 255.2 103.9 L 256.3 97.5 L 255.3 97.3 C 255.3 97.3 255.37 96.52 255.4 96.5 C 256.1 96.3 257.5 96.1 258.7 96.1 Z M 271.8 96.1 C 271.8 96.1 271.5 97.8 271.5 97.8 C 272.2 96.7 273 96.1 274.1 96.1 C 275.2 96.1 275.8 96.7 275.8 97.6 C 275.8 97.6 275.8 97.7 275.8 97.8 C 276.5 96.7 277.3 96.1 278.4 96.1 C 279.5 96.1 280.1 96.7 280.1 97.6 C 280.1 97.9 280.1 98.2 280 98.5 C 280 98.5 279.5 101.5 279.5 101.5 C 279.4 101.9 279.3 102.1 279.3 102.3 C 279.3 102.6 279.5 102.7 279.9 102.7 C 279.95 102.71 280.4 102.7 280.4 102.7 C 280.4 102.7 280.3 103.59 280.3 103.6 C 279.9 103.8 279.2 104 278.4 104 C 277.5 104 277.1 103.6 277.1 102.9 C 277.1 102.6 277.1 102.2 277.2 101.9 C 277.2 101.9 277.7 99 277.7 99 C 277.8 98.7 277.8 98.5 277.8 98.3 C 277.8 97.9 277.6 97.7 277.2 97.7 C 276.7 97.7 276.2 98 275.7 98.7 C 275.66 98.74 274.8 103.9 274.8 103.9 L 272.6 103.9 C 272.6 103.9 273.44 98.94 273.4 98.9 C 273.5 98.7 273.5 98.5 273.5 98.3 C 273.5 97.9 273.3 97.7 272.9 97.7 C 272.4 97.7 271.9 98 271.4 98.8 C 271.36 98.78 270.6 103.9 270.6 103.9 L 268.3 103.9 L 269.3 97.5 L 268.4 97.3 C 268.4 97.3 268.46 96.52 268.5 96.5 C 269.2 96.3 270.6 96.1 271.8 96.1 Z M 285.4 96.1 C 287 96.1 287.8 96.8 287.8 97.9 C 287.8 99.4 286.6 100.3 284.2 100.3 C 284.2 100.3 283.6 100.3 283.6 100.3 C 283.6 100.5 283.6 100.8 283.6 101 C 283.6 102.1 284 102.5 284.7 102.5 C 285.4 102.5 285.9 102.1 286.5 101.2 C 286.5 101.2 287.2 101.6 287.2 101.6 C 286.6 103.2 285.5 104.1 283.9 104.1 C 282.2 104.1 281.3 103 281.3 101.2 C 281.3 98.5 282.7 96.1 285.4 96.1 Z M 283.7 99.5 C 283.7 99.5 284 99.5 284 99.5 C 285.2 99.5 285.8 98.8 285.8 98 C 285.8 97.5 285.6 97.3 285.1 97.3 C 284.4 97.3 283.9 98.2 283.7 99.5 Z M 291.9 96.1 C 291.9 96.1 291.7 98 291.7 98 C 292.2 96.8 293.1 96.1 293.9 96.1 C 294.4 96.1 294.7 96.2 294.9 96.3 C 294.9 97.2 294.6 98.4 294.3 99 C 294.32 99 293.1 99 293.1 99 C 293.1 99 293 97.64 293 97.6 C 292.5 97.7 292 98.3 291.5 99.1 C 291.47 99.14 290.7 103.9 290.7 103.9 L 288.5 103.9 L 289.5 97.5 L 288.5 97.3 C 288.5 97.3 288.64 96.52 288.6 96.5 C 289.4 96.3 290.7 96.1 291.9 96.1 Z M 299.1 96.1 C 300.1 96.1 300.8 96.3 301.2 96.6 C 301.2 97.4 301 98.4 300.7 99 C 300.7 98.97 299.5 99 299.5 99 C 299.5 99 299.45 97.29 299.5 97.3 C 299.4 97.3 299.3 97.3 299.2 97.3 C 298 97.3 297.2 99.2 297.2 101 C 297.2 102 297.6 102.5 298.3 102.5 C 299 102.5 299.6 102.1 300.1 101.2 C 300.1 101.2 300.8 101.6 300.8 101.6 C 300.2 103.2 299.1 104.1 297.5 104.1 C 295.8 104.1 294.9 103 294.9 101.2 C 294.9 98.5 296.4 96.1 299.1 96.1 Z M 303.7 92.9 C 304 92.9 304.4 92.8 304.9 92.8 C 305.3 92.8 305.7 92.9 305.9 92.9 C 305.9 93.5 305.7 94.4 305.5 94.9 C 305.2 95 304.9 95.1 304.4 95.1 C 304 95.1 303.7 95 303.5 94.9 C 303.5 94.2 303.5 93.5 303.7 92.9 Z M 305.4 96.1 C 305.4 96.1 304.6 101.4 304.6 101.4 C 304.5 101.8 304.5 102.1 304.5 102.2 C 304.5 102.6 304.6 102.7 305.1 102.7 C 305.05 102.71 305.6 102.7 305.6 102.7 C 305.6 102.7 305.42 103.59 305.4 103.6 C 305 103.8 304.3 104 303.5 104 C 302.6 104 302.2 103.6 302.2 102.8 C 302.2 102.6 302.2 102.2 302.3 101.9 C 302.28 101.94 303 97.5 303 97.5 L 302 97.3 C 302 97.3 302.09 96.52 302.1 96.5 C 302.8 96.3 304.2 96.1 305.4 96.1 Z M 310.2 96.1 C 310.9 96.1 311.4 96.3 311.7 96.8 C 312.1 96.5 312.6 96.2 313.1 96.1 C 313.12 96.07 313.9 96.3 313.9 96.3 C 313.9 96.3 313.05 101.5 313.1 101.5 C 313 101.8 313 102.1 313 102.3 C 313 102.6 313.1 102.7 313.5 102.7 C 313.55 102.71 314.1 102.7 314.1 102.7 C 314.1 102.7 313.92 103.59 313.9 103.6 C 313.5 103.8 312.8 104 312 104 C 311.1 104 310.7 103.6 310.7 102.8 C 310.7 102.8 310.7 102.7 310.7 102.6 C 310.2 103.5 309.5 104 308.4 104 C 307.1 104 306.4 103 306.4 101.3 C 306.4 98.5 307.9 96.1 310.2 96.1 Z M 310.8 101.6 C 310.8 101.6 311.5 97.5 311.5 97.5 C 311.3 97.4 311.1 97.3 310.8 97.3 C 309.5 97.3 308.7 99.2 308.7 101.3 C 308.7 102.2 309 102.6 309.5 102.6 C 310.1 102.6 310.5 102.2 310.8 101.6 Z M 318.8 92.7 C 318.8 92.7 317.4 101.4 317.4 101.4 C 317.3 101.8 317.3 102.1 317.3 102.2 C 317.3 102.6 317.5 102.7 317.9 102.7 C 317.9 102.71 318.4 102.7 318.4 102.7 C 318.4 102.7 318.25 103.59 318.3 103.6 C 317.9 103.8 317.1 104 316.3 104 C 315.5 104 315 103.6 315 102.8 C 315 102.6 315.1 102.2 315.1 101.9 C 315.11 101.94 316.3 94.1 316.3 94.1 L 315.2 93.9 C 315.2 93.9 315.31 93.1 315.3 93.1 C 316 92.9 317.6 92.7 318.8 92.7 Z " stroke="none" fill="#404040"/>    <path d="M 1.9 116.2 C 1.9 116.2 1.9 116.1 1.9 116.1 C 2.2 113.8 3.6 112.7 5.5 112.7 C 6 112.7 6.5 112.7 6.9 112.9 C 7.6 112.7 8.5 112.7 9.2 112.7 C 9.2 112.7 7.8 121.4 7.8 121.4 C 7.8 121.8 7.7 122.1 7.7 122.2 C 7.7 122.6 7.9 122.7 8.3 122.7 C 8.3 122.71 8.8 122.7 8.8 122.7 C 8.8 122.7 8.67 123.59 8.7 123.6 C 8.3 123.8 7.5 124 6.8 124 C 5.9 124 5.4 123.6 5.4 122.8 C 5.4 122.6 5.5 122.2 5.5 121.9 C 5.5 121.9 6.8 113.8 6.8 113.8 C 6.5 113.7 6.3 113.7 5.9 113.7 C 4.9 113.7 4.4 114.2 4.1 115.8 C 4.14 115.83 4.1 116.2 4.1 116.2 L 5.5 116.2 L 5.3 117.3 L 3.9 117.3 C 3.9 117.3 3.04 123.51 3 123.5 C 2.7 125.7 1 127 -0.2 127 C -0.9 127 -1.4 126.6 -1.7 126.2 C -1.7 126.2 -1.6 125.4 -1.6 125.4 C -1.3 125.5 -0.9 125.6 -0.5 125.6 C 0.4 125.6 0.6 125.3 0.8 123.9 C 0.78 123.91 1.7 117.3 1.7 117.3 L 0.7 117.3 C 0.7 117.3 0.82 116.55 0.8 116.6 C 1 116.4 1.4 116.3 1.9 116.2 Z M 11.3 112.9 C 11.6 112.9 12 112.8 12.5 112.8 C 12.9 112.8 13.3 112.9 13.6 112.9 C 13.6 113.5 13.3 114.4 13.1 114.9 C 12.8 115 12.5 115.1 12 115.1 C 11.7 115.1 11.3 115 11.1 114.9 C 11.1 114.2 11.2 113.5 11.3 112.9 Z M 13 116.1 C 13 116.1 12.2 121.4 12.2 121.4 C 12.1 121.8 12.1 122.1 12.1 122.2 C 12.1 122.6 12.2 122.7 12.7 122.7 C 12.67 122.71 13.2 122.7 13.2 122.7 C 13.2 122.7 13.04 123.59 13 123.6 C 12.6 123.8 11.9 124 11.1 124 C 10.3 124 9.8 123.6 9.8 122.8 C 9.8 122.6 9.8 122.2 9.9 121.9 C 9.9 121.94 10.6 117.5 10.6 117.5 L 9.6 117.3 C 9.6 117.3 9.71 116.52 9.7 116.5 C 10.4 116.3 11.8 116.1 13 116.1 Z M 14.7 123.6 C 14.3 123.4 14 123 14 122.5 C 14 121.9 14.6 121.2 15.5 120.8 C 14.5 120.5 14.1 119.8 14.1 118.9 C 14.1 117.2 15.4 116.1 17.6 116.1 C 18.4 116.1 19.1 116.2 19.5 116.5 C 20 116.1 20.8 115.9 21.5 115.9 C 21.5 116.3 21.5 116.8 21.3 117.4 C 21.3 117.4 20.3 117.4 20.3 117.4 C 20.5 117.6 20.6 118 20.6 118.3 C 20.6 120 19.2 121.1 17 121.1 C 16.7 121.1 16.5 121.1 16.2 121 C 16 121.2 15.8 121.4 15.8 121.6 C 15.8 121.9 16 122 16.4 122.1 C 16.4 122.1 18.2 122.2 18.2 122.2 C 19.8 122.3 20.4 122.8 20.4 123.9 C 20.4 125.5 18.7 127 15.9 127 C 13.9 127 12.9 126.4 12.9 125.4 C 12.9 124.4 13.5 123.9 14.7 123.6 Z M 18.4 118.1 C 18.4 117.4 18.1 116.9 17.5 116.9 C 16.6 116.9 16.2 117.9 16.2 119 C 16.2 119.8 16.5 120.2 17.1 120.2 C 18 120.2 18.4 119.3 18.4 118.1 Z M 14.6 125 C 14.6 125.7 15.3 126 16.3 126 C 17.6 126 18.5 125.6 18.5 124.7 C 18.5 124.2 18.3 124 17.5 124 C 17.5 124 15.5 123.8 15.5 123.8 C 14.9 124.1 14.6 124.5 14.6 125 Z M 26 121.9 C 26 121.9 26.5 119 26.5 119 C 26.6 118.7 26.6 118.5 26.6 118.3 C 26.6 117.9 26.4 117.7 26 117.7 C 25.5 117.7 25 118 24.4 118.8 C 24.43 118.79 23.6 123.9 23.6 123.9 L 21.4 123.9 L 23 114.1 L 21.8 113.9 C 21.8 113.9 21.92 113.1 21.9 113.1 C 22.6 112.9 24.2 112.7 25.4 112.7 C 25.4 112.7 24.6 117.8 24.6 117.8 C 25.3 116.7 26.1 116.1 27.2 116.1 C 28.4 116.1 28.9 116.7 28.9 117.6 C 28.9 117.9 28.9 118.2 28.8 118.5 C 28.8 118.5 28.3 121.5 28.3 121.5 C 28.2 121.9 28.2 122.1 28.2 122.3 C 28.2 122.6 28.3 122.7 28.8 122.7 C 28.77 122.71 29.3 122.7 29.3 122.7 C 29.3 122.7 29.14 123.59 29.1 123.6 C 28.7 123.8 28 124 27.2 124 C 26.3 124 25.9 123.6 25.9 122.9 C 25.9 122.6 26 122.2 26 121.9 Z M 31.4 116.2 C 31.4 116.2 31.8 115 31.8 115 C 32.2 114.8 33.1 114.7 33.8 114.7 C 33.76 114.73 33.5 116.2 33.5 116.2 L 35.2 116.2 L 35.1 117.4 L 33.4 117.4 C 33.4 117.4 32.83 120.76 32.8 120.8 C 32.8 121.2 32.7 121.6 32.7 121.9 C 32.7 122.3 32.8 122.5 33.2 122.5 C 33.6 122.5 34 121.9 34.4 121.3 C 34.4 121.3 35 121.6 35 121.6 C 34.5 123 33.7 124 32.2 124 C 31 124 30.5 123.4 30.5 122.3 C 30.5 121.9 30.5 121.4 30.6 120.8 C 30.62 120.82 31.2 117.4 31.2 117.4 L 30.1 117.4 C 30.1 117.4 30.22 116.55 30.2 116.6 C 30.4 116.4 30.9 116.2 31.4 116.2 Z M 40.3 112.9 C 40.6 112.9 41 112.8 41.4 112.8 C 41.8 112.8 42.3 112.9 42.5 112.9 C 42.5 113.5 42.3 114.4 42 114.9 C 41.7 115 41.4 115.1 41 115.1 C 40.6 115.1 40.3 115 40 114.9 C 40 114.2 40.1 113.5 40.3 112.9 Z M 42 116.1 C 42 116.1 41.1 121.4 41.1 121.4 C 41.1 121.8 41 122.1 41 122.2 C 41 122.6 41.2 122.7 41.6 122.7 C 41.62 122.71 42.1 122.7 42.1 122.7 C 42.1 122.7 41.98 123.59 42 123.6 C 41.6 123.8 40.8 124 40.1 124 C 39.2 124 38.8 123.6 38.8 122.8 C 38.8 122.6 38.8 122.2 38.8 121.9 C 38.85 121.94 39.5 117.5 39.5 117.5 L 38.6 117.3 C 38.6 117.3 38.66 116.52 38.7 116.5 C 39.4 116.3 40.8 116.1 42 116.1 Z M 46.4 116.1 C 46.4 116.1 46.2 117.8 46.2 117.8 C 46.9 116.7 47.7 116.1 48.8 116.1 C 49.9 116.1 50.5 116.7 50.5 117.6 C 50.5 117.9 50.4 118.2 50.4 118.5 C 50.4 118.5 49.8 121.5 49.8 121.5 C 49.8 121.9 49.7 122.1 49.7 122.3 C 49.7 122.6 49.9 122.7 50.3 122.7 C 50.34 122.71 50.8 122.7 50.8 122.7 C 50.8 122.7 50.7 123.59 50.7 123.6 C 50.3 123.8 49.6 124 48.8 124 C 47.9 124 47.5 123.6 47.5 122.9 C 47.5 122.6 47.5 122.2 47.6 121.9 C 47.6 121.9 48.1 119 48.1 119 C 48.1 118.7 48.2 118.5 48.2 118.3 C 48.2 117.9 48 117.7 47.6 117.7 C 47.1 117.7 46.6 118 46 118.8 C 46.02 118.78 45.2 123.9 45.2 123.9 L 43 123.9 L 44 117.5 L 43 117.3 C 43 117.3 43.12 116.52 43.1 116.5 C 43.8 116.3 45.2 116.1 46.4 116.1 Z M 58.4 116.1 C 59.1 116.1 59.6 116.3 59.9 116.8 C 60.3 116.5 60.8 116.2 61.3 116.1 C 61.33 116.07 62.1 116.3 62.1 116.3 C 62.1 116.3 61.26 121.5 61.3 121.5 C 61.2 121.8 61.2 122.1 61.2 122.3 C 61.2 122.6 61.3 122.7 61.8 122.7 C 61.76 122.71 62.3 122.7 62.3 122.7 C 62.3 122.7 62.13 123.59 62.1 123.6 C 61.7 123.8 61 124 60.2 124 C 59.3 124 58.9 123.6 58.9 122.8 C 58.9 122.8 58.9 122.7 58.9 122.6 C 58.4 123.5 57.7 124 56.6 124 C 55.3 124 54.6 123 54.6 121.3 C 54.6 118.5 56.1 116.1 58.4 116.1 Z M 59.1 121.6 C 59.1 121.6 59.7 117.5 59.7 117.5 C 59.5 117.4 59.3 117.3 59 117.3 C 57.7 117.3 56.9 119.2 56.9 121.3 C 56.9 122.2 57.2 122.6 57.7 122.6 C 58.3 122.6 58.7 122.2 59.1 121.6 Z M 66.2 121.5 C 66.22 121.48 67.3 121.5 67.3 121.5 C 67.3 121.5 67.42 123.02 67.4 123 C 67.6 123 67.9 123.1 68.1 123.1 C 68.9 123.1 69.5 122.6 69.5 122 C 69.5 121.4 68.9 121.1 68.2 120.7 C 68.2 120.7 67.6 120.4 67.6 120.4 C 67 120.1 66.5 119.5 66.5 118.6 C 66.5 117 67.7 116.1 69.6 116.1 C 70.6 116.1 71.6 116.3 72.1 116.5 C 72.1 117.3 72 118 71.6 118.6 C 71.61 118.63 70.5 118.6 70.5 118.6 C 70.5 118.6 70.45 117.14 70.4 117.1 C 70.2 117.1 70 117.1 69.8 117.1 C 69 117.1 68.5 117.4 68.5 118.1 C 68.5 118.6 69.1 118.9 69.6 119.2 C 69.6 119.2 70.2 119.5 70.2 119.5 C 70.9 120 71.6 120.5 71.6 121.5 C 71.6 123.1 70.4 124 68.3 124 C 67.4 124 66.3 123.9 65.7 123.6 C 65.7 122.8 65.9 122.1 66.2 121.5 Z M 76.2 116.1 C 76.2 116.1 76 117.8 76 117.8 C 76.7 116.7 77.5 116.1 78.6 116.1 C 79.7 116.1 80.3 116.7 80.3 117.6 C 80.3 117.6 80.3 117.7 80.3 117.8 C 81 116.7 81.8 116.1 82.9 116.1 C 84 116.1 84.6 116.7 84.6 117.6 C 84.6 117.9 84.5 118.2 84.5 118.5 C 84.5 118.5 83.9 121.5 83.9 121.5 C 83.8 121.9 83.8 122.1 83.8 122.3 C 83.8 122.6 84 122.7 84.4 122.7 C 84.41 122.71 84.9 122.7 84.9 122.7 C 84.9 122.7 84.77 123.59 84.8 123.6 C 84.4 123.8 83.6 124 82.8 124 C 82 124 81.5 123.6 81.5 122.9 C 81.5 122.6 81.6 122.2 81.6 121.9 C 81.6 121.9 82.2 119 82.2 119 C 82.2 118.7 82.3 118.5 82.3 118.3 C 82.3 117.9 82.1 117.7 81.6 117.7 C 81.2 117.7 80.7 118 80.1 118.7 C 80.13 118.74 79.3 123.9 79.3 123.9 L 77.1 123.9 C 77.1 123.9 77.9 118.94 77.9 118.9 C 77.9 118.7 78 118.5 78 118.3 C 78 117.9 77.8 117.7 77.3 117.7 C 76.8 117.7 76.4 118 75.8 118.8 C 75.82 118.78 75 123.9 75 123.9 L 72.8 123.9 L 73.8 117.5 L 72.8 117.3 C 72.8 117.3 72.93 116.52 72.9 116.5 C 73.6 116.3 75 116.1 76.2 116.1 Z M 89.6 116.1 C 90.3 116.1 90.8 116.3 91.1 116.8 C 91.5 116.5 92 116.2 92.5 116.1 C 92.51 116.07 93.3 116.3 93.3 116.3 C 93.3 116.3 92.45 121.5 92.4 121.5 C 92.4 121.8 92.4 122.1 92.4 122.3 C 92.4 122.6 92.5 122.7 92.9 122.7 C 92.94 122.71 93.5 122.7 93.5 122.7 C 93.5 122.7 93.31 123.59 93.3 123.6 C 92.9 123.8 92.2 124 91.4 124 C 90.5 124 90.1 123.6 90.1 122.8 C 90.1 122.8 90.1 122.7 90.1 122.6 C 89.6 123.5 88.9 124 87.8 124 C 86.5 124 85.8 123 85.8 121.3 C 85.8 118.5 87.3 116.1 89.6 116.1 Z M 90.2 121.6 C 90.2 121.6 90.9 117.5 90.9 117.5 C 90.7 117.4 90.4 117.3 90.2 117.3 C 88.9 117.3 88.1 119.2 88.1 121.3 C 88.1 122.2 88.4 122.6 88.9 122.6 C 89.5 122.6 89.9 122.2 90.2 121.6 Z M 98.2 112.7 C 98.2 112.7 96.8 121.4 96.8 121.4 C 96.7 121.8 96.7 122.1 96.7 122.2 C 96.7 122.6 96.8 122.7 97.3 122.7 C 97.29 122.71 97.8 122.7 97.8 122.7 C 97.8 122.7 97.65 123.59 97.6 123.6 C 97.2 123.8 96.5 124 95.7 124 C 94.9 124 94.4 123.6 94.4 122.8 C 94.4 122.6 94.5 122.2 94.5 121.9 C 94.51 121.94 95.7 114.1 95.7 114.1 L 94.6 113.9 C 94.6 113.9 94.7 113.1 94.7 113.1 C 95.4 112.9 97 112.7 98.2 112.7 Z M 102.5 112.7 C 102.5 112.7 101.1 121.4 101.1 121.4 C 101 121.8 101 122.1 101 122.2 C 101 122.6 101.2 122.7 101.6 122.7 C 101.6 122.71 102.1 122.7 102.1 122.7 C 102.1 122.7 101.95 123.59 101.9 123.6 C 101.6 123.8 100.8 124 100 124 C 99.2 124 98.7 123.6 98.7 122.8 C 98.7 122.6 98.8 122.2 98.8 121.9 C 98.81 121.94 100 114.1 100 114.1 L 98.9 113.9 C 98.9 113.9 99.01 113.1 99 113.1 C 99.7 112.9 101.3 112.7 102.5 112.7 Z M 109.6 116.1 C 110.3 116.1 110.8 116.3 111.1 116.8 C 111.5 116.5 112 116.2 112.5 116.1 C 112.53 116.07 113.3 116.3 113.3 116.3 C 113.3 116.3 112.46 121.5 112.5 121.5 C 112.4 121.8 112.4 122.1 112.4 122.3 C 112.4 122.6 112.5 122.7 113 122.7 C 112.96 122.71 113.5 122.7 113.5 122.7 C 113.5 122.7 113.33 123.59 113.3 123.6 C 112.9 123.8 112.2 124 111.4 124 C 110.5 124 110.1 123.6 110.1 122.8 C 110.1 122.8 110.1 122.7 110.1 122.6 C 109.6 123.5 108.9 124 107.8 124 C 106.5 124 105.8 123 105.8 121.3 C 105.8 118.5 107.3 116.1 109.6 116.1 Z M 110.3 121.6 C 110.3 121.6 110.9 117.5 110.9 117.5 C 110.7 117.4 110.5 117.3 110.2 117.3 C 108.9 117.3 108.1 119.2 108.1 121.3 C 108.1 122.2 108.4 122.6 108.9 122.6 C 109.5 122.6 109.9 122.2 110.3 121.6 Z M 116 112.9 C 116.3 112.9 116.7 112.8 117.2 112.8 C 117.6 112.8 118 112.9 118.2 112.9 C 118.2 113.5 118 114.4 117.8 114.9 C 117.5 115 117.2 115.1 116.7 115.1 C 116.3 115.1 116 115 115.8 114.9 C 115.8 114.2 115.9 113.5 116 112.9 Z M 117.7 116.1 C 117.7 116.1 116.9 121.4 116.9 121.4 C 116.8 121.8 116.8 122.1 116.8 122.2 C 116.8 122.6 116.9 122.7 117.4 122.7 C 117.36 122.71 117.9 122.7 117.9 122.7 C 117.9 122.7 117.73 123.59 117.7 123.6 C 117.3 123.8 116.6 124 115.8 124 C 114.9 124 114.5 123.6 114.5 122.8 C 114.5 122.6 114.5 122.2 114.6 121.9 C 114.59 121.94 115.3 117.5 115.3 117.5 L 114.3 117.3 C 114.3 117.3 114.4 116.52 114.4 116.5 C 115.1 116.3 116.5 116.1 117.7 116.1 Z M 122.2 116.1 C 122.2 116.1 121.9 118 121.9 118 C 122.5 116.8 123.3 116.1 124.2 116.1 C 124.6 116.1 124.9 116.2 125.1 116.3 C 125.1 117.2 124.8 118.4 124.5 119 C 124.54 119 123.3 119 123.3 119 C 123.3 119 123.23 117.64 123.2 117.6 C 122.7 117.7 122.2 118.3 121.7 119.1 C 121.69 119.14 121 123.9 121 123.9 L 118.7 123.9 L 119.7 117.5 L 118.8 117.3 C 118.8 117.3 118.86 116.52 118.9 116.5 C 119.6 116.3 121 116.1 122.2 116.1 Z M 129.1 116.1 C 129.1 116.1 128.9 117.4 128.9 117.4 C 129.4 116.6 130.2 116.1 131.2 116.1 C 132.5 116.1 133.2 117.2 133.2 118.8 C 133.2 121.6 131.9 124 129.4 124 C 128.8 124 128.3 123.8 128 123.5 C 128 123.5 127.6 125.8 127.6 125.8 C 128.2 125.9 128.7 125.9 129 126.1 C 128.97 126.07 128.8 126.9 128.8 126.9 L 124.3 126.9 C 124.3 126.9 124.43 126.07 124.4 126.1 C 124.7 126 125 125.9 125.4 125.8 C 125.39 125.85 126.7 117.5 126.7 117.5 L 125.7 117.3 C 125.7 117.3 125.84 116.52 125.8 116.5 C 126.6 116.3 127.9 116.1 129.1 116.1 Z M 128.8 118.6 C 128.8 118.6 128.1 122.6 128.1 122.6 C 128.3 122.7 128.6 122.8 128.8 122.8 C 130.1 122.8 130.9 120.9 130.9 118.8 C 130.9 117.9 130.7 117.5 130.1 117.5 C 129.6 117.5 129.1 117.9 128.8 118.6 Z M 137.8 112.7 C 137.8 112.7 136.5 121.4 136.5 121.4 C 136.4 121.8 136.4 122.1 136.4 122.2 C 136.4 122.6 136.5 122.7 137 122.7 C 136.97 122.71 137.5 122.7 137.5 122.7 C 137.5 122.7 137.32 123.59 137.3 123.6 C 136.9 123.8 136.2 124 135.4 124 C 134.5 124 134.1 123.6 134.1 122.8 C 134.1 122.6 134.1 122.2 134.2 121.9 C 134.19 121.94 135.4 114.1 135.4 114.1 L 134.3 113.9 C 134.3 113.9 134.38 113.1 134.4 113.1 C 135.1 112.9 136.7 112.7 137.8 112.7 Z M 142.1 116.1 C 142.8 116.1 143.3 116.3 143.6 116.8 C 144 116.5 144.5 116.2 145 116.1 C 145.02 116.07 145.8 116.3 145.8 116.3 C 145.8 116.3 144.96 121.5 145 121.5 C 144.9 121.8 144.9 122.1 144.9 122.3 C 144.9 122.6 145 122.7 145.5 122.7 C 145.45 122.71 146 122.7 146 122.7 C 146 122.7 145.82 123.59 145.8 123.6 C 145.4 123.8 144.7 124 143.9 124 C 143 124 142.6 123.6 142.6 122.8 C 142.6 122.8 142.6 122.7 142.6 122.6 C 142.1 123.5 141.4 124 140.3 124 C 139 124 138.3 123 138.3 121.3 C 138.3 118.5 139.8 116.1 142.1 116.1 Z M 142.7 121.6 C 142.7 121.6 143.4 117.5 143.4 117.5 C 143.2 117.4 143 117.3 142.7 117.3 C 141.4 117.3 140.6 119.2 140.6 121.3 C 140.6 122.2 140.9 122.6 141.4 122.6 C 142 122.6 142.4 122.2 142.7 121.6 Z M 150.3 116.1 C 150.3 116.1 150 117.8 150 117.8 C 150.7 116.7 151.5 116.1 152.6 116.1 C 153.8 116.1 154.3 116.7 154.3 117.6 C 154.3 117.9 154.3 118.2 154.2 118.5 C 154.2 118.5 153.7 121.5 153.7 121.5 C 153.6 121.9 153.6 122.1 153.6 122.3 C 153.6 122.6 153.7 122.7 154.2 122.7 C 154.17 122.71 154.7 122.7 154.7 122.7 C 154.7 122.7 154.54 123.59 154.5 123.6 C 154.1 123.8 153.4 124 152.6 124 C 151.7 124 151.3 123.6 151.3 122.9 C 151.3 122.6 151.4 122.2 151.4 121.9 C 151.4 121.9 151.9 119 151.9 119 C 152 118.7 152 118.5 152 118.3 C 152 117.9 151.8 117.7 151.4 117.7 C 150.9 117.7 150.4 118 149.9 118.8 C 149.85 118.78 149.1 123.9 149.1 123.9 L 146.8 123.9 L 147.8 117.5 L 146.9 117.3 C 146.9 117.3 146.96 116.52 147 116.5 C 147.7 116.3 149.1 116.1 150.3 116.1 Z M 159.6 116.1 C 161.2 116.1 162 116.8 162 117.9 C 162 119.4 160.9 120.3 158.5 120.3 C 158.5 120.3 157.8 120.3 157.8 120.3 C 157.8 120.5 157.8 120.8 157.8 121 C 157.8 122.1 158.3 122.5 158.9 122.5 C 159.7 122.5 160.2 122.1 160.7 121.2 C 160.7 121.2 161.5 121.6 161.5 121.6 C 160.9 123.2 159.7 124.1 158.2 124.1 C 156.4 124.1 155.5 123 155.5 121.2 C 155.5 118.5 157 116.1 159.6 116.1 Z M 157.9 119.5 C 157.9 119.5 158.3 119.5 158.3 119.5 C 159.5 119.5 160 118.8 160 118 C 160 117.5 159.8 117.3 159.4 117.3 C 158.6 117.3 158.1 118.2 157.9 119.5 Z M 167.4 112.9 C 167.7 112.9 168.1 112.8 168.6 112.8 C 169 112.8 169.4 112.9 169.6 112.9 C 169.6 113.5 169.4 114.4 169.1 114.9 C 168.9 115 168.6 115.1 168.1 115.1 C 167.7 115.1 167.4 115 167.2 114.9 C 167.2 114.2 167.2 113.5 167.4 112.9 Z M 169.1 116.1 C 169.1 116.1 168.3 121.4 168.3 121.4 C 168.2 121.8 168.2 122.1 168.2 122.2 C 168.2 122.6 168.3 122.7 168.7 122.7 C 168.75 122.71 169.3 122.7 169.3 122.7 C 169.3 122.7 169.12 123.59 169.1 123.6 C 168.7 123.8 168 124 167.2 124 C 166.3 124 165.9 123.6 165.9 122.8 C 165.9 122.6 165.9 122.2 166 121.9 C 165.98 121.94 166.7 117.5 166.7 117.5 L 165.7 117.3 C 165.7 117.3 165.79 116.52 165.8 116.5 C 166.5 116.3 167.9 116.1 169.1 116.1 Z M 170.5 121.5 C 170.46 121.48 171.5 121.5 171.5 121.5 C 171.5 121.5 171.66 123.02 171.7 123 C 171.9 123 172.1 123.1 172.3 123.1 C 173.2 123.1 173.7 122.6 173.7 122 C 173.7 121.4 173.1 121.1 172.4 120.7 C 172.4 120.7 171.9 120.4 171.9 120.4 C 171.2 120.1 170.7 119.5 170.7 118.6 C 170.7 117 172 116.1 173.8 116.1 C 174.8 116.1 175.8 116.3 176.3 116.5 C 176.3 117.3 176.2 118 175.9 118.6 C 175.85 118.63 174.7 118.6 174.7 118.6 C 174.7 118.6 174.68 117.14 174.7 117.1 C 174.5 117.1 174.2 117.1 174 117.1 C 173.3 117.1 172.8 117.4 172.8 118.1 C 172.8 118.6 173.3 118.9 173.8 119.2 C 173.8 119.2 174.4 119.5 174.4 119.5 C 175.2 120 175.9 120.5 175.9 121.5 C 175.9 123.1 174.6 124 172.5 124 C 171.6 124 170.5 123.9 169.9 123.6 C 170 122.8 170.2 122.1 170.5 121.5 Z M 183.4 116.1 C 183.4 116.1 183.1 118 183.1 118 C 183.7 116.8 184.5 116.1 185.4 116.1 C 185.9 116.1 186.2 116.2 186.3 116.3 C 186.3 117.2 186.1 118.4 185.8 119 C 185.79 119 184.6 119 184.6 119 C 184.6 119 184.48 117.64 184.5 117.6 C 184 117.7 183.5 118.3 182.9 119.1 C 182.94 119.14 182.2 123.9 182.2 123.9 L 180 123.9 L 181 117.5 L 180 117.3 C 180 117.3 180.11 116.52 180.1 116.5 C 180.8 116.3 182.2 116.1 183.4 116.1 Z M 190.5 116.1 C 192 116.1 192.9 116.8 192.9 117.9 C 192.9 119.4 191.7 120.3 189.3 120.3 C 189.3 120.3 188.7 120.3 188.7 120.3 C 188.7 120.5 188.7 120.8 188.7 121 C 188.7 122.1 189.1 122.5 189.8 122.5 C 190.5 122.5 191 122.1 191.6 121.2 C 191.6 121.2 192.3 121.6 192.3 121.6 C 191.7 123.2 190.5 124.1 189 124.1 C 187.3 124.1 186.4 123 186.4 121.2 C 186.4 118.5 187.8 116.1 190.5 116.1 Z M 188.8 119.5 C 188.8 119.5 189.1 119.5 189.1 119.5 C 190.3 119.5 190.9 118.8 190.9 118 C 190.9 117.5 190.7 117.3 190.2 117.3 C 189.5 117.3 189 118.2 188.8 119.5 Z M 197.2 116.1 C 197.9 116.1 198.4 116.3 198.7 116.7 C 199.1 116.4 199.6 116.2 200.1 116.1 C 200.06 116.07 200.8 116.3 200.8 116.3 C 200.8 116.3 199.34 125.85 199.3 125.8 C 199.7 125.9 200 126 200.3 126.1 C 200.28 126.07 200.2 126.9 200.2 126.9 L 195.6 126.9 C 195.6 126.9 195.74 126.07 195.7 126.1 C 196.1 125.9 196.6 125.9 197.1 125.8 C 197.1 125.8 197.7 122.7 197.7 122.7 C 197.1 123.5 196.4 124 195.4 124 C 194.1 124 193.4 123 193.4 121.3 C 193.4 118.5 194.9 116.1 197.2 116.1 Z M 197.8 121.6 C 197.8 121.6 198.5 117.5 198.5 117.5 C 198.3 117.4 198 117.3 197.8 117.3 C 196.4 117.3 195.7 119.2 195.7 121.3 C 195.7 122.2 195.9 122.6 196.5 122.6 C 197 122.6 197.5 122.2 197.8 121.6 Z M 209.4 116.1 C 209.4 116.1 208.5 121.5 208.5 121.5 C 208.5 121.8 208.4 122.1 208.4 122.3 C 208.4 122.6 208.6 122.7 209 122.7 C 209 122.71 209.5 122.7 209.5 122.7 C 209.5 122.7 209.37 123.59 209.4 123.6 C 209 123.8 208.2 124 207.5 124 C 206.5 124 206.2 123.6 206.2 122.8 C 206.2 122.7 206.2 122.4 206.2 122.3 C 206.2 122.3 206.2 122.2 206.2 122.2 C 205.6 123.4 204.6 124 203.5 124 C 202.4 124 201.9 123.4 201.9 122.5 C 201.9 122.3 201.9 122 202 121.8 C 201.96 121.75 202.7 117.5 202.7 117.5 L 201.7 117.3 C 201.7 117.3 201.79 116.52 201.8 116.5 C 202.5 116.3 203.9 116.1 205.1 116.1 C 205.1 116.1 204.3 121.1 204.3 121.1 C 204.2 121.3 204.2 121.6 204.2 121.8 C 204.2 122.2 204.4 122.4 204.8 122.4 C 205.3 122.4 205.8 122.1 206.3 121.3 C 206.33 121.3 206.9 117.5 206.9 117.5 L 206 117.3 C 206 117.3 206.11 116.52 206.1 116.5 C 206.8 116.3 208.2 116.1 209.4 116.1 Z M 212.2 112.9 C 212.4 112.9 212.8 112.8 213.3 112.8 C 213.7 112.8 214.1 112.9 214.4 112.9 C 214.4 113.5 214.1 114.4 213.9 114.9 C 213.6 115 213.3 115.1 212.9 115.1 C 212.5 115.1 212.1 115 211.9 114.9 C 211.9 114.2 212 113.5 212.2 112.9 Z M 213.8 116.1 C 213.8 116.1 213 121.4 213 121.4 C 212.9 121.8 212.9 122.1 212.9 122.2 C 212.9 122.6 213.1 122.7 213.5 122.7 C 213.48 122.71 214 122.7 214 122.7 C 214 122.7 213.85 123.59 213.9 123.6 C 213.5 123.8 212.7 124 211.9 124 C 211.1 124 210.6 123.6 210.6 122.8 C 210.6 122.6 210.7 122.2 210.7 121.9 C 210.72 121.94 211.4 117.5 211.4 117.5 L 210.4 117.3 C 210.4 117.3 210.52 116.52 210.5 116.5 C 211.2 116.3 212.6 116.1 213.8 116.1 Z M 218.3 116.1 C 218.3 116.1 218 118 218 118 C 218.6 116.8 219.4 116.1 220.3 116.1 C 220.7 116.1 221.1 116.2 221.2 116.3 C 221.2 117.2 221 118.4 220.7 119 C 220.67 119 219.5 119 219.5 119 C 219.5 119 219.36 117.64 219.4 117.6 C 218.9 117.7 218.3 118.3 217.8 119.1 C 217.82 119.14 217.1 123.9 217.1 123.9 L 214.9 123.9 L 215.9 117.5 L 214.9 117.3 C 214.9 117.3 214.99 116.52 215 116.5 C 215.7 116.3 217.1 116.1 218.3 116.1 Z M 225.4 116.1 C 226.9 116.1 227.8 116.8 227.8 117.9 C 227.8 119.4 226.6 120.3 224.2 120.3 C 224.2 120.3 223.6 120.3 223.6 120.3 C 223.5 120.5 223.5 120.8 223.5 121 C 223.5 122.1 224 122.5 224.7 122.5 C 225.4 122.5 225.9 122.1 226.4 121.2 C 226.4 121.2 227.2 121.6 227.2 121.6 C 226.6 123.2 225.4 124.1 223.9 124.1 C 222.1 124.1 221.2 123 221.2 121.2 C 221.2 118.5 222.7 116.1 225.4 116.1 Z M 223.7 119.5 C 223.7 119.5 224 119.5 224 119.5 C 225.2 119.5 225.8 118.8 225.8 118 C 225.8 117.5 225.5 117.3 225.1 117.3 C 224.4 117.3 223.9 118.2 223.7 119.5 Z M 236.3 112.7 C 236.3 112.7 234.9 121.4 234.9 121.4 C 234.9 121.8 234.8 122.1 234.8 122.3 C 234.8 122.6 235 122.7 235.4 122.7 C 235.4 122.71 235.9 122.7 235.9 122.7 C 235.9 122.7 235.77 123.59 235.8 123.6 C 235.4 123.8 234.6 124 233.9 124 C 233 124 232.6 123.6 232.6 122.8 C 232.6 122.8 232.6 122.7 232.6 122.6 C 232.1 123.5 231.3 124 230.3 124 C 228.9 124 228.2 123 228.2 121.3 C 228.2 118.5 229.8 116.1 232 116.1 C 232.7 116.1 233.2 116.3 233.5 116.7 C 233.48 116.66 233.9 114.1 233.9 114.1 L 232.7 113.9 C 232.7 113.9 232.79 113.1 232.8 113.1 C 233.5 112.9 235.1 112.7 236.3 112.7 Z M 232.7 121.5 C 232.7 121.5 233.4 117.5 233.4 117.5 C 233.1 117.4 232.9 117.3 232.7 117.3 C 231.3 117.3 230.5 119.2 230.5 121.3 C 230.5 122.2 230.8 122.6 231.4 122.6 C 231.9 122.6 232.3 122.2 232.7 121.5 Z M 236.7 122.9 C 236.7 121.9 237.3 121.3 238.2 121.3 C 238.9 121.3 239.4 121.7 239.4 122.5 C 239.4 123.4 238.9 124.1 238 124.1 C 237.2 124.1 236.7 123.6 236.7 122.9 Z " stroke="none" fill="#404040"/>  </g></svg>