<?xml version="1.0" standalone="no"?><!DOCTYPE svg PUBLIC "-//W3C//DTD SVG 1.1//EN" "http://www.w3.org/Graphics/SVG/1.1/DTD/svg11.dtd"><svg xmlns="http://www.w3.org/2000/svg" version="1.1" width="410px" height="90.5px" viewBox="0 0 410 90.5">  <desc>Santa Rosa Island 52,794 acres</desc>  <defs/>  <g id="Polygon9833">    <path d="M 8.7 63 L 4.1 63 C 4.1 63 3.82 64.81 3.8 64.8 C 4.1 64.8 4.3 64.8 4.6 64.8 C 5.7 64.8 6.9 65 7.7 65.6 C 8.6 66.2 9.1 67.2 9.1 68.6 C 9.1 70.8 7.2 72.7 4.1 72.7 C 2.6 72.7 1.4 72.4 0.8 72.1 C 0.8 72.1 1.3 70 1.3 70 C 1.8 70.2 2.9 70.6 3.9 70.6 C 5.1 70.6 6.3 70 6.3 68.8 C 6.3 67.6 5.3 66.8 3 66.8 C 2.3 66.8 1.9 66.8 1.4 66.9 C 1.38 66.92 2.1 60.7 2.1 60.7 L 8.7 60.7 L 8.7 63 Z M 10.9 72.5 L 10.9 70.9 C 10.9 70.9 12.38 69.5 12.4 69.5 C 15 67.2 16.2 65.8 16.2 64.5 C 16.2 63.5 15.7 62.7 14.3 62.7 C 13.3 62.7 12.4 63.2 11.8 63.7 C 11.8 63.7 11 61.7 11 61.7 C 11.9 61.1 13.3 60.5 14.9 60.5 C 17.6 60.5 19 62.1 19 64.2 C 19 66.2 17.6 67.8 15.9 69.3 C 15.87 69.32 14.8 70.2 14.8 70.2 L 14.8 70.3 L 19.2 70.3 L 19.2 72.5 L 10.9 72.5 Z M 20.2 74.7 C 20.8 73.1 21.3 71.2 21.5 69.5 C 21.5 69.5 24.3 69.4 24.3 69.4 C 23.7 71.2 22.9 73.1 22 74.5 C 22 74.5 20.2 74.7 20.2 74.7 Z M 34.1 60.7 L 34.1 62.5 L 29.3 72.5 L 26.3 72.5 L 31.2 63 L 31.2 63 L 25.8 63 L 25.8 60.7 L 34.1 60.7 Z M 36.6 70.6 C 37 70.6 37.3 70.6 37.8 70.6 C 38.7 70.5 39.5 70.3 40.1 69.8 C 40.9 69.3 41.4 68.5 41.6 67.6 C 41.6 67.6 41.6 67.6 41.6 67.6 C 41.1 68.2 40.3 68.5 39.2 68.5 C 37.2 68.5 35.5 67.1 35.5 64.8 C 35.5 62.5 37.4 60.5 40 60.5 C 43 60.5 44.5 62.8 44.5 65.6 C 44.5 68.1 43.7 69.9 42.4 71.1 C 41.3 72.1 39.7 72.6 37.9 72.7 C 37.4 72.7 36.9 72.7 36.6 72.7 C 36.6 72.7 36.6 70.6 36.6 70.6 Z M 38.3 64.6 C 38.3 65.6 38.8 66.5 39.9 66.5 C 40.7 66.5 41.2 66.2 41.5 65.7 C 41.6 65.6 41.6 65.4 41.6 65 C 41.6 63.8 41.2 62.5 39.9 62.5 C 38.9 62.5 38.3 63.4 38.3 64.6 Z M 50.7 72.5 L 50.7 69.7 L 45.5 69.7 L 45.5 67.9 L 49.9 60.7 L 53.3 60.7 L 53.3 67.6 L 54.7 67.6 L 54.7 69.7 L 53.3 69.7 L 53.3 72.5 L 50.7 72.5 Z M 50.7 67.6 C 50.7 67.6 50.72 65.03 50.7 65 C 50.7 64.3 50.8 63.6 50.8 62.8 C 50.8 62.8 50.7 62.8 50.7 62.8 C 50.4 63.6 50 64.3 49.6 65 C 49.63 65.03 48.1 67.6 48.1 67.6 L 48.1 67.6 L 50.7 67.6 Z M 67.3 70.4 C 67.3 71.2 67.4 72 67.5 72.5 C 67.48 72.53 65 72.5 65 72.5 L 64.8 71.6 C 64.8 71.6 64.77 71.64 64.8 71.6 C 64.2 72.4 63.3 72.7 62.2 72.7 C 60.4 72.7 59.4 71.4 59.4 70 C 59.4 67.7 61.4 66.6 64.6 66.6 C 64.6 66.6 64.6 66.5 64.6 66.5 C 64.6 66 64.3 65.3 63 65.3 C 62 65.3 61.1 65.6 60.5 66 C 60.5 66 60 64.2 60 64.2 C 60.6 63.9 61.8 63.4 63.4 63.4 C 66.4 63.4 67.3 65.2 67.3 67.3 C 67.3 67.3 67.3 70.4 67.3 70.4 Z M 64.7 68.3 C 63.2 68.3 62.1 68.7 62.1 69.7 C 62.1 70.4 62.6 70.8 63.2 70.8 C 63.8 70.8 64.4 70.3 64.6 69.8 C 64.6 69.6 64.7 69.5 64.7 69.3 C 64.7 69.3 64.7 68.3 64.7 68.3 Z M 76.2 72.3 C 75.7 72.5 74.8 72.7 73.7 72.7 C 70.9 72.7 69 71 69 68.2 C 69 65.6 70.8 63.4 74.1 63.4 C 74.8 63.4 75.6 63.6 76.2 63.8 C 76.2 63.8 75.8 65.8 75.8 65.8 C 75.5 65.7 75 65.6 74.2 65.6 C 72.8 65.6 71.8 66.6 71.9 68.1 C 71.9 69.7 72.9 70.6 74.3 70.6 C 74.9 70.6 75.5 70.4 75.9 70.3 C 75.9 70.3 76.2 72.3 76.2 72.3 Z M 77.7 66.6 C 77.7 65.3 77.7 64.4 77.7 63.6 C 77.66 63.65 80 63.6 80 63.6 L 80.1 65.3 C 80.1 65.3 80.2 65.28 80.2 65.3 C 80.7 64 81.7 63.4 82.6 63.4 C 82.9 63.4 83 63.4 83.2 63.5 C 83.2 63.5 83.2 66.1 83.2 66.1 C 83 66 82.7 66 82.4 66 C 81.4 66 80.7 66.6 80.5 67.4 C 80.5 67.6 80.5 67.8 80.5 68 C 80.49 68.03 80.5 72.5 80.5 72.5 L 77.7 72.5 C 77.7 72.5 77.73 66.57 77.7 66.6 Z M 86.6 69 C 86.7 70.1 87.8 70.7 89.1 70.7 C 90.1 70.7 90.8 70.5 91.6 70.3 C 91.6 70.3 91.9 72.2 91.9 72.2 C 91 72.5 89.9 72.7 88.7 72.7 C 85.7 72.7 84 71 84 68.2 C 84 65.9 85.4 63.4 88.5 63.4 C 91.3 63.4 92.4 65.7 92.4 67.9 C 92.4 68.4 92.4 68.8 92.3 69 C 92.3 69 86.6 69 86.6 69 Z M 89.9 67.1 C 89.9 66.4 89.6 65.3 88.3 65.3 C 87.1 65.3 86.7 66.4 86.6 67.1 C 86.6 67.1 89.9 67.1 89.9 67.1 Z M 94.1 70.1 C 94.6 70.4 95.6 70.8 96.4 70.8 C 97.3 70.8 97.6 70.5 97.6 70.1 C 97.6 69.6 97.4 69.4 96.3 69 C 94.5 68.4 93.8 67.4 93.8 66.4 C 93.8 64.7 95.2 63.4 97.4 63.4 C 98.4 63.4 99.4 63.7 99.9 64 C 99.9 64 99.4 65.9 99.4 65.9 C 99 65.6 98.2 65.4 97.5 65.4 C 96.8 65.4 96.4 65.6 96.4 66.1 C 96.4 66.5 96.8 66.7 97.9 67.1 C 99.6 67.7 100.3 68.6 100.3 69.8 C 100.3 71.5 99 72.7 96.4 72.7 C 95.3 72.7 94.2 72.5 93.6 72.1 C 93.6 72.1 94.1 70.1 94.1 70.1 Z " stroke="none" fill="#000"/>  </g>  <g id="Polygon9832">    <path d="M 1.4 24.4 C 1.37 24.39 5 23.8 5 23.8 C 5 23.8 6.74 29.2 6.7 29.2 C 7.6 29.4 8.4 29.5 9.2 29.5 C 11.9 29.5 13.4 28.3 13.4 25.8 C 13.4 23.7 12.2 23 10.2 22.3 C 10.2 22.3 7.5 21.4 7.5 21.4 C 3.8 20.2 1.4 17.9 1.4 13.8 C 1.4 8.2 6.4 5.8 12 5.8 C 15.1 5.8 18 6.4 19.4 7.1 C 19.6 7.7 19.7 8.7 19.7 9.5 C 19.7 10.8 19.6 12.6 19.3 13.8 C 19.26 13.81 15.8 13.8 15.8 13.8 C 15.8 13.8 14.78 9.25 14.8 9.2 C 13.9 9.1 13 9 12.2 9 C 9.9 9 7.9 10 7.9 12.3 C 7.9 14.1 8.7 15.1 10.7 15.7 C 10.7 15.7 14.1 16.7 14.1 16.7 C 18.5 18.1 20.6 20.2 20.6 24.1 C 20.6 30.2 14.8 32.6 9.4 32.6 C 6.3 32.6 3.6 31.9 2 30.9 C 1.5 29.3 1.4 26.3 1.4 24.4 Z M 33.9 20.8 C 33.9 20.8 33.9 18.3 33.9 18.3 C 33.9 16.4 33.1 15.5 31 15.5 C 30.5 15.5 29.8 15.5 29.2 15.7 C 29.2 15.67 28.6 19.1 28.6 19.1 C 28.6 19.1 24.72 19.06 24.7 19.1 C 24.4 18 24.2 16.9 24.2 15.9 C 24.2 15.3 24.3 14.6 24.4 14.1 C 26.9 12.8 30.1 12.2 33.1 12.2 C 38 12.2 40.7 14.1 40.7 18 C 40.7 21.2 40.5 25.2 40.5 28.8 C 40.51 28.8 42.5 29.3 42.5 29.3 C 42.5 29.3 42.53 31.54 42.5 31.5 C 40.3 32.1 37.4 32.5 34 32.5 C 34 32.5 34 29.6 34 29.6 C 33.1 31.4 31.1 32.6 28.7 32.6 C 25.3 32.6 23 30.8 23 27.1 C 23 22 27.9 21.1 33.9 20.8 Z M 33.9 28 C 33.9 28 33.9 23.2 33.9 23.2 C 31.1 23.4 29.4 24.2 29.4 26.4 C 29.4 28 30.5 28.8 31.8 28.8 C 32.6 28.8 33.3 28.5 33.9 28 Z M 46.4 29.4 C 46.44 29.36 46.4 16.3 46.4 16.3 L 44.4 15.8 C 44.4 15.8 44.42 13.37 44.4 13.4 C 46.7 12.8 49.8 12.3 53.2 12.3 C 53.2 12.3 53.2 15.4 53.2 15.4 C 54.6 13.2 57.1 12.2 59.9 12.2 C 63.9 12.2 66.1 14.6 66.1 18.1 C 66.1 18.1 66.1 29.4 66.1 29.4 C 67 29.4 67.7 29.7 68.1 29.9 C 68.13 29.89 68.1 32.1 68.1 32.1 L 57.2 32.1 C 57.2 32.1 57.23 29.89 57.2 29.9 C 57.7 29.7 58.4 29.4 59.3 29.4 C 59.3 29.4 59.3 19.5 59.3 19.5 C 59.3 17.9 58.4 17 56.7 17 C 55.5 17 54.3 17.3 53.2 18.4 C 53.2 18.4 53.2 29.4 53.2 29.4 C 54.1 29.4 54.9 29.7 55.3 29.9 C 55.33 29.89 55.3 32.1 55.3 32.1 L 44.4 32.1 C 44.4 32.1 44.38 29.89 44.4 29.9 C 44.8 29.7 45.6 29.4 46.4 29.4 Z M 72 12.8 C 72 12.8 72.2 9.4 72.2 9.4 C 73.9 9 76.4 8.8 78.7 8.8 C 78.67 8.8 78.6 12.6 78.6 12.6 L 82.9 12.6 L 82.9 15.8 L 78.6 15.8 C 78.6 15.8 78.39 25.73 78.4 25.7 C 78.4 27.5 79 28.3 80.3 28.3 C 81.3 28.3 81.9 27.8 82.7 27.1 C 82.7 27.1 83.8 28.8 83.8 28.8 C 82.8 30.7 80.6 32.6 77.2 32.6 C 73.6 32.6 71.6 30.6 71.6 27.1 C 71.6 27.06 71.8 15.8 71.8 15.8 L 69.7 15.8 C 69.7 15.8 69.71 13.45 69.7 13.4 C 70.1 13.2 70.8 13 72 12.8 Z M 96.2 20.8 C 96.2 20.8 96.2 18.3 96.2 18.3 C 96.2 16.4 95.4 15.5 93.3 15.5 C 92.8 15.5 92.2 15.5 91.5 15.7 C 91.51 15.67 90.9 19.1 90.9 19.1 C 90.9 19.1 87.03 19.06 87 19.1 C 86.7 18 86.5 16.9 86.5 15.9 C 86.5 15.3 86.6 14.6 86.7 14.1 C 89.2 12.8 92.4 12.2 95.4 12.2 C 100.3 12.2 103 14.1 103 18 C 103 21.2 102.8 25.2 102.8 28.8 C 102.82 28.8 104.8 29.3 104.8 29.3 C 104.8 29.3 104.84 31.54 104.8 31.5 C 102.6 32.1 99.8 32.5 96.3 32.5 C 96.3 32.5 96.3 29.6 96.3 29.6 C 95.4 31.4 93.4 32.6 91 32.6 C 87.6 32.6 85.3 30.8 85.3 27.1 C 85.3 22 90.3 21.1 96.2 20.8 Z M 96.2 28 C 96.2 28 96.2 23.2 96.2 23.2 C 93.4 23.4 91.7 24.2 91.7 26.4 C 91.7 28 92.8 28.8 94.1 28.8 C 94.9 28.8 95.6 28.5 96.2 28 Z M 116.4 29.2 C 116.4 29.2 116.4 9.2 116.4 9.2 C 115.4 9.2 114.7 9 114.1 8.7 C 114.05 8.72 114.1 6.3 114.1 6.3 C 114.1 6.3 127.94 6.3 127.9 6.3 C 133.3 6.3 136.9 8.8 136.9 13.4 C 136.9 16.3 135 18.6 132.5 19.5 C 132.5 19.5 137.1 29.3 137.1 29.3 C 137.9 29.4 138.5 29.5 139 29.7 C 139.01 29.72 139 32.1 139 32.1 L 130.5 32.1 L 126.3 21.7 L 123.7 21.7 C 123.7 21.7 123.66 29.2 123.7 29.2 C 124.7 29.3 125.5 29.5 126.1 29.7 C 126.09 29.72 126.1 32.1 126.1 32.1 L 114.1 32.1 C 114.1 32.1 114.05 29.72 114.1 29.7 C 114.7 29.5 115.4 29.3 116.4 29.2 Z M 123.7 18.6 C 123.7 18.6 125.6 18.62 125.6 18.6 C 128.2 18.6 129.6 16.8 129.6 13.8 C 129.6 10.8 128.1 9.2 125.5 9.2 C 125.48 9.21 123.7 9.2 123.7 9.2 L 123.7 18.6 Z M 150.6 12.2 C 156.7 12.2 160.7 15.2 160.7 22.3 C 160.7 29.2 156.1 32.6 150 32.6 C 143.9 32.6 139.9 29.6 139.9 22.5 C 139.9 15.5 144.6 12.2 150.6 12.2 Z M 153.6 23.1 C 153.6 18.9 152.9 15.3 150.2 15.3 C 147.8 15.3 147 17.7 147 21.6 C 147 25.9 147.7 29.5 150.5 29.5 C 152.9 29.5 153.6 27.1 153.6 23.1 Z M 163.2 29.9 C 163.2 28.6 163.4 27.1 163.7 25.8 C 163.73 25.85 167.3 25.8 167.3 25.8 C 167.3 25.8 167.93 29.44 167.9 29.4 C 168.5 29.6 169.2 29.6 169.9 29.6 C 171.6 29.6 172.8 28.9 172.8 27.3 C 172.8 25.9 171.7 25.4 169.8 24.8 C 169.8 24.8 167.6 24.2 167.6 24.2 C 165 23.4 163.2 21.7 163.2 18.4 C 163.2 13.9 167.3 12.2 172 12.2 C 174.2 12.2 176.7 12.6 178.2 13.2 C 178.4 13.7 178.4 14.4 178.4 14.9 C 178.4 16.2 178.2 17.6 177.9 18.9 C 177.86 18.9 174.3 18.9 174.3 18.9 C 174.3 18.9 173.66 15.35 173.7 15.3 C 173.2 15.2 172.6 15.1 172 15.1 C 170.6 15.1 169.1 15.8 169.1 17.2 C 169.1 18.8 170.3 19.2 171.8 19.7 C 171.8 19.7 174 20.4 174 20.4 C 177.1 21.3 179.2 22.7 179.2 26 C 179.2 30.3 176 32.6 169.9 32.6 C 167.6 32.6 164.9 32.2 163.4 31.6 C 163.2 31.1 163.2 30.4 163.2 29.9 Z M 192.3 20.8 C 192.3 20.8 192.3 18.3 192.3 18.3 C 192.3 16.4 191.5 15.5 189.4 15.5 C 188.8 15.5 188.2 15.5 187.6 15.7 C 187.59 15.67 187 19.1 187 19.1 C 187 19.1 183.11 19.06 183.1 19.1 C 182.8 18 182.6 16.9 182.6 15.9 C 182.6 15.3 182.7 14.6 182.8 14.1 C 185.3 12.8 188.5 12.2 191.5 12.2 C 196.4 12.2 199.1 14.1 199.1 18 C 199.1 21.2 198.9 25.2 198.9 28.8 C 198.9 28.8 200.9 29.3 200.9 29.3 C 200.9 29.3 200.92 31.54 200.9 31.5 C 198.7 32.1 195.8 32.5 192.4 32.5 C 192.4 32.5 192.4 29.6 192.4 29.6 C 191.5 31.4 189.5 32.6 187.1 32.6 C 183.7 32.6 181.4 30.8 181.4 27.1 C 181.4 22 186.3 21.1 192.3 20.8 Z M 192.3 28 C 192.3 28 192.3 23.2 192.3 23.2 C 189.5 23.4 187.8 24.2 187.8 26.4 C 187.8 28 188.8 28.8 190.2 28.8 C 191 28.8 191.7 28.5 192.3 28 Z M 212.5 29.2 C 212.5 29.2 212.5 9.2 212.5 9.2 C 211.5 9.2 210.7 9 210.1 8.7 C 210.13 8.72 210.1 6.3 210.1 6.3 L 222.2 6.3 C 222.2 6.3 222.17 8.72 222.2 8.7 C 221.6 9 220.8 9.2 219.7 9.2 C 219.7 9.2 219.7 29.2 219.7 29.2 C 220.8 29.3 221.6 29.5 222.2 29.7 C 222.17 29.72 222.2 32.1 222.2 32.1 L 210.1 32.1 C 210.1 32.1 210.13 29.72 210.1 29.7 C 210.7 29.5 211.5 29.3 212.5 29.2 Z M 224.4 29.9 C 224.4 28.6 224.6 27.1 225 25.8 C 224.95 25.85 228.5 25.8 228.5 25.8 C 228.5 25.8 229.15 29.44 229.2 29.4 C 229.8 29.6 230.4 29.6 231.1 29.6 C 232.8 29.6 234 28.9 234 27.3 C 234 25.9 232.9 25.4 231 24.8 C 231 24.8 228.9 24.2 228.9 24.2 C 226.2 23.4 224.4 21.7 224.4 18.4 C 224.4 13.9 228.5 12.2 233.2 12.2 C 235.4 12.2 238 12.6 239.5 13.2 C 239.6 13.7 239.6 14.4 239.6 14.9 C 239.6 16.2 239.5 17.6 239.1 18.9 C 239.09 18.9 235.6 18.9 235.6 18.9 C 235.6 18.9 234.89 15.35 234.9 15.3 C 234.4 15.2 233.8 15.1 233.2 15.1 C 231.8 15.1 230.3 15.8 230.3 17.2 C 230.3 18.8 231.5 19.2 233.1 19.7 C 233.1 19.7 235.2 20.4 235.2 20.4 C 238.3 21.3 240.4 22.7 240.4 26 C 240.4 30.3 237.2 32.6 231.1 32.6 C 228.9 32.6 226.1 32.2 224.6 31.6 C 224.5 31.1 224.4 30.4 224.4 29.9 Z M 244.1 29.4 C 244.14 29.36 244.1 7.7 244.1 7.7 L 241.8 7.2 C 241.8 7.2 241.75 4.81 241.8 4.8 C 244.1 4.2 247.5 3.9 250.9 3.9 C 250.9 3.9 250.9 29.4 250.9 29.4 C 251.8 29.4 252.5 29.7 253 29.9 C 253.02 29.89 253 32.1 253 32.1 L 242.1 32.1 C 242.1 32.1 242.08 29.89 242.1 29.9 C 242.5 29.7 243.2 29.4 244.1 29.4 Z M 265.5 20.8 C 265.5 20.8 265.5 18.3 265.5 18.3 C 265.5 16.4 264.7 15.5 262.7 15.5 C 262.1 15.5 261.5 15.5 260.9 15.7 C 260.86 15.67 260.3 19.1 260.3 19.1 C 260.3 19.1 256.37 19.06 256.4 19.1 C 256.1 18 255.9 16.9 255.9 15.9 C 255.9 15.3 256 14.6 256.1 14.1 C 258.6 12.8 261.8 12.2 264.7 12.2 C 269.7 12.2 272.3 14.1 272.3 18 C 272.3 21.2 272.2 25.2 272.2 28.8 C 272.16 28.8 274.2 29.3 274.2 29.3 C 274.2 29.3 274.18 31.54 274.2 31.5 C 271.9 32.1 269.1 32.5 265.7 32.5 C 265.7 32.5 265.7 29.6 265.7 29.6 C 264.7 31.4 262.7 32.6 260.3 32.6 C 257 32.6 254.6 30.8 254.6 27.1 C 254.6 22 259.6 21.1 265.5 20.8 Z M 265.5 28 C 265.5 28 265.5 23.2 265.5 23.2 C 262.7 23.4 261.1 24.2 261.1 26.4 C 261.1 28 262.1 28.8 263.5 28.8 C 264.3 28.8 265 28.5 265.5 28 Z M 278.1 29.4 C 278.1 29.36 278.1 16.3 278.1 16.3 L 276.1 15.8 C 276.1 15.8 276.08 13.37 276.1 13.4 C 278.4 12.8 281.5 12.3 284.9 12.3 C 284.9 12.3 284.9 15.4 284.9 15.4 C 286.3 13.2 288.8 12.2 291.6 12.2 C 295.6 12.2 297.7 14.6 297.7 18.1 C 297.7 18.1 297.7 29.4 297.7 29.4 C 298.6 29.4 299.3 29.7 299.8 29.9 C 299.79 29.89 299.8 32.1 299.8 32.1 L 288.9 32.1 C 288.9 32.1 288.88 29.89 288.9 29.9 C 289.3 29.7 290.1 29.4 290.9 29.4 C 290.9 29.4 290.9 19.5 290.9 19.5 C 290.9 17.9 290 17 288.4 17 C 287.1 17 286 17.3 284.9 18.4 C 284.9 18.4 284.9 29.4 284.9 29.4 C 285.8 29.4 286.5 29.7 287 29.9 C 286.99 29.89 287 32.1 287 32.1 L 276 32.1 C 276 32.1 276.04 29.89 276 29.9 C 276.5 29.7 277.2 29.4 278.1 29.4 Z M 310.9 12 C 312.6 12 314 12.7 314.9 13.6 C 314.89 13.61 314.9 7.7 314.9 7.7 L 312.4 7.2 C 312.4 7.2 312.39 4.81 312.4 4.8 C 314.7 4.2 318.2 3.9 321.7 3.9 C 321.68 3.88 321.7 28.8 321.7 28.8 L 323.7 29.3 C 323.7 29.3 323.7 31.54 323.7 31.5 C 321.4 32.1 318.4 32.5 315 32.5 C 315 32.5 315 29.3 315 29.3 C 314 31.4 311.9 32.6 309.5 32.6 C 304.7 32.6 301.6 29 301.6 22.9 C 301.6 16.2 305.4 12 310.9 12 Z M 314.9 27.1 C 314.9 27.1 314.9 16.1 314.9 16.1 C 314.4 16 313.9 16 313.4 16 C 310.3 16 308.7 18.7 308.7 22.3 C 308.7 26.7 310.3 28.3 312.5 28.3 C 313.4 28.3 314.2 27.9 314.9 27.1 Z " stroke="none" fill="#404040"/>  </g></svg>