<?xml version="1.0" standalone="no"?><!DOCTYPE svg PUBLIC "-//W3C//DTD SVG 1.1//EN" "http://www.w3.org/Graphics/SVG/1.1/DTD/svg11.dtd"><svg xmlns="http://www.w3.org/2000/svg" version="1.1" width="428px" height="90.5px" viewBox="0 0 428 90.5">  <desc>Santa Barbara Island 639 acres</desc>  <defs/>  <g id="Polygon9435">    <path d="M 8.3 62.7 C 8 62.7 7.7 62.7 7.2 62.7 C 4.8 62.9 3.7 64.2 3.4 65.5 C 3.4 65.5 3.4 65.5 3.4 65.5 C 4 65 4.9 64.6 5.9 64.6 C 7.9 64.6 9.6 66 9.6 68.5 C 9.6 70.8 7.8 72.7 5.3 72.7 C 2.1 72.7 0.5 70.4 0.5 67.6 C 0.5 65.4 1.4 63.5 2.7 62.3 C 3.8 61.2 5.4 60.7 7.2 60.6 C 7.7 60.5 8.1 60.5 8.3 60.6 C 8.3 60.6 8.3 62.7 8.3 62.7 Z M 6.8 68.6 C 6.8 67.5 6.2 66.6 5 66.6 C 4.3 66.6 3.7 67 3.4 67.6 C 3.3 67.8 3.3 68 3.3 68.3 C 3.3 69.6 3.9 70.7 5.2 70.7 C 6.2 70.7 6.8 69.8 6.8 68.6 Z M 11.3 69.8 C 11.8 70.1 13 70.6 14.1 70.6 C 15.5 70.6 16.2 69.9 16.2 69 C 16.2 67.8 15.1 67.3 13.9 67.3 C 13.87 67.28 12.7 67.3 12.7 67.3 L 12.7 65.3 C 12.7 65.3 13.83 65.3 13.8 65.3 C 14.8 65.3 15.9 64.9 15.9 63.9 C 15.9 63.2 15.4 62.7 14.2 62.7 C 13.2 62.7 12.2 63.1 11.7 63.4 C 11.7 63.4 11.2 61.4 11.2 61.4 C 11.9 61 13.3 60.5 14.8 60.5 C 17.3 60.5 18.7 61.8 18.7 63.5 C 18.7 64.7 18 65.7 16.6 66.2 C 16.6 66.2 16.6 66.2 16.6 66.2 C 18 66.5 19.1 67.6 19.1 69.1 C 19.1 71.2 17.3 72.7 14.3 72.7 C 12.8 72.7 11.5 72.3 10.8 71.9 C 10.8 71.9 11.3 69.8 11.3 69.8 Z M 21.8 70.6 C 22.2 70.6 22.4 70.6 23 70.6 C 23.8 70.5 24.7 70.3 25.3 69.8 C 26.1 69.3 26.6 68.5 26.8 67.6 C 26.8 67.6 26.8 67.6 26.8 67.6 C 26.2 68.2 25.5 68.5 24.4 68.5 C 22.4 68.5 20.7 67.1 20.7 64.8 C 20.7 62.5 22.6 60.5 25.2 60.5 C 28.2 60.5 29.6 62.8 29.6 65.6 C 29.6 68.1 28.9 69.9 27.6 71.1 C 26.4 72.1 24.9 72.6 23 72.7 C 22.6 72.7 22.1 72.7 21.8 72.7 C 21.8 72.7 21.8 70.6 21.8 70.6 Z M 23.5 64.6 C 23.5 65.6 24 66.5 25.1 66.5 C 25.9 66.5 26.4 66.2 26.7 65.7 C 26.8 65.6 26.8 65.4 26.8 65 C 26.8 63.8 26.4 62.5 25.1 62.5 C 24.1 62.5 23.5 63.4 23.5 64.6 Z M 42.4 70.4 C 42.4 71.2 42.5 72 42.6 72.5 C 42.58 72.53 40.1 72.5 40.1 72.5 L 39.9 71.6 C 39.9 71.6 39.87 71.64 39.9 71.6 C 39.3 72.4 38.4 72.7 37.3 72.7 C 35.5 72.7 34.5 71.4 34.5 70 C 34.5 67.7 36.5 66.6 39.7 66.6 C 39.7 66.6 39.7 66.5 39.7 66.5 C 39.7 66 39.4 65.3 38.1 65.3 C 37.1 65.3 36.2 65.6 35.6 66 C 35.6 66 35.1 64.2 35.1 64.2 C 35.7 63.9 36.9 63.4 38.5 63.4 C 41.5 63.4 42.4 65.2 42.4 67.3 C 42.4 67.3 42.4 70.4 42.4 70.4 Z M 39.8 68.3 C 38.3 68.3 37.2 68.7 37.2 69.7 C 37.2 70.4 37.7 70.8 38.3 70.8 C 38.9 70.8 39.5 70.3 39.7 69.8 C 39.7 69.6 39.8 69.5 39.8 69.3 C 39.8 69.3 39.8 68.3 39.8 68.3 Z M 51.3 72.3 C 50.8 72.5 49.9 72.7 48.8 72.7 C 46 72.7 44.1 71 44.1 68.2 C 44.1 65.6 45.9 63.4 49.2 63.4 C 49.9 63.4 50.7 63.6 51.3 63.8 C 51.3 63.8 50.9 65.8 50.9 65.8 C 50.6 65.7 50.1 65.6 49.3 65.6 C 47.9 65.6 46.9 66.6 47 68.1 C 47 69.7 48.1 70.6 49.4 70.6 C 50.1 70.6 50.6 70.4 51 70.3 C 51 70.3 51.3 72.3 51.3 72.3 Z M 52.8 66.6 C 52.8 65.3 52.8 64.4 52.8 63.6 C 52.76 63.65 55.1 63.6 55.1 63.6 L 55.2 65.3 C 55.2 65.3 55.3 65.28 55.3 65.3 C 55.8 64 56.8 63.4 57.7 63.4 C 58 63.4 58.1 63.4 58.3 63.5 C 58.3 63.5 58.3 66.1 58.3 66.1 C 58.1 66 57.8 66 57.5 66 C 56.5 66 55.8 66.6 55.6 67.4 C 55.6 67.6 55.6 67.8 55.6 68 C 55.59 68.03 55.6 72.5 55.6 72.5 L 52.8 72.5 C 52.8 72.5 52.83 66.57 52.8 66.6 Z M 61.7 69 C 61.8 70.1 62.9 70.7 64.2 70.7 C 65.2 70.7 65.9 70.5 66.7 70.3 C 66.7 70.3 67 72.2 67 72.2 C 66.1 72.5 65 72.7 63.8 72.7 C 60.8 72.7 59.1 71 59.1 68.2 C 59.1 65.9 60.5 63.4 63.6 63.4 C 66.4 63.4 67.5 65.7 67.5 67.9 C 67.5 68.4 67.5 68.8 67.4 69 C 67.4 69 61.7 69 61.7 69 Z M 65 67.1 C 65 66.4 64.7 65.3 63.4 65.3 C 62.2 65.3 61.8 66.4 61.7 67.1 C 61.7 67.1 65 67.1 65 67.1 Z M 69.2 70.1 C 69.7 70.4 70.7 70.8 71.6 70.8 C 72.4 70.8 72.7 70.5 72.7 70.1 C 72.7 69.6 72.5 69.4 71.4 69 C 69.6 68.4 68.9 67.4 68.9 66.4 C 68.9 64.7 70.3 63.4 72.5 63.4 C 73.5 63.4 74.5 63.7 75 64 C 75 64 74.5 65.9 74.5 65.9 C 74.1 65.6 73.3 65.4 72.6 65.4 C 71.9 65.4 71.6 65.6 71.6 66.1 C 71.6 66.5 71.9 66.7 73 67.1 C 74.7 67.7 75.4 68.6 75.4 69.8 C 75.4 71.5 74.1 72.7 71.6 72.7 C 70.4 72.7 69.4 72.5 68.7 72.1 C 68.7 72.1 69.2 70.1 69.2 70.1 Z " stroke="none" fill="#000"/>  </g>  <g id="Polygon9434">    <path d="M 1.4 24.4 C 1.37 24.39 5 23.8 5 23.8 C 5 23.8 6.74 29.2 6.7 29.2 C 7.6 29.4 8.4 29.5 9.2 29.5 C 11.9 29.5 13.4 28.3 13.4 25.8 C 13.4 23.7 12.2 23 10.2 22.3 C 10.2 22.3 7.5 21.4 7.5 21.4 C 3.8 20.2 1.4 17.9 1.4 13.8 C 1.4 8.2 6.4 5.8 12 5.8 C 15.1 5.8 18 6.4 19.4 7.1 C 19.6 7.7 19.7 8.7 19.7 9.5 C 19.7 10.8 19.6 12.6 19.3 13.8 C 19.26 13.81 15.8 13.8 15.8 13.8 C 15.8 13.8 14.78 9.25 14.8 9.2 C 13.9 9.1 13 9 12.2 9 C 9.9 9 7.9 10 7.9 12.3 C 7.9 14.1 8.7 15.1 10.7 15.7 C 10.7 15.7 14.1 16.7 14.1 16.7 C 18.5 18.1 20.6 20.2 20.6 24.1 C 20.6 30.2 14.8 32.6 9.4 32.6 C 6.3 32.6 3.6 31.9 2 30.9 C 1.5 29.3 1.4 26.3 1.4 24.4 Z M 33.9 20.8 C 33.9 20.8 33.9 18.3 33.9 18.3 C 33.9 16.4 33.1 15.5 31 15.5 C 30.5 15.5 29.8 15.5 29.2 15.7 C 29.2 15.67 28.6 19.1 28.6 19.1 C 28.6 19.1 24.72 19.06 24.7 19.1 C 24.4 18 24.2 16.9 24.2 15.9 C 24.2 15.3 24.3 14.6 24.4 14.1 C 26.9 12.8 30.1 12.2 33.1 12.2 C 38 12.2 40.7 14.1 40.7 18 C 40.7 21.2 40.5 25.2 40.5 28.8 C 40.51 28.8 42.5 29.3 42.5 29.3 C 42.5 29.3 42.53 31.54 42.5 31.5 C 40.3 32.1 37.4 32.5 34 32.5 C 34 32.5 34 29.6 34 29.6 C 33.1 31.4 31.1 32.6 28.7 32.6 C 25.3 32.6 23 30.8 23 27.1 C 23 22 27.9 21.1 33.9 20.8 Z M 33.9 28 C 33.9 28 33.9 23.2 33.9 23.2 C 31.1 23.4 29.4 24.2 29.4 26.4 C 29.4 28 30.5 28.8 31.8 28.8 C 32.6 28.8 33.3 28.5 33.9 28 Z M 46.4 29.4 C 46.44 29.36 46.4 16.3 46.4 16.3 L 44.4 15.8 C 44.4 15.8 44.42 13.37 44.4 13.4 C 46.7 12.8 49.8 12.3 53.2 12.3 C 53.2 12.3 53.2 15.4 53.2 15.4 C 54.6 13.2 57.1 12.2 59.9 12.2 C 63.9 12.2 66.1 14.6 66.1 18.1 C 66.1 18.1 66.1 29.4 66.1 29.4 C 67 29.4 67.7 29.7 68.1 29.9 C 68.13 29.89 68.1 32.1 68.1 32.1 L 57.2 32.1 C 57.2 32.1 57.23 29.89 57.2 29.9 C 57.7 29.7 58.4 29.4 59.3 29.4 C 59.3 29.4 59.3 19.5 59.3 19.5 C 59.3 17.9 58.4 17 56.7 17 C 55.5 17 54.3 17.3 53.2 18.4 C 53.2 18.4 53.2 29.4 53.2 29.4 C 54.1 29.4 54.9 29.7 55.3 29.9 C 55.33 29.89 55.3 32.1 55.3 32.1 L 44.4 32.1 C 44.4 32.1 44.38 29.89 44.4 29.9 C 44.8 29.7 45.6 29.4 46.4 29.4 Z M 72 12.8 C 72 12.8 72.2 9.4 72.2 9.4 C 73.9 9 76.4 8.8 78.7 8.8 C 78.67 8.8 78.6 12.6 78.6 12.6 L 82.9 12.6 L 82.9 15.8 L 78.6 15.8 C 78.6 15.8 78.39 25.73 78.4 25.7 C 78.4 27.5 79 28.3 80.3 28.3 C 81.3 28.3 81.9 27.8 82.7 27.1 C 82.7 27.1 83.8 28.8 83.8 28.8 C 82.8 30.7 80.6 32.6 77.2 32.6 C 73.6 32.6 71.6 30.6 71.6 27.1 C 71.6 27.06 71.8 15.8 71.8 15.8 L 69.7 15.8 C 69.7 15.8 69.71 13.45 69.7 13.4 C 70.1 13.2 70.8 13 72 12.8 Z M 96.2 20.8 C 96.2 20.8 96.2 18.3 96.2 18.3 C 96.2 16.4 95.4 15.5 93.3 15.5 C 92.8 15.5 92.2 15.5 91.5 15.7 C 91.51 15.67 90.9 19.1 90.9 19.1 C 90.9 19.1 87.03 19.06 87 19.1 C 86.7 18 86.5 16.9 86.5 15.9 C 86.5 15.3 86.6 14.6 86.7 14.1 C 89.2 12.8 92.4 12.2 95.4 12.2 C 100.3 12.2 103 14.1 103 18 C 103 21.2 102.8 25.2 102.8 28.8 C 102.82 28.8 104.8 29.3 104.8 29.3 C 104.8 29.3 104.84 31.54 104.8 31.5 C 102.6 32.1 99.8 32.5 96.3 32.5 C 96.3 32.5 96.3 29.6 96.3 29.6 C 95.4 31.4 93.4 32.6 91 32.6 C 87.6 32.6 85.3 30.8 85.3 27.1 C 85.3 22 90.3 21.1 96.2 20.8 Z M 96.2 28 C 96.2 28 96.2 23.2 96.2 23.2 C 93.4 23.4 91.7 24.2 91.7 26.4 C 91.7 28 92.8 28.8 94.1 28.8 C 94.9 28.8 95.6 28.5 96.2 28 Z M 116.4 29.2 C 116.4 29.2 116.4 9.2 116.4 9.2 C 115.4 9.2 114.7 9 114.1 8.7 C 114.05 8.72 114.1 6.3 114.1 6.3 C 114.1 6.3 128.15 6.3 128.1 6.3 C 132.7 6.3 136.3 8.4 136.3 12.5 C 136.3 15.5 134.6 17.5 132.1 18.3 C 135.9 18.9 137.6 21.4 137.6 24.3 C 137.6 29.4 133.7 32.1 127.5 32.1 C 127.5 32.15 114.1 32.1 114.1 32.1 C 114.1 32.1 114.05 29.72 114.1 29.7 C 114.7 29.5 115.4 29.3 116.4 29.2 Z M 123.7 17.6 C 123.7 17.6 125.36 17.57 125.4 17.6 C 127.9 17.6 129.3 16.1 129.3 13.2 C 129.3 10.5 127.9 9.2 125.3 9.2 C 125.28 9.21 123.7 9.2 123.7 9.2 L 123.7 17.6 Z M 123.7 29.2 C 123.7 29.2 125.56 29.24 125.6 29.2 C 128.7 29.2 130.4 27.8 130.4 24.9 C 130.4 21.8 128.8 20.7 125.8 20.7 C 125.76 20.68 123.7 20.7 123.7 20.7 L 123.7 29.2 Z M 150.6 20.8 C 150.6 20.8 150.6 18.3 150.6 18.3 C 150.6 16.4 149.8 15.5 147.7 15.5 C 147.1 15.5 146.5 15.5 145.9 15.7 C 145.88 15.67 145.3 19.1 145.3 19.1 C 145.3 19.1 141.39 19.06 141.4 19.1 C 141.1 18 140.9 16.9 140.9 15.9 C 140.9 15.3 141 14.6 141.1 14.1 C 143.6 12.8 146.8 12.2 149.8 12.2 C 154.7 12.2 157.3 14.1 157.3 18 C 157.3 21.2 157.2 25.2 157.2 28.8 C 157.18 28.8 159.2 29.3 159.2 29.3 C 159.2 29.3 159.2 31.54 159.2 31.5 C 156.9 32.1 154.1 32.5 150.7 32.5 C 150.7 32.5 150.7 29.6 150.7 29.6 C 149.8 31.4 147.7 32.6 145.4 32.6 C 142 32.6 139.7 30.8 139.7 27.1 C 139.7 22 144.6 21.1 150.6 20.8 Z M 150.6 28 C 150.6 28 150.6 23.2 150.6 23.2 C 147.7 23.4 146.1 24.2 146.1 26.4 C 146.1 28 147.1 28.8 148.5 28.8 C 149.3 28.8 150 28.5 150.6 28 Z M 163.1 29.4 C 163.12 29.36 163.1 16.3 163.1 16.3 L 161.1 15.8 C 161.1 15.8 161.1 13.37 161.1 13.4 C 163.4 12.8 166.5 12.3 169.9 12.3 C 169.9 12.3 169.9 15.8 169.9 15.8 C 171.2 13.3 173.4 12.2 175.4 12.2 C 176.4 12.2 177.3 12.5 177.9 13 C 177.9 15.8 177.6 17.9 176.9 20.2 C 176.89 20.23 173.5 20.2 173.5 20.2 C 173.5 20.2 172.89 16.96 172.9 17 C 171.7 17.1 170.7 17.6 169.9 18.6 C 169.9 18.6 169.9 29.4 169.9 29.4 C 171.1 29.4 172.1 29.7 172.7 29.9 C 172.69 29.89 172.7 32.1 172.7 32.1 L 161.1 32.1 C 161.1 32.1 161.06 29.89 161.1 29.9 C 161.5 29.7 162.2 29.4 163.1 29.4 Z M 178.6 7.2 C 178.6 7.2 178.63 4.81 178.6 4.8 C 180.9 4.2 184.4 3.9 187.8 3.9 C 187.8 3.9 187.8 15.3 187.8 15.3 C 188.9 13.3 191.1 12.2 193.5 12.2 C 198.4 12.2 201 15.8 201 21.8 C 201 28.5 197.4 32.7 191.9 32.7 C 189.7 32.7 188 31.7 186.9 30.6 C 186.95 30.57 183.7 32.3 183.7 32.3 L 181 32.3 L 181 7.7 L 178.6 7.2 Z M 187.8 17.7 C 187.8 17.7 187.8 28.7 187.8 28.7 C 188.3 28.8 188.8 28.8 189.3 28.8 C 192.4 28.8 194 26.4 194 22.3 C 194 18 192.5 16.6 190.4 16.6 C 189.5 16.6 188.5 17 187.8 17.7 Z M 214 20.8 C 214 20.8 214 18.3 214 18.3 C 214 16.4 213.2 15.5 211.2 15.5 C 210.6 15.5 210 15.5 209.4 15.7 C 209.36 15.67 208.8 19.1 208.8 19.1 C 208.8 19.1 204.88 19.06 204.9 19.1 C 204.6 18 204.4 16.9 204.4 15.9 C 204.4 15.3 204.5 14.6 204.6 14.1 C 207.1 12.8 210.3 12.2 213.2 12.2 C 218.2 12.2 220.8 14.1 220.8 18 C 220.8 21.2 220.7 25.2 220.7 28.8 C 220.67 28.8 222.7 29.3 222.7 29.3 C 222.7 29.3 222.69 31.54 222.7 31.5 C 220.4 32.1 217.6 32.5 214.2 32.5 C 214.2 32.5 214.2 29.6 214.2 29.6 C 213.2 31.4 211.2 32.6 208.8 32.6 C 205.5 32.6 203.1 30.8 203.1 27.1 C 203.1 22 208.1 21.1 214 20.8 Z M 214 28 C 214 28 214 23.2 214 23.2 C 211.2 23.4 209.6 24.2 209.6 26.4 C 209.6 28 210.6 28.8 212 28.8 C 212.8 28.8 213.5 28.5 214 28 Z M 226.6 29.4 C 226.61 29.36 226.6 16.3 226.6 16.3 L 224.6 15.8 C 224.6 15.8 224.59 13.37 224.6 13.4 C 226.9 12.8 230 12.3 233.4 12.3 C 233.4 12.3 233.4 15.8 233.4 15.8 C 234.6 13.3 236.9 12.2 238.9 12.2 C 239.9 12.2 240.8 12.5 241.4 13 C 241.4 15.8 241.1 17.9 240.4 20.2 C 240.38 20.23 237 20.2 237 20.2 C 237 20.2 236.38 16.96 236.4 17 C 235.2 17.1 234.2 17.6 233.4 18.6 C 233.4 18.6 233.4 29.4 233.4 29.4 C 234.6 29.4 235.6 29.7 236.2 29.9 C 236.18 29.89 236.2 32.1 236.2 32.1 L 224.5 32.1 C 224.5 32.1 224.55 29.89 224.5 29.9 C 225 29.7 225.7 29.4 226.6 29.4 Z M 253.1 20.8 C 253.1 20.8 253.1 18.3 253.1 18.3 C 253.1 16.4 252.3 15.5 250.2 15.5 C 249.6 15.5 249 15.5 248.4 15.7 C 248.38 15.67 247.8 19.1 247.8 19.1 C 247.8 19.1 243.89 19.06 243.9 19.1 C 243.6 18 243.4 16.9 243.4 15.9 C 243.4 15.3 243.5 14.6 243.6 14.1 C 246.1 12.8 249.3 12.2 252.3 12.2 C 257.2 12.2 259.8 14.1 259.8 18 C 259.8 21.2 259.7 25.2 259.7 28.8 C 259.68 28.8 261.7 29.3 261.7 29.3 C 261.7 29.3 261.7 31.54 261.7 31.5 C 259.4 32.1 256.6 32.5 253.2 32.5 C 253.2 32.5 253.2 29.6 253.2 29.6 C 252.3 31.4 250.2 32.6 247.9 32.6 C 244.5 32.6 242.2 30.8 242.2 27.1 C 242.2 22 247.1 21.1 253.1 20.8 Z M 253.1 28 C 253.1 28 253.1 23.2 253.1 23.2 C 250.2 23.4 248.6 24.2 248.6 26.4 C 248.6 28 249.6 28.8 251 28.8 C 251.8 28.8 252.5 28.5 253.1 28 Z M 273.3 29.2 C 273.3 29.2 273.3 9.2 273.3 9.2 C 272.2 9.2 271.5 9 270.9 8.7 C 270.91 8.72 270.9 6.3 270.9 6.3 L 282.9 6.3 C 282.9 6.3 282.95 8.72 282.9 8.7 C 282.3 9 281.6 9.2 280.5 9.2 C 280.5 9.2 280.5 29.2 280.5 29.2 C 281.6 29.3 282.3 29.5 282.9 29.7 C 282.95 29.72 282.9 32.1 282.9 32.1 L 270.9 32.1 C 270.9 32.1 270.91 29.72 270.9 29.7 C 271.5 29.5 272.2 29.3 273.3 29.2 Z M 285.2 29.9 C 285.2 28.6 285.4 27.1 285.7 25.8 C 285.73 25.85 289.3 25.8 289.3 25.8 C 289.3 25.8 289.93 29.44 289.9 29.4 C 290.5 29.6 291.2 29.6 291.9 29.6 C 293.6 29.6 294.8 28.9 294.8 27.3 C 294.8 25.9 293.7 25.4 291.8 24.8 C 291.8 24.8 289.7 24.2 289.7 24.2 C 287 23.4 285.2 21.7 285.2 18.4 C 285.2 13.9 289.3 12.2 294 12.2 C 296.2 12.2 298.7 12.6 300.2 13.2 C 300.4 13.7 300.4 14.4 300.4 14.9 C 300.4 16.2 300.2 17.6 299.9 18.9 C 299.87 18.9 296.4 18.9 296.4 18.9 C 296.4 18.9 295.67 15.35 295.7 15.3 C 295.2 15.2 294.6 15.1 294 15.1 C 292.6 15.1 291.1 15.8 291.1 17.2 C 291.1 18.8 292.3 19.2 293.9 19.7 C 293.9 19.7 296 20.4 296 20.4 C 299.1 21.3 301.2 22.7 301.2 26 C 301.2 30.3 298 32.6 291.9 32.6 C 289.7 32.6 286.9 32.2 285.4 31.6 C 285.2 31.1 285.2 30.4 285.2 29.9 Z M 304.9 29.4 C 304.92 29.36 304.9 7.7 304.9 7.7 L 302.5 7.2 C 302.5 7.2 302.54 4.81 302.5 4.8 C 304.8 4.2 308.3 3.9 311.7 3.9 C 311.7 3.9 311.7 29.4 311.7 29.4 C 312.6 29.4 313.3 29.7 313.8 29.9 C 313.8 29.89 313.8 32.1 313.8 32.1 L 302.9 32.1 C 302.9 32.1 302.86 29.89 302.9 29.9 C 303.3 29.7 304 29.4 304.9 29.4 Z M 326.3 20.8 C 326.3 20.8 326.3 18.3 326.3 18.3 C 326.3 16.4 325.5 15.5 323.5 15.5 C 322.9 15.5 322.3 15.5 321.6 15.7 C 321.64 15.67 321 19.1 321 19.1 C 321 19.1 317.15 19.06 317.2 19.1 C 316.8 18 316.7 16.9 316.7 15.9 C 316.7 15.3 316.8 14.6 316.9 14.1 C 319.3 12.8 322.6 12.2 325.5 12.2 C 330.4 12.2 333.1 14.1 333.1 18 C 333.1 21.2 332.9 25.2 332.9 28.8 C 332.95 28.8 335 29.3 335 29.3 C 335 29.3 334.97 31.54 335 31.5 C 332.7 32.1 329.9 32.5 326.4 32.5 C 326.4 32.5 326.4 29.6 326.4 29.6 C 325.5 31.4 323.5 32.6 321.1 32.6 C 317.8 32.6 315.4 30.8 315.4 27.1 C 315.4 22 320.4 21.1 326.3 20.8 Z M 326.3 28 C 326.3 28 326.3 23.2 326.3 23.2 C 323.5 23.4 321.8 24.2 321.8 26.4 C 321.8 28 322.9 28.8 324.3 28.8 C 325.1 28.8 325.8 28.5 326.3 28 Z M 338.9 29.4 C 338.88 29.36 338.9 16.3 338.9 16.3 L 336.9 15.8 C 336.9 15.8 336.86 13.37 336.9 13.4 C 339.2 12.8 342.3 12.3 345.7 12.3 C 345.7 12.3 345.7 15.4 345.7 15.4 C 347.1 13.2 349.6 12.2 352.4 12.2 C 356.4 12.2 358.5 14.6 358.5 18.1 C 358.5 18.1 358.5 29.4 358.5 29.4 C 359.4 29.4 360.1 29.7 360.6 29.9 C 360.57 29.89 360.6 32.1 360.6 32.1 L 349.7 32.1 C 349.7 32.1 349.67 29.89 349.7 29.9 C 350.1 29.7 350.8 29.4 351.7 29.4 C 351.7 29.4 351.7 19.5 351.7 19.5 C 351.7 17.9 350.8 17 349.2 17 C 347.9 17 346.8 17.3 345.7 18.4 C 345.7 18.4 345.7 29.4 345.7 29.4 C 346.6 29.4 347.3 29.7 347.8 29.9 C 347.77 29.89 347.8 32.1 347.8 32.1 L 336.8 32.1 C 336.8 32.1 336.82 29.89 336.8 29.9 C 337.3 29.7 338 29.4 338.9 29.4 Z M 371.7 12 C 373.4 12 374.8 12.7 375.7 13.6 C 375.68 13.61 375.7 7.7 375.7 7.7 L 373.2 7.2 C 373.2 7.2 373.17 4.81 373.2 4.8 C 375.5 4.2 379 3.9 382.5 3.9 C 382.46 3.88 382.5 28.8 382.5 28.8 L 384.5 29.3 C 384.5 29.3 384.48 31.54 384.5 31.5 C 382.2 32.1 379.2 32.5 375.8 32.5 C 375.8 32.5 375.8 29.3 375.8 29.3 C 374.7 31.4 372.7 32.6 370.3 32.6 C 365.5 32.6 362.4 29 362.4 22.9 C 362.4 16.2 366.2 12 371.7 12 Z M 375.7 27.1 C 375.7 27.1 375.7 16.1 375.7 16.1 C 375.2 16 374.7 16 374.2 16 C 371.1 16 369.5 18.7 369.5 22.3 C 369.5 26.7 371.1 28.3 373.3 28.3 C 374.2 28.3 375 27.9 375.7 27.1 Z " stroke="none" fill="#404040"/>  </g></svg>