<?xml version="1.0" standalone="no"?><!DOCTYPE svg PUBLIC "-//W3C//DTD SVG 1.1//EN" "http://www.w3.org/Graphics/SVG/1.1/DTD/svg11.dtd"><svg xmlns="http://www.w3.org/2000/svg" version="1.1" width="610px" height="223.1px" viewBox="0 0 610 223.1">  <desc>Getting there Few people actually see this park because it isn t easy to get to — you can t drive to the islands A s</desc>  <defs/>  <g id="Polygon11346">    <path d="M 26.3 19.5 C 26.3 19.5 26.32 21.92 26.3 21.9 C 25.7 22.2 25.1 22.4 24 22.4 C 24 22.44 24 32.3 24 32.3 C 24 32.3 21.84 32.28 21.8 32.3 C 21.3 32.1 20.7 31.8 20.1 31.4 C 18.4 32 16.4 32.3 14.1 32.3 C 6 32.3 1.2 27.8 1.2 19.2 C 1.2 10.2 8 5.8 15.9 5.8 C 19 5.8 21.8 6.3 23.3 7 C 23.5 7.6 23.6 8.7 23.6 9.5 C 23.6 10.8 23.4 12.4 23.1 13.7 C 23.12 13.68 19.7 13.7 19.7 13.7 C 19.7 13.7 18.64 9.08 18.6 9.1 C 17.9 9 17.1 8.9 16.4 8.9 C 11.8 8.9 8.7 12.3 8.7 18.6 C 8.7 26.1 12 29.2 16.6 29.2 C 16.8 29.2 17.2 29.2 17.5 29.1 C 17.5 29.1 17.5 22.4 17.5 22.4 C 16.3 22.4 15.1 22.2 14.4 21.9 C 14.36 21.92 14.4 19.5 14.4 19.5 L 26.3 19.5 Z M 38.8 12.1 C 44.2 12.1 47 15.2 47 20.2 C 47 21.1 46.9 21.6 46.8 22.6 C 46.8 22.6 35.6 22.6 35.6 22.6 C 35.9 26.6 37.9 28 40.7 28 C 42.8 28 44.4 27.1 45.5 25.9 C 45.5 25.9 46.6 27.6 46.6 27.6 C 45.4 30.2 42.7 32.3 38.6 32.3 C 33 32.3 28.8 29.3 28.8 22 C 28.8 15.5 33.4 12.1 38.8 12.1 Z M 35.6 20 C 35.6 20 41 20 41 20 C 41.1 19.6 41.1 19.2 41.1 18.9 C 41.1 16.6 40.2 15.2 38.6 15.2 C 37 15.2 35.8 16.5 35.6 20 Z M 57.6 15.7 C 57.6 15.7 57.4 26.08 57.4 26.1 C 57.4 27.6 58.1 28.2 59.2 28.2 C 59.8 28.2 60.3 28 60.8 27.5 C 60.8 27.5 61.9 29.5 61.9 29.5 C 60.7 31 59 32.3 56.1 32.3 C 52.2 32.3 50.6 30.2 50.7 26.8 C 50.68 26.8 50.8 15.7 50.8 15.7 L 48.8 15.7 C 48.8 15.7 48.8 13.32 48.8 13.3 C 49.2 13.1 49.9 12.9 51 12.6 C 51 12.6 51.3 9.3 51.3 9.3 C 52.9 8.9 55.4 8.7 57.7 8.7 C 57.68 8.72 57.6 12.7 57.6 12.7 L 64 12.7 C 64 12.7 64.24 9.28 64.2 9.3 C 65.9 8.9 68.4 8.7 70.6 8.7 C 70.64 8.72 70.6 12.7 70.6 12.7 L 74.8 12.7 L 74.8 15.7 L 70.5 15.7 C 70.5 15.7 70.36 25.48 70.4 25.5 C 70.4 27.3 70.9 28 72.2 28 C 73.2 28 73.9 27.5 74.6 26.8 C 74.6 26.8 75.8 28.5 75.8 28.5 C 74.8 30.4 72.5 32.3 69.2 32.3 C 65.6 32.3 63.6 30.3 63.6 26.8 C 63.64 26.8 63.8 15.7 63.8 15.7 L 57.6 15.7 Z M 78.8 6.5 C 78.8 5.4 78.9 5 79 4.4 C 79.8 4.1 81.1 4 82.3 4 C 83.4 4 84.7 4.1 85.6 4.4 C 85.7 5 85.7 5.4 85.7 6.5 C 85.7 7.8 85.6 8.9 85.4 9.7 C 84.7 9.9 83.4 10.1 82.3 10.1 C 81.2 10.1 79.8 9.9 79.1 9.7 C 79 8.9 78.8 7.8 78.8 6.5 Z M 78.8 29.1 C 78.8 29.08 78.8 16.1 78.8 16.1 L 76.8 15.6 C 76.8 15.6 76.8 13.24 76.8 13.2 C 79.1 12.6 82.2 12.2 85.5 12.2 C 85.5 12.2 85.5 29.1 85.5 29.1 C 86.4 29.2 87.2 29.4 87.6 29.6 C 87.6 29.6 87.6 31.8 87.6 31.8 L 76.8 31.8 C 76.8 31.8 76.76 29.6 76.8 29.6 C 77.2 29.4 77.9 29.2 78.8 29.1 Z M 91.3 29.1 C 91.28 29.08 91.3 16.1 91.3 16.1 L 89.3 15.6 C 89.3 15.6 89.28 13.24 89.3 13.2 C 91.6 12.6 94.6 12.2 98 12.2 C 98 12.2 98 15.3 98 15.3 C 99.4 13.1 101.9 12 104.6 12 C 108.6 12 110.7 14.4 110.7 18 C 110.7 18 110.7 29.1 110.7 29.1 C 111.6 29.2 112.3 29.4 112.8 29.6 C 112.76 29.6 112.8 31.8 112.8 31.8 L 102 31.8 C 102 31.8 101.96 29.6 102 29.6 C 102.4 29.4 103.1 29.2 104 29.1 C 104 29.1 104 19.4 104 19.4 C 104 17.7 103.1 16.8 101.5 16.8 C 100.2 16.8 99.1 17.2 98 18.2 C 98 18.2 98 29.1 98 29.1 C 98.9 29.2 99.6 29.4 100.1 29.6 C 100.08 29.6 100.1 31.8 100.1 31.8 L 89.2 31.8 C 89.2 31.8 89.24 29.6 89.2 29.6 C 89.7 29.4 90.4 29.2 91.3 29.1 Z M 117.5 31.2 C 116.5 30.6 115.5 29.5 115.5 27.9 C 115.5 26.2 116.8 24.8 118.2 24 C 116 23 114.4 21.4 114.4 18.6 C 114.4 14.1 118.6 12 123.6 12 C 125.6 12 127.5 12.4 129 13.4 C 130.1 12.1 131.4 11.5 133.4 11.4 C 133.6 12 133.6 12.7 133.6 13.4 C 133.6 14.1 133.6 14.8 133.4 15.5 C 133.4 15.5 130.7 15.5 130.7 15.5 C 131.6 16.2 132 17.2 132 18.7 C 132 22.6 128.5 24.7 122.8 24.7 C 122.2 24.7 121.6 24.7 121 24.6 C 120.7 25 120.4 25.4 120.4 25.8 C 120.4 26.4 120.8 26.8 121.8 26.8 C 121.8 26.8 127.2 26.8 127.2 26.8 C 131 26.8 133.7 28.6 133.7 32.1 C 133.7 37.3 128 39.7 122.2 39.7 C 116.8 39.7 113.7 38.2 113.7 35.1 C 113.7 33.2 115.2 31.9 117.5 31.2 Z M 126 18.4 C 126 15.7 124.8 14.7 123.4 14.7 C 121.9 14.7 120.8 15.7 120.8 18 C 120.8 20.7 121.9 21.8 123.4 21.8 C 125 21.8 126 20.8 126 18.4 Z M 119.2 34.2 C 119.2 35.9 120.5 36.7 123 36.7 C 126.2 36.7 128.1 35.7 128.1 33.9 C 128.1 32.7 127.1 32.1 125.5 32.1 C 125.5 32.1 120 32.1 120 32.1 C 119.6 32.6 119.2 33.3 119.2 34.2 Z M 144.5 12.6 C 144.5 12.6 144.7 9.3 144.7 9.3 C 146.4 8.9 148.8 8.7 151.1 8.7 C 151.12 8.72 151 12.5 151 12.5 L 155.3 12.5 L 155.3 15.7 L 151 15.7 C 151 15.7 150.84 25.48 150.8 25.5 C 150.8 27.3 151.4 28 152.7 28 C 153.7 28 154.4 27.5 155.1 26.8 C 155.1 26.8 156.2 28.5 156.2 28.5 C 155.2 30.4 153 32.3 149.6 32.3 C 146.1 32.3 144.1 30.3 144.1 26.8 C 144.12 26.8 144.3 15.7 144.3 15.7 L 142.2 15.7 C 142.2 15.7 142.24 13.32 142.2 13.3 C 142.6 13.1 143.4 12.9 144.5 12.6 Z M 159.3 29.1 C 159.32 29.08 159.3 7.6 159.3 7.6 L 157 7.1 C 157 7.1 156.96 4.76 157 4.8 C 159.2 4.2 162.7 3.8 166 3.8 C 166 3.8 166 15.3 166 15.3 C 167.4 13.1 169.9 12 172.7 12 C 176.6 12 178.8 14.4 178.8 18 C 178.8 18 178.8 29.1 178.8 29.1 C 179.6 29.2 180.4 29.4 180.8 29.6 C 180.8 29.6 180.8 31.8 180.8 31.8 L 170 31.8 C 170 31.8 170 29.6 170 29.6 C 170.4 29.4 171.2 29.2 172 29.1 C 172 29.1 172 19.4 172 19.4 C 172 17.7 171.1 16.8 169.5 16.8 C 168.2 16.8 167.1 17.2 166 18.2 C 166 18.2 166 29.1 166 29.1 C 166.9 29.2 167.6 29.4 168.1 29.6 C 168.12 29.6 168.1 31.8 168.1 31.8 L 157.3 31.8 C 157.3 31.8 157.28 29.6 157.3 29.6 C 157.7 29.4 158.4 29.2 159.3 29.1 Z M 192.6 12.1 C 198 12.1 200.8 15.2 200.8 20.2 C 200.8 21.1 200.7 21.6 200.6 22.6 C 200.6 22.6 189.4 22.6 189.4 22.6 C 189.7 26.6 191.7 28 194.5 28 C 196.6 28 198.2 27.1 199.3 25.9 C 199.3 25.9 200.4 27.6 200.4 27.6 C 199.2 30.2 196.5 32.3 192.4 32.3 C 186.8 32.3 182.6 29.3 182.6 22 C 182.6 15.5 187.2 12.1 192.6 12.1 Z M 189.4 20 C 189.4 20 194.8 20 194.8 20 C 194.9 19.6 194.9 19.2 194.9 18.9 C 194.9 16.6 194 15.2 192.4 15.2 C 190.8 15.2 189.6 16.5 189.4 20 Z M 204.8 29.1 C 204.8 29.08 204.8 16.1 204.8 16.1 L 202.8 15.6 C 202.8 15.6 202.8 13.24 202.8 13.2 C 205.1 12.6 208.2 12.2 211.5 12.2 C 211.5 12.2 211.5 15.6 211.5 15.6 C 212.8 13.2 215 12.1 217 12.1 C 217.9 12.1 218.8 12.4 219.4 12.9 C 219.4 15.7 219.1 17.7 218.4 20 C 218.44 20.04 215.1 20 215.1 20 C 215.1 20 214.48 16.8 214.5 16.8 C 213.3 16.9 212.3 17.4 211.5 18.4 C 211.5 18.4 211.5 29.1 211.5 29.1 C 212.7 29.2 213.7 29.4 214.3 29.6 C 214.28 29.6 214.3 31.8 214.3 31.8 L 202.8 31.8 C 202.8 31.8 202.76 29.6 202.8 29.6 C 203.2 29.4 203.9 29.2 204.8 29.1 Z M 230.6 12.1 C 236.1 12.1 238.8 15.2 238.8 20.2 C 238.8 21.1 238.8 21.6 238.6 22.6 C 238.6 22.6 227.4 22.6 227.4 22.6 C 227.8 26.6 229.8 28 232.6 28 C 234.6 28 236.2 27.1 237.4 25.9 C 237.4 25.9 238.5 27.6 238.5 27.6 C 237.2 30.2 234.6 32.3 230.5 32.3 C 224.8 32.3 220.6 29.3 220.6 22 C 220.6 15.5 225.2 12.1 230.6 12.1 Z M 227.4 20 C 227.4 20 232.9 20 232.9 20 C 233 19.6 233 19.2 233 18.9 C 233 16.6 232.1 15.2 230.5 15.2 C 228.9 15.2 227.6 16.5 227.4 20 Z " stroke="none" fill="#404040"/>  </g>  <g id="Group11351">    <path d="M 1.9 86.8 C 1.9 86.8 4.2 71.6 4.2 71.6 C 3.4 71.6 2.8 71.4 2.3 71.2 C 2.34 71.23 2.6 69.6 2.6 69.6 C 2.6 69.6 17.01 69.64 17 69.6 C 17 71.3 16.8 73.2 16.3 75 C 16.29 75.04 14 75 14 75 L 13.7 71.6 L 8.6 71.6 L 7.6 78.2 C 7.6 78.2 10.44 78.22 10.4 78.2 C 10.6 77.5 10.9 76.8 11.3 76.3 C 11.3 76.3 13 76.3 13 76.3 C 13 78.3 12.6 80.7 12.1 82.7 C 12.1 82.7 10.3 82.7 10.3 82.7 C 10.1 81.9 10.1 81.1 10.1 80.3 C 10.14 80.26 7.3 80.3 7.3 80.3 C 7.3 80.3 6.24 86.83 6.2 86.8 C 7.2 86.9 8.1 87 8.7 87.2 C 8.73 87.25 8.5 88.8 8.5 88.8 L -0.2 88.8 C -0.2 88.8 0.03 87.25 0 87.2 C 0.5 87.1 1.1 86.9 1.9 86.8 Z M 23 74.2 C 25.9 74.2 27.4 75.5 27.4 77.6 C 27.4 80.4 25.3 82.1 20.7 82.1 C 20.7 82.1 19.6 82.1 19.6 82.1 C 19.5 82.5 19.5 83 19.5 83.5 C 19.5 85.4 20.4 86.3 21.6 86.3 C 23 86.3 24 85.5 25 83.9 C 25 83.9 26.4 84.5 26.4 84.5 C 25.2 87.6 23 89.2 20.2 89.2 C 16.9 89.2 15.2 87.3 15.2 83.8 C 15.2 78.7 17.9 74.2 23 74.2 Z M 19.7 80.6 C 19.7 80.6 20.3 80.6 20.3 80.6 C 22.7 80.6 23.7 79.4 23.7 77.9 C 23.7 77 23.3 76.4 22.5 76.4 C 21.1 76.4 20.1 78.2 19.7 80.6 Z M 41.4 74.3 C 41.4 74.3 43 84.7 43 84.7 C 44.9 81.8 45.6 79.5 45.8 77 C 45.78 76.96 43.9 76.5 43.9 76.5 C 43.9 76.5 44.13 75.04 44.1 75 C 45.1 74.6 46.5 74.3 47.6 74.3 C 49 74.3 49.3 74.9 49.3 76.1 C 49.3 78.8 47.4 82.7 42.1 88.8 C 42.09 88.84 39.7 88.8 39.7 88.8 C 39.7 88.8 38.79 83.23 38.8 83.2 C 37.6 84.9 36.2 86.7 34.6 88.8 C 34.59 88.84 32.2 88.8 32.2 88.8 L 30.1 76.9 L 28.4 76.5 C 28.4 76.5 28.56 75.04 28.6 75 C 29.8 74.6 31.9 74.3 33.8 74.3 C 33.8 74.3 35.5 84.5 35.5 84.5 C 36.6 82.8 37.5 81.2 38.2 79.5 C 38.16 79.48 37.7 76.9 37.7 76.9 L 36.2 76.5 C 36.2 76.5 36.39 75.04 36.4 75 C 37.6 74.6 39.4 74.3 41.4 74.3 Z M 62.3 74.3 C 62.3 74.3 61.9 76.8 61.9 76.8 C 62.9 75.2 64.3 74.2 66.1 74.2 C 68.7 74.2 70 76.2 70 79.2 C 70 84.5 67.6 89.1 62.9 89.1 C 61.6 89.1 60.7 88.8 60.1 88.2 C 60.1 88.2 59.5 92.5 59.5 92.5 C 60.5 92.6 61.4 92.7 62 92.9 C 62.01 92.95 61.8 94.5 61.8 94.5 L 53.2 94.5 C 53.2 94.5 53.49 92.95 53.5 92.9 C 54 92.7 54.5 92.6 55.3 92.5 C 55.29 92.53 57.8 76.9 57.8 76.9 L 55.9 76.5 C 55.9 76.5 56.13 75.04 56.1 75 C 57.5 74.6 60.1 74.3 62.3 74.3 Z M 61.6 78.8 C 61.6 78.8 60.4 86.5 60.4 86.5 C 60.8 86.6 61.2 86.8 61.7 86.8 C 64.2 86.8 65.7 83.2 65.7 79.3 C 65.7 77.7 65.2 76.9 64.1 76.9 C 63.1 76.9 62.3 77.7 61.6 78.8 Z M 79.5 74.2 C 82.4 74.2 84 75.5 84 77.6 C 84 80.4 81.8 82.1 77.3 82.1 C 77.3 82.1 76.1 82.1 76.1 82.1 C 76.1 82.5 76.1 83 76.1 83.5 C 76.1 85.4 76.9 86.3 78.1 86.3 C 79.5 86.3 80.5 85.5 81.5 83.9 C 81.5 83.9 82.9 84.5 82.9 84.5 C 81.8 87.6 79.6 89.2 76.8 89.2 C 73.4 89.2 71.8 87.3 71.8 83.8 C 71.8 78.7 74.5 74.2 79.5 74.2 Z M 76.3 80.6 C 76.3 80.6 76.9 80.6 76.9 80.6 C 79.2 80.6 80.2 79.4 80.2 77.9 C 80.2 77 79.8 76.4 79 76.4 C 77.6 76.4 76.7 78.2 76.3 80.6 Z M 92.9 74.2 C 97 74.2 98.8 76.4 98.8 79.8 C 98.8 84.6 96.1 89.2 90.7 89.2 C 86.5 89.2 84.8 86.9 84.8 83.6 C 84.8 78.8 87.4 74.2 92.9 74.2 Z M 90.9 87.1 C 93.2 87.1 94.5 82.7 94.5 79.2 C 94.5 77.6 94 76.3 92.7 76.3 C 90.4 76.3 89.1 80.6 89.1 84.2 C 89.1 85.8 89.6 87.1 90.9 87.1 Z M 106.9 74.3 C 106.9 74.3 106.6 76.8 106.6 76.8 C 107.5 75.2 108.9 74.2 110.8 74.2 C 113.3 74.2 114.6 76.2 114.6 79.2 C 114.6 84.5 112.2 89.1 107.5 89.1 C 106.3 89.1 105.4 88.8 104.8 88.2 C 104.8 88.2 104.1 92.5 104.1 92.5 C 105.1 92.6 106 92.7 106.6 92.9 C 106.62 92.95 106.4 94.5 106.4 94.5 L 97.9 94.5 C 97.9 94.5 98.1 92.95 98.1 92.9 C 98.6 92.7 99.1 92.6 99.9 92.5 C 99.9 92.53 102.4 76.9 102.4 76.9 L 100.6 76.5 C 100.6 76.5 100.74 75.04 100.7 75 C 102.1 74.6 104.7 74.3 106.9 74.3 Z M 106.2 78.8 C 106.2 78.8 105 86.5 105 86.5 C 105.4 86.6 105.8 86.8 106.3 86.8 C 108.8 86.8 110.3 83.2 110.3 79.3 C 110.3 77.7 109.8 76.9 108.7 76.9 C 107.7 76.9 106.9 77.7 106.2 78.8 Z M 123.2 67.8 C 123.2 67.8 120.7 84.2 120.7 84.2 C 120.6 84.9 120.5 85.4 120.5 85.8 C 120.5 86.4 120.8 86.6 121.6 86.6 C 121.62 86.65 122.5 86.6 122.5 86.6 C 122.5 86.6 122.28 88.3 122.3 88.3 C 121.5 88.7 120.1 89.1 118.7 89.1 C 117.1 89.1 116.2 88.3 116.2 86.9 C 116.2 86.4 116.3 85.7 116.4 85.2 C 116.4 85.21 118.7 70.5 118.7 70.5 L 116.6 70.1 C 116.6 70.1 116.76 68.62 116.8 68.6 C 118.1 68.2 121 67.8 123.2 67.8 Z M 131.8 74.2 C 134.7 74.2 136.2 75.5 136.2 77.6 C 136.2 80.4 134.1 82.1 129.5 82.1 C 129.5 82.1 128.4 82.1 128.4 82.1 C 128.3 82.5 128.3 83 128.3 83.5 C 128.3 85.4 129.2 86.3 130.4 86.3 C 131.8 86.3 132.8 85.5 133.8 83.9 C 133.8 83.9 135.2 84.5 135.2 84.5 C 134 87.6 131.8 89.2 129 89.2 C 125.7 89.2 124 87.3 124 83.8 C 124 78.7 126.7 74.2 131.8 74.2 Z M 128.5 80.6 C 128.5 80.6 129.1 80.6 129.1 80.6 C 131.5 80.6 132.5 79.4 132.5 77.9 C 132.5 77 132.1 76.4 131.3 76.4 C 129.9 76.4 128.9 78.2 128.5 80.6 Z M 150 74.2 C 151.4 74.2 152.3 74.7 152.9 75.5 C 153.5 74.9 154.6 74.4 155.5 74.2 C 155.52 74.2 156.9 74.6 156.9 74.6 C 156.9 74.6 155.4 84.37 155.4 84.4 C 155.3 84.9 155.2 85.5 155.2 85.8 C 155.2 86.4 155.5 86.6 156.3 86.6 C 156.33 86.65 157.3 86.6 157.3 86.6 C 157.3 86.6 157.02 88.3 157 88.3 C 156.2 88.7 154.9 89.1 153.4 89.1 C 151.7 89.1 151 88.3 151 86.9 C 151 86.7 151 86.6 151 86.4 C 150.1 88.1 148.7 89.1 146.7 89.1 C 144.2 89.1 142.9 87.3 142.9 84.1 C 142.9 78.7 145.8 74.2 150 74.2 Z M 151.3 84.5 C 151.3 84.5 152.5 76.8 152.5 76.8 C 152.1 76.7 151.6 76.6 151.2 76.6 C 148.7 76.6 147.2 80.1 147.2 84 C 147.2 85.6 147.7 86.4 148.8 86.4 C 149.8 86.4 150.5 85.6 151.3 84.5 Z M 166.7 74.2 C 168.4 74.2 169.9 74.7 170.7 75.3 C 170.7 76.7 170.2 78.5 169.6 79.6 C 169.65 79.63 167.5 79.6 167.5 79.6 C 167.5 79.6 167.31 76.48 167.3 76.5 C 167.2 76.4 167 76.4 166.9 76.4 C 164.5 76.4 163.1 80.1 163.1 83.5 C 163.1 85.4 163.9 86.3 165.1 86.3 C 166.5 86.3 167.6 85.4 168.5 83.9 C 168.5 83.9 169.9 84.5 169.9 84.5 C 168.7 87.6 166.6 89.2 163.6 89.2 C 160.4 89.2 158.8 87.2 158.8 83.8 C 158.8 78.7 161.5 74.2 166.7 74.2 Z M 174.2 74.4 C 174.2 74.4 174.9 72.1 174.9 72.1 C 175.7 71.9 177.3 71.7 178.6 71.7 C 178.59 71.68 178.1 74.5 178.1 74.5 L 181.4 74.5 L 181.1 76.6 L 177.8 76.6 C 177.8 76.6 176.85 82.99 176.8 83 C 176.7 83.8 176.6 84.5 176.6 85.1 C 176.6 85.9 176.9 86.3 177.4 86.3 C 178.3 86.3 179.1 85.2 179.7 84 C 179.7 84 181 84.5 181 84.5 C 180.1 87.2 178.4 89.1 175.7 89.1 C 173.5 89.1 172.4 87.9 172.4 85.9 C 172.4 85.2 172.6 84.1 172.7 83.1 C 172.71 83.11 173.7 76.6 173.7 76.6 L 171.7 76.6 C 171.7 76.6 171.96 75.1 172 75.1 C 172.4 74.8 173.2 74.5 174.2 74.4 Z M 196.6 74.3 C 196.6 74.3 195 84.4 195 84.4 C 194.9 84.9 194.8 85.5 194.8 85.8 C 194.8 86.4 195.1 86.6 195.9 86.6 C 195.9 86.65 196.9 86.6 196.9 86.6 C 196.9 86.6 196.59 88.3 196.6 88.3 C 195.8 88.7 194.4 89.1 193 89.1 C 191.3 89.1 190.6 88.3 190.6 86.9 C 190.6 86.6 190.6 86.1 190.7 85.8 C 190.7 85.8 190.7 85.8 190.7 85.8 C 189.5 87.9 187.6 89.1 185.6 89.1 C 183.5 89.1 182.5 88 182.5 86.3 C 182.5 85.8 182.6 85.4 182.7 84.8 C 182.7 84.85 184 76.9 184 76.9 L 182.2 76.5 C 182.2 76.5 182.37 75.04 182.4 75 C 183.7 74.6 186.3 74.3 188.5 74.3 C 188.5 74.3 187 83.6 187 83.6 C 186.9 84.1 186.9 84.6 186.9 85 C 186.9 85.7 187.2 86.1 188 86.1 C 189 86.1 190 85.5 190.9 84 C 190.89 84.01 192 76.9 192 76.9 L 190.2 76.5 C 190.2 76.5 190.47 75.04 190.5 75 C 191.8 74.6 194.3 74.3 196.6 74.3 Z M 205.7 74.2 C 207.1 74.2 208 74.7 208.6 75.5 C 209.2 74.9 210.3 74.4 211.2 74.2 C 211.17 74.2 212.6 74.6 212.6 74.6 C 212.6 74.6 211.05 84.37 211 84.4 C 211 84.9 210.9 85.5 210.9 85.8 C 210.9 86.4 211.1 86.6 212 86.6 C 211.98 86.65 212.9 86.6 212.9 86.6 C 212.9 86.6 212.67 88.3 212.7 88.3 C 211.9 88.7 210.5 89.1 209.1 89.1 C 207.4 89.1 206.7 88.3 206.7 86.9 C 206.7 86.7 206.7 86.6 206.7 86.4 C 205.7 88.1 204.3 89.1 202.4 89.1 C 199.9 89.1 198.5 87.3 198.5 84.1 C 198.5 78.7 201.4 74.2 205.7 74.2 Z M 206.9 84.5 C 206.9 84.5 208.1 76.8 208.1 76.8 C 207.7 76.7 207.3 76.6 206.8 76.6 C 204.3 76.6 202.9 80.1 202.9 84 C 202.9 85.6 203.4 86.4 204.4 86.4 C 205.4 86.4 206.2 85.6 206.9 84.5 Z M 221.8 67.8 C 221.8 67.8 219.2 84.2 219.2 84.2 C 219.1 84.9 219 85.4 219 85.8 C 219 86.4 219.3 86.6 220.1 86.6 C 220.14 86.65 221.1 86.6 221.1 86.6 C 221.1 86.6 220.8 88.3 220.8 88.3 C 220 88.7 218.6 89.1 217.2 89.1 C 215.6 89.1 214.8 88.3 214.8 86.9 C 214.8 86.4 214.8 85.7 214.9 85.2 C 214.92 85.21 217.2 70.5 217.2 70.5 L 215.1 70.1 C 215.1 70.1 215.28 68.62 215.3 68.6 C 216.6 68.2 219.5 67.8 221.8 67.8 Z M 229.8 67.8 C 229.8 67.8 227.3 84.2 227.3 84.2 C 227.2 84.9 227.1 85.4 227.1 85.8 C 227.1 86.4 227.4 86.6 228.2 86.6 C 228.21 86.65 229.1 86.6 229.1 86.6 C 229.1 86.6 228.87 88.3 228.9 88.3 C 228.1 88.7 226.7 89.1 225.3 89.1 C 223.6 89.1 222.8 88.3 222.8 86.9 C 222.8 86.4 222.9 85.7 223 85.2 C 222.99 85.21 225.3 70.5 225.3 70.5 L 223.2 70.1 C 223.2 70.1 223.35 68.62 223.3 68.6 C 224.7 68.2 227.6 67.8 229.8 67.8 Z M 233.8 89.6 C 233.76 89.62 233.9 89.4 233.9 89.4 L 231.7 76.9 L 229.9 76.5 C 229.9 76.5 230.13 75.04 230.1 75 C 231.4 74.6 233.5 74.3 235.4 74.3 C 235.4 74.3 237.2 85 237.2 85 C 239.2 82.3 240 79.7 240.2 77 C 240.21 76.96 238.4 76.5 238.4 76.5 C 238.4 76.5 238.62 75.04 238.6 75 C 239.6 74.6 241 74.3 242 74.3 C 243.4 74.3 243.8 74.9 243.8 76.1 C 243.8 78.8 241.7 82.1 238.7 86.2 C 238.7 86.2 235.8 90.2 235.8 90.2 C 234.1 92.4 232.4 94.7 230.2 94.7 C 228.9 94.7 228 94.1 227.4 93.1 C 227.4 93.1 227.7 91.7 227.7 91.7 C 228.4 92 229.4 92.2 230.1 92.2 C 232 92.2 232.9 91 233.8 89.6 Z M 250.6 84.3 C 250.61 84.34 252.7 84.3 252.7 84.3 C 252.7 84.3 252.86 87.22 252.9 87.2 C 253.3 87.3 253.7 87.3 254.1 87.3 C 255.7 87.3 256.7 86.5 256.7 85.4 C 256.7 84.2 255.6 83.7 254.2 82.9 C 254.2 82.9 253.3 82.4 253.3 82.4 C 252.1 81.7 251.1 80.6 251.1 78.9 C 251.1 75.9 253.4 74.2 256.9 74.2 C 258.8 74.2 260.7 74.6 261.6 75 C 261.6 76.4 261.4 77.7 260.7 79 C 260.72 79 258.6 79 258.6 79 C 258.6 79 258.53 76.21 258.5 76.2 C 258.1 76.1 257.7 76.1 257.2 76.1 C 255.9 76.1 254.9 76.7 254.9 78 C 254.9 79 255.9 79.5 256.9 80.1 C 256.9 80.1 258 80.7 258 80.7 C 259.4 81.5 260.8 82.5 260.8 84.4 C 260.8 87.3 258.4 89.1 254.5 89.1 C 252.8 89.1 250.7 88.8 249.6 88.3 C 249.7 86.7 250 85.4 250.6 84.3 Z M 270.4 74.2 C 273.3 74.2 274.9 75.5 274.9 77.6 C 274.9 80.4 272.7 82.1 268.2 82.1 C 268.2 82.1 267 82.1 267 82.1 C 267 82.5 267 83 267 83.5 C 267 85.4 267.8 86.3 269.1 86.3 C 270.4 86.3 271.4 85.5 272.4 83.9 C 272.4 83.9 273.8 84.5 273.8 84.5 C 272.7 87.6 270.5 89.2 267.7 89.2 C 264.4 89.2 262.7 87.3 262.7 83.8 C 262.7 78.7 265.4 74.2 270.4 74.2 Z M 267.2 80.6 C 267.2 80.6 267.8 80.6 267.8 80.6 C 270.1 80.6 271.1 79.4 271.1 77.9 C 271.1 77 270.7 76.4 269.9 76.4 C 268.5 76.4 267.6 78.2 267.2 80.6 Z M 283.5 74.2 C 286.4 74.2 287.9 75.5 287.9 77.6 C 287.9 80.4 285.8 82.1 281.2 82.1 C 281.2 82.1 280.1 82.1 280.1 82.1 C 280 82.5 280 83 280 83.5 C 280 85.4 280.9 86.3 282.1 86.3 C 283.5 86.3 284.5 85.5 285.5 83.9 C 285.5 83.9 286.9 84.5 286.9 84.5 C 285.7 87.6 283.6 89.2 280.7 89.2 C 277.4 89.2 275.7 87.3 275.7 83.8 C 275.7 78.7 278.5 74.2 283.5 74.2 Z M 280.3 80.6 C 280.3 80.6 280.9 80.6 280.9 80.6 C 283.2 80.6 284.2 79.4 284.2 77.9 C 284.2 77 283.8 76.4 283 76.4 C 281.6 76.4 280.6 78.2 280.3 80.6 Z M 297.2 74.4 C 297.2 74.4 297.9 72.1 297.9 72.1 C 298.7 71.9 300.4 71.7 301.6 71.7 C 301.61 71.68 301.2 74.5 301.2 74.5 L 304.4 74.5 L 304.1 76.6 L 300.9 76.6 C 300.9 76.6 299.87 82.99 299.9 83 C 299.8 83.8 299.7 84.5 299.7 85.1 C 299.7 85.9 299.9 86.3 300.5 86.3 C 301.3 86.3 302.1 85.2 302.8 84 C 302.8 84 304 84.5 304 84.5 C 303.1 87.2 301.4 89.1 298.7 89.1 C 296.5 89.1 295.5 87.9 295.5 85.9 C 295.5 85.2 295.6 84.1 295.7 83.1 C 295.73 83.11 296.7 76.6 296.7 76.6 L 294.7 76.6 C 294.7 76.6 294.98 75.1 295 75.1 C 295.4 74.8 296.2 74.5 297.2 74.4 Z M 313.5 85.2 C 313.5 85.2 314.5 79.7 314.5 79.7 C 314.6 79.2 314.7 78.7 314.7 78.4 C 314.7 77.6 314.3 77.2 313.5 77.2 C 312.5 77.2 311.6 77.9 310.6 79.3 C 310.55 79.3 309.1 88.8 309.1 88.8 L 304.9 88.8 L 307.8 70.5 L 305.7 70.1 C 305.7 70.1 305.84 68.62 305.8 68.6 C 307.2 68.2 310.1 67.8 312.3 67.8 C 312.3 67.8 310.8 77.5 310.8 77.5 C 312.1 75.4 313.8 74.2 315.8 74.2 C 317.9 74.2 319 75.4 319 77 C 319 77.6 318.9 78.1 318.8 78.7 C 318.8 78.7 317.8 84.4 317.8 84.4 C 317.6 85.1 317.6 85.5 317.6 85.8 C 317.6 86.4 317.8 86.6 318.7 86.6 C 318.68 86.65 319.6 86.6 319.6 86.6 C 319.6 86.6 319.37 88.3 319.4 88.3 C 318.6 88.7 317.2 89.1 315.8 89.1 C 314.1 89.1 313.3 88.4 313.3 86.9 C 313.3 86.3 313.4 85.6 313.5 85.2 Z M 324.6 68.3 C 325.1 68.2 325.9 68.1 326.7 68.1 C 327.5 68.1 328.3 68.2 328.7 68.3 C 328.7 69.3 328.3 71.1 327.8 72 C 327.3 72.2 326.7 72.3 325.9 72.3 C 325.2 72.3 324.6 72.2 324.1 72 C 324.1 70.6 324.3 69.3 324.6 68.3 Z M 327.7 74.3 C 327.7 74.3 326.2 84.2 326.2 84.2 C 326.1 84.9 326 85.4 326 85.8 C 326 86.4 326.3 86.6 327.1 86.6 C 327.08 86.65 328 86.6 328 86.6 C 328 86.6 327.77 88.3 327.8 88.3 C 327 88.7 325.6 89.1 324.2 89.1 C 322.6 89.1 321.7 88.3 321.7 86.9 C 321.7 86.4 321.8 85.7 321.9 85.2 C 321.89 85.21 323.2 76.9 323.2 76.9 L 321.4 76.5 C 321.4 76.5 321.53 75.04 321.5 75 C 322.9 74.6 325.5 74.3 327.7 74.3 Z M 330.3 84.3 C 330.29 84.34 332.3 84.3 332.3 84.3 C 332.3 84.3 332.54 87.22 332.5 87.2 C 332.9 87.3 333.4 87.3 333.8 87.3 C 335.4 87.3 336.4 86.5 336.4 85.4 C 336.4 84.2 335.2 83.7 333.9 82.9 C 333.9 82.9 332.9 82.4 332.9 82.4 C 331.7 81.7 330.7 80.6 330.7 78.9 C 330.7 75.9 333.1 74.2 336.6 74.2 C 338.5 74.2 340.3 74.6 341.3 75 C 341.3 76.4 341.1 77.7 340.4 79 C 340.4 79 338.3 79 338.3 79 C 338.3 79 338.21 76.21 338.2 76.2 C 337.8 76.1 337.4 76.1 336.9 76.1 C 335.6 76.1 334.6 76.7 334.6 78 C 334.6 79 335.6 79.5 336.6 80.1 C 336.6 80.1 337.7 80.7 337.7 80.7 C 339.1 81.5 340.5 82.5 340.5 84.4 C 340.5 87.3 338.1 89.1 334.1 89.1 C 332.5 89.1 330.4 88.8 329.3 88.3 C 329.4 86.7 329.7 85.4 330.3 84.3 Z M 354.6 74.3 C 354.6 74.3 354.2 76.8 354.2 76.8 C 355.1 75.2 356.5 74.2 358.4 74.2 C 361 74.2 362.3 76.2 362.3 79.2 C 362.3 84.5 359.8 89.1 355.1 89.1 C 353.9 89.1 353 88.8 352.4 88.2 C 352.4 88.2 351.7 92.5 351.7 92.5 C 352.7 92.6 353.7 92.7 354.3 92.9 C 354.26 92.95 354 94.5 354 94.5 L 345.5 94.5 C 345.5 94.5 345.74 92.95 345.7 92.9 C 346.3 92.7 346.8 92.6 347.5 92.5 C 347.54 92.53 350 76.9 350 76.9 L 348.2 76.5 C 348.2 76.5 348.38 75.04 348.4 75 C 349.7 74.6 352.3 74.3 354.6 74.3 Z M 353.9 78.8 C 353.9 78.8 352.7 86.5 352.7 86.5 C 353 86.6 353.5 86.8 354 86.8 C 356.5 86.8 358 83.2 358 79.3 C 358 77.7 357.4 76.9 356.3 76.9 C 355.4 76.9 354.6 77.7 353.9 78.8 Z M 371.2 74.2 C 372.6 74.2 373.5 74.7 374.1 75.5 C 374.7 74.9 375.8 74.4 376.7 74.2 C 376.7 74.2 378.1 74.6 378.1 74.6 C 378.1 74.6 376.58 84.37 376.6 84.4 C 376.5 84.9 376.4 85.5 376.4 85.8 C 376.4 86.4 376.7 86.6 377.5 86.6 C 377.51 86.65 378.5 86.6 378.5 86.6 C 378.5 86.6 378.2 88.3 378.2 88.3 C 377.4 88.7 376 89.1 374.6 89.1 C 372.9 89.1 372.2 88.3 372.2 86.9 C 372.2 86.7 372.2 86.6 372.2 86.4 C 371.3 88.1 369.9 89.1 367.9 89.1 C 365.4 89.1 364.1 87.3 364.1 84.1 C 364.1 78.7 367 74.2 371.2 74.2 Z M 372.4 84.5 C 372.4 84.5 373.7 76.8 373.7 76.8 C 373.3 76.7 372.8 76.6 372.4 76.6 C 369.9 76.6 368.4 80.1 368.4 84 C 368.4 85.6 368.9 86.4 370 86.4 C 371 86.4 371.7 85.6 372.4 84.5 Z M 386.5 74.3 C 386.5 74.3 386 77.8 386 77.8 C 387.1 75.5 388.6 74.2 390.3 74.2 C 391.1 74.2 391.7 74.5 392 74.7 C 392 76.4 391.5 78.5 391 79.7 C 390.98 79.69 388.7 79.7 388.7 79.7 C 388.7 79.7 388.52 77.14 388.5 77.1 C 387.6 77.3 386.6 78.3 385.6 80 C 385.64 79.96 384.3 88.8 384.3 88.8 L 380.1 88.8 L 382 76.9 L 380.2 76.5 C 380.2 76.5 380.33 75.04 380.3 75 C 381.7 74.6 384.3 74.3 386.5 74.3 Z M 399.4 67.8 C 399.38 67.84 396.1 88.8 396.1 88.8 L 392.1 88.8 L 394.9 70.6 L 392.8 70.1 C 392.8 70.1 392.96 68.62 393 68.6 C 394.3 68.2 397.2 67.8 399.4 67.8 Z M 407 74.5 C 407.03 74.5 406.8 76.1 406.8 76.1 L 404.8 76.9 L 401.2 80.3 C 401.2 80.3 403.04 85.27 403 85.3 C 403.5 86.4 403.9 86.6 404.9 86.6 C 404.9 86.65 405.7 86.6 405.7 86.6 C 405.7 86.6 405.5 88.3 405.5 88.3 C 404.7 88.7 403.6 89.1 402.3 89.1 C 400.6 89.1 399.9 88.4 399.3 86.9 C 399.32 86.86 397.4 81.3 397.4 81.3 L 401.8 76.9 L 399.8 76.4 C 399.8 76.4 399.98 75.22 400 75.2 C 401.7 74.7 404.8 74.5 407 74.5 Z M 420.1 67.8 C 420.1 67.8 418.7 76.8 418.7 76.8 C 419.7 75.2 421 74.2 422.9 74.2 C 425.5 74.2 426.8 76.2 426.8 79.2 C 426.8 84.5 424.3 89.1 419.6 89.1 C 418.3 89.1 417.2 88.7 416.5 87.9 C 415.9 88.5 415 89 414.1 89.1 C 414.08 89.14 412.7 88.8 412.7 88.8 L 415.6 70.5 L 413.4 70.1 C 413.4 70.1 413.6 68.62 413.6 68.6 C 415 68.2 417.9 67.8 420.1 67.8 Z M 418.4 78.8 C 418.4 78.8 417.2 86.5 417.2 86.5 C 417.6 86.6 418 86.8 418.5 86.8 C 421 86.8 422.5 83.2 422.5 79.3 C 422.5 77.7 421.9 76.9 420.9 76.9 C 419.9 76.9 419.1 77.7 418.4 78.8 Z M 436.3 74.2 C 439.2 74.2 440.8 75.5 440.8 77.6 C 440.8 80.4 438.6 82.1 434.1 82.1 C 434.1 82.1 432.9 82.1 432.9 82.1 C 432.9 82.5 432.9 83 432.9 83.5 C 432.9 85.4 433.7 86.3 434.9 86.3 C 436.3 86.3 437.3 85.5 438.3 83.9 C 438.3 83.9 439.7 84.5 439.7 84.5 C 438.6 87.6 436.4 89.2 433.6 89.2 C 430.2 89.2 428.5 87.3 428.5 83.8 C 428.5 78.7 431.3 74.2 436.3 74.2 Z M 433.1 80.6 C 433.1 80.6 433.7 80.6 433.7 80.6 C 436 80.6 437 79.4 437 77.9 C 437 77 436.6 76.4 435.8 76.4 C 434.4 76.4 433.5 78.2 433.1 80.6 Z M 449.5 74.2 C 451.3 74.2 452.7 74.7 453.5 75.3 C 453.5 76.7 453 78.5 452.5 79.6 C 452.48 79.63 450.3 79.6 450.3 79.6 C 450.3 79.6 450.14 76.48 450.1 76.5 C 450 76.4 449.9 76.4 449.7 76.4 C 447.4 76.4 445.9 80.1 445.9 83.5 C 445.9 85.4 446.8 86.3 448 86.3 C 449.4 86.3 450.4 85.4 451.3 83.9 C 451.3 83.9 452.8 84.5 452.8 84.5 C 451.6 87.6 449.5 89.2 446.5 89.2 C 443.3 89.2 441.6 87.2 441.6 83.8 C 441.6 78.7 444.4 74.2 449.5 74.2 Z M 461.4 74.2 C 462.8 74.2 463.7 74.7 464.3 75.5 C 464.9 74.9 466 74.4 466.9 74.2 C 466.91 74.2 468.3 74.6 468.3 74.6 C 468.3 74.6 466.79 84.37 466.8 84.4 C 466.7 84.9 466.6 85.5 466.6 85.8 C 466.6 86.4 466.9 86.6 467.7 86.6 C 467.72 86.65 468.7 86.6 468.7 86.6 C 468.7 86.6 468.41 88.3 468.4 88.3 C 467.6 88.7 466.3 89.1 464.8 89.1 C 463.1 89.1 462.4 88.3 462.4 86.9 C 462.4 86.7 462.4 86.6 462.4 86.4 C 461.5 88.1 460.1 89.1 458.1 89.1 C 455.6 89.1 454.3 87.3 454.3 84.1 C 454.3 78.7 457.2 74.2 461.4 74.2 Z M 462.7 84.5 C 462.7 84.5 463.9 76.8 463.9 76.8 C 463.5 76.7 463 76.6 462.6 76.6 C 460.1 76.6 458.6 80.1 458.6 84 C 458.6 85.6 459.1 86.4 460.2 86.4 C 461.2 86.4 461.9 85.6 462.7 84.5 Z M 484.7 74.3 C 484.7 74.3 483.1 84.4 483.1 84.4 C 483 84.9 482.9 85.5 482.9 85.8 C 482.9 86.4 483.2 86.6 484 86.6 C 484.01 86.65 485 86.6 485 86.6 C 485 86.6 484.7 88.3 484.7 88.3 C 483.9 88.7 482.5 89.1 481.1 89.1 C 479.4 89.1 478.7 88.3 478.7 86.9 C 478.7 86.6 478.8 86.1 478.8 85.8 C 478.8 85.8 478.8 85.8 478.8 85.8 C 477.6 87.9 475.7 89.1 473.7 89.1 C 471.6 89.1 470.7 88 470.7 86.3 C 470.7 85.8 470.7 85.4 470.8 84.8 C 470.81 84.85 472.1 76.9 472.1 76.9 L 470.3 76.5 C 470.3 76.5 470.48 75.04 470.5 75 C 471.8 74.6 474.4 74.3 476.7 74.3 C 476.7 74.3 475.1 83.6 475.1 83.6 C 475 84.1 475 84.6 475 85 C 475 85.7 475.3 86.1 476.1 86.1 C 477.1 86.1 478.1 85.5 479 84 C 479 84.01 480.1 76.9 480.1 76.9 L 478.3 76.5 C 478.3 76.5 478.58 75.04 478.6 75 C 479.9 74.6 482.4 74.3 484.7 74.3 Z M 487.2 84.3 C 487.25 84.34 489.3 84.3 489.3 84.3 C 489.3 84.3 489.5 87.22 489.5 87.2 C 489.9 87.3 490.3 87.3 490.7 87.3 C 492.3 87.3 493.3 86.5 493.3 85.4 C 493.3 84.2 492.2 83.7 490.9 82.9 C 490.9 82.9 489.9 82.4 489.9 82.4 C 488.7 81.7 487.7 80.6 487.7 78.9 C 487.7 75.9 490.1 74.2 493.5 74.2 C 495.4 74.2 497.3 74.6 498.3 75 C 498.3 76.4 498.1 77.7 497.4 79 C 497.36 79 495.2 79 495.2 79 C 495.2 79 495.17 76.21 495.2 76.2 C 494.8 76.1 494.3 76.1 493.9 76.1 C 492.5 76.1 491.6 76.7 491.6 78 C 491.6 79 492.6 79.5 493.6 80.1 C 493.6 80.1 494.6 80.7 494.6 80.7 C 496.1 81.5 497.4 82.5 497.4 84.4 C 497.4 87.3 495.1 89.1 491.1 89.1 C 489.5 89.1 487.4 88.8 486.3 88.3 C 486.3 86.7 486.7 85.4 487.2 84.3 Z M 507 74.2 C 510 74.2 511.5 75.5 511.5 77.6 C 511.5 80.4 509.4 82.1 504.8 82.1 C 504.8 82.1 503.7 82.1 503.7 82.1 C 503.6 82.5 503.6 83 503.6 83.5 C 503.6 85.4 504.5 86.3 505.7 86.3 C 507.1 86.3 508.1 85.5 509.1 83.9 C 509.1 83.9 510.5 84.5 510.5 84.5 C 509.3 87.6 507.1 89.2 504.3 89.2 C 501 89.2 499.3 87.3 499.3 83.8 C 499.3 78.7 502 74.2 507 74.2 Z M 503.8 80.6 C 503.8 80.6 504.4 80.6 504.4 80.6 C 506.7 80.6 507.8 79.4 507.8 77.9 C 507.8 77 507.3 76.4 506.6 76.4 C 505.2 76.4 504.2 78.2 503.8 80.6 Z M 521.6 68.3 C 522.1 68.2 522.9 68.1 523.8 68.1 C 524.5 68.1 525.3 68.2 525.8 68.3 C 525.8 69.3 525.3 71.1 524.9 72 C 524.3 72.2 523.8 72.3 522.9 72.3 C 522.2 72.3 521.6 72.2 521.1 72 C 521.1 70.6 521.3 69.3 521.6 68.3 Z M 524.7 74.3 C 524.7 74.3 523.2 84.2 523.2 84.2 C 523.1 84.9 523 85.4 523 85.8 C 523 86.4 523.3 86.6 524.1 86.6 C 524.12 86.65 525.1 86.6 525.1 86.6 C 525.1 86.6 524.81 88.3 524.8 88.3 C 524.1 88.7 522.6 89.1 521.2 89.1 C 519.6 89.1 518.7 88.3 518.7 86.9 C 518.7 86.4 518.8 85.7 518.9 85.2 C 518.93 85.21 520.2 76.9 520.2 76.9 L 518.4 76.5 C 518.4 76.5 518.57 75.04 518.6 75 C 519.9 74.6 522.5 74.3 524.7 74.3 Z M 529 74.4 C 529 74.4 529.7 72.1 529.7 72.1 C 530.5 71.9 532.1 71.7 533.4 71.7 C 533.39 71.68 532.9 74.5 532.9 74.5 L 536.2 74.5 L 535.9 76.6 L 532.6 76.6 C 532.6 76.6 531.65 82.99 531.6 83 C 531.5 83.8 531.4 84.5 531.4 85.1 C 531.4 85.9 531.7 86.3 532.2 86.3 C 533.1 86.3 533.9 85.2 534.5 84 C 534.5 84 535.8 84.5 535.8 84.5 C 534.9 87.2 533.2 89.1 530.5 89.1 C 528.3 89.1 527.2 87.9 527.2 85.9 C 527.2 85.2 527.4 84.1 527.5 83.1 C 527.51 83.11 528.5 76.6 528.5 76.6 L 526.5 76.6 C 526.5 76.6 526.76 75.1 526.8 75.1 C 527.2 74.8 528 74.5 529 74.4 Z M 545.6 68.3 C 546.1 68.2 546.9 68.1 547.8 68.1 C 548.5 68.1 549.3 68.2 549.8 68.3 C 549.8 69.3 549.3 71.1 548.9 72 C 548.3 72.2 547.8 72.3 546.9 72.3 C 546.2 72.3 545.6 72.2 545.1 72 C 545.1 70.6 545.3 69.3 545.6 68.3 Z M 548.7 74.3 C 548.7 74.3 547.2 84.2 547.2 84.2 C 547.1 84.9 547 85.4 547 85.8 C 547 86.4 547.3 86.6 548.1 86.6 C 548.12 86.65 549.1 86.6 549.1 86.6 C 549.1 86.6 548.81 88.3 548.8 88.3 C 548.1 88.7 546.6 89.1 545.2 89.1 C 543.6 89.1 542.7 88.3 542.7 86.9 C 542.7 86.4 542.8 85.7 542.9 85.2 C 542.93 85.21 544.2 76.9 544.2 76.9 L 542.4 76.5 C 542.4 76.5 542.57 75.04 542.6 75 C 543.9 74.6 546.5 74.3 548.7 74.3 Z M 551.3 84.3 C 551.33 84.34 553.4 84.3 553.4 84.3 C 553.4 84.3 553.58 87.22 553.6 87.2 C 554 87.3 554.4 87.3 554.8 87.3 C 556.4 87.3 557.4 86.5 557.4 85.4 C 557.4 84.2 556.3 83.7 555 82.9 C 555 82.9 554 82.4 554 82.4 C 552.8 81.7 551.8 80.6 551.8 78.9 C 551.8 75.9 554.1 74.2 557.6 74.2 C 559.5 74.2 561.4 74.6 562.3 75 C 562.3 76.4 562.2 77.7 561.4 79 C 561.44 79 559.3 79 559.3 79 C 559.3 79 559.25 76.21 559.2 76.2 C 558.9 76.1 558.4 76.1 558 76.1 C 556.6 76.1 555.6 76.7 555.6 78 C 555.6 79 556.6 79.5 557.7 80.1 C 557.7 80.1 558.7 80.7 558.7 80.7 C 560.1 81.5 561.5 82.5 561.5 84.4 C 561.5 87.3 559.2 89.1 555.2 89.1 C 553.5 89.1 551.4 88.8 550.3 88.3 C 550.4 86.7 550.8 85.4 551.3 84.3 Z M 570.1 74.3 C 570.1 74.3 569.6 77.5 569.6 77.5 C 570.9 75.4 572.5 74.2 574.5 74.2 C 576.6 74.2 577.7 75.4 577.7 77 C 577.7 77.6 577.6 78.1 577.5 78.7 C 577.5 78.7 576.5 84.4 576.5 84.4 C 576.4 85.1 576.3 85.5 576.3 85.8 C 576.3 86.4 576.6 86.6 577.4 86.6 C 577.43 86.65 578.4 86.6 578.4 86.6 C 578.4 86.6 578.12 88.3 578.1 88.3 C 577.4 88.7 576 89.1 574.5 89.1 C 572.8 89.1 572 88.4 572 86.9 C 572 86.3 572.1 85.6 572.2 85.2 C 572.2 85.2 573.2 79.7 573.2 79.7 C 573.3 79.2 573.4 78.7 573.4 78.4 C 573.4 77.6 573 77.2 572.2 77.2 C 571.3 77.2 570.3 77.9 569.3 79.3 C 569.33 79.27 567.8 88.8 567.8 88.8 L 563.7 88.8 L 565.5 76.9 L 563.7 76.5 C 563.7 76.5 563.9 75.04 563.9 75 C 565.2 74.6 567.9 74.3 570.1 74.3 Z M 583.4 69.3 C 585.1 69.3 585.9 70.4 585.9 72.2 C 585.9 75 583.9 77.9 580.4 78.9 C 580.4 78.9 579.6 77.5 579.6 77.5 C 581.2 76.8 582.6 75.6 582.9 74 C 581.7 74 580.9 73.1 580.9 71.9 C 580.9 70.4 581.9 69.3 583.4 69.3 Z M 589.3 74.4 C 589.3 74.4 590 72.1 590 72.1 C 590.8 71.9 592.5 71.7 593.7 71.7 C 593.72 71.68 593.3 74.5 593.3 74.5 L 596.5 74.5 L 596.2 76.6 L 593 76.6 C 593 76.6 591.98 82.99 592 83 C 591.9 83.8 591.8 84.5 591.8 85.1 C 591.8 85.9 592 86.3 592.6 86.3 C 593.4 86.3 594.2 85.2 594.9 84 C 594.9 84 596.1 84.5 596.1 84.5 C 595.2 87.2 593.5 89.1 590.8 89.1 C 588.6 89.1 587.6 87.9 587.6 85.9 C 587.6 85.2 587.7 84.1 587.8 83.1 C 587.84 83.11 588.8 76.6 588.8 76.6 L 586.8 76.6 C 586.8 76.6 587.09 75.1 587.1 75.1 C 587.5 74.8 588.3 74.5 589.3 74.4 Z " stroke="none" fill="#404040"/>    <path d="M 8.7 111.2 C 11.6 111.2 13.2 112.5 13.2 114.6 C 13.2 117.4 11 119.1 6.5 119.1 C 6.5 119.1 5.3 119.1 5.3 119.1 C 5.3 119.5 5.3 120 5.3 120.5 C 5.3 122.4 6.1 123.3 7.3 123.3 C 8.7 123.3 9.7 122.5 10.7 120.9 C 10.7 120.9 12.1 121.5 12.1 121.5 C 11 124.6 8.8 126.2 6 126.2 C 2.6 126.2 1 124.3 1 120.8 C 1 115.7 3.7 111.2 8.7 111.2 Z M 5.5 117.6 C 5.5 117.6 6.1 117.6 6.1 117.6 C 8.4 117.6 9.4 116.4 9.4 114.9 C 9.4 114 9 113.4 8.2 113.4 C 6.8 113.4 5.9 115.2 5.5 117.6 Z M 21.2 111.2 C 22.6 111.2 23.5 111.7 24.1 112.5 C 24.7 111.9 25.8 111.4 26.7 111.2 C 26.7 111.2 28.1 111.6 28.1 111.6 C 28.1 111.6 26.58 121.37 26.6 121.4 C 26.5 121.9 26.4 122.5 26.4 122.8 C 26.4 123.4 26.7 123.6 27.5 123.6 C 27.51 123.65 28.5 123.6 28.5 123.6 C 28.5 123.6 28.2 125.3 28.2 125.3 C 27.4 125.7 26 126.1 24.6 126.1 C 22.9 126.1 22.2 125.3 22.2 123.9 C 22.2 123.7 22.2 123.6 22.2 123.4 C 21.3 125.1 19.9 126.1 17.9 126.1 C 15.4 126.1 14.1 124.3 14.1 121.1 C 14.1 115.7 16.9 111.2 21.2 111.2 Z M 22.4 121.5 C 22.4 121.5 23.7 113.8 23.7 113.8 C 23.3 113.7 22.8 113.6 22.4 113.6 C 19.9 113.6 18.4 117.1 18.4 121 C 18.4 122.6 18.9 123.4 20 123.4 C 21 123.4 21.7 122.6 22.4 121.5 Z M 30.6 121.3 C 30.6 121.34 32.6 121.3 32.6 121.3 C 32.6 121.3 32.85 124.22 32.8 124.2 C 33.2 124.3 33.7 124.3 34.1 124.3 C 35.7 124.3 36.7 123.5 36.7 122.4 C 36.7 121.2 35.5 120.7 34.2 119.9 C 34.2 119.9 33.2 119.4 33.2 119.4 C 32 118.7 31 117.6 31 115.9 C 31 112.9 33.4 111.2 36.9 111.2 C 38.8 111.2 40.6 111.6 41.6 112 C 41.6 113.4 41.4 114.7 40.7 116 C 40.71 116 38.6 116 38.6 116 C 38.6 116 38.52 113.21 38.5 113.2 C 38.1 113.1 37.7 113.1 37.2 113.1 C 35.9 113.1 34.9 113.7 34.9 115 C 34.9 116 35.9 116.5 36.9 117.1 C 36.9 117.1 38 117.7 38 117.7 C 39.4 118.5 40.8 119.5 40.8 121.4 C 40.8 124.3 38.4 126.1 34.4 126.1 C 32.8 126.1 30.7 125.8 29.6 125.3 C 29.7 123.7 30 122.4 30.6 121.3 Z M 46.5 126.6 C 46.53 126.62 46.6 126.4 46.6 126.4 L 44.5 113.9 L 42.7 113.5 C 42.7 113.5 42.9 112.04 42.9 112 C 44.1 111.6 46.3 111.3 48.2 111.3 C 48.2 111.3 50 122 50 122 C 52 119.3 52.8 116.7 53 114 C 52.98 113.96 51.2 113.5 51.2 113.5 C 51.2 113.5 51.39 112.04 51.4 112 C 52.3 111.6 53.8 111.3 54.8 111.3 C 56.2 111.3 56.6 111.9 56.6 113.1 C 56.6 115.8 54.4 119.1 51.4 123.2 C 51.4 123.2 48.6 127.2 48.6 127.2 C 46.9 129.4 45.2 131.7 43 131.7 C 41.7 131.7 40.8 131.1 40.1 130.1 C 40.1 130.1 40.5 128.7 40.5 128.7 C 41.2 129 42.2 129.2 42.9 129.2 C 44.8 129.2 45.6 128 46.5 126.6 Z M 65.5 111.4 C 65.5 111.4 66.2 109.1 66.2 109.1 C 67 108.9 68.7 108.7 69.9 108.7 C 69.93 108.68 69.5 111.5 69.5 111.5 L 72.7 111.5 L 72.4 113.6 L 69.2 113.6 C 69.2 113.6 68.19 119.99 68.2 120 C 68.1 120.8 68 121.5 68 122.1 C 68 122.9 68.2 123.3 68.8 123.3 C 69.7 123.3 70.4 122.2 71.1 121 C 71.1 121 72.3 121.5 72.3 121.5 C 71.4 124.2 69.7 126.1 67 126.1 C 64.8 126.1 63.8 124.9 63.8 122.9 C 63.8 122.2 63.9 121.1 64 120.1 C 64.05 120.11 65 113.6 65 113.6 L 63 113.6 C 63 113.6 63.3 112.1 63.3 112.1 C 63.7 111.8 64.5 111.5 65.5 111.4 Z M 81.6 111.2 C 85.7 111.2 87.5 113.4 87.5 116.8 C 87.5 121.6 84.8 126.2 79.4 126.2 C 75.2 126.2 73.5 123.9 73.5 120.6 C 73.5 115.8 76.1 111.2 81.6 111.2 Z M 79.6 124.1 C 81.9 124.1 83.2 119.7 83.2 116.2 C 83.2 114.6 82.7 113.3 81.4 113.3 C 79 113.3 77.8 117.6 77.8 121.2 C 77.8 122.8 78.3 124.1 79.6 124.1 Z M 96.3 125.3 C 95.5 124.9 95.1 124.2 95.1 123.3 C 95.1 122.1 96.1 120.8 97.8 120.1 C 96 119.5 95.1 118.1 95.1 116.5 C 95.1 113.4 97.5 111.2 101.7 111.2 C 103.3 111.2 104.5 111.5 105.4 112 C 106.2 111.3 107.7 110.9 109.1 110.9 C 109.1 111.6 109 112.6 108.6 113.6 C 108.6 113.6 106.9 113.6 106.9 113.6 C 107.1 114.1 107.3 114.7 107.3 115.4 C 107.3 118.5 104.8 120.6 100.6 120.6 C 100.1 120.6 99.6 120.6 99.1 120.5 C 98.7 120.8 98.4 121.2 98.4 121.6 C 98.4 122.1 98.7 122.4 99.4 122.4 C 99.4 122.4 102.8 122.7 102.8 122.7 C 105.8 122.9 107 123.9 107 126 C 107 128.9 103.9 131.7 98.5 131.7 C 94.8 131.7 92.9 130.5 92.9 128.6 C 92.9 126.9 94.1 125.8 96.3 125.3 Z M 103.3 115.1 C 103.3 113.7 102.7 112.8 101.5 112.8 C 99.8 112.8 99.1 114.6 99.1 116.7 C 99.1 118.2 99.7 119 100.8 119 C 102.5 119 103.3 117.2 103.3 115.1 Z M 96.2 127.9 C 96.2 129.2 97.4 129.8 99.3 129.8 C 101.8 129.8 103.5 129 103.5 127.4 C 103.5 126.5 103 126.1 101.5 126 C 101.5 126 97.8 125.7 97.8 125.7 C 96.7 126.2 96.2 127 96.2 127.9 Z M 116.4 111.2 C 119.3 111.2 120.9 112.5 120.9 114.6 C 120.9 117.4 118.7 119.1 114.2 119.1 C 114.2 119.1 113 119.1 113 119.1 C 113 119.5 113 120 113 120.5 C 113 122.4 113.8 123.3 115.1 123.3 C 116.5 123.3 117.4 122.5 118.4 120.9 C 118.4 120.9 119.8 121.5 119.8 121.5 C 118.7 124.6 116.5 126.2 113.7 126.2 C 110.4 126.2 108.7 124.3 108.7 120.8 C 108.7 115.7 111.4 111.2 116.4 111.2 Z M 113.2 117.6 C 113.2 117.6 113.8 117.6 113.8 117.6 C 116.1 117.6 117.1 116.4 117.1 114.9 C 117.1 114 116.7 113.4 115.9 113.4 C 114.5 113.4 113.6 115.2 113.2 117.6 Z M 124.6 111.4 C 124.6 111.4 125.2 109.1 125.2 109.1 C 126 108.9 127.7 108.7 128.9 108.7 C 128.94 108.68 128.5 111.5 128.5 111.5 L 131.7 111.5 L 131.4 113.6 L 128.2 113.6 C 128.2 113.6 127.2 119.99 127.2 120 C 127.1 120.8 127 121.5 127 122.1 C 127 122.9 127.2 123.3 127.8 123.3 C 128.7 123.3 129.4 122.2 130.1 121 C 130.1 121 131.3 121.5 131.3 121.5 C 130.4 124.2 128.8 126.1 126 126.1 C 123.8 126.1 122.8 124.9 122.8 122.9 C 122.8 122.2 122.9 121.1 123.1 120.1 C 123.06 120.11 124 113.6 124 113.6 L 122 113.6 C 122 113.6 122.31 112.1 122.3 112.1 C 122.7 111.8 123.5 111.5 124.6 111.4 Z M 140.4 111.4 C 140.4 111.4 141.1 109.1 141.1 109.1 C 141.8 108.9 143.5 108.7 144.7 108.7 C 144.75 108.68 144.3 111.5 144.3 111.5 L 147.5 111.5 L 147.2 113.6 L 144 113.6 C 144 113.6 143.01 119.99 143 120 C 142.9 120.8 142.8 121.5 142.8 122.1 C 142.8 122.9 143 123.3 143.6 123.3 C 144.5 123.3 145.2 122.2 145.9 121 C 145.9 121 147.1 121.5 147.1 121.5 C 146.2 124.2 144.6 126.1 141.8 126.1 C 139.6 126.1 138.6 124.9 138.6 122.9 C 138.6 122.2 138.7 121.1 138.9 120.1 C 138.87 120.11 139.9 113.6 139.9 113.6 L 137.8 113.6 C 137.8 113.6 138.12 112.1 138.1 112.1 C 138.5 111.8 139.3 111.5 140.4 111.4 Z M 156.4 111.2 C 160.5 111.2 162.3 113.4 162.3 116.8 C 162.3 121.6 159.7 126.2 154.2 126.2 C 150.1 126.2 148.3 123.9 148.3 120.6 C 148.3 115.8 151 111.2 156.4 111.2 Z M 154.4 124.1 C 156.7 124.1 158 119.7 158 116.2 C 158 114.6 157.5 113.3 156.2 113.3 C 153.9 113.3 152.6 117.6 152.6 121.2 C 152.6 122.8 153.1 124.1 154.4 124.1 Z M 190.9 116.5 L 190.5 119.2 L 167.8 119.2 L 168.2 116.5 L 190.9 116.5 Z M 199.4 126.6 C 199.38 126.62 199.5 126.4 199.5 126.4 L 197.3 113.9 L 195.6 113.5 C 195.6 113.5 195.75 112.04 195.7 112 C 197 111.6 199.1 111.3 201 111.3 C 201 111.3 202.8 122 202.8 122 C 204.8 119.3 205.6 116.7 205.8 114 C 205.83 113.96 204.1 113.5 204.1 113.5 C 204.1 113.5 204.24 112.04 204.2 112 C 205.2 111.6 206.6 111.3 207.7 111.3 C 209.1 111.3 209.4 111.9 209.4 113.1 C 209.4 115.8 207.3 119.1 204.3 123.2 C 204.3 123.2 201.4 127.2 201.4 127.2 C 199.8 129.4 198 131.7 195.8 131.7 C 194.5 131.7 193.6 131.1 193 130.1 C 193 130.1 193.3 128.7 193.3 128.7 C 194 129 195.1 129.2 195.7 129.2 C 197.6 129.2 198.5 128 199.4 126.6 Z M 217.9 111.2 C 222.1 111.2 223.9 113.4 223.9 116.8 C 223.9 121.6 221.2 126.2 215.8 126.2 C 211.6 126.2 209.9 123.9 209.9 120.6 C 209.9 115.8 212.5 111.2 217.9 111.2 Z M 216 124.1 C 218.3 124.1 219.5 119.7 219.5 116.2 C 219.5 114.6 219.1 113.3 217.8 113.3 C 215.4 113.3 214.2 117.6 214.2 121.2 C 214.2 122.8 214.7 124.1 216 124.1 Z M 239.9 111.3 C 239.9 111.3 238.3 121.4 238.3 121.4 C 238.2 121.9 238.1 122.5 238.1 122.8 C 238.1 123.4 238.4 123.6 239.2 123.6 C 239.22 123.65 240.2 123.6 240.2 123.6 C 240.2 123.6 239.91 125.3 239.9 125.3 C 239.2 125.7 237.7 126.1 236.3 126.1 C 234.6 126.1 233.9 125.3 233.9 123.9 C 233.9 123.6 234 123.1 234 122.8 C 234 122.8 234 122.8 234 122.8 C 232.8 124.9 230.9 126.1 228.9 126.1 C 226.9 126.1 225.9 125 225.9 123.3 C 225.9 122.8 225.9 122.4 226 121.8 C 226.02 121.85 227.3 113.9 227.3 113.9 L 225.5 113.5 C 225.5 113.5 225.69 112.04 225.7 112 C 227 111.6 229.6 111.3 231.9 111.3 C 231.9 111.3 230.3 120.6 230.3 120.6 C 230.2 121.1 230.2 121.6 230.2 122 C 230.2 122.7 230.5 123.1 231.4 123.1 C 232.3 123.1 233.3 122.5 234.2 121 C 234.21 121.01 235.3 113.9 235.3 113.9 L 233.5 113.5 C 233.5 113.5 233.79 112.04 233.8 112 C 235.1 111.6 237.7 111.3 239.9 111.3 Z M 255.1 111.2 C 256.9 111.2 258.3 111.7 259.1 112.3 C 259.1 113.7 258.6 115.5 258.1 116.6 C 258.09 116.63 255.9 116.6 255.9 116.6 C 255.9 116.6 255.75 113.48 255.7 113.5 C 255.6 113.4 255.5 113.4 255.3 113.4 C 253 113.4 251.5 117.1 251.5 120.5 C 251.5 122.4 252.4 123.3 253.6 123.3 C 255 123.3 256 122.4 256.9 120.9 C 256.9 120.9 258.4 121.5 258.4 121.5 C 257.2 124.6 255.1 126.2 252.1 126.2 C 248.9 126.2 247.2 124.2 247.2 120.8 C 247.2 115.7 250 111.2 255.1 111.2 Z M 267 111.2 C 268.4 111.2 269.3 111.7 269.9 112.5 C 270.5 111.9 271.6 111.4 272.5 111.2 C 272.52 111.2 273.9 111.6 273.9 111.6 C 273.9 111.6 272.4 121.37 272.4 121.4 C 272.3 121.9 272.2 122.5 272.2 122.8 C 272.2 123.4 272.5 123.6 273.3 123.6 C 273.33 123.65 274.3 123.6 274.3 123.6 C 274.3 123.6 274.02 125.3 274 125.3 C 273.2 125.7 271.9 126.1 270.4 126.1 C 268.7 126.1 268 125.3 268 123.9 C 268 123.7 268 123.6 268 123.4 C 267.1 125.1 265.7 126.1 263.7 126.1 C 261.2 126.1 259.9 124.3 259.9 121.1 C 259.9 115.7 262.8 111.2 267 111.2 Z M 268.3 121.5 C 268.3 121.5 269.5 113.8 269.5 113.8 C 269.1 113.7 268.6 113.6 268.2 113.6 C 265.7 113.6 264.2 117.1 264.2 121 C 264.2 122.6 264.7 123.4 265.8 123.4 C 266.8 123.4 267.5 122.6 268.3 121.5 Z M 282.4 111.3 C 282.4 111.3 281.8 114.5 281.8 114.5 C 283.2 112.4 284.7 111.2 286.8 111.2 C 288.9 111.2 290 112.4 290 114 C 290 114.6 289.9 115.1 289.8 115.7 C 289.8 115.7 288.7 121.4 288.7 121.4 C 288.6 122.1 288.6 122.5 288.6 122.8 C 288.6 123.4 288.8 123.6 289.7 123.6 C 289.68 123.65 290.6 123.6 290.6 123.6 C 290.6 123.6 290.37 125.3 290.4 125.3 C 289.6 125.7 288.2 126.1 286.8 126.1 C 285.1 126.1 284.3 125.4 284.3 123.9 C 284.3 123.3 284.4 122.6 284.5 122.2 C 284.5 122.2 285.5 116.7 285.5 116.7 C 285.6 116.2 285.7 115.7 285.7 115.4 C 285.7 114.6 285.3 114.2 284.5 114.2 C 283.5 114.2 282.6 114.9 281.6 116.3 C 281.58 116.27 280.1 125.8 280.1 125.8 L 275.9 125.8 L 277.8 113.9 L 276 113.5 C 276 113.5 276.15 112.04 276.1 112 C 277.5 111.6 280.1 111.3 282.4 111.3 Z M 295.7 106.3 C 297.4 106.3 298.1 107.4 298.1 109.2 C 298.1 112 296.1 114.9 292.7 115.9 C 292.7 115.9 291.9 114.5 291.9 114.5 C 293.4 113.8 294.8 112.6 295.2 111 C 293.9 111 293.1 110.1 293.1 108.9 C 293.1 107.4 294.2 106.3 295.7 106.3 Z M 301.6 111.4 C 301.6 111.4 302.3 109.1 302.3 109.1 C 303.1 108.9 304.7 108.7 306 108.7 C 305.96 108.68 305.5 111.5 305.5 111.5 L 308.8 111.5 L 308.5 113.6 L 305.2 113.6 C 305.2 113.6 304.22 119.99 304.2 120 C 304.1 120.8 304 121.5 304 122.1 C 304 122.9 304.3 123.3 304.8 123.3 C 305.7 123.3 306.4 122.2 307.1 121 C 307.1 121 308.3 121.5 308.3 121.5 C 307.4 124.2 305.8 126.1 303.1 126.1 C 300.8 126.1 299.8 124.9 299.8 122.9 C 299.8 122.2 299.9 121.1 300.1 120.1 C 300.08 120.11 301.1 113.6 301.1 113.6 L 299 113.6 C 299 113.6 299.33 112.1 299.3 112.1 C 299.8 111.8 300.6 111.5 301.6 111.4 Z M 329.9 104.8 C 329.9 104.8 327.3 121.2 327.3 121.2 C 327.2 121.9 327.1 122.5 327.1 122.8 C 327.1 123.4 327.4 123.6 328.2 123.6 C 328.19 123.65 329.2 123.6 329.2 123.6 C 329.2 123.6 328.88 125.3 328.9 125.3 C 328.1 125.7 326.7 126.1 325.3 126.1 C 323.6 126.1 322.9 125.3 322.9 123.9 C 322.9 123.7 322.9 123.6 322.9 123.4 C 322 125.1 320.5 126.1 318.6 126.1 C 316.1 126.1 314.8 124.3 314.8 121.1 C 314.8 115.7 317.6 111.2 321.9 111.2 C 323.1 111.2 324 111.6 324.6 112.3 C 324.59 112.31 325.3 107.6 325.3 107.6 L 323.1 107.1 C 323.1 107.1 323.3 105.62 323.3 105.6 C 324.7 105.2 327.7 104.8 329.9 104.8 Z M 323.2 121.5 C 323.2 121.5 324.4 113.8 324.4 113.8 C 324 113.7 323.5 113.6 323.1 113.6 C 320.5 113.6 319.1 117.1 319.1 121 C 319.1 122.6 319.6 123.4 320.7 123.4 C 321.7 123.4 322.4 122.6 323.2 121.5 Z M 337.2 111.3 C 337.2 111.3 336.7 114.8 336.7 114.8 C 337.8 112.5 339.3 111.2 340.9 111.2 C 341.8 111.2 342.4 111.5 342.7 111.7 C 342.7 113.4 342.2 115.5 341.7 116.7 C 341.66 116.69 339.4 116.7 339.4 116.7 C 339.4 116.7 339.2 114.14 339.2 114.1 C 338.3 114.3 337.3 115.3 336.3 117 C 336.32 116.96 334.9 125.8 334.9 125.8 L 330.8 125.8 L 332.7 113.9 L 330.8 113.5 C 330.8 113.5 331.01 112.04 331 112 C 332.4 111.6 335 111.3 337.2 111.3 Z M 346.9 105.3 C 347.4 105.2 348.1 105.1 349 105.1 C 349.7 105.1 350.6 105.2 351 105.3 C 351 106.3 350.5 108.1 350.1 109 C 349.6 109.2 349 109.3 348.2 109.3 C 347.5 109.3 346.8 109.2 346.4 109 C 346.4 107.6 346.5 106.3 346.9 105.3 Z M 350 111.3 C 350 111.3 348.4 121.2 348.4 121.2 C 348.3 121.9 348.3 122.4 348.3 122.8 C 348.3 123.4 348.5 123.6 349.3 123.6 C 349.34 123.65 350.3 123.6 350.3 123.6 C 350.3 123.6 350.03 125.3 350 125.3 C 349.3 125.7 347.9 126.1 346.4 126.1 C 344.8 126.1 344 125.3 344 123.9 C 344 123.4 344 122.7 344.2 122.2 C 344.15 122.21 345.4 113.9 345.4 113.9 L 343.6 113.5 C 343.6 113.5 343.79 112.04 343.8 112 C 345.1 111.6 347.8 111.3 350 111.3 Z M 351.1 113.5 C 351.1 113.5 351.29 112.04 351.3 112 C 352.5 111.6 354.7 111.3 356.6 111.3 C 356.57 111.26 358.4 122 358.4 122 C 358.4 122 359 121.01 359 121 C 360.7 118.4 361.3 116.3 361.4 114 C 361.4 113.96 359.6 113.5 359.6 113.5 C 359.6 113.5 359.78 112.04 359.8 112 C 360.7 111.6 362.2 111.3 363.2 111.3 C 364.6 111.3 365 111.9 365 113.1 C 365 115.4 363.5 118.7 359.8 123.3 C 359.81 123.26 357.6 125.8 357.6 125.8 L 355 125.8 L 352.9 113.9 L 351.1 113.5 Z M 373.2 111.2 C 376.1 111.2 377.6 112.5 377.6 114.6 C 377.6 117.4 375.5 119.1 370.9 119.1 C 370.9 119.1 369.8 119.1 369.8 119.1 C 369.7 119.5 369.7 120 369.7 120.5 C 369.7 122.4 370.6 123.3 371.8 123.3 C 373.2 123.3 374.2 122.5 375.2 120.9 C 375.2 120.9 376.6 121.5 376.6 121.5 C 375.4 124.6 373.3 126.2 370.4 126.2 C 367.1 126.2 365.4 124.3 365.4 120.8 C 365.4 115.7 368.2 111.2 373.2 111.2 Z M 370 117.6 C 370 117.6 370.6 117.6 370.6 117.6 C 372.9 117.6 373.9 116.4 373.9 114.9 C 373.9 114 373.5 113.4 372.7 113.4 C 371.3 113.4 370.3 115.2 370 117.6 Z M 386.9 111.4 C 386.9 111.4 387.6 109.1 387.6 109.1 C 388.4 108.9 390.1 108.7 391.3 108.7 C 391.31 108.68 390.9 111.5 390.9 111.5 L 394.1 111.5 L 393.8 113.6 L 390.6 113.6 C 390.6 113.6 389.57 119.99 389.6 120 C 389.5 120.8 389.4 121.5 389.4 122.1 C 389.4 122.9 389.6 123.3 390.2 123.3 C 391 123.3 391.8 122.2 392.5 121 C 392.5 121 393.7 121.5 393.7 121.5 C 392.8 124.2 391.1 126.1 388.4 126.1 C 386.2 126.1 385.2 124.9 385.2 122.9 C 385.2 122.2 385.3 121.1 385.4 120.1 C 385.43 120.11 386.4 113.6 386.4 113.6 L 384.4 113.6 C 384.4 113.6 384.68 112.1 384.7 112.1 C 385.1 111.8 385.9 111.5 386.9 111.4 Z M 403 111.2 C 407.1 111.2 408.9 113.4 408.9 116.8 C 408.9 121.6 406.2 126.2 400.8 126.2 C 396.6 126.2 394.9 123.9 394.9 120.6 C 394.9 115.8 397.5 111.2 403 111.2 Z M 401 124.1 C 403.3 124.1 404.5 119.7 404.5 116.2 C 404.5 114.6 404.1 113.3 402.8 113.3 C 400.4 113.3 399.2 117.6 399.2 121.2 C 399.2 122.8 399.7 124.1 401 124.1 Z M 418.6 111.4 C 418.6 111.4 419.3 109.1 419.3 109.1 C 420.1 108.9 421.8 108.7 423 108.7 C 423.02 108.68 422.6 111.5 422.6 111.5 L 425.8 111.5 L 425.5 113.6 L 422.3 113.6 C 422.3 113.6 421.28 119.99 421.3 120 C 421.2 120.8 421.1 121.5 421.1 122.1 C 421.1 122.9 421.3 123.3 421.9 123.3 C 422.8 123.3 423.5 122.2 424.2 121 C 424.2 121 425.4 121.5 425.4 121.5 C 424.5 124.2 422.8 126.1 420.1 126.1 C 417.9 126.1 416.9 124.9 416.9 122.9 C 416.9 122.2 417 121.1 417.1 120.1 C 417.14 120.11 418.1 113.6 418.1 113.6 L 416.1 113.6 C 416.1 113.6 416.39 112.1 416.4 112.1 C 416.8 111.8 417.6 111.5 418.6 111.4 Z M 434.9 122.2 C 434.9 122.2 435.9 116.7 435.9 116.7 C 436 116.2 436.1 115.7 436.1 115.4 C 436.1 114.6 435.7 114.2 434.9 114.2 C 433.9 114.2 433 114.9 432 116.3 C 431.96 116.3 430.5 125.8 430.5 125.8 L 426.3 125.8 L 429.2 107.5 L 427.1 107.1 C 427.1 107.1 427.25 105.62 427.3 105.6 C 428.6 105.2 431.5 104.8 433.7 104.8 C 433.7 104.8 432.2 114.5 432.2 114.5 C 433.6 112.4 435.2 111.2 437.2 111.2 C 439.3 111.2 440.4 112.4 440.4 114 C 440.4 114.6 440.3 115.1 440.2 115.7 C 440.2 115.7 439.2 121.4 439.2 121.4 C 439 122.1 439 122.5 439 122.8 C 439 123.4 439.3 123.6 440.1 123.6 C 440.09 123.65 441.1 123.6 441.1 123.6 C 441.1 123.6 440.78 125.3 440.8 125.3 C 440 125.7 438.6 126.1 437.2 126.1 C 435.5 126.1 434.7 125.4 434.7 123.9 C 434.7 123.3 434.8 122.6 434.9 122.2 Z M 450.4 111.2 C 453.3 111.2 454.8 112.5 454.8 114.6 C 454.8 117.4 452.7 119.1 448.1 119.1 C 448.1 119.1 447 119.1 447 119.1 C 446.9 119.5 446.9 120 446.9 120.5 C 446.9 122.4 447.8 123.3 449 123.3 C 450.4 123.3 451.4 122.5 452.4 120.9 C 452.4 120.9 453.8 121.5 453.8 121.5 C 452.6 124.6 450.4 126.2 447.6 126.2 C 444.3 126.2 442.6 124.3 442.6 120.8 C 442.6 115.7 445.3 111.2 450.4 111.2 Z M 447.1 117.6 C 447.1 117.6 447.7 117.6 447.7 117.6 C 450.1 117.6 451.1 116.4 451.1 114.9 C 451.1 114 450.7 113.4 449.9 113.4 C 448.5 113.4 447.5 115.2 447.1 117.6 Z M 464.9 105.3 C 465.4 105.2 466.2 105.1 467.1 105.1 C 467.8 105.1 468.7 105.2 469.1 105.3 C 469.1 106.3 468.6 108.1 468.2 109 C 467.6 109.2 467.1 109.3 466.3 109.3 C 465.5 109.3 464.9 109.2 464.5 109 C 464.5 107.6 464.6 106.3 464.9 105.3 Z M 468.1 111.3 C 468.1 111.3 466.5 121.2 466.5 121.2 C 466.4 121.9 466.3 122.4 466.3 122.8 C 466.3 123.4 466.6 123.6 467.4 123.6 C 467.42 123.65 468.4 123.6 468.4 123.6 C 468.4 123.6 468.11 125.3 468.1 125.3 C 467.4 125.7 466 126.1 464.5 126.1 C 462.9 126.1 462.1 125.3 462.1 123.9 C 462.1 123.4 462.1 122.7 462.2 122.2 C 462.23 122.21 463.5 113.9 463.5 113.9 L 461.7 113.5 C 461.7 113.5 461.87 112.04 461.9 112 C 463.2 111.6 465.8 111.3 468.1 111.3 Z M 470.6 121.3 C 470.63 121.34 472.7 121.3 472.7 121.3 C 472.7 121.3 472.88 124.22 472.9 124.2 C 473.3 124.3 473.7 124.3 474.1 124.3 C 475.7 124.3 476.7 123.5 476.7 122.4 C 476.7 121.2 475.6 120.7 474.3 119.9 C 474.3 119.9 473.3 119.4 473.3 119.4 C 472.1 118.7 471.1 117.6 471.1 115.9 C 471.1 112.9 473.4 111.2 476.9 111.2 C 478.8 111.2 480.7 111.6 481.6 112 C 481.6 113.4 481.5 114.7 480.7 116 C 480.74 116 478.6 116 478.6 116 C 478.6 116 478.55 113.21 478.5 113.2 C 478.2 113.1 477.7 113.1 477.3 113.1 C 475.9 113.1 474.9 113.7 474.9 115 C 474.9 116 475.9 116.5 477 117.1 C 477 117.1 478 117.7 478 117.7 C 479.4 118.5 480.8 119.5 480.8 121.4 C 480.8 124.3 478.5 126.1 474.5 126.1 C 472.8 126.1 470.7 125.8 469.6 125.3 C 469.7 123.7 470.1 122.4 470.6 121.3 Z M 489.9 104.8 C 489.9 104.8 487.4 121.2 487.4 121.2 C 487.2 121.9 487.2 122.4 487.2 122.8 C 487.2 123.4 487.5 123.6 488.3 123.6 C 488.3 123.65 489.2 123.6 489.2 123.6 C 489.2 123.6 488.96 125.3 489 125.3 C 488.2 125.7 486.8 126.1 485.4 126.1 C 483.7 126.1 482.9 125.3 482.9 123.9 C 482.9 123.4 483 122.7 483.1 122.2 C 483.08 122.21 485.4 107.5 485.4 107.5 L 483.3 107.1 C 483.3 107.1 483.44 105.62 483.4 105.6 C 484.8 105.2 487.7 104.8 489.9 104.8 Z M 497.9 111.2 C 499.3 111.2 500.2 111.7 500.8 112.5 C 501.4 111.9 502.5 111.4 503.4 111.2 C 503.39 111.2 504.8 111.6 504.8 111.6 C 504.8 111.6 503.27 121.37 503.3 121.4 C 503.2 121.9 503.1 122.5 503.1 122.8 C 503.1 123.4 503.4 123.6 504.2 123.6 C 504.2 123.65 505.2 123.6 505.2 123.6 C 505.2 123.6 504.89 125.3 504.9 125.3 C 504.1 125.7 502.7 126.1 501.3 126.1 C 499.6 126.1 498.9 125.3 498.9 123.9 C 498.9 123.7 498.9 123.6 498.9 123.4 C 498 125.1 496.5 126.1 494.6 126.1 C 492.1 126.1 490.8 124.3 490.8 121.1 C 490.8 115.7 493.6 111.2 497.9 111.2 Z M 499.1 121.5 C 499.1 121.5 500.4 113.8 500.4 113.8 C 500 113.7 499.5 113.6 499.1 113.6 C 496.5 113.6 495.1 117.1 495.1 121 C 495.1 122.6 495.6 123.4 496.7 123.4 C 497.7 123.4 498.4 122.6 499.1 121.5 Z M 513.2 111.3 C 513.2 111.3 512.7 114.5 512.7 114.5 C 514 112.4 515.6 111.2 517.7 111.2 C 519.8 111.2 520.8 112.4 520.8 114 C 520.8 114.6 520.8 115.1 520.7 115.7 C 520.7 115.7 519.6 121.4 519.6 121.4 C 519.5 122.1 519.4 122.5 519.4 122.8 C 519.4 123.4 519.7 123.6 520.5 123.6 C 520.55 123.65 521.5 123.6 521.5 123.6 C 521.5 123.6 521.24 125.3 521.2 125.3 C 520.5 125.7 519.1 126.1 517.6 126.1 C 515.9 126.1 515.1 125.4 515.1 123.9 C 515.1 123.3 515.3 122.6 515.3 122.2 C 515.3 122.2 516.3 116.7 516.3 116.7 C 516.4 116.2 516.5 115.7 516.5 115.4 C 516.5 114.6 516.2 114.2 515.3 114.2 C 514.4 114.2 513.5 114.9 512.4 116.3 C 512.45 116.27 510.9 125.8 510.9 125.8 L 506.8 125.8 L 508.7 113.9 L 506.8 113.5 C 506.8 113.5 507.02 112.04 507 112 C 508.4 111.6 511 111.3 513.2 111.3 Z M 538.2 104.8 C 538.2 104.8 535.7 121.2 535.7 121.2 C 535.6 121.9 535.5 122.5 535.5 122.8 C 535.5 123.4 535.8 123.6 536.6 123.6 C 536.57 123.65 537.5 123.6 537.5 123.6 C 537.5 123.6 537.26 125.3 537.3 125.3 C 536.5 125.7 535.1 126.1 533.7 126.1 C 532 126.1 531.3 125.3 531.3 123.9 C 531.3 123.7 531.3 123.6 531.3 123.4 C 530.3 125.1 528.9 126.1 527 126.1 C 524.4 126.1 523.1 124.3 523.1 121.1 C 523.1 115.7 526 111.2 530.3 111.2 C 531.5 111.2 532.4 111.6 533 112.3 C 532.97 112.31 533.7 107.6 533.7 107.6 L 531.5 107.1 C 531.5 107.1 531.68 105.62 531.7 105.6 C 533 105.2 536 104.8 538.2 104.8 Z M 531.5 121.5 C 531.5 121.5 532.7 113.8 532.7 113.8 C 532.3 113.7 531.9 113.6 531.4 113.6 C 528.9 113.6 527.4 117.1 527.4 121 C 527.4 122.6 528 123.4 529 123.4 C 530 123.4 530.8 122.6 531.5 121.5 Z M 539.8 121.3 C 539.78 121.34 541.8 121.3 541.8 121.3 C 541.8 121.3 542.03 124.22 542 124.2 C 542.4 124.3 542.8 124.3 543.3 124.3 C 544.9 124.3 545.8 123.5 545.8 122.4 C 545.8 121.2 544.7 120.7 543.4 119.9 C 543.4 119.9 542.4 119.4 542.4 119.4 C 541.2 118.7 540.2 117.6 540.2 115.9 C 540.2 112.9 542.6 111.2 546 111.2 C 548 111.2 549.8 111.6 550.8 112 C 550.8 113.4 550.6 114.7 549.9 116 C 549.89 116 547.8 116 547.8 116 C 547.8 116 547.7 113.21 547.7 113.2 C 547.3 113.1 546.9 113.1 546.4 113.1 C 545.1 113.1 544.1 113.7 544.1 115 C 544.1 116 545.1 116.5 546.1 117.1 C 546.1 117.1 547.2 117.7 547.2 117.7 C 548.6 118.5 549.9 119.5 549.9 121.4 C 549.9 124.3 547.6 126.1 543.6 126.1 C 542 126.1 539.9 125.8 538.8 125.3 C 538.8 123.7 539.2 122.4 539.8 121.3 Z M 552.1 124 C 552.1 122.2 553.2 121 554.8 121 C 556.3 121 557.1 121.8 557.1 123.3 C 557.1 125 556.1 126.2 554.5 126.2 C 553.1 126.2 552.1 125.4 552.1 124 Z M 576.4 123.9 C 576.44 123.86 575.9 120.5 575.9 120.5 L 569.6 120.5 C 569.6 120.5 568.01 123.83 568 123.8 C 568.8 123.9 569.5 124.1 570 124.2 C 569.99 124.25 569.7 125.8 569.7 125.8 L 563.5 125.8 C 563.5 125.8 563.75 124.25 563.7 124.2 C 564 124.1 564.5 124 565.1 123.9 C 565.1 123.9 574.1 106.6 574.1 106.6 C 574.6 106.5 575.4 106.4 576 106.4 C 576.6 106.4 577.1 106.5 577.6 106.6 C 577.6 106.6 581 123.9 581 123.9 C 581.5 123.9 582 124.1 582.3 124.2 C 582.32 124.25 582.1 125.8 582.1 125.8 L 574.1 125.8 C 574.1 125.8 574.28 124.25 574.3 124.2 C 574.7 124.1 575.7 123.9 576.4 123.9 Z M 575.5 118.3 L 574.2 111.1 L 570.7 118.3 L 575.5 118.3 Z " stroke="none" fill="#404040"/>    <path d="M 1.5 158.3 C 1.5 158.34 3.5 158.3 3.5 158.3 C 3.5 158.3 3.75 161.22 3.8 161.2 C 4.1 161.3 4.6 161.3 5 161.3 C 6.6 161.3 7.6 160.5 7.6 159.4 C 7.6 158.2 6.4 157.7 5.1 156.9 C 5.1 156.9 4.1 156.4 4.1 156.4 C 2.9 155.7 1.9 154.6 1.9 152.9 C 1.9 149.9 4.3 148.2 7.8 148.2 C 9.7 148.2 11.6 148.6 12.5 149 C 12.5 150.4 12.3 151.7 11.6 153 C 11.61 153 9.5 153 9.5 153 C 9.5 153 9.42 150.21 9.4 150.2 C 9 150.1 8.6 150.1 8.1 150.1 C 6.8 150.1 5.8 150.7 5.8 152 C 5.8 153 6.8 153.5 7.8 154.1 C 7.8 154.1 8.9 154.7 8.9 154.7 C 10.3 155.5 11.7 156.5 11.7 158.4 C 11.7 161.3 9.3 163.1 5.3 163.1 C 3.7 163.1 1.6 162.8 0.5 162.3 C 0.6 160.7 0.9 159.4 1.5 158.3 Z M 22 159.2 C 22 159.2 23 153.7 23 153.7 C 23.1 153.2 23.2 152.7 23.2 152.4 C 23.2 151.6 22.9 151.2 22 151.2 C 21.1 151.2 20.2 151.9 19.1 153.3 C 19.11 153.3 17.6 162.8 17.6 162.8 L 13.5 162.8 L 16.3 144.5 L 14.2 144.1 C 14.2 144.1 14.4 142.62 14.4 142.6 C 15.7 142.2 18.7 141.8 20.9 141.8 C 20.9 141.8 19.4 151.5 19.4 151.5 C 20.7 149.4 22.3 148.2 24.4 148.2 C 26.5 148.2 27.5 149.4 27.5 151 C 27.5 151.6 27.4 152.1 27.4 152.7 C 27.4 152.7 26.3 158.4 26.3 158.4 C 26.2 159.1 26.1 159.5 26.1 159.8 C 26.1 160.4 26.4 160.6 27.2 160.6 C 27.24 160.65 28.2 160.6 28.2 160.6 C 28.2 160.6 27.93 162.3 27.9 162.3 C 27.2 162.7 25.8 163.1 24.3 163.1 C 22.6 163.1 21.8 162.4 21.8 160.9 C 21.8 160.3 22 159.6 22 159.2 Z M 37.8 148.2 C 42 148.2 43.7 150.4 43.7 153.8 C 43.7 158.6 41.1 163.2 35.7 163.2 C 31.5 163.2 29.8 160.9 29.8 157.6 C 29.8 152.8 32.4 148.2 37.8 148.2 Z M 35.8 161.1 C 38.2 161.1 39.4 156.7 39.4 153.2 C 39.4 151.6 38.9 150.3 37.6 150.3 C 35.3 150.3 34.1 154.6 34.1 158.2 C 34.1 159.8 34.6 161.1 35.8 161.1 Z M 51.9 148.3 C 51.9 148.3 51.4 151.8 51.4 151.8 C 52.4 149.5 54 148.2 55.6 148.2 C 56.5 148.2 57.1 148.5 57.4 148.7 C 57.4 150.4 56.9 152.5 56.3 153.7 C 56.34 153.69 54.1 153.7 54.1 153.7 C 54.1 153.7 53.88 151.14 53.9 151.1 C 52.9 151.3 52 152.3 51 154 C 51 153.96 49.6 162.8 49.6 162.8 L 45.4 162.8 L 47.3 150.9 L 45.5 150.5 C 45.5 150.5 45.69 149.04 45.7 149 C 47 148.6 49.6 148.3 51.9 148.3 Z M 61 148.4 C 61 148.4 61.7 146.1 61.7 146.1 C 62.5 145.9 64.1 145.7 65.4 145.7 C 65.4 145.68 64.9 148.5 64.9 148.5 L 68.2 148.5 L 67.9 150.6 L 64.6 150.6 C 64.6 150.6 63.66 156.99 63.7 157 C 63.5 157.8 63.4 158.5 63.4 159.1 C 63.4 159.9 63.7 160.3 64.3 160.3 C 65.1 160.3 65.9 159.2 66.5 158 C 66.5 158 67.8 158.5 67.8 158.5 C 66.9 161.2 65.2 163.1 62.5 163.1 C 60.3 163.1 59.2 161.9 59.2 159.9 C 59.2 159.2 59.4 158.1 59.5 157.1 C 59.52 157.11 60.5 150.6 60.5 150.6 L 58.5 150.6 C 58.5 150.6 58.77 149.1 58.8 149.1 C 59.2 148.8 60 148.5 61 148.4 Z M 81.8 141.8 C 81.8 141.8 80.4 150.8 80.4 150.8 C 81.3 149.2 82.7 148.2 84.6 148.2 C 87.1 148.2 88.5 150.2 88.5 153.2 C 88.5 158.5 85.9 163.1 81.3 163.1 C 79.9 163.1 78.9 162.7 78.2 161.9 C 77.5 162.5 76.6 163 75.7 163.1 C 75.75 163.14 74.4 162.8 74.4 162.8 L 77.2 144.5 L 75.1 144.1 C 75.1 144.1 75.27 142.62 75.3 142.6 C 76.6 142.2 79.6 141.8 81.8 141.8 Z M 80.1 152.8 C 80.1 152.8 78.9 160.5 78.9 160.5 C 79.2 160.6 79.7 160.8 80.2 160.8 C 82.6 160.8 84.1 157.2 84.1 153.3 C 84.1 151.7 83.6 150.9 82.5 150.9 C 81.6 150.9 80.8 151.7 80.1 152.8 Z M 104.5 148.3 C 104.5 148.3 103 158.4 103 158.4 C 102.9 158.9 102.8 159.5 102.8 159.8 C 102.8 160.4 103 160.6 103.9 160.6 C 103.89 160.65 104.8 160.6 104.8 160.6 C 104.8 160.6 104.58 162.3 104.6 162.3 C 103.8 162.7 102.4 163.1 101 163.1 C 99.3 163.1 98.6 162.3 98.6 160.9 C 98.6 160.6 98.6 160.1 98.7 159.8 C 98.7 159.8 98.7 159.8 98.7 159.8 C 97.5 161.9 95.6 163.1 93.6 163.1 C 91.5 163.1 90.5 162 90.5 160.3 C 90.5 159.8 90.6 159.4 90.7 158.8 C 90.69 158.85 92 150.9 92 150.9 L 90.2 150.5 C 90.2 150.5 90.36 149.04 90.4 149 C 91.7 148.6 94.3 148.3 96.5 148.3 C 96.5 148.3 95 157.6 95 157.6 C 94.9 158.1 94.9 158.6 94.9 159 C 94.9 159.7 95.2 160.1 96 160.1 C 97 160.1 97.9 159.5 98.9 158 C 98.88 158.01 100 150.9 100 150.9 L 98.2 150.5 C 98.2 150.5 98.46 149.04 98.5 149 C 99.8 148.6 102.3 148.3 104.5 148.3 Z M 108.8 148.4 C 108.8 148.4 109.5 146.1 109.5 146.1 C 110.3 145.9 111.9 145.7 113.2 145.7 C 113.19 145.68 112.7 148.5 112.7 148.5 L 116 148.5 L 115.7 150.6 L 112.4 150.6 C 112.4 150.6 111.45 156.99 111.4 157 C 111.3 157.8 111.2 158.5 111.2 159.1 C 111.2 159.9 111.5 160.3 112 160.3 C 112.9 160.3 113.7 159.2 114.3 158 C 114.3 158 115.6 158.5 115.6 158.5 C 114.7 161.2 113 163.1 110.3 163.1 C 108.1 163.1 107 161.9 107 159.9 C 107 159.2 107.2 158.1 107.3 157.1 C 107.31 157.11 108.3 150.6 108.3 150.6 L 106.3 150.6 C 106.3 150.6 106.56 149.1 106.6 149.1 C 107 148.8 107.8 148.5 108.8 148.4 Z M 129.7 148.2 C 132.6 148.2 134.1 149.5 134.1 151.6 C 134.1 154.4 132 156.1 127.4 156.1 C 127.4 156.1 126.3 156.1 126.3 156.1 C 126.2 156.5 126.2 157 126.2 157.5 C 126.2 159.4 127.1 160.3 128.3 160.3 C 129.7 160.3 130.7 159.5 131.7 157.9 C 131.7 157.9 133.1 158.5 133.1 158.5 C 131.9 161.6 129.7 163.2 126.9 163.2 C 123.6 163.2 121.9 161.3 121.9 157.8 C 121.9 152.7 124.6 148.2 129.7 148.2 Z M 126.4 154.6 C 126.4 154.6 127 154.6 127 154.6 C 129.4 154.6 130.4 153.4 130.4 151.9 C 130.4 151 130 150.4 129.2 150.4 C 127.8 150.4 126.8 152.2 126.4 154.6 Z M 140.6 148.3 C 140.64 148.26 142.5 153.3 142.5 153.3 C 142.5 153.3 144.96 148.59 145 148.6 C 145.5 148.5 148.5 148.5 149 148.5 C 149 148.5 148.8 150.1 148.8 150.1 C 148.4 150.2 147.9 150.4 147.3 150.5 C 147.33 150.54 143.4 155.6 143.4 155.6 C 143.4 155.6 144.93 159.39 144.9 159.4 C 145.3 160.5 145.6 160.6 146.7 160.6 C 146.67 160.65 147.5 160.6 147.5 160.6 C 147.5 160.6 147.27 162.3 147.3 162.3 C 146.3 162.8 145.3 163.1 144.2 163.1 C 142.5 163.1 141.6 162.4 141 160.7 C 141.03 160.74 140.1 158.3 140.1 158.3 L 137.7 162.8 L 133.6 162.8 C 133.6 162.8 133.89 161.25 133.9 161.2 C 134.2 161.1 134.8 160.9 135.4 160.8 C 135.39 160.83 139.2 155.9 139.2 155.9 L 137.3 151 L 135.4 150.5 C 135.4 150.5 135.54 149.04 135.5 149 C 136.8 148.6 138.8 148.3 140.6 148.3 Z M 156.6 148.2 C 158.4 148.2 159.8 148.7 160.6 149.3 C 160.6 150.7 160.1 152.5 159.6 153.6 C 159.6 153.63 157.4 153.6 157.4 153.6 C 157.4 153.6 157.26 150.48 157.3 150.5 C 157.1 150.4 157 150.4 156.8 150.4 C 154.5 150.4 153 154.1 153 157.5 C 153 159.4 153.9 160.3 155.1 160.3 C 156.5 160.3 157.5 159.4 158.5 157.9 C 158.5 157.9 159.9 158.5 159.9 158.5 C 158.7 161.6 156.6 163.2 153.6 163.2 C 150.4 163.2 148.7 161.2 148.7 157.8 C 148.7 152.7 151.5 148.2 156.6 148.2 Z M 165.3 142.3 C 165.8 142.2 166.6 142.1 167.4 142.1 C 168.1 142.1 169 142.2 169.4 142.3 C 169.4 143.3 169 145.1 168.5 146 C 168 146.2 167.4 146.3 166.6 146.3 C 165.9 146.3 165.2 146.2 164.8 146 C 164.8 144.6 164.9 143.3 165.3 142.3 Z M 168.4 148.3 C 168.4 148.3 166.9 158.2 166.9 158.2 C 166.7 158.9 166.7 159.4 166.7 159.8 C 166.7 160.4 166.9 160.6 167.8 160.6 C 167.76 160.65 168.7 160.6 168.7 160.6 C 168.7 160.6 168.45 162.3 168.4 162.3 C 167.7 162.7 166.3 163.1 164.8 163.1 C 163.2 163.1 162.4 162.3 162.4 160.9 C 162.4 160.4 162.4 159.7 162.6 159.2 C 162.57 159.21 163.9 150.9 163.9 150.9 L 162 150.5 C 162 150.5 162.21 149.04 162.2 149 C 163.5 148.6 166.2 148.3 168.4 148.3 Z M 172.6 148.4 C 172.6 148.4 173.3 146.1 173.3 146.1 C 174.1 145.9 175.8 145.7 177 145.7 C 177.03 145.68 176.6 148.5 176.6 148.5 L 179.8 148.5 L 179.5 150.6 L 176.3 150.6 C 176.3 150.6 175.29 156.99 175.3 157 C 175.2 157.8 175.1 158.5 175.1 159.1 C 175.1 159.9 175.3 160.3 175.9 160.3 C 176.8 160.3 177.5 159.2 178.2 158 C 178.2 158 179.4 158.5 179.4 158.5 C 178.5 161.2 176.8 163.1 174.1 163.1 C 171.9 163.1 170.9 161.9 170.9 159.9 C 170.9 159.2 171 158.1 171.1 157.1 C 171.15 157.11 172.1 150.6 172.1 150.6 L 170.1 150.6 C 170.1 150.6 170.4 149.1 170.4 149.1 C 170.8 148.8 171.6 148.5 172.6 148.4 Z M 183.9 142.3 C 184.4 142.2 185.2 142.1 186 142.1 C 186.7 142.1 187.6 142.2 188 142.3 C 188 143.3 187.6 145.1 187.1 146 C 186.6 146.2 186 146.3 185.2 146.3 C 184.5 146.3 183.8 146.2 183.4 146 C 183.4 144.6 183.5 143.3 183.9 142.3 Z M 187 148.3 C 187 148.3 185.5 158.2 185.5 158.2 C 185.3 158.9 185.3 159.4 185.3 159.8 C 185.3 160.4 185.5 160.6 186.4 160.6 C 186.36 160.65 187.3 160.6 187.3 160.6 C 187.3 160.6 187.05 162.3 187 162.3 C 186.3 162.7 184.9 163.1 183.4 163.1 C 181.8 163.1 181 162.3 181 160.9 C 181 160.4 181 159.7 181.2 159.2 C 181.17 159.21 182.5 150.9 182.5 150.9 L 180.6 150.5 C 180.6 150.5 180.81 149.04 180.8 149 C 182.1 148.6 184.8 148.3 187 148.3 Z M 195.4 148.3 C 195.4 148.3 194.9 151.5 194.9 151.5 C 196.2 149.4 197.8 148.2 199.8 148.2 C 201.9 148.2 203 149.4 203 151 C 203 151.6 202.9 152.1 202.8 152.7 C 202.8 152.7 201.8 158.4 201.8 158.4 C 201.7 159.1 201.6 159.5 201.6 159.8 C 201.6 160.4 201.9 160.6 202.7 160.6 C 202.71 160.65 203.7 160.6 203.7 160.6 C 203.7 160.6 203.4 162.3 203.4 162.3 C 202.6 162.7 201.2 163.1 199.8 163.1 C 198.1 163.1 197.3 162.4 197.3 160.9 C 197.3 160.3 197.4 159.6 197.5 159.2 C 197.5 159.2 198.5 153.7 198.5 153.7 C 198.6 153.2 198.7 152.7 198.7 152.4 C 198.7 151.6 198.3 151.2 197.5 151.2 C 196.6 151.2 195.6 151.9 194.6 153.3 C 194.61 153.27 193.1 162.8 193.1 162.8 L 188.9 162.8 L 190.8 150.9 L 189 150.5 C 189 150.5 189.18 149.04 189.2 149 C 190.5 148.6 193.1 148.3 195.4 148.3 Z M 206.7 162.3 C 205.9 161.9 205.5 161.2 205.5 160.3 C 205.5 159.1 206.5 157.8 208.2 157.1 C 206.4 156.5 205.5 155.1 205.5 153.5 C 205.5 150.4 208 148.2 212.2 148.2 C 213.7 148.2 214.9 148.5 215.8 149 C 216.6 148.3 218.2 147.9 219.5 147.9 C 219.5 148.6 219.5 149.6 219.1 150.6 C 219.1 150.6 217.3 150.6 217.3 150.6 C 217.6 151.1 217.7 151.7 217.7 152.4 C 217.7 155.5 215.2 157.6 211.1 157.6 C 210.5 157.6 210 157.6 209.6 157.5 C 209.2 157.8 208.8 158.2 208.8 158.6 C 208.8 159.1 209.1 159.4 209.9 159.4 C 209.9 159.4 213.2 159.7 213.2 159.7 C 216.2 159.9 217.4 160.9 217.4 163 C 217.4 165.9 214.3 168.7 208.9 168.7 C 205.2 168.7 203.3 167.5 203.3 165.6 C 203.3 163.9 204.5 162.8 206.7 162.3 Z M 213.7 152.1 C 213.7 150.7 213.1 149.8 211.9 149.8 C 210.2 149.8 209.5 151.6 209.5 153.7 C 209.5 155.2 210.1 156 211.3 156 C 213 156 213.7 154.2 213.7 152.1 Z M 206.6 164.9 C 206.6 166.2 207.8 166.8 209.8 166.8 C 212.2 166.8 213.9 166 213.9 164.4 C 213.9 163.5 213.4 163.1 211.9 163 C 211.9 163 208.2 162.7 208.2 162.7 C 207.1 163.2 206.6 164 206.6 164.9 Z M 233.1 148.2 C 237.3 148.2 239 150.4 239 153.8 C 239 158.6 236.4 163.2 231 163.2 C 226.8 163.2 225.1 160.9 225.1 157.6 C 225.1 152.8 227.7 148.2 233.1 148.2 Z M 231.1 161.1 C 233.5 161.1 234.7 156.7 234.7 153.2 C 234.7 151.6 234.2 150.3 232.9 150.3 C 230.6 150.3 229.4 154.6 229.4 158.2 C 229.4 159.8 229.9 161.1 231.1 161.1 Z M 248.6 148.2 C 250.4 148.2 251.8 148.7 252.6 149.3 C 252.6 150.7 252.1 152.5 251.6 153.6 C 251.61 153.63 249.4 153.6 249.4 153.6 C 249.4 153.6 249.27 150.48 249.3 150.5 C 249.1 150.4 249 150.4 248.8 150.4 C 246.5 150.4 245 154.1 245 157.5 C 245 159.4 245.9 160.3 247.1 160.3 C 248.5 160.3 249.5 159.4 250.5 157.9 C 250.5 157.9 251.9 158.5 251.9 158.5 C 250.7 161.6 248.6 163.2 245.6 163.2 C 242.4 163.2 240.7 161.2 240.7 157.8 C 240.7 152.7 243.5 148.2 248.6 148.2 Z M 261.1 148.2 C 264 148.2 265.6 149.5 265.6 151.6 C 265.6 154.4 263.4 156.1 258.9 156.1 C 258.9 156.1 257.7 156.1 257.7 156.1 C 257.7 156.5 257.7 157 257.7 157.5 C 257.7 159.4 258.5 160.3 259.7 160.3 C 261.1 160.3 262.1 159.5 263.1 157.9 C 263.1 157.9 264.5 158.5 264.5 158.5 C 263.4 161.6 261.2 163.2 258.4 163.2 C 255 163.2 253.3 161.3 253.3 157.8 C 253.3 152.7 256.1 148.2 261.1 148.2 Z M 257.9 154.6 C 257.9 154.6 258.5 154.6 258.5 154.6 C 260.8 154.6 261.8 153.4 261.8 151.9 C 261.8 151 261.4 150.4 260.6 150.4 C 259.2 150.4 258.3 152.2 257.9 154.6 Z M 273.6 148.2 C 275 148.2 275.9 148.7 276.5 149.5 C 277.1 148.9 278.2 148.4 279.1 148.2 C 279.09 148.2 280.5 148.6 280.5 148.6 C 280.5 148.6 278.97 158.37 279 158.4 C 278.9 158.9 278.8 159.5 278.8 159.8 C 278.8 160.4 279.1 160.6 279.9 160.6 C 279.9 160.65 280.9 160.6 280.9 160.6 C 280.9 160.6 280.59 162.3 280.6 162.3 C 279.8 162.7 278.4 163.1 277 163.1 C 275.3 163.1 274.6 162.3 274.6 160.9 C 274.6 160.7 274.6 160.6 274.6 160.4 C 273.7 162.1 272.2 163.1 270.3 163.1 C 267.8 163.1 266.5 161.3 266.5 158.1 C 266.5 152.7 269.3 148.2 273.6 148.2 Z M 274.8 158.5 C 274.8 158.5 276.1 150.8 276.1 150.8 C 275.7 150.7 275.2 150.6 274.8 150.6 C 272.2 150.6 270.8 154.1 270.8 158 C 270.8 159.6 271.3 160.4 272.4 160.4 C 273.4 160.4 274.1 159.6 274.8 158.5 Z M 288.9 148.3 C 288.9 148.3 288.4 151.5 288.4 151.5 C 289.7 149.4 291.3 148.2 293.4 148.2 C 295.5 148.2 296.5 149.4 296.5 151 C 296.5 151.6 296.5 152.1 296.4 152.7 C 296.4 152.7 295.3 158.4 295.3 158.4 C 295.2 159.1 295.1 159.5 295.1 159.8 C 295.1 160.4 295.4 160.6 296.2 160.6 C 296.25 160.65 297.2 160.6 297.2 160.6 C 297.2 160.6 296.94 162.3 296.9 162.3 C 296.2 162.7 294.8 163.1 293.3 163.1 C 291.6 163.1 290.8 162.4 290.8 160.9 C 290.8 160.3 291 159.6 291 159.2 C 291 159.2 292 153.7 292 153.7 C 292.1 153.2 292.2 152.7 292.2 152.4 C 292.2 151.6 291.9 151.2 291 151.2 C 290.1 151.2 289.2 151.9 288.1 153.3 C 288.15 153.27 286.6 162.8 286.6 162.8 L 282.5 162.8 L 284.4 150.9 L 282.5 150.5 C 282.5 150.5 282.72 149.04 282.7 149 C 284.1 148.6 286.7 148.3 288.9 148.3 Z M 303.7 150.5 C 303.7 150.5 303.87 149.04 303.9 149 C 305.1 148.6 307.3 148.3 309.1 148.3 C 309.15 148.26 310.9 159 310.9 159 C 310.9 159 311.58 158.01 311.6 158 C 313.2 155.4 313.8 153.3 314 151 C 313.98 150.96 312.2 150.5 312.2 150.5 C 312.2 150.5 312.36 149.04 312.4 149 C 313.3 148.6 314.8 148.3 315.8 148.3 C 317.2 148.3 317.5 148.9 317.5 150.1 C 317.5 152.4 316.1 155.7 312.4 160.3 C 312.39 160.26 310.2 162.8 310.2 162.8 L 307.5 162.8 L 305.5 150.9 L 303.7 150.5 Z M 326.1 148.2 C 330.2 148.2 332 150.4 332 153.8 C 332 158.6 329.3 163.2 323.9 163.2 C 319.7 163.2 318 160.9 318 157.6 C 318 152.8 320.6 148.2 326.1 148.2 Z M 324.1 161.1 C 326.4 161.1 327.7 156.7 327.7 153.2 C 327.7 151.6 327.2 150.3 325.9 150.3 C 323.5 150.3 322.3 154.6 322.3 158.2 C 322.3 159.8 322.8 161.1 324.1 161.1 Z M 336.4 163.6 C 336.45 163.62 336.6 163.4 336.6 163.4 L 334.4 150.9 L 332.6 150.5 C 332.6 150.5 332.82 149.04 332.8 149 C 334 148.6 336.2 148.3 338.1 148.3 C 338.1 148.3 339.9 159 339.9 159 C 341.9 156.3 342.7 153.7 342.9 151 C 342.9 150.96 341.1 150.5 341.1 150.5 C 341.1 150.5 341.31 149.04 341.3 149 C 342.3 148.6 343.7 148.3 344.7 148.3 C 346.1 148.3 346.5 148.9 346.5 150.1 C 346.5 152.8 344.4 156.1 341.4 160.2 C 341.4 160.2 338.5 164.2 338.5 164.2 C 336.8 166.4 335.1 168.7 332.9 168.7 C 331.6 168.7 330.7 168.1 330.1 167.1 C 330.1 167.1 330.4 165.7 330.4 165.7 C 331.1 166 332.1 166.2 332.8 166.2 C 334.7 166.2 335.5 165 336.4 163.6 Z M 354.1 148.2 C 355.5 148.2 356.5 148.7 357 149.5 C 357.7 148.9 358.7 148.4 359.6 148.2 C 359.64 148.2 361 148.6 361 148.6 C 361 148.6 359.52 158.37 359.5 158.4 C 359.5 158.9 359.3 159.5 359.3 159.8 C 359.3 160.4 359.6 160.6 360.4 160.6 C 360.45 160.65 361.4 160.6 361.4 160.6 C 361.4 160.6 361.14 162.3 361.1 162.3 C 360.4 162.7 359 163.1 357.5 163.1 C 355.8 163.1 355.1 162.3 355.1 160.9 C 355.1 160.7 355.1 160.6 355.2 160.4 C 354.2 162.1 352.8 163.1 350.8 163.1 C 348.3 163.1 347 161.3 347 158.1 C 347 152.7 349.9 148.2 354.1 148.2 Z M 355.4 158.5 C 355.4 158.5 356.6 150.8 356.6 150.8 C 356.2 150.7 355.8 150.6 355.3 150.6 C 352.8 150.6 351.3 154.1 351.3 158 C 351.3 159.6 351.9 160.4 352.9 160.4 C 353.9 160.4 354.7 159.6 355.4 158.5 Z M 364.3 162.3 C 363.5 161.9 363.1 161.2 363.1 160.3 C 363.1 159.1 364.1 157.8 365.8 157.1 C 364 156.5 363.1 155.1 363.1 153.5 C 363.1 150.4 365.5 148.2 369.7 148.2 C 371.3 148.2 372.5 148.5 373.4 149 C 374.2 148.3 375.7 147.9 377.1 147.9 C 377.1 148.6 377.1 149.6 376.6 150.6 C 376.6 150.6 374.9 150.6 374.9 150.6 C 375.1 151.1 375.3 151.7 375.3 152.4 C 375.3 155.5 372.8 157.6 368.7 157.6 C 368.1 157.6 367.6 157.6 367.2 157.5 C 366.7 157.8 366.4 158.2 366.4 158.6 C 366.4 159.1 366.7 159.4 367.5 159.4 C 367.5 159.4 370.8 159.7 370.8 159.7 C 373.8 159.9 375 160.9 375 163 C 375 165.9 371.9 168.7 366.5 168.7 C 362.8 168.7 360.9 167.5 360.9 165.6 C 360.9 163.9 362.1 162.8 364.3 162.3 Z M 371.3 152.1 C 371.3 150.7 370.7 149.8 369.5 149.8 C 367.8 149.8 367.1 151.6 367.1 153.7 C 367.1 155.2 367.7 156 368.8 156 C 370.6 156 371.3 154.2 371.3 152.1 Z M 364.2 164.9 C 364.2 166.2 365.4 166.8 367.3 166.8 C 369.8 166.8 371.5 166 371.5 164.4 C 371.5 163.5 371 163.1 369.5 163 C 369.5 163 365.8 162.7 365.8 162.7 C 364.7 163.2 364.2 164 364.2 164.9 Z M 384.4 148.2 C 387.4 148.2 388.9 149.5 388.9 151.6 C 388.9 154.4 386.8 156.1 382.2 156.1 C 382.2 156.1 381.1 156.1 381.1 156.1 C 381 156.5 381 157 381 157.5 C 381 159.4 381.9 160.3 383.1 160.3 C 384.5 160.3 385.5 159.5 386.5 157.9 C 386.5 157.9 387.9 158.5 387.9 158.5 C 386.7 161.6 384.5 163.2 381.7 163.2 C 378.4 163.2 376.7 161.3 376.7 157.8 C 376.7 152.7 379.4 148.2 384.4 148.2 Z M 381.2 154.6 C 381.2 154.6 381.8 154.6 381.8 154.6 C 384.1 154.6 385.2 153.4 385.2 151.9 C 385.2 151 384.7 150.4 384 150.4 C 382.6 150.4 381.6 152.2 381.2 154.6 Z M 403.6 148.2 C 407.7 148.2 409.5 150.4 409.5 153.8 C 409.5 158.6 406.9 163.2 401.4 163.2 C 397.3 163.2 395.5 160.9 395.5 157.6 C 395.5 152.8 398.2 148.2 403.6 148.2 Z M 401.6 161.1 C 403.9 161.1 405.2 156.7 405.2 153.2 C 405.2 151.6 404.7 150.3 403.4 150.3 C 401.1 150.3 399.8 154.6 399.8 158.2 C 399.8 159.8 400.3 161.1 401.6 161.1 Z M 417.7 148.3 C 417.7 148.3 417.1 151.8 417.1 151.8 C 418.2 149.5 419.7 148.2 421.4 148.2 C 422.2 148.2 422.8 148.5 423.1 148.7 C 423.1 150.4 422.6 152.5 422.1 153.7 C 422.09 153.69 419.8 153.7 419.8 153.7 C 419.8 153.7 419.63 151.14 419.6 151.1 C 418.7 151.3 417.7 152.3 416.8 154 C 416.75 153.96 415.4 162.8 415.4 162.8 L 411.2 162.8 L 413.1 150.9 L 411.3 150.5 C 411.3 150.5 411.44 149.04 411.4 149 C 412.8 148.6 415.4 148.3 417.7 148.3 Z M 436.1 148.2 C 437.5 148.2 438.4 148.7 439 149.5 C 439.6 148.9 440.7 148.4 441.6 148.2 C 441.62 148.2 443 148.6 443 148.6 C 443 148.6 441.5 158.37 441.5 158.4 C 441.4 158.9 441.3 159.5 441.3 159.8 C 441.3 160.4 441.6 160.6 442.4 160.6 C 442.43 160.65 443.4 160.6 443.4 160.6 C 443.4 160.6 443.12 162.3 443.1 162.3 C 442.3 162.7 441 163.1 439.5 163.1 C 437.8 163.1 437.1 162.3 437.1 160.9 C 437.1 160.7 437.1 160.6 437.2 160.4 C 436.2 162.1 434.8 163.1 432.8 163.1 C 430.3 163.1 429 161.3 429 158.1 C 429 152.7 431.9 148.2 436.1 148.2 Z M 437.4 158.5 C 437.4 158.5 438.6 150.8 438.6 150.8 C 438.2 150.7 437.8 150.6 437.3 150.6 C 434.8 150.6 433.3 154.1 433.3 158 C 433.3 159.6 433.9 160.4 434.9 160.4 C 435.9 160.4 436.6 159.6 437.4 158.5 Z M 458.2 148.2 C 460 148.2 461.4 148.7 462.2 149.3 C 462.2 150.7 461.7 152.5 461.2 153.6 C 461.15 153.63 459 153.6 459 153.6 C 459 153.6 458.81 150.48 458.8 150.5 C 458.7 150.4 458.5 150.4 458.4 150.4 C 456 150.4 454.6 154.1 454.6 157.5 C 454.6 159.4 455.4 160.3 456.7 160.3 C 458 160.3 459.1 159.4 460 157.9 C 460 157.9 461.4 158.5 461.4 158.5 C 460.2 161.6 458.2 163.2 455.2 163.2 C 451.9 163.2 450.3 161.2 450.3 157.8 C 450.3 152.7 453.1 148.2 458.2 148.2 Z M 471 148.2 C 475.1 148.2 476.9 150.4 476.9 153.8 C 476.9 158.6 474.2 163.2 468.8 163.2 C 464.6 163.2 462.9 160.9 462.9 157.6 C 462.9 152.8 465.5 148.2 471 148.2 Z M 469 161.1 C 471.3 161.1 472.6 156.7 472.6 153.2 C 472.6 151.6 472.1 150.3 470.8 150.3 C 468.4 150.3 467.2 154.6 467.2 158.2 C 467.2 159.8 467.7 161.1 469 161.1 Z M 485 148.3 C 485 148.3 484.5 151.5 484.5 151.5 C 485.8 149.4 487.3 148.2 489.4 148.2 C 491.5 148.2 492.6 149.3 492.6 151 C 492.6 151.1 492.6 151.3 492.6 151.4 C 493.9 149.4 495.5 148.2 497.5 148.2 C 499.6 148.2 500.6 149.4 500.6 151 C 500.6 151.6 500.6 152.1 500.5 152.7 C 500.5 152.7 499.4 158.4 499.4 158.4 C 499.3 159.1 499.2 159.5 499.2 159.8 C 499.2 160.4 499.5 160.6 500.4 160.6 C 500.36 160.65 501.3 160.6 501.3 160.6 C 501.3 160.6 501.02 162.3 501 162.3 C 500.3 162.7 498.9 163.1 497.4 163.1 C 495.7 163.1 495 162.4 495 160.9 C 495 160.3 495.1 159.6 495.1 159.2 C 495.1 159.2 496.1 153.7 496.1 153.7 C 496.3 153.2 496.3 152.7 496.3 152.4 C 496.3 151.6 496 151.2 495.1 151.2 C 494.2 151.2 493.3 151.9 492.3 153.2 C 492.32 153.21 490.7 162.8 490.7 162.8 L 486.6 162.8 C 486.6 162.8 488.15 153.57 488.2 153.6 C 488.2 153.1 488.3 152.7 488.3 152.4 C 488.3 151.6 487.9 151.2 487.1 151.2 C 486.2 151.2 485.3 151.9 484.3 153.3 C 484.25 153.27 482.8 162.8 482.8 162.8 L 478.6 162.8 L 480.5 150.9 L 478.6 150.5 C 478.6 150.5 478.82 149.04 478.8 149 C 480.2 148.6 482.8 148.3 485 148.3 Z M 509.6 148.3 C 509.6 148.3 509.1 151.5 509.1 151.5 C 510.4 149.4 511.9 148.2 513.9 148.2 C 516 148.2 517.1 149.3 517.1 151 C 517.1 151.1 517.1 151.3 517.1 151.4 C 518.5 149.4 520 148.2 522 148.2 C 524.1 148.2 525.2 149.4 525.2 151 C 525.2 151.6 525.1 152.1 525 152.7 C 525 152.7 524 158.4 524 158.4 C 523.8 159.1 523.8 159.5 523.8 159.8 C 523.8 160.4 524.1 160.6 524.9 160.6 C 524.9 160.65 525.8 160.6 525.8 160.6 C 525.8 160.6 525.56 162.3 525.6 162.3 C 524.8 162.7 523.4 163.1 522 163.1 C 520.3 163.1 519.5 162.4 519.5 160.9 C 519.5 160.3 519.6 159.6 519.7 159.2 C 519.7 159.2 520.7 153.7 520.7 153.7 C 520.8 153.2 520.9 152.7 520.9 152.4 C 520.9 151.6 520.5 151.2 519.7 151.2 C 518.8 151.2 517.9 151.9 516.9 153.2 C 516.86 153.21 515.3 162.8 515.3 162.8 L 511.1 162.8 C 511.1 162.8 512.69 153.57 512.7 153.6 C 512.8 153.1 512.8 152.7 512.8 152.4 C 512.8 151.6 512.5 151.2 511.6 151.2 C 510.7 151.2 509.8 151.9 508.8 153.3 C 508.79 153.27 507.3 162.8 507.3 162.8 L 503.1 162.8 L 505 150.9 L 503.2 150.5 C 503.2 150.5 503.36 149.04 503.4 149 C 504.7 148.6 507.3 148.3 509.6 148.3 Z M 535.1 148.2 C 538 148.2 539.6 149.5 539.6 151.6 C 539.6 154.4 537.4 156.1 532.9 156.1 C 532.9 156.1 531.7 156.1 531.7 156.1 C 531.7 156.5 531.7 157 531.7 157.5 C 531.7 159.4 532.6 160.3 533.8 160.3 C 535.2 160.3 536.2 159.5 537.1 157.9 C 537.1 157.9 538.6 158.5 538.6 158.5 C 537.4 161.6 535.2 163.2 532.4 163.2 C 529.1 163.2 527.4 161.3 527.4 157.8 C 527.4 152.7 530.1 148.2 535.1 148.2 Z M 531.9 154.6 C 531.9 154.6 532.5 154.6 532.5 154.6 C 534.8 154.6 535.9 153.4 535.9 151.9 C 535.9 151 535.4 150.4 534.7 150.4 C 533.2 150.4 532.3 152.2 531.9 154.6 Z M 547.4 148.3 C 547.4 148.3 546.9 151.8 546.9 151.8 C 547.9 149.5 549.5 148.2 551.1 148.2 C 552 148.2 552.6 148.5 552.9 148.7 C 552.9 150.4 552.4 152.5 551.8 153.7 C 551.84 153.69 549.6 153.7 549.6 153.7 C 549.6 153.7 549.38 151.14 549.4 151.1 C 548.5 151.3 547.5 152.3 546.5 154 C 546.5 153.96 545.1 162.8 545.1 162.8 L 541 162.8 L 542.8 150.9 L 541 150.5 C 541 150.5 541.19 149.04 541.2 149 C 542.5 148.6 545.2 148.3 547.4 148.3 Z M 560.8 148.2 C 562.6 148.2 564.1 148.7 564.8 149.3 C 564.8 150.7 564.4 152.5 563.8 153.6 C 563.81 153.63 561.6 153.6 561.6 153.6 C 561.6 153.6 561.47 150.48 561.5 150.5 C 561.4 150.4 561.2 150.4 561.1 150.4 C 558.7 150.4 557.2 154.1 557.2 157.5 C 557.2 159.4 558.1 160.3 559.3 160.3 C 560.7 160.3 561.7 159.4 562.7 157.9 C 562.7 157.9 564.1 158.5 564.1 158.5 C 562.9 161.6 560.8 163.2 557.8 163.2 C 554.6 163.2 552.9 161.2 552.9 157.8 C 552.9 152.7 555.7 148.2 560.8 148.2 Z M 569.5 142.3 C 570 142.2 570.8 142.1 571.6 142.1 C 572.4 142.1 573.2 142.2 573.6 142.3 C 573.6 143.3 573.2 145.1 572.7 146 C 572.2 146.2 571.6 146.3 570.8 146.3 C 570.1 146.3 569.5 146.2 569 146 C 569 144.6 569.2 143.3 569.5 142.3 Z M 572.6 148.3 C 572.6 148.3 571.1 158.2 571.1 158.2 C 571 158.9 570.9 159.4 570.9 159.8 C 570.9 160.4 571.2 160.6 572 160.6 C 571.97 160.65 572.9 160.6 572.9 160.6 C 572.9 160.6 572.66 162.3 572.7 162.3 C 571.9 162.7 570.5 163.1 569.1 163.1 C 567.4 163.1 566.6 162.3 566.6 160.9 C 566.6 160.4 566.7 159.7 566.8 159.2 C 566.78 159.21 568.1 150.9 568.1 150.9 L 566.2 150.5 C 566.2 150.5 566.42 149.04 566.4 149 C 567.7 148.6 570.4 148.3 572.6 148.3 Z M 581.6 148.2 C 583 148.2 583.9 148.7 584.5 149.5 C 585.1 148.9 586.2 148.4 587.1 148.2 C 587.09 148.2 588.5 148.6 588.5 148.6 C 588.5 148.6 586.97 158.37 587 158.4 C 586.9 158.9 586.8 159.5 586.8 159.8 C 586.8 160.4 587.1 160.6 587.9 160.6 C 587.9 160.65 588.9 160.6 588.9 160.6 C 588.9 160.6 588.59 162.3 588.6 162.3 C 587.8 162.7 586.4 163.1 585 163.1 C 583.3 163.1 582.6 162.3 582.6 160.9 C 582.6 160.7 582.6 160.6 582.6 160.4 C 581.7 162.1 580.3 163.1 578.3 163.1 C 575.8 163.1 574.5 161.3 574.5 158.1 C 574.5 152.7 577.3 148.2 581.6 148.2 Z M 582.8 158.5 C 582.8 158.5 584.1 150.8 584.1 150.8 C 583.7 150.7 583.2 150.6 582.8 150.6 C 580.3 150.6 578.8 154.1 578.8 158 C 578.8 159.6 579.3 160.4 580.4 160.4 C 581.4 160.4 582.1 159.6 582.8 158.5 Z M 597.7 141.8 C 597.7 141.8 595.1 158.2 595.1 158.2 C 595 158.9 595 159.4 595 159.8 C 595 160.4 595.2 160.6 596.1 160.6 C 596.06 160.65 597 160.6 597 160.6 C 597 160.6 596.72 162.3 596.7 162.3 C 596 162.7 594.6 163.1 593.1 163.1 C 591.5 163.1 590.7 162.3 590.7 160.9 C 590.7 160.4 590.8 159.7 590.8 159.2 C 590.84 159.21 593.2 144.5 593.2 144.5 L 591 144.1 C 591 144.1 591.2 142.62 591.2 142.6 C 592.5 142.2 595.5 141.8 597.7 141.8 Z " stroke="none" fill="#404040"/>    <path d="M 3.5 185.4 C 3.5 185.4 3.6 185.3 3.6 185.3 C 4.2 180.9 6.7 178.8 10.4 178.8 C 11.3 178.8 12.2 179 12.9 179.2 C 14.3 179 15.9 178.8 17.2 178.8 C 17.2 178.8 14.7 195.2 14.7 195.2 C 14.5 195.9 14.5 196.4 14.5 196.8 C 14.5 197.4 14.7 197.6 15.6 197.6 C 15.57 197.65 16.5 197.6 16.5 197.6 C 16.5 197.6 16.26 199.3 16.3 199.3 C 15.5 199.7 14.1 200.1 12.7 200.1 C 11 200.1 10.2 199.3 10.2 197.9 C 10.2 197.4 10.3 196.7 10.3 196.2 C 10.3 196.2 12.8 180.9 12.8 180.9 C 12.3 180.8 11.7 180.7 11.1 180.7 C 9.3 180.7 8.2 181.7 7.8 184.7 C 7.77 184.75 7.6 185.5 7.6 185.5 L 10.2 185.5 L 9.9 187.5 L 7.3 187.5 C 7.3 187.5 5.7 199.15 5.7 199.1 C 5.1 203.3 1.9 205.7 -0.4 205.7 C -1.6 205.7 -2.6 205 -3.2 204.2 C -3.2 204.2 -3.1 202.7 -3.1 202.7 C -2.4 202.9 -1.7 203 -1 203 C 0.7 203 1.1 202.6 1.5 199.9 C 1.47 199.9 3.2 187.5 3.2 187.5 L 1.3 187.5 C 1.3 187.5 1.53 186.1 1.5 186.1 C 1.9 185.9 2.6 185.6 3.5 185.4 Z M 21.3 179.3 C 21.8 179.2 22.6 179.1 23.4 179.1 C 24.1 179.1 25 179.2 25.4 179.3 C 25.4 180.3 25 182.1 24.5 183 C 24 183.2 23.4 183.3 22.6 183.3 C 21.9 183.3 21.2 183.2 20.8 183 C 20.8 181.6 20.9 180.3 21.3 179.3 Z M 24.4 185.3 C 24.4 185.3 22.9 195.2 22.9 195.2 C 22.7 195.9 22.7 196.4 22.7 196.8 C 22.7 197.4 22.9 197.6 23.8 197.6 C 23.76 197.65 24.7 197.6 24.7 197.6 C 24.7 197.6 24.45 199.3 24.4 199.3 C 23.7 199.7 22.3 200.1 20.8 200.1 C 19.2 200.1 18.4 199.3 18.4 197.9 C 18.4 197.4 18.4 196.7 18.6 196.2 C 18.57 196.21 19.9 187.9 19.9 187.9 L 18 187.5 C 18 187.5 18.21 186.04 18.2 186 C 19.5 185.6 22.2 185.3 24.4 185.3 Z M 27.5 199.3 C 26.8 198.9 26.3 198.2 26.3 197.3 C 26.3 196.1 27.3 194.8 29 194.1 C 27.2 193.5 26.4 192.1 26.4 190.5 C 26.4 187.4 28.8 185.2 33 185.2 C 34.5 185.2 35.7 185.5 36.6 186 C 37.4 185.3 39 184.9 40.4 184.9 C 40.4 185.6 40.3 186.6 39.9 187.6 C 39.9 187.6 38.1 187.6 38.1 187.6 C 38.4 188.1 38.5 188.7 38.5 189.4 C 38.5 192.5 36.1 194.6 31.9 194.6 C 31.4 194.6 30.9 194.6 30.4 194.5 C 30 194.8 29.6 195.2 29.6 195.6 C 29.6 196.1 29.9 196.4 30.7 196.4 C 30.7 196.4 34.1 196.7 34.1 196.7 C 37 196.9 38.2 197.9 38.2 200 C 38.2 202.9 35.1 205.7 29.8 205.7 C 26 205.7 24.2 204.5 24.2 202.6 C 24.2 200.9 25.3 199.8 27.5 199.3 Z M 34.5 189.1 C 34.5 187.7 33.9 186.8 32.8 186.8 C 31.1 186.8 30.4 188.6 30.4 190.7 C 30.4 192.2 31 193 32.1 193 C 33.8 193 34.5 191.2 34.5 189.1 Z M 27.4 201.9 C 27.4 203.2 28.7 203.8 30.6 203.8 C 33 203.8 34.8 203 34.8 201.4 C 34.8 200.5 34.2 200.1 32.7 200 C 32.7 200 29 199.7 29 199.7 C 28 200.2 27.4 201 27.4 201.9 Z M 48.7 196.2 C 48.7 196.2 49.7 190.7 49.7 190.7 C 49.8 190.2 49.9 189.7 49.9 189.4 C 49.9 188.6 49.6 188.2 48.7 188.2 C 47.8 188.2 46.9 188.9 45.8 190.3 C 45.81 190.3 44.3 199.8 44.3 199.8 L 40.2 199.8 L 43 181.5 L 40.9 181.1 C 40.9 181.1 41.1 179.62 41.1 179.6 C 42.4 179.2 45.4 178.8 47.6 178.8 C 47.6 178.8 46.1 188.5 46.1 188.5 C 47.4 186.4 49 185.2 51.1 185.2 C 53.2 185.2 54.2 186.4 54.2 188 C 54.2 188.6 54.1 189.1 54.1 189.7 C 54.1 189.7 53 195.4 53 195.4 C 52.9 196.1 52.8 196.5 52.8 196.8 C 52.8 197.4 53.1 197.6 53.9 197.6 C 53.94 197.65 54.9 197.6 54.9 197.6 C 54.9 197.6 54.63 199.3 54.6 199.3 C 53.9 199.7 52.5 200.1 51 200.1 C 49.3 200.1 48.5 199.4 48.5 197.9 C 48.5 197.3 48.7 196.6 48.7 196.2 Z M 58.9 185.4 C 58.9 185.4 59.6 183.1 59.6 183.1 C 60.4 182.9 62 182.7 63.3 182.7 C 63.3 182.68 62.8 185.5 62.8 185.5 L 66.1 185.5 L 65.8 187.6 L 62.5 187.6 C 62.5 187.6 61.56 193.99 61.6 194 C 61.4 194.8 61.3 195.5 61.3 196.1 C 61.3 196.9 61.6 197.3 62.2 197.3 C 63 197.3 63.8 196.2 64.4 195 C 64.4 195 65.7 195.5 65.7 195.5 C 64.8 198.2 63.1 200.1 60.4 200.1 C 58.2 200.1 57.1 198.9 57.1 196.9 C 57.1 196.2 57.3 195.1 57.4 194.1 C 57.42 194.11 58.4 187.6 58.4 187.6 L 56.4 187.6 C 56.4 187.6 56.67 186.1 56.7 186.1 C 57.1 185.8 57.9 185.5 58.9 185.4 Z M 75.5 179.3 C 76 179.2 76.8 179.1 77.7 179.1 C 78.4 179.1 79.3 179.2 79.7 179.3 C 79.7 180.3 79.2 182.1 78.8 183 C 78.2 183.2 77.7 183.3 76.9 183.3 C 76.1 183.3 75.5 183.2 75.1 183 C 75.1 181.6 75.2 180.3 75.5 179.3 Z M 78.7 185.3 C 78.7 185.3 77.1 195.2 77.1 195.2 C 77 195.9 76.9 196.4 76.9 196.8 C 76.9 197.4 77.2 197.6 78 197.6 C 78.03 197.65 79 197.6 79 197.6 C 79 197.6 78.72 199.3 78.7 199.3 C 78 199.7 76.6 200.1 75.1 200.1 C 73.5 200.1 72.7 199.3 72.7 197.9 C 72.7 197.4 72.7 196.7 72.8 196.2 C 72.84 196.21 74.1 187.9 74.1 187.9 L 72.3 187.5 C 72.3 187.5 72.48 186.04 72.5 186 C 73.8 185.6 76.4 185.3 78.7 185.3 Z M 87.1 185.3 C 87.1 185.3 86.5 188.5 86.5 188.5 C 87.9 186.4 89.4 185.2 91.5 185.2 C 93.6 185.2 94.7 186.4 94.7 188 C 94.7 188.6 94.6 189.1 94.5 189.7 C 94.5 189.7 93.4 195.4 93.4 195.4 C 93.3 196.1 93.3 196.5 93.3 196.8 C 93.3 197.4 93.5 197.6 94.4 197.6 C 94.38 197.65 95.3 197.6 95.3 197.6 C 95.3 197.6 95.07 199.3 95.1 199.3 C 94.3 199.7 92.9 200.1 91.5 200.1 C 89.8 200.1 89 199.4 89 197.9 C 89 197.3 89.1 196.6 89.2 196.2 C 89.2 196.2 90.2 190.7 90.2 190.7 C 90.3 190.2 90.4 189.7 90.4 189.4 C 90.4 188.6 90 188.2 89.2 188.2 C 88.2 188.2 87.3 188.9 86.3 190.3 C 86.28 190.27 84.8 199.8 84.8 199.8 L 80.6 199.8 L 82.5 187.9 L 80.7 187.5 C 80.7 187.5 80.85 186.04 80.8 186 C 82.2 185.6 84.8 185.3 87.1 185.3 Z M 109.5 185.2 C 110.9 185.2 111.8 185.7 112.4 186.5 C 113 185.9 114.1 185.4 115 185.2 C 114.99 185.2 116.4 185.6 116.4 185.6 C 116.4 185.6 114.87 195.37 114.9 195.4 C 114.8 195.9 114.7 196.5 114.7 196.8 C 114.7 197.4 115 197.6 115.8 197.6 C 115.8 197.65 116.8 197.6 116.8 197.6 C 116.8 197.6 116.49 199.3 116.5 199.3 C 115.7 199.7 114.3 200.1 112.9 200.1 C 111.2 200.1 110.5 199.3 110.5 197.9 C 110.5 197.7 110.5 197.6 110.5 197.4 C 109.6 199.1 108.1 200.1 106.2 200.1 C 103.7 200.1 102.4 198.3 102.4 195.1 C 102.4 189.7 105.2 185.2 109.5 185.2 Z M 110.7 195.5 C 110.7 195.5 112 187.8 112 187.8 C 111.6 187.7 111.1 187.6 110.7 187.6 C 108.1 187.6 106.7 191.1 106.7 195 C 106.7 196.6 107.2 197.4 108.3 197.4 C 109.3 197.4 110 196.6 110.7 195.5 Z M 124.2 195.3 C 124.17 195.34 126.2 195.3 126.2 195.3 C 126.2 195.3 126.42 198.22 126.4 198.2 C 126.8 198.3 127.2 198.3 127.6 198.3 C 129.3 198.3 130.2 197.5 130.2 196.4 C 130.2 195.2 129.1 194.7 127.8 193.9 C 127.8 193.9 126.8 193.4 126.8 193.4 C 125.6 192.7 124.6 191.6 124.6 189.9 C 124.6 186.9 127 185.2 130.4 185.2 C 132.4 185.2 134.2 185.6 135.2 186 C 135.2 187.4 135 188.7 134.3 190 C 134.28 190 132.1 190 132.1 190 C 132.1 190 132.09 187.21 132.1 187.2 C 131.7 187.1 131.2 187.1 130.8 187.1 C 129.4 187.1 128.5 187.7 128.5 189 C 128.5 190 129.5 190.5 130.5 191.1 C 130.5 191.1 131.5 191.7 131.5 191.7 C 133 192.5 134.3 193.5 134.3 195.4 C 134.3 198.3 132 200.1 128 200.1 C 126.4 200.1 124.3 199.8 123.2 199.3 C 123.2 197.7 123.6 196.4 124.2 195.3 Z M 142.9 185.3 C 142.9 185.3 142.4 188.5 142.4 188.5 C 143.8 186.4 145.3 185.2 147.3 185.2 C 149.4 185.2 150.5 186.3 150.5 188 C 150.5 188.1 150.5 188.3 150.5 188.4 C 151.8 186.4 153.4 185.2 155.4 185.2 C 157.5 185.2 158.5 186.4 158.5 188 C 158.5 188.6 158.5 189.1 158.4 189.7 C 158.4 189.7 157.3 195.4 157.3 195.4 C 157.2 196.1 157.1 196.5 157.1 196.8 C 157.1 197.4 157.4 197.6 158.3 197.6 C 158.28 197.65 159.2 197.6 159.2 197.6 C 159.2 197.6 158.94 199.3 158.9 199.3 C 158.2 199.7 156.8 200.1 155.3 200.1 C 153.7 200.1 152.9 199.4 152.9 197.9 C 152.9 197.3 153 196.6 153.1 196.2 C 153.1 196.2 154 190.7 154 190.7 C 154.2 190.2 154.2 189.7 154.2 189.4 C 154.2 188.6 153.9 188.2 153.1 188.2 C 152.2 188.2 151.3 188.9 150.2 190.2 C 150.24 190.21 148.6 199.8 148.6 199.8 L 144.5 199.8 C 144.5 199.8 146.07 190.57 146.1 190.6 C 146.1 190.1 146.2 189.7 146.2 189.4 C 146.2 188.6 145.8 188.2 145 188.2 C 144.1 188.2 143.2 188.9 142.2 190.3 C 142.17 190.27 140.7 199.8 140.7 199.8 L 136.5 199.8 L 138.4 187.9 L 136.6 187.5 C 136.6 187.5 136.74 186.04 136.7 186 C 138.1 185.6 140.7 185.3 142.9 185.3 Z M 168 185.2 C 169.3 185.2 170.3 185.7 170.8 186.5 C 171.5 185.9 172.6 185.4 173.5 185.2 C 173.46 185.2 174.9 185.6 174.9 185.6 C 174.9 185.6 173.34 195.37 173.3 195.4 C 173.3 195.9 173.2 196.5 173.2 196.8 C 173.2 197.4 173.4 197.6 174.3 197.6 C 174.27 197.65 175.2 197.6 175.2 197.6 C 175.2 197.6 174.96 199.3 175 199.3 C 174.2 199.7 172.8 200.1 171.4 200.1 C 169.6 200.1 169 199.3 169 197.9 C 169 197.7 169 197.6 169 197.4 C 168 199.1 166.6 200.1 164.7 200.1 C 162.1 200.1 160.8 198.3 160.8 195.1 C 160.8 189.7 163.7 185.2 168 185.2 Z M 169.2 195.5 C 169.2 195.5 170.4 187.8 170.4 187.8 C 170 187.7 169.6 187.6 169.1 187.6 C 166.6 187.6 165.1 191.1 165.1 195 C 165.1 196.6 165.7 197.4 166.7 197.4 C 167.7 197.4 168.5 196.6 169.2 195.5 Z M 184 178.8 C 184 178.8 181.5 195.2 181.5 195.2 C 181.4 195.9 181.3 196.4 181.3 196.8 C 181.3 197.4 181.6 197.6 182.4 197.6 C 182.43 197.65 183.4 197.6 183.4 197.6 C 183.4 197.6 183.09 199.3 183.1 199.3 C 182.3 199.7 180.9 200.1 179.5 200.1 C 177.9 200.1 177.1 199.3 177.1 197.9 C 177.1 197.4 177.1 196.7 177.2 196.2 C 177.21 196.21 179.5 181.5 179.5 181.5 L 177.4 181.1 C 177.4 181.1 177.57 179.62 177.6 179.6 C 178.9 179.2 181.8 178.8 184 178.8 Z M 192.1 178.8 C 192.1 178.8 189.6 195.2 189.6 195.2 C 189.4 195.9 189.4 196.4 189.4 196.8 C 189.4 197.4 189.7 197.6 190.5 197.6 C 190.5 197.65 191.4 197.6 191.4 197.6 C 191.4 197.6 191.16 199.3 191.2 199.3 C 190.4 199.7 189 200.1 187.6 200.1 C 185.9 200.1 185.1 199.3 185.1 197.9 C 185.1 197.4 185.2 196.7 185.3 196.2 C 185.28 196.21 187.6 181.5 187.6 181.5 L 185.5 181.1 C 185.5 181.1 185.64 179.62 185.6 179.6 C 187 179.2 189.9 178.8 192.1 178.8 Z M 205.5 185.2 C 206.9 185.2 207.8 185.7 208.4 186.5 C 209 185.9 210.1 185.4 211 185.2 C 210.99 185.2 212.4 185.6 212.4 185.6 C 212.4 185.6 210.87 195.37 210.9 195.4 C 210.8 195.9 210.7 196.5 210.7 196.8 C 210.7 197.4 211 197.6 211.8 197.6 C 211.8 197.65 212.8 197.6 212.8 197.6 C 212.8 197.6 212.49 199.3 212.5 199.3 C 211.7 199.7 210.3 200.1 208.9 200.1 C 207.2 200.1 206.5 199.3 206.5 197.9 C 206.5 197.7 206.5 197.6 206.5 197.4 C 205.6 199.1 204.1 200.1 202.2 200.1 C 199.7 200.1 198.4 198.3 198.4 195.1 C 198.4 189.7 201.2 185.2 205.5 185.2 Z M 206.7 195.5 C 206.7 195.5 208 187.8 208 187.8 C 207.6 187.7 207.1 187.6 206.7 187.6 C 204.1 187.6 202.7 191.1 202.7 195 C 202.7 196.6 203.2 197.4 204.3 197.4 C 205.3 197.4 206 196.6 206.7 195.5 Z M 217.6 179.3 C 218.1 179.2 218.8 179.1 219.7 179.1 C 220.4 179.1 221.3 179.2 221.7 179.3 C 221.7 180.3 221.2 182.1 220.8 183 C 220.3 183.2 219.7 183.3 218.9 183.3 C 218.2 183.3 217.5 183.2 217.1 183 C 217.1 181.6 217.2 180.3 217.6 179.3 Z M 220.7 185.3 C 220.7 185.3 219.1 195.2 219.1 195.2 C 219 195.9 219 196.4 219 196.8 C 219 197.4 219.2 197.6 220 197.6 C 220.05 197.65 221 197.6 221 197.6 C 221 197.6 220.74 199.3 220.7 199.3 C 220 199.7 218.6 200.1 217.1 200.1 C 215.5 200.1 214.7 199.3 214.7 197.9 C 214.7 197.4 214.7 196.7 214.9 196.2 C 214.86 196.21 216.1 187.9 216.1 187.9 L 214.3 187.5 C 214.3 187.5 214.5 186.04 214.5 186 C 215.8 185.6 218.5 185.3 220.7 185.3 Z M 229.1 185.3 C 229.1 185.3 228.5 188.8 228.5 188.8 C 229.6 186.5 231.1 185.2 232.8 185.2 C 233.6 185.2 234.2 185.5 234.5 185.7 C 234.5 187.4 234.1 189.5 233.5 190.7 C 233.51 190.69 231.3 190.7 231.3 190.7 C 231.3 190.7 231.05 188.14 231.1 188.1 C 230.1 188.3 229.2 189.3 228.2 191 C 228.17 190.96 226.8 199.8 226.8 199.8 L 222.6 199.8 L 224.5 187.9 L 222.7 187.5 C 222.7 187.5 222.86 186.04 222.9 186 C 224.2 185.6 226.8 185.3 229.1 185.3 Z M 242.2 185.3 C 242.2 185.3 241.8 187.8 241.8 187.8 C 242.7 186.2 244.1 185.2 246 185.2 C 248.5 185.2 249.8 187.2 249.8 190.2 C 249.8 195.5 247.4 200.1 242.7 200.1 C 241.5 200.1 240.6 199.8 240 199.2 C 240 199.2 239.3 203.5 239.3 203.5 C 240.3 203.6 241.2 203.7 241.8 203.9 C 241.82 203.95 241.6 205.5 241.6 205.5 L 233.1 205.5 C 233.1 205.5 233.3 203.95 233.3 203.9 C 233.8 203.7 234.4 203.6 235.1 203.5 C 235.1 203.53 237.6 187.9 237.6 187.9 L 235.8 187.5 C 235.8 187.5 235.94 186.04 235.9 186 C 237.3 185.6 239.9 185.3 242.2 185.3 Z M 241.4 189.8 C 241.4 189.8 240.2 197.5 240.2 197.5 C 240.6 197.6 241 197.8 241.5 197.8 C 244 197.8 245.5 194.2 245.5 190.3 C 245.5 188.7 245 187.9 243.9 187.9 C 242.9 187.9 242.2 188.7 241.4 189.8 Z M 258.4 178.8 C 258.4 178.8 255.9 195.2 255.9 195.2 C 255.8 195.9 255.7 196.4 255.7 196.8 C 255.7 197.4 256 197.6 256.8 197.6 C 256.82 197.65 257.8 197.6 257.8 197.6 C 257.8 197.6 257.48 199.3 257.5 199.3 C 256.7 199.7 255.3 200.1 253.9 200.1 C 252.3 200.1 251.5 199.3 251.5 197.9 C 251.5 197.4 251.5 196.7 251.6 196.2 C 251.6 196.21 253.9 181.5 253.9 181.5 L 251.8 181.1 C 251.8 181.1 251.96 179.62 252 179.6 C 253.3 179.2 256.2 178.8 258.4 178.8 Z M 266.4 185.2 C 267.8 185.2 268.7 185.7 269.3 186.5 C 269.9 185.9 271 185.4 271.9 185.2 C 271.91 185.2 273.3 185.6 273.3 185.6 C 273.3 185.6 271.79 195.37 271.8 195.4 C 271.7 195.9 271.6 196.5 271.6 196.8 C 271.6 197.4 271.9 197.6 272.7 197.6 C 272.72 197.65 273.7 197.6 273.7 197.6 C 273.7 197.6 273.41 199.3 273.4 199.3 C 272.6 199.7 271.3 200.1 269.8 200.1 C 268.1 200.1 267.4 199.3 267.4 197.9 C 267.4 197.7 267.4 197.6 267.4 197.4 C 266.5 199.1 265.1 200.1 263.1 200.1 C 260.6 200.1 259.3 198.3 259.3 195.1 C 259.3 189.7 262.2 185.2 266.4 185.2 Z M 267.7 195.5 C 267.7 195.5 268.9 187.8 268.9 187.8 C 268.5 187.7 268 187.6 267.6 187.6 C 265.1 187.6 263.6 191.1 263.6 195 C 263.6 196.6 264.1 197.4 265.2 197.4 C 266.2 197.4 266.9 196.6 267.7 195.5 Z M 281.8 185.3 C 281.8 185.3 281.2 188.5 281.2 188.5 C 282.6 186.4 284.1 185.2 286.2 185.2 C 288.3 185.2 289.4 186.4 289.4 188 C 289.4 188.6 289.3 189.1 289.2 189.7 C 289.2 189.7 288.1 195.4 288.1 195.4 C 288 196.1 288 196.5 288 196.8 C 288 197.4 288.2 197.6 289.1 197.6 C 289.07 197.65 290 197.6 290 197.6 C 290 197.6 289.76 199.3 289.8 199.3 C 289 199.7 287.6 200.1 286.2 200.1 C 284.5 200.1 283.7 199.4 283.7 197.9 C 283.7 197.3 283.8 196.6 283.9 196.2 C 283.9 196.2 284.9 190.7 284.9 190.7 C 285 190.2 285.1 189.7 285.1 189.4 C 285.1 188.6 284.7 188.2 283.9 188.2 C 282.9 188.2 282 188.9 281 190.3 C 280.97 190.27 279.5 199.8 279.5 199.8 L 275.3 199.8 L 277.2 187.9 L 275.4 187.5 C 275.4 187.5 275.54 186.04 275.5 186 C 276.9 185.6 279.5 185.3 281.8 185.3 Z M 299.3 185.2 C 302.2 185.2 303.8 186.5 303.8 188.6 C 303.8 191.4 301.6 193.1 297.1 193.1 C 297.1 193.1 295.9 193.1 295.9 193.1 C 295.9 193.5 295.9 194 295.9 194.5 C 295.9 196.4 296.8 197.3 298 197.3 C 299.4 197.3 300.4 196.5 301.3 194.9 C 301.3 194.9 302.8 195.5 302.8 195.5 C 301.6 198.6 299.4 200.2 296.6 200.2 C 293.3 200.2 291.6 198.3 291.6 194.8 C 291.6 189.7 294.3 185.2 299.3 185.2 Z M 296.1 191.6 C 296.1 191.6 296.7 191.6 296.7 191.6 C 299 191.6 300.1 190.4 300.1 188.9 C 300.1 188 299.6 187.4 298.9 187.4 C 297.4 187.4 296.5 189.2 296.1 191.6 Z M 313.9 179.3 C 314.4 179.2 315.2 179.1 316 179.1 C 316.8 179.1 317.6 179.2 318.1 179.3 C 318.1 180.3 317.6 182.1 317.2 183 C 316.6 183.2 316 183.3 315.2 183.3 C 314.5 183.3 313.9 183.2 313.4 183 C 313.4 181.6 313.6 180.3 313.9 179.3 Z M 317 185.3 C 317 185.3 315.5 195.2 315.5 195.2 C 315.4 195.9 315.3 196.4 315.3 196.8 C 315.3 197.4 315.6 197.6 316.4 197.6 C 316.4 197.65 317.4 197.6 317.4 197.6 C 317.4 197.6 317.09 199.3 317.1 199.3 C 316.3 199.7 314.9 200.1 313.5 200.1 C 311.9 200.1 311 199.3 311 197.9 C 311 197.4 311.1 196.7 311.2 196.2 C 311.21 196.21 312.5 187.9 312.5 187.9 L 310.7 187.5 C 310.7 187.5 310.85 186.04 310.9 186 C 312.2 185.6 314.8 185.3 317 185.3 Z M 319.6 195.3 C 319.61 195.34 321.7 195.3 321.7 195.3 C 321.7 195.3 321.86 198.22 321.9 198.2 C 322.3 198.3 322.7 198.3 323.1 198.3 C 324.7 198.3 325.7 197.5 325.7 196.4 C 325.7 195.2 324.6 194.7 323.2 193.9 C 323.2 193.9 322.3 193.4 322.3 193.4 C 321.1 192.7 320.1 191.6 320.1 189.9 C 320.1 186.9 322.4 185.2 325.9 185.2 C 327.8 185.2 329.7 185.6 330.6 186 C 330.6 187.4 330.4 188.7 329.7 190 C 329.72 190 327.6 190 327.6 190 C 327.6 190 327.53 187.21 327.5 187.2 C 327.1 187.1 326.7 187.1 326.2 187.1 C 324.9 187.1 323.9 187.7 323.9 189 C 323.9 190 324.9 190.5 325.9 191.1 C 325.9 191.1 327 191.7 327 191.7 C 328.4 192.5 329.8 193.5 329.8 195.4 C 329.8 198.3 327.4 200.1 323.5 200.1 C 321.8 200.1 319.7 199.8 318.6 199.3 C 318.7 197.7 319 196.4 319.6 195.3 Z M 343.9 185.3 C 343.9 185.3 343.4 188.8 343.4 188.8 C 344.5 186.5 346 185.2 347.6 185.2 C 348.5 185.2 349.1 185.5 349.4 185.7 C 349.4 187.4 348.9 189.5 348.4 190.7 C 348.35 190.69 346.1 190.7 346.1 190.7 C 346.1 190.7 345.89 188.14 345.9 188.1 C 345 188.3 344 189.3 343 191 C 343.01 190.96 341.6 199.8 341.6 199.8 L 337.5 199.8 L 339.4 187.9 L 337.5 187.5 C 337.5 187.5 337.7 186.04 337.7 186 C 339.1 185.6 341.7 185.3 343.9 185.3 Z M 357.2 185.2 C 360.1 185.2 361.6 186.5 361.6 188.6 C 361.6 191.4 359.5 193.1 355 193.1 C 355 193.1 353.8 193.1 353.8 193.1 C 353.8 193.5 353.8 194 353.8 194.5 C 353.8 196.4 354.6 197.3 355.8 197.3 C 357.2 197.3 358.2 196.5 359.2 194.9 C 359.2 194.9 360.6 195.5 360.6 195.5 C 359.5 198.6 357.3 200.2 354.4 200.2 C 351.1 200.2 349.4 198.3 349.4 194.8 C 349.4 189.7 352.2 185.2 357.2 185.2 Z M 354 191.6 C 354 191.6 354.6 191.6 354.6 191.6 C 356.9 191.6 357.9 190.4 357.9 188.9 C 357.9 188 357.5 187.4 356.7 187.4 C 355.3 187.4 354.4 189.2 354 191.6 Z M 369.7 185.2 C 371.1 185.2 372.1 185.7 372.6 186.5 C 373.3 185.9 374.2 185.4 375.1 185.2 C 375.11 185.2 376.6 185.6 376.6 185.6 C 376.6 185.6 373.76 203.53 373.8 203.5 C 374.4 203.6 375 203.7 375.5 203.9 C 375.53 203.95 375.3 205.5 375.3 205.5 L 366.8 205.5 C 366.8 205.5 367.01 203.95 367 203.9 C 367.6 203.7 368.6 203.6 369.7 203.5 C 369.7 203.5 370.6 197.6 370.6 197.6 C 369.7 199.2 368.3 200.1 366.4 200.1 C 363.9 200.1 362.5 198.3 362.5 195.1 C 362.5 189.7 365.4 185.2 369.7 185.2 Z M 370.9 195.5 C 370.9 195.5 372.1 187.8 372.1 187.8 C 371.8 187.7 371.3 187.6 370.9 187.6 C 368.3 187.6 366.9 191.1 366.9 195 C 366.9 196.6 367.4 197.4 368.5 197.4 C 369.4 197.4 370.2 196.6 370.9 195.5 Z M 392.5 185.3 C 392.5 185.3 391 195.4 391 195.4 C 390.9 195.9 390.8 196.5 390.8 196.8 C 390.8 197.4 391 197.6 391.9 197.6 C 391.88 197.65 392.8 197.6 392.8 197.6 C 392.8 197.6 392.57 199.3 392.6 199.3 C 391.8 199.7 390.4 200.1 389 200.1 C 387.3 200.1 386.6 199.3 386.6 197.9 C 386.6 197.6 386.6 197.1 386.7 196.8 C 386.7 196.8 386.7 196.8 386.7 196.8 C 385.5 198.9 383.6 200.1 381.6 200.1 C 379.5 200.1 378.5 199 378.5 197.3 C 378.5 196.8 378.6 196.4 378.7 195.8 C 378.68 195.85 380 187.9 380 187.9 L 378.2 187.5 C 378.2 187.5 378.35 186.04 378.4 186 C 379.7 185.6 382.3 185.3 384.5 185.3 C 384.5 185.3 383 194.6 383 194.6 C 382.9 195.1 382.9 195.6 382.9 196 C 382.9 196.7 383.2 197.1 384 197.1 C 385 197.1 385.9 196.5 386.9 195 C 386.87 195.01 388 187.9 388 187.9 L 386.2 187.5 C 386.2 187.5 386.45 186.04 386.5 186 C 387.8 185.6 390.3 185.3 392.5 185.3 Z M 397.8 179.3 C 398.3 179.2 399.1 179.1 399.9 179.1 C 400.7 179.1 401.5 179.2 401.9 179.3 C 401.9 180.3 401.5 182.1 401 183 C 400.5 183.2 399.9 183.3 399.1 183.3 C 398.4 183.3 397.8 183.2 397.3 183 C 397.3 181.6 397.5 180.3 397.8 179.3 Z M 400.9 185.3 C 400.9 185.3 399.4 195.2 399.4 195.2 C 399.3 195.9 399.2 196.4 399.2 196.8 C 399.2 197.4 399.5 197.6 400.3 197.6 C 400.28 197.65 401.2 197.6 401.2 197.6 C 401.2 197.6 400.97 199.3 401 199.3 C 400.2 199.7 398.8 200.1 397.4 200.1 C 395.8 200.1 394.9 199.3 394.9 197.9 C 394.9 197.4 395 196.7 395.1 196.2 C 395.09 196.21 396.4 187.9 396.4 187.9 L 394.6 187.5 C 394.6 187.5 394.73 186.04 394.7 186 C 396.1 185.6 398.7 185.3 400.9 185.3 Z M 409.3 185.3 C 409.3 185.3 408.8 188.8 408.8 188.8 C 409.9 186.5 411.4 185.2 413 185.2 C 413.9 185.2 414.5 185.5 414.8 185.7 C 414.8 187.4 414.3 189.5 413.8 190.7 C 413.75 190.69 411.5 190.7 411.5 190.7 C 411.5 190.7 411.29 188.14 411.3 188.1 C 410.4 188.3 409.4 189.3 408.4 191 C 408.41 190.96 407 199.8 407 199.8 L 402.9 199.8 L 404.8 187.9 L 402.9 187.5 C 402.9 187.5 403.1 186.04 403.1 186 C 404.5 185.6 407.1 185.3 409.3 185.3 Z M 422.6 185.2 C 425.5 185.2 427 186.5 427 188.6 C 427 191.4 424.9 193.1 420.4 193.1 C 420.4 193.1 419.2 193.1 419.2 193.1 C 419.2 193.5 419.2 194 419.2 194.5 C 419.2 196.4 420 197.3 421.2 197.3 C 422.6 197.3 423.6 196.5 424.6 194.9 C 424.6 194.9 426 195.5 426 195.5 C 424.9 198.6 422.7 200.2 419.8 200.2 C 416.5 200.2 414.8 198.3 414.8 194.8 C 414.8 189.7 417.6 185.2 422.6 185.2 Z M 419.4 191.6 C 419.4 191.6 420 191.6 420 191.6 C 422.3 191.6 423.3 190.4 423.3 188.9 C 423.3 188 422.9 187.4 422.1 187.4 C 420.7 187.4 419.8 189.2 419.4 191.6 Z M 443.1 178.8 C 443.1 178.8 440.5 195.2 440.5 195.2 C 440.4 195.9 440.3 196.5 440.3 196.8 C 440.3 197.4 440.6 197.6 441.4 197.6 C 441.38 197.65 442.3 197.6 442.3 197.6 C 442.3 197.6 442.07 199.3 442.1 199.3 C 441.3 199.7 439.9 200.1 438.5 200.1 C 436.8 200.1 436.1 199.3 436.1 197.9 C 436.1 197.7 436.1 197.6 436.1 197.4 C 435.1 199.1 433.7 200.1 431.8 200.1 C 429.3 200.1 427.9 198.3 427.9 195.1 C 427.9 189.7 430.8 185.2 435.1 185.2 C 436.3 185.2 437.2 185.6 437.8 186.3 C 437.78 186.31 438.5 181.6 438.5 181.6 L 436.3 181.1 C 436.3 181.1 436.49 179.62 436.5 179.6 C 437.8 179.2 440.8 178.8 443.1 178.8 Z M 436.3 195.5 C 436.3 195.5 437.5 187.8 437.5 187.8 C 437.2 187.7 436.7 187.6 436.3 187.6 C 433.7 187.6 432.3 191.1 432.3 195 C 432.3 196.6 432.8 197.4 433.9 197.4 C 434.8 197.4 435.6 196.6 436.3 195.5 Z M 443.9 198 C 443.9 196.2 444.9 195 446.5 195 C 448 195 448.9 195.8 448.9 197.3 C 448.9 199 447.9 200.2 446.2 200.2 C 444.8 200.2 443.9 199.4 443.9 198 Z " stroke="none" fill="#404040"/>  </g></svg>