<?xml version="1.0" standalone="no"?><!DOCTYPE svg PUBLIC "-//W3C//DTD SVG 1.1//EN" "http://www.w3.org/Graphics/SVG/1.1/DTD/svg11.dtd"><svg xmlns="http://www.w3.org/2000/svg" version="1.1" width="410px" height="84.5px" viewBox="0 0 410 84.5">  <desc>Santa Rosa Island 52,794 acres</desc>  <defs/>  <g id="Polygon12508">    <path d="M 8.7 55 L 4.1 55 C 4.1 55 3.82 56.77 3.8 56.8 C 4.1 56.7 4.3 56.7 4.6 56.7 C 5.7 56.7 6.9 57 7.7 57.6 C 8.6 58.2 9.1 59.2 9.1 60.6 C 9.1 62.8 7.2 64.7 4.1 64.7 C 2.6 64.7 1.4 64.4 0.8 64 C 0.8 64 1.3 62 1.3 62 C 1.8 62.2 2.9 62.5 3.9 62.5 C 5.1 62.5 6.3 62 6.3 60.7 C 6.3 59.5 5.3 58.8 3 58.8 C 2.3 58.8 1.9 58.8 1.4 58.9 C 1.38 58.88 2.1 52.7 2.1 52.7 L 8.7 52.7 L 8.7 55 Z M 10.9 64.5 L 10.9 62.8 C 10.9 62.8 12.38 61.46 12.4 61.5 C 15 59.1 16.2 57.8 16.2 56.4 C 16.2 55.5 15.7 54.7 14.3 54.7 C 13.3 54.7 12.4 55.2 11.8 55.7 C 11.8 55.7 11 53.7 11 53.7 C 11.9 53 13.3 52.5 14.9 52.5 C 17.6 52.5 19 54 19 56.2 C 19 58.2 17.6 59.8 15.9 61.3 C 15.87 61.28 14.8 62.2 14.8 62.2 L 14.8 62.2 L 19.2 62.2 L 19.2 64.5 L 10.9 64.5 Z M 20.2 66.7 C 20.8 65 21.3 63.2 21.5 61.5 C 21.5 61.5 24.3 61.3 24.3 61.3 C 23.7 63.2 22.9 65.1 22 66.5 C 22 66.5 20.2 66.7 20.2 66.7 Z M 34.1 52.7 L 34.1 54.4 L 29.3 64.5 L 26.3 64.5 L 31.2 55 L 31.2 55 L 25.8 55 L 25.8 52.7 L 34.1 52.7 Z M 36.6 62.5 C 37 62.6 37.3 62.5 37.8 62.5 C 38.7 62.5 39.5 62.2 40.1 61.8 C 40.9 61.3 41.4 60.5 41.6 59.6 C 41.6 59.6 41.6 59.6 41.6 59.6 C 41.1 60.1 40.3 60.4 39.2 60.4 C 37.2 60.4 35.5 59 35.5 56.7 C 35.5 54.4 37.4 52.5 40 52.5 C 43 52.5 44.5 54.8 44.5 57.6 C 44.5 60 43.7 61.8 42.4 63 C 41.3 64 39.7 64.6 37.9 64.7 C 37.4 64.7 36.9 64.7 36.6 64.7 C 36.6 64.7 36.6 62.5 36.6 62.5 Z M 38.3 56.6 C 38.3 57.6 38.8 58.5 39.9 58.5 C 40.7 58.5 41.2 58.1 41.5 57.7 C 41.6 57.5 41.6 57.3 41.6 57 C 41.6 55.7 41.2 54.5 39.9 54.5 C 38.9 54.5 38.3 55.3 38.3 56.6 Z M 50.7 64.5 L 50.7 61.7 L 45.5 61.7 L 45.5 59.9 L 49.9 52.7 L 53.3 52.7 L 53.3 59.6 L 54.7 59.6 L 54.7 61.7 L 53.3 61.7 L 53.3 64.5 L 50.7 64.5 Z M 50.7 59.6 C 50.7 59.6 50.72 56.99 50.7 57 C 50.7 56.3 50.8 55.6 50.8 54.8 C 50.8 54.8 50.7 54.8 50.7 54.8 C 50.4 55.6 50 56.2 49.6 57 C 49.63 56.99 48.1 59.6 48.1 59.6 L 48.1 59.6 L 50.7 59.6 Z M 67.3 62.4 C 67.3 63.2 67.4 64 67.5 64.5 C 67.48 64.5 65 64.5 65 64.5 L 64.8 63.6 C 64.8 63.6 64.77 63.61 64.8 63.6 C 64.2 64.3 63.3 64.7 62.2 64.7 C 60.4 64.7 59.4 63.4 59.4 62 C 59.4 59.7 61.4 58.6 64.6 58.6 C 64.6 58.6 64.6 58.5 64.6 58.5 C 64.6 58 64.3 57.3 63 57.3 C 62 57.3 61.1 57.6 60.5 58 C 60.5 58 60 56.2 60 56.2 C 60.6 55.8 61.8 55.4 63.4 55.4 C 66.4 55.4 67.3 57.1 67.3 59.2 C 67.3 59.2 67.3 62.4 67.3 62.4 Z M 64.7 60.3 C 63.2 60.3 62.1 60.6 62.1 61.7 C 62.1 62.4 62.6 62.8 63.2 62.8 C 63.8 62.8 64.4 62.3 64.6 61.7 C 64.6 61.6 64.7 61.4 64.7 61.3 C 64.7 61.3 64.7 60.3 64.7 60.3 Z M 76.2 64.3 C 75.7 64.5 74.8 64.7 73.7 64.7 C 70.9 64.7 69 62.9 69 60.1 C 69 57.5 70.8 55.4 74.1 55.4 C 74.8 55.4 75.6 55.5 76.2 55.8 C 76.2 55.8 75.8 57.8 75.8 57.8 C 75.5 57.7 75 57.5 74.2 57.5 C 72.8 57.5 71.8 58.6 71.9 60 C 71.9 61.6 72.9 62.5 74.3 62.5 C 74.9 62.5 75.5 62.4 75.9 62.2 C 75.9 62.2 76.2 64.3 76.2 64.3 Z M 77.7 58.5 C 77.7 57.2 77.7 56.4 77.7 55.6 C 77.66 55.61 80 55.6 80 55.6 L 80.1 57.2 C 80.1 57.2 80.2 57.25 80.2 57.2 C 80.7 55.9 81.7 55.4 82.6 55.4 C 82.9 55.4 83 55.4 83.2 55.4 C 83.2 55.4 83.2 58 83.2 58 C 83 58 82.7 58 82.4 58 C 81.4 58 80.7 58.5 80.5 59.4 C 80.5 59.6 80.5 59.8 80.5 60 C 80.49 59.99 80.5 64.5 80.5 64.5 L 77.7 64.5 C 77.7 64.5 77.73 58.54 77.7 58.5 Z M 86.6 60.9 C 86.7 62.1 87.8 62.6 89.1 62.6 C 90.1 62.6 90.8 62.5 91.6 62.2 C 91.6 62.2 91.9 64.1 91.9 64.1 C 91 64.5 89.9 64.7 88.7 64.7 C 85.7 64.7 84 62.9 84 60.2 C 84 57.9 85.4 55.4 88.5 55.4 C 91.3 55.4 92.4 57.6 92.4 59.8 C 92.4 60.3 92.4 60.7 92.3 60.9 C 92.3 60.9 86.6 60.9 86.6 60.9 Z M 89.9 59 C 89.9 58.4 89.6 57.2 88.3 57.2 C 87.1 57.2 86.7 58.3 86.6 59 C 86.6 59 89.9 59 89.9 59 Z M 94.1 62.1 C 94.6 62.4 95.6 62.8 96.4 62.8 C 97.3 62.8 97.6 62.5 97.6 62 C 97.6 61.6 97.4 61.3 96.3 61 C 94.5 60.4 93.8 59.4 93.8 58.3 C 93.8 56.6 95.2 55.4 97.4 55.4 C 98.4 55.4 99.4 55.6 99.9 55.9 C 99.9 55.9 99.4 57.8 99.4 57.8 C 99 57.6 98.2 57.3 97.5 57.3 C 96.8 57.3 96.4 57.6 96.4 58 C 96.4 58.5 96.8 58.7 97.9 59.1 C 99.6 59.6 100.3 60.5 100.3 61.8 C 100.3 63.5 99 64.7 96.4 64.7 C 95.3 64.7 94.2 64.4 93.6 64.1 C 93.6 64.1 94.1 62.1 94.1 62.1 Z " stroke="none" fill="#000"/>  </g>  <g id="Polygon12507">    <path d="M 1 18.3 C 1.03 18.29 3.7 17.9 3.7 17.9 C 3.7 17.9 5.06 21.9 5.1 21.9 C 5.7 22.1 6.3 22.1 6.9 22.1 C 8.9 22.1 10.1 21.2 10.1 19.4 C 10.1 17.7 9.1 17.3 7.6 16.8 C 7.6 16.8 5.6 16.1 5.6 16.1 C 2.8 15.1 1 13.4 1 10.3 C 1 6.2 4.8 4.4 9 4.4 C 11.3 4.4 13.5 4.8 14.6 5.3 C 14.7 5.8 14.8 6.5 14.8 7.1 C 14.8 8.1 14.7 9.4 14.4 10.4 C 14.45 10.36 11.9 10.4 11.9 10.4 C 11.9 10.4 11.09 6.94 11.1 6.9 C 10.5 6.8 9.8 6.7 9.2 6.7 C 7.4 6.7 5.9 7.5 5.9 9.2 C 5.9 10.6 6.5 11.3 8.1 11.8 C 8.1 11.8 10.5 12.5 10.5 12.5 C 13.8 13.6 15.4 15.1 15.4 18.1 C 15.4 22.6 11.1 24.5 7 24.5 C 4.7 24.5 2.7 23.9 1.5 23.2 C 1.1 22 1 19.7 1 18.3 Z M 25.4 15.6 C 25.4 15.6 25.4 13.7 25.4 13.7 C 25.4 12.3 24.8 11.6 23.3 11.6 C 22.8 11.6 22.4 11.7 21.9 11.8 C 21.9 11.75 21.4 14.3 21.4 14.3 C 21.4 14.3 18.54 14.3 18.5 14.3 C 18.3 13.5 18.2 12.7 18.2 11.9 C 18.2 11.5 18.2 10.9 18.3 10.6 C 20.2 9.6 22.6 9.1 24.8 9.1 C 28.5 9.1 30.5 10.5 30.5 13.5 C 30.5 15.9 30.4 18.9 30.4 21.6 C 30.38 21.6 31.9 22 31.9 22 C 31.9 22 31.89 23.66 31.9 23.7 C 30.2 24.1 28.1 24.4 25.5 24.4 C 25.5 24.4 25.5 22.2 25.5 22.2 C 24.8 23.6 23.3 24.4 21.5 24.4 C 19 24.4 17.2 23.1 17.2 20.4 C 17.2 16.5 21 15.8 25.4 15.6 Z M 25.4 21 C 25.4 21 25.4 17.4 25.4 17.4 C 23.3 17.6 22.1 18.2 22.1 19.8 C 22.1 21 22.8 21.6 23.9 21.6 C 24.5 21.6 25 21.4 25.4 21 Z M 34.8 22 C 34.83 22.02 34.8 12.2 34.8 12.2 L 33.3 11.8 C 33.3 11.8 33.32 10.03 33.3 10 C 35 9.6 37.4 9.2 39.9 9.2 C 39.9 9.2 39.9 11.6 39.9 11.6 C 41 9.9 42.9 9.1 44.9 9.1 C 47.9 9.1 49.6 10.9 49.6 13.6 C 49.6 13.6 49.6 22 49.6 22 C 50.2 22.1 50.8 22.3 51.1 22.4 C 51.1 22.41 51.1 24.1 51.1 24.1 L 42.9 24.1 C 42.9 24.1 42.92 22.41 42.9 22.4 C 43.3 22.3 43.8 22.1 44.5 22 C 44.5 22 44.5 14.7 44.5 14.7 C 44.5 13.4 43.8 12.7 42.6 12.7 C 41.6 12.7 40.7 13 39.9 13.8 C 39.9 13.8 39.9 22 39.9 22 C 40.6 22.1 41.2 22.3 41.5 22.4 C 41.5 22.41 41.5 24.1 41.5 24.1 L 33.3 24.1 C 33.3 24.1 33.29 22.41 33.3 22.4 C 33.6 22.3 34.2 22.1 34.8 22 Z M 54 9.6 C 54 9.6 54.2 7 54.2 7 C 55.4 6.7 57.3 6.6 59 6.6 C 59 6.6 58.9 9.5 58.9 9.5 L 62.2 9.5 L 62.2 11.9 L 58.9 11.9 C 58.9 11.9 58.79 19.29 58.8 19.3 C 58.8 20.7 59.2 21.2 60.2 21.2 C 61 21.2 61.5 20.8 62 20.3 C 62 20.3 62.9 21.6 62.9 21.6 C 62.1 23 60.4 24.4 57.9 24.4 C 55.2 24.4 53.7 22.9 53.7 20.3 C 53.7 20.29 53.8 11.9 53.8 11.9 L 52.3 11.9 C 52.3 11.9 52.28 10.09 52.3 10.1 C 52.6 9.9 53.1 9.8 54 9.6 Z M 72.1 15.6 C 72.1 15.6 72.1 13.7 72.1 13.7 C 72.1 12.3 71.5 11.6 70 11.6 C 69.6 11.6 69.1 11.7 68.6 11.8 C 68.64 11.75 68.2 14.3 68.2 14.3 C 68.2 14.3 65.27 14.3 65.3 14.3 C 65 13.5 64.9 12.7 64.9 11.9 C 64.9 11.5 65 10.9 65.1 10.6 C 66.9 9.6 69.3 9.1 71.5 9.1 C 75.2 9.1 77.2 10.5 77.2 13.5 C 77.2 15.9 77.1 18.9 77.1 21.6 C 77.12 21.6 78.6 22 78.6 22 C 78.6 22 78.63 23.66 78.6 23.7 C 76.9 24.1 74.8 24.4 72.2 24.4 C 72.2 24.4 72.2 22.2 72.2 22.2 C 71.5 23.6 70 24.4 68.2 24.4 C 65.7 24.4 64 23.1 64 20.4 C 64 16.5 67.7 15.8 72.1 15.6 Z M 72.1 21 C 72.1 21 72.1 17.4 72.1 17.4 C 70 17.6 68.8 18.2 68.8 19.8 C 68.8 21 69.6 21.6 70.6 21.6 C 71.2 21.6 71.7 21.4 72.1 21 Z M 87.3 21.9 C 87.3 21.9 87.3 6.9 87.3 6.9 C 86.5 6.9 86 6.7 85.5 6.5 C 85.54 6.54 85.5 4.7 85.5 4.7 C 85.5 4.7 95.96 4.72 96 4.7 C 100 4.7 102.7 6.6 102.7 10.1 C 102.7 12.2 101.3 13.9 99.4 14.6 C 99.4 14.6 102.8 22 102.8 22 C 103.4 22 103.9 22.1 104.3 22.3 C 104.26 22.29 104.3 24.1 104.3 24.1 L 97.9 24.1 L 94.7 16.3 L 92.7 16.3 C 92.7 16.3 92.75 21.9 92.7 21.9 C 93.5 22 94.1 22.1 94.6 22.3 C 94.56 22.29 94.6 24.1 94.6 24.1 L 85.5 24.1 C 85.5 24.1 85.54 22.29 85.5 22.3 C 86 22.1 86.5 22 87.3 21.9 Z M 92.7 14 C 92.7 14 94.2 13.96 94.2 14 C 96.1 14 97.2 12.6 97.2 10.3 C 97.2 8.1 96.1 6.9 94.1 6.9 C 94.11 6.91 92.7 6.9 92.7 6.9 L 92.7 14 Z M 113 9.1 C 117.6 9.1 120.6 11.4 120.6 16.7 C 120.6 21.9 117 24.4 112.5 24.4 C 107.9 24.4 105 22.2 105 16.9 C 105 11.6 108.4 9.1 113 9.1 Z M 115.2 17.3 C 115.2 14.2 114.7 11.5 112.7 11.5 C 110.8 11.5 110.3 13.3 110.3 16.2 C 110.3 19.4 110.8 22.1 112.9 22.1 C 114.7 22.1 115.2 20.3 115.2 17.3 Z M 122.4 22.4 C 122.4 21.4 122.6 20.4 122.8 19.4 C 122.79 19.39 125.5 19.4 125.5 19.4 C 125.5 19.4 125.94 22.08 125.9 22.1 C 126.4 22.2 126.9 22.2 127.4 22.2 C 128.7 22.2 129.6 21.7 129.6 20.5 C 129.6 19.4 128.8 19.1 127.3 18.6 C 127.3 18.6 125.7 18.1 125.7 18.1 C 123.8 17.5 122.4 16.3 122.4 13.8 C 122.4 10.4 125.5 9.1 129 9.1 C 130.6 9.1 132.5 9.4 133.7 9.9 C 133.8 10.3 133.8 10.8 133.8 11.2 C 133.8 12.1 133.7 13.2 133.4 14.2 C 133.4 14.18 130.8 14.2 130.8 14.2 C 130.8 14.2 130.25 11.51 130.2 11.5 C 129.9 11.4 129.5 11.4 129 11.4 C 127.9 11.4 126.8 11.8 126.8 12.9 C 126.8 14.1 127.7 14.4 128.9 14.8 C 128.9 14.8 130.5 15.3 130.5 15.3 C 132.8 16 134.4 17.1 134.4 19.5 C 134.4 22.7 132 24.5 127.4 24.5 C 125.7 24.5 123.7 24.2 122.6 23.7 C 122.4 23.3 122.4 22.8 122.4 22.4 Z M 144.2 15.6 C 144.2 15.6 144.2 13.7 144.2 13.7 C 144.2 12.3 143.6 11.6 142.1 11.6 C 141.6 11.6 141.2 11.7 140.7 11.8 C 140.7 11.75 140.2 14.3 140.2 14.3 C 140.2 14.3 137.33 14.3 137.3 14.3 C 137.1 13.5 137 12.7 137 11.9 C 137 11.5 137 10.9 137.1 10.6 C 139 9.6 141.4 9.1 143.6 9.1 C 147.3 9.1 149.3 10.5 149.3 13.5 C 149.3 15.9 149.2 18.9 149.2 21.6 C 149.18 21.6 150.7 22 150.7 22 C 150.7 22 150.69 23.66 150.7 23.7 C 149 24.1 146.9 24.4 144.3 24.4 C 144.3 24.4 144.3 22.2 144.3 22.2 C 143.6 23.6 142.1 24.4 140.3 24.4 C 137.8 24.4 136 23.1 136 20.4 C 136 16.5 139.8 15.8 144.2 15.6 Z M 144.2 21 C 144.2 21 144.2 17.4 144.2 17.4 C 142.1 17.6 140.8 18.2 140.8 19.8 C 140.8 21 141.6 21.6 142.7 21.6 C 143.3 21.6 143.8 21.4 144.2 21 Z M 159.4 21.9 C 159.4 21.9 159.4 6.9 159.4 6.9 C 158.6 6.9 158.1 6.7 157.6 6.5 C 157.6 6.54 157.6 4.7 157.6 4.7 L 166.6 4.7 C 166.6 4.7 166.62 6.54 166.6 6.5 C 166.2 6.7 165.6 6.9 164.8 6.9 C 164.8 6.9 164.8 21.9 164.8 21.9 C 165.6 22 166.2 22.1 166.6 22.3 C 166.62 22.29 166.6 24.1 166.6 24.1 L 157.6 24.1 C 157.6 24.1 157.6 22.29 157.6 22.3 C 158.1 22.1 158.6 22 159.4 21.9 Z M 168.3 22.4 C 168.3 21.4 168.5 20.4 168.7 19.4 C 168.71 19.39 171.4 19.4 171.4 19.4 C 171.4 19.4 171.86 22.08 171.9 22.1 C 172.3 22.2 172.8 22.2 173.3 22.2 C 174.6 22.2 175.5 21.7 175.5 20.5 C 175.5 19.4 174.7 19.1 173.3 18.6 C 173.3 18.6 171.7 18.1 171.7 18.1 C 169.7 17.5 168.3 16.3 168.3 13.8 C 168.3 10.4 171.4 9.1 174.9 9.1 C 176.6 9.1 178.5 9.4 179.6 9.9 C 179.7 10.3 179.7 10.8 179.7 11.2 C 179.7 12.1 179.6 13.2 179.3 14.2 C 179.32 14.18 176.7 14.2 176.7 14.2 C 176.7 14.2 176.17 11.51 176.2 11.5 C 175.8 11.4 175.4 11.4 174.9 11.4 C 173.8 11.4 172.7 11.8 172.7 12.9 C 172.7 14.1 173.6 14.4 174.8 14.8 C 174.8 14.8 176.4 15.3 176.4 15.3 C 178.7 16 180.3 17.1 180.3 19.5 C 180.3 22.7 177.9 24.5 173.3 24.5 C 171.7 24.5 169.6 24.2 168.5 23.7 C 168.4 23.3 168.3 22.8 168.3 22.4 Z M 183.1 22 C 183.1 22.02 183.1 5.8 183.1 5.8 L 181.3 5.4 C 181.3 5.4 181.31 3.6 181.3 3.6 C 183 3.1 185.6 2.9 188.2 2.9 C 188.2 2.9 188.2 22 188.2 22 C 188.9 22.1 189.4 22.3 189.8 22.4 C 189.77 22.41 189.8 24.1 189.8 24.1 L 181.6 24.1 C 181.6 24.1 181.56 22.41 181.6 22.4 C 181.9 22.3 182.4 22.1 183.1 22 Z M 199.2 15.6 C 199.2 15.6 199.2 13.7 199.2 13.7 C 199.2 12.3 198.5 11.6 197 11.6 C 196.6 11.6 196.1 11.7 195.6 11.8 C 195.64 11.75 195.2 14.3 195.2 14.3 C 195.2 14.3 192.28 14.3 192.3 14.3 C 192 13.5 191.9 12.7 191.9 11.9 C 191.9 11.5 192 10.9 192.1 10.6 C 193.9 9.6 196.3 9.1 198.5 9.1 C 202.2 9.1 204.2 10.5 204.2 13.5 C 204.2 15.9 204.1 18.9 204.1 21.6 C 204.12 21.6 205.6 22 205.6 22 C 205.6 22 205.64 23.66 205.6 23.7 C 203.9 24.1 201.8 24.4 199.2 24.4 C 199.2 24.4 199.2 22.2 199.2 22.2 C 198.5 23.6 197 24.4 195.2 24.4 C 192.7 24.4 191 23.1 191 20.4 C 191 16.5 194.7 15.8 199.2 15.6 Z M 199.2 21 C 199.2 21 199.2 17.4 199.2 17.4 C 197 17.6 195.8 18.2 195.8 19.8 C 195.8 21 196.6 21.6 197.6 21.6 C 198.2 21.6 198.7 21.4 199.2 21 Z M 208.6 22 C 208.58 22.02 208.6 12.2 208.6 12.2 L 207.1 11.8 C 207.1 11.8 207.06 10.03 207.1 10 C 208.8 9.6 211.1 9.2 213.7 9.2 C 213.7 9.2 213.7 11.6 213.7 11.6 C 214.7 9.9 216.6 9.1 218.7 9.1 C 221.7 9.1 223.3 10.9 223.3 13.6 C 223.3 13.6 223.3 22 223.3 22 C 224 22.1 224.5 22.3 224.8 22.4 C 224.84 22.41 224.8 24.1 224.8 24.1 L 216.7 24.1 C 216.7 24.1 216.66 22.41 216.7 22.4 C 217 22.3 217.5 22.1 218.2 22 C 218.2 22 218.2 14.7 218.2 14.7 C 218.2 13.4 217.5 12.7 216.3 12.7 C 215.3 12.7 214.5 13 213.7 13.8 C 213.7 13.8 213.7 22 213.7 22 C 214.3 22.1 214.9 22.3 215.2 22.4 C 215.24 22.41 215.2 24.1 215.2 24.1 L 207 24.1 C 207 24.1 207.03 22.41 207 22.4 C 207.4 22.3 207.9 22.1 208.6 22 Z M 233.2 9 C 234.5 9 235.5 9.5 236.2 10.2 C 236.17 10.21 236.2 5.8 236.2 5.8 L 234.3 5.4 C 234.3 5.4 234.29 3.6 234.3 3.6 C 236 3.1 238.7 2.9 241.3 2.9 C 241.26 2.91 241.3 21.6 241.3 21.6 L 242.8 22 C 242.8 22 242.77 23.66 242.8 23.7 C 241.1 24.1 238.8 24.4 236.3 24.4 C 236.3 24.4 236.3 22 236.3 22 C 235.5 23.6 234 24.5 232.1 24.5 C 228.5 24.5 226.2 21.7 226.2 17.1 C 226.2 12.1 229.1 9 233.2 9 Z M 236.2 20.4 C 236.2 20.4 236.2 12.1 236.2 12.1 C 235.8 12 235.4 12 235 12 C 232.7 12 231.5 14 231.5 16.7 C 231.5 20 232.7 21.2 234.4 21.2 C 235 21.2 235.7 20.9 236.2 20.4 Z " stroke="none" fill="#404040"/>  </g></svg>