<?xml version="1.0" standalone="no"?><!DOCTYPE svg PUBLIC "-//W3C//DTD SVG 1.1//EN" "http://www.w3.org/Graphics/SVG/1.1/DTD/svg11.dtd"><svg xmlns="http://www.w3.org/2000/svg" version="1.1" width="125px" height="145.8px" viewBox="0 0 125 145.8">  <desc>California Sea Lions</desc>  <defs/>  <g id="Polygon13937">    <path d="M 17.6 74.6 C 17.3 74.7 16.7 74.8 16.1 74.8 C 13.5 74.8 12.2 72.7 12.2 69.8 C 12.2 66 14.3 64.6 16.3 64.6 C 17 64.6 17.5 64.7 17.7 64.8 C 17.7 64.8 17.3 66.5 17.3 66.5 C 17.1 66.4 16.9 66.3 16.4 66.3 C 15.3 66.3 14.3 67.2 14.3 69.7 C 14.3 72.2 15.2 73.1 16.4 73.1 C 16.8 73.1 17.1 73 17.4 73 C 17.4 73 17.6 74.6 17.6 74.6 Z M 23.5 73.1 C 23.5 73.7 23.5 74.3 23.6 74.8 C 23.58 74.75 21.8 74.8 21.8 74.8 L 21.7 74 C 21.7 74 21.68 74.03 21.7 74 C 21.3 74.6 20.7 74.9 20.1 74.9 C 18.9 74.9 18.1 73.9 18.1 72.7 C 18.1 70.7 19.8 69.9 21.5 69.9 C 21.5 69.9 21.5 69.8 21.5 69.8 C 21.5 69.2 21.2 68.8 20.4 68.8 C 19.9 68.8 19.4 68.9 18.9 69.2 C 18.9 69.2 18.6 67.9 18.6 67.9 C 19 67.6 19.8 67.3 20.9 67.3 C 23.1 67.3 23.5 68.9 23.5 70.4 C 23.5 70.4 23.5 73.1 23.5 73.1 Z M 21.5 71.2 C 20.9 71.2 20 71.4 20 72.4 C 20 73.2 20.4 73.4 20.7 73.4 C 21 73.4 21.4 73.2 21.5 72.8 C 21.5 72.7 21.5 72.6 21.5 72.5 C 21.5 72.5 21.5 71.2 21.5 71.2 Z M 24.9 64.4 L 26.8 64.4 L 26.8 74.8 L 24.9 74.8 L 24.9 64.4 Z M 28.2 74.8 L 28.2 67.4 L 30.2 67.4 L 30.2 74.8 L 28.2 74.8 Z M 30.2 65.5 C 30.2 66.1 29.8 66.5 29.2 66.5 C 28.6 66.5 28.2 66.1 28.2 65.5 C 28.2 64.8 28.7 64.4 29.2 64.4 C 29.8 64.4 30.2 64.8 30.2 65.5 Z M 31.9 74.8 L 31.9 68.8 L 30.9 68.8 L 30.9 67.4 L 31.9 67.4 C 31.9 67.4 31.92 67.13 31.9 67.1 C 31.9 66.3 32.1 65.5 32.7 64.9 C 33.1 64.5 33.7 64.3 34.4 64.3 C 34.9 64.3 35.3 64.3 35.6 64.4 C 35.6 64.4 35.4 65.9 35.4 65.9 C 35.2 65.9 35 65.9 34.8 65.9 C 34.1 65.9 33.9 66.4 33.9 67.1 C 33.89 67.07 33.9 67.4 33.9 67.4 L 35.2 67.4 L 35.2 68.8 L 33.9 68.8 L 33.9 74.8 L 31.9 74.8 Z M 41.1 71.1 C 41.1 74.1 39.4 74.9 38.3 74.9 C 36.5 74.9 35.5 73.5 35.5 71.1 C 35.5 68.5 36.9 67.3 38.3 67.3 C 40.1 67.3 41.1 68.7 41.1 71.1 Z M 37.4 71.1 C 37.4 72.3 37.6 73.4 38.3 73.4 C 39 73.4 39.2 72.1 39.2 71.1 C 39.2 70.1 39 68.8 38.3 68.8 C 37.6 68.8 37.4 70.1 37.4 71.1 Z M 42.2 69.6 C 42.2 68.9 42.2 68.1 42.2 67.4 C 42.15 67.41 43.8 67.4 43.8 67.4 L 44 68.5 C 44 68.5 44.01 68.48 44 68.5 C 44.3 67.7 44.9 67.3 45.5 67.3 C 45.7 67.3 45.8 67.3 45.9 67.3 C 45.9 67.3 45.9 69.3 45.9 69.3 C 45.8 69.2 45.6 69.2 45.5 69.2 C 45 69.2 44.5 69.5 44.3 70.3 C 44.2 70.4 44.2 70.7 44.2 71 C 44.18 71.02 44.2 74.8 44.2 74.8 L 42.2 74.8 C 42.2 74.8 42.21 69.62 42.2 69.6 Z M 46.6 69.6 C 46.6 68.8 46.6 68.1 46.6 67.4 C 46.56 67.41 48.3 67.4 48.3 67.4 L 48.4 68.3 C 48.4 68.3 48.39 68.26 48.4 68.3 C 48.8 67.7 49.4 67.3 50.2 67.3 C 51.6 67.3 52.1 68.4 52.1 70 C 52.11 70.04 52.1 74.8 52.1 74.8 L 50.1 74.8 C 50.1 74.8 50.15 70.16 50.1 70.2 C 50.1 69.5 50 68.9 49.4 68.9 C 49.1 68.9 48.8 69.2 48.7 69.6 C 48.6 69.8 48.6 70 48.6 70.3 C 48.59 70.28 48.6 74.8 48.6 74.8 L 46.6 74.8 C 46.6 74.8 46.62 69.62 46.6 69.6 Z M 53.5 74.8 L 53.5 67.4 L 55.5 67.4 L 55.5 74.8 L 53.5 74.8 Z M 55.5 65.5 C 55.5 66.1 55 66.5 54.4 66.5 C 53.9 66.5 53.4 66.1 53.4 65.5 C 53.4 64.8 53.9 64.4 54.5 64.4 C 55 64.4 55.5 64.8 55.5 65.5 Z M 61.8 73.1 C 61.8 73.7 61.8 74.3 61.9 74.8 C 61.89 74.75 60.1 74.8 60.1 74.8 L 60 74 C 60 74 59.99 74.03 60 74 C 59.6 74.6 59 74.9 58.4 74.9 C 57.3 74.9 56.4 73.9 56.4 72.7 C 56.4 70.7 58.1 69.9 59.8 69.9 C 59.8 69.9 59.8 69.8 59.8 69.8 C 59.8 69.2 59.5 68.8 58.8 68.8 C 58.2 68.8 57.7 68.9 57.3 69.2 C 57.3 69.2 56.9 67.9 56.9 67.9 C 57.3 67.6 58.2 67.3 59.2 67.3 C 61.4 67.3 61.8 68.9 61.8 70.4 C 61.8 70.4 61.8 73.1 61.8 73.1 Z M 59.9 71.2 C 59.2 71.2 58.3 71.4 58.3 72.4 C 58.3 73.2 58.7 73.4 59 73.4 C 59.3 73.4 59.7 73.2 59.8 72.8 C 59.8 72.7 59.9 72.6 59.9 72.5 C 59.9 72.5 59.9 71.2 59.9 71.2 Z M 65.5 72.7 C 65.9 73 66.6 73.1 67.2 73.1 C 68.1 73.1 68.6 72.7 68.6 72 C 68.6 71.3 68.1 70.9 67.2 70.3 C 65.9 69.5 65.3 68.4 65.3 67.5 C 65.3 65.9 66.4 64.6 68.5 64.6 C 69.2 64.6 69.8 64.7 70.1 64.9 C 70.1 64.9 69.8 66.6 69.8 66.6 C 69.5 66.4 69.1 66.3 68.5 66.3 C 67.7 66.3 67.3 66.8 67.3 67.3 C 67.3 67.9 67.6 68.2 68.7 68.9 C 70 69.7 70.5 70.7 70.5 71.8 C 70.5 73.6 69.1 74.8 67.2 74.8 C 66.3 74.8 65.6 74.6 65.2 74.4 C 65.2 74.4 65.5 72.7 65.5 72.7 Z M 73.2 71.8 C 73.3 72.9 73.9 73.3 74.8 73.3 C 75.3 73.3 75.8 73.2 76.2 73.1 C 76.2 73.1 76.4 74.5 76.4 74.5 C 75.9 74.7 75.2 74.8 74.4 74.8 C 72.4 74.8 71.3 73.5 71.3 71.2 C 71.3 68.8 72.6 67.3 74.3 67.3 C 75.9 67.3 76.8 68.5 76.8 70.8 C 76.8 71.3 76.7 71.6 76.7 71.8 C 76.7 71.8 73.2 71.8 73.2 71.8 Z M 75 70.4 C 75 69.5 74.7 68.7 74.2 68.7 C 73.5 68.7 73.3 69.7 73.2 70.4 C 73.2 70.4 75 70.4 75 70.4 Z M 82.8 73.1 C 82.8 73.7 82.9 74.3 82.9 74.8 C 82.94 74.75 81.2 74.8 81.2 74.8 L 81.1 74 C 81.1 74 81.03 74.03 81 74 C 80.6 74.6 80.1 74.9 79.4 74.9 C 78.3 74.9 77.5 73.9 77.5 72.7 C 77.5 70.7 79.2 69.9 80.8 69.9 C 80.8 69.9 80.8 69.8 80.8 69.8 C 80.8 69.2 80.5 68.8 79.8 68.8 C 79.2 68.8 78.8 68.9 78.3 69.2 C 78.3 69.2 77.9 67.9 77.9 67.9 C 78.4 67.6 79.2 67.3 80.2 67.3 C 82.5 67.3 82.8 68.9 82.8 70.4 C 82.8 70.4 82.8 73.1 82.8 73.1 Z M 80.9 71.2 C 80.3 71.2 79.3 71.4 79.3 72.4 C 79.3 73.2 79.7 73.4 80 73.4 C 80.4 73.4 80.7 73.2 80.9 72.8 C 80.9 72.7 80.9 72.6 80.9 72.5 C 80.9 72.5 80.9 71.2 80.9 71.2 Z M 86.8 64.6 L 88.7 64.6 L 88.7 73.1 L 91.3 73.1 L 91.3 74.8 L 86.8 74.8 L 86.8 64.6 Z M 92.3 74.8 L 92.3 67.4 L 94.3 67.4 L 94.3 74.8 L 92.3 74.8 Z M 94.3 65.5 C 94.3 66.1 93.8 66.5 93.2 66.5 C 92.7 66.5 92.2 66.1 92.3 65.5 C 92.2 64.8 92.7 64.4 93.3 64.4 C 93.8 64.4 94.3 64.8 94.3 65.5 Z M 101 71.1 C 101 74.1 99.3 74.9 98.2 74.9 C 96.4 74.9 95.4 73.5 95.4 71.1 C 95.4 68.5 96.8 67.3 98.2 67.3 C 100 67.3 101 68.7 101 71.1 Z M 97.3 71.1 C 97.3 72.3 97.5 73.4 98.2 73.4 C 98.9 73.4 99 72.1 99 71.1 C 99 70.1 98.9 68.8 98.2 68.8 C 97.5 68.8 97.3 70.1 97.3 71.1 Z M 102.1 69.6 C 102.1 68.8 102.1 68.1 102 67.4 C 102.05 67.41 103.7 67.4 103.7 67.4 L 103.8 68.3 C 103.8 68.3 103.88 68.26 103.9 68.3 C 104.3 67.7 104.9 67.3 105.6 67.3 C 107 67.3 107.6 68.4 107.6 70 C 107.6 70.04 107.6 74.8 107.6 74.8 L 105.6 74.8 C 105.6 74.8 105.63 70.16 105.6 70.2 C 105.6 69.5 105.5 68.9 104.9 68.9 C 104.6 68.9 104.3 69.2 104.2 69.6 C 104.1 69.8 104.1 70 104.1 70.3 C 104.07 70.28 104.1 74.8 104.1 74.8 L 102.1 74.8 C 102.1 74.8 102.11 69.62 102.1 69.6 Z M 108.9 73 C 109.2 73.2 109.7 73.4 110.2 73.4 C 110.7 73.4 111 73.1 111 72.7 C 111 72.3 110.8 72.1 110.2 71.7 C 109 71 108.7 70.3 108.7 69.6 C 108.7 68.3 109.6 67.3 111.1 67.3 C 111.7 67.3 112.2 67.4 112.6 67.6 C 112.6 67.6 112.2 69.1 112.2 69.1 C 112 68.9 111.6 68.8 111.2 68.8 C 110.7 68.8 110.5 69.1 110.5 69.4 C 110.5 69.7 110.7 69.9 111.3 70.3 C 112.4 70.9 112.8 71.7 112.8 72.5 C 112.8 74 111.8 74.8 110.2 74.8 C 109.6 74.8 108.9 74.7 108.6 74.4 C 108.6 74.4 108.9 73 108.9 73 Z " stroke="none" fill="#000" fill-opacity="0.7"/>  </g></svg>