<?xml version="1.0" standalone="no"?><!DOCTYPE svg PUBLIC "-//W3C//DTD SVG 1.1//EN" "http://www.w3.org/Graphics/SVG/1.1/DTD/svg11.dtd"><svg xmlns="http://www.w3.org/2000/svg" version="1.1" width="50.2px" height="15.3px" viewBox="0 0 50.2 15.3"><desc>Video 00:24</desc><defs/><g id="Polygon12102"><path d="m2 6.7l-2-6l.9 0c0 0 .93 2.97.9 3c.3.8.5 1.5.7 2.2c0 0 0 0 0 0c.2-.7.4-1.4.7-2.2c-.01-.02 1-3 1-3l.8 0l-2.1 6l-.9 0zm3.5 0l0-4.3l.8 0l0 4.3l-.8 0zm.9-5.5c0 .2-.2.5-.5.5c-.3 0-.5-.3-.5-.5c0-.3.2-.5.5-.5c.3 0 .5.2.5.5zm5-.8c0 0-.01 5.22 0 5.2c0 .4 0 .9 0 1.1c.03.05-.7 0-.7 0l0-.7c0 0-.03-.01 0 0c-.3.5-.8.8-1.5.8c-1.1 0-1.9-.8-1.9-2.2c0-1.4.9-2.3 2-2.3c.7 0 1.1.3 1.3.7c-.01-.04 0 0 0 0l0-2.6l.8 0zm-.8 3.8c0-.1 0-.3 0-.4c-.1-.5-.6-.9-1.2-.9c-.8 0-1.3.7-1.3 1.7c0 .9.5 1.6 1.3 1.6c.5 0 1-.3 1.2-.9c0-.1 0-.3 0-.4c0 0 0-.7 0-.7zm2.6.5c0 1.1.7 1.5 1.5 1.5c.5 0 .9-.1 1.2-.2c0 0 .1.6.1.6c-.3.1-.8.2-1.5.2c-1.3 0-2.1-.8-2.1-2.2c0-1.3.8-2.3 2-2.3c1.5 0 1.8 1.2 1.8 2c0 .2 0 .3 0 .4c0 0-3 0-3 0zm2.3-.6c0-.4-.2-1.2-1.1-1.2c-.8 0-1.2.7-1.2 1.2c0 0 2.3 0 2.3 0zm5.7.4c0 1.6-1.2 2.3-2.2 2.3c-1.2 0-2.1-.8-2.1-2.2c0-1.4 1-2.3 2.2-2.3c1.2 0 2.1.9 2.1 2.2zm-3.5.1c0 .9.6 1.7 1.3 1.7c.8 0 1.4-.8 1.4-1.7c0-.8-.4-1.7-1.3-1.7c-1 0-1.4.9-1.4 1.7zm6.4 3.2l0-7.2l1.7 0l0 .5l-1 0l0 6.2l1 0l0 .5l-1.7 0zm6.2-4c0 2-.8 3-2.1 3c-1.1 0-1.9-1-1.9-3c0-1.9.9-3 2-3c1.3 0 2 1.1 2 3zm-3.2.1c0 1.5.5 2.3 1.2 2.3c.8 0 1.2-.9 1.2-2.4c0-1.4-.4-2.4-1.2-2.4c-.7 0-1.2.9-1.2 2.5zm7.8-.1c0 2-.8 3-2 3c-1.2 0-2-1-2-3c0-1.9.9-3 2.1-3c1.2 0 1.9 1.1 1.9 3zm-3.2.1c0 1.5.5 2.3 1.2 2.3c.8 0 1.2-.9 1.2-2.4c0-1.4-.4-2.4-1.2-2.4c-.7 0-1.2.9-1.2 2.5zm4-.8c0-.3.2-.6.5-.6c.3 0 .5.3.5.6c0 .3-.2.6-.5.6c-.3 0-.5-.3-.5-.6zm0 3.2c0-.3.2-.6.5-.6c.3 0 .5.3.5.6c0 .3-.2.5-.5.5c-.3 0-.5-.2-.5-.5zm1.8.4l0-.4c0 0 .6-.64.6-.6c1.5-1.5 2.2-2.2 2.2-3.1c0-.6-.3-1.1-1.2-1.1c-.5 0-.9.2-1.2.5c0 0-.3-.6-.3-.6c.4-.3 1-.6 1.7-.6c1.2 0 1.8.9 1.8 1.7c0 1.1-.8 2-2 3.1c-.05.04-.5.5-.5.5l0 0l2.6 0l0 .6l-3.7 0zm7 0l0-1.6l-2.7 0l0-.5l2.6-3.7l.9 0l0 3.6l.8 0l0 .6l-.8 0l0 1.6l-.8 0zm0-2.2c0 0 .04-1.92 0-1.9c0-.3 0-.6.1-.9c0 0-.1 0-.1 0c-.1.3-.3.6-.4.8c-.05.03-1.5 2-1.5 2l0 0l1.9 0zm3.6-3.9l0 7.2l-1.6 0l0-.5l1 0l0-6.2l-1 0l0-.5l1.6 0z" stroke="none" fill="#404040"/></g></svg>