<?xml version="1.0" standalone="no"?><!DOCTYPE svg PUBLIC "-//W3C//DTD SVG 1.1//EN" "http://www.w3.org/Graphics/SVG/1.1/DTD/svg11.dtd"><svg xmlns="http://www.w3.org/2000/svg" version="1.1" width="393px" height="90.5px" viewBox="0 0 393 90.5">  <desc>San Miguel Island 9,325 acres</desc>  <defs/>  <g id="Polygon9966">    <path d="M 1.6 70.6 C 2 70.6 2.3 70.6 2.8 70.6 C 3.7 70.5 4.5 70.3 5.1 69.8 C 5.9 69.3 6.4 68.5 6.6 67.6 C 6.6 67.6 6.6 67.6 6.6 67.6 C 6.1 68.2 5.3 68.5 4.2 68.5 C 2.2 68.5 0.5 67.1 0.5 64.8 C 0.5 62.5 2.4 60.5 5 60.5 C 8 60.5 9.5 62.8 9.5 65.6 C 9.5 68.1 8.7 69.9 7.4 71.1 C 6.3 72.1 4.7 72.6 2.9 72.7 C 2.4 72.7 1.9 72.7 1.6 72.7 C 1.6 72.7 1.6 70.6 1.6 70.6 Z M 3.3 64.6 C 3.3 65.6 3.9 66.5 5 66.5 C 5.7 66.5 6.3 66.2 6.5 65.7 C 6.6 65.6 6.6 65.4 6.6 65 C 6.7 63.8 6.2 62.5 4.9 62.5 C 4 62.5 3.3 63.4 3.3 64.6 Z M 10.1 74.7 C 10.7 73.1 11.2 71.2 11.4 69.5 C 11.4 69.5 14.2 69.4 14.2 69.4 C 13.6 71.2 12.8 73.1 12 74.5 C 12 74.5 10.1 74.7 10.1 74.7 Z M 16.1 69.8 C 16.6 70.1 17.7 70.6 18.8 70.6 C 20.2 70.6 21 69.9 21 69 C 21 67.8 19.8 67.3 18.6 67.3 C 18.59 67.28 17.5 67.3 17.5 67.3 L 17.5 65.3 C 17.5 65.3 18.56 65.3 18.6 65.3 C 19.5 65.3 20.6 64.9 20.6 63.9 C 20.6 63.2 20.1 62.7 18.9 62.7 C 17.9 62.7 16.9 63.1 16.4 63.4 C 16.4 63.4 15.9 61.4 15.9 61.4 C 16.6 61 18 60.5 19.5 60.5 C 22 60.5 23.4 61.8 23.4 63.5 C 23.4 64.7 22.7 65.7 21.3 66.2 C 21.3 66.2 21.3 66.2 21.3 66.2 C 22.7 66.5 23.8 67.6 23.8 69.1 C 23.8 71.2 22 72.7 19 72.7 C 17.5 72.7 16.2 72.3 15.5 71.9 C 15.5 71.9 16.1 69.8 16.1 69.8 Z M 25.7 72.5 L 25.7 70.9 C 25.7 70.9 27.19 69.5 27.2 69.5 C 29.8 67.2 31 65.8 31.1 64.5 C 31.1 63.5 30.5 62.7 29.1 62.7 C 28.1 62.7 27.2 63.2 26.6 63.7 C 26.6 63.7 25.8 61.7 25.8 61.7 C 26.7 61.1 28.1 60.5 29.7 60.5 C 32.4 60.5 33.8 62.1 33.8 64.2 C 33.8 66.2 32.4 67.8 30.7 69.3 C 30.68 69.32 29.6 70.2 29.6 70.2 L 29.6 70.3 L 34.1 70.3 L 34.1 72.5 L 25.7 72.5 Z M 43.6 63 L 39.1 63 C 39.1 63 38.8 64.81 38.8 64.8 C 39.1 64.8 39.3 64.8 39.6 64.8 C 40.7 64.8 41.9 65 42.7 65.6 C 43.6 66.2 44.1 67.2 44.1 68.6 C 44.1 70.8 42.2 72.7 39 72.7 C 37.6 72.7 36.4 72.4 35.7 72.1 C 35.7 72.1 36.3 70 36.3 70 C 36.8 70.2 37.8 70.6 38.9 70.6 C 40.1 70.6 41.3 70 41.3 68.8 C 41.3 67.6 40.3 66.8 37.9 66.8 C 37.3 66.8 36.8 66.8 36.4 66.9 C 36.37 66.92 37.1 60.7 37.1 60.7 L 43.6 60.7 L 43.6 63 Z M 57.2 70.4 C 57.2 71.2 57.3 72 57.4 72.5 C 57.39 72.53 54.9 72.5 54.9 72.5 L 54.7 71.6 C 54.7 71.6 54.69 71.64 54.7 71.6 C 54.1 72.4 53.2 72.7 52.1 72.7 C 50.3 72.7 49.3 71.4 49.3 70 C 49.3 67.7 51.3 66.6 54.5 66.6 C 54.5 66.6 54.5 66.5 54.5 66.5 C 54.5 66 54.2 65.3 52.9 65.3 C 52 65.3 51 65.6 50.4 66 C 50.4 66 49.9 64.2 49.9 64.2 C 50.5 63.9 51.7 63.4 53.4 63.4 C 56.3 63.4 57.2 65.2 57.2 67.3 C 57.2 67.3 57.2 70.4 57.2 70.4 Z M 54.6 68.3 C 53.1 68.3 52 68.7 52 69.7 C 52 70.4 52.5 70.8 53.1 70.8 C 53.8 70.8 54.3 70.3 54.5 69.8 C 54.6 69.6 54.6 69.5 54.6 69.3 C 54.6 69.3 54.6 68.3 54.6 68.3 Z M 66.1 72.3 C 65.6 72.5 64.7 72.7 63.6 72.7 C 60.8 72.7 58.9 71 58.9 68.2 C 58.9 65.6 60.7 63.4 64 63.4 C 64.8 63.4 65.6 63.6 66.1 63.8 C 66.1 63.8 65.7 65.8 65.7 65.8 C 65.4 65.7 64.9 65.6 64.2 65.6 C 62.7 65.6 61.8 66.6 61.8 68.1 C 61.8 69.7 62.9 70.6 64.2 70.6 C 64.9 70.6 65.4 70.4 65.8 70.3 C 65.8 70.3 66.1 72.3 66.1 72.3 Z M 67.6 66.6 C 67.6 65.3 67.6 64.4 67.6 63.6 C 67.57 63.65 69.9 63.6 69.9 63.6 L 70 65.3 C 70 65.3 70.11 65.28 70.1 65.3 C 70.6 64 71.6 63.4 72.5 63.4 C 72.8 63.4 72.9 63.4 73.1 63.5 C 73.1 63.5 73.1 66.1 73.1 66.1 C 72.9 66 72.7 66 72.4 66 C 71.3 66 70.6 66.6 70.5 67.4 C 70.4 67.6 70.4 67.8 70.4 68 C 70.41 68.03 70.4 72.5 70.4 72.5 L 67.6 72.5 C 67.6 72.5 67.64 66.57 67.6 66.6 Z M 76.5 69 C 76.6 70.1 77.7 70.7 79 70.7 C 80 70.7 80.7 70.5 81.5 70.3 C 81.5 70.3 81.9 72.2 81.9 72.2 C 80.9 72.5 79.8 72.7 78.6 72.7 C 75.6 72.7 73.9 71 73.9 68.2 C 73.9 65.9 75.3 63.4 78.4 63.4 C 81.3 63.4 82.3 65.7 82.3 67.9 C 82.3 68.4 82.3 68.8 82.3 69 C 82.3 69 76.5 69 76.5 69 Z M 79.8 67.1 C 79.8 66.4 79.5 65.3 78.2 65.3 C 77.1 65.3 76.6 66.4 76.5 67.1 C 76.5 67.1 79.8 67.1 79.8 67.1 Z M 84 70.1 C 84.5 70.4 85.5 70.8 86.4 70.8 C 87.2 70.8 87.5 70.5 87.5 70.1 C 87.5 69.6 87.3 69.4 86.3 69 C 84.4 68.4 83.7 67.4 83.7 66.4 C 83.7 64.7 85.1 63.4 87.3 63.4 C 88.4 63.4 89.3 63.7 89.8 64 C 89.8 64 89.3 65.9 89.3 65.9 C 88.9 65.6 88.2 65.4 87.4 65.4 C 86.7 65.4 86.4 65.6 86.4 66.1 C 86.4 66.5 86.7 66.7 87.8 67.1 C 89.5 67.7 90.2 68.6 90.2 69.8 C 90.2 71.5 88.9 72.7 86.4 72.7 C 85.2 72.7 84.2 72.5 83.5 72.1 C 83.5 72.1 84 70.1 84 70.1 Z " stroke="none" fill="#000"/>  </g>  <g id="Polygon9965">    <path d="M 1.4 24.4 C 1.37 24.39 5 23.8 5 23.8 C 5 23.8 6.74 29.2 6.7 29.2 C 7.6 29.4 8.4 29.5 9.2 29.5 C 11.9 29.5 13.4 28.3 13.4 25.8 C 13.4 23.7 12.2 23 10.2 22.3 C 10.2 22.3 7.5 21.4 7.5 21.4 C 3.8 20.2 1.4 17.9 1.4 13.8 C 1.4 8.2 6.4 5.8 12 5.8 C 15.1 5.8 18 6.4 19.4 7.1 C 19.6 7.7 19.7 8.7 19.7 9.5 C 19.7 10.8 19.6 12.6 19.3 13.8 C 19.26 13.81 15.8 13.8 15.8 13.8 C 15.8 13.8 14.78 9.25 14.8 9.2 C 13.9 9.1 13 9 12.2 9 C 9.9 9 7.9 10 7.9 12.3 C 7.9 14.1 8.7 15.1 10.7 15.7 C 10.7 15.7 14.1 16.7 14.1 16.7 C 18.5 18.1 20.6 20.2 20.6 24.1 C 20.6 30.2 14.8 32.6 9.4 32.6 C 6.3 32.6 3.6 31.9 2 30.9 C 1.5 29.3 1.4 26.3 1.4 24.4 Z M 33.9 20.8 C 33.9 20.8 33.9 18.3 33.9 18.3 C 33.9 16.4 33.1 15.5 31 15.5 C 30.5 15.5 29.8 15.5 29.2 15.7 C 29.2 15.67 28.6 19.1 28.6 19.1 C 28.6 19.1 24.72 19.06 24.7 19.1 C 24.4 18 24.2 16.9 24.2 15.9 C 24.2 15.3 24.3 14.6 24.4 14.1 C 26.9 12.8 30.1 12.2 33.1 12.2 C 38 12.2 40.7 14.1 40.7 18 C 40.7 21.2 40.5 25.2 40.5 28.8 C 40.51 28.8 42.5 29.3 42.5 29.3 C 42.5 29.3 42.53 31.54 42.5 31.5 C 40.3 32.1 37.4 32.5 34 32.5 C 34 32.5 34 29.6 34 29.6 C 33.1 31.4 31.1 32.6 28.7 32.6 C 25.3 32.6 23 30.8 23 27.1 C 23 22 27.9 21.1 33.9 20.8 Z M 33.9 28 C 33.9 28 33.9 23.2 33.9 23.2 C 31.1 23.4 29.4 24.2 29.4 26.4 C 29.4 28 30.5 28.8 31.8 28.8 C 32.6 28.8 33.3 28.5 33.9 28 Z M 46.4 29.4 C 46.44 29.36 46.4 16.3 46.4 16.3 L 44.4 15.8 C 44.4 15.8 44.42 13.37 44.4 13.4 C 46.7 12.8 49.8 12.3 53.2 12.3 C 53.2 12.3 53.2 15.4 53.2 15.4 C 54.6 13.2 57.1 12.2 59.9 12.2 C 63.9 12.2 66.1 14.6 66.1 18.1 C 66.1 18.1 66.1 29.4 66.1 29.4 C 67 29.4 67.7 29.7 68.1 29.9 C 68.13 29.89 68.1 32.1 68.1 32.1 L 57.2 32.1 C 57.2 32.1 57.23 29.89 57.2 29.9 C 57.7 29.7 58.4 29.4 59.3 29.4 C 59.3 29.4 59.3 19.5 59.3 19.5 C 59.3 17.9 58.4 17 56.7 17 C 55.5 17 54.3 17.3 53.2 18.4 C 53.2 18.4 53.2 29.4 53.2 29.4 C 54.1 29.4 54.9 29.7 55.3 29.9 C 55.33 29.89 55.3 32.1 55.3 32.1 L 44.4 32.1 C 44.4 32.1 44.38 29.89 44.4 29.9 C 44.8 29.7 45.6 29.4 46.4 29.4 Z M 79.6 29.2 C 79.6 29.2 79.6 9.2 79.6 9.2 C 78.6 9.2 77.8 9 77.2 8.7 C 77.22 8.72 77.2 6.3 77.2 6.3 L 89 6.3 L 94.6 21 L 100.3 6.3 L 111.5 6.3 C 111.5 6.3 111.51 8.72 111.5 8.7 C 110.9 9 110.2 9.2 109.1 9.2 C 109.1 9.2 109.1 29.2 109.1 29.2 C 110.2 29.3 110.9 29.5 111.5 29.7 C 111.51 29.72 111.5 32.1 111.5 32.1 L 99.5 32.1 C 99.5 32.1 99.51 29.72 99.5 29.7 C 100.1 29.5 100.8 29.3 101.9 29.2 C 101.89 29.2 101.9 12.7 101.9 12.7 L 94.3 32.1 L 91.3 32.1 L 84 12.8 C 84 12.8 84 29.2 84 29.2 C 85.1 29.3 85.8 29.5 86.4 29.7 C 86.39 29.72 86.4 32.1 86.4 32.1 L 77.2 32.1 C 77.2 32.1 77.22 29.72 77.2 29.7 C 77.8 29.5 78.6 29.3 79.6 29.2 Z M 115.2 6.5 C 115.2 5.4 115.3 5 115.4 4.4 C 116.3 4.2 117.6 4 118.7 4 C 119.9 4 121.2 4.2 122 4.4 C 122.2 5 122.2 5.4 122.2 6.5 C 122.2 7.8 122 9 121.9 9.8 C 121.2 10 119.8 10.2 118.7 10.2 C 117.6 10.2 116.3 10 115.5 9.8 C 115.4 9 115.2 7.8 115.2 6.5 Z M 115.2 29.4 C 115.22 29.36 115.2 16.3 115.2 16.3 L 113.2 15.8 C 113.2 15.8 113.2 13.37 113.2 13.4 C 115.5 12.8 118.6 12.3 122 12.3 C 122 12.3 122 29.4 122 29.4 C 122.9 29.4 123.7 29.7 124.1 29.9 C 124.11 29.89 124.1 32.1 124.1 32.1 L 113.2 32.1 C 113.2 32.1 113.16 29.89 113.2 29.9 C 113.6 29.7 114.3 29.4 115.2 29.4 Z M 128.8 31.5 C 127.8 30.9 126.8 29.8 126.8 28.1 C 126.8 26.4 128.1 25 129.6 24.2 C 127.3 23.3 125.7 21.6 125.7 18.8 C 125.7 14.2 129.9 12.2 135 12.2 C 137 12.2 138.9 12.6 140.5 13.5 C 141.6 12.2 142.8 11.6 144.9 11.5 C 145 12.1 145.1 12.8 145.1 13.5 C 145.1 14.3 145 14.9 144.9 15.6 C 144.9 15.6 142.1 15.6 142.1 15.6 C 143 16.4 143.5 17.4 143.5 18.9 C 143.5 22.8 139.9 25 134.2 25 C 133.6 25 132.9 24.9 132.3 24.8 C 132 25.2 131.8 25.6 131.8 26 C 131.8 26.6 132.2 27.1 133.1 27.1 C 133.1 27.1 138.6 27.1 138.6 27.1 C 142.4 27.1 145.1 28.9 145.1 32.4 C 145.1 37.7 139.5 40.1 133.5 40.1 C 128.1 40.1 125 38.6 125 35.4 C 125 33.6 126.5 32.2 128.8 31.5 Z M 137.4 18.5 C 137.4 15.9 136.2 14.9 134.8 14.9 C 133.2 14.9 132.2 15.9 132.2 18.2 C 132.2 20.9 133.3 22.1 134.8 22.1 C 136.3 22.1 137.4 21 137.4 18.5 Z M 130.5 34.5 C 130.5 36.3 131.8 37.1 134.4 37.1 C 137.6 37.1 139.5 36.1 139.5 34.2 C 139.5 33 138.5 32.4 136.9 32.4 C 136.9 32.4 131.4 32.4 131.4 32.4 C 130.9 32.9 130.5 33.6 130.5 34.5 Z M 146.4 15.8 C 146.4 15.8 146.36 13.37 146.4 13.4 C 148.7 12.8 151.8 12.3 155.2 12.3 C 155.2 12.3 155.2 25 155.2 25 C 155.2 27 155.9 28 157.7 28 C 159 28 160.1 27.6 161.2 26.6 C 161.22 26.57 161.2 16.3 161.2 16.3 L 159.2 15.8 C 159.2 15.8 159.2 13.37 159.2 13.4 C 161.5 12.8 164.6 12.3 168 12.3 C 168.01 12.32 168 28.8 168 28.8 L 170 29.3 C 170 29.3 170.03 31.54 170 31.5 C 167.8 32.1 164.7 32.5 161.2 32.5 C 161.2 32.5 161.2 29.4 161.2 29.4 C 159.8 31.6 157.3 32.6 154.5 32.6 C 150.5 32.6 148.4 30.2 148.4 26.4 C 148.38 26.41 148.4 16.3 148.4 16.3 L 146.4 15.8 Z M 182 12.2 C 187.5 12.2 190.3 15.3 190.3 20.4 C 190.3 21.3 190.2 21.8 190.1 22.8 C 190.1 22.8 178.7 22.8 178.7 22.8 C 179.1 26.9 181.1 28.2 183.9 28.2 C 186 28.2 187.6 27.3 188.8 26.1 C 188.8 26.1 189.9 27.9 189.9 27.9 C 188.6 30.5 185.9 32.6 181.8 32.6 C 176.1 32.6 171.9 29.6 171.9 22.2 C 171.9 15.6 176.5 12.2 182 12.2 Z M 178.7 20.2 C 178.7 20.2 184.3 20.2 184.3 20.2 C 184.3 19.8 184.3 19.4 184.3 19.1 C 184.3 16.8 183.5 15.3 181.8 15.3 C 180.2 15.3 179 16.6 178.7 20.2 Z M 193.9 29.4 C 193.94 29.36 193.9 7.7 193.9 7.7 L 191.6 7.2 C 191.6 7.2 191.55 4.81 191.6 4.8 C 193.9 4.2 197.3 3.9 200.7 3.9 C 200.7 3.9 200.7 29.4 200.7 29.4 C 201.6 29.4 202.3 29.7 202.8 29.9 C 202.82 29.89 202.8 32.1 202.8 32.1 L 191.9 32.1 C 191.9 32.1 191.88 29.89 191.9 29.9 C 192.3 29.7 193 29.4 193.9 29.4 Z M 214.2 29.2 C 214.2 29.2 214.2 9.2 214.2 9.2 C 213.2 9.2 212.5 9 211.9 8.7 C 211.87 8.72 211.9 6.3 211.9 6.3 L 223.9 6.3 C 223.9 6.3 223.9 8.72 223.9 8.7 C 223.3 9 222.5 9.2 221.5 9.2 C 221.5 9.2 221.5 29.2 221.5 29.2 C 222.5 29.3 223.3 29.5 223.9 29.7 C 223.9 29.72 223.9 32.1 223.9 32.1 L 211.9 32.1 C 211.9 32.1 211.87 29.72 211.9 29.7 C 212.5 29.5 213.2 29.3 214.2 29.2 Z M 226.2 29.9 C 226.2 28.6 226.4 27.1 226.7 25.8 C 226.69 25.85 230.2 25.8 230.2 25.8 C 230.2 25.8 230.89 29.44 230.9 29.4 C 231.5 29.6 232.2 29.6 232.9 29.6 C 234.6 29.6 235.8 28.9 235.8 27.3 C 235.8 25.9 234.6 25.4 232.7 24.8 C 232.7 24.8 230.6 24.2 230.6 24.2 C 228 23.4 226.1 21.7 226.1 18.4 C 226.1 13.9 230.2 12.2 235 12.2 C 237.1 12.2 239.7 12.6 241.2 13.2 C 241.3 13.7 241.3 14.4 241.3 14.9 C 241.3 16.2 241.2 17.6 240.8 18.9 C 240.82 18.9 237.3 18.9 237.3 18.9 C 237.3 18.9 236.62 15.35 236.6 15.3 C 236.1 15.2 235.6 15.1 235 15.1 C 233.5 15.1 232.1 15.8 232.1 17.2 C 232.1 18.8 233.2 19.2 234.8 19.7 C 234.8 19.7 236.9 20.4 236.9 20.4 C 240 21.3 242.1 22.7 242.1 26 C 242.1 30.3 238.9 32.6 232.9 32.6 C 230.6 32.6 227.9 32.2 226.4 31.6 C 226.2 31.1 226.2 30.4 226.2 29.9 Z M 245.9 29.4 C 245.87 29.36 245.9 7.7 245.9 7.7 L 243.5 7.2 C 243.5 7.2 243.49 4.81 243.5 4.8 C 245.8 4.2 249.3 3.9 252.7 3.9 C 252.7 3.9 252.7 29.4 252.7 29.4 C 253.5 29.4 254.3 29.7 254.8 29.9 C 254.76 29.89 254.8 32.1 254.8 32.1 L 243.8 32.1 C 243.8 32.1 243.81 29.89 243.8 29.9 C 244.3 29.7 245 29.4 245.9 29.4 Z M 267.3 20.8 C 267.3 20.8 267.3 18.3 267.3 18.3 C 267.3 16.4 266.5 15.5 264.4 15.5 C 263.8 15.5 263.2 15.5 262.6 15.7 C 262.59 15.67 262 19.1 262 19.1 C 262 19.1 258.11 19.06 258.1 19.1 C 257.8 18 257.6 16.9 257.6 15.9 C 257.6 15.3 257.7 14.6 257.8 14.1 C 260.3 12.8 263.5 12.2 266.5 12.2 C 271.4 12.2 274.1 14.1 274.1 18 C 274.1 21.2 273.9 25.2 273.9 28.8 C 273.9 28.8 275.9 29.3 275.9 29.3 C 275.9 29.3 275.92 31.54 275.9 31.5 C 273.7 32.1 270.8 32.5 267.4 32.5 C 267.4 32.5 267.4 29.6 267.4 29.6 C 266.5 31.4 264.5 32.6 262.1 32.6 C 258.7 32.6 256.4 30.8 256.4 27.1 C 256.4 22 261.3 21.1 267.3 20.8 Z M 267.3 28 C 267.3 28 267.3 23.2 267.3 23.2 C 264.5 23.4 262.8 24.2 262.8 26.4 C 262.8 28 263.8 28.8 265.2 28.8 C 266 28.8 266.7 28.5 267.3 28 Z M 279.8 29.4 C 279.84 29.36 279.8 16.3 279.8 16.3 L 277.8 15.8 C 277.8 15.8 277.82 13.37 277.8 13.4 C 280.1 12.8 283.2 12.3 286.6 12.3 C 286.6 12.3 286.6 15.4 286.6 15.4 C 288 13.2 290.5 12.2 293.3 12.2 C 297.3 12.2 299.5 14.6 299.5 18.1 C 299.5 18.1 299.5 29.4 299.5 29.4 C 300.4 29.4 301.1 29.7 301.5 29.9 C 301.53 29.89 301.5 32.1 301.5 32.1 L 290.6 32.1 C 290.6 32.1 290.62 29.89 290.6 29.9 C 291.1 29.7 291.8 29.4 292.7 29.4 C 292.7 29.4 292.7 19.5 292.7 19.5 C 292.7 17.9 291.8 17 290.1 17 C 288.8 17 287.7 17.3 286.6 18.4 C 286.6 18.4 286.6 29.4 286.6 29.4 C 287.5 29.4 288.3 29.7 288.7 29.9 C 288.72 29.89 288.7 32.1 288.7 32.1 L 277.8 32.1 C 277.8 32.1 277.78 29.89 277.8 29.9 C 278.2 29.7 278.9 29.4 279.8 29.4 Z M 312.7 12 C 314.4 12 315.7 12.7 316.6 13.6 C 316.63 13.61 316.6 7.7 316.6 7.7 L 314.1 7.2 C 314.1 7.2 314.13 4.81 314.1 4.8 C 316.4 4.2 320 3.9 323.4 3.9 C 323.42 3.88 323.4 28.8 323.4 28.8 L 325.4 29.3 C 325.4 29.3 325.43 31.54 325.4 31.5 C 323.2 32.1 320.2 32.5 316.8 32.5 C 316.8 32.5 316.8 29.3 316.8 29.3 C 315.7 31.4 313.7 32.6 311.2 32.6 C 306.5 32.6 303.4 29 303.4 22.9 C 303.4 16.2 307.1 12 312.7 12 Z M 316.6 27.1 C 316.6 27.1 316.6 16.1 316.6 16.1 C 316.1 16 315.7 16 315.1 16 C 312.1 16 310.5 18.7 310.5 22.3 C 310.5 26.7 312 28.3 314.2 28.3 C 315.1 28.3 315.9 27.9 316.6 27.1 Z " stroke="none" fill="#404040"/>  </g></svg>