<?xml version="1.0" standalone="no"?><!DOCTYPE svg PUBLIC "-//W3C//DTD SVG 1.1//EN" "http://www.w3.org/Graphics/SVG/1.1/DTD/svg11.dtd"><svg xmlns="http://www.w3.org/2000/svg" version="1.1" width="219.4px" height="54px" viewBox="0 0 219.4 54">  <desc>More</desc>  <defs/>  <g id="Polygon10967">    <path d="M 50.2 25.9 C 50.1 24.6 50.1 23 50.1 21.4 C 50.1 21.4 50 21.4 50 21.4 C 49.7 22.8 49.2 24.4 48.8 25.6 C 48.83 25.62 47.5 29.8 47.5 29.8 L 45.6 29.8 C 45.6 29.8 44.46 25.66 44.5 25.7 C 44.1 24.4 43.8 22.8 43.5 21.4 C 43.5 21.4 43.5 21.4 43.5 21.4 C 43.4 22.9 43.3 24.6 43.3 25.9 C 43.28 25.9 43.1 30 43.1 30 L 40.8 30 L 41.5 19.2 L 44.8 19.2 C 44.8 19.2 45.81 22.82 45.8 22.8 C 46.2 24.1 46.5 25.4 46.7 26.7 C 46.7 26.7 46.8 26.7 46.8 26.7 C 47.1 25.4 47.4 24 47.8 22.8 C 47.81 22.8 48.9 19.2 48.9 19.2 L 52.1 19.2 L 52.7 30 L 50.4 30 C 50.4 30 50.18 25.87 50.2 25.9 Z M 62.3 26 C 62.3 28.9 60.3 30.2 58.2 30.2 C 55.9 30.2 54.1 28.7 54.1 26.1 C 54.1 23.6 55.8 22 58.3 22 C 60.7 22 62.3 23.6 62.3 26 Z M 56.6 26.1 C 56.6 27.4 57.2 28.4 58.2 28.4 C 59.2 28.4 59.8 27.5 59.8 26.1 C 59.8 24.9 59.3 23.7 58.2 23.7 C 57.1 23.7 56.6 24.9 56.6 26.1 Z M 63.8 24.8 C 63.8 23.6 63.8 22.8 63.7 22.2 C 63.73 22.18 65.8 22.2 65.8 22.2 L 65.9 23.6 C 65.9 23.6 65.97 23.62 66 23.6 C 66.4 22.5 67.3 22 68.1 22 C 68.3 22 68.4 22 68.6 22 C 68.6 22 68.6 24.3 68.6 24.3 C 68.4 24.3 68.2 24.3 67.9 24.3 C 67 24.3 66.4 24.7 66.3 25.5 C 66.2 25.6 66.2 25.8 66.2 26 C 66.22 26.03 66.2 30 66.2 30 L 63.8 30 C 63.8 30 63.79 24.75 63.8 24.8 Z M 71.6 26.9 C 71.7 27.9 72.7 28.4 73.8 28.4 C 74.7 28.4 75.3 28.2 76 28 C 76 28 76.3 29.7 76.3 29.7 C 75.5 30 74.5 30.2 73.5 30.2 C 70.8 30.2 69.3 28.6 69.3 26.2 C 69.3 24.2 70.5 22 73.2 22 C 75.8 22 76.7 24 76.7 25.9 C 76.7 26.3 76.7 26.7 76.7 26.9 C 76.7 26.9 71.6 26.9 71.6 26.9 Z M 74.5 25.2 C 74.5 24.6 74.2 23.6 73.1 23.6 C 72.1 23.6 71.7 24.6 71.6 25.2 C 71.6 25.2 74.5 25.2 74.5 25.2 Z M 78.2 28.7 C 78.2 27.8 78.8 27.2 79.6 27.2 C 80.5 27.2 81 27.8 81.1 28.7 C 81.1 29.6 80.5 30.2 79.6 30.2 C 78.8 30.2 78.2 29.6 78.2 28.7 Z M 83.5 28.7 C 83.5 27.8 84.1 27.2 85 27.2 C 85.8 27.2 86.4 27.8 86.4 28.7 C 86.4 29.6 85.8 30.2 84.9 30.2 C 84.1 30.2 83.5 29.6 83.5 28.7 Z M 88.9 28.7 C 88.9 27.8 89.5 27.2 90.3 27.2 C 91.2 27.2 91.7 27.8 91.7 28.7 C 91.7 29.6 91.2 30.2 90.3 30.2 C 89.5 30.2 88.9 29.6 88.9 28.7 Z " stroke="none" fill="#fff"/>  </g></svg>