<?xml version="1.0" standalone="no"?><!DOCTYPE svg PUBLIC "-//W3C//DTD SVG 1.1//EN" "http://www.w3.org/Graphics/SVG/1.1/DTD/svg11.dtd"><svg xmlns="http://www.w3.org/2000/svg" version="1.1" width="195.5px" height="54px" viewBox="0 0 195.5 54"><desc>More</desc><defs/><g id="Polygon11170"><path d="m50.2 25.9c-.1-1.3-.1-2.9-.1-4.5c0 0-.1 0-.1 0c-.3 1.4-.8 3-1.2 4.2c.03.02-1.3 4.2-1.3 4.2l-1.9 0c0 0-1.14-4.14-1.1-4.1c-.4-1.3-.7-2.9-1-4.3c0 0 0 0 0 0c-.1 1.5-.2 3.2-.2 4.5c-.02 0-.2 4.1-.2 4.1l-2.3 0l.7-10.8l3.3 0c0 0 1.01 3.62 1 3.6c.4 1.3.7 2.6.9 3.9c0 0 .1 0 .1 0c.3-1.3.6-2.7 1-3.9c.01 0 1.1-3.6 1.1-3.6l3.2 0l.6 10.8l-2.3 0c0 0-.22-4.13-.2-4.1zm12.1.1c0 2.9-2 4.2-4.1 4.2c-2.3 0-4.1-1.5-4.1-4.1c0-2.5 1.7-4.1 4.2-4.1c2.4 0 4 1.6 4 4zm-5.7.1c0 1.3.6 2.3 1.6 2.3c1 0 1.6-.9 1.6-2.3c0-1.2-.5-2.4-1.6-2.4c-1.1 0-1.6 1.2-1.6 2.4zm7.2-1.3c0-1.2 0-2-.1-2.6c.03-.02 2.1 0 2.1 0l.1 1.4c0 0 .07.02.1 0c.4-1.1 1.3-1.6 2.1-1.6c.2 0 .3 0 .5 0c0 0 0 2.3 0 2.3c-.2 0-.4 0-.7 0c-.9 0-1.5.4-1.6 1.2c-.1.1-.1.3-.1.5c.02.03 0 4 0 4l-2.4 0c0 0-.01-5.25 0-5.2zm7.8 2.1c.1 1 1.1 1.5 2.2 1.5c.9 0 1.5-.2 2.2-.4c0 0 .3 1.7.3 1.7c-.8.3-1.8.5-2.8.5c-2.7 0-4.2-1.6-4.2-4c0-2 1.2-4.2 3.9-4.2c2.6 0 3.5 2 3.5 3.9c0 .4 0 .8 0 1c0 0-5.1 0-5.1 0zm2.9-1.7c0-.6-.3-1.6-1.4-1.6c-1 0-1.4 1-1.5 1.6c0 0 2.9 0 2.9 0zm3.7 3.5c0-.9.6-1.5 1.4-1.5c.9 0 1.4.6 1.5 1.5c0 .9-.6 1.5-1.5 1.5c-.8 0-1.4-.6-1.4-1.5zm5.3 0c0-.9.6-1.5 1.5-1.5c.8 0 1.4.6 1.4 1.5c0 .9-.6 1.5-1.5 1.5c-.8 0-1.4-.6-1.4-1.5zm5.4 0c0-.9.6-1.5 1.4-1.5c.9 0 1.4.6 1.4 1.5c0 .9-.5 1.5-1.4 1.5c-.8 0-1.4-.6-1.4-1.5z" stroke="none" fill="#fff"/></g></svg>