<?xml version="1.0" standalone="no"?><!DOCTYPE svg PUBLIC "-//W3C//DTD SVG 1.1//EN" "http://www.w3.org/Graphics/SVG/1.1/DTD/svg11.dtd"><svg xmlns="http://www.w3.org/2000/svg" version="1.1" width="70px" height="28.8px" viewBox="0 0 70 28.8">  <desc>Tap to plan your visit</desc>  <defs/>  <g id="Polygon9973">    <path d="M 15 14.1 C 15 14.1 16.13 17.22 16.1 17.2 C 16.3 17.6 16.4 18 16.5 18.3 C 16.5 18.3 16.5 18.3 16.5 18.3 C 16.6 18 16.7 17.6 16.9 17.2 C 16.85 17.2 17.9 14.1 17.9 14.1 L 19 14.1 C 19 14.1 17.49 17.88 17.5 17.9 C 16.8 19.7 16.3 20.7 15.6 21.2 C 15.2 21.7 14.7 21.8 14.4 21.9 C 14.4 21.9 14.2 21.1 14.2 21.1 C 14.4 21 14.8 20.8 15.1 20.6 C 15.3 20.4 15.6 20 15.9 19.5 C 15.9 19.4 16 19.3 16 19.3 C 16 19.2 15.9 19.1 15.9 19 C 15.88 19 13.9 14.1 13.9 14.1 L 15 14.1 Z M 24.6 16.7 C 24.6 18.7 23.2 19.5 21.9 19.5 C 20.5 19.5 19.3 18.5 19.3 16.8 C 19.3 15 20.5 13.9 22 13.9 C 23.5 13.9 24.6 15.1 24.6 16.7 Z M 20.3 16.7 C 20.3 17.9 21 18.8 22 18.8 C 22.9 18.8 23.6 17.9 23.6 16.7 C 23.6 15.8 23.1 14.7 22 14.7 C 20.8 14.7 20.3 15.7 20.3 16.7 Z M 30.3 17.9 C 30.3 18.5 30.3 19 30.4 19.4 C 30.36 19.42 29.5 19.4 29.5 19.4 L 29.4 18.5 C 29.4 18.5 29.42 18.55 29.4 18.5 C 29.2 19 28.6 19.5 27.6 19.5 C 26.8 19.5 25.8 19.1 25.8 17.2 C 25.79 17.19 25.8 14.1 25.8 14.1 L 26.8 14.1 C 26.8 14.1 26.76 17.01 26.8 17 C 26.8 18 27.1 18.7 28 18.7 C 28.6 18.7 29.1 18.3 29.3 17.8 C 29.3 17.7 29.3 17.5 29.3 17.3 C 29.34 17.34 29.3 14.1 29.3 14.1 L 30.3 14.1 C 30.3 14.1 30.31 17.94 30.3 17.9 Z M 31.9 15.7 C 31.9 15.1 31.9 14.5 31.9 14.1 C 31.89 14.05 32.7 14.1 32.7 14.1 L 32.8 15.1 C 32.8 15.1 32.82 15.11 32.8 15.1 C 33.1 14.4 33.7 13.9 34.3 13.9 C 34.4 13.9 34.5 14 34.6 14 C 34.6 14 34.6 14.9 34.6 14.9 C 34.5 14.9 34.4 14.9 34.3 14.9 C 33.6 14.9 33.1 15.4 32.9 16.1 C 32.9 16.2 32.9 16.4 32.9 16.6 C 32.91 16.56 32.9 19.4 32.9 19.4 L 31.9 19.4 C 31.9 19.4 31.94 15.73 31.9 15.7 Z M 38.3 14.1 C 38.3 14.1 39.35 17.06 39.3 17.1 C 39.5 17.6 39.7 18 39.8 18.4 C 39.8 18.4 39.8 18.4 39.8 18.4 C 39.9 18 40.1 17.6 40.3 17.1 C 40.27 17.06 41.3 14.1 41.3 14.1 L 42.3 14.1 L 40.2 19.4 L 39.3 19.4 L 37.3 14.1 L 38.3 14.1 Z M 43.3 19.4 L 43.3 14.1 L 44.2 14.1 L 44.2 19.4 L 43.3 19.4 Z M 44.3 12.6 C 44.3 12.9 44.1 13.2 43.7 13.2 C 43.4 13.2 43.1 12.9 43.1 12.6 C 43.1 12.2 43.4 11.9 43.7 11.9 C 44.1 11.9 44.3 12.2 44.3 12.6 Z M 45.7 18.4 C 46 18.6 46.5 18.8 47 18.8 C 47.7 18.8 48 18.5 48 18 C 48 17.5 47.8 17.3 47.1 17 C 46.1 16.7 45.6 16.2 45.6 15.5 C 45.6 14.6 46.3 13.9 47.5 13.9 C 48 13.9 48.5 14.1 48.8 14.3 C 48.8 14.3 48.6 15 48.6 15 C 48.3 14.8 48 14.7 47.5 14.7 C 46.9 14.7 46.6 15 46.6 15.4 C 46.6 15.8 46.9 16 47.6 16.3 C 48.5 16.7 49 17.1 49 17.9 C 49 18.9 48.2 19.5 47 19.5 C 46.4 19.5 45.9 19.4 45.5 19.2 C 45.5 19.2 45.7 18.4 45.7 18.4 Z M 50.2 19.4 L 50.2 14.1 L 51.2 14.1 L 51.2 19.4 L 50.2 19.4 Z M 51.3 12.6 C 51.3 12.9 51.1 13.2 50.7 13.2 C 50.4 13.2 50.1 12.9 50.1 12.6 C 50.1 12.2 50.4 11.9 50.7 11.9 C 51.1 11.9 51.3 12.2 51.3 12.6 Z M 54 12.8 L 54 14.1 L 55.4 14.1 L 55.4 14.8 L 54 14.8 C 54 14.8 54.02 17.69 54 17.7 C 54 18.4 54.2 18.7 54.8 18.7 C 55 18.7 55.2 18.7 55.3 18.7 C 55.3 18.7 55.4 19.4 55.4 19.4 C 55.2 19.5 54.9 19.5 54.5 19.5 C 54 19.5 53.7 19.4 53.4 19.1 C 53.2 18.8 53.1 18.4 53.1 17.7 C 53.07 17.73 53.1 14.8 53.1 14.8 L 52.2 14.8 L 52.2 14.1 L 53.1 14.1 L 53.1 13.1 L 54 12.8 Z " stroke="none" fill="#fff"/>  </g>  <g id="Polygon9972">    <path d="M 11.4 1.7 L 9.1 1.7 L 9.1 0.8 L 14.6 0.8 L 14.6 1.7 L 12.3 1.7 L 12.3 8.3 L 11.4 8.3 L 11.4 1.7 Z M 18.5 7 C 18.5 7.5 18.5 8 18.6 8.3 C 18.56 8.32 17.7 8.3 17.7 8.3 L 17.6 7.6 C 17.6 7.6 17.58 7.65 17.6 7.6 C 17.3 8.1 16.7 8.4 15.9 8.4 C 14.8 8.4 14.3 7.7 14.3 6.9 C 14.3 5.6 15.4 4.9 17.5 4.9 C 17.5 4.9 17.5 4.8 17.5 4.8 C 17.5 4.4 17.4 3.6 16.3 3.6 C 15.8 3.6 15.3 3.7 14.9 4 C 14.9 4 14.7 3.3 14.7 3.3 C 15.1 3 15.8 2.8 16.4 2.8 C 18.1 2.8 18.5 4 18.5 5 C 18.5 5 18.5 7 18.5 7 Z M 17.5 5.6 C 16.5 5.6 15.3 5.7 15.3 6.8 C 15.3 7.4 15.7 7.7 16.2 7.7 C 16.9 7.7 17.3 7.3 17.5 6.8 C 17.5 6.7 17.5 6.6 17.5 6.5 C 17.5 6.5 17.5 5.6 17.5 5.6 Z M 20.1 4.7 C 20.1 4 20 3.5 20 3 C 20.02 2.95 20.9 3 20.9 3 L 20.9 3.9 C 20.9 3.9 20.96 3.87 21 3.9 C 21.3 3.2 22 2.8 22.9 2.8 C 24.2 2.8 25.2 3.9 25.2 5.6 C 25.2 7.5 24 8.4 22.7 8.4 C 22 8.4 21.4 8.1 21 7.6 C 21.05 7.6 21 7.6 21 7.6 L 21 10.5 L 20.1 10.5 C 20.1 10.5 20.06 4.71 20.1 4.7 Z M 21 6.1 C 21 6.3 21 6.4 21.1 6.5 C 21.2 7.2 21.8 7.7 22.5 7.7 C 23.6 7.7 24.2 6.8 24.2 5.6 C 24.2 4.5 23.6 3.6 22.6 3.6 C 21.9 3.6 21.3 4.1 21.1 4.8 C 21.1 4.9 21 5.1 21 5.2 C 21 5.2 21 6.1 21 6.1 Z M 29.9 1.7 L 29.9 3 L 31.3 3 L 31.3 3.7 L 29.9 3.7 C 29.9 3.7 29.9 6.59 29.9 6.6 C 29.9 7.3 30.1 7.6 30.6 7.6 C 30.9 7.6 31.1 7.6 31.2 7.6 C 31.2 7.6 31.2 8.3 31.2 8.3 C 31.1 8.4 30.8 8.4 30.4 8.4 C 29.9 8.4 29.6 8.3 29.3 8 C 29.1 7.7 29 7.3 29 6.6 C 28.95 6.63 29 3.7 29 3.7 L 28.1 3.7 L 28.1 3 L 29 3 L 29 2 L 29.9 1.7 Z M 37.2 5.6 C 37.2 7.6 35.8 8.4 34.5 8.4 C 33.1 8.4 31.9 7.4 31.9 5.7 C 31.9 3.9 33.1 2.8 34.6 2.8 C 36.2 2.8 37.2 4 37.2 5.6 Z M 32.9 5.6 C 32.9 6.8 33.6 7.7 34.6 7.7 C 35.5 7.7 36.2 6.8 36.2 5.6 C 36.2 4.7 35.7 3.6 34.6 3.6 C 33.4 3.6 32.9 4.6 32.9 5.6 Z M 40.8 4.7 C 40.8 4 40.8 3.5 40.7 3 C 40.74 2.95 41.6 3 41.6 3 L 41.7 3.9 C 41.7 3.9 41.68 3.87 41.7 3.9 C 42.1 3.2 42.7 2.8 43.6 2.8 C 44.9 2.8 45.9 3.9 45.9 5.6 C 45.9 7.5 44.7 8.4 43.4 8.4 C 42.7 8.4 42.1 8.1 41.8 7.6 C 41.77 7.6 41.7 7.6 41.7 7.6 L 41.7 10.5 L 40.8 10.5 C 40.8 10.5 40.78 4.71 40.8 4.7 Z M 41.7 6.1 C 41.7 6.3 41.8 6.4 41.8 6.5 C 42 7.2 42.6 7.7 43.3 7.7 C 44.3 7.7 44.9 6.8 44.9 5.6 C 44.9 4.5 44.3 3.6 43.3 3.6 C 42.6 3.6 42 4.1 41.8 4.8 C 41.8 4.9 41.7 5.1 41.7 5.2 C 41.7 5.2 41.7 6.1 41.7 6.1 Z M 47.1 0.4 L 48.1 0.4 L 48.1 8.3 L 47.1 8.3 L 47.1 0.4 Z M 53.5 7 C 53.5 7.5 53.5 8 53.6 8.3 C 53.56 8.32 52.7 8.3 52.7 8.3 L 52.6 7.6 C 52.6 7.6 52.58 7.65 52.6 7.6 C 52.3 8.1 51.7 8.4 50.9 8.4 C 49.8 8.4 49.3 7.7 49.3 6.9 C 49.3 5.6 50.4 4.9 52.5 4.9 C 52.5 4.9 52.5 4.8 52.5 4.8 C 52.5 4.4 52.4 3.6 51.3 3.6 C 50.8 3.6 50.3 3.7 49.9 4 C 49.9 4 49.7 3.3 49.7 3.3 C 50.1 3 50.8 2.8 51.4 2.8 C 53.1 2.8 53.5 4 53.5 5 C 53.5 5 53.5 7 53.5 7 Z M 52.5 5.6 C 51.5 5.6 50.3 5.7 50.3 6.8 C 50.3 7.4 50.7 7.7 51.2 7.7 C 51.9 7.7 52.3 7.3 52.5 6.8 C 52.5 6.7 52.5 6.6 52.5 6.5 C 52.5 6.5 52.5 5.6 52.5 5.6 Z M 55.1 4.4 C 55.1 3.8 55.1 3.4 55 3 C 55.02 2.95 55.9 3 55.9 3 L 55.9 3.8 C 55.9 3.8 55.96 3.84 56 3.8 C 56.2 3.3 56.8 2.8 57.7 2.8 C 58.5 2.8 59.6 3.3 59.6 5.1 C 59.63 5.13 59.6 8.3 59.6 8.3 L 58.7 8.3 C 58.7 8.3 58.66 5.23 58.7 5.2 C 58.7 4.4 58.3 3.6 57.4 3.6 C 56.8 3.6 56.3 4.1 56.1 4.6 C 56.1 4.8 56 4.9 56 5.1 C 56.04 5.09 56 8.3 56 8.3 L 55.1 8.3 C 55.1 8.3 55.06 4.41 55.1 4.4 Z " stroke="none" fill="#fff"/>  </g></svg>