<?xml version="1.0" standalone="no"?><!DOCTYPE svg PUBLIC "-//W3C//DTD SVG 1.1//EN" "http://www.w3.org/Graphics/SVG/1.1/DTD/svg11.dtd"><svg xmlns="http://www.w3.org/2000/svg" version="1.1" width="125px" height="46px" viewBox="0 0 125 46"><desc>Home</desc><defs/><g id="Polygon10994"><path d="m36 15.2l0 4.2l4 0l0-4.2l2.4 0l0 10.8l-2.4 0l0-4.5l-4 0l0 4.5l-2.5 0l0-10.8l2.5 0zm16.2 6.8c0 2.9-2.1 4.2-4.2 4.2c-2.3 0-4-1.5-4-4.1c0-2.5 1.6-4.1 4.2-4.1c2.4 0 4 1.6 4 4zm-5.7.1c0 1.3.6 2.3 1.6 2.3c1 0 1.5-.9 1.5-2.3c0-1.2-.4-2.4-1.5-2.4c-1.2 0-1.6 1.2-1.6 2.4zm7.2-1.4c0-1-.1-1.8-.1-2.5c0-.02 2.1 0 2.1 0l.1 1c0 0 0 .03 0 0c.3-.5 1-1.2 2.4-1.2c1 0 1.8.5 2.1 1.3c0 0 0 0 0 0c.4-.4.7-.7 1.1-.9c.4-.3.9-.4 1.5-.4c1.5 0 2.6 1 2.6 3.4c0-.01 0 4.6 0 4.6l-2.4 0c0 0 .03-4.26 0-4.3c0-1.1-.3-1.7-1.1-1.7c-.6 0-1 .3-1.2.8c0 .2 0 .4 0 .6c-.04.02 0 4.6 0 4.6l-2.4 0c0 0 0-4.4 0-4.4c0-1-.4-1.6-1.1-1.6c-.7 0-1 .4-1.2.8c-.1.2-.1.4-.1.6c.03.04 0 4.6 0 4.6l-2.3 0c0 0-.04-5.33 0-5.3zm15.6 2.2c.1 1 1.1 1.5 2.2 1.5c.8 0 1.5-.2 2.2-.4c0 0 .3 1.7.3 1.7c-.8.3-1.8.5-2.9.5c-2.6 0-4.1-1.6-4.1-4c0-2 1.2-4.2 3.9-4.2c2.6 0 3.5 2 3.5 3.9c0 .4 0 .8-.1 1c0 0-5 0-5 0zm2.9-1.7c0-.6-.3-1.6-1.4-1.6c-1 0-1.5 1-1.5 1.6c0 0 2.9 0 2.9 0z" stroke="none" fill="#fff"/></g></svg>