<?xml version="1.0" standalone="no"?><!DOCTYPE svg PUBLIC "-//W3C//DTD SVG 1.1//EN" "http://www.w3.org/Graphics/SVG/1.1/DTD/svg11.dtd"><svg xmlns="http://www.w3.org/2000/svg" version="1.1" width="72.3px" height="21.3px" viewBox="0 0 72.3 21.3"><desc>2 of 2</desc><defs/><g id="Polygon14596"><path d="m42.4 10l0-.7c0 0 .93-.92.9-.9c2.2-2.1 3.3-3.2 3.3-4.5c0-.9-.5-1.7-1.7-1.7c-.8 0-1.5.4-1.9.7c0 0-.4-.8-.4-.8c.6-.5 1.5-.9 2.5-.9c1.8 0 2.6 1.3 2.6 2.5c0 1.6-1.1 2.9-3 4.7c.05-.04-.6.6-.6.6l0 0l3.8 0l0 1l-5.5 0zm15.9-3.3c0 2.4-1.7 3.4-3.2 3.4c-1.8 0-3.1-1.2-3.1-3.3c0-2.1 1.4-3.4 3.2-3.4c1.8 0 3.1 1.4 3.1 3.3zm-5.1.1c0 1.4.8 2.5 1.9 2.5c1.1 0 2-1.1 2-2.5c0-1.1-.6-2.5-1.9-2.5c-1.4 0-2 1.3-2 2.5zm6.7 3.2l0-5.6l-.9 0l0-.9l.9 0c0 0-.02-.26 0-.3c0-.9.2-1.7.7-2.2c.5-.4 1.1-.6 1.6-.6c.4 0 .8.1 1 .2c0 0-.2.9-.2.9c-.1-.1-.4-.2-.7-.2c-1 0-1.3.9-1.3 1.9c.04 0 0 .3 0 .3l1.6 0l0 .9l-1.6 0l0 5.6l-1.1 0zm6.2 0l0-.7c0 0 .92-.92.9-.9c2.2-2.1 3.2-3.2 3.2-4.5c0-.9-.4-1.7-1.7-1.7c-.7 0-1.4.4-1.8.7c0 0-.4-.8-.4-.8c.6-.5 1.5-.9 2.5-.9c1.8 0 2.6 1.3 2.6 2.5c0 1.6-1.1 2.9-3 4.7c.04-.04-.6.6-.6.6l0 0l3.8 0l0 1l-5.5 0z" stroke="none" fill="#fff"/></g></svg>