<?xml version="1.0" standalone="no"?><!DOCTYPE svg PUBLIC "-//W3C//DTD SVG 1.1//EN" "http://www.w3.org/Graphics/SVG/1.1/DTD/svg11.dtd"><svg xmlns="http://www.w3.org/2000/svg" version="1.1" width="360px" height="54px" viewBox="0 0 360 54">  <desc>About</desc>  <defs/>  <g id="Polygon11075">    <path d="M 103.6 27.2 L 102.8 30 L 100.3 30 L 103.6 19.2 L 106.8 19.2 L 110.1 30 L 107.5 30 L 106.7 27.2 L 103.6 27.2 Z M 106.3 25.4 C 106.3 25.4 105.63 23.12 105.6 23.1 C 105.4 22.5 105.2 21.7 105.1 21 C 105.1 21 105.1 21 105.1 21 C 104.9 21.7 104.7 22.5 104.6 23.1 C 104.56 23.12 103.9 25.4 103.9 25.4 L 106.3 25.4 Z M 111.4 18.6 L 113.8 18.6 L 113.8 23.1 C 113.8 23.1 113.84 23.1 113.8 23.1 C 114.3 22.4 115.1 22 116.2 22 C 118.1 22 119.4 23.6 119.4 26 C 119.4 28.8 117.6 30.2 115.9 30.2 C 114.9 30.2 114 29.8 113.5 28.9 C 113.5 28.91 113.5 28.9 113.5 28.9 L 113.4 30 C 113.4 30 111.31 30 111.3 30 C 111.3 29.5 111.4 28.5 111.4 27.7 C 111.38 27.66 111.4 18.6 111.4 18.6 Z M 113.8 26.7 C 113.8 26.8 113.8 27 113.9 27.1 C 114 27.7 114.6 28.3 115.3 28.3 C 116.3 28.3 117 27.5 117 26 C 117 24.8 116.4 23.9 115.3 23.9 C 114.6 23.9 114 24.4 113.9 25.1 C 113.8 25.2 113.8 25.4 113.8 25.5 C 113.8 25.5 113.8 26.7 113.8 26.7 Z M 128.7 26 C 128.7 28.9 126.7 30.2 124.6 30.2 C 122.3 30.2 120.5 28.7 120.5 26.1 C 120.5 23.6 122.2 22 124.7 22 C 127.1 22 128.7 23.6 128.7 26 Z M 123.1 26.1 C 123.1 27.4 123.6 28.4 124.7 28.4 C 125.6 28.4 126.2 27.5 126.2 26.1 C 126.2 24.9 125.8 23.7 124.7 23.7 C 123.5 23.7 123.1 24.9 123.1 26.1 Z M 137.6 27.5 C 137.6 28.5 137.6 29.3 137.7 30 C 137.66 30 135.6 30 135.6 30 L 135.4 28.9 C 135.4 28.9 135.39 28.9 135.4 28.9 C 135.1 29.4 134.4 30.2 132.9 30.2 C 131.3 30.2 130.2 29.2 130.2 26.8 C 130.19 26.77 130.2 22.2 130.2 22.2 L 132.6 22.2 C 132.6 22.2 132.62 26.38 132.6 26.4 C 132.6 27.5 133 28.2 133.9 28.2 C 134.5 28.2 134.9 27.7 135.1 27.4 C 135.1 27.2 135.2 27 135.2 26.8 C 135.17 26.83 135.2 22.2 135.2 22.2 L 137.6 22.2 C 137.6 22.2 137.6 27.49 137.6 27.5 Z M 142.3 20.1 L 142.3 22.2 L 144 22.2 L 144 24 L 142.3 24 C 142.3 24 142.27 26.8 142.3 26.8 C 142.3 27.7 142.5 28.2 143.2 28.2 C 143.6 28.2 143.7 28.2 144 28.1 C 144 28.1 144 30 144 30 C 143.7 30.1 143.1 30.2 142.4 30.2 C 141.6 30.2 141 29.9 140.6 29.5 C 140.1 29 139.9 28.3 139.9 27.2 C 139.89 27.17 139.9 24 139.9 24 L 138.8 24 L 138.8 22.2 L 139.9 22.2 L 139.9 20.7 L 142.3 20.1 Z " stroke="none" fill="#fff"/>  </g></svg>