<?xml version="1.0" standalone="no"?><!DOCTYPE svg PUBLIC "-//W3C//DTD SVG 1.1//EN" "http://www.w3.org/Graphics/SVG/1.1/DTD/svg11.dtd"><svg xmlns="http://www.w3.org/2000/svg" version="1.1" width="259px" height="41.8px" viewBox="0 0 259 41.8">  <desc>Santa Barbara Island 639 acres</desc>  <defs/>  <g id="Polygon12712">    <path d="M 2.5 29 C 2.4 29 2.3 29 2.2 29 C 1.4 29 1.1 29.4 1 29.8 C 1 29.8 1 29.8 1 29.8 C 1.2 29.6 1.5 29.5 1.8 29.5 C 2.4 29.5 2.9 30 2.9 30.7 C 2.9 31.4 2.4 32 1.6 32 C 0.6 32 0.2 31.3 0.2 30.4 C 0.2 29.8 0.4 29.2 0.8 28.8 C 1.2 28.5 1.6 28.3 2.2 28.3 C 2.3 28.3 2.4 28.3 2.5 28.3 C 2.5 28.3 2.5 29 2.5 29 Z M 2.1 30.8 C 2.1 30.4 1.9 30.1 1.5 30.1 C 1.3 30.1 1.1 30.3 1 30.4 C 1 30.5 1 30.6 1 30.7 C 1 31 1.2 31.4 1.6 31.4 C 1.9 31.4 2.1 31.1 2.1 30.8 Z M 3.4 31.1 C 3.6 31.2 3.9 31.3 4.3 31.3 C 4.7 31.3 4.9 31.1 4.9 30.9 C 4.9 30.5 4.6 30.4 4.2 30.4 C 4.2 30.35 3.9 30.4 3.9 30.4 L 3.9 29.8 C 3.9 29.8 4.19 29.75 4.2 29.8 C 4.5 29.8 4.8 29.6 4.8 29.3 C 4.8 29.1 4.6 29 4.3 29 C 4 29 3.7 29.1 3.5 29.2 C 3.5 29.2 3.4 28.6 3.4 28.6 C 3.6 28.4 4 28.3 4.5 28.3 C 5.2 28.3 5.7 28.7 5.7 29.2 C 5.7 29.6 5.5 29.9 5 30 C 5 30 5 30 5 30 C 5.4 30.1 5.8 30.4 5.8 30.9 C 5.8 31.5 5.2 32 4.3 32 C 3.9 32 3.5 31.9 3.3 31.8 C 3.3 31.8 3.4 31.1 3.4 31.1 Z M 6.6 31.3 C 6.7 31.4 6.8 31.3 7 31.3 C 7.2 31.3 7.5 31.3 7.7 31.1 C 7.9 31 8.1 30.7 8.1 30.5 C 8.1 30.5 8.1 30.4 8.1 30.4 C 7.9 30.6 7.7 30.7 7.4 30.7 C 6.8 30.7 6.3 30.3 6.3 29.6 C 6.3 28.9 6.8 28.3 7.6 28.3 C 8.5 28.3 9 29 9 29.8 C 9 30.6 8.7 31.1 8.3 31.5 C 8 31.8 7.5 32 7 32 C 6.8 32 6.7 32 6.6 32 C 6.6 32 6.6 31.3 6.6 31.3 Z M 7.1 29.5 C 7.1 29.9 7.3 30.1 7.6 30.1 C 7.8 30.1 8 30 8.1 29.9 C 8.1 29.8 8.1 29.8 8.1 29.7 C 8.1 29.3 8 28.9 7.6 28.9 C 7.3 28.9 7.1 29.2 7.1 29.5 Z M 12.8 31.3 C 12.8 31.5 12.9 31.8 12.9 31.9 C 12.89 31.94 12.1 31.9 12.1 31.9 L 12.1 31.7 C 12.1 31.7 12.07 31.67 12.1 31.7 C 11.9 31.9 11.6 32 11.3 32 C 10.8 32 10.4 31.6 10.4 31.2 C 10.4 30.5 11.1 30.1 12 30.1 C 12 30.1 12 30.1 12 30.1 C 12 30 11.9 29.8 11.5 29.8 C 11.2 29.8 11 29.9 10.8 30 C 10.8 30 10.6 29.4 10.6 29.4 C 10.8 29.3 11.2 29.2 11.7 29.2 C 12.6 29.2 12.8 29.7 12.8 30.4 C 12.8 30.4 12.8 31.3 12.8 31.3 Z M 12 30.7 C 11.6 30.7 11.3 30.8 11.3 31.1 C 11.3 31.3 11.4 31.4 11.6 31.4 C 11.8 31.4 12 31.3 12 31.1 C 12 31.1 12 31 12 31 C 12 31 12 30.7 12 30.7 Z M 15.5 31.9 C 15.4 31.9 15.1 32 14.8 32 C 13.9 32 13.4 31.5 13.4 30.6 C 13.4 29.8 13.9 29.2 14.9 29.2 C 15.1 29.2 15.4 29.2 15.5 29.3 C 15.5 29.3 15.4 29.9 15.4 29.9 C 15.3 29.9 15.2 29.8 14.9 29.8 C 14.5 29.8 14.2 30.1 14.2 30.6 C 14.2 31.1 14.5 31.3 14.9 31.3 C 15.1 31.3 15.3 31.3 15.4 31.3 C 15.4 31.3 15.5 31.9 15.5 31.9 Z M 16 30.1 C 16 29.7 16 29.5 16 29.3 C 15.97 29.25 16.7 29.3 16.7 29.3 L 16.7 29.7 C 16.7 29.7 16.74 29.75 16.7 29.7 C 16.9 29.3 17.2 29.2 17.5 29.2 C 17.5 29.2 17.6 29.2 17.6 29.2 C 17.6 29.2 17.6 30 17.6 30 C 17.6 30 17.5 30 17.4 30 C 17.1 30 16.9 30.1 16.8 30.4 C 16.8 30.4 16.8 30.5 16.8 30.6 C 16.82 30.58 16.8 31.9 16.8 31.9 L 16 31.9 C 16 31.9 15.99 30.14 16 30.1 Z M 18.7 30.9 C 18.7 31.2 19 31.4 19.4 31.4 C 19.7 31.4 20 31.3 20.2 31.3 C 20.2 31.3 20.3 31.8 20.3 31.8 C 20 31.9 19.7 32 19.3 32 C 18.4 32 17.9 31.5 17.9 30.6 C 17.9 29.9 18.3 29.2 19.2 29.2 C 20.1 29.2 20.4 29.9 20.4 30.5 C 20.4 30.7 20.4 30.8 20.4 30.9 C 20.4 30.9 18.7 30.9 18.7 30.9 Z M 19.7 30.3 C 19.7 30.1 19.6 29.7 19.2 29.7 C 18.8 29.7 18.7 30.1 18.7 30.3 C 18.7 30.3 19.7 30.3 19.7 30.3 Z M 20.9 31.2 C 21.1 31.3 21.4 31.4 21.7 31.4 C 21.9 31.4 22 31.3 22 31.2 C 22 31 21.9 31 21.6 30.9 C 21.1 30.7 20.8 30.4 20.9 30.1 C 20.9 29.6 21.3 29.2 21.9 29.2 C 22.3 29.2 22.5 29.3 22.7 29.3 C 22.7 29.3 22.6 29.9 22.6 29.9 C 22.4 29.9 22.2 29.8 22 29.8 C 21.8 29.8 21.7 29.8 21.7 30 C 21.7 30.1 21.8 30.2 22.1 30.3 C 22.6 30.5 22.8 30.7 22.8 31.1 C 22.8 31.6 22.4 32 21.7 32 C 21.3 32 21 31.9 20.8 31.8 C 20.8 31.8 20.9 31.2 20.9 31.2 Z " stroke="none" fill="#000"/>  </g>  <g id="Polygon12711">    <path d="M 0.5 9.1 C 0.51 9.06 1.8 8.8 1.8 8.8 C 1.8 8.8 2.5 10.84 2.5 10.8 C 2.8 10.9 3.1 10.9 3.4 10.9 C 4.4 10.9 5 10.5 5 9.6 C 5 8.8 4.5 8.5 3.8 8.3 C 3.8 8.3 2.8 8 2.8 8 C 1.4 7.5 0.5 6.6 0.5 5.1 C 0.5 3.1 2.4 2.2 4.5 2.2 C 5.6 2.2 6.7 2.4 7.2 2.6 C 7.3 2.8 7.3 3.2 7.3 3.5 C 7.3 4 7.3 4.7 7.2 5.1 C 7.15 5.13 5.9 5.1 5.9 5.1 C 5.9 5.1 5.49 3.43 5.5 3.4 C 5.2 3.4 4.8 3.3 4.5 3.3 C 3.7 3.3 2.9 3.7 2.9 4.6 C 2.9 5.2 3.2 5.6 4 5.8 C 4 5.8 5.2 6.2 5.2 6.2 C 6.9 6.7 7.6 7.5 7.6 9 C 7.6 11.2 5.5 12.1 3.5 12.1 C 2.3 12.1 1.3 11.8 0.7 11.5 C 0.6 10.9 0.5 9.8 0.5 9.1 Z M 12.6 7.7 C 12.6 7.7 12.6 6.8 12.6 6.8 C 12.6 6.1 12.3 5.7 11.5 5.7 C 11.3 5.7 11.1 5.8 10.8 5.8 C 10.84 5.82 10.6 7.1 10.6 7.1 C 10.6 7.1 9.18 7.08 9.2 7.1 C 9.1 6.7 9 6.3 9 5.9 C 9 5.7 9 5.4 9.1 5.2 C 10 4.8 11.2 4.5 12.3 4.5 C 14.1 4.5 15.1 5.2 15.1 6.7 C 15.1 7.9 15 9.3 15 10.7 C 15.04 10.69 15.8 10.9 15.8 10.9 C 15.8 10.9 15.79 11.71 15.8 11.7 C 15 11.9 13.9 12.1 12.6 12.1 C 12.6 12.1 12.6 11 12.6 11 C 12.3 11.7 11.5 12.1 10.6 12.1 C 9.4 12.1 8.5 11.4 8.5 10.1 C 8.5 8.2 10.4 7.8 12.6 7.7 Z M 12.6 10.4 C 12.6 10.4 12.6 8.6 12.6 8.6 C 11.5 8.7 10.9 9 10.9 9.8 C 10.9 10.4 11.3 10.7 11.8 10.7 C 12.1 10.7 12.4 10.6 12.6 10.4 Z M 17.2 10.9 C 17.25 10.9 17.2 6 17.2 6 L 16.5 5.8 C 16.5 5.8 16.5 4.96 16.5 5 C 17.4 4.7 18.5 4.6 19.8 4.6 C 19.8 4.6 19.8 5.7 19.8 5.7 C 20.3 4.9 21.2 4.5 22.3 4.5 C 23.7 4.5 24.5 5.4 24.5 6.7 C 24.5 6.7 24.5 10.9 24.5 10.9 C 24.9 10.9 25.1 11 25.3 11.1 C 25.3 11.1 25.3 11.9 25.3 11.9 L 21.3 11.9 C 21.3 11.9 21.25 11.1 21.3 11.1 C 21.4 11 21.7 10.9 22 10.9 C 22 10.9 22 7.3 22 7.3 C 22 6.6 21.7 6.3 21.1 6.3 C 20.6 6.3 20.2 6.4 19.8 6.8 C 19.8 6.8 19.8 10.9 19.8 10.9 C 20.1 10.9 20.4 11 20.5 11.1 C 20.55 11.1 20.5 11.9 20.5 11.9 L 16.5 11.9 C 16.5 11.9 16.48 11.1 16.5 11.1 C 16.6 11 16.9 10.9 17.2 10.9 Z M 26.7 4.7 C 26.7 4.7 26.8 3.5 26.8 3.5 C 27.4 3.3 28.4 3.3 29.2 3.3 C 29.22 3.27 29.2 4.7 29.2 4.7 L 30.8 4.7 L 30.8 5.9 L 29.2 5.9 C 29.2 5.9 29.11 9.55 29.1 9.6 C 29.1 10.2 29.3 10.5 29.8 10.5 C 30.2 10.5 30.4 10.3 30.7 10.1 C 30.7 10.1 31.1 10.7 31.1 10.7 C 30.8 11.4 29.9 12.1 28.7 12.1 C 27.3 12.1 26.6 11.4 26.6 10 C 26.59 10.05 26.7 5.9 26.7 5.9 L 25.9 5.9 C 25.9 5.9 25.89 4.99 25.9 5 C 26 4.9 26.3 4.8 26.7 4.7 Z M 35.7 7.7 C 35.7 7.7 35.7 6.8 35.7 6.8 C 35.7 6.1 35.4 5.7 34.7 5.7 C 34.5 5.7 34.2 5.8 34 5.8 C 33.99 5.82 33.8 7.1 33.8 7.1 C 33.8 7.1 32.32 7.08 32.3 7.1 C 32.2 6.7 32.1 6.3 32.1 5.9 C 32.1 5.7 32.2 5.4 32.2 5.2 C 33.1 4.8 34.3 4.5 35.4 4.5 C 37.3 4.5 38.2 5.2 38.2 6.7 C 38.2 7.9 38.2 9.3 38.2 10.7 C 38.19 10.69 38.9 10.9 38.9 10.9 C 38.9 10.9 38.94 11.71 38.9 11.7 C 38.1 11.9 37 12.1 35.8 12.1 C 35.8 12.1 35.8 11 35.8 11 C 35.4 11.7 34.7 12.1 33.8 12.1 C 32.5 12.1 31.7 11.4 31.7 10.1 C 31.7 8.2 33.5 7.8 35.7 7.7 Z M 35.7 10.4 C 35.7 10.4 35.7 8.6 35.7 8.6 C 34.7 8.7 34.1 9 34.1 9.8 C 34.1 10.4 34.5 10.7 35 10.7 C 35.3 10.7 35.5 10.6 35.7 10.4 Z M 43.2 10.8 C 43.2 10.8 43.2 3.4 43.2 3.4 C 42.9 3.4 42.6 3.3 42.4 3.2 C 42.36 3.24 42.4 2.3 42.4 2.3 C 42.4 2.3 47.59 2.34 47.6 2.3 C 49.3 2.3 50.6 3.1 50.6 4.6 C 50.6 5.8 50 6.5 49.1 6.8 C 50.5 7 51.1 7.9 51.1 9 C 51.1 10.9 49.7 11.9 47.4 11.9 C 47.35 11.94 42.4 11.9 42.4 11.9 C 42.4 11.9 42.36 11.04 42.4 11 C 42.6 10.9 42.9 10.9 43.2 10.8 Z M 45.9 6.5 C 45.9 6.5 46.56 6.52 46.6 6.5 C 47.5 6.5 48 6 48 4.9 C 48 3.9 47.5 3.4 46.5 3.4 C 46.53 3.42 45.9 3.4 45.9 3.4 L 45.9 6.5 Z M 45.9 10.9 C 45.9 10.9 46.63 10.86 46.6 10.9 C 47.8 10.9 48.4 10.3 48.4 9.2 C 48.4 8.1 47.8 7.7 46.7 7.7 C 46.71 7.68 45.9 7.7 45.9 7.7 L 45.9 10.9 Z M 55.9 7.7 C 55.9 7.7 55.9 6.8 55.9 6.8 C 55.9 6.1 55.6 5.7 54.9 5.7 C 54.6 5.7 54.4 5.8 54.2 5.8 C 54.18 5.82 54 7.1 54 7.1 C 54 7.1 52.51 7.08 52.5 7.1 C 52.4 6.7 52.3 6.3 52.3 5.9 C 52.3 5.7 52.4 5.4 52.4 5.2 C 53.3 4.8 54.5 4.5 55.6 4.5 C 57.4 4.5 58.4 5.2 58.4 6.7 C 58.4 7.9 58.4 9.3 58.4 10.7 C 58.38 10.69 59.1 10.9 59.1 10.9 C 59.1 10.9 59.13 11.71 59.1 11.7 C 58.3 11.9 57.2 12.1 56 12.1 C 56 12.1 56 11 56 11 C 55.6 11.7 54.9 12.1 54 12.1 C 52.7 12.1 51.9 11.4 51.9 10.1 C 51.9 8.2 53.7 7.8 55.9 7.7 Z M 55.9 10.4 C 55.9 10.4 55.9 8.6 55.9 8.6 C 54.9 8.7 54.3 9 54.3 9.8 C 54.3 10.4 54.6 10.7 55.2 10.7 C 55.5 10.7 55.7 10.6 55.9 10.4 Z M 60.6 10.9 C 60.58 10.9 60.6 6 60.6 6 L 59.8 5.8 C 59.8 5.8 59.83 4.96 59.8 5 C 60.7 4.7 61.8 4.6 63.1 4.6 C 63.1 4.6 63.1 5.9 63.1 5.9 C 63.6 4.9 64.4 4.5 65.2 4.5 C 65.5 4.5 65.8 4.6 66.1 4.8 C 66.1 5.9 66 6.6 65.7 7.5 C 65.7 7.51 64.4 7.5 64.4 7.5 C 64.4 7.5 64.21 6.3 64.2 6.3 C 63.8 6.3 63.4 6.5 63.1 6.9 C 63.1 6.9 63.1 10.9 63.1 10.9 C 63.5 10.9 63.9 11 64.1 11.1 C 64.14 11.1 64.1 11.9 64.1 11.9 L 59.8 11.9 C 59.8 11.9 59.82 11.1 59.8 11.1 C 60 11 60.3 10.9 60.6 10.9 Z M 66.3 2.7 C 66.3 2.7 66.34 1.78 66.3 1.8 C 67.2 1.6 68.5 1.4 69.7 1.4 C 69.7 1.4 69.7 5.7 69.7 5.7 C 70.2 4.9 71 4.5 71.9 4.5 C 73.7 4.5 74.7 5.8 74.7 8.1 C 74.7 10.6 73.3 12.1 71.3 12.1 C 70.4 12.1 69.8 11.8 69.4 11.4 C 69.43 11.35 68.2 12 68.2 12 L 67.2 12 L 67.2 2.9 L 66.3 2.7 Z M 69.7 6.6 C 69.7 6.6 69.7 10.6 69.7 10.6 C 69.9 10.7 70.1 10.7 70.3 10.7 C 71.4 10.7 72 9.8 72 8.3 C 72 6.7 71.5 6.2 70.7 6.2 C 70.4 6.2 70 6.3 69.7 6.6 Z M 79.5 7.7 C 79.5 7.7 79.5 6.8 79.5 6.8 C 79.5 6.1 79.2 5.7 78.4 5.7 C 78.2 5.7 78 5.8 77.8 5.8 C 77.76 5.82 77.5 7.1 77.5 7.1 C 77.5 7.1 76.09 7.08 76.1 7.1 C 76 6.7 75.9 6.3 75.9 5.9 C 75.9 5.7 75.9 5.4 76 5.2 C 76.9 4.8 78.1 4.5 79.2 4.5 C 81 4.5 82 5.2 82 6.7 C 82 7.9 82 9.3 82 10.7 C 81.96 10.69 82.7 10.9 82.7 10.9 C 82.7 10.9 82.71 11.71 82.7 11.7 C 81.9 11.9 80.8 12.1 79.5 12.1 C 79.5 12.1 79.5 11 79.5 11 C 79.2 11.7 78.4 12.1 77.6 12.1 C 76.3 12.1 75.4 11.4 75.4 10.1 C 75.4 8.2 77.3 7.8 79.5 7.7 Z M 79.5 10.4 C 79.5 10.4 79.5 8.6 79.5 8.6 C 78.4 8.7 77.8 9 77.8 9.8 C 77.8 10.4 78.2 10.7 78.7 10.7 C 79 10.7 79.3 10.6 79.5 10.4 Z M 84.2 10.9 C 84.16 10.9 84.2 6 84.2 6 L 83.4 5.8 C 83.4 5.8 83.41 4.96 83.4 5 C 84.3 4.7 85.4 4.6 86.7 4.6 C 86.7 4.6 86.7 5.9 86.7 5.9 C 87.1 4.9 88 4.5 88.7 4.5 C 89.1 4.5 89.4 4.6 89.7 4.8 C 89.7 5.9 89.5 6.6 89.3 7.5 C 89.28 7.51 88 7.5 88 7.5 C 88 7.5 87.79 6.3 87.8 6.3 C 87.3 6.3 87 6.5 86.7 6.9 C 86.7 6.9 86.7 10.9 86.7 10.9 C 87.1 10.9 87.5 11 87.7 11.1 C 87.72 11.1 87.7 11.9 87.7 11.9 L 83.4 11.9 C 83.4 11.9 83.4 11.1 83.4 11.1 C 83.6 11 83.8 10.9 84.2 10.9 Z M 94 7.7 C 94 7.7 94 6.8 94 6.8 C 94 6.1 93.7 5.7 92.9 5.7 C 92.7 5.7 92.5 5.8 92.2 5.8 C 92.25 5.82 92 7.1 92 7.1 C 92 7.1 90.58 7.08 90.6 7.1 C 90.5 6.7 90.4 6.3 90.4 5.9 C 90.4 5.7 90.4 5.4 90.5 5.2 C 91.4 4.8 92.6 4.5 93.7 4.5 C 95.5 4.5 96.5 5.2 96.5 6.7 C 96.5 7.9 96.4 9.3 96.4 10.7 C 96.45 10.69 97.2 10.9 97.2 10.9 C 97.2 10.9 97.2 11.71 97.2 11.7 C 96.4 11.9 95.3 12.1 94 12.1 C 94 12.1 94 11 94 11 C 93.7 11.7 92.9 12.1 92.1 12.1 C 90.8 12.1 89.9 11.4 89.9 10.1 C 89.9 8.2 91.8 7.8 94 7.7 Z M 94 10.4 C 94 10.4 94 8.6 94 8.6 C 92.9 8.7 92.3 9 92.3 9.8 C 92.3 10.4 92.7 10.7 93.2 10.7 C 93.5 10.7 93.8 10.6 94 10.4 Z M 101.5 10.8 C 101.5 10.8 101.5 3.4 101.5 3.4 C 101.1 3.4 100.8 3.3 100.6 3.2 C 100.62 3.24 100.6 2.3 100.6 2.3 L 105.1 2.3 C 105.1 2.3 105.09 3.24 105.1 3.2 C 104.9 3.3 104.6 3.4 104.2 3.4 C 104.2 3.4 104.2 10.8 104.2 10.8 C 104.6 10.9 104.9 10.9 105.1 11 C 105.09 11.04 105.1 11.9 105.1 11.9 L 100.6 11.9 C 100.6 11.9 100.62 11.04 100.6 11 C 100.8 10.9 101.1 10.9 101.5 10.8 Z M 105.9 11.1 C 105.9 10.6 106 10.1 106.1 9.6 C 106.12 9.6 107.4 9.6 107.4 9.6 C 107.4 9.6 107.68 10.93 107.7 10.9 C 107.9 11 108.2 11 108.4 11 C 109 11 109.5 10.7 109.5 10.2 C 109.5 9.6 109.1 9.4 108.4 9.2 C 108.4 9.2 107.6 9 107.6 9 C 106.6 8.7 105.9 8.1 105.9 6.8 C 105.9 5.2 107.4 4.5 109.2 4.5 C 110 4.5 111 4.7 111.5 4.9 C 111.6 5.1 111.6 5.4 111.6 5.5 C 111.6 6 111.5 6.5 111.4 7 C 111.37 7.02 110.1 7 110.1 7 C 110.1 7 109.81 5.7 109.8 5.7 C 109.6 5.7 109.4 5.6 109.2 5.6 C 108.7 5.6 108.1 5.8 108.1 6.4 C 108.1 7 108.6 7.1 109.1 7.3 C 109.1 7.3 109.9 7.6 109.9 7.6 C 111.1 7.9 111.9 8.4 111.9 9.6 C 111.9 11.3 110.7 12.1 108.4 12.1 C 107.6 12.1 106.6 12 106 11.7 C 105.9 11.5 105.9 11.3 105.9 11.1 Z M 113.2 10.9 C 113.25 10.9 113.2 2.9 113.2 2.9 L 112.4 2.7 C 112.4 2.7 112.36 1.78 112.4 1.8 C 113.2 1.6 114.5 1.4 115.8 1.4 C 115.8 1.4 115.8 10.9 115.8 10.9 C 116.1 10.9 116.4 11 116.5 11.1 C 116.55 11.1 116.5 11.9 116.5 11.9 L 112.5 11.9 C 112.5 11.9 112.48 11.1 112.5 11.1 C 112.6 11 112.9 10.9 113.2 10.9 Z M 121.2 7.7 C 121.2 7.7 121.2 6.8 121.2 6.8 C 121.2 6.1 120.9 5.7 120.1 5.7 C 119.9 5.7 119.7 5.8 119.5 5.8 C 119.46 5.82 119.2 7.1 119.2 7.1 C 119.2 7.1 117.79 7.08 117.8 7.1 C 117.7 6.7 117.6 6.3 117.6 5.9 C 117.6 5.7 117.6 5.4 117.7 5.2 C 118.6 4.8 119.8 4.5 120.9 4.5 C 122.7 4.5 123.7 5.2 123.7 6.7 C 123.7 7.9 123.7 9.3 123.7 10.7 C 123.66 10.69 124.4 10.9 124.4 10.9 C 124.4 10.9 124.41 11.71 124.4 11.7 C 123.6 11.9 122.5 12.1 121.2 12.1 C 121.2 12.1 121.2 11 121.2 11 C 120.9 11.7 120.1 12.1 119.3 12.1 C 118 12.1 117.1 11.4 117.1 10.1 C 117.1 8.2 119 7.8 121.2 7.7 Z M 121.2 10.4 C 121.2 10.4 121.2 8.6 121.2 8.6 C 120.1 8.7 119.5 9 119.5 9.8 C 119.5 10.4 119.9 10.7 120.4 10.7 C 120.7 10.7 121 10.6 121.2 10.4 Z M 125.9 10.9 C 125.86 10.9 125.9 6 125.9 6 L 125.1 5.8 C 125.1 5.8 125.11 4.96 125.1 5 C 126 4.7 127.1 4.6 128.4 4.6 C 128.4 4.6 128.4 5.7 128.4 5.7 C 128.9 4.9 129.8 4.5 130.9 4.5 C 132.4 4.5 133.2 5.4 133.2 6.7 C 133.2 6.7 133.2 10.9 133.2 10.9 C 133.5 10.9 133.8 11 133.9 11.1 C 133.92 11.1 133.9 11.9 133.9 11.9 L 129.9 11.9 C 129.9 11.9 129.87 11.1 129.9 11.1 C 130 11 130.3 10.9 130.6 10.9 C 130.6 10.9 130.6 7.3 130.6 7.3 C 130.6 6.6 130.3 6.3 129.7 6.3 C 129.2 6.3 128.8 6.4 128.4 6.8 C 128.4 6.8 128.4 10.9 128.4 10.9 C 128.7 10.9 129 11 129.2 11.1 C 129.16 11.1 129.2 11.9 129.2 11.9 L 125.1 11.9 C 125.1 11.9 125.1 11.1 125.1 11.1 C 125.3 11 125.5 10.9 125.9 10.9 Z M 138.1 4.5 C 138.7 4.5 139.2 4.7 139.5 5.1 C 139.53 5.05 139.5 2.9 139.5 2.9 L 138.6 2.7 C 138.6 2.7 138.6 1.78 138.6 1.8 C 139.5 1.6 140.8 1.4 142 1.4 C 142.05 1.44 142 10.7 142 10.7 L 142.8 10.9 C 142.8 10.9 142.8 11.71 142.8 11.7 C 142 11.9 140.8 12.1 139.6 12.1 C 139.6 12.1 139.6 10.9 139.6 10.9 C 139.2 11.7 138.4 12.1 137.5 12.1 C 135.7 12.1 134.6 10.8 134.6 8.5 C 134.6 6 136 4.5 138.1 4.5 Z M 139.5 10.1 C 139.5 10.1 139.5 6 139.5 6 C 139.3 5.9 139.2 5.9 139 5.9 C 137.8 5.9 137.2 6.9 137.2 8.3 C 137.2 9.9 137.8 10.5 138.6 10.5 C 139 10.5 139.3 10.3 139.5 10.1 Z " stroke="none" fill="#404040"/>  </g></svg>