<?xml version="1.0" standalone="no"?><!DOCTYPE svg PUBLIC "-//W3C//DTD SVG 1.1//EN" "http://www.w3.org/Graphics/SVG/1.1/DTD/svg11.dtd"><svg xmlns="http://www.w3.org/2000/svg" xmlns:xlink="http://www.w3.org/1999/xlink" version="1.1" width="628.3px" height="90.9px" viewBox="0 0 628.3 90.9"><desc>Dolphin seem to enjoy cavorting in the bow waves of large boats These dolphin were observed from the deck of the</desc><defs/><g class="svg-textframe-underlines"><rect class="svg-underline" x="470.1" y="55.1" width="145.3" height="2" style="fill:#00aa32;"/></g><g id="Polygon14370"><path d="m2 33.7c0 0 12.6 0 12.6 0c0 1.3-.1 2.6-.6 4.1c.02-.02-1 0-1 0l-.2-2.9l-3.6 0c0 0-2 12.96-2 13c.8 0 1.8.1 2.3.3c0 .04-.1.9-.1.9l-6.6 0c0 0 .13-.86.1-.9c.5-.1 1.4-.3 2.2-.3c-.01-.04 2-13 2-13l-3.4 0l-1.1 2.9c0 0-1.06-.02-1.1 0c0-1.4.2-3 .5-4.1zm19.7 13.1c0 0 1.1-5.8 1.1-5.8c0-.2.1-.5.1-.8c0-.6-.3-1-1.1-1c-.8 0-1.9.7-3.3 2.7c-.04-.04-1.2 7.2-1.2 7.2l-1.9 0l2.5-15.2l-2-.3c0 0 .04-.72 0-.7c1-.3 2.5-.6 4.1-.6c0 0-1.4 8.4-1.4 8.4c1.3-2 2.5-3 4.1-3c1.4 0 2.2.8 2.2 1.9c0 .4-.1.7-.1.9c0 0-1.1 6-1.1 6c-.1.4-.1.6-.1.9c0 .5.2.6 1 .6c0-.05 1 0 1 0c0 0-.18.72-.2.7c-.5.3-1.3.6-2.2.6c-1.1 0-1.6-.6-1.6-1.5c0-.3.1-.8.1-1zm11.5-9.1c2 0 2.9 1 2.9 2.4c0 2.2-1.7 3.4-5.5 3.4c0 0-1 0-1 0c-.1.7-.2 1.4-.2 2c0 1.6.9 2.4 1.9 2.4c1.4 0 2.4-.7 3.5-2.5c0 0 .6.3.6.3c-1.1 2.5-2.6 3.7-4.6 3.7c-2.3 0-3.4-1.4-3.4-4c0-3.6 1.6-7.7 5.8-7.7zm-3.5 5.1c0 0 .8 0 .8 0c2.5 0 3.6-.9 3.6-2.6c0-.9-.4-1.6-1.2-1.6c-1.7 0-2.7 2-3.2 4.2zm8.1 2.9c.02.04 1.3 0 1.3 0c0 0 .04 2.49 0 2.5c.5.1 1 .1 1.4.1c1.3 0 2.4-.6 2.4-1.9c0-1.2-.9-1.5-2.1-2.2c0 0-.9-.5-.9-.5c-.9-.6-1.6-1.4-1.6-2.6c0-2.1 1.4-3.4 4-3.4c1.1 0 2.5.3 3.1.7c0 1-.3 2-.7 2.8c.04.03-1.2 0-1.2 0c0 0-.11-2.44-.1-2.4c-.4-.1-.9-.2-1.2-.2c-1.4 0-2.2.7-2.2 2c0 .8.7 1.3 1.4 1.7c0 0 .9.5.9.5c1.2.7 2.4 1.3 2.4 3c0 2.2-1.6 3.5-4.3 3.5c-1.1 0-2.7-.3-3.2-.7c0-1 .2-2 .6-2.9zm14.8-8c2 0 3 1 3 2.4c0 2.2-1.7 3.4-5.6 3.4c0 0-1 0-1 0c-.1.7-.1 1.4-.1 2c0 1.6.8 2.4 1.9 2.4c1.3 0 2.3-.7 3.4-2.5c0 0 .6.3.6.3c-1 2.5-2.6 3.7-4.6 3.7c-2.3 0-3.4-1.4-3.4-4c0-3.6 1.7-7.7 5.8-7.7zm-3.4 5.1c0 0 .7 0 .7 0c2.5 0 3.7-.9 3.7-2.6c0-.9-.4-1.6-1.3-1.6c-1.6 0-2.7 2-3.1 4.2zm23.5-10.5c0 0-2.2 14.2-2.2 14.2c-.1.3-.1.6-.1.8c0 .6.2.7 1 .7c-.02-.05.9 0 .9 0c0 0-.11.72-.1.7c-.5.3-1.3.6-2.3.6c-1 0-1.4-.6-1.4-1.6c0-.2 0-.7.1-.9c0 0 .1-.6.1-.6c-1 2.1-2.3 3.1-3.9 3.1c-1.7 0-2.6-1.3-2.6-3.6c0-3.8 1.9-8 5.5-8c.9 0 1.6.3 2.1.9c.04-.01.8-4.7.8-4.7l-2-.3c0 0 .06-.72.1-.7c.9-.3 2.4-.6 4-.6zm-3.9 12.9c0 0 .9-6 .9-6c-.4-.2-.9-.4-1.5-.4c-2.6 0-4 3.6-4 6.8c0 1.5.5 2.2 1.5 2.2c1.1 0 2.1-1 3.1-2.6zm11-7.5c2.9 0 3.9 1.9 3.9 4.1c0 3.6-1.8 7.6-5.7 7.6c-3 0-3.9-1.9-3.9-4.1c0-3.6 1.8-7.6 5.7-7.6zm-1.7 10.7c2.3 0 3.6-3.7 3.6-6.8c0-1.6-.6-3-2-3c-2.3 0-3.6 3.8-3.6 6.9c0 1.6.6 2.9 2 2.9zm11.9-16.1c0 0-2.3 14.2-2.3 14.2c-.1.3-.1.6-.1.8c0 .6.2.7 1 .7c.01-.05 1 0 1 0c0 0-.18.72-.2.7c-.5.3-1.3.6-2.2.6c-1.1 0-1.6-.6-1.6-1.6c0-.2.1-.7.1-.9c.03 0 2.1-12.9 2.1-12.9l-2-.3c0 0 .1-.72.1-.7c1-.3 2.4-.6 4.1-.6zm5.4 5.4c0 0-.4 2.8-.4 2.8c1-1.9 2.2-2.8 3.8-2.8c1.6 0 2.6 1.3 2.6 3.5c0 3.9-1.8 8.1-5.6 8.1c-.9 0-1.6-.3-2.1-.9c0 0-.7 4.1-.7 4.1c.9 0 1.7.2 2.3.3c-.05.05-.2.8-.2.8l-5.7 0c0 0 .14-.75.1-.8c.5-.1 1-.3 1.6-.3c.03-.04 2.2-13.2 2.2-13.2l-1.8-.3c0 0 .08-.74.1-.7c1-.3 2.2-.6 3.8-.6zm-.6 4.1c0 0-1 6-1 6c.4.2 1 .3 1.6.3c2.5 0 4-3.5 4-6.8c0-1.4-.5-2.1-1.6-2.1c-1 0-2 1-3 2.6zm14.8 5c0 0 1-5.8 1-5.8c.1-.2.1-.5.1-.8c0-.6-.3-1-1-1c-.9 0-1.9.7-3.4 2.7c.02-.04-1.1 7.2-1.1 7.2l-2 0l2.5-15.2l-2-.3c0 0 .1-.72.1-.7c1-.3 2.4-.6 4.1-.6c0 0-1.4 8.4-1.4 8.4c1.2-2 2.5-3 4-3c1.5 0 2.2.8 2.2 1.9c0 .4 0 .7 0 .9c0 0-1.1 6-1.1 6c-.1.4-.2.6-.2.9c0 .5.3.6 1.1.6c-.04-.05.9 0 .9 0c0 0-.12.72-.1.7c-.5.3-1.3.6-2.3.6c-1 0-1.5-.6-1.5-1.5c0-.3 0-.8.1-1zm8.6-14c.2-.1.7-.1 1.1-.1c.4 0 .9 0 1.1.1c0 .8-.4 1.9-.7 2.6c-.2 0-.5.1-.9.1c-.4 0-.7-.1-.9-.1c0-.8.1-1.9.3-2.6zm1.2 4.9c0 0-1.4 8.8-1.4 8.8c0 .3-.1.6-.1.8c0 .6.3.7 1 .7c.02-.05 1 0 1 0c0 0-.17.72-.2.7c-.5.3-1.3.6-2.2.6c-1.1 0-1.6-.6-1.6-1.6c0-.2.1-.7.1-.9c.04 0 1.3-7.5 1.3-7.5l-1.8-.3c0 0 .03-.74 0-.7c1-.3 2.3-.6 3.9-.6zm6.4 0c0 0-.5 3-.5 3c1.2-2 2.4-3 4-3c1.5 0 2.2.8 2.2 1.9c0 .4-.1.7-.1.9c0 0-1.1 6-1.1 6c-.1.4-.1.6-.1.9c0 .5.3.6 1 .6c.03-.05 1 0 1 0c0 0-.15.72-.2.7c-.5.3-1.2.6-2.2.6c-1.1 0-1.5-.6-1.5-1.5c0-.3 0-.8.1-1c0 0 1-5.8 1-5.8c.1-.2.1-.5.1-.8c0-.6-.3-1-1.1-1c-.8 0-1.8.7-3.3 2.7c-.01-.02-1.2 7.2-1.2 7.2l-1.9 0l1.6-9.8l-1.8-.3c0 0 .09-.74.1-.7c1-.3 2.2-.6 3.9-.6zm21.7 0c0 0 1.4 9.3 1.4 9.3c2-3.1 3-5.3 3.1-7.7c-.01-.04-1.6-.3-1.6-.3c0 0 .05-.74.1-.7c.7-.3 1.5-.5 2.3-.5c.8 0 1 .6 1 1.2c0 1.5-.5 3.9-5.3 10.1c-.04 0-1.1 0-1.1 0c0 0-.83-5.25-.8-5.3c-.9 1.4-2.1 3.1-3.8 5.3c0 0-1.1 0-1.1 0l-1.7-9.8l-1.5-.3c0 0 .05-.74.1-.7c.8-.3 1.9-.6 3-.6c0 0 1.7 9.4 1.7 9.4c1.3-2.2 2.4-3.9 2.9-5.5c.01.04-.4-2.3-.4-2.3l-1.5-.3c0 0 .11-.74.1-.7c.9-.3 2-.6 3.1-.6zm13.1 0c2 0 3 1 3 2.4c0 2.2-1.8 3.4-5.6 3.4c0 0-1 0-1 0c-.1.7-.2 1.4-.2 2c0 1.6.9 2.4 2 2.4c1.3 0 2.3-.7 3.4-2.5c0 0 .6.3.6.3c-1 2.5-2.6 3.7-4.6 3.7c-2.3 0-3.4-1.4-3.4-4c0-3.6 1.7-7.7 5.8-7.7zm-3.5 5.1c0 0 .8 0 .8 0c2.5 0 3.6-.9 3.6-2.6c0-.9-.3-1.6-1.2-1.6c-1.6 0-2.7 2-3.2 4.2zm12.1-5.1c0 0-.6 3.1-.6 3.1c1.1-2.1 2.2-3 3.4-3c.7 0 1.1.2 1.3.4c0 1-.3 2.2-.7 3c.01.03-1.2 0-1.2 0l-.1-2c0 0-.04.02 0 0c-.8 0-1.7 1-2.9 3.2c.01-.04-1.1 6.7-1.1 6.7l-1.9 0l1.6-9.8l-1.8-.3c0 0 .09-.74.1-.7c1-.3 2.2-.6 3.9-.6zm10.3 0c2.1 0 3 1 3 2.4c0 2.2-1.7 3.4-5.5 3.4c0 0-1.1 0-1.1 0c-.1.7-.1 1.4-.1 2c0 1.6.9 2.4 1.9 2.4c1.4 0 2.4-.7 3.4-2.5c0 0 .7.3.7.3c-1.1 2.5-2.6 3.7-4.7 3.7c-2.3 0-3.3-1.4-3.3-4c0-3.6 1.6-7.7 5.7-7.7zm-3.4 5.1c0 0 .8 0 .8 0c2.5 0 3.6-.9 3.6-2.6c0-.9-.4-1.6-1.2-1.6c-1.7 0-2.7 2-3.2 4.2zm18.6-5.1c2.9 0 3.9 1.9 3.9 4.1c0 3.6-1.8 7.6-5.7 7.6c-2.9 0-3.9-1.9-3.9-4.1c0-3.6 1.8-7.6 5.7-7.6zm-1.7 10.7c2.3 0 3.6-3.7 3.6-6.8c0-1.6-.6-3-2-3c-2.3 0-3.6 3.8-3.6 6.9c0 1.6.6 2.9 2 2.9zm11.9-16.1c0 0-1.3 8.2-1.3 8.2c1-1.9 2.2-2.8 3.8-2.8c1.6 0 2.6 1.3 2.6 3.5c0 3.9-1.9 8.1-5.6 8.1c-1 0-1.7-.4-2.2-1c-.4.4-.9.8-1.4 1c.03 0-.5-.2-.5-.2l2.4-15.2l-2-.3c0 0 .11-.72.1-.7c1-.3 2.4-.6 4.1-.6zm-1.5 9.4c0 0-1 6.1-1 6.1c.4.2.9.3 1.5.3c2.6 0 4-3.5 4-6.8c0-1.4-.4-2.1-1.5-2.1c-1.1 0-2.1 1-3 2.5zm8.7 4c.01.04 1.3 0 1.3 0c0 0 .03 2.49 0 2.5c.5.1 1 .1 1.4.1c1.3 0 2.4-.6 2.4-1.9c0-1.2-.9-1.5-2.1-2.2c0 0-.9-.5-.9-.5c-.9-.6-1.6-1.4-1.6-2.6c0-2.1 1.4-3.4 4-3.4c1.1 0 2.5.3 3.1.7c0 1-.3 2-.7 2.8c.02.03-1.2 0-1.2 0c0 0-.12-2.44-.1-2.4c-.5-.1-.9-.2-1.2-.2c-1.4 0-2.2.7-2.2 2c0 .8.6 1.3 1.4 1.7c0 0 .9.5.9.5c1.2.7 2.4 1.3 2.4 3c0 2.2-1.7 3.5-4.3 3.5c-1.1 0-2.7-.3-3.3-.7c0-1 .3-2 .7-2.9zm14.8-8c2 0 3 1 3 2.4c0 2.2-1.8 3.4-5.6 3.4c0 0-1 0-1 0c-.1.7-.1 1.4-.1 2c0 1.6.8 2.4 1.9 2.4c1.3 0 2.3-.7 3.4-2.5c0 0 .6.3.6.3c-1 2.5-2.6 3.7-4.6 3.7c-2.3 0-3.4-1.4-3.4-4c0-3.6 1.7-7.7 5.8-7.7zm-3.5 5.1c0 0 .8 0 .8 0c2.5 0 3.7-.9 3.7-2.6c0-.9-.4-1.6-1.3-1.6c-1.6 0-2.7 2-3.2 4.2zm12.1-5.1c0 0-.5 3.1-.5 3.1c1-2.1 2.1-3 3.3-3c.7 0 1.1.2 1.3.4c0 1-.3 2.2-.7 3c.02.03-1.2 0-1.2 0l-.1-2c0 0-.03.02 0 0c-.8 0-1.7 1-2.9 3.2c.02-.04-1.1 6.7-1.1 6.7l-1.9 0l1.6-9.8l-1.8-.3c0 0 .1-.74.1-.7c1-.3 2.2-.6 3.9-.6zm5.4 1.3c0 0 .03-.74 0-.7c.8-.3 2.1-.6 3.1-.6c.03-.02 1.6 9.4 1.6 9.4c0 0 .73-1.07.7-1.1c1.9-2.7 2.6-4.6 2.6-6.7c.03-.04-1.6-.3-1.6-.3c0 0 .07-.74.1-.7c.7-.3 1.5-.5 2.3-.5c.9 0 1 .6 1 1.2c0 1.5-.5 3.4-4.1 8.2c.02-.02-1.4 1.9-1.4 1.9l-1.1 0l-1.7-9.8l-1.5-.3zm16.6-1.3c2 0 3 1 3 2.4c0 2.2-1.8 3.4-5.6 3.4c0 0-1 0-1 0c-.1.7-.2 1.4-.2 2c0 1.6.9 2.4 2 2.4c1.3 0 2.3-.7 3.4-2.5c0 0 .6.3.6.3c-1 2.5-2.6 3.7-4.6 3.7c-2.3 0-3.4-1.4-3.4-4c0-3.6 1.7-7.7 5.8-7.7zm-3.5 5.1c0 0 .8 0 .8 0c2.5 0 3.7-.9 3.7-2.6c0-.9-.4-1.6-1.3-1.6c-1.6 0-2.7 2-3.2 4.2zm18.4-10.5c0 0-2.3 14.2-2.3 14.2c0 .3-.1.6-.1.8c0 .6.3.7 1.1.7c-.05-.05.9 0 .9 0c0 0-.13.72-.1.7c-.6.3-1.3.6-2.3.6c-1 0-1.4-.6-1.4-1.6c0-.2 0-.7.1-.9c0 0 .1-.6.1-.6c-1.1 2.1-2.3 3.1-4 3.1c-1.6 0-2.6-1.3-2.6-3.6c0-3.8 2-8 5.6-8c.9 0 1.6.3 2.1.9c.02-.01.8-4.7.8-4.7l-2-.3c0 0 .04-.72 0-.7c1-.3 2.5-.6 4.1-.6zm-4 12.9c0 0 1-6 1-6c-.4-.2-.9-.4-1.5-.4c-2.6 0-4 3.6-4 6.8c0 1.5.4 2.2 1.5 2.2c1 0 2.1-1 3-2.6zm12.7-7.5c0 0 .1-.7.1-.7c.5-3.2 1.9-4.7 4.9-4.7c.9 0 2.2.1 2.8.3c-.1 1-.3 1.7-.7 2.6c-.01-.02-1.5 0-1.5 0c0 0 .05-1.91 0-1.9c-.1 0-.3 0-.5 0c-1.6 0-2.6.7-3 3.1c0 .03-.2 1.5-.2 1.5l2.4 0l-.2 1.2l-2.4 0c0 0-1.52 9.81-1.5 9.8c-.5 3.1-2.5 4.9-4.3 4.9c-.8 0-1.4-.4-1.9-.9c0 0 .1-.8.1-.8c.4.1 1.1.2 1.7.2c1.8 0 2 0 2.5-3.2c-.04 0 1.4-10 1.4-10l-1.8 0c0 0 .12-.75.1-.7c.4-.2 1-.5 2-.7zm9.3 0c0 0-.5 3.1-.5 3.1c1-2.1 2.1-3 3.4-3c.7 0 1.1.2 1.2.4c0 1-.2 2.2-.6 3c-.02.03-1.3 0-1.3 0l0-2c0 0-.07.02-.1 0c-.7 0-1.6 1-2.8 3.2c-.02-.04-1.1 6.7-1.1 6.7l-1.9 0l1.6-9.8l-1.8-.3c0 0 .06-.74.1-.7c.9-.3 2.2-.6 3.8-.6zm10.3 0c3 0 4 1.9 4 4.1c0 3.6-1.9 7.6-5.7 7.6c-3 0-3.9-1.9-3.9-4.1c0-3.6 1.8-7.6 5.6-7.6zm-1.6 10.7c2.3 0 3.5-3.7 3.5-6.8c0-1.6-.5-3-2-3c-2.3 0-3.5 3.8-3.5 6.9c0 1.6.5 2.9 2 2.9zm11.5-10.7c0 0-.5 3-.5 3c1.2-2 2.5-3 4.1-3c1.4 0 2.2.7 2.2 1.9c0 .3-.1.7-.1.9c0 0 0 .1 0 .1c1.2-2 2.4-2.9 3.9-2.9c1.5 0 2.2.8 2.2 1.9c0 .4 0 .7-.1.9c0 0-1.1 6-1.1 6c0 .4-.1.6-.1.9c0 .5.3.6 1 .6c.05-.05 1 0 1 0c0 0-.13.72-.1.7c-.6.3-1.3.6-2.3.6c-1 0-1.5-.6-1.5-1.5c0-.3 0-.8.1-1c0 0 1-5.8 1-5.8c.1-.2.1-.5.1-.8c0-.6-.3-1-1-1c-.9 0-1.9.6-3.3 2.6c-.05.01-1.3 7.3-1.3 7.3l-2 0c0 0 1.48-8.06 1.5-8.1c0-.2.1-.5.1-.8c0-.6-.3-1-1.1-1c-.8 0-1.9.7-3.3 2.7c-.04-.02-1.2 7.2-1.2 7.2l-1.9 0l1.6-9.8l-1.8-.3c0 0 .07-.74.1-.7c.9-.3 2.2-.6 3.8-.6zm21.6 0c0 0 .5-1.9.5-1.9c.3-.1 1-.2 1.6-.2c.04-.03-.3 2.3-.3 2.3l2.9 0l-.2 1.2l-2.9 0c0 0-1.04 6.45-1 6.5c-.1.4-.2.8-.2 1.2c0 .6.2 1.1.8 1.1c1 0 1.9-1.3 2.5-2.5c0 0 .6.2.6.2c-.7 2.3-2 3.7-3.7 3.7c-1.5 0-2.1-.7-2.1-2.1c0-.3 0-.6 0-1c.04.02 1.1-7.1 1.1-7.1l-1.8 0c0 0 .12-.75.1-.7c.4-.2 1-.6 2.1-.7zm12.1 9.1c0 0 1.1-5.8 1.1-5.8c0-.2.1-.5.1-.8c0-.6-.3-1-1.1-1c-.8 0-1.9.7-3.4 2.7c.04-.04-1.1 7.2-1.1 7.2l-1.9 0l2.4-15.2l-2-.3c0 0 .12-.72.1-.7c1-.3 2.4-.6 4.1-.6c0 0-1.4 8.4-1.4 8.4c1.3-2 2.5-3 4.1-3c1.4 0 2.1.8 2.1 1.9c0 .4 0 .7 0 .9c0 0-1.1 6-1.1 6c-.1.4-.2.6-.2.9c0 .5.3.6 1.1.6c-.02-.05.9 0 .9 0c0 0-.1.72-.1.7c-.5.3-1.3.6-2.3.6c-1 0-1.5-.6-1.5-1.5c0-.3.1-.8.1-1zm11.4-9.1c2.1 0 3 1 3 2.4c0 2.2-1.7 3.4-5.5 3.4c0 0-1.1 0-1.1 0c0 .7-.1 1.4-.1 2c0 1.6.9 2.4 1.9 2.4c1.4 0 2.4-.7 3.4-2.5c0 0 .7.3.7.3c-1.1 2.5-2.6 3.7-4.7 3.7c-2.3 0-3.3-1.4-3.3-4c0-3.6 1.6-7.7 5.7-7.7zm-3.4 5.1c0 0 .8 0 .8 0c2.5 0 3.6-.9 3.6-2.6c0-.9-.4-1.6-1.2-1.6c-1.7 0-2.7 2-3.2 4.2zm23.6-10.5c0 0-2.3 14.2-2.3 14.2c0 .3-.1.6-.1.8c0 .6.2.7 1 .7c.02-.05 1 0 1 0c0 0-.17.72-.2.7c-.5.3-1.3.6-2.2.6c-1.1 0-1.5-.6-1.5-1.6c0-.2.1-.7.1-.9c0 0 .1-.6.1-.6c-1 2.1-2.3 3.1-3.9 3.1c-1.6 0-2.6-1.3-2.6-3.6c0-3.8 1.9-8 5.6-8c.9 0 1.6.3 2.1.9c-.02-.01.7-4.7.7-4.7l-2-.3c0 0 .1-.72.1-.7c1-.3 2.4-.6 4.1-.6zm-4 12.9c0 0 1-6 1-6c-.4-.2-1-.4-1.6-.4c-2.5 0-4 3.6-4 6.8c0 1.5.5 2.2 1.6 2.2c1 0 2-1 3-2.6zm11.1-7.5c2 0 3 1 3 2.4c0 2.2-1.8 3.4-5.6 3.4c0 0-1 0-1 0c-.1.7-.2 1.4-.2 2c0 1.6.9 2.4 2 2.4c1.3 0 2.3-.7 3.4-2.5c0 0 .6.3.6.3c-1 2.5-2.6 3.7-4.6 3.7c-2.3 0-3.4-1.4-3.4-4c0-3.6 1.7-7.7 5.8-7.7zm-3.5 5.1c0 0 .8 0 .8 0c2.5 0 3.6-.9 3.6-2.6c0-.9-.3-1.6-1.2-1.6c-1.6 0-2.7 2-3.2 4.2zm13.7-5.1c.9 0 2 .3 2.5.7c0 1-.3 2-.7 2.8c.01.03-1.2 0-1.2 0c0 0-.13-2.51-.1-2.5c-.2 0-.4-.1-.6-.1c-2.6 0-3.8 3.9-3.8 6.9c0 1.6.8 2.4 1.9 2.4c1.3 0 2.3-.7 3.4-2.5c0 0 .6.3.6.3c-1 2.5-2.6 3.7-4.6 3.7c-2.3 0-3.4-1.4-3.4-4c0-3.6 1.7-7.7 6-7.7zm8.4-5.4c-.04 0-2.7 16.8-2.7 16.8l-1.9 0l2.4-15.2l-2-.3c0 0 .11-.72.1-.7c1-.3 2.4-.6 4.1-.6zm5.8 5.6c.02-.03-.1.9-.1.9l-1.2.5l-4 3.5c0 0 1.77 4 1.8 4c.4 1 .7 1.2 1.5 1.2c0-.05.9 0 .9 0c0 0-.13.72-.1.7c-.6.3-1.3.6-1.9.6c-1 0-1.5-.5-2.1-1.6c.04-.04-2-4.6-2-4.6l4.1-3.7l-1.9-.4c0 0 .1-.65.1-.6c1-.3 3.3-.5 4.9-.5zm11-.2c3 0 3.9 1.9 3.9 4.1c0 3.6-1.8 7.6-5.6 7.6c-3 0-4-1.9-4-4.1c0-3.6 1.9-7.6 5.7-7.6zm-1.6 10.7c2.3 0 3.5-3.7 3.5-6.8c0-1.6-.5-3-2-3c-2.3 0-3.5 3.8-3.5 6.9c0 1.6.5 2.9 2 2.9zm9.3-10.7c0 0 .1-.7.1-.7c.5-3.2 1.9-4.7 4.9-4.7c1 0 2.2.1 2.8.3c-.1 1-.3 1.7-.7 2.6c.02-.02-1.4 0-1.4 0c0 0-.02-1.91 0-1.9c-.2 0-.4 0-.6 0c-1.5 0-2.6.7-3 3.1c.03.03-.2 1.5-.2 1.5l2.4 0l-.2 1.2l-2.4 0c0 0-1.49 9.81-1.5 9.8c-.5 3.1-2.5 4.9-4.3 4.9c-.8 0-1.4-.4-1.8-.9c0 0 .1-.8.1-.8c.3.1 1 .2 1.6.2c1.8 0 2 0 2.5-3.2c-.01 0 1.5-10 1.5-10l-1.9 0c0 0 .15-.75.1-.7c.4-.2 1.1-.5 2-.7zm11.9 0c0 0 .5-1.9.5-1.9c.4-.1 1.1-.2 1.7-.2c.03-.03-.3 2.3-.3 2.3l2.9 0l-.2 1.2l-2.9 0c0 0-1.06 6.45-1.1 6.5c0 .4-.1.8-.1 1.2c0 .6.2 1.1.8 1.1c1 0 1.9-1.3 2.5-2.5c0 0 .6.2.6.2c-.8 2.3-2 3.7-3.8 3.7c-1.4 0-2-.7-2-2.1c0-.3 0-.6 0-1c.03.02 1.1-7.1 1.1-7.1l-1.8 0c0 0 .1-.75.1-.7c.4-.2 1-.6 2-.7zm12.2 9.1c0 0 1-5.8 1-5.8c.1-.2.1-.5.1-.8c0-.6-.2-1-1-1c-.9 0-1.9.7-3.4 2.7c.02-.04-1.1 7.2-1.1 7.2l-1.9 0l2.4-15.2l-2-.3c0 0 .1-.72.1-.7c1-.3 2.4-.6 4.1-.6c0 0-1.4 8.4-1.4 8.4c1.2-2 2.5-3 4-3c1.5 0 2.2.8 2.2 1.9c0 .4 0 .7 0 .9c0 0-1.1 6-1.1 6c-.1.4-.2.6-.2.9c0 .5.3.6 1.1.6c-.03-.05.9 0 .9 0c0 0-.12.72-.1.7c-.5.3-1.3.6-2.3.6c-1 0-1.5-.6-1.5-1.5c0-.3 0-.8.1-1zm11.4-9.1c2.1 0 3 1 3 2.4c0 2.2-1.7 3.4-5.6 3.4c0 0-1 0-1 0c-.1.7-.1 1.4-.1 2c0 1.6.9 2.4 1.9 2.4c1.4 0 2.4-.7 3.4-2.5c0 0 .7.3.7.3c-1.1 2.5-2.6 3.7-4.7 3.7c-2.3 0-3.3-1.4-3.3-4c0-3.6 1.6-7.7 5.7-7.7zm-3.4 5.1c0 0 .7 0 .7 0c2.5 0 3.7-.9 3.7-2.6c0-.9-.4-1.6-1.3-1.6c-1.6 0-2.6 2-3.1 4.2zm157.9 5.2c0-1.1.7-1.8 1.6-1.8c.8 0 1.3.5 1.3 1.4c0 1.1-.7 1.8-1.5 1.8c-.9 0-1.4-.5-1.4-1.4z" stroke="none" fill="#fff"/><a xlink:href="http://www.nps.gov/chis/learn/news/ipco-new-boat.htm?target=_lightbox" class="lightbox" xlink:show="undefined" xlink:title="Island Explorer"><rect style="fill:transparent;" x="469" y="31" width="146" height="22"/></a></g><g id="Polygon14369"><path d="m1.7 17.9c0 0 2-12.9 2-12.9c-.7-.1-1.4-.2-1.9-.4c.02.01.2-.9.2-.9c0 0 6.06.04 6.1 0c4.1 0 6.6 2.4 6.6 6.2c0 5.4-3.2 9.2-8.4 9.2c.04 0-6.5 0-6.5 0c0 0 .15-.86.2-.9c.5-.1 1-.3 1.7-.3zm2.1.1c0 0 2.82-.05 2.8 0c4 0 5.8-4 5.8-8.2c0-3.4-1.7-4.9-4.5-4.9c-.03 0-2.1 0-2.1 0l-2 13.1zm18.3-10.3c3 0 3.9 1.9 3.9 4.1c0 3.6-1.8 7.6-5.6 7.6c-3 0-4-1.9-4-4.1c0-3.6 1.9-7.6 5.7-7.6zm-1.6 10.7c2.3 0 3.5-3.7 3.5-6.8c0-1.6-.6-3-2-3c-2.3 0-3.5 3.8-3.5 6.9c0 1.6.5 2.9 2 2.9zm11.8-16.1c0 0-2.3 14.2-2.3 14.2c0 .3 0 .6 0 .8c0 .6.2.7 1 .7c-.04-.05.9 0 .9 0c0 0-.12.72-.1.7c-.6.3-1.3.6-2.3.6c-1 0-1.5-.6-1.5-1.6c0-.2 0-.7.1-.9c-.02 0 2.1-12.9 2.1-12.9l-2-.3c0 0 .05-.72 0-.7c1-.3 2.5-.6 4.1-.6zm5.5 5.4c0 0-.5 2.8-.5 2.8c1.1-1.9 2.3-2.8 3.9-2.8c1.6 0 2.6 1.3 2.6 3.5c0 3.9-1.9 8.1-5.6 8.1c-.9 0-1.6-.3-2.1-.9c0 0-.7 4.1-.7 4.1c.9 0 1.6.2 2.2.3c.01.05-.1.8-.1.8l-5.7 0c0 0 .1-.75.1-.8c.5-.1.9-.3 1.6-.3c-.02-.04 2.2-13.2 2.2-13.2l-1.8-.3c0 0 .04-.74 0-.7c1-.3 2.3-.6 3.9-.6zm-.7 4.1c0 0-.9 6-.9 6c.4.2.9.3 1.5.3c2.6 0 4-3.5 4-6.8c0-1.4-.4-2.1-1.5-2.1c-1.1 0-2.1 1-3.1 2.6zm14.8 5c0 0 1.1-5.8 1.1-5.8c0-.2.1-.5.1-.8c0-.6-.3-1-1.1-1c-.8 0-1.8.7-3.3 2.7c-.03-.04-1.2 7.2-1.2 7.2l-1.9 0l2.5-15.2l-2-.3c0 0 .05-.72.1-.7c.9-.3 2.4-.6 4-.6c0 0-1.3 8.4-1.3 8.4c1.2-2 2.4-3 4-3c1.4 0 2.2.8 2.2 1.9c0 .4-.1.7-.1.9c0 0-1.1 6-1.1 6c-.1.4-.1.6-.1.9c0 .5.2.6 1 .6c.02-.05 1 0 1 0c0 0-.17.72-.2.7c-.5.3-1.3.6-2.2.6c-1.1 0-1.6-.6-1.6-1.5c0-.3.1-.8.1-1zm8.7-14c.2-.1.7-.1 1.1-.1c.3 0 .8 0 1 .1c0 .8-.3 1.9-.7 2.6c-.2 0-.5.1-.9.1c-.4 0-.7-.1-.9-.1c0-.8.2-1.9.4-2.6zm1.2 4.9c0 0-1.4 8.8-1.4 8.8c-.1.3-.1.6-.1.8c0 .6.2.7 1 .7c-.03-.05.9 0 .9 0c0 0-.11.72-.1.7c-.5.3-1.3.6-2.3.6c-1 0-1.5-.6-1.5-1.6c0-.2 0-.7.1-.9c-.01 0 1.2-7.5 1.2-7.5l-1.8-.3c0 0 .09-.74.1-.7c1-.3 2.2-.6 3.9-.6zm6.3 0c0 0-.5 3-.5 3c1.2-2 2.5-3 4.1-3c1.4 0 2.1.8 2.1 1.9c0 .4 0 .7 0 .9c0 0-1.1 6-1.1 6c-.1.4-.1.6-.1.9c0 .5.2.6 1 .6c-.02-.05.9 0 .9 0c0 0-.1.72-.1.7c-.5.3-1.3.6-2.3.6c-1 0-1.5-.6-1.5-1.5c0-.3.1-.8.1-1c0 0 1.1-5.8 1.1-5.8c0-.2.1-.5.1-.8c0-.6-.3-1-1.1-1c-.8 0-1.9.7-3.4 2.7c.04-.02-1.1 7.2-1.1 7.2l-1.9 0l1.6-9.8l-1.8-.3c0 0 .05-.74 0-.7c1-.3 2.3-.6 3.9-.6zm13.5 8c.02.04 1.3 0 1.3 0c0 0 .04 2.49 0 2.5c.5.1 1 .1 1.4.1c1.3 0 2.4-.6 2.4-1.9c0-1.2-.9-1.5-2.1-2.2c0 0-.9-.5-.9-.5c-.9-.6-1.6-1.4-1.6-2.6c0-2.1 1.4-3.4 4-3.4c1.1 0 2.5.3 3.1.7c0 1-.3 2-.7 2.8c.03.03-1.2 0-1.2 0c0 0-.11-2.44-.1-2.4c-.4-.1-.9-.2-1.2-.2c-1.4 0-2.2.7-2.2 2c0 .8.7 1.3 1.4 1.7c0 0 .9.5.9.5c1.2.7 2.4 1.3 2.4 3c0 2.2-1.6 3.5-4.3 3.5c-1.1 0-2.7-.3-3.2-.7c0-1 .2-2 .6-2.9zm14.8-8c2 0 3 1 3 2.4c0 2.2-1.7 3.4-5.6 3.4c0 0-1 0-1 0c-.1.7-.1 1.4-.1 2c0 1.6.8 2.4 1.9 2.4c1.3 0 2.3-.7 3.4-2.5c0 0 .6.3.6.3c-1 2.5-2.6 3.7-4.6 3.7c-2.3 0-3.4-1.4-3.4-4c0-3.6 1.7-7.7 5.8-7.7zm-3.4 5.1c0 0 .7 0 .7 0c2.5 0 3.7-.9 3.7-2.6c0-.9-.4-1.6-1.3-1.6c-1.6 0-2.7 2-3.1 4.2zm13.4-5.1c2 0 3 1 3 2.4c0 2.2-1.7 3.4-5.6 3.4c0 0-1 0-1 0c-.1.7-.1 1.4-.1 2c0 1.6.8 2.4 1.9 2.4c1.3 0 2.3-.7 3.4-2.5c0 0 .6.3.6.3c-1 2.5-2.6 3.7-4.6 3.7c-2.3 0-3.3-1.4-3.3-4c0-3.6 1.6-7.7 5.7-7.7zm-3.4 5.1c0 0 .7 0 .7 0c2.5 0 3.7-.9 3.7-2.6c0-.9-.4-1.6-1.3-1.6c-1.6 0-2.7 2-3.1 4.2zm12-5.1c0 0-.5 3-.5 3c1.2-2 2.5-3 4-3c1.4 0 2.2.7 2.2 1.9c0 .3 0 .7-.1.9c0 0 0 .1 0 .1c1.2-2 2.4-2.9 4-2.9c1.4 0 2.2.8 2.2 1.9c0 .4-.1.7-.1.9c0 0-1.1 6-1.1 6c-.1.4-.1.6-.1.9c0 .5.2.6 1 .6c0-.05 1 0 1 0c0 0-.18.72-.2.7c-.5.3-1.3.6-2.2.6c-1.1 0-1.6-.6-1.6-1.5c0-.3.1-.8.1-1c0 0 1.1-5.8 1.1-5.8c0-.2.1-.5.1-.8c0-.6-.3-1-1.1-1c-.8 0-1.9.6-3.3 2.6c.01.01-1.3 7.3-1.3 7.3l-1.9 0c0 0 1.43-8.06 1.4-8.1c.1-.2.1-.5.1-.8c0-.6-.3-1-1-1c-.9 0-1.9.7-3.4 2.7c.01-.02-1.1 7.2-1.1 7.2l-2 0l1.6-9.8l-1.8-.3c0 0 .12-.74.1-.7c1-.3 2.3-.6 3.9-.6zm21.5 0c0 0 .5-1.9.5-1.9c.4-.1 1.1-.2 1.7-.2c-.01-.03-.4 2.3-.4 2.3l2.9 0l-.2 1.2l-2.9 0c0 0-.99 6.45-1 6.5c-.1.4-.1.8-.1 1.2c0 .6.2 1.1.8 1.1c.9 0 1.9-1.3 2.4-2.5c0 0 .7.2.7.2c-.8 2.3-2.1 3.7-3.8 3.7c-1.4 0-2.1-.7-2.1-2.1c0-.3 0-.6.1-1c-.01.02 1.1-7.1 1.1-7.1l-1.9 0c0 0 .17-.75.2-.7c.4-.2 1-.6 2-.7zm11.7 0c2.9 0 3.9 1.9 3.9 4.1c0 3.6-1.8 7.6-5.7 7.6c-2.9 0-3.9-1.9-3.9-4.1c0-3.6 1.8-7.6 5.7-7.6zm-1.7 10.7c2.3 0 3.6-3.7 3.6-6.8c0-1.6-.6-3-2-3c-2.3 0-3.6 3.8-3.6 6.9c0 1.6.6 2.9 2 2.9zm18.3-10.7c2 0 3 1 3 2.4c0 2.2-1.7 3.4-5.6 3.4c0 0-1 0-1 0c-.1.7-.1 1.4-.1 2c0 1.6.8 2.4 1.9 2.4c1.3 0 2.4-.7 3.4-2.5c0 0 .7.3.7.3c-1.1 2.5-2.7 3.7-4.7 3.7c-2.3 0-3.3-1.4-3.3-4c0-3.6 1.6-7.7 5.7-7.7zm-3.4 5.1c0 0 .7 0 .7 0c2.5 0 3.7-.9 3.7-2.6c0-.9-.4-1.6-1.3-1.6c-1.6 0-2.6 2-3.1 4.2zm12-5.1c0 0-.5 3-.5 3c1.2-2 2.5-3 4-3c1.5 0 2.2.8 2.2 1.9c0 .4 0 .7 0 .9c0 0-1.1 6-1.1 6c-.1.4-.2.6-.2.9c0 .5.3.6 1.1.6c-.03-.05.9 0 .9 0c0 0-.11.72-.1.7c-.5.3-1.3.6-2.3.6c-1 0-1.5-.6-1.5-1.5c0-.3 0-.8.1-1c0 0 1-5.8 1-5.8c.1-.2.1-.5.1-.8c0-.6-.2-1-1-1c-.9 0-1.9.7-3.4 2.7c.03-.02-1.1 7.2-1.1 7.2l-1.9 0l1.6-9.8l-1.8-.3c0 0 .03-.74 0-.7c1-.3 2.3-.6 3.9-.6zm11.3-4.9c.2-.1.7-.1 1.1-.1c.4 0 .9 0 1.1.1c0 .8-.4 1.9-.7 2.6c-.2 0-.5.1-.9.1c-.4 0-.7-.1-.9-.1c0-.8.1-1.9.3-2.6zm1.2 4.9c0 0-1.7 10.8-1.7 10.8c-.5 3.1-2.5 5.3-4.3 5.3c-.8 0-1.4-.4-1.9-.9c0 0 .1-.8.1-.8c.4.1 1.3.2 1.8.2c1.6 0 1.7 0 2.3-3.2c-.04 0 1.6-9.8 1.6-9.8l-1.8-.3c0 0 .04-.74 0-.7c1-.3 2.3-.6 3.9-.6zm7.4 0c3 0 4 1.9 4 4.1c0 3.6-1.9 7.6-5.7 7.6c-3 0-3.9-1.9-3.9-4.1c0-3.6 1.8-7.6 5.6-7.6zm-1.6 10.7c2.3 0 3.5-3.7 3.5-6.8c0-1.6-.5-3-2-3c-2.3 0-3.5 3.8-3.5 6.9c0 1.6.5 2.9 2 2.9zm9.5 1.5c-.03-.03.3-.6.3-.6l-1.8-10l-1.5-.3c0 0 .11-.74.1-.7c.8-.3 2-.6 3.1-.6c.01-.02 1.6 9.5 1.6 9.5c0 0 .66-.98.7-1c1.4-2.2 2.5-4.4 2.6-6.9c-.02-.04-1.6-.3-1.6-.3c0 0 .04-.74 0-.7c.7-.3 1.6-.5 2.4-.5c.8 0 1 .6 1 1.2c0 1.8-1.1 4.2-3.2 7.2c0 0-2.6 3.7-2.6 3.7c-1.2 1.7-2.7 3.9-4.4 3.9c-.9 0-1.4-.4-2-1c0 0 .1-.8.1-.8c.6.2 1.1.3 1.7.3c1.5 0 2.5-.9 3.5-2.4zm19.4-12.2c.9 0 2 .3 2.5.7c0 1-.3 2-.7 2.8c-.02.03-1.3 0-1.3 0c0 0-.06-2.51-.1-2.5c-.1 0-.3-.1-.5-.1c-2.6 0-3.9 3.9-3.9 6.9c0 1.6.9 2.4 1.9 2.4c1.4 0 2.4-.7 3.4-2.5c0 0 .7.3.7.3c-1.1 2.5-2.6 3.7-4.6 3.7c-2.3 0-3.4-1.4-3.4-4c0-3.6 1.6-7.7 6-7.7zm9.4 0c.9 0 1.6.4 2.1 1c.4-.4.9-.8 1.3-1c.05-.02.7.2.7.2c0 0-1.37 8.61-1.4 8.6c0 .3-.1.6-.1.8c0 .6.3.7 1 .7c.04-.05 1 0 1 0c0 0-.15.72-.1.7c-.6.3-1.3.6-2.3.6c-1.1 0-1.4-.6-1.4-1.6c0-.2 0-.7.1-.9c0 0 0-.6 0-.6c-1 2.1-2.2 3.1-3.9 3.1c-1.6 0-2.6-1.3-2.6-3.6c0-3.8 1.9-8 5.6-8zm1 7.5c0 0 1-6 1-6c-.4-.2-.9-.4-1.5-.4c-2.6 0-4.1 3.6-4.1 6.8c0 1.5.5 2.2 1.6 2.2c1 0 2-1 3-2.6zm4.6-6.2c0 0 .05-.74.1-.7c.7-.3 2-.6 3-.6c.05-.02 1.7 9.4 1.7 9.4c0 0 .65-1.07.7-1.1c1.8-2.7 2.5-4.6 2.5-6.7c.05-.04-1.6-.3-1.6-.3c0 0 .09-.74.1-.7c.7-.3 1.5-.5 2.3-.5c.9 0 1.1.6 1.1 1.2c0 1.5-.6 3.4-4.2 8.2c.04-.02-1.4 1.9-1.4 1.9l-1.1 0l-1.7-9.8l-1.5-.3zm16.5-1.3c3 0 4 1.9 4 4.1c0 3.6-1.9 7.6-5.7 7.6c-3 0-3.9-1.9-3.9-4.1c0-3.6 1.8-7.6 5.6-7.6zm-1.6 10.7c2.3 0 3.5-3.7 3.5-6.8c0-1.6-.5-3-2-3c-2.3 0-3.5 3.8-3.5 6.9c0 1.6.5 2.9 2 2.9zm11.5-10.7c0 0-.5 3.1-.5 3.1c1-2.1 2.1-3 3.4-3c.7 0 1.1.2 1.3.4c0 1-.3 2.2-.7 3c-.01.03-1.3 0-1.3 0l0-2c0 0-.06.02-.1 0c-.7 0-1.6 1-2.8 3.2c-.01-.04-1.1 6.7-1.1 6.7l-1.9 0l1.6-9.8l-1.8-.3c0 0 .07-.74.1-.7c.9-.3 2.2-.6 3.8-.6zm7.7 0c0 0 .5-1.9.5-1.9c.4-.1 1.1-.2 1.7-.2c-.01-.03-.4 2.3-.4 2.3l2.9 0l-.2 1.2l-2.9 0c0 0-.99 6.45-1 6.5c-.1.4-.1.8-.1 1.2c0 .6.2 1.1.8 1.1c.9 0 1.9-1.3 2.4-2.5c0 0 .7.2.7.2c-.8 2.3-2.1 3.7-3.8 3.7c-1.4 0-2.1-.7-2.1-2.1c0-.3 0-.6.1-1c-.01.02 1.1-7.1 1.1-7.1l-1.9 0c0 0 .17-.75.2-.7c.4-.2 1-.6 2-.7zm8.6-4.9c.2-.1.7-.1 1.1-.1c.3 0 .8 0 1 .1c0 .8-.3 1.9-.7 2.6c-.2 0-.5.1-.9.1c-.4 0-.7-.1-.9-.1c0-.8.2-1.9.4-2.6zm1.2 4.9c0 0-1.4 8.8-1.4 8.8c-.1.3-.1.6-.1.8c0 .6.2.7 1 .7c-.03-.05.9 0 .9 0c0 0-.11.72-.1.7c-.5.3-1.3.6-2.3.6c-1 0-1.5-.6-1.5-1.6c0-.2 0-.7.1-.9c-.01 0 1.2-7.5 1.2-7.5l-1.8-.3c0 0 .09-.74.1-.7c1-.3 2.2-.6 3.9-.6zm6.3 0c0 0-.5 3-.5 3c1.2-2 2.5-3 4.1-3c1.4 0 2.1.8 2.1 1.9c0 .4 0 .7 0 .9c0 0-1.1 6-1.1 6c-.1.4-.1.6-.1.9c0 .5.2.6 1 .6c-.01-.05.9 0 .9 0c0 0-.1.72-.1.7c-.5.3-1.3.6-2.3.6c-1 0-1.5-.6-1.5-1.5c0-.3.1-.8.1-1c0 0 1.1-5.8 1.1-5.8c0-.2.1-.5.1-.8c0-.6-.3-1-1.1-1c-.8 0-1.9.7-3.4 2.7c.04-.02-1.1 7.2-1.1 7.2l-1.9 0l1.6-9.8l-1.8-.3c0 0 .05-.74 0-.7c1-.3 2.3-.6 3.9-.6zm9.7 10.9c-.5-.3-.9-.7-.9-1.5c0-.7.6-1.6 1.8-2.1c-1.3-.6-2-1.7-2-3c0-2.7 2.2-4.3 4.6-4.3c1 0 1.9.2 2.5.7c.6-.5 1.7-.8 3-.8c0 .6-.1 1-.4 1.5c0 0-1.8 0-1.8 0c.3.5.5 1.2.5 1.8c0 2.7-2.2 4.4-4.6 4.4c-.4 0-.7-.1-1.1-.1c-.5.4-.9.8-.9 1.2c0 .5.2.7.9.8c0 0 2.8.2 2.8.2c2.1.1 3 .7 3 2.2c0 2.1-2.4 4.2-6.1 4.2c-2.8 0-4.2-.9-4.2-2.5c0-1.4 1.2-2.3 2.9-2.7zm5.3-7.7c0-1.3-.6-2.3-1.8-2.3c-1.6 0-2.6 1.3-2.6 3.4c0 1.3.6 2.3 1.8 2.3c1.7 0 2.6-1.2 2.6-3.4zm-6.4 9.9c0 1.3 1 2 2.7 2c2.5 0 4-1 4-2.4c0-.9-.4-1.3-1.8-1.4c0 0-3.1-.2-3.1-.2c-1.2.5-1.8 1.2-1.8 2zm18.7-18c.1-.1.6-.1 1-.1c.4 0 .9 0 1.1.1c0 .8-.4 1.9-.7 2.6c-.2 0-.5.1-.9.1c-.4 0-.7-.1-.9-.1c0-.8.1-1.9.4-2.6zm1.1 4.9c0 0-1.4 8.8-1.4 8.8c0 .3-.1.6-.1.8c0 .6.3.7 1 .7c.02-.05 1 0 1 0c0 0-.16.72-.2.7c-.5.3-1.3.6-2.2.6c-1.1 0-1.6-.6-1.6-1.6c0-.2.1-.7.1-.9c.04 0 1.3-7.5 1.3-7.5l-1.8-.3c0 0 .04-.74 0-.7c1-.3 2.3-.6 3.9-.6zm6.4 0c0 0-.5 3-.5 3c1.2-2 2.4-3 4-3c1.5 0 2.2.8 2.2 1.9c0 .4 0 .7-.1.9c0 0-1.1 6-1.1 6c0 .4-.1.6-.1.9c0 .5.3.6 1 .6c.04-.05 1 0 1 0c0 0-.15.72-.1.7c-.6.3-1.3.6-2.3.6c-1.1 0-1.5-.6-1.5-1.5c0-.3 0-.8.1-1c0 0 1-5.8 1-5.8c.1-.2.1-.5.1-.8c0-.6-.3-1-1-1c-.9 0-1.9.7-3.4 2.7c-.01-.02-1.2 7.2-1.2 7.2l-1.9 0l1.6-9.8l-1.8-.3c0 0 .1-.74.1-.7c1-.3 2.2-.6 3.9-.6zm15.4 0c0 0 .5-1.9.5-1.9c.4-.1 1.1-.2 1.7-.2c.03-.03-.3 2.3-.3 2.3l2.9 0l-.2 1.2l-2.9 0c0 0-1.06 6.45-1.1 6.5c0 .4-.1.8-.1 1.2c0 .6.2 1.1.8 1.1c1 0 1.9-1.3 2.5-2.5c0 0 .6.2.6.2c-.8 2.3-2 3.7-3.8 3.7c-1.4 0-2-.7-2-2.1c0-.3 0-.6 0-1c.03.02 1.1-7.1 1.1-7.1l-1.8 0c0 0 .1-.75.1-.7c.4-.2 1-.6 2-.7zm12.2 9.1c0 0 1-5.8 1-5.8c.1-.2.1-.5.1-.8c0-.6-.2-1-1-1c-.9 0-1.9.7-3.4 2.7c.02-.04-1.1 7.2-1.1 7.2l-1.9 0l2.4-15.2l-2-.3c0 0 .1-.72.1-.7c1-.3 2.4-.6 4.1-.6c0 0-1.4 8.4-1.4 8.4c1.2-2 2.5-3 4-3c1.5 0 2.2.8 2.2 1.9c0 .4 0 .7 0 .9c0 0-1.1 6-1.1 6c-.1.4-.2.6-.2.9c0 .5.3.6 1.1.6c-.03-.05.9 0 .9 0c0 0-.12.72-.1.7c-.5.3-1.3.6-2.3.6c-1 0-1.5-.6-1.5-1.5c0-.3 0-.8.1-1zm11.4-9.1c2.1 0 3 1 3 2.4c0 2.2-1.7 3.4-5.6 3.4c0 0-1 0-1 0c-.1.7-.1 1.4-.1 2c0 1.6.9 2.4 1.9 2.4c1.4 0 2.4-.7 3.4-2.5c0 0 .7.3.7.3c-1.1 2.5-2.6 3.7-4.7 3.7c-2.3 0-3.3-1.4-3.3-4c0-3.6 1.6-7.7 5.7-7.7zm-3.4 5.1c0 0 .7 0 .7 0c2.5 0 3.7-.9 3.7-2.6c0-.9-.4-1.6-1.3-1.6c-1.6 0-2.6 2-3.1 4.2zm17.8-10.5c0 0-1.3 8.2-1.3 8.2c1-1.9 2.2-2.8 3.8-2.8c1.6 0 2.6 1.3 2.6 3.5c0 3.9-1.8 8.1-5.6 8.1c-1 0-1.7-.4-2.2-1c-.4.4-.9.8-1.3 1c-.04 0-.6-.2-.6-.2l2.5-15.2l-2-.3c0 0 .03-.72 0-.7c1-.3 2.5-.6 4.1-.6zm-1.5 9.4c0 0-1 6.1-1 6.1c.4.2.9.3 1.5.3c2.6 0 4.1-3.5 4.1-6.8c0-1.4-.5-2.1-1.6-2.1c-1.1 0-2 1-3 2.5zm14.3-4c3 0 3.9 1.9 3.9 4.1c0 3.6-1.8 7.6-5.6 7.6c-3 0-4-1.9-4-4.1c0-3.6 1.8-7.6 5.7-7.6zm-1.7 10.7c2.4 0 3.6-3.7 3.6-6.8c0-1.6-.6-3-2-3c-2.3 0-3.6 3.8-3.6 6.9c0 1.6.6 2.9 2 2.9zm15.6-10.7c0 0 1.4 9.3 1.4 9.3c2-3.1 3-5.3 3.1-7.7c.01-.04-1.6-.3-1.6-.3c0 0 .08-.74.1-.7c.7-.3 1.5-.5 2.3-.5c.9 0 1.1.6 1.1 1.2c0 1.5-.6 3.9-5.4 10.1c-.02 0-1.1 0-1.1 0c0 0-.81-5.25-.8-5.3c-.9 1.4-2.1 3.1-3.8 5.3c.02 0-1 0-1 0l-1.8-9.8l-1.5-.3c0 0 .07-.74.1-.7c.9-.3 1.9-.6 3.1-.6c0 0 1.6 9.4 1.6 9.4c1.4-2.2 2.4-3.9 2.9-5.5c.03.04-.4-2.3-.4-2.3l-1.4-.3c0 0 .03-.74 0-.7c.9-.3 2-.6 3.1-.6zm21.3 0c0 0 1.4 9.3 1.4 9.3c2-3.1 3-5.3 3.1-7.7c-.02-.04-1.6-.3-1.6-.3c0 0 .04-.74 0-.7c.7-.3 1.6-.5 2.4-.5c.8 0 1 .6 1 1.2c0 1.5-.6 3.9-5.4 10.1c.05 0-1 0-1 0c0 0-.85-5.25-.8-5.3c-.9 1.4-2.1 3.1-3.8 5.3c-.02 0-1.1 0-1.1 0l-1.7-9.8l-1.5-.3c0 0 .04-.74 0-.7c.9-.3 2-.6 3.1-.6c0 0 1.6 9.4 1.6 9.4c1.4-2.2 2.5-3.9 3-5.5c-.01.04-.4-2.3-.4-2.3l-1.5-.3c0 0 .09-.74.1-.7c.9-.3 1.9-.6 3.1-.6zm13 0c.9 0 1.6.4 2.1 1c.3-.4.9-.8 1.3-1c.03-.02.7.2.7.2c0 0-1.39 8.61-1.4 8.6c0 .3-.1.6-.1.8c0 .6.3.7 1 .7c.02-.05 1 0 1 0c0 0-.16.72-.2.7c-.5.3-1.3.6-2.2.6c-1.1 0-1.5-.6-1.5-1.6c0-.2.1-.7.1-.9c0 0 .1-.6.1-.6c-1 2.1-2.2 3.1-3.9 3.1c-1.6 0-2.6-1.3-2.6-3.6c0-3.8 1.9-8 5.6-8zm1 7.5c0 0 1-6 1-6c-.4-.2-.9-.4-1.5-.4c-2.6 0-4.1 3.6-4.1 6.8c0 1.5.5 2.2 1.6 2.2c1 0 2-1 3-2.6zm4.6-6.2c0 0 .04-.74 0-.7c.8-.3 2.1-.6 3.1-.6c.03-.02 1.6 9.4 1.6 9.4c0 0 .74-1.07.7-1.1c1.9-2.7 2.6-4.6 2.6-6.7c.03-.04-1.6-.3-1.6-.3c0 0 .07-.74.1-.7c.7-.3 1.5-.5 2.3-.5c.9 0 1.1.6 1.1 1.2c0 1.5-.6 3.4-4.2 8.2c.02-.02-1.4 1.9-1.4 1.9l-1.1 0l-1.7-9.8l-1.5-.3zm16.6-1.3c2 0 3 1 3 2.4c0 2.2-1.8 3.4-5.6 3.4c0 0-1 0-1 0c-.1.7-.1 1.4-.1 2c0 1.6.8 2.4 1.9 2.4c1.3 0 2.3-.7 3.4-2.5c0 0 .6.3.6.3c-1 2.5-2.6 3.7-4.6 3.7c-2.3 0-3.4-1.4-3.4-4c0-3.6 1.7-7.7 5.8-7.7zm-3.5 5.1c0 0 .8 0 .8 0c2.5 0 3.7-.9 3.7-2.6c0-.9-.4-1.6-1.3-1.6c-1.6 0-2.7 2-3.2 4.2zm8.2 2.9c-.05.04 1.2 0 1.2 0c0 0 .07 2.49.1 2.5c.5.1.9.1 1.3.1c1.3 0 2.4-.6 2.4-1.9c0-1.2-.9-1.5-2.1-2.2c0 0-.8-.5-.8-.5c-.9-.6-1.6-1.4-1.6-2.6c0-2.1 1.4-3.4 3.9-3.4c1.2 0 2.6.3 3.1.7c0 1-.3 2-.6 2.8c-.04.03-1.3 0-1.3 0c0 0-.08-2.44-.1-2.4c-.4-.1-.8-.2-1.2-.2c-1.3 0-2.2.7-2.2 2c0 .8.7 1.3 1.4 1.7c0 0 .9.5.9.5c1.3.7 2.5 1.3 2.5 3c0 2.2-1.7 3.5-4.4 3.5c-1.1 0-2.6-.3-3.2-.7c0-1 .3-2 .7-2.9zm19.8-8c2.9 0 3.9 1.9 3.9 4.1c0 3.6-1.8 7.6-5.7 7.6c-3 0-3.9-1.9-3.9-4.1c0-3.6 1.8-7.6 5.7-7.6zm-1.7 10.7c2.3 0 3.6-3.7 3.6-6.8c0-1.6-.6-3-2-3c-2.3 0-3.6 3.8-3.6 6.9c0 1.6.6 2.9 2 2.9zm9.3-10.7c0 0 .2-.7.2-.7c.5-3.2 1.9-4.7 4.8-4.7c1 0 2.3.1 2.8.3c-.1 1-.3 1.7-.6 2.6c-.04-.02-1.5 0-1.5 0c0 0 .02-1.91 0-1.9c-.2 0-.4 0-.6 0c-1.5 0-2.5.7-2.9 3.1c-.03.03-.2 1.5-.2 1.5l2.4 0l-.2 1.2l-2.4 0c0 0-1.55 9.81-1.6 9.8c-.4 3.1-2.4 4.9-4.3 4.9c-.7 0-1.3-.4-1.8-.9c0 0 .1-.8.1-.8c.4.1 1.1.2 1.6.2c1.9 0 2 0 2.5-3.2c.03 0 1.5-10 1.5-10l-1.9 0c0 0 .19-.75.2-.7c.4-.2 1-.5 1.9-.7zm14.7-5.4c0 0-2.3 14.2-2.3 14.2c0 .3-.1.6-.1.8c0 .6.3.7 1.1.7c-.05-.05.9 0 .9 0c0 0-.13.72-.1.7c-.6.3-1.3.6-2.3.6c-1 0-1.5-.6-1.5-1.6c0-.2 0-.7.1-.9c-.03 0 2.1-12.9 2.1-12.9l-2-.3c0 0 .04-.72 0-.7c1-.3 2.5-.6 4.1-.6zm7 5.4c.9 0 1.7.4 2.2 1c.3-.4.8-.8 1.3-1c-.02-.02.6.2.6.2c0 0-1.34 8.61-1.3 8.6c-.1.3-.1.6-.1.8c0 .6.2.7 1 .7c-.02-.05.9 0 .9 0c0 0-.11.72-.1.7c-.5.3-1.3.6-2.3.6c-1 0-1.4-.6-1.4-1.6c0-.2 0-.7.1-.9c0 0 .1-.6.1-.6c-1 2.1-2.3 3.1-3.9 3.1c-1.7 0-2.6-1.3-2.6-3.6c0-3.8 1.9-8 5.5-8zm1.1 7.5c0 0 .9-6 .9-6c-.4-.2-.9-.4-1.5-.4c-2.6 0-4 3.6-4 6.8c0 1.5.5 2.2 1.5 2.2c1.1 0 2.1-1 3.1-2.6zm9.4-7.5c0 0-.5 3.1-.5 3.1c1-2.1 2.1-3 3.4-3c.7 0 1.1.2 1.2.4c0 1-.2 2.2-.6 3c-.03.03-1.3 0-1.3 0l0-2c0 0-.07.02-.1 0c-.7 0-1.7 1-2.8 3.2c-.03-.04-1.1 6.7-1.1 6.7l-1.9 0l1.6-9.8l-1.8-.3c0 0 .05-.74.1-.7c.9-.3 2.2-.6 3.8-.6zm6.4 10.9c-.5-.3-.9-.7-.9-1.5c0-.7.6-1.6 1.9-2.1c-1.4-.6-2.1-1.7-2.1-3c0-2.7 2.2-4.3 4.6-4.3c1.1 0 1.9.2 2.5.7c.6-.5 1.7-.8 3-.8c0 .6-.1 1-.4 1.5c0 0-1.8 0-1.8 0c.4.5.6 1.2.6 1.8c0 2.7-2.2 4.4-4.6 4.4c-.4 0-.8-.1-1.1-.1c-.6.4-1 .8-1 1.2c0 .5.2.7.9.8c0 0 2.8.2 2.8.2c2.1.1 3 .7 3 2.2c0 2.1-2.3 4.2-6.1 4.2c-2.8 0-4.2-.9-4.2-2.5c0-1.4 1.2-2.3 2.9-2.7zm5.4-7.7c0-1.3-.6-2.3-1.9-2.3c-1.6 0-2.6 1.3-2.6 3.4c0 1.3.6 2.3 1.9 2.3c1.6 0 2.6-1.2 2.6-3.4zm-6.4 9.9c0 1.3 1 2 2.6 2c2.5 0 4-1 4-2.4c0-.9-.3-1.3-1.8-1.4c0 0-3.1-.2-3.1-.2c-1.2.5-1.7 1.2-1.7 2zm16-13.1c2 0 3 1 3 2.4c0 2.2-1.8 3.4-5.6 3.4c0 0-1 0-1 0c-.1.7-.2 1.4-.2 2c0 1.6.9 2.4 2 2.4c1.3 0 2.3-.7 3.4-2.5c0 0 .6.3.6.3c-1 2.5-2.6 3.7-4.6 3.7c-2.3 0-3.4-1.4-3.4-4c0-3.6 1.6-7.7 5.8-7.7zm-3.5 5.1c0 0 .8 0 .8 0c2.5 0 3.6-.9 3.6-2.6c0-.9-.3-1.6-1.2-1.6c-1.6 0-2.7 2-3.2 4.2zm17.8-10.5c0 0-1.3 8.2-1.3 8.2c1-1.9 2.2-2.8 3.8-2.8c1.7 0 2.6 1.3 2.6 3.5c0 3.9-1.8 8.1-5.6 8.1c-.9 0-1.7-.4-2.2-1c-.4.4-.8.8-1.3 1c0 0-.6-.2-.6-.2l2.5-15.2l-2-.3c0 0 .07-.72.1-.7c1-.3 2.4-.6 4-.6zm-1.5 9.4c0 0-.9 6.1-.9 6.1c.4.2.9.3 1.5.3c2.6 0 4-3.5 4-6.8c0-1.4-.5-2.1-1.5-2.1c-1.1 0-2.1 1-3.1 2.5zm14.3-4c3 0 4 1.9 4 4.1c0 3.6-1.9 7.6-5.7 7.6c-3 0-3.9-1.9-3.9-4.1c0-3.6 1.8-7.6 5.6-7.6zm-1.6 10.7c2.3 0 3.5-3.7 3.5-6.8c0-1.6-.5-3-2-3c-2.3 0-3.5 3.8-3.5 6.9c0 1.6.5 2.9 2 2.9zm13.2-10.7c.9 0 1.6.4 2.1 1c.3-.4.9-.8 1.3-1c.02-.02.6.2.6.2c0 0-1.3 8.61-1.3 8.6c0 .3-.1.6-.1.8c0 .6.2.7 1 .7c.01-.05 1 0 1 0c0 0-.17.72-.2.7c-.5.3-1.3.6-2.2.6c-1.1 0-1.5-.6-1.5-1.6c0-.2.1-.7.1-.9c0 0 .1-.6.1-.6c-1 2.1-2.3 3.1-3.9 3.1c-1.6 0-2.6-1.3-2.6-3.6c0-3.8 1.9-8 5.6-8zm1 7.5c0 0 1-6 1-6c-.4-.2-1-.4-1.6-.4c-2.5 0-4 3.6-4 6.8c0 1.5.5 2.2 1.5 2.2c1.1 0 2.1-1 3.1-2.6zm7.4-7.5c0 0 .5-1.9.5-1.9c.4-.1 1.1-.2 1.7-.2c0-.03-.4 2.3-.4 2.3l2.9 0l-.2 1.2l-2.9 0c0 0-.99 6.45-1 6.5c-.1.4-.1.8-.1 1.2c0 .6.2 1.1.8 1.1c.9 0 1.9-1.3 2.4-2.5c0 0 .7.2.7.2c-.8 2.3-2.1 3.7-3.8 3.7c-1.4 0-2.1-.7-2.1-2.1c0-.3 0-.6.1-1c0 .02 1.1-7.1 1.1-7.1l-1.9 0c0 0 .17-.75.2-.7c.4-.2 1-.6 2-.7zm6.4 8c.02.04 1.3 0 1.3 0c0 0 .04 2.49 0 2.5c.5.1 1 .1 1.4.1c1.3 0 2.4-.6 2.4-1.9c0-1.2-.9-1.5-2.1-2.2c0 0-.9-.5-.9-.5c-.9-.6-1.6-1.4-1.6-2.6c0-2.1 1.4-3.4 4-3.4c1.1 0 2.5.3 3.1.7c0 1-.3 2-.7 2.8c.03.03-1.2 0-1.2 0c0 0-.11-2.44-.1-2.4c-.4-.1-.9-.2-1.2-.2c-1.4 0-2.2.7-2.2 2c0 .8.7 1.3 1.4 1.7c0 0 .9.5.9.5c1.2.7 2.4 1.3 2.4 3c0 2.2-1.6 3.5-4.3 3.5c-1.1 0-2.7-.3-3.3-.7c0-1 .3-2 .7-2.9zm9.4 2.3c0-1.1.7-1.8 1.6-1.8c.8 0 1.3.5 1.3 1.4c0 1.1-.7 1.8-1.5 1.8c-.9 0-1.4-.5-1.4-1.4z" stroke="none" fill="#fff"/></g><g id="Polygon14371"><path d="m472.1 47.9c0 0 1.9-12.9 1.9-12.9c-.7-.1-1.3-.2-1.9-.4c.05.01.2-.9.2-.9l5.7 0c0 0-.14.91-.1.9c-.6.2-1 .3-1.8.4c0 0-1.9 12.9-1.9 12.9c.7 0 1.4.1 1.9.3c-.02.04-.2.9-.2.9l-5.8 0c0 0 .18-.86.2-.9c.5-.1 1-.3 1.8-.3zm6.6-2.2c.02.04 1.3 0 1.3 0c0 0 .04 2.49 0 2.5c.5.1 1 .1 1.4.1c1.3 0 2.4-.6 2.4-1.9c0-1.2-.9-1.5-2.1-2.2c0 0-.9-.5-.9-.5c-.9-.6-1.6-1.4-1.6-2.6c0-2.1 1.4-3.4 4-3.4c1.1 0 2.5.3 3.1.7c0 1-.3 2-.7 2.8c.04.03-1.2 0-1.2 0c0 0-.11-2.44-.1-2.4c-.4-.1-.9-.2-1.2-.2c-1.4 0-2.2.7-2.2 2c0 .8.7 1.3 1.4 1.7c0 0 .9.5.9.5c1.2.7 2.4 1.3 2.4 3c0 2.2-1.6 3.5-4.3 3.5c-1.1 0-2.7-.3-3.2-.7c0-1 .2-2 .6-2.9zm13.8-13.4c0 0-2.3 14.2-2.3 14.2c-.1.3-.1.6-.1.8c0 .6.2.7 1 .7c.01-.05 1 0 1 0c0 0-.18.72-.2.7c-.5.3-1.3.6-2.2.6c-1.1 0-1.6-.6-1.6-1.6c0-.2.1-.7.1-.9c.03 0 2.1-12.9 2.1-12.9l-2-.3c0 0 .1-.72.1-.7c1-.3 2.4-.6 4.1-.6zm7 5.4c.9 0 1.6.4 2.1 1c.4-.4.9-.8 1.3-1c.04-.02.7.2.7.2c0 0-1.38 8.61-1.4 8.6c0 .3-.1.6-.1.8c0 .6.3.7 1 .7c.03-.05 1 0 1 0c0 0-.15.72-.2.7c-.5.3-1.2.6-2.2.6c-1.1 0-1.4-.6-1.4-1.6c0-.2 0-.7 0-.9c0 0 .1-.6.1-.6c-1 2.1-2.2 3.1-3.9 3.1c-1.6 0-2.6-1.3-2.6-3.6c0-3.8 1.9-8 5.6-8zm1 7.5c0 0 1-6 1-6c-.4-.2-.9-.4-1.5-.4c-2.6 0-4.1 3.6-4.1 6.8c0 1.5.5 2.2 1.6 2.2c1 0 2-1 3-2.6zm9.5-7.5c0 0-.5 3-.5 3c1.2-2 2.4-3 4-3c1.5 0 2.2.8 2.2 1.9c0 .4 0 .7-.1.9c0 0-1.1 6-1.1 6c0 .4-.1.6-.1.9c0 .5.3.6 1 .6c.04-.05 1 0 1 0c0 0-.14.72-.1.7c-.6.3-1.3.6-2.3.6c-1.1 0-1.5-.6-1.5-1.5c0-.3 0-.8.1-1c0 0 1-5.8 1-5.8c.1-.2.1-.5.1-.8c0-.6-.3-1-1-1c-.9 0-1.9.7-3.4 2.7c0-.02-1.2 7.2-1.2 7.2l-1.9 0l1.6-9.8l-1.8-.3c0 0 .11-.74.1-.7c1-.3 2.2-.6 3.9-.6zm18.9-5.4c0 0-2.2 14.2-2.2 14.2c-.1.3-.1.6-.1.8c0 .6.2.7 1 .7c-.04-.05.9 0 .9 0c0 0-.12.72-.1.7c-.5.3-1.3.6-2.3.6c-1 0-1.4-.6-1.4-1.6c0-.2 0-.7.1-.9c0 0 .1-.6.1-.6c-1.1 2.1-2.3 3.1-4 3.1c-1.6 0-2.6-1.3-2.6-3.6c0-3.8 2-8 5.6-8c.9 0 1.6.3 2.1.9c.03-.01.8-4.7.8-4.7l-2-.3c0 0 .05-.72.1-.7c.9-.3 2.4-.6 4-.6zm-4 12.9c0 0 1-6 1-6c-.4-.2-.9-.4-1.5-.4c-2.6 0-4 3.6-4 6.8c0 1.5.4 2.2 1.5 2.2c1.1 0 2.1-1 3-2.6zm11.3 2.7c0 0 1.9-12.9 1.9-12.9c-.7-.1-1.3-.2-1.8-.4c-.05.01.1-.9.1-.9c0 0 11.08.04 11.1 0c0 1.3-.1 2.6-.6 4.1c.01-.02-1 0-1 0l-.2-2.9l-5.4 0l-1 5.9c0 0 3.34.05 3.3 0c.2-.5.4-1.2.7-1.7c0 0 1 0 1 0c0 1.7-.3 3.7-.7 5.1c0 0-1 0-1 0c-.1-.7-.1-1.5-.1-2.2c-.01 0-3.3 0-3.3 0l-1 6l5.5 0l1.5-2.9c0 0 1.13-.03 1.1 0c0 1-.4 2.9-.9 4c-.03 0-11.2 0-11.2 0c0 0 .18-.86.2-.9c.5-.1 1-.3 1.8-.3zm15.7-10.2c.02-.02 1.4 4.5 1.4 4.5c0 0 2.56-4.14 2.6-4.1c.9-.2 1.4-.2 2.3-.2c0 0-.2.8-.2.8c-.2.2-.6.4-1.1.5c.02.02-3.2 4.1-3.2 4.1c0 0 1.3 3.5 1.3 3.5c.3 1 .5 1.2 1.3 1.2c.04-.05.9 0 .9 0c0 0-.09.72-.1.7c-.5.3-1 .6-1.8.6c-1 0-1.6-.5-2-1.7c-.03-.03-.9-2.8-.9-2.8l-2.7 4.3l-2.3 0c0 0 .16-.86.2-.9c.2-.1.7-.3 1.3-.4c-.05-.02 3.1-4.1 3.1-4.1l-1.5-4.4l-1.7-.3c0 0 .03-.74 0-.7c.8-.3 2.1-.6 3.1-.6zm11.1 0c0 0-.5 2.8-.5 2.8c1-1.9 2.2-2.8 3.8-2.8c1.7 0 2.6 1.3 2.6 3.5c0 3.9-1.8 8.1-5.5 8.1c-.9 0-1.6-.3-2.1-.9c0 0-.7 4.1-.7 4.1c.9 0 1.6.2 2.2.3c0 .05-.1.8-.1.8l-5.8 0c0 0 .18-.75.2-.8c.5-.1.9-.3 1.6-.3c-.03-.04 2.2-13.2 2.2-13.2l-1.8-.3c0 0 .02-.74 0-.7c1-.3 2.3-.6 3.9-.6zm-.7 4.1c0 0-.9 6-.9 6c.4.2.9.3 1.5.3c2.6 0 4-3.5 4-6.8c0-1.4-.5-2.1-1.5-2.1c-1.1 0-2.1 1-3.1 2.6zm13-9.5c0 0-2.3 14.2-2.3 14.2c0 .3-.1.6-.1.8c0 .6.3.7 1.1.7c-.04-.05.9 0 .9 0c0 0-.13.72-.1.7c-.6.3-1.3.6-2.3.6c-1 0-1.5-.6-1.5-1.6c0-.2 0-.7.1-.9c-.02 0 2.1-12.9 2.1-12.9l-2-.3c0 0 .04-.72 0-.7c1-.3 2.5-.6 4.1-.6zm7 5.4c3 0 4 1.9 4 4.1c0 3.6-1.9 7.6-5.7 7.6c-3 0-3.9-1.9-3.9-4.1c0-3.6 1.8-7.6 5.6-7.6zm-1.6 10.7c2.3 0 3.6-3.7 3.6-6.8c0-1.6-.6-3-2.1-3c-2.3 0-3.5 3.8-3.5 6.9c0 1.6.6 2.9 2 2.9zm11.5-10.7c0 0-.5 3.1-.5 3.1c1-2.1 2.2-3 3.4-3c.7 0 1.1.2 1.3.4c0 1-.3 2.2-.7 3c0 .03-1.2 0-1.2 0l-.1-2c0 0-.04.02 0 0c-.8 0-1.7 1-2.9 3.2c0-.04-1.1 6.7-1.1 6.7l-1.9 0l1.6-9.8l-1.8-.3c0 0 .08-.74.1-.7c1-.3 2.2-.6 3.8-.6zm10.4 0c2.1 0 3 1 3 2.4c0 2.2-1.7 3.4-5.6 3.4c0 0-1 0-1 0c-.1.7-.1 1.4-.1 2c0 1.6.9 2.4 1.9 2.4c1.4 0 2.4-.7 3.4-2.5c0 0 .7.3.7.3c-1.1 2.5-2.6 3.7-4.7 3.7c-2.3 0-3.3-1.4-3.3-4c0-3.6 1.6-7.7 5.7-7.7zm-3.4 5.1c0 0 .7 0 .7 0c2.5 0 3.7-.9 3.7-2.6c0-.9-.4-1.6-1.3-1.6c-1.6 0-2.6 2-3.1 4.2zm12-5.1c0 0-.5 3.1-.5 3.1c1-2.1 2.1-3 3.4-3c.7 0 1 .2 1.2.4c0 1-.3 2.2-.6 3c-.04.03-1.3 0-1.3 0l-.1-2c0 0 .02.02 0 0c-.7 0-1.7 1-2.8 3.2c-.04-.04-1.1 6.7-1.1 6.7l-1.9 0l1.6-9.8l-1.8-.3c0 0 .04-.74 0-.7c1-.3 2.3-.6 3.9-.6z" stroke="none" fill="#fff"/></g></svg>