<?xml version="1.0" standalone="no"?><!DOCTYPE svg PUBLIC "-//W3C//DTD SVG 1.1//EN" "http://www.w3.org/Graphics/SVG/1.1/DTD/svg11.dtd"><svg xmlns="http://www.w3.org/2000/svg" version="1.1" width="195px" height="47.5px" viewBox="0 0 195 47.5"><desc>San Miguel Island 9,325 acres</desc><defs/><g id="Polygon6707"><path d="m.8 34c.2 0 .3 0 .6 0c.4 0 .8-.1 1.1-.3c.4-.3.7-.7.8-1.1c0 0 0 0 0 0c-.3.2-.7.4-1.2.4c-1 0-1.8-.7-1.8-1.8c0-1.2.9-2.1 2.2-2.1c1.5 0 2.2 1.1 2.2 2.5c0 1.2-.4 2.1-1 2.7c-.6.5-1.4.7-2.3.8c-.2 0-.4 0-.6 0c0 0 0-1.1 0-1.1zm.8-2.9c0 .5.3.9.9.9c.3 0 .6-.2.7-.4c.1-.1.1-.1.1-.3c0-.6-.2-1.2-.9-1.2c-.4 0-.8.4-.8 1zm3.4 5c.3-.8.5-1.8.7-2.6c0 0 1.4-.1 1.4-.1c-.3.9-.7 1.9-1.2 2.6c0 0-.9.1-.9.1zm3-2.4c.2.1.8.3 1.3.3c.7 0 1.1-.3 1.1-.8c0-.5-.6-.8-1.2-.8c.01 0-.6 0-.6 0l0-1c0 0 .59.02.6 0c.4 0 1-.2 1-.7c0-.3-.3-.6-.8-.6c-.5 0-1 .2-1.3.4c0 0-.2-1-.2-1c.3-.2 1-.4 1.8-.4c1.2 0 1.9.6 1.9 1.4c0 .6-.3 1.1-1.1 1.4c0 0 0 0 0 0c.7.1 1.3.6 1.3 1.4c0 1-.9 1.8-2.4 1.8c-.7 0-1.4-.2-1.7-.4c0 0 .3-1 .3-1zm4.7 1.3l0-.8c0 0 .76-.7.8-.7c1.3-1.2 1.9-1.8 1.9-2.5c0-.5-.3-.9-1-.9c-.5 0-.9.3-1.2.5c0 0-.4-.9-.4-.9c.4-.4 1.1-.6 1.9-.6c1.3 0 2 .7 2 1.8c0 1-.7 1.8-1.5 2.5c-.01.01-.5.5-.5.5l0 0l2.2 0l0 1.1l-4.2 0zm8.9-4.7l-2.3 0c0 0-.09.88-.1.9c.1 0 .2 0 .4 0c.6 0 1.1.1 1.5.4c.5.3.7.8.7 1.4c0 1.1-.9 2.1-2.5 2.1c-.7 0-1.3-.2-1.6-.3c0 0 .3-1.1.3-1.1c.2.2.7.3 1.3.3c.5 0 1.1-.2 1.1-.9c0-.6-.4-.9-1.6-.9c-.3 0-.6 0-.8 0c.01.02.4-3 .4-3l3.2 0l0 1.1zm6.7 3.6c0 .5.1.9.1 1.1c.02 0-1.2 0-1.2 0l-.1-.4c0 0-.02-.04 0 0c-.3.3-.8.5-1.3.5c-.9 0-1.4-.6-1.4-1.4c0-1.1 1-1.6 2.6-1.6c0 0 0-.1 0-.1c0-.2-.1-.6-.8-.6c-.5 0-.9.2-1.2.4c0 0-.3-.9-.3-.9c.3-.2.9-.4 1.7-.4c1.5 0 1.9.9 1.9 1.9c0 0 0 1.5 0 1.5zm-1.3-1c-.7 0-1.3.2-1.3.7c0 .4.3.5.6.5c.3 0 .6-.2.7-.5c0 0 0-.1 0-.2c0 0 0-.5 0-.5zm5.7 2c-.2.1-.7.2-1.2.2c-1.4 0-2.3-.9-2.3-2.3c0-1.2.9-2.3 2.5-2.3c.4 0 .8.1 1.1.2c0 0-.3 1-.3 1c-.1-.1-.4-.1-.7-.1c-.8 0-1.2.5-1.2 1.2c0 .8.5 1.2 1.2 1.2c.3 0 .6 0 .8-.1c0 0 .1 1 .1 1zm.8-2.9c0-.6 0-1 0-1.4c-.04 0 1.1 0 1.1 0l.1.8c0 0 .02.01 0 0c.2-.6.8-.9 1.2-.9c.1 0 .2 0 .3 0c0 0 0 1.3 0 1.3c-.1 0-.2 0-.4 0c-.5 0-.8.2-.9.7c0 .1 0 .2 0 .3c-.03-.03 0 2.2 0 2.2l-1.4 0c0 0 0-2.95 0-3zm4.4 1.2c0 .6.6.9 1.2.9c.5 0 .9-.1 1.3-.2c0 0 .1.9.1.9c-.4.2-1 .3-1.6.3c-1.5 0-2.3-.9-2.3-2.3c0-1.1.7-2.3 2.2-2.3c1.4 0 2 1.1 2 2.2c0 .2 0 .4-.1.5c0 0-2.8 0-2.8 0zm1.6-.9c0-.3-.1-.9-.8-.9c-.5 0-.8.5-.8.9c0 0 1.6 0 1.6 0zm2.1 1.5c.2.2.8.3 1.2.3c.4 0 .6-.1.6-.3c0-.3-.2-.4-.7-.5c-.9-.3-1.3-.8-1.2-1.4c0-.8.7-1.4 1.7-1.4c.6 0 1 .1 1.3.3c0 0-.3.9-.3.9c-.2-.1-.5-.3-.9-.3c-.3 0-.5.2-.5.4c0 .2.1.3.7.5c.8.3 1.2.7 1.2 1.4c0 .8-.7 1.4-1.9 1.4c-.6 0-1.1-.1-1.5-.3c0 0 .3-1 .3-1z" stroke="none" fill="#000"/></g><g id="Polygon6706"><path d="m1.4 11.9c.8.4 2.1.8 3.4.8c1.4 0 2.1-.6 2.1-1.5c0-.8-.6-1.3-2.2-1.8c-2.3-.8-3.7-2.1-3.7-4c0-2.3 1.9-4.1 5.1-4.1c1.5 0 2.6.3 3.4.7c0 0-.7 2.4-.7 2.4c-.5-.2-1.5-.6-2.8-.6c-1.3 0-1.9.6-1.9 1.3c0 .9.7 1.2 2.5 1.9c2.3.9 3.4 2.1 3.4 4c0 2.3-1.7 4.2-5.4 4.2c-1.5 0-3-.4-3.8-.8c0 0 .6-2.5.6-2.5zm18.9.7c0 1 .1 1.9.2 2.4c-.02 0-2.8 0-2.8 0l-.1-1c0 0-.1.02-.1 0c-.6.8-1.6 1.2-2.8 1.2c-2 0-3.2-1.4-3.2-3c0-2.5 2.3-3.7 5.8-3.7c0 0 0-.1 0-.1c0-.6-.3-1.3-1.8-1.3c-1 0-2.1.3-2.7.7c0 0-.6-1.9-.6-1.9c.7-.4 2.1-.9 3.8-.9c3.3 0 4.3 1.9 4.3 4.2c0 0 0 3.4 0 3.4zm-2.9-2.2c-1.6 0-2.9.4-2.9 1.5c0 .8.6 1.2 1.2 1.2c.8 0 1.4-.5 1.6-1.1c.1-.2.1-.4.1-.6c0 0 0-1 0-1zm5.3-2.1c0-1.2 0-2.2 0-3.1c-.04.02 2.6 0 2.6 0l.1 1.4c0 0 .1-.02.1 0c.4-.7 1.4-1.6 3-1.6c2 0 3.5 1.3 3.5 4.2c.02.02 0 5.8 0 5.8l-3 0c0 0-.02-5.42 0-5.4c0-1.3-.5-2.1-1.6-2.1c-.8 0-1.3.5-1.5 1.1c-.1.2-.1.5-.1.8c-.02-.04 0 5.6 0 5.6l-3.1 0c0 0 .04-6.66 0-6.7zm27.3 1.5c-.1-1.6-.1-3.5-.1-5.5c0 0-.1 0-.1 0c-.4 1.7-1 3.6-1.5 5.2c.02.02-1.6 5.3-1.6 5.3l-2.4 0c0 0-1.44-5.22-1.4-5.2c-.5-1.6-.9-3.5-1.3-5.3c0 0 0 0 0 0c-.1 1.8-.1 3.9-.2 5.6c-.02-.02-.3 5.1-.3 5.1l-2.8 0l.9-13.5l4 0c0 0 1.34 4.52 1.3 4.5c.5 1.6.9 3.3 1.2 4.8c0 0 .1 0 .1 0c.3-1.5.8-3.3 1.2-4.8c.04 0 1.5-4.5 1.5-4.5l4 0l.7 13.5l-3 0c0 0-.2-5.16-.2-5.2zm5.5 5.2l0-9.8l3.1 0l0 9.8l-3.1 0zm3.2-12.5c0 .8-.6 1.5-1.7 1.5c-.9 0-1.5-.7-1.5-1.5c0-.9.6-1.5 1.6-1.5c1 0 1.6.6 1.6 1.5zm11.6 11.1c0 1.9-.4 3.4-1.5 4.4c-1.1.9-2.5 1.2-4 1.2c-1.3 0-2.6-.3-3.5-.8c0 0 .6-2.3.6-2.3c.6.4 1.7.8 2.8.8c1.5 0 2.6-.8 2.6-2.6c-.02-.02 0-.6 0-.6c0 0-.06-.04-.1 0c-.5.8-1.5 1.2-2.6 1.2c-2.4 0-4.1-1.9-4.1-4.7c0-3.2 2-5.2 4.4-5.2c1.3 0 2.2.6 2.7 1.4c-.02 0 0 0 0 0l.1-1.2c0 0 2.66.02 2.7 0c-.1.7-.1 1.5-.1 2.9c0 0 0 5.5 0 5.5zm-3.1-4.4c0-.2 0-.4 0-.6c-.2-.8-.8-1.3-1.7-1.3c-1.1 0-2 1-2 2.8c0 1.4.8 2.6 2 2.6c.8 0 1.4-.5 1.6-1.2c.1-.3.1-.6.1-.9c0 0 0-1.4 0-1.4zm14.7 2.7c0 1.2.1 2.3.1 3.1c.02 0-2.6 0-2.6 0l-.2-1.4c0 0-.02.02 0 0c-.4.6-1.3 1.6-3.1 1.6c-2 0-3.4-1.2-3.4-4.2c-.02-.04 0-5.8 0-5.8l3 0c0 0 .02 5.28 0 5.3c0 1.4.5 2.3 1.6 2.3c.8 0 1.3-.6 1.5-1.1c.1-.2.1-.4.1-.7c0 .04 0-5.8 0-5.8l3 0c0 0 .04 6.66 0 6.7zm4.8-.8c.1 1.2 1.4 1.8 2.8 1.8c1 0 1.9-.1 2.7-.4c0 0 .4 2.1.4 2.1c-1 .4-2.2.6-3.6.6c-3.3 0-5.2-1.9-5.2-5c0-2.5 1.6-5.2 5-5.2c3.1 0 4.3 2.5 4.3 4.9c0 .5 0 1-.1 1.2c0 0-6.3 0-6.3 0zm3.6-2.1c0-.7-.3-2-1.7-2c-1.3 0-1.8 1.2-1.9 2c0 0 3.6 0 3.6 0zm4.6-8.2l3.1 0l0 14.2l-3.1 0l0-14.2zm12.7.7l0 13.5l-3 0l0-13.5l3 0zm2.5 10.9c.6.3 1.7.7 2.6.7c.9 0 1.3-.3 1.3-.8c0-.5-.3-.8-1.4-1.2c-2-.6-2.8-1.7-2.8-2.9c0-1.8 1.6-3.2 4-3.2c1.1 0 2.1.3 2.7.6c0 0-.5 2.1-.5 2.1c-.4-.3-1.3-.6-2.1-.6c-.8 0-1.2.3-1.2.8c0 .5.4.7 1.6 1.1c1.9.7 2.6 1.6 2.6 3c0 1.9-1.4 3.2-4.2 3.2c-1.3 0-2.4-.3-3.1-.7c0 0 .5-2.1.5-2.1zm8.7-11.6l3 0l0 14.2l-3 0l0-14.2zm13.6 11.8c0 1 .1 1.9.2 2.4c0 0-2.7 0-2.7 0l-.2-1c0 0-.08.02-.1 0c-.6.8-1.6 1.2-2.8 1.2c-2 0-3.1-1.4-3.1-3c0-2.5 2.2-3.7 5.7-3.7c0 0 0-.1 0-.1c0-.6-.3-1.3-1.8-1.3c-1 0-2 .3-2.7.7c0 0-.5-1.9-.5-1.9c.6-.4 2-.9 3.8-.9c3.2 0 4.2 1.9 4.2 4.2c0 0 0 3.4 0 3.4zm-2.9-2.2c-1.6 0-2.8.4-2.8 1.5c0 .8.5 1.2 1.2 1.2c.7 0 1.3-.5 1.5-1.1c.1-.2.1-.4.1-.6c0 0 0-1 0-1zm5.4-2.1c0-1.2-.1-2.2-.1-3.1c-.02.02 2.6 0 2.6 0l.2 1.4c0 0 .02-.02 0 0c.4-.7 1.4-1.6 3-1.6c2 0 3.5 1.3 3.5 4.2c.04.02 0 5.8 0 5.8l-3 0c0 0 0-5.42 0-5.4c0-1.3-.4-2.1-1.5-2.1c-.9 0-1.4.5-1.6 1.1c-.1.2-.1.5-.1.8c0-.04 0 5.6 0 5.6l-3 0c0 0-.04-6.66 0-6.7zm21.2-7.5c0 0-.04 11.28 0 11.3c0 1.1 0 2.2 0 2.9c.04 0-2.7 0-2.7 0l-.1-1.4c0 0-.04-.02 0 0c-.6 1.1-1.8 1.6-3.1 1.6c-2.3 0-4.2-2-4.2-5c0-3.3 2.1-5.2 4.4-5.2c1.2 0 2.1.4 2.6 1.1c-.02-.02 0 0 0 0l0-5.3l3.1 0zm-3.1 8.6c0-.2 0-.4 0-.6c-.2-.8-.9-1.5-1.8-1.5c-1.4 0-2.1 1.3-2.1 2.8c0 1.7.8 2.7 2.1 2.7c.9 0 1.6-.6 1.8-1.5c0-.2 0-.4 0-.7c0 0 0-1.2 0-1.2z" stroke="none" fill="#000"/></g></svg>