<?xml version="1.0" standalone="no"?><!DOCTYPE svg PUBLIC "-//W3C//DTD SVG 1.1//EN" "http://www.w3.org/Graphics/SVG/1.1/DTD/svg11.dtd"><svg xmlns="http://www.w3.org/2000/svg" version="1.1" width="190px" height="187.2px" viewBox="0 0 190 187.2"><desc>Di dolo conserchil imporep reheniendae nos ventium et fuga Percia plit imolupic tem doluptati berro expe prercia cor</desc><defs/><g id="Polygon5905"><path d="m7.2 162.2c-.8.1-1 .3-1.4 1.2c-.5 1.1-1.3 2.9-2.1 5.2c0 0-.4 0-.4 0c-.7-1.8-1.4-3.5-2.1-5.3c-.3-.9-.4-1-1.2-1.1c-.03.02 0-.4 0-.4l3 0c0 0 .04.42 0 .4c-.8.1-.8.2-.6.9c.4 1 1 2.6 1.5 3.7c.5-1.2 1-2.6 1.3-3.6c.2-.7.1-.9-.7-1c-.01.02 0-.4 0-.4l2.7 0c0 0-.05.42 0 .4zm6.7 2.8c0 2.4-1.7 3.6-3.2 3.6c-2.1 0-3.3-1.7-3.3-3.3c0-2.5 1.9-3.6 3.3-3.6c1.8 0 3.2 1.5 3.2 3.3zm-5.1-.2c0 1.9.8 3.3 2 3.3c1 0 1.7-.7 1.7-2.8c0-1.7-.7-3.1-2-3.1c-.9 0-1.7.9-1.7 2.6zm5.8 3.6c0 0 0-.39 0-.4c.9-.1 1.1-.2 1.1-1.2c0 0 0-7.1 0-7.1c0-1-.1-1-1.1-1.1c0 0 0-.4 0-.4c.8 0 1.8-.3 2.3-.5c0 0 0 9.1 0 9.1c0 1 .1 1.1 1 1.2c.04.01 0 .4 0 .4l-3.3 0zm11.2-.4c-.7.1-1.5.4-2.2.6c-.05-.02-.1-.1-.1-.1c0 0-.04-1.07 0-1.1c-.4.3-.7.6-1.1.8c-.5.3-.8.4-1.2.4c-1 0-1.9-.6-1.9-2.3c0 0 0-2.9 0-2.9c0-.8 0-.9-.9-1c0 0 0-.4 0-.4c.7 0 1.4-.1 2.2-.3c-.1.5-.1 1.2-.1 2.2c0 0 0 2 0 2c0 1.4.7 1.7 1.3 1.7c.6 0 1.2-.2 1.7-.7c0 0 0-3.5 0-3.5c0-.8-.1-.9-1.2-1c0 0 0-.4 0-.4c.8 0 1.6-.1 2.3-.3c0 0 0 5.1 0 5.1c0 .7.2.8.7.8c.04.04.5.1.5.1c0 0-.04.34 0 .3zm3.9-6.1c.3-.2.5-.2.7-.2c1.7 0 2.7 1.3 2.7 2.8c0 2.3-1.8 3.7-3.8 4.1c-.4 0-.8-.2-1-.3c0 0 0 2 0 2c0 1.1.1 1.2 1.3 1.3c-.02 0 0 .4 0 .4l-3.6 0c0 0 .03-.4 0-.4c1-.1 1.1-.2 1.1-1.2c0 0 0-6.8 0-6.8c0-.9 0-1-1-1.1c0 0 0-.3 0-.3c.7-.1 1.5-.4 2.2-.7c.01.02 0 1.2 0 1.2c0 0 1.39-.81 1.4-.8zm-1.4 5.4c.3.3.9.5 1.4.5c1.3 0 2.1-1 2.1-2.7c0-1.6-.9-2.5-2-2.5c-.5 0-1.1.3-1.5.6c0 0 0 4.1 0 4.1zm8.6 1.1c-.2.1-.5.2-.6.2c-1 0-1.5-.6-1.5-1.8c.02 0 0-4.4 0-4.4l-1 0l-.1-.1l.4-.5l.7 0l0-1l1-1l.2 0l0 2c0 0 1.7.05 1.7 0c.1.2.1.5-.1.6c.01.03-1.6 0-1.6 0c0 0 0 3.89 0 3.9c0 1.2.5 1.4.9 1.4c.3 0 .7-.1.9-.2c0-.03.1.4.1.4c0 0-.98.49-1 .5zm6.4.2c-.2 0-.5-.2-.7-.3c-.2-.2-.2-.4-.3-.7c-.6.4-1.3 1-1.8 1c-1.1 0-1.8-.9-1.8-1.8c0-.8.4-1.2 1.2-1.5c.9-.3 2-.7 2.4-1c0 0 0-.3 0-.3c0-1.1-.6-1.7-1.3-1.7c-.3 0-.5.1-.7.3c-.2.2-.3.6-.4 1c-.1.3-.3.4-.5.4c-.2 0-.6-.3-.6-.7c0-.2.2-.4.5-.6c.4-.3 1.3-.9 2.2-1c.5 0 .9.1 1.2.4c.6.4.7 1 .7 1.8c0 0 0 2.8 0 2.8c0 .7.3.9.5.9c.2 0 .4-.1.6-.2c-.03.03.1.4.1.4c0 0-1.25.78-1.3.8zm-1-3.8c-.4.2-1.1.5-1.4.6c-.6.3-.9.6-.9 1.1c0 .8.6 1.2 1.1 1.2c.3 0 .9-.3 1.2-.6c0 0 0-2.3 0-2.3zm5.6 3.6c-.3.1-.5.2-.7.2c-.9 0-1.4-.6-1.4-1.8c-.02 0 0-4.4 0-4.4l-1.1 0l0-.1l.4-.5l.7 0l0-1l1-1l.2 0l0 2c0 0 1.66.05 1.7 0c.1.2 0 .5-.1.6c-.03.03-1.6 0-1.6 0c0 0-.04 3.89 0 3.9c0 1.2.5 1.4.8 1.4c.4 0 .8-.1 1-.2c-.04-.03.1.4.1.4c0 0-1.02.49-1 .5zm10.4-1.3c-.9 1.2-1.9 1.5-2.4 1.5c-1.9 0-2.9-1.5-2.9-3.2c0-1 .3-2 1-2.6c.6-.7 1.4-1.1 2.2-1.1c1.2 0 2.2 1.1 2.2 2.2c0 .3-.1.5-.3.5c-.3.1-2.2.2-4 .3c.1 2 1.2 2.9 2.3 2.9c.6 0 1.2-.3 1.7-.8c0 0 .2.3.2.3zm-4.1-3c.9 0 1.7 0 2.6-.1c.2 0 .3-.1.3-.3c0-.8-.5-1.5-1.3-1.5c-.7 0-1.4.7-1.6 1.9zm8 4.3c-.2.1-.5.2-.6.2c-.9 0-1.5-.6-1.5-1.8c.03 0 0-4.4 0-4.4l-1 0l-.1-.1l.4-.5l.7 0l0-1l1-1l.2 0l0 2c0 0 1.71.05 1.7 0c.1.2.1.5-.1.6c.02.03-1.6 0-1.6 0c0 0 .02 3.89 0 3.9c0 1.2.5 1.4.9 1.4c.4 0 .7-.1.9-.2c.02-.03.2.4.2.4c0 0-1.07.49-1.1.5zm9.8.2c-.2 0-.6-.2-.7-.3c-.2-.2-.3-.4-.4-.7c-.6.4-1.3 1-1.8 1c-1 0-1.8-.9-1.8-1.8c0-.8.4-1.2 1.3-1.5c.9-.3 2-.7 2.3-1c0 0 0-.3 0-.3c0-1.1-.5-1.7-1.3-1.7c-.3 0-.5.1-.6.3c-.2.2-.4.6-.5 1c-.1.3-.2.4-.4.4c-.3 0-.7-.3-.7-.7c0-.2.2-.4.5-.6c.4-.3 1.4-.9 2.2-1c.5 0 .9.1 1.3.4c.5.4.6 1 .6 1.8c0 0 0 2.8 0 2.8c0 .7.3.9.6.9c.1 0 .4-.1.5-.2c.01.03.2.4.2.4c0 0-1.32.78-1.3.8zm-1.1-3.8c-.3.2-1 .5-1.4.6c-.5.3-.9.6-.9 1.1c0 .8.6 1.2 1.1 1.2c.4 0 .9-.3 1.2-.6c0 0 0-2.3 0-2.3zm11.1 3.6c0 0-.04-.39 0-.4c.8-.1 1-.1 1-1.2c0 0 0-2.5 0-2.5c0-1.1-.4-1.7-1.3-1.7c-.6 0-1.1.3-1.7.7c0 .2.1.4.1.7c0 0 0 2.9 0 2.9c0 .9.1 1 .9 1.1c.01.01 0 .4 0 .4l-3.2 0c0 0 0-.39 0-.4c.9-.1 1.1-.2 1.1-1.1c0 0 0-2.6 0-2.6c0-1.1-.4-1.7-1.3-1.7c-.6 0-1.2.4-1.7.7c0 0 0 3.6 0 3.6c0 .9.1 1 .9 1.1c-.02.01 0 .4 0 .4l-3.2 0c0 0 .02-.39 0-.4c1-.1 1.1-.2 1.1-1.1c0 0 0-3.1 0-3.1c0-1 0-1.1-.9-1.2c0 0 0-.4 0-.4c.7-.1 1.5-.3 2.1-.6c0 0 0 1.2 0 1.2c.3-.2.7-.4 1.1-.7c.4-.3.8-.4 1.2-.4c.8 0 1.4.4 1.7 1.2c.4-.3.9-.6 1.2-.8c.4-.3.8-.4 1.2-.4c1.1 0 1.9.8 1.9 2.3c0 0 0 2.9 0 2.9c0 1 .1 1 1 1.1c-.05.01 0 .4 0 .4l-3.2 0zm14.7-.4c-.7.1-1.5.4-2.2.6c-.03-.02-.1-.1-.1-.1c0 0-.02-1.07 0-1.1c-.4.3-.7.6-1.1.8c-.5.3-.8.4-1.2.4c-1 0-1.8-.6-1.8-2.3c0 0 0-2.9 0-2.9c0-.8-.1-.9-1-1c0 0 0-.4 0-.4c.7 0 1.5-.1 2.2-.3c-.1.5-.1 1.2-.1 2.2c0 0 0 2 0 2c0 1.4.7 1.7 1.4 1.7c.5 0 1.1-.2 1.6-.7c0 0 0-3.5 0-3.5c0-.8-.1-.9-1.2-1c0 0 0-.4 0-.4c.8 0 1.6-.1 2.4-.3c0 0 0 5.1 0 5.1c0 .7.1.8.7.8c-.05.04.4.1.4.1c0 0-.03.34 0 .3zm.5.4c0 0-.03-.39 0-.4c.9-.1 1-.2 1-1.2c0 0 0-7.1 0-7.1c0-1 0-1-1-1.1c0 0 0-.4 0-.4c.8 0 1.7-.3 2.2-.5c0 0 0 9.1 0 9.1c0 1 .2 1.1 1.1 1.2c.01.01 0 .4 0 .4l-3.3 0zm7.3-6.5c.2-.2.5-.2.7-.2c1.7 0 2.7 1.3 2.7 2.8c0 2.3-1.8 3.7-3.8 4.1c-.4 0-.8-.2-1-.3c0 0 0 2 0 2c0 1.1.1 1.2 1.3 1.3c-.03 0 0 .4 0 .4l-3.6 0c0 0 .01-.4 0-.4c1-.1 1.1-.2 1.1-1.2c0 0 0-6.8 0-6.8c0-.9-.1-1-1-1.1c0 0 0-.3 0-.3c.6-.1 1.5-.4 2.2-.7c-.01.02 0 1.2 0 1.2c0 0 1.37-.81 1.4-.8zm-1.4 5.4c.3.3.9.5 1.4.5c1.3 0 2.1-1 2.1-2.7c0-1.6-.9-2.5-2-2.5c-.5 0-1.1.3-1.5.6c0 0 0 4.1 0 4.1zm10.6 1.3c-.2 0-.5-.2-.7-.3c-.2-.2-.3-.4-.4-.7c-.6.4-1.3 1-1.7 1c-1.1 0-1.8-.9-1.8-1.8c0-.8.4-1.2 1.2-1.5c.9-.3 2-.7 2.3-1c0 0 0-.3 0-.3c0-1.1-.5-1.7-1.2-1.7c-.3 0-.6.1-.7.3c-.2.2-.3.6-.5 1c0 .3-.2.4-.4.4c-.3 0-.7-.3-.7-.7c0-.2.2-.4.5-.6c.4-.3 1.4-.9 2.3-1c.4 0 .9.1 1.2.4c.5.4.7 1 .7 1.8c0 0 0 2.8 0 2.8c0 .7.2.9.5.9c.2 0 .4-.1.5-.2c.04.03.2.4.2.4c0 0-1.29.78-1.3.8zm-1.1-3.8c-.3.2-1 .5-1.3.6c-.6.3-.9.6-.9 1.1c0 .8.6 1.2 1 1.2c.4 0 .9-.3 1.2-.6c0 0 0-2.3 0-2.3zm3.3 2.9c0-.5.4-.8.9-.8c.5 0 .8.3.8.8c0 .5-.3.9-.8.9c-.5 0-.9-.4-.9-.9z" stroke="none" fill="#000"/></g><g id="Polygon5904"><path d="m5.2 151.1c-.2 0-.5-.2-.7-.3c-.2-.2-.3-.4-.3-.7c-.6.4-1.4 1-1.8 1c-1.1 0-1.8-.9-1.8-1.8c0-.8.4-1.2 1.2-1.5c.9-.3 2-.7 2.3-1c0 0 0-.3 0-.3c0-1.1-.5-1.7-1.2-1.7c-.3 0-.6.1-.7.3c-.2.2-.3.6-.5 1c0 .3-.2.4-.4.4c-.3 0-.7-.3-.7-.7c0-.2.2-.4.5-.6c.4-.3 1.4-.9 2.3-1c.4 0 .9.1 1.2.4c.5.4.7 1 .7 1.8c0 0 0 2.8 0 2.8c0 .7.2.9.5.9c.2 0 .4-.1.5-.2c.04.03.2.4.2.4c0 0-1.28.78-1.3.8zm-1.1-3.8c-.3.2-1 .5-1.3.6c-.6.3-.9.6-.9 1.1c0 .8.6 1.2 1 1.2c.4 0 .9-.3 1.2-.6c0 0 0-2.3 0-2.3zm10 3.2c-.7.1-1.5.4-2.2.6c-.04-.02-.1-.1-.1-.1c0 0-.03-1.07 0-1.1c-.4.3-.7.6-1.1.8c-.5.3-.8.4-1.2.4c-1 0-1.9-.6-1.9-2.3c0 0 0-2.9 0-2.9c0-.8 0-.9-.9-1c0 0 0-.4 0-.4c.7 0 1.5-.1 2.2-.3c-.1.5-.1 1.2-.1 2.2c0 0 0 2 0 2c0 1.4.7 1.7 1.4 1.7c.5 0 1.1-.2 1.6-.7c0 0 0-3.5 0-3.5c0-.8-.1-.9-1.2-1c0 0 0-.4 0-.4c.8 0 1.6-.1 2.4-.3c0 0 0 5.1 0 5.1c0 .7.1.8.6.8c.05.04.5.1.5.1c0 0-.03.34 0 .3zm3.4.4c-.2.1-.5.2-.6.2c-.9 0-1.5-.6-1.5-1.8c.03 0 0-4.4 0-4.4l-1 0l-.1-.1l.4-.5l.7 0l0-1l1-1l.2 0l0 2c0 0 1.71.05 1.7 0c.1.2.1.5-.1.6c.02.03-1.6 0-1.6 0c0 0 .02 3.89 0 3.9c0 1.2.5 1.4.9 1.4c.4 0 .7-.1.9-.2c.02-.03.2.4.2.4c0 0-1.07.49-1.1.5zm9.8.2c-.2 0-.6-.2-.7-.3c-.2-.2-.3-.4-.4-.7c-.6.4-1.3 1-1.8 1c-1 0-1.8-.9-1.8-1.8c0-.8.4-1.2 1.3-1.5c.9-.3 2-.7 2.3-1c0 0 0-.3 0-.3c0-1.1-.5-1.7-1.3-1.7c-.3 0-.5.1-.6.3c-.2.2-.4.6-.5 1c-.1.3-.2.4-.4.4c-.3 0-.7-.3-.7-.7c0-.2.2-.4.5-.6c.4-.3 1.4-.9 2.2-1c.5 0 .9.1 1.3.4c.5.4.6 1 .6 1.8c0 0 0 2.8 0 2.8c0 .7.3.9.6.9c.1 0 .4-.1.5-.2c.01.03.2.4.2.4c0 0-1.32.78-1.3.8zm-1.1-3.8c-.3.2-1 .5-1.4.6c-.5.3-.9.6-.9 1.1c0 .8.6 1.2 1.1 1.2c.4 0 .9-.3 1.2-.6c0 0 0-2.3 0-2.3zm9.9 3.2c-.7.1-1.4.4-2.2.6c.03-.02-.1-.1-.1-.1c0 0 .04-1.07 0-1.1c-.3.3-.7.6-1.1.8c-.4.3-.7.4-1.1.4c-1 0-1.9-.6-1.9-2.3c0 0 0-2.9 0-2.9c0-.8 0-.9-.9-1c0 0 0-.4 0-.4c.7 0 1.4-.1 2.1-.3c0 .5 0 1.2 0 2.2c0 0 0 2 0 2c0 1.4.6 1.7 1.3 1.7c.6 0 1.1-.2 1.6-.7c0 0 0-3.5 0-3.5c0-.8-.1-.9-1.1-1c0 0 0-.4 0-.4c.7 0 1.5-.1 2.3-.3c0 0 0 5.1 0 5.1c0 .7.1.8.7.8c.01.04.4.1.4.1c0 0 .03.34 0 .3zm3.5.4c-.3.1-.5.2-.6.2c-1 0-1.5-.6-1.5-1.8c0 0 0-4.4 0-4.4l-1 0l-.1-.1l.4-.5l.7 0l0-1l1-1l.2 0l0 2c0 0 1.68.05 1.7 0c.1.2.1.5-.1.6c-.01.03-1.6 0-1.6 0c0 0-.02 3.89 0 3.9c0 1.2.5 1.4.9 1.4c.3 0 .7-.1.9-.2c-.02-.03.1.4.1.4c0 0-1 .49-1 .5zm9.1 0c0 0-.04-.39 0-.4c.8-.1.9-.2.9-1.1c0 0 0-2.5 0-2.5c0-1.3-.4-1.9-1.4-1.9c-.6 0-1.2.3-1.6.8c0 0 0 3.6 0 3.6c0 .9.1 1 1 1.1c-.02.01 0 .4 0 .4l-3.2 0c0 0 0-.39 0-.4c.9-.1 1-.2 1-1.1c0 0 0-7.2 0-7.2c0-.9 0-1-1-1.1c0 0 0-.4 0-.4c.7-.1 1.6-.3 2.2-.5c0 0 0 5.1 0 5.1c.5-.6 1.4-1.1 2.2-1.1c1.2 0 2 .7 2 2.5c0 0 0 2.7 0 2.7c0 .9.1 1 1 1.1c.02.01 0 .4 0 .4l-3.1 0zm4.7-8.8c0-.5.4-.8.8-.8c.4 0 .7.3.7.8c0 .4-.3.8-.7.8c-.4 0-.8-.4-.8-.8zm-.8 8.8c0 0 .02-.39 0-.4c1-.1 1.1-.2 1.1-1.2c0 0 0-3.1 0-3.1c0-.9-.1-1-1-1.1c0 0 0-.4 0-.4c.8-.1 1.5-.3 2.2-.6c0 0 0 5.2 0 5.2c0 1 .1 1.1 1 1.2c.02.01 0 .4 0 .4l-3.3 0zm3.9 0c0 0-.04-.39 0-.4c.9-.1 1-.2 1-1.2c0 0 0-7.1 0-7.1c0-1-.1-1-1-1.1c0 0 0-.4 0-.4c.8 0 1.7-.3 2.2-.5c0 0 0 9.1 0 9.1c0 1 .1 1.1 1.1 1.2c0 .01 0 .4 0 .4l-3.3 0zm3.8 0c0 0 .03-.39 0-.4c1-.1 1.1-.2 1.1-1.2c0 0 0-7.1 0-7.1c0-1-.1-1-1-1.1c0 0 0-.4 0-.4c.8 0 1.7-.3 2.2-.5c0 0 0 9.1 0 9.1c0 1 .1 1.1 1.1 1.2c-.03.01 0 .4 0 .4l-3.4 0zm11.2-.4c-.7.1-1.5.4-2.2.6c-.02-.02-.1-.1-.1-.1c0 0-.01-1.07 0-1.1c-.4.3-.7.6-1.1.8c-.5.3-.8.4-1.2.4c-1 0-1.8-.6-1.8-2.3c0 0 0-2.9 0-2.9c0-.8-.1-.9-.9-1c0 0 0-.4 0-.4c.7 0 1.4-.1 2.1-.3c0 .5 0 1.2 0 2.2c0 0 0 2 0 2c0 1.4.6 1.7 1.3 1.7c.5 0 1.1-.2 1.6-.7c0 0 0-3.5 0-3.5c0-.8-.1-.9-1.2-1c0 0 0-.4 0-.4c.8 0 1.6-.1 2.4-.3c0 0 0 5.1 0 5.1c0 .7.1.8.7.8c-.03.04.4.1.4.1c0 0-.01.34 0 .3zm3.9-6.1c.3-.2.6-.2.8-.2c1.6 0 2.6 1.3 2.6 2.8c0 2.3-1.8 3.7-3.7 4.1c-.5 0-.9-.2-1.1-.3c0 0 0 2 0 2c0 1.1.1 1.2 1.3 1.3c.01 0 0 .4 0 .4l-3.5 0c0 0-.04-.4 0-.4c.9-.1 1.1-.2 1.1-1.2c0 0 0-6.8 0-6.8c0-.9-.1-1-1-1.1c0 0 0-.3 0-.3c.6-.1 1.4-.4 2.1-.7c.04.02 0 1.2 0 1.2c0 0 1.42-.81 1.4-.8zm-1.4 5.4c.4.3.9.5 1.4.5c1.3 0 2.1-1 2.1-2.7c0-1.6-.9-2.5-2-2.5c-.4 0-1.1.3-1.5.6c0 0 0 4.1 0 4.1zm8.6 1.1c-.2.1-.4.2-.6.2c-.9 0-1.5-.6-1.5-1.8c.05 0 0-4.4 0-4.4l-1 0l0-.1l.4-.5l.6 0l0-1l1-1l.2 0l0 2c0 0 1.73.05 1.7 0c.2.2.1.5-.1.6c.04.03-1.6 0-1.6 0c0 0 .03 3.89 0 3.9c0 1.2.5 1.4.9 1.4c.4 0 .7-.1.9-.2c.03-.03.2.4.2.4c0 0-1.05.49-1.1.5zm8.8-.4c-.7.1-1.5.4-2.2.6c-.01-.02-.1-.1-.1-.1c0 0 0-1.07 0-1.1c-.3.3-.7.6-1.1.8c-.4.3-.8.4-1.2.4c-1 0-1.8-.6-1.8-2.3c0 0 0-2.9 0-2.9c0-.8-.1-.9-.9-1c0 0 0-.4 0-.4c.7 0 1.4-.1 2.1-.3c0 .5 0 1.2 0 2.2c0 0 0 2 0 2c0 1.4.6 1.7 1.3 1.7c.5 0 1.1-.2 1.6-.7c0 0 0-3.5 0-3.5c0-.8-.1-.9-1.2-1c0 0 0-.4 0-.4c.8 0 1.6-.1 2.4-.3c0 0 0 5.1 0 5.1c0 .7.1.8.7.8c-.03.04.4.1.4.1c0 0-.01.34 0 .3zm2.9-4.7c.5-.8 1.1-1.6 1.8-1.6c.6 0 .9.4.9.7c0 .3-.2.6-.5.8c-.1 0-.3 0-.4-.1c-.2-.2-.4-.3-.6-.3c-.4 0-.9.5-1.2 1.3c0 0 0 2.7 0 2.7c0 1 .1 1.1 1.2 1.2c.03.01 0 .4 0 .4l-3.4 0c0 0-.02-.39 0-.4c.9-.1 1-.2 1-1.2c0 0 0-3.1 0-3.1c0-1-.1-1-.9-1.1c0 0 0-.4 0-.4c.7-.1 1.4-.3 2.1-.6c0 .02 0 1.7 0 1.7c0 0 .03-.04 0 0zm10.4 8.7c0 0-.02-.37 0-.4c1.2-.1 1.3-.2 1.3-1.2c-.04-.02 0-2.4 0-2.4c0 0-1.63.58-1.6.6c-2.2 0-3.3-1.7-3.3-3.2c0-2.1 2-3.7 4-3.7c.6 0 .9.1 1.1.2c.2 0 .3 0 .4 0c.1 0 .3 0 .5-.1c0 0 .1 0 .1 0c0 .3-.1.6-.1 1.6c0 0 0 7 0 7c0 1.1.1 1.1 1.2 1.2c-.02.03 0 .4 0 .4l-3.6 0zm1.3-9.1c-.4-.4-1-.6-1.5-.6c-1 0-2 .9-2 2.6c0 1.9 1.2 2.8 2.3 2.8c.5 0 .9-.1 1.2-.2c0 0 0-4.6 0-4.6zm9.8 5.1c-.6.1-1.4.4-2.2.6c.04-.02-.1-.1-.1-.1c0 0 .05-1.07 0-1.1c-.3.3-.6.6-1.1.8c-.4.3-.7.4-1.1.4c-1 0-1.9-.6-1.9-2.3c0 0 0-2.9 0-2.9c0-.8 0-.9-.9-1c0 0 0-.4 0-.4c.7 0 1.4-.1 2.2-.3c-.1.5-.1 1.2-.1 2.2c0 0 0 2 0 2c0 1.4.7 1.7 1.3 1.7c.6 0 1.1-.2 1.6-.7c0 0 0-3.5 0-3.5c0-.8 0-.9-1.1-1c0 0 0-.4 0-.4c.8 0 1.5-.1 2.3-.3c0 0 0 5.1 0 5.1c0 .7.2.8.7.8c.02.04.4.1.4.1c0 0 .04.34 0 .3zm5.5.6c-.2 0-.5-.2-.7-.3c-.2-.2-.3-.4-.4-.7c-.6.4-1.3 1-1.7 1c-1.1 0-1.8-.9-1.8-1.8c0-.8.4-1.2 1.2-1.5c.9-.3 2-.7 2.3-1c0 0 0-.3 0-.3c0-1.1-.5-1.7-1.3-1.7c-.3 0-.5.1-.6.3c-.2.2-.4.6-.5 1c0 .3-.2.4-.4.4c-.3 0-.7-.3-.7-.7c0-.2.2-.4.5-.6c.4-.3 1.4-.9 2.3-1c.4 0 .9.1 1.2.4c.5.4.7 1 .7 1.8c0 0 0 2.8 0 2.8c0 .7.2.9.5.9c.2 0 .4-.1.5-.2c.03.03.2.4.2.4c0 0-1.3.78-1.3.8zm-1.1-3.8c-.3.2-1 .5-1.3.6c-.6.3-1 .6-1 1.1c0 .8.6 1.2 1.1 1.2c.4 0 .9-.3 1.2-.6c0 0 0-2.3 0-2.3zm6.8-1.2c-.3-.9-.8-1.5-1.5-1.5c-.6 0-1 .5-1 1.1c0 .6.6 1 1.3 1.3c1.1.4 1.9 1 1.9 2c0 1.4-1.3 2.1-2.5 2.1c-.8 0-1.5-.3-1.7-.5c-.1-.2-.3-1.3-.3-1.8c0 0 .4-.1.4-.1c.3 1 1 1.9 1.9 1.9c.5 0 1-.4 1-1.1c0-.6-.4-1-1.1-1.3c-.9-.4-1.9-.9-1.9-2.1c0-1 .9-1.9 2.3-1.9c.6 0 1 .1 1.3.2c.1.4.3 1.3.3 1.6c0 0-.4.1-.4.1zm7.3-.3c.4-.8 1.1-1.6 1.8-1.6c.5 0 .9.4.9.7c0 .3-.2.6-.5.8c-.2 0-.3 0-.4-.1c-.2-.2-.4-.3-.7-.3c-.3 0-.8.5-1.2 1.3c0 0 0 2.7 0 2.7c0 1 .1 1.1 1.3 1.2c-.02.01 0 .4 0 .4l-3.5 0c0 0 .03-.39 0-.4c1-.1 1.1-.2 1.1-1.2c0 0 0-3.1 0-3.1c0-1-.1-1-1-1.1c0 0 0-.4 0-.4c.8-.1 1.4-.3 2.1-.6c.05.02 0 1.7 0 1.7c0 0 .08-.04.1 0zm8.5 3.8c-.9 1.2-2 1.5-2.4 1.5c-1.9 0-2.9-1.5-2.9-3.2c0-1 .3-2 .9-2.6c.7-.7 1.5-1.1 2.3-1.1c1.2 0 2.2 1.1 2.2 2.2c0 .3-.1.5-.3.5c-.3.1-2.2.2-4 .3c.1 2 1.2 2.9 2.3 2.9c.6 0 1.1-.3 1.7-.8c0 0 .2.3.2.3zm-4.1-3c.9 0 1.7 0 2.6-.1c.2 0 .3-.1.3-.3c0-.8-.5-1.5-1.3-1.5c-.7 0-1.4.7-1.6 1.9zm13.2 4.5c-.2 0-.5-.2-.7-.3c-.2-.2-.3-.4-.4-.7c-.6.4-1.3 1-1.7 1c-1.1 0-1.8-.9-1.8-1.8c0-.8.4-1.2 1.2-1.5c.9-.3 2-.7 2.3-1c0 0 0-.3 0-.3c0-1.1-.5-1.7-1.3-1.7c-.3 0-.5.1-.6.3c-.2.2-.4.6-.5 1c0 .3-.2.4-.4.4c-.3 0-.7-.3-.7-.7c0-.2.2-.4.5-.6c.4-.3 1.4-.9 2.3-1c.4 0 .9.1 1.2.4c.5.4.7 1 .7 1.8c0 0 0 2.8 0 2.8c0 .7.2.9.5.9c.2 0 .4-.1.5-.2c.03.03.2.4.2.4c0 0-1.3.78-1.3.8zm-1.1-3.8c-.3.2-1 .5-1.3.6c-.6.3-1 .6-1 1.1c0 .8.6 1.2 1.1 1.2c.4 0 .9-.3 1.2-.6c0 0 0-2.3 0-2.3zm2.8 3.6c0 0-.03-.39 0-.4c.9-.1 1-.2 1-1.2c0 0 0-7.1 0-7.1c0-1 0-1-1-1.1c0 0 0-.4 0-.4c.8 0 1.7-.3 2.2-.5c0 0 0 9.1 0 9.1c0 1 .2 1.1 1.1 1.2c.01.01 0 .4 0 .4l-3.3 0zm4.8-8.8c0-.5.4-.8.8-.8c.4 0 .7.3.7.8c0 .4-.3.8-.7.8c-.4 0-.8-.4-.8-.8zm-.8 8.8c0 0 .02-.39 0-.4c1-.1 1.1-.2 1.1-1.2c0 0 0-3.1 0-3.1c0-.9-.1-1-1-1.1c0 0 0-.4 0-.4c.8-.1 1.5-.3 2.2-.6c0 0 0 5.2 0 5.2c0 1 .1 1.1 1 1.2c.02.01 0 .4 0 .4l-3.3 0zm8.8.2c-.2 0-.5-.2-.7-.3c-.2-.2-.3-.4-.3-.7c-.6.4-1.4 1-1.8 1c-1.1 0-1.8-.9-1.8-1.8c0-.8.4-1.2 1.2-1.5c.9-.3 2-.7 2.3-1c0 0 0-.3 0-.3c0-1.1-.5-1.7-1.2-1.7c-.3 0-.6.1-.7.3c-.2.2-.3.6-.5 1c0 .3-.2.4-.4.4c-.3 0-.7-.3-.7-.7c0-.2.2-.4.5-.6c.4-.3 1.4-.9 2.3-1c.4 0 .9.1 1.2.4c.5.4.7 1 .7 1.8c0 0 0 2.8 0 2.8c0 .7.3.9.5.9c.2 0 .4-.1.5-.2c.05.03.2.4.2.4c0 0-1.28.78-1.3.8zm-1.1-3.8c-.3.2-1 .5-1.3.6c-.6.3-.9.6-.9 1.1c0 .8.6 1.2 1 1.2c.4 0 .9-.3 1.2-.6c0 0 0-2.3 0-2.3z" stroke="none" fill="#000"/></g><g id="Polygon5903"><path d="m5.9 132.1c-.9 1.2-2 1.5-2.4 1.5c-1.9 0-2.9-1.5-2.9-3.2c0-1 .3-2 .9-2.6c.7-.7 1.5-1.1 2.3-1.1c1.2 0 2.2 1.1 2.2 2.2c0 .3-.1.5-.3.5c-.3.1-2.2.2-4 .3c.1 2 1.2 2.9 2.3 2.9c.6 0 1.1-.3 1.7-.8c0 0 .2.3.2.3zm-4.1-3c.9 0 1.7 0 2.5-.1c.3 0 .4-.1.4-.3c0-.8-.5-1.5-1.3-1.5c-.7 0-1.4.7-1.6 1.9zm9.9 4.5c-.2 0-.6-.2-.7-.3c-.2-.2-.3-.4-.4-.7c-.6.4-1.3 1-1.8 1c-1 0-1.8-.9-1.8-1.8c0-.8.4-1.2 1.3-1.5c.9-.3 2-.7 2.3-1c0 0 0-.3 0-.3c0-1.1-.5-1.7-1.3-1.7c-.3 0-.5.1-.6.3c-.2.2-.4.6-.5 1c-.1.3-.2.4-.4.4c-.3 0-.7-.3-.7-.7c0-.2.2-.4.5-.6c.4-.3 1.4-.9 2.2-1c.5 0 .9.1 1.3.4c.5.4.6 1 .6 1.8c0 0 0 2.8 0 2.8c0 .7.3.9.6.9c.1 0 .4-.1.5-.2c.01.03.2.4.2.4c0 0-1.32.78-1.3.8zm-1.1-3.8c-.3.2-1 .5-1.4.6c-.5.3-.9.6-.9 1.1c0 .8.6 1.2 1.1 1.2c.4 0 .9-.3 1.2-.6c0 0 0-2.3 0-2.3zm10.3-1.2c-.3-.9-.8-1.5-1.6-1.5c-.6 0-1 .5-1 1.1c0 .6.6 1 1.3 1.3c1.1.4 1.9 1 1.9 2c0 1.4-1.3 2.1-2.5 2.1c-.7 0-1.4-.3-1.7-.5c-.1-.2-.2-1.3-.2-1.8c0 0 .4-.1.4-.1c.2 1 .9 1.9 1.8 1.9c.6 0 1.1-.4 1.1-1.1c0-.6-.5-1-1.2-1.3c-.9-.4-1.9-.9-1.9-2.1c0-1 .9-1.9 2.3-1.9c.6 0 1 .1 1.3.2c.1.4.3 1.3.4 1.6c0 0-.4.1-.4.1zm7.1 3.5c-.9 1.2-2 1.5-2.4 1.5c-1.9 0-3-1.5-3-3.2c0-1 .4-2 1-2.6c.6-.7 1.4-1.1 2.2-1.1c1.3 0 2.3 1.1 2.3 2.2c0 .3-.1.5-.4.5c-.2.1-2.1.2-3.9.3c0 2 1.2 2.9 2.3 2.9c.6 0 1.1-.3 1.7-.8c0 0 .2.3.2.3zm-4.1-3c.8 0 1.7 0 2.5-.1c.3 0 .4-.1.4-.3c0-.8-.5-1.5-1.3-1.5c-.7 0-1.4.7-1.6 1.9zm8.8 7.9c0 0-.05-.37 0-.4c1.1-.1 1.2-.2 1.2-1.2c.03-.02 0-2.4 0-2.4c0 0-1.56.58-1.6.6c-2.2 0-3.2-1.7-3.2-3.2c0-2.1 2-3.7 4-3.7c.6 0 .9.1 1.1.2c.2 0 .2 0 .4 0c.1 0 .3 0 .5-.1c0 0 0 0 0 0c0 .3 0 .6 0 1.6c0 0 0 7 0 7c0 1.1.1 1.1 1.2 1.2c-.05.03 0 .4 0 .4l-3.6 0zm1.2-9.1c-.3-.4-1-.6-1.4-.6c-1.1 0-2.1.9-2.1 2.6c0 1.9 1.3 2.8 2.4 2.8c.5 0 .8-.1 1.1-.2c0 0 0-4.6 0-4.6zm9.9 5.1c-.7.1-1.4.4-2.2.6c.01-.02-.1-.1-.1-.1c0 0 .02-1.07 0-1.1c-.3.3-.7.6-1.1.8c-.4.3-.7.4-1.1.4c-1.1 0-1.9-.6-1.9-2.3c0 0 0-2.9 0-2.9c0-.8-.1-.9-.9-1c0 0 0-.4 0-.4c.7 0 1.4-.1 2.1-.3c0 .5 0 1.2 0 2.2c0 0 0 2 0 2c0 1.4.6 1.7 1.3 1.7c.5 0 1.1-.2 1.6-.7c0 0 0-3.5 0-3.5c0-.8-.1-.9-1.2-1c0 0 0-.4 0-.4c.8 0 1.6-.1 2.4-.3c0 0 0 5.1 0 5.1c0 .7.1.8.7.8c-.01.04.4.1.4.1c0 0 .01.34 0 .3zm5.5.6c-.3 0-.6-.2-.7-.3c-.2-.2-.3-.4-.4-.7c-.6.4-1.3 1-1.8 1c-1 0-1.8-.9-1.8-1.8c0-.8.4-1.2 1.3-1.5c.9-.3 1.9-.7 2.3-1c0 0 0-.3 0-.3c0-1.1-.5-1.7-1.3-1.7c-.3 0-.5.1-.7.3c-.2.2-.3.6-.4 1c-.1.3-.2.4-.4.4c-.3 0-.7-.3-.7-.7c0-.2.2-.4.5-.6c.4-.3 1.4-.9 2.2-1c.5 0 .9.1 1.3.4c.5.4.6 1 .6 1.8c0 0 0 2.8 0 2.8c0 .7.3.9.6.9c.1 0 .3-.1.5-.2c0 .03.1.4.1.4c0 0-1.23.78-1.2.8zm-1.1-3.8c-.3.2-1.1.5-1.4.6c-.6.3-.9.6-.9 1.1c0 .8.6 1.2 1.1 1.2c.4 0 .9-.3 1.2-.6c0 0 0-2.3 0-2.3zm11 3.6c0 0 .05-.39 0-.4c.9-.1 1.1-.1 1.1-1.2c0 0 0-2.5 0-2.5c0-1.1-.4-1.7-1.3-1.7c-.6 0-1.1.3-1.7.7c0 .2 0 .4 0 .7c0 0 0 2.9 0 2.9c0 .9.2 1 1 1.1c0 .01 0 .4 0 .4l-3.2 0c0 0-.01-.39 0-.4c.9-.1 1.1-.2 1.1-1.1c0 0 0-2.6 0-2.6c0-1.1-.4-1.7-1.3-1.7c-.6 0-1.2.4-1.7.7c0 0 0 3.6 0 3.6c0 .9.1 1 .9 1.1c-.03.01 0 .4 0 .4l-3.2 0c0 0 .01-.39 0-.4c1-.1 1.1-.2 1.1-1.1c0 0 0-3.1 0-3.1c0-1 0-1.1-.9-1.2c0 0 0-.4 0-.4c.7-.1 1.4-.3 2.1-.6c0 0 0 1.2 0 1.2c.3-.2.6-.4 1.1-.7c.4-.3.7-.4 1.2-.4c.7 0 1.4.4 1.7 1.2c.4-.3.9-.6 1.2-.8c.4-.3.7-.4 1.2-.4c1.1 0 1.9.8 1.9 2.3c0 0 0 2.9 0 2.9c0 1 .1 1 .9 1.1c.04.01 0 .4 0 .4l-3.2 0zm11.1 3.6c0 0 .02-.37 0-.4c1.2-.1 1.3-.2 1.3-1.2c-.01-.02 0-2.4 0-2.4c0 0-1.6.58-1.6.6c-2.2 0-3.2-1.7-3.2-3.2c0-2.1 1.9-3.7 4-3.7c.5 0 .9.1 1 .2c.2 0 .3 0 .4 0c.1 0 .3 0 .5-.1c0 0 .1 0 .1 0c0 .3 0 .6 0 1.6c0 0 0 7 0 7c0 1.1.1 1.1 1.1 1.2c.02.03 0 .4 0 .4l-3.6 0zm1.3-9.1c-.4-.4-1-.6-1.5-.6c-1 0-2 .9-2 2.6c0 1.9 1.3 2.8 2.4 2.8c.4 0 .8-.1 1.1-.2c0 0 0-4.6 0-4.6zm9.9 5.1c-.7.1-1.5.4-2.2.6c-.03-.02-.1-.1-.1-.1c0 0-.02-1.07 0-1.1c-.4.3-.7.6-1.1.8c-.5.3-.8.4-1.2.4c-1 0-1.8-.6-1.8-2.3c0 0 0-2.9 0-2.9c0-.8-.1-.9-1-1c0 0 0-.4 0-.4c.7 0 1.5-.1 2.2-.3c-.1.5-.1 1.2-.1 2.2c0 0 0 2 0 2c0 1.4.7 1.7 1.4 1.7c.5 0 1.1-.2 1.6-.7c0 0 0-3.5 0-3.5c0-.8-.1-.9-1.2-1c0 0 0-.4 0-.4c.8 0 1.6-.1 2.4-.3c0 0 0 5.1 0 5.1c0 .7.1.8.7.8c-.04.04.4.1.4.1c0 0-.02.34 0 .3zm1.4-8.4c0-.5.4-.8.8-.8c.4 0 .8.3.8.8c0 .4-.4.8-.8.8c-.4 0-.8-.4-.8-.8zm-.7 8.8c0 0-.05-.39 0-.4c.9-.1 1-.2 1-1.2c0 0 0-3.1 0-3.1c0-.9 0-1-.9-1.1c0 0 0-.4 0-.4c.7-.1 1.4-.3 2.1-.6c0 0 0 5.2 0 5.2c0 1 .1 1.1 1.1 1.2c-.05.01 0 .4 0 .4l-3.3 0zm11.3-4.8c-.3-.9-.8-1.5-1.5-1.5c-.6 0-1 .5-1 1.1c0 .6.6 1 1.3 1.3c1.1.4 1.9 1 1.9 2c0 1.4-1.3 2.1-2.5 2.1c-.8 0-1.5-.3-1.7-.5c-.2-.2-.3-1.3-.3-1.8c0 0 .4-.1.4-.1c.3 1 .9 1.9 1.8 1.9c.6 0 1.1-.4 1.1-1.1c0-.6-.4-1-1.2-1.3c-.9-.4-1.8-.9-1.8-2.1c0-1 .9-1.9 2.2-1.9c.6 0 1.1.1 1.4.2c.1.4.3 1.3.3 1.6c0 0-.4.1-.4.1zm2.4-4c0-.5.3-.8.7-.8c.5 0 .8.3.8.8c0 .4-.3.8-.8.8c-.4 0-.7-.4-.7-.8zm-.8 8.8c0 0-.02-.39 0-.4c.9-.1 1-.2 1-1.2c0 0 0-3.1 0-3.1c0-.9 0-1-.9-1.1c0 0 0-.4 0-.4c.8-.1 1.5-.3 2.1-.6c0 0 0 5.2 0 5.2c0 1 .1 1.1 1.1 1.2c-.02.01 0 .4 0 .4l-3.3 0zm10.4 0c-.3.1-.5.2-.7.2c-.9 0-1.4-.6-1.4-1.8c-.02 0 0-4.4 0-4.4l-1.1 0l0-.1l.4-.5l.7 0l0-1l1-1l.2 0l0 2c0 0 1.66.05 1.7 0c.1.2 0 .5-.1.6c-.03.03-1.6 0-1.6 0c0 0-.04 3.89 0 3.9c0 1.2.5 1.4.8 1.4c.4 0 .8-.1 1-.2c-.04-.03.1.4.1.4c0 0-1.02.49-1 .5zm8.1-3.4c0 2.4-1.8 3.6-3.2 3.6c-2.1 0-3.3-1.7-3.3-3.3c0-2.5 1.9-3.6 3.3-3.6c1.8 0 3.2 1.5 3.2 3.3zm-5.1-.2c0 1.9.8 3.3 2 3.3c.9 0 1.7-.7 1.7-2.8c0-1.7-.7-3.1-2-3.1c-.9 0-1.7.9-1.7 2.6zm8.9 3.6c-.2.1-.4.2-.6.2c-.9 0-1.5-.6-1.5-1.8c.05 0 0-4.4 0-4.4l-1 0l0-.1l.4-.5l.6 0l0-1l1-1l.2 0l0 2c0 0 1.73.05 1.7 0c.2.2.1.5-.1.6c.04.03-1.6 0-1.6 0c0 0 .03 3.89 0 3.9c0 1.2.5 1.4.9 1.4c.4 0 .7-.1.9-.2c.03-.03.2.4.2.4c0 0-1.05.49-1.1.5zm6.5.2c-.2 0-.6-.2-.7-.3c-.2-.2-.3-.4-.4-.7c-.6.4-1.3 1-1.8 1c-1 0-1.8-.9-1.8-1.8c0-.8.4-1.2 1.3-1.5c.9-.3 2-.7 2.3-1c0 0 0-.3 0-.3c0-1.1-.5-1.7-1.3-1.7c-.3 0-.5.1-.6.3c-.2.2-.4.6-.5 1c-.1.3-.2.4-.4.4c-.3 0-.7-.3-.7-.7c0-.2.2-.4.5-.6c.4-.3 1.4-.9 2.2-1c.5 0 .9.1 1.3.4c.5.4.6 1 .6 1.8c0 0 0 2.8 0 2.8c0 .7.3.9.6.9c.1 0 .4-.1.5-.2c.01.03.2.4.2.4c0 0-1.32.78-1.3.8zm-1.1-3.8c-.3.2-1 .5-1.4.6c-.5.3-.9.6-.9 1.1c0 .8.6 1.2 1.1 1.2c.4 0 .9-.3 1.2-.6c0 0 0-2.3 0-2.3zm11.1 3.6c0 0-.04-.39 0-.4c.8-.1 1-.1 1-1.2c0 0 0-2.5 0-2.5c0-1.1-.4-1.7-1.3-1.7c-.6 0-1.1.3-1.7.7c0 .2.1.4.1.7c0 0 0 2.9 0 2.9c0 .9.1 1 .9 1.1c.01.01 0 .4 0 .4l-3.2 0c0 0 0-.39 0-.4c.9-.1 1.1-.2 1.1-1.1c0 0 0-2.6 0-2.6c0-1.1-.4-1.7-1.3-1.7c-.6 0-1.2.4-1.7.7c0 0 0 3.6 0 3.6c0 .9.1 1 .9 1.1c-.02.01 0 .4 0 .4l-3.2 0c0 0 .02-.39 0-.4c1-.1 1.1-.2 1.1-1.1c0 0 0-3.1 0-3.1c0-1 0-1.1-.9-1.2c0 0 0-.4 0-.4c.7-.1 1.5-.3 2.1-.6c0 0 0 1.2 0 1.2c.3-.2.7-.4 1.1-.7c.4-.3.8-.4 1.2-.4c.8 0 1.4.4 1.7 1.2c.4-.3.9-.6 1.2-.8c.4-.3.8-.4 1.2-.4c1.1 0 1.9.8 1.9 2.3c0 0 0 2.9 0 2.9c0 1 .1 1 1 1.1c-.05.01 0 .4 0 .4l-3.2 0zm14.7-.4c-.4.1-1.5.3-2.4.6c.03-.02 0-1 0-1c0 0-.88.55-.9.5c-.6.4-1 .5-1.2.5c-1.2 0-2.7-1.1-2.7-3.2c0-2.1 1.8-3.7 3.8-3.7c.3 0 .7 0 1 .1c0 0 0-2.1 0-2.1c0-1 0-1-1.1-1.1c0 0 0-.4 0-.4c.8-.1 1.8-.3 2.3-.5c0 0 0 9 0 9c0 .8.1.8.7.9c-.02-.01.5 0 .5 0c0 0-.04.41 0 .4zm-2.4-5c-.3-.5-.9-.8-1.5-.8c-.7 0-2 .6-2 2.8c0 1.8 1.1 2.6 2.1 2.6c.5 0 1.1-.2 1.4-.5c0 0 0-4.1 0-4.1zm10.1 5c-.7.1-1.4.4-2.2.6c.01-.02-.1-.1-.1-.1c0 0 .02-1.07 0-1.1c-.3.3-.7.6-1.1.8c-.4.3-.7.4-1.1.4c-1.1 0-1.9-.6-1.9-2.3c0 0 0-2.9 0-2.9c0-.8-.1-.9-.9-1c0 0 0-.4 0-.4c.7 0 1.4-.1 2.1-.3c0 .5 0 1.2 0 2.2c0 0 0 2 0 2c0 1.4.6 1.7 1.3 1.7c.5 0 1.1-.2 1.6-.7c0 0 0-3.5 0-3.5c0-.8-.1-.9-1.2-1c0 0 0-.4 0-.4c.8 0 1.6-.1 2.4-.3c0 0 0 5.1 0 5.1c0 .7.1.8.7.8c-.01.04.4.1.4.1c0 0 .01.34 0 .3zm4.6-4.4c-.3-.9-.8-1.5-1.6-1.5c-.5 0-.9.5-.9 1.1c0 .6.6 1 1.2 1.3c1.2.4 1.9 1 1.9 2c0 1.4-1.3 2.1-2.5 2.1c-.7 0-1.4-.3-1.7-.5c-.1-.2-.2-1.3-.2-1.8c0 0 .4-.1.4-.1c.2 1 .9 1.9 1.8 1.9c.6 0 1.1-.4 1.1-1.1c0-.6-.5-1-1.2-1.3c-.9-.4-1.9-.9-1.9-2.1c0-1 .9-1.9 2.3-1.9c.6 0 1 .1 1.3.2c.2.4.3 1.3.4 1.6c0 0-.4.1-.4.1zm3.9 4.5c0 1.1-1.1 1.8-2 2.1c0 0-.2-.5-.2-.5c.7-.3 1.2-.7 1.2-1.2c0-.6-.4-.9-1-1c0-.1-.1-.2-.1-.4c0-.4.3-.6.7-.6c.5 0 1.4.5 1.4 1.6zm8.4-4.5c-.3-.9-.8-1.5-1.5-1.5c-.6 0-1 .5-1 1.1c0 .6.6 1 1.3 1.3c1.1.4 1.8 1 1.8 2c0 1.4-1.2 2.1-2.4 2.1c-.8 0-1.5-.3-1.8-.5c-.1-.2-.2-1.3-.2-1.8c0 0 .4-.1.4-.1c.3 1 .9 1.9 1.8 1.9c.6 0 1.1-.4 1.1-1.1c0-.6-.4-1-1.2-1.3c-.9-.4-1.9-.9-1.9-2.1c0-1 .9-1.9 2.3-1.9c.6 0 1 .1 1.4.2c.1.4.2 1.3.3 1.6c0 0-.4.1-.4.1zm8.8 4.4c-.7.1-1.5.4-2.2.6c-.01-.02-.1-.1-.1-.1c0 0 0-1.07 0-1.1c-.3.3-.7.6-1.1.8c-.4.3-.8.4-1.2.4c-1 0-1.8-.6-1.8-2.3c0 0 0-2.9 0-2.9c0-.8-.1-.9-.9-1c0 0 0-.4 0-.4c.7 0 1.4-.1 2.1-.3c0 .5 0 1.2 0 2.2c0 0 0 2 0 2c0 1.4.6 1.7 1.3 1.7c.5 0 1.1-.2 1.6-.7c0 0 0-3.5 0-3.5c0-.8-.1-.9-1.2-1c0 0 0-.4 0-.4c.8 0 1.6-.1 2.4-.3c0 0 0 5.1 0 5.1c0 .7.1.8.7.8c-.03.04.4.1.4.1c0 0-.01.34 0 .3zm4.6-4.4c-.3-.9-.9-1.5-1.6-1.5c-.6 0-1 .5-1 1.1c0 .6.6 1 1.3 1.3c1.1.4 1.9 1 1.9 2c0 1.4-1.3 2.1-2.5 2.1c-.7 0-1.4-.3-1.7-.5c-.1-.2-.2-1.3-.2-1.8c0 0 .3-.1.3-.1c.3 1 1 1.9 1.9 1.9c.5 0 1.1-.4 1.1-1.1c0-.6-.5-1-1.2-1.3c-.9-.4-1.9-.9-1.9-2.1c0-1 .9-1.9 2.3-1.9c.6 0 1 .1 1.3.2c.1.4.3 1.3.3 1.6c0 0-.3.1-.3.1z" stroke="none" fill="#000"/></g><g id="Polygon5902"><path d="m.2 115.9c0 0 .02-.39 0-.4c1-.1 1.1-.2 1.1-1.2c0 0 0-7.1 0-7.1c0-1-.1-1-1-1.1c0 0 0-.4 0-.4c.7 0 1.7-.3 2.2-.5c0 0 0 9.1 0 9.1c0 1 .1 1.1 1.1 1.2c-.03.01 0 .4 0 .4l-3.4 0zm4.9-8.8c0-.5.3-.8.7-.8c.5 0 .8.3.8.8c0 .4-.3.8-.8.8c-.4 0-.7-.4-.7-.8zm-.8 8.8c0 0-.03-.39 0-.4c.9-.1 1-.2 1-1.2c0 0 0-3.1 0-3.1c0-.9 0-1-.9-1.1c0 0 0-.4 0-.4c.7-.1 1.4-.3 2.1-.6c0 0 0 5.2 0 5.2c0 1 .1 1.1 1.1 1.2c-.03.01 0 .4 0 .4l-3.3 0zm9.6-1.3c-.6.8-1.6 1.5-2.5 1.5c-1.9 0-3-1.5-3-3.2c0-1.1.5-2.1 1.5-2.9c.8-.6 1.7-.8 2.2-.8c.6 0 1.1.2 1.4.4c.2.1.2.3.2.4c0 .3-.3.7-.5.7c0 0-.1-.1-.3-.2c-.4-.4-.9-.6-1.5-.6c-.9 0-1.8.8-1.8 2.4c0 2.1 1.4 2.8 2.2 2.8c.7 0 1.2-.2 1.9-.9c0 0 .2.4.2.4zm7.1 1.3c-.2.1-.5.2-.6.2c-1 0-1.5-.6-1.5-1.8c.01 0 0-4.4 0-4.4l-1 0l-.1-.1l.4-.5l.7 0l0-1l1-1l.2 0l0 2c0 0 1.69.05 1.7 0c.1.2.1.5-.1.6c0 .03-1.6 0-1.6 0c0 0 0 3.89 0 3.9c0 1.2.5 1.4.9 1.4c.3 0 .7-.1.9-.2c0-.03.1.4.1.4c0 0-.99.49-1 .5zm7-1.3c-1 1.2-2 1.5-2.5 1.5c-1.8 0-2.9-1.5-2.9-3.2c0-1 .4-2 1-2.6c.6-.7 1.4-1.1 2.2-1.1c1.2 0 2.2 1.1 2.2 2.2c0 .3 0 .5-.3.5c-.3.1-2.1.2-3.9.3c0 2 1.2 2.9 2.2 2.9c.6 0 1.2-.3 1.7-.8c0 0 .3.3.3.3zm-4.1-3c.8 0 1.6 0 2.5-.1c.3 0 .4-.1.4-.3c0-.8-.5-1.5-1.4-1.5c-.7 0-1.3.7-1.5 1.9zm13.3 4.3c0 0-.03-.39 0-.4c.9-.1 1-.1 1-1.2c0 0 0-2.5 0-2.5c0-1.1-.4-1.7-1.3-1.7c-.5 0-1.1.3-1.7.7c0 .2.1.4.1.7c0 0 0 2.9 0 2.9c0 .9.1 1 .9 1.1c.02.01 0 .4 0 .4l-3.2 0c0 0 .01-.39 0-.4c.9-.1 1.1-.2 1.1-1.1c0 0 0-2.6 0-2.6c0-1.1-.4-1.7-1.3-1.7c-.6 0-1.2.4-1.7.7c0 0 0 3.6 0 3.6c0 .9.2 1 .9 1.1c-.01.01 0 .4 0 .4l-3.2 0c0 0 .03-.39 0-.4c1-.1 1.2-.2 1.2-1.1c0 0 0-3.1 0-3.1c0-1-.1-1.1-1-1.2c0 0 0-.4 0-.4c.7-.1 1.5-.3 2.1-.6c0 0 0 1.2 0 1.2c.3-.2.7-.4 1.1-.7c.4-.3.8-.4 1.2-.4c.8 0 1.4.4 1.7 1.2c.4-.3.9-.6 1.3-.8c.3-.3.7-.4 1.1-.4c1.2 0 1.9.8 1.9 2.3c0 0 0 2.9 0 2.9c0 1 .1 1 1 1.1c-.04.01 0 .4 0 .4l-3.2 0zm14.7-.4c-.7.1-1.5.4-2.2.6c-.02-.02-.1-.1-.1-.1c0 0-.01-1.07 0-1.1c-.4.3-.7.6-1.1.8c-.5.3-.8.4-1.2.4c-1 0-1.8-.6-1.8-2.3c0 0 0-2.9 0-2.9c0-.8-.1-.9-1-1c0 0 0-.4 0-.4c.8 0 1.5-.1 2.2-.3c-.1.5-.1 1.2-.1 2.2c0 0 0 2 0 2c0 1.4.7 1.7 1.4 1.7c.5 0 1.1-.2 1.6-.7c0 0 0-3.5 0-3.5c0-.8-.1-.9-1.2-1c0 0 0-.4 0-.4c.8 0 1.6-.1 2.4-.3c0 0 0 5.1 0 5.1c0 .7.1.8.7.8c-.04.04.4.1.4.1c0 0-.02.34 0 .3zm4.9.4c0 0 0-.39 0-.4c.9-.1 1-.2 1-1.2c0 0 0-2.5 0-2.5c0-1.1-.4-1.7-1.4-1.7c-.6 0-1.2.3-1.6.7c0 0 0 3.5 0 3.5c0 1.1.1 1.1 1 1.2c-.03.01 0 .4 0 .4l-3.3 0c0 0 .01-.39 0-.4c1-.1 1.1-.2 1.1-1.2c0 0 0-3.1 0-3.1c0-.9-.1-1-.9-1.1c0 0 0-.4 0-.4c.7-.1 1.4-.3 2.1-.6c0 0 0 1.2 0 1.2c.3-.2.6-.4 1-.7c.4-.3.8-.4 1.2-.4c1.2 0 2 .8 2 2.2c0 0 0 2.9 0 2.9c0 1.1.1 1.1.9 1.2c.02.01 0 .4 0 .4l-3.1 0zm6.6 0c-.2.1-.4.2-.6.2c-.9 0-1.5-.6-1.5-1.8c.05 0 0-4.4 0-4.4l-1 0l0-.1l.4-.5l.6 0l0-1l1-1l.2 0l0 2c0 0 1.73.05 1.7 0c.2.2.1.5-.1.6c.04.03-1.6 0-1.6 0c0 0 .03 3.89 0 3.9c0 1.2.5 1.4.9 1.4c.4 0 .7-.1.9-.2c.03-.03.2.4.2.4c0 0-1.05.49-1.1.5zm4-.3c0 1.1-1.1 1.8-2 2.1c0 0-.2-.5-.2-.5c.8-.3 1.2-.7 1.2-1.2c0-.6-.4-.9-1-1c0-.1-.1-.2-.1-.4c0-.4.3-.6.7-.6c.5 0 1.4.5 1.4 1.6zm8.4-4.5c-.3-.9-.8-1.5-1.5-1.5c-.6 0-1 .5-1 1.1c0 .6.6 1 1.3 1.3c1.1.4 1.9 1 1.9 2c0 1.4-1.3 2.1-2.5 2.1c-.8 0-1.5-.3-1.7-.5c-.2-.2-.3-1.3-.3-1.8c0 0 .4-.1.4-.1c.3 1 .9 1.9 1.8 1.9c.6 0 1.1-.4 1.1-1.1c0-.6-.4-1-1.2-1.3c-.9-.4-1.8-.9-1.8-2.1c0-1 .9-1.9 2.2-1.9c.6 0 1.1.1 1.4.2c.1.4.3 1.3.3 1.6c0 0-.4.1-.4.1zm2.4-4c0-.5.3-.8.7-.8c.5 0 .8.3.8.8c0 .4-.3.8-.8.8c-.4 0-.7-.4-.7-.8zm-.8 8.8c0 0-.02-.39 0-.4c.9-.1 1-.2 1-1.2c0 0 0-3.1 0-3.1c0-.9 0-1-.9-1.1c0 0 0-.4 0-.4c.8-.1 1.5-.3 2.1-.6c0 0 0 5.2 0 5.2c0 1 .1 1.1 1.1 1.2c-.02.01 0 .4 0 .4l-3.3 0zm14.7-.4c-.3.1-1.5.3-2.3.6c-.04-.02 0-1 0-1c0 0-.96.55-1 .5c-.5.4-.9.5-1.1.5c-1.2 0-2.8-1.1-2.8-3.2c0-2.1 1.8-3.7 3.9-3.7c.2 0 .6 0 1 .1c0 0 0-2.1 0-2.1c0-1-.1-1-1.2-1.1c0 0 0-.4 0-.4c.8-.1 1.8-.3 2.3-.5c0 0 0 9 0 9c0 .8.1.8.7.9c0-.01.5 0 .5 0c0 0-.02.41 0 .4zm-2.3-5c-.4-.5-1-.8-1.6-.8c-.7 0-1.9.6-1.9 2.8c0 1.8 1.1 2.6 2 2.6c.6 0 1.1-.2 1.5-.5c0 0 0-4.1 0-4.1zm9.5 2c0 2.4-1.7 3.6-3.2 3.6c-2.1 0-3.3-1.7-3.3-3.3c0-2.5 1.9-3.6 3.3-3.6c1.8 0 3.2 1.5 3.2 3.3zm-5.1-.2c0 1.9.8 3.3 2.1 3.3c.9 0 1.6-.7 1.6-2.8c0-1.7-.7-3.1-2-3.1c-.9 0-1.7.9-1.7 2.6zm5.8 3.6c0 0 .02-.39 0-.4c1-.1 1.1-.2 1.1-1.2c0 0 0-7.1 0-7.1c0-1-.1-1-1-1.1c0 0 0-.4 0-.4c.7 0 1.7-.3 2.2-.5c0 0 0 9.1 0 9.1c0 1 .1 1.1 1.1 1.2c-.04.01 0 .4 0 .4l-3.4 0zm9.5-1.3c-.9 1.2-2 1.5-2.4 1.5c-1.9 0-3-1.5-3-3.2c0-1 .4-2 1-2.6c.6-.7 1.5-1.1 2.2-1.1c1.3 0 2.3 1.1 2.3 2.2c0 .3-.1.5-.4.5c-.2.1-2.1.2-3.9.3c0 2 1.2 2.9 2.3 2.9c.6 0 1.1-.3 1.7-.8c0 0 .2.3.2.3zm-4.1-3c.8 0 1.7 0 2.5-.1c.3 0 .4-.1.4-.3c0-.8-.5-1.5-1.3-1.5c-.7 0-1.4.7-1.6 1.9zm9-.5c-.3-.9-.8-1.5-1.6-1.5c-.5 0-.9.5-.9 1.1c0 .6.6 1 1.2 1.3c1.2.4 1.9 1 1.9 2c0 1.4-1.3 2.1-2.5 2.1c-.7 0-1.4-.3-1.7-.5c-.1-.2-.2-1.3-.2-1.8c0 0 .4-.1.4-.1c.2 1 .9 1.9 1.8 1.9c.6 0 1.1-.4 1.1-1.1c0-.6-.5-1-1.2-1.3c-.9-.4-1.9-.9-1.9-2.1c0-1 .9-1.9 2.3-1.9c.6 0 1 .1 1.3.2c.2.4.3 1.3.4 1.6c0 0-.4.1-.4.1zm7.1 3.5c-.9 1.2-2 1.5-2.4 1.5c-1.9 0-3-1.5-3-3.2c0-1 .4-2 1-2.6c.6-.7 1.5-1.1 2.2-1.1c1.3 0 2.3 1.1 2.3 2.2c0 .3-.1.5-.4.5c-.2.1-2.1.2-3.9.3c0 2 1.2 2.9 2.3 2.9c.6 0 1.1-.3 1.7-.8c0 0 .2.3.2.3zm-4.1-3c.8 0 1.7 0 2.5-.1c.3 0 .4-.1.4-.3c0-.8-.5-1.5-1.3-1.5c-.7 0-1.4.7-1.6 1.9zm12.4 3.9c-.3.1-1.5.3-2.3.6c-.03-.02 0-1 0-1c0 0-.95.55-.9.5c-.6.4-1 .5-1.2.5c-1.2 0-2.8-1.1-2.8-3.2c0-2.1 1.8-3.7 3.9-3.7c.2 0 .6 0 1 .1c0 0 0-2.1 0-2.1c0-1-.1-1-1.2-1.1c0 0 0-.4 0-.4c.8-.1 1.8-.3 2.4-.5c0 0 0 9 0 9c0 .8.1.8.6.9c.01-.01.5 0 .5 0c0 0-.01.41 0 .4zm-2.3-5c-.4-.5-1-.8-1.6-.8c-.7 0-1.9.6-1.9 2.8c0 1.8 1.1 2.6 2 2.6c.6 0 1.1-.2 1.5-.5c0 0 0-4.1 0-4.1zm10 9c0 0-.01-.37 0-.4c1.2-.1 1.3-.2 1.3-1.2c-.04-.02 0-2.4 0-2.4c0 0-1.63.58-1.6.6c-2.2 0-3.3-1.7-3.3-3.2c0-2.1 2-3.7 4.1-3.7c.5 0 .8.1 1 .2c.2 0 .3 0 .4 0c.1 0 .3 0 .5-.1c0 0 .1 0 .1 0c0 .3-.1.6-.1 1.6c0 0 0 7 0 7c0 1.1.1 1.1 1.2 1.2c-.01.03 0 .4 0 .4l-3.6 0zm1.3-9.1c-.4-.4-1-.6-1.5-.6c-1 0-2 .9-2 2.6c0 1.9 1.2 2.8 2.4 2.8c.4 0 .8-.1 1.1-.2c0 0 0-4.6 0-4.6zm9.8 5.1c-.6.1-1.4.4-2.2.6c.04-.02 0-.1 0-.1c0 0-.05-1.07 0-1.1c-.4.3-.7.6-1.2.8c-.4.3-.7.4-1.1.4c-1 0-1.9-.6-1.9-2.3c0 0 0-2.9 0-2.9c0-.8 0-.9-.9-1c0 0 0-.4 0-.4c.7 0 1.4-.1 2.2-.3c-.1.5-.1 1.2-.1 2.2c0 0 0 2 0 2c0 1.4.7 1.7 1.3 1.7c.6 0 1.1-.2 1.7-.7c0 0 0-3.5 0-3.5c0-.8-.1-.9-1.2-1c0 0 0-.4 0-.4c.8 0 1.5-.1 2.3-.3c0 0 0 5.1 0 5.1c0 .7.2.8.7.8c.03.04.4.1.4.1c0 0 .05.34 0 .3zm6.2-.9c-1 1.2-2 1.5-2.5 1.5c-1.8 0-2.9-1.5-2.9-3.2c0-1 .4-2 1-2.6c.6-.7 1.4-1.1 2.2-1.1c1.2 0 2.2 1.1 2.2 2.2c0 .3 0 .5-.3.5c-.3.1-2.1.2-3.9.3c0 2 1.2 2.9 2.2 2.9c.6 0 1.2-.3 1.7-.8c0 0 .3.3.3.3zm-4.1-3c.8 0 1.6 0 2.5-.1c.3 0 .4-.1.4-.3c0-.8-.5-1.5-1.4-1.5c-.7 0-1.3.7-1.5 1.9zm15.1-1.9c-.8.1-.9.3-1.3 1.2c-.5 1.1-1.3 2.9-2.2 5.2c0 0-.4 0-.4 0c-.6-1.8-1.3-3.5-2-5.3c-.4-.9-.5-1-1.3-1.1c-.01.02 0-.4 0-.4l3.1 0c0 0-.03.42 0 .4c-.8.1-.9.2-.6.9c.4 1 1 2.6 1.4 3.7c.5-1.2 1-2.6 1.3-3.6c.3-.7.2-.9-.7-1c.01.02 0-.4 0-.4l2.7 0c0 0-.02.42 0 .4zm5.6 4.9c-1 1.2-2 1.5-2.5 1.5c-1.8 0-2.9-1.5-2.9-3.2c0-1 .4-2 1-2.6c.6-.7 1.4-1.1 2.2-1.1c1.2 0 2.2 1.1 2.2 2.2c0 .3 0 .5-.3.5c-.3.1-2.1.2-3.9.3c0 2 1.2 2.9 2.2 2.9c.6 0 1.2-.3 1.7-.8c0 0 .3.3.3.3zm-4.1-3c.8 0 1.6 0 2.5-.1c.3 0 .4-.1.4-.3c0-.8-.5-1.5-1.4-1.5c-.7 0-1.3.7-1.5 1.9zm4.7 4.3c0 0-.01-.39 0-.4c.9-.1 1.1-.2 1.1-1.2c0 0 0-7.1 0-7.1c0-1-.1-1-1.1-1.1c0 0 0-.4 0-.4c.8 0 1.7-.3 2.3-.5c0 0 0 9.1 0 9.1c0 1 .1 1.1 1 1.2c.03.01 0 .4 0 .4l-3.3 0z" stroke="none" fill="#000"/></g><g id="Polygon5901"><path d="m7.1 95c0 2.4-1.8 3.6-3.3 3.6c-2 0-3.2-1.7-3.2-3.3c0-2.5 1.9-3.6 3.2-3.6c1.9 0 3.3 1.5 3.3 3.3zm-5.2-.2c0 1.9.9 3.3 2.1 3.3c.9 0 1.7-.7 1.7-2.8c0-1.7-.7-3.1-2-3.1c-.9 0-1.8.9-1.8 2.6zm14.1 3.6c0 0 .02-.39 0-.4c.8-.1 1-.2 1-1.1c0 0 0-3.7 0-3.7c0-.6-.1-.8-.8-.8c0 .03-2.1 0-2.1 0c0 0 .05 4.5 0 4.5c0 .9.1 1 1 1.1c.04.01 0 .4 0 .4l-3.1 0c0 0 0-.39 0-.4c.9-.1 1-.2 1-1.1c-.04 0 0-4.5 0-4.5l-2.9 0c0 0 .04 4.44 0 4.4c0 1 .1 1.1 1 1.2c.05.03 0 .4 0 .4l-3.1 0c0 0-.03-.39 0-.4c.9-.1 1-.1 1-1.2c-.04.04 0-4.4 0-4.4l-1.1 0l-.1-.1l.5-.5l.7 0c0 0-.04-.25 0-.3c0-.3 0-.7.1-1c.2-.5.5-1.1 1.3-1.7c.5-.4 1.1-.7 1.9-.8c.9 0 1.5.4 1.7.8c.7-.7 1.6-1 2.2-1.1c1 0 1.5.5 1.6.7c.2.2.2.4.1.6c0 .1-.2.3-.3.3c-.2.1-.3.2-.5 0c-.3-.3-.7-.9-1.5-.9c-.4 0-.7.2-1 .6c-.3.4-.5 1.2-.5 2.2c.05.05 0 .6 0 .6c0 0 1.25.05 1.2 0c1.2 0 2.1 0 2.9-.1c0 0 0 5.2 0 5.2c0 .9 0 1 1 1.1c-.01.01 0 .4 0 .4l-3.2 0zm-3-7c0-.3 0-.7.1-1c.1-.2.1-.5.3-.8c-.3-.5-.9-.9-1.7-.9c-.6 0-.9.3-1.1.6c-.2.4-.5 1.1-.5 2.1c.04.03 0 .4 0 .4l2.9 0c0 0-.04-.36 0-.4zm12.6 5.7c-.7.8-1.7 1.5-2.6 1.5c-1.9 0-3-1.5-3-3.2c0-1.1.5-2.1 1.5-2.9c.8-.6 1.7-.8 2.3-.8c.6 0 1.1.2 1.3.4c.2.1.2.3.2.4c0 .3-.3.7-.4.7c-.1 0-.2-.1-.3-.2c-.5-.4-1-.6-1.5-.6c-1 0-1.9.8-1.9 2.4c0 2.1 1.4 2.8 2.3 2.8c.6 0 1.1-.2 1.8-.9c0 0 .3.4.3.4zm1.5-7.5c0-.5.3-.8.7-.8c.4 0 .8.3.8.8c0 .4-.4.8-.8.8c-.4 0-.7-.4-.7-.8zm-.8 8.8c0 0-.04-.39 0-.4c.9-.1 1-.2 1-1.2c0 0 0-3.1 0-3.1c0-.9 0-1-.9-1.1c0 0 0-.4 0-.4c.7-.1 1.4-.3 2.1-.6c0 0 0 5.2 0 5.2c0 1 .1 1.1 1.1 1.2c-.04.01 0 .4 0 .4l-3.3 0zm9.4-1.3c-.9 1.2-2 1.5-2.4 1.5c-1.9 0-2.9-1.5-2.9-3.2c0-1 .3-2 .9-2.6c.7-.7 1.5-1.1 2.3-1.1c1.2 0 2.2 1.1 2.2 2.2c0 .3-.1.5-.3.5c-.3.1-2.2.2-4 .3c.1 2 1.2 2.9 2.3 2.9c.6 0 1.1-.3 1.7-.8c0 0 .2.3.2.3zm-4.1-3c.9 0 1.7 0 2.6-.1c.2 0 .3-.1.3-.3c0-.8-.5-1.5-1.3-1.5c-.7 0-1.4.7-1.6 1.9zm9.3 4.3c0 0 0-.39 0-.4c.9-.1 1-.2 1-1.2c0 0 0-2.5 0-2.5c0-1.1-.4-1.7-1.4-1.7c-.6 0-1.2.3-1.6.7c0 0 0 3.5 0 3.5c0 1.1.1 1.1 1 1.2c-.03.01 0 .4 0 .4l-3.3 0c0 0 .01-.39 0-.4c1-.1 1.1-.2 1.1-1.2c0 0 0-3.1 0-3.1c0-.9-.1-1-.9-1.1c0 0 0-.4 0-.4c.7-.1 1.4-.3 2.1-.6c0 0 0 1.2 0 1.2c.3-.2.6-.4 1-.7c.4-.3.8-.4 1.2-.4c1.2 0 2 .8 2 2.2c0 0 0 2.9 0 2.9c0 1.1.1 1.1.9 1.2c.02.01 0 .4 0 .4l-3.1 0zm4.8-8.8c0-.5.3-.8.7-.8c.4 0 .8.3.8.8c0 .4-.4.8-.8.8c-.4 0-.7-.4-.7-.8zm-.8 8.8c0 0-.04-.39 0-.4c.9-.1 1-.2 1-1.2c0 0 0-3.1 0-3.1c0-.9 0-1-.9-1.1c0 0 0-.4 0-.4c.7-.1 1.4-.3 2.1-.6c0 0 0 5.2 0 5.2c0 1 .1 1.1 1.1 1.2c-.04.01 0 .4 0 .4l-3.3 0zm7.9-4.8c-.3-.9-.8-1.5-1.6-1.5c-.5 0-1 .5-1 1.1c0 .6.6 1 1.3 1.3c1.1.4 1.9 1 1.9 2c0 1.4-1.3 2.1-2.5 2.1c-.7 0-1.4-.3-1.7-.5c-.1-.2-.2-1.3-.2-1.8c0 0 .4-.1.4-.1c.2 1 .9 1.9 1.8 1.9c.6 0 1.1-.4 1.1-1.1c0-.6-.5-1-1.2-1.3c-.9-.4-1.9-.9-1.9-2.1c0-1 .9-1.9 2.3-1.9c.6 0 1 .1 1.3.2c.1.4.3 1.3.4 1.6c0 0-.4.1-.4.1zm7.2-.3c.5-.8 1.1-1.6 1.8-1.6c.5 0 .9.4.9.7c0 .3-.2.6-.5.8c-.2 0-.3 0-.4-.1c-.2-.2-.4-.3-.6-.3c-.4 0-.9.5-1.2 1.3c0 0 0 2.7 0 2.7c0 1 .1 1.1 1.2 1.2c.01.01 0 .4 0 .4l-3.4 0c0 0-.04-.39 0-.4c.9-.1 1-.2 1-1.2c0 0 0-3.1 0-3.1c0-1-.1-1-.9-1.1c0 0 0-.4 0-.4c.7-.1 1.4-.3 2.1-.6c-.02.02 0 1.7 0 1.7c0 0 .01-.04 0 0zm8.6 3.8c-1 1.2-2 1.5-2.5 1.5c-1.8 0-2.9-1.5-2.9-3.2c0-1 .4-2 1-2.6c.6-.7 1.4-1.1 2.2-1.1c1.2 0 2.2 1.1 2.2 2.2c0 .3 0 .5-.3.5c-.3.1-2.1.2-3.9.3c0 2 1.2 2.9 2.2 2.9c.6 0 1.2-.3 1.7-.8c0 0 .3.3.3.3zm-4.1-3c.8 0 1.6 0 2.5-.1c.3 0 .3-.1.3-.3c.1-.8-.4-1.5-1.3-1.5c-.7 0-1.3.7-1.5 1.9zm8.9-.5c-.3-.9-.8-1.5-1.5-1.5c-.6 0-1 .5-1 1.1c0 .6.6 1 1.3 1.3c1.1.4 1.9 1 1.9 2c0 1.4-1.3 2.1-2.5 2.1c-.8 0-1.5-.3-1.7-.5c-.1-.2-.3-1.3-.3-1.8c0 0 .4-.1.4-.1c.3 1 1 1.9 1.9 1.9c.5 0 1-.4 1-1.1c0-.6-.4-1-1.2-1.3c-.9-.4-1.8-.9-1.8-2.1c0-1 .9-1.9 2.2-1.9c.7 0 1.1.1 1.4.2c.1.4.3 1.3.3 1.6c0 0-.4.1-.4.1zm9.7 5c-.2 0-.5-.2-.7-.3c-.2-.2-.2-.4-.3-.7c-.6.4-1.3 1-1.8 1c-1.1 0-1.8-.9-1.8-1.8c0-.8.4-1.2 1.2-1.5c.9-.3 2-.7 2.3-1c0 0 0-.3 0-.3c0-1.1-.5-1.7-1.2-1.7c-.3 0-.5.1-.7.3c-.2.2-.3.6-.4 1c-.1.3-.3.4-.5.4c-.2 0-.6-.3-.6-.7c0-.2.2-.4.4-.6c.5-.3 1.4-.9 2.3-1c.4 0 .9.1 1.2.4c.6.4.7 1 .7 1.8c0 0 0 2.8 0 2.8c0 .7.3.9.5.9c.2 0 .4-.1.6-.2c-.03.03.1.4.1.4c0 0-1.26.78-1.3.8zm-1.1-3.8c-.3.2-1 .5-1.3.6c-.6.3-.9.6-.9 1.1c0 .8.6 1.2 1 1.2c.4 0 1-.3 1.2-.6c0 0 0-2.3 0-2.3zm5.9-3c.2-.1.4-.1.6-.1c1.6 0 3 1.3 3 3.1c0 2.2-1.8 3.8-3.8 3.8c-.6 0-1.4-.2-2.2-.6c0 0 0-8.3 0-8.3c0-.9 0-1-1-1.1c0 0 0-.4 0-.4c.7 0 1.6-.3 2.2-.5c-.03.02 0 4.6 0 4.6c0 0 1.18-.48 1.2-.5zm-1.2 4.9c0 .2 0 .3.1.5c0 .3.5.8 1.3.8c1.2 0 2-1.1 2-2.8c0-1.7-1-2.7-2.3-2.7c-.4 0-.9.1-1.1.3c0 0 0 3.9 0 3.9zm12.5-1.7c0 2.4-1.7 3.6-3.2 3.6c-2.1 0-3.3-1.7-3.3-3.3c0-2.5 1.9-3.6 3.3-3.6c1.8 0 3.2 1.5 3.2 3.3zm-5.1-.2c0 1.9.8 3.3 2 3.3c1 0 1.7-.7 1.7-2.8c0-1.7-.7-3.1-2-3.1c-.9 0-1.7.9-1.7 2.6zm6.1 2.9c0-.5.4-.8.9-.8c.4 0 .8.3.8.8c0 .5-.4.9-.8.9c-.5 0-.9-.4-.9-.9zm10.8-9c1.9 0 3.3.3 4.3 1.2c.7.7 1.2 1.8 1.2 3.3c0 1.8-.7 3.1-1.8 4c-1.1.8-2.6 1.2-4.5 1.2c.03 0-3.5 0-3.5 0c0 0-.02-.4 0-.4c1.3-.1 1.4-.2 1.4-1.5c0 0 0-6 0-6c0-1.3-.1-1.3-1.3-1.4c.01-.01 0-.4 0-.4c0 0 4.23-.05 4.2 0zm-1.6 7.7c0 1.2.5 1.5 1.6 1.5c2.8 0 4.1-2.1 4.1-4.5c0-1.6-.6-2.9-1.8-3.6c-.7-.5-1.6-.6-2.6-.6c-.6 0-1 0-1.1.1c-.2.1-.2.3-.2.9c0 0 0 6.2 0 6.2zm15.7 1.6c-.7.1-1.5.4-2.3.6c.05-.02 0-.1 0-.1c0 0-.04-1.07 0-1.1c-.4.3-.7.6-1.2.8c-.4.3-.7.4-1.1.4c-1 0-1.9-.6-1.9-2.3c0 0 0-2.9 0-2.9c0-.8 0-.9-.9-1c0 0 0-.4 0-.4c.7 0 1.4-.1 2.2-.3c-.1.5-.1 1.2-.1 2.2c0 0 0 2 0 2c0 1.4.7 1.7 1.3 1.7c.6 0 1.1-.2 1.7-.7c0 0 0-3.5 0-3.5c0-.8-.1-.9-1.2-1c0 0 0-.4 0-.4c.8 0 1.5-.1 2.3-.3c0 0 0 5.1 0 5.1c0 .7.2.8.7.8c.03.04.5.1.5.1c0 0-.05.34 0 .3zm6.3-.9c-.7.8-1.7 1.5-2.6 1.5c-1.9 0-3-1.5-3-3.2c0-1.1.5-2.1 1.5-2.9c.8-.6 1.7-.8 2.3-.8c.6 0 1.1.2 1.3.4c.2.1.3.3.3.4c0 .3-.4.7-.5.7c-.1 0-.2-.1-.3-.2c-.5-.4-1-.6-1.5-.6c-1 0-1.9.8-1.9 2.4c0 2.1 1.4 2.8 2.3 2.8c.6 0 1.1-.2 1.8-.9c0 0 .3.4.3.4zm1.5-7.5c0-.5.3-.8.7-.8c.5 0 .8.3.8.8c0 .4-.3.8-.8.8c-.4 0-.7-.4-.7-.8zm-.8 8.8c0 0-.03-.39 0-.4c.9-.1 1-.2 1-1.2c0 0 0-3.1 0-3.1c0-.9 0-1-.9-1.1c0 0 0-.4 0-.4c.7-.1 1.4-.3 2.1-.6c0 0 0 5.2 0 5.2c0 1 .1 1.1 1.1 1.2c-.03.01 0 .4 0 .4l-3.3 0zm8.8.2c-.2 0-.6-.2-.7-.3c-.2-.2-.3-.4-.4-.7c-.6.4-1.3 1-1.8 1c-1 0-1.8-.9-1.8-1.8c0-.8.4-1.2 1.3-1.5c.9-.3 2-.7 2.3-1c0 0 0-.3 0-.3c0-1.1-.5-1.7-1.3-1.7c-.3 0-.5.1-.7.3c-.1.2-.3.6-.4 1c-.1.3-.2.4-.4.4c-.3 0-.7-.3-.7-.7c0-.2.2-.4.5-.6c.4-.3 1.4-.9 2.2-1c.5 0 .9.1 1.3.4c.5.4.6 1 .6 1.8c0 0 0 2.8 0 2.8c0 .7.3.9.6.9c.1 0 .4-.1.5-.2c0 .03.2.4.2.4c0 0-1.32.78-1.3.8zm-1.1-3.8c-.3.2-1.1.5-1.4.6c-.6.3-.9.6-.9 1.1c0 .8.6 1.2 1.1 1.2c.4 0 .9-.3 1.2-.6c0 0 0-2.3 0-2.3zm6.8-1.2c-.3-.9-.8-1.5-1.5-1.5c-.6 0-1 .5-1 1.1c0 .6.6 1 1.3 1.3c1.1.4 1.9 1 1.9 2c0 1.4-1.3 2.1-2.5 2.1c-.8 0-1.5-.3-1.7-.5c-.2-.2-.3-1.3-.3-1.8c0 0 .4-.1.4-.1c.3 1 .9 1.9 1.8 1.9c.6 0 1.1-.4 1.1-1.1c0-.6-.4-1-1.2-1.3c-.9-.4-1.8-.9-1.8-2.1c0-1 .9-1.9 2.2-1.9c.6 0 1.1.1 1.4.2c.1.4.3 1.3.3 1.6c0 0-.4.1-.4.1zm4.9-1.7c.3-.2.6-.2.8-.2c1.6 0 2.6 1.3 2.6 2.8c0 2.3-1.8 3.7-3.7 4.1c-.4 0-.8-.2-1-.3c0 0 0 2 0 2c0 1.1.1 1.2 1.2 1.3c.04 0 0 .4 0 .4l-3.5 0c0 0-.02-.4 0-.4c.9-.1 1.1-.2 1.1-1.2c0 0 0-6.8 0-6.8c0-.9-.1-1-1-1.1c0 0 0-.3 0-.3c.6-.1 1.5-.4 2.2-.7c-.04.02 0 1.2 0 1.2c0 0 1.34-.81 1.3-.8zm-1.3 5.4c.3.3.9.5 1.4.5c1.2 0 2.1-1 2.1-2.7c0-1.6-.9-2.5-2-2.5c-.5 0-1.1.3-1.5.6c0 0 0 4.1 0 4.1zm6.4-7.7c0-.5.3-.8.7-.8c.5 0 .8.3.8.8c0 .4-.3.8-.8.8c-.4 0-.7-.4-.7-.8zm-.8 8.8c0 0-.01-.39 0-.4c.9-.1 1-.2 1-1.2c0 0 0-3.1 0-3.1c0-.9 0-1-.9-1.1c0 0 0-.4 0-.4c.8-.1 1.5-.3 2.1-.6c0 0 0 5.2 0 5.2c0 1 .1 1.1 1.1 1.2c-.01.01 0 .4 0 .4l-3.3 0zm9.6-1.3c-.6.8-1.6 1.5-2.5 1.5c-1.9 0-3-1.5-3-3.2c0-1.1.5-2.1 1.5-2.9c.8-.6 1.7-.8 2.3-.8c.6 0 1.1.2 1.3.4c.2.1.2.3.2.4c0 .3-.3.7-.5.7c0 0-.1-.1-.2-.2c-.5-.4-1-.6-1.5-.6c-1 0-1.9.8-1.9 2.4c0 2.1 1.4 2.8 2.3 2.8c.6 0 1.1-.2 1.8-.9c0 0 .2.4.2.4zm7.1 1.3c-.2.1-.5.2-.6.2c-.9 0-1.5-.6-1.5-1.8c.03 0 0-4.4 0-4.4l-1 0l-.1-.1l.4-.5l.7 0l0-1l1-1l.2 0l0 2c0 0 1.71.05 1.7 0c.1.2.1.5-.1.6c.02.03-1.6 0-1.6 0c0 0 .01 3.89 0 3.9c0 1.2.5 1.4.9 1.4c.4 0 .7-.1.9-.2c.01-.03.1.4.1.4c0 0-.97.49-1 .5zm7-1.3c-1 1.2-2 1.5-2.5 1.5c-1.8 0-2.9-1.5-2.9-3.2c0-1 .4-2 1-2.6c.6-.7 1.4-1.1 2.2-1.1c1.3 0 2.3 1.1 2.3 2.2c0 .3-.1.5-.4.5c-.2.1-2.1.2-3.9.3c0 2 1.2 2.9 2.2 2.9c.6 0 1.2-.3 1.7-.8c0 0 .3.3.3.3zm-4.1-3c.8 0 1.6 0 2.5-.1c.3 0 .4-.1.4-.3c0-.8-.5-1.5-1.3-1.5c-.7 0-1.4.7-1.6 1.9z" stroke="none" fill="#000"/></g><g id="Polygon5900"><path d="m6.1 79.6c-.6.8-1.6 1.5-2.5 1.5c-1.9 0-3-1.5-3-3.2c0-1.1.5-2.1 1.5-2.9c.7-.6 1.7-.8 2.2-.8c.6 0 1.1.2 1.4.4c.2.1.2.3.2.4c0 .3-.3.7-.5.7c-.1 0-.1-.1-.3-.2c-.4-.4-.9-.6-1.5-.6c-1 0-1.8.8-1.8 2.4c0 2.1 1.4 2.8 2.2 2.8c.7 0 1.2-.2 1.9-.9c0 0 .2.4.2.4zm7.3-2.1c0 2.4-1.7 3.6-3.2 3.6c-2.1 0-3.3-1.7-3.3-3.3c0-2.5 1.9-3.6 3.3-3.6c1.8 0 3.2 1.5 3.2 3.3zm-5.1-.2c0 1.9.8 3.3 2 3.3c1 0 1.7-.7 1.7-2.8c0-1.7-.7-3.1-2-3.1c-.9 0-1.7.9-1.7 2.6zm8.3-1.5c.4-.8 1.1-1.6 1.8-1.6c.5 0 .8.4.8.7c0 .3-.2.6-.4.8c-.2 0-.4 0-.4-.1c-.3-.2-.4-.3-.7-.3c-.4 0-.8.5-1.2 1.3c0 0 0 2.7 0 2.7c0 1 .1 1.1 1.3 1.2c-.04.01 0 .4 0 .4l-3.5 0c0 0 .01-.39 0-.4c.9-.1 1-.2 1-1.2c0 0 0-3.1 0-3.1c0-1 0-1-.9-1.1c0 0 0-.4 0-.4c.7-.1 1.4-.3 2.1-.6c.03.02 0 1.7 0 1.7c0 0 .06-.04.1 0zm8.5 3.8c-.9 1.2-2 1.5-2.4 1.5c-1.9 0-3-1.5-3-3.2c0-1 .4-2 1-2.6c.6-.7 1.5-1.1 2.2-1.1c1.3 0 2.3 1.1 2.3 2.2c0 .3-.1.5-.4.5c-.2.1-2.1.2-3.9.3c0 2 1.2 2.9 2.3 2.9c.6 0 1.1-.3 1.7-.8c0 0 .2.3.2.3zm-4.1-3c.8 0 1.7 0 2.5-.1c.3 0 .4-.1.4-.3c0-.8-.5-1.5-1.3-1.5c-.7 0-1.4.7-1.6 1.9zm9.3 4.3c0 0-.02-.39 0-.4c.9-.1 1-.2 1-1.2c0 0 0-2.5 0-2.5c0-1.1-.4-1.7-1.4-1.7c-.6 0-1.2.3-1.6.7c0 0 0 3.5 0 3.5c0 1.1.1 1.1.9 1.2c.05.01 0 .4 0 .4l-3.2 0c0 0-.01-.39 0-.4c1-.1 1.1-.2 1.1-1.2c0 0 0-3.1 0-3.1c0-.9-.1-1-.9-1.1c0 0 0-.4 0-.4c.7-.1 1.4-.3 2.1-.6c0 0 0 1.2 0 1.2c.3-.2.6-.4 1-.7c.4-.3.8-.4 1.2-.4c1.2 0 2 .8 2 2.2c0 0 0 2.9 0 2.9c0 1.1 0 1.1.9 1.2c0 .01 0 .4 0 .4l-3.1 0zm11.2-.4c-.4.1-1.5.3-2.4.6c.03-.02 0-1 0-1c0 0-.88.55-.9.5c-.6.4-1 .5-1.2.5c-1.2 0-2.7-1.1-2.7-3.2c0-2.1 1.8-3.7 3.8-3.7c.3 0 .7 0 1 .1c0 0 0-2.1 0-2.1c0-1 0-1-1.1-1.1c0 0 0-.4 0-.4c.8-.1 1.8-.3 2.3-.5c0 0 0 9 0 9c0 .8.1.8.7.9c-.02-.01.5 0 .5 0c0 0-.04.41 0 .4zm-2.4-5c-.3-.5-.9-.8-1.5-.8c-.7 0-2 .6-2 2.8c0 1.8 1.1 2.6 2.1 2.6c.5 0 1.1-.2 1.4-.5c0 0 0-4.1 0-4.1zm7.8 5.6c-.2 0-.6-.2-.7-.3c-.2-.2-.3-.4-.4-.7c-.6.4-1.3 1-1.7 1c-1.1 0-1.8-.9-1.8-1.8c0-.8.3-1.2 1.2-1.5c.9-.3 2-.7 2.3-1c0 0 0-.3 0-.3c0-1.1-.5-1.7-1.3-1.7c-.3 0-.5.1-.6.3c-.2.2-.4.6-.5 1c-.1.3-.2.4-.4.4c-.3 0-.7-.3-.7-.7c0-.2.2-.4.5-.6c.4-.3 1.4-.9 2.2-1c.5 0 .9.1 1.3.4c.5.4.6 1 .6 1.8c0 0 0 2.8 0 2.8c0 .7.3.9.6.9c.2 0 .4-.1.5-.2c.01.03.2.4.2.4c0 0-1.31.78-1.3.8zm-1.1-3.8c-.3.2-1 .5-1.4.6c-.5.3-.9.6-.9 1.1c0 .8.6 1.2 1.1 1.2c.4 0 .9-.3 1.2-.6c0 0 0-2.3 0-2.3zm8.4 2.3c-1 1.2-2 1.5-2.5 1.5c-1.8 0-2.9-1.5-2.9-3.2c0-1 .4-2 1-2.6c.6-.7 1.4-1.1 2.2-1.1c1.2 0 2.3 1.1 2.3 2.2c0 .3-.1.5-.4.5c-.2.1-2.1.2-3.9.3c0 2 1.2 2.9 2.2 2.9c.6 0 1.2-.3 1.7-.8c0 0 .3.3.3.3zm-4.1-3c.8 0 1.6 0 2.5-.1c.3 0 .4-.1.4-.3c0-.8-.5-1.5-1.4-1.5c-.6 0-1.3.7-1.5 1.9zm5.3 3.6c0-.5.4-.8.8-.8c.5 0 .9.3.9.8c0 .5-.4.9-.9.9c-.4 0-.8-.4-.8-.9zm14.4-6.7c-.2-.7-.3-1.1-.5-1.4c-.2-.3-.5-.4-1.6-.4c.01-.02-1.1 0-1.1 0c0 0 .04 7.36 0 7.4c0 1.1.2 1.3 1.6 1.4c-.01-.02 0 .4 0 .4l-4.3 0c0 0-.02-.42 0-.4c1.3-.1 1.5-.3 1.5-1.4c-.03-.04 0-7.4 0-7.4c0 0-.96-.02-1 0c-1.2 0-1.5.1-1.7.4c-.2.3-.3.7-.5 1.4c0 0-.4 0-.4 0c.1-.9.1-1.9.2-2.7c0 0 .3 0 .3 0c.2.3.4.4.8.4c0 0 5.9 0 5.9 0c.4 0 .5-.1.8-.4c0 0 .3 0 .3 0c0 .7.1 1.8.1 2.6c0 0-.4.1-.4.1zm7.1 7c-.7.1-1.4.4-2.2.6c.03-.02-.1-.1-.1-.1c0 0 .04-1.07 0-1.1c-.3.3-.7.6-1.1.8c-.4.3-.7.4-1.1.4c-1 0-1.9-.6-1.9-2.3c0 0 0-2.9 0-2.9c0-.8 0-.9-.9-1c0 0 0-.4 0-.4c.7 0 1.4-.1 2.1-.3c0 .5 0 1.2 0 2.2c0 0 0 2 0 2c0 1.4.6 1.7 1.3 1.7c.6 0 1.1-.2 1.6-.7c0 0 0-3.5 0-3.5c0-.8-.1-.9-1.1-1c0 0 0-.4 0-.4c.7 0 1.5-.1 2.3-.3c0 0 0 5.1 0 5.1c0 .7.1.8.7.8c.01.04.4.1.4.1c0 0 .03.34 0 .3zm9 .4c0 0-.03-.39 0-.4c.9-.1 1-.1 1-1.2c0 0 0-2.5 0-2.5c0-1.1-.4-1.7-1.3-1.7c-.5 0-1.1.3-1.7.7c.1.2.1.4.1.7c0 0 0 2.9 0 2.9c0 .9.1 1 .9 1.1c.03.01 0 .4 0 .4l-3.2 0c0 0 .02-.39 0-.4c.9-.1 1.1-.2 1.1-1.1c0 0 0-2.6 0-2.6c0-1.1-.4-1.7-1.3-1.7c-.6 0-1.2.4-1.7.7c0 0 0 3.6 0 3.6c0 .9.2 1 .9 1.1c0 .01 0 .4 0 .4l-3.2 0c0 0 .03-.39 0-.4c1-.1 1.2-.2 1.2-1.1c0 0 0-3.1 0-3.1c0-1-.1-1.1-1-1.2c0 0 0-.4 0-.4c.7-.1 1.5-.3 2.1-.6c0 0 0 1.2 0 1.2c.3-.2.7-.4 1.1-.7c.4-.3.8-.4 1.3-.4c.7 0 1.3.4 1.6 1.2c.5-.3.9-.6 1.3-.8c.3-.3.7-.4 1.1-.4c1.2 0 1.9.8 1.9 2.3c0 0 0 2.9 0 2.9c0 1 .1 1 1 1.1c-.03.01 0 .4 0 .4l-3.2 0zm14.7-.4c-.4.1-1.5.3-2.4.6c.05-.02 0-1 0-1c0 0-.87.55-.9.5c-.6.4-1 .5-1.1.5c-1.2 0-2.8-1.1-2.8-3.2c0-2.1 1.8-3.7 3.9-3.7c.2 0 .6 0 .9.1c0 0 0-2.1 0-2.1c0-1 0-1-1.1-1.1c0 0 0-.4 0-.4c.8-.1 1.8-.3 2.3-.5c0 0 0 9 0 9c0 .8.1.8.7.9c-.01-.01.5 0 .5 0c0 0-.03.41 0 .4zm-2.4-5c-.3-.5-.9-.8-1.5-.8c-.7 0-1.9.6-1.9 2.8c0 1.8 1 2.6 2 2.6c.5 0 1.1-.2 1.4-.5c0 0 0-4.1 0-4.1zm9.6 2c0 2.4-1.7 3.6-3.2 3.6c-2.1 0-3.3-1.7-3.3-3.3c0-2.5 1.9-3.6 3.3-3.6c1.8 0 3.2 1.5 3.2 3.3zm-5.1-.2c0 1.9.8 3.3 2 3.3c1 0 1.7-.7 1.7-2.8c0-1.7-.7-3.1-2-3.1c-.9 0-1.7.9-1.7 2.6zm5.8 3.6c0 0 .01-.39 0-.4c1-.1 1.1-.2 1.1-1.2c0 0 0-7.1 0-7.1c0-1-.1-1-1-1.1c0 0 0-.4 0-.4c.7 0 1.7-.3 2.2-.5c0 0 0 9.1 0 9.1c0 1 .1 1.1 1.1 1.2c-.05.01 0 .4 0 .4l-3.4 0zm11.2-.4c-.7.1-1.5.4-2.2.6c-.04-.02-.1-.1-.1-.1c0 0-.03-1.07 0-1.1c-.4.3-.7.6-1.1.8c-.5.3-.8.4-1.2.4c-1 0-1.9-.6-1.9-2.3c0 0 0-2.9 0-2.9c0-.8 0-.9-.9-1c0 0 0-.4 0-.4c.7 0 1.5-.1 2.2-.3c-.1.5-.1 1.2-.1 2.2c0 0 0 2 0 2c0 1.4.7 1.7 1.4 1.7c.5 0 1.1-.2 1.6-.7c0 0 0-3.5 0-3.5c0-.8-.1-.9-1.2-1c0 0 0-.4 0-.4c.8 0 1.6-.1 2.4-.3c0 0 0 5.1 0 5.1c0 .7.1.8.6.8c.05.04.5.1.5.1c0 0-.03.34 0 .3zm3.9-6.1c.3-.2.6-.2.7-.2c1.7 0 2.7 1.3 2.7 2.8c0 2.3-1.8 3.7-3.7 4.1c-.5 0-.9-.2-1.1-.3c0 0 0 2 0 2c0 1.1.1 1.2 1.3 1.3c-.01 0 0 .4 0 .4l-3.6 0c0 0 .04-.4 0-.4c1-.1 1.1-.2 1.1-1.2c0 0 0-6.8 0-6.8c0-.9 0-1-1-1.1c0 0 0-.3 0-.3c.7-.1 1.5-.4 2.2-.7c.02.02 0 1.2 0 1.2c0 0 1.4-.81 1.4-.8zm-1.4 5.4c.3.3.9.5 1.4.5c1.3 0 2.1-1 2.1-2.7c0-1.6-.9-2.5-2-2.5c-.5 0-1.1.3-1.5.6c0 0 0 4.1 0 4.1zm8.6 1.1c-.2.1-.5.2-.6.2c-.9 0-1.5-.6-1.5-1.8c.03 0 0-4.4 0-4.4l-1 0l-.1-.1l.4-.5l.7 0l0-1l1-1l.2 0l0 2c0 0 1.71.05 1.7 0c.1.2.1.5-.1.6c.02.03-1.6 0-1.6 0c0 0 .01 3.89 0 3.9c0 1.2.5 1.4.9 1.4c.4 0 .7-.1.9-.2c.01-.03.1.4.1.4c0 0-.97.49-1 .5zm8.8-.4c-.7.1-1.5.4-2.2.6c-.03-.02-.1-.1-.1-.1c0 0-.02-1.07 0-1.1c-.4.3-.7.6-1.1.8c-.5.3-.8.4-1.2.4c-1 0-1.8-.6-1.8-2.3c0 0 0-2.9 0-2.9c0-.8-.1-.9-1-1c0 0 0-.4 0-.4c.7 0 1.5-.1 2.2-.3c-.1.5-.1 1.2-.1 2.2c0 0 0 2 0 2c0 1.4.7 1.7 1.4 1.7c.5 0 1.1-.2 1.6-.7c0 0 0-3.5 0-3.5c0-.8-.1-.9-1.2-1c0 0 0-.4 0-.4c.8 0 1.6-.1 2.4-.3c0 0 0 5.1 0 5.1c0 .7.1.8.7.8c-.05.04.4.1.4.1c0 0-.03.34 0 .3zm2.9-4.7c.5-.8 1.1-1.6 1.8-1.6c.5 0 .9.4.9.7c0 .3-.2.6-.5.8c-.2 0-.3 0-.4-.1c-.2-.2-.4-.3-.6-.3c-.4 0-.9.5-1.2 1.3c0 0 0 2.7 0 2.7c0 1 .1 1.1 1.2 1.2c.01.01 0 .4 0 .4l-3.4 0c0 0-.04-.39 0-.4c.9-.1 1-.2 1-1.2c0 0 0-3.1 0-3.1c0-1-.1-1-.9-1.1c0 0 0-.4 0-.4c.7-.1 1.4-.3 2.1-.6c-.02.02 0 1.7 0 1.7c0 0 .01-.04 0 0zm4.7 4.8c0 1.1-1.1 1.8-2 2.1c0 0-.2-.5-.2-.5c.8-.3 1.2-.7 1.2-1.2c0-.6-.4-.9-.9-1c-.1-.1-.2-.2-.2-.4c0-.4.3-.6.7-.6c.5 0 1.4.5 1.4 1.6z" stroke="none" fill="#000"/></g><g id="Polygon5899"><path d="m7.8 63c-.4.1-1.5.3-2.4.6c.03-.02 0-1 0-1c0 0-.89.55-.9.5c-.6.4-1 .5-1.2.5c-1.2 0-2.7-1.1-2.7-3.2c0-2.1 1.8-3.7 3.8-3.7c.3 0 .7 0 1 .1c0 0 0-2.1 0-2.1c0-1 0-1-1.1-1.1c0 0 0-.4 0-.4c.8-.1 1.8-.3 2.3-.5c0 0 0 9 0 9c0 .8.1.8.7.9c-.03-.01.5 0 .5 0c0 0-.05.41 0 .4zm-2.4-5c-.3-.5-.9-.8-1.5-.8c-.7 0-2 .6-2 2.8c0 1.8 1.1 2.6 2.1 2.6c.5 0 1.1-.2 1.4-.5c0 0 0-4.1 0-4.1zm9.6 2c0 2.4-1.8 3.6-3.2 3.6c-2.1 0-3.3-1.7-3.3-3.3c0-2.5 1.9-3.6 3.3-3.6c1.8 0 3.2 1.5 3.2 3.3zm-5.1-.2c0 1.9.8 3.3 2 3.3c1 0 1.7-.7 1.7-2.8c0-1.7-.7-3.1-2-3.1c-.9 0-1.7.9-1.7 2.6zm5.8 3.6c0 0-.01-.39 0-.4c.9-.1 1.1-.2 1.1-1.2c0 0 0-7.1 0-7.1c0-1-.1-1-1.1-1.1c0 0 0-.4 0-.4c.8 0 1.7-.3 2.3-.5c0 0 0 9.1 0 9.1c0 1 .1 1.1 1 1.2c.04.01 0 .4 0 .4l-3.3 0zm11.2-.4c-.7.1-1.5.4-2.3.6c.05-.02 0-.1 0-.1c0 0-.04-1.07 0-1.1c-.4.3-.7.6-1.2.8c-.4.3-.7.4-1.1.4c-1 0-1.9-.6-1.9-2.3c0 0 0-2.9 0-2.9c0-.8 0-.9-.9-1c0 0 0-.4 0-.4c.7 0 1.4-.1 2.2-.3c-.1.5-.1 1.2-.1 2.2c0 0 0 2 0 2c0 1.4.7 1.7 1.3 1.7c.6 0 1.1-.2 1.7-.7c0 0 0-3.5 0-3.5c0-.8-.1-.9-1.2-1c0 0 0-.4 0-.4c.8 0 1.5-.1 2.3-.3c0 0 0 5.1 0 5.1c0 .7.2.8.7.8c.03.04.5.1.5.1c0 0-.05.34 0 .3zm3.9-6.1c.3-.2.5-.2.7-.2c1.7 0 2.7 1.3 2.7 2.8c0 2.3-1.8 3.7-3.8 4.1c-.4 0-.8-.2-1-.3c0 0 0 2 0 2c0 1.1.1 1.2 1.3 1.3c-.02 0 0 .4 0 .4l-3.6 0c0 0 .02-.4 0-.4c1-.1 1.1-.2 1.1-1.2c0 0 0-6.8 0-6.8c0-.9 0-1-1-1.1c0 0 0-.3 0-.3c.7-.1 1.5-.4 2.2-.7c0 .02 0 1.2 0 1.2c0 0 1.38-.81 1.4-.8zm-1.4 5.4c.3.3.9.5 1.4.5c1.3 0 2.1-1 2.1-2.7c0-1.6-.9-2.5-2-2.5c-.5 0-1.1.3-1.5.6c0 0 0 4.1 0 4.1zm8.6 1.1c-.2.1-.5.2-.6.2c-1 0-1.5-.6-1.5-1.8c.01 0 0-4.4 0-4.4l-1 0l-.1-.1l.4-.5l.7 0l0-1l1-1l.2 0l0 2c0 0 1.69.05 1.7 0c.1.2.1.5-.1.6c0 .03-1.6 0-1.6 0c0 0 0 3.89 0 3.9c0 1.2.5 1.4.9 1.4c.3 0 .7-.1.9-.2c0-.03.1.4.1.4c0 0-.99.49-1 .5zm6.4.2c-.2 0-.5-.2-.7-.3c-.2-.2-.2-.4-.3-.7c-.6.4-1.3 1-1.8 1c-1.1 0-1.8-.9-1.8-1.8c0-.8.4-1.2 1.2-1.5c.9-.3 2-.7 2.3-1c0 0 0-.3 0-.3c0-1.1-.5-1.7-1.2-1.7c-.3 0-.5.1-.7.3c-.2.2-.3.6-.4 1c-.1.3-.3.4-.5.4c-.2 0-.6-.3-.6-.7c0-.2.2-.4.4-.6c.5-.3 1.4-.9 2.3-1c.4 0 .9.1 1.2.4c.6.4.7 1 .7 1.8c0 0 0 2.8 0 2.8c0 .7.3.9.5.9c.2 0 .4-.1.6-.2c-.03.03.1.4.1.4c0 0-1.26.78-1.3.8zm-1.1-3.8c-.3.2-1 .5-1.3.6c-.6.3-.9.6-.9 1.1c0 .8.6 1.2 1 1.2c.4 0 1-.3 1.2-.6c0 0 0-2.3 0-2.3zm5.7 3.6c-.3.1-.5.2-.7.2c-.9 0-1.4-.6-1.4-1.8c-.03 0 0-4.4 0-4.4l-1.1 0l0-.1l.4-.5l.7 0l0-1l.9-1l.3 0l0 2c0 0 1.65.05 1.7 0c.1.2 0 .5-.1.6c-.04.03-1.6 0-1.6 0c0 0-.04 3.89 0 3.9c0 1.2.5 1.4.8 1.4c.4 0 .7-.1 1-.2c-.04-.03.1.4.1.4c0 0-1.03.49-1 .5zm2.4-8.8c0-.5.4-.8.8-.8c.4 0 .8.3.8.8c0 .4-.4.8-.8.8c-.4 0-.8-.4-.8-.8zm-.7 8.8c0 0-.05-.39 0-.4c.9-.1 1-.2 1-1.2c0 0 0-3.1 0-3.1c0-.9 0-1-.9-1.1c0 0 0-.4 0-.4c.7-.1 1.4-.3 2.1-.6c0 0 0 5.2 0 5.2c0 1 .1 1.1 1.1 1.2c-.05.01 0 .4 0 .4l-3.3 0zm10.4-6.6c.2-.1.4-.1.6-.1c1.6 0 3 1.3 3 3.1c0 2.2-1.8 3.8-3.8 3.8c-.6 0-1.4-.2-2.2-.6c0 0 0-8.3 0-8.3c0-.9 0-1-1-1.1c0 0 0-.4 0-.4c.7 0 1.6-.3 2.2-.5c-.02.02 0 4.6 0 4.6c0 0 1.19-.48 1.2-.5zm-1.2 4.9c0 .2 0 .3.1.5c.1.3.5.8 1.3.8c1.2 0 2-1.1 2-2.8c0-1.7-1-2.7-2.3-2.7c-.4 0-.9.1-1.1.3c0 0 0 3.9 0 3.9zm11.4.4c-1 1.2-2 1.5-2.5 1.5c-1.8 0-2.9-1.5-2.9-3.2c0-1 .4-2 1-2.6c.6-.7 1.4-1.1 2.2-1.1c1.2 0 2.3 1.1 2.3 2.2c0 .3-.1.5-.4.5c-.2.1-2.1.2-3.9.3c0 2 1.2 2.9 2.2 2.9c.6 0 1.2-.3 1.7-.8c0 0 .3.3.3.3zm-4.1-3c.8 0 1.6 0 2.5-.1c.3 0 .4-.1.4-.3c0-.8-.5-1.5-1.4-1.5c-.6 0-1.3.7-1.5 1.9zm7.3-.8c.4-.8 1.1-1.6 1.8-1.6c.5 0 .9.4.9.7c0 .3-.2.6-.5.8c-.2 0-.3 0-.4-.1c-.2-.2-.4-.3-.7-.3c-.3 0-.8.5-1.2 1.3c0 0 0 2.7 0 2.7c0 1 .1 1.1 1.3 1.2c-.03.01 0 .4 0 .4l-3.5 0c0 0 .02-.39 0-.4c1-.1 1.1-.2 1.1-1.2c0 0 0-3.1 0-3.1c0-1-.1-1-1-1.1c0 0 0-.4 0-.4c.8-.1 1.4-.3 2.1-.6c.04.02 0 1.7 0 1.7c0 0 .07-.04.1 0zm5.6 0c.5-.8 1.1-1.6 1.8-1.6c.6 0 .9.4.9.7c0 .3-.2.6-.5.8c-.1 0-.3 0-.4-.1c-.2-.2-.4-.3-.6-.3c-.4 0-.9.5-1.2 1.3c0 0 0 2.7 0 2.7c0 1 .1 1.1 1.2 1.2c.03.01 0 .4 0 .4l-3.4 0c0 0-.02-.39 0-.4c.9-.1 1-.2 1-1.2c0 0 0-3.1 0-3.1c0-1-.1-1-.9-1.1c0 0 0-.4 0-.4c.7-.1 1.4-.3 2.1-.6c0 .02 0 1.7 0 1.7c0 0 .03-.04 0 0zm9.7 1.7c0 2.4-1.7 3.6-3.2 3.6c-2.1 0-3.3-1.7-3.3-3.3c0-2.5 1.9-3.6 3.3-3.6c1.9 0 3.2 1.5 3.2 3.3zm-5.1-.2c0 1.9.8 3.3 2.1 3.3c.9 0 1.7-.7 1.7-2.8c0-1.7-.8-3.1-2.1-3.1c-.9 0-1.7.9-1.7 2.6zm15 2.3c-.9 1.2-1.9 1.5-2.4 1.5c-1.9 0-2.9-1.5-2.9-3.2c0-1 .3-2 1-2.6c.6-.7 1.4-1.1 2.2-1.1c1.2 0 2.2 1.1 2.2 2.2c0 .3-.1.5-.3.5c-.3.1-2.2.2-4 .3c.1 2 1.2 2.9 2.3 2.9c.6 0 1.2-.3 1.7-.8c0 0 .2.3.2.3zm-4.1-3c.9 0 1.7 0 2.6-.1c.2 0 .3-.1.3-.3c0-.8-.5-1.5-1.3-1.5c-.7 0-1.4.7-1.6 1.9zm8.5 4.3c0 0-.02-.39 0-.4c.6-.1.7-.2.5-.6c0 0-1.1-1.7-1.1-1.7c-.3.5-.7 1-1 1.5c-.3.6-.2.7.5.8c.05.01 0 .4 0 .4l-2.8 0c0 0 .04-.39 0-.4c1-.1 1.1-.2 1.7-1c.5-.5.9-1.1 1.3-1.8c0 0-1.3-2-1.3-2c-.5-.8-.7-.9-1.5-1c.02.02 0-.4 0-.4l3 0c0 0 .02.42 0 .4c-.6.1-.7.2-.4.7c0 0 .9 1.3.9 1.3c.3-.4.6-.9.9-1.3c.2-.5.1-.6-.5-.7c-.02.02 0-.4 0-.4l2.7 0c0 0 .01.42 0 .4c-.9.1-1.1.2-1.6.8c-.3.4-.7.9-1.2 1.7c0 0 1.5 2.2 1.5 2.2c.5.9.7 1 1.6 1.1c.01.01 0 .4 0 .4l-3.2 0zm7.1-6.5c.2-.2.5-.2.7-.2c1.7 0 2.7 1.3 2.7 2.8c0 2.3-1.8 3.7-3.8 4.1c-.4 0-.8-.2-1-.3c0 0 0 2 0 2c0 1.1.1 1.2 1.3 1.3c-.03 0 0 .4 0 .4l-3.6 0c0 0 .02-.4 0-.4c1-.1 1.1-.2 1.1-1.2c0 0 0-6.8 0-6.8c0-.9 0-1-1-1.1c0 0 0-.3 0-.3c.7-.1 1.5-.4 2.2-.7c0 .02 0 1.2 0 1.2c0 0 1.38-.81 1.4-.8zm-1.4 5.4c.3.3.9.5 1.4.5c1.3 0 2.1-1 2.1-2.7c0-1.6-.9-2.5-2-2.5c-.5 0-1.1.3-1.5.6c0 0 0 4.1 0 4.1zm11.4-.2c-1 1.2-2 1.5-2.5 1.5c-1.8 0-2.9-1.5-2.9-3.2c0-1 .4-2 1-2.6c.6-.7 1.4-1.1 2.2-1.1c1.3 0 2.3 1.1 2.3 2.2c0 .3-.1.5-.4.5c-.2.1-2.1.2-3.9.3c0 2 1.2 2.9 2.2 2.9c.6 0 1.2-.3 1.7-.8c0 0 .3.3.3.3zm-4.1-3c.8 0 1.6 0 2.5-.1c.3 0 .4-.1.4-.3c0-.8-.5-1.5-1.4-1.5c-.6 0-1.3.7-1.5 1.9zm11.9-2.2c.2-.2.5-.2.7-.2c1.7 0 2.6 1.3 2.6 2.8c0 2.3-1.7 3.7-3.7 4.1c-.4 0-.8-.2-1-.3c0 0 0 2 0 2c0 1.1.1 1.2 1.2 1.3c.05 0 0 .4 0 .4l-3.5 0c0 0-.01-.4 0-.4c1-.1 1.1-.2 1.1-1.2c0 0 0-6.8 0-6.8c0-.9-.1-1-1-1.1c0 0 0-.3 0-.3c.6-.1 1.5-.4 2.2-.7c-.03.02 0 1.2 0 1.2c0 0 1.35-.81 1.4-.8zm-1.4 5.4c.3.3.9.5 1.4.5c1.2 0 2.1-1 2.1-2.7c0-1.6-.9-2.5-2-2.5c-.5 0-1.1.3-1.5.6c0 0 0 4.1 0 4.1zm7.9-4c.4-.8 1.1-1.6 1.8-1.6c.5 0 .8.4.8.7c0 .3-.1.6-.4.8c-.2 0-.3 0-.4-.1c-.2-.2-.4-.3-.7-.3c-.4 0-.8.5-1.2 1.3c0 0 0 2.7 0 2.7c0 1 .1 1.1 1.3 1.2c-.04.01 0 .4 0 .4l-3.5 0c0 0 .01-.39 0-.4c.9-.1 1-.2 1-1.2c0 0 0-3.1 0-3.1c0-1 0-1-.9-1.1c0 0 0-.4 0-.4c.8-.1 1.4-.3 2.1-.6c.03.02 0 1.7 0 1.7c0 0 .06-.04.1 0zm8.5 3.8c-.9 1.2-2 1.5-2.4 1.5c-1.9 0-3-1.5-3-3.2c0-1 .4-2 1-2.6c.6-.7 1.5-1.1 2.2-1.1c1.3 0 2.3 1.1 2.3 2.2c0 .3-.1.5-.4.5c-.2.1-2.1.2-3.9.3c0 2 1.2 2.9 2.3 2.9c.6 0 1.1-.3 1.7-.8c0 0 .2.3.2.3zm-4.1-3c.8 0 1.7 0 2.5-.1c.3 0 .4-.1.4-.3c0-.8-.5-1.5-1.3-1.5c-.7 0-1.4.7-1.6 1.9zm7.3-.8c.5-.8 1.1-1.6 1.8-1.6c.5 0 .9.4.9.7c0 .3-.2.6-.5.8c-.2 0-.3 0-.4-.1c-.2-.2-.4-.3-.6-.3c-.4 0-.9.5-1.2 1.3c0 0 0 2.7 0 2.7c0 1 .1 1.1 1.2 1.2c.01.01 0 .4 0 .4l-3.4 0c0 0-.04-.39 0-.4c.9-.1 1-.2 1-1.2c0 0 0-3.1 0-3.1c0-1-.1-1-.9-1.1c0 0 0-.4 0-.4c.7-.1 1.4-.3 2.1-.6c-.02.02 0 1.7 0 1.7c0 0 .01-.04 0 0zm8.8 3.8c-.7.8-1.7 1.5-2.6 1.5c-1.9 0-3-1.5-3-3.2c0-1.1.5-2.1 1.5-2.9c.8-.6 1.7-.8 2.3-.8c.6 0 1.1.2 1.3.4c.2.1.2.3.2.4c0 .3-.3.7-.5.7c0 0-.1-.1-.2-.2c-.5-.4-1-.6-1.5-.6c-1 0-1.9.8-1.9 2.4c0 2.1 1.4 2.8 2.3 2.8c.6 0 1.1-.2 1.8-.9c0 0 .3.4.3.4zm1.5-7.5c0-.5.3-.8.7-.8c.4 0 .8.3.8.8c0 .4-.4.8-.8.8c-.4 0-.7-.4-.7-.8zm-.8 8.8c0 0-.04-.39 0-.4c.9-.1 1-.2 1-1.2c0 0 0-3.1 0-3.1c0-.9 0-1-.9-1.1c0 0 0-.4 0-.4c.7-.1 1.4-.3 2.1-.6c0 0 0 5.2 0 5.2c0 1 .1 1.1 1.1 1.2c-.04.01 0 .4 0 .4l-3.3 0zm8.8.2c-.3 0-.6-.2-.7-.3c-.2-.2-.3-.4-.4-.7c-.6.4-1.3 1-1.8 1c-1 0-1.8-.9-1.8-1.8c0-.8.4-1.2 1.2-1.5c.9-.3 2-.7 2.4-1c0 0 0-.3 0-.3c0-1.1-.5-1.7-1.3-1.7c-.3 0-.5.1-.7.3c-.2.2-.3.6-.4 1c-.1.3-.2.4-.5.4c-.2 0-.6-.3-.6-.7c0-.2.2-.4.5-.6c.4-.3 1.4-.9 2.2-1c.5 0 .9.1 1.2.4c.6.4.7 1 .7 1.8c0 0 0 2.8 0 2.8c0 .7.3.9.5.9c.2 0 .4-.1.6-.2c-.01.03.1.4.1.4c0 0-1.24.78-1.2.8zm-1.1-3.8c-.3.2-1.1.5-1.4.6c-.6.3-.9.6-.9 1.1c0 .8.6 1.2 1.1 1.2c.4 0 .9-.3 1.2-.6c0 0 0-2.3 0-2.3z" stroke="none" fill="#000"/></g><g id="Polygon5898"><path d="m1.5 39.3c0 0 .01-.28 0-.3c0-.4.1-.9.2-1.2c.1-.3.3-1.1 1.1-1.8c.6-.4 1.1-.7 1.7-.8c.5 0 .9.2 1.2.5c.1.2.1.4 0 .6c0 .1-.1.2-.2.3c-.2.1-.3.1-.4 0c-.3-.3-.8-.6-1.3-.6c-.4 0-.6.2-.8.5c-.2.3-.3 1-.3 2.2c0 .05 0 .6 0 .6c0 0 1.77.05 1.8 0c.1.2 0 .5-.2.6c.02.03-1.6 0-1.6 0c0 0 0 4.35 0 4.4c0 1.1.1 1.1 1.3 1.2c-.01.03 0 .4 0 .4l-3.6 0c0 0 .05-.39 0-.4c1-.1 1.1-.2 1.1-1.1c.01-.04 0-4.5 0-4.5l-1 0l-.1-.1l.4-.5l.7 0zm10.8 6.2c-.7.1-1.5.4-2.2.6c-.01-.02-.1-.1-.1-.1c0 0 0-1.07 0-1.1c-.3.3-.7.6-1.1.8c-.4.3-.8.4-1.2.4c-1 0-1.8-.6-1.8-2.3c0 0 0-2.9 0-2.9c0-.8-.1-.9-.9-1c0 0 0-.4 0-.4c.7 0 1.4-.1 2.1-.3c0 .5 0 1.2 0 2.2c0 0 0 2 0 2c0 1.4.6 1.7 1.3 1.7c.5 0 1.1-.2 1.6-.7c0 0 0-3.5 0-3.5c0-.8-.1-.9-1.2-1c0 0 0-.4 0-.4c.8 0 1.6-.1 2.4-.3c0 0 0 5.1 0 5.1c0 .7.1.8.7.8c-.02.04.4.1.4.1c0 0 0 .34 0 .3zm7.2-6c-.1.2-.4.6-.7.7c0 0-.8 0-.8 0c.3.3.4.8.4 1.3c0 1.6-1.3 2.4-2.6 2.4c-.2 0-.5 0-.8-.1c-.2.2-.4.4-.4.6c0 .3.3.6.9.6c.6 0 1.1 0 1.6 0c.9 0 2.2.3 2.2 1.8c0 1.5-1.8 3-3.8 3c-1.6 0-2.6-1-2.6-1.9c0-.3.2-.6.4-.8c.3-.3.9-.8 1.2-1.1c-.5-.1-.9-.5-1.1-.8c-.1-.2-.2-.5-.1-.6c.6-.2 1-.6 1.3-.9c-.7-.3-1.3-1-1.3-2c0-1.8 1.5-2.5 2.6-2.5c.6 0 1 .1 1.5.3c.7 0 1.5-.1 2-.2c0 0 .1.2.1.2zm-5 1.9c0 1.2.6 2 1.5 2c.6 0 1.2-.6 1.2-1.8c0-1.1-.6-2-1.4-2c-.7 0-1.3.6-1.3 1.8zm.3 5c-.4.3-.7.7-.7 1.2c0 .8.9 1.4 2 1.4c1.4 0 2.2-.7 2.2-1.7c0-.5-.3-.9-.7-1c-.4-.2-.8-.2-1.5-.2c-.7 0-1 .1-1.3.3zm9.9-.3c-.2 0-.5-.2-.7-.3c-.2-.2-.3-.4-.3-.7c-.6.4-1.4 1-1.8 1c-1.1 0-1.8-.9-1.8-1.8c0-.8.4-1.2 1.2-1.5c.9-.3 2-.7 2.3-1c0 0 0-.3 0-.3c0-1.1-.5-1.7-1.2-1.7c-.3 0-.5.1-.7.3c-.2.2-.3.6-.4 1c-.1.3-.3.4-.5.4c-.3 0-.6-.3-.6-.7c0-.2.2-.4.4-.6c.5-.3 1.4-.9 2.3-1c.4 0 .9.1 1.2.4c.5.4.7 1 .7 1.8c0 0 0 2.8 0 2.8c0 .7.3.9.5.9c.2 0 .4-.1.6-.2c-.04.03.1.4.1.4c0 0-1.27.78-1.3.8zm-1.1-3.8c-.3.2-1 .5-1.3.6c-.6.3-.9.6-.9 1.1c0 .8.6 1.2 1 1.2c.4 0 1-.3 1.2-.6c0 0 0-2.3 0-2.3zm3.4 2.9c0-.5.3-.8.8-.8c.5 0 .8.3.8.8c0 .5-.3.9-.8.9c-.5 0-.8-.4-.8-.9zm10.3-9c1.1 0 1.9.1 2.5.6c.6.4 1 1.1 1 2.1c0 1.9-1.5 2.9-2.9 3.1c-.2 0-.5 0-.7 0c.01-.03-1.1-.3-1.1-.3c0 0 0 2.34 0 2.3c0 1.3.1 1.4 1.5 1.5c-.01-.02 0 .4 0 .4l-4.1 0c0 0 .02-.42 0-.4c1.2-.1 1.3-.2 1.3-1.5c0 0 0-6 0-6c0-1.3-.1-1.4-1.2-1.4c.01-.03 0-.4 0-.4c0 0 3.72-.05 3.7 0zm-1.2 5c.2.1.6.2 1.1.2c1 0 2.2-.6 2.2-2.5c0-1.6-1.1-2.3-2.3-2.3c-.4 0-.7.1-.8.2c-.2.1-.2.3-.2.7c0 0 0 3.7 0 3.7zm10.7 3.4c-.9 1.2-2 1.5-2.4 1.5c-1.9 0-3-1.5-3-3.2c0-1 .4-2 1-2.6c.6-.7 1.5-1.1 2.2-1.1c1.3 0 2.3 1.1 2.3 2.2c0 .3-.1.5-.4.5c-.2.1-2.1.2-3.9.3c0 2 1.2 2.9 2.3 2.9c.6 0 1.1-.3 1.7-.8c0 0 .2.3.2.3zm-4.1-3c.8 0 1.7 0 2.5-.1c.3 0 .4-.1.4-.3c0-.8-.5-1.5-1.3-1.5c-.7 0-1.4.7-1.6 1.9zm7.3-.8c.5-.8 1.1-1.6 1.8-1.6c.5 0 .9.4.9.7c0 .3-.2.6-.5.8c-.2 0-.3 0-.4-.1c-.2-.2-.4-.3-.6-.3c-.4 0-.9.5-1.2 1.3c0 0 0 2.7 0 2.7c0 1 .1 1.1 1.2 1.2c.01.01 0 .4 0 .4l-3.4 0c0 0-.04-.39 0-.4c.9-.1 1-.2 1-1.2c0 0 0-3.1 0-3.1c0-1-.1-1-.9-1.1c0 0 0-.4 0-.4c.7-.1 1.4-.3 2.1-.6c-.02.02 0 1.7 0 1.7c0 0 .01-.04 0 0zm8.8 3.8c-.7.8-1.7 1.5-2.6 1.5c-1.9 0-3-1.5-3-3.2c0-1.1.5-2.1 1.5-2.9c.8-.6 1.7-.8 2.3-.8c.6 0 1.1.2 1.3.4c.2.1.2.3.2.4c0 .3-.3.7-.5.7c0 0-.1-.1-.2-.2c-.5-.4-1-.6-1.5-.6c-1 0-1.9.8-1.9 2.4c0 2.1 1.4 2.8 2.3 2.8c.6 0 1.1-.2 1.8-.9c0 0 .3.4.3.4zm1.5-7.5c0-.5.3-.8.7-.8c.4 0 .8.3.8.8c0 .4-.4.8-.8.8c-.4 0-.7-.4-.7-.8zm-.8 8.8c0 0-.04-.39 0-.4c.9-.1 1-.2 1-1.2c0 0 0-3.1 0-3.1c0-.9 0-1-.9-1.1c0 0 0-.4 0-.4c.7-.1 1.4-.3 2.1-.6c0 0 0 5.2 0 5.2c0 1 .1 1.1 1.1 1.2c-.04.01 0 .4 0 .4l-3.3 0zm8.8.2c-.3 0-.6-.2-.7-.3c-.2-.2-.3-.4-.4-.7c-.6.4-1.3 1-1.8 1c-1 0-1.8-.9-1.8-1.8c0-.8.4-1.2 1.2-1.5c.9-.3 2-.7 2.4-1c0 0 0-.3 0-.3c0-1.1-.5-1.7-1.3-1.7c-.3 0-.5.1-.7.3c-.2.2-.3.6-.4 1c-.1.3-.2.4-.5.4c-.2 0-.6-.3-.6-.7c0-.2.2-.4.5-.6c.4-.3 1.4-.9 2.2-1c.5 0 .9.1 1.2.4c.6.4.7 1 .7 1.8c0 0 0 2.8 0 2.8c0 .7.3.9.5.9c.2 0 .4-.1.6-.2c-.01.03.1.4.1.4c0 0-1.24.78-1.2.8zm-1.1-3.8c-.3.2-1.1.5-1.4.6c-.6.3-.9.6-.9 1.1c0 .8.6 1.2 1.1 1.2c.4 0 .9-.3 1.2-.6c0 0 0-2.3 0-2.3zm9.7-2.9c.3-.2.6-.2.8-.2c1.6 0 2.6 1.3 2.6 2.8c0 2.3-1.7 3.7-3.7 4.1c-.4 0-.8-.2-1-.3c0 0 0 2 0 2c0 1.1.1 1.2 1.2 1.3c.04 0 0 .4 0 .4l-3.5 0c0 0-.01-.4 0-.4c.9-.1 1.1-.2 1.1-1.2c0 0 0-6.8 0-6.8c0-.9-.1-1-1-1.1c0 0 0-.3 0-.3c.6-.1 1.5-.4 2.2-.7c-.03.02 0 1.2 0 1.2c0 0 1.35-.81 1.3-.8zm-1.3 5.4c.3.3.9.5 1.4.5c1.2 0 2.1-1 2.1-2.7c0-1.6-.9-2.5-2-2.5c-.5 0-1.1.3-1.5.6c0 0 0 4.1 0 4.1zm5.4 1.1c0 0 .01-.39 0-.4c1-.1 1.1-.2 1.1-1.2c0 0 0-7.1 0-7.1c0-1-.1-1-1-1.1c0 0 0-.4 0-.4c.7 0 1.7-.3 2.2-.5c0 0 0 9.1 0 9.1c0 1 .1 1.1 1.1 1.2c-.04.01 0 .4 0 .4l-3.4 0zm4.9-8.8c0-.5.3-.8.7-.8c.4 0 .8.3.8.8c0 .4-.4.8-.8.8c-.4 0-.7-.4-.7-.8zm-.8 8.8c0 0-.04-.39 0-.4c.9-.1 1-.2 1-1.2c0 0 0-3.1 0-3.1c0-.9 0-1-.9-1.1c0 0 0-.4 0-.4c.7-.1 1.4-.3 2.1-.6c0 0 0 5.2 0 5.2c0 1 .1 1.1 1.1 1.2c-.04.01 0 .4 0 .4l-3.3 0zm6.8 0c-.3.1-.5.2-.7.2c-.9 0-1.4-.6-1.4-1.8c-.03 0 0-4.4 0-4.4l-1.1 0l0-.1l.4-.5l.7 0l0-1l.9-1l.3 0l0 2c0 0 1.65.05 1.7 0c.1.2 0 .5-.1.6c-.04.03-1.6 0-1.6 0c0 0-.04 3.89 0 3.9c0 1.2.5 1.4.8 1.4c.4 0 .7-.1 1-.2c-.04-.03.1.4.1.4c0 0-1.03.49-1 .5zm5.8-8.8c0-.5.3-.8.7-.8c.5 0 .8.3.8.8c0 .4-.3.8-.8.8c-.4 0-.7-.4-.7-.8zm-.8 8.8c0 0-.02-.39 0-.4c.9-.1 1-.2 1-1.2c0 0 0-3.1 0-3.1c0-.9 0-1-.9-1.1c0 0 0-.4 0-.4c.8-.1 1.5-.3 2.1-.6c0 0 0 5.2 0 5.2c0 1 .1 1.1 1.1 1.2c-.02.01 0 .4 0 .4l-3.3 0zm12.3 0c0 0-.03-.39 0-.4c.9-.1 1-.1 1-1.2c0 0 0-2.5 0-2.5c0-1.1-.4-1.7-1.3-1.7c-.5 0-1.1.3-1.7.7c0 .2.1.4.1.7c0 0 0 2.9 0 2.9c0 .9.1 1 .9 1.1c.02.01 0 .4 0 .4l-3.2 0c0 0 .01-.39 0-.4c.9-.1 1.1-.2 1.1-1.1c0 0 0-2.6 0-2.6c0-1.1-.4-1.7-1.3-1.7c-.6 0-1.2.4-1.7.7c0 0 0 3.6 0 3.6c0 .9.2 1 .9 1.1c-.01.01 0 .4 0 .4l-3.2 0c0 0 .03-.39 0-.4c1-.1 1.2-.2 1.2-1.1c0 0 0-3.1 0-3.1c0-1-.1-1.1-1-1.2c0 0 0-.4 0-.4c.7-.1 1.5-.3 2.1-.6c0 0 0 1.2 0 1.2c.3-.2.7-.4 1.1-.7c.4-.3.8-.4 1.2-.4c.8 0 1.4.4 1.7 1.2c.4-.3.9-.6 1.3-.8c.3-.3.7-.4 1.1-.4c1.2 0 1.9.8 1.9 2.3c0 0 0 2.9 0 2.9c0 1 .1 1 1 1.1c-.04.01 0 .4 0 .4l-3.2 0zm10.5-3.4c0 2.4-1.7 3.6-3.2 3.6c-2.1 0-3.3-1.7-3.3-3.3c0-2.5 1.9-3.6 3.3-3.6c1.8 0 3.2 1.5 3.2 3.3zm-5.1-.2c0 1.9.8 3.3 2.1 3.3c.9 0 1.6-.7 1.6-2.8c0-1.7-.7-3.1-2-3.1c-.9 0-1.7.9-1.7 2.6zm5.8 3.6c0 0 .02-.39 0-.4c1-.1 1.1-.2 1.1-1.2c0 0 0-7.1 0-7.1c0-1-.1-1-1-1.1c0 0 0-.4 0-.4c.7 0 1.7-.3 2.2-.5c0 0 0 9.1 0 9.1c0 1 .1 1.1 1.1 1.2c-.04.01 0 .4 0 .4l-3.4 0zm11.2-.4c-.7.1-1.5.4-2.2.6c-.03-.02-.1-.1-.1-.1c0 0-.02-1.07 0-1.1c-.4.3-.7.6-1.1.8c-.5.3-.8.4-1.2.4c-1 0-1.8-.6-1.8-2.3c0 0 0-2.9 0-2.9c0-.8-.1-.9-1-1c0 0 0-.4 0-.4c.7 0 1.5-.1 2.2-.3c-.1.5-.1 1.2-.1 2.2c0 0 0 2 0 2c0 1.4.7 1.7 1.4 1.7c.5 0 1.1-.2 1.6-.7c0 0 0-3.5 0-3.5c0-.8-.1-.9-1.2-1c0 0 0-.4 0-.4c.8 0 1.6-.1 2.4-.3c0 0 0 5.1 0 5.1c0 .7.1.8.7.8c-.04.04.4.1.4.1c0 0-.02.34 0 .3zm3.9-6.1c.3-.2.6-.2.7-.2c1.7 0 2.7 1.3 2.7 2.8c0 2.3-1.8 3.7-3.7 4.1c-.5 0-.9-.2-1.1-.3c0 0 0 2 0 2c0 1.1.1 1.2 1.3 1.3c0 0 0 .4 0 .4l-3.6 0c0 0 .05-.4 0-.4c1-.1 1.1-.2 1.1-1.2c0 0 0-6.8 0-6.8c0-.9 0-1-.9-1.1c0 0 0-.3 0-.3c.6-.1 1.4-.4 2.1-.7c.03.02 0 1.2 0 1.2c0 0 1.41-.81 1.4-.8zm-1.4 5.4c.4.3.9.5 1.4.5c1.3 0 2.1-1 2.1-2.7c0-1.6-.9-2.5-2-2.5c-.5 0-1.1.3-1.5.6c0 0 0 4.1 0 4.1zm6.4-7.7c0-.5.4-.8.8-.8c.4 0 .8.3.8.8c0 .4-.4.8-.8.8c-.4 0-.8-.4-.8-.8zm-.7 8.8c0 0-.05-.39 0-.4c.9-.1 1-.2 1-1.2c0 0 0-3.1 0-3.1c0-.9 0-1-.9-1.1c0 0 0-.4 0-.4c.7-.1 1.4-.3 2.1-.6c0 0 0 5.2 0 5.2c0 1 .1 1.1 1.1 1.2c-.05.01 0 .4 0 .4l-3.3 0zm9.6-1.3c-.6.8-1.7 1.5-2.5 1.5c-1.9 0-3-1.5-3-3.2c0-1.1.5-2.1 1.5-2.9c.7-.6 1.6-.8 2.2-.8c.6 0 1.1.2 1.4.4c.2.1.2.3.2.4c0 .3-.3.7-.5.7c-.1 0-.1-.1-.3-.2c-.4-.4-1-.6-1.5-.6c-1 0-1.8.8-1.8 2.4c0 2.1 1.4 2.8 2.2 2.8c.7 0 1.2-.2 1.9-.9c0 0 .2.4.2.4zm7.1 1.3c-.3.1-.5.2-.6.2c-1 0-1.5-.6-1.5-1.8c-.01 0 0-4.4 0-4.4l-1 0l-.1-.1l.4-.5l.7 0l0-1l1-1l.2 0l0 2c0 0 1.67.05 1.7 0c.1.2.1.5-.1.6c-.02.03-1.6 0-1.6 0c0 0-.02 3.89 0 3.9c0 1.2.5 1.4.8 1.4c.4 0 .8-.1 1-.2c-.02-.03.1.4.1.4c0 0-1.01.49-1 .5zm7-1.3c-1 1.2-2 1.5-2.5 1.5c-1.8 0-2.9-1.5-2.9-3.2c0-1 .4-2 1-2.6c.6-.7 1.4-1.1 2.2-1.1c1.2 0 2.2 1.1 2.2 2.2c0 .3 0 .5-.3.5c-.3.1-2.1.2-3.9.3c0 2 1.2 2.9 2.2 2.9c.6 0 1.2-.3 1.7-.8c0 0 .3.3.3.3zm-4.2-3c.9 0 1.7 0 2.6-.1c.2 0 .3-.1.3-.3c.1-.8-.5-1.5-1.3-1.5c-.7 0-1.3.7-1.6 1.9zm13.3 4.3c0 0 .05-.39 0-.4c.9-.1 1.1-.1 1.1-1.2c0 0 0-2.5 0-2.5c0-1.1-.4-1.7-1.3-1.7c-.6 0-1.1.3-1.7.7c0 .2 0 .4 0 .7c0 0 0 2.9 0 2.9c0 .9.2 1 1 1.1c0 .01 0 .4 0 .4l-3.2 0c0 0-.01-.39 0-.4c.9-.1 1.1-.2 1.1-1.1c0 0 0-2.6 0-2.6c0-1.1-.4-1.7-1.3-1.7c-.6 0-1.2.4-1.7.7c0 0 0 3.6 0 3.6c0 .9.1 1 .9 1.1c-.03.01 0 .4 0 .4l-3.2 0c0 0 .01-.39 0-.4c1-.1 1.1-.2 1.1-1.1c0 0 0-3.1 0-3.1c0-1 0-1.1-.9-1.2c0 0 0-.4 0-.4c.7-.1 1.4-.3 2.1-.6c0 0 0 1.2 0 1.2c.3-.2.6-.4 1.1-.7c.4-.3.7-.4 1.2-.4c.7 0 1.4.4 1.7 1.2c.4-.3.9-.6 1.2-.8c.4-.3.7-.4 1.2-.4c1.1 0 1.9.8 1.9 2.3c0 0 0 2.9 0 2.9c0 1 .1 1 .9 1.1c.04.01 0 .4 0 .4l-3.2 0z" stroke="none" fill="#000"/></g><g id="Polygon5897"><path d="m2.7 23.3c.5-.8 1.1-1.6 1.9-1.6c.5 0 .8.4.8.7c0 .3-.2.6-.5.8c-.1 0-.3 0-.4-.1c-.2-.2-.3-.3-.6-.3c-.4 0-.9.5-1.2 1.3c0 0 0 2.7 0 2.7c0 1 .1 1.1 1.2 1.2c.04.01 0 .4 0 .4l-3.4 0c0 0-.01-.39 0-.4c.9-.1 1-.2 1-1.2c0 0 0-3.1 0-3.1c0-1 0-1-.9-1.1c0 0 0-.4 0-.4c.7-.1 1.4-.3 2.1-.6c.01.02 0 1.7 0 1.7c0 0 .04-.04 0 0zm8.6 3.8c-.9 1.2-2 1.5-2.4 1.5c-1.9 0-3-1.5-3-3.2c0-1 .4-2 1-2.6c.6-.7 1.4-1.1 2.2-1.1c1.3 0 2.3 1.1 2.3 2.2c0 .3-.1.5-.4.5c-.2.1-2.1.2-3.9.3c0 2 1.2 2.9 2.2 2.9c.6 0 1.2-.3 1.8-.8c0 0 .2.3.2.3zm-4.1-3c.8 0 1.7 0 2.5-.1c.3 0 .4-.1.4-.3c0-.8-.5-1.5-1.3-1.5c-.7 0-1.4.7-1.6 1.9zm9 4.3c0 0 .01-.39 0-.4c.9-.1 1-.2 1-1.1c0 0 0-2.5 0-2.5c0-1.3-.5-1.9-1.5-1.9c-.5 0-1.1.3-1.5.8c0 0 0 3.6 0 3.6c0 .9 0 1 .9 1.1c.03.01 0 .4 0 .4l-3.1 0c0 0-.05-.39 0-.4c.9-.1 1-.2 1-1.1c0 0 0-7.2 0-7.2c0-.9 0-1-1-1.1c0 0 0-.4 0-.4c.7-.1 1.6-.3 2.2-.5c0 0 0 5.1 0 5.1c.5-.6 1.3-1.1 2.1-1.1c1.2 0 2.1.7 2.1 2.5c0 0 0 2.7 0 2.7c0 .9.1 1 1 1.1c-.02.01 0 .4 0 .4l-3.2 0zm9.4-1.3c-1 1.2-2 1.5-2.5 1.5c-1.8 0-2.9-1.5-2.9-3.2c0-1 .4-2 1-2.6c.6-.7 1.4-1.1 2.2-1.1c1.2 0 2.2 1.1 2.2 2.2c0 .3 0 .5-.3.5c-.3.1-2.1.2-3.9.3c0 2 1.2 2.9 2.2 2.9c.6 0 1.2-.3 1.7-.8c0 0 .3.3.3.3zm-4.2-3c.9 0 1.7 0 2.6-.1c.3 0 .3-.1.3-.3c.1-.8-.5-1.5-1.3-1.5c-.7 0-1.3.7-1.6 1.9zm9.3 4.3c0 0 .03-.39 0-.4c.9-.1 1-.2 1-1.2c0 0 0-2.5 0-2.5c0-1.1-.3-1.7-1.3-1.7c-.6 0-1.2.3-1.7.7c0 0 0 3.5 0 3.5c0 1.1.1 1.1 1 1.2c0 .01 0 .4 0 .4l-3.3 0c0 0 .04-.39 0-.4c1.1-.1 1.1-.2 1.1-1.2c0 0 0-3.1 0-3.1c0-.9-.1-1-.9-1.1c0 0 0-.4 0-.4c.8-.1 1.5-.3 2.1-.6c0 0 0 1.2 0 1.2c.3-.2.7-.4 1-.7c.4-.3.8-.4 1.3-.4c1.2 0 1.9.8 1.9 2.2c0 0 0 2.9 0 2.9c0 1.1.1 1.1 1 1.2c-.05.01 0 .4 0 .4l-3.2 0zm4.8-8.8c0-.5.3-.8.8-.8c.4 0 .7.3.7.8c0 .4-.3.8-.8.8c-.4 0-.7-.4-.7-.8zm-.8 8.8c0 0-.01-.39 0-.4c.9-.1 1-.2 1-1.2c0 0 0-3.1 0-3.1c0-.9 0-1-.9-1.1c0 0 0-.4 0-.4c.8-.1 1.5-.3 2.1-.6c0 0 0 5.2 0 5.2c0 1 .1 1.1 1.1 1.2c-.01.01 0 .4 0 .4l-3.3 0zm9.5-1.3c-1 1.2-2 1.5-2.5 1.5c-1.8 0-2.9-1.5-2.9-3.2c0-1 .4-2 1-2.6c.6-.7 1.4-1.1 2.2-1.1c1.2 0 2.2 1.1 2.2 2.2c0 .3 0 .5-.3.5c-.3.1-2.1.2-3.9.3c0 2 1.2 2.9 2.2 2.9c.6 0 1.2-.3 1.7-.8c0 0 .3.3.3.3zm-4.2-3c.9 0 1.7 0 2.6-.1c.3 0 .3-.1.3-.3c.1-.8-.5-1.5-1.3-1.5c-.7 0-1.3.7-1.6 1.9zm9.3 4.3c0 0 .03-.39 0-.4c.9-.1 1-.2 1-1.2c0 0 0-2.5 0-2.5c0-1.1-.3-1.7-1.3-1.7c-.6 0-1.2.3-1.7.7c0 0 0 3.5 0 3.5c0 1.1.1 1.1 1 1.2c0 .01 0 .4 0 .4l-3.3 0c0 0 .04-.39 0-.4c1.1-.1 1.1-.2 1.1-1.2c0 0 0-3.1 0-3.1c0-.9-.1-1-.9-1.1c0 0 0-.4 0-.4c.8-.1 1.5-.3 2.1-.6c0 0 0 1.2 0 1.2c.3-.2.7-.4 1-.7c.4-.3.8-.4 1.3-.4c1.2 0 1.9.8 1.9 2.2c0 0 0 2.9 0 2.9c0 1.1.1 1.1 1 1.2c-.05.01 0 .4 0 .4l-3.2 0zm11.2-.4c-.3.1-1.4.3-2.3.6c-.02-.02 0-1 0-1c0 0-.93.55-.9.5c-.6.4-1 .5-1.2.5c-1.2 0-2.8-1.1-2.8-3.2c0-2.1 1.9-3.7 3.9-3.7c.2 0 .6 0 1 .1c0 0 0-2.1 0-2.1c0-1-.1-1-1.2-1.1c0 0 0-.4 0-.4c.8-.1 1.8-.3 2.4-.5c0 0 0 9 0 9c0 .8.1.8.6.9c.03-.01.5 0 .5 0c0 0 .01.41 0 .4zm-2.3-5c-.4-.5-1-.8-1.6-.8c-.7 0-1.9.6-1.9 2.8c0 1.8 1.1 2.6 2 2.6c.6 0 1.1-.2 1.5-.5c0 0 0-4.1 0-4.1zm7.7 5.6c-.2 0-.5-.2-.7-.3c-.2-.2-.3-.4-.3-.7c-.6.4-1.3 1-1.8 1c-1.1 0-1.8-.9-1.8-1.8c0-.8.4-1.2 1.2-1.5c.9-.3 2-.7 2.3-1c0 0 0-.3 0-.3c0-1.1-.5-1.7-1.2-1.7c-.3 0-.5.1-.7.3c-.2.2-.3.6-.4 1c-.1.3-.3.4-.5.4c-.2 0-.6-.3-.6-.7c0-.2.2-.4.4-.6c.5-.3 1.4-.9 2.3-1c.4 0 .9.1 1.2.4c.5.4.7 1 .7 1.8c0 0 0 2.8 0 2.8c0 .7.3.9.5.9c.2 0 .4-.1.6-.2c-.04.03.1.4.1.4c0 0-1.26.78-1.3.8zm-1.1-3.8c-.3.2-1 .5-1.3.6c-.6.3-.9.6-.9 1.1c0 .8.6 1.2 1 1.2c.4 0 1-.3 1.2-.6c0 0 0-2.3 0-2.3zm8.4 2.3c-.9 1.2-2 1.5-2.4 1.5c-1.9 0-2.9-1.5-2.9-3.2c0-1 .3-2 .9-2.6c.7-.7 1.5-1.1 2.3-1.1c1.2 0 2.2 1.1 2.2 2.2c0 .3-.1.5-.3.5c-.3.1-2.2.2-4 .3c.1 2 1.2 2.9 2.3 2.9c.6 0 1.1-.3 1.7-.8c0 0 .2.3.2.3zm-4.1-3c.9 0 1.7 0 2.6-.1c.2 0 .3-.1.3-.3c0-.8-.5-1.5-1.3-1.5c-.7 0-1.4.7-1.6 1.9zm12.7 4.3c0 0 .01-.39 0-.4c.9-.1 1-.2 1-1.2c0 0 0-2.5 0-2.5c0-1.1-.4-1.7-1.4-1.7c-.6 0-1.2.3-1.6.7c0 0 0 3.5 0 3.5c0 1.1.1 1.1 1 1.2c-.03.01 0 .4 0 .4l-3.3 0c0 0 .02-.39 0-.4c1-.1 1.1-.2 1.1-1.2c0 0 0-3.1 0-3.1c0-.9-.1-1-.9-1.1c0 0 0-.4 0-.4c.7-.1 1.4-.3 2.1-.6c0 0 0 1.2 0 1.2c.3-.2.6-.4 1-.7c.4-.3.8-.4 1.2-.4c1.2 0 2 .8 2 2.2c0 0 0 2.9 0 2.9c0 1.1.1 1.1.9 1.2c.03.01 0 .4 0 .4l-3.1 0zm10.5-3.4c0 2.4-1.7 3.6-3.2 3.6c-2.1 0-3.3-1.7-3.3-3.3c0-2.5 1.9-3.6 3.3-3.6c1.8 0 3.2 1.5 3.2 3.3zm-5.1-.2c0 1.9.8 3.3 2 3.3c1 0 1.7-.7 1.7-2.8c0-1.7-.7-3.1-2-3.1c-.9 0-1.7.9-1.7 2.6zm10.1-1.2c-.3-.9-.8-1.5-1.6-1.5c-.5 0-.9.5-.9 1.1c0 .6.6 1 1.2 1.3c1.2.4 1.9 1 1.9 2c0 1.4-1.2 2.1-2.4 2.1c-.8 0-1.5-.3-1.8-.5c-.1-.2-.2-1.3-.2-1.8c0 0 .4-.1.4-.1c.3 1 .9 1.9 1.8 1.9c.6 0 1.1-.4 1.1-1.1c0-.6-.4-1-1.2-1.3c-.9-.4-1.9-.9-1.9-2.1c0-1 .9-1.9 2.3-1.9c.6 0 1 .1 1.3.2c.2.4.3 1.3.4 1.6c0 0-.4.1-.4.1zm11.6-1.4c-.7.1-.9.3-1.3 1.2c-.5 1.1-1.3 2.9-2.1 5.2c0 0-.4 0-.4 0c-.7-1.8-1.4-3.5-2.1-5.3c-.3-.9-.4-1-1.2-1.1c-.04.02 0-.4 0-.4l3 0c0 0 .03.42 0 .4c-.8.1-.8.2-.6.9c.4 1 1 2.6 1.5 3.7c.5-1.2 1-2.6 1.3-3.6c.2-.7.1-.9-.7-1c-.03.02 0-.4 0-.4l2.6 0c0 0 .04.42 0 .4zm5.6 4.9c-.9 1.2-1.9 1.5-2.4 1.5c-1.9 0-2.9-1.5-2.9-3.2c0-1 .3-2 1-2.6c.6-.7 1.4-1.1 2.2-1.1c1.2 0 2.2 1.1 2.2 2.2c0 .3-.1.5-.3.5c-.3.1-2.2.2-3.9.3c0 2 1.1 2.9 2.2 2.9c.6 0 1.2-.3 1.7-.8c0 0 .2.3.2.3zm-4.1-3c.9 0 1.7 0 2.6-.1c.2 0 .3-.1.3-.3c0-.8-.5-1.5-1.3-1.5c-.7 0-1.3.7-1.6 1.9zm9.3 4.3c0 0 .01-.39 0-.4c.9-.1 1-.2 1-1.2c0 0 0-2.5 0-2.5c0-1.1-.4-1.7-1.4-1.7c-.6 0-1.1.3-1.6.7c0 0 0 3.5 0 3.5c0 1.1.1 1.1 1 1.2c-.02.01 0 .4 0 .4l-3.3 0c0 0 .02-.39 0-.4c1-.1 1.1-.2 1.1-1.2c0 0 0-3.1 0-3.1c0-.9-.1-1-.9-1.1c0 0 0-.4 0-.4c.7-.1 1.4-.3 2.1-.6c0 0 0 1.2 0 1.2c.3-.2.6-.4 1-.7c.4-.3.8-.4 1.3-.4c1.1 0 1.9.8 1.9 2.2c0 0 0 2.9 0 2.9c0 1.1.1 1.1.9 1.2c.03.01 0 .4 0 .4l-3.1 0zm6.7 0c-.3.1-.5.2-.7.2c-.9 0-1.4-.6-1.4-1.8c-.04 0 0-4.4 0-4.4l-1.1 0l0-.1l.4-.5l.7 0l0-1l.9-1l.2 0l0 2c0 0 1.74.05 1.7 0c.2.2.1.5-.1.6c.05.03-1.6 0-1.6 0c0 0 .04 3.89 0 3.9c0 1.2.5 1.4.9 1.4c.4 0 .7-.1.9-.2c.04-.03.2.4.2.4c0 0-1.04.49-1 .5zm2.4-8.8c0-.5.4-.8.8-.8c.4 0 .7.3.7.8c0 .4-.3.8-.7.8c-.4 0-.8-.4-.8-.8zm-.8 8.8c0 0 .04-.39 0-.4c1-.1 1.1-.2 1.1-1.2c0 0 0-3.1 0-3.1c0-.9-.1-1-1-1.1c0 0 0-.4 0-.4c.8-.1 1.5-.3 2.2-.6c0 0 0 5.2 0 5.2c0 1 .1 1.1 1 1.2c.04.01 0 .4 0 .4l-3.3 0zm11.2-.4c-.7.1-1.5.4-2.2.6c-.04-.02-.1-.1-.1-.1c0 0-.03-1.07 0-1.1c-.4.3-.7.6-1.1.8c-.5.3-.8.4-1.2.4c-1 0-1.9-.6-1.9-2.3c0 0 0-2.9 0-2.9c0-.8 0-.9-.9-1c0 0 0-.4 0-.4c.7 0 1.5-.1 2.2-.3c-.1.5-.1 1.2-.1 2.2c0 0 0 2 0 2c0 1.4.7 1.7 1.4 1.7c.5 0 1.1-.2 1.6-.7c0 0 0-3.5 0-3.5c0-.8-.1-.9-1.2-1c0 0 0-.4 0-.4c.8 0 1.6-.1 2.4-.3c0 0 0 5.1 0 5.1c0 .7.1.8.6.8c.05.04.5.1.5.1c0 0-.03.34 0 .3zm8.9.4c0 0 .01-.39 0-.4c.9-.1 1.1-.1 1.1-1.2c0 0 0-2.5 0-2.5c0-1.1-.4-1.7-1.4-1.7c-.5 0-1.1.3-1.6.7c0 .2 0 .4 0 .7c0 0 0 2.9 0 2.9c0 .9.1 1 1 1.1c-.04.01 0 .4 0 .4l-3.2 0c0 0-.05-.39 0-.4c.9-.1 1-.2 1-1.1c0 0 0-2.6 0-2.6c0-1.1-.4-1.7-1.3-1.7c-.6 0-1.2.4-1.6.7c0 0 0 3.6 0 3.6c0 .9.1 1 .8 1.1c.03.01 0 .4 0 .4l-3.1 0c0 0-.03-.39 0-.4c1-.1 1.1-.2 1.1-1.1c0 0 0-3.1 0-3.1c0-1-.1-1.1-.9-1.2c0 0 0-.4 0-.4c.6-.1 1.4-.3 2.1-.6c0 0 0 1.2 0 1.2c.3-.2.6-.4 1.1-.7c.3-.3.7-.4 1.2-.4c.7 0 1.4.4 1.7 1.2c.4-.3.8-.6 1.2-.8c.3-.3.7-.4 1.1-.4c1.2 0 1.9.8 1.9 2.3c0 0 0 2.9 0 2.9c0 1 .1 1 1 1.1c0 .01 0 .4 0 .4l-3.2 0zm12.9-1.3c-1 1.2-2 1.5-2.5 1.5c-1.8 0-2.9-1.5-2.9-3.2c0-1 .4-2 1-2.6c.6-.7 1.4-1.1 2.2-1.1c1.2 0 2.3 1.1 2.3 2.2c0 .3-.1.5-.4.5c-.2.1-2.1.2-3.9.3c0 2 1.2 2.9 2.2 2.9c.6 0 1.2-.3 1.7-.8c0 0 .3.3.3.3zm-4.1-3c.8 0 1.6 0 2.5-.1c.3 0 .4-.1.4-.3c0-.8-.5-1.5-1.4-1.5c-.6 0-1.3.7-1.5 1.9zm8 4.3c-.3.1-.5.2-.7.2c-.9 0-1.4-.6-1.4-1.8c-.02 0 0-4.4 0-4.4l-1.1 0l0-.1l.4-.5l.7 0l0-1l1-1l.2 0l0 2c0 0 1.66.05 1.7 0c.1.2 0 .5-.1.6c-.03.03-1.6 0-1.6 0c0 0-.04 3.89 0 3.9c0 1.2.5 1.4.8 1.4c.4 0 .8-.1 1-.2c-.04-.03.1.4.1.4c0 0-1.02.49-1 .5z" stroke="none" fill="#000"/></g><g id="Polygon5896"><path d="m4.8 1.2c2 0 3.4.3 4.3 1.2c.7.7 1.2 1.8 1.2 3.3c0 1.8-.6 3.1-1.8 4c-1.1.8-2.6 1.2-4.5 1.2c.05 0-3.5 0-3.5 0c0 0-.01-.4 0-.4c1.3-.1 1.4-.2 1.4-1.5c0 0 0-6 0-6c0-1.3-.1-1.3-1.3-1.4c.03-.01 0-.4 0-.4c0 0 4.24-.05 4.2 0zm-1.6 7.7c0 1.2.5 1.5 1.6 1.5c2.8 0 4.1-2.1 4.1-4.5c0-1.6-.6-2.9-1.8-3.6c-.7-.5-1.5-.6-2.5-.6c-.7 0-1.1 0-1.2.1c-.2.1-.2.3-.2.9c0 0 0 6.2 0 6.2zm9.1-6.8c0-.5.4-.8.8-.8c.4 0 .7.3.7.8c0 .4-.3.8-.8.8c-.3 0-.7-.4-.7-.8zm-.8 8.8c0 0 0-.39 0-.4c.9-.1 1.1-.2 1.1-1.2c0 0 0-3.1 0-3.1c0-.9-.1-1-1-1.1c0 0 0-.4 0-.4c.8-.1 1.5-.3 2.1-.6c0 0 0 5.2 0 5.2c0 1 .1 1.1 1.1 1.2c0 .01 0 .4 0 .4l-3.3 0zm14.7-.4c-.3.1-1.5.3-2.3.6c-.02-.02 0-1 0-1c0 0-.94.55-.9.5c-.6.4-1 .5-1.2.5c-1.2 0-2.8-1.1-2.8-3.2c0-2.1 1.8-3.7 3.9-3.7c.2 0 .6 0 1 .1c0 0 0-2.1 0-2.1c0-1-.1-1-1.2-1.1c0 0 0-.4 0-.4c.8-.1 1.8-.3 2.4-.5c0 0 0 9 0 9c0 .8.1.8.6.9c.02-.01.5 0 .5 0c0 0 0 .41 0 .4zm-2.3-5c-.4-.5-1-.8-1.6-.8c-.7 0-1.9.6-1.9 2.8c0 1.8 1.1 2.6 2 2.6c.6 0 1.1-.2 1.5-.5c0 0 0-4.1 0-4.1zm9.6 2c0 2.4-1.8 3.6-3.3 3.6c-2 0-3.3-1.7-3.3-3.3c0-2.5 1.9-3.6 3.3-3.6c1.9 0 3.3 1.5 3.3 3.3zm-5.2-.2c0 1.9.8 3.3 2.1 3.3c.9 0 1.7-.7 1.7-2.8c0-1.7-.7-3.1-2-3.1c-1 0-1.8.9-1.8 2.6zm5.8 3.6c0 0 .04-.39 0-.4c1-.1 1.1-.2 1.1-1.2c0 0 0-7.1 0-7.1c0-1-.1-1-1-1.1c0 0 0-.4 0-.4c.8 0 1.7-.3 2.2-.5c0 0 0 9.1 0 9.1c0 1 .1 1.1 1.1 1.2c-.02.01 0 .4 0 .4l-3.4 0zm10.7-3.4c0 2.4-1.8 3.6-3.3 3.6c-2 0-3.2-1.7-3.2-3.3c0-2.5 1.9-3.6 3.2-3.6c1.9 0 3.3 1.5 3.3 3.3zm-5.1-.2c0 1.9.8 3.3 2 3.3c.9 0 1.7-.7 1.7-2.8c0-1.7-.7-3.1-2-3.1c-.9 0-1.7.9-1.7 2.6zm15.2 2.3c-.7.8-1.7 1.5-2.6 1.5c-1.9 0-3-1.5-3-3.2c0-1.1.5-2.1 1.5-2.9c.8-.6 1.7-.8 2.3-.8c.6 0 1.1.2 1.3.4c.2.1.3.3.3.4c0 .3-.4.7-.5.7c-.1 0-.2-.1-.3-.2c-.5-.4-1-.6-1.5-.6c-1 0-1.9.8-1.9 2.4c0 2.1 1.5 2.8 2.3 2.8c.6 0 1.1-.2 1.8-.9c0 0 .3.4.3.4zm7.3-2.1c0 2.4-1.8 3.6-3.3 3.6c-2 0-3.2-1.7-3.2-3.3c0-2.5 1.9-3.6 3.2-3.6c1.9 0 3.3 1.5 3.3 3.3zm-5.1-.2c0 1.9.8 3.3 2 3.3c.9 0 1.7-.7 1.7-2.8c0-1.7-.7-3.1-2-3.1c-.9 0-1.7.9-1.7 2.6zm10.2 3.6c0 0 0-.39 0-.4c.9-.1 1-.2 1-1.2c0 0 0-2.5 0-2.5c0-1.1-.4-1.7-1.4-1.7c-.6 0-1.2.3-1.6.7c0 0 0 3.5 0 3.5c0 1.1.1 1.1 1 1.2c-.03.01 0 .4 0 .4l-3.3 0c0 0 .01-.39 0-.4c1-.1 1.1-.2 1.1-1.2c0 0 0-3.1 0-3.1c0-.9-.1-1-.9-1.1c0 0 0-.4 0-.4c.7-.1 1.4-.3 2.1-.6c0 0 0 1.2 0 1.2c.3-.2.6-.4 1-.7c.4-.3.8-.4 1.2-.4c1.2 0 2 .8 2 2.2c0 0 0 2.9 0 2.9c0 1.1.1 1.1.9 1.2c.02.01 0 .4 0 .4l-3.1 0zm7.8-4.8c-.3-.9-.8-1.5-1.6-1.5c-.5 0-.9.5-.9 1.1c0 .6.6 1 1.2 1.3c1.2.4 1.9 1 1.9 2c0 1.4-1.3 2.1-2.5 2.1c-.7 0-1.4-.3-1.7-.5c-.1-.2-.2-1.3-.2-1.8c0 0 .4-.1.4-.1c.2 1 .9 1.9 1.8 1.9c.6 0 1.1-.4 1.1-1.1c0-.6-.5-1-1.2-1.3c-.9-.4-1.9-.9-1.9-2.1c0-1 .9-1.9 2.3-1.9c.6 0 1 .1 1.3.2c.2.4.3 1.3.4 1.6c0 0-.4.1-.4.1zm7.1 3.5c-.9 1.2-2 1.5-2.4 1.5c-1.9 0-3-1.5-3-3.2c0-1 .4-2 1-2.6c.6-.7 1.5-1.1 2.2-1.1c1.3 0 2.3 1.1 2.3 2.2c0 .3-.1.5-.4.5c-.2.1-2.1.2-3.9.3c0 2 1.2 2.9 2.3 2.9c.6 0 1.1-.3 1.7-.8c0 0 .2.3.2.3zm-4.1-3c.8 0 1.7 0 2.5-.1c.3 0 .4-.1.4-.3c0-.8-.5-1.5-1.3-1.5c-.7 0-1.4.7-1.6 1.9zm7.3-.8c.5-.8 1.1-1.6 1.8-1.6c.5 0 .9.4.9.7c0 .3-.2.6-.5.8c-.2 0-.3 0-.4-.1c-.2-.2-.4-.3-.6-.3c-.4 0-.9.5-1.2 1.3c0 0 0 2.7 0 2.7c0 1 .1 1.1 1.2 1.2c.01.01 0 .4 0 .4l-3.4 0c0 0-.04-.39 0-.4c.9-.1 1-.2 1-1.2c0 0 0-3.1 0-3.1c0-1-.1-1-.9-1.1c0 0 0-.4 0-.4c.7-.1 1.4-.3 2.1-.6c-.02.02 0 1.7 0 1.7c0 0 .01-.04 0 0zm8.8 3.8c-.7.8-1.7 1.5-2.6 1.5c-1.9 0-3-1.5-3-3.2c0-1.1.5-2.1 1.5-2.9c.8-.6 1.7-.8 2.3-.8c.6 0 1.1.2 1.3.4c.2.1.2.3.2.4c0 .3-.3.7-.5.7c0 0-.1-.1-.2-.2c-.5-.4-1-.6-1.5-.6c-1 0-1.9.8-1.9 2.4c0 2.1 1.4 2.8 2.3 2.8c.6 0 1.1-.2 1.8-.9c0 0 .3.4.3.4zm4.6 1.3c0 0 .02-.39 0-.4c.9-.1 1-.2 1-1.1c0 0 0-2.5 0-2.5c0-1.3-.5-1.9-1.5-1.9c-.5 0-1.1.3-1.5.8c0 0 0 3.6 0 3.6c0 .9.1 1 .9 1.1c.04.01 0 .4 0 .4l-3.1 0c0 0-.04-.39 0-.4c.9-.1 1-.2 1-1.1c0 0 0-7.2 0-7.2c0-.9 0-1-1-1.1c0 0 0-.4 0-.4c.7-.1 1.6-.3 2.2-.5c0 0 0 5.1 0 5.1c.5-.6 1.3-1.1 2.1-1.1c1.2 0 2.1.7 2.1 2.5c0 0 0 2.7 0 2.7c0 .9.1 1 1 1.1c-.02.01 0 .4 0 .4l-3.2 0zm4.8-8.8c0-.5.3-.8.7-.8c.5 0 .8.3.8.8c0 .4-.3.8-.8.8c-.4 0-.7-.4-.7-.8zm-.8 8.8c0 0-.02-.39 0-.4c.9-.1 1-.2 1-1.2c0 0 0-3.1 0-3.1c0-.9 0-1-.9-1.1c0 0 0-.4 0-.4c.7-.1 1.5-.3 2.1-.6c0 0 0 5.2 0 5.2c0 1 .1 1.1 1.1 1.2c-.02.01 0 .4 0 .4l-3.3 0zm3.8 0c0 0 .02-.39 0-.4c1-.1 1.1-.2 1.1-1.2c0 0 0-7.1 0-7.1c0-1-.1-1-1-1.1c0 0 0-.4 0-.4c.7 0 1.7-.3 2.2-.5c0 0 0 9.1 0 9.1c0 1 .1 1.1 1.1 1.2c-.04.01 0 .4 0 .4l-3.4 0zm8.3-8.8c0-.5.3-.8.7-.8c.5 0 .8.3.8.8c0 .4-.3.8-.8.8c-.4 0-.7-.4-.7-.8zm-.8 8.8c0 0-.03-.39 0-.4c.9-.1 1-.2 1-1.2c0 0 0-3.1 0-3.1c0-.9 0-1-.9-1.1c0 0 0-.4 0-.4c.7-.1 1.4-.3 2.1-.6c0 0 0 5.2 0 5.2c0 1 .1 1.1 1.1 1.2c-.03.01 0 .4 0 .4l-3.3 0zm12.3 0c0 0-.04-.39 0-.4c.8-.1 1-.1 1-1.2c0 0 0-2.5 0-2.5c0-1.1-.4-1.7-1.3-1.7c-.6 0-1.1.3-1.7.7c0 .2.1.4.1.7c0 0 0 2.9 0 2.9c0 .9.1 1 .9 1.1c.01.01 0 .4 0 .4l-3.2 0c0 0 0-.39 0-.4c.9-.1 1.1-.2 1.1-1.1c0 0 0-2.6 0-2.6c0-1.1-.4-1.7-1.3-1.7c-.6 0-1.2.4-1.7.7c0 0 0 3.6 0 3.6c0 .9.1 1 .9 1.1c-.02.01 0 .4 0 .4l-3.2 0c0 0 .02-.39 0-.4c1-.1 1.1-.2 1.1-1.1c0 0 0-3.1 0-3.1c0-1 0-1.1-.9-1.2c0 0 0-.4 0-.4c.7-.1 1.5-.3 2.1-.6c0 0 0 1.2 0 1.2c.3-.2.7-.4 1.1-.7c.4-.3.8-.4 1.2-.4c.8 0 1.4.4 1.7 1.2c.4-.3.9-.6 1.2-.8c.4-.3.8-.4 1.2-.4c1.1 0 1.9.8 1.9 2.3c0 0 0 2.9 0 2.9c0 1 .1 1 1 1.1c-.05.01 0 .4 0 .4l-3.2 0zm7.1-6.5c.3-.2.6-.2.8-.2c1.6 0 2.6 1.3 2.6 2.8c0 2.3-1.8 3.7-3.7 4.1c-.5 0-.9-.2-1.1-.3c0 0 0 2 0 2c0 1.1.2 1.2 1.3 1.3c.02 0 0 .4 0 .4l-3.5 0c0 0-.03-.4 0-.4c.9-.1 1.1-.2 1.1-1.2c0 0 0-6.8 0-6.8c0-.9-.1-1-1-1.1c0 0 0-.3 0-.3c.6-.1 1.4-.4 2.1-.7c.05.02 0 1.2 0 1.2c0 0 1.43-.81 1.4-.8zm-1.4 5.4c.4.3.9.5 1.5.5c1.2 0 2.1-1 2.1-2.7c0-1.6-1-2.5-2.1-2.5c-.4 0-1 .3-1.5.6c0 0 0 4.1 0 4.1zm12.6-2.3c0 2.4-1.8 3.6-3.3 3.6c-2 0-3.2-1.7-3.2-3.3c0-2.5 1.9-3.6 3.2-3.6c1.9 0 3.3 1.5 3.3 3.3zm-5.1-.2c0 1.9.8 3.3 2 3.3c.9 0 1.7-.7 1.7-2.8c0-1.7-.7-3.1-2-3.1c-.9 0-1.7.9-1.7 2.6zm8.2-1.5c.5-.8 1.1-1.6 1.8-1.6c.5 0 .9.4.9.7c0 .3-.2.6-.5.8c-.2 0-.3 0-.4-.1c-.2-.2-.4-.3-.6-.3c-.4 0-.9.5-1.2 1.3c0 0 0 2.7 0 2.7c0 1 .1 1.1 1.2 1.2c.02.01 0 .4 0 .4l-3.4 0c0 0-.03-.39 0-.4c.9-.1 1-.2 1-1.2c0 0 0-3.1 0-3.1c0-1-.1-1-.9-1.1c0 0 0-.4 0-.4c.7-.1 1.4-.3 2.1-.6c-.01.02 0 1.7 0 1.7c0 0 .02-.04 0 0zm8.6 3.8c-1 1.2-2 1.5-2.5 1.5c-1.8 0-2.9-1.5-2.9-3.2c0-1 .4-2 1-2.6c.6-.7 1.4-1.1 2.2-1.1c1.2 0 2.2 1.1 2.2 2.2c0 .3 0 .5-.3.5c-.3.1-2.1.2-3.9.3c0 2 1.2 2.9 2.2 2.9c.6 0 1.2-.3 1.7-.8c0 0 .3.3.3.3zm-4.1-3c.8 0 1.6 0 2.5-.1c.3 0 .4-.1.4-.3c0-.8-.5-1.5-1.4-1.5c-.7 0-1.3.7-1.5 1.9zm8.4-2.2c.3-.2.6-.2.8-.2c1.6 0 2.6 1.3 2.6 2.8c0 2.3-1.8 3.7-3.7 4.1c-.4 0-.8-.2-1-.3c0 0 0 2 0 2c0 1.1.1 1.2 1.2 1.3c.03 0 0 .4 0 .4l-3.5 0c0 0-.02-.4 0-.4c.9-.1 1.1-.2 1.1-1.2c0 0 0-6.8 0-6.8c0-.9-.1-1-1-1.1c0 0 0-.3 0-.3c.6-.1 1.5-.4 2.2-.7c-.04.02 0 1.2 0 1.2c0 0 1.34-.81 1.3-.8zm-1.3 5.4c.3.3.9.5 1.4.5c1.2 0 2.1-1 2.1-2.7c0-1.6-.9-2.5-2-2.5c-.5 0-1.1.3-1.5.6c0 0 0 4.1 0 4.1z" stroke="none" fill="#000"/></g></svg>