<?xml version="1.0" standalone="no"?><!DOCTYPE svg PUBLIC "-//W3C//DTD SVG 1.1//EN" "http://www.w3.org/Graphics/SVG/1.1/DTD/svg11.dtd"><svg xmlns="http://www.w3.org/2000/svg" version="1.1" width="203px" height="41.8px" viewBox="0 0 203 41.8"><desc>Santa Rosa Island 52,794 acres</desc><defs/><g id="Polygon13283"><path d="m2.6 29.1l-1.4 0c0 0-.04.5 0 .5c0 0 .1 0 .2 0c.3 0 .7.1.9.2c.3.2.5.5.5.9c0 .7-.6 1.3-1.6 1.3c-.4 0-.8-.1-1-.2c0 0 .2-.6.2-.6c.1 0 .5.1.8.1c.3 0 .7-.1.7-.5c0-.4-.3-.6-1-.6c-.2 0-.3 0-.5 0c.02.04.2-1.8.2-1.8l2 0l0 .7zm.7 2.8l0-.5c0 0 .45-.38.4-.4c.8-.7 1.2-1.1 1.2-1.5c0-.3-.2-.5-.6-.5c-.3 0-.5.1-.7.3c0 0-.3-.6-.3-.6c.3-.2.7-.4 1.2-.4c.8 0 1.3.5 1.3 1.1c0 .6-.5 1.1-1 1.6c0-.03-.3.2-.3.2l0 .1l1.3 0l0 .6l-2.5 0zm2.8.7c.2-.5.3-1.1.4-1.6c0 0 .9 0 .9 0c-.2.5-.5 1.1-.7 1.6c0 0-.6 0-.6 0zm4.2-4.2l0 .5l-1.4 3l-.9 0l1.4-2.8l0 0l-1.6 0l0-.7l2.5 0zm.8 2.9c.1.1.2 0 .3 0c.3 0 .6 0 .7-.2c.3-.1.4-.4.5-.6c0 0 0-.1 0-.1c-.2.2-.4.3-.7.3c-.6 0-1.1-.4-1.1-1.1c0-.7.5-1.3 1.3-1.3c.9 0 1.4.7 1.4 1.5c0 .8-.3 1.3-.7 1.7c-.3.3-.8.5-1.3.5c-.2 0-.3 0-.4 0c0 0 0-.7 0-.7zm.5-1.8c0 .4.2.6.5.6c.2 0 .4-.1.5-.2c0-.1 0-.1 0-.2c0-.4-.1-.8-.5-.8c-.3 0-.5.3-.5.6zm3.8 2.4l0-.8l-1.6 0l0-.6l1.3-2.1l1 0l0 2.1l.5 0l0 .6l-.5 0l0 .8l-.7 0zm0-1.4c0 0-.05-.83 0-.8c0-.2 0-.5 0-.7c0 0 0 0 0 0c-.2.2-.3.4-.4.7c.02-.03-.5.7-.5.7l0 .1l.9 0zm5 .8c0 .2 0 .5 0 .6c.02.04-.7 0-.7 0l-.1-.2c0 0 0-.03 0 0c-.2.2-.4.3-.8.3c-.5 0-.8-.4-.8-.8c0-.7.6-1.1 1.5-1.1c0 0 0 0 0 0c0-.1 0-.3-.4-.3c-.3 0-.6.1-.8.2c0 0-.1-.6-.1-.6c.1-.1.5-.2 1-.2c.9 0 1.2.5 1.2 1.2c0 0 0 .9 0 .9zm-.8-.6c-.5 0-.8.1-.8.4c0 .2.1.3.3.3c.2 0 .4-.1.5-.3c0 0 0-.1 0-.1c0 0 0-.3 0-.3zm3.5 1.2c-.2 0-.5.1-.8.1c-.9 0-1.4-.5-1.4-1.4c0-.8.5-1.4 1.5-1.4c.2 0 .5 0 .7.1c0 0-.2.6-.2.6c-.1 0-.2-.1-.4-.1c-.5 0-.8.3-.8.8c0 .5.4.7.8.7c.2 0 .3 0 .5 0c0 0 .1.6.1.6zm.4-1.8c0-.4 0-.6 0-.8c0-.05.7 0 .7 0l0 .4c0 0 .07.05.1 0c.1-.4.4-.5.7-.5c.1 0 .1 0 .2 0c0 0 0 .8 0 .8c-.1 0-.2 0-.3 0c-.3 0-.5.1-.5.4c0 0 0 .1 0 .2c-.04-.02 0 1.3 0 1.3l-.9 0c0 0 .02-1.76 0-1.8zm2.7.8c0 .3.4.5.8.5c.3 0 .5-.1.7-.1c0 0 .1.5.1.5c-.3.1-.6.2-.9.2c-1 0-1.5-.5-1.5-1.4c0-.7.4-1.4 1.4-1.4c.8 0 1.2.7 1.2 1.3c0 .2 0 .3-.1.4c0 0-1.7 0-1.7 0zm1-.6c0-.2-.1-.6-.5-.6c-.3 0-.5.4-.5.6c0 0 1 0 1 0zm1.3.9c.1.1.4.2.7.2c.2 0 .3-.1.3-.2c0-.2 0-.2-.3-.3c-.6-.2-.8-.5-.8-.8c0-.5.4-.9 1.1-.9c.3 0 .6.1.7.1c0 0-.1.6-.1.6c-.1 0-.4-.1-.6-.1c-.2 0-.3 0-.3.2c0 .1.1.2.4.3c.5.2.7.4.7.8c0 .5-.3.9-1.1.9c-.4 0-.7-.1-.9-.2c0 0 .2-.6.2-.6z" stroke="none" fill="#000"/></g><g id="Polygon13282"><path d="m.5 9.1c.01-.04 1.3-.3 1.3-.3c0 0 .7 2.04.7 2c.3.1.6.1.9.1c1 0 1.6-.4 1.6-1.3c0-.8-.5-1.1-1.2-1.3c0 0-1-.3-1-.3c-1.4-.5-2.3-1.4-2.3-2.9c0-2 1.9-2.9 4-2.9c1.1 0 2.2.2 2.7.4c.1.2.1.6.1.9c0 .5 0 1.2-.1 1.6c-.05.03-1.3 0-1.3 0c0 0-.41-1.67-.4-1.7c-.3 0-.7-.1-1-.1c-.8 0-1.6.4-1.6 1.3c0 .6.3 1 1.1 1.2c0 0 1.2.4 1.2.4c1.7.5 2.4 1.3 2.4 2.8c0 2.2-2.1 3.1-4.1 3.1c-1.2 0-2.2-.3-2.8-.6c-.1-.6-.2-1.7-.2-2.4zm12.1-1.4c0 0 0-.9 0-.9c0-.7-.3-1.1-1.1-1.1c-.2 0-.4.1-.7.1c.04.02-.2 1.3-.2 1.3c0 0-1.42-.02-1.4 0c-.1-.4-.2-.8-.2-1.2c0-.2 0-.5.1-.7c.9-.4 2.1-.7 3.2-.7c1.8 0 2.8.7 2.8 2.2c0 1.2-.1 2.6-.1 4c.04-.01.8.2.8.2c0 0-.01.81 0 .8c-.8.2-1.9.4-3.2.4c0 0 0-1.1 0-1.1c-.3.7-1.1 1.1-2 1.1c-1.2 0-2.1-.7-2.1-2c0-1.9 1.9-2.3 4.1-2.4zm0 2.7c0 0 0-1.8 0-1.8c-1.1.1-1.7.4-1.7 1.2c0 .6.4.9.9.9c.3 0 .6-.1.8-.3zm4.6.5c.05 0 0-4.9 0-4.9l-.7-.2c0 0 0-.84 0-.8c.9-.3 2-.4 3.3-.4c0 0 0 1.1 0 1.1c.5-.8 1.4-1.2 2.5-1.2c1.4 0 2.2.9 2.2 2.2c0 0 0 4.2 0 4.2c.4 0 .6.1.8.2c0 0 0 .8 0 .8l-4 0c0 0-.05-.8 0-.8c.1-.1.4-.2.7-.2c0 0 0-3.6 0-3.6c0-.7-.3-1-.9-1c-.5 0-.9.1-1.3.5c0 0 0 4.1 0 4.1c.3 0 .6.1.7.2c.05 0 0 .8 0 .8l-4 0c0 0-.02-.8 0-.8c.1-.1.4-.2.7-.2zm9.5-6.2c0 0 .1-1.2.1-1.2c.6-.2 1.6-.2 2.4-.2c.02-.03 0 1.4 0 1.4l1.6 0l0 1.2l-1.6 0c0 0-.09 3.65-.1 3.7c0 .6.2.9.7.9c.4 0 .6-.2.9-.4c0 0 .4.6.4.6c-.3.7-1.2 1.4-2.4 1.4c-1.4 0-2.1-.7-2.1-2.1c-.01.05.1-4.1.1-4.1l-.8 0c0 0-.01-.91 0-.9c.1-.1.4-.2.8-.3zm9 3c0 0 0-.9 0-.9c0-.7-.3-1.1-1-1.1c-.2 0-.5.1-.7.1c-.01.02-.2 1.3-.2 1.3c0 0-1.48-.02-1.5 0c-.1-.4-.2-.8-.2-1.2c0-.2.1-.5.1-.7c.9-.4 2.1-.7 3.2-.7c1.9 0 2.8.7 2.8 2.2c0 1.2 0 2.6 0 4c-.01-.01.7.2.7.2c0 0 .04.81 0 .8c-.8.2-1.9.4-3.1.4c0 0 0-1.1 0-1.1c-.4.7-1.1 1.1-2 1.1c-1.3 0-2.1-.7-2.1-2c0-1.9 1.8-2.3 4-2.4zm0 2.7c0 0 0-1.8 0-1.8c-1 .1-1.6.4-1.6 1.2c0 .6.4.9.9.9c.3 0 .5-.1.7-.3zm7.5.4c0 0 0-7.4 0-7.4c-.3 0-.6-.1-.8-.2c-.04.04 0-.9 0-.9c0 0 5.12.04 5.1 0c2 0 3.3 1 3.3 2.7c0 1.1-.7 1.9-1.6 2.2c0 0 1.7 3.7 1.7 3.7c.3 0 .5.1.7.1c.03.04 0 .9 0 .9l-3.1 0l-1.6-3.8l-1 0c0 0 .03 2.74 0 2.7c.4.1.7.1.9.2c.03.04 0 .9 0 .9l-4.4 0c0 0-.04-.86 0-.9c.2-.1.5-.1.8-.2zm2.7-3.9c0 0 .75.01.7 0c1 0 1.5-.7 1.5-1.8c0-1.1-.5-1.7-1.5-1.7c0 .02-.7 0-.7 0l0 3.5zm10-2.4c2.3 0 3.8 1.1 3.8 3.8c0 2.6-1.7 3.8-4 3.8c-2.3 0-3.7-1.1-3.7-3.7c0-2.6 1.7-3.9 3.9-3.9zm1.2 4.1c0-1.6-.3-2.9-1.3-2.9c-.9 0-1.2.9-1.2 2.3c0 1.6.3 2.9 1.3 2.9c.9 0 1.2-.8 1.2-2.3zm3.5 2.5c0-.5.1-1 .2-1.5c.01 0 1.3 0 1.3 0c0 0 .27 1.33.3 1.3c.2.1.4.1.7.1c.6 0 1.1-.3 1.1-.8c0-.6-.4-.8-1.1-1c0 0-.8-.2-.8-.2c-1-.3-1.7-.9-1.7-2.2c0-1.6 1.5-2.3 3.3-2.3c.8 0 1.7.2 2.3.4c.1.2.1.5.1.6c0 .5-.1 1-.2 1.5c-.04.02-1.3 0-1.3 0c0 0-.3-1.3-.3-1.3c-.2 0-.4-.1-.6-.1c-.6 0-1.1.2-1.1.8c0 .6.4.7 1 .9c0 0 .8.3.8.3c1.2.3 1.9.8 1.9 2c0 1.7-1.1 2.5-3.4 2.5c-.8 0-1.9-.1-2.4-.4c-.1-.2-.1-.4-.1-.6zm10.8-3.4c0 0 0-.9 0-.9c0-.7-.3-1.1-1.1-1.1c-.2 0-.4.1-.6.1c-.03.02-.3 1.3-.3 1.3c0 0-1.39-.02-1.4 0c-.1-.4-.2-.8-.2-1.2c0-.2.1-.5.1-.7c.9-.4 2.1-.7 3.2-.7c1.8 0 2.8.7 2.8 2.2c0 1.2 0 2.6 0 4c-.03-.01.7.2.7.2c0 0 .02.81 0 .8c-.8.2-1.9.4-3.1.4c0 0 0-1.1 0-1.1c-.4.7-1.1 1.1-2 1.1c-1.3 0-2.1-.7-2.1-2c0-1.9 1.8-2.3 4-2.4zm0 2.7c0 0 0-1.8 0-1.8c-1 .1-1.7.4-1.7 1.2c0 .6.4.9.9.9c.3 0 .6-.1.8-.3zm7.5.4c0 0 0-7.4 0-7.4c-.4 0-.6-.1-.9-.2c.04.04 0-.9 0-.9l4.5 0c0 0 .01.94 0 .9c-.2.1-.5.2-.9.2c0 0 0 7.4 0 7.4c.4.1.7.1.9.2c.01.04 0 .9 0 .9l-4.5 0c0 0 .04-.86 0-.9c.3-.1.5-.1.9-.2zm4.5.3c0-.5 0-1 .1-1.5c.05 0 1.4 0 1.4 0c0 0 .21 1.33.2 1.3c.2.1.5.1.7.1c.7 0 1.1-.3 1.1-.8c0-.6-.4-.8-1.1-1c0 0-.8-.2-.8-.2c-1-.3-1.7-.9-1.7-2.2c0-1.6 1.6-2.3 3.3-2.3c.8 0 1.8.2 2.3.4c.1.2.1.5.1.6c0 .5-.1 1-.2 1.5c0 .02-1.3 0-1.3 0c0 0-.26-1.3-.3-1.3c-.1 0-.4-.1-.6-.1c-.5 0-1.1.2-1.1.8c0 .6.5.7 1.1.9c0 0 .8.3.8.3c1.1.3 1.9.8 1.9 2c0 1.7-1.2 2.5-3.5 2.5c-.8 0-1.8-.1-2.4-.4c0-.2 0-.4 0-.6zm7.3-.2c-.03 0 0-8 0-8l-.9-.2c0 0-.01-.92 0-.9c.8-.2 2.1-.4 3.4-.4c0 0 0 9.5 0 9.5c.3 0 .6.1.8.2c-.03 0 0 .8 0 .8l-4.1 0c0 0 .01-.8 0-.8c.2-.1.4-.2.8-.2zm7.9-3.2c0 0 0-.9 0-.9c0-.7-.3-1.1-1-1.1c-.3 0-.5.1-.7.1c-.02.02-.2 1.3-.2 1.3c0 0-1.48-.02-1.5 0c-.1-.4-.2-.8-.2-1.2c0-.2.1-.5.1-.7c.9-.4 2.1-.7 3.2-.7c1.9 0 2.8.7 2.8 2.2c0 1.2 0 2.6 0 4c-.02-.01.7.2.7.2c0 0 .03.81 0 .8c-.8.2-1.9.4-3.1.4c0 0 0-1.1 0-1.1c-.4.7-1.1 1.1-2 1.1c-1.3 0-2.1-.7-2.1-2c0-1.9 1.8-2.3 4-2.4zm0 2.7c0 0 0-1.8 0-1.8c-1 .1-1.6.4-1.6 1.2c0 .6.3.9.9.9c.3 0 .5-.1.7-.3zm4.7.5c-.01 0 0-4.9 0-4.9l-.8-.2c0 0 .04-.84 0-.8c.9-.3 2-.4 3.3-.4c0 0 0 1.1 0 1.1c.5-.8 1.5-1.2 2.5-1.2c1.5 0 2.3.9 2.3 2.2c0 0 0 4.2 0 4.2c.3 0 .6.1.7.2c.04 0 0 .8 0 .8l-4 0c0 0-.01-.8 0-.8c.2-.1.4-.2.8-.2c0 0 0-3.6 0-3.6c0-.7-.4-1-1-1c-.5 0-.9.1-1.3.5c0 0 0 4.1 0 4.1c.3 0 .6.1.8.2c-.01 0 0 .8 0 .8l-4.1 0c0 0 .02-.8 0-.8c.2-.1.5-.2.8-.2zm12.2-6.4c.6 0 1.1.2 1.5.6c-.05-.05 0-2.2 0-2.2l-1-.2c0 0 .02-.92 0-.9c.9-.2 2.2-.4 3.5-.4c-.03.04 0 9.3 0 9.3l.7.2c0 0 .02.81 0 .8c-.8.2-1.9.4-3.2.4c0 0 0-1.2 0-1.2c-.4.8-1.1 1.2-2.1 1.2c-1.7 0-2.9-1.3-2.9-3.6c0-2.5 1.4-4 3.5-4zm1.5 5.6c0 0 0-4.1 0-4.1c-.2-.1-.4-.1-.6-.1c-1.1 0-1.7 1-1.7 2.4c0 1.6.5 2.2 1.4 2.2c.3 0 .6-.2.9-.4z" stroke="none" fill="#404040"/></g></svg>