<?xml version="1.0" standalone="no"?><!DOCTYPE svg PUBLIC "-//W3C//DTD SVG 1.1//EN" "http://www.w3.org/Graphics/SVG/1.1/DTD/svg11.dtd"><svg xmlns="http://www.w3.org/2000/svg" version="1.1" width="393px" height="84.5px" viewBox="0 0 393 84.5">  <desc>San Miguel Island 9,325 acres</desc>  <defs/>  <g id="Polygon12634">    <path d="M 1.6 62.5 C 2 62.6 2.3 62.5 2.8 62.5 C 3.7 62.5 4.5 62.2 5.1 61.8 C 5.9 61.3 6.4 60.5 6.6 59.6 C 6.6 59.6 6.6 59.6 6.6 59.6 C 6.1 60.1 5.3 60.4 4.2 60.4 C 2.2 60.4 0.5 59 0.5 56.7 C 0.5 54.4 2.4 52.5 5 52.5 C 8 52.5 9.5 54.8 9.5 57.6 C 9.5 60 8.7 61.8 7.4 63 C 6.3 64 4.7 64.6 2.9 64.7 C 2.4 64.7 1.9 64.7 1.6 64.7 C 1.6 64.7 1.6 62.5 1.6 62.5 Z M 3.3 56.6 C 3.3 57.6 3.9 58.5 5 58.5 C 5.7 58.5 6.3 58.1 6.5 57.7 C 6.6 57.5 6.6 57.3 6.6 57 C 6.7 55.7 6.2 54.5 4.9 54.5 C 4 54.5 3.3 55.3 3.3 56.6 Z M 10.1 66.7 C 10.7 65 11.2 63.2 11.4 61.5 C 11.4 61.5 14.2 61.3 14.2 61.3 C 13.6 63.2 12.8 65.1 12 66.5 C 12 66.5 10.1 66.7 10.1 66.7 Z M 16.1 61.8 C 16.6 62.1 17.7 62.5 18.8 62.5 C 20.2 62.5 21 61.8 21 61 C 21 59.8 19.8 59.2 18.6 59.2 C 18.59 59.25 17.5 59.2 17.5 59.2 L 17.5 57.3 C 17.5 57.3 18.56 57.26 18.6 57.3 C 19.5 57.3 20.6 56.9 20.6 55.9 C 20.6 55.2 20.1 54.7 18.9 54.7 C 17.9 54.7 16.9 55.1 16.4 55.4 C 16.4 55.4 15.9 53.4 15.9 53.4 C 16.6 52.9 18 52.5 19.5 52.5 C 22 52.5 23.4 53.8 23.4 55.4 C 23.4 56.7 22.7 57.7 21.3 58.2 C 21.3 58.2 21.3 58.2 21.3 58.2 C 22.7 58.5 23.8 59.5 23.8 61.1 C 23.8 63.2 22 64.7 19 64.7 C 17.5 64.7 16.2 64.3 15.5 63.9 C 15.5 63.9 16.1 61.8 16.1 61.8 Z M 25.7 64.5 L 25.7 62.8 C 25.7 62.8 27.19 61.46 27.2 61.5 C 29.8 59.1 31 57.8 31.1 56.4 C 31.1 55.5 30.5 54.7 29.1 54.7 C 28.1 54.7 27.2 55.2 26.6 55.7 C 26.6 55.7 25.8 53.7 25.8 53.7 C 26.7 53 28.1 52.5 29.7 52.5 C 32.4 52.5 33.8 54 33.8 56.2 C 33.8 58.2 32.4 59.8 30.7 61.3 C 30.68 61.28 29.6 62.2 29.6 62.2 L 29.6 62.2 L 34.1 62.2 L 34.1 64.5 L 25.7 64.5 Z M 43.6 55 L 39.1 55 C 39.1 55 38.8 56.77 38.8 56.8 C 39.1 56.7 39.3 56.7 39.6 56.7 C 40.7 56.7 41.9 57 42.7 57.6 C 43.6 58.2 44.1 59.2 44.1 60.6 C 44.1 62.8 42.2 64.7 39 64.7 C 37.6 64.7 36.4 64.4 35.7 64 C 35.7 64 36.3 62 36.3 62 C 36.8 62.2 37.8 62.5 38.9 62.5 C 40.1 62.5 41.3 62 41.3 60.7 C 41.3 59.5 40.3 58.8 37.9 58.8 C 37.3 58.8 36.8 58.8 36.4 58.9 C 36.37 58.88 37.1 52.7 37.1 52.7 L 43.6 52.7 L 43.6 55 Z M 57.2 62.4 C 57.2 63.2 57.3 64 57.4 64.5 C 57.39 64.5 54.9 64.5 54.9 64.5 L 54.7 63.6 C 54.7 63.6 54.69 63.61 54.7 63.6 C 54.1 64.3 53.2 64.7 52.1 64.7 C 50.3 64.7 49.3 63.4 49.3 62 C 49.3 59.7 51.3 58.6 54.5 58.6 C 54.5 58.6 54.5 58.5 54.5 58.5 C 54.5 58 54.2 57.3 52.9 57.3 C 52 57.3 51 57.6 50.4 58 C 50.4 58 49.9 56.2 49.9 56.2 C 50.5 55.8 51.7 55.4 53.4 55.4 C 56.3 55.4 57.2 57.1 57.2 59.2 C 57.2 59.2 57.2 62.4 57.2 62.4 Z M 54.6 60.3 C 53.1 60.3 52 60.6 52 61.7 C 52 62.4 52.5 62.8 53.1 62.8 C 53.8 62.8 54.3 62.3 54.5 61.7 C 54.6 61.6 54.6 61.4 54.6 61.3 C 54.6 61.3 54.6 60.3 54.6 60.3 Z M 66.1 64.3 C 65.6 64.5 64.7 64.7 63.6 64.7 C 60.8 64.7 58.9 62.9 58.9 60.1 C 58.9 57.5 60.7 55.4 64 55.4 C 64.8 55.4 65.6 55.5 66.1 55.8 C 66.1 55.8 65.7 57.8 65.7 57.8 C 65.4 57.7 64.9 57.5 64.2 57.5 C 62.7 57.5 61.8 58.6 61.8 60 C 61.8 61.6 62.9 62.5 64.2 62.5 C 64.9 62.5 65.4 62.4 65.8 62.2 C 65.8 62.2 66.1 64.3 66.1 64.3 Z M 67.6 58.5 C 67.6 57.2 67.6 56.4 67.6 55.6 C 67.57 55.61 69.9 55.6 69.9 55.6 L 70 57.2 C 70 57.2 70.11 57.25 70.1 57.2 C 70.6 55.9 71.6 55.4 72.5 55.4 C 72.8 55.4 72.9 55.4 73.1 55.4 C 73.1 55.4 73.1 58 73.1 58 C 72.9 58 72.7 58 72.4 58 C 71.3 58 70.6 58.5 70.5 59.4 C 70.4 59.6 70.4 59.8 70.4 60 C 70.41 59.99 70.4 64.5 70.4 64.5 L 67.6 64.5 C 67.6 64.5 67.64 58.54 67.6 58.5 Z M 76.5 60.9 C 76.6 62.1 77.7 62.6 79 62.6 C 80 62.6 80.7 62.5 81.5 62.2 C 81.5 62.2 81.9 64.1 81.9 64.1 C 80.9 64.5 79.8 64.7 78.6 64.7 C 75.6 64.7 73.9 62.9 73.9 60.2 C 73.9 57.9 75.3 55.4 78.4 55.4 C 81.3 55.4 82.3 57.6 82.3 59.8 C 82.3 60.3 82.3 60.7 82.3 60.9 C 82.3 60.9 76.5 60.9 76.5 60.9 Z M 79.8 59 C 79.8 58.4 79.5 57.2 78.2 57.2 C 77.1 57.2 76.6 58.3 76.5 59 C 76.5 59 79.8 59 79.8 59 Z M 84 62.1 C 84.5 62.4 85.5 62.8 86.4 62.8 C 87.2 62.8 87.5 62.5 87.5 62 C 87.5 61.6 87.3 61.3 86.3 61 C 84.4 60.4 83.7 59.4 83.7 58.3 C 83.7 56.6 85.1 55.4 87.3 55.4 C 88.4 55.4 89.3 55.6 89.8 55.9 C 89.8 55.9 89.3 57.8 89.3 57.8 C 88.9 57.6 88.2 57.3 87.4 57.3 C 86.7 57.3 86.4 57.6 86.4 58 C 86.4 58.5 86.7 58.7 87.8 59.1 C 89.5 59.6 90.2 60.5 90.2 61.8 C 90.2 63.5 88.9 64.7 86.4 64.7 C 85.2 64.7 84.2 64.4 83.5 64.1 C 83.5 64.1 84 62.1 84 62.1 Z " stroke="none" fill="#000"/>  </g>  <g id="Polygon12633">    <path d="M 1 18.3 C 1.03 18.29 3.7 17.9 3.7 17.9 C 3.7 17.9 5.06 21.9 5.1 21.9 C 5.7 22.1 6.3 22.1 6.9 22.1 C 8.9 22.1 10.1 21.2 10.1 19.4 C 10.1 17.7 9.1 17.3 7.6 16.8 C 7.6 16.8 5.6 16.1 5.6 16.1 C 2.8 15.1 1 13.4 1 10.3 C 1 6.2 4.8 4.4 9 4.4 C 11.3 4.4 13.5 4.8 14.6 5.3 C 14.7 5.8 14.8 6.5 14.8 7.1 C 14.8 8.1 14.7 9.4 14.4 10.4 C 14.45 10.36 11.9 10.4 11.9 10.4 C 11.9 10.4 11.09 6.94 11.1 6.9 C 10.5 6.8 9.8 6.7 9.2 6.7 C 7.4 6.7 5.9 7.5 5.9 9.2 C 5.9 10.6 6.5 11.3 8.1 11.8 C 8.1 11.8 10.5 12.5 10.5 12.5 C 13.8 13.6 15.4 15.1 15.4 18.1 C 15.4 22.6 11.1 24.5 7 24.5 C 4.7 24.5 2.7 23.9 1.5 23.2 C 1.1 22 1 19.7 1 18.3 Z M 25.4 15.6 C 25.4 15.6 25.4 13.7 25.4 13.7 C 25.4 12.3 24.8 11.6 23.3 11.6 C 22.8 11.6 22.4 11.7 21.9 11.8 C 21.9 11.75 21.4 14.3 21.4 14.3 C 21.4 14.3 18.54 14.3 18.5 14.3 C 18.3 13.5 18.2 12.7 18.2 11.9 C 18.2 11.5 18.2 10.9 18.3 10.6 C 20.2 9.6 22.6 9.1 24.8 9.1 C 28.5 9.1 30.5 10.5 30.5 13.5 C 30.5 15.9 30.4 18.9 30.4 21.6 C 30.38 21.6 31.9 22 31.9 22 C 31.9 22 31.89 23.66 31.9 23.7 C 30.2 24.1 28.1 24.4 25.5 24.4 C 25.5 24.4 25.5 22.2 25.5 22.2 C 24.8 23.6 23.3 24.4 21.5 24.4 C 19 24.4 17.2 23.1 17.2 20.4 C 17.2 16.5 21 15.8 25.4 15.6 Z M 25.4 21 C 25.4 21 25.4 17.4 25.4 17.4 C 23.3 17.6 22.1 18.2 22.1 19.8 C 22.1 21 22.8 21.6 23.9 21.6 C 24.5 21.6 25 21.4 25.4 21 Z M 34.8 22 C 34.83 22.02 34.8 12.2 34.8 12.2 L 33.3 11.8 C 33.3 11.8 33.32 10.03 33.3 10 C 35 9.6 37.4 9.2 39.9 9.2 C 39.9 9.2 39.9 11.6 39.9 11.6 C 41 9.9 42.9 9.1 44.9 9.1 C 47.9 9.1 49.6 10.9 49.6 13.6 C 49.6 13.6 49.6 22 49.6 22 C 50.2 22.1 50.8 22.3 51.1 22.4 C 51.1 22.41 51.1 24.1 51.1 24.1 L 42.9 24.1 C 42.9 24.1 42.92 22.41 42.9 22.4 C 43.3 22.3 43.8 22.1 44.5 22 C 44.5 22 44.5 14.7 44.5 14.7 C 44.5 13.4 43.8 12.7 42.6 12.7 C 41.6 12.7 40.7 13 39.9 13.8 C 39.9 13.8 39.9 22 39.9 22 C 40.6 22.1 41.2 22.3 41.5 22.4 C 41.5 22.41 41.5 24.1 41.5 24.1 L 33.3 24.1 C 33.3 24.1 33.29 22.41 33.3 22.4 C 33.6 22.3 34.2 22.1 34.8 22 Z M 59.7 21.9 C 59.7 21.9 59.7 6.9 59.7 6.9 C 58.9 6.9 58.4 6.7 57.9 6.5 C 57.91 6.54 57.9 4.7 57.9 4.7 L 66.7 4.7 L 70.9 15.7 L 75.2 4.7 L 83.6 4.7 C 83.6 4.7 83.63 6.54 83.6 6.5 C 83.2 6.7 82.6 6.9 81.8 6.9 C 81.8 6.9 81.8 21.9 81.8 21.9 C 82.6 22 83.2 22.1 83.6 22.3 C 83.63 22.29 83.6 24.1 83.6 24.1 L 74.6 24.1 C 74.6 24.1 74.63 22.29 74.6 22.3 C 75.1 22.1 75.6 22 76.4 21.9 C 76.42 21.9 76.4 9.5 76.4 9.5 L 70.7 24.1 L 68.5 24.1 L 63 9.6 C 63 9.6 63 21.9 63 21.9 C 63.8 22 64.4 22.1 64.8 22.3 C 64.79 22.29 64.8 24.1 64.8 24.1 L 57.9 24.1 C 57.9 24.1 57.91 22.29 57.9 22.3 C 58.4 22.1 58.9 22 59.7 21.9 Z M 86.4 4.9 C 86.4 4.1 86.5 3.8 86.5 3.3 C 87.2 3.1 88.2 3 89.1 3 C 89.9 3 90.9 3.1 91.5 3.3 C 91.6 3.8 91.7 4.1 91.7 4.9 C 91.7 5.9 91.5 6.8 91.4 7.3 C 90.9 7.5 89.9 7.6 89.1 7.6 C 88.2 7.6 87.2 7.5 86.7 7.3 C 86.5 6.8 86.4 5.9 86.4 4.9 Z M 86.4 22 C 86.42 22.02 86.4 12.2 86.4 12.2 L 84.9 11.8 C 84.9 11.8 84.9 10.03 84.9 10 C 86.6 9.6 89 9.2 91.5 9.2 C 91.5 9.2 91.5 22 91.5 22 C 92.2 22.1 92.7 22.3 93.1 22.4 C 93.08 22.41 93.1 24.1 93.1 24.1 L 84.9 24.1 C 84.9 24.1 84.87 22.41 84.9 22.4 C 85.2 22.3 85.8 22.1 86.4 22 Z M 96.6 23.6 C 95.8 23.2 95.1 22.4 95.1 21.1 C 95.1 19.8 96 18.8 97.2 18.1 C 95.5 17.4 94.3 16.2 94.3 14.1 C 94.3 10.7 97.4 9.1 101.2 9.1 C 102.8 9.1 104.2 9.4 105.3 10.1 C 106.2 9.2 107.1 8.7 108.7 8.6 C 108.8 9.1 108.8 9.6 108.8 10.1 C 108.8 10.7 108.8 11.2 108.7 11.7 C 108.7 11.7 106.6 11.7 106.6 11.7 C 107.3 12.3 107.6 13.1 107.6 14.1 C 107.6 17.1 104.9 18.7 100.7 18.7 C 100.2 18.7 99.7 18.7 99.2 18.6 C 99 18.9 98.8 19.2 98.8 19.5 C 98.8 20 99.1 20.3 99.8 20.3 C 99.8 20.3 103.9 20.3 103.9 20.3 C 106.8 20.3 108.9 21.7 108.9 24.3 C 108.9 28.3 104.6 30 100.1 30 C 96 30 93.7 29 93.7 26.6 C 93.7 25.2 94.9 24.1 96.6 23.6 Z M 103 13.9 C 103 11.9 102.1 11.1 101.1 11.1 C 99.9 11.1 99.1 11.9 99.1 13.7 C 99.1 15.7 100 16.5 101.1 16.5 C 102.3 16.5 103 15.7 103 13.9 Z M 97.9 25.9 C 97.9 27.2 98.9 27.8 100.8 27.8 C 103.2 27.8 104.6 27 104.6 25.7 C 104.6 24.7 103.9 24.3 102.7 24.3 C 102.7 24.3 98.5 24.3 98.5 24.3 C 98.2 24.7 97.9 25.2 97.9 25.9 Z M 109.8 11.8 C 109.8 11.8 109.77 10.03 109.8 10 C 111.5 9.6 113.8 9.2 116.4 9.2 C 116.4 9.2 116.4 18.7 116.4 18.7 C 116.4 20.3 116.9 21 118.3 21 C 119.3 21 120.1 20.7 120.9 19.9 C 120.92 19.93 120.9 12.2 120.9 12.2 L 119.4 11.8 C 119.4 11.8 119.4 10.03 119.4 10 C 121.1 9.6 123.4 9.2 126 9.2 C 126.01 9.24 126 21.6 126 21.6 L 127.5 22 C 127.5 22 127.52 23.66 127.5 23.7 C 125.8 24.1 123.5 24.4 120.9 24.4 C 120.9 24.4 120.9 22 120.9 22 C 119.9 23.7 118 24.5 115.9 24.5 C 112.9 24.5 111.3 22.7 111.3 19.8 C 111.28 19.81 111.3 12.2 111.3 12.2 L 109.8 11.8 Z M 136.5 9.1 C 140.6 9.1 142.7 11.5 142.7 15.3 C 142.7 16 142.7 16.4 142.5 17.1 C 142.5 17.1 134.1 17.1 134.1 17.1 C 134.3 20.2 135.8 21.2 137.9 21.2 C 139.5 21.2 140.7 20.5 141.6 19.6 C 141.6 19.6 142.5 20.9 142.5 20.9 C 141.5 22.8 139.5 24.4 136.4 24.4 C 132.1 24.4 128.9 22.2 128.9 16.6 C 128.9 11.7 132.4 9.1 136.5 9.1 Z M 134.1 15.1 C 134.1 15.1 138.2 15.1 138.2 15.1 C 138.2 14.9 138.2 14.6 138.2 14.3 C 138.2 12.6 137.6 11.5 136.4 11.5 C 135.2 11.5 134.2 12.5 134.1 15.1 Z M 145.5 22 C 145.45 22.02 145.5 5.8 145.5 5.8 L 143.7 5.4 C 143.7 5.4 143.66 3.6 143.7 3.6 C 145.4 3.1 148 2.9 150.5 2.9 C 150.5 2.9 150.5 22 150.5 22 C 151.2 22.1 151.8 22.3 152.1 22.4 C 152.12 22.41 152.1 24.1 152.1 24.1 L 143.9 24.1 C 143.9 24.1 143.91 22.41 143.9 22.4 C 144.2 22.3 144.8 22.1 145.5 22 Z M 160.7 21.9 C 160.7 21.9 160.7 6.9 160.7 6.9 C 159.9 6.9 159.4 6.7 158.9 6.5 C 158.9 6.54 158.9 4.7 158.9 4.7 L 167.9 4.7 C 167.9 4.7 167.93 6.54 167.9 6.5 C 167.5 6.7 166.9 6.9 166.1 6.9 C 166.1 6.9 166.1 21.9 166.1 21.9 C 166.9 22 167.5 22.1 167.9 22.3 C 167.93 22.29 167.9 24.1 167.9 24.1 L 158.9 24.1 C 158.9 24.1 158.9 22.29 158.9 22.3 C 159.4 22.1 159.9 22 160.7 21.9 Z M 169.6 22.4 C 169.6 21.4 169.8 20.4 170 19.4 C 170.02 19.39 172.7 19.4 172.7 19.4 C 172.7 19.4 173.17 22.08 173.2 22.1 C 173.6 22.2 174.1 22.2 174.7 22.2 C 175.9 22.2 176.8 21.7 176.8 20.5 C 176.8 19.4 176 19.1 174.6 18.6 C 174.6 18.6 173 18.1 173 18.1 C 171 17.5 169.6 16.3 169.6 13.8 C 169.6 10.4 172.7 9.1 176.2 9.1 C 177.9 9.1 179.8 9.4 180.9 9.9 C 181 10.3 181 10.8 181 11.2 C 181 12.1 180.9 13.2 180.6 14.2 C 180.62 14.18 178 14.2 178 14.2 C 178 14.2 177.47 11.51 177.5 11.5 C 177.1 11.4 176.7 11.4 176.2 11.4 C 175.1 11.4 174 11.8 174 12.9 C 174 14.1 174.9 14.4 176.1 14.8 C 176.1 14.8 177.7 15.3 177.7 15.3 C 180 16 181.6 17.1 181.6 19.5 C 181.6 22.7 179.2 24.5 174.7 24.5 C 173 24.5 170.9 24.2 169.8 23.7 C 169.7 23.3 169.6 22.8 169.6 22.4 Z M 184.4 22 C 184.4 22.02 184.4 5.8 184.4 5.8 L 182.6 5.4 C 182.6 5.4 182.62 3.6 182.6 3.6 C 184.3 3.1 186.9 2.9 189.5 2.9 C 189.5 2.9 189.5 22 189.5 22 C 190.2 22.1 190.7 22.3 191.1 22.4 C 191.07 22.41 191.1 24.1 191.1 24.1 L 182.9 24.1 C 182.9 24.1 182.86 22.41 182.9 22.4 C 183.2 22.3 183.7 22.1 184.4 22 Z M 200.5 15.6 C 200.5 15.6 200.5 13.7 200.5 13.7 C 200.5 12.3 199.9 11.6 198.3 11.6 C 197.9 11.6 197.4 11.7 196.9 11.8 C 196.94 11.75 196.5 14.3 196.5 14.3 C 196.5 14.3 193.58 14.3 193.6 14.3 C 193.3 13.5 193.2 12.7 193.2 11.9 C 193.2 11.5 193.3 10.9 193.4 10.6 C 195.2 9.6 197.6 9.1 199.9 9.1 C 203.5 9.1 205.5 10.5 205.5 13.5 C 205.5 15.9 205.4 18.9 205.4 21.6 C 205.43 21.6 206.9 22 206.9 22 C 206.9 22 206.94 23.66 206.9 23.7 C 205.2 24.1 203.1 24.4 200.5 24.4 C 200.5 24.4 200.5 22.2 200.5 22.2 C 199.9 23.6 198.3 24.4 196.6 24.4 C 194 24.4 192.3 23.1 192.3 20.4 C 192.3 16.5 196 15.8 200.5 15.6 Z M 200.5 21 C 200.5 21 200.5 17.4 200.5 17.4 C 198.3 17.6 197.1 18.2 197.1 19.8 C 197.1 21 197.9 21.6 198.9 21.6 C 199.5 21.6 200 21.4 200.5 21 Z M 209.9 22 C 209.88 22.02 209.9 12.2 209.9 12.2 L 208.4 11.8 C 208.4 11.8 208.36 10.03 208.4 10 C 210.1 9.6 212.4 9.2 215 9.2 C 215 9.2 215 11.6 215 11.6 C 216 9.9 217.9 9.1 220 9.1 C 223 9.1 224.6 10.9 224.6 13.6 C 224.6 13.6 224.6 22 224.6 22 C 225.3 22.1 225.8 22.3 226.1 22.4 C 226.14 22.41 226.1 24.1 226.1 24.1 L 218 24.1 C 218 24.1 217.97 22.41 218 22.4 C 218.3 22.3 218.8 22.1 219.5 22 C 219.5 22 219.5 14.7 219.5 14.7 C 219.5 13.4 218.8 12.7 217.6 12.7 C 216.6 12.7 215.8 13 215 13.8 C 215 13.8 215 22 215 22 C 215.6 22.1 216.2 22.3 216.5 22.4 C 216.54 22.41 216.5 24.1 216.5 24.1 L 208.3 24.1 C 208.3 24.1 208.33 22.41 208.3 22.4 C 208.7 22.3 209.2 22.1 209.9 22 Z M 234.5 9 C 235.8 9 236.8 9.5 237.5 10.2 C 237.47 10.21 237.5 5.8 237.5 5.8 L 235.6 5.4 C 235.6 5.4 235.59 3.6 235.6 3.6 C 237.3 3.1 240 2.9 242.6 2.9 C 242.56 2.91 242.6 21.6 242.6 21.6 L 244.1 22 C 244.1 22 244.08 23.66 244.1 23.7 C 242.4 24.1 240.1 24.4 237.6 24.4 C 237.6 24.4 237.6 22 237.6 22 C 236.8 23.6 235.3 24.5 233.4 24.5 C 229.8 24.5 227.5 21.7 227.5 17.1 C 227.5 12.1 230.4 9 234.5 9 Z M 237.5 20.4 C 237.5 20.4 237.5 12.1 237.5 12.1 C 237.1 12 236.7 12 236.4 12 C 234 12 232.8 14 232.8 16.7 C 232.8 20 234 21.2 235.7 21.2 C 236.4 21.2 237 20.9 237.5 20.4 Z " stroke="none" fill="#404040"/>  </g></svg>