<?xml version="1.0" standalone="no"?><!DOCTYPE svg PUBLIC "-//W3C//DTD SVG 1.1//EN" "http://www.w3.org/Graphics/SVG/1.1/DTD/svg11.dtd"><svg xmlns="http://www.w3.org/2000/svg" version="1.1" width="125px" height="163.5px" viewBox="0 0 125 163.5"><desc>Squirrel</desc><defs/><g id="Polygon7396"><path d="m42.5 81.4c.4.2 1.1.4 1.7.4c.9 0 1.3-.5 1.3-1.2c0-.7-.4-1.1-1.3-1.6c-1.3-.9-1.9-1.9-1.9-2.9c0-1.6 1.1-2.9 3.2-2.9c.7 0 1.3.2 1.6.3c0 0-.3 1.7-.3 1.7c-.3-.1-.7-.3-1.3-.3c-.8 0-1.2.5-1.2 1c0 .6.3 1 1.3 1.6c1.4.8 1.9 1.8 1.9 2.9c0 1.9-1.4 3.1-3.4 3.1c-.8 0-1.5-.2-1.9-.4c0 0 .3-1.7.3-1.7zm9.5 1.3c0 0-.07.05-.1 0c-.3.5-.7.8-1.4.8c-1.4 0-2.2-1.7-2.2-3.6c0-2.5 1.1-4 2.5-4c.5 0 1 .2 1.4.9c-.04.01 0 0 0 0l.1-.8c0 0 1.69.04 1.7 0c0 .7-.1 1.5-.1 2.4c.03-.03 0 7.9 0 7.9l-1.9 0l0-3.6zm0-4c0-.1-.1-.3-.1-.4c-.1-.5-.4-.7-.7-.7c-.6 0-.9.8-.9 2.1c0 1.3.3 2.2.9 2.2c.3 0 .6-.2.7-.7c0-.1.1-.3.1-.4c0 0 0-2.1 0-2.1zm8.7 2.4c0 .8 0 1.6 0 2.3c.02-.02-1.7 0-1.7 0l-.1-.8c0 0-.01 0 0 0c-.4.5-1 .9-1.7.9c-1.4 0-2-1-2-3c.03-.02 0-4.5 0-4.5l2 0c0 0 0 4.27 0 4.3c0 .9.2 1.5.7 1.5c.4 0 .6-.2.7-.4c.1-.2.1-.4.1-.7c0 .02 0-4.7 0-4.7l2 0c0 0-.04 5.14 0 5.1zm1.4 2.3l0-7.4l1.9 0l0 7.4l-1.9 0zm1.9-9.3c.1.6-.4 1.1-1 1.1c-.5 0-1-.5-1-1.1c0-.7.5-1.1 1-1.1c.6 0 1 .4 1 1.1zm1.4 4.1c0-.7 0-1.5 0-2.2c-.04.04 1.7 0 1.7 0l.1 1.1c0 0 .02.01 0 0c.3-.8.9-1.2 1.5-1.2c.2 0 .3 0 .4.1c0 0 0 1.9 0 1.9c-.1 0-.3 0-.4 0c-.5 0-1 .3-1.2 1c-.1.2-.1.4-.1.7c-.02.04 0 3.8 0 3.8l-2 0c0 0 .02-5.16 0-5.2zm4.4 0c0-.7 0-1.5 0-2.2c-.03.04 1.7 0 1.7 0l.1 1.1c0 0 .03.01 0 0c.3-.8.9-1.2 1.5-1.2c.2 0 .3 0 .4.1c0 0 0 1.9 0 1.9c-.1 0-.3 0-.4 0c-.5 0-1 .3-1.2 1c-.1.2-.1.4-.1.7c-.01.04 0 3.8 0 3.8l-2 0c0 0 .03-5.16 0-5.2zm6 2.2c0 1.1.7 1.6 1.6 1.6c.5 0 1-.2 1.4-.3c0 0 .2 1.4.2 1.4c-.5.2-1.2.4-2 .4c-2 0-3.1-1.4-3.1-3.6c0-2.5 1.3-4 3-4c1.5 0 2.5 1.3 2.5 3.5c0 .5-.1.8-.1 1c0 0-3.5 0-3.5 0zm1.8-1.4c0-.9-.3-1.7-.9-1.7c-.6 0-.9 1-.9 1.7c0 0 1.8 0 1.8 0zm2.9-6l1.9 0l0 10.4l-1.9 0l0-10.4z" stroke="none" fill="#000" fill-opacity="0.7"/></g></svg>