<?xml version="1.0" standalone="no"?><!DOCTYPE svg PUBLIC "-//W3C//DTD SVG 1.1//EN" "http://www.w3.org/Graphics/SVG/1.1/DTD/svg11.dtd"><svg xmlns="http://www.w3.org/2000/svg" xmlns:xlink="http://www.w3.org/1999/xlink" version="1.1" width="335px" height="64.9px" viewBox="0 0 335 64.9"><desc>Dolphin seem to enjoy cavorting in the bow waves of large boats These dolphin were observed from the deck of the</desc><defs/><g class="svg-textframe-underlines"><rect class="svg-underline" x="0" y="50.6" width="83.7" height="1" style="fill:#00aa32;"/></g><g id="Polygon14564"><path d="m84.1 46.5c0-.6.4-1 .9-1c.5 0 .8.2.8.7c0 .7-.4 1.1-.9 1.1c-.5 0-.8-.3-.8-.8z" stroke="none" fill="#fff"/></g><g id="Polygon14562"><path d="m3.4 19.3c0 0-.7 4.8-.7 4.8c.5-1.1 1.2-1.6 2.2-1.6c.9 0 1.5.8 1.5 2.1c0 2.2-1.1 4.7-3.3 4.7c-.5 0-1-.3-1.3-.6c-.2.2-.5.5-.7.6c-.04-.05-.4-.2-.4-.2l1.5-8.8l-1.2-.2c0 0 .05-.42.1-.4c.5-.2 1.4-.4 2.3-.4zm-.9 5.5c0 0-.5 3.6-.5 3.6c.2.1.5.2.9.2c1.5 0 2.3-2.1 2.3-4c0-.8-.3-1.2-.9-1.2c-.6 0-1.2.5-1.8 1.4zm8.3-2.3c1.7 0 2.3 1.1 2.3 2.4c0 2.1-1.1 4.4-3.3 4.4c-1.7 0-2.3-1.1-2.3-2.4c0-2.1 1.1-4.4 3.3-4.4zm-.9 6.3c1.3 0 2-2.2 2-4c0-1-.3-1.8-1.1-1.8c-1.4 0-2.1 2.2-2.1 4c0 1 .3 1.8 1.2 1.8zm7.6-6.3c.5 0 .9.2 1.2.6c.2-.3.5-.5.8-.6c-.01-.02.4.1.4.1c0 0-.83 5.03-.8 5c-.1.2-.1.4-.1.5c0 .3.2.4.6.4c0-.03.6 0 .6 0c0 0-.12.42-.1.4c-.3.2-.8.4-1.3.4c-.7 0-.9-.4-.9-1c0-.1 0-.4.1-.5c0 0 0-.3 0-.3c-.6 1.2-1.3 1.8-2.3 1.8c-.9 0-1.5-.8-1.5-2.1c0-2.3 1.1-4.7 3.3-4.7zm.6 4.4c0 0 .5-3.5.5-3.5c-.2-.1-.5-.2-.8-.2c-1.6 0-2.4 2-2.4 3.9c0 .9.3 1.3.9 1.3c.6 0 1.2-.6 1.8-1.5zm4.2-4.4c0 0 .3-1.1.3-1.1c.2-.1.6-.2 1-.2c0 .05-.2 1.4-.2 1.4l1.7 0l-.1.7l-1.7 0c0 0-.62 3.77-.6 3.8c-.1.2-.1.5-.1.7c0 .4.1.6.5.6c.5 0 1.1-.7 1.4-1.4c0 0 .4.1.4.1c-.5 1.4-1.2 2.2-2.2 2.2c-.9 0-1.2-.4-1.2-1.3c0-.1 0-.3 0-.5c0-.04.6-4.2.6-4.2l-1 0c0 0 .04-.43 0-.4c.3-.1.6-.3 1.2-.4zm3.7 4.7c0-.02.7 0 .7 0c0 0 .07 1.41.1 1.4c.2.1.5.1.7.1c.8 0 1.5-.4 1.5-1.1c0-.7-.6-.9-1.3-1.3c0 0-.5-.3-.5-.3c-.5-.3-.9-.8-.9-1.5c0-1.2.8-2 2.3-2c.7 0 1.5.1 1.8.4c0 .6-.1 1.1-.4 1.7c.03-.05-.7 0-.7 0c0 0-.05-1.49-.1-1.5c-.2 0-.5-.1-.7-.1c-.7 0-1.2.4-1.2 1.2c0 .4.3.8.8 1c0 0 .5.3.5.3c.7.4 1.4.7 1.4 1.7c0 1.3-.9 2.1-2.5 2.1c-.6 0-1.6-.2-1.9-.4c0-.7.2-1.2.4-1.7zm5.4 1.3c0-.6.4-1 .9-1c.5 0 .8.2.8.7c0 .7-.4 1.1-.9 1.1c-.5 0-.8-.3-.8-.8zm6.8-8.3c0 0 7.4 0 7.4 0c0 .7-.1 1.5-.4 2.3c.05.03-.6 0-.6 0l-.1-1.6l-2.1 0c0 0-1.13 7.52-1.1 7.5c.4 0 1 .1 1.3.2c.02.04-.1.5-.1.5l-3.8 0c0 0 .08-.46.1-.5c.3-.1.8-.2 1.2-.2c.04.02 1.2-7.5 1.2-7.5l-2 0l-.6 1.6c0 0-.63.03-.6 0c0-.8.1-1.7.2-2.3zm11.4 8.2c0-.2 0-.5.1-.6c0 0 .6-3.4.6-3.4c0-.1 0-.3 0-.4c0-.4-.1-.6-.6-.6c-.5 0-1.1.4-1.9 1.5c-.03.01-.7 4.2-.7 4.2l-1.1 0l1.4-8.8l-1.1-.2c0 0 0-.42 0-.4c.6-.2 1.4-.4 2.4-.4c0 0-.8 4.9-.8 4.9c.7-1.1 1.4-1.7 2.3-1.7c.9 0 1.3.5 1.3 1.1c0 .2 0 .4 0 .5c0 0-.7 3.5-.7 3.5c0 .2-.1.4-.1.5c0 .3.2.4.7.4c-.05-.03.5 0 .5 0c0 0-.07.42-.1.4c-.3.2-.7.4-1.3.4c-.6 0-.9-.4-.9-.9c0 0 0 0 0 0zm6.7-5.9c1.2 0 1.7.6 1.7 1.4c0 1.3-1 2-3.2 2c0 0-.6 0-.6 0c-.1.4-.1.8-.1 1.1c0 1 .5 1.4 1.1 1.4c.8 0 1.4-.4 2-1.4c0 0 .4.1.4.1c-.6 1.5-1.5 2.2-2.7 2.2c-1.4 0-2-.8-2-2.3c0-2.1 1-4.5 3.4-4.5zm-2 2.9c0 0 .4 0 .4 0c1.5 0 2.1-.5 2.1-1.5c0-.5-.2-.9-.7-.9c-.9 0-1.6 1.2-1.8 2.4zm4.6 1.8c.03-.02.8 0 .8 0c0 0 0 1.41 0 1.4c.3.1.5.1.8.1c.7 0 1.4-.4 1.4-1.1c0-.7-.5-.9-1.2-1.3c0 0-.5-.3-.5-.3c-.6-.3-1-.8-1-1.5c0-1.2.8-2 2.3-2c.7 0 1.5.1 1.8.4c0 .6-.1 1.1-.3 1.7c-.04-.05-.8 0-.8 0c0 0-.03-1.49 0-1.5c-.3 0-.5-.1-.7-.1c-.8 0-1.3.4-1.3 1.2c0 .4.4.8.8 1c0 0 .5.3.5.3c.8.4 1.5.7 1.5 1.7c0 1.3-1 2.1-2.6 2.1c-.6 0-1.5-.2-1.9-.4c0-.7.2-1.2.4-1.7zm8.6-4.7c1.2 0 1.7.6 1.7 1.4c0 1.3-1 2-3.2 2c0 0-.6 0-.6 0c-.1.4-.1.8-.1 1.1c0 1 .5 1.4 1.1 1.4c.8 0 1.4-.4 2-1.4c0 0 .4.1.4.1c-.6 1.5-1.5 2.2-2.7 2.2c-1.4 0-2-.8-2-2.3c0-2.1 1-4.5 3.4-4.5zm-2 2.9c0 0 .4 0 .4 0c1.5 0 2.1-.5 2.1-1.5c0-.5-.2-.9-.7-.9c-.9 0-1.6 1.2-1.8 2.4zm13.6-6.1c0 0-1.3 8.3-1.3 8.3c-.1.2-.1.4-.1.5c0 .3.1.4.6.4c-.01-.03.5 0 .5 0c0 0-.04.42 0 .4c-.3.2-.8.4-1.4.4c-.6 0-.8-.4-.8-1c0-.1 0-.4.1-.5c0 0 0-.3 0-.3c-.6 1.2-1.3 1.8-2.3 1.8c-.9 0-1.5-.8-1.5-2.1c0-2.3 1.1-4.7 3.3-4.7c.5 0 .9.2 1.2.5c-.01.01.4-2.7.4-2.7l-1.1-.2c0 0 .01-.42 0-.4c.6-.2 1.4-.4 2.4-.4zm-2.3 7.6c0 0 .5-3.5.5-3.5c-.2-.1-.5-.2-.9-.2c-1.5 0-2.3 2-2.3 3.9c0 .9.3 1.3.9 1.3c.6 0 1.2-.6 1.8-1.5zm6.3-4.4c1.7 0 2.3 1.1 2.3 2.4c0 2.1-1.1 4.4-3.3 4.4c-1.7 0-2.3-1.1-2.3-2.4c0-2.1 1.1-4.4 3.3-4.4zm-.9 6.3c1.3 0 2-2.2 2-4c0-1-.3-1.8-1.2-1.8c-1.3 0-2 2.2-2 4c0 1 .3 1.8 1.2 1.8zm6.8-9.5c0 0-1.3 8.3-1.3 8.3c-.1.2-.1.4-.1.5c0 .3.1.4.6.4c0-.03.6 0 .6 0c0 0-.13.42-.1.4c-.3.2-.8.4-1.3.4c-.7 0-.9-.4-.9-1c0-.1 0-.4 0-.5c.02 0 1.2-7.5 1.2-7.5l-1.1-.2c0 0 .02-.42 0-.4c.6-.2 1.4-.4 2.4-.4zm3.1 3.2c0 0-.2 1.6-.2 1.6c.5-1.1 1.2-1.6 2.2-1.6c.9 0 1.5.8 1.5 2.1c0 2.2-1.1 4.7-3.3 4.7c-.5 0-.9-.2-1.2-.6c0 0-.4 2.4-.4 2.4c.5 0 1 .1 1.3.2c.01.03-.1.5-.1.5l-3.3 0c0 0 .08-.47.1-.5c.3-.1.5-.2.9-.2c0 0 1.3-7.7 1.3-7.7l-1.1-.1c0 0 .07-.48.1-.5c.5-.2 1.3-.3 2.2-.3zm-.4 2.4c0 0-.5 3.5-.5 3.5c.2.1.5.2.9.2c1.5 0 2.3-2.1 2.3-4c0-.8-.3-1.2-.9-1.2c-.6 0-1.2.6-1.8 1.5zm8.5 3.5c0-.2.1-.5.1-.6c0 0 .6-3.4.6-3.4c0-.1.1-.3.1-.4c0-.4-.2-.6-.6-.6c-.5 0-1.1.4-2 1.5c-.01.01-.7 4.2-.7 4.2l-1.1 0l1.4-8.8l-1.1-.2c0 0 .02-.42 0-.4c.6-.2 1.4-.4 2.4-.4c0 0-.8 4.9-.8 4.9c.7-1.1 1.4-1.7 2.4-1.7c.8 0 1.2.5 1.2 1.1c0 .2 0 .4 0 .5c0 0-.7 3.5-.7 3.5c0 .2 0 .4 0 .5c0 .3.1.4.6.4c-.03-.03.5 0 .5 0c0 0-.05.42-.1.4c-.3.2-.7.4-1.3.4c-.6 0-.9-.4-.9-.9c0 0 0 0 0 0zm5.1-8.8c.1 0 .4 0 .6 0c.2 0 .5 0 .6 0c0 .5-.2 1.1-.4 1.5c-.1.1-.3.1-.5.1c-.2 0-.4 0-.5-.1c0-.4 0-1.1.2-1.5zm.6 2.9c0 0-.8 5.1-.8 5.1c0 .2 0 .4 0 .5c0 .3.1.4.6.4c-.03-.03.5 0 .5 0c0 0-.05.42-.1.4c-.3.2-.7.4-1.3.4c-.6 0-.9-.4-.9-1c0-.1.1-.4.1-.5c-.01 0 .7-4.4.7-4.4l-1-.1c0 0 0-.48 0-.5c.6-.2 1.3-.3 2.2-.3zm3.7 0c0 0-.3 1.7-.3 1.7c.7-1.1 1.4-1.7 2.4-1.7c.8 0 1.2.5 1.2 1.1c0 .2 0 .4 0 .5c0 0-.7 3.5-.7 3.5c0 .2 0 .4 0 .5c0 .3.1.4.6.4c-.02-.03.5 0 .5 0c0 0-.04.42 0 .4c-.4.2-.8.4-1.4.4c-.6 0-.9-.4-.9-.9c0-.2.1-.5.1-.6c0 0 .6-3.4.6-3.4c0-.1.1-.3.1-.4c0-.4-.2-.6-.6-.6c-.5 0-1.1.4-2 1.5c0 .03-.7 4.2-.7 4.2l-1.1 0l.9-5.7l-1-.1c0 0 .04-.48 0-.5c.6-.2 1.3-.3 2.3-.3zm12.5 0c0 0 .9 5.4.9 5.4c1.1-1.8 1.7-3.1 1.8-4.5c-.05 0-1-.1-1-.1c0 0 .06-.48.1-.5c.4-.2.9-.3 1.3-.3c.5 0 .6.4.6.8c0 .8-.3 2.2-3.1 5.8c0 .04-.6 0-.6 0c0 0-.51-3.02-.5-3c-.5.8-1.2 1.7-2.2 3c-.01.04-.6 0-.6 0l-1-5.7l-.9-.1c0 0 .01-.48 0-.5c.5-.2 1.1-.3 1.8-.3c0 0 1 5.5 1 5.5c.8-1.3 1.4-2.3 1.7-3.2c-.02-.01-.2-1.4-.2-1.4l-.9-.1c0 0 .03-.48 0-.5c.5-.2 1.2-.3 1.8-.3zm7.6 0c1.2 0 1.7.6 1.7 1.4c0 1.3-1 2-3.2 2c0 0-.6 0-.6 0c-.1.4-.1.8-.1 1.1c0 1 .5 1.4 1.1 1.4c.8 0 1.4-.4 2-1.4c0 0 .4.1.4.1c-.6 1.5-1.5 2.2-2.7 2.2c-1.3 0-2-.8-2-2.3c0-2.1 1-4.5 3.4-4.5zm-2 2.9c0 0 .4 0 .4 0c1.5 0 2.2-.5 2.2-1.5c0-.5-.3-.9-.8-.9c-.9 0-1.5 1.2-1.8 2.4zm6.9-2.9c0 0-.3 1.8-.3 1.8c.6-1.2 1.3-1.8 2-1.8c.4 0 .6.1.7.3c0 .6-.1 1.2-.4 1.8c.04-.05-.7 0-.7 0l0-1.2c0 0-.04-.03 0 0c-.5 0-1 .6-1.7 1.8c-.01.01-.6 3.9-.6 3.9l-1.2 0l1-5.7l-1.1-.1c0 0 .07-.48.1-.5c.5-.2 1.3-.3 2.2-.3zm6 0c1.2 0 1.7.6 1.7 1.4c0 1.3-1 2-3.2 2c0 0-.6 0-.6 0c0 .4-.1.8-.1 1.1c0 1 .5 1.4 1.2 1.4c.7 0 1.3-.4 1.9-1.4c0 0 .4.1.4.1c-.6 1.5-1.5 2.2-2.7 2.2c-1.3 0-1.9-.8-1.9-2.3c0-2.1.9-4.5 3.3-4.5zm-2 2.9c0 0 .4 0 .4 0c1.5 0 2.2-.5 2.2-1.5c0-.5-.2-.9-.8-.9c-.9 0-1.5 1.2-1.8 2.4zm10.7-2.9c1.7 0 2.3 1.1 2.3 2.4c0 2.1-1.1 4.4-3.3 4.4c-1.7 0-2.3-1.1-2.3-2.4c0-2.1 1.1-4.4 3.3-4.4zm-1 6.3c1.4 0 2.1-2.2 2.1-4c0-1-.3-1.8-1.2-1.8c-1.3 0-2 2.2-2 4c0 1 .3 1.8 1.1 1.8zm6.9-9.5c0 0-.8 4.8-.8 4.8c.6-1.1 1.3-1.6 2.2-1.6c1 0 1.5.8 1.5 2.1c0 2.2-1 4.7-3.2 4.7c-.6 0-1-.3-1.3-.6c-.2.2-.5.5-.8.6c.02-.05-.3-.2-.3-.2l1.4-8.8l-1.1-.2c0 0 .01-.42 0-.4c.6-.2 1.4-.4 2.4-.4zm-.9 5.5c0 0-.6 3.6-.6 3.6c.3.1.6.2.9.2c1.5 0 2.4-2.1 2.4-4c0-.8-.3-1.2-.9-1.2c-.7 0-1.2.5-1.8 1.4zm5 2.4c.03-.02.8 0 .8 0c0 0 0 1.41 0 1.4c.3.1.5.1.8.1c.8 0 1.4-.4 1.4-1.1c0-.7-.5-.9-1.2-1.3c0 0-.5-.3-.5-.3c-.6-.3-1-.8-1-1.5c0-1.2.9-2 2.3-2c.7 0 1.5.1 1.9.4c0 .6-.2 1.1-.4 1.7c-.04-.05-.8 0-.8 0c0 0-.02-1.49 0-1.5c-.3 0-.5-.1-.7-.1c-.8 0-1.3.4-1.3 1.2c0 .4.4.8.8 1c0 0 .5.3.5.3c.8.4 1.5.7 1.5 1.7c0 1.3-1 2.1-2.6 2.1c-.6 0-1.5-.2-1.9-.4c0-.7.2-1.2.4-1.7zm8.6-4.7c1.2 0 1.7.6 1.7 1.4c0 1.3-1 2-3.2 2c0 0-.6 0-.6 0c-.1.4-.1.8-.1 1.1c0 1 .5 1.4 1.1 1.4c.8 0 1.4-.4 2-1.4c0 0 .4.1.4.1c-.6 1.5-1.5 2.2-2.7 2.2c-1.4 0-2-.8-2-2.3c0-2.1 1-4.5 3.4-4.5zm-2 2.9c0 0 .4 0 .4 0c1.5 0 2.1-.5 2.1-1.5c0-.5-.2-.9-.7-.9c-.9 0-1.6 1.2-1.8 2.4zm6.9-2.9c0 0-.3 1.8-.3 1.8c.6-1.2 1.3-1.8 2-1.8c.4 0 .6.1.7.3c0 .6-.1 1.2-.4 1.8c.03-.05-.7 0-.7 0l0-1.2c0 0-.05-.03-.1 0c-.4 0-.9.6-1.6 1.8c-.02.01-.6 3.9-.6 3.9l-1.2 0l1-5.7l-1.1-.1c0 0 .06-.48.1-.5c.5-.2 1.3-.3 2.2-.3zm3.1.8c0 0 .04-.48 0-.5c.5-.2 1.2-.3 1.8-.3c.04-.02 1 5.5 1 5.5c0 0 .39-.65.4-.6c1.1-1.6 1.5-2.8 1.5-4c0 0-1-.1-1-.1c0 0 .09-.48.1-.5c.4-.2.9-.3 1.3-.3c.5 0 .7.4.7.8c0 .8-.3 1.9-2.4 4.7c-.05.02-.9 1.1-.9 1.1l-.6 0l-1-5.7l-.9-.1zm9.6-.8c1.2 0 1.8.6 1.8 1.4c0 1.3-1 2-3.3 2c0 0-.6 0-.6 0c0 .4-.1.8-.1 1.1c0 1 .5 1.4 1.2 1.4c.7 0 1.3-.4 2-1.4c0 0 .3.1.3.1c-.6 1.5-1.5 2.2-2.7 2.2c-1.3 0-1.9-.8-1.9-2.3c0-2.1.9-4.5 3.3-4.5zm-2 2.9c0 0 .5 0 .5 0c1.4 0 2.1-.5 2.1-1.5c0-.5-.2-.9-.7-.9c-1 0-1.6 1.2-1.9 2.4zm10.6-6.1c0 0-1.3 8.3-1.3 8.3c0 .2 0 .4 0 .5c0 .3.1.4.6.4c-.03-.03.5 0 .5 0c0 0-.06.42-.1.4c-.3.2-.7.4-1.3.4c-.6 0-.8-.4-.8-1c0-.1 0-.4 0-.5c0 0 .1-.3.1-.3c-.6 1.2-1.3 1.8-2.3 1.8c-.9 0-1.5-.8-1.5-2.1c0-2.3 1.1-4.7 3.2-4.7c.6 0 1 .2 1.3.5c-.03.01.4-2.7.4-2.7l-1.2-.2c0 0 .08-.42.1-.4c.6-.2 1.4-.4 2.3-.4zm-2.3 7.6c0 0 .6-3.5.6-3.5c-.2-.1-.5-.2-.9-.2c-1.5 0-2.3 2-2.3 3.9c0 .9.2 1.3.9 1.3c.6 0 1.2-.6 1.7-1.5zm6.1-4c.3-.1.6-.3 1.2-.4c0 0 0-.4 0-.4c.3-1.9 1.2-2.8 2.9-2.8c.6 0 1.3.1 1.6.2c0 .6-.2 1-.4 1.5c.02.02-.8 0-.8 0c0 0-.02-1.08 0-1.1c-.1 0-.2 0-.4 0c-.9 0-1.5.4-1.7 1.9c.01-.05-.1.8-.1.8l1.4 0l-.1.7l-1.4 0c0 0-.91 5.73-.9 5.7c-.3 1.8-1.5 2.9-2.5 2.9c-.5 0-.8-.2-1.1-.5c0 0 .1-.5.1-.5c.2 0 .6.1.9.1c1.1 0 1.2 0 1.5-1.9c-.03.04.8-5.8.8-5.8l-1.1 0l.1-.4c0 0 .03-.03 0 0zm6.6-.4c0 0-.3 1.8-.3 1.8c.5-1.2 1.2-1.8 1.9-1.8c.4 0 .6.1.8.3c0 .6-.2 1.2-.4 1.8c-.03-.05-.8 0-.8 0l0-1.2c0 0-.01-.03 0 0c-.4 0-1 .6-1.7 1.8c.02.01-.6 3.9-.6 3.9l-1.1 0l.9-5.7l-1-.1c0 0 0-.48 0-.5c.6-.2 1.3-.3 2.3-.3zm5.9 0c1.7 0 2.3 1.1 2.3 2.4c0 2.1-1.1 4.4-3.3 4.4c-1.8 0-2.3-1.1-2.3-2.4c0-2.1 1-4.4 3.3-4.4zm-1 6.3c1.4 0 2.1-2.2 2.1-4c0-1-.3-1.8-1.2-1.8c-1.3 0-2 2.2-2 4c0 1 .3 1.8 1.1 1.8zm6.7-6.3c0 0-.3 1.7-.3 1.7c.7-1.1 1.5-1.7 2.4-1.7c.8 0 1.2.4 1.2 1.1c0 .2 0 .4 0 .5c0 0 0 .1 0 .1c.7-1.2 1.4-1.7 2.3-1.7c.8 0 1.3.5 1.3 1.1c0 .2-.1.4-.1.5c0 0-.6 3.5-.6 3.5c-.1.2-.1.4-.1.5c0 .3.2.4.6.4c.02-.03.6 0 .6 0c0 0-.1.42-.1.4c-.3.2-.8.4-1.3.4c-.6 0-.9-.4-.9-.9c0-.2 0-.5 0-.6c0 0 .7-3.4.7-3.4c0-.1 0-.3 0-.4c0-.4-.2-.6-.6-.6c-.5 0-1.1.3-1.9 1.5c-.03-.01-.8 4.2-.8 4.2l-1.1 0c0 0 .83-4.66.8-4.7c.1-.1.1-.3.1-.4c0-.4-.2-.6-.6-.6c-.5 0-1.1.4-2 1.5c.01.03-.7 4.2-.7 4.2l-1.1 0l1-5.7l-1.1-.1c0 0 .05-.48 0-.5c.6-.2 1.4-.3 2.3-.3zm12.4 0c0 0 .3-1.1.3-1.1c.2-.1.6-.2 1-.2c-.01.05-.2 1.4-.2 1.4l1.7 0l-.1.7l-1.7 0c0 0-.63 3.77-.6 3.8c-.1.2-.1.5-.1.7c0 .4.1.6.5.6c.5 0 1.1-.7 1.4-1.4c0 0 .4.1.4.1c-.5 1.4-1.2 2.2-2.2 2.2c-.9 0-1.2-.4-1.2-1.3c0-.1 0-.3 0-.5c-.01-.04.6-4.2.6-4.2l-1.1 0c0 0 .13-.43.1-.4c.3-.1.6-.3 1.2-.4zm7 5.9c0-.2 0-.5 0-.6c0 0 .7-3.4.7-3.4c0-.1 0-.3 0-.4c0-.4-.2-.6-.6-.6c-.5 0-1.1.4-2 1.5c.03.01-.6 4.2-.6 4.2l-1.2 0l1.5-8.8l-1.2-.2c0 0 .06-.42.1-.4c.5-.2 1.4-.4 2.3-.4c0 0-.8 4.9-.8 4.9c.8-1.1 1.5-1.7 2.4-1.7c.8 0 1.3.5 1.3 1.1c0 .2-.1.4-.1.5c0 0-.6 3.5-.6 3.5c-.1.2-.1.4-.1.5c0 .3.2.4.6.4c.01-.03.6 0 .6 0c0 0-.11.42-.1.4c-.3.2-.8.4-1.3.4c-.6 0-.9-.4-.9-.9c0 0 0 0 0 0zm6.6-5.9c1.2 0 1.8.6 1.8 1.4c0 1.3-1 2-3.3 2c0 0-.6 0-.6 0c0 .4 0 .8 0 1.1c0 1 .5 1.4 1.1 1.4c.8 0 1.4-.4 2-1.4c0 0 .3.1.3.1c-.6 1.5-1.5 2.2-2.7 2.2c-1.3 0-1.9-.8-1.9-2.3c0-2.1.9-4.5 3.3-4.5zm-2 2.9c0 0 .5 0 .5 0c1.4 0 2.1-.5 2.1-1.5c0-.5-.2-.9-.7-.9c-1 0-1.6 1.2-1.9 2.4zm13.6-6.1c0 0-1.3 8.3-1.3 8.3c0 .2 0 .4 0 .5c0 .3.1.4.5.4c.05-.03.6 0 .6 0c0 0-.08.42-.1.4c-.3.2-.7.4-1.3.4c-.6 0-.8-.4-.8-1c0-.1 0-.4 0-.5c0 0 .1-.3.1-.3c-.6 1.2-1.3 1.8-2.3 1.8c-1 0-1.5-.8-1.5-2.1c0-2.3 1.1-4.7 3.2-4.7c.5 0 1 .2 1.3.5c-.05.01.4-2.7.4-2.7l-1.2-.2c0 0 .07-.42.1-.4c.5-.2 1.4-.4 2.3-.4zm-2.3 7.6c0 0 .6-3.5.6-3.5c-.3-.1-.5-.2-.9-.2c-1.5 0-2.4 2-2.4 3.9c0 .9.3 1.3.9 1.3c.7 0 1.3-.6 1.8-1.5zm6.4-4.4c1.2 0 1.8.6 1.8 1.4c0 1.3-1 2-3.3 2c0 0-.6 0-.6 0c0 .4-.1.8-.1 1.1c0 1 .5 1.4 1.2 1.4c.7 0 1.3-.4 1.9-1.4c0 0 .4.1.4.1c-.6 1.5-1.5 2.2-2.7 2.2c-1.3 0-1.9-.8-1.9-2.3c0-2.1.9-4.5 3.3-4.5zm-2 2.9c0 0 .5 0 .5 0c1.4 0 2.1-.5 2.1-1.5c0-.5-.2-.9-.7-.9c-1 0-1.6 1.2-1.9 2.4zm7.9-2.9c.6 0 1.2.1 1.5.4c0 .6-.2 1.1-.4 1.7c-.03-.05-.8 0-.8 0c0 0-.02-1.53 0-1.5c-.1 0-.2-.1-.4-.1c-1.5 0-2.2 2.3-2.2 4c0 1 .5 1.4 1.1 1.4c.8 0 1.4-.4 2-1.4c0 0 .4.1.4.1c-.6 1.5-1.5 2.2-2.7 2.2c-1.4 0-2-.8-2-2.3c0-2.1 1-4.5 3.5-4.5zm4.8-3.2c.02.04-1.5 9.8-1.5 9.8l-1.2 0l1.5-8.8l-1.2-.2c0 0 .05-.42.1-.4c.5-.2 1.4-.4 2.3-.4zm3.4 3.3c.03-.01 0 .6 0 .6l-.8.2l-2.3 2c0 0 1.06 2.4 1.1 2.4c.2.6.4.7.9.7c-.04-.03.5 0 .5 0c0 0-.1.42-.1.4c-.3.2-.7.4-1.1.4c-.6 0-.9-.3-1.2-1c.01 0-1.2-2.7-1.2-2.7l2.4-2.1l-1.1-.2c0 0 .06-.43.1-.4c.5-.2 1.9-.3 2.8-.3zm6.3-.1c1.7 0 2.3 1.1 2.3 2.4c0 2.1-1.1 4.4-3.3 4.4c-1.7 0-2.3-1.1-2.3-2.4c0-2.1 1.1-4.4 3.3-4.4zm-.9 6.3c1.3 0 2-2.2 2-4c0-1-.3-1.8-1.2-1.8c-1.3 0-2 2.2-2 4c0 1 .3 1.8 1.2 1.8zm4.2-5.9c.2-.1.6-.3 1.1-.4c0 0 .1-.4.1-.4c.3-1.9 1.1-2.8 2.8-2.8c.6 0 1.3.1 1.7.2c-.1.6-.2 1-.4 1.5c-.03.02-.9 0-.9 0c0 0 .03-1.08 0-1.1c-.1 0-.2 0-.3 0c-.9 0-1.5.4-1.7 1.9c-.04-.05-.2.8-.2.8l1.4 0l-.1.7l-1.4 0c0 0-.86 5.73-.9 5.7c-.2 1.8-1.4 2.9-2.5 2.9c-.4 0-.8-.2-1-.5c0 0 0-.5 0-.5c.2 0 .6.1 1 .1c1 0 1.1 0 1.4-1.9c.02.04.9-5.8.9-5.8l-1.1 0l.1-.4c0 0-.02-.03 0 0zm7.9-.4c0 0 .3-1.1.3-1.1c.3-.1.7-.2 1-.2c.02.05-.2 1.4-.2 1.4l1.7 0l-.1.7l-1.7 0c0 0-.6 3.77-.6 3.8c0 .2-.1.5-.1.7c0 .4.1.6.5.6c.5 0 1.1-.7 1.4-1.4c0 0 .4.1.4.1c-.5 1.4-1.2 2.2-2.2 2.2c-.8 0-1.2-.4-1.2-1.3c0-.1 0-.3 0-.5c.02-.04.7-4.2.7-4.2l-1.1 0c0 0 .06-.43.1-.4c.2-.1.6-.3 1.1-.4zm7 5.9c0-.2 0-.5.1-.6c0 0 .6-3.4.6-3.4c0-.1 0-.3 0-.4c0-.4-.1-.6-.6-.6c-.5 0-1.1.4-1.9 1.5c-.04.01-.7 4.2-.7 4.2l-1.1 0l1.4-8.8l-1.2-.2c0 0 .09-.42.1-.4c.6-.2 1.4-.4 2.4-.4c0 0-.8 4.9-.8 4.9c.7-1.1 1.4-1.7 2.3-1.7c.9 0 1.3.5 1.3 1.1c0 .2 0 .4 0 .5c0 0-.7 3.5-.7 3.5c0 .2-.1.4-.1.5c0 .3.2.4.6.4c.04-.03.6 0 .6 0c0 0-.08.42-.1.4c-.3.2-.7.4-1.3.4c-.6 0-.9-.4-.9-.9c0 0 0 0 0 0zm6.7-5.9c1.1 0 1.7.6 1.7 1.4c0 1.3-1 2-3.2 2c0 0-.6 0-.6 0c-.1.4-.1.8-.1 1.1c0 1 .5 1.4 1.1 1.4c.8 0 1.4-.4 2-1.4c0 0 .4.1.4.1c-.6 1.5-1.6 2.2-2.7 2.2c-1.4 0-2-.8-2-2.3c0-2.1 1-4.5 3.4-4.5zm-2 2.9c0 0 .4 0 .4 0c1.5 0 2.1-.5 2.1-1.5c0-.5-.2-.9-.7-.9c-1 0-1.6 1.2-1.8 2.4z" stroke="none" fill="#fff"/><a xlink:href="http://www.nps.gov/chis/learn/news/ipco-new-boat.htm?target=_lightbox" class="lightbox" xlink:show="undefined" xlink:title="Island Explorer"><rect style="fill:transparent;" x="-1" y="36" width="85" height="13"/></a></g><g id="Polygon14561"><path d="m0 10.6c.3-.1.6-.2 1-.2c0 0 1.2-7.5 1.2-7.5c-.5 0-.8-.1-1.1-.2c-.04-.01 0-.5 0-.5c0 0 3.6-.02 3.6 0c2.4 0 3.9 1.4 3.9 3.6c0 3.1-1.9 5.3-4.9 5.3c0 .04-3.8 0-3.8 0l.1-.5c0 0-.03.04 0 0zm2.2-.1c0 0 1.66-.03 1.7 0c2.3 0 3.3-2.3 3.3-4.8c0-1.9-1-2.8-2.6-2.8c-.01-.05-1.2 0-1.2 0l-1.2 7.6zm10.6-6c1.8 0 2.3 1.1 2.3 2.4c0 2.1-1 4.4-3.3 4.4c-1.7 0-2.3-1.1-2.3-2.4c0-2.1 1.1-4.4 3.3-4.4zm-.9 6.3c1.3 0 2-2.2 2-4c0-1-.3-1.8-1.1-1.8c-1.4 0-2.1 2.2-2.1 4c0 1 .3 1.8 1.2 1.8zm6.8-9.5c0 0-1.3 8.3-1.3 8.3c0 .2-.1.4-.1.5c0 .3.2.4.6.4c.02-.03.6 0 .6 0c0 0-.11.42-.1.4c-.3.2-.8.4-1.3.4c-.6 0-.9-.4-.9-1c0-.1 0-.4 0-.5c.04 0 1.3-7.5 1.3-7.5l-1.2-.2c0 0 .04-.42 0-.4c.6-.2 1.5-.4 2.4-.4zm3.1 3.2c0 0-.2 1.6-.2 1.6c.6-1.1 1.3-1.6 2.2-1.6c1 0 1.5.8 1.5 2.1c0 2.2-1.1 4.7-3.2 4.7c-.6 0-1-.2-1.3-.6c0 0-.4 2.4-.4 2.4c.5 0 1 .1 1.3.2c.03.03-.1.5-.1.5l-3.3 0c0 0 .1-.47.1-.5c.3-.1.5-.2.9-.2c.02 0 1.3-7.7 1.3-7.7l-1.1-.1c0 0 .09-.48.1-.5c.6-.2 1.3-.3 2.2-.3zm-.4 2.4c0 0-.5 3.5-.5 3.5c.2.1.5.2.9.2c1.5 0 2.3-2.1 2.3-4c0-.8-.2-1.2-.9-1.2c-.6 0-1.2.6-1.8 1.5zm8.6 3.5c0-.2 0-.5 0-.6c0 0 .6-3.4.6-3.4c.1-.1.1-.3.1-.4c0-.4-.2-.6-.6-.6c-.5 0-1.1.4-2 1.5c.01.01-.7 4.2-.7 4.2l-1.1 0l1.5-8.8l-1.2-.2c0 0 .04-.42 0-.4c.6-.2 1.5-.4 2.4-.4c0 0-.8 4.9-.8 4.9c.7-1.1 1.5-1.7 2.4-1.7c.8 0 1.2.5 1.2 1.1c0 .2 0 .4 0 .5c0 0-.6 3.5-.6 3.5c-.1.2-.1.4-.1.5c0 .3.1.4.6.4c-.01-.03.6 0 .6 0c0 0-.13.42-.1.4c-.3.2-.8.4-1.3.4c-.7 0-.9-.4-.9-.9c0 0 0 0 0 0zm5-8.8c.1 0 .4 0 .6 0c.2 0 .5 0 .6 0c0 .5-.2 1.1-.4 1.5c-.1.1-.3.1-.5.1c-.2 0-.4 0-.5-.1c0-.4.1-1.1.2-1.5zm.7 2.9c0 0-.8 5.1-.8 5.1c-.1.2-.1.4-.1.5c0 .3.1.4.6.4c-.01-.03.6 0 .6 0c0 0-.13.42-.1.4c-.3.2-.8.4-1.3.4c-.7 0-.9-.4-.9-1c0-.1 0-.4 0-.5c.01 0 .7-4.4.7-4.4l-1-.1c0 0 .02-.48 0-.5c.6-.2 1.3-.3 2.3-.3zm3.6 0c0 0-.3 1.7-.3 1.7c.7-1.1 1.5-1.7 2.4-1.7c.8 0 1.3.5 1.3 1.1c0 .2-.1.4-.1.5c0 0-.6 3.5-.6 3.5c-.1.2-.1.4-.1.5c0 .3.2.4.6.4c0-.03.6 0 .6 0c0 0-.12.42-.1.4c-.3.2-.8.4-1.3.4c-.7 0-.9-.4-.9-.9c0-.2 0-.5 0-.6c0 0 .6-3.4.6-3.4c.1-.1.1-.3.1-.4c0-.4-.2-.6-.6-.6c-.5 0-1.1.4-2 1.5c.02.03-.7 4.2-.7 4.2l-1.1 0l1-5.7l-1.1-.1c0 0 .06-.48.1-.5c.5-.2 1.3-.3 2.2-.3zm7.8 4.7c-.05-.02.7 0 .7 0c0 0 .02 1.41 0 1.4c.3.1.6.1.8.1c.8 0 1.4-.4 1.4-1.1c0-.7-.5-.9-1.2-1.3c0 0-.5-.3-.5-.3c-.5-.3-1-.8-1-1.5c0-1.2.9-2 2.4-2c.6 0 1.4.1 1.8.4c0 .6-.2 1.1-.4 1.7c-.02-.05-.7 0-.7 0c0 0-.1-1.49-.1-1.5c-.2 0-.5-.1-.7-.1c-.8 0-1.3.4-1.3 1.2c0 .4.4.8.8 1c0 0 .5.3.5.3c.8.4 1.5.7 1.5 1.7c0 1.3-1 2.1-2.6 2.1c-.6 0-1.5-.2-1.8-.4c0-.7.1-1.2.4-1.7zm8.5-4.7c1.2 0 1.7.6 1.7 1.4c0 1.3-1 2-3.2 2c0 0-.6 0-.6 0c0 .4-.1.8-.1 1.1c0 1 .5 1.4 1.1 1.4c.8 0 1.4-.4 2-1.4c0 0 .4.1.4.1c-.6 1.5-1.5 2.2-2.7 2.2c-1.3 0-2-.8-2-2.3c0-2.1 1-4.5 3.4-4.5zm-2 2.9c0 0 .4 0 .4 0c1.5 0 2.2-.5 2.2-1.5c0-.5-.3-.9-.8-.9c-.9 0-1.5 1.2-1.8 2.4zm7.8-2.9c1.2 0 1.7.6 1.7 1.4c0 1.3-1 2-3.2 2c0 0-.6 0-.6 0c-.1.4-.1.8-.1 1.1c0 1 .5 1.4 1.1 1.4c.8 0 1.4-.4 2-1.4c0 0 .4.1.4.1c-.6 1.5-1.5 2.2-2.7 2.2c-1.4 0-2-.8-2-2.3c0-2.1 1-4.5 3.4-4.5zm-2 2.9c0 0 .4 0 .4 0c1.5 0 2.1-.5 2.1-1.5c0-.5-.2-.9-.7-.9c-.9 0-1.6 1.2-1.8 2.4zm6.9-2.9c0 0-.3 1.7-.3 1.7c.7-1.1 1.5-1.7 2.4-1.7c.8 0 1.2.4 1.2 1.1c0 .2 0 .4 0 .5c0 0 0 .1 0 .1c.7-1.2 1.4-1.7 2.3-1.7c.8 0 1.3.5 1.3 1.1c0 .2-.1.4-.1.5c0 0-.6 3.5-.6 3.5c-.1.2-.1.4-.1.5c0 .3.2.4.6.4c.02-.03.6 0 .6 0c0 0-.1.42-.1.4c-.3.2-.8.4-1.3.4c-.6 0-.9-.4-.9-.9c0-.2 0-.5 0-.6c0 0 .7-3.4.7-3.4c0-.1 0-.3 0-.4c0-.4-.2-.6-.6-.6c-.5 0-1.1.3-1.9 1.5c-.03-.01-.8 4.2-.8 4.2l-1.1 0c0 0 .83-4.66.8-4.7c.1-.1.1-.3.1-.4c0-.4-.2-.6-.6-.6c-.5 0-1.1.4-2 1.5c.01.03-.7 4.2-.7 4.2l-1.1 0l1-5.7l-1.1-.1c0 0 .05-.48.1-.5c.5-.2 1.3-.3 2.2-.3zm12.4 0c0 0 .3-1.1.3-1.1c.2-.1.6-.2 1-.2c-.01.05-.2 1.4-.2 1.4l1.7 0l-.1.7l-1.7 0c0 0-.63 3.77-.6 3.8c-.1.2-.1.5-.1.7c0 .4.1.6.5.6c.5 0 1.1-.7 1.4-1.4c0 0 .4.1.4.1c-.5 1.4-1.2 2.2-2.2 2.2c-.9 0-1.2-.4-1.2-1.3c0-.1 0-.3 0-.5c0-.04.6-4.2.6-4.2l-1.1 0c0 0 .13-.43.1-.4c.3-.1.6-.3 1.2-.4zm6.8 0c1.7 0 2.2 1.1 2.2 2.4c0 2.1-1 4.4-3.3 4.4c-1.7 0-2.2-1.1-2.2-2.4c0-2.1 1-4.4 3.3-4.4zm-1 6.3c1.3 0 2.1-2.2 2.1-4c0-1-.4-1.8-1.2-1.8c-1.3 0-2.1 2.2-2.1 4c0 1 .4 1.8 1.2 1.8zm10.5-6.3c1.2 0 1.8.6 1.8 1.4c0 1.3-1 2-3.3 2c0 0-.6 0-.6 0c0 .4-.1.8-.1 1.1c0 1 .6 1.4 1.2 1.4c.8 0 1.3-.4 2-1.4c0 0 .3.1.3.1c-.6 1.5-1.5 2.2-2.7 2.2c-1.3 0-1.9-.8-1.9-2.3c0-2.1.9-4.5 3.3-4.5zm-2 2.9c0 0 .5 0 .5 0c1.4 0 2.1-.5 2.1-1.5c0-.5-.2-.9-.7-.9c-1 0-1.6 1.2-1.9 2.4zm7-2.9c0 0-.3 1.7-.3 1.7c.7-1.1 1.4-1.7 2.3-1.7c.9 0 1.3.5 1.3 1.1c0 .2 0 .4 0 .5c0 0-.7 3.5-.7 3.5c0 .2-.1.4-.1.5c0 .3.2.4.6.4c.05-.03.6 0 .6 0c0 0-.07.42-.1.4c-.3.2-.7.4-1.3.4c-.6 0-.9-.4-.9-.9c0-.2 0-.5.1-.6c0 0 .6-3.4.6-3.4c0-.1 0-.3 0-.4c0-.4-.1-.6-.6-.6c-.5 0-1.1.4-1.9 1.5c-.03.03-.7 4.2-.7 4.2l-1.1 0l.9-5.7l-1-.1c0 0 .01-.48 0-.5c.6-.2 1.3-.3 2.3-.3zm6.5-2.9c.1 0 .4 0 .6 0c.2 0 .5 0 .6 0c0 .5-.2 1.1-.4 1.5c-.1.1-.3.1-.5.1c-.2 0-.4 0-.5-.1c0-.4.1-1.1.2-1.5zm.7 2.9c0 0-1 6.3-1 6.3c-.3 1.8-1.5 3.1-2.5 3.1c-.5 0-.8-.2-1.1-.5c0 0 0-.5 0-.5c.3 0 .8.1 1.1.1c.9 0 1 0 1.3-1.9c0 .04.9-5.7.9-5.7l-1-.1c0 0 .03-.48 0-.5c.6-.2 1.3-.3 2.3-.3zm4.2 0c1.8 0 2.3 1.1 2.3 2.4c0 2.1-1 4.4-3.3 4.4c-1.7 0-2.3-1.1-2.3-2.4c0-2.1 1.1-4.4 3.3-4.4zm-.9 6.3c1.3 0 2.1-2.2 2.1-4c0-1-.4-1.8-1.2-1.8c-1.4 0-2.1 2.2-2.1 4c0 1 .3 1.8 1.2 1.8zm5.4.8c.05-.01.3-.3.3-.3l-1.1-5.9l-.9-.1c0 0 .08-.48.1-.5c.4-.2 1.2-.3 1.8-.3c-.01-.02.9 5.5.9 5.5c0 0 .4-.54.4-.5c.9-1.3 1.5-2.6 1.5-4.1c.03 0-.9-.1-.9-.1c0 0 .03-.48 0-.5c.4-.2.9-.3 1.4-.3c.5 0 .6.4.6.8c0 1-.6 2.4-1.9 4.2c0 0-1.5 2.1-1.5 2.1c-.7 1-1.6 2.3-2.5 2.3c-.6 0-.9-.2-1.2-.6c0 0 .1-.5.1-.5c.3.1.6.2.9.2c.9 0 1.5-.5 2-1.4zm11.2-7.1c.6 0 1.2.1 1.5.4c0 .6-.2 1.1-.4 1.7c-.02-.05-.7 0-.7 0c0 0-.1-1.53-.1-1.5c-.1 0-.2-.1-.3-.1c-1.5 0-2.3 2.3-2.3 4c0 1 .5 1.4 1.1 1.4c.8 0 1.4-.4 2-1.4c0 0 .4.1.4.1c-.6 1.5-1.5 2.2-2.7 2.2c-1.3 0-2-.8-2-2.3c0-2.1 1-4.5 3.5-4.5zm5.5 0c.5 0 .9.2 1.2.6c.2-.3.5-.5.8-.6c-.03-.02.3.1.3.1c0 0-.75 5.03-.8 5c0 .2 0 .4 0 .5c0 .3.1.4.6.4c-.02-.03.5 0 .5 0c0 0-.05.42 0 .4c-.4.2-.8.4-1.4.4c-.6 0-.8-.4-.8-1c0-.1 0-.4.1-.5c0 0 0-.3 0-.3c-.6 1.2-1.3 1.8-2.3 1.8c-.9 0-1.5-.8-1.5-2.1c0-2.3 1.1-4.7 3.3-4.7zm.6 4.4c0 0 .5-3.5.5-3.5c-.2-.1-.5-.2-.9-.2c-1.5 0-2.3 2-2.3 3.9c0 .9.3 1.3.9 1.3c.6 0 1.2-.6 1.8-1.5zm2.5-3.6c0 0 .09-.48.1-.5c.4-.2 1.2-.3 1.8-.3c-.01-.02.9 5.5.9 5.5c0 0 .44-.65.4-.6c1.1-1.6 1.5-2.8 1.5-4c.05 0-.9-.1-.9-.1c0 0 .04-.48 0-.5c.4-.2.9-.3 1.4-.3c.5 0 .6.4.6.8c0 .8-.3 1.9-2.4 4.7c0 .02-.8 1.1-.8 1.1l-.7 0l-1-5.7l-.9-.1zm9.6-.8c1.8 0 2.3 1.1 2.3 2.4c0 2.1-1 4.4-3.3 4.4c-1.7 0-2.3-1.1-2.3-2.4c0-2.1 1.1-4.4 3.3-4.4zm-.9 6.3c1.3 0 2-2.2 2-4c0-1-.3-1.8-1.1-1.8c-1.4 0-2.1 2.2-2.1 4c0 1 .3 1.8 1.2 1.8zm6.6-6.3c0 0-.3 1.8-.3 1.8c.6-1.2 1.3-1.8 2-1.8c.4 0 .6.1.7.3c0 .6-.1 1.2-.4 1.8c.05-.05-.7 0-.7 0l0-1.2c0 0-.04-.03 0 0c-.5 0-1 .6-1.7 1.8c0 .01-.6 3.9-.6 3.9l-1.2 0l1-5.7l-1.1-.1c0 0 .08-.48.1-.5c.6-.2 1.3-.3 2.2-.3zm4.4 0c0 0 .3-1.1.3-1.1c.3-.1.6-.2 1-.2c.01.05-.2 1.4-.2 1.4l1.7 0l-.1.7l-1.7 0c0 0-.61 3.77-.6 3.8c-.1.2-.1.5-.1.7c0 .4.1.6.5.6c.5 0 1.1-.7 1.4-1.4c0 0 .4.1.4.1c-.5 1.4-1.2 2.2-2.2 2.2c-.8 0-1.2-.4-1.2-1.3c0-.1 0-.3 0-.5c.02-.04.6-4.2.6-4.2l-1 0c0 0 .05-.43.1-.4c.2-.1.6-.3 1.1-.4zm5-2.9c.1 0 .4 0 .6 0c.2 0 .5 0 .6 0c0 .5-.2 1.1-.4 1.5c-.1.1-.3.1-.5.1c-.2 0-.4 0-.5-.1c0-.4 0-1.1.2-1.5zm.7 2.9c0 0-.9 5.1-.9 5.1c0 .2 0 .4 0 .5c0 .3.1.4.6.4c-.03-.03.5 0 .5 0c0 0-.05.42-.1.4c-.3.2-.7.4-1.3.4c-.6 0-.9-.4-.9-1c0-.1.1-.4.1-.5c0 0 .7-4.4.7-4.4l-1-.1c0 0 0-.48 0-.5c.6-.2 1.3-.3 2.3-.3zm3.6 0c0 0-.3 1.7-.3 1.7c.7-1.1 1.4-1.7 2.4-1.7c.8 0 1.2.5 1.2 1.1c0 .2 0 .4 0 .5c0 0-.6 3.5-.6 3.5c-.1.2-.1.4-.1.5c0 .3.1.4.6.4c-.01-.03.5 0 .5 0c0 0-.04.42 0 .4c-.3.2-.8.4-1.4.4c-.6 0-.8-.4-.8-.9c0-.2 0-.5 0-.6c0 0 .6-3.4.6-3.4c.1-.1.1-.3.1-.4c0-.4-.2-.6-.6-.6c-.5 0-1.1.4-2 1.5c0 .03-.7 4.2-.7 4.2l-1.1 0l.9-5.7l-1-.1c0 0 .04-.48 0-.5c.6-.2 1.3-.3 2.3-.3zm5.6 6.3c-.3-.1-.6-.4-.6-.8c0-.5.4-.9 1.1-1.3c-.8-.3-1.2-1-1.2-1.7c0-1.6 1.3-2.5 2.7-2.5c.6 0 1.1.1 1.5.4c.3-.3 1-.5 1.7-.5c0 .4-.1.6-.2.9c0 0-1.1 0-1.1 0c.2.3.3.7.3 1.1c0 1.6-1.2 2.5-2.6 2.5c-.3 0-.5 0-.7-.1c-.3.3-.5.5-.5.8c0 .3.1.4.5.4c0 0 1.6.1 1.6.1c1.3.1 1.8.5 1.8 1.3c0 1.3-1.4 2.5-3.6 2.5c-1.6 0-2.4-.5-2.4-1.5c0-.8.7-1.3 1.7-1.6zm1.6-2.5c.9 0 1.5-.7 1.5-1.9c0-.8-.4-1.4-1.1-1.4c-.9 0-1.5.8-1.5 2c0 .8.3 1.3 1.1 1.3c0 0 0 0 0 0zm-2.3 3.9c0 .7.6 1.1 1.6 1.1c1.4 0 2.3-.6 2.3-1.4c0-.5-.2-.8-1-.8c0 0-1.8-.1-1.8-.1c-.7.3-1.1.7-1.1 1.2zm10.8-10.6c.1 0 .4 0 .6 0c.2 0 .5 0 .6 0c0 .5-.2 1.1-.4 1.5c-.1.1-.3.1-.5.1c-.2 0-.4 0-.6-.1c0-.4.1-1.1.3-1.5zm.6 2.9c0 0-.8 5.1-.8 5.1c0 .2 0 .4 0 .5c0 .3.1.4.6.4c-.03-.03.5 0 .5 0c0 0-.06.42-.1.4c-.3.2-.7.4-1.3.4c-.6 0-.9-.4-.9-1c0-.1.1-.4.1-.5c-.01 0 .7-4.4.7-4.4l-1-.1c0 0-.01-.48 0-.5c.6-.2 1.3-.3 2.2-.3zm3.7 0c0 0-.3 1.7-.3 1.7c.7-1.1 1.4-1.7 2.4-1.7c.8 0 1.2.5 1.2 1.1c0 .2 0 .4 0 .5c0 0-.7 3.5-.7 3.5c0 .2 0 .4 0 .5c0 .3.1.4.6.4c-.02-.03.5 0 .5 0c0 0-.05.42 0 .4c-.4.2-.8.4-1.4.4c-.6 0-.9-.4-.9-.9c0-.2.1-.5.1-.6c0 0 .6-3.4.6-3.4c0-.1.1-.3.1-.4c0-.4-.2-.6-.6-.6c-.5 0-1.1.4-2 1.5c-.01.03-.7 4.2-.7 4.2l-1.1 0l.9-5.7l-1-.1c0 0 .03-.48 0-.5c.6-.2 1.3-.3 2.3-.3zm8.9 0c0 0 .3-1.1.3-1.1c.2-.1.6-.2.9-.2c.05.05-.2 1.4-.2 1.4l1.7 0l-.1.7l-1.7 0c0 0-.58 3.77-.6 3.8c0 .2 0 .5 0 .7c0 .4.1.6.4.6c.6 0 1.1-.7 1.4-1.4c0 0 .4.1.4.1c-.4 1.4-1.2 2.2-2.2 2.2c-.8 0-1.2-.4-1.2-1.3c0-.1 0-.3.1-.5c-.05-.04.6-4.2.6-4.2l-1.1 0c0 0 .09-.43.1-.4c.2-.1.6-.3 1.2-.4zm6.9 5.9c0-.2.1-.5.1-.6c0 0 .6-3.4.6-3.4c0-.1.1-.3.1-.4c0-.4-.2-.6-.7-.6c-.4 0-1 .4-1.9 1.5c-.01.01-.7 4.2-.7 4.2l-1.1 0l1.4-8.8l-1.1-.2c0 0 .02-.42 0-.4c.6-.2 1.4-.4 2.4-.4c0 0-.8 4.9-.8 4.9c.7-1.1 1.4-1.7 2.4-1.7c.8 0 1.2.5 1.2 1.1c0 .2 0 .4 0 .5c0 0-.7 3.5-.7 3.5c0 .2 0 .4 0 .5c0 .3.1.4.6.4c-.03-.03.5 0 .5 0c0 0-.06.42-.1.4c-.3.2-.7.4-1.3.4c-.6 0-.9-.4-.9-.9c0 0 0 0 0 0zm6.7-5.9c1.2 0 1.7.6 1.7 1.4c0 1.3-1 2-3.2 2c0 0-.6 0-.6 0c-.1.4-.1.8-.1 1.1c0 1 .5 1.4 1.1 1.4c.8 0 1.4-.4 2-1.4c0 0 .4.1.4.1c-.6 1.5-1.5 2.2-2.7 2.2c-1.3 0-2-.8-2-2.3c0-2.1 1-4.5 3.4-4.5zm-2 2.9c0 0 .4 0 .4 0c1.5 0 2.2-.5 2.2-1.5c0-.5-.3-.9-.8-.9c-.9 0-1.5 1.2-1.8 2.4zm10.2-6.1c0 0-.7 4.8-.7 4.8c.6-1.1 1.2-1.6 2.2-1.6c.9 0 1.5.8 1.5 2.1c0 2.2-1.1 4.7-3.2 4.7c-.6 0-1.1-.3-1.4-.6c-.2.2-.4.5-.7.6c-.02-.05-.4-.2-.4-.2l1.5-8.8l-1.2-.2c0 0 .06-.42.1-.4c.5-.2 1.4-.4 2.3-.4zm-.9 5.5c0 0-.5 3.6-.5 3.6c.2.1.5.2.9.2c1.5 0 2.3-2.1 2.3-4c0-.8-.3-1.2-.9-1.2c-.6 0-1.2.5-1.8 1.4zm8.3-2.3c1.8 0 2.3 1.1 2.3 2.4c0 2.1-1 4.4-3.3 4.4c-1.7 0-2.3-1.1-2.3-2.4c0-2.1 1.1-4.4 3.3-4.4zm-.9 6.3c1.3 0 2-2.2 2-4c0-1-.3-1.8-1.1-1.8c-1.4 0-2.1 2.2-2.1 4c0 1 .3 1.8 1.2 1.8zm9-6.3c0 0 .8 5.4.8 5.4c1.2-1.8 1.8-3.1 1.8-4.5c0 0-.9-.1-.9-.1c0 0 .01-.48 0-.5c.4-.2.9-.3 1.4-.3c.5 0 .6.4.6.8c0 .8-.4 2.2-3.2 5.8c.05.04-.6 0-.6 0c0 0-.46-3.02-.5-3c-.5.8-1.2 1.7-2.2 3c.04.04-.6 0-.6 0l-1-5.7l-.9-.1c0 0 .06-.48.1-.5c.5-.2 1.1-.3 1.8-.3c0 0 .9 5.5.9 5.5c.8-1.3 1.4-2.3 1.7-3.2c.03-.01-.2-1.4-.2-1.4l-.9-.1c0 0 .08-.48.1-.5c.5-.2 1.1-.3 1.8-.3zm12.3 0c0 0 .8 5.4.8 5.4c1.1-1.8 1.7-3.1 1.8-4.5c-.03 0-1-.1-1-.1c0 0 .07-.48.1-.5c.4-.2.9-.3 1.3-.3c.5 0 .6.4.6.8c0 .8-.3 2.2-3.1 5.8c.01.04-.6 0-.6 0c0 0-.5-3.02-.5-3c-.5.8-1.2 1.7-2.2 3c.01.04-.6 0-.6 0l-1-5.7l-.9-.1c0 0 .03-.48 0-.5c.5-.2 1.2-.3 1.8-.3c0 0 1 5.5 1 5.5c.8-1.3 1.4-2.3 1.7-3.2c-.01-.01-.2-1.4-.2-1.4l-.9-.1c0 0 .04-.48 0-.5c.6-.2 1.2-.3 1.9-.3zm7.5 0c.5 0 .9.2 1.2.6c.2-.3.5-.5.8-.6c-.03-.02.3.1.3.1c0 0-.75 5.03-.8 5c0 .2 0 .4 0 .5c0 .3.1.4.6.4c-.02-.03.5 0 .5 0c0 0-.04.42 0 .4c-.4.2-.8.4-1.4.4c-.6 0-.8-.4-.8-1c0-.1 0-.4.1-.5c0 0 0-.3 0-.3c-.6 1.2-1.3 1.8-2.3 1.8c-.9 0-1.5-.8-1.5-2.1c0-2.3 1.1-4.7 3.3-4.7zm.6 4.4c0 0 .5-3.5.5-3.5c-.2-.1-.5-.2-.9-.2c-1.5 0-2.3 2-2.3 3.9c0 .9.3 1.3.9 1.3c.6 0 1.2-.6 1.8-1.5zm2.5-3.6c0 0 .09-.48.1-.5c.5-.2 1.2-.3 1.8-.3c-.01-.02.9 5.5.9 5.5c0 0 .44-.65.4-.6c1.1-1.6 1.5-2.8 1.6-4c-.05 0-1-.1-1-.1c0 0 .04-.48 0-.5c.4-.2 1-.3 1.4-.3c.5 0 .6.4.6.8c0 .8-.3 1.9-2.4 4.7c.01.02-.8 1.1-.8 1.1l-.6 0l-1.1-5.7l-.9-.1zm9.7-.8c1.2 0 1.7.6 1.7 1.4c0 1.3-1 2-3.2 2c0 0-.6 0-.6 0c-.1.4-.1.8-.1 1.1c0 1 .5 1.4 1.1 1.4c.8 0 1.4-.4 2-1.4c0 0 .4.1.4.1c-.6 1.5-1.5 2.2-2.7 2.2c-1.4 0-2-.8-2-2.3c0-2.1 1-4.5 3.4-4.5zm-2 2.9c0 0 .4 0 .4 0c1.5 0 2.1-.5 2.1-1.5c0-.5-.2-.9-.7-.9c-.9 0-1.6 1.2-1.8 2.4zm4.6 1.8c.02-.02.8 0 .8 0c0 0-.01 1.41 0 1.4c.3.1.5.1.8.1c.7 0 1.4-.4 1.4-1.1c0-.7-.5-.9-1.2-1.3c0 0-.5-.3-.5-.3c-.6-.3-1-.8-1-1.5c0-1.2.8-2 2.3-2c.7 0 1.5.1 1.8.4c0 .6-.1 1.1-.3 1.7c-.04-.05-.8 0-.8 0c0 0-.03-1.49 0-1.5c-.3 0-.5-.1-.7-.1c-.8 0-1.3.4-1.3 1.2c0 .4.4.8.8 1c0 0 .5.3.5.3c.8.4 1.5.7 1.5 1.7c0 1.3-1 2.1-2.6 2.1c-.6 0-1.5-.2-1.9-.4c0-.7.2-1.2.4-1.7zm11.4-4.7c1.8 0 2.3 1.1 2.3 2.4c0 2.1-1 4.4-3.3 4.4c-1.7 0-2.3-1.1-2.3-2.4c0-2.1 1.1-4.4 3.3-4.4zm-.9 6.3c1.3 0 2.1-2.2 2.1-4c0-1-.4-1.8-1.2-1.8c-1.4 0-2.1 2.2-2.1 4c0 1 .3 1.8 1.2 1.8zm4.2-5.9c.2-.1.6-.3 1.1-.4c0 0 .1-.4.1-.4c.3-1.9 1.1-2.8 2.9-2.8c.5 0 1.3.1 1.6.2c-.1.6-.2 1-.4 1.5c0 .02-.8 0-.8 0c0 0-.04-1.08 0-1.1c-.1 0-.3 0-.4 0c-.9 0-1.5.4-1.7 1.9c-.01-.05-.1.8-.1.8l1.4 0l-.1.7l-1.4 0c0 0-.93 5.73-.9 5.7c-.3 1.8-1.5 2.9-2.5 2.9c-.5 0-.8-.2-1.1-.5c0 0 0-.5 0-.5c.3 0 .7.1 1 .1c1.1 0 1.2 0 1.5-1.9c-.05.04.8-5.8.8-5.8l-1.1 0l.1-.4c0 0 .01-.03 0 0zm9.6-3.6c0 0-1.4 8.3-1.4 8.3c0 .2 0 .4 0 .5c0 .3.1.4.6.4c-.03-.03.5 0 .5 0c0 0-.05.42-.1.4c-.3.2-.7.4-1.3.4c-.6 0-.9-.4-.9-1c0-.1.1-.4.1-.5c-.01 0 1.2-7.5 1.2-7.5l-1.1-.2c0 0-.01-.42 0-.4c.6-.2 1.4-.4 2.4-.4zm4 3.2c.5 0 1 .2 1.2.6c.2-.3.5-.5.8-.6c0-.02.4.1.4.1c0 0-.82 5.03-.8 5c0 .2-.1.4-.1.5c0 .3.2.4.6.4c.02-.03.6 0 .6 0c0 0-.11.42-.1.4c-.3.2-.8.4-1.3.4c-.6 0-.9-.4-.9-1c0-.1.1-.4.1-.5c0 0 .1-.3.1-.3c-.7 1.2-1.4 1.8-2.3 1.8c-1 0-1.6-.8-1.6-2.1c0-2.3 1.2-4.7 3.3-4.7zm.6 4.4c0 0 .6-3.5.6-3.5c-.3-.1-.6-.2-.9-.2c-1.5 0-2.4 2-2.4 3.9c0 .9.3 1.3.9 1.3c.6 0 1.2-.6 1.8-1.5zm5.4-4.4c0 0-.3 1.8-.3 1.8c.6-1.2 1.3-1.8 2-1.8c.4 0 .6.1.7.3c0 .6-.1 1.2-.3 1.8c-.05-.05-.8 0-.8 0l0-1.2c0 0-.03-.03 0 0c-.5 0-1 .6-1.7 1.8c0 .01-.6 3.9-.6 3.9l-1.1 0l.9-5.7l-1.1-.1c0 0 .08-.48.1-.5c.6-.2 1.3-.3 2.2-.3zm3.7 6.3c-.3-.1-.5-.4-.5-.8c0-.5.3-.9 1.1-1.3c-.8-.3-1.2-1-1.2-1.7c0-1.6 1.2-2.5 2.6-2.5c.7 0 1.2.1 1.5.4c.4-.3 1-.5 1.7-.5c0 .4 0 .6-.2.9c0 0-1 0-1 0c.2.3.3.7.3 1.1c0 1.6-1.3 2.5-2.7 2.5c-.2 0-.4 0-.6-.1c-.4.3-.6.5-.6.8c0 .3.1.4.5.4c0 0 1.7.1 1.7.1c1.2.1 1.7.5 1.7 1.3c0 1.3-1.4 2.5-3.5 2.5c-1.7 0-2.5-.5-2.5-1.5c0-.8.7-1.3 1.7-1.6zm1.6-2.5c1 0 1.5-.7 1.5-1.9c0-.8-.3-1.4-1.1-1.4c-.9 0-1.5.8-1.5 2c0 .8.4 1.3 1.1 1.3c0 0 0 0 0 0zm-2.2 3.9c0 .7.6 1.1 1.5 1.1c1.5 0 2.4-.6 2.4-1.4c0-.5-.2-.8-1.1-.8c0 0-1.8-.1-1.8-.1c-.7.3-1 .7-1 1.2zm9.3-7.7c1.1 0 1.7.6 1.7 1.4c0 1.3-1 2-3.3 2c0 0-.5 0-.5 0c-.1.4-.1.8-.1 1.1c0 1 .5 1.4 1.1 1.4c.8 0 1.4-.4 2-1.4c0 0 .4.1.4.1c-.7 1.5-1.6 2.2-2.7 2.2c-1.4 0-2-.8-2-2.3c0-2.1.9-4.5 3.4-4.5zm-2.1 2.9c0 0 .5 0 .5 0c1.4 0 2.1-.5 2.1-1.5c0-.5-.2-.9-.7-.9c-1 0-1.6 1.2-1.9 2.4z" stroke="none" fill="#fff"/></g><g id="Polygon14563"><path d="m1.1 46.4c0 0 1.2-7.5 1.2-7.5c-.5 0-.8-.1-1.1-.2c-.02-.01.1-.5.1-.5l3.3 0c0 0-.09.49-.1.5c-.3.1-.6.2-1 .2c0 0-1.1 7.5-1.1 7.5c.4 0 .8.1 1.1.2c-.03.04-.1.5-.1.5l-3.4 0c0 0 .08-.46.1-.5c.3-.1.6-.2 1-.2zm3.8-1.2c.04-.02.8 0 .8 0c0 0 .01 1.41 0 1.4c.3.1.6.1.8.1c.8 0 1.4-.4 1.4-1.1c0-.7-.5-.9-1.2-1.3c0 0-.5-.3-.5-.3c-.6-.3-1-.8-1-1.5c0-1.2.9-2 2.3-2c.7 0 1.5.1 1.9.4c0 .6-.2 1.1-.4 1.7c-.03-.05-.8 0-.8 0c0 0-.01-1.49 0-1.5c-.3 0-.5-.1-.7-.1c-.8 0-1.3.4-1.3 1.2c0 .4.4.8.8 1c0 0 .5.3.5.3c.8.4 1.5.7 1.5 1.7c0 1.3-1 2.1-2.6 2.1c-.6 0-1.5-.2-1.9-.4c0-.7.2-1.2.4-1.7zm8-7.9c0 0-1.3 8.3-1.3 8.3c-.1.2-.1.4-.1.5c0 .3.1.4.6.4c-.01-.03.6 0 .6 0c0 0-.13.42-.1.4c-.3.2-.8.4-1.3.4c-.7 0-.9-.4-.9-1c0-.1 0-.4 0-.5c.02 0 1.2-7.5 1.2-7.5l-1.1-.2c0 0 .01-.42 0-.4c.6-.2 1.4-.4 2.4-.4zm4 3.2c.5 0 1 .2 1.3.6c.2-.3.5-.5.7-.6c.03-.02.4.1.4.1c0 0-.79 5.03-.8 5c0 .2-.1.4-.1.5c0 .3.2.4.6.4c.04-.03.6 0 .6 0c0 0-.09.42-.1.4c-.3.2-.7.4-1.3.4c-.6 0-.8-.4-.8-1c0-.1 0-.4 0-.5c0 0 .1-.3.1-.3c-.6 1.2-1.4 1.8-2.3 1.8c-1 0-1.5-.8-1.5-2.1c0-2.3 1.1-4.7 3.2-4.7zm.6 4.4c0 0 .6-3.5.6-3.5c-.3-.1-.6-.2-.9-.2c-1.5 0-2.4 2-2.4 3.9c0 .9.3 1.3.9 1.3c.7 0 1.2-.6 1.8-1.5zm5.5-4.4c0 0-.3 1.7-.3 1.7c.7-1.1 1.4-1.7 2.3-1.7c.9 0 1.3.5 1.3 1.1c0 .2 0 .4 0 .5c0 0-.7 3.5-.7 3.5c0 .2-.1.4-.1.5c0 .3.2.4.7.4c-.05-.03.5 0 .5 0c0 0-.07.42-.1.4c-.3.2-.7.4-1.3.4c-.6 0-.9-.4-.9-.9c0-.2 0-.5.1-.6c0 0 .6-3.4.6-3.4c0-.1 0-.3 0-.4c0-.4-.1-.6-.6-.6c-.5 0-1.1.4-1.9 1.5c-.03.03-.7 4.2-.7 4.2l-1.1 0l.9-5.7l-1-.1c0 0 .01-.48 0-.5c.6-.2 1.3-.3 2.3-.3zm10.9-3.2c0 0-1.3 8.3-1.3 8.3c0 .2 0 .4 0 .5c0 .3.1.4.5.4c.05-.03.6 0 .6 0c0 0-.07.42-.1.4c-.3.2-.7.4-1.3.4c-.6 0-.8-.4-.8-1c0-.1 0-.4 0-.5c0 0 .1-.3.1-.3c-.6 1.2-1.3 1.8-2.3 1.8c-1 0-1.5-.8-1.5-2.1c0-2.3 1.1-4.7 3.2-4.7c.5 0 1 .2 1.3.5c-.05.01.4-2.7.4-2.7l-1.2-.2c0 0 .07-.42.1-.4c.5-.2 1.4-.4 2.3-.4zm-2.3 7.6c0 0 .6-3.5.6-3.5c-.3-.1-.5-.2-.9-.2c-1.5 0-2.4 2-2.4 3.9c0 .9.3 1.3.9 1.3c.7 0 1.3-.6 1.8-1.5zm5.4 1.7c.3-.1.6-.2 1-.2c0 0 1.2-7.5 1.2-7.5c-.5 0-.8-.1-1.1-.2c-.02-.01.1-.5.1-.5c0 0 6.43-.02 6.4 0c0 .7 0 1.5-.3 2.3c-.01.03-.6 0-.6 0l-.1-1.6l-3.2 0l-.5 3.4c0 0 1.9.03 1.9 0c.1-.3.2-.7.4-1c0 0 .6 0 .6 0c0 1-.2 2.1-.4 3c0 0-.6 0-.6 0c-.1-.4-.1-.9-.1-1.3c.02 0-1.9 0-1.9 0l-.6 3.5l3.2 0l.9-1.7c0 0 .66-.01.7 0c0 .6-.3 1.7-.6 2.3c0 .04-6.5 0-6.5 0l.1-.5c0 0-.01.04 0 0zm10.2-6.1c-.05-.02.8 2.6.8 2.6c0 0 1.45-2.4 1.4-2.4c.6-.1.9-.1 1.4-.1c0 0-.1.5-.1.5c-.1.1-.4.2-.6.3c-.04-.02-1.9 2.4-1.9 2.4c0 0 .74 2 .7 2c.2.6.3.7.8.7c.03-.03.5 0 .5 0c0 0-.03.42 0 .4c-.3.2-.6.4-1.1.4c-.5 0-.9-.3-1.2-1.1c.03.05-.5-1.6-.5-1.6l-1.5 2.5l-1.4 0c0 0 .1-.46.1-.5c.2 0 .5-.2.8-.2c-.04-.03 1.8-2.4 1.8-2.4l-.9-2.6l-1-.1c0 0 .05-.48 0-.5c.5-.2 1.2-.3 1.9-.3zm6.3 0c0 0-.2 1.6-.2 1.6c.6-1.1 1.3-1.6 2.2-1.6c.9 0 1.5.8 1.5 2.1c0 2.2-1.1 4.7-3.2 4.7c-.6 0-1-.2-1.3-.6c0 0-.4 2.4-.4 2.4c.5 0 1 .1 1.3.2c.02.03-.1.5-.1.5l-3.3 0c0 0 .09-.47.1-.5c.3-.1.5-.2.9-.2c.02 0 1.3-7.7 1.3-7.7l-1.1-.1c0 0 .08-.48.1-.5c.6-.2 1.3-.3 2.2-.3zm-.4 2.4c0 0-.5 3.5-.5 3.5c.2.1.5.2.9.2c1.5 0 2.3-2.1 2.3-4c0-.8-.2-1.2-.9-1.2c-.6 0-1.2.6-1.8 1.5zm7.5-5.6c0 0-1.3 8.3-1.3 8.3c0 .2 0 .4 0 .5c0 .3.1.4.6.4c-.04-.03.5 0 .5 0c0 0-.06.42-.1.4c-.3.2-.7.4-1.3.4c-.6 0-.9-.4-.9-1c0-.1.1-.4.1-.5c-.02 0 1.2-7.5 1.2-7.5l-1.2-.2c0 0 .08-.42.1-.4c.6-.2 1.4-.4 2.3-.4zm4.1 3.2c1.7 0 2.3 1.1 2.3 2.4c0 2.1-1.1 4.4-3.3 4.4c-1.8 0-2.3-1.1-2.3-2.4c0-2.1 1-4.4 3.3-4.4zm-1 6.3c1.4 0 2.1-2.2 2.1-4c0-1-.3-1.8-1.2-1.8c-1.3 0-2.1 2.2-2.1 4c0 1 .4 1.8 1.2 1.8zm6.7-6.3c0 0-.3 1.8-.3 1.8c.6-1.2 1.2-1.8 2-1.8c.4 0 .6.1.7.3c0 .6-.2 1.2-.4 1.8c.01-.05-.7 0-.7 0l-.1-1.2c0 0 .02-.03 0 0c-.4 0-1 .6-1.6 1.8c-.04.01-.7 3.9-.7 3.9l-1.1 0l.9-5.7l-1-.1c0 0 .04-.48 0-.5c.6-.2 1.3-.3 2.3-.3zm6 0c1.2 0 1.7.6 1.7 1.4c0 1.3-1 2-3.2 2c0 0-.6 0-.6 0c-.1.4-.1.8-.1 1.1c0 1 .5 1.4 1.1 1.4c.8 0 1.4-.4 2-1.4c0 0 .4.1.4.1c-.6 1.5-1.5 2.2-2.7 2.2c-1.4 0-2-.8-2-2.3c0-2.1 1-4.5 3.4-4.5zm-2 2.9c0 0 .4 0 .4 0c1.5 0 2.1-.5 2.1-1.5c0-.5-.2-.9-.7-.9c-.9 0-1.6 1.2-1.8 2.4zm6.9-2.9c0 0-.3 1.8-.3 1.8c.6-1.2 1.2-1.8 2-1.8c.4 0 .6.1.7.3c0 .6-.1 1.2-.4 1.8c.03-.05-.7 0-.7 0l0-1.2c0 0-.06-.03-.1 0c-.4 0-.9.6-1.6 1.8c-.02.01-.7 3.9-.7 3.9l-1.1 0l1-5.7l-1.1-.1c0 0 .06-.48.1-.5c.5-.2 1.3-.3 2.2-.3z" stroke="none" fill="#fff"/></g></svg>