<?xml version="1.0" standalone="no"?><!DOCTYPE svg PUBLIC "-//W3C//DTD SVG 1.1//EN" "http://www.w3.org/Graphics/SVG/1.1/DTD/svg11.dtd"><svg xmlns="http://www.w3.org/2000/svg" version="1.1" width="317.3px" height="338.3px" viewBox="0 0 317.3 338.3">  <desc>sda fasfsa dfasdf</desc>  <defs/>  <g id="Polygon10758">    <path d="M 0.9 19.1 C 0.9 18.3 1.1 17.3 1.3 16.5 C 1.26 16.51 3.5 16.5 3.5 16.5 C 3.5 16.5 3.95 18.81 3.9 18.8 C 4.3 18.9 4.8 18.9 5.2 18.9 C 6.3 18.9 7.1 18.4 7.1 17.5 C 7.1 16.6 6.3 16.2 5.1 15.9 C 5.1 15.9 3.8 15.5 3.8 15.5 C 2.1 14.9 0.9 13.9 0.9 11.7 C 0.9 8.9 3.5 7.8 6.6 7.8 C 7.9 7.8 9.6 8 10.5 8.4 C 10.6 8.8 10.6 9.2 10.6 9.5 C 10.6 10.3 10.5 11.2 10.3 12.1 C 10.29 12.07 8 12.1 8 12.1 C 8 12.1 7.61 9.8 7.6 9.8 C 7.3 9.7 6.9 9.7 6.6 9.7 C 5.6 9.7 4.7 10.1 4.7 11 C 4.7 12 5.4 12.3 6.4 12.6 C 6.4 12.6 7.8 13 7.8 13 C 9.8 13.6 11.1 14.5 11.1 16.6 C 11.1 19.4 9.1 20.8 5.2 20.8 C 3.8 20.8 2 20.6 1.1 20.2 C 1 19.8 0.9 19.4 0.9 19.1 Z M 18.6 7.7 C 19.7 7.7 20.6 8.1 21.1 8.7 C 21.13 8.69 21.1 4.9 21.1 4.9 L 19.5 4.6 C 19.5 4.6 19.53 3.07 19.5 3.1 C 21 2.7 23.3 2.5 25.5 2.5 C 25.46 2.48 25.5 18.4 25.5 18.4 L 26.8 18.7 C 26.8 18.7 26.75 20.15 26.8 20.1 C 25.3 20.5 23.4 20.7 21.2 20.7 C 21.2 20.7 21.2 18.7 21.2 18.7 C 20.5 20.1 19.2 20.8 17.7 20.8 C 14.6 20.8 12.7 18.5 12.7 14.6 C 12.7 10.3 15.1 7.7 18.6 7.7 Z M 21.1 17.3 C 21.1 17.3 21.1 10.3 21.1 10.3 C 20.8 10.2 20.5 10.2 20.2 10.2 C 18.2 10.2 17.2 11.9 17.2 14.2 C 17.2 17 18.2 18.1 19.6 18.1 C 20.2 18.1 20.7 17.8 21.1 17.3 Z M 34.8 13.3 C 34.8 13.3 34.8 11.7 34.8 11.7 C 34.8 10.5 34.3 9.9 33 9.9 C 32.6 9.9 32.2 9.9 31.8 10 C 31.81 10.01 31.4 12.2 31.4 12.2 C 31.4 12.2 28.95 12.18 28.9 12.2 C 28.7 11.5 28.6 10.8 28.6 10.2 C 28.6 9.8 28.7 9.3 28.8 9 C 30.3 8.2 32.4 7.8 34.3 7.8 C 37.4 7.8 39.1 9 39.1 11.5 C 39.1 13.5 39 16.1 39 18.4 C 39.03 18.4 40.3 18.7 40.3 18.7 C 40.3 18.7 40.32 20.15 40.3 20.1 C 38.9 20.5 37.1 20.7 34.9 20.7 C 34.9 20.7 34.9 18.9 34.9 18.9 C 34.3 20.1 33 20.8 31.5 20.8 C 29.3 20.8 27.8 19.7 27.8 17.3 C 27.8 14.1 31 13.5 34.8 13.3 Z M 34.8 17.9 C 34.8 17.9 34.8 14.8 34.8 14.8 C 33 15 31.9 15.5 31.9 16.8 C 31.9 17.9 32.6 18.4 33.5 18.4 C 34 18.4 34.4 18.2 34.8 17.9 Z M 47.6 8.2 C 47.6 8.2 47.6 7.3 47.6 7.3 C 47.6 4.1 49.9 2.5 53.3 2.5 C 54.5 2.5 56.1 2.7 56.8 3.1 C 56.9 4.3 56.7 5.5 56.5 6.4 C 56.48 6.37 54.3 6.4 54.3 6.4 C 54.3 6.4 53.84 4.28 53.8 4.3 C 53.7 4.3 53.6 4.3 53.5 4.3 C 52.4 4.3 51.9 5 51.9 6.4 C 51.93 6.4 51.9 8.1 51.9 8.1 L 54.3 8.1 L 54.3 10.1 L 51.9 10.1 C 51.9 10.1 51.93 18.76 51.9 18.8 C 52.7 18.8 53.3 19 53.7 19.1 C 53.72 19.09 53.7 20.5 53.7 20.5 L 46.3 20.5 C 46.3 20.5 46.28 19.09 46.3 19.1 C 46.6 19 47 18.8 47.6 18.8 C 47.6 18.76 47.6 10.1 47.6 10.1 L 46.3 10.1 C 46.3 10.1 46.31 8.59 46.3 8.6 C 46.5 8.5 47 8.3 47.6 8.2 Z M 61.9 13.3 C 61.9 13.3 61.9 11.7 61.9 11.7 C 61.9 10.5 61.4 9.9 60.1 9.9 C 59.8 9.9 59.4 9.9 59 10 C 58.95 10.01 58.6 12.2 58.6 12.2 C 58.6 12.2 56.09 12.18 56.1 12.2 C 55.9 11.5 55.8 10.8 55.8 10.2 C 55.8 9.8 55.8 9.3 55.9 9 C 57.5 8.2 59.5 7.8 61.4 7.8 C 64.6 7.8 66.3 9 66.3 11.5 C 66.3 13.5 66.2 16.1 66.2 18.4 C 66.18 18.4 67.5 18.7 67.5 18.7 C 67.5 18.7 67.47 20.15 67.5 20.1 C 66 20.5 64.2 20.7 62 20.7 C 62 20.7 62 18.9 62 18.9 C 61.4 20.1 60.1 20.8 58.6 20.8 C 56.5 20.8 55 19.7 55 17.3 C 55 14.1 58.2 13.5 61.9 13.3 Z M 61.9 17.9 C 61.9 17.9 61.9 14.8 61.9 14.8 C 60.1 15 59.1 15.5 59.1 16.8 C 59.1 17.9 59.8 18.4 60.6 18.4 C 61.1 18.4 61.6 18.2 61.9 17.9 Z M 69 19.1 C 69 18.3 69.1 17.3 69.3 16.5 C 69.32 16.51 71.6 16.5 71.6 16.5 C 71.6 16.5 72.01 18.81 72 18.8 C 72.4 18.9 72.8 18.9 73.3 18.9 C 74.4 18.9 75.1 18.4 75.1 17.5 C 75.1 16.6 74.4 16.2 73.2 15.9 C 73.2 15.9 71.8 15.5 71.8 15.5 C 70.1 14.9 69 13.9 69 11.7 C 69 8.9 71.6 7.8 74.6 7.8 C 76 7.8 77.6 8 78.6 8.4 C 78.7 8.8 78.7 9.2 78.7 9.5 C 78.7 10.3 78.6 11.2 78.4 12.1 C 78.35 12.07 76.1 12.1 76.1 12.1 C 76.1 12.1 75.67 9.8 75.7 9.8 C 75.4 9.7 75 9.7 74.6 9.7 C 73.7 9.7 72.8 10.1 72.8 11 C 72.8 12 73.5 12.3 74.5 12.6 C 74.5 12.6 75.9 13 75.9 13 C 77.8 13.6 79.2 14.5 79.2 16.6 C 79.2 19.4 77.1 20.8 73.3 20.8 C 71.8 20.8 70.1 20.6 69.1 20.2 C 69 19.8 69 19.4 69 19.1 Z M 81.7 8.2 C 81.7 8.2 81.7 7.3 81.7 7.3 C 81.7 4.1 84 2.5 87.4 2.5 C 88.7 2.5 90.2 2.7 91 3.1 C 91 4.3 90.8 5.5 90.6 6.4 C 90.61 6.37 88.4 6.4 88.4 6.4 C 88.4 6.4 87.98 4.28 88 4.3 C 87.8 4.3 87.7 4.3 87.6 4.3 C 86.5 4.3 86.1 5 86.1 6.4 C 86.07 6.4 86.1 8.1 86.1 8.1 L 88.5 8.1 L 88.5 10.1 L 86.1 10.1 C 86.1 10.1 86.07 18.76 86.1 18.8 C 86.8 18.8 87.5 19 87.8 19.1 C 87.85 19.09 87.8 20.5 87.8 20.5 L 80.4 20.5 C 80.4 20.5 80.42 19.09 80.4 19.1 C 80.7 19 81.2 18.8 81.7 18.8 C 81.73 18.76 81.7 10.1 81.7 10.1 L 80.4 10.1 C 80.4 10.1 80.44 8.59 80.4 8.6 C 80.7 8.5 81.1 8.3 81.7 8.2 Z M 89.6 19.1 C 89.6 18.3 89.8 17.3 90 16.5 C 89.96 16.51 92.2 16.5 92.2 16.5 C 92.2 16.5 92.65 18.81 92.6 18.8 C 93 18.9 93.5 18.9 93.9 18.9 C 95 18.9 95.8 18.4 95.8 17.5 C 95.8 16.6 95 16.2 93.8 15.9 C 93.8 15.9 92.5 15.5 92.5 15.5 C 90.8 14.9 89.6 13.9 89.6 11.7 C 89.6 8.9 92.2 7.8 95.3 7.8 C 96.6 7.8 98.3 8 99.2 8.4 C 99.3 8.8 99.3 9.2 99.3 9.5 C 99.3 10.3 99.2 11.2 99 12.1 C 98.99 12.07 96.8 12.1 96.8 12.1 C 96.8 12.1 96.31 9.8 96.3 9.8 C 96 9.7 95.6 9.7 95.3 9.7 C 94.3 9.7 93.4 10.1 93.4 11 C 93.4 12 94.1 12.3 95.2 12.6 C 95.2 12.6 96.5 13 96.5 13 C 98.5 13.6 99.8 14.5 99.8 16.6 C 99.8 19.4 97.8 20.8 93.9 20.8 C 92.5 20.8 90.7 20.6 89.8 20.2 C 89.7 19.8 89.6 19.4 89.6 19.1 Z M 108.2 13.3 C 108.2 13.3 108.2 11.7 108.2 11.7 C 108.2 10.5 107.7 9.9 106.4 9.9 C 106 9.9 105.6 9.9 105.2 10 C 105.21 10.01 104.8 12.2 104.8 12.2 C 104.8 12.2 102.35 12.18 102.3 12.2 C 102.1 11.5 102 10.8 102 10.2 C 102 9.8 102.1 9.3 102.2 9 C 103.7 8.2 105.8 7.8 107.7 7.8 C 110.8 7.8 112.5 9 112.5 11.5 C 112.5 13.5 112.4 16.1 112.4 18.4 C 112.44 18.4 113.7 18.7 113.7 18.7 C 113.7 18.7 113.73 20.15 113.7 20.1 C 112.3 20.5 110.5 20.7 108.3 20.7 C 108.3 20.7 108.3 18.9 108.3 18.9 C 107.7 20.1 106.4 20.8 104.9 20.8 C 102.7 20.8 101.2 19.7 101.2 17.3 C 101.2 14.1 104.4 13.5 108.2 13.3 Z M 108.2 17.9 C 108.2 17.9 108.2 14.8 108.2 14.8 C 106.4 15 105.3 15.5 105.3 16.8 C 105.3 17.9 106 18.4 106.9 18.4 C 107.4 18.4 107.8 18.2 108.2 17.9 Z M 130.5 7.7 C 131.6 7.7 132.4 8.1 133 8.7 C 133 8.69 133 4.9 133 4.9 L 131.4 4.6 C 131.4 4.6 131.4 3.07 131.4 3.1 C 132.9 2.7 135.1 2.5 137.3 2.5 C 137.33 2.48 137.3 18.4 137.3 18.4 L 138.6 18.7 C 138.6 18.7 138.62 20.15 138.6 20.1 C 137.2 20.5 135.3 20.7 133.1 20.7 C 133.1 20.7 133.1 18.7 133.1 18.7 C 132.4 20.1 131.1 20.8 129.5 20.8 C 126.5 20.8 124.5 18.5 124.5 14.6 C 124.5 10.3 126.9 7.7 130.5 7.7 Z M 133 17.3 C 133 17.3 133 10.3 133 10.3 C 132.7 10.2 132.4 10.2 132 10.2 C 130.1 10.2 129.1 11.9 129.1 14.2 C 129.1 17 130.1 18.1 131.5 18.1 C 132 18.1 132.6 17.8 133 17.3 Z M 141.1 8.2 C 141.1 8.2 141.1 7.3 141.1 7.3 C 141.1 4.1 143.3 2.5 146.7 2.5 C 148 2.5 149.5 2.7 150.3 3.1 C 150.3 4.3 150.2 5.5 149.9 6.4 C 149.95 6.37 147.8 6.4 147.8 6.4 C 147.8 6.4 147.32 4.28 147.3 4.3 C 147.2 4.3 147 4.3 146.9 4.3 C 145.9 4.3 145.4 5 145.4 6.4 C 145.41 6.4 145.4 8.1 145.4 8.1 L 147.8 8.1 L 147.8 10.1 L 145.4 10.1 C 145.4 10.1 145.41 18.76 145.4 18.8 C 146.2 18.8 146.8 19 147.2 19.1 C 147.19 19.09 147.2 20.5 147.2 20.5 L 139.8 20.5 C 139.8 20.5 139.76 19.09 139.8 19.1 C 140 19 140.5 18.8 141.1 18.8 C 141.07 18.76 141.1 10.1 141.1 10.1 L 139.8 10.1 C 139.8 10.1 139.78 8.59 139.8 8.6 C 140 8.5 140.4 8.3 141.1 8.2 Z M 155.4 13.3 C 155.4 13.3 155.4 11.7 155.4 11.7 C 155.4 10.5 154.9 9.9 153.6 9.9 C 153.2 9.9 152.8 9.9 152.4 10 C 152.43 10.01 152 12.2 152 12.2 C 152 12.2 149.56 12.18 149.6 12.2 C 149.4 11.5 149.3 10.8 149.3 10.2 C 149.3 9.8 149.3 9.3 149.4 9 C 151 8.2 153 7.8 154.9 7.8 C 158.1 7.8 159.8 9 159.8 11.5 C 159.8 13.5 159.6 16.1 159.6 18.4 C 159.65 18.4 160.9 18.7 160.9 18.7 C 160.9 18.7 160.94 20.15 160.9 20.1 C 159.5 20.5 157.7 20.7 155.5 20.7 C 155.5 20.7 155.5 18.9 155.5 18.9 C 154.9 20.1 153.6 20.8 152.1 20.8 C 149.9 20.8 148.5 19.7 148.5 17.3 C 148.5 14.1 151.6 13.5 155.4 13.3 Z M 155.4 17.9 C 155.4 17.9 155.4 14.8 155.4 14.8 C 153.6 15 152.6 15.5 152.6 16.8 C 152.6 17.9 153.2 18.4 154.1 18.4 C 154.6 18.4 155.1 18.2 155.4 17.9 Z M 162.5 19.1 C 162.5 18.3 162.6 17.3 162.8 16.5 C 162.8 16.51 165.1 16.5 165.1 16.5 C 165.1 16.5 165.48 18.81 165.5 18.8 C 165.9 18.9 166.3 18.9 166.7 18.9 C 167.8 18.9 168.6 18.4 168.6 17.5 C 168.6 16.6 167.9 16.2 166.7 15.9 C 166.7 15.9 165.3 15.5 165.3 15.5 C 163.6 14.9 162.4 13.9 162.4 11.7 C 162.4 8.9 165.1 7.8 168.1 7.8 C 169.5 7.8 171.1 8 172.1 8.4 C 172.2 8.8 172.2 9.2 172.2 9.5 C 172.2 10.3 172.1 11.2 171.8 12.1 C 171.83 12.07 169.6 12.1 169.6 12.1 C 169.6 12.1 169.14 9.8 169.1 9.8 C 168.8 9.7 168.5 9.7 168.1 9.7 C 167.2 9.7 166.2 10.1 166.2 11 C 166.2 12 167 12.3 168 12.6 C 168 12.6 169.4 13 169.4 13 C 171.3 13.6 172.7 14.5 172.7 16.6 C 172.7 19.4 170.6 20.8 166.7 20.8 C 165.3 20.8 163.5 20.6 162.6 20.2 C 162.5 19.8 162.5 19.4 162.5 19.1 Z M 180.1 7.7 C 181.2 7.7 182.1 8.1 182.7 8.7 C 182.66 8.69 182.7 4.9 182.7 4.9 L 181.1 4.6 C 181.1 4.6 181.06 3.07 181.1 3.1 C 182.5 2.7 184.8 2.5 187 2.5 C 187 2.48 187 18.4 187 18.4 L 188.3 18.7 C 188.3 18.7 188.29 20.15 188.3 20.1 C 186.8 20.5 184.9 20.7 182.7 20.7 C 182.7 20.7 182.7 18.7 182.7 18.7 C 182.1 20.1 180.8 20.8 179.2 20.8 C 176.2 20.8 174.2 18.5 174.2 14.6 C 174.2 10.3 176.6 7.7 180.1 7.7 Z M 182.7 17.3 C 182.7 17.3 182.7 10.3 182.7 10.3 C 182.4 10.2 182 10.2 181.7 10.2 C 179.7 10.2 178.7 11.9 178.7 14.2 C 178.7 17 179.7 18.1 181.1 18.1 C 181.7 18.1 182.2 17.8 182.7 17.3 Z M 190.7 8.2 C 190.7 8.2 190.7 7.3 190.7 7.3 C 190.7 4.1 193 2.5 196.4 2.5 C 197.7 2.5 199.2 2.7 200 3.1 C 200 4.3 199.8 5.5 199.6 6.4 C 199.61 6.37 197.4 6.4 197.4 6.4 C 197.4 6.4 196.98 4.28 197 4.3 C 196.8 4.3 196.7 4.3 196.6 4.3 C 195.5 4.3 195.1 5 195.1 6.4 C 195.07 6.4 195.1 8.1 195.1 8.1 L 197.5 8.1 L 197.5 10.1 L 195.1 10.1 C 195.1 10.1 195.07 18.76 195.1 18.8 C 195.8 18.8 196.5 19 196.9 19.1 C 196.85 19.09 196.9 20.5 196.9 20.5 L 189.4 20.5 C 189.4 20.5 189.42 19.09 189.4 19.1 C 189.7 19 190.2 18.8 190.7 18.8 C 190.74 18.76 190.7 10.1 190.7 10.1 L 189.4 10.1 C 189.4 10.1 189.45 8.59 189.4 8.6 C 189.7 8.5 190.1 8.3 190.7 8.2 Z " stroke="none" fill="#404040"/>  </g></svg>