<?xml version="1.0" standalone="no"?><!DOCTYPE svg PUBLIC "-//W3C//DTD SVG 1.1//EN" "http://www.w3.org/Graphics/SVG/1.1/DTD/svg11.dtd"><svg xmlns="http://www.w3.org/2000/svg" version="1.1" width="428px" height="84.5px" viewBox="0 0 428 84.5">  <desc>Santa Barbara Island 639 acres</desc>  <defs/>  <g id="Polygon12133">    <path d="M 8.3 54.6 C 8 54.6 7.7 54.6 7.2 54.7 C 4.8 54.9 3.7 56.1 3.4 57.5 C 3.4 57.5 3.4 57.5 3.4 57.5 C 4 56.9 4.9 56.6 5.9 56.6 C 7.9 56.6 9.6 58 9.6 60.4 C 9.6 62.8 7.8 64.7 5.3 64.7 C 2.1 64.7 0.5 62.4 0.5 59.5 C 0.5 57.3 1.4 55.5 2.7 54.3 C 3.8 53.2 5.4 52.6 7.2 52.5 C 7.7 52.5 8.1 52.5 8.3 52.5 C 8.3 52.5 8.3 54.6 8.3 54.6 Z M 6.8 60.6 C 6.8 59.5 6.2 58.5 5 58.5 C 4.3 58.5 3.7 59 3.4 59.6 C 3.3 59.7 3.3 60 3.3 60.3 C 3.3 61.5 3.9 62.7 5.2 62.7 C 6.2 62.7 6.8 61.8 6.8 60.6 Z M 11.3 61.8 C 11.8 62.1 13 62.5 14.1 62.5 C 15.5 62.5 16.2 61.8 16.2 61 C 16.2 59.8 15.1 59.2 13.9 59.2 C 13.87 59.25 12.7 59.2 12.7 59.2 L 12.7 57.3 C 12.7 57.3 13.83 57.26 13.8 57.3 C 14.8 57.3 15.9 56.9 15.9 55.9 C 15.9 55.2 15.4 54.7 14.2 54.7 C 13.2 54.7 12.2 55.1 11.7 55.4 C 11.7 55.4 11.2 53.4 11.2 53.4 C 11.9 52.9 13.3 52.5 14.8 52.5 C 17.3 52.5 18.7 53.8 18.7 55.4 C 18.7 56.7 18 57.7 16.6 58.2 C 16.6 58.2 16.6 58.2 16.6 58.2 C 18 58.5 19.1 59.5 19.1 61.1 C 19.1 63.2 17.3 64.7 14.3 64.7 C 12.8 64.7 11.5 64.3 10.8 63.9 C 10.8 63.9 11.3 61.8 11.3 61.8 Z M 21.8 62.5 C 22.2 62.6 22.4 62.5 23 62.5 C 23.8 62.5 24.7 62.2 25.3 61.8 C 26.1 61.3 26.6 60.5 26.8 59.6 C 26.8 59.6 26.8 59.6 26.8 59.6 C 26.2 60.1 25.5 60.4 24.4 60.4 C 22.4 60.4 20.7 59 20.7 56.7 C 20.7 54.4 22.6 52.5 25.2 52.5 C 28.2 52.5 29.6 54.8 29.6 57.6 C 29.6 60 28.9 61.8 27.6 63 C 26.4 64 24.9 64.6 23 64.7 C 22.6 64.7 22.1 64.7 21.8 64.7 C 21.8 64.7 21.8 62.5 21.8 62.5 Z M 23.5 56.6 C 23.5 57.6 24 58.5 25.1 58.5 C 25.9 58.5 26.4 58.1 26.7 57.7 C 26.8 57.5 26.8 57.3 26.8 57 C 26.8 55.7 26.4 54.5 25.1 54.5 C 24.1 54.5 23.5 55.3 23.5 56.6 Z M 42.4 62.4 C 42.4 63.2 42.5 64 42.6 64.5 C 42.58 64.5 40.1 64.5 40.1 64.5 L 39.9 63.6 C 39.9 63.6 39.87 63.61 39.9 63.6 C 39.3 64.3 38.4 64.7 37.3 64.7 C 35.5 64.7 34.5 63.4 34.5 62 C 34.5 59.7 36.5 58.6 39.7 58.6 C 39.7 58.6 39.7 58.5 39.7 58.5 C 39.7 58 39.4 57.3 38.1 57.3 C 37.1 57.3 36.2 57.6 35.6 58 C 35.6 58 35.1 56.2 35.1 56.2 C 35.7 55.8 36.9 55.4 38.5 55.4 C 41.5 55.4 42.4 57.1 42.4 59.2 C 42.4 59.2 42.4 62.4 42.4 62.4 Z M 39.8 60.3 C 38.3 60.3 37.2 60.6 37.2 61.7 C 37.2 62.4 37.7 62.8 38.3 62.8 C 38.9 62.8 39.5 62.3 39.7 61.7 C 39.7 61.6 39.8 61.4 39.8 61.3 C 39.8 61.3 39.8 60.3 39.8 60.3 Z M 51.3 64.3 C 50.8 64.5 49.9 64.7 48.8 64.7 C 46 64.7 44.1 62.9 44.1 60.1 C 44.1 57.5 45.9 55.4 49.2 55.4 C 49.9 55.4 50.7 55.5 51.3 55.8 C 51.3 55.8 50.9 57.8 50.9 57.8 C 50.6 57.7 50.1 57.5 49.3 57.5 C 47.9 57.5 46.9 58.6 47 60 C 47 61.6 48.1 62.5 49.4 62.5 C 50.1 62.5 50.6 62.4 51 62.2 C 51 62.2 51.3 64.3 51.3 64.3 Z M 52.8 58.5 C 52.8 57.2 52.8 56.4 52.8 55.6 C 52.76 55.61 55.1 55.6 55.1 55.6 L 55.2 57.2 C 55.2 57.2 55.3 57.25 55.3 57.2 C 55.8 55.9 56.8 55.4 57.7 55.4 C 58 55.4 58.1 55.4 58.3 55.4 C 58.3 55.4 58.3 58 58.3 58 C 58.1 58 57.8 58 57.5 58 C 56.5 58 55.8 58.5 55.6 59.4 C 55.6 59.6 55.6 59.8 55.6 60 C 55.59 59.99 55.6 64.5 55.6 64.5 L 52.8 64.5 C 52.8 64.5 52.83 58.54 52.8 58.5 Z M 61.7 60.9 C 61.8 62.1 62.9 62.6 64.2 62.6 C 65.2 62.6 65.9 62.5 66.7 62.2 C 66.7 62.2 67 64.1 67 64.1 C 66.1 64.5 65 64.7 63.8 64.7 C 60.8 64.7 59.1 62.9 59.1 60.2 C 59.1 57.9 60.5 55.4 63.6 55.4 C 66.4 55.4 67.5 57.6 67.5 59.8 C 67.5 60.3 67.5 60.7 67.4 60.9 C 67.4 60.9 61.7 60.9 61.7 60.9 Z M 65 59 C 65 58.4 64.7 57.2 63.4 57.2 C 62.2 57.2 61.8 58.3 61.7 59 C 61.7 59 65 59 65 59 Z M 69.2 62.1 C 69.7 62.4 70.7 62.8 71.6 62.8 C 72.4 62.8 72.7 62.5 72.7 62 C 72.7 61.6 72.5 61.3 71.4 61 C 69.6 60.4 68.9 59.4 68.9 58.3 C 68.9 56.6 70.3 55.4 72.5 55.4 C 73.5 55.4 74.5 55.6 75 55.9 C 75 55.9 74.5 57.8 74.5 57.8 C 74.1 57.6 73.3 57.3 72.6 57.3 C 71.9 57.3 71.6 57.6 71.6 58 C 71.6 58.5 71.9 58.7 73 59.1 C 74.7 59.6 75.4 60.5 75.4 61.8 C 75.4 63.5 74.1 64.7 71.6 64.7 C 70.4 64.7 69.4 64.4 68.7 64.1 C 68.7 64.1 69.2 62.1 69.2 62.1 Z " stroke="none" fill="#000"/>  </g>  <g id="Polygon12132">    <path d="M 1 18.3 C 1.03 18.29 3.7 17.9 3.7 17.9 C 3.7 17.9 5.06 21.9 5.1 21.9 C 5.7 22.1 6.3 22.1 6.9 22.1 C 8.9 22.1 10.1 21.2 10.1 19.4 C 10.1 17.7 9.1 17.3 7.6 16.8 C 7.6 16.8 5.6 16.1 5.6 16.1 C 2.8 15.1 1 13.4 1 10.3 C 1 6.2 4.8 4.4 9 4.4 C 11.3 4.4 13.5 4.8 14.6 5.3 C 14.7 5.8 14.8 6.5 14.8 7.1 C 14.8 8.1 14.7 9.4 14.4 10.4 C 14.45 10.36 11.9 10.4 11.9 10.4 C 11.9 10.4 11.09 6.94 11.1 6.9 C 10.5 6.8 9.8 6.7 9.2 6.7 C 7.4 6.7 5.9 7.5 5.9 9.2 C 5.9 10.6 6.5 11.3 8.1 11.8 C 8.1 11.8 10.5 12.5 10.5 12.5 C 13.8 13.6 15.4 15.1 15.4 18.1 C 15.4 22.6 11.1 24.5 7 24.5 C 4.7 24.5 2.7 23.9 1.5 23.2 C 1.1 22 1 19.7 1 18.3 Z M 25.4 15.6 C 25.4 15.6 25.4 13.7 25.4 13.7 C 25.4 12.3 24.8 11.6 23.3 11.6 C 22.8 11.6 22.4 11.7 21.9 11.8 C 21.9 11.75 21.4 14.3 21.4 14.3 C 21.4 14.3 18.54 14.3 18.5 14.3 C 18.3 13.5 18.2 12.7 18.2 11.9 C 18.2 11.5 18.2 10.9 18.3 10.6 C 20.2 9.6 22.6 9.1 24.8 9.1 C 28.5 9.1 30.5 10.5 30.5 13.5 C 30.5 15.9 30.4 18.9 30.4 21.6 C 30.38 21.6 31.9 22 31.9 22 C 31.9 22 31.89 23.66 31.9 23.7 C 30.2 24.1 28.1 24.4 25.5 24.4 C 25.5 24.4 25.5 22.2 25.5 22.2 C 24.8 23.6 23.3 24.4 21.5 24.4 C 19 24.4 17.2 23.1 17.2 20.4 C 17.2 16.5 21 15.8 25.4 15.6 Z M 25.4 21 C 25.4 21 25.4 17.4 25.4 17.4 C 23.3 17.6 22.1 18.2 22.1 19.8 C 22.1 21 22.8 21.6 23.9 21.6 C 24.5 21.6 25 21.4 25.4 21 Z M 34.8 22 C 34.83 22.02 34.8 12.2 34.8 12.2 L 33.3 11.8 C 33.3 11.8 33.32 10.03 33.3 10 C 35 9.6 37.4 9.2 39.9 9.2 C 39.9 9.2 39.9 11.6 39.9 11.6 C 41 9.9 42.9 9.1 44.9 9.1 C 47.9 9.1 49.6 10.9 49.6 13.6 C 49.6 13.6 49.6 22 49.6 22 C 50.2 22.1 50.8 22.3 51.1 22.4 C 51.1 22.41 51.1 24.1 51.1 24.1 L 42.9 24.1 C 42.9 24.1 42.92 22.41 42.9 22.4 C 43.3 22.3 43.8 22.1 44.5 22 C 44.5 22 44.5 14.7 44.5 14.7 C 44.5 13.4 43.8 12.7 42.6 12.7 C 41.6 12.7 40.7 13 39.9 13.8 C 39.9 13.8 39.9 22 39.9 22 C 40.6 22.1 41.2 22.3 41.5 22.4 C 41.5 22.41 41.5 24.1 41.5 24.1 L 33.3 24.1 C 33.3 24.1 33.29 22.41 33.3 22.4 C 33.6 22.3 34.2 22.1 34.8 22 Z M 54 9.6 C 54 9.6 54.2 7 54.2 7 C 55.4 6.7 57.3 6.6 59 6.6 C 59 6.6 58.9 9.5 58.9 9.5 L 62.2 9.5 L 62.2 11.9 L 58.9 11.9 C 58.9 11.9 58.79 19.29 58.8 19.3 C 58.8 20.7 59.2 21.2 60.2 21.2 C 61 21.2 61.5 20.8 62 20.3 C 62 20.3 62.9 21.6 62.9 21.6 C 62.1 23 60.4 24.4 57.9 24.4 C 55.2 24.4 53.7 22.9 53.7 20.3 C 53.7 20.29 53.8 11.9 53.8 11.9 L 52.3 11.9 C 52.3 11.9 52.28 10.09 52.3 10.1 C 52.6 9.9 53.1 9.8 54 9.6 Z M 72.1 15.6 C 72.1 15.6 72.1 13.7 72.1 13.7 C 72.1 12.3 71.5 11.6 70 11.6 C 69.6 11.6 69.1 11.7 68.6 11.8 C 68.64 11.75 68.2 14.3 68.2 14.3 C 68.2 14.3 65.27 14.3 65.3 14.3 C 65 13.5 64.9 12.7 64.9 11.9 C 64.9 11.5 65 10.9 65.1 10.6 C 66.9 9.6 69.3 9.1 71.5 9.1 C 75.2 9.1 77.2 10.5 77.2 13.5 C 77.2 15.9 77.1 18.9 77.1 21.6 C 77.12 21.6 78.6 22 78.6 22 C 78.6 22 78.63 23.66 78.6 23.7 C 76.9 24.1 74.8 24.4 72.2 24.4 C 72.2 24.4 72.2 22.2 72.2 22.2 C 71.5 23.6 70 24.4 68.2 24.4 C 65.7 24.4 64 23.1 64 20.4 C 64 16.5 67.7 15.8 72.1 15.6 Z M 72.1 21 C 72.1 21 72.1 17.4 72.1 17.4 C 70 17.6 68.8 18.2 68.8 19.8 C 68.8 21 69.6 21.6 70.6 21.6 C 71.2 21.6 71.7 21.4 72.1 21 Z M 87.3 21.9 C 87.3 21.9 87.3 6.9 87.3 6.9 C 86.5 6.9 86 6.7 85.5 6.5 C 85.54 6.54 85.5 4.7 85.5 4.7 C 85.5 4.7 96.11 4.72 96.1 4.7 C 99.6 4.7 102.2 6.3 102.2 9.4 C 102.2 11.7 100.9 13.1 99.1 13.7 C 102 14.2 103.2 16 103.2 18.2 C 103.2 22 100.3 24.1 95.6 24.1 C 95.62 24.11 85.5 24.1 85.5 24.1 C 85.5 24.1 85.54 22.29 85.5 22.3 C 86 22.1 86.5 22 87.3 21.9 Z M 92.7 13.2 C 92.7 13.2 94.02 13.18 94 13.2 C 95.9 13.2 97 12.1 97 9.9 C 97 7.9 95.9 6.9 94 6.9 C 93.96 6.91 92.7 6.9 92.7 6.9 L 92.7 13.2 Z M 92.7 21.9 C 92.7 21.9 94.17 21.93 94.2 21.9 C 96.5 21.9 97.8 20.8 97.8 18.7 C 97.8 16.4 96.6 15.5 94.3 15.5 C 94.32 15.51 92.7 15.5 92.7 15.5 L 92.7 21.9 Z M 112.9 15.6 C 112.9 15.6 112.9 13.7 112.9 13.7 C 112.9 12.3 112.3 11.6 110.8 11.6 C 110.3 11.6 109.9 11.7 109.4 11.8 C 109.41 11.75 109 14.3 109 14.3 C 109 14.3 106.04 14.3 106 14.3 C 105.8 13.5 105.7 12.7 105.7 11.9 C 105.7 11.5 105.7 10.9 105.8 10.6 C 107.7 9.6 110.1 9.1 112.3 9.1 C 116 9.1 118 10.5 118 13.5 C 118 15.9 117.9 18.9 117.9 21.6 C 117.89 21.6 119.4 22 119.4 22 C 119.4 22 119.4 23.66 119.4 23.7 C 117.7 24.1 115.6 24.4 113 24.4 C 113 24.4 113 22.2 113 22.2 C 112.3 23.6 110.8 24.4 109 24.4 C 106.5 24.4 104.7 23.1 104.7 20.4 C 104.7 16.5 108.5 15.8 112.9 15.6 Z M 112.9 21 C 112.9 21 112.9 17.4 112.9 17.4 C 110.8 17.6 109.6 18.2 109.6 19.8 C 109.6 21 110.3 21.6 111.4 21.6 C 112 21.6 112.5 21.4 112.9 21 Z M 122.3 22 C 122.34 22.02 122.3 12.2 122.3 12.2 L 120.8 11.8 C 120.8 11.8 120.83 10.03 120.8 10 C 122.6 9.6 124.9 9.2 127.4 9.2 C 127.4 9.2 127.4 11.8 127.4 11.8 C 128.4 10 130 9.1 131.6 9.1 C 132.3 9.1 133 9.4 133.4 9.8 C 133.4 11.9 133.2 13.4 132.7 15.2 C 132.67 15.18 130.1 15.2 130.1 15.2 C 130.1 15.2 129.67 12.72 129.7 12.7 C 128.8 12.8 128 13.2 127.4 13.9 C 127.4 13.9 127.4 22 127.4 22 C 128.3 22.1 129.1 22.3 129.5 22.4 C 129.52 22.41 129.5 24.1 129.5 24.1 L 120.8 24.1 C 120.8 24.1 120.8 22.41 120.8 22.4 C 121.1 22.3 121.7 22.1 122.3 22 Z M 134 5.4 C 134 5.4 133.97 3.6 134 3.6 C 135.7 3.1 138.3 2.9 140.8 2.9 C 140.8 2.9 140.8 11.5 140.8 11.5 C 141.7 10 143.4 9.1 145.1 9.1 C 148.8 9.1 150.8 11.8 150.8 16.4 C 150.8 21.4 148.1 24.5 143.9 24.5 C 142.2 24.5 141 23.8 140.2 22.9 C 140.21 22.93 137.8 24.2 137.8 24.2 L 135.8 24.2 L 135.8 5.8 L 134 5.4 Z M 140.8 13.3 C 140.8 13.3 140.8 21.5 140.8 21.5 C 141.2 21.6 141.6 21.6 142 21.6 C 144.3 21.6 145.5 19.8 145.5 16.8 C 145.5 13.5 144.4 12.4 142.8 12.4 C 142.1 12.4 141.4 12.7 140.8 13.3 Z M 160.5 15.6 C 160.5 15.6 160.5 13.7 160.5 13.7 C 160.5 12.3 159.9 11.6 158.4 11.6 C 158 11.6 157.5 11.7 157 11.8 C 157.02 11.75 156.6 14.3 156.6 14.3 C 156.6 14.3 153.66 14.3 153.7 14.3 C 153.4 13.5 153.3 12.7 153.3 11.9 C 153.3 11.5 153.4 10.9 153.4 10.6 C 155.3 9.6 157.7 9.1 159.9 9.1 C 163.6 9.1 165.6 10.5 165.6 13.5 C 165.6 15.9 165.5 18.9 165.5 21.6 C 165.5 21.6 167 22 167 22 C 167 22 167.02 23.66 167 23.7 C 165.3 24.1 163.2 24.4 160.6 24.4 C 160.6 24.4 160.6 22.2 160.6 22.2 C 159.9 23.6 158.4 24.4 156.6 24.4 C 154.1 24.4 152.4 23.1 152.4 20.4 C 152.4 16.5 156.1 15.8 160.5 15.6 Z M 160.5 21 C 160.5 21 160.5 17.4 160.5 17.4 C 158.4 17.6 157.2 18.2 157.2 19.8 C 157.2 21 158 21.6 159 21.6 C 159.6 21.6 160.1 21.4 160.5 21 Z M 170 22 C 169.96 22.02 170 12.2 170 12.2 L 168.4 11.8 C 168.4 11.8 168.44 10.03 168.4 10 C 170.2 9.6 172.5 9.2 175 9.2 C 175 9.2 175 11.8 175 11.8 C 176 10 177.6 9.1 179.2 9.1 C 179.9 9.1 180.6 9.4 181 9.8 C 181 11.9 180.8 13.4 180.3 15.2 C 180.28 15.18 177.7 15.2 177.7 15.2 C 177.7 15.2 177.29 12.72 177.3 12.7 C 176.4 12.8 175.6 13.2 175 13.9 C 175 13.9 175 22 175 22 C 175.9 22.1 176.7 22.3 177.1 22.4 C 177.13 22.41 177.1 24.1 177.1 24.1 L 168.4 24.1 C 168.4 24.1 168.41 22.41 168.4 22.4 C 168.7 22.3 169.3 22.1 170 22 Z M 189.8 15.6 C 189.8 15.6 189.8 13.7 189.8 13.7 C 189.8 12.3 189.2 11.6 187.6 11.6 C 187.2 11.6 186.8 11.7 186.3 11.8 C 186.28 11.75 185.8 14.3 185.8 14.3 C 185.8 14.3 182.92 14.3 182.9 14.3 C 182.7 13.5 182.6 12.7 182.6 11.9 C 182.6 11.5 182.6 10.9 182.7 10.6 C 184.6 9.6 187 9.1 189.2 9.1 C 192.9 9.1 194.9 10.5 194.9 13.5 C 194.9 15.9 194.8 18.9 194.8 21.6 C 194.76 21.6 196.3 22 196.3 22 C 196.3 22 196.28 23.66 196.3 23.7 C 194.6 24.1 192.5 24.4 189.9 24.4 C 189.9 24.4 189.9 22.2 189.9 22.2 C 189.2 23.6 187.7 24.4 185.9 24.4 C 183.4 24.4 181.6 23.1 181.6 20.4 C 181.6 16.5 185.3 15.8 189.8 15.6 Z M 189.8 21 C 189.8 21 189.8 17.4 189.8 17.4 C 187.7 17.6 186.4 18.2 186.4 19.8 C 186.4 21 187.2 21.6 188.3 21.6 C 188.9 21.6 189.4 21.4 189.8 21 Z M 205 21.9 C 205 21.9 205 6.9 205 6.9 C 204.2 6.9 203.6 6.7 203.2 6.5 C 203.18 6.54 203.2 4.7 203.2 4.7 L 212.2 4.7 C 212.2 4.7 212.21 6.54 212.2 6.5 C 211.8 6.7 211.2 6.9 210.4 6.9 C 210.4 6.9 210.4 21.9 210.4 21.9 C 211.2 22 211.8 22.1 212.2 22.3 C 212.21 22.29 212.2 24.1 212.2 24.1 L 203.2 24.1 C 203.2 24.1 203.18 22.29 203.2 22.3 C 203.6 22.1 204.2 22 205 21.9 Z M 213.9 22.4 C 213.9 21.4 214.1 20.4 214.3 19.4 C 214.3 19.39 217 19.4 217 19.4 C 217 19.4 217.45 22.08 217.5 22.1 C 217.9 22.2 218.4 22.2 218.9 22.2 C 220.2 22.2 221.1 21.7 221.1 20.5 C 221.1 19.4 220.3 19.1 218.8 18.6 C 218.8 18.6 217.2 18.1 217.2 18.1 C 215.3 17.5 213.9 16.3 213.9 13.8 C 213.9 10.4 217 9.1 220.5 9.1 C 222.1 9.1 224.1 9.4 225.2 9.9 C 225.3 10.3 225.3 10.8 225.3 11.2 C 225.3 12.1 225.2 13.2 224.9 14.2 C 224.9 14.18 222.3 14.2 222.3 14.2 C 222.3 14.2 221.75 11.51 221.8 11.5 C 221.4 11.4 221 11.4 220.5 11.4 C 219.4 11.4 218.3 11.8 218.3 12.9 C 218.3 14.1 219.2 14.4 220.4 14.8 C 220.4 14.8 222 15.3 222 15.3 C 224.3 16 225.9 17.1 225.9 19.5 C 225.9 22.7 223.5 24.5 218.9 24.5 C 217.2 24.5 215.2 24.2 214.1 23.7 C 213.9 23.3 213.9 22.8 213.9 22.4 Z M 228.7 22 C 228.69 22.02 228.7 5.8 228.7 5.8 L 226.9 5.4 C 226.9 5.4 226.9 3.6 226.9 3.6 C 228.6 3.1 231.2 2.9 233.8 2.9 C 233.8 2.9 233.8 22 233.8 22 C 234.4 22.1 235 22.3 235.4 22.4 C 235.35 22.41 235.4 24.1 235.4 24.1 L 227.1 24.1 C 227.1 24.1 227.14 22.41 227.1 22.4 C 227.5 22.3 228 22.1 228.7 22 Z M 244.7 15.6 C 244.7 15.6 244.7 13.7 244.7 13.7 C 244.7 12.3 244.1 11.6 242.6 11.6 C 242.2 11.6 241.7 11.7 241.2 11.8 C 241.23 11.75 240.8 14.3 240.8 14.3 C 240.8 14.3 237.87 14.3 237.9 14.3 C 237.6 13.5 237.5 12.7 237.5 11.9 C 237.5 11.5 237.6 10.9 237.7 10.6 C 239.5 9.6 241.9 9.1 244.1 9.1 C 247.8 9.1 249.8 10.5 249.8 13.5 C 249.8 15.9 249.7 18.9 249.7 21.6 C 249.71 21.6 251.2 22 251.2 22 C 251.2 22 251.22 23.66 251.2 23.7 C 249.5 24.1 247.4 24.4 244.8 24.4 C 244.8 24.4 244.8 22.2 244.8 22.2 C 244.1 23.6 242.6 24.4 240.8 24.4 C 238.3 24.4 236.6 23.1 236.6 20.4 C 236.6 16.5 240.3 15.8 244.7 15.6 Z M 244.7 21 C 244.7 21 244.7 17.4 244.7 17.4 C 242.6 17.6 241.4 18.2 241.4 19.8 C 241.4 21 242.2 21.6 243.2 21.6 C 243.8 21.6 244.3 21.4 244.7 21 Z M 254.2 22 C 254.16 22.02 254.2 12.2 254.2 12.2 L 252.6 11.8 C 252.6 11.8 252.65 10.03 252.6 10 C 254.4 9.6 256.7 9.2 259.3 9.2 C 259.3 9.2 259.3 11.6 259.3 11.6 C 260.3 9.9 262.2 9.1 264.3 9.1 C 267.3 9.1 268.9 10.9 268.9 13.6 C 268.9 13.6 268.9 22 268.9 22 C 269.5 22.1 270.1 22.3 270.4 22.4 C 270.43 22.41 270.4 24.1 270.4 24.1 L 262.2 24.1 C 262.2 24.1 262.25 22.41 262.2 22.4 C 262.6 22.3 263.1 22.1 263.8 22 C 263.8 22 263.8 14.7 263.8 14.7 C 263.8 13.4 263.1 12.7 261.9 12.7 C 260.9 12.7 260.1 13 259.3 13.8 C 259.3 13.8 259.3 22 259.3 22 C 259.9 22.1 260.5 22.3 260.8 22.4 C 260.83 22.41 260.8 24.1 260.8 24.1 L 252.6 24.1 C 252.6 24.1 252.62 22.41 252.6 22.4 C 253 22.3 253.5 22.1 254.2 22 Z M 278.8 9 C 280.1 9 281.1 9.5 281.8 10.2 C 281.76 10.21 281.8 5.8 281.8 5.8 L 279.9 5.4 C 279.9 5.4 279.88 3.6 279.9 3.6 C 281.6 3.1 284.3 2.9 286.8 2.9 C 286.85 2.91 286.8 21.6 286.8 21.6 L 288.4 22 C 288.4 22 288.36 23.66 288.4 23.7 C 286.7 24.1 284.4 24.4 281.8 24.4 C 281.8 24.4 281.8 22 281.8 22 C 281.1 23.6 279.5 24.5 277.7 24.5 C 274.1 24.5 271.8 21.7 271.8 17.1 C 271.8 12.1 274.6 9 278.8 9 Z M 281.8 20.4 C 281.8 20.4 281.8 12.1 281.8 12.1 C 281.4 12 281 12 280.6 12 C 278.3 12 277.1 14 277.1 16.7 C 277.1 20 278.3 21.2 279.9 21.2 C 280.6 21.2 281.2 20.9 281.8 20.4 Z " stroke="none" fill="#404040"/>  </g></svg>