<?xml version="1.0" standalone="no"?><!DOCTYPE svg PUBLIC "-//W3C//DTD SVG 1.1//EN" "http://www.w3.org/Graphics/SVG/1.1/DTD/svg11.dtd"><svg xmlns="http://www.w3.org/2000/svg" version="1.1" width="50.2px" height="15.3px" viewBox="0 0 50.2 15.3">  <desc>Video 00:24</desc>  <defs/>  <g id="Polygon11813">    <path d="M 2.1 6.9 L 0 0.7 L 0.9 0.7 C 0.9 0.7 1.88 3.78 1.9 3.8 C 2.1 4.6 2.4 5.4 2.5 6.1 C 2.5 6.1 2.6 6.1 2.6 6.1 C 2.7 5.4 3 4.6 3.3 3.8 C 3.27 3.78 4.3 0.7 4.3 0.7 L 5.2 0.7 L 3 6.9 L 2.1 6.9 Z M 5.7 6.9 L 5.7 2.5 L 6.5 2.5 L 6.5 6.9 L 5.7 6.9 Z M 6.6 1.2 C 6.6 1.5 6.4 1.7 6.1 1.7 C 5.8 1.7 5.6 1.5 5.6 1.2 C 5.6 0.9 5.8 0.7 6.1 0.7 C 6.4 0.7 6.6 0.9 6.6 1.2 Z M 11.7 0.4 C 11.7 0.4 11.71 5.78 11.7 5.8 C 11.7 6.2 11.7 6.6 11.7 6.9 C 11.75 6.94 11 6.9 11 6.9 L 11 6.2 C 11 6.2 10.96 6.16 11 6.2 C 10.7 6.7 10.2 7 9.5 7 C 8.4 7 7.5 6.1 7.5 4.8 C 7.5 3.3 8.5 2.4 9.5 2.4 C 10.2 2.4 10.7 2.7 10.9 3 C 10.89 3.04 10.9 3 10.9 3 L 10.9 0.4 L 11.7 0.4 Z M 10.9 4.3 C 10.9 4.2 10.9 4 10.9 3.9 C 10.8 3.4 10.3 3 9.7 3 C 8.9 3 8.4 3.7 8.4 4.7 C 8.4 5.6 8.8 6.4 9.7 6.4 C 10.2 6.4 10.7 6 10.9 5.4 C 10.9 5.3 10.9 5.2 10.9 5.1 C 10.9 5.1 10.9 4.3 10.9 4.3 Z M 13.5 4.8 C 13.5 5.9 14.2 6.4 15.1 6.4 C 15.6 6.4 16 6.3 16.3 6.2 C 16.3 6.2 16.4 6.8 16.4 6.8 C 16.2 6.9 15.7 7 15 7 C 13.6 7 12.7 6.1 12.7 4.8 C 12.7 3.4 13.5 2.4 14.8 2.4 C 16.3 2.4 16.7 3.6 16.7 4.5 C 16.7 4.6 16.7 4.8 16.7 4.8 C 16.7 4.8 13.5 4.8 13.5 4.8 Z M 15.9 4.3 C 15.9 3.8 15.7 3 14.8 3 C 14 3 13.6 3.7 13.5 4.3 C 13.5 4.3 15.9 4.3 15.9 4.3 Z M 21.8 4.7 C 21.8 6.3 20.6 7 19.5 7 C 18.3 7 17.4 6.2 17.4 4.7 C 17.4 3.2 18.4 2.4 19.6 2.4 C 20.9 2.4 21.8 3.3 21.8 4.7 Z M 18.2 4.7 C 18.2 5.7 18.8 6.4 19.6 6.4 C 20.3 6.4 20.9 5.7 20.9 4.7 C 20.9 3.9 20.5 3 19.6 3 C 18.6 3 18.2 3.9 18.2 4.7 Z M 24.8 8 L 24.8 0.6 L 26.5 0.6 L 26.5 1.1 L 25.5 1.1 L 25.5 7.5 L 26.5 7.5 L 26.5 8 L 24.8 8 Z M 31.1 3.9 C 31.1 5.9 30.4 7 29 7 C 27.9 7 27.1 5.9 27 4 C 27 1.9 27.9 0.8 29.1 0.8 C 30.4 0.8 31.1 2 31.1 3.9 Z M 27.9 4 C 27.9 5.5 28.3 6.4 29.1 6.4 C 29.9 6.4 30.3 5.4 30.3 3.9 C 30.3 2.4 29.9 1.5 29.1 1.5 C 28.4 1.5 27.9 2.3 27.9 4 Z M 35.9 3.9 C 35.9 5.9 35.1 7 33.8 7 C 32.6 7 31.8 5.9 31.8 4 C 31.8 1.9 32.7 0.8 33.9 0.8 C 35.1 0.8 35.9 2 35.9 3.9 Z M 32.6 4 C 32.6 5.5 33.1 6.4 33.8 6.4 C 34.6 6.4 35 5.4 35 3.9 C 35 2.4 34.7 1.5 33.8 1.5 C 33.1 1.5 32.6 2.3 32.6 4 Z M 36.7 3.2 C 36.7 2.9 36.9 2.6 37.2 2.6 C 37.6 2.6 37.8 2.9 37.8 3.2 C 37.8 3.5 37.6 3.8 37.2 3.8 C 36.9 3.8 36.7 3.5 36.7 3.2 Z M 36.7 6.5 C 36.7 6.1 36.9 5.9 37.2 5.9 C 37.6 5.9 37.8 6.1 37.8 6.5 C 37.8 6.8 37.6 7 37.2 7 C 36.9 7 36.7 6.8 36.7 6.5 Z M 38.5 6.9 L 38.5 6.4 C 38.5 6.4 39.16 5.82 39.2 5.8 C 40.7 4.4 41.4 3.6 41.4 2.7 C 41.4 2.1 41.1 1.5 40.2 1.5 C 39.7 1.5 39.2 1.8 38.9 2 C 38.9 2 38.7 1.4 38.7 1.4 C 39.1 1.1 39.7 0.8 40.4 0.8 C 41.7 0.8 42.2 1.7 42.2 2.6 C 42.2 3.7 41.4 4.6 40.1 5.8 C 40.14 5.8 39.7 6.2 39.7 6.2 L 39.7 6.3 L 42.4 6.3 L 42.4 6.9 L 38.5 6.9 Z M 45.8 6.9 L 45.8 5.3 L 43 5.3 L 43 4.8 L 45.7 0.9 L 46.6 0.9 L 46.6 4.7 L 47.4 4.7 L 47.4 5.3 L 46.6 5.3 L 46.6 6.9 L 45.8 6.9 Z M 45.8 4.7 C 45.8 4.7 45.79 2.65 45.8 2.7 C 45.8 2.3 45.8 2 45.8 1.7 C 45.8 1.7 45.8 1.7 45.8 1.7 C 45.6 2.1 45.5 2.3 45.3 2.6 C 45.29 2.6 43.8 4.6 43.8 4.6 L 43.8 4.7 L 45.8 4.7 Z M 49.5 0.6 L 49.5 8 L 47.8 8 L 47.8 7.5 L 48.8 7.5 L 48.8 1.1 L 47.8 1.1 L 47.8 0.6 L 49.5 0.6 Z " stroke="none" fill="#404040"/>  </g></svg>