<?xml version="1.0" standalone="no"?><!DOCTYPE svg PUBLIC "-//W3C//DTD SVG 1.1//EN" "http://www.w3.org/Graphics/SVG/1.1/DTD/svg11.dtd"><svg xmlns="http://www.w3.org/2000/svg" version="1.1" width="195.5px" height="54px" viewBox="0 0 195.5 54"><desc>Wildlife</desc><defs/><g id="Polygon11182"><path d="m42.8 30l-2.6-10.8l2.6 0c0 0 .86 4.45.9 4.4c.2 1.3.4 2.7.6 3.8c0 0 0 0 0 0c.2-1.1.5-2.4.7-3.8c.04.02 1-4.4 1-4.4l2.5 0c0 0 .91 4.56.9 4.6c.2 1.2.4 2.4.6 3.6c0 0 0 0 0 0c.2-1.2.4-2.5.6-3.8c.04.02.9-4.4.9-4.4l2.5 0l-2.8 10.8l-2.6 0c0 0-.94-4.64-.9-4.6c-.2-1.1-.4-2.1-.5-3.4c0 0-.1 0-.1 0c-.2 1.2-.3 2.3-.6 3.4c0-.04-1 4.6-1 4.6l-2.7 0zm12 0l0-7.8l2.4 0l0 7.8l-2.4 0zm2.5-10c0 .7-.5 1.2-1.3 1.2c-.8 0-1.3-.5-1.3-1.2c0-.7.5-1.2 1.3-1.2c.8 0 1.2.5 1.3 1.2zm1.8-1.4l2.5 0l0 11.4l-2.5 0l0-11.4zm12 0c0 0 .02 9.06 0 9.1c0 .8.1 1.8.1 2.3c-.02 0-2.2 0-2.2 0l-.1-1.1c0 0-.02-.04 0 0c-.5.8-1.5 1.3-2.5 1.3c-1.8 0-3.3-1.6-3.3-4c0-2.7 1.6-4.2 3.5-4.2c1 0 1.7.3 2.1.9c-.04-.04 0 0 0 0l0-4.3l2.4 0zm-2.4 6.9c0-.1 0-.3 0-.5c-.2-.6-.7-1.1-1.5-1.1c-1.1 0-1.6.9-1.6 2.2c0 1.3.6 2.1 1.6 2.1c.7 0 1.3-.4 1.4-1.1c.1-.2.1-.4.1-.6c0 0 0-1 0-1zm4.4-6.9l2.4 0l0 11.4l-2.4 0l0-11.4zm4.4 11.4l0-7.8l2.4 0l0 7.8l-2.4 0zm2.5-10c0 .7-.5 1.2-1.3 1.2c-.8 0-1.3-.5-1.3-1.2c0-.7.5-1.2 1.3-1.2c.8 0 1.3.5 1.3 1.2zm2.1 10l0-6l-1 0l0-1.8l1 0c0 0 .04-.33 0-.3c0-1 .3-2 1-2.7c.6-.5 1.5-.7 2.2-.7c.5 0 .9 0 1.3.1c0 0-.1 1.9-.1 1.9c-.2-.1-.5-.1-.8-.1c-.8 0-1.1.6-1.1 1.4c-.04-.02 0 .4 0 .4l1.5 0l0 1.8l-1.5 0l0 6l-2.5 0zm6.9-3.1c.1 1 1.1 1.5 2.2 1.5c.9 0 1.5-.2 2.2-.4c0 0 .3 1.7.3 1.7c-.8.3-1.8.5-2.8.5c-2.7 0-4.2-1.6-4.2-4c0-2 1.2-4.2 4-4.2c2.5 0 3.4 2 3.4 3.9c0 .4 0 .8 0 1c0 0-5.1 0-5.1 0zm2.9-1.7c0-.6-.3-1.6-1.4-1.6c-1 0-1.4 1-1.5 1.6c0 0 2.9 0 2.9 0z" stroke="none" fill="#fff"/></g></svg>