<?xml version="1.0" standalone="no"?><!DOCTYPE svg PUBLIC "-//W3C//DTD SVG 1.1//EN" "http://www.w3.org/Graphics/SVG/1.1/DTD/svg11.dtd"><svg xmlns="http://www.w3.org/2000/svg" version="1.1" width="360px" height="54px" viewBox="0 0 360 54">  <desc>Home</desc>  <defs/>  <g id="Polygon11154">    <path d="M 103.5 19.2 L 103.5 23.4 L 107.5 23.4 L 107.5 19.2 L 110 19.2 L 110 30 L 107.5 30 L 107.5 25.5 L 103.5 25.5 L 103.5 30 L 101.1 30 L 101.1 19.2 L 103.5 19.2 Z M 119.7 26 C 119.7 28.9 117.6 30.2 115.6 30.2 C 113.3 30.2 111.5 28.7 111.5 26.1 C 111.5 23.6 113.2 22 115.7 22 C 118.1 22 119.7 23.6 119.7 26 Z M 114 26.1 C 114 27.4 114.6 28.4 115.6 28.4 C 116.6 28.4 117.2 27.5 117.2 26.1 C 117.2 24.9 116.7 23.7 115.6 23.7 C 114.5 23.7 114 24.9 114 26.1 Z M 121.2 24.7 C 121.2 23.7 121.2 22.9 121.1 22.2 C 121.12 22.18 123.2 22.2 123.2 22.2 L 123.3 23.2 C 123.3 23.2 123.33 23.23 123.3 23.2 C 123.7 22.7 124.4 22 125.7 22 C 126.7 22 127.5 22.5 127.8 23.3 C 127.8 23.3 127.9 23.3 127.9 23.3 C 128.2 22.9 128.5 22.6 128.9 22.4 C 129.3 22.1 129.8 22 130.4 22 C 131.9 22 133 23 133 25.4 C 133.02 25.39 133 30 133 30 L 130.7 30 C 130.7 30 130.66 25.74 130.7 25.7 C 130.7 24.6 130.3 24 129.5 24 C 128.9 24 128.5 24.3 128.4 24.8 C 128.3 25 128.3 25.2 128.3 25.4 C 128.29 25.42 128.3 30 128.3 30 L 125.9 30 C 125.9 30 125.92 25.6 125.9 25.6 C 125.9 24.6 125.6 24 124.8 24 C 124.2 24 123.8 24.4 123.6 24.8 C 123.6 25 123.6 25.2 123.6 25.4 C 123.55 25.44 123.6 30 123.6 30 L 121.2 30 C 121.2 30 121.18 24.67 121.2 24.7 Z M 136.8 26.9 C 136.9 27.9 137.9 28.4 139 28.4 C 139.9 28.4 140.5 28.2 141.2 28 C 141.2 28 141.5 29.7 141.5 29.7 C 140.7 30 139.7 30.2 138.7 30.2 C 136 30.2 134.5 28.6 134.5 26.2 C 134.5 24.2 135.7 22 138.4 22 C 141 22 141.9 24 141.9 25.9 C 141.9 26.3 141.9 26.7 141.9 26.9 C 141.9 26.9 136.8 26.9 136.8 26.9 Z M 139.7 25.2 C 139.7 24.6 139.4 23.6 138.3 23.6 C 137.3 23.6 136.9 24.6 136.8 25.2 C 136.8 25.2 139.7 25.2 139.7 25.2 Z " stroke="none" fill="#fff"/>  </g></svg>