<?xml version="1.0" standalone="no"?><!DOCTYPE svg PUBLIC "-//W3C//DTD SVG 1.1//EN" "http://www.w3.org/Graphics/SVG/1.1/DTD/svg11.dtd"><svg xmlns="http://www.w3.org/2000/svg" version="1.1" width="125px" height="163.5px" viewBox="0 0 125 163.5">  <desc>California Sea Lions</desc>  <defs/>  <g id="Polygon11576">    <path d="M 17.6 83.2 C 17.3 83.4 16.7 83.5 16.1 83.5 C 13.5 83.5 12.2 81.4 12.2 78.5 C 12.2 74.7 14.3 73.2 16.3 73.2 C 17 73.2 17.5 73.3 17.7 73.4 C 17.7 73.4 17.3 75.1 17.3 75.1 C 17.1 75 16.9 74.9 16.4 74.9 C 15.3 74.9 14.3 75.9 14.3 78.4 C 14.3 80.8 15.2 81.7 16.4 81.7 C 16.8 81.7 17.1 81.7 17.4 81.6 C 17.4 81.6 17.6 83.2 17.6 83.2 Z M 23.5 81.7 C 23.5 82.3 23.5 82.9 23.6 83.4 C 23.58 83.38 21.8 83.4 21.8 83.4 L 21.7 82.7 C 21.7 82.7 21.68 82.66 21.7 82.7 C 21.3 83.2 20.7 83.5 20.1 83.5 C 18.9 83.5 18.1 82.6 18.1 81.3 C 18.1 79.3 19.8 78.6 21.5 78.5 C 21.5 78.5 21.5 78.4 21.5 78.4 C 21.5 77.8 21.2 77.4 20.4 77.4 C 19.9 77.4 19.4 77.5 18.9 77.8 C 18.9 77.8 18.6 76.5 18.6 76.5 C 19 76.3 19.8 75.9 20.9 75.9 C 23.1 75.9 23.5 77.5 23.5 79 C 23.5 79 23.5 81.7 23.5 81.7 Z M 21.5 79.8 C 20.9 79.8 20 80 20 81.1 C 20 81.8 20.4 82.1 20.7 82.1 C 21 82.1 21.4 81.9 21.5 81.4 C 21.5 81.3 21.5 81.2 21.5 81.1 C 21.5 81.1 21.5 79.8 21.5 79.8 Z M 24.9 73 L 26.8 73 L 26.8 83.4 L 24.9 83.4 L 24.9 73 Z M 28.2 83.4 L 28.2 76 L 30.2 76 L 30.2 83.4 L 28.2 83.4 Z M 30.2 74.1 C 30.2 74.7 29.8 75.2 29.2 75.2 C 28.6 75.2 28.2 74.7 28.2 74.1 C 28.2 73.4 28.7 73 29.2 73 C 29.8 73 30.2 73.4 30.2 74.1 Z M 31.9 83.4 L 31.9 77.4 L 30.9 77.4 L 30.9 76 L 31.9 76 C 31.9 76 31.92 75.76 31.9 75.8 C 31.9 74.9 32.1 74.2 32.7 73.6 C 33.1 73.1 33.7 72.9 34.4 72.9 C 34.9 72.9 35.3 72.9 35.6 73 C 35.6 73 35.4 74.6 35.4 74.6 C 35.2 74.5 35 74.5 34.8 74.5 C 34.1 74.5 33.9 75.1 33.9 75.7 C 33.89 75.7 33.9 76 33.9 76 L 35.2 76 L 35.2 77.4 L 33.9 77.4 L 33.9 83.4 L 31.9 83.4 Z M 41.1 79.7 C 41.1 82.7 39.4 83.5 38.3 83.5 C 36.5 83.5 35.5 82.1 35.5 79.7 C 35.5 77.1 36.9 75.9 38.3 75.9 C 40.1 75.9 41.1 77.4 41.1 79.7 Z M 37.4 79.7 C 37.4 80.9 37.6 82 38.3 82 C 39 82 39.2 80.8 39.2 79.7 C 39.2 78.7 39 77.4 38.3 77.4 C 37.6 77.4 37.4 78.7 37.4 79.7 Z M 42.2 78.2 C 42.2 77.5 42.2 76.7 42.2 76 C 42.15 76.04 43.8 76 43.8 76 L 44 77.1 C 44 77.1 44.01 77.11 44 77.1 C 44.3 76.3 44.9 75.9 45.5 75.9 C 45.7 75.9 45.8 75.9 45.9 76 C 45.9 76 45.9 77.9 45.9 77.9 C 45.8 77.9 45.6 77.9 45.5 77.9 C 45 77.9 44.5 78.2 44.3 78.9 C 44.2 79.1 44.2 79.3 44.2 79.6 C 44.18 79.64 44.2 83.4 44.2 83.4 L 42.2 83.4 C 42.2 83.4 42.21 78.24 42.2 78.2 Z M 46.6 78.2 C 46.6 77.5 46.6 76.7 46.6 76 C 46.56 76.04 48.3 76 48.3 76 L 48.4 76.9 C 48.4 76.9 48.39 76.88 48.4 76.9 C 48.8 76.3 49.4 75.9 50.2 75.9 C 51.6 75.9 52.1 77 52.1 78.7 C 52.11 78.66 52.1 83.4 52.1 83.4 L 50.1 83.4 C 50.1 83.4 50.15 78.79 50.1 78.8 C 50.1 78.2 50 77.6 49.4 77.6 C 49.1 77.6 48.8 77.8 48.7 78.2 C 48.6 78.4 48.6 78.6 48.6 78.9 C 48.59 78.91 48.6 83.4 48.6 83.4 L 46.6 83.4 C 46.6 83.4 46.62 78.24 46.6 78.2 Z M 53.5 83.4 L 53.5 76 L 55.5 76 L 55.5 83.4 L 53.5 83.4 Z M 55.5 74.1 C 55.5 74.7 55 75.2 54.4 75.2 C 53.9 75.2 53.4 74.7 53.4 74.1 C 53.4 73.4 53.9 73 54.5 73 C 55 73 55.5 73.4 55.5 74.1 Z M 61.8 81.7 C 61.8 82.3 61.8 82.9 61.9 83.4 C 61.89 83.38 60.1 83.4 60.1 83.4 L 60 82.7 C 60 82.7 59.99 82.66 60 82.7 C 59.6 83.2 59 83.5 58.4 83.5 C 57.3 83.5 56.4 82.6 56.4 81.3 C 56.4 79.3 58.1 78.6 59.8 78.5 C 59.8 78.5 59.8 78.4 59.8 78.4 C 59.8 77.8 59.5 77.4 58.8 77.4 C 58.2 77.4 57.7 77.5 57.3 77.8 C 57.3 77.8 56.9 76.5 56.9 76.5 C 57.3 76.3 58.2 75.9 59.2 75.9 C 61.4 75.9 61.8 77.5 61.8 79 C 61.8 79 61.8 81.7 61.8 81.7 Z M 59.9 79.8 C 59.2 79.8 58.3 80 58.3 81.1 C 58.3 81.8 58.7 82.1 59 82.1 C 59.3 82.1 59.7 81.9 59.8 81.4 C 59.8 81.3 59.9 81.2 59.9 81.1 C 59.9 81.1 59.9 79.8 59.9 79.8 Z M 65.5 81.4 C 65.9 81.6 66.6 81.8 67.2 81.8 C 68.1 81.8 68.6 81.3 68.6 80.6 C 68.6 79.9 68.1 79.5 67.2 79 C 65.9 78.1 65.3 77.1 65.3 76.1 C 65.3 74.5 66.4 73.2 68.5 73.2 C 69.2 73.2 69.8 73.4 70.1 73.5 C 70.1 73.5 69.8 75.2 69.8 75.2 C 69.5 75.1 69.1 74.9 68.5 74.9 C 67.7 74.9 67.3 75.4 67.3 75.9 C 67.3 76.5 67.6 76.9 68.7 77.5 C 70 78.3 70.5 79.3 70.5 80.4 C 70.5 82.3 69.1 83.5 67.2 83.5 C 66.3 83.5 65.6 83.3 65.2 83.1 C 65.2 83.1 65.5 81.4 65.5 81.4 Z M 73.2 80.4 C 73.3 81.5 73.9 82 74.8 82 C 75.3 82 75.8 81.8 76.2 81.7 C 76.2 81.7 76.4 83.1 76.4 83.1 C 75.9 83.3 75.2 83.5 74.4 83.5 C 72.4 83.5 71.3 82.1 71.3 79.9 C 71.3 77.4 72.6 75.9 74.3 75.9 C 75.9 75.9 76.8 77.2 76.8 79.4 C 76.8 79.9 76.7 80.2 76.7 80.4 C 76.7 80.4 73.2 80.4 73.2 80.4 Z M 75 79 C 75 78.1 74.7 77.3 74.2 77.3 C 73.5 77.3 73.3 78.3 73.2 79 C 73.2 79 75 79 75 79 Z M 82.8 81.7 C 82.8 82.3 82.9 82.9 82.9 83.4 C 82.94 83.38 81.2 83.4 81.2 83.4 L 81.1 82.7 C 81.1 82.7 81.03 82.66 81 82.7 C 80.6 83.2 80.1 83.5 79.4 83.5 C 78.3 83.5 77.5 82.6 77.5 81.3 C 77.5 79.3 79.2 78.6 80.8 78.5 C 80.8 78.5 80.8 78.4 80.8 78.4 C 80.8 77.8 80.5 77.4 79.8 77.4 C 79.2 77.4 78.8 77.5 78.3 77.8 C 78.3 77.8 77.9 76.5 77.9 76.5 C 78.4 76.3 79.2 75.9 80.2 75.9 C 82.5 75.9 82.8 77.5 82.8 79 C 82.8 79 82.8 81.7 82.8 81.7 Z M 80.9 79.8 C 80.3 79.8 79.3 80 79.3 81.1 C 79.3 81.8 79.7 82.1 80 82.1 C 80.4 82.1 80.7 81.9 80.9 81.4 C 80.9 81.3 80.9 81.2 80.9 81.1 C 80.9 81.1 80.9 79.8 80.9 79.8 Z M 86.8 73.3 L 88.7 73.3 L 88.7 81.7 L 91.3 81.7 L 91.3 83.4 L 86.8 83.4 L 86.8 73.3 Z M 92.3 83.4 L 92.3 76 L 94.3 76 L 94.3 83.4 L 92.3 83.4 Z M 94.3 74.1 C 94.3 74.7 93.8 75.2 93.2 75.2 C 92.7 75.2 92.2 74.7 92.3 74.1 C 92.2 73.4 92.7 73 93.3 73 C 93.8 73 94.3 73.4 94.3 74.1 Z M 101 79.7 C 101 82.7 99.3 83.5 98.2 83.5 C 96.4 83.5 95.4 82.1 95.4 79.7 C 95.4 77.1 96.8 75.9 98.2 75.9 C 100 75.9 101 77.4 101 79.7 Z M 97.3 79.7 C 97.3 80.9 97.5 82 98.2 82 C 98.9 82 99 80.8 99 79.7 C 99 78.7 98.9 77.4 98.2 77.4 C 97.5 77.4 97.3 78.7 97.3 79.7 Z M 102.1 78.2 C 102.1 77.5 102.1 76.7 102 76 C 102.05 76.04 103.7 76 103.7 76 L 103.8 76.9 C 103.8 76.9 103.88 76.88 103.9 76.9 C 104.3 76.3 104.9 75.9 105.6 75.9 C 107 75.9 107.6 77 107.6 78.7 C 107.6 78.66 107.6 83.4 107.6 83.4 L 105.6 83.4 C 105.6 83.4 105.63 78.79 105.6 78.8 C 105.6 78.2 105.5 77.6 104.9 77.6 C 104.6 77.6 104.3 77.8 104.2 78.2 C 104.1 78.4 104.1 78.6 104.1 78.9 C 104.07 78.91 104.1 83.4 104.1 83.4 L 102.1 83.4 C 102.1 83.4 102.11 78.24 102.1 78.2 Z M 108.9 81.6 C 109.2 81.8 109.7 82 110.2 82 C 110.7 82 111 81.8 111 81.3 C 111 81 110.8 80.7 110.2 80.3 C 109 79.7 108.7 78.9 108.7 78.2 C 108.7 76.9 109.6 75.9 111.1 75.9 C 111.7 75.9 112.2 76.1 112.6 76.3 C 112.6 76.3 112.2 77.7 112.2 77.7 C 112 77.5 111.6 77.4 111.2 77.4 C 110.7 77.4 110.5 77.7 110.5 78 C 110.5 78.3 110.7 78.5 111.3 78.9 C 112.4 79.6 112.8 80.3 112.8 81.2 C 112.8 82.7 111.8 83.5 110.2 83.5 C 109.6 83.5 108.9 83.3 108.6 83 C 108.6 83 108.9 81.6 108.9 81.6 Z " stroke="none" fill="#000" fill-opacity="0.7"/>  </g></svg>