<?xml version="1.0" standalone="no"?><!DOCTYPE svg PUBLIC "-//W3C//DTD SVG 1.1//EN" "http://www.w3.org/Graphics/SVG/1.1/DTD/svg11.dtd"><svg xmlns="http://www.w3.org/2000/svg" version="1.1" width="428px" height="365.1px" viewBox="0 0 428 365.1"><desc>Di dolo conserchil imporep reheniendae nos ventium et fuga Percia plit imolupic tem doluptati berro expe prercia cor</desc><defs/><g id="Polygon12693"><path d="m.2 329c.04-.05 0-1 0-1l6.2 0c0 0 .02.95 0 1c-.6.2-1.3.4-2.1.4c0 .04 3.5 9.4 3.5 9.4c0 0 3.62-9.36 3.6-9.4c-.7-.1-1.4-.2-1.9-.4c-.05-.05 0-1 0-1l5.2 0c0 0-.04.95 0 1c-.5.1-.8.3-1.3.4c-.04-.03-5.3 12.8-5.3 12.8l-1.6 0c0 0-4.99-12.83-5-12.8c-.5-.1-.8-.3-1.3-.4zm21.9-1.3c4.1 0 6.4 2.4 6.4 7.3c0 4.7-2.9 7.4-6.8 7.4c-4.2 0-6.3-2.4-6.3-7.3c0-4.7 2.6-7.4 6.7-7.4zm3.5 7.6c0-4.2-1.3-6.2-3.7-6.2c-2.2 0-3.6 1.5-3.6 5.7c0 4.3 1.3 6.3 3.6 6.3c2.3 0 3.7-1.6 3.7-5.8zm6.6 5.4c.03 0 0-17.7 0-17.7l-2-.5c0 0-.03-.94 0-.9c1.1-.4 2.8-.6 4.7-.6c0 0 0 19.7 0 19.7c.8.1 1.6.2 2.2.5c-.02-.01 0 1 0 1l-7.1 0c0 0 .05-1.01 0-1c.7-.3 1.4-.4 2.2-.5zm6.1-11.4c0 0-.01-.96 0-1c1.1-.3 2.8-.6 4.7-.6c0 0 0 10.1 0 10.1c0 1.9.7 2.8 2.7 2.8c1.6 0 2.9-.6 3.7-1.4c.03-.04 0-9.4 0-9.4l-2-.5c0 0-.03-.96 0-1c1.1-.3 2.8-.6 4.7-.6c0 .04 0 12.8 0 12.8l2.1.4c0 0-.04.89 0 .9c-1.1.4-2.8.6-4.8.6c0 0 0-2.3 0-2.3c-.9 1.5-2.7 2.4-4.8 2.4c-2.6 0-4.3-1.4-4.3-4.1c.05 0 0-8.6 0-8.6l-2-.5zm19.9 17.1c-.04 0 0-16.6 0-16.6l-2.1-.5c0 0 0-.96 0-1c1.1-.3 2.8-.6 4.7-.6c0 0 0 2.7 0 2.7c.8-1.7 2.7-2.8 4.5-2.8c3.3 0 5.5 2.4 5.5 6.9c0 5-2.9 8-6.8 8c-1.2 0-2.4-.3-3.2-.9c0 0 0 4.8 0 4.8c1.1.1 1.8.2 2.6.5c-.03-.02 0 1 0 1l-7.4 0c0 0-.02-1.02 0-1c.6-.3 1.3-.4 2.2-.5zm2.6-15.2c0 0 0 9.4 0 9.4c.7.3 1.4.3 2.3.3c2.9 0 4.9-2.1 4.9-6c0-3.8-1.5-5.3-3.8-5.3c-1.4 0-2.7.6-3.4 1.6zm14-3.3c0 0 .2-2.8.2-2.8c.6-.1 1.7-.3 2.4-.3c.02.03 0 3.2 0 3.2l3.7 0l0 1.6l-3.7 0c0 0-.1 8.92-.1 8.9c0 1.6.6 2.1 1.7 2.1c.8 0 1.3-.3 2.1-1c0 0 .6.5.6.5c-.9 1.6-2.3 2.3-3.8 2.3c-2.1 0-3.3-1-3.3-3.5c.04-.01.2-9.3.2-9.3l-2.2 0c0 0-.02-1.01 0-1c.4-.2 1.2-.5 2.2-.7zm16.7 6.3c0 0 0-2.5 0-2.5c0-1.8-1-2.5-2.8-2.5c-.6 0-1.3.1-2 .2c.02-.03-.5 2.9-.5 2.9c0 0-1.57.04-1.6 0c-.2-.6-.3-1.4-.3-2.1c0-.4.1-.8.1-1c1.4-1 3.4-1.5 5.4-1.5c2.9 0 4.3 1.3 4.3 3.6c0 1.6-.1 6.3-.1 9.2c.02-.01 2.1.4 2.1.4c0 0-.02.89 0 .9c-1.1.4-2.7.6-4.6.6c0 0 0-2.4 0-2.4c-.8 1.4-2.3 2.4-4 2.4c-2.5 0-4-1.3-4-3.6c0-3.5 3.2-4.3 8-4.6zm0 5c0 0 0-3.9 0-3.9c-3.6.2-5.4.8-5.4 3c0 1.6.9 2.4 2.5 2.4c1.1 0 2.2-.6 2.9-1.5zm7.8-11.3c0 0 .2-2.8.2-2.8c.6-.1 1.6-.3 2.4-.3c0 .03 0 3.2 0 3.2l3.6 0l0 1.6l-3.7 0c0 0-.03 8.92 0 8.9c0 1.6.6 2.1 1.7 2.1c.7 0 1.3-.3 2-1c0 0 .6.5.6.5c-.9 1.6-2.2 2.3-3.7 2.3c-2.1 0-3.4-1-3.3-3.5c.01-.01.1-9.3.1-9.3l-2.2 0c0 0 .05-1.01 0-1c.4-.2 1.3-.5 2.3-.7zm21-.2c3.4 0 5.3 1.9 5.3 5.2c0 .7 0 .9-.1 1.6c.02.02-9.1 0-9.1 0c0 0 .03.27 0 .3c0 4.1 2.1 5.7 4.6 5.7c1.6 0 2.8-.8 3.8-1.9c0 0 .6.5.6.5c-1 2-2.7 3.3-5.2 3.3c-3.6 0-6.6-2.2-6.6-7.3c0-4.7 3.1-7.4 6.7-7.4zm-3.8 5.5c.03-.01 6.5 0 6.5 0c0 0-.02-.49 0-.5c0-2.5-1.1-3.6-2.8-3.6c-1.8 0-3.3 1.2-3.7 4.1zm13.2-5.3c0 0 .2-2.8.2-2.8c.6-.1 1.6-.3 2.4-.3c.01.03 0 3.2 0 3.2l3.6 0l0 1.6l-3.7 0c0 0-.01 8.92 0 8.9c0 1.6.6 2.1 1.7 2.1c.7 0 1.3-.3 2-1c0 0 .6.5.6.5c-.9 1.6-2.2 2.3-3.7 2.3c-2.1 0-3.3-1-3.3-3.5c.02-.01.1-9.3.1-9.3l-2.1 0c0 0-.04-1.01 0-1c.4-.2 1.2-.5 2.2-.7zm22.2 6.3c0 0 0-2.5 0-2.5c0-1.8-.9-2.5-2.8-2.5c-.6 0-1.2.1-1.9.2c-.02-.03-.5 2.9-.5 2.9c0 0-1.61.04-1.6 0c-.2-.6-.3-1.4-.3-2.1c0-.4 0-.8.1-1c1.3-1 3.4-1.5 5.3-1.5c2.9 0 4.4 1.3 4.4 3.6c0 1.6-.1 6.3-.1 9.2c-.02-.01 2 .4 2 .4c0 0 .04.89 0 .9c-1.1.4-2.6.6-4.6.6c0 0 0-2.4 0-2.4c-.8 1.4-2.2 2.4-4 2.4c-2.4 0-4-1.3-4-3.6c0-3.5 3.2-4.3 8-4.6zm0 5c0 0 0-3.9 0-3.9c-3.5.2-5.3.8-5.3 3c0 1.6.9 2.4 2.4 2.4c1.2 0 2.3-.6 2.9-1.5zm26.4 1.5c0 0 0-8.4 0-8.4c0-1.8-.8-2.6-2.6-2.6c-1.4 0-2.7.4-3.5 1.3c0 0 0 9.7 0 9.7c.8.1 1.5.2 2.1.5c.05-.01 0 1 0 1l-7 0c0 0 .02-1.01 0-1c.6-.3 1.4-.4 2.2-.5c0 0 0-8.4 0-8.4c0-1.8-.8-2.6-2.7-2.6c-1.4 0-2.6.4-3.5 1.3c0 0 0 9.7 0 9.7c.9.1 1.6.2 2.2.5c0-.01 0 1 0 1l-7 0c0 0-.02-1.01 0-1c.6-.3 1.3-.4 2.2-.5c-.04 0 0-10.9 0-10.9l-2.1-.5c0 0 0-.96 0-1c1.1-.3 2.8-.6 4.7-.6c0 0 0 2.4 0 2.4c.9-1.6 2.7-2.5 4.9-2.5c2 0 3.2 1 3.7 2.7c1-1.6 2.8-2.7 5.1-2.7c2.6 0 4 1.5 4 4.1c0 0 0 9 0 9c.9.1 1.6.2 2.2.5c-.01-.01 0 1 0 1l-7 0c0 0-.03-1.01 0-1c.6-.3 1.3-.4 2.1-.5zm12.8-11.4c0 0-.03-.96 0-1c1.1-.3 2.8-.6 4.7-.6c0 0 0 10.1 0 10.1c0 1.9.7 2.8 2.7 2.8c1.6 0 2.9-.6 3.7-1.4c.02-.04 0-9.4 0-9.4l-2-.5c0 0-.04-.96 0-1c1-.3 2.7-.6 4.7-.6c-.02.04 0 12.8 0 12.8l2 .4c0 0 .04.89 0 .9c-1.1.4-2.7.6-4.7.6c0 0 0-2.3 0-2.3c-.9 1.5-2.7 2.4-4.8 2.4c-2.6 0-4.3-1.4-4.3-4.1c.03 0 0-8.6 0-8.6l-2-.5zm19.8 11.4c.04 0 0-17.7 0-17.7l-2-.5c0 0-.02-.94 0-.9c1.1-.4 2.8-.6 4.7-.6c0 0 0 19.7 0 19.7c.9.1 1.6.2 2.2.5c-.01-.01 0 1 0 1l-7 0c0 0-.04-1.01 0-1c.6-.3 1.3-.4 2.1-.5zm8.6 5.7c.04 0 0-16.6 0-16.6l-2-.5c0 0-.02-.96 0-1c1.1-.3 2.8-.6 4.7-.6c0 0 0 2.7 0 2.7c.8-1.7 2.6-2.8 4.5-2.8c3.3 0 5.4 2.4 5.4 6.9c0 5-2.9 8-6.7 8c-1.3 0-2.4-.3-3.2-.9c0 0 0 4.8 0 4.8c1.1.1 1.8.2 2.6.5c-.05-.02 0 1 0 1l-7.4 0c0 0-.04-1.02 0-1c.6-.3 1.3-.4 2.1-.5zm2.7-15.2c0 0 0 9.4 0 9.4c.7.3 1.4.3 2.3.3c2.9 0 4.9-2.1 4.9-6c0-3.8-1.5-5.3-3.8-5.3c-1.4 0-2.7.6-3.4 1.6zm20.6 3c0 0 0-2.5 0-2.5c0-1.8-1-2.5-2.8-2.5c-.6 0-1.3.1-2 .2c.05-.03-.5 2.9-.5 2.9c0 0-1.54.04-1.5 0c-.2-.6-.3-1.4-.3-2.1c0-.4 0-.8 0-1c1.4-1 3.4-1.5 5.4-1.5c2.9 0 4.4 1.3 4.4 3.6c0 1.6-.2 6.3-.2 9.2c.05-.01 2.1.4 2.1.4c0 0 .01.89 0 .9c-1.1.4-2.7.6-4.6.6c0 0 0-2.4 0-2.4c-.8 1.4-2.3 2.4-4 2.4c-2.5 0-4-1.3-4-3.6c0-3.5 3.2-4.3 8-4.6zm0 5c0 0 0-3.9 0-3.9c-3.6.2-5.3.8-5.3 3c0 1.6.9 2.4 2.4 2.4c1.2 0 2.3-.6 2.9-1.5zm7.3 1.2c0-1.3.7-2.1 2-2.1c1.4 0 2 .8 2 2.1c0 1.3-.6 2.1-2 2.1c-1.3 0-2-.9-2-2.1z" stroke="none" fill="#404040"/></g><g id="Polygon12692"><path d="m9.1 298.9c0 0 0-2.5 0-2.5c0-1.8-1-2.5-2.8-2.5c-.6 0-1.3 0-2 .1c.03.04-.5 3-.5 3c0 0-1.56 0-1.6 0c-.1-.6-.3-1.4-.3-2.2c0-.3.1-.7.1-.9c1.4-1.1 3.4-1.5 5.4-1.5c2.9 0 4.4 1.2 4.4 3.5c0 1.7-.2 6.4-.2 9.3c.03-.05 2.1.4 2.1.4c0 0-.01.86 0 .9c-1.1.3-2.7.6-4.6.6c0 0 0-2.5 0-2.5c-.8 1.5-2.3 2.5-4 2.5c-2.5 0-4-1.3-4-3.7c0-3.5 3.2-4.2 8-4.5zm0 5c0 0 0-4 0-4c-3.6.3-5.3.9-5.3 3c0 1.7.8 2.5 2.4 2.5c1.2 0 2.3-.7 2.9-1.5zm5.9-9.9c0 0 .02-.99 0-1c1.1-.4 2.8-.6 4.7-.6c0 0 0 10.1 0 10.1c0 1.9.8 2.7 2.7 2.7c1.6 0 2.9-.5 3.8-1.4c-.03.02 0-9.3 0-9.3l-2.1-.5c0 0 .01-.99 0-1c1.1-.4 2.8-.6 4.7-.6c.04 0 0 12.7 0 12.7l2.1.5c0 0 0 .86 0 .9c-1.1.3-2.8.6-4.7.6c0 0 0-2.4 0-2.4c-.9 1.6-2.8 2.5-4.9 2.5c-2.5 0-4.2-1.5-4.2-4.1c-.02-.04 0-8.6 0-8.6l-2.1-.5zm19.6-1.4c0 0 .2-2.9.2-2.9c.6-.1 1.6-.2 2.4-.2c0-.01 0 3.1 0 3.1l3.6 0l0 1.6l-3.7 0c0 0-.02 8.98 0 9c0 1.6.6 2 1.7 2c.7 0 1.3-.2 2-.9c0 0 .6.5.6.5c-.9 1.6-2.2 2.3-3.7 2.3c-2.1 0-3.4-1.1-3.3-3.6c.01.05.1-9.3.1-9.3l-2.2 0c0 0 .05-.95 0-1c.4-.1 1.3-.4 2.3-.6zm22.2 6.3c0 0 0-2.5 0-2.5c0-1.8-.9-2.5-2.8-2.5c-.6 0-1.2 0-1.9.1c-.03.04-.5 3-.5 3c0 0-1.62 0-1.6 0c-.2-.6-.3-1.4-.3-2.2c0-.3 0-.7.1-.9c1.3-1.1 3.4-1.5 5.3-1.5c2.9 0 4.4 1.2 4.4 3.5c0 1.7-.1 6.4-.1 9.3c-.03-.05 2 .4 2 .4c0 0 .03.86 0 .9c-1.1.3-2.6.6-4.6.6c0 0 0-2.5 0-2.5c-.8 1.5-2.2 2.5-4 2.5c-2.5 0-4-1.3-4-3.7c0-3.5 3.2-4.2 8-4.5zm0 5c0 0 0-4 0-4c-3.6.3-5.3.9-5.3 3c0 1.7.9 2.5 2.4 2.5c1.2 0 2.3-.7 2.9-1.5zm6-9.9c0 0-.04-.99 0-1c1.1-.4 2.7-.6 4.7-.6c0 0 0 10.1 0 10.1c0 1.9.7 2.7 2.7 2.7c1.6 0 2.9-.5 3.7-1.4c.01.02 0-9.3 0-9.3l-2.1-.5c0 0 .05-.99 0-1c1.1-.4 2.8-.6 4.8-.6c-.03 0 0 12.7 0 12.7l2 .5c0 0 .03.86 0 .9c-1.1.3-2.8.6-4.7.6c0 0 0-2.4 0-2.4c-.9 1.6-2.7 2.5-4.8 2.5c-2.6 0-4.3-1.5-4.3-4.1c.02-.04 0-8.6 0-8.6l-2-.5zm19.5-1.4c0 0 .2-2.9.2-2.9c.6-.1 1.7-.2 2.4-.2c.03-.01 0 3.1 0 3.1l3.7 0l0 1.6l-3.7 0c0 0-.09 8.98-.1 9c0 1.6.6 2 1.7 2c.8 0 1.3-.2 2.1-.9c0 0 .6.5.6.5c-.9 1.6-2.3 2.3-3.8 2.3c-2.1 0-3.3-1.1-3.3-3.6c.05.05.2-9.3.2-9.3l-2.2 0c0 0-.01-.95 0-1c.4-.1 1.2-.4 2.2-.6zm16.1 12.8c-.02-.04 0-17.7 0-17.7l-2.1-.5c0 0 .02-.98 0-1c1.1-.3 2.8-.6 4.7-.6c0 0 0 9.1 0 9.1c.9-1.5 2.8-2.4 4.9-2.4c2.5 0 4.2 1.4 4.2 4.1c0 0 0 9 0 9c.9 0 1.6.2 2.2.4c.02.05 0 1 0 1l-7 0c0 0-.01-.95 0-1c.6-.2 1.3-.4 2.2-.4c0 0 0-8.4 0-8.4c0-1.8-1-2.7-2.9-2.7c-1.4 0-2.7.5-3.6 1.4c0 0 0 9.7 0 9.7c.9 0 1.6.2 2.2.4c.03.05 0 1 0 1l-7 0c0 0 0-.95 0-1c.6-.2 1.3-.4 2.2-.4zm17.9-18c0-.5.1-.9.1-1.2c.5-.1.9-.1 1.4-.1c.5 0 .9 0 1.3.1c.1.3.1.7.1 1.2c0 1-.1 1.6-.2 2.1c-.4.1-.9.1-1.2.1c-.4 0-.9 0-1.2-.1c-.2-.5-.3-1.1-.3-2.1zm0 18c.01-.04 0-10.9 0-10.9l-2-.5c0 0-.05-.99 0-1c1-.4 2.7-.6 4.7-.6c0 0 0 13 0 13c.8 0 1.6.2 2.2.4c-.04.05 0 1 0 1l-7.1 0c0 0 .03-.95 0-1c.6-.2 1.4-.4 2.2-.4zm8.6 0c.02-.04 0-17.7 0-17.7l-2-.5c0 0-.04-.98 0-1c1-.3 2.7-.6 4.7-.6c0 0 0 19.8 0 19.8c.8 0 1.6.2 2.2.4c-.04.05 0 1 0 1l-7.1 0c0 0 .03-.95 0-1c.6-.2 1.4-.4 2.2-.4zm8.7 0c.04-.04 0-17.7 0-17.7l-2-.5c0 0-.02-.98 0-1c1.1-.3 2.8-.6 4.7-.6c0 0 0 19.8 0 19.8c.9 0 1.6.2 2.2.4c-.01.05 0 1 0 1l-7 0c0 0-.04-.95 0-1c.6-.2 1.3-.4 2.1-.4zm6.1-11.4c0 0 0-.99 0-1c1.1-.4 2.8-.6 4.7-.6c0 0 0 10.1 0 10.1c0 1.9.7 2.7 2.7 2.7c1.6 0 2.9-.5 3.7-1.4c.04.02 0-9.3 0-9.3l-2-.5c0 0-.02-.99 0-1c1.1-.4 2.8-.6 4.7-.6c.01 0 0 12.7 0 12.7l2.1.5c0 0-.03.86 0 .9c-1.1.3-2.8.6-4.8.6c0 0 0-2.4 0-2.4c-.9 1.6-2.7 2.5-4.8 2.5c-2.5 0-4.2-1.5-4.2-4.1c-.04-.04 0-8.6 0-8.6l-2.1-.5zm19.9 17.1c-.03-.04 0-16.6 0-16.6l-2.1-.5c0 0 .01-.99 0-1c1.1-.4 2.8-.6 4.7-.6c0 0 0 2.6 0 2.6c.8-1.6 2.7-2.7 4.5-2.7c3.3 0 5.5 2.4 5.5 6.9c0 5-2.9 8-6.8 8c-1.2 0-2.4-.4-3.2-1c0 0 0 4.9 0 4.9c1.1 0 1.9.2 2.6.4c-.02.04 0 1 0 1l-7.4 0c0 0-.01-.96 0-1c.6-.2 1.3-.4 2.2-.4zm2.6-15.2c0 0 0 9.4 0 9.4c.7.2 1.4.3 2.3.3c2.9 0 4.9-2.2 4.9-6.1c0-3.7-1.5-5.3-3.8-5.3c-1.4 0-2.6.7-3.4 1.7zm14-3.3c0 0 .2-2.9.2-2.9c.6-.1 1.7-.2 2.4-.2c.03-.01 0 3.1 0 3.1l3.7 0l0 1.6l-3.7 0c0 0-.09 8.98-.1 9c0 1.6.6 2 1.7 2c.8 0 1.3-.2 2.1-.9c0 0 .6.5.6.5c-.9 1.6-2.3 2.3-3.8 2.3c-2.1 0-3.3-1.1-3.3-3.6c.05.05.2-9.3.2-9.3l-2.2 0c0 0-.01-.95 0-1c.4-.1 1.2-.4 2.2-.6zm7.8 1.4c0 0 .04-.99 0-1c1.1-.4 2.8-.6 4.8-.6c0 0 0 10.1 0 10.1c0 1.9.7 2.7 2.6 2.7c1.6 0 2.9-.5 3.8-1.4c-.01.02 0-9.3 0-9.3l-2.1-.5c0 0 .03-.99 0-1c1.1-.4 2.8-.6 4.8-.6c-.05 0 0 12.7 0 12.7l2 .5c0 0 .01.86 0 .9c-1.1.3-2.8.6-4.7.6c0 0 0-2.4 0-2.4c-.9 1.6-2.7 2.5-4.9 2.5c-2.5 0-4.2-1.5-4.2-4.1c0-.04 0-8.6 0-8.6l-2.1-.5zm20 11.4c.03-.04 0-10.9 0-10.9l-2-.5c0 0-.03-.99 0-1c1.1-.4 2.8-.6 4.7-.6c0 0 0 2.2 0 2.2c.8-1.3 2.6-2.2 4.2-2.2c.6 0 1.2.1 1.6.2c0 1.6-.3 3.4-.5 4.3c.03-.02-1.5 0-1.5 0l-.4-2.7c0 0-.19.02-.2 0c-1.1 0-2.5.6-3.2 1.4c0 0 0 9.8 0 9.8c1.1 0 2.1.2 2.8.4c-.01.05 0 1 0 1l-7.6 0c0 0-.05-.95 0-1c.6-.2 1.3-.4 2.1-.4zm23.2-13c1.5 0 2.5.5 3.2 1.2c.4-.7 1-1.3 1.5-1.7c.03.02 1.1.1 1.1.1c0 0 .02 19.06 0 19.1c.9 0 1.6.2 2.2.4c0 .04 0 1 0 1l-7.4 0c0 0 .01-.96 0-1c.7-.2 1.7-.4 2.6-.4c0 0 0-6.8 0-6.8c-.8 1.7-2.5 2.8-4.3 2.8c-3.4 0-5.7-2.6-5.7-7.1c0-4.8 2.9-7.6 6.8-7.6zm3.2 11.1c0 0 0-9.2 0-9.2c-.7-.2-1.4-.3-2.3-.3c-3 0-4.9 1.9-4.9 5.7c0 3.7 1.5 5.4 3.9 5.4c1.4 0 2.5-.6 3.3-1.6zm5.8-9.5c0 0-.03-.99 0-1c1.1-.4 2.8-.6 4.7-.6c0 0 0 10.1 0 10.1c0 1.9.7 2.7 2.7 2.7c1.6 0 2.9-.5 3.7-1.4c.02.02 0-9.3 0-9.3l-2-.5c0 0-.04-.99 0-1c1-.4 2.7-.6 4.7-.6c-.02 0 0 12.7 0 12.7l2 .5c0 0 .04.86 0 .9c-1 .3-2.7.6-4.7.6c0 0 0-2.4 0-2.4c-.9 1.6-2.7 2.5-4.8 2.5c-2.6 0-4.3-1.5-4.3-4.1c.03-.04 0-8.6 0-8.6l-2-.5zm25.9 4.9c0 0 0-2.5 0-2.5c0-1.8-1-2.5-2.8-2.5c-.6 0-1.3 0-2 .1c.04.04-.5 3-.5 3c0 0-1.55 0-1.5 0c-.2-.6-.3-1.4-.3-2.2c0-.3 0-.7 0-.9c1.4-1.1 3.4-1.5 5.4-1.5c2.9 0 4.4 1.2 4.4 3.5c0 1.7-.2 6.4-.2 9.3c.04-.05 2.1.4 2.1.4c0 0 0 .86 0 .9c-1.1.3-2.7.6-4.6.6c0 0 0-2.5 0-2.5c-.8 1.5-2.3 2.5-4 2.5c-2.5 0-4-1.3-4-3.7c0-3.5 3.2-4.2 8-4.5zm0 5c0 0 0-4 0-4c-3.6.3-5.3.9-5.3 3c0 1.7.8 2.5 2.4 2.5c1.2 0 2.3-.7 2.9-1.5zm7.5-1.4c.01-.04 1.6 0 1.6 0c0 0 .41 3.08.4 3.1c.7.2 1.4.2 2 .2c1.8 0 3.3-.8 3.3-2.5c0-1.3-.9-1.9-2.6-2.4c0 0-1.7-.5-1.7-.5c-2.1-.6-3.3-1.9-3.3-4c0-2.6 2.2-4.1 5.2-4.1c1.8 0 3.6.5 4.3.9c0 0 0 .4 0 .4c0 1-.2 2.3-.5 3.3c.03-.02-1.5 0-1.5 0c0 0-.43-3.02-.4-3c-.7-.2-1.3-.3-1.9-.3c-1.7 0-2.9.7-2.9 2.2c0 1.4.8 2 2.1 2.4c0 0 1.7.5 1.7.5c2.5.7 3.9 1.7 3.9 4.1c0 2.6-2.3 4.4-5.7 4.4c-1.8 0-3.7-.5-4.5-1c0 0 0-.4 0-.4c.1-1 .2-2.4.5-3.3zm20.4 2.9c-.04-.04 0-10.9 0-10.9l-2.1-.5c0 0 .01-.99 0-1c1.1-.4 2.8-.6 4.7-.6c0 0 0 2.2 0 2.2c.8-1.3 2.6-2.2 4.2-2.2c.6 0 1.2.1 1.6.2c0 1.6-.3 3.4-.4 4.3c-.04-.02-1.6 0-1.6 0l-.4-2.7c0 0-.16.02-.2 0c-1.1 0-2.5.6-3.2 1.4c0 0 0 9.8 0 9.8c1.1 0 2.1.2 2.8.4c.02.05 0 1 0 1l-7.6 0c0 0-.02-.95 0-1c.6-.2 1.3-.4 2.2-.4zm16.5-13c3.4 0 5.3 1.8 5.3 5.2c0 .6 0 .9-.1 1.6c-.02-.01-9.1 0-9.1 0c0 0 0 .23 0 .2c0 4.1 2.1 5.7 4.6 5.7c1.6 0 2.8-.7 3.8-1.8c0 0 .6.5.6.5c-1 1.9-2.7 3.3-5.2 3.3c-3.7 0-6.6-2.2-6.6-7.3c0-4.7 3-7.4 6.7-7.4zm-3.8 5.5c-.01-.05 6.4 0 6.4 0c0 0 .04-.53 0-.5c0-2.6-1.1-3.7-2.7-3.7c-1.8 0-3.3 1.2-3.7 4.2zm25.6 1c0 0 0-2.5 0-2.5c0-1.8-1-2.5-2.8-2.5c-.6 0-1.3 0-2 .1c.03.04-.5 3-.5 3c0 0-1.56 0-1.6 0c-.1-.6-.3-1.4-.3-2.2c0-.3.1-.7.1-.9c1.4-1.1 3.4-1.5 5.4-1.5c2.9 0 4.3 1.2 4.3 3.5c0 1.7-.1 6.4-.1 9.3c.03-.05 2.1.4 2.1.4c0 0-.01.86 0 .9c-1.1.3-2.7.6-4.6.6c0 0 0-2.5 0-2.5c-.8 1.5-2.3 2.5-4 2.5c-2.5 0-4-1.3-4-3.7c0-3.5 3.2-4.2 8-4.5zm0 5c0 0 0-4 0-4c-3.6.3-5.3.9-5.3 3c0 1.7.8 2.5 2.4 2.5c1.2 0 2.2-.7 2.9-1.5zm8.6 1.5c-.02-.04 0-17.7 0-17.7l-2.1-.5c0 0 .02-.98 0-1c1.1-.3 2.8-.6 4.7-.6c0 0 0 19.8 0 19.8c.9 0 1.6.2 2.2.4c.03.05 0 1 0 1l-7 0c0 0 0-.95 0-1c.6-.2 1.3-.4 2.2-.4zm8.8-18c0-.5.1-.9.1-1.2c.5-.1.9-.1 1.4-.1c.5 0 .9 0 1.3.1c.1.3.1.7.1 1.2c0 1-.1 1.6-.2 2.1c-.4.1-.9.1-1.2.1c-.4 0-.9 0-1.2-.1c-.2-.5-.3-1.1-.3-2.1zm0 18c.03-.04 0-10.9 0-10.9l-2-.5c0 0-.03-.99 0-1c1.1-.4 2.8-.6 4.7-.6c0 0 0 13 0 13c.8 0 1.6.2 2.2.4c-.03.05 0 1 0 1l-7.1 0c0 0 .05-.95 0-1c.7-.2 1.4-.4 2.2-.4zm14.7-6.5c0 0 0-2.5 0-2.5c0-1.8-1-2.5-2.8-2.5c-.6 0-1.3 0-2 .1c.03.04-.5 3-.5 3c0 0-1.56 0-1.6 0c-.1-.6-.3-1.4-.3-2.2c0-.3.1-.7.1-.9c1.4-1.1 3.4-1.5 5.4-1.5c2.9 0 4.4 1.2 4.4 3.5c0 1.7-.2 6.4-.2 9.3c.03-.05 2.1.4 2.1.4c0 0-.01.86 0 .9c-1.1.3-2.7.6-4.6.6c0 0 0-2.5 0-2.5c-.8 1.5-2.3 2.5-4 2.5c-2.5 0-4-1.3-4-3.7c0-3.5 3.2-4.2 8-4.5zm0 5c0 0 0-4 0-4c-3.6.3-5.3.9-5.3 3c0 1.7.8 2.5 2.4 2.5c1.2 0 2.3-.7 2.9-1.5z" stroke="none" fill="#404040"/></g><g id="Polygon12691"><path d="m7.9 257.1c3.4 0 5.3 1.8 5.3 5.2c0 .6 0 .8-.1 1.5c-.01.05-9.1 0-9.1 0c0 0 0 .29 0 .3c0 4.1 2.1 5.7 4.6 5.7c1.6 0 2.8-.7 3.8-1.8c0 0 .6.5.6.5c-1 1.9-2.7 3.2-5.2 3.2c-3.7 0-6.6-2.2-6.6-7.2c0-4.8 3-7.4 6.7-7.4zm-3.8 5.4c-.01.01 6.4 0 6.4 0c0 0 .04-.47 0-.5c0-2.5-1-3.6-2.7-3.6c-1.8 0-3.3 1.2-3.7 4.1zm19.5 1c0 0 0-2.4 0-2.4c0-1.9-.9-2.6-2.8-2.6c-.6 0-1.2.1-1.9.2c-.03 0-.5 3-.5 3c0 0-1.62-.03-1.6 0c-.2-.6-.3-1.5-.3-2.2c0-.4 0-.7.1-1c1.3-1 3.4-1.4 5.3-1.4c2.9 0 4.4 1.2 4.4 3.5c0 1.6-.1 6.4-.1 9.2c-.03.01 2 .5 2 .5c0 0 .03.82 0 .8c-1.1.4-2.6.6-4.6.6c0 0 0-2.4 0-2.4c-.8 1.5-2.2 2.4-4 2.4c-2.5 0-4-1.3-4-3.6c0-3.5 3.2-4.3 8-4.6zm0 5c0 0 0-3.9 0-3.9c-3.5.2-5.3.9-5.3 3c0 1.6.9 2.4 2.4 2.4c1.2 0 2.3-.6 2.9-1.5zm13.6-1.4c0 .02 1.6 0 1.6 0c0 0 .4 3.14.4 3.1c.7.2 1.4.3 2 .3c1.8 0 3.3-.8 3.3-2.5c0-1.4-.9-2-2.6-2.5c0 0-1.7-.4-1.7-.4c-2.2-.7-3.3-1.9-3.3-4c0-2.6 2.2-4.2 5.1-4.2c1.9 0 3.7.5 4.4 1c0 0 0 .4 0 .4c0 1-.2 2.3-.5 3.2c.02.04-1.6 0-1.6 0c0 0-.35-2.95-.3-3c-.7-.1-1.4-.2-2-.2c-1.7 0-2.8.7-2.8 2.2c0 1.4.8 2 2.1 2.4c0 0 1.7.5 1.7.5c2.5.7 3.9 1.7 3.9 4.1c0 2.5-2.3 4.3-5.7 4.3c-1.8 0-3.8-.4-4.5-.9c0 0 0-.4 0-.4c0-1 .2-2.4.5-3.4zm18.8-10c3.4 0 5.3 1.8 5.3 5.2c0 .6 0 .8-.1 1.5c-.01.05-9.1 0-9.1 0c0 0 0 .29 0 .3c0 4.1 2.1 5.7 4.6 5.7c1.6 0 2.8-.7 3.8-1.8c0 0 .6.5.6.5c-1 1.9-2.7 3.2-5.2 3.2c-3.7 0-6.6-2.2-6.6-7.2c0-4.8 3-7.4 6.7-7.4zm-3.8 5.4c-.01.01 6.4 0 6.4 0c0 0 .04-.47 0-.5c0-2.5-1-3.6-2.7-3.6c-1.8 0-3.3 1.2-3.7 4.1zm18.4-5.4c1.5 0 2.6.4 3.2 1.1c.4-.6 1.1-1.3 1.6-1.6c-.04-.02 1.1.1 1.1.1c0 0-.05 19.02 0 19c.8.1 1.5.3 2.1.5c.03.01 0 1 0 1l-7.4 0c0 0 .04-.99 0-1c.8-.2 1.7-.4 2.6-.5c0 0 0-6.7 0-6.7c-.8 1.6-2.4 2.7-4.3 2.7c-3.3 0-5.6-2.5-5.6-7c0-4.9 2.9-7.6 6.7-7.6zm3.2 11c0 0 0-9.1 0-9.1c-.6-.2-1.3-.4-2.3-.4c-2.9 0-4.9 2-4.9 5.7c0 3.8 1.5 5.5 3.9 5.5c1.4 0 2.5-.6 3.3-1.7zm5.8-9.5c0 0 0-.93 0-.9c1.1-.4 2.8-.6 4.7-.6c0 0 0 10 0 10c0 2 .8 2.8 2.7 2.8c1.6 0 2.9-.5 3.7-1.4c.05-.02 0-9.4 0-9.4l-2-.5c0 0-.01-.93 0-.9c1.1-.4 2.8-.6 4.7-.6c.01-.04 0 12.7 0 12.7l2.1.5c0 0-.03.82 0 .8c-1.1.4-2.8.6-4.8.6c0 0 0-2.3 0-2.3c-.9 1.6-2.7 2.4-4.8 2.4c-2.5 0-4.2-1.4-4.2-4.1c-.04.02 0-8.6 0-8.6l-2.1-.5zm25.9 4.9c0 0 0-2.4 0-2.4c0-1.9-.9-2.6-2.8-2.6c-.6 0-1.2.1-1.9.2c-.03 0-.5 3-.5 3c0 0-1.62-.03-1.6 0c-.2-.6-.3-1.5-.3-2.2c0-.4 0-.7.1-1c1.3-1 3.4-1.4 5.3-1.4c2.9 0 4.4 1.2 4.4 3.5c0 1.6-.1 6.4-.1 9.2c-.03.01 2 .5 2 .5c0 0 .03.82 0 .8c-1.1.4-2.6.6-4.6.6c0 0 0-2.4 0-2.4c-.8 1.5-2.2 2.4-4 2.4c-2.5 0-4-1.3-4-3.6c0-3.5 3.2-4.3 8-4.6zm0 5c0 0 0-3.9 0-3.9c-3.5.2-5.3.9-5.3 3c0 1.6.9 2.4 2.4 2.4c1.2 0 2.3-.6 2.9-1.5zm26.4 1.5c0 0 0-8.3 0-8.3c0-1.9-.8-2.7-2.6-2.7c-1.4 0-2.7.5-3.5 1.3c0 0 0 9.7 0 9.7c.8.1 1.5.3 2.1.5c.04.01 0 1 0 1l-7 0c0 0 .02-.99 0-1c.6-.2 1.4-.4 2.2-.5c0 0 0-8.3 0-8.3c0-1.9-.8-2.7-2.7-2.7c-1.4 0-2.6.5-3.5 1.3c0 0 0 9.7 0 9.7c.9.1 1.6.3 2.2.5c0 .01 0 1 0 1l-7 0c0 0-.03-.99 0-1c.6-.2 1.3-.4 2.2-.5c-.05.03 0-10.9 0-10.9l-2.1-.5c0 0-.01-.93 0-.9c1.1-.4 2.8-.6 4.7-.6c0 0 0 2.3 0 2.3c.9-1.6 2.7-2.5 4.9-2.5c2 0 3.2 1 3.7 2.7c1-1.6 2.8-2.7 5.1-2.7c2.6 0 4 1.5 4 4.2c0 0 0 8.9 0 8.9c.9.1 1.6.3 2.2.5c-.01.01 0 1 0 1l-7 0c0 0-.04-.99 0-1c.6-.2 1.3-.4 2.1-.5zm19.9-12.9c1.5 0 2.5.4 3.2 1.1c.4-.6 1.1-1.3 1.5-1.6c.04-.02 1.1.1 1.1.1c0 0 .03 19.02 0 19c.9.1 1.6.3 2.2.5c.01.01 0 1 0 1l-7.4 0c0 0 .02-.99 0-1c.7-.2 1.7-.4 2.6-.5c0 0 0-6.7 0-6.7c-.8 1.6-2.5 2.7-4.3 2.7c-3.4 0-5.7-2.5-5.7-7c0-4.9 2.9-7.6 6.8-7.6zm3.2 11c0 0 0-9.1 0-9.1c-.7-.2-1.4-.4-2.3-.4c-2.9 0-4.9 2-4.9 5.7c0 3.8 1.5 5.5 3.9 5.5c1.4 0 2.5-.6 3.3-1.7zm5.8-9.5c0 0-.02-.93 0-.9c1.1-.4 2.8-.6 4.7-.6c0 0 0 10 0 10c0 2 .7 2.8 2.7 2.8c1.6 0 2.9-.5 3.7-1.4c.03-.02 0-9.4 0-9.4l-2-.5c0 0-.03-.93 0-.9c1.1-.4 2.8-.6 4.7-.6c-.01-.04 0 12.7 0 12.7l2.1.5c0 0-.05.82 0 .8c-1.1.4-2.8.6-4.8.6c0 0 0-2.3 0-2.3c-.9 1.6-2.7 2.4-4.8 2.4c-2.6 0-4.3-1.4-4.3-4.1c.04.02 0-8.6 0-8.6l-2-.5zm20-6.5c0-.5 0-.9.1-1.2c.4-.1.8-.1 1.3-.1c.5 0 .9 0 1.4.1c0 .3.1.7.1 1.2c0 1-.1 1.6-.3 2.1c-.3 0-.8.1-1.2.1c-.3 0-.8-.1-1.2-.1c-.1-.5-.2-1.1-.2-2.1zm0 17.9c-.03.03 0-10.9 0-10.9l-2.1-.5c0 0 .01-.93 0-.9c1.1-.4 2.8-.6 4.7-.6c0 0 0 12.9 0 12.9c.9.1 1.6.3 2.2.5c.02.01 0 1 0 1l-7 0c0 0-.01-.99 0-1c.6-.2 1.3-.4 2.2-.5zm13.5-2.9c.04.02 1.6 0 1.6 0c0 0 .44 3.14.4 3.1c.7.2 1.4.3 2 .3c1.9 0 3.3-.8 3.3-2.5c0-1.4-.9-2-2.5-2.5c0 0-1.7-.4-1.7-.4c-2.2-.7-3.4-1.9-3.4-4c0-2.6 2.3-4.2 5.2-4.2c1.8 0 3.6.5 4.3 1c0 0 0 .4 0 .4c0 1-.1 2.3-.4 3.2c-.04.04-1.6 0-1.6 0c0 0-.41-2.95-.4-3c-.6-.1-1.3-.2-1.9-.2c-1.7 0-2.9.7-2.9 2.2c0 1.4.8 2 2.2 2.4c0 0 1.7.5 1.7.5c2.4.7 3.8 1.7 3.8 4.1c0 2.5-2.3 4.3-5.7 4.3c-1.8 0-3.7-.4-4.4-.9c0 0 0-.4 0-.4c0-1 .1-2.4.4-3.4zm14.1-15c0-.5.1-.9.1-1.2c.4-.1.9-.1 1.3-.1c.5 0 1 0 1.4.1c0 .3.1.7.1 1.2c0 1-.1 1.6-.2 2.1c-.4 0-.9.1-1.3.1c-.3 0-.8-.1-1.2-.1c-.1-.5-.2-1.1-.2-2.1zm0 17.9c-.01.03 0-10.9 0-10.9l-2.1-.5c0 0 .03-.93 0-.9c1.1-.4 2.8-.6 4.8-.6c0 0 0 12.9 0 12.9c.8.1 1.5.3 2.1.5c.04.01 0 1 0 1l-7 0c0 0 .01-.99 0-1c.6-.2 1.3-.4 2.2-.5zm14.4-12.8c0 0 .1-2.8.1-2.8c.6-.1 1.7-.2 2.5-.2c-.04-.05-.1 3.1-.1 3.1l3.7 0l0 1.6l-3.7 0c0 0-.06 8.95-.1 8.9c0 1.6.6 2.1 1.7 2.1c.8 0 1.3-.3 2.1-1c0 0 .6.5.6.5c-.9 1.6-2.2 2.3-3.8 2.3c-2.1 0-3.3-1-3.2-3.5c-.03.01.1-9.3.1-9.3l-2.2 0c0 0 .01-.99 0-1c.4-.1 1.2-.4 2.3-.7zm14.9-.1c4.2 0 6.4 2.3 6.4 7.2c0 4.7-2.8 7.4-6.7 7.4c-4.2 0-6.3-2.4-6.3-7.2c0-4.8 2.6-7.4 6.6-7.4zm3.5 7.5c0-4.2-1.2-6.2-3.6-6.2c-2.2 0-3.6 1.5-3.6 5.7c0 4.4 1.3 6.3 3.6 6.3c2.2 0 3.6-1.6 3.6-5.8zm6.9-7.4c0 0 .2-2.8.2-2.8c.6-.1 1.6-.2 2.4-.2c-.02-.05-.1 3.1-.1 3.1l3.7 0l0 1.6l-3.7 0c0 0-.04 8.95 0 8.9c0 1.6.6 2.1 1.7 2.1c.7 0 1.3-.3 2-1c0 0 .6.5.6.5c-.9 1.6-2.2 2.3-3.7 2.3c-2.2 0-3.4-1-3.3-3.5c-.01.01.1-9.3.1-9.3l-2.2 0c0 0 .03-.99 0-1c.4-.1 1.2-.4 2.3-.7zm16.6 6.3c0 0 0-2.4 0-2.4c0-1.9-.9-2.6-2.8-2.6c-.6 0-1.2.1-1.9.2c-.02 0-.5 3-.5 3c0 0-1.61-.03-1.6 0c-.2-.6-.3-1.5-.3-2.2c0-.4 0-.7.1-1c1.3-1 3.4-1.4 5.3-1.4c2.9 0 4.4 1.2 4.4 3.5c0 1.6-.1 6.4-.1 9.2c-.02.01 2 .5 2 .5c0 0 .04.82 0 .8c-1.1.4-2.6.6-4.6.6c0 0 0-2.4 0-2.4c-.8 1.5-2.2 2.4-4 2.4c-2.4 0-4-1.3-4-3.6c0-3.5 3.2-4.3 8-4.6zm0 5c0 0 0-3.9 0-3.9c-3.5.2-5.3.9-5.3 3c0 1.6.9 2.4 2.4 2.4c1.2 0 2.3-.6 2.9-1.5zm26.4 1.5c0 0 0-8.3 0-8.3c0-1.9-.8-2.7-2.6-2.7c-1.4 0-2.7.5-3.5 1.3c0 0 0 9.7 0 9.7c.8.1 1.5.3 2.1.5c.05.01 0 1 0 1l-7 0c0 0 .02-.99 0-1c.6-.2 1.4-.4 2.2-.5c0 0 0-8.3 0-8.3c0-1.9-.8-2.7-2.7-2.7c-1.4 0-2.6.5-3.5 1.3c0 0 0 9.7 0 9.7c.9.1 1.6.3 2.2.5c0 .01 0 1 0 1l-7 0c0 0-.02-.99 0-1c.6-.2 1.3-.4 2.2-.5c-.04.03 0-10.9 0-10.9l-2.1-.5c0 0 0-.93 0-.9c1.1-.4 2.8-.6 4.7-.6c0 0 0 2.3 0 2.3c.9-1.6 2.7-2.5 4.9-2.5c2 0 3.2 1 3.7 2.7c1-1.6 2.8-2.7 5.1-2.7c2.6 0 4 1.5 4 4.2c0 0 0 8.9 0 8.9c.9.1 1.6.3 2.2.5c-.01.01 0 1 0 1l-7 0c0 0-.04-.99 0-1c.6-.2 1.3-.4 2.1-.5zm19.9-13.1c1.5 0 2.5.5 3.2 1.1c-.03.03 0-5.7 0-5.7l-2.5-.4c0 0 .04-1.02 0-1c1.1-.4 3.2-.6 5.1-.6c.03-.02 0 19.5 0 19.5l2.1.5c0 0-.01.82 0 .8c-1.1.4-2.8.6-4.7.6c0 0 0-2.6 0-2.6c-.8 1.7-2.4 2.7-4.3 2.7c-3.4 0-5.7-2.6-5.7-7.1c0-4.9 2.9-7.8 6.8-7.8zm3.2 11.4c0 0 0-9.5 0-9.5c-.7-.1-1.4-.3-2.3-.3c-2.9 0-4.9 2.1-4.9 5.8c0 3.8 1.5 5.6 3.9 5.6c1.4 0 2.5-.6 3.3-1.6zm6-9.7c0 0 .02-.93 0-.9c1.1-.4 2.8-.6 4.7-.6c0 0 0 10 0 10c0 2 .8 2.8 2.7 2.8c1.6 0 2.9-.5 3.8-1.4c-.03-.02 0-9.4 0-9.4l-2.1-.5c0 0 .01-.93 0-.9c1.1-.4 2.8-.6 4.7-.6c.04-.04 0 12.7 0 12.7l2.1.5c0 0 0 .82 0 .8c-1.1.4-2.8.6-4.7.6c0 0 0-2.3 0-2.3c-.9 1.6-2.8 2.4-4.9 2.4c-2.5 0-4.2-1.4-4.2-4.1c-.02.02 0-8.6 0-8.6l-2.1-.5zm18.8 8.5c0 .02 1.6 0 1.6 0c0 0 .4 3.14.4 3.1c.7.2 1.4.3 2 .3c1.8 0 3.3-.8 3.3-2.5c0-1.4-.9-2-2.6-2.5c0 0-1.7-.4-1.7-.4c-2.1-.7-3.3-1.9-3.3-4c0-2.6 2.2-4.2 5.2-4.2c1.8 0 3.6.5 4.3 1c0 0 0 .4 0 .4c0 1-.2 2.3-.5 3.2c.03.04-1.5 0-1.5 0c0 0-.44-2.95-.4-3c-.7-.1-1.3-.2-1.9-.2c-1.7 0-2.9.7-2.9 2.2c0 1.4.8 2 2.1 2.4c0 0 1.7.5 1.7.5c2.5.7 3.9 1.7 3.9 4.1c0 2.5-2.3 4.3-5.7 4.3c-1.8 0-3.8-.4-4.5-.9c0 0 0-.4 0-.4c0-1 .2-2.4.5-3.4zm14.4.5c1.3 0 2 1 2 2.9c0 1.5-.9 4.3-3.5 5.3c0 0-.6-1-.6-1c1.2-.8 2-2 2.1-3.6c-.2.1-.3 0-.4 0c-.9 0-1.6-.7-1.6-1.7c0-1.1.7-1.9 2-1.9zm11.8-.5c-.03.02 1.5 0 1.5 0c0 0 .47 3.14.5 3.1c.6.2 1.3.3 2 .3c1.8 0 3.2-.8 3.2-2.5c0-1.4-.9-2-2.5-2.5c0 0-1.7-.4-1.7-.4c-2.2-.7-3.3-1.9-3.3-4c0-2.6 2.2-4.2 5.1-4.2c1.8 0 3.7.5 4.4 1c0 0 0 .4 0 .4c0 1-.2 2.3-.5 3.2c0 .04-1.6 0-1.6 0c0 0-.37-2.95-.4-3c-.6-.1-1.3-.2-1.9-.2c-1.7 0-2.8.7-2.8 2.2c0 1.4.7 2 2.1 2.4c0 0 1.7.5 1.7.5c2.5.7 3.9 1.7 3.9 4.1c0 2.5-2.3 4.3-5.7 4.3c-1.8 0-3.8-.4-4.5-.9c0 0 0-.4 0-.4c0-1 .2-2.4.5-3.4zm11.4-8.5c0 0-.04-.93 0-.9c1.1-.4 2.7-.6 4.7-.6c0 0 0 10 0 10c0 2 .7 2.8 2.7 2.8c1.6 0 2.9-.5 3.7-1.4c.01-.02 0-9.4 0-9.4l-2-.5c0 0-.05-.93 0-.9c1-.4 2.7-.6 4.7-.6c-.02-.04 0 12.7 0 12.7l2 .5c0 0 .04.82 0 .8c-1.1.4-2.8.6-4.7.6c0 0 0-2.3 0-2.3c-.9 1.6-2.7 2.4-4.8 2.4c-2.6 0-4.3-1.4-4.3-4.1c.02.02 0-8.6 0-8.6l-2-.5zm18.7 8.5c.04.02 1.6 0 1.6 0c0 0 .44 3.14.4 3.1c.7.2 1.4.3 2 .3c1.9 0 3.3-.8 3.3-2.5c0-1.4-.9-2-2.5-2.5c0 0-1.7-.4-1.7-.4c-2.2-.7-3.4-1.9-3.4-4c0-2.6 2.3-4.2 5.2-4.2c1.8 0 3.6.5 4.4 1c0 0 0 .4 0 .4c-.1 1-.2 2.3-.5 3.2c-.03.04-1.6 0-1.6 0c0 0-.4-2.95-.4-3c-.6-.1-1.3-.2-1.9-.2c-1.7 0-2.9.7-2.9 2.2c0 1.4.8 2 2.2 2.4c0 0 1.7.5 1.7.5c2.4.7 3.8 1.7 3.8 4.1c0 2.5-2.3 4.3-5.7 4.3c-1.8 0-3.7-.4-4.4-.9c0 0 0-.4 0-.4c0-1 .1-2.4.4-3.4z" stroke="none" fill="#404040"/></g><g id="Polygon12690"><path d="m3 234.7c.03-.01 0-17.7 0-17.7l-2-.5c0 0-.03-.96 0-1c1.1-.3 2.8-.6 4.7-.6c0 0 0 19.8 0 19.8c.8 0 1.6.2 2.2.5c-.02-.03 0 .9 0 .9l-7.1 0c0 0 .05-.93 0-.9c.7-.3 1.4-.5 2.2-.5zm8.9-17.9c0-.5 0-1 .1-1.3c.4 0 .8-.1 1.3-.1c.5 0 .9.1 1.4.1c0 .3.1.8.1 1.3c0 .9-.1 1.5-.3 2c-.3.1-.8.1-1.2.1c-.3 0-.8 0-1.2-.1c-.1-.5-.2-1.1-.2-2zm0 17.9c-.03-.01 0-10.9 0-10.9l-2.1-.5c0 0 .01-.97 0-1c1.1-.3 2.8-.6 4.7-.6c0 0 0 13 0 13c.9 0 1.6.2 2.2.5c.02-.03 0 .9 0 .9l-7 0c0 0-.01-.93 0-.9c.6-.3 1.3-.5 2.2-.5zm13.3-13c1.6 0 3.2.5 3.9 1c0 1.1-.2 2.6-.5 3.6c-.01.03-1.6 0-1.6 0c0 0-.41-3.09-.4-3.1c-.5-.1-1.1-.1-1.5-.1c-2.2 0-4.1 1.5-4.1 5.7c0 3.7 1.8 5.6 4.2 5.6c1.6 0 2.7-.7 3.6-1.8c0 0 .6.5.6.5c-.9 2-2.5 3.3-5 3.3c-3.7 0-6.2-2.6-6.2-7.3c0-4.8 3-7.4 7-7.4zm13.9.2c0 0 .2-2.8.2-2.8c.6-.2 1.6-.3 2.4-.3c-.02.02-.1 3.2-.1 3.2l3.7 0l0 1.5l-3.7 0c0 0-.04 9.01 0 9c0 1.6.6 2.1 1.7 2.1c.7 0 1.3-.3 2-1c0 0 .6.5.6.5c-.9 1.6-2.2 2.3-3.7 2.3c-2.2 0-3.4-1-3.3-3.5c-.01-.03.1-9.4.1-9.4l-2.2 0c0 0 .03-.93 0-.9c.4-.2 1.2-.5 2.3-.7zm14.9-.2c3.4 0 5.4 1.8 5.4 5.2c0 .6 0 .9-.2 1.6c.05.01-9 0-9 0c0 0-.04.25 0 .3c0 4.1 2 5.6 4.6 5.6c1.5 0 2.8-.7 3.7-1.8c0 0 .6.5.6.5c-.9 2-2.6 3.3-5.2 3.3c-3.6 0-6.5-2.2-6.5-7.3c0-4.7 3-7.4 6.6-7.4zm-3.7 5.5c-.05-.02 6.4 0 6.4 0c0 0 0-.51 0-.5c0-2.6-1.1-3.6-2.8-3.6c-1.8 0-3.3 1.1-3.6 4.1zm31 7.5c0 0 0-8.4 0-8.4c0-1.8-.9-2.6-2.7-2.6c-1.4 0-2.6.4-3.5 1.3c0 0 0 9.7 0 9.7c.9 0 1.6.2 2.2.5c0-.03 0 .9 0 .9l-7 0c0 0-.03-.93 0-.9c.6-.3 1.3-.5 2.2-.5c0 0 0-8.4 0-8.4c0-1.8-.9-2.6-2.7-2.6c-1.4 0-2.7.4-3.5 1.3c0 0 0 9.7 0 9.7c.8 0 1.5.2 2.2.5c-.05-.03 0 .9 0 .9l-7.1 0c0 0 .03-.93 0-.9c.6-.3 1.4-.5 2.2-.5c.01-.01 0-10.9 0-10.9l-2.1-.5c0 0 .05-.97 0-1c1.1-.3 2.8-.6 4.8-.6c0 0 0 2.4 0 2.4c.9-1.6 2.7-2.5 4.8-2.5c2 0 3.3.9 3.8 2.6c.9-1.5 2.8-2.6 5.1-2.6c2.5 0 4 1.5 4 4.1c0 0 0 9 0 9c.8 0 1.5.2 2.1.5c.04-.03 0 .9 0 .9l-7 0c0 0 .02-.93 0-.9c.6-.3 1.3-.5 2.2-.5zm12.7-11.4c0 0 .02-.97 0-1c1.1-.3 2.8-.6 4.7-.6c0 0 0 10.1 0 10.1c0 1.9.8 2.8 2.7 2.8c1.6 0 2.9-.6 3.8-1.5c-.03.04 0-9.3 0-9.3l-2.1-.5c0 0 .01-.97 0-1c1.1-.3 2.8-.6 4.7-.6c.03.02 0 12.7 0 12.7l2.1.5c0 0-.01.88 0 .9c-1.1.3-2.8.6-4.7.6c0 0 0-2.3 0-2.3c-.9 1.5-2.8 2.4-4.9 2.4c-2.5 0-4.2-1.4-4.2-4.1c-.02-.01 0-8.6 0-8.6l-2.1-.5zm20 11.4c.01-.01 0-10.9 0-10.9l-2-.5c0 0-.05-.97 0-1c1-.3 2.7-.6 4.7-.6c0 0 0 2.4 0 2.4c.9-1.6 2.7-2.5 4.8-2.5c2.6 0 4.3 1.5 4.3 4.1c0 0 0 9 0 9c.8 0 1.5.2 2.1.5c.04-.03 0 .9 0 .9l-7 0c0 0 .02-.93 0-.9c.6-.3 1.3-.5 2.2-.5c0 0 0-8.4 0-8.4c0-1.8-1-2.6-2.9-2.6c-1.4 0-2.7.4-3.5 1.3c0 0 0 9.7 0 9.7c.8 0 1.6.2 2.2.5c-.04-.03 0 .9 0 .9l-7.1 0c0 0 .03-.93 0-.9c.6-.3 1.4-.5 2.2-.5zm17.5-12.8c0 0 .2-2.8.2-2.8c.6-.2 1.7-.3 2.4-.3c.02.02 0 3.2 0 3.2l3.7 0l0 1.5l-3.7 0c0 0-.1 9.01-.1 9c0 1.6.6 2.1 1.7 2.1c.8 0 1.3-.3 2.1-1c0 0 .6.5.6.5c-.9 1.6-2.3 2.3-3.8 2.3c-2.1 0-3.3-1-3.3-3.5c.04-.03.2-9.4.2-9.4l-2.2 0c0 0-.02-.93 0-.9c.4-.2 1.2-.5 2.2-.7zm11 10.4c1.4 0 2.1 1 2.1 2.8c0 1.6-.9 4.4-3.5 5.3c0 0-.6-.9-.6-.9c1.2-.8 2-2.1 2-3.6c-.1 0-.2 0-.3 0c-.9 0-1.6-.7-1.6-1.7c0-1.1.6-1.9 1.9-1.9zm11.9-.5c-.04-.02 1.5 0 1.5 0c0 0 .46 3.1.5 3.1c.6.2 1.3.3 2 .3c1.8 0 3.2-.9 3.2-2.6c0-1.3-.9-1.9-2.5-2.4c0 0-1.7-.5-1.7-.5c-2.2-.6-3.3-1.9-3.3-4c0-2.6 2.2-4.1 5.1-4.1c1.8 0 3.6.5 4.4 1c0 0 0 .3 0 .3c-.1 1.1-.2 2.4-.5 3.3c-.02.01-1.6 0-1.6 0c0 0-.39-2.99-.4-3c-.6-.1-1.3-.3-1.9-.3c-1.7 0-2.8.8-2.8 2.2c0 1.5.7 2 2.1 2.4c0 0 1.7.5 1.7.5c2.5.8 3.8 1.7 3.8 4.1c0 2.6-2.3 4.4-5.6 4.4c-1.9 0-3.8-.5-4.5-1c0 0 0-.3 0-.3c0-1.1.2-2.5.5-3.4zm14-15c0-.5.1-1 .1-1.3c.5 0 .9-.1 1.4-.1c.4 0 .9.1 1.3.1c.1.3.1.8.1 1.3c0 .9-.1 1.5-.2 2c-.4.1-.9.1-1.2.1c-.4 0-.9 0-1.2-.1c-.2-.5-.3-1.1-.3-2zm0 17.9c.01-.01 0-10.9 0-10.9l-2-.5c0 0-.05-.97 0-1c1-.3 2.7-.6 4.7-.6c0 0 0 13 0 13c.8 0 1.6.2 2.2.5c-.04-.03 0 .9 0 .9l-7.1 0c0 0 .03-.93 0-.9c.6-.3 1.4-.5 2.2-.5zm19.8-13.1c1.4 0 2.4.5 3.1 1.1c.01-.01 0-5.7 0-5.7l-2.4-.5c0 0-.01-.96 0-1c1.1-.3 3.1-.6 5.1-.6c-.02.04 0 19.5 0 19.5l2 .5c0 0 .04.88 0 .9c-1.1.3-2.8.6-4.7.6c0 0 0-2.7 0-2.7c-.8 1.7-2.4 2.8-4.2 2.8c-3.4 0-5.7-2.7-5.7-7.1c0-4.9 2.9-7.8 6.8-7.8zm3.1 11.3c0 0 0-9.4 0-9.4c-.6-.2-1.3-.3-2.3-.3c-2.9 0-4.8 2-4.8 5.8c0 3.7 1.4 5.6 3.8 5.6c1.4 0 2.6-.7 3.3-1.7zm13.1-11.2c4.2 0 6.4 2.4 6.4 7.3c0 4.7-2.8 7.4-6.8 7.4c-4.1 0-6.3-2.4-6.3-7.3c0-4.7 2.7-7.4 6.7-7.4zm3.5 7.5c0-4.1-1.3-6.1-3.6-6.1c-2.3 0-3.7 1.5-3.7 5.7c0 4.3 1.3 6.3 3.7 6.3c2.2 0 3.6-1.6 3.6-5.9zm6.7 5.5c-.03-.01 0-17.7 0-17.7l-2.1-.5c0 0 .01-.96 0-1c1.1-.3 2.8-.6 4.7-.6c0 0 0 19.8 0 19.8c.9 0 1.6.2 2.2.5c.02-.03 0 .9 0 .9l-7 0c0 0-.01-.93 0-.9c.6-.3 1.3-.5 2.2-.5zm13.1-13c3.4 0 5.3 1.8 5.3 5.2c0 .6 0 .9-.1 1.6c-.03.01-9.1 0-9.1 0c0 0-.02.25 0 .3c0 4.1 2 5.6 4.6 5.6c1.6 0 2.8-.7 3.7-1.8c0 0 .6.5.6.5c-.9 2-2.6 3.3-5.2 3.3c-3.6 0-6.5-2.2-6.5-7.3c0-4.7 3-7.4 6.7-7.4zm-3.8 5.5c-.03-.02 6.4 0 6.4 0c0 0 .02-.51 0-.5c0-2.6-1.1-3.6-2.8-3.6c-1.8 0-3.3 1.1-3.6 4.1zm12.1 4.6c.02-.02 1.6 0 1.6 0c0 0 .42 3.1.4 3.1c.7.2 1.4.3 2 .3c1.8 0 3.3-.9 3.3-2.6c0-1.3-.9-1.9-2.6-2.4c0 0-1.7-.5-1.7-.5c-2.1-.6-3.3-1.9-3.3-4c0-2.6 2.3-4.1 5.2-4.1c1.8 0 3.6.5 4.3 1c0 0 0 .3 0 .3c0 1.1-.2 2.4-.5 3.3c.04.01-1.5 0-1.5 0c0 0-.43-2.99-.4-3c-.7-.1-1.3-.3-1.9-.3c-1.7 0-2.9.8-2.9 2.2c0 1.5.8 2 2.1 2.4c0 0 1.7.5 1.7.5c2.5.8 3.9 1.7 3.9 4.1c0 2.6-2.3 4.4-5.7 4.4c-1.8 0-3.7-.5-4.5-1c0 0 0-.3 0-.3c.1-1.1.2-2.5.5-3.4zm18.8-10.1c3.4 0 5.3 1.8 5.3 5.2c0 .6 0 .9-.1 1.6c.01.01-9.1 0-9.1 0c0 0 .02.25 0 .3c0 4.1 2.1 5.6 4.6 5.6c1.6 0 2.8-.7 3.8-1.8c0 0 .6.5.6.5c-1 2-2.7 3.3-5.2 3.3c-3.7 0-6.6-2.2-6.6-7.3c0-4.7 3.1-7.4 6.7-7.4zm-3.8 5.5c.01-.02 6.5 0 6.5 0c0 0-.04-.51 0-.5c0-2.6-1.1-3.6-2.8-3.6c-1.8 0-3.3 1.1-3.7 4.1zm18.5-5.6c1.4 0 2.4.5 3.1 1.1c.01-.01 0-5.7 0-5.7l-2.4-.5c0 0-.01-.96 0-1c1.1-.3 3.1-.6 5.1-.6c-.03.04 0 19.5 0 19.5l2 .5c0 0 .03.88 0 .9c-1.1.3-2.8.6-4.7.6c0 0 0-2.7 0-2.7c-.8 1.7-2.4 2.8-4.2 2.8c-3.4 0-5.7-2.7-5.7-7.1c0-4.9 2.9-7.8 6.8-7.8zm3.1 11.3c0 0 0-9.4 0-9.4c-.6-.2-1.3-.3-2.3-.3c-2.9 0-4.8 2-4.8 5.8c0 3.7 1.4 5.6 3.8 5.6c1.4 0 2.6-.7 3.3-1.7zm19.9-11.2c1.5 0 2.5.5 3.2 1.2c.4-.6 1-1.3 1.5-1.7c0 .04 1.1.2 1.1.2c0 0-.01 18.98 0 19c.8 0 1.6.2 2.2.5c-.02-.03 0 .9 0 .9l-7.4 0c0 0-.02-.93 0-.9c.7-.3 1.7-.5 2.5-.5c0 0 0-6.7 0-6.7c-.7 1.6-2.4 2.7-4.2 2.7c-3.4 0-5.7-2.6-5.7-7c0-4.9 2.9-7.7 6.8-7.7zm3.1 11.1c0 0 0-9.2 0-9.2c-.6-.1-1.3-.3-2.3-.3c-2.9 0-4.8 1.9-4.8 5.7c0 3.7 1.4 5.4 3.9 5.4c1.4 0 2.5-.5 3.2-1.6zm5.8-9.5c0 0 .04-.97 0-1c1.1-.3 2.8-.6 4.8-.6c0 0 0 10.1 0 10.1c0 1.9.7 2.8 2.6 2.8c1.6 0 2.9-.6 3.8-1.5c-.01.04 0-9.3 0-9.3l-2.1-.5c0 0 .03-.97 0-1c1.1-.3 2.8-.6 4.8-.6c-.04.02 0 12.7 0 12.7l2 .5c0 0 .02.88 0 .9c-1.1.3-2.8.6-4.7.6c0 0 0-2.3 0-2.3c-.9 1.5-2.7 2.4-4.9 2.4c-2.5 0-4.2-1.4-4.2-4.1c0-.01 0-8.6 0-8.6l-2.1-.5zm24.6-1.6c3.4 0 5.4 1.8 5.4 5.2c0 .6 0 .9-.1 1.6c-.05.01-9.1 0-9.1 0c0 0-.04.25 0 .3c0 4.1 2 5.6 4.6 5.6c1.5 0 2.8-.7 3.7-1.8c0 0 .6.5.6.5c-.9 2-2.6 3.3-5.2 3.3c-3.6 0-6.5-2.2-6.5-7.3c0-4.7 3-7.4 6.6-7.4zm-3.7 5.5c-.05-.02 6.4 0 6.4 0c0 0 .01-.51 0-.5c0-2.6-1.1-3.6-2.8-3.6c-1.8 0-3.3 1.1-3.6 4.1zm16.7-4.3c0 .04 0-.9 0-.9l6.2 0c0 0-.02.94 0 .9c-.6.3-1.3.5-2.1.5c-.04.02 3.5 9.4 3.5 9.4c0 0 3.58-9.38 3.6-9.4c-.8-.1-1.4-.2-2-.5c.01.04 0-.9 0-.9l5.2 0c0 0 .02.94 0 .9c-.5.2-.8.4-1.3.5c.02-.04-5.2 12.7-5.2 12.7l-1.6 0c0 0-5.02-12.74-5-12.7c-.5-.1-.9-.3-1.3-.5zm21.8-1.2c3.4 0 5.3 1.8 5.3 5.2c0 .6 0 .9-.1 1.6c.02.01-9.1 0-9.1 0c0 0 .04.25 0 .3c0 4.1 2.1 5.6 4.6 5.6c1.6 0 2.8-.7 3.8-1.8c0 0 .6.5.6.5c-1 2-2.7 3.3-5.2 3.3c-3.6 0-6.6-2.2-6.6-7.3c0-4.7 3.1-7.4 6.7-7.4zm-3.8 5.5c.03-.02 6.5 0 6.5 0c0 0-.02-.51 0-.5c0-2.6-1.1-3.6-2.8-3.6c-1.8 0-3.3 1.1-3.7 4.1zm12.9 7.5c0-.01 0-17.7 0-17.7l-2.1-.5c0 0 .04-.96 0-1c1.1-.3 2.8-.6 4.8-.6c0 0 0 19.8 0 19.8c.8 0 1.5.2 2.1.5c.05-.03 0 .9 0 .9l-7 0c0 0 .02-.93 0-.9c.6-.3 1.4-.5 2.2-.5z" stroke="none" fill="#404040"/></g><g id="Polygon12689"><path d="m7.9 186.4c4.2 0 6.4 2.3 6.4 7.3c0 4.6-2.9 7.3-6.8 7.3c-4.2 0-6.3-2.3-6.3-7.2c0-4.8 2.6-7.4 6.7-7.4zm3.5 7.5c0-4.2-1.3-6.2-3.6-6.2c-2.3 0-3.7 1.6-3.7 5.7c0 4.4 1.3 6.3 3.7 6.3c2.2 0 3.6-1.5 3.6-5.8zm16.2 5.4c-.04.05 0-11.1 0-11.1l-6.7 0c0 0 .03 11.15 0 11.1c1.1.1 1.9.3 2.6.5c.01.03 0 1 0 1l-7.4 0c0 0 .01-.97 0-1c.6-.2 1.3-.4 2.2-.5c0 .05 0-11.1 0-11.1l-2.1 0c0 0 .04-.97 0-1c.4-.1 1.2-.4 2.1-.6c0 0 0-1.2 0-1.2c0-3 2.1-5.1 5.8-5.1c1.8 0 3.4.4 4.7 1.2c1.1-1.2 2.9-1.9 5.2-1.9c2.4 0 4.3.6 5.3 1.1c0 0 0 .7 0 .7c0 1-.1 1.7-.2 2.2c-.4.1-.8.1-1.1.1c-.4 0-.7 0-1.1-.1c0 0-.3-2.6-.3-2.6c-.5-.2-1.1-.3-2.1-.3c-2.9 0-4.3 1.6-4.3 4.5c0-.03 0 1.5 0 1.5c0 0 5.15.05 5.1 0c1.1-.2 2.4-.3 3.9-.3c0 0 0 12.9 0 12.9c.8.1 1.6.3 2.2.5c-.02.03 0 1 0 1l-7.1 0c0 0 .05-.97 0-1c.7-.2 1.4-.4 2.3-.5c-.04.05 0-11.1 0-11.1l-6.4 0c0 0 0 11.15 0 11.1c1.1.1 1.8.3 2.6.5c-.03.03 0 1 0 1l-7.4 0c0 0-.02-.97 0-1c.6-.2 1.3-.4 2.2-.5zm.6-16.9c-.7-.4-2-.7-3.5-.7c-2.5 0-3.8 1.3-3.8 3.6c.03-.01 0 1.4 0 1.4l6.7 0c0 0-.04-1.28 0-1.3c0-1.1.2-2.1.6-3zm21.7 4c1.5 0 3.1.5 3.8 1c0 1-.1 2.5-.4 3.6c-.05-.01-1.6 0-1.6 0c0 0-.45-3.13-.4-3.1c-.6-.1-1.1-.2-1.6-.2c-2.1 0-4.1 1.6-4.1 5.7c0 3.8 1.8 5.7 4.3 5.7c1.5 0 2.6-.7 3.6-1.8c0 0 .6.5.6.5c-1 1.9-2.5 3.2-5.1 3.2c-3.6 0-6.2-2.5-6.2-7.2c0-4.9 3.1-7.4 7.1-7.4zm8.2-5c0-.5.1-.9.1-1.2c.4-.1.9-.1 1.4-.1c.4 0 .9 0 1.3.1c0 .3.1.7.1 1.2c0 1-.1 1.6-.2 2.1c-.4.1-.9.1-1.2.1c-.4 0-.9 0-1.3-.1c-.1-.5-.2-1.1-.2-2.1zm0 17.9c0 .05 0-10.9 0-10.9l-2.1-.4c0 0 .04-1.01 0-1c1.1-.4 2.8-.6 4.8-.6c0 0 0 12.9 0 12.9c.8.1 1.5.3 2.1.5c.04.03 0 1 0 1l-7 0c0 0 .02-.97 0-1c.6-.2 1.3-.4 2.2-.5zm13-12.9c3.4 0 5.3 1.8 5.3 5.2c0 .6 0 .8-.1 1.6c-.03-.03-9.1 0-9.1 0c0 0-.02.21 0 .2c0 4.1 2 5.7 4.6 5.7c1.6 0 2.8-.7 3.7-1.8c0 0 .6.5.6.5c-.9 1.9-2.6 3.2-5.2 3.2c-3.6 0-6.5-2.1-6.5-7.2c0-4.7 3-7.4 6.7-7.4zm-3.8 5.4c-.03.04 6.4 0 6.4 0c0 0 .03-.45 0-.4c0-2.6-1.1-3.7-2.8-3.7c-1.7 0-3.3 1.2-3.6 4.1zm13.3 7.5c.03.05 0-10.9 0-10.9l-2-.4c0 0-.03-1.01 0-1c1.1-.4 2.8-.6 4.7-.6c0 0 0 2.3 0 2.3c.9-1.5 2.7-2.4 4.8-2.4c2.6 0 4.3 1.4 4.3 4.1c0 0 0 8.9 0 8.9c.8.1 1.6.3 2.2.5c-.03.03 0 1 0 1l-7.1 0c0 0 .04-.97 0-1c.6-.2 1.4-.4 2.2-.5c0 0 0-8.3 0-8.3c0-1.8-.9-2.7-2.9-2.7c-1.4 0-2.7.5-3.5 1.4c0 0 0 9.6 0 9.6c.8.1 1.6.3 2.2.5c-.02.03 0 1 0 1l-7 0c0 0-.05-.97 0-1c.6-.2 1.3-.4 2.1-.5zm18-17.9c0-.5 0-.9.1-1.2c.4-.1.8-.1 1.3-.1c.5 0 .9 0 1.4.1c0 .3.1.7.1 1.2c0 1-.1 1.6-.3 2.1c-.3.1-.8.1-1.2.1c-.3 0-.8 0-1.2-.1c-.1-.5-.2-1.1-.2-2.1zm0 17.9c-.04.05 0-10.9 0-10.9l-2.1-.4c0 0 0-1.01 0-1c1.1-.4 2.8-.6 4.7-.6c0 0 0 12.9 0 12.9c.9.1 1.6.3 2.2.5c.01.03 0 1 0 1l-7 0c0 0-.02-.97 0-1c.6-.2 1.3-.4 2.2-.5zm7.2-2.9c.03.04 1.6 0 1.6 0c0 0 .43 3.16.4 3.2c.7.1 1.4.2 2 .2c1.8 0 3.3-.8 3.3-2.5c0-1.3-.9-1.9-2.5-2.4c0 0-1.7-.5-1.7-.5c-2.2-.7-3.4-1.9-3.4-4c0-2.6 2.3-4.1 5.2-4.1c1.8 0 3.6.4 4.3.9c0 0 0 .4 0 .4c0 1-.1 2.3-.4 3.3c-.04-.03-1.6 0-1.6 0c0 0-.41-3.03-.4-3c-.6-.2-1.3-.3-1.9-.3c-1.7 0-2.9.7-2.9 2.2c0 1.4.8 2 2.2 2.4c0 0 1.6.5 1.6.5c2.5.7 3.9 1.7 3.9 4.1c0 2.5-2.3 4.4-5.7 4.4c-1.8 0-3.7-.5-4.5-1c0 0 0-.4 0-.4c.1-1 .2-2.4.5-3.4zm20.4 2.9c-.01.05 0-10.9 0-10.9l-2.1-.4c0 0 .03-1.01 0-1c1.1-.4 2.8-.6 4.8-.6c0 0 0 2.2 0 2.2c.7-1.3 2.5-2.2 4.1-2.2c.6 0 1.2.1 1.6.2c0 1.6-.2 3.4-.4 4.3c-.02-.03-1.6 0-1.6 0l-.4-2.7c0 0-.14 0-.1 0c-1.2 0-2.6.5-3.2 1.4c0 0 0 9.7 0 9.7c1 .1 2 .3 2.7.5c.04.03 0 1 0 1l-7.6 0c0 0 .01-.97 0-1c.6-.2 1.3-.4 2.2-.5zm16.5-12.9c3.4 0 5.3 1.8 5.3 5.2c0 .6 0 .8-.1 1.6c.01-.03-9.1 0-9.1 0c0 0 .02.21 0 .2c0 4.1 2.1 5.7 4.6 5.7c1.6 0 2.8-.7 3.8-1.8c0 0 .6.5.6.5c-1 1.9-2.7 3.2-5.2 3.2c-3.7 0-6.6-2.1-6.6-7.2c0-4.7 3.1-7.4 6.7-7.4zm-3.8 5.4c.01.04 6.5 0 6.5 0c0 0-.04-.45 0-.4c0-2.6-1.1-3.7-2.8-3.7c-1.8 0-3.3 1.2-3.7 4.1zm12.2 4.6c-.04.04 1.5 0 1.5 0c0 0 .46 3.16.5 3.2c.6.1 1.3.2 2 .2c1.8 0 3.2-.8 3.2-2.5c0-1.3-.9-1.9-2.5-2.4c0 0-1.7-.5-1.7-.5c-2.2-.7-3.3-1.9-3.3-4c0-2.6 2.2-4.1 5.1-4.1c1.8 0 3.6.4 4.4.9c0 0 0 .4 0 .4c-.1 1-.2 2.3-.5 3.3c-.02-.03-1.6 0-1.6 0c0 0-.39-3.03-.4-3c-.6-.2-1.3-.3-1.9-.3c-1.7 0-2.8.7-2.8 2.2c0 1.4.7 2 2.1 2.4c0 0 1.7.5 1.7.5c2.5.7 3.8 1.7 3.8 4.1c0 2.5-2.3 4.4-5.6 4.4c-1.9 0-3.8-.5-4.5-1c0 0 0-.4 0-.4c0-1 .2-2.4.5-3.4zm26.2-3.6c0 0 0-2.4 0-2.4c0-1.8-.9-2.6-2.7-2.6c-.6 0-1.3.1-2 .2c-.01.02-.5 3-.5 3c0 0-1.6-.01-1.6 0c-.2-.6-.3-1.5-.3-2.2c0-.4 0-.7.1-1c1.4-1 3.4-1.4 5.4-1.4c2.9 0 4.3 1.2 4.3 3.5c0 1.7-.1 6.4-.1 9.2c-.01.04 2.1.5 2.1.5c0 0-.05.84 0 .8c-1.1.4-2.7.6-4.7.6c0 0 0-2.4 0-2.4c-.7 1.5-2.2 2.4-4 2.4c-2.4 0-3.9-1.3-3.9-3.6c0-3.5 3.1-4.3 7.9-4.6zm0 5c0 0 0-3.9 0-3.9c-3.5.2-5.3.9-5.3 3c0 1.7.9 2.4 2.4 2.4c1.2 0 2.3-.6 2.9-1.5zm5.7-16.6c0 0 .04-.99 0-1c1.1-.4 2.8-.6 4.8-.6c0 0 0 9.5 0 9.5c.8-1.6 2.6-2.7 4.5-2.7c3.2 0 5.4 2.3 5.4 6.8c0 4.9-2.9 7.8-6.8 7.8c-1.3 0-2.6-.4-3.4-1.1c-.01.02-1.2 1-1.2 1l-1.2 0l0-19.2l-2.1-.5zm4.8 8.8c0 0 0 9.2 0 9.2c.6.2 1.4.3 2.3.3c2.9 0 4.8-2.1 4.8-6c0-3.7-1.4-5.2-3.7-5.2c-1.4 0-2.7.7-3.4 1.7zm19.4-3.6c4.1 0 6.4 2.3 6.4 7.3c0 4.6-2.9 7.3-6.8 7.3c-4.2 0-6.3-2.3-6.3-7.2c0-4.8 2.6-7.4 6.7-7.4zm3.5 7.5c0-4.2-1.3-6.2-3.7-6.2c-2.2 0-3.6 1.6-3.6 5.7c0 4.4 1.3 6.3 3.6 6.3c2.3 0 3.7-1.5 3.7-5.8zm5.5 5.1c0-1.2.6-2.1 2-2.1c1.3 0 2 .9 2 2.1c0 1.3-.7 2.2-2 2.2c-1.4 0-2-.9-2-2.2zm15.2.2c0 0 0-16.2 0-16.2c-1-.1-1.8-.2-2.4-.5c-.04.01 0-1.1 0-1.1c0 0 8.68.02 8.7 0c5.3 0 9.2 3.3 9.2 9.1c0 6.8-4 10.3-9.7 10.3c0 0-8.2 0-8.2 0c0 0-.04-1.09 0-1.1c.6-.2 1.4-.4 2.4-.5zm2.9.1c0 0 2.54.05 2.5 0c4.4 0 7.1-2.8 7.1-8.4c0-5.4-2.8-8-7.1-8c.04-.03-2.5 0-2.5 0l0 16.4zm14.8-11.3c0 0-.03-1.01 0-1c1.1-.4 2.8-.6 4.7-.6c0 0 0 10 0 10c0 2 .7 2.8 2.7 2.8c1.6 0 2.9-.5 3.7-1.4c.02 0 0-9.4 0-9.4l-2-.4c0 0-.04-1.01 0-1c1.1-.4 2.7-.6 4.7-.6c-.01-.01 0 12.7 0 12.7l2 .5c0 0 .05.84 0 .8c-1 .4-2.7.6-4.7.6c0 0 0-2.3 0-2.3c-.9 1.6-2.7 2.5-4.8 2.5c-2.6 0-4.3-1.5-4.3-4.2c.03.05 0-8.6 0-8.6l-2-.4zm24.9-1.6c1.6 0 3.2.5 3.9 1c0 1-.1 2.5-.5 3.6c.02-.01-1.6 0-1.6 0c0 0-.37-3.13-.4-3.1c-.5-.1-1-.2-1.5-.2c-2.2 0-4.1 1.6-4.1 5.7c0 3.8 1.8 5.7 4.2 5.7c1.6 0 2.7-.7 3.7-1.8c0 0 .6.5.6.5c-1 1.9-2.6 3.2-5.1 3.2c-3.7 0-6.2-2.5-6.2-7.2c0-4.9 3-7.4 7-7.4zm8.3-5c0-.5 0-.9.1-1.2c.4-.1.8-.1 1.3-.1c.5 0 .9 0 1.4.1c0 .3.1.7.1 1.2c0 1-.1 1.6-.3 2.1c-.3.1-.8.1-1.2.1c-.3 0-.8 0-1.2-.1c-.1-.5-.2-1.1-.2-2.1zm0 17.9c-.03.05 0-10.9 0-10.9l-2.1-.4c0 0 .01-1.01 0-1c1.1-.4 2.8-.6 4.7-.6c0 0 0 12.9 0 12.9c.9.1 1.6.3 2.2.5c.02.03 0 1 0 1l-7 0c0 0-.01-.97 0-1c.6-.2 1.3-.4 2.2-.5zm14.6-6.5c0 0 0-2.4 0-2.4c0-1.8-.9-2.6-2.8-2.6c-.6 0-1.2.1-1.9.2c-.02.02-.5 3-.5 3c0 0-1.61-.01-1.6 0c-.2-.6-.3-1.5-.3-2.2c0-.4 0-.7.1-1c1.3-1 3.4-1.4 5.3-1.4c2.9 0 4.4 1.2 4.4 3.5c0 1.7-.1 6.4-.1 9.2c-.02.04 2 .5 2 .5c0 0 .04.84 0 .8c-1.1.4-2.6.6-4.6.6c0 0 0-2.4 0-2.4c-.8 1.5-2.2 2.4-4 2.4c-2.5 0-4-1.3-4-3.6c0-3.5 3.2-4.3 8-4.6zm0 5c0 0 0-3.9 0-3.9c-3.5.2-5.3.9-5.3 3c0 1.7.9 2.4 2.4 2.4c1.2 0 2.3-.6 2.9-1.5zm7.5-1.4c.04.04 1.6 0 1.6 0c0 0 .44 3.16.4 3.2c.7.1 1.4.2 2 .2c1.9 0 3.3-.8 3.3-2.5c0-1.3-.9-1.9-2.5-2.4c0 0-1.7-.5-1.7-.5c-2.2-.7-3.4-1.9-3.4-4c0-2.6 2.3-4.1 5.2-4.1c1.8 0 3.6.4 4.4.9c0 0 0 .4 0 .4c-.1 1-.2 2.3-.5 3.3c-.03-.03-1.6 0-1.6 0c0 0-.4-3.03-.4-3c-.6-.2-1.3-.3-1.9-.3c-1.7 0-2.9.7-2.9 2.2c0 1.4.8 2 2.2 2.4c0 0 1.7.5 1.7.5c2.4.7 3.8 1.7 3.8 4.1c0 2.5-2.3 4.4-5.7 4.4c-1.8 0-3.7-.5-4.4-1c0 0 0-.4 0-.4c0-1 .1-2.4.4-3.4zm13.6 8.6c.01.04 0-16.6 0-16.6l-2-.4c0 0-.05-1.01 0-1c1-.4 2.7-.6 4.7-.6c0 0 0 2.6 0 2.6c.8-1.6 2.6-2.7 4.5-2.7c3.2 0 5.4 2.4 5.4 6.9c0 4.9-2.9 8-6.8 8c-1.2 0-2.4-.4-3.1-1c0 0 0 4.8 0 4.8c1.1.1 1.8.3 2.5.5c.02.03 0 1 0 1l-7.4 0c0 0 .03-.97 0-1c.6-.2 1.4-.4 2.2-.5zm2.7-15.2c0 0 0 9.5 0 9.5c.6.2 1.4.3 2.3.3c2.9 0 4.8-2.2 4.8-6.1c0-3.7-1.4-5.3-3.7-5.3c-1.4 0-2.7.7-3.4 1.6zm14.4-8.4c0-.5.1-.9.1-1.2c.4-.1.9-.1 1.4-.1c.4 0 .9 0 1.3.1c0 .3.1.7.1 1.2c0 1-.1 1.6-.2 2.1c-.4.1-.9.1-1.2.1c-.4 0-.9 0-1.3-.1c-.1-.5-.2-1.1-.2-2.1zm0 17.9c0 .05 0-10.9 0-10.9l-2.1-.4c0 0 .04-1.01 0-1c1.1-.4 2.8-.6 4.8-.6c0 0 0 12.9 0 12.9c.8.1 1.5.3 2.1.5c.04.03 0 1 0 1l-7 0c0 0 .02-.97 0-1c.6-.2 1.3-.4 2.2-.5zm13.3-12.9c1.6 0 3.2.5 3.9 1c0 1-.2 2.5-.5 3.6c.02-.01-1.6 0-1.6 0c0 0-.38-3.13-.4-3.1c-.5-.1-1-.2-1.5-.2c-2.2 0-4.1 1.6-4.1 5.7c0 3.8 1.8 5.7 4.2 5.7c1.6 0 2.7-.7 3.7-1.8c0 0 .6.5.6.5c-1 1.9-2.6 3.2-5.1 3.2c-3.7 0-6.2-2.5-6.2-7.2c0-4.9 3-7.4 7-7.4zm13.9.1c0 0 .2-2.8.2-2.8c.6-.1 1.6-.2 2.4-.2c0-.02 0 3.1 0 3.1l3.6 0l0 1.6l-3.7 0c0 0-.02 8.97 0 9c0 1.5.6 2 1.7 2c.7 0 1.3-.2 2-.9c0 0 .6.4.6.4c-.9 1.6-2.2 2.3-3.7 2.3c-2.1 0-3.3-1-3.3-3.5c.01.03.1-9.3.1-9.3l-2.1 0c0 0-.04-.97 0-1c.3-.1 1.2-.4 2.2-.7zm15-.1c3.4 0 5.3 1.8 5.3 5.2c0 .6 0 .8-.1 1.6c-.03-.03-9.1 0-9.1 0c0 0-.02.21 0 .2c0 4.1 2 5.7 4.6 5.7c1.6 0 2.8-.7 3.7-1.8c0 0 .6.5.6.5c-.9 1.9-2.6 3.2-5.2 3.2c-3.6 0-6.5-2.1-6.5-7.2c0-4.7 3-7.4 6.7-7.4zm-3.8 5.4c-.03.04 6.4 0 6.4 0c0 0 .03-.45 0-.4c0-2.6-1.1-3.7-2.8-3.7c-1.7 0-3.3 1.2-3.6 4.1z" stroke="none" fill="#404040"/></g><g id="Polygon12688"><path d="m8.2 151c1.6 0 3.2.5 3.9 1c0 1.1-.1 2.6-.5 3.7c.03-.05-1.5 0-1.5 0c0 0-.47-3.17-.5-3.2c-.5-.1-1-.1-1.5-.1c-2.2 0-4.1 1.6-4.1 5.7c0 3.7 1.8 5.7 4.2 5.7c1.6 0 2.7-.8 3.7-1.8c0 0 .6.4.6.4c-1 2-2.6 3.3-5.1 3.3c-3.6 0-6.2-2.5-6.2-7.3c0-4.8 3-7.4 7-7.4zm12.9 0c4.2 0 6.4 2.4 6.4 7.3c0 4.7-2.8 7.4-6.8 7.4c-4.2 0-6.3-2.4-6.3-7.3c0-4.7 2.7-7.4 6.7-7.4zm3.5 7.6c0-4.2-1.3-6.2-3.6-6.2c-2.3 0-3.7 1.5-3.7 5.7c0 4.3 1.3 6.3 3.7 6.3c2.2 0 3.6-1.6 3.6-5.8zm7 5.4c.02.01 0-10.9 0-10.9l-2-.5c0 0-.04-.95 0-.9c1.1-.4 2.7-.7 4.7-.7c0 0 0 2.3 0 2.3c.8-1.4 2.6-2.3 4.2-2.3c.6 0 1.2.2 1.5.3c0 1.6-.2 3.4-.4 4.2c.02.03-1.6 0-1.6 0l-.3-2.6c0 0-.2-.04-.2 0c-1.2 0-2.5.5-3.2 1.4c0 0 0 9.7 0 9.7c1.1.1 2 .3 2.8.5c-.03 0 0 1 0 1l-7.7 0c0 0 .04-1 0-1c.6-.2 1.4-.4 2.2-.5zm16.5-13c3.4 0 5.4 1.9 5.4 5.3c0 .6 0 .8-.2 1.5c.04.03-9 0-9 0c0 0-.05.27 0 .3c0 4.1 2 5.7 4.6 5.7c1.5 0 2.7-.8 3.7-1.8c0 0 .6.4.6.4c-1 2-2.6 3.3-5.2 3.3c-3.6 0-6.5-2.2-6.5-7.3c0-4.7 3-7.4 6.6-7.4zm-3.8 5.5c.04 0 6.5 0 6.5 0c0 0 0-.49 0-.5c0-2.5-1.1-3.6-2.8-3.6c-1.8 0-3.3 1.2-3.7 4.1zm13.4 7.5c0 .01 0-10.9 0-10.9l-2.1-.5c0 0 .04-.95 0-.9c1.1-.4 2.8-.7 4.8-.7c0 0 0 2.4 0 2.4c.8-1.6 2.7-2.5 4.8-2.5c2.6 0 4.3 1.5 4.3 4.1c0 0 0 9 0 9c.8.1 1.5.3 2.1.5c.04 0 0 1 0 1l-7 0c0 0 .01-1 0-1c.6-.2 1.3-.4 2.2-.5c0 0 0-8.3 0-8.3c0-1.9-1-2.7-2.9-2.7c-1.4 0-2.7.4-3.5 1.3c0 0 0 9.7 0 9.7c.8.1 1.5.3 2.1.5c.05 0 0 1 0 1l-7 0c0 0 .02-1 0-1c.6-.2 1.4-.4 2.2-.5zm22.7-13.1c1.5 0 2.5.5 3.2 1.1c-.03.02 0-5.7 0-5.7l-2.5-.5c0 0 .05-.93 0-.9c1.1-.4 3.2-.6 5.1-.6c.04-.04 0 19.5 0 19.5l2.1.5c0 0 0 .8 0 .8c-1.1.4-2.8.6-4.7.6c0 0 0-2.6 0-2.6c-.8 1.6-2.4 2.7-4.3 2.7c-3.4 0-5.7-2.6-5.7-7.1c0-4.9 2.9-7.8 6.8-7.8zm3.2 11.4c0 0 0-9.5 0-9.5c-.7-.1-1.4-.3-2.3-.3c-2.9 0-4.9 2.1-4.9 5.8c0 3.8 1.5 5.6 3.9 5.6c1.4 0 2.5-.6 3.3-1.6zm14.8-4.8c0 0 0-2.5 0-2.5c0-1.8-1-2.5-2.8-2.5c-.6 0-1.3.1-2 .2c0-.02-.5 3-.5 3c0 0-1.59-.05-1.6 0c-.2-.7-.3-1.5-.3-2.2c0-.4 0-.8.1-1c1.4-1 3.4-1.5 5.4-1.5c2.9 0 4.3 1.3 4.3 3.6c0 1.6-.1 6.4-.1 9.2c0 0 2.1.5 2.1.5c0 0-.04.8 0 .8c-1.1.4-2.7.6-4.6.6c0 0 0-2.4 0-2.4c-.8 1.4-2.3 2.4-4 2.4c-2.5 0-4-1.3-4-3.6c0-3.5 3.1-4.3 8-4.6zm0 5c0 0 0-3.9 0-3.9c-3.6.2-5.4.8-5.4 3c0 1.6.9 2.4 2.4 2.4c1.2 0 2.3-.6 3-1.5zm13.2-11.5c3.4 0 5.3 1.9 5.3 5.3c0 .6 0 .8-.1 1.5c-.03.03-9.1 0-9.1 0c0 0-.02.27 0 .3c0 4.1 2 5.7 4.6 5.7c1.6 0 2.8-.8 3.7-1.8c0 0 .6.4.6.4c-.9 2-2.6 3.3-5.2 3.3c-3.6 0-6.5-2.2-6.5-7.3c0-4.7 3-7.4 6.7-7.4zm-3.8 5.5c-.03 0 6.4 0 6.4 0c0 0 .02-.49 0-.5c0-2.5-1.1-3.6-2.8-3.6c-1.8 0-3.3 1.2-3.6 4.1zm11.7 7.2c0-1.3.7-2.1 2-2.1c1.3 0 2 .8 2 2.1c0 1.3-.7 2.1-2 2.1c-1.3 0-2-.9-2-2.1zm12.5-15.6c0-.7.1-1.3.3-2c0 0 15.7 0 15.7 0c.2.7.3 1.3.3 2c0 1-.1 2.3-.3 3.1c.03-.03-1.3 0-1.3 0l-.7-3.7l-4.4 0c0 0 .01 16.39 0 16.4c1.2.1 2.4.2 3 .5c.03-.03 0 1.1 0 1.1l-8.9 0c0 0-.03-1.13 0-1.1c.6-.3 1.8-.4 3-.5c0-.01 0-16.4 0-16.4l-4.4 0l-.7 3.7c0 0-1.32-.03-1.3 0c-.2-.8-.3-2.1-.3-3.1zm17.5 4.5c0 0-.02-.95 0-.9c1.1-.4 2.8-.7 4.7-.7c0 0 0 10.1 0 10.1c0 1.9.7 2.8 2.7 2.8c1.6 0 2.9-.6 3.7-1.4c.03-.03 0-9.4 0-9.4l-2-.5c0 0-.03-.95 0-.9c1.1-.4 2.8-.7 4.7-.7c-.01.05 0 12.8 0 12.8l2.1.5c0 0-.05.8 0 .8c-1.1.4-2.8.6-4.8.6c0 0 0-2.3 0-2.3c-.9 1.5-2.7 2.4-4.8 2.4c-2.6 0-4.3-1.4-4.3-4.1c.04.01 0-8.6 0-8.6l-2-.5zm37.7 11.4c0 0 0-8.3 0-8.3c0-1.9-.9-2.7-2.7-2.7c-1.4 0-2.7.4-3.5 1.3c0 0 0 9.7 0 9.7c.8.1 1.6.3 2.2.5c-.04 0 0 1 0 1l-7.1 0c0 0 .04-1 0-1c.6-.2 1.4-.4 2.2-.5c0 0 0-8.3 0-8.3c0-1.9-.8-2.7-2.6-2.7c-1.4 0-2.7.4-3.6 1.3c0 0 0 9.7 0 9.7c.9.1 1.6.3 2.2.5c.02 0 0 1 0 1l-7 0c0 0-.01-1 0-1c.6-.2 1.3-.4 2.2-.5c-.03.01 0-10.9 0-10.9l-2.1-.5c0 0 .01-.95 0-.9c1.1-.4 2.8-.7 4.7-.7c0 0 0 2.4 0 2.4c.9-1.6 2.8-2.5 4.9-2.5c2 0 3.3 1 3.7 2.7c1-1.6 2.8-2.7 5.1-2.7c2.6 0 4 1.5 4 4.1c0 0 0 9 0 9c.9.1 1.6.3 2.2.5c.01 0 0 1 0 1l-7 0c0 0-.02-1 0-1c.6-.2 1.3-.4 2.2-.5zm19.8-13.1c1.5 0 2.5.5 3.2 1.1c-.02.02 0-5.7 0-5.7l-2.4-.5c0 0-.04-.93 0-.9c1-.4 3.1-.6 5-.6c.05-.04 0 19.5 0 19.5l2.1.5c0 0 .01.8 0 .8c-1.1.4-2.8.6-4.7.6c0 0 0-2.6 0-2.6c-.8 1.6-2.4 2.7-4.3 2.7c-3.4 0-5.7-2.6-5.7-7.1c0-4.9 3-7.8 6.8-7.8zm3.2 11.4c0 0 0-9.5 0-9.5c-.7-.1-1.4-.3-2.3-.3c-2.9 0-4.9 2.1-4.9 5.8c0 3.8 1.5 5.6 3.9 5.6c1.4 0 2.5-.6 3.3-1.6zm13.1-11.3c4.1 0 6.4 2.4 6.4 7.3c0 4.7-2.9 7.4-6.8 7.4c-4.2 0-6.3-2.4-6.3-7.3c0-4.7 2.6-7.4 6.7-7.4zm3.5 7.6c0-4.2-1.3-6.2-3.7-6.2c-2.2 0-3.6 1.5-3.6 5.7c0 4.3 1.3 6.3 3.6 6.3c2.3 0 3.7-1.6 3.7-5.8zm6.6 5.4c.05.01 0-17.7 0-17.7l-2-.5c0 0-.01-.93 0-.9c1.1-.4 2.8-.6 4.7-.6c0 0 0 19.7 0 19.7c.9.1 1.6.3 2.2.5c-.01 0 0 1 0 1l-7 0c0 0-.04-1 0-1c.6-.2 1.3-.4 2.1-.5zm6.1-11.4c0 0 0-.95 0-.9c1.1-.4 2.8-.7 4.7-.7c0 0 0 10.1 0 10.1c0 1.9.8 2.8 2.7 2.8c1.6 0 2.9-.6 3.7-1.4c.05-.03 0-9.4 0-9.4l-2-.5c0 0-.01-.95 0-.9c1.1-.4 2.8-.7 4.7-.7c.02.05 0 12.8 0 12.8l2.1.5c0 0-.02.8 0 .8c-1.1.4-2.8.6-4.8.6c0 0 0-2.3 0-2.3c-.9 1.5-2.7 2.4-4.8 2.4c-2.5 0-4.2-1.4-4.2-4.1c-.04.01 0-8.6 0-8.6l-2.1-.5zm19.9 17.1c-.03.01 0-16.6 0-16.6l-2.1-.5c0 0 .01-.95 0-.9c1.1-.4 2.8-.7 4.7-.7c0 0 0 2.7 0 2.7c.8-1.7 2.7-2.8 4.5-2.8c3.3 0 5.5 2.4 5.5 6.9c0 5-2.9 8-6.8 8c-1.2 0-2.4-.3-3.2-.9c0 0 0 4.8 0 4.8c1.1.1 1.9.2 2.6.5c-.02-.01 0 1 0 1l-7.4 0c0 0-.01-1.01 0-1c.6-.3 1.3-.4 2.2-.5zm2.6-15.2c0 0 0 9.5 0 9.5c.7.2 1.4.3 2.3.3c2.9 0 4.9-2.2 4.9-6.1c0-3.8-1.5-5.3-3.8-5.3c-1.4 0-2.6.6-3.4 1.6zm14-3.3c0 0 .2-2.8.2-2.8c.6-.1 1.7-.3 2.4-.3c.04.04 0 3.2 0 3.2l3.7 0l0 1.6l-3.7 0c0 0-.08 8.93-.1 8.9c0 1.6.6 2.1 1.7 2.1c.8 0 1.3-.3 2.1-1c0 0 .6.5.6.5c-.9 1.6-2.3 2.3-3.8 2.3c-2.1 0-3.3-1-3.2-3.5c-.05-.01.1-9.3.1-9.3l-2.2 0c0 0-.01-1.01 0-1c.4-.2 1.2-.5 2.2-.7zm7.8 1.4c0 0 .05-.95 0-.9c1.1-.4 2.8-.7 4.8-.7c0 0 0 10.1 0 10.1c0 1.9.7 2.8 2.6 2.8c1.6 0 2.9-.6 3.8-1.4c-.01-.03 0-9.4 0-9.4l-2.1-.5c0 0 .03-.95 0-.9c1.1-.4 2.8-.7 4.8-.7c-.04.05 0 12.8 0 12.8l2 .5c0 0 .02.8 0 .8c-1.1.4-2.8.6-4.7.6c0 0 0-2.3 0-2.3c-.9 1.5-2.7 2.4-4.9 2.4c-2.5 0-4.2-1.4-4.2-4.1c.01.01 0-8.6 0-8.6l-2.1-.5zm20 11.4c.04.01 0-10.9 0-10.9l-2-.5c0 0-.02-.95 0-.9c1.1-.4 2.8-.7 4.7-.7c0 0 0 2.3 0 2.3c.8-1.4 2.6-2.3 4.2-2.3c.6 0 1.2.2 1.6.3c0 1.6-.3 3.4-.5 4.2c.04.03-1.5 0-1.5 0l-.4-2.6c0 0-.18-.04-.2 0c-1.1 0-2.5.5-3.2 1.4c0 0 0 9.7 0 9.7c1.1.1 2.1.3 2.8.5c-.01 0 0 1 0 1l-7.6 0c0 0-.04-1 0-1c.6-.2 1.3-.4 2.1-.5zm11.3-2.4c1.3 0 2 1 2 2.8c0 1.6-.8 4.4-3.5 5.4c0 0-.6-1-.6-1c1.3-.8 2-2 2.1-3.6c-.1.1-.3 0-.4 0c-.9 0-1.6-.7-1.6-1.7c0-1.1.7-1.9 2-1.9z" stroke="none" fill="#404040"/></g><g id="Polygon12687"><path d="m8.1 115.6c1.5 0 2.5.4 3.2 1.1c-.03-.02 0-5.7 0-5.7l-2.5-.5c0 0 .04-.97 0-1c1.1-.3 3.2-.6 5.1-.6c.03.02 0 19.5 0 19.5l2.1.5c0 0-.01.86 0 .9c-1.1.3-2.8.6-4.7.6c0 0 0-2.7 0-2.7c-.8 1.7-2.4 2.8-4.3 2.8c-3.4 0-5.7-2.7-5.7-7.2c0-4.8 2.9-7.7 6.8-7.7zm3.2 11.3c0 0 0-9.4 0-9.4c-.7-.2-1.4-.3-2.3-.3c-2.9 0-4.9 2-4.9 5.8c0 3.7 1.5 5.6 3.9 5.6c1.4 0 2.5-.7 3.3-1.7zm13.1-11.2c4.1 0 6.4 2.4 6.4 7.3c0 4.6-2.9 7.4-6.8 7.4c-4.2 0-6.3-2.4-6.3-7.3c0-4.8 2.6-7.4 6.7-7.4zm3.5 7.5c0-4.1-1.3-6.2-3.7-6.2c-2.2 0-3.6 1.6-3.6 5.7c0 4.4 1.3 6.3 3.6 6.3c2.3 0 3.7-1.5 3.7-5.8zm6.6 5.5c.03-.03 0-17.7 0-17.7l-2-.5c0 0-.03-.97 0-1c1.1-.3 2.8-.6 4.7-.6c0 0 0 19.8 0 19.8c.8 0 1.6.2 2.2.5c-.02-.04 0 .9 0 .9l-7 0c0 0-.05-.94 0-.9c.6-.3 1.3-.5 2.1-.5zm6.1-11.4c0 0-.01-.99 0-1c1.1-.3 2.8-.6 4.7-.6c0 0 0 10.1 0 10.1c0 1.9.7 2.8 2.7 2.8c1.6 0 2.9-.6 3.7-1.5c.04.03 0-9.3 0-9.3l-2-.5c0 0-.02-.99 0-1c1.1-.3 2.8-.6 4.7-.6c0 .01 0 12.7 0 12.7l2.1.5c0 0-.04.86 0 .9c-1.1.3-2.8.6-4.8.6c0 0 0-2.4 0-2.4c-.9 1.6-2.7 2.5-4.8 2.5c-2.6 0-4.3-1.5-4.3-4.1c.05-.03 0-8.6 0-8.6l-2-.5zm19.9 17.1c-.04-.03 0-16.6 0-16.6l-2.1-.5c0 0 0-.99 0-1c1.1-.3 2.8-.6 4.7-.6c0 0 0 2.6 0 2.6c.8-1.6 2.7-2.7 4.5-2.7c3.3 0 5.5 2.4 5.5 6.9c0 5-2.9 8-6.8 8c-1.2 0-2.4-.4-3.2-1c0 0 0 4.9 0 4.9c1.1 0 1.8.2 2.6.5c-.03-.05 0 .9 0 .9l-7.4 0c0 0-.02-.95 0-.9c.6-.3 1.3-.5 2.2-.5zm2.6-15.2c0 0 0 9.4 0 9.4c.7.2 1.4.3 2.3.3c2.9 0 4.9-2.2 4.9-6c0-3.8-1.5-5.4-3.8-5.4c-1.4 0-2.6.7-3.4 1.7zm14-3.3c0 0 .2-2.9.2-2.9c.6-.1 1.7-.2 2.4-.2c.02 0 0 3.2 0 3.2l3.7 0l0 1.5l-3.7 0c0 0-.1 8.99-.1 9c0 1.6.6 2.1 1.7 2.1c.8 0 1.3-.3 2.1-1c0 0 .6.5.6.5c-.9 1.6-2.3 2.3-3.8 2.3c-2.1 0-3.3-1.1-3.3-3.5c.04-.05.2-9.4.2-9.4l-2.2 0c0 0-.02-.94 0-.9c.4-.2 1.2-.5 2.2-.7zm16.7 6.3c0 0 0-2.5 0-2.5c0-1.8-1-2.5-2.8-2.5c-.6 0-1.3 0-2 .1c.02.04-.5 3-.5 3c0 0-1.57.01-1.6 0c-.1-.6-.3-1.4-.3-2.2c0-.3.1-.7.1-.9c1.4-1.1 3.4-1.5 5.4-1.5c2.9 0 4.3 1.2 4.3 3.5c0 1.7-.1 6.4-.1 9.3c.02-.04 2.1.4 2.1.4c0 0-.02.86 0 .9c-1.1.3-2.7.6-4.6.6c0 0 0-2.5 0-2.5c-.8 1.5-2.3 2.5-4 2.5c-2.5 0-4-1.3-4-3.7c0-3.4 3.2-4.2 8-4.5zm0 5c0 0 0-4 0-4c-3.6.3-5.4.9-5.4 3c0 1.7.9 2.5 2.5 2.5c1.2 0 2.2-.7 2.9-1.5zm7.8-11.3c0 0 .2-2.9.2-2.9c.6-.1 1.6-.2 2.4-.2c0 0 0 3.2 0 3.2l3.6 0l0 1.5l-3.7 0c0 0-.02 8.99 0 9c0 1.6.6 2.1 1.7 2.1c.7 0 1.3-.3 2-1c0 0 .6.5.6.5c-.9 1.6-2.2 2.3-3.7 2.3c-2.1 0-3.3-1.1-3.3-3.5c.01-.05.1-9.4.1-9.4l-2.1 0c0 0-.05-.94 0-.9c.3-.2 1.2-.5 2.2-.7zm10.2-5.2c0-.4.1-.9.2-1.2c.4-.1.8-.1 1.3-.1c.5 0 .9 0 1.3.1c.1.3.1.8.1 1.2c0 1-.1 1.6-.2 2.1c-.4.1-.9.1-1.2.1c-.4 0-.9 0-1.2-.1c-.1-.5-.3-1.1-.3-2.1zm0 18c.03-.03 0-10.9 0-10.9l-2-.5c0 0-.03-.99 0-1c1.1-.3 2.8-.6 4.7-.6c0 0 0 13 0 13c.8 0 1.6.2 2.2.5c-.02-.04 0 .9 0 .9l-7.1 0c0 0 .05-.94 0-.9c.7-.3 1.4-.5 2.2-.5zm12.1-18.2c0 0 .05-.97 0-1c1.1-.3 2.8-.6 4.8-.6c0 0 0 9.6 0 9.6c.8-1.7 2.6-2.8 4.5-2.8c3.2 0 5.4 2.3 5.4 6.8c0 5-2.9 7.9-6.8 7.9c-1.3 0-2.6-.5-3.4-1.2c0 .05-1.2 1-1.2 1l-1.2 0l0-19.2l-2.1-.5zm4.8 8.8c0 0 0 9.2 0 9.2c.6.2 1.4.3 2.3.3c2.9 0 4.8-2.1 4.8-5.9c0-3.8-1.4-5.3-3.7-5.3c-1.4 0-2.7.7-3.4 1.7zm19.4-3.6c3.3 0 5.3 1.8 5.3 5.2c0 .6 0 .9-.1 1.6c-.03-.01-9.1 0-9.1 0c0 0-.02.24 0 .2c0 4.2 2 5.7 4.6 5.7c1.6 0 2.8-.7 3.7-1.8c0 0 .6.5.6.5c-.9 1.9-2.6 3.3-5.2 3.3c-3.6 0-6.5-2.2-6.5-7.3c0-4.7 3-7.4 6.7-7.4zm-3.8 5.5c-.03-.04 6.4 0 6.4 0c0 0 .02-.52 0-.5c0-2.6-1.1-3.7-2.8-3.7c-1.8 0-3.3 1.2-3.6 4.2zm13.3 7.5c.03-.03 0-10.9 0-10.9l-2-.5c0 0-.03-.99 0-1c1.1-.3 2.8-.6 4.7-.6c0 0 0 2.2 0 2.2c.8-1.3 2.6-2.2 4.2-2.2c.6 0 1.2.1 1.5.3c0 1.5-.2 3.3-.4 4.2c.03-.01-1.5 0-1.5 0l-.4-2.7c0 0-.2.03-.2 0c-1.1 0-2.5.6-3.2 1.4c0 0 0 9.8 0 9.8c1.1 0 2.1.2 2.8.5c-.02-.04 0 .9 0 .9l-7.7 0c0 0 .05-.94 0-.9c.7-.3 1.4-.5 2.2-.5zm12.2 0c-.03-.03 0-10.9 0-10.9l-2.1-.5c0 0 .01-.99 0-1c1.1-.3 2.8-.6 4.7-.6c0 0 0 2.2 0 2.2c.8-1.3 2.6-2.2 4.2-2.2c.6 0 1.2.1 1.6.3c0 1.5-.2 3.3-.4 4.2c-.03-.01-1.6 0-1.6 0l-.4-2.7c0 0-.15.03-.1 0c-1.2 0-2.6.6-3.3 1.4c0 0 0 9.8 0 9.8c1.1 0 2.1.2 2.8.5c.03-.04 0 .9 0 .9l-7.6 0c0 0-.01-.94 0-.9c.6-.3 1.3-.5 2.2-.5zm16.5-13c4.2 0 6.4 2.4 6.4 7.3c0 4.6-2.8 7.4-6.8 7.4c-4.2 0-6.3-2.4-6.3-7.3c0-4.8 2.7-7.4 6.7-7.4zm3.5 7.5c0-4.1-1.3-6.2-3.6-6.2c-2.3 0-3.7 1.6-3.7 5.7c0 4.4 1.3 6.3 3.7 6.3c2.2 0 3.6-1.5 3.6-5.8zm18-7.5c3.4 0 5.4 1.8 5.4 5.2c0 .6 0 .9-.1 1.6c-.04-.01-9.1 0-9.1 0c0 0-.03.24 0 .2c0 4.2 2 5.7 4.6 5.7c1.6 0 2.8-.7 3.7-1.8c0 0 .6.5.6.5c-.9 1.9-2.6 3.3-5.2 3.3c-3.6 0-6.5-2.2-6.5-7.3c0-4.7 3-7.4 6.6-7.4zm-3.7 5.5c-.04-.04 6.4 0 6.4 0c0 0 .01-.52 0-.5c0-2.6-1.1-3.7-2.8-3.7c-1.8 0-3.3 1.2-3.6 4.2zm11.5 7.4c0 .04 4.5-5.5 4.5-5.5c0 0-4.59-5.73-4.6-5.7c-.5-.1-.9-.3-1.4-.5c.05.02 0-.9 0-.9l6.6 0c0 0-.01.92 0 .9c-.7.2-1.3.4-2 .5c.02-.03 3.2 4.3 3.2 4.3c0 0 3-4.17 3-4.2c-.7-.1-1.5-.3-2.1-.6c-.05.02 0-.9 0-.9l5.6 0c0 0 .05.92 0 .9c-.4.3-.9.4-1.4.6c-.04 0-4.2 5.3-4.2 5.3c0 0 4.62 5.9 4.6 5.9c.5.1.9.3 1.4.5c.01-.04 0 .9 0 .9l-6.5 0c0 0-.03-.94 0-.9c.6-.2 1.2-.4 1.8-.5c.04 0-3.2-4.5-3.2-4.5c0 0-2.99 4.35-3 4.4c.8.1 1.3.3 1.9.6c.04-.04 0 .9 0 .9l-5.7 0c0 0 .05-.94 0-.9c.5-.2 1-.4 1.5-.6zm16.2 5.8c.04-.03 0-16.6 0-16.6l-2-.5c0 0-.02-.99 0-1c1.1-.3 2.8-.6 4.7-.6c0 0 0 2.6 0 2.6c.8-1.6 2.6-2.7 4.5-2.7c3.3 0 5.4 2.4 5.4 6.9c0 5-2.9 8-6.7 8c-1.3 0-2.4-.4-3.2-1c0 0 0 4.9 0 4.9c1.1 0 1.8.2 2.5.5c.05-.05 0 .9 0 .9l-7.3 0c0 0-.04-.95 0-.9c.6-.3 1.3-.5 2.1-.5zm2.7-15.2c0 0 0 9.4 0 9.4c.7.2 1.4.3 2.3.3c2.9 0 4.9-2.2 4.9-6c0-3.8-1.5-5.4-3.8-5.4c-1.4 0-2.7.7-3.4 1.7zm19.4-3.5c3.4 0 5.3 1.8 5.3 5.2c0 .6 0 .9-.1 1.6c0-.01-9.1 0-9.1 0c0 0 .01.24 0 .2c0 4.2 2.1 5.7 4.6 5.7c1.6 0 2.8-.7 3.8-1.8c0 0 .6.5.6.5c-1 1.9-2.7 3.3-5.2 3.3c-3.7 0-6.6-2.2-6.6-7.3c0-4.7 3.1-7.4 6.7-7.4zm-3.8 5.5c0-.04 6.5 0 6.5 0c0 0-.05-.52 0-.5c0-2.6-1.1-3.7-2.8-3.7c-1.8 0-3.3 1.2-3.7 4.2zm19.4 13.2c.02-.03 0-16.6 0-16.6l-2-.5c0 0-.04-.99 0-1c1-.3 2.7-.6 4.7-.6c0 0 0 2.6 0 2.6c.8-1.6 2.6-2.7 4.5-2.7c3.2 0 5.4 2.4 5.4 6.9c0 5-2.9 8-6.8 8c-1.2 0-2.4-.4-3.1-1c0 0 0 4.9 0 4.9c1.1 0 1.8.2 2.5.5c.03-.05 0 .9 0 .9l-7.4 0c0 0 .04-.95 0-.9c.6-.3 1.4-.5 2.2-.5zm2.7-15.2c0 0 0 9.4 0 9.4c.7.2 1.4.3 2.3.3c2.9 0 4.8-2.2 4.8-6c0-3.8-1.4-5.4-3.7-5.4c-1.4 0-2.7.7-3.4 1.7zm14.2 9.5c-.04-.03 0-10.9 0-10.9l-2.1-.5c0 0 0-.99 0-1c1.1-.3 2.8-.6 4.7-.6c0 0 0 2.2 0 2.2c.8-1.3 2.6-2.2 4.2-2.2c.6 0 1.2.1 1.6.3c0 1.5-.3 3.3-.4 4.2c-.04-.01-1.6 0-1.6 0l-.4-2.7c0 0-.16.03-.2 0c-1.1 0-2.5.6-3.2 1.4c0 0 0 9.8 0 9.8c1.1 0 2.1.2 2.8.5c.01-.04 0 .9 0 .9l-7.6 0c0 0-.02-.94 0-.9c.6-.3 1.3-.5 2.2-.5zm16.5-13c3.4 0 5.3 1.8 5.3 5.2c0 .6 0 .9-.1 1.6c-.02-.01-9.1 0-9.1 0c0 0-.01.24 0 .2c0 4.2 2.1 5.7 4.6 5.7c1.6 0 2.8-.7 3.8-1.8c0 0 .6.5.6.5c-1 1.9-2.7 3.3-5.3 3.3c-3.6 0-6.5-2.2-6.5-7.3c0-4.7 3-7.4 6.7-7.4zm-3.8 5.5c-.02-.04 6.4 0 6.4 0c0 0 .03-.52 0-.5c0-2.6-1.1-3.7-2.8-3.7c-1.7 0-3.3 1.2-3.6 4.2zm13.3 7.5c.04-.03 0-10.9 0-10.9l-2-.5c0 0-.02-.99 0-1c1.1-.3 2.8-.6 4.7-.6c0 0 0 2.2 0 2.2c.8-1.3 2.6-2.2 4.2-2.2c.6 0 1.2.1 1.6.3c0 1.5-.3 3.3-.5 4.2c.04-.01-1.5 0-1.5 0l-.4-2.7c0 0-.18.03-.2 0c-1.1 0-2.5.6-3.2 1.4c0 0 0 9.8 0 9.8c1.1 0 2.1.2 2.8.5c-.01-.04 0 .9 0 .9l-7.6 0c0 0-.04-.94 0-.9c.6-.3 1.3-.5 2.1-.5zm16.9-13c1.6 0 3.2.5 3.9 1c0 1.1-.2 2.6-.5 3.6c0 .01-1.6 0-1.6 0c0 0-.4-3.11-.4-3.1c-.5-.1-1.1-.2-1.5-.2c-2.2 0-4.1 1.6-4.1 5.7c0 3.8 1.8 5.7 4.2 5.7c1.6 0 2.7-.7 3.6-1.8c0 0 .7.5.7.5c-1 1.9-2.6 3.3-5.1 3.3c-3.7 0-6.2-2.6-6.2-7.3c0-4.8 3-7.4 7-7.4zm8.2-5c0-.4.1-.9.2-1.2c.4-.1.8-.1 1.3-.1c.5 0 .9 0 1.3.1c.1.3.2.8.2 1.2c0 1-.2 1.6-.3 2.1c-.3.1-.8.1-1.2.1c-.4 0-.8 0-1.2-.1c-.1-.5-.3-1.1-.3-2.1zm0 18c.05-.03 0-10.9 0-10.9l-2-.5c0 0-.01-.99 0-1c1.1-.3 2.8-.6 4.7-.6c0 0 0 13 0 13c.9 0 1.6.2 2.2.5c0-.04 0 .9 0 .9l-7 0c0 0-.03-.94 0-.9c.6-.3 1.3-.5 2.1-.5zm14.7-6.5c0 0 0-2.5 0-2.5c0-1.8-1-2.5-2.8-2.5c-.6 0-1.2 0-1.9.1c-.05.04-.6 3-.6 3c0 0-1.54.01-1.5 0c-.2-.6-.3-1.4-.3-2.2c0-.3 0-.7.1-.9c1.3-1.1 3.3-1.5 5.3-1.5c2.9 0 4.4 1.2 4.4 3.5c0 1.7-.1 6.4-.1 9.3c-.05-.04 2 .4 2 .4c0 0 .01.86 0 .9c-1.1.3-2.7.6-4.6.6c0 0 0-2.5 0-2.5c-.8 1.5-2.3 2.5-4 2.5c-2.5 0-4-1.3-4-3.7c0-3.4 3.2-4.2 8-4.5zm0 5c0 0 0-4 0-4c-3.6.3-5.3.9-5.3 3c0 1.7.9 2.5 2.4 2.5c1.2 0 2.3-.7 2.9-1.5z" stroke="none" fill="#404040"/></g><g id="Polygon12686"><path d="m3.2 80.6c0 0 0-1.8 0-1.8c0-3 1.8-5.2 5.4-5.2c1.3 0 3 .2 3.8.6c.1 1 0 2.1-.3 3.1c.02.04-1.6 0-1.6 0c0 0-.56-2.59-.6-2.6c-.2 0-.5 0-.7 0c-2.4 0-3.4 1.4-3.4 3.8c.02-.01 0 2.1 0 2.1l3.5 0l0 1.6l-3.5 0c0 0 .02 11.13 0 11.1c1.1.1 2.1.3 2.8.5c0 .02 0 1 0 1l-7.6 0c0 0-.03-.98 0-1c.6-.2 1.3-.4 2.2-.5c-.05.03 0-11.1 0-11.1l-2.1 0c0 0-.01-.98 0-1c.4-.1 1.1-.4 2.1-.6zm7.6 1.3c0 0-.02-.92 0-.9c1.1-.4 2.8-.6 4.7-.6c0 0 0 10 0 10c0 2 .7 2.8 2.7 2.8c1.6 0 2.9-.5 3.7-1.4c.03-.01 0-9.4 0-9.4l-2-.5c0 0-.03-.92 0-.9c1.1-.4 2.8-.6 4.7-.6c0-.03 0 12.7 0 12.7l2.1.5c0 0-.04.82 0 .8c-1.1.4-2.8.6-4.8.6c0 0 0-2.3 0-2.3c-.9 1.6-2.7 2.5-4.8 2.5c-2.6 0-4.3-1.5-4.3-4.2c.04.03 0-8.6 0-8.6l-2-.5zm20.4 12c-.7-.3-1.2-1.1-1.2-2c0-1.2.7-2 1.6-2.7c-1.6-.7-2.5-2.2-2.5-4.1c0-3 2.4-4.9 5.7-4.9c1.4 0 2.5.3 3.7 1c.8-.5 1.8-.8 3.2-.8c.1.3.1.7.1 1.1c0 .4 0 .6-.1.9c0 0-2.4 0-2.4 0c.5.6.8 1.5.8 2.5c0 2.9-2.1 4.8-5.8 4.8c-.7 0-1.4-.1-2-.3c-.2.4-.3.9-.3 1.5c0 .7.3 1.1 1.3 1.1c0 0 4.1 0 4.1 0c2.7 0 4.2 1.3 4.2 3.6c0 3.1-3.1 5.1-7.2 5.1c-4.1 0-6-1.4-6-3.7c0-1.5 1-2.5 2.8-3.1zm6.2-9c0-2.4-1.1-3.6-2.9-3.6c-1.7 0-2.8 1.1-2.8 3.3c0 2.6 1.2 3.9 2.8 3.9c1.9 0 2.9-1.2 2.9-3.6zm-6.6 11.6c0 1.9 1.3 2.9 3.6 2.9c3 0 4.9-1.1 4.9-3c0-1.4-1-2.1-2.5-2.1c0 0-5.3 0-5.3 0c-.4.5-.7 1.2-.7 2.2zm20.8-9.7c0 0 0-2.4 0-2.4c0-1.8-1-2.6-2.8-2.6c-.6 0-1.2.1-1.9.2c-.04.01-.6 3-.6 3c0 0-1.53-.03-1.5 0c-.2-.6-.3-1.5-.3-2.2c0-.4 0-.7.1-1c1.3-1 3.3-1.4 5.3-1.4c2.9 0 4.4 1.2 4.4 3.5c0 1.6-.1 6.4-.1 9.2c-.04.02 2 .5 2 .5c0 0 .02.82 0 .8c-1.1.4-2.6.6-4.6.6c0 0 0-2.4 0-2.4c-.8 1.5-2.3 2.4-4 2.4c-2.5 0-4-1.3-4-3.6c0-3.5 3.2-4.3 8-4.6zm0 5c0 0 0-3.9 0-3.9c-3.6.2-5.3.9-5.3 3c0 1.6.9 2.4 2.4 2.4c1.2 0 2.3-.6 2.9-1.5zm7.3 1.2c0-1.2.7-2.1 2-2.1c1.4 0 2 .9 2 2.1c0 1.3-.6 2.2-2 2.2c-1.3 0-2-.9-2-2.2zm15.2.2c0 0 0-16.2 0-16.2c-.9-.1-1.7-.3-2.4-.5c.03-.01 0-1.1 0-1.1c0 0 8.99 0 9 0c3.5 0 5.8 1.9 5.8 5.5c0 3.7-3 6.4-7 6.4c-.02-.02-2.4 0-2.4 0c0 0-.04 5.91 0 5.9c1.2.1 2.3.3 3 .5c-.01 0 0 1.1 0 1.1l-8.4 0c0 0 .03-1.1 0-1.1c.7-.2 1.5-.4 2.4-.5zm3-7.3c0 0 1.77.04 1.8 0c2.8 0 4.7-1.8 4.7-4.7c0-2.6-1.6-4.3-4-4.3c0-.04-2.5 0-2.5 0l0 9zm17.8-5.5c3.4 0 5.3 1.8 5.3 5.2c0 .6 0 .8-.1 1.6c-.02-.05-9.1 0-9.1 0c0 0-.01.2 0 .2c0 4.1 2 5.7 4.6 5.7c1.6 0 2.8-.7 3.8-1.8c0 0 .6.5.6.5c-1 1.9-2.7 3.2-5.3 3.2c-3.6 0-6.5-2.2-6.5-7.2c0-4.8 3-7.4 6.7-7.4zm-3.8 5.4c-.02.02 6.4 0 6.4 0c0 0 .03-.46 0-.5c0-2.5-1.1-3.6-2.8-3.6c-1.7 0-3.3 1.2-3.6 4.1zm13.3 7.5c.04.03 0-10.9 0-10.9l-2-.5c0 0-.02-.92 0-.9c1.1-.4 2.8-.6 4.7-.6c0 0 0 2.2 0 2.2c.8-1.4 2.6-2.2 4.2-2.2c.6 0 1.2.1 1.6.2c0 1.6-.3 3.4-.5 4.3c.04-.05-1.5 0-1.5 0l-.4-2.7c0 0-.18-.01-.2 0c-1.1 0-2.5.5-3.2 1.4c0 0 0 9.7 0 9.7c1.1.1 2.1.3 2.8.5c-.01.02 0 1 0 1l-7.6 0c0 0-.04-.98 0-1c.6-.2 1.3-.4 2.1-.5zm16.9-12.9c1.6 0 3.2.5 3.9.9c0 1.1-.2 2.6-.5 3.7c0-.03-1.6 0-1.6 0c0 0-.4-3.15-.4-3.1c-.5-.1-1.1-.2-1.5-.2c-2.2 0-4.1 1.6-4.1 5.7c0 3.8 1.8 5.7 4.2 5.7c1.6 0 2.7-.7 3.6-1.8c0 0 .7.5.7.5c-1 1.9-2.6 3.2-5.1 3.2c-3.7 0-6.2-2.5-6.2-7.2c0-4.9 3-7.4 7-7.4zm8.2-5c0-.5.1-.9.2-1.2c.4-.1.8-.1 1.3-.1c.5 0 .9 0 1.3.1c.1.3.2.7.2 1.2c0 1-.2 1.6-.3 2.1c-.3.1-.8.1-1.2.1c-.4 0-.8 0-1.2-.1c-.1-.5-.3-1.1-.3-2.1zm0 17.9c.05.03 0-10.9 0-10.9l-2-.5c0 0-.01-.92 0-.9c1.1-.4 2.8-.6 4.7-.6c0 0 0 12.9 0 12.9c.9.1 1.6.3 2.2.5c0 .02 0 1 0 1l-7 0c0 0-.03-.98 0-1c.6-.2 1.3-.4 2.1-.5zm14.7-6.5c0 0 0-2.4 0-2.4c0-1.8-1-2.6-2.8-2.6c-.6 0-1.2.1-1.9.2c-.05.01-.6 3-.6 3c0 0-1.54-.03-1.5 0c-.2-.6-.3-1.5-.3-2.2c0-.4 0-.7.1-1c1.3-1 3.3-1.4 5.3-1.4c2.9 0 4.4 1.2 4.4 3.5c0 1.6-.1 6.4-.1 9.2c-.05.02 2 .5 2 .5c0 0 .01.82 0 .8c-1.1.4-2.7.6-4.6.6c0 0 0-2.4 0-2.4c-.8 1.5-2.3 2.4-4 2.4c-2.5 0-4-1.3-4-3.6c0-3.5 3.2-4.3 8-4.6zm0 5c0 0 0-3.9 0-3.9c-3.6.2-5.3.9-5.3 3c0 1.6.9 2.4 2.4 2.4c1.2 0 2.3-.6 2.9-1.5zm14.5 7.2c.05.03 0-16.6 0-16.6l-2-.5c0 0-.01-.92 0-.9c1.1-.4 2.8-.6 4.7-.6c0 0 0 2.6 0 2.6c.8-1.7 2.6-2.8 4.5-2.8c3.3 0 5.4 2.5 5.4 7c0 4.9-2.9 8-6.7 8c-1.2 0-2.4-.4-3.2-1c0 0 0 4.8 0 4.8c1.1.1 1.8.3 2.6.5c-.04.01 0 1 0 1l-7.4 0c0 0-.03-.99 0-1c.6-.2 1.3-.4 2.1-.5zm2.7-15.2c0 0 0 9.5 0 9.5c.7.2 1.4.3 2.3.3c2.9 0 4.9-2.2 4.9-6.1c0-3.7-1.5-5.3-3.8-5.3c-1.4 0-2.7.7-3.4 1.6zm13.8 9.5c.03.03 0-17.7 0-17.7l-2-.4c0 0-.03-1.01 0-1c1.1-.4 2.8-.6 4.7-.6c0 0 0 19.7 0 19.7c.8.1 1.6.3 2.2.5c-.03.02 0 1 0 1l-7.1 0c0 0 .05-.98 0-1c.7-.2 1.4-.4 2.2-.5zm8.9-17.9c0-.5 0-.9.1-1.2c.4-.1.8-.1 1.3-.1c.5 0 .9 0 1.4.1c0 .3.1.7.1 1.2c0 1-.1 1.6-.3 2.1c-.3.1-.8.1-1.2.1c-.3 0-.8 0-1.2-.1c-.1-.5-.2-1.1-.2-2.1zm0 17.9c-.03.03 0-10.9 0-10.9l-2.1-.5c0 0 .01-.92 0-.9c1.1-.4 2.8-.6 4.7-.6c0 0 0 12.9 0 12.9c.9.1 1.6.3 2.2.5c.02.02 0 1 0 1l-7 0c0 0-.01-.98 0-1c.6-.2 1.3-.4 2.2-.5zm8.3-12.8c0 0 .2-2.8.2-2.8c.6-.1 1.6-.2 2.4-.2c-.03-.04-.1 3.1-.1 3.1l3.7 0l0 1.6l-3.7 0c0 0-.05 8.95 0 9c0 1.5.6 2 1.6 2c.8 0 1.4-.3 2.1-1c0 0 .6.5.6.5c-.9 1.6-2.2 2.3-3.7 2.3c-2.2 0-3.4-1-3.3-3.5c-.01.02.1-9.3.1-9.3l-2.2 0c0 0 .03-.98 0-1c.4-.1 1.2-.4 2.3-.7zm16.3-5.1c0-.5 0-.9.1-1.2c.4-.1.8-.1 1.3-.1c.5 0 .9 0 1.4.1c0 .3.1.7.1 1.2c0 1-.1 1.6-.3 2.1c-.3.1-.8.1-1.2.1c-.3 0-.8 0-1.2-.1c-.1-.5-.2-1.1-.2-2.1zm0 17.9c-.03.03 0-10.9 0-10.9l-2.1-.5c0 0 .01-.92 0-.9c1.1-.4 2.8-.6 4.7-.6c0 0 0 12.9 0 12.9c.9.1 1.6.3 2.2.5c.01.02 0 1 0 1l-7 0c0 0-.02-.98 0-1c.6-.2 1.3-.4 2.2-.5zm26.4 0c0 0 0-8.3 0-8.3c0-1.8-.9-2.7-2.7-2.7c-1.4 0-2.7.5-3.5 1.3c0 0 0 9.7 0 9.7c.8.1 1.6.3 2.2.5c-.02.02 0 1 0 1l-7 0c0 0-.05-.98 0-1c.6-.2 1.3-.4 2.1-.5c0 0 0-8.3 0-8.3c0-1.8-.8-2.7-2.6-2.7c-1.4 0-2.7.5-3.5 1.3c0 0 0 9.7 0 9.7c.8.1 1.5.3 2.1.5c.04.02 0 1 0 1l-7 0c0 0 .01-.98 0-1c.6-.2 1.3-.4 2.2-.5c-.01.03 0-10.9 0-10.9l-2.1-.5c0 0 .03-.92 0-.9c1.1-.4 2.8-.6 4.8-.6c0 0 0 2.3 0 2.3c.8-1.5 2.7-2.5 4.8-2.5c2 0 3.3 1 3.8 2.7c.9-1.6 2.7-2.7 5-2.7c2.6 0 4 1.5 4 4.2c0 0 0 8.9 0 8.9c.9.1 1.6.3 2.2.5c.02.02 0 1 0 1l-7 0c0 0 0-.98 0-1c.6-.2 1.3-.4 2.2-.5zm13.4-12.9c4.1 0 6.4 2.3 6.4 7.2c0 4.7-2.9 7.4-6.8 7.4c-4.2 0-6.3-2.4-6.3-7.2c0-4.8 2.6-7.4 6.7-7.4zm3.5 7.5c0-4.2-1.3-6.2-3.7-6.2c-2.2 0-3.6 1.5-3.6 5.7c0 4.4 1.3 6.3 3.6 6.3c2.3 0 3.7-1.5 3.7-5.8zm6.6 5.4c.04.03 0-17.7 0-17.7l-2-.4c0 0-.02-1.01 0-1c1.1-.4 2.8-.6 4.7-.6c0 0 0 19.7 0 19.7c.9.1 1.6.3 2.2.5c-.01.02 0 1 0 1l-7 0c0 0-.04-.98 0-1c.6-.2 1.3-.4 2.1-.5zm6.1-11.4c0 0 0-.92 0-.9c1.1-.4 2.8-.6 4.7-.6c0 0 0 10 0 10c0 2 .8 2.8 2.7 2.8c1.6 0 2.9-.5 3.7-1.4c.05-.01 0-9.4 0-9.4l-2-.5c0 0-.01-.92 0-.9c1.1-.4 2.8-.6 4.7-.6c.01-.03 0 12.7 0 12.7l2.1.5c0 0-.03.82 0 .8c-1.1.4-2.8.6-4.8.6c0 0 0-2.3 0-2.3c-.9 1.6-2.7 2.5-4.8 2.5c-2.5 0-4.2-1.5-4.2-4.2c-.04.03 0-8.6 0-8.6l-2.1-.5zm19.9 17.1c-.03.03 0-16.6 0-16.6l-2.1-.5c0 0 .01-.92 0-.9c1.1-.4 2.8-.6 4.7-.6c0 0 0 2.6 0 2.6c.8-1.7 2.7-2.8 4.5-2.8c3.3 0 5.5 2.5 5.5 7c0 4.9-2.9 8-6.8 8c-1.2 0-2.4-.4-3.2-1c0 0 0 4.8 0 4.8c1.1.1 1.9.3 2.6.5c-.02.01 0 1 0 1l-7.4 0c0 0-.01-.99 0-1c.6-.2 1.3-.4 2.2-.5zm2.6-15.2c0 0 0 9.5 0 9.5c.7.2 1.4.3 2.3.3c2.9 0 4.9-2.2 4.9-6.1c0-3.7-1.5-5.3-3.8-5.3c-1.4 0-2.6.7-3.4 1.6zm14.5-8.4c0-.5 0-.9.1-1.2c.4-.1.8-.1 1.3-.1c.5 0 .9 0 1.3.1c.1.3.2.7.2 1.2c0 1-.2 1.6-.3 2.1c-.3.1-.8.1-1.2.1c-.4 0-.8 0-1.2-.1c-.1-.5-.2-1.1-.2-2.1zm0 17.9c-.04.03 0-10.9 0-10.9l-2.1-.5c0 0 0-.92 0-.9c1.1-.4 2.8-.6 4.7-.6c0 0 0 12.9 0 12.9c.9.1 1.6.3 2.2.5c0 .02 0 1 0 1l-7 0c0 0-.02-.98 0-1c.6-.2 1.3-.4 2.2-.5zm13.3-12.9c1.6 0 3.1.5 3.9.9c0 1.1-.2 2.6-.5 3.7c-.02-.03-1.6 0-1.6 0c0 0-.42-3.15-.4-3.1c-.5-.1-1.1-.2-1.5-.2c-2.2 0-4.2 1.6-4.2 5.7c0 3.8 1.9 5.7 4.3 5.7c1.6 0 2.6-.7 3.6-1.8c0 0 .6.5.6.5c-.9 1.9-2.5 3.2-5.1 3.2c-3.6 0-6.1-2.5-6.1-7.2c0-4.9 3-7.4 7-7.4zm13.9.1c0 0 .1-2.8.1-2.8c.6-.1 1.7-.2 2.5-.2c-.04-.04-.1 3.1-.1 3.1l3.7 0l0 1.6l-3.7 0c0 0-.06 8.95-.1 9c0 1.5.6 2 1.7 2c.8 0 1.3-.3 2.1-1c0 0 .6.5.6.5c-.9 1.6-2.2 2.3-3.8 2.3c-2.1 0-3.3-1-3.2-3.5c-.03.02.1-9.3.1-9.3l-2.2 0c0 0 .01-.98 0-1c.4-.1 1.2-.4 2.3-.7zm14.9-.1c3.4 0 5.4 1.8 5.4 5.2c0 .6 0 .8-.2 1.6c.03-.05-9.1 0-9.1 0c0 0 .04.2 0 .2c0 4.1 2.1 5.7 4.6 5.7c1.6 0 2.8-.7 3.8-1.8c0 0 .6.5.6.5c-1 1.9-2.7 3.2-5.2 3.2c-3.6 0-6.5-2.2-6.5-7.2c0-4.8 3-7.4 6.6-7.4zm-3.8 5.4c.03.02 6.5 0 6.5 0c0 0-.02-.46 0-.5c0-2.5-1.1-3.6-2.8-3.6c-1.8 0-3.3 1.2-3.7 4.1zm31.1 7.5c0 0 0-8.3 0-8.3c0-1.8-.9-2.7-2.7-2.7c-1.4 0-2.7.5-3.5 1.3c0 0 0 9.7 0 9.7c.8.1 1.6.3 2.2.5c-.02.02 0 1 0 1l-7 0c0 0-.05-.98 0-1c.6-.2 1.3-.4 2.1-.5c0 0 0-8.3 0-8.3c0-1.8-.8-2.7-2.6-2.7c-1.4 0-2.7.5-3.5 1.3c0 0 0 9.7 0 9.7c.8.1 1.5.3 2.1.5c.04.02 0 1 0 1l-7 0c0 0 .01-.98 0-1c.6-.2 1.3-.4 2.2-.5c-.01.03 0-10.9 0-10.9l-2.1-.5c0 0 .03-.92 0-.9c1.1-.4 2.8-.6 4.8-.6c0 0 0 2.3 0 2.3c.8-1.5 2.7-2.5 4.8-2.5c2 0 3.3 1 3.8 2.7c.9-1.6 2.7-2.7 5-2.7c2.6 0 4 1.5 4 4.2c0 0 0 8.9 0 8.9c.9.1 1.6.3 2.2.5c.03.02 0 1 0 1l-7 0c0 0 0-.98 0-1c.6-.2 1.3-.4 2.2-.5z" stroke="none" fill="#404040"/></g><g id="Polygon12685"><path d="m3.2 58c-.05 0 0-10.9 0-10.9l-2.1-.5c0 0-.01-.96 0-1c1.1-.3 2.8-.6 4.7-.6c0 0 0 2.2 0 2.2c.8-1.3 2.6-2.2 4.2-2.2c.6 0 1.2.2 1.6.3c0 1.5-.3 3.4-.5 4.2c.05.01-1.5 0-1.5 0l-.4-2.7c0 0-.17.05-.2 0c-1.1 0-2.5.6-3.2 1.5c0 0 0 9.7 0 9.7c1.1.1 2.1.2 2.8.5c0-.02 0 .9 0 .9l-7.6 0c0 0-.03-.92 0-.9c.6-.3 1.3-.4 2.2-.5zm16.5-13c3.4 0 5.3 1.8 5.3 5.2c0 .6 0 .9-.1 1.6c-.03.02-9.1 0-9.1 0c0 0-.02.26 0 .3c0 4.1 2 5.7 4.6 5.7c1.6 0 2.8-.8 3.7-1.9c0 0 .6.5.6.5c-.9 2-2.6 3.3-5.2 3.3c-3.6 0-6.5-2.2-6.5-7.3c0-4.7 3-7.4 6.7-7.4zm-3.8 5.5c-.03-.02 6.4 0 6.4 0c0 0 .02-.5 0-.5c0-2.5-1.1-3.6-2.8-3.6c-1.8 0-3.3 1.1-3.6 4.1zm12.7 7.5c.02 0 0-17.7 0-17.7l-2-.5c0 0-.04-.95 0-.9c1.1-.4 2.8-.7 4.7-.7c0 0 0 9.2 0 9.2c.9-1.6 2.7-2.5 4.8-2.5c2.6 0 4.3 1.5 4.3 4.1c0 0 0 9 0 9c.8.1 1.6.2 2.2.5c-.04-.02 0 .9 0 .9l-7.1 0c0 0 .03-.92 0-.9c.6-.3 1.4-.4 2.2-.5c0 0 0-8.4 0-8.4c0-1.8-1-2.6-2.9-2.6c-1.4 0-2.7.4-3.5 1.3c0 0 0 9.7 0 9.7c.8.1 1.6.2 2.2.5c-.03-.02 0 .9 0 .9l-7.1 0c0 0 .04-.92 0-.9c.6-.3 1.4-.4 2.2-.5zm22.5-13c3.4 0 5.3 1.8 5.3 5.2c0 .6 0 .9-.1 1.6c.01.02-9.1 0-9.1 0c0 0 .02.26 0 .3c0 4.1 2.1 5.7 4.6 5.7c1.6 0 2.8-.8 3.8-1.9c0 0 .6.5.6.5c-1 2-2.7 3.3-5.2 3.3c-3.7 0-6.6-2.2-6.6-7.3c0-4.7 3.1-7.4 6.7-7.4zm-3.8 5.5c.01-.02 6.5 0 6.5 0c0 0-.03-.5 0-.5c0-2.5-1.1-3.6-2.8-3.6c-1.8 0-3.3 1.1-3.7 4.1zm13.4 7.5c-.03 0 0-10.9 0-10.9l-2.1-.5c0 0 .01-.96 0-1c1.1-.3 2.8-.6 4.7-.6c0 0 0 2.4 0 2.4c.9-1.6 2.8-2.5 4.9-2.5c2.5 0 4.2 1.5 4.2 4.1c0 0 0 9 0 9c.9.1 1.6.2 2.2.5c0-.02 0 .9 0 .9l-7 0c0 0-.02-.92 0-.9c.6-.3 1.3-.4 2.2-.5c0 0 0-8.4 0-8.4c0-1.8-1-2.6-2.9-2.6c-1.4 0-2.7.4-3.6 1.3c0 0 0 9.7 0 9.7c.9.1 1.6.2 2.2.5c.02-.02 0 .9 0 .9l-7 0c0 0-.01-.92 0-.9c.6-.3 1.3-.4 2.2-.5zm17.9-17.9c0-.5.1-.9.1-1.2c.4-.1.9-.2 1.4-.2c.4 0 .9.1 1.3.2c.1.3.1.7.1 1.2c0 .9-.1 1.5-.2 2c-.4.1-.9.1-1.2.1c-.4 0-.9 0-1.3-.1c-.1-.5-.2-1.1-.2-2zm0 17.9c0 0 0-10.9 0-10.9l-2.1-.5c0 0 .04-.96 0-1c1.1-.3 2.8-.6 4.8-.6c0 0 0 13 0 13c.8.1 1.5.2 2.1.5c.05-.02 0 .9 0 .9l-7 0c0 0 .02-.92 0-.9c.6-.3 1.4-.4 2.2-.5zm13-13c3.4 0 5.3 1.8 5.3 5.2c0 .6 0 .9-.1 1.6c-.02.02-9.1 0-9.1 0c0 0-.01.26 0 .3c0 4.1 2 5.7 4.6 5.7c1.6 0 2.8-.8 3.8-1.9c0 0 .6.5.6.5c-1 2-2.7 3.3-5.3 3.3c-3.6 0-6.5-2.2-6.5-7.3c0-4.7 3-7.4 6.7-7.4zm-3.8 5.5c-.02-.02 6.4 0 6.4 0c0 0 .03-.5 0-.5c0-2.5-1.1-3.6-2.8-3.6c-1.7 0-3.3 1.1-3.6 4.1zm13.3 7.5c.04 0 0-10.9 0-10.9l-2-.5c0 0-.02-.96 0-1c1.1-.3 2.8-.6 4.7-.6c0 0 0 2.4 0 2.4c.9-1.6 2.7-2.5 4.9-2.5c2.5 0 4.2 1.5 4.2 4.1c0 0 0 9 0 9c.8.1 1.6.2 2.2.5c-.03-.02 0 .9 0 .9l-7.1 0c0 0 .04-.92 0-.9c.7-.3 1.4-.4 2.2-.5c0 0 0-8.4 0-8.4c0-1.8-.9-2.6-2.9-2.6c-1.4 0-2.6.4-3.5 1.3c0 0 0 9.7 0 9.7c.9.1 1.6.2 2.2.5c-.01-.02 0 .9 0 .9l-7 0c0 0-.04-.92 0-.9c.6-.3 1.3-.4 2.1-.5zm22.8-13.1c1.4 0 2.4.5 3.1 1.1c.01 0 0-5.7 0-5.7l-2.4-.5c0 0-.02-.95 0-.9c1.1-.4 3.1-.7 5.1-.7c-.03.05 0 19.6 0 19.6l2 .4c0 0 .03.89 0 .9c-1.1.3-2.8.6-4.7.6c0 0 0-2.6 0-2.6c-.8 1.6-2.4 2.7-4.2 2.7c-3.4 0-5.7-2.7-5.7-7.1c0-4.9 2.9-7.8 6.8-7.8zm3.1 11.3c0 0 0-9.4 0-9.4c-.6-.2-1.3-.3-2.3-.3c-2.9 0-4.8 2-4.8 5.8c0 3.8 1.4 5.6 3.8 5.6c1.4 0 2.5-.7 3.3-1.7zm14.8-4.7c0 0 0-2.5 0-2.5c0-1.8-1-2.5-2.8-2.5c-.6 0-1.3 0-2 .2c.03-.03-.5 2.9-.5 2.9c0 0-1.56.04-1.6 0c-.1-.6-.3-1.4-.3-2.1c0-.4.1-.8.1-1c1.4-1 3.4-1.5 5.4-1.5c2.9 0 4.4 1.2 4.4 3.5c0 1.7-.2 6.4-.2 9.3c.03-.02 2.1.4 2.1.4c0 0-.01.89 0 .9c-1.1.3-2.7.6-4.6.6c0 0 0-2.4 0-2.4c-.8 1.4-2.3 2.4-4 2.4c-2.5 0-4-1.3-4-3.6c0-3.5 3.2-4.3 8-4.6zm0 5c0 0 0-4 0-4c-3.6.3-5.3.9-5.3 3.1c0 1.6.8 2.4 2.4 2.4c1.2 0 2.3-.6 2.9-1.5zm13.2-11.5c3.4 0 5.3 1.8 5.3 5.2c0 .6 0 .9-.1 1.6c0 .02-9.1 0-9.1 0c0 0 .02.26 0 .3c0 4.1 2.1 5.7 4.6 5.7c1.6 0 2.8-.8 3.8-1.9c0 0 .6.5.6.5c-1 2-2.7 3.3-5.2 3.3c-3.7 0-6.6-2.2-6.6-7.3c0-4.7 3.1-7.4 6.7-7.4zm-3.8 5.5c.01-.02 6.5 0 6.5 0c0 0-.04-.5 0-.5c0-2.5-1.1-3.6-2.8-3.6c-1.8 0-3.3 1.1-3.7 4.1zm19.7 7.5c-.03 0 0-10.9 0-10.9l-2.1-.5c0 0 .01-.96 0-1c1.1-.3 2.8-.6 4.7-.6c0 0 0 2.4 0 2.4c.9-1.6 2.8-2.5 4.9-2.5c2.5 0 4.2 1.5 4.2 4.1c0 0 0 9 0 9c.9.1 1.6.2 2.2.5c0-.02 0 .9 0 .9l-7 0c0 0-.03-.92 0-.9c.6-.3 1.3-.4 2.2-.5c0 0 0-8.4 0-8.4c0-1.8-1-2.6-3-2.6c-1.3 0-2.6.4-3.5 1.3c0 0 0 9.7 0 9.7c.9.1 1.6.2 2.2.5c.01-.02 0 .9 0 .9l-7 0c0 0-.01-.92 0-.9c.6-.3 1.3-.4 2.2-.5zm22.4-13c4.2 0 6.5 2.4 6.5 7.3c0 4.7-2.9 7.4-6.8 7.4c-4.2 0-6.3-2.4-6.3-7.3c0-4.7 2.6-7.4 6.6-7.4zm3.6 7.5c0-4.1-1.3-6.1-3.7-6.1c-2.2 0-3.6 1.5-3.6 5.7c0 4.3 1.3 6.3 3.6 6.3c2.3 0 3.7-1.6 3.7-5.9zm5.8 2.6c-.03-.01 1.5 0 1.5 0c0 0 .47 3.11.5 3.1c.6.2 1.3.3 2 .3c1.8 0 3.2-.9 3.2-2.6c0-1.3-.9-1.9-2.5-2.4c0 0-1.7-.5-1.7-.5c-2.2-.6-3.3-1.9-3.3-4c0-2.6 2.2-4.1 5.1-4.1c1.8 0 3.7.5 4.4 1c0 0 0 .3 0 .3c-.1 1.1-.2 2.4-.5 3.3c-.01.01-1.6 0-1.6 0c0 0-.37-2.98-.4-3c-.6-.1-1.3-.3-1.9-.3c-1.7 0-2.8.8-2.8 2.2c0 1.5.7 2.1 2.1 2.4c0 0 1.7.5 1.7.5c2.5.8 3.9 1.7 3.9 4.2c0 2.5-2.3 4.3-5.7 4.3c-1.8 0-3.8-.5-4.5-1c0 0 0-.3 0-.3c0-1.1.2-2.5.5-3.4zm17.4-8.9c.02.04 0-.9 0-.9l6.2 0c0 0 0 .94 0 .9c-.6.3-1.3.5-2.1.5c-.02.03 3.5 9.4 3.5 9.4c0 0 3.59-9.37 3.6-9.4c-.8-.1-1.4-.2-2-.5c.03.04 0-.9 0-.9l5.2 0c0 0 .04.94 0 .9c-.4.2-.8.4-1.3.5c.03-.03-5.2 12.7-5.2 12.7l-1.6 0c0 0-5.01-12.73-5-12.7c-.5-.1-.9-.3-1.3-.5zm21.8-1.2c3.4 0 5.4 1.8 5.4 5.2c0 .6 0 .9-.2 1.6c.04.02-9.1 0-9.1 0c0 0 .05.26 0 .3c0 4.1 2.1 5.7 4.7 5.7c1.5 0 2.7-.8 3.7-1.9c0 0 .6.5.6.5c-1 2-2.7 3.3-5.2 3.3c-3.6 0-6.5-2.2-6.5-7.3c0-4.7 3-7.4 6.6-7.4zm-3.8 5.5c.04-.02 6.5 0 6.5 0c0 0-.01-.5 0-.5c0-2.5-1.1-3.6-2.8-3.6c-1.8 0-3.3 1.1-3.7 4.1zm13.4 7.5c0 0 0-10.9 0-10.9l-2.1-.5c0 0 .04-.96 0-1c1.1-.3 2.8-.6 4.8-.6c0 0 0 2.4 0 2.4c.8-1.6 2.7-2.5 4.8-2.5c2.6 0 4.3 1.5 4.3 4.1c0 0 0 9 0 9c.8.1 1.5.2 2.1.5c.03-.02 0 .9 0 .9l-7 0c0 0 0-.92 0-.9c.6-.3 1.3-.4 2.2-.5c0 0 0-8.4 0-8.4c0-1.8-1-2.6-2.9-2.6c-1.4 0-2.7.4-3.5 1.3c0 0 0 9.7 0 9.7c.8.1 1.5.2 2.1.5c.04-.02 0 .9 0 .9l-7 0c0 0 .02-.92 0-.9c.6-.3 1.4-.4 2.2-.5zm17.5-12.8c0 0 .2-2.8.2-2.8c.6-.2 1.7-.3 2.4-.3c.01.02 0 3.2 0 3.2l3.6 0l0 1.5l-3.6 0c0 0-.11 9.01-.1 9c0 1.6.6 2.1 1.7 2.1c.7 0 1.3-.3 2-1c0 0 .7.5.7.5c-1 1.6-2.3 2.3-3.8 2.3c-2.1 0-3.3-1-3.3-3.5c.02-.02.1-9.4.1-9.4l-2.1 0c0 0-.04-.92 0-.9c.4-.2 1.2-.5 2.2-.7zm10.2-5.1c0-.5.1-.9.2-1.2c.4-.1.8-.2 1.3-.2c.5 0 .9.1 1.3.2c.1.3.2.7.2 1.2c0 .9-.2 1.5-.3 2c-.4.1-.8.1-1.2.1c-.4 0-.9 0-1.2-.1c-.1-.5-.3-1.1-.3-2zm0 17.9c.04 0 0-10.9 0-10.9l-2-.5c0 0-.02-.96 0-1c1.1-.3 2.8-.6 4.7-.6c0 0 0 13 0 13c.9.1 1.6.2 2.2.5c-.01-.02 0 .9 0 .9l-7 0c0 0-.04-.92 0-.9c.6-.3 1.3-.4 2.1-.5zm6-11.4c0 0-.02-.96 0-1c1.1-.3 2.8-.6 4.7-.6c0 0 0 10.1 0 10.1c0 1.9.7 2.8 2.7 2.8c1.6 0 2.9-.6 3.7-1.4c.03-.05 0-9.4 0-9.4l-2-.5c0 0-.03-.96 0-1c1.1-.3 2.8-.6 4.7-.6c-.01.03 0 12.8 0 12.8l2.1.4c0 0-.05.89 0 .9c-1.1.3-2.8.6-4.8.6c0 0 0-2.3 0-2.3c-.9 1.5-2.7 2.4-4.8 2.4c-2.6 0-4.3-1.4-4.3-4.1c.04-.01 0-8.6 0-8.6l-2-.5zm37.7 11.4c0 0 0-8.4 0-8.4c0-1.8-.9-2.6-2.7-2.6c-1.4 0-2.7.4-3.5 1.3c0 0 0 9.7 0 9.7c.8.1 1.6.2 2.2.5c-.04-.02 0 .9 0 .9l-7.1 0c0 0 .04-.92 0-.9c.6-.3 1.4-.4 2.2-.5c0 0 0-8.4 0-8.4c0-1.8-.8-2.6-2.6-2.6c-1.4 0-2.7.4-3.6 1.3c0 0 0 9.7 0 9.7c.9.1 1.6.2 2.2.5c.02-.02 0 .9 0 .9l-7 0c0 0-.01-.92 0-.9c.6-.3 1.3-.4 2.2-.5c-.03 0 0-10.9 0-10.9l-2.1-.5c0 0 .01-.96 0-1c1.1-.3 2.8-.6 4.7-.6c0 0 0 2.4 0 2.4c.9-1.6 2.8-2.5 4.9-2.5c2 0 3.3.9 3.7 2.6c1-1.5 2.8-2.6 5.1-2.6c2.6 0 4 1.5 4 4.1c0 0 0 9 0 9c.9.1 1.6.2 2.2.5c.01-.02 0 .9 0 .9l-7 0c0 0-.02-.92 0-.9c.6-.3 1.3-.4 2.2-.5zm19.6-13c3.4 0 5.3 1.8 5.3 5.2c0 .6 0 .9-.1 1.6c0 .02-9.1 0-9.1 0c0 0 .01.26 0 .3c0 4.1 2.1 5.7 4.6 5.7c1.6 0 2.8-.8 3.8-1.9c0 0 .6.5.6.5c-1 2-2.7 3.3-5.2 3.3c-3.7 0-6.6-2.2-6.6-7.3c0-4.7 3.1-7.4 6.7-7.4zm-3.8 5.5c0-.02 6.5 0 6.5 0c0 0-.05-.5 0-.5c0-2.5-1.1-3.6-2.8-3.6c-1.8 0-3.3 1.1-3.7 4.1zm13.2-5.3c0 0 .2-2.8.2-2.8c.6-.2 1.6-.3 2.4-.3c-.02.02 0 3.2 0 3.2l3.6 0l0 1.5l-3.7 0c0 0-.04 9.01 0 9c0 1.6.6 2.1 1.7 2.1c.7 0 1.3-.3 2-1c0 0 .6.5.6.5c-.9 1.6-2.2 2.3-3.7 2.3c-2.2 0-3.4-1-3.3-3.5c0-.02.1-9.4.1-9.4l-2.2 0c0 0 .04-.92 0-.9c.4-.2 1.2-.5 2.3-.7z" stroke="none" fill="#404040"/></g><g id="Polygon12684"><path d="m3.4 22.5c0 0 0-16.2 0-16.2c-1-.1-1.8-.2-2.4-.5c-.03.02 0-1.1 0-1.1c0 0 8.69.02 8.7 0c5.3 0 9.2 3.3 9.2 9.1c0 6.8-4 10.3-9.7 10.3c.01.01-8.2 0-8.2 0c0 0-.03-1.08 0-1.1c.6-.2 1.4-.4 2.4-.5zm2.9.2c0 0 2.54-.04 2.5 0c4.4 0 7.1-2.9 7.1-8.5c0-5.4-2.8-8-7.1-8c.04-.02-2.5 0-2.5 0l0 16.5zm17-18c0-.5 0-.9.1-1.2c.4-.1.8-.1 1.3-.1c.5 0 .9 0 1.3.1c.1.3.2.7.2 1.2c0 1-.2 1.6-.3 2.1c-.3.1-.8.1-1.2.1c-.3 0-.8 0-1.2-.1c-.1-.5-.2-1.1-.2-2.1zm0 18c-.04-.04 0-10.9 0-10.9l-2.1-.5c0 0 0-1 0-1c1.1-.4 2.8-.6 4.7-.6c0 0 0 13 0 13c.9 0 1.6.2 2.2.4c.01.04 0 1 0 1l-7 0c0 0-.02-.96 0-1c.6-.2 1.3-.4 2.2-.4zm19.7-13.1c1.5 0 2.5.4 3.2 1.1c-.04-.04 0-5.7 0-5.7l-2.5-.5c0 0 .04-.99 0-1c1.1-.4 3.2-.6 5.1-.6c.03.01 0 19.5 0 19.5l2.1.5c0 0-.01.85 0 .8c-1.1.4-2.8.7-4.7.7c0 0 0-2.7 0-2.7c-.8 1.7-2.4 2.8-4.3 2.8c-3.4 0-5.7-2.7-5.7-7.2c0-4.8 2.9-7.7 6.8-7.7zm3.2 11.3c0 0 0-9.4 0-9.4c-.7-.2-1.4-.4-2.3-.4c-2.9 0-4.9 2.1-4.9 5.9c0 3.7 1.5 5.5 3.9 5.5c1.4 0 2.5-.6 3.3-1.6zm13-11.2c4.2 0 6.5 2.4 6.5 7.3c0 4.6-2.9 7.4-6.8 7.4c-4.2 0-6.3-2.4-6.3-7.3c0-4.8 2.6-7.4 6.6-7.4zm3.6 7.5c0-4.1-1.3-6.2-3.7-6.2c-2.2 0-3.6 1.6-3.6 5.7c0 4.4 1.3 6.3 3.6 6.3c2.3 0 3.7-1.5 3.7-5.8zm6.6 5.5c.02-.04 0-17.7 0-17.7l-2-.5c0 0-.04-.99 0-1c1.1-.4 2.8-.6 4.7-.6c0 0 0 19.8 0 19.8c.8 0 1.6.2 2.2.4c-.03.04 0 1 0 1l-7.1 0c0 0 .04-.96 0-1c.6-.2 1.4-.4 2.2-.4zm13.1-13c4.2 0 6.4 2.4 6.4 7.3c0 4.6-2.8 7.4-6.8 7.4c-4.1 0-6.3-2.4-6.3-7.3c0-4.8 2.7-7.4 6.7-7.4zm3.5 7.5c0-4.1-1.2-6.2-3.6-6.2c-2.3 0-3.6 1.6-3.6 5.7c0 4.4 1.3 6.3 3.6 6.3c2.2 0 3.6-1.5 3.6-5.8zm18.4-7.5c1.6 0 3.2.5 3.9 1c0 1.1-.1 2.5-.5 3.6c.03 0-1.5 0-1.5 0c0 0-.47-3.12-.5-3.1c-.5-.1-1-.2-1.5-.2c-2.2 0-4.1 1.6-4.1 5.7c0 3.8 1.8 5.7 4.2 5.7c1.6 0 2.7-.7 3.7-1.8c0 0 .6.5.6.5c-1 1.9-2.6 3.3-5.1 3.3c-3.6 0-6.2-2.6-6.2-7.3c0-4.9 3-7.4 7-7.4zm12.9 0c4.2 0 6.4 2.4 6.4 7.3c0 4.6-2.8 7.4-6.8 7.4c-4.2 0-6.3-2.4-6.3-7.3c0-4.8 2.7-7.4 6.7-7.4zm3.5 7.5c0-4.1-1.3-6.2-3.6-6.2c-2.3 0-3.7 1.6-3.7 5.7c0 4.4 1.3 6.3 3.7 6.3c2.2 0 3.6-1.5 3.6-5.8zm7 5.5c.02-.04 0-10.9 0-10.9l-2-.5c0 0-.04-1 0-1c1.1-.4 2.8-.6 4.7-.6c0 0 0 2.3 0 2.3c.9-1.5 2.7-2.4 4.8-2.4c2.6 0 4.3 1.4 4.3 4.1c0 0 0 9 0 9c.8 0 1.6.2 2.2.4c-.04.04 0 1 0 1l-7.1 0c0 0 .03-.96 0-1c.6-.2 1.4-.4 2.2-.4c0 0 0-8.4 0-8.4c0-1.8-1-2.7-2.9-2.7c-1.4 0-2.7.5-3.5 1.4c0 0 0 9.7 0 9.7c.8 0 1.6.2 2.2.4c-.03.04 0 1 0 1l-7.1 0c0 0 .04-.96 0-1c.6-.2 1.4-.4 2.2-.4zm16.7-3c.04.05 1.6 0 1.6 0c0 0 .44 3.17.4 3.2c.7.2 1.4.2 2 .2c1.9 0 3.3-.8 3.3-2.5c0-1.3-.9-1.9-2.5-2.4c0 0-1.7-.5-1.7-.5c-2.2-.6-3.4-1.9-3.4-4c0-2.6 2.3-4.1 5.2-4.1c1.8 0 3.6.5 4.4.9c0 0 0 .4 0 .4c-.1 1-.2 2.3-.5 3.3c-.03-.02-1.6 0-1.6 0c0 0-.4-3.02-.4-3c-.6-.2-1.3-.3-1.9-.3c-1.7 0-2.9.7-2.9 2.2c0 1.4.8 2 2.2 2.4c0 0 1.7.5 1.7.5c2.4.7 3.8 1.7 3.8 4.1c0 2.6-2.3 4.4-5.7 4.4c-1.8 0-3.7-.5-4.4-1c0 0 0-.4 0-.4c0-1 .1-2.4.4-3.4zm18.8-10c3.4 0 5.4 1.8 5.4 5.2c0 .6 0 .9-.2 1.6c.03-.02-9.1 0-9.1 0c0 0 .05.22 0 .2c0 4.1 2.1 5.7 4.7 5.7c1.5 0 2.7-.7 3.7-1.8c0 0 .6.5.6.5c-1 1.9-2.7 3.3-5.2 3.3c-3.6 0-6.5-2.2-6.5-7.3c0-4.7 3-7.4 6.6-7.4zm-3.8 5.4c.04.04 6.5 0 6.5 0c0 0-.01-.44 0-.4c0-2.6-1.1-3.7-2.8-3.7c-1.8 0-3.3 1.2-3.7 4.1zm13.4 7.6c-.01-.04 0-10.9 0-10.9l-2.1-.5c0 0 .04-1 0-1c1.1-.4 2.8-.6 4.8-.6c0 0 0 2.2 0 2.2c.7-1.3 2.5-2.2 4.1-2.2c.6 0 1.3.1 1.6.2c0 1.6-.2 3.4-.4 4.3c-.01-.02-1.6 0-1.6 0l-.4-2.7c0 0-.13.01-.1 0c-1.2 0-2.6.6-3.2 1.4c0 0 0 9.8 0 9.8c1.1 0 2 .2 2.7.4c.05.04 0 1 0 1l-7.6 0c0 0 .01-.96 0-1c.6-.2 1.3-.4 2.2-.4zm16.9-13c1.5 0 3.1.5 3.8 1c0 1.1-.1 2.5-.4 3.6c-.04 0-1.6 0-1.6 0c0 0-.44-3.12-.4-3.1c-.6-.1-1.1-.2-1.6-.2c-2.1 0-4.1 1.6-4.1 5.7c0 3.8 1.8 5.7 4.3 5.7c1.5 0 2.6-.7 3.6-1.8c0 0 .6.5.6.5c-1 1.9-2.5 3.3-5.1 3.3c-3.6 0-6.2-2.6-6.2-7.3c0-4.9 3.1-7.4 7.1-7.4zm7.7 13c.02-.04 0-17.7 0-17.7l-2-.5c0 0-.04-.99 0-1c1.1-.4 2.7-.6 4.7-.6c0 0 0 9.1 0 9.1c.9-1.5 2.7-2.4 4.8-2.4c2.6 0 4.3 1.4 4.3 4.1c0 0 0 9 0 9c.8 0 1.5.2 2.2.4c-.05.04 0 1 0 1l-7.1 0c0 0 .03-.96 0-1c.6-.2 1.4-.4 2.2-.4c0 0 0-8.4 0-8.4c0-1.8-1-2.7-2.9-2.7c-1.4 0-2.7.5-3.5 1.4c0 0 0 9.7 0 9.7c.8 0 1.6.2 2.2.4c-.03.04 0 1 0 1l-7.1 0c0 0 .04-.96 0-1c.6-.2 1.4-.4 2.2-.4zm18-18c0-.5 0-.9.1-1.2c.4-.1.8-.1 1.3-.1c.5 0 .9 0 1.3.1c.1.3.2.7.2 1.2c0 1-.2 1.6-.3 2.1c-.3.1-.8.1-1.2.1c-.4 0-.8 0-1.2-.1c-.1-.5-.2-1.1-.2-2.1zm0 18c-.05-.04 0-10.9 0-10.9l-2.1-.5c0 0-.01-1 0-1c1.1-.4 2.8-.6 4.7-.6c0 0 0 13 0 13c.9 0 1.6.2 2.2.4c0 .04 0 1 0 1l-7 0c0 0-.03-.96 0-1c.6-.2 1.3-.4 2.2-.4zm8.6 0c-.05-.04 0-17.7 0-17.7l-2.1-.5c0 0-.01-.99 0-1c1.1-.4 2.8-.6 4.7-.6c0 0 0 19.8 0 19.8c.9 0 1.6.2 2.2.4c0 .04 0 1 0 1l-7 0c0 0-.03-.96 0-1c.6-.2 1.3-.4 2.2-.4zm14.9-18c0-.5 0-.9.1-1.2c.4-.1.8-.1 1.3-.1c.5 0 .9 0 1.3.1c.1.3.2.7.2 1.2c0 1-.2 1.6-.3 2.1c-.3.1-.8.1-1.2.1c-.4 0-.8 0-1.2-.1c-.1-.5-.2-1.1-.2-2.1zm0 18c-.04-.04 0-10.9 0-10.9l-2.1-.5c0 0 0-1 0-1c1.1-.4 2.8-.6 4.7-.6c0 0 0 13 0 13c.9 0 1.6.2 2.2.4c0 .04 0 1 0 1l-7 0c0 0-.02-.96 0-1c.6-.2 1.3-.4 2.2-.4zm26.4 0c0 0 0-8.4 0-8.4c0-1.8-.9-2.7-2.7-2.7c-1.4 0-2.7.5-3.5 1.4c0 0 0 9.7 0 9.7c.8 0 1.6.2 2.2.4c-.03.04 0 1 0 1l-7.1 0c0 0 .04-.96 0-1c.6-.2 1.4-.4 2.2-.4c0 0 0-8.4 0-8.4c0-1.8-.8-2.7-2.6-2.7c-1.4 0-2.7.5-3.6 1.4c0 0 0 9.7 0 9.7c.9 0 1.6.2 2.2.4c.03.04 0 1 0 1l-7 0c0 0 0-.96 0-1c.6-.2 1.3-.4 2.2-.4c-.02-.04 0-10.9 0-10.9l-2.1-.5c0 0 .02-1 0-1c1.1-.4 2.8-.6 4.7-.6c0 0 0 2.3 0 2.3c.9-1.5 2.8-2.4 4.9-2.4c2 0 3.3.9 3.7 2.6c1-1.5 2.8-2.6 5.1-2.6c2.6 0 4 1.4 4 4.1c0 0 0 9 0 9c.9 0 1.6.2 2.2.4c.02.04 0 1 0 1l-7 0c0 0-.01-.96 0-1c.6-.2 1.3-.4 2.2-.4zm8.6 5.7c-.03-.05 0-16.6 0-16.6l-2.1-.5c0 0 .01-1 0-1c1.1-.4 2.8-.6 4.7-.6c0 0 0 2.6 0 2.6c.8-1.6 2.7-2.7 4.5-2.7c3.3 0 5.5 2.4 5.5 6.9c0 4.9-2.9 8-6.8 8c-1.2 0-2.4-.4-3.2-1c0 0 0 4.9 0 4.9c1.1 0 1.9.2 2.6.4c-.02.04 0 1 0 1l-7.4 0c0 0-.01-.96 0-1c.6-.2 1.3-.4 2.2-.4zm2.6-15.3c0 0 0 9.5 0 9.5c.7.2 1.4.3 2.3.3c2.9 0 4.9-2.2 4.9-6.1c0-3.7-1.5-5.3-3.8-5.3c-1.4 0-2.6.7-3.4 1.6zm19.4-3.4c4.2 0 6.4 2.4 6.4 7.3c0 4.6-2.8 7.4-6.7 7.4c-4.2 0-6.3-2.4-6.3-7.3c0-4.8 2.6-7.4 6.6-7.4zm3.5 7.5c0-4.1-1.2-6.2-3.6-6.2c-2.2 0-3.6 1.6-3.6 5.7c0 4.4 1.3 6.3 3.6 6.3c2.2 0 3.6-1.5 3.6-5.8zm7.1 5.5c-.04-.04 0-10.9 0-10.9l-2.1-.5c0 0 0-1 0-1c1.1-.4 2.8-.6 4.7-.6c0 0 0 2.2 0 2.2c.8-1.3 2.6-2.2 4.2-2.2c.6 0 1.2.1 1.6.2c0 1.6-.3 3.4-.4 4.3c-.04-.02-1.6 0-1.6 0l-.4-2.7c0 0-.16.01-.2 0c-1.1 0-2.5.6-3.2 1.4c0 0 0 9.8 0 9.8c1.1 0 2.1.2 2.8.4c.02.04 0 1 0 1l-7.6 0c0 0-.02-.96 0-1c.6-.2 1.3-.4 2.2-.4zm16.5-13c3.4 0 5.3 1.8 5.3 5.2c0 .6 0 .9-.1 1.6c-.02-.02-9.1 0-9.1 0c0 0-.01.22 0 .2c0 4.1 2.1 5.7 4.6 5.7c1.6 0 2.8-.7 3.8-1.8c0 0 .6.5.6.5c-1 1.9-2.7 3.3-5.2 3.3c-3.7 0-6.6-2.2-6.6-7.3c0-4.7 3-7.4 6.7-7.4zm-3.8 5.4c-.01.04 6.4 0 6.4 0c0 0 .04-.44 0-.4c0-2.6-1.1-3.7-2.7-3.7c-1.8 0-3.4 1.2-3.7 4.1zm13.3 13.3c.04-.05 0-16.6 0-16.6l-2-.5c0 0-.02-1 0-1c1.1-.4 2.8-.6 4.7-.6c0 0 0 2.6 0 2.6c.8-1.6 2.6-2.7 4.5-2.7c3.3 0 5.4 2.4 5.4 6.9c0 4.9-2.9 8-6.7 8c-1.3 0-2.4-.4-3.2-1c0 0 0 4.9 0 4.9c1.1 0 1.8.2 2.6.4c-.05.04 0 1 0 1l-7.4 0c0 0-.04-.96 0-1c.6-.2 1.3-.4 2.1-.4zm2.7-15.3c0 0 0 9.5 0 9.5c.7.2 1.4.3 2.3.3c2.9 0 4.9-2.2 4.9-6.1c0-3.7-1.5-5.3-3.8-5.3c-1.4 0-2.7.7-3.4 1.6z" stroke="none" fill="#404040"/></g></svg>