<?xml version="1.0" standalone="no"?><!DOCTYPE svg PUBLIC "-//W3C//DTD SVG 1.1//EN" "http://www.w3.org/Graphics/SVG/1.1/DTD/svg11.dtd"><svg xmlns="http://www.w3.org/2000/svg" version="1.1" width="203px" height="47.5px" viewBox="0 0 203 47.5"><desc>Santa Rosa Island 52,794 acres</desc><defs/><g id="Polygon6573"><path d="m4.3 30.3l-2.3 0c0 0-.11.88-.1.9c.1 0 .2 0 .4 0c.5 0 1.1.1 1.5.4c.4.3.7.8.7 1.4c0 1.1-.9 2.1-2.5 2.1c-.7 0-1.3-.2-1.6-.3c0 0 .2-1.1.2-1.1c.3.2.8.3 1.3.3c.6 0 1.2-.2 1.2-.9c0-.6-.5-.9-1.6-.9c-.4 0-.6 0-.8 0c-.02.02.4-3 .4-3l3.2 0l0 1.1zm1.1 4.7l0-.8c0 0 .73-.7.7-.7c1.3-1.2 1.9-1.8 1.9-2.5c0-.5-.2-.9-.9-.9c-.5 0-1 .3-1.3.5c0 0-.3-.9-.3-.9c.4-.4 1.1-.6 1.9-.6c1.3 0 2 .7 2 1.8c0 1-.7 1.8-1.5 2.5c-.04.01-.6.5-.6.5l0 0l2.2 0l0 1.1l-4.1 0zm4.6 1.1c.3-.8.5-1.8.7-2.6c0 0 1.4-.1 1.4-.1c-.3.9-.8 1.9-1.2 2.6c0 0-.9.1-.9.1zm6.9-6.9l0 .8l-2.4 5l-1.5 0l2.5-4.7l0 0l-2.7 0l0-1.1l4.1 0zm1.2 4.8c.2 0 .3 0 .6 0c.4 0 .9-.1 1.2-.3c.4-.3.6-.7.7-1.1c0 0 0 0 0 0c-.3.2-.7.4-1.2.4c-1 0-1.8-.7-1.8-1.8c0-1.2.9-2.1 2.2-2.1c1.5 0 2.2 1.1 2.2 2.5c0 1.2-.4 2.1-1 2.7c-.6.5-1.3.7-2.3.8c-.2 0-.4 0-.6 0c0 0 0-1.1 0-1.1zm.9-2.9c0 .5.2.9.8.9c.4 0 .6-.2.7-.4c.1-.1.1-.1.1-.3c0-.6-.2-1.2-.9-1.2c-.4 0-.7.4-.7 1zm6.1 3.9l0-1.4l-2.6 0l0-.9l2.2-3.5l1.7 0l0 3.4l.7 0l0 1l-.7 0l0 1.4l-1.3 0zm0-2.4c0 0 .02-1.32 0-1.3c0-.4 0-.7.1-1.1c0 0-.1 0-.1 0c-.2.4-.3.7-.5 1.1c-.02-.02-.8 1.3-.8 1.3l0 0l1.3 0zm8.2 1.3c0 .5.1.9.1 1.1c.02 0-1.2 0-1.2 0l-.1-.4c0 0-.02-.04 0 0c-.3.3-.8.5-1.3.5c-.9 0-1.4-.6-1.4-1.4c0-1.1 1-1.6 2.6-1.6c0 0 0-.1 0-.1c0-.2-.1-.6-.8-.6c-.5 0-1 .2-1.2.4c0 0-.3-.9-.3-.9c.3-.2.9-.4 1.7-.4c1.5 0 1.9.9 1.9 1.9c0 0 0 1.5 0 1.5zm-1.3-1c-.7 0-1.3.2-1.3.7c0 .4.3.5.6.5c.3 0 .6-.2.7-.5c0 0 0-.1 0-.2c0 0 0-.5 0-.5zm5.7 2c-.2.1-.7.2-1.2.2c-1.4 0-2.3-.9-2.3-2.3c0-1.2.9-2.3 2.5-2.3c.4 0 .8.1 1 .2c0 0-.2 1-.2 1c-.1-.1-.4-.1-.7-.1c-.8 0-1.2.5-1.2 1.2c0 .8.5 1.2 1.2 1.2c.3 0 .6 0 .8-.1c0 0 .1 1 .1 1zm.8-2.9c0-.6 0-1 0-1.4c-.04 0 1.1 0 1.1 0l.1.8c0 0 .02.01 0 0c.2-.6.8-.9 1.2-.9c.1 0 .2 0 .3 0c0 0 0 1.3 0 1.3c-.1 0-.2 0-.4 0c-.5 0-.8.2-.9.7c0 .1 0 .2 0 .3c-.04-.03 0 2.2 0 2.2l-1.4 0c0 0-.01-2.95 0-3zm4.4 1.2c0 .6.6.9 1.2.9c.5 0 .9-.1 1.3-.2c0 0 .1.9.1.9c-.4.2-1 .3-1.6.3c-1.5 0-2.3-.9-2.3-2.3c0-1.1.7-2.3 2.2-2.3c1.4 0 2 1.1 2 2.2c0 .2-.1.4-.1.5c0 0-2.8 0-2.8 0zm1.6-.9c0-.3-.1-.9-.8-.9c-.5 0-.8.5-.8.9c0 0 1.6 0 1.6 0zm2.1 1.5c.2.2.8.3 1.2.3c.4 0 .5-.1.5-.3c0-.3-.1-.4-.6-.5c-.9-.3-1.3-.8-1.3-1.4c0-.8.8-1.4 1.8-1.4c.6 0 1 .1 1.3.3c0 0-.3.9-.3.9c-.2-.1-.5-.3-.9-.3c-.3 0-.5.2-.5.4c0 .2.1.3.7.5c.8.3 1.2.7 1.2 1.4c0 .8-.7 1.4-1.9 1.4c-.6 0-1.1-.1-1.5-.3c0 0 .3-1 .3-1z" stroke="none" fill="#000"/></g><g id="Polygon6572"><path d="m1.4 11.9c.8.4 2.1.8 3.4.8c1.4 0 2.1-.6 2.1-1.5c0-.8-.6-1.3-2.2-1.8c-2.3-.8-3.7-2.1-3.7-4c0-2.3 1.9-4.1 5.1-4.1c1.5 0 2.6.3 3.4.7c0 0-.7 2.4-.7 2.4c-.5-.2-1.5-.6-2.8-.6c-1.3 0-1.9.6-1.9 1.3c0 .9.7 1.2 2.5 1.9c2.3.9 3.4 2.1 3.4 4c0 2.3-1.7 4.2-5.4 4.2c-1.5 0-3-.4-3.8-.8c0 0 .6-2.5.6-2.5zm18.9.7c0 1 .1 1.9.2 2.4c-.02 0-2.8 0-2.8 0l-.1-1c0 0-.1.02-.1 0c-.6.8-1.6 1.2-2.8 1.2c-2 0-3.2-1.4-3.2-3c0-2.5 2.3-3.7 5.8-3.7c0 0 0-.1 0-.1c0-.6-.3-1.3-1.8-1.3c-1 0-2.1.3-2.7.7c0 0-.6-1.9-.6-1.9c.7-.4 2.1-.9 3.8-.9c3.3 0 4.3 1.9 4.3 4.2c0 0 0 3.4 0 3.4zm-2.9-2.2c-1.6 0-2.9.4-2.9 1.5c0 .8.6 1.2 1.2 1.2c.8 0 1.4-.5 1.6-1.1c.1-.2.1-.4.1-.6c0 0 0-1 0-1zm5.3-2.1c0-1.2 0-2.2 0-3.1c-.04.02 2.6 0 2.6 0l.1 1.4c0 0 .1-.02.1 0c.4-.7 1.4-1.6 3-1.6c2 0 3.5 1.3 3.5 4.2c.02.02 0 5.8 0 5.8l-3 0c0 0-.02-5.42 0-5.4c0-1.3-.5-2.1-1.6-2.1c-.8 0-1.3.5-1.5 1.1c-.1.2-.1.5-.1.8c-.02-.04 0 5.6 0 5.6l-3.1 0c0 0 .04-6.66 0-6.7zm15-5.7l0 2.6l2.2 0l0 2.3l-2.2 0c0 0 .04 3.5 0 3.5c0 1.2.3 1.7 1.2 1.7c.5 0 .7 0 .9-.1c0 0 .1 2.3.1 2.3c-.4.2-1.2.3-2 .3c-1 0-1.8-.3-2.3-.8c-.6-.6-.8-1.6-.8-2.9c-.04-.04 0-4 0-4l-1.3 0l0-2.3l1.3 0l0-1.8l2.9-.8zm12.1 10c0 1 .1 1.9.2 2.4c-.02 0-2.8 0-2.8 0l-.1-1c0 0-.1.02-.1 0c-.6.8-1.6 1.2-2.8 1.2c-2 0-3.2-1.4-3.2-3c0-2.5 2.3-3.7 5.8-3.7c0 0 0-.1 0-.1c0-.6-.3-1.3-1.8-1.3c-1 0-2.1.3-2.7.7c0 0-.6-1.9-.6-1.9c.7-.4 2.1-.9 3.8-.9c3.3 0 4.3 1.9 4.3 4.2c0 0 0 3.4 0 3.4zm-2.9-2.2c-1.6 0-2.9.4-2.9 1.5c0 .8.6 1.2 1.2 1.2c.8 0 1.4-.5 1.6-1.1c.1-.2.1-.4.1-.6c0 0 0-1 0-1zm9.5-8.7c1-.2 2.4-.3 4-.3c2 0 3.4.3 4.4 1.1c.8.6 1.3 1.6 1.3 2.8c0 1.7-1.3 2.9-2.4 3.3c0 0 0 .1 0 .1c.9.4 1.4 1.2 1.8 2.5c.4 1.5.8 3.3 1.1 3.8c0 0-3.2 0-3.2 0c-.2-.4-.5-1.5-.9-3.1c-.4-1.7-.9-2.2-2.2-2.2c0 0-.9 0-.9 0l0 5.3l-3 0c0 0-.02-13.3 0-13.3zm3 5.8c0 0 1.2 0 1.2 0c1.5 0 2.4-.8 2.4-1.9c0-1.3-.8-1.9-2.2-1.9c-.8 0-1.2 0-1.4.1c0 0 0 3.7 0 3.7zm18.4 2.5c0 3.6-2.5 5.2-5.2 5.2c-2.8 0-5-1.9-5-5c0-3.2 2.1-5.2 5.2-5.2c3 0 5 2 5 5zm-7.1.1c0 1.7.7 2.9 2 2.9c1.2 0 2-1.1 2-2.9c0-1.5-.6-2.9-2-2.9c-1.4 0-2 1.5-2 2.9zm9 2.3c.5.3 1.7.7 2.6.7c.9 0 1.3-.3 1.3-.8c0-.5-.3-.8-1.4-1.2c-2.1-.6-2.9-1.7-2.8-2.9c0-1.8 1.5-3.2 3.9-3.2c1.2 0 2.2.3 2.8.6c0 0-.5 2.1-.5 2.1c-.5-.3-1.3-.6-2.2-.6c-.7 0-1.1.3-1.1.8c0 .5.4.7 1.6 1.1c1.8.7 2.6 1.6 2.6 3c0 1.9-1.4 3.2-4.2 3.2c-1.3 0-2.4-.3-3.2-.7c0 0 .6-2.1.6-2.1zm16.8.2c0 1 0 1.9.2 2.4c-.04 0-2.8 0-2.8 0l-.2-1c0 0-.02.02 0 0c-.7.8-1.7 1.2-2.8 1.2c-2 0-3.2-1.4-3.2-3c0-2.5 2.3-3.7 5.8-3.7c0 0 0-.1 0-.1c0-.6-.3-1.3-1.8-1.3c-1 0-2.1.3-2.7.7c0 0-.6-1.9-.6-1.9c.7-.4 2-.9 3.8-.9c3.3 0 4.3 1.9 4.3 4.2c0 0 0 3.4 0 3.4zm-2.9-2.2c-1.6 0-2.9.4-2.9 1.5c0 .8.5 1.2 1.2 1.2c.8 0 1.4-.5 1.6-1.1c0-.2.1-.4.1-.6c0 0 0-1 0-1zm12.5-8.9l0 13.5l-3 0l0-13.5l3 0zm2.5 10.9c.5.3 1.7.7 2.6.7c.9 0 1.3-.3 1.3-.8c0-.5-.3-.8-1.4-1.2c-2.1-.6-2.8-1.7-2.8-2.9c0-1.8 1.5-3.2 4-3.2c1.1 0 2.1.3 2.7.6c0 0-.5 2.1-.5 2.1c-.5-.3-1.3-.6-2.1-.6c-.8 0-1.2.3-1.2.8c0 .5.4.7 1.6 1.1c1.8.7 2.6 1.6 2.6 3c0 1.9-1.4 3.2-4.2 3.2c-1.3 0-2.4-.3-3.2-.7c0 0 .6-2.1.6-2.1zm8.7-11.6l3 0l0 14.2l-3 0l0-14.2zm13.6 11.8c0 1 .1 1.9.2 2.4c-.02 0-2.8 0-2.8 0l-.1-1c0 0-.1.02-.1 0c-.6.8-1.6 1.2-2.8 1.2c-2 0-3.2-1.4-3.2-3c0-2.5 2.3-3.7 5.8-3.7c0 0 0-.1 0-.1c0-.6-.3-1.3-1.8-1.3c-1 0-2.1.3-2.7.7c0 0-.6-1.9-.6-1.9c.7-.4 2.1-.9 3.8-.9c3.3 0 4.3 1.9 4.3 4.2c0 0 0 3.4 0 3.4zm-2.9-2.2c-1.6 0-2.9.4-2.9 1.5c0 .8.6 1.2 1.2 1.2c.8 0 1.4-.5 1.6-1.1c.1-.2.1-.4.1-.6c0 0 0-1 0-1zm5.3-2.1c0-1.2 0-2.2 0-3.1c-.04.02 2.6 0 2.6 0l.1 1.4c0 0 .1-.02.1 0c.4-.7 1.4-1.6 3-1.6c2 0 3.5 1.3 3.5 4.2c.02.02 0 5.8 0 5.8l-3 0c0 0-.02-5.42 0-5.4c0-1.3-.5-2.1-1.6-2.1c-.8 0-1.3.5-1.5 1.1c-.1.2-.1.5-.1.8c-.02-.04 0 5.6 0 5.6l-3.1 0c0 0 .04-6.66 0-6.7zm21.2-7.5c0 0 .04 11.28 0 11.3c0 1.1.1 2.2.1 2.9c.02 0-2.7 0-2.7 0l-.1-1.4c0 0-.06-.02-.1 0c-.6 1.1-1.8 1.6-3 1.6c-2.3 0-4.2-2-4.2-5c0-3.3 2-5.2 4.4-5.2c1.2 0 2.1.4 2.6 1.1c-.04-.02 0 0 0 0l0-5.3l3 0zm-3 8.6c0-.2 0-.4 0-.6c-.2-.8-.9-1.5-1.8-1.5c-1.4 0-2.1 1.3-2.1 2.8c0 1.7.8 2.7 2.1 2.7c.8 0 1.6-.6 1.7-1.5c.1-.2.1-.4.1-.7c0 0 0-1.2 0-1.2z" stroke="none" fill="#000"/></g></svg>