<?xml version="1.0" standalone="no"?><!DOCTYPE svg PUBLIC "-//W3C//DTD SVG 1.1//EN" "http://www.w3.org/Graphics/SVG/1.1/DTD/svg11.dtd"><svg xmlns="http://www.w3.org/2000/svg" version="1.1" width="427px" height="197.5px" viewBox="0 0 427 197.5">  <desc>Dolphin</desc>  <defs/>  <g id="Polygon13632">    <path d="M 188.1 89.3 C 188.7 89.1 189.7 89 190.7 89 C 192.3 89 193.4 89.4 194.3 90.2 C 195.4 91.2 196 92.9 196 95.4 C 196 98.1 195.3 99.9 194.2 100.9 C 193.3 101.8 192 102.2 190.2 102.2 C 189.4 102.2 188.6 102.1 188.1 102 C 188.1 102 188.1 89.3 188.1 89.3 Z M 190.6 100.1 C 190.8 100.1 190.9 100.1 191.1 100.1 C 192.3 100.1 193.4 98.9 193.4 95.3 C 193.4 92.7 192.7 91.1 191.1 91.1 C 191 91.1 190.8 91.1 190.6 91.1 C 190.6 91.1 190.6 100.1 190.6 100.1 Z M 204.2 97.3 C 204.2 101.3 202 102.2 200.6 102.2 C 198.4 102.2 197 100.5 197 97.4 C 197 94 198.8 92.5 200.7 92.5 C 202.9 92.5 204.2 94.4 204.2 97.3 Z M 199.5 97.3 C 199.5 99 199.8 100.3 200.7 100.3 C 201.5 100.3 201.7 98.7 201.7 97.3 C 201.7 96.1 201.5 94.4 200.6 94.4 C 199.7 94.4 199.5 96.1 199.5 97.3 Z M 205.7 88.8 L 208.2 88.8 L 208.2 102.1 L 205.7 102.1 L 205.7 88.8 Z M 210 95.7 C 210 94.5 209.9 93.6 209.9 92.7 C 209.89 92.66 212.1 92.7 212.1 92.7 L 212.2 93.7 C 212.2 93.7 212.26 93.74 212.3 93.7 C 212.6 93 213.4 92.5 214.2 92.5 C 216.3 92.5 217.2 94.7 217.2 97.4 C 217.2 100.7 215.7 102.2 214.1 102.2 C 213.3 102.2 212.8 101.8 212.5 101.3 C 212.53 101.32 212.5 101.3 212.5 101.3 L 212.5 105.8 L 210 105.8 C 210 105.8 209.97 95.65 210 95.7 Z M 212.5 98.7 C 212.5 99 212.5 99.3 212.6 99.4 C 212.8 100 213.2 100.2 213.4 100.2 C 214.3 100.2 214.7 98.9 214.7 97.4 C 214.7 95.6 214.2 94.6 213.5 94.6 C 213.1 94.6 212.7 95 212.6 95.4 C 212.5 95.6 212.5 95.9 212.5 96.1 C 212.5 96.1 212.5 98.7 212.5 98.7 Z M 218.6 88.8 L 221.1 88.8 L 221.1 93.6 C 221.1 93.6 221.17 93.65 221.2 93.6 C 221.4 93.3 221.7 93.1 222 92.9 C 222.3 92.6 222.8 92.5 223.3 92.5 C 225 92.5 225.7 94 225.7 96.4 C 225.66 96.37 225.7 102.1 225.7 102.1 L 223.1 102.1 C 223.1 102.1 223.14 96.37 223.1 96.4 C 223.1 95.4 223 94.6 222.2 94.6 C 221.8 94.6 221.4 94.9 221.2 95.5 C 221.2 95.7 221.1 96 221.1 96.2 C 221.13 96.23 221.1 102.1 221.1 102.1 L 218.6 102.1 L 218.6 88.8 Z M 227.4 102.1 L 227.4 92.7 L 230 92.7 L 230 102.1 L 227.4 102.1 Z M 230 90.2 C 230 91 229.4 91.5 228.6 91.5 C 227.9 91.5 227.4 91 227.4 90.2 C 227.4 89.3 228 88.8 228.7 88.8 C 229.4 88.8 230 89.3 230 90.2 Z M 231.7 95.5 C 231.7 94.5 231.7 93.6 231.7 92.7 C 231.66 92.66 233.8 92.7 233.8 92.7 L 234 93.7 C 234 93.7 234.01 93.74 234 93.7 C 234.5 93 235.3 92.5 236.3 92.5 C 238.1 92.5 238.8 93.9 238.8 96 C 238.79 96.04 238.8 102.1 238.8 102.1 L 236.3 102.1 C 236.3 102.1 236.26 96.19 236.3 96.2 C 236.3 95.4 236.1 94.6 235.3 94.6 C 234.9 94.6 234.6 94.9 234.4 95.5 C 234.3 95.7 234.3 96 234.3 96.3 C 234.26 96.35 234.3 102.1 234.3 102.1 L 231.7 102.1 C 231.7 102.1 231.73 95.5 231.7 95.5 Z " stroke="none" fill="#000" fill-opacity="0.7"/>  </g></svg>