<?xml version="1.0" standalone="no"?><!DOCTYPE svg PUBLIC "-//W3C//DTD SVG 1.1//EN" "http://www.w3.org/Graphics/SVG/1.1/DTD/svg11.dtd"><svg xmlns="http://www.w3.org/2000/svg" version="1.1" width="125px" height="145.8px" viewBox="0 0 125 145.8">  <desc>Squirrel</desc>  <defs/>  <g id="Polygon14043">    <path d="M 42.5 72.7 C 42.9 73 43.6 73.1 44.2 73.1 C 45.1 73.1 45.5 72.7 45.5 72 C 45.5 71.3 45.1 70.9 44.2 70.3 C 42.9 69.5 42.3 68.4 42.3 67.5 C 42.3 65.9 43.4 64.6 45.5 64.6 C 46.2 64.6 46.8 64.7 47.1 64.9 C 47.1 64.9 46.8 66.6 46.8 66.6 C 46.5 66.4 46.1 66.3 45.5 66.3 C 44.7 66.3 44.3 66.8 44.3 67.3 C 44.3 67.9 44.6 68.2 45.6 68.9 C 47 69.7 47.5 70.7 47.5 71.8 C 47.5 73.6 46.1 74.8 44.1 74.8 C 43.3 74.8 42.6 74.6 42.2 74.4 C 42.2 74.4 42.5 72.7 42.5 72.7 Z M 52 74.1 C 52 74.1 51.93 74.12 51.9 74.1 C 51.6 74.6 51.2 74.9 50.5 74.9 C 49.1 74.9 48.3 73.2 48.3 71.2 C 48.3 68.8 49.4 67.3 50.8 67.3 C 51.3 67.3 51.8 67.5 52.2 68.2 C 52.16 68.18 52.2 68.2 52.2 68.2 L 52.3 67.4 C 52.3 67.4 53.99 67.41 54 67.4 C 54 68.1 53.9 68.9 53.9 69.7 C 53.93 69.74 53.9 77.6 53.9 77.6 L 52 77.6 L 52 74.1 Z M 52 70.1 C 52 70 51.9 69.8 51.9 69.7 C 51.8 69.2 51.5 68.9 51.2 68.9 C 50.6 68.9 50.3 69.8 50.3 71.1 C 50.3 72.4 50.6 73.3 51.2 73.3 C 51.5 73.3 51.8 73.1 51.9 72.6 C 51.9 72.5 52 72.3 52 72.1 C 52 72.1 52 70.1 52 70.1 Z M 60.7 72.5 C 60.7 73.3 60.7 74.1 60.7 74.8 C 60.72 74.75 59 74.8 59 74.8 L 58.9 74 C 58.9 74 58.89 73.97 58.9 74 C 58.5 74.5 57.9 74.9 57.2 74.9 C 55.8 74.9 55.2 73.8 55.2 71.9 C 55.23 71.86 55.2 67.4 55.2 67.4 L 57.2 67.4 C 57.2 67.4 57.2 71.64 57.2 71.6 C 57.2 72.6 57.4 73.2 57.9 73.2 C 58.3 73.2 58.5 73 58.6 72.7 C 58.7 72.6 58.7 72.4 58.7 72.1 C 58.7 72.1 58.7 67.4 58.7 67.4 L 60.7 67.4 C 60.7 67.4 60.66 72.52 60.7 72.5 Z M 62.1 74.8 L 62.1 67.4 L 64 67.4 L 64 74.8 L 62.1 74.8 Z M 64 65.5 C 64.1 66.1 63.6 66.5 63 66.5 C 62.5 66.5 62 66.1 62 65.5 C 62 64.8 62.5 64.4 63 64.4 C 63.6 64.4 64 64.8 64 65.5 Z M 65.4 69.6 C 65.4 68.9 65.4 68.1 65.4 67.4 C 65.36 67.41 67.1 67.4 67.1 67.4 L 67.2 68.5 C 67.2 68.5 67.22 68.48 67.2 68.5 C 67.5 67.7 68.1 67.3 68.7 67.3 C 68.9 67.3 69 67.3 69.1 67.3 C 69.1 67.3 69.1 69.3 69.1 69.3 C 69 69.2 68.8 69.2 68.7 69.2 C 68.2 69.2 67.7 69.5 67.5 70.3 C 67.4 70.4 67.4 70.7 67.4 71 C 67.38 71.02 67.4 74.8 67.4 74.8 L 65.4 74.8 C 65.4 74.8 65.42 69.62 65.4 69.6 Z M 69.8 69.6 C 69.8 68.9 69.8 68.1 69.8 67.4 C 69.77 67.41 71.5 67.4 71.5 67.4 L 71.6 68.5 C 71.6 68.5 71.63 68.48 71.6 68.5 C 71.9 67.7 72.5 67.3 73.1 67.3 C 73.3 67.3 73.4 67.3 73.5 67.3 C 73.5 67.3 73.5 69.3 73.5 69.3 C 73.4 69.2 73.2 69.2 73.1 69.2 C 72.6 69.2 72.1 69.5 71.9 70.3 C 71.8 70.4 71.8 70.7 71.8 71 C 71.79 71.02 71.8 74.8 71.8 74.8 L 69.8 74.8 C 69.8 74.8 69.83 69.62 69.8 69.6 Z M 75.8 71.8 C 75.8 72.9 76.5 73.3 77.4 73.3 C 77.9 73.3 78.4 73.2 78.8 73.1 C 78.8 73.1 79 74.5 79 74.5 C 78.5 74.7 77.8 74.8 77 74.8 C 75 74.8 73.9 73.5 73.9 71.2 C 73.9 68.8 75.2 67.3 76.9 67.3 C 78.4 67.3 79.4 68.5 79.4 70.8 C 79.4 71.3 79.3 71.6 79.3 71.8 C 79.3 71.8 75.8 71.8 75.8 71.8 Z M 77.6 70.4 C 77.6 69.5 77.3 68.7 76.7 68.7 C 76.1 68.7 75.8 69.7 75.8 70.4 C 75.8 70.4 77.6 70.4 77.6 70.4 Z M 80.5 64.4 L 82.4 64.4 L 82.4 74.8 L 80.5 74.8 L 80.5 64.4 Z " stroke="none" fill="#000" fill-opacity="0.7"/>  </g></svg>