<?xml version="1.0" standalone="no"?><!DOCTYPE svg PUBLIC "-//W3C//DTD SVG 1.1//EN" "http://www.w3.org/Graphics/SVG/1.1/DTD/svg11.dtd"><svg xmlns="http://www.w3.org/2000/svg" version="1.1" width="125px" height="145.8px" viewBox="0 0 125 145.8"><desc>California Sea Lions</desc><defs/><g id="Polygon13950"><path d="m17.6 74.6c-.3.1-.9.2-1.5.2c-2.6 0-3.9-2.1-3.9-5c0-3.8 2.1-5.2 4.1-5.2c.7 0 1.2.1 1.4.2c0 0-.4 1.7-.4 1.7c-.2-.1-.4-.2-.9-.2c-1.1 0-2.1.9-2.1 3.4c0 2.5.9 3.4 2.1 3.4c.4 0 .7-.1 1-.1c0 0 .2 1.6.2 1.6zm5.9-1.5c0 .6 0 1.2.1 1.7c-.02-.05-1.8 0-1.8 0l-.1-.8c0 0-.02.03 0 0c-.4.6-1 .9-1.6.9c-1.2 0-2-1-2-2.2c0-2 1.7-2.8 3.4-2.8c0 0 0-.1 0-.1c0-.6-.3-1-1.1-1c-.5 0-1 .1-1.5.4c0 0-.3-1.3-.3-1.3c.4-.3 1.2-.6 2.3-.6c2.2 0 2.6 1.6 2.6 3.1c0 0 0 2.7 0 2.7zm-2-1.9c-.6 0-1.5.2-1.5 1.2c0 .8.4 1 .7 1c.3 0 .7-.2.8-.6c0-.1 0-.2 0-.3c0 0 0-1.3 0-1.3zm3.4-6.8l1.9 0l0 10.4l-1.9 0l0-10.4zm3.3 10.4l0-7.4l2 0l0 7.4l-2 0zm2-9.3c0 .6-.4 1-1 1c-.6 0-1-.4-1-1c0-.7.5-1.1 1-1.1c.6 0 1 .4 1 1.1zm1.7 9.3l0-6l-1 0l0-1.4l1 0c0 0 .02-.27 0-.3c0-.8.2-1.6.8-2.2c.4-.4 1-.6 1.7-.6c.5 0 .9 0 1.2.1c0 0-.2 1.5-.2 1.5c-.2 0-.4 0-.6 0c-.7 0-.9.5-.9 1.2c-.01-.03 0 .3 0 .3l1.3 0l0 1.4l-1.3 0l0 6l-2 0zm9.2-3.7c0 3-1.7 3.8-2.8 3.8c-1.8 0-2.8-1.4-2.8-3.8c0-2.6 1.4-3.8 2.8-3.8c1.8 0 2.8 1.4 2.8 3.8zm-3.7 0c0 1.2.2 2.3.9 2.3c.7 0 .9-1.3.9-2.3c0-1-.2-2.3-.9-2.3c-.7 0-.9 1.3-.9 2.3zm4.8-1.5c0-.7 0-1.5 0-2.2c-.05.01 1.6 0 1.6 0l.2 1.1c0 0 .01-.02 0 0c.3-.8.9-1.2 1.5-1.2c.2 0 .3 0 .4 0c0 0 0 2 0 2c-.1-.1-.3-.1-.4-.1c-.5 0-1 .3-1.2 1.1c-.1.1-.1.4-.1.7c-.02.02 0 3.8 0 3.8l-2 0c0 0 .01-5.18 0-5.2zm4.4 0c0-.8 0-1.5 0-2.2c-.04.01 1.7 0 1.7 0l.1.9c0 0-.01-.04 0 0c.4-.6 1-1 1.8-1c1.4 0 1.9 1.1 1.9 2.7c.01.04 0 4.8 0 4.8l-2 0c0 0 .05-4.64 0-4.6c0-.7-.1-1.3-.7-1.3c-.3 0-.6.3-.7.7c-.1.2-.1.4-.1.7c-.01-.02 0 4.5 0 4.5l-2 0c0 0 .02-5.18 0-5.2zm6.9 5.2l0-7.4l2 0l0 7.4l-2 0zm2-9.3c0 .6-.5 1-1.1 1c-.5 0-1-.4-1-1c0-.7.5-1.1 1.1-1.1c.5 0 1 .4 1 1.1zm6.3 7.6c0 .6 0 1.2.1 1.7c-.01-.05-1.8 0-1.8 0l-.1-.8c0 0-.01.03 0 0c-.4.6-1 .9-1.6.9c-1.1 0-2-1-2-2.2c0-2 1.7-2.8 3.4-2.8c0 0 0-.1 0-.1c0-.6-.3-1-1-1c-.6 0-1.1.1-1.5.4c0 0-.4-1.3-.4-1.3c.4-.3 1.3-.6 2.3-.6c2.2 0 2.6 1.6 2.6 3.1c0 0 0 2.7 0 2.7zm-1.9-1.9c-.7 0-1.6.2-1.6 1.2c0 .8.4 1 .7 1c.3 0 .7-.2.8-.6c0-.1.1-.2.1-.3c0 0 0-1.3 0-1.3zm5.6 1.5c.4.3 1.1.4 1.7.4c.9 0 1.4-.4 1.4-1.1c0-.7-.5-1.1-1.4-1.7c-1.3-.8-1.9-1.9-1.9-2.8c0-1.6 1.1-2.9 3.2-2.9c.7 0 1.3.1 1.6.3c0 0-.3 1.7-.3 1.7c-.3-.2-.7-.3-1.3-.3c-.8 0-1.2.5-1.2 1c0 .6.3.9 1.4 1.6c1.3.8 1.8 1.8 1.8 2.9c0 1.8-1.4 3-3.3 3c-.9 0-1.6-.2-2-.4c0 0 .3-1.7.3-1.7zm7.7-.9c.1 1.1.7 1.5 1.6 1.5c.5 0 1-.1 1.4-.2c0 0 .2 1.4.2 1.4c-.5.2-1.2.3-2 .3c-2 0-3.1-1.3-3.1-3.6c0-2.4 1.3-3.9 3-3.9c1.6 0 2.5 1.2 2.5 3.5c0 .5-.1.8-.1 1c0 0-3.5 0-3.5 0zm1.8-1.4c0-.9-.3-1.7-.8-1.7c-.7 0-.9 1-1 1.7c0 0 1.8 0 1.8 0zm7.8 2.7c0 .6.1 1.2.1 1.7c.04-.05-1.7 0-1.7 0l-.1-.8c0 0-.07.03-.1 0c-.4.6-.9.9-1.6.9c-1.1 0-1.9-1-1.9-2.2c0-2 1.7-2.8 3.3-2.8c0 0 0-.1 0-.1c0-.6-.3-1-1-1c-.6 0-1 .1-1.5.4c0 0-.4-1.3-.4-1.3c.5-.3 1.3-.6 2.3-.6c2.3 0 2.6 1.6 2.6 3.1c0 0 0 2.7 0 2.7zm-1.9-1.9c-.6 0-1.6.2-1.6 1.2c0 .8.4 1 .7 1c.4 0 .7-.2.9-.6c0-.1 0-.2 0-.3c0 0 0-1.3 0-1.3zm5.9-6.6l1.9 0l0 8.5l2.6 0l0 1.7l-4.5 0l0-10.2zm5.5 10.2l0-7.4l2 0l0 7.4l-2 0zm2-9.3c0 .6-.5 1-1.1 1c-.5 0-1-.4-.9-1c-.1-.7.4-1.1 1-1.1c.5 0 1 .4 1 1.1zm6.7 5.6c0 3-1.7 3.8-2.8 3.8c-1.8 0-2.8-1.4-2.8-3.8c0-2.6 1.4-3.8 2.8-3.8c1.8 0 2.8 1.4 2.8 3.8zm-3.7 0c0 1.2.2 2.3.9 2.3c.7 0 .8-1.3.8-2.3c0-1-.1-2.3-.8-2.3c-.7 0-.9 1.3-.9 2.3zm4.8-1.5c0-.8 0-1.5-.1-2.2c.05.01 1.7 0 1.7 0l.1.9c0 0 .08-.04.1 0c.4-.6 1-1 1.7-1c1.4 0 2 1.1 2 2.7c0 .04 0 4.8 0 4.8l-2 0c0 0 .03-4.64 0-4.6c0-.7-.1-1.3-.7-1.3c-.3 0-.6.3-.7.7c-.1.2-.1.4-.1.7c-.03-.02 0 4.5 0 4.5l-2 0c0 0 .01-5.18 0-5.2zm6.8 3.4c.3.2.8.4 1.3.4c.5 0 .8-.3.8-.7c0-.4-.2-.6-.8-1c-1.2-.7-1.5-1.4-1.5-2.1c0-1.3.9-2.3 2.4-2.3c.6 0 1.1.1 1.5.3c0 0-.4 1.5-.4 1.5c-.2-.2-.6-.3-1-.3c-.5 0-.7.3-.7.6c0 .3.2.5.8.9c1.1.6 1.5 1.4 1.5 2.2c0 1.5-1 2.3-2.6 2.3c-.6 0-1.3-.1-1.6-.4c0 0 .3-1.4.3-1.4z" stroke="none" fill="#000" fill-opacity="0.7"/></g></svg>