<?xml version="1.0" standalone="no"?><!DOCTYPE svg PUBLIC "-//W3C//DTD SVG 1.1//EN" "http://www.w3.org/Graphics/SVG/1.1/DTD/svg11.dtd"><svg xmlns="http://www.w3.org/2000/svg" version="1.1" width="93px" height="38.7px" viewBox="0 0 93 38.7">  <desc>Tap to plan your visit</desc>  <defs/>  <g id="Polygon694">    <path d="M 20 18.7 C 20 18.7 21.51 22.97 21.5 23 C 21.7 23.4 21.9 24 22 24.4 C 22 24.4 22 24.4 22 24.4 C 22.1 24 22.3 23.5 22.5 22.9 C 22.47 22.94 23.9 18.7 23.9 18.7 L 25.3 18.7 C 25.3 18.7 23.31 23.84 23.3 23.8 C 22.4 26.3 21.7 27.5 20.9 28.3 C 20.2 28.9 19.6 29.1 19.3 29.2 C 19.3 29.2 18.9 28.1 18.9 28.1 C 19.3 28 19.7 27.8 20.1 27.4 C 20.4 27.2 20.9 26.7 21.2 26 C 21.2 25.9 21.3 25.7 21.3 25.7 C 21.3 25.6 21.2 25.5 21.2 25.3 C 21.17 25.33 18.5 18.7 18.5 18.7 L 20 18.7 Z M 32.8 22.3 C 32.8 24.9 30.9 26.1 29.2 26.1 C 27.3 26.1 25.8 24.6 25.8 22.4 C 25.8 20 27.4 18.6 29.3 18.6 C 31.4 18.6 32.8 20.1 32.8 22.3 Z M 27.1 22.3 C 27.1 23.9 28 25.1 29.3 25.1 C 30.5 25.1 31.5 23.9 31.5 22.3 C 31.5 21.1 30.8 19.6 29.3 19.6 C 27.8 19.6 27.1 21 27.1 22.3 Z M 40.4 23.9 C 40.4 24.7 40.4 25.3 40.5 25.9 C 40.48 25.89 39.3 25.9 39.3 25.9 L 39.3 24.7 C 39.3 24.7 39.22 24.73 39.2 24.7 C 38.9 25.3 38.1 26.1 36.9 26.1 C 35.7 26.1 34.4 25.4 34.4 22.9 C 34.38 22.92 34.4 18.7 34.4 18.7 L 35.7 18.7 C 35.7 18.7 35.68 22.69 35.7 22.7 C 35.7 24 36.1 25 37.3 25 C 38.2 25 38.8 24.4 39 23.8 C 39.1 23.6 39.1 23.4 39.1 23.1 C 39.12 23.11 39.1 18.7 39.1 18.7 L 40.4 18.7 C 40.4 18.7 40.42 23.93 40.4 23.9 Z M 42.6 21 C 42.6 20.1 42.6 19.4 42.5 18.7 C 42.52 18.73 43.7 18.7 43.7 18.7 L 43.7 20.2 C 43.7 20.2 43.76 20.15 43.8 20.2 C 44.1 19.2 44.9 18.6 45.8 18.6 C 45.9 18.6 46 18.6 46.1 18.6 C 46.1 18.6 46.1 19.8 46.1 19.8 C 46 19.8 45.8 19.8 45.7 19.8 C 44.8 19.8 44.1 20.5 43.9 21.5 C 43.9 21.6 43.9 21.9 43.9 22.1 C 43.88 22.08 43.9 25.9 43.9 25.9 L 42.6 25.9 C 42.6 25.9 42.58 20.97 42.6 21 Z M 51.1 18.7 C 51.1 18.7 52.46 22.74 52.5 22.7 C 52.7 23.4 52.9 24 53 24.6 C 53 24.6 53.1 24.6 53.1 24.6 C 53.2 24 53.5 23.4 53.7 22.7 C 53.69 22.74 55.1 18.7 55.1 18.7 L 56.4 18.7 L 53.6 25.9 L 52.4 25.9 L 49.7 18.7 L 51.1 18.7 Z M 57.7 25.9 L 57.7 18.7 L 59 18.7 L 59 25.9 L 57.7 25.9 Z M 59.1 16.7 C 59.1 17.2 58.8 17.5 58.3 17.5 C 57.8 17.5 57.5 17.2 57.5 16.7 C 57.5 16.3 57.8 15.9 58.3 15.9 C 58.8 15.9 59.1 16.3 59.1 16.7 Z M 61 24.6 C 61.4 24.8 62 25.1 62.7 25.1 C 63.6 25.1 64.1 24.6 64.1 24 C 64.1 23.4 63.7 23.1 62.7 22.7 C 61.4 22.2 60.8 21.5 60.8 20.7 C 60.8 19.5 61.8 18.6 63.3 18.6 C 64 18.6 64.7 18.8 65.1 19 C 65.1 19 64.7 20 64.7 20 C 64.5 19.8 63.9 19.5 63.3 19.5 C 62.5 19.5 62.1 20 62.1 20.5 C 62.1 21.1 62.5 21.4 63.4 21.8 C 64.7 22.2 65.3 22.8 65.3 23.9 C 65.3 25.2 64.3 26.1 62.7 26.1 C 61.9 26.1 61.2 25.9 60.6 25.6 C 60.6 25.6 61 24.6 61 24.6 Z M 67 25.9 L 67 18.7 L 68.3 18.7 L 68.3 25.9 L 67 25.9 Z M 68.4 16.7 C 68.4 17.2 68.1 17.5 67.6 17.5 C 67.1 17.5 66.8 17.2 66.8 16.7 C 66.8 16.3 67.2 15.9 67.6 15.9 C 68.1 15.9 68.4 16.3 68.4 16.7 Z M 72 17 L 72 18.7 L 73.9 18.7 L 73.9 19.7 L 72 19.7 C 72 19.7 72.03 23.59 72 23.6 C 72 24.5 72.3 25 73 25 C 73.4 25 73.6 24.9 73.8 24.9 C 73.8 24.9 73.8 25.9 73.8 25.9 C 73.6 26 73.2 26.1 72.7 26.1 C 72.1 26.1 71.6 25.9 71.3 25.5 C 70.9 25.1 70.8 24.5 70.8 23.6 C 70.75 23.64 70.8 19.7 70.8 19.7 L 69.6 19.7 L 69.6 18.7 L 70.8 18.7 L 70.8 17.4 L 72 17 Z " stroke="none" fill="#fff"/>  </g>  <g id="Polygon693">    <path d="M 15.1 2.2 L 12.1 2.2 L 12.1 1.1 L 19.5 1.1 L 19.5 2.2 L 16.4 2.2 L 16.4 11.1 L 15.1 11.1 L 15.1 2.2 Z M 24.6 9.4 C 24.6 10 24.7 10.6 24.7 11.1 C 24.75 11.1 23.6 11.1 23.6 11.1 L 23.5 10.2 C 23.5 10.2 23.43 10.2 23.4 10.2 C 23 10.8 22.3 11.3 21.2 11.3 C 19.8 11.3 19.1 10.2 19.1 9.2 C 19.1 7.5 20.6 6.5 23.4 6.5 C 23.4 6.5 23.4 6.4 23.4 6.4 C 23.4 5.8 23.2 4.7 21.7 4.7 C 21.1 4.7 20.4 4.9 19.9 5.3 C 19.9 5.3 19.6 4.4 19.6 4.4 C 20.1 4 21 3.8 21.9 3.8 C 24.1 3.8 24.6 5.3 24.6 6.7 C 24.6 6.7 24.6 9.4 24.6 9.4 Z M 23.4 7.4 C 22 7.4 20.4 7.7 20.4 9.1 C 20.4 9.9 20.9 10.3 21.6 10.3 C 22.5 10.3 23.1 9.7 23.3 9.1 C 23.4 9 23.4 8.8 23.4 8.7 C 23.4 8.7 23.4 7.4 23.4 7.4 Z M 26.7 6.3 C 26.7 5.4 26.7 4.6 26.7 3.9 C 26.69 3.94 27.8 3.9 27.8 3.9 L 27.9 5.2 C 27.9 5.2 27.95 5.16 27.9 5.2 C 28.5 4.3 29.3 3.8 30.5 3.8 C 32.2 3.8 33.5 5.3 33.5 7.4 C 33.5 10 32 11.3 30.3 11.3 C 29.3 11.3 28.5 10.8 28.1 10.1 C 28.06 10.14 28 10.1 28 10.1 L 28 14 L 26.7 14 C 26.7 14 26.75 6.27 26.7 6.3 Z M 28 8.2 C 28 8.4 28 8.6 28.1 8.7 C 28.3 9.6 29.1 10.2 30 10.2 C 31.4 10.2 32.2 9.1 32.2 7.5 C 32.2 6.1 31.5 4.8 30.1 4.8 C 29.2 4.8 28.4 5.4 28.1 6.4 C 28.1 6.6 28 6.8 28 6.9 C 28 6.9 28 8.2 28 8.2 Z M 39.9 2.2 L 39.9 3.9 L 41.7 3.9 L 41.7 4.9 L 39.9 4.9 C 39.9 4.9 39.87 8.79 39.9 8.8 C 39.9 9.7 40.1 10.2 40.8 10.2 C 41.2 10.2 41.4 10.2 41.6 10.1 C 41.6 10.1 41.7 11.1 41.7 11.1 C 41.4 11.2 41 11.3 40.5 11.3 C 39.9 11.3 39.4 11.1 39.1 10.7 C 38.7 10.3 38.6 9.7 38.6 8.8 C 38.6 8.84 38.6 4.9 38.6 4.9 L 37.5 4.9 L 37.5 3.9 L 38.6 3.9 L 38.6 2.6 L 39.9 2.2 Z M 49.6 7.5 C 49.6 10.1 47.7 11.3 46 11.3 C 44.1 11.3 42.6 9.8 42.6 7.6 C 42.6 5.2 44.2 3.8 46.1 3.8 C 48.2 3.8 49.6 5.3 49.6 7.5 Z M 43.9 7.5 C 43.9 9.1 44.8 10.3 46.1 10.3 C 47.3 10.3 48.3 9.1 48.3 7.5 C 48.3 6.3 47.7 4.8 46.1 4.8 C 44.6 4.8 43.9 6.2 43.9 7.5 Z M 54.4 6.3 C 54.4 5.4 54.3 4.6 54.3 3.9 C 54.32 3.94 55.5 3.9 55.5 3.9 L 55.5 5.2 C 55.5 5.2 55.57 5.16 55.6 5.2 C 56.1 4.3 56.9 3.8 58.1 3.8 C 59.9 3.8 61.2 5.3 61.2 7.4 C 61.2 10 59.6 11.3 57.9 11.3 C 56.9 11.3 56.1 10.8 55.7 10.1 C 55.69 10.14 55.7 10.1 55.7 10.1 L 55.7 14 L 54.4 14 C 54.4 14 54.37 6.27 54.4 6.3 Z M 55.7 8.2 C 55.7 8.4 55.7 8.6 55.7 8.7 C 56 9.6 56.7 10.2 57.7 10.2 C 59 10.2 59.8 9.1 59.8 7.5 C 59.8 6.1 59.1 4.8 57.7 4.8 C 56.8 4.8 56 5.4 55.7 6.4 C 55.7 6.6 55.7 6.8 55.7 6.9 C 55.7 6.9 55.7 8.2 55.7 8.2 Z M 62.8 0.6 L 64.1 0.6 L 64.1 11.1 L 62.8 11.1 L 62.8 0.6 Z M 71.3 9.4 C 71.3 10 71.3 10.6 71.4 11.1 C 71.42 11.1 70.3 11.1 70.3 11.1 L 70.1 10.2 C 70.1 10.2 70.1 10.2 70.1 10.2 C 69.7 10.8 68.9 11.3 67.9 11.3 C 66.5 11.3 65.7 10.2 65.7 9.2 C 65.7 7.5 67.3 6.5 70 6.5 C 70 6.5 70 6.4 70 6.4 C 70 5.8 69.9 4.7 68.4 4.7 C 67.7 4.7 67 4.9 66.5 5.3 C 66.5 5.3 66.2 4.4 66.2 4.4 C 66.8 4 67.7 3.8 68.6 3.8 C 70.8 3.8 71.3 5.3 71.3 6.7 C 71.3 6.7 71.3 9.4 71.3 9.4 Z M 70.1 7.4 C 68.6 7.4 67 7.7 67 9.1 C 67 9.9 67.6 10.3 68.2 10.3 C 69.2 10.3 69.8 9.7 70 9.1 C 70 9 70.1 8.8 70.1 8.7 C 70.1 8.7 70.1 7.4 70.1 7.4 Z M 73.4 5.9 C 73.4 5.1 73.4 4.5 73.4 3.9 C 73.36 3.94 74.5 3.9 74.5 3.9 L 74.6 5.1 C 74.6 5.1 74.61 5.12 74.6 5.1 C 75 4.5 75.8 3.8 77 3.8 C 78 3.8 79.5 4.4 79.5 6.8 C 79.51 6.84 79.5 11.1 79.5 11.1 L 78.2 11.1 C 78.2 11.1 78.21 6.97 78.2 7 C 78.2 5.8 77.8 4.9 76.6 4.9 C 75.7 4.9 75 5.5 74.8 6.2 C 74.7 6.3 74.7 6.6 74.7 6.8 C 74.72 6.79 74.7 11.1 74.7 11.1 L 73.4 11.1 C 73.4 11.1 73.42 5.87 73.4 5.9 Z " stroke="none" fill="#fff"/>  </g></svg>