<?xml version="1.0" standalone="no"?><!DOCTYPE svg PUBLIC "-//W3C//DTD SVG 1.1//EN" "http://www.w3.org/Graphics/SVG/1.1/DTD/svg11.dtd"><svg xmlns="http://www.w3.org/2000/svg" xmlns:xlink="http://www.w3.org/1999/xlink" version="1.1" width="278px" height="83.8px" viewBox="0 0 278 83.8">  <desc>Dolphin seem to enjoy cavorting in the bow waves of large boats These dolphin were observed from the deck of the</desc>  <defs/>  <g class="svg-textframe-underlines">    <rect class="svg-underline" x="91.8" y="64.9" width="3.1" height="0.8" style="fill:#4f5cd5;"/>    <rect class="svg-underline" x="0" y="67" width="91.8" height="1.5" style="fill:#00aa32;"/>  </g>  <g id="Polygon11979">    <path d="M 92.6 63 C 92.6 62.4 93 62 93.5 62 C 94 62 94.4 62.4 94.4 63 C 94.4 63.5 94 63.9 93.5 63.9 C 93 63.9 92.6 63.5 92.6 63 Z " stroke="none" fill="#4f5cd5"/>  </g>  <g id="Polygon11977">    <path d="M 1.6 39 C 1.6 39 2.6 42.68 2.6 42.7 C 2.8 43.5 3 44.2 3.1 45 C 3.1 45 3.2 45 3.2 45 C 3.3 44.3 3.6 43.5 3.8 42.7 C 3.81 42.69 5 39 5 39 L 6.1 39 C 6.1 39 7.23 42.62 7.2 42.6 C 7.5 43.5 7.7 44.3 7.9 45 C 7.9 45 7.9 45 7.9 45 C 8 44.3 8.2 43.5 8.5 42.6 C 8.47 42.63 9.5 39 9.5 39 L 10.8 39 L 8.5 46.2 L 7.3 46.2 C 7.3 46.2 6.16 42.79 6.2 42.8 C 5.9 42 5.7 41.3 5.5 40.4 C 5.5 40.4 5.5 40.4 5.5 40.4 C 5.3 41.3 5.1 42 4.8 42.8 C 4.83 42.8 3.7 46.2 3.7 46.2 L 2.5 46.2 L 0.3 39 L 1.6 39 Z M 12.8 42.9 C 12.8 44.6 13.9 45.4 15.3 45.4 C 16.2 45.4 16.8 45.2 17.3 45 C 17.3 45 17.5 45.9 17.5 45.9 C 17.1 46.2 16.3 46.4 15.1 46.4 C 12.9 46.4 11.5 44.9 11.5 42.7 C 11.5 40.5 12.8 38.8 14.9 38.8 C 17.3 38.8 17.9 40.9 17.9 42.2 C 17.9 42.5 17.9 42.7 17.9 42.9 C 17.9 42.9 12.8 42.9 12.8 42.9 Z M 16.7 41.9 C 16.7 41.1 16.3 39.8 14.8 39.8 C 13.5 39.8 12.9 41 12.8 41.9 C 12.8 41.9 16.7 41.9 16.7 41.9 Z M 19.7 41.3 C 19.7 40.4 19.6 39.7 19.6 39 C 19.59 38.99 20.7 39 20.7 39 L 20.8 40.4 C 20.8 40.4 20.85 40.43 20.8 40.4 C 21.2 39.5 22 38.8 22.9 38.8 C 23 38.8 23.1 38.9 23.2 38.9 C 23.2 38.9 23.2 40.1 23.2 40.1 C 23.1 40.1 23 40.1 22.8 40.1 C 21.9 40.1 21.2 40.8 21 41.8 C 21 41.9 21 42.2 21 42.4 C 20.97 42.38 21 46.2 21 46.2 L 19.7 46.2 C 19.7 46.2 19.65 41.26 19.7 41.3 Z M 25.2 42.9 C 25.2 44.6 26.4 45.4 27.7 45.4 C 28.7 45.4 29.2 45.2 29.7 45 C 29.7 45 30 45.9 30 45.9 C 29.5 46.2 28.7 46.4 27.5 46.4 C 25.3 46.4 24 44.9 24 42.7 C 24 40.5 25.2 38.8 27.4 38.8 C 29.7 38.8 30.4 40.9 30.4 42.2 C 30.4 42.5 30.3 42.7 30.3 42.9 C 30.3 42.9 25.2 42.9 25.2 42.9 Z M 29.1 41.9 C 29.1 41.1 28.7 39.8 27.3 39.8 C 25.9 39.8 25.3 41 25.2 41.9 C 25.2 41.9 29.1 41.9 29.1 41.9 Z M 41.9 42.6 C 41.9 45.2 40 46.4 38.3 46.4 C 36.3 46.4 34.8 45 34.8 42.7 C 34.8 40.3 36.4 38.8 38.4 38.8 C 40.5 38.8 41.9 40.4 41.9 42.6 Z M 36.1 42.6 C 36.1 44.2 37 45.4 38.3 45.4 C 39.6 45.4 40.5 44.2 40.5 42.6 C 40.5 41.4 39.9 39.8 38.4 39.8 C 36.8 39.8 36.1 41.3 36.1 42.6 Z M 43.6 35.6 L 44.9 35.6 L 44.9 40.2 C 44.9 40.2 44.97 40.16 45 40.2 C 45.4 39.4 46.3 38.8 47.4 38.8 C 49.3 38.8 50.5 40.3 50.5 42.5 C 50.5 45.1 48.9 46.4 47.2 46.4 C 46.2 46.4 45.4 46 44.8 45.1 C 44.8 45.07 44.8 45.1 44.8 45.1 L 44.7 46.2 C 44.7 46.2 43.58 46.25 43.6 46.2 C 43.6 45.8 43.6 45 43.6 44.4 C 43.64 44.38 43.6 35.6 43.6 35.6 Z M 44.9 43.3 C 44.9 43.5 45 43.7 45 43.8 C 45.2 44.7 46 45.4 47 45.4 C 48.4 45.4 49.2 44.2 49.2 42.6 C 49.2 41.1 48.4 39.9 47 39.9 C 46.1 39.9 45.3 40.5 45 41.5 C 45 41.7 44.9 41.8 44.9 42 C 44.9 42 44.9 43.3 44.9 43.3 Z M 52.1 44.9 C 52.5 45.2 53.2 45.4 53.8 45.4 C 54.8 45.4 55.2 45 55.2 44.3 C 55.2 43.7 54.8 43.4 53.9 43 C 52.6 42.5 51.9 41.8 51.9 41 C 51.9 39.8 52.9 38.8 54.4 38.8 C 55.2 38.8 55.8 39 56.2 39.3 C 56.2 39.3 55.9 40.2 55.9 40.2 C 55.6 40.1 55.1 39.8 54.4 39.8 C 53.6 39.8 53.2 40.3 53.2 40.8 C 53.2 41.4 53.6 41.7 54.6 42 C 55.8 42.5 56.5 43.1 56.5 44.2 C 56.5 45.5 55.5 46.4 53.8 46.4 C 53 46.4 52.3 46.2 51.8 45.9 C 51.8 45.9 52.1 44.9 52.1 44.9 Z M 59 42.9 C 59 44.6 60.1 45.4 61.5 45.4 C 62.4 45.4 63 45.2 63.5 45 C 63.5 45 63.7 45.9 63.7 45.9 C 63.3 46.2 62.5 46.4 61.3 46.4 C 59.1 46.4 57.7 44.9 57.7 42.7 C 57.7 40.5 59 38.8 61.1 38.8 C 63.5 38.8 64.1 40.9 64.1 42.2 C 64.1 42.5 64.1 42.7 64.1 42.9 C 64.1 42.9 59 42.9 59 42.9 Z M 62.9 41.9 C 62.9 41.1 62.5 39.8 61 39.8 C 59.7 39.8 59.1 41 59 41.9 C 59 41.9 62.9 41.9 62.9 41.9 Z M 65.9 41.3 C 65.9 40.4 65.8 39.7 65.8 39 C 65.79 38.99 66.9 39 66.9 39 L 67 40.4 C 67 40.4 67.05 40.43 67 40.4 C 67.4 39.5 68.2 38.8 69.1 38.8 C 69.2 38.8 69.3 38.9 69.4 38.9 C 69.4 38.9 69.4 40.1 69.4 40.1 C 69.3 40.1 69.2 40.1 69 40.1 C 68.1 40.1 67.4 40.8 67.2 41.8 C 67.2 41.9 67.2 42.2 67.2 42.4 C 67.17 42.38 67.2 46.2 67.2 46.2 L 65.9 46.2 C 65.9 46.2 65.85 41.26 65.9 41.3 Z M 71.7 39 C 71.7 39 73.14 43.06 73.1 43.1 C 73.4 43.7 73.6 44.3 73.7 44.9 C 73.7 44.9 73.8 44.9 73.8 44.9 C 73.9 44.3 74.1 43.7 74.4 43.1 C 74.38 43.05 75.8 39 75.8 39 L 77.2 39 L 74.3 46.2 L 73.1 46.2 L 70.3 39 L 71.7 39 Z M 79.1 42.9 C 79.1 44.6 80.2 45.4 81.6 45.4 C 82.5 45.4 83.1 45.2 83.6 45 C 83.6 45 83.8 45.9 83.8 45.9 C 83.4 46.2 82.5 46.4 81.4 46.4 C 79.2 46.4 77.8 44.9 77.8 42.7 C 77.8 40.5 79.1 38.8 81.2 38.8 C 83.6 38.8 84.2 40.9 84.2 42.2 C 84.2 42.5 84.2 42.7 84.2 42.9 C 84.2 42.9 79.1 42.9 79.1 42.9 Z M 82.9 41.9 C 83 41.1 82.6 39.8 81.1 39.8 C 79.8 39.8 79.2 41 79.1 41.9 C 79.1 41.9 82.9 41.9 82.9 41.9 Z M 92.2 35.6 C 92.2 35.6 92.19 44.37 92.2 44.4 C 92.2 45 92.2 45.8 92.2 46.2 C 92.25 46.25 91.1 46.2 91.1 46.2 L 91 45 C 91 45 90.97 44.99 91 45 C 90.6 45.8 89.7 46.4 88.5 46.4 C 86.8 46.4 85.4 44.9 85.4 42.7 C 85.4 40.3 86.9 38.8 88.7 38.8 C 89.8 38.8 90.5 39.4 90.9 39.9 C 90.85 39.93 90.9 39.9 90.9 39.9 L 90.9 35.6 L 92.2 35.6 Z M 90.9 41.9 C 90.9 41.8 90.9 41.6 90.8 41.4 C 90.6 40.6 89.9 39.9 88.9 39.9 C 87.6 39.9 86.7 41.1 86.7 42.7 C 86.7 44.1 87.5 45.4 88.9 45.4 C 89.8 45.4 90.6 44.8 90.8 43.8 C 90.9 43.6 90.9 43.4 90.9 43.2 C 90.9 43.2 90.9 41.9 90.9 41.9 Z M 97.9 46.2 L 97.9 40 L 96.9 40 L 96.9 39 L 97.9 39 C 97.9 39 97.86 38.65 97.9 38.6 C 97.9 37.6 98.1 36.7 98.7 36.1 C 99.2 35.6 99.9 35.4 100.5 35.4 C 100.9 35.4 101.3 35.5 101.6 35.6 C 101.6 35.6 101.4 36.7 101.4 36.7 C 101.2 36.6 101 36.5 100.6 36.5 C 99.4 36.5 99.2 37.5 99.2 38.6 C 99.16 38.6 99.2 39 99.2 39 L 100.9 39 L 100.9 40 L 99.2 40 L 99.2 46.2 L 97.9 46.2 Z M 102.2 41.3 C 102.2 40.4 102.2 39.7 102.1 39 C 102.12 38.99 103.3 39 103.3 39 L 103.3 40.4 C 103.3 40.4 103.38 40.43 103.4 40.4 C 103.7 39.5 104.5 38.8 105.4 38.8 C 105.5 38.8 105.6 38.9 105.8 38.9 C 105.8 38.9 105.8 40.1 105.8 40.1 C 105.6 40.1 105.5 40.1 105.3 40.1 C 104.4 40.1 103.7 40.8 103.5 41.8 C 103.5 41.9 103.5 42.2 103.5 42.4 C 103.5 42.38 103.5 46.2 103.5 46.2 L 102.2 46.2 C 102.2 46.2 102.18 41.26 102.2 41.3 Z M 113.6 42.6 C 113.6 45.2 111.7 46.4 110 46.4 C 108 46.4 106.5 45 106.5 42.7 C 106.5 40.3 108.1 38.8 110.1 38.8 C 112.2 38.8 113.6 40.4 113.6 42.6 Z M 107.8 42.6 C 107.8 44.2 108.7 45.4 110 45.4 C 111.3 45.4 112.2 44.2 112.2 42.6 C 112.2 41.4 111.6 39.8 110.1 39.8 C 108.5 39.8 107.8 41.3 107.8 42.6 Z M 115.3 41 C 115.3 40.2 115.3 39.6 115.3 39 C 115.26 38.99 116.4 39 116.4 39 L 116.5 40.2 C 116.5 40.2 116.52 40.17 116.5 40.2 C 116.9 39.5 117.6 38.8 118.8 38.8 C 119.8 38.8 120.5 39.4 120.9 40.3 C 120.9 40.3 120.9 40.3 120.9 40.3 C 121.1 39.9 121.4 39.6 121.7 39.4 C 122.1 39 122.6 38.8 123.3 38.8 C 124.3 38.8 125.7 39.5 125.7 42 C 125.7 41.99 125.7 46.2 125.7 46.2 L 124.4 46.2 C 124.4 46.2 124.41 42.15 124.4 42.2 C 124.4 40.7 123.9 39.9 122.8 39.9 C 122.1 39.9 121.5 40.5 121.3 41.1 C 121.2 41.3 121.2 41.5 121.2 41.8 C 121.15 41.76 121.2 46.2 121.2 46.2 L 119.9 46.2 C 119.9 46.2 119.86 41.9 119.9 41.9 C 119.9 40.7 119.4 39.9 118.3 39.9 C 117.5 39.9 116.9 40.6 116.7 41.2 C 116.6 41.4 116.6 41.7 116.6 41.9 C 116.61 41.88 116.6 46.2 116.6 46.2 L 115.3 46.2 C 115.3 46.2 115.32 40.96 115.3 41 Z M 132.7 37.3 L 132.7 39 L 134.6 39 L 134.6 40 L 132.7 40 C 132.7 40 132.75 43.91 132.7 43.9 C 132.7 44.8 133 45.3 133.7 45.3 C 134.1 45.3 134.3 45.3 134.5 45.2 C 134.5 45.2 134.6 46.2 134.6 46.2 C 134.3 46.3 133.9 46.4 133.4 46.4 C 132.8 46.4 132.3 46.2 132 45.9 C 131.6 45.5 131.5 44.8 131.5 44 C 131.46 43.96 131.5 40 131.5 40 L 130.3 40 L 130.3 39 L 131.5 39 L 131.5 37.6 L 132.7 37.3 Z M 136.2 35.6 L 137.5 35.6 L 137.5 40.1 C 137.5 40.1 137.55 40.14 137.5 40.1 C 137.8 39.8 138.1 39.4 138.5 39.2 C 138.9 39 139.3 38.8 139.8 38.8 C 140.8 38.8 142.4 39.4 142.4 41.9 C 142.38 41.93 142.4 46.2 142.4 46.2 L 141.1 46.2 C 141.1 46.2 141.06 42.08 141.1 42.1 C 141.1 40.9 140.6 39.9 139.4 39.9 C 138.5 39.9 137.9 40.5 137.6 41.2 C 137.5 41.4 137.5 41.6 137.5 41.9 C 137.52 41.87 137.5 46.2 137.5 46.2 L 136.2 46.2 L 136.2 35.6 Z M 145.3 42.9 C 145.4 44.6 146.5 45.4 147.8 45.4 C 148.8 45.4 149.4 45.2 149.8 45 C 149.8 45 150.1 45.9 150.1 45.9 C 149.6 46.2 148.8 46.4 147.6 46.4 C 145.4 46.4 144.1 44.9 144.1 42.7 C 144.1 40.5 145.4 38.8 147.5 38.8 C 149.9 38.8 150.5 40.9 150.5 42.2 C 150.5 42.5 150.5 42.7 150.4 42.9 C 150.4 42.9 145.3 42.9 145.3 42.9 Z M 149.2 41.9 C 149.2 41.1 148.9 39.8 147.4 39.8 C 146 39.8 145.5 41 145.3 41.9 C 145.3 41.9 149.2 41.9 149.2 41.9 Z M 161.7 35.6 C 161.7 35.6 161.7 44.37 161.7 44.4 C 161.7 45 161.7 45.8 161.8 46.2 C 161.76 46.25 160.6 46.2 160.6 46.2 L 160.5 45 C 160.5 45 160.48 44.99 160.5 45 C 160.1 45.8 159.2 46.4 158 46.4 C 156.3 46.4 154.9 44.9 154.9 42.7 C 154.9 40.3 156.4 38.8 158.2 38.8 C 159.3 38.8 160 39.4 160.4 39.9 C 160.36 39.93 160.4 39.9 160.4 39.9 L 160.4 35.6 L 161.7 35.6 Z M 160.4 41.9 C 160.4 41.8 160.4 41.6 160.3 41.4 C 160.1 40.6 159.4 39.9 158.4 39.9 C 157.1 39.9 156.3 41.1 156.3 42.7 C 156.3 44.1 157 45.4 158.4 45.4 C 159.3 45.4 160.1 44.8 160.3 43.8 C 160.4 43.6 160.4 43.4 160.4 43.2 C 160.4 43.2 160.4 41.9 160.4 41.9 Z M 164.7 42.9 C 164.7 44.6 165.9 45.4 167.2 45.4 C 168.1 45.4 168.7 45.2 169.2 45 C 169.2 45 169.5 45.9 169.5 45.9 C 169 46.2 168.2 46.4 167 46.4 C 164.8 46.4 163.5 44.9 163.5 42.7 C 163.5 40.5 164.7 38.8 166.9 38.8 C 169.2 38.8 169.9 40.9 169.9 42.2 C 169.9 42.5 169.8 42.7 169.8 42.9 C 169.8 42.9 164.7 42.9 164.7 42.9 Z M 168.6 41.9 C 168.6 41.1 168.2 39.8 166.8 39.8 C 165.4 39.8 164.8 41 164.7 41.9 C 164.7 41.9 168.6 41.9 168.6 41.9 Z M 176.7 46 C 176.4 46.2 175.6 46.4 174.7 46.4 C 172.5 46.4 171 44.9 171 42.7 C 171 40.5 172.6 38.8 174.9 38.8 C 175.7 38.8 176.4 39 176.8 39.2 C 176.8 39.2 176.5 40.2 176.5 40.2 C 176.2 40.1 175.7 39.9 174.9 39.9 C 173.3 39.9 172.4 41.1 172.4 42.6 C 172.4 44.3 173.5 45.4 174.9 45.4 C 175.6 45.4 176.1 45.2 176.5 45 C 176.5 45 176.7 46 176.7 46 Z M 179.7 42.3 C 179.7 42.3 179.7 42.32 179.7 42.3 C 179.9 42.1 180.1 41.8 180.3 41.5 C 180.33 41.5 182.5 39 182.5 39 L 184 39 L 181.3 42 L 184.5 46.2 L 182.8 46.2 L 180.3 42.8 L 179.7 43.5 L 179.7 46.2 L 178.4 46.2 L 178.4 35.6 L 179.7 35.6 L 179.7 42.3 Z M 195.3 42.6 C 195.3 45.2 193.4 46.4 191.7 46.4 C 189.7 46.4 188.2 45 188.2 42.7 C 188.2 40.3 189.8 38.8 191.8 38.8 C 193.9 38.8 195.3 40.4 195.3 42.6 Z M 189.6 42.6 C 189.6 44.2 190.5 45.4 191.7 45.4 C 193 45.4 193.9 44.2 193.9 42.6 C 193.9 41.4 193.3 39.8 191.8 39.8 C 190.2 39.8 189.6 41.3 189.6 42.6 Z M 197.2 46.2 L 197.2 40 L 196.2 40 L 196.2 39 L 197.2 39 C 197.2 39 197.17 38.65 197.2 38.6 C 197.2 37.6 197.4 36.7 198 36.1 C 198.5 35.6 199.2 35.4 199.8 35.4 C 200.3 35.4 200.7 35.5 200.9 35.6 C 200.9 35.6 200.7 36.7 200.7 36.7 C 200.5 36.6 200.3 36.5 199.9 36.5 C 198.8 36.5 198.5 37.5 198.5 38.6 C 198.48 38.6 198.5 39 198.5 39 L 200.2 39 L 200.2 40 L 198.5 40 L 198.5 46.2 L 197.2 46.2 Z M 206.3 37.3 L 206.3 39 L 208.2 39 L 208.2 40 L 206.3 40 C 206.3 40 206.34 43.91 206.3 43.9 C 206.3 44.8 206.6 45.3 207.3 45.3 C 207.7 45.3 207.9 45.3 208.1 45.2 C 208.1 45.2 208.2 46.2 208.2 46.2 C 207.9 46.3 207.5 46.4 207 46.4 C 206.4 46.4 205.9 46.2 205.6 45.9 C 205.2 45.5 205 44.8 205 44 C 205.05 43.96 205 40 205 40 L 203.9 40 L 203.9 39 L 205 39 L 205 37.6 L 206.3 37.3 Z M 209.8 35.6 L 211.1 35.6 L 211.1 40.1 C 211.1 40.1 211.14 40.14 211.1 40.1 C 211.3 39.8 211.7 39.4 212.1 39.2 C 212.5 39 212.9 38.8 213.4 38.8 C 214.4 38.8 216 39.4 216 41.9 C 215.97 41.93 216 46.2 216 46.2 L 214.6 46.2 C 214.6 46.2 214.65 42.08 214.6 42.1 C 214.6 40.9 214.2 39.9 213 39.9 C 212.1 39.9 211.5 40.5 211.2 41.2 C 211.1 41.4 211.1 41.6 211.1 41.9 C 211.11 41.87 211.1 46.2 211.1 46.2 L 209.8 46.2 L 209.8 35.6 Z M 218.9 42.9 C 219 44.6 220.1 45.4 221.4 45.4 C 222.4 45.4 222.9 45.2 223.4 45 C 223.4 45 223.7 45.9 223.7 45.9 C 223.2 46.2 222.4 46.4 221.2 46.4 C 219 46.4 217.7 44.9 217.7 42.7 C 217.7 40.5 219 38.8 221.1 38.8 C 223.5 38.8 224.1 40.9 224.1 42.2 C 224.1 42.5 224.1 42.7 224 42.9 C 224 42.9 218.9 42.9 218.9 42.9 Z M 222.8 41.9 C 222.8 41.1 222.4 39.8 221 39.8 C 219.6 39.8 219 41 218.9 41.9 C 218.9 41.9 222.8 41.9 222.8 41.9 Z " stroke="none" fill="#fff"/>    <a xlink:href="http://www.nps.gov/chis/learn/news/ipco-new-boat.htm?target=_lightbox" class="lightbox" xlink:show="undefined" xlink:title="Island Explorer">      <rect style="fill:transparent;" x="-1" y="52" width="93" height="15"/>    </a>  </g>  <g id="Polygon11976">    <path d="M 1.1 18.1 L 2.4 18.1 L 2.4 22.7 C 2.4 22.7 2.43 22.66 2.4 22.7 C 2.9 21.9 3.7 21.3 4.9 21.3 C 6.7 21.3 8 22.8 8 25 C 8 27.6 6.3 28.9 4.7 28.9 C 3.7 28.9 2.8 28.5 2.3 27.6 C 2.26 27.57 2.2 27.6 2.2 27.6 L 2.2 28.7 C 2.2 28.7 1.04 28.75 1 28.7 C 1.1 28.3 1.1 27.5 1.1 26.9 C 1.1 26.88 1.1 18.1 1.1 18.1 Z M 2.4 25.8 C 2.4 26 2.4 26.2 2.5 26.3 C 2.7 27.2 3.5 27.9 4.4 27.9 C 5.8 27.9 6.6 26.7 6.6 25.1 C 6.6 23.6 5.9 22.4 4.5 22.4 C 3.6 22.4 2.7 23 2.5 24 C 2.4 24.2 2.4 24.3 2.4 24.5 C 2.4 24.5 2.4 25.8 2.4 25.8 Z M 16.3 25.1 C 16.3 27.7 14.4 28.9 12.7 28.9 C 10.7 28.9 9.2 27.5 9.2 25.2 C 9.2 22.8 10.8 21.3 12.8 21.3 C 14.9 21.3 16.3 22.9 16.3 25.1 Z M 10.5 25.1 C 10.5 26.7 11.4 27.9 12.7 27.9 C 14 27.9 14.9 26.7 14.9 25.1 C 14.9 23.9 14.3 22.3 12.7 22.3 C 11.2 22.3 10.5 23.8 10.5 25.1 Z M 18.4 21.5 C 18.4 21.5 19.41 25.18 19.4 25.2 C 19.6 26 19.8 26.7 19.9 27.5 C 19.9 27.5 20 27.5 20 27.5 C 20.1 26.8 20.4 26 20.6 25.2 C 20.63 25.19 21.8 21.5 21.8 21.5 L 22.9 21.5 C 22.9 21.5 24.04 25.12 24 25.1 C 24.3 26 24.5 26.8 24.7 27.5 C 24.7 27.5 24.7 27.5 24.7 27.5 C 24.9 26.8 25 26 25.3 25.1 C 25.29 25.13 26.3 21.5 26.3 21.5 L 27.6 21.5 L 25.3 28.7 L 24.1 28.7 C 24.1 28.7 22.98 25.29 23 25.3 C 22.7 24.5 22.5 23.8 22.3 22.9 C 22.3 22.9 22.3 22.9 22.3 22.9 C 22.1 23.8 21.9 24.5 21.6 25.3 C 21.64 25.3 20.5 28.7 20.5 28.7 L 19.3 28.7 L 17.1 21.5 L 18.4 21.5 Z M 32.8 21.5 C 32.8 21.5 33.78 25.18 33.8 25.2 C 34 26 34.2 26.7 34.3 27.5 C 34.3 27.5 34.4 27.5 34.4 27.5 C 34.5 26.8 34.8 26 35 25.2 C 34.99 25.19 36.2 21.5 36.2 21.5 L 37.3 21.5 C 37.3 21.5 38.41 25.12 38.4 25.1 C 38.7 26 38.9 26.8 39.1 27.5 C 39.1 27.5 39.1 27.5 39.1 27.5 C 39.2 26.8 39.4 26 39.7 25.1 C 39.66 25.13 40.7 21.5 40.7 21.5 L 42 21.5 L 39.7 28.7 L 38.5 28.7 C 38.5 28.7 37.35 25.29 37.3 25.3 C 37.1 24.5 36.9 23.8 36.7 22.9 C 36.7 22.9 36.7 22.9 36.7 22.9 C 36.5 23.8 36.3 24.5 36 25.3 C 36.01 25.3 34.8 28.7 34.8 28.7 L 33.6 28.7 L 31.5 21.5 L 32.8 21.5 Z M 48.4 27 C 48.4 27.6 48.5 28.3 48.5 28.7 C 48.54 28.75 47.4 28.7 47.4 28.7 L 47.3 27.8 C 47.3 27.8 47.21 27.84 47.2 27.8 C 46.8 28.4 46 28.9 45 28.9 C 43.5 28.9 42.8 27.9 42.8 26.8 C 42.8 25.1 44.3 24.1 47.1 24.1 C 47.1 24.1 47.1 24 47.1 24 C 47.1 23.4 47 22.3 45.5 22.3 C 44.8 22.3 44.1 22.5 43.6 22.9 C 43.6 22.9 43.3 22 43.3 22 C 43.9 21.6 44.8 21.3 45.7 21.3 C 47.9 21.3 48.4 22.9 48.4 24.3 C 48.4 24.3 48.4 27 48.4 27 Z M 47.2 25 C 45.7 25 44.1 25.3 44.1 26.7 C 44.1 27.6 44.7 27.9 45.3 27.9 C 46.3 27.9 46.9 27.3 47.1 26.7 C 47.1 26.6 47.2 26.4 47.2 26.3 C 47.2 26.3 47.2 25 47.2 25 Z M 51 21.5 C 51 21.5 52.45 25.56 52.5 25.6 C 52.7 26.2 52.9 26.8 53 27.4 C 53 27.4 53.1 27.4 53.1 27.4 C 53.2 26.8 53.5 26.2 53.7 25.6 C 53.7 25.55 55.1 21.5 55.1 21.5 L 56.5 21.5 L 53.6 28.7 L 52.4 28.7 L 49.6 21.5 L 51 21.5 Z M 58.4 25.4 C 58.4 27.1 59.5 27.9 60.9 27.9 C 61.8 27.9 62.4 27.7 62.9 27.5 C 62.9 27.5 63.1 28.4 63.1 28.4 C 62.7 28.7 61.9 28.9 60.7 28.9 C 58.5 28.9 57.1 27.4 57.1 25.2 C 57.1 23 58.4 21.3 60.5 21.3 C 62.9 21.3 63.5 23.4 63.5 24.7 C 63.5 25 63.5 25.2 63.5 25.4 C 63.5 25.4 58.4 25.4 58.4 25.4 Z M 62.3 24.4 C 62.3 23.6 61.9 22.3 60.4 22.3 C 59.1 22.3 58.5 23.5 58.4 24.4 C 58.4 24.4 62.3 24.4 62.3 24.4 Z M 65.1 27.4 C 65.5 27.7 66.2 27.9 66.8 27.9 C 67.8 27.9 68.2 27.5 68.2 26.8 C 68.2 26.2 67.8 25.9 66.9 25.5 C 65.6 25 65 24.3 65 23.5 C 65 22.3 65.9 21.3 67.5 21.3 C 68.2 21.3 68.8 21.5 69.2 21.8 C 69.2 21.8 68.9 22.7 68.9 22.7 C 68.6 22.6 68.1 22.3 67.4 22.3 C 66.6 22.3 66.2 22.8 66.2 23.3 C 66.2 23.9 66.6 24.2 67.6 24.5 C 68.8 25 69.5 25.6 69.5 26.7 C 69.5 28 68.5 28.9 66.8 28.9 C 66 28.9 65.3 28.7 64.8 28.4 C 64.8 28.4 65.1 27.4 65.1 27.4 Z M 81.1 25.1 C 81.1 27.7 79.2 28.9 77.5 28.9 C 75.5 28.9 74 27.5 74 25.2 C 74 22.8 75.6 21.3 77.6 21.3 C 79.7 21.3 81.1 22.9 81.1 25.1 Z M 75.3 25.1 C 75.3 26.7 76.2 27.9 77.5 27.9 C 78.8 27.9 79.7 26.7 79.7 25.1 C 79.7 23.9 79.1 22.3 77.6 22.3 C 76 22.3 75.3 23.8 75.3 25.1 Z M 83 28.7 L 83 22.5 L 82 22.5 L 82 21.5 L 83 21.5 C 83 21.5 82.96 21.15 83 21.1 C 83 20.1 83.2 19.2 83.8 18.6 C 84.3 18.1 85 17.9 85.6 17.9 C 86.1 17.9 86.4 18 86.7 18.1 C 86.7 18.1 86.5 19.2 86.5 19.2 C 86.3 19.1 86.1 19 85.7 19 C 84.6 19 84.3 20 84.3 21.1 C 84.27 21.1 84.3 21.5 84.3 21.5 L 86 21.5 L 86 22.5 L 84.3 22.5 L 84.3 28.7 L 83 28.7 Z M 90.5 18.1 L 91.9 18.1 L 91.9 28.7 L 90.5 28.7 L 90.5 18.1 Z M 99.3 27 C 99.3 27.6 99.3 28.3 99.4 28.7 C 99.36 28.75 98.2 28.7 98.2 28.7 L 98.1 27.8 C 98.1 27.8 98.02 27.84 98 27.8 C 97.6 28.4 96.8 28.9 95.8 28.9 C 94.3 28.9 93.6 27.9 93.6 26.8 C 93.6 25.1 95.1 24.1 97.9 24.1 C 97.9 24.1 97.9 24 97.9 24 C 97.9 23.4 97.8 22.3 96.3 22.3 C 95.6 22.3 94.9 22.5 94.4 22.9 C 94.4 22.9 94.1 22 94.1 22 C 94.7 21.6 95.6 21.3 96.5 21.3 C 98.7 21.3 99.3 22.9 99.3 24.3 C 99.3 24.3 99.3 27 99.3 27 Z M 98 25 C 96.5 25 94.9 25.3 94.9 26.7 C 94.9 27.6 95.5 27.9 96.1 27.9 C 97.1 27.9 97.7 27.3 97.9 26.7 C 98 26.6 98 26.4 98 26.3 C 98 26.3 98 25 98 25 Z M 101.5 23.8 C 101.5 22.9 101.4 22.2 101.4 21.5 C 101.4 21.49 102.6 21.5 102.6 21.5 L 102.6 22.9 C 102.6 22.9 102.66 22.93 102.7 22.9 C 103 22 103.8 21.3 104.7 21.3 C 104.8 21.3 104.9 21.4 105 21.4 C 105 21.4 105 22.6 105 22.6 C 104.9 22.6 104.8 22.6 104.6 22.6 C 103.7 22.6 103 23.3 102.8 24.3 C 102.8 24.4 102.8 24.7 102.8 24.9 C 102.78 24.88 102.8 28.7 102.8 28.7 L 101.5 28.7 C 101.5 28.7 101.46 23.76 101.5 23.8 Z M 112.5 27.7 C 112.5 29.4 112.2 30.4 111.5 31 C 110.8 31.7 109.8 31.9 108.8 31.9 C 108 31.9 107 31.7 106.4 31.3 C 106.4 31.3 106.8 30.3 106.8 30.3 C 107.2 30.6 108 30.9 108.9 30.9 C 110.2 30.9 111.2 30.1 111.2 28.3 C 111.22 28.3 111.2 27.5 111.2 27.5 C 111.2 27.5 111.19 27.51 111.2 27.5 C 110.8 28.2 110 28.7 108.9 28.7 C 107.1 28.7 105.8 27.2 105.8 25.2 C 105.8 22.7 107.4 21.3 109.1 21.3 C 110.3 21.3 111 22 111.3 22.6 C 111.34 22.58 111.4 22.6 111.4 22.6 L 111.4 21.5 C 111.4 21.5 112.59 21.49 112.6 21.5 C 112.5 22 112.5 22.6 112.5 23.5 C 112.5 23.5 112.5 27.7 112.5 27.7 Z M 111.2 24.4 C 111.2 24.1 111.2 23.9 111.1 23.8 C 110.9 23 110.3 22.4 109.3 22.4 C 108 22.4 107.1 23.4 107.1 25.1 C 107.1 26.5 107.9 27.7 109.3 27.7 C 110.1 27.7 110.8 27.2 111.1 26.4 C 111.2 26.1 111.2 25.9 111.2 25.7 C 111.2 25.7 111.2 24.4 111.2 24.4 Z M 115.5 25.4 C 115.5 27.1 116.7 27.9 118 27.9 C 118.9 27.9 119.5 27.7 120 27.5 C 120 27.5 120.3 28.4 120.3 28.4 C 119.8 28.7 119 28.9 117.8 28.9 C 115.6 28.9 114.3 27.4 114.3 25.2 C 114.3 23 115.5 21.3 117.7 21.3 C 120 21.3 120.7 23.4 120.7 24.7 C 120.7 25 120.6 25.2 120.6 25.4 C 120.6 25.4 115.5 25.4 115.5 25.4 Z M 119.4 24.4 C 119.4 23.6 119 22.3 117.6 22.3 C 116.2 22.3 115.6 23.5 115.5 24.4 C 115.5 24.4 119.4 24.4 119.4 24.4 Z M 125.6 18.1 L 126.9 18.1 L 126.9 22.7 C 126.9 22.7 126.96 22.66 127 22.7 C 127.4 21.9 128.3 21.3 129.4 21.3 C 131.2 21.3 132.5 22.8 132.5 25 C 132.5 27.6 130.9 28.9 129.2 28.9 C 128.2 28.9 127.3 28.5 126.8 27.6 C 126.79 27.57 126.8 27.6 126.8 27.6 L 126.7 28.7 C 126.7 28.7 125.56 28.75 125.6 28.7 C 125.6 28.3 125.6 27.5 125.6 26.9 C 125.62 26.88 125.6 18.1 125.6 18.1 Z M 126.9 25.8 C 126.9 26 126.9 26.2 127 26.3 C 127.2 27.2 128 27.9 129 27.9 C 130.4 27.9 131.2 26.7 131.2 25.1 C 131.2 23.6 130.4 22.4 129 22.4 C 128.1 22.4 127.3 23 127 24 C 127 24.2 126.9 24.3 126.9 24.5 C 126.9 24.5 126.9 25.8 126.9 25.8 Z M 140.8 25.1 C 140.8 27.7 138.9 28.9 137.2 28.9 C 135.2 28.9 133.7 27.5 133.7 25.2 C 133.7 22.8 135.3 21.3 137.3 21.3 C 139.4 21.3 140.8 22.9 140.8 25.1 Z M 135.1 25.1 C 135.1 26.7 136 27.9 137.2 27.9 C 138.5 27.9 139.5 26.7 139.5 25.1 C 139.5 23.9 138.8 22.3 137.3 22.3 C 135.7 22.3 135.1 23.8 135.1 25.1 Z M 147.6 27 C 147.6 27.6 147.7 28.3 147.7 28.7 C 147.75 28.75 146.6 28.7 146.6 28.7 L 146.5 27.8 C 146.5 27.8 146.41 27.84 146.4 27.8 C 146 28.4 145.2 28.9 144.2 28.9 C 142.7 28.9 142 27.9 142 26.8 C 142 25.1 143.5 24.1 146.3 24.1 C 146.3 24.1 146.3 24 146.3 24 C 146.3 23.4 146.2 22.3 144.7 22.3 C 144 22.3 143.3 22.5 142.8 22.9 C 142.8 22.9 142.5 22 142.5 22 C 143.1 21.6 144 21.3 144.9 21.3 C 147.1 21.3 147.6 22.9 147.6 24.3 C 147.6 24.3 147.6 27 147.6 27 Z M 146.4 25 C 144.9 25 143.3 25.3 143.3 26.7 C 143.3 27.6 143.9 27.9 144.5 27.9 C 145.5 27.9 146.1 27.3 146.3 26.7 C 146.4 26.6 146.4 26.4 146.4 26.3 C 146.4 26.3 146.4 25 146.4 25 Z M 151.4 19.8 L 151.4 21.5 L 153.3 21.5 L 153.3 22.5 L 151.4 22.5 C 151.4 22.5 151.38 26.41 151.4 26.4 C 151.4 27.3 151.6 27.8 152.4 27.8 C 152.7 27.8 152.9 27.8 153.1 27.7 C 153.1 27.7 153.2 28.7 153.2 28.7 C 152.9 28.8 152.5 28.9 152 28.9 C 151.4 28.9 150.9 28.7 150.6 28.4 C 150.2 28 150.1 27.3 150.1 26.5 C 150.09 26.46 150.1 22.5 150.1 22.5 L 149 22.5 L 149 21.5 L 150.1 21.5 L 150.1 20.1 L 151.4 19.8 Z M 154.6 27.4 C 155.1 27.7 155.7 27.9 156.4 27.9 C 157.3 27.9 157.8 27.5 157.8 26.8 C 157.8 26.2 157.4 25.9 156.5 25.5 C 155.1 25 154.5 24.3 154.5 23.5 C 154.5 22.3 155.5 21.3 157 21.3 C 157.8 21.3 158.4 21.5 158.8 21.8 C 158.8 21.8 158.5 22.7 158.5 22.7 C 158.2 22.6 157.7 22.3 157 22.3 C 156.2 22.3 155.8 22.8 155.8 23.3 C 155.8 23.9 156.2 24.2 157.2 24.5 C 158.4 25 159.1 25.6 159.1 26.7 C 159.1 28 158.1 28.9 156.4 28.9 C 155.6 28.9 154.8 28.7 154.3 28.4 C 154.3 28.4 154.6 27.4 154.6 27.4 Z M 160.4 28 C 160.4 27.4 160.7 27 161.3 27 C 161.8 27 162.1 27.4 162.1 28 C 162.1 28.5 161.8 28.9 161.2 28.9 C 160.7 28.9 160.4 28.5 160.4 28 Z M 168.5 19.7 L 165.4 19.7 L 165.4 18.6 L 172.9 18.6 L 172.9 19.7 L 169.8 19.7 L 169.8 28.7 L 168.5 28.7 L 168.5 19.7 Z M 173.9 18.1 L 175.2 18.1 L 175.2 22.6 C 175.2 22.6 175.27 22.64 175.3 22.6 C 175.5 22.3 175.8 21.9 176.2 21.7 C 176.6 21.5 177.1 21.3 177.6 21.3 C 178.5 21.3 180.1 21.9 180.1 24.4 C 180.1 24.43 180.1 28.7 180.1 28.7 L 178.8 28.7 C 178.8 28.7 178.78 24.58 178.8 24.6 C 178.8 23.4 178.3 22.4 177.1 22.4 C 176.2 22.4 175.6 23 175.3 23.7 C 175.3 23.9 175.2 24.1 175.2 24.4 C 175.24 24.37 175.2 28.7 175.2 28.7 L 173.9 28.7 L 173.9 18.1 Z M 183.1 25.4 C 183.1 27.1 184.2 27.9 185.5 27.9 C 186.5 27.9 187.1 27.7 187.6 27.5 C 187.6 27.5 187.8 28.4 187.8 28.4 C 187.3 28.7 186.5 28.9 185.4 28.9 C 183.1 28.9 181.8 27.4 181.8 25.2 C 181.8 23 183.1 21.3 185.2 21.3 C 187.6 21.3 188.2 23.4 188.2 24.7 C 188.2 25 188.2 25.2 188.2 25.4 C 188.2 25.4 183.1 25.4 183.1 25.4 Z M 186.9 24.4 C 186.9 23.6 186.6 22.3 185.1 22.3 C 183.7 22.3 183.2 23.5 183.1 24.4 C 183.1 24.4 186.9 24.4 186.9 24.4 Z M 189.7 27.4 C 190.1 27.7 190.8 27.9 191.5 27.9 C 192.4 27.9 192.9 27.5 192.9 26.8 C 192.9 26.2 192.5 25.9 191.5 25.5 C 190.2 25 189.6 24.3 189.6 23.5 C 189.6 22.3 190.6 21.3 192.1 21.3 C 192.9 21.3 193.5 21.5 193.9 21.8 C 193.9 21.8 193.6 22.7 193.6 22.7 C 193.3 22.6 192.8 22.3 192.1 22.3 C 191.3 22.3 190.9 22.8 190.9 23.3 C 190.9 23.9 191.3 24.2 192.3 24.5 C 193.5 25 194.2 25.6 194.2 26.7 C 194.2 28 193.2 28.9 191.5 28.9 C 190.7 28.9 189.9 28.7 189.4 28.4 C 189.4 28.4 189.7 27.4 189.7 27.4 Z M 196.7 25.4 C 196.7 27.1 197.8 27.9 199.2 27.9 C 200.1 27.9 200.7 27.7 201.2 27.5 C 201.2 27.5 201.4 28.4 201.4 28.4 C 200.9 28.7 200.1 28.9 199 28.9 C 196.7 28.9 195.4 27.4 195.4 25.2 C 195.4 23 196.7 21.3 198.8 21.3 C 201.2 21.3 201.8 23.4 201.8 24.7 C 201.8 25 201.8 25.2 201.8 25.4 C 201.8 25.4 196.7 25.4 196.7 25.4 Z M 200.5 24.4 C 200.5 23.6 200.2 22.3 198.7 22.3 C 197.4 22.3 196.8 23.5 196.7 24.4 C 196.7 24.4 200.5 24.4 200.5 24.4 Z M 213 18.1 C 213 18.1 213.03 26.87 213 26.9 C 213 27.5 213.1 28.3 213.1 28.7 C 213.09 28.75 211.9 28.7 211.9 28.7 L 211.9 27.5 C 211.9 27.5 211.81 27.49 211.8 27.5 C 211.4 28.3 210.6 28.9 209.4 28.9 C 207.6 28.9 206.2 27.4 206.2 25.2 C 206.2 22.8 207.7 21.3 209.5 21.3 C 210.6 21.3 211.4 21.9 211.7 22.4 C 211.69 22.43 211.7 22.4 211.7 22.4 L 211.7 18.1 L 213 18.1 Z M 211.7 24.4 C 211.7 24.3 211.7 24.1 211.7 23.9 C 211.5 23.1 210.7 22.4 209.8 22.4 C 208.4 22.4 207.6 23.6 207.6 25.2 C 207.6 26.6 208.3 27.9 209.7 27.9 C 210.6 27.9 211.4 27.3 211.7 26.3 C 211.7 26.1 211.7 25.9 211.7 25.7 C 211.7 25.7 211.7 24.4 211.7 24.4 Z M 221.9 25.1 C 221.9 27.7 220 28.9 218.3 28.9 C 216.3 28.9 214.8 27.5 214.8 25.2 C 214.8 22.8 216.4 21.3 218.4 21.3 C 220.5 21.3 221.9 22.9 221.9 25.1 Z M 216.1 25.1 C 216.1 26.7 217 27.9 218.3 27.9 C 219.6 27.9 220.5 26.7 220.5 25.1 C 220.5 23.9 219.9 22.3 218.4 22.3 C 216.8 22.3 216.1 23.8 216.1 25.1 Z M 223.6 18.1 L 224.9 18.1 L 224.9 28.7 L 223.6 28.7 L 223.6 18.1 Z M 227.2 23.9 C 227.2 22.9 227.2 22.2 227.2 21.5 C 227.17 21.49 228.3 21.5 228.3 21.5 L 228.4 22.7 C 228.4 22.7 228.45 22.73 228.4 22.7 C 229 21.9 229.8 21.3 231 21.3 C 232.8 21.3 234.1 22.8 234.1 25 C 234.1 27.6 232.5 28.9 230.8 28.9 C 229.8 28.9 229 28.5 228.6 27.8 C 228.57 27.78 228.5 27.8 228.5 27.8 L 228.5 31.7 L 227.2 31.7 C 227.2 31.7 227.23 23.86 227.2 23.9 Z M 228.5 25.8 C 228.5 26 228.6 26.2 228.6 26.3 C 228.8 27.3 229.6 27.9 230.6 27.9 C 232 27.9 232.8 26.7 232.8 25.1 C 232.8 23.6 232 22.4 230.6 22.4 C 229.7 22.4 228.9 23 228.6 24 C 228.6 24.2 228.5 24.4 228.5 24.5 C 228.5 24.5 228.5 25.8 228.5 25.8 Z M 235.8 18.1 L 237.2 18.1 L 237.2 22.6 C 237.2 22.6 237.19 22.64 237.2 22.6 C 237.4 22.3 237.7 21.9 238.1 21.7 C 238.5 21.5 239 21.3 239.5 21.3 C 240.5 21.3 242 21.9 242 24.4 C 242.02 24.43 242 28.7 242 28.7 L 240.7 28.7 C 240.7 28.7 240.7 24.58 240.7 24.6 C 240.7 23.4 240.3 22.4 239 22.4 C 238.2 22.4 237.5 23 237.3 23.7 C 237.2 23.9 237.2 24.1 237.2 24.4 C 237.16 24.37 237.2 28.7 237.2 28.7 L 235.8 28.7 L 235.8 18.1 Z M 244.2 28.7 L 244.2 21.5 L 245.6 21.5 L 245.6 28.7 L 244.2 28.7 Z M 245.7 19.5 C 245.7 19.9 245.4 20.3 244.9 20.3 C 244.4 20.3 244.1 19.9 244.1 19.5 C 244.1 19 244.4 18.6 244.9 18.6 C 245.4 18.6 245.7 19 245.7 19.5 Z M 247.8 23.5 C 247.8 22.7 247.8 22.1 247.8 21.5 C 247.77 21.49 248.9 21.5 248.9 21.5 L 249 22.7 C 249 22.7 249.04 22.69 249 22.7 C 249.4 22 250.2 21.3 251.4 21.3 C 252.4 21.3 254 21.9 254 24.4 C 254.01 24.43 254 28.7 254 28.7 L 252.7 28.7 C 252.7 28.7 252.69 24.56 252.7 24.6 C 252.7 23.4 252.3 22.4 251 22.4 C 250.2 22.4 249.5 23 249.2 23.8 C 249.2 23.9 249.1 24.2 249.1 24.4 C 249.15 24.38 249.1 28.7 249.1 28.7 L 247.8 28.7 C 247.8 28.7 247.83 23.46 247.8 23.5 Z " stroke="none" fill="#fff"/>  </g>  <g id="Polygon11975">    <path d="M 1.1 1.3 C 1.9 1.2 2.9 1.1 3.9 1.1 C 5.8 1.1 7.1 1.5 8 2.3 C 8.9 3.1 9.4 4.3 9.4 6 C 9.4 7.6 8.9 9 8 9.9 C 7 10.8 5.5 11.3 3.5 11.3 C 2.6 11.3 1.8 11.3 1.1 11.2 C 1.1 11.2 1.1 1.3 1.1 1.3 Z M 2.4 10.2 C 2.8 10.3 3.3 10.3 3.8 10.3 C 6.6 10.3 8.1 8.7 8.1 6 C 8.1 3.6 6.7 2.1 4 2.1 C 3.3 2.1 2.8 2.2 2.4 2.2 C 2.4 2.2 2.4 10.2 2.4 10.2 Z M 17.8 7.6 C 17.8 10.2 15.9 11.4 14.2 11.4 C 12.2 11.4 10.7 10 10.7 7.7 C 10.7 5.3 12.3 3.8 14.3 3.8 C 16.4 3.8 17.8 5.4 17.8 7.6 Z M 12 7.6 C 12 9.2 12.9 10.4 14.2 10.4 C 15.5 10.4 16.4 9.2 16.4 7.6 C 16.4 6.4 15.8 4.8 14.3 4.8 C 12.7 4.8 12 6.3 12 7.6 Z M 19.5 0.6 L 20.8 0.6 L 20.8 11.2 L 19.5 11.2 L 19.5 0.6 Z M 23.1 6.4 C 23.1 5.4 23.1 4.7 23.1 4 C 23.09 3.99 24.3 4 24.3 4 L 24.3 5.2 C 24.3 5.2 24.36 5.23 24.4 5.2 C 24.9 4.4 25.8 3.8 26.9 3.8 C 28.7 3.8 30 5.3 30 7.5 C 30 10.1 28.4 11.4 26.7 11.4 C 25.8 11.4 24.9 11 24.5 10.3 C 24.48 10.28 24.4 10.3 24.4 10.3 L 24.4 14.2 L 23.1 14.2 C 23.1 14.2 23.15 6.36 23.1 6.4 Z M 24.4 8.3 C 24.4 8.5 24.5 8.7 24.5 8.8 C 24.7 9.8 25.5 10.4 26.5 10.4 C 27.9 10.4 28.7 9.2 28.7 7.6 C 28.7 6.1 27.9 4.9 26.5 4.9 C 25.6 4.9 24.8 5.5 24.5 6.5 C 24.5 6.7 24.4 6.9 24.4 7 C 24.4 7 24.4 8.3 24.4 8.3 Z M 31.8 0.6 L 33.1 0.6 L 33.1 5.1 C 33.1 5.1 33.1 5.14 33.1 5.1 C 33.3 4.8 33.6 4.4 34 4.2 C 34.4 4 34.9 3.8 35.4 3.8 C 36.4 3.8 37.9 4.4 37.9 6.9 C 37.93 6.93 37.9 11.2 37.9 11.2 L 36.6 11.2 C 36.6 11.2 36.62 7.08 36.6 7.1 C 36.6 5.9 36.2 4.9 34.9 4.9 C 34.1 4.9 33.4 5.5 33.2 6.2 C 33.1 6.4 33.1 6.6 33.1 6.9 C 33.07 6.87 33.1 11.2 33.1 11.2 L 31.8 11.2 L 31.8 0.6 Z M 40.2 11.2 L 40.2 4 L 41.5 4 L 41.5 11.2 L 40.2 11.2 Z M 41.6 2 C 41.6 2.4 41.3 2.8 40.8 2.8 C 40.3 2.8 40 2.4 40 2 C 40 1.5 40.3 1.1 40.8 1.1 C 41.3 1.1 41.6 1.5 41.6 2 Z M 43.7 6 C 43.7 5.2 43.7 4.6 43.7 4 C 43.68 3.99 44.8 4 44.8 4 L 44.9 5.2 C 44.9 5.2 44.95 5.19 45 5.2 C 45.3 4.5 46.2 3.8 47.4 3.8 C 48.4 3.8 49.9 4.4 49.9 6.9 C 49.92 6.93 49.9 11.2 49.9 11.2 L 48.6 11.2 C 48.6 11.2 48.6 7.06 48.6 7.1 C 48.6 5.9 48.2 4.9 46.9 4.9 C 46.1 4.9 45.4 5.5 45.1 6.3 C 45.1 6.4 45.1 6.7 45.1 6.9 C 45.06 6.88 45.1 11.2 45.1 11.2 L 43.7 11.2 C 43.7 11.2 43.74 5.96 43.7 6 Z M 55.2 9.9 C 55.6 10.2 56.3 10.4 57 10.4 C 57.9 10.4 58.4 10 58.4 9.3 C 58.4 8.7 58 8.4 57 8 C 55.7 7.5 55.1 6.8 55.1 6 C 55.1 4.8 56.1 3.8 57.6 3.8 C 58.3 3.8 59 4 59.4 4.3 C 59.4 4.3 59.1 5.2 59.1 5.2 C 58.8 5.1 58.2 4.8 57.6 4.8 C 56.8 4.8 56.4 5.3 56.4 5.8 C 56.4 6.4 56.8 6.7 57.7 7 C 59 7.5 59.6 8.1 59.6 9.2 C 59.6 10.5 58.6 11.4 56.9 11.4 C 56.1 11.4 55.4 11.2 54.9 10.9 C 54.9 10.9 55.2 9.9 55.2 9.9 Z M 62.1 7.9 C 62.2 9.6 63.3 10.4 64.6 10.4 C 65.6 10.4 66.2 10.2 66.6 10 C 66.6 10 66.9 10.9 66.9 10.9 C 66.4 11.2 65.6 11.4 64.5 11.4 C 62.2 11.4 60.9 9.9 60.9 7.7 C 60.9 5.5 62.2 3.8 64.3 3.8 C 66.7 3.8 67.3 5.9 67.3 7.2 C 67.3 7.5 67.3 7.7 67.2 7.9 C 67.2 7.9 62.1 7.9 62.1 7.9 Z M 66 6.9 C 66 6.1 65.7 4.8 64.2 4.8 C 62.8 4.8 62.3 6 62.2 6.9 C 62.2 6.9 66 6.9 66 6.9 Z M 69.7 7.9 C 69.8 9.6 70.9 10.4 72.2 10.4 C 73.2 10.4 73.8 10.2 74.2 10 C 74.2 10 74.5 10.9 74.5 10.9 C 74 11.2 73.2 11.4 72 11.4 C 69.8 11.4 68.5 9.9 68.5 7.7 C 68.5 5.5 69.8 3.8 71.9 3.8 C 74.3 3.8 74.9 5.9 74.9 7.2 C 74.9 7.5 74.9 7.7 74.8 7.9 C 74.8 7.9 69.7 7.9 69.7 7.9 Z M 73.6 6.9 C 73.6 6.1 73.3 4.8 71.8 4.8 C 70.4 4.8 69.9 6 69.7 6.9 C 69.7 6.9 73.6 6.9 73.6 6.9 Z M 76.6 6 C 76.6 5.2 76.6 4.6 76.5 4 C 76.53 3.99 77.7 4 77.7 4 L 77.7 5.2 C 77.7 5.2 77.79 5.17 77.8 5.2 C 78.2 4.5 78.9 3.8 80.1 3.8 C 81.1 3.8 81.8 4.4 82.1 5.3 C 82.1 5.3 82.2 5.3 82.2 5.3 C 82.4 4.9 82.7 4.6 83 4.4 C 83.4 4 83.9 3.8 84.6 3.8 C 85.5 3.8 87 4.5 87 7 C 86.97 6.99 87 11.2 87 11.2 L 85.7 11.2 C 85.7 11.2 85.68 7.15 85.7 7.2 C 85.7 5.7 85.2 4.9 84.1 4.9 C 83.3 4.9 82.8 5.5 82.5 6.1 C 82.5 6.3 82.4 6.5 82.4 6.8 C 82.42 6.76 82.4 11.2 82.4 11.2 L 81.1 11.2 C 81.1 11.2 81.13 6.9 81.1 6.9 C 81.1 5.7 80.6 4.9 79.6 4.9 C 78.8 4.9 78.2 5.6 78 6.2 C 77.9 6.4 77.9 6.7 77.9 6.9 C 77.88 6.88 77.9 11.2 77.9 11.2 L 76.6 11.2 C 76.6 11.2 76.59 5.96 76.6 6 Z M 94 2.3 L 94 4 L 95.9 4 L 95.9 5 L 94 5 C 94 5 94.02 8.91 94 8.9 C 94 9.8 94.3 10.3 95 10.3 C 95.4 10.3 95.6 10.3 95.8 10.2 C 95.8 10.2 95.8 11.2 95.8 11.2 C 95.6 11.3 95.2 11.4 94.7 11.4 C 94 11.4 93.6 11.2 93.2 10.9 C 92.9 10.5 92.7 9.8 92.7 9 C 92.73 8.96 92.7 5 92.7 5 L 91.6 5 L 91.6 4 L 92.7 4 L 92.7 2.6 L 94 2.3 Z M 103.9 7.6 C 103.9 10.2 102.1 11.4 100.3 11.4 C 98.4 11.4 96.9 10 96.9 7.7 C 96.9 5.3 98.5 3.8 100.5 3.8 C 102.5 3.8 103.9 5.4 103.9 7.6 Z M 98.2 7.6 C 98.2 9.2 99.1 10.4 100.4 10.4 C 101.7 10.4 102.6 9.2 102.6 7.6 C 102.6 6.4 102 4.8 100.4 4.8 C 98.9 4.8 98.2 6.3 98.2 7.6 Z M 109.7 7.9 C 109.7 9.6 110.8 10.4 112.2 10.4 C 113.1 10.4 113.7 10.2 114.2 10 C 114.2 10 114.4 10.9 114.4 10.9 C 114 11.2 113.1 11.4 112 11.4 C 109.8 11.4 108.4 9.9 108.4 7.7 C 108.4 5.5 109.7 3.8 111.8 3.8 C 114.2 3.8 114.8 5.9 114.8 7.2 C 114.8 7.5 114.8 7.7 114.8 7.9 C 114.8 7.9 109.7 7.9 109.7 7.9 Z M 113.5 6.9 C 113.6 6.1 113.2 4.8 111.7 4.8 C 110.4 4.8 109.8 6 109.7 6.9 C 109.7 6.9 113.5 6.9 113.5 6.9 Z M 116.5 6 C 116.5 5.2 116.5 4.6 116.5 4 C 116.47 3.99 117.6 4 117.6 4 L 117.7 5.2 C 117.7 5.2 117.75 5.19 117.7 5.2 C 118.1 4.5 118.9 3.8 120.1 3.8 C 121.2 3.8 122.7 4.4 122.7 6.9 C 122.71 6.93 122.7 11.2 122.7 11.2 L 121.4 11.2 C 121.4 11.2 121.39 7.06 121.4 7.1 C 121.4 5.9 121 4.9 119.7 4.9 C 118.9 4.9 118.2 5.5 117.9 6.3 C 117.9 6.4 117.9 6.7 117.9 6.9 C 117.85 6.88 117.9 11.2 117.9 11.2 L 116.5 11.2 C 116.5 11.2 116.53 5.96 116.5 6 Z M 123.1 13.4 C 123.8 13.3 124.3 13.2 124.6 12.8 C 124.9 12.4 125.1 11.8 125.1 10.1 C 125.1 10.1 125.1 4 125.1 4 L 126.4 4 C 126.4 4 126.42 10.61 126.4 10.6 C 126.4 12 126.2 12.9 125.5 13.6 C 125 14.2 124 14.4 123.3 14.4 C 123.3 14.4 123.1 13.4 123.1 13.4 Z M 126.6 2 C 126.6 2.4 126.3 2.8 125.7 2.8 C 125.2 2.8 124.9 2.4 124.9 2 C 124.9 1.5 125.3 1.1 125.8 1.1 C 126.3 1.1 126.6 1.5 126.6 2 Z M 135.2 7.6 C 135.2 10.2 133.3 11.4 131.6 11.4 C 129.7 11.4 128.1 10 128.1 7.7 C 128.1 5.3 129.7 3.8 131.7 3.8 C 133.8 3.8 135.2 5.4 135.2 7.6 Z M 129.5 7.6 C 129.5 9.2 130.4 10.4 131.7 10.4 C 132.9 10.4 133.9 9.2 133.9 7.6 C 133.9 6.4 133.3 4.8 131.7 4.8 C 130.2 4.8 129.5 6.3 129.5 7.6 Z M 137.3 4 C 137.3 4 138.91 8.28 138.9 8.3 C 139.1 8.8 139.3 9.3 139.4 9.8 C 139.4 9.8 139.4 9.8 139.4 9.8 C 139.6 9.3 139.7 8.8 139.9 8.3 C 139.89 8.25 141.3 4 141.3 4 L 142.7 4 C 142.7 4 140.74 9.17 140.7 9.2 C 139.8 11.7 139.2 12.9 138.3 13.7 C 137.6 14.3 137 14.5 136.6 14.6 C 136.6 14.6 136.3 13.5 136.3 13.5 C 136.6 13.4 137.1 13.1 137.5 12.8 C 137.8 12.5 138.3 12 138.6 11.3 C 138.6 11.2 138.7 11.1 138.7 11 C 138.7 11 138.6 10.8 138.6 10.7 C 138.57 10.68 135.9 4 135.9 4 L 137.3 4 Z M 152.4 11 C 152.1 11.2 151.3 11.4 150.3 11.4 C 148.2 11.4 146.7 9.9 146.7 7.7 C 146.7 5.5 148.3 3.8 150.6 3.8 C 151.4 3.8 152.1 4 152.5 4.2 C 152.5 4.2 152.2 5.2 152.2 5.2 C 151.8 5.1 151.3 4.9 150.6 4.9 C 149 4.9 148.1 6.1 148.1 7.6 C 148.1 9.3 149.1 10.4 150.6 10.4 C 151.3 10.4 151.8 10.2 152.2 10 C 152.2 10 152.4 11 152.4 11 Z M 159.1 9.5 C 159.1 10.1 159.2 10.8 159.3 11.2 C 159.25 11.25 158.1 11.2 158.1 11.2 L 158 10.3 C 158 10.3 157.92 10.34 157.9 10.3 C 157.5 10.9 156.7 11.4 155.7 11.4 C 154.2 11.4 153.5 10.4 153.5 9.3 C 153.5 7.6 155 6.6 157.8 6.6 C 157.8 6.6 157.8 6.5 157.8 6.5 C 157.8 5.9 157.7 4.8 156.2 4.8 C 155.5 4.8 154.8 5 154.3 5.4 C 154.3 5.4 154 4.5 154 4.5 C 154.6 4.1 155.5 3.8 156.4 3.8 C 158.6 3.8 159.1 5.4 159.1 6.8 C 159.1 6.8 159.1 9.5 159.1 9.5 Z M 157.9 7.5 C 156.4 7.5 154.8 7.8 154.8 9.2 C 154.8 10.1 155.4 10.4 156 10.4 C 157 10.4 157.6 9.8 157.8 9.2 C 157.9 9.1 157.9 8.9 157.9 8.8 C 157.9 8.8 157.9 7.5 157.9 7.5 Z M 161.7 4 C 161.7 4 163.17 8.06 163.2 8.1 C 163.4 8.7 163.6 9.3 163.8 9.9 C 163.8 9.9 163.8 9.9 163.8 9.9 C 164 9.3 164.2 8.7 164.4 8.1 C 164.41 8.05 165.8 4 165.8 4 L 167.2 4 L 164.4 11.2 L 163.1 11.2 L 160.3 4 L 161.7 4 Z M 174.9 7.6 C 174.9 10.2 173.1 11.4 171.3 11.4 C 169.4 11.4 167.8 10 167.8 7.7 C 167.8 5.3 169.5 3.8 171.4 3.8 C 173.5 3.8 174.9 5.4 174.9 7.6 Z M 169.2 7.6 C 169.2 9.2 170.1 10.4 171.4 10.4 C 172.6 10.4 173.6 9.2 173.6 7.6 C 173.6 6.4 173 4.8 171.4 4.8 C 169.9 4.8 169.2 6.3 169.2 7.6 Z M 176.7 6.3 C 176.7 5.4 176.7 4.7 176.6 4 C 176.62 3.99 177.8 4 177.8 4 L 177.8 5.4 C 177.8 5.4 177.88 5.43 177.9 5.4 C 178.2 4.5 179 3.8 179.9 3.8 C 180 3.8 180.1 3.9 180.3 3.9 C 180.3 3.9 180.3 5.1 180.3 5.1 C 180.1 5.1 180 5.1 179.8 5.1 C 178.9 5.1 178.2 5.8 178 6.8 C 178 6.9 178 7.2 178 7.4 C 178 7.38 178 11.2 178 11.2 L 176.7 11.2 C 176.7 11.2 176.68 6.26 176.7 6.3 Z M 183.6 2.3 L 183.6 4 L 185.5 4 L 185.5 5 L 183.6 5 C 183.6 5 183.61 8.91 183.6 8.9 C 183.6 9.8 183.9 10.3 184.6 10.3 C 185 10.3 185.2 10.3 185.4 10.2 C 185.4 10.2 185.4 11.2 185.4 11.2 C 185.2 11.3 184.8 11.4 184.3 11.4 C 183.6 11.4 183.1 11.2 182.8 10.9 C 182.5 10.5 182.3 9.8 182.3 9 C 182.32 8.96 182.3 5 182.3 5 L 181.2 5 L 181.2 4 L 182.3 4 L 182.3 2.6 L 183.6 2.3 Z M 187.1 11.2 L 187.1 4 L 188.4 4 L 188.4 11.2 L 187.1 11.2 Z M 188.5 2 C 188.5 2.4 188.2 2.8 187.7 2.8 C 187.2 2.8 186.9 2.4 186.9 2 C 186.9 1.5 187.2 1.1 187.7 1.1 C 188.2 1.1 188.5 1.5 188.5 2 Z M 190.6 6 C 190.6 5.2 190.6 4.6 190.6 4 C 190.59 3.99 191.8 4 191.8 4 L 191.8 5.2 C 191.8 5.2 191.86 5.19 191.9 5.2 C 192.2 4.5 193.1 3.8 194.3 3.8 C 195.3 3.8 196.8 4.4 196.8 6.9 C 196.83 6.93 196.8 11.2 196.8 11.2 L 195.5 11.2 C 195.5 11.2 195.51 7.06 195.5 7.1 C 195.5 5.9 195.1 4.9 193.8 4.9 C 193 4.9 192.3 5.5 192.1 6.3 C 192 6.4 192 6.7 192 6.9 C 191.97 6.88 192 11.2 192 11.2 L 190.6 11.2 C 190.6 11.2 190.65 5.96 190.6 6 Z M 205.3 10.2 C 205.3 11.9 204.9 12.9 204.2 13.5 C 203.5 14.2 202.5 14.4 201.6 14.4 C 200.7 14.4 199.7 14.2 199.2 13.8 C 199.2 13.8 199.5 12.8 199.5 12.8 C 200 13.1 200.7 13.4 201.6 13.4 C 203 13.4 204 12.6 204 10.8 C 203.95 10.8 204 10 204 10 C 204 10 203.92 10.01 203.9 10 C 203.5 10.7 202.7 11.2 201.6 11.2 C 199.8 11.2 198.5 9.7 198.5 7.7 C 198.5 5.2 200.1 3.8 201.8 3.8 C 203.1 3.8 203.7 4.5 204.1 5.1 C 204.07 5.08 204.1 5.1 204.1 5.1 L 204.1 4 C 204.1 4 205.32 3.99 205.3 4 C 205.3 4.5 205.3 5.1 205.3 6 C 205.3 6 205.3 10.2 205.3 10.2 Z M 203.9 6.9 C 203.9 6.6 203.9 6.4 203.9 6.3 C 203.6 5.5 203 4.9 202 4.9 C 200.8 4.9 199.9 5.9 199.9 7.6 C 199.9 9 200.6 10.2 202 10.2 C 202.8 10.2 203.6 9.7 203.8 8.9 C 203.9 8.6 203.9 8.4 203.9 8.2 C 203.9 8.2 203.9 6.9 203.9 6.9 Z M 210.8 11.2 L 210.8 4 L 212.1 4 L 212.1 11.2 L 210.8 11.2 Z M 212.2 2 C 212.2 2.4 211.9 2.8 211.4 2.8 C 210.9 2.8 210.6 2.4 210.6 2 C 210.6 1.5 210.9 1.1 211.4 1.1 C 211.9 1.1 212.2 1.5 212.2 2 Z M 214.3 6 C 214.3 5.2 214.3 4.6 214.3 4 C 214.29 3.99 215.5 4 215.5 4 L 215.5 5.2 C 215.5 5.2 215.56 5.19 215.6 5.2 C 215.9 4.5 216.8 3.8 218 3.8 C 219 3.8 220.5 4.4 220.5 6.9 C 220.53 6.93 220.5 11.2 220.5 11.2 L 219.2 11.2 C 219.2 11.2 219.21 7.06 219.2 7.1 C 219.2 5.9 218.8 4.9 217.5 4.9 C 216.7 4.9 216 5.5 215.8 6.3 C 215.7 6.4 215.7 6.7 215.7 6.9 C 215.67 6.88 215.7 11.2 215.7 11.2 L 214.3 11.2 C 214.3 11.2 214.35 5.96 214.3 6 Z M 227.6 2.3 L 227.6 4 L 229.5 4 L 229.5 5 L 227.6 5 C 227.6 5 227.59 8.91 227.6 8.9 C 227.6 9.8 227.8 10.3 228.6 10.3 C 228.9 10.3 229.2 10.3 229.3 10.2 C 229.3 10.2 229.4 11.2 229.4 11.2 C 229.2 11.3 228.7 11.4 228.2 11.4 C 227.6 11.4 227.1 11.2 226.8 10.9 C 226.5 10.5 226.3 9.8 226.3 9 C 226.3 8.96 226.3 5 226.3 5 L 225.2 5 L 225.2 4 L 226.3 4 L 226.3 2.6 L 227.6 2.3 Z M 231 0.6 L 232.4 0.6 L 232.4 5.1 C 232.4 5.1 232.39 5.14 232.4 5.1 C 232.6 4.8 232.9 4.4 233.3 4.2 C 233.7 4 234.2 3.8 234.7 3.8 C 235.7 3.8 237.2 4.4 237.2 6.9 C 237.22 6.93 237.2 11.2 237.2 11.2 L 235.9 11.2 C 235.9 11.2 235.9 7.08 235.9 7.1 C 235.9 5.9 235.5 4.9 234.2 4.9 C 233.4 4.9 232.7 5.5 232.5 6.2 C 232.4 6.4 232.4 6.6 232.4 6.9 C 232.36 6.87 232.4 11.2 232.4 11.2 L 231 11.2 L 231 0.6 Z M 240.2 7.9 C 240.2 9.6 241.3 10.4 242.7 10.4 C 243.6 10.4 244.2 10.2 244.7 10 C 244.7 10 244.9 10.9 244.9 10.9 C 244.5 11.2 243.6 11.4 242.5 11.4 C 240.3 11.4 238.9 9.9 238.9 7.7 C 238.9 5.5 240.2 3.8 242.3 3.8 C 244.7 3.8 245.3 5.9 245.3 7.2 C 245.3 7.5 245.3 7.7 245.3 7.9 C 245.3 7.9 240.2 7.9 240.2 7.9 Z M 244 6.9 C 244.1 6.1 243.7 4.8 242.2 4.8 C 240.9 4.8 240.3 6 240.2 6.9 C 240.2 6.9 244 6.9 244 6.9 Z " stroke="none" fill="#fff"/>  </g>  <g id="Polygon11978">    <path d="M 1.3 53.6 L 1.3 63.7 L 0 63.7 L 0 53.6 L 1.3 53.6 Z M 3.4 62.4 C 3.9 62.7 4.5 62.9 5.2 62.9 C 6.1 62.9 6.6 62.5 6.6 61.8 C 6.6 61.2 6.2 60.9 5.3 60.5 C 3.9 60 3.3 59.3 3.3 58.5 C 3.3 57.3 4.3 56.3 5.8 56.3 C 6.6 56.3 7.2 56.5 7.6 56.8 C 7.6 56.8 7.3 57.7 7.3 57.7 C 7 57.6 6.5 57.3 5.8 57.3 C 5 57.3 4.6 57.8 4.6 58.3 C 4.6 58.9 5 59.2 6 59.5 C 7.2 60 7.9 60.6 7.9 61.7 C 7.9 63 6.9 63.9 5.2 63.9 C 4.4 63.9 3.6 63.7 3.1 63.4 C 3.1 63.4 3.4 62.4 3.4 62.4 Z M 9.6 53.1 L 11 53.1 L 11 63.7 L 9.6 63.7 L 9.6 53.1 Z M 18.4 62 C 18.4 62.6 18.4 63.3 18.5 63.7 C 18.46 63.75 17.3 63.7 17.3 63.7 L 17.2 62.8 C 17.2 62.8 17.13 62.84 17.1 62.8 C 16.7 63.4 15.9 63.9 14.9 63.9 C 13.4 63.9 12.7 62.9 12.7 61.8 C 12.7 60.1 14.2 59.1 17.1 59.1 C 17.1 59.1 17.1 59 17.1 59 C 17.1 58.4 16.9 57.3 15.4 57.3 C 14.7 57.3 14 57.5 13.5 57.9 C 13.5 57.9 13.2 57 13.2 57 C 13.8 56.6 14.7 56.3 15.6 56.3 C 17.8 56.3 18.4 57.9 18.4 59.3 C 18.4 59.3 18.4 62 18.4 62 Z M 17.1 60 C 15.6 60 14 60.3 14 61.7 C 14 62.6 14.6 62.9 15.2 62.9 C 16.2 62.9 16.8 62.3 17 61.7 C 17.1 61.6 17.1 61.4 17.1 61.3 C 17.1 61.3 17.1 60 17.1 60 Z M 20.6 58.5 C 20.6 57.7 20.5 57.1 20.5 56.5 C 20.5 56.49 21.7 56.5 21.7 56.5 L 21.7 57.7 C 21.7 57.7 21.78 57.69 21.8 57.7 C 22.1 57 23 56.3 24.2 56.3 C 25.2 56.3 26.7 56.9 26.7 59.4 C 26.74 59.43 26.7 63.7 26.7 63.7 L 25.4 63.7 C 25.4 63.7 25.42 59.56 25.4 59.6 C 25.4 58.4 25 57.4 23.7 57.4 C 22.9 57.4 22.2 58 22 58.8 C 21.9 58.9 21.9 59.2 21.9 59.4 C 21.88 59.38 21.9 63.7 21.9 63.7 L 20.6 63.7 C 20.6 63.7 20.56 58.46 20.6 58.5 Z M 35.2 53.1 C 35.2 53.1 35.22 61.87 35.2 61.9 C 35.2 62.5 35.2 63.3 35.3 63.7 C 35.28 63.75 34.1 63.7 34.1 63.7 L 34 62.5 C 34 62.5 34 62.49 34 62.5 C 33.6 63.3 32.7 63.9 31.6 63.9 C 29.8 63.9 28.4 62.4 28.4 60.2 C 28.4 57.8 29.9 56.3 31.7 56.3 C 32.8 56.3 33.6 56.9 33.9 57.4 C 33.88 57.43 33.9 57.4 33.9 57.4 L 33.9 53.1 L 35.2 53.1 Z M 33.9 59.4 C 33.9 59.3 33.9 59.1 33.9 58.9 C 33.7 58.1 32.9 57.4 31.9 57.4 C 30.6 57.4 29.8 58.6 29.8 60.2 C 29.8 61.6 30.5 62.9 31.9 62.9 C 32.8 62.9 33.6 62.3 33.9 61.3 C 33.9 61.1 33.9 60.9 33.9 60.7 C 33.9 60.7 33.9 59.4 33.9 59.4 Z M 46 59 L 42.1 59 L 42.1 62.7 L 46.5 62.7 L 46.5 63.7 L 40.8 63.7 L 40.8 53.6 L 46.3 53.6 L 46.3 54.7 L 42.1 54.7 L 42.1 57.9 L 46 57.9 L 46 59 Z M 48.8 56.5 C 48.8 56.5 49.86 58.05 49.9 58.1 C 50.1 58.5 50.4 58.8 50.6 59.2 C 50.6 59.2 50.6 59.2 50.6 59.2 C 50.9 58.8 51.1 58.4 51.4 58 C 51.37 58.04 52.4 56.5 52.4 56.5 L 53.8 56.5 L 51.3 60 L 53.9 63.7 L 52.4 63.7 C 52.4 63.7 51.31 62.11 51.3 62.1 C 51 61.7 50.8 61.3 50.5 60.9 C 50.5 60.9 50.5 60.9 50.5 60.9 C 50.3 61.3 50 61.7 49.7 62.1 C 49.74 62.11 48.7 63.7 48.7 63.7 L 47.2 63.7 L 49.8 60 L 47.4 56.5 L 48.8 56.5 Z M 55.2 58.9 C 55.2 57.9 55.2 57.2 55.2 56.5 C 55.17 56.49 56.3 56.5 56.3 56.5 L 56.4 57.7 C 56.4 57.7 56.44 57.73 56.4 57.7 C 57 56.9 57.8 56.3 59 56.3 C 60.8 56.3 62.1 57.8 62.1 60 C 62.1 62.6 60.5 63.9 58.8 63.9 C 57.8 63.9 57 63.5 56.6 62.8 C 56.56 62.78 56.5 62.8 56.5 62.8 L 56.5 66.7 L 55.2 66.7 C 55.2 66.7 55.23 58.86 55.2 58.9 Z M 56.5 60.8 C 56.5 61 56.5 61.2 56.6 61.3 C 56.8 62.3 57.6 62.9 58.6 62.9 C 60 62.9 60.8 61.7 60.8 60.1 C 60.8 58.6 60 57.4 58.6 57.4 C 57.7 57.4 56.9 58 56.6 59 C 56.6 59.2 56.5 59.4 56.5 59.5 C 56.5 59.5 56.5 60.8 56.5 60.8 Z M 63.8 53.1 L 65.2 53.1 L 65.2 63.7 L 63.8 63.7 L 63.8 53.1 Z M 74 60.1 C 74 62.7 72.1 63.9 70.4 63.9 C 68.5 63.9 66.9 62.5 66.9 60.2 C 66.9 57.8 68.5 56.3 70.5 56.3 C 72.6 56.3 74 57.9 74 60.1 Z M 68.3 60.1 C 68.3 61.7 69.2 62.9 70.5 62.9 C 71.7 62.9 72.7 61.7 72.7 60.1 C 72.7 58.9 72.1 57.3 70.5 57.3 C 69 57.3 68.3 58.8 68.3 60.1 Z M 75.8 58.8 C 75.8 57.9 75.7 57.2 75.7 56.5 C 75.7 56.49 76.9 56.5 76.9 56.5 L 76.9 57.9 C 76.9 57.9 76.96 57.93 77 57.9 C 77.3 57 78.1 56.3 79 56.3 C 79.1 56.3 79.2 56.4 79.3 56.4 C 79.3 56.4 79.3 57.6 79.3 57.6 C 79.2 57.6 79.1 57.6 78.9 57.6 C 78 57.6 77.3 58.3 77.1 59.3 C 77.1 59.4 77.1 59.7 77.1 59.9 C 77.08 59.88 77.1 63.7 77.1 63.7 L 75.8 63.7 C 75.8 63.7 75.76 58.76 75.8 58.8 Z M 81.3 60.4 C 81.4 62.1 82.5 62.9 83.8 62.9 C 84.8 62.9 85.3 62.7 85.8 62.5 C 85.8 62.5 86.1 63.4 86.1 63.4 C 85.6 63.7 84.8 63.9 83.6 63.9 C 81.4 63.9 80.1 62.4 80.1 60.2 C 80.1 58 81.4 56.3 83.5 56.3 C 85.9 56.3 86.5 58.4 86.5 59.7 C 86.5 60 86.5 60.2 86.4 60.4 C 86.4 60.4 81.3 60.4 81.3 60.4 Z M 85.2 59.4 C 85.2 58.6 84.9 57.3 83.4 57.3 C 82 57.3 81.4 58.5 81.3 59.4 C 81.3 59.4 85.2 59.4 85.2 59.4 Z M 88.2 58.8 C 88.2 57.9 88.2 57.2 88.1 56.5 C 88.12 56.49 89.3 56.5 89.3 56.5 L 89.3 57.9 C 89.3 57.9 89.38 57.93 89.4 57.9 C 89.7 57 90.5 56.3 91.4 56.3 C 91.5 56.3 91.6 56.4 91.8 56.4 C 91.8 56.4 91.8 57.6 91.8 57.6 C 91.6 57.6 91.5 57.6 91.3 57.6 C 90.4 57.6 89.7 58.3 89.5 59.3 C 89.5 59.4 89.5 59.7 89.5 59.9 C 89.5 59.88 89.5 63.7 89.5 63.7 L 88.2 63.7 C 88.2 63.7 88.18 58.76 88.2 58.8 Z " stroke="none" fill="#4f5cd5"/>  </g></svg>