<?xml version="1.0" standalone="no"?><!DOCTYPE svg PUBLIC "-//W3C//DTD SVG 1.1//EN" "http://www.w3.org/Graphics/SVG/1.1/DTD/svg11.dtd"><svg xmlns="http://www.w3.org/2000/svg" version="1.1" width="69px" height="28.8px" viewBox="0 0 69 28.8">  <desc>Tap to plan your visit</desc>  <defs/>  <g id="Polygon1066">    <path d="M 14.8 13.9 C 14.8 13.9 15.99 17.07 16 17.1 C 16.1 17.4 16.3 17.8 16.3 18.2 C 16.3 18.2 16.4 18.2 16.4 18.2 C 16.5 17.8 16.6 17.4 16.7 17.1 C 16.7 17.05 17.8 13.9 17.8 13.9 L 18.8 13.9 C 18.8 13.9 17.33 17.72 17.3 17.7 C 16.6 19.5 16.2 20.5 15.5 21.1 C 15 21.5 14.6 21.6 14.3 21.7 C 14.3 21.7 14.1 20.9 14.1 20.9 C 14.3 20.8 14.6 20.6 14.9 20.4 C 15.2 20.2 15.5 19.8 15.7 19.3 C 15.8 19.2 15.8 19.1 15.8 19.1 C 15.8 19 15.8 19 15.7 18.8 C 15.74 18.83 13.8 13.9 13.8 13.9 L 14.8 13.9 Z M 24.4 16.5 C 24.4 18.5 23 19.4 21.7 19.4 C 20.3 19.4 19.2 18.3 19.2 16.6 C 19.2 14.9 20.3 13.8 21.8 13.8 C 23.3 13.8 24.4 14.9 24.4 16.5 Z M 20.2 16.6 C 20.2 17.8 20.8 18.6 21.8 18.6 C 22.7 18.6 23.4 17.8 23.4 16.6 C 23.4 15.7 22.9 14.5 21.8 14.5 C 20.7 14.5 20.2 15.6 20.2 16.6 Z M 30 17.8 C 30 18.3 30.1 18.8 30.1 19.2 C 30.09 19.25 29.2 19.2 29.2 19.2 L 29.2 18.4 C 29.2 18.4 29.16 18.38 29.2 18.4 C 28.9 18.8 28.3 19.4 27.4 19.4 C 26.6 19.4 25.6 18.9 25.6 17 C 25.56 17.04 25.6 13.9 25.6 13.9 L 26.5 13.9 C 26.5 13.9 26.53 16.86 26.5 16.9 C 26.5 17.9 26.8 18.6 27.7 18.6 C 28.4 18.6 28.8 18.1 29 17.7 C 29 17.5 29.1 17.4 29.1 17.2 C 29.08 17.18 29.1 13.9 29.1 13.9 L 30 13.9 C 30 13.9 30.05 17.79 30 17.8 Z M 31.7 15.6 C 31.7 15 31.6 14.4 31.6 13.9 C 31.61 13.93 32.5 13.9 32.5 13.9 L 32.5 15 C 32.5 15 32.53 14.98 32.5 15 C 32.8 14.3 33.4 13.8 34 13.8 C 34.1 13.8 34.2 13.8 34.3 13.8 C 34.3 13.8 34.3 14.8 34.3 14.8 C 34.2 14.7 34.1 14.7 34 14.7 C 33.3 14.7 32.8 15.2 32.7 16 C 32.6 16.1 32.6 16.3 32.6 16.4 C 32.62 16.41 32.6 19.2 32.6 19.2 L 31.7 19.2 C 31.7 19.2 31.65 15.59 31.7 15.6 Z M 38 13.9 C 38 13.9 39 16.91 39 16.9 C 39.2 17.4 39.3 17.8 39.4 18.3 C 39.4 18.3 39.5 18.3 39.5 18.3 C 39.6 17.8 39.7 17.4 39.9 16.9 C 39.91 16.91 40.9 13.9 40.9 13.9 L 42 13.9 L 39.9 19.2 L 38.9 19.2 L 36.9 13.9 L 38 13.9 Z M 42.9 19.2 L 42.9 13.9 L 43.8 13.9 L 43.8 19.2 L 42.9 19.2 Z M 44 12.4 C 44 12.8 43.7 13 43.3 13 C 43 13 42.8 12.8 42.8 12.4 C 42.8 12.1 43 11.8 43.4 11.8 C 43.7 11.8 44 12.1 44 12.4 Z M 45.3 18.3 C 45.6 18.4 46.1 18.6 46.6 18.6 C 47.3 18.6 47.6 18.3 47.6 17.9 C 47.6 17.4 47.4 17.1 46.6 16.9 C 45.7 16.5 45.2 16 45.2 15.4 C 45.2 14.5 45.9 13.8 47.1 13.8 C 47.6 13.8 48.1 14 48.4 14.1 C 48.4 14.1 48.1 14.8 48.1 14.8 C 47.9 14.7 47.5 14.5 47 14.5 C 46.5 14.5 46.2 14.9 46.2 15.3 C 46.2 15.7 46.5 15.9 47.2 16.2 C 48.1 16.5 48.6 17 48.6 17.8 C 48.6 18.7 47.8 19.4 46.6 19.4 C 46 19.4 45.5 19.2 45.1 19 C 45.1 19 45.3 18.3 45.3 18.3 Z M 49.8 19.2 L 49.8 13.9 L 50.8 13.9 L 50.8 19.2 L 49.8 19.2 Z M 50.9 12.4 C 50.9 12.8 50.6 13 50.3 13 C 49.9 13 49.7 12.8 49.7 12.4 C 49.7 12.1 49.9 11.8 50.3 11.8 C 50.6 11.8 50.9 12.1 50.9 12.4 Z M 53.5 12.7 L 53.5 13.9 L 54.9 13.9 L 54.9 14.7 L 53.5 14.7 C 53.5 14.7 53.54 17.53 53.5 17.5 C 53.5 18.2 53.7 18.6 54.3 18.6 C 54.5 18.6 54.7 18.5 54.8 18.5 C 54.8 18.5 54.9 19.2 54.9 19.2 C 54.7 19.3 54.4 19.4 54 19.4 C 53.6 19.4 53.2 19.2 53 19 C 52.7 18.7 52.6 18.2 52.6 17.6 C 52.6 17.57 52.6 14.7 52.6 14.7 L 51.8 14.7 L 51.8 13.9 L 52.6 13.9 L 52.6 12.9 L 53.5 12.7 Z " stroke="none" fill="#fff"/>  </g>  <g id="Polygon1065">    <path d="M 11.3 1.6 L 9 1.6 L 9 0.8 L 14.5 0.8 L 14.5 1.6 L 12.2 1.6 L 12.2 8.2 L 11.3 8.2 L 11.3 1.6 Z M 18.3 7 C 18.3 7.4 18.3 7.9 18.4 8.2 C 18.4 8.25 17.5 8.2 17.5 8.2 L 17.5 7.6 C 17.5 7.6 17.42 7.58 17.4 7.6 C 17.1 8 16.6 8.4 15.8 8.4 C 14.7 8.4 14.2 7.6 14.2 6.8 C 14.2 5.6 15.3 4.9 17.4 4.9 C 17.4 4.9 17.4 4.8 17.4 4.8 C 17.4 4.3 17.2 3.5 16.2 3.5 C 15.6 3.5 15.1 3.7 14.8 3.9 C 14.8 3.9 14.5 3.3 14.5 3.3 C 15 3 15.6 2.8 16.3 2.8 C 17.9 2.8 18.3 3.9 18.3 5 C 18.3 5 18.3 7 18.3 7 Z M 17.4 5.5 C 16.3 5.5 15.1 5.7 15.1 6.7 C 15.1 7.4 15.5 7.7 16 7.7 C 16.7 7.7 17.2 7.2 17.3 6.8 C 17.4 6.7 17.4 6.5 17.4 6.5 C 17.4 6.5 17.4 5.5 17.4 5.5 Z M 19.9 4.7 C 19.9 4 19.9 3.4 19.8 2.9 C 19.84 2.93 20.7 2.9 20.7 2.9 L 20.8 3.8 C 20.8 3.8 20.77 3.84 20.8 3.8 C 21.2 3.2 21.8 2.8 22.7 2.8 C 24 2.8 24.9 3.9 24.9 5.5 C 24.9 7.4 23.8 8.4 22.5 8.4 C 21.8 8.4 21.2 8.1 20.9 7.5 C 20.86 7.54 20.8 7.5 20.8 7.5 L 20.8 10.4 L 19.9 10.4 C 19.9 10.4 19.88 4.66 19.9 4.7 Z M 20.8 6.1 C 20.8 6.2 20.9 6.4 20.9 6.5 C 21.1 7.2 21.6 7.6 22.3 7.6 C 23.4 7.6 24 6.8 24 5.6 C 24 4.5 23.4 3.6 22.4 3.6 C 21.7 3.6 21.1 4 20.9 4.8 C 20.9 4.9 20.8 5 20.8 5.2 C 20.8 5.2 20.8 6.1 20.8 6.1 Z M 29.6 1.7 L 29.6 2.9 L 31 2.9 L 31 3.7 L 29.6 3.7 C 29.6 3.7 29.64 6.53 29.6 6.5 C 29.6 7.2 29.8 7.6 30.4 7.6 C 30.6 7.6 30.8 7.5 30.9 7.5 C 30.9 7.5 31 8.2 31 8.2 C 30.8 8.3 30.5 8.4 30.1 8.4 C 29.7 8.4 29.3 8.2 29.1 8 C 28.8 7.7 28.7 7.2 28.7 6.6 C 28.7 6.57 28.7 3.7 28.7 3.7 L 27.9 3.7 L 27.9 2.9 L 28.7 2.9 L 28.7 1.9 L 29.6 1.7 Z M 36.9 5.5 C 36.9 7.5 35.5 8.4 34.2 8.4 C 32.8 8.4 31.7 7.3 31.7 5.6 C 31.7 3.9 32.8 2.8 34.3 2.8 C 35.8 2.8 36.9 3.9 36.9 5.5 Z M 32.7 5.6 C 32.7 6.8 33.3 7.6 34.3 7.6 C 35.2 7.6 35.9 6.8 35.9 5.6 C 35.9 4.7 35.4 3.5 34.3 3.5 C 33.1 3.5 32.7 4.6 32.7 5.6 Z M 40.4 4.7 C 40.4 4 40.4 3.4 40.4 2.9 C 40.38 2.93 41.2 2.9 41.2 2.9 L 41.3 3.8 C 41.3 3.8 41.31 3.84 41.3 3.8 C 41.7 3.2 42.3 2.8 43.2 2.8 C 44.5 2.8 45.5 3.9 45.5 5.5 C 45.5 7.4 44.3 8.4 43 8.4 C 42.3 8.4 41.7 8.1 41.4 7.5 C 41.4 7.54 41.4 7.5 41.4 7.5 L 41.4 10.4 L 40.4 10.4 C 40.4 10.4 40.42 4.66 40.4 4.7 Z M 41.4 6.1 C 41.4 6.2 41.4 6.4 41.4 6.5 C 41.6 7.2 42.2 7.6 42.9 7.6 C 43.9 7.6 44.5 6.8 44.5 5.6 C 44.5 4.5 43.9 3.6 42.9 3.6 C 42.2 3.6 41.6 4 41.4 4.8 C 41.4 4.9 41.4 5 41.4 5.2 C 41.4 5.2 41.4 6.1 41.4 6.1 Z M 46.7 0.4 L 47.6 0.4 L 47.6 8.2 L 46.7 8.2 L 46.7 0.4 Z M 53 7 C 53 7.4 53 7.9 53.1 8.2 C 53.09 8.25 52.2 8.2 52.2 8.2 L 52.1 7.6 C 52.1 7.6 52.11 7.58 52.1 7.6 C 51.8 8 51.2 8.4 50.5 8.4 C 49.4 8.4 48.9 7.6 48.9 6.8 C 48.9 5.6 50 4.9 52.1 4.9 C 52.1 4.9 52.1 4.8 52.1 4.8 C 52.1 4.3 51.9 3.5 50.8 3.5 C 50.3 3.5 49.8 3.7 49.5 3.9 C 49.5 3.9 49.2 3.3 49.2 3.3 C 49.7 3 50.3 2.8 51 2.8 C 52.6 2.8 53 3.9 53 5 C 53 5 53 7 53 7 Z M 52.1 5.5 C 51 5.5 49.8 5.7 49.8 6.7 C 49.8 7.4 50.2 7.7 50.7 7.7 C 51.4 7.7 51.9 7.2 52 6.8 C 52.1 6.7 52.1 6.5 52.1 6.5 C 52.1 6.5 52.1 5.5 52.1 5.5 Z M 54.6 4.4 C 54.6 3.8 54.6 3.4 54.5 2.9 C 54.53 2.93 55.4 2.9 55.4 2.9 L 55.4 3.8 C 55.4 3.8 55.47 3.81 55.5 3.8 C 55.7 3.3 56.3 2.8 57.2 2.8 C 58 2.8 59.1 3.3 59.1 5.1 C 59.11 5.08 59.1 8.2 59.1 8.2 L 58.1 8.2 C 58.1 8.2 58.14 5.18 58.1 5.2 C 58.1 4.3 57.8 3.6 56.9 3.6 C 56.3 3.6 55.8 4.1 55.6 4.6 C 55.6 4.7 55.5 4.9 55.5 5 C 55.54 5.05 55.5 8.2 55.5 8.2 L 54.6 8.2 C 54.6 8.2 54.58 4.37 54.6 4.4 Z " stroke="none" fill="#fff"/>  </g></svg>