<?xml version="1.0" standalone="no"?><!DOCTYPE svg PUBLIC "-//W3C//DTD SVG 1.1//EN" "http://www.w3.org/Graphics/SVG/1.1/DTD/svg11.dtd"><svg xmlns="http://www.w3.org/2000/svg" version="1.1" width="72.3px" height="21.3px" viewBox="0 0 72.3 21.3"><desc>Video 00:24</desc><defs/><g id="Polygon5173"><path d="m3 10l-3-9l1.3 0c0 0 1.41 4.44 1.4 4.4c.4 1.3.7 2.3 1 3.4c0 0 0 0 0 0c.2-1 .6-2.2 1-3.4c.02.05 1.5-4.4 1.5-4.4l1.3 0l-3.2 9l-1.3 0zm5.2 0l0-6.5l1.2 0l0 6.5l-1.2 0zm1.3-8.3c0 .4-.3.8-.7.8c-.5 0-.8-.4-.8-.8c0-.4.3-.7.8-.7c.4 0 .7.3.7.7zm7.4-1.2c0 0-.03 7.83 0 7.8c0 .6 0 1.3 0 1.7c.02-.01-1 0-1 0l-.1-1.1c0 0-.01-.02 0 0c-.4.7-1.1 1.2-2.2 1.2c-1.5 0-2.8-1.3-2.8-3.2c0-2.2 1.4-3.5 2.9-3.5c1 0 1.7.5 2 1c-.02-.02 0 0 0 0l0-3.9l1.2 0zm-1.2 5.7c0-.2 0-.4 0-.5c-.2-.8-.9-1.4-1.7-1.4c-1.2 0-2 1.1-2 2.5c0 1.3.7 2.4 1.9 2.4c.8 0 1.5-.5 1.8-1.4c0-.2 0-.3 0-.5c0 0 0-1.1 0-1.1zm3.8.8c0 1.6 1 2.2 2.2 2.2c.8 0 1.4-.1 1.8-.3c0 0 .2.8.2.8c-.4.2-1.1.4-2.2.4c-2 0-3.1-1.3-3.1-3.2c0-2 1.1-3.5 3-3.5c2.1 0 2.7 1.9 2.7 3c0 .3-.1.4-.1.6c0 0-4.5 0-4.5 0zm3.4-.9c0-.7-.3-1.9-1.6-1.9c-1.2 0-1.7 1.1-1.8 1.9c0 0 3.4 0 3.4 0zm8.4.6c0 2.4-1.6 3.4-3.2 3.4c-1.7 0-3.1-1.2-3.1-3.3c0-2.1 1.5-3.4 3.2-3.4c1.9 0 3.1 1.4 3.1 3.3zm-5.1.1c0 1.4.8 2.5 2 2.5c1.1 0 1.9-1.1 1.9-2.5c0-1.1-.5-2.5-1.9-2.5c-1.4 0-2 1.3-2 2.5zm9.6 4.7l0-10.6l2.4 0l0 .7l-1.5 0l0 9.2l1.5 0l0 .7l-2.4 0zm9-5.9c0 2.9-1.1 4.5-3 4.5c-1.7 0-2.8-1.5-2.9-4.4c0-2.9 1.3-4.5 3.1-4.5c1.8 0 2.8 1.6 2.8 4.4zm-4.7.1c0 2.3.7 3.5 1.8 3.5c1.2 0 1.7-1.4 1.7-3.6c0-2.1-.5-3.5-1.7-3.5c-1 0-1.8 1.2-1.8 3.6zm11.6-.1c0 2.9-1.1 4.5-3.1 4.5c-1.6 0-2.8-1.5-2.8-4.4c0-2.9 1.2-4.5 3-4.5c1.8 0 2.9 1.6 2.9 4.4zm-4.7.1c0 2.3.6 3.5 1.7 3.5c1.2 0 1.8-1.4 1.8-3.6c0-2.1-.6-3.5-1.8-3.5c-1 0-1.7 1.2-1.7 3.6zm5.8-1.1c0-.5.4-.8.8-.8c.5 0 .8.3.8.8c0 .5-.3.8-.8.8c-.4 0-.8-.3-.8-.8zm0 4.7c0-.5.4-.8.8-.8c.5 0 .8.3.8.8c0 .5-.3.8-.8.8c-.4 0-.8-.3-.8-.8zm2.7.7l0-.7c0 0 .9-.92.9-.9c2.2-2.1 3.2-3.2 3.2-4.5c0-.9-.4-1.7-1.7-1.7c-.8 0-1.4.4-1.8.7c0 0-.4-.8-.4-.8c.6-.5 1.5-.9 2.5-.9c1.8 0 2.6 1.3 2.6 2.5c0 1.6-1.2 2.9-3 4.7c.02-.04-.7.6-.7.6l0 0l3.9 0l0 1l-5.5 0zm10.4 0l0-2.4l-4 0l0-.7l3.9-5.6l1.2 0l0 5.4l1.3 0l0 .9l-1.3 0l0 2.4l-1.1 0zm0-3.3c0 0 .05-2.88 0-2.9c0-.4.1-.9.1-1.3c0 0-.1 0-.1 0c-.2.5-.4.8-.7 1.2c.03.04-2.1 3-2.1 3l0 0l2.8 0zm5.4-5.8l0 10.6l-2.5 0l0-.7l1.5 0l0-9.2l-1.5 0l0-.7l2.5 0z" stroke="none" fill="#000"/></g></svg>