<?xml version="1.0" standalone="no"?><!DOCTYPE svg PUBLIC "-//W3C//DTD SVG 1.1//EN" "http://www.w3.org/Graphics/SVG/1.1/DTD/svg11.dtd"><svg xmlns="http://www.w3.org/2000/svg" version="1.1" width="327px" height="641px" viewBox="0 0 327 641">  <desc>About Channel Islands National Park Channel Islands National Park encompasses five remarkable islands and their ocean</desc>  <defs/>  <g id="Polygon1232">    <path d="M 16.7 589.3 C 15.8 589.8 13.8 590.4 11.2 590.4 C 5.3 590.4 1.5 586.5 1.5 580.6 C 1.5 574.6 5.6 570.2 11.9 570.2 C 14 570.2 15.8 570.8 16.8 571.3 C 16.8 571.3 16 574 16 574 C 15.2 573.5 13.8 573 11.9 573 C 7.5 573 5.1 576.4 5.1 580.4 C 5.1 584.8 8 587.6 11.8 587.6 C 13.8 587.6 15.1 587.1 16.1 586.7 C 16.1 586.7 16.7 589.3 16.7 589.3 Z M 36.6 584.7 C 36.6 586.7 36.7 588.5 36.8 590 C 36.8 590 33.7 590 33.7 590 L 33.5 586.8 C 33.5 586.8 33.4 586.84 33.4 586.8 C 32.5 588.4 30.4 590.4 27 590.4 C 24 590.4 20.3 588.7 20.3 582 C 20.32 581.96 20.3 570.6 20.3 570.6 L 23.8 570.6 C 23.8 570.6 23.84 581.32 23.8 581.3 C 23.8 585 25 587.5 28.2 587.5 C 30.5 587.5 32.2 585.9 32.8 584.3 C 33 583.8 33.1 583.2 33.1 582.5 C 33.12 582.48 33.1 570.6 33.1 570.6 L 36.6 570.6 C 36.6 570.6 36.64 584.68 36.6 584.7 Z M 42.1 561.6 L 45.6 561.6 L 45.6 590 L 42.1 590 L 42.1 561.6 Z M 55.4 566 L 55.4 570.6 L 60.4 570.6 L 60.4 573.3 L 55.4 573.3 C 55.4 573.3 55.36 583.76 55.4 583.8 C 55.4 586.2 56 587.5 58 587.5 C 59 587.5 59.5 587.4 60 587.3 C 60 587.3 60.2 590 60.2 590 C 59.5 590.2 58.4 590.4 57.1 590.4 C 55.4 590.4 54.1 589.9 53.3 589 C 52.3 587.9 51.9 586.2 51.9 583.9 C 51.92 583.88 51.9 573.3 51.9 573.3 L 48.9 573.3 L 48.9 570.6 L 51.9 570.6 L 51.9 567 L 55.4 566 Z M 80.2 584.7 C 80.2 586.7 80.2 588.5 80.3 590 C 80.32 590 77.2 590 77.2 590 L 77 586.8 C 77 586.8 76.92 586.84 76.9 586.8 C 76 588.4 74 590.4 70.5 590.4 C 67.5 590.4 63.8 588.7 63.8 582 C 63.84 581.96 63.8 570.6 63.8 570.6 L 67.4 570.6 C 67.4 570.6 67.36 581.32 67.4 581.3 C 67.4 585 68.5 587.5 71.7 587.5 C 74 587.5 75.7 585.9 76.3 584.3 C 76.5 583.8 76.6 583.2 76.6 582.5 C 76.64 582.48 76.6 570.6 76.6 570.6 L 80.2 570.6 C 80.2 570.6 80.16 584.68 80.2 584.7 Z M 85.6 576.7 C 85.6 574.4 85.6 572.4 85.4 570.6 C 85.44 570.64 88.5 570.6 88.5 570.6 L 88.7 574.5 C 88.7 574.5 88.8 574.48 88.8 574.5 C 89.7 571.9 91.8 570.2 94.2 570.2 C 94.6 570.2 94.8 570.3 95.2 570.3 C 95.2 570.3 95.2 573.6 95.2 573.6 C 94.8 573.6 94.4 573.6 94 573.6 C 91.5 573.6 89.7 575.4 89.2 578 C 89.2 578.5 89.1 579.1 89.1 579.7 C 89.12 579.68 89.1 590 89.1 590 L 85.6 590 C 85.6 590 85.6 576.68 85.6 576.7 Z M 111.7 585.4 C 111.7 587 111.8 588.7 112 590 C 111.96 590 108.8 590 108.8 590 L 108.5 587.6 C 108.5 587.6 108.4 587.56 108.4 587.6 C 107.3 589.1 105.2 590.4 102.5 590.4 C 98.6 590.4 96.6 587.7 96.6 584.9 C 96.6 580.2 100.7 577.6 108.2 577.7 C 108.2 577.7 108.2 577.3 108.2 577.3 C 108.2 575.7 107.8 572.8 103.8 572.8 C 102 572.8 100.1 573.4 98.7 574.3 C 98.7 574.3 97.9 571.9 97.9 571.9 C 99.5 570.9 101.9 570.2 104.3 570.2 C 110.2 570.2 111.7 574.3 111.7 578.1 C 111.7 578.1 111.7 585.4 111.7 585.4 Z M 108.3 580.1 C 104.4 580 100.1 580.7 100.1 584.5 C 100.1 586.8 101.6 587.8 103.4 587.8 C 105.9 587.8 107.6 586.2 108.1 584.6 C 108.2 584.2 108.3 583.8 108.3 583.5 C 108.3 583.5 108.3 580.1 108.3 580.1 Z M 117 561.6 L 120.5 561.6 L 120.5 590 L 117 590 L 117 561.6 Z M 134.1 576.7 C 134.1 574.4 134 572.4 133.9 570.6 C 133.92 570.64 137 570.6 137 570.6 L 137.2 574.5 C 137.2 574.5 137.28 574.48 137.3 574.5 C 138.2 571.9 140.3 570.2 142.7 570.2 C 143 570.2 143.3 570.3 143.6 570.3 C 143.6 570.3 143.6 573.6 143.6 573.6 C 143.3 573.6 142.9 573.6 142.4 573.6 C 140 573.6 138.2 575.4 137.7 578 C 137.6 578.5 137.6 579.1 137.6 579.7 C 137.6 579.68 137.6 590 137.6 590 L 134.1 590 C 134.1 590 134.08 576.68 134.1 576.7 Z M 148.3 581 C 148.4 585.7 151.4 587.7 155 587.7 C 157.5 587.7 159 587.2 160.3 586.7 C 160.3 586.7 161 589.2 161 589.2 C 159.7 589.8 157.6 590.4 154.5 590.4 C 148.5 590.4 145 586.5 145 580.6 C 145 574.8 148.4 570.2 154 570.2 C 160.4 570.2 162 575.8 162 579.3 C 162 580 162 580.6 161.9 581 C 161.9 581 148.3 581 148.3 581 Z M 158.6 578.4 C 158.7 576.2 157.7 572.8 153.8 572.8 C 150.2 572.8 148.6 576 148.4 578.4 C 148.4 578.4 158.6 578.4 158.6 578.4 Z M 165.5 586.4 C 166.6 587.1 168.4 587.8 170.2 587.8 C 172.7 587.8 173.9 586.6 173.9 584.9 C 173.9 583.2 172.9 582.4 170.4 581.4 C 166.8 580.1 165.2 578.2 165.2 575.9 C 165.2 572.8 167.8 570.2 171.9 570.2 C 173.8 570.2 175.6 570.8 176.6 571.4 C 176.6 571.4 175.8 574 175.8 574 C 175 573.5 173.6 572.8 171.8 572.8 C 169.7 572.8 168.6 574 168.6 575.5 C 168.6 577.1 169.7 577.8 172.2 578.8 C 175.6 580 177.3 581.7 177.3 584.6 C 177.3 588 174.6 590.4 170.1 590.4 C 168 590.4 166 589.9 164.7 589.1 C 164.7 589.1 165.5 586.4 165.5 586.4 Z M 199 580.2 C 199 587.3 194 590.4 189.3 590.4 C 184.1 590.4 180 586.6 180 580.5 C 180 574 184.3 570.2 189.6 570.2 C 195.2 570.2 199 574.3 199 580.2 Z M 183.6 580.4 C 183.6 584.6 186 587.8 189.5 587.8 C 192.8 587.8 195.4 584.6 195.4 580.3 C 195.4 577 193.7 572.9 189.6 572.9 C 185.4 572.9 183.6 576.7 183.6 580.4 Z M 219.2 584.7 C 219.2 586.7 219.2 588.5 219.4 590 C 219.36 590 216.2 590 216.2 590 L 216 586.8 C 216 586.8 215.96 586.84 216 586.8 C 215.1 588.4 213 590.4 209.6 590.4 C 206.5 590.4 202.9 588.7 202.9 582 C 202.88 581.96 202.9 570.6 202.9 570.6 L 206.4 570.6 C 206.4 570.6 206.4 581.32 206.4 581.3 C 206.4 585 207.6 587.5 210.7 587.5 C 213.1 587.5 214.7 585.9 215.4 584.3 C 215.6 583.8 215.7 583.2 215.7 582.5 C 215.68 582.48 215.7 570.6 215.7 570.6 L 219.2 570.6 C 219.2 570.6 219.2 584.68 219.2 584.7 Z M 224.6 576.7 C 224.6 574.4 224.6 572.4 224.5 570.6 C 224.48 570.64 227.6 570.6 227.6 570.6 L 227.7 574.5 C 227.7 574.5 227.84 574.48 227.8 574.5 C 228.7 571.9 230.9 570.2 233.2 570.2 C 233.6 570.2 233.9 570.3 234.2 570.3 C 234.2 570.3 234.2 573.6 234.2 573.6 C 233.8 573.6 233.5 573.6 233 573.6 C 230.5 573.6 228.8 575.4 228.3 578 C 228.2 578.5 228.2 579.1 228.2 579.7 C 228.16 579.68 228.2 590 228.2 590 L 224.6 590 C 224.6 590 224.64 576.68 224.6 576.7 Z M 250.7 589.3 C 249.8 589.8 247.8 590.4 245.2 590.4 C 239.3 590.4 235.5 586.5 235.5 580.6 C 235.5 574.6 239.6 570.2 245.9 570.2 C 248 570.2 249.8 570.8 250.8 571.3 C 250.8 571.3 250 574 250 574 C 249.2 573.5 247.8 573 245.9 573 C 241.5 573 239.1 576.4 239.1 580.4 C 239.1 584.8 242 587.6 245.8 587.6 C 247.8 587.6 249.1 587.1 250.1 586.7 C 250.1 586.7 250.7 589.3 250.7 589.3 Z M 256.2 581 C 256.2 585.7 259.2 587.7 262.8 587.7 C 265.3 587.7 266.9 587.2 268.2 586.7 C 268.2 586.7 268.8 589.2 268.8 589.2 C 267.6 589.8 265.4 590.4 262.3 590.4 C 256.4 590.4 252.8 586.5 252.8 580.6 C 252.8 574.8 256.2 570.2 261.9 570.2 C 268.2 570.2 269.9 575.8 269.9 579.3 C 269.9 580 269.8 580.6 269.8 581 C 269.8 581 256.2 581 256.2 581 Z M 266.5 578.4 C 266.5 576.2 265.6 572.8 261.6 572.8 C 258 572.8 256.5 576 256.2 578.4 C 256.2 578.4 266.5 578.4 266.5 578.4 Z M 273.4 586.4 C 274.4 587.1 276.3 587.8 278 587.8 C 280.6 587.8 281.8 586.6 281.8 584.9 C 281.8 583.2 280.8 582.4 278.2 581.4 C 274.7 580.1 273 578.2 273 575.9 C 273 572.8 275.6 570.2 279.7 570.2 C 281.7 570.2 283.4 570.8 284.4 571.4 C 284.4 571.4 283.6 574 283.6 574 C 282.8 573.5 281.4 572.8 279.6 572.8 C 277.6 572.8 276.4 574 276.4 575.5 C 276.4 577.1 277.6 577.8 280.1 578.8 C 283.4 580 285.2 581.7 285.2 584.6 C 285.2 588 282.5 590.4 278 590.4 C 275.8 590.4 273.9 589.9 272.5 589.1 C 272.5 589.1 273.4 586.4 273.4 586.4 Z M 288 587.9 C 288 586.5 289 585.4 290.4 585.4 C 291.8 585.4 292.8 586.4 292.8 587.9 C 292.8 589.4 291.8 590.4 290.3 590.4 C 289 590.4 288 589.4 288 587.9 Z " stroke="none" fill="#000"/>  </g>  <g id="Polygon1231">    <path d="M 20.4 535.2 C 20.4 542.3 15.4 545.4 10.8 545.4 C 5.6 545.4 1.5 541.6 1.5 535.5 C 1.5 529 5.8 525.2 11.1 525.2 C 16.7 525.2 20.4 529.3 20.4 535.2 Z M 5.1 535.4 C 5.1 539.6 7.5 542.8 11 542.8 C 14.3 542.8 16.8 539.6 16.8 535.3 C 16.8 532 15.2 527.9 11 527.9 C 6.9 527.9 5.1 531.7 5.1 535.4 Z M 24.8 545 L 24.8 528.3 L 22.2 528.3 L 22.2 525.6 L 24.8 525.6 C 24.8 525.6 24.84 524.72 24.8 524.7 C 24.8 522 25.5 519.5 27.1 518 C 28.4 516.7 30.2 516.2 31.8 516.2 C 33.1 516.2 34.1 516.4 34.8 516.7 C 34.8 516.7 34.3 519.4 34.3 519.4 C 33.8 519.2 33.1 519 32.1 519 C 29.1 519 28.3 521.6 28.3 524.6 C 28.32 524.6 28.3 525.6 28.3 525.6 L 33 525.6 L 33 528.3 L 28.3 528.3 L 28.3 545 L 24.8 545 Z M 43.8 530.9 C 43.8 528.8 43.8 527.2 43.7 525.6 C 43.68 525.64 46.8 525.6 46.8 525.6 L 47 528.8 C 47 528.8 47.08 528.84 47.1 528.8 C 48 527 50.3 525.2 53.5 525.2 C 56.2 525.2 60.3 526.8 60.3 533.5 C 60.32 533.48 60.3 545 60.3 545 L 56.8 545 C 56.8 545 56.8 533.84 56.8 533.8 C 56.8 530.7 55.6 528.1 52.3 528.1 C 50 528.1 48.2 529.8 47.6 531.7 C 47.4 532.2 47.4 532.8 47.4 533.4 C 47.36 533.36 47.4 545 47.4 545 L 43.8 545 C 43.8 545 43.84 530.88 43.8 530.9 Z M 79.2 540.4 C 79.2 542 79.3 543.7 79.5 545 C 79.52 545 76.4 545 76.4 545 L 76.1 542.6 C 76.1 542.6 75.96 542.56 76 542.6 C 74.9 544.1 72.8 545.4 70 545.4 C 66.1 545.4 64.1 542.7 64.1 539.9 C 64.1 535.2 68.3 532.6 75.8 532.7 C 75.8 532.7 75.8 532.3 75.8 532.3 C 75.8 530.7 75.3 527.8 71.4 527.8 C 69.5 527.8 67.6 528.4 66.3 529.3 C 66.3 529.3 65.5 526.9 65.5 526.9 C 67.1 525.9 69.4 525.2 71.9 525.2 C 77.8 525.2 79.2 529.3 79.2 533.1 C 79.2 533.1 79.2 540.4 79.2 540.4 Z M 75.8 535.1 C 72 535 67.6 535.7 67.6 539.5 C 67.6 541.8 69.2 542.8 70.9 542.8 C 73.5 542.8 75.1 541.2 75.7 539.6 C 75.8 539.2 75.8 538.8 75.8 538.5 C 75.8 538.5 75.8 535.1 75.8 535.1 Z M 88.6 521 L 88.6 525.6 L 93.6 525.6 L 93.6 528.3 L 88.6 528.3 C 88.6 528.3 88.6 538.76 88.6 538.8 C 88.6 541.2 89.3 542.5 91.2 542.5 C 92.2 542.5 92.8 542.4 93.3 542.3 C 93.3 542.3 93.4 545 93.4 545 C 92.8 545.2 91.7 545.4 90.3 545.4 C 88.7 545.4 87.4 544.9 86.5 544 C 85.6 542.9 85.2 541.2 85.2 538.9 C 85.16 538.88 85.2 528.3 85.2 528.3 L 82.2 528.3 L 82.2 525.6 L 85.2 525.6 L 85.2 522 L 88.6 521 Z M 113.4 539.7 C 113.4 541.7 113.4 543.5 113.6 545 C 113.56 545 110.4 545 110.4 545 L 110.2 541.8 C 110.2 541.8 110.16 541.84 110.2 541.8 C 109.3 543.4 107.2 545.4 103.8 545.4 C 100.7 545.4 97.1 543.7 97.1 537 C 97.08 536.96 97.1 525.6 97.1 525.6 L 100.6 525.6 C 100.6 525.6 100.6 536.32 100.6 536.3 C 100.6 540 101.8 542.5 104.9 542.5 C 107.3 542.5 108.9 540.9 109.6 539.3 C 109.8 538.8 109.9 538.2 109.9 537.5 C 109.88 537.48 109.9 525.6 109.9 525.6 L 113.4 525.6 C 113.4 525.6 113.4 539.68 113.4 539.7 Z M 118.8 531.7 C 118.8 529.4 118.8 527.4 118.7 525.6 C 118.68 525.64 121.8 525.6 121.8 525.6 L 121.9 529.5 C 121.9 529.5 122.04 529.48 122 529.5 C 122.9 526.9 125.1 525.2 127.4 525.2 C 127.8 525.2 128.1 525.3 128.4 525.3 C 128.4 525.3 128.4 528.6 128.4 528.6 C 128 528.6 127.7 528.6 127.2 528.6 C 124.7 528.6 123 530.4 122.5 533 C 122.4 533.5 122.4 534.1 122.4 534.7 C 122.36 534.68 122.4 545 122.4 545 L 118.8 545 C 118.8 545 118.84 531.68 118.8 531.7 Z M 144.9 540.4 C 144.9 542 145 543.7 145.2 545 C 145.2 545 142 545 142 545 L 141.8 542.6 C 141.8 542.6 141.64 542.56 141.6 542.6 C 140.6 544.1 138.5 545.4 135.7 545.4 C 131.8 545.4 129.8 542.7 129.8 539.9 C 129.8 535.2 134 532.6 141.4 532.7 C 141.4 532.7 141.4 532.3 141.4 532.3 C 141.4 530.7 141 527.8 137 527.8 C 135.2 527.8 133.3 528.4 132 529.3 C 132 529.3 131.2 526.9 131.2 526.9 C 132.8 525.9 135.1 525.2 137.6 525.2 C 143.5 525.2 144.9 529.3 144.9 533.1 C 144.9 533.1 144.9 540.4 144.9 540.4 Z M 141.5 535.1 C 137.7 535 133.3 535.7 133.3 539.5 C 133.3 541.8 134.8 542.8 136.6 542.8 C 139.2 542.8 140.8 541.2 141.4 539.6 C 141.5 539.2 141.5 538.8 141.5 538.5 C 141.5 538.5 141.5 535.1 141.5 535.1 Z M 150.2 516.6 L 153.7 516.6 L 153.7 545 L 150.2 545 L 150.2 516.6 Z M 180.9 540.4 C 180.9 542 181 543.7 181.2 545 C 181.2 545 178 545 178 545 L 177.8 542.6 C 177.8 542.6 177.64 542.56 177.6 542.6 C 176.6 544.1 174.5 545.4 171.7 545.4 C 167.8 545.4 165.8 542.7 165.8 539.9 C 165.8 535.2 170 532.6 177.4 532.7 C 177.4 532.7 177.4 532.3 177.4 532.3 C 177.4 530.7 177 527.8 173 527.8 C 171.2 527.8 169.3 528.4 168 529.3 C 168 529.3 167.2 526.9 167.2 526.9 C 168.8 525.9 171.1 525.2 173.6 525.2 C 179.5 525.2 180.9 529.3 180.9 533.1 C 180.9 533.1 180.9 540.4 180.9 540.4 Z M 177.5 535.1 C 173.7 535 169.3 535.7 169.3 539.5 C 169.3 541.8 170.8 542.8 172.6 542.8 C 175.2 542.8 176.8 541.2 177.4 539.6 C 177.5 539.2 177.5 538.8 177.5 538.5 C 177.5 538.5 177.5 535.1 177.5 535.1 Z M 186.2 530.9 C 186.2 528.8 186.2 527.2 186 525.6 C 186.04 525.64 189.2 525.6 189.2 525.6 L 189.4 528.8 C 189.4 528.8 189.44 528.84 189.4 528.8 C 190.4 527 192.6 525.2 195.8 525.2 C 198.5 525.2 202.7 526.8 202.7 533.5 C 202.68 533.48 202.7 545 202.7 545 L 199.2 545 C 199.2 545 199.16 533.84 199.2 533.8 C 199.2 530.7 198 528.1 194.7 528.1 C 192.4 528.1 190.6 529.8 190 531.7 C 189.8 532.2 189.7 532.8 189.7 533.4 C 189.72 533.36 189.7 545 189.7 545 L 186.2 545 C 186.2 545 186.2 530.88 186.2 530.9 Z M 224.7 516.6 C 224.7 516.6 224.68 540 224.7 540 C 224.7 541.7 224.8 543.7 224.8 545 C 224.84 545 221.7 545 221.7 545 L 221.6 541.6 C 221.6 541.6 221.44 541.64 221.4 541.6 C 220.4 543.8 218.1 545.4 214.9 545.4 C 210.2 545.4 206.6 541.5 206.6 535.6 C 206.6 529.2 210.6 525.2 215.3 525.2 C 218.3 525.2 220.2 526.6 221.1 528.2 C 221.12 528.16 221.2 528.2 221.2 528.2 L 221.2 516.6 L 224.7 516.6 Z M 221.2 533.5 C 221.2 533.1 221.2 532.5 221 532 C 220.5 529.8 218.6 528 216 528 C 212.3 528 210.2 531.2 210.2 535.4 C 210.2 539.4 212.1 542.6 215.9 542.6 C 218.2 542.6 220.4 541 221 538.4 C 221.2 537.9 221.2 537.4 221.2 536.9 C 221.2 536.9 221.2 533.5 221.2 533.5 Z " stroke="none" fill="#000"/>  </g>  <g id="Polygon1230">    <path d="M 2.9 487 C 2.9 484.5 2.8 482.5 2.8 480.6 C 2.76 480.64 5.9 480.6 5.9 480.6 L 6.1 484 C 6.1 484 6.16 483.96 6.2 484 C 7.6 481.6 9.9 480.2 13 480.2 C 17.8 480.2 21.3 484.2 21.3 490 C 21.3 497 17 500.4 12.4 500.4 C 9.9 500.4 7.6 499.3 6.5 497.4 C 6.48 497.4 6.4 497.4 6.4 497.4 L 6.4 507.9 L 2.9 507.9 C 2.9 507.9 2.92 486.96 2.9 487 Z M 6.4 492.1 C 6.4 492.6 6.4 493.1 6.6 493.6 C 7.2 496 9.3 497.7 11.8 497.7 C 15.6 497.7 17.7 494.6 17.7 490.2 C 17.7 486.4 15.7 483 12 483 C 9.6 483 7.3 484.7 6.6 487.4 C 6.5 487.8 6.4 488.3 6.4 488.8 C 6.4 488.8 6.4 492.1 6.4 492.1 Z M 25.3 486.7 C 25.3 484.4 25.2 482.4 25.1 480.6 C 25.12 480.64 28.2 480.6 28.2 480.6 L 28.4 484.5 C 28.4 484.5 28.48 484.48 28.5 484.5 C 29.4 481.9 31.5 480.2 33.9 480.2 C 34.2 480.2 34.5 480.3 34.8 480.3 C 34.8 480.3 34.8 483.6 34.8 483.6 C 34.5 483.6 34.1 483.6 33.6 483.6 C 31.2 483.6 29.4 485.4 28.9 488 C 28.8 488.5 28.8 489.1 28.8 489.7 C 28.8 489.68 28.8 500 28.8 500 L 25.3 500 C 25.3 500 25.28 486.68 25.3 486.7 Z M 55.1 490.2 C 55.1 497.3 50.1 500.4 45.4 500.4 C 40.2 500.4 36.2 496.6 36.2 490.5 C 36.2 484 40.4 480.2 45.8 480.2 C 51.3 480.2 55.1 484.3 55.1 490.2 Z M 39.8 490.4 C 39.8 494.6 42.2 497.8 45.6 497.8 C 49 497.8 51.5 494.6 51.5 490.3 C 51.5 487 49.8 482.9 45.7 482.9 C 41.6 482.9 39.8 486.7 39.8 490.4 Z M 63.4 476 L 63.4 480.6 L 68.4 480.6 L 68.4 483.3 L 63.4 483.3 C 63.4 483.3 63.36 493.76 63.4 493.8 C 63.4 496.2 64 497.5 66 497.5 C 67 497.5 67.5 497.4 68 497.3 C 68 497.3 68.2 500 68.2 500 C 67.5 500.2 66.4 500.4 65.1 500.4 C 63.4 500.4 62.1 499.9 61.3 499 C 60.3 497.9 59.9 496.2 59.9 493.9 C 59.92 493.88 59.9 483.3 59.9 483.3 L 56.9 483.3 L 56.9 480.6 L 59.9 480.6 L 59.9 477 L 63.4 476 Z M 73.7 491 C 73.8 495.7 76.8 497.7 80.3 497.7 C 82.8 497.7 84.4 497.2 85.7 496.7 C 85.7 496.7 86.3 499.2 86.3 499.2 C 85.1 499.8 82.9 500.4 79.8 500.4 C 73.9 500.4 70.3 496.5 70.3 490.6 C 70.3 484.8 73.8 480.2 79.4 480.2 C 85.8 480.2 87.4 485.8 87.4 489.3 C 87.4 490 87.4 490.6 87.3 491 C 87.3 491 73.7 491 73.7 491 Z M 84 488.4 C 84 486.2 83.1 482.8 79.1 482.8 C 75.5 482.8 74 486 73.7 488.4 C 73.7 488.4 84 488.4 84 488.4 Z M 105.2 499.3 C 104.2 499.8 102.2 500.4 99.6 500.4 C 93.8 500.4 90 496.5 90 490.6 C 90 484.6 94 480.2 100.4 480.2 C 102.4 480.2 104.3 480.8 105.2 481.3 C 105.2 481.3 104.4 484 104.4 484 C 103.6 483.5 102.3 483 100.4 483 C 95.9 483 93.5 486.4 93.5 490.4 C 93.5 494.8 96.4 497.6 100.2 497.6 C 102.2 497.6 103.6 497.1 104.6 496.7 C 104.6 496.7 105.2 499.3 105.2 499.3 Z M 113.6 476 L 113.6 480.6 L 118.7 480.6 L 118.7 483.3 L 113.6 483.3 C 113.6 483.3 113.64 493.76 113.6 493.8 C 113.6 496.2 114.3 497.5 116.3 497.5 C 117.2 497.5 117.8 497.4 118.3 497.3 C 118.3 497.3 118.5 500 118.5 500 C 117.8 500.2 116.7 500.4 115.4 500.4 C 113.7 500.4 112.4 499.9 111.6 499 C 110.6 497.9 110.2 496.2 110.2 493.9 C 110.2 493.88 110.2 483.3 110.2 483.3 L 107.2 483.3 L 107.2 480.6 L 110.2 480.6 L 110.2 477 L 113.6 476 Z M 122.2 500 L 122.2 480.6 L 125.8 480.6 L 125.8 500 L 122.2 500 Z M 126.2 475.2 C 126.2 476.4 125.3 477.4 123.9 477.4 C 122.6 477.4 121.8 476.4 121.8 475.2 C 121.8 474 122.7 473 124 473 C 125.3 473 126.2 474 126.2 475.2 Z M 131.2 485.9 C 131.2 483.8 131.2 482.2 131 480.6 C 131.04 480.64 134.2 480.6 134.2 480.6 L 134.4 483.8 C 134.4 483.8 134.44 483.84 134.4 483.8 C 135.4 482 137.6 480.2 140.8 480.2 C 143.5 480.2 147.7 481.8 147.7 488.5 C 147.68 488.48 147.7 500 147.7 500 L 144.2 500 C 144.2 500 144.16 488.84 144.2 488.8 C 144.2 485.7 143 483.1 139.7 483.1 C 137.4 483.1 135.6 484.8 135 486.7 C 134.8 487.2 134.7 487.8 134.7 488.4 C 134.72 488.36 134.7 500 134.7 500 L 131.2 500 C 131.2 500 131.2 485.88 131.2 485.9 Z M 169.6 497.2 C 169.6 501.6 168.6 504.3 166.8 506 C 164.9 507.8 162.2 508.4 159.7 508.4 C 157.4 508.4 154.8 507.8 153.3 506.8 C 153.3 506.8 154.2 504 154.2 504 C 155.4 504.9 157.4 505.6 159.8 505.6 C 163.4 505.6 166.1 503.7 166.1 498.8 C 166.08 498.8 166.1 496.7 166.1 496.7 C 166.1 496.7 166 496.68 166 496.7 C 165 498.5 162.8 499.9 159.8 499.9 C 155 499.9 151.6 495.8 151.6 490.5 C 151.6 483.9 155.9 480.2 160.4 480.2 C 163.7 480.2 165.5 482 166.4 483.6 C 166.4 483.56 166.5 483.6 166.5 483.6 L 166.6 480.6 C 166.6 480.6 169.72 480.64 169.7 480.6 C 169.6 482 169.6 483.6 169.6 485.9 C 169.6 485.9 169.6 497.2 169.6 497.2 Z M 166 488.3 C 166 487.7 166 487.2 165.8 486.7 C 165.2 484.6 163.5 483 160.9 483 C 157.6 483 155.2 485.8 155.2 490.3 C 155.2 494.1 157.1 497.2 160.9 497.2 C 163.1 497.2 165 495.9 165.8 493.6 C 166 493 166 492.4 166 491.8 C 166 491.8 166 488.3 166 488.3 Z M 196.6 495.4 C 196.6 497 196.7 498.7 196.9 500 C 196.92 500 193.8 500 193.8 500 L 193.5 497.6 C 193.5 497.6 193.36 497.56 193.4 497.6 C 192.3 499.1 190.2 500.4 187.4 500.4 C 183.5 500.4 181.5 497.7 181.5 494.9 C 181.5 490.2 185.7 487.6 193.2 487.7 C 193.2 487.7 193.2 487.3 193.2 487.3 C 193.2 485.7 192.7 482.8 188.8 482.8 C 186.9 482.8 185 483.4 183.7 484.3 C 183.7 484.3 182.9 481.9 182.9 481.9 C 184.5 480.9 186.8 480.2 189.3 480.2 C 195.2 480.2 196.6 484.3 196.6 488.1 C 196.6 488.1 196.6 495.4 196.6 495.4 Z M 193.2 490.1 C 189.4 490 185 490.7 185 494.5 C 185 496.8 186.6 497.8 188.3 497.8 C 190.9 497.8 192.5 496.2 193.1 494.6 C 193.2 494.2 193.2 493.8 193.2 493.5 C 193.2 493.5 193.2 490.1 193.2 490.1 Z M 211.4 480.6 C 211.4 480.6 214 490.48 214 490.5 C 214.5 492.6 215 494.6 215.4 496.6 C 215.4 496.6 215.5 496.6 215.5 496.6 C 216 494.7 216.6 492.6 217.2 490.5 C 217.24 490.52 220.4 480.6 220.4 480.6 L 223.4 480.6 C 223.4 480.6 226.36 490.32 226.4 490.3 C 227.1 492.6 227.6 494.7 228.1 496.6 C 228.1 496.6 228.2 496.6 228.2 496.6 C 228.5 494.7 229 492.6 229.7 490.4 C 229.68 490.36 232.4 480.6 232.4 480.6 L 235.9 480.6 L 229.7 500 L 226.5 500 C 226.5 500 223.52 490.76 223.5 490.8 C 222.8 488.6 222.3 486.7 221.8 484.4 C 221.8 484.4 221.7 484.4 221.7 484.4 C 221.2 486.7 220.6 488.7 220 490.8 C 219.96 490.8 216.8 500 216.8 500 L 213.6 500 L 207.8 480.6 L 211.4 480.6 Z M 240.6 491 C 240.7 495.7 243.7 497.7 247.2 497.7 C 249.8 497.7 251.3 497.2 252.6 496.7 C 252.6 496.7 253.2 499.2 253.2 499.2 C 252 499.8 249.8 500.4 246.8 500.4 C 240.8 500.4 237.2 496.5 237.2 490.6 C 237.2 484.8 240.7 480.2 246.3 480.2 C 252.7 480.2 254.3 485.8 254.3 489.3 C 254.3 490 254.3 490.6 254.2 491 C 254.2 491 240.6 491 240.6 491 Z M 250.9 488.4 C 251 486.2 250 482.8 246 482.8 C 242.4 482.8 240.9 486 240.6 488.4 C 240.6 488.4 250.9 488.4 250.9 488.4 Z M 271.9 495.4 C 271.9 497 272 498.7 272.2 500 C 272.16 500 269 500 269 500 L 268.7 497.6 C 268.7 497.6 268.6 497.56 268.6 497.6 C 267.5 499.1 265.4 500.4 262.7 500.4 C 258.8 500.4 256.8 497.7 256.8 494.9 C 256.8 490.2 260.9 487.6 268.4 487.7 C 268.4 487.7 268.4 487.3 268.4 487.3 C 268.4 485.7 268 482.8 264 482.8 C 262.2 482.8 260.3 483.4 258.9 484.3 C 258.9 484.3 258.1 481.9 258.1 481.9 C 259.7 480.9 262.1 480.2 264.5 480.2 C 270.4 480.2 271.9 484.3 271.9 488.1 C 271.9 488.1 271.9 495.4 271.9 495.4 Z M 268.5 490.1 C 264.6 490 260.3 490.7 260.3 494.5 C 260.3 496.8 261.8 497.8 263.6 497.8 C 266.1 497.8 267.8 496.2 268.3 494.6 C 268.4 494.2 268.5 493.8 268.5 493.5 C 268.5 493.5 268.5 490.1 268.5 490.1 Z M 277.2 471.6 L 280.7 471.6 L 280.7 500 L 277.2 500 L 277.2 471.6 Z M 290.4 476 L 290.4 480.6 L 295.5 480.6 L 295.5 483.3 L 290.4 483.3 C 290.4 483.3 290.44 493.76 290.4 493.8 C 290.4 496.2 291.1 497.5 293.1 497.5 C 294 497.5 294.6 497.4 295.1 497.3 C 295.1 497.3 295.3 500 295.3 500 C 294.6 500.2 293.5 500.4 292.2 500.4 C 290.5 500.4 289.2 499.9 288.4 499 C 287.4 497.9 287 496.2 287 493.9 C 287 493.88 287 483.3 287 483.3 L 284 483.3 L 284 480.6 L 287 480.6 L 287 477 L 290.4 476 Z M 299 471.6 L 302.6 471.6 L 302.6 483.7 C 302.6 483.7 302.63 483.72 302.6 483.7 C 303.2 482.7 304.1 481.8 305.2 481.2 C 306.2 480.6 307.4 480.2 308.8 480.2 C 311.4 480.2 315.5 481.8 315.5 488.5 C 315.51 488.48 315.5 500 315.5 500 L 312 500 C 312 500 311.99 488.88 312 488.9 C 312 485.8 310.8 483.2 307.5 483.2 C 305.2 483.2 303.5 484.8 302.8 486.6 C 302.6 487.2 302.6 487.7 302.6 488.3 C 302.55 488.32 302.6 500 302.6 500 L 299 500 L 299 471.6 Z " stroke="none" fill="#000"/>  </g>  <g id="Polygon1229">    <path d="M 2.9 442 C 2.9 439.5 2.8 437.5 2.8 435.6 C 2.76 435.64 5.9 435.6 5.9 435.6 L 6.1 439 C 6.1 439 6.16 438.96 6.2 439 C 7.6 436.6 9.9 435.2 13 435.2 C 17.8 435.2 21.3 439.2 21.3 445 C 21.3 452 17 455.4 12.4 455.4 C 9.9 455.4 7.6 454.3 6.5 452.4 C 6.48 452.4 6.4 452.4 6.4 452.4 L 6.4 462.9 L 2.9 462.9 C 2.9 462.9 2.92 441.96 2.9 442 Z M 6.4 447.1 C 6.4 447.6 6.4 448.1 6.6 448.6 C 7.2 451 9.3 452.7 11.8 452.7 C 15.6 452.7 17.7 449.6 17.7 445.2 C 17.7 441.4 15.7 438 12 438 C 9.6 438 7.3 439.7 6.6 442.4 C 6.5 442.8 6.4 443.3 6.4 443.8 C 6.4 443.8 6.4 447.1 6.4 447.1 Z M 25.3 441.7 C 25.3 439.4 25.2 437.4 25.1 435.6 C 25.12 435.64 28.2 435.6 28.2 435.6 L 28.4 439.5 C 28.4 439.5 28.48 439.48 28.5 439.5 C 29.4 436.9 31.5 435.2 33.9 435.2 C 34.2 435.2 34.5 435.3 34.8 435.3 C 34.8 435.3 34.8 438.6 34.8 438.6 C 34.5 438.6 34.1 438.6 33.6 438.6 C 31.2 438.6 29.4 440.4 28.9 443 C 28.8 443.5 28.8 444.1 28.8 444.7 C 28.8 444.68 28.8 455 28.8 455 L 25.3 455 C 25.3 455 25.28 441.68 25.3 441.7 Z M 39.5 446 C 39.6 450.7 42.6 452.7 46.2 452.7 C 48.7 452.7 50.2 452.2 51.5 451.7 C 51.5 451.7 52.2 454.2 52.2 454.2 C 50.9 454.8 48.8 455.4 45.7 455.4 C 39.7 455.4 36.2 451.5 36.2 445.6 C 36.2 439.8 39.6 435.2 45.2 435.2 C 51.6 435.2 53.2 440.8 53.2 444.3 C 53.2 445 53.2 445.6 53.1 446 C 53.1 446 39.5 446 39.5 446 Z M 49.8 443.4 C 49.9 441.2 48.9 437.8 45 437.8 C 41.4 437.8 39.8 441 39.6 443.4 C 39.6 443.4 49.8 443.4 49.8 443.4 Z M 56.7 451.4 C 57.8 452.1 59.6 452.8 61.4 452.8 C 63.9 452.8 65.1 451.6 65.1 449.9 C 65.1 448.2 64.1 447.4 61.6 446.4 C 58 445.1 56.4 443.2 56.4 440.9 C 56.4 437.8 59 435.2 63.1 435.2 C 65 435.2 66.8 435.8 67.8 436.4 C 67.8 436.4 67 439 67 439 C 66.2 438.5 64.8 437.8 63 437.8 C 60.9 437.8 59.8 439 59.8 440.5 C 59.8 442.1 60.9 442.8 63.4 443.8 C 66.8 445 68.5 446.7 68.5 449.6 C 68.5 453 65.8 455.4 61.3 455.4 C 59.2 455.4 57.2 454.9 55.9 454.1 C 55.9 454.1 56.7 451.4 56.7 451.4 Z M 74.6 446 C 74.7 450.7 77.7 452.7 81.2 452.7 C 83.8 452.7 85.3 452.2 86.6 451.7 C 86.6 451.7 87.2 454.2 87.2 454.2 C 86 454.8 83.8 455.4 80.8 455.4 C 74.8 455.4 71.2 451.5 71.2 445.6 C 71.2 439.8 74.7 435.2 80.3 435.2 C 86.7 435.2 88.3 440.8 88.3 444.3 C 88.3 445 88.3 445.6 88.2 446 C 88.2 446 74.6 446 74.6 446 Z M 84.9 443.4 C 85 441.2 84 437.8 80 437.8 C 76.4 437.8 74.9 441 74.6 443.4 C 74.6 443.4 84.9 443.4 84.9 443.4 Z M 92.3 441.7 C 92.3 439.4 92.2 437.4 92.1 435.6 C 92.12 435.64 95.2 435.6 95.2 435.6 L 95.4 439.5 C 95.4 439.5 95.48 439.48 95.5 439.5 C 96.4 436.9 98.5 435.2 100.9 435.2 C 101.2 435.2 101.5 435.3 101.8 435.3 C 101.8 435.3 101.8 438.6 101.8 438.6 C 101.5 438.6 101.1 438.6 100.6 438.6 C 98.2 438.6 96.4 440.4 95.9 443 C 95.8 443.5 95.8 444.1 95.8 444.7 C 95.8 444.68 95.8 455 95.8 455 L 92.3 455 C 92.3 455 92.28 441.68 92.3 441.7 Z M 107.3 435.6 C 107.3 435.6 111.12 446.48 111.1 446.5 C 111.8 448.3 112.3 449.9 112.7 451.5 C 112.7 451.5 112.8 451.5 112.8 451.5 C 113.2 449.9 113.8 448.3 114.4 446.5 C 114.44 446.48 118.2 435.6 118.2 435.6 L 121.9 435.6 L 114.3 455 L 110.9 455 L 103.6 435.6 L 107.3 435.6 Z M 124.8 455 L 124.8 435.6 L 128.3 435.6 L 128.3 455 L 124.8 455 Z M 128.7 430.2 C 128.7 431.4 127.9 432.4 126.5 432.4 C 125.2 432.4 124.4 431.4 124.4 430.2 C 124.4 429 125.2 428 126.6 428 C 127.8 428 128.7 429 128.7 430.2 Z M 133.8 440.9 C 133.8 438.8 133.7 437.2 133.6 435.6 C 133.6 435.64 136.7 435.6 136.7 435.6 L 136.9 438.8 C 136.9 438.8 137 438.84 137 438.8 C 138 437 140.2 435.2 143.4 435.2 C 146.1 435.2 150.2 436.8 150.2 443.5 C 150.24 443.48 150.2 455 150.2 455 L 146.7 455 C 146.7 455 146.72 443.84 146.7 443.8 C 146.7 440.7 145.6 438.1 142.2 438.1 C 140 438.1 138.2 439.8 137.5 441.7 C 137.4 442.2 137.3 442.8 137.3 443.4 C 137.28 443.36 137.3 455 137.3 455 L 133.8 455 C 133.8 455 133.76 440.88 133.8 440.9 Z M 172.1 452.2 C 172.1 456.6 171.2 459.3 169.4 461 C 167.4 462.8 164.7 463.4 162.3 463.4 C 160 463.4 157.4 462.8 155.8 461.8 C 155.8 461.8 156.7 459 156.7 459 C 158 459.9 160 460.6 162.4 460.6 C 166 460.6 168.6 458.7 168.6 453.8 C 168.64 453.8 168.6 451.7 168.6 451.7 C 168.6 451.7 168.56 451.68 168.6 451.7 C 167.5 453.5 165.4 454.9 162.4 454.9 C 157.6 454.9 154.2 450.8 154.2 445.5 C 154.2 438.9 158.4 435.2 162.9 435.2 C 166.3 435.2 168.1 437 169 438.6 C 168.96 438.56 169 438.6 169 438.6 L 169.2 435.6 C 169.2 435.6 172.28 435.64 172.3 435.6 C 172.2 437 172.1 438.6 172.1 440.9 C 172.1 440.9 172.1 452.2 172.1 452.2 Z M 168.6 443.3 C 168.6 442.7 168.6 442.2 168.4 441.7 C 167.8 439.6 166.1 438 163.5 438 C 160.1 438 157.7 440.8 157.7 445.3 C 157.7 449.1 159.7 452.2 163.4 452.2 C 165.6 452.2 167.6 450.9 168.3 448.6 C 168.5 448 168.6 447.4 168.6 446.8 C 168.6 446.8 168.6 443.3 168.6 443.3 Z M 199.2 450.4 C 199.2 452 199.3 453.7 199.5 455 C 199.48 455 196.3 455 196.3 455 L 196 452.6 C 196 452.6 195.92 452.56 195.9 452.6 C 194.8 454.1 192.8 455.4 190 455.4 C 186.1 455.4 184.1 452.7 184.1 449.9 C 184.1 445.2 188.2 442.6 195.7 442.7 C 195.7 442.7 195.7 442.3 195.7 442.3 C 195.7 440.7 195.3 437.8 191.3 437.8 C 189.5 437.8 187.6 438.4 186.2 439.3 C 186.2 439.3 185.4 436.9 185.4 436.9 C 187 435.9 189.4 435.2 191.8 435.2 C 197.8 435.2 199.2 439.3 199.2 443.1 C 199.2 443.1 199.2 450.4 199.2 450.4 Z M 195.8 445.1 C 192 445 187.6 445.7 187.6 449.5 C 187.6 451.8 189.1 452.8 190.9 452.8 C 193.4 452.8 195.1 451.2 195.6 449.6 C 195.8 449.2 195.8 448.8 195.8 448.5 C 195.8 448.5 195.8 445.1 195.8 445.1 Z M 204.5 440.9 C 204.5 438.8 204.4 437.2 204.3 435.6 C 204.32 435.64 207.4 435.6 207.4 435.6 L 207.6 438.8 C 207.6 438.8 207.72 438.84 207.7 438.8 C 208.7 437 210.9 435.2 214.1 435.2 C 216.8 435.2 221 436.8 221 443.5 C 220.96 443.48 221 455 221 455 L 217.4 455 C 217.4 455 217.44 443.84 217.4 443.8 C 217.4 440.7 216.3 438.1 213 438.1 C 210.7 438.1 208.9 439.8 208.2 441.7 C 208.1 442.2 208 442.8 208 443.4 C 208 443.36 208 455 208 455 L 204.5 455 C 204.5 455 204.48 440.88 204.5 440.9 Z M 243 426.6 C 243 426.6 242.96 450 243 450 C 243 451.7 243 453.7 243.1 455 C 243.12 455 240 455 240 455 L 239.8 451.6 C 239.8 451.6 239.72 451.64 239.7 451.6 C 238.7 453.8 236.4 455.4 233.2 455.4 C 228.5 455.4 224.9 451.5 224.9 445.6 C 224.8 439.2 228.9 435.2 233.6 435.2 C 236.6 435.2 238.5 436.6 239.4 438.2 C 239.4 438.16 239.5 438.2 239.5 438.2 L 239.5 426.6 L 243 426.6 Z M 239.5 443.5 C 239.5 443.1 239.4 442.5 239.3 442 C 238.8 439.8 236.9 438 234.2 438 C 230.6 438 228.4 441.2 228.4 445.4 C 228.4 449.4 230.4 452.6 234.2 452.6 C 236.5 452.6 238.7 451 239.3 448.4 C 239.4 447.9 239.5 447.4 239.5 446.9 C 239.5 446.9 239.5 443.5 239.5 443.5 Z " stroke="none" fill="#000"/>  </g>  <g id="Polygon1228">    <path d="M 4.9 401 C 5 405.7 8 407.7 11.5 407.7 C 14 407.7 15.6 407.2 16.9 406.7 C 16.9 406.7 17.5 409.2 17.5 409.2 C 16.3 409.8 14.1 410.4 11 410.4 C 5.1 410.4 1.5 406.5 1.5 400.6 C 1.5 394.8 5 390.2 10.6 390.2 C 17 390.2 18.6 395.8 18.6 399.3 C 18.6 400 18.6 400.6 18.5 401 C 18.5 401 4.9 401 4.9 401 Z M 15.2 398.4 C 15.2 396.2 14.3 392.8 10.3 392.8 C 6.7 392.8 5.2 396 4.9 398.4 C 4.9 398.4 15.2 398.4 15.2 398.4 Z M 22.6 395.9 C 22.6 393.8 22.5 392.2 22.4 390.6 C 22.4 390.64 25.5 390.6 25.5 390.6 L 25.7 393.8 C 25.7 393.8 25.8 393.84 25.8 393.8 C 26.8 392 29 390.2 32.2 390.2 C 34.9 390.2 39 391.8 39 398.5 C 39.04 398.48 39 410 39 410 L 35.5 410 C 35.5 410 35.52 398.84 35.5 398.8 C 35.5 395.7 34.4 393.1 31 393.1 C 28.8 393.1 27 394.8 26.3 396.7 C 26.2 397.2 26.1 397.8 26.1 398.4 C 26.08 398.36 26.1 410 26.1 410 L 22.6 410 C 22.6 410 22.56 395.88 22.6 395.9 Z M 45.2 390.6 C 45.2 390.6 49 401.48 49 401.5 C 49.6 403.3 50.2 404.9 50.6 406.5 C 50.6 406.5 50.7 406.5 50.7 406.5 C 51.1 404.9 51.7 403.3 52.3 401.5 C 52.32 401.48 56.1 390.6 56.1 390.6 L 59.8 390.6 L 52.2 410 L 48.8 410 L 41.4 390.6 L 45.2 390.6 Z M 62.7 410 L 62.7 390.6 L 66.2 390.6 L 66.2 410 L 62.7 410 Z M 66.6 385.2 C 66.6 386.4 65.8 387.4 64.4 387.4 C 63.1 387.4 62.2 386.4 62.2 385.2 C 62.2 384 63.1 383 64.4 383 C 65.7 383 66.6 384 66.6 385.2 Z M 71.6 396.7 C 71.6 394.4 71.6 392.4 71.5 390.6 C 71.48 390.64 74.6 390.6 74.6 390.6 L 74.7 394.5 C 74.7 394.5 74.84 394.48 74.8 394.5 C 75.7 391.9 77.9 390.2 80.2 390.2 C 80.6 390.2 80.9 390.3 81.2 390.3 C 81.2 390.3 81.2 393.6 81.2 393.6 C 80.8 393.6 80.5 393.6 80 393.6 C 77.5 393.6 75.8 395.4 75.3 398 C 75.2 398.5 75.2 399.1 75.2 399.7 C 75.16 399.68 75.2 410 75.2 410 L 71.6 410 C 71.6 410 71.64 396.68 71.6 396.7 Z M 101.4 400.2 C 101.4 407.3 96.4 410.4 91.8 410.4 C 86.6 410.4 82.5 406.6 82.5 400.5 C 82.5 394 86.8 390.2 92.1 390.2 C 97.7 390.2 101.4 394.3 101.4 400.2 Z M 86.1 400.4 C 86.1 404.6 88.5 407.8 92 407.8 C 95.3 407.8 97.8 404.6 97.8 400.3 C 97.8 397 96.2 392.9 92 392.9 C 87.9 392.9 86.1 396.7 86.1 400.4 Z M 105.5 395.9 C 105.5 393.8 105.4 392.2 105.3 390.6 C 105.32 390.64 108.4 390.6 108.4 390.6 L 108.6 393.8 C 108.6 393.8 108.72 393.84 108.7 393.8 C 109.7 392 111.9 390.2 115.1 390.2 C 117.8 390.2 122 391.8 122 398.5 C 121.96 398.48 122 410 122 410 L 118.4 410 C 118.4 410 118.44 398.84 118.4 398.8 C 118.4 395.7 117.3 393.1 114 393.1 C 111.7 393.1 109.9 394.8 109.2 396.7 C 109.1 397.2 109 397.8 109 398.4 C 109 398.36 109 410 109 410 L 105.5 410 C 105.5 410 105.48 395.88 105.5 395.9 Z M 127.3 395.9 C 127.3 393.8 127.2 392.2 127.1 390.6 C 127.12 390.64 130.2 390.6 130.2 390.6 L 130.4 393.8 C 130.4 393.8 130.48 393.8 130.5 393.8 C 131.6 392 133.4 390.2 136.6 390.2 C 139.2 390.2 141.2 391.8 142 394.1 C 142 394.1 142.1 394.1 142.1 394.1 C 142.7 393 143.5 392.2 144.3 391.6 C 145.5 390.7 146.7 390.2 148.6 390.2 C 151.2 390.2 155 391.9 155 398.6 C 154.96 398.64 155 410 155 410 L 151.5 410 C 151.5 410 151.52 399.08 151.5 399.1 C 151.5 395.3 150.1 393.1 147.3 393.1 C 145.3 393.1 143.8 394.6 143.1 396.3 C 143 396.8 142.8 397.4 142.8 398 C 142.84 398.04 142.8 410 142.8 410 L 139.4 410 C 139.4 410 139.4 398.4 139.4 398.4 C 139.4 395.3 138 393.1 135.4 393.1 C 133.2 393.1 131.6 394.9 131 396.6 C 130.8 397.1 130.7 397.8 130.7 398.4 C 130.72 398.36 130.7 410 130.7 410 L 127.3 410 C 127.3 410 127.28 395.88 127.3 395.9 Z M 162.2 401 C 162.3 405.7 165.3 407.7 168.8 407.7 C 171.4 407.7 172.9 407.2 174.2 406.7 C 174.2 406.7 174.8 409.2 174.8 409.2 C 173.6 409.8 171.4 410.4 168.4 410.4 C 162.4 410.4 158.8 406.5 158.8 400.6 C 158.8 394.8 162.3 390.2 167.9 390.2 C 174.3 390.2 175.9 395.8 175.9 399.3 C 175.9 400 175.9 400.6 175.8 401 C 175.8 401 162.2 401 162.2 401 Z M 172.5 398.4 C 172.6 396.2 171.6 392.8 167.6 392.8 C 164 392.8 162.5 396 162.2 398.4 C 162.2 398.4 172.5 398.4 172.5 398.4 Z M 179.9 395.9 C 179.9 393.8 179.8 392.2 179.7 390.6 C 179.72 390.64 182.8 390.6 182.8 390.6 L 183 393.8 C 183 393.8 183.12 393.84 183.1 393.8 C 184.1 392 186.3 390.2 189.5 390.2 C 192.2 390.2 196.4 391.8 196.4 398.5 C 196.36 398.48 196.4 410 196.4 410 L 192.8 410 C 192.8 410 192.84 398.84 192.8 398.8 C 192.8 395.7 191.7 393.1 188.4 393.1 C 186.1 393.1 184.3 394.8 183.6 396.7 C 183.5 397.2 183.4 397.8 183.4 398.4 C 183.4 398.36 183.4 410 183.4 410 L 179.9 410 C 179.9 410 179.88 395.88 179.9 395.9 Z M 205.8 386 L 205.8 390.6 L 210.8 390.6 L 210.8 393.3 L 205.8 393.3 C 205.8 393.3 205.76 403.76 205.8 403.8 C 205.8 406.2 206.4 407.5 208.4 407.5 C 209.4 407.5 209.9 407.4 210.4 407.3 C 210.4 407.3 210.6 410 210.6 410 C 209.9 410.2 208.8 410.4 207.5 410.4 C 205.8 410.4 204.5 409.9 203.7 409 C 202.7 407.9 202.3 406.2 202.3 403.9 C 202.32 403.88 202.3 393.3 202.3 393.3 L 199.3 393.3 L 199.3 390.6 L 202.3 390.6 L 202.3 387 L 205.8 386 Z M 212 415 C 212.8 412.6 213.9 408.3 214.4 405.4 C 214.4 405.4 218.3 405 218.3 405 C 217.3 408.4 215.6 412.8 214.4 414.7 C 214.4 414.7 212 415 212 415 Z " stroke="none" fill="#000"/>  </g>  <g id="Polygon1227">    <path d="M 16.5 360.4 C 16.5 362 16.6 363.7 16.8 365 C 16.8 365 13.6 365 13.6 365 L 13.4 362.6 C 13.4 362.6 13.24 362.56 13.2 362.6 C 12.2 364.1 10.1 365.4 7.3 365.4 C 3.4 365.4 1.4 362.7 1.4 359.9 C 1.4 355.2 5.6 352.6 13 352.7 C 13 352.7 13 352.3 13 352.3 C 13 350.7 12.6 347.8 8.6 347.8 C 6.8 347.8 4.9 348.4 3.6 349.3 C 3.6 349.3 2.8 346.9 2.8 346.9 C 4.4 345.9 6.7 345.2 9.2 345.2 C 15.1 345.2 16.5 349.3 16.5 353.1 C 16.5 353.1 16.5 360.4 16.5 360.4 Z M 13.1 355.1 C 9.3 355 4.9 355.7 4.9 359.5 C 4.9 361.8 6.4 362.8 8.2 362.8 C 10.8 362.8 12.4 361.2 13 359.6 C 13.1 359.2 13.1 358.8 13.1 358.5 C 13.1 358.5 13.1 355.1 13.1 355.1 Z M 21.8 350.9 C 21.8 348.8 21.8 347.2 21.6 345.6 C 21.64 345.64 24.8 345.6 24.8 345.6 L 25 348.8 C 25 348.8 25.04 348.84 25 348.8 C 26 347 28.2 345.2 31.4 345.2 C 34.1 345.2 38.3 346.8 38.3 353.5 C 38.28 353.48 38.3 365 38.3 365 L 34.8 365 C 34.8 365 34.76 353.84 34.8 353.8 C 34.8 350.7 33.6 348.1 30.3 348.1 C 28 348.1 26.2 349.8 25.6 351.7 C 25.4 352.2 25.3 352.8 25.3 353.4 C 25.32 353.36 25.3 365 25.3 365 L 21.8 365 C 21.8 365 21.8 350.88 21.8 350.9 Z M 60.3 336.6 C 60.3 336.6 60.28 360 60.3 360 C 60.3 361.7 60.4 363.7 60.4 365 C 60.44 365 57.3 365 57.3 365 L 57.2 361.6 C 57.2 361.6 57.04 361.64 57 361.6 C 56 363.8 53.7 365.4 50.5 365.4 C 45.8 365.4 42.2 361.5 42.2 355.6 C 42.2 349.2 46.2 345.2 50.9 345.2 C 53.9 345.2 55.8 346.6 56.7 348.2 C 56.72 348.16 56.8 348.2 56.8 348.2 L 56.8 336.6 L 60.3 336.6 Z M 56.8 353.5 C 56.8 353.1 56.8 352.5 56.6 352 C 56.1 349.8 54.2 348 51.6 348 C 47.9 348 45.8 351.2 45.8 355.4 C 45.8 359.4 47.7 362.6 51.5 362.6 C 53.8 362.6 56 361 56.6 358.4 C 56.8 357.9 56.8 357.4 56.8 356.9 C 56.8 356.9 56.8 353.5 56.8 353.5 Z M 78.1 341 L 78.1 345.6 L 83.1 345.6 L 83.1 348.3 L 78.1 348.3 C 78.1 348.3 78.08 358.76 78.1 358.8 C 78.1 361.2 78.8 362.5 80.7 362.5 C 81.7 362.5 82.2 362.4 82.8 362.3 C 82.8 362.3 82.9 365 82.9 365 C 82.2 365.2 81.2 365.4 79.8 365.4 C 78.2 365.4 76.8 364.9 76 364 C 75 362.9 74.6 361.2 74.6 358.9 C 74.64 358.88 74.6 348.3 74.6 348.3 L 71.6 348.3 L 71.6 345.6 L 74.6 345.6 L 74.6 342 L 78.1 341 Z M 86.7 336.6 L 90.2 336.6 L 90.2 348.7 C 90.2 348.7 90.28 348.72 90.3 348.7 C 90.8 347.7 91.7 346.8 92.8 346.2 C 93.8 345.6 95.1 345.2 96.4 345.2 C 99 345.2 103.2 346.8 103.2 353.5 C 103.16 353.48 103.2 365 103.2 365 L 99.6 365 C 99.6 365 99.64 353.88 99.6 353.9 C 99.6 350.8 98.5 348.2 95.2 348.2 C 92.9 348.2 91.1 349.8 90.4 351.6 C 90.2 352.2 90.2 352.7 90.2 353.3 C 90.2 353.32 90.2 365 90.2 365 L 86.7 365 L 86.7 336.6 Z M 110.4 356 C 110.5 360.7 113.5 362.7 117.1 362.7 C 119.6 362.7 121.2 362.2 122.4 361.7 C 122.4 361.7 123.1 364.2 123.1 364.2 C 121.8 364.8 119.7 365.4 116.6 365.4 C 110.6 365.4 107.1 361.5 107.1 355.6 C 107.1 349.8 110.5 345.2 116.2 345.2 C 122.5 345.2 124.2 350.8 124.2 354.3 C 124.2 355 124.1 355.6 124 356 C 124 356 110.4 356 110.4 356 Z M 120.8 353.4 C 120.8 351.2 119.8 347.8 115.9 347.8 C 112.3 347.8 110.8 351 110.5 353.4 C 110.5 353.4 120.8 353.4 120.8 353.4 Z M 128.1 365 L 128.1 345.6 L 131.6 345.6 L 131.6 365 L 128.1 365 Z M 132 340.2 C 132 341.4 131.2 342.4 129.8 342.4 C 128.5 342.4 127.7 341.4 127.7 340.2 C 127.7 339 128.6 338 129.9 338 C 131.2 338 132 339 132 340.2 Z M 137.1 351.7 C 137.1 349.4 137 347.4 136.9 345.6 C 136.92 345.64 140 345.6 140 345.6 L 140.2 349.5 C 140.2 349.5 140.28 349.48 140.3 349.5 C 141.2 346.9 143.3 345.2 145.7 345.2 C 146 345.2 146.3 345.3 146.6 345.3 C 146.6 345.3 146.6 348.6 146.6 348.6 C 146.3 348.6 145.9 348.6 145.4 348.6 C 143 348.6 141.2 350.4 140.7 353 C 140.6 353.5 140.6 354.1 140.6 354.7 C 140.6 354.68 140.6 365 140.6 365 L 137.1 365 C 137.1 365 137.08 351.68 137.1 351.7 Z M 175.4 355.2 C 175.4 362.3 170.4 365.4 165.7 365.4 C 160.5 365.4 156.4 361.6 156.4 355.5 C 156.4 349 160.7 345.2 166 345.2 C 171.6 345.2 175.4 349.3 175.4 355.2 Z M 160 355.4 C 160 359.6 162.4 362.8 165.9 362.8 C 169.2 362.8 171.8 359.6 171.8 355.3 C 171.8 352 170.1 347.9 166 347.9 C 161.8 347.9 160 351.7 160 355.4 Z M 193.2 364.3 C 192.3 364.8 190.2 365.4 187.6 365.4 C 181.8 365.4 178 361.5 178 355.6 C 178 349.6 182.1 345.2 188.4 345.2 C 190.5 345.2 192.3 345.8 193.3 346.3 C 193.3 346.3 192.5 349 192.5 349 C 191.6 348.5 190.3 348 188.4 348 C 184 348 181.6 351.4 181.6 355.4 C 181.6 359.8 184.4 362.6 188.3 362.6 C 190.3 362.6 191.6 362.1 192.6 361.7 C 192.6 361.7 193.2 364.3 193.2 364.3 Z M 198.6 356 C 198.7 360.7 201.7 362.7 205.3 362.7 C 207.8 362.7 209.4 362.2 210.6 361.7 C 210.6 361.7 211.3 364.2 211.3 364.2 C 210 364.8 207.9 365.4 204.8 365.4 C 198.8 365.4 195.3 361.5 195.3 355.6 C 195.3 349.8 198.7 345.2 204.4 345.2 C 210.7 345.2 212.4 350.8 212.4 354.3 C 212.4 355 212.3 355.6 212.2 356 C 212.2 356 198.6 356 198.6 356 Z M 209 353.4 C 209 351.2 208 347.8 204.1 347.8 C 200.5 347.8 199 351 198.7 353.4 C 198.7 353.4 209 353.4 209 353.4 Z M 229.9 360.4 C 229.9 362 230 363.7 230.2 365 C 230.2 365 227 365 227 365 L 226.8 362.6 C 226.8 362.6 226.64 362.56 226.6 362.6 C 225.6 364.1 223.5 365.4 220.7 365.4 C 216.8 365.4 214.8 362.7 214.8 359.9 C 214.8 355.2 219 352.6 226.4 352.7 C 226.4 352.7 226.4 352.3 226.4 352.3 C 226.4 350.7 226 347.8 222 347.8 C 220.2 347.8 218.3 348.4 217 349.3 C 217 349.3 216.2 346.9 216.2 346.9 C 217.8 345.9 220.1 345.2 222.6 345.2 C 228.5 345.2 229.9 349.3 229.9 353.1 C 229.9 353.1 229.9 360.4 229.9 360.4 Z M 226.5 355.1 C 222.7 355 218.3 355.7 218.3 359.5 C 218.3 361.8 219.8 362.8 221.6 362.8 C 224.2 362.8 225.8 361.2 226.4 359.6 C 226.5 359.2 226.5 358.8 226.5 358.5 C 226.5 358.5 226.5 355.1 226.5 355.1 Z M 235.2 350.9 C 235.2 348.8 235.2 347.2 235 345.6 C 235.04 345.64 238.2 345.6 238.2 345.6 L 238.4 348.8 C 238.4 348.8 238.44 348.84 238.4 348.8 C 239.4 347 241.6 345.2 244.8 345.2 C 247.5 345.2 251.7 346.8 251.7 353.5 C 251.68 353.48 251.7 365 251.7 365 L 248.2 365 C 248.2 365 248.16 353.84 248.2 353.8 C 248.2 350.7 247 348.1 243.7 348.1 C 241.4 348.1 239.6 349.8 239 351.7 C 238.8 352.2 238.7 352.8 238.7 353.4 C 238.72 353.36 238.7 365 238.7 365 L 235.2 365 C 235.2 365 235.2 350.88 235.2 350.9 Z " stroke="none" fill="#000"/>  </g>  <g id="Polygon1226">    <path d="M 2.9 306.7 C 2.9 304.4 2.9 302.4 2.8 300.6 C 2.76 300.64 5.8 300.6 5.8 300.6 L 6 304.5 C 6 304.5 6.12 304.48 6.1 304.5 C 7 301.9 9.2 300.2 11.5 300.2 C 11.9 300.2 12.2 300.3 12.5 300.3 C 12.5 300.3 12.5 303.6 12.5 303.6 C 12.1 303.6 11.8 303.6 11.3 303.6 C 8.8 303.6 7 305.4 6.6 308 C 6.5 308.5 6.4 309.1 6.4 309.7 C 6.44 309.68 6.4 320 6.4 320 L 2.9 320 C 2.9 320 2.92 306.68 2.9 306.7 Z M 17.2 311 C 17.2 315.7 20.2 317.7 23.8 317.7 C 26.3 317.7 27.9 317.2 29.2 316.7 C 29.2 316.7 29.8 319.2 29.8 319.2 C 28.6 319.8 26.4 320.4 23.3 320.4 C 17.4 320.4 13.8 316.5 13.8 310.6 C 13.8 304.8 17.2 300.2 22.9 300.2 C 29.2 300.2 30.9 305.8 30.9 309.3 C 30.9 310 30.8 310.6 30.8 311 C 30.8 311 17.2 311 17.2 311 Z M 27.5 308.4 C 27.5 306.2 26.6 302.8 22.6 302.8 C 19 302.8 17.5 306 17.2 308.4 C 17.2 308.4 27.5 308.4 27.5 308.4 Z M 34.8 305.9 C 34.8 303.8 34.8 302.2 34.7 300.6 C 34.68 300.64 37.8 300.6 37.8 300.6 L 37.9 303.8 C 37.9 303.8 38.04 303.8 38 303.8 C 39.1 302 40.9 300.2 44.2 300.2 C 46.8 300.2 48.8 301.8 49.6 304.1 C 49.6 304.1 49.7 304.1 49.7 304.1 C 50.3 303 51.1 302.2 51.9 301.6 C 53 300.7 54.3 300.2 56.1 300.2 C 58.7 300.2 62.5 301.9 62.5 308.6 C 62.52 308.64 62.5 320 62.5 320 L 59.1 320 C 59.1 320 59.08 309.08 59.1 309.1 C 59.1 305.3 57.7 303.1 54.9 303.1 C 52.8 303.1 51.3 304.6 50.7 306.3 C 50.5 306.8 50.4 307.4 50.4 308 C 50.4 308.04 50.4 320 50.4 320 L 47 320 C 47 320 46.96 308.4 47 308.4 C 47 305.3 45.6 303.1 42.9 303.1 C 40.8 303.1 39.1 304.9 38.6 306.6 C 38.4 307.1 38.3 307.8 38.3 308.4 C 38.28 308.36 38.3 320 38.3 320 L 34.8 320 C 34.8 320 34.84 305.88 34.8 305.9 Z M 81.4 315.4 C 81.4 317 81.5 318.7 81.7 320 C 81.68 320 78.5 320 78.5 320 L 78.2 317.6 C 78.2 317.6 78.12 317.56 78.1 317.6 C 77 319.1 75 320.4 72.2 320.4 C 68.3 320.4 66.3 317.7 66.3 314.9 C 66.3 310.2 70.4 307.6 77.9 307.7 C 77.9 307.7 77.9 307.3 77.9 307.3 C 77.9 305.7 77.5 302.8 73.5 302.8 C 71.7 302.8 69.8 303.4 68.4 304.3 C 68.4 304.3 67.6 301.9 67.6 301.9 C 69.2 300.9 71.6 300.2 74 300.2 C 80 300.2 81.4 304.3 81.4 308.1 C 81.4 308.1 81.4 315.4 81.4 315.4 Z M 78 310.1 C 74.2 310 69.8 310.7 69.8 314.5 C 69.8 316.8 71.3 317.8 73.1 317.8 C 75.6 317.8 77.3 316.2 77.8 314.6 C 78 314.2 78 313.8 78 313.5 C 78 313.5 78 310.1 78 310.1 Z M 86.7 306.7 C 86.7 304.4 86.6 302.4 86.5 300.6 C 86.52 300.64 89.6 300.6 89.6 300.6 L 89.8 304.5 C 89.8 304.5 89.88 304.48 89.9 304.5 C 90.8 301.9 92.9 300.2 95.3 300.2 C 95.6 300.2 95.9 300.3 96.2 300.3 C 96.2 300.3 96.2 303.6 96.2 303.6 C 95.9 303.6 95.5 303.6 95 303.6 C 92.6 303.6 90.8 305.4 90.3 308 C 90.2 308.5 90.2 309.1 90.2 309.7 C 90.2 309.68 90.2 320 90.2 320 L 86.7 320 C 86.7 320 86.68 306.68 86.7 306.7 Z M 103 309.5 C 103 309.5 103.08 309.52 103.1 309.5 C 103.6 308.8 104.2 308 104.8 307.3 C 104.76 307.32 110.5 300.6 110.5 300.6 L 114.7 300.6 L 107.2 308.6 L 115.8 320 L 111.4 320 L 104.8 310.7 L 103 312.7 L 103 320 L 99.5 320 L 99.5 291.6 L 103 291.6 L 103 309.5 Z M 132.2 315.4 C 132.2 317 132.3 318.7 132.5 320 C 132.48 320 129.3 320 129.3 320 L 129 317.6 C 129 317.6 128.92 317.56 128.9 317.6 C 127.8 319.1 125.8 320.4 123 320.4 C 119.1 320.4 117.1 317.7 117.1 314.9 C 117.1 310.2 121.2 307.6 128.7 307.7 C 128.7 307.7 128.7 307.3 128.7 307.3 C 128.7 305.7 128.3 302.8 124.3 302.8 C 122.5 302.8 120.6 303.4 119.2 304.3 C 119.2 304.3 118.4 301.9 118.4 301.9 C 120 300.9 122.4 300.2 124.8 300.2 C 130.8 300.2 132.2 304.3 132.2 308.1 C 132.2 308.1 132.2 315.4 132.2 315.4 Z M 128.8 310.1 C 125 310 120.6 310.7 120.6 314.5 C 120.6 316.8 122.1 317.8 123.9 317.8 C 126.4 317.8 128.1 316.2 128.6 314.6 C 128.8 314.2 128.8 313.8 128.8 313.5 C 128.8 313.5 128.8 310.1 128.8 310.1 Z M 137.5 291.6 L 141 291.6 L 141 303.8 C 141 303.8 141.04 303.76 141 303.8 C 142.3 301.6 144.5 300.2 147.6 300.2 C 152.5 300.2 155.8 304.2 155.8 310.1 C 155.8 317 151.4 320.4 147.1 320.4 C 144.3 320.4 142.1 319.4 140.6 316.8 C 140.6 316.84 140.5 316.8 140.5 316.8 L 140.3 320 C 140.3 320 137.32 320 137.3 320 C 137.4 318.7 137.5 316.7 137.5 315 C 137.48 315 137.5 291.6 137.5 291.6 Z M 141 312.2 C 141 312.7 141 313.1 141.1 313.5 C 141.8 316 143.8 317.6 146.4 317.6 C 150.1 317.6 152.3 314.6 152.3 310.2 C 152.3 306.3 150.3 303 146.5 303 C 144.1 303 141.9 304.7 141.2 307.3 C 141 307.8 141 308.2 141 308.8 C 141 308.8 141 312.2 141 312.2 Z M 159.8 291.6 L 163.4 291.6 L 163.4 320 L 159.8 320 L 159.8 291.6 Z M 170.8 311 C 170.9 315.7 173.9 317.7 177.5 317.7 C 180 317.7 181.6 317.2 182.8 316.7 C 182.8 316.7 183.5 319.2 183.5 319.2 C 182.2 319.8 180.1 320.4 177 320.4 C 171 320.4 167.5 316.5 167.5 310.6 C 167.5 304.8 170.9 300.2 176.6 300.2 C 182.9 300.2 184.6 305.8 184.6 309.3 C 184.6 310 184.5 310.6 184.4 311 C 184.4 311 170.8 311 170.8 311 Z M 181.2 308.4 C 181.2 306.2 180.2 302.8 176.3 302.8 C 172.7 302.8 171.2 306 170.9 308.4 C 170.9 308.4 181.2 308.4 181.2 308.4 Z M 196.6 320 L 196.6 300.6 L 200.1 300.6 L 200.1 320 L 196.6 320 Z M 200.5 295.2 C 200.5 296.4 199.7 297.4 198.3 297.4 C 197 297.4 196.2 296.4 196.2 295.2 C 196.2 294 197 293 198.4 293 C 199.6 293 200.5 294 200.5 295.2 Z M 205.1 316.4 C 206.2 317.1 208 317.8 209.8 317.8 C 212.3 317.8 213.5 316.6 213.5 314.9 C 213.5 313.2 212.5 312.4 209.9 311.4 C 206.4 310.1 204.8 308.2 204.8 305.9 C 204.8 302.8 207.3 300.2 211.4 300.2 C 213.4 300.2 215.1 300.8 216.2 301.4 C 216.2 301.4 215.3 304 215.3 304 C 214.6 303.5 213.2 302.8 211.4 302.8 C 209.3 302.8 208.2 304 208.2 305.5 C 208.2 307.1 209.3 307.8 211.8 308.8 C 215.1 310 216.9 311.7 216.9 314.6 C 216.9 318 214.2 320.4 209.7 320.4 C 207.6 320.4 205.6 319.9 204.2 319.1 C 204.2 319.1 205.1 316.4 205.1 316.4 Z M 221 291.6 L 224.5 291.6 L 224.5 320 L 221 320 L 221 291.6 Z M 243.6 315.4 C 243.6 317 243.7 318.7 243.9 320 C 243.92 320 240.8 320 240.8 320 L 240.5 317.6 C 240.5 317.6 240.36 317.56 240.4 317.6 C 239.3 319.1 237.2 320.4 234.4 320.4 C 230.5 320.4 228.5 317.7 228.5 314.9 C 228.5 310.2 232.7 307.6 240.2 307.7 C 240.2 307.7 240.2 307.3 240.2 307.3 C 240.2 305.7 239.7 302.8 235.8 302.8 C 233.9 302.8 232 303.4 230.7 304.3 C 230.7 304.3 229.9 301.9 229.9 301.9 C 231.5 300.9 233.8 300.2 236.3 300.2 C 242.2 300.2 243.6 304.3 243.6 308.1 C 243.6 308.1 243.6 315.4 243.6 315.4 Z M 240.2 310.1 C 236.4 310 232 310.7 232 314.5 C 232 316.8 233.6 317.8 235.3 317.8 C 237.9 317.8 239.5 316.2 240.1 314.6 C 240.2 314.2 240.2 313.8 240.2 313.5 C 240.2 313.5 240.2 310.1 240.2 310.1 Z M 248.9 305.9 C 248.9 303.8 248.9 302.2 248.8 300.6 C 248.76 300.64 251.9 300.6 251.9 300.6 L 252.1 303.8 C 252.1 303.8 252.16 303.84 252.2 303.8 C 253.1 302 255.4 300.2 258.6 300.2 C 261.2 300.2 265.4 301.8 265.4 308.5 C 265.4 308.48 265.4 320 265.4 320 L 261.9 320 C 261.9 320 261.88 308.84 261.9 308.8 C 261.9 305.7 260.7 303.1 257.4 303.1 C 255.1 303.1 253.3 304.8 252.7 306.7 C 252.5 307.2 252.4 307.8 252.4 308.4 C 252.44 308.36 252.4 320 252.4 320 L 248.9 320 C 248.9 320 248.92 305.88 248.9 305.9 Z M 287.4 291.6 C 287.4 291.6 287.4 315 287.4 315 C 287.4 316.7 287.5 318.7 287.6 320 C 287.56 320 284.4 320 284.4 320 L 284.3 316.6 C 284.3 316.6 284.16 316.64 284.2 316.6 C 283.1 318.8 280.8 320.4 277.6 320.4 C 273 320.4 269.3 316.5 269.3 310.6 C 269.3 304.2 273.3 300.2 278 300.2 C 281 300.2 283 301.6 283.8 303.2 C 283.84 303.16 283.9 303.2 283.9 303.2 L 283.9 291.6 L 287.4 291.6 Z M 283.9 308.5 C 283.9 308.1 283.9 307.5 283.8 307 C 283.2 304.8 281.3 303 278.7 303 C 275 303 272.9 306.2 272.9 310.4 C 272.9 314.4 274.8 317.6 278.6 317.6 C 281 317.6 283.1 316 283.8 313.4 C 283.9 312.9 283.9 312.4 283.9 311.9 C 283.9 311.9 283.9 308.5 283.9 308.5 Z M 292.4 316.4 C 293.5 317.1 295.3 317.8 297.1 317.8 C 299.6 317.8 300.8 316.6 300.8 314.9 C 300.8 313.2 299.8 312.4 297.2 311.4 C 293.7 310.1 292.1 308.2 292.1 305.9 C 292.1 302.8 294.6 300.2 298.8 300.2 C 300.7 300.2 302.4 300.8 303.5 301.4 C 303.5 301.4 302.6 304 302.6 304 C 301.9 303.5 300.5 302.8 298.7 302.8 C 296.6 302.8 295.5 304 295.5 305.5 C 295.5 307.1 296.6 307.8 299.1 308.8 C 302.4 310 304.2 311.7 304.2 314.6 C 304.2 318 301.5 320.4 297 320.4 C 294.9 320.4 292.9 319.9 291.6 319.1 C 291.6 319.1 292.4 316.4 292.4 316.4 Z " stroke="none" fill="#000"/>  </g>  <g id="Polygon1225">    <path d="M 4.9 266 C 5 270.7 8 272.7 11.5 272.7 C 14 272.7 15.6 272.2 16.9 271.7 C 16.9 271.7 17.5 274.2 17.5 274.2 C 16.3 274.8 14.1 275.4 11 275.4 C 5.1 275.4 1.5 271.5 1.5 265.6 C 1.5 259.8 5 255.2 10.6 255.2 C 17 255.2 18.6 260.8 18.6 264.3 C 18.6 265 18.6 265.6 18.5 266 C 18.5 266 4.9 266 4.9 266 Z M 15.2 263.4 C 15.2 261.2 14.3 257.8 10.3 257.8 C 6.7 257.8 5.2 261 4.9 263.4 C 4.9 263.4 15.2 263.4 15.2 263.4 Z M 22.6 260.9 C 22.6 258.8 22.5 257.2 22.4 255.6 C 22.4 255.64 25.5 255.6 25.5 255.6 L 25.7 258.8 C 25.7 258.8 25.8 258.84 25.8 258.8 C 26.8 257 29 255.2 32.2 255.2 C 34.9 255.2 39 256.8 39 263.5 C 39.04 263.48 39 275 39 275 L 35.5 275 C 35.5 275 35.52 263.84 35.5 263.8 C 35.5 260.7 34.4 258.1 31 258.1 C 28.8 258.1 27 259.8 26.3 261.7 C 26.2 262.2 26.1 262.8 26.1 263.4 C 26.08 263.36 26.1 275 26.1 275 L 22.6 275 C 22.6 275 22.56 260.88 22.6 260.9 Z M 58.2 274.3 C 57.2 274.8 55.2 275.4 52.6 275.4 C 46.8 275.4 43 271.5 43 265.6 C 43 259.6 47 255.2 53.4 255.2 C 55.4 255.2 57.3 255.8 58.2 256.3 C 58.2 256.3 57.4 259 57.4 259 C 56.6 258.5 55.3 258 53.4 258 C 48.9 258 46.5 261.4 46.5 265.4 C 46.5 269.8 49.4 272.6 53.2 272.6 C 55.2 272.6 56.6 272.1 57.6 271.7 C 57.6 271.7 58.2 274.3 58.2 274.3 Z M 79.2 265.2 C 79.2 272.3 74.2 275.4 69.5 275.4 C 64.3 275.4 60.2 271.6 60.2 265.5 C 60.2 259 64.5 255.2 69.8 255.2 C 75.4 255.2 79.2 259.3 79.2 265.2 Z M 63.8 265.4 C 63.8 269.6 66.2 272.8 69.7 272.8 C 73 272.8 75.6 269.6 75.6 265.3 C 75.6 262 73.9 257.9 69.8 257.9 C 65.6 257.9 63.8 261.7 63.8 265.4 Z M 83.2 260.9 C 83.2 258.8 83.1 257.2 83 255.6 C 83.04 255.64 86.1 255.6 86.1 255.6 L 86.3 258.8 C 86.3 258.8 86.4 258.8 86.4 258.8 C 87.5 257 89.3 255.2 92.5 255.2 C 95.1 255.2 97.1 256.8 98 259.1 C 98 259.1 98 259.1 98 259.1 C 98.6 258 99.4 257.2 100.2 256.6 C 101.4 255.7 102.6 255.2 104.5 255.2 C 107.1 255.2 110.9 256.9 110.9 263.6 C 110.88 263.64 110.9 275 110.9 275 L 107.4 275 C 107.4 275 107.44 264.08 107.4 264.1 C 107.4 260.3 106 258.1 103.2 258.1 C 101.2 258.1 99.7 259.6 99 261.3 C 98.9 261.8 98.8 262.4 98.8 263 C 98.76 263.04 98.8 275 98.8 275 L 95.3 275 C 95.3 275 95.32 263.4 95.3 263.4 C 95.3 260.3 94 258.1 91.3 258.1 C 89.1 258.1 87.5 259.9 86.9 261.6 C 86.7 262.1 86.6 262.8 86.6 263.4 C 86.64 263.36 86.6 275 86.6 275 L 83.2 275 C 83.2 275 83.2 260.88 83.2 260.9 Z M 116.2 262 C 116.2 259.5 116.1 257.5 116 255.6 C 116 255.64 119.1 255.6 119.1 255.6 L 119.3 259 C 119.3 259 119.4 258.96 119.4 259 C 120.8 256.6 123.1 255.2 126.3 255.2 C 131 255.2 134.5 259.2 134.5 265 C 134.5 272 130.2 275.4 125.7 275.4 C 123.1 275.4 120.9 274.3 119.7 272.4 C 119.72 272.4 119.6 272.4 119.6 272.4 L 119.6 282.9 L 116.2 282.9 C 116.2 282.9 116.16 261.96 116.2 262 Z M 119.6 267.1 C 119.6 267.6 119.7 268.1 119.8 268.6 C 120.4 271 122.6 272.7 125.1 272.7 C 128.8 272.7 131 269.6 131 265.2 C 131 261.4 128.9 258 125.2 258 C 122.8 258 120.5 259.7 119.9 262.4 C 119.8 262.8 119.6 263.3 119.6 263.8 C 119.6 263.8 119.6 267.1 119.6 267.1 Z M 152.1 270.4 C 152.1 272 152.2 273.7 152.4 275 C 152.4 275 149.2 275 149.2 275 L 149 272.6 C 149 272.6 148.84 272.56 148.8 272.6 C 147.8 274.1 145.7 275.4 142.9 275.4 C 139 275.4 137 272.7 137 269.9 C 137 265.2 141.2 262.6 148.6 262.7 C 148.6 262.7 148.6 262.3 148.6 262.3 C 148.6 260.7 148.2 257.8 144.2 257.8 C 142.4 257.8 140.5 258.4 139.2 259.3 C 139.2 259.3 138.4 256.9 138.4 256.9 C 140 255.9 142.3 255.2 144.8 255.2 C 150.7 255.2 152.1 259.3 152.1 263.1 C 152.1 263.1 152.1 270.4 152.1 270.4 Z M 148.7 265.1 C 144.9 265 140.5 265.7 140.5 269.5 C 140.5 271.8 142 272.8 143.8 272.8 C 146.4 272.8 148 271.2 148.6 269.6 C 148.7 269.2 148.7 268.8 148.7 268.5 C 148.7 268.5 148.7 265.1 148.7 265.1 Z M 156.9 271.4 C 158 272.1 159.8 272.8 161.6 272.8 C 164.1 272.8 165.3 271.6 165.3 269.9 C 165.3 268.2 164.3 267.4 161.8 266.4 C 158.2 265.1 156.6 263.2 156.6 260.9 C 156.6 257.8 159.2 255.2 163.3 255.2 C 165.2 255.2 167 255.8 168 256.4 C 168 256.4 167.2 259 167.2 259 C 166.4 258.5 165 257.8 163.2 257.8 C 161.1 257.8 160 259 160 260.5 C 160 262.1 161.1 262.8 163.6 263.8 C 167 265 168.7 266.7 168.7 269.6 C 168.7 273 166 275.4 161.5 275.4 C 159.4 275.4 157.4 274.9 156.1 274.1 C 156.1 274.1 156.9 271.4 156.9 271.4 Z M 172.4 271.4 C 173.4 272.1 175.3 272.8 177 272.8 C 179.6 272.8 180.8 271.6 180.8 269.9 C 180.8 268.2 179.8 267.4 177.2 266.4 C 173.7 265.1 172 263.2 172 260.9 C 172 257.8 174.6 255.2 178.7 255.2 C 180.7 255.2 182.4 255.8 183.4 256.4 C 183.4 256.4 182.6 259 182.6 259 C 181.8 258.5 180.4 257.8 178.6 257.8 C 176.6 257.8 175.4 259 175.4 260.5 C 175.4 262.1 176.6 262.8 179.1 263.8 C 182.4 265 184.2 266.7 184.2 269.6 C 184.2 273 181.5 275.4 177 275.4 C 174.8 275.4 172.9 274.9 171.5 274.1 C 171.5 274.1 172.4 271.4 172.4 271.4 Z M 190.2 266 C 190.3 270.7 193.3 272.7 196.9 272.7 C 199.4 272.7 201 272.2 202.2 271.7 C 202.2 271.7 202.9 274.2 202.9 274.2 C 201.6 274.8 199.5 275.4 196.4 275.4 C 190.4 275.4 186.9 271.5 186.9 265.6 C 186.9 259.8 190.3 255.2 196 255.2 C 202.3 255.2 204 260.8 204 264.3 C 204 265 203.9 265.6 203.8 266 C 203.8 266 190.2 266 190.2 266 Z M 200.6 263.4 C 200.6 261.2 199.6 257.8 195.7 257.8 C 192.1 257.8 190.6 261 190.3 263.4 C 190.3 263.4 200.6 263.4 200.6 263.4 Z M 207.4 271.4 C 208.5 272.1 210.4 272.8 212.1 272.8 C 214.6 272.8 215.8 271.6 215.8 269.9 C 215.8 268.2 214.8 267.4 212.3 266.4 C 208.8 265.1 207.1 263.2 207.1 260.9 C 207.1 257.8 209.7 255.2 213.8 255.2 C 215.8 255.2 217.5 255.8 218.5 256.4 C 218.5 256.4 217.7 259 217.7 259 C 216.9 258.5 215.5 257.8 213.7 257.8 C 211.6 257.8 210.5 259 210.5 260.5 C 210.5 262.1 211.6 262.8 214.2 263.8 C 217.5 265 219.2 266.7 219.2 269.6 C 219.2 273 216.6 275.4 212 275.4 C 209.9 275.4 208 274.9 206.6 274.1 C 206.6 274.1 207.4 271.4 207.4 271.4 Z M 231.8 275 L 231.8 258.3 L 229.1 258.3 L 229.1 255.6 L 231.8 255.6 C 231.8 255.6 231.8 254.56 231.8 254.6 C 231.8 249.5 234.8 246.2 240.2 246.2 C 242 246.2 244.2 246.7 245.2 247.4 C 245.2 247.4 244.2 250.1 244.2 250.1 C 243.3 249.5 241.8 249 240.1 249 C 236.4 249 235.3 251.6 235.3 254.7 C 235.28 254.68 235.3 255.6 235.3 255.6 L 246.5 255.6 L 246.5 275 L 243 275 L 243 258.3 L 235.3 258.3 L 235.3 275 L 231.8 275 Z M 253.3 255.6 C 253.3 255.6 257.12 266.48 257.1 266.5 C 257.8 268.3 258.3 269.9 258.7 271.5 C 258.7 271.5 258.8 271.5 258.8 271.5 C 259.2 269.9 259.8 268.3 260.4 266.5 C 260.44 266.48 264.2 255.6 264.2 255.6 L 267.9 255.6 L 260.3 275 L 256.9 275 L 249.6 255.6 L 253.3 255.6 Z M 272.4 266 C 272.4 270.7 275.4 272.7 279 272.7 C 281.5 272.7 283.1 272.2 284.4 271.7 C 284.4 271.7 285 274.2 285 274.2 C 283.8 274.8 281.6 275.4 278.5 275.4 C 272.6 275.4 269 271.5 269 265.6 C 269 259.8 272.4 255.2 278.1 255.2 C 284.4 255.2 286.1 260.8 286.1 264.3 C 286.1 265 286 265.6 286 266 C 286 266 272.4 266 272.4 266 Z M 282.7 263.4 C 282.7 261.2 281.8 257.8 277.8 257.8 C 274.2 257.8 272.7 261 272.4 263.4 C 272.4 263.4 282.7 263.4 282.7 263.4 Z " stroke="none" fill="#000"/>  </g>  <g id="Polygon1224">    <path d="M 3 230 L 3 203 L 6.9 203 C 6.9 203 15.48 216.68 15.5 216.7 C 17.4 219.8 19 222.7 20.3 225.4 C 20.3 225.4 20.4 225.4 20.4 225.4 C 20.1 221.8 20 218.5 20 214.3 C 20 214.32 20 203 20 203 L 23.3 203 L 23.3 230 L 19.8 230 C 19.8 230 11.2 216.32 11.2 216.3 C 9.3 213.3 7.5 210.2 6.2 207.3 C 6.2 207.3 6.1 207.4 6.1 207.4 C 6.3 210.8 6.3 214 6.3 218.5 C 6.32 218.48 6.3 230 6.3 230 L 3 230 Z M 42.4 225.4 C 42.4 227 42.5 228.7 42.7 230 C 42.72 230 39.6 230 39.6 230 L 39.3 227.6 C 39.3 227.6 39.16 227.56 39.2 227.6 C 38.1 229.1 36 230.4 33.2 230.4 C 29.3 230.4 27.3 227.7 27.3 224.9 C 27.3 220.2 31.5 217.6 39 217.7 C 39 217.7 39 217.3 39 217.3 C 39 215.7 38.5 212.8 34.6 212.8 C 32.7 212.8 30.8 213.4 29.5 214.3 C 29.5 214.3 28.7 211.9 28.7 211.9 C 30.3 210.9 32.6 210.2 35.1 210.2 C 41 210.2 42.4 214.3 42.4 218.1 C 42.4 218.1 42.4 225.4 42.4 225.4 Z M 39 220.1 C 35.2 220 30.8 220.7 30.8 224.5 C 30.8 226.8 32.4 227.8 34.1 227.8 C 36.7 227.8 38.3 226.2 38.9 224.6 C 39 224.2 39 223.8 39 223.5 C 39 223.5 39 220.1 39 220.1 Z M 51.8 206 L 51.8 210.6 L 56.8 210.6 L 56.8 213.3 L 51.8 213.3 C 51.8 213.3 51.8 223.76 51.8 223.8 C 51.8 226.2 52.5 227.5 54.4 227.5 C 55.4 227.5 56 227.4 56.5 227.3 C 56.5 227.3 56.6 230 56.6 230 C 56 230.2 54.9 230.4 53.5 230.4 C 51.9 230.4 50.6 229.9 49.7 229 C 48.8 227.9 48.4 226.2 48.4 223.9 C 48.36 223.88 48.4 213.3 48.4 213.3 L 45.4 213.3 L 45.4 210.6 L 48.4 210.6 L 48.4 207 L 51.8 206 Z M 60.4 230 L 60.4 210.6 L 63.9 210.6 L 63.9 230 L 60.4 230 Z M 64.3 205.2 C 64.3 206.4 63.5 207.4 62.1 207.4 C 60.8 207.4 60 206.4 60 205.2 C 60 204 60.8 203 62.2 203 C 63.4 203 64.3 204 64.3 205.2 Z M 86.9 220.2 C 86.9 227.3 81.9 230.4 77.2 230.4 C 72 230.4 68 226.6 68 220.5 C 68 214 72.2 210.2 77.6 210.2 C 83.1 210.2 86.9 214.3 86.9 220.2 Z M 71.6 220.4 C 71.6 224.6 74 227.8 77.4 227.8 C 80.8 227.8 83.3 224.6 83.3 220.3 C 83.3 217 81.6 212.9 77.5 212.9 C 73.4 212.9 71.6 216.7 71.6 220.4 Z M 90.9 215.9 C 90.9 213.8 90.9 212.2 90.8 210.6 C 90.76 210.64 93.9 210.6 93.9 210.6 L 94.1 213.8 C 94.1 213.8 94.16 213.84 94.2 213.8 C 95.1 212 97.4 210.2 100.6 210.2 C 103.2 210.2 107.4 211.8 107.4 218.5 C 107.4 218.48 107.4 230 107.4 230 L 103.9 230 C 103.9 230 103.88 218.84 103.9 218.8 C 103.9 215.7 102.7 213.1 99.4 213.1 C 97.1 213.1 95.3 214.8 94.7 216.7 C 94.5 217.2 94.4 217.8 94.4 218.4 C 94.44 218.36 94.4 230 94.4 230 L 90.9 230 C 90.9 230 90.92 215.88 90.9 215.9 Z M 126.3 225.4 C 126.3 227 126.4 228.7 126.6 230 C 126.6 230 123.4 230 123.4 230 L 123.2 227.6 C 123.2 227.6 123.04 227.56 123 227.6 C 122 229.1 119.9 230.4 117.1 230.4 C 113.2 230.4 111.2 227.7 111.2 224.9 C 111.2 220.2 115.4 217.6 122.8 217.7 C 122.8 217.7 122.8 217.3 122.8 217.3 C 122.8 215.7 122.4 212.8 118.4 212.8 C 116.6 212.8 114.7 213.4 113.4 214.3 C 113.4 214.3 112.6 211.9 112.6 211.9 C 114.2 210.9 116.5 210.2 119 210.2 C 124.9 210.2 126.3 214.3 126.3 218.1 C 126.3 218.1 126.3 225.4 126.3 225.4 Z M 122.9 220.1 C 119.1 220 114.7 220.7 114.7 224.5 C 114.7 226.8 116.2 227.8 118 227.8 C 120.6 227.8 122.2 226.2 122.8 224.6 C 122.9 224.2 122.9 223.8 122.9 223.5 C 122.9 223.5 122.9 220.1 122.9 220.1 Z M 131.6 201.6 L 135.1 201.6 L 135.1 230 L 131.6 230 L 131.6 201.6 Z M 148.8 203.4 C 150.5 203.1 152.7 202.8 155.5 202.8 C 159 202.8 161.5 203.6 163.1 205.1 C 164.5 206.4 165.4 208.3 165.4 210.7 C 165.4 213.2 164.7 215.1 163.4 216.5 C 161.5 218.4 158.5 219.4 155.1 219.4 C 154.1 219.4 153.1 219.4 152.3 219.2 C 152.32 219.2 152.3 230 152.3 230 L 148.8 230 C 148.8 230 148.84 203.36 148.8 203.4 Z M 152.3 216.4 C 153.1 216.6 154 216.6 155.2 216.6 C 159.4 216.6 162 214.6 162 210.9 C 162 207.3 159.4 205.6 155.6 205.6 C 154.1 205.6 152.9 205.7 152.3 205.9 C 152.3 205.9 152.3 216.4 152.3 216.4 Z M 182.2 225.4 C 182.2 227 182.2 228.7 182.4 230 C 182.44 230 179.3 230 179.3 230 L 179 227.6 C 179 227.6 178.88 227.56 178.9 227.6 C 177.8 229.1 175.7 230.4 173 230.4 C 169 230.4 167 227.7 167 224.9 C 167 220.2 171.2 217.6 178.7 217.7 C 178.7 217.7 178.7 217.3 178.7 217.3 C 178.7 215.7 178.2 212.8 174.3 212.8 C 172.4 212.8 170.6 213.4 169.2 214.3 C 169.2 214.3 168.4 211.9 168.4 211.9 C 170 210.9 172.4 210.2 174.8 210.2 C 180.7 210.2 182.2 214.3 182.2 218.1 C 182.2 218.1 182.2 225.4 182.2 225.4 Z M 178.8 220.1 C 174.9 220 170.6 220.7 170.6 224.5 C 170.6 226.8 172.1 227.8 173.8 227.8 C 176.4 227.8 178 226.2 178.6 224.6 C 178.7 224.2 178.8 223.8 178.8 223.5 C 178.8 223.5 178.8 220.1 178.8 220.1 Z M 187.4 216.7 C 187.4 214.4 187.4 212.4 187.3 210.6 C 187.28 210.64 190.4 210.6 190.4 210.6 L 190.5 214.5 C 190.5 214.5 190.64 214.48 190.6 214.5 C 191.5 211.9 193.7 210.2 196 210.2 C 196.4 210.2 196.7 210.3 197 210.3 C 197 210.3 197 213.6 197 213.6 C 196.6 213.6 196.3 213.6 195.8 213.6 C 193.3 213.6 191.6 215.4 191.1 218 C 191 218.5 191 219.1 191 219.7 C 190.96 219.68 191 230 191 230 L 187.4 230 C 187.4 230 187.44 216.68 187.4 216.7 Z M 203.8 219.5 C 203.8 219.5 203.84 219.52 203.8 219.5 C 204.3 218.8 205 218 205.5 217.3 C 205.52 217.32 211.2 210.6 211.2 210.6 L 215.4 210.6 L 208 218.6 L 216.5 230 L 212.2 230 L 205.6 220.7 L 203.8 222.7 L 203.8 230 L 200.3 230 L 200.3 201.6 L 203.8 201.6 L 203.8 219.5 Z " stroke="none" fill="#000"/>  </g>  <g id="Polygon1223">    <path d="M 21.8 184.2 C 20.6 184.8 18 185.4 14.7 185.4 C 7.1 185.4 1.4 180.6 1.4 171.8 C 1.4 163.3 7.2 157.6 15.5 157.6 C 18.8 157.6 21 158.3 21.9 158.8 C 21.9 158.8 21 161.6 21 161.6 C 19.8 161 17.9 160.5 15.6 160.5 C 9.3 160.5 5.1 164.6 5.1 171.6 C 5.1 178.3 8.9 182.5 15.4 182.5 C 17.6 182.5 19.8 182 21.2 181.4 C 21.2 181.4 21.8 184.2 21.8 184.2 Z M 25.7 156.6 L 29.2 156.6 L 29.2 168.7 C 29.2 168.7 29.32 168.72 29.3 168.7 C 29.9 167.7 30.8 166.8 31.8 166.2 C 32.9 165.6 34.1 165.2 35.4 165.2 C 38 165.2 42.2 166.8 42.2 173.5 C 42.2 173.48 42.2 185 42.2 185 L 38.7 185 C 38.7 185 38.68 173.88 38.7 173.9 C 38.7 170.8 37.5 168.2 34.2 168.2 C 31.9 168.2 30.2 169.8 29.5 171.6 C 29.3 172.2 29.2 172.7 29.2 173.3 C 29.24 173.32 29.2 185 29.2 185 L 25.7 185 L 25.7 156.6 Z M 61.1 180.4 C 61.1 182 61.2 183.7 61.4 185 C 61.4 185 58.2 185 58.2 185 L 58 182.6 C 58 182.6 57.84 182.56 57.8 182.6 C 56.8 184.1 54.7 185.4 51.9 185.4 C 48 185.4 46 182.7 46 179.9 C 46 175.2 50.2 172.6 57.6 172.7 C 57.6 172.7 57.6 172.3 57.6 172.3 C 57.6 170.7 57.2 167.8 53.2 167.8 C 51.4 167.8 49.5 168.4 48.2 169.3 C 48.2 169.3 47.4 166.9 47.4 166.9 C 49 165.9 51.3 165.2 53.8 165.2 C 59.7 165.2 61.1 169.3 61.1 173.1 C 61.1 173.1 61.1 180.4 61.1 180.4 Z M 57.7 175.1 C 53.9 175 49.5 175.7 49.5 179.5 C 49.5 181.8 51 182.8 52.8 182.8 C 55.4 182.8 57 181.2 57.6 179.6 C 57.7 179.2 57.7 178.8 57.7 178.5 C 57.7 178.5 57.7 175.1 57.7 175.1 Z M 66.4 170.9 C 66.4 168.8 66.4 167.2 66.2 165.6 C 66.24 165.64 69.4 165.6 69.4 165.6 L 69.6 168.8 C 69.6 168.8 69.64 168.84 69.6 168.8 C 70.6 167 72.8 165.2 76 165.2 C 78.7 165.2 82.9 166.8 82.9 173.5 C 82.88 173.48 82.9 185 82.9 185 L 79.4 185 C 79.4 185 79.36 173.84 79.4 173.8 C 79.4 170.7 78.2 168.1 74.9 168.1 C 72.6 168.1 70.8 169.8 70.2 171.7 C 70 172.2 69.9 172.8 69.9 173.4 C 69.92 173.36 69.9 185 69.9 185 L 66.4 185 C 66.4 185 66.4 170.88 66.4 170.9 Z M 88.2 170.9 C 88.2 168.8 88.2 167.2 88 165.6 C 88.04 165.64 91.2 165.6 91.2 165.6 L 91.4 168.8 C 91.4 168.8 91.44 168.84 91.4 168.8 C 92.4 167 94.6 165.2 97.8 165.2 C 100.5 165.2 104.7 166.8 104.7 173.5 C 104.68 173.48 104.7 185 104.7 185 L 101.2 185 C 101.2 185 101.16 173.84 101.2 173.8 C 101.2 170.7 100 168.1 96.7 168.1 C 94.4 168.1 92.6 169.8 92 171.7 C 91.8 172.2 91.7 172.8 91.7 173.4 C 91.72 173.36 91.7 185 91.7 185 L 88.2 185 C 88.2 185 88.2 170.88 88.2 170.9 Z M 112 176 C 112 180.7 115 182.7 118.6 182.7 C 121.1 182.7 122.7 182.2 124 181.7 C 124 181.7 124.6 184.2 124.6 184.2 C 123.4 184.8 121.2 185.4 118.1 185.4 C 112.2 185.4 108.6 181.5 108.6 175.6 C 108.6 169.8 112 165.2 117.7 165.2 C 124 165.2 125.7 170.8 125.7 174.3 C 125.7 175 125.6 175.6 125.6 176 C 125.6 176 112 176 112 176 Z M 122.3 173.4 C 122.3 171.2 121.4 167.8 117.4 167.8 C 113.8 167.8 112.3 171 112 173.4 C 112 173.4 122.3 173.4 122.3 173.4 Z M 129.6 156.6 L 133.2 156.6 L 133.2 185 L 129.6 185 L 129.6 156.6 Z M 150.4 158 L 150.4 185 L 146.8 185 L 146.8 158 L 150.4 158 Z M 155.4 181.4 C 156.5 182.1 158.4 182.8 160.1 182.8 C 162.6 182.8 163.8 181.6 163.8 179.9 C 163.8 178.2 162.8 177.4 160.3 176.4 C 156.8 175.1 155.1 173.2 155.1 170.9 C 155.1 167.8 157.7 165.2 161.8 165.2 C 163.8 165.2 165.5 165.8 166.5 166.4 C 166.5 166.4 165.7 169 165.7 169 C 164.9 168.5 163.5 167.8 161.7 167.8 C 159.6 167.8 158.5 169 158.5 170.5 C 158.5 172.1 159.6 172.8 162.2 173.8 C 165.5 175 167.2 176.7 167.2 179.6 C 167.2 183 164.6 185.4 160 185.4 C 157.9 185.4 156 184.9 154.6 184.1 C 154.6 184.1 155.4 181.4 155.4 181.4 Z M 171.4 156.6 L 174.9 156.6 L 174.9 185 L 171.4 185 L 171.4 156.6 Z M 194 180.4 C 194 182 194.1 183.7 194.3 185 C 194.28 185 191.1 185 191.1 185 L 190.8 182.6 C 190.8 182.6 190.72 182.56 190.7 182.6 C 189.6 184.1 187.6 185.4 184.8 185.4 C 180.9 185.4 178.9 182.7 178.9 179.9 C 178.9 175.2 183 172.6 190.5 172.7 C 190.5 172.7 190.5 172.3 190.5 172.3 C 190.5 170.7 190.1 167.8 186.1 167.8 C 184.3 167.8 182.4 168.4 181 169.3 C 181 169.3 180.2 166.9 180.2 166.9 C 181.8 165.9 184.2 165.2 186.6 165.2 C 192.6 165.2 194 169.3 194 173.1 C 194 173.1 194 180.4 194 180.4 Z M 190.6 175.1 C 186.8 175 182.4 175.7 182.4 179.5 C 182.4 181.8 183.9 182.8 185.7 182.8 C 188.2 182.8 189.9 181.2 190.4 179.6 C 190.6 179.2 190.6 178.8 190.6 178.5 C 190.6 178.5 190.6 175.1 190.6 175.1 Z M 199.3 170.9 C 199.3 168.8 199.2 167.2 199.1 165.6 C 199.12 165.64 202.2 165.6 202.2 165.6 L 202.4 168.8 C 202.4 168.8 202.52 168.84 202.5 168.8 C 203.5 167 205.7 165.2 208.9 165.2 C 211.6 165.2 215.8 166.8 215.8 173.5 C 215.76 173.48 215.8 185 215.8 185 L 212.2 185 C 212.2 185 212.24 173.84 212.2 173.8 C 212.2 170.7 211.1 168.1 207.8 168.1 C 205.5 168.1 203.7 169.8 203 171.7 C 202.9 172.2 202.8 172.8 202.8 173.4 C 202.8 173.36 202.8 185 202.8 185 L 199.3 185 C 199.3 185 199.28 170.88 199.3 170.9 Z M 237.8 156.6 C 237.8 156.6 237.76 180 237.8 180 C 237.8 181.7 237.8 183.7 237.9 185 C 237.92 185 234.8 185 234.8 185 L 234.6 181.6 C 234.6 181.6 234.52 181.64 234.5 181.6 C 233.5 183.8 231.2 185.4 228 185.4 C 223.3 185.4 219.7 181.5 219.7 175.6 C 219.6 169.2 223.7 165.2 228.4 165.2 C 231.4 165.2 233.3 166.6 234.2 168.2 C 234.2 168.16 234.3 168.2 234.3 168.2 L 234.3 156.6 L 237.8 156.6 Z M 234.3 173.5 C 234.3 173.1 234.2 172.5 234.1 172 C 233.6 169.8 231.7 168 229 168 C 225.4 168 223.2 171.2 223.2 175.4 C 223.2 179.4 225.2 182.6 229 182.6 C 231.3 182.6 233.5 181 234.1 178.4 C 234.2 177.9 234.3 177.4 234.3 176.9 C 234.3 176.9 234.3 173.5 234.3 173.5 Z M 242.8 181.4 C 243.8 182.1 245.7 182.8 247.4 182.8 C 250 182.8 251.2 181.6 251.2 179.9 C 251.2 178.2 250.2 177.4 247.6 176.4 C 244.1 175.1 242.4 173.2 242.4 170.9 C 242.4 167.8 245 165.2 249.1 165.2 C 251.1 165.2 252.8 165.8 253.8 166.4 C 253.8 166.4 253 169 253 169 C 252.2 168.5 250.8 167.8 249 167.8 C 247 167.8 245.8 169 245.8 170.5 C 245.8 172.1 247 172.8 249.5 173.8 C 252.8 175 254.6 176.7 254.6 179.6 C 254.6 183 251.9 185.4 247.4 185.4 C 245.2 185.4 243.3 184.9 241.9 184.1 C 241.9 184.1 242.8 181.4 242.8 181.4 Z " stroke="none" fill="#000"/>  </g>  <g id="Polygon1222">    <path d="M 2.6 93.4 C 4.5 93.1 7.2 92.8 10.9 92.8 C 14.6 92.8 17.3 93.6 19.1 95 C 20.9 96.4 22 98.6 22 101.2 C 22 103.9 21.2 106.2 19.5 107.6 C 17.4 109.6 14.4 110.5 10.8 110.5 C 10 110.5 9.2 110.4 8.7 110.3 C 8.68 110.32 8.7 120 8.7 120 L 2.6 120 C 2.6 120 2.64 93.4 2.6 93.4 Z M 8.7 105.6 C 9.2 105.8 9.8 105.8 10.7 105.8 C 14 105.8 16 104.2 16 101.4 C 16 99 14.2 97.5 11.2 97.5 C 10 97.5 9.1 97.6 8.7 97.7 C 8.7 97.7 8.7 105.6 8.7 105.6 Z M 41.2 115.3 C 41.2 117.1 41.3 118.9 41.6 120 C 41.56 120 36.1 120 36.1 120 L 35.7 118 C 35.7 118 35.6 118.04 35.6 118 C 34.3 119.6 32.3 120.4 30 120.4 C 26 120.4 23.7 117.6 23.7 114.4 C 23.7 109.4 28.2 107 35.2 107 C 35.2 107 35.2 106.7 35.2 106.7 C 35.2 105.6 34.6 104.2 31.6 104.2 C 29.6 104.2 27.5 104.8 26.2 105.6 C 26.2 105.6 25.1 101.7 25.1 101.7 C 26.4 101 29.1 100 32.7 100 C 39.2 100 41.2 103.8 41.2 108.4 C 41.2 108.4 41.2 115.3 41.2 115.3 Z M 35.4 110.8 C 32.2 110.8 29.7 111.5 29.7 113.8 C 29.7 115.4 30.7 116.2 32.1 116.2 C 33.6 116.2 34.8 115.2 35.2 113.9 C 35.3 113.6 35.4 113.2 35.4 112.9 C 35.4 112.9 35.4 110.8 35.4 110.8 Z M 46.1 106.9 C 46.1 104 46 102.1 45.9 100.4 C 45.92 100.44 51.1 100.4 51.1 100.4 L 51.4 104 C 51.4 104 51.52 104.04 51.5 104 C 52.5 101.2 54.9 100 56.8 100 C 57.4 100 57.6 100 58.1 100.1 C 58.1 100.1 58.1 105.8 58.1 105.8 C 57.6 105.7 57.1 105.6 56.4 105.6 C 54.2 105.6 52.7 106.8 52.3 108.7 C 52.2 109.1 52.2 109.6 52.2 110.1 C 52.16 110.08 52.2 120 52.2 120 L 46.1 120 C 46.1 120 46.08 106.88 46.1 106.9 Z M 67.2 108.7 C 67.2 108.7 67.32 108.68 67.3 108.7 C 67.8 107.8 68.2 107 68.7 106.3 C 68.72 106.32 72.7 100.4 72.7 100.4 L 80 100.4 L 73 108.4 L 81 120 L 73.5 120 L 68.8 112 L 67.2 113.9 L 67.2 120 L 61.2 120 L 61.2 91.6 L 67.2 91.6 L 67.2 108.7 Z " stroke="none" fill="#000"/>  </g>  <g id="Polygon1221">    <path d="M 8.8 48 L 8.8 75 L 2.7 75 L 2.7 48 L 8.8 48 Z M 13.7 69.7 C 14.8 70.4 17.1 71.2 18.9 71.2 C 20.8 71.2 21.5 70.6 21.5 69.6 C 21.5 68.5 20.9 68 18.7 67.3 C 14.6 65.9 13 63.7 13.1 61.4 C 13.1 57.7 16.2 55 21 55 C 23.3 55 25.3 55.5 26.5 56.1 C 26.5 56.1 25.5 60.3 25.5 60.3 C 24.6 59.8 22.9 59.2 21.2 59.2 C 19.8 59.2 18.9 59.8 18.9 60.8 C 18.9 61.7 19.7 62.2 22.1 63 C 25.8 64.3 27.3 66.2 27.4 69.1 C 27.4 72.8 24.5 75.4 18.9 75.4 C 16.4 75.4 14.1 74.8 12.6 74 C 12.6 74 13.7 69.7 13.7 69.7 Z M 31.1 46.6 L 37.2 46.6 L 37.2 75 L 31.1 75 L 31.1 46.6 Z M 58.4 70.3 C 58.4 72.1 58.4 73.9 58.7 75 C 58.68 75 53.2 75 53.2 75 L 52.8 73 C 52.8 73 52.72 73.04 52.7 73 C 51.4 74.6 49.4 75.4 47.1 75.4 C 43.2 75.4 40.8 72.6 40.8 69.4 C 40.8 64.4 45.4 62 52.3 62 C 52.3 62 52.3 61.7 52.3 61.7 C 52.3 60.6 51.7 59.2 48.7 59.2 C 46.7 59.2 44.6 59.8 43.3 60.6 C 43.3 60.6 42.2 56.7 42.2 56.7 C 43.6 56 46.2 55 49.8 55 C 56.3 55 58.4 58.8 58.4 63.4 C 58.4 63.4 58.4 70.3 58.4 70.3 Z M 52.5 65.8 C 49.3 65.8 46.8 66.5 46.8 68.8 C 46.8 70.4 47.8 71.2 49.2 71.2 C 50.7 71.2 52 70.2 52.4 68.9 C 52.4 68.6 52.5 68.2 52.5 67.9 C 52.5 67.9 52.5 65.8 52.5 65.8 Z M 63.2 61.7 C 63.2 59.2 63.1 57.2 63 55.4 C 63.04 55.44 68.3 55.4 68.3 55.4 L 68.6 58.2 C 68.6 58.2 68.72 58.16 68.7 58.2 C 69.5 56.9 71.5 55 74.8 55 C 78.8 55 81.8 57.7 81.8 63.4 C 81.76 63.44 81.8 75 81.8 75 L 75.7 75 C 75.7 75 75.68 64.16 75.7 64.2 C 75.7 61.6 74.8 59.9 72.6 59.9 C 70.9 59.9 69.9 61.1 69.5 62.2 C 69.3 62.6 69.3 63.2 69.3 63.7 C 69.28 63.72 69.3 75 69.3 75 L 63.2 75 C 63.2 75 63.2 61.68 63.2 61.7 Z M 105.6 46.6 C 105.6 46.6 105.6 69.16 105.6 69.2 C 105.6 71.4 105.7 73.7 105.8 75 C 105.76 75 100.4 75 100.4 75 L 100.1 72.2 C 100.1 72.2 100 72.16 100 72.2 C 98.8 74.3 96.4 75.4 93.9 75.4 C 89.2 75.4 85.5 71.5 85.5 65.4 C 85.5 58.8 89.6 55 94.3 55 C 96.7 55 98.6 55.8 99.4 57.2 C 99.44 57.16 99.5 57.2 99.5 57.2 L 99.5 46.6 L 105.6 46.6 Z M 99.5 63.7 C 99.5 63.4 99.5 63 99.4 62.6 C 99.1 61 97.8 59.6 95.9 59.6 C 93.1 59.6 91.7 62.1 91.7 65.2 C 91.7 68.5 93.3 70.6 95.8 70.6 C 97.6 70.6 99 69.4 99.4 67.7 C 99.5 67.2 99.5 66.8 99.5 66.3 C 99.5 66.3 99.5 63.7 99.5 63.7 Z M 110.4 69.7 C 111.6 70.4 113.9 71.2 115.7 71.2 C 117.5 71.2 118.3 70.6 118.3 69.6 C 118.3 68.5 117.7 68 115.4 67.3 C 111.4 65.9 109.8 63.7 109.8 61.4 C 109.8 57.7 113 55 117.8 55 C 120.1 55 122.1 55.5 123.3 56.1 C 123.3 56.1 122.2 60.3 122.2 60.3 C 121.4 59.8 119.6 59.2 118 59.2 C 116.5 59.2 115.7 59.8 115.7 60.8 C 115.7 61.7 116.4 62.2 118.8 63 C 122.6 64.3 124.1 66.2 124.1 69.1 C 124.1 72.8 121.3 75.4 115.7 75.4 C 113.1 75.4 110.8 74.8 109.4 74 C 109.4 74 110.4 69.7 110.4 69.7 Z M 136.1 75 L 136.1 48 L 143.2 48 C 143.2 48 148.84 57.92 148.8 57.9 C 150.4 60.8 152 64.1 153.2 67.2 C 153.2 67.2 153.3 67.2 153.3 67.2 C 153 63.6 152.8 60 152.8 55.9 C 152.84 55.88 152.8 48 152.8 48 L 158.4 48 L 158.4 75 L 152 75 C 152 75 146.28 64.6 146.3 64.6 C 144.7 61.7 142.9 58.2 141.6 55.1 C 141.6 55.1 141.4 55.1 141.4 55.1 C 141.6 58.7 141.7 62.5 141.7 66.9 C 141.72 66.88 141.7 75 141.7 75 L 136.1 75 Z M 179.8 70.3 C 179.8 72.1 179.9 73.9 180.1 75 C 180.12 75 174.6 75 174.6 75 L 174.3 73 C 174.3 73 174.16 73.04 174.2 73 C 172.9 74.6 170.9 75.4 168.6 75.4 C 164.6 75.4 162.2 72.6 162.2 69.4 C 162.2 64.4 166.8 62 173.7 62 C 173.7 62 173.7 61.7 173.7 61.7 C 173.7 60.6 173.2 59.2 170.2 59.2 C 168.2 59.2 166 59.8 164.8 60.6 C 164.8 60.6 163.6 56.7 163.6 56.7 C 165 56 167.7 55 171.2 55 C 177.8 55 179.8 58.8 179.8 63.4 C 179.8 63.4 179.8 70.3 179.8 70.3 Z M 173.9 65.8 C 170.7 65.8 168.2 66.5 168.2 68.8 C 168.2 70.4 169.3 71.2 170.6 71.2 C 172.1 71.2 173.4 70.2 173.8 68.9 C 173.9 68.6 173.9 68.2 173.9 67.9 C 173.9 67.9 173.9 65.8 173.9 65.8 Z M 191.1 50.2 L 191.1 55.4 L 195.5 55.4 L 195.5 59.9 L 191.1 59.9 C 191.1 59.9 191.12 67 191.1 67 C 191.1 69.4 191.7 70.4 193.5 70.4 C 194.4 70.4 194.8 70.4 195.3 70.3 C 195.3 70.3 195.4 74.9 195.4 74.9 C 194.6 75.2 193.1 75.4 191.4 75.4 C 189.5 75.4 187.8 74.7 186.8 73.7 C 185.7 72.6 185.2 70.7 185.2 67.9 C 185.16 67.92 185.2 59.9 185.2 59.9 L 182.6 59.9 L 182.6 55.4 L 185.2 55.4 L 185.2 51.8 L 191.1 50.2 Z M 199 75 L 199 55.4 L 205.1 55.4 L 205.1 75 L 199 75 Z M 205.3 50 C 205.3 51.7 204 53 202 53 C 200.1 53 198.8 51.7 198.8 50 C 198.8 48.3 200.1 47 202.1 47 C 204 47 205.2 48.3 205.3 50 Z M 229.3 65 C 229.3 72.2 224.2 75.4 219 75.4 C 213.2 75.4 208.8 71.7 208.8 65.4 C 208.8 59 213 55 219.3 55 C 225.3 55 229.3 59.1 229.3 65 Z M 215.1 65.2 C 215.1 68.6 216.5 71.1 219.1 71.1 C 221.5 71.1 223 68.7 223 65.2 C 223 62.3 221.9 59.3 219.1 59.3 C 216.2 59.3 215.1 62.3 215.1 65.2 Z M 233 61.7 C 233 59.2 233 57.2 232.9 55.4 C 232.88 55.44 238.2 55.4 238.2 55.4 L 238.4 58.2 C 238.4 58.2 238.56 58.16 238.6 58.2 C 239.4 56.9 241.3 55 244.6 55 C 248.6 55 251.6 57.7 251.6 63.4 C 251.6 63.44 251.6 75 251.6 75 L 245.5 75 C 245.5 75 245.52 64.16 245.5 64.2 C 245.5 61.6 244.6 59.9 242.4 59.9 C 240.8 59.9 239.8 61.1 239.3 62.2 C 239.2 62.6 239.1 63.2 239.1 63.7 C 239.12 63.72 239.1 75 239.1 75 L 233 75 C 233 75 233.04 61.68 233 61.7 Z M 272.8 70.3 C 272.8 72.1 272.8 73.9 273.1 75 C 273.08 75 267.6 75 267.6 75 L 267.2 73 C 267.2 73 267.12 73.04 267.1 73 C 265.8 74.6 263.8 75.4 261.5 75.4 C 257.6 75.4 255.2 72.6 255.2 69.4 C 255.2 64.4 259.8 62 266.7 62 C 266.7 62 266.7 61.7 266.7 61.7 C 266.7 60.6 266.1 59.2 263.1 59.2 C 261.1 59.2 259 59.8 257.7 60.6 C 257.7 60.6 256.6 56.7 256.6 56.7 C 258 56 260.6 55 264.2 55 C 270.7 55 272.8 58.8 272.8 63.4 C 272.8 63.4 272.8 70.3 272.8 70.3 Z M 266.9 65.8 C 263.7 65.8 261.2 66.5 261.2 68.8 C 261.2 70.4 262.2 71.2 263.6 71.2 C 265.1 71.2 266.4 70.2 266.8 68.9 C 266.8 68.6 266.9 68.2 266.9 67.9 C 266.9 67.9 266.9 65.8 266.9 65.8 Z M 277.6 46.6 L 283.7 46.6 L 283.7 75 L 277.6 75 L 277.6 46.6 Z " stroke="none" fill="#000"/>  </g>  <g id="Polygon1220">    <path d="M 8.9 23.1 L 7 30 L 0.7 30 L 8.9 3 L 16.9 3 L 25.3 30 L 18.7 30 L 16.6 23.1 L 8.9 23.1 Z M 15.8 18.5 C 15.8 18.5 14.08 12.8 14.1 12.8 C 13.6 11.2 13.1 9.2 12.7 7.6 C 12.7 7.6 12.6 7.6 12.6 7.6 C 12.2 9.2 11.8 11.2 11.4 12.8 C 11.4 12.8 9.8 18.5 9.8 18.5 L 15.8 18.5 Z M 28.4 1.6 L 34.5 1.6 L 34.5 12.8 C 34.5 12.8 34.6 12.76 34.6 12.8 C 35.8 11.1 37.8 10 40.5 10 C 45.2 10 48.6 13.9 48.6 19.9 C 48.6 26.9 44.1 30.4 39.6 30.4 C 37.4 30.4 35.1 29.6 33.8 27.3 C 33.76 27.28 33.7 27.3 33.7 27.3 L 33.4 30 C 33.4 30 28.28 30 28.3 30 C 28.4 28.7 28.4 26.4 28.4 24.2 C 28.44 24.16 28.4 1.6 28.4 1.6 Z M 34.5 21.7 C 34.5 22.1 34.6 22.4 34.6 22.8 C 35 24.4 36.4 25.6 38.2 25.6 C 40.8 25.6 42.4 23.6 42.4 20.1 C 42.4 17.1 41 14.7 38.2 14.7 C 36.6 14.7 35 15.9 34.6 17.7 C 34.6 18 34.5 18.4 34.5 18.8 C 34.5 18.8 34.5 21.7 34.5 21.7 Z M 71.8 20 C 71.8 27.2 66.7 30.4 61.5 30.4 C 55.8 30.4 51.4 26.7 51.4 20.4 C 51.4 14 55.5 10 61.8 10 C 67.8 10 71.8 14.1 71.8 20 Z M 57.6 20.2 C 57.6 23.6 59 26.1 61.6 26.1 C 64 26.1 65.5 23.7 65.5 20.2 C 65.5 17.3 64.4 14.3 61.6 14.3 C 58.8 14.3 57.6 17.3 57.6 20.2 Z M 94 23.7 C 94 26.3 94.1 28.4 94.2 30 C 94.16 30 88.9 30 88.9 30 L 88.6 27.2 C 88.6 27.2 88.48 27.24 88.5 27.2 C 87.7 28.4 85.9 30.4 82.4 30.4 C 78.4 30.4 75.5 28 75.5 21.9 C 75.48 21.92 75.5 10.4 75.5 10.4 L 81.6 10.4 C 81.6 10.4 81.56 20.96 81.6 21 C 81.6 23.8 82.5 25.5 84.6 25.5 C 86.3 25.5 87.3 24.4 87.7 23.4 C 87.8 23 87.9 22.6 87.9 22.1 C 87.92 22.08 87.9 10.4 87.9 10.4 L 94 10.4 C 94 10.4 94 23.72 94 23.7 Z M 105.7 5.2 L 105.7 10.4 L 110 10.4 L 110 14.9 L 105.7 14.9 C 105.7 14.9 105.68 22 105.7 22 C 105.7 24.4 106.3 25.4 108.1 25.4 C 108.9 25.4 109.3 25.4 109.9 25.3 C 109.9 25.3 109.9 29.9 109.9 29.9 C 109.2 30.2 107.7 30.4 106 30.4 C 104 30.4 102.4 29.7 101.4 28.7 C 100.3 27.6 99.7 25.7 99.7 22.9 C 99.72 22.92 99.7 14.9 99.7 14.9 L 97.1 14.9 L 97.1 10.4 L 99.7 10.4 L 99.7 6.8 L 105.7 5.2 Z M 141.6 29.3 C 140.5 29.8 138 30.4 134.7 30.4 C 125.4 30.4 120.6 24.6 120.6 16.9 C 120.6 7.7 127.2 2.6 135.3 2.6 C 138.5 2.6 140.9 3.2 142 3.8 C 142 3.8 140.7 8.6 140.7 8.6 C 139.5 8.1 137.8 7.6 135.6 7.6 C 130.8 7.6 127 10.6 127 16.6 C 127 22 130.2 25.4 135.6 25.4 C 137.5 25.4 139.5 25 140.7 24.5 C 140.7 24.5 141.6 29.3 141.6 29.3 Z M 145.3 1.6 L 151.4 1.6 L 151.4 12.8 C 151.4 12.8 151.48 12.8 151.5 12.8 C 152.1 11.9 152.9 11.2 153.9 10.8 C 154.8 10.3 155.9 10 157 10 C 160.9 10 163.9 12.7 163.9 18.6 C 163.88 18.6 163.9 30 163.9 30 L 157.8 30 C 157.8 30 157.8 19.24 157.8 19.2 C 157.8 16.7 156.9 14.9 154.6 14.9 C 153 14.9 152 16 151.6 17.1 C 151.4 17.4 151.4 18 151.4 18.4 C 151.4 18.4 151.4 30 151.4 30 L 145.3 30 L 145.3 1.6 Z M 185 25.3 C 185 27.1 185.1 28.9 185.4 30 C 185.36 30 179.9 30 179.9 30 L 179.5 28 C 179.5 28 179.4 28.04 179.4 28 C 178.1 29.6 176.1 30.4 173.8 30.4 C 169.8 30.4 167.5 27.6 167.5 24.4 C 167.5 19.4 172 17 179 17 C 179 17 179 16.7 179 16.7 C 179 15.6 178.4 14.2 175.4 14.2 C 173.4 14.2 171.3 14.8 170 15.6 C 170 15.6 168.9 11.7 168.9 11.7 C 170.2 11 172.9 10 176.5 10 C 183 10 185 13.8 185 18.4 C 185 18.4 185 25.3 185 25.3 Z M 179.2 20.8 C 176 20.8 173.5 21.5 173.5 23.8 C 173.5 25.4 174.5 26.2 175.9 26.2 C 177.4 26.2 178.6 25.2 179 23.9 C 179.1 23.6 179.2 23.2 179.2 22.9 C 179.2 22.9 179.2 20.8 179.2 20.8 Z M 189.9 16.7 C 189.9 14.2 189.8 12.2 189.7 10.4 C 189.72 10.44 195 10.4 195 10.4 L 195.3 13.2 C 195.3 13.2 195.4 13.16 195.4 13.2 C 196.2 11.9 198.2 10 201.4 10 C 205.4 10 208.4 12.7 208.4 18.4 C 208.44 18.44 208.4 30 208.4 30 L 202.4 30 C 202.4 30 202.36 19.16 202.4 19.2 C 202.4 16.6 201.5 14.9 199.3 14.9 C 197.6 14.9 196.6 16.1 196.2 17.2 C 196 17.6 196 18.2 196 18.7 C 195.96 18.72 196 30 196 30 L 189.9 30 C 189.9 30 189.88 16.68 189.9 16.7 Z M 213.3 16.7 C 213.3 14.2 213.2 12.2 213.2 10.4 C 213.16 10.44 218.4 10.4 218.4 10.4 L 218.7 13.2 C 218.7 13.2 218.84 13.16 218.8 13.2 C 219.6 11.9 221.6 10 224.9 10 C 228.9 10 231.9 12.7 231.9 18.4 C 231.88 18.44 231.9 30 231.9 30 L 225.8 30 C 225.8 30 225.8 19.16 225.8 19.2 C 225.8 16.6 224.9 14.9 222.7 14.9 C 221 14.9 220 16.1 219.6 17.2 C 219.4 17.6 219.4 18.2 219.4 18.7 C 219.4 18.72 219.4 30 219.4 30 L 213.3 30 C 213.3 30 213.32 16.68 213.3 16.7 Z M 241.4 22.2 C 241.6 24.7 244.1 25.9 247 25.9 C 249 25.9 250.7 25.6 252.4 25 C 252.4 25 253.2 29.2 253.2 29.2 C 251.2 30 248.7 30.4 246.1 30.4 C 239.4 30.4 235.6 26.6 235.6 20.4 C 235.6 15.5 238.7 10 245.5 10 C 251.8 10 254.2 14.9 254.2 19.8 C 254.2 20.8 254.1 21.7 254 22.2 C 254 22.2 241.4 22.2 241.4 22.2 Z M 248.6 18 C 248.6 16.5 248 14 245.2 14 C 242.6 14 241.6 16.4 241.4 18 C 241.4 18 248.6 18 248.6 18 Z M 257.9 1.6 L 264 1.6 L 264 30 L 257.9 30 L 257.9 1.6 Z " stroke="none" fill="#000"/>  </g></svg>