<?xml version="1.0" standalone="no"?><!DOCTYPE svg PUBLIC "-//W3C//DTD SVG 1.1//EN" "http://www.w3.org/Graphics/SVG/1.1/DTD/svg11.dtd"><svg xmlns="http://www.w3.org/2000/svg" version="1.1" width="410px" height="84.5px" viewBox="0 0 410 84.5"><desc>Santa Rosa Island 52,794 acres</desc><defs/><g id="Polygon12758"><path d="m8.7 55l-4.6 0c0 0-.28 1.77-.3 1.8c.3-.1.5-.1.8-.1c1.1 0 2.3.3 3.1.9c.9.6 1.4 1.6 1.4 3c0 2.2-1.9 4.1-5 4.1c-1.5 0-2.7-.3-3.3-.7c0 0 .5-2 .5-2c.5.2 1.6.5 2.6.5c1.2 0 2.4-.5 2.4-1.8c0-1.2-1-1.9-3.3-1.9c-.7 0-1.1 0-1.6.1c-.02-.02.7-6.2.7-6.2l6.6 0l0 2.3zm2.2 9.5l0-1.7c0 0 1.48-1.34 1.5-1.3c2.6-2.4 3.8-3.7 3.8-5.1c0-.9-.5-1.7-1.9-1.7c-1 0-1.9.5-2.5 1c0 0-.8-2-.8-2c.9-.7 2.3-1.2 3.9-1.2c2.7 0 4.1 1.5 4.1 3.7c0 2-1.4 3.6-3.1 5.1c-.03-.02-1.1.9-1.1.9l0 0l4.4 0l0 2.3l-8.3 0zm9.3 2.2c.6-1.7 1.1-3.5 1.3-5.2c0 0 2.8-.2 2.8-.2c-.6 1.9-1.4 3.8-2.3 5.2c0 0-1.8.2-1.8.2zm13.9-14l0 1.7l-4.8 10.1l-3 0l4.9-9.5l0 0l-5.4 0l0-2.3l8.3 0zm2.5 9.8c.4.1.7 0 1.2 0c.9 0 1.7-.3 2.3-.7c.8-.5 1.3-1.3 1.5-2.2c0 0 0 0 0 0c-.5.5-1.3.8-2.4.8c-2 0-3.7-1.4-3.7-3.7c0-2.3 1.9-4.2 4.5-4.2c3 0 4.5 2.3 4.5 5.1c0 2.4-.8 4.2-2.1 5.4c-1.1 1-2.7 1.6-4.5 1.7c-.5 0-1 0-1.3 0c0 0 0-2.2 0-2.2zm1.7-5.9c0 1 .5 1.9 1.6 1.9c.8 0 1.3-.4 1.6-.8c.1-.2.1-.4.1-.7c0-1.3-.4-2.5-1.7-2.5c-1 0-1.6.8-1.6 2.1zm12.4 7.9l0-2.8l-5.2 0l0-1.8l4.4-7.2l3.4 0l0 6.9l1.4 0l0 2.1l-1.4 0l0 2.8l-2.6 0zm0-4.9c0 0 .02-2.61 0-2.6c0-.7.1-1.4.1-2.2c0 0-.1 0-.1 0c-.3.8-.7 1.4-1.1 2.2c.03-.01-1.5 2.6-1.5 2.6l0 0l2.6 0zm16.6 2.8c0 .8.1 1.6.2 2.1c-.02 0-2.5 0-2.5 0l-.2-.9c0 0-.03.01 0 0c-.6.7-1.5 1.1-2.6 1.1c-1.8 0-2.8-1.3-2.8-2.7c0-2.3 2-3.4 5.2-3.4c0 0 0-.1 0-.1c0-.5-.3-1.2-1.6-1.2c-1 0-1.9.3-2.5.7c0 0-.5-1.8-.5-1.8c.6-.4 1.8-.8 3.4-.8c3 0 3.9 1.7 3.9 3.8c0 0 0 3.2 0 3.2zm-2.6-2.1c-1.5 0-2.6.3-2.6 1.4c0 .7.5 1.1 1.1 1.1c.6 0 1.2-.5 1.4-1.1c0-.1.1-.3.1-.4c0 0 0-1 0-1zm11.5 4c-.5.2-1.4.4-2.5.4c-2.8 0-4.7-1.8-4.7-4.6c0-2.6 1.8-4.7 5.1-4.7c.7 0 1.5.1 2.1.4c0 0-.4 2-.4 2c-.3-.1-.8-.3-1.6-.3c-1.4 0-2.4 1.1-2.3 2.5c0 1.6 1 2.5 2.4 2.5c.6 0 1.2-.1 1.6-.3c0 0 .3 2.1.3 2.1zm1.5-5.8c0-1.3 0-2.1 0-2.9c-.04.01 2.3 0 2.3 0l.1 1.6c0 0 .1.05.1 0c.5-1.3 1.5-1.8 2.4-1.8c.3 0 .4 0 .6 0c0 0 0 2.6 0 2.6c-.2 0-.5 0-.8 0c-1 0-1.7.5-1.9 1.4c0 .2 0 .4 0 .6c-.01-.01 0 4.5 0 4.5l-2.8 0c0 0 .03-5.96 0-6zm8.9 2.4c.1 1.2 1.2 1.7 2.5 1.7c1 0 1.7-.1 2.5-.4c0 0 .3 1.9.3 1.9c-.9.4-2 .6-3.2.6c-3 0-4.7-1.8-4.7-4.5c0-2.3 1.4-4.8 4.5-4.8c2.8 0 3.9 2.2 3.9 4.4c0 .5 0 .9-.1 1.1c0 0-5.7 0-5.7 0zm3.3-1.9c0-.6-.3-1.8-1.6-1.8c-1.2 0-1.6 1.1-1.7 1.8c0 0 3.3 0 3.3 0zm4.2 3.1c.5.3 1.5.7 2.3.7c.9 0 1.2-.3 1.2-.8c0-.4-.2-.7-1.3-1c-1.8-.6-2.5-1.6-2.5-2.7c0-1.7 1.4-2.9 3.6-2.9c1 0 2 .2 2.5.5c0 0-.5 1.9-.5 1.9c-.4-.2-1.2-.5-1.9-.5c-.7 0-1.1.3-1.1.7c0 .5.4.7 1.5 1.1c1.7.5 2.4 1.4 2.4 2.7c0 1.7-1.3 2.9-3.9 2.9c-1.1 0-2.2-.3-2.8-.6c0 0 .5-2 .5-2z" stroke="none" fill="#000"/></g><g id="Polygon12757"><path d="m1 18.3c.03-.01 2.7-.4 2.7-.4c0 0 1.36 4 1.4 4c.6.2 1.2.2 1.8.2c2 0 3.2-.9 3.2-2.7c0-1.7-1-2.1-2.5-2.6c0 0-2-.7-2-.7c-2.8-1-4.6-2.7-4.6-5.8c0-4.1 3.8-5.9 8-5.9c2.3 0 4.5.4 5.6.9c.1.5.2 1.2.2 1.8c0 1-.1 2.3-.4 3.3c.05-.04-2.5 0-2.5 0c0 0-.81-3.46-.8-3.5c-.6-.1-1.3-.2-1.9-.2c-1.8 0-3.3.8-3.3 2.5c0 1.4.6 2.1 2.2 2.6c0 0 2.4.7 2.4.7c3.3 1.1 4.9 2.6 4.9 5.6c0 4.5-4.3 6.4-8.4 6.4c-2.3 0-4.3-.6-5.5-1.3c-.4-1.2-.5-3.5-.5-4.9zm24.4-2.7c0 0 0-1.9 0-1.9c0-1.4-.6-2.1-2.1-2.1c-.5 0-.9.1-1.4.2c0-.05-.5 2.5-.5 2.5c0 0-2.86 0-2.9 0c-.2-.8-.3-1.6-.3-2.4c0-.4 0-1 .1-1.3c1.9-1 4.3-1.5 6.5-1.5c3.7 0 5.7 1.4 5.7 4.4c0 2.4-.1 5.4-.1 8.1c-.02 0 1.5.4 1.5.4c0 0-.01 1.66 0 1.7c-1.7.4-3.8.7-6.4.7c0 0 0-2.2 0-2.2c-.7 1.4-2.2 2.2-4 2.2c-2.5 0-4.3-1.3-4.3-4c0-3.9 3.8-4.6 8.2-4.8zm0 5.4c0 0 0-3.6 0-3.6c-2.1.2-3.3.8-3.3 2.4c0 1.2.7 1.8 1.8 1.8c.6 0 1.1-.2 1.5-.6zm9.4 1c.03.02 0-9.8 0-9.8l-1.5-.4c0 0 .02-1.77 0-1.8c1.7-.4 4.1-.8 6.6-.8c0 0 0 2.4 0 2.4c1.1-1.7 3-2.5 5-2.5c3 0 4.7 1.8 4.7 4.5c0 0 0 8.4 0 8.4c.6.1 1.2.3 1.5.4c0 .01 0 1.7 0 1.7l-8.2 0c0 0 .02-1.69 0-1.7c.4-.1.9-.3 1.6-.4c0 0 0-7.3 0-7.3c0-1.3-.7-2-1.9-2c-1 0-1.9.3-2.7 1.1c0 0 0 8.2 0 8.2c.7.1 1.3.3 1.6.4c0 .01 0 1.7 0 1.7l-8.2 0c0 0-.01-1.69 0-1.7c.3-.1.9-.3 1.5-.4zm19.2-12.4c0 0 .2-2.6.2-2.6c1.2-.3 3.1-.4 4.8-.4c0 0-.1 2.9-.1 2.9l3.3 0l0 2.4l-3.3 0c0 0-.11 7.39-.1 7.4c0 1.4.4 1.9 1.4 1.9c.8 0 1.3-.4 1.8-.9c0 0 .9 1.3.9 1.3c-.8 1.4-2.5 2.8-5 2.8c-2.7 0-4.2-1.5-4.2-4.1c0-.01.1-8.4.1-8.4l-1.5 0c0 0-.02-1.81 0-1.8c.3-.2.8-.3 1.7-.5zm18.1 6c0 0 0-1.9 0-1.9c0-1.4-.6-2.1-2.1-2.1c-.4 0-.9.1-1.4.2c.04-.05-.4 2.5-.4 2.5c0 0-2.93 0-2.9 0c-.3-.8-.4-1.6-.4-2.4c0-.4.1-1 .2-1.3c1.8-1 4.2-1.5 6.4-1.5c3.7 0 5.7 1.4 5.7 4.4c0 2.4-.1 5.4-.1 8.1c.02 0 1.5.4 1.5.4c0 0 .03 1.66 0 1.7c-1.7.4-3.8.7-6.4.7c0 0 0-2.2 0-2.2c-.7 1.4-2.2 2.2-4 2.2c-2.5 0-4.2-1.3-4.2-4c0-3.9 3.7-4.6 8.1-4.8zm0 5.4c0 0 0-3.6 0-3.6c-2.1.2-3.3.8-3.3 2.4c0 1.2.8 1.8 1.8 1.8c.6 0 1.1-.2 1.5-.6zm15.2.9c0 0 0-15 0-15c-.8 0-1.3-.2-1.8-.4c.04.04 0-1.8 0-1.8c0 0 10.46.02 10.5 0c4 0 6.7 1.9 6.7 5.4c0 2.1-1.4 3.8-3.3 4.5c0 0 3.4 7.4 3.4 7.4c.6 0 1.1.1 1.5.3c-.04-.01 0 1.8 0 1.8l-6.4 0l-3.2-7.8l-2 0c0 0 .05 5.6 0 5.6c.8.1 1.4.2 1.9.4c-.04-.01 0 1.8 0 1.8l-9.1 0c0 0 .04-1.81 0-1.8c.5-.2 1-.3 1.8-.4zm5.4-7.9c0 0 1.5-.04 1.5 0c1.9 0 3-1.4 3-3.7c0-2.2-1.1-3.4-3.1-3.4c.01.01-1.4 0-1.4 0l0 7.1zm20.3-4.9c4.6 0 7.6 2.3 7.6 7.6c0 5.2-3.6 7.7-8.1 7.7c-4.6 0-7.5-2.2-7.5-7.5c0-5.3 3.4-7.8 8-7.8zm2.2 8.2c0-3.1-.5-5.8-2.5-5.8c-1.9 0-2.4 1.8-2.4 4.7c0 3.2.5 5.9 2.6 5.9c1.8 0 2.3-1.8 2.3-4.8zm7.2 5.1c0-1 .2-2 .4-3c-.01-.01 2.7 0 2.7 0c0 0 .44 2.68.4 2.7c.5.1 1 .1 1.5.1c1.3 0 2.2-.5 2.2-1.7c0-1.1-.8-1.4-2.3-1.9c0 0-1.6-.5-1.6-.5c-1.9-.6-3.3-1.8-3.3-4.3c0-3.4 3.1-4.7 6.6-4.7c1.6 0 3.5.3 4.7.8c.1.4.1.9.1 1.3c0 .9-.1 2-.4 3c0-.02-2.6 0-2.6 0c0 0-.55-2.69-.6-2.7c-.3-.1-.7-.1-1.2-.1c-1.1 0-2.2.4-2.2 1.5c0 1.2.9 1.5 2.1 1.9c0 0 1.6.5 1.6.5c2.3.7 3.9 1.8 3.9 4.2c0 3.2-2.4 5-7 5c-1.7 0-3.7-.3-4.8-.8c-.2-.4-.2-.9-.2-1.3zm21.8-6.8c0 0 0-1.9 0-1.9c0-1.4-.6-2.1-2.1-2.1c-.5 0-.9.1-1.4.2c0-.05-.5 2.5-.5 2.5c0 0-2.87 0-2.9 0c-.2-.8-.3-1.6-.3-2.4c0-.4 0-1 .1-1.3c1.9-1 4.3-1.5 6.5-1.5c3.7 0 5.7 1.4 5.7 4.4c0 2.4-.1 5.4-.1 8.1c-.02 0 1.5.4 1.5.4c0 0-.01 1.66 0 1.7c-1.7.4-3.8.7-6.4.7c0 0 0-2.2 0-2.2c-.7 1.4-2.2 2.2-4 2.2c-2.5 0-4.3-1.3-4.3-4c0-3.9 3.8-4.6 8.2-4.8zm0 5.4c0 0 0-3.6 0-3.6c-2.1.2-3.4.8-3.4 2.4c0 1.2.8 1.8 1.9 1.8c.6 0 1.1-.2 1.5-.6zm15.2.9c0 0 0-15 0-15c-.8 0-1.3-.2-1.8-.4c0 .04 0-1.8 0-1.8l9 0c0 0 .02 1.84 0 1.8c-.4.2-1 .4-1.8.4c0 0 0 15 0 15c.8.1 1.4.2 1.8.4c.02-.01 0 1.8 0 1.8l-9 0c0 0 0-1.81 0-1.8c.5-.2 1-.3 1.8-.4zm8.9.5c0-1 .2-2 .4-3c.01-.01 2.7 0 2.7 0c0 0 .46 2.68.5 2.7c.4.1.9.1 1.4.1c1.3 0 2.2-.5 2.2-1.7c0-1.1-.8-1.4-2.2-1.9c0 0-1.6-.5-1.6-.5c-2-.6-3.4-1.8-3.4-4.3c0-3.4 3.1-4.7 6.6-4.7c1.7 0 3.6.3 4.7.8c.1.4.1.9.1 1.3c0 .9-.1 2-.4 3c.02-.02-2.6 0-2.6 0c0 0-.53-2.69-.5-2.7c-.4-.1-.8-.1-1.3-.1c-1.1 0-2.2.4-2.2 1.5c0 1.2.9 1.5 2.1 1.9c0 0 1.6.5 1.6.5c2.3.7 3.9 1.8 3.9 4.2c0 3.2-2.4 5-7 5c-1.6 0-3.7-.3-4.8-.8c-.1-.4-.2-.9-.2-1.3zm14.8-.4c0 .02 0-16.2 0-16.2l-1.8-.4c0 0 .01-1.8 0-1.8c1.7-.5 4.3-.7 6.9-.7c0 0 0 19.1 0 19.1c.7.1 1.2.3 1.6.4c-.03.01 0 1.7 0 1.7l-8.2 0c0 0-.04-1.69 0-1.7c.3-.1.8-.3 1.5-.4zm16.1-6.4c0 0 0-1.9 0-1.9c0-1.4-.7-2.1-2.2-2.1c-.4 0-.9.1-1.4.2c.04-.05-.4 2.5-.4 2.5c0 0-2.92 0-2.9 0c-.3-.8-.4-1.6-.4-2.4c0-.4.1-1 .2-1.3c1.8-1 4.2-1.5 6.4-1.5c3.7 0 5.7 1.4 5.7 4.4c0 2.4-.1 5.4-.1 8.1c.02 0 1.5.4 1.5.4c0 0 .04 1.66 0 1.7c-1.7.4-3.8.7-6.4.7c0 0 0-2.2 0-2.2c-.7 1.4-2.2 2.2-4 2.2c-2.5 0-4.2-1.3-4.2-4c0-3.9 3.7-4.6 8.2-4.8zm0 5.4c0 0 0-3.6 0-3.6c-2.2.2-3.4.8-3.4 2.4c0 1.2.8 1.8 1.8 1.8c.6 0 1.1-.2 1.6-.6zm9.4 1c-.02.02 0-9.8 0-9.8l-1.5-.4c0 0-.04-1.77 0-1.8c1.7-.4 4-.8 6.6-.8c0 0 0 2.4 0 2.4c1-1.7 2.9-2.5 5-2.5c3 0 4.6 1.8 4.6 4.5c0 0 0 8.4 0 8.4c.7.1 1.2.3 1.5.4c.04.01 0 1.7 0 1.7l-8.1 0c0 0-.04-1.69 0-1.7c.3-.1.8-.3 1.5-.4c0 0 0-7.3 0-7.3c0-1.3-.7-2-1.9-2c-1 0-1.8.3-2.6 1.1c0 0 0 8.2 0 8.2c.6.1 1.2.3 1.5.4c.04.01 0 1.7 0 1.7l-8.2 0c0 0 .03-1.69 0-1.7c.4-.1.9-.3 1.6-.4zm24.6-13c1.3 0 2.3.5 3 1.2c-.03.01 0-4.4 0-4.4l-1.9-.4c0 0-.01-1.8 0-1.8c1.7-.5 4.4-.7 7-.7c-.04.01 0 18.7 0 18.7l1.5.4c0 0-.03 1.66 0 1.7c-1.7.4-4 .7-6.5.7c0 0 0-2.4 0-2.4c-.8 1.6-2.3 2.5-4.2 2.5c-3.6 0-5.9-2.8-5.9-7.4c0-5 2.9-8.1 7-8.1zm3 11.4c0 0 0-8.3 0-8.3c-.4-.1-.8-.1-1.2-.1c-2.3 0-3.5 2-3.5 4.7c0 3.3 1.2 4.5 2.9 4.5c.6 0 1.3-.3 1.8-.8z" stroke="none" fill="#404040"/></g></svg>