<?xml version="1.0" standalone="no"?><!DOCTYPE svg PUBLIC "-//W3C//DTD SVG 1.1//EN" "http://www.w3.org/Graphics/SVG/1.1/DTD/svg11.dtd"><svg xmlns="http://www.w3.org/2000/svg" version="1.1" width="133.2px" height="31px" viewBox="0 0 133.2 31"><desc>1 of 2</desc><defs/><g id="Polygon14179"><path d="m92.1 3.6l0 0l-2.3 1.3l-.3-1.4l2.8-1.5l1.5 0l0 13l-1.7 0l0-11.4zm20 6.5c0 3.6-2.5 5.1-4.8 5.1c-2.6 0-4.7-1.9-4.7-5c0-3.2 2.2-5.1 4.8-5.1c2.8 0 4.7 2 4.7 5zm-7.7.1c0 2.1 1.2 3.7 3 3.7c1.6 0 2.9-1.6 2.9-3.8c0-1.6-.8-3.7-2.9-3.7c-2.1 0-3 2-3 3.8zm10.1 4.8l0-8.3l-1.3 0l0-1.4l1.3 0c0 0 .01-.44 0-.4c0-1.4.3-2.6 1.1-3.4c.7-.7 1.6-.9 2.4-.9c.6 0 1.1.1 1.5.3c0 0-.3 1.3-.3 1.3c-.2-.1-.6-.2-1.1-.2c-1.5 0-1.9 1.3-1.9 2.8c.05 0 0 .5 0 .5l2.4 0l0 1.4l-2.4 0l0 8.3l-1.7 0zm9.3 0l0-1.1c0 0 1.43-1.32 1.4-1.3c3.3-3.2 4.9-4.9 4.9-6.8c0-1.3-.7-2.6-2.6-2.6c-1.2 0-2.2.6-2.8 1.1c0 0-.5-1.2-.5-1.2c.9-.7 2.2-1.3 3.6-1.3c2.8 0 4 1.9 4 3.8c0 2.4-1.7 4.3-4.5 6.9c.05.04-1 1-1 1l0 0l5.8 0l0 1.5l-8.3 0z" stroke="none" fill="#fff"/></g></svg>