<?xml version="1.0" standalone="no"?><!DOCTYPE svg PUBLIC "-//W3C//DTD SVG 1.1//EN" "http://www.w3.org/Graphics/SVG/1.1/DTD/svg11.dtd"><svg xmlns="http://www.w3.org/2000/svg" version="1.1" width="219.4px" height="54px" viewBox="0 0 219.4 54">  <desc>Home</desc>  <defs/>  <g id="Polygon11459">    <path d="M 43.5 19.2 L 43.5 23.4 L 47.5 23.4 L 47.5 19.2 L 50 19.2 L 50 30 L 47.5 30 L 47.5 25.5 L 43.5 25.5 L 43.5 30 L 41.1 30 L 41.1 19.2 L 43.5 19.2 Z M 59.7 26 C 59.7 28.9 57.6 30.2 55.6 30.2 C 53.3 30.2 51.5 28.7 51.5 26.1 C 51.5 23.6 53.2 22 55.7 22 C 58.1 22 59.7 23.6 59.7 26 Z M 54 26.1 C 54 27.4 54.6 28.4 55.6 28.4 C 56.6 28.4 57.2 27.5 57.2 26.1 C 57.2 24.9 56.7 23.7 55.6 23.7 C 54.5 23.7 54 24.9 54 26.1 Z M 61.2 24.7 C 61.2 23.7 61.2 22.9 61.1 22.2 C 61.12 22.18 63.2 22.2 63.2 22.2 L 63.3 23.2 C 63.3 23.2 63.33 23.23 63.3 23.2 C 63.7 22.7 64.4 22 65.7 22 C 66.7 22 67.5 22.5 67.8 23.3 C 67.8 23.3 67.9 23.3 67.9 23.3 C 68.2 22.9 68.5 22.6 68.9 22.4 C 69.3 22.1 69.8 22 70.4 22 C 71.9 22 73 23 73 25.4 C 73.02 25.39 73 30 73 30 L 70.7 30 C 70.7 30 70.66 25.74 70.7 25.7 C 70.7 24.6 70.3 24 69.5 24 C 68.9 24 68.5 24.3 68.4 24.8 C 68.3 25 68.3 25.2 68.3 25.4 C 68.29 25.42 68.3 30 68.3 30 L 65.9 30 C 65.9 30 65.92 25.6 65.9 25.6 C 65.9 24.6 65.6 24 64.8 24 C 64.2 24 63.8 24.4 63.6 24.8 C 63.6 25 63.6 25.2 63.6 25.4 C 63.55 25.44 63.6 30 63.6 30 L 61.2 30 C 61.2 30 61.18 24.67 61.2 24.7 Z M 76.8 26.9 C 76.9 27.9 77.9 28.4 79 28.4 C 79.9 28.4 80.5 28.2 81.2 28 C 81.2 28 81.5 29.7 81.5 29.7 C 80.7 30 79.7 30.2 78.7 30.2 C 76 30.2 74.5 28.6 74.5 26.2 C 74.5 24.2 75.7 22 78.4 22 C 81 22 81.9 24 81.9 25.9 C 81.9 26.3 81.9 26.7 81.9 26.9 C 81.9 26.9 76.8 26.9 76.8 26.9 Z M 79.7 25.2 C 79.7 24.6 79.4 23.6 78.3 23.6 C 77.3 23.6 76.9 24.6 76.8 25.2 C 76.8 25.2 79.7 25.2 79.7 25.2 Z " stroke="none" fill="#fff"/>  </g></svg>