<?xml version="1.0" standalone="no"?>
<!DOCTYPE svg PUBLIC "-//W3C//DTD SVG 1.1//EN" "http://www.w3.org/Graphics/SVG/1.1/DTD/svg11.dtd">
<svg xmlns="http://www.w3.org/2000/svg" version="1.1" width="759.1px" height="96.6px" viewBox="0 -20 759.1 96.6" style="top:-20px">
  <desc>Pro Bono</desc>
  <defs/>
  <g id="Polygon61444">
    <path d="M 6.7 43.7 L 6.7 0.7 C 6.7 0.7 22.92 0.73 22.9 0.7 C 25.8 0.7 28 0.9 29.5 1.1 C 31.6 1.5 33.3 2.2 34.8 3.1 C 36.2 4.1 37.3 5.5 38.2 7.3 C 39.1 9.1 39.5 11 39.5 13.2 C 39.5 16.8 38.3 19.9 36 22.4 C 33.7 25 29.5 26.2 23.4 26.2 C 23.42 26.22 12.4 26.2 12.4 26.2 L 12.4 43.7 L 6.7 43.7 Z M 12.4 21.2 C 12.4 21.2 23.51 21.15 23.5 21.2 C 27.2 21.2 29.8 20.5 31.3 19.1 C 32.9 17.7 33.6 15.8 33.6 13.3 C 33.6 11.5 33.2 10 32.3 8.7 C 31.4 7.4 30.2 6.6 28.7 6.2 C 27.7 5.9 26 5.8 23.4 5.8 C 23.39 5.8 12.4 5.8 12.4 5.8 L 12.4 21.2 Z M 46 43.7 L 46 12.6 L 50.8 12.6 C 50.8 12.6 50.75 17.29 50.8 17.3 C 52 15.1 53.1 13.6 54.1 12.9 C 55.1 12.2 56.3 11.9 57.5 11.9 C 59.3 11.9 61.1 12.4 62.9 13.6 C 62.9 13.6 61.1 18.5 61.1 18.5 C 59.8 17.7 58.5 17.3 57.2 17.3 C 56.1 17.3 55 17.7 54.1 18.4 C 53.2 19 52.5 20 52.2 21.2 C 51.6 23.1 51.3 25.2 51.3 27.4 C 51.28 27.39 51.3 43.7 51.3 43.7 L 46 43.7 Z M 64.1 28.1 C 64.1 22.4 65.7 18.1 68.9 15.3 C 71.6 13 74.8 11.9 78.7 11.9 C 83 11.9 86.4 13.3 89.2 16.1 C 91.9 18.9 93.2 22.7 93.2 27.7 C 93.2 31.7 92.6 34.8 91.4 37.1 C 90.2 39.4 88.5 41.2 86.2 42.5 C 83.9 43.7 81.4 44.4 78.7 44.4 C 74.3 44.4 70.8 43 68.1 40.2 C 65.4 37.4 64.1 33.4 64.1 28.1 Z M 69.5 28.1 C 69.5 32.1 70.4 35.1 72.1 37.1 C 73.8 39.1 76 40 78.7 40 C 81.3 40 83.5 39.1 85.2 37.1 C 86.9 35.1 87.8 32 87.8 27.9 C 87.8 24.1 86.9 21.2 85.2 19.2 C 83.4 17.2 81.3 16.2 78.7 16.2 C 76 16.2 73.8 17.2 72.1 19.2 C 70.4 21.2 69.5 24.1 69.5 28.1 Z M 116.5 43.7 L 116.5 0.7 C 116.5 0.7 132.64 0.73 132.6 0.7 C 135.9 0.7 138.6 1.2 140.5 2 C 142.5 2.9 144.1 4.2 145.2 6 C 146.3 7.9 146.9 9.7 146.9 11.7 C 146.9 13.6 146.4 15.3 145.4 16.9 C 144.4 18.5 142.9 19.8 140.9 20.8 C 143.5 21.6 145.5 22.9 146.9 24.7 C 148.3 26.6 149 28.7 149 31.2 C 149 33.2 148.5 35.1 147.7 36.8 C 146.8 38.6 145.8 39.9 144.5 40.8 C 143.3 41.8 141.7 42.5 139.8 43 C 137.9 43.4 135.6 43.7 132.9 43.7 C 132.9 43.68 116.5 43.7 116.5 43.7 Z M 122.2 18.8 C 122.2 18.8 131.5 18.78 131.5 18.8 C 134 18.8 135.8 18.6 136.9 18.3 C 138.4 17.9 139.4 17.1 140.2 16.1 C 140.9 15.1 141.3 13.9 141.3 12.4 C 141.3 11 140.9 9.7 140.3 8.6 C 139.6 7.5 138.6 6.8 137.3 6.4 C 136.1 6 133.9 5.8 130.8 5.8 C 130.79 5.8 122.2 5.8 122.2 5.8 L 122.2 18.8 Z M 122.2 38.6 C 122.2 38.6 132.9 38.61 132.9 38.6 C 134.7 38.6 136 38.5 136.8 38.4 C 138.1 38.2 139.2 37.8 140.1 37.2 C 140.9 36.7 141.7 35.9 142.2 34.8 C 142.8 33.8 143.1 32.6 143.1 31.2 C 143.1 29.6 142.7 28.2 141.8 27.1 C 141 25.9 139.9 25 138.4 24.6 C 137 24.1 134.9 23.8 132.1 23.8 C 132.14 23.85 122.2 23.8 122.2 23.8 L 122.2 38.6 Z M 154.1 28.1 C 154.1 22.4 155.7 18.1 158.9 15.3 C 161.6 13 164.9 11.9 168.7 11.9 C 173 11.9 176.5 13.3 179.2 16.1 C 181.9 18.9 183.3 22.7 183.3 27.7 C 183.3 31.7 182.7 34.8 181.5 37.1 C 180.3 39.4 178.5 41.2 176.2 42.5 C 174 43.7 171.4 44.4 168.7 44.4 C 164.4 44.4 160.9 43 158.2 40.2 C 155.5 37.4 154.1 33.4 154.1 28.1 Z M 159.6 28.1 C 159.6 32.1 160.4 35.1 162.2 37.1 C 163.9 39.1 166.1 40 168.7 40 C 171.3 40 173.5 39.1 175.3 37.1 C 177 35.1 177.9 32 177.9 27.9 C 177.9 24.1 177 21.2 175.3 19.2 C 173.5 17.2 171.3 16.2 168.7 16.2 C 166.1 16.2 163.9 17.2 162.2 19.2 C 160.4 21.2 159.6 24.1 159.6 28.1 Z M 189.5 43.7 L 189.5 12.6 L 194.2 12.6 C 194.2 12.6 194.22 16.99 194.2 17 C 196.5 13.6 199.8 11.9 204.1 11.9 C 206 11.9 207.7 12.2 209.3 12.9 C 210.9 13.5 212 14.4 212.8 15.5 C 213.6 16.6 214.2 17.9 214.5 19.4 C 214.7 20.4 214.8 22.1 214.8 24.6 C 214.76 24.55 214.8 43.7 214.8 43.7 L 209.5 43.7 C 209.5 43.7 209.48 24.76 209.5 24.8 C 209.5 22.6 209.3 21 208.9 19.9 C 208.5 18.9 207.7 18 206.7 17.4 C 205.6 16.8 204.4 16.4 203 16.4 C 200.8 16.4 198.8 17.1 197.2 18.6 C 195.6 20 194.7 22.7 194.7 26.7 C 194.75 26.69 194.7 43.7 194.7 43.7 L 189.5 43.7 Z M 220.9 28.1 C 220.9 22.4 222.5 18.1 225.7 15.3 C 228.4 13 231.6 11.9 235.5 11.9 C 239.7 11.9 243.2 13.3 246 16.1 C 248.7 18.9 250 22.7 250 27.7 C 250 31.7 249.4 34.8 248.2 37.1 C 247 39.4 245.3 41.2 243 42.5 C 240.7 43.7 238.2 44.4 235.5 44.4 C 231.1 44.4 227.6 43 224.9 40.2 C 222.2 37.4 220.9 33.4 220.9 28.1 Z M 226.3 28.1 C 226.3 32.1 227.2 35.1 228.9 37.1 C 230.6 39.1 232.8 40 235.5 40 C 238.1 40 240.3 39.1 242 37.1 C 243.7 35.1 244.6 32 244.6 27.9 C 244.6 24.1 243.7 21.2 242 19.2 C 240.2 17.2 238.1 16.2 235.5 16.2 C 232.8 16.2 230.6 17.2 228.9 19.2 C 227.2 21.2 226.3 24.1 226.3 28.1 Z " stroke="none" fill="#ffffff"/>
  </g>
</svg>