<?xml version="1.0" standalone="no"?>
<!DOCTYPE svg PUBLIC "-//W3C//DTD SVG 1.1//EN" "http://www.w3.org/Graphics/SVG/1.1/DTD/svg11.dtd">
<svg xmlns="http://www.w3.org/2000/svg" version="1.1" width="112px" height="48.8px" viewBox="0 -5 112 48.8" style="top:-5px">
  <desc>Shower &amp; Locker Facilities</desc>
  <defs/>
  <g id="Polygon63706">
    <path d="M 1.1 27.8 L 1.1 17.5 L 2.4 17.5 L 2.4 26.5 L 7.5 26.5 L 7.5 27.8 L 1.1 27.8 Z M 8.3 24 C 8.3 22.6 8.7 21.6 9.4 21 C 10.1 20.4 10.9 20.1 11.8 20.1 C 12.8 20.1 13.7 20.5 14.3 21.1 C 15 21.8 15.3 22.7 15.3 23.9 C 15.3 24.9 15.1 25.6 14.9 26.2 C 14.6 26.7 14.1 27.2 13.6 27.5 C 13 27.8 12.4 27.9 11.8 27.9 C 10.7 27.9 9.9 27.6 9.3 26.9 C 8.6 26.3 8.3 25.3 8.3 24 Z M 9.6 24 C 9.6 25 9.8 25.7 10.2 26.2 C 10.6 26.7 11.2 26.9 11.8 26.9 C 12.4 26.9 12.9 26.7 13.4 26.2 C 13.8 25.7 14 25 14 24 C 14 23.1 13.8 22.4 13.4 21.9 C 12.9 21.4 12.4 21.2 11.8 21.2 C 11.2 21.2 10.6 21.4 10.2 21.9 C 9.8 22.4 9.6 23.1 9.6 24 Z M 21.6 25 C 21.6 25 22.9 25.2 22.9 25.2 C 22.7 26 22.4 26.7 21.8 27.2 C 21.2 27.7 20.6 27.9 19.7 27.9 C 18.7 27.9 17.9 27.6 17.3 26.9 C 16.7 26.3 16.3 25.3 16.3 24.1 C 16.3 23.3 16.5 22.5 16.7 21.9 C 17 21.3 17.4 20.9 18 20.6 C 18.5 20.3 19.1 20.1 19.7 20.1 C 20.6 20.1 21.2 20.3 21.7 20.7 C 22.3 21.2 22.6 21.7 22.7 22.5 C 22.7 22.5 21.5 22.7 21.5 22.7 C 21.4 22.2 21.2 21.8 20.9 21.5 C 20.6 21.3 20.2 21.2 19.8 21.2 C 19.2 21.2 18.6 21.4 18.2 21.9 C 17.8 22.3 17.6 23 17.6 24 C 17.6 25 17.8 25.8 18.2 26.2 C 18.6 26.7 19.1 26.9 19.7 26.9 C 20.2 26.9 20.6 26.7 21 26.4 C 21.3 26.1 21.5 25.7 21.6 25 Z M 24 27.8 L 24 17.5 L 25.2 17.5 L 25.2 23.3 L 28.2 20.3 L 29.9 20.3 L 27 23.1 L 30.1 27.8 L 28.6 27.8 L 26.1 23.9 L 25.2 24.8 L 25.2 27.8 L 24 27.8 Z M 35.8 25.4 C 35.8 25.4 37.1 25.5 37.1 25.5 C 36.9 26.3 36.5 26.9 36 27.3 C 35.4 27.7 34.7 27.9 33.8 27.9 C 32.7 27.9 31.9 27.6 31.2 26.9 C 30.6 26.3 30.3 25.3 30.3 24.1 C 30.3 22.8 30.6 21.9 31.3 21.2 C 31.9 20.5 32.7 20.1 33.8 20.1 C 34.8 20.1 35.6 20.5 36.2 21.1 C 36.8 21.8 37.2 22.8 37.2 24 C 37.2 24.1 37.2 24.2 37.2 24.4 C 37.2 24.4 31.6 24.4 31.6 24.4 C 31.6 25.2 31.9 25.8 32.3 26.2 C 32.7 26.7 33.2 26.9 33.8 26.9 C 34.3 26.9 34.7 26.8 35 26.5 C 35.4 26.3 35.6 25.9 35.8 25.4 Z M 31.7 23.3 C 31.7 23.3 35.8 23.3 35.8 23.3 C 35.8 22.7 35.6 22.2 35.4 21.9 C 34.9 21.4 34.4 21.2 33.8 21.2 C 33.2 21.2 32.7 21.4 32.3 21.8 C 31.9 22.1 31.7 22.7 31.7 23.3 Z M 38.6 27.8 L 38.6 20.3 L 39.7 20.3 C 39.7 20.3 39.74 21.43 39.7 21.4 C 40 20.9 40.3 20.5 40.5 20.4 C 40.8 20.2 41.1 20.1 41.4 20.1 C 41.8 20.1 42.2 20.3 42.7 20.5 C 42.7 20.5 42.2 21.7 42.2 21.7 C 41.9 21.5 41.6 21.4 41.3 21.4 C 41 21.4 40.8 21.5 40.5 21.7 C 40.3 21.9 40.2 22.1 40.1 22.4 C 39.9 22.8 39.9 23.3 39.9 23.9 C 39.86 23.85 39.9 27.8 39.9 27.8 L 38.6 27.8 Z M 47.6 27.8 L 47.6 17.5 L 54.6 17.5 L 54.6 18.7 L 49 18.7 L 49 21.9 L 53.8 21.9 L 53.8 23.1 L 49 23.1 L 49 27.8 L 47.6 27.8 Z M 60.8 27.8 C 60.7 27.5 60.6 27.2 60.6 26.8 C 60.1 27.2 59.6 27.5 59.2 27.7 C 58.8 27.9 58.3 27.9 57.8 27.9 C 57 27.9 56.4 27.7 55.9 27.3 C 55.5 26.9 55.3 26.4 55.3 25.8 C 55.3 25.4 55.3 25.1 55.5 24.8 C 55.7 24.5 55.9 24.2 56.2 24.1 C 56.4 23.9 56.7 23.7 57.1 23.7 C 57.3 23.6 57.7 23.5 58.2 23.5 C 59.2 23.3 60 23.2 60.5 23 C 60.5 22.9 60.5 22.7 60.5 22.7 C 60.5 22.2 60.3 21.8 60.1 21.6 C 59.8 21.3 59.3 21.2 58.7 21.2 C 58.1 21.2 57.6 21.3 57.3 21.5 C 57.1 21.7 56.8 22.1 56.7 22.6 C 56.7 22.6 55.5 22.4 55.5 22.4 C 55.6 21.9 55.8 21.5 56 21.1 C 56.3 20.8 56.7 20.6 57.1 20.4 C 57.6 20.2 58.2 20.1 58.8 20.1 C 59.5 20.1 60 20.2 60.4 20.4 C 60.8 20.5 61.1 20.7 61.3 20.9 C 61.5 21.1 61.6 21.4 61.7 21.8 C 61.7 22 61.7 22.4 61.7 22.9 C 61.7 22.9 61.7 24.6 61.7 24.6 C 61.7 25.8 61.8 26.6 61.8 26.9 C 61.9 27.2 62 27.5 62.1 27.8 C 62.13 27.76 60.8 27.8 60.8 27.8 C 60.8 27.8 60.81 27.76 60.8 27.8 Z M 60.5 24 C 60 24.2 59.3 24.4 58.4 24.5 C 57.9 24.6 57.5 24.7 57.3 24.7 C 57.1 24.8 56.9 25 56.8 25.2 C 56.7 25.3 56.6 25.5 56.6 25.8 C 56.6 26.1 56.7 26.4 57 26.6 C 57.2 26.8 57.6 26.9 58.1 26.9 C 58.6 26.9 59 26.8 59.4 26.6 C 59.8 26.4 60.1 26.1 60.2 25.7 C 60.4 25.5 60.5 25 60.5 24.5 C 60.5 24.5 60.5 24 60.5 24 Z M 68.4 25 C 68.4 25 69.6 25.2 69.6 25.2 C 69.5 26 69.1 26.7 68.6 27.2 C 68 27.7 67.3 27.9 66.5 27.9 C 65.5 27.9 64.7 27.6 64.1 26.9 C 63.4 26.3 63.1 25.3 63.1 24.1 C 63.1 23.3 63.3 22.5 63.5 21.9 C 63.8 21.3 64.2 20.9 64.7 20.6 C 65.3 20.3 65.9 20.1 66.5 20.1 C 67.3 20.1 68 20.3 68.5 20.7 C 69 21.2 69.4 21.7 69.5 22.5 C 69.5 22.5 68.3 22.7 68.3 22.7 C 68.2 22.2 68 21.8 67.7 21.5 C 67.4 21.3 67 21.2 66.6 21.2 C 65.9 21.2 65.4 21.4 65 21.9 C 64.6 22.3 64.4 23 64.4 24 C 64.4 25 64.6 25.8 65 26.2 C 65.4 26.7 65.9 26.9 66.5 26.9 C 67 26.9 67.4 26.7 67.8 26.4 C 68.1 26.1 68.3 25.7 68.4 25 Z M 70.8 18.9 L 70.8 17.5 L 72 17.5 L 72 18.9 L 70.8 18.9 Z M 70.8 27.8 L 70.8 20.3 L 72 20.3 L 72 27.8 L 70.8 27.8 Z M 73.8 27.8 L 73.8 17.5 L 75.1 17.5 L 75.1 27.8 L 73.8 27.8 Z M 76.9 18.9 L 76.9 17.5 L 78.1 17.5 L 78.1 18.9 L 76.9 18.9 Z M 76.9 27.8 L 76.9 20.3 L 78.1 20.3 L 78.1 27.8 L 76.9 27.8 Z M 82.1 26.7 C 82.3 26.7 82.5 26.7 82.7 26.6 C 82.7 26.6 82.9 27.7 82.9 27.7 C 82.5 27.8 82.2 27.9 81.9 27.9 C 81.5 27.9 81.1 27.8 80.9 27.6 C 80.6 27.5 80.4 27.3 80.3 27.1 C 80.2 26.8 80.2 26.3 80.2 25.6 C 80.16 25.58 80.2 21.3 80.2 21.3 L 79.2 21.3 L 79.2 20.3 L 80.2 20.3 L 80.2 18.4 L 81.4 17.7 L 81.4 20.3 L 82.7 20.3 L 82.7 21.3 L 81.4 21.3 C 81.4 21.3 81.42 25.65 81.4 25.6 C 81.4 26 81.4 26.2 81.5 26.3 C 81.5 26.4 81.6 26.5 81.7 26.6 C 81.8 26.7 82 26.7 82.1 26.7 C 82.1 26.7 82.1 26.7 82.1 26.7 Z M 83.9 18.9 L 83.9 17.5 L 85.2 17.5 L 85.2 18.9 L 83.9 18.9 Z M 83.9 27.8 L 83.9 20.3 L 85.2 20.3 L 85.2 27.8 L 83.9 27.8 Z M 92.1 25.4 C 92.1 25.4 93.4 25.5 93.4 25.5 C 93.2 26.3 92.8 26.9 92.3 27.3 C 91.7 27.7 91 27.9 90.1 27.9 C 89.1 27.9 88.2 27.6 87.5 26.9 C 86.9 26.3 86.6 25.3 86.6 24.1 C 86.6 22.8 86.9 21.9 87.6 21.2 C 88.2 20.5 89 20.1 90.1 20.1 C 91.1 20.1 91.9 20.5 92.5 21.1 C 93.2 21.8 93.5 22.8 93.5 24 C 93.5 24.1 93.5 24.2 93.5 24.4 C 93.5 24.4 87.9 24.4 87.9 24.4 C 87.9 25.2 88.2 25.8 88.6 26.2 C 89 26.7 89.5 26.9 90.1 26.9 C 90.6 26.9 91 26.8 91.3 26.5 C 91.7 26.3 91.9 25.9 92.1 25.4 Z M 88 23.3 C 88 23.3 92.1 23.3 92.1 23.3 C 92.1 22.7 91.9 22.2 91.7 21.9 C 91.3 21.4 90.7 21.2 90.1 21.2 C 89.5 21.2 89 21.4 88.6 21.8 C 88.2 22.1 88 22.7 88 23.3 Z M 94.4 25.5 C 94.4 25.5 95.7 25.3 95.7 25.3 C 95.8 25.8 96 26.2 96.3 26.5 C 96.6 26.8 97.1 26.9 97.6 26.9 C 98.2 26.9 98.6 26.8 98.9 26.5 C 99.2 26.3 99.3 26 99.3 25.7 C 99.3 25.4 99.2 25.2 99 25 C 98.8 24.9 98.4 24.8 97.7 24.6 C 96.8 24.4 96.1 24.2 95.8 24 C 95.4 23.8 95.1 23.6 94.9 23.3 C 94.8 23 94.7 22.6 94.7 22.3 C 94.7 21.9 94.7 21.6 94.9 21.4 C 95 21.1 95.2 20.8 95.5 20.6 C 95.7 20.5 96 20.4 96.3 20.3 C 96.7 20.2 97 20.1 97.4 20.1 C 98 20.1 98.5 20.2 99 20.4 C 99.4 20.5 99.7 20.8 99.9 21.1 C 100.1 21.4 100.3 21.7 100.4 22.2 C 100.4 22.2 99.1 22.4 99.1 22.4 C 99.1 22 98.9 21.7 98.6 21.5 C 98.4 21.3 98 21.2 97.5 21.2 C 96.9 21.2 96.5 21.3 96.3 21.5 C 96 21.6 95.9 21.9 95.9 22.1 C 95.9 22.3 95.9 22.4 96 22.6 C 96.1 22.7 96.3 22.8 96.5 22.9 C 96.6 23 97 23.1 97.6 23.2 C 98.5 23.5 99.2 23.7 99.5 23.8 C 99.9 24 100.1 24.2 100.3 24.5 C 100.5 24.8 100.6 25.1 100.6 25.6 C 100.6 26 100.5 26.4 100.3 26.8 C 100 27.1 99.7 27.4 99.2 27.6 C 98.7 27.8 98.2 27.9 97.6 27.9 C 96.7 27.9 95.9 27.7 95.4 27.3 C 94.9 26.9 94.6 26.3 94.4 25.5 Z " stroke="none" fill="#ffffff"/>
  </g>
  <g id="Polygon63705">
    <path d="M 0.6 7.2 C 0.6 7.2 1.9 7.1 1.9 7.1 C 2 7.6 2.1 8 2.4 8.3 C 2.6 8.7 2.9 8.9 3.4 9.1 C 3.9 9.3 4.4 9.4 5 9.4 C 5.5 9.4 6 9.4 6.4 9.2 C 6.8 9 7.1 8.8 7.2 8.6 C 7.4 8.3 7.5 8 7.5 7.7 C 7.5 7.4 7.4 7.1 7.3 6.8 C 7.1 6.6 6.8 6.4 6.3 6.2 C 6.1 6.1 5.4 6 4.5 5.7 C 3.5 5.5 2.9 5.3 2.5 5.1 C 2 4.8 1.6 4.5 1.4 4.1 C 1.2 3.7 1 3.3 1 2.8 C 1 2.3 1.2 1.8 1.5 1.4 C 1.8 0.9 2.2 0.6 2.8 0.4 C 3.3 0.1 4 0 4.7 0 C 5.4 0 6.1 0.1 6.7 0.4 C 7.3 0.6 7.7 1 8 1.5 C 8.4 1.9 8.5 2.5 8.5 3.1 C 8.5 3.1 7.2 3.2 7.2 3.2 C 7.2 2.5 6.9 2 6.5 1.7 C 6.1 1.4 5.5 1.2 4.7 1.2 C 3.9 1.2 3.3 1.4 2.9 1.7 C 2.5 2 2.4 2.3 2.4 2.7 C 2.4 3.1 2.5 3.4 2.8 3.7 C 3 3.9 3.7 4.1 4.8 4.4 C 5.9 4.6 6.7 4.9 7.1 5.1 C 7.7 5.3 8.1 5.7 8.4 6.1 C 8.7 6.5 8.9 7 8.9 7.6 C 8.9 8.1 8.7 8.6 8.4 9.1 C 8.1 9.6 7.6 10 7 10.3 C 6.4 10.5 5.8 10.7 5 10.7 C 4.1 10.7 3.3 10.5 2.7 10.3 C 2.1 10 1.6 9.6 1.2 9 C 0.9 8.5 0.7 7.9 0.6 7.2 Z M 10.5 10.5 L 10.5 0.2 L 11.7 0.2 C 11.7 0.2 11.74 3.87 11.7 3.9 C 12.3 3.2 13.1 2.8 14 2.8 C 14.5 2.8 15 3 15.4 3.2 C 15.8 3.4 16.1 3.7 16.3 4.1 C 16.5 4.5 16.6 5 16.6 5.8 C 16.55 5.75 16.6 10.5 16.6 10.5 L 15.3 10.5 C 15.3 10.5 15.29 5.75 15.3 5.8 C 15.3 5.1 15.1 4.7 14.9 4.4 C 14.6 4.1 14.2 3.9 13.7 3.9 C 13.3 3.9 13 4 12.7 4.2 C 12.3 4.4 12.1 4.7 11.9 5 C 11.8 5.4 11.7 5.8 11.7 6.4 C 11.74 6.4 11.7 10.5 11.7 10.5 L 10.5 10.5 Z M 17.9 6.8 C 17.9 5.4 18.3 4.3 19.1 3.7 C 19.7 3.1 20.5 2.8 21.4 2.8 C 22.5 2.8 23.3 3.2 23.9 3.9 C 24.6 4.5 24.9 5.5 24.9 6.6 C 24.9 7.6 24.8 8.4 24.5 8.9 C 24.2 9.5 23.8 9.9 23.2 10.2 C 22.7 10.5 22.1 10.7 21.4 10.7 C 20.4 10.7 19.5 10.3 18.9 9.6 C 18.2 9 17.9 8 17.9 6.8 Z M 19.2 6.8 C 19.2 7.7 19.4 8.4 19.8 8.9 C 20.3 9.4 20.8 9.6 21.4 9.6 C 22.1 9.6 22.6 9.4 23 8.9 C 23.4 8.4 23.6 7.7 23.6 6.7 C 23.6 5.8 23.4 5.1 23 4.6 C 22.6 4.1 22 3.9 21.4 3.9 C 20.8 3.9 20.3 4.1 19.8 4.6 C 19.4 5.1 19.2 5.8 19.2 6.8 Z M 27.6 10.5 L 25.3 3 L 26.6 3 L 27.8 7.3 C 27.8 7.3 28.24 8.93 28.2 8.9 C 28.3 8.9 28.4 8.3 28.6 7.4 C 28.63 7.39 29.8 3 29.8 3 L 31.1 3 L 32.2 7.3 L 32.6 8.8 L 33 7.3 L 34.3 3 L 35.5 3 L 33.2 10.5 L 31.9 10.5 L 30.7 6 L 30.4 4.7 L 28.9 10.5 L 27.6 10.5 Z M 41.5 8.1 C 41.5 8.1 42.8 8.2 42.8 8.2 C 42.6 9 42.2 9.6 41.6 10 C 41.1 10.4 40.4 10.7 39.5 10.7 C 38.4 10.7 37.5 10.3 36.9 9.6 C 36.3 9 35.9 8 35.9 6.8 C 35.9 5.6 36.3 4.6 36.9 3.9 C 37.6 3.2 38.4 2.8 39.4 2.8 C 40.4 2.8 41.2 3.2 41.9 3.9 C 42.5 4.5 42.8 5.5 42.8 6.7 C 42.8 6.8 42.8 6.9 42.8 7.1 C 42.8 7.1 37.2 7.1 37.2 7.1 C 37.3 7.9 37.5 8.5 37.9 9 C 38.4 9.4 38.9 9.6 39.5 9.6 C 40 9.6 40.4 9.5 40.7 9.2 C 41 9 41.3 8.6 41.5 8.1 Z M 37.3 6 C 37.3 6 41.5 6 41.5 6 C 41.4 5.4 41.3 4.9 41 4.6 C 40.6 4.1 40.1 3.9 39.4 3.9 C 38.9 3.9 38.4 4.1 38 4.5 C 37.6 4.9 37.4 5.4 37.3 6 Z M 44.3 10.5 L 44.3 3 L 45.4 3 C 45.4 3 45.39 4.15 45.4 4.1 C 45.7 3.6 46 3.3 46.2 3.1 C 46.4 2.9 46.7 2.8 47 2.8 C 47.4 2.8 47.9 3 48.3 3.3 C 48.3 3.3 47.9 4.4 47.9 4.4 C 47.6 4.2 47.3 4.2 46.9 4.2 C 46.7 4.2 46.4 4.2 46.2 4.4 C 46 4.6 45.8 4.8 45.7 5.1 C 45.6 5.5 45.5 6 45.5 6.6 C 45.52 6.57 45.5 10.5 45.5 10.5 L 44.3 10.5 Z M 60.5 10.7 C 60 10.4 59.5 9.9 59 9.3 C 58.5 9.7 58.1 10.1 57.6 10.3 C 57.1 10.5 56.6 10.7 56 10.7 C 54.9 10.7 54.1 10.3 53.5 9.6 C 53 9 52.7 8.4 52.7 7.6 C 52.7 7 52.9 6.4 53.3 5.9 C 53.8 5.4 54.4 5 55.2 4.6 C 54.7 4 54.4 3.6 54.3 3.3 C 54.1 2.9 54 2.6 54 2.3 C 54 1.7 54.3 1.1 54.8 0.7 C 55.2 0.2 55.8 0 56.6 0 C 57.3 0 57.9 0.2 58.3 0.6 C 58.8 1.1 59 1.6 59 2.2 C 59 3.2 58.3 4 57 4.7 C 57 4.7 58.9 7.1 58.9 7.1 C 59.1 6.7 59.3 6.2 59.4 5.6 C 59.4 5.6 60.7 5.9 60.7 5.9 C 60.5 6.8 60.2 7.6 59.8 8.1 C 60.3 8.8 60.8 9.3 61.4 9.7 C 61.39 9.72 60.5 10.7 60.5 10.7 C 60.5 10.7 60.54 10.72 60.5 10.7 Z M 56.4 3.9 C 56.9 3.6 57.3 3.3 57.4 3 C 57.6 2.8 57.7 2.5 57.7 2.2 C 57.7 1.9 57.6 1.6 57.4 1.4 C 57.1 1.2 56.9 1 56.5 1 C 56.2 1 55.9 1.2 55.7 1.4 C 55.4 1.6 55.3 1.9 55.3 2.2 C 55.3 2.3 55.4 2.5 55.4 2.7 C 55.5 2.9 55.7 3 55.8 3.2 C 55.8 3.2 56.4 3.9 56.4 3.9 Z M 58.2 8.3 C 58.2 8.3 55.8 5.4 55.8 5.4 C 55.2 5.8 54.7 6.2 54.5 6.5 C 54.2 6.9 54.1 7.2 54.1 7.6 C 54.1 8 54.3 8.4 54.6 8.9 C 54.9 9.3 55.4 9.5 56 9.5 C 56.4 9.5 56.8 9.4 57.2 9.2 C 57.6 8.9 57.9 8.6 58.2 8.3 Z " stroke="none" fill="#ffffff"/>
  </g>
</svg>