<?xml version="1.0" standalone="no"?><!DOCTYPE svg PUBLIC "-//W3C//DTD SVG 1.1//EN" "http://www.w3.org/Graphics/SVG/1.1/DTD/svg11.dtd"><svg xmlns="http://www.w3.org/2000/svg" version="1.1" width="265.1px" height="17.5px" viewBox="0 -3 265.1 17.5" style="top:-3px"><desc>* In cooperation with the Law Office of Salman M Al-Sudairi</desc><defs/><g id="Polygon70609"><path d="m1.4 1.5c-.4 0-.8-.1-1.1-.2c0 0 .2-.6.2-.6c.4.1.8.3 1 .4c-.1-.5-.1-.9-.1-1.1c0 0 .6 0 .6 0c0 .3 0 .7-.1 1.1c.3-.2.7-.3 1.1-.4c0 0 .2.6.2.6c-.4.1-.8.2-1.1.2c.2.2.4.5.7.9c0 0-.5.3-.5.3c-.1-.2-.4-.5-.6-.9c-.2.4-.4.7-.6.9c0 0-.5-.3-.5-.3c.4-.5.6-.7.8-.9c0 0 0 0 0 0zm5.4 5.1l0-6.5l.9 0l0 6.5l-.9 0zm2.3 0l0-4.7l.7 0c0 0 .01.65 0 .6c.4-.5.8-.7 1.5-.7c.3 0 .5 0 .8.1c.2.1.4.3.5.4c.1.2.2.4.2.6c.1.2.1.4.1.8c-.01-.02 0 2.9 0 2.9l-.8 0c0 0 0-2.89 0-2.9c0-.3 0-.5-.1-.7c-.1-.2-.2-.3-.3-.4c-.2-.1-.4-.1-.6-.1c-.3 0-.6.1-.8.3c-.3.2-.4.6-.4 1.2c-.01 0 0 2.6 0 2.6l-.8 0zm10.5-1.8c0 0 .8.1.8.1c-.1.6-.3 1-.6 1.3c-.4.3-.8.5-1.3.5c-.7 0-1.2-.3-1.6-.7c-.3-.4-.5-1-.5-1.8c0-.5 0-.9.2-1.3c.2-.4.4-.6.8-.8c.3-.2.7-.3 1.1-.3c.5 0 .9.1 1.2.4c.4.2.6.6.7 1.1c0 0-.8.1-.8.1c-.1-.3-.2-.6-.4-.7c-.2-.2-.4-.3-.7-.3c-.4 0-.7.2-1 .5c-.2.2-.3.7-.3 1.3c0 .6.1 1.1.3 1.4c.3.3.6.4 1 .4c.3 0 .5-.1.8-.3c.2-.2.3-.5.3-.9zm1.2-.6c0-.8.2-1.5.7-1.9c.4-.3.9-.5 1.5-.5c.6 0 1.2.2 1.6.6c.4.4.6 1 .6 1.8c0 .6-.1 1-.3 1.4c-.2.3-.4.6-.8.8c-.3.2-.7.3-1.1.3c-.7 0-1.2-.3-1.6-.7c-.4-.4-.6-1-.6-1.8zm.8 0c0 .6.2 1.1.4 1.4c.3.3.6.4 1 .4c.4 0 .7-.1 1-.4c.2-.3.4-.8.4-1.4c0-.6-.2-1-.4-1.3c-.3-.3-.6-.5-1-.5c-.4 0-.7.2-1 .5c-.2.3-.4.7-.4 1.3zm4.2 0c0-.8.3-1.5.7-1.9c.4-.3.9-.5 1.5-.5c.6 0 1.2.2 1.6.6c.4.4.6 1 .6 1.8c0 .6-.1 1-.3 1.4c-.2.3-.4.6-.8.8c-.3.2-.7.3-1.1.3c-.7 0-1.2-.3-1.6-.7c-.4-.4-.6-1-.6-1.8zm.8 0c0 .6.2 1.1.4 1.4c.3.3.6.4 1 .4c.4 0 .7-.1 1-.4c.2-.3.4-.8.4-1.4c0-.6-.2-1-.4-1.3c-.3-.3-.6-.5-1-.5c-.4 0-.7.2-1 .5c-.2.3-.4.7-.4 1.3zm4.5 4.1l0-6.4l.7 0c0 0 .03.59 0 .6c.2-.2.4-.4.6-.5c.2-.2.5-.2.8-.2c.4 0 .7.1 1 .3c.3.2.6.5.7.9c.2.3.3.7.3 1.2c0 .5-.1.9-.3 1.3c-.2.4-.4.6-.7.9c-.4.2-.7.3-1.1.3c-.2 0-.5-.1-.7-.2c-.2-.1-.4-.3-.5-.4c0-.03 0 2.2 0 2.2l-.8 0zm.7-4.1c0 .6.2 1.1.4 1.4c.2.3.5.4.9.4c.3 0 .6-.1.9-.4c.2-.3.4-.8.4-1.4c0-.6-.2-1.1-.4-1.4c-.3-.3-.5-.4-.9-.4c-.3 0-.6.2-.9.5c-.2.3-.4.7-.4 1.3zm7.5.8c0 0 .8.2.8.2c-.1.4-.3.8-.7 1.1c-.3.2-.8.4-1.3.4c-.7 0-1.2-.3-1.6-.7c-.4-.4-.6-1-.6-1.7c0-.8.2-1.4.6-1.9c.4-.4.9-.6 1.5-.6c.7 0 1.2.2 1.6.6c.4.4.6 1 .6 1.8c0 .1 0 .1 0 .2c0 0-3.5 0-3.5 0c0 .5.1.9.4 1.2c.3.3.6.4 1 .4c.3 0 .5-.1.7-.2c.2-.2.4-.4.5-.8zm-2.6-1.2c0 0 2.6 0 2.6 0c0-.4-.1-.7-.3-.9c-.2-.3-.6-.5-1-.5c-.3 0-.6.2-.9.4c-.2.2-.4.6-.4 1zm4.4 2.8l0-4.7l.7 0c0 0 .03.69 0 .7c.2-.3.4-.6.5-.7c.2-.1.4-.1.5-.1c.3 0 .6.1.9.2c0 0-.3.8-.3.8c-.2-.1-.4-.2-.6-.2c-.2 0-.3 0-.5.2c-.1.1-.2.2-.3.4c0 .3-.1.6-.1.9c.01.01 0 2.5 0 2.5l-.8 0zm6.2 0c-.1-.2-.1-.4-.1-.6c-.3.2-.6.4-.9.5c-.3.1-.5.2-.9.2c-.5 0-.9-.2-1.1-.4c-.3-.3-.4-.6-.4-1c0-.2 0-.4.1-.6c.1-.2.2-.3.4-.5c.2-.1.4-.2.6-.2c.1-.1.4-.1.7-.1c.6-.1 1.1-.2 1.4-.3c0-.1 0-.2 0-.2c0-.3-.1-.6-.2-.7c-.2-.2-.5-.3-.9-.3c-.4 0-.7.1-.8.2c-.2.2-.4.4-.4.7c0 0-.8-.1-.8-.1c.1-.3.2-.6.3-.8c.2-.2.4-.3.7-.5c.3-.1.7-.1 1.1-.1c.4 0 .7 0 1 .1c.2.1.4.2.5.4c.1.1.2.3.3.5c0 .1 0 .4 0 .7c0 0 0 1.1 0 1.1c0 .7 0 1.2.1 1.4c0 .2.1.4.2.6c-.05-.05-.9 0-.9 0c0 0 .02-.05 0 0zm-.2-2.4c-.3.1-.7.2-1.3.3c-.3.1-.5.1-.7.2c-.1 0-.2.1-.3.2c-.1.1-.1.3-.1.4c0 .2.1.4.2.5c.2.2.4.2.7.2c.3 0 .6 0 .9-.2c.2-.1.4-.3.5-.5c.1-.2.1-.5.1-.8c0 0 0-.3 0-.3zm3.4 1.7c.1 0 .2 0 .4-.1c0 0 .1.7.1.7c-.3.1-.5.1-.6.1c-.3 0-.5 0-.7-.1c-.2-.1-.3-.2-.3-.4c-.1-.1-.1-.4-.1-.9c-.03-.01 0-2.7 0-2.7l-.6 0l0-.6l.6 0l0-1.2l.8-.4l0 1.6l.8 0l0 .6l-.8 0c0 0-.04 2.73 0 2.7c0 .3 0 .4 0 .5c0 0 .1.1.1.1c.1.1.2.1.3.1c0 0 0 0 0 0zm1.1-4.9l0-.9l.8 0l0 .9l-.8 0zm0 5.6l0-4.7l.8 0l0 4.7l-.8 0zm1.7-2.4c0-.8.3-1.5.8-1.9c.4-.3.8-.5 1.4-.5c.7 0 1.2.2 1.6.6c.4.4.6 1 .6 1.8c0 .6-.1 1-.3 1.4c-.1.3-.4.6-.8.8c-.3.2-.7.3-1.1.3c-.6 0-1.2-.3-1.6-.7c-.4-.4-.6-1-.6-1.8zm.8 0c0 .6.2 1.1.4 1.4c.3.3.6.4 1 .4c.4 0 .7-.1 1-.4c.3-.3.4-.8.4-1.4c0-.6-.1-1-.4-1.3c-.3-.3-.6-.5-1-.5c-.4 0-.7.2-1 .5c-.2.3-.4.7-.4 1.3zm4.5 2.4l0-4.7l.7 0c0 0 .04.65 0 .6c.4-.5.9-.7 1.5-.7c.3 0 .6 0 .8.1c.2.1.4.3.5.4c.2.2.2.4.3.6c0 .2 0 .4 0 .8c.02-.02 0 2.9 0 2.9l-.8 0c0 0 .03-2.89 0-2.9c0-.3 0-.5-.1-.7c0-.2-.1-.3-.3-.4c-.1-.1-.3-.1-.5-.1c-.4 0-.7.1-.9.3c-.3.2-.4.6-.4 1.2c.02 0 0 2.6 0 2.6l-.8 0zm8.4 0l-1.4-4.7l.8 0l.7 2.7c0 0 .31.98.3 1c0-.1.1-.4.2-1c.05.02.8-2.7.8-2.7l.8 0l.7 2.7l.2.9l.3-.9l.8-2.7l.8 0l-1.5 4.7l-.8 0l-.7-2.8l-.2-.8l-1 3.6l-.8 0zm5.6-5.6l0-.9l.8 0l0 .9l-.8 0zm0 5.6l0-4.7l.8 0l0 4.7l-.8 0zm3.4-.7c.1 0 .2 0 .4-.1c0 0 .1.7.1.7c-.2.1-.4.1-.6.1c-.3 0-.5 0-.7-.1c-.1-.1-.3-.2-.3-.4c-.1-.1-.1-.4-.1-.9c-.02-.01 0-2.7 0-2.7l-.6 0l0-.6l.6 0l0-1.2l.8-.4l0 1.6l.8 0l0 .6l-.8 0c0 0-.03 2.73 0 2.7c0 .3 0 .4 0 .5c0 0 .1.1.1.1c.1.1.2.1.3.1c0 0 0 0 0 0zm1.1.7l0-6.5l.8 0c0 0 .03 2.32 0 2.3c.4-.4.9-.6 1.4-.6c.4 0 .7 0 .9.2c.3.1.5.3.6.5c.1.3.1.6.1 1.1c.04-.01 0 3 0 3l-.8 0c0 0 .05-3.01 0-3c0-.4 0-.7-.2-.9c-.2-.1-.4-.2-.7-.2c-.3 0-.5 0-.7.1c-.2.2-.4.3-.4.5c-.1.2-.2.5-.2.9c.03 0 0 2.6 0 2.6l-.8 0zm8.9-.7c.1 0 .2 0 .4-.1c0 0 .1.7.1.7c-.2.1-.4.1-.6.1c-.3 0-.5 0-.7-.1c-.1-.1-.3-.2-.3-.4c-.1-.1-.1-.4-.1-.9c-.01-.01 0-2.7 0-2.7l-.6 0l0-.6l.6 0l0-1.2l.8-.4l0 1.6l.8 0l0 .6l-.8 0c0 0-.03 2.73 0 2.7c0 .3 0 .4 0 .5c0 0 .1.1.2.1c0 .1.1.1.2.1c0 0 0 0 0 0zm1.1.7l0-6.5l.8 0c0 0 .03 2.32 0 2.3c.4-.4.9-.6 1.4-.6c.4 0 .7 0 .9.2c.3.1.5.3.6.5c.1.3.1.6.1 1.1c.04-.01 0 3 0 3l-.7 0c0 0-.05-3.01 0-3c0-.4-.1-.7-.3-.9c-.2-.1-.4-.2-.7-.2c-.3 0-.5 0-.7.1c-.2.2-.3.3-.4.5c-.1.2-.2.5-.2.9c.03 0 0 2.6 0 2.6l-.8 0zm8.2-1.6c0 0 .9.2.9.2c-.2.4-.4.8-.8 1.1c-.3.2-.7.4-1.3.4c-.7 0-1.2-.3-1.6-.7c-.4-.4-.6-1-.6-1.7c0-.8.2-1.4.6-1.9c.4-.4.9-.6 1.6-.6c.6 0 1.1.2 1.5.6c.4.4.6 1 .6 1.8c0 .1 0 .1 0 .2c0 0-3.5 0-3.5 0c0 .5.2.9.4 1.2c.3.3.6.4 1 .4c.3 0 .6-.1.8-.2c.2-.2.3-.4.4-.8zm-2.6-1.2c0 0 2.7 0 2.7 0c-.1-.4-.2-.7-.3-.9c-.3-.3-.6-.5-1-.5c-.4 0-.7.2-.9.4c-.3.2-.4.6-.5 1zm7 2.8l0-6.5l.9 0l0 5.7l3.1 0l0 .8l-4 0zm8.2 0c-.1-.2-.2-.4-.2-.6c-.3.2-.6.4-.8.5c-.3.1-.6.2-.9.2c-.5 0-.9-.2-1.2-.4c-.3-.3-.4-.6-.4-1c0-.2 0-.4.1-.6c.2-.2.3-.3.5-.5c.1-.1.3-.2.5-.2c.2-.1.4-.1.7-.1c.7-.1 1.1-.2 1.4-.3c0-.1 0-.2 0-.2c0-.3 0-.6-.2-.7c-.2-.2-.5-.3-.9-.3c-.4 0-.6.1-.8.2c-.2.2-.3.4-.4.7c0 0-.8-.1-.8-.1c.1-.3.2-.6.4-.8c.1-.2.4-.3.7-.5c.3-.1.6-.1 1-.1c.4 0 .8 0 1 .1c.3.1.4.2.6.4c.1.1.2.3.2.5c0 .1 0 .4 0 .7c0 0 0 1.1 0 1.1c0 .7.1 1.2.1 1.4c0 .2.1.4.2.6c-.01-.05-.8 0-.8 0c0 0-.04-.05 0 0zm-.3-2.4c-.2.1-.7.2-1.3.3c-.3.1-.5.1-.6.2c-.2 0-.3.1-.4.2c0 .1-.1.3-.1.4c0 .2.1.4.3.5c.1.2.4.2.7.2c.3 0 .6 0 .8-.2c.2-.1.4-.3.5-.5c.1-.2.1-.5.1-.8c0 0 0-.3 0-.3zm2.9 2.4l-1.4-4.7l.8 0l.8 2.7c0 0 .24.98.2 1c0-.1.1-.4.3-1c-.02.02.7-2.7.7-2.7l.8 0l.7 2.7l.3.9l.2-.9l.8-2.7l.8 0l-1.5 4.7l-.8 0l-.7-2.8l-.2-.8l-.9 3.6l-.9 0zm8-3.2c0-1.1.3-1.9.9-2.5c.5-.6 1.3-.9 2.2-.9c.6 0 1.1.1 1.6.4c.5.3.8.7 1.1 1.2c.2.5.4 1.1.4 1.7c0 .7-.2 1.3-.4 1.8c-.3.5-.7.9-1.1 1.2c-.5.2-1.1.4-1.6.4c-.6 0-1.2-.2-1.6-.5c-.5-.3-.9-.7-1.1-1.2c-.3-.5-.4-1-.4-1.6zm.9 0c0 .8.2 1.4.6 1.9c.4.4 1 .6 1.6.6c.6 0 1.2-.2 1.6-.6c.4-.5.6-1.1.6-2c0-.5-.1-.9-.3-1.3c-.2-.4-.4-.7-.8-.9c-.3-.3-.7-.4-1.1-.4c-.6 0-1.1.2-1.6.7c-.4.4-.6 1.1-.6 2zm6.5 3.2l0-4.1l-.7 0l0-.6l.7 0c0 0-.05-.51 0-.5c0-.3 0-.6 0-.7c.1-.2.2-.4.4-.5c.2-.1.5-.2.8-.2c.3 0 .5 0 .8.1c0 0-.1.7-.1.7c-.2-.1-.4-.1-.5-.1c-.2 0-.4.1-.5.2c-.1.1-.2.3-.2.6c.04-.05 0 .4 0 .4l1 0l0 .6l-1 0l0 4.1l-.7 0zm2.5 0l0-4.1l-.7 0l0-.6l.7 0c0 0-.02-.47 0-.5c0-.4.1-.8.3-1c.2-.3.5-.4.9-.4c.3 0 .6 0 .8.1c0 0-.1.7-.1.7c-.2-.1-.3-.1-.4-.1c-.3 0-.5.1-.6.2c-.1.1-.1.3-.1.7c-.03-.02 0 .3 0 .3l.9 0l0 .6l-.9 0l0 4.1l-.8 0zm2.3-5.6l0-.9l.8 0l0 .9l-.8 0zm0 5.6l0-4.7l.8 0l0 4.7l-.8 0zm5-1.8c0 0 .8.1.8.1c-.1.6-.3 1-.7 1.3c-.3.3-.7.5-1.3.5c-.6 0-1.1-.3-1.5-.7c-.4-.4-.6-1-.6-1.8c0-.5.1-.9.3-1.3c.1-.4.4-.6.7-.8c.4-.2.8-.3 1.2-.3c.5 0 .9.1 1.2.4c.3.2.5.6.6 1.1c0 0-.8.1-.8.1c0-.3-.2-.6-.3-.7c-.2-.2-.5-.3-.7-.3c-.4 0-.7.2-1 .5c-.2.2-.4.7-.4 1.3c0 .6.2 1.1.4 1.4c.2.3.6.4.9.4c.3 0 .6-.1.8-.3c.2-.2.4-.5.4-.9zm4.7.2c0 0 .8.2.8.2c-.2.4-.4.8-.7 1.1c-.4.2-.8.4-1.4.4c-.7 0-1.2-.3-1.6-.7c-.4-.4-.6-1-.6-1.7c0-.8.2-1.4.6-1.9c.4-.4.9-.6 1.6-.6c.6 0 1.1.2 1.5.6c.4.4.6 1 .6 1.8c0 .1 0 .1 0 .2c0 0-3.5 0-3.5 0c0 .5.2.9.5 1.2c.2.3.5.4.9.4c.3 0 .6-.1.8-.2c.2-.2.3-.4.5-.8zm-2.6-1.2c0 0 2.6 0 2.6 0c-.1-.4-.2-.7-.3-.9c-.3-.3-.6-.5-1-.5c-.4 0-.7.2-.9.4c-.3.2-.4.6-.4 1zm6.6.4c0-.8.2-1.5.7-1.9c.4-.3.9-.5 1.5-.5c.6 0 1.1.2 1.5.6c.4.4.7 1 .7 1.8c0 .6-.1 1-.3 1.4c-.2.3-.5.6-.8.8c-.4.2-.7.3-1.1.3c-.7 0-1.2-.3-1.6-.7c-.4-.4-.6-1-.6-1.8zm.8 0c0 .6.1 1.1.4 1.4c.2.3.6.4 1 .4c.4 0 .7-.1.9-.4c.3-.3.4-.8.4-1.4c0-.6-.1-1-.4-1.3c-.2-.3-.5-.5-.9-.5c-.4 0-.8.2-1 .5c-.3.3-.4.7-.4 1.3zm4.7 2.4l0-4.1l-.7 0l0-.6l.7 0c0 0-.03-.51 0-.5c0-.3 0-.6.1-.7c0-.2.2-.4.4-.5c.1-.1.4-.2.8-.2c.2 0 .4 0 .7.1c0 0-.1.7-.1.7c-.2-.1-.3-.1-.5-.1c-.2 0-.4.1-.5.2c-.1.1-.1.3-.1.6c-.05-.05 0 .4 0 .4l.9 0l0 .6l-.9 0l0 4.1l-.8 0zm4.6-2.1c0 0 .8-.1.8-.1c0 .3.1.6.3.8c.1.2.3.4.6.5c.3.1.6.2 1 .2c.3 0 .6-.1.9-.1c.2-.1.4-.3.5-.4c.1-.2.2-.4.2-.6c0-.2-.1-.4-.2-.5c-.1-.2-.3-.3-.6-.4c-.1-.1-.5-.2-1.1-.3c-.6-.2-1-.3-1.3-.4c-.3-.2-.5-.4-.6-.6c-.2-.3-.3-.5-.3-.8c0-.3.1-.7.3-.9c.2-.3.5-.5.8-.7c.4-.1.8-.2 1.2-.2c.5 0 .9.1 1.3.2c.3.2.6.4.8.7c.2.3.3.6.3 1c0 0-.8.1-.8.1c0-.4-.2-.7-.4-.9c-.3-.2-.7-.3-1.2-.3c-.5 0-.9 0-1.1.2c-.2.2-.3.5-.3.7c0 .2 0 .4.2.6c.2.1.6.3 1.3.4c.7.2 1.2.3 1.4.5c.4.1.7.4.9.6c.1.3.2.6.2.9c0 .4-.1.7-.3 1c-.2.3-.5.5-.8.7c-.4.2-.8.3-1.3.3c-.5 0-1-.1-1.4-.3c-.4-.2-.7-.4-1-.8c-.2-.3-.3-.7-.3-1.1zm9.4 2.1c-.1-.2-.1-.4-.2-.6c-.3.2-.5.4-.8.5c-.3.1-.6.2-.9.2c-.5 0-.9-.2-1.2-.4c-.2-.3-.4-.6-.4-1c0-.2.1-.4.2-.6c.1-.2.2-.3.4-.5c.1-.1.3-.2.5-.2c.2-.1.4-.1.8-.1c.6-.1 1.1-.2 1.4-.3c0-.1 0-.2 0-.2c0-.3-.1-.6-.3-.7c-.2-.2-.5-.3-.9-.3c-.3 0-.6.1-.8.2c-.2.2-.3.4-.4.7c0 0-.8-.1-.8-.1c.1-.3.2-.6.4-.8c.2-.2.4-.3.7-.5c.3-.1.7-.1 1.1-.1c.4 0 .7 0 .9.1c.3.1.5.2.6.4c.1.1.2.3.2.5c0 .1.1.4.1.7c0 0 0 1.1 0 1.1c0 .7 0 1.2 0 1.4c0 .2.1.4.2.6c.01-.05-.8 0-.8 0c0 0-.01-.05 0 0zm-.2-2.4c-.3.1-.8.2-1.3.3c-.4.1-.6.1-.7.2c-.2 0-.3.1-.3.2c-.1.1-.1.3-.1.4c0 .2 0 .4.2.5c.2.2.4.2.7.2c.3 0 .6 0 .8-.2c.2-.1.4-.3.5-.5c.1-.2.2-.5.2-.8c0 0 0-.3 0-.3zm2 2.4l0-6.5l.8 0l0 6.5l-.8 0zm2 0l0-4.7l.7 0c0 0-.01.64 0 .6c.1-.2.3-.4.6-.5c.2-.2.5-.2.8-.2c.4 0 .6.1.9.2c.2.1.3.3.4.6c.4-.5.9-.8 1.5-.8c.4 0 .8.1 1 .4c.3.2.4.6.4 1.1c.01.05 0 3.3 0 3.3l-.8 0c0 0 .02-2.99 0-3c0-.3 0-.5-.1-.7c0-.1-.1-.2-.2-.3c-.2-.1-.3-.1-.5-.1c-.3 0-.6.1-.8.3c-.2.2-.3.6-.3 1c-.05.04 0 2.8 0 2.8l-.8 0c0 0-.04-3.08 0-3.1c0-.3-.1-.6-.2-.8c-.2-.1-.4-.2-.7-.2c-.2 0-.4 0-.6.1c-.2.2-.3.3-.4.6c-.1.2-.1.5-.1.9c-.02.03 0 2.5 0 2.5l-.8 0zm10.7 0c-.1-.2-.1-.4-.2-.6c-.3.2-.5.4-.8.5c-.3.1-.6.2-.9.2c-.5 0-.9-.2-1.2-.4c-.2-.3-.4-.6-.4-1c0-.2.1-.4.2-.6c.1-.2.2-.3.4-.5c.1-.1.3-.2.5-.2c.2-.1.4-.1.8-.1c.6-.1 1.1-.2 1.4-.3c0-.1 0-.2 0-.2c0-.3-.1-.6-.3-.7c-.2-.2-.5-.3-.9-.3c-.3 0-.6.1-.8.2c-.2.2-.3.4-.4.7c0 0-.7-.1-.7-.1c0-.3.1-.6.3-.8c.2-.2.4-.3.7-.5c.3-.1.7-.1 1.1-.1c.4 0 .7 0 .9.1c.3.1.5.2.6.4c.1.1.2.3.2.5c0 .1.1.4.1.7c0 0 0 1.1 0 1.1c0 .7 0 1.2 0 1.4c0 .2.1.4.2.6c.01-.05-.8 0-.8 0c0 0-.01-.05 0 0zm-.2-2.4c-.3.1-.8.2-1.3.3c-.4.1-.6.1-.7.2c-.2 0-.3.1-.3.2c-.1.1-.1.3-.1.4c0 .2 0 .4.2.5c.2.2.4.2.7.2c.3 0 .6 0 .8-.2c.3-.1.4-.3.5-.5c.1-.2.2-.5.2-.8c0 0 0-.3 0-.3zm2 2.4l0-4.7l.7 0c0 0 0 .65 0 .6c.3-.5.8-.7 1.5-.7c.3 0 .5 0 .8.1c.2.1.4.3.5.4c.1.2.2.4.2.6c.1.2.1.4.1.8c-.02-.02 0 2.9 0 2.9l-.8 0c0 0-.01-2.89 0-2.9c0-.3 0-.5-.1-.7c-.1-.2-.2-.3-.3-.4c-.2-.1-.4-.1-.6-.1c-.3 0-.6.1-.9.3c-.2.2-.3.6-.3 1.2c-.02 0 0 2.6 0 2.6l-.8 0zm7.6 0l0-6.5l1.3 0c0 0 1.48 4.57 1.5 4.6c.1.4.2.7.3.9c.1-.2.2-.6.3-1c.03-.01 1.6-4.5 1.6-4.5l1.1 0l0 6.5l-.8 0l0-5.4l-1.9 5.4l-.7 0l-1.9-5.5l0 5.5l-.8 0zm7.6 0l0-.9l.9 0l0 .9l-.9 0zm3.7 0l2.5-6.5l.9 0l2.6 6.5l-1 0l-.7-2l-2.7 0l-.7 2l-.9 0zm1.8-2.7l2.2 0c0 0-.64-1.78-.6-1.8c-.2-.5-.4-1-.5-1.3c-.1.4-.2.8-.3 1.2c-.04.02-.8 1.9-.8 1.9zm4.8 2.7l0-6.5l.8 0l0 6.5l-.8 0zm1.7-2l0-.8l2.4 0l0 .8l-2.4 0zm3.1-.1c0 0 .8-.1.8-.1c0 .3.1.6.3.8c.1.2.3.4.6.5c.3.1.6.2 1 .2c.3 0 .6-.1.9-.1c.2-.1.4-.3.5-.4c.2-.2.2-.4.2-.6c0-.2 0-.4-.2-.5c-.1-.2-.3-.3-.5-.4c-.2-.1-.6-.2-1.2-.3c-.6-.2-1-.3-1.2-.4c-.3-.2-.6-.4-.7-.6c-.2-.3-.2-.5-.2-.8c0-.3 0-.7.2-.9c.2-.3.5-.5.8-.7c.4-.1.8-.2 1.2-.2c.5 0 .9.1 1.3.2c.3.2.6.4.8.7c.2.3.3.6.3 1c0 0-.8.1-.8.1c0-.4-.2-.7-.4-.9c-.3-.2-.6-.3-1.1-.3c-.6 0-.9 0-1.2.2c-.2.2-.3.5-.3.7c0 .2.1.4.2.6c.2.1.6.3 1.3.4c.7.2 1.2.3 1.4.5c.4.1.7.4.9.6c.1.3.2.6.2.9c0 .4-.1.7-.3 1c-.2.3-.4.5-.8.7c-.4.2-.8.3-1.2.3c-.6 0-1.1-.1-1.5-.3c-.4-.2-.7-.4-.9-.8c-.3-.3-.4-.7-.4-1.1zm9.3 2.1c0 0-.04-.73 0-.7c-.4.5-.9.8-1.5.8c-.3 0-.6-.1-.8-.2c-.2-.1-.4-.2-.5-.4c-.1-.2-.2-.4-.3-.6c0-.1 0-.4 0-.7c-.02-.02 0-2.9 0-2.9l.8 0c0 0-.03 2.57 0 2.6c0 .4 0 .7 0 .8c.1.2.2.4.3.5c.2.1.4.2.6.2c.3 0 .5-.1.7-.2c.2-.1.4-.3.4-.5c.1-.2.2-.5.2-.9c-.03-.01 0-2.5 0-2.5l.8 0l0 4.7l-.7 0zm4.9 0c0 0 .03-.64 0-.6c-.3.4-.7.7-1.3.7c-.3 0-.7-.1-1-.3c-.3-.3-.6-.5-.7-.9c-.2-.4-.3-.8-.3-1.3c0-.4.1-.9.3-1.2c.1-.4.3-.7.7-.9c.3-.2.6-.3 1-.3c.3 0 .5 0 .7.2c.3.1.4.2.6.4c-.02.02 0-2.3 0-2.3l.8 0l0 6.5l-.8 0zm-2.5-2.4c0 .6.2 1.1.4 1.4c.3.3.6.4.9.4c.3 0 .6-.1.9-.4c.2-.3.3-.7.3-1.3c0-.6-.1-1.1-.3-1.4c-.3-.3-.6-.5-.9-.5c-.4 0-.7.2-.9.5c-.3.3-.4.7-.4 1.3zm7.7 2.4c-.1-.2-.1-.4-.1-.6c-.3.2-.6.4-.9.5c-.3.1-.6.2-.9.2c-.5 0-.9-.2-1.1-.4c-.3-.3-.5-.6-.5-1c0-.2.1-.4.2-.6c.1-.2.2-.3.4-.5c.2-.1.4-.2.6-.2c.1-.1.4-.1.7-.1c.6-.1 1.1-.2 1.4-.3c0-.1 0-.2 0-.2c0-.3-.1-.6-.2-.7c-.2-.2-.5-.3-.9-.3c-.4 0-.7.1-.9.2c-.1.2-.3.4-.3.7c0 0-.8-.1-.8-.1c0-.3.2-.6.3-.8c.2-.2.4-.3.7-.5c.3-.1.7-.1 1.1-.1c.4 0 .7 0 1 .1c.2.1.4.2.5.4c.1.1.2.3.2.5c.1.1.1.4.1.7c0 0 0 1.1 0 1.1c0 .7 0 1.2 0 1.4c.1.2.1.4.2.6c.04-.05-.8 0-.8 0c0 0 .01-.05 0 0zm-.2-2.4c-.3.1-.7.2-1.3.3c-.3.1-.6.1-.7.2c-.1 0-.2.1-.3.2c-.1.1-.1.3-.1.4c0 .2.1.4.2.5c.2.2.4.2.7.2c.3 0 .6 0 .8-.2c.3-.1.5-.3.6-.5c0-.2.1-.5.1-.8c0 0 0-.3 0-.3zm2-3.2l0-.9l.8 0l0 .9l-.8 0zm0 5.6l0-4.7l.8 0l0 4.7l-.8 0zm2 0l0-4.7l.7 0c0 0 .02.69 0 .7c.2-.3.4-.6.5-.7c.2-.1.3-.1.5-.1c.3 0 .6.1.8.2c0 0-.2.8-.2.8c-.2-.1-.4-.2-.6-.2c-.2 0-.3 0-.5.2c-.1.1-.2.2-.3.4c-.1.3-.1.6-.1.9c0 .01 0 2.5 0 2.5l-.8 0zm3-5.6l0-.9l.8 0l0 .9l-.8 0zm0 5.6l0-4.7l.8 0l0 4.7l-.8 0z" stroke="none" fill="#ffffff"/></g></svg>