<?xml version="1.0" standalone="no"?>
<!DOCTYPE svg PUBLIC "-//W3C//DTD SVG 1.1//EN" "http://www.w3.org/Graphics/SVG/1.1/DTD/svg11.dtd">
<svg xmlns="http://www.w3.org/2000/svg" version="1.1" width="91px" height="37.8px" viewBox="0 -5 91 37.8" style="top:-5px">
  <desc>Low Flow</desc>
  <defs/>
  <g id="Polygon63656">
    <path d="M 32.1 10.5 L 32.1 0.2 L 33.5 0.2 L 33.5 9.3 L 38.5 9.3 L 38.5 10.5 L 32.1 10.5 Z M 39.3 6.8 C 39.3 5.4 39.7 4.3 40.5 3.7 C 41.1 3.1 41.9 2.8 42.8 2.8 C 43.9 2.8 44.7 3.2 45.3 3.9 C 46 4.5 46.3 5.5 46.3 6.6 C 46.3 7.6 46.2 8.4 45.9 8.9 C 45.6 9.5 45.2 9.9 44.6 10.2 C 44.1 10.5 43.5 10.7 42.8 10.7 C 41.8 10.7 40.9 10.3 40.3 9.6 C 39.7 9 39.3 8 39.3 6.8 Z M 40.6 6.8 C 40.6 7.7 40.8 8.4 41.3 8.9 C 41.7 9.4 42.2 9.6 42.8 9.6 C 43.5 9.6 44 9.4 44.4 8.9 C 44.8 8.4 45 7.7 45 6.7 C 45 5.8 44.8 5.1 44.4 4.6 C 44 4.1 43.5 3.9 42.8 3.9 C 42.2 3.9 41.7 4.1 41.3 4.6 C 40.8 5.1 40.6 5.8 40.6 6.8 Z M 49 10.5 L 46.7 3 L 48 3 L 49.2 7.3 C 49.2 7.3 49.65 8.93 49.6 8.9 C 49.7 8.9 49.8 8.3 50 7.4 C 50.04 7.39 51.2 3 51.2 3 L 52.5 3 L 53.6 7.3 L 54 8.8 L 54.4 7.3 L 55.7 3 L 57 3 L 54.6 10.5 L 53.3 10.5 L 52.1 6 L 51.8 4.7 L 50.3 10.5 L 49 10.5 Z M 62.2 10.5 L 62.2 0.2 L 69.2 0.2 L 69.2 1.4 L 63.6 1.4 L 63.6 4.6 L 68.5 4.6 L 68.5 5.8 L 63.6 5.8 L 63.6 10.5 L 62.2 10.5 Z M 70.6 10.5 L 70.6 0.2 L 71.8 0.2 L 71.8 10.5 L 70.6 10.5 Z M 73.2 6.8 C 73.2 5.4 73.6 4.3 74.4 3.7 C 75 3.1 75.8 2.8 76.7 2.8 C 77.8 2.8 78.6 3.2 79.3 3.9 C 79.9 4.5 80.2 5.5 80.2 6.6 C 80.2 7.6 80.1 8.4 79.8 8.9 C 79.5 9.5 79.1 9.9 78.5 10.2 C 78 10.5 77.4 10.7 76.7 10.7 C 75.7 10.7 74.9 10.3 74.2 9.6 C 73.6 9 73.2 8 73.2 6.8 Z M 74.5 6.8 C 74.5 7.7 74.8 8.4 75.2 8.9 C 75.6 9.4 76.1 9.6 76.7 9.6 C 77.4 9.6 77.9 9.4 78.3 8.9 C 78.7 8.4 78.9 7.7 78.9 6.7 C 78.9 5.8 78.7 5.1 78.3 4.6 C 77.9 4.1 77.4 3.9 76.7 3.9 C 76.1 3.9 75.6 4.1 75.2 4.6 C 74.8 5.1 74.5 5.8 74.5 6.8 Z M 82.9 10.5 L 80.6 3 L 81.9 3 L 83.1 7.3 C 83.1 7.3 83.56 8.93 83.6 8.9 C 83.6 8.9 83.7 8.3 83.9 7.4 C 83.95 7.39 85.1 3 85.1 3 L 86.4 3 L 87.6 7.3 L 87.9 8.8 L 88.4 7.3 L 89.6 3 L 90.9 3 L 88.5 10.5 L 87.2 10.5 L 86 6 L 85.7 4.7 L 84.2 10.5 L 82.9 10.5 Z " stroke="none" fill="#ffffff"/>
  </g>
</svg>