<?xml version="1.0" standalone="no"?><!DOCTYPE svg PUBLIC "-//W3C//DTD SVG 1.1//EN" "http://www.w3.org/Graphics/SVG/1.1/DTD/svg11.dtd"><svg xmlns="http://www.w3.org/2000/svg" version="1.1" width="329px" height="60.1px" viewBox="0 -6 329 60.1" style="top:-6px"><desc>Then we took another major step, and went carbon neutral</desc><defs/><g id="Polygon68324"><path d="m3.1 28.2c0 0-2.2-.4-2.2-.4c.2-.9.7-1.6 1.3-2c.6-.4 1.5-.6 2.7-.6c1.1 0 2 .1 2.5.4c.5.2.9.5 1.1.9c.3.4.4 1.2.4 2.3c0 0-.1 2.8-.1 2.8c0 .9.1 1.5.2 1.9c0 .3.2.8.4 1.2c0 0-2.4 0-2.4 0c-.1-.2-.2-.4-.3-.7c0-.2 0-.3-.1-.3c-.4.4-.8.7-1.3.9c-.5.2-1 .3-1.6.3c-.9 0-1.7-.2-2.2-.8c-.6-.5-.9-1.1-.9-1.9c0-.6.2-1 .4-1.5c.3-.4.6-.7 1.1-.9c.4-.2 1.1-.4 1.9-.6c1.2-.2 2-.4 2.4-.6c0 0 0-.2 0-.2c0-.5-.1-.8-.3-1c-.2-.2-.7-.4-1.3-.4c-.5 0-.8.1-1.1.3c-.2.2-.4.5-.6.9zm3.3 2c-.3.1-.8.3-1.5.4c-.6.1-1.1.3-1.3.4c-.3.3-.5.5-.5.9c0 .3.1.6.4.9c.3.2.6.4 1 .4c.4 0 .9-.2 1.3-.5c.3-.2.5-.5.5-.8c.1-.2.1-.6.1-1.2c0 0 0-.5 0-.5zm13.4 4.5l-2.5 0c0 0 .02-4.76 0-4.8c0-1 0-1.6-.1-1.9c-.1-.3-.3-.5-.5-.7c-.3-.2-.6-.3-.9-.3c-.4 0-.8.2-1.2.4c-.3.2-.5.5-.7.9c-.1.4-.1 1.1-.1 2.2c-.05-.02 0 4.2 0 4.2l-2.5 0l0-9.3l2.3 0c0 0-.02 1.34 0 1.3c.8-1 1.8-1.5 3.1-1.5c.5 0 1 .1 1.4.3c.5.2.8.4 1.1.7c.2.3.4.7.5 1c0 .4.1 1 .1 1.7c-.01 0 0 5.8 0 5.8zm11.1 0l-2.3 0c0 0-.04-1.37 0-1.4c-.4.6-.9 1-1.4 1.2c-.5.3-1 .4-1.6.4c-1 0-1.9-.4-2.7-1.3c-.8-.8-1.2-2.1-1.2-3.6c0-1.6.4-2.8 1.2-3.6c.7-.8 1.6-1.2 2.8-1.2c1 0 1.9.4 2.7 1.3c-.01-.04 0-4.7 0-4.7l2.5 0l0 12.9zm-6.6-4.9c0 1 .1 1.8.4 2.2c.4.6.9 1 1.6 1c.6 0 1.1-.3 1.5-.8c.4-.4.6-1.2.6-2.1c0-1.1-.2-1.9-.6-2.3c-.4-.5-.9-.8-1.5-.8c-.6 0-1 .3-1.4.7c-.4.5-.6 1.2-.6 2.1zm15.7 4.9l-2.9-9.3l2.4 0l1.7 6.1l1.6-6.1l2.4 0l1.6 6.1l1.8-6.1l2.4 0l-3 9.3l-2.4 0l-1.6-6l-1.6 6l-2.4 0zm17.7-3c0 0 2.5.4 2.5.4c-.4.9-.9 1.6-1.5 2.1c-.7.5-1.6.7-2.6.7c-1.6 0-2.8-.5-3.6-1.6c-.6-.8-.9-1.9-.9-3.2c0-1.5.4-2.8 1.2-3.6c.8-.9 1.8-1.3 3.1-1.3c1.3 0 2.4.4 3.2 1.3c.8 1 1.2 2.4 1.2 4.2c0 0-6.2 0-6.2 0c0 .8.2 1.4.6 1.8c.4.4.9.6 1.4.6c.4 0 .7-.1 1-.3c.3-.3.5-.6.6-1.1zm.1-2.5c0-.7-.2-1.2-.5-1.6c-.4-.4-.8-.6-1.3-.6c-.5 0-1 .2-1.3.6c-.4.4-.6 1-.6 1.6c0 0 3.7 0 3.7 0zm13 5.5l-2.5 0c0 0 .03-4.76 0-4.8c0-1 0-1.6-.1-1.9c-.1-.3-.3-.5-.5-.7c-.3-.2-.6-.3-.9-.3c-.4 0-.8.2-1.2.4c-.3.2-.5.5-.7.9c-.1.4-.1 1.1-.1 2.2c-.04-.02 0 4.2 0 4.2l-2.5 0l0-9.3l2.3 0c0 0-.02 1.34 0 1.3c.8-1 1.8-1.5 3.1-1.5c.5 0 1 .1 1.5.3c.4.2.7.4 1 .7c.2.3.4.7.5 1c.1.4.1 1 .1 1.7c0 0 0 5.8 0 5.8zm6.8-9.3l0 1.9l-1.7 0c0 0-.01 3.8 0 3.8c0 .8 0 1.2 0 1.3c.1.2.1.3.3.3c.1.1.2.2.4.2c.2 0 .5-.1 1-.3c0 0 .2 1.9.2 1.9c-.6.3-1.2.4-2 .4c-.4 0-.8-.1-1.2-.2c-.3-.2-.6-.4-.8-.6c-.1-.2-.2-.5-.3-1c-.1-.2-.1-.8-.1-1.7c.02.01 0-4.1 0-4.1l-1.1 0l0-1.9l1.1 0l0-1.9l2.5-1.4l0 3.3l1.7 0zm14.8 2.7c0 0-2.4.5-2.4.5c-.1-.5-.3-.9-.6-1.1c-.2-.3-.6-.4-1.1-.4c-.6 0-1.1.2-1.5.6c-.3.5-.5 1.2-.5 2.2c0 1.1.2 1.9.5 2.3c.4.5.9.7 1.5.7c.5 0 .9-.1 1.2-.4c.3-.3.5-.7.6-1.4c0 0 2.5.4 2.5.4c-.3 1.2-.8 2-1.5 2.6c-.7.5-1.7.8-2.9.8c-1.3 0-2.4-.4-3.2-1.3c-.8-.8-1.2-2-1.2-3.6c0-1.5.4-2.7 1.2-3.6c.8-.8 1.9-1.2 3.3-1.2c1.1 0 2 .2 2.7.7c.7.5 1.1 1.2 1.4 2.2zm3.8.1c0 0-2.3-.4-2.3-.4c.3-.9.7-1.6 1.3-2c.6-.4 1.5-.6 2.8-.6c1.1 0 1.9.1 2.4.4c.6.2.9.5 1.2.9c.2.4.3 1.2.3 2.3c0 0 0 2.8 0 2.8c0 .9 0 1.5.1 1.9c.1.3.2.8.4 1.2c0 0-2.4 0-2.4 0c-.1-.2-.2-.4-.3-.7c0-.2 0-.3 0-.3c-.5.4-.9.7-1.4.9c-.5.2-1 .3-1.5.3c-1 0-1.8-.2-2.3-.8c-.6-.5-.8-1.1-.8-1.9c0-.6.1-1 .3-1.5c.3-.4.6-.7 1.1-.9c.4-.2 1.1-.4 2-.6c1.1-.2 1.9-.4 2.4-.6c0 0 0-.2 0-.2c0-.5-.2-.8-.4-1c-.2-.2-.7-.4-1.3-.4c-.5 0-.8.1-1 .3c-.3.2-.5.5-.6.9zm3.3 2c-.4.1-.9.3-1.5.4c-.7.1-1.2.3-1.4.4c-.3.3-.5.5-.5.9c0 .3.2.6.4.9c.3.2.6.4 1 .4c.4 0 .9-.2 1.3-.5c.3-.2.5-.5.6-.8c0-.2.1-.6.1-1.2c0 0 0-.5 0-.5zm7.2 4.5l-2.5 0l0-9.3l2.3 0c0 0 .01 1.3 0 1.3c.4-.6.8-1 1.1-1.2c.3-.2.6-.3 1-.3c.6 0 1.1.1 1.7.4c0 0-.8 2.2-.8 2.2c-.4-.3-.8-.4-1.2-.4c-.3 0-.6.1-.8.3c-.3.2-.5.5-.6 1c-.1.5-.2 1.5-.2 3.1c-.02.02 0 2.9 0 2.9zm4.5 0l0-12.9l2.5 0c0 0-.01 4.66 0 4.7c.7-.9 1.7-1.3 2.7-1.3c1.1 0 2.1.4 2.8 1.2c.8.8 1.1 2 1.1 3.5c0 1.6-.3 2.9-1.1 3.7c-.8.9-1.7 1.3-2.8 1.3c-.5 0-1-.1-1.5-.4c-.6-.3-1-.6-1.4-1.2c.01.03 0 1.4 0 1.4l-2.3 0zm2.5-4.9c0 1 .1 1.7.4 2.2c.5.6 1 1 1.7 1c.6 0 1-.3 1.4-.7c.4-.5.6-1.2.6-2.2c0-1.1-.2-1.9-.6-2.3c-.4-.5-.9-.8-1.5-.8c-.6 0-1 .3-1.4.7c-.4.5-.6 1.2-.6 2.1zm8 .1c0-.8.2-1.6.7-2.4c.4-.7.9-1.3 1.7-1.7c.7-.4 1.5-.6 2.5-.6c1.4 0 2.5.4 3.4 1.3c.9 1 1.4 2.1 1.4 3.5c0 1.4-.5 2.6-1.4 3.5c-.9 1-2 1.4-3.4 1.4c-.9 0-1.7-.2-2.5-.6c-.8-.4-1.3-.9-1.7-1.7c-.5-.7-.7-1.6-.7-2.7zm2.6.1c0 1 .2 1.7.6 2.2c.5.5 1 .7 1.7.7c.6 0 1.1-.2 1.6-.7c.4-.5.6-1.2.6-2.2c0-.9-.2-1.6-.6-2.1c-.5-.5-1-.7-1.6-.7c-.7 0-1.2.2-1.7.7c-.4.5-.6 1.2-.6 2.1zm17.5 4.7l-2.5 0c0 0 .03-4.76 0-4.8c0-1 0-1.6-.1-1.9c-.1-.3-.3-.5-.5-.7c-.3-.2-.6-.3-.9-.3c-.4 0-.8.2-1.1.4c-.4.2-.6.5-.7.9c-.2.4-.2 1.1-.2 2.2c-.04-.02 0 4.2 0 4.2l-2.5 0l0-9.3l2.3 0c0 0-.01 1.34 0 1.3c.8-1 1.8-1.5 3.1-1.5c.5 0 1 .1 1.5.3c.4.2.8.4 1 .7c.2.3.4.7.5 1c.1.4.1 1 .1 1.7c0 0 0 5.8 0 5.8zm16 0l-2.5 0c0 0 .03-4.76 0-4.8c0-1 0-1.6-.1-1.9c-.1-.3-.3-.5-.5-.7c-.3-.2-.6-.3-.9-.3c-.4 0-.8.2-1.2.4c-.3.2-.5.5-.7.9c-.1.4-.1 1.1-.1 2.2c-.04-.02 0 4.2 0 4.2l-2.5 0l0-9.3l2.3 0c0 0-.02 1.34 0 1.3c.8-1 1.8-1.5 3.1-1.5c.5 0 1 .1 1.5.3c.4.2.7.4 1 .7c.2.3.4.7.5 1c.1.4.1 1 .1 1.7c0 0 0 5.8 0 5.8zm7.9-3c0 0 2.5.4 2.5.4c-.3.9-.8 1.6-1.5 2.1c-.7.5-1.6.7-2.6.7c-1.6 0-2.8-.5-3.6-1.6c-.6-.8-.9-1.9-.9-3.2c0-1.5.4-2.8 1.2-3.6c.8-.9 1.8-1.3 3.1-1.3c1.4 0 2.4.4 3.3 1.3c.8 1 1.1 2.4 1.1 4.2c0 0-6.2 0-6.2 0c0 .8.2 1.4.6 1.8c.4.4.9.6 1.4.6c.4 0 .7-.1 1-.3c.3-.3.5-.6.6-1.1zm.1-2.5c0-.7-.2-1.2-.5-1.6c-.4-.4-.8-.6-1.3-.6c-.5 0-1 .2-1.3.6c-.4.4-.5 1-.5 1.6c0 0 3.6 0 3.6 0zm10.7 5.5c0 0-.04-1.39 0-1.4c-.4.5-.8.9-1.4 1.2c-.5.3-1.1.4-1.7.4c-.7 0-1.2-.1-1.7-.4c-.5-.3-.9-.7-1.1-1.2c-.2-.5-.3-1.1-.3-2c-.04-.02 0-5.9 0-5.9l2.4 0c0 0 .03 4.26 0 4.3c0 1.3.1 2.1.2 2.4c.1.3.2.5.5.7c.2.1.5.2.9.2c.4 0 .8-.1 1.1-.3c.3-.2.6-.5.7-.9c.1-.3.2-1.2.2-2.5c-.02.01 0-3.9 0-3.9l2.5 0l0 9.3l-2.3 0zm9.1-9.3l0 1.9l-1.7 0c0 0 0 3.8 0 3.8c0 .8 0 1.2.1 1.3c0 .2.1.3.2.3c.1.1.2.2.4.2c.2 0 .5-.1 1-.3c0 0 .2 1.9.2 1.9c-.6.3-1.2.4-2 .4c-.4 0-.8-.1-1.2-.2c-.3-.2-.6-.4-.7-.6c-.2-.2-.3-.5-.4-1c0-.2-.1-.8-.1-1.7c.02.01 0-4.1 0-4.1l-1.1 0l0-1.9l1.1 0l0-1.9l2.5-1.4l0 3.3l1.7 0zm4.1 9.3l-2.5 0l0-9.3l2.3 0c0 0-.01 1.3 0 1.3c.4-.6.7-1 1.1-1.2c.3-.2.6-.3 1-.3c.6 0 1.1.1 1.6.4c0 0-.7 2.2-.7 2.2c-.4-.3-.8-.4-1.2-.4c-.3 0-.6.1-.9.3c-.2.2-.4.5-.5 1c-.2.5-.2 1.5-.2 3.1c-.03.02 0 2.9 0 2.9zm6.5-6.5c0 0-2.3-.4-2.3-.4c.3-.9.7-1.6 1.3-2c.6-.4 1.5-.6 2.8-.6c1.1 0 1.9.1 2.4.4c.6.2.9.5 1.2.9c.2.4.3 1.2.3 2.3c0 0 0 2.8 0 2.8c0 .9 0 1.5.1 1.9c.1.3.2.8.4 1.2c0 0-2.4 0-2.4 0c-.1-.2-.2-.4-.3-.7c0-.2 0-.3 0-.3c-.5.4-.9.7-1.4.9c-.5.2-1 .3-1.5.3c-1 0-1.8-.2-2.3-.8c-.6-.5-.8-1.1-.8-1.9c0-.6.1-1 .3-1.5c.3-.4.6-.7 1.1-.9c.4-.2 1.1-.4 2-.6c1.1-.2 1.9-.4 2.4-.6c0 0 0-.2 0-.2c0-.5-.2-.8-.4-1c-.2-.2-.7-.4-1.3-.4c-.5 0-.8.1-1 .3c-.3.2-.5.5-.6.9zm3.3 2c-.4.1-.9.3-1.5.4c-.7.1-1.2.3-1.4.4c-.3.3-.5.5-.5.9c0 .3.2.6.4.9c.3.2.6.4 1 .4c.4 0 .9-.2 1.3-.5c.3-.2.5-.5.6-.8c0-.2.1-.6.1-1.2c0 0 0-.5 0-.5zm4.8 4.5l0-12.9l2.5 0l0 12.9l-2.5 0zm5 0l0-2.5l2.5 0l0 2.5l-2.5 0z" stroke="none" fill="#54626c"/></g><g id="Polygon68323"><path d="m4.2 13.1l0-10.7l-3.8 0l0-2.2l10.2 0l0 2.2l-3.8 0l0 10.7l-2.6 0zm10.5-12.9c0 0 .05 4.76 0 4.8c.8-1 1.8-1.4 2.9-1.4c.6 0 1.1.1 1.5.3c.5.2.8.5 1.1.8c.2.3.4.7.4 1.1c.1.4.2 1 .2 1.8c-.02.03 0 5.5 0 5.5l-2.5 0c0 0 .01-4.93 0-4.9c0-1 0-1.6-.1-1.9c-.1-.3-.3-.5-.5-.6c-.3-.2-.6-.3-.9-.3c-.4 0-.8.1-1.1.3c-.3.2-.6.5-.7.9c-.2.5-.3 1-.3 1.8c.05.03 0 4.7 0 4.7l-2.4 0l0-12.9l2.4 0zm14 9.9c0 0 2.4.4 2.4.4c-.3.9-.8 1.6-1.5 2.1c-.6.5-1.5.7-2.5.7c-1.6 0-2.8-.5-3.6-1.6c-.6-.8-.9-1.9-.9-3.2c0-1.5.4-2.8 1.2-3.6c.8-.9 1.8-1.3 3-1.3c1.4 0 2.5.4 3.3 1.3c.8 1 1.2 2.4 1.2 4.2c0 0-6.2 0-6.2 0c0 .8.2 1.4.6 1.8c.4.4.8.6 1.4.6c.4 0 .7-.1 1-.3c.3-.3.5-.6.6-1.1zm.1-2.5c0-.7-.2-1.2-.5-1.6c-.4-.4-.8-.6-1.3-.6c-.5 0-1 .2-1.3.6c-.4.4-.6 1-.6 1.6c0 0 3.7 0 3.7 0zm13 5.5l-2.5 0c0 0 .01-4.76 0-4.8c0-1 0-1.6-.1-1.9c-.2-.3-.3-.5-.6-.7c-.2-.2-.5-.3-.8-.3c-.4 0-.8.2-1.2.4c-.3.2-.5.5-.7.9c-.1.4-.2 1.1-.2 2.2c.05-.02 0 4.2 0 4.2l-2.4 0l0-9.3l2.3 0c0 0-.03 1.34 0 1.3c.8-1 1.8-1.5 3-1.5c.6 0 1.1.1 1.5.3c.5.2.8.4 1.1.7c.2.3.4.7.4 1c.1.4.2 1 .2 1.7c-.02 0 0 5.8 0 5.8zm9.2 0l-2.9-9.3l2.4 0l1.7 6.1l1.6-6.1l2.4 0l1.6 6.1l1.8-6.1l2.4 0l-3 9.3l-2.4 0l-1.6-6l-1.6 6l-2.4 0zm17.7-3c0 0 2.5.4 2.5.4c-.4.9-.9 1.6-1.5 2.1c-.7.5-1.6.7-2.6.7c-1.6 0-2.8-.5-3.6-1.6c-.6-.8-.9-1.9-.9-3.2c0-1.5.4-2.8 1.2-3.6c.8-.9 1.8-1.3 3-1.3c1.4 0 2.5.4 3.3 1.3c.8 1 1.2 2.4 1.2 4.2c0 0-6.2 0-6.2 0c0 .8.2 1.4.6 1.8c.4.4.9.6 1.4.6c.4 0 .7-.1 1-.3c.3-.3.5-.6.6-1.1zm.1-2.5c0-.7-.2-1.2-.5-1.6c-.4-.4-.8-.6-1.3-.6c-.5 0-1 .2-1.3.6c-.4.4-.6 1-.6 1.6c0 0 3.7 0 3.7 0zm13.8-3.8l0 1.9l-1.7 0c0 0-.01 3.8 0 3.8c0 .8 0 1.2 0 1.3c.1.2.1.3.3.3c.1.1.2.2.4.2c.2 0 .5-.1 1-.3c0 0 .2 1.9.2 1.9c-.6.3-1.2.4-2 .4c-.4 0-.8-.1-1.2-.2c-.3-.2-.6-.4-.8-.6c-.1-.2-.2-.5-.3-1c-.1-.2-.1-.8-.1-1.7c.02.01 0-4.1 0-4.1l-1.1 0l0-1.9l1.1 0l0-1.9l2.5-1.4l0 3.3l1.7 0zm1.1 4.5c0-.8.2-1.6.6-2.4c.4-.7 1-1.3 1.7-1.7c.8-.4 1.6-.6 2.5-.6c1.4 0 2.6.4 3.5 1.3c.9 1 1.4 2.1 1.4 3.5c0 1.4-.5 2.6-1.4 3.5c-.9 1-2.1 1.4-3.5 1.4c-.8 0-1.6-.2-2.4-.6c-.8-.4-1.4-.9-1.8-1.7c-.4-.7-.6-1.6-.6-2.7zm2.6.1c0 1 .2 1.7.6 2.2c.5.5 1 .7 1.6.7c.7 0 1.2-.2 1.7-.7c.4-.5.6-1.2.6-2.2c0-.9-.2-1.6-.6-2.1c-.5-.5-1-.7-1.7-.7c-.6 0-1.1.2-1.6.7c-.4.5-.6 1.2-.6 2.1zm8.4-.1c0-.8.2-1.6.6-2.4c.4-.7 1-1.3 1.7-1.7c.8-.4 1.6-.6 2.5-.6c1.4 0 2.6.4 3.5 1.3c.9 1 1.4 2.1 1.4 3.5c0 1.4-.5 2.6-1.4 3.5c-.9 1-2.1 1.4-3.5 1.4c-.8 0-1.6-.2-2.4-.6c-.8-.4-1.4-.9-1.8-1.7c-.4-.7-.6-1.6-.6-2.7zm2.6.1c0 1 .2 1.7.6 2.2c.4.5 1 .7 1.6.7c.7 0 1.2-.2 1.7-.7c.4-.5.6-1.2.6-2.2c0-.9-.2-1.6-.6-2.1c-.5-.5-1-.7-1.7-.7c-.6 0-1.2.2-1.6.7c-.4.5-.6 1.2-.6 2.1zm8.9 4.7l0-12.9l2.5 0l0 6.9l2.9-3.3l3 0l-3.2 3.4l3.4 5.9l-2.6 0l-2.4-4.2l-1.1 1.2l0 3l-2.5 0zm16.9-6.5c0 0-2.2-.4-2.2-.4c.3-.9.7-1.6 1.3-2c.6-.4 1.5-.6 2.7-.6c1.1 0 2 .1 2.5.4c.5.2.9.5 1.1.9c.3.4.4 1.2.4 2.3c0 0-.1 2.8-.1 2.8c0 .9.1 1.5.2 1.9c0 .3.2.8.4 1.2c0 0-2.4 0-2.4 0c-.1-.2-.2-.4-.3-.7c0-.2 0-.3-.1-.3c-.4.4-.8.7-1.3.9c-.5.2-1 .3-1.5.3c-1 0-1.8-.2-2.3-.8c-.6-.5-.9-1.1-.9-1.9c0-.6.2-1 .4-1.5c.3-.4.6-.7 1.1-.9c.4-.2 1.1-.4 1.9-.6c1.2-.2 2-.4 2.4-.6c0 0 0-.2 0-.2c0-.5-.1-.8-.3-1c-.2-.2-.7-.4-1.3-.4c-.5 0-.8.1-1.1.3c-.2.2-.4.5-.6.9zm3.3 2c-.3.1-.8.3-1.5.4c-.6.1-1.1.3-1.3.4c-.3.3-.5.5-.5.9c0 .3.1.6.4.9c.3.2.6.4 1 .4c.4 0 .9-.2 1.3-.5c.3-.2.5-.5.6-.8c0-.2 0-.6 0-1.2c0 0 0-.5 0-.5zm13.4 4.5l-2.5 0c0 0 .03-4.76 0-4.8c0-1 0-1.6-.1-1.9c-.1-.3-.3-.5-.5-.7c-.3-.2-.6-.3-.9-.3c-.4 0-.8.2-1.2.4c-.3.2-.5.5-.7.9c-.1.4-.1 1.1-.1 2.2c-.04-.02 0 4.2 0 4.2l-2.5 0l0-9.3l2.3 0c0 0-.02 1.34 0 1.3c.8-1 1.8-1.5 3.1-1.5c.5 0 1 .1 1.5.3c.4.2.7.4 1 .7c.2.3.4.7.5 1c.1.4.1 1 .1 1.7c0 0 0 5.8 0 5.8zm1.9-4.8c0-.8.2-1.6.6-2.4c.4-.7 1-1.3 1.8-1.7c.7-.4 1.5-.6 2.4-.6c1.5 0 2.6.4 3.5 1.3c.9 1 1.4 2.1 1.4 3.5c0 1.4-.5 2.6-1.4 3.5c-.9 1-2.1 1.4-3.4 1.4c-.9 0-1.7-.2-2.5-.6c-.8-.4-1.4-.9-1.8-1.7c-.4-.7-.6-1.6-.6-2.7zm2.6.1c0 1 .2 1.7.6 2.2c.5.5 1 .7 1.6.7c.7 0 1.2-.2 1.7-.7c.4-.5.6-1.2.6-2.2c0-.9-.2-1.6-.6-2.1c-.5-.5-1-.7-1.7-.7c-.6 0-1.1.2-1.6.7c-.4.5-.6 1.2-.6 2.1zm13.3-4.6l0 1.9l-1.7 0c0 0-.01 3.8 0 3.8c0 .8 0 1.2 0 1.3c.1.2.1.3.3.3c.1.1.2.2.4.2c.2 0 .5-.1 1-.3c0 0 .2 1.9.2 1.9c-.6.3-1.2.4-2 .4c-.4 0-.8-.1-1.2-.2c-.3-.2-.6-.4-.8-.6c-.1-.2-.2-.5-.3-1c-.1-.2-.1-.8-.1-1.7c.01.01 0-4.1 0-4.1l-1.1 0l0-1.9l1.1 0l0-1.9l2.5-1.4l0 3.3l1.7 0zm4.2-3.6c0 0-.05 4.76 0 4.8c.8-1 1.7-1.4 2.8-1.4c.6 0 1.1.1 1.5.3c.5.2.8.5 1.1.8c.2.3.4.7.5 1.1c0 .4.1 1 .1 1.8c-.02.03 0 5.5 0 5.5l-2.5 0c0 0 .01-4.93 0-4.9c0-1 0-1.6-.1-1.9c-.1-.3-.3-.5-.5-.6c-.3-.2-.6-.3-.9-.3c-.4 0-.8.1-1.1.3c-.3.2-.6.5-.7.9c-.2.5-.2 1-.2 1.8c-.05.03 0 4.7 0 4.7l-2.5 0l0-12.9l2.5 0zm13.9 9.9c0 0 2.5.4 2.5.4c-.4.9-.9 1.6-1.5 2.1c-.7.5-1.6.7-2.6.7c-1.6 0-2.8-.5-3.6-1.6c-.6-.8-.9-1.9-.9-3.2c0-1.5.4-2.8 1.2-3.6c.8-.9 1.8-1.3 3-1.3c1.4 0 2.5.4 3.3 1.3c.8 1 1.2 2.4 1.2 4.2c0 0-6.2 0-6.2 0c0 .8.2 1.4.6 1.8c.4.4.9.6 1.4.6c.4 0 .7-.1 1-.3c.3-.3.5-.6.6-1.1zm.1-2.5c0-.7-.2-1.2-.5-1.6c-.4-.4-.8-.6-1.3-.6c-.5 0-1 .2-1.3.6c-.4.4-.6 1-.6 1.6c0 0 3.7 0 3.7 0zm6.9 5.5l-2.5 0l0-9.3l2.3 0c0 0-.01 1.3 0 1.3c.4-.6.7-1 1-1.2c.4-.2.7-.3 1.1-.3c.6 0 1.1.1 1.6.4c0 0-.7 2.2-.7 2.2c-.4-.3-.8-.4-1.2-.4c-.3 0-.6.1-.9.3c-.2.2-.4.5-.5 1c-.2.5-.2 1.5-.2 3.1c-.04.02 0 2.9 0 2.9zm9.4-9.3l2.3 0c0 0 0 1.24 0 1.2c.8-.9 1.8-1.4 2.9-1.4c.6 0 1.1.1 1.6.3c.4.3.8.6 1 1.1c.5-.5.9-.8 1.4-1.1c.4-.2 1-.3 1.5-.3c.7 0 1.3.1 1.7.4c.5.3.9.7 1.1 1.2c.2.4.2 1 .2 1.9c.05.04 0 6 0 6l-2.4 0c0 0-.02-5.33 0-5.3c0-1-.1-1.6-.3-1.8c-.2-.4-.6-.6-1-.6c-.4 0-.7.2-1 .4c-.3.2-.5.5-.7.9c-.1.4-.2 1-.2 1.9c.03.02 0 4.5 0 4.5l-2.4 0c0 0-.04-5.11 0-5.1c0-.9-.1-1.5-.2-1.8c-.1-.2-.2-.4-.4-.6c-.2-.1-.4-.2-.7-.2c-.4 0-.8.2-1.1.4c-.3.2-.5.5-.6.8c-.1.4-.2 1.1-.2 2c-.01-.03 0 4.5 0 4.5l-2.5 0l0-9.3zm18.1 2.8c0 0-2.3-.4-2.3-.4c.3-.9.7-1.6 1.3-2c.6-.4 1.5-.6 2.8-.6c1.1 0 1.9.1 2.4.4c.6.2.9.5 1.2.9c.2.4.3 1.2.3 2.3c0 0 0 2.8 0 2.8c0 .9 0 1.5.1 1.9c.1.3.2.8.4 1.2c0 0-2.4 0-2.4 0c-.1-.2-.2-.4-.3-.7c0-.2 0-.3 0-.3c-.5.4-.9.7-1.4.9c-.5.2-1 .3-1.5.3c-1 0-1.8-.2-2.3-.8c-.6-.5-.8-1.1-.8-1.9c0-.6.1-1 .3-1.5c.3-.4.6-.7 1.1-.9c.5-.2 1.1-.4 2-.6c1.1-.2 1.9-.4 2.4-.6c0 0 0-.2 0-.2c0-.5-.2-.8-.4-1c-.2-.2-.7-.4-1.3-.4c-.5 0-.8.1-1 .3c-.3.2-.5.5-.6.9zm3.3 2c-.4.1-.9.3-1.5.4c-.7.1-1.2.3-1.4.4c-.3.3-.5.5-.5.9c0 .3.2.6.4.9c.3.2.6.4 1 .4c.4 0 .9-.2 1.3-.5c.3-.2.5-.5.6-.8c0-.2.1-.6.1-1.2c0 0 0-.5 0-.5zm4.8-6.1l0-2.3l2.4 0l0 2.3l-2.4 0zm2.4 1.3c0 0 .04 9.01 0 9c0 1.2 0 2-.2 2.5c-.2.5-.4.9-.9 1.2c-.4.3-1 .4-1.7.4c-.2 0-.5 0-.8-.1c-.3 0-.6-.1-.9-.2c0 0 .4-2.1.4-2.1c.2 0 .3.1.4.1c.1 0 .2 0 .2 0c.3 0 .5-.1.7-.2c.1-.1.2-.2.3-.4c0-.1.1-.6.1-1.3c-.03-.03 0-8.9 0-8.9l2.4 0zm2.1 4.5c0-.8.2-1.6.6-2.4c.4-.7.9-1.3 1.7-1.7c.7-.4 1.5-.6 2.5-.6c1.4 0 2.5.4 3.4 1.3c.9 1 1.4 2.1 1.4 3.5c0 1.4-.5 2.6-1.4 3.5c-.9 1-2 1.4-3.4 1.4c-.9 0-1.7-.2-2.5-.6c-.7-.4-1.3-.9-1.7-1.7c-.4-.7-.6-1.6-.6-2.7zm2.5.1c0 1 .2 1.7.6 2.2c.5.5 1 .7 1.7.7c.6 0 1.2-.2 1.6-.7c.4-.5.6-1.2.6-2.2c0-.9-.2-1.6-.6-2.1c-.4-.5-1-.7-1.6-.7c-.7 0-1.2.2-1.7.7c-.4.5-.6 1.2-.6 2.1zm11.4 4.7l-2.5 0l0-9.3l2.3 0c0 0 0 1.3 0 1.3c.4-.6.8-1 1.1-1.2c.3-.2.6-.3 1-.3c.6 0 1.1.1 1.7.4c0 0-.8 2.2-.8 2.2c-.4-.3-.8-.4-1.2-.4c-.3 0-.6.1-.8.3c-.3.2-.5.5-.6 1c-.2.5-.2 1.5-.2 3.1c-.02.02 0 2.9 0 2.9zm8.8-2.7c0 0 2.4-.3 2.4-.3c.1.4.3.8.7 1.1c.3.2.7.3 1.3.3c.7 0 1.1-.1 1.5-.3c.2-.2.3-.4.3-.7c0-.2-.1-.3-.2-.4c-.1-.2-.4-.3-.8-.4c-2-.4-3.3-.8-3.8-1.2c-.7-.5-1.1-1.2-1.1-2.1c0-.8.3-1.5 1-2c.6-.6 1.6-.8 2.9-.8c1.3 0 2.3.2 2.9.6c.6.4 1 1 1.3 1.8c0 0-2.4.5-2.4.5c-.1-.4-.3-.7-.5-.9c-.3-.2-.7-.3-1.2-.3c-.7 0-1.1.1-1.4.3c-.2.1-.3.3-.3.5c0 .2.1.3.2.5c.3.1 1 .4 2.3.7c1.4.2 2.3.6 2.8 1c.5.5.8 1.1.8 1.9c0 .8-.4 1.6-1.1 2.2c-.7.6-1.8.9-3.2.9c-1.2 0-2.3-.2-3-.8c-.7-.5-1.2-1.2-1.4-2.1zm15.1-6.6l0 1.9l-1.7 0c0 0 .03 3.8 0 3.8c0 .8 0 1.2.1 1.3c0 .2.1.3.2.3c.1.1.2.2.4.2c.2 0 .6-.1 1-.3c0 0 .2 1.9.2 1.9c-.6.3-1.2.4-1.9.4c-.5 0-.9-.1-1.2-.2c-.4-.2-.7-.4-.8-.6c-.2-.2-.3-.5-.4-1c0-.2-.1-.8-.1-1.7c.05.01 0-4.1 0-4.1l-1.1 0l0-1.9l1.1 0l0-1.9l2.5-1.4l0 3.3l1.7 0zm7.1 6.3c0 0 2.5.4 2.5.4c-.3.9-.8 1.6-1.5 2.1c-.7.5-1.5.7-2.6.7c-1.6 0-2.8-.5-3.6-1.6c-.6-.8-.9-1.9-.9-3.2c0-1.5.4-2.8 1.2-3.6c.8-.9 1.9-1.3 3.1-1.3c1.4 0 2.5.4 3.3 1.3c.8 1 1.2 2.4 1.1 4.2c0 0-6.2 0-6.2 0c.1.8.3 1.4.6 1.8c.4.4.9.6 1.5.6c.3 0 .7-.1.9-.3c.3-.3.5-.6.6-1.1zm.2-2.5c0-.7-.2-1.2-.6-1.6c-.3-.4-.8-.6-1.3-.6c-.5 0-.9.2-1.3.6c-.4.4-.5 1-.5 1.6c0 0 3.7 0 3.7 0zm4.4-3.8l2.3 0c0 0-.03 1.34 0 1.3c.3-.4.7-.8 1.2-1.1c.5-.3 1.1-.4 1.7-.4c1.1 0 2 .4 2.7 1.2c.8.9 1.2 2.1 1.2 3.6c0 1.5-.4 2.8-1.2 3.6c-.7.9-1.7 1.3-2.7 1.3c-.6 0-1-.1-1.4-.3c-.5-.2-.9-.5-1.4-1c.04-.05 0 4.7 0 4.7l-2.4 0l0-12.9zm2.4 4.5c0 1 .2 1.8.6 2.3c.5.5 1 .8 1.6.8c.5 0 1-.3 1.4-.7c.4-.5.6-1.2.6-2.3c0-1-.2-1.7-.6-2.2c-.4-.5-.9-.7-1.5-.7c-.6 0-1.1.2-1.5.7c-.4.5-.6 1.2-.6 2.1zm8.6 2.3l2.4 0c0 0 .04 1.8 0 1.8c0 .7 0 1.3-.1 1.7c-.2.4-.4.8-.7 1.1c-.4.3-.8.6-1.3.8c0 0-.5-1-.5-1c.5-.2.8-.4 1-.7c.2-.3.4-.7.4-1.2c-.03 0-1.2 0-1.2 0l0-2.5z" stroke="none" fill="#54626c"/></g></svg>