<?xml version="1.0" standalone="no"?><!DOCTYPE svg PUBLIC "-//W3C//DTD SVG 1.1//EN" "http://www.w3.org/Graphics/SVG/1.1/DTD/svg11.dtd"><svg xmlns="http://www.w3.org/2000/svg" version="1.1" width="48px" height="20.9px" viewBox="0 -5 48 20.9" style="top:-5px"><desc>LW com</desc><defs/><g id="Polygon70556"><path d="m.8 7.6l0-7.4l1.5 0l0 6.2l3.8 0l0 1.2l-5.3 0zm6.9 0l-1.8-7.5l1.5 0l1.2 5.2l1.3-5.2l1.8 0l1.4 5.3l1.1-5.3l1.5 0l-1.8 7.5l-1.6 0l-1.5-5.6l-1.5 5.6l-1.6 0zm8.2 0l0-1.4l1.5 0l0 1.4l-1.5 0zm7.7-3.8c0 0-1.4.3-1.4.3c-.1-.3-.2-.5-.4-.7c-.1-.1-.4-.2-.6-.2c-.4 0-.7.1-.9.4c-.2.2-.3.6-.3 1.2c0 .7.1 1.1.3 1.4c.2.3.5.4.9.4c.3 0 .5-.1.7-.2c.1-.2.3-.5.3-.8c0 0 1.5.2 1.5.2c-.2.6-.5 1.1-.9 1.5c-.4.3-1 .5-1.7.5c-.8 0-1.4-.3-1.9-.8c-.4-.5-.7-1.2-.7-2.1c0-.9.3-1.6.7-2.1c.5-.5 1.1-.7 2-.7c.6 0 1.1.1 1.5.4c.4.3.7.7.9 1.3zm.7 1c0-.4.2-.9.4-1.3c.2-.5.6-.8 1-1.1c.4-.2.9-.3 1.4-.3c.9 0 1.5.2 2.1.8c.5.5.8 1.2.8 2c0 .8-.3 1.5-.8 2.1c-.6.5-1.2.8-2 .8c-.5 0-1-.1-1.5-.4c-.4-.2-.8-.5-1-1c-.2-.4-.4-.9-.4-1.6zm1.5.1c0 .6.1 1 .4 1.3c.3.2.6.4 1 .4c.3 0 .6-.2.9-.4c.3-.3.4-.7.4-1.3c0-.5-.1-.9-.4-1.2c-.3-.3-.6-.4-.9-.4c-.4 0-.7.1-1 .4c-.3.3-.4.7-.4 1.2zm5.2-2.7l1.3 0c0 0 .01.74 0 .7c.5-.5 1.1-.8 1.7-.8c.4 0 .7 0 .9.2c.3.1.5.4.6.6c.3-.2.5-.5.8-.6c.3-.2.6-.2.9-.2c.4 0 .7.1 1 .2c.3.2.5.4.6.7c.1.3.2.6.2 1.2c-.01-.04 0 3.4 0 3.4l-1.5 0c0 0 .05-3.07 0-3.1c0-.5 0-.9-.1-1c-.1-.2-.3-.3-.6-.3c-.2 0-.4 0-.6.2c-.2.1-.3.3-.4.5c0 .2-.1.6-.1 1.1c.01.03 0 2.6 0 2.6l-1.4 0c0 0-.03-2.94 0-2.9c0-.6-.1-.9-.1-1.1c-.1-.1-.1-.2-.2-.3c-.1-.1-.3-.1-.5-.1c-.2 0-.4 0-.6.2c-.2.1-.3.3-.4.5c0 .2-.1.6-.1 1.1c.02 0 0 2.6 0 2.6l-1.4 0l0-5.4z" stroke="none" fill="#ffffff"/></g></svg>