<?xml version="1.0" standalone="no"?>
<!DOCTYPE svg PUBLIC "-//W3C//DTD SVG 1.1//EN" "http://www.w3.org/Graphics/SVG/1.1/DTD/svg11.dtd">
<svg xmlns="http://www.w3.org/2000/svg" version="1.1" width="438.1px" height="252.1px" viewBox="0 -8 438.1 252.1" style="top:-8px">
  <desc>Not only did we meet our reduction goals, we exceeded them — 11 months ahead of schedule</desc>
  <defs/>
  <g id="Polygon62983">
    <path d="M 8.9 75.1 L 6.8 75.1 C 6.8 75.1 6.83 61.63 6.8 61.6 C 6.3 62.1 5.7 62.6 4.8 63.1 C 4 63.6 3.3 63.9 2.6 64.2 C 2.6 64.2 2.6 62.1 2.6 62.1 C 3.8 61.6 4.8 60.9 5.7 60.1 C 6.6 59.3 7.2 58.6 7.6 57.8 C 7.58 57.82 8.9 57.8 8.9 57.8 L 8.9 75.1 Z M 20.5 75.1 L 18.4 75.1 C 18.4 75.1 18.4 61.63 18.4 61.6 C 17.9 62.1 17.2 62.6 16.4 63.1 C 15.6 63.6 14.8 63.9 14.2 64.2 C 14.2 64.2 14.2 62.1 14.2 62.1 C 15.4 61.6 16.4 60.9 17.3 60.1 C 18.2 59.3 18.8 58.6 19.1 57.8 C 19.15 57.82 20.5 57.8 20.5 57.8 L 20.5 75.1 Z M 33.2 75.1 L 33.2 62.6 L 35.1 62.6 C 35.1 62.6 35.05 64.37 35.1 64.4 C 35.4 63.8 36 63.3 36.6 62.9 C 37.3 62.5 38 62.3 38.8 62.3 C 39.7 62.3 40.5 62.5 41.1 62.9 C 41.7 63.3 42.1 63.8 42.3 64.5 C 43.3 63.1 44.6 62.3 46.2 62.3 C 47.4 62.3 48.4 62.7 49 63.4 C 49.7 64.1 50 65.1 50 66.5 C 50.03 66.53 50 75.1 50 75.1 L 47.9 75.1 C 47.9 75.1 47.93 67.23 47.9 67.2 C 47.9 66.4 47.9 65.8 47.7 65.4 C 47.6 65 47.3 64.7 47 64.5 C 46.6 64.3 46.2 64.2 45.7 64.2 C 44.8 64.2 44.1 64.5 43.5 65 C 43 65.6 42.7 66.6 42.7 67.8 C 42.67 67.84 42.7 75.1 42.7 75.1 L 40.6 75.1 C 40.6 75.1 40.56 66.99 40.6 67 C 40.6 66 40.4 65.3 40 64.9 C 39.7 64.4 39.1 64.2 38.4 64.2 C 37.8 64.2 37.2 64.3 36.7 64.6 C 36.2 65 35.8 65.4 35.6 66 C 35.4 66.6 35.3 67.5 35.3 68.6 C 35.27 68.62 35.3 75.1 35.3 75.1 L 33.2 75.1 Z M 52.4 68.9 C 52.4 66.5 53 64.8 54.3 63.7 C 55.4 62.8 56.7 62.3 58.2 62.3 C 59.9 62.3 61.3 62.9 62.4 64 C 63.5 65.1 64 66.7 64 68.7 C 64 70.3 63.8 71.5 63.3 72.5 C 62.8 73.4 62.1 74.1 61.2 74.6 C 60.3 75.1 59.3 75.4 58.2 75.4 C 56.5 75.4 55.1 74.8 54 73.7 C 52.9 72.6 52.4 71 52.4 68.9 Z M 54.5 68.9 C 54.5 70.4 54.9 71.6 55.6 72.4 C 56.3 73.2 57.2 73.6 58.2 73.6 C 59.3 73.6 60.1 73.2 60.8 72.4 C 61.5 71.6 61.9 70.4 61.9 68.8 C 61.9 67.2 61.5 66.1 60.8 65.3 C 60.1 64.5 59.2 64.1 58.2 64.1 C 57.2 64.1 56.3 64.5 55.6 65.3 C 54.9 66.1 54.5 67.3 54.5 68.9 Z M 66.5 75.1 L 66.5 62.6 L 68.4 62.6 C 68.4 62.6 68.4 64.4 68.4 64.4 C 69.3 63 70.6 62.3 72.4 62.3 C 73.1 62.3 73.8 62.5 74.4 62.8 C 75.1 63 75.5 63.4 75.8 63.8 C 76.2 64.2 76.4 64.8 76.5 65.4 C 76.6 65.8 76.6 66.4 76.6 67.4 C 76.62 67.42 76.6 75.1 76.6 75.1 L 74.5 75.1 C 74.5 75.1 74.51 67.5 74.5 67.5 C 74.5 66.6 74.4 66 74.3 65.6 C 74.1 65.1 73.8 64.8 73.4 64.6 C 73 64.3 72.5 64.2 71.9 64.2 C 71 64.2 70.2 64.5 69.6 65 C 68.9 65.6 68.6 66.7 68.6 68.3 C 68.61 68.28 68.6 75.1 68.6 75.1 L 66.5 75.1 Z M 83.5 73.3 C 83.8 73.3 84.1 73.2 84.5 73.2 C 84.5 73.2 84.8 75 84.8 75 C 84.2 75.2 83.6 75.2 83.2 75.2 C 82.4 75.2 81.8 75.1 81.4 74.9 C 81 74.6 80.7 74.3 80.5 73.9 C 80.3 73.5 80.2 72.7 80.2 71.4 C 80.24 71.43 80.2 64.3 80.2 64.3 L 78.7 64.3 L 78.7 62.6 L 80.2 62.6 L 80.2 59.5 L 82.3 58.3 L 82.3 62.6 L 84.5 62.6 L 84.5 64.3 L 82.3 64.3 C 82.3 64.3 82.34 71.55 82.3 71.5 C 82.3 72.1 82.4 72.5 82.4 72.7 C 82.5 72.9 82.6 73 82.8 73.1 C 83 73.2 83.2 73.3 83.5 73.3 C 83.5 73.3 83.5 73.3 83.5 73.3 Z M 86.5 75.1 L 86.5 57.9 L 88.6 57.9 C 88.6 57.9 88.63 64.06 88.6 64.1 C 89.6 62.9 90.9 62.3 92.4 62.3 C 93.3 62.3 94.1 62.5 94.8 62.9 C 95.4 63.3 95.9 63.8 96.2 64.4 C 96.5 65 96.7 66 96.7 67.2 C 96.66 67.19 96.7 75.1 96.7 75.1 L 94.5 75.1 C 94.5 75.1 94.55 67.19 94.5 67.2 C 94.5 66.1 94.3 65.4 93.9 64.9 C 93.4 64.4 92.8 64.2 91.9 64.2 C 91.3 64.2 90.7 64.3 90.2 64.6 C 89.6 65 89.2 65.4 89 66 C 88.7 66.5 88.6 67.3 88.6 68.3 C 88.63 68.26 88.6 75.1 88.6 75.1 L 86.5 75.1 Z M 99 71.4 C 99 71.4 101.1 71 101.1 71 C 101.2 71.9 101.6 72.5 102.1 73 C 102.6 73.4 103.4 73.6 104.3 73.6 C 105.3 73.6 106 73.4 106.5 73 C 107 72.6 107.2 72.2 107.2 71.6 C 107.2 71.2 107 70.8 106.6 70.5 C 106.3 70.3 105.6 70.1 104.4 69.8 C 102.9 69.4 101.8 69.1 101.2 68.8 C 100.6 68.5 100.1 68.1 99.8 67.6 C 99.5 67.1 99.4 66.5 99.4 65.9 C 99.4 65.4 99.5 64.9 99.8 64.4 C 100 63.9 100.4 63.5 100.8 63.2 C 101.1 63 101.6 62.8 102.1 62.6 C 102.7 62.4 103.3 62.3 104 62.3 C 104.9 62.3 105.8 62.5 106.5 62.8 C 107.3 63 107.8 63.4 108.2 63.9 C 108.5 64.4 108.8 65 108.9 65.8 C 108.9 65.8 106.8 66.1 106.8 66.1 C 106.7 65.5 106.5 65 106 64.6 C 105.6 64.3 104.9 64.1 104.1 64.1 C 103.1 64.1 102.4 64.2 102 64.6 C 101.6 64.9 101.4 65.3 101.4 65.7 C 101.4 66 101.5 66.2 101.7 66.4 C 101.8 66.7 102.1 66.8 102.5 67 C 102.7 67.1 103.3 67.2 104.3 67.5 C 105.8 67.9 106.9 68.3 107.5 68.5 C 108.1 68.8 108.5 69.1 108.9 69.6 C 109.2 70.1 109.4 70.7 109.4 71.4 C 109.4 72.1 109.2 72.8 108.7 73.4 C 108.3 74 107.7 74.5 107 74.8 C 106.2 75.2 105.3 75.4 104.3 75.4 C 102.7 75.4 101.5 75 100.6 74.3 C 99.8 73.7 99.3 72.7 99 71.4 Z M 127.1 75.1 C 126.9 74.6 126.7 74.1 126.7 73.5 C 125.9 74.2 125.1 74.7 124.4 74.9 C 123.7 75.2 122.9 75.4 122.1 75.4 C 120.7 75.4 119.7 75 118.9 74.4 C 118.2 73.7 117.8 72.8 117.8 71.8 C 117.8 71.2 118 70.6 118.2 70.1 C 118.5 69.6 118.9 69.2 119.3 68.9 C 119.8 68.6 120.3 68.4 120.8 68.2 C 121.3 68.1 121.9 68 122.7 67.9 C 124.4 67.7 125.7 67.5 126.5 67.2 C 126.5 66.9 126.5 66.7 126.5 66.6 C 126.5 65.8 126.3 65.2 125.9 64.8 C 125.4 64.3 124.6 64.1 123.5 64.1 C 122.5 64.1 121.8 64.3 121.3 64.6 C 120.8 65 120.5 65.6 120.2 66.5 C 120.2 66.5 118.2 66.2 118.2 66.2 C 118.4 65.3 118.7 64.6 119.1 64 C 119.5 63.5 120.2 63.1 121 62.8 C 121.8 62.5 122.7 62.3 123.8 62.3 C 124.9 62.3 125.7 62.5 126.4 62.7 C 127.1 63 127.5 63.3 127.9 63.7 C 128.2 64 128.4 64.5 128.5 65.1 C 128.6 65.5 128.6 66.1 128.6 67 C 128.6 67 128.6 69.9 128.6 69.9 C 128.6 71.8 128.7 73.1 128.7 73.6 C 128.8 74.1 129 74.6 129.3 75.1 C 129.28 75.07 127.1 75.1 127.1 75.1 C 127.1 75.1 127.08 75.07 127.1 75.1 Z M 126.5 68.8 C 125.7 69.1 124.6 69.4 123 69.6 C 122.2 69.7 121.6 69.9 121.2 70 C 120.8 70.2 120.6 70.4 120.4 70.7 C 120.2 71 120.1 71.4 120.1 71.7 C 120.1 72.3 120.3 72.8 120.7 73.1 C 121.1 73.5 121.8 73.7 122.6 73.7 C 123.4 73.7 124.1 73.5 124.7 73.2 C 125.4 72.8 125.8 72.3 126.1 71.7 C 126.4 71.2 126.5 70.5 126.5 69.6 C 126.5 69.6 126.5 68.8 126.5 68.8 Z M 131.9 75.1 L 131.9 57.9 L 134 57.9 C 134 57.9 133.99 64.06 134 64.1 C 135 62.9 136.2 62.3 137.7 62.3 C 138.6 62.3 139.4 62.5 140.1 62.9 C 140.8 63.3 141.3 63.8 141.6 64.4 C 141.9 65 142 66 142 67.2 C 142.02 67.19 142 75.1 142 75.1 L 139.9 75.1 C 139.9 75.1 139.91 67.19 139.9 67.2 C 139.9 66.1 139.7 65.4 139.2 64.9 C 138.8 64.4 138.1 64.2 137.3 64.2 C 136.7 64.2 136.1 64.3 135.5 64.6 C 135 65 134.6 65.4 134.3 66 C 134.1 66.5 134 67.3 134 68.3 C 133.99 68.26 134 75.1 134 75.1 L 131.9 75.1 Z M 153.8 71.1 C 153.8 71.1 155.9 71.3 155.9 71.3 C 155.6 72.6 154.9 73.6 154 74.3 C 153.1 75 151.9 75.4 150.5 75.4 C 148.6 75.4 147.2 74.8 146.1 73.7 C 145.1 72.6 144.5 71 144.5 69 C 144.5 66.9 145.1 65.2 146.1 64.1 C 147.2 62.9 148.6 62.3 150.3 62.3 C 152 62.3 153.4 62.9 154.4 64 C 155.5 65.2 156 66.8 156 68.8 C 156 69 156 69.1 156 69.4 C 156 69.4 146.7 69.4 146.7 69.4 C 146.8 70.8 147.2 71.8 147.9 72.5 C 148.6 73.3 149.4 73.6 150.5 73.6 C 151.2 73.6 151.9 73.4 152.4 73 C 153 72.6 153.4 72 153.8 71.1 Z M 146.8 67.7 C 146.8 67.7 153.8 67.7 153.8 67.7 C 153.7 66.6 153.4 65.8 153 65.3 C 152.3 64.5 151.4 64.1 150.4 64.1 C 149.4 64.1 148.6 64.4 147.9 65.1 C 147.3 65.7 146.9 66.6 146.8 67.7 Z M 167.1 75.1 C 166.9 74.6 166.8 74.1 166.7 73.5 C 165.9 74.2 165.2 74.7 164.4 74.9 C 163.7 75.2 162.9 75.4 162.1 75.4 C 160.7 75.4 159.7 75 159 74.4 C 158.2 73.7 157.9 72.8 157.9 71.8 C 157.9 71.2 158 70.6 158.3 70.1 C 158.6 69.6 158.9 69.2 159.4 68.9 C 159.8 68.6 160.3 68.4 160.9 68.2 C 161.3 68.1 161.9 68 162.8 67.9 C 164.5 67.7 165.7 67.5 166.5 67.2 C 166.5 66.9 166.5 66.7 166.5 66.6 C 166.5 65.8 166.3 65.2 165.9 64.8 C 165.4 64.3 164.6 64.1 163.5 64.1 C 162.5 64.1 161.8 64.3 161.3 64.6 C 160.9 65 160.5 65.6 160.3 66.5 C 160.3 66.5 158.2 66.2 158.2 66.2 C 158.4 65.3 158.7 64.6 159.2 64 C 159.6 63.5 160.2 63.1 161 62.8 C 161.8 62.5 162.8 62.3 163.8 62.3 C 164.9 62.3 165.8 62.5 166.4 62.7 C 167.1 63 167.6 63.3 167.9 63.7 C 168.2 64 168.4 64.5 168.6 65.1 C 168.6 65.5 168.7 66.1 168.7 67 C 168.7 67 168.7 69.9 168.7 69.9 C 168.7 71.8 168.7 73.1 168.8 73.6 C 168.9 74.1 169.1 74.6 169.3 75.1 C 169.32 75.07 167.1 75.1 167.1 75.1 C 167.1 75.1 167.12 75.07 167.1 75.1 Z M 166.5 68.8 C 165.8 69.1 164.6 69.4 163.1 69.6 C 162.2 69.7 161.6 69.9 161.2 70 C 160.9 70.2 160.6 70.4 160.4 70.7 C 160.2 71 160.1 71.4 160.1 71.7 C 160.1 72.3 160.3 72.8 160.8 73.1 C 161.2 73.5 161.8 73.7 162.6 73.7 C 163.4 73.7 164.2 73.5 164.8 73.2 C 165.4 72.8 165.9 72.3 166.2 71.7 C 166.4 71.2 166.5 70.5 166.5 69.6 C 166.5 69.6 166.5 68.8 166.5 68.8 Z M 180 75.1 C 180 75.1 180 73.5 180 73.5 C 179.2 74.7 178.1 75.4 176.5 75.4 C 175.5 75.4 174.6 75.1 173.8 74.5 C 173 74 172.3 73.2 171.8 72.2 C 171.4 71.3 171.2 70.1 171.2 68.9 C 171.2 67.6 171.4 66.5 171.8 65.5 C 172.2 64.5 172.8 63.7 173.6 63.2 C 174.5 62.6 175.4 62.3 176.4 62.3 C 177.2 62.3 177.8 62.5 178.4 62.8 C 179 63.1 179.5 63.5 179.9 64.1 C 179.86 64.06 179.9 57.9 179.9 57.9 L 182 57.9 L 182 75.1 L 180 75.1 Z M 173.3 68.9 C 173.3 70.5 173.7 71.6 174.3 72.4 C 175 73.2 175.8 73.6 176.7 73.6 C 177.6 73.6 178.4 73.2 179.1 72.5 C 179.7 71.7 180 70.6 180 69 C 180 67.3 179.7 66.1 179.1 65.3 C 178.4 64.5 177.6 64.1 176.6 64.1 C 175.7 64.1 174.9 64.5 174.3 65.2 C 173.6 66 173.3 67.2 173.3 68.9 Z M 191.2 68.9 C 191.2 66.5 191.8 64.8 193.1 63.7 C 194.1 62.8 195.5 62.3 197 62.3 C 198.7 62.3 200.1 62.9 201.2 64 C 202.3 65.1 202.8 66.7 202.8 68.7 C 202.8 70.3 202.6 71.5 202.1 72.5 C 201.6 73.4 200.9 74.1 200 74.6 C 199.1 75.1 198.1 75.4 197 75.4 C 195.2 75.4 193.8 74.8 192.8 73.7 C 191.7 72.6 191.2 71 191.2 68.9 Z M 193.3 68.9 C 193.3 70.4 193.7 71.6 194.4 72.4 C 195.1 73.2 195.9 73.6 197 73.6 C 198 73.6 198.9 73.2 199.6 72.4 C 200.3 71.6 200.6 70.4 200.6 68.8 C 200.6 67.2 200.3 66.1 199.6 65.3 C 198.9 64.5 198 64.1 197 64.1 C 195.9 64.1 195.1 64.5 194.4 65.3 C 193.7 66.1 193.3 67.3 193.3 68.9 Z M 205.8 75.1 L 205.8 64.3 L 203.9 64.3 L 203.9 62.6 L 205.8 62.6 C 205.8 62.6 205.79 61.3 205.8 61.3 C 205.8 60.5 205.9 59.8 206 59.4 C 206.2 58.9 206.6 58.4 207.1 58.1 C 207.6 57.8 208.3 57.6 209.2 57.6 C 209.8 57.6 210.5 57.7 211.2 57.8 C 211.2 57.8 210.9 59.7 210.9 59.7 C 210.5 59.6 210 59.5 209.6 59.5 C 209 59.5 208.6 59.7 208.3 59.9 C 208 60.2 207.9 60.7 207.9 61.5 C 207.89 61.48 207.9 62.6 207.9 62.6 L 210.3 62.6 L 210.3 64.3 L 207.9 64.3 L 207.9 75.1 L 205.8 75.1 Z M 217.8 71.4 C 217.8 71.4 219.9 71 219.9 71 C 220 71.9 220.3 72.5 220.8 73 C 221.4 73.4 222.1 73.6 223.1 73.6 C 224.1 73.6 224.8 73.4 225.2 73 C 225.7 72.6 225.9 72.2 225.9 71.6 C 225.9 71.2 225.7 70.8 225.3 70.5 C 225 70.3 224.3 70.1 223.2 69.8 C 221.6 69.4 220.6 69.1 220 68.8 C 219.4 68.5 218.9 68.1 218.6 67.6 C 218.3 67.1 218.1 66.5 218.1 65.9 C 218.1 65.4 218.3 64.9 218.5 64.4 C 218.8 63.9 219.1 63.5 219.6 63.2 C 219.9 63 220.3 62.8 220.9 62.6 C 221.5 62.4 222.1 62.3 222.7 62.3 C 223.7 62.3 224.5 62.5 225.3 62.8 C 226 63 226.6 63.4 226.9 63.9 C 227.3 64.4 227.5 65 227.6 65.8 C 227.6 65.8 225.6 66.1 225.6 66.1 C 225.5 65.5 225.2 65 224.8 64.6 C 224.3 64.3 223.7 64.1 222.9 64.1 C 221.9 64.1 221.2 64.2 220.8 64.6 C 220.4 64.9 220.2 65.3 220.2 65.7 C 220.2 66 220.3 66.2 220.4 66.4 C 220.6 66.7 220.9 66.8 221.2 67 C 221.4 67.1 222.1 67.2 223.1 67.5 C 224.6 67.9 225.6 68.3 226.2 68.5 C 226.8 68.8 227.3 69.1 227.6 69.6 C 227.9 70.1 228.1 70.7 228.1 71.4 C 228.1 72.1 227.9 72.8 227.5 73.4 C 227.1 74 226.5 74.5 225.7 74.8 C 225 75.2 224.1 75.4 223.1 75.4 C 221.5 75.4 220.3 75 219.4 74.3 C 218.6 73.7 218 72.7 217.8 71.4 Z M 238.7 70.5 C 238.7 70.5 240.8 70.8 240.8 70.8 C 240.6 72.2 240 73.3 239.1 74.1 C 238.1 74.9 237 75.4 235.6 75.4 C 233.9 75.4 232.6 74.8 231.5 73.7 C 230.5 72.6 230 71 230 68.9 C 230 67.6 230.2 66.4 230.6 65.4 C 231.1 64.4 231.8 63.6 232.7 63.1 C 233.6 62.6 234.6 62.3 235.7 62.3 C 237 62.3 238.1 62.7 239 63.4 C 239.8 64.1 240.4 65 240.6 66.3 C 240.6 66.3 238.6 66.6 238.6 66.6 C 238.4 65.8 238 65.1 237.5 64.7 C 237 64.3 236.4 64.1 235.7 64.1 C 234.7 64.1 233.8 64.5 233.1 65.2 C 232.5 66 232.1 67.2 232.1 68.8 C 232.1 70.5 232.5 71.7 233.1 72.5 C 233.7 73.2 234.6 73.6 235.6 73.6 C 236.4 73.6 237.1 73.4 237.7 72.9 C 238.2 72.4 238.6 71.6 238.7 70.5 Z M 242.6 75.1 L 242.6 57.9 L 244.7 57.9 C 244.7 57.9 244.73 64.06 244.7 64.1 C 245.7 62.9 247 62.3 248.5 62.3 C 249.4 62.3 250.2 62.5 250.9 62.9 C 251.5 63.3 252 63.8 252.3 64.4 C 252.6 65 252.8 66 252.8 67.2 C 252.76 67.19 252.8 75.1 252.8 75.1 L 250.7 75.1 C 250.7 75.1 250.65 67.19 250.7 67.2 C 250.7 66.1 250.4 65.4 250 64.9 C 249.5 64.4 248.9 64.2 248 64.2 C 247.4 64.2 246.8 64.3 246.3 64.6 C 245.7 65 245.3 65.4 245.1 66 C 244.9 66.5 244.7 67.3 244.7 68.3 C 244.73 68.26 244.7 75.1 244.7 75.1 L 242.6 75.1 Z M 264.5 71.1 C 264.5 71.1 266.7 71.3 266.7 71.3 C 266.3 72.6 265.7 73.6 264.8 74.3 C 263.8 75 262.6 75.4 261.2 75.4 C 259.4 75.4 257.9 74.8 256.9 73.7 C 255.8 72.6 255.3 71 255.3 69 C 255.3 66.9 255.8 65.2 256.9 64.1 C 258 62.9 259.4 62.3 261.1 62.3 C 262.7 62.3 264.1 62.9 265.2 64 C 266.2 65.2 266.7 66.8 266.7 68.8 C 266.7 69 266.7 69.1 266.7 69.4 C 266.7 69.4 257.4 69.4 257.4 69.4 C 257.5 70.8 257.9 71.8 258.6 72.5 C 259.3 73.3 260.2 73.6 261.2 73.6 C 262 73.6 262.6 73.4 263.2 73 C 263.7 72.6 264.2 72 264.5 71.1 Z M 257.6 67.7 C 257.6 67.7 264.5 67.7 264.5 67.7 C 264.4 66.6 264.2 65.8 263.7 65.3 C 263 64.5 262.2 64.1 261.1 64.1 C 260.1 64.1 259.3 64.4 258.7 65.1 C 258 65.7 257.6 66.6 257.6 67.7 Z M 277.4 75.1 C 277.4 75.1 277.39 73.5 277.4 73.5 C 276.6 74.7 275.4 75.4 273.9 75.4 C 272.9 75.4 272 75.1 271.2 74.5 C 270.3 74 269.7 73.2 269.2 72.2 C 268.8 71.3 268.6 70.1 268.6 68.9 C 268.6 67.6 268.8 66.5 269.2 65.5 C 269.6 64.5 270.2 63.7 271 63.2 C 271.9 62.6 272.8 62.3 273.8 62.3 C 274.6 62.3 275.2 62.5 275.8 62.8 C 276.4 63.1 276.9 63.5 277.3 64.1 C 277.25 64.06 277.3 57.9 277.3 57.9 L 279.4 57.9 L 279.4 75.1 L 277.4 75.1 Z M 270.7 68.9 C 270.7 70.5 271.1 71.6 271.7 72.4 C 272.4 73.2 273.2 73.6 274.1 73.6 C 275 73.6 275.8 73.2 276.5 72.5 C 277.1 71.7 277.4 70.6 277.4 69 C 277.4 67.3 277.1 66.1 276.4 65.3 C 275.8 64.5 275 64.1 274 64.1 C 273.1 64.1 272.3 64.5 271.7 65.2 C 271 66 270.7 67.2 270.7 68.9 Z M 290.8 75.1 C 290.8 75.1 290.82 73.24 290.8 73.2 C 289.9 74.7 288.5 75.4 286.9 75.4 C 286.1 75.4 285.5 75.2 284.8 74.9 C 284.2 74.7 283.7 74.3 283.4 73.9 C 283.1 73.4 282.9 72.9 282.8 72.3 C 282.7 71.9 282.6 71.2 282.6 70.3 C 282.62 70.34 282.6 62.6 282.6 62.6 L 284.7 62.6 C 284.7 62.6 284.73 69.53 284.7 69.5 C 284.7 70.6 284.8 71.4 284.9 71.8 C 285 72.3 285.3 72.7 285.7 73.1 C 286.1 73.4 286.7 73.5 287.3 73.5 C 287.9 73.5 288.5 73.4 289.1 73.1 C 289.6 72.7 290 72.3 290.3 71.7 C 290.5 71.2 290.6 70.4 290.6 69.3 C 290.6 69.3 290.6 62.6 290.6 62.6 L 292.7 62.6 L 292.7 75.1 L 290.8 75.1 Z M 296 75.1 L 296 57.9 L 298.1 57.9 L 298.1 75.1 L 296 75.1 Z M 309.9 71.1 C 309.9 71.1 312 71.3 312 71.3 C 311.7 72.6 311.1 73.6 310.1 74.3 C 309.2 75 308 75.4 306.6 75.4 C 304.8 75.4 303.3 74.8 302.2 73.7 C 301.2 72.6 300.6 71 300.6 69 C 300.6 66.9 301.2 65.2 302.3 64.1 C 303.3 62.9 304.7 62.3 306.5 62.3 C 308.1 62.3 309.5 62.9 310.5 64 C 311.6 65.2 312.1 66.8 312.1 68.8 C 312.1 69 312.1 69.1 312.1 69.4 C 312.1 69.4 302.8 69.4 302.8 69.4 C 302.9 70.8 303.3 71.8 304 72.5 C 304.7 73.3 305.5 73.6 306.6 73.6 C 307.4 73.6 308 73.4 308.6 73 C 309.1 72.6 309.5 72 309.9 71.1 Z M 302.9 67.7 C 302.9 67.7 309.9 67.7 309.9 67.7 C 309.8 66.6 309.5 65.8 309.1 65.3 C 308.4 64.5 307.6 64.1 306.5 64.1 C 305.5 64.1 304.7 64.4 304 65.1 C 303.4 65.7 303 66.6 302.9 67.7 Z M 315.3 75.1 L 315.3 72.7 L 317.7 72.7 L 317.7 75.1 L 315.3 75.1 Z " stroke="none" fill="#54626c"/>
  </g>
  <g id="Polygon62982">
    <path d="M 1.2 47.3 C 1.2 47.3 3.2 47.6 3.2 47.6 C 3.3 48.2 3.6 48.7 4 49 C 4.5 49.4 5.2 49.6 6.1 49.6 C 7.1 49.6 7.8 49.4 8.4 49 C 8.9 48.6 9.3 48.1 9.4 47.4 C 9.6 46.9 9.6 46 9.6 44.6 C 8.7 45.7 7.5 46.3 6.2 46.3 C 4.4 46.3 3.1 45.7 2.2 44.4 C 1.2 43.2 0.8 41.7 0.8 40 C 0.8 38.8 1 37.7 1.4 36.7 C 1.8 35.7 2.5 34.9 3.3 34.4 C 4.1 33.8 5.1 33.5 6.2 33.5 C 7.6 33.5 8.8 34.1 9.8 35.3 C 9.8 35.33 9.8 33.8 9.8 33.8 L 11.7 33.8 C 11.7 33.8 11.74 44.59 11.7 44.6 C 11.7 46.5 11.5 47.9 11.2 48.7 C 10.8 49.5 10.1 50.2 9.3 50.6 C 8.4 51.1 7.4 51.3 6.1 51.3 C 4.6 51.3 3.4 51 2.5 50.3 C 1.6 49.7 1.2 48.6 1.2 47.3 Z M 2.9 39.8 C 2.9 41.5 3.3 42.7 3.9 43.4 C 4.6 44.2 5.4 44.5 6.4 44.5 C 7.3 44.5 8.1 44.2 8.8 43.4 C 9.4 42.7 9.8 41.5 9.8 39.9 C 9.8 38.4 9.4 37.2 8.8 36.5 C 8.1 35.7 7.3 35.3 6.3 35.3 C 5.4 35.3 4.6 35.7 3.9 36.4 C 3.3 37.2 2.9 38.3 2.9 39.8 Z M 14.1 40 C 14.1 37.7 14.8 36 16.1 34.9 C 17.1 34 18.4 33.5 20 33.5 C 21.7 33.5 23.1 34.1 24.2 35.2 C 25.3 36.3 25.8 37.9 25.8 39.9 C 25.8 41.5 25.6 42.7 25.1 43.7 C 24.6 44.6 23.9 45.3 23 45.8 C 22.1 46.3 21.1 46.6 20 46.6 C 18.2 46.6 16.8 46 15.8 44.9 C 14.7 43.8 14.1 42.2 14.1 40 Z M 16.3 40 C 16.3 41.6 16.7 42.8 17.4 43.6 C 18.1 44.4 18.9 44.8 20 44.8 C 21 44.8 21.9 44.4 22.6 43.6 C 23.3 42.8 23.6 41.6 23.6 40 C 23.6 38.4 23.3 37.3 22.6 36.5 C 21.9 35.7 21 35.3 20 35.3 C 18.9 35.3 18.1 35.7 17.4 36.5 C 16.7 37.3 16.3 38.5 16.3 40 Z M 36.8 46.3 C 36.6 45.8 36.5 45.3 36.4 44.7 C 35.6 45.4 34.9 45.9 34.1 46.1 C 33.4 46.4 32.6 46.6 31.8 46.6 C 30.4 46.6 29.4 46.2 28.7 45.6 C 27.9 44.9 27.6 44 27.6 43 C 27.6 42.4 27.7 41.8 28 41.3 C 28.3 40.8 28.6 40.4 29.1 40.1 C 29.5 39.8 30 39.6 30.6 39.4 C 31 39.3 31.6 39.2 32.5 39.1 C 34.2 38.9 35.4 38.7 36.2 38.4 C 36.2 38.1 36.2 37.9 36.2 37.8 C 36.2 37 36 36.4 35.6 36 C 35.1 35.5 34.3 35.3 33.2 35.3 C 32.2 35.3 31.5 35.5 31 35.8 C 30.6 36.2 30.2 36.8 30 37.7 C 30 37.7 27.9 37.4 27.9 37.4 C 28.1 36.5 28.4 35.8 28.9 35.2 C 29.3 34.7 29.9 34.3 30.7 34 C 31.5 33.7 32.5 33.5 33.5 33.5 C 34.6 33.5 35.5 33.7 36.1 33.9 C 36.8 34.2 37.3 34.5 37.6 34.9 C 37.9 35.2 38.1 35.7 38.3 36.3 C 38.3 36.7 38.4 37.3 38.4 38.2 C 38.4 38.2 38.4 41.1 38.4 41.1 C 38.4 43 38.4 44.3 38.5 44.8 C 38.6 45.3 38.8 45.8 39 46.3 C 39.02 46.27 36.8 46.3 36.8 46.3 C 36.8 46.3 36.82 46.27 36.8 46.3 Z M 36.2 40 C 35.5 40.3 34.3 40.6 32.8 40.8 C 31.9 40.9 31.3 41.1 30.9 41.2 C 30.6 41.4 30.3 41.6 30.1 41.9 C 29.9 42.2 29.8 42.6 29.8 42.9 C 29.8 43.5 30 44 30.5 44.3 C 30.9 44.7 31.5 44.9 32.3 44.9 C 33.1 44.9 33.9 44.7 34.5 44.4 C 35.1 44 35.6 43.5 35.9 42.9 C 36.1 42.4 36.2 41.7 36.2 40.8 C 36.2 40.8 36.2 40 36.2 40 Z M 41.6 46.3 L 41.6 29.1 L 43.7 29.1 L 43.7 46.3 L 41.6 46.3 Z M 46.1 42.6 C 46.1 42.6 48.2 42.2 48.2 42.2 C 48.3 43.1 48.6 43.7 49.2 44.2 C 49.7 44.6 50.5 44.8 51.4 44.8 C 52.4 44.8 53.1 44.6 53.6 44.2 C 54 43.8 54.3 43.4 54.3 42.8 C 54.3 42.4 54.1 42 53.7 41.7 C 53.4 41.5 52.7 41.3 51.5 41 C 50 40.6 48.9 40.3 48.3 40 C 47.7 39.7 47.2 39.3 46.9 38.8 C 46.6 38.3 46.5 37.7 46.5 37.1 C 46.5 36.6 46.6 36.1 46.8 35.6 C 47.1 35.1 47.4 34.7 47.9 34.4 C 48.2 34.2 48.7 34 49.2 33.8 C 49.8 33.6 50.4 33.5 51 33.5 C 52 33.5 52.9 33.7 53.6 34 C 54.4 34.2 54.9 34.6 55.3 35.1 C 55.6 35.6 55.8 36.2 56 37 C 56 37 53.9 37.3 53.9 37.3 C 53.8 36.7 53.6 36.2 53.1 35.8 C 52.7 35.5 52 35.3 51.2 35.3 C 50.2 35.3 49.5 35.4 49.1 35.8 C 48.7 36.1 48.5 36.5 48.5 36.9 C 48.5 37.2 48.6 37.4 48.8 37.6 C 48.9 37.9 49.2 38 49.6 38.2 C 49.8 38.3 50.4 38.4 51.4 38.7 C 52.9 39.1 54 39.5 54.6 39.7 C 55.1 40 55.6 40.3 55.9 40.8 C 56.3 41.3 56.4 41.9 56.4 42.6 C 56.4 43.3 56.2 44 55.8 44.6 C 55.4 45.2 54.8 45.7 54.1 46 C 53.3 46.4 52.4 46.6 51.4 46.6 C 49.8 46.6 48.6 46.2 47.7 45.5 C 46.9 44.9 46.3 43.9 46.1 42.6 Z M 59.5 46.3 L 59.5 43.9 L 61.9 43.9 C 61.9 43.9 61.91 46.27 61.9 46.3 C 61.9 47.2 61.8 47.9 61.4 48.4 C 61.1 49 60.6 49.4 60 49.7 C 60 49.7 59.4 48.8 59.4 48.8 C 59.8 48.6 60.1 48.3 60.4 47.9 C 60.6 47.5 60.7 47 60.7 46.3 C 60.7 46.27 59.5 46.3 59.5 46.3 Z M 74.6 46.3 L 70.8 33.8 L 73 33.8 L 74.9 41 C 74.9 41 75.68 43.68 75.7 43.7 C 75.7 43.6 75.9 42.7 76.3 41.1 C 76.32 41.12 78.3 33.8 78.3 33.8 L 80.5 33.8 L 82.3 41 L 83 43.4 L 83.7 41 L 85.8 33.8 L 87.9 33.8 L 84 46.3 L 81.8 46.3 L 79.8 38.8 L 79.3 36.7 L 76.8 46.3 L 74.6 46.3 Z M 98.1 42.3 C 98.1 42.3 100.3 42.5 100.3 42.5 C 100 43.8 99.3 44.8 98.4 45.5 C 97.5 46.2 96.3 46.6 94.9 46.6 C 93 46.6 91.6 46 90.5 44.9 C 89.5 43.8 88.9 42.2 88.9 40.2 C 88.9 38.1 89.5 36.4 90.5 35.3 C 91.6 34.1 93 33.5 94.7 33.5 C 96.4 33.5 97.8 34.1 98.8 35.2 C 99.9 36.4 100.4 38 100.4 40 C 100.4 40.2 100.4 40.3 100.4 40.6 C 100.4 40.6 91.1 40.6 91.1 40.6 C 91.2 42 91.6 43 92.3 43.7 C 93 44.5 93.8 44.8 94.9 44.8 C 95.6 44.8 96.3 44.6 96.8 44.2 C 97.4 43.8 97.8 43.2 98.1 42.3 Z M 91.2 38.9 C 91.2 38.9 98.2 38.9 98.2 38.9 C 98.1 37.8 97.8 37 97.4 36.5 C 96.7 35.7 95.8 35.3 94.8 35.3 C 93.8 35.3 93 35.6 92.3 36.3 C 91.7 36.9 91.3 37.8 91.2 38.9 Z M 118.2 42.3 C 118.2 42.3 120.3 42.5 120.3 42.5 C 120 43.8 119.4 44.8 118.4 45.5 C 117.5 46.2 116.3 46.6 114.9 46.6 C 113 46.6 111.6 46 110.5 44.9 C 109.5 43.8 108.9 42.2 108.9 40.2 C 108.9 38.1 109.5 36.4 110.6 35.3 C 111.6 34.1 113 33.5 114.8 33.5 C 116.4 33.5 117.8 34.1 118.8 35.2 C 119.9 36.4 120.4 38 120.4 40 C 120.4 40.2 120.4 40.3 120.4 40.6 C 120.4 40.6 111.1 40.6 111.1 40.6 C 111.2 42 111.6 43 112.3 43.7 C 113 44.5 113.8 44.8 114.9 44.8 C 115.7 44.8 116.3 44.6 116.9 44.2 C 117.4 43.8 117.8 43.2 118.2 42.3 Z M 111.2 38.9 C 111.2 38.9 118.2 38.9 118.2 38.9 C 118.1 37.8 117.8 37 117.4 36.5 C 116.7 35.7 115.8 35.3 114.8 35.3 C 113.8 35.3 113 35.6 112.3 36.3 C 111.7 36.9 111.3 37.8 111.2 38.9 Z M 121.6 46.3 L 126.1 39.8 L 121.9 33.8 L 124.6 33.8 C 124.6 33.8 126.47 36.75 126.5 36.7 C 126.8 37.3 127.1 37.8 127.3 38.1 C 127.7 37.6 128 37.2 128.3 36.8 C 128.29 36.77 130.4 33.8 130.4 33.8 L 132.9 33.8 L 128.6 39.7 L 133.2 46.3 L 130.6 46.3 L 128.1 42.4 L 127.4 41.4 L 124.1 46.3 L 121.6 46.3 Z M 143.1 41.7 C 143.1 41.7 145.2 42 145.2 42 C 145 43.4 144.4 44.5 143.4 45.3 C 142.5 46.1 141.4 46.6 140 46.6 C 138.3 46.6 136.9 46 135.9 44.9 C 134.9 43.8 134.3 42.2 134.3 40.1 C 134.3 38.8 134.6 37.6 135 36.6 C 135.5 35.6 136.1 34.8 137 34.3 C 138 33.8 138.9 33.5 140 33.5 C 141.4 33.5 142.5 33.9 143.3 34.6 C 144.2 35.3 144.7 36.2 145 37.5 C 145 37.5 142.9 37.8 142.9 37.8 C 142.7 37 142.4 36.3 141.9 35.9 C 141.4 35.5 140.8 35.3 140.1 35.3 C 139 35.3 138.2 35.7 137.5 36.4 C 136.8 37.2 136.5 38.4 136.5 40 C 136.5 41.7 136.8 42.9 137.5 43.7 C 138.1 44.4 138.9 44.8 140 44.8 C 140.8 44.8 141.5 44.6 142.1 44.1 C 142.6 43.6 143 42.8 143.1 41.7 Z M 155.5 42.3 C 155.5 42.3 157.7 42.5 157.7 42.5 C 157.3 43.8 156.7 44.8 155.8 45.5 C 154.8 46.2 153.7 46.6 152.2 46.6 C 150.4 46.6 149 46 147.9 44.9 C 146.8 43.8 146.3 42.2 146.3 40.2 C 146.3 38.1 146.8 36.4 147.9 35.3 C 149 34.1 150.4 33.5 152.1 33.5 C 153.8 33.5 155.1 34.1 156.2 35.2 C 157.2 36.4 157.8 38 157.8 40 C 157.8 40.2 157.8 40.3 157.7 40.6 C 157.7 40.6 148.5 40.6 148.5 40.6 C 148.5 42 148.9 43 149.6 43.7 C 150.3 44.5 151.2 44.8 152.2 44.8 C 153 44.8 153.7 44.6 154.2 44.2 C 154.8 43.8 155.2 43.2 155.5 42.3 Z M 148.6 38.9 C 148.6 38.9 155.5 38.9 155.5 38.9 C 155.4 37.8 155.2 37 154.7 36.5 C 154.1 35.7 153.2 35.3 152.1 35.3 C 151.2 35.3 150.3 35.6 149.7 36.3 C 149 36.9 148.7 37.8 148.6 38.9 Z M 168.9 42.3 C 168.9 42.3 171 42.5 171 42.5 C 170.7 43.8 170.1 44.8 169.1 45.5 C 168.2 46.2 167 46.6 165.6 46.6 C 163.7 46.6 162.3 46 161.2 44.9 C 160.2 43.8 159.6 42.2 159.6 40.2 C 159.6 38.1 160.2 36.4 161.3 35.3 C 162.3 34.1 163.7 33.5 165.4 33.5 C 167.1 33.5 168.5 34.1 169.5 35.2 C 170.6 36.4 171.1 38 171.1 40 C 171.1 40.2 171.1 40.3 171.1 40.6 C 171.1 40.6 161.8 40.6 161.8 40.6 C 161.9 42 162.3 43 163 43.7 C 163.7 44.5 164.5 44.8 165.6 44.8 C 166.3 44.8 167 44.6 167.6 44.2 C 168.1 43.8 168.5 43.2 168.9 42.3 Z M 161.9 38.9 C 161.9 38.9 168.9 38.9 168.9 38.9 C 168.8 37.8 168.5 37 168.1 36.5 C 167.4 35.7 166.5 35.3 165.5 35.3 C 164.5 35.3 163.7 35.6 163 36.3 C 162.4 36.9 162 37.8 161.9 38.9 Z M 181.8 46.3 C 181.8 46.3 181.76 44.7 181.8 44.7 C 181 45.9 179.8 46.6 178.3 46.6 C 177.3 46.6 176.4 46.3 175.5 45.7 C 174.7 45.2 174.1 44.4 173.6 43.4 C 173.2 42.5 172.9 41.3 172.9 40.1 C 172.9 38.8 173.1 37.7 173.5 36.7 C 174 35.7 174.6 34.9 175.4 34.4 C 176.2 33.8 177.2 33.5 178.2 33.5 C 178.9 33.5 179.6 33.7 180.2 34 C 180.8 34.3 181.2 34.7 181.6 35.3 C 181.62 35.26 181.6 29.1 181.6 29.1 L 183.7 29.1 L 183.7 46.3 L 181.8 46.3 Z M 175.1 40.1 C 175.1 41.7 175.4 42.8 176.1 43.6 C 176.8 44.4 177.6 44.8 178.5 44.8 C 179.4 44.8 180.2 44.4 180.8 43.7 C 181.5 42.9 181.8 41.8 181.8 40.2 C 181.8 38.5 181.5 37.3 180.8 36.5 C 180.2 35.7 179.3 35.3 178.4 35.3 C 177.4 35.3 176.7 35.7 176 36.4 C 175.4 37.2 175.1 38.4 175.1 40.1 Z M 195.6 42.3 C 195.6 42.3 197.7 42.5 197.7 42.5 C 197.4 43.8 196.7 44.8 195.8 45.5 C 194.9 46.2 193.7 46.6 192.3 46.6 C 190.4 46.6 189 46 187.9 44.9 C 186.9 43.8 186.3 42.2 186.3 40.2 C 186.3 38.1 186.9 36.4 187.9 35.3 C 189 34.1 190.4 33.5 192.1 33.5 C 193.8 33.5 195.2 34.1 196.2 35.2 C 197.3 36.4 197.8 38 197.8 40 C 197.8 40.2 197.8 40.3 197.8 40.6 C 197.8 40.6 188.5 40.6 188.5 40.6 C 188.6 42 189 43 189.7 43.7 C 190.4 44.5 191.2 44.8 192.3 44.8 C 193 44.8 193.7 44.6 194.3 44.2 C 194.8 43.8 195.2 43.2 195.6 42.3 Z M 188.6 38.9 C 188.6 38.9 195.6 38.9 195.6 38.9 C 195.5 37.8 195.2 37 194.8 36.5 C 194.1 35.7 193.2 35.3 192.2 35.3 C 191.2 35.3 190.4 35.6 189.7 36.3 C 189.1 36.9 188.7 37.8 188.6 38.9 Z M 208.5 46.3 C 208.5 46.3 208.45 44.7 208.5 44.7 C 207.7 45.9 206.5 46.6 205 46.6 C 204 46.6 203.1 46.3 202.2 45.7 C 201.4 45.2 200.8 44.4 200.3 43.4 C 199.8 42.5 199.6 41.3 199.6 40.1 C 199.6 38.8 199.8 37.7 200.2 36.7 C 200.7 35.7 201.3 34.9 202.1 34.4 C 202.9 33.8 203.9 33.5 204.9 33.5 C 205.6 33.5 206.3 33.7 206.9 34 C 207.5 34.3 207.9 34.7 208.3 35.3 C 208.31 35.26 208.3 29.1 208.3 29.1 L 210.4 29.1 L 210.4 46.3 L 208.5 46.3 Z M 201.8 40.1 C 201.8 41.7 202.1 42.8 202.8 43.6 C 203.5 44.4 204.3 44.8 205.2 44.8 C 206.1 44.8 206.9 44.4 207.5 43.7 C 208.2 42.9 208.5 41.8 208.5 40.2 C 208.5 38.5 208.2 37.3 207.5 36.5 C 206.8 35.7 206 35.3 205.1 35.3 C 204.1 35.3 203.4 35.7 202.7 36.4 C 202.1 37.2 201.8 38.4 201.8 40.1 Z M 224.1 44.5 C 224.3 44.5 224.6 44.4 225 44.4 C 225 44.4 225.3 46.2 225.3 46.2 C 224.7 46.4 224.2 46.4 223.7 46.4 C 222.9 46.4 222.4 46.3 221.9 46.1 C 221.5 45.8 221.2 45.5 221 45.1 C 220.9 44.7 220.8 43.9 220.8 42.6 C 220.78 42.63 220.8 35.5 220.8 35.5 L 219.2 35.5 L 219.2 33.8 L 220.8 33.8 L 220.8 30.7 L 222.9 29.5 L 222.9 33.8 L 225 33.8 L 225 35.5 L 222.9 35.5 C 222.9 35.5 222.88 42.75 222.9 42.7 C 222.9 43.3 222.9 43.7 223 43.9 C 223.1 44.1 223.2 44.2 223.4 44.3 C 223.5 44.4 223.8 44.5 224.1 44.5 C 224.1 44.5 224.1 44.5 224.1 44.5 Z M 227.1 46.3 L 227.1 29.1 L 229.2 29.1 C 229.2 29.1 229.17 35.26 229.2 35.3 C 230.2 34.1 231.4 33.5 232.9 33.5 C 233.8 33.5 234.6 33.7 235.3 34.1 C 236 34.5 236.5 35 236.8 35.6 C 237.1 36.2 237.2 37.2 237.2 38.4 C 237.2 38.39 237.2 46.3 237.2 46.3 L 235.1 46.3 C 235.1 46.3 235.09 38.39 235.1 38.4 C 235.1 37.3 234.9 36.6 234.4 36.1 C 233.9 35.6 233.3 35.4 232.5 35.4 C 231.8 35.4 231.3 35.5 230.7 35.8 C 230.2 36.2 229.8 36.6 229.5 37.2 C 229.3 37.7 229.2 38.5 229.2 39.5 C 229.17 39.46 229.2 46.3 229.2 46.3 L 227.1 46.3 Z M 248.9 42.3 C 248.9 42.3 251.1 42.5 251.1 42.5 C 250.8 43.8 250.1 44.8 249.2 45.5 C 248.3 46.2 247.1 46.6 245.6 46.6 C 243.8 46.6 242.4 46 241.3 44.9 C 240.2 43.8 239.7 42.2 239.7 40.2 C 239.7 38.1 240.2 36.4 241.3 35.3 C 242.4 34.1 243.8 33.5 245.5 33.5 C 247.2 33.5 248.5 34.1 249.6 35.2 C 250.7 36.4 251.2 38 251.2 40 C 251.2 40.2 251.2 40.3 251.2 40.6 C 251.2 40.6 241.9 40.6 241.9 40.6 C 242 42 242.4 43 243 43.7 C 243.7 44.5 244.6 44.8 245.6 44.8 C 246.4 44.8 247.1 44.6 247.6 44.2 C 248.2 43.8 248.6 43.2 248.9 42.3 Z M 242 38.9 C 242 38.9 249 38.9 249 38.9 C 248.9 37.8 248.6 37 248.2 36.5 C 247.5 35.7 246.6 35.3 245.5 35.3 C 244.6 35.3 243.8 35.6 243.1 36.3 C 242.4 36.9 242.1 37.8 242 38.9 Z M 253.8 46.3 L 253.8 33.8 L 255.6 33.8 C 255.6 33.8 255.64 35.57 255.6 35.6 C 256 35 256.6 34.5 257.2 34.1 C 257.9 33.7 258.6 33.5 259.4 33.5 C 260.3 33.5 261.1 33.7 261.7 34.1 C 262.3 34.5 262.7 35 262.9 35.7 C 263.9 34.3 265.2 33.5 266.8 33.5 C 268 33.5 269 33.9 269.6 34.6 C 270.3 35.3 270.6 36.3 270.6 37.7 C 270.62 37.73 270.6 46.3 270.6 46.3 L 268.5 46.3 C 268.5 46.3 268.52 38.43 268.5 38.4 C 268.5 37.6 268.5 37 268.3 36.6 C 268.2 36.2 267.9 35.9 267.6 35.7 C 267.2 35.5 266.8 35.4 266.3 35.4 C 265.4 35.4 264.7 35.7 264.1 36.2 C 263.6 36.8 263.3 37.8 263.3 39 C 263.26 39.04 263.3 46.3 263.3 46.3 L 261.2 46.3 C 261.2 46.3 261.15 38.19 261.2 38.2 C 261.2 37.2 261 36.5 260.6 36.1 C 260.3 35.6 259.7 35.4 258.9 35.4 C 258.4 35.4 257.8 35.5 257.3 35.8 C 256.8 36.2 256.4 36.6 256.2 37.2 C 256 37.8 255.9 38.7 255.9 39.8 C 255.87 39.82 255.9 46.3 255.9 46.3 L 253.8 46.3 Z M 278.8 40.9 L 278.8 39.2 L 302.8 39.2 L 302.8 40.9 L 278.8 40.9 Z " stroke="none" fill="#54626c"/>
  </g>
  <g id="Polygon62981">
    <path d="M 1.8 17.5 L 1.8 0.3 L 4.2 0.3 L 13.2 13.8 L 13.2 0.3 L 15.4 0.3 L 15.4 17.5 L 13 17.5 L 4 4 L 4 17.5 L 1.8 17.5 Z M 18.1 11.3 C 18.1 8.9 18.8 7.2 20.1 6.1 C 21.1 5.2 22.4 4.7 24 4.7 C 25.7 4.7 27.1 5.3 28.2 6.4 C 29.2 7.5 29.8 9.1 29.8 11.1 C 29.8 12.7 29.5 13.9 29.1 14.9 C 28.6 15.8 27.9 16.5 27 17 C 26.1 17.5 25.1 17.8 24 17.8 C 22.2 17.8 20.8 17.2 19.7 16.1 C 18.7 15 18.1 13.4 18.1 11.3 Z M 20.3 11.3 C 20.3 12.8 20.6 14 21.3 14.8 C 22 15.6 22.9 16 24 16 C 25 16 25.9 15.6 26.6 14.8 C 27.3 14 27.6 12.8 27.6 11.2 C 27.6 9.6 27.3 8.5 26.6 7.7 C 25.9 6.9 25 6.5 24 6.5 C 22.9 6.5 22 6.9 21.3 7.7 C 20.6 8.5 20.3 9.7 20.3 11.3 Z M 35.9 15.7 C 36.2 15.7 36.5 15.6 36.9 15.6 C 36.9 15.6 37.2 17.4 37.2 17.4 C 36.6 17.6 36 17.6 35.6 17.6 C 34.8 17.6 34.2 17.5 33.8 17.3 C 33.4 17 33.1 16.7 32.9 16.3 C 32.7 15.9 32.6 15.1 32.6 13.8 C 32.65 13.83 32.6 6.7 32.6 6.7 L 31.1 6.7 L 31.1 5 L 32.6 5 L 32.6 1.9 L 34.7 0.7 L 34.7 5 L 36.9 5 L 36.9 6.7 L 34.7 6.7 C 34.7 6.7 34.75 13.95 34.7 13.9 C 34.7 14.5 34.8 14.9 34.9 15.1 C 34.9 15.3 35.1 15.4 35.2 15.5 C 35.4 15.6 35.6 15.7 35.9 15.7 C 35.9 15.7 35.9 15.7 35.9 15.7 Z M 44.8 11.3 C 44.8 8.9 45.5 7.2 46.7 6.1 C 47.8 5.2 49.1 4.7 50.6 4.7 C 52.4 4.7 53.8 5.3 54.8 6.4 C 55.9 7.5 56.5 9.1 56.5 11.1 C 56.5 12.7 56.2 13.9 55.8 14.9 C 55.3 15.8 54.6 16.5 53.7 17 C 52.7 17.5 51.7 17.8 50.6 17.8 C 48.9 17.8 47.5 17.2 46.4 16.1 C 45.3 15 44.8 13.4 44.8 11.3 Z M 47 11.3 C 47 12.8 47.3 14 48 14.8 C 48.7 15.6 49.6 16 50.6 16 C 51.7 16 52.6 15.6 53.3 14.8 C 54 14 54.3 12.8 54.3 11.2 C 54.3 9.6 54 8.5 53.3 7.7 C 52.6 6.9 51.7 6.5 50.6 6.5 C 49.6 6.5 48.7 6.9 48 7.7 C 47.3 8.5 47 9.7 47 11.3 Z M 58.9 17.5 L 58.9 5 L 60.8 5 C 60.8 5 60.84 6.8 60.8 6.8 C 61.8 5.4 63.1 4.7 64.8 4.7 C 65.6 4.7 66.2 4.9 66.9 5.2 C 67.5 5.4 68 5.8 68.3 6.2 C 68.6 6.6 68.8 7.2 68.9 7.8 C 69 8.2 69.1 8.8 69.1 9.8 C 69.06 9.82 69.1 17.5 69.1 17.5 L 66.9 17.5 C 66.9 17.5 66.95 9.9 66.9 9.9 C 66.9 9 66.9 8.4 66.7 8 C 66.5 7.5 66.2 7.2 65.8 7 C 65.4 6.7 64.9 6.6 64.4 6.6 C 63.5 6.6 62.7 6.9 62 7.4 C 61.4 8 61.1 9.1 61.1 10.7 C 61.05 10.68 61.1 17.5 61.1 17.5 L 58.9 17.5 Z M 72.2 17.5 L 72.2 0.3 L 74.4 0.3 L 74.4 17.5 L 72.2 17.5 Z M 78.9 22.5 C 78.5 22.5 78 22.4 77.5 22.3 C 77.5 22.3 77.3 20.3 77.3 20.3 C 77.8 20.4 78.2 20.5 78.5 20.5 C 79 20.5 79.3 20.4 79.6 20.2 C 79.9 20.1 80.1 19.9 80.3 19.6 C 80.5 19.4 80.7 18.8 81 18 C 81 17.9 81.1 17.7 81.2 17.5 C 81.15 17.5 76.4 5 76.4 5 L 78.7 5 C 78.7 5 81.29 12.23 81.3 12.2 C 81.6 13.1 81.9 14.1 82.2 15.1 C 82.4 14.1 82.7 13.2 83.1 12.3 C 83.06 12.28 85.7 5 85.7 5 L 87.8 5 C 87.8 5 83.1 17.68 83.1 17.7 C 82.6 19.1 82.2 20 81.9 20.5 C 81.5 21.2 81.1 21.7 80.6 22 C 80.1 22.4 79.6 22.5 78.9 22.5 C 78.9 22.5 78.9 22.5 78.9 22.5 Z M 104.4 17.5 C 104.4 17.5 104.37 15.9 104.4 15.9 C 103.6 17.1 102.4 17.8 100.9 17.8 C 99.9 17.8 99 17.5 98.2 16.9 C 97.3 16.4 96.7 15.6 96.2 14.6 C 95.8 13.7 95.5 12.5 95.5 11.3 C 95.5 10 95.7 8.9 96.2 7.9 C 96.6 6.9 97.2 6.1 98 5.6 C 98.8 5 99.8 4.7 100.8 4.7 C 101.5 4.7 102.2 4.9 102.8 5.2 C 103.4 5.5 103.9 5.9 104.2 6.5 C 104.23 6.46 104.2 0.3 104.2 0.3 L 106.3 0.3 L 106.3 17.5 L 104.4 17.5 Z M 97.7 11.3 C 97.7 12.9 98 14 98.7 14.8 C 99.4 15.6 100.2 16 101.1 16 C 102 16 102.8 15.6 103.4 14.9 C 104.1 14.1 104.4 13 104.4 11.4 C 104.4 9.7 104.1 8.5 103.4 7.7 C 102.8 6.9 102 6.5 101 6.5 C 100.1 6.5 99.3 6.9 98.6 7.6 C 98 8.4 97.7 9.6 97.7 11.3 Z M 109.7 2.7 L 109.7 0.3 L 111.8 0.3 L 111.8 2.7 L 109.7 2.7 Z M 109.7 17.5 L 109.7 5 L 111.8 5 L 111.8 17.5 L 109.7 17.5 Z M 123 17.5 C 123 17.5 123.05 15.9 123 15.9 C 122.3 17.1 121.1 17.8 119.6 17.8 C 118.6 17.8 117.7 17.5 116.8 16.9 C 116 16.4 115.4 15.6 114.9 14.6 C 114.4 13.7 114.2 12.5 114.2 11.3 C 114.2 10 114.4 8.9 114.8 7.9 C 115.2 6.9 115.9 6.1 116.7 5.6 C 117.5 5 118.4 4.7 119.5 4.7 C 120.2 4.7 120.9 4.9 121.5 5.2 C 122.1 5.5 122.5 5.9 122.9 6.5 C 122.91 6.46 122.9 0.3 122.9 0.3 L 125 0.3 L 125 17.5 L 123 17.5 Z M 116.4 11.3 C 116.4 12.9 116.7 14 117.4 14.8 C 118.1 15.6 118.9 16 119.8 16 C 120.7 16 121.5 15.6 122.1 14.9 C 122.8 14.1 123.1 13 123.1 11.4 C 123.1 9.7 122.8 8.5 122.1 7.7 C 121.4 6.9 120.6 6.5 119.7 6.5 C 118.7 6.5 118 6.9 117.3 7.6 C 116.7 8.4 116.4 9.6 116.4 11.3 Z M 137.3 17.5 L 133.5 5 L 135.7 5 L 137.6 12.2 C 137.6 12.2 138.38 14.88 138.4 14.9 C 138.4 14.8 138.6 13.9 139 12.3 C 139.02 12.32 141 5 141 5 L 143.2 5 L 145 12.2 L 145.7 14.6 L 146.4 12.2 L 148.5 5 L 150.6 5 L 146.7 17.5 L 144.5 17.5 L 142.5 10 L 142 7.9 L 139.5 17.5 L 137.3 17.5 Z M 160.8 13.5 C 160.8 13.5 163 13.7 163 13.7 C 162.7 15 162 16 161.1 16.7 C 160.2 17.4 159 17.8 157.5 17.8 C 155.7 17.8 154.3 17.2 153.2 16.1 C 152.2 15 151.6 13.4 151.6 11.4 C 151.6 9.3 152.2 7.6 153.2 6.5 C 154.3 5.3 155.7 4.7 157.4 4.7 C 159.1 4.7 160.5 5.3 161.5 6.4 C 162.6 7.6 163.1 9.2 163.1 11.2 C 163.1 11.4 163.1 11.5 163.1 11.8 C 163.1 11.8 153.8 11.8 153.8 11.8 C 153.9 13.2 154.3 14.2 155 14.9 C 155.7 15.7 156.5 16 157.6 16 C 158.3 16 159 15.8 159.5 15.4 C 160.1 15 160.5 14.4 160.8 13.5 Z M 153.9 10.1 C 153.9 10.1 160.9 10.1 160.9 10.1 C 160.8 9 160.5 8.2 160.1 7.7 C 159.4 6.9 158.5 6.5 157.5 6.5 C 156.5 6.5 155.7 6.8 155 7.5 C 154.3 8.1 154 9 153.9 10.1 Z M 172.3 17.5 L 172.3 5 L 174.2 5 C 174.2 5 174.22 6.77 174.2 6.8 C 174.6 6.2 175.1 5.7 175.8 5.3 C 176.4 4.9 177.2 4.7 178 4.7 C 178.9 4.7 179.7 4.9 180.3 5.3 C 180.9 5.7 181.3 6.2 181.5 6.9 C 182.5 5.5 183.8 4.7 185.4 4.7 C 186.6 4.7 187.5 5.1 188.2 5.8 C 188.9 6.5 189.2 7.5 189.2 8.9 C 189.2 8.93 189.2 17.5 189.2 17.5 L 187.1 17.5 C 187.1 17.5 187.1 9.63 187.1 9.6 C 187.1 8.8 187 8.2 186.9 7.8 C 186.8 7.4 186.5 7.1 186.2 6.9 C 185.8 6.7 185.4 6.6 184.9 6.6 C 184 6.6 183.3 6.9 182.7 7.4 C 182.1 8 181.8 9 181.8 10.2 C 181.84 10.24 181.8 17.5 181.8 17.5 L 179.7 17.5 C 179.7 17.5 179.73 9.39 179.7 9.4 C 179.7 8.4 179.6 7.7 179.2 7.3 C 178.9 6.8 178.3 6.6 177.5 6.6 C 176.9 6.6 176.4 6.7 175.9 7 C 175.4 7.4 175 7.8 174.8 8.4 C 174.6 9 174.4 9.9 174.4 11 C 174.45 11.02 174.4 17.5 174.4 17.5 L 172.3 17.5 Z M 200.8 13.5 C 200.8 13.5 203 13.7 203 13.7 C 202.7 15 202 16 201.1 16.7 C 200.2 17.4 199 17.8 197.6 17.8 C 195.7 17.8 194.3 17.2 193.2 16.1 C 192.2 15 191.6 13.4 191.6 11.4 C 191.6 9.3 192.2 7.6 193.2 6.5 C 194.3 5.3 195.7 4.7 197.4 4.7 C 199.1 4.7 200.5 5.3 201.5 6.4 C 202.6 7.6 203.1 9.2 203.1 11.2 C 203.1 11.4 203.1 11.5 203.1 11.8 C 203.1 11.8 193.8 11.8 193.8 11.8 C 193.9 13.2 194.3 14.2 195 14.9 C 195.7 15.7 196.5 16 197.6 16 C 198.3 16 199 15.8 199.5 15.4 C 200.1 15 200.5 14.4 200.8 13.5 Z M 193.9 10.1 C 193.9 10.1 200.9 10.1 200.9 10.1 C 200.8 9 200.5 8.2 200.1 7.7 C 199.4 6.9 198.5 6.5 197.5 6.5 C 196.5 6.5 195.7 6.8 195 7.5 C 194.4 8.1 194 9 193.9 10.1 Z M 214.2 13.5 C 214.2 13.5 216.4 13.7 216.4 13.7 C 216 15 215.4 16 214.5 16.7 C 213.5 17.4 212.3 17.8 210.9 17.8 C 209.1 17.8 207.6 17.2 206.6 16.1 C 205.5 15 205 13.4 205 11.4 C 205 9.3 205.5 7.6 206.6 6.5 C 207.7 5.3 209.1 4.7 210.8 4.7 C 212.4 4.7 213.8 5.3 214.9 6.4 C 215.9 7.6 216.4 9.2 216.4 11.2 C 216.4 11.4 216.4 11.5 216.4 11.8 C 216.4 11.8 207.2 11.8 207.2 11.8 C 207.2 13.2 207.6 14.2 208.3 14.9 C 209 15.7 209.9 16 210.9 16 C 211.7 16 212.3 15.8 212.9 15.4 C 213.4 15 213.9 14.4 214.2 13.5 Z M 207.3 10.1 C 207.3 10.1 214.2 10.1 214.2 10.1 C 214.1 9 213.9 8.2 213.4 7.7 C 212.7 6.9 211.9 6.5 210.8 6.5 C 209.8 6.5 209 6.8 208.4 7.5 C 207.7 8.1 207.3 9 207.3 10.1 Z M 222.7 15.7 C 222.9 15.7 223.2 15.6 223.6 15.6 C 223.6 15.6 223.9 17.4 223.9 17.4 C 223.3 17.6 222.8 17.6 222.3 17.6 C 221.6 17.6 221 17.5 220.6 17.3 C 220.1 17 219.8 16.7 219.7 16.3 C 219.5 15.9 219.4 15.1 219.4 13.8 C 219.41 13.83 219.4 6.7 219.4 6.7 L 217.9 6.7 L 217.9 5 L 219.4 5 L 219.4 1.9 L 221.5 0.7 L 221.5 5 L 223.6 5 L 223.6 6.7 L 221.5 6.7 C 221.5 6.7 221.51 13.95 221.5 13.9 C 221.5 14.5 221.5 14.9 221.6 15.1 C 221.7 15.3 221.8 15.4 222 15.5 C 222.2 15.6 222.4 15.7 222.7 15.7 C 222.7 15.7 222.7 15.7 222.7 15.7 Z M 231.6 11.3 C 231.6 8.9 232.2 7.2 233.5 6.1 C 234.6 5.2 235.9 4.7 237.4 4.7 C 239.1 4.7 240.5 5.3 241.6 6.4 C 242.7 7.5 243.2 9.1 243.2 11.1 C 243.2 12.7 243 13.9 242.5 14.9 C 242 15.8 241.3 16.5 240.4 17 C 239.5 17.5 238.5 17.8 237.4 17.8 C 235.7 17.8 234.3 17.2 233.2 16.1 C 232.1 15 231.6 13.4 231.6 11.3 Z M 233.7 11.3 C 233.7 12.8 234.1 14 234.8 14.8 C 235.5 15.6 236.4 16 237.4 16 C 238.5 16 239.3 15.6 240 14.8 C 240.7 14 241.1 12.8 241.1 11.2 C 241.1 9.6 240.7 8.5 240 7.7 C 239.3 6.9 238.4 6.5 237.4 6.5 C 236.4 6.5 235.5 6.9 234.8 7.7 C 234.1 8.5 233.7 9.7 233.7 11.3 Z M 253.9 17.5 C 253.9 17.5 253.86 15.64 253.9 15.6 C 252.9 17.1 251.6 17.8 249.9 17.8 C 249.2 17.8 248.5 17.6 247.9 17.3 C 247.2 17.1 246.7 16.7 246.4 16.3 C 246.1 15.8 245.9 15.3 245.8 14.7 C 245.7 14.3 245.7 13.6 245.7 12.7 C 245.66 12.74 245.7 5 245.7 5 L 247.8 5 C 247.8 5 247.77 11.93 247.8 11.9 C 247.8 13 247.8 13.8 247.9 14.2 C 248 14.7 248.3 15.1 248.7 15.5 C 249.2 15.8 249.7 15.9 250.3 15.9 C 251 15.9 251.6 15.8 252.1 15.5 C 252.7 15.1 253.1 14.7 253.3 14.1 C 253.5 13.6 253.6 12.8 253.6 11.7 C 253.64 11.7 253.6 5 253.6 5 L 255.8 5 L 255.8 17.5 L 253.9 17.5 Z M 259 17.5 L 259 5 L 260.9 5 C 260.9 5 260.93 6.91 260.9 6.9 C 261.4 6 261.9 5.4 262.3 5.2 C 262.7 4.9 263.1 4.7 263.6 4.7 C 264.3 4.7 265.1 5 265.8 5.4 C 265.8 5.4 265.1 7.4 265.1 7.4 C 264.6 7.1 264 6.9 263.5 6.9 C 263.1 6.9 262.6 7.1 262.3 7.3 C 261.9 7.6 261.6 8 261.5 8.5 C 261.3 9.2 261.1 10.1 261.1 11 C 261.14 10.96 261.1 17.5 261.1 17.5 L 259 17.5 Z M 273.7 17.5 L 273.7 5 L 275.6 5 C 275.6 5 275.59 6.91 275.6 6.9 C 276.1 6 276.5 5.4 276.9 5.2 C 277.3 4.9 277.8 4.7 278.3 4.7 C 279 4.7 279.7 5 280.5 5.4 C 280.5 5.4 279.7 7.4 279.7 7.4 C 279.2 7.1 278.7 6.9 278.2 6.9 C 277.7 6.9 277.3 7.1 276.9 7.3 C 276.6 7.6 276.3 8 276.2 8.5 C 275.9 9.2 275.8 10.1 275.8 11 C 275.8 10.96 275.8 17.5 275.8 17.5 L 273.7 17.5 Z M 290.2 13.5 C 290.2 13.5 292.4 13.7 292.4 13.7 C 292.1 15 291.4 16 290.5 16.7 C 289.6 17.4 288.4 17.8 286.9 17.8 C 285.1 17.8 283.7 17.2 282.6 16.1 C 281.5 15 281 13.4 281 11.4 C 281 9.3 281.5 7.6 282.6 6.5 C 283.7 5.3 285.1 4.7 286.8 4.7 C 288.5 4.7 289.8 5.3 290.9 6.4 C 291.9 7.6 292.5 9.2 292.5 11.2 C 292.5 11.4 292.5 11.5 292.5 11.8 C 292.5 11.8 283.2 11.8 283.2 11.8 C 283.3 13.2 283.6 14.2 284.3 14.9 C 285 15.7 285.9 16 286.9 16 C 287.7 16 288.4 15.8 288.9 15.4 C 289.5 15 289.9 14.4 290.2 13.5 Z M 283.3 10.1 C 283.3 10.1 290.3 10.1 290.3 10.1 C 290.2 9 289.9 8.2 289.5 7.7 C 288.8 6.9 287.9 6.5 286.8 6.5 C 285.9 6.5 285.1 6.8 284.4 7.5 C 283.7 8.1 283.4 9 283.3 10.1 Z M 303.1 17.5 C 303.1 17.5 303.13 15.9 303.1 15.9 C 302.3 17.1 301.2 17.8 299.6 17.8 C 298.7 17.8 297.7 17.5 296.9 16.9 C 296.1 16.4 295.4 15.6 295 14.6 C 294.5 13.7 294.3 12.5 294.3 11.3 C 294.3 10 294.5 8.9 294.9 7.9 C 295.3 6.9 295.9 6.1 296.8 5.6 C 297.6 5 298.5 4.7 299.6 4.7 C 300.3 4.7 301 4.9 301.6 5.2 C 302.1 5.5 302.6 5.9 303 6.5 C 302.99 6.46 303 0.3 303 0.3 L 305.1 0.3 L 305.1 17.5 L 303.1 17.5 Z M 296.5 11.3 C 296.5 12.9 296.8 14 297.5 14.8 C 298.1 15.6 298.9 16 299.8 16 C 300.8 16 301.6 15.6 302.2 14.9 C 302.8 14.1 303.2 13 303.2 11.4 C 303.2 9.7 302.8 8.5 302.2 7.7 C 301.5 6.9 300.7 6.5 299.8 6.5 C 298.8 6.5 298 6.9 297.4 7.6 C 296.8 8.4 296.5 9.6 296.5 11.3 Z M 316.6 17.5 C 316.6 17.5 316.56 15.64 316.6 15.6 C 315.6 17.1 314.3 17.8 312.6 17.8 C 311.9 17.8 311.2 17.6 310.6 17.3 C 309.9 17.1 309.4 16.7 309.1 16.3 C 308.8 15.8 308.6 15.3 308.5 14.7 C 308.4 14.3 308.4 13.6 308.4 12.7 C 308.36 12.74 308.4 5 308.4 5 L 310.5 5 C 310.5 5 310.46 11.93 310.5 11.9 C 310.5 13 310.5 13.8 310.6 14.2 C 310.7 14.7 311 15.1 311.4 15.5 C 311.9 15.8 312.4 15.9 313 15.9 C 313.7 15.9 314.3 15.8 314.8 15.5 C 315.4 15.1 315.8 14.7 316 14.1 C 316.2 13.6 316.3 12.8 316.3 11.7 C 316.34 11.7 316.3 5 316.3 5 L 318.4 5 L 318.4 17.5 L 316.6 17.5 Z M 329.9 12.9 C 329.9 12.9 331.9 13.2 331.9 13.2 C 331.7 14.6 331.1 15.7 330.2 16.5 C 329.3 17.3 328.1 17.8 326.8 17.8 C 325.1 17.8 323.7 17.2 322.7 16.1 C 321.6 15 321.1 13.4 321.1 11.3 C 321.1 10 321.3 8.8 321.8 7.8 C 322.2 6.8 322.9 6 323.8 5.5 C 324.7 5 325.7 4.7 326.8 4.7 C 328.1 4.7 329.2 5.1 330.1 5.8 C 331 6.5 331.5 7.4 331.7 8.7 C 331.7 8.7 329.7 9 329.7 9 C 329.5 8.2 329.2 7.5 328.7 7.1 C 328.2 6.7 327.6 6.5 326.9 6.5 C 325.8 6.5 324.9 6.9 324.3 7.6 C 323.6 8.4 323.3 9.6 323.3 11.2 C 323.3 12.9 323.6 14.1 324.2 14.9 C 324.9 15.6 325.7 16 326.7 16 C 327.6 16 328.3 15.8 328.8 15.3 C 329.4 14.8 329.7 14 329.9 12.9 Z M 337.4 15.7 C 337.7 15.7 338 15.6 338.4 15.6 C 338.4 15.6 338.7 17.4 338.7 17.4 C 338.1 17.6 337.5 17.6 337.1 17.6 C 336.3 17.6 335.7 17.5 335.3 17.3 C 334.9 17 334.6 16.7 334.4 16.3 C 334.2 15.9 334.1 15.1 334.1 13.8 C 334.14 13.83 334.1 6.7 334.1 6.7 L 332.6 6.7 L 332.6 5 L 334.1 5 L 334.1 1.9 L 336.2 0.7 L 336.2 5 L 338.4 5 L 338.4 6.7 L 336.2 6.7 C 336.2 6.7 336.23 13.95 336.2 13.9 C 336.2 14.5 336.3 14.9 336.3 15.1 C 336.4 15.3 336.5 15.4 336.7 15.5 C 336.9 15.6 337.1 15.7 337.4 15.7 C 337.4 15.7 337.4 15.7 337.4 15.7 Z M 340.4 2.7 L 340.4 0.3 L 342.5 0.3 L 342.5 2.7 L 340.4 2.7 Z M 340.4 17.5 L 340.4 5 L 342.5 5 L 342.5 17.5 L 340.4 17.5 Z M 345 11.3 C 345 8.9 345.6 7.2 346.9 6.1 C 348 5.2 349.3 4.7 350.8 4.7 C 352.5 4.7 353.9 5.3 355 6.4 C 356.1 7.5 356.6 9.1 356.6 11.1 C 356.6 12.7 356.4 13.9 355.9 14.9 C 355.4 15.8 354.7 16.5 353.8 17 C 352.9 17.5 351.9 17.8 350.8 17.8 C 349.1 17.8 347.7 17.2 346.6 16.1 C 345.5 15 345 13.4 345 11.3 Z M 347.1 11.3 C 347.1 12.8 347.5 14 348.2 14.8 C 348.9 15.6 349.7 16 350.8 16 C 351.8 16 352.7 15.6 353.4 14.8 C 354.1 14 354.5 12.8 354.5 11.2 C 354.5 9.6 354.1 8.5 353.4 7.7 C 352.7 6.9 351.8 6.5 350.8 6.5 C 349.7 6.5 348.9 6.9 348.2 7.7 C 347.5 8.5 347.1 9.7 347.1 11.3 Z M 359.1 17.5 L 359.1 5 L 361 5 C 361 5 361 6.8 361 6.8 C 361.9 5.4 363.2 4.7 365 4.7 C 365.7 4.7 366.4 4.9 367 5.2 C 367.7 5.4 368.1 5.8 368.4 6.2 C 368.7 6.6 369 7.2 369.1 7.8 C 369.2 8.2 369.2 8.8 369.2 9.8 C 369.21 9.82 369.2 17.5 369.2 17.5 L 367.1 17.5 C 367.1 17.5 367.1 9.9 367.1 9.9 C 367.1 9 367 8.4 366.9 8 C 366.7 7.5 366.4 7.2 366 7 C 365.6 6.7 365.1 6.6 364.5 6.6 C 363.6 6.6 362.8 6.9 362.2 7.4 C 361.5 8 361.2 9.1 361.2 10.7 C 361.21 10.68 361.2 17.5 361.2 17.5 L 359.1 17.5 Z " stroke="none" fill="#54626c"/>
  </g>
</svg>