<?xml version="1.0" standalone="no"?><!DOCTYPE svg PUBLIC "-//W3C//DTD SVG 1.1//EN" "http://www.w3.org/Graphics/SVG/1.1/DTD/svg11.dtd"><svg xmlns="http://www.w3.org/2000/svg" version="1.1" width="48px" height="34.6px" viewBox="0 -3 48 34.6" style="top:-3px"><desc>LEDs IN</desc><defs/><g id="Polygon69782"><path d="m8.7 7.4l0-7.3l1 0l0 6.4l3.6 0l0 .9l-4.6 0zm6.1 0l0-7.3l5.2 0l0 .9l-4.3 0l0 2.2l4.1 0l0 .9l-4.1 0l0 2.4l4.5 0l0 .9l-5.4 0zm7 0l0-7.3c0 0 2.54.02 2.5 0c.6 0 1 .1 1.3.1c.5.1.8.3 1.1.6c.4.3.7.7.9 1.2c.2.5.3 1.1.3 1.7c0 .6-.1 1.1-.2 1.5c-.2.4-.3.8-.5 1.1c-.2.2-.5.5-.7.6c-.2.2-.5.3-.9.4c-.3.1-.7.1-1.1.1c-.04.01-2.7 0-2.7 0zm1-.9c0 0 1.55.05 1.5 0c.5 0 .9 0 1.2-.1c.3-.1.5-.2.6-.4c.3-.2.4-.5.6-.9c.1-.4.2-.8.2-1.4c0-.8-.2-1.3-.4-1.7c-.3-.5-.6-.7-.9-.9c-.3-.1-.7-.1-1.3-.1c.02-.02-1.5 0-1.5 0l0 5.5zm6.2-.7c0 0 .9-.1.9-.1c0 .3.2.6.4.8c.2.2.6.3 1 .3c.4 0 .7-.1.9-.3c.2-.1.3-.3.3-.5c0-.2-.1-.4-.3-.5c-.1-.1-.4-.2-.9-.3c-.7-.2-1.1-.3-1.4-.5c-.2-.1-.4-.2-.5-.5c-.2-.2-.2-.4-.2-.7c0-.2 0-.4.1-.6c.1-.2.3-.4.5-.5c.1-.1.3-.2.5-.3c.3-.1.5-.1.8-.1c.4 0 .8.1 1.1.2c.3.1.5.3.7.5c.1.2.2.5.3.8c0 0-.9.1-.9.1c0-.3-.1-.5-.3-.6c-.2-.2-.5-.3-.8-.3c-.4 0-.7.1-.9.3c-.2.1-.3.2-.3.4c0 .1.1.2.1.3c.1.1.2.2.4.3c.1 0 .3.1.8.2c.6.2 1 .3 1.3.4c.2.1.4.3.6.5c.1.2.2.5.2.8c0 .3-.1.5-.3.8c-.1.3-.4.5-.7.6c-.3.2-.7.2-1.1.2c-.7 0-1.2-.1-1.6-.4c-.4-.3-.6-.7-.7-1.3zm9.2 1.6l0-7.3l.9 0l0 7.3l-.9 0zm2.9 0l0-7.3l1 0l3.8 5.7l0-5.7l1 0l0 7.3l-1 0l-3.8-5.7l0 5.7l-1 0z" stroke="none" fill="#ffffff"/></g></svg>