<?xml version="1.0" standalone="no"?><!DOCTYPE svg PUBLIC "-//W3C//DTD SVG 1.1//EN" "http://www.w3.org/Graphics/SVG/1.1/DTD/svg11.dtd"><svg xmlns="http://www.w3.org/2000/svg" version="1.1" width="95.2px" height="39.4px" viewBox="0 -3 95.2 39.4" style="top:-3px"><desc>Print Volume PER HEAD (PRIOR 12 MONTHS)</desc><defs/><g id="Polygon69983"><path d="m1.6 30.3c-.3-.4-.6-.9-.8-1.5c-.3-.6-.4-1.2-.4-1.8c0-.5.1-1 .3-1.5c.2-.6.5-1.1.9-1.7c0 0 .5 0 .5 0c-.3.5-.5.8-.6 1c-.1.3-.2.6-.3 1c-.1.4-.2.8-.2 1.2c0 1.1.4 2.2 1.1 3.3c0 0-.5 0-.5 0zm1.2-1.5l0-4.9c0 0 1.83-.02 1.8 0c.4 0 .6 0 .8 0c.2.1.4.1.6.3c.2.1.3.2.4.4c.1.2.1.5.1.7c0 .4-.1.8-.4 1.1c-.2.3-.7.4-1.4.4c-.01.02-1.3 0-1.3 0l0 2l-.6 0zm.6-2.6c0 0 1.3.03 1.3 0c.4 0 .7 0 .9-.2c.2-.2.3-.4.3-.7c0-.2-.1-.4-.2-.5c-.1-.1-.2-.2-.4-.3c-.1 0-.3 0-.6 0c-.01-.03-1.3 0-1.3 0l0 1.7zm3.9 2.6l0-4.9c0 0 2.2-.02 2.2 0c.4 0 .8 0 1 .1c.2.1.4.3.6.5c.1.2.2.5.2.7c0 .4-.2.7-.4.9c-.2.3-.6.4-1 .5c.1.1.3.1.4.2c.2.2.3.4.5.7c0-.02.9 1.3.9 1.3l-.9 0c0 0-.61-1-.6-1c-.2-.3-.4-.5-.5-.7c-.1-.1-.2-.2-.3-.3c-.1-.1-.2-.1-.3-.1c-.1-.1-.2-.1-.4-.1c.02.03-.7 0-.7 0l0 2.2l-.7 0zm.7-2.7c0 0 1.37-.04 1.4 0c.3 0 .5-.1.7-.1c.1-.1.3-.2.4-.3c0-.2.1-.3.1-.5c0-.2-.1-.4-.3-.5c-.1-.2-.4-.3-.8-.3c.02.03-1.5 0-1.5 0l0 1.7zm4.4 2.7l0-4.9l.6 0l0 4.9l-.6 0zm1.6-2.4c0-.8.2-1.4.6-1.9c.5-.5 1-.7 1.7-.7c.5 0 .9.1 1.3.3c.3.2.6.5.8.9c.2.4.3.9.3 1.4c0 .5-.1.9-.3 1.3c-.2.4-.5.7-.9.9c-.3.2-.7.3-1.2.3c-.4 0-.8-.1-1.2-.3c-.4-.2-.7-.6-.8-.9c-.2-.4-.3-.8-.3-1.3zm.6 0c0 .6.2 1.1.5 1.4c.4.4.8.6 1.2.6c.5 0 .9-.2 1.3-.6c.3-.3.4-.8.4-1.4c0-.4 0-.8-.2-1.1c-.1-.3-.3-.5-.6-.7c-.2-.2-.5-.2-.9-.2c-.4 0-.8.1-1.1.4c-.4.4-.6.9-.6 1.6zm5 2.4l0-4.9c0 0 2.19-.02 2.2 0c.4 0 .8 0 1 .1c.2.1.4.3.5.5c.2.2.3.5.3.7c0 .4-.2.7-.4.9c-.2.3-.6.4-1 .5c.1.1.3.1.4.2c.1.2.3.4.5.7c0-.02.9 1.3.9 1.3l-.9 0c0 0-.62-1-.6-1c-.2-.3-.4-.5-.5-.7c-.1-.1-.2-.2-.3-.3c-.1-.1-.2-.1-.3-.1c-.1-.1-.2-.1-.4-.1c.01.03-.7 0-.7 0l0 2.2l-.7 0zm.7-2.7c0 0 1.36-.04 1.4 0c.3 0 .5-.1.7-.1c.1-.1.3-.2.3-.3c.1-.2.2-.3.2-.5c0-.2-.1-.4-.3-.5c-.1-.2-.4-.3-.8-.3c.02.03-1.5 0-1.5 0l0 1.7zm8.2 2.7l-.6 0c0 0 .03-3.84 0-3.8c-.1.1-.3.2-.5.4c-.3.1-.5.2-.7.3c0 0 0-.6 0-.6c.4-.2.7-.4.9-.6c.3-.2.4-.4.6-.6c-.05-.04.3 0 .3 0l0 4.9zm4.4-.6l0 .6c0 0-3.24.03-3.2 0c0-.1 0-.3 0-.4c.1-.2.2-.4.4-.7c.2-.2.5-.4.8-.7c.6-.4.9-.8 1.1-1c.2-.3.3-.5.3-.8c0-.2-.1-.4-.3-.6c-.1-.2-.4-.2-.6-.2c-.3 0-.6.1-.7.2c-.2.2-.3.4-.3.8c0 0-.6-.1-.6-.1c0-.5.2-.8.5-1.1c.2-.2.6-.3 1.1-.3c.5 0 .8.1 1.1.4c.3.2.4.5.4.9c0 .2 0 .4-.1.6c-.1.2-.2.4-.4.6c-.2.2-.5.5-.9.9c-.4.3-.6.5-.7.6c-.1.1-.2.2-.3.3c.01.05 2.4 0 2.4 0zm2.8.6l0-4.9l1 0c0 0 1.19 3.48 1.2 3.5c.1.3.2.6.2.7c.1-.2.2-.4.3-.8c-.01.02 1.2-3.4 1.2-3.4l.9 0l0 4.9l-.7 0l0-4.1l-1.4 4.1l-.6 0l-1.4-4.2l0 4.2l-.7 0zm5.6-2.4c0-.8.3-1.4.7-1.9c.4-.5 1-.7 1.7-.7c.5 0 .9.1 1.3.3c.3.2.6.5.8.9c.2.4.3.9.3 1.4c0 .5-.1.9-.3 1.3c-.2.4-.5.7-.9.9c-.4.2-.8.3-1.2.3c-.5 0-.9-.1-1.2-.3c-.4-.2-.7-.6-.9-.9c-.2-.4-.3-.8-.3-1.3zm.7 0c0 .6.2 1.1.5 1.4c.3.4.7.6 1.2.6c.5 0 .9-.2 1.2-.6c.3-.3.5-.8.5-1.4c0-.4-.1-.8-.2-1.1c-.1-.3-.3-.5-.6-.7c-.3-.2-.6-.2-.9-.2c-.4 0-.8.1-1.2.4c-.3.4-.5.9-.5 1.6zm5 2.4l0-4.9l.6 0l2.6 3.9l0-3.9l.7 0l0 4.9l-.7 0l-2.6-3.9l0 3.9l-.6 0zm6.2 0l0-4.3l-1.6 0l0-.6l3.9 0l0 .6l-1.7 0l0 4.3l-.6 0zm3 0l0-4.9l.6 0l0 2l2.6 0l0-2l.6 0l0 4.9l-.6 0l0-2.3l-2.6 0l0 2.3l-.6 0zm4.7-1.6c0 0 .6 0 .6 0c.1.2.1.4.2.6c.1.2.3.3.5.4c.3.1.5.1.8.1c.2 0 .5 0 .7-.1c.2-.1.3-.2.4-.3c.1-.1.1-.3.1-.4c0-.2 0-.3-.1-.4c-.1-.1-.2-.2-.5-.3c-.1-.1-.4-.1-.8-.3c-.5-.1-.8-.2-1-.3c-.2-.1-.4-.2-.5-.4c-.1-.2-.2-.4-.2-.6c0-.3.1-.5.2-.7c.2-.3.4-.4.6-.5c.3-.1.6-.2 1-.2c.3 0 .6.1.9.2c.3.1.5.3.7.5c.1.2.2.5.2.8c0 0-.6 0-.6 0c-.1-.3-.2-.5-.4-.7c-.2-.1-.4-.2-.8-.2c-.4 0-.7 0-.9.2c-.2.1-.3.3-.3.5c0 .2.1.3.2.5c.2.1.5.2 1 .3c.6.1.9.2 1.1.3c.3.2.5.3.7.5c.1.2.2.5.2.7c0 .3-.1.5-.3.8c-.1.2-.3.4-.6.5c-.3.1-.6.2-1 .2c-.4 0-.8-.1-1.1-.2c-.3-.1-.5-.3-.7-.6c-.2-.2-.3-.5-.3-.9zm4.9 3.1c0 0-.5 0-.5 0c.7-1.1 1-2.2 1-3.3c0-.4 0-.8-.1-1.2c-.1-.4-.2-.7-.3-1c-.1-.2-.3-.5-.6-1c0 0 .5 0 .5 0c.4.6.7 1.1.9 1.7c.2.5.2 1 .2 1.5c0 .6-.1 1.2-.3 1.8c-.2.6-.5 1.1-.8 1.5z" stroke="none" fill="#ffffff"/></g><g id="Polygon69982"><path d="m.7 18l0-6.7c0 0 2.55.04 2.5 0c.5 0 .8.1 1.1.1c.3.1.6.2.8.3c.2.2.4.4.5.7c.2.2.2.5.2.9c0 .5-.2 1-.5 1.4c-.4.4-1 .6-2 .6c.02.01-1.7 0-1.7 0l0 2.7l-.9 0zm.9-3.5c0 0 1.74.02 1.7 0c.6 0 1-.1 1.3-.3c.2-.2.3-.5.3-.9c0-.3-.1-.5-.2-.7c-.1-.2-.3-.4-.6-.4c-.1-.1-.4-.1-.8-.1c.02.03-1.7 0-1.7 0l0 2.4zm5.2 3.5l0-6.7l4.9 0l0 .8l-4 0l0 2.1l3.7 0l0 .8l-3.7 0l0 2.2l4.1 0l0 .8l-5 0zm6.1 0l0-6.7c0 0 2.98.04 3 0c.6 0 1 .1 1.3.2c.4.1.6.3.8.7c.2.3.3.6.3 1c0 .4-.2.8-.5 1.2c-.3.3-.8.5-1.4.6c.2.1.4.2.5.3c.3.3.5.6.8.9c-.05.01 1.1 1.8 1.1 1.8l-1.1 0c0 0-.88-1.36-.9-1.4c-.2-.4-.5-.7-.6-.9c-.2-.2-.3-.3-.5-.4c-.1-.1-.2-.2-.4-.2c-.1 0-.2 0-.5 0c.03-.04-1 0-1 0l0 2.9l-.9 0zm.9-3.7c0 0 1.91-.01 1.9 0c.4 0 .7-.1 1-.1c.2-.1.4-.3.5-.4c.1-.2.2-.4.2-.6c0-.4-.2-.6-.4-.8c-.2-.2-.6-.3-1.1-.3c.02-.02-2.1 0-2.1 0l0 2.2zm8.5 3.7l0-6.7l.9 0l0 2.8l3.4 0l0-2.8l.9 0l0 6.7l-.9 0l0-3.1l-3.4 0l0 3.1l-.9 0zm6.7 0l0-6.7l4.9 0l0 .8l-4 0l0 2.1l3.7 0l0 .8l-3.7 0l0 2.2l4.1 0l0 .8l-5 0zm5.7 0l2.6-6.7l.9 0l2.8 6.7l-1 0l-.8-2l-2.8 0l-.7 2l-1 0zm1.9-2.7l2.3 0c0 0-.69-1.87-.7-1.9c-.2-.5-.4-1-.5-1.4c0 .5-.2.9-.3 1.3c-.02.02-.8 2-.8 2zm5.2 2.7l0-6.7c0 0 2.26.04 2.3 0c.5 0 .9.1 1.2.1c.3.1.7.3.9.5c.4.3.7.7.8 1.2c.2.4.3.9.3 1.5c0 .6-.1 1-.2 1.4c-.1.4-.3.7-.4 1c-.2.2-.4.4-.7.6c-.2.1-.4.2-.8.3c-.3.1-.6.1-1 .1c-.03.03-2.4 0-2.4 0zm.8-.8c0 0 1.47.04 1.5 0c.4 0 .8 0 1-.1c.3-.1.5-.2.6-.3c.2-.2.4-.5.5-.9c.1-.3.2-.8.2-1.3c0-.7-.1-1.2-.4-1.6c-.2-.4-.5-.6-.8-.7c-.2-.1-.6-.2-1.2-.2c.05.03-1.4 0-1.4 0l0 5.1z" stroke="none" fill="#ffffff"/></g><g id="Polygon69981"><path d="m.7 6.8l0-6.7c0 0 2.55.01 2.5 0c.5 0 .8 0 1.1.1c.3 0 .6.1.8.3c.2.1.4.4.5.6c.2.3.2.6.2 1c0 .5-.2 1-.5 1.4c-.4.4-1 .6-2 .6c.02-.01-1.7 0-1.7 0l0 2.7l-.9 0zm.9-3.5c0 0 1.74 0 1.7 0c.6 0 1-.1 1.3-.3c.2-.2.3-.5.3-.9c0-.3-.1-.5-.2-.7c-.1-.2-.3-.4-.6-.4c-.1-.1-.4-.1-.8-.1c.02 0-1.7 0-1.7 0l0 2.4zm5.1 3.5l0-4.8l.8 0c0 0-.05.69 0 .7c.1-.4.3-.6.5-.7c.1-.1.3-.2.5-.2c.3 0 .6.1.8.3c0 0-.2.8-.2.8c-.2-.1-.4-.2-.6-.2c-.2 0-.4.1-.5.2c-.2.1-.3.2-.3.4c-.1.3-.2.6-.2 1c.03-.03 0 2.5 0 2.5l-.8 0zm3.2-5.7l0-1l.8 0l0 1l-.8 0zm0 5.7l0-4.8l.8 0l0 4.8l-.8 0zm2 0l0-4.8l.7 0c0 0 .04.65 0 .6c.4-.5.9-.8 1.6-.8c.3 0 .5.1.8.2c.2.1.4.2.5.4c.2.2.2.4.3.6c0 .2 0 .4 0 .8c.04.03 0 3 0 3l-.8 0c0 0 .02-2.94 0-2.9c0-.4 0-.6-.1-.8c0-.2-.2-.3-.3-.4c-.2-.1-.4-.1-.6-.1c-.3 0-.6.1-.9.3c-.3.2-.4.6-.4 1.3c.02-.04 0 2.6 0 2.6l-.8 0zm6.5-.7c.1 0 .2 0 .3 0c0 0 .2.7.2.7c-.3 0-.5.1-.7.1c-.3 0-.5-.1-.7-.2c-.1-.1-.2-.2-.3-.3c-.1-.2-.1-.5-.1-1c0-.01 0-2.8 0-2.8l-.6 0l0-.6l.6 0l0-1.2l.8-.5l0 1.7l.8 0l0 .6l-.8 0c0 0 .02 2.83 0 2.8c0 .3 0 .4.1.5c0 .1 0 .1.1.1c.1.1.2.1.3.1c0 0 0 0 0 0zm5.8.7l-2.6-6.7l.9 0c0 0 1.77 4.88 1.8 4.9c.1.4.2.7.3 1.1c.1-.4.2-.8.4-1.1c-.02-.02 1.8-4.9 1.8-4.9l.9 0l-2.6 6.7l-.9 0zm3.4-2.4c0-.9.2-1.6.7-2c.5-.4 1-.6 1.6-.6c.6 0 1.2.3 1.6.7c.4.4.6 1 .6 1.8c0 .6-.1 1.1-.2 1.5c-.2.3-.5.6-.9.8c-.3.2-.7.3-1.1.3c-.7 0-1.3-.2-1.7-.6c-.4-.5-.6-1.1-.6-1.9zm.8 0c0 .6.2 1.1.4 1.4c.3.3.7.4 1.1.4c.4 0 .7-.1 1-.4c.3-.3.4-.8.4-1.4c0-.6-.1-1.1-.4-1.4c-.3-.3-.6-.5-1-.5c-.4 0-.8.2-1.1.5c-.2.3-.4.8-.4 1.4zm4.6 2.4l0-6.7l.9 0l0 6.7l-.9 0zm5.2 0c0 0 .03-.7 0-.7c-.3.5-.9.8-1.5.8c-.3 0-.6 0-.8-.1c-.3-.2-.4-.3-.6-.5c-.1-.1-.2-.3-.2-.6c-.1-.1-.1-.4-.1-.7c.03-.04 0-3 0-3l.9 0c0 0-.05 2.65 0 2.6c0 .5 0 .8 0 .9c.1.2.2.4.3.5c.2.1.4.2.7.2c.2 0 .4-.1.6-.2c.3-.1.4-.3.5-.5c.1-.2.1-.5.1-.9c.04-.04 0-2.6 0-2.6l.9 0l0 4.8l-.8 0zm2 0l0-4.8l.7 0c0 0-.01.64 0 .6c.1-.2.3-.4.6-.5c.2-.2.5-.3.9-.3c.3 0 .6.1.8.3c.3.1.4.3.5.6c.4-.6.9-.9 1.5-.9c.5 0 .9.2 1.1.4c.3.3.4.7.4 1.3c.02-.02 0 3.3 0 3.3l-.8 0c0 0 .01-3.05 0-3c0-.4 0-.6-.1-.8c0-.1-.1-.2-.3-.3c-.1-.1-.3-.1-.5-.1c-.3 0-.6.1-.8.3c-.2.2-.3.6-.3 1.1c-.04-.01 0 2.8 0 2.8l-.9 0c0 0 .03-3.14 0-3.1c0-.4 0-.7-.2-.9c-.1-.1-.3-.2-.6-.2c-.3 0-.5 0-.7.1c-.2.2-.3.3-.4.6c-.1.2-.1.6-.1 1c-.03-.01 0 2.5 0 2.5l-.8 0zm11-1.6c0 0 .9.2.9.2c-.2.4-.4.8-.8 1.1c-.3.3-.8.4-1.4.4c-.7 0-1.2-.2-1.7-.6c-.4-.5-.6-1.1-.6-1.9c0-.8.2-1.4.7-1.9c.4-.4.9-.7 1.6-.7c.6 0 1.2.3 1.6.7c.4.5.6 1.1.6 1.9c0 0 0 .1 0 .2c0 0-3.6 0-3.6 0c0 .5.2.9.4 1.2c.3.3.6.4 1 .4c.3 0 .6 0 .8-.2c.2-.2.4-.4.5-.8zm-2.7-1.3c0 0 2.7 0 2.7 0c0-.4-.1-.7-.3-.9c-.2-.3-.6-.5-1-.5c-.4 0-.7.2-1 .4c-.2.3-.4.6-.4 1z" stroke="none" fill="#ffffff"/></g></svg>