<?xml version="1.0" standalone="no"?>
<!DOCTYPE svg PUBLIC "-//W3C//DTD SVG 1.1//EN" "http://www.w3.org/Graphics/SVG/1.1/DTD/svg11.dtd">
<svg xmlns="http://www.w3.org/2000/svg" version="1.1" width="221px" height="69.9px" viewBox="0 -6 221 69.9" style="top:-6px">
  <desc>ENERGY REDUCTION of Replacement Monitor Program</desc>
  <defs/>
  <g id="Polygon63909">
    <path d="M 0.4 23.7 C 0.4 22.6 0.6 21.8 1.2 21.3 C 1.7 20.9 2.3 20.7 3 20.7 C 3.8 20.7 4.4 21 4.9 21.5 C 5.4 22 5.6 22.7 5.6 23.6 C 5.6 24.3 5.5 24.9 5.3 25.3 C 5.1 25.7 4.8 26 4.4 26.2 C 3.9 26.5 3.5 26.6 3 26.6 C 2.2 26.6 1.6 26.3 1.1 25.8 C 0.6 25.3 0.4 24.6 0.4 23.7 Z M 1.3 23.7 C 1.3 24.4 1.5 24.9 1.8 25.3 C 2.1 25.6 2.5 25.8 3 25.8 C 3.5 25.8 3.9 25.6 4.2 25.3 C 4.5 24.9 4.6 24.4 4.6 23.6 C 4.6 22.9 4.5 22.4 4.2 22 C 3.9 21.7 3.5 21.5 3 21.5 C 2.5 21.5 2.1 21.7 1.8 22 C 1.5 22.4 1.3 22.9 1.3 23.7 Z M 7 26.5 L 7 21.6 L 6.1 21.6 L 6.1 20.8 L 7 20.8 C 7 20.8 6.97 20.24 7 20.2 C 7 19.9 7 19.6 7.1 19.4 C 7.2 19.2 7.3 19 7.6 18.8 C 7.8 18.6 8.1 18.6 8.5 18.6 C 8.8 18.6 9.1 18.6 9.4 18.7 C 9.4 18.7 9.3 19.5 9.3 19.5 C 9.1 19.5 8.9 19.4 8.7 19.4 C 8.4 19.4 8.2 19.5 8.1 19.6 C 8 19.8 7.9 20 7.9 20.3 C 7.92 20.32 7.9 20.8 7.9 20.8 L 9 20.8 L 9 21.6 L 7.9 21.6 L 7.9 26.5 L 7 26.5 Z M 12.9 26.5 L 12.9 18.7 C 12.9 18.7 16.34 18.7 16.3 18.7 C 17 18.7 17.6 18.8 17.9 18.9 C 18.3 19.1 18.6 19.3 18.8 19.7 C 19 20 19.1 20.4 19.1 20.8 C 19.1 21.4 18.9 21.8 18.6 22.2 C 18.2 22.6 17.7 22.8 16.9 22.9 C 17.2 23.1 17.4 23.2 17.5 23.3 C 17.8 23.6 18.1 23.9 18.4 24.4 C 18.39 24.35 19.7 26.5 19.7 26.5 L 18.5 26.5 C 18.5 26.5 17.42 24.85 17.4 24.8 C 17.1 24.4 16.9 24 16.7 23.8 C 16.5 23.5 16.3 23.4 16.2 23.3 C 16 23.2 15.9 23.1 15.7 23.1 C 15.6 23 15.4 23 15.1 23 C 15.12 23.02 13.9 23 13.9 23 L 13.9 26.5 L 12.9 26.5 Z M 13.9 22.1 C 13.9 22.1 16.14 22.13 16.1 22.1 C 16.6 22.1 17 22.1 17.2 22 C 17.5 21.9 17.7 21.7 17.8 21.5 C 18 21.3 18 21.1 18 20.8 C 18 20.5 17.9 20.2 17.6 19.9 C 17.4 19.7 17 19.6 16.4 19.6 C 16.39 19.56 13.9 19.6 13.9 19.6 L 13.9 22.1 Z M 24.4 24.7 C 24.4 24.7 25.4 24.8 25.4 24.8 C 25.3 25.3 25 25.8 24.6 26.1 C 24.1 26.4 23.6 26.6 23 26.6 C 22.1 26.6 21.5 26.3 21 25.8 C 20.5 25.3 20.3 24.6 20.3 23.7 C 20.3 22.8 20.5 22 21 21.5 C 21.5 21 22.1 20.7 22.9 20.7 C 23.7 20.7 24.3 21 24.7 21.5 C 25.2 22 25.5 22.7 25.5 23.6 C 25.5 23.7 25.5 23.8 25.5 23.9 C 25.5 23.9 21.3 23.9 21.3 23.9 C 21.3 24.5 21.5 25 21.8 25.3 C 22.1 25.6 22.5 25.8 23 25.8 C 23.3 25.8 23.6 25.7 23.9 25.5 C 24.1 25.3 24.3 25.1 24.4 24.7 Z M 21.3 23.1 C 21.3 23.1 24.5 23.1 24.5 23.1 C 24.4 22.6 24.3 22.3 24.1 22 C 23.8 21.7 23.4 21.5 22.9 21.5 C 22.5 21.5 22.1 21.6 21.8 21.9 C 21.5 22.2 21.3 22.6 21.3 23.1 Z M 26.6 28.6 L 26.6 20.8 L 27.5 20.8 C 27.5 20.8 27.49 21.57 27.5 21.6 C 27.7 21.3 27.9 21.1 28.2 20.9 C 28.4 20.8 28.8 20.7 29.1 20.7 C 29.6 20.7 30 20.8 30.4 21.1 C 30.8 21.3 31 21.7 31.2 22.1 C 31.4 22.6 31.5 23.1 31.5 23.6 C 31.5 24.2 31.4 24.7 31.2 25.2 C 31 25.6 30.7 26 30.3 26.2 C 29.9 26.5 29.5 26.6 29.1 26.6 C 28.7 26.6 28.4 26.5 28.2 26.4 C 27.9 26.3 27.7 26.1 27.6 25.9 C 27.57 25.88 27.6 28.6 27.6 28.6 L 26.6 28.6 Z M 27.5 23.7 C 27.5 24.4 27.6 24.9 27.9 25.3 C 28.2 25.6 28.6 25.8 29 25.8 C 29.4 25.8 29.8 25.6 30.1 25.3 C 30.4 24.9 30.5 24.4 30.5 23.6 C 30.5 22.9 30.4 22.4 30.1 22 C 29.8 21.6 29.4 21.5 29 21.5 C 28.6 21.5 28.3 21.7 28 22 C 27.6 22.4 27.5 23 27.5 23.7 Z M 32.6 26.5 L 32.6 18.7 L 33.6 18.7 L 33.6 26.5 L 32.6 26.5 Z M 38.9 26.5 C 38.8 26.3 38.8 26 38.7 25.8 C 38.4 26.1 38 26.3 37.7 26.4 C 37.4 26.5 37 26.6 36.7 26.6 C 36 26.6 35.6 26.4 35.2 26.1 C 34.9 25.8 34.7 25.4 34.7 25 C 34.7 24.7 34.8 24.5 34.9 24.2 C 35 24 35.2 23.8 35.4 23.7 C 35.6 23.5 35.8 23.4 36.1 23.4 C 36.3 23.3 36.6 23.3 36.9 23.2 C 37.7 23.1 38.3 23 38.6 22.9 C 38.7 22.8 38.7 22.7 38.7 22.6 C 38.7 22.3 38.6 22 38.4 21.8 C 38.1 21.6 37.8 21.5 37.3 21.5 C 36.8 21.5 36.5 21.6 36.3 21.7 C 36.1 21.9 35.9 22.2 35.8 22.6 C 35.8 22.6 34.9 22.4 34.9 22.4 C 35 22 35.1 21.7 35.3 21.5 C 35.5 21.2 35.8 21 36.2 20.9 C 36.5 20.8 37 20.7 37.4 20.7 C 37.9 20.7 38.3 20.8 38.6 20.9 C 38.9 21 39.1 21.1 39.3 21.3 C 39.4 21.5 39.5 21.7 39.6 22 C 39.6 22.1 39.6 22.4 39.6 22.8 C 39.6 22.8 39.6 24.1 39.6 24.1 C 39.6 25 39.6 25.6 39.7 25.8 C 39.7 26 39.8 26.2 39.9 26.5 C 39.91 26.46 38.9 26.5 38.9 26.5 C 38.9 26.5 38.92 26.46 38.9 26.5 Z M 38.6 23.6 C 38.3 23.8 37.8 23.9 37.1 24 C 36.7 24.1 36.4 24.1 36.3 24.2 C 36.1 24.3 36 24.4 35.9 24.5 C 35.8 24.6 35.8 24.8 35.8 25 C 35.8 25.2 35.8 25.4 36 25.6 C 36.2 25.8 36.5 25.8 36.9 25.8 C 37.3 25.8 37.6 25.8 37.9 25.6 C 38.1 25.4 38.4 25.2 38.5 24.9 C 38.6 24.7 38.6 24.4 38.6 24 C 38.6 24 38.6 23.6 38.6 23.6 Z M 44.8 24.4 C 44.8 24.4 45.7 24.5 45.7 24.5 C 45.6 25.2 45.3 25.7 44.9 26 C 44.5 26.4 44 26.6 43.4 26.6 C 42.6 26.6 42 26.3 41.5 25.8 C 41 25.3 40.8 24.6 40.8 23.7 C 40.8 23.1 40.9 22.5 41.1 22.1 C 41.3 21.6 41.6 21.3 42 21.1 C 42.4 20.8 42.9 20.7 43.4 20.7 C 44 20.7 44.5 20.9 44.9 21.2 C 45.2 21.5 45.5 21.9 45.6 22.5 C 45.6 22.5 44.7 22.6 44.7 22.6 C 44.6 22.3 44.4 22 44.2 21.8 C 44 21.6 43.7 21.5 43.4 21.5 C 42.9 21.5 42.5 21.7 42.2 22 C 41.9 22.4 41.8 22.9 41.8 23.6 C 41.8 24.4 41.9 25 42.2 25.3 C 42.5 25.6 42.9 25.8 43.3 25.8 C 43.7 25.8 44 25.7 44.3 25.5 C 44.5 25.2 44.7 24.9 44.8 24.4 Z M 50.4 24.7 C 50.4 24.7 51.3 24.8 51.3 24.8 C 51.2 25.3 50.9 25.8 50.5 26.1 C 50.1 26.4 49.5 26.6 48.9 26.6 C 48 26.6 47.4 26.3 46.9 25.8 C 46.4 25.3 46.2 24.6 46.2 23.7 C 46.2 22.8 46.4 22 46.9 21.5 C 47.4 21 48 20.7 48.8 20.7 C 49.6 20.7 50.2 21 50.7 21.5 C 51.1 22 51.4 22.7 51.4 23.6 C 51.4 23.7 51.4 23.8 51.4 23.9 C 51.4 23.9 47.2 23.9 47.2 23.9 C 47.2 24.5 47.4 25 47.7 25.3 C 48 25.6 48.4 25.8 48.9 25.8 C 49.2 25.8 49.5 25.7 49.8 25.5 C 50 25.3 50.2 25.1 50.4 24.7 Z M 47.2 23.1 C 47.2 23.1 50.4 23.1 50.4 23.1 C 50.3 22.6 50.2 22.3 50 22 C 49.7 21.7 49.3 21.5 48.8 21.5 C 48.4 21.5 48 21.6 47.7 21.9 C 47.4 22.2 47.3 22.6 47.2 23.1 Z M 52.5 26.5 L 52.5 20.8 L 53.4 20.8 C 53.4 20.8 53.39 21.63 53.4 21.6 C 53.6 21.4 53.8 21.1 54.1 21 C 54.4 20.8 54.7 20.7 55.1 20.7 C 55.5 20.7 55.8 20.8 56.1 21 C 56.4 21.1 56.6 21.4 56.7 21.7 C 57.1 21 57.7 20.7 58.4 20.7 C 59 20.7 59.4 20.9 59.7 21.2 C 60 21.5 60.2 22 60.2 22.6 C 60.15 22.6 60.2 26.5 60.2 26.5 L 59.2 26.5 C 59.2 26.5 59.2 22.92 59.2 22.9 C 59.2 22.5 59.2 22.3 59.1 22.1 C 59 21.9 58.9 21.8 58.8 21.7 C 58.6 21.6 58.4 21.5 58.2 21.5 C 57.8 21.5 57.5 21.7 57.2 21.9 C 57 22.2 56.8 22.6 56.8 23.2 C 56.83 23.2 56.8 26.5 56.8 26.5 L 55.9 26.5 C 55.9 26.5 55.87 22.81 55.9 22.8 C 55.9 22.4 55.8 22.1 55.6 21.9 C 55.5 21.6 55.2 21.5 54.9 21.5 C 54.6 21.5 54.4 21.6 54.1 21.8 C 53.9 21.9 53.7 22.1 53.6 22.4 C 53.5 22.6 53.5 23 53.5 23.5 C 53.49 23.55 53.5 26.5 53.5 26.5 L 52.5 26.5 Z M 65.4 24.7 C 65.4 24.7 66.4 24.8 66.4 24.8 C 66.2 25.3 66 25.8 65.5 26.1 C 65.1 26.4 64.6 26.6 63.9 26.6 C 63.1 26.6 62.5 26.3 62 25.8 C 61.5 25.3 61.2 24.6 61.2 23.7 C 61.2 22.8 61.5 22 62 21.5 C 62.5 21 63.1 20.7 63.9 20.7 C 64.6 20.7 65.2 21 65.7 21.5 C 66.2 22 66.4 22.7 66.4 23.6 C 66.4 23.7 66.4 23.8 66.4 23.9 C 66.4 23.9 62.2 23.9 62.2 23.9 C 62.3 24.5 62.4 25 62.8 25.3 C 63.1 25.6 63.5 25.8 63.9 25.8 C 64.3 25.8 64.6 25.7 64.8 25.5 C 65.1 25.3 65.3 25.1 65.4 24.7 Z M 62.3 23.1 C 62.3 23.1 65.4 23.1 65.4 23.1 C 65.4 22.6 65.3 22.3 65.1 22 C 64.8 21.7 64.4 21.5 63.9 21.5 C 63.4 21.5 63.1 21.6 62.8 21.9 C 62.5 22.2 62.3 22.6 62.3 23.1 Z M 67.6 26.5 L 67.6 20.8 L 68.4 20.8 C 68.4 20.8 68.45 21.64 68.4 21.6 C 68.9 21 69.5 20.7 70.2 20.7 C 70.6 20.7 70.9 20.8 71.2 20.9 C 71.5 21 71.7 21.2 71.8 21.4 C 72 21.6 72.1 21.8 72.1 22.1 C 72.1 22.3 72.2 22.6 72.2 23 C 72.16 23.01 72.2 26.5 72.2 26.5 L 71.2 26.5 C 71.2 26.5 71.21 23.04 71.2 23 C 71.2 22.7 71.2 22.4 71.1 22.2 C 71 22 70.9 21.8 70.7 21.7 C 70.5 21.6 70.3 21.5 70 21.5 C 69.6 21.5 69.3 21.7 69 21.9 C 68.7 22.2 68.5 22.7 68.5 23.4 C 68.55 23.39 68.5 26.5 68.5 26.5 L 67.6 26.5 Z M 75.3 25.6 C 75.4 25.6 75.5 25.6 75.7 25.6 C 75.7 25.6 75.8 26.5 75.8 26.5 C 75.6 26.5 75.3 26.5 75.1 26.5 C 74.8 26.5 74.5 26.5 74.3 26.4 C 74.1 26.3 74 26.1 73.9 25.9 C 73.8 25.8 73.8 25.4 73.8 24.8 C 73.8 24.82 73.8 21.6 73.8 21.6 L 73.1 21.6 L 73.1 20.8 L 73.8 20.8 L 73.8 19.4 L 74.7 18.9 L 74.7 20.8 L 75.7 20.8 L 75.7 21.6 L 74.7 21.6 C 74.7 21.6 74.74 24.87 74.7 24.9 C 74.7 25.1 74.8 25.3 74.8 25.4 C 74.8 25.5 74.9 25.5 75 25.6 C 75 25.6 75.1 25.6 75.3 25.6 C 75.3 25.6 75.3 25.6 75.3 25.6 Z M 79.7 26.5 L 79.7 18.7 L 81.3 18.7 C 81.3 18.7 83.12 24.2 83.1 24.2 C 83.3 24.7 83.4 25.1 83.5 25.3 C 83.6 25.1 83.7 24.6 83.9 24.1 C 83.9 24.1 85.8 18.7 85.8 18.7 L 87.1 18.7 L 87.1 26.5 L 86.1 26.5 L 86.1 20 L 83.9 26.5 L 83 26.5 L 80.7 19.9 L 80.7 26.5 L 79.7 26.5 Z M 88.3 23.7 C 88.3 22.6 88.6 21.8 89.2 21.3 C 89.7 20.9 90.3 20.7 91 20.7 C 91.7 20.7 92.4 21 92.8 21.5 C 93.3 22 93.6 22.7 93.6 23.6 C 93.6 24.3 93.5 24.9 93.3 25.3 C 93 25.7 92.7 26 92.3 26.2 C 91.9 26.5 91.4 26.6 91 26.6 C 90.2 26.6 89.5 26.3 89 25.8 C 88.6 25.3 88.3 24.6 88.3 23.7 Z M 89.3 23.7 C 89.3 24.4 89.5 24.9 89.8 25.3 C 90.1 25.6 90.5 25.8 91 25.8 C 91.4 25.8 91.8 25.6 92.1 25.3 C 92.4 24.9 92.6 24.4 92.6 23.6 C 92.6 22.9 92.4 22.4 92.1 22 C 91.8 21.7 91.4 21.5 91 21.5 C 90.5 21.5 90.1 21.7 89.8 22 C 89.5 22.4 89.3 22.9 89.3 23.7 Z M 94.7 26.5 L 94.7 20.8 L 95.6 20.8 C 95.6 20.8 95.56 21.64 95.6 21.6 C 96 21 96.6 20.7 97.3 20.7 C 97.7 20.7 98 20.8 98.3 20.9 C 98.6 21 98.8 21.2 98.9 21.4 C 99.1 21.6 99.2 21.8 99.2 22.1 C 99.3 22.3 99.3 22.6 99.3 23 C 99.27 23.01 99.3 26.5 99.3 26.5 L 98.3 26.5 C 98.3 26.5 98.32 23.04 98.3 23 C 98.3 22.7 98.3 22.4 98.2 22.2 C 98.1 22 98 21.8 97.8 21.7 C 97.6 21.6 97.4 21.5 97.1 21.5 C 96.7 21.5 96.4 21.7 96.1 21.9 C 95.8 22.2 95.7 22.7 95.7 23.4 C 95.65 23.39 95.7 26.5 95.7 26.5 L 94.7 26.5 Z M 100.7 19.8 L 100.7 18.7 L 101.7 18.7 L 101.7 19.8 L 100.7 19.8 Z M 100.7 26.5 L 100.7 20.8 L 101.7 20.8 L 101.7 26.5 L 100.7 26.5 Z M 104.8 25.6 C 104.9 25.6 105 25.6 105.2 25.6 C 105.2 25.6 105.4 26.5 105.4 26.5 C 105.1 26.5 104.8 26.5 104.6 26.5 C 104.3 26.5 104 26.5 103.8 26.4 C 103.6 26.3 103.5 26.1 103.4 25.9 C 103.4 25.8 103.3 25.4 103.3 24.8 C 103.31 24.82 103.3 21.6 103.3 21.6 L 102.6 21.6 L 102.6 20.8 L 103.3 20.8 L 103.3 19.4 L 104.3 18.9 L 104.3 20.8 L 105.2 20.8 L 105.2 21.6 L 104.3 21.6 C 104.3 21.6 104.26 24.87 104.3 24.9 C 104.3 25.1 104.3 25.3 104.3 25.4 C 104.3 25.5 104.4 25.5 104.5 25.6 C 104.5 25.6 104.7 25.6 104.8 25.6 C 104.8 25.6 104.8 25.6 104.8 25.6 Z M 105.8 23.7 C 105.8 22.6 106.1 21.8 106.7 21.3 C 107.1 20.9 107.7 20.7 108.4 20.7 C 109.2 20.7 109.8 21 110.3 21.5 C 110.8 22 111.1 22.7 111.1 23.6 C 111.1 24.3 111 24.9 110.7 25.3 C 110.5 25.7 110.2 26 109.8 26.2 C 109.4 26.5 108.9 26.6 108.4 26.6 C 107.6 26.6 107 26.3 106.5 25.8 C 106 25.3 105.8 24.6 105.8 23.7 Z M 106.8 23.7 C 106.8 24.4 106.9 24.9 107.2 25.3 C 107.6 25.6 108 25.8 108.4 25.8 C 108.9 25.8 109.3 25.6 109.6 25.3 C 109.9 24.9 110.1 24.4 110.1 23.6 C 110.1 22.9 109.9 22.4 109.6 22 C 109.3 21.7 108.9 21.5 108.4 21.5 C 108 21.5 107.6 21.7 107.2 22 C 106.9 22.4 106.8 22.9 106.8 23.7 Z M 112.2 26.5 L 112.2 20.8 L 113 20.8 C 113 20.8 113.02 21.69 113 21.7 C 113.2 21.3 113.4 21 113.6 20.9 C 113.8 20.8 114 20.7 114.2 20.7 C 114.6 20.7 114.9 20.8 115.2 21 C 115.2 21 114.9 21.9 114.9 21.9 C 114.7 21.8 114.4 21.7 114.2 21.7 C 114 21.7 113.8 21.8 113.6 21.9 C 113.5 22 113.3 22.2 113.3 22.4 C 113.2 22.7 113.1 23.1 113.1 23.5 C 113.12 23.52 113.1 26.5 113.1 26.5 L 112.2 26.5 Z M 118.9 26.5 L 118.9 18.7 C 118.9 18.7 121.85 18.7 121.8 18.7 C 122.4 18.7 122.8 18.7 123 18.8 C 123.4 18.8 123.7 19 124 19.1 C 124.2 19.3 124.5 19.6 124.6 19.9 C 124.8 20.2 124.8 20.6 124.8 20.9 C 124.8 21.6 124.6 22.2 124.2 22.6 C 123.8 23.1 123 23.3 121.9 23.3 C 121.94 23.31 119.9 23.3 119.9 23.3 L 119.9 26.5 L 118.9 26.5 Z M 119.9 22.4 C 119.9 22.4 121.95 22.39 122 22.4 C 122.6 22.4 123.1 22.3 123.4 22 C 123.6 21.8 123.8 21.4 123.8 21 C 123.8 20.7 123.7 20.4 123.5 20.1 C 123.4 19.9 123.2 19.8 122.9 19.7 C 122.7 19.6 122.4 19.6 121.9 19.6 C 121.93 19.62 119.9 19.6 119.9 19.6 L 119.9 22.4 Z M 126 26.5 L 126 20.8 L 126.9 20.8 C 126.9 20.8 126.88 21.69 126.9 21.7 C 127.1 21.3 127.3 21 127.5 20.9 C 127.7 20.8 127.9 20.7 128.1 20.7 C 128.4 20.7 128.7 20.8 129.1 21 C 129.1 21 128.7 21.9 128.7 21.9 C 128.5 21.8 128.3 21.7 128 21.7 C 127.8 21.7 127.6 21.8 127.5 21.9 C 127.3 22 127.2 22.2 127.1 22.4 C 127 22.7 127 23.1 127 23.5 C 126.97 23.52 127 26.5 127 26.5 L 126 26.5 Z M 129.3 23.7 C 129.3 22.6 129.6 21.8 130.2 21.3 C 130.6 20.9 131.2 20.7 131.9 20.7 C 132.7 20.7 133.3 21 133.8 21.5 C 134.3 22 134.5 22.7 134.5 23.6 C 134.5 24.3 134.4 24.9 134.2 25.3 C 134 25.7 133.7 26 133.3 26.2 C 132.9 26.5 132.4 26.6 131.9 26.6 C 131.1 26.6 130.5 26.3 130 25.8 C 129.5 25.3 129.3 24.6 129.3 23.7 Z M 130.3 23.7 C 130.3 24.4 130.4 24.9 130.7 25.3 C 131 25.6 131.4 25.8 131.9 25.8 C 132.4 25.8 132.8 25.6 133.1 25.3 C 133.4 24.9 133.6 24.4 133.6 23.6 C 133.6 22.9 133.4 22.4 133.1 22 C 132.8 21.7 132.4 21.5 131.9 21.5 C 131.4 21.5 131 21.7 130.7 22 C 130.4 22.4 130.3 22.9 130.3 23.7 Z M 135.5 26.9 C 135.5 26.9 136.4 27.1 136.4 27.1 C 136.5 27.4 136.6 27.6 136.7 27.7 C 137 27.9 137.3 28 137.7 28 C 138.2 28 138.5 27.9 138.7 27.7 C 139 27.5 139.1 27.3 139.2 26.9 C 139.3 26.8 139.3 26.3 139.3 25.7 C 138.9 26.2 138.4 26.5 137.7 26.5 C 137 26.5 136.4 26.2 135.9 25.6 C 135.5 25.1 135.3 24.4 135.3 23.6 C 135.3 23.1 135.4 22.6 135.6 22.1 C 135.8 21.7 136.1 21.3 136.4 21.1 C 136.8 20.8 137.2 20.7 137.7 20.7 C 138.4 20.7 138.9 21 139.4 21.5 C 139.38 21.52 139.4 20.8 139.4 20.8 L 140.3 20.8 C 140.3 20.8 140.26 25.7 140.3 25.7 C 140.3 26.6 140.2 27.2 140 27.6 C 139.8 27.9 139.5 28.2 139.1 28.4 C 138.8 28.6 138.3 28.7 137.7 28.7 C 137 28.7 136.5 28.6 136.1 28.3 C 135.7 28 135.5 27.5 135.5 26.9 Z M 136.3 23.6 C 136.3 24.3 136.4 24.8 136.7 25.2 C 137 25.5 137.4 25.7 137.8 25.7 C 138.3 25.7 138.6 25.5 138.9 25.2 C 139.2 24.8 139.4 24.3 139.4 23.6 C 139.4 22.9 139.2 22.4 138.9 22 C 138.6 21.7 138.2 21.5 137.8 21.5 C 137.4 21.5 137 21.7 136.7 22 C 136.4 22.4 136.3 22.9 136.3 23.6 Z M 141.7 26.5 L 141.7 20.8 L 142.5 20.8 C 142.5 20.8 142.54 21.69 142.5 21.7 C 142.8 21.3 143 21 143.1 20.9 C 143.3 20.8 143.5 20.7 143.8 20.7 C 144.1 20.7 144.4 20.8 144.7 21 C 144.7 21 144.4 21.9 144.4 21.9 C 144.2 21.8 143.9 21.7 143.7 21.7 C 143.5 21.7 143.3 21.8 143.2 21.9 C 143 22 142.9 22.2 142.8 22.4 C 142.7 22.7 142.6 23.1 142.6 23.5 C 142.64 23.52 142.6 26.5 142.6 26.5 L 141.7 26.5 Z M 149.2 26.5 C 149.1 26.3 149 26 149 25.8 C 148.6 26.1 148.3 26.3 148 26.4 C 147.6 26.5 147.3 26.6 146.9 26.6 C 146.3 26.6 145.8 26.4 145.5 26.1 C 145.1 25.8 145 25.4 145 25 C 145 24.7 145 24.5 145.2 24.2 C 145.3 24 145.5 23.8 145.7 23.7 C 145.9 23.5 146.1 23.4 146.3 23.4 C 146.5 23.3 146.8 23.3 147.2 23.2 C 148 23.1 148.5 23 148.9 22.9 C 148.9 22.8 148.9 22.7 148.9 22.6 C 148.9 22.3 148.8 22 148.6 21.8 C 148.4 21.6 148 21.5 147.5 21.5 C 147.1 21.5 146.8 21.6 146.6 21.7 C 146.3 21.9 146.2 22.2 146.1 22.6 C 146.1 22.6 145.1 22.4 145.1 22.4 C 145.2 22 145.4 21.7 145.6 21.5 C 145.8 21.2 146 21 146.4 20.9 C 146.8 20.8 147.2 20.7 147.7 20.7 C 148.2 20.7 148.6 20.8 148.9 20.9 C 149.2 21 149.4 21.1 149.5 21.3 C 149.7 21.5 149.8 21.7 149.8 22 C 149.8 22.1 149.9 22.4 149.9 22.8 C 149.9 22.8 149.9 24.1 149.9 24.1 C 149.9 25 149.9 25.6 149.9 25.8 C 150 26 150 26.2 150.2 26.5 C 150.16 26.46 149.2 26.5 149.2 26.5 C 149.2 26.5 149.16 26.46 149.2 26.5 Z M 148.9 23.6 C 148.5 23.8 148 23.9 147.3 24 C 146.9 24.1 146.7 24.1 146.5 24.2 C 146.3 24.3 146.2 24.4 146.1 24.5 C 146 24.6 146 24.8 146 25 C 146 25.2 146.1 25.4 146.3 25.6 C 146.5 25.8 146.8 25.8 147.1 25.8 C 147.5 25.8 147.8 25.8 148.1 25.6 C 148.4 25.4 148.6 25.2 148.7 24.9 C 148.8 24.7 148.9 24.4 148.9 24 C 148.9 24 148.9 23.6 148.9 23.6 Z M 151.3 26.5 L 151.3 20.8 L 152.2 20.8 C 152.2 20.8 152.18 21.63 152.2 21.6 C 152.4 21.4 152.6 21.1 152.9 21 C 153.2 20.8 153.5 20.7 153.9 20.7 C 154.3 20.7 154.6 20.8 154.9 21 C 155.2 21.1 155.4 21.4 155.5 21.7 C 155.9 21 156.5 20.7 157.2 20.7 C 157.8 20.7 158.2 20.9 158.5 21.2 C 158.8 21.5 158.9 22 158.9 22.6 C 158.95 22.6 158.9 26.5 158.9 26.5 L 158 26.5 C 158 26.5 158 22.92 158 22.9 C 158 22.5 158 22.3 157.9 22.1 C 157.8 21.9 157.7 21.8 157.6 21.7 C 157.4 21.6 157.2 21.5 157 21.5 C 156.6 21.5 156.3 21.7 156 21.9 C 155.8 22.2 155.6 22.6 155.6 23.2 C 155.62 23.2 155.6 26.5 155.6 26.5 L 154.7 26.5 C 154.7 26.5 154.67 22.81 154.7 22.8 C 154.7 22.4 154.6 22.1 154.4 21.9 C 154.3 21.6 154 21.5 153.7 21.5 C 153.4 21.5 153.2 21.6 152.9 21.8 C 152.7 21.9 152.5 22.1 152.4 22.4 C 152.3 22.6 152.3 23 152.3 23.5 C 152.29 23.55 152.3 26.5 152.3 26.5 L 151.3 26.5 Z " stroke="none" fill="#ffffff"/>
  </g>
  <g id="Polygon63908">
    <path d="M 1.5 11.6 L 1.5 0.2 L 9.8 0.2 L 9.8 1.5 L 3.1 1.5 L 3.1 5 L 9.4 5 L 9.4 6.4 L 3.1 6.4 L 3.1 10.3 L 10.1 10.3 L 10.1 11.6 L 1.5 11.6 Z M 12.7 11.6 L 12.7 0.2 L 14.3 0.2 L 20.3 9.2 L 20.3 0.2 L 21.7 0.2 L 21.7 11.6 L 20.2 11.6 L 14.2 2.6 L 14.2 11.6 L 12.7 11.6 Z M 24.9 11.6 L 24.9 0.2 L 33.1 0.2 L 33.1 1.5 L 26.4 1.5 L 26.4 5 L 32.7 5 L 32.7 6.4 L 26.4 6.4 L 26.4 10.3 L 33.4 10.3 L 33.4 11.6 L 24.9 11.6 Z M 36.1 11.6 L 36.1 0.2 C 36.1 0.2 41.14 0.19 41.1 0.2 C 42.2 0.2 42.9 0.3 43.5 0.5 C 44 0.7 44.4 1.1 44.7 1.6 C 45 2.1 45.2 2.7 45.2 3.3 C 45.2 4.1 44.9 4.8 44.4 5.4 C 43.9 5.9 43.1 6.3 42 6.4 C 42.4 6.6 42.7 6.8 42.9 7 C 43.3 7.4 43.8 7.9 44.2 8.5 C 44.15 8.52 46.1 11.6 46.1 11.6 L 44.2 11.6 C 44.2 11.6 42.73 9.25 42.7 9.3 C 42.3 8.6 41.9 8 41.6 7.7 C 41.3 7.3 41.1 7.1 40.9 6.9 C 40.6 6.8 40.4 6.7 40.2 6.6 C 40 6.6 39.7 6.6 39.3 6.6 C 39.33 6.55 37.6 6.6 37.6 6.6 L 37.6 11.6 L 36.1 11.6 Z M 37.6 5.2 C 37.6 5.2 40.83 5.24 40.8 5.2 C 41.5 5.2 42.1 5.2 42.5 5 C 42.8 4.9 43.1 4.7 43.3 4.3 C 43.5 4 43.6 3.7 43.6 3.3 C 43.6 2.8 43.5 2.3 43.1 2 C 42.7 1.6 42 1.5 41.2 1.5 C 41.2 1.46 37.6 1.5 37.6 1.5 L 37.6 5.2 Z M 53.5 7.1 L 53.5 5.8 L 58.3 5.8 C 58.3 5.8 58.33 10.04 58.3 10 C 57.6 10.6 56.8 11.1 56 11.4 C 55.2 11.7 54.4 11.8 53.6 11.8 C 52.5 11.8 51.5 11.6 50.5 11.1 C 49.6 10.6 48.9 9.9 48.5 9 C 48 8.1 47.8 7.1 47.8 6 C 47.8 4.9 48 3.8 48.5 2.9 C 48.9 1.9 49.6 1.2 50.5 0.7 C 51.3 0.2 52.3 0 53.5 0 C 54.3 0 55.1 0.1 55.7 0.4 C 56.4 0.7 56.9 1 57.3 1.5 C 57.7 2 58 2.6 58.2 3.4 C 58.2 3.4 56.8 3.8 56.8 3.8 C 56.6 3.2 56.4 2.7 56.2 2.4 C 55.9 2.1 55.5 1.8 55.1 1.6 C 54.6 1.4 54.1 1.3 53.5 1.3 C 52.8 1.3 52.2 1.4 51.7 1.6 C 51.2 1.8 50.8 2.1 50.5 2.4 C 50.2 2.8 49.9 3.2 49.8 3.6 C 49.5 4.3 49.3 5 49.3 5.9 C 49.3 6.9 49.5 7.7 49.8 8.4 C 50.2 9.1 50.7 9.6 51.4 10 C 52 10.3 52.8 10.5 53.5 10.5 C 54.2 10.5 54.8 10.3 55.4 10.1 C 56.1 9.8 56.5 9.6 56.9 9.3 C 56.85 9.27 56.9 7.1 56.9 7.1 L 53.5 7.1 Z M 64.3 11.6 L 64.3 6.8 L 59.9 0.2 L 61.8 0.2 C 61.8 0.2 64.04 3.64 64 3.6 C 64.5 4.3 64.8 4.9 65.2 5.6 C 65.5 5 66 4.3 66.4 3.6 C 66.45 3.56 68.7 0.2 68.7 0.2 L 70.4 0.2 L 65.9 6.8 L 65.9 11.6 L 64.3 11.6 Z M 76.5 11.6 L 76.5 0.2 C 76.5 0.2 81.58 0.19 81.6 0.2 C 82.6 0.2 83.4 0.3 83.9 0.5 C 84.4 0.7 84.9 1.1 85.2 1.6 C 85.5 2.1 85.7 2.7 85.7 3.3 C 85.7 4.1 85.4 4.8 84.9 5.4 C 84.3 5.9 83.5 6.3 82.4 6.4 C 82.8 6.6 83.1 6.8 83.3 7 C 83.8 7.4 84.2 7.9 84.6 8.5 C 84.6 8.52 86.6 11.6 86.6 11.6 L 84.7 11.6 C 84.7 11.6 83.18 9.25 83.2 9.3 C 82.7 8.6 82.4 8 82.1 7.7 C 81.8 7.3 81.5 7.1 81.3 6.9 C 81.1 6.8 80.9 6.7 80.6 6.6 C 80.5 6.6 80.2 6.6 79.8 6.6 C 79.78 6.55 78 6.6 78 6.6 L 78 11.6 L 76.5 11.6 Z M 78 5.2 C 78 5.2 81.28 5.24 81.3 5.2 C 82 5.2 82.5 5.2 82.9 5 C 83.3 4.9 83.6 4.7 83.8 4.3 C 84 4 84.1 3.7 84.1 3.3 C 84.1 2.8 83.9 2.3 83.5 2 C 83.1 1.6 82.5 1.5 81.6 1.5 C 81.65 1.46 78 1.5 78 1.5 L 78 5.2 Z M 88.6 11.6 L 88.6 0.2 L 96.9 0.2 L 96.9 1.5 L 90.1 1.5 L 90.1 5 L 96.5 5 L 96.5 6.4 L 90.1 6.4 L 90.1 10.3 L 97.2 10.3 L 97.2 11.6 L 88.6 11.6 Z M 99.8 11.6 L 99.8 0.2 C 99.8 0.2 103.74 0.19 103.7 0.2 C 104.6 0.2 105.3 0.2 105.8 0.4 C 106.4 0.5 107 0.8 107.5 1.2 C 108.1 1.7 108.5 2.3 108.8 3.1 C 109.1 3.9 109.3 4.8 109.3 5.8 C 109.3 6.7 109.2 7.5 109 8.2 C 108.8 8.8 108.5 9.4 108.2 9.8 C 107.9 10.3 107.5 10.6 107.1 10.9 C 106.8 11.1 106.3 11.3 105.8 11.4 C 105.2 11.6 104.6 11.6 103.9 11.6 C 103.93 11.63 99.8 11.6 99.8 11.6 Z M 101.3 10.3 C 101.3 10.3 103.76 10.28 103.8 10.3 C 104.5 10.3 105.1 10.2 105.5 10.1 C 106 9.9 106.3 9.7 106.6 9.5 C 106.9 9.1 107.2 8.6 107.4 8 C 107.6 7.4 107.7 6.7 107.7 5.8 C 107.7 4.6 107.5 3.7 107.1 3.1 C 106.7 2.4 106.2 2 105.7 1.8 C 105.3 1.6 104.6 1.5 103.7 1.5 C 103.72 1.54 101.3 1.5 101.3 1.5 L 101.3 10.3 Z M 119.4 0.2 L 120.9 0.2 C 120.9 0.2 120.92 6.8 120.9 6.8 C 120.9 8 120.8 8.9 120.5 9.5 C 120.3 10.2 119.8 10.8 119.1 11.2 C 118.4 11.6 117.6 11.8 116.4 11.8 C 115.4 11.8 114.5 11.6 113.8 11.3 C 113.1 10.9 112.7 10.4 112.4 9.7 C 112.1 9 111.9 8 111.9 6.8 C 111.93 6.8 111.9 0.2 111.9 0.2 L 113.4 0.2 C 113.4 0.2 113.44 6.79 113.4 6.8 C 113.4 7.8 113.5 8.5 113.7 9 C 113.9 9.5 114.2 9.8 114.7 10.1 C 115.1 10.3 115.7 10.5 116.3 10.5 C 117.4 10.5 118.2 10.2 118.7 9.7 C 119.2 9.2 119.4 8.2 119.4 6.8 C 119.41 6.79 119.4 0.2 119.4 0.2 Z M 132.2 7.6 C 132.2 7.6 133.7 8 133.7 8 C 133.4 9.2 132.8 10.2 132 10.8 C 131.1 11.5 130.1 11.8 128.9 11.8 C 127.7 11.8 126.7 11.6 125.9 11.1 C 125.2 10.6 124.6 9.8 124.2 8.9 C 123.8 7.9 123.6 6.9 123.6 5.8 C 123.6 4.6 123.8 3.6 124.2 2.7 C 124.7 1.8 125.3 1.2 126.2 0.7 C 127 0.2 128 0 129 0 C 130.1 0 131.1 0.3 131.8 0.9 C 132.6 1.5 133.2 2.3 133.5 3.3 C 133.5 3.3 132 3.7 132 3.7 C 131.7 2.8 131.3 2.2 130.8 1.9 C 130.3 1.5 129.7 1.3 128.9 1.3 C 128 1.3 127.3 1.5 126.7 1.9 C 126.1 2.3 125.7 2.9 125.5 3.6 C 125.2 4.3 125.1 5.1 125.1 5.8 C 125.1 6.8 125.3 7.6 125.5 8.4 C 125.8 9.1 126.3 9.6 126.9 10 C 127.5 10.4 128.1 10.5 128.8 10.5 C 129.7 10.5 130.4 10.3 131 9.8 C 131.6 9.3 131.9 8.6 132.2 7.6 Z M 139 11.6 L 139 1.5 L 135.2 1.5 L 135.2 0.2 L 144.3 0.2 L 144.3 1.5 L 140.5 1.5 L 140.5 11.6 L 139 11.6 Z M 146.7 11.6 L 146.7 0.2 L 148.2 0.2 L 148.2 11.6 L 146.7 11.6 Z M 151 6.1 C 151 4.2 151.5 2.7 152.5 1.6 C 153.5 0.5 154.8 0 156.4 0 C 157.5 0 158.4 0.2 159.3 0.7 C 160.1 1.3 160.8 2 161.2 2.9 C 161.7 3.8 161.9 4.8 161.9 5.9 C 161.9 7.1 161.7 8.1 161.2 9 C 160.7 10 160.1 10.6 159.2 11.1 C 158.3 11.6 157.4 11.8 156.4 11.8 C 155.3 11.8 154.4 11.6 153.5 11 C 152.7 10.5 152 9.8 151.6 8.9 C 151.2 8 151 7.1 151 6.1 Z M 152.5 6.1 C 152.5 7.5 152.9 8.5 153.6 9.3 C 154.4 10.1 155.3 10.5 156.4 10.5 C 157.6 10.5 158.5 10.1 159.2 9.3 C 160 8.5 160.3 7.4 160.3 5.9 C 160.3 5 160.2 4.2 159.9 3.5 C 159.5 2.8 159.1 2.3 158.5 1.9 C 157.9 1.5 157.2 1.3 156.4 1.3 C 155.4 1.3 154.4 1.7 153.7 2.4 C 152.9 3.1 152.5 4.4 152.5 6.1 Z M 164.4 11.6 L 164.4 0.2 L 165.9 0.2 L 171.9 9.2 L 171.9 0.2 L 173.4 0.2 L 173.4 11.6 L 171.8 11.6 L 165.8 2.6 L 165.8 11.6 L 164.4 11.6 Z " stroke="none" fill="#ffffff"/>
  </g>
</svg>