<?xml version="1.0" standalone="no"?><!DOCTYPE svg PUBLIC "-//W3C//DTD SVG 1.1//EN" "http://www.w3.org/Graphics/SVG/1.1/DTD/svg11.dtd"><svg xmlns="http://www.w3.org/2000/svg" version="1.1" width="116.2px" height="41.7px" viewBox="0 -3 116.2 41.7" style="top:-3px"><desc>Recycled technology equipment is equivalent to the power needed to generate</desc><defs/><g id="Polygon70237"><path d="m3.2 31.3l0-.7l2.3 0c0 0 .03 2.06 0 2.1c-.3.3-.7.5-1.1.6c-.4.2-.8.2-1.2.2c-.5 0-1-.1-1.4-.3c-.5-.3-.8-.6-1-1c-.3-.5-.4-1-.4-1.5c0-.5.1-1 .3-1.5c.3-.5.6-.8 1-1.1c.4-.2.9-.3 1.5-.3c.4 0 .7.1 1.1.2c.3.1.5.3.7.5c.2.3.3.6.4 1c0 0-.6.1-.6.1c-.1-.3-.2-.5-.3-.6c-.1-.2-.3-.3-.6-.4c-.2-.1-.4-.2-.7-.2c-.4 0-.6.1-.9.2c-.2.1-.4.2-.6.4c-.1.2-.2.3-.3.5c-.2.4-.2.8-.2 1.1c0 .5.1 1 .2 1.3c.2.3.4.6.8.7c.3.2.6.3 1 .3c.3 0 .6-.1.9-.2c.3-.1.6-.3.7-.4c.01-.01 0-1 0-1l-1.6 0zm3.5 2.1l0-5.5l4 0l0 .7l-3.3 0l0 1.7l3 0l0 .6l-3 0l0 1.9l3.4 0l0 .6l-4.1 0zm5 0l0-5.5l.7 0l2.9 4.3l0-4.3l.7 0l0 5.5l-.7 0l-2.9-4.3l0 4.3l-.7 0zm5.6 0l0-5.5l4 0l0 .7l-3.3 0l0 1.7l3.1 0l0 .6l-3.1 0l0 1.9l3.4 0l0 .6l-4.1 0zm5 0l0-5.5c0 0 2.5 0 2.5 0c.5 0 .9.1 1.1.2c.3.1.5.2.6.5c.2.2.3.5.3.8c0 .4-.2.7-.4 1c-.3.3-.7.4-1.2.5c.2.1.3.2.4.3c.3.2.5.4.7.7c-.04.03.9 1.5.9 1.5l-.9 0c0 0-.73-1.12-.7-1.1c-.2-.3-.4-.6-.6-.8c-.1-.2-.2-.3-.3-.3c-.1-.1-.3-.2-.4-.2c-.1 0-.2 0-.4 0c.02-.02-.8 0-.8 0l0 2.4l-.8 0zm.8-3.1c0 0 1.55.04 1.5 0c.4 0 .6 0 .8-.1c.2 0 .4-.1.5-.3c.1-.1.1-.3.1-.5c0-.2-.1-.5-.3-.6c-.2-.2-.5-.3-.9-.3c.03.02-1.7 0-1.7 0l0 1.8zm4.5 3.1l2.1-5.5l.8 0l2.3 5.5l-.8 0l-.7-1.6l-2.3 0l-.6 1.6l-.8 0zm1.6-2.2l1.9 0c0 0-.59-1.57-.6-1.6c-.2-.4-.3-.8-.4-1.1c0 .3-.1.7-.3 1c.02.04-.6 1.7-.6 1.7zm4.9 2.2l0-4.8l-1.8 0l0-.7l4.4 0l0 .7l-1.8 0l0 4.8l-.8 0zm3.4 0l0-5.5l3.9 0l0 .7l-3.2 0l0 1.7l3 0l0 .6l-3 0l0 1.9l3.4 0l0 .6l-4.1 0z" stroke="none" fill="#fff"/></g><g id="Polygon70236"><path d="m2 24.2l0-4.9l-1.8 0l0-.7l4.4 0l0 .7l-1.9 0l0 4.9l-.7 0zm2.8-2.7c0-.9.3-1.7.8-2.2c.5-.5 1.1-.8 1.9-.8c.5 0 1 .2 1.4.4c.4.2.7.6.9 1c.2.5.3 1 .3 1.5c0 .6-.1 1.1-.3 1.5c-.2.5-.6.8-1 1c-.4.2-.8.4-1.3.4c-.5 0-1-.2-1.4-.4c-.4-.3-.7-.6-.9-1c-.2-.5-.4-.9-.4-1.4zm.8 0c0 .6.2 1.2.5 1.6c.4.3.8.5 1.4.5c.5 0 1-.2 1.3-.5c.4-.4.6-1 .6-1.7c0-.4-.1-.8-.2-1.2c-.2-.3-.4-.6-.7-.8c-.3-.1-.6-.2-1-.2c-.5 0-1 .1-1.3.5c-.4.4-.6.9-.6 1.8zm9 2.7l0-4.9l-1.8 0l0-.7l4.4 0l0 .7l-1.8 0l0 4.9l-.8 0zm3.3 0l0-5.6l.8 0l0 2.3l2.8 0l0-2.3l.8 0l0 5.6l-.8 0l0-2.6l-2.8 0l0 2.6l-.8 0zm5.6 0l0-5.6l4 0l0 .7l-3.2 0l0 1.7l3 0l0 .6l-3 0l0 1.9l3.4 0l0 .7l-4.2 0zm7.3 0l0-5.6c0 0 2.1.03 2.1 0c.4 0 .6.1.8.1c.3 0 .5.1.7.2c.2.2.4.4.5.6c.1.2.1.5.1.7c0 .5-.1.9-.4 1.2c-.3.4-.9.5-1.6.5c-.04.02-1.5 0-1.5 0l0 2.3l-.7 0zm.7-2.9c0 0 1.47-.04 1.5 0c.4 0 .8-.1 1-.3c.2-.2.3-.4.3-.7c0-.3-.1-.5-.2-.6c-.1-.2-.3-.3-.5-.4c-.1 0-.3 0-.6 0c-.04-.01-1.5 0-1.5 0l0 2zm4.2.2c0-.9.2-1.7.7-2.2c.5-.5 1.2-.8 1.9-.8c.6 0 1 .2 1.4.4c.4.2.8.6 1 1c.2.5.3 1 .3 1.5c0 .6-.1 1.1-.4 1.5c-.2.5-.5.8-.9 1c-.4.2-.9.4-1.4.4c-.5 0-.9-.2-1.4-.4c-.4-.3-.7-.6-.9-1c-.2-.5-.3-.9-.3-1.4zm.8 0c0 .6.1 1.2.5 1.6c.3.3.8.5 1.3.5c.6 0 1-.2 1.4-.5c.4-.4.5-1 .5-1.7c0-.4 0-.8-.2-1.2c-.1-.3-.4-.6-.7-.8c-.3-.1-.6-.2-.9-.2c-.6 0-1 .1-1.4.5c-.4.4-.5.9-.5 1.8zm6.3 2.7l-1.5-5.6l.8 0c0 0 .81 3.66.8 3.7c.1.3.2.7.2 1.1c.2-.6.3-.9.3-1c-.01-.03 1-3.8 1-3.8l.9 0c0 0 .82 2.83.8 2.8c.2.7.4 1.4.4 2c.1-.4.2-.8.3-1.2c.03-.01.9-3.6.9-3.6l.7 0l-1.5 5.6l-.7 0c0 0-1.16-4.25-1.2-4.2c-.1-.4-.1-.6-.1-.7c-.1.3-.1.5-.2.7c.01-.05-1.2 4.2-1.2 4.2l-.7 0zm6.3 0l0-5.6l4 0l0 .7l-3.2 0l0 1.7l3 0l0 .6l-3 0l0 1.9l3.4 0l0 .7l-4.2 0zm5.1 0l0-5.6c0 0 2.43.03 2.4 0c.5 0 .9.1 1.1.2c.3.1.5.3.7.5c.1.3.2.5.2.8c0 .4-.1.8-.4 1c-.2.3-.6.5-1.2.5c.2.1.4.2.5.3c.2.2.4.5.6.8c-.02-.04.9 1.5.9 1.5l-.9 0c0 0-.71-1.19-.7-1.2c-.2-.3-.4-.6-.5-.7c-.2-.2-.3-.3-.4-.4c-.1-.1-.2-.1-.3-.2c-.1 0-.3 0-.4 0c-.05.01-.9 0-.9 0l0 2.5l-.7 0zm.7-3.1c0 0 1.58-.03 1.6 0c.3 0 .6-.1.8-.1c.2-.1.3-.2.4-.4c.1-.1.1-.3.1-.5c0-.2-.1-.4-.2-.6c-.2-.2-.5-.3-.9-.3c-.04.05-1.8 0-1.8 0l0 1.9zm7 3.1l0-5.6l.7 0l2.9 4.4l0-4.4l.7 0l0 5.6l-.7 0l-2.9-4.4l0 4.4l-.7 0zm5.6 0l0-5.6l4 0l0 .7l-3.3 0l0 1.7l3.1 0l0 .6l-3.1 0l0 1.9l3.4 0l0 .7l-4.1 0zm5 0l0-5.6l4 0l0 .7l-3.2 0l0 1.7l3 0l0 .6l-3 0l0 1.9l3.4 0l0 .7l-4.2 0zm5.1 0l0-5.6c0 0 1.87.03 1.9 0c.4 0 .7.1 1 .1c.3.1.5.2.8.4c.3.3.5.6.6 1c.2.3.2.8.2 1.3c0 .4 0 .8-.1 1.1c-.1.3-.2.6-.4.8c-.1.2-.3.4-.5.5c-.2.1-.4.2-.6.3c-.3 0-.6.1-.9.1c-.03-.04-2 0-2 0zm.7-.7c0 0 1.18.01 1.2 0c.3 0 .6 0 .8-.1c.2-.1.4-.2.5-.3c.2-.2.3-.4.4-.7c.1-.3.2-.6.2-1c0-.6-.1-1.1-.3-1.4c-.2-.3-.4-.5-.7-.6c-.2-.1-.5-.1-.9-.1c-.04-.01-1.2 0-1.2 0l0 4.2zm4.9.7l0-5.6l4 0l0 .7l-3.3 0l0 1.7l3.1 0l0 .6l-3.1 0l0 1.9l3.4 0l0 .7l-4.1 0zm5 0l0-5.6c0 0 1.9.03 1.9 0c.4 0 .8.1 1 .1c.3.1.6.2.8.4c.3.3.5.6.7 1c.1.3.2.8.2 1.3c0 .4-.1.8-.2 1.1c-.1.3-.2.6-.4.8c-.1.2-.3.4-.5.5c-.1.1-.4.2-.6.3c-.3 0-.6.1-.9.1c-.01-.04-2 0-2 0zm.7-.7c0 0 1.21.01 1.2 0c.4 0 .7 0 .9-.1c.2-.1.3-.2.5-.3c.1-.2.3-.4.4-.7c.1-.3.1-.6.1-1c0-.6-.1-1.1-.3-1.4c-.2-.3-.4-.5-.7-.6c-.2-.1-.5-.1-.9-.1c-.01-.01-1.2 0-1.2 0l0 4.2zm8.4.7l0-4.9l-1.8 0l0-.7l4.4 0l0 .7l-1.8 0l0 4.9l-.8 0zm2.9-2.7c0-.9.2-1.7.7-2.2c.5-.5 1.1-.8 1.9-.8c.5 0 1 .2 1.4.4c.4.2.7.6.9 1c.3.5.4 1 .4 1.5c0 .6-.2 1.1-.4 1.5c-.2.5-.5.8-.9 1c-.5.2-.9.4-1.4.4c-.5 0-1-.2-1.4-.4c-.4-.3-.7-.6-.9-1c-.2-.5-.3-.9-.3-1.4zm.7 0c0 .6.2 1.2.6 1.6c.3.3.8.5 1.3.5c.6 0 1-.2 1.4-.5c.3-.4.5-1 .5-1.7c0-.4-.1-.8-.2-1.2c-.2-.3-.4-.6-.7-.8c-.3-.1-.6-.2-1-.2c-.5 0-.9.1-1.3.5c-.4.4-.6.9-.6 1.8z" stroke="none" fill="#fff"/></g><g id="Polygon70235"><path d="m.6 14.9l0-5.5l4 0l0 .6l-3.3 0l0 1.7l3.1 0l0 .7l-3.1 0l0 1.8l3.4 0l0 .7l-4.1 0zm9.2-.6c.3.2.6.4.9.5c0 0-.2.5-.2.5c-.4-.1-.8-.3-1.2-.7c-.4.3-.9.4-1.4.4c-.5 0-.9-.1-1.3-.4c-.4-.2-.7-.6-1-1c-.2-.4-.3-.9-.3-1.5c0-.5.1-1 .3-1.5c.3-.4.6-.7 1-1c.4-.2.8-.3 1.4-.3c.5 0 .9.1 1.3.3c.4.3.8.6 1 1c.2.5.3 1 .3 1.5c0 .5-.1.9-.2 1.3c-.2.3-.4.6-.6.9zm-1.7-.9c.5.1.8.3 1.1.5c.4-.4.6-1 .6-1.8c0-.4 0-.8-.2-1.1c-.1-.4-.4-.6-.7-.8c-.3-.2-.6-.3-.9-.3c-.6 0-1 .2-1.4.6c-.4.3-.5.9-.5 1.6c0 .7.1 1.3.5 1.7c.3.4.8.6 1.4.6c.2 0 .5-.1.7-.2c-.2-.1-.5-.2-.7-.3c0 0 .1-.5.1-.5zm7.1-4l.7 0c0 0 .01 3.16 0 3.2c0 .5-.1 1-.2 1.3c-.1.3-.3.6-.7.8c-.3.2-.7.3-1.2.3c-.6 0-1-.1-1.3-.3c-.3-.2-.6-.4-.7-.8c-.2-.3-.2-.8-.2-1.3c-.04-.04 0-3.2 0-3.2l.7 0c0 0-.01 3.16 0 3.2c0 .4 0 .8.1 1c.1.2.3.4.5.5c.2.2.5.2.8.2c.5 0 .9-.1 1.1-.3c.3-.3.4-.8.4-1.4c-.02-.04 0-3.2 0-3.2zm2 5.5l0-5.5l.7 0l0 5.5l-.7 0zm2 0l0-5.5c0 0 2.11-.04 2.1 0c.4 0 .7 0 .9 0c.2.1.5.1.6.3c.2.1.4.3.5.5c.1.2.1.5.1.8c0 .4-.1.8-.4 1.2c-.3.3-.8.4-1.6.4c-.02.05-1.4 0-1.4 0l0 2.3l-.8 0zm.8-2.9c0 0 1.39-.01 1.4 0c.5 0 .8-.1 1-.3c.2-.1.3-.4.3-.7c0-.2-.1-.4-.2-.6c-.1-.2-.3-.3-.4-.3c-.2-.1-.4-.1-.7-.1c-.03.02-1.4 0-1.4 0l0 2zm4.3 2.9l0-5.5l1.1 0c0 0 1.27 3.88 1.3 3.9c.1.3.2.6.2.8c.1-.2.2-.5.3-.9c.03.01 1.4-3.8 1.4-3.8l.9 0l0 5.5l-.7 0l0-4.6l-1.6 4.6l-.6 0l-1.6-4.7l0 4.7l-.7 0zm6.5 0l0-5.5l4 0l0 .6l-3.3 0l0 1.7l3.1 0l0 .7l-3.1 0l0 1.8l3.4 0l0 .7l-4.1 0zm5 0l0-5.5l.8 0l2.9 4.3l0-4.3l.7 0l0 5.5l-.8 0l-2.9-4.4l0 4.4l-.7 0zm6.9 0l0-4.9l-1.8 0l0-.6l4.4 0l0 .6l-1.8 0l0 4.9l-.8 0zm5.6 0l0-5.5l.8 0l0 5.5l-.8 0zm1.8-1.8c0 0 .7 0 .7 0c0 .2.1.5.2.6c.1.2.3.4.5.5c.3.1.6.1.9.1c.3 0 .5 0 .7-.1c.2-.1.4-.2.5-.3c.1-.2.2-.3.2-.5c0-.2-.1-.3-.2-.5c-.1-.1-.3-.2-.5-.3c-.1 0-.5-.1-1-.3c-.5-.1-.8-.2-1-.3c-.3-.1-.5-.3-.6-.5c-.2-.2-.2-.5-.2-.7c0-.3.1-.5.2-.8c.2-.2.4-.4.7-.5c.3-.2.7-.2 1-.2c.4 0 .8 0 1.1.2c.3.1.6.3.7.6c.2.2.3.5.3.8c0 0-.7.1-.7.1c0-.4-.2-.6-.4-.8c-.2-.2-.5-.3-.9-.3c-.5 0-.8.1-1 .3c-.2.1-.3.3-.3.5c0 .2.1.4.2.5c.1.2.5.3 1.1.4c.6.2 1 .3 1.2.4c.3.1.6.3.7.5c.2.3.3.5.3.8c0 .3-.1.6-.3.9c-.2.2-.4.4-.7.6c-.3.1-.7.2-1.1.2c-.5 0-.9-.1-1.2-.2c-.4-.2-.6-.4-.8-.7c-.2-.3-.3-.6-.3-1zm7.5 1.8l0-5.5l4 0l0 .6l-3.2 0l0 1.7l3 0l0 .7l-3 0l0 1.8l3.4 0l0 .7l-4.2 0zm9.2-.6c.3.2.6.4.9.5c0 0-.2.5-.2.5c-.4-.1-.8-.3-1.2-.7c-.4.3-.8.4-1.3.4c-.5 0-1-.1-1.4-.4c-.4-.2-.7-.6-.9-1c-.3-.4-.4-.9-.4-1.5c0-.5.1-1 .4-1.5c.2-.4.5-.7.9-1c.4-.2.9-.3 1.4-.3c.5 0 .9.1 1.4.3c.4.3.7.6.9 1c.2.5.3 1 .3 1.5c0 .5-.1.9-.2 1.3c-.1.3-.3.6-.6.9zm-1.6-.9c.4.1.7.3 1 .5c.4-.4.7-1 .7-1.8c0-.4-.1-.8-.3-1.1c-.1-.4-.3-.6-.6-.8c-.3-.2-.7-.3-1-.3c-.6 0-1 .2-1.4.6c-.3.3-.5.9-.5 1.6c0 .7.2 1.3.5 1.7c.4.4.8.6 1.4.6c.2 0 .5-.1.7-.2c-.2-.1-.5-.2-.7-.3c0 0 .2-.5.2-.5zm7-4l.7 0c0 0 .03 3.16 0 3.2c0 .5 0 1-.2 1.3c-.1.3-.3.6-.6.8c-.4.2-.8.3-1.3.3c-.5 0-1-.1-1.3-.3c-.3-.2-.6-.4-.7-.8c-.1-.3-.2-.8-.2-1.3c-.02-.04 0-3.2 0-3.2l.7 0c0 0 .01 3.16 0 3.2c0 .4.1.8.1 1c.1.2.3.4.5.5c.2.2.5.2.8.2c.5 0 .9-.1 1.2-.3c.2-.3.3-.8.3-1.4c0-.04 0-3.2 0-3.2zm2 5.5l0-5.5l.8 0l0 5.5l-.8 0zm3.6 0l-2.1-5.5l.8 0c0 0 1.41 3.98 1.4 4c.1.3.2.6.3.9c.1-.3.2-.6.3-.9c0-.02 1.5-4 1.5-4l.7 0l-2.1 5.5l-.8 0zm2.6 0l2.1-5.5l.8 0l2.2 5.5l-.8 0l-.6-1.7l-2.4 0l-.6 1.7l-.7 0zm1.6-2.3l1.8 0c0 0-.54-1.51-.5-1.5c-.2-.5-.3-.9-.4-1.2c-.1.4-.2.8-.3 1.1c-.03 0-.6 1.6-.6 1.6zm4.2 2.3l0-5.5l.7 0l0 4.8l2.7 0l0 .7l-3.4 0zm4.2 0l0-5.5l4 0l0 .6l-3.2 0l0 1.7l3 0l0 .7l-3 0l0 1.8l3.4 0l0 .7l-4.2 0zm5.1 0l0-5.5l.7 0l2.9 4.3l0-4.3l.7 0l0 5.5l-.7 0l-2.9-4.4l0 4.4l-.7 0zm6.9 0l0-4.9l-1.8 0l0-.6l4.4 0l0 .6l-1.9 0l0 4.9l-.7 0z" stroke="none" fill="#fff"/></g><g id="Polygon70234"><path d="m.6 5.6l0-5.5c0 0 2.46-.01 2.5 0c.5 0 .8 0 1.1.1c.2.1.4.3.6.6c.2.2.2.5.2.8c0 .4-.1.7-.4 1c-.2.3-.6.4-1.1.5c.2.1.3.2.4.3c.2.2.4.4.6.7c.02.02 1 1.5 1 1.5l-.9 0c0 0-.77-1.13-.8-1.1c-.2-.4-.4-.6-.5-.8c-.1-.2-.3-.3-.4-.4c-.1 0-.2-.1-.3-.1c-.1 0-.2 0-.4 0c-.01-.03-.9 0-.9 0l0 2.4l-.7 0zm.7-3.1c0 0 1.61.03 1.6 0c.3 0 .6 0 .8-.1c.2 0 .3-.1.4-.3c.1-.2.2-.3.2-.5c0-.3-.1-.5-.3-.6c-.2-.2-.5-.3-.9-.3c-.01.01-1.8 0-1.8 0l0 1.8zm4.9 3.1l0-5.5l4 0l0 .6l-3.3 0l0 1.7l3.1 0l0 .7l-3.1 0l0 1.9l3.4 0l0 .6l-4.1 0zm8.9-1.9c0 0 .7.2.7.2c-.2.6-.4 1-.8 1.3c-.4.4-.9.5-1.5.5c-.6 0-1.1-.1-1.4-.3c-.4-.3-.7-.6-.9-1.1c-.2-.5-.3-1-.3-1.5c0-.6.1-1.1.3-1.5c.3-.4.6-.7 1-1c.4-.2.8-.3 1.3-.3c.6 0 1 .1 1.4.4c.4.3.7.7.8 1.2c0 0-.7.2-.7.2c-.1-.4-.3-.7-.6-.9c-.2-.2-.5-.3-.9-.3c-.4 0-.8.1-1.1.3c-.2.2-.4.5-.6.9c-.1.3-.1.6-.1 1c0 .5 0 .9.2 1.2c.1.4.3.7.6.8c.3.2.6.3 1 .3c.4 0 .7-.1 1-.4c.3-.2.5-.5.6-1zm2.9 1.9l0-2.3l-2.1-3.2l.9 0c0 0 1.07 1.66 1.1 1.7c.2.3.4.6.5.9c.2-.3.4-.6.6-1c.04.02 1.1-1.6 1.1-1.6l.9 0l-2.2 3.2l0 2.3l-.8 0zm7.2-1.9c0 0 .7.2.7.2c-.1.6-.4 1-.8 1.3c-.4.4-.9.5-1.5.5c-.6 0-1.1-.1-1.4-.3c-.4-.3-.7-.6-.9-1.1c-.2-.5-.3-1-.3-1.5c0-.6.1-1.1.4-1.5c.2-.4.5-.7.9-1c.4-.2.8-.3 1.3-.3c.6 0 1.1.1 1.4.4c.4.3.7.7.8 1.2c0 0-.7.2-.7.2c-.1-.4-.3-.7-.6-.9c-.2-.2-.5-.3-.9-.3c-.4 0-.8.1-1 .3c-.3.2-.5.5-.6.9c-.2.3-.2.6-.2 1c0 .5 0 .9.2 1.2c.1.4.3.7.6.8c.3.2.6.3 1 .3c.4 0 .7-.1 1-.4c.3-.2.5-.5.6-1zm1.6 1.9l0-5.5l.7 0l0 4.9l2.7 0l0 .6l-3.4 0zm4.2 0l0-5.5l4 0l0 .6l-3.2 0l0 1.7l3 0l0 .7l-3 0l0 1.9l3.4 0l0 .6l-4.2 0zm5.1 0l0-5.5c0 0 1.88-.01 1.9 0c.4 0 .7 0 1 .1c.3 0 .5.2.8.4c.3.2.5.5.6.9c.2.4.2.8.2 1.3c0 .4 0 .8-.1 1.1c-.1.4-.2.6-.4.9c-.1.2-.3.3-.5.5c-.2.1-.4.2-.6.2c-.3.1-.6.1-.9.1c-.03.02-2 0-2 0zm.7-.6c0 0 1.18-.03 1.2 0c.3 0 .6-.1.8-.1c.3-.1.4-.2.5-.3c.2-.2.3-.4.4-.7c.1-.3.2-.7.2-1.1c0-.6-.1-1-.3-1.3c-.2-.3-.4-.5-.7-.6c-.2-.1-.5-.2-.9-.2c-.03.05-1.2 0-1.2 0l0 4.3zm8.4.6l0-4.9l-1.8 0l0-.6l4.4 0l0 .6l-1.9 0l0 4.9l-.7 0zm3.3 0l0-5.5l4 0l0 .6l-3.3 0l0 1.7l3.1 0l0 .7l-3.1 0l0 1.9l3.4 0l0 .6l-4.1 0zm8.9-1.9c0 0 .7.2.7.2c-.1.6-.4 1-.8 1.3c-.4.4-.9.5-1.5.5c-.6 0-1.1-.1-1.4-.3c-.4-.3-.7-.6-.9-1.1c-.2-.5-.3-1-.3-1.5c0-.6.1-1.1.4-1.5c.2-.4.5-.7.9-1c.4-.2.8-.3 1.3-.3c.6 0 1.1.1 1.4.4c.4.3.7.7.8 1.2c0 0-.7.2-.7.2c-.1-.4-.3-.7-.6-.9c-.2-.2-.5-.3-.9-.3c-.4 0-.8.1-1 .3c-.3.2-.5.5-.6.9c-.2.3-.2.6-.2 1c0 .5 0 .9.2 1.2c.1.4.3.7.6.8c.3.2.6.3 1 .3c.4 0 .7-.1 1-.4c.3-.2.5-.5.6-1zm1.6 1.9l0-5.5l.7 0l0 2.3l2.9 0l0-2.3l.7 0l0 5.5l-.7 0l0-2.6l-2.9 0l0 2.6l-.7 0zm5.6 0l0-5.5l.7 0l2.9 4.3l0-4.3l.7 0l0 5.5l-.7 0l-2.9-4.3l0 4.3l-.7 0zm5.4-2.7c0-.9.2-1.6.7-2.1c.5-.5 1.1-.8 1.9-.8c.5 0 1 .1 1.4.4c.4.2.7.5.9 1c.2.4.3.9.3 1.5c0 .5-.1 1-.3 1.5c-.2.4-.5.7-1 1c-.4.2-.8.3-1.3.3c-.5 0-1-.1-1.4-.4c-.4-.2-.7-.6-.9-1c-.2-.4-.3-.9-.3-1.4zm.7 0c0 .7.2 1.2.5 1.6c.4.4.9.6 1.4.6c.5 0 1-.2 1.4-.6c.3-.4.5-.9.5-1.6c0-.5-.1-.9-.2-1.2c-.2-.4-.4-.6-.7-.8c-.3-.2-.6-.3-1-.3c-.5 0-1 .2-1.3.6c-.4.3-.6.9-.6 1.7zm5.5 2.7l0-5.5l.7 0l0 4.9l2.8 0l0 .6l-3.5 0zm3.8-2.7c0-.9.2-1.6.7-2.1c.5-.5 1.2-.8 1.9-.8c.6 0 1 .1 1.4.4c.4.2.7.5 1 1c.2.4.3.9.3 1.5c0 .5-.1 1-.4 1.5c-.2.4-.5.7-.9 1c-.4.2-.9.3-1.4.3c-.5 0-.9-.1-1.4-.4c-.4-.2-.7-.6-.9-1c-.2-.4-.3-.9-.3-1.4zm.8 0c0 .7.1 1.2.5 1.6c.3.4.8.6 1.3.6c.6 0 1-.2 1.4-.6c.4-.4.5-.9.5-1.6c0-.5 0-.9-.2-1.2c-.1-.4-.4-.6-.7-.8c-.3-.2-.6-.3-.9-.3c-.6 0-1 .2-1.4.6c-.4.3-.5.9-.5 1.7zm8 .6l0-.7l2.3 0c0 0 .04 2.05 0 2.1c-.3.2-.7.5-1.1.6c-.4.1-.7.2-1.2.2c-.5 0-1-.1-1.4-.3c-.5-.3-.8-.6-1-1c-.3-.5-.4-1-.4-1.5c0-.6.1-1.1.4-1.5c.2-.5.5-.8.9-1.1c.5-.2.9-.3 1.5-.3c.4 0 .8.1 1.1.2c.3.1.6.3.7.5c.2.3.4.6.5.9c0 0-.7.2-.7.2c-.1-.3-.2-.5-.3-.6c-.1-.2-.3-.3-.5-.4c-.3-.1-.5-.2-.8-.2c-.3 0-.6.1-.9.2c-.2.1-.4.2-.6.4c-.1.1-.2.3-.3.5c-.2.4-.2.7-.2 1.1c0 .5.1.9.2 1.3c.2.3.4.6.8.7c.3.2.6.3 1 .3c.3 0 .6-.1.9-.2c.3-.1.6-.3.7-.4c.02-.02 0-1 0-1l-1.6 0zm4.7 2.1l0-2.3l-2.2-3.2l.9 0c0 0 1.12 1.66 1.1 1.7c.2.3.4.6.6.9c.1-.3.3-.6.6-1c-.02.02 1.1-1.6 1.1-1.6l.8 0l-2.2 3.2l0 2.3l-.7 0z" stroke="none" fill="#fff"/></g></svg>