<?xml version="1.0" standalone="no"?>
<!DOCTYPE svg PUBLIC "-//W3C//DTD SVG 1.1//EN" "http://www.w3.org/Graphics/SVG/1.1/DTD/svg11.dtd">
<svg xmlns="http://www.w3.org/2000/svg" version="1.1" width="46px" height="40.4px" viewBox="0 -4 46 40.4" style="top:-4px">
  <desc>OF OFFICES</desc>
  <defs/>
  <g id="Polygon64722">
    <path d="M 0.6 14.6 C 0.6 13.5 0.9 12.6 1.5 12 C 2.1 11.4 2.8 11.1 3.8 11.1 C 4.4 11.1 4.9 11.2 5.4 11.5 C 5.9 11.8 6.3 12.2 6.5 12.7 C 6.8 13.2 6.9 13.8 6.9 14.5 C 6.9 15.1 6.8 15.7 6.5 16.3 C 6.2 16.8 5.9 17.2 5.4 17.5 C 4.9 17.7 4.3 17.9 3.8 17.9 C 3.1 17.9 2.6 17.7 2.1 17.4 C 1.6 17.1 1.2 16.7 1 16.2 C 0.7 15.7 0.6 15.1 0.6 14.6 Z M 1.5 14.6 C 1.5 15.4 1.7 16 2.1 16.4 C 2.6 16.9 3.1 17.1 3.8 17.1 C 4.4 17.1 5 16.9 5.4 16.4 C 5.8 16 6 15.3 6 14.5 C 6 13.9 5.9 13.5 5.7 13.1 C 5.6 12.7 5.3 12.4 4.9 12.1 C 4.6 11.9 4.2 11.8 3.8 11.8 C 3.2 11.8 2.6 12 2.2 12.4 C 1.7 12.9 1.5 13.6 1.5 14.6 Z M 8.4 17.8 L 8.4 11.2 L 12.9 11.2 L 12.9 11.9 L 9.3 11.9 L 9.3 14 L 12.4 14 L 12.4 14.8 L 9.3 14.8 L 9.3 17.8 L 8.4 17.8 Z M 14.4 17.8 L 14.4 11.2 L 18.8 11.2 L 18.8 11.9 L 15.2 11.9 L 15.2 14 L 18.3 14 L 18.3 14.8 L 15.2 14.8 L 15.2 17.8 L 14.4 17.8 Z M 20.4 17.8 L 20.4 11.2 L 21.3 11.2 L 21.3 17.8 L 20.4 17.8 Z M 27.9 15.5 C 27.9 15.5 28.7 15.7 28.7 15.7 C 28.6 16.4 28.2 16.9 27.7 17.3 C 27.3 17.7 26.7 17.9 26 17.9 C 25.3 17.9 24.7 17.7 24.3 17.4 C 23.8 17.2 23.5 16.7 23.3 16.2 C 23 15.6 22.9 15.1 22.9 14.4 C 22.9 13.7 23 13.1 23.3 12.6 C 23.6 12.1 23.9 11.7 24.4 11.5 C 24.9 11.2 25.4 11.1 26 11.1 C 26.7 11.1 27.2 11.2 27.7 11.6 C 28.1 11.9 28.4 12.4 28.6 13 C 28.6 13 27.8 13.2 27.8 13.2 C 27.6 12.7 27.4 12.4 27.1 12.1 C 26.8 11.9 26.4 11.8 26 11.8 C 25.5 11.8 25.1 11.9 24.7 12.2 C 24.4 12.4 24.1 12.7 24 13.1 C 23.9 13.6 23.8 14 23.8 14.4 C 23.8 15 23.9 15.5 24 15.9 C 24.2 16.3 24.5 16.6 24.8 16.8 C 25.2 17 25.5 17.1 25.9 17.1 C 26.4 17.1 26.8 17 27.2 16.7 C 27.5 16.4 27.7 16 27.9 15.5 Z M 30.2 17.8 L 30.2 11.2 L 34.9 11.2 L 34.9 11.9 L 31 11.9 L 31 14 L 34.7 14 L 34.7 14.7 L 31 14.7 L 31 17 L 35.1 17 L 35.1 17.8 L 30.2 17.8 Z M 36.3 15.6 C 36.3 15.6 37.1 15.6 37.1 15.6 C 37.2 15.9 37.3 16.2 37.4 16.4 C 37.5 16.6 37.8 16.8 38.1 16.9 C 38.4 17 38.7 17.1 39.1 17.1 C 39.4 17.1 39.7 17 40 16.9 C 40.2 16.9 40.4 16.7 40.5 16.5 C 40.7 16.4 40.7 16.2 40.7 16 C 40.7 15.8 40.7 15.6 40.5 15.4 C 40.4 15.3 40.2 15.2 39.9 15 C 39.8 15 39.4 14.9 38.8 14.7 C 38.2 14.6 37.7 14.4 37.5 14.3 C 37.2 14.1 36.9 13.9 36.8 13.7 C 36.6 13.5 36.6 13.2 36.6 12.9 C 36.6 12.5 36.7 12.2 36.8 11.9 C 37 11.7 37.3 11.4 37.7 11.3 C 38 11.1 38.4 11.1 38.9 11.1 C 39.4 11.1 39.8 11.1 40.2 11.3 C 40.6 11.5 40.8 11.7 41 12 C 41.2 12.3 41.3 12.6 41.4 13 C 41.4 13 40.5 13.1 40.5 13.1 C 40.5 12.7 40.3 12.4 40.1 12.1 C 39.8 11.9 39.4 11.8 38.9 11.8 C 38.4 11.8 38 11.9 37.8 12.1 C 37.5 12.3 37.4 12.5 37.4 12.8 C 37.4 13.1 37.5 13.3 37.7 13.4 C 37.8 13.6 38.3 13.7 39 13.9 C 39.7 14 40.2 14.2 40.4 14.3 C 40.8 14.5 41.1 14.7 41.3 15 C 41.5 15.2 41.6 15.6 41.6 15.9 C 41.6 16.3 41.5 16.6 41.3 16.9 C 41.1 17.2 40.8 17.4 40.4 17.6 C 40 17.8 39.6 17.9 39.1 17.9 C 38.5 17.9 38 17.8 37.6 17.6 C 37.2 17.4 36.9 17.2 36.7 16.8 C 36.4 16.5 36.3 16.1 36.3 15.6 Z " stroke="none" fill="#ffffff"/>
  </g>
  <g id="Polygon64721">
    <path d="M 0.6 3.5 C 0.6 2.4 0.9 1.5 1.5 0.9 C 2.1 0.3 2.8 0 3.8 0 C 4.4 0 4.9 0.1 5.4 0.4 C 5.9 0.7 6.3 1.1 6.5 1.6 C 6.8 2.2 6.9 2.8 6.9 3.4 C 6.9 4.1 6.8 4.7 6.5 5.2 C 6.2 5.7 5.9 6.1 5.4 6.4 C 4.9 6.7 4.3 6.8 3.8 6.8 C 3.1 6.8 2.6 6.7 2.1 6.4 C 1.6 6.1 1.2 5.7 1 5.1 C 0.7 4.6 0.6 4.1 0.6 3.5 Z M 1.5 3.5 C 1.5 4.3 1.7 4.9 2.1 5.4 C 2.6 5.8 3.1 6.1 3.8 6.1 C 4.4 6.1 5 5.8 5.4 5.4 C 5.8 4.9 6 4.3 6 3.4 C 6 2.9 5.9 2.4 5.7 2 C 5.6 1.6 5.3 1.3 4.9 1.1 C 4.6 0.9 4.2 0.7 3.8 0.7 C 3.2 0.7 2.6 1 2.2 1.4 C 1.7 1.8 1.5 2.5 1.5 3.5 Z M 8.4 6.7 L 8.4 0.1 L 12.9 0.1 L 12.9 0.9 L 9.3 0.9 L 9.3 2.9 L 12.4 2.9 L 12.4 3.7 L 9.3 3.7 L 9.3 6.7 L 8.4 6.7 Z " stroke="none" fill="#ffffff"/>
  </g>
</svg>