<?xml version="1.0" standalone="no"?><!DOCTYPE svg PUBLIC "-//W3C//DTD SVG 1.1//EN" "http://www.w3.org/Graphics/SVG/1.1/DTD/svg11.dtd"><svg xmlns="http://www.w3.org/2000/svg" version="1.1" width="382.1px" height="55.4px" viewBox="0 -7 382.1 55.4" style="top:-7px"><desc>Office</desc><defs/><g id="Polygon69476"><path d="m1.2 9.1c0-2.8.7-5.1 2.3-6.7c1.5-1.6 3.5-2.4 5.9-2.4c1.6 0 3 .4 4.3 1.1c1.2.8 2.2 1.8 2.9 3.2c.7 1.4 1 2.9 1 4.6c0 1.7-.4 3.3-1.1 4.7c-.7 1.4-1.7 2.4-3 3.1c-1.2.7-2.6 1.1-4.1 1.1c-1.6 0-3.1-.4-4.4-1.2c-1.2-.8-2.2-1.9-2.9-3.2c-.6-1.4-.9-2.8-.9-4.3zm2.3 0c0 2.1.6 3.7 1.7 4.9c1.1 1.2 2.5 1.8 4.2 1.8c1.7 0 3.1-.6 4.2-1.8c1.1-1.2 1.6-2.9 1.6-5.1c0-1.4-.2-2.6-.7-3.7c-.4-1-1.1-1.8-2-2.4c-.9-.6-2-.9-3.1-.9c-1.6 0-3 .6-4.2 1.7c-1.1 1.1-1.7 3-1.7 5.5zm17.3 8.4l0-10.8l-1.9 0l0-1.7l1.9 0c0 0-.05-1.3 0-1.3c0-.8 0-1.5.2-1.9c.2-.5.5-1 1-1.3c.6-.3 1.3-.5 2.2-.5c.6 0 1.2.1 2 .2c0 0-.3 1.9-.3 1.9c-.5-.1-.9-.2-1.3-.2c-.6 0-1.1.2-1.3.4c-.3.3-.4.8-.4 1.6c-.05-.02 0 1.1 0 1.1l2.4 0l0 1.7l-2.4 0l0 10.8l-2.1 0zm6.7 0l0-10.8l-1.9 0l0-1.7l1.9 0c0 0-.02-1.18 0-1.2c0-1.2.2-2.2.8-2.8c.5-.7 1.3-1 2.5-1c.8 0 1.5.1 2.1.3c0 0-.3 1.8-.3 1.8c-.4-.1-.8-.2-1.1-.2c-.7 0-1.2.2-1.5.5c-.3.3-.4.9-.4 1.8c-.01.02 0 .8 0 .8l2.4 0l0 1.7l-2.4 0l0 10.8l-2.1 0zm6.1-14.8l0-2.4l2.1 0l0 2.4l-2.1 0zm0 14.8l0-12.5l2.1 0l0 12.5l-2.1 0zm13.4-4.6c0 0 2.1.3 2.1.3c-.2 1.4-.8 2.5-1.7 3.3c-1 .8-2.1 1.3-3.5 1.3c-1.7 0-3-.6-4.1-1.7c-1-1.1-1.5-2.7-1.5-4.8c0-1.3.2-2.5.6-3.5c.5-1 1.2-1.8 2.1-2.3c.9-.5 1.9-.8 2.9-.8c1.4 0 2.5.4 3.4 1.1c.8.7 1.4 1.6 1.6 2.9c0 0-2 .3-2 .3c-.2-.8-.6-1.5-1.1-1.9c-.5-.4-1.1-.6-1.8-.6c-1 0-1.9.4-2.6 1.1c-.6.8-1 2-1 3.6c0 1.7.4 2.9 1 3.7c.6.7 1.5 1.1 2.5 1.1c.8 0 1.5-.2 2.1-.7c.5-.5.9-1.3 1-2.4zm12.4.6c0 0 2.2.2 2.2.2c-.3 1.3-1 2.3-1.9 3c-.9.7-2.1 1.1-3.6 1.1c-1.8 0-3.2-.6-4.3-1.7c-1.1-1.1-1.6-2.7-1.6-4.7c0-2.1.6-3.8 1.6-4.9c1.1-1.2 2.5-1.8 4.2-1.8c1.7 0 3.1.6 4.1 1.7c1.1 1.2 1.6 2.8 1.6 4.8c0 .2 0 .3 0 .6c0 0-9.3 0-9.3 0c.1 1.4.5 2.4 1.2 3.1c.6.8 1.5 1.1 2.6 1.1c.7 0 1.4-.2 1.9-.6c.6-.4 1-1 1.3-1.9zm-6.9-3.4c0 0 7 0 7 0c-.1-1.1-.4-1.9-.8-2.4c-.7-.8-1.6-1.2-2.6-1.2c-1 0-1.8.3-2.5 1c-.7.6-1 1.5-1.1 2.6z" stroke="none" fill="#003a5c"/></g></svg>