<?xml version="1.0" standalone="no"?><!DOCTYPE svg PUBLIC "-//W3C//DTD SVG 1.1//EN" "http://www.w3.org/Graphics/SVG/1.1/DTD/svg11.dtd"><svg xmlns="http://www.w3.org/2000/svg" version="1.1" width="84px" height="36.8px" viewBox="0 -4 84 36.8" style="top:-4px"><desc>Shower &amp; Locker Facilities</desc><defs/><g id="Polygon69323"><path d="m.8 20.8l0-7.7l1 0l0 6.8l3.8 0l0 .9l-4.8 0zm5.4-2.8c0-1 .3-1.8.9-2.3c.5-.4 1.1-.6 1.7-.6c.8 0 1.4.2 1.9.8c.5.5.8 1.2.8 2c0 .8-.1 1.3-.4 1.7c-.2.5-.5.8-.9 1c-.4.2-.9.3-1.4.3c-.7 0-1.4-.2-1.9-.7c-.4-.5-.7-1.2-.7-2.2zm1 0c0 .7.2 1.3.5 1.6c.3.4.7.6 1.1.6c.5 0 .9-.2 1.2-.6c.3-.3.5-.9.5-1.6c0-.7-.2-1.2-.5-1.6c-.3-.3-.7-.5-1.2-.5c-.4 0-.8.2-1.1.5c-.3.4-.5.9-.5 1.6zm9 .8c0 0 .9.1.9.1c-.1.6-.3 1.1-.7 1.5c-.5.4-1 .5-1.6.5c-.8 0-1.4-.2-1.8-.7c-.5-.5-.7-1.2-.7-2.2c0-.6.1-1.1.3-1.5c.2-.5.5-.8.9-1.1c.4-.2.8-.3 1.3-.3c.6 0 1.1.1 1.5.5c.4.3.6.7.7 1.3c0 0-.9.1-.9.1c-.1-.4-.2-.6-.4-.8c-.3-.2-.5-.3-.9-.3c-.4 0-.8.1-1.1.5c-.3.3-.5.9-.5 1.6c0 .8.2 1.3.5 1.7c.3.3.6.5 1.1.5c.4 0 .7-.1.9-.4c.3-.2.4-.6.5-1zm1.8 2l0-7.7l.9 0l0 4.4l2.3-2.3l1.2 0l-2.1 2.1l2.3 3.5l-1.2 0l-1.8-2.8l-.7.6l0 2.2l-.9 0zm8.9-1.8c0 0 .9.1.9.1c-.1.6-.4 1.1-.8 1.4c-.4.3-1 .4-1.6.4c-.8 0-1.5-.2-2-.7c-.4-.5-.7-1.2-.7-2.1c0-1 .3-1.7.7-2.2c.5-.5 1.2-.8 1.9-.8c.8 0 1.4.3 1.9.8c.4.5.7 1.2.7 2.1c0 .1 0 .2 0 .3c0 0-4.2 0-4.2 0c0 .6.2 1.1.5 1.4c.3.3.7.5 1.2.5c.3 0 .6-.1.9-.3c.2-.2.4-.5.6-.9zm-3.2-1.5c0 0 3.2 0 3.2 0c-.1-.5-.2-.8-.4-1.1c-.3-.3-.7-.5-1.2-.5c-.4 0-.8.1-1.1.4c-.3.3-.4.7-.5 1.2zm5.2 3.3l0-5.6l.9 0c0 0 0 .87 0 .9c.2-.4.4-.7.6-.8c.2-.1.4-.2.6-.2c.3 0 .7.1 1 .3c0 0-.3.9-.3.9c-.3-.2-.5-.2-.7-.2c-.2 0-.4 0-.6.2c-.2.1-.3.3-.3.5c-.1.3-.2.7-.2 1.1c0-.01 0 2.9 0 2.9l-1 0zm6.8 0l0-7.7l5.2 0l0 .9l-4.1 0l0 2.4l3.6 0l0 .9l-3.6 0l0 3.5l-1.1 0zm9.9 0c-.1-.2-.2-.4-.2-.7c-.3.3-.7.5-1 .7c-.3.1-.7.1-1 .1c-.7 0-1.1-.1-1.5-.4c-.3-.3-.5-.7-.5-1.2c0-.2.1-.5.2-.7c.2-.2.3-.4.5-.6c.2-.1.4-.2.7-.3c.2 0 .5-.1.8-.1c.8-.1 1.4-.2 1.7-.3c0-.2 0-.2 0-.3c0-.4 0-.6-.2-.8c-.3-.2-.6-.3-1.1-.3c-.5 0-.8.1-1 .2c-.2.2-.4.4-.5.8c0 0-.9-.1-.9-.1c.1-.4.2-.7.4-.9c.2-.3.5-.5.9-.6c.3-.1.7-.2 1.2-.2c.5 0 .9.1 1.2.2c.3.1.5.2.7.4c.1.2.2.4.3.6c0 .2 0 .5 0 .9c0 0 0 1.3 0 1.3c0 .9 0 1.4.1 1.7c0 .2.1.4.2.6c0 .02-1 0-1 0c0 0 .01.02 0 0zm-.3-2.8c-.3.2-.8.3-1.5.4c-.4 0-.7.1-.8.2c-.2 0-.3.1-.4.3c-.1.1-.1.3-.1.4c0 .3 0 .5.2.7c.2.1.5.2.9.2c.3 0 .7-.1 1-.2c.2-.2.5-.4.6-.7c.1-.2.1-.5.1-.9c0 0 0-.4 0-.4zm6 .8c0 0 .9.1.9.1c-.1.6-.3 1.1-.8 1.5c-.4.4-.9.5-1.5.5c-.8 0-1.4-.2-1.9-.7c-.4-.5-.7-1.2-.7-2.2c0-.6.1-1.1.3-1.5c.2-.5.5-.8 1-1.1c.4-.2.8-.3 1.3-.3c.6 0 1.1.1 1.5.5c.4.3.6.7.7 1.3c0 0-.9.1-.9.1c-.1-.4-.2-.6-.5-.8c-.2-.2-.5-.3-.8-.3c-.4 0-.8.1-1.1.5c-.3.3-.5.9-.5 1.6c0 .8.2 1.3.5 1.7c.2.3.6.5 1.1.5c.4 0 .7-.1.9-.4c.3-.2.4-.6.5-1zm1.8-4.6l0-1.1l.9 0l0 1.1l-.9 0zm0 6.6l0-5.6l.9 0l0 5.6l-.9 0zm2.3 0l0-7.7l.9 0l0 7.7l-.9 0zm2.3-6.6l0-1.1l.9 0l0 1.1l-.9 0zm0 6.6l0-5.6l.9 0l0 5.6l-.9 0zm3.9-.8c.1 0 .2 0 .4 0c0 0 .2.8.2.8c-.3.1-.5.1-.8.1c-.3 0-.6-.1-.8-.2c-.2-.1-.3-.2-.4-.4c0-.2-.1-.5-.1-1.1c.02-.02 0-3.2 0-3.2l-.7 0l0-.8l.7 0l0-1.4l1-.5l0 1.9l.9 0l0 .8l-.9 0c0 0-.03 3.24 0 3.2c0 .3 0 .5 0 .6c.1 0 .1.1.2.1c.1.1.2.1.3.1c0 0 0 0 0 0zm1.3-5.8l0-1.1l1 0l0 1.1l-1 0zm0 6.6l0-5.6l1 0l0 5.6l-1 0zm6.2-1.8c0 0 1 .1 1 .1c-.2.6-.5 1.1-.9 1.4c-.4.3-.9.4-1.6.4c-.8 0-1.5-.2-1.9-.7c-.5-.5-.8-1.2-.8-2.1c0-1 .3-1.7.8-2.2c.5-.5 1.1-.8 1.9-.8c.7 0 1.3.3 1.8.8c.5.5.7 1.2.7 2.1c0 .1 0 .2 0 .3c0 0-4.2 0-4.2 0c.1.6.2 1.1.5 1.4c.4.3.7.5 1.2.5c.4 0 .7-.1.9-.3c.2-.2.4-.5.6-.9zm-3.1-1.5c0 0 3.1 0 3.1 0c0-.5-.2-.8-.4-1.1c-.3-.3-.7-.5-1.1-.5c-.5 0-.8.1-1.1.4c-.3.3-.5.7-.5 1.2zm4.8 1.7c0 0 1-.2 1-.2c0 .4.2.7.4.9c.3.2.6.3 1 .3c.5 0 .8-.1 1-.3c.2-.2.3-.4.3-.6c0-.2-.1-.4-.3-.5c-.1-.1-.4-.2-.9-.4c-.7-.1-1.2-.3-1.5-.4c-.3-.1-.5-.3-.6-.5c-.1-.3-.2-.5-.2-.8c0-.2.1-.5.2-.7c.1-.2.2-.4.4-.5c.2-.1.4-.2.6-.3c.3-.1.6-.1.9-.1c.4 0 .8.1 1.1.2c.3.1.6.3.7.5c.2.2.3.5.4.9c0 0-1 .1-1 .1c0-.3-.1-.5-.3-.7c-.2-.1-.5-.2-.9-.2c-.4 0-.7 0-.9.2c-.2.1-.3.3-.3.5c0 .1 0 .2.1.3c.1.1.2.2.4.3c.1 0 .4.1.8.2c.7.2 1.2.4 1.4.5c.3.1.5.2.7.5c.1.2.2.5.2.8c0 .3-.1.6-.3.9c-.2.3-.4.5-.8.6c-.3.2-.7.2-1.2.2c-.7 0-1.3-.1-1.6-.4c-.4-.3-.7-.8-.8-1.3z" stroke="none" fill="#ffffff"/></g><g id="Polygon69322"><path d="m.5 5.4c0 0 1-.1 1-.1c0 .4.1.7.3.9c.1.3.4.5.7.6c.4.2.8.3 1.2.3c.4 0 .8-.1 1.1-.2c.3-.1.5-.3.6-.5c.2-.2.3-.4.3-.6c0-.3-.1-.5-.3-.7c-.1-.2-.3-.3-.7-.4c-.2-.1-.6-.2-1.3-.4c-.7-.2-1.2-.3-1.5-.5c-.4-.2-.7-.4-.8-.7c-.2-.3-.3-.6-.3-1c0-.4.1-.7.3-1.1c.2-.3.6-.6 1-.7c.4-.2.9-.3 1.4-.3c.6 0 1.1.1 1.5.3c.5.2.8.4 1 .8c.3.4.4.8.4 1.2c0 0-1 .1-1 .1c0-.5-.2-.9-.5-1.1c-.3-.3-.8-.4-1.4-.4c-.6 0-1 .1-1.3.3c-.3.3-.4.5-.4.9c0 .2.1.5.3.6c.2.2.7.4 1.5.6c.8.2 1.4.4 1.7.5c.5.2.8.5 1 .8c.2.3.3.7.3 1.1c0 .4-.1.8-.3 1.1c-.2.4-.6.7-1 .9c-.5.2-1 .3-1.5.3c-.7 0-1.3-.1-1.8-.3c-.5-.2-.8-.5-1.1-.9c-.3-.4-.4-.9-.4-1.4zm7.4 2.5l0-7.8l.9 0c0 0 0 2.81 0 2.8c.4-.5 1-.8 1.7-.8c.4 0 .8.1 1.1.3c.3.1.5.4.6.7c.1.2.2.7.2 1.2c.01.01 0 3.6 0 3.6l-.9 0c0 0-.03-3.59 0-3.6c0-.5-.1-.8-.3-1c-.2-.2-.5-.3-.9-.3c-.3 0-.6 0-.8.2c-.3.1-.4.3-.5.6c-.1.2-.2.6-.2 1c0 0 0 3.1 0 3.1l-.9 0zm5.5-2.8c0-1.1.3-1.8.9-2.3c.5-.5 1.1-.7 1.8-.7c.7 0 1.4.3 1.9.8c.4.5.7 1.2.7 2.1c0 .7-.1 1.3-.3 1.7c-.3.4-.6.7-1 .9c-.4.3-.8.4-1.3.4c-.8 0-1.4-.3-1.9-.8c-.5-.5-.8-1.2-.8-2.1zm1 0c0 .7.2 1.2.5 1.6c.3.3.7.5 1.2.5c.4 0 .8-.2 1.1-.5c.4-.4.5-.9.5-1.7c0-.7-.1-1.2-.5-1.5c-.3-.4-.7-.6-1.1-.6c-.5 0-.9.2-1.2.6c-.3.3-.5.8-.5 1.6zm6.3 2.8l-1.7-5.6l1 0l.8 3.2c0 0 .38 1.2.4 1.2c0-.1.1-.4.3-1.2c-.03.04.9-3.2.9-3.2l.9 0l.9 3.2l.3 1.1l.3-1.1l.9-3.2l1 0l-1.8 5.6l-1 0l-.9-3.4l-.2-.9l-1.1 4.3l-1 0zm10.4-1.8c0 0 1 .1 1 .1c-.2.6-.5 1-.9 1.3c-.4.3-.9.5-1.6.5c-.8 0-1.4-.3-1.9-.8c-.5-.5-.7-1.2-.7-2.1c0-.9.2-1.7.7-2.2c.5-.5 1.1-.8 1.9-.8c.7 0 1.3.3 1.8.8c.5.5.7 1.2.7 2.2c0 0 0 .1 0 .2c0 0-4.2 0-4.2 0c.1.6.2 1.1.6 1.4c.3.3.7.5 1.1.5c.4 0 .7-.1.9-.3c.3-.1.5-.4.6-.8zm-3.1-1.6c0 0 3.1 0 3.1 0c0-.4-.1-.8-.3-1c-.3-.4-.7-.6-1.2-.6c-.5 0-.8.2-1.1.5c-.3.2-.5.6-.5 1.1zm5.2 3.4l0-5.6l.8 0c0 0 .04.81 0 .8c.3-.4.5-.6.6-.8c.2-.1.4-.2.7-.2c.3 0 .6.1.9.3c0 0-.3.9-.3.9c-.2-.1-.5-.2-.7-.2c-.2 0-.4.1-.6.2c-.1.1-.2.3-.3.5c-.1.4-.2.7-.2 1.1c.04.03 0 3 0 3l-.9 0zm12.2.1c-.4-.2-.8-.6-1.2-1c-.3.3-.6.6-1 .7c-.4.2-.8.3-1.2.3c-.8 0-1.4-.3-1.9-.8c-.4-.4-.6-.9-.6-1.5c0-.4.2-.9.5-1.3c.3-.3.8-.7 1.4-1c-.4-.4-.6-.7-.7-1c-.1-.2-.2-.4-.2-.7c0-.4.2-.8.6-1.2c.3-.3.8-.5 1.3-.5c.6 0 1 .2 1.3.5c.4.3.5.7.5 1.2c0 .7-.5 1.3-1.4 1.8c0 0 1.4 1.8 1.4 1.8c.1-.3.2-.7.3-1.1c0 0 1 .2 1 .2c-.2.7-.4 1.3-.7 1.7c.4.5.8.9 1.2 1.2c.04-.01-.6.7-.6.7c0 0 0 .04 0 0zm-3.1-5.1c.4-.2.7-.4.8-.6c.1-.2.2-.4.2-.6c0-.3-.1-.5-.3-.7c-.2-.1-.4-.2-.6-.2c-.3 0-.5.1-.6.2c-.2.2-.3.4-.3.6c0 .2 0 .3.1.4c0 .1.1.3.3.4c0 0 .4.5.4.5zm1.3 3.3c0 0-1.7-2.2-1.7-2.2c-.5.4-.9.6-1.1.9c-.1.3-.2.5-.2.8c0 .3.1.6.3.9c.3.4.6.6 1.1.6c.3 0 .6-.1.9-.3c.3-.2.5-.4.7-.7z" stroke="none" fill="#ffffff"/></g></svg>