<?xml version="1.0" standalone="no"?>
<!DOCTYPE svg PUBLIC "-//W3C//DTD SVG 1.1//EN" "http://www.w3.org/Graphics/SVG/1.1/DTD/svg11.dtd">
<svg xmlns="http://www.w3.org/2000/svg" version="1.1" width="113px" height="74.6px" viewBox="0 -6 113 74.6" style="top:-6px">
  <desc>ESG Litigation Roadmap</desc>
  <defs/>
  <g id="Polygon61169">
    <path d="M 1.3 32.8 L 1.3 20.6 C 1.3 20.6 6.73 20.61 6.7 20.6 C 7.8 20.6 8.6 20.7 9.2 20.9 C 9.8 21.2 10.2 21.5 10.6 22.1 C 10.9 22.6 11.1 23.3 11.1 23.9 C 11.1 24.8 10.8 25.5 10.2 26.1 C 9.7 26.7 8.8 27.1 7.6 27.2 C 8.1 27.4 8.4 27.6 8.6 27.8 C 9.1 28.3 9.5 28.8 9.9 29.5 C 9.94 29.46 12.1 32.8 12.1 32.8 L 10 32.8 C 10 32.8 8.43 30.24 8.4 30.2 C 8 29.5 7.6 29 7.3 28.6 C 7 28.2 6.7 27.9 6.4 27.8 C 6.2 27.6 6 27.5 5.7 27.4 C 5.5 27.4 5.2 27.4 4.8 27.4 C 4.81 27.37 2.9 27.4 2.9 27.4 L 2.9 32.8 L 1.3 32.8 Z M 2.9 26 C 2.9 26 6.41 25.98 6.4 26 C 7.1 26 7.7 25.9 8.1 25.7 C 8.5 25.6 8.9 25.4 9.1 25 C 9.3 24.7 9.4 24.3 9.4 23.9 C 9.4 23.4 9.2 22.9 8.8 22.5 C 8.4 22.1 7.7 22 6.8 22 C 6.8 21.95 2.9 22 2.9 22 L 2.9 26 Z M 12.8 28.4 C 12.8 26.7 13.3 25.5 14.2 24.7 C 15 24.1 15.9 23.8 17 23.8 C 18.2 23.8 19.2 24.2 19.9 25 C 20.7 25.7 21.1 26.8 21.1 28.2 C 21.1 29.4 20.9 30.3 20.6 30.9 C 20.2 31.6 19.8 32.1 19.1 32.4 C 18.5 32.8 17.7 33 17 33 C 15.7 33 14.7 32.6 14 31.8 C 13.2 31 12.8 29.9 12.8 28.4 Z M 14.4 28.4 C 14.4 29.5 14.6 30.3 15.1 30.9 C 15.6 31.5 16.2 31.7 17 31.7 C 17.7 31.7 18.3 31.5 18.8 30.9 C 19.3 30.3 19.6 29.5 19.6 28.3 C 19.6 27.2 19.3 26.4 18.8 25.8 C 18.3 25.3 17.7 25 17 25 C 16.2 25 15.6 25.3 15.1 25.8 C 14.6 26.4 14.4 27.2 14.4 28.4 Z M 28.9 32.8 C 28.7 32.5 28.6 32.1 28.6 31.7 C 28.1 32.2 27.5 32.5 27 32.7 C 26.5 32.9 25.9 33 25.4 33 C 24.4 33 23.6 32.7 23.1 32.3 C 22.6 31.8 22.3 31.2 22.3 30.5 C 22.3 30 22.4 29.6 22.6 29.3 C 22.8 28.9 23.1 28.6 23.4 28.4 C 23.7 28.2 24.1 28 24.5 27.9 C 24.8 27.8 25.2 27.8 25.8 27.7 C 27 27.6 27.9 27.4 28.5 27.2 C 28.5 27 28.5 26.8 28.5 26.8 C 28.5 26.2 28.3 25.8 28.1 25.5 C 27.7 25.2 27.1 25 26.4 25 C 25.7 25 25.1 25.1 24.8 25.4 C 24.5 25.6 24.2 26.1 24.1 26.7 C 24.1 26.7 22.6 26.5 22.6 26.5 C 22.7 25.9 23 25.3 23.3 25 C 23.6 24.6 24 24.3 24.6 24.1 C 25.2 23.9 25.8 23.8 26.6 23.8 C 27.3 23.8 27.9 23.9 28.4 24 C 28.9 24.2 29.2 24.4 29.5 24.7 C 29.7 25 29.8 25.3 29.9 25.7 C 30 26 30 26.4 30 27.1 C 30 27.1 30 29.1 30 29.1 C 30 30.5 30 31.4 30.1 31.7 C 30.1 32.1 30.3 32.4 30.5 32.8 C 30.46 32.78 28.9 32.8 28.9 32.8 C 28.9 32.8 28.9 32.78 28.9 32.8 Z M 28.5 28.4 C 27.9 28.6 27.1 28.8 26 28.9 C 25.4 29 25 29.1 24.7 29.2 C 24.5 29.3 24.3 29.5 24.1 29.7 C 24 29.9 23.9 30.2 23.9 30.4 C 23.9 30.8 24.1 31.1 24.4 31.4 C 24.7 31.7 25.1 31.8 25.7 31.8 C 26.3 31.8 26.8 31.7 27.3 31.4 C 27.7 31.2 28 30.8 28.2 30.4 C 28.4 30.1 28.5 29.6 28.5 28.9 C 28.5 28.9 28.5 28.4 28.5 28.4 Z M 38 32.8 C 38 32.8 38.03 31.66 38 31.7 C 37.5 32.5 36.6 33 35.6 33 C 34.9 33 34.2 32.8 33.6 32.4 C 33 32 32.6 31.5 32.3 30.8 C 31.9 30.1 31.8 29.3 31.8 28.4 C 31.8 27.5 31.9 26.7 32.2 26 C 32.5 25.3 32.9 24.7 33.5 24.3 C 34.1 24 34.8 23.8 35.5 23.8 C 36 23.8 36.5 23.9 36.9 24.1 C 37.3 24.3 37.7 24.6 37.9 25 C 37.93 24.97 37.9 20.6 37.9 20.6 L 39.4 20.6 L 39.4 32.8 L 38 32.8 Z M 33.3 28.4 C 33.3 29.5 33.5 30.3 34 30.9 C 34.5 31.5 35.1 31.7 35.7 31.7 C 36.4 31.7 36.9 31.5 37.4 30.9 C 37.8 30.4 38.1 29.6 38.1 28.5 C 38.1 27.3 37.8 26.4 37.4 25.8 C 36.9 25.3 36.3 25 35.6 25 C 35 25 34.4 25.3 34 25.8 C 33.5 26.4 33.3 27.2 33.3 28.4 Z M 41.8 32.8 L 41.8 24 L 43.1 24 C 43.1 24 43.1 25.2 43.1 25.2 C 43.4 24.8 43.7 24.4 44.2 24.2 C 44.7 23.9 45.2 23.8 45.8 23.8 C 46.4 23.8 47 23.9 47.4 24.2 C 47.8 24.4 48.1 24.8 48.3 25.3 C 49 24.3 49.9 23.8 51 23.8 C 51.9 23.8 52.5 24 53 24.5 C 53.5 25 53.7 25.7 53.7 26.7 C 53.71 26.73 53.7 32.8 53.7 32.8 L 52.2 32.8 C 52.2 32.8 52.22 27.22 52.2 27.2 C 52.2 26.6 52.2 26.2 52.1 25.9 C 52 25.7 51.8 25.5 51.5 25.3 C 51.3 25.1 51 25.1 50.7 25.1 C 50 25.1 49.5 25.3 49.1 25.7 C 48.7 26.1 48.5 26.7 48.5 27.7 C 48.49 27.65 48.5 32.8 48.5 32.8 L 47 32.8 C 47 32.8 47 27.05 47 27 C 47 26.4 46.9 25.9 46.6 25.6 C 46.4 25.2 46 25.1 45.4 25.1 C 45 25.1 44.6 25.2 44.3 25.4 C 43.9 25.6 43.7 25.9 43.5 26.4 C 43.3 26.8 43.3 27.4 43.3 28.2 C 43.26 28.2 43.3 32.8 43.3 32.8 L 41.8 32.8 Z M 62 32.8 C 61.8 32.5 61.7 32.1 61.7 31.7 C 61.1 32.2 60.6 32.5 60.1 32.7 C 59.6 32.9 59 33 58.4 33 C 57.5 33 56.7 32.7 56.2 32.3 C 55.7 31.8 55.4 31.2 55.4 30.5 C 55.4 30 55.5 29.6 55.7 29.3 C 55.9 28.9 56.2 28.6 56.5 28.4 C 56.8 28.2 57.2 28 57.6 27.9 C 57.9 27.8 58.3 27.8 58.9 27.7 C 60.1 27.6 61 27.4 61.6 27.2 C 61.6 27 61.6 26.8 61.6 26.8 C 61.6 26.2 61.4 25.8 61.1 25.5 C 60.8 25.2 60.2 25 59.4 25 C 58.7 25 58.2 25.1 57.9 25.4 C 57.5 25.6 57.3 26.1 57.1 26.7 C 57.1 26.7 55.7 26.5 55.7 26.5 C 55.8 25.9 56 25.3 56.3 25 C 56.6 24.6 57.1 24.3 57.6 24.1 C 58.2 23.9 58.9 23.8 59.6 23.8 C 60.4 23.8 61 23.9 61.5 24 C 62 24.2 62.3 24.4 62.5 24.7 C 62.7 25 62.9 25.3 63 25.7 C 63 26 63.1 26.4 63.1 27.1 C 63.1 27.1 63.1 29.1 63.1 29.1 C 63.1 30.5 63.1 31.4 63.2 31.7 C 63.2 32.1 63.3 32.4 63.5 32.8 C 63.53 32.78 62 32.8 62 32.8 C 62 32.8 61.97 32.78 62 32.8 Z M 61.6 28.4 C 61 28.6 60.2 28.8 59.1 28.9 C 58.5 29 58.1 29.1 57.8 29.2 C 57.6 29.3 57.4 29.5 57.2 29.7 C 57.1 29.9 57 30.2 57 30.4 C 57 30.8 57.2 31.1 57.5 31.4 C 57.8 31.7 58.2 31.8 58.8 31.8 C 59.4 31.8 59.9 31.7 60.3 31.4 C 60.8 31.2 61.1 30.8 61.3 30.4 C 61.5 30.1 61.6 29.6 61.6 28.9 C 61.6 28.9 61.6 28.4 61.6 28.4 Z M 65.4 36.2 L 65.4 24 L 66.7 24 C 66.7 24 66.74 25.11 66.7 25.1 C 67.1 24.7 67.4 24.3 67.8 24.1 C 68.2 23.9 68.7 23.8 69.3 23.8 C 70 23.8 70.7 24 71.3 24.3 C 71.9 24.7 72.3 25.3 72.6 26 C 72.9 26.7 73 27.5 73 28.3 C 73 29.2 72.9 30 72.5 30.7 C 72.2 31.5 71.8 32 71.1 32.4 C 70.5 32.8 69.9 33 69.2 33 C 68.7 33 68.2 32.9 67.8 32.7 C 67.5 32.5 67.1 32.2 66.9 31.9 C 66.87 31.86 66.9 36.2 66.9 36.2 L 65.4 36.2 Z M 66.7 28.4 C 66.7 29.6 67 30.4 67.4 30.9 C 67.9 31.5 68.4 31.7 69.1 31.7 C 69.8 31.7 70.3 31.5 70.8 30.9 C 71.3 30.3 71.5 29.5 71.5 28.3 C 71.5 27.2 71.3 26.3 70.8 25.8 C 70.3 25.2 69.8 24.9 69.2 24.9 C 68.5 24.9 68 25.2 67.5 25.8 C 67 26.4 66.7 27.3 66.7 28.4 Z " stroke="none" fill="#003a5c"/>
  </g>
  <g id="Polygon61168">
    <path d="M 1.3 12.4 L 1.3 0.2 L 10.1 0.2 L 10.1 1.6 L 3 1.6 L 3 5.4 L 9.7 5.4 L 9.7 6.8 L 3 6.8 L 3 10.9 L 10.4 10.9 L 10.4 12.4 L 1.3 12.4 Z M 12.1 8.5 C 12.1 8.5 13.6 8.3 13.6 8.3 C 13.7 8.9 13.9 9.4 14.1 9.8 C 14.4 10.2 14.8 10.5 15.3 10.8 C 15.9 11 16.5 11.1 17.2 11.1 C 17.8 11.1 18.4 11 18.8 10.9 C 19.3 10.7 19.7 10.4 19.9 10.1 C 20.1 9.8 20.2 9.4 20.2 9.1 C 20.2 8.7 20.1 8.4 19.9 8.1 C 19.7 7.8 19.3 7.5 18.8 7.4 C 18.5 7.2 17.8 7 16.6 6.8 C 15.5 6.5 14.7 6.2 14.3 6 C 13.7 5.7 13.3 5.3 13 4.9 C 12.7 4.4 12.6 3.9 12.6 3.4 C 12.6 2.7 12.7 2.2 13.1 1.6 C 13.4 1.1 13.9 0.7 14.6 0.4 C 15.3 0.1 16 0 16.9 0 C 17.8 0 18.5 0.1 19.2 0.4 C 19.9 0.7 20.5 1.2 20.8 1.7 C 21.2 2.3 21.4 2.9 21.4 3.6 C 21.4 3.6 19.9 3.8 19.9 3.8 C 19.8 3 19.5 2.4 19 2 C 18.6 1.6 17.9 1.4 16.9 1.4 C 15.9 1.4 15.2 1.6 14.8 2 C 14.3 2.3 14.1 2.7 14.1 3.2 C 14.1 3.7 14.3 4 14.6 4.3 C 14.9 4.6 15.7 4.9 17 5.2 C 18.3 5.5 19.2 5.7 19.7 6 C 20.4 6.3 20.9 6.7 21.3 7.2 C 21.6 7.7 21.8 8.3 21.8 8.9 C 21.8 9.6 21.6 10.2 21.2 10.8 C 20.9 11.3 20.3 11.8 19.6 12.1 C 18.9 12.4 18.2 12.6 17.3 12.6 C 16.2 12.6 15.3 12.4 14.5 12.1 C 13.8 11.8 13.2 11.3 12.8 10.7 C 12.3 10 12.1 9.3 12.1 8.5 Z M 29.7 7.6 L 29.7 6.2 L 34.8 6.2 C 34.8 6.2 34.84 10.68 34.8 10.7 C 34 11.3 33.2 11.8 32.4 12.1 C 31.5 12.4 30.7 12.6 29.8 12.6 C 28.6 12.6 27.5 12.3 26.5 11.8 C 25.6 11.3 24.8 10.6 24.3 9.6 C 23.8 8.6 23.6 7.5 23.6 6.4 C 23.6 5.2 23.8 4.1 24.3 3 C 24.8 2 25.5 1.2 26.5 0.7 C 27.4 0.2 28.5 0 29.7 0 C 30.6 0 31.4 0.1 32.1 0.4 C 32.8 0.7 33.3 1.1 33.7 1.6 C 34.1 2.1 34.4 2.8 34.7 3.6 C 34.7 3.6 33.2 4 33.2 4 C 33 3.4 32.8 2.9 32.5 2.5 C 32.3 2.2 31.9 1.9 31.4 1.7 C 30.9 1.5 30.3 1.4 29.7 1.4 C 28.9 1.4 28.3 1.5 27.8 1.7 C 27.2 1.9 26.8 2.2 26.5 2.6 C 26.1 3 25.9 3.4 25.7 3.8 C 25.4 4.6 25.2 5.4 25.2 6.3 C 25.2 7.3 25.4 8.2 25.8 9 C 26.2 9.7 26.7 10.2 27.4 10.6 C 28.1 11 28.9 11.1 29.7 11.1 C 30.4 11.1 31.1 11 31.8 10.7 C 32.4 10.5 32.9 10.2 33.3 9.9 C 33.26 9.87 33.3 7.6 33.3 7.6 L 29.7 7.6 Z M 41.9 12.4 L 41.9 0.2 L 43.5 0.2 L 43.5 10.9 L 49.5 10.9 L 49.5 12.4 L 41.9 12.4 Z M 51.2 1.9 L 51.2 0.2 L 52.7 0.2 L 52.7 1.9 L 51.2 1.9 Z M 51.2 12.4 L 51.2 3.6 L 52.7 3.6 L 52.7 12.4 L 51.2 12.4 Z M 57.6 11.1 C 57.7 11.1 58 11.1 58.2 11 C 58.2 11 58.5 12.4 58.5 12.4 C 58 12.4 57.7 12.5 57.3 12.5 C 56.8 12.5 56.4 12.4 56.1 12.2 C 55.8 12.1 55.6 11.8 55.4 11.6 C 55.3 11.3 55.3 10.7 55.3 9.8 C 55.25 9.79 55.3 4.7 55.3 4.7 L 54.2 4.7 L 54.2 3.6 L 55.3 3.6 L 55.3 1.4 L 56.7 0.5 L 56.7 3.6 L 58.2 3.6 L 58.2 4.7 L 56.7 4.7 C 56.7 4.7 56.74 9.88 56.7 9.9 C 56.7 10.3 56.8 10.6 56.8 10.7 C 56.9 10.8 57 10.9 57.1 11 C 57.2 11.1 57.4 11.1 57.6 11.1 C 57.6 11.1 57.6 11.1 57.6 11.1 Z M 59.7 1.9 L 59.7 0.2 L 61.2 0.2 L 61.2 1.9 L 59.7 1.9 Z M 59.7 12.4 L 59.7 3.6 L 61.2 3.6 L 61.2 12.4 L 59.7 12.4 Z M 63.2 13.1 C 63.2 13.1 64.7 13.3 64.7 13.3 C 64.7 13.8 64.9 14.1 65.2 14.3 C 65.5 14.6 66 14.7 66.7 14.7 C 67.4 14.7 67.9 14.6 68.3 14.3 C 68.7 14 68.9 13.6 69 13.1 C 69.1 12.8 69.2 12.2 69.2 11.2 C 68.5 12 67.7 12.4 66.7 12.4 C 65.5 12.4 64.6 11.9 63.9 11.1 C 63.2 10.2 62.9 9.1 62.9 7.9 C 62.9 7.1 63.1 6.3 63.4 5.6 C 63.7 4.9 64.1 4.3 64.7 3.9 C 65.3 3.6 65.9 3.4 66.7 3.4 C 67.8 3.4 68.6 3.8 69.3 4.6 C 69.29 4.62 69.3 3.6 69.3 3.6 L 70.7 3.6 C 70.7 3.6 70.67 11.18 70.7 11.2 C 70.7 12.6 70.5 13.5 70.3 14.1 C 70 14.7 69.5 15.1 68.9 15.5 C 68.3 15.8 67.6 16 66.7 16 C 65.6 16 64.8 15.7 64.1 15.2 C 63.5 14.8 63.2 14.1 63.2 13.1 Z M 64.4 7.8 C 64.4 9 64.7 9.8 65.1 10.3 C 65.6 10.9 66.2 11.1 66.9 11.1 C 67.5 11.1 68.1 10.9 68.6 10.3 C 69 9.8 69.3 9 69.3 7.9 C 69.3 6.8 69 6 68.6 5.4 C 68.1 4.9 67.5 4.6 66.8 4.6 C 66.2 4.6 65.6 4.9 65.1 5.4 C 64.7 5.9 64.4 6.7 64.4 7.8 Z M 79 12.4 C 78.8 12.1 78.7 11.7 78.7 11.3 C 78.1 11.8 77.6 12.1 77.1 12.3 C 76.6 12.5 76 12.6 75.4 12.6 C 74.5 12.6 73.7 12.3 73.2 11.9 C 72.7 11.4 72.4 10.8 72.4 10.1 C 72.4 9.6 72.5 9.2 72.7 8.9 C 72.9 8.5 73.2 8.2 73.5 8 C 73.8 7.8 74.2 7.6 74.6 7.5 C 74.9 7.4 75.3 7.4 75.9 7.3 C 77.1 7.2 78 7 78.6 6.8 C 78.6 6.6 78.6 6.4 78.6 6.4 C 78.6 5.8 78.4 5.4 78.1 5.1 C 77.8 4.8 77.2 4.6 76.4 4.6 C 75.7 4.6 75.2 4.7 74.9 5 C 74.6 5.2 74.3 5.7 74.1 6.3 C 74.1 6.3 72.7 6.1 72.7 6.1 C 72.8 5.5 73 4.9 73.3 4.6 C 73.6 4.2 74.1 3.9 74.7 3.7 C 75.2 3.5 75.9 3.4 76.7 3.4 C 77.4 3.4 78 3.5 78.5 3.6 C 79 3.8 79.3 4 79.5 4.3 C 79.8 4.6 79.9 4.9 80 5.3 C 80 5.6 80.1 6 80.1 6.7 C 80.1 6.7 80.1 8.7 80.1 8.7 C 80.1 10.1 80.1 11 80.2 11.3 C 80.2 11.7 80.4 12 80.5 12.4 C 80.54 12.38 79 12.4 79 12.4 C 79 12.4 78.98 12.38 79 12.4 Z M 78.6 8 C 78 8.2 77.2 8.4 76.1 8.5 C 75.5 8.6 75.1 8.7 74.8 8.8 C 74.6 8.9 74.4 9.1 74.2 9.3 C 74.1 9.5 74 9.8 74 10 C 74 10.4 74.2 10.7 74.5 11 C 74.8 11.3 75.2 11.4 75.8 11.4 C 76.4 11.4 76.9 11.3 77.3 11 C 77.8 10.8 78.1 10.4 78.3 10 C 78.5 9.7 78.6 9.2 78.6 8.5 C 78.6 8.5 78.6 8 78.6 8 Z M 85 11.1 C 85.2 11.1 85.4 11.1 85.6 11 C 85.6 11 85.9 12.4 85.9 12.4 C 85.4 12.4 85.1 12.5 84.7 12.5 C 84.2 12.5 83.8 12.4 83.5 12.2 C 83.2 12.1 83 11.8 82.8 11.6 C 82.7 11.3 82.7 10.7 82.7 9.8 C 82.66 9.79 82.7 4.7 82.7 4.7 L 81.6 4.7 L 81.6 3.6 L 82.7 3.6 L 82.7 1.4 L 84.1 0.5 L 84.1 3.6 L 85.6 3.6 L 85.6 4.7 L 84.1 4.7 C 84.1 4.7 84.15 9.88 84.1 9.9 C 84.1 10.3 84.2 10.6 84.2 10.7 C 84.3 10.8 84.4 10.9 84.5 11 C 84.6 11.1 84.8 11.1 85 11.1 C 85 11.1 85 11.1 85 11.1 Z M 87.1 1.9 L 87.1 0.2 L 88.6 0.2 L 88.6 1.9 L 87.1 1.9 Z M 87.1 12.4 L 87.1 3.6 L 88.6 3.6 L 88.6 12.4 L 87.1 12.4 Z M 90.3 8 C 90.3 6.3 90.8 5.1 91.7 4.3 C 92.4 3.7 93.4 3.4 94.5 3.4 C 95.7 3.4 96.7 3.8 97.4 4.6 C 98.2 5.3 98.6 6.4 98.6 7.8 C 98.6 9 98.4 9.9 98.1 10.5 C 97.7 11.2 97.2 11.7 96.6 12 C 95.9 12.4 95.2 12.6 94.5 12.6 C 93.2 12.6 92.2 12.2 91.5 11.4 C 90.7 10.6 90.3 9.5 90.3 8 Z M 91.9 8 C 91.9 9.1 92.1 9.9 92.6 10.5 C 93.1 11.1 93.7 11.3 94.5 11.3 C 95.2 11.3 95.8 11.1 96.3 10.5 C 96.8 9.9 97.1 9.1 97.1 7.9 C 97.1 6.8 96.8 6 96.3 5.4 C 95.8 4.9 95.2 4.6 94.5 4.6 C 93.7 4.6 93.1 4.9 92.6 5.4 C 92.1 6 91.9 6.8 91.9 8 Z M 100.3 12.4 L 100.3 3.6 L 101.7 3.6 C 101.7 3.6 101.68 4.81 101.7 4.8 C 102.3 3.8 103.3 3.4 104.5 3.4 C 105 3.4 105.5 3.5 106 3.6 C 106.4 3.8 106.7 4.1 107 4.4 C 107.2 4.7 107.3 5.1 107.4 5.5 C 107.5 5.8 107.5 6.3 107.5 7 C 107.5 6.96 107.5 12.4 107.5 12.4 L 106 12.4 C 106 12.4 106.01 7.01 106 7 C 106 6.4 106 6 105.8 5.6 C 105.7 5.3 105.5 5.1 105.2 4.9 C 104.9 4.7 104.6 4.7 104.2 4.7 C 103.5 4.7 103 4.9 102.5 5.3 C 102.1 5.7 101.8 6.4 101.8 7.6 C 101.83 7.56 101.8 12.4 101.8 12.4 L 100.3 12.4 Z " stroke="none" fill="#003a5c"/>
  </g>
</svg>