<?xml version="1.0" standalone="no"?>
<!DOCTYPE svg PUBLIC "-//W3C//DTD SVG 1.1//EN" "http://www.w3.org/Graphics/SVG/1.1/DTD/svg11.dtd">
<svg xmlns="http://www.w3.org/2000/svg" version="1.1" width="129.2px" height="89.3px" viewBox="0 -7 129.2 89.3" style="top:-7px">
  <desc>2017 Baseline Year</desc>
  <defs/>
  <g id="Polygon62585">
    <path d="M 5.7 63.5 L 5.7 57.4 L 0.1 49 L 2.4 49 C 2.4 49 5.27 53.37 5.3 53.4 C 5.8 54.2 6.3 55 6.7 55.8 C 7.2 55.1 7.7 54.2 8.3 53.3 C 8.33 53.26 11.1 49 11.1 49 L 13.4 49 L 7.6 57.4 L 7.6 63.5 L 5.7 63.5 Z M 20.2 60.1 C 20.2 60.1 22.1 60.4 22.1 60.4 C 21.8 61.4 21.2 62.3 20.5 62.9 C 19.7 63.5 18.7 63.8 17.4 63.8 C 15.9 63.8 14.7 63.3 13.8 62.3 C 12.9 61.4 12.4 60.1 12.4 58.3 C 12.4 56.6 12.9 55.2 13.8 54.2 C 14.7 53.2 15.9 52.8 17.3 52.8 C 18.8 52.8 19.9 53.2 20.8 54.2 C 21.7 55.2 22.1 56.5 22.1 58.2 C 22.1 58.3 22.1 58.5 22.1 58.7 C 22.1 58.7 14.3 58.7 14.3 58.7 C 14.3 59.9 14.7 60.8 15.3 61.4 C 15.8 62 16.6 62.3 17.5 62.3 C 18.1 62.3 18.7 62.1 19.1 61.8 C 19.6 61.4 20 60.9 20.2 60.1 Z M 14.4 57.2 C 14.4 57.2 20.2 57.2 20.2 57.2 C 20.2 56.4 19.9 55.7 19.6 55.3 C 19 54.6 18.3 54.2 17.4 54.2 C 16.5 54.2 15.9 54.5 15.3 55 C 14.7 55.6 14.4 56.3 14.4 57.2 Z M 31.5 63.5 C 31.4 63.2 31.2 62.7 31.2 62.2 C 30.5 62.8 29.9 63.2 29.3 63.4 C 28.7 63.6 28 63.8 27.3 63.8 C 26.2 63.8 25.3 63.5 24.6 62.9 C 24 62.3 23.7 61.6 23.7 60.7 C 23.7 60.2 23.8 59.8 24.1 59.3 C 24.3 58.9 24.6 58.6 25 58.3 C 25.4 58.1 25.8 57.9 26.3 57.7 C 26.6 57.6 27.1 57.5 27.9 57.5 C 29.3 57.3 30.4 57.1 31 56.8 C 31 56.6 31 56.4 31 56.4 C 31 55.6 30.9 55.1 30.5 54.8 C 30.1 54.4 29.4 54.2 28.5 54.2 C 27.7 54.2 27 54.4 26.6 54.7 C 26.2 55 26 55.5 25.8 56.2 C 25.8 56.2 24 56 24 56 C 24.2 55.3 24.4 54.6 24.8 54.2 C 25.2 53.7 25.7 53.4 26.4 53.1 C 27.1 52.9 27.9 52.8 28.8 52.8 C 29.7 52.8 30.4 52.9 31 53.1 C 31.5 53.3 31.9 53.5 32.2 53.9 C 32.5 54.2 32.6 54.6 32.8 55.1 C 32.8 55.4 32.8 55.9 32.8 56.7 C 32.8 56.7 32.8 59.1 32.8 59.1 C 32.8 60.8 32.9 61.8 33 62.3 C 33 62.7 33.2 63.1 33.4 63.5 C 33.41 63.52 31.5 63.5 31.5 63.5 C 31.5 63.5 31.54 63.52 31.5 63.5 Z M 31 58.2 C 30.4 58.5 29.4 58.7 28.1 58.9 C 27.4 59 26.9 59.1 26.6 59.3 C 26.3 59.4 26 59.6 25.9 59.8 C 25.7 60.1 25.6 60.4 25.6 60.7 C 25.6 61.2 25.8 61.6 26.2 61.9 C 26.5 62.2 27 62.4 27.7 62.4 C 28.4 62.4 29 62.2 29.6 61.9 C 30.1 61.6 30.5 61.2 30.7 60.7 C 30.9 60.3 31 59.7 31 58.9 C 31 58.9 31 58.2 31 58.2 Z M 35.6 63.5 L 35.6 53 L 37.2 53 C 37.2 53 37.19 54.59 37.2 54.6 C 37.6 53.8 38 53.3 38.3 53.1 C 38.7 52.9 39.1 52.8 39.5 52.8 C 40.1 52.8 40.7 52.9 41.3 53.3 C 41.3 53.3 40.7 55 40.7 55 C 40.3 54.7 39.8 54.6 39.4 54.6 C 39 54.6 38.6 54.7 38.3 55 C 38 55.2 37.8 55.5 37.7 55.9 C 37.5 56.6 37.4 57.3 37.4 58 C 37.37 58.01 37.4 63.5 37.4 63.5 L 35.6 63.5 Z " stroke="none" fill="#54626c"/>
  </g>
  <g id="Polygon62584">
    <path d="M 1.5 39.2 L 1.5 24.6 C 1.5 24.6 6.94 24.62 6.9 24.6 C 8.1 24.6 8.9 24.8 9.6 25.1 C 10.3 25.4 10.8 25.8 11.2 26.4 C 11.6 27 11.8 27.7 11.8 28.3 C 11.8 29 11.6 29.5 11.3 30.1 C 10.9 30.6 10.4 31.1 9.7 31.4 C 10.6 31.7 11.3 32.1 11.8 32.7 C 12.2 33.4 12.5 34.1 12.5 34.9 C 12.5 35.6 12.3 36.3 12 36.8 C 11.7 37.4 11.4 37.9 11 38.2 C 10.5 38.5 10 38.7 9.4 38.9 C 8.7 39.1 8 39.2 7 39.2 C 7.03 39.15 1.5 39.2 1.5 39.2 Z M 3.4 30.7 C 3.4 30.7 6.55 30.73 6.6 30.7 C 7.4 30.7 8 30.7 8.4 30.6 C 8.9 30.4 9.2 30.2 9.5 29.8 C 9.7 29.5 9.9 29.1 9.9 28.6 C 9.9 28.1 9.8 27.7 9.5 27.3 C 9.3 26.9 9 26.7 8.5 26.5 C 8.1 26.4 7.4 26.3 6.3 26.3 C 6.32 26.33 3.4 26.3 3.4 26.3 L 3.4 30.7 Z M 3.4 37.4 C 3.4 37.4 7.03 37.44 7 37.4 C 7.7 37.4 8.1 37.4 8.3 37.4 C 8.8 37.3 9.2 37.2 9.4 37 C 9.7 36.8 10 36.5 10.2 36.2 C 10.4 35.8 10.5 35.4 10.5 34.9 C 10.5 34.4 10.3 33.9 10.1 33.5 C 9.8 33.1 9.4 32.8 8.9 32.7 C 8.4 32.5 7.7 32.4 6.8 32.4 C 6.77 32.44 3.4 32.4 3.4 32.4 L 3.4 37.4 Z M 22.1 39.2 C 21.9 38.8 21.8 38.4 21.8 37.9 C 21.1 38.4 20.5 38.8 19.8 39 C 19.2 39.3 18.6 39.4 17.9 39.4 C 16.7 39.4 15.8 39.1 15.2 38.5 C 14.6 38 14.3 37.3 14.3 36.4 C 14.3 35.9 14.4 35.4 14.6 35 C 14.9 34.5 15.2 34.2 15.6 33.9 C 15.9 33.7 16.4 33.5 16.8 33.4 C 17.2 33.3 17.7 33.2 18.4 33.1 C 19.9 32.9 20.9 32.7 21.6 32.5 C 21.6 32.2 21.6 32.1 21.6 32 C 21.6 31.3 21.4 30.8 21.1 30.5 C 20.7 30.1 20 29.9 19.1 29.9 C 18.2 29.9 17.6 30 17.2 30.3 C 16.8 30.6 16.5 31.1 16.3 31.9 C 16.3 31.9 14.6 31.6 14.6 31.6 C 14.7 30.9 15 30.3 15.4 29.8 C 15.7 29.4 16.3 29 16.9 28.8 C 17.6 28.5 18.4 28.4 19.3 28.4 C 20.2 28.4 21 28.5 21.5 28.7 C 22.1 28.9 22.5 29.2 22.8 29.5 C 23 29.8 23.2 30.2 23.3 30.7 C 23.4 31 23.4 31.6 23.4 32.4 C 23.4 32.4 23.4 34.7 23.4 34.7 C 23.4 36.4 23.4 37.5 23.5 37.9 C 23.6 38.3 23.8 38.8 24 39.2 C 23.98 39.15 22.1 39.2 22.1 39.2 C 22.1 39.2 22.11 39.15 22.1 39.2 Z M 21.6 33.9 C 21 34.1 20 34.4 18.7 34.5 C 18 34.6 17.4 34.8 17.1 34.9 C 16.8 35 16.6 35.2 16.4 35.5 C 16.3 35.7 16.2 36 16.2 36.3 C 16.2 36.8 16.4 37.2 16.7 37.5 C 17.1 37.8 17.6 38 18.3 38 C 19 38 19.6 37.8 20.1 37.5 C 20.7 37.2 21.1 36.8 21.3 36.3 C 21.5 35.9 21.6 35.3 21.6 34.5 C 21.6 34.5 21.6 33.9 21.6 33.9 Z M 25.5 36 C 25.5 36 27.2 35.7 27.2 35.7 C 27.3 36.4 27.6 37 28.1 37.4 C 28.5 37.7 29.1 37.9 30 37.9 C 30.8 37.9 31.4 37.8 31.8 37.4 C 32.2 37.1 32.4 36.7 32.4 36.2 C 32.4 35.8 32.2 35.5 31.9 35.3 C 31.6 35.1 31 34.9 30 34.7 C 28.7 34.4 27.8 34.1 27.3 33.8 C 26.8 33.6 26.4 33.3 26.2 32.8 C 25.9 32.4 25.8 31.9 25.8 31.4 C 25.8 31 25.9 30.5 26.1 30.1 C 26.3 29.7 26.6 29.4 27 29.1 C 27.2 28.9 27.6 28.7 28.1 28.6 C 28.6 28.5 29.1 28.4 29.6 28.4 C 30.5 28.4 31.2 28.5 31.8 28.7 C 32.4 29 32.9 29.3 33.2 29.7 C 33.5 30.1 33.7 30.7 33.8 31.3 C 33.8 31.3 32.1 31.6 32.1 31.6 C 32 31 31.8 30.6 31.4 30.3 C 31 30 30.5 29.9 29.8 29.9 C 28.9 29.9 28.4 30 28 30.3 C 27.7 30.5 27.5 30.8 27.5 31.2 C 27.5 31.4 27.6 31.7 27.7 31.8 C 27.9 32 28.1 32.2 28.4 32.3 C 28.6 32.4 29.1 32.5 30 32.8 C 31.2 33.1 32.1 33.4 32.6 33.6 C 33.1 33.8 33.5 34.1 33.8 34.5 C 34.1 34.9 34.2 35.5 34.2 36.1 C 34.2 36.7 34 37.2 33.7 37.7 C 33.3 38.3 32.8 38.7 32.2 39 C 31.5 39.2 30.8 39.4 30 39.4 C 28.6 39.4 27.6 39.1 26.8 38.5 C 26.1 38 25.7 37.1 25.5 36 Z M 43.5 35.8 C 43.5 35.8 45.4 36 45.4 36 C 45.1 37.1 44.6 37.9 43.8 38.5 C 43 39.1 42 39.4 40.8 39.4 C 39.2 39.4 38 38.9 37.1 38 C 36.2 37 35.7 35.7 35.7 34 C 35.7 32.2 36.2 30.8 37.1 29.9 C 38 28.9 39.2 28.4 40.7 28.4 C 42.1 28.4 43.2 28.9 44.1 29.8 C 45 30.8 45.4 32.1 45.4 33.9 C 45.4 34 45.4 34.1 45.4 34.3 C 45.4 34.3 37.6 34.3 37.6 34.3 C 37.6 35.5 38 36.4 38.6 37 C 39.2 37.6 39.9 37.9 40.8 37.9 C 41.4 37.9 42 37.8 42.4 37.4 C 42.9 37.1 43.3 36.5 43.5 35.8 Z M 37.7 32.9 C 37.7 32.9 43.6 32.9 43.6 32.9 C 43.5 32 43.3 31.3 42.9 30.9 C 42.3 30.2 41.6 29.9 40.7 29.9 C 39.9 29.9 39.2 30.1 38.6 30.7 C 38 31.2 37.7 32 37.7 32.9 Z M 47.6 39.2 L 47.6 24.6 L 49.4 24.6 L 49.4 39.2 L 47.6 39.2 Z M 52.1 26.7 L 52.1 24.6 L 53.9 24.6 L 53.9 26.7 L 52.1 26.7 Z M 52.1 39.2 L 52.1 28.6 L 53.9 28.6 L 53.9 39.2 L 52.1 39.2 Z M 56.6 39.2 L 56.6 28.6 L 58.3 28.6 C 58.3 28.6 58.26 30.12 58.3 30.1 C 59 29 60.1 28.4 61.6 28.4 C 62.2 28.4 62.8 28.5 63.4 28.7 C 63.9 29 64.3 29.3 64.6 29.6 C 64.8 30 65 30.4 65.1 30.9 C 65.2 31.3 65.2 31.9 65.2 32.7 C 65.21 32.68 65.2 39.2 65.2 39.2 L 63.4 39.2 C 63.4 39.2 63.42 32.75 63.4 32.7 C 63.4 32 63.4 31.5 63.2 31.1 C 63.1 30.8 62.8 30.5 62.5 30.3 C 62.1 30 61.7 29.9 61.2 29.9 C 60.5 29.9 59.8 30.2 59.3 30.7 C 58.7 31.1 58.4 32.1 58.4 33.4 C 58.43 33.4 58.4 39.2 58.4 39.2 L 56.6 39.2 Z M 75.2 35.8 C 75.2 35.8 77 36 77 36 C 76.7 37.1 76.2 37.9 75.4 38.5 C 74.6 39.1 73.6 39.4 72.4 39.4 C 70.8 39.4 69.6 38.9 68.7 38 C 67.8 37 67.3 35.7 67.3 34 C 67.3 32.2 67.8 30.8 68.7 29.9 C 69.6 28.9 70.8 28.4 72.3 28.4 C 73.7 28.4 74.8 28.9 75.7 29.8 C 76.6 30.8 77.1 32.1 77.1 33.9 C 77.1 34 77.1 34.1 77 34.3 C 77 34.3 69.2 34.3 69.2 34.3 C 69.3 35.5 69.6 36.4 70.2 37 C 70.8 37.6 71.5 37.9 72.4 37.9 C 73 37.9 73.6 37.8 74.1 37.4 C 74.5 37.1 74.9 36.5 75.2 35.8 Z M 69.3 32.9 C 69.3 32.9 75.2 32.9 75.2 32.9 C 75.1 32 74.9 31.3 74.5 30.9 C 73.9 30.2 73.2 29.9 72.3 29.9 C 71.5 29.9 70.8 30.1 70.2 30.7 C 69.7 31.2 69.4 32 69.3 32.9 Z " stroke="none" fill="#54626c"/>
  </g>
  <g id="Polygon62583">
    <path d="M 10.2 13.1 L 10.2 14.8 C 10.2 14.8 0.61 14.78 0.6 14.8 C 0.6 14.4 0.7 13.9 0.8 13.5 C 1.1 12.9 1.5 12.2 2 11.6 C 2.5 11 3.3 10.2 4.3 9.4 C 5.9 8.1 7 7.1 7.5 6.3 C 8.1 5.6 8.4 4.9 8.4 4.2 C 8.4 3.5 8.1 2.9 7.6 2.4 C 7.1 1.9 6.4 1.7 5.6 1.7 C 4.8 1.7 4.1 1.9 3.6 2.4 C 3.1 3 2.8 3.7 2.8 4.6 C 2.8 4.6 1 4.4 1 4.4 C 1.1 3 1.6 2 2.4 1.3 C 3.2 0.5 4.3 0.2 5.7 0.2 C 7.1 0.2 8.2 0.6 9 1.3 C 9.8 2.1 10.2 3.1 10.2 4.2 C 10.2 4.8 10.1 5.4 9.8 5.9 C 9.6 6.5 9.2 7.1 8.7 7.7 C 8.1 8.3 7.2 9.2 5.9 10.3 C 4.8 11.2 4.2 11.8 3.8 12.1 C 3.5 12.4 3.3 12.7 3.1 13.1 C 3.09 13.07 10.2 13.1 10.2 13.1 Z M 13.6 13.5 C 12.6 12.3 12.1 10.3 12.1 7.6 C 12.1 5.9 12.3 4.5 12.7 3.5 C 13 2.4 13.5 1.6 14.2 1 C 14.9 0.5 15.8 0.2 16.9 0.2 C 17.7 0.2 18.3 0.3 18.9 0.7 C 19.5 1 20 1.4 20.4 2 C 20.8 2.6 21.1 3.3 21.3 4.2 C 21.5 5 21.6 6.2 21.6 7.6 C 21.6 9.3 21.4 10.7 21.1 11.7 C 20.7 12.8 20.2 13.6 19.5 14.2 C 18.8 14.7 17.9 15 16.9 15 C 15.5 15 14.4 14.5 13.6 13.5 C 13.6 13.5 13.6 13.5 13.6 13.5 Z M 14.9 2.7 C 14.3 3.6 14 5.2 14 7.6 C 14 10 14.3 11.6 14.8 12.4 C 15.4 13.2 16.1 13.6 16.9 13.6 C 17.7 13.6 18.4 13.2 18.9 12.4 C 19.5 11.6 19.8 10 19.8 7.6 C 19.8 5.2 19.5 3.6 18.9 2.8 C 18.4 2.1 17.7 1.7 16.9 1.7 C 16 1.7 15.4 2 14.9 2.7 C 14.9 2.7 14.9 2.7 14.9 2.7 Z M 30.2 14.8 L 28.4 14.8 C 28.4 14.8 28.37 3.41 28.4 3.4 C 27.9 3.8 27.4 4.2 26.7 4.6 C 26 5.1 25.4 5.4 24.8 5.6 C 24.8 5.6 24.8 3.8 24.8 3.8 C 25.8 3.4 26.7 2.8 27.4 2.1 C 28.2 1.5 28.7 0.8 29 0.2 C 29 0.19 30.2 0.2 30.2 0.2 L 30.2 14.8 Z M 34.8 2.2 L 34.8 0.4 L 44.3 0.4 C 44.3 0.4 44.25 1.82 44.3 1.8 C 43.3 2.8 42.4 4.1 41.5 5.8 C 40.6 7.4 39.9 9.1 39.4 10.8 C 39 12 38.8 13.3 38.7 14.8 C 38.7 14.8 36.9 14.8 36.9 14.8 C 36.9 13.6 37.1 12.3 37.6 10.6 C 38 9 38.6 7.5 39.4 6 C 40.2 4.5 41.1 3.2 42 2.2 C 41.96 2.15 34.8 2.2 34.8 2.2 Z " stroke="none" fill="#54626c"/>
  </g>
</svg>