<?xml version="1.0" standalone="no"?>
<!DOCTYPE svg PUBLIC "-//W3C//DTD SVG 1.1//EN" "http://www.w3.org/Graphics/SVG/1.1/DTD/svg11.dtd">
<svg xmlns="http://www.w3.org/2000/svg" version="1.1" width="603px" height="79.7px" viewBox="0 -11 603 79.7" style="top:-11px">
  <desc>Annual Emissions (tons CO2e)</desc>
  <defs/>
  <g id="Polygon62485">
    <path d="M 0 23.3 L 8.7 0.4 L 12 0.4 L 21.4 23.3 L 17.9 23.3 L 15.3 16.4 L 5.7 16.4 L 3.2 23.3 L 0 23.3 Z M 6.6 13.9 L 14.3 13.9 C 14.3 13.9 11.94 7.55 11.9 7.5 C 11.2 5.6 10.7 4 10.3 2.8 C 10 4.3 9.6 5.7 9.1 7.2 C 9.08 7.17 6.6 13.9 6.6 13.9 Z M 23.5 23.3 L 23.5 6.7 L 26 6.7 C 26 6.7 25.98 9.06 26 9.1 C 27.2 7.2 29 6.3 31.3 6.3 C 32.3 6.3 33.2 6.5 34 6.9 C 34.9 7.2 35.5 7.7 35.9 8.3 C 36.3 8.9 36.6 9.6 36.8 10.4 C 36.9 10.9 36.9 11.8 36.9 13.1 C 36.94 13.09 36.9 23.3 36.9 23.3 L 34.1 23.3 C 34.1 23.3 34.12 13.2 34.1 13.2 C 34.1 12.1 34 11.2 33.8 10.6 C 33.6 10.1 33.2 9.6 32.6 9.3 C 32.1 8.9 31.4 8.8 30.7 8.8 C 29.5 8.8 28.4 9.1 27.6 9.9 C 26.7 10.7 26.3 12.1 26.3 14.2 C 26.27 14.23 26.3 23.3 26.3 23.3 L 23.5 23.3 Z M 41.2 23.3 L 41.2 6.7 L 43.8 6.7 C 43.8 6.7 43.78 9.06 43.8 9.1 C 45 7.2 46.8 6.3 49.1 6.3 C 50.1 6.3 51 6.5 51.8 6.9 C 52.7 7.2 53.3 7.7 53.7 8.3 C 54.1 8.9 54.4 9.6 54.6 10.4 C 54.7 10.9 54.7 11.8 54.7 13.1 C 54.73 13.09 54.7 23.3 54.7 23.3 L 51.9 23.3 C 51.9 23.3 51.92 13.2 51.9 13.2 C 51.9 12.1 51.8 11.2 51.6 10.6 C 51.4 10.1 51 9.6 50.4 9.3 C 49.9 8.9 49.2 8.8 48.5 8.8 C 47.3 8.8 46.2 9.1 45.4 9.9 C 44.5 10.7 44.1 12.1 44.1 14.2 C 44.06 14.23 44.1 23.3 44.1 23.3 L 41.2 23.3 Z M 69.9 23.3 C 69.9 23.3 69.92 20.86 69.9 20.9 C 68.6 22.7 66.9 23.7 64.7 23.7 C 63.7 23.7 62.8 23.5 61.9 23.1 C 61.1 22.7 60.4 22.3 60 21.7 C 59.6 21.1 59.3 20.4 59.2 19.6 C 59 19.1 59 18.2 59 17 C 58.98 16.98 59 6.7 59 6.7 L 61.8 6.7 C 61.8 6.7 61.8 15.91 61.8 15.9 C 61.8 17.4 61.9 18.4 62 18.9 C 62.1 19.6 62.5 20.2 63.1 20.6 C 63.7 21 64.4 21.3 65.2 21.3 C 66.1 21.3 66.9 21 67.6 20.6 C 68.3 20.2 68.9 19.6 69.2 18.8 C 69.5 18.1 69.6 17 69.6 15.6 C 69.62 15.59 69.6 6.7 69.6 6.7 L 72.4 6.7 L 72.4 23.3 L 69.9 23.3 Z M 88.2 23.3 C 87.9 22.7 87.8 22 87.7 21.3 C 86.6 22.1 85.6 22.8 84.7 23.1 C 83.7 23.5 82.7 23.7 81.6 23.7 C 79.7 23.7 78.3 23.2 77.4 22.3 C 76.4 21.4 75.9 20.3 75.9 18.9 C 75.9 18.1 76.1 17.4 76.4 16.7 C 76.8 16 77.3 15.5 77.9 15.1 C 78.5 14.7 79.2 14.4 79.9 14.2 C 80.5 14 81.3 13.9 82.4 13.7 C 84.7 13.5 86.4 13.1 87.4 12.8 C 87.4 12.4 87.5 12.1 87.5 12 C 87.5 10.9 87.2 10.1 86.7 9.6 C 85.9 9 84.9 8.7 83.5 8.7 C 82.1 8.7 81.2 8.9 80.5 9.4 C 79.9 9.8 79.4 10.6 79.1 11.8 C 79.1 11.8 76.4 11.4 76.4 11.4 C 76.6 10.3 77 9.3 77.6 8.6 C 78.2 7.9 79 7.3 80.1 6.9 C 81.2 6.5 82.4 6.3 83.9 6.3 C 85.3 6.3 86.4 6.5 87.3 6.8 C 88.2 7.2 88.8 7.6 89.3 8.1 C 89.7 8.6 90 9.2 90.1 10 C 90.2 10.5 90.3 11.3 90.3 12.6 C 90.3 12.6 90.3 16.3 90.3 16.3 C 90.3 19 90.3 20.6 90.5 21.3 C 90.6 22 90.8 22.7 91.2 23.3 C 91.17 23.3 88.2 23.3 88.2 23.3 C 88.2 23.3 88.23 23.3 88.2 23.3 Z M 87.4 15 C 86.4 15.4 84.9 15.7 82.8 16 C 81.7 16.2 80.9 16.4 80.4 16.6 C 79.9 16.8 79.5 17.1 79.3 17.5 C 79 17.9 78.9 18.4 78.9 18.8 C 78.9 19.6 79.2 20.2 79.7 20.7 C 80.3 21.2 81.1 21.5 82.2 21.5 C 83.3 21.5 84.3 21.2 85.1 20.8 C 86 20.3 86.6 19.6 87 18.8 C 87.3 18.2 87.4 17.2 87.4 16 C 87.4 16 87.4 15 87.4 15 Z M 94.6 23.3 L 94.6 0.4 L 97.4 0.4 L 97.4 23.3 L 94.6 23.3 Z M 111.1 23.3 L 111.1 0.4 L 127.6 0.4 L 127.6 3.1 L 114.1 3.1 L 114.1 10.1 L 126.8 10.1 L 126.8 12.8 L 114.1 12.8 L 114.1 20.6 L 128.2 20.6 L 128.2 23.3 L 111.1 23.3 Z M 132 23.3 L 132 6.7 L 134.5 6.7 C 134.5 6.7 134.5 9.03 134.5 9 C 135 8.2 135.7 7.6 136.6 7.1 C 137.4 6.6 138.4 6.3 139.5 6.3 C 140.8 6.3 141.8 6.6 142.6 7.1 C 143.3 7.6 143.9 8.3 144.2 9.2 C 145.5 7.3 147.2 6.3 149.3 6.3 C 151 6.3 152.3 6.8 153.1 7.7 C 154 8.6 154.5 10 154.5 11.9 C 154.47 11.91 154.5 23.3 154.5 23.3 L 151.7 23.3 C 151.7 23.3 151.67 12.84 151.7 12.8 C 151.7 11.7 151.6 10.9 151.4 10.4 C 151.2 9.9 150.9 9.5 150.4 9.2 C 149.9 8.9 149.4 8.8 148.7 8.8 C 147.6 8.8 146.6 9.2 145.8 9.9 C 145 10.7 144.7 11.9 144.7 13.7 C 144.66 13.66 144.7 23.3 144.7 23.3 L 141.8 23.3 C 141.8 23.3 141.84 12.52 141.8 12.5 C 141.8 11.3 141.6 10.3 141.2 9.7 C 140.7 9.1 139.9 8.8 138.9 8.8 C 138.1 8.8 137.4 9 136.7 9.4 C 136 9.8 135.6 10.4 135.2 11.2 C 134.9 12 134.8 13.2 134.8 14.7 C 134.8 14.69 134.8 23.3 134.8 23.3 L 132 23.3 Z M 158.7 3.6 L 158.7 0.4 L 161.5 0.4 L 161.5 3.6 L 158.7 3.6 Z M 158.7 23.3 L 158.7 6.7 L 161.5 6.7 L 161.5 23.3 L 158.7 23.3 Z M 164.6 18.3 C 164.6 18.3 167.4 17.9 167.4 17.9 C 167.6 19 168 19.9 168.7 20.5 C 169.4 21.1 170.4 21.4 171.7 21.4 C 173 21.4 174 21.1 174.6 20.6 C 175.2 20 175.5 19.4 175.5 18.7 C 175.5 18.1 175.2 17.6 174.7 17.2 C 174.3 17 173.3 16.7 171.8 16.3 C 169.8 15.7 168.3 15.3 167.5 14.9 C 166.7 14.5 166.1 14 165.7 13.3 C 165.3 12.7 165.1 11.9 165.1 11.1 C 165.1 10.4 165.3 9.7 165.6 9.1 C 165.9 8.4 166.4 7.9 167 7.5 C 167.4 7.2 168 6.9 168.8 6.7 C 169.5 6.4 170.3 6.3 171.2 6.3 C 172.5 6.3 173.6 6.5 174.6 6.9 C 175.6 7.3 176.3 7.8 176.8 8.4 C 177.3 9.1 177.6 9.9 177.8 11 C 177.8 11 175 11.4 175 11.4 C 174.9 10.5 174.5 9.8 173.9 9.4 C 173.3 8.9 172.5 8.6 171.4 8.6 C 170.1 8.6 169.2 8.9 168.6 9.3 C 168.1 9.7 167.8 10.2 167.8 10.8 C 167.8 11.1 167.9 11.5 168.2 11.8 C 168.4 12.1 168.7 12.3 169.2 12.5 C 169.5 12.6 170.3 12.9 171.7 13.2 C 173.7 13.8 175.1 14.2 175.9 14.5 C 176.7 14.9 177.3 15.4 177.7 16 C 178.2 16.7 178.4 17.5 178.4 18.4 C 178.4 19.4 178.1 20.2 177.6 21.1 C 177 21.9 176.3 22.5 175.2 23 C 174.2 23.4 173 23.7 171.7 23.7 C 169.6 23.7 167.9 23.2 166.8 22.3 C 165.7 21.4 164.9 20.1 164.6 18.3 Z M 180.6 18.3 C 180.6 18.3 183.4 17.9 183.4 17.9 C 183.6 19 184 19.9 184.7 20.5 C 185.4 21.1 186.4 21.4 187.7 21.4 C 189 21.4 190 21.1 190.6 20.6 C 191.2 20 191.5 19.4 191.5 18.7 C 191.5 18.1 191.2 17.6 190.7 17.2 C 190.3 17 189.3 16.7 187.8 16.3 C 185.8 15.7 184.3 15.3 183.5 14.9 C 182.7 14.5 182.1 14 181.7 13.3 C 181.3 12.7 181.1 11.9 181.1 11.1 C 181.1 10.4 181.3 9.7 181.6 9.1 C 181.9 8.4 182.4 7.9 183 7.5 C 183.4 7.2 184 6.9 184.8 6.7 C 185.5 6.4 186.3 6.3 187.2 6.3 C 188.5 6.3 189.6 6.5 190.6 6.9 C 191.6 7.3 192.3 7.8 192.8 8.4 C 193.3 9.1 193.6 9.9 193.8 11 C 193.8 11 191 11.4 191 11.4 C 190.9 10.5 190.5 9.8 189.9 9.4 C 189.3 8.9 188.5 8.6 187.4 8.6 C 186.1 8.6 185.2 8.9 184.6 9.3 C 184.1 9.7 183.8 10.2 183.8 10.8 C 183.8 11.1 183.9 11.5 184.2 11.8 C 184.4 12.1 184.7 12.3 185.2 12.5 C 185.5 12.6 186.3 12.9 187.7 13.2 C 189.7 13.8 191.1 14.2 191.9 14.5 C 192.7 14.9 193.3 15.4 193.7 16 C 194.2 16.7 194.4 17.5 194.4 18.4 C 194.4 19.4 194.1 20.2 193.6 21.1 C 193 21.9 192.3 22.5 191.2 23 C 190.2 23.4 189 23.7 187.7 23.7 C 185.6 23.7 183.9 23.2 182.8 22.3 C 181.7 21.4 180.9 20.1 180.6 18.3 Z M 197.8 3.6 L 197.8 0.4 L 200.6 0.4 L 200.6 3.6 L 197.8 3.6 Z M 197.8 23.3 L 197.8 6.7 L 200.6 6.7 L 200.6 23.3 L 197.8 23.3 Z M 203.8 15 C 203.8 11.9 204.7 9.7 206.4 8.2 C 207.8 6.9 209.5 6.3 211.6 6.3 C 213.9 6.3 215.7 7.1 217.2 8.6 C 218.6 10.1 219.4 12.1 219.4 14.8 C 219.4 16.9 219 18.6 218.4 19.8 C 217.8 21 216.8 22 215.6 22.7 C 214.4 23.3 213 23.7 211.6 23.7 C 209.3 23.7 207.4 22.9 206 21.4 C 204.5 19.9 203.8 17.8 203.8 15 Z M 206.7 15 C 206.7 17.1 207.2 18.7 208.1 19.8 C 209 20.8 210.2 21.4 211.6 21.4 C 213 21.4 214.2 20.8 215.1 19.8 C 216 18.7 216.5 17.1 216.5 14.9 C 216.5 12.9 216 11.3 215.1 10.2 C 214.1 9.2 213 8.7 211.6 8.7 C 210.2 8.7 209 9.2 208.1 10.2 C 207.2 11.3 206.7 12.9 206.7 15 Z M 222.7 23.3 L 222.7 6.7 L 225.2 6.7 C 225.2 6.7 225.19 9.06 225.2 9.1 C 226.4 7.2 228.2 6.3 230.5 6.3 C 231.5 6.3 232.4 6.5 233.2 6.9 C 234.1 7.2 234.7 7.7 235.1 8.3 C 235.5 8.9 235.8 9.6 236 10.4 C 236.1 10.9 236.1 11.8 236.1 13.1 C 236.14 13.09 236.1 23.3 236.1 23.3 L 233.3 23.3 C 233.3 23.3 233.33 13.2 233.3 13.2 C 233.3 12.1 233.2 11.2 233 10.6 C 232.8 10.1 232.4 9.6 231.8 9.3 C 231.3 8.9 230.6 8.8 229.9 8.8 C 228.7 8.8 227.6 9.1 226.8 9.9 C 225.9 10.7 225.5 12.1 225.5 14.2 C 225.47 14.23 225.5 23.3 225.5 23.3 L 222.7 23.3 Z M 239.3 18.3 C 239.3 18.3 242.1 17.9 242.1 17.9 C 242.3 19 242.7 19.9 243.4 20.5 C 244.1 21.1 245.1 21.4 246.4 21.4 C 247.7 21.4 248.7 21.1 249.3 20.6 C 249.9 20 250.2 19.4 250.2 18.7 C 250.2 18.1 249.9 17.6 249.4 17.2 C 249 17 248 16.7 246.5 16.3 C 244.5 15.7 243 15.3 242.2 14.9 C 241.4 14.5 240.8 14 240.4 13.3 C 240 12.7 239.8 11.9 239.8 11.1 C 239.8 10.4 240 9.7 240.3 9.1 C 240.6 8.4 241.1 7.9 241.7 7.5 C 242.1 7.2 242.7 6.9 243.5 6.7 C 244.2 6.4 245 6.3 245.9 6.3 C 247.2 6.3 248.4 6.5 249.3 6.9 C 250.3 7.3 251 7.8 251.5 8.4 C 252 9.1 252.3 9.9 252.5 11 C 252.5 11 249.7 11.4 249.7 11.4 C 249.6 10.5 249.2 9.8 248.6 9.4 C 248 8.9 247.2 8.6 246.1 8.6 C 244.8 8.6 243.9 8.9 243.3 9.3 C 242.8 9.7 242.5 10.2 242.5 10.8 C 242.5 11.1 242.6 11.5 242.9 11.8 C 243.1 12.1 243.4 12.3 243.9 12.5 C 244.2 12.6 245 12.9 246.4 13.2 C 248.4 13.8 249.8 14.2 250.6 14.5 C 251.4 14.9 252 15.4 252.4 16 C 252.9 16.7 253.1 17.5 253.1 18.4 C 253.1 19.4 252.8 20.2 252.3 21.1 C 251.7 21.9 251 22.5 249.9 23 C 248.9 23.4 247.7 23.7 246.4 23.7 C 244.3 23.7 242.6 23.2 241.5 22.3 C 240.4 21.4 239.6 20.1 239.3 18.3 Z M 270.7 30 C 269.2 28.1 267.9 25.8 266.8 23.2 C 265.7 20.5 265.2 17.8 265.2 15 C 265.2 12.5 265.6 10.1 266.4 7.9 C 267.3 5.2 268.8 2.6 270.7 0 C 270.7 0 272.7 0 272.7 0 C 271.5 2.2 270.6 3.7 270.2 4.6 C 269.6 6.1 269.1 7.6 268.7 9.1 C 268.3 11.1 268.1 13 268.1 15 C 268.1 20 269.6 25 272.7 30 C 272.7 30 270.7 30 270.7 30 Z M 280.9 20.9 C 281.2 20.9 281.6 20.9 282.1 20.8 C 282.1 20.8 282.5 23.3 282.5 23.3 C 281.8 23.4 281 23.5 280.4 23.5 C 279.4 23.5 278.6 23.4 278 23 C 277.5 22.7 277.1 22.3 276.9 21.8 C 276.6 21.2 276.5 20.1 276.5 18.4 C 276.52 18.44 276.5 8.9 276.5 8.9 L 274.5 8.9 L 274.5 6.7 L 276.5 6.7 L 276.5 2.6 L 279.3 0.9 L 279.3 6.7 L 282.1 6.7 L 282.1 8.9 L 279.3 8.9 C 279.3 8.9 279.31 18.59 279.3 18.6 C 279.3 19.4 279.4 19.9 279.5 20.1 C 279.6 20.4 279.7 20.6 279.9 20.7 C 280.2 20.8 280.5 20.9 280.9 20.9 C 280.9 20.9 280.9 20.9 280.9 20.9 Z M 283.8 15 C 283.8 11.9 284.7 9.7 286.4 8.2 C 287.8 6.9 289.6 6.3 291.6 6.3 C 293.9 6.3 295.8 7.1 297.2 8.6 C 298.7 10.1 299.4 12.1 299.4 14.8 C 299.4 16.9 299.1 18.6 298.4 19.8 C 297.8 21 296.9 22 295.6 22.7 C 294.4 23.3 293.1 23.7 291.6 23.7 C 289.3 23.7 287.4 22.9 286 21.4 C 284.6 19.9 283.8 17.8 283.8 15 Z M 286.7 15 C 286.7 17.1 287.2 18.7 288.1 19.8 C 289.1 20.8 290.2 21.4 291.6 21.4 C 293 21.4 294.2 20.8 295.1 19.8 C 296 18.7 296.5 17.1 296.5 14.9 C 296.5 12.9 296 11.3 295.1 10.2 C 294.2 9.2 293 8.7 291.6 8.7 C 290.2 8.7 289.1 9.2 288.1 10.2 C 287.2 11.3 286.7 12.9 286.7 15 Z M 302.7 23.3 L 302.7 6.7 L 305.2 6.7 C 305.2 6.7 305.22 9.06 305.2 9.1 C 306.4 7.2 308.2 6.3 310.5 6.3 C 311.5 6.3 312.4 6.5 313.3 6.9 C 314.1 7.2 314.7 7.7 315.1 8.3 C 315.6 8.9 315.8 9.6 316 10.4 C 316.1 10.9 316.2 11.8 316.2 13.1 C 316.17 13.09 316.2 23.3 316.2 23.3 L 313.4 23.3 C 313.4 23.3 313.36 13.2 313.4 13.2 C 313.4 12.1 313.3 11.2 313 10.6 C 312.8 10.1 312.4 9.6 311.9 9.3 C 311.3 8.9 310.7 8.8 309.9 8.8 C 308.7 8.8 307.7 9.1 306.8 9.9 C 305.9 10.7 305.5 12.1 305.5 14.2 C 305.5 14.23 305.5 23.3 305.5 23.3 L 302.7 23.3 Z M 319.4 18.3 C 319.4 18.3 322.1 17.9 322.1 17.9 C 322.3 19 322.7 19.9 323.4 20.5 C 324.2 21.1 325.2 21.4 326.4 21.4 C 327.7 21.4 328.7 21.1 329.3 20.6 C 329.9 20 330.3 19.4 330.3 18.7 C 330.3 18.1 330 17.6 329.4 17.2 C 329 17 328.1 16.7 326.5 16.3 C 324.5 15.7 323.1 15.3 322.3 14.9 C 321.5 14.5 320.9 14 320.4 13.3 C 320 12.7 319.8 11.9 319.8 11.1 C 319.8 10.4 320 9.7 320.3 9.1 C 320.7 8.4 321.1 7.9 321.7 7.5 C 322.2 7.2 322.8 6.9 323.5 6.7 C 324.3 6.4 325.1 6.3 325.9 6.3 C 327.2 6.3 328.4 6.5 329.4 6.9 C 330.4 7.3 331.1 7.8 331.5 8.4 C 332 9.1 332.3 9.9 332.5 11 C 332.5 11 329.8 11.4 329.8 11.4 C 329.6 10.5 329.3 9.8 328.7 9.4 C 328.1 8.9 327.2 8.6 326.1 8.6 C 324.8 8.6 323.9 8.9 323.4 9.3 C 322.8 9.7 322.5 10.2 322.5 10.8 C 322.5 11.1 322.7 11.5 322.9 11.8 C 323.1 12.1 323.5 12.3 324 12.5 C 324.3 12.6 325.1 12.9 326.5 13.2 C 328.4 13.8 329.8 14.2 330.6 14.5 C 331.4 14.9 332 15.4 332.5 16 C 332.9 16.7 333.1 17.5 333.1 18.4 C 333.1 19.4 332.9 20.2 332.3 21.1 C 331.8 21.9 331 22.5 330 23 C 328.9 23.4 327.8 23.7 326.5 23.7 C 324.3 23.7 322.7 23.2 321.5 22.3 C 320.4 21.4 319.7 20.1 319.4 18.3 Z M 362.1 15.3 C 362.1 15.3 365.1 16 365.1 16 C 364.5 18.5 363.3 20.4 361.7 21.7 C 360 23 358 23.7 355.6 23.7 C 353.2 23.7 351.1 23.2 349.6 22.2 C 348.1 21.2 346.9 19.7 346.1 17.8 C 345.3 15.9 344.9 13.9 344.9 11.7 C 344.9 9.3 345.3 7.2 346.2 5.4 C 347.1 3.7 348.4 2.3 350.1 1.4 C 351.8 0.5 353.7 0 355.7 0 C 358 0 359.9 0.6 361.5 1.8 C 363 2.9 364.1 4.6 364.7 6.7 C 364.7 6.7 361.7 7.4 361.7 7.4 C 361.2 5.7 360.4 4.5 359.4 3.7 C 358.4 3 357.1 2.6 355.6 2.6 C 353.8 2.6 352.4 3 351.2 3.9 C 350 4.7 349.2 5.8 348.7 7.3 C 348.2 8.7 348 10.1 348 11.7 C 348 13.6 348.3 15.3 348.8 16.8 C 349.4 18.2 350.3 19.3 351.5 20 C 352.7 20.7 354 21.1 355.4 21.1 C 357.1 21.1 358.5 20.6 359.7 19.6 C 360.9 18.6 361.7 17.2 362.1 15.3 Z M 367.9 12.1 C 367.9 8.3 368.9 5.4 371 3.2 C 373 1.1 375.7 0 378.9 0 C 381 0 382.9 0.5 384.6 1.5 C 386.3 2.5 387.6 3.9 388.5 5.7 C 389.4 7.5 389.8 9.6 389.8 11.9 C 389.8 14.2 389.4 16.3 388.4 18.1 C 387.5 19.9 386.2 21.3 384.4 22.3 C 382.7 23.2 380.9 23.7 378.9 23.7 C 376.7 23.7 374.8 23.2 373.1 22.1 C 371.4 21.1 370.1 19.7 369.2 17.9 C 368.4 16.1 367.9 14.2 367.9 12.1 Z M 371 12.2 C 371 14.9 371.8 17.1 373.3 18.7 C 374.8 20.3 376.6 21.1 378.9 21.1 C 381.1 21.1 383 20.3 384.5 18.7 C 386 17.1 386.7 14.8 386.7 11.9 C 386.7 10 386.4 8.4 385.8 7 C 385.1 5.6 384.2 4.5 383 3.7 C 381.8 3 380.4 2.6 378.9 2.6 C 376.8 2.6 374.9 3.3 373.4 4.8 C 371.8 6.3 371 8.7 371 12.2 Z M 400.7 32.4 L 400.7 34 C 400.7 34 391.83 33.95 391.8 34 C 391.8 33.6 391.9 33.2 392 32.8 C 392.2 32.2 392.6 31.6 393.1 31 C 393.6 30.5 394.3 29.8 395.2 29 C 396.7 27.8 397.7 26.9 398.2 26.2 C 398.7 25.5 399 24.8 399 24.2 C 399 23.6 398.7 23 398.3 22.6 C 397.8 22.1 397.2 21.9 396.4 21.9 C 395.7 21.9 395 22.1 394.5 22.6 C 394.1 23.1 393.8 23.7 393.8 24.6 C 393.8 24.6 392.1 24.4 392.1 24.4 C 392.3 23.1 392.7 22.2 393.4 21.5 C 394.2 20.9 395.2 20.5 396.5 20.5 C 397.8 20.5 398.8 20.9 399.5 21.6 C 400.3 22.3 400.6 23.2 400.6 24.3 C 400.6 24.8 400.5 25.3 400.3 25.8 C 400.1 26.3 399.7 26.9 399.2 27.5 C 398.7 28 397.9 28.8 396.7 29.8 C 395.7 30.6 395.1 31.2 394.8 31.5 C 394.5 31.8 394.3 32.1 394.1 32.4 C 394.11 32.38 400.7 32.4 400.7 32.4 Z M 415.1 18 C 415.1 18 418 18.3 418 18.3 C 417.6 20 416.7 21.3 415.5 22.3 C 414.2 23.2 412.6 23.7 410.7 23.7 C 408.3 23.7 406.4 22.9 404.9 21.4 C 403.5 19.9 402.8 17.8 402.8 15.1 C 402.8 12.3 403.5 10.2 405 8.6 C 406.4 7.1 408.3 6.3 410.6 6.3 C 412.8 6.3 414.6 7.1 416 8.6 C 417.4 10.1 418.1 12.2 418.1 15 C 418.1 15.1 418.1 15.4 418.1 15.7 C 418.1 15.7 405.7 15.7 405.7 15.7 C 405.8 17.5 406.3 18.9 407.3 19.9 C 408.2 20.9 409.3 21.4 410.7 21.4 C 411.8 21.4 412.6 21.1 413.4 20.5 C 414.1 20 414.7 19.1 415.1 18 Z M 405.9 13.4 C 405.9 13.4 415.1 13.4 415.1 13.4 C 415 12 414.7 11 414.1 10.3 C 413.2 9.2 412 8.6 410.6 8.6 C 409.3 8.6 408.2 9.1 407.3 9.9 C 406.5 10.8 406 12 405.9 13.4 Z M 423.4 30 C 423.4 30 421.4 30 421.4 30 C 424.5 25 426 20 426 15 C 426 13.1 425.8 11.1 425.4 9.2 C 425 7.6 424.5 6.1 423.9 4.7 C 423.5 3.8 422.6 2.2 421.4 0 C 421.4 0 423.4 0 423.4 0 C 425.3 2.6 426.8 5.2 427.7 7.9 C 428.5 10.1 428.9 12.5 428.9 15 C 428.9 17.8 428.4 20.5 427.3 23.2 C 426.2 25.8 424.9 28.1 423.4 30 Z " stroke="none" fill="#003a5c"/>
  </g>
</svg>