<?xml version="1.0" standalone="no"?>
<!DOCTYPE svg PUBLIC "-//W3C//DTD SVG 1.1//EN" "http://www.w3.org/Graphics/SVG/1.1/DTD/svg11.dtd">
<svg xmlns="http://www.w3.org/2000/svg" version="1.1" width="768px" height="250.2px" viewBox="0 -7 768 250.2" style="top:-7px">
  <desc>Prepared a bespoke paper for one of the world s largest private equity investors analyzing the potential for ESG liti</desc>
  <defs/>
  <g id="Polygon59360">
    <path d="M 8.4 38.6 C 8.3 38.2 8.1 37.8 8.1 37.3 C 7.4 37.8 6.8 38.2 6.2 38.5 C 5.6 38.7 5 38.8 4.3 38.8 C 3.1 38.8 2.3 38.5 1.6 38 C 1 37.4 0.7 36.7 0.7 35.8 C 0.7 35.3 0.8 34.9 1.1 34.4 C 1.3 34 1.6 33.7 2 33.4 C 2.4 33.2 2.8 33 3.2 32.8 C 3.6 32.8 4.1 32.7 4.8 32.6 C 6.2 32.4 7.3 32.2 7.9 32 C 7.9 31.7 7.9 31.6 7.9 31.5 C 7.9 30.8 7.8 30.3 7.5 30 C 7 29.6 6.3 29.4 5.4 29.4 C 4.6 29.4 4 29.6 3.6 29.8 C 3.2 30.1 2.9 30.6 2.7 31.4 C 2.7 31.4 1 31.1 1 31.1 C 1.2 30.4 1.4 29.8 1.8 29.4 C 2.2 28.9 2.7 28.6 3.3 28.3 C 4 28.1 4.8 28 5.7 28 C 6.6 28 7.3 28.1 7.9 28.3 C 8.4 28.5 8.8 28.7 9.1 29.1 C 9.3 29.4 9.5 29.8 9.6 30.3 C 9.7 30.5 9.7 31.1 9.7 31.9 C 9.7 31.9 9.7 34.2 9.7 34.2 C 9.7 35.8 9.8 36.9 9.8 37.3 C 9.9 37.7 10.1 38.2 10.3 38.6 C 10.27 38.56 8.4 38.6 8.4 38.6 C 8.4 38.6 8.44 38.56 8.4 38.6 Z M 7.9 33.4 C 7.3 33.6 6.3 33.8 5.1 34 C 4.3 34.1 3.8 34.2 3.5 34.4 C 3.2 34.5 3 34.7 2.8 34.9 C 2.7 35.2 2.6 35.5 2.6 35.8 C 2.6 36.2 2.8 36.6 3.1 36.9 C 3.5 37.3 4 37.4 4.7 37.4 C 5.4 37.4 6 37.3 6.5 37 C 7 36.7 7.4 36.3 7.7 35.8 C 7.8 35.4 7.9 34.8 7.9 34 C 7.9 34 7.9 33.4 7.9 33.4 Z M 12.4 38.6 L 12.4 28.2 L 14 28.2 C 14 28.2 14.02 29.66 14 29.7 C 14.8 28.5 15.9 28 17.3 28 C 17.9 28 18.5 28.1 19 28.3 C 19.6 28.5 20 28.8 20.2 29.2 C 20.5 29.5 20.7 30 20.8 30.5 C 20.8 30.8 20.9 31.4 20.9 32.2 C 20.87 32.18 20.9 38.6 20.9 38.6 L 19.1 38.6 C 19.1 38.6 19.11 32.25 19.1 32.3 C 19.1 31.5 19 31 18.9 30.6 C 18.8 30.3 18.5 30 18.2 29.8 C 17.8 29.6 17.4 29.5 17 29.5 C 16.2 29.5 15.6 29.7 15 30.2 C 14.5 30.7 14.2 31.6 14.2 32.9 C 14.2 32.9 14.2 38.6 14.2 38.6 L 12.4 38.6 Z M 30.7 38.6 C 30.5 38.2 30.4 37.8 30.3 37.3 C 29.7 37.8 29.1 38.2 28.5 38.5 C 27.8 38.7 27.2 38.8 26.5 38.8 C 25.4 38.8 24.5 38.5 23.9 38 C 23.3 37.4 23 36.7 23 35.8 C 23 35.3 23.1 34.9 23.3 34.4 C 23.5 34 23.8 33.7 24.2 33.4 C 24.6 33.2 25 33 25.5 32.8 C 25.8 32.8 26.4 32.7 27.1 32.6 C 28.5 32.4 29.5 32.2 30.2 32 C 30.2 31.7 30.2 31.6 30.2 31.5 C 30.2 30.8 30 30.3 29.7 30 C 29.2 29.6 28.6 29.4 27.7 29.4 C 26.9 29.4 26.3 29.6 25.9 29.8 C 25.5 30.1 25.2 30.6 25 31.4 C 25 31.4 23.3 31.1 23.3 31.1 C 23.4 30.4 23.7 29.8 24 29.4 C 24.4 28.9 24.9 28.6 25.6 28.3 C 26.3 28.1 27.1 28 27.9 28 C 28.8 28 29.6 28.1 30.1 28.3 C 30.7 28.5 31.1 28.7 31.3 29.1 C 31.6 29.4 31.8 29.8 31.9 30.3 C 31.9 30.5 32 31.1 32 31.9 C 32 31.9 32 34.2 32 34.2 C 32 35.8 32 36.9 32.1 37.3 C 32.1 37.7 32.3 38.2 32.5 38.6 C 32.52 38.56 30.7 38.6 30.7 38.6 C 30.7 38.6 30.68 38.56 30.7 38.6 Z M 30.2 33.4 C 29.5 33.6 28.6 33.8 27.3 34 C 26.6 34.1 26.1 34.2 25.8 34.4 C 25.5 34.5 25.3 34.7 25.1 34.9 C 24.9 35.2 24.8 35.5 24.8 35.8 C 24.8 36.2 25 36.6 25.4 36.9 C 25.7 37.3 26.3 37.4 26.9 37.4 C 27.6 37.4 28.2 37.3 28.7 37 C 29.3 36.7 29.7 36.3 29.9 35.8 C 30.1 35.4 30.2 34.8 30.2 34 C 30.2 34 30.2 33.4 30.2 33.4 Z M 34.6 38.6 L 34.6 24.2 L 36.4 24.2 L 36.4 38.6 L 34.6 38.6 Z M 40.2 42.8 C 39.8 42.8 39.5 42.7 39.1 42.6 C 39.1 42.6 38.9 40.9 38.9 40.9 C 39.2 41 39.6 41.1 39.9 41.1 C 40.3 41.1 40.6 41 40.8 40.9 C 41 40.7 41.2 40.6 41.4 40.3 C 41.5 40.1 41.7 39.7 41.9 39 C 41.9 38.9 42 38.8 42.1 38.6 C 42.07 38.58 38.1 28.2 38.1 28.2 L 40 28.2 C 40 28.2 42.19 34.2 42.2 34.2 C 42.5 35 42.7 35.8 42.9 36.6 C 43.1 35.8 43.4 35 43.7 34.2 C 43.66 34.23 45.9 28.2 45.9 28.2 L 47.6 28.2 C 47.6 28.2 43.69 38.74 43.7 38.7 C 43.3 39.9 42.9 40.7 42.7 41.1 C 42.4 41.7 42 42.1 41.6 42.4 C 41.2 42.6 40.7 42.8 40.2 42.8 C 40.2 42.8 40.2 42.8 40.2 42.8 Z M 48.2 38.6 L 48.2 37.1 C 48.2 37.1 54.8 29.56 54.8 29.6 C 54.1 29.6 53.4 29.6 52.8 29.6 C 52.82 29.62 48.6 29.6 48.6 29.6 L 48.6 28.2 L 57.1 28.2 L 57.1 29.4 L 51.5 35.9 C 51.5 35.9 50.37 37.13 50.4 37.1 C 51.2 37.1 51.9 37 52.6 37 C 52.59 37.05 57.4 37 57.4 37 L 57.4 38.6 L 48.2 38.6 Z M 59.1 26.3 L 59.1 24.2 L 60.9 24.2 L 60.9 26.3 L 59.1 26.3 Z M 59.1 38.6 L 59.1 28.2 L 60.9 28.2 L 60.9 38.6 L 59.1 38.6 Z M 63.6 38.6 L 63.6 28.2 L 65.2 28.2 C 65.2 28.2 65.16 29.66 65.2 29.7 C 65.9 28.5 67 28 68.5 28 C 69.1 28 69.7 28.1 70.2 28.3 C 70.7 28.5 71.1 28.8 71.4 29.2 C 71.6 29.5 71.8 30 71.9 30.5 C 72 30.8 72 31.4 72 32.2 C 72 32.18 72 38.6 72 38.6 L 70.2 38.6 C 70.2 38.6 70.24 32.25 70.2 32.3 C 70.2 31.5 70.2 31 70 30.6 C 69.9 30.3 69.7 30 69.3 29.8 C 69 29.6 68.6 29.5 68.1 29.5 C 67.3 29.5 66.7 29.7 66.1 30.2 C 65.6 30.7 65.3 31.6 65.3 32.9 C 65.33 32.9 65.3 38.6 65.3 38.6 L 63.6 38.6 Z M 74.4 39.4 C 74.4 39.4 76.1 39.7 76.1 39.7 C 76.2 40.2 76.4 40.6 76.7 40.8 C 77.1 41.2 77.7 41.3 78.5 41.3 C 79.3 41.3 79.9 41.2 80.4 40.8 C 80.8 40.5 81.1 40 81.3 39.5 C 81.3 39.1 81.4 38.3 81.4 37.2 C 80.6 38.1 79.7 38.6 78.5 38.6 C 77.1 38.6 76 38 75.2 37 C 74.4 36 74 34.8 74 33.3 C 74 32.3 74.2 31.4 74.6 30.6 C 74.9 29.7 75.4 29.1 76.1 28.6 C 76.8 28.2 77.6 28 78.5 28 C 79.7 28 80.7 28.4 81.5 29.4 C 81.54 29.44 81.5 28.2 81.5 28.2 L 83.2 28.2 C 83.2 28.2 83.16 37.15 83.2 37.2 C 83.2 38.8 83 39.9 82.7 40.6 C 82.3 41.3 81.8 41.8 81.1 42.2 C 80.4 42.6 79.5 42.8 78.5 42.8 C 77.2 42.8 76.2 42.5 75.5 41.9 C 74.7 41.4 74.3 40.5 74.4 39.4 Z M 75.8 33.2 C 75.8 34.6 76.1 35.5 76.6 36.2 C 77.2 36.8 77.9 37.1 78.7 37.1 C 79.5 37.1 80.2 36.8 80.7 36.2 C 81.3 35.6 81.5 34.6 81.5 33.2 C 81.5 32 81.2 31 80.7 30.4 C 80.1 29.7 79.4 29.4 78.6 29.4 C 77.9 29.4 77.2 29.7 76.7 30.4 C 76.1 31 75.8 31.9 75.8 33.2 Z M 94.4 37.1 C 94.6 37.1 94.9 37 95.2 37 C 95.2 37 95.5 38.5 95.5 38.5 C 95 38.6 94.5 38.7 94.1 38.7 C 93.5 38.7 93 38.6 92.7 38.4 C 92.3 38.2 92.1 37.9 91.9 37.6 C 91.8 37.3 91.7 36.6 91.7 35.5 C 91.7 35.52 91.7 29.6 91.7 29.6 L 90.4 29.6 L 90.4 28.2 L 91.7 28.2 L 91.7 25.6 L 93.4 24.6 L 93.4 28.2 L 95.2 28.2 L 95.2 29.6 L 93.4 29.6 C 93.4 29.6 93.45 35.62 93.4 35.6 C 93.4 36.1 93.5 36.4 93.5 36.6 C 93.6 36.7 93.7 36.8 93.8 36.9 C 94 37 94.2 37.1 94.4 37.1 C 94.4 37.1 94.4 37.1 94.4 37.1 Z M 96.9 38.6 L 96.9 24.2 L 98.7 24.2 C 98.7 24.2 98.69 29.38 98.7 29.4 C 99.5 28.4 100.5 28 101.8 28 C 102.6 28 103.2 28.1 103.8 28.4 C 104.4 28.7 104.8 29.1 105 29.7 C 105.3 30.2 105.4 31 105.4 32 C 105.38 31.99 105.4 38.6 105.4 38.6 L 103.6 38.6 C 103.6 38.6 103.62 31.99 103.6 32 C 103.6 31.1 103.4 30.5 103.1 30.1 C 102.7 29.7 102.1 29.5 101.4 29.5 C 100.9 29.5 100.4 29.6 100 29.9 C 99.5 30.1 99.2 30.5 99 31 C 98.8 31.4 98.7 32.1 98.7 32.9 C 98.69 32.89 98.7 38.6 98.7 38.6 L 96.9 38.6 Z M 115.2 35.2 C 115.2 35.2 117 35.4 117 35.4 C 116.7 36.5 116.2 37.3 115.4 37.9 C 114.6 38.5 113.6 38.8 112.4 38.8 C 110.9 38.8 109.7 38.3 108.8 37.4 C 107.9 36.5 107.5 35.1 107.5 33.5 C 107.5 31.7 107.9 30.4 108.8 29.4 C 109.7 28.4 110.9 28 112.3 28 C 113.7 28 114.8 28.4 115.7 29.4 C 116.6 30.3 117 31.6 117 33.4 C 117 33.5 117 33.6 117 33.8 C 117 33.8 109.3 33.8 109.3 33.8 C 109.4 35 109.7 35.8 110.3 36.4 C 110.8 37 111.6 37.3 112.4 37.3 C 113.1 37.3 113.6 37.2 114.1 36.8 C 114.5 36.5 114.9 36 115.2 35.2 Z M 109.4 32.4 C 109.4 32.4 115.2 32.4 115.2 32.4 C 115.1 31.5 114.9 30.9 114.5 30.4 C 114 29.7 113.2 29.4 112.3 29.4 C 111.5 29.4 110.8 29.7 110.3 30.2 C 109.7 30.8 109.4 31.5 109.4 32.4 Z M 124.7 42.5 L 124.7 28.2 L 126.3 28.2 C 126.3 28.2 126.34 29.54 126.3 29.5 C 126.7 29 127.1 28.6 127.6 28.4 C 128.1 28.1 128.7 28 129.3 28 C 130.2 28 131 28.2 131.7 28.6 C 132.4 29.1 132.9 29.7 133.2 30.6 C 133.6 31.4 133.7 32.3 133.7 33.3 C 133.7 34.4 133.5 35.3 133.2 36.2 C 132.8 37 132.2 37.7 131.5 38.1 C 130.8 38.6 130 38.8 129.2 38.8 C 128.6 38.8 128.1 38.7 127.6 38.4 C 127.2 38.2 126.8 37.9 126.5 37.5 C 126.49 37.49 126.5 42.5 126.5 42.5 L 124.7 42.5 Z M 126.3 33.4 C 126.3 34.8 126.6 35.8 127.1 36.4 C 127.7 37 128.3 37.3 129.1 37.3 C 129.9 37.3 130.6 37 131.1 36.4 C 131.7 35.7 131.9 34.7 131.9 33.3 C 131.9 32 131.7 31 131.1 30.3 C 130.6 29.7 129.9 29.3 129.2 29.3 C 128.4 29.3 127.8 29.7 127.2 30.4 C 126.6 31.1 126.3 32.1 126.3 33.4 Z M 135.2 33.4 C 135.2 31.5 135.7 30 136.8 29.1 C 137.7 28.3 138.8 28 140.1 28 C 141.5 28 142.7 28.4 143.6 29.4 C 144.5 30.3 144.9 31.6 144.9 33.2 C 144.9 34.6 144.7 35.6 144.3 36.4 C 143.9 37.1 143.3 37.7 142.6 38.2 C 141.8 38.6 141 38.8 140.1 38.8 C 138.6 38.8 137.4 38.3 136.5 37.4 C 135.7 36.5 135.2 35.1 135.2 33.4 Z M 137 33.4 C 137 34.7 137.3 35.7 137.9 36.4 C 138.5 37 139.2 37.3 140.1 37.3 C 140.9 37.3 141.7 37 142.2 36.4 C 142.8 35.7 143.1 34.7 143.1 33.3 C 143.1 32 142.8 31.1 142.2 30.4 C 141.7 29.7 140.9 29.4 140.1 29.4 C 139.2 29.4 138.5 29.7 137.9 30.4 C 137.3 31.1 137 32 137 33.4 Z M 150 37.1 C 150.2 37.1 150.5 37 150.8 37 C 150.8 37 151.1 38.5 151.1 38.5 C 150.6 38.6 150.1 38.7 149.7 38.7 C 149.1 38.7 148.6 38.6 148.3 38.4 C 147.9 38.2 147.7 37.9 147.5 37.6 C 147.4 37.3 147.3 36.6 147.3 35.5 C 147.3 35.52 147.3 29.6 147.3 29.6 L 146 29.6 L 146 28.2 L 147.3 28.2 L 147.3 25.6 L 149.1 24.6 L 149.1 28.2 L 150.8 28.2 L 150.8 29.6 L 149.1 29.6 C 149.1 29.6 149.05 35.62 149.1 35.6 C 149.1 36.1 149.1 36.4 149.1 36.6 C 149.2 36.7 149.3 36.8 149.4 36.9 C 149.6 37 149.8 37.1 150 37.1 C 150 37.1 150 37.1 150 37.1 Z M 159.6 35.2 C 159.6 35.2 161.5 35.4 161.5 35.4 C 161.2 36.5 160.6 37.3 159.9 37.9 C 159.1 38.5 158.1 38.8 156.9 38.8 C 155.4 38.8 154.2 38.3 153.3 37.4 C 152.4 36.5 152 35.1 152 33.5 C 152 31.7 152.4 30.4 153.3 29.4 C 154.2 28.4 155.4 28 156.8 28 C 158.2 28 159.3 28.4 160.2 29.4 C 161.1 30.3 161.5 31.6 161.5 33.4 C 161.5 33.5 161.5 33.6 161.5 33.8 C 161.5 33.8 153.8 33.8 153.8 33.8 C 153.8 35 154.2 35.8 154.7 36.4 C 155.3 37 156 37.3 156.9 37.3 C 157.5 37.3 158.1 37.2 158.6 36.8 C 159 36.5 159.4 36 159.6 35.2 Z M 153.9 32.4 C 153.9 32.4 159.7 32.4 159.7 32.4 C 159.6 31.5 159.4 30.9 159 30.4 C 158.4 29.7 157.7 29.4 156.8 29.4 C 156 29.4 155.3 29.7 154.8 30.2 C 154.2 30.8 153.9 31.5 153.9 32.4 Z M 163.7 38.6 L 163.7 28.2 L 165.2 28.2 C 165.2 28.2 165.24 29.66 165.2 29.7 C 166 28.5 167.1 28 168.5 28 C 169.2 28 169.7 28.1 170.3 28.3 C 170.8 28.5 171.2 28.8 171.4 29.2 C 171.7 29.5 171.9 30 172 30.5 C 172.1 30.8 172.1 31.4 172.1 32.2 C 172.09 32.18 172.1 38.6 172.1 38.6 L 170.3 38.6 C 170.3 38.6 170.33 32.25 170.3 32.3 C 170.3 31.5 170.3 31 170.1 30.6 C 170 30.3 169.7 30 169.4 29.8 C 169.1 29.6 168.6 29.5 168.2 29.5 C 167.4 29.5 166.8 29.7 166.2 30.2 C 165.7 30.7 165.4 31.6 165.4 32.9 C 165.42 32.9 165.4 38.6 165.4 38.6 L 163.7 38.6 Z M 177.9 37.1 C 178 37.1 178.3 37 178.6 37 C 178.6 37 178.9 38.5 178.9 38.5 C 178.4 38.6 177.9 38.7 177.5 38.7 C 176.9 38.7 176.4 38.6 176.1 38.4 C 175.7 38.2 175.5 37.9 175.3 37.6 C 175.2 37.3 175.1 36.6 175.1 35.5 C 175.11 35.52 175.1 29.6 175.1 29.6 L 173.8 29.6 L 173.8 28.2 L 175.1 28.2 L 175.1 25.6 L 176.9 24.6 L 176.9 28.2 L 178.6 28.2 L 178.6 29.6 L 176.9 29.6 C 176.9 29.6 176.86 35.62 176.9 35.6 C 176.9 36.1 176.9 36.4 176.9 36.6 C 177 36.7 177.1 36.8 177.3 36.9 C 177.4 37 177.6 37.1 177.9 37.1 C 177.9 37.1 177.9 37.1 177.9 37.1 Z M 180.4 26.3 L 180.4 24.2 L 182.1 24.2 L 182.1 26.3 L 180.4 26.3 Z M 180.4 38.6 L 180.4 28.2 L 182.1 28.2 L 182.1 38.6 L 180.4 38.6 Z M 191.9 38.6 C 191.7 38.2 191.6 37.8 191.6 37.3 C 190.9 37.8 190.3 38.2 189.7 38.5 C 189.1 38.7 188.4 38.8 187.7 38.8 C 186.6 38.8 185.7 38.5 185.1 38 C 184.5 37.4 184.2 36.7 184.2 35.8 C 184.2 35.3 184.3 34.9 184.5 34.4 C 184.8 34 185.1 33.7 185.4 33.4 C 185.8 33.2 186.2 33 186.7 32.8 C 187.1 32.8 187.6 32.7 188.3 32.6 C 189.7 32.4 190.7 32.2 191.4 32 C 191.4 31.7 191.4 31.6 191.4 31.5 C 191.4 30.8 191.3 30.3 190.9 30 C 190.5 29.6 189.8 29.4 188.9 29.4 C 188.1 29.4 187.5 29.6 187.1 29.8 C 186.7 30.1 186.4 30.6 186.2 31.4 C 186.2 31.4 184.5 31.1 184.5 31.1 C 184.6 30.4 184.9 29.8 185.3 29.4 C 185.6 28.9 186.1 28.6 186.8 28.3 C 187.5 28.1 188.3 28 189.2 28 C 190.1 28 190.8 28.1 191.3 28.3 C 191.9 28.5 192.3 28.7 192.5 29.1 C 192.8 29.4 193 29.8 193.1 30.3 C 193.2 30.5 193.2 31.1 193.2 31.9 C 193.2 31.9 193.2 34.2 193.2 34.2 C 193.2 35.8 193.2 36.9 193.3 37.3 C 193.4 37.7 193.5 38.2 193.7 38.6 C 193.74 38.56 191.9 38.6 191.9 38.6 C 191.9 38.6 191.9 38.56 191.9 38.6 Z M 191.4 33.4 C 190.8 33.6 189.8 33.8 188.5 34 C 187.8 34.1 187.3 34.2 187 34.4 C 186.7 34.5 186.5 34.7 186.3 34.9 C 186.1 35.2 186.1 35.5 186.1 35.8 C 186.1 36.2 186.2 36.6 186.6 36.9 C 187 37.3 187.5 37.4 188.2 37.4 C 188.8 37.4 189.4 37.3 190 37 C 190.5 36.7 190.9 36.3 191.1 35.8 C 191.3 35.4 191.4 34.8 191.4 34 C 191.4 34 191.4 33.4 191.4 33.4 Z M 195.9 38.6 L 195.9 24.2 L 197.6 24.2 L 197.6 38.6 L 195.9 38.6 Z M 206.3 38.6 L 206.3 29.6 L 204.8 29.6 L 204.8 28.2 L 206.3 28.2 C 206.3 28.2 206.33 27.09 206.3 27.1 C 206.3 26.4 206.4 25.9 206.5 25.5 C 206.7 25.1 207 24.7 207.4 24.4 C 207.8 24.1 208.4 24 209.2 24 C 209.7 24 210.2 24.1 210.8 24.2 C 210.8 24.2 210.6 25.7 210.6 25.7 C 210.2 25.6 209.9 25.6 209.5 25.6 C 209 25.6 208.6 25.7 208.4 26 C 208.2 26.2 208.1 26.6 208.1 27.2 C 208.08 27.23 208.1 28.2 208.1 28.2 L 210.1 28.2 L 210.1 29.6 L 208.1 29.6 L 208.1 38.6 L 206.3 38.6 Z M 210.8 33.4 C 210.8 31.5 211.3 30 212.4 29.1 C 213.3 28.3 214.4 28 215.7 28 C 217.1 28 218.3 28.4 219.2 29.4 C 220.1 30.3 220.5 31.6 220.5 33.2 C 220.5 34.6 220.3 35.6 219.9 36.4 C 219.5 37.1 218.9 37.7 218.2 38.2 C 217.4 38.6 216.6 38.8 215.7 38.8 C 214.2 38.8 213 38.3 212.2 37.4 C 211.3 36.5 210.8 35.1 210.8 33.4 Z M 212.6 33.4 C 212.6 34.7 212.9 35.7 213.5 36.4 C 214.1 37 214.8 37.3 215.7 37.3 C 216.5 37.3 217.3 37 217.9 36.4 C 218.4 35.7 218.7 34.7 218.7 33.3 C 218.7 32 218.4 31.1 217.8 30.4 C 217.3 29.7 216.5 29.4 215.7 29.4 C 214.8 29.4 214.1 29.7 213.5 30.4 C 212.9 31.1 212.6 32 212.6 33.4 Z M 222.6 38.6 L 222.6 28.2 L 224.2 28.2 C 224.2 28.2 224.15 29.76 224.2 29.8 C 224.6 29 224.9 28.5 225.3 28.3 C 225.6 28.1 226 28 226.4 28 C 227 28 227.6 28.1 228.2 28.5 C 228.2 28.5 227.6 30.2 227.6 30.2 C 227.2 29.9 226.7 29.8 226.3 29.8 C 225.9 29.8 225.6 29.9 225.3 30.1 C 225 30.3 224.7 30.7 224.6 31.1 C 224.4 31.7 224.3 32.4 224.3 33.1 C 224.33 33.13 224.3 38.6 224.3 38.6 L 222.6 38.6 Z M 235.1 38.6 L 235.1 24.2 L 245.4 24.2 L 245.4 25.9 L 237 25.9 L 237 30.3 L 244.9 30.3 L 244.9 32 L 237 32 L 237 36.9 L 245.8 36.9 L 245.8 38.6 L 235.1 38.6 Z M 247.7 34 C 247.7 34 249.5 33.8 249.5 33.8 C 249.6 34.5 249.8 35.1 250.1 35.6 C 250.4 36 250.9 36.4 251.5 36.7 C 252.2 37 252.9 37.1 253.7 37.1 C 254.5 37.1 255.1 37 255.7 36.8 C 256.2 36.6 256.6 36.3 256.9 35.9 C 257.2 35.5 257.3 35.1 257.3 34.7 C 257.3 34.2 257.2 33.8 256.9 33.5 C 256.6 33.2 256.2 32.9 255.6 32.7 C 255.2 32.5 254.4 32.3 253.1 32 C 251.8 31.6 250.8 31.3 250.3 31.1 C 249.6 30.7 249.1 30.3 248.8 29.7 C 248.4 29.2 248.3 28.6 248.3 27.9 C 248.3 27.2 248.5 26.5 248.9 25.9 C 249.3 25.3 249.9 24.8 250.7 24.5 C 251.5 24.2 252.3 24 253.3 24 C 254.4 24 255.3 24.2 256.1 24.5 C 256.9 24.9 257.6 25.4 258 26 C 258.4 26.7 258.7 27.4 258.7 28.3 C 258.7 28.3 256.9 28.4 256.9 28.4 C 256.8 27.5 256.4 26.8 255.9 26.4 C 255.3 25.9 254.5 25.7 253.4 25.7 C 252.2 25.7 251.4 25.9 250.9 26.3 C 250.4 26.7 250.1 27.2 250.1 27.8 C 250.1 28.3 250.3 28.8 250.7 29.1 C 251 29.4 252 29.8 253.5 30.1 C 255.1 30.5 256.1 30.8 256.7 31 C 257.5 31.4 258.1 31.9 258.5 32.5 C 258.9 33.1 259.1 33.7 259.1 34.5 C 259.1 35.3 258.9 36 258.5 36.7 C 258 37.3 257.4 37.9 256.6 38.2 C 255.8 38.6 254.9 38.8 253.8 38.8 C 252.5 38.8 251.4 38.6 250.6 38.2 C 249.7 37.9 249 37.3 248.5 36.5 C 248 35.8 247.8 34.9 247.7 34 Z M 268.4 32.9 L 268.4 31.3 L 274.5 31.3 C 274.5 31.3 274.47 36.57 274.5 36.6 C 273.5 37.3 272.6 37.9 271.6 38.2 C 270.6 38.6 269.6 38.8 268.5 38.8 C 267.1 38.8 265.9 38.5 264.7 37.9 C 263.6 37.3 262.7 36.4 262.1 35.3 C 261.5 34.1 261.2 32.9 261.2 31.5 C 261.2 30.1 261.5 28.8 262.1 27.6 C 262.7 26.4 263.5 25.5 264.6 24.9 C 265.7 24.3 267 24 268.4 24 C 269.4 24 270.4 24.2 271.2 24.5 C 272 24.8 272.7 25.3 273.2 25.9 C 273.6 26.5 274 27.3 274.3 28.2 C 274.3 28.2 272.5 28.7 272.5 28.7 C 272.3 28 272.1 27.4 271.7 27 C 271.4 26.6 271 26.2 270.4 26 C 269.8 25.7 269.1 25.6 268.4 25.6 C 267.5 25.6 266.8 25.8 266.2 26 C 265.5 26.3 265 26.6 264.6 27.1 C 264.2 27.5 263.9 28 263.7 28.5 C 263.4 29.4 263.2 30.3 263.2 31.4 C 263.2 32.6 263.4 33.7 263.8 34.6 C 264.3 35.4 264.9 36.1 265.8 36.5 C 266.6 36.9 267.5 37.1 268.4 37.1 C 269.3 37.1 270.1 36.9 270.8 36.6 C 271.6 36.3 272.2 36 272.6 35.6 C 272.62 35.61 272.6 32.9 272.6 32.9 L 268.4 32.9 Z M 282.6 38.6 L 282.6 24.2 L 284.3 24.2 L 284.3 38.6 L 282.6 38.6 Z M 287.1 26.3 L 287.1 24.2 L 288.8 24.2 L 288.8 26.3 L 287.1 26.3 Z M 287.1 38.6 L 287.1 28.2 L 288.8 28.2 L 288.8 38.6 L 287.1 38.6 Z M 294.6 37.1 C 294.7 37.1 295 37 295.3 37 C 295.3 37 295.6 38.5 295.6 38.5 C 295.1 38.6 294.6 38.7 294.2 38.7 C 293.6 38.7 293.1 38.6 292.8 38.4 C 292.4 38.2 292.2 37.9 292 37.6 C 291.9 37.3 291.8 36.6 291.8 35.5 C 291.81 35.52 291.8 29.6 291.8 29.6 L 290.5 29.6 L 290.5 28.2 L 291.8 28.2 L 291.8 25.6 L 293.6 24.6 L 293.6 28.2 L 295.3 28.2 L 295.3 29.6 L 293.6 29.6 C 293.6 29.6 293.55 35.62 293.6 35.6 C 293.6 36.1 293.6 36.4 293.6 36.6 C 293.7 36.7 293.8 36.8 294 36.9 C 294.1 37 294.3 37.1 294.6 37.1 C 294.6 37.1 294.6 37.1 294.6 37.1 Z M 297.1 26.3 L 297.1 24.2 L 298.8 24.2 L 298.8 26.3 L 297.1 26.3 Z M 297.1 38.6 L 297.1 28.2 L 298.8 28.2 L 298.8 38.6 L 297.1 38.6 Z M 301.2 39.4 C 301.2 39.4 302.9 39.7 302.9 39.7 C 302.9 40.2 303.1 40.6 303.5 40.8 C 303.9 41.2 304.5 41.3 305.3 41.3 C 306.1 41.3 306.7 41.2 307.1 40.8 C 307.6 40.5 307.9 40 308 39.5 C 308.1 39.1 308.2 38.3 308.2 37.2 C 307.4 38.1 306.4 38.6 305.3 38.6 C 303.9 38.6 302.8 38 302 37 C 301.2 36 300.8 34.8 300.8 33.3 C 300.8 32.3 301 31.4 301.3 30.6 C 301.7 29.7 302.2 29.1 302.9 28.6 C 303.6 28.2 304.4 28 305.3 28 C 306.5 28 307.5 28.4 308.3 29.4 C 308.33 29.44 308.3 28.2 308.3 28.2 L 310 28.2 C 310 28.2 309.95 37.15 310 37.2 C 310 38.8 309.8 39.9 309.5 40.6 C 309.1 41.3 308.6 41.8 307.9 42.2 C 307.2 42.6 306.3 42.8 305.3 42.8 C 304 42.8 303 42.5 302.3 41.9 C 301.5 41.4 301.1 40.5 301.2 39.4 Z M 302.6 33.2 C 302.6 34.6 302.9 35.5 303.4 36.2 C 304 36.8 304.6 37.1 305.5 37.1 C 306.3 37.1 306.9 36.8 307.5 36.2 C 308 35.6 308.3 34.6 308.3 33.2 C 308.3 32 308 31 307.5 30.4 C 306.9 29.7 306.2 29.4 305.4 29.4 C 304.6 29.4 304 29.7 303.4 30.4 C 302.9 31 302.6 31.9 302.6 33.2 Z M 319.7 38.6 C 319.5 38.2 319.4 37.8 319.4 37.3 C 318.7 37.8 318.1 38.2 317.5 38.5 C 316.9 38.7 316.2 38.8 315.6 38.8 C 314.4 38.8 313.5 38.5 312.9 38 C 312.3 37.4 312 36.7 312 35.8 C 312 35.3 312.1 34.9 312.4 34.4 C 312.6 34 312.9 33.7 313.3 33.4 C 313.6 33.2 314.1 33 314.5 32.8 C 314.9 32.8 315.4 32.7 316.1 32.6 C 317.5 32.4 318.6 32.2 319.2 32 C 319.2 31.7 319.2 31.6 319.2 31.5 C 319.2 30.8 319.1 30.3 318.7 30 C 318.3 29.6 317.6 29.4 316.7 29.4 C 315.9 29.4 315.3 29.6 314.9 29.8 C 314.5 30.1 314.2 30.6 314 31.4 C 314 31.4 312.3 31.1 312.3 31.1 C 312.5 30.4 312.7 29.8 313.1 29.4 C 313.4 28.9 314 28.6 314.6 28.3 C 315.3 28.1 316.1 28 317 28 C 317.9 28 318.6 28.1 319.2 28.3 C 319.7 28.5 320.1 28.7 320.4 29.1 C 320.6 29.4 320.8 29.8 320.9 30.3 C 321 30.5 321 31.1 321 31.9 C 321 31.9 321 34.2 321 34.2 C 321 35.8 321 36.9 321.1 37.3 C 321.2 37.7 321.3 38.2 321.6 38.6 C 321.56 38.56 319.7 38.6 319.7 38.6 C 319.7 38.6 319.73 38.56 319.7 38.6 Z M 319.2 33.4 C 318.6 33.6 317.6 33.8 316.4 34 C 315.6 34.1 315.1 34.2 314.8 34.4 C 314.5 34.5 314.3 34.7 314.1 34.9 C 314 35.2 313.9 35.5 313.9 35.8 C 313.9 36.2 314.1 36.6 314.4 36.9 C 314.8 37.3 315.3 37.4 316 37.4 C 316.7 37.4 317.3 37.3 317.8 37 C 318.3 36.7 318.7 36.3 318.9 35.8 C 319.1 35.4 319.2 34.8 319.2 34 C 319.2 34 319.2 33.4 319.2 33.4 Z M 326.8 37.1 C 327 37.1 327.2 37 327.6 37 C 327.6 37 327.8 38.5 327.8 38.5 C 327.3 38.6 326.9 38.7 326.5 38.7 C 325.9 38.7 325.4 38.6 325 38.4 C 324.7 38.2 324.4 37.9 324.3 37.6 C 324.1 37.3 324.1 36.6 324.1 35.5 C 324.05 35.52 324.1 29.6 324.1 29.6 L 322.8 29.6 L 322.8 28.2 L 324.1 28.2 L 324.1 25.6 L 325.8 24.6 L 325.8 28.2 L 327.6 28.2 L 327.6 29.6 L 325.8 29.6 C 325.8 29.6 325.8 35.62 325.8 35.6 C 325.8 36.1 325.8 36.4 325.9 36.6 C 326 36.7 326.1 36.8 326.2 36.9 C 326.3 37 326.5 37.1 326.8 37.1 C 326.8 37.1 326.8 37.1 326.8 37.1 Z M 329.3 26.3 L 329.3 24.2 L 331.1 24.2 L 331.1 26.3 L 329.3 26.3 Z M 329.3 38.6 L 329.3 28.2 L 331.1 28.2 L 331.1 38.6 L 329.3 38.6 Z M 333.1 33.4 C 333.1 31.5 333.6 30 334.7 29.1 C 335.6 28.3 336.7 28 337.9 28 C 339.4 28 340.5 28.4 341.4 29.4 C 342.3 30.3 342.8 31.6 342.8 33.2 C 342.8 34.6 342.6 35.6 342.2 36.4 C 341.8 37.1 341.2 37.7 340.4 38.2 C 339.7 38.6 338.8 38.8 337.9 38.8 C 336.5 38.8 335.3 38.3 334.4 37.4 C 333.5 36.5 333.1 35.1 333.1 33.4 Z M 334.9 33.4 C 334.9 34.7 335.2 35.7 335.8 36.4 C 336.3 37 337.1 37.3 337.9 37.3 C 338.8 37.3 339.5 37 340.1 36.4 C 340.7 35.7 341 34.7 341 33.3 C 341 32 340.7 31.1 340.1 30.4 C 339.5 29.7 338.8 29.4 337.9 29.4 C 337.1 29.4 336.3 29.7 335.8 30.4 C 335.2 31.1 334.9 32 334.9 33.4 Z M 344.9 38.6 L 344.9 28.2 L 346.4 28.2 C 346.4 28.2 346.44 29.66 346.4 29.7 C 347.2 28.5 348.3 28 349.7 28 C 350.4 28 350.9 28.1 351.5 28.3 C 352 28.5 352.4 28.8 352.6 29.2 C 352.9 29.5 353.1 30 353.2 30.5 C 353.2 30.8 353.3 31.4 353.3 32.2 C 353.28 32.18 353.3 38.6 353.3 38.6 L 351.5 38.6 C 351.5 38.6 351.52 32.25 351.5 32.3 C 351.5 31.5 351.5 31 351.3 30.6 C 351.2 30.3 350.9 30 350.6 29.8 C 350.2 29.6 349.8 29.5 349.4 29.5 C 348.6 29.5 348 29.7 347.4 30.2 C 346.9 30.7 346.6 31.6 346.6 32.9 C 346.61 32.9 346.6 38.6 346.6 38.6 L 344.9 38.6 Z M 361.5 38.6 L 361.5 28.2 L 363.1 28.2 C 363.1 28.2 363.1 29.76 363.1 29.8 C 363.5 29 363.9 28.5 364.2 28.3 C 364.6 28.1 364.9 28 365.3 28 C 365.9 28 366.5 28.1 367.1 28.5 C 367.1 28.5 366.5 30.2 366.5 30.2 C 366.1 29.9 365.7 29.8 365.3 29.8 C 364.9 29.8 364.5 29.9 364.2 30.1 C 363.9 30.3 363.7 30.7 363.6 31.1 C 363.4 31.7 363.3 32.4 363.3 33.1 C 363.27 33.13 363.3 38.6 363.3 38.6 L 361.5 38.6 Z M 368.2 26.3 L 368.2 24.2 L 370 24.2 L 370 26.3 L 368.2 26.3 Z M 368.2 38.6 L 368.2 28.2 L 370 28.2 L 370 38.6 L 368.2 38.6 Z M 371.9 35.5 C 371.9 35.5 373.7 35.2 373.7 35.2 C 373.8 35.9 374 36.4 374.5 36.8 C 374.9 37.2 375.6 37.3 376.4 37.3 C 377.2 37.3 377.8 37.2 378.2 36.9 C 378.5 36.5 378.7 36.1 378.7 35.7 C 378.7 35.3 378.6 35 378.2 34.8 C 378 34.6 377.4 34.4 376.4 34.2 C 375.1 33.8 374.2 33.6 373.7 33.3 C 373.2 33.1 372.9 32.8 372.6 32.3 C 372.4 31.9 372.2 31.5 372.2 30.9 C 372.2 30.5 372.3 30.1 372.5 29.7 C 372.8 29.3 373 28.9 373.4 28.7 C 373.7 28.5 374.1 28.3 374.5 28.2 C 375 28 375.5 28 376 28 C 376.9 28 377.6 28.1 378.2 28.3 C 378.8 28.5 379.3 28.9 379.6 29.3 C 379.8 29.7 380 30.2 380.2 30.9 C 380.2 30.9 378.4 31.1 378.4 31.1 C 378.4 30.6 378.1 30.1 377.8 29.8 C 377.4 29.6 376.9 29.4 376.2 29.4 C 375.4 29.4 374.8 29.5 374.4 29.8 C 374.1 30.1 373.9 30.4 373.9 30.7 C 373.9 31 374 31.2 374.1 31.4 C 374.3 31.5 374.5 31.7 374.8 31.8 C 375 31.9 375.5 32 376.4 32.3 C 377.6 32.6 378.5 32.9 379 33.1 C 379.5 33.3 379.8 33.6 380.1 34 C 380.4 34.4 380.5 34.9 380.5 35.5 C 380.5 36.1 380.4 36.7 380 37.2 C 379.7 37.7 379.2 38.1 378.6 38.4 C 377.9 38.7 377.2 38.8 376.4 38.8 C 375 38.8 374 38.5 373.3 38 C 372.6 37.4 372.1 36.6 371.9 35.5 Z M 382.6 38.6 L 382.6 24.2 L 384.4 24.2 L 384.4 32.4 L 388.6 28.2 L 390.8 28.2 L 386.9 32 L 391.2 38.6 L 389.1 38.6 L 385.6 33.3 L 384.4 34.4 L 384.4 38.6 L 382.6 38.6 Z M 391.9 35.5 C 391.9 35.5 393.7 35.2 393.7 35.2 C 393.8 35.9 394 36.4 394.5 36.8 C 394.9 37.2 395.6 37.3 396.4 37.3 C 397.2 37.3 397.8 37.2 398.2 36.9 C 398.5 36.5 398.7 36.1 398.7 35.7 C 398.7 35.3 398.6 35 398.2 34.8 C 398 34.6 397.4 34.4 396.4 34.2 C 395.1 33.8 394.2 33.6 393.7 33.3 C 393.2 33.1 392.9 32.8 392.6 32.3 C 392.4 31.9 392.2 31.5 392.2 30.9 C 392.2 30.5 392.3 30.1 392.5 29.7 C 392.8 29.3 393 28.9 393.4 28.7 C 393.7 28.5 394.1 28.3 394.5 28.2 C 395 28 395.5 28 396 28 C 396.9 28 397.6 28.1 398.2 28.3 C 398.8 28.5 399.3 28.9 399.6 29.3 C 399.8 29.7 400 30.2 400.2 30.9 C 400.2 30.9 398.4 31.1 398.4 31.1 C 398.4 30.6 398.1 30.1 397.8 29.8 C 397.4 29.6 396.9 29.4 396.2 29.4 C 395.4 29.4 394.8 29.5 394.4 29.8 C 394.1 30.1 393.9 30.4 393.9 30.7 C 393.9 31 394 31.2 394.1 31.4 C 394.3 31.5 394.5 31.7 394.8 31.8 C 395 31.9 395.5 32 396.4 32.3 C 397.6 32.6 398.5 32.9 399 33.1 C 399.5 33.3 399.8 33.6 400.1 34 C 400.4 34.4 400.5 34.9 400.5 35.5 C 400.5 36.1 400.4 36.7 400 37.2 C 399.7 37.7 399.2 38.1 398.6 38.4 C 397.9 38.7 397.2 38.8 396.4 38.8 C 395 38.8 394 38.5 393.3 38 C 392.6 37.4 392.1 36.6 391.9 35.5 Z M 415.3 38.6 C 415.1 38.2 415 37.8 415 37.3 C 414.3 37.8 413.7 38.2 413.1 38.5 C 412.5 38.7 411.8 38.8 411.1 38.8 C 410 38.8 409.1 38.5 408.5 38 C 407.9 37.4 407.6 36.7 407.6 35.8 C 407.6 35.3 407.7 34.9 407.9 34.4 C 408.2 34 408.5 33.7 408.9 33.4 C 409.2 33.2 409.6 33 410.1 32.8 C 410.5 32.8 411 32.7 411.7 32.6 C 413.1 32.4 414.1 32.2 414.8 32 C 414.8 31.7 414.8 31.6 414.8 31.5 C 414.8 30.8 414.7 30.3 414.3 30 C 413.9 29.6 413.2 29.4 412.3 29.4 C 411.5 29.4 410.9 29.6 410.5 29.8 C 410.1 30.1 409.8 30.6 409.6 31.4 C 409.6 31.4 407.9 31.1 407.9 31.1 C 408.1 30.4 408.3 29.8 408.7 29.4 C 409 28.9 409.5 28.6 410.2 28.3 C 410.9 28.1 411.7 28 412.6 28 C 413.5 28 414.2 28.1 414.7 28.3 C 415.3 28.5 415.7 28.7 416 29.1 C 416.2 29.4 416.4 29.8 416.5 30.3 C 416.6 30.5 416.6 31.1 416.6 31.9 C 416.6 31.9 416.6 34.2 416.6 34.2 C 416.6 35.8 416.6 36.9 416.7 37.3 C 416.8 37.7 416.9 38.2 417.1 38.6 C 417.15 38.56 415.3 38.6 415.3 38.6 C 415.3 38.6 415.31 38.56 415.3 38.6 Z M 414.8 33.4 C 414.2 33.6 413.2 33.8 411.9 34 C 411.2 34.1 410.7 34.2 410.4 34.4 C 410.1 34.5 409.9 34.7 409.7 34.9 C 409.6 35.2 409.5 35.5 409.5 35.8 C 409.5 36.2 409.6 36.6 410 36.9 C 410.4 37.3 410.9 37.4 411.6 37.4 C 412.2 37.4 412.8 37.3 413.4 37 C 413.9 36.7 414.3 36.3 414.5 35.8 C 414.7 35.4 414.8 34.8 414.8 34 C 414.8 34 414.8 33.4 414.8 33.4 Z M 419.3 38.6 L 419.3 28.2 L 420.9 28.2 C 420.9 28.2 420.88 29.76 420.9 29.8 C 421.3 29 421.7 28.5 422 28.3 C 422.3 28.1 422.7 28 423.1 28 C 423.7 28 424.3 28.1 424.9 28.5 C 424.9 28.5 424.3 30.2 424.3 30.2 C 423.9 29.9 423.5 29.8 423 29.8 C 422.7 29.8 422.3 29.9 422 30.1 C 421.7 30.3 421.5 30.7 421.3 31.1 C 421.2 31.7 421.1 32.4 421.1 33.1 C 421.05 33.13 421.1 38.6 421.1 38.6 L 419.3 38.6 Z M 426 26.3 L 426 24.2 L 427.7 24.2 L 427.7 26.3 L 426 26.3 Z M 426 38.6 L 426 28.2 L 427.7 28.2 L 427.7 38.6 L 426 38.6 Z M 429.7 35.5 C 429.7 35.5 431.5 35.2 431.5 35.2 C 431.6 35.9 431.8 36.4 432.3 36.8 C 432.7 37.2 433.3 37.3 434.1 37.3 C 434.9 37.3 435.5 37.2 435.9 36.9 C 436.3 36.5 436.5 36.1 436.5 35.7 C 436.5 35.3 436.4 35 436 34.8 C 435.8 34.6 435.2 34.4 434.2 34.2 C 432.9 33.8 432 33.6 431.5 33.3 C 431 33.1 430.7 32.8 430.4 32.3 C 430.1 31.9 430 31.5 430 30.9 C 430 30.5 430.1 30.1 430.3 29.7 C 430.5 29.3 430.8 28.9 431.2 28.7 C 431.5 28.5 431.8 28.3 432.3 28.2 C 432.8 28 433.3 28 433.8 28 C 434.6 28 435.4 28.1 436 28.3 C 436.6 28.5 437 28.9 437.3 29.3 C 437.6 29.7 437.8 30.2 437.9 30.9 C 437.9 30.9 436.2 31.1 436.2 31.1 C 436.1 30.6 435.9 30.1 435.5 29.8 C 435.2 29.6 434.6 29.4 434 29.4 C 433.1 29.4 432.6 29.5 432.2 29.8 C 431.9 30.1 431.7 30.4 431.7 30.7 C 431.7 31 431.8 31.2 431.9 31.4 C 432.1 31.5 432.3 31.7 432.6 31.8 C 432.8 31.9 433.3 32 434.2 32.3 C 435.4 32.6 436.3 32.9 436.8 33.1 C 437.2 33.3 437.6 33.6 437.9 34 C 438.2 34.4 438.3 34.9 438.3 35.5 C 438.3 36.1 438.2 36.7 437.8 37.2 C 437.5 37.7 437 38.1 436.3 38.4 C 435.7 38.7 435 38.8 434.2 38.8 C 432.8 38.8 431.8 38.5 431.1 38 C 430.4 37.4 429.9 36.6 429.7 35.5 Z M 440.4 26.3 L 440.4 24.2 L 442.2 24.2 L 442.2 26.3 L 440.4 26.3 Z M 440.4 38.6 L 440.4 28.2 L 442.2 28.2 L 442.2 38.6 L 440.4 38.6 Z M 444.9 38.6 L 444.9 28.2 L 446.4 28.2 C 446.4 28.2 446.45 29.66 446.4 29.7 C 447.2 28.5 448.3 28 449.7 28 C 450.4 28 450.9 28.1 451.5 28.3 C 452 28.5 452.4 28.8 452.6 29.2 C 452.9 29.5 453.1 30 453.2 30.5 C 453.3 30.8 453.3 31.4 453.3 32.2 C 453.29 32.18 453.3 38.6 453.3 38.6 L 451.5 38.6 C 451.5 38.6 451.53 32.25 451.5 32.3 C 451.5 31.5 451.5 31 451.3 30.6 C 451.2 30.3 450.9 30 450.6 29.8 C 450.3 29.6 449.8 29.5 449.4 29.5 C 448.6 29.5 448 29.7 447.4 30.2 C 446.9 30.7 446.6 31.6 446.6 32.9 C 446.62 32.9 446.6 38.6 446.6 38.6 L 444.9 38.6 Z M 455.7 39.4 C 455.7 39.4 457.4 39.7 457.4 39.7 C 457.4 40.2 457.6 40.6 458 40.8 C 458.4 41.2 459 41.3 459.8 41.3 C 460.6 41.3 461.2 41.2 461.6 40.8 C 462.1 40.5 462.4 40 462.5 39.5 C 462.6 39.1 462.7 38.3 462.7 37.2 C 461.9 38.1 460.9 38.6 459.8 38.6 C 458.4 38.6 457.3 38 456.5 37 C 455.7 36 455.3 34.8 455.3 33.3 C 455.3 32.3 455.5 31.4 455.8 30.6 C 456.2 29.7 456.7 29.1 457.4 28.6 C 458.1 28.2 458.9 28 459.8 28 C 461 28 462 28.4 462.8 29.4 C 462.83 29.44 462.8 28.2 462.8 28.2 L 464.5 28.2 C 464.5 28.2 464.45 37.15 464.5 37.2 C 464.5 38.8 464.3 39.9 464 40.6 C 463.6 41.3 463.1 41.8 462.4 42.2 C 461.7 42.6 460.8 42.8 459.8 42.8 C 458.5 42.8 457.5 42.5 456.8 41.9 C 456 41.4 455.6 40.5 455.7 39.4 Z M 457.1 33.2 C 457.1 34.6 457.4 35.5 457.9 36.2 C 458.5 36.8 459.1 37.1 460 37.1 C 460.8 37.1 461.4 36.8 462 36.2 C 462.5 35.6 462.8 34.6 462.8 33.2 C 462.8 32 462.5 31 462 30.4 C 461.4 29.7 460.7 29.4 459.9 29.4 C 459.2 29.4 458.5 29.7 457.9 30.4 C 457.4 31 457.1 31.9 457.1 33.2 Z M 472 33.4 C 472 31.5 472.5 30 473.6 29.1 C 474.5 28.3 475.6 28 476.9 28 C 478.3 28 479.5 28.4 480.4 29.4 C 481.3 30.3 481.7 31.6 481.7 33.2 C 481.7 34.6 481.5 35.6 481.1 36.4 C 480.7 37.1 480.1 37.7 479.4 38.2 C 478.6 38.6 477.8 38.8 476.9 38.8 C 475.4 38.8 474.2 38.3 473.4 37.4 C 472.5 36.5 472 35.1 472 33.4 Z M 473.8 33.4 C 473.8 34.7 474.1 35.7 474.7 36.4 C 475.3 37 476 37.3 476.9 37.3 C 477.7 37.3 478.5 37 479.1 36.4 C 479.6 35.7 479.9 34.7 479.9 33.3 C 479.9 32 479.6 31.1 479 30.4 C 478.5 29.7 477.7 29.4 476.9 29.4 C 476 29.4 475.3 29.7 474.7 30.4 C 474.1 31.1 473.8 32 473.8 33.4 Z M 490.6 38.6 C 490.6 38.6 490.59 37.04 490.6 37 C 489.8 38.2 488.7 38.8 487.3 38.8 C 486.7 38.8 486.1 38.7 485.6 38.4 C 485.1 38.2 484.7 37.9 484.4 37.6 C 484.1 37.2 484 36.8 483.9 36.3 C 483.8 35.9 483.8 35.4 483.8 34.6 C 483.75 34.62 483.8 28.2 483.8 28.2 L 485.5 28.2 C 485.5 28.2 485.51 33.94 485.5 33.9 C 485.5 34.9 485.5 35.5 485.6 35.8 C 485.7 36.3 486 36.6 486.3 36.9 C 486.7 37.1 487.1 37.3 487.6 37.3 C 488.2 37.3 488.7 37.1 489.1 36.9 C 489.6 36.6 489.9 36.2 490.1 35.8 C 490.3 35.3 490.4 34.6 490.4 33.7 C 490.4 33.75 490.4 28.2 490.4 28.2 L 492.2 28.2 L 492.2 38.6 L 490.6 38.6 Z M 498 37.1 C 498.2 37.1 498.4 37 498.8 37 C 498.8 37 499 38.5 499 38.5 C 498.5 38.6 498.1 38.7 497.7 38.7 C 497 38.7 496.5 38.6 496.2 38.4 C 495.8 38.2 495.6 37.9 495.4 37.6 C 495.3 37.3 495.2 36.6 495.2 35.5 C 495.23 35.52 495.2 29.6 495.2 29.6 L 493.9 29.6 L 493.9 28.2 L 495.2 28.2 L 495.2 25.6 L 497 24.6 L 497 28.2 L 498.8 28.2 L 498.8 29.6 L 497 29.6 C 497 29.6 496.98 35.62 497 35.6 C 497 36.1 497 36.4 497.1 36.6 C 497.1 36.7 497.2 36.8 497.4 36.9 C 497.5 37 497.7 37.1 498 37.1 C 498 37.1 498 37.1 498 37.1 Z M 505.4 33.4 C 505.4 31.5 505.9 30 507 29.1 C 507.9 28.3 509 28 510.2 28 C 511.7 28 512.8 28.4 513.7 29.4 C 514.6 30.3 515.1 31.6 515.1 33.2 C 515.1 34.6 514.9 35.6 514.5 36.4 C 514.1 37.1 513.5 37.7 512.7 38.2 C 512 38.6 511.1 38.8 510.2 38.8 C 508.8 38.8 507.6 38.3 506.7 37.4 C 505.8 36.5 505.4 35.1 505.4 33.4 Z M 507.2 33.4 C 507.2 34.7 507.5 35.7 508 36.4 C 508.6 37 509.4 37.3 510.2 37.3 C 511.1 37.3 511.8 37 512.4 36.4 C 513 35.7 513.3 34.7 513.3 33.3 C 513.3 32 513 31.1 512.4 30.4 C 511.8 29.7 511.1 29.4 510.2 29.4 C 509.4 29.4 508.6 29.7 508 30.4 C 507.5 31.1 507.2 32 507.2 33.4 Z M 517.6 38.6 L 517.6 29.6 L 516 29.6 L 516 28.2 L 517.6 28.2 C 517.6 28.2 517.57 27.09 517.6 27.1 C 517.6 26.4 517.6 25.9 517.8 25.5 C 517.9 25.1 518.2 24.7 518.6 24.4 C 519.1 24.1 519.7 24 520.4 24 C 520.9 24 521.5 24.1 522.1 24.2 C 522.1 24.2 521.8 25.7 521.8 25.7 C 521.5 25.6 521.1 25.6 520.8 25.6 C 520.2 25.6 519.9 25.7 519.6 26 C 519.4 26.2 519.3 26.6 519.3 27.2 C 519.32 27.23 519.3 28.2 519.3 28.2 L 521.3 28.2 L 521.3 29.6 L 519.3 29.6 L 519.3 38.6 L 517.6 38.6 Z M 528.3 26.3 L 528.3 24.2 L 530 24.2 L 530 26.3 L 528.3 26.3 Z M 528.3 38.6 L 528.3 28.2 L 530 28.2 L 530 38.6 L 528.3 38.6 Z M 535.8 37.1 C 536 37.1 536.2 37 536.5 37 C 536.5 37 536.8 38.5 536.8 38.5 C 536.3 38.6 535.9 38.7 535.5 38.7 C 534.8 38.7 534.3 38.6 534 38.4 C 533.6 38.2 533.4 37.9 533.2 37.6 C 533.1 37.3 533 36.6 533 35.5 C 533.03 35.52 533 29.6 533 29.6 L 531.7 29.6 L 531.7 28.2 L 533 28.2 L 533 25.6 L 534.8 24.6 L 534.8 28.2 L 536.5 28.2 L 536.5 29.6 L 534.8 29.6 C 534.8 29.6 534.78 35.62 534.8 35.6 C 534.8 36.1 534.8 36.4 534.9 36.6 C 534.9 36.7 535 36.8 535.2 36.9 C 535.3 37 535.5 37.1 535.8 37.1 C 535.8 37.1 535.8 37.1 535.8 37.1 Z M 537.6 35.5 C 537.6 35.5 539.3 35.2 539.3 35.2 C 539.4 35.9 539.7 36.4 540.1 36.8 C 540.6 37.2 541.2 37.3 542 37.3 C 542.8 37.3 543.4 37.2 543.8 36.9 C 544.2 36.5 544.4 36.1 544.4 35.7 C 544.4 35.3 544.2 35 543.8 34.8 C 543.6 34.6 543 34.4 542.1 34.2 C 540.8 33.8 539.9 33.6 539.4 33.3 C 538.9 33.1 538.5 32.8 538.2 32.3 C 538 31.9 537.9 31.5 537.9 30.9 C 537.9 30.5 538 30.1 538.2 29.7 C 538.4 29.3 538.7 28.9 539 28.7 C 539.3 28.5 539.7 28.3 540.2 28.2 C 540.6 28 541.1 28 541.7 28 C 542.5 28 543.2 28.1 543.8 28.3 C 544.4 28.5 544.9 28.9 545.2 29.3 C 545.5 29.7 545.7 30.2 545.8 30.9 C 545.8 30.9 544.1 31.1 544.1 31.1 C 544 30.6 543.8 30.1 543.4 29.8 C 543 29.6 542.5 29.4 541.8 29.4 C 541 29.4 540.4 29.5 540.1 29.8 C 539.7 30.1 539.6 30.4 539.6 30.7 C 539.6 31 539.6 31.2 539.8 31.4 C 539.9 31.5 540.1 31.7 540.4 31.8 C 540.6 31.9 541.1 32 542 32.3 C 543.2 32.6 544.1 32.9 544.6 33.1 C 545.1 33.3 545.5 33.6 545.8 34 C 546 34.4 546.2 34.9 546.2 35.5 C 546.2 36.1 546 36.7 545.7 37.2 C 545.3 37.7 544.8 38.1 544.2 38.4 C 543.5 38.7 542.8 38.8 542 38.8 C 540.6 38.8 539.6 38.5 538.9 38 C 538.2 37.4 537.8 36.6 537.6 35.5 Z M 553.8 26.3 L 553.8 24.2 L 555.6 24.2 L 555.6 26.3 L 553.8 26.3 Z M 553.8 38.6 L 553.8 28.2 L 555.6 28.2 L 555.6 38.6 L 553.8 38.6 Z M 558.3 38.6 L 558.3 28.2 L 559.8 28.2 C 559.8 28.2 559.84 29.66 559.8 29.7 C 560.6 28.5 561.7 28 563.1 28 C 563.8 28 564.3 28.1 564.9 28.3 C 565.4 28.5 565.8 28.8 566 29.2 C 566.3 29.5 566.5 30 566.6 30.5 C 566.7 30.8 566.7 31.4 566.7 32.2 C 566.69 32.18 566.7 38.6 566.7 38.6 L 564.9 38.6 C 564.9 38.6 564.93 32.25 564.9 32.3 C 564.9 31.5 564.9 31 564.7 30.6 C 564.6 30.3 564.3 30 564 29.8 C 563.7 29.6 563.2 29.5 562.8 29.5 C 562 29.5 561.4 29.7 560.8 30.2 C 560.3 30.7 560 31.6 560 32.9 C 560.02 32.9 560 38.6 560 38.6 L 558.3 38.6 Z M 572.3 38.6 L 568.3 28.2 L 570.2 28.2 C 570.2 28.2 572.4 34.4 572.4 34.4 C 572.6 35.1 572.9 35.8 573.1 36.5 C 573.2 35.9 573.4 35.3 573.7 34.5 C 573.72 34.52 576 28.2 576 28.2 L 577.8 28.2 L 573.9 38.6 L 572.3 38.6 Z M 586.5 35.2 C 586.5 35.2 588.3 35.4 588.3 35.4 C 588 36.5 587.5 37.3 586.7 37.9 C 585.9 38.5 584.9 38.8 583.7 38.8 C 582.2 38.8 581 38.3 580.1 37.4 C 579.2 36.5 578.8 35.1 578.8 33.5 C 578.8 31.7 579.2 30.4 580.1 29.4 C 581 28.4 582.2 28 583.6 28 C 585 28 586.2 28.4 587 29.4 C 587.9 30.3 588.4 31.6 588.4 33.4 C 588.4 33.5 588.4 33.6 588.3 33.8 C 588.3 33.8 580.6 33.8 580.6 33.8 C 580.7 35 581 35.8 581.6 36.4 C 582.2 37 582.9 37.3 583.8 37.3 C 584.4 37.3 584.9 37.2 585.4 36.8 C 585.9 36.5 586.2 36 586.5 35.2 Z M 580.7 32.4 C 580.7 32.4 586.5 32.4 586.5 32.4 C 586.4 31.5 586.2 30.9 585.8 30.4 C 585.3 29.7 584.6 29.4 583.7 29.4 C 582.9 29.4 582.2 29.7 581.6 30.2 C 581.1 30.8 580.8 31.5 580.7 32.4 Z M 589.8 35.5 C 589.8 35.5 591.5 35.2 591.5 35.2 C 591.6 35.9 591.9 36.4 592.4 36.8 C 592.8 37.2 593.4 37.3 594.2 37.3 C 595 37.3 595.6 37.2 596 36.9 C 596.4 36.5 596.6 36.1 596.6 35.7 C 596.6 35.3 596.4 35 596.1 34.8 C 595.9 34.6 595.3 34.4 594.3 34.2 C 593 33.8 592.1 33.6 591.6 33.3 C 591.1 33.1 590.7 32.8 590.5 32.3 C 590.2 31.9 590.1 31.5 590.1 30.9 C 590.1 30.5 590.2 30.1 590.4 29.7 C 590.6 29.3 590.9 28.9 591.3 28.7 C 591.6 28.5 591.9 28.3 592.4 28.2 C 592.9 28 593.4 28 593.9 28 C 594.7 28 595.4 28.1 596.1 28.3 C 596.7 28.5 597.1 28.9 597.4 29.3 C 597.7 29.7 597.9 30.2 598 30.9 C 598 30.9 596.3 31.1 596.3 31.1 C 596.2 30.6 596 30.1 595.6 29.8 C 595.3 29.6 594.7 29.4 594 29.4 C 593.2 29.4 592.7 29.5 592.3 29.8 C 592 30.1 591.8 30.4 591.8 30.7 C 591.8 31 591.9 31.2 592 31.4 C 592.2 31.5 592.4 31.7 592.7 31.8 C 592.9 31.9 593.4 32 594.2 32.3 C 595.5 32.6 596.3 32.9 596.8 33.1 C 597.3 33.3 597.7 33.6 598 34 C 598.3 34.4 598.4 34.9 598.4 35.5 C 598.4 36.1 598.2 36.7 597.9 37.2 C 597.6 37.7 597.1 38.1 596.4 38.4 C 595.8 38.7 595.1 38.8 594.2 38.8 C 592.9 38.8 591.9 38.5 591.2 38 C 590.5 37.4 590 36.6 589.8 35.5 Z M 603.6 37.1 C 603.8 37.1 604 37 604.3 37 C 604.3 37 604.6 38.5 604.6 38.5 C 604.1 38.6 603.7 38.7 603.3 38.7 C 602.6 38.7 602.1 38.6 601.8 38.4 C 601.4 38.2 601.2 37.9 601 37.6 C 600.9 37.3 600.8 36.6 600.8 35.5 C 600.83 35.52 600.8 29.6 600.8 29.6 L 599.5 29.6 L 599.5 28.2 L 600.8 28.2 L 600.8 25.6 L 602.6 24.6 L 602.6 28.2 L 604.3 28.2 L 604.3 29.6 L 602.6 29.6 C 602.6 29.6 602.58 35.62 602.6 35.6 C 602.6 36.1 602.6 36.4 602.7 36.6 C 602.7 36.7 602.8 36.8 603 36.9 C 603.1 37 603.3 37.1 603.6 37.1 C 603.6 37.1 603.6 37.1 603.6 37.1 Z M 606.1 38.6 L 606.1 28.2 L 607.6 28.2 C 607.6 28.2 607.64 29.64 607.6 29.6 C 608 29.1 608.4 28.7 608.9 28.4 C 609.5 28.1 610.1 28 610.8 28 C 611.5 28 612.2 28.1 612.7 28.4 C 613.2 28.8 613.5 29.2 613.7 29.8 C 614.5 28.6 615.6 28 616.9 28 C 617.9 28 618.7 28.2 619.3 28.8 C 619.8 29.4 620.1 30.3 620.1 31.4 C 620.12 31.44 620.1 38.6 620.1 38.6 L 618.4 38.6 C 618.4 38.6 618.37 32.03 618.4 32 C 618.4 31.3 618.3 30.8 618.2 30.5 C 618.1 30.2 617.9 30 617.6 29.8 C 617.3 29.6 616.9 29.5 616.5 29.5 C 615.8 29.5 615.2 29.7 614.7 30.2 C 614.2 30.7 614 31.5 614 32.5 C 613.98 32.54 614 38.6 614 38.6 L 612.2 38.6 C 612.2 38.6 612.23 31.82 612.2 31.8 C 612.2 31 612.1 30.5 611.8 30.1 C 611.5 29.7 611 29.5 610.4 29.5 C 609.9 29.5 609.4 29.6 609 29.9 C 608.6 30.1 608.3 30.5 608.1 31 C 607.9 31.5 607.8 32.2 607.8 33.2 C 607.82 33.18 607.8 38.6 607.8 38.6 L 606.1 38.6 Z M 629.8 35.2 C 629.8 35.2 631.6 35.4 631.6 35.4 C 631.4 36.5 630.8 37.3 630 37.9 C 629.3 38.5 628.3 38.8 627.1 38.8 C 625.6 38.8 624.4 38.3 623.5 37.4 C 622.6 36.5 622.1 35.1 622.1 33.5 C 622.1 31.7 622.6 30.4 623.5 29.4 C 624.4 28.4 625.6 28 627 28 C 628.4 28 629.5 28.4 630.4 29.4 C 631.3 30.3 631.7 31.6 631.7 33.4 C 631.7 33.5 631.7 33.6 631.7 33.8 C 631.7 33.8 624 33.8 624 33.8 C 624 35 624.3 35.8 624.9 36.4 C 625.5 37 626.2 37.3 627.1 37.3 C 627.7 37.3 628.3 37.2 628.7 36.8 C 629.2 36.5 629.6 36 629.8 35.2 Z M 624.1 32.4 C 624.1 32.4 629.8 32.4 629.8 32.4 C 629.8 31.5 629.5 30.9 629.2 30.4 C 628.6 29.7 627.9 29.4 627 29.4 C 626.2 29.4 625.5 29.7 625 30.2 C 624.4 30.8 624.1 31.5 624.1 32.4 Z M 633.8 38.6 L 633.8 28.2 L 635.4 28.2 C 635.4 28.2 635.43 29.66 635.4 29.7 C 636.2 28.5 637.3 28 638.7 28 C 639.4 28 639.9 28.1 640.5 28.3 C 641 28.5 641.4 28.8 641.6 29.2 C 641.9 29.5 642.1 30 642.2 30.5 C 642.2 30.8 642.3 31.4 642.3 32.2 C 642.28 32.18 642.3 38.6 642.3 38.6 L 640.5 38.6 C 640.5 38.6 640.52 32.25 640.5 32.3 C 640.5 31.5 640.4 31 640.3 30.6 C 640.2 30.3 639.9 30 639.6 29.8 C 639.2 29.6 638.8 29.5 638.4 29.5 C 637.6 29.5 637 29.7 636.4 30.2 C 635.9 30.7 635.6 31.6 635.6 32.9 C 635.61 32.9 635.6 38.6 635.6 38.6 L 633.8 38.6 Z M 648 37.1 C 648.2 37.1 648.5 37 648.8 37 C 648.8 37 649.1 38.5 649.1 38.5 C 648.6 38.6 648.1 38.7 647.7 38.7 C 647.1 38.7 646.6 38.6 646.3 38.4 C 645.9 38.2 645.7 37.9 645.5 37.6 C 645.4 37.3 645.3 36.6 645.3 35.5 C 645.29 35.52 645.3 29.6 645.3 29.6 L 644 29.6 L 644 28.2 L 645.3 28.2 L 645.3 25.6 L 647 24.6 L 647 28.2 L 648.8 28.2 L 648.8 29.6 L 647 29.6 C 647 29.6 647.04 35.62 647 35.6 C 647 36.1 647.1 36.4 647.1 36.6 C 647.2 36.7 647.3 36.8 647.4 36.9 C 647.6 37 647.8 37.1 648 37.1 C 648 37.1 648 37.1 648 37.1 Z M 649.8 35.5 C 649.8 35.5 651.6 35.2 651.6 35.2 C 651.7 35.9 651.9 36.4 652.4 36.8 C 652.8 37.2 653.4 37.3 654.2 37.3 C 655.1 37.3 655.7 37.2 656 36.9 C 656.4 36.5 656.6 36.1 656.6 35.7 C 656.6 35.3 656.5 35 656.1 34.8 C 655.9 34.6 655.3 34.4 654.3 34.2 C 653 33.8 652.1 33.6 651.6 33.3 C 651.1 33.1 650.8 32.8 650.5 32.3 C 650.2 31.9 650.1 31.5 650.1 30.9 C 650.1 30.5 650.2 30.1 650.4 29.7 C 650.6 29.3 650.9 28.9 651.3 28.7 C 651.6 28.5 651.9 28.3 652.4 28.2 C 652.9 28 653.4 28 653.9 28 C 654.7 28 655.5 28.1 656.1 28.3 C 656.7 28.5 657.1 28.9 657.4 29.3 C 657.7 29.7 657.9 30.2 658 30.9 C 658 30.9 656.3 31.1 656.3 31.1 C 656.3 30.6 656 30.1 655.6 29.8 C 655.3 29.6 654.7 29.4 654.1 29.4 C 653.3 29.4 652.7 29.5 652.3 29.8 C 652 30.1 651.8 30.4 651.8 30.7 C 651.8 31 651.9 31.2 652 31.4 C 652.2 31.5 652.4 31.7 652.7 31.8 C 652.9 31.9 653.4 32 654.3 32.3 C 655.5 32.6 656.4 32.9 656.9 33.1 C 657.4 33.3 657.7 33.6 658 34 C 658.3 34.4 658.4 34.9 658.4 35.5 C 658.4 36.1 658.3 36.7 657.9 37.2 C 657.6 37.7 657.1 38.1 656.4 38.4 C 655.8 38.7 655.1 38.8 654.3 38.8 C 652.9 38.8 651.9 38.5 651.2 38 C 650.5 37.4 650 36.6 649.8 35.5 Z M 661 38.6 L 661 36.6 L 663 36.6 L 663 38.6 L 661 38.6 Z " stroke="none" fill="#54626c"/>
  </g>
  <g id="Polygon59359">
    <path d="M 1.5 14.6 L 1.5 0.2 C 1.5 0.2 6.94 0.24 6.9 0.2 C 7.9 0.2 8.6 0.3 9.1 0.4 C 9.8 0.5 10.4 0.7 10.9 1 C 11.4 1.4 11.7 1.8 12 2.4 C 12.3 3 12.5 3.7 12.5 4.4 C 12.5 5.6 12.1 6.6 11.3 7.5 C 10.5 8.3 9.1 8.7 7.1 8.7 C 7.11 8.74 3.4 8.7 3.4 8.7 L 3.4 14.6 L 1.5 14.6 Z M 3.4 7.1 C 3.4 7.1 7.14 7.05 7.1 7.1 C 8.4 7.1 9.2 6.8 9.7 6.4 C 10.3 5.9 10.5 5.3 10.5 4.4 C 10.5 3.8 10.4 3.3 10.1 2.9 C 9.8 2.5 9.4 2.2 8.9 2.1 C 8.5 2 8 1.9 7.1 1.9 C 7.1 1.93 3.4 1.9 3.4 1.9 L 3.4 7.1 Z M 14.6 14.6 L 14.6 4.2 L 16.2 4.2 C 16.2 4.2 16.22 5.76 16.2 5.8 C 16.6 5 17 4.5 17.3 4.3 C 17.7 4.1 18.1 4 18.5 4 C 19.1 4 19.7 4.1 20.3 4.5 C 20.3 4.5 19.7 6.2 19.7 6.2 C 19.2 5.9 18.8 5.8 18.4 5.8 C 18 5.8 17.6 5.9 17.3 6.1 C 17 6.3 16.8 6.7 16.7 7.1 C 16.5 7.7 16.4 8.4 16.4 9.1 C 16.4 9.13 16.4 14.6 16.4 14.6 L 14.6 14.6 Z M 28.4 11.2 C 28.4 11.2 30.2 11.4 30.2 11.4 C 29.9 12.5 29.4 13.3 28.6 13.9 C 27.9 14.5 26.9 14.8 25.7 14.8 C 24.2 14.8 23 14.3 22.1 13.4 C 21.2 12.5 20.7 11.1 20.7 9.5 C 20.7 7.7 21.2 6.4 22.1 5.4 C 23 4.4 24.1 4 25.6 4 C 27 4 28.1 4.4 29 5.4 C 29.9 6.3 30.3 7.6 30.3 9.4 C 30.3 9.5 30.3 9.6 30.3 9.8 C 30.3 9.8 22.5 9.8 22.5 9.8 C 22.6 11 22.9 11.8 23.5 12.4 C 24.1 13 24.8 13.3 25.7 13.3 C 26.3 13.3 26.9 13.2 27.3 12.8 C 27.8 12.5 28.2 12 28.4 11.2 Z M 22.6 8.4 C 22.6 8.4 28.4 8.4 28.4 8.4 C 28.4 7.5 28.1 6.9 27.8 6.4 C 27.2 5.7 26.5 5.4 25.6 5.4 C 24.8 5.4 24.1 5.7 23.6 6.2 C 23 6.8 22.7 7.5 22.6 8.4 Z M 32.4 18.5 L 32.4 4.2 L 34 4.2 C 34 4.2 34.04 5.54 34 5.5 C 34.4 5 34.8 4.6 35.3 4.4 C 35.8 4.1 36.4 4 37.1 4 C 37.9 4 38.7 4.2 39.4 4.6 C 40.1 5.1 40.6 5.7 40.9 6.6 C 41.3 7.4 41.4 8.3 41.4 9.3 C 41.4 10.4 41.3 11.3 40.9 12.2 C 40.5 13 39.9 13.7 39.2 14.1 C 38.5 14.6 37.7 14.8 36.9 14.8 C 36.3 14.8 35.8 14.7 35.3 14.4 C 34.9 14.2 34.5 13.9 34.2 13.5 C 34.2 13.49 34.2 18.5 34.2 18.5 L 32.4 18.5 Z M 34 9.4 C 34 10.8 34.3 11.8 34.8 12.4 C 35.4 13 36 13.3 36.8 13.3 C 37.6 13.3 38.3 13 38.8 12.4 C 39.4 11.7 39.6 10.7 39.6 9.3 C 39.6 8 39.4 7 38.8 6.3 C 38.3 5.7 37.6 5.3 36.9 5.3 C 36.1 5.3 35.5 5.7 34.9 6.4 C 34.3 7.1 34 8.1 34 9.4 Z M 50.7 14.6 C 50.5 14.2 50.4 13.8 50.3 13.3 C 49.7 13.8 49.1 14.2 48.5 14.5 C 47.8 14.7 47.2 14.8 46.5 14.8 C 45.4 14.8 44.5 14.5 43.9 14 C 43.3 13.4 43 12.7 43 11.8 C 43 11.3 43.1 10.9 43.3 10.4 C 43.5 10 43.8 9.7 44.2 9.4 C 44.6 9.2 45 9 45.5 8.8 C 45.8 8.8 46.4 8.7 47.1 8.6 C 48.5 8.4 49.5 8.2 50.2 8 C 50.2 7.7 50.2 7.6 50.2 7.5 C 50.2 6.8 50 6.3 49.7 6 C 49.2 5.6 48.6 5.4 47.7 5.4 C 46.9 5.4 46.3 5.6 45.9 5.8 C 45.5 6.1 45.2 6.6 45 7.4 C 45 7.4 43.3 7.1 43.3 7.1 C 43.4 6.4 43.7 5.8 44 5.4 C 44.4 4.9 44.9 4.6 45.6 4.3 C 46.3 4.1 47.1 4 47.9 4 C 48.8 4 49.6 4.1 50.1 4.3 C 50.7 4.5 51.1 4.7 51.3 5.1 C 51.6 5.4 51.8 5.8 51.9 6.3 C 51.9 6.5 52 7.1 52 7.9 C 52 7.9 52 10.2 52 10.2 C 52 11.8 52 12.9 52.1 13.3 C 52.1 13.7 52.3 14.2 52.5 14.6 C 52.52 14.56 50.7 14.6 50.7 14.6 C 50.7 14.6 50.68 14.56 50.7 14.6 Z M 50.2 9.4 C 49.5 9.6 48.6 9.8 47.3 10 C 46.6 10.1 46.1 10.2 45.8 10.4 C 45.5 10.5 45.3 10.7 45.1 10.9 C 44.9 11.2 44.8 11.5 44.8 11.8 C 44.8 12.2 45 12.6 45.4 12.9 C 45.7 13.3 46.3 13.4 46.9 13.4 C 47.6 13.4 48.2 13.3 48.7 13 C 49.3 12.7 49.7 12.3 49.9 11.8 C 50.1 11.4 50.2 10.8 50.2 10 C 50.2 10 50.2 9.4 50.2 9.4 Z M 54.7 14.6 L 54.7 4.2 L 56.3 4.2 C 56.3 4.2 56.25 5.76 56.3 5.8 C 56.7 5 57 4.5 57.4 4.3 C 57.7 4.1 58.1 4 58.5 4 C 59.1 4 59.7 4.1 60.3 4.5 C 60.3 4.5 59.7 6.2 59.7 6.2 C 59.3 5.9 58.8 5.8 58.4 5.8 C 58 5.8 57.7 5.9 57.4 6.1 C 57.1 6.3 56.8 6.7 56.7 7.1 C 56.5 7.7 56.4 8.4 56.4 9.1 C 56.43 9.13 56.4 14.6 56.4 14.6 L 54.7 14.6 Z M 68.4 11.2 C 68.4 11.2 70.3 11.4 70.3 11.4 C 70 12.5 69.4 13.3 68.7 13.9 C 67.9 14.5 66.9 14.8 65.7 14.8 C 64.2 14.8 63 14.3 62.1 13.4 C 61.2 12.5 60.8 11.1 60.8 9.5 C 60.8 7.7 61.2 6.4 62.1 5.4 C 63 4.4 64.2 4 65.6 4 C 67 4 68.1 4.4 69 5.4 C 69.9 6.3 70.3 7.6 70.3 9.4 C 70.3 9.5 70.3 9.6 70.3 9.8 C 70.3 9.8 62.6 9.8 62.6 9.8 C 62.6 11 63 11.8 63.5 12.4 C 64.1 13 64.8 13.3 65.7 13.3 C 66.4 13.3 66.9 13.2 67.4 12.8 C 67.8 12.5 68.2 12 68.4 11.2 Z M 62.7 8.4 C 62.7 8.4 68.5 8.4 68.5 8.4 C 68.4 7.5 68.2 6.9 67.8 6.4 C 67.2 5.7 66.5 5.4 65.6 5.4 C 64.8 5.4 64.1 5.7 63.6 6.2 C 63 6.8 62.7 7.5 62.7 8.4 Z M 79.2 14.6 C 79.2 14.6 79.2 13.25 79.2 13.3 C 78.5 14.3 77.6 14.8 76.3 14.8 C 75.5 14.8 74.7 14.6 74 14.1 C 73.3 13.7 72.8 13 72.4 12.2 C 72 11.4 71.8 10.4 71.8 9.4 C 71.8 8.3 72 7.4 72.4 6.6 C 72.7 5.7 73.2 5.1 73.9 4.6 C 74.6 4.2 75.4 4 76.2 4 C 76.8 4 77.4 4.1 77.9 4.4 C 78.4 4.6 78.8 5 79.1 5.4 C 79.08 5.38 79.1 0.2 79.1 0.2 L 80.8 0.2 L 80.8 14.6 L 79.2 14.6 Z M 73.6 9.4 C 73.6 10.7 73.9 11.7 74.5 12.4 C 75 13 75.7 13.3 76.5 13.3 C 77.2 13.3 77.9 13 78.4 12.4 C 79 11.8 79.2 10.8 79.2 9.5 C 79.2 8.1 79 7.1 78.4 6.4 C 77.9 5.7 77.2 5.4 76.4 5.4 C 75.6 5.4 75 5.7 74.4 6.4 C 73.9 7 73.6 8 73.6 9.4 Z M 96.3 14.6 C 96.1 14.2 96 13.8 95.9 13.3 C 95.3 13.8 94.6 14.2 94 14.5 C 93.4 14.7 92.8 14.8 92.1 14.8 C 91 14.8 90.1 14.5 89.5 14 C 88.9 13.4 88.6 12.7 88.6 11.8 C 88.6 11.3 88.7 10.9 88.9 10.4 C 89.1 10 89.4 9.7 89.8 9.4 C 90.2 9.2 90.6 9 91.1 8.8 C 91.4 8.8 91.9 8.7 92.6 8.6 C 94.1 8.4 95.1 8.2 95.8 8 C 95.8 7.7 95.8 7.6 95.8 7.5 C 95.8 6.8 95.6 6.3 95.3 6 C 94.8 5.6 94.2 5.4 93.3 5.4 C 92.5 5.4 91.8 5.6 91.5 5.8 C 91.1 6.1 90.8 6.6 90.6 7.4 C 90.6 7.4 88.9 7.1 88.9 7.1 C 89 6.4 89.3 5.8 89.6 5.4 C 90 4.9 90.5 4.6 91.2 4.3 C 91.9 4.1 92.6 4 93.5 4 C 94.4 4 95.1 4.1 95.7 4.3 C 96.2 4.5 96.7 4.7 96.9 5.1 C 97.2 5.4 97.4 5.8 97.5 6.3 C 97.5 6.5 97.5 7.1 97.5 7.9 C 97.5 7.9 97.5 10.2 97.5 10.2 C 97.5 11.8 97.6 12.9 97.7 13.3 C 97.7 13.7 97.9 14.2 98.1 14.6 C 98.11 14.56 96.3 14.6 96.3 14.6 C 96.3 14.6 96.27 14.56 96.3 14.6 Z M 95.8 9.4 C 95.1 9.6 94.2 9.8 92.9 10 C 92.2 10.1 91.7 10.2 91.4 10.4 C 91.1 10.5 90.8 10.7 90.7 10.9 C 90.5 11.2 90.4 11.5 90.4 11.8 C 90.4 12.2 90.6 12.6 91 12.9 C 91.3 13.3 91.8 13.4 92.5 13.4 C 93.2 13.4 93.8 13.3 94.3 13 C 94.9 12.7 95.2 12.3 95.5 11.8 C 95.7 11.4 95.8 10.8 95.8 10 C 95.8 10 95.8 9.4 95.8 9.4 Z M 107.5 14.6 L 105.8 14.6 L 105.8 0.2 L 107.6 0.2 C 107.6 0.2 107.58 5.35 107.6 5.4 C 108.3 4.4 109.3 4 110.4 4 C 111.1 4 111.7 4.1 112.2 4.3 C 112.8 4.6 113.3 5 113.6 5.4 C 114 5.9 114.3 6.5 114.5 7.1 C 114.7 7.8 114.8 8.5 114.8 9.2 C 114.8 11 114.4 12.4 113.5 13.3 C 112.6 14.3 111.6 14.8 110.3 14.8 C 109.1 14.8 108.1 14.3 107.5 13.3 C 107.45 13.26 107.5 14.6 107.5 14.6 Z M 107.4 9.3 C 107.4 10.5 107.6 11.4 107.9 12 C 108.5 12.9 109.2 13.3 110.2 13.3 C 111 13.3 111.6 13 112.2 12.3 C 112.7 11.7 113 10.7 113 9.4 C 113 8 112.7 7 112.2 6.4 C 111.7 5.7 111 5.4 110.3 5.4 C 109.5 5.4 108.8 5.7 108.3 6.4 C 107.7 7.1 107.4 8 107.4 9.3 Z M 124.1 11.2 C 124.1 11.2 125.9 11.4 125.9 11.4 C 125.6 12.5 125.1 13.3 124.3 13.9 C 123.5 14.5 122.5 14.8 121.3 14.8 C 119.8 14.8 118.6 14.3 117.7 13.4 C 116.8 12.5 116.4 11.1 116.4 9.5 C 116.4 7.7 116.8 6.4 117.7 5.4 C 118.6 4.4 119.8 4 121.2 4 C 122.6 4 123.7 4.4 124.6 5.4 C 125.5 6.3 125.9 7.6 125.9 9.4 C 125.9 9.5 125.9 9.6 125.9 9.8 C 125.9 9.8 118.2 9.8 118.2 9.8 C 118.2 11 118.6 11.8 119.2 12.4 C 119.7 13 120.5 13.3 121.3 13.3 C 122 13.3 122.5 13.2 123 12.8 C 123.4 12.5 123.8 12 124.1 11.2 Z M 118.3 8.4 C 118.3 8.4 124.1 8.4 124.1 8.4 C 124 7.5 123.8 6.9 123.4 6.4 C 122.8 5.7 122.1 5.4 121.2 5.4 C 120.4 5.4 119.7 5.7 119.2 6.2 C 118.6 6.8 118.3 7.5 118.3 8.4 Z M 127.4 11.5 C 127.4 11.5 129.1 11.2 129.1 11.2 C 129.2 11.9 129.5 12.4 129.9 12.8 C 130.4 13.2 131 13.3 131.8 13.3 C 132.6 13.3 133.2 13.2 133.6 12.9 C 134 12.5 134.2 12.1 134.2 11.7 C 134.2 11.3 134 11 133.7 10.8 C 133.4 10.6 132.8 10.4 131.9 10.2 C 130.6 9.8 129.7 9.6 129.2 9.3 C 128.7 9.1 128.3 8.8 128.1 8.3 C 127.8 7.9 127.7 7.5 127.7 6.9 C 127.7 6.5 127.8 6.1 128 5.7 C 128.2 5.3 128.5 4.9 128.8 4.7 C 129.1 4.5 129.5 4.3 130 4.2 C 130.4 4 130.9 4 131.5 4 C 132.3 4 133 4.1 133.6 4.3 C 134.2 4.5 134.7 4.9 135 5.3 C 135.3 5.7 135.5 6.2 135.6 6.9 C 135.6 6.9 133.9 7.1 133.9 7.1 C 133.8 6.6 133.6 6.1 133.2 5.8 C 132.8 5.6 132.3 5.4 131.6 5.4 C 130.8 5.4 130.2 5.5 129.9 5.8 C 129.5 6.1 129.4 6.4 129.4 6.7 C 129.4 7 129.4 7.2 129.6 7.4 C 129.7 7.5 129.9 7.7 130.3 7.8 C 130.4 7.9 130.9 8 131.8 8.3 C 133.1 8.6 133.9 8.9 134.4 9.1 C 134.9 9.3 135.3 9.6 135.6 10 C 135.8 10.4 136 10.9 136 11.5 C 136 12.1 135.8 12.7 135.5 13.2 C 135.1 13.7 134.6 14.1 134 14.4 C 133.3 14.7 132.6 14.8 131.8 14.8 C 130.5 14.8 129.4 14.5 128.7 14 C 128 13.4 127.6 12.6 127.4 11.5 Z M 138.1 18.5 L 138.1 4.2 L 139.7 4.2 C 139.7 4.2 139.68 5.54 139.7 5.5 C 140.1 5 140.5 4.6 141 4.4 C 141.4 4.1 142 4 142.7 4 C 143.6 4 144.4 4.2 145 4.6 C 145.7 5.1 146.2 5.7 146.6 6.6 C 146.9 7.4 147.1 8.3 147.1 9.3 C 147.1 10.4 146.9 11.3 146.5 12.2 C 146.1 13 145.6 13.7 144.8 14.1 C 144.1 14.6 143.4 14.8 142.6 14.8 C 142 14.8 141.4 14.7 141 14.4 C 140.5 14.2 140.1 13.9 139.8 13.5 C 139.83 13.49 139.8 18.5 139.8 18.5 L 138.1 18.5 Z M 139.7 9.4 C 139.7 10.8 139.9 11.8 140.5 12.4 C 141 13 141.7 13.3 142.4 13.3 C 143.2 13.3 143.9 13 144.4 12.4 C 145 11.7 145.3 10.7 145.3 9.3 C 145.3 8 145 7 144.5 6.3 C 143.9 5.7 143.3 5.3 142.5 5.3 C 141.8 5.3 141.1 5.7 140.5 6.4 C 140 7.1 139.7 8.1 139.7 9.4 Z M 148.5 9.4 C 148.5 7.5 149.1 6 150.1 5.1 C 151 4.3 152.1 4 153.4 4 C 154.8 4 156 4.4 156.9 5.4 C 157.8 6.3 158.3 7.6 158.3 9.2 C 158.3 10.6 158.1 11.6 157.7 12.4 C 157.3 13.1 156.7 13.7 155.9 14.2 C 155.1 14.6 154.3 14.8 153.4 14.8 C 152 14.8 150.8 14.3 149.9 13.4 C 149 12.5 148.5 11.1 148.5 9.4 Z M 150.4 9.4 C 150.4 10.7 150.6 11.7 151.2 12.4 C 151.8 13 152.5 13.3 153.4 13.3 C 154.3 13.3 155 13 155.6 12.4 C 156.2 11.7 156.5 10.7 156.5 9.3 C 156.5 8 156.2 7.1 155.6 6.4 C 155 5.7 154.3 5.4 153.4 5.4 C 152.5 5.4 151.8 5.7 151.2 6.4 C 150.6 7.1 150.4 8 150.4 9.4 Z M 160.3 14.6 L 160.3 0.2 L 162.1 0.2 L 162.1 8.4 L 166.3 4.2 L 168.5 4.2 L 164.6 8 L 168.9 14.6 L 166.8 14.6 L 163.3 9.3 L 162.1 10.4 L 162.1 14.6 L 160.3 14.6 Z M 177.4 11.2 C 177.4 11.2 179.2 11.4 179.2 11.4 C 179 12.5 178.4 13.3 177.6 13.9 C 176.9 14.5 175.9 14.8 174.7 14.8 C 173.2 14.8 172 14.3 171.1 13.4 C 170.2 12.5 169.7 11.1 169.7 9.5 C 169.7 7.7 170.2 6.4 171.1 5.4 C 172 4.4 173.1 4 174.6 4 C 176 4 177.1 4.4 178 5.4 C 178.9 6.3 179.3 7.6 179.3 9.4 C 179.3 9.5 179.3 9.6 179.3 9.8 C 179.3 9.8 171.6 9.8 171.6 9.8 C 171.6 11 171.9 11.8 172.5 12.4 C 173.1 13 173.8 13.3 174.7 13.3 C 175.3 13.3 175.9 13.2 176.3 12.8 C 176.8 12.5 177.2 12 177.4 11.2 Z M 171.7 8.4 C 171.7 8.4 177.4 8.4 177.4 8.4 C 177.4 7.5 177.1 6.9 176.8 6.4 C 176.2 5.7 175.5 5.4 174.6 5.4 C 173.8 5.4 173.1 5.7 172.6 6.2 C 172 6.8 171.7 7.5 171.7 8.4 Z M 187 18.5 L 187 4.2 L 188.6 4.2 C 188.6 4.2 188.6 5.54 188.6 5.5 C 189 5 189.4 4.6 189.9 4.4 C 190.4 4.1 190.9 4 191.6 4 C 192.5 4 193.3 4.2 194 4.6 C 194.6 5.1 195.1 5.7 195.5 6.6 C 195.8 7.4 196 8.3 196 9.3 C 196 10.4 195.8 11.3 195.4 12.2 C 195.1 13 194.5 13.7 193.8 14.1 C 193 14.6 192.3 14.8 191.5 14.8 C 190.9 14.8 190.4 14.7 189.9 14.4 C 189.4 14.2 189.1 13.9 188.8 13.5 C 188.76 13.49 188.8 18.5 188.8 18.5 L 187 18.5 Z M 188.6 9.4 C 188.6 10.8 188.9 11.8 189.4 12.4 C 189.9 13 190.6 13.3 191.4 13.3 C 192.1 13.3 192.8 13 193.4 12.4 C 193.9 11.7 194.2 10.7 194.2 9.3 C 194.2 8 193.9 7 193.4 6.3 C 192.8 5.7 192.2 5.3 191.4 5.3 C 190.7 5.3 190 5.7 189.5 6.4 C 188.9 7.1 188.6 8.1 188.6 9.4 Z M 205.2 14.6 C 205.1 14.2 204.9 13.8 204.9 13.3 C 204.2 13.8 203.6 14.2 203 14.5 C 202.4 14.7 201.8 14.8 201.1 14.8 C 199.9 14.8 199.1 14.5 198.4 14 C 197.8 13.4 197.5 12.7 197.5 11.8 C 197.5 11.3 197.6 10.9 197.9 10.4 C 198.1 10 198.4 9.7 198.8 9.4 C 199.2 9.2 199.6 9 200 8.8 C 200.4 8.8 200.9 8.7 201.6 8.6 C 203 8.4 204.1 8.2 204.7 8 C 204.8 7.7 204.8 7.6 204.8 7.5 C 204.8 6.8 204.6 6.3 204.3 6 C 203.8 5.6 203.1 5.4 202.3 5.4 C 201.4 5.4 200.8 5.6 200.4 5.8 C 200 6.1 199.7 6.6 199.6 7.4 C 199.6 7.4 197.8 7.1 197.8 7.1 C 198 6.4 198.2 5.8 198.6 5.4 C 199 4.9 199.5 4.6 200.2 4.3 C 200.8 4.1 201.6 4 202.5 4 C 203.4 4 204.1 4.1 204.7 4.3 C 205.2 4.5 205.6 4.7 205.9 5.1 C 206.1 5.4 206.3 5.8 206.4 6.3 C 206.5 6.5 206.5 7.1 206.5 7.9 C 206.5 7.9 206.5 10.2 206.5 10.2 C 206.5 11.8 206.6 12.9 206.6 13.3 C 206.7 13.7 206.9 14.2 207.1 14.6 C 207.08 14.56 205.2 14.6 205.2 14.6 C 205.2 14.6 205.24 14.56 205.2 14.6 Z M 204.7 9.4 C 204.1 9.6 203.2 9.8 201.9 10 C 201.2 10.1 200.6 10.2 200.3 10.4 C 200 10.5 199.8 10.7 199.6 10.9 C 199.5 11.2 199.4 11.5 199.4 11.8 C 199.4 12.2 199.6 12.6 199.9 12.9 C 200.3 13.3 200.8 13.4 201.5 13.4 C 202.2 13.4 202.8 13.3 203.3 13 C 203.8 12.7 204.2 12.3 204.5 11.8 C 204.7 11.4 204.7 10.8 204.7 10 C 204.7 10 204.7 9.4 204.7 9.4 Z M 209.2 18.5 L 209.2 4.2 L 210.8 4.2 C 210.8 4.2 210.85 5.54 210.8 5.5 C 211.2 5 211.7 4.6 212.1 4.4 C 212.6 4.1 213.2 4 213.9 4 C 214.7 4 215.5 4.2 216.2 4.6 C 216.9 5.1 217.4 5.7 217.7 6.6 C 218.1 7.4 218.3 8.3 218.3 9.3 C 218.3 10.4 218.1 11.3 217.7 12.2 C 217.3 13 216.7 13.7 216 14.1 C 215.3 14.6 214.5 14.8 213.7 14.8 C 213.1 14.8 212.6 14.7 212.2 14.4 C 211.7 14.2 211.3 13.9 211 13.5 C 211.01 13.49 211 18.5 211 18.5 L 209.2 18.5 Z M 210.8 9.4 C 210.8 10.8 211.1 11.8 211.7 12.4 C 212.2 13 212.8 13.3 213.6 13.3 C 214.4 13.3 215.1 13 215.6 12.4 C 216.2 11.7 216.5 10.7 216.5 9.3 C 216.5 8 216.2 7 215.6 6.3 C 215.1 5.7 214.4 5.3 213.7 5.3 C 212.9 5.3 212.3 5.7 211.7 6.4 C 211.1 7.1 210.8 8.1 210.8 9.4 Z M 227.5 11.2 C 227.5 11.2 229.3 11.4 229.3 11.4 C 229 12.5 228.5 13.3 227.7 13.9 C 226.9 14.5 225.9 14.8 224.7 14.8 C 223.2 14.8 222 14.3 221.1 13.4 C 220.2 12.5 219.8 11.1 219.8 9.5 C 219.8 7.7 220.2 6.4 221.1 5.4 C 222 4.4 223.2 4 224.6 4 C 226 4 227.1 4.4 228 5.4 C 228.9 6.3 229.3 7.6 229.3 9.4 C 229.3 9.5 229.3 9.6 229.3 9.8 C 229.3 9.8 221.6 9.8 221.6 9.8 C 221.7 11 222 11.8 222.6 12.4 C 223.1 13 223.9 13.3 224.7 13.3 C 225.4 13.3 225.9 13.2 226.4 12.8 C 226.8 12.5 227.2 12 227.5 11.2 Z M 221.7 8.4 C 221.7 8.4 227.5 8.4 227.5 8.4 C 227.4 7.5 227.2 6.9 226.8 6.4 C 226.3 5.7 225.5 5.4 224.6 5.4 C 223.8 5.4 223.2 5.7 222.6 6.2 C 222.1 6.8 221.8 7.5 221.7 8.4 Z M 231.5 14.6 L 231.5 4.2 L 233.1 4.2 C 233.1 4.2 233.06 5.76 233.1 5.8 C 233.5 5 233.8 4.5 234.2 4.3 C 234.5 4.1 234.9 4 235.3 4 C 235.9 4 236.5 4.1 237.1 4.5 C 237.1 4.5 236.5 6.2 236.5 6.2 C 236.1 5.9 235.6 5.8 235.2 5.8 C 234.8 5.8 234.5 5.9 234.2 6.1 C 233.9 6.3 233.7 6.7 233.5 7.1 C 233.3 7.7 233.2 8.4 233.2 9.1 C 233.23 9.13 233.2 14.6 233.2 14.6 L 231.5 14.6 Z M 244.1 14.6 L 244.1 5.6 L 242.6 5.6 L 242.6 4.2 L 244.1 4.2 C 244.1 4.2 244.13 3.09 244.1 3.1 C 244.1 2.4 244.2 1.9 244.3 1.5 C 244.5 1.1 244.8 0.7 245.2 0.4 C 245.6 0.1 246.2 0 247 0 C 247.5 0 248 0.1 248.6 0.2 C 248.6 0.2 248.4 1.7 248.4 1.7 C 248 1.6 247.7 1.6 247.3 1.6 C 246.8 1.6 246.4 1.7 246.2 2 C 246 2.2 245.9 2.6 245.9 3.2 C 245.88 3.23 245.9 4.2 245.9 4.2 L 247.9 4.2 L 247.9 5.6 L 245.9 5.6 L 245.9 14.6 L 244.1 14.6 Z M 248.6 9.4 C 248.6 7.5 249.1 6 250.2 5.1 C 251.1 4.3 252.2 4 253.5 4 C 254.9 4 256.1 4.4 257 5.4 C 257.9 6.3 258.3 7.6 258.3 9.2 C 258.3 10.6 258.1 11.6 257.7 12.4 C 257.3 13.1 256.7 13.7 256 14.2 C 255.2 14.6 254.4 14.8 253.5 14.8 C 252 14.8 250.9 14.3 250 13.4 C 249.1 12.5 248.6 11.1 248.6 9.4 Z M 250.4 9.4 C 250.4 10.7 250.7 11.7 251.3 12.4 C 251.9 13 252.6 13.3 253.5 13.3 C 254.3 13.3 255.1 13 255.7 12.4 C 256.2 11.7 256.5 10.7 256.5 9.3 C 256.5 8 256.2 7.1 255.6 6.4 C 255.1 5.7 254.3 5.4 253.5 5.4 C 252.6 5.4 251.9 5.7 251.3 6.4 C 250.7 7.1 250.4 8 250.4 9.4 Z M 260.4 14.6 L 260.4 4.2 L 262 4.2 C 262 4.2 261.95 5.76 262 5.8 C 262.4 5 262.7 4.5 263.1 4.3 C 263.4 4.1 263.8 4 264.2 4 C 264.8 4 265.4 4.1 266 4.5 C 266 4.5 265.4 6.2 265.4 6.2 C 265 5.9 264.5 5.8 264.1 5.8 C 263.7 5.8 263.4 5.9 263.1 6.1 C 262.8 6.3 262.6 6.7 262.4 7.1 C 262.2 7.7 262.1 8.4 262.1 9.1 C 262.13 9.13 262.1 14.6 262.1 14.6 L 260.4 14.6 Z M 272 9.4 C 272 7.5 272.5 6 273.6 5.1 C 274.4 4.3 275.5 4 276.8 4 C 278.2 4 279.4 4.4 280.3 5.4 C 281.2 6.3 281.7 7.6 281.7 9.2 C 281.7 10.6 281.5 11.6 281.1 12.4 C 280.7 13.1 280.1 13.7 279.3 14.2 C 278.6 14.6 277.7 14.8 276.8 14.8 C 275.4 14.8 274.2 14.3 273.3 13.4 C 272.4 12.5 272 11.1 272 9.4 Z M 273.8 9.4 C 273.8 10.7 274 11.7 274.6 12.4 C 275.2 13 275.9 13.3 276.8 13.3 C 277.7 13.3 278.4 13 279 12.4 C 279.6 11.7 279.9 10.7 279.9 9.3 C 279.9 8 279.6 7.1 279 6.4 C 278.4 5.7 277.7 5.4 276.8 5.4 C 275.9 5.4 275.2 5.7 274.6 6.4 C 274 7.1 273.8 8 273.8 9.4 Z M 283.7 14.6 L 283.7 4.2 L 285.3 4.2 C 285.3 4.2 285.31 5.66 285.3 5.7 C 286.1 4.5 287.2 4 288.6 4 C 289.2 4 289.8 4.1 290.3 4.3 C 290.9 4.5 291.3 4.8 291.5 5.2 C 291.8 5.5 292 6 292.1 6.5 C 292.1 6.8 292.2 7.4 292.2 8.2 C 292.16 8.18 292.2 14.6 292.2 14.6 L 290.4 14.6 C 290.4 14.6 290.4 8.25 290.4 8.3 C 290.4 7.5 290.3 7 290.2 6.6 C 290.1 6.3 289.8 6 289.5 5.8 C 289.1 5.6 288.7 5.5 288.2 5.5 C 287.5 5.5 286.8 5.7 286.3 6.2 C 285.8 6.7 285.5 7.6 285.5 8.9 C 285.49 8.9 285.5 14.6 285.5 14.6 L 283.7 14.6 Z M 302 11.2 C 302 11.2 303.8 11.4 303.8 11.4 C 303.5 12.5 303 13.3 302.2 13.9 C 301.4 14.5 300.4 14.8 299.2 14.8 C 297.7 14.8 296.5 14.3 295.6 13.4 C 294.7 12.5 294.3 11.1 294.3 9.5 C 294.3 7.7 294.7 6.4 295.6 5.4 C 296.5 4.4 297.7 4 299.1 4 C 300.5 4 301.6 4.4 302.5 5.4 C 303.4 6.3 303.8 7.6 303.8 9.4 C 303.8 9.5 303.8 9.6 303.8 9.8 C 303.8 9.8 296.1 9.8 296.1 9.8 C 296.1 11 296.5 11.8 297.1 12.4 C 297.6 13 298.4 13.3 299.2 13.3 C 299.9 13.3 300.4 13.2 300.9 12.8 C 301.3 12.5 301.7 12 302 11.2 Z M 296.2 8.4 C 296.2 8.4 302 8.4 302 8.4 C 301.9 7.5 301.7 6.9 301.3 6.4 C 300.7 5.7 300 5.4 299.1 5.4 C 298.3 5.4 297.6 5.7 297.1 6.2 C 296.5 6.8 296.2 7.5 296.2 8.4 Z M 310.9 9.4 C 310.9 7.5 311.4 6 312.5 5.1 C 313.4 4.3 314.5 4 315.7 4 C 317.2 4 318.3 4.4 319.2 5.4 C 320.1 6.3 320.6 7.6 320.6 9.2 C 320.6 10.6 320.4 11.6 320 12.4 C 319.6 13.1 319 13.7 318.2 14.2 C 317.5 14.6 316.6 14.8 315.7 14.8 C 314.3 14.8 313.1 14.3 312.2 13.4 C 311.3 12.5 310.9 11.1 310.9 9.4 Z M 312.7 9.4 C 312.7 10.7 313 11.7 313.6 12.4 C 314.1 13 314.9 13.3 315.7 13.3 C 316.6 13.3 317.3 13 317.9 12.4 C 318.5 11.7 318.8 10.7 318.8 9.3 C 318.8 8 318.5 7.1 317.9 6.4 C 317.3 5.7 316.6 5.4 315.7 5.4 C 314.9 5.4 314.1 5.7 313.6 6.4 C 313 7.1 312.7 8 312.7 9.4 Z M 323.1 14.6 L 323.1 5.6 L 321.5 5.6 L 321.5 4.2 L 323.1 4.2 C 323.1 4.2 323.08 3.09 323.1 3.1 C 323.1 2.4 323.1 1.9 323.3 1.5 C 323.4 1.1 323.7 0.7 324.2 0.4 C 324.6 0.1 325.2 0 325.9 0 C 326.4 0 327 0.1 327.6 0.2 C 327.6 0.2 327.3 1.7 327.3 1.7 C 327 1.6 326.6 1.6 326.3 1.6 C 325.8 1.6 325.4 1.7 325.2 2 C 324.9 2.2 324.8 2.6 324.8 3.2 C 324.82 3.23 324.8 4.2 324.8 4.2 L 326.8 4.2 L 326.8 5.6 L 324.8 5.6 L 324.8 14.6 L 323.1 14.6 Z M 336.8 13.1 C 337 13.1 337.3 13 337.6 13 C 337.6 13 337.9 14.5 337.9 14.5 C 337.4 14.6 336.9 14.7 336.5 14.7 C 335.9 14.7 335.4 14.6 335 14.4 C 334.7 14.2 334.4 13.9 334.3 13.6 C 334.2 13.3 334.1 12.6 334.1 11.5 C 334.09 11.52 334.1 5.6 334.1 5.6 L 332.8 5.6 L 332.8 4.2 L 334.1 4.2 L 334.1 1.6 L 335.8 0.6 L 335.8 4.2 L 337.6 4.2 L 337.6 5.6 L 335.8 5.6 C 335.8 5.6 335.84 11.62 335.8 11.6 C 335.8 12.1 335.9 12.4 335.9 12.6 C 336 12.7 336.1 12.8 336.2 12.9 C 336.4 13 336.6 13.1 336.8 13.1 C 336.8 13.1 336.8 13.1 336.8 13.1 Z M 339.3 14.6 L 339.3 0.2 L 341.1 0.2 C 341.1 0.2 341.08 5.38 341.1 5.4 C 341.9 4.4 342.9 4 344.2 4 C 345 4 345.6 4.1 346.2 4.4 C 346.8 4.7 347.2 5.1 347.4 5.7 C 347.7 6.2 347.8 7 347.8 8 C 347.77 7.99 347.8 14.6 347.8 14.6 L 346 14.6 C 346 14.6 346.02 7.99 346 8 C 346 7.1 345.8 6.5 345.4 6.1 C 345.1 5.7 344.5 5.5 343.8 5.5 C 343.3 5.5 342.8 5.6 342.4 5.9 C 341.9 6.1 341.6 6.5 341.4 7 C 341.2 7.4 341.1 8.1 341.1 8.9 C 341.08 8.89 341.1 14.6 341.1 14.6 L 339.3 14.6 Z M 357.5 11.2 C 357.5 11.2 359.4 11.4 359.4 11.4 C 359.1 12.5 358.5 13.3 357.8 13.9 C 357 14.5 356 14.8 354.8 14.8 C 353.3 14.8 352.1 14.3 351.2 13.4 C 350.3 12.5 349.9 11.1 349.9 9.5 C 349.9 7.7 350.3 6.4 351.2 5.4 C 352.1 4.4 353.3 4 354.7 4 C 356.1 4 357.2 4.4 358.1 5.4 C 359 6.3 359.4 7.6 359.4 9.4 C 359.4 9.5 359.4 9.6 359.4 9.8 C 359.4 9.8 351.7 9.8 351.7 9.8 C 351.7 11 352.1 11.8 352.6 12.4 C 353.2 13 353.9 13.3 354.8 13.3 C 355.5 13.3 356 13.2 356.5 12.8 C 356.9 12.5 357.3 12 357.5 11.2 Z M 351.8 8.4 C 351.8 8.4 357.6 8.4 357.6 8.4 C 357.5 7.5 357.3 6.9 356.9 6.4 C 356.3 5.7 355.6 5.4 354.7 5.4 C 353.9 5.4 353.2 5.7 352.7 6.2 C 352.1 6.8 351.8 7.5 351.8 8.4 Z M 369 14.6 L 365.9 4.2 L 367.7 4.2 L 369.3 10.2 C 369.3 10.2 369.95 12.4 370 12.4 C 370 12.3 370.2 11.6 370.5 10.3 C 370.49 10.26 372.1 4.2 372.1 4.2 L 373.9 4.2 L 375.5 10.2 L 376 12.2 L 376.6 10.2 L 378.4 4.2 L 380.1 4.2 L 376.9 14.6 L 375 14.6 L 373.4 8.3 L 373 6.6 L 370.9 14.6 L 369 14.6 Z M 380.9 9.4 C 380.9 7.5 381.5 6 382.5 5.1 C 383.4 4.3 384.5 4 385.8 4 C 387.2 4 388.4 4.4 389.3 5.4 C 390.2 6.3 390.6 7.6 390.6 9.2 C 390.6 10.6 390.4 11.6 390 12.4 C 389.6 13.1 389.1 13.7 388.3 14.2 C 387.5 14.6 386.7 14.8 385.8 14.8 C 384.3 14.8 383.2 14.3 382.3 13.4 C 381.4 12.5 380.9 11.1 380.9 9.4 Z M 382.7 9.4 C 382.7 10.7 383 11.7 383.6 12.4 C 384.2 13 384.9 13.3 385.8 13.3 C 386.7 13.3 387.4 13 388 12.4 C 388.5 11.7 388.8 10.7 388.8 9.3 C 388.8 8 388.5 7.1 388 6.4 C 387.4 5.7 386.6 5.4 385.8 5.4 C 384.9 5.4 384.2 5.7 383.6 6.4 C 383 7.1 382.7 8 382.7 9.4 Z M 392.7 14.6 L 392.7 4.2 L 394.3 4.2 C 394.3 4.2 394.26 5.76 394.3 5.8 C 394.7 5 395 4.5 395.4 4.3 C 395.7 4.1 396.1 4 396.5 4 C 397.1 4 397.7 4.1 398.3 4.5 C 398.3 4.5 397.7 6.2 397.7 6.2 C 397.3 5.9 396.8 5.8 396.4 5.8 C 396 5.8 395.7 5.9 395.4 6.1 C 395.1 6.3 394.9 6.7 394.7 7.1 C 394.5 7.7 394.4 8.4 394.4 9.1 C 394.43 9.13 394.4 14.6 394.4 14.6 L 392.7 14.6 Z M 399.3 14.6 L 399.3 0.2 L 401.1 0.2 L 401.1 14.6 L 399.3 14.6 Z M 410.5 14.6 C 410.5 14.6 410.53 13.25 410.5 13.3 C 409.9 14.3 408.9 14.8 407.6 14.8 C 406.8 14.8 406 14.6 405.3 14.1 C 404.7 13.7 404.1 13 403.7 12.2 C 403.4 11.4 403.2 10.4 403.2 9.4 C 403.2 8.3 403.3 7.4 403.7 6.6 C 404 5.7 404.5 5.1 405.2 4.6 C 405.9 4.2 406.7 4 407.5 4 C 408.2 4 408.7 4.1 409.2 4.4 C 409.7 4.6 410.1 5 410.4 5.4 C 410.41 5.38 410.4 0.2 410.4 0.2 L 412.2 0.2 L 412.2 14.6 L 410.5 14.6 Z M 405 9.4 C 405 10.7 405.3 11.7 405.8 12.4 C 406.4 13 407 13.3 407.8 13.3 C 408.6 13.3 409.2 13 409.8 12.4 C 410.3 11.8 410.6 10.8 410.6 9.5 C 410.6 8.1 410.3 7.1 409.7 6.4 C 409.2 5.7 408.5 5.4 407.7 5.4 C 406.9 5.4 406.3 5.7 405.8 6.4 C 405.2 7 405 8 405 9.4 Z M 414.8 2.1 L 414.8 0.1 L 416.7 0.1 C 416.7 0.1 416.7 1.71 416.7 1.7 C 416.7 2.6 416.6 3.2 416.4 3.6 C 416.1 4.1 415.7 4.5 415.1 4.8 C 415.1 4.8 414.7 4.1 414.7 4.1 C 415 3.9 415.3 3.7 415.4 3.4 C 415.6 3.1 415.7 2.7 415.7 2.1 C 415.73 2.14 414.8 2.1 414.8 2.1 Z M 418.3 11.5 C 418.3 11.5 420 11.2 420 11.2 C 420.1 11.9 420.4 12.4 420.9 12.8 C 421.3 13.2 421.9 13.3 422.7 13.3 C 423.5 13.3 424.1 13.2 424.5 12.9 C 424.9 12.5 425.1 12.1 425.1 11.7 C 425.1 11.3 424.9 11 424.6 10.8 C 424.3 10.6 423.8 10.4 422.8 10.2 C 421.5 9.8 420.6 9.6 420.1 9.3 C 419.6 9.1 419.2 8.8 419 8.3 C 418.7 7.9 418.6 7.5 418.6 6.9 C 418.6 6.5 418.7 6.1 418.9 5.7 C 419.1 5.3 419.4 4.9 419.8 4.7 C 420 4.5 420.4 4.3 420.9 4.2 C 421.4 4 421.9 4 422.4 4 C 423.2 4 423.9 4.1 424.6 4.3 C 425.2 4.5 425.6 4.9 425.9 5.3 C 426.2 5.7 426.4 6.2 426.5 6.9 C 426.5 6.9 424.8 7.1 424.8 7.1 C 424.7 6.6 424.5 6.1 424.1 5.8 C 423.8 5.6 423.2 5.4 422.5 5.4 C 421.7 5.4 421.2 5.5 420.8 5.8 C 420.5 6.1 420.3 6.4 420.3 6.7 C 420.3 7 420.4 7.2 420.5 7.4 C 420.7 7.5 420.9 7.7 421.2 7.8 C 421.4 7.9 421.9 8 422.7 8.3 C 424 8.6 424.8 8.9 425.3 9.1 C 425.8 9.3 426.2 9.6 426.5 10 C 426.8 10.4 426.9 10.9 426.9 11.5 C 426.9 12.1 426.7 12.7 426.4 13.2 C 426.1 13.7 425.6 14.1 424.9 14.4 C 424.3 14.7 423.5 14.8 422.7 14.8 C 421.4 14.8 420.4 14.5 419.7 14 C 418.9 13.4 418.5 12.6 418.3 11.5 Z M 434.5 14.6 L 434.5 0.2 L 436.3 0.2 L 436.3 14.6 L 434.5 14.6 Z M 446.1 14.6 C 445.9 14.2 445.8 13.8 445.8 13.3 C 445.1 13.8 444.5 14.2 443.9 14.5 C 443.3 14.7 442.6 14.8 442 14.8 C 440.8 14.8 439.9 14.5 439.3 14 C 438.7 13.4 438.4 12.7 438.4 11.8 C 438.4 11.3 438.5 10.9 438.8 10.4 C 439 10 439.3 9.7 439.7 9.4 C 440 9.2 440.5 9 440.9 8.8 C 441.3 8.8 441.8 8.7 442.5 8.6 C 443.9 8.4 445 8.2 445.6 8 C 445.6 7.7 445.6 7.6 445.6 7.5 C 445.6 6.8 445.5 6.3 445.1 6 C 444.7 5.6 444 5.4 443.1 5.4 C 442.3 5.4 441.7 5.6 441.3 5.8 C 440.9 6.1 440.6 6.6 440.4 7.4 C 440.4 7.4 438.7 7.1 438.7 7.1 C 438.9 6.4 439.1 5.8 439.5 5.4 C 439.8 4.9 440.4 4.6 441 4.3 C 441.7 4.1 442.5 4 443.4 4 C 444.3 4 445 4.1 445.5 4.3 C 446.1 4.5 446.5 4.7 446.8 5.1 C 447 5.4 447.2 5.8 447.3 6.3 C 447.4 6.5 447.4 7.1 447.4 7.9 C 447.4 7.9 447.4 10.2 447.4 10.2 C 447.4 11.8 447.4 12.9 447.5 13.3 C 447.6 13.7 447.7 14.2 448 14.6 C 447.96 14.56 446.1 14.6 446.1 14.6 C 446.1 14.6 446.12 14.56 446.1 14.6 Z M 445.6 9.4 C 445 9.6 444 9.8 442.8 10 C 442 10.1 441.5 10.2 441.2 10.4 C 440.9 10.5 440.7 10.7 440.5 10.9 C 440.4 11.2 440.3 11.5 440.3 11.8 C 440.3 12.2 440.5 12.6 440.8 12.9 C 441.2 13.3 441.7 13.4 442.4 13.4 C 443.1 13.4 443.7 13.3 444.2 13 C 444.7 12.7 445.1 12.3 445.3 11.8 C 445.5 11.4 445.6 10.8 445.6 10 C 445.6 10 445.6 9.4 445.6 9.4 Z M 450.1 14.6 L 450.1 4.2 L 451.7 4.2 C 451.7 4.2 451.69 5.76 451.7 5.8 C 452.1 5 452.5 4.5 452.8 4.3 C 453.1 4.1 453.5 4 453.9 4 C 454.5 4 455.1 4.1 455.7 4.5 C 455.7 4.5 455.1 6.2 455.1 6.2 C 454.7 5.9 454.3 5.8 453.8 5.8 C 453.5 5.8 453.1 5.9 452.8 6.1 C 452.5 6.3 452.3 6.7 452.2 7.1 C 452 7.7 451.9 8.4 451.9 9.1 C 451.87 9.13 451.9 14.6 451.9 14.6 L 450.1 14.6 Z M 456.5 15.4 C 456.5 15.4 458.2 15.7 458.2 15.7 C 458.2 16.2 458.4 16.6 458.8 16.8 C 459.2 17.2 459.8 17.3 460.6 17.3 C 461.4 17.3 462 17.2 462.4 16.8 C 462.9 16.5 463.2 16 463.3 15.5 C 463.4 15.1 463.5 14.3 463.5 13.2 C 462.7 14.1 461.7 14.6 460.6 14.6 C 459.2 14.6 458.1 14 457.3 13 C 456.5 12 456.1 10.8 456.1 9.3 C 456.1 8.3 456.3 7.4 456.7 6.6 C 457 5.7 457.5 5.1 458.2 4.6 C 458.9 4.2 459.7 4 460.6 4 C 461.8 4 462.8 4.4 463.6 5.4 C 463.63 5.44 463.6 4.2 463.6 4.2 L 465.3 4.2 C 465.3 4.2 465.25 13.15 465.3 13.2 C 465.3 14.8 465.1 15.9 464.8 16.6 C 464.4 17.3 463.9 17.8 463.2 18.2 C 462.5 18.6 461.6 18.8 460.6 18.8 C 459.3 18.8 458.3 18.5 457.6 17.9 C 456.8 17.4 456.4 16.5 456.5 15.4 Z M 457.9 9.2 C 457.9 10.6 458.2 11.5 458.7 12.2 C 459.3 12.8 459.9 13.1 460.8 13.1 C 461.6 13.1 462.2 12.8 462.8 12.2 C 463.3 11.6 463.6 10.6 463.6 9.2 C 463.6 8 463.3 7 462.8 6.4 C 462.2 5.7 461.5 5.4 460.7 5.4 C 460 5.4 459.3 5.7 458.7 6.4 C 458.2 7 457.9 7.9 457.9 9.2 Z M 475 11.2 C 475 11.2 476.8 11.4 476.8 11.4 C 476.5 12.5 476 13.3 475.2 13.9 C 474.5 14.5 473.5 14.8 472.3 14.8 C 470.7 14.8 469.5 14.3 468.7 13.4 C 467.8 12.5 467.3 11.1 467.3 9.5 C 467.3 7.7 467.8 6.4 468.7 5.4 C 469.6 4.4 470.7 4 472.2 4 C 473.6 4 474.7 4.4 475.6 5.4 C 476.4 6.3 476.9 7.6 476.9 9.4 C 476.9 9.5 476.9 9.6 476.9 9.8 C 476.9 9.8 469.1 9.8 469.1 9.8 C 469.2 11 469.5 11.8 470.1 12.4 C 470.7 13 471.4 13.3 472.3 13.3 C 472.9 13.3 473.5 13.2 473.9 12.8 C 474.4 12.5 474.7 12 475 11.2 Z M 469.2 8.4 C 469.2 8.4 475 8.4 475 8.4 C 475 7.5 474.7 6.9 474.4 6.4 C 473.8 5.7 473.1 5.4 472.2 5.4 C 471.4 5.4 470.7 5.7 470.2 6.2 C 469.6 6.8 469.3 7.5 469.2 8.4 Z M 478.3 11.5 C 478.3 11.5 480.1 11.2 480.1 11.2 C 480.2 11.9 480.4 12.4 480.9 12.8 C 481.3 13.2 482 13.3 482.8 13.3 C 483.6 13.3 484.2 13.2 484.6 12.9 C 484.9 12.5 485.1 12.1 485.1 11.7 C 485.1 11.3 485 11 484.6 10.8 C 484.4 10.6 483.8 10.4 482.8 10.2 C 481.5 9.8 480.6 9.6 480.1 9.3 C 479.6 9.1 479.3 8.8 479 8.3 C 478.8 7.9 478.6 7.5 478.6 6.9 C 478.6 6.5 478.7 6.1 478.9 5.7 C 479.2 5.3 479.4 4.9 479.8 4.7 C 480.1 4.5 480.5 4.3 480.9 4.2 C 481.4 4 481.9 4 482.4 4 C 483.3 4 484 4.1 484.6 4.3 C 485.2 4.5 485.7 4.9 485.9 5.3 C 486.2 5.7 486.4 6.2 486.6 6.9 C 486.6 6.9 484.8 7.1 484.8 7.1 C 484.8 6.6 484.5 6.1 484.2 5.8 C 483.8 5.6 483.3 5.4 482.6 5.4 C 481.8 5.4 481.2 5.5 480.8 5.8 C 480.5 6.1 480.3 6.4 480.3 6.7 C 480.3 7 480.4 7.2 480.5 7.4 C 480.7 7.5 480.9 7.7 481.2 7.8 C 481.4 7.9 481.9 8 482.8 8.3 C 484 8.6 484.9 8.9 485.4 9.1 C 485.9 9.3 486.2 9.6 486.5 10 C 486.8 10.4 486.9 10.9 486.9 11.5 C 486.9 12.1 486.8 12.7 486.4 13.2 C 486.1 13.7 485.6 14.1 485 14.4 C 484.3 14.7 483.6 14.8 482.8 14.8 C 481.4 14.8 480.4 14.5 479.7 14 C 479 13.4 478.5 12.6 478.3 11.5 Z M 492.1 13.1 C 492.3 13.1 492.6 13 492.9 13 C 492.9 13 493.1 14.5 493.1 14.5 C 492.6 14.6 492.2 14.7 491.8 14.7 C 491.2 14.7 490.7 14.6 490.3 14.4 C 490 14.2 489.7 13.9 489.6 13.6 C 489.4 13.3 489.4 12.6 489.4 11.5 C 489.36 11.52 489.4 5.6 489.4 5.6 L 488.1 5.6 L 488.1 4.2 L 489.4 4.2 L 489.4 1.6 L 491.1 0.6 L 491.1 4.2 L 492.9 4.2 L 492.9 5.6 L 491.1 5.6 C 491.1 5.6 491.1 11.62 491.1 11.6 C 491.1 12.1 491.1 12.4 491.2 12.6 C 491.3 12.7 491.4 12.8 491.5 12.9 C 491.6 13 491.8 13.1 492.1 13.1 C 492.1 13.1 492.1 13.1 492.1 13.1 Z M 500.1 18.5 L 500.1 4.2 L 501.7 4.2 C 501.7 4.2 501.75 5.54 501.7 5.5 C 502.1 5 502.6 4.6 503 4.4 C 503.5 4.1 504.1 4 504.8 4 C 505.6 4 506.4 4.2 507.1 4.6 C 507.8 5.1 508.3 5.7 508.6 6.6 C 509 7.4 509.2 8.3 509.2 9.3 C 509.2 10.4 509 11.3 508.6 12.2 C 508.2 13 507.6 13.7 506.9 14.1 C 506.2 14.6 505.4 14.8 504.6 14.8 C 504 14.8 503.5 14.7 503.1 14.4 C 502.6 14.2 502.2 13.9 501.9 13.5 C 501.9 13.49 501.9 18.5 501.9 18.5 L 500.1 18.5 Z M 501.7 9.4 C 501.7 10.8 502 11.8 502.5 12.4 C 503.1 13 503.7 13.3 504.5 13.3 C 505.3 13.3 506 13 506.5 12.4 C 507.1 11.7 507.4 10.7 507.4 9.3 C 507.4 8 507.1 7 506.5 6.3 C 506 5.7 505.3 5.3 504.6 5.3 C 503.8 5.3 503.2 5.7 502.6 6.4 C 502 7.1 501.7 8.1 501.7 9.4 Z M 511.3 14.6 L 511.3 4.2 L 512.8 4.2 C 512.8 4.2 512.83 5.76 512.8 5.8 C 513.2 5 513.6 4.5 514 4.3 C 514.3 4.1 514.7 4 515.1 4 C 515.7 4 516.3 4.1 516.9 4.5 C 516.9 4.5 516.3 6.2 516.3 6.2 C 515.8 5.9 515.4 5.8 515 5.8 C 514.6 5.8 514.3 5.9 514 6.1 C 513.6 6.3 513.4 6.7 513.3 7.1 C 513.1 7.7 513 8.4 513 9.1 C 513.01 9.13 513 14.6 513 14.6 L 511.3 14.6 Z M 517.9 2.3 L 517.9 0.2 L 519.7 0.2 L 519.7 2.3 L 517.9 2.3 Z M 517.9 14.6 L 517.9 4.2 L 519.7 4.2 L 519.7 14.6 L 517.9 14.6 Z M 525.3 14.6 L 521.3 4.2 L 523.2 4.2 C 523.2 4.2 525.39 10.4 525.4 10.4 C 525.6 11.1 525.9 11.8 526.1 12.5 C 526.2 11.9 526.4 11.3 526.7 10.5 C 526.71 10.52 529 4.2 529 4.2 L 530.8 4.2 L 526.9 14.6 L 525.3 14.6 Z M 539.5 14.6 C 539.3 14.2 539.2 13.8 539.1 13.3 C 538.5 13.8 537.9 14.2 537.3 14.5 C 536.7 14.7 536 14.8 535.3 14.8 C 534.2 14.8 533.3 14.5 532.7 14 C 532.1 13.4 531.8 12.7 531.8 11.8 C 531.8 11.3 531.9 10.9 532.1 10.4 C 532.4 10 532.7 9.7 533 9.4 C 533.4 9.2 533.8 9 534.3 8.8 C 534.6 8.8 535.2 8.7 535.9 8.6 C 537.3 8.4 538.3 8.2 539 8 C 539 7.7 539 7.6 539 7.5 C 539 6.8 538.8 6.3 538.5 6 C 538.1 5.6 537.4 5.4 536.5 5.4 C 535.7 5.4 535.1 5.6 534.7 5.8 C 534.3 6.1 534 6.6 533.8 7.4 C 533.8 7.4 532.1 7.1 532.1 7.1 C 532.2 6.4 532.5 5.8 532.9 5.4 C 533.2 4.9 533.7 4.6 534.4 4.3 C 535.1 4.1 535.9 4 536.8 4 C 537.6 4 538.4 4.1 538.9 4.3 C 539.5 4.5 539.9 4.7 540.1 5.1 C 540.4 5.4 540.6 5.8 540.7 6.3 C 540.7 6.5 540.8 7.1 540.8 7.9 C 540.8 7.9 540.8 10.2 540.8 10.2 C 540.8 11.8 540.8 12.9 540.9 13.3 C 541 13.7 541.1 14.2 541.3 14.6 C 541.33 14.56 539.5 14.6 539.5 14.6 C 539.5 14.6 539.49 14.56 539.5 14.6 Z M 539 9.4 C 538.4 9.6 537.4 9.8 536.1 10 C 535.4 10.1 534.9 10.2 534.6 10.4 C 534.3 10.5 534.1 10.7 533.9 10.9 C 533.7 11.2 533.7 11.5 533.7 11.8 C 533.7 12.2 533.8 12.6 534.2 12.9 C 534.5 13.3 535.1 13.4 535.7 13.4 C 536.4 13.4 537 13.3 537.5 13 C 538.1 12.7 538.5 12.3 538.7 11.8 C 538.9 11.4 539 10.8 539 10 C 539 10 539 9.4 539 9.4 Z M 546.6 13.1 C 546.8 13.1 547 13 547.3 13 C 547.3 13 547.6 14.5 547.6 14.5 C 547.1 14.6 546.7 14.7 546.3 14.7 C 545.6 14.7 545.1 14.6 544.8 14.4 C 544.4 14.2 544.2 13.9 544 13.6 C 543.9 13.3 543.8 12.6 543.8 11.5 C 543.82 11.52 543.8 5.6 543.8 5.6 L 542.5 5.6 L 542.5 4.2 L 543.8 4.2 L 543.8 1.6 L 545.6 0.6 L 545.6 4.2 L 547.3 4.2 L 547.3 5.6 L 545.6 5.6 C 545.6 5.6 545.57 11.62 545.6 11.6 C 545.6 12.1 545.6 12.4 545.7 12.6 C 545.7 12.7 545.8 12.8 546 12.9 C 546.1 13 546.3 13.1 546.6 13.1 C 546.6 13.1 546.6 13.1 546.6 13.1 Z M 556.2 11.2 C 556.2 11.2 558 11.4 558 11.4 C 557.7 12.5 557.2 13.3 556.4 13.9 C 555.6 14.5 554.6 14.8 553.4 14.8 C 551.9 14.8 550.7 14.3 549.8 13.4 C 548.9 12.5 548.5 11.1 548.5 9.5 C 548.5 7.7 548.9 6.4 549.8 5.4 C 550.7 4.4 551.9 4 553.3 4 C 554.7 4 555.8 4.4 556.7 5.4 C 557.6 6.3 558 7.6 558 9.4 C 558 9.5 558 9.6 558 9.8 C 558 9.8 550.3 9.8 550.3 9.8 C 550.3 11 550.7 11.8 551.3 12.4 C 551.8 13 552.6 13.3 553.4 13.3 C 554.1 13.3 554.6 13.2 555.1 12.8 C 555.5 12.5 555.9 12 556.2 11.2 Z M 550.4 8.4 C 550.4 8.4 556.2 8.4 556.2 8.4 C 556.1 7.5 555.9 6.9 555.5 6.4 C 554.9 5.7 554.2 5.4 553.3 5.4 C 552.5 5.4 551.8 5.7 551.3 6.2 C 550.7 6.8 550.4 7.5 550.4 8.4 Z M 572.8 11.2 C 572.8 11.2 574.6 11.4 574.6 11.4 C 574.4 12.5 573.8 13.3 573.1 13.9 C 572.3 14.5 571.3 14.8 570.1 14.8 C 568.6 14.8 567.4 14.3 566.5 13.4 C 565.6 12.5 565.1 11.1 565.1 9.5 C 565.1 7.7 565.6 6.4 566.5 5.4 C 567.4 4.4 568.6 4 570 4 C 571.4 4 572.5 4.4 573.4 5.4 C 574.3 6.3 574.7 7.6 574.7 9.4 C 574.7 9.5 574.7 9.6 574.7 9.8 C 574.7 9.8 567 9.8 567 9.8 C 567 11 567.4 11.8 567.9 12.4 C 568.5 13 569.2 13.3 570.1 13.3 C 570.7 13.3 571.3 13.2 571.7 12.8 C 572.2 12.5 572.6 12 572.8 11.2 Z M 567.1 8.4 C 567.1 8.4 572.9 8.4 572.9 8.4 C 572.8 7.5 572.6 6.9 572.2 6.4 C 571.6 5.7 570.9 5.4 570 5.4 C 569.2 5.4 568.5 5.7 568 6.2 C 567.4 6.8 567.1 7.5 567.1 8.4 Z M 583.5 18.5 C 583.5 18.5 583.47 13.46 583.5 13.5 C 583.2 13.8 582.8 14.2 582.3 14.4 C 581.8 14.7 581.3 14.8 580.8 14.8 C 579.5 14.8 578.5 14.3 577.6 13.3 C 576.7 12.3 576.2 11 576.2 9.3 C 576.2 8.2 576.4 7.3 576.8 6.5 C 577.1 5.6 577.7 5 578.4 4.6 C 579 4.2 579.8 4 580.6 4 C 581.9 4 582.9 4.5 583.6 5.6 C 583.64 5.58 583.6 4.2 583.6 4.2 L 585.2 4.2 L 585.2 18.5 L 583.5 18.5 Z M 578 9.3 C 578 10.7 578.3 11.7 578.9 12.3 C 579.4 13 580.1 13.3 580.9 13.3 C 581.6 13.3 582.3 13 582.8 12.4 C 583.4 11.8 583.6 10.8 583.6 9.5 C 583.6 8.1 583.4 7.1 582.8 6.4 C 582.2 5.7 581.5 5.3 580.8 5.3 C 580 5.3 579.4 5.7 578.8 6.3 C 578.3 7 578 8 578 9.3 Z M 594.8 14.6 C 594.8 14.6 594.78 13.04 594.8 13 C 594 14.2 592.9 14.8 591.5 14.8 C 590.9 14.8 590.3 14.7 589.8 14.4 C 589.2 14.2 588.8 13.9 588.6 13.6 C 588.3 13.2 588.2 12.8 588 12.3 C 588 11.9 587.9 11.4 587.9 10.6 C 587.94 10.62 587.9 4.2 587.9 4.2 L 589.7 4.2 C 589.7 4.2 589.7 9.94 589.7 9.9 C 589.7 10.9 589.7 11.5 589.8 11.8 C 589.9 12.3 590.1 12.6 590.5 12.9 C 590.9 13.1 591.3 13.3 591.8 13.3 C 592.4 13.3 592.9 13.1 593.3 12.9 C 593.8 12.6 594.1 12.2 594.3 11.8 C 594.5 11.3 594.6 10.6 594.6 9.7 C 594.59 9.75 594.6 4.2 594.6 4.2 L 596.3 4.2 L 596.3 14.6 L 594.8 14.6 Z M 599.1 2.3 L 599.1 0.2 L 600.9 0.2 L 600.9 2.3 L 599.1 2.3 Z M 599.1 14.6 L 599.1 4.2 L 600.9 4.2 L 600.9 14.6 L 599.1 14.6 Z M 606.6 13.1 C 606.8 13.1 607.1 13 607.4 13 C 607.4 13 607.6 14.5 607.6 14.5 C 607.1 14.6 606.7 14.7 606.3 14.7 C 605.7 14.7 605.2 14.6 604.8 14.4 C 604.5 14.2 604.2 13.9 604.1 13.6 C 603.9 13.3 603.9 12.6 603.9 11.5 C 603.87 11.52 603.9 5.6 603.9 5.6 L 602.6 5.6 L 602.6 4.2 L 603.9 4.2 L 603.9 1.6 L 605.6 0.6 L 605.6 4.2 L 607.4 4.2 L 607.4 5.6 L 605.6 5.6 C 605.6 5.6 605.62 11.62 605.6 11.6 C 605.6 12.1 605.6 12.4 605.7 12.6 C 605.8 12.7 605.9 12.8 606 12.9 C 606.2 13 606.4 13.1 606.6 13.1 C 606.6 13.1 606.6 13.1 606.6 13.1 Z M 610.2 18.8 C 609.8 18.8 609.4 18.7 609 18.6 C 609 18.6 608.8 16.9 608.8 16.9 C 609.2 17 609.5 17.1 609.8 17.1 C 610.2 17.1 610.5 17 610.8 16.9 C 611 16.7 611.2 16.6 611.3 16.3 C 611.5 16.1 611.6 15.7 611.9 15 C 611.9 14.9 612 14.8 612 14.6 C 612.04 14.58 608.1 4.2 608.1 4.2 L 610 4.2 C 610 4.2 612.16 10.2 612.2 10.2 C 612.4 11 612.7 11.8 612.9 12.6 C 613.1 11.8 613.4 11 613.6 10.2 C 613.63 10.23 615.8 4.2 615.8 4.2 L 617.6 4.2 C 617.6 4.2 613.66 14.74 613.7 14.7 C 613.2 15.9 612.9 16.7 612.7 17.1 C 612.4 17.7 612 18.1 611.6 18.4 C 611.2 18.6 610.7 18.8 610.2 18.8 C 610.2 18.8 610.2 18.8 610.2 18.8 Z M 624.7 2.3 L 624.7 0.2 L 626.4 0.2 L 626.4 2.3 L 624.7 2.3 Z M 624.7 14.6 L 624.7 4.2 L 626.4 4.2 L 626.4 14.6 L 624.7 14.6 Z M 629.1 14.6 L 629.1 4.2 L 630.7 4.2 C 630.7 4.2 630.68 5.66 630.7 5.7 C 631.4 4.5 632.5 4 634 4 C 634.6 4 635.2 4.1 635.7 4.3 C 636.2 4.5 636.6 4.8 636.9 5.2 C 637.1 5.5 637.3 6 637.4 6.5 C 637.5 6.8 637.5 7.4 637.5 8.2 C 637.53 8.18 637.5 14.6 637.5 14.6 L 635.8 14.6 C 635.8 14.6 635.77 8.25 635.8 8.3 C 635.8 7.5 635.7 7 635.6 6.6 C 635.4 6.3 635.2 6 634.8 5.8 C 634.5 5.6 634.1 5.5 633.6 5.5 C 632.9 5.5 632.2 5.7 631.7 6.2 C 631.1 6.7 630.9 7.6 630.9 8.9 C 630.86 8.9 630.9 14.6 630.9 14.6 L 629.1 14.6 Z M 643.1 14.6 L 639.2 4.2 L 641 4.2 C 641 4.2 643.24 10.4 643.2 10.4 C 643.5 11.1 643.7 11.8 643.9 12.5 C 644.1 11.9 644.3 11.3 644.6 10.5 C 644.56 10.52 646.9 4.2 646.9 4.2 L 648.7 4.2 L 644.7 14.6 L 643.1 14.6 Z M 657.3 11.2 C 657.3 11.2 659.1 11.4 659.1 11.4 C 658.9 12.5 658.3 13.3 657.5 13.9 C 656.8 14.5 655.8 14.8 654.6 14.8 C 653.1 14.8 651.9 14.3 651 13.4 C 650.1 12.5 649.6 11.1 649.6 9.5 C 649.6 7.7 650.1 6.4 651 5.4 C 651.9 4.4 653.1 4 654.5 4 C 655.9 4 657 4.4 657.9 5.4 C 658.8 6.3 659.2 7.6 659.2 9.4 C 659.2 9.5 659.2 9.6 659.2 9.8 C 659.2 9.8 651.5 9.8 651.5 9.8 C 651.5 11 651.8 11.8 652.4 12.4 C 653 13 653.7 13.3 654.6 13.3 C 655.2 13.3 655.8 13.2 656.2 12.8 C 656.7 12.5 657.1 12 657.3 11.2 Z M 651.6 8.4 C 651.6 8.4 657.3 8.4 657.3 8.4 C 657.3 7.5 657 6.9 656.7 6.4 C 656.1 5.7 655.4 5.4 654.5 5.4 C 653.7 5.4 653 5.7 652.5 6.2 C 651.9 6.8 651.6 7.5 651.6 8.4 Z M 660.6 11.5 C 660.6 11.5 662.4 11.2 662.4 11.2 C 662.5 11.9 662.8 12.4 663.2 12.8 C 663.6 13.2 664.3 13.3 665.1 13.3 C 665.9 13.3 666.5 13.2 666.9 12.9 C 667.3 12.5 667.5 12.1 667.5 11.7 C 667.5 11.3 667.3 11 666.9 10.8 C 666.7 10.6 666.1 10.4 665.1 10.2 C 663.8 9.8 663 9.6 662.5 9.3 C 662 9.1 661.6 8.8 661.3 8.3 C 661.1 7.9 660.9 7.5 660.9 6.9 C 660.9 6.5 661 6.1 661.3 5.7 C 661.5 5.3 661.8 4.9 662.1 4.7 C 662.4 4.5 662.8 4.3 663.2 4.2 C 663.7 4 664.2 4 664.8 4 C 665.6 4 666.3 4.1 666.9 4.3 C 667.5 4.5 668 4.9 668.3 5.3 C 668.6 5.7 668.8 6.2 668.9 6.9 C 668.9 6.9 667.1 7.1 667.1 7.1 C 667.1 6.6 666.8 6.1 666.5 5.8 C 666.1 5.6 665.6 5.4 664.9 5.4 C 664.1 5.4 663.5 5.5 663.2 5.8 C 662.8 6.1 662.6 6.4 662.6 6.7 C 662.6 7 662.7 7.2 662.9 7.4 C 663 7.5 663.2 7.7 663.5 7.8 C 663.7 7.9 664.2 8 665.1 8.3 C 666.3 8.6 667.2 8.9 667.7 9.1 C 668.2 9.3 668.6 9.6 668.8 10 C 669.1 10.4 669.3 10.9 669.3 11.5 C 669.3 12.1 669.1 12.7 668.7 13.2 C 668.4 13.7 667.9 14.1 667.3 14.4 C 666.6 14.7 665.9 14.8 665.1 14.8 C 663.7 14.8 662.7 14.5 662 14 C 661.3 13.4 660.8 12.6 660.6 11.5 Z M 674.4 13.1 C 674.6 13.1 674.9 13 675.2 13 C 675.2 13 675.4 14.5 675.4 14.5 C 674.9 14.6 674.5 14.7 674.1 14.7 C 673.5 14.7 673 14.6 672.6 14.4 C 672.3 14.2 672 13.9 671.9 13.6 C 671.7 13.3 671.7 12.6 671.7 11.5 C 671.67 11.52 671.7 5.6 671.7 5.6 L 670.4 5.6 L 670.4 4.2 L 671.7 4.2 L 671.7 1.6 L 673.4 0.6 L 673.4 4.2 L 675.2 4.2 L 675.2 5.6 L 673.4 5.6 C 673.4 5.6 673.42 11.62 673.4 11.6 C 673.4 12.1 673.4 12.4 673.5 12.6 C 673.6 12.7 673.7 12.8 673.8 12.9 C 674 13 674.2 13.1 674.4 13.1 C 674.4 13.1 674.4 13.1 674.4 13.1 Z M 676.3 9.4 C 676.3 7.5 676.8 6 677.9 5.1 C 678.7 4.3 679.8 4 681.1 4 C 682.5 4 683.7 4.4 684.6 5.4 C 685.5 6.3 686 7.6 686 9.2 C 686 10.6 685.8 11.6 685.4 12.4 C 685 13.1 684.4 13.7 683.6 14.2 C 682.9 14.6 682 14.8 681.1 14.8 C 679.7 14.8 678.5 14.3 677.6 13.4 C 676.7 12.5 676.3 11.1 676.3 9.4 Z M 678.1 9.4 C 678.1 10.7 678.3 11.7 678.9 12.4 C 679.5 13 680.2 13.3 681.1 13.3 C 682 13.3 682.7 13 683.3 12.4 C 683.9 11.7 684.2 10.7 684.2 9.3 C 684.2 8 683.9 7.1 683.3 6.4 C 682.7 5.7 682 5.4 681.1 5.4 C 680.2 5.4 679.5 5.7 678.9 6.4 C 678.3 7.1 678.1 8 678.1 9.4 Z M 688 14.6 L 688 4.2 L 689.6 4.2 C 689.6 4.2 689.59 5.76 689.6 5.8 C 690 5 690.4 4.5 690.7 4.3 C 691 4.1 691.4 4 691.8 4 C 692.4 4 693 4.1 693.6 4.5 C 693.6 4.5 693 6.2 693 6.2 C 692.6 5.9 692.2 5.8 691.7 5.8 C 691.4 5.8 691 5.9 690.7 6.1 C 690.4 6.3 690.2 6.7 690.1 7.1 C 689.9 7.7 689.8 8.4 689.8 9.1 C 689.77 9.13 689.8 14.6 689.8 14.6 L 688 14.6 Z M 694 11.5 C 694 11.5 695.7 11.2 695.7 11.2 C 695.8 11.9 696.1 12.4 696.5 12.8 C 697 13.2 697.6 13.3 698.4 13.3 C 699.2 13.3 699.8 13.2 700.2 12.9 C 700.6 12.5 700.8 12.1 700.8 11.7 C 700.8 11.3 700.6 11 700.3 10.8 C 700 10.6 699.4 10.4 698.5 10.2 C 697.2 9.8 696.3 9.6 695.8 9.3 C 695.3 9.1 694.9 8.8 694.7 8.3 C 694.4 7.9 694.3 7.5 694.3 6.9 C 694.3 6.5 694.4 6.1 694.6 5.7 C 694.8 5.3 695.1 4.9 695.5 4.7 C 695.7 4.5 696.1 4.3 696.6 4.2 C 697 4 697.6 4 698.1 4 C 698.9 4 699.6 4.1 700.2 4.3 C 700.9 4.5 701.3 4.9 701.6 5.3 C 701.9 5.7 702.1 6.2 702.2 6.9 C 702.2 6.9 700.5 7.1 700.5 7.1 C 700.4 6.6 700.2 6.1 699.8 5.8 C 699.4 5.6 698.9 5.4 698.2 5.4 C 697.4 5.4 696.8 5.5 696.5 5.8 C 696.1 6.1 696 6.4 696 6.7 C 696 7 696 7.2 696.2 7.4 C 696.3 7.5 696.6 7.7 696.9 7.8 C 697 7.9 697.6 8 698.4 8.3 C 699.7 8.6 700.5 8.9 701 9.1 C 701.5 9.3 701.9 9.6 702.2 10 C 702.5 10.4 702.6 10.9 702.6 11.5 C 702.6 12.1 702.4 12.7 702.1 13.2 C 701.7 13.7 701.3 14.1 700.6 14.4 C 700 14.7 699.2 14.8 698.4 14.8 C 697.1 14.8 696 14.5 695.3 14 C 694.6 13.4 694.2 12.6 694 11.5 Z " stroke="none" fill="#54626c"/>
  </g>
</svg>