<?xml version="1.0" standalone="no"?><!DOCTYPE svg PUBLIC "-//W3C//DTD SVG 1.1//EN" "http://www.w3.org/Graphics/SVG/1.1/DTD/svg11.dtd"><svg xmlns="http://www.w3.org/2000/svg" version="1.1" width="91.1px" height="67.3px" viewBox="0 -5 91.1 67.3" style="top:-5px"><desc>2020 Early Achievement</desc><defs/><g id="Polygon68074"><path d="m0 47.6l4.2-10.9l1.5 0l4.5 10.9l-1.7 0l-1.2-3.3l-4.6 0l-1.2 3.3l-1.5 0zm3.1-4.4l3.7 0c0 0-1.12-3.05-1.1-3.1c-.4-.9-.6-1.6-.8-2.2c-.1.7-.3 1.4-.6 2.1c.02-.03-1.2 3.2-1.2 3.2zm13.2 1.5c0 0 1.3.2 1.3.2c-.1.9-.5 1.6-1.1 2.2c-.6.5-1.3.7-2.2.7c-1 0-1.9-.3-2.6-1c-.6-.7-.9-1.8-.9-3.1c0-.8.1-1.6.4-2.2c.3-.7.7-1.1 1.3-1.5c.5-.3 1.2-.4 1.9-.4c.8 0 1.5.2 2.1.6c.5.5.9 1.1 1 1.9c0 0-1.3.2-1.3.2c-.1-.6-.3-1-.7-1.2c-.3-.3-.6-.4-1.1-.4c-.7 0-1.2.2-1.6.7c-.5.5-.7 1.2-.7 2.3c0 1 .2 1.8.6 2.3c.4.5 1 .7 1.6.7c.6 0 1-.1 1.3-.5c.4-.3.6-.8.7-1.5zm2.5 2.9l0-10.9l1.3 0c0 0 .02 3.95 0 4c.6-.8 1.4-1.1 2.4-1.1c.6 0 1.1.1 1.5.3c.4.2.7.6.9 1c.2.4.3 1 .3 1.7c.01.04 0 5 0 5l-1.3 0c0 0-.03-4.96 0-5c0-.6-.2-1.1-.5-1.4c-.3-.3-.7-.5-1.2-.5c-.4 0-.8.1-1.1.3c-.4.2-.6.5-.8.9c-.1.3-.2.8-.2 1.4c.02.02 0 4.3 0 4.3l-1.3 0zm8.5-9.3l0-1.6l1.3 0l0 1.6l-1.3 0zm0 9.3l0-7.9l1.3 0l0 7.9l-1.3 0zm8.7-2.5c0 0 1.4.2 1.4.2c-.2.8-.6 1.4-1.2 1.9c-.6.4-1.3.6-2.3.6c-1.1 0-2-.3-2.7-1c-.7-.8-1-1.8-1-3c0-1.4.3-2.4 1-3.1c.7-.8 1.6-1.1 2.7-1.1c1 0 1.9.3 2.6 1c.6.8 1 1.8 1 3.1c0 .1 0 .2 0 .3c0 0-5.9 0-5.9 0c0 .9.3 1.6.7 2c.4.5 1 .7 1.7.7c.4 0 .9-.1 1.2-.4c.4-.2.6-.6.8-1.2zm-4.4-2.2c0 0 4.5 0 4.5 0c-.1-.6-.3-1.1-.6-1.5c-.4-.5-.9-.7-1.6-.7c-.6 0-1.1.2-1.6.6c-.4.4-.6.9-.7 1.6zm9.7 4.7l-3-7.9l1.4 0c0 0 1.7 4.77 1.7 4.8c.2.5.4 1 .5 1.6c.1-.5.3-1 .5-1.5c.01-.04 1.8-4.9 1.8-4.9l1.3 0l-3 7.9l-1.2 0zm10.8-2.5c0 0 1.4.2 1.4.2c-.2.8-.6 1.4-1.2 1.9c-.6.4-1.3.6-2.3.6c-1.1 0-2-.3-2.7-1c-.7-.8-1-1.8-1-3c0-1.4.3-2.4 1-3.1c.7-.8 1.6-1.1 2.7-1.1c1 0 1.9.3 2.5 1c.7.8 1.1 1.8 1.1 3.1c0 .1 0 .2-.1.3c0 0-5.8 0-5.8 0c0 .9.3 1.6.7 2c.4.5 1 .7 1.6.7c.5 0 1-.1 1.3-.4c.3-.2.6-.6.8-1.2zm-4.4-2.2c0 0 4.4 0 4.4 0c0-.6-.2-1.1-.5-1.5c-.4-.5-.9-.7-1.6-.7c-.6 0-1.2.2-1.6.6c-.4.4-.6.9-.7 1.6zm7.5 4.7l0-7.9l1.2 0c0 0-.01 1.15 0 1.2c.2-.4.6-.7 1-1c.4-.2.9-.3 1.4-.3c.6 0 1 .1 1.4.3c.4.3.7.6.8 1c.6-.9 1.5-1.3 2.5-1.3c.7 0 1.3.2 1.8.6c.4.5.6 1.1.6 2c-.01.02 0 5.4 0 5.4l-1.3 0c0 0-.04-4.93 0-4.9c0-.6-.1-1-.2-1.2c-.1-.2-.2-.4-.4-.6c-.3-.1-.5-.2-.8-.2c-.6 0-1.1.2-1.4.6c-.4.3-.6.9-.6 1.8c.02-.05 0 4.5 0 4.5l-1.3 0c0 0-.02-5.09 0-5.1c0-.6-.1-1-.3-1.3c-.3-.3-.6-.5-1.1-.5c-.4 0-.7.1-1.1.3c-.3.2-.5.5-.7.9c-.1.4-.2.9-.2 1.6c.03.05 0 4.1 0 4.1l-1.3 0zm18.1-2.5c0 0 1.4.2 1.4.2c-.3.8-.7 1.4-1.2 1.9c-.6.4-1.4.6-2.3.6c-1.2 0-2.1-.3-2.8-1c-.6-.8-1-1.8-1-3c0-1.4.4-2.4 1.1-3.1c.6-.8 1.5-1.1 2.6-1.1c1.1 0 1.9.3 2.6 1c.7.8 1 1.8 1 3.1c0 .1 0 .2 0 .3c0 0-5.9 0-5.9 0c.1.9.3 1.6.8 2c.4.5.9.7 1.6.7c.5 0 .9-.1 1.3-.4c.3-.2.6-.6.8-1.2zm-4.4-2.2c0 0 4.4 0 4.4 0c-.1-.6-.2-1.1-.5-1.5c-.4-.5-1-.7-1.7-.7c-.6 0-1.1.2-1.5.6c-.4.4-.7.9-.7 1.6zm7.4 4.7l0-7.9l1.3 0c0 0-.05 1.17 0 1.2c.5-.9 1.4-1.3 2.5-1.3c.4 0 .9.1 1.3.2c.4.2.7.4.9.7c.2.3.3.6.4 1c0 .2.1.7.1 1.3c-.03-.01 0 4.8 0 4.8l-1.4 0c0 0 .03-4.76 0-4.8c0-.5 0-.9-.1-1.2c-.1-.3-.3-.5-.6-.6c-.2-.2-.6-.3-.9-.3c-.6 0-1.1.2-1.5.6c-.4.3-.6 1-.6 2c-.01.03 0 4.3 0 4.3l-1.4 0zm10.9-1.1c.1 0 .3 0 .5-.1c0 0 .2 1.2.2 1.2c-.3.1-.7.1-1 .1c-.5 0-.8 0-1.1-.2c-.3-.1-.5-.3-.6-.6c-.1-.2-.1-.8-.1-1.6c-.04.03 0-4.5 0-4.5l-1 0l0-1.1l1 0l0-1.9l1.3-.8l0 2.7l1.3 0l0 1.1l-1.3 0c0 0 0 4.6 0 4.6c0 .4 0 .6.1.7c0 .1.1.2.2.3c.1.1.3.1.5.1c0 0 0 0 0 0z" stroke="none" fill="#54626c"/></g><g id="Polygon68073"><path d="m1.2 29.4l0-10.9l7.9 0l0 1.2l-6.5 0l0 3.4l6.1 0l0 1.3l-6.1 0l0 3.7l6.7 0l0 1.3l-8.1 0zm15.4 0c-.2-.3-.2-.6-.3-1c-.5.4-1 .7-1.4.9c-.5.2-1 .2-1.5.2c-.9 0-1.5-.2-2-.6c-.5-.4-.7-1-.7-1.6c0-.4.1-.8.3-1.1c.1-.3.4-.6.7-.7c.2-.2.6-.4.9-.5c.3-.1.7-.1 1.2-.2c1.1-.1 1.9-.3 2.4-.4c0-.2 0-.3 0-.4c0-.5-.1-.9-.4-1.1c-.3-.4-.8-.5-1.5-.5c-.6 0-1.1.1-1.4.3c-.3.2-.5.6-.7 1.2c0 0-1.3-.2-1.3-.2c.2-.5.4-1 .6-1.3c.3-.4.7-.6 1.2-.8c.5-.2 1.1-.3 1.8-.3c.7 0 1.2.1 1.6.2c.5.2.8.4 1 .6c.2.3.3.6.4.9c0 .3.1.7.1 1.3c0 0 0 1.8 0 1.8c0 1.2 0 2 0 2.3c.1.3.2.7.4 1c-.02-.03-1.4 0-1.4 0c0 0-.02-.03 0 0zm-.4-4c-.5.2-1.2.4-2.2.5c-.5.1-.9.2-1.1.3c-.3.1-.5.2-.6.4c-.1.2-.2.4-.2.6c0 .4.2.7.4.9c.3.3.7.4 1.2.4c.5 0 1-.1 1.4-.3c.4-.3.7-.6.9-1c.1-.3.2-.7.2-1.3c0 0 0-.5 0-.5zm3.4 4l0-7.9l1.2 0c0 0 .02 1.16 0 1.2c.3-.6.6-1 .9-1.1c.2-.2.5-.3.8-.3c.5 0 .9.1 1.4.4c0 0-.5 1.3-.5 1.3c-.3-.2-.6-.3-.9-.3c-.3 0-.6.1-.8.2c-.3.2-.4.5-.5.8c-.2.4-.2 1-.2 1.5c-.04.03 0 4.2 0 4.2l-1.4 0zm5.1 0l0-10.9l1.3 0l0 10.9l-1.3 0zm4.2 3.2c-.3 0-.6-.1-.9-.2c0 0-.1-1.2-.1-1.2c.3 0 .5.1.7.1c.3 0 .6-.1.8-.2c.1-.1.3-.2.4-.4c.1-.1.2-.5.4-1c0-.1.1-.2.1-.3c.03-.02-3-7.9-3-7.9l1.5 0c0 0 1.62 4.54 1.6 4.5c.2.6.4 1.2.6 1.9c.1-.6.3-1.2.5-1.8c.04-.03 1.7-4.6 1.7-4.6l1.4 0c0 0-3.04 8-3 8c-.4.9-.6 1.5-.8 1.8c-.2.4-.5.8-.8 1c-.3.2-.7.3-1.1.3c0 0 0 0 0 0z" stroke="none" fill="#54626c"/></g><g id="Polygon68072"><path d="m7.7 9.8l0 1.3c0 0-7.24-.01-7.2 0c0-.3 0-.6.1-.9c.2-.5.5-1 .9-1.5c.4-.5 1-1 1.7-1.6c1.2-1 2-1.8 2.5-2.4c.4-.5.6-1.1.6-1.6c0-.5-.2-.9-.6-1.3c-.4-.4-.9-.6-1.5-.6c-.6 0-1.1.2-1.5.6c-.4.4-.6 1-.6 1.6c0 0-1.4-.1-1.4-.1c.1-1 .5-1.8 1.1-2.4c.6-.5 1.4-.8 2.5-.8c1 0 1.8.3 2.4.9c.6.6 1 1.3 1 2.2c0 .4-.1.8-.3 1.3c-.2.4-.5.8-.9 1.3c-.4.5-1.1 1.1-2.1 1.9c-.8.7-1.3 1.1-1.5 1.4c-.2.2-.4.5-.6.7c.02 0 5.4 0 5.4 0zm2.5.3c-.7-.9-1.1-2.3-1.1-4.4c0-1.3.1-2.3.4-3.1c.3-.8.7-1.4 1.2-1.8c.5-.4 1.2-.7 2-.7c.5 0 1.1.2 1.5.4c.4.2.8.6 1.1 1c.3.5.5 1 .7 1.6c.1.7.2 1.5.2 2.6c0 1.3-.1 2.3-.4 3.1c-.2.8-.6 1.4-1.2 1.8c-.5.5-1.1.7-1.9.7c-1.1 0-1.9-.4-2.5-1.2c0 0 0 0 0 0zm1-8.1c-.5.7-.7 1.9-.7 3.7c0 1.8.2 3 .6 3.6c.4.6.9.9 1.6.9c.6 0 1.1-.3 1.5-.9c.4-.6.6-1.8.6-3.6c0-1.8-.2-3-.6-3.6c-.4-.6-.9-.9-1.6-.9c-.6 0-1.1.3-1.4.8c0 0 0 0 0 0zm13.4 7.8l0 1.3c0 0-7.2-.01-7.2 0c0-.3 0-.6.2-.9c.1-.5.4-1 .8-1.5c.4-.5 1-1 1.8-1.6c1.2-1 2-1.8 2.4-2.4c.4-.5.6-1.1.6-1.6c0-.5-.2-.9-.6-1.3c-.3-.4-.8-.6-1.4-.6c-.7 0-1.2.2-1.6.6c-.4.4-.6 1-.6 1.6c0 0-1.3-.1-1.3-.1c0-1 .4-1.8 1-2.4c.6-.5 1.5-.8 2.5-.8c1 0 1.9.3 2.5.9c.6.6.9 1.3.9 2.2c0 .4-.1.8-.3 1.3c-.2.4-.4.8-.9 1.3c-.4.5-1.1 1.1-2 1.9c-.8.7-1.3 1.1-1.6 1.4c-.2.2-.4.5-.5.7c-.04 0 5.3 0 5.3 0zm2.5.3c-.7-.9-1.1-2.3-1.1-4.4c0-1.3.2-2.3.4-3.1c.3-.8.7-1.4 1.2-1.8c.5-.4 1.2-.7 2-.7c.6 0 1.1.2 1.5.4c.5.2.8.6 1.1 1c.3.5.5 1 .7 1.6c.2.7.3 1.5.3 2.6c0 1.3-.2 2.3-.4 3.1c-.3.8-.7 1.4-1.2 1.8c-.5.5-1.2.7-2 .7c-1.1 0-1.9-.4-2.5-1.2c0 0 0 0 0 0zm1-8.1c-.4.7-.7 1.9-.7 3.7c0 1.8.2 3 .6 3.6c.5.6 1 .9 1.6.9c.6 0 1.1-.3 1.5-.9c.5-.6.7-1.8.7-3.6c0-1.8-.2-3-.7-3.6c-.4-.6-.9-.9-1.5-.9c-.6 0-1.1.3-1.5.8c0 0 0 0 0 0z" stroke="none" fill="#54626c"/></g></svg>