<?xml version="1.0" standalone="no"?>
<!DOCTYPE svg PUBLIC "-//W3C//DTD SVG 1.1//EN" "http://www.w3.org/Graphics/SVG/1.1/DTD/svg11.dtd">
<svg xmlns="http://www.w3.org/2000/svg" version="1.1" width="137px" height="127.7px" viewBox="0 -5 137 127.7" style="top:-5px">
  <desc>Number of Green Facilities &amp; Amenities</desc>
  <defs/>
  <g id="Polygon63503">
    <path d="M 10.6 68.2 C 9.9 67.8 9.3 67.2 8.6 66.4 C 8.1 66.9 7.5 67.4 6.9 67.7 C 6.2 68 5.6 68.1 4.9 68.1 C 3.5 68.1 2.5 67.7 1.7 66.8 C 1.1 66 0.8 65.2 0.8 64.3 C 0.8 63.5 1 62.8 1.5 62.2 C 2.1 61.5 2.8 60.9 3.9 60.5 C 3.3 59.8 2.9 59.2 2.7 58.8 C 2.5 58.4 2.4 58 2.4 57.6 C 2.4 56.8 2.7 56.2 3.3 55.6 C 3.9 55 4.7 54.7 5.6 54.7 C 6.5 54.7 7.2 55 7.8 55.5 C 8.3 56.1 8.6 56.7 8.6 57.5 C 8.6 58.7 7.8 59.8 6.2 60.6 C 6.2 60.6 8.5 63.6 8.5 63.6 C 8.8 63.1 9 62.5 9.1 61.8 C 9.1 61.8 10.8 62.1 10.8 62.1 C 10.5 63.3 10.1 64.2 9.6 64.9 C 10.2 65.7 10.9 66.4 11.6 66.9 C 11.63 66.92 10.6 68.2 10.6 68.2 C 10.6 68.2 10.56 68.18 10.6 68.2 Z M 5.4 59.6 C 6 59.2 6.5 58.9 6.7 58.6 C 6.9 58.2 7 57.9 7 57.5 C 7 57.1 6.8 56.7 6.6 56.5 C 6.3 56.2 5.9 56 5.5 56 C 5.1 56 4.7 56.2 4.5 56.5 C 4.2 56.7 4 57.1 4 57.5 C 4 57.7 4.1 57.9 4.2 58.1 C 4.3 58.3 4.4 58.6 4.6 58.8 C 4.6 58.8 5.4 59.6 5.4 59.6 Z M 7.6 65.1 C 7.6 65.1 4.7 61.5 4.7 61.5 C 3.8 62 3.2 62.5 2.9 62.9 C 2.6 63.4 2.5 63.8 2.5 64.2 C 2.5 64.7 2.7 65.3 3.1 65.9 C 3.5 66.4 4.1 66.7 4.9 66.7 C 5.4 66.7 5.9 66.5 6.4 66.3 C 6.9 66 7.3 65.6 7.6 65.1 Z M 16.3 67.9 L 21.3 55 L 23.2 55 L 28.4 67.9 L 26.5 67.9 L 25 64 L 19.6 64 L 18.2 67.9 L 16.3 67.9 Z M 20.1 62.6 L 24.5 62.6 C 24.5 62.6 23.11 58.99 23.1 59 C 22.7 57.9 22.4 57 22.2 56.3 C 22 57.1 21.8 58 21.5 58.8 C 21.5 58.78 20.1 62.6 20.1 62.6 Z M 30.4 67.9 L 30.4 55 L 33 55 C 33 55 36.02 64.11 36 64.1 C 36.3 65 36.5 65.6 36.6 66 C 36.8 65.5 37 64.9 37.3 63.9 C 37.33 63.95 40.4 55 40.4 55 L 42.7 55 L 42.7 67.9 L 41.1 67.9 L 41.1 57.1 L 37.3 67.9 L 35.8 67.9 L 32 56.9 L 32 67.9 L 30.4 67.9 Z M 46.2 67.9 L 46.2 55 L 55.5 55 L 55.5 56.5 L 47.9 56.5 L 47.9 60.4 L 55 60.4 L 55 62 L 47.9 62 L 47.9 66.4 L 55.8 66.4 L 55.8 67.9 L 46.2 67.9 Z M 58.8 67.9 L 58.8 55 L 60.5 55 L 67.3 65.1 L 67.3 55 L 69 55 L 69 67.9 L 67.2 67.9 L 60.4 57.7 L 60.4 67.9 L 58.8 67.9 Z M 72.8 67.9 L 72.8 55 L 74.5 55 L 74.5 67.9 L 72.8 67.9 Z M 81.4 67.9 L 81.4 56.5 L 77.1 56.5 L 77.1 55 L 87.4 55 L 87.4 56.5 L 83.1 56.5 L 83.1 67.9 L 81.4 67.9 Z M 90.1 67.9 L 90.1 55 L 91.8 55 L 91.8 67.9 L 90.1 67.9 Z M 95.5 67.9 L 95.5 55 L 104.8 55 L 104.8 56.5 L 97.2 56.5 L 97.2 60.4 L 104.3 60.4 L 104.3 62 L 97.2 62 L 97.2 66.4 L 105.1 66.4 L 105.1 67.9 L 95.5 67.9 Z M 107.5 63.7 C 107.5 63.7 109.1 63.6 109.1 63.6 C 109.2 64.2 109.4 64.8 109.7 65.2 C 109.9 65.6 110.4 65.9 111 66.2 C 111.5 66.4 112.2 66.6 112.9 66.6 C 113.6 66.6 114.2 66.5 114.7 66.3 C 115.2 66.1 115.5 65.8 115.8 65.5 C 116 65.1 116.2 64.8 116.2 64.4 C 116.2 64 116 63.6 115.8 63.3 C 115.6 63 115.2 62.8 114.6 62.5 C 114.3 62.4 113.5 62.2 112.3 61.9 C 111.1 61.6 110.3 61.4 109.8 61.1 C 109.2 60.8 108.8 60.4 108.5 59.9 C 108.2 59.4 108 58.9 108 58.3 C 108 57.6 108.2 57 108.6 56.5 C 108.9 55.9 109.5 55.5 110.2 55.2 C 110.9 54.9 111.7 54.7 112.6 54.7 C 113.5 54.7 114.4 54.9 115.1 55.2 C 115.8 55.5 116.4 56 116.8 56.6 C 117.2 57.2 117.4 57.8 117.4 58.6 C 117.4 58.6 115.8 58.7 115.8 58.7 C 115.7 57.9 115.4 57.3 114.9 56.9 C 114.4 56.5 113.6 56.2 112.6 56.2 C 111.6 56.2 110.8 56.4 110.4 56.8 C 109.9 57.2 109.7 57.6 109.7 58.2 C 109.7 58.6 109.8 59 110.2 59.3 C 110.5 59.6 111.3 59.9 112.7 60.2 C 114.1 60.6 115.1 60.8 115.6 61.1 C 116.3 61.4 116.9 61.9 117.3 62.4 C 117.6 62.9 117.8 63.5 117.8 64.2 C 117.8 64.9 117.6 65.6 117.2 66.2 C 116.8 66.8 116.2 67.3 115.5 67.6 C 114.8 67.9 113.9 68.1 113 68.1 C 111.9 68.1 110.9 67.9 110.1 67.6 C 109.3 67.2 108.7 66.7 108.2 66 C 107.8 65.4 107.5 64.6 107.5 63.7 Z " stroke="none" fill="#ffffff"/>
  </g>
  <g id="Polygon63502">
    <path d="M 1.8 48.5 L 1.8 35.6 L 10.5 35.6 L 10.5 37.1 L 3.5 37.1 L 3.5 41.1 L 9.6 41.1 L 9.6 42.7 L 3.5 42.7 L 3.5 48.5 L 1.8 48.5 Z M 11 48.5 L 15.9 35.6 L 17.8 35.6 L 23 48.5 L 21.1 48.5 L 19.6 44.6 L 14.2 44.6 L 12.8 48.5 L 11 48.5 Z M 14.7 43.2 L 19.1 43.2 C 19.1 43.2 17.72 39.65 17.7 39.7 C 17.3 38.6 17 37.7 16.8 37 C 16.6 37.8 16.4 38.6 16.1 39.4 C 16.1 39.44 14.7 43.2 14.7 43.2 Z M 34.3 44 C 34.3 44 36 44.4 36 44.4 C 35.6 45.8 35 46.9 34 47.7 C 33.1 48.4 32 48.8 30.6 48.8 C 29.2 48.8 28.1 48.5 27.2 47.9 C 26.4 47.3 25.7 46.5 25.2 45.4 C 24.8 44.4 24.6 43.2 24.6 42 C 24.6 40.6 24.8 39.5 25.3 38.5 C 25.8 37.5 26.6 36.7 27.5 36.2 C 28.5 35.7 29.5 35.4 30.7 35.4 C 31.9 35.4 33 35.7 33.9 36.4 C 34.8 37 35.4 38 35.8 39.2 C 35.8 39.2 34.1 39.6 34.1 39.6 C 33.8 38.6 33.3 37.9 32.8 37.5 C 32.2 37.1 31.5 36.9 30.6 36.9 C 29.6 36.9 28.8 37.1 28.1 37.6 C 27.5 38 27 38.7 26.7 39.5 C 26.5 40.3 26.3 41.1 26.3 42 C 26.3 43.1 26.5 44 26.8 44.8 C 27.1 45.7 27.6 46.3 28.3 46.7 C 29 47.1 29.7 47.3 30.5 47.3 C 31.4 47.3 32.3 47 32.9 46.5 C 33.6 45.9 34 45.1 34.3 44 Z M 39 48.5 L 39 35.6 L 40.7 35.6 L 40.7 48.5 L 39 48.5 Z M 44.3 48.5 L 44.3 35.6 L 46 35.6 L 46 47 L 52.4 47 L 52.4 48.5 L 44.3 48.5 Z M 55.3 48.5 L 55.3 35.6 L 57 35.6 L 57 48.5 L 55.3 48.5 Z M 64 48.5 L 64 37.1 L 59.7 37.1 L 59.7 35.6 L 70 35.6 L 70 37.1 L 65.7 37.1 L 65.7 48.5 L 64 48.5 Z M 72.6 48.5 L 72.6 35.6 L 74.4 35.6 L 74.4 48.5 L 72.6 48.5 Z M 78 48.5 L 78 35.6 L 87.4 35.6 L 87.4 37.1 L 79.7 37.1 L 79.7 41.1 L 86.9 41.1 L 86.9 42.6 L 79.7 42.6 L 79.7 47 L 87.7 47 L 87.7 48.5 L 78 48.5 Z M 90.1 44.4 C 90.1 44.4 91.7 44.2 91.7 44.2 C 91.8 44.9 92 45.4 92.2 45.8 C 92.5 46.3 93 46.6 93.5 46.8 C 94.1 47.1 94.8 47.2 95.5 47.2 C 96.2 47.2 96.8 47.1 97.3 46.9 C 97.8 46.7 98.1 46.5 98.4 46.1 C 98.6 45.8 98.7 45.4 98.7 45 C 98.7 44.6 98.6 44.3 98.4 44 C 98.1 43.7 97.8 43.4 97.2 43.2 C 96.9 43.1 96.1 42.9 94.9 42.6 C 93.7 42.3 92.9 42 92.4 41.8 C 91.8 41.4 91.3 41 91 40.6 C 90.7 40.1 90.6 39.5 90.6 39 C 90.6 38.3 90.8 37.7 91.1 37.1 C 91.5 36.6 92.1 36.1 92.8 35.8 C 93.5 35.5 94.3 35.4 95.1 35.4 C 96.1 35.4 96.9 35.5 97.7 35.9 C 98.4 36.2 99 36.6 99.4 37.2 C 99.8 37.8 100 38.5 100 39.3 C 100 39.3 98.4 39.4 98.4 39.4 C 98.3 38.6 98 37.9 97.5 37.5 C 97 37.1 96.2 36.9 95.2 36.9 C 94.2 36.9 93.4 37.1 92.9 37.5 C 92.5 37.9 92.2 38.3 92.2 38.8 C 92.2 39.3 92.4 39.7 92.7 40 C 93.1 40.3 93.9 40.6 95.3 40.9 C 96.7 41.2 97.7 41.5 98.2 41.7 C 98.9 42.1 99.5 42.5 99.8 43.1 C 100.2 43.6 100.4 44.2 100.4 44.9 C 100.4 45.6 100.2 46.2 99.8 46.8 C 99.4 47.4 98.8 47.9 98.1 48.3 C 97.4 48.6 96.5 48.8 95.6 48.8 C 94.4 48.8 93.5 48.6 92.7 48.2 C 91.9 47.9 91.3 47.4 90.8 46.7 C 90.4 46 90.1 45.2 90.1 44.4 Z " stroke="none" fill="#ffffff"/>
  </g>
  <g id="Polygon63501">
    <path d="M 7.8 24.1 L 7.8 22.6 L 13.2 22.6 C 13.2 22.6 13.23 27.4 13.2 27.4 C 12.4 28.1 11.5 28.6 10.6 28.9 C 9.7 29.2 8.8 29.4 7.9 29.4 C 6.6 29.4 5.5 29.1 4.4 28.6 C 3.4 28.1 2.6 27.3 2.1 26.2 C 1.5 25.2 1.3 24.1 1.3 22.8 C 1.3 21.5 1.5 20.4 2.1 19.3 C 2.6 18.2 3.3 17.4 4.3 16.8 C 5.3 16.3 6.5 16.1 7.7 16.1 C 8.7 16.1 9.5 16.2 10.3 16.5 C 11 16.8 11.6 17.2 12.1 17.8 C 12.5 18.3 12.8 19 13 19.9 C 13 19.9 11.5 20.3 11.5 20.3 C 11.3 19.7 11.1 19.1 10.8 18.8 C 10.5 18.4 10.1 18.1 9.5 17.9 C 9 17.6 8.4 17.5 7.8 17.5 C 7 17.5 6.3 17.6 5.7 17.9 C 5.2 18.1 4.7 18.4 4.3 18.8 C 4 19.2 3.7 19.6 3.5 20.1 C 3.2 20.9 3 21.8 3 22.7 C 3 23.8 3.2 24.8 3.6 25.6 C 4 26.4 4.6 26.9 5.4 27.3 C 6.1 27.7 6.9 27.9 7.8 27.9 C 8.5 27.9 9.2 27.7 10 27.4 C 10.7 27.2 11.2 26.9 11.6 26.5 C 11.56 26.53 11.6 24.1 11.6 24.1 L 7.8 24.1 Z M 16.4 29.2 L 16.4 16.3 C 16.4 16.3 22.14 16.28 22.1 16.3 C 23.3 16.3 24.2 16.4 24.8 16.6 C 25.4 16.9 25.8 17.3 26.2 17.9 C 26.6 18.4 26.7 19.1 26.7 19.8 C 26.7 20.7 26.4 21.5 25.9 22.1 C 25.3 22.7 24.3 23.1 23.1 23.3 C 23.6 23.5 23.9 23.7 24.1 24 C 24.6 24.4 25.1 25 25.6 25.7 C 25.55 25.68 27.8 29.2 27.8 29.2 L 25.6 29.2 C 25.6 29.2 23.94 26.51 23.9 26.5 C 23.4 25.7 23 25.1 22.7 24.7 C 22.4 24.3 22.1 24 21.8 23.9 C 21.6 23.7 21.3 23.6 21.1 23.5 C 20.9 23.5 20.5 23.5 20.1 23.5 C 20.1 23.46 18.1 23.5 18.1 23.5 L 18.1 29.2 L 16.4 29.2 Z M 18.1 22 C 18.1 22 21.8 21.98 21.8 22 C 22.6 22 23.2 21.9 23.6 21.7 C 24.1 21.6 24.4 21.3 24.6 21 C 24.9 20.6 25 20.2 25 19.8 C 25 19.2 24.8 18.7 24.3 18.3 C 23.9 17.9 23.2 17.7 22.2 17.7 C 22.21 17.7 18.1 17.7 18.1 17.7 L 18.1 22 Z M 30.1 29.2 L 30.1 16.3 L 39.4 16.3 L 39.4 17.8 L 31.8 17.8 L 31.8 21.8 L 38.9 21.8 L 38.9 23.3 L 31.8 23.3 L 31.8 27.7 L 39.7 27.7 L 39.7 29.2 L 30.1 29.2 Z M 42.8 29.2 L 42.8 16.3 L 52.1 16.3 L 52.1 17.8 L 44.5 17.8 L 44.5 21.8 L 51.6 21.8 L 51.6 23.3 L 44.5 23.3 L 44.5 27.7 L 52.4 27.7 L 52.4 29.2 L 42.8 29.2 Z M 55.4 29.2 L 55.4 16.3 L 57.1 16.3 L 63.9 26.4 L 63.9 16.3 L 65.6 16.3 L 65.6 29.2 L 63.8 29.2 L 57 19 L 57 29.2 L 55.4 29.2 Z " stroke="none" fill="#ffffff"/>
  </g>
  <g id="Polygon63500">
    <path d="M 1 9.9 L 1 0.2 L 2.3 0.2 L 7.4 7.8 L 7.4 0.2 L 8.7 0.2 L 8.7 9.9 L 7.4 9.9 L 2.3 2.2 L 2.3 9.9 L 1 9.9 Z M 15.3 9.9 C 15.3 9.9 15.27 8.83 15.3 8.8 C 14.7 9.6 14 10 13 10 C 12.6 10 12.2 9.9 11.9 9.8 C 11.5 9.6 11.3 9.4 11.1 9.2 C 10.9 8.9 10.8 8.6 10.7 8.3 C 10.7 8.1 10.6 7.7 10.6 7.2 C 10.64 7.19 10.6 2.8 10.6 2.8 L 11.8 2.8 C 11.8 2.8 11.83 6.73 11.8 6.7 C 11.8 7.4 11.9 7.8 11.9 8 C 12 8.3 12.1 8.5 12.4 8.7 C 12.6 8.9 12.9 9 13.3 9 C 13.6 9 14 8.9 14.3 8.7 C 14.6 8.5 14.8 8.3 14.9 8 C 15.1 7.7 15.1 7.2 15.1 6.6 C 15.14 6.6 15.1 2.8 15.1 2.8 L 16.3 2.8 L 16.3 9.9 L 15.3 9.9 Z M 18.2 9.9 L 18.2 2.8 L 19.3 2.8 C 19.3 2.8 19.26 3.82 19.3 3.8 C 19.5 3.5 19.8 3.2 20.1 3 C 20.5 2.8 20.9 2.7 21.4 2.7 C 21.9 2.7 22.3 2.8 22.7 3 C 23 3.2 23.2 3.5 23.4 3.9 C 23.9 3.1 24.7 2.7 25.5 2.7 C 26.2 2.7 26.8 2.9 27.1 3.3 C 27.5 3.6 27.7 4.2 27.7 5 C 27.71 5.04 27.7 9.9 27.7 9.9 L 26.5 9.9 C 26.5 9.9 26.53 5.43 26.5 5.4 C 26.5 5 26.5 4.6 26.4 4.4 C 26.3 4.2 26.2 4 26 3.9 C 25.8 3.8 25.6 3.7 25.3 3.7 C 24.8 3.7 24.4 3.9 24 4.2 C 23.7 4.5 23.6 5.1 23.6 5.8 C 23.56 5.78 23.6 9.9 23.6 9.9 L 22.4 9.9 C 22.4 9.9 22.37 5.3 22.4 5.3 C 22.4 4.8 22.3 4.4 22.1 4.1 C 21.9 3.8 21.6 3.7 21.1 3.7 C 20.8 3.7 20.5 3.8 20.2 4 C 19.9 4.1 19.7 4.4 19.6 4.7 C 19.5 5.1 19.4 5.6 19.4 6.2 C 19.39 6.21 19.4 9.9 19.4 9.9 L 18.2 9.9 Z M 30.6 9.9 L 29.5 9.9 L 29.5 0.2 L 30.7 0.2 C 30.7 0.2 30.66 3.62 30.7 3.6 C 31.2 3 31.8 2.7 32.6 2.7 C 33 2.7 33.4 2.8 33.8 2.9 C 34.2 3.1 34.5 3.4 34.8 3.7 C 35 4 35.2 4.4 35.3 4.8 C 35.5 5.3 35.6 5.7 35.6 6.2 C 35.6 7.4 35.3 8.4 34.7 9 C 34.1 9.7 33.4 10 32.5 10 C 31.7 10 31 9.7 30.6 9 C 30.57 8.98 30.6 9.9 30.6 9.9 Z M 30.6 6.3 C 30.6 7.1 30.7 7.7 30.9 8.1 C 31.3 8.7 31.8 9 32.4 9 C 32.9 9 33.4 8.8 33.8 8.4 C 34.2 7.9 34.3 7.2 34.3 6.3 C 34.3 5.4 34.2 4.7 33.8 4.3 C 33.4 3.9 33 3.7 32.5 3.7 C 32 3.7 31.5 3.9 31.1 4.3 C 30.7 4.8 30.6 5.4 30.6 6.3 Z M 41.8 7.6 C 41.8 7.6 43 7.7 43 7.7 C 42.8 8.5 42.5 9 42 9.4 C 41.4 9.8 40.8 10 40 10 C 38.9 10 38.1 9.7 37.5 9.1 C 36.9 8.4 36.6 7.5 36.6 6.4 C 36.6 5.2 36.9 4.3 37.5 3.7 C 38.1 3 38.9 2.7 39.9 2.7 C 40.8 2.7 41.6 3 42.2 3.6 C 42.8 4.3 43.1 5.2 43.1 6.3 C 43.1 6.4 43.1 6.5 43.1 6.7 C 43.1 6.7 37.8 6.7 37.8 6.7 C 37.9 7.4 38.1 8 38.5 8.4 C 38.9 8.8 39.4 9 40 9 C 40.4 9 40.8 8.9 41.1 8.7 C 41.4 8.5 41.6 8.1 41.8 7.6 Z M 37.9 5.7 C 37.9 5.7 41.8 5.7 41.8 5.7 C 41.8 5.1 41.6 4.6 41.4 4.3 C 41 3.9 40.5 3.7 39.9 3.7 C 39.4 3.7 38.9 3.8 38.5 4.2 C 38.2 4.6 37.9 5.1 37.9 5.7 Z M 44.5 9.9 L 44.5 2.8 L 45.6 2.8 C 45.6 2.8 45.59 3.9 45.6 3.9 C 45.9 3.4 46.1 3.1 46.3 2.9 C 46.6 2.8 46.8 2.7 47.1 2.7 C 47.5 2.7 47.9 2.8 48.3 3.1 C 48.3 3.1 47.9 4.2 47.9 4.2 C 47.6 4 47.3 3.9 47.1 3.9 C 46.8 3.9 46.6 4 46.4 4.1 C 46.1 4.3 46 4.5 45.9 4.8 C 45.8 5.2 45.7 5.7 45.7 6.2 C 45.71 6.18 45.7 9.9 45.7 9.9 L 44.5 9.9 Z M 52.4 6.3 C 52.4 5 52.7 4.1 53.4 3.5 C 54 2.9 54.8 2.7 55.7 2.7 C 56.6 2.7 57.4 3 58 3.6 C 58.6 4.3 58.9 5.1 58.9 6.2 C 58.9 7.2 58.8 7.9 58.5 8.4 C 58.3 8.9 57.9 9.3 57.3 9.6 C 56.8 9.9 56.3 10 55.7 10 C 54.7 10 53.9 9.7 53.3 9.1 C 52.7 8.4 52.4 7.5 52.4 6.3 Z M 53.6 6.3 C 53.6 7.2 53.8 7.9 54.2 8.4 C 54.6 8.8 55.1 9 55.7 9 C 56.2 9 56.7 8.8 57.1 8.4 C 57.5 7.9 57.7 7.2 57.7 6.3 C 57.7 5.4 57.5 4.8 57.1 4.3 C 56.7 3.9 56.2 3.7 55.7 3.7 C 55.1 3.7 54.6 3.9 54.2 4.3 C 53.8 4.8 53.6 5.4 53.6 6.3 Z M 60.6 9.9 L 60.6 3.8 L 59.6 3.8 L 59.6 2.8 L 60.6 2.8 C 60.6 2.8 60.62 2.09 60.6 2.1 C 60.6 1.6 60.7 1.3 60.7 1 C 60.9 0.7 61.1 0.5 61.3 0.3 C 61.6 0.1 62 0 62.6 0 C 62.9 0 63.3 0 63.7 0.1 C 63.7 0.1 63.5 1.2 63.5 1.2 C 63.2 1.1 63 1.1 62.8 1.1 C 62.4 1.1 62.2 1.2 62 1.3 C 61.9 1.5 61.8 1.8 61.8 2.2 C 61.8 2.19 61.8 2.8 61.8 2.8 L 63.2 2.8 L 63.2 3.8 L 61.8 3.8 L 61.8 9.9 L 60.6 9.9 Z " stroke="none" fill="#ffffff"/>
  </g>
</svg>