<?xml version="1.0" standalone="no"?>
<!DOCTYPE svg PUBLIC "-//W3C//DTD SVG 1.1//EN" "http://www.w3.org/Graphics/SVG/1.1/DTD/svg11.dtd">
<svg xmlns="http://www.w3.org/2000/svg" version="1.1" width="768px" height="250.2px" viewBox="0 -7 768 250.2" style="top:-7px">
  <desc>Represented the sponsor and borrower in the financing of multiple battery energy storage system expansions, including</desc>
  <defs/>
  <g id="Polygon58839">
    <path d="M 0.6 35.5 C 0.6 35.5 2.4 35.2 2.4 35.2 C 2.5 35.9 2.7 36.4 3.2 36.8 C 3.6 37.2 4.2 37.3 5 37.3 C 5.8 37.3 6.4 37.2 6.8 36.9 C 7.2 36.5 7.4 36.1 7.4 35.7 C 7.4 35.3 7.2 35 6.9 34.8 C 6.7 34.6 6.1 34.4 5.1 34.2 C 3.8 33.8 2.9 33.6 2.4 33.3 C 1.9 33.1 1.6 32.8 1.3 32.3 C 1 31.9 0.9 31.5 0.9 30.9 C 0.9 30.5 1 30.1 1.2 29.7 C 1.4 29.3 1.7 28.9 2.1 28.7 C 2.4 28.5 2.7 28.3 3.2 28.2 C 3.7 28 4.2 28 4.7 28 C 5.5 28 6.3 28.1 6.9 28.3 C 7.5 28.5 7.9 28.9 8.2 29.3 C 8.5 29.7 8.7 30.2 8.8 30.9 C 8.8 30.9 7.1 31.1 7.1 31.1 C 7 30.6 6.8 30.1 6.4 29.8 C 6.1 29.6 5.5 29.4 4.9 29.4 C 4 29.4 3.5 29.5 3.1 29.8 C 2.8 30.1 2.6 30.4 2.6 30.7 C 2.6 31 2.7 31.2 2.8 31.4 C 3 31.5 3.2 31.7 3.5 31.8 C 3.7 31.9 4.2 32 5 32.3 C 6.3 32.6 7.2 32.9 7.7 33.1 C 8.1 33.3 8.5 33.6 8.8 34 C 9.1 34.4 9.2 34.9 9.2 35.5 C 9.2 36.1 9.1 36.7 8.7 37.2 C 8.4 37.7 7.9 38.1 7.2 38.4 C 6.6 38.7 5.9 38.8 5 38.8 C 3.7 38.8 2.7 38.5 2 38 C 1.3 37.4 0.8 36.6 0.6 35.5 Z M 14.4 37.1 C 14.6 37.1 14.8 37 15.2 37 C 15.2 37 15.4 38.5 15.4 38.5 C 14.9 38.6 14.5 38.7 14.1 38.7 C 13.4 38.7 12.9 38.6 12.6 38.4 C 12.2 38.2 12 37.9 11.9 37.6 C 11.7 37.3 11.6 36.6 11.6 35.5 C 11.64 35.52 11.6 29.6 11.6 29.6 L 10.4 29.6 L 10.4 28.2 L 11.6 28.2 L 11.6 25.6 L 13.4 24.6 L 13.4 28.2 L 15.2 28.2 L 15.2 29.6 L 13.4 29.6 C 13.4 29.6 13.39 35.62 13.4 35.6 C 13.4 36.1 13.4 36.4 13.5 36.6 C 13.5 36.7 13.6 36.8 13.8 36.9 C 13.9 37 14.1 37.1 14.4 37.1 C 14.4 37.1 14.4 37.1 14.4 37.1 Z M 16.2 33.4 C 16.2 31.5 16.8 30 17.8 29.1 C 18.7 28.3 19.8 28 21.1 28 C 22.5 28 23.7 28.4 24.6 29.4 C 25.5 30.3 25.9 31.6 25.9 33.2 C 25.9 34.6 25.7 35.6 25.3 36.4 C 24.9 37.1 24.4 37.7 23.6 38.2 C 22.8 38.6 22 38.8 21.1 38.8 C 19.6 38.8 18.5 38.3 17.6 37.4 C 16.7 36.5 16.2 35.1 16.2 33.4 Z M 18 33.4 C 18 34.7 18.3 35.7 18.9 36.4 C 19.5 37 20.2 37.3 21.1 37.3 C 22 37.3 22.7 37 23.3 36.4 C 23.8 35.7 24.1 34.7 24.1 33.3 C 24.1 32 23.8 31.1 23.3 30.4 C 22.7 29.7 21.9 29.4 21.1 29.4 C 20.2 29.4 19.5 29.7 18.9 30.4 C 18.3 31.1 18 32 18 33.4 Z M 28 38.6 L 28 28.2 L 29.6 28.2 C 29.6 28.2 29.56 29.76 29.6 29.8 C 30 29 30.3 28.5 30.7 28.3 C 31 28.1 31.4 28 31.8 28 C 32.4 28 33 28.1 33.6 28.5 C 33.6 28.5 33 30.2 33 30.2 C 32.6 29.9 32.1 29.8 31.7 29.8 C 31.3 29.8 31 29.9 30.7 30.1 C 30.4 30.3 30.2 30.7 30 31.1 C 29.8 31.7 29.7 32.4 29.7 33.1 C 29.74 33.13 29.7 38.6 29.7 38.6 L 28 38.6 Z M 41.8 38.6 C 41.6 38.2 41.5 37.8 41.4 37.3 C 40.8 37.8 40.1 38.2 39.5 38.5 C 38.9 38.7 38.3 38.8 37.6 38.8 C 36.5 38.8 35.6 38.5 35 38 C 34.4 37.4 34.1 36.7 34.1 35.8 C 34.1 35.3 34.2 34.9 34.4 34.4 C 34.6 34 34.9 33.7 35.3 33.4 C 35.7 33.2 36.1 33 36.6 32.8 C 36.9 32.8 37.4 32.7 38.1 32.6 C 39.6 32.4 40.6 32.2 41.3 32 C 41.3 31.7 41.3 31.6 41.3 31.5 C 41.3 30.8 41.1 30.3 40.8 30 C 40.3 29.6 39.7 29.4 38.8 29.4 C 38 29.4 37.4 29.6 37 29.8 C 36.6 30.1 36.3 30.6 36.1 31.4 C 36.1 31.4 34.4 31.1 34.4 31.1 C 34.5 30.4 34.8 29.8 35.1 29.4 C 35.5 28.9 36 28.6 36.7 28.3 C 37.4 28.1 38.2 28 39 28 C 39.9 28 40.6 28.1 41.2 28.3 C 41.8 28.5 42.2 28.7 42.4 29.1 C 42.7 29.4 42.9 29.8 43 30.3 C 43 30.5 43.1 31.1 43.1 31.9 C 43.1 31.9 43.1 34.2 43.1 34.2 C 43.1 35.8 43.1 36.9 43.2 37.3 C 43.2 37.7 43.4 38.2 43.6 38.6 C 43.61 38.56 41.8 38.6 41.8 38.6 C 41.8 38.6 41.78 38.56 41.8 38.6 Z M 41.3 33.4 C 40.6 33.6 39.7 33.8 38.4 34 C 37.7 34.1 37.2 34.2 36.9 34.4 C 36.6 34.5 36.3 34.7 36.2 34.9 C 36 35.2 35.9 35.5 35.9 35.8 C 35.9 36.2 36.1 36.6 36.5 36.9 C 36.8 37.3 37.3 37.4 38 37.4 C 38.7 37.4 39.3 37.3 39.8 37 C 40.4 36.7 40.7 36.3 41 35.8 C 41.2 35.4 41.3 34.8 41.3 34 C 41.3 34 41.3 33.4 41.3 33.4 Z M 45.5 39.4 C 45.5 39.4 47.2 39.7 47.2 39.7 C 47.2 40.2 47.4 40.6 47.8 40.8 C 48.2 41.2 48.8 41.3 49.6 41.3 C 50.4 41.3 51 41.2 51.4 40.8 C 51.9 40.5 52.2 40 52.3 39.5 C 52.4 39.1 52.5 38.3 52.5 37.2 C 51.7 38.1 50.7 38.6 49.6 38.6 C 48.2 38.6 47.1 38 46.3 37 C 45.5 36 45.1 34.8 45.1 33.3 C 45.1 32.3 45.3 31.4 45.6 30.6 C 46 29.7 46.5 29.1 47.2 28.6 C 47.9 28.2 48.7 28 49.6 28 C 50.8 28 51.8 28.4 52.6 29.4 C 52.63 29.44 52.6 28.2 52.6 28.2 L 54.2 28.2 C 54.2 28.2 54.25 37.15 54.2 37.2 C 54.2 38.8 54.1 39.9 53.8 40.6 C 53.4 41.3 52.9 41.8 52.2 42.2 C 51.5 42.6 50.6 42.8 49.6 42.8 C 48.3 42.8 47.3 42.5 46.6 41.9 C 45.8 41.4 45.4 40.5 45.5 39.4 Z M 46.9 33.2 C 46.9 34.6 47.2 35.5 47.7 36.2 C 48.3 36.8 48.9 37.1 49.8 37.1 C 50.6 37.1 51.2 36.8 51.8 36.2 C 52.3 35.6 52.6 34.6 52.6 33.2 C 52.6 32 52.3 31 51.8 30.4 C 51.2 29.7 50.5 29.4 49.7 29.4 C 48.9 29.4 48.3 29.7 47.7 30.4 C 47.2 31 46.9 31.9 46.9 33.2 Z M 64 35.2 C 64 35.2 65.8 35.4 65.8 35.4 C 65.5 36.5 65 37.3 64.2 37.9 C 63.5 38.5 62.5 38.8 61.3 38.8 C 59.7 38.8 58.5 38.3 57.7 37.4 C 56.8 36.5 56.3 35.1 56.3 33.5 C 56.3 31.7 56.8 30.4 57.7 29.4 C 58.6 28.4 59.7 28 61.2 28 C 62.5 28 63.7 28.4 64.6 29.4 C 65.4 30.3 65.9 31.6 65.9 33.4 C 65.9 33.5 65.9 33.6 65.9 33.8 C 65.9 33.8 58.1 33.8 58.1 33.8 C 58.2 35 58.5 35.8 59.1 36.4 C 59.7 37 60.4 37.3 61.3 37.3 C 61.9 37.3 62.5 37.2 62.9 36.8 C 63.4 36.5 63.7 36 64 35.2 Z M 58.2 32.4 C 58.2 32.4 64 32.4 64 32.4 C 63.9 31.5 63.7 30.9 63.4 30.4 C 62.8 29.7 62.1 29.4 61.2 29.4 C 60.4 29.4 59.7 29.7 59.1 30.2 C 58.6 30.8 58.3 31.5 58.2 32.4 Z M 72.9 35.5 C 72.9 35.5 74.6 35.2 74.6 35.2 C 74.7 35.9 75 36.4 75.4 36.8 C 75.9 37.2 76.5 37.3 77.3 37.3 C 78.1 37.3 78.7 37.2 79.1 36.9 C 79.5 36.5 79.7 36.1 79.7 35.7 C 79.7 35.3 79.5 35 79.2 34.8 C 78.9 34.6 78.3 34.4 77.4 34.2 C 76.1 33.8 75.2 33.6 74.7 33.3 C 74.2 33.1 73.8 32.8 73.6 32.3 C 73.3 31.9 73.2 31.5 73.2 30.9 C 73.2 30.5 73.3 30.1 73.5 29.7 C 73.7 29.3 74 28.9 74.4 28.7 C 74.6 28.5 75 28.3 75.5 28.2 C 75.9 28 76.5 28 77 28 C 77.8 28 78.5 28.1 79.1 28.3 C 79.8 28.5 80.2 28.9 80.5 29.3 C 80.8 29.7 81 30.2 81.1 30.9 C 81.1 30.9 79.4 31.1 79.4 31.1 C 79.3 30.6 79.1 30.1 78.7 29.8 C 78.3 29.6 77.8 29.4 77.1 29.4 C 76.3 29.4 75.7 29.5 75.4 29.8 C 75 30.1 74.9 30.4 74.9 30.7 C 74.9 31 74.9 31.2 75.1 31.4 C 75.2 31.5 75.5 31.7 75.8 31.8 C 75.9 31.9 76.5 32 77.3 32.3 C 78.6 32.6 79.4 32.9 79.9 33.1 C 80.4 33.3 80.8 33.6 81.1 34 C 81.4 34.4 81.5 34.9 81.5 35.5 C 81.5 36.1 81.3 36.7 81 37.2 C 80.6 37.7 80.1 38.1 79.5 38.4 C 78.9 38.7 78.1 38.8 77.3 38.8 C 76 38.8 74.9 38.5 74.2 38 C 73.5 37.4 73.1 36.6 72.9 35.5 Z M 84.6 42.8 C 84.3 42.8 83.9 42.7 83.5 42.6 C 83.5 42.6 83.3 40.9 83.3 40.9 C 83.7 41 84 41.1 84.3 41.1 C 84.7 41.1 85 41 85.3 40.9 C 85.5 40.7 85.7 40.6 85.8 40.3 C 85.9 40.1 86.1 39.7 86.4 39 C 86.4 38.9 86.5 38.8 86.5 38.6 C 86.52 38.58 82.6 28.2 82.6 28.2 L 84.5 28.2 C 84.5 28.2 86.64 34.2 86.6 34.2 C 86.9 35 87.2 35.8 87.4 36.6 C 87.6 35.8 87.8 35 88.1 34.2 C 88.12 34.23 90.3 28.2 90.3 28.2 L 92.1 28.2 C 92.1 28.2 88.14 38.74 88.1 38.7 C 87.7 39.9 87.4 40.7 87.2 41.1 C 86.8 41.7 86.5 42.1 86.1 42.4 C 85.7 42.6 85.2 42.8 84.6 42.8 C 84.6 42.8 84.6 42.8 84.6 42.8 Z M 92.9 35.5 C 92.9 35.5 94.6 35.2 94.6 35.2 C 94.7 35.9 95 36.4 95.4 36.8 C 95.9 37.2 96.5 37.3 97.3 37.3 C 98.1 37.3 98.7 37.2 99.1 36.9 C 99.5 36.5 99.7 36.1 99.7 35.7 C 99.7 35.3 99.5 35 99.2 34.8 C 98.9 34.6 98.3 34.4 97.4 34.2 C 96.1 33.8 95.2 33.6 94.7 33.3 C 94.2 33.1 93.8 32.8 93.6 32.3 C 93.3 31.9 93.2 31.5 93.2 30.9 C 93.2 30.5 93.3 30.1 93.5 29.7 C 93.7 29.3 94 28.9 94.4 28.7 C 94.6 28.5 95 28.3 95.5 28.2 C 95.9 28 96.5 28 97 28 C 97.8 28 98.5 28.1 99.1 28.3 C 99.8 28.5 100.2 28.9 100.5 29.3 C 100.8 29.7 101 30.2 101.1 30.9 C 101.1 30.9 99.4 31.1 99.4 31.1 C 99.3 30.6 99.1 30.1 98.7 29.8 C 98.3 29.6 97.8 29.4 97.1 29.4 C 96.3 29.4 95.7 29.5 95.4 29.8 C 95 30.1 94.9 30.4 94.9 30.7 C 94.9 31 94.9 31.2 95.1 31.4 C 95.2 31.5 95.5 31.7 95.8 31.8 C 95.9 31.9 96.5 32 97.3 32.3 C 98.6 32.6 99.4 32.9 99.9 33.1 C 100.4 33.3 100.8 33.6 101.1 34 C 101.4 34.4 101.5 34.9 101.5 35.5 C 101.5 36.1 101.3 36.7 101 37.2 C 100.6 37.7 100.1 38.1 99.5 38.4 C 98.9 38.7 98.1 38.8 97.3 38.8 C 96 38.8 94.9 38.5 94.2 38 C 93.5 37.4 93.1 36.6 92.9 35.5 Z M 106.7 37.1 C 106.8 37.1 107.1 37 107.4 37 C 107.4 37 107.7 38.5 107.7 38.5 C 107.2 38.6 106.7 38.7 106.3 38.7 C 105.7 38.7 105.2 38.6 104.9 38.4 C 104.5 38.2 104.3 37.9 104.1 37.6 C 104 37.3 103.9 36.6 103.9 35.5 C 103.91 35.52 103.9 29.6 103.9 29.6 L 102.6 29.6 L 102.6 28.2 L 103.9 28.2 L 103.9 25.6 L 105.7 24.6 L 105.7 28.2 L 107.4 28.2 L 107.4 29.6 L 105.7 29.6 C 105.7 29.6 105.65 35.62 105.7 35.6 C 105.7 36.1 105.7 36.4 105.7 36.6 C 105.8 36.7 105.9 36.8 106 36.9 C 106.2 37 106.4 37.1 106.7 37.1 C 106.7 37.1 106.7 37.1 106.7 37.1 Z M 116.2 35.2 C 116.2 35.2 118.1 35.4 118.1 35.4 C 117.8 36.5 117.2 37.3 116.5 37.9 C 115.7 38.5 114.7 38.8 113.5 38.8 C 112 38.8 110.8 38.3 109.9 37.4 C 109 36.5 108.6 35.1 108.6 33.5 C 108.6 31.7 109 30.4 109.9 29.4 C 110.8 28.4 112 28 113.4 28 C 114.8 28 115.9 28.4 116.8 29.4 C 117.7 30.3 118.1 31.6 118.1 33.4 C 118.1 33.5 118.1 33.6 118.1 33.8 C 118.1 33.8 110.4 33.8 110.4 33.8 C 110.4 35 110.8 35.8 111.3 36.4 C 111.9 37 112.6 37.3 113.5 37.3 C 114.2 37.3 114.7 37.2 115.2 36.8 C 115.6 36.5 116 36 116.2 35.2 Z M 110.5 32.4 C 110.5 32.4 116.3 32.4 116.3 32.4 C 116.2 31.5 116 30.9 115.6 30.4 C 115 29.7 114.3 29.4 113.4 29.4 C 112.6 29.4 111.9 29.7 111.4 30.2 C 110.8 30.8 110.5 31.5 110.5 32.4 Z M 120.3 38.6 L 120.3 28.2 L 121.8 28.2 C 121.8 28.2 121.84 29.64 121.8 29.6 C 122.2 29.1 122.6 28.7 123.1 28.4 C 123.7 28.1 124.3 28 125 28 C 125.7 28 126.4 28.1 126.9 28.4 C 127.4 28.8 127.7 29.2 127.9 29.8 C 128.7 28.6 129.8 28 131.1 28 C 132.1 28 132.9 28.2 133.5 28.8 C 134 29.4 134.3 30.3 134.3 31.4 C 134.32 31.44 134.3 38.6 134.3 38.6 L 132.6 38.6 C 132.6 38.6 132.57 32.03 132.6 32 C 132.6 31.3 132.5 30.8 132.4 30.5 C 132.3 30.2 132.1 30 131.8 29.8 C 131.5 29.6 131.1 29.5 130.7 29.5 C 130 29.5 129.4 29.7 128.9 30.2 C 128.4 30.7 128.2 31.5 128.2 32.5 C 128.18 32.54 128.2 38.6 128.2 38.6 L 126.4 38.6 C 126.4 38.6 126.43 31.82 126.4 31.8 C 126.4 31 126.3 30.5 126 30.1 C 125.7 29.7 125.2 29.5 124.6 29.5 C 124.1 29.5 123.6 29.6 123.2 29.9 C 122.8 30.1 122.5 30.5 122.3 31 C 122.1 31.5 122 32.2 122 33.2 C 122.02 33.18 122 38.6 122 38.6 L 120.3 38.6 Z M 149.6 35.2 C 149.6 35.2 151.4 35.4 151.4 35.4 C 151.1 36.5 150.6 37.3 149.8 37.9 C 149 38.5 148 38.8 146.8 38.8 C 145.3 38.8 144.1 38.3 143.2 37.4 C 142.3 36.5 141.9 35.1 141.9 33.5 C 141.9 31.7 142.3 30.4 143.2 29.4 C 144.1 28.4 145.3 28 146.7 28 C 148.1 28 149.3 28.4 150.1 29.4 C 151 30.3 151.5 31.6 151.5 33.4 C 151.5 33.5 151.5 33.6 151.4 33.8 C 151.4 33.8 143.7 33.8 143.7 33.8 C 143.8 35 144.1 35.8 144.7 36.4 C 145.3 37 146 37.3 146.8 37.3 C 147.5 37.3 148 37.2 148.5 36.8 C 149 36.5 149.3 36 149.6 35.2 Z M 143.8 32.4 C 143.8 32.4 149.6 32.4 149.6 32.4 C 149.5 31.5 149.3 30.9 148.9 30.4 C 148.4 29.7 147.6 29.4 146.8 29.4 C 146 29.4 145.3 29.7 144.7 30.2 C 144.2 30.8 143.9 31.5 143.8 32.4 Z M 152.4 38.6 L 156.2 33.2 L 152.7 28.2 L 154.9 28.2 C 154.9 28.2 156.5 30.62 156.5 30.6 C 156.8 31.1 157 31.5 157.2 31.8 C 157.5 31.4 157.8 31 158 30.6 C 158.02 30.64 159.8 28.2 159.8 28.2 L 161.9 28.2 L 158.3 33.1 L 162.1 38.6 L 160 38.6 L 157.9 35.3 L 157.3 34.5 L 154.6 38.6 L 152.4 38.6 Z M 163.6 42.5 L 163.6 28.2 L 165.2 28.2 C 165.2 28.2 165.21 29.54 165.2 29.5 C 165.6 29 166 28.6 166.5 28.4 C 167 28.1 167.5 28 168.2 28 C 169.1 28 169.9 28.2 170.6 28.6 C 171.2 29.1 171.7 29.7 172.1 30.6 C 172.4 31.4 172.6 32.3 172.6 33.3 C 172.6 34.4 172.4 35.3 172 36.2 C 171.7 37 171.1 37.7 170.4 38.1 C 169.6 38.6 168.9 38.8 168.1 38.8 C 167.5 38.8 167 38.7 166.5 38.4 C 166 38.2 165.7 37.9 165.4 37.5 C 165.36 37.49 165.4 42.5 165.4 42.5 L 163.6 42.5 Z M 165.2 33.4 C 165.2 34.8 165.5 35.8 166 36.4 C 166.5 37 167.2 37.3 168 37.3 C 168.8 37.3 169.4 37 170 36.4 C 170.5 35.7 170.8 34.7 170.8 33.3 C 170.8 32 170.5 31 170 30.3 C 169.5 29.7 168.8 29.3 168 29.3 C 167.3 29.3 166.6 29.7 166.1 30.4 C 165.5 31.1 165.2 32.1 165.2 33.4 Z M 181.8 38.6 C 181.7 38.2 181.5 37.8 181.5 37.3 C 180.8 37.8 180.2 38.2 179.6 38.5 C 179 38.7 178.4 38.8 177.7 38.8 C 176.5 38.8 175.7 38.5 175 38 C 174.4 37.4 174.1 36.7 174.1 35.8 C 174.1 35.3 174.2 34.9 174.5 34.4 C 174.7 34 175 33.7 175.4 33.4 C 175.8 33.2 176.2 33 176.7 32.8 C 177 32.8 177.5 32.7 178.2 32.6 C 179.6 32.4 180.7 32.2 181.3 32 C 181.4 31.7 181.4 31.6 181.4 31.5 C 181.4 30.8 181.2 30.3 180.9 30 C 180.4 29.6 179.7 29.4 178.9 29.4 C 178 29.4 177.4 29.6 177 29.8 C 176.6 30.1 176.3 30.6 176.2 31.4 C 176.2 31.4 174.4 31.1 174.4 31.1 C 174.6 30.4 174.8 29.8 175.2 29.4 C 175.6 28.9 176.1 28.6 176.8 28.3 C 177.4 28.1 178.2 28 179.1 28 C 180 28 180.7 28.1 181.3 28.3 C 181.8 28.5 182.2 28.7 182.5 29.1 C 182.8 29.4 182.9 29.8 183 30.3 C 183.1 30.5 183.1 31.1 183.1 31.9 C 183.1 31.9 183.1 34.2 183.1 34.2 C 183.1 35.8 183.2 36.9 183.2 37.3 C 183.3 37.7 183.5 38.2 183.7 38.6 C 183.68 38.56 181.8 38.6 181.8 38.6 C 181.8 38.6 181.85 38.56 181.8 38.6 Z M 181.3 33.4 C 180.7 33.6 179.8 33.8 178.5 34 C 177.8 34.1 177.2 34.2 176.9 34.4 C 176.6 34.5 176.4 34.7 176.3 34.9 C 176.1 35.2 176 35.5 176 35.8 C 176 36.2 176.2 36.6 176.5 36.9 C 176.9 37.3 177.4 37.4 178.1 37.4 C 178.8 37.4 179.4 37.3 179.9 37 C 180.4 36.7 180.8 36.3 181.1 35.8 C 181.3 35.4 181.3 34.8 181.3 34 C 181.3 34 181.3 33.4 181.3 33.4 Z M 185.8 38.6 L 185.8 28.2 L 187.4 28.2 C 187.4 28.2 187.43 29.66 187.4 29.7 C 188.2 28.5 189.3 28 190.7 28 C 191.4 28 191.9 28.1 192.5 28.3 C 193 28.5 193.4 28.8 193.6 29.2 C 193.9 29.5 194.1 30 194.2 30.5 C 194.2 30.8 194.3 31.4 194.3 32.2 C 194.28 32.18 194.3 38.6 194.3 38.6 L 192.5 38.6 C 192.5 38.6 192.52 32.25 192.5 32.3 C 192.5 31.5 192.5 31 192.3 30.6 C 192.2 30.3 191.9 30 191.6 29.8 C 191.2 29.6 190.8 29.5 190.4 29.5 C 189.6 29.5 189 29.7 188.4 30.2 C 187.9 30.7 187.6 31.6 187.6 32.9 C 187.61 32.9 187.6 38.6 187.6 38.6 L 185.8 38.6 Z M 196.3 35.5 C 196.3 35.5 198 35.2 198 35.2 C 198.1 35.9 198.4 36.4 198.8 36.8 C 199.3 37.2 199.9 37.3 200.7 37.3 C 201.5 37.3 202.1 37.2 202.5 36.9 C 202.9 36.5 203.1 36.1 203.1 35.7 C 203.1 35.3 202.9 35 202.6 34.8 C 202.3 34.6 201.7 34.4 200.8 34.2 C 199.5 33.8 198.6 33.6 198.1 33.3 C 197.6 33.1 197.2 32.8 196.9 32.3 C 196.7 31.9 196.6 31.5 196.6 30.9 C 196.6 30.5 196.7 30.1 196.9 29.7 C 197.1 29.3 197.4 28.9 197.7 28.7 C 198 28.5 198.4 28.3 198.9 28.2 C 199.3 28 199.8 28 200.4 28 C 201.2 28 201.9 28.1 202.5 28.3 C 203.1 28.5 203.6 28.9 203.9 29.3 C 204.2 29.7 204.4 30.2 204.5 30.9 C 204.5 30.9 202.8 31.1 202.8 31.1 C 202.7 30.6 202.5 30.1 202.1 29.8 C 201.7 29.6 201.2 29.4 200.5 29.4 C 199.7 29.4 199.1 29.5 198.8 29.8 C 198.4 30.1 198.3 30.4 198.3 30.7 C 198.3 31 198.3 31.2 198.5 31.4 C 198.6 31.5 198.8 31.7 199.2 31.8 C 199.3 31.9 199.8 32 200.7 32.3 C 201.9 32.6 202.8 32.9 203.3 33.1 C 203.8 33.3 204.2 33.6 204.5 34 C 204.7 34.4 204.9 34.9 204.9 35.5 C 204.9 36.1 204.7 36.7 204.4 37.2 C 204 37.7 203.5 38.1 202.9 38.4 C 202.2 38.7 201.5 38.8 200.7 38.8 C 199.4 38.8 198.3 38.5 197.6 38 C 196.9 37.4 196.5 36.6 196.3 35.5 Z M 207 26.3 L 207 24.2 L 208.7 24.2 L 208.7 26.3 L 207 26.3 Z M 207 38.6 L 207 28.2 L 208.7 28.2 L 208.7 38.6 L 207 38.6 Z M 210.8 33.4 C 210.8 31.5 211.3 30 212.4 29.1 C 213.3 28.3 214.3 28 215.6 28 C 217.1 28 218.2 28.4 219.1 29.4 C 220 30.3 220.5 31.6 220.5 33.2 C 220.5 34.6 220.3 35.6 219.9 36.4 C 219.5 37.1 218.9 37.7 218.1 38.2 C 217.4 38.6 216.5 38.8 215.6 38.8 C 214.2 38.8 213 38.3 212.1 37.4 C 211.2 36.5 210.8 35.1 210.8 33.4 Z M 212.6 33.4 C 212.6 34.7 212.9 35.7 213.4 36.4 C 214 37 214.7 37.3 215.6 37.3 C 216.5 37.3 217.2 37 217.8 36.4 C 218.4 35.7 218.7 34.7 218.7 33.3 C 218.7 32 218.4 31.1 217.8 30.4 C 217.2 29.7 216.5 29.4 215.6 29.4 C 214.7 29.4 214 29.7 213.4 30.4 C 212.9 31.1 212.6 32 212.6 33.4 Z M 222.5 38.6 L 222.5 28.2 L 224.1 28.2 C 224.1 28.2 224.12 29.66 224.1 29.7 C 224.9 28.5 226 28 227.4 28 C 228 28 228.6 28.1 229.1 28.3 C 229.7 28.5 230.1 28.8 230.3 29.2 C 230.6 29.5 230.8 30 230.9 30.5 C 230.9 30.8 231 31.4 231 32.2 C 230.97 32.18 231 38.6 231 38.6 L 229.2 38.6 C 229.2 38.6 229.21 32.25 229.2 32.3 C 229.2 31.5 229.1 31 229 30.6 C 228.9 30.3 228.6 30 228.3 29.8 C 227.9 29.6 227.5 29.5 227.1 29.5 C 226.3 29.5 225.7 29.7 225.1 30.2 C 224.6 30.7 224.3 31.6 224.3 32.9 C 224.3 32.9 224.3 38.6 224.3 38.6 L 222.5 38.6 Z M 233 35.5 C 233 35.5 234.7 35.2 234.7 35.2 C 234.8 35.9 235.1 36.4 235.5 36.8 C 236 37.2 236.6 37.3 237.4 37.3 C 238.2 37.3 238.8 37.2 239.2 36.9 C 239.6 36.5 239.8 36.1 239.8 35.7 C 239.8 35.3 239.6 35 239.2 34.8 C 239 34.6 238.4 34.4 237.5 34.2 C 236.2 33.8 235.3 33.6 234.8 33.3 C 234.3 33.1 233.9 32.8 233.6 32.3 C 233.4 31.9 233.3 31.5 233.3 30.9 C 233.3 30.5 233.4 30.1 233.6 29.7 C 233.8 29.3 234.1 28.9 234.4 28.7 C 234.7 28.5 235.1 28.3 235.6 28.2 C 236 28 236.5 28 237.1 28 C 237.9 28 238.6 28.1 239.2 28.3 C 239.8 28.5 240.3 28.9 240.6 29.3 C 240.9 29.7 241.1 30.2 241.2 30.9 C 241.2 30.9 239.5 31.1 239.5 31.1 C 239.4 30.6 239.2 30.1 238.8 29.8 C 238.4 29.6 237.9 29.4 237.2 29.4 C 236.4 29.4 235.8 29.5 235.5 29.8 C 235.1 30.1 235 30.4 235 30.7 C 235 31 235 31.2 235.2 31.4 C 235.3 31.5 235.5 31.7 235.8 31.8 C 236 31.9 236.5 32 237.4 32.3 C 238.6 32.6 239.5 32.9 240 33.1 C 240.5 33.3 240.9 33.6 241.2 34 C 241.4 34.4 241.6 34.9 241.6 35.5 C 241.6 36.1 241.4 36.7 241.1 37.2 C 240.7 37.7 240.2 38.1 239.6 38.4 C 238.9 38.7 238.2 38.8 237.4 38.8 C 236 38.8 235 38.5 234.3 38 C 233.6 37.4 233.2 36.6 233 35.5 Z M 244.1 38.6 L 244.1 36.6 L 246.1 36.6 C 246.1 36.6 246.12 38.56 246.1 38.6 C 246.1 39.3 246 39.9 245.7 40.3 C 245.5 40.8 245.1 41.1 244.5 41.4 C 244.5 41.4 244 40.6 244 40.6 C 244.4 40.5 244.6 40.2 244.8 39.9 C 245 39.6 245.1 39.2 245.1 38.6 C 245.12 38.56 244.1 38.6 244.1 38.6 Z M 254.8 26.3 L 254.8 24.2 L 256.5 24.2 L 256.5 26.3 L 254.8 26.3 Z M 254.8 38.6 L 254.8 28.2 L 256.5 28.2 L 256.5 38.6 L 254.8 38.6 Z M 259.2 38.6 L 259.2 28.2 L 260.8 28.2 C 260.8 28.2 260.8 29.66 260.8 29.7 C 261.6 28.5 262.7 28 264.1 28 C 264.7 28 265.3 28.1 265.8 28.3 C 266.3 28.5 266.7 28.8 267 29.2 C 267.3 29.5 267.4 30 267.5 30.5 C 267.6 30.8 267.6 31.4 267.6 32.2 C 267.65 32.18 267.6 38.6 267.6 38.6 L 265.9 38.6 C 265.9 38.6 265.89 32.25 265.9 32.3 C 265.9 31.5 265.8 31 265.7 30.6 C 265.5 30.3 265.3 30 265 29.8 C 264.6 29.6 264.2 29.5 263.7 29.5 C 263 29.5 262.3 29.7 261.8 30.2 C 261.2 30.7 261 31.6 261 32.9 C 260.98 32.9 261 38.6 261 38.6 L 259.2 38.6 Z M 277.1 34.8 C 277.1 34.8 278.8 35 278.8 35 C 278.6 36.2 278.2 37.1 277.4 37.8 C 276.6 38.5 275.7 38.8 274.5 38.8 C 273.1 38.8 272 38.3 271.1 37.4 C 270.2 36.5 269.8 35.1 269.8 33.4 C 269.8 32.3 270 31.3 270.4 30.5 C 270.7 29.6 271.3 29 272.1 28.6 C 272.8 28.2 273.6 28 274.5 28 C 275.7 28 276.6 28.2 277.3 28.8 C 278 29.4 278.5 30.2 278.7 31.2 C 278.7 31.2 277 31.5 277 31.5 C 276.8 30.8 276.5 30.3 276.1 29.9 C 275.7 29.6 275.2 29.4 274.6 29.4 C 273.7 29.4 273 29.7 272.4 30.4 C 271.9 31 271.6 32 271.6 33.4 C 271.6 34.8 271.9 35.8 272.4 36.4 C 272.9 37 273.6 37.3 274.5 37.3 C 275.2 37.3 275.8 37.1 276.2 36.7 C 276.7 36.3 277 35.6 277.1 34.8 Z M 280.3 38.6 L 280.3 24.2 L 282.1 24.2 L 282.1 38.6 L 280.3 38.6 Z M 291.6 38.6 C 291.6 38.6 291.58 37.04 291.6 37 C 290.8 38.2 289.7 38.8 288.3 38.8 C 287.7 38.8 287.1 38.7 286.6 38.4 C 286 38.2 285.7 37.9 285.4 37.6 C 285.1 37.2 285 36.8 284.9 36.3 C 284.8 35.9 284.7 35.4 284.7 34.6 C 284.75 34.62 284.7 28.2 284.7 28.2 L 286.5 28.2 C 286.5 28.2 286.5 33.94 286.5 33.9 C 286.5 34.9 286.5 35.5 286.6 35.8 C 286.7 36.3 287 36.6 287.3 36.9 C 287.7 37.1 288.1 37.3 288.6 37.3 C 289.2 37.3 289.7 37.1 290.1 36.9 C 290.6 36.6 290.9 36.2 291.1 35.8 C 291.3 35.3 291.4 34.6 291.4 33.7 C 291.4 33.75 291.4 28.2 291.4 28.2 L 293.2 28.2 L 293.2 38.6 L 291.6 38.6 Z M 302.6 38.6 C 302.6 38.6 302.64 37.25 302.6 37.3 C 302 38.3 301 38.8 299.7 38.8 C 298.9 38.8 298.1 38.6 297.5 38.1 C 296.8 37.7 296.2 37 295.8 36.2 C 295.5 35.4 295.3 34.4 295.3 33.4 C 295.3 32.3 295.4 31.4 295.8 30.6 C 296.1 29.7 296.7 29.1 297.3 28.6 C 298 28.2 298.8 28 299.7 28 C 300.3 28 300.8 28.1 301.3 28.4 C 301.8 28.6 302.2 29 302.5 29.4 C 302.52 29.38 302.5 24.2 302.5 24.2 L 304.3 24.2 L 304.3 38.6 L 302.6 38.6 Z M 297.1 33.4 C 297.1 34.7 297.4 35.7 297.9 36.4 C 298.5 37 299.1 37.3 299.9 37.3 C 300.7 37.3 301.3 37 301.9 36.4 C 302.4 35.8 302.7 34.8 302.7 33.5 C 302.7 32.1 302.4 31.1 301.8 30.4 C 301.3 29.7 300.6 29.4 299.8 29.4 C 299 29.4 298.4 29.7 297.9 30.4 C 297.3 31 297.1 32 297.1 33.4 Z M 307 26.3 L 307 24.2 L 308.8 24.2 L 308.8 26.3 L 307 26.3 Z M 307 38.6 L 307 28.2 L 308.8 28.2 L 308.8 38.6 L 307 38.6 Z M 311.5 38.6 L 311.5 28.2 L 313.1 28.2 C 313.1 28.2 313.06 29.66 313.1 29.7 C 313.8 28.5 314.9 28 316.4 28 C 317 28 317.6 28.1 318.1 28.3 C 318.6 28.5 319 28.8 319.3 29.2 C 319.5 29.5 319.7 30 319.8 30.5 C 319.9 30.8 319.9 31.4 319.9 32.2 C 319.9 32.18 319.9 38.6 319.9 38.6 L 318.1 38.6 C 318.1 38.6 318.14 32.25 318.1 32.3 C 318.1 31.5 318.1 31 317.9 30.6 C 317.8 30.3 317.6 30 317.2 29.8 C 316.9 29.6 316.5 29.5 316 29.5 C 315.2 29.5 314.6 29.7 314 30.2 C 313.5 30.7 313.2 31.6 313.2 32.9 C 313.23 32.9 313.2 38.6 313.2 38.6 L 311.5 38.6 Z M 322.3 39.4 C 322.3 39.4 324 39.7 324 39.7 C 324.1 40.2 324.3 40.6 324.6 40.8 C 325 41.2 325.6 41.3 326.4 41.3 C 327.2 41.3 327.8 41.2 328.3 40.8 C 328.7 40.5 329 40 329.2 39.5 C 329.2 39.1 329.3 38.3 329.3 37.2 C 328.5 38.1 327.6 38.6 326.4 38.6 C 325 38.6 323.9 38 323.1 37 C 322.3 36 321.9 34.8 321.9 33.3 C 321.9 32.3 322.1 31.4 322.5 30.6 C 322.8 29.7 323.3 29.1 324 28.6 C 324.7 28.2 325.5 28 326.4 28 C 327.6 28 328.6 28.4 329.4 29.4 C 329.44 29.44 329.4 28.2 329.4 28.2 L 331.1 28.2 C 331.1 28.2 331.06 37.15 331.1 37.2 C 331.1 38.8 330.9 39.9 330.6 40.6 C 330.2 41.3 329.7 41.8 329 42.2 C 328.3 42.6 327.4 42.8 326.4 42.8 C 325.1 42.8 324.1 42.5 323.4 41.9 C 322.6 41.4 322.2 40.5 322.3 39.4 Z M 323.7 33.2 C 323.7 34.6 324 35.5 324.5 36.2 C 325.1 36.8 325.8 37.1 326.6 37.1 C 327.4 37.1 328.1 36.8 328.6 36.2 C 329.2 35.6 329.4 34.6 329.4 33.2 C 329.4 32 329.1 31 328.6 30.4 C 328 29.7 327.3 29.4 326.5 29.4 C 325.8 29.4 325.1 29.7 324.6 30.4 C 324 31 323.7 31.9 323.7 33.2 Z M 342.3 37.1 C 342.5 37.1 342.8 37 343.1 37 C 343.1 37 343.4 38.5 343.4 38.5 C 342.9 38.6 342.4 38.7 342 38.7 C 341.4 38.7 340.9 38.6 340.6 38.4 C 340.2 38.2 340 37.9 339.8 37.6 C 339.7 37.3 339.6 36.6 339.6 35.5 C 339.6 35.52 339.6 29.6 339.6 29.6 L 338.3 29.6 L 338.3 28.2 L 339.6 28.2 L 339.6 25.6 L 341.3 24.6 L 341.3 28.2 L 343.1 28.2 L 343.1 29.6 L 341.3 29.6 C 341.3 29.6 341.35 35.62 341.3 35.6 C 341.3 36.1 341.4 36.4 341.4 36.6 C 341.5 36.7 341.6 36.8 341.7 36.9 C 341.9 37 342.1 37.1 342.3 37.1 C 342.3 37.1 342.3 37.1 342.3 37.1 Z M 344.8 38.6 L 344.8 24.2 L 346.6 24.2 C 346.6 24.2 346.59 29.38 346.6 29.4 C 347.4 28.4 348.4 28 349.7 28 C 350.5 28 351.1 28.1 351.7 28.4 C 352.3 28.7 352.7 29.1 352.9 29.7 C 353.2 30.2 353.3 31 353.3 32 C 353.28 31.99 353.3 38.6 353.3 38.6 L 351.5 38.6 C 351.5 38.6 351.52 31.99 351.5 32 C 351.5 31.1 351.3 30.5 351 30.1 C 350.6 29.7 350 29.5 349.3 29.5 C 348.8 29.5 348.3 29.6 347.9 29.9 C 347.4 30.1 347.1 30.5 346.9 31 C 346.7 31.4 346.6 32.1 346.6 32.9 C 346.59 32.89 346.6 38.6 346.6 38.6 L 344.8 38.6 Z M 363.1 35.2 C 363.1 35.2 364.9 35.4 364.9 35.4 C 364.6 36.5 364.1 37.3 363.3 37.9 C 362.5 38.5 361.5 38.8 360.3 38.8 C 358.8 38.8 357.6 38.3 356.7 37.4 C 355.8 36.5 355.4 35.1 355.4 33.5 C 355.4 31.7 355.8 30.4 356.7 29.4 C 357.6 28.4 358.8 28 360.2 28 C 361.6 28 362.7 28.4 363.6 29.4 C 364.5 30.3 364.9 31.6 364.9 33.4 C 364.9 33.5 364.9 33.6 364.9 33.8 C 364.9 33.8 357.2 33.8 357.2 33.8 C 357.3 35 357.6 35.8 358.2 36.4 C 358.7 37 359.5 37.3 360.3 37.3 C 361 37.3 361.5 37.2 362 36.8 C 362.4 36.5 362.8 36 363.1 35.2 Z M 357.3 32.4 C 357.3 32.4 363.1 32.4 363.1 32.4 C 363 31.5 362.8 30.9 362.4 30.4 C 361.9 29.7 361.1 29.4 360.2 29.4 C 359.4 29.4 358.7 29.7 358.2 30.2 C 357.6 30.8 357.3 31.5 357.3 32.4 Z M 374.6 38.6 L 371.4 28.2 L 373.2 28.2 L 374.8 34.2 C 374.8 34.2 375.46 36.4 375.5 36.4 C 375.5 36.3 375.7 35.6 376 34.3 C 376 34.26 377.6 28.2 377.6 28.2 L 379.5 28.2 L 381 34.2 L 381.5 36.2 L 382.1 34.2 L 383.9 28.2 L 385.6 28.2 L 382.4 38.6 L 380.5 38.6 L 378.9 32.3 L 378.5 30.6 L 376.4 38.6 L 374.6 38.6 Z M 386.4 33.4 C 386.4 31.5 387 30 388 29.1 C 388.9 28.3 390 28 391.3 28 C 392.7 28 393.9 28.4 394.8 29.4 C 395.7 30.3 396.1 31.6 396.1 33.2 C 396.1 34.6 395.9 35.6 395.5 36.4 C 395.1 37.1 394.6 37.7 393.8 38.2 C 393 38.6 392.2 38.8 391.3 38.8 C 389.8 38.8 388.7 38.3 387.8 37.4 C 386.9 36.5 386.4 35.1 386.4 33.4 Z M 388.2 33.4 C 388.2 34.7 388.5 35.7 389.1 36.4 C 389.7 37 390.4 37.3 391.3 37.3 C 392.2 37.3 392.9 37 393.5 36.4 C 394 35.7 394.3 34.7 394.3 33.3 C 394.3 32 394 31.1 393.5 30.4 C 392.9 29.7 392.2 29.4 391.3 29.4 C 390.4 29.4 389.7 29.7 389.1 30.4 C 388.5 31.1 388.2 32 388.2 33.4 Z M 398.2 38.6 L 398.2 28.2 L 399.8 28.2 C 399.8 28.2 399.77 29.76 399.8 29.8 C 400.2 29 400.5 28.5 400.9 28.3 C 401.2 28.1 401.6 28 402 28 C 402.6 28 403.2 28.1 403.8 28.5 C 403.8 28.5 403.2 30.2 403.2 30.2 C 402.8 29.9 402.4 29.8 401.9 29.8 C 401.5 29.8 401.2 29.9 400.9 30.1 C 400.6 30.3 400.4 30.7 400.2 31.1 C 400 31.7 399.9 32.4 399.9 33.1 C 399.94 33.13 399.9 38.6 399.9 38.6 L 398.2 38.6 Z M 404.8 38.6 L 404.8 24.2 L 406.6 24.2 L 406.6 38.6 L 404.8 38.6 Z M 416 38.6 C 416 38.6 416.04 37.25 416 37.3 C 415.4 38.3 414.4 38.8 413.1 38.8 C 412.3 38.8 411.5 38.6 410.9 38.1 C 410.2 37.7 409.6 37 409.2 36.2 C 408.9 35.4 408.7 34.4 408.7 33.4 C 408.7 32.3 408.8 31.4 409.2 30.6 C 409.5 29.7 410.1 29.1 410.7 28.6 C 411.4 28.2 412.2 28 413.1 28 C 413.7 28 414.2 28.1 414.7 28.4 C 415.2 28.6 415.6 29 415.9 29.4 C 415.92 29.38 415.9 24.2 415.9 24.2 L 417.7 24.2 L 417.7 38.6 L 416 38.6 Z M 410.5 33.4 C 410.5 34.7 410.8 35.7 411.3 36.4 C 411.9 37 412.5 37.3 413.3 37.3 C 414.1 37.3 414.7 37 415.3 36.4 C 415.8 35.8 416.1 34.8 416.1 33.5 C 416.1 32.1 415.8 31.1 415.2 30.4 C 414.7 29.7 414 29.4 413.2 29.4 C 412.4 29.4 411.8 29.7 411.3 30.4 C 410.7 31 410.5 32 410.5 33.4 Z M 420.3 26.1 L 420.3 24.1 L 422.2 24.1 C 422.2 24.1 422.21 25.71 422.2 25.7 C 422.2 26.6 422.1 27.2 421.9 27.6 C 421.6 28.1 421.2 28.5 420.6 28.8 C 420.6 28.8 420.2 28.1 420.2 28.1 C 420.5 27.9 420.8 27.7 421 27.4 C 421.1 27.1 421.2 26.7 421.2 26.1 C 421.24 26.14 420.3 26.1 420.3 26.1 Z M 423.8 35.5 C 423.8 35.5 425.5 35.2 425.5 35.2 C 425.6 35.9 425.9 36.4 426.4 36.8 C 426.8 37.2 427.4 37.3 428.2 37.3 C 429 37.3 429.6 37.2 430 36.9 C 430.4 36.5 430.6 36.1 430.6 35.7 C 430.6 35.3 430.4 35 430.1 34.8 C 429.9 34.6 429.3 34.4 428.3 34.2 C 427 33.8 426.1 33.6 425.6 33.3 C 425.1 33.1 424.7 32.8 424.5 32.3 C 424.2 31.9 424.1 31.5 424.1 30.9 C 424.1 30.5 424.2 30.1 424.4 29.7 C 424.6 29.3 424.9 28.9 425.3 28.7 C 425.6 28.5 425.9 28.3 426.4 28.2 C 426.9 28 427.4 28 427.9 28 C 428.7 28 429.4 28.1 430.1 28.3 C 430.7 28.5 431.1 28.9 431.4 29.3 C 431.7 29.7 431.9 30.2 432 30.9 C 432 30.9 430.3 31.1 430.3 31.1 C 430.2 30.6 430 30.1 429.6 29.8 C 429.3 29.6 428.7 29.4 428 29.4 C 427.2 29.4 426.7 29.5 426.3 29.8 C 426 30.1 425.8 30.4 425.8 30.7 C 425.8 31 425.9 31.2 426 31.4 C 426.2 31.5 426.4 31.7 426.7 31.8 C 426.9 31.9 427.4 32 428.2 32.3 C 429.5 32.6 430.4 32.9 430.8 33.1 C 431.3 33.3 431.7 33.6 432 34 C 432.3 34.4 432.4 34.9 432.4 35.5 C 432.4 36.1 432.3 36.7 431.9 37.2 C 431.6 37.7 431.1 38.1 430.4 38.4 C 429.8 38.7 429.1 38.8 428.2 38.8 C 426.9 38.8 425.9 38.5 425.2 38 C 424.5 37.4 424 36.6 423.8 35.5 Z M 440 38.6 L 440 24.2 L 441.8 24.2 L 441.8 38.6 L 440 38.6 Z M 451.6 38.6 C 451.4 38.2 451.3 37.8 451.3 37.3 C 450.6 37.8 450 38.2 449.4 38.5 C 448.8 38.7 448.2 38.8 447.5 38.8 C 446.3 38.8 445.4 38.5 444.8 38 C 444.2 37.4 443.9 36.7 443.9 35.8 C 443.9 35.3 444 34.9 444.3 34.4 C 444.5 34 444.8 33.7 445.2 33.4 C 445.5 33.2 446 33 446.4 32.8 C 446.8 32.8 447.3 32.7 448 32.6 C 449.4 32.4 450.5 32.2 451.1 32 C 451.1 31.7 451.1 31.6 451.1 31.5 C 451.1 30.8 451 30.3 450.6 30 C 450.2 29.6 449.5 29.4 448.6 29.4 C 447.8 29.4 447.2 29.6 446.8 29.8 C 446.4 30.1 446.1 30.6 445.9 31.4 C 445.9 31.4 444.2 31.1 444.2 31.1 C 444.4 30.4 444.6 29.8 445 29.4 C 445.3 28.9 445.9 28.6 446.5 28.3 C 447.2 28.1 448 28 448.9 28 C 449.8 28 450.5 28.1 451.1 28.3 C 451.6 28.5 452 28.7 452.3 29.1 C 452.5 29.4 452.7 29.8 452.8 30.3 C 452.9 30.5 452.9 31.1 452.9 31.9 C 452.9 31.9 452.9 34.2 452.9 34.2 C 452.9 35.8 452.9 36.9 453 37.3 C 453.1 37.7 453.2 38.2 453.5 38.6 C 453.47 38.56 451.6 38.6 451.6 38.6 C 451.6 38.6 451.63 38.56 451.6 38.6 Z M 451.1 33.4 C 450.5 33.6 449.5 33.8 448.3 34 C 447.5 34.1 447 34.2 446.7 34.4 C 446.4 34.5 446.2 34.7 446 34.9 C 445.9 35.2 445.8 35.5 445.8 35.8 C 445.8 36.2 446 36.6 446.3 36.9 C 446.7 37.3 447.2 37.4 447.9 37.4 C 448.6 37.4 449.2 37.3 449.7 37 C 450.2 36.7 450.6 36.3 450.8 35.8 C 451 35.4 451.1 34.8 451.1 34 C 451.1 34 451.1 33.4 451.1 33.4 Z M 455.6 38.6 L 455.6 28.2 L 457.2 28.2 C 457.2 28.2 457.2 29.76 457.2 29.8 C 457.6 29 458 28.5 458.3 28.3 C 458.7 28.1 459 28 459.4 28 C 460 28 460.6 28.1 461.3 28.5 C 461.3 28.5 460.6 30.2 460.6 30.2 C 460.2 29.9 459.8 29.8 459.4 29.8 C 459 29.8 458.6 29.9 458.3 30.1 C 458 30.3 457.8 30.7 457.7 31.1 C 457.5 31.7 457.4 32.4 457.4 33.1 C 457.37 33.13 457.4 38.6 457.4 38.6 L 455.6 38.6 Z M 462 39.4 C 462 39.4 463.7 39.7 463.7 39.7 C 463.8 40.2 464 40.6 464.3 40.8 C 464.7 41.2 465.3 41.3 466.1 41.3 C 466.9 41.3 467.5 41.2 467.9 40.8 C 468.4 40.5 468.7 40 468.8 39.5 C 468.9 39.1 469 38.3 469 37.2 C 468.2 38.1 467.2 38.6 466.1 38.6 C 464.7 38.6 463.6 38 462.8 37 C 462 36 461.6 34.8 461.6 33.3 C 461.6 32.3 461.8 31.4 462.2 30.6 C 462.5 29.7 463 29.1 463.7 28.6 C 464.4 28.2 465.2 28 466.1 28 C 467.3 28 468.3 28.4 469.1 29.4 C 469.14 29.44 469.1 28.2 469.1 28.2 L 470.8 28.2 C 470.8 28.2 470.76 37.15 470.8 37.2 C 470.8 38.8 470.6 39.9 470.3 40.6 C 469.9 41.3 469.4 41.8 468.7 42.2 C 468 42.6 467.1 42.8 466.1 42.8 C 464.8 42.8 463.8 42.5 463.1 41.9 C 462.3 41.4 461.9 40.5 462 39.4 Z M 463.4 33.2 C 463.4 34.6 463.7 35.5 464.2 36.2 C 464.8 36.8 465.5 37.1 466.3 37.1 C 467.1 37.1 467.8 36.8 468.3 36.2 C 468.8 35.6 469.1 34.6 469.1 33.2 C 469.1 32 468.8 31 468.3 30.4 C 467.7 29.7 467 29.4 466.2 29.4 C 465.5 29.4 464.8 29.7 464.2 30.4 C 463.7 31 463.4 31.9 463.4 33.2 Z M 480.5 35.2 C 480.5 35.2 482.3 35.4 482.3 35.4 C 482 36.5 481.5 37.3 480.7 37.9 C 480 38.5 479 38.8 477.8 38.8 C 476.3 38.8 475.1 38.3 474.2 37.4 C 473.3 36.5 472.8 35.1 472.8 33.5 C 472.8 31.7 473.3 30.4 474.2 29.4 C 475.1 28.4 476.2 28 477.7 28 C 479.1 28 480.2 28.4 481.1 29.4 C 482 30.3 482.4 31.6 482.4 33.4 C 482.4 33.5 482.4 33.6 482.4 33.8 C 482.4 33.8 474.6 33.8 474.6 33.8 C 474.7 35 475 35.8 475.6 36.4 C 476.2 37 476.9 37.3 477.8 37.3 C 478.4 37.3 479 37.2 479.4 36.8 C 479.9 36.5 480.3 36 480.5 35.2 Z M 474.7 32.4 C 474.7 32.4 480.5 32.4 480.5 32.4 C 480.5 31.5 480.2 30.9 479.9 30.4 C 479.3 29.7 478.6 29.4 477.7 29.4 C 476.9 29.4 476.2 29.7 475.7 30.2 C 475.1 30.8 474.8 31.5 474.7 32.4 Z M 483.8 35.5 C 483.8 35.5 485.6 35.2 485.6 35.2 C 485.7 35.9 485.9 36.4 486.4 36.8 C 486.8 37.2 487.5 37.3 488.3 37.3 C 489.1 37.3 489.7 37.2 490.1 36.9 C 490.4 36.5 490.6 36.1 490.6 35.7 C 490.6 35.3 490.5 35 490.1 34.8 C 489.9 34.6 489.3 34.4 488.3 34.2 C 487 33.8 486.1 33.6 485.6 33.3 C 485.2 33.1 484.8 32.8 484.5 32.3 C 484.3 31.9 484.1 31.5 484.1 30.9 C 484.1 30.5 484.2 30.1 484.4 29.7 C 484.7 29.3 484.9 28.9 485.3 28.7 C 485.6 28.5 486 28.3 486.4 28.2 C 486.9 28 487.4 28 487.9 28 C 488.8 28 489.5 28.1 490.1 28.3 C 490.7 28.5 491.2 28.9 491.5 29.3 C 491.7 29.7 491.9 30.2 492.1 30.9 C 492.1 30.9 490.3 31.1 490.3 31.1 C 490.3 30.6 490 30.1 489.7 29.8 C 489.3 29.6 488.8 29.4 488.1 29.4 C 487.3 29.4 486.7 29.5 486.3 29.8 C 486 30.1 485.8 30.4 485.8 30.7 C 485.8 31 485.9 31.2 486 31.4 C 486.2 31.5 486.4 31.7 486.7 31.8 C 486.9 31.9 487.4 32 488.3 32.3 C 489.5 32.6 490.4 32.9 490.9 33.1 C 491.4 33.3 491.8 33.6 492 34 C 492.3 34.4 492.5 34.9 492.5 35.5 C 492.5 36.1 492.3 36.7 491.9 37.2 C 491.6 37.7 491.1 38.1 490.5 38.4 C 489.8 38.7 489.1 38.8 488.3 38.8 C 486.9 38.8 485.9 38.5 485.2 38 C 484.5 37.4 484 36.6 483.8 35.5 Z M 497.6 37.1 C 497.8 37.1 498.1 37 498.4 37 C 498.4 37 498.6 38.5 498.6 38.5 C 498.1 38.6 497.7 38.7 497.3 38.7 C 496.7 38.7 496.2 38.6 495.8 38.4 C 495.5 38.2 495.2 37.9 495.1 37.6 C 494.9 37.3 494.9 36.6 494.9 35.5 C 494.86 35.52 494.9 29.6 494.9 29.6 L 493.6 29.6 L 493.6 28.2 L 494.9 28.2 L 494.9 25.6 L 496.6 24.6 L 496.6 28.2 L 498.4 28.2 L 498.4 29.6 L 496.6 29.6 C 496.6 29.6 496.61 35.62 496.6 35.6 C 496.6 36.1 496.6 36.4 496.7 36.6 C 496.8 36.7 496.9 36.8 497 36.9 C 497.1 37 497.3 37.1 497.6 37.1 C 497.6 37.1 497.6 37.1 497.6 37.1 Z M 507.3 38.6 L 505.6 38.6 L 505.6 24.2 L 507.4 24.2 C 507.4 24.2 507.4 29.35 507.4 29.4 C 508.1 28.4 509.1 28 510.2 28 C 510.9 28 511.5 28.1 512.1 28.3 C 512.6 28.6 513.1 29 513.5 29.4 C 513.8 29.9 514.1 30.5 514.3 31.1 C 514.5 31.8 514.6 32.5 514.6 33.2 C 514.6 35 514.2 36.4 513.3 37.3 C 512.4 38.3 511.4 38.8 510.2 38.8 C 508.9 38.8 508 38.3 507.3 37.3 C 507.28 37.26 507.3 38.6 507.3 38.6 Z M 507.3 33.3 C 507.3 34.5 507.4 35.4 507.8 36 C 508.3 36.9 509.1 37.3 510 37.3 C 510.8 37.3 511.4 37 512 36.3 C 512.6 35.7 512.8 34.7 512.8 33.4 C 512.8 32 512.6 31 512 30.4 C 511.5 29.7 510.8 29.4 510.1 29.4 C 509.3 29.4 508.7 29.7 508.1 30.4 C 507.5 31.1 507.3 32 507.3 33.3 Z M 523.9 38.6 C 523.7 38.2 523.6 37.8 523.5 37.3 C 522.9 37.8 522.3 38.2 521.7 38.5 C 521.1 38.7 520.4 38.8 519.7 38.8 C 518.6 38.8 517.7 38.5 517.1 38 C 516.5 37.4 516.2 36.7 516.2 35.8 C 516.2 35.3 516.3 34.9 516.5 34.4 C 516.8 34 517.1 33.7 517.4 33.4 C 517.8 33.2 518.2 33 518.7 32.8 C 519 32.8 519.6 32.7 520.3 32.6 C 521.7 32.4 522.7 32.2 523.4 32 C 523.4 31.7 523.4 31.6 523.4 31.5 C 523.4 30.8 523.2 30.3 522.9 30 C 522.5 29.6 521.8 29.4 520.9 29.4 C 520.1 29.4 519.5 29.6 519.1 29.8 C 518.7 30.1 518.4 30.6 518.2 31.4 C 518.2 31.4 516.5 31.1 516.5 31.1 C 516.6 30.4 516.9 29.8 517.3 29.4 C 517.6 28.9 518.1 28.6 518.8 28.3 C 519.5 28.1 520.3 28 521.2 28 C 522 28 522.8 28.1 523.3 28.3 C 523.9 28.5 524.3 28.7 524.5 29.1 C 524.8 29.4 525 29.8 525.1 30.3 C 525.1 30.5 525.2 31.1 525.2 31.9 C 525.2 31.9 525.2 34.2 525.2 34.2 C 525.2 35.8 525.2 36.9 525.3 37.3 C 525.4 37.7 525.5 38.2 525.7 38.6 C 525.73 38.56 523.9 38.6 523.9 38.6 C 523.9 38.6 523.9 38.56 523.9 38.6 Z M 523.4 33.4 C 522.8 33.6 521.8 33.8 520.5 34 C 519.8 34.1 519.3 34.2 519 34.4 C 518.7 34.5 518.5 34.7 518.3 34.9 C 518.1 35.2 518.1 35.5 518.1 35.8 C 518.1 36.2 518.2 36.6 518.6 36.9 C 518.9 37.3 519.5 37.4 520.1 37.4 C 520.8 37.4 521.4 37.3 522 37 C 522.5 36.7 522.9 36.3 523.1 35.8 C 523.3 35.4 523.4 34.8 523.4 34 C 523.4 34 523.4 33.4 523.4 33.4 Z M 531 37.1 C 531.2 37.1 531.4 37 531.7 37 C 531.7 37 532 38.5 532 38.5 C 531.5 38.6 531.1 38.7 530.7 38.7 C 530 38.7 529.5 38.6 529.2 38.4 C 528.8 38.2 528.6 37.9 528.4 37.6 C 528.3 37.3 528.2 36.6 528.2 35.5 C 528.22 35.52 528.2 29.6 528.2 29.6 L 526.9 29.6 L 526.9 28.2 L 528.2 28.2 L 528.2 25.6 L 530 24.6 L 530 28.2 L 531.7 28.2 L 531.7 29.6 L 530 29.6 C 530 29.6 529.97 35.62 530 35.6 C 530 36.1 530 36.4 530.1 36.6 C 530.1 36.7 530.2 36.8 530.4 36.9 C 530.5 37 530.7 37.1 531 37.1 C 531 37.1 531 37.1 531 37.1 Z M 536.5 37.1 C 536.7 37.1 537 37 537.3 37 C 537.3 37 537.5 38.5 537.5 38.5 C 537.1 38.6 536.6 38.7 536.2 38.7 C 535.6 38.7 535.1 38.6 534.7 38.4 C 534.4 38.2 534.1 37.9 534 37.6 C 533.9 37.3 533.8 36.6 533.8 35.5 C 533.78 35.52 533.8 29.6 533.8 29.6 L 532.5 29.6 L 532.5 28.2 L 533.8 28.2 L 533.8 25.6 L 535.5 24.6 L 535.5 28.2 L 537.3 28.2 L 537.3 29.6 L 535.5 29.6 C 535.5 29.6 535.53 35.62 535.5 35.6 C 535.5 36.1 535.6 36.4 535.6 36.6 C 535.7 36.7 535.8 36.8 535.9 36.9 C 536.1 37 536.3 37.1 536.5 37.1 C 536.5 37.1 536.5 37.1 536.5 37.1 Z M 546.1 35.2 C 546.1 35.2 547.9 35.4 547.9 35.4 C 547.6 36.5 547.1 37.3 546.3 37.9 C 545.6 38.5 544.6 38.8 543.4 38.8 C 541.9 38.8 540.6 38.3 539.8 37.4 C 538.9 36.5 538.4 35.1 538.4 33.5 C 538.4 31.7 538.9 30.4 539.8 29.4 C 540.7 28.4 541.8 28 543.3 28 C 544.7 28 545.8 28.4 546.7 29.4 C 547.5 30.3 548 31.6 548 33.4 C 548 33.5 548 33.6 548 33.8 C 548 33.8 540.2 33.8 540.2 33.8 C 540.3 35 540.6 35.8 541.2 36.4 C 541.8 37 542.5 37.3 543.4 37.3 C 544 37.3 544.6 37.2 545 36.8 C 545.5 36.5 545.8 36 546.1 35.2 Z M 540.3 32.4 C 540.3 32.4 546.1 32.4 546.1 32.4 C 546.1 31.5 545.8 30.9 545.5 30.4 C 544.9 29.7 544.2 29.4 543.3 29.4 C 542.5 29.4 541.8 29.7 541.3 30.2 C 540.7 30.8 540.4 31.5 540.3 32.4 Z M 550.1 38.6 L 550.1 28.2 L 551.7 28.2 C 551.7 28.2 551.7 29.76 551.7 29.8 C 552.1 29 552.5 28.5 552.8 28.3 C 553.2 28.1 553.5 28 553.9 28 C 554.5 28 555.1 28.1 555.8 28.5 C 555.8 28.5 555.1 30.2 555.1 30.2 C 554.7 29.9 554.3 29.8 553.9 29.8 C 553.5 29.8 553.1 29.9 552.8 30.1 C 552.5 30.3 552.3 30.7 552.2 31.1 C 552 31.7 551.9 32.4 551.9 33.1 C 551.88 33.13 551.9 38.6 551.9 38.6 L 550.1 38.6 Z M 557.9 42.8 C 557.5 42.8 557.1 42.7 556.7 42.6 C 556.7 42.6 556.5 40.9 556.5 40.9 C 556.9 41 557.2 41.1 557.5 41.1 C 557.9 41.1 558.2 41 558.5 40.9 C 558.7 40.7 558.9 40.6 559 40.3 C 559.2 40.1 559.3 39.7 559.6 39 C 559.6 38.9 559.7 38.8 559.7 38.6 C 559.74 38.58 555.8 28.2 555.8 28.2 L 557.7 28.2 C 557.7 28.2 559.85 34.2 559.9 34.2 C 560.1 35 560.4 35.8 560.6 36.6 C 560.8 35.8 561 35 561.3 34.2 C 561.33 34.23 563.5 28.2 563.5 28.2 L 565.3 28.2 C 565.3 28.2 561.36 38.74 561.4 38.7 C 560.9 39.9 560.6 40.7 560.4 41.1 C 560.1 41.7 559.7 42.1 559.3 42.4 C 558.9 42.6 558.4 42.8 557.9 42.8 C 557.9 42.8 557.9 42.8 557.9 42.8 Z M 571.7 35.5 C 571.7 35.5 573.4 35.2 573.4 35.2 C 573.5 35.9 573.8 36.4 574.2 36.8 C 574.6 37.2 575.3 37.3 576.1 37.3 C 576.9 37.3 577.5 37.2 577.9 36.9 C 578.3 36.5 578.5 36.1 578.5 35.7 C 578.5 35.3 578.3 35 577.9 34.8 C 577.7 34.6 577.1 34.4 576.1 34.2 C 574.9 33.8 574 33.6 573.5 33.3 C 573 33.1 572.6 32.8 572.3 32.3 C 572.1 31.9 571.9 31.5 571.9 30.9 C 571.9 30.5 572 30.1 572.3 29.7 C 572.5 29.3 572.8 28.9 573.1 28.7 C 573.4 28.5 573.8 28.3 574.2 28.2 C 574.7 28 575.2 28 575.8 28 C 576.6 28 577.3 28.1 577.9 28.3 C 578.5 28.5 579 28.9 579.3 29.3 C 579.6 29.7 579.8 30.2 579.9 30.9 C 579.9 30.9 578.2 31.1 578.2 31.1 C 578.1 30.6 577.8 30.1 577.5 29.8 C 577.1 29.6 576.6 29.4 575.9 29.4 C 575.1 29.4 574.5 29.5 574.2 29.8 C 573.8 30.1 573.6 30.4 573.6 30.7 C 573.6 31 573.7 31.2 573.9 31.4 C 574 31.5 574.2 31.7 574.5 31.8 C 574.7 31.9 575.2 32 576.1 32.3 C 577.3 32.6 578.2 32.9 578.7 33.1 C 579.2 33.3 579.6 33.6 579.8 34 C 580.1 34.4 580.3 34.9 580.3 35.5 C 580.3 36.1 580.1 36.7 579.8 37.2 C 579.4 37.7 578.9 38.1 578.3 38.4 C 577.6 38.7 576.9 38.8 576.1 38.8 C 574.7 38.8 573.7 38.5 573 38 C 572.3 37.4 571.8 36.6 571.7 35.5 Z M 585.4 37.1 C 585.6 37.1 585.9 37 586.2 37 C 586.2 37 586.4 38.5 586.4 38.5 C 586 38.6 585.5 38.7 585.1 38.7 C 584.5 38.7 584 38.6 583.6 38.4 C 583.3 38.2 583 37.9 582.9 37.6 C 582.7 37.3 582.7 36.6 582.7 35.5 C 582.68 35.52 582.7 29.6 582.7 29.6 L 581.4 29.6 L 581.4 28.2 L 582.7 28.2 L 582.7 25.6 L 584.4 24.6 L 584.4 28.2 L 586.2 28.2 L 586.2 29.6 L 584.4 29.6 C 584.4 29.6 584.42 35.62 584.4 35.6 C 584.4 36.1 584.5 36.4 584.5 36.6 C 584.6 36.7 584.7 36.8 584.8 36.9 C 585 37 585.2 37.1 585.4 37.1 C 585.4 37.1 585.4 37.1 585.4 37.1 Z M 587.3 33.4 C 587.3 31.5 587.8 30 588.9 29.1 C 589.7 28.3 590.8 28 592.1 28 C 593.5 28 594.7 28.4 595.6 29.4 C 596.5 30.3 597 31.6 597 33.2 C 597 34.6 596.8 35.6 596.4 36.4 C 596 37.1 595.4 37.7 594.6 38.2 C 593.9 38.6 593 38.8 592.1 38.8 C 590.7 38.8 589.5 38.3 588.6 37.4 C 587.7 36.5 587.3 35.1 587.3 33.4 Z M 589.1 33.4 C 589.1 34.7 589.4 35.7 589.9 36.4 C 590.5 37 591.2 37.3 592.1 37.3 C 593 37.3 593.7 37 594.3 36.4 C 594.9 35.7 595.2 34.7 595.2 33.3 C 595.2 32 594.9 31.1 594.3 30.4 C 593.7 29.7 593 29.4 592.1 29.4 C 591.2 29.4 590.5 29.7 589.9 30.4 C 589.4 31.1 589.1 32 589.1 33.4 Z M 599 38.6 L 599 28.2 L 600.6 28.2 C 600.6 28.2 600.6 29.76 600.6 29.8 C 601 29 601.4 28.5 601.7 28.3 C 602.1 28.1 602.4 28 602.8 28 C 603.4 28 604 28.1 604.6 28.5 C 604.6 28.5 604 30.2 604 30.2 C 603.6 29.9 603.2 29.8 602.8 29.8 C 602.4 29.8 602 29.9 601.7 30.1 C 601.4 30.3 601.2 30.7 601.1 31.1 C 600.9 31.7 600.8 32.4 600.8 33.1 C 600.77 33.13 600.8 38.6 600.8 38.6 L 599 38.6 Z M 612.8 38.6 C 612.6 38.2 612.5 37.8 612.5 37.3 C 611.8 37.8 611.2 38.2 610.6 38.5 C 610 38.7 609.3 38.8 608.6 38.8 C 607.5 38.8 606.6 38.5 606 38 C 605.4 37.4 605.1 36.7 605.1 35.8 C 605.1 35.3 605.2 34.9 605.4 34.4 C 605.7 34 606 33.7 606.4 33.4 C 606.7 33.2 607.1 33 607.6 32.8 C 608 32.8 608.5 32.7 609.2 32.6 C 610.6 32.4 611.6 32.2 612.3 32 C 612.3 31.7 612.3 31.6 612.3 31.5 C 612.3 30.8 612.2 30.3 611.8 30 C 611.4 29.6 610.7 29.4 609.8 29.4 C 609 29.4 608.4 29.6 608 29.8 C 607.6 30.1 607.3 30.6 607.1 31.4 C 607.1 31.4 605.4 31.1 605.4 31.1 C 605.6 30.4 605.8 29.8 606.2 29.4 C 606.5 28.9 607 28.6 607.7 28.3 C 608.4 28.1 609.2 28 610.1 28 C 611 28 611.7 28.1 612.2 28.3 C 612.8 28.5 613.2 28.7 613.5 29.1 C 613.7 29.4 613.9 29.8 614 30.3 C 614.1 30.5 614.1 31.1 614.1 31.9 C 614.1 31.9 614.1 34.2 614.1 34.2 C 614.1 35.8 614.1 36.9 614.2 37.3 C 614.3 37.7 614.4 38.2 614.6 38.6 C 614.65 38.56 612.8 38.6 612.8 38.6 C 612.8 38.6 612.81 38.56 612.8 38.6 Z M 612.3 33.4 C 611.7 33.6 610.7 33.8 609.4 34 C 608.7 34.1 608.2 34.2 607.9 34.4 C 607.6 34.5 607.4 34.7 607.2 34.9 C 607.1 35.2 607 35.5 607 35.8 C 607 36.2 607.1 36.6 607.5 36.9 C 607.9 37.3 608.4 37.4 609.1 37.4 C 609.7 37.4 610.3 37.3 610.9 37 C 611.4 36.7 611.8 36.3 612 35.8 C 612.2 35.4 612.3 34.8 612.3 34 C 612.3 34 612.3 33.4 612.3 33.4 Z M 616.5 39.4 C 616.5 39.4 618.2 39.7 618.2 39.7 C 618.3 40.2 618.5 40.6 618.8 40.8 C 619.2 41.2 619.8 41.3 620.6 41.3 C 621.4 41.3 622 41.2 622.5 40.8 C 622.9 40.5 623.2 40 623.4 39.5 C 623.5 39.1 623.5 38.3 623.5 37.2 C 622.7 38.1 621.8 38.6 620.6 38.6 C 619.2 38.6 618.1 38 617.3 37 C 616.5 36 616.1 34.8 616.1 33.3 C 616.1 32.3 616.3 31.4 616.7 30.6 C 617 29.7 617.6 29.1 618.2 28.6 C 618.9 28.2 619.7 28 620.6 28 C 621.9 28 622.9 28.4 623.7 29.4 C 623.66 29.44 623.7 28.2 623.7 28.2 L 625.3 28.2 C 625.3 28.2 625.28 37.15 625.3 37.2 C 625.3 38.8 625.1 39.9 624.8 40.6 C 624.5 41.3 623.9 41.8 623.2 42.2 C 622.5 42.6 621.6 42.8 620.6 42.8 C 619.4 42.8 618.4 42.5 617.6 41.9 C 616.8 41.4 616.5 40.5 616.5 39.4 Z M 617.9 33.2 C 617.9 34.6 618.2 35.5 618.8 36.2 C 619.3 36.8 620 37.1 620.8 37.1 C 621.6 37.1 622.3 36.8 622.8 36.2 C 623.4 35.6 623.6 34.6 623.6 33.2 C 623.6 32 623.4 31 622.8 30.4 C 622.2 29.7 621.6 29.4 620.8 29.4 C 620 29.4 619.3 29.7 618.8 30.4 C 618.2 31 617.9 31.9 617.9 33.2 Z M 635 35.2 C 635 35.2 636.9 35.4 636.9 35.4 C 636.6 36.5 636 37.3 635.3 37.9 C 634.5 38.5 633.5 38.8 632.3 38.8 C 630.8 38.8 629.6 38.3 628.7 37.4 C 627.8 36.5 627.4 35.1 627.4 33.5 C 627.4 31.7 627.8 30.4 628.7 29.4 C 629.6 28.4 630.8 28 632.2 28 C 633.6 28 634.7 28.4 635.6 29.4 C 636.5 30.3 636.9 31.6 636.9 33.4 C 636.9 33.5 636.9 33.6 636.9 33.8 C 636.9 33.8 629.2 33.8 629.2 33.8 C 629.2 35 629.6 35.8 630.1 36.4 C 630.7 37 631.4 37.3 632.3 37.3 C 632.9 37.3 633.5 37.2 634 36.8 C 634.4 36.5 634.8 36 635 35.2 Z M 629.3 32.4 C 629.3 32.4 635.1 32.4 635.1 32.4 C 635 31.5 634.8 30.9 634.4 30.4 C 633.8 29.7 633.1 29.4 632.2 29.4 C 631.4 29.4 630.7 29.7 630.2 30.2 C 629.6 30.8 629.3 31.5 629.3 32.4 Z M 644.6 42.5 L 644.6 28.2 L 646.2 28.2 C 646.2 28.2 646.22 29.54 646.2 29.5 C 646.6 29 647 28.6 647.5 28.4 C 648 28.1 648.6 28 649.2 28 C 650.1 28 650.9 28.2 651.6 28.6 C 652.2 29.1 652.8 29.7 653.1 30.6 C 653.5 31.4 653.6 32.3 653.6 33.3 C 653.6 34.4 653.4 35.3 653.1 36.2 C 652.7 37 652.1 37.7 651.4 38.1 C 650.7 38.6 649.9 38.8 649.1 38.8 C 648.5 38.8 648 38.7 647.5 38.4 C 647.1 38.2 646.7 37.9 646.4 37.5 C 646.38 37.49 646.4 42.5 646.4 42.5 L 644.6 42.5 Z M 646.2 33.4 C 646.2 34.8 646.5 35.8 647 36.4 C 647.6 37 648.2 37.3 649 37.3 C 649.8 37.3 650.4 37 651 36.4 C 651.5 35.7 651.8 34.7 651.8 33.3 C 651.8 32 651.6 31 651 30.3 C 650.5 29.7 649.8 29.3 649.1 29.3 C 648.3 29.3 647.7 29.7 647.1 30.4 C 646.5 31.1 646.2 32.1 646.2 33.4 Z M 655.7 38.6 L 655.7 28.2 L 657.3 28.2 C 657.3 28.2 657.3 29.76 657.3 29.8 C 657.7 29 658.1 28.5 658.4 28.3 C 658.8 28.1 659.1 28 659.6 28 C 660.1 28 660.7 28.1 661.4 28.5 C 661.4 28.5 660.8 30.2 660.8 30.2 C 660.3 29.9 659.9 29.8 659.5 29.8 C 659.1 29.8 658.7 29.9 658.4 30.1 C 658.1 30.3 657.9 30.7 657.8 31.1 C 657.6 31.7 657.5 32.4 657.5 33.1 C 657.48 33.13 657.5 38.6 657.5 38.6 L 655.7 38.6 Z M 661.7 33.4 C 661.7 31.5 662.3 30 663.3 29.1 C 664.2 28.3 665.3 28 666.6 28 C 668 28 669.2 28.4 670.1 29.4 C 671 30.3 671.5 31.6 671.5 33.2 C 671.5 34.6 671.3 35.6 670.9 36.4 C 670.5 37.1 669.9 37.7 669.1 38.2 C 668.4 38.6 667.5 38.8 666.6 38.8 C 665.2 38.8 664 38.3 663.1 37.4 C 662.2 36.5 661.7 35.1 661.7 33.4 Z M 663.6 33.4 C 663.6 34.7 663.8 35.7 664.4 36.4 C 665 37 665.7 37.3 666.6 37.3 C 667.5 37.3 668.2 37 668.8 36.4 C 669.4 35.7 669.7 34.7 669.7 33.3 C 669.7 32 669.4 31.1 668.8 30.4 C 668.2 29.7 667.5 29.4 666.6 29.4 C 665.7 29.4 665 29.7 664.4 30.4 C 663.8 31.1 663.6 32 663.6 33.4 Z M 673.5 26.3 L 673.5 24.2 L 675.3 24.2 L 675.3 26.3 L 673.5 26.3 Z M 672.7 42.8 C 672.2 42.8 671.7 42.7 671.3 42.6 C 671.3 42.6 671.6 41.1 671.6 41.1 C 672 41.2 672.2 41.2 672.5 41.2 C 672.8 41.2 673.1 41.1 673.3 40.9 C 673.4 40.6 673.5 40 673.5 39.1 C 673.52 39.09 673.5 28.2 673.5 28.2 L 675.3 28.2 C 675.3 28.2 675.27 39.13 675.3 39.1 C 675.3 40.4 675.1 41.3 674.8 41.8 C 674.4 42.4 673.6 42.8 672.7 42.8 C 672.7 42.8 672.7 42.8 672.7 42.8 Z M 685.1 35.2 C 685.1 35.2 686.9 35.4 686.9 35.4 C 686.6 36.5 686.1 37.3 685.3 37.9 C 684.5 38.5 683.5 38.8 682.3 38.8 C 680.8 38.8 679.6 38.3 678.7 37.4 C 677.8 36.5 677.4 35.1 677.4 33.5 C 677.4 31.7 677.8 30.4 678.7 29.4 C 679.6 28.4 680.8 28 682.2 28 C 683.6 28 684.7 28.4 685.6 29.4 C 686.5 30.3 686.9 31.6 686.9 33.4 C 686.9 33.5 686.9 33.6 686.9 33.8 C 686.9 33.8 679.2 33.8 679.2 33.8 C 679.3 35 679.6 35.8 680.2 36.4 C 680.7 37 681.5 37.3 682.3 37.3 C 683 37.3 683.5 37.2 684 36.8 C 684.4 36.5 684.8 36 685.1 35.2 Z M 679.3 32.4 C 679.3 32.4 685.1 32.4 685.1 32.4 C 685 31.5 684.8 30.9 684.4 30.4 C 683.9 29.7 683.1 29.4 682.2 29.4 C 681.4 29.4 680.8 29.7 680.2 30.2 C 679.7 30.8 679.4 31.5 679.3 32.4 Z M 695.9 34.8 C 695.9 34.8 697.6 35 697.6 35 C 697.4 36.2 696.9 37.1 696.1 37.8 C 695.4 38.5 694.4 38.8 693.3 38.8 C 691.9 38.8 690.7 38.3 689.8 37.4 C 689 36.5 688.6 35.1 688.6 33.4 C 688.6 32.3 688.7 31.3 689.1 30.5 C 689.5 29.6 690 29 690.8 28.6 C 691.6 28.2 692.4 28 693.3 28 C 694.4 28 695.3 28.2 696 28.8 C 696.8 29.4 697.2 30.2 697.4 31.2 C 697.4 31.2 695.7 31.5 695.7 31.5 C 695.6 30.8 695.3 30.3 694.8 29.9 C 694.4 29.6 693.9 29.4 693.3 29.4 C 692.5 29.4 691.7 29.7 691.2 30.4 C 690.6 31 690.4 32 690.4 33.4 C 690.4 34.8 690.6 35.8 691.2 36.4 C 691.7 37 692.4 37.3 693.3 37.3 C 693.9 37.3 694.5 37.1 695 36.7 C 695.4 36.3 695.7 35.6 695.9 34.8 Z M 702.2 37.1 C 702.4 37.1 702.6 37 702.9 37 C 702.9 37 703.2 38.5 703.2 38.5 C 702.7 38.6 702.2 38.7 701.9 38.7 C 701.2 38.7 700.7 38.6 700.4 38.4 C 700 38.2 699.8 37.9 699.6 37.6 C 699.5 37.3 699.4 36.6 699.4 35.5 C 699.41 35.52 699.4 29.6 699.4 29.6 L 698.1 29.6 L 698.1 28.2 L 699.4 28.2 L 699.4 25.6 L 701.2 24.6 L 701.2 28.2 L 702.9 28.2 L 702.9 29.6 L 701.2 29.6 C 701.2 29.6 701.16 35.62 701.2 35.6 C 701.2 36.1 701.2 36.4 701.3 36.6 C 701.3 36.7 701.4 36.8 701.6 36.9 C 701.7 37 701.9 37.1 702.2 37.1 C 702.2 37.1 702.2 37.1 702.2 37.1 Z M 705.1 38.6 L 705.1 36.6 L 707.1 36.6 L 707.1 38.6 L 705.1 38.6 Z " stroke="none" fill="#54626c"/>
  </g>
  <g id="Polygon58838">
    <path d="M 1.6 14.6 L 1.6 0.2 C 1.6 0.2 7.92 0.24 7.9 0.2 C 9.2 0.2 10.2 0.4 10.8 0.6 C 11.5 0.9 12 1.3 12.4 2 C 12.8 2.6 13 3.4 13 4.2 C 13 5.2 12.7 6 12 6.7 C 11.4 7.4 10.4 7.9 9 8 C 9.5 8.3 9.9 8.5 10.1 8.8 C 10.7 9.3 11.2 9.9 11.7 10.7 C 11.7 10.66 14.2 14.6 14.2 14.6 L 11.8 14.6 C 11.8 14.6 9.91 11.58 9.9 11.6 C 9.4 10.7 8.9 10.1 8.5 9.6 C 8.2 9.2 7.9 8.8 7.6 8.7 C 7.3 8.5 7 8.3 6.7 8.3 C 6.5 8.2 6.2 8.2 5.7 8.2 C 5.66 8.2 3.5 8.2 3.5 8.2 L 3.5 14.6 L 1.6 14.6 Z M 3.5 6.6 C 3.5 6.6 7.54 6.56 7.5 6.6 C 8.4 6.6 9.1 6.5 9.6 6.3 C 10.1 6.1 10.4 5.8 10.7 5.4 C 10.9 5 11.1 4.6 11.1 4.2 C 11.1 3.5 10.8 2.9 10.3 2.5 C 9.8 2 9.1 1.8 8 1.8 C 8 1.83 3.5 1.8 3.5 1.8 L 3.5 6.6 Z M 22.9 11.2 C 22.9 11.2 24.7 11.4 24.7 11.4 C 24.4 12.5 23.9 13.3 23.1 13.9 C 22.3 14.5 21.3 14.8 20.1 14.8 C 18.6 14.8 17.4 14.3 16.5 13.4 C 15.6 12.5 15.2 11.1 15.2 9.5 C 15.2 7.7 15.6 6.4 16.5 5.4 C 17.4 4.4 18.6 4 20 4 C 21.4 4 22.5 4.4 23.4 5.4 C 24.3 6.3 24.7 7.6 24.7 9.4 C 24.7 9.5 24.7 9.6 24.7 9.8 C 24.7 9.8 17 9.8 17 9.8 C 17.1 11 17.4 11.8 18 12.4 C 18.5 13 19.3 13.3 20.1 13.3 C 20.8 13.3 21.3 13.2 21.8 12.8 C 22.2 12.5 22.6 12 22.9 11.2 Z M 17.1 8.4 C 17.1 8.4 22.9 8.4 22.9 8.4 C 22.8 7.5 22.6 6.9 22.2 6.4 C 21.7 5.7 20.9 5.4 20 5.4 C 19.2 5.4 18.6 5.7 18 6.2 C 17.5 6.8 17.1 7.5 17.1 8.4 Z M 26.9 18.5 L 26.9 4.2 L 28.5 4.2 C 28.5 4.2 28.49 5.54 28.5 5.5 C 28.9 5 29.3 4.6 29.8 4.4 C 30.2 4.1 30.8 4 31.5 4 C 32.4 4 33.2 4.2 33.8 4.6 C 34.5 5.1 35 5.7 35.4 6.6 C 35.7 7.4 35.9 8.3 35.9 9.3 C 35.9 10.4 35.7 11.3 35.3 12.2 C 34.9 13 34.4 13.7 33.7 14.1 C 32.9 14.6 32.2 14.8 31.4 14.8 C 30.8 14.8 30.3 14.7 29.8 14.4 C 29.3 14.2 28.9 13.9 28.6 13.5 C 28.64 13.49 28.6 18.5 28.6 18.5 L 26.9 18.5 Z M 28.5 9.4 C 28.5 10.8 28.7 11.8 29.3 12.4 C 29.8 13 30.5 13.3 31.3 13.3 C 32 13.3 32.7 13 33.3 12.4 C 33.8 11.7 34.1 10.7 34.1 9.3 C 34.1 8 33.8 7 33.3 6.3 C 32.7 5.7 32.1 5.3 31.3 5.3 C 30.6 5.3 29.9 5.7 29.3 6.4 C 28.8 7.1 28.5 8.1 28.5 9.4 Z M 38 14.6 L 38 4.2 L 39.6 4.2 C 39.6 4.2 39.57 5.76 39.6 5.8 C 40 5 40.3 4.5 40.7 4.3 C 41 4.1 41.4 4 41.8 4 C 42.4 4 43 4.1 43.6 4.5 C 43.6 4.5 43 6.2 43 6.2 C 42.6 5.9 42.2 5.8 41.7 5.8 C 41.3 5.8 41 5.9 40.7 6.1 C 40.4 6.3 40.2 6.7 40 7.1 C 39.8 7.7 39.7 8.4 39.7 9.1 C 39.75 9.13 39.7 14.6 39.7 14.6 L 38 14.6 Z M 51.8 11.2 C 51.8 11.2 53.6 11.4 53.6 11.4 C 53.3 12.5 52.8 13.3 52 13.9 C 51.2 14.5 50.2 14.8 49 14.8 C 47.5 14.8 46.3 14.3 45.4 13.4 C 44.5 12.5 44.1 11.1 44.1 9.5 C 44.1 7.7 44.5 6.4 45.4 5.4 C 46.3 4.4 47.5 4 48.9 4 C 50.3 4 51.4 4.4 52.3 5.4 C 53.2 6.3 53.6 7.6 53.6 9.4 C 53.6 9.5 53.6 9.6 53.6 9.8 C 53.6 9.8 45.9 9.8 45.9 9.8 C 46 11 46.3 11.8 46.9 12.4 C 47.4 13 48.2 13.3 49 13.3 C 49.7 13.3 50.2 13.2 50.7 12.8 C 51.1 12.5 51.5 12 51.8 11.2 Z M 46 8.4 C 46 8.4 51.8 8.4 51.8 8.4 C 51.7 7.5 51.5 6.9 51.1 6.4 C 50.6 5.7 49.8 5.4 48.9 5.4 C 48.1 5.4 47.5 5.7 46.9 6.2 C 46.4 6.8 46.1 7.5 46 8.4 Z M 55.1 11.5 C 55.1 11.5 56.8 11.2 56.8 11.2 C 56.9 11.9 57.2 12.4 57.6 12.8 C 58.1 13.2 58.7 13.3 59.5 13.3 C 60.3 13.3 60.9 13.2 61.3 12.9 C 61.7 12.5 61.9 12.1 61.9 11.7 C 61.9 11.3 61.7 11 61.4 10.8 C 61.1 10.6 60.5 10.4 59.6 10.2 C 58.3 9.8 57.4 9.6 56.9 9.3 C 56.4 9.1 56 8.8 55.8 8.3 C 55.5 7.9 55.4 7.5 55.4 6.9 C 55.4 6.5 55.5 6.1 55.7 5.7 C 55.9 5.3 56.2 4.9 56.6 4.7 C 56.8 4.5 57.2 4.3 57.7 4.2 C 58.2 4 58.7 4 59.2 4 C 60 4 60.7 4.1 61.3 4.3 C 62 4.5 62.4 4.9 62.7 5.3 C 63 5.7 63.2 6.2 63.3 6.9 C 63.3 6.9 61.6 7.1 61.6 7.1 C 61.5 6.6 61.3 6.1 60.9 5.8 C 60.5 5.6 60 5.4 59.3 5.4 C 58.5 5.4 57.9 5.5 57.6 5.8 C 57.3 6.1 57.1 6.4 57.1 6.7 C 57.1 7 57.2 7.2 57.3 7.4 C 57.4 7.5 57.7 7.7 58 7.8 C 58.1 7.9 58.7 8 59.5 8.3 C 60.8 8.6 61.6 8.9 62.1 9.1 C 62.6 9.3 63 9.6 63.3 10 C 63.6 10.4 63.7 10.9 63.7 11.5 C 63.7 12.1 63.5 12.7 63.2 13.2 C 62.8 13.7 62.4 14.1 61.7 14.4 C 61.1 14.7 60.3 14.8 59.5 14.8 C 58.2 14.8 57.1 14.5 56.4 14 C 55.7 13.4 55.3 12.6 55.1 11.5 Z M 72.9 11.2 C 72.9 11.2 74.7 11.4 74.7 11.4 C 74.4 12.5 73.9 13.3 73.1 13.9 C 72.3 14.5 71.4 14.8 70.1 14.8 C 68.6 14.8 67.4 14.3 66.5 13.4 C 65.6 12.5 65.2 11.1 65.2 9.5 C 65.2 7.7 65.7 6.4 66.6 5.4 C 67.5 4.4 68.6 4 70 4 C 71.4 4 72.6 4.4 73.4 5.4 C 74.3 6.3 74.8 7.6 74.8 9.4 C 74.8 9.5 74.8 9.6 74.8 9.8 C 74.8 9.8 67 9.8 67 9.8 C 67.1 11 67.4 11.8 68 12.4 C 68.6 13 69.3 13.3 70.2 13.3 C 70.8 13.3 71.4 13.2 71.8 12.8 C 72.3 12.5 72.6 12 72.9 11.2 Z M 67.1 8.4 C 67.1 8.4 72.9 8.4 72.9 8.4 C 72.8 7.5 72.6 6.9 72.2 6.4 C 71.7 5.7 71 5.4 70.1 5.4 C 69.3 5.4 68.6 5.7 68 6.2 C 67.5 6.8 67.2 7.5 67.1 8.4 Z M 76.9 14.6 L 76.9 4.2 L 78.5 4.2 C 78.5 4.2 78.5 5.66 78.5 5.7 C 79.3 4.5 80.4 4 81.8 4 C 82.4 4 83 4.1 83.5 4.3 C 84 4.5 84.4 4.8 84.7 5.2 C 85 5.5 85.1 6 85.2 6.5 C 85.3 6.8 85.3 7.4 85.3 8.2 C 85.34 8.18 85.3 14.6 85.3 14.6 L 83.6 14.6 C 83.6 14.6 83.58 8.25 83.6 8.3 C 83.6 7.5 83.5 7 83.4 6.6 C 83.2 6.3 83 6 82.7 5.8 C 82.3 5.6 81.9 5.5 81.4 5.5 C 80.7 5.5 80 5.7 79.5 6.2 C 78.9 6.7 78.7 7.6 78.7 8.9 C 78.67 8.9 78.7 14.6 78.7 14.6 L 76.9 14.6 Z M 91.1 13.1 C 91.3 13.1 91.6 13 91.9 13 C 91.9 13 92.1 14.5 92.1 14.5 C 91.6 14.6 91.2 14.7 90.8 14.7 C 90.2 14.7 89.7 14.6 89.3 14.4 C 89 14.2 88.7 13.9 88.6 13.6 C 88.4 13.3 88.4 12.6 88.4 11.5 C 88.36 11.52 88.4 5.6 88.4 5.6 L 87.1 5.6 L 87.1 4.2 L 88.4 4.2 L 88.4 1.6 L 90.1 0.6 L 90.1 4.2 L 91.9 4.2 L 91.9 5.6 L 90.1 5.6 C 90.1 5.6 90.11 11.62 90.1 11.6 C 90.1 12.1 90.1 12.4 90.2 12.6 C 90.3 12.7 90.4 12.8 90.5 12.9 C 90.6 13 90.8 13.1 91.1 13.1 C 91.1 13.1 91.1 13.1 91.1 13.1 Z M 100.7 11.2 C 100.7 11.2 102.5 11.4 102.5 11.4 C 102.2 12.5 101.7 13.3 100.9 13.9 C 100.1 14.5 99.2 14.8 97.9 14.8 C 96.4 14.8 95.2 14.3 94.3 13.4 C 93.5 12.5 93 11.1 93 9.5 C 93 7.7 93.5 6.4 94.4 5.4 C 95.3 4.4 96.4 4 97.9 4 C 99.2 4 100.4 4.4 101.3 5.4 C 102.1 6.3 102.6 7.6 102.6 9.4 C 102.6 9.5 102.6 9.6 102.6 9.8 C 102.6 9.8 94.8 9.8 94.8 9.8 C 94.9 11 95.2 11.8 95.8 12.4 C 96.4 13 97.1 13.3 98 13.3 C 98.6 13.3 99.2 13.2 99.6 12.8 C 100.1 12.5 100.4 12 100.7 11.2 Z M 94.9 8.4 C 94.9 8.4 100.7 8.4 100.7 8.4 C 100.6 7.5 100.4 6.9 100 6.4 C 99.5 5.7 98.8 5.4 97.9 5.4 C 97.1 5.4 96.4 5.7 95.8 6.2 C 95.3 6.8 95 7.5 94.9 8.4 Z M 111.4 14.6 C 111.4 14.6 111.45 13.25 111.4 13.3 C 110.8 14.3 109.8 14.8 108.5 14.8 C 107.7 14.8 107 14.6 106.3 14.1 C 105.6 13.7 105 13 104.7 12.2 C 104.3 11.4 104.1 10.4 104.1 9.4 C 104.1 8.3 104.3 7.4 104.6 6.6 C 104.9 5.7 105.5 5.1 106.2 4.6 C 106.8 4.2 107.6 4 108.5 4 C 109.1 4 109.6 4.1 110.1 4.4 C 110.6 4.6 111 5 111.3 5.4 C 111.33 5.38 111.3 0.2 111.3 0.2 L 113.1 0.2 L 113.1 14.6 L 111.4 14.6 Z M 105.9 9.4 C 105.9 10.7 106.2 11.7 106.7 12.4 C 107.3 13 107.9 13.3 108.7 13.3 C 109.5 13.3 110.1 13 110.7 12.4 C 111.2 11.8 111.5 10.8 111.5 9.5 C 111.5 8.1 111.2 7.1 110.7 6.4 C 110.1 5.7 109.4 5.4 108.6 5.4 C 107.9 5.4 107.2 5.7 106.7 6.4 C 106.2 7 105.9 8 105.9 9.4 Z M 124.5 13.1 C 124.7 13.1 124.9 13 125.2 13 C 125.2 13 125.5 14.5 125.5 14.5 C 125 14.6 124.6 14.7 124.2 14.7 C 123.5 14.7 123 14.6 122.7 14.4 C 122.3 14.2 122.1 13.9 121.9 13.6 C 121.8 13.3 121.7 12.6 121.7 11.5 C 121.72 11.52 121.7 5.6 121.7 5.6 L 120.4 5.6 L 120.4 4.2 L 121.7 4.2 L 121.7 1.6 L 123.5 0.6 L 123.5 4.2 L 125.2 4.2 L 125.2 5.6 L 123.5 5.6 C 123.5 5.6 123.47 11.62 123.5 11.6 C 123.5 12.1 123.5 12.4 123.6 12.6 C 123.6 12.7 123.7 12.8 123.9 12.9 C 124 13 124.2 13.1 124.5 13.1 C 124.5 13.1 124.5 13.1 124.5 13.1 Z M 127 14.6 L 127 0.2 L 128.7 0.2 C 128.7 0.2 128.71 5.38 128.7 5.4 C 129.5 4.4 130.6 4 131.8 4 C 132.6 4 133.3 4.1 133.8 4.4 C 134.4 4.7 134.8 5.1 135 5.7 C 135.3 6.2 135.4 7 135.4 8 C 135.4 7.99 135.4 14.6 135.4 14.6 L 133.6 14.6 C 133.6 14.6 133.64 7.99 133.6 8 C 133.6 7.1 133.5 6.5 133.1 6.1 C 132.7 5.7 132.2 5.5 131.5 5.5 C 130.9 5.5 130.4 5.6 130 5.9 C 129.5 6.1 129.2 6.5 129 7 C 128.8 7.4 128.7 8.1 128.7 8.9 C 128.71 8.89 128.7 14.6 128.7 14.6 L 127 14.6 Z M 145.2 11.2 C 145.2 11.2 147 11.4 147 11.4 C 146.7 12.5 146.2 13.3 145.4 13.9 C 144.6 14.5 143.6 14.8 142.4 14.8 C 140.9 14.8 139.7 14.3 138.8 13.4 C 137.9 12.5 137.5 11.1 137.5 9.5 C 137.5 7.7 137.9 6.4 138.8 5.4 C 139.7 4.4 140.9 4 142.3 4 C 143.7 4 144.9 4.4 145.7 5.4 C 146.6 6.3 147.1 7.6 147.1 9.4 C 147.1 9.5 147 9.6 147 9.8 C 147 9.8 139.3 9.8 139.3 9.8 C 139.4 11 139.7 11.8 140.3 12.4 C 140.9 13 141.6 13.3 142.4 13.3 C 143.1 13.3 143.6 13.2 144.1 12.8 C 144.5 12.5 144.9 12 145.2 11.2 Z M 139.4 8.4 C 139.4 8.4 145.2 8.4 145.2 8.4 C 145.1 7.5 144.9 6.9 144.5 6.4 C 144 5.7 143.2 5.4 142.4 5.4 C 141.5 5.4 140.9 5.7 140.3 6.2 C 139.8 6.8 139.5 7.5 139.4 8.4 Z M 154.1 11.5 C 154.1 11.5 155.8 11.2 155.8 11.2 C 155.9 11.9 156.2 12.4 156.6 12.8 C 157.1 13.2 157.7 13.3 158.5 13.3 C 159.3 13.3 159.9 13.2 160.3 12.9 C 160.7 12.5 160.9 12.1 160.9 11.7 C 160.9 11.3 160.7 11 160.3 10.8 C 160.1 10.6 159.5 10.4 158.5 10.2 C 157.3 9.8 156.4 9.6 155.9 9.3 C 155.4 9.1 155 8.8 154.7 8.3 C 154.5 7.9 154.3 7.5 154.3 6.9 C 154.3 6.5 154.5 6.1 154.7 5.7 C 154.9 5.3 155.2 4.9 155.5 4.7 C 155.8 4.5 156.2 4.3 156.6 4.2 C 157.1 4 157.6 4 158.2 4 C 159 4 159.7 4.1 160.3 4.3 C 160.9 4.5 161.4 4.9 161.7 5.3 C 162 5.7 162.2 6.2 162.3 6.9 C 162.3 6.9 160.6 7.1 160.6 7.1 C 160.5 6.6 160.3 6.1 159.9 5.8 C 159.5 5.6 159 5.4 158.3 5.4 C 157.5 5.4 156.9 5.5 156.6 5.8 C 156.2 6.1 156 6.4 156 6.7 C 156 7 156.1 7.2 156.3 7.4 C 156.4 7.5 156.6 7.7 156.9 7.8 C 157.1 7.9 157.6 8 158.5 8.3 C 159.7 8.6 160.6 8.9 161.1 9.1 C 161.6 9.3 162 9.6 162.2 10 C 162.5 10.4 162.7 10.9 162.7 11.5 C 162.7 12.1 162.5 12.7 162.2 13.2 C 161.8 13.7 161.3 14.1 160.7 14.4 C 160 14.7 159.3 14.8 158.5 14.8 C 157.1 14.8 156.1 14.5 155.4 14 C 154.7 13.4 154.2 12.6 154.1 11.5 Z M 164.8 18.5 L 164.8 4.2 L 166.4 4.2 C 166.4 4.2 166.36 5.54 166.4 5.5 C 166.7 5 167.2 4.6 167.6 4.4 C 168.1 4.1 168.7 4 169.4 4 C 170.3 4 171 4.2 171.7 4.6 C 172.4 5.1 172.9 5.7 173.2 6.6 C 173.6 7.4 173.8 8.3 173.8 9.3 C 173.8 10.4 173.6 11.3 173.2 12.2 C 172.8 13 172.3 13.7 171.5 14.1 C 170.8 14.6 170 14.8 169.2 14.8 C 168.7 14.8 168.1 14.7 167.7 14.4 C 167.2 14.2 166.8 13.9 166.5 13.5 C 166.51 13.49 166.5 18.5 166.5 18.5 L 164.8 18.5 Z M 166.3 9.4 C 166.3 10.8 166.6 11.8 167.2 12.4 C 167.7 13 168.4 13.3 169.1 13.3 C 169.9 13.3 170.6 13 171.1 12.4 C 171.7 11.7 172 10.7 172 9.3 C 172 8 171.7 7 171.1 6.3 C 170.6 5.7 170 5.3 169.2 5.3 C 168.5 5.3 167.8 5.7 167.2 6.4 C 166.6 7.1 166.3 8.1 166.3 9.4 Z M 175.2 9.4 C 175.2 7.5 175.8 6 176.8 5.1 C 177.7 4.3 178.8 4 180.1 4 C 181.5 4 182.7 4.4 183.6 5.4 C 184.5 6.3 184.9 7.6 184.9 9.2 C 184.9 10.6 184.7 11.6 184.3 12.4 C 183.9 13.1 183.4 13.7 182.6 14.2 C 181.8 14.6 181 14.8 180.1 14.8 C 178.6 14.8 177.5 14.3 176.6 13.4 C 175.7 12.5 175.2 11.1 175.2 9.4 Z M 177 9.4 C 177 10.7 177.3 11.7 177.9 12.4 C 178.5 13 179.2 13.3 180.1 13.3 C 181 13.3 181.7 13 182.3 12.4 C 182.8 11.7 183.1 10.7 183.1 9.3 C 183.1 8 182.8 7.1 182.3 6.4 C 181.7 5.7 181 5.4 180.1 5.4 C 179.2 5.4 178.5 5.7 177.9 6.4 C 177.3 7.1 177 8 177 9.4 Z M 187 14.6 L 187 4.2 L 188.6 4.2 C 188.6 4.2 188.58 5.66 188.6 5.7 C 189.3 4.5 190.4 4 191.9 4 C 192.5 4 193.1 4.1 193.6 4.3 C 194.1 4.5 194.5 4.8 194.8 5.2 C 195 5.5 195.2 6 195.3 6.5 C 195.4 6.8 195.4 7.4 195.4 8.2 C 195.43 8.18 195.4 14.6 195.4 14.6 L 193.7 14.6 C 193.7 14.6 193.67 8.25 193.7 8.3 C 193.7 7.5 193.6 7 193.5 6.6 C 193.3 6.3 193.1 6 192.7 5.8 C 192.4 5.6 192 5.5 191.5 5.5 C 190.8 5.5 190.1 5.7 189.6 6.2 C 189 6.7 188.8 7.6 188.8 8.9 C 188.76 8.9 188.8 14.6 188.8 14.6 L 187 14.6 Z M 197.4 11.5 C 197.4 11.5 199.2 11.2 199.2 11.2 C 199.3 11.9 199.5 12.4 200 12.8 C 200.4 13.2 201 13.3 201.8 13.3 C 202.7 13.3 203.3 13.2 203.6 12.9 C 204 12.5 204.2 12.1 204.2 11.7 C 204.2 11.3 204.1 11 203.7 10.8 C 203.5 10.6 202.9 10.4 201.9 10.2 C 200.6 9.8 199.7 9.6 199.2 9.3 C 198.7 9.1 198.4 8.8 198.1 8.3 C 197.8 7.9 197.7 7.5 197.7 6.9 C 197.7 6.5 197.8 6.1 198 5.7 C 198.2 5.3 198.5 4.9 198.9 4.7 C 199.2 4.5 199.5 4.3 200 4.2 C 200.5 4 201 4 201.5 4 C 202.3 4 203.1 4.1 203.7 4.3 C 204.3 4.5 204.7 4.9 205 5.3 C 205.3 5.7 205.5 6.2 205.6 6.9 C 205.6 6.9 203.9 7.1 203.9 7.1 C 203.8 6.6 203.6 6.1 203.2 5.8 C 202.9 5.6 202.3 5.4 201.7 5.4 C 200.9 5.4 200.3 5.5 199.9 5.8 C 199.6 6.1 199.4 6.4 199.4 6.7 C 199.4 7 199.5 7.2 199.6 7.4 C 199.8 7.5 200 7.7 200.3 7.8 C 200.5 7.9 201 8 201.9 8.3 C 203.1 8.6 204 8.9 204.5 9.1 C 204.9 9.3 205.3 9.6 205.6 10 C 205.9 10.4 206 10.9 206 11.5 C 206 12.1 205.9 12.7 205.5 13.2 C 205.2 13.7 204.7 14.1 204 14.4 C 203.4 14.7 202.7 14.8 201.9 14.8 C 200.5 14.8 199.5 14.5 198.8 14 C 198.1 13.4 197.6 12.6 197.4 11.5 Z M 207.5 9.4 C 207.5 7.5 208 6 209.1 5.1 C 210 4.3 211.1 4 212.3 4 C 213.8 4 214.9 4.4 215.8 5.4 C 216.7 6.3 217.2 7.6 217.2 9.2 C 217.2 10.6 217 11.6 216.6 12.4 C 216.2 13.1 215.6 13.7 214.8 14.2 C 214.1 14.6 213.2 14.8 212.3 14.8 C 210.9 14.8 209.7 14.3 208.8 13.4 C 207.9 12.5 207.5 11.1 207.5 9.4 Z M 209.3 9.4 C 209.3 10.7 209.6 11.7 210.1 12.4 C 210.7 13 211.5 13.3 212.3 13.3 C 213.2 13.3 213.9 13 214.5 12.4 C 215.1 11.7 215.4 10.7 215.4 9.3 C 215.4 8 215.1 7.1 214.5 6.4 C 213.9 5.7 213.2 5.4 212.3 5.4 C 211.5 5.4 210.7 5.7 210.1 6.4 C 209.6 7.1 209.3 8 209.3 9.4 Z M 219.2 14.6 L 219.2 4.2 L 220.8 4.2 C 220.8 4.2 220.81 5.76 220.8 5.8 C 221.2 5 221.6 4.5 221.9 4.3 C 222.3 4.1 222.6 4 223.1 4 C 223.6 4 224.3 4.1 224.9 4.5 C 224.9 4.5 224.3 6.2 224.3 6.2 C 223.8 5.9 223.4 5.8 223 5.8 C 222.6 5.8 222.2 5.9 221.9 6.1 C 221.6 6.3 221.4 6.7 221.3 7.1 C 221.1 7.7 221 8.4 221 9.1 C 220.99 9.13 221 14.6 221 14.6 L 219.2 14.6 Z M 238.6 14.6 C 238.4 14.2 238.3 13.8 238.2 13.3 C 237.6 13.8 237 14.2 236.4 14.5 C 235.8 14.7 235.1 14.8 234.4 14.8 C 233.3 14.8 232.4 14.5 231.8 14 C 231.2 13.4 230.9 12.7 230.9 11.8 C 230.9 11.3 231 10.9 231.2 10.4 C 231.4 10 231.7 9.7 232.1 9.4 C 232.5 9.2 232.9 9 233.4 8.8 C 233.7 8.8 234.3 8.7 235 8.6 C 236.4 8.4 237.4 8.2 238.1 8 C 238.1 7.7 238.1 7.6 238.1 7.5 C 238.1 6.8 237.9 6.3 237.6 6 C 237.1 5.6 236.5 5.4 235.6 5.4 C 234.8 5.4 234.2 5.6 233.8 5.8 C 233.4 6.1 233.1 6.6 232.9 7.4 C 232.9 7.4 231.2 7.1 231.2 7.1 C 231.3 6.4 231.6 5.8 231.9 5.4 C 232.3 4.9 232.8 4.6 233.5 4.3 C 234.2 4.1 235 4 235.8 4 C 236.7 4 237.5 4.1 238 4.3 C 238.6 4.5 239 4.7 239.2 5.1 C 239.5 5.4 239.7 5.8 239.8 6.3 C 239.8 6.5 239.9 7.1 239.9 7.9 C 239.9 7.9 239.9 10.2 239.9 10.2 C 239.9 11.8 239.9 12.9 240 13.3 C 240.1 13.7 240.2 14.2 240.4 14.6 C 240.42 14.56 238.6 14.6 238.6 14.6 C 238.6 14.6 238.58 14.56 238.6 14.6 Z M 238.1 9.4 C 237.4 9.6 236.5 9.8 235.2 10 C 234.5 10.1 234 10.2 233.7 10.4 C 233.4 10.5 233.2 10.7 233 10.9 C 232.8 11.2 232.7 11.5 232.7 11.8 C 232.7 12.2 232.9 12.6 233.3 12.9 C 233.6 13.3 234.2 13.4 234.8 13.4 C 235.5 13.4 236.1 13.3 236.6 13 C 237.2 12.7 237.6 12.3 237.8 11.8 C 238 11.4 238.1 10.8 238.1 10 C 238.1 10 238.1 9.4 238.1 9.4 Z M 242.6 14.6 L 242.6 4.2 L 244.2 4.2 C 244.2 4.2 244.17 5.66 244.2 5.7 C 244.9 4.5 246 4 247.5 4 C 248.1 4 248.7 4.1 249.2 4.3 C 249.7 4.5 250.1 4.8 250.4 5.2 C 250.6 5.5 250.8 6 250.9 6.5 C 251 6.8 251 7.4 251 8.2 C 251.02 8.18 251 14.6 251 14.6 L 249.3 14.6 C 249.3 14.6 249.26 8.25 249.3 8.3 C 249.3 7.5 249.2 7 249.1 6.6 C 248.9 6.3 248.7 6 248.3 5.8 C 248 5.6 247.6 5.5 247.1 5.5 C 246.4 5.5 245.7 5.7 245.2 6.2 C 244.6 6.7 244.3 7.6 244.3 8.9 C 244.35 8.9 244.3 14.6 244.3 14.6 L 242.6 14.6 Z M 260.4 14.6 C 260.4 14.6 260.44 13.25 260.4 13.3 C 259.8 14.3 258.8 14.8 257.5 14.8 C 256.7 14.8 256 14.6 255.3 14.1 C 254.6 13.7 254 13 253.6 12.2 C 253.3 11.4 253.1 10.4 253.1 9.4 C 253.1 8.3 253.2 7.4 253.6 6.6 C 253.9 5.7 254.5 5.1 255.1 4.6 C 255.8 4.2 256.6 4 257.5 4 C 258.1 4 258.6 4.1 259.1 4.4 C 259.6 4.6 260 5 260.3 5.4 C 260.32 5.38 260.3 0.2 260.3 0.2 L 262.1 0.2 L 262.1 14.6 L 260.4 14.6 Z M 254.9 9.4 C 254.9 10.7 255.2 11.7 255.7 12.4 C 256.3 13 256.9 13.3 257.7 13.3 C 258.5 13.3 259.1 13 259.7 12.4 C 260.2 11.8 260.5 10.8 260.5 9.5 C 260.5 8.1 260.2 7.1 259.6 6.4 C 259.1 5.7 258.4 5.4 257.6 5.4 C 256.8 5.4 256.2 5.7 255.7 6.4 C 255.1 7 254.9 8 254.9 9.4 Z M 272 14.6 L 270.4 14.6 L 270.4 0.2 L 272.1 0.2 C 272.1 0.2 272.14 5.35 272.1 5.4 C 272.9 4.4 273.8 4 275 4 C 275.6 4 276.2 4.1 276.8 4.3 C 277.4 4.6 277.8 5 278.2 5.4 C 278.6 5.9 278.9 6.5 279.1 7.1 C 279.3 7.8 279.4 8.5 279.4 9.2 C 279.4 11 278.9 12.4 278.1 13.3 C 277.2 14.3 276.1 14.8 274.9 14.8 C 273.7 14.8 272.7 14.3 272 13.3 C 272.01 13.26 272 14.6 272 14.6 Z M 272 9.3 C 272 10.5 272.2 11.4 272.5 12 C 273.1 12.9 273.8 13.3 274.7 13.3 C 275.5 13.3 276.2 13 276.7 12.3 C 277.3 11.7 277.6 10.7 277.6 9.4 C 277.6 8 277.3 7 276.8 6.4 C 276.2 5.7 275.6 5.4 274.8 5.4 C 274.1 5.4 273.4 5.7 272.8 6.4 C 272.3 7.1 272 8 272 9.3 Z M 280.9 9.4 C 280.9 7.5 281.4 6 282.5 5.1 C 283.4 4.3 284.4 4 285.7 4 C 287.1 4 288.3 4.4 289.2 5.4 C 290.1 6.3 290.6 7.6 290.6 9.2 C 290.6 10.6 290.4 11.6 290 12.4 C 289.6 13.1 289 13.7 288.2 14.2 C 287.5 14.6 286.6 14.8 285.7 14.8 C 284.3 14.8 283.1 14.3 282.2 13.4 C 281.3 12.5 280.9 11.1 280.9 9.4 Z M 282.7 9.4 C 282.7 10.7 283 11.7 283.5 12.4 C 284.1 13 284.8 13.3 285.7 13.3 C 286.6 13.3 287.3 13 287.9 12.4 C 288.5 11.7 288.8 10.7 288.8 9.3 C 288.8 8 288.5 7.1 287.9 6.4 C 287.3 5.7 286.6 5.4 285.7 5.4 C 284.8 5.4 284.1 5.7 283.5 6.4 C 283 7.1 282.7 8 282.7 9.4 Z M 292.6 14.6 L 292.6 4.2 L 294.2 4.2 C 294.2 4.2 294.2 5.76 294.2 5.8 C 294.6 5 295 4.5 295.3 4.3 C 295.7 4.1 296 4 296.4 4 C 297 4 297.6 4.1 298.3 4.5 C 298.3 4.5 297.6 6.2 297.6 6.2 C 297.2 5.9 296.8 5.8 296.4 5.8 C 296 5.8 295.6 5.9 295.3 6.1 C 295 6.3 294.8 6.7 294.7 7.1 C 294.5 7.7 294.4 8.4 294.4 9.1 C 294.38 9.13 294.4 14.6 294.4 14.6 L 292.6 14.6 Z M 299.3 14.6 L 299.3 4.2 L 300.9 4.2 C 300.9 4.2 300.86 5.76 300.9 5.8 C 301.3 5 301.6 4.5 302 4.3 C 302.3 4.1 302.7 4 303.1 4 C 303.7 4 304.3 4.1 304.9 4.5 C 304.9 4.5 304.3 6.2 304.3 6.2 C 303.9 5.9 303.4 5.8 303 5.8 C 302.6 5.8 302.3 5.9 302 6.1 C 301.7 6.3 301.5 6.7 301.3 7.1 C 301.1 7.7 301 8.4 301 9.1 C 301.04 9.13 301 14.6 301 14.6 L 299.3 14.6 Z M 305.3 9.4 C 305.3 7.5 305.8 6 306.9 5.1 C 307.8 4.3 308.9 4 310.2 4 C 311.6 4 312.8 4.4 313.7 5.4 C 314.6 6.3 315 7.6 315 9.2 C 315 10.6 314.8 11.6 314.4 12.4 C 314 13.1 313.4 13.7 312.7 14.2 C 311.9 14.6 311.1 14.8 310.2 14.8 C 308.7 14.8 307.5 14.3 306.6 13.4 C 305.8 12.5 305.3 11.1 305.3 9.4 Z M 307.1 9.4 C 307.1 10.7 307.4 11.7 308 12.4 C 308.6 13 309.3 13.3 310.2 13.3 C 311 13.3 311.8 13 312.3 12.4 C 312.9 11.7 313.2 10.7 313.2 9.3 C 313.2 8 312.9 7.1 312.3 6.4 C 311.8 5.7 311 5.4 310.2 5.4 C 309.3 5.4 308.6 5.7 308 6.4 C 307.4 7.1 307.1 8 307.1 9.4 Z M 319 14.6 L 315.8 4.2 L 317.6 4.2 L 319.3 10.2 C 319.3 10.2 319.9 12.4 319.9 12.4 C 319.9 12.3 320.1 11.6 320.4 10.3 C 320.44 10.26 322.1 4.2 322.1 4.2 L 323.9 4.2 L 325.4 10.2 L 326 12.2 L 326.6 10.2 L 328.3 4.2 L 330 4.2 L 326.8 14.6 L 325 14.6 L 323.3 8.3 L 322.9 6.6 L 320.8 14.6 L 319 14.6 Z M 338.6 11.2 C 338.6 11.2 340.4 11.4 340.4 11.4 C 340.2 12.5 339.6 13.3 338.8 13.9 C 338.1 14.5 337.1 14.8 335.9 14.8 C 334.4 14.8 333.2 14.3 332.3 13.4 C 331.4 12.5 330.9 11.1 330.9 9.5 C 330.9 7.7 331.4 6.4 332.3 5.4 C 333.2 4.4 334.3 4 335.8 4 C 337.2 4 338.3 4.4 339.2 5.4 C 340.1 6.3 340.5 7.6 340.5 9.4 C 340.5 9.5 340.5 9.6 340.5 9.8 C 340.5 9.8 332.8 9.8 332.8 9.8 C 332.8 11 333.1 11.8 333.7 12.4 C 334.3 13 335 13.3 335.9 13.3 C 336.5 13.3 337.1 13.2 337.5 12.8 C 338 12.5 338.4 12 338.6 11.2 Z M 332.9 8.4 C 332.9 8.4 338.6 8.4 338.6 8.4 C 338.6 7.5 338.3 6.9 338 6.4 C 337.4 5.7 336.7 5.4 335.8 5.4 C 335 5.4 334.3 5.7 333.8 6.2 C 333.2 6.8 332.9 7.5 332.9 8.4 Z M 342.6 14.6 L 342.6 4.2 L 344.2 4.2 C 344.2 4.2 344.21 5.76 344.2 5.8 C 344.6 5 345 4.5 345.3 4.3 C 345.7 4.1 346 4 346.5 4 C 347 4 347.6 4.1 348.3 4.5 C 348.3 4.5 347.7 6.2 347.7 6.2 C 347.2 5.9 346.8 5.8 346.4 5.8 C 346 5.8 345.6 5.9 345.3 6.1 C 345 6.3 344.8 6.7 344.7 7.1 C 344.5 7.7 344.4 8.4 344.4 9.1 C 344.38 9.13 344.4 14.6 344.4 14.6 L 342.6 14.6 Z M 354.9 2.3 L 354.9 0.2 L 356.6 0.2 L 356.6 2.3 L 354.9 2.3 Z M 354.9 14.6 L 354.9 4.2 L 356.6 4.2 L 356.6 14.6 L 354.9 14.6 Z M 359.3 14.6 L 359.3 4.2 L 360.9 4.2 C 360.9 4.2 360.89 5.66 360.9 5.7 C 361.7 4.5 362.8 4 364.2 4 C 364.8 4 365.4 4.1 365.9 4.3 C 366.4 4.5 366.8 4.8 367.1 5.2 C 367.4 5.5 367.5 6 367.6 6.5 C 367.7 6.8 367.7 7.4 367.7 8.2 C 367.73 8.18 367.7 14.6 367.7 14.6 L 366 14.6 C 366 14.6 365.98 8.25 366 8.3 C 366 7.5 365.9 7 365.8 6.6 C 365.6 6.3 365.4 6 365 5.8 C 364.7 5.6 364.3 5.5 363.8 5.5 C 363.1 5.5 362.4 5.7 361.9 6.2 C 361.3 6.7 361.1 7.6 361.1 8.9 C 361.06 8.9 361.1 14.6 361.1 14.6 L 359.3 14.6 Z M 379.1 13.1 C 379.2 13.1 379.5 13 379.8 13 C 379.8 13 380.1 14.5 380.1 14.5 C 379.6 14.6 379.1 14.7 378.8 14.7 C 378.1 14.7 377.6 14.6 377.3 14.4 C 376.9 14.2 376.7 13.9 376.5 13.6 C 376.4 13.3 376.3 12.6 376.3 11.5 C 376.31 11.52 376.3 5.6 376.3 5.6 L 375 5.6 L 375 4.2 L 376.3 4.2 L 376.3 1.6 L 378.1 0.6 L 378.1 4.2 L 379.8 4.2 L 379.8 5.6 L 378.1 5.6 C 378.1 5.6 378.06 11.62 378.1 11.6 C 378.1 12.1 378.1 12.4 378.1 12.6 C 378.2 12.7 378.3 12.8 378.5 12.9 C 378.6 13 378.8 13.1 379.1 13.1 C 379.1 13.1 379.1 13.1 379.1 13.1 Z M 381.5 14.6 L 381.5 0.2 L 383.3 0.2 C 383.3 0.2 383.3 5.38 383.3 5.4 C 384.1 4.4 385.2 4 386.4 4 C 387.2 4 387.8 4.1 388.4 4.4 C 389 4.7 389.4 5.1 389.6 5.7 C 389.9 6.2 390 7 390 8 C 389.99 7.99 390 14.6 390 14.6 L 388.2 14.6 C 388.2 14.6 388.23 7.99 388.2 8 C 388.2 7.1 388 6.5 387.7 6.1 C 387.3 5.7 386.7 5.5 386 5.5 C 385.5 5.5 385 5.6 384.6 5.9 C 384.1 6.1 383.8 6.5 383.6 7 C 383.4 7.4 383.3 8.1 383.3 8.9 C 383.3 8.89 383.3 14.6 383.3 14.6 L 381.5 14.6 Z M 399.8 11.2 C 399.8 11.2 401.6 11.4 401.6 11.4 C 401.3 12.5 400.8 13.3 400 13.9 C 399.2 14.5 398.2 14.8 397 14.8 C 395.5 14.8 394.3 14.3 393.4 13.4 C 392.5 12.5 392.1 11.1 392.1 9.5 C 392.1 7.7 392.5 6.4 393.4 5.4 C 394.3 4.4 395.5 4 396.9 4 C 398.3 4 399.4 4.4 400.3 5.4 C 401.2 6.3 401.6 7.6 401.6 9.4 C 401.6 9.5 401.6 9.6 401.6 9.8 C 401.6 9.8 393.9 9.8 393.9 9.8 C 394 11 394.3 11.8 394.9 12.4 C 395.4 13 396.2 13.3 397 13.3 C 397.7 13.3 398.2 13.2 398.7 12.8 C 399.1 12.5 399.5 12 399.8 11.2 Z M 394 8.4 C 394 8.4 399.8 8.4 399.8 8.4 C 399.7 7.5 399.5 6.9 399.1 6.4 C 398.6 5.7 397.8 5.4 396.9 5.4 C 396.1 5.4 395.5 5.7 394.9 6.2 C 394.4 6.8 394.1 7.5 394 8.4 Z M 409.8 14.6 L 409.8 5.5 L 408.3 5.5 L 408.3 4.2 L 409.8 4.2 C 409.8 4.2 409.81 3.18 409.8 3.2 C 409.8 2.2 410 1.4 410.5 0.8 C 410.9 0.3 411.6 0 412.6 0 C 413.2 0 413.8 0.1 414.4 0.2 C 414.4 0.2 414.1 1.7 414.1 1.7 C 413.7 1.7 413.4 1.6 413.1 1.6 C 412.5 1.6 412.1 1.7 411.9 2 C 411.7 2.2 411.6 2.7 411.6 3.5 C 411.57 3.52 411.6 4.2 411.6 4.2 L 413.6 4.2 L 413.6 5.5 L 411.6 5.5 L 411.6 14.6 L 409.8 14.6 Z M 414.9 2.3 L 414.9 0.2 L 416.7 0.2 L 416.7 2.3 L 414.9 2.3 Z M 414.9 14.6 L 414.9 4.2 L 416.7 4.2 L 416.7 14.6 L 414.9 14.6 Z M 419.3 14.6 L 419.3 4.2 L 420.9 4.2 C 420.9 4.2 420.93 5.66 420.9 5.7 C 421.7 4.5 422.8 4 424.2 4 C 424.9 4 425.4 4.1 426 4.3 C 426.5 4.5 426.9 4.8 427.1 5.2 C 427.4 5.5 427.6 6 427.7 6.5 C 427.7 6.8 427.8 7.4 427.8 8.2 C 427.77 8.18 427.8 14.6 427.8 14.6 L 426 14.6 C 426 14.6 426.02 8.25 426 8.3 C 426 7.5 425.9 7 425.8 6.6 C 425.7 6.3 425.4 6 425.1 5.8 C 424.7 5.6 424.3 5.5 423.9 5.5 C 423.1 5.5 422.5 5.7 421.9 6.2 C 421.4 6.7 421.1 7.6 421.1 8.9 C 421.1 8.9 421.1 14.6 421.1 14.6 L 419.3 14.6 Z M 437.6 14.6 C 437.4 14.2 437.3 13.8 437.2 13.3 C 436.6 13.8 436 14.2 435.4 14.5 C 434.8 14.7 434.1 14.8 433.4 14.8 C 432.3 14.8 431.4 14.5 430.8 14 C 430.2 13.4 429.9 12.7 429.9 11.8 C 429.9 11.3 430 10.9 430.2 10.4 C 430.5 10 430.8 9.7 431.1 9.4 C 431.5 9.2 431.9 9 432.4 8.8 C 432.7 8.8 433.3 8.7 434 8.6 C 435.4 8.4 436.4 8.2 437.1 8 C 437.1 7.7 437.1 7.6 437.1 7.5 C 437.1 6.8 436.9 6.3 436.6 6 C 436.2 5.6 435.5 5.4 434.6 5.4 C 433.8 5.4 433.2 5.6 432.8 5.8 C 432.4 6.1 432.1 6.6 431.9 7.4 C 431.9 7.4 430.2 7.1 430.2 7.1 C 430.3 6.4 430.6 5.8 430.9 5.4 C 431.3 4.9 431.8 4.6 432.5 4.3 C 433.2 4.1 434 4 434.9 4 C 435.7 4 436.5 4.1 437 4.3 C 437.6 4.5 438 4.7 438.2 5.1 C 438.5 5.4 438.7 5.8 438.8 6.3 C 438.8 6.5 438.9 7.1 438.9 7.9 C 438.9 7.9 438.9 10.2 438.9 10.2 C 438.9 11.8 438.9 12.9 439 13.3 C 439.1 13.7 439.2 14.2 439.4 14.6 C 439.42 14.56 437.6 14.6 437.6 14.6 C 437.6 14.6 437.59 14.56 437.6 14.6 Z M 437.1 9.4 C 436.5 9.6 435.5 9.8 434.2 10 C 433.5 10.1 433 10.2 432.7 10.4 C 432.4 10.5 432.2 10.7 432 10.9 C 431.8 11.2 431.7 11.5 431.7 11.8 C 431.7 12.2 431.9 12.6 432.3 12.9 C 432.6 13.3 433.2 13.4 433.8 13.4 C 434.5 13.4 435.1 13.3 435.6 13 C 436.2 12.7 436.6 12.3 436.8 11.8 C 437 11.4 437.1 10.8 437.1 10 C 437.1 10 437.1 9.4 437.1 9.4 Z M 441.6 14.6 L 441.6 4.2 L 443.2 4.2 C 443.2 4.2 443.17 5.66 443.2 5.7 C 443.9 4.5 445 4 446.5 4 C 447.1 4 447.7 4.1 448.2 4.3 C 448.7 4.5 449.1 4.8 449.4 5.2 C 449.6 5.5 449.8 6 449.9 6.5 C 450 6.8 450 7.4 450 8.2 C 450.02 8.18 450 14.6 450 14.6 L 448.3 14.6 C 448.3 14.6 448.26 8.25 448.3 8.3 C 448.3 7.5 448.2 7 448.1 6.6 C 447.9 6.3 447.7 6 447.3 5.8 C 447 5.6 446.6 5.5 446.1 5.5 C 445.4 5.5 444.7 5.7 444.2 6.2 C 443.6 6.7 443.3 7.6 443.3 8.9 C 443.35 8.9 443.3 14.6 443.3 14.6 L 441.6 14.6 Z M 459.5 10.8 C 459.5 10.8 461.2 11 461.2 11 C 461 12.2 460.5 13.1 459.8 13.8 C 459 14.5 458 14.8 456.9 14.8 C 455.5 14.8 454.3 14.3 453.5 13.4 C 452.6 12.5 452.2 11.1 452.2 9.4 C 452.2 8.3 452.4 7.3 452.7 6.5 C 453.1 5.6 453.7 5 454.4 4.6 C 455.2 4.2 456 4 456.9 4 C 458 4 459 4.2 459.7 4.8 C 460.4 5.4 460.8 6.2 461 7.2 C 461 7.2 459.3 7.5 459.3 7.5 C 459.2 6.8 458.9 6.3 458.5 5.9 C 458.1 5.6 457.6 5.4 457 5.4 C 456.1 5.4 455.4 5.7 454.8 6.4 C 454.3 7 454 8 454 9.4 C 454 10.8 454.3 11.8 454.8 12.4 C 455.3 13 456 13.3 456.9 13.3 C 457.6 13.3 458.1 13.1 458.6 12.7 C 459.1 12.3 459.4 11.6 459.5 10.8 Z M 462.7 2.3 L 462.7 0.2 L 464.5 0.2 L 464.5 2.3 L 462.7 2.3 Z M 462.7 14.6 L 462.7 4.2 L 464.5 4.2 L 464.5 14.6 L 462.7 14.6 Z M 467.2 14.6 L 467.2 4.2 L 468.7 4.2 C 468.7 4.2 468.74 5.66 468.7 5.7 C 469.5 4.5 470.6 4 472 4 C 472.7 4 473.2 4.1 473.8 4.3 C 474.3 4.5 474.7 4.8 474.9 5.2 C 475.2 5.5 475.4 6 475.5 6.5 C 475.6 6.8 475.6 7.4 475.6 8.2 C 475.59 8.18 475.6 14.6 475.6 14.6 L 473.8 14.6 C 473.8 14.6 473.83 8.25 473.8 8.3 C 473.8 7.5 473.8 7 473.6 6.6 C 473.5 6.3 473.2 6 472.9 5.8 C 472.5 5.6 472.1 5.5 471.7 5.5 C 470.9 5.5 470.3 5.7 469.7 6.2 C 469.2 6.7 468.9 7.6 468.9 8.9 C 468.92 8.9 468.9 14.6 468.9 14.6 L 467.2 14.6 Z M 478 15.4 C 478 15.4 479.7 15.7 479.7 15.7 C 479.7 16.2 479.9 16.6 480.3 16.8 C 480.7 17.2 481.3 17.3 482.1 17.3 C 482.9 17.3 483.5 17.2 483.9 16.8 C 484.4 16.5 484.7 16 484.8 15.5 C 484.9 15.1 485 14.3 485 13.2 C 484.2 14.1 483.2 14.6 482.1 14.6 C 480.7 14.6 479.6 14 478.8 13 C 478 12 477.6 10.8 477.6 9.3 C 477.6 8.3 477.8 7.4 478.1 6.6 C 478.5 5.7 479 5.1 479.7 4.6 C 480.4 4.2 481.2 4 482.1 4 C 483.3 4 484.3 4.4 485.1 5.4 C 485.13 5.44 485.1 4.2 485.1 4.2 L 486.7 4.2 C 486.7 4.2 486.75 13.15 486.7 13.2 C 486.7 14.8 486.6 15.9 486.3 16.6 C 485.9 17.3 485.4 17.8 484.7 18.2 C 484 18.6 483.1 18.8 482.1 18.8 C 480.8 18.8 479.8 18.5 479.1 17.9 C 478.3 17.4 477.9 16.5 478 15.4 Z M 479.4 9.2 C 479.4 10.6 479.7 11.5 480.2 12.2 C 480.8 12.8 481.4 13.1 482.3 13.1 C 483.1 13.1 483.7 12.8 484.3 12.2 C 484.8 11.6 485.1 10.6 485.1 9.2 C 485.1 8 484.8 7 484.3 6.4 C 483.7 5.7 483 5.4 482.2 5.4 C 481.4 5.4 480.8 5.7 480.2 6.4 C 479.7 7 479.4 7.9 479.4 9.2 Z M 494.3 9.4 C 494.3 7.5 494.8 6 495.9 5.1 C 496.8 4.3 497.9 4 499.2 4 C 500.6 4 501.8 4.4 502.7 5.4 C 503.6 6.3 504 7.6 504 9.2 C 504 10.6 503.8 11.6 503.4 12.4 C 503 13.1 502.4 13.7 501.7 14.2 C 500.9 14.6 500.1 14.8 499.2 14.8 C 497.7 14.8 496.5 14.3 495.6 13.4 C 494.8 12.5 494.3 11.1 494.3 9.4 Z M 496.1 9.4 C 496.1 10.7 496.4 11.7 497 12.4 C 497.6 13 498.3 13.3 499.2 13.3 C 500 13.3 500.8 13 501.3 12.4 C 501.9 11.7 502.2 10.7 502.2 9.3 C 502.2 8 501.9 7.1 501.3 6.4 C 500.8 5.7 500 5.4 499.2 5.4 C 498.3 5.4 497.6 5.7 497 6.4 C 496.4 7.1 496.1 8 496.1 9.4 Z M 506.5 14.6 L 506.5 5.6 L 505 5.6 L 505 4.2 L 506.5 4.2 C 506.5 4.2 506.5 3.09 506.5 3.1 C 506.5 2.4 506.6 1.9 506.7 1.5 C 506.9 1.1 507.2 0.7 507.6 0.4 C 508 0.1 508.6 0 509.4 0 C 509.9 0 510.4 0.1 511 0.2 C 511 0.2 510.8 1.7 510.8 1.7 C 510.4 1.6 510 1.6 509.7 1.6 C 509.2 1.6 508.8 1.7 508.6 2 C 508.4 2.2 508.3 2.6 508.3 3.2 C 508.25 3.23 508.3 4.2 508.3 4.2 L 510.3 4.2 L 510.3 5.6 L 508.3 5.6 L 508.3 14.6 L 506.5 14.6 Z M 517.2 14.6 L 517.2 4.2 L 518.8 4.2 C 518.8 4.2 518.77 5.64 518.8 5.6 C 519.1 5.1 519.5 4.7 520.1 4.4 C 520.6 4.1 521.2 4 521.9 4 C 522.7 4 523.3 4.1 523.8 4.4 C 524.3 4.8 524.6 5.2 524.8 5.8 C 525.7 4.6 526.7 4 528 4 C 529.1 4 529.9 4.2 530.4 4.8 C 531 5.4 531.3 6.3 531.3 7.4 C 531.25 7.44 531.3 14.6 531.3 14.6 L 529.5 14.6 C 529.5 14.6 529.5 8.03 529.5 8 C 529.5 7.3 529.4 6.8 529.3 6.5 C 529.2 6.2 529 6 528.7 5.8 C 528.4 5.6 528.1 5.5 527.7 5.5 C 526.9 5.5 526.3 5.7 525.8 6.2 C 525.4 6.7 525.1 7.5 525.1 8.5 C 525.12 8.54 525.1 14.6 525.1 14.6 L 523.4 14.6 C 523.4 14.6 523.36 7.82 523.4 7.8 C 523.4 7 523.2 6.5 522.9 6.1 C 522.6 5.7 522.2 5.5 521.5 5.5 C 521 5.5 520.6 5.6 520.2 5.9 C 519.7 6.1 519.4 6.5 519.2 7 C 519 7.5 519 8.2 519 9.2 C 518.96 9.18 519 14.6 519 14.6 L 517.2 14.6 Z M 540.7 14.6 C 540.7 14.6 540.65 13.04 540.7 13 C 539.8 14.2 538.8 14.8 537.4 14.8 C 536.8 14.8 536.2 14.7 535.6 14.4 C 535.1 14.2 534.7 13.9 534.5 13.6 C 534.2 13.2 534 12.8 533.9 12.3 C 533.9 11.9 533.8 11.4 533.8 10.6 C 533.82 10.62 533.8 4.2 533.8 4.2 L 535.6 4.2 C 535.6 4.2 535.58 9.94 535.6 9.9 C 535.6 10.9 535.6 11.5 535.7 11.8 C 535.8 12.3 536 12.6 536.4 12.9 C 536.7 13.1 537.2 13.3 537.7 13.3 C 538.2 13.3 538.7 13.1 539.2 12.9 C 539.7 12.6 540 12.2 540.2 11.8 C 540.4 11.3 540.5 10.6 540.5 9.7 C 540.47 9.75 540.5 4.2 540.5 4.2 L 542.2 4.2 L 542.2 14.6 L 540.7 14.6 Z M 544.9 14.6 L 544.9 0.2 L 546.7 0.2 L 546.7 14.6 L 544.9 14.6 Z M 552.5 13.1 C 552.7 13.1 552.9 13 553.3 13 C 553.3 13 553.5 14.5 553.5 14.5 C 553 14.6 552.6 14.7 552.2 14.7 C 551.5 14.7 551.1 14.6 550.7 14.4 C 550.4 14.2 550.1 13.9 550 13.6 C 549.8 13.3 549.7 12.6 549.7 11.5 C 549.75 11.52 549.7 5.6 549.7 5.6 L 548.5 5.6 L 548.5 4.2 L 549.7 4.2 L 549.7 1.6 L 551.5 0.6 L 551.5 4.2 L 553.3 4.2 L 553.3 5.6 L 551.5 5.6 C 551.5 5.6 551.49 11.62 551.5 11.6 C 551.5 12.1 551.5 12.4 551.6 12.6 C 551.6 12.7 551.7 12.8 551.9 12.9 C 552 13 552.2 13.1 552.5 13.1 C 552.5 13.1 552.5 13.1 552.5 13.1 Z M 555 2.3 L 555 0.2 L 556.7 0.2 L 556.7 2.3 L 555 2.3 Z M 555 14.6 L 555 4.2 L 556.7 4.2 L 556.7 14.6 L 555 14.6 Z M 559.4 18.5 L 559.4 4.2 L 561 4.2 C 561 4.2 561.03 5.54 561 5.5 C 561.4 5 561.8 4.6 562.3 4.4 C 562.8 4.1 563.4 4 564 4 C 564.9 4 565.7 4.2 566.4 4.6 C 567.1 5.1 567.6 5.7 567.9 6.6 C 568.3 7.4 568.4 8.3 568.4 9.3 C 568.4 10.4 568.2 11.3 567.9 12.2 C 567.5 13 566.9 13.7 566.2 14.1 C 565.5 14.6 564.7 14.8 563.9 14.8 C 563.3 14.8 562.8 14.7 562.3 14.4 C 561.9 14.2 561.5 13.9 561.2 13.5 C 561.18 13.49 561.2 18.5 561.2 18.5 L 559.4 18.5 Z M 561 9.4 C 561 10.8 561.3 11.8 561.8 12.4 C 562.4 13 563 13.3 563.8 13.3 C 564.6 13.3 565.2 13 565.8 12.4 C 566.4 11.7 566.6 10.7 566.6 9.3 C 566.6 8 566.4 7 565.8 6.3 C 565.3 5.7 564.6 5.3 563.9 5.3 C 563.1 5.3 562.5 5.7 561.9 6.4 C 561.3 7.1 561 8.1 561 9.4 Z M 570.5 14.6 L 570.5 0.2 L 572.3 0.2 L 572.3 14.6 L 570.5 14.6 Z M 582.1 11.2 C 582.1 11.2 583.9 11.4 583.9 11.4 C 583.6 12.5 583.1 13.3 582.3 13.9 C 581.5 14.5 580.6 14.8 579.3 14.8 C 577.8 14.8 576.6 14.3 575.7 13.4 C 574.8 12.5 574.4 11.1 574.4 9.5 C 574.4 7.7 574.9 6.4 575.8 5.4 C 576.7 4.4 577.8 4 579.2 4 C 580.6 4 581.8 4.4 582.6 5.4 C 583.5 6.3 584 7.6 584 9.4 C 584 9.5 584 9.6 584 9.8 C 584 9.8 576.2 9.8 576.2 9.8 C 576.3 11 576.6 11.8 577.2 12.4 C 577.8 13 578.5 13.3 579.4 13.3 C 580 13.3 580.6 13.2 581 12.8 C 581.5 12.5 581.8 12 582.1 11.2 Z M 576.3 8.4 C 576.3 8.4 582.1 8.4 582.1 8.4 C 582 7.5 581.8 6.9 581.4 6.4 C 580.9 5.7 580.2 5.4 579.3 5.4 C 578.5 5.4 577.8 5.7 577.2 6.2 C 576.7 6.8 576.4 7.5 576.3 8.4 Z M 593.3 14.6 L 591.7 14.6 L 591.7 0.2 L 593.4 0.2 C 593.4 0.2 593.42 5.35 593.4 5.4 C 594.2 4.4 595.1 4 596.3 4 C 596.9 4 597.5 4.1 598.1 4.3 C 598.6 4.6 599.1 5 599.5 5.4 C 599.8 5.9 600.1 6.5 600.3 7.1 C 600.6 7.8 600.7 8.5 600.7 9.2 C 600.7 11 600.2 12.4 599.3 13.3 C 598.5 14.3 597.4 14.8 596.2 14.8 C 594.9 14.8 594 14.3 593.3 13.3 C 593.29 13.26 593.3 14.6 593.3 14.6 Z M 593.3 9.3 C 593.3 10.5 593.4 11.4 593.8 12 C 594.3 12.9 595.1 13.3 596 13.3 C 596.8 13.3 597.5 13 598 12.3 C 598.6 11.7 598.9 10.7 598.9 9.4 C 598.9 8 598.6 7 598.1 6.4 C 597.5 5.7 596.9 5.4 596.1 5.4 C 595.3 5.4 594.7 5.7 594.1 6.4 C 593.6 7.1 593.3 8 593.3 9.3 Z M 609.9 14.6 C 609.7 14.2 609.6 13.8 609.6 13.3 C 608.9 13.8 608.3 14.2 607.7 14.5 C 607.1 14.7 606.4 14.8 605.7 14.8 C 604.6 14.8 603.7 14.5 603.1 14 C 602.5 13.4 602.2 12.7 602.2 11.8 C 602.2 11.3 602.3 10.9 602.5 10.4 C 602.8 10 603.1 9.7 603.5 9.4 C 603.8 9.2 604.2 9 604.7 8.8 C 605.1 8.8 605.6 8.7 606.3 8.6 C 607.7 8.4 608.7 8.2 609.4 8 C 609.4 7.7 609.4 7.6 609.4 7.5 C 609.4 6.8 609.3 6.3 608.9 6 C 608.5 5.6 607.8 5.4 606.9 5.4 C 606.1 5.4 605.5 5.6 605.1 5.8 C 604.7 6.1 604.4 6.6 604.2 7.4 C 604.2 7.4 602.5 7.1 602.5 7.1 C 602.7 6.4 602.9 5.8 603.3 5.4 C 603.6 4.9 604.1 4.6 604.8 4.3 C 605.5 4.1 606.3 4 607.2 4 C 608.1 4 608.8 4.1 609.3 4.3 C 609.9 4.5 610.3 4.7 610.6 5.1 C 610.8 5.4 611 5.8 611.1 6.3 C 611.2 6.5 611.2 7.1 611.2 7.9 C 611.2 7.9 611.2 10.2 611.2 10.2 C 611.2 11.8 611.2 12.9 611.3 13.3 C 611.4 13.7 611.5 14.2 611.7 14.6 C 611.75 14.56 609.9 14.6 609.9 14.6 C 609.9 14.6 609.91 14.56 609.9 14.6 Z M 609.4 9.4 C 608.8 9.6 607.8 9.8 606.5 10 C 605.8 10.1 605.3 10.2 605 10.4 C 604.7 10.5 604.5 10.7 604.3 10.9 C 604.2 11.2 604.1 11.5 604.1 11.8 C 604.1 12.2 604.2 12.6 604.6 12.9 C 605 13.3 605.5 13.4 606.2 13.4 C 606.8 13.4 607.4 13.3 608 13 C 608.5 12.7 608.9 12.3 609.1 11.8 C 609.3 11.4 609.4 10.8 609.4 10 C 609.4 10 609.4 9.4 609.4 9.4 Z M 617 13.1 C 617.2 13.1 617.4 13 617.8 13 C 617.8 13 618 14.5 618 14.5 C 617.5 14.6 617.1 14.7 616.7 14.7 C 616 14.7 615.5 14.6 615.2 14.4 C 614.8 14.2 614.6 13.9 614.5 13.6 C 614.3 13.3 614.2 12.6 614.2 11.5 C 614.24 11.52 614.2 5.6 614.2 5.6 L 612.9 5.6 L 612.9 4.2 L 614.2 4.2 L 614.2 1.6 L 616 0.6 L 616 4.2 L 617.8 4.2 L 617.8 5.6 L 616 5.6 C 616 5.6 615.99 11.62 616 11.6 C 616 12.1 616 12.4 616.1 12.6 C 616.1 12.7 616.2 12.8 616.4 12.9 C 616.5 13 616.7 13.1 617 13.1 C 617 13.1 617 13.1 617 13.1 Z M 622.5 13.1 C 622.7 13.1 623 13 623.3 13 C 623.3 13 623.6 14.5 623.6 14.5 C 623.1 14.6 622.6 14.7 622.2 14.7 C 621.6 14.7 621.1 14.6 620.8 14.4 C 620.4 14.2 620.2 13.9 620 13.6 C 619.9 13.3 619.8 12.6 619.8 11.5 C 619.79 11.52 619.8 5.6 619.8 5.6 L 618.5 5.6 L 618.5 4.2 L 619.8 4.2 L 619.8 1.6 L 621.5 0.6 L 621.5 4.2 L 623.3 4.2 L 623.3 5.6 L 621.5 5.6 C 621.5 5.6 621.54 11.62 621.5 11.6 C 621.5 12.1 621.6 12.4 621.6 12.6 C 621.7 12.7 621.8 12.8 621.9 12.9 C 622.1 13 622.3 13.1 622.5 13.1 C 622.5 13.1 622.5 13.1 622.5 13.1 Z M 632.1 11.2 C 632.1 11.2 633.9 11.4 633.9 11.4 C 633.7 12.5 633.1 13.3 632.4 13.9 C 631.6 14.5 630.6 14.8 629.4 14.8 C 627.9 14.8 626.7 14.3 625.8 13.4 C 624.9 12.5 624.4 11.1 624.4 9.5 C 624.4 7.7 624.9 6.4 625.8 5.4 C 626.7 4.4 627.9 4 629.3 4 C 630.7 4 631.8 4.4 632.7 5.4 C 633.6 6.3 634 7.6 634 9.4 C 634 9.5 634 9.6 634 9.8 C 634 9.8 626.3 9.8 626.3 9.8 C 626.3 11 626.6 11.8 627.2 12.4 C 627.8 13 628.5 13.3 629.4 13.3 C 630 13.3 630.6 13.2 631 12.8 C 631.5 12.5 631.9 12 632.1 11.2 Z M 626.4 8.4 C 626.4 8.4 632.1 8.4 632.1 8.4 C 632.1 7.5 631.8 6.9 631.5 6.4 C 630.9 5.7 630.2 5.4 629.3 5.4 C 628.5 5.4 627.8 5.7 627.3 6.2 C 626.7 6.8 626.4 7.5 626.4 8.4 Z M 636.1 14.6 L 636.1 4.2 L 637.7 4.2 C 637.7 4.2 637.71 5.76 637.7 5.8 C 638.1 5 638.5 4.5 638.8 4.3 C 639.2 4.1 639.6 4 640 4 C 640.6 4 641.2 4.1 641.8 4.5 C 641.8 4.5 641.2 6.2 641.2 6.2 C 640.7 5.9 640.3 5.8 639.9 5.8 C 639.5 5.8 639.1 5.9 638.8 6.1 C 638.5 6.3 638.3 6.7 638.2 7.1 C 638 7.7 637.9 8.4 637.9 9.1 C 637.89 9.13 637.9 14.6 637.9 14.6 L 636.1 14.6 Z M 643.9 18.8 C 643.5 18.8 643.2 18.7 642.7 18.6 C 642.7 18.6 642.5 16.9 642.5 16.9 C 642.9 17 643.3 17.1 643.5 17.1 C 643.9 17.1 644.2 17 644.5 16.9 C 644.7 16.7 644.9 16.6 645.1 16.3 C 645.2 16.1 645.3 15.7 645.6 15 C 645.6 14.9 645.7 14.8 645.8 14.6 C 645.75 14.58 641.8 4.2 641.8 4.2 L 643.7 4.2 C 643.7 4.2 645.87 10.2 645.9 10.2 C 646.1 11 646.4 11.8 646.6 12.6 C 646.8 11.8 647.1 11 647.3 10.2 C 647.34 10.23 649.6 4.2 649.6 4.2 L 651.3 4.2 C 651.3 4.2 647.37 14.74 647.4 14.7 C 646.9 15.9 646.6 16.7 646.4 17.1 C 646.1 17.7 645.7 18.1 645.3 18.4 C 644.9 18.6 644.4 18.8 643.9 18.8 C 643.9 18.8 643.9 18.8 643.9 18.8 Z M 665.5 11.2 C 665.5 11.2 667.3 11.4 667.3 11.4 C 667 12.5 666.5 13.3 665.7 13.9 C 664.9 14.5 663.9 14.8 662.7 14.8 C 661.2 14.8 660 14.3 659.1 13.4 C 658.2 12.5 657.8 11.1 657.8 9.5 C 657.8 7.7 658.2 6.4 659.1 5.4 C 660 4.4 661.2 4 662.6 4 C 664 4 665.1 4.4 666 5.4 C 666.9 6.3 667.3 7.6 667.3 9.4 C 667.3 9.5 667.3 9.6 667.3 9.8 C 667.3 9.8 659.6 9.8 659.6 9.8 C 659.7 11 660 11.8 660.6 12.4 C 661.1 13 661.9 13.3 662.7 13.3 C 663.4 13.3 663.9 13.2 664.4 12.8 C 664.8 12.5 665.2 12 665.5 11.2 Z M 659.7 8.4 C 659.7 8.4 665.5 8.4 665.5 8.4 C 665.4 7.5 665.2 6.9 664.8 6.4 C 664.3 5.7 663.5 5.4 662.6 5.4 C 661.8 5.4 661.2 5.7 660.6 6.2 C 660.1 6.8 659.8 7.5 659.7 8.4 Z M 669.5 14.6 L 669.5 4.2 L 671.1 4.2 C 671.1 4.2 671.07 5.66 671.1 5.7 C 671.8 4.5 672.9 4 674.4 4 C 675 4 675.6 4.1 676.1 4.3 C 676.6 4.5 677 4.8 677.3 5.2 C 677.5 5.5 677.7 6 677.8 6.5 C 677.9 6.8 677.9 7.4 677.9 8.2 C 677.92 8.18 677.9 14.6 677.9 14.6 L 676.2 14.6 C 676.2 14.6 676.16 8.25 676.2 8.3 C 676.2 7.5 676.1 7 676 6.6 C 675.8 6.3 675.6 6 675.2 5.8 C 674.9 5.6 674.5 5.5 674 5.5 C 673.3 5.5 672.6 5.7 672.1 6.2 C 671.5 6.7 671.3 7.6 671.3 8.9 C 671.25 8.9 671.3 14.6 671.3 14.6 L 669.5 14.6 Z M 687.7 11.2 C 687.7 11.2 689.5 11.4 689.5 11.4 C 689.2 12.5 688.7 13.3 687.9 13.9 C 687.2 14.5 686.2 14.8 685 14.8 C 683.5 14.8 682.3 14.3 681.4 13.4 C 680.5 12.5 680 11.1 680 9.5 C 680 7.7 680.5 6.4 681.4 5.4 C 682.3 4.4 683.4 4 684.9 4 C 686.3 4 687.4 4.4 688.3 5.4 C 689.2 6.3 689.6 7.6 689.6 9.4 C 689.6 9.5 689.6 9.6 689.6 9.8 C 689.6 9.8 681.8 9.8 681.8 9.8 C 681.9 11 682.2 11.8 682.8 12.4 C 683.4 13 684.1 13.3 685 13.3 C 685.6 13.3 686.2 13.2 686.6 12.8 C 687.1 12.5 687.4 12 687.7 11.2 Z M 681.9 8.4 C 681.9 8.4 687.7 8.4 687.7 8.4 C 687.7 7.5 687.4 6.9 687.1 6.4 C 686.5 5.7 685.8 5.4 684.9 5.4 C 684.1 5.4 683.4 5.7 682.9 6.2 C 682.3 6.8 682 7.5 681.9 8.4 Z M 691.7 14.6 L 691.7 4.2 L 693.3 4.2 C 693.3 4.2 693.3 5.76 693.3 5.8 C 693.7 5 694.1 4.5 694.4 4.3 C 694.8 4.1 695.1 4 695.5 4 C 696.1 4 696.7 4.1 697.4 4.5 C 697.4 4.5 696.7 6.2 696.7 6.2 C 696.3 5.9 695.9 5.8 695.5 5.8 C 695.1 5.8 694.7 5.9 694.4 6.1 C 694.1 6.3 693.9 6.7 693.8 7.1 C 693.6 7.7 693.5 8.4 693.5 9.1 C 693.48 9.13 693.5 14.6 693.5 14.6 L 691.7 14.6 Z M 698.1 15.4 C 698.1 15.4 699.8 15.7 699.8 15.7 C 699.9 16.2 700.1 16.6 700.4 16.8 C 700.8 17.2 701.4 17.3 702.2 17.3 C 703 17.3 703.6 17.2 704.1 16.8 C 704.5 16.5 704.8 16 705 15.5 C 705 15.1 705.1 14.3 705.1 13.2 C 704.3 14.1 703.4 14.6 702.2 14.6 C 700.8 14.6 699.7 14 698.9 13 C 698.1 12 697.7 10.8 697.7 9.3 C 697.7 8.3 697.9 7.4 698.3 6.6 C 698.6 5.7 699.1 5.1 699.8 4.6 C 700.5 4.2 701.3 4 702.2 4 C 703.4 4 704.4 4.4 705.2 5.4 C 705.24 5.44 705.2 4.2 705.2 4.2 L 706.9 4.2 C 706.9 4.2 706.87 13.15 706.9 13.2 C 706.9 14.8 706.7 15.9 706.4 16.6 C 706 17.3 705.5 17.8 704.8 18.2 C 704.1 18.6 703.2 18.8 702.2 18.8 C 700.9 18.8 699.9 18.5 699.2 17.9 C 698.4 17.4 698.1 16.5 698.1 15.4 Z M 699.5 9.2 C 699.5 10.6 699.8 11.5 700.3 12.2 C 700.9 12.8 701.6 13.1 702.4 13.1 C 703.2 13.1 703.9 12.8 704.4 12.2 C 705 11.6 705.2 10.6 705.2 9.2 C 705.2 8 704.9 7 704.4 6.4 C 703.8 5.7 703.1 5.4 702.3 5.4 C 701.6 5.4 700.9 5.7 700.4 6.4 C 699.8 7 699.5 7.9 699.5 9.2 Z M 710.6 18.8 C 710.2 18.8 709.9 18.7 709.4 18.6 C 709.4 18.6 709.2 16.9 709.2 16.9 C 709.6 17 710 17.1 710.3 17.1 C 710.6 17.1 711 17 711.2 16.9 C 711.4 16.7 711.6 16.6 711.8 16.3 C 711.9 16.1 712.1 15.7 712.3 15 C 712.3 14.9 712.4 14.8 712.5 14.6 C 712.46 14.58 708.5 4.2 708.5 4.2 L 710.4 4.2 C 710.4 4.2 712.58 10.2 712.6 10.2 C 712.9 11 713.1 11.8 713.3 12.6 C 713.5 11.8 713.8 11 714.1 10.2 C 714.05 10.23 716.3 4.2 716.3 4.2 L 718 4.2 C 718 4.2 714.08 14.74 714.1 14.7 C 713.7 15.9 713.3 16.7 713.1 17.1 C 712.8 17.7 712.4 18.1 712 18.4 C 711.6 18.6 711.1 18.8 710.6 18.8 C 710.6 18.8 710.6 18.8 710.6 18.8 Z " stroke="none" fill="#54626c"/>
  </g>
</svg>