<?xml version="1.0" standalone="no"?><!DOCTYPE svg PUBLIC "-//W3C//DTD SVG 1.1//EN" "http://www.w3.org/Graphics/SVG/1.1/DTD/svg11.dtd"><svg xmlns="http://www.w3.org/2000/svg" version="1.1" width="52px" height="21.7px" viewBox="0 -3 52 21.7" style="top:-3px"><desc>Offices</desc><defs/><g id="Polygon69883"><path d="m.4 2.9c0-.9.2-1.6.7-2.1c.5-.5 1.1-.8 1.9-.8c.5 0 .9.1 1.3.4c.5.2.8.5 1 1c.2.4.3.9.3 1.4c0 .6-.1 1.1-.3 1.5c-.3.5-.6.8-1 1c-.4.2-.8.3-1.3.3c-.5 0-1-.1-1.4-.3c-.4-.3-.7-.6-.9-1c-.2-.5-.3-.9-.3-1.4zm.7 0c0 .7.2 1.2.5 1.6c.4.3.8.5 1.4.5c.5 0 1-.2 1.3-.5c.4-.4.5-1 .5-1.7c0-.4 0-.8-.2-1.1c-.1-.4-.3-.6-.6-.8c-.3-.2-.7-.3-1-.3c-.5 0-1 .2-1.3.5c-.4.4-.6 1-.6 1.8zm5.5 2.7l0-3.5l-.6 0l0-.5l.6 0c0 0 0-.42 0-.4c0-.3 0-.5.1-.6c0-.2.1-.3.3-.4c.2-.1.4-.2.7-.2c.2 0 .4 0 .6.1c0 0-.1.6-.1.6c-.1-.1-.3-.1-.4-.1c-.2 0-.3.1-.4.1c-.1.1-.1.3-.1.5c-.03.03 0 .4 0 .4l.7 0l0 .5l-.7 0l0 3.5l-.7 0zm2.1 0l0-3.5l-.6 0l0-.5l.6 0c0 0 .04-.39 0-.4c0-.4.1-.7.3-.9c.2-.2.4-.3.8-.3c.2 0 .5 0 .7.1c0 0-.1.6-.1.6c-.2-.1-.3-.1-.4-.1c-.2 0-.4.1-.5.2c0 0-.1.2-.1.5c.01.04 0 .3 0 .3l.8 0l0 .5l-.8 0l0 3.5l-.7 0zm2-4.7l0-.8l.7 0l0 .8l-.7 0zm0 4.7l0-4l.7 0l0 4l-.7 0zm4.3-1.5c0 0 .6.1.6.1c-.1.4-.2.8-.5 1.1c-.3.2-.7.3-1.1.3c-.6 0-1-.1-1.3-.5c-.4-.3-.5-.8-.5-1.5c0-.4 0-.8.2-1.1c.1-.3.3-.6.6-.8c.3-.1.6-.2 1-.2c.4 0 .8.1 1 .3c.3.3.5.6.6 1c0 0-.7.1-.7.1c-.1-.3-.2-.5-.3-.6c-.2-.2-.4-.2-.6-.2c-.3 0-.6.1-.8.3c-.2.3-.3.6-.3 1.2c0 .5.1.9.3 1.1c.2.3.4.4.8.4c.2 0 .4-.1.6-.2c.2-.2.3-.5.4-.8zm3.9.2c0 0 .7.1.7.1c-.1.4-.3.7-.6.9c-.3.2-.7.3-1.1.3c-.6 0-1.1-.1-1.4-.5c-.4-.3-.5-.8-.5-1.5c0-.7.1-1.2.5-1.5c.3-.4.8-.6 1.3-.6c.5 0 1 .2 1.3.5c.3.4.5.9.5 1.6c0 0 0 .1 0 .1c0 0-2.9 0-2.9 0c0 .5.1.8.3 1c.3.3.5.4.9.4c.2 0 .4-.1.6-.2c.2-.1.3-.3.4-.6zm-2.2-1.1c0 0 2.2 0 2.2 0c0-.3-.1-.6-.2-.8c-.3-.2-.5-.3-.9-.3c-.3 0-.5.1-.8.3c-.2.2-.3.5-.3.8zm3.5 1.2c0 0 .6-.1.6-.1c.1.2.2.4.3.6c.2.1.4.2.8.2c.3 0 .5-.1.6-.2c.2-.1.3-.3.3-.4c0-.2-.1-.3-.2-.4c-.1-.1-.4-.1-.7-.2c-.5-.1-.9-.3-1-.3c-.2-.1-.4-.3-.5-.4c-.1-.2-.1-.4-.1-.6c0-.1 0-.3.1-.4c.1-.2.2-.3.3-.4c.1-.1.3-.2.5-.2c.1-.1.3-.1.5-.1c.3 0 .6.1.9.1c.2.1.4.3.5.4c.1.2.2.4.2.6c0 0-.7.1-.7.1c0-.2-.1-.4-.2-.5c-.2-.1-.4-.1-.6-.1c-.3 0-.5 0-.7.1c-.1.1-.2.2-.2.4c0 .1.1.1.1.2c.1.1.1.1.3.2c0 0 .2.1.6.2c.4.1.8.2 1 .3c.1 0 .3.2.4.3c.1.2.2.4.2.6c0 .2-.1.4-.2.6c-.2.2-.4.4-.6.5c-.3.1-.5.1-.8.1c-.6 0-.9-.1-1.2-.3c-.3-.2-.5-.5-.5-.9z" stroke="none" fill="#ffffff"/></g></svg>