<?xml version="1.0" standalone="no"?>
<!DOCTYPE svg PUBLIC "-//W3C//DTD SVG 1.1//EN" "http://www.w3.org/Graphics/SVG/1.1/DTD/svg11.dtd">
<svg xmlns="http://www.w3.org/2000/svg" version="1.1" width="66.4px" height="41.3px" viewBox="0 -7 66.4 41.3" style="top:-7px">
  <desc>10,723</desc>
  <defs/>
  <g id="Polygon62834">
    <path d="M 7.6 14.8 L 5.8 14.8 C 5.8 14.8 5.78 3.41 5.8 3.4 C 5.4 3.8 4.8 4.2 4.1 4.6 C 3.4 5.1 2.8 5.4 2.2 5.6 C 2.2 5.6 2.2 3.8 2.2 3.8 C 3.2 3.4 4.1 2.8 4.8 2.1 C 5.6 1.5 6.1 0.8 6.4 0.2 C 6.42 0.19 7.6 0.2 7.6 0.2 L 7.6 14.8 Z M 13.6 13.5 C 12.6 12.3 12.1 10.3 12.1 7.6 C 12.1 5.9 12.3 4.5 12.7 3.5 C 13 2.4 13.5 1.6 14.2 1 C 14.9 0.5 15.8 0.2 16.9 0.2 C 17.7 0.2 18.3 0.3 18.9 0.7 C 19.5 1 20 1.4 20.4 2 C 20.8 2.6 21.1 3.3 21.3 4.2 C 21.5 5 21.6 6.2 21.6 7.6 C 21.6 9.3 21.4 10.7 21.1 11.7 C 20.7 12.8 20.2 13.6 19.5 14.2 C 18.8 14.7 17.9 15 16.9 15 C 15.5 15 14.4 14.5 13.6 13.5 C 13.6 13.5 13.6 13.5 13.6 13.5 Z M 14.9 2.7 C 14.3 3.6 14 5.2 14 7.6 C 14 10 14.3 11.6 14.8 12.4 C 15.4 13.2 16.1 13.6 16.9 13.6 C 17.7 13.6 18.4 13.2 18.9 12.4 C 19.5 11.6 19.8 10 19.8 7.6 C 19.8 5.2 19.5 3.6 18.9 2.8 C 18.4 2.1 17.7 1.7 16.9 1.7 C 16 1.7 15.4 2 14.9 2.7 C 14.9 2.7 14.9 2.7 14.9 2.7 Z M 24.4 14.8 L 24.4 12.8 L 26.4 12.8 C 26.4 12.8 26.43 14.78 26.4 14.8 C 26.4 15.5 26.3 16.1 26 16.6 C 25.8 17.1 25.3 17.4 24.8 17.7 C 24.8 17.7 24.3 16.9 24.3 16.9 C 24.7 16.7 24.9 16.5 25.1 16.2 C 25.3 15.8 25.4 15.4 25.4 14.8 C 25.4 14.78 24.4 14.8 24.4 14.8 Z M 29.2 2.2 L 29.2 0.4 L 38.6 0.4 C 38.6 0.4 38.6 1.82 38.6 1.8 C 37.7 2.8 36.8 4.1 35.9 5.8 C 34.9 7.4 34.2 9.1 33.7 10.8 C 33.4 12 33.2 13.3 33.1 14.8 C 33.1 14.8 31.2 14.8 31.2 14.8 C 31.2 13.6 31.5 12.3 31.9 10.6 C 32.3 9 32.9 7.5 33.7 6 C 34.6 4.5 35.4 3.2 36.3 2.2 C 36.31 2.15 29.2 2.2 29.2 2.2 Z M 49.7 13.1 L 49.7 14.8 C 49.7 14.8 40.14 14.78 40.1 14.8 C 40.1 14.4 40.2 13.9 40.3 13.5 C 40.6 12.9 41 12.2 41.5 11.6 C 42.1 11 42.8 10.2 43.9 9.4 C 45.4 8.1 46.5 7.1 47.1 6.3 C 47.6 5.6 47.9 4.9 47.9 4.2 C 47.9 3.5 47.6 2.9 47.1 2.4 C 46.6 1.9 46 1.7 45.2 1.7 C 44.3 1.7 43.6 1.9 43.1 2.4 C 42.6 3 42.3 3.7 42.3 4.6 C 42.3 4.6 40.5 4.4 40.5 4.4 C 40.6 3 41.1 2 41.9 1.3 C 42.7 0.5 43.8 0.2 45.2 0.2 C 46.6 0.2 47.7 0.6 48.5 1.3 C 49.3 2.1 49.7 3.1 49.7 4.2 C 49.7 4.8 49.6 5.4 49.4 5.9 C 49.1 6.5 48.7 7.1 48.2 7.7 C 47.6 8.3 46.7 9.2 45.4 10.3 C 44.4 11.2 43.7 11.8 43.4 12.1 C 43.1 12.4 42.8 12.7 42.6 13.1 C 42.62 13.07 49.7 13.1 49.7 13.1 Z M 51.7 10.9 C 51.7 10.9 53.5 10.7 53.5 10.7 C 53.7 11.7 54 12.4 54.5 12.9 C 55 13.3 55.6 13.6 56.3 13.6 C 57.1 13.6 57.9 13.3 58.4 12.7 C 59 12.1 59.3 11.4 59.3 10.5 C 59.3 9.7 59 9 58.5 8.5 C 58 8 57.3 7.7 56.5 7.7 C 56.1 7.7 55.7 7.8 55.2 7.9 C 55.2 7.9 55.4 6.3 55.4 6.3 C 55.5 6.3 55.6 6.4 55.7 6.4 C 56.4 6.4 57.1 6.2 57.7 5.8 C 58.3 5.4 58.6 4.8 58.6 3.9 C 58.6 3.3 58.4 2.7 58 2.3 C 57.5 1.9 57 1.7 56.3 1.7 C 55.6 1.7 55 1.9 54.5 2.3 C 54.1 2.7 53.8 3.4 53.6 4.3 C 53.6 4.3 51.9 4 51.9 4 C 52.1 2.8 52.6 1.8 53.3 1.2 C 54.1 0.5 55.1 0.2 56.2 0.2 C 57 0.2 57.7 0.4 58.4 0.7 C 59.1 1 59.6 1.5 59.9 2.1 C 60.3 2.7 60.5 3.3 60.5 4 C 60.5 4.6 60.3 5.2 60 5.7 C 59.6 6.2 59.1 6.6 58.5 6.9 C 59.3 7.1 60 7.5 60.5 8.1 C 61 8.8 61.2 9.6 61.2 10.5 C 61.2 11.8 60.7 12.8 59.8 13.7 C 58.9 14.6 57.7 15 56.3 15 C 55 15 54 14.7 53.1 13.9 C 52.3 13.1 51.8 12.2 51.7 10.9 Z " stroke="none" fill="#54626c"/>
  </g>
</svg>