<?xml version="1.0" standalone="no"?>
<!DOCTYPE svg PUBLIC "-//W3C//DTD SVG 1.1//EN" "http://www.w3.org/Graphics/SVG/1.1/DTD/svg11.dtd">
<svg xmlns="http://www.w3.org/2000/svg" version="1.1" width="280px" height="53.8px" viewBox="0 -1 280 53.8" style="top:-1px">
  <desc>Pro Bono</desc>
  <defs/>
  <g id="Polygon57562">
    <path d="M 41.3 30.6 L 41.3 17.7 C 41.3 17.7 45.48 17.67 45.5 17.7 C 47.1 17.7 48.1 17.7 48.6 17.9 C 49.3 18.1 49.9 18.5 50.4 19.1 C 50.9 19.8 51.2 20.6 51.2 21.6 C 51.2 22.4 51 23.1 50.7 23.6 C 50.5 24.2 50.1 24.6 49.7 24.9 C 49.2 25.2 48.8 25.4 48.3 25.5 C 47.7 25.6 46.8 25.7 45.6 25.7 C 45.61 25.69 43.9 25.7 43.9 25.7 L 43.9 30.6 L 41.3 30.6 Z M 43.9 19.8 L 43.9 23.5 C 43.9 23.5 45.33 23.5 45.3 23.5 C 46.4 23.5 47 23.4 47.4 23.3 C 47.7 23.2 48 23 48.2 22.7 C 48.4 22.4 48.5 22 48.5 21.7 C 48.5 21.2 48.4 20.8 48.1 20.5 C 47.8 20.2 47.5 20 47 19.9 C 46.7 19.9 46.1 19.8 45.2 19.8 C 45.17 19.85 43.9 19.8 43.9 19.8 Z M 55.7 30.6 L 53.2 30.6 L 53.2 21.2 L 55.5 21.2 C 55.5 21.2 55.49 22.55 55.5 22.5 C 55.9 21.9 56.2 21.5 56.5 21.3 C 56.9 21.1 57.2 21 57.6 21 C 58.2 21 58.7 21.2 59.2 21.5 C 59.2 21.5 58.5 23.6 58.5 23.6 C 58.1 23.4 57.7 23.2 57.3 23.2 C 57 23.2 56.7 23.3 56.4 23.5 C 56.2 23.7 56 24 55.9 24.5 C 55.7 25 55.7 26.1 55.7 27.7 C 55.66 27.67 55.7 30.6 55.7 30.6 Z M 59.7 25.8 C 59.7 24.9 59.9 24.1 60.3 23.4 C 60.7 22.6 61.3 22 62.1 21.6 C 62.8 21.2 63.6 21 64.5 21 C 66 21 67.1 21.5 68 22.4 C 68.9 23.3 69.4 24.5 69.4 25.9 C 69.4 27.3 68.9 28.4 68 29.4 C 67.1 30.3 65.9 30.8 64.6 30.8 C 63.7 30.8 62.9 30.6 62.1 30.2 C 61.3 29.8 60.7 29.2 60.3 28.5 C 59.9 27.7 59.7 26.8 59.7 25.8 Z M 62.3 25.9 C 62.3 26.8 62.5 27.5 62.9 28 C 63.4 28.5 63.9 28.8 64.5 28.8 C 65.2 28.8 65.7 28.5 66.2 28 C 66.6 27.5 66.8 26.8 66.8 25.9 C 66.8 25 66.6 24.3 66.2 23.8 C 65.7 23.3 65.2 23 64.5 23 C 63.9 23 63.4 23.3 62.9 23.8 C 62.5 24.3 62.3 25 62.3 25.9 Z M 76.3 17.7 C 76.3 17.7 81.48 17.67 81.5 17.7 C 82.5 17.7 83.3 17.7 83.8 17.8 C 84.3 17.9 84.7 18.1 85.1 18.3 C 85.5 18.6 85.8 19 86.1 19.4 C 86.4 19.9 86.5 20.4 86.5 20.9 C 86.5 21.5 86.3 22.1 86 22.6 C 85.7 23.1 85.2 23.5 84.7 23.7 C 85.5 23.9 86.1 24.3 86.5 24.9 C 86.9 25.4 87.1 26.1 87.1 26.8 C 87.1 27.4 87 28 86.7 28.5 C 86.4 29.1 86.1 29.5 85.6 29.9 C 85.1 30.2 84.5 30.4 83.8 30.5 C 83.4 30.5 82.4 30.5 80.7 30.6 C 80.71 30.55 76.3 30.6 76.3 30.6 L 76.3 17.7 Z M 78.9 19.8 L 78.9 22.8 C 78.9 22.8 80.63 22.79 80.6 22.8 C 81.6 22.8 82.3 22.8 82.5 22.7 C 83 22.7 83.3 22.5 83.6 22.3 C 83.8 22 84 21.7 84 21.3 C 84 20.9 83.8 20.6 83.6 20.3 C 83.4 20.1 83.1 19.9 82.6 19.9 C 82.4 19.8 81.6 19.8 80.4 19.8 C 80.42 19.81 78.9 19.8 78.9 19.8 Z M 78.9 24.9 L 78.9 28.4 C 78.9 28.4 81.33 28.38 81.3 28.4 C 82.3 28.4 82.9 28.4 83.1 28.3 C 83.5 28.2 83.8 28.1 84.1 27.8 C 84.3 27.5 84.4 27.2 84.4 26.7 C 84.4 26.3 84.3 26 84.1 25.7 C 84 25.4 83.7 25.2 83.3 25.1 C 83 25 82.2 24.9 81 24.9 C 81.03 24.94 78.9 24.9 78.9 24.9 Z M 88.7 25.8 C 88.7 24.9 88.9 24.1 89.3 23.4 C 89.7 22.6 90.3 22 91.1 21.6 C 91.8 21.2 92.6 21 93.5 21 C 94.9 21 96.1 21.5 97 22.4 C 97.9 23.3 98.4 24.5 98.4 25.9 C 98.4 27.3 97.9 28.4 97 29.4 C 96.1 30.3 94.9 30.8 93.6 30.8 C 92.7 30.8 91.9 30.6 91.1 30.2 C 90.3 29.8 89.7 29.2 89.3 28.5 C 88.9 27.7 88.7 26.8 88.7 25.8 Z M 91.3 25.9 C 91.3 26.8 91.5 27.5 91.9 28 C 92.4 28.5 92.9 28.8 93.5 28.8 C 94.2 28.8 94.7 28.5 95.2 28 C 95.6 27.5 95.8 26.8 95.8 25.9 C 95.8 25 95.6 24.3 95.2 23.8 C 94.7 23.3 94.2 23 93.5 23 C 92.9 23 92.4 23.3 91.9 23.8 C 91.5 24.3 91.3 25 91.3 25.9 Z M 108.8 30.6 L 106.3 30.6 C 106.3 30.6 106.31 25.79 106.3 25.8 C 106.3 24.8 106.3 24.1 106.2 23.8 C 106 23.5 105.9 23.3 105.6 23.1 C 105.4 23 105.1 22.9 104.8 22.9 C 104.4 22.9 104 23 103.6 23.2 C 103.3 23.5 103.1 23.8 102.9 24.2 C 102.8 24.6 102.7 25.3 102.7 26.3 C 102.75 26.32 102.7 30.6 102.7 30.6 L 100.3 30.6 L 100.3 21.2 L 102.6 21.2 C 102.6 21.2 102.57 22.59 102.6 22.6 C 103.4 21.5 104.4 21 105.6 21 C 106.2 21 106.7 21.1 107.1 21.3 C 107.6 21.5 107.9 21.7 108.2 22.1 C 108.4 22.4 108.6 22.7 108.6 23.1 C 108.7 23.5 108.8 24 108.8 24.8 C 108.78 24.75 108.8 30.6 108.8 30.6 Z M 110.7 25.8 C 110.7 24.9 110.9 24.1 111.3 23.4 C 111.7 22.6 112.3 22 113 21.6 C 113.8 21.2 114.6 21 115.5 21 C 116.9 21 118.1 21.5 119 22.4 C 119.9 23.3 120.3 24.5 120.3 25.9 C 120.3 27.3 119.9 28.4 119 29.4 C 118.1 30.3 116.9 30.8 115.5 30.8 C 114.7 30.8 113.9 30.6 113.1 30.2 C 112.3 29.8 111.7 29.2 111.3 28.5 C 110.9 27.7 110.7 26.8 110.7 25.8 Z M 113.2 25.9 C 113.2 26.8 113.5 27.5 113.9 28 C 114.3 28.5 114.9 28.8 115.5 28.8 C 116.2 28.8 116.7 28.5 117.2 28 C 117.6 27.5 117.8 26.8 117.8 25.9 C 117.8 25 117.6 24.3 117.2 23.8 C 116.7 23.3 116.2 23 115.5 23 C 114.9 23 114.3 23.3 113.9 23.8 C 113.5 24.3 113.2 25 113.2 25.9 Z " stroke="none" fill="#fff"/>
  </g>
</svg>