<?xml version="1.0" standalone="no"?>
<!DOCTYPE svg PUBLIC "-//W3C//DTD SVG 1.1//EN" "http://www.w3.org/Graphics/SVG/1.1/DTD/svg11.dtd">
<svg xmlns="http://www.w3.org/2000/svg" version="1.1" width="149.1px" height="74.6px" viewBox="0 -6 149.1 74.6" style="top:-6px">
  <desc>Environment, Land &amp; Resources Blog</desc>
  <defs/>
  <g id="Polygon61338">
    <path d="M 9.9 33.1 C 9.3 32.7 8.7 32.1 8.1 31.3 C 7.6 31.9 7 32.3 6.5 32.6 C 5.9 32.8 5.3 33 4.6 33 C 3.3 33 2.3 32.6 1.6 31.7 C 1 31 0.7 30.3 0.7 29.4 C 0.7 28.7 1 28 1.5 27.4 C 1.9 26.8 2.7 26.2 3.6 25.8 C 3.1 25.2 2.7 24.6 2.5 24.3 C 2.3 23.9 2.3 23.5 2.3 23.1 C 2.3 22.4 2.5 21.7 3.1 21.2 C 3.7 20.7 4.4 20.4 5.3 20.4 C 6.1 20.4 6.8 20.7 7.3 21.2 C 7.8 21.7 8.1 22.3 8.1 23 C 8.1 24.2 7.3 25.1 5.8 26 C 5.8 26 8 28.7 8 28.7 C 8.2 28.3 8.4 27.7 8.6 27 C 8.6 27 10.1 27.4 10.1 27.4 C 9.9 28.4 9.5 29.3 9 30 C 9.6 30.7 10.2 31.4 10.9 31.9 C 10.95 31.87 9.9 33.1 9.9 33.1 C 9.9 33.1 9.94 33.06 9.9 33.1 Z M 5 25 C 5.7 24.6 6.1 24.3 6.3 24 C 6.5 23.7 6.6 23.4 6.6 23 C 6.6 22.6 6.5 22.3 6.2 22 C 5.9 21.8 5.6 21.6 5.2 21.6 C 4.8 21.6 4.5 21.8 4.2 22 C 3.9 22.3 3.8 22.6 3.8 23 C 3.8 23.2 3.8 23.4 3.9 23.6 C 4 23.8 4.2 24 4.4 24.2 C 4.4 24.2 5 25 5 25 Z M 7.1 30.2 C 7.1 30.2 4.4 26.8 4.4 26.8 C 3.6 27.2 3 27.7 2.8 28.1 C 2.5 28.5 2.3 28.9 2.3 29.3 C 2.3 29.8 2.5 30.3 2.9 30.9 C 3.3 31.4 3.9 31.7 4.6 31.7 C 5 31.7 5.5 31.5 6 31.2 C 6.5 31 6.9 30.6 7.1 30.2 Z M 17.4 32.8 L 17.4 20.6 C 17.4 20.6 22.79 20.61 22.8 20.6 C 23.9 20.6 24.7 20.7 25.3 20.9 C 25.8 21.2 26.3 21.5 26.6 22.1 C 27 22.6 27.1 23.3 27.1 23.9 C 27.1 24.8 26.8 25.5 26.3 26.1 C 25.7 26.7 24.9 27.1 23.7 27.2 C 24.1 27.4 24.4 27.6 24.7 27.8 C 25.1 28.3 25.6 28.8 26 29.5 C 26.01 29.46 28.1 32.8 28.1 32.8 L 26.1 32.8 C 26.1 32.8 24.49 30.24 24.5 30.2 C 24 29.5 23.6 29 23.3 28.6 C 23 28.2 22.7 27.9 22.5 27.8 C 22.3 27.6 22 27.5 21.8 27.4 C 21.6 27.4 21.3 27.4 20.9 27.4 C 20.88 27.37 19 27.4 19 27.4 L 19 32.8 L 17.4 32.8 Z M 19 26 C 19 26 22.47 25.98 22.5 26 C 23.2 26 23.8 25.9 24.2 25.7 C 24.6 25.6 24.9 25.4 25.1 25 C 25.4 24.7 25.5 24.3 25.5 23.9 C 25.5 23.4 25.3 22.9 24.8 22.5 C 24.4 22.1 23.8 22 22.9 22 C 22.86 21.95 19 22 19 22 L 19 26 Z M 35.5 29.9 C 35.5 29.9 37 30.1 37 30.1 C 36.8 31 36.3 31.7 35.7 32.2 C 35 32.7 34.2 33 33.2 33 C 31.9 33 30.8 32.6 30.1 31.8 C 29.3 31 29 29.9 29 28.4 C 29 27 29.3 25.8 30.1 25 C 30.9 24.2 31.9 23.8 33.1 23.8 C 34.3 23.8 35.2 24.2 36 25 C 36.7 25.8 37.1 26.9 37.1 28.4 C 37.1 28.4 37.1 28.6 37.1 28.8 C 37.1 28.8 30.5 28.8 30.5 28.8 C 30.6 29.7 30.8 30.5 31.3 31 C 31.8 31.5 32.4 31.7 33.2 31.7 C 33.7 31.7 34.2 31.6 34.6 31.3 C 35 31 35.3 30.6 35.5 29.9 Z M 30.6 27.5 C 30.6 27.5 35.5 27.5 35.5 27.5 C 35.4 26.8 35.3 26.2 34.9 25.9 C 34.5 25.3 33.9 25 33.1 25 C 32.4 25 31.8 25.2 31.4 25.7 C 30.9 26.1 30.6 26.8 30.6 27.5 Z M 38.3 30.1 C 38.3 30.1 39.8 29.9 39.8 29.9 C 39.9 30.5 40.1 31 40.5 31.3 C 40.9 31.6 41.4 31.7 42.1 31.7 C 42.8 31.7 43.3 31.6 43.6 31.3 C 43.9 31 44.1 30.7 44.1 30.3 C 44.1 30 44 29.7 43.7 29.5 C 43.5 29.4 42.9 29.2 42.1 29 C 41 28.8 40.3 28.5 39.9 28.3 C 39.4 28.1 39.1 27.8 38.9 27.5 C 38.7 27.1 38.6 26.7 38.6 26.3 C 38.6 25.9 38.7 25.5 38.8 25.2 C 39 24.9 39.3 24.6 39.6 24.4 C 39.8 24.2 40.1 24.1 40.5 23.9 C 40.9 23.8 41.4 23.8 41.8 23.8 C 42.5 23.8 43.1 23.9 43.6 24.1 C 44.2 24.3 44.5 24.5 44.8 24.9 C 45 25.2 45.2 25.7 45.3 26.2 C 45.3 26.2 43.8 26.4 43.8 26.4 C 43.8 26 43.6 25.6 43.3 25.4 C 42.9 25.1 42.5 25 41.9 25 C 41.2 25 40.7 25.1 40.4 25.3 C 40.2 25.6 40 25.8 40 26.1 C 40 26.3 40.1 26.5 40.2 26.7 C 40.3 26.8 40.5 26.9 40.8 27 C 40.9 27.1 41.4 27.2 42.1 27.4 C 43.1 27.7 43.9 27.9 44.3 28.1 C 44.7 28.3 45 28.6 45.3 28.9 C 45.5 29.3 45.6 29.7 45.6 30.2 C 45.6 30.7 45.5 31.2 45.2 31.6 C 44.9 32 44.5 32.4 43.9 32.6 C 43.4 32.9 42.8 33 42.1 33 C 40.9 33 40.1 32.7 39.5 32.3 C 38.9 31.8 38.5 31.1 38.3 30.1 Z M 46.9 28.4 C 46.9 26.7 47.3 25.5 48.2 24.7 C 49 24.1 49.9 23.8 51 23.8 C 52.2 23.8 53.2 24.2 54 25 C 54.7 25.7 55.1 26.8 55.1 28.2 C 55.1 29.4 54.9 30.3 54.6 30.9 C 54.3 31.6 53.8 32.1 53.1 32.4 C 52.5 32.8 51.8 33 51 33 C 49.8 33 48.8 32.6 48 31.8 C 47.2 31 46.9 29.9 46.9 28.4 Z M 48.4 28.4 C 48.4 29.5 48.6 30.3 49.1 30.9 C 49.6 31.5 50.2 31.7 51 31.7 C 51.7 31.7 52.4 31.5 52.8 30.9 C 53.3 30.3 53.6 29.5 53.6 28.3 C 53.6 27.2 53.3 26.4 52.8 25.8 C 52.3 25.3 51.7 25 51 25 C 50.2 25 49.6 25.3 49.1 25.8 C 48.6 26.4 48.4 27.2 48.4 28.4 Z M 62.6 32.8 C 62.6 32.8 62.65 31.48 62.6 31.5 C 62 32.5 61 33 59.8 33 C 59.3 33 58.8 32.9 58.4 32.7 C 57.9 32.5 57.6 32.2 57.4 31.9 C 57.2 31.6 57 31.3 56.9 30.8 C 56.9 30.5 56.8 30.1 56.8 29.4 C 56.84 29.42 56.8 24 56.8 24 L 58.3 24 C 58.3 24 58.33 28.85 58.3 28.9 C 58.3 29.6 58.4 30.2 58.4 30.4 C 58.5 30.8 58.7 31.1 59 31.4 C 59.3 31.6 59.7 31.7 60.1 31.7 C 60.6 31.7 61 31.6 61.4 31.3 C 61.8 31.1 62.1 30.8 62.2 30.4 C 62.4 30 62.5 29.4 62.5 28.7 C 62.49 28.68 62.5 24 62.5 24 L 64 24 L 64 32.8 L 62.6 32.8 Z M 66.3 32.8 L 66.3 24 L 67.7 24 C 67.7 24 67.65 25.3 67.7 25.3 C 68 24.7 68.3 24.3 68.6 24.1 C 68.9 23.9 69.2 23.8 69.6 23.8 C 70.1 23.8 70.6 23.9 71.1 24.2 C 71.1 24.2 70.6 25.6 70.6 25.6 C 70.2 25.4 69.9 25.3 69.5 25.3 C 69.2 25.3 68.9 25.4 68.6 25.6 C 68.3 25.8 68.2 26.1 68 26.4 C 67.9 26.9 67.8 27.5 67.8 28.2 C 67.8 28.16 67.8 32.8 67.8 32.8 L 66.3 32.8 Z M 77.7 29.5 C 77.7 29.5 79.2 29.7 79.2 29.7 C 79 30.8 78.6 31.5 78 32.1 C 77.3 32.7 76.5 33 75.5 33 C 74.3 33 73.4 32.6 72.6 31.8 C 71.9 31 71.5 29.9 71.5 28.4 C 71.5 27.5 71.7 26.6 72 25.9 C 72.3 25.2 72.8 24.7 73.4 24.3 C 74.1 23.9 74.8 23.8 75.5 23.8 C 76.5 23.8 77.3 24 77.9 24.5 C 78.5 25 78.9 25.7 79.1 26.6 C 79.1 26.6 77.6 26.8 77.6 26.8 C 77.5 26.2 77.2 25.7 76.9 25.4 C 76.5 25.1 76.1 25 75.6 25 C 74.9 25 74.2 25.3 73.8 25.8 C 73.3 26.3 73.1 27.2 73.1 28.4 C 73.1 29.5 73.3 30.4 73.7 30.9 C 74.2 31.5 74.8 31.7 75.5 31.7 C 76.1 31.7 76.6 31.6 77 31.2 C 77.4 30.8 77.6 30.3 77.7 29.5 Z M 86.5 29.9 C 86.5 29.9 88.1 30.1 88.1 30.1 C 87.8 31 87.4 31.7 86.7 32.2 C 86.1 32.7 85.2 33 84.2 33 C 82.9 33 81.9 32.6 81.1 31.8 C 80.4 31 80 29.9 80 28.4 C 80 27 80.4 25.8 81.1 25 C 81.9 24.2 82.9 23.8 84.1 23.8 C 85.3 23.8 86.2 24.2 87 25 C 87.7 25.8 88.1 26.9 88.1 28.4 C 88.1 28.4 88.1 28.6 88.1 28.8 C 88.1 28.8 81.5 28.8 81.5 28.8 C 81.6 29.7 81.9 30.5 82.4 31 C 82.8 31.5 83.5 31.7 84.2 31.7 C 84.7 31.7 85.2 31.6 85.6 31.3 C 86 31 86.3 30.6 86.5 29.9 Z M 81.6 27.5 C 81.6 27.5 86.5 27.5 86.5 27.5 C 86.5 26.8 86.3 26.2 86 25.9 C 85.5 25.3 84.9 25 84.1 25 C 83.4 25 82.9 25.2 82.4 25.7 C 81.9 26.1 81.7 26.8 81.6 27.5 Z M 89.3 30.1 C 89.3 30.1 90.8 29.9 90.8 29.9 C 90.9 30.5 91.1 31 91.5 31.3 C 91.9 31.6 92.4 31.7 93.1 31.7 C 93.8 31.7 94.3 31.6 94.6 31.3 C 95 31 95.1 30.7 95.1 30.3 C 95.1 30 95 29.7 94.7 29.5 C 94.5 29.4 94 29.2 93.2 29 C 92.1 28.8 91.3 28.5 90.9 28.3 C 90.5 28.1 90.1 27.8 89.9 27.5 C 89.7 27.1 89.6 26.7 89.6 26.3 C 89.6 25.9 89.7 25.5 89.9 25.2 C 90 24.9 90.3 24.6 90.6 24.4 C 90.8 24.2 91.1 24.1 91.5 23.9 C 91.9 23.8 92.4 23.8 92.8 23.8 C 93.5 23.8 94.1 23.9 94.7 24.1 C 95.2 24.3 95.6 24.5 95.8 24.9 C 96.1 25.2 96.2 25.7 96.3 26.2 C 96.3 26.2 94.9 26.4 94.9 26.4 C 94.8 26 94.6 25.6 94.3 25.4 C 94 25.1 93.5 25 92.9 25 C 92.3 25 91.8 25.1 91.5 25.3 C 91.2 25.6 91 25.8 91 26.1 C 91 26.3 91.1 26.5 91.2 26.7 C 91.3 26.8 91.5 26.9 91.8 27 C 91.9 27.1 92.4 27.2 93.1 27.4 C 94.2 27.7 94.9 27.9 95.3 28.1 C 95.7 28.3 96.1 28.6 96.3 28.9 C 96.5 29.3 96.7 29.7 96.7 30.2 C 96.7 30.7 96.5 31.2 96.2 31.6 C 95.9 32 95.5 32.4 95 32.6 C 94.4 32.9 93.8 33 93.1 33 C 92 33 91.1 32.7 90.5 32.3 C 89.9 31.8 89.5 31.1 89.3 30.1 Z M 103.3 32.8 L 103.3 20.6 C 103.3 20.6 107.85 20.61 107.9 20.6 C 108.8 20.6 109.5 20.7 110.1 21 C 110.7 21.2 111.1 21.6 111.4 22.1 C 111.7 22.6 111.9 23.2 111.9 23.7 C 111.9 24.2 111.7 24.7 111.5 25.2 C 111.2 25.6 110.8 26 110.2 26.3 C 110.9 26.5 111.5 26.9 111.9 27.4 C 112.3 27.9 112.5 28.5 112.5 29.2 C 112.5 29.8 112.4 30.3 112.1 30.8 C 111.9 31.3 111.6 31.7 111.2 32 C 110.9 32.2 110.4 32.4 109.9 32.6 C 109.4 32.7 108.7 32.8 107.9 32.8 C 107.93 32.78 103.3 32.8 103.3 32.8 Z M 104.9 25.7 C 104.9 25.7 107.53 25.72 107.5 25.7 C 108.2 25.7 108.8 25.7 109.1 25.6 C 109.5 25.5 109.8 25.3 110 25 C 110.2 24.7 110.3 24.3 110.3 23.9 C 110.3 23.5 110.2 23.2 110 22.8 C 109.8 22.5 109.5 22.3 109.2 22.2 C 108.8 22.1 108.2 22 107.3 22 C 107.33 22.04 104.9 22 104.9 22 L 104.9 25.7 Z M 104.9 31.3 C 104.9 31.3 107.93 31.34 107.9 31.3 C 108.4 31.3 108.8 31.3 109 31.3 C 109.4 31.2 109.7 31.1 110 31 C 110.2 30.8 110.4 30.6 110.6 30.3 C 110.7 30 110.8 29.6 110.8 29.2 C 110.8 28.8 110.7 28.4 110.5 28.1 C 110.2 27.7 109.9 27.5 109.5 27.4 C 109.1 27.2 108.5 27.2 107.7 27.2 C 107.71 27.16 104.9 27.2 104.9 27.2 L 104.9 31.3 Z M 114.5 32.8 L 114.5 20.6 L 116 20.6 L 116 32.8 L 114.5 32.8 Z M 117.7 28.4 C 117.7 26.7 118.2 25.5 119.1 24.7 C 119.8 24.1 120.8 23.8 121.9 23.8 C 123.1 23.8 124.1 24.2 124.8 25 C 125.6 25.7 126 26.8 126 28.2 C 126 29.4 125.8 30.3 125.5 30.9 C 125.1 31.6 124.6 32.1 124 32.4 C 123.3 32.8 122.6 33 121.9 33 C 120.6 33 119.6 32.6 118.9 31.8 C 118.1 31 117.7 29.9 117.7 28.4 Z M 119.3 28.4 C 119.3 29.5 119.5 30.3 120 30.9 C 120.5 31.5 121.1 31.7 121.9 31.7 C 122.6 31.7 123.2 31.5 123.7 30.9 C 124.2 30.3 124.4 29.5 124.4 28.3 C 124.4 27.2 124.2 26.4 123.7 25.8 C 123.2 25.3 122.6 25 121.9 25 C 121.1 25 120.5 25.3 120 25.8 C 119.5 26.4 119.3 27.2 119.3 28.4 Z M 127.5 33.5 C 127.5 33.5 128.9 33.7 128.9 33.7 C 129 34.2 129.1 34.5 129.4 34.7 C 129.8 35 130.3 35.1 130.9 35.1 C 131.6 35.1 132.2 35 132.5 34.7 C 132.9 34.4 133.2 34 133.3 33.5 C 133.4 33.2 133.4 32.6 133.4 31.6 C 132.8 32.4 131.9 32.8 131 32.8 C 129.8 32.8 128.8 32.3 128.2 31.5 C 127.5 30.6 127.2 29.5 127.2 28.3 C 127.2 27.5 127.3 26.7 127.6 26 C 127.9 25.3 128.4 24.7 128.9 24.3 C 129.5 24 130.2 23.8 131 23.8 C 132 23.8 132.9 24.2 133.6 25 C 133.55 25.02 133.6 24 133.6 24 L 134.9 24 C 134.9 24 134.93 31.58 134.9 31.6 C 134.9 33 134.8 33.9 134.5 34.5 C 134.2 35.1 133.8 35.5 133.2 35.9 C 132.6 36.2 131.8 36.4 130.9 36.4 C 129.9 36.4 129 36.1 128.4 35.6 C 127.7 35.2 127.4 34.5 127.5 33.5 Z M 128.7 28.2 C 128.7 29.4 128.9 30.2 129.4 30.7 C 129.8 31.3 130.4 31.5 131.1 31.5 C 131.8 31.5 132.4 31.3 132.8 30.7 C 133.3 30.2 133.5 29.4 133.5 28.3 C 133.5 27.2 133.3 26.4 132.8 25.8 C 132.3 25.3 131.8 25 131.1 25 C 130.4 25 129.9 25.3 129.4 25.8 C 128.9 26.3 128.7 27.1 128.7 28.2 Z " stroke="none" fill="#003a5c"/>
  </g>
  <g id="Polygon61337">
    <path d="M 1.3 12.4 L 1.3 0.2 L 10.1 0.2 L 10.1 1.6 L 3 1.6 L 3 5.4 L 9.7 5.4 L 9.7 6.8 L 3 6.8 L 3 10.9 L 10.4 10.9 L 10.4 12.4 L 1.3 12.4 Z M 12.5 12.4 L 12.5 3.6 L 13.8 3.6 C 13.8 3.6 13.8 4.81 13.8 4.8 C 14.5 3.8 15.4 3.4 16.6 3.4 C 17.1 3.4 17.6 3.5 18.1 3.6 C 18.5 3.8 18.9 4.1 19.1 4.4 C 19.3 4.7 19.5 5.1 19.5 5.5 C 19.6 5.8 19.6 6.3 19.6 7 C 19.62 6.96 19.6 12.4 19.6 12.4 L 18.1 12.4 C 18.1 12.4 18.13 7.01 18.1 7 C 18.1 6.4 18.1 6 18 5.6 C 17.8 5.3 17.6 5.1 17.3 4.9 C 17 4.7 16.7 4.7 16.3 4.7 C 15.7 4.7 15.1 4.9 14.6 5.3 C 14.2 5.7 14 6.4 14 7.6 C 13.95 7.56 14 12.4 14 12.4 L 12.5 12.4 Z M 24.4 12.4 L 21 3.6 L 22.6 3.6 C 22.6 3.6 24.48 8.84 24.5 8.8 C 24.7 9.4 24.9 10 25 10.6 C 25.2 10.2 25.4 9.6 25.6 8.9 C 25.6 8.94 27.6 3.6 27.6 3.6 L 29.1 3.6 L 25.8 12.4 L 24.4 12.4 Z M 30.4 1.9 L 30.4 0.2 L 31.9 0.2 L 31.9 1.9 L 30.4 1.9 Z M 30.4 12.4 L 30.4 3.6 L 31.9 3.6 L 31.9 12.4 L 30.4 12.4 Z M 34.2 12.4 L 34.2 3.6 L 35.5 3.6 C 35.5 3.6 35.52 4.9 35.5 4.9 C 35.9 4.3 36.2 3.9 36.5 3.7 C 36.8 3.5 37.1 3.4 37.4 3.4 C 37.9 3.4 38.4 3.5 39 3.8 C 39 3.8 38.4 5.2 38.4 5.2 C 38.1 5 37.7 4.9 37.4 4.9 C 37 4.9 36.7 5 36.5 5.2 C 36.2 5.4 36 5.7 35.9 6 C 35.8 6.5 35.7 7.1 35.7 7.8 C 35.67 7.76 35.7 12.4 35.7 12.4 L 34.2 12.4 Z M 39.3 8 C 39.3 6.3 39.7 5.1 40.7 4.3 C 41.4 3.7 42.3 3.4 43.4 3.4 C 44.6 3.4 45.6 3.8 46.4 4.6 C 47.2 5.3 47.6 6.4 47.6 7.8 C 47.6 9 47.4 9.9 47 10.5 C 46.7 11.2 46.2 11.7 45.6 12 C 44.9 12.4 44.2 12.6 43.4 12.6 C 42.2 12.6 41.2 12.2 40.4 11.4 C 39.7 10.6 39.3 9.5 39.3 8 Z M 40.8 8 C 40.8 9.1 41.1 9.9 41.6 10.5 C 42.1 11.1 42.7 11.3 43.4 11.3 C 44.2 11.3 44.8 11.1 45.3 10.5 C 45.8 9.9 46 9.1 46 7.9 C 46 6.8 45.8 6 45.3 5.4 C 44.8 4.9 44.2 4.6 43.4 4.6 C 42.7 4.6 42.1 4.9 41.6 5.4 C 41.1 6 40.8 6.8 40.8 8 Z M 49.3 12.4 L 49.3 3.6 L 50.7 3.6 C 50.7 3.6 50.65 4.81 50.7 4.8 C 51.3 3.8 52.2 3.4 53.5 3.4 C 54 3.4 54.5 3.5 54.9 3.6 C 55.4 3.8 55.7 4.1 55.9 4.4 C 56.1 4.7 56.3 5.1 56.4 5.5 C 56.4 5.8 56.5 6.3 56.5 7 C 56.47 6.96 56.5 12.4 56.5 12.4 L 55 12.4 C 55 12.4 54.98 7.01 55 7 C 55 6.4 54.9 6 54.8 5.6 C 54.7 5.3 54.5 5.1 54.2 4.9 C 53.9 4.7 53.5 4.7 53.1 4.7 C 52.5 4.7 52 4.9 51.5 5.3 C 51 5.7 50.8 6.4 50.8 7.6 C 50.8 7.56 50.8 12.4 50.8 12.4 L 49.3 12.4 Z M 58.8 12.4 L 58.8 3.6 L 60.1 3.6 C 60.1 3.6 60.1 4.8 60.1 4.8 C 60.4 4.4 60.7 4 61.2 3.8 C 61.7 3.5 62.2 3.4 62.8 3.4 C 63.4 3.4 64 3.5 64.4 3.8 C 64.8 4 65.1 4.4 65.3 4.9 C 66 3.9 66.9 3.4 68 3.4 C 68.9 3.4 69.5 3.6 70 4.1 C 70.5 4.6 70.7 5.3 70.7 6.3 C 70.71 6.33 70.7 12.4 70.7 12.4 L 69.2 12.4 C 69.2 12.4 69.22 6.82 69.2 6.8 C 69.2 6.2 69.2 5.8 69.1 5.5 C 69 5.3 68.8 5.1 68.5 4.9 C 68.3 4.7 68 4.7 67.7 4.7 C 67 4.7 66.5 4.9 66.1 5.3 C 65.7 5.7 65.5 6.3 65.5 7.3 C 65.49 7.25 65.5 12.4 65.5 12.4 L 64 12.4 C 64 12.4 64 6.65 64 6.6 C 64 6 63.9 5.5 63.6 5.2 C 63.4 4.8 63 4.7 62.4 4.7 C 62 4.7 61.6 4.8 61.3 5 C 60.9 5.2 60.7 5.5 60.5 6 C 60.3 6.4 60.3 7 60.3 7.8 C 60.26 7.8 60.3 12.4 60.3 12.4 L 58.8 12.4 Z M 79 9.5 C 79 9.5 80.5 9.7 80.5 9.7 C 80.3 10.6 79.8 11.3 79.1 11.8 C 78.5 12.3 77.6 12.6 76.6 12.6 C 75.3 12.6 74.3 12.2 73.6 11.4 C 72.8 10.6 72.4 9.5 72.4 8 C 72.4 6.6 72.8 5.4 73.6 4.6 C 74.3 3.8 75.3 3.4 76.5 3.4 C 77.7 3.4 78.7 3.8 79.4 4.6 C 80.2 5.4 80.6 6.5 80.6 8 C 80.6 8 80.5 8.2 80.5 8.4 C 80.5 8.4 74 8.4 74 8.4 C 74 9.3 74.3 10.1 74.8 10.6 C 75.3 11.1 75.9 11.3 76.6 11.3 C 77.2 11.3 77.6 11.2 78 10.9 C 78.4 10.6 78.7 10.2 79 9.5 Z M 74.1 7.1 C 74.1 7.1 79 7.1 79 7.1 C 78.9 6.4 78.7 5.8 78.4 5.5 C 77.9 4.9 77.3 4.6 76.6 4.6 C 75.9 4.6 75.3 4.8 74.8 5.3 C 74.4 5.7 74.1 6.4 74.1 7.1 Z M 82.4 12.4 L 82.4 3.6 L 83.7 3.6 C 83.7 3.6 83.72 4.81 83.7 4.8 C 84.4 3.8 85.3 3.4 86.5 3.4 C 87.1 3.4 87.5 3.5 88 3.6 C 88.4 3.8 88.8 4.1 89 4.4 C 89.2 4.7 89.4 5.1 89.5 5.5 C 89.5 5.8 89.5 6.3 89.5 7 C 89.54 6.96 89.5 12.4 89.5 12.4 L 88 12.4 C 88 12.4 88.05 7.01 88 7 C 88 6.4 88 6 87.9 5.6 C 87.8 5.3 87.5 5.1 87.3 4.9 C 87 4.7 86.6 4.7 86.2 4.7 C 85.6 4.7 85 4.9 84.6 5.3 C 84.1 5.7 83.9 6.4 83.9 7.6 C 83.87 7.56 83.9 12.4 83.9 12.4 L 82.4 12.4 Z M 94.4 11.1 C 94.6 11.1 94.8 11.1 95.1 11 C 95.1 11 95.3 12.4 95.3 12.4 C 94.9 12.4 94.5 12.5 94.2 12.5 C 93.6 12.5 93.2 12.4 92.9 12.2 C 92.6 12.1 92.4 11.8 92.3 11.6 C 92.2 11.3 92.1 10.7 92.1 9.8 C 92.11 9.79 92.1 4.7 92.1 4.7 L 91 4.7 L 91 3.6 L 92.1 3.6 L 92.1 1.4 L 93.6 0.5 L 93.6 3.6 L 95.1 3.6 L 95.1 4.7 L 93.6 4.7 C 93.6 4.7 93.59 9.88 93.6 9.9 C 93.6 10.3 93.6 10.6 93.7 10.7 C 93.7 10.8 93.8 10.9 93.9 11 C 94 11.1 94.2 11.1 94.4 11.1 C 94.4 11.1 94.4 11.1 94.4 11.1 Z M 96.9 12.4 L 96.9 10.7 L 98.6 10.7 C 98.6 10.7 98.65 12.38 98.6 12.4 C 98.6 13 98.5 13.5 98.3 13.9 C 98.1 14.3 97.7 14.6 97.3 14.8 C 97.3 14.8 96.8 14.1 96.8 14.1 C 97.2 14 97.4 13.8 97.5 13.5 C 97.7 13.3 97.8 12.9 97.8 12.4 C 97.79 12.38 96.9 12.4 96.9 12.4 Z M 106.1 12.4 L 106.1 0.2 L 107.7 0.2 L 107.7 10.9 L 113.7 10.9 L 113.7 12.4 L 106.1 12.4 Z M 121.5 12.4 C 121.4 12.1 121.3 11.7 121.2 11.3 C 120.7 11.8 120.1 12.1 119.6 12.3 C 119.1 12.5 118.5 12.6 118 12.6 C 117 12.6 116.2 12.3 115.7 11.9 C 115.2 11.4 114.9 10.8 114.9 10.1 C 114.9 9.6 115 9.2 115.2 8.9 C 115.4 8.5 115.7 8.2 116 8 C 116.3 7.8 116.7 7.6 117.1 7.5 C 117.4 7.4 117.8 7.4 118.4 7.3 C 119.6 7.2 120.5 7 121.1 6.8 C 121.1 6.6 121.1 6.4 121.1 6.4 C 121.1 5.8 121 5.4 120.7 5.1 C 120.3 4.8 119.7 4.6 119 4.6 C 118.3 4.6 117.7 4.7 117.4 5 C 117.1 5.2 116.8 5.7 116.7 6.3 C 116.7 6.3 115.2 6.1 115.2 6.1 C 115.3 5.5 115.6 4.9 115.9 4.6 C 116.2 4.2 116.6 3.9 117.2 3.7 C 117.8 3.5 118.4 3.4 119.2 3.4 C 119.9 3.4 120.5 3.5 121 3.6 C 121.5 3.8 121.8 4 122.1 4.3 C 122.3 4.6 122.4 4.9 122.5 5.3 C 122.6 5.6 122.6 6 122.6 6.7 C 122.6 6.7 122.6 8.7 122.6 8.7 C 122.6 10.1 122.6 11 122.7 11.3 C 122.8 11.7 122.9 12 123.1 12.4 C 123.07 12.38 121.5 12.4 121.5 12.4 C 121.5 12.4 121.51 12.38 121.5 12.4 Z M 121.1 8 C 120.5 8.2 119.7 8.4 118.6 8.5 C 118 8.6 117.6 8.7 117.3 8.8 C 117.1 8.9 116.9 9.1 116.8 9.3 C 116.6 9.5 116.5 9.8 116.5 10 C 116.5 10.4 116.7 10.7 117 11 C 117.3 11.3 117.7 11.4 118.3 11.4 C 118.9 11.4 119.4 11.3 119.9 11 C 120.3 10.8 120.6 10.4 120.8 10 C 121 9.7 121.1 9.2 121.1 8.5 C 121.1 8.5 121.1 8 121.1 8 Z M 124.9 12.4 L 124.9 3.6 L 126.3 3.6 C 126.3 3.6 126.25 4.81 126.3 4.8 C 126.9 3.8 127.8 3.4 129.1 3.4 C 129.6 3.4 130.1 3.5 130.5 3.6 C 131 3.8 131.3 4.1 131.5 4.4 C 131.7 4.7 131.9 5.1 132 5.5 C 132 5.8 132.1 6.3 132.1 7 C 132.07 6.96 132.1 12.4 132.1 12.4 L 130.6 12.4 C 130.6 12.4 130.58 7.01 130.6 7 C 130.6 6.4 130.5 6 130.4 5.6 C 130.3 5.3 130.1 5.1 129.8 4.9 C 129.5 4.7 129.1 4.7 128.7 4.7 C 128.1 4.7 127.6 4.9 127.1 5.3 C 126.6 5.7 126.4 6.4 126.4 7.6 C 126.4 7.56 126.4 12.4 126.4 12.4 L 124.9 12.4 Z M 140.1 12.4 C 140.1 12.4 140.08 11.26 140.1 11.3 C 139.5 12.1 138.7 12.6 137.6 12.6 C 136.9 12.6 136.3 12.4 135.7 12 C 135.1 11.6 134.6 11.1 134.3 10.4 C 134 9.7 133.8 8.9 133.8 8 C 133.8 7.1 134 6.3 134.3 5.6 C 134.6 4.9 135 4.3 135.6 3.9 C 136.2 3.6 136.8 3.4 137.6 3.4 C 138.1 3.4 138.6 3.5 139 3.7 C 139.4 3.9 139.7 4.2 140 4.6 C 139.98 4.57 140 0.2 140 0.2 L 141.5 0.2 L 141.5 12.4 L 140.1 12.4 Z M 135.4 8 C 135.4 9.1 135.6 9.9 136.1 10.5 C 136.6 11.1 137.1 11.3 137.8 11.3 C 138.4 11.3 139 11.1 139.4 10.5 C 139.9 10 140.1 9.2 140.1 8.1 C 140.1 6.9 139.9 6 139.4 5.4 C 138.9 4.9 138.4 4.6 137.7 4.6 C 137 4.6 136.5 4.9 136 5.4 C 135.6 6 135.4 6.8 135.4 8 Z " stroke="none" fill="#003a5c"/>
  </g>
</svg>