<?xml version="1.0" standalone="no"?>
<!DOCTYPE svg PUBLIC "-//W3C//DTD SVG 1.1//EN" "http://www.w3.org/Graphics/SVG/1.1/DTD/svg11.dtd">
<svg xmlns="http://www.w3.org/2000/svg" version="1.1" width="216.3px" height="40.7px" viewBox="0 -5 216.3 40.7" style="top:-5px">
  <desc>Principles for Responsible Investment</desc>
  <defs/>
  <g id="Polygon60646">
    <path d="M 1 9.4 L 1 0.2 C 1 0.2 4.5 0.16 4.5 0.2 C 5.1 0.2 5.6 0.2 5.9 0.2 C 6.4 0.3 6.8 0.5 7.1 0.7 C 7.4 0.9 7.6 1.2 7.8 1.6 C 8 2 8.1 2.4 8.1 2.8 C 8.1 3.6 7.8 4.3 7.3 4.8 C 6.8 5.4 5.9 5.7 4.6 5.7 C 4.61 5.67 2.2 5.7 2.2 5.7 L 2.2 9.4 L 1 9.4 Z M 2.2 4.6 C 2.2 4.6 4.63 4.57 4.6 4.6 C 5.4 4.6 6 4.4 6.3 4.1 C 6.7 3.8 6.8 3.4 6.8 2.9 C 6.8 2.5 6.7 2.2 6.5 1.9 C 6.3 1.6 6.1 1.4 5.8 1.3 C 5.5 1.3 5.2 1.3 4.6 1.3 C 4.6 1.25 2.2 1.3 2.2 1.3 L 2.2 4.6 Z M 9.3 9.4 L 9.3 2.7 L 10.3 2.7 C 10.3 2.7 10.35 3.74 10.3 3.7 C 10.6 3.3 10.8 2.9 11.1 2.8 C 11.3 2.6 11.5 2.6 11.8 2.6 C 12.2 2.6 12.6 2.7 13 2.9 C 13 2.9 12.6 4 12.6 4 C 12.3 3.8 12 3.7 11.7 3.7 C 11.5 3.7 11.3 3.8 11.1 4 C 10.9 4.1 10.7 4.3 10.7 4.6 C 10.5 5 10.5 5.4 10.5 5.9 C 10.46 5.92 10.5 9.4 10.5 9.4 L 9.3 9.4 Z M 13.8 1.5 L 13.8 0.2 L 14.9 0.2 L 14.9 1.5 L 13.8 1.5 Z M 13.8 9.4 L 13.8 2.7 L 14.9 2.7 L 14.9 9.4 L 13.8 9.4 Z M 16.5 9.4 L 16.5 2.7 L 17.6 2.7 C 17.6 2.7 17.56 3.67 17.6 3.7 C 18.1 2.9 18.8 2.6 19.7 2.6 C 20.1 2.6 20.5 2.6 20.8 2.8 C 21.2 2.9 21.4 3.1 21.6 3.4 C 21.8 3.6 21.9 3.9 21.9 4.2 C 22 4.4 22 4.8 22 5.3 C 22 5.31 22 9.4 22 9.4 L 20.9 9.4 C 20.9 9.4 20.86 5.35 20.9 5.4 C 20.9 4.9 20.8 4.5 20.7 4.3 C 20.6 4.1 20.5 3.9 20.3 3.8 C 20 3.6 19.8 3.6 19.5 3.6 C 19 3.6 18.6 3.7 18.2 4 C 17.9 4.3 17.7 4.9 17.7 5.8 C 17.68 5.77 17.7 9.4 17.7 9.4 L 16.5 9.4 Z M 28 7 C 28 7 29.2 7.1 29.2 7.1 C 29 7.9 28.7 8.5 28.2 8.9 C 27.7 9.4 27.1 9.6 26.4 9.6 C 25.4 9.6 24.7 9.3 24.1 8.7 C 23.6 8.1 23.3 7.2 23.3 6.1 C 23.3 5.4 23.4 4.7 23.7 4.2 C 23.9 3.7 24.3 3.2 24.8 3 C 25.3 2.7 25.8 2.6 26.4 2.6 C 27.1 2.6 27.7 2.7 28.2 3.1 C 28.6 3.5 28.9 4 29.1 4.7 C 29.1 4.7 27.9 4.9 27.9 4.9 C 27.8 4.4 27.6 4.1 27.4 3.8 C 27.1 3.6 26.8 3.5 26.4 3.5 C 25.8 3.5 25.4 3.7 25 4.1 C 24.7 4.5 24.5 5.2 24.5 6.1 C 24.5 7 24.6 7.6 25 8 C 25.3 8.5 25.8 8.7 26.3 8.7 C 26.8 8.7 27.2 8.5 27.5 8.2 C 27.8 8 28 7.5 28 7 Z M 30.2 1.5 L 30.2 0.2 L 31.3 0.2 L 31.3 1.5 L 30.2 1.5 Z M 30.2 9.4 L 30.2 2.7 L 31.3 2.7 L 31.3 9.4 L 30.2 9.4 Z M 33 12 L 33 2.7 L 34 2.7 C 34 2.7 34 3.59 34 3.6 C 34.2 3.2 34.5 3 34.8 2.8 C 35.1 2.7 35.5 2.6 36 2.6 C 36.5 2.6 37 2.7 37.5 3 C 37.9 3.3 38.2 3.7 38.5 4.3 C 38.7 4.8 38.8 5.4 38.8 6 C 38.8 6.7 38.7 7.3 38.4 7.9 C 38.2 8.4 37.8 8.9 37.4 9.2 C 36.9 9.4 36.4 9.6 35.9 9.6 C 35.5 9.6 35.2 9.5 34.8 9.4 C 34.5 9.2 34.3 9 34.1 8.7 C 34.11 8.75 34.1 12 34.1 12 L 33 12 Z M 34 6.1 C 34 7 34.2 7.6 34.5 8 C 34.9 8.5 35.3 8.7 35.8 8.7 C 36.3 8.7 36.7 8.4 37.1 8 C 37.5 7.6 37.6 6.9 37.6 6 C 37.6 5.2 37.5 4.5 37.1 4.1 C 36.8 3.7 36.3 3.5 35.8 3.5 C 35.4 3.5 34.9 3.7 34.6 4.1 C 34.2 4.6 34 5.3 34 6.1 Z M 40.1 9.4 L 40.1 0.2 L 41.2 0.2 L 41.2 9.4 L 40.1 9.4 Z M 47.5 7.3 C 47.5 7.3 48.7 7.4 48.7 7.4 C 48.5 8.1 48.2 8.6 47.7 9 C 47.2 9.4 46.5 9.6 45.8 9.6 C 44.8 9.6 44 9.3 43.4 8.7 C 42.8 8.1 42.6 7.2 42.6 6.1 C 42.6 5 42.9 4.1 43.4 3.5 C 44 2.9 44.8 2.6 45.7 2.6 C 46.6 2.6 47.3 2.9 47.9 3.5 C 48.5 4.1 48.8 5 48.8 6.1 C 48.8 6.1 48.8 6.2 48.8 6.4 C 48.8 6.4 43.7 6.4 43.7 6.4 C 43.8 7.1 44 7.7 44.4 8.1 C 44.7 8.5 45.2 8.7 45.8 8.7 C 46.2 8.7 46.5 8.5 46.8 8.3 C 47.1 8.1 47.4 7.8 47.5 7.3 Z M 43.8 5.4 C 43.8 5.4 47.6 5.4 47.6 5.4 C 47.5 4.9 47.4 4.4 47.1 4.2 C 46.8 3.7 46.3 3.5 45.7 3.5 C 45.2 3.5 44.8 3.7 44.4 4 C 44 4.4 43.8 4.8 43.8 5.4 Z M 49.7 7.4 C 49.7 7.4 50.8 7.3 50.8 7.3 C 50.9 7.7 51 8.1 51.3 8.3 C 51.6 8.5 52 8.7 52.5 8.7 C 53.1 8.7 53.4 8.6 53.7 8.3 C 53.9 8.1 54.1 7.9 54.1 7.6 C 54.1 7.3 54 7.1 53.7 7 C 53.6 6.9 53.2 6.7 52.6 6.6 C 51.7 6.4 51.2 6.2 50.8 6 C 50.5 5.9 50.3 5.7 50.1 5.4 C 49.9 5.1 49.9 4.8 49.9 4.5 C 49.9 4.2 49.9 3.9 50.1 3.7 C 50.2 3.4 50.4 3.2 50.6 3 C 50.8 2.9 51 2.8 51.3 2.7 C 51.6 2.6 52 2.6 52.3 2.6 C 52.9 2.6 53.3 2.6 53.7 2.8 C 54.1 2.9 54.4 3.2 54.6 3.4 C 54.8 3.7 54.9 4 55 4.5 C 55 4.5 53.9 4.6 53.9 4.6 C 53.8 4.3 53.7 4 53.4 3.8 C 53.2 3.6 52.9 3.5 52.4 3.5 C 51.9 3.5 51.5 3.6 51.3 3.8 C 51.1 3.9 51 4.1 51 4.4 C 51 4.5 51 4.7 51.1 4.8 C 51.2 4.9 51.3 5 51.5 5.1 C 51.6 5.1 52 5.2 52.5 5.4 C 53.3 5.6 53.9 5.8 54.2 5.9 C 54.5 6 54.8 6.2 55 6.5 C 55.2 6.8 55.2 7.1 55.2 7.5 C 55.2 7.8 55.1 8.2 54.9 8.5 C 54.7 8.9 54.4 9.1 54 9.3 C 53.5 9.5 53.1 9.6 52.5 9.6 C 51.7 9.6 51 9.4 50.5 9 C 50.1 8.7 49.8 8.1 49.7 7.4 Z M 60.5 9.4 L 60.5 3.6 L 59.5 3.6 L 59.5 2.7 L 60.5 2.7 C 60.5 2.7 60.48 2 60.5 2 C 60.5 1.5 60.5 1.2 60.6 1 C 60.7 0.7 60.9 0.5 61.2 0.3 C 61.5 0.1 61.8 0 62.3 0 C 62.7 0 63 0 63.4 0.1 C 63.4 0.1 63.2 1.1 63.2 1.1 C 63 1.1 62.8 1 62.6 1 C 62.2 1 62 1.1 61.8 1.3 C 61.7 1.4 61.6 1.7 61.6 2.1 C 61.61 2.1 61.6 2.7 61.6 2.7 L 62.9 2.7 L 62.9 3.6 L 61.6 3.6 L 61.6 9.4 L 60.5 9.4 Z M 63.3 6.1 C 63.3 4.8 63.6 3.9 64.3 3.3 C 64.9 2.8 65.6 2.6 66.4 2.6 C 67.4 2.6 68.1 2.9 68.7 3.5 C 69.3 4.1 69.6 4.9 69.6 6 C 69.6 6.9 69.5 7.5 69.2 8 C 68.9 8.5 68.6 8.9 68.1 9.2 C 67.6 9.5 67 9.6 66.4 9.6 C 65.5 9.6 64.7 9.3 64.2 8.7 C 63.6 8.1 63.3 7.2 63.3 6.1 Z M 64.5 6.1 C 64.5 6.9 64.6 7.6 65 8 C 65.4 8.4 65.9 8.7 66.4 8.7 C 67 8.7 67.5 8.4 67.9 8 C 68.2 7.6 68.4 6.9 68.4 6 C 68.4 5.2 68.2 4.6 67.8 4.2 C 67.5 3.7 67 3.5 66.4 3.5 C 65.9 3.5 65.4 3.7 65 4.1 C 64.6 4.6 64.5 5.2 64.5 6.1 Z M 70.9 9.4 L 70.9 2.7 L 71.9 2.7 C 71.9 2.7 71.9 3.74 71.9 3.7 C 72.2 3.3 72.4 2.9 72.6 2.8 C 72.8 2.6 73.1 2.6 73.4 2.6 C 73.7 2.6 74.1 2.7 74.5 2.9 C 74.5 2.9 74.1 4 74.1 4 C 73.9 3.8 73.6 3.7 73.3 3.7 C 73.1 3.7 72.8 3.8 72.6 4 C 72.4 4.1 72.3 4.3 72.2 4.6 C 72.1 5 72 5.4 72 5.9 C 72.01 5.92 72 9.4 72 9.4 L 70.9 9.4 Z M 79 9.4 L 79 0.2 C 79 0.2 83.09 0.16 83.1 0.2 C 83.9 0.2 84.5 0.2 85 0.4 C 85.4 0.6 85.8 0.9 86 1.3 C 86.3 1.7 86.4 2.2 86.4 2.7 C 86.4 3.4 86.2 3.9 85.8 4.4 C 85.3 4.8 84.7 5.1 83.8 5.2 C 84.1 5.4 84.4 5.5 84.5 5.7 C 84.9 6 85.2 6.4 85.5 6.9 C 85.54 6.92 87.2 9.4 87.2 9.4 L 85.6 9.4 C 85.6 9.4 84.38 7.51 84.4 7.5 C 84 7 83.7 6.5 83.5 6.2 C 83.3 5.9 83.1 5.7 82.9 5.6 C 82.7 5.5 82.5 5.4 82.3 5.4 C 82.2 5.3 81.9 5.3 81.6 5.3 C 81.63 5.32 80.2 5.3 80.2 5.3 L 80.2 9.4 L 79 9.4 Z M 80.2 4.3 C 80.2 4.3 82.84 4.26 82.8 4.3 C 83.4 4.3 83.8 4.2 84.2 4.1 C 84.5 4 84.7 3.8 84.9 3.5 C 85 3.3 85.1 3 85.1 2.7 C 85.1 2.3 85 1.9 84.7 1.6 C 84.3 1.3 83.8 1.2 83.1 1.2 C 83.14 1.18 80.2 1.2 80.2 1.2 L 80.2 4.3 Z M 92.5 7.3 C 92.5 7.3 93.7 7.4 93.7 7.4 C 93.5 8.1 93.2 8.6 92.7 9 C 92.2 9.4 91.5 9.6 90.8 9.6 C 89.8 9.6 89 9.3 88.4 8.7 C 87.8 8.1 87.6 7.2 87.6 6.1 C 87.6 5 87.8 4.1 88.4 3.5 C 89 2.9 89.8 2.6 90.7 2.6 C 91.6 2.6 92.3 2.9 92.9 3.5 C 93.5 4.1 93.8 5 93.8 6.1 C 93.8 6.1 93.8 6.2 93.7 6.4 C 93.7 6.4 88.7 6.4 88.7 6.4 C 88.8 7.1 89 7.7 89.4 8.1 C 89.7 8.5 90.2 8.7 90.8 8.7 C 91.2 8.7 91.5 8.5 91.8 8.3 C 92.1 8.1 92.4 7.8 92.5 7.3 Z M 88.8 5.4 C 88.8 5.4 92.6 5.4 92.6 5.4 C 92.5 4.9 92.4 4.4 92.1 4.2 C 91.8 3.7 91.3 3.5 90.7 3.5 C 90.2 3.5 89.7 3.7 89.4 4 C 89 4.4 88.8 4.8 88.8 5.4 Z M 94.7 7.4 C 94.7 7.4 95.8 7.3 95.8 7.3 C 95.8 7.7 96 8.1 96.3 8.3 C 96.6 8.5 97 8.7 97.5 8.7 C 98 8.7 98.4 8.6 98.7 8.3 C 98.9 8.1 99.1 7.9 99.1 7.6 C 99.1 7.3 99 7.1 98.7 7 C 98.6 6.9 98.2 6.7 97.6 6.6 C 96.7 6.4 96.2 6.2 95.8 6 C 95.5 5.9 95.3 5.7 95.1 5.4 C 94.9 5.1 94.8 4.8 94.8 4.5 C 94.8 4.2 94.9 3.9 95.1 3.7 C 95.2 3.4 95.4 3.2 95.6 3 C 95.8 2.9 96 2.8 96.3 2.7 C 96.6 2.6 97 2.6 97.3 2.6 C 97.9 2.6 98.3 2.6 98.7 2.8 C 99.1 2.9 99.4 3.2 99.6 3.4 C 99.8 3.7 99.9 4 100 4.5 C 100 4.5 98.9 4.6 98.9 4.6 C 98.8 4.3 98.7 4 98.4 3.8 C 98.2 3.6 97.8 3.5 97.4 3.5 C 96.9 3.5 96.5 3.6 96.3 3.8 C 96.1 3.9 95.9 4.1 95.9 4.4 C 95.9 4.5 96 4.7 96.1 4.8 C 96.2 4.9 96.3 5 96.5 5.1 C 96.6 5.1 97 5.2 97.5 5.4 C 98.3 5.6 98.9 5.8 99.2 5.9 C 99.5 6 99.8 6.2 100 6.5 C 100.2 6.8 100.2 7.1 100.2 7.5 C 100.2 7.8 100.1 8.2 99.9 8.5 C 99.7 8.9 99.4 9.1 99 9.3 C 98.5 9.5 98.1 9.6 97.5 9.6 C 96.7 9.6 96 9.4 95.5 9 C 95.1 8.7 94.8 8.1 94.7 7.4 Z M 101.5 12 L 101.5 2.7 L 102.5 2.7 C 102.5 2.7 102.54 3.59 102.5 3.6 C 102.8 3.2 103.1 3 103.4 2.8 C 103.7 2.7 104.1 2.6 104.5 2.6 C 105.1 2.6 105.6 2.7 106 3 C 106.4 3.3 106.8 3.7 107 4.3 C 107.2 4.8 107.3 5.4 107.3 6 C 107.3 6.7 107.2 7.3 107 7.9 C 106.7 8.4 106.4 8.9 105.9 9.2 C 105.4 9.4 104.9 9.6 104.4 9.6 C 104 9.6 103.7 9.5 103.4 9.4 C 103.1 9.2 102.8 9 102.6 8.7 C 102.64 8.75 102.6 12 102.6 12 L 101.5 12 Z M 102.5 6.1 C 102.5 7 102.7 7.6 103.1 8 C 103.4 8.5 103.8 8.7 104.3 8.7 C 104.8 8.7 105.3 8.4 105.6 8 C 106 7.6 106.2 6.9 106.2 6 C 106.2 5.2 106 4.5 105.6 4.1 C 105.3 3.7 104.9 3.5 104.4 3.5 C 103.9 3.5 103.5 3.7 103.1 4.1 C 102.7 4.6 102.5 5.3 102.5 6.1 Z M 108.3 6.1 C 108.3 4.8 108.6 3.9 109.3 3.3 C 109.9 2.8 110.6 2.6 111.4 2.6 C 112.3 2.6 113.1 2.9 113.7 3.5 C 114.3 4.1 114.6 4.9 114.6 6 C 114.6 6.9 114.4 7.5 114.2 8 C 113.9 8.5 113.5 8.9 113 9.2 C 112.5 9.5 112 9.6 111.4 9.6 C 110.5 9.6 109.7 9.3 109.1 8.7 C 108.6 8.1 108.3 7.2 108.3 6.1 Z M 109.4 6.1 C 109.4 6.9 109.6 7.6 110 8 C 110.4 8.4 110.8 8.7 111.4 8.7 C 112 8.7 112.5 8.4 112.8 8 C 113.2 7.6 113.4 6.9 113.4 6 C 113.4 5.2 113.2 4.6 112.8 4.2 C 112.5 3.7 112 3.5 111.4 3.5 C 110.8 3.5 110.4 3.7 110 4.1 C 109.6 4.6 109.4 5.2 109.4 6.1 Z M 115.9 9.4 L 115.9 2.7 L 116.9 2.7 C 116.9 2.7 116.89 3.67 116.9 3.7 C 117.4 2.9 118.1 2.6 119 2.6 C 119.4 2.6 119.8 2.6 120.1 2.8 C 120.5 2.9 120.7 3.1 120.9 3.4 C 121.1 3.6 121.2 3.9 121.3 4.2 C 121.3 4.4 121.3 4.8 121.3 5.3 C 121.33 5.31 121.3 9.4 121.3 9.4 L 120.2 9.4 C 120.2 9.4 120.19 5.35 120.2 5.4 C 120.2 4.9 120.1 4.5 120.1 4.3 C 120 4.1 119.8 3.9 119.6 3.8 C 119.4 3.6 119.1 3.6 118.8 3.6 C 118.3 3.6 117.9 3.7 117.5 4 C 117.2 4.3 117 4.9 117 5.8 C 117 5.77 117 9.4 117 9.4 L 115.9 9.4 Z M 122.5 7.4 C 122.5 7.4 123.6 7.3 123.6 7.3 C 123.7 7.7 123.9 8.1 124.2 8.3 C 124.5 8.5 124.9 8.7 125.4 8.7 C 125.9 8.7 126.3 8.6 126.5 8.3 C 126.8 8.1 126.9 7.9 126.9 7.6 C 126.9 7.3 126.8 7.1 126.6 7 C 126.4 6.9 126 6.7 125.4 6.6 C 124.6 6.4 124 6.2 123.7 6 C 123.4 5.9 123.1 5.7 122.9 5.4 C 122.8 5.1 122.7 4.8 122.7 4.5 C 122.7 4.2 122.8 3.9 122.9 3.7 C 123 3.4 123.2 3.2 123.5 3 C 123.6 2.9 123.9 2.8 124.2 2.7 C 124.5 2.6 124.8 2.6 125.2 2.6 C 125.7 2.6 126.2 2.6 126.6 2.8 C 127 2.9 127.3 3.2 127.4 3.4 C 127.6 3.7 127.8 4 127.8 4.5 C 127.8 4.5 126.7 4.6 126.7 4.6 C 126.7 4.3 126.5 4 126.3 3.8 C 126 3.6 125.7 3.5 125.3 3.5 C 124.7 3.5 124.4 3.6 124.1 3.8 C 123.9 3.9 123.8 4.1 123.8 4.4 C 123.8 4.5 123.8 4.7 123.9 4.8 C 124 4.9 124.2 5 124.4 5.1 C 124.5 5.1 124.8 5.2 125.4 5.4 C 126.2 5.6 126.8 5.8 127.1 5.9 C 127.4 6 127.6 6.2 127.8 6.5 C 128 6.8 128.1 7.1 128.1 7.5 C 128.1 7.8 128 8.2 127.8 8.5 C 127.5 8.9 127.2 9.1 126.8 9.3 C 126.4 9.5 125.9 9.6 125.4 9.6 C 124.5 9.6 123.8 9.4 123.4 9 C 122.9 8.7 122.6 8.1 122.5 7.4 Z M 129.4 1.5 L 129.4 0.2 L 130.5 0.2 L 130.5 1.5 L 129.4 1.5 Z M 129.4 9.4 L 129.4 2.7 L 130.5 2.7 L 130.5 9.4 L 129.4 9.4 Z M 133.2 9.4 L 132.1 9.4 L 132.1 0.2 L 133.3 0.2 C 133.3 0.2 133.27 3.47 133.3 3.5 C 133.8 2.9 134.4 2.6 135.1 2.6 C 135.5 2.6 135.9 2.6 136.3 2.8 C 136.7 3 137 3.2 137.2 3.5 C 137.4 3.8 137.6 4.2 137.8 4.6 C 137.9 5 138 5.5 138 6 C 138 7.1 137.7 8 137.1 8.7 C 136.5 9.3 135.9 9.6 135.1 9.6 C 134.3 9.6 133.6 9.3 133.2 8.6 C 133.19 8.6 133.2 9.4 133.2 9.4 Z M 133.2 6 C 133.2 6.8 133.3 7.4 133.5 7.8 C 133.9 8.4 134.3 8.7 135 8.7 C 135.5 8.7 135.9 8.4 136.3 8 C 136.6 7.6 136.8 6.9 136.8 6.1 C 136.8 5.2 136.6 4.5 136.3 4.1 C 135.9 3.7 135.5 3.5 135 3.5 C 134.5 3.5 134.1 3.7 133.7 4.2 C 133.4 4.6 133.2 5.2 133.2 6 Z M 139.3 9.4 L 139.3 0.2 L 140.4 0.2 L 140.4 9.4 L 139.3 9.4 Z M 146.7 7.3 C 146.7 7.3 147.9 7.4 147.9 7.4 C 147.7 8.1 147.4 8.6 146.9 9 C 146.4 9.4 145.7 9.6 144.9 9.6 C 143.9 9.6 143.2 9.3 142.6 8.7 C 142 8.1 141.7 7.2 141.7 6.1 C 141.7 5 142 4.1 142.6 3.5 C 143.2 2.9 143.9 2.6 144.9 2.6 C 145.8 2.6 146.5 2.9 147.1 3.5 C 147.6 4.1 147.9 5 147.9 6.1 C 147.9 6.1 147.9 6.2 147.9 6.4 C 147.9 6.4 142.9 6.4 142.9 6.4 C 142.9 7.1 143.2 7.7 143.5 8.1 C 143.9 8.5 144.4 8.7 144.9 8.7 C 145.4 8.7 145.7 8.5 146 8.3 C 146.3 8.1 146.5 7.8 146.7 7.3 Z M 143 5.4 C 143 5.4 146.7 5.4 146.7 5.4 C 146.7 4.9 146.5 4.4 146.3 4.2 C 145.9 3.7 145.5 3.5 144.9 3.5 C 144.4 3.5 143.9 3.7 143.6 4 C 143.2 4.4 143 4.8 143 5.4 Z M 153.3 9.4 L 153.3 0.2 L 154.5 0.2 L 154.5 9.4 L 153.3 9.4 Z M 156.4 9.4 L 156.4 2.7 L 157.5 2.7 C 157.5 2.7 157.46 3.67 157.5 3.7 C 157.9 2.9 158.7 2.6 159.6 2.6 C 160 2.6 160.4 2.6 160.7 2.8 C 161.1 2.9 161.3 3.1 161.5 3.4 C 161.6 3.6 161.8 3.9 161.8 4.2 C 161.9 4.4 161.9 4.8 161.9 5.3 C 161.89 5.31 161.9 9.4 161.9 9.4 L 160.8 9.4 C 160.8 9.4 160.75 5.35 160.8 5.4 C 160.8 4.9 160.7 4.5 160.6 4.3 C 160.5 4.1 160.4 3.9 160.2 3.8 C 159.9 3.6 159.7 3.6 159.4 3.6 C 158.9 3.6 158.5 3.7 158.1 4 C 157.7 4.3 157.6 4.9 157.6 5.8 C 157.57 5.77 157.6 9.4 157.6 9.4 L 156.4 9.4 Z M 165.2 9.4 L 162.6 2.7 L 163.8 2.7 C 163.8 2.7 165.28 6.74 165.3 6.7 C 165.4 7.2 165.6 7.6 165.7 8.1 C 165.8 7.7 166 7.3 166.1 6.8 C 166.13 6.82 167.6 2.7 167.6 2.7 L 168.8 2.7 L 166.3 9.4 L 165.2 9.4 Z M 174.1 7.3 C 174.1 7.3 175.3 7.4 175.3 7.4 C 175.1 8.1 174.8 8.6 174.3 9 C 173.8 9.4 173.1 9.6 172.3 9.6 C 171.4 9.6 170.6 9.3 170 8.7 C 169.4 8.1 169.1 7.2 169.1 6.1 C 169.1 5 169.4 4.1 170 3.5 C 170.6 2.9 171.4 2.6 172.3 2.6 C 173.2 2.6 173.9 2.9 174.5 3.5 C 175.1 4.1 175.3 5 175.3 6.1 C 175.3 6.1 175.3 6.2 175.3 6.4 C 175.3 6.4 170.3 6.4 170.3 6.4 C 170.4 7.1 170.6 7.7 170.9 8.1 C 171.3 8.5 171.8 8.7 172.4 8.7 C 172.8 8.7 173.1 8.5 173.4 8.3 C 173.7 8.1 174 7.8 174.1 7.3 Z M 170.4 5.4 C 170.4 5.4 174.1 5.4 174.1 5.4 C 174.1 4.9 173.9 4.4 173.7 4.2 C 173.3 3.7 172.9 3.5 172.3 3.5 C 171.8 3.5 171.3 3.7 171 4 C 170.6 4.4 170.4 4.8 170.4 5.4 Z M 176.2 7.4 C 176.2 7.4 177.4 7.3 177.4 7.3 C 177.4 7.7 177.6 8.1 177.9 8.3 C 178.2 8.5 178.6 8.7 179.1 8.7 C 179.6 8.7 180 8.6 180.3 8.3 C 180.5 8.1 180.7 7.9 180.7 7.6 C 180.7 7.3 180.5 7.1 180.3 7 C 180.2 6.9 179.8 6.7 179.2 6.6 C 178.3 6.4 177.7 6.2 177.4 6 C 177.1 5.9 176.9 5.7 176.7 5.4 C 176.5 5.1 176.4 4.8 176.4 4.5 C 176.4 4.2 176.5 3.9 176.6 3.7 C 176.8 3.4 177 3.2 177.2 3 C 177.4 2.9 177.6 2.8 177.9 2.7 C 178.2 2.6 178.6 2.6 178.9 2.6 C 179.4 2.6 179.9 2.6 180.3 2.8 C 180.7 2.9 181 3.2 181.2 3.4 C 181.4 3.7 181.5 4 181.6 4.5 C 181.6 4.5 180.5 4.6 180.5 4.6 C 180.4 4.3 180.3 4 180 3.8 C 179.8 3.6 179.4 3.5 179 3.5 C 178.5 3.5 178.1 3.6 177.9 3.8 C 177.6 3.9 177.5 4.1 177.5 4.4 C 177.5 4.5 177.6 4.7 177.7 4.8 C 177.8 4.9 177.9 5 178.1 5.1 C 178.2 5.1 178.6 5.2 179.1 5.4 C 179.9 5.6 180.5 5.8 180.8 5.9 C 181.1 6 181.4 6.2 181.6 6.5 C 181.7 6.8 181.8 7.1 181.8 7.5 C 181.8 7.8 181.7 8.2 181.5 8.5 C 181.3 8.9 181 9.1 180.5 9.3 C 180.1 9.5 179.6 9.6 179.1 9.6 C 178.2 9.6 177.6 9.4 177.1 9 C 176.7 8.7 176.4 8.1 176.2 7.4 Z M 185 8.5 C 185.2 8.5 185.3 8.5 185.5 8.4 C 185.5 8.4 185.7 9.4 185.7 9.4 C 185.4 9.5 185.1 9.5 184.8 9.5 C 184.4 9.5 184.1 9.5 183.9 9.3 C 183.6 9.2 183.5 9 183.4 8.8 C 183.3 8.6 183.3 8.2 183.3 7.5 C 183.26 7.47 183.3 3.6 183.3 3.6 L 182.4 3.6 L 182.4 2.7 L 183.3 2.7 L 183.3 1.1 L 184.4 0.4 L 184.4 2.7 L 185.5 2.7 L 185.5 3.6 L 184.4 3.6 C 184.4 3.6 184.39 7.54 184.4 7.5 C 184.4 7.9 184.4 8.1 184.4 8.2 C 184.5 8.3 184.6 8.3 184.6 8.4 C 184.7 8.4 184.9 8.5 185 8.5 C 185 8.5 185 8.5 185 8.5 Z M 186.6 9.4 L 186.6 2.7 L 187.6 2.7 C 187.6 2.7 187.65 3.66 187.6 3.7 C 187.9 3.3 188.1 3.1 188.5 2.9 C 188.8 2.7 189.2 2.6 189.7 2.6 C 190.2 2.6 190.6 2.7 190.9 2.9 C 191.2 3.1 191.5 3.4 191.6 3.7 C 192.1 3 192.8 2.6 193.7 2.6 C 194.3 2.6 194.8 2.7 195.2 3.1 C 195.6 3.5 195.7 4.1 195.7 4.8 C 195.74 4.83 195.7 9.4 195.7 9.4 L 194.6 9.4 C 194.6 9.4 194.61 5.21 194.6 5.2 C 194.6 4.7 194.6 4.4 194.5 4.2 C 194.4 4 194.3 3.9 194.1 3.7 C 193.9 3.6 193.7 3.6 193.4 3.6 C 192.9 3.6 192.5 3.7 192.2 4 C 191.9 4.3 191.8 4.8 191.8 5.5 C 191.76 5.53 191.8 9.4 191.8 9.4 L 190.6 9.4 C 190.6 9.4 190.62 5.07 190.6 5.1 C 190.6 4.6 190.5 4.2 190.3 3.9 C 190.2 3.7 189.9 3.6 189.4 3.6 C 189.1 3.6 188.8 3.6 188.5 3.8 C 188.3 4 188.1 4.2 188 4.5 C 187.8 4.9 187.8 5.3 187.8 6 C 187.77 5.95 187.8 9.4 187.8 9.4 L 186.6 9.4 Z M 202 7.3 C 202 7.3 203.2 7.4 203.2 7.4 C 203 8.1 202.6 8.6 202.1 9 C 201.6 9.4 201 9.6 200.2 9.6 C 199.2 9.6 198.4 9.3 197.9 8.7 C 197.3 8.1 197 7.2 197 6.1 C 197 5 197.3 4.1 197.9 3.5 C 198.5 2.9 199.2 2.6 200.1 2.6 C 201 2.6 201.8 2.9 202.3 3.5 C 202.9 4.1 203.2 5 203.2 6.1 C 203.2 6.1 203.2 6.2 203.2 6.4 C 203.2 6.4 198.2 6.4 198.2 6.4 C 198.2 7.1 198.4 7.7 198.8 8.1 C 199.2 8.5 199.6 8.7 200.2 8.7 C 200.6 8.7 201 8.5 201.3 8.3 C 201.6 8.1 201.8 7.8 202 7.3 Z M 198.2 5.4 C 198.2 5.4 202 5.4 202 5.4 C 201.9 4.9 201.8 4.4 201.6 4.2 C 201.2 3.7 200.7 3.5 200.1 3.5 C 199.6 3.5 199.2 3.7 198.8 4 C 198.5 4.4 198.3 4.8 198.2 5.4 Z M 204.5 9.4 L 204.5 2.7 L 205.5 2.7 C 205.5 2.7 205.54 3.67 205.5 3.7 C 206 2.9 206.7 2.6 207.7 2.6 C 208.1 2.6 208.5 2.6 208.8 2.8 C 209.1 2.9 209.4 3.1 209.6 3.4 C 209.7 3.6 209.8 3.9 209.9 4.2 C 210 4.4 210 4.8 210 5.3 C 209.98 5.31 210 9.4 210 9.4 L 208.8 9.4 C 208.8 9.4 208.84 5.35 208.8 5.4 C 208.8 4.9 208.8 4.5 208.7 4.3 C 208.6 4.1 208.5 3.9 208.2 3.8 C 208 3.6 207.7 3.6 207.4 3.6 C 207 3.6 206.5 3.7 206.2 4 C 205.8 4.3 205.7 4.9 205.7 5.8 C 205.65 5.77 205.7 9.4 205.7 9.4 L 204.5 9.4 Z M 213.5 8.5 C 213.6 8.5 213.8 8.5 214 8.4 C 214 8.4 214.2 9.4 214.2 9.4 C 213.9 9.5 213.6 9.5 213.3 9.5 C 212.9 9.5 212.6 9.5 212.4 9.3 C 212.1 9.2 212 9 211.9 8.8 C 211.8 8.6 211.7 8.2 211.7 7.5 C 211.74 7.47 211.7 3.6 211.7 3.6 L 210.9 3.6 L 210.9 2.7 L 211.7 2.7 L 211.7 1.1 L 212.9 0.4 L 212.9 2.7 L 214 2.7 L 214 3.6 L 212.9 3.6 C 212.9 3.6 212.87 7.54 212.9 7.5 C 212.9 7.9 212.9 8.1 212.9 8.2 C 213 8.3 213 8.3 213.1 8.4 C 213.2 8.4 213.3 8.5 213.5 8.5 C 213.5 8.5 213.5 8.5 213.5 8.5 Z " stroke="none" fill="#fff"/>
  </g>
</svg>