<?xml version="1.0" standalone="no"?>
<!DOCTYPE svg PUBLIC "-//W3C//DTD SVG 1.1//EN" "http://www.w3.org/Graphics/SVG/1.1/DTD/svg11.dtd">
<svg xmlns="http://www.w3.org/2000/svg" version="1.1" width="509.5px" height="72.4px" viewBox="0 -11 509.5 72.4" style="top:-11px">
  <desc>Office</desc>
  <defs/>
  <g id="Polygon63859">
    <path d="M 1.5 12.1 C 1.5 8.3 2.6 5.4 4.6 3.2 C 6.7 1.1 9.3 0 12.5 0 C 14.6 0 16.5 0.5 18.2 1.5 C 19.9 2.5 21.2 3.9 22.1 5.7 C 23 7.5 23.5 9.6 23.5 11.9 C 23.5 14.2 23 16.3 22 18.1 C 21.1 19.9 19.8 21.3 18.1 22.3 C 16.3 23.2 14.5 23.7 12.5 23.7 C 10.3 23.7 8.4 23.2 6.7 22.1 C 5 21.1 3.7 19.7 2.9 17.9 C 2 16.1 1.5 14.2 1.5 12.1 Z M 4.7 12.2 C 4.7 14.9 5.4 17.1 6.9 18.7 C 8.4 20.3 10.2 21.1 12.5 21.1 C 14.8 21.1 16.6 20.3 18.1 18.7 C 19.6 17.1 20.3 14.8 20.3 11.9 C 20.3 10 20 8.4 19.4 7 C 18.8 5.6 17.8 4.5 16.6 3.7 C 15.4 3 14 2.6 12.5 2.6 C 10.4 2.6 8.5 3.3 7 4.8 C 5.4 6.3 4.7 8.7 4.7 12.2 Z M 35.8 23.3 L 35.8 8.9 L 30.5 8.9 L 30.5 23.3 L 27.7 23.3 L 27.7 8.9 L 25.2 8.9 L 25.2 6.7 L 27.7 6.7 C 27.7 6.7 27.69 5.09 27.7 5.1 C 27.7 3.4 28 2.2 28.8 1.3 C 29.5 0.4 30.6 0 32.1 0 C 33.1 0 34.1 0.1 35 0.4 C 35 0.4 34.5 2.7 34.5 2.7 C 34 2.6 33.5 2.6 33 2.6 C 32 2.6 31.4 2.8 31 3.2 C 30.7 3.6 30.5 4.4 30.5 5.6 C 30.5 5.63 30.5 6.7 30.5 6.7 L 35.8 6.7 C 35.8 6.7 35.81 5.09 35.8 5.1 C 35.8 3.4 36.2 2.2 36.9 1.3 C 37.6 0.4 38.7 0 40.2 0 C 41.2 0 42.2 0.1 43.1 0.4 C 43.1 0.4 42.7 2.7 42.7 2.7 C 42.1 2.6 41.6 2.6 41.1 2.6 C 40.2 2.6 39.5 2.8 39.2 3.2 C 38.8 3.6 38.6 4.4 38.6 5.6 C 38.63 5.63 38.6 6.7 38.6 6.7 L 41.8 6.7 L 41.8 8.9 L 38.6 8.9 L 38.6 23.3 L 35.8 23.3 Z M 44 3.6 L 44 0.4 L 46.8 0.4 L 46.8 3.6 L 44 3.6 Z M 44 23.3 L 44 6.7 L 46.8 6.7 L 46.8 23.3 L 44 23.3 Z M 61.9 17.2 C 61.9 17.2 64.7 17.6 64.7 17.6 C 64.4 19.5 63.6 21 62.4 22.1 C 61.1 23.1 59.6 23.7 57.8 23.7 C 55.5 23.7 53.7 22.9 52.3 21.4 C 50.9 20 50.2 17.8 50.2 15.1 C 50.2 13.3 50.5 11.7 51.1 10.4 C 51.7 9 52.6 8 53.8 7.3 C 55 6.7 56.4 6.3 57.8 6.3 C 59.6 6.3 61.1 6.8 62.2 7.7 C 63.4 8.6 64.1 9.9 64.4 11.6 C 64.4 11.6 61.7 12 61.7 12 C 61.4 10.9 61 10 60.3 9.5 C 59.6 8.9 58.8 8.6 57.9 8.6 C 56.5 8.6 55.3 9.1 54.5 10.2 C 53.6 11.2 53.1 12.8 53.1 15 C 53.1 17.2 53.6 18.8 54.4 19.8 C 55.3 20.9 56.4 21.4 57.8 21.4 C 58.9 21.4 59.8 21 60.5 20.3 C 61.3 19.7 61.7 18.6 61.9 17.2 Z M 78.5 18 C 78.5 18 81.4 18.3 81.4 18.3 C 80.9 20 80.1 21.3 78.8 22.3 C 77.6 23.2 76 23.7 74.1 23.7 C 71.6 23.7 69.7 22.9 68.3 21.4 C 66.9 19.9 66.2 17.8 66.2 15.1 C 66.2 12.3 66.9 10.2 68.3 8.6 C 69.8 7.1 71.6 6.3 73.9 6.3 C 76.1 6.3 77.9 7.1 79.3 8.6 C 80.8 10.1 81.5 12.2 81.5 15 C 81.5 15.1 81.4 15.4 81.4 15.7 C 81.4 15.7 69.1 15.7 69.1 15.7 C 69.2 17.5 69.7 18.9 70.6 19.9 C 71.5 20.9 72.7 21.4 74.1 21.4 C 75.1 21.4 76 21.1 76.7 20.5 C 77.4 20 78 19.1 78.5 18 Z M 69.2 13.4 C 69.2 13.4 78.5 13.4 78.5 13.4 C 78.4 12 78 11 77.4 10.3 C 76.5 9.2 75.4 8.6 73.9 8.6 C 72.6 8.6 71.6 9.1 70.7 9.9 C 69.8 10.8 69.3 12 69.2 13.4 Z " stroke="none" fill="#003a5c"/>
  </g>
</svg>