<?xml version="1.0" standalone="no"?>
<!DOCTYPE svg PUBLIC "-//W3C//DTD SVG 1.1//EN" "http://www.w3.org/Graphics/SVG/1.1/DTD/svg11.dtd">
<svg xmlns="http://www.w3.org/2000/svg" version="1.1" width="604.4px" height="79.7px" viewBox="0 -11 604.4 79.7" style="top:-11px">
  <desc>Annual Emissions by Scope (tons CO2e)</desc>
  <defs/>
  <g id="Polygon62187">
    <path d="M 0 23.3 L 8.8 0.4 L 12 0.4 L 21.4 23.3 L 17.9 23.3 L 15.3 16.4 L 5.7 16.4 L 3.2 23.3 L 0 23.3 Z M 6.6 13.9 L 14.3 13.9 C 14.3 13.9 11.94 7.55 11.9 7.5 C 11.2 5.6 10.7 4 10.3 2.8 C 10 4.3 9.6 5.7 9.1 7.2 C 9.08 7.17 6.6 13.9 6.6 13.9 Z M 23.5 23.3 L 23.5 6.7 L 26 6.7 C 26 6.7 25.98 9.06 26 9.1 C 27.2 7.2 29 6.3 31.3 6.3 C 32.3 6.3 33.2 6.5 34 6.9 C 34.9 7.2 35.5 7.7 35.9 8.3 C 36.3 8.9 36.6 9.6 36.8 10.4 C 36.9 10.9 36.9 11.8 36.9 13.1 C 36.94 13.09 36.9 23.3 36.9 23.3 L 34.1 23.3 C 34.1 23.3 34.13 13.2 34.1 13.2 C 34.1 12.1 34 11.2 33.8 10.6 C 33.6 10.1 33.2 9.6 32.6 9.3 C 32.1 8.9 31.4 8.8 30.7 8.8 C 29.5 8.8 28.4 9.1 27.6 9.9 C 26.7 10.7 26.3 12.1 26.3 14.2 C 26.27 14.23 26.3 23.3 26.3 23.3 L 23.5 23.3 Z M 41.3 23.3 L 41.3 6.7 L 43.8 6.7 C 43.8 6.7 43.78 9.06 43.8 9.1 C 45 7.2 46.8 6.3 49.1 6.3 C 50.1 6.3 51 6.5 51.8 6.9 C 52.7 7.2 53.3 7.7 53.7 8.3 C 54.1 8.9 54.4 9.6 54.6 10.4 C 54.7 10.9 54.7 11.8 54.7 13.1 C 54.73 13.09 54.7 23.3 54.7 23.3 L 51.9 23.3 C 51.9 23.3 51.92 13.2 51.9 13.2 C 51.9 12.1 51.8 11.2 51.6 10.6 C 51.4 10.1 51 9.6 50.4 9.3 C 49.9 8.9 49.2 8.8 48.5 8.8 C 47.3 8.8 46.2 9.1 45.4 9.9 C 44.5 10.7 44.1 12.1 44.1 14.2 C 44.06 14.23 44.1 23.3 44.1 23.3 L 41.3 23.3 Z M 69.9 23.3 C 69.9 23.3 69.92 20.86 69.9 20.9 C 68.6 22.7 66.9 23.7 64.7 23.7 C 63.7 23.7 62.8 23.5 61.9 23.1 C 61.1 22.7 60.4 22.3 60 21.7 C 59.6 21.1 59.3 20.4 59.2 19.6 C 59 19.1 59 18.2 59 17 C 58.98 16.98 59 6.7 59 6.7 L 61.8 6.7 C 61.8 6.7 61.8 15.91 61.8 15.9 C 61.8 17.4 61.9 18.4 62 18.9 C 62.1 19.6 62.5 20.2 63.1 20.6 C 63.7 21 64.4 21.3 65.2 21.3 C 66.1 21.3 66.9 21 67.6 20.6 C 68.3 20.2 68.9 19.6 69.2 18.8 C 69.5 18.1 69.6 17 69.6 15.6 C 69.63 15.59 69.6 6.7 69.6 6.7 L 72.4 6.7 L 72.4 23.3 L 69.9 23.3 Z M 88.2 23.3 C 87.9 22.7 87.8 22 87.7 21.3 C 86.6 22.1 85.6 22.8 84.7 23.1 C 83.7 23.5 82.7 23.7 81.6 23.7 C 79.7 23.7 78.3 23.2 77.4 22.3 C 76.4 21.4 75.9 20.3 75.9 18.9 C 75.9 18.1 76.1 17.4 76.4 16.7 C 76.8 16 77.3 15.5 77.9 15.1 C 78.5 14.7 79.2 14.4 79.9 14.2 C 80.5 14 81.3 13.9 82.4 13.7 C 84.7 13.5 86.4 13.1 87.4 12.8 C 87.4 12.4 87.5 12.1 87.5 12 C 87.5 10.9 87.2 10.1 86.7 9.6 C 85.9 9 84.9 8.7 83.5 8.7 C 82.1 8.7 81.2 8.9 80.5 9.4 C 79.9 9.8 79.4 10.6 79.1 11.8 C 79.1 11.8 76.4 11.4 76.4 11.4 C 76.6 10.3 77 9.3 77.6 8.6 C 78.2 7.9 79 7.3 80.1 6.9 C 81.2 6.5 82.4 6.3 83.9 6.3 C 85.3 6.3 86.4 6.5 87.3 6.8 C 88.2 7.2 88.8 7.6 89.3 8.1 C 89.7 8.6 90 9.2 90.1 10 C 90.2 10.5 90.3 11.3 90.3 12.6 C 90.3 12.6 90.3 16.3 90.3 16.3 C 90.3 19 90.3 20.6 90.5 21.3 C 90.6 22 90.8 22.7 91.2 23.3 C 91.17 23.3 88.2 23.3 88.2 23.3 C 88.2 23.3 88.23 23.3 88.2 23.3 Z M 87.4 15 C 86.4 15.4 84.9 15.7 82.8 16 C 81.7 16.2 80.9 16.4 80.4 16.6 C 79.9 16.8 79.5 17.1 79.3 17.5 C 79 17.9 78.9 18.4 78.9 18.8 C 78.9 19.6 79.2 20.2 79.7 20.7 C 80.3 21.2 81.1 21.5 82.2 21.5 C 83.3 21.5 84.3 21.2 85.1 20.8 C 86 20.3 86.6 19.6 87 18.8 C 87.3 18.2 87.4 17.2 87.4 16 C 87.4 16 87.4 15 87.4 15 Z M 94.6 23.3 L 94.6 0.4 L 97.4 0.4 L 97.4 23.3 L 94.6 23.3 Z M 111.1 23.3 L 111.1 0.4 L 127.6 0.4 L 127.6 3.1 L 114.1 3.1 L 114.1 10.1 L 126.8 10.1 L 126.8 12.8 L 114.1 12.8 L 114.1 20.6 L 128.2 20.6 L 128.2 23.3 L 111.1 23.3 Z M 132 23.3 L 132 6.7 L 134.5 6.7 C 134.5 6.7 134.5 9.03 134.5 9 C 135 8.2 135.7 7.6 136.6 7.1 C 137.4 6.6 138.4 6.3 139.5 6.3 C 140.8 6.3 141.8 6.6 142.6 7.1 C 143.3 7.6 143.9 8.3 144.2 9.2 C 145.5 7.3 147.2 6.3 149.3 6.3 C 151 6.3 152.3 6.8 153.1 7.7 C 154 8.6 154.5 10 154.5 11.9 C 154.47 11.91 154.5 23.3 154.5 23.3 L 151.7 23.3 C 151.7 23.3 151.67 12.84 151.7 12.8 C 151.7 11.7 151.6 10.9 151.4 10.4 C 151.2 9.9 150.9 9.5 150.4 9.2 C 149.9 8.9 149.4 8.8 148.7 8.8 C 147.6 8.8 146.6 9.2 145.8 9.9 C 145 10.7 144.7 11.9 144.7 13.7 C 144.66 13.66 144.7 23.3 144.7 23.3 L 141.8 23.3 C 141.8 23.3 141.84 12.52 141.8 12.5 C 141.8 11.3 141.6 10.3 141.2 9.7 C 140.7 9.1 139.9 8.8 138.9 8.8 C 138.1 8.8 137.4 9 136.7 9.4 C 136 9.8 135.6 10.4 135.3 11.2 C 134.9 12 134.8 13.2 134.8 14.7 C 134.8 14.69 134.8 23.3 134.8 23.3 L 132 23.3 Z M 158.7 3.6 L 158.7 0.4 L 161.5 0.4 L 161.5 3.6 L 158.7 3.6 Z M 158.7 23.3 L 158.7 6.7 L 161.5 6.7 L 161.5 23.3 L 158.7 23.3 Z M 164.6 18.3 C 164.6 18.3 167.4 17.9 167.4 17.9 C 167.6 19 168 19.9 168.7 20.5 C 169.4 21.1 170.4 21.4 171.7 21.4 C 173 21.4 174 21.1 174.6 20.6 C 175.2 20 175.5 19.4 175.5 18.7 C 175.5 18.1 175.2 17.6 174.7 17.2 C 174.3 17 173.3 16.7 171.8 16.3 C 169.8 15.7 168.3 15.3 167.5 14.9 C 166.7 14.5 166.1 14 165.7 13.3 C 165.3 12.7 165.1 11.9 165.1 11.1 C 165.1 10.4 165.3 9.7 165.6 9.1 C 165.9 8.4 166.4 7.9 167 7.5 C 167.4 7.2 168 6.9 168.8 6.7 C 169.5 6.4 170.3 6.3 171.2 6.3 C 172.5 6.3 173.6 6.5 174.6 6.9 C 175.6 7.3 176.3 7.8 176.8 8.4 C 177.3 9.1 177.6 9.9 177.8 11 C 177.8 11 175 11.4 175 11.4 C 174.9 10.5 174.5 9.8 173.9 9.4 C 173.3 8.9 172.5 8.6 171.4 8.6 C 170.1 8.6 169.2 8.9 168.6 9.3 C 168.1 9.7 167.8 10.2 167.8 10.8 C 167.8 11.1 167.9 11.5 168.2 11.8 C 168.4 12.1 168.7 12.3 169.2 12.5 C 169.5 12.6 170.3 12.9 171.7 13.2 C 173.7 13.8 175.1 14.2 175.9 14.5 C 176.7 14.9 177.3 15.4 177.7 16 C 178.2 16.7 178.4 17.5 178.4 18.4 C 178.4 19.4 178.1 20.2 177.6 21.1 C 177 21.9 176.3 22.5 175.2 23 C 174.2 23.4 173 23.7 171.7 23.7 C 169.6 23.7 167.9 23.2 166.8 22.3 C 165.7 21.4 164.9 20.1 164.6 18.3 Z M 180.6 18.3 C 180.6 18.3 183.4 17.9 183.4 17.9 C 183.6 19 184 19.9 184.7 20.5 C 185.4 21.1 186.4 21.4 187.7 21.4 C 189 21.4 190 21.1 190.6 20.6 C 191.2 20 191.5 19.4 191.5 18.7 C 191.5 18.1 191.2 17.6 190.7 17.2 C 190.3 17 189.3 16.7 187.8 16.3 C 185.8 15.7 184.3 15.3 183.5 14.9 C 182.7 14.5 182.1 14 181.7 13.3 C 181.3 12.7 181.1 11.9 181.1 11.1 C 181.1 10.4 181.3 9.7 181.6 9.1 C 181.9 8.4 182.4 7.9 183 7.5 C 183.4 7.2 184 6.9 184.8 6.7 C 185.5 6.4 186.3 6.3 187.2 6.3 C 188.5 6.3 189.6 6.5 190.6 6.9 C 191.6 7.3 192.3 7.8 192.8 8.4 C 193.3 9.1 193.6 9.9 193.8 11 C 193.8 11 191 11.4 191 11.4 C 190.9 10.5 190.5 9.8 189.9 9.4 C 189.3 8.9 188.5 8.6 187.4 8.6 C 186.1 8.6 185.2 8.9 184.6 9.3 C 184.1 9.7 183.8 10.2 183.8 10.8 C 183.8 11.1 183.9 11.5 184.2 11.8 C 184.4 12.1 184.7 12.3 185.2 12.5 C 185.5 12.6 186.3 12.9 187.7 13.2 C 189.7 13.8 191.1 14.2 191.9 14.5 C 192.7 14.9 193.3 15.4 193.7 16 C 194.2 16.7 194.4 17.5 194.4 18.4 C 194.4 19.4 194.1 20.2 193.6 21.1 C 193 21.9 192.3 22.5 191.2 23 C 190.2 23.4 189 23.7 187.7 23.7 C 185.6 23.7 183.9 23.2 182.8 22.3 C 181.7 21.4 180.9 20.1 180.6 18.3 Z M 197.8 3.6 L 197.8 0.4 L 200.6 0.4 L 200.6 3.6 L 197.8 3.6 Z M 197.8 23.3 L 197.8 6.7 L 200.6 6.7 L 200.6 23.3 L 197.8 23.3 Z M 203.8 15 C 203.8 11.9 204.7 9.7 206.4 8.2 C 207.8 6.9 209.5 6.3 211.6 6.3 C 213.9 6.3 215.7 7.1 217.2 8.6 C 218.6 10.1 219.4 12.1 219.4 14.8 C 219.4 16.9 219 18.6 218.4 19.8 C 217.8 21 216.8 22 215.6 22.7 C 214.4 23.3 213 23.7 211.6 23.7 C 209.3 23.7 207.4 22.9 206 21.4 C 204.5 19.9 203.8 17.8 203.8 15 Z M 206.7 15 C 206.7 17.1 207.2 18.7 208.1 19.8 C 209 20.8 210.2 21.4 211.6 21.4 C 213 21.4 214.2 20.8 215.1 19.8 C 216 18.7 216.5 17.1 216.5 14.9 C 216.5 12.9 216 11.3 215.1 10.2 C 214.1 9.2 213 8.7 211.6 8.7 C 210.2 8.7 209 9.2 208.1 10.2 C 207.2 11.3 206.7 12.9 206.7 15 Z M 222.7 23.3 L 222.7 6.7 L 225.2 6.7 C 225.2 6.7 225.19 9.06 225.2 9.1 C 226.4 7.2 228.2 6.3 230.5 6.3 C 231.5 6.3 232.4 6.5 233.2 6.9 C 234.1 7.2 234.7 7.7 235.1 8.3 C 235.5 8.9 235.8 9.6 236 10.4 C 236.1 10.9 236.1 11.8 236.1 13.1 C 236.14 13.09 236.1 23.3 236.1 23.3 L 233.3 23.3 C 233.3 23.3 233.33 13.2 233.3 13.2 C 233.3 12.1 233.2 11.2 233 10.6 C 232.8 10.1 232.4 9.6 231.8 9.3 C 231.3 8.9 230.6 8.8 229.9 8.8 C 228.7 8.8 227.6 9.1 226.8 9.9 C 225.9 10.7 225.5 12.1 225.5 14.2 C 225.47 14.23 225.5 23.3 225.5 23.3 L 222.7 23.3 Z M 239.3 18.3 C 239.3 18.3 242.1 17.9 242.1 17.9 C 242.3 19 242.7 19.9 243.4 20.5 C 244.1 21.1 245.1 21.4 246.4 21.4 C 247.7 21.4 248.7 21.1 249.3 20.6 C 249.9 20 250.2 19.4 250.2 18.7 C 250.2 18.1 249.9 17.6 249.4 17.2 C 249 17 248 16.7 246.5 16.3 C 244.5 15.7 243 15.3 242.2 14.9 C 241.4 14.5 240.8 14 240.4 13.3 C 240 12.7 239.8 11.9 239.8 11.1 C 239.8 10.4 240 9.7 240.3 9.1 C 240.6 8.4 241.1 7.9 241.7 7.5 C 242.1 7.2 242.7 6.9 243.5 6.7 C 244.2 6.4 245 6.3 245.9 6.3 C 247.2 6.3 248.4 6.5 249.3 6.9 C 250.3 7.3 251 7.8 251.5 8.4 C 252 9.1 252.3 9.9 252.5 11 C 252.5 11 249.7 11.4 249.7 11.4 C 249.6 10.5 249.2 9.8 248.6 9.4 C 248 8.9 247.2 8.6 246.1 8.6 C 244.8 8.6 243.9 8.9 243.3 9.3 C 242.8 9.7 242.5 10.2 242.5 10.8 C 242.5 11.1 242.6 11.5 242.9 11.8 C 243.1 12.1 243.4 12.3 243.9 12.5 C 244.2 12.6 245 12.9 246.4 13.2 C 248.4 13.8 249.8 14.2 250.6 14.5 C 251.4 14.9 252 15.4 252.4 16 C 252.9 16.7 253.1 17.5 253.1 18.4 C 253.1 19.4 252.8 20.2 252.3 21.1 C 251.7 21.9 251 22.5 249.9 23 C 248.9 23.4 247.7 23.7 246.4 23.7 C 244.3 23.7 242.6 23.2 241.5 22.3 C 240.4 21.4 239.6 20.1 239.3 18.3 Z M 267.9 23.3 L 265.3 23.3 L 265.3 0.4 L 268.1 0.4 C 268.1 0.4 268.14 8.56 268.1 8.6 C 269.3 7.1 270.8 6.3 272.7 6.3 C 273.7 6.3 274.7 6.5 275.6 6.9 C 276.5 7.4 277.2 7.9 277.8 8.7 C 278.4 9.4 278.9 10.3 279.2 11.4 C 279.6 12.4 279.7 13.6 279.7 14.8 C 279.7 17.6 279 19.8 277.6 21.3 C 276.2 22.9 274.5 23.7 272.5 23.7 C 270.6 23.7 269.1 22.9 267.9 21.2 C 267.94 21.22 267.9 23.3 267.9 23.3 Z M 267.9 14.9 C 267.9 16.9 268.2 18.3 268.7 19.2 C 269.6 20.6 270.8 21.4 272.3 21.4 C 273.5 21.4 274.6 20.8 275.5 19.8 C 276.4 18.7 276.8 17.1 276.8 15 C 276.8 12.8 276.4 11.2 275.6 10.2 C 274.7 9.2 273.7 8.6 272.4 8.6 C 271.2 8.6 270.1 9.2 269.3 10.2 C 268.4 11.3 267.9 12.9 267.9 14.9 Z M 284.8 30 C 284.3 30 283.7 29.9 283 29.7 C 283 29.7 282.7 27 282.7 27 C 283.3 27.2 283.9 27.3 284.3 27.3 C 284.9 27.3 285.4 27.2 285.8 27 C 286.2 26.8 286.5 26.5 286.7 26.1 C 286.9 25.8 287.2 25.1 287.6 24 C 287.6 23.9 287.7 23.6 287.8 23.3 C 287.84 23.33 281.5 6.7 281.5 6.7 L 284.6 6.7 C 284.6 6.7 288.03 16.31 288 16.3 C 288.5 17.5 288.9 18.8 289.2 20.2 C 289.6 18.9 289.9 17.6 290.4 16.4 C 290.39 16.38 293.9 6.7 293.9 6.7 L 296.8 6.7 C 296.8 6.7 290.44 23.58 290.4 23.6 C 289.8 25.4 289.2 26.7 288.9 27.3 C 288.4 28.3 287.8 29 287.1 29.4 C 286.5 29.8 285.7 30 284.8 30 C 284.8 30 284.8 30 284.8 30 Z M 307.4 15.9 C 307.4 15.9 310.2 15.7 310.2 15.7 C 310.4 16.8 310.7 17.8 311.2 18.5 C 311.7 19.2 312.4 19.8 313.5 20.3 C 314.5 20.7 315.7 21 317 21 C 318.1 21 319.2 20.8 320 20.5 C 320.9 20.1 321.6 19.6 322 19 C 322.5 18.4 322.7 17.8 322.7 17.1 C 322.7 16.4 322.5 15.7 322 15.2 C 321.6 14.7 320.9 14.2 320 13.8 C 319.4 13.6 318 13.2 315.9 12.7 C 313.8 12.2 312.3 11.7 311.5 11.3 C 310.4 10.7 309.6 10 309 9.2 C 308.5 8.3 308.2 7.4 308.2 6.3 C 308.2 5.2 308.6 4.1 309.2 3.1 C 309.9 2.1 310.8 1.3 312.1 0.8 C 313.4 0.3 314.8 0 316.3 0 C 318 0 319.5 0.3 320.8 0.8 C 322.1 1.4 323.1 2.2 323.8 3.2 C 324.5 4.3 324.9 5.5 324.9 6.8 C 324.9 6.8 322 7.1 322 7.1 C 321.8 5.6 321.3 4.5 320.4 3.8 C 319.5 3 318.2 2.7 316.4 2.7 C 314.6 2.7 313.3 3 312.4 3.7 C 311.6 4.4 311.2 5.2 311.2 6.1 C 311.2 6.9 311.5 7.6 312 8.1 C 312.6 8.7 314.2 9.2 316.6 9.8 C 319.1 10.3 320.8 10.8 321.7 11.2 C 323 11.8 324 12.6 324.6 13.6 C 325.3 14.5 325.6 15.6 325.6 16.8 C 325.6 18 325.2 19.2 324.5 20.3 C 323.8 21.4 322.8 22.2 321.5 22.8 C 320.2 23.4 318.8 23.7 317.1 23.7 C 315.1 23.7 313.3 23.4 311.9 22.8 C 310.5 22.2 309.4 21.3 308.6 20.1 C 307.8 18.8 307.4 17.5 307.4 15.9 Z M 340.2 17.2 C 340.2 17.2 343 17.6 343 17.6 C 342.7 19.5 341.9 21 340.6 22.1 C 339.4 23.1 337.9 23.7 336.1 23.7 C 333.8 23.7 332 22.9 330.6 21.4 C 329.2 20 328.5 17.8 328.5 15.1 C 328.5 13.3 328.8 11.7 329.4 10.4 C 330 9 330.9 8 332.1 7.3 C 333.3 6.7 334.7 6.3 336.1 6.3 C 337.9 6.3 339.4 6.8 340.5 7.7 C 341.6 8.6 342.4 9.9 342.7 11.6 C 342.7 11.6 340 12 340 12 C 339.7 10.9 339.2 10 338.6 9.5 C 337.9 8.9 337.1 8.6 336.2 8.6 C 334.8 8.6 333.6 9.1 332.7 10.2 C 331.8 11.2 331.4 12.8 331.4 15 C 331.4 17.2 331.8 18.8 332.7 19.8 C 333.5 20.9 334.7 21.4 336 21.4 C 337.1 21.4 338.1 21 338.8 20.3 C 339.5 19.7 340 18.6 340.2 17.2 Z M 344.3 15 C 344.3 11.9 345.2 9.7 346.9 8.2 C 348.3 6.9 350.1 6.3 352.1 6.3 C 354.4 6.3 356.3 7.1 357.7 8.6 C 359.2 10.1 359.9 12.1 359.9 14.8 C 359.9 16.9 359.6 18.6 358.9 19.8 C 358.3 21 357.3 22 356.1 22.7 C 354.9 23.3 353.6 23.7 352.1 23.7 C 349.8 23.7 347.9 22.9 346.5 21.4 C 345 19.9 344.3 17.8 344.3 15 Z M 347.2 15 C 347.2 17.1 347.7 18.7 348.6 19.8 C 349.5 20.8 350.7 21.4 352.1 21.4 C 353.5 21.4 354.7 20.8 355.6 19.8 C 356.5 18.7 357 17.1 357 14.9 C 357 12.9 356.5 11.3 355.6 10.2 C 354.7 9.2 353.5 8.7 352.1 8.7 C 350.7 8.7 349.5 9.2 348.6 10.2 C 347.7 11.3 347.2 12.9 347.2 15 Z M 363.2 29.7 L 363.2 6.7 L 365.7 6.7 C 365.7 6.7 365.73 8.86 365.7 8.9 C 366.3 8 367 7.4 367.8 7 C 368.5 6.5 369.5 6.3 370.5 6.3 C 372 6.3 373.2 6.7 374.3 7.4 C 375.4 8.2 376.2 9.2 376.8 10.5 C 377.3 11.8 377.6 13.3 377.6 14.9 C 377.6 16.6 377.3 18.1 376.7 19.5 C 376.1 20.8 375.2 21.9 374 22.6 C 372.8 23.3 371.6 23.7 370.3 23.7 C 369.4 23.7 368.6 23.5 367.8 23.1 C 367.1 22.7 366.5 22.2 366 21.6 C 365.98 21.58 366 29.7 366 29.7 L 363.2 29.7 Z M 365.7 15.1 C 365.7 17.2 366.2 18.8 367 19.8 C 367.9 20.8 368.9 21.4 370.2 21.4 C 371.4 21.4 372.5 20.8 373.4 19.8 C 374.3 18.7 374.7 17.1 374.7 14.9 C 374.7 12.7 374.3 11.2 373.4 10.1 C 372.5 9.1 371.5 8.5 370.3 8.5 C 369.1 8.5 368 9.1 367.1 10.2 C 366.2 11.3 365.7 13 365.7 15.1 Z M 392.3 18 C 392.3 18 395.2 18.3 395.2 18.3 C 394.8 20 393.9 21.3 392.7 22.3 C 391.4 23.2 389.9 23.7 387.9 23.7 C 385.5 23.7 383.6 22.9 382.2 21.4 C 380.7 19.9 380 17.8 380 15.1 C 380 12.3 380.8 10.2 382.2 8.6 C 383.6 7.1 385.5 6.3 387.8 6.3 C 390 6.3 391.8 7.1 393.2 8.6 C 394.6 10.1 395.3 12.2 395.3 15 C 395.3 15.1 395.3 15.4 395.3 15.7 C 395.3 15.7 382.9 15.7 382.9 15.7 C 383 17.5 383.6 18.9 384.5 19.9 C 385.4 20.9 386.6 21.4 388 21.4 C 389 21.4 389.9 21.1 390.6 20.5 C 391.3 20 391.9 19.1 392.3 18 Z M 383.1 13.4 C 383.1 13.4 392.4 13.4 392.4 13.4 C 392.2 12 391.9 11 391.3 10.3 C 390.4 9.2 389.2 8.6 387.8 8.6 C 386.5 8.6 385.4 9.1 384.6 9.9 C 383.7 10.8 383.2 12 383.1 13.4 Z M 413 30 C 411.5 28.1 410.2 25.8 409.1 23.2 C 408 20.5 407.5 17.8 407.5 15 C 407.5 12.5 407.9 10.1 408.7 7.9 C 409.6 5.2 411.1 2.6 413 0 C 413 0 415 0 415 0 C 413.8 2.2 413 3.7 412.5 4.6 C 411.9 6.1 411.4 7.6 411 9.1 C 410.6 11.1 410.4 13 410.4 15 C 410.4 20 411.9 25 415 30 C 415 30 413 30 413 30 Z M 423.2 20.9 C 423.5 20.9 423.9 20.9 424.5 20.8 C 424.5 20.8 424.9 23.3 424.9 23.3 C 424.1 23.4 423.4 23.5 422.7 23.5 C 421.7 23.5 420.9 23.4 420.4 23 C 419.8 22.7 419.4 22.3 419.2 21.8 C 418.9 21.2 418.8 20.1 418.8 18.4 C 418.83 18.44 418.8 8.9 418.8 8.9 L 416.8 8.9 L 416.8 6.7 L 418.8 6.7 L 418.8 2.6 L 421.6 0.9 L 421.6 6.7 L 424.5 6.7 L 424.5 8.9 L 421.6 8.9 C 421.6 8.9 421.63 18.59 421.6 18.6 C 421.6 19.4 421.7 19.9 421.8 20.1 C 421.9 20.4 422 20.6 422.3 20.7 C 422.5 20.8 422.8 20.9 423.2 20.9 C 423.2 20.9 423.2 20.9 423.2 20.9 Z M 426.2 15 C 426.2 11.9 427 9.7 428.7 8.2 C 430.1 6.9 431.9 6.3 433.9 6.3 C 436.2 6.3 438.1 7.1 439.5 8.6 C 441 10.1 441.7 12.1 441.7 14.8 C 441.7 16.9 441.4 18.6 440.7 19.8 C 440.1 21 439.2 22 437.9 22.7 C 436.7 23.3 435.4 23.7 433.9 23.7 C 431.6 23.7 429.7 22.9 428.3 21.4 C 426.9 19.9 426.2 17.8 426.2 15 Z M 429 15 C 429 17.1 429.5 18.7 430.4 19.8 C 431.4 20.8 432.5 21.4 433.9 21.4 C 435.3 21.4 436.5 20.8 437.4 19.8 C 438.3 18.7 438.8 17.1 438.8 14.9 C 438.8 12.9 438.3 11.3 437.4 10.2 C 436.5 9.2 435.3 8.7 433.9 8.7 C 432.5 8.7 431.4 9.2 430.4 10.2 C 429.5 11.3 429 12.9 429 15 Z M 445 23.3 L 445 6.7 L 447.5 6.7 C 447.5 6.7 447.53 9.06 447.5 9.1 C 448.8 7.2 450.5 6.3 452.8 6.3 C 453.8 6.3 454.7 6.5 455.6 6.9 C 456.4 7.2 457 7.7 457.5 8.3 C 457.9 8.9 458.2 9.6 458.3 10.4 C 458.4 10.9 458.5 11.8 458.5 13.1 C 458.48 13.09 458.5 23.3 458.5 23.3 L 455.7 23.3 C 455.7 23.3 455.67 13.2 455.7 13.2 C 455.7 12.1 455.6 11.2 455.3 10.6 C 455.1 10.1 454.7 9.6 454.2 9.3 C 453.6 8.9 453 8.8 452.2 8.8 C 451 8.8 450 9.1 449.1 9.9 C 448.2 10.7 447.8 12.1 447.8 14.2 C 447.81 14.23 447.8 23.3 447.8 23.3 L 445 23.3 Z M 461.7 18.3 C 461.7 18.3 464.5 17.9 464.5 17.9 C 464.6 19 465 19.9 465.8 20.5 C 466.5 21.1 467.5 21.4 468.8 21.4 C 470 21.4 471 21.1 471.6 20.6 C 472.3 20 472.6 19.4 472.6 18.7 C 472.6 18.1 472.3 17.6 471.7 17.2 C 471.3 17 470.4 16.7 468.9 16.3 C 466.8 15.7 465.4 15.3 464.6 14.9 C 463.8 14.5 463.2 14 462.8 13.3 C 462.3 12.7 462.1 11.9 462.1 11.1 C 462.1 10.4 462.3 9.7 462.6 9.1 C 463 8.4 463.4 7.9 464 7.5 C 464.5 7.2 465.1 6.9 465.8 6.7 C 466.6 6.4 467.4 6.3 468.3 6.3 C 469.6 6.3 470.7 6.5 471.7 6.9 C 472.7 7.3 473.4 7.8 473.9 8.4 C 474.3 9.1 474.7 9.9 474.8 11 C 474.8 11 472.1 11.4 472.1 11.4 C 472 10.5 471.6 9.8 471 9.4 C 470.4 8.9 469.5 8.6 468.5 8.6 C 467.2 8.6 466.2 8.9 465.7 9.3 C 465.1 9.7 464.9 10.2 464.9 10.8 C 464.9 11.1 465 11.5 465.2 11.8 C 465.4 12.1 465.8 12.3 466.3 12.5 C 466.6 12.6 467.4 12.9 468.8 13.2 C 470.8 13.8 472.1 14.2 472.9 14.5 C 473.7 14.9 474.3 15.4 474.8 16 C 475.2 16.7 475.5 17.5 475.5 18.4 C 475.5 19.4 475.2 20.2 474.6 21.1 C 474.1 21.9 473.3 22.5 472.3 23 C 471.2 23.4 470.1 23.7 468.8 23.7 C 466.6 23.7 465 23.2 463.8 22.3 C 462.7 21.4 462 20.1 461.7 18.3 Z M 504.4 15.3 C 504.4 15.3 507.4 16 507.4 16 C 506.8 18.5 505.6 20.4 504 21.7 C 502.3 23 500.3 23.7 497.9 23.7 C 495.5 23.7 493.5 23.2 491.9 22.2 C 490.4 21.2 489.2 19.7 488.4 17.8 C 487.6 15.9 487.2 13.9 487.2 11.7 C 487.2 9.3 487.6 7.2 488.5 5.4 C 489.5 3.7 490.7 2.3 492.4 1.4 C 494.1 0.5 496 0 498 0 C 500.3 0 502.2 0.6 503.8 1.8 C 505.3 2.9 506.4 4.6 507 6.7 C 507 6.7 504 7.4 504 7.4 C 503.5 5.7 502.7 4.5 501.7 3.7 C 500.7 3 499.5 2.6 497.9 2.6 C 496.2 2.6 494.7 3 493.5 3.9 C 492.3 4.7 491.5 5.8 491 7.3 C 490.5 8.7 490.3 10.1 490.3 11.7 C 490.3 13.6 490.6 15.3 491.1 16.8 C 491.7 18.2 492.6 19.3 493.8 20 C 495 20.7 496.3 21.1 497.7 21.1 C 499.4 21.1 500.8 20.6 502 19.6 C 503.2 18.6 504 17.2 504.4 15.3 Z M 510.2 12.1 C 510.2 8.3 511.3 5.4 513.3 3.2 C 515.3 1.1 518 0 521.2 0 C 523.3 0 525.2 0.5 526.9 1.5 C 528.6 2.5 529.9 3.9 530.8 5.7 C 531.7 7.5 532.1 9.6 532.1 11.9 C 532.1 14.2 531.7 16.3 530.7 18.1 C 529.8 19.9 528.5 21.3 526.8 22.3 C 525 23.2 523.2 23.7 521.2 23.7 C 519 23.7 517.1 23.2 515.4 22.1 C 513.7 21.1 512.4 19.7 511.5 17.9 C 510.7 16.1 510.2 14.2 510.2 12.1 Z M 513.4 12.2 C 513.4 14.9 514.1 17.1 515.6 18.7 C 517.1 20.3 518.9 21.1 521.2 21.1 C 523.5 21.1 525.3 20.3 526.8 18.7 C 528.3 17.1 529 14.8 529 11.9 C 529 10 528.7 8.4 528.1 7 C 527.4 5.6 526.5 4.5 525.3 3.7 C 524.1 3 522.7 2.6 521.2 2.6 C 519.1 2.6 517.2 3.3 515.7 4.8 C 514.1 6.3 513.4 8.7 513.4 12.2 Z M 543 32.4 L 543 34 C 543 34 534.14 33.95 534.1 34 C 534.1 33.6 534.2 33.2 534.3 32.8 C 534.6 32.2 534.9 31.6 535.4 31 C 535.9 30.5 536.6 29.8 537.6 29 C 539 27.8 540 26.9 540.5 26.2 C 541 25.5 541.3 24.8 541.3 24.2 C 541.3 23.6 541 23 540.6 22.6 C 540.1 22.1 539.5 21.9 538.8 21.9 C 538 21.9 537.3 22.1 536.9 22.6 C 536.4 23.1 536.1 23.7 536.1 24.6 C 536.1 24.6 534.5 24.4 534.5 24.4 C 534.6 23.1 535 22.2 535.8 21.5 C 536.5 20.9 537.5 20.5 538.8 20.5 C 540.1 20.5 541.1 20.9 541.8 21.6 C 542.6 22.3 543 23.2 543 24.3 C 543 24.8 542.8 25.3 542.6 25.8 C 542.4 26.3 542 26.9 541.5 27.5 C 541 28 540.2 28.8 539 29.8 C 538 30.6 537.4 31.2 537.1 31.5 C 536.8 31.8 536.6 32.1 536.4 32.4 C 536.42 32.38 543 32.4 543 32.4 Z M 557.4 18 C 557.4 18 560.3 18.3 560.3 18.3 C 559.9 20 559 21.3 557.8 22.3 C 556.5 23.2 555 23.7 553 23.7 C 550.6 23.7 548.7 22.9 547.3 21.4 C 545.8 19.9 545.1 17.8 545.1 15.1 C 545.1 12.3 545.8 10.2 547.3 8.6 C 548.7 7.1 550.6 6.3 552.9 6.3 C 555.1 6.3 556.9 7.1 558.3 8.6 C 559.7 10.1 560.4 12.2 560.4 15 C 560.4 15.1 560.4 15.4 560.4 15.7 C 560.4 15.7 548 15.7 548 15.7 C 548.1 17.5 548.7 18.9 549.6 19.9 C 550.5 20.9 551.7 21.4 553 21.4 C 554.1 21.4 555 21.1 555.7 20.5 C 556.4 20 557 19.1 557.4 18 Z M 548.2 13.4 C 548.2 13.4 557.5 13.4 557.5 13.4 C 557.3 12 557 11 556.4 10.3 C 555.5 9.2 554.3 8.6 552.9 8.6 C 551.6 8.6 550.5 9.1 549.6 9.9 C 548.8 10.8 548.3 12 548.2 13.4 Z M 565.7 30 C 565.7 30 563.7 30 563.7 30 C 566.8 25 568.4 20 568.4 15 C 568.4 13.1 568.1 11.1 567.7 9.2 C 567.3 7.6 566.8 6.1 566.2 4.7 C 565.8 3.8 565 2.2 563.7 0 C 563.7 0 565.7 0 565.7 0 C 567.7 2.6 569.1 5.2 570 7.9 C 570.8 10.1 571.3 12.5 571.3 15 C 571.3 17.8 570.7 20.5 569.6 23.2 C 568.6 25.8 567.2 28.1 565.7 30 Z " stroke="none" fill="#003a5c"/>
  </g>
</svg>