<?xml version="1.0" standalone="no"?><!DOCTYPE svg PUBLIC "-//W3C//DTD SVG 1.1//EN" "http://www.w3.org/Graphics/SVG/1.1/DTD/svg11.dtd"><svg xmlns="http://www.w3.org/2000/svg" version="1.1" width="210px" height="41.8px" viewBox="0 -1 210 41.8" style="top:-1px"><desc>Pro Bono</desc><defs/><g id="Polygon62912"><path d="m31 22.9l0-9.6c0 0 3.11-.05 3.1 0c1.2 0 2 0 2.3.1c.6.1 1.1.5 1.4.9c.4.5.6 1.2.6 1.9c0 .6-.1 1.1-.3 1.5c-.3.4-.5.7-.9 1c-.3.2-.6.4-1 .4c-.4.1-1.1.2-2 .2c.01-.03-1.3 0-1.3 0l0 3.6l-1.9 0zm1.9-8l0 2.7c0 0 1.1.03 1.1 0c.8 0 1.3 0 1.5-.1c.3-.1.5-.3.7-.5c.1-.2.2-.5.2-.8c0-.3-.1-.6-.3-.8c-.2-.2-.5-.4-.8-.4c-.3-.1-.7-.1-1.4-.1c-.02-.01-1 0-1 0zm8.8 8l-1.8 0l0-7l1.7 0c0 0 .01 1.01 0 1c.3-.5.6-.8.8-.9c.2-.2.5-.2.8-.2c.4 0 .8.1 1.2.3c0 0-.5 1.6-.5 1.6c-.4-.2-.6-.3-.9-.3c-.3 0-.5.1-.7.2c-.2.2-.3.4-.4.8c-.1.4-.2 1.2-.2 2.4c.05-.05 0 2.1 0 2.1zm3.1-3.6c0-.6.2-1.2.5-1.8c.3-.5.7-1 1.2-1.3c.6-.3 1.2-.4 1.9-.4c1.1 0 1.9.3 2.6 1c.7.7 1 1.5 1 2.6c0 1.1-.3 1.9-1 2.6c-.7.7-1.5 1.1-2.6 1.1c-.6 0-1.2-.2-1.8-.5c-.6-.3-1-.7-1.3-1.2c-.3-.6-.5-1.3-.5-2.1zm1.9.1c0 .7.2 1.2.5 1.6c.3.4.7.6 1.2.6c.5 0 .9-.2 1.2-.6c.4-.4.5-.9.5-1.6c0-.7-.1-1.2-.5-1.6c-.3-.4-.7-.5-1.2-.5c-.5 0-.9.1-1.2.5c-.3.4-.5.9-.5 1.6zm10.5-6.1c0 0 3.91-.05 3.9 0c.8 0 1.3 0 1.7 0c.4.1.7.2 1 .4c.3.2.6.5.8.9c.2.3.3.7.3 1.1c0 .4-.2.9-.4 1.2c-.2.4-.6.7-1 .9c.6.2 1 .4 1.4.9c.3.4.4.9.4 1.4c0 .5-.1.9-.3 1.3c-.2.4-.5.7-.8 1c-.4.2-.8.4-1.3.4c-.3.1-1.1.1-2.4.1c.03.01-3.3 0-3.3 0l0-9.6zm2 1.6l0 2.2c0 0 1.27-.01 1.3 0c.7 0 1.2 0 1.4 0c.3-.1.6-.2.8-.4c.2-.2.3-.4.3-.7c0-.3-.1-.6-.3-.8c-.1-.2-.4-.3-.7-.3c-.2 0-.8 0-1.7 0c.02-.04-1.1 0-1.1 0zm0 3.8l0 2.6c0 0 1.8-.01 1.8 0c.7 0 1.2 0 1.3-.1c.3 0 .6-.2.7-.4c.2-.2.3-.4.3-.8c0-.3 0-.5-.2-.7c-.1-.2-.3-.4-.6-.5c-.3-.1-.8-.1-1.7-.1c-.03 0-1.6 0-1.6 0zm7.3.6c0-.6.2-1.2.5-1.8c.3-.5.7-1 1.3-1.3c.5-.3 1.2-.4 1.9-.4c1 0 1.9.3 2.6 1c.6.7 1 1.5 1 2.6c0 1.1-.4 1.9-1.1 2.6c-.6.7-1.5 1.1-2.5 1.1c-.7 0-1.3-.2-1.9-.5c-.6-.3-1-.7-1.3-1.2c-.3-.6-.5-1.3-.5-2.1zm1.9.1c0 .7.2 1.2.5 1.6c.4.4.8.6 1.3.6c.4 0 .8-.2 1.2-.6c.3-.4.5-.9.5-1.6c0-.7-.2-1.2-.5-1.6c-.4-.4-.8-.5-1.2-.5c-.5 0-.9.1-1.3.5c-.3.4-.5.9-.5 1.6zm13.2 3.5l-1.9 0c0 0 .04-3.56 0-3.6c0-.7 0-1.2-.1-1.4c-.1-.2-.2-.4-.4-.5c-.1-.2-.4-.2-.6-.2c-.3 0-.6.1-.9.2c-.2.2-.4.4-.5.7c-.1.3-.1.9-.1 1.6c-.04.04 0 3.2 0 3.2l-1.9 0l0-7l1.7 0c0 0 .03 1.04 0 1c.6-.7 1.4-1.1 2.3-1.1c.4 0 .8 0 1.2.2c.3.1.5.3.7.5c.2.3.3.5.4.8c.1.3.1.7.1 1.3c-.01-.04 0 4.3 0 4.3zm1.4-3.6c0-.6.2-1.2.5-1.8c.3-.5.7-1 1.3-1.3c.5-.3 1.2-.4 1.8-.4c1.1 0 2 .3 2.6 1c.7.7 1.1 1.5 1.1 2.6c0 1.1-.4 1.9-1.1 2.6c-.6.7-1.5 1.1-2.5 1.1c-.7 0-1.3-.2-1.9-.5c-.6-.3-1-.7-1.3-1.2c-.3-.6-.5-1.3-.5-2.1zm1.9.1c0 .7.2 1.2.5 1.6c.4.4.8.6 1.2.6c.5 0 .9-.2 1.3-.6c.3-.4.5-.9.5-1.6c0-.7-.2-1.2-.5-1.6c-.4-.4-.8-.5-1.3-.5c-.4 0-.8.1-1.2.5c-.3.4-.5.9-.5 1.6z" stroke="none" fill="#fff"/></g></svg>