<?xml version="1.0" standalone="no"?>
<!DOCTYPE svg PUBLIC "-//W3C//DTD SVG 1.1//EN" "http://www.w3.org/Graphics/SVG/1.1/DTD/svg11.dtd">
<svg xmlns="http://www.w3.org/2000/svg" version="1.1" width="116px" height="56.1px" viewBox="0 -7 116 56.1" style="top:-7px">
  <desc>Bike Storage Facilities</desc>
  <defs/>
  <g id="Polygon63757">
    <path d="M 1.6 37 L 1.6 23.3 L 10.8 23.3 L 10.8 24.9 L 3.4 24.9 L 3.4 29.2 L 9.8 29.2 L 9.8 30.8 L 3.4 30.8 L 3.4 37 L 1.6 37 Z M 19.1 37 C 18.9 36.7 18.8 36.3 18.7 35.8 C 18.1 36.3 17.5 36.7 16.9 36.9 C 16.4 37.1 15.7 37.2 15.1 37.2 C 14 37.2 13.1 37 12.6 36.4 C 12 35.9 11.7 35.2 11.7 34.4 C 11.7 33.9 11.8 33.5 12 33.1 C 12.2 32.7 12.5 32.3 12.9 32.1 C 13.2 31.8 13.6 31.7 14.1 31.5 C 14.4 31.4 14.9 31.4 15.6 31.3 C 17 31.1 18 30.9 18.6 30.7 C 18.6 30.5 18.6 30.3 18.6 30.3 C 18.6 29.6 18.5 29.1 18.1 28.8 C 17.7 28.4 17.1 28.2 16.2 28.2 C 15.4 28.2 14.8 28.4 14.5 28.7 C 14.1 28.9 13.8 29.4 13.6 30.1 C 13.6 30.1 12 29.9 12 29.9 C 12.1 29.2 12.4 28.6 12.7 28.2 C 13.1 27.8 13.6 27.4 14.2 27.2 C 14.9 27 15.6 26.8 16.5 26.8 C 17.3 26.8 18 26.9 18.5 27.1 C 19.1 27.3 19.5 27.6 19.7 27.9 C 20 28.2 20.1 28.6 20.2 29 C 20.3 29.3 20.3 29.8 20.3 30.6 C 20.3 30.6 20.3 32.8 20.3 32.8 C 20.3 34.4 20.4 35.4 20.4 35.8 C 20.5 36.2 20.6 36.6 20.8 37 C 20.85 37.02 19.1 37 19.1 37 C 19.1 37 19.09 37.02 19.1 37 Z M 18.6 32 C 18 32.3 17.1 32.5 15.9 32.7 C 15.2 32.8 14.7 32.9 14.4 33 C 14.1 33.1 13.9 33.3 13.7 33.5 C 13.6 33.8 13.5 34.1 13.5 34.3 C 13.5 34.8 13.7 35.2 14 35.5 C 14.3 35.8 14.8 35.9 15.5 35.9 C 16.1 35.9 16.7 35.8 17.2 35.5 C 17.7 35.2 18.1 34.8 18.3 34.3 C 18.5 33.9 18.6 33.4 18.6 32.6 C 18.6 32.6 18.6 32 18.6 32 Z M 29.1 33.4 C 29.1 33.4 30.8 33.6 30.8 33.6 C 30.6 34.7 30.2 35.6 29.4 36.3 C 28.7 36.9 27.8 37.2 26.7 37.2 C 25.3 37.2 24.2 36.8 23.4 35.9 C 22.5 35 22.1 33.7 22.1 32.1 C 22.1 31 22.3 30.1 22.7 29.3 C 23 28.4 23.6 27.8 24.3 27.4 C 25 27 25.8 26.8 26.7 26.8 C 27.8 26.8 28.6 27.1 29.3 27.7 C 30 28.2 30.5 29 30.6 30 C 30.6 30 29 30.2 29 30.2 C 28.9 29.6 28.6 29.1 28.2 28.7 C 27.8 28.4 27.3 28.2 26.7 28.2 C 25.9 28.2 25.2 28.5 24.7 29.1 C 24.1 29.7 23.9 30.7 23.9 32 C 23.9 33.4 24.1 34.3 24.6 34.9 C 25.2 35.6 25.8 35.9 26.6 35.9 C 27.3 35.9 27.9 35.7 28.3 35.2 C 28.7 34.8 29 34.2 29.1 33.4 Z M 32.3 25.2 L 32.3 23.3 L 34 23.3 L 34 25.2 L 32.3 25.2 Z M 32.3 37 L 32.3 27.1 L 34 27.1 L 34 37 L 32.3 37 Z M 36.3 37 L 36.3 23.3 L 38 23.3 L 38 37 L 36.3 37 Z M 40.4 25.2 L 40.4 23.3 L 42 23.3 L 42 25.2 L 40.4 25.2 Z M 40.4 37 L 40.4 27.1 L 42 27.1 L 42 37 L 40.4 37 Z M 47.3 35.6 C 47.5 35.6 47.8 35.6 48.1 35.5 C 48.1 35.5 48.3 37 48.3 37 C 47.8 37.1 47.4 37.1 47 37.1 C 46.4 37.1 46 37.1 45.6 36.9 C 45.3 36.7 45 36.4 44.9 36.1 C 44.8 35.8 44.7 35.1 44.7 34.1 C 44.7 34.1 44.7 28.4 44.7 28.4 L 43.5 28.4 L 43.5 27.1 L 44.7 27.1 L 44.7 24.6 L 46.4 23.6 L 46.4 27.1 L 48.1 27.1 L 48.1 28.4 L 46.4 28.4 C 46.4 28.4 46.38 34.2 46.4 34.2 C 46.4 34.7 46.4 35 46.5 35.1 C 46.5 35.3 46.6 35.4 46.8 35.5 C 46.9 35.5 47.1 35.6 47.3 35.6 C 47.3 35.6 47.3 35.6 47.3 35.6 Z M 49.6 25.2 L 49.6 23.3 L 51.3 23.3 L 51.3 25.2 L 49.6 25.2 Z M 49.6 37 L 49.6 27.1 L 51.3 27.1 L 51.3 37 L 49.6 37 Z M 60.6 33.8 C 60.6 33.8 62.3 34 62.3 34 C 62 35 61.5 35.8 60.8 36.4 C 60 37 59.1 37.2 57.9 37.2 C 56.5 37.2 55.3 36.8 54.5 35.9 C 53.6 35 53.2 33.7 53.2 32.1 C 53.2 30.4 53.6 29.1 54.5 28.2 C 55.3 27.3 56.5 26.8 57.8 26.8 C 59.2 26.8 60.3 27.3 61.1 28.2 C 61.9 29.1 62.4 30.4 62.4 32 C 62.4 32.1 62.4 32.3 62.4 32.5 C 62.4 32.5 54.9 32.5 54.9 32.5 C 55 33.6 55.3 34.4 55.9 35 C 56.4 35.6 57.1 35.9 57.9 35.9 C 58.6 35.9 59.1 35.7 59.5 35.4 C 60 35 60.3 34.5 60.6 33.8 Z M 55 31.1 C 55 31.1 60.6 31.1 60.6 31.1 C 60.5 30.2 60.3 29.6 59.9 29.2 C 59.4 28.5 58.7 28.2 57.9 28.2 C 57.1 28.2 56.4 28.5 55.9 29 C 55.4 29.5 55.1 30.2 55 31.1 Z M 63.6 34 C 63.6 34 65.3 33.8 65.3 33.8 C 65.4 34.5 65.7 35 66.1 35.3 C 66.5 35.7 67.1 35.9 67.9 35.9 C 68.7 35.9 69.2 35.7 69.6 35.4 C 70 35.1 70.2 34.7 70.2 34.3 C 70.2 33.9 70 33.6 69.7 33.4 C 69.4 33.2 68.9 33 67.9 32.8 C 66.7 32.5 65.9 32.2 65.4 32 C 64.9 31.8 64.5 31.4 64.3 31 C 64 30.6 63.9 30.2 63.9 29.7 C 63.9 29.3 64 28.9 64.2 28.5 C 64.4 28.1 64.7 27.8 65 27.5 C 65.3 27.3 65.7 27.2 66.1 27 C 66.6 26.9 67.1 26.8 67.6 26.8 C 68.4 26.8 69 26.9 69.6 27.2 C 70.2 27.4 70.7 27.7 70.9 28.1 C 71.2 28.5 71.4 29 71.5 29.6 C 71.5 29.6 69.9 29.9 69.9 29.9 C 69.8 29.3 69.6 28.9 69.2 28.7 C 68.9 28.4 68.4 28.2 67.7 28.2 C 66.9 28.2 66.4 28.4 66 28.6 C 65.7 28.9 65.5 29.2 65.5 29.5 C 65.5 29.7 65.6 29.9 65.8 30.1 C 65.9 30.3 66.1 30.4 66.4 30.5 C 66.6 30.6 67.1 30.8 67.9 31 C 69.1 31.3 69.9 31.6 70.4 31.8 C 70.9 32 71.2 32.3 71.5 32.6 C 71.8 33 71.9 33.5 71.9 34.1 C 71.9 34.7 71.7 35.2 71.4 35.7 C 71.1 36.2 70.6 36.6 70 36.8 C 69.4 37.1 68.7 37.2 67.9 37.2 C 66.6 37.2 65.6 37 64.9 36.4 C 64.3 35.9 63.8 35.1 63.6 34 Z " stroke="none" fill="#ffffff"/>
  </g>
  <g id="Polygon63756">
    <path d="M 1.4 14 L 1.4 0.2 C 1.4 0.2 6.56 0.23 6.6 0.2 C 7.6 0.2 8.5 0.4 9.1 0.7 C 9.7 0.9 10.2 1.4 10.6 1.9 C 10.9 2.5 11.1 3.1 11.1 3.8 C 11.1 4.3 11 4.9 10.6 5.4 C 10.3 5.9 9.8 6.3 9.2 6.7 C 10 6.9 10.7 7.3 11.1 7.9 C 11.6 8.5 11.8 9.2 11.8 10 C 11.8 10.6 11.6 11.2 11.4 11.8 C 11.1 12.3 10.8 12.8 10.4 13.1 C 10 13.4 9.5 13.6 8.9 13.7 C 8.3 13.9 7.5 14 6.6 14 C 6.65 13.98 1.4 14 1.4 14 Z M 3.2 6 C 3.2 6 6.2 6.01 6.2 6 C 7 6 7.6 6 7.9 5.8 C 8.4 5.7 8.7 5.5 9 5.2 C 9.2 4.8 9.3 4.4 9.3 4 C 9.3 3.5 9.2 3.1 9 2.8 C 8.8 2.4 8.5 2.2 8.1 2 C 7.7 1.9 7 1.9 6 1.9 C 5.97 1.86 3.2 1.9 3.2 1.9 L 3.2 6 Z M 3.2 12.4 C 3.2 12.4 6.65 12.36 6.6 12.4 C 7.2 12.4 7.6 12.3 7.9 12.3 C 8.3 12.2 8.7 12.1 8.9 11.9 C 9.2 11.7 9.4 11.5 9.6 11.2 C 9.8 10.8 9.9 10.4 9.9 10 C 9.9 9.5 9.8 9 9.5 8.7 C 9.2 8.3 8.9 8 8.4 7.9 C 7.9 7.7 7.3 7.6 6.4 7.6 C 6.4 7.63 3.2 7.6 3.2 7.6 L 3.2 12.4 Z M 14 2.2 L 14 0.2 L 15.7 0.2 L 15.7 2.2 L 14 2.2 Z M 14 14 L 14 4 L 15.7 4 L 15.7 14 L 14 14 Z M 18 14 L 18 0.2 L 19.7 0.2 L 19.7 8.1 L 23.7 4 L 25.9 4 L 22.1 7.7 L 26.3 14 L 24.2 14 L 20.9 8.9 L 19.7 10 L 19.7 14 L 18 14 Z M 33.8 10.8 C 33.8 10.8 35.5 11 35.5 11 C 35.2 12 34.7 12.8 34 13.4 C 33.2 13.9 32.3 14.2 31.1 14.2 C 29.7 14.2 28.5 13.8 27.7 12.9 C 26.8 12 26.4 10.7 26.4 9.1 C 26.4 7.4 26.8 6.1 27.7 5.2 C 28.5 4.3 29.7 3.8 31 3.8 C 32.4 3.8 33.5 4.3 34.3 5.2 C 35.1 6.1 35.6 7.3 35.6 9 C 35.6 9.1 35.6 9.2 35.6 9.4 C 35.6 9.4 28.1 9.4 28.1 9.4 C 28.2 10.5 28.5 11.4 29.1 11.9 C 29.6 12.5 30.3 12.8 31.1 12.8 C 31.8 12.8 32.3 12.7 32.7 12.3 C 33.2 12 33.5 11.5 33.8 10.8 Z M 28.2 8 C 28.2 8 33.8 8 33.8 8 C 33.7 7.2 33.5 6.6 33.1 6.2 C 32.6 5.5 31.9 5.2 31.1 5.2 C 30.3 5.2 29.6 5.4 29.1 6 C 28.6 6.5 28.3 7.2 28.2 8 Z M 42.6 9.6 C 42.6 9.6 44.3 9.4 44.3 9.4 C 44.4 10.1 44.5 10.7 44.8 11.1 C 45.1 11.5 45.6 11.9 46.2 12.2 C 46.8 12.4 47.5 12.6 48.3 12.6 C 49 12.6 49.6 12.5 50.2 12.3 C 50.7 12.1 51.1 11.8 51.4 11.4 C 51.6 11.1 51.7 10.7 51.7 10.2 C 51.7 9.8 51.6 9.4 51.4 9.1 C 51.1 8.8 50.7 8.5 50.1 8.3 C 49.8 8.2 48.9 7.9 47.7 7.6 C 46.4 7.3 45.5 7 45 6.8 C 44.4 6.4 43.9 6 43.6 5.5 C 43.2 5 43.1 4.4 43.1 3.8 C 43.1 3.1 43.3 2.4 43.7 1.8 C 44.1 1.2 44.6 0.8 45.4 0.5 C 46.2 0.2 47 0 47.9 0 C 48.9 0 49.8 0.2 50.6 0.5 C 51.4 0.8 52 1.3 52.4 1.9 C 52.8 2.6 53.1 3.3 53.1 4.1 C 53.1 4.1 51.3 4.2 51.3 4.2 C 51.2 3.4 50.9 2.7 50.4 2.3 C 49.8 1.8 49 1.6 48 1.6 C 46.9 1.6 46.1 1.8 45.6 2.2 C 45.1 2.6 44.8 3.1 44.8 3.7 C 44.8 4.2 45 4.6 45.4 4.9 C 45.7 5.2 46.6 5.5 48.1 5.9 C 49.6 6.2 50.6 6.5 51.2 6.7 C 52 7.1 52.5 7.6 52.9 8.1 C 53.3 8.7 53.5 9.4 53.5 10.1 C 53.5 10.8 53.3 11.5 52.9 12.2 C 52.4 12.8 51.8 13.3 51.1 13.7 C 50.3 14 49.4 14.2 48.4 14.2 C 47.2 14.2 46.1 14 45.3 13.7 C 44.4 13.3 43.8 12.8 43.3 12 C 42.8 11.3 42.6 10.5 42.6 9.6 Z M 58.5 12.5 C 58.7 12.5 59 12.5 59.3 12.5 C 59.3 12.5 59.5 14 59.5 14 C 59.1 14.1 58.6 14.1 58.3 14.1 C 57.6 14.1 57.2 14 56.8 13.8 C 56.5 13.6 56.3 13.4 56.1 13.1 C 56 12.7 55.9 12.1 55.9 11.1 C 55.91 11.06 55.9 5.3 55.9 5.3 L 54.7 5.3 L 54.7 4 L 55.9 4 L 55.9 1.6 L 57.6 0.5 L 57.6 4 L 59.3 4 L 59.3 5.3 L 57.6 5.3 C 57.6 5.3 57.59 11.16 57.6 11.2 C 57.6 11.6 57.6 11.9 57.7 12.1 C 57.7 12.2 57.8 12.3 58 12.4 C 58.1 12.5 58.3 12.5 58.5 12.5 C 58.5 12.5 58.5 12.5 58.5 12.5 Z M 60 9 C 60 7.2 60.5 5.8 61.5 4.9 C 62.4 4.2 63.4 3.8 64.7 3.8 C 66 3.8 67.2 4.2 68 5.1 C 68.9 6 69.3 7.3 69.3 8.9 C 69.3 10.1 69.1 11.1 68.8 11.9 C 68.4 12.6 67.8 13.2 67.1 13.6 C 66.3 14 65.5 14.2 64.7 14.2 C 63.3 14.2 62.2 13.8 61.3 12.9 C 60.4 12 60 10.7 60 9 Z M 61.7 9 C 61.7 10.3 62 11.2 62.6 11.9 C 63.1 12.5 63.8 12.8 64.7 12.8 C 65.5 12.8 66.2 12.5 66.8 11.9 C 67.3 11.2 67.6 10.3 67.6 8.9 C 67.6 7.7 67.3 6.8 66.8 6.1 C 66.2 5.5 65.5 5.2 64.7 5.2 C 63.8 5.2 63.1 5.5 62.6 6.1 C 62 6.8 61.7 7.7 61.7 9 Z M 71.2 14 L 71.2 4 L 72.7 4 C 72.7 4 72.69 5.53 72.7 5.5 C 73.1 4.8 73.4 4.4 73.8 4.1 C 74.1 3.9 74.5 3.8 74.8 3.8 C 75.4 3.8 76 4 76.6 4.3 C 76.6 4.3 76 5.9 76 5.9 C 75.6 5.7 75.2 5.5 74.8 5.5 C 74.4 5.5 74.1 5.7 73.8 5.9 C 73.5 6.1 73.3 6.4 73.1 6.8 C 73 7.4 72.9 8.1 72.9 8.8 C 72.86 8.77 72.9 14 72.9 14 L 71.2 14 Z M 84.3 14 C 84.1 13.6 84 13.2 84 12.8 C 83.3 13.3 82.7 13.7 82.1 13.9 C 81.6 14.1 80.9 14.2 80.3 14.2 C 79.2 14.2 78.4 13.9 77.8 13.4 C 77.2 12.9 76.9 12.2 76.9 11.4 C 76.9 10.9 77 10.4 77.2 10 C 77.4 9.6 77.7 9.3 78.1 9 C 78.4 8.8 78.9 8.6 79.3 8.5 C 79.6 8.4 80.1 8.3 80.8 8.2 C 82.2 8.1 83.2 7.9 83.8 7.7 C 83.8 7.4 83.8 7.3 83.8 7.2 C 83.8 6.5 83.7 6 83.3 5.8 C 82.9 5.4 82.3 5.2 81.4 5.2 C 80.6 5.2 80 5.3 79.7 5.6 C 79.3 5.9 79 6.4 78.8 7.1 C 78.8 7.1 77.2 6.9 77.2 6.9 C 77.3 6.2 77.6 5.6 77.9 5.2 C 78.3 4.7 78.8 4.4 79.4 4.1 C 80.1 3.9 80.8 3.8 81.7 3.8 C 82.5 3.8 83.2 3.9 83.7 4.1 C 84.3 4.3 84.7 4.5 84.9 4.9 C 85.2 5.2 85.3 5.5 85.4 6 C 85.5 6.3 85.5 6.8 85.5 7.6 C 85.5 7.6 85.5 9.8 85.5 9.8 C 85.5 11.4 85.6 12.4 85.6 12.8 C 85.7 13.2 85.8 13.6 86.1 14 C 86.05 13.98 84.3 14 84.3 14 C 84.3 14 84.29 13.98 84.3 14 Z M 83.8 9 C 83.2 9.2 82.3 9.4 81.1 9.6 C 80.4 9.7 79.9 9.8 79.6 10 C 79.3 10.1 79.1 10.3 78.9 10.5 C 78.8 10.7 78.7 11 78.7 11.3 C 78.7 11.8 78.9 12.1 79.2 12.4 C 79.5 12.7 80 12.9 80.7 12.9 C 81.3 12.9 81.9 12.7 82.4 12.5 C 82.9 12.2 83.3 11.8 83.5 11.3 C 83.7 10.9 83.8 10.3 83.8 9.6 C 83.8 9.6 83.8 9 83.8 9 Z M 87.6 14.8 C 87.6 14.8 89.3 15 89.3 15 C 89.3 15.6 89.5 15.9 89.8 16.2 C 90.2 16.5 90.8 16.6 91.5 16.6 C 92.3 16.6 92.9 16.5 93.4 16.2 C 93.8 15.8 94.1 15.4 94.2 14.8 C 94.3 14.5 94.3 13.8 94.3 12.7 C 93.6 13.5 92.7 14 91.6 14 C 90.2 14 89.2 13.5 88.4 12.5 C 87.7 11.5 87.3 10.3 87.3 8.9 C 87.3 8 87.4 7.1 87.8 6.3 C 88.1 5.5 88.6 4.9 89.3 4.5 C 89.9 4 90.7 3.8 91.6 3.8 C 92.8 3.8 93.7 4.3 94.5 5.2 C 94.49 5.22 94.5 4 94.5 4 L 96.1 4 C 96.1 4 96.05 12.63 96.1 12.6 C 96.1 14.2 95.9 15.3 95.6 15.9 C 95.3 16.6 94.8 17.1 94.1 17.5 C 93.4 17.8 92.6 18 91.6 18 C 90.4 18 89.4 17.8 88.7 17.2 C 87.9 16.7 87.6 15.9 87.6 14.8 Z M 89 8.8 C 89 10.1 89.3 11.1 89.8 11.7 C 90.3 12.3 91 12.6 91.7 12.6 C 92.5 12.6 93.2 12.3 93.7 11.7 C 94.2 11.1 94.5 10.2 94.5 8.9 C 94.5 7.7 94.2 6.7 93.7 6.1 C 93.1 5.5 92.5 5.2 91.7 5.2 C 91 5.2 90.3 5.5 89.8 6.1 C 89.3 6.7 89 7.6 89 8.8 Z M 105.3 10.8 C 105.3 10.8 107 11 107 11 C 106.7 12 106.2 12.8 105.5 13.4 C 104.7 13.9 103.8 14.2 102.6 14.2 C 101.2 14.2 100 13.8 99.2 12.9 C 98.3 12 97.9 10.7 97.9 9.1 C 97.9 7.4 98.3 6.1 99.2 5.2 C 100.1 4.3 101.2 3.8 102.5 3.8 C 103.9 3.8 105 4.3 105.8 5.2 C 106.7 6.1 107.1 7.3 107.1 9 C 107.1 9.1 107.1 9.2 107.1 9.4 C 107.1 9.4 99.6 9.4 99.6 9.4 C 99.7 10.5 100 11.4 100.6 11.9 C 101.1 12.5 101.8 12.8 102.6 12.8 C 103.3 12.8 103.8 12.7 104.2 12.3 C 104.7 12 105 11.5 105.3 10.8 Z M 99.7 8 C 99.7 8 105.3 8 105.3 8 C 105.2 7.2 105 6.6 104.7 6.2 C 104.1 5.5 103.4 5.2 102.6 5.2 C 101.8 5.2 101.1 5.4 100.6 6 C 100.1 6.5 99.8 7.2 99.7 8 Z " stroke="none" fill="#ffffff"/>
  </g>
</svg>