<?xml version="1.0" standalone="no"?>
<!DOCTYPE svg PUBLIC "-//W3C//DTD SVG 1.1//EN" "http://www.w3.org/Graphics/SVG/1.1/DTD/svg11.dtd">
<svg xmlns="http://www.w3.org/2000/svg" version="1.1" width="155px" height="41.4px" viewBox="0 -5 155 41.4" style="top:-5px">
  <desc>SHREDDED Paper Since 2017 IS EQUIVALENT TO</desc>
  <defs/>
  <g id="Polygon64469">
    <path d="M 0.6 18 C 0.6 18 1.4 17.9 1.4 17.9 C 1.4 18.3 1.5 18.5 1.7 18.8 C 1.8 19 2 19.1 2.3 19.3 C 2.6 19.4 3 19.5 3.3 19.5 C 3.7 19.5 4 19.4 4.2 19.3 C 4.5 19.2 4.7 19.1 4.8 18.9 C 4.9 18.7 5 18.5 5 18.3 C 5 18.1 4.9 18 4.8 17.8 C 4.7 17.6 4.5 17.5 4.2 17.4 C 4 17.3 3.6 17.2 3 17.1 C 2.4 16.9 2 16.8 1.8 16.7 C 1.4 16.5 1.2 16.3 1.1 16.1 C 0.9 15.8 0.8 15.5 0.8 15.2 C 0.8 14.9 0.9 14.6 1.1 14.3 C 1.3 14 1.6 13.8 1.9 13.7 C 2.3 13.5 2.7 13.4 3.1 13.4 C 3.6 13.4 4.1 13.5 4.4 13.7 C 4.8 13.8 5.1 14.1 5.3 14.4 C 5.5 14.7 5.6 15 5.6 15.4 C 5.6 15.4 4.8 15.5 4.8 15.5 C 4.7 15 4.6 14.7 4.3 14.5 C 4.1 14.3 3.7 14.2 3.2 14.2 C 2.7 14.2 2.3 14.3 2 14.5 C 1.8 14.7 1.7 14.9 1.7 15.2 C 1.7 15.4 1.8 15.6 1.9 15.8 C 2.1 15.9 2.5 16.1 3.2 16.2 C 4 16.4 4.4 16.5 4.7 16.7 C 5.1 16.8 5.4 17.1 5.6 17.3 C 5.7 17.6 5.8 17.9 5.8 18.3 C 5.8 18.6 5.7 19 5.5 19.3 C 5.3 19.6 5 19.8 4.7 20 C 4.3 20.2 3.9 20.2 3.4 20.2 C 2.8 20.2 2.3 20.2 1.9 20 C 1.5 19.8 1.2 19.6 0.9 19.2 C 0.7 18.9 0.6 18.5 0.6 18 Z M 7.5 20.1 L 7.5 13.5 L 8.4 13.5 L 8.4 20.1 L 7.5 20.1 Z M 10.2 20.1 L 10.2 13.5 L 11.1 13.5 L 14.6 18.7 L 14.6 13.5 L 15.4 13.5 L 15.4 20.1 L 14.5 20.1 L 11.1 15 L 11.1 20.1 L 10.2 20.1 Z M 21.9 17.8 C 21.9 17.8 22.8 18 22.8 18 C 22.6 18.8 22.3 19.3 21.8 19.7 C 21.3 20.1 20.7 20.2 20.1 20.2 C 19.3 20.2 18.8 20.1 18.3 19.8 C 17.9 19.5 17.5 19.1 17.3 18.6 C 17.1 18 17 17.4 17 16.8 C 17 16.1 17.1 15.5 17.3 15 C 17.6 14.5 18 14.1 18.5 13.8 C 19 13.6 19.5 13.4 20.1 13.4 C 20.7 13.4 21.3 13.6 21.7 13.9 C 22.2 14.3 22.5 14.7 22.7 15.3 C 22.7 15.3 21.8 15.6 21.8 15.6 C 21.7 15.1 21.4 14.7 21.1 14.5 C 20.9 14.3 20.5 14.2 20.1 14.2 C 19.5 14.2 19.1 14.3 18.8 14.5 C 18.4 14.8 18.2 15.1 18.1 15.5 C 17.9 15.9 17.9 16.3 17.9 16.8 C 17.9 17.3 17.9 17.8 18.1 18.3 C 18.3 18.7 18.5 19 18.9 19.2 C 19.2 19.4 19.6 19.5 20 19.5 C 20.5 19.5 20.9 19.4 21.2 19.1 C 21.6 18.8 21.8 18.4 21.9 17.8 Z M 24.2 20.1 L 24.2 13.5 L 29 13.5 L 29 14.3 L 25.1 14.3 L 25.1 16.3 L 28.7 16.3 L 28.7 17.1 L 25.1 17.1 L 25.1 19.4 L 29.1 19.4 L 29.1 20.1 L 24.2 20.1 Z M 37 19.4 L 37 20.1 C 37 20.1 32.62 20.14 32.6 20.1 C 32.6 19.9 32.6 19.8 32.7 19.6 C 32.8 19.3 33 19 33.3 18.7 C 33.5 18.4 33.8 18.1 34.3 17.7 C 35 17.1 35.5 16.6 35.8 16.3 C 36 16 36.1 15.6 36.1 15.3 C 36.1 15 36 14.7 35.8 14.5 C 35.6 14.3 35.3 14.2 34.9 14.2 C 34.5 14.2 34.2 14.3 34 14.5 C 33.7 14.8 33.6 15.1 33.6 15.5 C 33.6 15.5 32.8 15.4 32.8 15.4 C 32.8 14.8 33 14.3 33.4 14 C 33.8 13.7 34.3 13.5 34.9 13.5 C 35.6 13.5 36.1 13.7 36.4 14 C 36.8 14.4 37 14.8 37 15.3 C 37 15.6 36.9 15.9 36.8 16.1 C 36.7 16.4 36.5 16.6 36.3 16.9 C 36 17.2 35.6 17.6 35 18.1 C 34.5 18.5 34.2 18.8 34.1 18.9 C 34 19.1 33.8 19.2 33.7 19.4 C 33.75 19.36 37 19.4 37 19.4 Z M 38.5 19.6 C 38.1 19 37.9 18.1 37.9 16.9 C 37.9 16.1 37.9 15.5 38.1 15 C 38.3 14.5 38.5 14.2 38.8 13.9 C 39.1 13.6 39.5 13.5 40 13.5 C 40.4 13.5 40.7 13.6 40.9 13.7 C 41.2 13.9 41.4 14.1 41.6 14.3 C 41.8 14.6 41.9 14.9 42 15.3 C 42.1 15.7 42.2 16.2 42.2 16.9 C 42.2 17.7 42.1 18.3 41.9 18.8 C 41.8 19.2 41.5 19.6 41.2 19.9 C 40.9 20.1 40.5 20.2 40 20.2 C 39.4 20.2 38.9 20 38.5 19.6 C 38.5 19.6 38.5 19.6 38.5 19.6 Z M 39.1 14.7 C 38.8 15.1 38.7 15.8 38.7 16.9 C 38.7 18 38.8 18.7 39.1 19 C 39.3 19.4 39.6 19.6 40 19.6 C 40.4 19.6 40.7 19.4 40.9 19 C 41.2 18.7 41.3 18 41.3 16.9 C 41.3 15.8 41.2 15.1 40.9 14.7 C 40.7 14.4 40.4 14.2 40 14.2 C 39.6 14.2 39.3 14.3 39.1 14.7 C 39.1 14.7 39.1 14.7 39.1 14.7 Z M 46 20.1 L 45.2 20.1 C 45.2 20.1 45.22 14.97 45.2 15 C 45 15.2 44.8 15.3 44.5 15.5 C 44.1 15.7 43.9 15.9 43.6 16 C 43.6 16 43.6 15.2 43.6 15.2 C 44.1 15 44.4 14.7 44.8 14.4 C 45.1 14.1 45.4 13.8 45.5 13.5 C 45.51 13.51 46 13.5 46 13.5 L 46 20.1 Z M 48.2 14.4 L 48.2 13.6 L 52.4 13.6 C 52.4 13.6 52.43 14.25 52.4 14.3 C 52 14.7 51.6 15.3 51.2 16 C 50.8 16.8 50.4 17.5 50.2 18.3 C 50.1 18.9 50 19.5 49.9 20.1 C 49.9 20.1 49.1 20.1 49.1 20.1 C 49.1 19.6 49.2 19 49.4 18.3 C 49.6 17.5 49.9 16.8 50.2 16.1 C 50.6 15.4 51 14.9 51.4 14.4 C 51.39 14.4 48.2 14.4 48.2 14.4 Z M 56.4 20.1 L 56.4 13.5 L 57.3 13.5 L 57.3 20.1 L 56.4 20.1 Z M 58.9 18 C 58.9 18 59.7 17.9 59.7 17.9 C 59.7 18.3 59.8 18.5 60 18.8 C 60.1 19 60.3 19.1 60.6 19.3 C 60.9 19.4 61.3 19.5 61.6 19.5 C 62 19.5 62.3 19.4 62.5 19.3 C 62.8 19.2 63 19.1 63.1 18.9 C 63.2 18.7 63.3 18.5 63.3 18.3 C 63.3 18.1 63.2 18 63.1 17.8 C 63 17.6 62.8 17.5 62.5 17.4 C 62.3 17.3 61.9 17.2 61.3 17.1 C 60.7 16.9 60.3 16.8 60.1 16.7 C 59.7 16.5 59.5 16.3 59.4 16.1 C 59.2 15.8 59.1 15.5 59.1 15.2 C 59.1 14.9 59.2 14.6 59.4 14.3 C 59.6 14 59.9 13.8 60.2 13.7 C 60.6 13.5 61 13.4 61.4 13.4 C 61.9 13.4 62.4 13.5 62.7 13.7 C 63.1 13.8 63.4 14.1 63.6 14.4 C 63.8 14.7 63.9 15 63.9 15.4 C 63.9 15.4 63.1 15.5 63.1 15.5 C 63 15 62.9 14.7 62.6 14.5 C 62.4 14.3 62 14.2 61.5 14.2 C 60.9 14.2 60.6 14.3 60.3 14.5 C 60.1 14.7 60 14.9 60 15.2 C 60 15.4 60 15.6 60.2 15.8 C 60.4 15.9 60.8 16.1 61.5 16.2 C 62.2 16.4 62.7 16.5 63 16.7 C 63.4 16.8 63.7 17.1 63.8 17.3 C 64 17.6 64.1 17.9 64.1 18.3 C 64.1 18.6 64 19 63.8 19.3 C 63.6 19.6 63.3 19.8 63 20 C 62.6 20.2 62.2 20.2 61.7 20.2 C 61.1 20.2 60.6 20.2 60.2 20 C 59.8 19.8 59.5 19.6 59.2 19.2 C 59 18.9 58.9 18.5 58.9 18 Z M 68.2 20.1 L 68.2 13.5 L 73 13.5 L 73 14.3 L 69.1 14.3 L 69.1 16.3 L 72.7 16.3 L 72.7 17.1 L 69.1 17.1 L 69.1 19.4 L 73.1 19.4 L 73.1 20.1 L 68.2 20.1 Z M 79.7 19.4 C 80.1 19.7 80.4 19.9 80.8 20 C 80.8 20 80.5 20.6 80.5 20.6 C 80.1 20.5 79.6 20.2 79.1 19.8 C 78.6 20.1 78.1 20.2 77.5 20.2 C 76.9 20.2 76.4 20.1 75.9 19.8 C 75.4 19.5 75 19.1 74.7 18.6 C 74.5 18.1 74.4 17.5 74.4 16.8 C 74.4 16.2 74.5 15.6 74.7 15.1 C 75 14.5 75.4 14.1 75.9 13.8 C 76.4 13.6 76.9 13.4 77.5 13.4 C 78.1 13.4 78.7 13.6 79.2 13.9 C 79.6 14.1 80 14.6 80.3 15.1 C 80.5 15.6 80.7 16.2 80.7 16.8 C 80.7 17.4 80.6 17.9 80.4 18.3 C 80.2 18.7 80 19.1 79.7 19.4 Z M 77.7 18.3 C 78.2 18.5 78.7 18.7 79 18.9 C 79.5 18.5 79.8 17.8 79.8 16.8 C 79.8 16.3 79.7 15.8 79.5 15.4 C 79.3 15 79 14.7 78.7 14.5 C 78.3 14.3 77.9 14.2 77.5 14.2 C 76.9 14.2 76.3 14.4 75.9 14.8 C 75.5 15.3 75.3 16 75.3 16.8 C 75.3 17.7 75.5 18.4 75.9 18.8 C 76.3 19.3 76.9 19.5 77.5 19.5 C 77.8 19.5 78.1 19.4 78.4 19.3 C 78.1 19.1 77.8 19 77.5 18.9 C 77.5 18.9 77.7 18.3 77.7 18.3 Z M 86.5 13.5 L 87.4 13.5 C 87.4 13.5 87.36 17.35 87.4 17.4 C 87.4 18 87.3 18.5 87.1 18.9 C 87 19.3 86.7 19.6 86.3 19.9 C 85.9 20.1 85.4 20.2 84.8 20.2 C 84.2 20.2 83.7 20.1 83.3 19.9 C 82.9 19.7 82.6 19.4 82.4 19 C 82.3 18.6 82.2 18 82.2 17.4 C 82.17 17.35 82.2 13.5 82.2 13.5 L 83 13.5 C 83 13.5 83.04 17.35 83 17.3 C 83 17.9 83.1 18.3 83.2 18.6 C 83.3 18.9 83.5 19.1 83.8 19.2 C 84 19.4 84.3 19.5 84.7 19.5 C 85.3 19.5 85.8 19.3 86.1 19 C 86.4 18.7 86.5 18.2 86.5 17.3 C 86.49 17.35 86.5 13.5 86.5 13.5 Z M 89.3 20.1 L 89.3 13.5 L 90.2 13.5 L 90.2 20.1 L 89.3 20.1 Z M 93.9 20.1 L 91.4 13.5 L 92.3 13.5 C 92.3 13.5 94.01 18.33 94 18.3 C 94.1 18.7 94.3 19.1 94.4 19.4 C 94.5 19.1 94.6 18.7 94.7 18.3 C 94.71 18.33 96.5 13.5 96.5 13.5 L 97.4 13.5 L 94.8 20.1 L 93.9 20.1 Z M 97.1 20.1 L 99.6 13.5 L 100.6 13.5 L 103.3 20.1 L 102.3 20.1 L 101.5 18.1 L 98.7 18.1 L 98 20.1 L 97.1 20.1 Z M 99 17.4 L 101.2 17.4 C 101.2 17.4 100.54 15.6 100.5 15.6 C 100.3 15 100.2 14.6 100.1 14.2 C 100 14.7 99.9 15.1 99.7 15.5 C 99.71 15.49 99 17.4 99 17.4 Z M 104.2 20.1 L 104.2 13.5 L 105.1 13.5 L 105.1 19.4 L 108.4 19.4 L 108.4 20.1 L 104.2 20.1 Z M 109.7 20.1 L 109.7 13.5 L 114.5 13.5 L 114.5 14.3 L 110.6 14.3 L 110.6 16.3 L 114.3 16.3 L 114.3 17.1 L 110.6 17.1 L 110.6 19.4 L 114.7 19.4 L 114.7 20.1 L 109.7 20.1 Z M 116.2 20.1 L 116.2 13.5 L 117.1 13.5 L 120.6 18.7 L 120.6 13.5 L 121.4 13.5 L 121.4 20.1 L 120.5 20.1 L 117 15 L 117 20.1 L 116.2 20.1 Z M 124.9 20.1 L 124.9 14.3 L 122.7 14.3 L 122.7 13.5 L 127.9 13.5 L 127.9 14.3 L 125.7 14.3 L 125.7 20.1 L 124.9 20.1 Z M 133 20.1 L 133 14.3 L 130.9 14.3 L 130.9 13.5 L 136.1 13.5 L 136.1 14.3 L 133.9 14.3 L 133.9 20.1 L 133 20.1 Z M 136.9 16.9 C 136.9 15.8 137.2 15 137.8 14.4 C 138.4 13.7 139.1 13.4 140 13.4 C 140.6 13.4 141.2 13.6 141.7 13.9 C 142.2 14.1 142.5 14.6 142.8 15.1 C 143.1 15.6 143.2 16.2 143.2 16.8 C 143.2 17.5 143.1 18.1 142.8 18.6 C 142.5 19.2 142.1 19.6 141.6 19.8 C 141.1 20.1 140.6 20.2 140 20.2 C 139.4 20.2 138.9 20.1 138.4 19.8 C 137.9 19.5 137.5 19.1 137.3 18.6 C 137 18.1 136.9 17.5 136.9 16.9 Z M 137.8 16.9 C 137.8 17.7 138 18.4 138.4 18.8 C 138.8 19.3 139.4 19.5 140 19.5 C 140.7 19.5 141.2 19.3 141.7 18.8 C 142.1 18.3 142.3 17.7 142.3 16.8 C 142.3 16.3 142.2 15.8 142 15.4 C 141.8 15 141.6 14.7 141.2 14.5 C 140.9 14.3 140.5 14.2 140 14.2 C 139.4 14.2 138.9 14.4 138.4 14.8 C 138 15.2 137.8 15.9 137.8 16.9 Z " stroke="none" fill="#ffffff"/>
  </g>
  <g id="Polygon64468">
    <path d="M 0.8 6.2 C 0.8 6.2 1.9 6.1 1.9 6.1 C 1.9 6.6 2.1 6.9 2.3 7.2 C 2.5 7.5 2.8 7.7 3.2 7.9 C 3.6 8.1 4 8.2 4.5 8.2 C 5 8.2 5.4 8.1 5.7 8 C 6.1 7.8 6.3 7.7 6.5 7.4 C 6.7 7.2 6.7 6.9 6.7 6.7 C 6.7 6.4 6.7 6.1 6.5 5.9 C 6.3 5.7 6.1 5.5 5.7 5.4 C 5.5 5.3 4.9 5.2 4.1 5 C 3.3 4.8 2.7 4.6 2.4 4.4 C 2 4.2 1.6 3.9 1.4 3.6 C 1.2 3.2 1.1 2.9 1.1 2.5 C 1.1 2 1.2 1.6 1.5 1.2 C 1.8 0.8 2.1 0.5 2.6 0.3 C 3.1 0.1 3.7 0 4.3 0 C 4.9 0 5.5 0.1 6 0.3 C 6.5 0.5 6.9 0.8 7.2 1.3 C 7.4 1.7 7.6 2.1 7.6 2.7 C 7.6 2.7 6.5 2.8 6.5 2.8 C 6.4 2.2 6.2 1.8 5.9 1.5 C 5.5 1.2 5 1 4.3 1 C 3.6 1 3.1 1.2 2.7 1.4 C 2.4 1.7 2.3 2 2.3 2.4 C 2.3 2.7 2.4 3 2.6 3.2 C 2.8 3.4 3.4 3.6 4.4 3.8 C 5.3 4 6 4.2 6.4 4.4 C 6.9 4.6 7.3 4.9 7.5 5.3 C 7.8 5.7 7.9 6.1 7.9 6.6 C 7.9 7 7.7 7.5 7.5 7.9 C 7.2 8.3 6.8 8.6 6.3 8.9 C 5.8 9.1 5.2 9.2 4.6 9.2 C 3.8 9.2 3.1 9.1 2.6 8.9 C 2 8.6 1.6 8.3 1.3 7.8 C 1 7.3 0.8 6.8 0.8 6.2 Z M 10 9.1 L 10 0.2 L 11.2 0.2 L 11.2 3.8 L 15.8 3.8 L 15.8 0.2 L 17 0.2 L 17 9.1 L 15.8 9.1 L 15.8 4.9 L 11.2 4.9 L 11.2 9.1 L 10 9.1 Z M 19.4 9.1 L 19.4 0.2 C 19.4 0.2 23.35 0.15 23.4 0.2 C 24.1 0.2 24.8 0.2 25.2 0.4 C 25.6 0.6 25.9 0.8 26.2 1.2 C 26.4 1.6 26.5 2.1 26.5 2.6 C 26.5 3.2 26.3 3.8 25.9 4.2 C 25.5 4.6 24.9 4.9 24 5 C 24.3 5.2 24.6 5.3 24.7 5.5 C 25.1 5.8 25.4 6.2 25.7 6.6 C 25.71 6.65 27.3 9.1 27.3 9.1 L 25.8 9.1 C 25.8 9.1 24.6 7.22 24.6 7.2 C 24.3 6.7 24 6.3 23.7 6 C 23.5 5.7 23.3 5.5 23.1 5.4 C 23 5.3 22.8 5.2 22.6 5.2 C 22.5 5.1 22.3 5.1 21.9 5.1 C 21.95 5.11 20.6 5.1 20.6 5.1 L 20.6 9.1 L 19.4 9.1 Z M 20.6 4.1 C 20.6 4.1 23.12 4.09 23.1 4.1 C 23.7 4.1 24.1 4 24.4 3.9 C 24.7 3.8 24.9 3.6 25.1 3.4 C 25.2 3.1 25.3 2.9 25.3 2.6 C 25.3 2.2 25.2 1.8 24.9 1.5 C 24.5 1.3 24.1 1.1 23.4 1.1 C 23.4 1.14 20.6 1.1 20.6 1.1 L 20.6 4.1 Z M 28.8 9.1 L 28.8 0.2 L 35.3 0.2 L 35.3 1.2 L 30 1.2 L 30 3.9 L 35 3.9 L 35 5 L 30 5 L 30 8 L 35.5 8 L 35.5 9.1 L 28.8 9.1 Z M 37.6 9.1 L 37.6 0.2 C 37.6 0.2 40.65 0.15 40.6 0.2 C 41.3 0.2 41.9 0.2 42.2 0.3 C 42.8 0.4 43.2 0.6 43.5 0.9 C 44 1.3 44.4 1.8 44.6 2.4 C 44.8 3.1 45 3.8 45 4.6 C 45 5.2 44.9 5.8 44.7 6.4 C 44.6 6.9 44.4 7.3 44.1 7.7 C 43.9 8 43.6 8.3 43.3 8.5 C 43 8.7 42.6 8.8 42.2 8.9 C 41.8 9 41.3 9.1 40.8 9.1 C 40.8 9.08 37.6 9.1 37.6 9.1 Z M 38.8 8 C 38.8 8 40.66 8.02 40.7 8 C 41.3 8 41.7 8 42 7.9 C 42.4 7.8 42.6 7.6 42.8 7.4 C 43.1 7.1 43.3 6.7 43.5 6.3 C 43.7 5.8 43.7 5.2 43.7 4.5 C 43.7 3.6 43.6 2.9 43.3 2.4 C 43 1.9 42.6 1.6 42.2 1.4 C 41.8 1.3 41.3 1.2 40.6 1.2 C 40.63 1.21 38.8 1.2 38.8 1.2 L 38.8 8 Z M 47 9.1 L 47 0.2 C 47 0.2 50.09 0.15 50.1 0.2 C 50.8 0.2 51.3 0.2 51.7 0.3 C 52.2 0.4 52.6 0.6 53 0.9 C 53.5 1.3 53.8 1.8 54 2.4 C 54.3 3.1 54.4 3.8 54.4 4.6 C 54.4 5.2 54.3 5.8 54.2 6.4 C 54 6.9 53.8 7.3 53.6 7.7 C 53.3 8 53 8.3 52.7 8.5 C 52.4 8.7 52.1 8.8 51.7 8.9 C 51.3 9 50.8 9.1 50.2 9.1 C 50.24 9.08 47 9.1 47 9.1 Z M 48.2 8 C 48.2 8 50.1 8.02 50.1 8 C 50.7 8 51.2 8 51.5 7.9 C 51.8 7.8 52.1 7.6 52.3 7.4 C 52.6 7.1 52.8 6.7 52.9 6.3 C 53.1 5.8 53.2 5.2 53.2 4.5 C 53.2 3.6 53 2.9 52.7 2.4 C 52.4 1.9 52 1.6 51.6 1.4 C 51.3 1.3 50.8 1.2 50.1 1.2 C 50.07 1.21 48.2 1.2 48.2 1.2 L 48.2 8 Z M 56.5 9.1 L 56.5 0.2 L 62.9 0.2 L 62.9 1.2 L 57.7 1.2 L 57.7 3.9 L 62.6 3.9 L 62.6 5 L 57.7 5 L 57.7 8 L 63.1 8 L 63.1 9.1 L 56.5 9.1 Z M 65.2 9.1 L 65.2 0.2 C 65.2 0.2 68.29 0.15 68.3 0.2 C 69 0.2 69.5 0.2 69.9 0.3 C 70.4 0.4 70.8 0.6 71.2 0.9 C 71.7 1.3 72 1.8 72.2 2.4 C 72.5 3.1 72.6 3.8 72.6 4.6 C 72.6 5.2 72.5 5.8 72.4 6.4 C 72.2 6.9 72 7.3 71.7 7.7 C 71.5 8 71.2 8.3 70.9 8.5 C 70.6 8.7 70.3 8.8 69.9 8.9 C 69.5 9 69 9.1 68.4 9.1 C 68.44 9.08 65.2 9.1 65.2 9.1 Z M 66.4 8 C 66.4 8 68.3 8.02 68.3 8 C 68.9 8 69.4 8 69.7 7.9 C 70 7.8 70.3 7.6 70.5 7.4 C 70.8 7.1 71 6.7 71.1 6.3 C 71.3 5.8 71.4 5.2 71.4 4.5 C 71.4 3.6 71.2 2.9 70.9 2.4 C 70.6 1.9 70.2 1.6 69.8 1.4 C 69.5 1.3 69 1.2 68.3 1.2 C 68.27 1.21 66.4 1.2 66.4 1.2 L 66.4 8 Z M 78.1 9.1 L 78.1 0.2 C 78.1 0.2 81.49 0.15 81.5 0.2 C 82.1 0.2 82.5 0.2 82.8 0.2 C 83.3 0.3 83.7 0.4 83.9 0.7 C 84.2 0.9 84.5 1.1 84.7 1.5 C 84.8 1.9 84.9 2.3 84.9 2.7 C 84.9 3.5 84.7 4.1 84.2 4.7 C 83.7 5.2 82.9 5.4 81.6 5.4 C 81.59 5.45 79.3 5.4 79.3 5.4 L 79.3 9.1 L 78.1 9.1 Z M 79.3 4.4 C 79.3 4.4 81.61 4.4 81.6 4.4 C 82.4 4.4 82.9 4.3 83.2 4 C 83.6 3.7 83.7 3.3 83.7 2.8 C 83.7 2.4 83.6 2.1 83.4 1.8 C 83.2 1.5 83 1.4 82.7 1.3 C 82.5 1.2 82.1 1.2 81.6 1.2 C 81.59 1.21 79.3 1.2 79.3 1.2 L 79.3 4.4 Z M 85 9.1 L 88.4 0.2 L 89.7 0.2 L 93.3 9.1 L 92 9.1 L 90.9 6.4 L 87.2 6.4 L 86.2 9.1 L 85 9.1 Z M 87.5 5.4 L 90.6 5.4 C 90.6 5.4 89.64 2.94 89.6 2.9 C 89.4 2.2 89.1 1.6 89 1.1 C 88.9 1.7 88.7 2.2 88.5 2.8 C 88.53 2.79 87.5 5.4 87.5 5.4 Z M 94.7 9.1 L 94.7 0.2 C 94.7 0.2 98.07 0.15 98.1 0.2 C 98.7 0.2 99.1 0.2 99.4 0.2 C 99.9 0.3 100.2 0.4 100.5 0.7 C 100.8 0.9 101.1 1.1 101.2 1.5 C 101.4 1.9 101.5 2.3 101.5 2.7 C 101.5 3.5 101.3 4.1 100.8 4.7 C 100.3 5.2 99.4 5.4 98.2 5.4 C 98.18 5.45 95.9 5.4 95.9 5.4 L 95.9 9.1 L 94.7 9.1 Z M 95.9 4.4 C 95.9 4.4 98.19 4.4 98.2 4.4 C 99 4.4 99.5 4.3 99.8 4 C 100.1 3.7 100.3 3.3 100.3 2.8 C 100.3 2.4 100.2 2.1 100 1.8 C 99.8 1.5 99.6 1.4 99.3 1.3 C 99.1 1.2 98.7 1.2 98.2 1.2 C 98.17 1.21 95.9 1.2 95.9 1.2 L 95.9 4.4 Z M 103.5 9.1 L 103.5 0.2 L 109.9 0.2 L 109.9 1.2 L 104.7 1.2 L 104.7 3.9 L 109.6 3.9 L 109.6 5 L 104.7 5 L 104.7 8 L 110.1 8 L 110.1 9.1 L 103.5 9.1 Z M 112.2 9.1 L 112.2 0.2 C 112.2 0.2 116.19 0.15 116.2 0.2 C 117 0.2 117.6 0.2 118 0.4 C 118.4 0.6 118.7 0.8 119 1.2 C 119.2 1.6 119.4 2.1 119.4 2.6 C 119.4 3.2 119.2 3.8 118.8 4.2 C 118.3 4.6 117.7 4.9 116.9 5 C 117.2 5.2 117.4 5.3 117.6 5.5 C 117.9 5.8 118.2 6.2 118.5 6.6 C 118.55 6.65 120.1 9.1 120.1 9.1 L 118.6 9.1 C 118.6 9.1 117.43 7.22 117.4 7.2 C 117.1 6.7 116.8 6.3 116.6 6 C 116.4 5.7 116.2 5.5 116 5.4 C 115.8 5.3 115.6 5.2 115.4 5.2 C 115.3 5.1 115.1 5.1 114.8 5.1 C 114.78 5.11 113.4 5.1 113.4 5.1 L 113.4 9.1 L 112.2 9.1 Z M 113.4 4.1 C 113.4 4.1 115.95 4.09 116 4.1 C 116.5 4.1 116.9 4 117.2 3.9 C 117.5 3.8 117.8 3.6 117.9 3.4 C 118.1 3.1 118.2 2.9 118.2 2.6 C 118.2 2.2 118 1.8 117.7 1.5 C 117.4 1.3 116.9 1.1 116.2 1.1 C 116.24 1.14 113.4 1.1 113.4 1.1 L 113.4 4.1 Z " stroke="none" fill="#ffffff"/>
  </g>
</svg>