<?xml version="1.0" standalone="no"?>
<!DOCTYPE svg PUBLIC "-//W3C//DTD SVG 1.1//EN" "http://www.w3.org/Graphics/SVG/1.1/DTD/svg11.dtd">
<svg xmlns="http://www.w3.org/2000/svg" version="1.1" width="69px" height="27.7px" viewBox="0 -4 69 27.7" style="top:-4px">
  <desc>Offices</desc>
  <defs/>
  <g id="Polygon64266">
    <path d="M 0.5 3.9 C 0.5 2.7 0.8 1.7 1.5 1 C 2.1 0.3 3 0 4 0 C 4.7 0 5.3 0.2 5.8 0.5 C 6.3 0.8 6.7 1.2 7 1.8 C 7.3 2.4 7.5 3 7.5 3.8 C 7.5 4.5 7.3 5.2 7 5.8 C 6.7 6.3 6.3 6.8 5.7 7.1 C 5.2 7.4 4.6 7.5 4 7.5 C 3.3 7.5 2.7 7.4 2.1 7 C 1.6 6.7 1.2 6.3 0.9 5.7 C 0.6 5.1 0.5 4.5 0.5 3.9 Z M 1.5 3.9 C 1.5 4.8 1.7 5.4 2.2 5.9 C 2.7 6.5 3.3 6.7 4 6.7 C 4.7 6.7 5.3 6.5 5.8 5.9 C 6.2 5.4 6.5 4.7 6.5 3.8 C 6.5 3.2 6.4 2.7 6.2 2.2 C 6 1.8 5.7 1.4 5.3 1.2 C 4.9 0.9 4.5 0.8 4 0.8 C 3.3 0.8 2.7 1.1 2.2 1.5 C 1.7 2 1.5 2.8 1.5 3.9 Z M 11.4 7.4 L 11.4 2.8 L 9.7 2.8 L 9.7 7.4 L 8.8 7.4 L 8.8 2.8 L 8 2.8 L 8 2.1 L 8.8 2.1 C 8.8 2.1 8.8 1.62 8.8 1.6 C 8.8 1.1 8.9 0.7 9.1 0.4 C 9.4 0.1 9.7 0 10.2 0 C 10.5 0 10.8 0 11.1 0.1 C 11.1 0.1 11 0.9 11 0.9 C 10.8 0.8 10.6 0.8 10.5 0.8 C 10.2 0.8 10 0.9 9.9 1 C 9.8 1.1 9.7 1.4 9.7 1.8 C 9.7 1.79 9.7 2.1 9.7 2.1 L 11.4 2.1 C 11.4 2.1 11.39 1.62 11.4 1.6 C 11.4 1.1 11.5 0.7 11.7 0.4 C 12 0.1 12.3 0 12.8 0 C 13.1 0 13.4 0 13.7 0.1 C 13.7 0.1 13.6 0.9 13.6 0.9 C 13.4 0.8 13.2 0.8 13.1 0.8 C 12.8 0.8 12.6 0.9 12.5 1 C 12.3 1.1 12.3 1.4 12.3 1.8 C 12.28 1.79 12.3 2.1 12.3 2.1 L 13.3 2.1 L 13.3 2.8 L 12.3 2.8 L 12.3 7.4 L 11.4 7.4 Z M 14 1.2 L 14 0.1 L 14.9 0.1 L 14.9 1.2 L 14 1.2 Z M 14 7.4 L 14 2.1 L 14.9 2.1 L 14.9 7.4 L 14 7.4 Z M 19.7 5.5 C 19.7 5.5 20.6 5.6 20.6 5.6 C 20.5 6.2 20.2 6.7 19.8 7 C 19.4 7.4 19 7.5 18.4 7.5 C 17.7 7.5 17.1 7.3 16.6 6.8 C 16.2 6.3 16 5.7 16 4.8 C 16 4.2 16.1 3.7 16.3 3.3 C 16.4 2.9 16.7 2.5 17.1 2.3 C 17.5 2.1 17.9 2 18.4 2 C 19 2 19.4 2.2 19.8 2.4 C 20.1 2.7 20.4 3.1 20.5 3.7 C 20.5 3.7 19.6 3.8 19.6 3.8 C 19.5 3.5 19.4 3.2 19.2 3 C 19 2.8 18.7 2.7 18.4 2.7 C 18 2.7 17.6 2.9 17.3 3.2 C 17 3.6 16.9 4.1 16.9 4.8 C 16.9 5.5 17 6 17.3 6.3 C 17.6 6.6 17.9 6.8 18.4 6.8 C 18.7 6.8 19 6.7 19.2 6.5 C 19.5 6.3 19.6 5.9 19.7 5.5 Z M 24.9 5.7 C 24.9 5.7 25.9 5.8 25.9 5.8 C 25.7 6.4 25.5 6.8 25.1 7.1 C 24.7 7.4 24.2 7.5 23.6 7.5 C 22.8 7.5 22.2 7.3 21.7 6.8 C 21.3 6.3 21 5.7 21 4.8 C 21 3.9 21.3 3.2 21.7 2.7 C 22.2 2.3 22.8 2 23.5 2 C 24.2 2 24.8 2.3 25.2 2.7 C 25.7 3.2 25.9 3.9 25.9 4.8 C 25.9 4.8 25.9 4.9 25.9 5 C 25.9 5 22 5 22 5 C 22 5.6 22.2 6 22.5 6.3 C 22.7 6.6 23.1 6.8 23.6 6.8 C 23.9 6.8 24.2 6.7 24.4 6.5 C 24.6 6.4 24.8 6.1 24.9 5.7 Z M 22 4.3 C 22 4.3 25 4.3 25 4.3 C 24.9 3.8 24.8 3.5 24.6 3.3 C 24.3 2.9 24 2.7 23.5 2.7 C 23.1 2.7 22.8 2.9 22.5 3.2 C 22.2 3.4 22 3.8 22 4.3 Z M 26.6 5.8 C 26.6 5.8 27.5 5.7 27.5 5.7 C 27.6 6 27.7 6.3 27.9 6.5 C 28.2 6.7 28.5 6.8 28.9 6.8 C 29.3 6.8 29.6 6.7 29.8 6.5 C 30 6.4 30.1 6.2 30.1 6 C 30.1 5.8 30 5.6 29.8 5.5 C 29.7 5.4 29.4 5.3 28.9 5.2 C 28.3 5 27.8 4.9 27.6 4.7 C 27.3 4.6 27.1 4.5 27 4.2 C 26.9 4 26.8 3.8 26.8 3.5 C 26.8 3.3 26.8 3.1 26.9 2.9 C 27.1 2.7 27.2 2.5 27.4 2.4 C 27.5 2.3 27.7 2.2 28 2.1 C 28.2 2 28.5 2 28.7 2 C 29.1 2 29.5 2.1 29.8 2.2 C 30.1 2.3 30.4 2.5 30.5 2.7 C 30.7 2.9 30.8 3.2 30.8 3.5 C 30.8 3.5 29.9 3.6 29.9 3.6 C 29.9 3.3 29.8 3.1 29.6 3 C 29.4 2.8 29.1 2.7 28.8 2.7 C 28.4 2.7 28.1 2.8 27.9 3 C 27.7 3.1 27.7 3.2 27.7 3.4 C 27.7 3.5 27.7 3.6 27.8 3.7 C 27.8 3.8 27.9 3.9 28.1 4 C 28.2 4 28.5 4.1 28.9 4.2 C 29.5 4.4 30 4.5 30.2 4.6 C 30.5 4.7 30.7 4.9 30.8 5.1 C 30.9 5.3 31 5.6 31 5.9 C 31 6.2 30.9 6.4 30.8 6.7 C 30.6 7 30.3 7.2 30 7.3 C 29.7 7.5 29.3 7.5 28.9 7.5 C 28.2 7.5 27.7 7.4 27.3 7.1 C 27 6.8 26.7 6.4 26.6 5.8 Z " stroke="none" fill="#ffffff"/>
  </g>
</svg>