<?xml version="1.0" standalone="no"?>
<!DOCTYPE svg PUBLIC "-//W3C//DTD SVG 1.1//EN" "http://www.w3.org/Graphics/SVG/1.1/DTD/svg11.dtd">
<svg xmlns="http://www.w3.org/2000/svg" version="1.1" width="129.2px" height="46.3px" viewBox="0 -7 129.2 46.3" style="top:-7px">
  <desc>10,589</desc>
  <defs/>
  <g id="Polygon62338">
    <path d="M 41.1 14.8 L 39.3 14.8 C 39.3 14.8 39.3 3.41 39.3 3.4 C 38.9 3.8 38.3 4.2 37.6 4.6 C 36.9 5.1 36.3 5.4 35.7 5.6 C 35.7 5.6 35.7 3.8 35.7 3.8 C 36.7 3.4 37.6 2.8 38.4 2.1 C 39.1 1.5 39.6 0.8 39.9 0.2 C 39.94 0.19 41.1 0.2 41.1 0.2 L 41.1 14.8 Z M 47.1 13.5 C 46.1 12.3 45.7 10.3 45.7 7.6 C 45.7 5.9 45.8 4.5 46.2 3.5 C 46.5 2.4 47.1 1.6 47.8 1 C 48.5 0.5 49.3 0.2 50.4 0.2 C 51.2 0.2 51.9 0.3 52.5 0.7 C 53 1 53.5 1.4 53.9 2 C 54.3 2.6 54.6 3.3 54.8 4.2 C 55 5 55.1 6.2 55.1 7.6 C 55.1 9.3 55 10.7 54.6 11.7 C 54.3 12.8 53.7 13.6 53 14.2 C 52.3 14.7 51.5 15 50.4 15 C 49 15 47.9 14.5 47.1 13.5 C 47.1 13.5 47.1 13.5 47.1 13.5 Z M 48.4 2.7 C 47.8 3.6 47.5 5.2 47.5 7.6 C 47.5 10 47.8 11.6 48.3 12.4 C 48.9 13.2 49.6 13.6 50.4 13.6 C 51.2 13.6 51.9 13.2 52.5 12.4 C 53 11.6 53.3 10 53.3 7.6 C 53.3 5.2 53 3.6 52.5 2.8 C 51.9 2.1 51.2 1.7 50.4 1.7 C 49.6 1.7 48.9 2 48.4 2.7 C 48.4 2.7 48.4 2.7 48.4 2.7 Z M 57.9 14.8 L 57.9 12.8 L 59.9 12.8 C 59.9 12.8 59.95 14.78 59.9 14.8 C 59.9 15.5 59.8 16.1 59.6 16.6 C 59.3 17.1 58.9 17.4 58.3 17.7 C 58.3 17.7 57.8 16.9 57.8 16.9 C 58.2 16.7 58.5 16.5 58.6 16.2 C 58.8 15.8 58.9 15.4 58.9 14.8 C 58.93 14.78 57.9 14.8 57.9 14.8 Z M 62.6 11 C 62.6 11 64.5 10.8 64.5 10.8 C 64.6 11.7 64.9 12.4 65.4 12.9 C 65.9 13.3 66.6 13.6 67.3 13.6 C 68.1 13.6 68.9 13.2 69.4 12.6 C 70 11.9 70.3 11.1 70.3 10 C 70.3 9 70.1 8.2 69.5 7.6 C 68.9 7 68.2 6.7 67.2 6.7 C 66.7 6.7 66.1 6.9 65.7 7.1 C 65.2 7.4 64.9 7.7 64.6 8.1 C 64.59 8.13 62.9 7.9 62.9 7.9 L 64.3 0.4 L 71.6 0.4 L 71.6 2.2 L 65.7 2.2 C 65.7 2.2 64.97 6.06 65 6.1 C 65.8 5.5 66.8 5.1 67.7 5.1 C 69 5.1 70.1 5.6 70.9 6.5 C 71.8 7.3 72.2 8.5 72.2 9.9 C 72.2 11.2 71.9 12.3 71.1 13.3 C 70.2 14.4 68.9 15 67.3 15 C 65.9 15 64.9 14.7 64 13.9 C 63.2 13.2 62.7 12.2 62.6 11 Z M 76.6 6.9 C 75.9 6.6 75.3 6.2 75 5.7 C 74.6 5.2 74.5 4.6 74.5 3.9 C 74.5 2.9 74.8 2 75.6 1.3 C 76.4 0.5 77.4 0.2 78.6 0.2 C 79.9 0.2 80.9 0.6 81.7 1.3 C 82.5 2 82.9 2.9 82.9 4 C 82.9 4.7 82.7 5.2 82.3 5.7 C 82 6.2 81.4 6.6 80.7 6.9 C 81.6 7.2 82.3 7.7 82.8 8.3 C 83.2 9 83.4 9.7 83.4 10.6 C 83.4 11.9 83 12.9 82.1 13.8 C 81.3 14.6 80.1 15 78.7 15 C 77.2 15 76.1 14.6 75.2 13.8 C 74.3 12.9 73.9 11.8 73.9 10.6 C 73.9 9.6 74.1 8.8 74.6 8.2 C 75.1 7.6 75.8 7.1 76.6 6.9 Z M 76.3 3.9 C 76.3 4.6 76.5 5.1 76.9 5.6 C 77.4 6 78 6.2 78.7 6.2 C 79.4 6.2 79.9 6 80.4 5.6 C 80.8 5.1 81 4.6 81 4 C 81 3.3 80.8 2.8 80.3 2.3 C 79.9 1.9 79.3 1.7 78.6 1.7 C 78 1.7 77.4 1.9 77 2.3 C 76.5 2.7 76.3 3.3 76.3 3.9 Z M 75.7 10.6 C 75.7 11.1 75.8 11.6 76.1 12.1 C 76.3 12.5 76.7 12.9 77.1 13.2 C 77.6 13.4 78.1 13.6 78.7 13.6 C 79.5 13.6 80.2 13.3 80.8 12.7 C 81.3 12.2 81.6 11.5 81.6 10.6 C 81.6 9.8 81.3 9.1 80.8 8.5 C 80.2 8 79.5 7.7 78.6 7.7 C 77.8 7.7 77.1 8 76.5 8.5 C 76 9.1 75.7 9.8 75.7 10.6 Z M 85.5 11.4 C 85.5 11.4 87.2 11.3 87.2 11.3 C 87.3 12.1 87.6 12.7 88 13 C 88.4 13.4 88.9 13.6 89.6 13.6 C 90.1 13.6 90.6 13.4 91 13.2 C 91.4 12.9 91.8 12.6 92 12.2 C 92.3 11.8 92.5 11.2 92.7 10.5 C 92.9 9.8 93 9 93 8.3 C 93 8.2 93 8.1 93 7.9 C 92.6 8.5 92.1 9 91.5 9.3 C 90.9 9.7 90.2 9.9 89.5 9.9 C 88.3 9.9 87.3 9.4 86.4 8.5 C 85.6 7.7 85.2 6.5 85.2 5.1 C 85.2 3.6 85.6 2.4 86.5 1.5 C 87.4 0.6 88.4 0.2 89.8 0.2 C 90.7 0.2 91.6 0.4 92.3 1 C 93.1 1.5 93.7 2.2 94.1 3.1 C 94.5 4.1 94.7 5.4 94.7 7.2 C 94.7 9.1 94.5 10.6 94.1 11.7 C 93.7 12.8 93.1 13.6 92.3 14.2 C 91.5 14.7 90.6 15 89.5 15 C 88.4 15 87.5 14.7 86.8 14.1 C 86 13.5 85.6 12.6 85.5 11.4 Z M 92.8 5 C 92.8 4 92.5 3.2 91.9 2.6 C 91.4 2 90.7 1.7 90 1.7 C 89.2 1.7 88.5 2 87.9 2.6 C 87.3 3.3 87 4.1 87 5.2 C 87 6.1 87.3 6.8 87.9 7.4 C 88.4 8 89.1 8.3 89.9 8.3 C 90.8 8.3 91.4 8 92 7.4 C 92.5 6.8 92.8 6 92.8 5 Z " stroke="none" fill="#54626c"/>
  </g>
</svg>