<?xml version="1.0" standalone="no"?>
<!DOCTYPE svg PUBLIC "-//W3C//DTD SVG 1.1//EN" "http://www.w3.org/Graphics/SVG/1.1/DTD/svg11.dtd">
<svg xmlns="http://www.w3.org/2000/svg" version="1.1" width="604px" height="79.7px" viewBox="0 -11 604 79.7" style="top:-11px">
  <desc>Headcount Growth vs Emissions</desc>
  <defs/>
  <g id="Polygon62436">
    <path d="M 2.6 23.3 L 2.6 0.4 L 5.6 0.4 L 5.6 9.8 L 17.5 9.8 L 17.5 0.4 L 20.5 0.4 L 20.5 23.3 L 17.5 23.3 L 17.5 12.5 L 5.6 12.5 L 5.6 23.3 L 2.6 23.3 Z M 36.6 18 C 36.6 18 39.5 18.3 39.5 18.3 C 39 20 38.2 21.3 36.9 22.3 C 35.7 23.2 34.1 23.7 32.2 23.7 C 29.8 23.7 27.8 22.9 26.4 21.4 C 25 19.9 24.3 17.8 24.3 15.1 C 24.3 12.3 25 10.2 26.4 8.6 C 27.9 7.1 29.7 6.3 32 6.3 C 34.3 6.3 36.1 7.1 37.5 8.6 C 38.9 10.1 39.6 12.2 39.6 15 C 39.6 15.1 39.6 15.4 39.6 15.7 C 39.6 15.7 27.2 15.7 27.2 15.7 C 27.3 17.5 27.8 18.9 28.7 19.9 C 29.7 20.9 30.8 21.4 32.2 21.4 C 33.2 21.4 34.1 21.1 34.8 20.5 C 35.6 20 36.2 19.1 36.6 18 Z M 27.3 13.4 C 27.3 13.4 36.6 13.4 36.6 13.4 C 36.5 12 36.1 11 35.5 10.3 C 34.7 9.2 33.5 8.6 32.1 8.6 C 30.8 8.6 29.7 9.1 28.8 9.9 C 27.9 10.8 27.4 12 27.3 13.4 Z M 54.4 23.3 C 54.1 22.7 53.9 22 53.8 21.3 C 52.8 22.1 51.8 22.8 50.8 23.1 C 49.9 23.5 48.8 23.7 47.7 23.7 C 45.9 23.7 44.5 23.2 43.5 22.3 C 42.6 21.4 42.1 20.3 42.1 18.9 C 42.1 18.1 42.2 17.4 42.6 16.7 C 43 16 43.5 15.5 44.1 15.1 C 44.7 14.7 45.3 14.4 46.1 14.2 C 46.6 14 47.5 13.9 48.6 13.7 C 50.9 13.5 52.5 13.1 53.6 12.8 C 53.6 12.4 53.6 12.1 53.6 12 C 53.6 10.9 53.4 10.1 52.8 9.6 C 52.1 9 51 8.7 49.6 8.7 C 48.3 8.7 47.3 8.9 46.7 9.4 C 46.1 9.8 45.6 10.6 45.3 11.8 C 45.3 11.8 42.5 11.4 42.5 11.4 C 42.8 10.3 43.2 9.3 43.8 8.6 C 44.4 7.9 45.2 7.3 46.3 6.9 C 47.3 6.5 48.6 6.3 50 6.3 C 51.4 6.3 52.6 6.5 53.5 6.8 C 54.4 7.2 55 7.6 55.4 8.1 C 55.9 8.6 56.1 9.2 56.3 10 C 56.4 10.5 56.5 11.3 56.5 12.6 C 56.5 12.6 56.5 16.3 56.5 16.3 C 56.5 19 56.5 20.6 56.6 21.3 C 56.8 22 57 22.7 57.3 23.3 C 57.34 23.3 54.4 23.3 54.4 23.3 C 54.4 23.3 54.41 23.3 54.4 23.3 Z M 53.6 15 C 52.6 15.4 51.1 15.7 49 16 C 47.9 16.2 47 16.4 46.6 16.6 C 46.1 16.8 45.7 17.1 45.5 17.5 C 45.2 17.9 45.1 18.4 45.1 18.8 C 45.1 19.6 45.3 20.2 45.9 20.7 C 46.5 21.2 47.3 21.5 48.4 21.5 C 49.5 21.5 50.5 21.2 51.3 20.8 C 52.1 20.3 52.8 19.6 53.2 18.8 C 53.5 18.2 53.6 17.2 53.6 16 C 53.6 16 53.6 15 53.6 15 Z M 71.6 23.3 C 71.6 23.3 71.58 21.2 71.6 21.2 C 70.5 22.8 69 23.7 66.9 23.7 C 65.6 23.7 64.4 23.3 63.3 22.6 C 62.2 21.8 61.3 20.8 60.7 19.5 C 60.1 18.2 59.8 16.7 59.8 15 C 59.8 13.4 60.1 11.9 60.6 10.5 C 61.2 9.2 62 8.1 63.1 7.4 C 64.2 6.7 65.4 6.3 66.8 6.3 C 67.8 6.3 68.7 6.5 69.5 7 C 70.3 7.4 70.9 7.9 71.4 8.6 C 71.39 8.61 71.4 0.4 71.4 0.4 L 74.2 0.4 L 74.2 23.3 L 71.6 23.3 Z M 62.7 15 C 62.7 17.1 63.1 18.7 64 19.8 C 64.9 20.8 66 21.4 67.2 21.4 C 68.4 21.4 69.5 20.9 70.3 19.9 C 71.2 18.8 71.6 17.3 71.6 15.3 C 71.6 13 71.2 11.3 70.3 10.3 C 69.4 9.2 68.4 8.7 67.1 8.7 C 65.8 8.7 64.8 9.2 63.9 10.2 C 63.1 11.2 62.7 12.8 62.7 15 Z M 89.4 17.2 C 89.4 17.2 92.2 17.6 92.2 17.6 C 91.9 19.5 91.1 21 89.9 22.1 C 88.6 23.1 87.1 23.7 85.3 23.7 C 83 23.7 81.2 22.9 79.8 21.4 C 78.4 20 77.8 17.8 77.8 15.1 C 77.8 13.3 78 11.7 78.6 10.4 C 79.2 9 80.1 8 81.4 7.3 C 82.6 6.7 83.9 6.3 85.3 6.3 C 87.1 6.3 88.6 6.8 89.7 7.7 C 90.9 8.6 91.6 9.9 91.9 11.6 C 91.9 11.6 89.2 12 89.2 12 C 88.9 10.9 88.5 10 87.8 9.5 C 87.2 8.9 86.4 8.6 85.4 8.6 C 84 8.6 82.9 9.1 82 10.2 C 81.1 11.2 80.6 12.8 80.6 15 C 80.6 17.2 81.1 18.8 81.9 19.8 C 82.8 20.9 83.9 21.4 85.3 21.4 C 86.4 21.4 87.3 21 88 20.3 C 88.8 19.7 89.2 18.6 89.4 17.2 Z M 93.6 15 C 93.6 11.9 94.4 9.7 96.1 8.2 C 97.6 6.9 99.3 6.3 101.3 6.3 C 103.6 6.3 105.5 7.1 106.9 8.6 C 108.4 10.1 109.1 12.1 109.1 14.8 C 109.1 16.9 108.8 18.6 108.1 19.8 C 107.5 21 106.6 22 105.4 22.7 C 104.1 23.3 102.8 23.7 101.3 23.7 C 99 23.7 97.1 22.9 95.7 21.4 C 94.3 19.9 93.6 17.8 93.6 15 Z M 96.5 15 C 96.5 17.1 96.9 18.7 97.8 19.8 C 98.8 20.8 99.9 21.4 101.3 21.4 C 102.7 21.4 103.9 20.8 104.8 19.8 C 105.8 18.7 106.2 17.1 106.2 14.9 C 106.2 12.9 105.8 11.3 104.8 10.2 C 103.9 9.2 102.7 8.7 101.3 8.7 C 99.9 8.7 98.8 9.2 97.8 10.2 C 96.9 11.3 96.5 12.9 96.5 15 Z M 123.3 23.3 C 123.3 23.3 123.28 20.86 123.3 20.9 C 122 22.7 120.2 23.7 118 23.7 C 117 23.7 116.1 23.5 115.3 23.1 C 114.4 22.7 113.8 22.3 113.4 21.7 C 113 21.1 112.7 20.4 112.5 19.6 C 112.4 19.1 112.3 18.2 112.3 17 C 112.34 16.98 112.3 6.7 112.3 6.7 L 115.2 6.7 C 115.2 6.7 115.16 15.91 115.2 15.9 C 115.2 17.4 115.2 18.4 115.3 18.9 C 115.5 19.6 115.9 20.2 116.5 20.6 C 117 21 117.7 21.3 118.6 21.3 C 119.4 21.3 120.2 21 121 20.6 C 121.7 20.2 122.2 19.6 122.5 18.8 C 122.8 18.1 123 17 123 15.6 C 122.98 15.59 123 6.7 123 6.7 L 125.8 6.7 L 125.8 23.3 L 123.3 23.3 Z M 130.2 23.3 L 130.2 6.7 L 132.7 6.7 C 132.7 6.7 132.73 9.06 132.7 9.1 C 134 7.2 135.7 6.3 138 6.3 C 139 6.3 139.9 6.5 140.8 6.9 C 141.6 7.2 142.2 7.7 142.7 8.3 C 143.1 8.9 143.4 9.6 143.5 10.4 C 143.6 10.9 143.7 11.8 143.7 13.1 C 143.69 13.09 143.7 23.3 143.7 23.3 L 140.9 23.3 C 140.9 23.3 140.88 13.2 140.9 13.2 C 140.9 12.1 140.8 11.2 140.5 10.6 C 140.3 10.1 139.9 9.6 139.4 9.3 C 138.8 8.9 138.2 8.8 137.4 8.8 C 136.2 8.8 135.2 9.1 134.3 9.9 C 133.5 10.7 133 12.1 133 14.2 C 133.02 14.23 133 23.3 133 23.3 L 130.2 23.3 Z M 152.9 20.9 C 153.2 20.9 153.6 20.9 154.1 20.8 C 154.1 20.8 154.5 23.3 154.5 23.3 C 153.8 23.4 153 23.5 152.4 23.5 C 151.4 23.5 150.6 23.4 150 23 C 149.5 22.7 149.1 22.3 148.9 21.8 C 148.6 21.2 148.5 20.1 148.5 18.4 C 148.52 18.44 148.5 8.9 148.5 8.9 L 146.5 8.9 L 146.5 6.7 L 148.5 6.7 L 148.5 2.6 L 151.3 0.9 L 151.3 6.7 L 154.1 6.7 L 154.1 8.9 L 151.3 8.9 C 151.3 8.9 151.31 18.59 151.3 18.6 C 151.3 19.4 151.4 19.9 151.5 20.1 C 151.6 20.4 151.7 20.6 151.9 20.7 C 152.2 20.8 152.5 20.9 152.9 20.9 C 152.9 20.9 152.9 20.9 152.9 20.9 Z M 176.9 14.3 L 176.9 11.6 L 186.6 11.6 C 186.6 11.6 186.56 20.11 186.6 20.1 C 185.1 21.3 183.5 22.2 182 22.8 C 180.4 23.4 178.7 23.7 177.1 23.7 C 174.8 23.7 172.8 23.2 170.9 22.2 C 169.1 21.3 167.7 19.9 166.8 18.1 C 165.8 16.2 165.4 14.2 165.4 12 C 165.4 9.7 165.8 7.6 166.8 5.7 C 167.7 3.8 169 2.3 170.8 1.4 C 172.5 0.5 174.6 0 176.8 0 C 178.5 0 180 0.3 181.3 0.8 C 182.7 1.3 183.7 2.1 184.5 3 C 185.2 4 185.8 5.3 186.2 6.8 C 186.2 6.8 183.5 7.5 183.5 7.5 C 183.1 6.4 182.7 5.5 182.2 4.8 C 181.7 4.1 181 3.6 180 3.2 C 179.1 2.8 178 2.6 176.9 2.6 C 175.5 2.6 174.3 2.8 173.3 3.2 C 172.3 3.6 171.4 4.2 170.8 4.9 C 170.2 5.6 169.7 6.3 169.4 7.2 C 168.8 8.6 168.5 10.1 168.5 11.8 C 168.5 13.8 168.9 15.5 169.6 16.9 C 170.3 18.3 171.3 19.3 172.6 20 C 174 20.6 175.4 21 176.9 21 C 178.2 21 179.5 20.7 180.8 20.2 C 182 19.7 182.9 19.2 183.6 18.6 C 183.59 18.58 183.6 14.3 183.6 14.3 L 176.9 14.3 Z M 190.6 23.3 L 190.6 6.7 L 193.2 6.7 C 193.2 6.7 193.17 9.22 193.2 9.2 C 193.8 8 194.4 7.3 195 6.9 C 195.5 6.5 196.1 6.3 196.8 6.3 C 197.7 6.3 198.7 6.6 199.7 7.2 C 199.7 7.2 198.7 9.8 198.7 9.8 C 198 9.4 197.3 9.2 196.6 9.2 C 196 9.2 195.5 9.4 195 9.8 C 194.5 10.2 194.1 10.7 193.9 11.3 C 193.6 12.3 193.5 13.4 193.5 14.6 C 193.45 14.61 193.5 23.3 193.5 23.3 L 190.6 23.3 Z M 200.3 15 C 200.3 11.9 201.1 9.7 202.8 8.2 C 204.3 6.9 206 6.3 208.1 6.3 C 210.3 6.3 212.2 7.1 213.7 8.6 C 215.1 10.1 215.8 12.1 215.8 14.8 C 215.8 16.9 215.5 18.6 214.9 19.8 C 214.2 21 213.3 22 212.1 22.7 C 210.8 23.3 209.5 23.7 208.1 23.7 C 205.7 23.7 203.9 22.9 202.4 21.4 C 201 19.9 200.3 17.8 200.3 15 Z M 203.2 15 C 203.2 17.1 203.6 18.7 204.6 19.8 C 205.5 20.8 206.7 21.4 208.1 21.4 C 209.5 21.4 210.6 20.8 211.5 19.8 C 212.5 18.7 212.9 17.1 212.9 14.9 C 212.9 12.9 212.5 11.3 211.5 10.2 C 210.6 9.2 209.4 8.7 208.1 8.7 C 206.7 8.7 205.5 9.2 204.6 10.2 C 203.6 11.3 203.2 12.9 203.2 15 Z M 222.2 23.3 L 217.1 6.7 L 220 6.7 L 222.7 16.3 C 222.7 16.3 223.64 19.84 223.6 19.8 C 223.7 19.7 224 18.5 224.5 16.4 C 224.5 16.42 227.1 6.7 227.1 6.7 L 230 6.7 L 232.5 16.3 L 233.3 19.5 L 234.3 16.3 L 237.1 6.7 L 239.9 6.7 L 234.7 23.3 L 231.8 23.3 L 229.1 13.4 L 228.5 10.5 L 225.1 23.3 L 222.2 23.3 Z M 247.1 20.9 C 247.5 20.9 247.9 20.9 248.4 20.8 C 248.4 20.8 248.8 23.3 248.8 23.3 C 248 23.4 247.3 23.5 246.7 23.5 C 245.6 23.5 244.8 23.4 244.3 23 C 243.7 22.7 243.3 22.3 243.1 21.8 C 242.9 21.2 242.8 20.1 242.8 18.4 C 242.75 18.44 242.8 8.9 242.8 8.9 L 240.7 8.9 L 240.7 6.7 L 242.8 6.7 L 242.8 2.6 L 245.5 0.9 L 245.5 6.7 L 248.4 6.7 L 248.4 8.9 L 245.5 8.9 C 245.5 8.9 245.55 18.59 245.5 18.6 C 245.5 19.4 245.6 19.9 245.7 20.1 C 245.8 20.4 246 20.6 246.2 20.7 C 246.4 20.8 246.7 20.9 247.1 20.9 C 247.1 20.9 247.1 20.9 247.1 20.9 Z M 251.1 23.3 L 251.1 0.4 L 253.9 0.4 C 253.9 0.4 253.94 8.61 253.9 8.6 C 255.3 7.1 256.9 6.3 258.9 6.3 C 260.1 6.3 261.2 6.6 262.1 7.1 C 263 7.5 263.7 8.2 264.1 9.1 C 264.4 9.9 264.6 11.2 264.6 12.8 C 264.64 12.78 264.6 23.3 264.6 23.3 L 261.8 23.3 C 261.8 23.3 261.83 12.78 261.8 12.8 C 261.8 11.4 261.5 10.4 260.9 9.7 C 260.3 9.1 259.4 8.8 258.3 8.8 C 257.5 8.8 256.7 9 256 9.4 C 255.2 9.8 254.7 10.4 254.4 11.2 C 254.1 11.9 253.9 12.9 253.9 14.2 C 253.94 14.22 253.9 23.3 253.9 23.3 L 251.1 23.3 Z M 282.4 23.3 L 276.1 6.7 L 279.1 6.7 C 279.1 6.7 282.64 16.64 282.6 16.6 C 283 17.7 283.4 18.8 283.7 20 C 284 19.1 284.3 18.1 284.8 16.8 C 284.75 16.83 288.4 6.7 288.4 6.7 L 291.3 6.7 L 285 23.3 L 282.4 23.3 Z M 292.7 18.3 C 292.7 18.3 295.5 17.9 295.5 17.9 C 295.6 19 296.1 19.9 296.8 20.5 C 297.5 21.1 298.5 21.4 299.8 21.4 C 301.1 21.4 302 21.1 302.6 20.6 C 303.3 20 303.6 19.4 303.6 18.7 C 303.6 18.1 303.3 17.6 302.8 17.2 C 302.4 17 301.4 16.7 299.9 16.3 C 297.8 15.7 296.4 15.3 295.6 14.9 C 294.8 14.5 294.2 14 293.8 13.3 C 293.4 12.7 293.2 11.9 293.2 11.1 C 293.2 10.4 293.3 9.7 293.7 9.1 C 294 8.4 294.5 7.9 295 7.5 C 295.5 7.2 296.1 6.9 296.8 6.7 C 297.6 6.4 298.4 6.3 299.3 6.3 C 300.6 6.3 301.7 6.5 302.7 6.9 C 303.7 7.3 304.4 7.8 304.9 8.4 C 305.3 9.1 305.7 9.9 305.8 11 C 305.8 11 303.1 11.4 303.1 11.4 C 303 10.5 302.6 9.8 302 9.4 C 301.4 8.9 300.6 8.6 299.5 8.6 C 298.2 8.6 297.3 8.9 296.7 9.3 C 296.2 9.7 295.9 10.2 295.9 10.8 C 295.9 11.1 296 11.5 296.2 11.8 C 296.4 12.1 296.8 12.3 297.3 12.5 C 297.6 12.6 298.4 12.9 299.8 13.2 C 301.8 13.8 303.2 14.2 303.9 14.5 C 304.7 14.9 305.3 15.4 305.8 16 C 306.2 16.7 306.5 17.5 306.5 18.4 C 306.5 19.4 306.2 20.2 305.6 21.1 C 305.1 21.9 304.3 22.5 303.3 23 C 302.3 23.4 301.1 23.7 299.8 23.7 C 297.6 23.7 296 23.2 294.9 22.3 C 293.7 21.4 293 20.1 292.7 18.3 Z M 310.6 23.3 L 310.6 20.1 L 313.8 20.1 L 313.8 23.3 L 310.6 23.3 Z M 328 23.3 L 328 0.4 L 344.6 0.4 L 344.6 3.1 L 331 3.1 L 331 10.1 L 343.7 10.1 L 343.7 12.8 L 331 12.8 L 331 20.6 L 345.1 20.6 L 345.1 23.3 L 328 23.3 Z M 348.9 23.3 L 348.9 6.7 L 351.5 6.7 C 351.5 6.7 351.45 9.03 351.5 9 C 352 8.2 352.7 7.6 353.5 7.1 C 354.4 6.6 355.4 6.3 356.5 6.3 C 357.7 6.3 358.7 6.6 359.5 7.1 C 360.3 7.6 360.8 8.3 361.2 9.2 C 362.5 7.3 364.2 6.3 366.3 6.3 C 367.9 6.3 369.2 6.8 370.1 7.7 C 371 8.6 371.4 10 371.4 11.9 C 371.42 11.91 371.4 23.3 371.4 23.3 L 368.6 23.3 C 368.6 23.3 368.63 12.84 368.6 12.8 C 368.6 11.7 368.5 10.9 368.4 10.4 C 368.2 9.9 367.8 9.5 367.4 9.2 C 366.9 8.9 366.3 8.8 365.7 8.8 C 364.5 8.8 363.5 9.2 362.8 9.9 C 362 10.7 361.6 11.9 361.6 13.7 C 361.61 13.66 361.6 23.3 361.6 23.3 L 358.8 23.3 C 358.8 23.3 358.8 12.52 358.8 12.5 C 358.8 11.3 358.6 10.3 358.1 9.7 C 357.7 9.1 356.9 8.8 355.9 8.8 C 355.1 8.8 354.3 9 353.7 9.4 C 353 9.8 352.5 10.4 352.2 11.2 C 351.9 12 351.8 13.2 351.8 14.7 C 351.75 14.69 351.8 23.3 351.8 23.3 L 348.9 23.3 Z M 375.6 3.6 L 375.6 0.4 L 378.4 0.4 L 378.4 3.6 L 375.6 3.6 Z M 375.6 23.3 L 375.6 6.7 L 378.4 6.7 L 378.4 23.3 L 375.6 23.3 Z M 381.6 18.3 C 381.6 18.3 384.4 17.9 384.4 17.9 C 384.5 19 385 19.9 385.7 20.5 C 386.4 21.1 387.4 21.4 388.7 21.4 C 389.9 21.4 390.9 21.1 391.5 20.6 C 392.2 20 392.5 19.4 392.5 18.7 C 392.5 18.1 392.2 17.6 391.6 17.2 C 391.3 17 390.3 16.7 388.8 16.3 C 386.7 15.7 385.3 15.3 384.5 14.9 C 383.7 14.5 383.1 14 382.7 13.3 C 382.3 12.7 382 11.9 382 11.1 C 382 10.4 382.2 9.7 382.6 9.1 C 382.9 8.4 383.4 7.9 383.9 7.5 C 384.4 7.2 385 6.9 385.7 6.7 C 386.5 6.4 387.3 6.3 388.2 6.3 C 389.5 6.3 390.6 6.5 391.6 6.9 C 392.6 7.3 393.3 7.8 393.8 8.4 C 394.2 9.1 394.6 9.9 394.7 11 C 394.7 11 392 11.4 392 11.4 C 391.9 10.5 391.5 9.8 390.9 9.4 C 390.3 8.9 389.5 8.6 388.4 8.6 C 387.1 8.6 386.1 8.9 385.6 9.3 C 385 9.7 384.8 10.2 384.8 10.8 C 384.8 11.1 384.9 11.5 385.1 11.8 C 385.3 12.1 385.7 12.3 386.2 12.5 C 386.5 12.6 387.3 12.9 388.7 13.2 C 390.7 13.8 392 14.2 392.8 14.5 C 393.6 14.9 394.2 15.4 394.7 16 C 395.1 16.7 395.4 17.5 395.4 18.4 C 395.4 19.4 395.1 20.2 394.5 21.1 C 394 21.9 393.2 22.5 392.2 23 C 391.1 23.4 390 23.7 388.7 23.7 C 386.5 23.7 384.9 23.2 383.7 22.3 C 382.6 21.4 381.9 20.1 381.6 18.3 Z M 397.6 18.3 C 397.6 18.3 400.4 17.9 400.4 17.9 C 400.5 19 401 19.9 401.7 20.5 C 402.4 21.1 403.4 21.4 404.7 21.4 C 405.9 21.4 406.9 21.1 407.5 20.6 C 408.2 20 408.5 19.4 408.5 18.7 C 408.5 18.1 408.2 17.6 407.6 17.2 C 407.3 17 406.3 16.7 404.8 16.3 C 402.7 15.7 401.3 15.3 400.5 14.9 C 399.7 14.5 399.1 14 398.7 13.3 C 398.3 12.7 398 11.9 398 11.1 C 398 10.4 398.2 9.7 398.6 9.1 C 398.9 8.4 399.4 7.9 399.9 7.5 C 400.4 7.2 401 6.9 401.7 6.7 C 402.5 6.4 403.3 6.3 404.2 6.3 C 405.5 6.3 406.6 6.5 407.6 6.9 C 408.6 7.3 409.3 7.8 409.8 8.4 C 410.2 9.1 410.6 9.9 410.7 11 C 410.7 11 408 11.4 408 11.4 C 407.9 10.5 407.5 9.8 406.9 9.4 C 406.3 8.9 405.5 8.6 404.4 8.6 C 403.1 8.6 402.1 8.9 401.6 9.3 C 401 9.7 400.8 10.2 400.8 10.8 C 400.8 11.1 400.9 11.5 401.1 11.8 C 401.3 12.1 401.7 12.3 402.2 12.5 C 402.5 12.6 403.3 12.9 404.7 13.2 C 406.7 13.8 408 14.2 408.8 14.5 C 409.6 14.9 410.2 15.4 410.7 16 C 411.1 16.7 411.4 17.5 411.4 18.4 C 411.4 19.4 411.1 20.2 410.5 21.1 C 410 21.9 409.2 22.5 408.2 23 C 407.1 23.4 406 23.7 404.7 23.7 C 402.5 23.7 400.9 23.2 399.7 22.3 C 398.6 21.4 397.9 20.1 397.6 18.3 Z M 414.7 3.6 L 414.7 0.4 L 417.5 0.4 L 417.5 3.6 L 414.7 3.6 Z M 414.7 23.3 L 414.7 6.7 L 417.5 6.7 L 417.5 23.3 L 414.7 23.3 Z M 420.8 15 C 420.8 11.9 421.6 9.7 423.3 8.2 C 424.8 6.9 426.5 6.3 428.5 6.3 C 430.8 6.3 432.7 7.1 434.1 8.6 C 435.6 10.1 436.3 12.1 436.3 14.8 C 436.3 16.9 436 18.6 435.4 19.8 C 434.7 21 433.8 22 432.6 22.7 C 431.3 23.3 430 23.7 428.5 23.7 C 426.2 23.7 424.3 22.9 422.9 21.4 C 421.5 19.9 420.8 17.8 420.8 15 Z M 423.7 15 C 423.7 17.1 424.1 18.7 425 19.8 C 426 20.8 427.1 21.4 428.5 21.4 C 429.9 21.4 431.1 20.8 432 19.8 C 433 18.7 433.4 17.1 433.4 14.9 C 433.4 12.9 433 11.3 432 10.2 C 431.1 9.2 429.9 8.7 428.5 8.7 C 427.1 8.7 426 9.2 425 10.2 C 424.1 11.3 423.7 12.9 423.7 15 Z M 439.6 23.3 L 439.6 6.7 L 442.1 6.7 C 442.1 6.7 442.14 9.06 442.1 9.1 C 443.4 7.2 445.1 6.3 447.4 6.3 C 448.4 6.3 449.3 6.5 450.2 6.9 C 451 7.2 451.6 7.7 452.1 8.3 C 452.5 8.9 452.8 9.6 452.9 10.4 C 453 10.9 453.1 11.8 453.1 13.1 C 453.09 13.09 453.1 23.3 453.1 23.3 L 450.3 23.3 C 450.3 23.3 450.28 13.2 450.3 13.2 C 450.3 12.1 450.2 11.2 450 10.6 C 449.7 10.1 449.3 9.6 448.8 9.3 C 448.2 8.9 447.6 8.8 446.8 8.8 C 445.6 8.8 444.6 9.1 443.7 9.9 C 442.9 10.7 442.4 12.1 442.4 14.2 C 442.42 14.23 442.4 23.3 442.4 23.3 L 439.6 23.3 Z M 456.3 18.3 C 456.3 18.3 459.1 17.9 459.1 17.9 C 459.2 19 459.7 19.9 460.4 20.5 C 461.1 21.1 462.1 21.4 463.4 21.4 C 464.7 21.4 465.6 21.1 466.2 20.6 C 466.9 20 467.2 19.4 467.2 18.7 C 467.2 18.1 466.9 17.6 466.3 17.2 C 466 17 465 16.7 463.5 16.3 C 461.4 15.7 460 15.3 459.2 14.9 C 458.4 14.5 457.8 14 457.4 13.3 C 457 12.7 456.8 11.9 456.8 11.1 C 456.8 10.4 456.9 9.7 457.3 9.1 C 457.6 8.4 458.1 7.9 458.6 7.5 C 459.1 7.2 459.7 6.9 460.4 6.7 C 461.2 6.4 462 6.3 462.9 6.3 C 464.2 6.3 465.3 6.5 466.3 6.9 C 467.3 7.3 468 7.8 468.5 8.4 C 468.9 9.1 469.3 9.9 469.4 11 C 469.4 11 466.7 11.4 466.7 11.4 C 466.6 10.5 466.2 9.8 465.6 9.4 C 465 8.9 464.2 8.6 463.1 8.6 C 461.8 8.6 460.8 8.9 460.3 9.3 C 459.7 9.7 459.5 10.2 459.5 10.8 C 459.5 11.1 459.6 11.5 459.8 11.8 C 460 12.1 460.4 12.3 460.9 12.5 C 461.2 12.6 462 12.9 463.4 13.2 C 465.4 13.8 466.8 14.2 467.5 14.5 C 468.3 14.9 468.9 15.4 469.4 16 C 469.8 16.7 470.1 17.5 470.1 18.4 C 470.1 19.4 469.8 20.2 469.2 21.1 C 468.7 21.9 467.9 22.5 466.9 23 C 465.8 23.4 464.7 23.7 463.4 23.7 C 461.2 23.7 459.6 23.2 458.4 22.3 C 457.3 21.4 456.6 20.1 456.3 18.3 Z " stroke="none" fill="#003a5c"/>
  </g>
</svg>