<?xml version="1.0" standalone="no"?>
<!DOCTYPE svg PUBLIC "-//W3C//DTD SVG 1.1//EN" "http://www.w3.org/Graphics/SVG/1.1/DTD/svg11.dtd">
<svg xmlns="http://www.w3.org/2000/svg" version="1.1" width="280px" height="53.8px" viewBox="0 -1 280 53.8" style="top:-1px">
  <desc>ESG Counsel</desc>
  <defs/>
  <g id="Polygon57634">
    <path d="M 41.3 30.6 L 41.3 17.7 L 50.9 17.7 L 50.9 19.8 L 43.9 19.8 L 43.9 22.7 L 50.4 22.7 L 50.4 24.9 L 43.9 24.9 L 43.9 28.4 L 51.1 28.4 L 51.1 30.6 L 41.3 30.6 Z M 52.7 26.4 C 52.7 26.4 55.2 26.1 55.2 26.1 C 55.3 27 55.6 27.6 56.1 28 C 56.6 28.4 57.2 28.6 58 28.6 C 58.8 28.6 59.5 28.4 59.9 28.1 C 60.3 27.7 60.5 27.3 60.5 26.8 C 60.5 26.5 60.4 26.2 60.3 26 C 60.1 25.8 59.8 25.6 59.3 25.5 C 59 25.4 58.3 25.2 57.2 24.9 C 55.8 24.6 54.9 24.1 54.3 23.6 C 53.5 22.9 53.1 22.1 53.1 21 C 53.1 20.4 53.3 19.8 53.7 19.2 C 54.1 18.6 54.6 18.2 55.3 17.9 C 56 17.6 56.8 17.4 57.8 17.4 C 59.4 17.4 60.7 17.8 61.5 18.5 C 62.3 19.2 62.7 20.2 62.8 21.4 C 62.8 21.4 60.2 21.5 60.2 21.5 C 60.1 20.8 59.8 20.3 59.4 20 C 59.1 19.7 58.5 19.6 57.8 19.6 C 57 19.6 56.5 19.8 56 20.1 C 55.7 20.3 55.6 20.5 55.6 20.9 C 55.6 21.2 55.7 21.4 56 21.6 C 56.3 21.9 57.1 22.2 58.4 22.5 C 59.7 22.8 60.6 23.1 61.2 23.4 C 61.8 23.8 62.3 24.2 62.6 24.7 C 63 25.3 63.1 26 63.1 26.8 C 63.1 27.5 62.9 28.2 62.5 28.9 C 62.1 29.5 61.5 30 60.8 30.3 C 60 30.6 59.1 30.8 58 30.8 C 56.3 30.8 55.1 30.4 54.2 29.7 C 53.3 28.9 52.8 27.8 52.7 26.4 Z M 71.3 25.8 L 71.3 23.6 L 76.9 23.6 C 76.9 23.6 76.92 28.78 76.9 28.8 C 76.4 29.3 75.6 29.8 74.6 30.2 C 73.5 30.6 72.5 30.8 71.4 30.8 C 70.1 30.8 68.9 30.5 67.9 29.9 C 66.9 29.4 66.1 28.5 65.6 27.5 C 65.1 26.4 64.9 25.3 64.9 24.1 C 64.9 22.7 65.2 21.5 65.7 20.5 C 66.3 19.4 67.1 18.6 68.2 18.1 C 69 17.7 70 17.4 71.3 17.4 C 72.9 17.4 74.1 17.8 75 18.5 C 75.9 19.1 76.5 20.1 76.8 21.2 C 76.8 21.2 74.2 21.7 74.2 21.7 C 74 21.1 73.6 20.6 73.1 20.2 C 72.6 19.9 72 19.7 71.3 19.7 C 70.1 19.7 69.2 20 68.6 20.8 C 67.9 21.5 67.6 22.5 67.6 24 C 67.6 25.5 67.9 26.6 68.6 27.4 C 69.3 28.2 70.1 28.5 71.2 28.5 C 71.8 28.5 72.3 28.4 72.9 28.2 C 73.4 28 73.9 27.8 74.3 27.4 C 74.29 27.45 74.3 25.8 74.3 25.8 L 71.3 25.8 Z M 92.6 25.8 C 92.6 25.8 95.1 26.6 95.1 26.6 C 94.7 28 94.1 29.1 93.2 29.7 C 92.3 30.4 91.1 30.8 89.7 30.8 C 88 30.8 86.6 30.2 85.5 29 C 84.4 27.8 83.9 26.3 83.9 24.2 C 83.9 22.1 84.4 20.4 85.5 19.2 C 86.6 18 88.1 17.4 89.9 17.4 C 91.5 17.4 92.8 17.9 93.7 18.8 C 94.3 19.4 94.8 20.2 95.1 21.2 C 95.1 21.2 92.5 21.8 92.5 21.8 C 92.3 21.2 92 20.6 91.5 20.3 C 91 19.9 90.5 19.7 89.8 19.7 C 88.8 19.7 88 20 87.4 20.7 C 86.8 21.4 86.5 22.5 86.5 24 C 86.5 25.7 86.8 26.8 87.4 27.5 C 88 28.2 88.8 28.5 89.7 28.5 C 90.4 28.5 91 28.3 91.5 27.9 C 92 27.4 92.4 26.8 92.6 25.8 Z M 96.7 25.8 C 96.7 24.9 96.9 24.1 97.3 23.4 C 97.7 22.6 98.3 22 99.1 21.6 C 99.8 21.2 100.6 21 101.5 21 C 103 21 104.1 21.5 105 22.4 C 105.9 23.3 106.4 24.5 106.4 25.9 C 106.4 27.3 105.9 28.4 105 29.4 C 104.1 30.3 102.9 30.8 101.6 30.8 C 100.7 30.8 99.9 30.6 99.1 30.2 C 98.3 29.8 97.7 29.2 97.3 28.5 C 96.9 27.7 96.7 26.8 96.7 25.8 Z M 99.3 25.9 C 99.3 26.8 99.5 27.5 99.9 28 C 100.4 28.5 100.9 28.8 101.5 28.8 C 102.2 28.8 102.7 28.5 103.2 28 C 103.6 27.5 103.8 26.8 103.8 25.9 C 103.8 25 103.6 24.3 103.2 23.8 C 102.7 23.3 102.2 23 101.5 23 C 100.9 23 100.4 23.3 99.9 23.8 C 99.5 24.3 99.3 25 99.3 25.9 Z M 114.4 30.6 C 114.4 30.6 114.44 29.15 114.4 29.2 C 114.1 29.7 113.7 30 113.1 30.3 C 112.5 30.6 112 30.8 111.3 30.8 C 110.7 30.8 110.2 30.6 109.7 30.4 C 109.2 30.1 108.8 29.7 108.6 29.2 C 108.4 28.7 108.2 28 108.2 27.1 C 108.25 27.12 108.2 21.2 108.2 21.2 L 110.7 21.2 C 110.7 21.2 110.72 25.51 110.7 25.5 C 110.7 26.8 110.8 27.6 110.9 27.9 C 110.9 28.2 111.1 28.5 111.3 28.6 C 111.6 28.8 111.9 28.9 112.3 28.9 C 112.7 28.9 113.1 28.8 113.4 28.5 C 113.7 28.3 114 28 114.1 27.7 C 114.2 27.3 114.3 26.5 114.3 25.2 C 114.27 25.16 114.3 21.2 114.3 21.2 L 116.7 21.2 L 116.7 30.6 L 114.4 30.6 Z M 127.8 30.6 L 125.3 30.6 C 125.3 30.6 125.32 25.79 125.3 25.8 C 125.3 24.8 125.3 24.1 125.2 23.8 C 125.1 23.5 124.9 23.3 124.6 23.1 C 124.4 23 124.1 22.9 123.8 22.9 C 123.4 22.9 123 23 122.6 23.2 C 122.3 23.5 122.1 23.8 121.9 24.2 C 121.8 24.6 121.7 25.3 121.7 26.3 C 121.75 26.32 121.7 30.6 121.7 30.6 L 119.3 30.6 L 119.3 21.2 L 121.6 21.2 C 121.6 21.2 121.57 22.59 121.6 22.6 C 122.4 21.5 123.4 21 124.6 21 C 125.2 21 125.7 21.1 126.1 21.3 C 126.6 21.5 126.9 21.7 127.2 22.1 C 127.4 22.4 127.6 22.7 127.6 23.1 C 127.7 23.5 127.8 24 127.8 24.8 C 127.79 24.75 127.8 30.6 127.8 30.6 Z M 129.4 27.9 C 129.4 27.9 131.9 27.5 131.9 27.5 C 132 28 132.2 28.4 132.5 28.6 C 132.9 28.9 133.3 29 133.9 29 C 134.5 29 135 28.9 135.3 28.6 C 135.6 28.5 135.7 28.2 135.7 28 C 135.7 27.8 135.6 27.6 135.5 27.5 C 135.4 27.4 135.1 27.3 134.7 27.2 C 132.7 26.7 131.4 26.3 130.9 26 C 130.1 25.5 129.8 24.8 129.8 23.9 C 129.8 23.1 130.1 22.4 130.7 21.8 C 131.4 21.3 132.3 21 133.7 21 C 135 21 135.9 21.2 136.5 21.6 C 137.2 22 137.6 22.7 137.8 23.5 C 137.8 23.5 135.5 23.9 135.5 23.9 C 135.4 23.5 135.2 23.3 134.9 23.1 C 134.6 22.9 134.3 22.8 133.7 22.8 C 133.1 22.8 132.6 22.9 132.3 23.1 C 132.2 23.2 132.1 23.4 132.1 23.6 C 132.1 23.7 132.1 23.9 132.3 24 C 132.5 24.2 133.3 24.4 134.6 24.7 C 135.9 25 136.8 25.4 137.4 25.8 C 137.9 26.2 138.1 26.8 138.1 27.6 C 138.1 28.5 137.8 29.2 137.1 29.8 C 136.4 30.5 135.3 30.8 133.9 30.8 C 132.6 30.8 131.6 30.5 130.9 30 C 130.1 29.5 129.6 28.8 129.4 27.9 Z M 145.7 27.6 C 145.7 27.6 148.2 28 148.2 28 C 147.9 28.9 147.4 29.6 146.7 30.1 C 146 30.5 145.1 30.8 144.1 30.8 C 142.5 30.8 141.3 30.2 140.5 29.2 C 139.9 28.3 139.6 27.3 139.6 26 C 139.6 24.4 140 23.2 140.8 22.3 C 141.6 21.4 142.6 21 143.9 21 C 145.2 21 146.3 21.5 147.1 22.4 C 148 23.3 148.3 24.7 148.3 26.6 C 148.3 26.6 142.1 26.6 142.1 26.6 C 142.1 27.3 142.3 27.9 142.7 28.3 C 143.1 28.7 143.6 28.9 144.1 28.9 C 144.5 28.9 144.8 28.8 145.1 28.6 C 145.4 28.4 145.6 28.1 145.7 27.6 Z M 145.8 25.1 C 145.8 24.4 145.6 23.8 145.3 23.5 C 144.9 23.1 144.5 22.9 144 22.9 C 143.5 22.9 143 23.1 142.7 23.5 C 142.3 23.9 142.1 24.4 142.2 25.1 C 142.2 25.1 145.8 25.1 145.8 25.1 Z M 150.3 30.6 L 150.3 17.7 L 152.8 17.7 L 152.8 30.6 L 150.3 30.6 Z " stroke="none" fill="#fff"/>
  </g>
</svg>