<?xml version="1.0" standalone="no"?>
<!DOCTYPE svg PUBLIC "-//W3C//DTD SVG 1.1//EN" "http://www.w3.org/Graphics/SVG/1.1/DTD/svg11.dtd">
<svg xmlns="http://www.w3.org/2000/svg" version="1.1" width="159px" height="32.1px" viewBox="0 -1 159 32.1" style="top:-1px">
  <desc>Chuck Hall Global Director of Operations</desc>
  <defs/>
  <g id="Polygon62078">
    <path d="M 4.1 16.5 L 4.1 15.6 L 7.2 15.6 C 7.2 15.6 7.15 18.28 7.2 18.3 C 6.7 18.7 6.2 18.9 5.7 19.1 C 5.2 19.3 4.7 19.4 4.2 19.4 C 3.5 19.4 2.8 19.3 2.3 19 C 1.7 18.6 1.3 18.2 1 17.6 C 0.7 17.1 0.5 16.4 0.5 15.7 C 0.5 15 0.7 14.4 1 13.8 C 1.3 13.2 1.7 12.7 2.2 12.4 C 2.8 12.1 3.4 12 4.1 12 C 4.6 12 5.1 12.1 5.5 12.3 C 5.9 12.4 6.3 12.7 6.5 13 C 6.7 13.3 6.9 13.6 7 14.1 C 7 14.1 6.2 14.4 6.2 14.4 C 6.1 14 6 13.7 5.8 13.5 C 5.6 13.3 5.4 13.1 5.1 13 C 4.8 12.9 4.5 12.8 4.1 12.8 C 3.7 12.8 3.3 12.9 3 13 C 2.7 13.1 2.4 13.3 2.2 13.5 C 2 13.7 1.9 14 1.8 14.2 C 1.6 14.7 1.5 15.2 1.5 15.7 C 1.5 16.3 1.6 16.8 1.8 17.3 C 2.1 17.7 2.4 18 2.8 18.2 C 3.2 18.4 3.7 18.5 4.1 18.5 C 4.5 18.5 4.9 18.5 5.3 18.3 C 5.7 18.2 6 18 6.2 17.8 C 6.23 17.81 6.2 16.5 6.2 16.5 L 4.1 16.5 Z M 8.4 19.3 L 8.4 12.1 L 9.3 12.1 L 9.3 19.3 L 8.4 19.3 Z M 10.3 16.7 C 10.3 15.7 10.6 15 11.1 14.6 C 11.6 14.2 12.1 14 12.8 14 C 13.5 14 14.1 14.2 14.5 14.7 C 15 15.1 15.2 15.8 15.2 16.6 C 15.2 17.3 15.1 17.8 14.9 18.2 C 14.7 18.6 14.4 18.9 14 19.1 C 13.6 19.3 13.2 19.4 12.8 19.4 C 12 19.4 11.5 19.2 11 18.7 C 10.6 18.2 10.3 17.6 10.3 16.7 Z M 11.2 16.7 C 11.2 17.4 11.4 17.8 11.7 18.2 C 12 18.5 12.3 18.7 12.8 18.7 C 13.2 18.7 13.6 18.5 13.9 18.2 C 14.1 17.8 14.3 17.3 14.3 16.7 C 14.3 16 14.1 15.5 13.9 15.2 C 13.6 14.9 13.2 14.7 12.8 14.7 C 12.3 14.7 12 14.9 11.7 15.2 C 11.4 15.5 11.2 16 11.2 16.7 Z M 17 19.3 L 16.2 19.3 L 16.2 12.1 L 17.1 12.1 C 17.1 12.1 17.09 14.68 17.1 14.7 C 17.5 14.2 17.9 14 18.5 14 C 18.8 14 19.1 14 19.4 14.2 C 19.7 14.3 19.9 14.5 20.1 14.7 C 20.3 14.9 20.5 15.2 20.6 15.6 C 20.7 15.9 20.7 16.2 20.7 16.6 C 20.7 17.5 20.5 18.2 20.1 18.7 C 19.6 19.2 19.1 19.4 18.5 19.4 C 17.9 19.4 17.4 19.1 17 18.6 C 17.03 18.63 17 19.3 17 19.3 Z M 17 16.6 C 17 17.3 17.1 17.7 17.3 18 C 17.6 18.4 17.9 18.7 18.4 18.7 C 18.8 18.7 19.1 18.5 19.4 18.2 C 19.7 17.8 19.8 17.3 19.8 16.7 C 19.8 16 19.7 15.5 19.4 15.2 C 19.1 14.9 18.8 14.7 18.4 14.7 C 18.1 14.7 17.7 14.9 17.4 15.2 C 17.2 15.5 17 16 17 16.6 Z M 25.3 19.3 C 25.3 19.1 25.2 18.9 25.2 18.6 C 24.8 18.9 24.5 19.1 24.2 19.2 C 23.9 19.3 23.6 19.4 23.3 19.4 C 22.7 19.4 22.2 19.3 21.9 19 C 21.6 18.7 21.5 18.3 21.5 17.9 C 21.5 17.7 21.5 17.4 21.7 17.2 C 21.8 17 21.9 16.8 22.1 16.7 C 22.3 16.6 22.5 16.5 22.7 16.4 C 22.9 16.4 23.2 16.3 23.5 16.3 C 24.2 16.2 24.8 16.1 25.1 16 C 25.1 15.9 25.1 15.8 25.1 15.8 C 25.1 15.4 25 15.1 24.8 15 C 24.6 14.8 24.3 14.7 23.8 14.7 C 23.4 14.7 23.1 14.8 22.9 14.9 C 22.7 15.1 22.6 15.3 22.5 15.7 C 22.5 15.7 21.6 15.6 21.6 15.6 C 21.7 15.2 21.8 14.9 22 14.7 C 22.2 14.5 22.5 14.3 22.8 14.2 C 23.1 14 23.5 14 24 14 C 24.4 14 24.8 14 25.1 14.1 C 25.3 14.2 25.5 14.4 25.7 14.5 C 25.8 14.7 25.9 14.9 25.9 15.1 C 26 15.3 26 15.5 26 15.9 C 26 15.9 26 17.1 26 17.1 C 26 17.9 26 18.4 26 18.7 C 26.1 18.9 26.1 19.1 26.3 19.3 C 26.26 19.28 25.3 19.3 25.3 19.3 C 25.3 19.3 25.34 19.28 25.3 19.3 Z M 25.1 16.7 C 24.8 16.8 24.3 16.9 23.7 17 C 23.3 17.1 23 17.1 22.9 17.2 C 22.7 17.3 22.6 17.3 22.5 17.5 C 22.5 17.6 22.4 17.7 22.4 17.9 C 22.4 18.1 22.5 18.3 22.7 18.5 C 22.9 18.6 23.1 18.7 23.5 18.7 C 23.8 18.7 24.1 18.6 24.4 18.5 C 24.6 18.3 24.8 18.1 25 17.9 C 25 17.7 25.1 17.4 25.1 17 C 25.1 17 25.1 16.7 25.1 16.7 Z M 27.3 19.3 L 27.3 12.1 L 28.2 12.1 L 28.2 19.3 L 27.3 19.3 Z M 32.5 19.3 L 32.5 12.1 C 32.5 12.1 34.92 12.12 34.9 12.1 C 35.5 12.1 35.9 12.2 36.2 12.2 C 36.6 12.3 37 12.5 37.2 12.7 C 37.6 13.1 37.9 13.5 38.1 14 C 38.3 14.5 38.4 15 38.4 15.7 C 38.4 16.2 38.3 16.7 38.2 17.1 C 38.1 17.5 37.9 17.9 37.7 18.1 C 37.5 18.4 37.3 18.6 37 18.8 C 36.8 19 36.5 19.1 36.2 19.2 C 35.9 19.2 35.5 19.3 35 19.3 C 35.04 19.28 32.5 19.3 32.5 19.3 Z M 33.4 18.4 C 33.4 18.4 34.93 18.44 34.9 18.4 C 35.4 18.4 35.8 18.4 36 18.3 C 36.3 18.2 36.5 18.1 36.7 17.9 C 36.9 17.7 37.1 17.4 37.2 17 C 37.3 16.6 37.4 16.2 37.4 15.6 C 37.4 14.9 37.3 14.3 37 13.9 C 36.8 13.5 36.5 13.3 36.1 13.1 C 35.9 13 35.5 13 34.9 13 C 34.91 12.97 33.4 13 33.4 13 L 33.4 18.4 Z M 39.6 13.1 L 39.6 12.1 L 40.4 12.1 L 40.4 13.1 L 39.6 13.1 Z M 39.6 19.3 L 39.6 14.1 L 40.4 14.1 L 40.4 19.3 L 39.6 19.3 Z M 41.8 19.3 L 41.8 14.1 L 42.6 14.1 C 42.6 14.1 42.57 14.88 42.6 14.9 C 42.8 14.5 43 14.3 43.1 14.2 C 43.3 14 43.5 14 43.7 14 C 44 14 44.3 14.1 44.6 14.3 C 44.6 14.3 44.3 15.1 44.3 15.1 C 44.1 14.9 43.9 14.9 43.6 14.9 C 43.5 14.9 43.3 14.9 43.1 15.1 C 43 15.2 42.9 15.3 42.8 15.5 C 42.7 15.9 42.7 16.2 42.7 16.6 C 42.66 16.57 42.7 19.3 42.7 19.3 L 41.8 19.3 Z M 48.7 17.6 C 48.7 17.6 49.6 17.7 49.6 17.7 C 49.4 18.3 49.2 18.7 48.8 19 C 48.4 19.3 47.9 19.4 47.3 19.4 C 46.5 19.4 45.9 19.2 45.5 18.7 C 45 18.2 44.8 17.6 44.8 16.7 C 44.8 15.9 45 15.2 45.5 14.7 C 45.9 14.2 46.5 14 47.2 14 C 47.9 14 48.5 14.2 48.9 14.7 C 49.4 15.2 49.6 15.8 49.6 16.7 C 49.6 16.7 49.6 16.8 49.6 16.9 C 49.6 16.9 45.7 16.9 45.7 16.9 C 45.8 17.5 45.9 17.9 46.2 18.2 C 46.5 18.5 46.9 18.7 47.3 18.7 C 47.6 18.7 47.9 18.6 48.1 18.4 C 48.4 18.3 48.5 18 48.7 17.6 Z M 45.8 16.2 C 45.8 16.2 48.7 16.2 48.7 16.2 C 48.6 15.8 48.5 15.4 48.3 15.2 C 48.1 14.9 47.7 14.7 47.3 14.7 C 46.9 14.7 46.5 14.8 46.2 15.1 C 46 15.4 45.8 15.7 45.8 16.2 Z M 54.1 17.4 C 54.1 17.4 54.9 17.5 54.9 17.5 C 54.8 18.1 54.6 18.6 54.2 18.9 C 53.8 19.2 53.3 19.4 52.8 19.4 C 52.1 19.4 51.5 19.2 51.1 18.7 C 50.6 18.2 50.4 17.6 50.4 16.7 C 50.4 16.1 50.5 15.7 50.7 15.2 C 50.9 14.8 51.2 14.5 51.5 14.3 C 51.9 14.1 52.3 14 52.8 14 C 53.3 14 53.8 14.1 54.2 14.4 C 54.5 14.7 54.7 15.1 54.8 15.6 C 54.8 15.6 54 15.8 54 15.8 C 53.9 15.4 53.8 15.1 53.6 15 C 53.4 14.8 53.1 14.7 52.8 14.7 C 52.4 14.7 52 14.9 51.7 15.2 C 51.5 15.5 51.3 16 51.3 16.7 C 51.3 17.4 51.4 17.9 51.7 18.2 C 52 18.5 52.3 18.7 52.8 18.7 C 53.1 18.7 53.4 18.6 53.6 18.4 C 53.9 18.1 54 17.8 54.1 17.4 Z M 57.2 18.5 C 57.3 18.5 57.4 18.5 57.6 18.5 C 57.6 18.5 57.7 19.3 57.7 19.3 C 57.5 19.3 57.3 19.3 57.1 19.3 C 56.7 19.3 56.5 19.3 56.3 19.2 C 56.1 19.1 56 19 55.9 18.8 C 55.9 18.6 55.8 18.3 55.8 17.8 C 55.84 17.76 55.8 14.8 55.8 14.8 L 55.2 14.8 L 55.2 14.1 L 55.8 14.1 L 55.8 12.8 L 56.7 12.3 L 56.7 14.1 L 57.6 14.1 L 57.6 14.8 L 56.7 14.8 C 56.7 14.8 56.71 17.81 56.7 17.8 C 56.7 18.1 56.7 18.2 56.8 18.3 C 56.8 18.4 56.8 18.4 56.9 18.5 C 57 18.5 57.1 18.5 57.2 18.5 C 57.2 18.5 57.2 18.5 57.2 18.5 Z M 58.1 16.7 C 58.1 15.7 58.4 15 58.9 14.6 C 59.4 14.2 59.9 14 60.6 14 C 61.3 14 61.9 14.2 62.3 14.7 C 62.8 15.1 63 15.8 63 16.6 C 63 17.3 62.9 17.8 62.7 18.2 C 62.5 18.6 62.2 18.9 61.8 19.1 C 61.4 19.3 61 19.4 60.6 19.4 C 59.8 19.4 59.2 19.2 58.8 18.7 C 58.4 18.2 58.1 17.6 58.1 16.7 Z M 59 16.7 C 59 17.4 59.2 17.8 59.5 18.2 C 59.8 18.5 60.1 18.7 60.6 18.7 C 61 18.7 61.4 18.5 61.7 18.2 C 61.9 17.8 62.1 17.3 62.1 16.7 C 62.1 16 61.9 15.5 61.6 15.2 C 61.4 14.9 61 14.7 60.6 14.7 C 60.1 14.7 59.8 14.9 59.5 15.2 C 59.2 15.5 59 16 59 16.7 Z M 64 19.3 L 64 14.1 L 64.8 14.1 C 64.8 14.1 64.8 14.88 64.8 14.9 C 65 14.5 65.2 14.3 65.4 14.2 C 65.5 14 65.7 14 65.9 14 C 66.2 14 66.5 14.1 66.8 14.3 C 66.8 14.3 66.5 15.1 66.5 15.1 C 66.3 14.9 66.1 14.9 65.9 14.9 C 65.7 14.9 65.5 14.9 65.4 15.1 C 65.2 15.2 65.1 15.3 65 15.5 C 64.9 15.9 64.9 16.2 64.9 16.6 C 64.89 16.57 64.9 19.3 64.9 19.3 L 64 19.3 Z M 69.8 16.7 C 69.8 15.7 70.1 15 70.6 14.6 C 71 14.2 71.6 14 72.2 14 C 72.9 14 73.5 14.2 74 14.7 C 74.4 15.1 74.7 15.8 74.7 16.6 C 74.7 17.3 74.6 17.8 74.4 18.2 C 74.2 18.6 73.9 18.9 73.5 19.1 C 73.1 19.3 72.7 19.4 72.2 19.4 C 71.5 19.4 70.9 19.2 70.5 18.7 C 70 18.2 69.8 17.6 69.8 16.7 Z M 70.7 16.7 C 70.7 17.4 70.8 17.8 71.1 18.2 C 71.4 18.5 71.8 18.7 72.2 18.7 C 72.7 18.7 73 18.5 73.3 18.2 C 73.6 17.8 73.8 17.3 73.8 16.7 C 73.8 16 73.6 15.5 73.3 15.2 C 73 14.9 72.7 14.7 72.2 14.7 C 71.8 14.7 71.4 14.9 71.1 15.2 C 70.8 15.5 70.7 16 70.7 16.7 Z M 75.9 19.3 L 75.9 14.8 L 75.1 14.8 L 75.1 14.1 L 75.9 14.1 C 75.9 14.1 75.9 13.54 75.9 13.5 C 75.9 13.2 75.9 12.9 76 12.8 C 76.1 12.5 76.2 12.4 76.4 12.2 C 76.7 12.1 76.9 12 77.3 12 C 77.6 12 77.9 12 78.2 12.1 C 78.2 12.1 78 12.9 78 12.9 C 77.8 12.8 77.7 12.8 77.5 12.8 C 77.2 12.8 77 12.9 76.9 13 C 76.8 13.1 76.8 13.3 76.8 13.6 C 76.77 13.62 76.8 14.1 76.8 14.1 L 77.8 14.1 L 77.8 14.8 L 76.8 14.8 L 76.8 19.3 L 75.9 19.3 Z M 81.1 15.8 C 81.1 14.6 81.4 13.7 82 13 C 82.7 12.3 83.5 12 84.5 12 C 85.2 12 85.8 12.2 86.3 12.5 C 86.8 12.8 87.2 13.2 87.5 13.8 C 87.8 14.4 87.9 15 87.9 15.7 C 87.9 16.4 87.8 17.1 87.5 17.7 C 87.2 18.2 86.8 18.7 86.2 19 C 85.7 19.3 85.1 19.4 84.5 19.4 C 83.8 19.4 83.2 19.2 82.7 18.9 C 82.2 18.6 81.8 18.1 81.5 17.6 C 81.2 17 81.1 16.4 81.1 15.8 Z M 82 15.8 C 82 16.7 82.3 17.4 82.7 17.8 C 83.2 18.3 83.8 18.6 84.5 18.6 C 85.2 18.6 85.8 18.3 86.2 17.8 C 86.7 17.3 86.9 16.6 86.9 15.7 C 86.9 15.1 86.8 14.6 86.6 14.2 C 86.4 13.7 86.2 13.4 85.8 13.2 C 85.4 12.9 85 12.8 84.5 12.8 C 83.8 12.8 83.3 13 82.8 13.5 C 82.3 14 82 14.7 82 15.8 Z M 89 21.3 L 89 14.1 L 89.8 14.1 C 89.8 14.1 89.82 14.77 89.8 14.8 C 90 14.5 90.2 14.3 90.5 14.2 C 90.7 14 91 14 91.3 14 C 91.8 14 92.2 14.1 92.5 14.3 C 92.8 14.5 93.1 14.9 93.3 15.3 C 93.4 15.7 93.5 16.2 93.5 16.6 C 93.5 17.2 93.4 17.7 93.2 18.1 C 93 18.5 92.8 18.8 92.4 19.1 C 92 19.3 91.7 19.4 91.3 19.4 C 91 19.4 90.7 19.3 90.5 19.2 C 90.2 19.1 90.1 18.9 89.9 18.7 C 89.9 18.74 89.9 21.3 89.9 21.3 L 89 21.3 Z M 89.8 16.7 C 89.8 17.4 90 17.9 90.2 18.2 C 90.5 18.5 90.8 18.7 91.2 18.7 C 91.6 18.7 91.9 18.5 92.2 18.2 C 92.5 17.8 92.6 17.3 92.6 16.6 C 92.6 16 92.5 15.5 92.2 15.2 C 91.9 14.8 91.6 14.7 91.2 14.7 C 90.9 14.7 90.5 14.8 90.3 15.2 C 90 15.5 89.8 16 89.8 16.7 Z M 98.1 17.6 C 98.1 17.6 99 17.7 99 17.7 C 98.9 18.3 98.6 18.7 98.2 19 C 97.9 19.3 97.4 19.4 96.8 19.4 C 96 19.4 95.4 19.2 95 18.7 C 94.5 18.2 94.3 17.6 94.3 16.7 C 94.3 15.9 94.5 15.2 95 14.7 C 95.4 14.2 96 14 96.7 14 C 97.4 14 98 14.2 98.4 14.7 C 98.9 15.2 99.1 15.8 99.1 16.7 C 99.1 16.7 99.1 16.8 99.1 16.9 C 99.1 16.9 95.2 16.9 95.2 16.9 C 95.2 17.5 95.4 17.9 95.7 18.2 C 96 18.5 96.3 18.7 96.8 18.7 C 97.1 18.7 97.4 18.6 97.6 18.4 C 97.8 18.3 98 18 98.1 17.6 Z M 95.2 16.2 C 95.2 16.2 98.1 16.2 98.1 16.2 C 98.1 15.8 98 15.4 97.8 15.2 C 97.5 14.9 97.2 14.7 96.7 14.7 C 96.3 14.7 96 14.8 95.7 15.1 C 95.4 15.4 95.3 15.7 95.2 16.2 Z M 100.1 19.3 L 100.1 14.1 L 100.9 14.1 C 100.9 14.1 100.93 14.88 100.9 14.9 C 101.1 14.5 101.3 14.3 101.5 14.2 C 101.7 14 101.8 14 102.1 14 C 102.3 14 102.6 14.1 103 14.3 C 103 14.3 102.7 15.1 102.7 15.1 C 102.4 14.9 102.2 14.9 102 14.9 C 101.8 14.9 101.6 14.9 101.5 15.1 C 101.3 15.2 101.2 15.3 101.2 15.5 C 101.1 15.9 101 16.2 101 16.6 C 101.02 16.57 101 19.3 101 19.3 L 100.1 19.3 Z M 107 19.3 C 106.9 19.1 106.9 18.9 106.9 18.6 C 106.5 18.9 106.2 19.1 105.9 19.2 C 105.6 19.3 105.3 19.4 105 19.4 C 104.4 19.4 103.9 19.3 103.6 19 C 103.3 18.7 103.2 18.3 103.2 17.9 C 103.2 17.7 103.2 17.4 103.4 17.2 C 103.5 17 103.6 16.8 103.8 16.7 C 104 16.6 104.2 16.5 104.4 16.4 C 104.6 16.4 104.9 16.3 105.2 16.3 C 105.9 16.2 106.5 16.1 106.8 16 C 106.8 15.9 106.8 15.8 106.8 15.8 C 106.8 15.4 106.7 15.1 106.5 15 C 106.3 14.8 106 14.7 105.5 14.7 C 105.1 14.7 104.8 14.8 104.6 14.9 C 104.4 15.1 104.3 15.3 104.2 15.7 C 104.2 15.7 103.3 15.6 103.3 15.6 C 103.4 15.2 103.5 14.9 103.7 14.7 C 103.9 14.5 104.2 14.3 104.5 14.2 C 104.8 14 105.2 14 105.7 14 C 106.1 14 106.5 14 106.7 14.1 C 107 14.2 107.2 14.4 107.4 14.5 C 107.5 14.7 107.6 14.9 107.6 15.1 C 107.7 15.3 107.7 15.5 107.7 15.9 C 107.7 15.9 107.7 17.1 107.7 17.1 C 107.7 17.9 107.7 18.4 107.7 18.7 C 107.8 18.9 107.8 19.1 108 19.3 C 107.95 19.28 107 19.3 107 19.3 C 107 19.3 107.04 19.28 107 19.3 Z M 106.8 16.7 C 106.5 16.8 106 16.9 105.4 17 C 105 17.1 104.7 17.1 104.6 17.2 C 104.4 17.3 104.3 17.3 104.2 17.5 C 104.2 17.6 104.1 17.7 104.1 17.9 C 104.1 18.1 104.2 18.3 104.4 18.5 C 104.6 18.6 104.8 18.7 105.2 18.7 C 105.5 18.7 105.8 18.6 106.1 18.5 C 106.3 18.3 106.5 18.1 106.6 17.9 C 106.7 17.7 106.8 17.4 106.8 17 C 106.8 17 106.8 16.7 106.8 16.7 Z M 110.6 18.5 C 110.7 18.5 110.8 18.5 111 18.5 C 111 18.5 111.1 19.3 111.1 19.3 C 110.8 19.3 110.6 19.3 110.4 19.3 C 110.1 19.3 109.9 19.3 109.7 19.2 C 109.5 19.1 109.4 19 109.3 18.8 C 109.2 18.6 109.2 18.3 109.2 17.8 C 109.2 17.76 109.2 14.8 109.2 14.8 L 108.6 14.8 L 108.6 14.1 L 109.2 14.1 L 109.2 12.8 L 110.1 12.3 L 110.1 14.1 L 111 14.1 L 111 14.8 L 110.1 14.8 C 110.1 14.8 110.07 17.81 110.1 17.8 C 110.1 18.1 110.1 18.2 110.1 18.3 C 110.2 18.4 110.2 18.4 110.3 18.5 C 110.3 18.5 110.4 18.5 110.6 18.5 C 110.6 18.5 110.6 18.5 110.6 18.5 Z M 111.8 13.1 L 111.8 12.1 L 112.7 12.1 L 112.7 13.1 L 111.8 13.1 Z M 111.8 19.3 L 111.8 14.1 L 112.7 14.1 L 112.7 19.3 L 111.8 19.3 Z M 113.7 16.7 C 113.7 15.7 114 15 114.5 14.6 C 115 14.2 115.5 14 116.1 14 C 116.9 14 117.4 14.2 117.9 14.7 C 118.3 15.1 118.6 15.8 118.6 16.6 C 118.6 17.3 118.5 17.8 118.3 18.2 C 118.1 18.6 117.8 18.9 117.4 19.1 C 117 19.3 116.6 19.4 116.1 19.4 C 115.4 19.4 114.8 19.2 114.4 18.7 C 113.9 18.2 113.7 17.6 113.7 16.7 Z M 114.6 16.7 C 114.6 17.4 114.8 17.8 115 18.2 C 115.3 18.5 115.7 18.7 116.1 18.7 C 116.6 18.7 116.9 18.5 117.2 18.2 C 117.5 17.8 117.7 17.3 117.7 16.7 C 117.7 16 117.5 15.5 117.2 15.2 C 116.9 14.9 116.6 14.7 116.1 14.7 C 115.7 14.7 115.3 14.9 115 15.2 C 114.8 15.5 114.6 16 114.6 16.7 Z M 119.6 19.3 L 119.6 14.1 L 120.4 14.1 C 120.4 14.1 120.39 14.83 120.4 14.8 C 120.8 14.3 121.3 14 122 14 C 122.4 14 122.6 14 122.9 14.1 C 123.2 14.3 123.4 14.4 123.5 14.6 C 123.6 14.8 123.7 15 123.8 15.2 C 123.8 15.4 123.8 15.7 123.8 16.1 C 123.81 16.09 123.8 19.3 123.8 19.3 L 122.9 19.3 C 122.9 19.3 122.93 16.13 122.9 16.1 C 122.9 15.8 122.9 15.5 122.8 15.3 C 122.8 15.1 122.6 15 122.5 14.9 C 122.3 14.8 122.1 14.7 121.9 14.7 C 121.5 14.7 121.2 14.9 120.9 15.1 C 120.6 15.3 120.5 15.8 120.5 16.4 C 120.48 16.45 120.5 19.3 120.5 19.3 L 119.6 19.3 Z M 124.8 17.7 C 124.8 17.7 125.7 17.6 125.7 17.6 C 125.7 17.9 125.9 18.2 126.1 18.4 C 126.3 18.6 126.6 18.7 127 18.7 C 127.4 18.7 127.7 18.6 127.9 18.4 C 128.1 18.3 128.2 18.1 128.2 17.8 C 128.2 17.7 128.1 17.5 128 17.4 C 127.8 17.3 127.5 17.2 127.1 17.1 C 126.4 16.9 126 16.8 125.7 16.7 C 125.5 16.5 125.3 16.4 125.1 16.2 C 125 16 125 15.7 125 15.5 C 125 15.2 125 15 125.1 14.8 C 125.2 14.6 125.4 14.5 125.5 14.3 C 125.7 14.2 125.9 14.2 126.1 14.1 C 126.3 14 126.6 14 126.9 14 C 127.3 14 127.6 14 127.9 14.2 C 128.2 14.3 128.5 14.4 128.6 14.6 C 128.8 14.8 128.9 15.1 128.9 15.4 C 128.9 15.4 128.1 15.5 128.1 15.5 C 128 15.3 127.9 15.1 127.7 14.9 C 127.5 14.8 127.3 14.7 126.9 14.7 C 126.5 14.7 126.2 14.8 126.1 14.9 C 125.9 15 125.8 15.2 125.8 15.4 C 125.8 15.5 125.8 15.6 125.9 15.7 C 126 15.8 126.1 15.8 126.3 15.9 C 126.3 15.9 126.6 16 127 16.1 C 127.6 16.3 128.1 16.4 128.3 16.5 C 128.6 16.6 128.8 16.8 128.9 17 C 129 17.2 129.1 17.5 129.1 17.8 C 129.1 18 129 18.3 128.9 18.6 C 128.7 18.8 128.4 19 128.1 19.2 C 127.8 19.3 127.4 19.4 127 19.4 C 126.4 19.4 125.8 19.3 125.5 19 C 125.1 18.7 124.9 18.3 124.8 17.7 Z " stroke="none" fill="#ffffff"/>
  </g>
  <g id="Polygon62077">
    <path d="M 5.3 4.6 C 5.3 4.6 6.7 5.1 6.7 5.1 C 6.5 5.9 6.1 6.5 5.6 6.8 C 5.1 7.2 4.5 7.4 3.7 7.4 C 2.8 7.4 2 7.1 1.4 6.4 C 0.8 5.8 0.5 4.9 0.5 3.8 C 0.5 2.6 0.8 1.6 1.4 1 C 2 0.3 2.8 0 3.8 0 C 4.7 0 5.4 0.3 6 0.8 C 6.3 1.1 6.5 1.5 6.7 2.1 C 6.7 2.1 5.3 2.4 5.3 2.4 C 5.2 2.1 5 1.8 4.7 1.6 C 4.5 1.3 4.1 1.2 3.8 1.2 C 3.2 1.2 2.8 1.4 2.5 1.8 C 2.1 2.2 2 2.8 2 3.7 C 2 4.6 2.1 5.2 2.5 5.6 C 2.8 6 3.2 6.2 3.7 6.2 C 4.1 6.2 4.4 6 4.7 5.8 C 5 5.6 5.2 5.2 5.3 4.6 Z M 9.3 0.1 C 9.3 0.1 9.31 2.75 9.3 2.8 C 9.7 2.2 10.3 2 10.9 2 C 11.2 2 11.5 2 11.7 2.2 C 12 2.3 12.2 2.4 12.3 2.6 C 12.5 2.8 12.5 3 12.6 3.2 C 12.6 3.4 12.7 3.8 12.7 4.2 C 12.66 4.24 12.7 7.3 12.7 7.3 L 11.3 7.3 C 11.3 7.3 11.28 4.54 11.3 4.5 C 11.3 4 11.3 3.7 11.2 3.5 C 11.2 3.4 11.1 3.2 10.9 3.2 C 10.8 3.1 10.6 3 10.4 3 C 10.2 3 10 3.1 9.8 3.2 C 9.6 3.3 9.5 3.5 9.4 3.7 C 9.3 3.9 9.3 4.2 9.3 4.7 C 9.31 4.68 9.3 7.3 9.3 7.3 L 7.9 7.3 L 7.9 0.1 L 9.3 0.1 Z M 17.5 7.3 C 17.5 7.3 17.46 6.5 17.5 6.5 C 17.3 6.8 17 7 16.7 7.2 C 16.4 7.3 16.1 7.4 15.7 7.4 C 15.4 7.4 15.1 7.3 14.8 7.2 C 14.5 7 14.3 6.8 14.2 6.5 C 14.1 6.2 14 5.9 14 5.4 C 14.02 5.38 14 2.1 14 2.1 L 15.4 2.1 C 15.4 2.1 15.39 4.48 15.4 4.5 C 15.4 5.2 15.4 5.7 15.5 5.8 C 15.5 6 15.6 6.1 15.7 6.2 C 15.9 6.3 16 6.4 16.3 6.4 C 16.5 6.4 16.7 6.3 16.9 6.2 C 17.1 6 17.2 5.9 17.3 5.7 C 17.3 5.5 17.4 5 17.4 4.3 C 17.36 4.28 17.4 2.1 17.4 2.1 L 18.7 2.1 L 18.7 7.3 L 17.5 7.3 Z M 24.7 3.6 C 24.7 3.6 23.3 3.9 23.3 3.9 C 23.3 3.6 23.2 3.4 23 3.3 C 22.9 3.1 22.6 3.1 22.4 3.1 C 22 3.1 21.8 3.2 21.6 3.4 C 21.4 3.6 21.3 4 21.3 4.6 C 21.3 5.2 21.4 5.6 21.6 5.9 C 21.8 6.2 22.1 6.3 22.4 6.3 C 22.7 6.3 22.9 6.2 23 6.1 C 23.2 5.9 23.3 5.7 23.4 5.3 C 23.4 5.3 24.7 5.5 24.7 5.5 C 24.6 6.1 24.3 6.6 23.9 6.9 C 23.5 7.2 23 7.4 22.3 7.4 C 21.6 7.4 21 7.2 20.5 6.7 C 20.1 6.2 19.9 5.5 19.9 4.7 C 19.9 3.8 20.1 3.2 20.5 2.7 C 21 2.2 21.6 2 22.4 2 C 23 2 23.5 2.1 23.9 2.4 C 24.2 2.7 24.5 3.1 24.7 3.6 Z M 25.7 7.3 L 25.7 0.1 L 27 0.1 L 27 3.9 L 28.6 2.1 L 30.3 2.1 L 28.6 4 L 30.5 7.3 L 29 7.3 L 27.7 5 L 27 5.6 L 27 7.3 L 25.7 7.3 Z M 34.1 7.3 L 34.1 0.1 L 35.5 0.1 L 35.5 2.9 L 38.3 2.9 L 38.3 0.1 L 39.8 0.1 L 39.8 7.3 L 38.3 7.3 L 38.3 4.2 L 35.5 4.2 L 35.5 7.3 L 34.1 7.3 Z M 42.3 3.7 C 42.3 3.7 41.1 3.5 41.1 3.5 C 41.2 3 41.4 2.6 41.8 2.3 C 42.1 2.1 42.6 2 43.3 2 C 43.9 2 44.4 2.1 44.7 2.2 C 45 2.3 45.2 2.5 45.3 2.7 C 45.4 3 45.5 3.4 45.5 4 C 45.5 4 45.5 5.6 45.5 5.6 C 45.5 6 45.5 6.4 45.5 6.6 C 45.6 6.8 45.7 7 45.8 7.3 C 45.8 7.3 44.4 7.3 44.4 7.3 C 44.4 7.2 44.3 7.1 44.3 6.9 C 44.3 6.8 44.3 6.7 44.2 6.7 C 44 6.9 43.8 7.1 43.5 7.2 C 43.2 7.3 42.9 7.4 42.6 7.4 C 42.1 7.4 41.7 7.3 41.4 7 C 41.1 6.7 40.9 6.3 40.9 5.9 C 40.9 5.6 41 5.3 41.1 5.1 C 41.3 4.9 41.5 4.7 41.7 4.6 C 42 4.4 42.3 4.3 42.8 4.2 C 43.4 4.1 43.9 4 44.1 3.9 C 44.1 3.9 44.1 3.8 44.1 3.8 C 44.1 3.5 44.1 3.3 43.9 3.2 C 43.8 3.1 43.6 3 43.2 3 C 43 3 42.8 3.1 42.6 3.2 C 42.5 3.3 42.4 3.4 42.3 3.7 Z M 44.1 4.8 C 44 4.8 43.7 4.9 43.3 5 C 42.9 5.1 42.7 5.2 42.6 5.2 C 42.4 5.4 42.3 5.5 42.3 5.7 C 42.3 5.9 42.4 6.1 42.5 6.2 C 42.6 6.4 42.8 6.4 43.1 6.4 C 43.3 6.4 43.5 6.3 43.8 6.2 C 43.9 6.1 44 5.9 44.1 5.7 C 44.1 5.6 44.1 5.4 44.1 5.1 C 44.1 5.1 44.1 4.8 44.1 4.8 Z M 46.8 7.3 L 46.8 0.1 L 48.2 0.1 L 48.2 7.3 L 46.8 7.3 Z M 49.6 7.3 L 49.6 0.1 L 51 0.1 L 51 7.3 L 49.6 7.3 Z " stroke="none" fill="#ffffff"/>
  </g>
</svg>