<?xml version="1.0" standalone="no"?><!DOCTYPE svg PUBLIC "-//W3C//DTD SVG 1.1//EN" "http://www.w3.org/Graphics/SVG/1.1/DTD/svg11.dtd"><svg xmlns="http://www.w3.org/2000/svg" version="1.1" width="778px" height="80.5px" viewBox="0 -9 778 80.5" style="top:-9px"><desc>Environmental Sustainability Report April 2021</desc><defs/><g id="Polygon62664"><path d="m0 58.7l5.3-13.9l2 0l5.7 13.9l-2.1 0l-1.6-4.2l-5.8 0l-1.6 4.2l-1.9 0zm4-5.7l4.7 0c0 0-1.43-3.86-1.4-3.9c-.5-1.1-.8-2.1-1-2.9c-.2.9-.4 1.8-.8 2.7c.03.01-1.5 4.1-1.5 4.1zm13.3 9.6l0-14l1.6 0c0 0-.03 1.34 0 1.3c.3-.5.8-.9 1.2-1.1c.5-.3 1-.4 1.7-.4c.9 0 1.6.2 2.3.7c.6.4 1.1 1 1.5 1.8c.3.9.5 1.7.5 2.7c0 1-.2 2-.6 2.8c-.3.8-.9 1.5-1.6 1.9c-.7.4-1.4.7-2.2.7c-.6 0-1.1-.2-1.6-.4c-.4-.2-.8-.5-1.1-.9c.02-.01 0 4.9 0 4.9l-1.7 0zm1.6-8.9c0 1.3.2 2.3.8 2.9c.5.6 1.1 1 1.9 1c.7 0 1.4-.4 1.9-1c.6-.7.8-1.6.8-3c0-1.3-.2-2.3-.8-2.9c-.5-.6-1.1-1-1.9-1c-.7 0-1.3.4-1.9 1.1c-.6.6-.8 1.6-.8 2.9zm12 5l0-10.1l1.5 0c0 0 .04 1.56 0 1.6c.4-.8.8-1.2 1.1-1.5c.4-.2.7-.3 1.1-.3c.6 0 1.2.2 1.8.6c0 0-.6 1.5-.6 1.5c-.4-.2-.8-.3-1.3-.3c-.3 0-.7.1-1 .3c-.3.2-.5.5-.6.9c-.2.7-.3 1.3-.3 2c.01.05 0 5.3 0 5.3l-1.7 0zm9.5-11.9l0-2l1.7 0l0 2l-1.7 0zm0 11.9l0-10.1l1.7 0l0 10.1l-1.7 0zm7 0l0-13.9l1.7 0l0 13.9l-1.7 0zm24.2-1.6l0 1.6c0 0-9.23.04-9.2 0c0-.4 0-.8.2-1.1c.2-.7.6-1.3 1.1-1.9c.5-.6 1.3-1.3 2.2-2.1c1.6-1.3 2.6-2.2 3.1-3c.6-.7.8-1.4.8-2c0-.7-.2-1.3-.7-1.8c-.5-.4-1.1-.7-1.9-.7c-.8 0-1.5.3-2 .8c-.5.5-.7 1.2-.7 2c0 0-1.8-.1-1.8-.1c.1-1.4.6-2.4 1.4-3c.7-.7 1.8-1.1 3.1-1.1c1.4 0 2.4.4 3.2 1.1c.8.8 1.2 1.7 1.2 2.8c0 .6-.1 1.1-.4 1.6c-.2.6-.6 1.2-1.1 1.8c-.5.5-1.4 1.4-2.6 2.4c-1.1.9-1.7 1.5-2 1.8c-.3.3-.6.6-.7.9c-.05-.01 6.8 0 6.8 0zm5.9.4c-.9-1.1-1.3-3-1.3-5.6c0-1.7.1-3 .5-4c.3-1 .8-1.8 1.5-2.4c.7-.5 1.5-.8 2.5-.8c.8 0 1.4.2 2 .5c.6.3 1 .7 1.4 1.3c.4.6.6 1.2.9 2.1c.2.8.3 1.9.3 3.3c0 1.6-.2 2.9-.5 3.9c-.4 1-.9 1.8-1.5 2.4c-.7.5-1.6.8-2.6.8c-1.3 0-2.4-.5-3.2-1.5c0 0 0 0 0 0zm1.3-10.4c-.6.9-.9 2.5-.9 4.8c0 2.2.3 3.8.8 4.5c.6.8 1.2 1.2 2 1.2c.8 0 1.5-.4 2-1.2c.5-.7.8-2.3.8-4.5c0-2.3-.3-3.9-.8-4.6c-.5-.8-1.2-1.2-2-1.2c-.8 0-1.4.4-1.9 1c0 0 0 0 0 0zm19.9 10l0 1.6c0 0-9.19.04-9.2 0c0-.4.1-.8.2-1.1c.2-.7.6-1.3 1.1-1.9c.6-.6 1.3-1.3 2.3-2.1c1.5-1.3 2.5-2.2 3.1-3c.5-.7.8-1.4.8-2c0-.7-.3-1.3-.8-1.8c-.5-.4-1.1-.7-1.9-.7c-.8 0-1.5.3-1.9.8c-.5.5-.8 1.2-.8 2c0 0-1.8-.1-1.8-.1c.2-1.4.6-2.4 1.4-3c.8-.7 1.8-1.1 3.2-1.1c1.3 0 2.4.4 3.1 1.1c.8.8 1.2 1.7 1.2 2.8c0 .6-.1 1.1-.3 1.6c-.3.6-.6 1.2-1.2 1.8c-.5.5-1.4 1.4-2.6 2.4c-1 .9-1.7 1.5-2 1.8c-.3.3-.5.6-.7.9c-.01-.01 6.8 0 6.8 0zm10.5 1.6l-1.7 0c0 0-.03-10.88 0-10.9c-.4.4-1 .8-1.7 1.2c-.6.4-1.2.7-1.8.9c0 0 0-1.7 0-1.7c1-.4 1.8-1 2.6-1.6c.7-.6 1.2-1.3 1.5-1.9c-.02.03 1.1 0 1.1 0l0 14z" stroke="none" fill="#ffffff"/></g><g id="Polygon62663"><path d="m2.4 21.8l0-21.4l15.5 0l0 2.5l-12.7 0l0 6.6l11.9 0l0 2.5l-11.9 0l0 7.3l13.2 0l0 2.5l-16 0zm23.2 0l0-15.5l2.4 0c0 0 .01 2.2 0 2.2c1.2-1.7 2.8-2.6 5-2.6c.9 0 1.8.2 2.6.5c.7.4 1.3.8 1.7 1.4c.4.5.7 1.2.8 1.9c.1.5.2 1.4.2 2.6c-.02-.02 0 9.5 0 9.5l-2.7 0c0 0 .05-9.42 0-9.4c0-1.1-.1-1.9-.3-2.4c-.2-.6-.5-1-1.1-1.3c-.5-.3-1.1-.5-1.8-.5c-1.1 0-2.1.4-2.9 1.1c-.8.7-1.2 2.1-1.2 4c-.02.04 0 8.5 0 8.5l-2.7 0zm24.5 0l-5.9-15.5l2.8 0c0 0 3.34 9.3 3.3 9.3c.4 1 .7 2.1 1 3.1c.3-.8.6-1.8 1-2.9c.01-.02 3.5-9.5 3.5-9.5l2.7 0l-5.9 15.5l-2.5 0zm14.9-18.4l0-3l2.6 0l0 3l-2.6 0zm0 18.4l0-15.5l2.6 0l0 15.5l-2.6 0zm10.6 0l0-15.5l2.4 0c0 0-.03 2.34 0 2.3c.6-1.1 1.1-1.8 1.7-2.1c.5-.4 1-.6 1.6-.6c.9 0 1.8.3 2.8.9c0 0-1 2.4-1 2.4c-.6-.4-1.2-.5-1.9-.5c-.6 0-1.1.1-1.5.5c-.5.3-.8.8-1 1.4c-.3 1-.5 2-.5 3.1c.04 0 0 8.1 0 8.1l-2.6 0zm13.2-7.7c0-2.9.8-5.1 2.4-6.4c1.3-1.2 2.9-1.8 4.9-1.8c2.1 0 3.8.7 5.2 2.1c1.4 1.4 2 3.4 2 5.8c0 2-.3 3.6-.9 4.8c-.6 1.1-1.4 2-2.6 2.6c-1.1.7-2.4 1-3.7 1c-2.2 0-4-.7-5.3-2.1c-1.4-1.4-2-3.4-2-6zm2.7 0c0 2 .4 3.4 1.3 4.4c.9 1 1.9 1.5 3.3 1.5c1.3 0 2.4-.5 3.2-1.5c.9-1 1.3-2.5 1.3-4.5c0-1.9-.4-3.4-1.3-4.4c-.9-1-1.9-1.5-3.2-1.5c-1.4 0-2.4.5-3.3 1.5c-.9 1-1.3 2.5-1.3 4.5zm19.1 7.7l0-15.5l2.4 0c0 0-.04 2.2 0 2.2c1.1-1.7 2.8-2.6 4.9-2.6c1 0 1.8.2 2.6.5c.8.4 1.4.8 1.8 1.4c.4.5.6 1.2.8 1.9c.1.5.1 1.4.1 2.6c.03-.02 0 9.5 0 9.5l-2.6 0c0 0 0-9.42 0-9.4c0-1.1-.1-1.9-.3-2.4c-.2-.6-.6-1-1.1-1.3c-.5-.3-1.1-.5-1.8-.5c-1.2 0-2.1.4-2.9 1.1c-.9.7-1.3 2.1-1.3 4c.03.04 0 8.5 0 8.5l-2.6 0zm20.7 0l0-15.5l2.3 0c0 0 .02 2.17 0 2.2c.5-.8 1.2-1.4 2-1.9c.8-.4 1.7-.7 2.7-.7c1.2 0 2.1.3 2.9.8c.7.4 1.2 1.1 1.5 2c1.3-1.9 2.9-2.8 4.8-2.8c1.6 0 2.8.5 3.6 1.3c.8.9 1.2 2.2 1.2 4c.04-.04 0 10.6 0 10.6l-2.6 0c0 0 .02-9.76 0-9.8c0-1-.1-1.8-.2-2.2c-.2-.5-.5-.9-1-1.2c-.4-.2-.9-.4-1.6-.4c-1 0-2 .4-2.7 1.1c-.7.7-1.1 1.9-1.1 3.5c.04 0 0 9 0 9l-2.6 0c0 0 0-10.07 0-10.1c0-1.1-.2-2-.6-2.6c-.5-.6-1.2-.9-2.2-.9c-.7 0-1.4.2-2 .6c-.6.4-1.1 1-1.4 1.7c-.3.8-.4 1.9-.4 3.3c0-.03 0 8 0 8l-2.6 0zm39.7-5c0 0 2.7.4 2.7.4c-.4 1.6-1.2 2.8-2.3 3.7c-1.2.9-2.7 1.3-4.5 1.3c-2.3 0-4.1-.7-5.4-2.1c-1.3-1.4-2-3.4-2-5.9c0-2.6.7-4.7 2-6.1c1.4-1.4 3.1-2.2 5.3-2.2c2 0 3.7.7 5.1 2.2c1.3 1.4 1.9 3.4 1.9 5.9c0 .2 0 .4 0 .7c0 0-11.6 0-11.6 0c.1 1.7.6 3.1 1.5 4c.8.9 1.9 1.3 3.2 1.3c1 0 1.8-.2 2.5-.7c.7-.5 1.2-1.4 1.6-2.5zm-8.6-4.2c0 0 8.7 0 8.7 0c-.2-1.3-.5-2.3-1-3c-.9-1-2-1.5-3.3-1.5c-1.2 0-2.2.4-3.1 1.2c-.8.8-1.2 1.9-1.3 3.3zm18.7 9.2l0-15.5l2.4 0c0 0 .01 2.2 0 2.2c1.2-1.7 2.8-2.6 5-2.6c.9 0 1.8.2 2.5.5c.8.4 1.4.8 1.8 1.4c.4.5.7 1.2.8 1.9c.1.5.2 1.4.2 2.6c-.02-.02 0 9.5 0 9.5l-2.7 0c0 0 .04-9.42 0-9.4c0-1.1-.1-1.9-.3-2.4c-.2-.6-.5-1-1.1-1.3c-.5-.3-1.1-.5-1.8-.5c-1.1 0-2.1.4-2.9 1.1c-.8.7-1.2 2.1-1.2 4c-.02.04 0 8.5 0 8.5l-2.7 0zm25.1-2.2c.3 0 .7 0 1.2-.1c0 0 .3 2.3.3 2.3c-.7.2-1.4.2-1.9.2c-1 0-1.7-.1-2.3-.4c-.5-.3-.9-.7-1.1-1.2c-.2-.5-.3-1.5-.3-3.1c-.01-.01 0-9 0-9l-1.9 0l0-2l1.9 0l0-3.9l2.6-1.6l0 5.5l2.7 0l0 2l-2.7 0c0 0 .01 9.13 0 9.1c0 .8.1 1.3.1 1.5c.1.2.3.4.5.5c.2.1.5.2.9.2c0 0 0 0 0 0zm18.8 2.2c-.3-.5-.4-1.1-.5-1.9c-1 .9-1.9 1.4-2.8 1.8c-.9.3-1.9.5-2.9.5c-1.7 0-3.1-.4-4-1.3c-.9-.8-1.4-1.9-1.4-3.2c0-.7.2-1.4.6-2c.3-.7.8-1.2 1.3-1.6c.6-.3 1.2-.6 1.9-.8c.5-.2 1.3-.3 2.4-.4c2.1-.3 3.7-.6 4.7-.9c0-.4 0-.6 0-.7c0-1.1-.3-1.9-.8-2.3c-.6-.6-1.6-.9-3-.9c-1.2 0-2.1.2-2.7.7c-.6.4-1 1.2-1.3 2.3c0 0-2.6-.4-2.6-.4c.2-1.1.6-2 1.2-2.7c.5-.6 1.3-1.2 2.3-1.5c1-.4 2.2-.6 3.5-.6c1.3 0 2.4.2 3.3.5c.8.3 1.4.7 1.8 1.2c.4.5.6 1.1.8 1.8c.1.4.1 1.2.1 2.4c0 0 0 3.5 0 3.5c0 2.5.1 4 .2 4.7c.1.6.3 1.2.7 1.8c-.03.04-2.8 0-2.8 0c0 0 .02.04 0 0zm-.7-7.8c-1 .4-2.4.8-4.3 1c-1.1.2-1.9.4-2.3.6c-.5.2-.8.4-1.1.8c-.2.4-.3.8-.3 1.3c0 .7.2 1.3.8 1.7c.5.5 1.3.7 2.3.7c1 0 1.9-.2 2.7-.6c.8-.5 1.4-1.1 1.7-1.9c.3-.6.5-1.4.5-2.6c0 0 0-1 0-1zm10.7 7.8l0-21.4l2.6 0l0 21.4l-2.6 0zm23.4-6.9c0 0 2.7-.2 2.7-.2c.1 1.1.4 2 .9 2.7c.5.6 1.2 1.2 2.1 1.6c1 .4 2.1.7 3.3.7c1.1 0 2.1-.2 2.9-.5c.8-.3 1.5-.8 1.9-1.4c.4-.5.6-1.1.6-1.8c0-.7-.2-1.3-.6-1.8c-.4-.5-1-.9-1.9-1.2c-.6-.2-1.9-.6-3.9-1.1c-1.9-.4-3.3-.9-4.1-1.3c-1-.5-1.8-1.2-2.3-2c-.5-.8-.8-1.7-.8-2.7c0-1.1.3-2.1 1-3c.6-1 1.5-1.7 2.7-2.2c1.1-.5 2.5-.7 3.9-.7c1.6 0 3 .3 4.2.8c1.2.5 2.2 1.2 2.8 2.2c.7 1 1 2.2 1.1 3.4c0 0-2.8.2-2.8.2c-.1-1.3-.6-2.4-1.4-3.1c-.9-.6-2.1-1-3.8-1c-1.7 0-3 .3-3.7.9c-.8.7-1.2 1.4-1.2 2.3c0 .8.3 1.4.8 1.9c.6.5 2 1 4.3 1.6c2.3.5 3.9.9 4.8 1.3c1.2.6 2.1 1.3 2.7 2.2c.6.9.9 1.9.9 3.1c0 1.1-.3 2.2-1 3.2c-.6 1-1.6 1.8-2.8 2.4c-1.2.5-2.6.8-4.1.8c-2 0-3.6-.3-4.9-.8c-1.3-.6-2.4-1.5-3.1-2.6c-.7-1.1-1.1-2.4-1.2-3.9zm34.9 6.9c0 0-.02-2.24 0-2.2c-1.2 1.7-2.9 2.6-5 2.6c-.9 0-1.7-.2-2.5-.5c-.8-.4-1.4-.8-1.8-1.4c-.4-.5-.7-1.1-.8-1.9c-.1-.5-.2-1.4-.2-2.5c.03.02 0-9.6 0-9.6l2.7 0c0 0-.03 8.61 0 8.6c0 1.4 0 2.3.1 2.8c.2.7.5 1.2 1.1 1.6c.5.4 1.2.6 2 .6c.8 0 1.5-.2 2.2-.6c.7-.4 1.2-.9 1.5-1.6c.3-.7.4-1.8.4-3.1c0 .02 0-8.3 0-8.3l2.6 0l0 15.5l-2.3 0zm9.4-4.6c0 0 2.6-.4 2.6-.4c.2 1 .6 1.8 1.2 2.4c.7.5 1.7.8 2.9.8c1.2 0 2.1-.2 2.6-.7c.6-.5.9-1.1.9-1.8c0-.5-.2-1-.7-1.4c-.4-.2-1.3-.5-2.7-.9c-2-.4-3.3-.9-4.1-1.2c-.7-.4-1.3-.9-1.7-1.5c-.3-.6-.5-1.3-.5-2.1c0-.7.1-1.3.4-1.9c.4-.6.8-1.1 1.3-1.5c.4-.3 1-.5 1.7-.8c.7-.2 1.5-.3 2.3-.3c1.2 0 2.3.2 3.2.6c.9.3 1.6.8 2 1.4c.5.6.8 1.4 1 2.4c0 0-2.6.3-2.6.3c-.1-.8-.5-1.4-1-1.8c-.6-.5-1.4-.7-2.4-.7c-1.2 0-2.1.2-2.6.6c-.5.4-.8.9-.8 1.4c0 .3.1.7.3.9c.2.3.6.5 1 .7c.3.1 1.1.4 2.4.7c1.8.5 3.1.9 3.9 1.2c.7.3 1.3.8 1.7 1.4c.4.6.6 1.4.6 2.3c0 .8-.2 1.7-.7 2.5c-.5.7-1.3 1.3-2.2 1.8c-1 .4-2.1.6-3.3.6c-2.1 0-3.6-.4-4.7-1.3c-1-.8-1.7-2.1-2-3.7zm24.6 2.4c.3 0 .7 0 1.2-.1c0 0 .3 2.3.3 2.3c-.7.2-1.4.2-2 .2c-.9 0-1.7-.1-2.2-.4c-.5-.3-.9-.7-1.1-1.2c-.2-.5-.3-1.5-.3-3.1c-.02-.01 0-9 0-9l-2 0l0-2l2 0l0-3.9l2.6-1.6l0 5.5l2.7 0l0 2l-2.7 0c0 0 0 9.13 0 9.1c0 .8 0 1.3.1 1.5c.1.2.3.4.5.5c.2.1.5.2.9.2c0 0 0 0 0 0zm18.8 2.2c-.3-.5-.4-1.1-.5-1.9c-1 .9-1.9 1.4-2.8 1.8c-.9.3-1.9.5-2.9.5c-1.8 0-3.1-.4-4-1.3c-.9-.8-1.4-1.9-1.4-3.2c0-.7.2-1.4.6-2c.3-.7.8-1.2 1.3-1.6c.6-.3 1.2-.6 1.9-.8c.5-.2 1.3-.3 2.4-.4c2.1-.3 3.7-.6 4.7-.9c0-.4 0-.6 0-.7c0-1.1-.3-1.9-.8-2.3c-.6-.6-1.6-.9-3-.9c-1.2 0-2.1.2-2.7.7c-.6.4-1 1.2-1.3 2.3c0 0-2.6-.4-2.6-.4c.2-1.1.6-2 1.1-2.7c.6-.6 1.4-1.2 2.4-1.5c1-.4 2.2-.6 3.5-.6c1.3 0 2.4.2 3.2.5c.9.3 1.5.7 1.9 1.2c.4.5.6 1.1.8 1.8c.1.4.1 1.2.1 2.4c0 0 0 3.5 0 3.5c0 2.5.1 4 .2 4.7c.1.6.3 1.2.7 1.8c-.04.04-2.8 0-2.8 0c0 0 .01.04 0 0zm-.7-7.8c-1 .4-2.4.8-4.3 1c-1.1.2-1.9.4-2.3.6c-.5.2-.8.4-1.1.8c-.2.4-.4.8-.4 1.3c0 .7.3 1.3.8 1.7c.6.5 1.4.7 2.4.7c1 0 1.9-.2 2.7-.6c.8-.5 1.4-1.1 1.7-1.9c.3-.6.5-1.4.5-2.6c0 0 0-1 0-1zm10.7-10.6l0-3l2.6 0l0 3l-2.6 0zm0 18.4l0-15.5l2.6 0l0 15.5l-2.6 0zm10.7 0l0-15.5l2.3 0c0 0 .05 2.2 0 2.2c1.2-1.7 2.8-2.6 5-2.6c.9 0 1.8.2 2.6.5c.8.4 1.4.8 1.7 1.4c.4.5.7 1.2.9 1.9c.1.5.1 1.4.1 2.6c.02-.02 0 9.5 0 9.5l-2.6 0c0 0-.02-9.42 0-9.4c0-1.1-.1-1.9-.3-2.4c-.2-.6-.6-1-1.1-1.3c-.5-.3-1.2-.5-1.9-.5c-1.1 0-2 .4-2.9 1.1c-.8.7-1.2 2.1-1.2 4c.01.04 0 8.5 0 8.5l-2.6 0zm31.3 0c-.2-.5-.4-1.1-.5-1.9c-1 .9-1.9 1.4-2.8 1.8c-.9.3-1.9.5-2.9.5c-1.7 0-3-.4-3.9-1.3c-1-.8-1.4-1.9-1.4-3.2c0-.7.1-1.4.5-2c.3-.7.8-1.2 1.4-1.6c.5-.3 1.2-.6 1.9-.8c.5-.2 1.3-.3 2.3-.4c2.1-.3 3.7-.6 4.7-.9c0-.4 0-.6 0-.7c0-1.1-.2-1.9-.7-2.3c-.7-.6-1.7-.9-3-.9c-1.3 0-2.2.2-2.8.7c-.6.4-1 1.2-1.3 2.3c0 0-2.6-.4-2.6-.4c.3-1.1.6-2 1.2-2.7c.5-.6 1.3-1.2 2.3-1.5c1-.4 2.2-.6 3.5-.6c1.4 0 2.5.2 3.3.5c.8.3 1.4.7 1.8 1.2c.4.5.7 1.1.8 1.8c.1.4.2 1.2.2 2.4c0 0 0 3.5 0 3.5c0 2.5 0 4 .1 4.7c.1.6.4 1.2.7 1.8c0 .04-2.8 0-2.8 0c0 0 .05.04 0 0zm-.7-7.8c-1 .4-2.4.8-4.3 1c-1.1.2-1.9.4-2.3.6c-.5.2-.8.4-1 .8c-.3.4-.4.8-.4 1.3c0 .7.3 1.3.8 1.7c.5.5 1.3.7 2.3.7c1 0 1.9-.2 2.7-.6c.8-.5 1.4-1.1 1.8-1.9c.3-.6.4-1.4.4-2.6c0 0 0-1 0-1zm13.2 7.8l-2.4 0l0-21.4l2.6 0c0 0-.01 7.63 0 7.6c1.1-1.4 2.5-2.1 4.3-2.1c.9 0 1.8.2 2.7.6c.8.4 1.5.9 2.1 1.6c.5.7 1 1.6 1.3 2.6c.3 1 .4 2 .4 3.1c0 2.7-.6 4.8-1.9 6.2c-1.4 1.5-2.9 2.2-4.8 2.2c-1.8 0-3.3-.8-4.3-2.3c0-.01 0 1.9 0 1.9zm0-7.9c0 1.9.2 3.3.7 4.1c.9 1.3 2 2 3.4 2c1.2 0 2.1-.5 3-1.5c.8-1 1.2-2.5 1.2-4.5c0-2-.4-3.5-1.2-4.4c-.8-1-1.7-1.5-2.9-1.5c-1.1 0-2.1.5-3 1.5c-.8 1-1.2 2.5-1.2 4.3zm18.3-10.5l0-3l2.7 0l0 3l-2.7 0zm0 18.4l0-15.5l2.7 0l0 15.5l-2.7 0zm10.7 0l0-21.4l2.6 0l0 21.4l-2.6 0zm10.7-18.4l0-3l2.6 0l0 3l-2.6 0zm0 18.4l0-15.5l2.6 0l0 15.5l-2.6 0zm15.2-2.2c.3 0 .7 0 1.2-.1c0 0 .4 2.3.4 2.3c-.8.2-1.4.2-2 .2c-1 0-1.7-.1-2.2-.4c-.6-.3-.9-.7-1.2-1.2c-.2-.5-.3-1.5-.3-3.1c.02-.01 0-9 0-9l-1.9 0l0-2l1.9 0l0-3.9l2.6-1.6l0 5.5l2.7 0l0 2l-2.7 0c0 0 .04 9.13 0 9.1c0 .8.1 1.3.2 1.5c.1.2.2.4.4.5c.2.1.5.2.9.2c0 0 0 0 0 0zm10.1 8.6c-.5 0-1-.2-1.7-.4c0 0-.3-2.4-.3-2.4c.6.1 1.1.2 1.5.2c.6 0 1.1-.1 1.5-.3c.3-.2.6-.5.8-.8c.2-.3.4-.9.8-2c.1-.1.1-.3.3-.6c-.04-.03-5.9-15.6-5.9-15.6l2.8 0c0 0 3.23 8.99 3.2 9c.5 1.1.8 2.3 1.2 3.6c.3-1.2.6-2.4 1-3.5c.04-.05 3.4-9.1 3.4-9.1l2.6 0c0 0-5.91 15.8-5.9 15.8c-.6 1.7-1.1 2.9-1.5 3.5c-.5.9-1 1.5-1.6 1.9c-.6.5-1.3.7-2.2.7c0 0 0 0 0 0zm31.2-6.4l0-21.4c0 0 9.48-.03 9.5 0c1.9 0 3.4.2 4.3.5c1 .4 1.8 1.1 2.4 2.1c.6 1 .9 2 .9 3.2c0 1.5-.5 2.8-1.4 3.9c-1 1-2.6 1.7-4.6 2c.7.3 1.3.7 1.7 1c.8.8 1.6 1.8 2.4 2.9c-.05 0 3.7 5.8 3.7 5.8l-3.6 0c0 0-2.83-4.43-2.8-4.4c-.9-1.3-1.5-2.3-2.1-3c-.5-.7-1-1.1-1.4-1.4c-.4-.3-.9-.5-1.3-.6c-.3-.1-.9-.1-1.6-.1c0 0-3.3 0-3.3 0l0 9.5l-2.8 0zm2.8-12c0 0 6.11.04 6.1 0c1.3 0 2.3-.1 3.1-.4c.7-.2 1.2-.7 1.6-1.2c.4-.6.6-1.3.6-2c0-1-.4-1.8-1.1-2.5c-.7-.6-1.9-1-3.5-1c0 .04-6.8 0-6.8 0l0 7.1zm32.8 7c0 0 2.7.4 2.7.4c-.4 1.6-1.2 2.8-2.4 3.7c-1.2.9-2.6 1.3-4.5 1.3c-2.2 0-4-.7-5.4-2.1c-1.3-1.4-2-3.4-2-5.9c0-2.6.7-4.7 2.1-6.1c1.3-1.4 3.1-2.2 5.2-2.2c2.1 0 3.8.7 5.1 2.2c1.3 1.4 2 3.4 2 5.9c0 .2 0 .4 0 .7c0 0-11.6 0-11.6 0c.1 1.7.5 3.1 1.4 4c.9.9 2 1.3 3.3 1.3c.9 0 1.8-.2 2.4-.7c.7-.5 1.3-1.4 1.7-2.5zm-8.7-4.2c0 0 8.7 0 8.7 0c-.1-1.3-.5-2.3-1-3c-.8-1-1.9-1.5-3.3-1.5c-1.2 0-2.2.4-3 1.2c-.9.8-1.3 1.9-1.4 3.3zm18.8 15.2l0-21.5l2.4 0c0 0-.02 2.01 0 2c.5-.8 1.2-1.4 1.9-1.8c.7-.4 1.6-.6 2.6-.6c1.3 0 2.5.4 3.5 1.1c1 .6 1.8 1.6 2.3 2.9c.5 1.2.8 2.6.8 4c0 1.6-.3 3.1-.9 4.3c-.5 1.3-1.4 2.3-2.5 3c-1.1.7-2.2 1-3.4 1c-.9 0-1.7-.2-2.4-.6c-.7-.3-1.2-.8-1.7-1.4c.01.03 0 7.6 0 7.6l-2.6 0zm2.4-13.6c0 2 .4 3.4 1.2 4.4c.8.9 1.8 1.4 2.9 1.4c1.2 0 2.2-.5 3-1.5c.9-1 1.3-2.5 1.3-4.6c0-2-.4-3.4-1.2-4.4c-.9-1-1.8-1.5-3-1.5c-1.1 0-2.1.5-2.9 1.6c-.9 1-1.3 2.5-1.3 4.6zm17.5-.1c0-2.9.8-5.1 2.4-6.4c1.3-1.2 3-1.8 4.9-1.8c2.1 0 3.9.7 5.2 2.1c1.4 1.4 2.1 3.4 2.1 5.8c0 2-.3 3.6-.9 4.8c-.6 1.1-1.5 2-2.7 2.6c-1.1.7-2.4 1-3.7 1c-2.2 0-4-.7-5.3-2.1c-1.3-1.4-2-3.4-2-6zm2.7 0c0 2 .4 3.4 1.3 4.4c.9 1 2 1.5 3.3 1.5c1.3 0 2.4-.5 3.2-1.5c.9-1 1.4-2.5 1.4-4.5c0-1.9-.5-3.4-1.4-4.4c-.8-1-1.9-1.5-3.2-1.5c-1.3 0-2.4.5-3.3 1.5c-.9 1-1.3 2.5-1.3 4.5zm19.1 7.7l0-15.5l2.4 0c0 0-.03 2.34 0 2.3c.6-1.1 1.1-1.8 1.6-2.1c.6-.4 1.1-.6 1.7-.6c.9 0 1.8.3 2.7.9c0 0-.9 2.4-.9 2.4c-.6-.4-1.2-.5-1.9-.5c-.6 0-1.1.1-1.5.5c-.5.3-.8.8-1 1.4c-.3 1-.5 2-.5 3.1c.03 0 0 8.1 0 8.1l-2.6 0zm19.9-2.2c.3 0 .7 0 1.2-.1c0 0 .3 2.3.3 2.3c-.7.2-1.4.2-1.9.2c-1 0-1.7-.1-2.3-.4c-.5-.3-.9-.7-1.1-1.2c-.2-.5-.3-1.5-.3-3.1c-.01-.01 0-9 0-9l-1.9 0l0-2l1.9 0l0-3.9l2.6-1.6l0 5.5l2.7 0l0 2l-2.7 0c0 0 .01 9.13 0 9.1c0 .8.1 1.3.2 1.5c0 .2.2.4.4.5c.2.1.5.2.9.2c0 0 0 0 0 0z" stroke="none" fill="#ffffff"/></g></svg>