<?xml version="1.0" standalone="no"?>
<!DOCTYPE svg PUBLIC "-//W3C//DTD SVG 1.1//EN" "http://www.w3.org/Graphics/SVG/1.1/DTD/svg11.dtd">
<svg xmlns="http://www.w3.org/2000/svg" version="1.1" width="172px" height="38.1px" viewBox="0 -1 172 38.1" style="top:-1px">
  <desc>Ryan Maierson Global Co-Chair, ESG Task Force</desc>
  <defs/>
  <g id="Polygon58080">
    <path d="M 4.1 16.5 L 4.1 15.6 L 7.2 15.6 C 7.2 15.6 7.15 18.28 7.2 18.3 C 6.7 18.7 6.2 18.9 5.7 19.1 C 5.2 19.3 4.7 19.4 4.2 19.4 C 3.5 19.4 2.8 19.3 2.3 19 C 1.7 18.6 1.3 18.2 1 17.6 C 0.7 17.1 0.5 16.4 0.5 15.7 C 0.5 15 0.7 14.4 1 13.8 C 1.3 13.2 1.7 12.7 2.2 12.4 C 2.8 12.1 3.4 12 4.1 12 C 4.6 12 5.1 12.1 5.5 12.3 C 5.9 12.4 6.3 12.7 6.5 13 C 6.7 13.3 6.9 13.6 7 14.1 C 7 14.1 6.2 14.4 6.2 14.4 C 6.1 14 6 13.7 5.8 13.5 C 5.6 13.3 5.4 13.1 5.1 13 C 4.8 12.9 4.5 12.8 4.1 12.8 C 3.7 12.8 3.3 12.9 3 13 C 2.7 13.1 2.4 13.3 2.2 13.5 C 2 13.7 1.9 14 1.8 14.2 C 1.6 14.7 1.5 15.2 1.5 15.7 C 1.5 16.3 1.6 16.8 1.8 17.3 C 2.1 17.7 2.4 18 2.8 18.2 C 3.2 18.4 3.7 18.5 4.1 18.5 C 4.5 18.5 4.9 18.5 5.3 18.3 C 5.7 18.2 6 18 6.2 17.8 C 6.23 17.81 6.2 16.5 6.2 16.5 L 4.1 16.5 Z M 8.4 19.3 L 8.4 12.1 L 9.3 12.1 L 9.3 19.3 L 8.4 19.3 Z M 10.3 16.7 C 10.3 15.7 10.6 15 11.1 14.6 C 11.6 14.2 12.1 14 12.8 14 C 13.5 14 14.1 14.2 14.5 14.7 C 15 15.1 15.2 15.8 15.2 16.6 C 15.2 17.3 15.1 17.8 14.9 18.2 C 14.7 18.6 14.4 18.9 14 19.1 C 13.6 19.3 13.2 19.4 12.8 19.4 C 12 19.4 11.5 19.2 11 18.7 C 10.6 18.2 10.3 17.6 10.3 16.7 Z M 11.2 16.7 C 11.2 17.4 11.4 17.8 11.7 18.2 C 12 18.5 12.3 18.7 12.8 18.7 C 13.2 18.7 13.6 18.5 13.9 18.2 C 14.1 17.8 14.3 17.3 14.3 16.7 C 14.3 16 14.1 15.5 13.9 15.2 C 13.6 14.9 13.2 14.7 12.8 14.7 C 12.3 14.7 12 14.9 11.7 15.2 C 11.4 15.5 11.2 16 11.2 16.7 Z M 17 19.3 L 16.2 19.3 L 16.2 12.1 L 17.1 12.1 C 17.1 12.1 17.09 14.68 17.1 14.7 C 17.5 14.2 17.9 14 18.5 14 C 18.8 14 19.1 14 19.4 14.2 C 19.7 14.3 19.9 14.5 20.1 14.7 C 20.3 14.9 20.5 15.2 20.6 15.6 C 20.7 15.9 20.7 16.2 20.7 16.6 C 20.7 17.5 20.5 18.2 20.1 18.7 C 19.6 19.2 19.1 19.4 18.5 19.4 C 17.9 19.4 17.4 19.1 17 18.6 C 17.03 18.63 17 19.3 17 19.3 Z M 17 16.6 C 17 17.3 17.1 17.7 17.3 18 C 17.6 18.4 17.9 18.7 18.4 18.7 C 18.8 18.7 19.1 18.5 19.4 18.2 C 19.7 17.8 19.8 17.3 19.8 16.7 C 19.8 16 19.7 15.5 19.4 15.2 C 19.1 14.9 18.8 14.7 18.4 14.7 C 18.1 14.7 17.7 14.9 17.4 15.2 C 17.2 15.5 17 16 17 16.6 Z M 25.3 19.3 C 25.3 19.1 25.2 18.9 25.2 18.6 C 24.8 18.9 24.5 19.1 24.2 19.2 C 23.9 19.3 23.6 19.4 23.3 19.4 C 22.7 19.4 22.2 19.3 21.9 19 C 21.6 18.7 21.5 18.3 21.5 17.9 C 21.5 17.7 21.5 17.4 21.7 17.2 C 21.8 17 21.9 16.8 22.1 16.7 C 22.3 16.6 22.5 16.5 22.7 16.4 C 22.9 16.4 23.2 16.3 23.5 16.3 C 24.2 16.2 24.8 16.1 25.1 16 C 25.1 15.9 25.1 15.8 25.1 15.8 C 25.1 15.4 25 15.1 24.8 15 C 24.6 14.8 24.3 14.7 23.8 14.7 C 23.4 14.7 23.1 14.8 22.9 14.9 C 22.7 15.1 22.6 15.3 22.5 15.7 C 22.5 15.7 21.6 15.6 21.6 15.6 C 21.7 15.2 21.8 14.9 22 14.7 C 22.2 14.5 22.5 14.3 22.8 14.2 C 23.1 14 23.5 14 24 14 C 24.4 14 24.8 14 25.1 14.1 C 25.3 14.2 25.5 14.4 25.7 14.5 C 25.8 14.7 25.9 14.9 25.9 15.1 C 26 15.3 26 15.5 26 15.9 C 26 15.9 26 17.1 26 17.1 C 26 17.9 26 18.4 26 18.7 C 26.1 18.9 26.1 19.1 26.3 19.3 C 26.26 19.28 25.3 19.3 25.3 19.3 C 25.3 19.3 25.34 19.28 25.3 19.3 Z M 25.1 16.7 C 24.8 16.8 24.3 16.9 23.7 17 C 23.3 17.1 23 17.1 22.9 17.2 C 22.7 17.3 22.6 17.3 22.5 17.5 C 22.5 17.6 22.4 17.7 22.4 17.9 C 22.4 18.1 22.5 18.3 22.7 18.5 C 22.9 18.6 23.1 18.7 23.5 18.7 C 23.8 18.7 24.1 18.6 24.4 18.5 C 24.6 18.3 24.8 18.1 25 17.9 C 25 17.7 25.1 17.4 25.1 17 C 25.1 17 25.1 16.7 25.1 16.7 Z M 27.3 19.3 L 27.3 12.1 L 28.2 12.1 L 28.2 19.3 L 27.3 19.3 Z M 37.6 16.8 C 37.6 16.8 38.5 17 38.5 17 C 38.3 17.8 38 18.4 37.4 18.8 C 36.9 19.2 36.3 19.4 35.5 19.4 C 34.8 19.4 34.1 19.2 33.7 18.9 C 33.2 18.6 32.8 18.2 32.6 17.6 C 32.3 17 32.2 16.3 32.2 15.6 C 32.2 14.9 32.3 14.3 32.6 13.7 C 32.9 13.1 33.3 12.7 33.8 12.4 C 34.4 12.1 34.9 12 35.6 12 C 36.3 12 36.9 12.2 37.4 12.5 C 37.9 12.9 38.2 13.4 38.4 14.1 C 38.4 14.1 37.5 14.3 37.5 14.3 C 37.3 13.8 37 13.4 36.7 13.2 C 36.4 12.9 36 12.8 35.5 12.8 C 35 12.8 34.5 12.9 34.2 13.2 C 33.8 13.5 33.5 13.8 33.4 14.3 C 33.2 14.7 33.2 15.2 33.2 15.6 C 33.2 16.3 33.2 16.8 33.4 17.2 C 33.6 17.7 33.9 18 34.3 18.3 C 34.6 18.5 35 18.6 35.5 18.6 C 36 18.6 36.4 18.4 36.8 18.1 C 37.2 17.8 37.4 17.4 37.6 16.8 Z M 39.2 16.7 C 39.2 15.7 39.5 15 40 14.6 C 40.5 14.2 41 14 41.7 14 C 42.4 14 43 14.2 43.4 14.7 C 43.9 15.1 44.1 15.8 44.1 16.6 C 44.1 17.3 44 17.8 43.8 18.2 C 43.6 18.6 43.3 18.9 42.9 19.1 C 42.5 19.3 42.1 19.4 41.7 19.4 C 40.9 19.4 40.4 19.2 39.9 18.7 C 39.5 18.2 39.2 17.6 39.2 16.7 Z M 40.1 16.7 C 40.1 17.4 40.3 17.8 40.6 18.2 C 40.9 18.5 41.2 18.7 41.7 18.7 C 42.1 18.7 42.5 18.5 42.8 18.2 C 43 17.8 43.2 17.3 43.2 16.7 C 43.2 16 43 15.5 42.8 15.2 C 42.5 14.9 42.1 14.7 41.7 14.7 C 41.2 14.7 40.9 14.9 40.6 15.2 C 40.3 15.5 40.1 16 40.1 16.7 Z M 44.8 17.1 L 44.8 16.2 L 47.5 16.2 L 47.5 17.1 L 44.8 17.1 Z M 53.7 16.8 C 53.7 16.8 54.6 17 54.6 17 C 54.4 17.8 54.1 18.4 53.6 18.8 C 53 19.2 52.4 19.4 51.7 19.4 C 50.9 19.4 50.3 19.2 49.8 18.9 C 49.3 18.6 48.9 18.2 48.7 17.6 C 48.4 17 48.3 16.3 48.3 15.6 C 48.3 14.9 48.4 14.3 48.7 13.7 C 49 13.1 49.4 12.7 49.9 12.4 C 50.5 12.1 51 12 51.7 12 C 52.4 12 53 12.2 53.5 12.5 C 54 12.9 54.3 13.4 54.5 14.1 C 54.5 14.1 53.6 14.3 53.6 14.3 C 53.4 13.8 53.2 13.4 52.8 13.2 C 52.5 12.9 52.1 12.8 51.7 12.8 C 51.1 12.8 50.6 12.9 50.3 13.2 C 49.9 13.5 49.6 13.8 49.5 14.3 C 49.3 14.7 49.3 15.2 49.3 15.6 C 49.3 16.3 49.4 16.8 49.5 17.2 C 49.7 17.7 50 18 50.4 18.3 C 50.7 18.5 51.1 18.6 51.6 18.6 C 52.1 18.6 52.6 18.4 52.9 18.1 C 53.3 17.8 53.5 17.4 53.7 16.8 Z M 55.7 19.3 L 55.7 12.1 L 56.6 12.1 C 56.6 12.1 56.56 14.69 56.6 14.7 C 57 14.2 57.5 14 58.1 14 C 58.5 14 58.8 14.1 59.1 14.2 C 59.4 14.4 59.6 14.6 59.7 14.8 C 59.8 15.1 59.9 15.5 59.9 16 C 59.9 15.99 59.9 19.3 59.9 19.3 L 59 19.3 C 59 19.3 59.02 15.99 59 16 C 59 15.6 58.9 15.2 58.7 15 C 58.5 14.8 58.3 14.7 57.9 14.7 C 57.7 14.7 57.4 14.8 57.2 14.9 C 57 15.1 56.8 15.3 56.7 15.5 C 56.6 15.7 56.6 16 56.6 16.4 C 56.56 16.44 56.6 19.3 56.6 19.3 L 55.7 19.3 Z M 64.8 19.3 C 64.7 19.1 64.7 18.9 64.6 18.6 C 64.3 18.9 64 19.1 63.7 19.2 C 63.4 19.3 63.1 19.4 62.7 19.4 C 62.1 19.4 61.7 19.3 61.4 19 C 61.1 18.7 60.9 18.3 60.9 17.9 C 60.9 17.7 61 17.4 61.1 17.2 C 61.2 17 61.4 16.8 61.6 16.7 C 61.8 16.6 62 16.5 62.2 16.4 C 62.4 16.4 62.6 16.3 63 16.3 C 63.7 16.2 64.2 16.1 64.6 16 C 64.6 15.9 64.6 15.8 64.6 15.8 C 64.6 15.4 64.5 15.1 64.3 15 C 64.1 14.8 63.7 14.7 63.3 14.7 C 62.9 14.7 62.6 14.8 62.4 14.9 C 62.2 15.1 62 15.3 62 15.7 C 62 15.7 61.1 15.6 61.1 15.6 C 61.2 15.2 61.3 14.9 61.5 14.7 C 61.7 14.5 61.9 14.3 62.3 14.2 C 62.6 14 63 14 63.4 14 C 63.9 14 64.2 14 64.5 14.1 C 64.8 14.2 65 14.4 65.1 14.5 C 65.3 14.7 65.3 14.9 65.4 15.1 C 65.4 15.3 65.4 15.5 65.4 15.9 C 65.4 15.9 65.4 17.1 65.4 17.1 C 65.4 17.9 65.5 18.4 65.5 18.7 C 65.5 18.9 65.6 19.1 65.7 19.3 C 65.72 19.28 64.8 19.3 64.8 19.3 C 64.8 19.3 64.8 19.28 64.8 19.3 Z M 64.6 16.7 C 64.2 16.8 63.8 16.9 63.1 17 C 62.8 17.1 62.5 17.1 62.3 17.2 C 62.2 17.3 62.1 17.3 62 17.5 C 61.9 17.6 61.9 17.7 61.9 17.9 C 61.9 18.1 62 18.3 62.1 18.5 C 62.3 18.6 62.6 18.7 62.9 18.7 C 63.3 18.7 63.6 18.6 63.8 18.5 C 64.1 18.3 64.3 18.1 64.4 17.9 C 64.5 17.7 64.6 17.4 64.6 17 C 64.6 17 64.6 16.7 64.6 16.7 Z M 66.8 13.1 L 66.8 12.1 L 67.7 12.1 L 67.7 13.1 L 66.8 13.1 Z M 66.8 19.3 L 66.8 14.1 L 67.7 14.1 L 67.7 19.3 L 66.8 19.3 Z M 69 19.3 L 69 14.1 L 69.8 14.1 C 69.8 14.1 69.8 14.88 69.8 14.9 C 70 14.5 70.2 14.3 70.4 14.2 C 70.5 14 70.7 14 70.9 14 C 71.2 14 71.5 14.1 71.8 14.3 C 71.8 14.3 71.5 15.1 71.5 15.1 C 71.3 14.9 71.1 14.9 70.9 14.9 C 70.7 14.9 70.5 14.9 70.4 15.1 C 70.2 15.2 70.1 15.3 70 15.5 C 69.9 15.9 69.9 16.2 69.9 16.6 C 69.89 16.57 69.9 19.3 69.9 19.3 L 69 19.3 Z M 72 19.3 L 72 18.3 L 73 18.3 C 73 18.3 73.03 19.28 73 19.3 C 73 19.6 73 19.9 72.8 20.2 C 72.7 20.4 72.5 20.6 72.2 20.7 C 72.2 20.7 72 20.3 72 20.3 C 72.2 20.2 72.3 20.1 72.4 20 C 72.5 19.8 72.5 19.6 72.5 19.3 C 72.53 19.28 72 19.3 72 19.3 Z M 77.5 19.3 L 77.5 12.1 L 82.7 12.1 L 82.7 13 L 78.4 13 L 78.4 15.2 L 82.4 15.2 L 82.4 16 L 78.4 16 L 78.4 18.4 L 82.8 18.4 L 82.8 19.3 L 77.5 19.3 Z M 83.8 17 C 83.8 17 84.7 16.9 84.7 16.9 C 84.8 17.3 84.9 17.6 85 17.8 C 85.2 18 85.4 18.2 85.7 18.3 C 86.1 18.5 86.4 18.6 86.8 18.6 C 87.2 18.6 87.5 18.5 87.8 18.4 C 88.1 18.3 88.3 18.1 88.4 17.9 C 88.5 17.8 88.6 17.6 88.6 17.3 C 88.6 17.1 88.5 16.9 88.4 16.7 C 88.3 16.6 88.1 16.4 87.8 16.3 C 87.6 16.3 87.1 16.1 86.5 16 C 85.8 15.8 85.4 15.7 85.1 15.5 C 84.8 15.4 84.5 15.1 84.3 14.9 C 84.2 14.6 84.1 14.3 84.1 14 C 84.1 13.6 84.2 13.3 84.4 13 C 84.6 12.6 84.9 12.4 85.3 12.2 C 85.7 12.1 86.1 12 86.6 12 C 87.1 12 87.6 12.1 88 12.3 C 88.4 12.4 88.7 12.7 89 13 C 89.2 13.3 89.3 13.7 89.3 14.1 C 89.3 14.1 88.4 14.2 88.4 14.2 C 88.3 13.8 88.2 13.4 87.9 13.2 C 87.6 13 87.2 12.8 86.7 12.8 C 86.1 12.8 85.7 12.9 85.4 13.1 C 85.1 13.4 85 13.6 85 13.9 C 85 14.2 85.1 14.4 85.3 14.5 C 85.5 14.7 85.9 14.9 86.7 15.1 C 87.5 15.2 88 15.4 88.3 15.5 C 88.7 15.7 89 15.9 89.2 16.2 C 89.4 16.5 89.5 16.9 89.5 17.3 C 89.5 17.6 89.4 18 89.2 18.3 C 89 18.7 88.7 18.9 88.2 19.1 C 87.8 19.3 87.4 19.4 86.9 19.4 C 86.2 19.4 85.7 19.3 85.2 19.1 C 84.8 18.9 84.5 18.6 84.2 18.3 C 84 17.9 83.8 17.5 83.8 17 Z M 94.2 16.5 L 94.2 15.6 L 97.2 15.6 C 97.2 15.6 97.19 18.28 97.2 18.3 C 96.7 18.7 96.2 18.9 95.8 19.1 C 95.3 19.3 94.7 19.4 94.2 19.4 C 93.5 19.4 92.9 19.3 92.3 19 C 91.7 18.6 91.3 18.2 91 17.6 C 90.7 17.1 90.6 16.4 90.6 15.7 C 90.6 15 90.7 14.4 91 13.8 C 91.3 13.2 91.7 12.7 92.3 12.4 C 92.8 12.1 93.4 12 94.2 12 C 94.7 12 95.1 12.1 95.6 12.3 C 96 12.4 96.3 12.7 96.5 13 C 96.8 13.3 97 13.6 97.1 14.1 C 97.1 14.1 96.2 14.4 96.2 14.4 C 96.1 14 96 13.7 95.8 13.5 C 95.7 13.3 95.4 13.1 95.1 13 C 94.9 12.9 94.5 12.8 94.2 12.8 C 93.7 12.8 93.4 12.9 93 13 C 92.7 13.1 92.5 13.3 92.3 13.5 C 92.1 13.7 91.9 14 91.8 14.2 C 91.6 14.7 91.5 15.2 91.5 15.7 C 91.5 16.3 91.7 16.8 91.9 17.3 C 92.1 17.7 92.4 18 92.8 18.2 C 93.3 18.4 93.7 18.5 94.2 18.5 C 94.6 18.5 95 18.5 95.4 18.3 C 95.8 18.2 96.1 18 96.3 17.8 C 96.26 17.81 96.3 16.5 96.3 16.5 L 94.2 16.5 Z M 103 19.3 L 103 13 L 100.6 13 L 100.6 12.1 L 106.3 12.1 L 106.3 13 L 104 13 L 104 19.3 L 103 19.3 Z M 109.6 19.3 C 109.5 19.1 109.5 18.9 109.5 18.6 C 109.1 18.9 108.8 19.1 108.5 19.2 C 108.2 19.3 107.9 19.4 107.5 19.4 C 107 19.4 106.5 19.3 106.2 19 C 105.9 18.7 105.8 18.3 105.8 17.9 C 105.8 17.7 105.8 17.4 105.9 17.2 C 106.1 17 106.2 16.8 106.4 16.7 C 106.6 16.6 106.8 16.5 107 16.4 C 107.2 16.4 107.5 16.3 107.8 16.3 C 108.5 16.2 109 16.1 109.4 16 C 109.4 15.9 109.4 15.8 109.4 15.8 C 109.4 15.4 109.3 15.1 109.1 15 C 108.9 14.8 108.6 14.7 108.1 14.7 C 107.7 14.7 107.4 14.8 107.2 14.9 C 107 15.1 106.9 15.3 106.8 15.7 C 106.8 15.7 105.9 15.6 105.9 15.6 C 106 15.2 106.1 14.9 106.3 14.7 C 106.5 14.5 106.8 14.3 107.1 14.2 C 107.4 14 107.8 14 108.3 14 C 108.7 14 109.1 14 109.3 14.1 C 109.6 14.2 109.8 14.4 110 14.5 C 110.1 14.7 110.2 14.9 110.2 15.1 C 110.3 15.3 110.3 15.5 110.3 15.9 C 110.3 15.9 110.3 17.1 110.3 17.1 C 110.3 17.9 110.3 18.4 110.3 18.7 C 110.4 18.9 110.4 19.1 110.6 19.3 C 110.55 19.28 109.6 19.3 109.6 19.3 C 109.6 19.3 109.63 19.28 109.6 19.3 Z M 109.4 16.7 C 109.1 16.8 108.6 16.9 107.9 17 C 107.6 17.1 107.3 17.1 107.2 17.2 C 107 17.3 106.9 17.3 106.8 17.5 C 106.8 17.6 106.7 17.7 106.7 17.9 C 106.7 18.1 106.8 18.3 107 18.5 C 107.2 18.6 107.4 18.7 107.8 18.7 C 108.1 18.7 108.4 18.6 108.7 18.5 C 108.9 18.3 109.1 18.1 109.2 17.9 C 109.3 17.7 109.4 17.4 109.4 17 C 109.4 17 109.4 16.7 109.4 16.7 Z M 111.3 17.7 C 111.3 17.7 112.2 17.6 112.2 17.6 C 112.2 17.9 112.3 18.2 112.6 18.4 C 112.8 18.6 113.1 18.7 113.5 18.7 C 113.9 18.7 114.2 18.6 114.4 18.4 C 114.6 18.3 114.7 18.1 114.7 17.8 C 114.7 17.7 114.6 17.5 114.4 17.4 C 114.3 17.3 114 17.2 113.5 17.1 C 112.9 16.9 112.4 16.8 112.2 16.7 C 111.9 16.5 111.8 16.4 111.6 16.2 C 111.5 16 111.4 15.7 111.4 15.5 C 111.4 15.2 111.5 15 111.6 14.8 C 111.7 14.6 111.8 14.5 112 14.3 C 112.2 14.2 112.3 14.2 112.6 14.1 C 112.8 14 113.1 14 113.3 14 C 113.7 14 114.1 14 114.4 14.2 C 114.7 14.3 114.9 14.4 115.1 14.6 C 115.2 14.8 115.3 15.1 115.4 15.4 C 115.4 15.4 114.5 15.5 114.5 15.5 C 114.5 15.3 114.4 15.1 114.2 14.9 C 114 14.8 113.7 14.7 113.4 14.7 C 113 14.7 112.7 14.8 112.5 14.9 C 112.4 15 112.3 15.2 112.3 15.4 C 112.3 15.5 112.3 15.6 112.4 15.7 C 112.5 15.8 112.6 15.8 112.7 15.9 C 112.8 15.9 113.1 16 113.5 16.1 C 114.1 16.3 114.6 16.4 114.8 16.5 C 115 16.6 115.2 16.8 115.4 17 C 115.5 17.2 115.6 17.5 115.6 17.8 C 115.6 18 115.5 18.3 115.3 18.6 C 115.2 18.8 114.9 19 114.6 19.2 C 114.3 19.3 113.9 19.4 113.5 19.4 C 112.8 19.4 112.3 19.3 112 19 C 111.6 18.7 111.4 18.3 111.3 17.7 Z M 116.6 19.3 L 116.6 12.1 L 117.5 12.1 L 117.5 16.2 L 119.6 14.1 L 120.7 14.1 L 118.8 16 L 120.9 19.3 L 119.9 19.3 L 118.1 16.6 L 117.5 17.2 L 117.5 19.3 L 116.6 19.3 Z M 124.6 19.3 L 124.6 12.1 L 129.4 12.1 L 129.4 13 L 125.5 13 L 125.5 15.2 L 128.9 15.2 L 128.9 16 L 125.5 16 L 125.5 19.3 L 124.6 19.3 Z M 130.2 16.7 C 130.2 15.7 130.5 15 131 14.6 C 131.4 14.2 132 14 132.6 14 C 133.3 14 133.9 14.2 134.4 14.7 C 134.8 15.1 135.1 15.8 135.1 16.6 C 135.1 17.3 135 17.8 134.8 18.2 C 134.6 18.6 134.3 18.9 133.9 19.1 C 133.5 19.3 133.1 19.4 132.6 19.4 C 131.9 19.4 131.3 19.2 130.9 18.7 C 130.4 18.2 130.2 17.6 130.2 16.7 Z M 131.1 16.7 C 131.1 17.4 131.2 17.8 131.5 18.2 C 131.8 18.5 132.2 18.7 132.6 18.7 C 133.1 18.7 133.4 18.5 133.7 18.2 C 134 17.8 134.2 17.3 134.2 16.7 C 134.2 16 134 15.5 133.7 15.2 C 133.4 14.9 133.1 14.7 132.6 14.7 C 132.2 14.7 131.8 14.9 131.5 15.2 C 131.2 15.5 131.1 16 131.1 16.7 Z M 136.1 19.3 L 136.1 14.1 L 136.9 14.1 C 136.9 14.1 136.87 14.88 136.9 14.9 C 137.1 14.5 137.3 14.3 137.4 14.2 C 137.6 14 137.8 14 138 14 C 138.3 14 138.6 14.1 138.9 14.3 C 138.9 14.3 138.6 15.1 138.6 15.1 C 138.4 14.9 138.2 14.9 137.9 14.9 C 137.8 14.9 137.6 14.9 137.4 15.1 C 137.3 15.2 137.2 15.3 137.1 15.5 C 137 15.9 137 16.2 137 16.6 C 136.95 16.57 137 19.3 137 19.3 L 136.1 19.3 Z M 142.8 17.4 C 142.8 17.4 143.7 17.5 143.7 17.5 C 143.6 18.1 143.3 18.6 142.9 18.9 C 142.5 19.2 142.1 19.4 141.5 19.4 C 140.8 19.4 140.2 19.2 139.8 18.7 C 139.4 18.2 139.1 17.6 139.1 16.7 C 139.1 16.1 139.2 15.7 139.4 15.2 C 139.6 14.8 139.9 14.5 140.3 14.3 C 140.7 14.1 141.1 14 141.5 14 C 142.1 14 142.5 14.1 142.9 14.4 C 143.2 14.7 143.5 15.1 143.6 15.6 C 143.6 15.6 142.7 15.8 142.7 15.8 C 142.6 15.4 142.5 15.1 142.3 15 C 142.1 14.8 141.8 14.7 141.5 14.7 C 141.1 14.7 140.7 14.9 140.5 15.2 C 140.2 15.5 140 16 140 16.7 C 140 17.4 140.2 17.9 140.4 18.2 C 140.7 18.5 141.1 18.7 141.5 18.7 C 141.8 18.7 142.1 18.6 142.4 18.4 C 142.6 18.1 142.7 17.8 142.8 17.4 Z M 148 17.6 C 148 17.6 148.9 17.7 148.9 17.7 C 148.7 18.3 148.5 18.7 148.1 19 C 147.7 19.3 147.2 19.4 146.6 19.4 C 145.8 19.4 145.2 19.2 144.8 18.7 C 144.3 18.2 144.1 17.6 144.1 16.7 C 144.1 15.9 144.3 15.2 144.8 14.7 C 145.2 14.2 145.8 14 146.5 14 C 147.2 14 147.8 14.2 148.2 14.7 C 148.7 15.2 148.9 15.8 148.9 16.7 C 148.9 16.7 148.9 16.8 148.9 16.9 C 148.9 16.9 145 16.9 145 16.9 C 145.1 17.5 145.2 17.9 145.5 18.2 C 145.8 18.5 146.2 18.7 146.6 18.7 C 146.9 18.7 147.2 18.6 147.4 18.4 C 147.6 18.3 147.8 18 148 17.6 Z M 145.1 16.2 C 145.1 16.2 148 16.2 148 16.2 C 147.9 15.8 147.8 15.4 147.6 15.2 C 147.4 14.9 147 14.7 146.6 14.7 C 146.1 14.7 145.8 14.8 145.5 15.1 C 145.3 15.4 145.1 15.7 145.1 16.2 Z " stroke="none" fill="#ffffff"/>
  </g>
  <g id="Polygon58079">
    <path d="M 0.7 7.3 L 0.7 0.1 C 0.7 0.1 3.77 0.12 3.8 0.1 C 4.5 0.1 5.1 0.2 5.4 0.3 C 5.8 0.4 6.1 0.7 6.3 1 C 6.5 1.3 6.6 1.7 6.6 2.1 C 6.6 2.7 6.4 3.1 6.1 3.5 C 5.8 3.8 5.3 4 4.7 4.1 C 5 4.3 5.3 4.5 5.5 4.7 C 5.7 4.9 5.9 5.3 6.3 5.9 C 6.29 5.88 7.2 7.3 7.2 7.3 L 5.4 7.3 C 5.4 7.3 4.39 5.72 4.4 5.7 C 4 5.2 3.8 4.8 3.6 4.7 C 3.5 4.5 3.4 4.4 3.2 4.4 C 3 4.3 2.8 4.3 2.5 4.3 C 2.47 4.29 2.2 4.3 2.2 4.3 L 2.2 7.3 L 0.7 7.3 Z M 2.2 3.1 C 2.2 3.1 3.25 3.15 3.2 3.1 C 3.9 3.1 4.4 3.1 4.5 3.1 C 4.7 3 4.9 2.9 5 2.8 C 5 2.6 5.1 2.4 5.1 2.2 C 5.1 2 5 1.8 4.9 1.6 C 4.8 1.5 4.6 1.4 4.4 1.4 C 4.2 1.3 3.9 1.3 3.3 1.3 C 3.31 1.33 2.2 1.3 2.2 1.3 L 2.2 3.1 Z M 7.3 2.1 L 8.8 2.1 L 10 5.8 L 11.2 2.1 L 12.6 2.1 L 10.8 7.1 C 10.8 7.1 10.46 7.99 10.5 8 C 10.3 8.3 10.2 8.5 10.1 8.7 C 10 8.8 9.9 9 9.7 9.1 C 9.6 9.2 9.4 9.2 9.2 9.3 C 9 9.4 8.8 9.4 8.5 9.4 C 8.3 9.4 8 9.4 7.7 9.3 C 7.7 9.3 7.6 8.2 7.6 8.2 C 7.8 8.3 8 8.3 8.2 8.3 C 8.5 8.3 8.8 8.2 8.9 8 C 9.1 7.8 9.2 7.6 9.3 7.3 C 9.26 7.29 7.3 2.1 7.3 2.1 Z M 14.5 3.7 C 14.5 3.7 13.3 3.5 13.3 3.5 C 13.4 3 13.7 2.6 14 2.3 C 14.3 2.1 14.9 2 15.5 2 C 16.1 2 16.6 2.1 16.9 2.2 C 17.2 2.3 17.4 2.5 17.5 2.7 C 17.6 3 17.7 3.4 17.7 4 C 17.7 4 17.7 5.6 17.7 5.6 C 17.7 6 17.7 6.4 17.8 6.6 C 17.8 6.8 17.9 7 18 7.3 C 18 7.3 16.7 7.3 16.7 7.3 C 16.6 7.2 16.6 7.1 16.5 6.9 C 16.5 6.8 16.5 6.7 16.5 6.7 C 16.2 6.9 16 7.1 15.7 7.2 C 15.5 7.3 15.2 7.4 14.9 7.4 C 14.3 7.4 13.9 7.3 13.6 7 C 13.3 6.7 13.1 6.3 13.1 5.9 C 13.1 5.6 13.2 5.3 13.3 5.1 C 13.5 4.9 13.7 4.7 13.9 4.6 C 14.2 4.4 14.6 4.3 15 4.2 C 15.7 4.1 16.1 4 16.4 3.9 C 16.4 3.9 16.4 3.8 16.4 3.8 C 16.4 3.5 16.3 3.3 16.2 3.2 C 16 3.1 15.8 3 15.4 3 C 15.2 3 15 3.1 14.9 3.2 C 14.7 3.3 14.6 3.4 14.5 3.7 Z M 16.4 4.8 C 16.2 4.8 15.9 4.9 15.5 5 C 15.1 5.1 14.9 5.2 14.8 5.2 C 14.6 5.4 14.5 5.5 14.5 5.7 C 14.5 5.9 14.6 6.1 14.7 6.2 C 14.9 6.4 15.1 6.4 15.3 6.4 C 15.5 6.4 15.8 6.3 16 6.2 C 16.1 6.1 16.3 5.9 16.3 5.7 C 16.3 5.6 16.4 5.4 16.4 5.1 C 16.4 5.1 16.4 4.8 16.4 4.8 Z M 23.8 7.3 L 22.4 7.3 C 22.4 7.3 22.41 4.63 22.4 4.6 C 22.4 4.1 22.4 3.7 22.3 3.5 C 22.3 3.4 22.2 3.3 22 3.2 C 21.9 3.1 21.7 3 21.6 3 C 21.3 3 21.1 3.1 20.9 3.2 C 20.7 3.4 20.6 3.5 20.5 3.7 C 20.5 4 20.4 4.4 20.4 4.9 C 20.42 4.93 20.4 7.3 20.4 7.3 L 19.1 7.3 L 19.1 2.1 L 20.3 2.1 C 20.3 2.1 20.33 2.86 20.3 2.9 C 20.8 2.3 21.3 2 22 2 C 22.3 2 22.6 2 22.9 2.1 C 23.1 2.3 23.3 2.4 23.4 2.6 C 23.6 2.7 23.7 2.9 23.7 3.1 C 23.8 3.3 23.8 3.7 23.8 4.1 C 23.78 4.06 23.8 7.3 23.8 7.3 Z M 27.9 7.3 L 27.9 0.1 L 30.1 0.1 L 31.4 5 L 32.7 0.1 L 34.9 0.1 L 34.9 7.3 L 33.5 7.3 L 33.5 1.6 L 32.1 7.3 L 30.7 7.3 L 29.3 1.6 L 29.3 7.3 L 27.9 7.3 Z M 37.3 3.7 C 37.3 3.7 36.1 3.5 36.1 3.5 C 36.2 3 36.4 2.6 36.8 2.3 C 37.1 2.1 37.6 2 38.3 2 C 38.9 2 39.4 2.1 39.7 2.2 C 40 2.3 40.2 2.5 40.3 2.7 C 40.4 3 40.5 3.4 40.5 4 C 40.5 4 40.5 5.6 40.5 5.6 C 40.5 6 40.5 6.4 40.5 6.6 C 40.6 6.8 40.7 7 40.8 7.3 C 40.8 7.3 39.4 7.3 39.4 7.3 C 39.4 7.2 39.3 7.1 39.3 6.9 C 39.3 6.8 39.3 6.7 39.2 6.7 C 39 6.9 38.8 7.1 38.5 7.2 C 38.2 7.3 37.9 7.4 37.6 7.4 C 37.1 7.4 36.7 7.3 36.4 7 C 36.1 6.7 35.9 6.3 35.9 5.9 C 35.9 5.6 36 5.3 36.1 5.1 C 36.3 4.9 36.5 4.7 36.7 4.6 C 37 4.4 37.3 4.3 37.8 4.2 C 38.4 4.1 38.9 4 39.1 3.9 C 39.1 3.9 39.1 3.8 39.1 3.8 C 39.1 3.5 39.1 3.3 38.9 3.2 C 38.8 3.1 38.6 3 38.2 3 C 38 3 37.8 3.1 37.6 3.2 C 37.5 3.3 37.4 3.4 37.3 3.7 Z M 39.1 4.8 C 39 4.8 38.7 4.9 38.3 5 C 37.9 5.1 37.7 5.2 37.6 5.2 C 37.4 5.4 37.3 5.5 37.3 5.7 C 37.3 5.9 37.4 6.1 37.5 6.2 C 37.6 6.4 37.8 6.4 38.1 6.4 C 38.3 6.4 38.5 6.3 38.8 6.2 C 38.9 6.1 39 5.9 39.1 5.7 C 39.1 5.6 39.1 5.4 39.1 5.1 C 39.1 5.1 39.1 4.8 39.1 4.8 Z M 41.8 1.4 L 41.8 0.1 L 43.2 0.1 L 43.2 1.4 L 41.8 1.4 Z M 41.8 7.3 L 41.8 2.1 L 43.2 2.1 L 43.2 7.3 L 41.8 7.3 Z M 47.6 5.6 C 47.6 5.6 49 5.9 49 5.9 C 48.8 6.4 48.5 6.7 48.2 7 C 47.8 7.3 47.3 7.4 46.7 7.4 C 45.8 7.4 45.2 7.1 44.7 6.5 C 44.4 6 44.2 5.4 44.2 4.7 C 44.2 3.9 44.4 3.2 44.9 2.7 C 45.3 2.2 45.9 2 46.6 2 C 47.4 2 48 2.2 48.4 2.7 C 48.9 3.3 49.1 4 49.1 5.1 C 49.1 5.1 45.6 5.1 45.6 5.1 C 45.6 5.5 45.7 5.8 46 6 C 46.2 6.3 46.4 6.4 46.7 6.4 C 47 6.4 47.1 6.3 47.3 6.2 C 47.4 6.1 47.5 5.9 47.6 5.6 Z M 47.7 4.2 C 47.7 3.8 47.6 3.5 47.4 3.3 C 47.2 3.1 47 3 46.7 3 C 46.4 3 46.1 3.1 45.9 3.4 C 45.7 3.6 45.6 3.9 45.6 4.2 C 45.6 4.2 47.7 4.2 47.7 4.2 Z M 51.5 7.3 L 50.1 7.3 L 50.1 2.1 L 51.4 2.1 C 51.4 2.1 51.4 2.83 51.4 2.8 C 51.6 2.5 51.8 2.3 52 2.1 C 52.2 2 52.4 2 52.6 2 C 52.9 2 53.2 2.1 53.5 2.2 C 53.5 2.2 53.1 3.4 53.1 3.4 C 52.8 3.3 52.6 3.2 52.4 3.2 C 52.2 3.2 52.1 3.3 51.9 3.4 C 51.8 3.5 51.7 3.7 51.6 3.9 C 51.5 4.2 51.5 4.8 51.5 5.7 C 51.49 5.68 51.5 7.3 51.5 7.3 Z M 53.6 5.8 C 53.6 5.8 55 5.6 55 5.6 C 55 5.9 55.1 6.1 55.3 6.2 C 55.5 6.3 55.8 6.4 56.1 6.4 C 56.4 6.4 56.7 6.3 56.9 6.2 C 57 6.1 57.1 6 57.1 5.8 C 57.1 5.7 57 5.7 57 5.6 C 56.9 5.5 56.7 5.5 56.5 5.4 C 55.4 5.2 54.7 4.9 54.4 4.7 C 54 4.5 53.8 4.1 53.8 3.6 C 53.8 3.1 54 2.7 54.3 2.4 C 54.7 2.1 55.2 2 56 2 C 56.7 2 57.2 2.1 57.5 2.3 C 57.9 2.6 58.1 2.9 58.3 3.3 C 58.3 3.3 57 3.6 57 3.6 C 56.9 3.4 56.8 3.2 56.6 3.1 C 56.5 3 56.3 3 56 3 C 55.6 3 55.4 3 55.2 3.1 C 55.1 3.2 55.1 3.3 55.1 3.4 C 55.1 3.5 55.1 3.6 55.2 3.6 C 55.3 3.7 55.7 3.9 56.5 4 C 57.2 4.2 57.7 4.4 58 4.6 C 58.3 4.9 58.4 5.2 58.4 5.7 C 58.4 6.1 58.2 6.5 57.8 6.9 C 57.4 7.2 56.9 7.4 56.1 7.4 C 55.4 7.4 54.8 7.3 54.4 7 C 54 6.7 53.7 6.3 53.6 5.8 Z M 59.3 4.6 C 59.3 4.2 59.4 3.7 59.7 3.3 C 59.9 2.9 60.2 2.5 60.6 2.3 C 61 2.1 61.5 2 62 2 C 62.8 2 63.4 2.2 63.9 2.7 C 64.4 3.3 64.7 3.9 64.7 4.7 C 64.7 5.5 64.4 6.1 63.9 6.6 C 63.4 7.1 62.8 7.4 62 7.4 C 61.5 7.4 61.1 7.3 60.6 7.1 C 60.2 6.9 59.9 6.5 59.7 6.1 C 59.4 5.7 59.3 5.2 59.3 4.6 Z M 60.7 4.7 C 60.7 5.2 60.8 5.6 61.1 5.9 C 61.3 6.1 61.6 6.3 62 6.3 C 62.4 6.3 62.7 6.1 62.9 5.9 C 63.1 5.6 63.3 5.2 63.3 4.7 C 63.3 4.2 63.1 3.8 62.9 3.5 C 62.7 3.2 62.4 3.1 62 3.1 C 61.6 3.1 61.3 3.2 61.1 3.5 C 60.8 3.8 60.7 4.2 60.7 4.7 Z M 70.5 7.3 L 69.1 7.3 C 69.1 7.3 69.09 4.63 69.1 4.6 C 69.1 4.1 69.1 3.7 69 3.5 C 68.9 3.4 68.8 3.3 68.7 3.2 C 68.6 3.1 68.4 3 68.2 3 C 68 3 67.8 3.1 67.6 3.2 C 67.4 3.4 67.3 3.5 67.2 3.7 C 67.1 4 67.1 4.4 67.1 4.9 C 67.1 4.93 67.1 7.3 67.1 7.3 L 65.7 7.3 L 65.7 2.1 L 67 2.1 C 67 2.1 67.01 2.86 67 2.9 C 67.5 2.3 68 2 68.7 2 C 69 2 69.3 2 69.5 2.1 C 69.8 2.3 70 2.4 70.1 2.6 C 70.2 2.7 70.3 2.9 70.4 3.1 C 70.4 3.3 70.5 3.7 70.5 4.1 C 70.46 4.06 70.5 7.3 70.5 7.3 Z " stroke="none" fill="#ffffff"/>
  </g>
</svg>