<?xml version="1.0" standalone="no"?>
<!DOCTYPE svg PUBLIC "-//W3C//DTD SVG 1.1//EN" "http://www.w3.org/Graphics/SVG/1.1/DTD/svg11.dtd">
<svg xmlns="http://www.w3.org/2000/svg" version="1.1" width="66.4px" height="41.3px" viewBox="0 -7 66.4 41.3" style="top:-7px">
  <desc>8,889</desc>
  <defs/>
  <g id="Polygon62932">
    <path d="M 3.6 6.9 C 2.8 6.6 2.3 6.2 1.9 5.7 C 1.6 5.2 1.4 4.6 1.4 3.9 C 1.4 2.9 1.8 2 2.5 1.3 C 3.3 0.5 4.3 0.2 5.6 0.2 C 6.9 0.2 7.9 0.6 8.6 1.3 C 9.4 2 9.8 2.9 9.8 4 C 9.8 4.7 9.6 5.2 9.3 5.7 C 8.9 6.2 8.4 6.6 7.7 6.9 C 8.6 7.2 9.2 7.7 9.7 8.3 C 10.2 9 10.4 9.7 10.4 10.6 C 10.4 11.9 10 12.9 9.1 13.8 C 8.2 14.6 7 15 5.6 15 C 4.2 15 3 14.6 2.1 13.8 C 1.3 12.9 0.8 11.8 0.8 10.6 C 0.8 9.6 1.1 8.8 1.5 8.2 C 2 7.6 2.7 7.1 3.6 6.9 Z M 3.2 3.9 C 3.2 4.6 3.5 5.1 3.9 5.6 C 4.3 6 4.9 6.2 5.6 6.2 C 6.3 6.2 6.9 6 7.3 5.6 C 7.8 5.1 8 4.6 8 4 C 8 3.3 7.7 2.8 7.3 2.3 C 6.8 1.9 6.3 1.7 5.6 1.7 C 4.9 1.7 4.4 1.9 3.9 2.3 C 3.5 2.7 3.2 3.3 3.2 3.9 Z M 2.7 10.6 C 2.7 11.1 2.8 11.6 3 12.1 C 3.3 12.5 3.6 12.9 4.1 13.2 C 4.6 13.4 5.1 13.6 5.6 13.6 C 6.5 13.6 7.2 13.3 7.7 12.7 C 8.3 12.2 8.6 11.5 8.6 10.6 C 8.6 9.8 8.3 9.1 7.7 8.5 C 7.1 8 6.4 7.7 5.6 7.7 C 4.7 7.7 4 8 3.5 8.5 C 2.9 9.1 2.7 9.8 2.7 10.6 Z M 13.1 14.8 L 13.1 12.8 L 15.1 12.8 C 15.1 12.8 15.13 14.78 15.1 14.8 C 15.1 15.5 15 16.1 14.7 16.6 C 14.5 17.1 14.1 17.4 13.5 17.7 C 13.5 17.7 13 16.9 13 16.9 C 13.4 16.7 13.6 16.5 13.8 16.2 C 14 15.8 14.1 15.4 14.1 14.8 C 14.11 14.78 13.1 14.8 13.1 14.8 Z M 20.5 6.9 C 19.8 6.6 19.2 6.2 18.9 5.7 C 18.5 5.2 18.3 4.6 18.3 3.9 C 18.3 2.9 18.7 2 19.5 1.3 C 20.2 0.5 21.3 0.2 22.5 0.2 C 23.8 0.2 24.8 0.6 25.6 1.3 C 26.4 2 26.7 2.9 26.7 4 C 26.7 4.7 26.6 5.2 26.2 5.7 C 25.9 6.2 25.3 6.6 24.6 6.9 C 25.5 7.2 26.2 7.7 26.6 8.3 C 27.1 9 27.3 9.7 27.3 10.6 C 27.3 11.9 26.9 12.9 26 13.8 C 25.1 14.6 24 15 22.5 15 C 21.1 15 20 14.6 19.1 13.8 C 18.2 12.9 17.8 11.8 17.8 10.6 C 17.8 9.6 18 8.8 18.5 8.2 C 19 7.6 19.6 7.1 20.5 6.9 Z M 20.2 3.9 C 20.2 4.6 20.4 5.1 20.8 5.6 C 21.3 6 21.9 6.2 22.6 6.2 C 23.2 6.2 23.8 6 24.2 5.6 C 24.7 5.1 24.9 4.6 24.9 4 C 24.9 3.3 24.7 2.8 24.2 2.3 C 23.8 1.9 23.2 1.7 22.5 1.7 C 21.9 1.7 21.3 1.9 20.8 2.3 C 20.4 2.7 20.2 3.3 20.2 3.9 Z M 19.6 10.6 C 19.6 11.1 19.7 11.6 20 12.1 C 20.2 12.5 20.6 12.9 21 13.2 C 21.5 13.4 22 13.6 22.6 13.6 C 23.4 13.6 24.1 13.3 24.7 12.7 C 25.2 12.2 25.5 11.5 25.5 10.6 C 25.5 9.8 25.2 9.1 24.7 8.5 C 24.1 8 23.4 7.7 22.5 7.7 C 21.7 7.7 21 8 20.4 8.5 C 19.9 9.1 19.6 9.8 19.6 10.6 Z M 31.8 6.9 C 31.1 6.6 30.5 6.2 30.2 5.7 C 29.8 5.2 29.6 4.6 29.6 3.9 C 29.6 2.9 30 2 30.8 1.3 C 31.5 0.5 32.6 0.2 33.8 0.2 C 35.1 0.2 36.1 0.6 36.9 1.3 C 37.7 2 38 2.9 38 4 C 38 4.7 37.9 5.2 37.5 5.7 C 37.2 6.2 36.6 6.6 35.9 6.9 C 36.8 7.2 37.5 7.7 37.9 8.3 C 38.4 9 38.6 9.7 38.6 10.6 C 38.6 11.9 38.2 12.9 37.3 13.8 C 36.4 14.6 35.3 15 33.8 15 C 32.4 15 31.3 14.6 30.4 13.8 C 29.5 12.9 29.1 11.8 29.1 10.6 C 29.1 9.6 29.3 8.8 29.8 8.2 C 30.3 7.6 30.9 7.1 31.8 6.9 Z M 31.5 3.9 C 31.5 4.6 31.7 5.1 32.1 5.6 C 32.6 6 33.1 6.2 33.9 6.2 C 34.5 6.2 35.1 6 35.5 5.6 C 36 5.1 36.2 4.6 36.2 4 C 36.2 3.3 36 2.8 35.5 2.3 C 35.1 1.9 34.5 1.7 33.8 1.7 C 33.2 1.7 32.6 1.9 32.1 2.3 C 31.7 2.7 31.5 3.3 31.5 3.9 Z M 30.9 10.6 C 30.9 11.1 31 11.6 31.3 12.1 C 31.5 12.5 31.9 12.9 32.3 13.2 C 32.8 13.4 33.3 13.6 33.9 13.6 C 34.7 13.6 35.4 13.3 36 12.7 C 36.5 12.2 36.8 11.5 36.8 10.6 C 36.8 9.8 36.5 9.1 36 8.5 C 35.4 8 34.7 7.7 33.8 7.7 C 33 7.7 32.3 8 31.7 8.5 C 31.2 9.1 30.9 9.8 30.9 10.6 Z M 40.6 11.4 C 40.6 11.4 42.4 11.3 42.4 11.3 C 42.5 12.1 42.8 12.7 43.2 13 C 43.6 13.4 44.1 13.6 44.8 13.6 C 45.3 13.6 45.8 13.4 46.2 13.2 C 46.6 12.9 47 12.6 47.2 12.2 C 47.5 11.8 47.7 11.2 47.9 10.5 C 48.1 9.8 48.2 9 48.2 8.3 C 48.2 8.2 48.1 8.1 48.1 7.9 C 47.8 8.5 47.3 9 46.7 9.3 C 46.1 9.7 45.4 9.9 44.7 9.9 C 43.5 9.9 42.5 9.4 41.6 8.5 C 40.8 7.7 40.4 6.5 40.4 5.1 C 40.4 3.6 40.8 2.4 41.7 1.5 C 42.5 0.6 43.6 0.2 44.9 0.2 C 45.9 0.2 46.7 0.4 47.5 1 C 48.3 1.5 48.9 2.2 49.3 3.1 C 49.7 4.1 49.9 5.4 49.9 7.2 C 49.9 9.1 49.7 10.6 49.3 11.7 C 48.9 12.8 48.3 13.6 47.5 14.2 C 46.7 14.7 45.8 15 44.7 15 C 43.6 15 42.7 14.7 41.9 14.1 C 41.2 13.5 40.8 12.6 40.6 11.4 Z M 47.9 5 C 47.9 4 47.7 3.2 47.1 2.6 C 46.6 2 45.9 1.7 45.2 1.7 C 44.4 1.7 43.7 2 43.1 2.6 C 42.5 3.3 42.2 4.1 42.2 5.2 C 42.2 6.1 42.5 6.8 43 7.4 C 43.6 8 44.3 8.3 45.1 8.3 C 45.9 8.3 46.6 8 47.1 7.4 C 47.7 6.8 47.9 6 47.9 5 Z " stroke="none" fill="#54626c"/>
  </g>
</svg>