<?xml version="1.0" standalone="no"?><!DOCTYPE svg PUBLIC "-//W3C//DTD SVG 1.1//EN" "http://www.w3.org/Graphics/SVG/1.1/DTD/svg11.dtd"><svg xmlns="http://www.w3.org/2000/svg" version="1.1" width="170px" height="46.3px" viewBox="0 -5 170 46.3" style="top:-5px"><desc>Full-Time Employees</desc><defs/><g id="Polygon67526"><path d="m1.2 11.1l0-10.9l7.4 0l0 1.3l-5.9 0l0 3.3l5.1 0l0 1.3l-5.1 0l0 5l-1.5 0zm14.3 0c0 0-.02-1.17 0-1.2c-.6.9-1.5 1.4-2.5 1.4c-.5 0-.9-.1-1.3-.3c-.4-.2-.7-.4-.9-.7c-.2-.2-.4-.6-.4-1c-.1-.2-.1-.6-.1-1.2c-.02-.02 0-4.9 0-4.9l1.3 0c0 0 .02 4.37 0 4.4c0 .7 0 1.1.1 1.4c.1.3.3.6.5.8c.3.2.6.3 1 .3c.4 0 .8-.1 1.2-.3c.3-.2.6-.5.7-.8c.2-.4.2-.9.2-1.6c.04.02 0-4.2 0-4.2l1.4 0l0 7.9l-1.2 0zm3.2 0l0-10.9l1.4 0l0 10.9l-1.4 0zm3.4 0l0-10.9l1.4 0l0 10.9l-1.4 0zm2.9-3.3l0-1.3l4.1 0l0 1.3l-4.1 0zm8.6 3.3l0-9.6l-3.6 0l0-1.3l8.6 0l0 1.3l-3.6 0l0 9.6l-1.4 0zm5.8-9.4l0-1.5l1.3 0l0 1.5l-1.3 0zm0 9.4l0-7.9l1.3 0l0 7.9l-1.3 0zm3.3 0l0-7.9l1.2 0c0 0 .04 1.1 0 1.1c.3-.4.6-.7 1-.9c.4-.3.9-.4 1.4-.4c.6 0 1.1.1 1.5.4c.3.2.6.6.8 1c.6-.9 1.4-1.4 2.4-1.4c.8 0 1.4.2 1.8.7c.4.4.6 1.1.6 2c.04-.03 0 5.4 0 5.4l-1.3 0c0 0 .01-4.99 0-5c0-.5 0-.9-.1-1.1c-.1-.3-.3-.5-.5-.6c-.2-.2-.5-.2-.8-.2c-.6 0-1 .2-1.4.5c-.3.4-.5 1-.5 1.8c-.03 0 0 4.6 0 4.6l-1.4 0c0 0 .03-5.14 0-5.1c0-.6-.1-1.1-.3-1.4c-.2-.3-.6-.4-1.1-.4c-.3 0-.7.1-1 .3c-.3.2-.6.5-.7.8c-.1.4-.2 1-.2 1.7c-.02-.01 0 4.1 0 4.1l-1.4 0zm18.1-2.6c0 0 1.4.2 1.4.2c-.2.8-.6 1.5-1.2 1.9c-.6.4-1.3.7-2.3.7c-1.1 0-2-.4-2.7-1.1c-.7-.7-1-1.7-1-3c0-1.3.3-2.4 1-3.1c.7-.7 1.6-1.1 2.7-1.1c1 0 1.9.4 2.6 1.1c.6.7 1 1.7 1 3c0 .1 0 .2 0 .4c0 0-5.9 0-5.9 0c0 .8.3 1.5.7 2c.4.4 1 .7 1.7.7c.4 0 .9-.2 1.2-.4c.4-.3.6-.7.8-1.3zm-4.4-2.1c0 0 4.4 0 4.4 0c0-.7-.2-1.2-.5-1.5c-.4-.5-.9-.8-1.6-.8c-.6 0-1.1.2-1.6.6c-.4.4-.6 1-.7 1.7zm11.9 4.7l0-10.9l7.9 0l0 1.3l-6.4 0l0 3.3l6 0l0 1.3l-6 0l0 3.7l6.7 0l0 1.3l-8.2 0zm10 0l0-7.9l1.2 0c0 0-.01 1.1 0 1.1c.2-.4.6-.7 1-.9c.4-.3.9-.4 1.4-.4c.6 0 1 .1 1.4.4c.4.2.7.6.8 1c.6-.9 1.4-1.4 2.5-1.4c.7 0 1.3.2 1.8.7c.4.4.6 1.1.6 2c-.01-.03 0 5.4 0 5.4l-1.3 0c0 0-.04-4.99 0-5c0-.5-.1-.9-.2-1.1c-.1-.3-.2-.5-.4-.6c-.3-.2-.5-.2-.8-.2c-.6 0-1.1.2-1.4.5c-.4.4-.6 1-.6 1.8c.02 0 0 4.6 0 4.6l-1.3 0c0 0-.02-5.14 0-5.1c0-.6-.1-1.1-.3-1.4c-.3-.3-.6-.4-1.1-.4c-.4 0-.7.1-1.1.3c-.3.2-.5.5-.7.8c-.1.4-.2 1-.2 1.7c.03-.01 0 4.1 0 4.1l-1.3 0zm12.7 3l0-10.9l1.2 0c0 0 0 1.02 0 1c.3-.4.6-.7 1-.9c.3-.2.8-.3 1.3-.3c.7 0 1.3.2 1.8.5c.5.4.9.9 1.1 1.5c.3.6.4 1.3.4 2.1c0 .8-.1 1.5-.4 2.2c-.3.6-.7 1.1-1.3 1.5c-.5.3-1.1.5-1.7.5c-.5 0-.9-.1-1.2-.3c-.4-.2-.7-.4-.9-.7c.02-.03 0 3.8 0 3.8l-1.3 0zm1.2-6.9c0 1 .2 1.8.6 2.2c.4.5.9.8 1.5.8c.6 0 1.1-.3 1.5-.8c.5-.5.7-1.3.7-2.3c0-1-.2-1.8-.7-2.3c-.4-.5-.9-.7-1.4-.7c-.6 0-1.1.2-1.6.8c-.4.5-.6 1.3-.6 2.3zm7.2 3.9l0-10.9l1.4 0l0 10.9l-1.4 0zm2.9-4c0-1.4.4-2.5 1.3-3.2c.6-.6 1.5-.9 2.4-.9c1.1 0 2 .4 2.7 1.1c.7.7 1 1.7 1 2.9c0 1-.1 1.8-.4 2.4c-.3.6-.8 1.1-1.4 1.4c-.5.3-1.2.5-1.9.5c-1.1 0-2-.4-2.6-1.1c-.7-.7-1.1-1.7-1.1-3.1zm1.4 0c0 1.1.2 1.8.7 2.3c.4.5 1 .8 1.6.8c.7 0 1.3-.3 1.7-.8c.4-.5.7-1.3.7-2.3c0-1-.3-1.7-.7-2.2c-.5-.5-1-.8-1.7-.8c-.6 0-1.2.3-1.6.8c-.5.5-.7 1.2-.7 2.2zm8.4 7.2c-.3 0-.5-.1-.9-.2c0 0-.1-1.2-.1-1.2c.3.1.5.1.8.1c.3 0 .5-.1.7-.2c.2-.1.3-.2.4-.4c.1-.1.2-.4.4-1c0 0 .1-.2.1-.3c.04 0-3-7.9-3-7.9l1.5 0c0 0 1.63 4.56 1.6 4.6c.2.5.4 1.2.6 1.8c.2-.6.3-1.2.6-1.8c-.05-.01 1.6-4.6 1.6-4.6l1.4 0c0 0-3.03 8.02-3 8c-.3.9-.6 1.5-.8 1.8c-.2.5-.5.8-.8 1c-.3.2-.7.3-1.1.3c0 0 0 0 0 0zm12.2-5.8c0 0 1.4.2 1.4.2c-.2.8-.6 1.5-1.2 1.9c-.6.4-1.3.7-2.3.7c-1.1 0-2-.4-2.7-1.1c-.7-.7-1-1.7-1-3c0-1.3.3-2.4 1-3.1c.7-.7 1.6-1.1 2.7-1.1c1 0 1.9.4 2.5 1.1c.7.7 1.1 1.7 1.1 3c0 .1-.1.2-.1.4c0 0-5.8 0-5.8 0c0 .8.2 1.5.7 2c.4.4 1 .7 1.6.7c.5 0 1-.2 1.3-.4c.3-.3.6-.7.8-1.3zm-4.4-2.1c0 0 4.4 0 4.4 0c0-.7-.2-1.2-.5-1.5c-.4-.5-.9-.8-1.6-.8c-.6 0-1.2.2-1.6.6c-.4.4-.6 1-.7 1.7zm12.9 2.1c0 0 1.4.2 1.4.2c-.2.8-.6 1.5-1.2 1.9c-.6.4-1.4.7-2.3.7c-1.2 0-2.1-.4-2.7-1.1c-.7-.7-1.1-1.7-1.1-3c0-1.3.4-2.4 1.1-3.1c.7-.7 1.5-1.1 2.6-1.1c1.1 0 1.9.4 2.6 1.1c.7.7 1 1.7 1 3c0 .1 0 .2 0 .4c0 0-5.9 0-5.9 0c.1.8.3 1.5.8 2c.4.4 1 .7 1.6.7c.5 0 .9-.2 1.3-.4c.3-.3.6-.7.8-1.3zm-4.4-2.1c0 0 4.4 0 4.4 0c-.1-.7-.2-1.2-.5-1.5c-.4-.5-1-.8-1.7-.8c-.6 0-1.1.2-1.5.6c-.4.4-.7 1-.7 1.7zm6.9 2.3c0 0 1.3-.2 1.3-.2c.1.6.3 1 .7 1.2c.3.3.8.5 1.4.5c.6 0 1.1-.2 1.4-.4c.3-.3.4-.6.4-.9c0-.3-.1-.5-.4-.7c-.2-.1-.6-.3-1.4-.5c-.9-.2-1.6-.4-2-.6c-.4-.2-.7-.4-.9-.8c-.2-.3-.3-.6-.3-1c0-.4.1-.7.3-1c.1-.3.4-.5.6-.7c.3-.2.5-.3.9-.4c.4-.1.7-.2 1.2-.2c.6 0 1.1.1 1.6.3c.5.2.8.4 1 .7c.2.3.4.7.5 1.2c0 0-1.3.2-1.3.2c-.1-.4-.3-.7-.5-.9c-.3-.3-.7-.4-1.2-.4c-.7 0-1.1.1-1.4.3c-.2.2-.4.5-.4.7c0 .2.1.4.2.5c.1.1.3.3.5.4c.2 0 .5.1 1.2.3c.9.3 1.6.5 2 .6c.4.2.6.4.9.7c.2.3.3.7.3 1.2c0 .4-.1.8-.4 1.2c-.3.4-.6.7-1.1.9c-.5.3-1.1.4-1.7.4c-1 0-1.8-.2-2.3-.7c-.6-.4-.9-1-1.1-1.9z" stroke="none" fill="#54626c"/></g></svg>