<?xml version="1.0" standalone="no"?>
<!DOCTYPE svg PUBLIC "-//W3C//DTD SVG 1.1//EN" "http://www.w3.org/Graphics/SVG/1.1/DTD/svg11.dtd">
<svg xmlns="http://www.w3.org/2000/svg" version="1.1" width="92px" height="56.1px" viewBox="0 -5 92 56.1" style="top:-5px">
  <desc>Print Volume PER HEAD (PRIOR 12 MONTHS)</desc>
  <defs/>
  <g id="Polygon64366">
    <path d="M 1.9 32.7 C 1.5 32.2 1.2 31.7 0.9 31 C 0.6 30.4 0.5 29.7 0.5 29 C 0.5 28.3 0.6 27.8 0.8 27.2 C 1 26.5 1.4 25.9 1.9 25.2 C 1.9 25.2 2.4 25.2 2.4 25.2 C 2.1 25.8 1.9 26.1 1.8 26.4 C 1.6 26.7 1.5 27.1 1.4 27.5 C 1.3 28 1.2 28.5 1.2 29 C 1.2 30.2 1.6 31.5 2.4 32.7 C 2.4 32.7 1.9 32.7 1.9 32.7 Z M 3.3 31 L 3.3 25.3 C 3.3 25.3 5.42 25.32 5.4 25.3 C 5.8 25.3 6.1 25.3 6.3 25.4 C 6.6 25.4 6.8 25.5 7 25.6 C 7.2 25.8 7.3 26 7.5 26.2 C 7.6 26.4 7.6 26.7 7.6 27 C 7.6 27.5 7.5 27.9 7.2 28.2 C 6.9 28.5 6.3 28.7 5.5 28.7 C 5.49 28.71 4 28.7 4 28.7 L 4 31 L 3.3 31 Z M 4 28 C 4 28 5.5 28.04 5.5 28 C 6 28 6.3 27.9 6.5 27.8 C 6.7 27.6 6.8 27.3 6.8 27 C 6.8 26.8 6.8 26.6 6.7 26.4 C 6.5 26.2 6.4 26.1 6.2 26 C 6.1 26 5.8 26 5.5 26 C 5.48 25.99 4 26 4 26 L 4 28 Z M 8.6 31 L 8.6 25.3 C 8.6 25.3 11.11 25.32 11.1 25.3 C 11.6 25.3 12 25.4 12.3 25.5 C 12.5 25.6 12.7 25.8 12.9 26 C 13.1 26.3 13.1 26.6 13.1 26.9 C 13.1 27.3 13 27.6 12.8 27.9 C 12.5 28.2 12.1 28.4 11.5 28.4 C 11.7 28.5 11.9 28.6 12 28.7 C 12.2 28.9 12.4 29.2 12.6 29.5 C 12.62 29.48 13.6 31 13.6 31 L 12.7 31 C 12.7 31 11.9 29.85 11.9 29.9 C 11.7 29.5 11.5 29.2 11.4 29.1 C 11.2 28.9 11.1 28.8 11 28.7 C 10.9 28.6 10.7 28.6 10.6 28.5 C 10.5 28.5 10.4 28.5 10.2 28.5 C 10.2 28.5 9.3 28.5 9.3 28.5 L 9.3 31 L 8.6 31 Z M 9.3 27.8 C 9.3 27.8 10.95 27.84 11 27.8 C 11.3 27.8 11.6 27.8 11.8 27.7 C 12 27.7 12.1 27.6 12.2 27.4 C 12.3 27.2 12.4 27.1 12.4 26.9 C 12.4 26.6 12.3 26.4 12.1 26.2 C 11.9 26 11.6 25.9 11.1 25.9 C 11.14 25.95 9.3 25.9 9.3 25.9 L 9.3 27.8 Z M 14.5 31 L 14.5 25.3 L 15.2 25.3 L 15.2 31 L 14.5 31 Z M 16.4 28.3 C 16.4 27.3 16.7 26.6 17.2 26 C 17.7 25.5 18.3 25.2 19.1 25.2 C 19.7 25.2 20.1 25.3 20.6 25.6 C 21 25.8 21.3 26.2 21.5 26.7 C 21.8 27.1 21.9 27.6 21.9 28.2 C 21.9 28.8 21.8 29.3 21.5 29.7 C 21.3 30.2 21 30.6 20.5 30.8 C 20.1 31 19.6 31.1 19.1 31.1 C 18.6 31.1 18.1 31 17.7 30.8 C 17.3 30.5 16.9 30.1 16.7 29.7 C 16.5 29.2 16.4 28.8 16.4 28.3 Z M 17.2 28.3 C 17.2 29 17.4 29.5 17.7 29.9 C 18.1 30.3 18.6 30.5 19.1 30.5 C 19.7 30.5 20.2 30.3 20.5 29.9 C 20.9 29.5 21.1 28.9 21.1 28.2 C 21.1 27.7 21 27.3 20.9 27 C 20.7 26.6 20.5 26.3 20.2 26.2 C 19.9 26 19.5 25.9 19.1 25.9 C 18.6 25.9 18.1 26.1 17.8 26.4 C 17.4 26.8 17.2 27.4 17.2 28.3 Z M 23 31 L 23 25.3 C 23 25.3 25.5 25.32 25.5 25.3 C 26 25.3 26.4 25.4 26.7 25.5 C 26.9 25.6 27.1 25.8 27.3 26 C 27.5 26.3 27.5 26.6 27.5 26.9 C 27.5 27.3 27.4 27.6 27.1 27.9 C 26.9 28.2 26.5 28.4 25.9 28.4 C 26.1 28.5 26.3 28.6 26.4 28.7 C 26.6 28.9 26.8 29.2 27 29.5 C 27.01 29.48 28 31 28 31 L 27.1 31 C 27.1 31 26.3 29.85 26.3 29.9 C 26.1 29.5 25.9 29.2 25.7 29.1 C 25.6 28.9 25.5 28.8 25.4 28.7 C 25.3 28.6 25.1 28.6 25 28.5 C 24.9 28.5 24.8 28.5 24.6 28.5 C 24.6 28.5 23.7 28.5 23.7 28.5 L 23.7 31 L 23 31 Z M 23.7 27.8 C 23.7 27.8 25.35 27.84 25.3 27.8 C 25.7 27.8 26 27.8 26.2 27.7 C 26.4 27.7 26.5 27.6 26.6 27.4 C 26.7 27.2 26.8 27.1 26.8 26.9 C 26.8 26.6 26.7 26.4 26.5 26.2 C 26.3 26 26 25.9 25.5 25.9 C 25.53 25.95 23.7 25.9 23.7 25.9 L 23.7 27.8 Z M 33.3 31 L 32.6 31 C 32.6 31 32.61 26.56 32.6 26.6 C 32.4 26.7 32.2 26.9 31.9 27 C 31.7 27.2 31.4 27.3 31.2 27.4 C 31.2 27.4 31.2 26.7 31.2 26.7 C 31.6 26.5 31.9 26.3 32.2 26.1 C 32.5 25.8 32.7 25.5 32.9 25.3 C 32.86 25.29 33.3 25.3 33.3 25.3 L 33.3 31 Z M 38.5 30.4 L 38.5 31 C 38.5 31 34.67 31.04 34.7 31 C 34.7 30.9 34.7 30.7 34.8 30.6 C 34.9 30.3 35 30 35.2 29.8 C 35.4 29.5 35.7 29.3 36.1 28.9 C 36.8 28.4 37.2 28 37.4 27.7 C 37.6 27.4 37.7 27.1 37.7 26.9 C 37.7 26.6 37.6 26.4 37.4 26.2 C 37.2 26 37 25.9 36.6 25.9 C 36.3 25.9 36 26 35.8 26.2 C 35.6 26.4 35.5 26.7 35.5 27 C 35.5 27 34.8 26.9 34.8 26.9 C 34.9 26.4 35 26 35.4 25.7 C 35.7 25.4 36.1 25.3 36.7 25.3 C 37.2 25.3 37.6 25.4 38 25.8 C 38.3 26.1 38.4 26.4 38.4 26.9 C 38.4 27.1 38.4 27.3 38.3 27.6 C 38.2 27.8 38.1 28 37.8 28.3 C 37.6 28.5 37.3 28.8 36.8 29.3 C 36.3 29.6 36.1 29.9 35.9 30 C 35.8 30.1 35.7 30.2 35.6 30.4 C 35.65 30.37 38.5 30.4 38.5 30.4 Z M 41.7 31 L 41.7 25.3 L 42.8 25.3 C 42.8 25.3 44.19 29.37 44.2 29.4 C 44.3 29.7 44.4 30 44.5 30.2 C 44.5 30 44.6 29.7 44.8 29.3 C 44.77 29.3 46.1 25.3 46.1 25.3 L 47.2 25.3 L 47.2 31 L 46.4 31 L 46.4 26.3 L 44.8 31 L 44.1 31 L 42.4 26.2 L 42.4 31 L 41.7 31 Z M 48.2 28.3 C 48.2 27.3 48.5 26.6 49 26 C 49.5 25.5 50.2 25.2 51 25.2 C 51.5 25.2 52 25.3 52.4 25.6 C 52.8 25.8 53.2 26.2 53.4 26.7 C 53.6 27.1 53.7 27.6 53.7 28.2 C 53.7 28.8 53.6 29.3 53.4 29.7 C 53.1 30.2 52.8 30.6 52.4 30.8 C 51.9 31 51.5 31.1 51 31.1 C 50.4 31.1 50 31 49.5 30.8 C 49.1 30.5 48.8 30.1 48.6 29.7 C 48.4 29.2 48.2 28.8 48.2 28.3 Z M 49 28.3 C 49 29 49.2 29.5 49.6 29.9 C 50 30.3 50.4 30.5 51 30.5 C 51.6 30.5 52 30.3 52.4 29.9 C 52.8 29.5 52.9 28.9 52.9 28.2 C 52.9 27.7 52.9 27.3 52.7 27 C 52.6 26.6 52.3 26.3 52 26.2 C 51.7 26 51.4 25.9 51 25.9 C 50.5 25.9 50 26.1 49.6 26.4 C 49.2 26.8 49 27.4 49 28.3 Z M 54.8 31 L 54.8 25.3 L 55.6 25.3 L 58.6 29.8 L 58.6 25.3 L 59.3 25.3 L 59.3 31 L 58.5 31 L 55.5 26.5 L 55.5 31 L 54.8 31 Z M 62.1 31 L 62.1 26 L 60.2 26 L 60.2 25.3 L 64.7 25.3 L 64.7 26 L 62.8 26 L 62.8 31 L 62.1 31 Z M 65.6 31 L 65.6 25.3 L 66.3 25.3 L 66.3 27.7 L 69.3 27.7 L 69.3 25.3 L 70.1 25.3 L 70.1 31 L 69.3 31 L 69.3 28.3 L 66.3 28.3 L 66.3 31 L 65.6 31 Z M 71.1 29.2 C 71.1 29.2 71.8 29.1 71.8 29.1 C 71.9 29.4 71.9 29.7 72.1 29.8 C 72.2 30 72.4 30.2 72.6 30.3 C 72.9 30.4 73.2 30.5 73.5 30.5 C 73.8 30.5 74.1 30.4 74.3 30.3 C 74.5 30.2 74.7 30.1 74.8 30 C 74.9 29.8 74.9 29.7 74.9 29.5 C 74.9 29.3 74.9 29.2 74.8 29 C 74.7 28.9 74.5 28.8 74.3 28.7 C 74.1 28.6 73.8 28.5 73.3 28.4 C 72.7 28.3 72.4 28.2 72.2 28 C 71.9 27.9 71.7 27.7 71.5 27.5 C 71.4 27.3 71.3 27.1 71.3 26.8 C 71.3 26.5 71.4 26.2 71.6 26 C 71.8 25.7 72 25.5 72.3 25.4 C 72.6 25.3 73 25.2 73.4 25.2 C 73.8 25.2 74.2 25.3 74.5 25.4 C 74.8 25.6 75.1 25.8 75.2 26 C 75.4 26.3 75.5 26.6 75.5 26.9 C 75.5 26.9 74.8 27 74.8 27 C 74.7 26.6 74.6 26.3 74.4 26.2 C 74.2 26 73.8 25.9 73.4 25.9 C 72.9 25.9 72.6 26 72.4 26.1 C 72.2 26.3 72.1 26.5 72.1 26.7 C 72.1 27 72.1 27.1 72.3 27.3 C 72.4 27.4 72.8 27.5 73.4 27.7 C 74.1 27.8 74.5 27.9 74.7 28 C 75 28.2 75.3 28.4 75.4 28.6 C 75.6 28.8 75.7 29.1 75.7 29.4 C 75.7 29.7 75.6 30 75.4 30.3 C 75.2 30.6 75 30.8 74.7 30.9 C 74.3 31.1 74 31.1 73.6 31.1 C 73 31.1 72.6 31.1 72.3 30.9 C 71.9 30.8 71.6 30.5 71.4 30.2 C 71.2 29.9 71.1 29.6 71.1 29.2 Z M 76.8 32.7 C 76.8 32.7 76.3 32.7 76.3 32.7 C 77.1 31.5 77.4 30.2 77.4 29 C 77.4 28.5 77.4 28 77.3 27.5 C 77.2 27.1 77.1 26.8 76.9 26.4 C 76.8 26.2 76.6 25.8 76.3 25.2 C 76.3 25.2 76.8 25.2 76.8 25.2 C 77.3 25.9 77.6 26.5 77.9 27.2 C 78.1 27.8 78.2 28.3 78.2 29 C 78.2 29.7 78 30.4 77.8 31 C 77.5 31.7 77.2 32.2 76.8 32.7 Z " stroke="none" fill="#ffffff"/>
  </g>
  <g id="Polygon64365">
    <path d="M 0.7 21.3 L 0.7 14.4 C 0.7 14.4 3.33 14.41 3.3 14.4 C 3.8 14.4 4.1 14.4 4.4 14.5 C 4.7 14.5 5 14.6 5.2 14.8 C 5.5 15 5.6 15.2 5.8 15.5 C 5.9 15.7 6 16.1 6 16.4 C 6 17 5.8 17.5 5.4 17.9 C 5.1 18.3 4.4 18.5 3.4 18.5 C 3.41 18.49 1.6 18.5 1.6 18.5 L 1.6 21.3 L 0.7 21.3 Z M 1.6 17.7 C 1.6 17.7 3.43 17.68 3.4 17.7 C 4 17.7 4.4 17.6 4.7 17.4 C 4.9 17.1 5 16.8 5 16.4 C 5 16.1 5 15.9 4.8 15.7 C 4.7 15.5 4.5 15.4 4.3 15.3 C 4.1 15.2 3.8 15.2 3.4 15.2 C 3.41 15.22 1.6 15.2 1.6 15.2 L 1.6 17.7 Z M 7 21.3 L 7 14.4 L 12 14.4 L 12 15.2 L 7.9 15.2 L 7.9 17.3 L 11.7 17.3 L 11.7 18.1 L 7.9 18.1 L 7.9 20.5 L 12.2 20.5 L 12.2 21.3 L 7 21.3 Z M 13.3 21.3 L 13.3 14.4 C 13.3 14.4 16.33 14.41 16.3 14.4 C 16.9 14.4 17.4 14.5 17.7 14.6 C 18 14.7 18.3 14.9 18.5 15.3 C 18.7 15.6 18.8 15.9 18.8 16.3 C 18.8 16.8 18.6 17.2 18.3 17.5 C 18 17.9 17.5 18.1 16.8 18.2 C 17.1 18.3 17.3 18.4 17.4 18.5 C 17.7 18.7 17.9 19 18.1 19.4 C 18.15 19.41 19.3 21.3 19.3 21.3 L 18.2 21.3 C 18.2 21.3 17.29 19.86 17.3 19.9 C 17 19.4 16.8 19.1 16.6 18.9 C 16.5 18.7 16.3 18.5 16.2 18.4 C 16 18.4 15.9 18.3 15.8 18.3 C 15.7 18.2 15.5 18.2 15.3 18.2 C 15.25 18.23 14.2 18.2 14.2 18.2 L 14.2 21.3 L 13.3 21.3 Z M 14.2 17.4 C 14.2 17.4 16.15 17.45 16.2 17.4 C 16.6 17.4 16.9 17.4 17.1 17.3 C 17.4 17.2 17.5 17.1 17.7 16.9 C 17.8 16.7 17.8 16.5 17.8 16.3 C 17.8 16 17.7 15.7 17.5 15.5 C 17.3 15.3 16.9 15.2 16.4 15.2 C 16.37 15.17 14.2 15.2 14.2 15.2 L 14.2 17.4 Z M 22.9 21.3 L 22.9 14.4 L 23.8 14.4 L 23.8 17.2 L 27.4 17.2 L 27.4 14.4 L 28.3 14.4 L 28.3 21.3 L 27.4 21.3 L 27.4 18 L 23.8 18 L 23.8 21.3 L 22.9 21.3 Z M 29.9 21.3 L 29.9 14.4 L 34.8 14.4 L 34.8 15.2 L 30.8 15.2 L 30.8 17.3 L 34.6 17.3 L 34.6 18.1 L 30.8 18.1 L 30.8 20.5 L 35 20.5 L 35 21.3 L 29.9 21.3 Z M 35.7 21.3 L 38.3 14.4 L 39.3 14.4 L 42.1 21.3 L 41.1 21.3 L 40.3 19.2 L 37.4 19.2 L 36.7 21.3 L 35.7 21.3 Z M 37.7 18.5 L 40 18.5 C 40 18.5 39.28 16.56 39.3 16.6 C 39.1 16 38.9 15.5 38.8 15.1 C 38.7 15.6 38.6 16 38.4 16.4 C 38.42 16.45 37.7 18.5 37.7 18.5 Z M 42.9 21.3 L 42.9 14.4 C 42.9 14.4 45.3 14.41 45.3 14.4 C 45.8 14.4 46.2 14.4 46.5 14.5 C 46.9 14.6 47.3 14.8 47.5 15 C 47.9 15.3 48.2 15.7 48.3 16.2 C 48.5 16.7 48.6 17.2 48.6 17.8 C 48.6 18.3 48.6 18.8 48.4 19.2 C 48.3 19.6 48.2 19.9 48 20.2 C 47.8 20.5 47.6 20.7 47.3 20.8 C 47.1 21 46.8 21.1 46.5 21.2 C 46.2 21.2 45.8 21.3 45.4 21.3 C 45.41 21.29 42.9 21.3 42.9 21.3 Z M 43.8 20.5 C 43.8 20.5 45.31 20.47 45.3 20.5 C 45.8 20.5 46.1 20.4 46.4 20.3 C 46.6 20.3 46.8 20.1 47 20 C 47.2 19.8 47.4 19.5 47.5 19.1 C 47.6 18.8 47.7 18.3 47.7 17.8 C 47.7 17.1 47.6 16.5 47.3 16.1 C 47.1 15.8 46.8 15.5 46.5 15.4 C 46.2 15.3 45.8 15.2 45.3 15.2 C 45.28 15.22 43.8 15.2 43.8 15.2 L 43.8 20.5 Z " stroke="none" fill="#ffffff"/>
  </g>
  <g id="Polygon64364">
    <path d="M 1 9.9 L 1 0.2 C 1 0.2 4.72 0.17 4.7 0.2 C 5.4 0.2 5.9 0.2 6.2 0.3 C 6.7 0.3 7.1 0.5 7.4 0.7 C 7.7 0.9 8 1.3 8.2 1.7 C 8.4 2.1 8.5 2.5 8.5 3 C 8.5 3.8 8.2 4.5 7.7 5.1 C 7.2 5.7 6.2 5.9 4.8 5.9 C 4.83 5.94 2.3 5.9 2.3 5.9 L 2.3 9.9 L 1 9.9 Z M 2.3 4.8 C 2.3 4.8 4.85 4.79 4.9 4.8 C 5.7 4.8 6.3 4.6 6.6 4.3 C 7 4 7.2 3.6 7.2 3 C 7.2 2.6 7 2.3 6.8 2 C 6.6 1.7 6.4 1.5 6 1.4 C 5.8 1.3 5.4 1.3 4.8 1.3 C 4.83 1.31 2.3 1.3 2.3 1.3 L 2.3 4.8 Z M 9.8 9.9 L 9.8 2.8 L 10.8 2.8 C 10.8 2.8 10.83 3.92 10.8 3.9 C 11.1 3.4 11.4 3.1 11.6 2.9 C 11.8 2.8 12.1 2.7 12.4 2.7 C 12.8 2.7 13.2 2.8 13.6 3.1 C 13.6 3.1 13.2 4.2 13.2 4.2 C 12.9 4 12.6 3.9 12.3 3.9 C 12 3.9 11.8 4 11.6 4.2 C 11.4 4.3 11.2 4.5 11.1 4.8 C 11 5.2 10.9 5.7 10.9 6.2 C 10.95 6.21 10.9 9.9 10.9 9.9 L 9.8 9.9 Z M 14.4 1.5 L 14.4 0.2 L 15.6 0.2 L 15.6 1.5 L 14.4 1.5 Z M 14.4 9.9 L 14.4 2.8 L 15.6 2.8 L 15.6 9.9 L 14.4 9.9 Z M 17.3 9.9 L 17.3 2.8 L 18.4 2.8 C 18.4 2.8 18.37 3.85 18.4 3.9 C 18.9 3.1 19.6 2.7 20.6 2.7 C 21 2.7 21.4 2.8 21.8 2.9 C 22.1 3.1 22.4 3.3 22.6 3.5 C 22.8 3.8 22.9 4.1 23 4.4 C 23 4.6 23 5 23 5.6 C 23.02 5.56 23 9.9 23 9.9 L 21.8 9.9 C 21.8 9.9 21.83 5.61 21.8 5.6 C 21.8 5.1 21.8 4.8 21.7 4.5 C 21.6 4.3 21.4 4.1 21.2 3.9 C 21 3.8 20.7 3.7 20.4 3.7 C 19.8 3.7 19.4 3.9 19 4.2 C 18.7 4.5 18.5 5.1 18.5 6 C 18.48 6.05 18.5 9.9 18.5 9.9 L 17.3 9.9 Z M 26.7 8.9 C 26.8 8.9 27 8.9 27.2 8.8 C 27.2 8.8 27.4 9.9 27.4 9.9 C 27.1 10 26.8 10 26.5 10 C 26.1 10 25.7 9.9 25.5 9.8 C 25.3 9.7 25.1 9.5 25 9.2 C 24.9 9 24.8 8.6 24.8 7.8 C 24.84 7.84 24.8 3.8 24.8 3.8 L 24 3.8 L 24 2.8 L 24.8 2.8 L 24.8 1.1 L 26 0.4 L 26 2.8 L 27.2 2.8 L 27.2 3.8 L 26 3.8 C 26 3.8 26.03 7.9 26 7.9 C 26 8.2 26.1 8.5 26.1 8.6 C 26.1 8.7 26.2 8.7 26.3 8.8 C 26.4 8.8 26.5 8.9 26.7 8.9 C 26.7 8.9 26.7 8.9 26.7 8.9 Z M 35.1 9.9 L 31.3 0.2 L 32.7 0.2 C 32.7 0.2 35.27 7.24 35.3 7.2 C 35.5 7.8 35.6 8.3 35.8 8.8 C 35.9 8.3 36.1 7.8 36.3 7.2 C 36.31 7.24 38.9 0.2 38.9 0.2 L 40.3 0.2 L 36.4 9.9 L 35.1 9.9 Z M 40.1 6.4 C 40.1 5.1 40.5 4.1 41.2 3.5 C 41.8 3 42.5 2.7 43.4 2.7 C 44.4 2.7 45.2 3 45.8 3.6 C 46.4 4.3 46.7 5.2 46.7 6.3 C 46.7 7.2 46.6 7.9 46.3 8.4 C 46 8.9 45.6 9.3 45.1 9.6 C 44.6 9.9 44 10.1 43.4 10.1 C 42.4 10.1 41.6 9.7 41 9.1 C 40.4 8.5 40.1 7.6 40.1 6.4 Z M 41.3 6.4 C 41.3 7.3 41.5 8 41.9 8.4 C 42.3 8.9 42.8 9.1 43.4 9.1 C 44 9.1 44.5 8.9 44.9 8.4 C 45.3 7.9 45.5 7.3 45.5 6.3 C 45.5 5.5 45.3 4.8 44.9 4.4 C 44.5 3.9 44 3.7 43.4 3.7 C 42.8 3.7 42.3 3.9 41.9 4.3 C 41.5 4.8 41.3 5.5 41.3 6.4 Z M 48 9.9 L 48 0.2 L 49.2 0.2 L 49.2 9.9 L 48 9.9 Z M 55.6 9.9 C 55.6 9.9 55.55 8.87 55.6 8.9 C 55 9.7 54.3 10.1 53.3 10.1 C 52.9 10.1 52.5 10 52.1 9.8 C 51.8 9.7 51.5 9.5 51.3 9.2 C 51.2 9 51 8.7 51 8.3 C 50.9 8.1 50.9 7.7 50.9 7.2 C 50.9 7.22 50.9 2.8 50.9 2.8 L 52.1 2.8 C 52.1 2.8 52.1 6.76 52.1 6.8 C 52.1 7.4 52.1 7.8 52.2 8 C 52.2 8.3 52.4 8.6 52.7 8.8 C 52.9 8.9 53.2 9 53.6 9 C 53.9 9 54.2 8.9 54.6 8.8 C 54.9 8.6 55.1 8.3 55.2 8 C 55.4 7.7 55.4 7.2 55.4 6.6 C 55.43 6.63 55.4 2.8 55.4 2.8 L 56.6 2.8 L 56.6 9.9 L 55.6 9.9 Z M 58.3 9.9 L 58.3 2.8 L 59.4 2.8 C 59.4 2.8 59.42 3.84 59.4 3.8 C 59.6 3.5 59.9 3.2 60.3 3 C 60.7 2.8 61.1 2.7 61.6 2.7 C 62.1 2.7 62.5 2.8 62.8 3 C 63.2 3.2 63.4 3.5 63.5 3.9 C 64.1 3.1 64.8 2.7 65.7 2.7 C 66.4 2.7 67 2.9 67.3 3.3 C 67.7 3.7 67.9 4.3 67.9 5.1 C 67.9 5.06 67.9 9.9 67.9 9.9 L 66.7 9.9 C 66.7 9.9 66.71 5.46 66.7 5.5 C 66.7 5 66.7 4.6 66.6 4.4 C 66.5 4.2 66.4 4 66.2 3.9 C 66 3.8 65.7 3.7 65.5 3.7 C 65 3.7 64.6 3.9 64.2 4.2 C 63.9 4.5 63.7 5.1 63.7 5.8 C 63.73 5.8 63.7 9.9 63.7 9.9 L 62.5 9.9 C 62.5 9.9 62.54 5.32 62.5 5.3 C 62.5 4.8 62.4 4.4 62.2 4.1 C 62 3.9 61.7 3.7 61.3 3.7 C 61 3.7 60.6 3.8 60.4 4 C 60.1 4.2 59.9 4.4 59.7 4.8 C 59.6 5.1 59.5 5.6 59.5 6.2 C 59.54 6.24 59.5 9.9 59.5 9.9 L 58.3 9.9 Z M 74.4 7.6 C 74.4 7.6 75.7 7.8 75.7 7.8 C 75.5 8.5 75.1 9.1 74.6 9.5 C 74.1 9.9 73.4 10.1 72.6 10.1 C 71.5 10.1 70.7 9.7 70.1 9.1 C 69.5 8.5 69.2 7.6 69.2 6.4 C 69.2 5.2 69.5 4.3 70.1 3.7 C 70.7 3 71.5 2.7 72.5 2.7 C 73.4 2.7 74.2 3 74.8 3.7 C 75.4 4.3 75.7 5.2 75.7 6.4 C 75.7 6.4 75.7 6.5 75.7 6.7 C 75.7 6.7 70.4 6.7 70.4 6.7 C 70.5 7.5 70.7 8 71.1 8.5 C 71.5 8.9 72 9.1 72.6 9.1 C 73 9.1 73.4 9 73.7 8.7 C 74 8.5 74.2 8.1 74.4 7.6 Z M 70.5 5.7 C 70.5 5.7 74.4 5.7 74.4 5.7 C 74.4 5.1 74.2 4.7 74 4.4 C 73.6 3.9 73.1 3.7 72.5 3.7 C 72 3.7 71.5 3.9 71.1 4.2 C 70.7 4.6 70.5 5.1 70.5 5.7 Z " stroke="none" fill="#ffffff"/>
  </g>
</svg>