<?xml version="1.0" standalone="no"?>
<!DOCTYPE svg PUBLIC "-//W3C//DTD SVG 1.1//EN" "http://www.w3.org/Graphics/SVG/1.1/DTD/svg11.dtd">
<svg xmlns="http://www.w3.org/2000/svg" version="1.1" width="191px" height="40.7px" viewBox="0 -5 191 40.7" style="top:-5px">
  <desc>Shared Value</desc>
  <defs/>
  <g id="Polygon60432">
    <path d="M 0.6 6.5 C 0.6 6.5 1.7 6.4 1.7 6.4 C 1.8 6.8 1.9 7.2 2.1 7.5 C 2.3 7.8 2.6 8 3.1 8.2 C 3.5 8.4 4 8.5 4.5 8.5 C 5 8.5 5.4 8.4 5.7 8.3 C 6.1 8.2 6.4 8 6.5 7.7 C 6.7 7.5 6.8 7.2 6.8 6.9 C 6.8 6.6 6.7 6.4 6.5 6.2 C 6.4 5.9 6.1 5.8 5.7 5.6 C 5.5 5.5 4.9 5.4 4 5.2 C 3.2 5 2.6 4.8 2.3 4.6 C 1.8 4.3 1.5 4.1 1.3 3.7 C 1 3.4 0.9 3 0.9 2.6 C 0.9 2.1 1.1 1.7 1.3 1.2 C 1.6 0.8 2 0.5 2.5 0.3 C 3 0.1 3.6 0 4.2 0 C 4.9 0 5.5 0.1 6 0.3 C 6.6 0.6 7 0.9 7.2 1.3 C 7.5 1.7 7.7 2.2 7.7 2.8 C 7.7 2.8 6.5 2.9 6.5 2.9 C 6.5 2.3 6.2 1.8 5.9 1.5 C 5.5 1.2 5 1.1 4.3 1.1 C 3.5 1.1 3 1.2 2.6 1.5 C 2.3 1.8 2.1 2.1 2.1 2.5 C 2.1 2.8 2.2 3.1 2.5 3.3 C 2.7 3.5 3.3 3.7 4.3 4 C 5.3 4.2 6 4.4 6.4 4.6 C 6.9 4.8 7.3 5.1 7.6 5.5 C 7.8 5.9 8 6.3 8 6.8 C 8 7.3 7.8 7.8 7.5 8.2 C 7.3 8.7 6.9 9 6.3 9.2 C 5.8 9.5 5.2 9.6 4.5 9.6 C 3.7 9.6 3 9.5 2.4 9.2 C 1.9 9 1.4 8.6 1.1 8.1 C 0.8 7.6 0.6 7.1 0.6 6.5 Z M 9.5 9.4 L 9.5 0.2 L 10.6 0.2 C 10.6 0.2 10.59 3.49 10.6 3.5 C 11.1 2.9 11.8 2.6 12.6 2.6 C 13.1 2.6 13.5 2.7 13.9 2.9 C 14.3 3.1 14.5 3.3 14.7 3.7 C 14.9 4 14.9 4.5 14.9 5.2 C 14.93 5.18 14.9 9.4 14.9 9.4 L 13.8 9.4 C 13.8 9.4 13.79 5.18 13.8 5.2 C 13.8 4.6 13.7 4.2 13.4 3.9 C 13.2 3.7 12.8 3.5 12.4 3.5 C 12 3.5 11.7 3.6 11.4 3.8 C 11.1 4 10.9 4.2 10.8 4.5 C 10.7 4.8 10.6 5.2 10.6 5.8 C 10.59 5.76 10.6 9.4 10.6 9.4 L 9.5 9.4 Z M 21.2 9.4 C 21.1 9.2 21 8.9 21 8.6 C 20.5 9 20.1 9.2 19.7 9.4 C 19.3 9.5 18.9 9.6 18.5 9.6 C 17.7 9.6 17.2 9.4 16.8 9.1 C 16.4 8.7 16.2 8.2 16.2 7.7 C 16.2 7.3 16.3 7 16.4 6.8 C 16.6 6.5 16.8 6.3 17 6.1 C 17.2 5.9 17.5 5.8 17.8 5.7 C 18 5.7 18.4 5.6 18.8 5.6 C 19.7 5.5 20.4 5.3 20.9 5.2 C 20.9 5 20.9 4.9 20.9 4.9 C 20.9 4.4 20.8 4.1 20.5 3.9 C 20.3 3.6 19.8 3.5 19.2 3.5 C 18.7 3.5 18.3 3.6 18.1 3.8 C 17.8 4 17.6 4.3 17.5 4.8 C 17.5 4.8 16.4 4.6 16.4 4.6 C 16.5 4.2 16.6 3.8 16.9 3.5 C 17.1 3.2 17.4 3 17.9 2.8 C 18.3 2.6 18.8 2.6 19.4 2.6 C 20 2.6 20.5 2.6 20.8 2.8 C 21.2 2.9 21.4 3.1 21.6 3.3 C 21.8 3.5 21.9 3.7 22 4.1 C 22 4.2 22 4.6 22 5.1 C 22 5.1 22 6.6 22 6.6 C 22 7.7 22 8.4 22.1 8.6 C 22.1 8.9 22.2 9.2 22.4 9.4 C 22.37 9.44 21.2 9.4 21.2 9.4 C 21.2 9.4 21.18 9.44 21.2 9.4 Z M 20.9 6.1 C 20.4 6.2 19.8 6.4 19 6.5 C 18.5 6.6 18.2 6.6 18 6.7 C 17.8 6.8 17.7 6.9 17.6 7.1 C 17.4 7.3 17.4 7.4 17.4 7.6 C 17.4 7.9 17.5 8.2 17.7 8.4 C 18 8.6 18.3 8.7 18.8 8.7 C 19.2 8.7 19.6 8.6 19.9 8.4 C 20.3 8.2 20.5 8 20.7 7.6 C 20.8 7.4 20.9 7 20.9 6.5 C 20.9 6.5 20.9 6.1 20.9 6.1 Z M 23.7 9.4 L 23.7 2.7 L 24.7 2.7 C 24.7 2.7 24.7 3.74 24.7 3.7 C 25 3.3 25.2 2.9 25.4 2.8 C 25.6 2.6 25.9 2.6 26.2 2.6 C 26.5 2.6 26.9 2.7 27.3 2.9 C 27.3 2.9 26.9 4 26.9 4 C 26.7 3.8 26.4 3.7 26.1 3.7 C 25.8 3.7 25.6 3.8 25.4 4 C 25.2 4.1 25.1 4.3 25 4.6 C 24.9 5 24.8 5.4 24.8 5.9 C 24.81 5.92 24.8 9.4 24.8 9.4 L 23.7 9.4 Z M 32.5 7.3 C 32.5 7.3 33.7 7.4 33.7 7.4 C 33.5 8.1 33.2 8.6 32.7 9 C 32.2 9.4 31.5 9.6 30.7 9.6 C 29.8 9.6 29 9.3 28.4 8.7 C 27.8 8.1 27.5 7.2 27.5 6.1 C 27.5 5 27.8 4.1 28.4 3.5 C 29 2.9 29.7 2.6 30.7 2.6 C 31.6 2.6 32.3 2.9 32.9 3.5 C 33.5 4.1 33.7 5 33.7 6.1 C 33.7 6.1 33.7 6.2 33.7 6.4 C 33.7 6.4 28.7 6.4 28.7 6.4 C 28.8 7.1 29 7.7 29.3 8.1 C 29.7 8.5 30.2 8.7 30.7 8.7 C 31.2 8.7 31.5 8.5 31.8 8.3 C 32.1 8.1 32.3 7.8 32.5 7.3 Z M 28.8 5.4 C 28.8 5.4 32.5 5.4 32.5 5.4 C 32.5 4.9 32.3 4.4 32.1 4.2 C 31.7 3.7 31.3 3.5 30.7 3.5 C 30.2 3.5 29.7 3.7 29.4 4 C 29 4.4 28.8 4.8 28.8 5.4 Z M 39.5 9.4 C 39.5 9.4 39.45 8.59 39.5 8.6 C 39 9.3 38.4 9.6 37.6 9.6 C 37 9.6 36.5 9.4 36.1 9.2 C 35.6 8.9 35.3 8.4 35 7.9 C 34.8 7.4 34.7 6.8 34.7 6.1 C 34.7 5.4 34.8 4.8 35 4.3 C 35.2 3.7 35.6 3.3 36 3 C 36.5 2.7 37 2.6 37.5 2.6 C 37.9 2.6 38.3 2.7 38.6 2.8 C 38.9 3 39.2 3.2 39.4 3.5 C 39.37 3.49 39.4 0.2 39.4 0.2 L 40.5 0.2 L 40.5 9.4 L 39.5 9.4 Z M 35.8 6.1 C 35.8 6.9 36 7.6 36.4 8 C 36.8 8.4 37.2 8.7 37.7 8.7 C 38.2 8.7 38.6 8.5 38.9 8 C 39.3 7.6 39.5 7 39.5 6.2 C 39.5 5.3 39.3 4.6 38.9 4.2 C 38.6 3.7 38.1 3.5 37.6 3.5 C 37.1 3.5 36.7 3.7 36.4 4.1 C 36 4.5 35.8 5.2 35.8 6.1 Z M 48.7 9.4 L 45.1 0.2 L 46.4 0.2 C 46.4 0.2 48.85 6.9 48.8 6.9 C 49 7.4 49.2 8 49.3 8.4 C 49.5 7.9 49.6 7.4 49.8 6.9 C 49.84 6.9 52.3 0.2 52.3 0.2 L 53.6 0.2 L 50 9.4 L 48.7 9.4 Z M 58.5 9.4 C 58.4 9.2 58.3 8.9 58.3 8.6 C 57.9 9 57.5 9.2 57.1 9.4 C 56.7 9.5 56.3 9.6 55.8 9.6 C 55.1 9.6 54.5 9.4 54.1 9.1 C 53.7 8.7 53.5 8.2 53.5 7.7 C 53.5 7.3 53.6 7 53.7 6.8 C 53.9 6.5 54.1 6.3 54.3 6.1 C 54.6 5.9 54.8 5.8 55.1 5.7 C 55.4 5.7 55.7 5.6 56.2 5.6 C 57.1 5.5 57.8 5.3 58.2 5.2 C 58.2 5 58.2 4.9 58.2 4.9 C 58.2 4.4 58.1 4.1 57.9 3.9 C 57.6 3.6 57.2 3.5 56.6 3.5 C 56 3.5 55.6 3.6 55.4 3.8 C 55.1 4 54.9 4.3 54.8 4.8 C 54.8 4.8 53.7 4.6 53.7 4.6 C 53.8 4.2 54 3.8 54.2 3.5 C 54.4 3.2 54.8 3 55.2 2.8 C 55.7 2.6 56.2 2.6 56.7 2.6 C 57.3 2.6 57.8 2.6 58.1 2.8 C 58.5 2.9 58.8 3.1 58.9 3.3 C 59.1 3.5 59.2 3.7 59.3 4.1 C 59.3 4.2 59.3 4.6 59.3 5.1 C 59.3 5.1 59.3 6.6 59.3 6.6 C 59.3 7.7 59.4 8.4 59.4 8.6 C 59.5 8.9 59.6 9.2 59.7 9.4 C 59.71 9.44 58.5 9.4 58.5 9.4 C 58.5 9.4 58.52 9.44 58.5 9.4 Z M 58.2 6.1 C 57.8 6.2 57.2 6.4 56.3 6.5 C 55.9 6.6 55.5 6.6 55.3 6.7 C 55.1 6.8 55 6.9 54.9 7.1 C 54.8 7.3 54.7 7.4 54.7 7.6 C 54.7 7.9 54.8 8.2 55.1 8.4 C 55.3 8.6 55.6 8.7 56.1 8.7 C 56.5 8.7 56.9 8.6 57.3 8.4 C 57.6 8.2 57.9 8 58 7.6 C 58.1 7.4 58.2 7 58.2 6.5 C 58.2 6.5 58.2 6.1 58.2 6.1 Z M 61 9.4 L 61 0.2 L 62.1 0.2 L 62.1 9.4 L 61 9.4 Z M 68.2 9.4 C 68.2 9.4 68.19 8.45 68.2 8.5 C 67.7 9.2 67 9.6 66.1 9.6 C 65.7 9.6 65.3 9.5 64.9 9.4 C 64.6 9.2 64.3 9 64.2 8.8 C 64 8.6 63.9 8.3 63.8 7.9 C 63.8 7.7 63.8 7.4 63.8 6.9 C 63.76 6.88 63.8 2.7 63.8 2.7 L 64.9 2.7 C 64.9 2.7 64.9 6.45 64.9 6.4 C 64.9 7 64.9 7.4 65 7.7 C 65 8 65.2 8.2 65.4 8.4 C 65.7 8.5 65.9 8.6 66.3 8.6 C 66.6 8.6 66.9 8.5 67.2 8.3 C 67.5 8.2 67.8 7.9 67.9 7.6 C 68 7.3 68.1 6.9 68.1 6.3 C 68.07 6.32 68.1 2.7 68.1 2.7 L 69.2 2.7 L 69.2 9.4 L 68.2 9.4 Z M 75.5 7.3 C 75.5 7.3 76.7 7.4 76.7 7.4 C 76.5 8.1 76.2 8.6 75.7 9 C 75.2 9.4 74.5 9.6 73.7 9.6 C 72.8 9.6 72 9.3 71.4 8.7 C 70.8 8.1 70.5 7.2 70.5 6.1 C 70.5 5 70.8 4.1 71.4 3.5 C 72 2.9 72.7 2.6 73.7 2.6 C 74.6 2.6 75.3 2.9 75.9 3.5 C 76.5 4.1 76.7 5 76.7 6.1 C 76.7 6.1 76.7 6.2 76.7 6.4 C 76.7 6.4 71.7 6.4 71.7 6.4 C 71.8 7.1 72 7.7 72.3 8.1 C 72.7 8.5 73.2 8.7 73.7 8.7 C 74.2 8.7 74.5 8.5 74.8 8.3 C 75.1 8.1 75.3 7.8 75.5 7.3 Z M 71.8 5.4 C 71.8 5.4 75.5 5.4 75.5 5.4 C 75.5 4.9 75.3 4.4 75.1 4.2 C 74.7 3.7 74.3 3.5 73.7 3.5 C 73.2 3.5 72.7 3.7 72.4 4 C 72 4.4 71.8 4.8 71.8 5.4 Z " stroke="none" fill="#fff"/>
  </g>
</svg>