<?xml version="1.0" standalone="no"?>
<!DOCTYPE svg PUBLIC "-//W3C//DTD SVG 1.1//EN" "http://www.w3.org/Graphics/SVG/1.1/DTD/svg11.dtd">
<svg xmlns="http://www.w3.org/2000/svg" version="1.1" width="769px" height="250.2px" viewBox="0 -7 769 250.2" style="top:-7px">
  <desc>Advised on a landmark industrial deal that will help support the creation of Europe s first homegrown giga-factory fo</desc>
  <defs/>
  <g id="Polygon58890">
    <path d="M 1.8 38.6 L 1.8 29.5 L 0.2 29.5 L 0.2 28.2 L 1.8 28.2 C 1.8 28.2 1.79 27.18 1.8 27.2 C 1.8 26.2 2 25.4 2.5 24.8 C 2.9 24.3 3.6 24 4.6 24 C 5.2 24 5.8 24.1 6.3 24.2 C 6.3 24.2 6.1 25.7 6.1 25.7 C 5.7 25.7 5.4 25.6 5.1 25.6 C 4.5 25.6 4.1 25.7 3.9 26 C 3.7 26.2 3.5 26.7 3.5 27.5 C 3.54 27.52 3.5 28.2 3.5 28.2 L 5.6 28.2 L 5.6 29.5 L 3.5 29.5 L 3.5 38.6 L 1.8 38.6 Z M 6.9 26.3 L 6.9 24.2 L 8.6 24.2 L 8.6 26.3 L 6.9 26.3 Z M 6.9 38.6 L 6.9 28.2 L 8.6 28.2 L 8.6 38.6 L 6.9 38.6 Z M 11.3 38.6 L 11.3 28.2 L 12.9 28.2 C 12.9 28.2 12.88 29.76 12.9 29.8 C 13.3 29 13.7 28.5 14 28.3 C 14.3 28.1 14.7 28 15.1 28 C 15.7 28 16.3 28.1 16.9 28.5 C 16.9 28.5 16.3 30.2 16.3 30.2 C 15.9 29.9 15.5 29.8 15 29.8 C 14.7 29.8 14.3 29.9 14 30.1 C 13.7 30.3 13.5 30.7 13.3 31.1 C 13.2 31.7 13.1 32.4 13.1 33.1 C 13.06 33.13 13.1 38.6 13.1 38.6 L 11.3 38.6 Z M 17.3 35.5 C 17.3 35.5 19 35.2 19 35.2 C 19.1 35.9 19.4 36.4 19.8 36.8 C 20.3 37.2 20.9 37.3 21.7 37.3 C 22.5 37.3 23.1 37.2 23.5 36.9 C 23.9 36.5 24.1 36.1 24.1 35.7 C 24.1 35.3 23.9 35 23.6 34.8 C 23.3 34.6 22.7 34.4 21.8 34.2 C 20.5 33.8 19.6 33.6 19.1 33.3 C 18.6 33.1 18.2 32.8 18 32.3 C 17.7 31.9 17.6 31.5 17.6 30.9 C 17.6 30.5 17.7 30.1 17.9 29.7 C 18.1 29.3 18.4 28.9 18.8 28.7 C 19 28.5 19.4 28.3 19.9 28.2 C 20.3 28 20.8 28 21.4 28 C 22.2 28 22.9 28.1 23.5 28.3 C 24.1 28.5 24.6 28.9 24.9 29.3 C 25.2 29.7 25.4 30.2 25.5 30.9 C 25.5 30.9 23.8 31.1 23.8 31.1 C 23.7 30.6 23.5 30.1 23.1 29.8 C 22.7 29.6 22.2 29.4 21.5 29.4 C 20.7 29.4 20.1 29.5 19.8 29.8 C 19.4 30.1 19.3 30.4 19.3 30.7 C 19.3 31 19.3 31.2 19.5 31.4 C 19.6 31.5 19.9 31.7 20.2 31.8 C 20.3 31.9 20.8 32 21.7 32.3 C 23 32.6 23.8 32.9 24.3 33.1 C 24.8 33.3 25.2 33.6 25.5 34 C 25.7 34.4 25.9 34.9 25.9 35.5 C 25.9 36.1 25.7 36.7 25.4 37.2 C 25 37.7 24.5 38.1 23.9 38.4 C 23.3 38.7 22.5 38.8 21.7 38.8 C 20.4 38.8 19.3 38.5 18.6 38 C 17.9 37.4 17.5 36.6 17.3 35.5 Z M 31 37.1 C 31.2 37.1 31.5 37 31.8 37 C 31.8 37 32.1 38.5 32.1 38.5 C 31.6 38.6 31.1 38.7 30.7 38.7 C 30.1 38.7 29.6 38.6 29.3 38.4 C 28.9 38.2 28.7 37.9 28.5 37.6 C 28.4 37.3 28.3 36.6 28.3 35.5 C 28.3 35.52 28.3 29.6 28.3 29.6 L 27 29.6 L 27 28.2 L 28.3 28.2 L 28.3 25.6 L 30 24.6 L 30 28.2 L 31.8 28.2 L 31.8 29.6 L 30 29.6 C 30 29.6 30.05 35.62 30 35.6 C 30 36.1 30.1 36.4 30.1 36.6 C 30.2 36.7 30.3 36.8 30.4 36.9 C 30.6 37 30.8 37.1 31 37.1 C 31 37.1 31 37.1 31 37.1 Z M 39.1 38.6 L 39.1 24.2 L 40.8 24.2 C 40.8 24.2 40.85 29.38 40.8 29.4 C 41.7 28.4 42.7 28 44 28 C 44.7 28 45.4 28.1 46 28.4 C 46.5 28.7 46.9 29.1 47.2 29.7 C 47.4 30.2 47.5 31 47.5 32 C 47.54 31.99 47.5 38.6 47.5 38.6 L 45.8 38.6 C 45.8 38.6 45.78 31.99 45.8 32 C 45.8 31.1 45.6 30.5 45.2 30.1 C 44.8 29.7 44.3 29.5 43.6 29.5 C 43.1 29.5 42.6 29.6 42.1 29.9 C 41.7 30.1 41.3 30.5 41.1 31 C 40.9 31.4 40.8 32.1 40.8 32.9 C 40.85 32.89 40.8 38.6 40.8 38.6 L 39.1 38.6 Z M 49.6 33.4 C 49.6 31.5 50.1 30 51.2 29.1 C 52.1 28.3 53.1 28 54.4 28 C 55.8 28 57 28.4 57.9 29.4 C 58.8 30.3 59.3 31.6 59.3 33.2 C 59.3 34.6 59.1 35.6 58.7 36.4 C 58.3 37.1 57.7 37.7 56.9 38.2 C 56.2 38.6 55.3 38.8 54.4 38.8 C 53 38.8 51.8 38.3 50.9 37.4 C 50 36.5 49.6 35.1 49.6 33.4 Z M 51.4 33.4 C 51.4 34.7 51.7 35.7 52.2 36.4 C 52.8 37 53.5 37.3 54.4 37.3 C 55.3 37.3 56 37 56.6 36.4 C 57.2 35.7 57.5 34.7 57.5 33.3 C 57.5 32 57.2 31.1 56.6 30.4 C 56 29.7 55.3 29.4 54.4 29.4 C 53.5 29.4 52.8 29.7 52.2 30.4 C 51.7 31.1 51.4 32 51.4 33.4 Z M 61.3 38.6 L 61.3 28.2 L 62.9 28.2 C 62.9 28.2 62.91 29.64 62.9 29.6 C 63.2 29.1 63.7 28.7 64.2 28.4 C 64.7 28.1 65.4 28 66.1 28 C 66.8 28 67.5 28.1 67.9 28.4 C 68.4 28.8 68.8 29.2 69 29.8 C 69.8 28.6 70.9 28 72.2 28 C 73.2 28 74 28.2 74.6 28.8 C 75.1 29.4 75.4 30.3 75.4 31.4 C 75.39 31.44 75.4 38.6 75.4 38.6 L 73.6 38.6 C 73.6 38.6 73.64 32.03 73.6 32 C 73.6 31.3 73.6 30.8 73.5 30.5 C 73.4 30.2 73.2 30 72.9 29.8 C 72.6 29.6 72.2 29.5 71.8 29.5 C 71.1 29.5 70.5 29.7 70 30.2 C 69.5 30.7 69.3 31.5 69.3 32.5 C 69.26 32.54 69.3 38.6 69.3 38.6 L 67.5 38.6 C 67.5 38.6 67.5 31.82 67.5 31.8 C 67.5 31 67.4 30.5 67.1 30.1 C 66.8 29.7 66.3 29.5 65.7 29.5 C 65.2 29.5 64.7 29.6 64.3 29.9 C 63.9 30.1 63.6 30.5 63.4 31 C 63.2 31.5 63.1 32.2 63.1 33.2 C 63.1 33.18 63.1 38.6 63.1 38.6 L 61.3 38.6 Z M 85.1 35.2 C 85.1 35.2 86.9 35.4 86.9 35.4 C 86.6 36.5 86.1 37.3 85.3 37.9 C 84.5 38.5 83.6 38.8 82.4 38.8 C 80.8 38.8 79.6 38.3 78.7 37.4 C 77.9 36.5 77.4 35.1 77.4 33.5 C 77.4 31.7 77.9 30.4 78.8 29.4 C 79.7 28.4 80.8 28 82.3 28 C 83.6 28 84.8 28.4 85.7 29.4 C 86.5 30.3 87 31.6 87 33.4 C 87 33.5 87 33.6 87 33.8 C 87 33.8 79.2 33.8 79.2 33.8 C 79.3 35 79.6 35.8 80.2 36.4 C 80.8 37 81.5 37.3 82.4 37.3 C 83 37.3 83.6 37.2 84 36.8 C 84.5 36.5 84.8 36 85.1 35.2 Z M 79.3 32.4 C 79.3 32.4 85.1 32.4 85.1 32.4 C 85 31.5 84.8 30.9 84.5 30.4 C 83.9 29.7 83.2 29.4 82.3 29.4 C 81.5 29.4 80.8 29.7 80.2 30.2 C 79.7 30.8 79.4 31.5 79.3 32.4 Z M 88.8 39.4 C 88.8 39.4 90.5 39.7 90.5 39.7 C 90.6 40.2 90.8 40.6 91.1 40.8 C 91.5 41.2 92.1 41.3 92.9 41.3 C 93.7 41.3 94.3 41.2 94.8 40.8 C 95.2 40.5 95.5 40 95.7 39.5 C 95.8 39.1 95.8 38.3 95.8 37.2 C 95 38.1 94.1 38.6 92.9 38.6 C 91.5 38.6 90.4 38 89.6 37 C 88.8 36 88.4 34.8 88.4 33.3 C 88.4 32.3 88.6 31.4 89 30.6 C 89.3 29.7 89.9 29.1 90.5 28.6 C 91.2 28.2 92 28 92.9 28 C 94.2 28 95.2 28.4 96 29.4 C 95.97 29.44 96 28.2 96 28.2 L 97.6 28.2 C 97.6 28.2 97.59 37.15 97.6 37.2 C 97.6 38.8 97.4 39.9 97.1 40.6 C 96.8 41.3 96.2 41.8 95.5 42.2 C 94.8 42.6 93.9 42.8 92.9 42.8 C 91.7 42.8 90.7 42.5 89.9 41.9 C 89.1 41.4 88.8 40.5 88.8 39.4 Z M 90.3 33.2 C 90.3 34.6 90.5 35.5 91.1 36.2 C 91.6 36.8 92.3 37.1 93.1 37.1 C 93.9 37.1 94.6 36.8 95.1 36.2 C 95.7 35.6 95.9 34.6 95.9 33.2 C 95.9 32 95.7 31 95.1 30.4 C 94.5 29.7 93.9 29.4 93.1 29.4 C 92.3 29.4 91.6 29.7 91.1 30.4 C 90.5 31 90.3 31.9 90.3 33.2 Z M 100.2 38.6 L 100.2 28.2 L 101.8 28.2 C 101.8 28.2 101.81 29.76 101.8 29.8 C 102.2 29 102.6 28.5 102.9 28.3 C 103.3 28.1 103.6 28 104.1 28 C 104.6 28 105.2 28.1 105.9 28.5 C 105.9 28.5 105.3 30.2 105.3 30.2 C 104.8 29.9 104.4 29.8 104 29.8 C 103.6 29.8 103.2 29.9 102.9 30.1 C 102.6 30.3 102.4 30.7 102.3 31.1 C 102.1 31.7 102 32.4 102 33.1 C 101.98 33.13 102 38.6 102 38.6 L 100.2 38.6 Z M 106.3 33.4 C 106.3 31.5 106.8 30 107.9 29.1 C 108.7 28.3 109.8 28 111.1 28 C 112.5 28 113.7 28.4 114.6 29.4 C 115.5 30.3 116 31.6 116 33.2 C 116 34.6 115.8 35.6 115.4 36.4 C 115 37.1 114.4 37.7 113.6 38.2 C 112.9 38.6 112 38.8 111.1 38.8 C 109.7 38.8 108.5 38.3 107.6 37.4 C 106.7 36.5 106.3 35.1 106.3 33.4 Z M 108.1 33.4 C 108.1 34.7 108.3 35.7 108.9 36.4 C 109.5 37 110.2 37.3 111.1 37.3 C 112 37.3 112.7 37 113.3 36.4 C 113.9 35.7 114.2 34.7 114.2 33.3 C 114.2 32 113.9 31.1 113.3 30.4 C 112.7 29.7 112 29.4 111.1 29.4 C 110.2 29.4 109.5 29.7 108.9 30.4 C 108.3 31.1 108.1 32 108.1 33.4 Z M 119.9 38.6 L 116.8 28.2 L 118.6 28.2 L 120.2 34.2 C 120.2 34.2 120.85 36.4 120.8 36.4 C 120.9 36.3 121.1 35.6 121.4 34.3 C 121.39 34.26 123 28.2 123 28.2 L 124.8 28.2 L 126.4 34.2 L 126.9 36.2 L 127.5 34.2 L 129.3 28.2 L 131 28.2 L 127.8 38.6 L 125.9 38.6 L 124.3 32.3 L 123.9 30.6 L 121.8 38.6 L 119.9 38.6 Z M 132.5 38.6 L 132.5 28.2 L 134.1 28.2 C 134.1 28.2 134.05 29.66 134.1 29.7 C 134.8 28.5 135.9 28 137.4 28 C 138 28 138.6 28.1 139.1 28.3 C 139.6 28.5 140 28.8 140.3 29.2 C 140.5 29.5 140.7 30 140.8 30.5 C 140.9 30.8 140.9 31.4 140.9 32.2 C 140.9 32.18 140.9 38.6 140.9 38.6 L 139.1 38.6 C 139.1 38.6 139.14 32.25 139.1 32.3 C 139.1 31.5 139.1 31 138.9 30.6 C 138.8 30.3 138.6 30 138.2 29.8 C 137.9 29.6 137.5 29.5 137 29.5 C 136.2 29.5 135.6 29.7 135 30.2 C 134.5 30.7 134.2 31.6 134.2 32.9 C 134.23 32.9 134.2 38.6 134.2 38.6 L 132.5 38.6 Z M 148.8 39.4 C 148.8 39.4 150.5 39.7 150.5 39.7 C 150.6 40.2 150.8 40.6 151.1 40.8 C 151.6 41.2 152.2 41.3 152.9 41.3 C 153.7 41.3 154.4 41.2 154.8 40.8 C 155.2 40.5 155.5 40 155.7 39.5 C 155.8 39.1 155.8 38.3 155.8 37.2 C 155.1 38.1 154.1 38.6 153 38.6 C 151.5 38.6 150.4 38 149.6 37 C 148.9 36 148.5 34.8 148.5 33.3 C 148.5 32.3 148.7 31.4 149 30.6 C 149.4 29.7 149.9 29.1 150.6 28.6 C 151.3 28.2 152.1 28 153 28 C 154.2 28 155.2 28.4 156 29.4 C 156 29.44 156 28.2 156 28.2 L 157.6 28.2 C 157.6 28.2 157.62 37.15 157.6 37.2 C 157.6 38.8 157.5 39.9 157.1 40.6 C 156.8 41.3 156.3 41.8 155.6 42.2 C 154.8 42.6 154 42.8 152.9 42.8 C 151.7 42.8 150.7 42.5 149.9 41.9 C 149.2 41.4 148.8 40.5 148.8 39.4 Z M 150.3 33.2 C 150.3 34.6 150.6 35.5 151.1 36.2 C 151.6 36.8 152.3 37.1 153.1 37.1 C 153.9 37.1 154.6 36.8 155.2 36.2 C 155.7 35.6 156 34.6 156 33.2 C 156 32 155.7 31 155.1 30.4 C 154.6 29.7 153.9 29.4 153.1 29.4 C 152.3 29.4 151.7 29.7 151.1 30.4 C 150.6 31 150.3 31.9 150.3 33.2 Z M 160.3 26.3 L 160.3 24.2 L 162 24.2 L 162 26.3 L 160.3 26.3 Z M 160.3 38.6 L 160.3 28.2 L 162 28.2 L 162 38.6 L 160.3 38.6 Z M 164.4 39.4 C 164.4 39.4 166.1 39.7 166.1 39.7 C 166.2 40.2 166.4 40.6 166.7 40.8 C 167.1 41.2 167.7 41.3 168.5 41.3 C 169.3 41.3 169.9 41.2 170.4 40.8 C 170.8 40.5 171.1 40 171.3 39.5 C 171.4 39.1 171.4 38.3 171.4 37.2 C 170.6 38.1 169.7 38.6 168.5 38.6 C 167.1 38.6 166 38 165.2 37 C 164.4 36 164 34.8 164 33.3 C 164 32.3 164.2 31.4 164.6 30.6 C 164.9 29.7 165.5 29.1 166.1 28.6 C 166.8 28.2 167.6 28 168.5 28 C 169.8 28 170.8 28.4 171.6 29.4 C 171.56 29.44 171.6 28.2 171.6 28.2 L 173.2 28.2 C 173.2 28.2 173.18 37.15 173.2 37.2 C 173.2 38.8 173 39.9 172.7 40.6 C 172.4 41.3 171.8 41.8 171.1 42.2 C 170.4 42.6 169.5 42.8 168.5 42.8 C 167.3 42.8 166.3 42.5 165.5 41.9 C 164.7 41.4 164.4 40.5 164.4 39.4 Z M 165.8 33.2 C 165.8 34.6 166.1 35.5 166.7 36.2 C 167.2 36.8 167.9 37.1 168.7 37.1 C 169.5 37.1 170.2 36.8 170.7 36.2 C 171.3 35.6 171.5 34.6 171.5 33.2 C 171.5 32 171.3 31 170.7 30.4 C 170.1 29.7 169.5 29.4 168.7 29.4 C 167.9 29.4 167.2 29.7 166.7 30.4 C 166.1 31 165.8 31.9 165.8 33.2 Z M 183 38.6 C 182.8 38.2 182.7 37.8 182.6 37.3 C 182 37.8 181.3 38.2 180.7 38.5 C 180.1 38.7 179.5 38.8 178.8 38.8 C 177.6 38.8 176.8 38.5 176.2 38 C 175.6 37.4 175.2 36.7 175.2 35.8 C 175.2 35.3 175.4 34.9 175.6 34.4 C 175.8 34 176.1 33.7 176.5 33.4 C 176.9 33.2 177.3 33 177.8 32.8 C 178.1 32.8 178.6 32.7 179.3 32.6 C 180.7 32.4 181.8 32.2 182.5 32 C 182.5 31.7 182.5 31.6 182.5 31.5 C 182.5 30.8 182.3 30.3 182 30 C 181.5 29.6 180.9 29.4 180 29.4 C 179.1 29.4 178.5 29.6 178.1 29.8 C 177.7 30.1 177.5 30.6 177.3 31.4 C 177.3 31.4 175.5 31.1 175.5 31.1 C 175.7 30.4 176 29.8 176.3 29.4 C 176.7 28.9 177.2 28.6 177.9 28.3 C 178.5 28.1 179.3 28 180.2 28 C 181.1 28 181.8 28.1 182.4 28.3 C 182.9 28.5 183.3 28.7 183.6 29.1 C 183.9 29.4 184 29.8 184.2 30.3 C 184.2 30.5 184.2 31.1 184.2 31.9 C 184.2 31.9 184.2 34.2 184.2 34.2 C 184.2 35.8 184.3 36.9 184.4 37.3 C 184.4 37.7 184.6 38.2 184.8 38.6 C 184.79 38.56 183 38.6 183 38.6 C 183 38.6 182.96 38.56 183 38.6 Z M 182.5 33.4 C 181.8 33.6 180.9 33.8 179.6 34 C 178.9 34.1 178.4 34.2 178.1 34.4 C 177.8 34.5 177.5 34.7 177.4 34.9 C 177.2 35.2 177.1 35.5 177.1 35.8 C 177.1 36.2 177.3 36.6 177.7 36.9 C 178 37.3 178.5 37.4 179.2 37.4 C 179.9 37.4 180.5 37.3 181 37 C 181.5 36.7 181.9 36.3 182.2 35.8 C 182.4 35.4 182.5 34.8 182.5 34 C 182.5 34 182.5 33.4 182.5 33.4 Z M 186.3 34.3 L 186.3 32.5 L 191.7 32.5 L 191.7 34.3 L 186.3 34.3 Z M 194 38.6 L 194 29.6 L 192.5 29.6 L 192.5 28.2 L 194 28.2 C 194 28.2 194.04 27.09 194 27.1 C 194 26.4 194.1 25.9 194.2 25.5 C 194.4 25.1 194.7 24.7 195.1 24.4 C 195.5 24.1 196.1 24 196.9 24 C 197.4 24 198 24.1 198.6 24.2 C 198.6 24.2 198.3 25.7 198.3 25.7 C 197.9 25.6 197.6 25.6 197.3 25.6 C 196.7 25.6 196.3 25.7 196.1 26 C 195.9 26.2 195.8 26.6 195.8 27.2 C 195.79 27.23 195.8 28.2 195.8 28.2 L 197.8 28.2 L 197.8 29.6 L 195.8 29.6 L 195.8 38.6 L 194 38.6 Z M 206.3 38.6 C 206.1 38.2 206 37.8 205.9 37.3 C 205.3 37.8 204.7 38.2 204.1 38.5 C 203.5 38.7 202.8 38.8 202.1 38.8 C 201 38.8 200.1 38.5 199.5 38 C 198.9 37.4 198.6 36.7 198.6 35.8 C 198.6 35.3 198.7 34.9 198.9 34.4 C 199.2 34 199.5 33.7 199.8 33.4 C 200.2 33.2 200.6 33 201.1 32.8 C 201.4 32.8 202 32.7 202.7 32.6 C 204.1 32.4 205.1 32.2 205.8 32 C 205.8 31.7 205.8 31.6 205.8 31.5 C 205.8 30.8 205.6 30.3 205.3 30 C 204.9 29.6 204.2 29.4 203.3 29.4 C 202.5 29.4 201.9 29.6 201.5 29.8 C 201.1 30.1 200.8 30.6 200.6 31.4 C 200.6 31.4 198.9 31.1 198.9 31.1 C 199 30.4 199.3 29.8 199.7 29.4 C 200 28.9 200.5 28.6 201.2 28.3 C 201.9 28.1 202.7 28 203.6 28 C 204.4 28 205.2 28.1 205.7 28.3 C 206.3 28.5 206.7 28.7 206.9 29.1 C 207.2 29.4 207.4 29.8 207.5 30.3 C 207.5 30.5 207.6 31.1 207.6 31.9 C 207.6 31.9 207.6 34.2 207.6 34.2 C 207.6 35.8 207.6 36.9 207.7 37.3 C 207.8 37.7 207.9 38.2 208.1 38.6 C 208.13 38.56 206.3 38.6 206.3 38.6 C 206.3 38.6 206.3 38.56 206.3 38.6 Z M 205.8 33.4 C 205.2 33.6 204.2 33.8 202.9 34 C 202.2 34.1 201.7 34.2 201.4 34.4 C 201.1 34.5 200.9 34.7 200.7 34.9 C 200.5 35.2 200.5 35.5 200.5 35.8 C 200.5 36.2 200.6 36.6 201 36.9 C 201.3 37.3 201.9 37.4 202.5 37.4 C 203.2 37.4 203.8 37.3 204.4 37 C 204.9 36.7 205.3 36.3 205.5 35.8 C 205.7 35.4 205.8 34.8 205.8 34 C 205.8 34 205.8 33.4 205.8 33.4 Z M 217.1 34.8 C 217.1 34.8 218.8 35 218.8 35 C 218.6 36.2 218.1 37.1 217.3 37.8 C 216.6 38.5 215.6 38.8 214.5 38.8 C 213.1 38.8 211.9 38.3 211.1 37.4 C 210.2 36.5 209.8 35.1 209.8 33.4 C 209.8 32.3 210 31.3 210.3 30.5 C 210.7 29.6 211.3 29 212 28.6 C 212.8 28.2 213.6 28 214.5 28 C 215.6 28 216.5 28.2 217.3 28.8 C 218 29.4 218.4 30.2 218.6 31.2 C 218.6 31.2 216.9 31.5 216.9 31.5 C 216.8 30.8 216.5 30.3 216.1 29.9 C 215.6 29.6 215.1 29.4 214.6 29.4 C 213.7 29.4 213 29.7 212.4 30.4 C 211.8 31 211.6 32 211.6 33.4 C 211.6 34.8 211.8 35.8 212.4 36.4 C 212.9 37 213.6 37.3 214.5 37.3 C 215.2 37.3 215.7 37.1 216.2 36.7 C 216.7 36.3 216.9 35.6 217.1 34.8 Z M 223.4 37.1 C 223.6 37.1 223.8 37 224.1 37 C 224.1 37 224.4 38.5 224.4 38.5 C 223.9 38.6 223.5 38.7 223.1 38.7 C 222.4 38.7 221.9 38.6 221.6 38.4 C 221.2 38.2 221 37.9 220.8 37.6 C 220.7 37.3 220.6 36.6 220.6 35.5 C 220.63 35.52 220.6 29.6 220.6 29.6 L 219.3 29.6 L 219.3 28.2 L 220.6 28.2 L 220.6 25.6 L 222.4 24.6 L 222.4 28.2 L 224.1 28.2 L 224.1 29.6 L 222.4 29.6 C 222.4 29.6 222.37 35.62 222.4 35.6 C 222.4 36.1 222.4 36.4 222.5 36.6 C 222.5 36.7 222.6 36.8 222.8 36.9 C 222.9 37 223.1 37.1 223.4 37.1 C 223.4 37.1 223.4 37.1 223.4 37.1 Z M 225.2 33.4 C 225.2 31.5 225.7 30 226.8 29.1 C 227.7 28.3 228.8 28 230.1 28 C 231.5 28 232.7 28.4 233.6 29.4 C 234.5 30.3 234.9 31.6 234.9 33.2 C 234.9 34.6 234.7 35.6 234.3 36.4 C 233.9 37.1 233.3 37.7 232.6 38.2 C 231.8 38.6 231 38.8 230.1 38.8 C 228.6 38.8 227.4 38.3 226.5 37.4 C 225.7 36.5 225.2 35.1 225.2 33.4 Z M 227 33.4 C 227 34.7 227.3 35.7 227.9 36.4 C 228.5 37 229.2 37.3 230.1 37.3 C 230.9 37.3 231.7 37 232.2 36.4 C 232.8 35.7 233.1 34.7 233.1 33.3 C 233.1 32 232.8 31.1 232.2 30.4 C 231.7 29.7 230.9 29.4 230.1 29.4 C 229.2 29.4 228.5 29.7 227.9 30.4 C 227.3 31.1 227 32 227 33.4 Z M 237 38.6 L 237 28.2 L 238.5 28.2 C 238.5 28.2 238.54 29.76 238.5 29.8 C 238.9 29 239.3 28.5 239.7 28.3 C 240 28.1 240.4 28 240.8 28 C 241.4 28 242 28.1 242.6 28.5 C 242.6 28.5 242 30.2 242 30.2 C 241.6 29.9 241.1 29.8 240.7 29.8 C 240.3 29.8 240 29.9 239.7 30.1 C 239.4 30.3 239.1 30.7 239 31.1 C 238.8 31.7 238.7 32.4 238.7 33.1 C 238.72 33.13 238.7 38.6 238.7 38.6 L 237 38.6 Z M 244.7 42.8 C 244.4 42.8 244 42.7 243.6 42.6 C 243.6 42.6 243.4 40.9 243.4 40.9 C 243.8 41 244.1 41.1 244.4 41.1 C 244.8 41.1 245.1 41 245.3 40.9 C 245.5 40.7 245.7 40.6 245.9 40.3 C 246 40.1 246.2 39.7 246.4 39 C 246.5 38.9 246.5 38.8 246.6 38.6 C 246.58 38.58 242.6 28.2 242.6 28.2 L 244.5 28.2 C 244.5 28.2 246.7 34.2 246.7 34.2 C 247 35 247.2 35.8 247.5 36.6 C 247.7 35.8 247.9 35 248.2 34.2 C 248.17 34.23 250.4 28.2 250.4 28.2 L 252.1 28.2 C 252.1 28.2 248.2 38.74 248.2 38.7 C 247.8 39.9 247.5 40.7 247.2 41.1 C 246.9 41.7 246.5 42.1 246.1 42.4 C 245.7 42.6 245.3 42.8 244.7 42.8 C 244.7 42.8 244.7 42.8 244.7 42.8 Z M 259.6 38.6 L 259.6 29.6 L 258.1 29.6 L 258.1 28.2 L 259.6 28.2 C 259.6 28.2 259.62 27.09 259.6 27.1 C 259.6 26.4 259.7 25.9 259.8 25.5 C 260 25.1 260.3 24.7 260.7 24.4 C 261.1 24.1 261.7 24 262.5 24 C 263 24 263.5 24.1 264.1 24.2 C 264.1 24.2 263.9 25.7 263.9 25.7 C 263.5 25.6 263.2 25.6 262.8 25.6 C 262.3 25.6 261.9 25.7 261.7 26 C 261.5 26.2 261.4 26.6 261.4 27.2 C 261.37 27.23 261.4 28.2 261.4 28.2 L 263.4 28.2 L 263.4 29.6 L 261.4 29.6 L 261.4 38.6 L 259.6 38.6 Z M 264.1 33.4 C 264.1 31.5 264.6 30 265.7 29.1 C 266.6 28.3 267.7 28 269 28 C 270.4 28 271.6 28.4 272.5 29.4 C 273.4 30.3 273.8 31.6 273.8 33.2 C 273.8 34.6 273.6 35.6 273.2 36.4 C 272.8 37.1 272.2 37.7 271.5 38.2 C 270.7 38.6 269.9 38.8 269 38.8 C 267.5 38.8 266.3 38.3 265.4 37.4 C 264.5 36.5 264.1 35.1 264.1 33.4 Z M 265.9 33.4 C 265.9 34.7 266.2 35.7 266.8 36.4 C 267.4 37 268.1 37.3 269 37.3 C 269.8 37.3 270.6 37 271.1 36.4 C 271.7 35.7 272 34.7 272 33.3 C 272 32 271.7 31.1 271.1 30.4 C 270.6 29.7 269.8 29.4 269 29.4 C 268.1 29.4 267.4 29.7 266.8 30.4 C 266.2 31.1 265.9 32 265.9 33.4 Z M 275.9 38.6 L 275.9 28.2 L 277.4 28.2 C 277.4 28.2 277.44 29.76 277.4 29.8 C 277.8 29 278.2 28.5 278.6 28.3 C 278.9 28.1 279.3 28 279.7 28 C 280.3 28 280.9 28.1 281.5 28.5 C 281.5 28.5 280.9 30.2 280.9 30.2 C 280.5 29.9 280 29.8 279.6 29.8 C 279.2 29.8 278.9 29.9 278.6 30.1 C 278.3 30.3 278 30.7 277.9 31.1 C 277.7 31.7 277.6 32.4 277.6 33.1 C 277.62 33.13 277.6 38.6 277.6 38.6 L 275.9 38.6 Z M 288.1 38.6 L 288.1 24.2 L 289.8 24.2 L 289.8 38.6 L 288.1 38.6 Z M 292.5 26.3 L 292.5 24.2 L 294.3 24.2 L 294.3 26.3 L 292.5 26.3 Z M 292.5 38.6 L 292.5 28.2 L 294.3 28.2 L 294.3 38.6 L 292.5 38.6 Z M 300 37.1 C 300.2 37.1 300.5 37 300.8 37 C 300.8 37 301.1 38.5 301.1 38.5 C 300.6 38.6 300.1 38.7 299.7 38.7 C 299.1 38.7 298.6 38.6 298.3 38.4 C 297.9 38.2 297.7 37.9 297.5 37.6 C 297.4 37.3 297.3 36.6 297.3 35.5 C 297.3 35.52 297.3 29.6 297.3 29.6 L 296 29.6 L 296 28.2 L 297.3 28.2 L 297.3 25.6 L 299.1 24.6 L 299.1 28.2 L 300.8 28.2 L 300.8 29.6 L 299.1 29.6 C 299.1 29.6 299.05 35.62 299.1 35.6 C 299.1 36.1 299.1 36.4 299.1 36.6 C 299.2 36.7 299.3 36.8 299.4 36.9 C 299.6 37 299.8 37.1 300 37.1 C 300 37.1 300 37.1 300 37.1 Z M 302.5 38.6 L 302.5 24.2 L 304.3 24.2 C 304.3 24.2 304.3 29.38 304.3 29.4 C 305.1 28.4 306.2 28 307.4 28 C 308.2 28 308.8 28.1 309.4 28.4 C 310 28.7 310.4 29.1 310.6 29.7 C 310.9 30.2 311 31 311 32 C 310.99 31.99 311 38.6 311 38.6 L 309.2 38.6 C 309.2 38.6 309.23 31.99 309.2 32 C 309.2 31.1 309 30.5 308.7 30.1 C 308.3 29.7 307.7 29.5 307 29.5 C 306.5 29.5 306 29.6 305.6 29.9 C 305.1 30.1 304.8 30.5 304.6 31 C 304.4 31.4 304.3 32.1 304.3 32.9 C 304.3 32.89 304.3 38.6 304.3 38.6 L 302.5 38.6 Z M 313.7 26.3 L 313.7 24.2 L 315.4 24.2 L 315.4 26.3 L 313.7 26.3 Z M 313.7 38.6 L 313.7 28.2 L 315.4 28.2 L 315.4 38.6 L 313.7 38.6 Z M 324.9 38.6 C 324.9 38.6 324.9 37.04 324.9 37 C 324.1 38.2 323 38.8 321.6 38.8 C 321 38.8 320.4 38.7 319.9 38.4 C 319.4 38.2 319 37.9 318.7 37.6 C 318.5 37.2 318.3 36.8 318.2 36.3 C 318.1 35.9 318.1 35.4 318.1 34.6 C 318.07 34.62 318.1 28.2 318.1 28.2 L 319.8 28.2 C 319.8 28.2 319.82 33.94 319.8 33.9 C 319.8 34.9 319.9 35.5 319.9 35.8 C 320 36.3 320.3 36.6 320.6 36.9 C 321 37.1 321.4 37.3 322 37.3 C 322.5 37.3 323 37.1 323.4 36.9 C 323.9 36.6 324.2 36.2 324.4 35.8 C 324.6 35.3 324.7 34.6 324.7 33.7 C 324.72 33.75 324.7 28.2 324.7 28.2 L 326.5 28.2 L 326.5 38.6 L 324.9 38.6 Z M 329.2 38.6 L 329.2 28.2 L 330.8 28.2 C 330.8 28.2 330.8 29.64 330.8 29.6 C 331.1 29.1 331.6 28.7 332.1 28.4 C 332.6 28.1 333.3 28 333.9 28 C 334.7 28 335.3 28.1 335.8 28.4 C 336.3 28.8 336.7 29.2 336.9 29.8 C 337.7 28.6 338.8 28 340.1 28 C 341.1 28 341.9 28.2 342.5 28.8 C 343 29.4 343.3 30.3 343.3 31.4 C 343.28 31.44 343.3 38.6 343.3 38.6 L 341.5 38.6 C 341.5 38.6 341.53 32.03 341.5 32 C 341.5 31.3 341.5 30.8 341.4 30.5 C 341.2 30.2 341 30 340.7 29.8 C 340.4 29.6 340.1 29.5 339.7 29.5 C 339 29.5 338.4 29.7 337.9 30.2 C 337.4 30.7 337.1 31.5 337.1 32.5 C 337.15 32.54 337.1 38.6 337.1 38.6 L 335.4 38.6 C 335.4 38.6 335.39 31.82 335.4 31.8 C 335.4 31 335.2 30.5 335 30.1 C 334.7 29.7 334.2 29.5 333.6 29.5 C 333.1 29.5 332.6 29.6 332.2 29.9 C 331.8 30.1 331.5 30.5 331.3 31 C 331.1 31.5 331 32.2 331 33.2 C 330.99 33.18 331 38.6 331 38.6 L 329.2 38.6 Z M 345.2 34.3 L 345.2 32.5 L 350.6 32.5 L 350.6 34.3 L 345.2 34.3 Z M 352.6 26.3 L 352.6 24.2 L 354.3 24.2 L 354.3 26.3 L 352.6 26.3 Z M 352.6 38.6 L 352.6 28.2 L 354.3 28.2 L 354.3 38.6 L 352.6 38.6 Z M 356.3 33.4 C 356.3 31.5 356.9 30 357.9 29.1 C 358.8 28.3 359.9 28 361.2 28 C 362.6 28 363.8 28.4 364.7 29.4 C 365.6 30.3 366.1 31.6 366.1 33.2 C 366.1 34.6 365.9 35.6 365.5 36.4 C 365.1 37.1 364.5 37.7 363.7 38.2 C 362.9 38.6 362.1 38.8 361.2 38.8 C 359.7 38.8 358.6 38.3 357.7 37.4 C 356.8 36.5 356.3 35.1 356.3 33.4 Z M 358.1 33.4 C 358.1 34.7 358.4 35.7 359 36.4 C 359.6 37 360.3 37.3 361.2 37.3 C 362.1 37.3 362.8 37 363.4 36.4 C 364 35.7 364.2 34.7 364.2 33.3 C 364.2 32 364 31.1 363.4 30.4 C 362.8 29.7 362.1 29.4 361.2 29.4 C 360.3 29.4 359.6 29.7 359 30.4 C 358.4 31.1 358.1 32 358.1 33.4 Z M 368.1 38.6 L 368.1 28.2 L 369.7 28.2 C 369.7 28.2 369.7 29.66 369.7 29.7 C 370.5 28.5 371.6 28 373 28 C 373.6 28 374.2 28.1 374.7 28.3 C 375.2 28.5 375.6 28.8 375.9 29.2 C 376.2 29.5 376.3 30 376.4 30.5 C 376.5 30.8 376.5 31.4 376.5 32.2 C 376.54 32.18 376.5 38.6 376.5 38.6 L 374.8 38.6 C 374.8 38.6 374.79 32.25 374.8 32.3 C 374.8 31.5 374.7 31 374.6 30.6 C 374.4 30.3 374.2 30 373.9 29.8 C 373.5 29.6 373.1 29.5 372.6 29.5 C 371.9 29.5 371.2 29.7 370.7 30.2 C 370.1 30.7 369.9 31.6 369.9 32.9 C 369.87 32.9 369.9 38.6 369.9 38.6 L 368.1 38.6 Z M 386.4 38.6 L 384.8 38.6 L 384.8 24.2 L 386.5 24.2 C 386.5 24.2 386.54 29.35 386.5 29.4 C 387.3 28.4 388.2 28 389.4 28 C 390 28 390.6 28.1 391.2 28.3 C 391.8 28.6 392.2 29 392.6 29.4 C 393 29.9 393.3 30.5 393.5 31.1 C 393.7 31.8 393.8 32.5 393.8 33.2 C 393.8 35 393.3 36.4 392.5 37.3 C 391.6 38.3 390.5 38.8 389.3 38.8 C 388.1 38.8 387.1 38.3 386.4 37.3 C 386.42 37.26 386.4 38.6 386.4 38.6 Z M 386.4 33.3 C 386.4 34.5 386.6 35.4 386.9 36 C 387.5 36.9 388.2 37.3 389.2 37.3 C 389.9 37.3 390.6 37 391.1 36.3 C 391.7 35.7 392 34.7 392 33.4 C 392 32 391.7 31 391.2 30.4 C 390.6 29.7 390 29.4 389.2 29.4 C 388.5 29.4 387.8 29.7 387.2 30.4 C 386.7 31.1 386.4 32 386.4 33.3 Z M 403 38.6 C 402.9 38.2 402.7 37.8 402.7 37.3 C 402 37.8 401.4 38.2 400.8 38.5 C 400.2 38.7 399.6 38.8 398.9 38.8 C 397.7 38.8 396.9 38.5 396.2 38 C 395.6 37.4 395.3 36.7 395.3 35.8 C 395.3 35.3 395.4 34.9 395.7 34.4 C 395.9 34 396.2 33.7 396.6 33.4 C 397 33.2 397.4 33 397.8 32.8 C 398.2 32.8 398.7 32.7 399.4 32.6 C 400.8 32.4 401.9 32.2 402.5 32 C 402.5 31.7 402.5 31.6 402.5 31.5 C 402.5 30.8 402.4 30.3 402.1 30 C 401.6 29.6 400.9 29.4 400 29.4 C 399.2 29.4 398.6 29.6 398.2 29.8 C 397.8 30.1 397.5 30.6 397.3 31.4 C 397.3 31.4 395.6 31.1 395.6 31.1 C 395.8 30.4 396 29.8 396.4 29.4 C 396.8 28.9 397.3 28.6 397.9 28.3 C 398.6 28.1 399.4 28 400.3 28 C 401.2 28 401.9 28.1 402.5 28.3 C 403 28.5 403.4 28.7 403.7 29.1 C 403.9 29.4 404.1 29.8 404.2 30.3 C 404.3 30.5 404.3 31.1 404.3 31.9 C 404.3 31.9 404.3 34.2 404.3 34.2 C 404.3 35.8 404.4 36.9 404.4 37.3 C 404.5 37.7 404.7 38.2 404.9 38.6 C 404.87 38.56 403 38.6 403 38.6 C 403 38.6 403.04 38.56 403 38.6 Z M 402.5 33.4 C 401.9 33.6 400.9 33.8 399.7 34 C 398.9 34.1 398.4 34.2 398.1 34.4 C 397.8 34.5 397.6 34.7 397.4 34.9 C 397.3 35.2 397.2 35.5 397.2 35.8 C 397.2 36.2 397.4 36.6 397.7 36.9 C 398.1 37.3 398.6 37.4 399.3 37.4 C 400 37.4 400.6 37.3 401.1 37 C 401.6 36.7 402 36.3 402.3 35.8 C 402.4 35.4 402.5 34.8 402.5 34 C 402.5 34 402.5 33.4 402.5 33.4 Z M 410.1 37.1 C 410.3 37.1 410.6 37 410.9 37 C 410.9 37 411.1 38.5 411.1 38.5 C 410.6 38.6 410.2 38.7 409.8 38.7 C 409.2 38.7 408.7 38.6 408.3 38.4 C 408 38.2 407.7 37.9 407.6 37.6 C 407.4 37.3 407.4 36.6 407.4 35.5 C 407.36 35.52 407.4 29.6 407.4 29.6 L 406.1 29.6 L 406.1 28.2 L 407.4 28.2 L 407.4 25.6 L 409.1 24.6 L 409.1 28.2 L 410.9 28.2 L 410.9 29.6 L 409.1 29.6 C 409.1 29.6 409.11 35.62 409.1 35.6 C 409.1 36.1 409.1 36.4 409.2 36.6 C 409.3 36.7 409.4 36.8 409.5 36.9 C 409.6 37 409.8 37.1 410.1 37.1 C 410.1 37.1 410.1 37.1 410.1 37.1 Z M 415.7 37.1 C 415.9 37.1 416.1 37 416.4 37 C 416.4 37 416.7 38.5 416.7 38.5 C 416.2 38.6 415.8 38.7 415.4 38.7 C 414.7 38.7 414.2 38.6 413.9 38.4 C 413.5 38.2 413.3 37.9 413.1 37.6 C 413 37.3 412.9 36.6 412.9 35.5 C 412.92 35.52 412.9 29.6 412.9 29.6 L 411.6 29.6 L 411.6 28.2 L 412.9 28.2 L 412.9 25.6 L 414.7 24.6 L 414.7 28.2 L 416.4 28.2 L 416.4 29.6 L 414.7 29.6 C 414.7 29.6 414.67 35.62 414.7 35.6 C 414.7 36.1 414.7 36.4 414.8 36.6 C 414.8 36.7 414.9 36.8 415.1 36.9 C 415.2 37 415.4 37.1 415.7 37.1 C 415.7 37.1 415.7 37.1 415.7 37.1 Z M 425.3 35.2 C 425.3 35.2 427.1 35.4 427.1 35.4 C 426.8 36.5 426.3 37.3 425.5 37.9 C 424.7 38.5 423.7 38.8 422.5 38.8 C 421 38.8 419.8 38.3 418.9 37.4 C 418 36.5 417.6 35.1 417.6 33.5 C 417.6 31.7 418 30.4 418.9 29.4 C 419.8 28.4 421 28 422.4 28 C 423.8 28 424.9 28.4 425.8 29.4 C 426.7 30.3 427.1 31.6 427.1 33.4 C 427.1 33.5 427.1 33.6 427.1 33.8 C 427.1 33.8 419.4 33.8 419.4 33.8 C 419.4 35 419.8 35.8 420.4 36.4 C 420.9 37 421.7 37.3 422.5 37.3 C 423.2 37.3 423.7 37.2 424.2 36.8 C 424.6 36.5 425 36 425.3 35.2 Z M 419.5 32.4 C 419.5 32.4 425.3 32.4 425.3 32.4 C 425.2 31.5 425 30.9 424.6 30.4 C 424 29.7 423.3 29.4 422.4 29.4 C 421.6 29.4 420.9 29.7 420.4 30.2 C 419.8 30.8 419.5 31.5 419.5 32.4 Z M 429.3 38.6 L 429.3 28.2 L 430.8 28.2 C 430.8 28.2 430.84 29.76 430.8 29.8 C 431.2 29 431.6 28.5 432 28.3 C 432.3 28.1 432.7 28 433.1 28 C 433.7 28 434.3 28.1 434.9 28.5 C 434.9 28.5 434.3 30.2 434.3 30.2 C 433.9 29.9 433.4 29.8 433 29.8 C 432.6 29.8 432.3 29.9 432 30.1 C 431.7 30.3 431.4 30.7 431.3 31.1 C 431.1 31.7 431 32.4 431 33.1 C 431.02 33.13 431 38.6 431 38.6 L 429.3 38.6 Z M 435.9 26.3 L 435.9 24.2 L 437.7 24.2 L 437.7 26.3 L 435.9 26.3 Z M 435.9 38.6 L 435.9 28.2 L 437.7 28.2 L 437.7 38.6 L 435.9 38.6 Z M 447.5 35.2 C 447.5 35.2 449.3 35.4 449.3 35.4 C 449 36.5 448.5 37.3 447.7 37.9 C 446.9 38.5 445.9 38.8 444.7 38.8 C 443.2 38.8 442 38.3 441.1 37.4 C 440.2 36.5 439.8 35.1 439.8 33.5 C 439.8 31.7 440.2 30.4 441.1 29.4 C 442 28.4 443.2 28 444.6 28 C 446 28 447.2 28.4 448 29.4 C 448.9 30.3 449.4 31.6 449.4 33.4 C 449.4 33.5 449.4 33.6 449.3 33.8 C 449.3 33.8 441.6 33.8 441.6 33.8 C 441.7 35 442 35.8 442.6 36.4 C 443.2 37 443.9 37.3 444.7 37.3 C 445.4 37.3 445.9 37.2 446.4 36.8 C 446.9 36.5 447.2 36 447.5 35.2 Z M 441.7 32.4 C 441.7 32.4 447.5 32.4 447.5 32.4 C 447.4 31.5 447.2 30.9 446.8 30.4 C 446.3 29.7 445.6 29.4 444.7 29.4 C 443.9 29.4 443.2 29.7 442.6 30.2 C 442.1 30.8 441.8 31.5 441.7 32.4 Z M 450.8 35.5 C 450.8 35.5 452.5 35.2 452.5 35.2 C 452.6 35.9 452.9 36.4 453.4 36.8 C 453.8 37.2 454.4 37.3 455.2 37.3 C 456 37.3 456.6 37.2 457 36.9 C 457.4 36.5 457.6 36.1 457.6 35.7 C 457.6 35.3 457.4 35 457.1 34.8 C 456.8 34.6 456.3 34.4 455.3 34.2 C 454 33.8 453.1 33.6 452.6 33.3 C 452.1 33.1 451.7 32.8 451.5 32.3 C 451.2 31.9 451.1 31.5 451.1 30.9 C 451.1 30.5 451.2 30.1 451.4 29.7 C 451.6 29.3 451.9 28.9 452.3 28.7 C 452.5 28.5 452.9 28.3 453.4 28.2 C 453.9 28 454.4 28 454.9 28 C 455.7 28 456.4 28.1 457.1 28.3 C 457.7 28.5 458.1 28.9 458.4 29.3 C 458.7 29.7 458.9 30.2 459 30.9 C 459 30.9 457.3 31.1 457.3 31.1 C 457.2 30.6 457 30.1 456.6 29.8 C 456.3 29.6 455.7 29.4 455 29.4 C 454.2 29.4 453.7 29.5 453.3 29.8 C 453 30.1 452.8 30.4 452.8 30.7 C 452.8 31 452.9 31.2 453 31.4 C 453.2 31.5 453.4 31.7 453.7 31.8 C 453.9 31.9 454.4 32 455.2 32.3 C 456.5 32.6 457.3 32.9 457.8 33.1 C 458.3 33.3 458.7 33.6 459 34 C 459.3 34.4 459.4 34.9 459.4 35.5 C 459.4 36.1 459.2 36.7 458.9 37.2 C 458.6 37.7 458.1 38.1 457.4 38.4 C 456.8 38.7 456 38.8 455.2 38.8 C 453.9 38.8 452.9 38.5 452.2 38 C 451.4 37.4 451 36.6 450.8 35.5 Z M 462 38.6 L 462 36.6 L 464 36.6 L 464 38.6 L 462 38.6 Z " stroke="none" fill="#54626c"/>
  </g>
  <g id="Polygon58889">
    <path d="M 0 14.6 L 5.5 0.2 L 7.5 0.2 L 13.4 14.6 L 11.2 14.6 L 9.5 10.2 L 3.6 10.2 L 2 14.6 L 0 14.6 Z M 4.1 8.7 L 9 8.7 C 9 8.7 7.46 4.72 7.5 4.7 C 7 3.5 6.7 2.5 6.4 1.7 C 6.3 2.7 6 3.6 5.7 4.5 C 5.67 4.48 4.1 8.7 4.1 8.7 Z M 21.4 14.6 C 21.4 14.6 21.39 13.25 21.4 13.3 C 20.7 14.3 19.8 14.8 18.5 14.8 C 17.7 14.8 16.9 14.6 16.2 14.1 C 15.5 13.7 15 13 14.6 12.2 C 14.2 11.4 14 10.4 14 9.4 C 14 8.3 14.2 7.4 14.5 6.6 C 14.9 5.7 15.4 5.1 16.1 4.6 C 16.8 4.2 17.6 4 18.4 4 C 19 4 19.6 4.1 20.1 4.4 C 20.6 4.6 21 5 21.3 5.4 C 21.27 5.38 21.3 0.2 21.3 0.2 L 23 0.2 L 23 14.6 L 21.4 14.6 Z M 15.8 9.4 C 15.8 10.7 16.1 11.7 16.7 12.4 C 17.2 13 17.9 13.3 18.7 13.3 C 19.4 13.3 20.1 13 20.6 12.4 C 21.1 11.8 21.4 10.8 21.4 9.5 C 21.4 8.1 21.1 7.1 20.6 6.4 C 20 5.7 19.4 5.4 18.6 5.4 C 17.8 5.4 17.1 5.7 16.6 6.4 C 16.1 7 15.8 8 15.8 9.4 Z M 28.7 14.6 L 24.7 4.2 L 26.6 4.2 C 26.6 4.2 28.8 10.4 28.8 10.4 C 29 11.1 29.3 11.8 29.5 12.5 C 29.6 11.9 29.8 11.3 30.1 10.5 C 30.12 10.52 32.4 4.2 32.4 4.2 L 34.2 4.2 L 30.3 14.6 L 28.7 14.6 Z M 35.8 2.3 L 35.8 0.2 L 37.5 0.2 L 37.5 2.3 L 35.8 2.3 Z M 35.8 14.6 L 35.8 4.2 L 37.5 4.2 L 37.5 14.6 L 35.8 14.6 Z M 39.5 11.5 C 39.5 11.5 41.3 11.2 41.3 11.2 C 41.4 11.9 41.6 12.4 42.1 12.8 C 42.5 13.2 43.1 13.3 43.9 13.3 C 44.8 13.3 45.4 13.2 45.7 12.9 C 46.1 12.5 46.3 12.1 46.3 11.7 C 46.3 11.3 46.2 11 45.8 10.8 C 45.6 10.6 45 10.4 44 10.2 C 42.7 9.8 41.8 9.6 41.3 9.3 C 40.8 9.1 40.5 8.8 40.2 8.3 C 39.9 7.9 39.8 7.5 39.8 6.9 C 39.8 6.5 39.9 6.1 40.1 5.7 C 40.3 5.3 40.6 4.9 41 4.7 C 41.3 4.5 41.6 4.3 42.1 4.2 C 42.6 4 43.1 4 43.6 4 C 44.4 4 45.2 4.1 45.8 4.3 C 46.4 4.5 46.8 4.9 47.1 5.3 C 47.4 5.7 47.6 6.2 47.7 6.9 C 47.7 6.9 46 7.1 46 7.1 C 45.9 6.6 45.7 6.1 45.3 5.8 C 45 5.6 44.4 5.4 43.8 5.4 C 43 5.4 42.4 5.5 42 5.8 C 41.7 6.1 41.5 6.4 41.5 6.7 C 41.5 7 41.6 7.2 41.7 7.4 C 41.9 7.5 42.1 7.7 42.4 7.8 C 42.6 7.9 43.1 8 44 8.3 C 45.2 8.6 46.1 8.9 46.6 9.1 C 47 9.3 47.4 9.6 47.7 10 C 48 10.4 48.1 10.9 48.1 11.5 C 48.1 12.1 48 12.7 47.6 13.2 C 47.3 13.7 46.8 14.1 46.1 14.4 C 45.5 14.7 44.8 14.8 44 14.8 C 42.6 14.8 41.6 14.5 40.9 14 C 40.2 13.4 39.7 12.6 39.5 11.5 Z M 57.3 11.2 C 57.3 11.2 59.1 11.4 59.1 11.4 C 58.9 12.5 58.3 13.3 57.5 13.9 C 56.8 14.5 55.8 14.8 54.6 14.8 C 53.1 14.8 51.9 14.3 51 13.4 C 50.1 12.5 49.6 11.1 49.6 9.5 C 49.6 7.7 50.1 6.4 51 5.4 C 51.9 4.4 53.1 4 54.5 4 C 55.9 4 57 4.4 57.9 5.4 C 58.8 6.3 59.2 7.6 59.2 9.4 C 59.2 9.5 59.2 9.6 59.2 9.8 C 59.2 9.8 51.5 9.8 51.5 9.8 C 51.5 11 51.8 11.8 52.4 12.4 C 53 13 53.7 13.3 54.6 13.3 C 55.2 13.3 55.8 13.2 56.2 12.8 C 56.7 12.5 57.1 12 57.3 11.2 Z M 51.6 8.4 C 51.6 8.4 57.3 8.4 57.3 8.4 C 57.3 7.5 57 6.9 56.7 6.4 C 56.1 5.7 55.4 5.4 54.5 5.4 C 53.7 5.4 53 5.7 52.5 6.2 C 51.9 6.8 51.6 7.5 51.6 8.4 Z M 68.1 14.6 C 68.1 14.6 68.08 13.25 68.1 13.3 C 67.4 14.3 66.5 14.8 65.2 14.8 C 64.3 14.8 63.6 14.6 62.9 14.1 C 62.2 13.7 61.7 13 61.3 12.2 C 60.9 11.4 60.7 10.4 60.7 9.4 C 60.7 8.3 60.9 7.4 61.2 6.6 C 61.6 5.7 62.1 5.1 62.8 4.6 C 63.5 4.2 64.2 4 65.1 4 C 65.7 4 66.3 4.1 66.8 4.4 C 67.3 4.6 67.7 5 68 5.4 C 67.96 5.38 68 0.2 68 0.2 L 69.7 0.2 L 69.7 14.6 L 68.1 14.6 Z M 62.5 9.4 C 62.5 10.7 62.8 11.7 63.4 12.4 C 63.9 13 64.6 13.3 65.3 13.3 C 66.1 13.3 66.8 13 67.3 12.4 C 67.8 11.8 68.1 10.8 68.1 9.5 C 68.1 8.1 67.8 7.1 67.3 6.4 C 66.7 5.7 66.1 5.4 65.3 5.4 C 64.5 5.4 63.8 5.7 63.3 6.4 C 62.8 7 62.5 8 62.5 9.4 Z M 77.4 9.4 C 77.4 7.5 77.9 6 79 5.1 C 79.9 4.3 81 4 82.2 4 C 83.7 4 84.8 4.4 85.7 5.4 C 86.6 6.3 87.1 7.6 87.1 9.2 C 87.1 10.6 86.9 11.6 86.5 12.4 C 86.1 13.1 85.5 13.7 84.7 14.2 C 84 14.6 83.1 14.8 82.2 14.8 C 80.8 14.8 79.6 14.3 78.7 13.4 C 77.8 12.5 77.4 11.1 77.4 9.4 Z M 79.2 9.4 C 79.2 10.7 79.5 11.7 80 12.4 C 80.6 13 81.4 13.3 82.2 13.3 C 83.1 13.3 83.8 13 84.4 12.4 C 85 11.7 85.3 10.7 85.3 9.3 C 85.3 8 85 7.1 84.4 6.4 C 83.8 5.7 83.1 5.4 82.2 5.4 C 81.4 5.4 80.6 5.7 80 6.4 C 79.5 7.1 79.2 8 79.2 9.4 Z M 89.2 14.6 L 89.2 4.2 L 90.7 4.2 C 90.7 4.2 90.73 5.66 90.7 5.7 C 91.5 4.5 92.6 4 94 4 C 94.7 4 95.2 4.1 95.8 4.3 C 96.3 4.5 96.7 4.8 96.9 5.2 C 97.2 5.5 97.4 6 97.5 6.5 C 97.5 6.8 97.6 7.4 97.6 8.2 C 97.58 8.18 97.6 14.6 97.6 14.6 L 95.8 14.6 C 95.8 14.6 95.82 8.25 95.8 8.3 C 95.8 7.5 95.8 7 95.6 6.6 C 95.5 6.3 95.2 6 94.9 5.8 C 94.5 5.6 94.1 5.5 93.7 5.5 C 92.9 5.5 92.3 5.7 91.7 6.2 C 91.2 6.7 90.9 7.6 90.9 8.9 C 90.91 8.9 90.9 14.6 90.9 14.6 L 89.2 14.6 Z M 112.9 14.6 C 112.8 14.2 112.6 13.8 112.6 13.3 C 111.9 13.8 111.3 14.2 110.7 14.5 C 110.1 14.7 109.5 14.8 108.8 14.8 C 107.6 14.8 106.8 14.5 106.2 14 C 105.5 13.4 105.2 12.7 105.2 11.8 C 105.2 11.3 105.3 10.9 105.6 10.4 C 105.8 10 106.1 9.7 106.5 9.4 C 106.9 9.2 107.3 9 107.8 8.8 C 108.1 8.8 108.6 8.7 109.3 8.6 C 110.7 8.4 111.8 8.2 112.5 8 C 112.5 7.7 112.5 7.6 112.5 7.5 C 112.5 6.8 112.3 6.3 112 6 C 111.5 5.6 110.8 5.4 110 5.4 C 109.1 5.4 108.5 5.6 108.1 5.8 C 107.7 6.1 107.4 6.6 107.3 7.4 C 107.3 7.4 105.5 7.1 105.5 7.1 C 105.7 6.4 106 5.8 106.3 5.4 C 106.7 4.9 107.2 4.6 107.9 4.3 C 108.5 4.1 109.3 4 110.2 4 C 111.1 4 111.8 4.1 112.4 4.3 C 112.9 4.5 113.3 4.7 113.6 5.1 C 113.9 5.4 114 5.8 114.1 6.3 C 114.2 6.5 114.2 7.1 114.2 7.9 C 114.2 7.9 114.2 10.2 114.2 10.2 C 114.2 11.8 114.3 12.9 114.3 13.3 C 114.4 13.7 114.6 14.2 114.8 14.6 C 114.79 14.56 112.9 14.6 112.9 14.6 C 112.9 14.6 112.95 14.56 112.9 14.6 Z M 112.5 9.4 C 111.8 9.6 110.9 9.8 109.6 10 C 108.9 10.1 108.3 10.2 108 10.4 C 107.7 10.5 107.5 10.7 107.4 10.9 C 107.2 11.2 107.1 11.5 107.1 11.8 C 107.1 12.2 107.3 12.6 107.6 12.9 C 108 13.3 108.5 13.4 109.2 13.4 C 109.9 13.4 110.5 13.3 111 13 C 111.5 12.7 111.9 12.3 112.2 11.8 C 112.4 11.4 112.5 10.8 112.5 10 C 112.5 10 112.5 9.4 112.5 9.4 Z M 122.5 14.6 L 122.5 0.2 L 124.2 0.2 L 124.2 14.6 L 122.5 14.6 Z M 134.1 14.6 C 133.9 14.2 133.8 13.8 133.7 13.3 C 133.1 13.8 132.4 14.2 131.8 14.5 C 131.2 14.7 130.6 14.8 129.9 14.8 C 128.8 14.8 127.9 14.5 127.3 14 C 126.7 13.4 126.4 12.7 126.4 11.8 C 126.4 11.3 126.5 10.9 126.7 10.4 C 126.9 10 127.2 9.7 127.6 9.4 C 128 9.2 128.4 9 128.9 8.8 C 129.2 8.8 129.7 8.7 130.4 8.6 C 131.9 8.4 132.9 8.2 133.6 8 C 133.6 7.7 133.6 7.6 133.6 7.5 C 133.6 6.8 133.4 6.3 133.1 6 C 132.6 5.6 132 5.4 131.1 5.4 C 130.3 5.4 129.6 5.6 129.3 5.8 C 128.9 6.1 128.6 6.6 128.4 7.4 C 128.4 7.4 126.7 7.1 126.7 7.1 C 126.8 6.4 127.1 5.8 127.4 5.4 C 127.8 4.9 128.3 4.6 129 4.3 C 129.7 4.1 130.4 4 131.3 4 C 132.2 4 132.9 4.1 133.5 4.3 C 134 4.5 134.5 4.7 134.7 5.1 C 135 5.4 135.2 5.8 135.3 6.3 C 135.3 6.5 135.4 7.1 135.4 7.9 C 135.4 7.9 135.4 10.2 135.4 10.2 C 135.4 11.8 135.4 12.9 135.5 13.3 C 135.5 13.7 135.7 14.2 135.9 14.6 C 135.91 14.56 134.1 14.6 134.1 14.6 C 134.1 14.6 134.07 14.56 134.1 14.6 Z M 133.6 9.4 C 132.9 9.6 132 9.8 130.7 10 C 130 10.1 129.5 10.2 129.2 10.4 C 128.9 10.5 128.6 10.7 128.5 10.9 C 128.3 11.2 128.2 11.5 128.2 11.8 C 128.2 12.2 128.4 12.6 128.8 12.9 C 129.1 13.3 129.6 13.4 130.3 13.4 C 131 13.4 131.6 13.3 132.1 13 C 132.7 12.7 133 12.3 133.3 11.8 C 133.5 11.4 133.6 10.8 133.6 10 C 133.6 10 133.6 9.4 133.6 9.4 Z M 138.1 14.6 L 138.1 4.2 L 139.7 4.2 C 139.7 4.2 139.66 5.66 139.7 5.7 C 140.4 4.5 141.5 4 143 4 C 143.6 4 144.2 4.1 144.7 4.3 C 145.2 4.5 145.6 4.8 145.9 5.2 C 146.1 5.5 146.3 6 146.4 6.5 C 146.5 6.8 146.5 7.4 146.5 8.2 C 146.5 8.18 146.5 14.6 146.5 14.6 L 144.7 14.6 C 144.7 14.6 144.75 8.25 144.7 8.3 C 144.7 7.5 144.7 7 144.5 6.6 C 144.4 6.3 144.2 6 143.8 5.8 C 143.5 5.6 143.1 5.5 142.6 5.5 C 141.8 5.5 141.2 5.7 140.6 6.2 C 140.1 6.7 139.8 7.6 139.8 8.9 C 139.83 8.9 139.8 14.6 139.8 14.6 L 138.1 14.6 Z M 155.9 14.6 C 155.9 14.6 155.93 13.25 155.9 13.3 C 155.3 14.3 154.3 14.8 153 14.8 C 152.2 14.8 151.4 14.6 150.7 14.1 C 150.1 13.7 149.5 13 149.1 12.2 C 148.8 11.4 148.6 10.4 148.6 9.4 C 148.6 8.3 148.7 7.4 149.1 6.6 C 149.4 5.7 149.9 5.1 150.6 4.6 C 151.3 4.2 152.1 4 152.9 4 C 153.6 4 154.1 4.1 154.6 4.4 C 155.1 4.6 155.5 5 155.8 5.4 C 155.81 5.38 155.8 0.2 155.8 0.2 L 157.6 0.2 L 157.6 14.6 L 155.9 14.6 Z M 150.4 9.4 C 150.4 10.7 150.7 11.7 151.2 12.4 C 151.8 13 152.4 13.3 153.2 13.3 C 154 13.3 154.6 13 155.2 12.4 C 155.7 11.8 156 10.8 156 9.5 C 156 8.1 155.7 7.1 155.1 6.4 C 154.6 5.7 153.9 5.4 153.1 5.4 C 152.3 5.4 151.7 5.7 151.2 6.4 C 150.6 7 150.4 8 150.4 9.4 Z M 160.3 14.6 L 160.3 4.2 L 161.9 4.2 C 161.9 4.2 161.89 5.64 161.9 5.6 C 162.2 5.1 162.7 4.7 163.2 4.4 C 163.7 4.1 164.3 4 165 4 C 165.8 4 166.4 4.1 166.9 4.4 C 167.4 4.8 167.8 5.2 168 5.8 C 168.8 4.6 169.9 4 171.2 4 C 172.2 4 173 4.2 173.5 4.8 C 174.1 5.4 174.4 6.3 174.4 7.4 C 174.38 7.44 174.4 14.6 174.4 14.6 L 172.6 14.6 C 172.6 14.6 172.63 8.03 172.6 8 C 172.6 7.3 172.6 6.8 172.5 6.5 C 172.3 6.2 172.1 6 171.8 5.8 C 171.5 5.6 171.2 5.5 170.8 5.5 C 170.1 5.5 169.4 5.7 169 6.2 C 168.5 6.7 168.2 7.5 168.2 8.5 C 168.24 8.54 168.2 14.6 168.2 14.6 L 166.5 14.6 C 166.5 14.6 166.48 7.82 166.5 7.8 C 166.5 7 166.3 6.5 166.1 6.1 C 165.8 5.7 165.3 5.5 164.6 5.5 C 164.2 5.5 163.7 5.6 163.3 5.9 C 162.9 6.1 162.6 6.5 162.4 7 C 162.2 7.5 162.1 8.2 162.1 9.2 C 162.08 9.18 162.1 14.6 162.1 14.6 L 160.3 14.6 Z M 184.1 14.6 C 183.9 14.2 183.8 13.8 183.8 13.3 C 183.1 13.8 182.5 14.2 181.9 14.5 C 181.3 14.7 180.6 14.8 179.9 14.8 C 178.8 14.8 177.9 14.5 177.3 14 C 176.7 13.4 176.4 12.7 176.4 11.8 C 176.4 11.3 176.5 10.9 176.7 10.4 C 177 10 177.3 9.7 177.6 9.4 C 178 9.2 178.4 9 178.9 8.8 C 179.3 8.8 179.8 8.7 180.5 8.6 C 181.9 8.4 182.9 8.2 183.6 8 C 183.6 7.7 183.6 7.6 183.6 7.5 C 183.6 6.8 183.4 6.3 183.1 6 C 182.7 5.6 182 5.4 181.1 5.4 C 180.3 5.4 179.7 5.6 179.3 5.8 C 178.9 6.1 178.6 6.6 178.4 7.4 C 178.4 7.4 176.7 7.1 176.7 7.1 C 176.8 6.4 177.1 5.8 177.5 5.4 C 177.8 4.9 178.3 4.6 179 4.3 C 179.7 4.1 180.5 4 181.4 4 C 182.3 4 183 4.1 183.5 4.3 C 184.1 4.5 184.5 4.7 184.7 5.1 C 185 5.4 185.2 5.8 185.3 6.3 C 185.4 6.5 185.4 7.1 185.4 7.9 C 185.4 7.9 185.4 10.2 185.4 10.2 C 185.4 11.8 185.4 12.9 185.5 13.3 C 185.6 13.7 185.7 14.2 185.9 14.6 C 185.94 14.56 184.1 14.6 184.1 14.6 C 184.1 14.6 184.1 14.56 184.1 14.6 Z M 183.6 9.4 C 183 9.6 182 9.8 180.7 10 C 180 10.1 179.5 10.2 179.2 10.4 C 178.9 10.5 178.7 10.7 178.5 10.9 C 178.3 11.2 178.3 11.5 178.3 11.8 C 178.3 12.2 178.4 12.6 178.8 12.9 C 179.1 13.3 179.7 13.4 180.4 13.4 C 181 13.4 181.6 13.3 182.2 13 C 182.7 12.7 183.1 12.3 183.3 11.8 C 183.5 11.4 183.6 10.8 183.6 10 C 183.6 10 183.6 9.4 183.6 9.4 Z M 188.1 14.6 L 188.1 4.2 L 189.7 4.2 C 189.7 4.2 189.67 5.76 189.7 5.8 C 190.1 5 190.4 4.5 190.8 4.3 C 191.1 4.1 191.5 4 191.9 4 C 192.5 4 193.1 4.1 193.7 4.5 C 193.7 4.5 193.1 6.2 193.1 6.2 C 192.7 5.9 192.3 5.8 191.8 5.8 C 191.4 5.8 191.1 5.9 190.8 6.1 C 190.5 6.3 190.3 6.7 190.1 7.1 C 189.9 7.7 189.8 8.4 189.8 9.1 C 189.84 9.13 189.8 14.6 189.8 14.6 L 188.1 14.6 Z M 194.8 14.6 L 194.8 0.2 L 196.5 0.2 L 196.5 8.4 L 200.7 4.2 L 203 4.2 L 199 8 L 203.4 14.6 L 201.2 14.6 L 197.8 9.3 L 196.5 10.4 L 196.5 14.6 L 194.8 14.6 Z M 210.3 2.3 L 210.3 0.2 L 212.1 0.2 L 212.1 2.3 L 210.3 2.3 Z M 210.3 14.6 L 210.3 4.2 L 212.1 4.2 L 212.1 14.6 L 210.3 14.6 Z M 214.8 14.6 L 214.8 4.2 L 216.3 4.2 C 216.3 4.2 216.35 5.66 216.3 5.7 C 217.1 4.5 218.2 4 219.6 4 C 220.3 4 220.8 4.1 221.4 4.3 C 221.9 4.5 222.3 4.8 222.5 5.2 C 222.8 5.5 223 6 223.1 6.5 C 223.2 6.8 223.2 7.4 223.2 8.2 C 223.19 8.18 223.2 14.6 223.2 14.6 L 221.4 14.6 C 221.4 14.6 221.44 8.25 221.4 8.3 C 221.4 7.5 221.4 7 221.2 6.6 C 221.1 6.3 220.9 6 220.5 5.8 C 220.2 5.6 219.7 5.5 219.3 5.5 C 218.5 5.5 217.9 5.7 217.3 6.2 C 216.8 6.7 216.5 7.6 216.5 8.9 C 216.52 8.9 216.5 14.6 216.5 14.6 L 214.8 14.6 Z M 232.6 14.6 C 232.6 14.6 232.62 13.25 232.6 13.3 C 232 14.3 231 14.8 229.7 14.8 C 228.9 14.8 228.1 14.6 227.4 14.1 C 226.7 13.7 226.2 13 225.8 12.2 C 225.4 11.4 225.3 10.4 225.3 9.4 C 225.3 8.3 225.4 7.4 225.8 6.6 C 226.1 5.7 226.6 5.1 227.3 4.6 C 228 4.2 228.8 4 229.6 4 C 230.3 4 230.8 4.1 231.3 4.4 C 231.8 4.6 232.2 5 232.5 5.4 C 232.5 5.38 232.5 0.2 232.5 0.2 L 234.2 0.2 L 234.2 14.6 L 232.6 14.6 Z M 227.1 9.4 C 227.1 10.7 227.3 11.7 227.9 12.4 C 228.5 13 229.1 13.3 229.9 13.3 C 230.7 13.3 231.3 13 231.8 12.4 C 232.4 11.8 232.6 10.8 232.6 9.5 C 232.6 8.1 232.4 7.1 231.8 6.4 C 231.3 5.7 230.6 5.4 229.8 5.4 C 229 5.4 228.4 5.7 227.8 6.4 C 227.3 7 227.1 8 227.1 9.4 Z M 243.8 14.6 C 243.8 14.6 243.81 13.04 243.8 13 C 243 14.2 241.9 14.8 240.5 14.8 C 239.9 14.8 239.3 14.7 238.8 14.4 C 238.3 14.2 237.9 13.9 237.6 13.6 C 237.4 13.2 237.2 12.8 237.1 12.3 C 237 11.9 237 11.4 237 10.6 C 236.97 10.62 237 4.2 237 4.2 L 238.7 4.2 C 238.7 4.2 238.73 9.94 238.7 9.9 C 238.7 10.9 238.8 11.5 238.8 11.8 C 238.9 12.3 239.2 12.6 239.5 12.9 C 239.9 13.1 240.3 13.3 240.9 13.3 C 241.4 13.3 241.9 13.1 242.4 12.9 C 242.8 12.6 243.1 12.2 243.3 11.8 C 243.5 11.3 243.6 10.6 243.6 9.7 C 243.62 9.75 243.6 4.2 243.6 4.2 L 245.4 4.2 L 245.4 14.6 L 243.8 14.6 Z M 247.4 11.5 C 247.4 11.5 249.2 11.2 249.2 11.2 C 249.3 11.9 249.5 12.4 250 12.8 C 250.4 13.2 251.1 13.3 251.9 13.3 C 252.7 13.3 253.3 13.2 253.7 12.9 C 254 12.5 254.2 12.1 254.2 11.7 C 254.2 11.3 254.1 11 253.7 10.8 C 253.5 10.6 252.9 10.4 251.9 10.2 C 250.6 9.8 249.7 9.6 249.2 9.3 C 248.7 9.1 248.4 8.8 248.1 8.3 C 247.9 7.9 247.7 7.5 247.7 6.9 C 247.7 6.5 247.8 6.1 248 5.7 C 248.3 5.3 248.5 4.9 248.9 4.7 C 249.2 4.5 249.6 4.3 250 4.2 C 250.5 4 251 4 251.5 4 C 252.4 4 253.1 4.1 253.7 4.3 C 254.3 4.5 254.8 4.9 255 5.3 C 255.3 5.7 255.5 6.2 255.7 6.9 C 255.7 6.9 253.9 7.1 253.9 7.1 C 253.9 6.6 253.6 6.1 253.3 5.8 C 252.9 5.6 252.4 5.4 251.7 5.4 C 250.9 5.4 250.3 5.5 249.9 5.8 C 249.6 6.1 249.4 6.4 249.4 6.7 C 249.4 7 249.5 7.2 249.6 7.4 C 249.8 7.5 250 7.7 250.3 7.8 C 250.5 7.9 251 8 251.9 8.3 C 253.1 8.6 254 8.9 254.5 9.1 C 255 9.3 255.3 9.6 255.6 10 C 255.9 10.4 256 10.9 256 11.5 C 256 12.1 255.9 12.7 255.5 13.2 C 255.2 13.7 254.7 14.1 254.1 14.4 C 253.4 14.7 252.7 14.8 251.9 14.8 C 250.5 14.8 249.5 14.5 248.8 14 C 248.1 13.4 247.6 12.6 247.4 11.5 Z M 261.2 13.1 C 261.4 13.1 261.7 13 262 13 C 262 13 262.2 14.5 262.2 14.5 C 261.7 14.6 261.3 14.7 260.9 14.7 C 260.3 14.7 259.8 14.6 259.4 14.4 C 259.1 14.2 258.8 13.9 258.7 13.6 C 258.5 13.3 258.5 12.6 258.5 11.5 C 258.46 11.52 258.5 5.6 258.5 5.6 L 257.2 5.6 L 257.2 4.2 L 258.5 4.2 L 258.5 1.6 L 260.2 0.6 L 260.2 4.2 L 262 4.2 L 262 5.6 L 260.2 5.6 C 260.2 5.6 260.21 11.62 260.2 11.6 C 260.2 12.1 260.2 12.4 260.3 12.6 C 260.4 12.7 260.5 12.8 260.6 12.9 C 260.7 13 260.9 13.1 261.2 13.1 C 261.2 13.1 261.2 13.1 261.2 13.1 Z M 263.7 14.6 L 263.7 4.2 L 265.3 4.2 C 265.3 4.2 265.25 5.76 265.3 5.8 C 265.7 5 266 4.5 266.4 4.3 C 266.7 4.1 267.1 4 267.5 4 C 268.1 4 268.7 4.1 269.3 4.5 C 269.3 4.5 268.7 6.2 268.7 6.2 C 268.3 5.9 267.8 5.8 267.4 5.8 C 267 5.8 266.7 5.9 266.4 6.1 C 266.1 6.3 265.9 6.7 265.7 7.1 C 265.5 7.7 265.4 8.4 265.4 9.1 C 265.43 9.13 265.4 14.6 265.4 14.6 L 263.7 14.6 Z M 270.4 2.3 L 270.4 0.2 L 272.1 0.2 L 272.1 2.3 L 270.4 2.3 Z M 270.4 14.6 L 270.4 4.2 L 272.1 4.2 L 272.1 14.6 L 270.4 14.6 Z M 281.9 14.6 C 281.7 14.2 281.6 13.8 281.6 13.3 C 280.9 13.8 280.3 14.2 279.7 14.5 C 279.1 14.7 278.4 14.8 277.7 14.8 C 276.6 14.8 275.7 14.5 275.1 14 C 274.5 13.4 274.2 12.7 274.2 11.8 C 274.2 11.3 274.3 10.9 274.5 10.4 C 274.8 10 275.1 9.7 275.5 9.4 C 275.8 9.2 276.3 9 276.7 8.8 C 277.1 8.8 277.6 8.7 278.3 8.6 C 279.7 8.4 280.7 8.2 281.4 8 C 281.4 7.7 281.4 7.6 281.4 7.5 C 281.4 6.8 281.3 6.3 280.9 6 C 280.5 5.6 279.8 5.4 278.9 5.4 C 278.1 5.4 277.5 5.6 277.1 5.8 C 276.7 6.1 276.4 6.6 276.2 7.4 C 276.2 7.4 274.5 7.1 274.5 7.1 C 274.7 6.4 274.9 5.8 275.3 5.4 C 275.6 4.9 276.1 4.6 276.8 4.3 C 277.5 4.1 278.3 4 279.2 4 C 280.1 4 280.8 4.1 281.3 4.3 C 281.9 4.5 282.3 4.7 282.6 5.1 C 282.8 5.4 283 5.8 283.1 6.3 C 283.2 6.5 283.2 7.1 283.2 7.9 C 283.2 7.9 283.2 10.2 283.2 10.2 C 283.2 11.8 283.2 12.9 283.3 13.3 C 283.4 13.7 283.5 14.2 283.8 14.6 C 283.75 14.56 281.9 14.6 281.9 14.6 C 281.9 14.6 281.91 14.56 281.9 14.6 Z M 281.4 9.4 C 280.8 9.6 279.8 9.8 278.5 10 C 277.8 10.1 277.3 10.2 277 10.4 C 276.7 10.5 276.5 10.7 276.3 10.9 C 276.2 11.2 276.1 11.5 276.1 11.8 C 276.1 12.2 276.3 12.6 276.6 12.9 C 277 13.3 277.5 13.4 278.2 13.4 C 278.8 13.4 279.4 13.3 280 13 C 280.5 12.7 280.9 12.3 281.1 11.8 C 281.3 11.4 281.4 10.8 281.4 10 C 281.4 10 281.4 9.4 281.4 9.4 Z M 285.9 14.6 L 285.9 0.2 L 287.6 0.2 L 287.6 14.6 L 285.9 14.6 Z M 302.6 14.6 C 302.6 14.6 302.65 13.25 302.6 13.3 C 302 14.3 301 14.8 299.7 14.8 C 298.9 14.8 298.2 14.6 297.5 14.1 C 296.8 13.7 296.2 13 295.9 12.2 C 295.5 11.4 295.3 10.4 295.3 9.4 C 295.3 8.3 295.5 7.4 295.8 6.6 C 296.1 5.7 296.7 5.1 297.4 4.6 C 298 4.2 298.8 4 299.7 4 C 300.3 4 300.8 4.1 301.3 4.4 C 301.8 4.6 302.2 5 302.5 5.4 C 302.53 5.38 302.5 0.2 302.5 0.2 L 304.3 0.2 L 304.3 14.6 L 302.6 14.6 Z M 297.1 9.4 C 297.1 10.7 297.4 11.7 297.9 12.4 C 298.5 13 299.2 13.3 299.9 13.3 C 300.7 13.3 301.3 13 301.9 12.4 C 302.4 11.8 302.7 10.8 302.7 9.5 C 302.7 8.1 302.4 7.1 301.9 6.4 C 301.3 5.7 300.6 5.4 299.8 5.4 C 299.1 5.4 298.4 5.7 297.9 6.4 C 297.4 7 297.1 8 297.1 9.4 Z M 314.1 11.2 C 314.1 11.2 316 11.4 316 11.4 C 315.7 12.5 315.1 13.3 314.4 13.9 C 313.6 14.5 312.6 14.8 311.4 14.8 C 309.9 14.8 308.7 14.3 307.8 13.4 C 306.9 12.5 306.5 11.1 306.5 9.5 C 306.5 7.7 306.9 6.4 307.8 5.4 C 308.7 4.4 309.9 4 311.3 4 C 312.7 4 313.8 4.4 314.7 5.4 C 315.6 6.3 316 7.6 316 9.4 C 316 9.5 316 9.6 316 9.8 C 316 9.8 308.3 9.8 308.3 9.8 C 308.3 11 308.7 11.8 309.2 12.4 C 309.8 13 310.5 13.3 311.4 13.3 C 312.1 13.3 312.6 13.2 313.1 12.8 C 313.5 12.5 313.9 12 314.1 11.2 Z M 308.4 8.4 C 308.4 8.4 314.2 8.4 314.2 8.4 C 314.1 7.5 313.9 6.9 313.5 6.4 C 312.9 5.7 312.2 5.4 311.3 5.4 C 310.5 5.4 309.8 5.7 309.3 6.2 C 308.7 6.8 308.4 7.5 308.4 8.4 Z M 325.3 14.6 C 325.1 14.2 325 13.8 324.9 13.3 C 324.3 13.8 323.7 14.2 323.1 14.5 C 322.4 14.7 321.8 14.8 321.1 14.8 C 320 14.8 319.1 14.5 318.5 14 C 317.9 13.4 317.6 12.7 317.6 11.8 C 317.6 11.3 317.7 10.9 317.9 10.4 C 318.1 10 318.4 9.7 318.8 9.4 C 319.2 9.2 319.6 9 320.1 8.8 C 320.4 8.8 321 8.7 321.7 8.6 C 323.1 8.4 324.1 8.2 324.8 8 C 324.8 7.7 324.8 7.6 324.8 7.5 C 324.8 6.8 324.6 6.3 324.3 6 C 323.8 5.6 323.2 5.4 322.3 5.4 C 321.5 5.4 320.9 5.6 320.5 5.8 C 320.1 6.1 319.8 6.6 319.6 7.4 C 319.6 7.4 317.9 7.1 317.9 7.1 C 318 6.4 318.3 5.8 318.6 5.4 C 319 4.9 319.5 4.6 320.2 4.3 C 320.9 4.1 321.7 4 322.5 4 C 323.4 4 324.2 4.1 324.7 4.3 C 325.3 4.5 325.7 4.7 325.9 5.1 C 326.2 5.4 326.4 5.8 326.5 6.3 C 326.5 6.5 326.6 7.1 326.6 7.9 C 326.6 7.9 326.6 10.2 326.6 10.2 C 326.6 11.8 326.6 12.9 326.7 13.3 C 326.7 13.7 326.9 14.2 327.1 14.6 C 327.12 14.56 325.3 14.6 325.3 14.6 C 325.3 14.6 325.28 14.56 325.3 14.6 Z M 324.8 9.4 C 324.1 9.6 323.2 9.8 321.9 10 C 321.2 10.1 320.7 10.2 320.4 10.4 C 320.1 10.5 319.9 10.7 319.7 10.9 C 319.5 11.2 319.4 11.5 319.4 11.8 C 319.4 12.2 319.6 12.6 320 12.9 C 320.3 13.3 320.8 13.4 321.5 13.4 C 322.2 13.4 322.8 13.3 323.3 13 C 323.9 12.7 324.3 12.3 324.5 11.8 C 324.7 11.4 324.8 10.8 324.8 10 C 324.8 10 324.8 9.4 324.8 9.4 Z M 329.2 14.6 L 329.2 0.2 L 331 0.2 L 331 14.6 L 329.2 14.6 Z M 342.4 13.1 C 342.5 13.1 342.8 13 343.1 13 C 343.1 13 343.4 14.5 343.4 14.5 C 342.9 14.6 342.4 14.7 342.1 14.7 C 341.4 14.7 340.9 14.6 340.6 14.4 C 340.2 14.2 340 13.9 339.8 13.6 C 339.7 13.3 339.6 12.6 339.6 11.5 C 339.61 11.52 339.6 5.6 339.6 5.6 L 338.3 5.6 L 338.3 4.2 L 339.6 4.2 L 339.6 1.6 L 341.4 0.6 L 341.4 4.2 L 343.1 4.2 L 343.1 5.6 L 341.4 5.6 C 341.4 5.6 341.36 11.62 341.4 11.6 C 341.4 12.1 341.4 12.4 341.5 12.6 C 341.5 12.7 341.6 12.8 341.8 12.9 C 341.9 13 342.1 13.1 342.4 13.1 C 342.4 13.1 342.4 13.1 342.4 13.1 Z M 344.8 14.6 L 344.8 0.2 L 346.6 0.2 C 346.6 0.2 346.6 5.38 346.6 5.4 C 347.4 4.4 348.5 4 349.7 4 C 350.5 4 351.1 4.1 351.7 4.4 C 352.3 4.7 352.7 5.1 352.9 5.7 C 353.2 6.2 353.3 7 353.3 8 C 353.29 7.99 353.3 14.6 353.3 14.6 L 351.5 14.6 C 351.5 14.6 351.53 7.99 351.5 8 C 351.5 7.1 351.3 6.5 351 6.1 C 350.6 5.7 350 5.5 349.3 5.5 C 348.8 5.5 348.3 5.6 347.9 5.9 C 347.4 6.1 347.1 6.5 346.9 7 C 346.7 7.4 346.6 8.1 346.6 8.9 C 346.6 8.89 346.6 14.6 346.6 14.6 L 344.8 14.6 Z M 363.1 14.6 C 362.9 14.2 362.8 13.8 362.7 13.3 C 362.1 13.8 361.5 14.2 360.9 14.5 C 360.3 14.7 359.6 14.8 358.9 14.8 C 357.8 14.8 356.9 14.5 356.3 14 C 355.7 13.4 355.4 12.7 355.4 11.8 C 355.4 11.3 355.5 10.9 355.7 10.4 C 355.9 10 356.3 9.7 356.6 9.4 C 357 9.2 357.4 9 357.9 8.8 C 358.2 8.8 358.8 8.7 359.5 8.6 C 360.9 8.4 361.9 8.2 362.6 8 C 362.6 7.7 362.6 7.6 362.6 7.5 C 362.6 6.8 362.4 6.3 362.1 6 C 361.7 5.6 361 5.4 360.1 5.4 C 359.3 5.4 358.7 5.6 358.3 5.8 C 357.9 6.1 357.6 6.6 357.4 7.4 C 357.4 7.4 355.7 7.1 355.7 7.1 C 355.8 6.4 356.1 5.8 356.4 5.4 C 356.8 4.9 357.3 4.6 358 4.3 C 358.7 4.1 359.5 4 360.4 4 C 361.2 4 362 4.1 362.5 4.3 C 363.1 4.5 363.5 4.7 363.7 5.1 C 364 5.4 364.2 5.8 364.3 6.3 C 364.3 6.5 364.4 7.1 364.4 7.9 C 364.4 7.9 364.4 10.2 364.4 10.2 C 364.4 11.8 364.4 12.9 364.5 13.3 C 364.6 13.7 364.7 14.2 364.9 14.6 C 364.92 14.56 363.1 14.6 363.1 14.6 C 363.1 14.6 363.09 14.56 363.1 14.6 Z M 362.6 9.4 C 361.9 9.6 361 9.8 359.7 10 C 359 10.1 358.5 10.2 358.2 10.4 C 357.9 10.5 357.7 10.7 357.5 10.9 C 357.3 11.2 357.2 11.5 357.2 11.8 C 357.2 12.2 357.4 12.6 357.8 12.9 C 358.1 13.3 358.7 13.4 359.3 13.4 C 360 13.4 360.6 13.3 361.1 13 C 361.7 12.7 362.1 12.3 362.3 11.8 C 362.5 11.4 362.6 10.8 362.6 10 C 362.6 10 362.6 9.4 362.6 9.4 Z M 370.2 13.1 C 370.4 13.1 370.6 13 370.9 13 C 370.9 13 371.2 14.5 371.2 14.5 C 370.7 14.6 370.2 14.7 369.9 14.7 C 369.2 14.7 368.7 14.6 368.4 14.4 C 368 14.2 367.8 13.9 367.6 13.6 C 367.5 13.3 367.4 12.6 367.4 11.5 C 367.41 11.52 367.4 5.6 367.4 5.6 L 366.1 5.6 L 366.1 4.2 L 367.4 4.2 L 367.4 1.6 L 369.2 0.6 L 369.2 4.2 L 370.9 4.2 L 370.9 5.6 L 369.2 5.6 C 369.2 5.6 369.16 11.62 369.2 11.6 C 369.2 12.1 369.2 12.4 369.3 12.6 C 369.3 12.7 369.4 12.8 369.6 12.9 C 369.7 13 369.9 13.1 370.2 13.1 C 370.2 13.1 370.2 13.1 370.2 13.1 Z M 380.1 14.6 L 376.9 4.2 L 378.8 4.2 L 380.4 10.2 C 380.4 10.2 381.03 12.4 381 12.4 C 381.1 12.3 381.2 11.6 381.6 10.3 C 381.56 10.26 383.2 4.2 383.2 4.2 L 385 4.2 L 386.6 10.2 L 387.1 12.2 L 387.7 10.2 L 389.5 4.2 L 391.2 4.2 L 387.9 14.6 L 386.1 14.6 L 384.5 8.3 L 384.1 6.6 L 382 14.6 L 380.1 14.6 Z M 392.7 2.3 L 392.7 0.2 L 394.4 0.2 L 394.4 2.3 L 392.7 2.3 Z M 392.7 14.6 L 392.7 4.2 L 394.4 4.2 L 394.4 14.6 L 392.7 14.6 Z M 397.1 14.6 L 397.1 0.2 L 398.8 0.2 L 398.8 14.6 L 397.1 14.6 Z M 401.5 14.6 L 401.5 0.2 L 403.3 0.2 L 403.3 14.6 L 401.5 14.6 Z M 411.5 14.6 L 411.5 0.2 L 413.3 0.2 C 413.3 0.2 413.29 5.38 413.3 5.4 C 414.1 4.4 415.1 4 416.4 4 C 417.2 4 417.8 4.1 418.4 4.4 C 419 4.7 419.4 5.1 419.6 5.7 C 419.9 6.2 420 7 420 8 C 419.98 7.99 420 14.6 420 14.6 L 418.2 14.6 C 418.2 14.6 418.22 7.99 418.2 8 C 418.2 7.1 418 6.5 417.7 6.1 C 417.3 5.7 416.7 5.5 416 5.5 C 415.5 5.5 415 5.6 414.6 5.9 C 414.1 6.1 413.8 6.5 413.6 7 C 413.4 7.4 413.3 8.1 413.3 8.9 C 413.29 8.89 413.3 14.6 413.3 14.6 L 411.5 14.6 Z M 429.8 11.2 C 429.8 11.2 431.6 11.4 431.6 11.4 C 431.3 12.5 430.8 13.3 430 13.9 C 429.2 14.5 428.2 14.8 427 14.8 C 425.5 14.8 424.3 14.3 423.4 13.4 C 422.5 12.5 422.1 11.1 422.1 9.5 C 422.1 7.7 422.5 6.4 423.4 5.4 C 424.3 4.4 425.5 4 426.9 4 C 428.3 4 429.4 4.4 430.3 5.4 C 431.2 6.3 431.6 7.6 431.6 9.4 C 431.6 9.5 431.6 9.6 431.6 9.8 C 431.6 9.8 423.9 9.8 423.9 9.8 C 424 11 424.3 11.8 424.9 12.4 C 425.4 13 426.2 13.3 427 13.3 C 427.7 13.3 428.2 13.2 428.7 12.8 C 429.1 12.5 429.5 12 429.8 11.2 Z M 424 8.4 C 424 8.4 429.8 8.4 429.8 8.4 C 429.7 7.5 429.5 6.9 429.1 6.4 C 428.6 5.7 427.8 5.4 426.9 5.4 C 426.1 5.4 425.4 5.7 424.9 6.2 C 424.3 6.8 424 7.5 424 8.4 Z M 433.7 14.6 L 433.7 0.2 L 435.5 0.2 L 435.5 14.6 L 433.7 14.6 Z M 438.2 18.5 L 438.2 4.2 L 439.8 4.2 C 439.8 4.2 439.82 5.54 439.8 5.5 C 440.2 5 440.6 4.6 441.1 4.4 C 441.6 4.1 442.2 4 442.8 4 C 443.7 4 444.5 4.2 445.2 4.6 C 445.9 5.1 446.4 5.7 446.7 6.6 C 447.1 7.4 447.2 8.3 447.2 9.3 C 447.2 10.4 447 11.3 446.7 12.2 C 446.3 13 445.7 13.7 445 14.1 C 444.3 14.6 443.5 14.8 442.7 14.8 C 442.1 14.8 441.6 14.7 441.1 14.4 C 440.7 14.2 440.3 13.9 440 13.5 C 439.98 13.49 440 18.5 440 18.5 L 438.2 18.5 Z M 439.8 9.4 C 439.8 10.8 440.1 11.8 440.6 12.4 C 441.2 13 441.8 13.3 442.6 13.3 C 443.4 13.3 444 13 444.6 12.4 C 445.2 11.7 445.4 10.7 445.4 9.3 C 445.4 8 445.2 7 444.6 6.3 C 444.1 5.7 443.4 5.3 442.7 5.3 C 441.9 5.3 441.3 5.7 440.7 6.4 C 440.1 7.1 439.8 8.1 439.8 9.4 Z M 454.2 11.5 C 454.2 11.5 455.9 11.2 455.9 11.2 C 456 11.9 456.3 12.4 456.8 12.8 C 457.2 13.2 457.8 13.3 458.6 13.3 C 459.4 13.3 460 13.2 460.4 12.9 C 460.8 12.5 461 12.1 461 11.7 C 461 11.3 460.8 11 460.5 10.8 C 460.2 10.6 459.6 10.4 458.7 10.2 C 457.4 9.8 456.5 9.6 456 9.3 C 455.5 9.1 455.1 8.8 454.9 8.3 C 454.6 7.9 454.5 7.5 454.5 6.9 C 454.5 6.5 454.6 6.1 454.8 5.7 C 455 5.3 455.3 4.9 455.7 4.7 C 455.9 4.5 456.3 4.3 456.8 4.2 C 457.3 4 457.8 4 458.3 4 C 459.1 4 459.8 4.1 460.5 4.3 C 461.1 4.5 461.5 4.9 461.8 5.3 C 462.1 5.7 462.3 6.2 462.4 6.9 C 462.4 6.9 460.7 7.1 460.7 7.1 C 460.6 6.6 460.4 6.1 460 5.8 C 459.6 5.6 459.1 5.4 458.4 5.4 C 457.6 5.4 457.1 5.5 456.7 5.8 C 456.4 6.1 456.2 6.4 456.2 6.7 C 456.2 7 456.3 7.2 456.4 7.4 C 456.5 7.5 456.8 7.7 457.1 7.8 C 457.3 7.9 457.8 8 458.6 8.3 C 459.9 8.6 460.7 8.9 461.2 9.1 C 461.7 9.3 462.1 9.6 462.4 10 C 462.7 10.4 462.8 10.9 462.8 11.5 C 462.8 12.1 462.6 12.7 462.3 13.2 C 462 13.7 461.5 14.1 460.8 14.4 C 460.2 14.7 459.4 14.8 458.6 14.8 C 457.3 14.8 456.3 14.5 455.6 14 C 454.8 13.4 454.4 12.6 454.2 11.5 Z M 471.7 14.6 C 471.7 14.6 471.7 13.04 471.7 13 C 470.9 14.2 469.8 14.8 468.4 14.8 C 467.8 14.8 467.2 14.7 466.7 14.4 C 466.2 14.2 465.8 13.9 465.5 13.6 C 465.3 13.2 465.1 12.8 465 12.3 C 464.9 11.9 464.9 11.4 464.9 10.6 C 464.86 10.62 464.9 4.2 464.9 4.2 L 466.6 4.2 C 466.6 4.2 466.62 9.94 466.6 9.9 C 466.6 10.9 466.7 11.5 466.7 11.8 C 466.8 12.3 467.1 12.6 467.4 12.9 C 467.8 13.1 468.2 13.3 468.8 13.3 C 469.3 13.3 469.8 13.1 470.2 12.9 C 470.7 12.6 471 12.2 471.2 11.8 C 471.4 11.3 471.5 10.6 471.5 9.7 C 471.51 9.75 471.5 4.2 471.5 4.2 L 473.3 4.2 L 473.3 14.6 L 471.7 14.6 Z M 476 18.5 L 476 4.2 L 477.6 4.2 C 477.6 4.2 477.63 5.54 477.6 5.5 C 478 5 478.4 4.6 478.9 4.4 C 479.4 4.1 480 4 480.6 4 C 481.5 4 482.3 4.2 483 4.6 C 483.7 5.1 484.2 5.7 484.5 6.6 C 484.9 7.4 485 8.3 485 9.3 C 485 10.4 484.8 11.3 484.5 12.2 C 484.1 13 483.5 13.7 482.8 14.1 C 482.1 14.6 481.3 14.8 480.5 14.8 C 479.9 14.8 479.4 14.7 478.9 14.4 C 478.5 14.2 478.1 13.9 477.8 13.5 C 477.78 13.49 477.8 18.5 477.8 18.5 L 476 18.5 Z M 477.6 9.4 C 477.6 10.8 477.9 11.8 478.4 12.4 C 479 13 479.6 13.3 480.4 13.3 C 481.2 13.3 481.8 13 482.4 12.4 C 483 11.7 483.2 10.7 483.2 9.3 C 483.2 8 483 7 482.4 6.3 C 481.9 5.7 481.2 5.3 480.5 5.3 C 479.7 5.3 479.1 5.7 478.5 6.4 C 477.9 7.1 477.6 8.1 477.6 9.4 Z M 487.1 18.5 L 487.1 4.2 L 488.8 4.2 C 488.8 4.2 488.75 5.54 488.8 5.5 C 489.1 5 489.6 4.6 490 4.4 C 490.5 4.1 491.1 4 491.8 4 C 492.6 4 493.4 4.2 494.1 4.6 C 494.8 5.1 495.3 5.7 495.6 6.6 C 496 7.4 496.2 8.3 496.2 9.3 C 496.2 10.4 496 11.3 495.6 12.2 C 495.2 13 494.6 13.7 493.9 14.1 C 493.2 14.6 492.4 14.8 491.6 14.8 C 491 14.8 490.5 14.7 490.1 14.4 C 489.6 14.2 489.2 13.9 488.9 13.5 C 488.91 13.49 488.9 18.5 488.9 18.5 L 487.1 18.5 Z M 488.7 9.4 C 488.7 10.8 489 11.8 489.6 12.4 C 490.1 13 490.7 13.3 491.5 13.3 C 492.3 13.3 493 13 493.5 12.4 C 494.1 11.7 494.4 10.7 494.4 9.3 C 494.4 8 494.1 7 493.5 6.3 C 493 5.7 492.3 5.3 491.6 5.3 C 490.8 5.3 490.2 5.7 489.6 6.4 C 489 7.1 488.7 8.1 488.7 9.4 Z M 497.6 9.4 C 497.6 7.5 498.2 6 499.2 5.1 C 500.1 4.3 501.2 4 502.5 4 C 503.9 4 505.1 4.4 506 5.4 C 506.9 6.3 507.3 7.6 507.3 9.2 C 507.3 10.6 507.1 11.6 506.7 12.4 C 506.3 13.1 505.8 13.7 505 14.2 C 504.2 14.6 503.4 14.8 502.5 14.8 C 501 14.8 499.9 14.3 499 13.4 C 498.1 12.5 497.6 11.1 497.6 9.4 Z M 499.4 9.4 C 499.4 10.7 499.7 11.7 500.3 12.4 C 500.9 13 501.6 13.3 502.5 13.3 C 503.4 13.3 504.1 13 504.7 12.4 C 505.2 11.7 505.5 10.7 505.5 9.3 C 505.5 8 505.2 7.1 504.7 6.4 C 504.1 5.7 503.3 5.4 502.5 5.4 C 501.6 5.4 500.9 5.7 500.3 6.4 C 499.7 7.1 499.4 8 499.4 9.4 Z M 509.4 14.6 L 509.4 4.2 L 511 4.2 C 511 4.2 510.96 5.76 511 5.8 C 511.4 5 511.7 4.5 512.1 4.3 C 512.4 4.1 512.8 4 513.2 4 C 513.8 4 514.4 4.1 515 4.5 C 515 4.5 514.4 6.2 514.4 6.2 C 514 5.9 513.5 5.8 513.1 5.8 C 512.7 5.8 512.4 5.9 512.1 6.1 C 511.8 6.3 511.6 6.7 511.4 7.1 C 511.2 7.7 511.1 8.4 511.1 9.1 C 511.13 9.13 511.1 14.6 511.1 14.6 L 509.4 14.6 Z M 519.1 13.1 C 519.3 13.1 519.6 13 519.9 13 C 519.9 13 520.1 14.5 520.1 14.5 C 519.7 14.6 519.2 14.7 518.8 14.7 C 518.2 14.7 517.7 14.6 517.3 14.4 C 517 14.2 516.7 13.9 516.6 13.6 C 516.4 13.3 516.4 12.6 516.4 11.5 C 516.38 11.52 516.4 5.6 516.4 5.6 L 515.1 5.6 L 515.1 4.2 L 516.4 4.2 L 516.4 1.6 L 518.1 0.6 L 518.1 4.2 L 519.9 4.2 L 519.9 5.6 L 518.1 5.6 C 518.1 5.6 518.13 11.62 518.1 11.6 C 518.1 12.1 518.2 12.4 518.2 12.6 C 518.3 12.7 518.4 12.8 518.5 12.9 C 518.7 13 518.9 13.1 519.1 13.1 C 519.1 13.1 519.1 13.1 519.1 13.1 Z M 530.2 13.1 C 530.4 13.1 530.7 13 531 13 C 531 13 531.3 14.5 531.3 14.5 C 530.8 14.6 530.3 14.7 529.9 14.7 C 529.3 14.7 528.8 14.6 528.4 14.4 C 528.1 14.2 527.8 13.9 527.7 13.6 C 527.6 13.3 527.5 12.6 527.5 11.5 C 527.49 11.52 527.5 5.6 527.5 5.6 L 526.2 5.6 L 526.2 4.2 L 527.5 4.2 L 527.5 1.6 L 529.2 0.6 L 529.2 4.2 L 531 4.2 L 531 5.6 L 529.2 5.6 C 529.2 5.6 529.24 11.62 529.2 11.6 C 529.2 12.1 529.3 12.4 529.3 12.6 C 529.4 12.7 529.5 12.8 529.6 12.9 C 529.8 13 530 13.1 530.2 13.1 C 530.2 13.1 530.2 13.1 530.2 13.1 Z M 532.7 14.6 L 532.7 0.2 L 534.5 0.2 C 534.5 0.2 534.48 5.38 534.5 5.4 C 535.3 4.4 536.3 4 537.6 4 C 538.4 4 539 4.1 539.6 4.4 C 540.2 4.7 540.6 5.1 540.8 5.7 C 541 6.2 541.2 7 541.2 8 C 541.17 7.99 541.2 14.6 541.2 14.6 L 539.4 14.6 C 539.4 14.6 539.41 7.99 539.4 8 C 539.4 7.1 539.2 6.5 538.8 6.1 C 538.5 5.7 537.9 5.5 537.2 5.5 C 536.7 5.5 536.2 5.6 535.8 5.9 C 535.3 6.1 535 6.5 534.8 7 C 534.6 7.4 534.5 8.1 534.5 8.9 C 534.48 8.89 534.5 14.6 534.5 14.6 L 532.7 14.6 Z M 550.9 11.2 C 550.9 11.2 552.8 11.4 552.8 11.4 C 552.5 12.5 551.9 13.3 551.2 13.9 C 550.4 14.5 549.4 14.8 548.2 14.8 C 546.7 14.8 545.5 14.3 544.6 13.4 C 543.7 12.5 543.3 11.1 543.3 9.5 C 543.3 7.7 543.7 6.4 544.6 5.4 C 545.5 4.4 546.7 4 548.1 4 C 549.5 4 550.6 4.4 551.5 5.4 C 552.4 6.3 552.8 7.6 552.8 9.4 C 552.8 9.5 552.8 9.6 552.8 9.8 C 552.8 9.8 545.1 9.8 545.1 9.8 C 545.1 11 545.5 11.8 546 12.4 C 546.6 13 547.3 13.3 548.2 13.3 C 548.9 13.3 549.4 13.2 549.9 12.8 C 550.3 12.5 550.7 12 550.9 11.2 Z M 545.2 8.4 C 545.2 8.4 551 8.4 551 8.4 C 550.9 7.5 550.7 6.9 550.3 6.4 C 549.7 5.7 549 5.4 548.1 5.4 C 547.3 5.4 546.6 5.7 546.1 6.2 C 545.5 6.8 545.2 7.5 545.2 8.4 Z M 567.3 10.8 C 567.3 10.8 569 11 569 11 C 568.8 12.2 568.4 13.1 567.6 13.8 C 566.8 14.5 565.8 14.8 564.7 14.8 C 563.3 14.8 562.1 14.3 561.3 13.4 C 560.4 12.5 560 11.1 560 9.4 C 560 8.3 560.2 7.3 560.5 6.5 C 560.9 5.6 561.5 5 562.2 4.6 C 563 4.2 563.8 4 564.7 4 C 565.8 4 566.8 4.2 567.5 4.8 C 568.2 5.4 568.7 6.2 568.9 7.2 C 568.9 7.2 567.1 7.5 567.1 7.5 C 567 6.8 566.7 6.3 566.3 5.9 C 565.9 5.6 565.4 5.4 564.8 5.4 C 563.9 5.4 563.2 5.7 562.6 6.4 C 562.1 7 561.8 8 561.8 9.4 C 561.8 10.8 562.1 11.8 562.6 12.4 C 563.1 13 563.8 13.3 564.7 13.3 C 565.4 13.3 566 13.1 566.4 12.7 C 566.9 12.3 567.2 11.6 567.3 10.8 Z M 570.5 14.6 L 570.5 4.2 L 572.1 4.2 C 572.1 4.2 572.09 5.76 572.1 5.8 C 572.5 5 572.9 4.5 573.2 4.3 C 573.5 4.1 573.9 4 574.3 4 C 574.9 4 575.5 4.1 576.1 4.5 C 576.1 4.5 575.5 6.2 575.5 6.2 C 575.1 5.9 574.7 5.8 574.2 5.8 C 573.9 5.8 573.5 5.9 573.2 6.1 C 572.9 6.3 572.7 6.7 572.6 7.1 C 572.4 7.7 572.3 8.4 572.3 9.1 C 572.27 9.13 572.3 14.6 572.3 14.6 L 570.5 14.6 Z M 584.3 11.2 C 584.3 11.2 586.1 11.4 586.1 11.4 C 585.8 12.5 585.3 13.3 584.5 13.9 C 583.7 14.5 582.7 14.8 581.5 14.8 C 580 14.8 578.8 14.3 577.9 13.4 C 577 12.5 576.6 11.1 576.6 9.5 C 576.6 7.7 577.1 6.4 577.9 5.4 C 578.8 4.4 580 4 581.4 4 C 582.8 4 584 4.4 584.8 5.4 C 585.7 6.3 586.2 7.6 586.2 9.4 C 586.2 9.5 586.2 9.6 586.2 9.8 C 586.2 9.8 578.4 9.8 578.4 9.8 C 578.5 11 578.8 11.8 579.4 12.4 C 580 13 580.7 13.3 581.6 13.3 C 582.2 13.3 582.7 13.2 583.2 12.8 C 583.7 12.5 584 12 584.3 11.2 Z M 578.5 8.4 C 578.5 8.4 584.3 8.4 584.3 8.4 C 584.2 7.5 584 6.9 583.6 6.4 C 583.1 5.7 582.4 5.4 581.5 5.4 C 580.7 5.4 580 5.7 579.4 6.2 C 578.9 6.8 578.6 7.5 578.5 8.4 Z M 595.4 14.6 C 595.2 14.2 595.1 13.8 595.1 13.3 C 594.4 13.8 593.8 14.2 593.2 14.5 C 592.6 14.7 591.9 14.8 591.3 14.8 C 590.1 14.8 589.2 14.5 588.6 14 C 588 13.4 587.7 12.7 587.7 11.8 C 587.7 11.3 587.8 10.9 588.1 10.4 C 588.3 10 588.6 9.7 589 9.4 C 589.3 9.2 589.8 9 590.2 8.8 C 590.6 8.8 591.1 8.7 591.8 8.6 C 593.2 8.4 594.3 8.2 594.9 8 C 594.9 7.7 594.9 7.6 594.9 7.5 C 594.9 6.8 594.8 6.3 594.4 6 C 594 5.6 593.3 5.4 592.4 5.4 C 591.6 5.4 591 5.6 590.6 5.8 C 590.2 6.1 589.9 6.6 589.7 7.4 C 589.7 7.4 588 7.1 588 7.1 C 588.2 6.4 588.4 5.8 588.8 5.4 C 589.1 4.9 589.7 4.6 590.3 4.3 C 591 4.1 591.8 4 592.7 4 C 593.6 4 594.3 4.1 594.9 4.3 C 595.4 4.5 595.8 4.7 596.1 5.1 C 596.3 5.4 596.5 5.8 596.6 6.3 C 596.7 6.5 596.7 7.1 596.7 7.9 C 596.7 7.9 596.7 10.2 596.7 10.2 C 596.7 11.8 596.7 12.9 596.8 13.3 C 596.9 13.7 597 14.2 597.3 14.6 C 597.27 14.56 595.4 14.6 595.4 14.6 C 595.4 14.6 595.43 14.56 595.4 14.6 Z M 594.9 9.4 C 594.3 9.6 593.3 9.8 592.1 10 C 591.3 10.1 590.8 10.2 590.5 10.4 C 590.2 10.5 590 10.7 589.8 10.9 C 589.7 11.2 589.6 11.5 589.6 11.8 C 589.6 12.2 589.8 12.6 590.1 12.9 C 590.5 13.3 591 13.4 591.7 13.4 C 592.4 13.4 593 13.3 593.5 13 C 594 12.7 594.4 12.3 594.6 11.8 C 594.8 11.4 594.9 10.8 594.9 10 C 594.9 10 594.9 9.4 594.9 9.4 Z M 602.5 13.1 C 602.7 13.1 603 13 603.3 13 C 603.3 13 603.5 14.5 603.5 14.5 C 603 14.6 602.6 14.7 602.2 14.7 C 601.6 14.7 601.1 14.6 600.7 14.4 C 600.4 14.2 600.1 13.9 600 13.6 C 599.8 13.3 599.8 12.6 599.8 11.5 C 599.76 11.52 599.8 5.6 599.8 5.6 L 598.5 5.6 L 598.5 4.2 L 599.8 4.2 L 599.8 1.6 L 601.5 0.6 L 601.5 4.2 L 603.3 4.2 L 603.3 5.6 L 601.5 5.6 C 601.5 5.6 601.5 11.62 601.5 11.6 C 601.5 12.1 601.5 12.4 601.6 12.6 C 601.7 12.7 601.8 12.8 601.9 12.9 C 602 13 602.2 13.1 602.5 13.1 C 602.5 13.1 602.5 13.1 602.5 13.1 Z M 605 2.3 L 605 0.2 L 606.8 0.2 L 606.8 2.3 L 605 2.3 Z M 605 14.6 L 605 4.2 L 606.8 4.2 L 606.8 14.6 L 605 14.6 Z M 608.8 9.4 C 608.8 7.5 609.3 6 610.4 5.1 C 611.3 4.3 612.4 4 613.6 4 C 615.1 4 616.2 4.4 617.1 5.4 C 618 6.3 618.5 7.6 618.5 9.2 C 618.5 10.6 618.3 11.6 617.9 12.4 C 617.5 13.1 616.9 13.7 616.1 14.2 C 615.4 14.6 614.5 14.8 613.6 14.8 C 612.2 14.8 611 14.3 610.1 13.4 C 609.2 12.5 608.8 11.1 608.8 9.4 Z M 610.6 9.4 C 610.6 10.7 610.9 11.7 611.5 12.4 C 612 13 612.8 13.3 613.6 13.3 C 614.5 13.3 615.2 13 615.8 12.4 C 616.4 11.7 616.7 10.7 616.7 9.3 C 616.7 8 616.4 7.1 615.8 6.4 C 615.2 5.7 614.5 5.4 613.6 5.4 C 612.8 5.4 612 5.7 611.5 6.4 C 610.9 7.1 610.6 8 610.6 9.4 Z M 620.6 14.6 L 620.6 4.2 L 622.1 4.2 C 622.1 4.2 622.14 5.66 622.1 5.7 C 622.9 4.5 624 4 625.4 4 C 626.1 4 626.6 4.1 627.2 4.3 C 627.7 4.5 628.1 4.8 628.3 5.2 C 628.6 5.5 628.8 6 628.9 6.5 C 629 6.8 629 7.4 629 8.2 C 628.98 8.18 629 14.6 629 14.6 L 627.2 14.6 C 627.2 14.6 627.23 8.25 627.2 8.3 C 627.2 7.5 627.2 7 627 6.6 C 626.9 6.3 626.6 6 626.3 5.8 C 625.9 5.6 625.5 5.5 625.1 5.5 C 624.3 5.5 623.7 5.7 623.1 6.2 C 622.6 6.7 622.3 7.6 622.3 8.9 C 622.31 8.9 622.3 14.6 622.3 14.6 L 620.6 14.6 Z M 636.6 9.4 C 636.6 7.5 637.1 6 638.2 5.1 C 639.1 4.3 640.2 4 641.4 4 C 642.9 4 644 4.4 644.9 5.4 C 645.8 6.3 646.3 7.6 646.3 9.2 C 646.3 10.6 646.1 11.6 645.7 12.4 C 645.3 13.1 644.7 13.7 644 14.2 C 643.2 14.6 642.4 14.8 641.4 14.8 C 640 14.8 638.8 14.3 637.9 13.4 C 637 12.5 636.6 11.1 636.6 9.4 Z M 638.4 9.4 C 638.4 10.7 638.7 11.7 639.3 12.4 C 639.8 13 640.6 13.3 641.4 13.3 C 642.3 13.3 643 13 643.6 12.4 C 644.2 11.7 644.5 10.7 644.5 9.3 C 644.5 8 644.2 7.1 643.6 6.4 C 643 5.7 642.3 5.4 641.4 5.4 C 640.6 5.4 639.8 5.7 639.3 6.4 C 638.7 7.1 638.4 8 638.4 9.4 Z M 648.8 14.6 L 648.8 5.6 L 647.2 5.6 L 647.2 4.2 L 648.8 4.2 C 648.8 4.2 648.78 3.09 648.8 3.1 C 648.8 2.4 648.8 1.9 649 1.5 C 649.1 1.1 649.4 0.7 649.9 0.4 C 650.3 0.1 650.9 0 651.7 0 C 652.1 0 652.7 0.1 653.3 0.2 C 653.3 0.2 653 1.7 653 1.7 C 652.7 1.6 652.3 1.6 652 1.6 C 651.5 1.6 651.1 1.7 650.9 2 C 650.6 2.2 650.5 2.6 650.5 3.2 C 650.53 3.23 650.5 4.2 650.5 4.2 L 652.5 4.2 L 652.5 5.6 L 650.5 5.6 L 650.5 14.6 L 648.8 14.6 Z M 659.7 14.6 L 659.7 0.2 L 670.1 0.2 L 670.1 1.9 L 661.6 1.9 L 661.6 6.3 L 669.6 6.3 L 669.6 8 L 661.6 8 L 661.6 12.9 L 670.4 12.9 L 670.4 14.6 L 659.7 14.6 Z M 679.6 14.6 C 679.6 14.6 679.61 13.04 679.6 13 C 678.8 14.2 677.7 14.8 676.3 14.8 C 675.7 14.8 675.1 14.7 674.6 14.4 C 674.1 14.2 673.7 13.9 673.4 13.6 C 673.2 13.2 673 12.8 672.9 12.3 C 672.8 11.9 672.8 11.4 672.8 10.6 C 672.77 10.62 672.8 4.2 672.8 4.2 L 674.5 4.2 C 674.5 4.2 674.53 9.94 674.5 9.9 C 674.5 10.9 674.6 11.5 674.6 11.8 C 674.7 12.3 675 12.6 675.3 12.9 C 675.7 13.1 676.1 13.3 676.7 13.3 C 677.2 13.3 677.7 13.1 678.2 12.9 C 678.6 12.6 678.9 12.2 679.1 11.8 C 679.3 11.3 679.4 10.6 679.4 9.7 C 679.42 9.75 679.4 4.2 679.4 4.2 L 681.2 4.2 L 681.2 14.6 L 679.6 14.6 Z M 683.9 14.6 L 683.9 4.2 L 685.5 4.2 C 685.5 4.2 685.5 5.76 685.5 5.8 C 685.9 5 686.3 4.5 686.6 4.3 C 687 4.1 687.3 4 687.7 4 C 688.3 4 688.9 4.1 689.6 4.5 C 689.6 4.5 688.9 6.2 688.9 6.2 C 688.5 5.9 688.1 5.8 687.7 5.8 C 687.3 5.8 686.9 5.9 686.6 6.1 C 686.3 6.3 686.1 6.7 686 7.1 C 685.8 7.7 685.7 8.4 685.7 9.1 C 685.67 9.13 685.7 14.6 685.7 14.6 L 683.9 14.6 Z M 689.9 9.4 C 689.9 7.5 690.5 6 691.5 5.1 C 692.4 4.3 693.5 4 694.8 4 C 696.2 4 697.4 4.4 698.3 5.4 C 699.2 6.3 699.7 7.6 699.7 9.2 C 699.7 10.6 699.5 11.6 699.1 12.4 C 698.7 13.1 698.1 13.7 697.3 14.2 C 696.5 14.6 695.7 14.8 694.8 14.8 C 693.4 14.8 692.2 14.3 691.3 13.4 C 690.4 12.5 689.9 11.1 689.9 9.4 Z M 691.7 9.4 C 691.7 10.7 692 11.7 692.6 12.4 C 693.2 13 693.9 13.3 694.8 13.3 C 695.7 13.3 696.4 13 697 12.4 C 697.6 11.7 697.9 10.7 697.9 9.3 C 697.9 8 697.6 7.1 697 6.4 C 696.4 5.7 695.7 5.4 694.8 5.4 C 693.9 5.4 693.2 5.7 692.6 6.4 C 692 7.1 691.7 8 691.7 9.4 Z M 701.7 18.5 L 701.7 4.2 L 703.3 4.2 C 703.3 4.2 703.32 5.54 703.3 5.5 C 703.7 5 704.1 4.6 704.6 4.4 C 705.1 4.1 705.7 4 706.3 4 C 707.2 4 708 4.2 708.7 4.6 C 709.3 5.1 709.9 5.7 710.2 6.6 C 710.6 7.4 710.7 8.3 710.7 9.3 C 710.7 10.4 710.5 11.3 710.2 12.2 C 709.8 13 709.2 13.7 708.5 14.1 C 707.8 14.6 707 14.8 706.2 14.8 C 705.6 14.8 705.1 14.7 704.6 14.4 C 704.2 14.2 703.8 13.9 703.5 13.5 C 703.48 13.49 703.5 18.5 703.5 18.5 L 701.7 18.5 Z M 703.3 9.4 C 703.3 10.8 703.6 11.8 704.1 12.4 C 704.7 13 705.3 13.3 706.1 13.3 C 706.9 13.3 707.5 13 708.1 12.4 C 708.6 11.7 708.9 10.7 708.9 9.3 C 708.9 8 708.7 7 708.1 6.3 C 707.6 5.7 706.9 5.3 706.2 5.3 C 705.4 5.3 704.8 5.7 704.2 6.4 C 703.6 7.1 703.3 8.1 703.3 9.4 Z M 719.9 11.2 C 719.9 11.2 721.8 11.4 721.8 11.4 C 721.5 12.5 720.9 13.3 720.2 13.9 C 719.4 14.5 718.4 14.8 717.2 14.8 C 715.7 14.8 714.5 14.3 713.6 13.4 C 712.7 12.5 712.3 11.1 712.3 9.5 C 712.3 7.7 712.7 6.4 713.6 5.4 C 714.5 4.4 715.7 4 717.1 4 C 718.5 4 719.6 4.4 720.5 5.4 C 721.4 6.3 721.8 7.6 721.8 9.4 C 721.8 9.5 721.8 9.6 721.8 9.8 C 721.8 9.8 714.1 9.8 714.1 9.8 C 714.1 11 714.5 11.8 715 12.4 C 715.6 13 716.3 13.3 717.2 13.3 C 717.9 13.3 718.4 13.2 718.9 12.8 C 719.3 12.5 719.7 12 719.9 11.2 Z M 714.2 8.4 C 714.2 8.4 720 8.4 720 8.4 C 719.9 7.5 719.7 6.9 719.3 6.4 C 718.7 5.7 718 5.4 717.1 5.4 C 716.3 5.4 715.6 5.7 715.1 6.2 C 714.5 6.8 714.2 7.5 714.2 8.4 Z M 723.9 2.1 L 723.9 0.1 L 725.7 0.1 C 725.7 0.1 725.74 1.71 725.7 1.7 C 725.7 2.6 725.6 3.2 725.4 3.6 C 725.2 4.1 724.7 4.5 724.1 4.8 C 724.1 4.8 723.7 4.1 723.7 4.1 C 724.1 3.9 724.3 3.7 724.5 3.4 C 724.7 3.1 724.8 2.7 724.8 2.1 C 724.78 2.14 723.9 2.1 723.9 2.1 Z M 727.3 11.5 C 727.3 11.5 729.1 11.2 729.1 11.2 C 729.2 11.9 729.5 12.4 729.9 12.8 C 730.3 13.2 731 13.3 731.8 13.3 C 732.6 13.3 733.2 13.2 733.6 12.9 C 734 12.5 734.2 12.1 734.2 11.7 C 734.2 11.3 734 11 733.6 10.8 C 733.4 10.6 732.8 10.4 731.8 10.2 C 730.5 9.8 729.7 9.6 729.2 9.3 C 728.7 9.1 728.3 8.8 728 8.3 C 727.8 7.9 727.6 7.5 727.6 6.9 C 727.6 6.5 727.7 6.1 728 5.7 C 728.2 5.3 728.5 4.9 728.8 4.7 C 729.1 4.5 729.5 4.3 729.9 4.2 C 730.4 4 730.9 4 731.5 4 C 732.3 4 733 4.1 733.6 4.3 C 734.2 4.5 734.7 4.9 735 5.3 C 735.3 5.7 735.5 6.2 735.6 6.9 C 735.6 6.9 733.8 7.1 733.8 7.1 C 733.8 6.6 733.5 6.1 733.2 5.8 C 732.8 5.6 732.3 5.4 731.6 5.4 C 730.8 5.4 730.2 5.5 729.9 5.8 C 729.5 6.1 729.3 6.4 729.3 6.7 C 729.3 7 729.4 7.2 729.6 7.4 C 729.7 7.5 729.9 7.7 730.2 7.8 C 730.4 7.9 730.9 8 731.8 8.3 C 733 8.6 733.9 8.9 734.4 9.1 C 734.9 9.3 735.3 9.6 735.5 10 C 735.8 10.4 736 10.9 736 11.5 C 736 12.1 735.8 12.7 735.4 13.2 C 735.1 13.7 734.6 14.1 734 14.4 C 733.3 14.7 732.6 14.8 731.8 14.8 C 730.4 14.8 729.4 14.5 728.7 14 C 728 13.4 727.5 12.6 727.3 11.5 Z " stroke="none" fill="#54626c"/>
  </g>
</svg>