<?xml version="1.0" standalone="no"?>
<!DOCTYPE svg PUBLIC "-//W3C//DTD SVG 1.1//EN" "http://www.w3.org/Graphics/SVG/1.1/DTD/svg11.dtd">
<svg xmlns="http://www.w3.org/2000/svg" version="1.1" width="759.1px" height="96.6px" viewBox="0 -20 759.1 96.6" style="top:-20px">
  <desc>Sustainable Operations</desc>
  <defs/>
  <g id="Polygon61954">
    <path d="M 2.7 29.9 C 2.7 29.9 8.1 29.4 8.1 29.4 C 8.3 31.6 8.9 33.3 9.8 34.7 C 10.8 36.1 12.2 37.2 14.2 38 C 16.1 38.9 18.3 39.3 20.7 39.3 C 22.9 39.3 24.8 39 26.5 38.3 C 28.1 37.7 29.4 36.8 30.2 35.7 C 31 34.6 31.4 33.3 31.4 32 C 31.4 30.7 31 29.5 30.2 28.5 C 29.5 27.5 28.2 26.6 26.4 26 C 25.2 25.5 22.7 24.8 18.7 23.9 C 14.8 22.9 12 22 10.4 21.2 C 8.4 20.1 6.9 18.8 5.8 17.2 C 4.8 15.6 4.3 13.8 4.3 11.8 C 4.3 9.7 5 7.6 6.2 5.8 C 7.4 3.9 9.2 2.4 11.6 1.5 C 13.9 0.5 16.6 0 19.5 0 C 22.6 0 25.4 0.5 27.9 1.5 C 30.3 2.6 32.2 4.1 33.5 6.1 C 34.8 8.1 35.5 10.3 35.6 12.8 C 35.6 12.8 30.1 13.2 30.1 13.2 C 29.9 10.5 28.9 8.5 27.2 7.1 C 25.5 5.7 23 5 19.7 5 C 16.2 5 13.7 5.6 12.2 6.9 C 10.6 8.2 9.8 9.7 9.8 11.5 C 9.8 13 10.4 14.3 11.5 15.3 C 12.6 16.3 15.4 17.3 20.1 18.3 C 24.7 19.4 27.8 20.3 29.6 21.1 C 32.1 22.2 33.9 23.7 35.1 25.4 C 36.3 27.2 36.9 29.2 36.9 31.6 C 36.9 33.8 36.2 36 34.9 38 C 33.6 40 31.7 41.6 29.3 42.7 C 26.8 43.9 24.1 44.4 21 44.4 C 17.1 44.4 13.9 43.8 11.2 42.7 C 8.6 41.6 6.5 39.9 5.1 37.6 C 3.6 35.3 2.8 32.8 2.7 29.9 Z M 64.4 43.7 C 64.4 43.7 64.37 39.11 64.4 39.1 C 61.9 42.6 58.7 44.4 54.5 44.4 C 52.7 44.4 50.9 44 49.4 43.3 C 47.8 42.6 46.6 41.7 45.8 40.7 C 45 39.6 44.5 38.3 44.2 36.8 C 44 35.7 43.9 34.1 43.9 31.8 C 43.86 31.85 43.9 12.6 43.9 12.6 L 49.1 12.6 C 49.1 12.6 49.13 29.82 49.1 29.8 C 49.1 32.6 49.2 34.4 49.5 35.4 C 49.8 36.8 50.5 37.9 51.6 38.7 C 52.6 39.4 54 39.8 55.5 39.8 C 57.1 39.8 58.6 39.4 60 38.6 C 61.4 37.8 62.4 36.7 62.9 35.3 C 63.5 33.9 63.8 31.9 63.8 29.2 C 63.81 29.24 63.8 12.6 63.8 12.6 L 69.1 12.6 L 69.1 43.7 L 64.4 43.7 Z M 75.2 34.4 C 75.2 34.4 80.4 33.6 80.4 33.6 C 80.7 35.7 81.6 37.3 82.9 38.4 C 84.2 39.5 86.1 40 88.5 40 C 90.9 40 92.7 39.6 93.9 38.6 C 95.1 37.6 95.7 36.4 95.7 35.1 C 95.7 33.9 95.1 33 94.1 32.3 C 93.4 31.8 91.6 31.2 88.7 30.5 C 84.8 29.5 82.2 28.7 80.7 28 C 79.2 27.3 78 26.3 77.3 25 C 76.5 23.7 76.1 22.4 76.1 20.8 C 76.1 19.4 76.4 18.2 77.1 17 C 77.7 15.8 78.6 14.8 79.7 14 C 80.5 13.4 81.6 12.9 83 12.5 C 84.4 12.1 85.9 11.9 87.6 11.9 C 90 11.9 92.2 12.2 94 12.9 C 95.8 13.6 97.2 14.6 98.1 15.8 C 99 17 99.6 18.6 99.9 20.6 C 99.9 20.6 94.7 21.3 94.7 21.3 C 94.5 19.7 93.8 18.4 92.7 17.5 C 91.6 16.7 90 16.2 87.9 16.2 C 85.5 16.2 83.8 16.6 82.8 17.4 C 81.7 18.2 81.2 19.1 81.2 20.2 C 81.2 20.9 81.4 21.5 81.9 22.1 C 82.3 22.6 83 23.1 83.9 23.5 C 84.4 23.7 86 24.1 88.5 24.8 C 92.3 25.8 94.9 26.6 96.3 27.3 C 97.8 27.9 99 28.8 99.8 30 C 100.7 31.2 101.1 32.7 101.1 34.5 C 101.1 36.3 100.6 38 99.5 39.5 C 98.5 41.1 97 42.3 95.1 43.1 C 93.2 44 91 44.4 88.5 44.4 C 84.5 44.4 81.4 43.5 79.3 41.9 C 77.2 40.2 75.8 37.7 75.2 34.4 Z M 116.5 39.2 C 117.1 39.2 117.9 39.1 118.9 39 C 118.9 39 119.6 43.6 119.6 43.6 C 118.1 43.9 116.8 44.1 115.6 44.1 C 113.7 44.1 112.2 43.8 111.2 43.2 C 110.1 42.6 109.4 41.8 109 40.8 C 108.5 39.8 108.3 37.7 108.3 34.6 C 108.31 34.57 108.3 16.7 108.3 16.7 L 104.4 16.7 L 104.4 12.6 L 108.3 12.6 L 108.3 4.9 L 113.6 1.7 L 113.6 12.6 L 118.9 12.6 L 118.9 16.7 L 113.6 16.7 C 113.6 16.7 113.55 34.86 113.6 34.9 C 113.6 36.4 113.6 37.3 113.8 37.8 C 114 38.2 114.3 38.5 114.7 38.8 C 115.2 39 115.8 39.2 116.5 39.2 C 116.5 39.2 116.5 39.2 116.5 39.2 Z M 145.4 43.7 C 144.8 42.6 144.5 41.3 144.3 39.8 C 142.4 41.5 140.5 42.7 138.7 43.4 C 136.9 44 134.9 44.4 132.9 44.4 C 129.4 44.4 126.8 43.5 125 41.9 C 123.1 40.2 122.2 38.1 122.2 35.5 C 122.2 34 122.6 32.6 123.3 31.3 C 124 30 124.9 29 126 28.3 C 127.1 27.5 128.4 26.9 129.8 26.5 C 130.8 26.3 132.4 26 134.5 25.8 C 138.7 25.2 141.9 24.6 143.9 23.9 C 143.9 23.2 143.9 22.8 143.9 22.6 C 143.9 20.4 143.4 18.9 142.4 18 C 141.1 16.8 139.1 16.2 136.4 16.2 C 133.9 16.2 132.1 16.7 130.9 17.5 C 129.7 18.4 128.9 19.9 128.3 22.1 C 128.3 22.1 123.1 21.4 123.1 21.4 C 123.6 19.2 124.4 17.5 125.4 16.1 C 126.5 14.7 128.1 13.7 130.1 13 C 132.1 12.2 134.5 11.9 137.2 11.9 C 139.8 11.9 142 12.2 143.6 12.8 C 145.3 13.4 146.5 14.2 147.3 15.2 C 148.1 16.1 148.6 17.3 148.9 18.8 C 149.1 19.6 149.2 21.3 149.2 23.6 C 149.2 23.6 149.2 30.6 149.2 30.6 C 149.2 35.5 149.3 38.6 149.5 39.9 C 149.8 41.2 150.2 42.5 150.9 43.7 C 150.88 43.68 145.4 43.7 145.4 43.7 C 145.4 43.7 145.37 43.68 145.4 43.7 Z M 143.9 28.1 C 142 28.8 139.1 29.5 135.3 30.1 C 133.1 30.4 131.6 30.7 130.7 31.1 C 129.8 31.5 129.1 32.1 128.6 32.8 C 128.1 33.6 127.9 34.4 127.9 35.3 C 127.9 36.7 128.4 37.9 129.4 38.8 C 130.5 39.8 132.1 40.3 134.1 40.3 C 136.2 40.3 138 39.8 139.5 38.9 C 141.1 38 142.3 36.8 143 35.3 C 143.6 34.1 143.9 32.3 143.9 30 C 143.9 30 143.9 28.1 143.9 28.1 Z M 157.4 6.8 L 157.4 0.7 L 162.7 0.7 L 162.7 6.8 L 157.4 6.8 Z M 157.4 43.7 L 157.4 12.6 L 162.7 12.6 L 162.7 43.7 L 157.4 43.7 Z M 170.7 43.7 L 170.7 12.6 L 175.5 12.6 C 175.5 12.6 175.46 16.99 175.5 17 C 177.7 13.6 181 11.9 185.4 11.9 C 187.2 11.9 189 12.2 190.5 12.9 C 192.1 13.5 193.3 14.4 194.1 15.5 C 194.8 16.6 195.4 17.9 195.7 19.4 C 195.9 20.4 196 22.1 196 24.6 C 196 24.55 196 43.7 196 43.7 L 190.7 43.7 C 190.7 43.7 190.72 24.76 190.7 24.8 C 190.7 22.6 190.5 21 190.1 19.9 C 189.7 18.9 189 18 187.9 17.4 C 186.9 16.8 185.7 16.4 184.2 16.4 C 182 16.4 180.1 17.1 178.4 18.6 C 176.8 20 176 22.7 176 26.7 C 175.99 26.69 176 43.7 176 43.7 L 170.7 43.7 Z M 225.4 43.7 C 224.9 42.6 224.5 41.3 224.4 39.8 C 222.4 41.5 220.6 42.7 218.7 43.4 C 216.9 44 215 44.4 212.9 44.4 C 209.5 44.4 206.9 43.5 205 41.9 C 203.2 40.2 202.3 38.1 202.3 35.5 C 202.3 34 202.6 32.6 203.3 31.3 C 204 30 204.9 29 206.1 28.3 C 207.2 27.5 208.4 26.9 209.9 26.5 C 210.9 26.3 212.5 26 214.5 25.8 C 218.8 25.2 221.9 24.6 223.9 23.9 C 224 23.2 224 22.8 224 22.6 C 224 20.4 223.5 18.9 222.5 18 C 221.1 16.8 219.1 16.2 216.5 16.2 C 214 16.2 212.2 16.7 211 17.5 C 209.8 18.4 208.9 19.9 208.4 22.1 C 208.4 22.1 203.2 21.4 203.2 21.4 C 203.7 19.2 204.4 17.5 205.5 16.1 C 206.6 14.7 208.1 13.7 210.2 13 C 212.2 12.2 214.6 11.9 217.2 11.9 C 219.9 11.9 222.1 12.2 223.7 12.8 C 225.4 13.4 226.6 14.2 227.4 15.2 C 228.2 16.1 228.7 17.3 229 18.8 C 229.2 19.6 229.3 21.3 229.3 23.6 C 229.3 23.6 229.3 30.6 229.3 30.6 C 229.3 35.5 229.4 38.6 229.6 39.9 C 229.8 41.2 230.3 42.5 230.9 43.7 C 230.95 43.68 225.4 43.7 225.4 43.7 C 225.4 43.7 225.44 43.68 225.4 43.7 Z M 223.9 28.1 C 222 28.8 219.2 29.5 215.3 30.1 C 213.2 30.4 211.6 30.7 210.7 31.1 C 209.8 31.5 209.1 32.1 208.7 32.8 C 208.2 33.6 207.9 34.4 207.9 35.3 C 207.9 36.7 208.5 37.9 209.5 38.8 C 210.6 39.8 212.1 40.3 214.2 40.3 C 216.2 40.3 218 39.8 219.6 38.9 C 221.2 38 222.4 36.8 223.1 35.3 C 223.7 34.1 223.9 32.3 223.9 30 C 223.9 30 223.9 28.1 223.9 28.1 Z M 242.3 43.7 L 237.4 43.7 L 237.4 0.7 L 242.7 0.7 C 242.7 0.7 242.7 16.05 242.7 16.1 C 244.9 13.3 247.8 11.9 251.2 11.9 C 253.1 11.9 254.9 12.3 256.7 13 C 258.4 13.8 259.8 14.9 260.9 16.3 C 262 17.7 262.8 19.4 263.5 21.3 C 264.1 23.3 264.4 25.4 264.4 27.7 C 264.4 33 263.1 37.1 260.4 40 C 257.8 42.9 254.6 44.4 251 44.4 C 247.3 44.4 244.4 42.9 242.3 39.8 C 242.31 39.79 242.3 43.7 242.3 43.7 Z M 242.3 27.9 C 242.3 31.6 242.8 34.3 243.8 36 C 245.4 38.7 247.7 40 250.5 40 C 252.8 40 254.8 39 256.5 37 C 258.2 35 259 32.1 259 28.1 C 259 24 258.2 21 256.6 19.1 C 255 17.2 253 16.2 250.8 16.2 C 248.4 16.2 246.5 17.2 244.8 19.2 C 243.1 21.2 242.3 24.1 242.3 27.9 Z M 270.7 43.7 L 270.7 0.7 L 276 0.7 L 276 43.7 L 270.7 43.7 Z M 305.4 33.7 C 305.4 33.7 310.9 34.3 310.9 34.3 C 310 37.5 308.4 40 306.1 41.7 C 303.8 43.5 300.8 44.4 297.2 44.4 C 292.7 44.4 289.1 43 286.4 40.2 C 283.7 37.4 282.4 33.4 282.4 28.4 C 282.4 23.2 283.7 19.1 286.4 16.2 C 289.1 13.3 292.6 11.9 296.9 11.9 C 301.1 11.9 304.5 13.3 307.1 16.1 C 309.8 18.9 311.1 22.9 311.1 28.1 C 311.1 28.4 311.1 28.8 311 29.5 C 311 29.5 287.8 29.5 287.8 29.5 C 288 32.9 289 35.5 290.7 37.3 C 292.5 39.1 294.6 40 297.2 40 C 299.2 40 300.8 39.5 302.2 38.5 C 303.6 37.5 304.6 35.9 305.4 33.7 Z M 288.1 25.1 C 288.1 25.1 305.5 25.1 305.5 25.1 C 305.3 22.5 304.6 20.6 303.5 19.2 C 301.8 17.2 299.7 16.2 297 16.2 C 294.6 16.2 292.5 17 290.9 18.6 C 289.2 20.3 288.3 22.4 288.1 25.1 Z M 333.1 22.8 C 333.1 15.6 335 10.1 338.9 6 C 342.7 2 347.6 0 353.7 0 C 357.7 0 361.2 0.9 364.4 2.8 C 367.6 4.7 370 7.3 371.7 10.7 C 373.4 14.1 374.2 18 374.2 22.3 C 374.2 26.6 373.3 30.5 371.6 34 C 369.8 37.4 367.3 40 364.1 41.8 C 360.9 43.5 357.4 44.4 353.7 44.4 C 349.6 44.4 346 43.4 342.8 41.5 C 339.6 39.5 337.2 36.9 335.6 33.5 C 334 30.1 333.1 26.5 333.1 22.8 Z M 339 22.9 C 339 28 340.4 32.1 343.2 35.1 C 346 38.1 349.4 39.6 353.6 39.6 C 357.9 39.6 361.4 38 364.2 35 C 367 32 368.3 27.8 368.3 22.2 C 368.3 18.7 367.8 15.7 366.6 13.1 C 365.4 10.5 363.7 8.5 361.4 7 C 359.1 5.6 356.6 4.9 353.7 4.9 C 349.7 4.9 346.2 6.2 343.3 9 C 340.4 11.8 339 16.4 339 22.9 Z M 380.9 55.6 L 380.9 12.6 L 385.7 12.6 C 385.7 12.6 385.66 16.61 385.7 16.6 C 386.8 15 388.1 13.8 389.5 13.1 C 390.9 12.3 392.7 11.9 394.7 11.9 C 397.3 11.9 399.7 12.5 401.7 13.9 C 403.7 15.3 405.3 17.2 406.3 19.7 C 407.4 22.2 407.9 24.9 407.9 27.9 C 407.9 31.1 407.3 33.9 406.2 36.5 C 405 39 403.4 41 401.2 42.3 C 399 43.7 396.7 44.4 394.3 44.4 C 392.5 44.4 391 44 389.6 43.3 C 388.2 42.5 387 41.6 386.1 40.5 C 386.13 40.46 386.1 55.6 386.1 55.6 L 380.9 55.6 Z M 385.6 28.3 C 385.6 32.3 386.4 35.3 388.1 37.2 C 389.7 39.1 391.7 40 394 40 C 396.3 40 398.3 39.1 400 37.1 C 401.6 35.1 402.5 32 402.5 27.9 C 402.5 23.9 401.7 20.9 400 19 C 398.4 17 396.5 16 394.2 16 C 391.9 16 390 17 388.2 19.1 C 386.5 21.2 385.6 24.3 385.6 28.3 Z M 435.5 33.7 C 435.5 33.7 441 34.3 441 34.3 C 440.1 37.5 438.5 40 436.2 41.7 C 433.9 43.5 430.9 44.4 427.3 44.4 C 422.7 44.4 419.1 43 416.5 40.2 C 413.8 37.4 412.5 33.4 412.5 28.4 C 412.5 23.2 413.8 19.1 416.5 16.2 C 419.2 13.3 422.7 11.9 427 11.9 C 431.2 11.9 434.6 13.3 437.2 16.1 C 439.8 18.9 441.2 22.9 441.2 28.1 C 441.2 28.4 441.1 28.8 441.1 29.5 C 441.1 29.5 417.9 29.5 417.9 29.5 C 418.1 32.9 419.1 35.5 420.8 37.3 C 422.6 39.1 424.7 40 427.3 40 C 429.3 40 430.9 39.5 432.3 38.5 C 433.6 37.5 434.7 35.9 435.5 33.7 Z M 418.2 25.1 C 418.2 25.1 435.6 25.1 435.6 25.1 C 435.4 22.5 434.7 20.6 433.6 19.2 C 431.9 17.2 429.7 16.2 427.1 16.2 C 424.6 16.2 422.6 17 421 18.6 C 419.3 20.3 418.4 22.4 418.2 25.1 Z M 447.5 43.7 L 447.5 12.6 L 452.3 12.6 C 452.3 12.6 452.29 17.29 452.3 17.3 C 453.5 15.1 454.6 13.6 455.6 12.9 C 456.7 12.2 457.8 11.9 459 11.9 C 460.8 11.9 462.6 12.4 464.4 13.6 C 464.4 13.6 462.6 18.5 462.6 18.5 C 461.3 17.7 460 17.3 458.8 17.3 C 457.6 17.3 456.6 17.7 455.7 18.4 C 454.7 19 454.1 20 453.7 21.2 C 453.1 23.1 452.8 25.2 452.8 27.4 C 452.81 27.39 452.8 43.7 452.8 43.7 L 447.5 43.7 Z M 488.9 43.7 C 488.4 42.6 488 41.3 487.9 39.8 C 485.9 41.5 484 42.7 482.2 43.4 C 480.4 44 478.5 44.4 476.4 44.4 C 473 44.4 470.4 43.5 468.5 41.9 C 466.7 40.2 465.8 38.1 465.8 35.5 C 465.8 34 466.1 32.6 466.8 31.3 C 467.5 30 468.4 29 469.6 28.3 C 470.7 27.5 471.9 26.9 473.3 26.5 C 474.4 26.3 475.9 26 478 25.8 C 482.3 25.2 485.4 24.6 487.4 23.9 C 487.5 23.2 487.5 22.8 487.5 22.6 C 487.5 20.4 487 18.9 486 18 C 484.6 16.8 482.6 16.2 480 16.2 C 477.5 16.2 475.7 16.7 474.5 17.5 C 473.3 18.4 472.4 19.9 471.9 22.1 C 471.9 22.1 466.7 21.4 466.7 21.4 C 467.2 19.2 467.9 17.5 469 16.1 C 470.1 14.7 471.6 13.7 473.7 13 C 475.7 12.2 478.1 11.9 480.7 11.9 C 483.4 11.9 485.5 12.2 487.2 12.8 C 488.9 13.4 490.1 14.2 490.9 15.2 C 491.7 16.1 492.2 17.3 492.5 18.8 C 492.7 19.6 492.8 21.3 492.8 23.6 C 492.8 23.6 492.8 30.6 492.8 30.6 C 492.8 35.5 492.9 38.6 493.1 39.9 C 493.3 41.2 493.8 42.5 494.4 43.7 C 494.44 43.68 488.9 43.7 488.9 43.7 C 488.9 43.7 488.94 43.68 488.9 43.7 Z M 487.4 28.1 C 485.5 28.8 482.7 29.5 478.8 30.1 C 476.7 30.4 475.1 30.7 474.2 31.1 C 473.3 31.5 472.6 32.1 472.1 32.8 C 471.7 33.6 471.4 34.4 471.4 35.3 C 471.4 36.7 471.9 37.9 473 38.8 C 474.1 39.8 475.6 40.3 477.7 40.3 C 479.7 40.3 481.5 39.8 483.1 38.9 C 484.7 38 485.8 36.8 486.6 35.3 C 487.2 34.1 487.4 32.3 487.4 30 C 487.4 30 487.4 28.1 487.4 28.1 Z M 510.1 39.2 C 510.7 39.2 511.5 39.1 512.5 39 C 512.5 39 513.2 43.6 513.2 43.6 C 511.7 43.9 510.4 44.1 509.2 44.1 C 507.3 44.1 505.8 43.8 504.8 43.2 C 503.7 42.6 503 41.8 502.6 40.8 C 502.1 39.8 501.9 37.7 501.9 34.6 C 501.91 34.57 501.9 16.7 501.9 16.7 L 498 16.7 L 498 12.6 L 501.9 12.6 L 501.9 4.9 L 507.2 1.7 L 507.2 12.6 L 512.5 12.6 L 512.5 16.7 L 507.2 16.7 C 507.2 16.7 507.16 34.86 507.2 34.9 C 507.2 36.4 507.3 37.3 507.4 37.8 C 507.6 38.2 507.9 38.5 508.3 38.8 C 508.8 39 509.4 39.2 510.1 39.2 C 510.1 39.2 510.1 39.2 510.1 39.2 Z M 517.6 6.8 L 517.6 0.7 L 522.9 0.7 L 522.9 6.8 L 517.6 6.8 Z M 517.6 43.7 L 517.6 12.6 L 522.9 12.6 L 522.9 43.7 L 517.6 43.7 Z M 529 28.1 C 529 22.4 530.6 18.1 533.8 15.3 C 536.5 13 539.7 11.9 543.6 11.9 C 547.9 11.9 551.3 13.3 554.1 16.1 C 556.8 18.9 558.1 22.7 558.1 27.7 C 558.1 31.7 557.5 34.8 556.3 37.1 C 555.1 39.4 553.4 41.2 551.1 42.5 C 548.8 43.7 546.3 44.4 543.6 44.4 C 539.2 44.4 535.7 43 533 40.2 C 530.3 37.4 529 33.4 529 28.1 Z M 534.4 28.1 C 534.4 32.1 535.3 35.1 537 37.1 C 538.7 39.1 540.9 40 543.6 40 C 546.2 40 548.4 39.1 550.1 37.1 C 551.8 35.1 552.7 32 552.7 27.9 C 552.7 24.1 551.8 21.2 550.1 19.2 C 548.3 17.2 546.2 16.2 543.6 16.2 C 540.9 16.2 538.7 17.2 537 19.2 C 535.3 21.2 534.4 24.1 534.4 28.1 Z M 564.3 43.7 L 564.3 12.6 L 569.1 12.6 C 569.1 12.6 569.06 16.99 569.1 17 C 571.3 13.6 574.6 11.9 579 11.9 C 580.8 11.9 582.6 12.2 584.1 12.9 C 585.7 13.5 586.9 14.4 587.7 15.5 C 588.4 16.6 589 17.9 589.3 19.4 C 589.5 20.4 589.6 22.1 589.6 24.6 C 589.6 24.55 589.6 43.7 589.6 43.7 L 584.3 43.7 C 584.3 43.7 584.33 24.76 584.3 24.8 C 584.3 22.6 584.1 21 583.7 19.9 C 583.3 18.9 582.6 18 581.5 17.4 C 580.5 16.8 579.3 16.4 577.9 16.4 C 575.6 16.4 573.7 17.1 572 18.6 C 570.4 20 569.6 22.7 569.6 26.7 C 569.59 26.69 569.6 43.7 569.6 43.7 L 564.3 43.7 Z M 595.6 34.4 C 595.6 34.4 600.8 33.6 600.8 33.6 C 601.1 35.7 601.9 37.3 603.2 38.4 C 604.6 39.5 606.4 40 608.8 40 C 611.3 40 613.1 39.6 614.2 38.6 C 615.4 37.6 616 36.4 616 35.1 C 616 33.9 615.5 33 614.4 32.3 C 613.7 31.8 611.9 31.2 609.1 30.5 C 605.2 29.5 602.5 28.7 601 28 C 599.5 27.3 598.4 26.3 597.6 25 C 596.8 23.7 596.5 22.4 596.5 20.8 C 596.5 19.4 596.8 18.2 597.4 17 C 598 15.8 598.9 14.8 600 14 C 600.8 13.4 601.9 12.9 603.4 12.5 C 604.8 12.1 606.3 11.9 607.9 11.9 C 610.4 11.9 612.5 12.2 614.3 12.9 C 616.2 13.6 617.5 14.6 618.4 15.8 C 619.3 17 619.9 18.6 620.2 20.6 C 620.2 20.6 615.1 21.3 615.1 21.3 C 614.9 19.7 614.2 18.4 613.1 17.5 C 611.9 16.7 610.3 16.2 608.3 16.2 C 605.9 16.2 604.1 16.6 603.1 17.4 C 602.1 18.2 601.6 19.1 601.6 20.2 C 601.6 20.9 601.8 21.5 602.2 22.1 C 602.6 22.6 603.3 23.1 604.2 23.5 C 604.7 23.7 606.3 24.1 608.9 24.8 C 612.6 25.8 615.2 26.6 616.7 27.3 C 618.2 27.9 619.3 28.8 620.2 30 C 621 31.2 621.4 32.7 621.4 34.5 C 621.4 36.3 620.9 38 619.9 39.5 C 618.9 41.1 617.4 42.3 615.4 43.1 C 613.5 44 611.3 44.4 608.9 44.4 C 604.8 44.4 601.8 43.5 599.6 41.9 C 597.5 40.2 596.2 37.7 595.6 34.4 Z " stroke="none" fill="#ffffff"/>
  </g>
</svg>