<?xml version="1.0" standalone="no"?>
<!DOCTYPE svg PUBLIC "-//W3C//DTD SVG 1.1//EN" "http://www.w3.org/Graphics/SVG/1.1/DTD/svg11.dtd">
<svg xmlns="http://www.w3.org/2000/svg" version="1.1" width="408px" height="60.7px" viewBox="0 -11 408 60.7" style="top:-11px">
  <desc>Select Pro Bono Clients</desc>
  <defs/>
  <g id="Polygon61673">
    <path d="M 1.4 15.9 C 1.4 15.9 4.3 15.7 4.3 15.7 C 4.4 16.8 4.7 17.8 5.2 18.5 C 5.7 19.2 6.5 19.8 7.5 20.3 C 8.6 20.7 9.8 21 11.1 21 C 12.2 21 13.2 20.8 14.1 20.5 C 15 20.1 15.7 19.6 16.1 19 C 16.5 18.4 16.8 17.8 16.8 17.1 C 16.8 16.4 16.5 15.7 16.1 15.2 C 15.7 14.7 15 14.2 14.1 13.8 C 13.4 13.6 12.1 13.2 10 12.7 C 7.9 12.2 6.4 11.7 5.6 11.3 C 4.5 10.7 3.7 10 3.1 9.2 C 2.6 8.3 2.3 7.4 2.3 6.3 C 2.3 5.2 2.6 4.1 3.3 3.1 C 4 2.1 4.9 1.3 6.2 0.8 C 7.4 0.3 8.8 0 10.4 0 C 12.1 0 13.6 0.3 14.9 0.8 C 16.2 1.4 17.2 2.2 17.9 3.2 C 18.6 4.3 18.9 5.5 19 6.8 C 19 6.8 16.1 7.1 16.1 7.1 C 15.9 5.6 15.4 4.5 14.5 3.8 C 13.6 3 12.3 2.7 10.5 2.7 C 8.7 2.7 7.3 3 6.5 3.7 C 5.7 4.4 5.2 5.2 5.2 6.1 C 5.2 6.9 5.5 7.6 6.1 8.1 C 6.7 8.7 8.2 9.2 10.7 9.8 C 13.2 10.3 14.8 10.8 15.8 11.2 C 17.1 11.8 18.1 12.6 18.7 13.6 C 19.4 14.5 19.7 15.6 19.7 16.8 C 19.7 18 19.3 19.2 18.6 20.3 C 17.9 21.4 16.9 22.2 15.6 22.8 C 14.3 23.4 12.8 23.7 11.2 23.7 C 9.1 23.7 7.4 23.4 6 22.8 C 4.6 22.2 3.5 21.3 2.7 20.1 C 1.9 18.8 1.5 17.5 1.4 15.9 Z M 34.8 18 C 34.8 18 37.7 18.3 37.7 18.3 C 37.3 20 36.4 21.3 35.2 22.3 C 33.9 23.2 32.3 23.7 30.4 23.7 C 28 23.7 26.1 22.9 24.6 21.4 C 23.2 19.9 22.5 17.8 22.5 15.1 C 22.5 12.3 23.2 10.2 24.7 8.6 C 26.1 7.1 28 6.3 30.3 6.3 C 32.5 6.3 34.3 7.1 35.7 8.6 C 37.1 10.1 37.8 12.2 37.8 15 C 37.8 15.1 37.8 15.4 37.8 15.7 C 37.8 15.7 25.4 15.7 25.4 15.7 C 25.5 17.5 26 18.9 27 19.9 C 27.9 20.9 29.1 21.4 30.4 21.4 C 31.5 21.4 32.3 21.1 33.1 20.5 C 33.8 20 34.4 19.1 34.8 18 Z M 25.6 13.4 C 25.6 13.4 34.8 13.4 34.8 13.4 C 34.7 12 34.4 11 33.8 10.3 C 32.9 9.2 31.7 8.6 30.3 8.6 C 29 8.6 27.9 9.1 27 9.9 C 26.2 10.8 25.7 12 25.6 13.4 Z M 41.2 23.3 L 41.2 0.4 L 44 0.4 L 44 23.3 L 41.2 23.3 Z M 59.7 18 C 59.7 18 62.6 18.3 62.6 18.3 C 62.2 20 61.3 21.3 60.1 22.3 C 58.8 23.2 57.3 23.7 55.3 23.7 C 52.9 23.7 51 22.9 49.6 21.4 C 48.1 19.9 47.4 17.8 47.4 15.1 C 47.4 12.3 48.1 10.2 49.6 8.6 C 51 7.1 52.9 6.3 55.2 6.3 C 57.4 6.3 59.2 7.1 60.6 8.6 C 62 10.1 62.7 12.2 62.7 15 C 62.7 15.1 62.7 15.4 62.7 15.7 C 62.7 15.7 50.3 15.7 50.3 15.7 C 50.4 17.5 50.9 18.9 51.9 19.9 C 52.8 20.9 54 21.4 55.3 21.4 C 56.4 21.4 57.3 21.1 58 20.5 C 58.7 20 59.3 19.1 59.7 18 Z M 50.5 13.4 C 50.5 13.4 59.8 13.4 59.8 13.4 C 59.6 12 59.3 11 58.7 10.3 C 57.8 9.2 56.6 8.6 55.2 8.6 C 53.9 8.6 52.8 9.1 51.9 9.9 C 51.1 10.8 50.6 12 50.5 13.4 Z M 77 17.2 C 77 17.2 79.8 17.6 79.8 17.6 C 79.4 19.5 78.7 21 77.4 22.1 C 76.2 23.1 74.7 23.7 72.8 23.7 C 70.6 23.7 68.7 22.9 67.4 21.4 C 66 20 65.3 17.8 65.3 15.1 C 65.3 13.3 65.6 11.7 66.2 10.4 C 66.8 9 67.7 8 68.9 7.3 C 70.1 6.7 71.4 6.3 72.9 6.3 C 74.7 6.3 76.1 6.8 77.3 7.7 C 78.4 8.6 79.2 9.9 79.5 11.6 C 79.5 11.6 76.8 12 76.8 12 C 76.5 10.9 76 10 75.4 9.5 C 74.7 8.9 73.9 8.6 73 8.6 C 71.6 8.6 70.4 9.1 69.5 10.2 C 68.6 11.2 68.2 12.8 68.2 15 C 68.2 17.2 68.6 18.8 69.5 19.8 C 70.3 20.9 71.4 21.4 72.8 21.4 C 73.9 21.4 74.8 21 75.6 20.3 C 76.3 19.7 76.8 18.6 77 17.2 Z M 87.1 20.9 C 87.4 20.9 87.8 20.9 88.3 20.8 C 88.3 20.8 88.7 23.3 88.7 23.3 C 87.9 23.4 87.2 23.5 86.6 23.5 C 85.6 23.5 84.8 23.4 84.2 23 C 83.6 22.7 83.2 22.3 83 21.8 C 82.8 21.2 82.7 20.1 82.7 18.4 C 82.67 18.44 82.7 8.9 82.7 8.9 L 80.6 8.9 L 80.6 6.7 L 82.7 6.7 L 82.7 2.6 L 85.5 0.9 L 85.5 6.7 L 88.3 6.7 L 88.3 8.9 L 85.5 8.9 C 85.5 8.9 85.47 18.59 85.5 18.6 C 85.5 19.4 85.5 19.9 85.6 20.1 C 85.7 20.4 85.9 20.6 86.1 20.7 C 86.3 20.8 86.6 20.9 87.1 20.9 C 87.1 20.9 87.1 20.9 87.1 20.9 Z M 100.3 23.3 L 100.3 0.4 C 100.3 0.4 108.94 0.39 108.9 0.4 C 110.5 0.4 111.6 0.5 112.4 0.6 C 113.5 0.8 114.5 1.2 115.3 1.7 C 116 2.2 116.6 2.9 117.1 3.9 C 117.5 4.8 117.8 5.9 117.8 7 C 117.8 9 117.2 10.6 115.9 12 C 114.7 13.3 112.4 14 109.2 14 C 109.2 13.98 103.3 14 103.3 14 L 103.3 23.3 L 100.3 23.3 Z M 103.3 11.3 C 103.3 11.3 109.25 11.28 109.3 11.3 C 111.2 11.3 112.6 10.9 113.4 10.2 C 114.2 9.5 114.7 8.4 114.7 7.1 C 114.7 6.2 114.4 5.3 113.9 4.6 C 113.4 4 112.8 3.5 112 3.3 C 111.5 3.2 110.6 3.1 109.2 3.1 C 109.19 3.09 103.3 3.1 103.3 3.1 L 103.3 11.3 Z M 121.3 23.3 L 121.3 6.7 L 123.8 6.7 C 123.8 6.7 123.78 9.22 123.8 9.2 C 124.4 8 125 7.3 125.6 6.9 C 126.1 6.5 126.7 6.3 127.4 6.3 C 128.3 6.3 129.3 6.6 130.3 7.2 C 130.3 7.2 129.3 9.8 129.3 9.8 C 128.6 9.4 127.9 9.2 127.2 9.2 C 126.6 9.2 126.1 9.4 125.6 9.8 C 125.1 10.2 124.7 10.7 124.5 11.3 C 124.2 12.3 124.1 13.4 124.1 14.6 C 124.06 14.61 124.1 23.3 124.1 23.3 L 121.3 23.3 Z M 130.9 15 C 130.9 11.9 131.7 9.7 133.5 8.2 C 134.9 6.9 136.6 6.3 138.7 6.3 C 141 6.3 142.8 7.1 144.3 8.6 C 145.7 10.1 146.4 12.1 146.4 14.8 C 146.4 16.9 146.1 18.6 145.5 19.8 C 144.8 21 143.9 22 142.7 22.7 C 141.5 23.3 140.1 23.7 138.7 23.7 C 136.3 23.7 134.5 22.9 133 21.4 C 131.6 19.9 130.9 17.8 130.9 15 Z M 133.8 15 C 133.8 17.1 134.2 18.7 135.2 19.8 C 136.1 20.8 137.3 21.4 138.7 21.4 C 140.1 21.4 141.2 20.8 142.2 19.8 C 143.1 18.7 143.5 17.1 143.5 14.9 C 143.5 12.9 143.1 11.3 142.1 10.2 C 141.2 9.2 140.1 8.7 138.7 8.7 C 137.3 8.7 136.1 9.2 135.2 10.2 C 134.2 11.3 133.8 12.9 133.8 15 Z M 158.9 23.3 L 158.9 0.4 C 158.9 0.4 167.45 0.39 167.5 0.4 C 169.2 0.4 170.6 0.6 171.7 1.1 C 172.7 1.5 173.5 2.3 174.1 3.2 C 174.7 4.2 175 5.2 175 6.3 C 175 7.2 174.8 8.2 174.3 9 C 173.7 9.9 172.9 10.6 171.8 11.1 C 173.2 11.5 174.3 12.2 175 13.2 C 175.8 14.2 176.2 15.3 176.2 16.7 C 176.2 17.7 175.9 18.7 175.5 19.6 C 175 20.6 174.5 21.3 173.8 21.8 C 173.1 22.3 172.3 22.7 171.3 22.9 C 170.3 23.2 169.1 23.3 167.6 23.3 C 167.59 23.3 158.9 23.3 158.9 23.3 Z M 161.9 10 C 161.9 10 166.84 10.02 166.8 10 C 168.2 10 169.2 9.9 169.7 9.8 C 170.5 9.5 171.1 9.1 171.5 8.6 C 171.9 8.1 172.1 7.4 172.1 6.6 C 172.1 5.8 171.9 5.2 171.5 4.6 C 171.2 4 170.6 3.6 170 3.4 C 169.3 3.2 168.1 3.1 166.5 3.1 C 166.47 3.09 161.9 3.1 161.9 3.1 L 161.9 10 Z M 161.9 20.6 C 161.9 20.6 167.59 20.59 167.6 20.6 C 168.6 20.6 169.3 20.6 169.7 20.5 C 170.4 20.4 170.9 20.2 171.4 19.9 C 171.9 19.6 172.3 19.1 172.6 18.6 C 172.9 18 173 17.4 173 16.7 C 173 15.8 172.8 15.1 172.4 14.4 C 171.9 13.8 171.3 13.4 170.5 13.1 C 169.8 12.8 168.6 12.7 167.2 12.7 C 167.19 12.72 161.9 12.7 161.9 12.7 L 161.9 20.6 Z M 178.9 15 C 178.9 11.9 179.8 9.7 181.5 8.2 C 182.9 6.9 184.7 6.3 186.7 6.3 C 189 6.3 190.8 7.1 192.3 8.6 C 193.7 10.1 194.5 12.1 194.5 14.8 C 194.5 16.9 194.1 18.6 193.5 19.8 C 192.9 21 191.9 22 190.7 22.7 C 189.5 23.3 188.2 23.7 186.7 23.7 C 184.4 23.7 182.5 22.9 181.1 21.4 C 179.6 19.9 178.9 17.8 178.9 15 Z M 181.8 15 C 181.8 17.1 182.3 18.7 183.2 19.8 C 184.1 20.8 185.3 21.4 186.7 21.4 C 188.1 21.4 189.3 20.8 190.2 19.8 C 191.1 18.7 191.6 17.1 191.6 14.9 C 191.6 12.9 191.1 11.3 190.2 10.2 C 189.2 9.2 188.1 8.7 186.7 8.7 C 185.3 8.7 184.1 9.2 183.2 10.2 C 182.3 11.3 181.8 12.9 181.8 15 Z M 197.8 23.3 L 197.8 6.7 L 200.3 6.7 C 200.3 6.7 200.3 9.06 200.3 9.1 C 201.5 7.2 203.3 6.3 205.6 6.3 C 206.6 6.3 207.5 6.5 208.3 6.9 C 209.2 7.2 209.8 7.7 210.2 8.3 C 210.6 8.9 210.9 9.6 211.1 10.4 C 211.2 10.9 211.3 11.8 211.3 13.1 C 211.25 13.09 211.3 23.3 211.3 23.3 L 208.4 23.3 C 208.4 23.3 208.44 13.2 208.4 13.2 C 208.4 12.1 208.3 11.2 208.1 10.6 C 207.9 10.1 207.5 9.6 206.9 9.3 C 206.4 8.9 205.7 8.8 205 8.8 C 203.8 8.8 202.8 9.1 201.9 9.9 C 201 10.7 200.6 12.1 200.6 14.2 C 200.58 14.23 200.6 23.3 200.6 23.3 L 197.8 23.3 Z M 214.5 15 C 214.5 11.9 215.4 9.7 217.1 8.2 C 218.5 6.9 220.2 6.3 222.3 6.3 C 224.6 6.3 226.4 7.1 227.9 8.6 C 229.3 10.1 230.1 12.1 230.1 14.8 C 230.1 16.9 229.7 18.6 229.1 19.8 C 228.5 21 227.5 22 226.3 22.7 C 225.1 23.3 223.7 23.7 222.3 23.7 C 220 23.7 218.1 22.9 216.7 21.4 C 215.2 19.9 214.5 17.8 214.5 15 Z M 217.4 15 C 217.4 17.1 217.9 18.7 218.8 19.8 C 219.7 20.8 220.9 21.4 222.3 21.4 C 223.7 21.4 224.9 20.8 225.8 19.8 C 226.7 18.7 227.2 17.1 227.2 14.9 C 227.2 12.9 226.7 11.3 225.8 10.2 C 224.8 9.2 223.7 8.7 222.3 8.7 C 220.9 8.7 219.7 9.2 218.8 10.2 C 217.9 11.3 217.4 12.9 217.4 15 Z M 259 15.3 C 259 15.3 262 16 262 16 C 261.3 18.5 260.2 20.4 258.6 21.7 C 256.9 23 254.9 23.7 252.5 23.7 C 250 23.7 248 23.2 246.5 22.2 C 244.9 21.2 243.8 19.7 242.9 17.8 C 242.1 15.9 241.7 13.9 241.7 11.7 C 241.7 9.3 242.2 7.2 243.1 5.4 C 244 3.7 245.3 2.3 247 1.4 C 248.7 0.5 250.5 0 252.5 0 C 254.8 0 256.8 0.6 258.3 1.8 C 259.9 2.9 261 4.6 261.6 6.7 C 261.6 6.7 258.6 7.4 258.6 7.4 C 258.1 5.7 257.3 4.5 256.3 3.7 C 255.3 3 254 2.6 252.5 2.6 C 250.7 2.6 249.3 3 248.1 3.9 C 246.9 4.7 246.1 5.8 245.6 7.3 C 245.1 8.7 244.9 10.1 244.9 11.7 C 244.9 13.6 245.1 15.3 245.7 16.8 C 246.3 18.2 247.2 19.3 248.4 20 C 249.6 20.7 250.9 21.1 252.3 21.1 C 253.9 21.1 255.4 20.6 256.6 19.6 C 257.7 18.6 258.5 17.2 259 15.3 Z M 265.3 23.3 L 265.3 0.4 L 268.1 0.4 L 268.1 23.3 L 265.3 23.3 Z M 272.5 3.6 L 272.5 0.4 L 275.3 0.4 L 275.3 3.6 L 272.5 3.6 Z M 272.5 23.3 L 272.5 6.7 L 275.3 6.7 L 275.3 23.3 L 272.5 23.3 Z M 290.9 18 C 290.9 18 293.8 18.3 293.8 18.3 C 293.4 20 292.5 21.3 291.3 22.3 C 290.1 23.2 288.5 23.7 286.5 23.7 C 284.1 23.7 282.2 22.9 280.8 21.4 C 279.4 19.9 278.6 17.8 278.6 15.1 C 278.6 12.3 279.4 10.2 280.8 8.6 C 282.2 7.1 284.1 6.3 286.4 6.3 C 288.6 6.3 290.4 7.1 291.8 8.6 C 293.2 10.1 293.9 12.2 293.9 15 C 293.9 15.1 293.9 15.4 293.9 15.7 C 293.9 15.7 281.5 15.7 281.5 15.7 C 281.7 17.5 282.2 18.9 283.1 19.9 C 284 20.9 285.2 21.4 286.6 21.4 C 287.6 21.4 288.5 21.1 289.2 20.5 C 289.9 20 290.5 19.1 290.9 18 Z M 281.7 13.4 C 281.7 13.4 291 13.4 291 13.4 C 290.8 12 290.5 11 289.9 10.3 C 289 9.2 287.8 8.6 286.4 8.6 C 285.1 8.6 284 9.1 283.2 9.9 C 282.3 10.8 281.8 12 281.7 13.4 Z M 297.4 23.3 L 297.4 6.7 L 299.9 6.7 C 299.9 6.7 299.91 9.06 299.9 9.1 C 301.1 7.2 302.9 6.3 305.2 6.3 C 306.2 6.3 307.1 6.5 307.9 6.9 C 308.8 7.2 309.4 7.7 309.8 8.3 C 310.2 8.9 310.5 9.6 310.7 10.4 C 310.8 10.9 310.9 11.8 310.9 13.1 C 310.86 13.09 310.9 23.3 310.9 23.3 L 308 23.3 C 308 23.3 308.05 13.2 308 13.2 C 308 12.1 307.9 11.2 307.7 10.6 C 307.5 10.1 307.1 9.6 306.6 9.3 C 306 8.9 305.3 8.8 304.6 8.8 C 303.4 8.8 302.4 9.1 301.5 9.9 C 300.6 10.7 300.2 12.1 300.2 14.2 C 300.19 14.23 300.2 23.3 300.2 23.3 L 297.4 23.3 Z M 320.1 20.9 C 320.4 20.9 320.8 20.9 321.3 20.8 C 321.3 20.8 321.7 23.3 321.7 23.3 C 320.9 23.4 320.2 23.5 319.6 23.5 C 318.6 23.5 317.8 23.4 317.2 23 C 316.7 22.7 316.3 22.3 316 21.8 C 315.8 21.2 315.7 20.1 315.7 18.4 C 315.69 18.44 315.7 8.9 315.7 8.9 L 313.6 8.9 L 313.6 6.7 L 315.7 6.7 L 315.7 2.6 L 318.5 0.9 L 318.5 6.7 L 321.3 6.7 L 321.3 8.9 L 318.5 8.9 C 318.5 8.9 318.48 18.59 318.5 18.6 C 318.5 19.4 318.5 19.9 318.6 20.1 C 318.7 20.4 318.9 20.6 319.1 20.7 C 319.3 20.8 319.7 20.9 320.1 20.9 C 320.1 20.9 320.1 20.9 320.1 20.9 Z M 322.9 18.3 C 322.9 18.3 325.7 17.9 325.7 17.9 C 325.9 19 326.3 19.9 327 20.5 C 327.7 21.1 328.7 21.4 330 21.4 C 331.3 21.4 332.3 21.1 332.9 20.6 C 333.5 20 333.8 19.4 333.8 18.7 C 333.8 18.1 333.6 17.6 333 17.2 C 332.6 17 331.7 16.7 330.1 16.3 C 328.1 15.7 326.6 15.3 325.8 14.9 C 325 14.5 324.4 14 324 13.3 C 323.6 12.7 323.4 11.9 323.4 11.1 C 323.4 10.4 323.6 9.7 323.9 9.1 C 324.3 8.4 324.7 7.9 325.3 7.5 C 325.7 7.2 326.3 6.9 327.1 6.7 C 327.8 6.4 328.7 6.3 329.5 6.3 C 330.8 6.3 332 6.5 332.9 6.9 C 333.9 7.3 334.7 7.8 335.1 8.4 C 335.6 9.1 335.9 9.9 336.1 11 C 336.1 11 333.3 11.4 333.3 11.4 C 333.2 10.5 332.9 9.8 332.3 9.4 C 331.7 8.9 330.8 8.6 329.7 8.6 C 328.4 8.6 327.5 8.9 327 9.3 C 326.4 9.7 326.1 10.2 326.1 10.8 C 326.1 11.1 326.2 11.5 326.5 11.8 C 326.7 12.1 327.1 12.3 327.5 12.5 C 327.8 12.6 328.7 12.9 330 13.2 C 332 13.8 333.4 14.2 334.2 14.5 C 335 14.9 335.6 15.4 336 16 C 336.5 16.7 336.7 17.5 336.7 18.4 C 336.7 19.4 336.4 20.2 335.9 21.1 C 335.4 21.9 334.6 22.5 333.5 23 C 332.5 23.4 331.3 23.7 330 23.7 C 327.9 23.7 326.2 23.2 325.1 22.3 C 324 21.4 323.3 20.1 322.9 18.3 Z " stroke="none" fill="#003a5c"/>
  </g>
</svg>