<?xml version="1.0" standalone="no"?>
<!DOCTYPE svg PUBLIC "-//W3C//DTD SVG 1.1//EN" "http://www.w3.org/Graphics/SVG/1.1/DTD/svg11.dtd">
<svg xmlns="http://www.w3.org/2000/svg" version="1.1" width="129.2px" height="46.3px" viewBox="0 -7 129.2 46.3" style="top:-7px">
  <desc>2020</desc>
  <defs/>
  <g id="Polygon62289">
    <path d="M 52.2 13.1 L 52.2 14.8 C 52.2 14.8 42.61 14.78 42.6 14.8 C 42.6 14.4 42.7 13.9 42.8 13.5 C 43.1 12.9 43.4 12.2 44 11.6 C 44.5 11 45.3 10.2 46.3 9.4 C 47.9 8.1 49 7.1 49.5 6.3 C 50.1 5.6 50.4 4.9 50.4 4.2 C 50.4 3.5 50.1 2.9 49.6 2.4 C 49.1 1.9 48.4 1.7 47.6 1.7 C 46.8 1.7 46.1 1.9 45.6 2.4 C 45 3 44.8 3.7 44.8 4.6 C 44.8 4.6 42.9 4.4 42.9 4.4 C 43.1 3 43.5 2 44.4 1.3 C 45.2 0.5 46.3 0.2 47.7 0.2 C 49.1 0.2 50.2 0.6 51 1.3 C 51.8 2.1 52.2 3.1 52.2 4.2 C 52.2 4.8 52.1 5.4 51.8 5.9 C 51.6 6.5 51.2 7.1 50.7 7.7 C 50.1 8.3 49.2 9.2 47.9 10.3 C 46.8 11.2 46.1 11.8 45.8 12.1 C 45.5 12.4 45.3 12.7 45.1 13.1 C 45.08 13.07 52.2 13.1 52.2 13.1 Z M 55.6 13.5 C 54.6 12.3 54.1 10.3 54.1 7.6 C 54.1 5.9 54.3 4.5 54.7 3.5 C 55 2.4 55.5 1.6 56.2 1 C 56.9 0.5 57.8 0.2 58.9 0.2 C 59.6 0.2 60.3 0.3 60.9 0.7 C 61.5 1 62 1.4 62.4 2 C 62.8 2.6 63.1 3.3 63.3 4.2 C 63.5 5 63.6 6.2 63.6 7.6 C 63.6 9.3 63.4 10.7 63.1 11.7 C 62.7 12.8 62.2 13.6 61.5 14.2 C 60.8 14.7 59.9 15 58.9 15 C 57.5 15 56.4 14.5 55.6 13.5 C 55.6 13.5 55.6 13.5 55.6 13.5 Z M 56.9 2.7 C 56.3 3.6 56 5.2 56 7.6 C 56 10 56.2 11.6 56.8 12.4 C 57.4 13.2 58 13.6 58.9 13.6 C 59.7 13.6 60.4 13.2 60.9 12.4 C 61.5 11.6 61.8 10 61.8 7.6 C 61.8 5.2 61.5 3.6 60.9 2.8 C 60.4 2.1 59.7 1.7 58.8 1.7 C 58 1.7 57.4 2 56.9 2.7 C 56.9 2.7 56.9 2.7 56.9 2.7 Z M 74.8 13.1 L 74.8 14.8 C 74.8 14.8 65.19 14.78 65.2 14.8 C 65.2 14.4 65.3 13.9 65.4 13.5 C 65.6 12.9 66 12.2 66.6 11.6 C 67.1 11 67.9 10.2 68.9 9.4 C 70.5 8.1 71.6 7.1 72.1 6.3 C 72.7 5.6 72.9 4.9 72.9 4.2 C 72.9 3.5 72.7 2.9 72.2 2.4 C 71.7 1.9 71 1.7 70.2 1.7 C 69.4 1.7 68.7 1.9 68.1 2.4 C 67.6 3 67.4 3.7 67.4 4.6 C 67.4 4.6 65.5 4.4 65.5 4.4 C 65.7 3 66.1 2 66.9 1.3 C 67.8 0.5 68.9 0.2 70.3 0.2 C 71.6 0.2 72.7 0.6 73.6 1.3 C 74.4 2.1 74.8 3.1 74.8 4.2 C 74.8 4.8 74.7 5.4 74.4 5.9 C 74.2 6.5 73.8 7.1 73.2 7.7 C 72.7 8.3 71.8 9.2 70.5 10.3 C 69.4 11.2 68.7 11.8 68.4 12.1 C 68.1 12.4 67.9 12.7 67.7 13.1 C 67.67 13.07 74.8 13.1 74.8 13.1 Z M 78.2 13.5 C 77.2 12.3 76.7 10.3 76.7 7.6 C 76.7 5.9 76.9 4.5 77.2 3.5 C 77.6 2.4 78.1 1.6 78.8 1 C 79.5 0.5 80.4 0.2 81.5 0.2 C 82.2 0.2 82.9 0.3 83.5 0.7 C 84.1 1 84.6 1.4 85 2 C 85.3 2.6 85.7 3.3 85.9 4.2 C 86.1 5 86.2 6.2 86.2 7.6 C 86.2 9.3 86 10.7 85.7 11.7 C 85.3 12.8 84.8 13.6 84.1 14.2 C 83.4 14.7 82.5 15 81.5 15 C 80.1 15 79 14.5 78.2 13.5 C 78.2 13.5 78.2 13.5 78.2 13.5 Z M 79.5 2.7 C 78.9 3.6 78.6 5.2 78.6 7.6 C 78.6 10 78.8 11.6 79.4 12.4 C 79.9 13.2 80.6 13.6 81.5 13.6 C 82.3 13.6 83 13.2 83.5 12.4 C 84.1 11.6 84.4 10 84.4 7.6 C 84.4 5.2 84.1 3.6 83.5 2.8 C 83 2.1 82.3 1.7 81.4 1.7 C 80.6 1.7 80 2 79.5 2.7 C 79.5 2.7 79.5 2.7 79.5 2.7 Z " stroke="none" fill="#54626c"/>
  </g>
</svg>