<?xml version="1.0" standalone="no"?><!DOCTYPE svg PUBLIC "-//W3C//DTD SVG 1.1//EN" "http://www.w3.org/Graphics/SVG/1.1/DTD/svg11.dtd"><svg xmlns="http://www.w3.org/2000/svg" version="1.1" width="329px" height="88.1px" viewBox="0 -6 329 88.1" style="top:-6px"><desc>Not only did we meet our reduction goals, we exceeded them — months ahead of schedule</desc><defs/><g id="Polygon68273"><path d="m1.2 56.3l0-9.3l1.4 0c0 0 0 1.28 0 1.3c.3-.5.7-.8 1.2-1.1c.5-.3 1-.4 1.6-.4c.7 0 1.3.1 1.7.4c.5.3.8.7 1 1.2c.7-1.1 1.7-1.6 2.9-1.6c.9 0 1.6.2 2.1.7c.5.5.7 1.3.7 2.4c.03 0 0 6.4 0 6.4l-1.5 0c0 0-.04-5.88 0-5.9c0-.6-.1-1.1-.2-1.3c-.1-.3-.3-.5-.6-.7c-.2-.2-.5-.3-.9-.3c-.7 0-1.2.2-1.6.7c-.5.4-.7 1.1-.7 2.1c.01-.02 0 5.4 0 5.4l-1.6 0c0 0 .03-6.06 0-6.1c0-.7-.1-1.2-.4-1.5c-.2-.4-.6-.6-1.2-.6c-.5 0-.9.1-1.3.4c-.3.2-.6.6-.8 1c-.1.5-.2 1.1-.2 2c-.03-.04 0 4.8 0 4.8l-1.6 0zm14.4-4.7c0-1.7.5-3 1.4-3.8c.8-.7 1.8-1 3-1c1.3 0 2.3.4 3.1 1.2c.8.9 1.2 2 1.2 3.5c0 1.2-.1 2.2-.5 2.8c-.4.7-.9 1.3-1.6 1.6c-.7.4-1.4.6-2.2.6c-1.3 0-2.4-.4-3.2-1.2c-.8-.9-1.2-2.1-1.2-3.7zm1.6 0c0 1.2.3 2.1.8 2.7c.5.6 1.2.9 2 .9c.8 0 1.4-.3 1.9-.9c.6-.6.8-1.5.8-2.7c0-1.2-.3-2-.8-2.6c-.5-.6-1.2-.9-1.9-.9c-.8 0-1.5.3-2 .9c-.5.5-.8 1.4-.8 2.6zm9 4.7l0-9.3l1.4 0c0 0 .02 1.3 0 1.3c.7-1 1.7-1.5 3-1.5c.5 0 1.1.1 1.5.3c.5.2.9.4 1.1.8c.2.3.4.7.5 1.1c0 .3.1.8.1 1.6c-.02-.03 0 5.7 0 5.7l-1.6 0c0 0-.01-5.67 0-5.7c0-.6-.1-1.1-.2-1.4c-.1-.3-.3-.6-.6-.8c-.4-.2-.7-.3-1.1-.3c-.7 0-1.3.2-1.8.7c-.5.4-.7 1.2-.7 2.4c-.03.01 0 5.1 0 5.1l-1.6 0zm12.8-1.3c.1 0 .4-.1.7-.1c0 0 .2 1.4.2 1.4c-.5.1-.9.1-1.2.1c-.6 0-1-.1-1.3-.2c-.4-.2-.6-.5-.7-.8c-.1-.3-.2-.9-.2-1.8c-.01-.03 0-5.4 0-5.4l-1.2 0l0-1.2l1.2 0l0-2.3l1.6-1l0 3.3l1.6 0l0 1.2l-1.6 0c0 0-.03 5.46 0 5.5c0 .4 0 .7 0 .8c.1.2.2.3.3.3c.1.1.3.2.6.2c0 0 0 0 0 0zm2.2 1.3l0-12.9l1.6 0c0 0-.01 4.64 0 4.6c.7-.8 1.7-1.2 2.8-1.2c.7 0 1.3.1 1.8.4c.5.2.9.6 1.1 1.1c.2.5.3 1.2.3 2.1c.01-.01 0 5.9 0 5.9l-1.6 0c0 0 .02-5.91 0-5.9c0-.8-.1-1.4-.5-1.7c-.3-.4-.8-.6-1.4-.6c-.5 0-1 .1-1.4.4c-.4.2-.7.6-.9 1c-.1.4-.2 1-.2 1.7c-.01 0 0 5.1 0 5.1l-1.6 0zm9.4-2.8c0 0 1.5-.2 1.5-.2c.1.6.4 1.1.8 1.4c.4.3.9.5 1.7.5c.7 0 1.2-.1 1.6-.4c.3-.3.5-.7.5-1.1c0-.3-.1-.6-.5-.8c-.2-.2-.7-.3-1.6-.6c-1.1-.2-1.9-.5-2.4-.7c-.4-.2-.8-.5-1-.9c-.2-.4-.4-.8-.4-1.3c0-.4.1-.8.3-1.1c.2-.4.5-.7.8-.9c.3-.2.6-.3 1-.5c.4-.1.9-.1 1.4-.1c.7 0 1.4.1 1.9.3c.6.2 1 .5 1.2.8c.3.4.5.9.6 1.5c0 0-1.6.2-1.6.2c0-.5-.2-.9-.6-1.1c-.3-.3-.8-.4-1.4-.4c-.7 0-1.2.1-1.6.3c-.3.3-.4.5-.4.9c0 .2 0 .4.2.5c.1.2.3.3.6.4c.1.1.6.2 1.4.4c1.1.3 1.9.6 2.3.8c.5.2.8.4 1.1.8c.2.4.3.8.3 1.4c0 .5-.1 1-.4 1.5c-.3.4-.8.8-1.4 1c-.5.3-1.2.4-1.9.4c-1.2 0-2.2-.2-2.8-.7c-.6-.5-1-1.3-1.2-2.3zm21 2.8c-.1-.3-.2-.7-.3-1.1c-.6.5-1.1.8-1.7 1c-.5.2-1.1.3-1.7.3c-1.1 0-1.8-.2-2.4-.7c-.5-.5-.8-1.2-.8-2c0-.4.1-.8.3-1.2c.2-.4.5-.7.8-.9c.3-.2.7-.4 1.1-.5c.4-.1.8-.2 1.5-.3c1.2-.1 2.2-.3 2.8-.5c0-.2 0-.4 0-.4c0-.7-.2-1.1-.5-1.4c-.4-.4-1-.5-1.8-.5c-.7 0-1.3.1-1.6.4c-.4.2-.6.7-.8 1.3c0 0-1.5-.2-1.5-.2c.1-.6.3-1.2.6-1.6c.4-.4.8-.7 1.4-.9c.7-.2 1.4-.3 2.2-.3c.8 0 1.4.1 1.9.2c.5.2.9.5 1.1.7c.2.3.4.7.5 1.1c0 .3.1.8.1 1.5c0 0 0 2.1 0 2.1c0 1.5 0 2.4.1 2.8c0 .4.2.7.4 1.1c-.03 0-1.7 0-1.7 0c0 0 .02 0 0 0zm-.4-4.7c-.6.3-1.5.5-2.6.6c-.7.1-1.1.2-1.4.3c-.3.2-.5.3-.6.5c-.2.3-.2.5-.2.8c0 .4.1.8.4 1.1c.4.2.8.4 1.4.4c.7 0 1.2-.2 1.7-.4c.4-.3.8-.7 1-1.1c.2-.4.3-.9.3-1.6c0 0 0-.6 0-.6zm4 4.7l0-12.9l1.6 0c0 0 .01 4.64 0 4.6c.7-.8 1.7-1.2 2.8-1.2c.7 0 1.3.1 1.8.4c.5.2.9.6 1.1 1.1c.2.5.3 1.2.3 2.1c.03-.01 0 5.9 0 5.9l-1.6 0c0 0 .05-5.91 0-5.9c0-.8-.1-1.4-.5-1.7c-.3-.4-.8-.6-1.4-.6c-.5 0-.9.1-1.3.4c-.5.2-.8.6-.9 1c-.2.4-.3 1-.3 1.7c.01 0 0 5.1 0 5.1l-1.6 0zm16.4-3c0 0 1.7.2 1.7.2c-.3 1-.8 1.7-1.5 2.2c-.7.6-1.6.8-2.6.8c-1.4 0-2.5-.4-3.3-1.2c-.8-.9-1.2-2.1-1.2-3.6c0-1.6.4-2.8 1.2-3.6c.8-.9 1.9-1.3 3.2-1.3c1.2 0 2.2.4 3 1.2c.8.9 1.2 2.1 1.2 3.6c0 .1 0 .3 0 .4c0 0-7 0-7 0c.1 1.1.4 1.9.9 2.4c.5.5 1.2.8 2 .8c.5 0 1-.1 1.5-.4c.4-.3.7-.8.9-1.5zm-5.2-2.6c0 0 5.2 0 5.2 0c0-.7-.2-1.3-.6-1.7c-.5-.6-1.1-.9-1.9-.9c-.7 0-1.4.2-1.8.7c-.5.5-.8 1.1-.9 1.9zm15.3 5.6c-.2-.3-.3-.7-.4-1.1c-.5.5-1.1.8-1.7 1c-.5.2-1.1.3-1.7.3c-1 0-1.8-.2-2.4-.7c-.5-.5-.8-1.2-.8-2c0-.4.1-.8.3-1.2c.2-.4.5-.7.8-.9c.4-.2.8-.4 1.2-.5c.3-.1.8-.2 1.4-.3c1.3-.1 2.2-.3 2.8-.5c0-.2 0-.4 0-.4c0-.7-.1-1.1-.4-1.4c-.4-.4-1-.5-1.8-.5c-.8 0-1.3.1-1.7.4c-.3.2-.6.7-.8 1.3c0 0-1.5-.2-1.5-.2c.1-.6.4-1.2.7-1.6c.3-.4.8-.7 1.4-.9c.6-.2 1.3-.3 2.1-.3c.8 0 1.4.1 1.9.2c.5.2.9.5 1.1.7c.3.3.4.7.5 1.1c.1.3.1.8.1 1.5c0 0 0 2.1 0 2.1c0 1.5 0 2.4.1 2.8c.1.4.2.7.4 1.1c.01 0-1.6 0-1.6 0c0 0-.05 0 0 0zm-.5-4.7c-.6.3-1.4.5-2.6.6c-.6.1-1.1.2-1.4.3c-.2.2-.4.3-.6.5c-.1.3-.2.5-.2.8c0 .4.2.8.5 1.1c.3.2.8.4 1.4.4c.6 0 1.1-.2 1.6-.4c.5-.3.8-.7 1.1-1.1c.1-.4.2-.9.2-1.6c0 0 0-.6 0-.6zm10.1 4.7c0 0 .01-1.17 0-1.2c-.6 1-1.4 1.4-2.6 1.4c-.7 0-1.4-.2-2-.6c-.7-.4-1.2-1-1.5-1.7c-.3-.8-.5-1.6-.5-2.6c0-.9.1-1.7.5-2.5c.3-.7.7-1.3 1.3-1.7c.7-.4 1.4-.6 2.1-.6c.6 0 1.1.1 1.5.3c.5.3.8.6 1.1.9c.01.04 0-4.6 0-4.6l1.6 0l0 12.9l-1.5 0zm-5-4.7c0 1.2.3 2.1.8 2.7c.5.6 1.1.9 1.8.9c.6 0 1.2-.3 1.7-.8c.5-.6.7-1.5.7-2.6c0-1.3-.2-2.2-.7-2.8c-.5-.6-1.1-.9-1.8-.9c-.7 0-1.3.3-1.8.8c-.5.6-.7 1.5-.7 2.7zm13.4 0c0-1.7.5-3 1.4-3.8c.8-.7 1.8-1 3-1c1.2 0 2.3.4 3.1 1.2c.8.9 1.2 2 1.2 3.5c0 1.2-.2 2.2-.5 2.8c-.4.7-.9 1.3-1.6 1.6c-.7.4-1.4.6-2.2.6c-1.3 0-2.4-.4-3.2-1.2c-.8-.9-1.2-2.1-1.2-3.7zm1.6 0c0 1.2.3 2.1.8 2.7c.5.6 1.2.9 2 .9c.7 0 1.4-.3 1.9-.9c.5-.6.8-1.5.8-2.7c0-1.2-.3-2-.8-2.6c-.5-.6-1.2-.9-1.9-.9c-.8 0-1.5.3-2 .9c-.5.5-.8 1.4-.8 2.6zm9.4 4.7l0-8.1l-1.4 0l0-1.2l1.4 0c0 0-.04-1.02 0-1c0-.6 0-1.1.1-1.4c.2-.4.4-.8.8-1c.4-.3 1-.4 1.6-.4c.5 0 1 .1 1.5.2c0 0-.2 1.3-.2 1.3c-.3 0-.7 0-1 0c-.4 0-.8.1-1 .3c-.2.2-.3.5-.3 1.1c.03.01 0 .9 0 .9l1.9 0l0 1.2l-1.9 0l0 8.1l-1.5 0zm8.9-2.8c0 0 1.6-.2 1.6-.2c.1.6.3 1.1.7 1.4c.4.3 1 .5 1.7.5c.8 0 1.3-.1 1.6-.4c.4-.3.6-.7.6-1.1c0-.3-.2-.6-.5-.8c-.2-.2-.7-.3-1.6-.6c-1.2-.2-2-.5-2.4-.7c-.5-.2-.8-.5-1-.9c-.3-.4-.4-.8-.4-1.3c0-.4.1-.8.3-1.1c.2-.4.4-.7.8-.9c.2-.2.6-.3 1-.5c.4-.1.9-.1 1.3-.1c.8 0 1.4.1 2 .3c.5.2.9.5 1.2.8c.3.4.5.9.5 1.5c0 0-1.5.2-1.5.2c-.1-.5-.3-.9-.6-1.1c-.3-.3-.8-.4-1.4-.4c-.8 0-1.3.1-1.6.3c-.3.3-.5.5-.5.9c0 .2.1.4.2.5c.2.2.4.3.6.4c.2.1.7.2 1.4.4c1.2.3 1.9.6 2.4.8c.4.2.8.4 1 .8c.3.4.4.8.4 1.4c0 .5-.2 1-.5 1.5c-.3.4-.7.8-1.3 1c-.6.3-1.2.4-2 .4c-1.2 0-2.1-.2-2.7-.7c-.7-.5-1.1-1.3-1.3-2.3zm15.8-.6c0 0 1.5.2 1.5.2c-.1 1.1-.6 1.9-1.3 2.5c-.7.6-1.5.9-2.6.9c-1.2 0-2.3-.4-3-1.2c-.8-.9-1.2-2.1-1.2-3.6c0-1 .2-1.9.5-2.7c.3-.7.8-1.3 1.5-1.7c.7-.4 1.4-.5 2.3-.5c1 0 1.8.2 2.4.7c.7.5 1.1 1.3 1.3 2.2c0 0-1.6.3-1.6.3c-.1-.7-.4-1.1-.7-1.5c-.4-.3-.9-.4-1.4-.4c-.8 0-1.4.2-1.9.8c-.5.6-.8 1.5-.8 2.7c0 1.3.3 2.2.7 2.8c.5.5 1.2.8 1.9.8c.6 0 1.2-.2 1.6-.6c.4-.3.7-.9.8-1.7zm2.9 3.4l0-12.9l1.6 0c0 0-.04 4.64 0 4.6c.7-.8 1.6-1.2 2.8-1.2c.7 0 1.3.1 1.8.4c.5.2.8.6 1.1 1.1c.2.5.3 1.2.3 2.1c-.02-.01 0 5.9 0 5.9l-1.6 0c0 0 0-5.91 0-5.9c0-.8-.2-1.4-.5-1.7c-.4-.4-.8-.6-1.5-.6c-.4 0-.9.1-1.3.4c-.4.2-.7.6-.9 1c-.1.4-.2 1-.2 1.7c-.04 0 0 5.1 0 5.1l-1.6 0zm16.4-3c0 0 1.6.2 1.6.2c-.2 1-.7 1.7-1.4 2.2c-.7.6-1.6.8-2.7.8c-1.4 0-2.4-.4-3.2-1.2c-.8-.9-1.2-2.1-1.2-3.6c0-1.6.4-2.8 1.2-3.6c.8-.9 1.8-1.3 3.1-1.3c1.3 0 2.3.4 3.1 1.2c.8.9 1.2 2.1 1.2 3.6c0 .1 0 .3 0 .4c0 0-7 0-7 0c.1 1.1.3 1.9.9 2.4c.5.5 1.1.8 1.9.8c.6 0 1.1-.1 1.5-.4c.4-.3.7-.8 1-1.5zm-5.2-2.6c0 0 5.2 0 5.2 0c-.1-.7-.3-1.3-.6-1.7c-.5-.6-1.2-.9-2-.9c-.7 0-1.3.2-1.8.7c-.5.5-.8 1.1-.8 1.9zm14.9 5.6c0 0-.04-1.17 0-1.2c-.6 1-1.5 1.4-2.7 1.4c-.7 0-1.4-.2-2-.6c-.6-.4-1.1-1-1.5-1.7c-.3-.8-.5-1.6-.5-2.6c0-.9.2-1.7.5-2.5c.3-.7.8-1.3 1.4-1.7c.6-.4 1.3-.6 2.1-.6c.5 0 1 .1 1.5.3c.4.3.8.6 1.1.9c-.05.04 0-4.6 0-4.6l1.5 0l0 12.9l-1.4 0zm-5-4.7c0 1.2.2 2.1.7 2.7c.5.6 1.1.9 1.8.9c.7 0 1.3-.3 1.8-.8c.4-.6.7-1.5.7-2.6c0-1.3-.3-2.2-.8-2.8c-.4-.6-1.1-.9-1.8-.9c-.7 0-1.3.3-1.7.8c-.5.6-.7 1.5-.7 2.7zm15 4.7c0 0 .03-1.37 0-1.4c-.7 1.1-1.7 1.6-2.9 1.6c-.6 0-1.1-.1-1.6-.3c-.5-.2-.8-.5-1-.8c-.3-.3-.4-.7-.5-1.2c-.1-.3-.1-.8-.1-1.4c-.02-.05 0-5.8 0-5.8l1.6 0c0 0-.04 5.15 0 5.1c0 .9 0 1.4.1 1.7c.1.4.3.8.6 1c.3.2.7.4 1.2.4c.5 0 .9-.2 1.3-.4c.4-.3.7-.6.9-1c.2-.4.3-1 .3-1.8c-.04-.03 0-5 0-5l1.5 0l0 9.3l-1.4 0zm3.9 0l0-12.9l1.6 0l0 12.9l-1.6 0zm10.4-3c0 0 1.6.2 1.6.2c-.2 1-.7 1.7-1.4 2.2c-.7.6-1.6.8-2.7.8c-1.3 0-2.4-.4-3.2-1.2c-.8-.9-1.2-2.1-1.2-3.6c0-1.6.4-2.8 1.2-3.6c.8-.9 1.9-1.3 3.2-1.3c1.2 0 2.2.4 3 1.2c.8.9 1.2 2.1 1.2 3.6c0 .1 0 .3 0 .4c0 0-7 0-7 0c.1 1.1.4 1.9.9 2.4c.5.5 1.2.8 2 .8c.5 0 1-.1 1.4-.4c.4-.3.8-.8 1-1.5zm-5.2-2.6c0 0 5.2 0 5.2 0c0-.7-.2-1.3-.6-1.7c-.5-.6-1.1-.9-1.9-.9c-.8 0-1.4.2-1.9.7c-.5.5-.7 1.1-.8 1.9zm9.3 5.6l0-1.8l1.8 0l0 1.8l-1.8 0z" stroke="none" fill="#54626c"/></g><g id="Polygon68272"><path d="m.9 35.5c0 0 1.5.2 1.5.2c.1.5.3.8.6 1c.4.3.9.5 1.6.5c.7 0 1.3-.2 1.7-.5c.4-.2.6-.7.8-1.2c.1-.3.1-1 .1-2c-.7.8-1.6 1.2-2.6 1.2c-1.3 0-2.3-.5-3-1.4c-.7-.9-1-2-1-3.3c0-.9.1-1.7.5-2.5c.3-.7.8-1.3 1.4-1.7c.6-.4 1.3-.6 2.1-.6c1.1 0 2 .4 2.7 1.3c.05 0 0-1.1 0-1.1l1.5 0c0 0 .01 8.04 0 8c0 1.5-.1 2.5-.4 3.1c-.3.6-.8 1.1-1.4 1.5c-.7.3-1.5.5-2.4.5c-1.1 0-2-.3-2.7-.8c-.7-.5-1-1.2-1-2.2zm1.3-5.6c0 1.2.2 2.1.7 2.7c.5.5 1.1.8 1.9.8c.7 0 1.3-.3 1.8-.8c.5-.6.7-1.5.7-2.7c0-1.1-.2-2-.7-2.6c-.5-.5-1.1-.8-1.9-.8c-.7 0-1.3.3-1.8.8c-.4.6-.7 1.4-.7 2.6zm8.4.1c0-1.7.5-3 1.4-3.8c.9-.7 1.8-1 3-1c1.3 0 2.3.4 3.1 1.2c.8.9 1.3 2 1.3 3.5c0 1.2-.2 2.2-.6 2.8c-.3.7-.9 1.3-1.6 1.6c-.6.4-1.4.6-2.2.6c-1.3 0-2.4-.4-3.2-1.2c-.8-.9-1.2-2.1-1.2-3.7zm1.6 0c0 1.2.3 2.1.8 2.7c.5.6 1.2.9 2 .9c.8 0 1.4-.3 1.9-.9c.6-.6.8-1.5.8-2.7c0-1.2-.2-2-.8-2.6c-.5-.6-1.1-.9-1.9-.9c-.8 0-1.5.3-2 .9c-.5.5-.8 1.4-.8 2.6zm15.4 4.7c-.1-.3-.3-.7-.3-1.1c-.6.5-1.2.8-1.7 1c-.5.2-1.1.3-1.7.3c-1.1 0-1.9-.2-2.4-.7c-.6-.5-.8-1.2-.8-2c0-.4.1-.8.3-1.2c.2-.4.5-.7.8-.9c.3-.2.7-.4 1.1-.5c.3-.1.8-.2 1.4-.3c1.3-.1 2.3-.3 2.9-.5c0-.2 0-.4 0-.4c0-.7-.2-1.1-.5-1.4c-.4-.4-1-.5-1.8-.5c-.7 0-1.3.1-1.6.4c-.4.2-.6.7-.8 1.3c0 0-1.6-.2-1.6-.2c.2-.6.4-1.2.7-1.6c.4-.4.8-.7 1.4-.9c.6-.2 1.4-.3 2.2-.3c.8 0 1.4.1 1.9.2c.5.2.9.5 1.1.7c.2.3.4.7.5 1.1c0 .3.1.8.1 1.5c0 0 0 2.1 0 2.1c0 1.5 0 2.4.1 2.8c0 .4.2.7.4 1.1c-.03 0-1.7 0-1.7 0c0 0 .02 0 0 0zm-.4-4.7c-.6.3-1.5.5-2.6.6c-.7.1-1.1.2-1.4.3c-.3.2-.5.3-.6.5c-.2.3-.2.5-.2.8c0 .4.1.8.4 1.1c.4.2.8.4 1.4.4c.6 0 1.2-.2 1.7-.4c.4-.3.8-.7 1-1.1c.2-.4.3-.9.3-1.6c0 0 0-.6 0-.6zm4 4.7l0-12.9l1.6 0l0 12.9l-1.6 0zm3.4-2.8c0 0 1.5-.2 1.5-.2c.1.6.4 1.1.8 1.4c.4.3.9.5 1.7.5c.7 0 1.2-.1 1.6-.4c.3-.3.5-.7.5-1.1c0-.3-.1-.6-.5-.8c-.2-.2-.7-.3-1.6-.6c-1.1-.2-1.9-.5-2.4-.7c-.4-.2-.8-.5-1-.9c-.2-.4-.4-.8-.4-1.3c0-.4.1-.8.3-1.1c.2-.4.5-.7.8-.9c.3-.2.6-.3 1-.5c.4-.1.9-.1 1.4-.1c.7 0 1.4.1 1.9.3c.6.2 1 .5 1.2.8c.3.4.5.9.6 1.5c0 0-1.6.2-1.6.2c0-.5-.2-.9-.6-1.1c-.3-.3-.8-.4-1.4-.4c-.7 0-1.2.1-1.6.3c-.3.3-.4.5-.4.9c0 .2 0 .4.2.5c.1.2.3.3.6.4c.1.1.6.2 1.4.4c1.1.3 1.9.6 2.3.8c.5.2.8.4 1.1.8c.2.4.3.8.3 1.4c0 .5-.1 1-.4 1.5c-.3.4-.8.8-1.4 1c-.5.3-1.2.4-1.9.4c-1.2 0-2.2-.2-2.8-.7c-.6-.5-1-1.3-1.2-2.3zm10 2.8l0-1.8l1.8 0c0 0 .03 1.8 0 1.8c0 .7-.1 1.2-.3 1.6c-.3.4-.6.7-1.1 1c0 0-.5-.7-.5-.7c.4-.2.6-.4.8-.7c.1-.3.2-.7.2-1.2c.03 0-.9 0-.9 0zm11.3 0l-2.8-9.3l1.6 0l1.5 5.4c0 0 .56 1.96.6 2c0-.1.1-.8.4-2c.04.04 1.5-5.4 1.5-5.4l1.7 0l1.4 5.4l.4 1.8l.6-1.8l1.6-5.4l1.5 0l-2.9 9.3l-1.7 0l-1.5-5.6l-.3-1.6l-1.9 7.2l-1.7 0zm17.7-3c0 0 1.6.2 1.6.2c-.2 1-.7 1.7-1.4 2.2c-.7.6-1.6.8-2.7.8c-1.3 0-2.4-.4-3.2-1.2c-.8-.9-1.2-2.1-1.2-3.6c0-1.6.4-2.8 1.2-3.6c.8-.9 1.9-1.3 3.2-1.3c1.2 0 2.2.4 3 1.2c.8.9 1.2 2.1 1.2 3.6c0 .1 0 .3 0 .4c0 0-7 0-7 0c.1 1.1.4 1.9.9 2.4c.5.5 1.2.8 1.9.8c.6 0 1.1-.1 1.5-.4c.4-.3.8-.8 1-1.5zm-5.2-2.6c0 0 5.2 0 5.2 0c0-.7-.2-1.3-.6-1.7c-.5-.6-1.1-.9-1.9-.9c-.8 0-1.4.2-1.9.7c-.5.5-.7 1.1-.8 1.9zm20.2 2.6c0 0 1.7.2 1.7.2c-.3 1-.8 1.7-1.5 2.2c-.7.6-1.6.8-2.6.8c-1.4 0-2.5-.4-3.3-1.2c-.8-.9-1.2-2.1-1.2-3.6c0-1.6.4-2.8 1.2-3.6c.8-.9 1.9-1.3 3.2-1.3c1.2 0 2.2.4 3 1.2c.8.9 1.2 2.1 1.2 3.6c0 .1 0 .3 0 .4c0 0-7 0-7 0c.1 1.1.4 1.9.9 2.4c.5.5 1.2.8 2 .8c.5 0 1-.1 1.4-.4c.5-.3.8-.8 1-1.5zm-5.2-2.6c0 0 5.2 0 5.2 0c0-.7-.2-1.3-.6-1.7c-.5-.6-1.1-.9-1.9-.9c-.7 0-1.4.2-1.9.7c-.4.5-.7 1.1-.8 1.9zm7.8 5.6l3.4-4.8l-3.2-4.5l2 0c0 0 1.45 2.16 1.5 2.2c.2.4.4.7.6 1c.3-.4.5-.7.7-1c.01-.02 1.6-2.2 1.6-2.2l1.9 0l-3.2 4.4l3.4 4.9l-1.9 0l-1.9-2.9l-.5-.8l-2.5 3.7l-1.9 0zm16.1-3.4c0 0 1.6.2 1.6.2c-.2 1.1-.6 1.9-1.3 2.5c-.7.6-1.6.9-2.6.9c-1.3 0-2.3-.4-3.1-1.2c-.8-.9-1.1-2.1-1.1-3.6c0-1 .1-1.9.5-2.7c.3-.7.8-1.3 1.5-1.7c.7-.4 1.4-.5 2.2-.5c1 0 1.9.2 2.5.7c.6.5 1.1 1.3 1.2 2.2c0 0-1.5.3-1.5.3c-.1-.7-.4-1.1-.8-1.5c-.3-.3-.8-.4-1.3-.4c-.8 0-1.5.2-2 .8c-.5.6-.7 1.5-.7 2.7c0 1.3.2 2.2.7 2.8c.5.5 1.1.8 1.9.8c.6 0 1.1-.2 1.5-.6c.5-.3.7-.9.8-1.7zm9.3.4c0 0 1.7.2 1.7.2c-.3 1-.8 1.7-1.5 2.2c-.7.6-1.6.8-2.6.8c-1.4 0-2.5-.4-3.3-1.2c-.8-.9-1.2-2.1-1.2-3.6c0-1.6.4-2.8 1.2-3.6c.8-.9 1.9-1.3 3.2-1.3c1.2 0 2.2.4 3 1.2c.8.9 1.2 2.1 1.2 3.6c0 .1 0 .3 0 .4c0 0-7 0-7 0c.1 1.1.4 1.9.9 2.4c.5.5 1.2.8 2 .8c.6 0 1-.1 1.5-.4c.4-.3.7-.8.9-1.5zm-5.2-2.6c0 0 5.2 0 5.2 0c0-.7-.2-1.3-.5-1.7c-.6-.6-1.2-.9-2-.9c-.7 0-1.3.2-1.8.7c-.5.5-.8 1.1-.9 1.9zm15.2 2.6c0 0 1.7.2 1.7.2c-.3 1-.8 1.7-1.5 2.2c-.7.6-1.5.8-2.6.8c-1.4 0-2.5-.4-3.3-1.2c-.8-.9-1.2-2.1-1.2-3.6c0-1.6.4-2.8 1.2-3.6c.8-.9 1.9-1.3 3.2-1.3c1.2 0 2.3.4 3 1.2c.8.9 1.2 2.1 1.2 3.6c0 .1 0 .3 0 .4c0 0-6.9 0-6.9 0c0 1.1.3 1.9.8 2.4c.6.5 1.2.8 2 .8c.6 0 1.1-.1 1.5-.4c.4-.3.7-.8.9-1.5zm-5.2-2.6c0 0 5.3 0 5.3 0c-.1-.7-.3-1.3-.6-1.7c-.5-.6-1.2-.9-2-.9c-.7 0-1.3.2-1.8.7c-.5.5-.8 1.1-.9 1.9zm14.9 5.6c0 0 .02-1.17 0-1.2c-.6 1-1.4 1.4-2.6 1.4c-.7 0-1.4-.2-2-.6c-.7-.4-1.2-1-1.5-1.7c-.3-.8-.5-1.6-.5-2.6c0-.9.1-1.7.5-2.5c.3-.7.7-1.3 1.4-1.7c.6-.4 1.3-.6 2-.6c.6 0 1.1.1 1.5.3c.5.3.8.6 1.1.9c.01.04 0-4.6 0-4.6l1.6 0l0 12.9l-1.5 0zm-5-4.7c0 1.2.3 2.1.8 2.7c.5.6 1.1.9 1.8.9c.6 0 1.2-.3 1.7-.8c.5-.6.7-1.5.7-2.6c0-1.3-.2-2.2-.7-2.8c-.5-.6-1.1-.9-1.8-.9c-.7 0-1.3.3-1.8.8c-.4.6-.7 1.5-.7 2.7zm15.4 1.7c0 0 1.6.2 1.6.2c-.3 1-.7 1.7-1.4 2.2c-.7.6-1.6.8-2.7.8c-1.4 0-2.5-.4-3.3-1.2c-.8-.9-1.2-2.1-1.2-3.6c0-1.6.5-2.8 1.3-3.6c.8-.9 1.8-1.3 3.1-1.3c1.3 0 2.3.4 3.1 1.2c.8.9 1.2 2.1 1.2 3.6c0 .1-.1.3-.1.4c0 0-6.9 0-6.9 0c0 1.1.3 1.9.9 2.4c.5.5 1.1.8 1.9.8c.6 0 1.1-.1 1.5-.4c.4-.3.7-.8 1-1.5zm-5.2-2.6c0 0 5.2 0 5.2 0c-.1-.7-.3-1.3-.6-1.7c-.5-.6-1.2-.9-2-.9c-.7 0-1.3.2-1.8.7c-.5.5-.8 1.1-.8 1.9zm14.8 5.6c0 0 .04-1.17 0-1.2c-.6 1-1.4 1.4-2.6 1.4c-.7 0-1.4-.2-2-.6c-.6-.4-1.1-1-1.5-1.7c-.3-.8-.5-1.6-.5-2.6c0-.9.2-1.7.5-2.5c.3-.7.8-1.3 1.4-1.7c.6-.4 1.3-.6 2.1-.6c.5 0 1 .1 1.5.3c.4.3.8.6 1 .9c.03.04 0-4.6 0-4.6l1.6 0l0 12.9l-1.5 0zm-5-4.7c0 1.2.3 2.1.8 2.7c.5.6 1.1.9 1.8.9c.7 0 1.3-.3 1.7-.8c.5-.6.8-1.5.8-2.6c0-1.3-.3-2.2-.8-2.8c-.5-.6-1.1-.9-1.8-.9c-.7 0-1.3.3-1.8.8c-.4.6-.7 1.5-.7 2.7zm16.8 3.4c.1 0 .4-.1.7-.1c0 0 .2 1.4.2 1.4c-.5.1-.9.1-1.2.1c-.6 0-1-.1-1.4-.2c-.3-.2-.5-.5-.6-.8c-.1-.3-.2-.9-.2-1.8c-.01-.03 0-5.4 0-5.4l-1.2 0l0-1.2l1.2 0l0-2.3l1.6-1l0 3.3l1.6 0l0 1.2l-1.6 0c0 0-.04 5.46 0 5.5c0 .4 0 .7 0 .8c.1.2.2.3.3.3c.1.1.3.2.6.2c0 0 0 0 0 0zm2.2 1.3l0-12.9l1.6 0c0 0-.02 4.64 0 4.6c.7-.8 1.6-1.2 2.8-1.2c.7 0 1.3.1 1.8.4c.5.2.9.6 1.1 1.1c.2.5.3 1.2.3 2.1c0-.01 0 5.9 0 5.9l-1.6 0c0 0 .02-5.91 0-5.9c0-.8-.2-1.4-.5-1.7c-.3-.4-.8-.6-1.5-.6c-.4 0-.9.1-1.3.4c-.4.2-.7.6-.9 1c-.1.4-.2 1-.2 1.7c-.02 0 0 5.1 0 5.1l-1.6 0zm16.4-3c0 0 1.6.2 1.6.2c-.2 1-.7 1.7-1.4 2.2c-.7.6-1.6.8-2.7.8c-1.3 0-2.4-.4-3.2-1.2c-.8-.9-1.2-2.1-1.2-3.6c0-1.6.4-2.8 1.2-3.6c.8-.9 1.9-1.3 3.1-1.3c1.3 0 2.3.4 3.1 1.2c.8.9 1.2 2.1 1.2 3.6c0 .1 0 .3 0 .4c0 0-7 0-7 0c.1 1.1.4 1.9.9 2.4c.5.5 1.2.8 1.9.8c.6 0 1.1-.1 1.5-.4c.4-.3.8-.8 1-1.5zm-5.2-2.6c0 0 5.2 0 5.2 0c-.1-.7-.3-1.3-.6-1.7c-.5-.6-1.1-.9-1.9-.9c-.8 0-1.4.2-1.9.7c-.5.5-.7 1.1-.8 1.9zm8.8 5.6l0-9.3l1.4 0c0 0 .03 1.28 0 1.3c.3-.5.7-.8 1.2-1.1c.5-.3 1-.4 1.7-.4c.7 0 1.2.1 1.7.4c.4.3.7.7.9 1.2c.7-1.1 1.7-1.6 2.9-1.6c.9 0 1.6.2 2.1.7c.5.5.8 1.3.8 2.4c-.03 0 0 6.4 0 6.4l-1.6 0c0 0-.01-5.88 0-5.9c0-.6-.1-1.1-.2-1.3c-.1-.3-.2-.5-.5-.7c-.3-.2-.6-.3-1-.3c-.6 0-1.2.2-1.6.7c-.4.4-.7 1.1-.7 2.1c.05-.02 0 5.4 0 5.4l-1.5 0c0 0-.04-6.06 0-6.1c0-.7-.2-1.2-.4-1.5c-.3-.4-.7-.6-1.3-.6c-.4 0-.8.1-1.2.4c-.4.2-.7.6-.8 1c-.2.5-.3 1.1-.3 2c0-.04 0 4.8 0 4.8l-1.6 0zm18.8-4l0-1.3l18 0l0 1.3l-18 0z" stroke="none" fill="#54626c"/></g><g id="Polygon68271"><path d="m1.4 13.1l0-12.9l1.7 0l6.8 10.1l0-10.1l1.6 0l0 12.9l-1.7 0l-6.8-10.1l0 10.1l-1.6 0zm12.2-4.7c0-1.7.5-3 1.4-3.8c.8-.7 1.8-1 3-1c1.3 0 2.3.4 3.1 1.2c.8.9 1.2 2 1.2 3.5c0 1.2-.1 2.2-.5 2.8c-.4.7-.9 1.3-1.6 1.6c-.7.4-1.4.6-2.2.6c-1.3 0-2.4-.4-3.2-1.2c-.8-.9-1.2-2.1-1.2-3.7zm1.6 0c0 1.2.3 2.1.8 2.7c.5.6 1.2.9 2 .9c.8 0 1.4-.3 1.9-.9c.6-.6.8-1.5.8-2.7c0-1.2-.2-2-.8-2.6c-.5-.6-1.1-.9-1.9-.9c-.8 0-1.5.3-2 .9c-.5.5-.8 1.4-.8 2.6zm11.8 3.4c.1 0 .4-.1.7-.1c0 0 .2 1.4.2 1.4c-.5.1-.9.1-1.2.1c-.6 0-1-.1-1.4-.2c-.3-.2-.5-.5-.6-.8c-.1-.3-.2-.9-.2-1.8c-.01-.03 0-5.4 0-5.4l-1.2 0l0-1.2l1.2 0l0-2.3l1.6-1l0 3.3l1.6 0l0 1.2l-1.6 0c0 0-.04 5.46 0 5.5c0 .4 0 .7 0 .8c.1.2.2.3.3.3c.1.1.3.2.6.2c0 0 0 0 0 0zm6.6-3.4c0-1.7.5-3 1.5-3.8c.8-.7 1.7-1 2.9-1c1.3 0 2.3.4 3.1 1.2c.8.9 1.3 2 1.3 3.5c0 1.2-.2 2.2-.6 2.8c-.3.7-.9 1.3-1.6 1.6c-.6.4-1.4.6-2.2.6c-1.3 0-2.4-.4-3.2-1.2c-.8-.9-1.2-2.1-1.2-3.7zm1.6 0c0 1.2.3 2.1.8 2.7c.5.6 1.2.9 2 .9c.8 0 1.4-.3 1.9-.9c.6-.6.8-1.5.8-2.7c0-1.2-.2-2-.8-2.6c-.5-.6-1.1-.9-1.9-.9c-.8 0-1.5.3-2 .9c-.5.5-.8 1.4-.8 2.6zm9 4.7l0-9.3l1.4 0c0 0 .03 1.3 0 1.3c.7-1 1.7-1.5 3-1.5c.6 0 1.1.1 1.6.3c.4.2.8.4 1 .8c.2.3.4.7.5 1.1c.1.3.1.8.1 1.6c-.01-.03 0 5.7 0 5.7l-1.6 0c0 0 .01-5.67 0-5.7c0-.6 0-1.1-.2-1.4c-.1-.3-.3-.6-.6-.8c-.3-.2-.7-.3-1.1-.3c-.7 0-1.3.2-1.8.7c-.5.4-.7 1.2-.7 2.4c-.01.01 0 5.1 0 5.1l-1.6 0zm10 0l0-12.9l1.6 0l0 12.9l-1.6 0zm5 3.8c-.3 0-.7-.1-1.1-.2c0 0-.1-1.5-.1-1.5c.3.1.6.2.9.2c.3 0 .6-.1.8-.2c.2-.1.4-.3.5-.5c.1-.2.3-.6.5-1.2c.1-.1.1-.2.2-.4c-.04.02-3.6-9.3-3.6-9.3l1.7 0c0 0 1.97 5.38 2 5.4c.2.7.4 1.4.6 2.1c.2-.7.4-1.4.7-2.1c0 .01 2-5.4 2-5.4l1.6 0c0 0-3.58 9.46-3.6 9.5c-.4 1-.7 1.7-.9 2.1c-.2.5-.6.9-.9 1.1c-.4.3-.8.4-1.3.4c0 0 0 0 0 0zm19.1-3.8c0 0-.02-1.17 0-1.2c-.6 1-1.5 1.4-2.6 1.4c-.8 0-1.5-.2-2.1-.6c-.6-.4-1.1-1-1.4-1.7c-.4-.8-.6-1.6-.6-2.6c0-.9.2-1.7.5-2.5c.3-.7.8-1.3 1.4-1.7c.6-.4 1.3-.6 2.1-.6c.6 0 1.1.1 1.5.3c.4.3.8.6 1.1.9c-.03.04 0-4.6 0-4.6l1.5 0l0 12.9l-1.4 0zm-5-4.7c0 1.2.2 2.1.7 2.7c.5.6 1.1.9 1.8.9c.7 0 1.3-.3 1.8-.8c.5-.6.7-1.5.7-2.6c0-1.3-.2-2.2-.7-2.8c-.5-.6-1.1-.9-1.9-.9c-.7 0-1.2.3-1.7.8c-.5.6-.7 1.5-.7 2.7zm8.9-6.4l0-1.8l1.6 0l0 1.8l-1.6 0zm0 11.1l0-9.3l1.6 0l0 9.3l-1.6 0zm10.1 0c0 0-.01-1.17 0-1.2c-.6 1-1.5 1.4-2.6 1.4c-.8 0-1.5-.2-2.1-.6c-.6-.4-1.1-1-1.4-1.7c-.4-.8-.5-1.6-.5-2.6c0-.9.1-1.7.4-2.5c.3-.7.8-1.3 1.4-1.7c.6-.4 1.3-.6 2.1-.6c.6 0 1.1.1 1.5.3c.4.3.8.6 1.1.9c-.02.04 0-4.6 0-4.6l1.6 0l0 12.9l-1.5 0zm-5-4.7c0 1.2.2 2.1.7 2.7c.5.6 1.1.9 1.8.9c.7 0 1.3-.3 1.8-.8c.5-.6.7-1.5.7-2.6c0-1.3-.2-2.2-.7-2.8c-.5-.6-1.1-.9-1.8-.9c-.7 0-1.3.3-1.8.8c-.5.6-.7 1.5-.7 2.7zm15.7 4.7l-2.9-9.3l1.6 0l1.5 5.4c0 0 .58 1.96.6 2c0-.1.2-.8.5-2c-.04.04 1.5-5.4 1.5-5.4l1.6 0l1.4 5.4l.4 1.8l.6-1.8l1.6-5.4l1.5 0l-2.9 9.3l-1.6 0l-1.5-5.6l-.4-1.6l-1.9 7.2l-1.6 0zm17.6-3c0 0 1.7.2 1.7.2c-.3 1-.8 1.7-1.5 2.2c-.7.6-1.6.8-2.6.8c-1.4 0-2.5-.4-3.3-1.2c-.8-.9-1.2-2.1-1.2-3.6c0-1.6.4-2.8 1.2-3.6c.8-.9 1.9-1.3 3.2-1.3c1.2 0 2.2.4 3 1.2c.8.9 1.2 2.1 1.2 3.6c0 .1 0 .3 0 .4c0 0-7 0-7 0c.1 1.1.4 1.9.9 2.4c.5.5 1.2.8 2 .8c.5 0 1-.1 1.5-.4c.4-.3.7-.8.9-1.5zm-5.2-2.6c0 0 5.2 0 5.2 0c0-.7-.2-1.3-.6-1.7c-.5-.6-1.1-.9-1.9-.9c-.7 0-1.3.2-1.8.7c-.5.5-.8 1.1-.9 1.9zm13.9 5.6l0-9.3l1.4 0c0 0-.03 1.28 0 1.3c.3-.5.6-.8 1.1-1.1c.5-.3 1.1-.4 1.7-.4c.7 0 1.3.1 1.7.4c.4.3.8.7.9 1.2c.8-1.1 1.7-1.6 2.9-1.6c.9 0 1.7.2 2.2.7c.5.5.7 1.3.7 2.4c0 0 0 6.4 0 6.4l-1.6 0c0 0 .03-5.88 0-5.9c0-.6 0-1.1-.1-1.3c-.1-.3-.3-.5-.6-.7c-.3-.2-.6-.3-.9-.3c-.7 0-1.2.2-1.7.7c-.4.4-.6 1.1-.6 2.1c-.02-.02 0 5.4 0 5.4l-1.6 0c0 0 0-6.06 0-6.1c0-.7-.1-1.2-.4-1.5c-.2-.4-.7-.6-1.3-.6c-.4 0-.8.1-1.2.4c-.4.2-.6.6-.8 1c-.2.5-.3 1.1-.3 2c.03-.04 0 4.8 0 4.8l-1.5 0zm21.3-3c0 0 1.7.2 1.7.2c-.3 1-.8 1.7-1.5 2.2c-.7.6-1.6.8-2.6.8c-1.4 0-2.5-.4-3.3-1.2c-.8-.9-1.2-2.1-1.2-3.6c0-1.6.4-2.8 1.2-3.6c.8-.9 1.9-1.3 3.2-1.3c1.2 0 2.2.4 3 1.2c.8.9 1.2 2.1 1.2 3.6c0 .1 0 .3 0 .4c0 0-6.9 0-6.9 0c0 1.1.3 1.9.8 2.4c.5.5 1.2.8 2 .8c.6 0 1-.1 1.5-.4c.4-.3.7-.8.9-1.5zm-5.2-2.6c0 0 5.3 0 5.3 0c-.1-.7-.3-1.3-.6-1.7c-.5-.6-1.2-.9-2-.9c-.7 0-1.3.2-1.8.7c-.5.5-.8 1.1-.9 1.9zm15.2 2.6c0 0 1.7.2 1.7.2c-.3 1-.8 1.7-1.5 2.2c-.6.6-1.5.8-2.6.8c-1.4 0-2.5-.4-3.3-1.2c-.8-.9-1.2-2.1-1.2-3.6c0-1.6.4-2.8 1.2-3.6c.9-.9 1.9-1.3 3.2-1.3c1.2 0 2.3.4 3 1.2c.8.9 1.2 2.1 1.2 3.6c0 .1 0 .3 0 .4c0 0-6.9 0-6.9 0c0 1.1.3 1.9.8 2.4c.6.5 1.2.8 2 .8c.6 0 1.1-.1 1.5-.4c.4-.3.7-.8.9-1.5zm-5.1-2.6c0 0 5.2 0 5.2 0c-.1-.7-.3-1.3-.6-1.7c-.5-.6-1.2-.9-2-.9c-.7 0-1.3.2-1.8.7c-.5.5-.8 1.1-.8 1.9zm11.5 4.3c.2 0 .4-.1.7-.1c0 0 .3 1.4.3 1.4c-.5.1-.9.1-1.2.1c-.6 0-1.1-.1-1.4-.2c-.3-.2-.5-.5-.6-.8c-.2-.3-.2-.9-.2-1.8c-.04-.03 0-5.4 0-5.4l-1.2 0l0-1.2l1.2 0l0-2.3l1.5-1l0 3.3l1.6 0l0 1.2l-1.6 0c0 0 .03 5.46 0 5.5c0 .4.1.7.1.8c.1.2.2.3.3.3c.1.1.3.2.5.2c0 0 0 0 0 0zm6.7-3.4c0-1.7.5-3 1.4-3.8c.8-.7 1.8-1 3-1c1.2 0 2.3.4 3.1 1.2c.8.9 1.2 2 1.2 3.5c0 1.2-.2 2.2-.5 2.8c-.4.7-.9 1.3-1.6 1.6c-.7.4-1.4.6-2.2.6c-1.3 0-2.4-.4-3.2-1.2c-.8-.9-1.2-2.1-1.2-3.7zm1.6 0c0 1.2.3 2.1.8 2.7c.5.6 1.2.9 2 .9c.7 0 1.4-.3 1.9-.9c.5-.6.8-1.5.8-2.7c0-1.2-.3-2-.8-2.6c-.5-.6-1.2-.9-1.9-.9c-.8 0-1.5.3-2 .9c-.5.5-.8 1.4-.8 2.6zm15.1 4.7c0 0 0-1.37 0-1.4c-.7 1.1-1.7 1.6-3 1.6c-.5 0-1-.1-1.5-.3c-.5-.2-.8-.5-1.1-.8c-.2-.3-.4-.7-.5-1.2c0-.3-.1-.8-.1-1.4c.05-.05 0-5.8 0-5.8l1.6 0c0 0 .03 5.15 0 5.1c0 .9.1 1.4.1 1.7c.1.4.3.8.7 1c.3.2.7.4 1.2.4c.4 0 .9-.2 1.3-.4c.4-.3.7-.6.9-1c.1-.4.2-1 .2-1.8c.03-.03 0-5 0-5l1.6 0l0 9.3l-1.4 0zm3.9 0l0-9.3l1.4 0c0 0 0 1.39 0 1.4c.4-.7.7-1.1 1-1.3c.3-.2.6-.3 1-.3c.6 0 1.1.1 1.6.5c0 0-.5 1.4-.5 1.4c-.4-.2-.8-.3-1.2-.3c-.3 0-.6.1-.9.3c-.3.2-.5.5-.6.9c-.2.5-.2 1.1-.2 1.8c-.04.02 0 4.9 0 4.9l-1.6 0zm11 0l0-9.3l1.4 0c0 0-.01 1.39 0 1.4c.4-.7.7-1.1 1-1.3c.3-.2.6-.3 1-.3c.5 0 1.1.1 1.6.5c0 0-.5 1.4-.5 1.4c-.4-.2-.8-.3-1.2-.3c-.3 0-.6.1-.9.3c-.3.2-.5.5-.6.9c-.2.5-.2 1.1-.2 1.8c-.05.02 0 4.9 0 4.9l-1.6 0zm12.4-3c0 0 1.6.2 1.6.2c-.3 1-.7 1.7-1.4 2.2c-.7.6-1.6.8-2.7.8c-1.4 0-2.4-.4-3.2-1.2c-.8-.9-1.2-2.1-1.2-3.6c0-1.6.4-2.8 1.2-3.6c.8-.9 1.8-1.3 3.1-1.3c1.3 0 2.3.4 3.1 1.2c.8.9 1.2 2.1 1.2 3.6c0 .1 0 .3-.1.4c0 0-6.9 0-6.9 0c0 1.1.3 1.9.9 2.4c.5.5 1.1.8 1.9.8c.6 0 1.1-.1 1.5-.4c.4-.3.7-.8 1-1.5zm-5.2-2.6c0 0 5.2 0 5.2 0c-.1-.7-.3-1.3-.6-1.7c-.5-.6-1.2-.9-2-.9c-.7 0-1.3.2-1.8.7c-.5.5-.8 1.1-.8 1.9zm14.8 5.6c0 0 .05-1.17 0-1.2c-.5 1-1.4 1.4-2.6 1.4c-.7 0-1.4-.2-2-.6c-.6-.4-1.1-1-1.5-1.7c-.3-.8-.5-1.6-.5-2.6c0-.9.2-1.7.5-2.5c.3-.7.8-1.3 1.4-1.7c.6-.4 1.3-.6 2.1-.6c.5 0 1 .1 1.5.3c.4.3.8.6 1 .9c.04.04 0-4.6 0-4.6l1.6 0l0 12.9l-1.5 0zm-5-4.7c0 1.2.3 2.1.8 2.7c.5.6 1.1.9 1.8.9c.7 0 1.3-.3 1.7-.8c.5-.6.8-1.5.8-2.6c0-1.3-.3-2.2-.8-2.8c-.5-.6-1.1-.9-1.8-.9c-.7 0-1.3.3-1.7.8c-.5.6-.8 1.5-.8 2.7zm15.1 4.7c0 0 .02-1.37 0-1.4c-.7 1.1-1.7 1.6-2.9 1.6c-.6 0-1.1-.1-1.6-.3c-.5-.2-.8-.5-1-.8c-.3-.3-.4-.7-.5-1.2c-.1-.3-.1-.8-.1-1.4c-.03-.05 0-5.8 0-5.8l1.5 0c0 0 .05 5.15 0 5.1c0 .9.1 1.4.1 1.7c.1.4.4.8.7 1c.3.2.7.4 1.2.4c.4 0 .9-.2 1.3-.4c.4-.3.7-.6.9-1c.2-.4.3-1 .3-1.8c-.05-.03 0-5 0-5l1.5 0l0 9.3l-1.4 0zm10-3.4c0 0 1.6.2 1.6.2c-.2 1.1-.6 1.9-1.3 2.5c-.7.6-1.6.9-2.6.9c-1.3 0-2.3-.4-3.1-1.2c-.8-.9-1.2-2.1-1.2-3.6c0-1 .2-1.9.5-2.7c.4-.7.9-1.3 1.6-1.7c.6-.4 1.4-.5 2.2-.5c1 0 1.8.2 2.5.7c.6.5 1 1.3 1.2 2.2c0 0-1.5.3-1.5.3c-.2-.7-.4-1.1-.8-1.5c-.4-.3-.8-.4-1.4-.4c-.8 0-1.4.2-1.9.8c-.5.6-.7 1.5-.7 2.7c0 1.3.2 2.2.7 2.8c.5.5 1.1.8 1.9.8c.6 0 1.1-.2 1.5-.6c.4-.3.7-.9.8-1.7zm5.7 2.1c.1 0 .4-.1.7-.1c0 0 .2 1.4.2 1.4c-.5.1-.8.1-1.2.1c-.6 0-1-.1-1.3-.2c-.4-.2-.6-.5-.7-.8c-.1-.3-.2-.9-.2-1.8c0-.03 0-5.4 0-5.4l-1.2 0l0-1.2l1.2 0l0-2.3l1.6-1l0 3.3l1.6 0l0 1.2l-1.6 0c0 0-.02 5.46 0 5.5c0 .4 0 .7.1.8c0 .2.1.3.2.3c.2.1.3.2.6.2c0 0 0 0 0 0zm2.2-9.8l0-1.8l1.6 0l0 1.8l-1.6 0zm0 11.1l0-9.3l1.6 0l0 9.3l-1.6 0zm3.4-4.7c0-1.7.5-3 1.5-3.8c.8-.7 1.7-1 2.9-1c1.3 0 2.3.4 3.1 1.2c.9.9 1.3 2 1.3 3.5c0 1.2-.2 2.2-.6 2.8c-.3.7-.9 1.3-1.5 1.6c-.7.4-1.5.6-2.3.6c-1.3 0-2.4-.4-3.2-1.2c-.8-.9-1.2-2.1-1.2-3.7zm1.6 0c0 1.2.3 2.1.8 2.7c.6.6 1.2.9 2 .9c.8 0 1.4-.3 2-.9c.5-.6.7-1.5.7-2.7c0-1.2-.2-2-.7-2.6c-.6-.6-1.2-.9-2-.9c-.8 0-1.4.3-2 .9c-.5.5-.8 1.4-.8 2.6zm9 4.7l0-9.3l1.4 0c0 0 .05 1.3 0 1.3c.7-1 1.7-1.5 3-1.5c.6 0 1.1.1 1.6.3c.4.2.8.4 1 .8c.3.3.4.7.5 1.1c.1.3.1.8.1 1.6c.01-.03 0 5.7 0 5.7l-1.6 0c0 0 .03-5.67 0-5.7c0-.6 0-1.1-.2-1.4c-.1-.3-.3-.6-.6-.8c-.3-.2-.7-.3-1.1-.3c-.7 0-1.3.2-1.8.7c-.5.4-.7 1.2-.7 2.4c.01.01 0 5.1 0 5.1l-1.6 0z" stroke="none" fill="#54626c"/></g></svg>