<?xml version="1.0" standalone="no"?>
<!DOCTYPE svg PUBLIC "-//W3C//DTD SVG 1.1//EN" "http://www.w3.org/Graphics/SVG/1.1/DTD/svg11.dtd">
<svg xmlns="http://www.w3.org/2000/svg" version="1.1" width="784.5px" height="60.7px" viewBox="0 -11 784.5 60.7" style="top:-11px">
  <desc>Select Thought Leadership</desc>
  <defs/>
  <g id="Polygon61395">
    <path d="M 1.4 15.9 C 1.4 15.9 4.3 15.7 4.3 15.7 C 4.4 16.8 4.7 17.8 5.2 18.5 C 5.7 19.2 6.5 19.8 7.5 20.3 C 8.6 20.7 9.8 21 11.1 21 C 12.2 21 13.2 20.8 14.1 20.5 C 15 20.1 15.7 19.6 16.1 19 C 16.5 18.4 16.8 17.8 16.8 17.1 C 16.8 16.4 16.5 15.7 16.1 15.2 C 15.7 14.7 15 14.2 14.1 13.8 C 13.4 13.6 12.1 13.2 10 12.7 C 7.9 12.2 6.4 11.7 5.6 11.3 C 4.5 10.7 3.7 10 3.1 9.2 C 2.6 8.3 2.3 7.4 2.3 6.3 C 2.3 5.2 2.6 4.1 3.3 3.1 C 4 2.1 4.9 1.3 6.2 0.8 C 7.4 0.3 8.8 0 10.4 0 C 12.1 0 13.6 0.3 14.9 0.8 C 16.2 1.4 17.2 2.2 17.9 3.2 C 18.6 4.3 18.9 5.5 19 6.8 C 19 6.8 16.1 7.1 16.1 7.1 C 15.9 5.6 15.4 4.5 14.5 3.8 C 13.6 3 12.3 2.7 10.5 2.7 C 8.7 2.7 7.3 3 6.5 3.7 C 5.7 4.4 5.2 5.2 5.2 6.1 C 5.2 6.9 5.5 7.6 6.1 8.1 C 6.7 8.7 8.2 9.2 10.7 9.8 C 13.2 10.3 14.8 10.8 15.8 11.2 C 17.1 11.8 18.1 12.6 18.7 13.6 C 19.4 14.5 19.7 15.6 19.7 16.8 C 19.7 18 19.3 19.2 18.6 20.3 C 17.9 21.4 16.9 22.2 15.6 22.8 C 14.3 23.4 12.8 23.7 11.2 23.7 C 9.1 23.7 7.4 23.4 6 22.8 C 4.6 22.2 3.5 21.3 2.7 20.1 C 1.9 18.8 1.5 17.5 1.4 15.9 Z M 34.8 18 C 34.8 18 37.7 18.3 37.7 18.3 C 37.3 20 36.4 21.3 35.2 22.3 C 33.9 23.2 32.3 23.7 30.4 23.7 C 28 23.7 26.1 22.9 24.6 21.4 C 23.2 19.9 22.5 17.8 22.5 15.1 C 22.5 12.3 23.2 10.2 24.7 8.6 C 26.1 7.1 28 6.3 30.3 6.3 C 32.5 6.3 34.3 7.1 35.7 8.6 C 37.1 10.1 37.8 12.2 37.8 15 C 37.8 15.1 37.8 15.4 37.8 15.7 C 37.8 15.7 25.4 15.7 25.4 15.7 C 25.5 17.5 26 18.9 27 19.9 C 27.9 20.9 29.1 21.4 30.4 21.4 C 31.5 21.4 32.3 21.1 33.1 20.5 C 33.8 20 34.4 19.1 34.8 18 Z M 25.6 13.4 C 25.6 13.4 34.8 13.4 34.8 13.4 C 34.7 12 34.4 11 33.8 10.3 C 32.9 9.2 31.7 8.6 30.3 8.6 C 29 8.6 27.9 9.1 27 9.9 C 26.2 10.8 25.7 12 25.6 13.4 Z M 41.2 23.3 L 41.2 0.4 L 44 0.4 L 44 23.3 L 41.2 23.3 Z M 59.7 18 C 59.7 18 62.6 18.3 62.6 18.3 C 62.2 20 61.3 21.3 60.1 22.3 C 58.8 23.2 57.3 23.7 55.3 23.7 C 52.9 23.7 51 22.9 49.6 21.4 C 48.1 19.9 47.4 17.8 47.4 15.1 C 47.4 12.3 48.1 10.2 49.6 8.6 C 51 7.1 52.9 6.3 55.2 6.3 C 57.4 6.3 59.2 7.1 60.6 8.6 C 62 10.1 62.7 12.2 62.7 15 C 62.7 15.1 62.7 15.4 62.7 15.7 C 62.7 15.7 50.3 15.7 50.3 15.7 C 50.4 17.5 50.9 18.9 51.9 19.9 C 52.8 20.9 54 21.4 55.3 21.4 C 56.4 21.4 57.3 21.1 58 20.5 C 58.7 20 59.3 19.1 59.7 18 Z M 50.5 13.4 C 50.5 13.4 59.8 13.4 59.8 13.4 C 59.6 12 59.3 11 58.7 10.3 C 57.8 9.2 56.6 8.6 55.2 8.6 C 53.9 8.6 52.8 9.1 51.9 9.9 C 51.1 10.8 50.6 12 50.5 13.4 Z M 77 17.2 C 77 17.2 79.8 17.6 79.8 17.6 C 79.4 19.5 78.7 21 77.4 22.1 C 76.2 23.1 74.7 23.7 72.8 23.7 C 70.6 23.7 68.7 22.9 67.4 21.4 C 66 20 65.3 17.8 65.3 15.1 C 65.3 13.3 65.6 11.7 66.2 10.4 C 66.8 9 67.7 8 68.9 7.3 C 70.1 6.7 71.4 6.3 72.9 6.3 C 74.7 6.3 76.1 6.8 77.3 7.7 C 78.4 8.6 79.2 9.9 79.5 11.6 C 79.5 11.6 76.8 12 76.8 12 C 76.5 10.9 76 10 75.4 9.5 C 74.7 8.9 73.9 8.6 73 8.6 C 71.6 8.6 70.4 9.1 69.5 10.2 C 68.6 11.2 68.2 12.8 68.2 15 C 68.2 17.2 68.6 18.8 69.5 19.8 C 70.3 20.9 71.4 21.4 72.8 21.4 C 73.9 21.4 74.8 21 75.6 20.3 C 76.3 19.7 76.8 18.6 77 17.2 Z M 87.1 20.9 C 87.4 20.9 87.8 20.9 88.3 20.8 C 88.3 20.8 88.7 23.3 88.7 23.3 C 87.9 23.4 87.2 23.5 86.6 23.5 C 85.6 23.5 84.8 23.4 84.2 23 C 83.6 22.7 83.2 22.3 83 21.8 C 82.8 21.2 82.7 20.1 82.7 18.4 C 82.67 18.44 82.7 8.9 82.7 8.9 L 80.6 8.9 L 80.6 6.7 L 82.7 6.7 L 82.7 2.6 L 85.5 0.9 L 85.5 6.7 L 88.3 6.7 L 88.3 8.9 L 85.5 8.9 C 85.5 8.9 85.47 18.59 85.5 18.6 C 85.5 19.4 85.5 19.9 85.6 20.1 C 85.7 20.4 85.9 20.6 86.1 20.7 C 86.3 20.8 86.6 20.9 87.1 20.9 C 87.1 20.9 87.1 20.9 87.1 20.9 Z M 105.5 23.3 L 105.5 3.1 L 98 3.1 L 98 0.4 L 116.2 0.4 L 116.2 3.1 L 108.6 3.1 L 108.6 23.3 L 105.5 23.3 Z M 118.9 23.3 L 118.9 0.4 L 121.7 0.4 C 121.7 0.4 121.72 8.61 121.7 8.6 C 123 7.1 124.7 6.3 126.7 6.3 C 127.9 6.3 129 6.6 129.9 7.1 C 130.8 7.5 131.4 8.2 131.8 9.1 C 132.2 9.9 132.4 11.2 132.4 12.8 C 132.42 12.78 132.4 23.3 132.4 23.3 L 129.6 23.3 C 129.6 23.3 129.61 12.78 129.6 12.8 C 129.6 11.4 129.3 10.4 128.7 9.7 C 128.1 9.1 127.2 8.8 126.1 8.8 C 125.3 8.8 124.5 9 123.8 9.4 C 123 9.8 122.5 10.4 122.2 11.2 C 121.9 11.9 121.7 12.9 121.7 14.2 C 121.72 14.22 121.7 23.3 121.7 23.3 L 118.9 23.3 Z M 135.7 15 C 135.7 11.9 136.5 9.7 138.2 8.2 C 139.6 6.9 141.4 6.3 143.4 6.3 C 145.7 6.3 147.6 7.1 149 8.6 C 150.5 10.1 151.2 12.1 151.2 14.8 C 151.2 16.9 150.9 18.6 150.2 19.8 C 149.6 21 148.7 22 147.4 22.7 C 146.2 23.3 144.9 23.7 143.4 23.7 C 141.1 23.7 139.2 22.9 137.8 21.4 C 136.4 19.9 135.7 17.8 135.7 15 Z M 138.5 15 C 138.5 17.1 139 18.7 139.9 19.8 C 140.9 20.8 142 21.4 143.4 21.4 C 144.8 21.4 146 20.8 146.9 19.8 C 147.8 18.7 148.3 17.1 148.3 14.9 C 148.3 12.9 147.8 11.3 146.9 10.2 C 146 9.2 144.8 8.7 143.4 8.7 C 142 8.7 140.9 9.2 139.9 10.2 C 139 11.3 138.5 12.9 138.5 15 Z M 165.4 23.3 C 165.4 23.3 165.38 20.86 165.4 20.9 C 164.1 22.7 162.3 23.7 160.1 23.7 C 159.1 23.7 158.2 23.5 157.4 23.1 C 156.5 22.7 155.9 22.3 155.5 21.7 C 155.1 21.1 154.8 20.4 154.6 19.6 C 154.5 19.1 154.4 18.2 154.4 17 C 154.44 16.98 154.4 6.7 154.4 6.7 L 157.3 6.7 C 157.3 6.7 157.25 15.91 157.3 15.9 C 157.3 17.4 157.3 18.4 157.4 18.9 C 157.6 19.6 158 20.2 158.5 20.6 C 159.1 21 159.8 21.3 160.7 21.3 C 161.5 21.3 162.3 21 163 20.6 C 163.8 20.2 164.3 19.6 164.6 18.8 C 164.9 18.1 165.1 17 165.1 15.6 C 165.08 15.59 165.1 6.7 165.1 6.7 L 167.9 6.7 L 167.9 23.3 L 165.4 23.3 Z M 171.8 24.7 C 171.8 24.7 174.5 25.1 174.5 25.1 C 174.6 25.9 174.9 26.5 175.5 26.9 C 176.2 27.4 177.1 27.7 178.3 27.7 C 179.6 27.7 180.6 27.4 181.3 26.9 C 182.1 26.4 182.5 25.7 182.8 24.7 C 182.9 24.2 183 23 183 21.1 C 181.8 22.6 180.2 23.3 178.4 23.3 C 176.1 23.3 174.3 22.5 173.1 20.8 C 171.8 19.2 171.2 17.2 171.2 14.9 C 171.2 13.3 171.5 11.9 172.1 10.5 C 172.7 9.2 173.5 8.2 174.6 7.4 C 175.7 6.7 176.9 6.3 178.4 6.3 C 180.4 6.3 182 7.1 183.3 8.7 C 183.25 8.7 183.3 6.7 183.3 6.7 L 185.8 6.7 C 185.8 6.7 185.84 21.05 185.8 21 C 185.8 23.6 185.6 25.5 185.1 26.5 C 184.5 27.6 183.7 28.5 182.6 29.1 C 181.4 29.7 180 30 178.3 30 C 176.4 30 174.8 29.6 173.5 28.7 C 172.3 27.8 171.7 26.5 171.8 24.7 Z M 174.1 14.7 C 174.1 16.9 174.5 18.5 175.4 19.5 C 176.3 20.5 177.4 21 178.7 21 C 179.9 21 181 20.5 181.9 19.5 C 182.8 18.5 183.2 16.9 183.2 14.8 C 183.2 12.8 182.8 11.2 181.9 10.2 C 181 9.2 179.9 8.7 178.6 8.7 C 177.4 8.7 176.3 9.2 175.4 10.2 C 174.5 11.2 174.1 12.7 174.1 14.7 Z M 190.1 23.3 L 190.1 0.4 L 192.9 0.4 C 192.9 0.4 192.91 8.61 192.9 8.6 C 194.2 7.1 195.9 6.3 197.9 6.3 C 199.1 6.3 200.2 6.6 201.1 7.1 C 202 7.5 202.6 8.2 203 9.1 C 203.4 9.9 203.6 11.2 203.6 12.8 C 203.61 12.78 203.6 23.3 203.6 23.3 L 200.8 23.3 C 200.8 23.3 200.8 12.78 200.8 12.8 C 200.8 11.4 200.5 10.4 199.9 9.7 C 199.3 9.1 198.4 8.8 197.3 8.8 C 196.5 8.8 195.7 9 194.9 9.4 C 194.2 9.8 193.7 10.4 193.4 11.2 C 193.1 11.9 192.9 12.9 192.9 14.2 C 192.91 14.22 192.9 23.3 192.9 23.3 L 190.1 23.3 Z M 212.8 20.9 C 213.1 20.9 213.5 20.9 214 20.8 C 214 20.8 214.4 23.3 214.4 23.3 C 213.6 23.4 212.9 23.5 212.3 23.5 C 211.3 23.5 210.5 23.4 209.9 23 C 209.4 22.7 209 22.3 208.8 21.8 C 208.5 21.2 208.4 20.1 208.4 18.4 C 208.41 18.44 208.4 8.9 208.4 8.9 L 206.3 8.9 L 206.3 6.7 L 208.4 6.7 L 208.4 2.6 L 211.2 0.9 L 211.2 6.7 L 214 6.7 L 214 8.9 L 211.2 8.9 C 211.2 8.9 211.2 18.59 211.2 18.6 C 211.2 19.4 211.3 19.9 211.4 20.1 C 211.5 20.4 211.6 20.6 211.8 20.7 C 212.1 20.8 212.4 20.9 212.8 20.9 C 212.8 20.9 212.8 20.9 212.8 20.9 Z M 225.9 23.3 L 225.9 0.4 L 228.9 0.4 L 228.9 20.6 L 240.2 20.6 L 240.2 23.3 L 225.9 23.3 Z M 254.8 18 C 254.8 18 257.7 18.3 257.7 18.3 C 257.3 20 256.4 21.3 255.2 22.3 C 253.9 23.2 252.4 23.7 250.4 23.7 C 248 23.7 246.1 22.9 244.7 21.4 C 243.2 19.9 242.5 17.8 242.5 15.1 C 242.5 12.3 243.3 10.2 244.7 8.6 C 246.1 7.1 248 6.3 250.3 6.3 C 252.5 6.3 254.3 7.1 255.7 8.6 C 257.1 10.1 257.8 12.2 257.8 15 C 257.8 15.1 257.8 15.4 257.8 15.7 C 257.8 15.7 245.4 15.7 245.4 15.7 C 245.5 17.5 246.1 18.9 247 19.9 C 247.9 20.9 249.1 21.4 250.5 21.4 C 251.5 21.4 252.4 21.1 253.1 20.5 C 253.8 20 254.4 19.1 254.8 18 Z M 245.6 13.4 C 245.6 13.4 254.9 13.4 254.9 13.4 C 254.7 12 254.4 11 253.8 10.3 C 252.9 9.2 251.7 8.6 250.3 8.6 C 249 8.6 247.9 9.1 247.1 9.9 C 246.2 10.8 245.7 12 245.6 13.4 Z M 272.7 23.3 C 272.4 22.7 272.2 22 272.1 21.3 C 271.1 22.1 270 22.8 269.1 23.1 C 268.1 23.5 267.1 23.7 266 23.7 C 264.2 23.7 262.8 23.2 261.8 22.3 C 260.8 21.4 260.3 20.3 260.3 18.9 C 260.3 18.1 260.5 17.4 260.9 16.7 C 261.2 16 261.7 15.5 262.3 15.1 C 262.9 14.7 263.6 14.4 264.3 14.2 C 264.9 14 265.7 13.9 266.8 13.7 C 269.1 13.5 270.8 13.1 271.9 12.8 C 271.9 12.4 271.9 12.1 271.9 12 C 271.9 10.9 271.6 10.1 271.1 9.6 C 270.4 9 269.3 8.7 267.9 8.7 C 266.6 8.7 265.6 8.9 264.9 9.4 C 264.3 9.8 263.8 10.6 263.5 11.8 C 263.5 11.8 260.8 11.4 260.8 11.4 C 261 10.3 261.5 9.3 262 8.6 C 262.6 7.9 263.4 7.3 264.5 6.9 C 265.6 6.5 266.9 6.3 268.3 6.3 C 269.7 6.3 270.8 6.5 271.7 6.8 C 272.6 7.2 273.3 7.6 273.7 8.1 C 274.1 8.6 274.4 9.2 274.6 10 C 274.7 10.5 274.7 11.3 274.7 12.6 C 274.7 12.6 274.7 16.3 274.7 16.3 C 274.7 19 274.8 20.6 274.9 21.3 C 275 22 275.2 22.7 275.6 23.3 C 275.59 23.3 272.7 23.3 272.7 23.3 C 272.7 23.3 272.66 23.3 272.7 23.3 Z M 271.9 15 C 270.8 15.4 269.3 15.7 267.3 16 C 266.1 16.2 265.3 16.4 264.8 16.6 C 264.3 16.8 264 17.1 263.7 17.5 C 263.4 17.9 263.3 18.4 263.3 18.8 C 263.3 19.6 263.6 20.2 264.2 20.7 C 264.7 21.2 265.6 21.5 266.7 21.5 C 267.7 21.5 268.7 21.2 269.5 20.8 C 270.4 20.3 271 19.6 271.4 18.8 C 271.7 18.2 271.9 17.2 271.9 16 C 271.9 16 271.9 15 271.9 15 Z M 289.8 23.3 C 289.8 23.3 289.83 21.2 289.8 21.2 C 288.8 22.8 287.2 23.7 285.2 23.7 C 283.9 23.7 282.6 23.3 281.5 22.6 C 280.4 21.8 279.6 20.8 279 19.5 C 278.4 18.2 278 16.7 278 15 C 278 13.4 278.3 11.9 278.9 10.5 C 279.4 9.2 280.3 8.1 281.4 7.4 C 282.5 6.7 283.7 6.3 285.1 6.3 C 286.1 6.3 287 6.5 287.7 7 C 288.5 7.4 289.2 7.9 289.6 8.6 C 289.64 8.61 289.6 0.4 289.6 0.4 L 292.4 0.4 L 292.4 23.3 L 289.8 23.3 Z M 280.9 15 C 280.9 17.1 281.4 18.7 282.3 19.8 C 283.2 20.8 284.2 21.4 285.5 21.4 C 286.7 21.4 287.7 20.9 288.6 19.9 C 289.4 18.8 289.9 17.3 289.9 15.3 C 289.9 13 289.4 11.3 288.6 10.3 C 287.7 9.2 286.6 8.7 285.3 8.7 C 284.1 8.7 283 9.2 282.2 10.2 C 281.4 11.2 280.9 12.8 280.9 15 Z M 308.2 18 C 308.2 18 311.1 18.3 311.1 18.3 C 310.7 20 309.8 21.3 308.6 22.3 C 307.3 23.2 305.8 23.7 303.8 23.7 C 301.4 23.7 299.5 22.9 298.1 21.4 C 296.6 19.9 295.9 17.8 295.9 15.1 C 295.9 12.3 296.6 10.2 298.1 8.6 C 299.5 7.1 301.4 6.3 303.7 6.3 C 305.9 6.3 307.7 7.1 309.1 8.6 C 310.5 10.1 311.2 12.2 311.2 15 C 311.2 15.1 311.2 15.4 311.2 15.7 C 311.2 15.7 298.8 15.7 298.8 15.7 C 298.9 17.5 299.4 18.9 300.4 19.9 C 301.3 20.9 302.5 21.4 303.8 21.4 C 304.9 21.4 305.8 21.1 306.5 20.5 C 307.2 20 307.8 19.1 308.2 18 Z M 299 13.4 C 299 13.4 308.3 13.4 308.3 13.4 C 308.1 12 307.8 11 307.2 10.3 C 306.3 9.2 305.1 8.6 303.7 8.6 C 302.4 8.6 301.3 9.1 300.4 9.9 C 299.6 10.8 299.1 12 299 13.4 Z M 314.6 23.3 L 314.6 6.7 L 317.2 6.7 C 317.2 6.7 317.16 9.22 317.2 9.2 C 317.8 8 318.4 7.3 318.9 6.9 C 319.5 6.5 320.1 6.3 320.8 6.3 C 321.7 6.3 322.7 6.6 323.6 7.2 C 323.6 7.2 322.7 9.8 322.7 9.8 C 322 9.4 321.3 9.2 320.6 9.2 C 320 9.2 319.4 9.4 319 9.8 C 318.5 10.2 318.1 10.7 317.9 11.3 C 317.6 12.3 317.4 13.4 317.4 14.6 C 317.44 14.61 317.4 23.3 317.4 23.3 L 314.6 23.3 Z M 324.2 18.3 C 324.2 18.3 327 17.9 327 17.9 C 327.1 19 327.6 19.9 328.3 20.5 C 329 21.1 330 21.4 331.3 21.4 C 332.6 21.4 333.5 21.1 334.1 20.6 C 334.8 20 335.1 19.4 335.1 18.7 C 335.1 18.1 334.8 17.6 334.3 17.2 C 333.9 17 332.9 16.7 331.4 16.3 C 329.3 15.7 327.9 15.3 327.1 14.9 C 326.3 14.5 325.7 14 325.3 13.3 C 324.9 12.7 324.7 11.9 324.7 11.1 C 324.7 10.4 324.8 9.7 325.2 9.1 C 325.5 8.4 326 7.9 326.5 7.5 C 327 7.2 327.6 6.9 328.3 6.7 C 329.1 6.4 329.9 6.3 330.8 6.3 C 332.1 6.3 333.2 6.5 334.2 6.9 C 335.2 7.3 335.9 7.8 336.4 8.4 C 336.8 9.1 337.2 9.9 337.3 11 C 337.3 11 334.6 11.4 334.6 11.4 C 334.5 10.5 334.1 9.8 333.5 9.4 C 332.9 8.9 332.1 8.6 331 8.6 C 329.7 8.6 328.8 8.9 328.2 9.3 C 327.7 9.7 327.4 10.2 327.4 10.8 C 327.4 11.1 327.5 11.5 327.7 11.8 C 327.9 12.1 328.3 12.3 328.8 12.5 C 329.1 12.6 329.9 12.9 331.3 13.2 C 333.3 13.8 334.7 14.2 335.4 14.5 C 336.2 14.9 336.8 15.4 337.3 16 C 337.7 16.7 338 17.5 338 18.4 C 338 19.4 337.7 20.2 337.1 21.1 C 336.6 21.9 335.8 22.5 334.8 23 C 333.8 23.4 332.6 23.7 331.3 23.7 C 329.1 23.7 327.5 23.2 326.4 22.3 C 325.2 21.4 324.5 20.1 324.2 18.3 Z M 341.3 23.3 L 341.3 0.4 L 344.1 0.4 C 344.1 0.4 344.13 8.61 344.1 8.6 C 345.4 7.1 347.1 6.3 349.1 6.3 C 350.3 6.3 351.4 6.6 352.3 7.1 C 353.2 7.5 353.9 8.2 354.2 9.1 C 354.6 9.9 354.8 11.2 354.8 12.8 C 354.83 12.78 354.8 23.3 354.8 23.3 L 352 23.3 C 352 23.3 352.02 12.78 352 12.8 C 352 11.4 351.7 10.4 351.1 9.7 C 350.5 9.1 349.6 8.8 348.5 8.8 C 347.7 8.8 346.9 9 346.2 9.4 C 345.4 9.8 344.9 10.4 344.6 11.2 C 344.3 11.9 344.1 12.9 344.1 14.2 C 344.13 14.22 344.1 23.3 344.1 23.3 L 341.3 23.3 Z M 359.1 3.6 L 359.1 0.4 L 361.9 0.4 L 361.9 3.6 L 359.1 3.6 Z M 359.1 23.3 L 359.1 6.7 L 361.9 6.7 L 361.9 23.3 L 359.1 23.3 Z M 366.2 29.7 L 366.2 6.7 L 368.8 6.7 C 368.8 6.7 368.78 8.86 368.8 8.9 C 369.4 8 370.1 7.4 370.8 7 C 371.6 6.5 372.5 6.3 373.6 6.3 C 375 6.3 376.3 6.7 377.3 7.4 C 378.4 8.2 379.2 9.2 379.8 10.5 C 380.3 11.8 380.6 13.3 380.6 14.9 C 380.6 16.6 380.3 18.1 379.7 19.5 C 379.1 20.8 378.2 21.9 377.1 22.6 C 375.9 23.3 374.7 23.7 373.4 23.7 C 372.5 23.7 371.6 23.5 370.9 23.1 C 370.1 22.7 369.5 22.2 369 21.6 C 369.03 21.58 369 29.7 369 29.7 L 366.2 29.7 Z M 368.8 15.1 C 368.8 17.2 369.2 18.8 370.1 19.8 C 370.9 20.8 372 21.4 373.2 21.4 C 374.5 21.4 375.5 20.8 376.4 19.8 C 377.3 18.7 377.8 17.1 377.8 14.9 C 377.8 12.7 377.3 11.2 376.4 10.1 C 375.6 9.1 374.5 8.5 373.3 8.5 C 372.1 8.5 371.1 9.1 370.1 10.2 C 369.2 11.3 368.8 13 368.8 15.1 Z " stroke="none" fill="#003a5c"/>
  </g>
</svg>