<?xml version="1.0" standalone="no"?>
<!DOCTYPE svg PUBLIC "-//W3C//DTD SVG 1.1//EN" "http://www.w3.org/Graphics/SVG/1.1/DTD/svg11.dtd">
<svg xmlns="http://www.w3.org/2000/svg" version="1.1" width="196.5px" height="73.6px" viewBox="0 -6 196.5 73.6" style="top:-6px">
  <desc>Outsourcing — Guidance on the Legal and Regulatory Framework</desc>
  <defs/>
  <g id="Polygon61111">
    <path d="M 1.3 53.2 L 1.3 41 C 1.3 41 6.73 41.01 6.7 41 C 7.8 41 8.6 41.1 9.2 41.3 C 9.8 41.6 10.2 41.9 10.6 42.5 C 10.9 43 11.1 43.7 11.1 44.3 C 11.1 45.2 10.8 45.9 10.2 46.5 C 9.7 47.1 8.8 47.5 7.6 47.6 C 8.1 47.8 8.4 48 8.6 48.2 C 9.1 48.7 9.5 49.2 9.9 49.9 C 9.94 49.86 12.1 53.2 12.1 53.2 L 10 53.2 C 10 53.2 8.43 50.64 8.4 50.6 C 8 49.9 7.6 49.4 7.3 49 C 7 48.6 6.7 48.3 6.4 48.2 C 6.2 48 6 47.9 5.7 47.8 C 5.5 47.8 5.2 47.8 4.8 47.8 C 4.81 47.77 2.9 47.8 2.9 47.8 L 2.9 53.2 L 1.3 53.2 Z M 2.9 46.4 C 2.9 46.4 6.41 46.38 6.4 46.4 C 7.1 46.4 7.7 46.3 8.1 46.1 C 8.5 46 8.9 45.8 9.1 45.4 C 9.3 45.1 9.4 44.7 9.4 44.3 C 9.4 43.8 9.2 43.3 8.8 42.9 C 8.4 42.5 7.7 42.4 6.8 42.4 C 6.8 42.35 2.9 42.4 2.9 42.4 L 2.9 46.4 Z M 19.4 50.3 C 19.4 50.3 21 50.5 21 50.5 C 20.7 51.4 20.3 52.1 19.6 52.6 C 19 53.1 18.1 53.4 17.1 53.4 C 15.8 53.4 14.8 53 14 52.2 C 13.3 51.4 12.9 50.3 12.9 48.8 C 12.9 47.4 13.3 46.2 14 45.4 C 14.8 44.6 15.8 44.2 17 44.2 C 18.2 44.2 19.2 44.6 19.9 45.4 C 20.7 46.2 21 47.3 21 48.8 C 21 48.8 21 49 21 49.2 C 21 49.2 14.4 49.2 14.4 49.2 C 14.5 50.1 14.8 50.9 15.3 51.4 C 15.8 51.9 16.4 52.1 17.1 52.1 C 17.7 52.1 18.1 52 18.5 51.7 C 18.9 51.4 19.2 51 19.4 50.3 Z M 14.5 47.9 C 14.5 47.9 19.4 47.9 19.4 47.9 C 19.4 47.2 19.2 46.6 18.9 46.3 C 18.4 45.7 17.8 45.4 17 45.4 C 16.3 45.4 15.8 45.6 15.3 46.1 C 14.8 46.5 14.6 47.2 14.5 47.9 Z M 22.6 53.9 C 22.6 53.9 24 54.1 24 54.1 C 24.1 54.6 24.3 54.9 24.5 55.1 C 24.9 55.4 25.4 55.5 26.1 55.5 C 26.7 55.5 27.3 55.4 27.7 55.1 C 28 54.8 28.3 54.4 28.4 53.9 C 28.5 53.6 28.5 53 28.5 52 C 27.9 52.8 27.1 53.2 26.1 53.2 C 24.9 53.2 23.9 52.7 23.3 51.9 C 22.6 51 22.3 49.9 22.3 48.7 C 22.3 47.9 22.4 47.1 22.7 46.4 C 23 45.7 23.5 45.1 24.1 44.7 C 24.6 44.4 25.3 44.2 26.1 44.2 C 27.1 44.2 28 44.6 28.7 45.4 C 28.67 45.42 28.7 44.4 28.7 44.4 L 30 44.4 C 30 44.4 30.05 51.98 30 52 C 30 53.4 29.9 54.3 29.6 54.9 C 29.4 55.5 28.9 55.9 28.3 56.3 C 27.7 56.6 26.9 56.8 26.1 56.8 C 25 56.8 24.2 56.5 23.5 56 C 22.9 55.6 22.6 54.9 22.6 53.9 Z M 23.8 48.6 C 23.8 49.8 24 50.6 24.5 51.1 C 25 51.7 25.5 51.9 26.2 51.9 C 26.9 51.9 27.5 51.7 28 51.1 C 28.4 50.6 28.7 49.8 28.7 48.7 C 28.7 47.6 28.4 46.8 27.9 46.2 C 27.5 45.7 26.9 45.4 26.2 45.4 C 25.5 45.4 25 45.7 24.5 46.2 C 24 46.7 23.8 47.5 23.8 48.6 Z M 38.1 53.2 C 38.1 53.2 38.08 51.88 38.1 51.9 C 37.4 52.9 36.5 53.4 35.3 53.4 C 34.8 53.4 34.3 53.3 33.8 53.1 C 33.4 52.9 33 52.6 32.8 52.3 C 32.6 52 32.5 51.7 32.4 51.2 C 32.3 50.9 32.3 50.5 32.3 49.8 C 32.27 49.82 32.3 44.4 32.3 44.4 L 33.8 44.4 C 33.8 44.4 33.77 49.25 33.8 49.3 C 33.8 50 33.8 50.6 33.9 50.8 C 34 51.2 34.2 51.5 34.5 51.8 C 34.8 52 35.1 52.1 35.6 52.1 C 36 52.1 36.5 52 36.8 51.7 C 37.2 51.5 37.5 51.2 37.7 50.8 C 37.8 50.4 37.9 49.8 37.9 49.1 C 37.93 49.08 37.9 44.4 37.9 44.4 L 39.4 44.4 L 39.4 53.2 L 38.1 53.2 Z M 41.7 53.2 L 41.7 41 L 43.2 41 L 43.2 53.2 L 41.7 53.2 Z M 51.6 53.2 C 51.4 52.9 51.3 52.5 51.3 52.1 C 50.7 52.6 50.2 52.9 49.7 53.1 C 49.2 53.3 48.6 53.4 48 53.4 C 47.1 53.4 46.3 53.1 45.8 52.7 C 45.3 52.2 45 51.6 45 50.9 C 45 50.4 45.1 50 45.3 49.7 C 45.5 49.3 45.8 49 46.1 48.8 C 46.4 48.6 46.8 48.4 47.2 48.3 C 47.5 48.2 47.9 48.2 48.5 48.1 C 49.7 48 50.6 47.8 51.2 47.6 C 51.2 47.4 51.2 47.2 51.2 47.2 C 51.2 46.6 51 46.2 50.8 45.9 C 50.4 45.6 49.8 45.4 49 45.4 C 48.3 45.4 47.8 45.5 47.5 45.8 C 47.2 46 46.9 46.5 46.8 47.1 C 46.8 47.1 45.3 46.9 45.3 46.9 C 45.4 46.3 45.6 45.7 45.9 45.4 C 46.2 45 46.7 44.7 47.3 44.5 C 47.8 44.3 48.5 44.2 49.3 44.2 C 50 44.2 50.6 44.3 51.1 44.4 C 51.6 44.6 51.9 44.8 52.1 45.1 C 52.4 45.4 52.5 45.7 52.6 46.1 C 52.7 46.4 52.7 46.8 52.7 47.5 C 52.7 47.5 52.7 49.5 52.7 49.5 C 52.7 50.9 52.7 51.8 52.8 52.1 C 52.8 52.5 53 52.8 53.1 53.2 C 53.15 53.18 51.6 53.2 51.6 53.2 C 51.6 53.2 51.59 53.18 51.6 53.2 Z M 51.2 48.8 C 50.6 49 49.8 49.2 48.7 49.3 C 48.1 49.4 47.7 49.5 47.4 49.6 C 47.2 49.7 47 49.9 46.8 50.1 C 46.7 50.3 46.6 50.6 46.6 50.8 C 46.6 51.2 46.8 51.5 47.1 51.8 C 47.4 52.1 47.8 52.2 48.4 52.2 C 49 52.2 49.5 52.1 49.9 51.8 C 50.4 51.6 50.7 51.2 50.9 50.8 C 51.1 50.5 51.2 50 51.2 49.3 C 51.2 49.3 51.2 48.8 51.2 48.8 Z M 57.6 51.9 C 57.8 51.9 58 51.9 58.3 51.8 C 58.3 51.8 58.5 53.2 58.5 53.2 C 58.1 53.2 57.7 53.3 57.3 53.3 C 56.8 53.3 56.4 53.2 56.1 53 C 55.8 52.9 55.6 52.6 55.4 52.4 C 55.3 52.1 55.3 51.5 55.3 50.6 C 55.27 50.59 55.3 45.5 55.3 45.5 L 54.2 45.5 L 54.2 44.4 L 55.3 44.4 L 55.3 42.2 L 56.8 41.3 L 56.8 44.4 L 58.3 44.4 L 58.3 45.5 L 56.8 45.5 C 56.8 45.5 56.75 50.68 56.8 50.7 C 56.8 51.1 56.8 51.4 56.8 51.5 C 56.9 51.6 57 51.7 57.1 51.8 C 57.2 51.9 57.4 51.9 57.6 51.9 C 57.6 51.9 57.6 51.9 57.6 51.9 Z M 59.2 48.8 C 59.2 47.1 59.6 45.9 60.5 45.1 C 61.3 44.5 62.2 44.2 63.3 44.2 C 64.5 44.2 65.5 44.6 66.3 45.4 C 67 46.1 67.4 47.2 67.4 48.6 C 67.4 49.8 67.2 50.7 66.9 51.3 C 66.6 52 66.1 52.5 65.4 52.8 C 64.8 53.2 64.1 53.4 63.3 53.4 C 62.1 53.4 61.1 53 60.3 52.2 C 59.5 51.4 59.2 50.3 59.2 48.8 Z M 60.7 48.8 C 60.7 49.9 60.9 50.7 61.4 51.3 C 61.9 51.9 62.5 52.1 63.3 52.1 C 64 52.1 64.7 51.9 65.1 51.3 C 65.6 50.7 65.9 49.9 65.9 48.7 C 65.9 47.6 65.6 46.8 65.1 46.2 C 64.6 45.7 64 45.4 63.3 45.4 C 62.5 45.4 61.9 45.7 61.4 46.2 C 60.9 46.8 60.7 47.6 60.7 48.8 Z M 69.2 53.2 L 69.2 44.4 L 70.5 44.4 C 70.5 44.4 70.5 45.7 70.5 45.7 C 70.8 45.1 71.2 44.7 71.4 44.5 C 71.7 44.3 72.1 44.2 72.4 44.2 C 72.9 44.2 73.4 44.3 73.9 44.6 C 73.9 44.6 73.4 46 73.4 46 C 73.1 45.8 72.7 45.7 72.3 45.7 C 72 45.7 71.7 45.8 71.5 46 C 71.2 46.2 71 46.5 70.9 46.8 C 70.7 47.3 70.6 47.9 70.6 48.6 C 70.65 48.56 70.6 53.2 70.6 53.2 L 69.2 53.2 Z M 75.7 56.8 C 75.4 56.8 75.1 56.7 74.8 56.6 C 74.8 56.6 74.6 55.2 74.6 55.2 C 74.9 55.3 75.2 55.3 75.5 55.3 C 75.8 55.3 76.1 55.2 76.3 55.1 C 76.5 55 76.6 54.9 76.7 54.7 C 76.8 54.5 77 54.2 77.2 53.6 C 77.2 53.5 77.3 53.4 77.3 53.2 C 77.33 53.19 74 44.4 74 44.4 L 75.6 44.4 C 75.6 44.4 77.43 49.47 77.4 49.5 C 77.7 50.1 77.9 50.8 78.1 51.5 C 78.2 50.8 78.4 50.2 78.7 49.5 C 78.68 49.5 80.6 44.4 80.6 44.4 L 82.1 44.4 C 82.1 44.4 78.71 53.33 78.7 53.3 C 78.3 54.3 78.1 55 77.9 55.3 C 77.6 55.8 77.3 56.2 77 56.4 C 76.6 56.6 76.2 56.8 75.7 56.8 C 75.7 56.8 75.7 56.8 75.7 56.8 Z M 88.3 53.2 L 88.3 41 L 96.5 41 L 96.5 42.4 L 89.9 42.4 L 89.9 46.2 L 95.6 46.2 L 95.6 47.6 L 89.9 47.6 L 89.9 53.2 L 88.3 53.2 Z M 98.4 53.2 L 98.4 44.4 L 99.8 44.4 C 99.8 44.4 99.77 45.7 99.8 45.7 C 100.1 45.1 100.4 44.7 100.7 44.5 C 101 44.3 101.3 44.2 101.7 44.2 C 102.2 44.2 102.7 44.3 103.2 44.6 C 103.2 44.6 102.7 46 102.7 46 C 102.3 45.8 102 45.7 101.6 45.7 C 101.3 45.7 101 45.8 100.7 46 C 100.5 46.2 100.3 46.5 100.2 46.8 C 100 47.3 99.9 47.9 99.9 48.6 C 99.92 48.56 99.9 53.2 99.9 53.2 L 98.4 53.2 Z M 110.2 53.2 C 110 52.9 109.9 52.5 109.9 52.1 C 109.3 52.6 108.8 52.9 108.3 53.1 C 107.7 53.3 107.2 53.4 106.6 53.4 C 105.6 53.4 104.9 53.1 104.4 52.7 C 103.9 52.2 103.6 51.6 103.6 50.9 C 103.6 50.4 103.7 50 103.9 49.7 C 104.1 49.3 104.3 49 104.7 48.8 C 105 48.6 105.3 48.4 105.7 48.3 C 106 48.2 106.5 48.2 107.1 48.1 C 108.3 48 109.2 47.8 109.7 47.6 C 109.7 47.4 109.7 47.2 109.7 47.2 C 109.7 46.6 109.6 46.2 109.3 45.9 C 108.9 45.6 108.4 45.4 107.6 45.4 C 106.9 45.4 106.4 45.5 106.1 45.8 C 105.7 46 105.5 46.5 105.3 47.1 C 105.3 47.1 103.9 46.9 103.9 46.9 C 104 46.3 104.2 45.7 104.5 45.4 C 104.8 45 105.3 44.7 105.8 44.5 C 106.4 44.3 107.1 44.2 107.8 44.2 C 108.6 44.2 109.2 44.3 109.7 44.4 C 110.1 44.6 110.5 44.8 110.7 45.1 C 110.9 45.4 111.1 45.7 111.2 46.1 C 111.2 46.4 111.2 46.8 111.2 47.5 C 111.2 47.5 111.2 49.5 111.2 49.5 C 111.2 50.9 111.3 51.8 111.3 52.1 C 111.4 52.5 111.5 52.8 111.7 53.2 C 111.71 53.18 110.2 53.2 110.2 53.2 C 110.2 53.2 110.15 53.18 110.2 53.2 Z M 109.7 48.8 C 109.2 49 108.4 49.2 107.3 49.3 C 106.7 49.4 106.2 49.5 106 49.6 C 105.7 49.7 105.5 49.9 105.4 50.1 C 105.3 50.3 105.2 50.6 105.2 50.8 C 105.2 51.2 105.3 51.5 105.6 51.8 C 105.9 52.1 106.4 52.2 107 52.2 C 107.5 52.2 108.1 52.1 108.5 51.8 C 108.9 51.6 109.3 51.2 109.5 50.8 C 109.6 50.5 109.7 50 109.7 49.3 C 109.7 49.3 109.7 48.8 109.7 48.8 Z M 113.6 53.2 L 113.6 44.4 L 114.9 44.4 C 114.9 44.4 114.89 45.6 114.9 45.6 C 115.2 45.2 115.5 44.8 116 44.6 C 116.5 44.3 117 44.2 117.6 44.2 C 118.2 44.2 118.8 44.3 119.2 44.6 C 119.6 44.8 119.9 45.2 120.1 45.7 C 120.8 44.7 121.7 44.2 122.8 44.2 C 123.7 44.2 124.3 44.4 124.8 44.9 C 125.3 45.4 125.5 46.1 125.5 47.1 C 125.5 47.13 125.5 53.2 125.5 53.2 L 124 53.2 C 124 53.2 124.01 47.62 124 47.6 C 124 47 124 46.6 123.9 46.3 C 123.8 46.1 123.6 45.9 123.3 45.7 C 123.1 45.5 122.8 45.5 122.4 45.5 C 121.8 45.5 121.3 45.7 120.9 46.1 C 120.5 46.5 120.3 47.1 120.3 48.1 C 120.29 48.05 120.3 53.2 120.3 53.2 L 118.8 53.2 C 118.8 53.2 118.79 47.45 118.8 47.4 C 118.8 46.8 118.7 46.3 118.4 46 C 118.2 45.6 117.8 45.5 117.2 45.5 C 116.8 45.5 116.4 45.6 116.1 45.8 C 115.7 46 115.4 46.3 115.3 46.8 C 115.1 47.2 115 47.8 115 48.6 C 115.05 48.6 115 53.2 115 53.2 L 113.6 53.2 Z M 133.8 50.3 C 133.8 50.3 135.3 50.5 135.3 50.5 C 135.1 51.4 134.6 52.1 133.9 52.6 C 133.3 53.1 132.4 53.4 131.4 53.4 C 130.1 53.4 129.1 53 128.4 52.2 C 127.6 51.4 127.2 50.3 127.2 48.8 C 127.2 47.4 127.6 46.2 128.4 45.4 C 129.1 44.6 130.1 44.2 131.3 44.2 C 132.5 44.2 133.5 44.6 134.2 45.4 C 135 46.2 135.3 47.3 135.3 48.8 C 135.3 48.8 135.3 49 135.3 49.2 C 135.3 49.2 128.8 49.2 128.8 49.2 C 128.8 50.1 129.1 50.9 129.6 51.4 C 130.1 51.9 130.7 52.1 131.4 52.1 C 132 52.1 132.4 52 132.8 51.7 C 133.2 51.4 133.5 51 133.8 50.3 Z M 128.8 47.9 C 128.8 47.9 133.8 47.9 133.8 47.9 C 133.7 47.2 133.5 46.6 133.2 46.3 C 132.7 45.7 132.1 45.4 131.4 45.4 C 130.7 45.4 130.1 45.6 129.6 46.1 C 129.2 46.5 128.9 47.2 128.8 47.9 Z M 138.8 53.2 L 136.1 44.4 L 137.6 44.4 L 139 49.4 C 139 49.4 139.57 51.34 139.6 51.3 C 139.6 51.2 139.7 50.6 140 49.5 C 140.03 49.52 141.4 44.4 141.4 44.4 L 143 44.4 L 144.3 49.5 L 144.7 51.2 L 145.2 49.5 L 146.7 44.4 L 148.2 44.4 L 145.4 53.2 L 143.9 53.2 L 142.5 47.9 L 142.1 46.4 L 140.4 53.2 L 138.8 53.2 Z M 148.9 48.8 C 148.9 47.1 149.3 45.9 150.3 45.1 C 151 44.5 151.9 44.2 153 44.2 C 154.2 44.2 155.2 44.6 156 45.4 C 156.8 46.1 157.2 47.2 157.2 48.6 C 157.2 49.8 157 50.7 156.6 51.3 C 156.3 52 155.8 52.5 155.2 52.8 C 154.5 53.2 153.8 53.4 153 53.4 C 151.8 53.4 150.8 53 150 52.2 C 149.3 51.4 148.9 50.3 148.9 48.8 Z M 150.4 48.8 C 150.4 49.9 150.7 50.7 151.2 51.3 C 151.7 51.9 152.3 52.1 153 52.1 C 153.8 52.1 154.4 51.9 154.9 51.3 C 155.4 50.7 155.6 49.9 155.6 48.7 C 155.6 47.6 155.4 46.8 154.9 46.2 C 154.4 45.7 153.8 45.4 153 45.4 C 152.3 45.4 151.7 45.7 151.2 46.2 C 150.7 46.8 150.4 47.6 150.4 48.8 Z M 158.9 53.2 L 158.9 44.4 L 160.2 44.4 C 160.2 44.4 160.23 45.7 160.2 45.7 C 160.6 45.1 160.9 44.7 161.2 44.5 C 161.5 44.3 161.8 44.2 162.1 44.2 C 162.6 44.2 163.2 44.3 163.7 44.6 C 163.7 44.6 163.2 46 163.2 46 C 162.8 45.8 162.4 45.7 162.1 45.7 C 161.7 45.7 161.4 45.8 161.2 46 C 160.9 46.2 160.7 46.5 160.6 46.8 C 160.5 47.3 160.4 47.9 160.4 48.6 C 160.38 48.56 160.4 53.2 160.4 53.2 L 158.9 53.2 Z M 164.6 53.2 L 164.6 41 L 166.1 41 L 166.1 47.9 L 169.6 44.4 L 171.5 44.4 L 168.2 47.6 L 171.9 53.2 L 170 53.2 L 167.1 48.7 L 166.1 49.7 L 166.1 53.2 L 164.6 53.2 Z " stroke="none" fill="#003a5c"/>
  </g>
  <g id="Polygon61110">
    <path d="M 0.6 28.4 C 0.6 26.7 1 25.5 1.9 24.7 C 2.7 24.1 3.6 23.8 4.7 23.8 C 5.9 23.8 6.9 24.2 7.7 25 C 8.4 25.7 8.8 26.8 8.8 28.2 C 8.8 29.4 8.7 30.3 8.3 30.9 C 8 31.6 7.5 32.1 6.8 32.4 C 6.2 32.8 5.5 33 4.7 33 C 3.5 33 2.5 32.6 1.7 31.8 C 0.9 31 0.6 29.9 0.6 28.4 Z M 2.1 28.4 C 2.1 29.5 2.3 30.3 2.8 30.9 C 3.3 31.5 4 31.7 4.7 31.7 C 5.4 31.7 6.1 31.5 6.5 30.9 C 7 30.3 7.3 29.5 7.3 28.3 C 7.3 27.2 7 26.4 6.5 25.8 C 6 25.3 5.4 25 4.7 25 C 4 25 3.3 25.3 2.8 25.8 C 2.3 26.4 2.1 27.2 2.1 28.4 Z M 10.6 32.8 L 10.6 24 L 11.9 24 C 11.9 24 11.92 25.21 11.9 25.2 C 12.6 24.2 13.5 23.8 14.7 23.8 C 15.3 23.8 15.7 23.9 16.2 24 C 16.6 24.2 17 24.5 17.2 24.8 C 17.4 25.1 17.6 25.5 17.7 25.9 C 17.7 26.2 17.7 26.7 17.7 27.4 C 17.74 27.36 17.7 32.8 17.7 32.8 L 16.2 32.8 C 16.2 32.8 16.24 27.41 16.2 27.4 C 16.2 26.8 16.2 26.4 16.1 26 C 16 25.7 15.7 25.5 15.5 25.3 C 15.2 25.1 14.8 25.1 14.4 25.1 C 13.8 25.1 13.2 25.3 12.8 25.7 C 12.3 26.1 12.1 26.8 12.1 28 C 12.07 27.96 12.1 32.8 12.1 32.8 L 10.6 32.8 Z M 27.4 31.5 C 27.5 31.5 27.7 31.5 28 31.4 C 28 31.4 28.2 32.8 28.2 32.8 C 27.8 32.8 27.4 32.9 27.1 32.9 C 26.6 32.9 26.1 32.8 25.8 32.6 C 25.5 32.5 25.3 32.2 25.2 32 C 25.1 31.7 25 31.1 25 30.2 C 25.03 30.19 25 25.1 25 25.1 L 23.9 25.1 L 23.9 24 L 25 24 L 25 21.8 L 26.5 20.9 L 26.5 24 L 28 24 L 28 25.1 L 26.5 25.1 C 26.5 25.1 26.51 30.28 26.5 30.3 C 26.5 30.7 26.5 31 26.6 31.1 C 26.6 31.2 26.7 31.3 26.8 31.4 C 27 31.5 27.1 31.5 27.4 31.5 C 27.4 31.5 27.4 31.5 27.4 31.5 Z M 29.5 32.8 L 29.5 20.6 L 31 20.6 C 31 20.6 30.97 24.97 31 25 C 31.7 24.2 32.5 23.8 33.6 23.8 C 34.3 23.8 34.8 23.9 35.3 24.1 C 35.8 24.4 36.1 24.8 36.3 25.2 C 36.6 25.7 36.7 26.3 36.7 27.2 C 36.66 27.19 36.7 32.8 36.7 32.8 L 35.2 32.8 C 35.2 32.8 35.16 27.19 35.2 27.2 C 35.2 26.4 35 25.9 34.7 25.6 C 34.4 25.2 33.9 25 33.3 25 C 32.9 25 32.4 25.2 32.1 25.4 C 31.7 25.6 31.4 25.9 31.2 26.3 C 31.1 26.7 31 27.3 31 28 C 30.97 27.95 31 32.8 31 32.8 L 29.5 32.8 Z M 45 29.9 C 45 29.9 46.5 30.1 46.5 30.1 C 46.3 31 45.8 31.7 45.2 32.2 C 44.5 32.7 43.7 33 42.6 33 C 41.3 33 40.3 32.6 39.6 31.8 C 38.8 31 38.4 29.9 38.4 28.4 C 38.4 27 38.8 25.8 39.6 25 C 40.3 24.2 41.3 23.8 42.5 23.8 C 43.7 23.8 44.7 24.2 45.4 25 C 46.2 25.8 46.6 26.9 46.6 28.4 C 46.6 28.4 46.6 28.6 46.6 28.8 C 46.6 28.8 40 28.8 40 28.8 C 40 29.7 40.3 30.5 40.8 31 C 41.3 31.5 41.9 31.7 42.6 31.7 C 43.2 31.7 43.7 31.6 44 31.3 C 44.4 31 44.7 30.6 45 29.9 Z M 40.1 27.5 C 40.1 27.5 45 27.5 45 27.5 C 44.9 26.8 44.7 26.2 44.4 25.9 C 43.9 25.3 43.3 25 42.6 25 C 41.9 25 41.3 25.2 40.8 25.7 C 40.4 26.1 40.1 26.8 40.1 27.5 Z M 53.2 32.8 L 53.2 20.6 L 54.8 20.6 L 54.8 31.3 L 60.8 31.3 L 60.8 32.8 L 53.2 32.8 Z M 68.6 29.9 C 68.6 29.9 70.1 30.1 70.1 30.1 C 69.9 31 69.4 31.7 68.8 32.2 C 68.1 32.7 67.3 33 66.3 33 C 65 33 64 32.6 63.2 31.8 C 62.4 31 62.1 29.9 62.1 28.4 C 62.1 27 62.4 25.8 63.2 25 C 64 24.2 65 23.8 66.2 23.8 C 67.4 23.8 68.3 24.2 69.1 25 C 69.8 25.8 70.2 26.9 70.2 28.4 C 70.2 28.4 70.2 28.6 70.2 28.8 C 70.2 28.8 63.6 28.8 63.6 28.8 C 63.7 29.7 63.9 30.5 64.4 31 C 64.9 31.5 65.5 31.7 66.3 31.7 C 66.8 31.7 67.3 31.6 67.7 31.3 C 68.1 31 68.4 30.6 68.6 29.9 Z M 63.7 27.5 C 63.7 27.5 68.6 27.5 68.6 27.5 C 68.5 26.8 68.4 26.2 68 25.9 C 67.6 25.3 67 25 66.2 25 C 65.5 25 64.9 25.2 64.5 25.7 C 64 26.1 63.7 26.8 63.7 27.5 Z M 71.7 33.5 C 71.7 33.5 73.2 33.7 73.2 33.7 C 73.3 34.2 73.4 34.5 73.7 34.7 C 74.1 35 74.6 35.1 75.2 35.1 C 75.9 35.1 76.4 35 76.8 34.7 C 77.2 34.4 77.5 34 77.6 33.5 C 77.7 33.2 77.7 32.6 77.7 31.6 C 77 32.4 76.2 32.8 75.3 32.8 C 74 32.8 73.1 32.3 72.4 31.5 C 71.8 30.6 71.4 29.5 71.4 28.3 C 71.4 27.5 71.6 26.7 71.9 26 C 72.2 25.3 72.6 24.7 73.2 24.3 C 73.8 24 74.5 23.8 75.3 23.8 C 76.3 23.8 77.2 24.2 77.8 25 C 77.84 25.02 77.8 24 77.8 24 L 79.2 24 C 79.2 24 79.21 31.58 79.2 31.6 C 79.2 33 79.1 33.9 78.8 34.5 C 78.5 35.1 78.1 35.5 77.5 35.9 C 76.9 36.2 76.1 36.4 75.2 36.4 C 74.2 36.4 73.3 36.1 72.7 35.6 C 72 35.2 71.7 34.5 71.7 33.5 Z M 73 28.2 C 73 29.4 73.2 30.2 73.7 30.7 C 74.1 31.3 74.7 31.5 75.4 31.5 C 76.1 31.5 76.7 31.3 77.1 30.7 C 77.6 30.2 77.8 29.4 77.8 28.3 C 77.8 27.2 77.6 26.4 77.1 25.8 C 76.6 25.3 76 25 75.4 25 C 74.7 25 74.1 25.3 73.7 25.8 C 73.2 26.3 73 27.1 73 28.2 Z M 87.5 32.8 C 87.4 32.5 87.3 32.1 87.2 31.7 C 86.7 32.2 86.1 32.5 85.6 32.7 C 85.1 32.9 84.6 33 84 33 C 83 33 82.3 32.7 81.7 32.3 C 81.2 31.8 81 31.2 81 30.5 C 81 30 81.1 29.6 81.3 29.3 C 81.5 28.9 81.7 28.6 82 28.4 C 82.4 28.2 82.7 28 83.1 27.9 C 83.4 27.8 83.8 27.8 84.4 27.7 C 85.6 27.6 86.5 27.4 87.1 27.2 C 87.1 27 87.1 26.8 87.1 26.8 C 87.1 26.2 87 25.8 86.7 25.5 C 86.3 25.2 85.7 25 85 25 C 84.3 25 83.8 25.1 83.4 25.4 C 83.1 25.6 82.8 26.1 82.7 26.7 C 82.7 26.7 81.2 26.5 81.2 26.5 C 81.4 25.9 81.6 25.3 81.9 25 C 82.2 24.6 82.6 24.3 83.2 24.1 C 83.8 23.9 84.4 23.8 85.2 23.8 C 86 23.8 86.6 23.9 87 24 C 87.5 24.2 87.8 24.4 88.1 24.7 C 88.3 25 88.4 25.3 88.5 25.7 C 88.6 26 88.6 26.4 88.6 27.1 C 88.6 27.1 88.6 29.1 88.6 29.1 C 88.6 30.5 88.6 31.4 88.7 31.7 C 88.8 32.1 88.9 32.4 89.1 32.8 C 89.08 32.78 87.5 32.8 87.5 32.8 C 87.5 32.8 87.52 32.78 87.5 32.8 Z M 87.1 28.4 C 86.6 28.6 85.7 28.8 84.7 28.9 C 84 29 83.6 29.1 83.4 29.2 C 83.1 29.3 82.9 29.5 82.8 29.7 C 82.6 29.9 82.6 30.2 82.6 30.4 C 82.6 30.8 82.7 31.1 83 31.4 C 83.3 31.7 83.8 31.8 84.3 31.8 C 84.9 31.8 85.4 31.7 85.9 31.4 C 86.3 31.2 86.6 30.8 86.9 30.4 C 87 30.1 87.1 29.6 87.1 28.9 C 87.1 28.9 87.1 28.4 87.1 28.4 Z M 90.9 32.8 L 90.9 20.6 L 92.4 20.6 L 92.4 32.8 L 90.9 32.8 Z M 105.5 32.8 C 105.3 32.5 105.2 32.1 105.2 31.7 C 104.6 32.2 104.1 32.5 103.6 32.7 C 103.1 32.9 102.5 33 101.9 33 C 101 33 100.2 32.7 99.7 32.3 C 99.2 31.8 98.9 31.2 98.9 30.5 C 98.9 30 99 29.6 99.2 29.3 C 99.4 28.9 99.7 28.6 100 28.4 C 100.3 28.2 100.7 28 101.1 27.9 C 101.4 27.8 101.8 27.8 102.4 27.7 C 103.6 27.6 104.5 27.4 105.1 27.2 C 105.1 27 105.1 26.8 105.1 26.8 C 105.1 26.2 104.9 25.8 104.6 25.5 C 104.3 25.2 103.7 25 102.9 25 C 102.2 25 101.7 25.1 101.4 25.4 C 101 25.6 100.8 26.1 100.6 26.7 C 100.6 26.7 99.2 26.5 99.2 26.5 C 99.3 25.9 99.5 25.3 99.8 25 C 100.1 24.6 100.6 24.3 101.2 24.1 C 101.7 23.9 102.4 23.8 103.2 23.8 C 103.9 23.8 104.5 23.9 105 24 C 105.5 24.2 105.8 24.4 106 24.7 C 106.2 25 106.4 25.3 106.5 25.7 C 106.5 26 106.6 26.4 106.6 27.1 C 106.6 27.1 106.6 29.1 106.6 29.1 C 106.6 30.5 106.6 31.4 106.7 31.7 C 106.7 32.1 106.9 32.4 107 32.8 C 107.04 32.78 105.5 32.8 105.5 32.8 C 105.5 32.8 105.48 32.78 105.5 32.8 Z M 105.1 28.4 C 104.5 28.6 103.7 28.8 102.6 28.9 C 102 29 101.6 29.1 101.3 29.2 C 101.1 29.3 100.9 29.5 100.7 29.7 C 100.6 29.9 100.5 30.2 100.5 30.4 C 100.5 30.8 100.7 31.1 101 31.4 C 101.3 31.7 101.7 31.8 102.3 31.8 C 102.9 31.8 103.4 31.7 103.8 31.4 C 104.3 31.2 104.6 30.8 104.8 30.4 C 105 30.1 105.1 29.6 105.1 28.9 C 105.1 28.9 105.1 28.4 105.1 28.4 Z M 108.9 32.8 L 108.9 24 L 110.2 24 C 110.2 24 110.23 25.21 110.2 25.2 C 110.9 24.2 111.8 23.8 113 23.8 C 113.6 23.8 114.1 23.9 114.5 24 C 114.9 24.2 115.3 24.5 115.5 24.8 C 115.7 25.1 115.9 25.5 116 25.9 C 116 26.2 116 26.7 116 27.4 C 116.04 27.36 116 32.8 116 32.8 L 114.6 32.8 C 114.6 32.8 114.55 27.41 114.6 27.4 C 114.6 26.8 114.5 26.4 114.4 26 C 114.3 25.7 114.1 25.5 113.8 25.3 C 113.5 25.1 113.1 25.1 112.7 25.1 C 112.1 25.1 111.5 25.3 111.1 25.7 C 110.6 26.1 110.4 26.8 110.4 28 C 110.38 27.96 110.4 32.8 110.4 32.8 L 108.9 32.8 Z M 124.1 32.8 C 124.1 32.8 124.06 31.66 124.1 31.7 C 123.5 32.5 122.7 33 121.6 33 C 120.9 33 120.2 32.8 119.7 32.4 C 119.1 32 118.6 31.5 118.3 30.8 C 118 30.1 117.8 29.3 117.8 28.4 C 117.8 27.5 117.9 26.7 118.2 26 C 118.5 25.3 119 24.7 119.6 24.3 C 120.1 24 120.8 23.8 121.5 23.8 C 122.1 23.8 122.5 23.9 122.9 24.1 C 123.4 24.3 123.7 24.6 124 25 C 123.96 24.97 124 20.6 124 20.6 L 125.4 20.6 L 125.4 32.8 L 124.1 32.8 Z M 119.3 28.4 C 119.3 29.5 119.6 30.3 120 30.9 C 120.5 31.5 121.1 31.7 121.7 31.7 C 122.4 31.7 122.9 31.5 123.4 30.9 C 123.9 30.4 124.1 29.6 124.1 28.5 C 124.1 27.3 123.8 26.4 123.4 25.8 C 122.9 25.3 122.3 25 121.7 25 C 121 25 120.4 25.3 120 25.8 C 119.6 26.4 119.3 27.2 119.3 28.4 Z " stroke="none" fill="#003a5c"/>
  </g>
  <g id="Polygon61109">
    <path d="M 0.8 6.4 C 0.8 4.4 1.4 2.8 2.4 1.7 C 3.5 0.6 4.9 0 6.6 0 C 7.8 0 8.8 0.3 9.7 0.8 C 10.6 1.3 11.3 2.1 11.7 3 C 12.2 4 12.5 5.1 12.5 6.3 C 12.5 7.5 12.2 8.6 11.7 9.6 C 11.2 10.6 10.5 11.3 9.6 11.8 C 8.7 12.3 7.7 12.6 6.6 12.6 C 5.5 12.6 4.5 12.3 3.6 11.8 C 2.7 11.2 2 10.4 1.5 9.5 C 1.1 8.5 0.8 7.5 0.8 6.4 Z M 2.5 6.5 C 2.5 7.9 2.9 9.1 3.7 9.9 C 4.5 10.8 5.4 11.2 6.6 11.2 C 7.8 11.2 8.8 10.8 9.6 9.9 C 10.4 9.1 10.8 7.9 10.8 6.3 C 10.8 5.3 10.6 4.4 10.3 3.7 C 10 3 9.5 2.4 8.8 2 C 8.2 1.6 7.5 1.4 6.7 1.4 C 5.5 1.4 4.5 1.8 3.7 2.6 C 2.9 3.3 2.5 4.6 2.5 6.5 Z M 20.1 12.4 C 20.1 12.4 20.12 11.08 20.1 11.1 C 19.4 12.1 18.5 12.6 17.3 12.6 C 16.8 12.6 16.3 12.5 15.9 12.3 C 15.4 12.1 15.1 11.8 14.9 11.5 C 14.6 11.2 14.5 10.9 14.4 10.4 C 14.3 10.1 14.3 9.7 14.3 9 C 14.31 9.02 14.3 3.6 14.3 3.6 L 15.8 3.6 C 15.8 3.6 15.8 8.45 15.8 8.5 C 15.8 9.2 15.8 9.8 15.9 10 C 16 10.4 16.2 10.7 16.5 11 C 16.8 11.2 17.2 11.3 17.6 11.3 C 18.1 11.3 18.5 11.2 18.9 10.9 C 19.3 10.7 19.6 10.4 19.7 10 C 19.9 9.6 20 9 20 8.3 C 19.96 8.28 20 3.6 20 3.6 L 21.5 3.6 L 21.5 12.4 L 20.1 12.4 Z M 26.4 11.1 C 26.6 11.1 26.8 11.1 27.1 11 C 27.1 11 27.3 12.4 27.3 12.4 C 26.9 12.4 26.5 12.5 26.1 12.5 C 25.6 12.5 25.2 12.4 24.9 12.2 C 24.6 12.1 24.4 11.8 24.3 11.6 C 24.1 11.3 24.1 10.7 24.1 9.8 C 24.07 9.79 24.1 4.7 24.1 4.7 L 23 4.7 L 23 3.6 L 24.1 3.6 L 24.1 1.4 L 25.6 0.5 L 25.6 3.6 L 27.1 3.6 L 27.1 4.7 L 25.6 4.7 C 25.6 4.7 25.56 9.88 25.6 9.9 C 25.6 10.3 25.6 10.6 25.6 10.7 C 25.7 10.8 25.8 10.9 25.9 11 C 26 11.1 26.2 11.1 26.4 11.1 C 26.4 11.1 26.4 11.1 26.4 11.1 Z M 27.9 9.7 C 27.9 9.7 29.4 9.5 29.4 9.5 C 29.5 10.1 29.7 10.6 30.1 10.9 C 30.5 11.2 31 11.3 31.7 11.3 C 32.4 11.3 32.9 11.2 33.2 10.9 C 33.5 10.6 33.7 10.3 33.7 9.9 C 33.7 9.6 33.6 9.3 33.3 9.1 C 33.1 9 32.6 8.8 31.7 8.6 C 30.6 8.4 29.9 8.1 29.5 7.9 C 29 7.7 28.7 7.4 28.5 7.1 C 28.3 6.7 28.2 6.3 28.2 5.9 C 28.2 5.5 28.3 5.1 28.4 4.8 C 28.6 4.5 28.9 4.2 29.2 4 C 29.4 3.8 29.7 3.7 30.1 3.5 C 30.5 3.4 31 3.4 31.4 3.4 C 32.1 3.4 32.7 3.5 33.2 3.7 C 33.8 3.9 34.1 4.1 34.4 4.5 C 34.6 4.8 34.8 5.3 34.9 5.8 C 34.9 5.8 33.5 6 33.5 6 C 33.4 5.6 33.2 5.2 32.9 5 C 32.6 4.7 32.1 4.6 31.5 4.6 C 30.8 4.6 30.4 4.7 30.1 4.9 C 29.8 5.2 29.6 5.4 29.6 5.7 C 29.6 5.9 29.7 6.1 29.8 6.3 C 29.9 6.4 30.1 6.5 30.4 6.6 C 30.5 6.7 31 6.8 31.7 7 C 32.7 7.3 33.5 7.5 33.9 7.7 C 34.3 7.9 34.7 8.2 34.9 8.5 C 35.1 8.9 35.2 9.3 35.2 9.8 C 35.2 10.3 35.1 10.8 34.8 11.2 C 34.5 11.6 34.1 12 33.6 12.2 C 33 12.5 32.4 12.6 31.7 12.6 C 30.5 12.6 29.7 12.3 29.1 11.9 C 28.5 11.4 28.1 10.7 27.9 9.7 Z M 36.5 8 C 36.5 6.3 36.9 5.1 37.8 4.3 C 38.6 3.7 39.5 3.4 40.6 3.4 C 41.8 3.4 42.8 3.8 43.6 4.6 C 44.3 5.3 44.7 6.4 44.7 7.8 C 44.7 9 44.6 9.9 44.2 10.5 C 43.9 11.2 43.4 11.7 42.7 12 C 42.1 12.4 41.4 12.6 40.6 12.6 C 39.4 12.6 38.4 12.2 37.6 11.4 C 36.8 10.6 36.5 9.5 36.5 8 Z M 38 8 C 38 9.1 38.2 9.9 38.7 10.5 C 39.2 11.1 39.9 11.3 40.6 11.3 C 41.3 11.3 42 11.1 42.5 10.5 C 42.9 9.9 43.2 9.1 43.2 7.9 C 43.2 6.8 42.9 6 42.4 5.4 C 42 4.9 41.3 4.6 40.6 4.6 C 39.9 4.6 39.2 4.9 38.7 5.4 C 38.2 6 38 6.8 38 8 Z M 52.3 12.4 C 52.3 12.4 52.25 11.08 52.3 11.1 C 51.6 12.1 50.6 12.6 49.5 12.6 C 48.9 12.6 48.5 12.5 48 12.3 C 47.5 12.1 47.2 11.8 47 11.5 C 46.8 11.2 46.6 10.9 46.5 10.4 C 46.5 10.1 46.4 9.7 46.4 9 C 46.44 9.02 46.4 3.6 46.4 3.6 L 47.9 3.6 C 47.9 3.6 47.94 8.45 47.9 8.5 C 47.9 9.2 48 9.8 48 10 C 48.1 10.4 48.3 10.7 48.6 11 C 48.9 11.2 49.3 11.3 49.8 11.3 C 50.2 11.3 50.6 11.2 51 10.9 C 51.4 10.7 51.7 10.4 51.9 10 C 52 9.6 52.1 9 52.1 8.3 C 52.1 8.28 52.1 3.6 52.1 3.6 L 53.6 3.6 L 53.6 12.4 L 52.3 12.4 Z M 55.9 12.4 L 55.9 3.6 L 57.3 3.6 C 57.3 3.6 57.26 4.9 57.3 4.9 C 57.6 4.3 57.9 3.9 58.2 3.7 C 58.5 3.5 58.8 3.4 59.2 3.4 C 59.7 3.4 60.2 3.5 60.7 3.8 C 60.7 3.8 60.2 5.2 60.2 5.2 C 59.8 5 59.5 4.9 59.1 4.9 C 58.8 4.9 58.5 5 58.2 5.2 C 58 5.4 57.8 5.7 57.7 6 C 57.5 6.5 57.4 7.1 57.4 7.8 C 57.41 7.76 57.4 12.4 57.4 12.4 L 55.9 12.4 Z M 67.3 9.1 C 67.3 9.1 68.8 9.3 68.8 9.3 C 68.7 10.4 68.2 11.1 67.6 11.7 C 66.9 12.3 66.1 12.6 65.1 12.6 C 63.9 12.6 63 12.2 62.2 11.4 C 61.5 10.6 61.1 9.5 61.1 8 C 61.1 7.1 61.3 6.2 61.6 5.5 C 61.9 4.8 62.4 4.3 63 3.9 C 63.7 3.5 64.4 3.4 65.2 3.4 C 66.1 3.4 66.9 3.6 67.5 4.1 C 68.1 4.6 68.5 5.3 68.7 6.2 C 68.7 6.2 67.2 6.4 67.2 6.4 C 67.1 5.8 66.8 5.3 66.5 5 C 66.1 4.7 65.7 4.6 65.2 4.6 C 64.5 4.6 63.8 4.9 63.4 5.4 C 62.9 5.9 62.7 6.8 62.7 8 C 62.7 9.1 62.9 10 63.4 10.5 C 63.8 11.1 64.4 11.3 65.1 11.3 C 65.7 11.3 66.2 11.2 66.6 10.8 C 67 10.4 67.2 9.9 67.3 9.1 Z M 70.1 1.9 L 70.1 0.2 L 71.6 0.2 L 71.6 1.9 L 70.1 1.9 Z M 70.1 12.4 L 70.1 3.6 L 71.6 3.6 L 71.6 12.4 L 70.1 12.4 Z M 73.9 12.4 L 73.9 3.6 L 75.2 3.6 C 75.2 3.6 75.21 4.81 75.2 4.8 C 75.9 3.8 76.8 3.4 78 3.4 C 78.6 3.4 79 3.5 79.5 3.6 C 79.9 3.8 80.3 4.1 80.5 4.4 C 80.7 4.7 80.9 5.1 80.9 5.5 C 81 5.8 81 6.3 81 7 C 81.03 6.96 81 12.4 81 12.4 L 79.5 12.4 C 79.5 12.4 79.54 7.01 79.5 7 C 79.5 6.4 79.5 6 79.4 5.6 C 79.2 5.3 79 5.1 78.7 4.9 C 78.4 4.7 78.1 4.7 77.7 4.7 C 77.1 4.7 76.5 4.9 76.1 5.3 C 75.6 5.7 75.4 6.4 75.4 7.6 C 75.36 7.56 75.4 12.4 75.4 12.4 L 73.9 12.4 Z M 83 13.1 C 83 13.1 84.5 13.3 84.5 13.3 C 84.6 13.8 84.7 14.1 85 14.3 C 85.4 14.6 85.9 14.7 86.5 14.7 C 87.2 14.7 87.8 14.6 88.1 14.3 C 88.5 14 88.8 13.6 88.9 13.1 C 89 12.8 89 12.2 89 11.2 C 88.3 12 87.5 12.4 86.6 12.4 C 85.3 12.4 84.4 11.9 83.7 11.1 C 83.1 10.2 82.8 9.1 82.8 7.9 C 82.8 7.1 82.9 6.3 83.2 5.6 C 83.5 4.9 84 4.3 84.5 3.9 C 85.1 3.6 85.8 3.4 86.6 3.4 C 87.6 3.4 88.5 3.8 89.1 4.6 C 89.14 4.62 89.1 3.6 89.1 3.6 L 90.5 3.6 C 90.5 3.6 90.52 11.18 90.5 11.2 C 90.5 12.6 90.4 13.5 90.1 14.1 C 89.8 14.7 89.4 15.1 88.8 15.5 C 88.2 15.8 87.4 16 86.5 16 C 85.5 16 84.6 15.7 84 15.2 C 83.3 14.8 83 14.1 83 13.1 Z M 84.3 7.8 C 84.3 9 84.5 9.8 85 10.3 C 85.4 10.9 86 11.1 86.7 11.1 C 87.4 11.1 88 10.9 88.4 10.3 C 88.9 9.8 89.1 9 89.1 7.9 C 89.1 6.8 88.9 6 88.4 5.4 C 87.9 4.9 87.4 4.6 86.7 4.6 C 86 4.6 85.4 4.9 85 5.4 C 84.5 5.9 84.3 6.7 84.3 7.8 Z M 96.4 8.6 L 96.4 7.4 L 113.4 7.4 L 113.4 8.6 L 96.4 8.6 Z M 125.1 7.6 L 125.1 6.2 L 130.3 6.2 C 130.3 6.2 130.26 10.68 130.3 10.7 C 129.5 11.3 128.7 11.8 127.8 12.1 C 127 12.4 126.1 12.6 125.2 12.6 C 124 12.6 122.9 12.3 122 11.8 C 121 11.3 120.3 10.6 119.8 9.6 C 119.3 8.6 119 7.5 119 6.4 C 119 5.2 119.3 4.1 119.8 3 C 120.2 2 121 1.2 121.9 0.7 C 122.8 0.2 123.9 0 125.1 0 C 126 0 126.8 0.1 127.5 0.4 C 128.2 0.7 128.8 1.1 129.2 1.6 C 129.6 2.1 129.9 2.8 130.1 3.6 C 130.1 3.6 128.6 4 128.6 4 C 128.4 3.4 128.2 2.9 127.9 2.5 C 127.7 2.2 127.3 1.9 126.8 1.7 C 126.3 1.5 125.7 1.4 125.1 1.4 C 124.4 1.4 123.7 1.5 123.2 1.7 C 122.7 1.9 122.2 2.2 121.9 2.6 C 121.6 3 121.3 3.4 121.1 3.8 C 120.8 4.6 120.7 5.4 120.7 6.3 C 120.7 7.3 120.9 8.2 121.2 9 C 121.6 9.7 122.1 10.2 122.9 10.6 C 123.6 11 124.3 11.1 125.1 11.1 C 125.8 11.1 126.5 11 127.2 10.7 C 127.8 10.5 128.3 10.2 128.7 9.9 C 128.69 9.87 128.7 7.6 128.7 7.6 L 125.1 7.6 Z M 138.2 12.4 C 138.2 12.4 138.22 11.08 138.2 11.1 C 137.5 12.1 136.6 12.6 135.4 12.6 C 134.9 12.6 134.4 12.5 134 12.3 C 133.5 12.1 133.2 11.8 133 11.5 C 132.7 11.2 132.6 10.9 132.5 10.4 C 132.4 10.1 132.4 9.7 132.4 9 C 132.41 9.02 132.4 3.6 132.4 3.6 L 133.9 3.6 C 133.9 3.6 133.91 8.45 133.9 8.5 C 133.9 9.2 133.9 9.8 134 10 C 134.1 10.4 134.3 10.7 134.6 11 C 134.9 11.2 135.3 11.3 135.7 11.3 C 136.2 11.3 136.6 11.2 137 10.9 C 137.4 10.7 137.7 10.4 137.8 10 C 138 9.6 138.1 9 138.1 8.3 C 138.07 8.28 138.1 3.6 138.1 3.6 L 139.6 3.6 L 139.6 12.4 L 138.2 12.4 Z M 141.9 1.9 L 141.9 0.2 L 143.4 0.2 L 143.4 1.9 L 141.9 1.9 Z M 141.9 12.4 L 141.9 3.6 L 143.4 3.6 L 143.4 12.4 L 141.9 12.4 Z M 151.4 12.4 C 151.4 12.4 151.4 11.26 151.4 11.3 C 150.8 12.1 150 12.6 148.9 12.6 C 148.2 12.6 147.6 12.4 147 12 C 146.4 11.6 145.9 11.1 145.6 10.4 C 145.3 9.7 145.1 8.9 145.1 8 C 145.1 7.1 145.3 6.3 145.6 5.6 C 145.9 4.9 146.3 4.3 146.9 3.9 C 147.5 3.6 148.1 3.4 148.9 3.4 C 149.4 3.4 149.9 3.5 150.3 3.7 C 150.7 3.9 151 4.2 151.3 4.6 C 151.3 4.57 151.3 0.2 151.3 0.2 L 152.8 0.2 L 152.8 12.4 L 151.4 12.4 Z M 146.7 8 C 146.7 9.1 146.9 9.9 147.4 10.5 C 147.9 11.1 148.4 11.3 149.1 11.3 C 149.7 11.3 150.3 11.1 150.7 10.5 C 151.2 10 151.4 9.2 151.4 8.1 C 151.4 6.9 151.2 6 150.7 5.4 C 150.3 4.9 149.7 4.6 149 4.6 C 148.3 4.6 147.8 4.9 147.3 5.4 C 146.9 6 146.7 6.8 146.7 8 Z M 161.2 12.4 C 161 12.1 160.9 11.7 160.9 11.3 C 160.3 11.8 159.8 12.1 159.3 12.3 C 158.8 12.5 158.2 12.6 157.6 12.6 C 156.7 12.6 155.9 12.3 155.4 11.9 C 154.9 11.4 154.6 10.8 154.6 10.1 C 154.6 9.6 154.7 9.2 154.9 8.9 C 155.1 8.5 155.4 8.2 155.7 8 C 156 7.8 156.4 7.6 156.8 7.5 C 157.1 7.4 157.5 7.4 158.1 7.3 C 159.3 7.2 160.2 7 160.8 6.8 C 160.8 6.6 160.8 6.4 160.8 6.4 C 160.8 5.8 160.6 5.4 160.3 5.1 C 160 4.8 159.4 4.6 158.6 4.6 C 157.9 4.6 157.4 4.7 157.1 5 C 156.8 5.2 156.5 5.7 156.3 6.3 C 156.3 6.3 154.9 6.1 154.9 6.1 C 155 5.5 155.2 4.9 155.5 4.6 C 155.8 4.2 156.3 3.9 156.9 3.7 C 157.4 3.5 158.1 3.4 158.9 3.4 C 159.6 3.4 160.2 3.5 160.7 3.6 C 161.2 3.8 161.5 4 161.7 4.3 C 162 4.6 162.1 4.9 162.2 5.3 C 162.2 5.6 162.3 6 162.3 6.7 C 162.3 6.7 162.3 8.7 162.3 8.7 C 162.3 10.1 162.3 11 162.4 11.3 C 162.4 11.7 162.6 12 162.7 12.4 C 162.75 12.38 161.2 12.4 161.2 12.4 C 161.2 12.4 161.18 12.38 161.2 12.4 Z M 160.8 8 C 160.2 8.2 159.4 8.4 158.3 8.5 C 157.7 8.6 157.3 8.7 157 8.8 C 156.8 8.9 156.6 9.1 156.4 9.3 C 156.3 9.5 156.2 9.8 156.2 10 C 156.2 10.4 156.4 10.7 156.7 11 C 157 11.3 157.4 11.4 158 11.4 C 158.6 11.4 159.1 11.3 159.5 11 C 160 10.8 160.3 10.4 160.5 10 C 160.7 9.7 160.8 9.2 160.8 8.5 C 160.8 8.5 160.8 8 160.8 8 Z M 164.6 12.4 L 164.6 3.6 L 165.9 3.6 C 165.9 3.6 165.93 4.81 165.9 4.8 C 166.6 3.8 167.5 3.4 168.7 3.4 C 169.3 3.4 169.8 3.5 170.2 3.6 C 170.6 3.8 171 4.1 171.2 4.4 C 171.4 4.7 171.6 5.1 171.7 5.5 C 171.7 5.8 171.8 6.3 171.8 7 C 171.75 6.96 171.8 12.4 171.8 12.4 L 170.3 12.4 C 170.3 12.4 170.26 7.01 170.3 7 C 170.3 6.4 170.2 6 170.1 5.6 C 170 5.3 169.8 5.1 169.5 4.9 C 169.2 4.7 168.8 4.7 168.4 4.7 C 167.8 4.7 167.2 4.9 166.8 5.3 C 166.3 5.7 166.1 6.4 166.1 7.6 C 166.08 7.56 166.1 12.4 166.1 12.4 L 164.6 12.4 Z M 179.8 9.1 C 179.8 9.1 181.3 9.3 181.3 9.3 C 181.1 10.4 180.7 11.1 180 11.7 C 179.4 12.3 178.6 12.6 177.6 12.6 C 176.4 12.6 175.4 12.2 174.7 11.4 C 174 10.6 173.6 9.5 173.6 8 C 173.6 7.1 173.7 6.2 174.1 5.5 C 174.4 4.8 174.9 4.3 175.5 3.9 C 176.1 3.5 176.8 3.4 177.6 3.4 C 178.6 3.4 179.3 3.6 180 4.1 C 180.6 4.6 181 5.3 181.1 6.2 C 181.1 6.2 179.7 6.4 179.7 6.4 C 179.5 5.8 179.3 5.3 178.9 5 C 178.6 4.7 178.2 4.6 177.7 4.6 C 176.9 4.6 176.3 4.9 175.8 5.4 C 175.4 5.9 175.1 6.8 175.1 8 C 175.1 9.1 175.3 10 175.8 10.5 C 176.3 11.1 176.8 11.3 177.6 11.3 C 178.2 11.3 178.7 11.2 179 10.8 C 179.4 10.4 179.7 9.9 179.8 9.1 Z M 188.6 9.5 C 188.6 9.5 190.1 9.7 190.1 9.7 C 189.9 10.6 189.4 11.3 188.8 11.8 C 188.1 12.3 187.3 12.6 186.2 12.6 C 185 12.6 183.9 12.2 183.2 11.4 C 182.4 10.6 182 9.5 182 8 C 182 6.6 182.4 5.4 183.2 4.6 C 184 3.8 184.9 3.4 186.2 3.4 C 187.3 3.4 188.3 3.8 189.1 4.6 C 189.8 5.4 190.2 6.5 190.2 8 C 190.2 8 190.2 8.2 190.2 8.4 C 190.2 8.4 183.6 8.4 183.6 8.4 C 183.6 9.3 183.9 10.1 184.4 10.6 C 184.9 11.1 185.5 11.3 186.3 11.3 C 186.8 11.3 187.3 11.2 187.7 10.9 C 188 10.6 188.4 10.2 188.6 9.5 Z M 183.7 7.1 C 183.7 7.1 188.6 7.1 188.6 7.1 C 188.5 6.4 188.3 5.8 188 5.5 C 187.6 4.9 186.9 4.6 186.2 4.6 C 185.5 4.6 184.9 4.8 184.4 5.3 C 184 5.7 183.7 6.4 183.7 7.1 Z " stroke="none" fill="#003a5c"/>
  </g>
</svg>