<?xml version="1.0" standalone="no"?>
<!DOCTYPE svg PUBLIC "-//W3C//DTD SVG 1.1//EN" "http://www.w3.org/Graphics/SVG/1.1/DTD/svg11.dtd">
<svg xmlns="http://www.w3.org/2000/svg" version="1.1" width="294.4px" height="21.7px" viewBox="0 -4 294.4 21.7" style="top:-4px">
  <desc>*In cooperation with the Law Office of Salman M Al-Sudairi</desc>
  <defs/>
  <g id="Polygon64992">
    <path d="M 1.5 1.7 C 1.1 1.6 0.7 1.5 0.3 1.4 C 0.3 1.4 0.5 0.7 0.5 0.7 C 1.1 0.9 1.4 1.1 1.7 1.2 C 1.6 0.6 1.6 0.2 1.6 0 C 1.6 0 2.3 0 2.3 0 C 2.3 0.3 2.2 0.7 2.2 1.2 C 2.5 1 2.9 0.9 3.3 0.7 C 3.3 0.7 3.5 1.4 3.5 1.4 C 3.1 1.6 2.7 1.7 2.3 1.7 C 2.5 1.9 2.8 2.2 3.2 2.6 C 3.2 2.6 2.6 3 2.6 3 C 2.4 2.8 2.2 2.4 1.9 2 C 1.7 2.5 1.5 2.8 1.3 3 C 1.3 3 0.7 2.6 0.7 2.6 C 1.1 2.2 1.3 1.9 1.5 1.7 C 1.5 1.7 1.5 1.7 1.5 1.7 Z M 4.8 7.3 L 4.8 0.1 L 5.8 0.1 L 5.8 7.3 L 4.8 7.3 Z M 7.3 7.3 L 7.3 2.1 L 8.1 2.1 C 8.1 2.1 8.12 2.83 8.1 2.8 C 8.5 2.3 9.1 2 9.8 2 C 10.1 2 10.4 2 10.6 2.1 C 10.9 2.3 11.1 2.4 11.2 2.6 C 11.4 2.8 11.4 3 11.5 3.2 C 11.5 3.4 11.5 3.7 11.5 4.1 C 11.54 4.09 11.5 7.3 11.5 7.3 L 10.7 7.3 C 10.7 7.3 10.66 4.13 10.7 4.1 C 10.7 3.8 10.6 3.5 10.6 3.3 C 10.5 3.1 10.4 3 10.2 2.9 C 10 2.8 9.8 2.7 9.6 2.7 C 9.2 2.7 8.9 2.9 8.6 3.1 C 8.3 3.3 8.2 3.8 8.2 4.4 C 8.21 4.45 8.2 7.3 8.2 7.3 L 7.3 7.3 Z M 19.1 5.4 C 19.1 5.4 19.9 5.5 19.9 5.5 C 19.8 6.1 19.6 6.6 19.2 6.9 C 18.8 7.2 18.3 7.4 17.8 7.4 C 17 7.4 16.5 7.2 16 6.7 C 15.6 6.2 15.4 5.6 15.4 4.7 C 15.4 4.1 15.5 3.7 15.7 3.2 C 15.9 2.8 16.1 2.5 16.5 2.3 C 16.9 2.1 17.3 2 17.8 2 C 18.3 2 18.8 2.1 19.1 2.4 C 19.5 2.7 19.7 3.1 19.8 3.6 C 19.8 3.6 19 3.8 19 3.8 C 18.9 3.4 18.8 3.1 18.5 3 C 18.3 2.8 18.1 2.7 17.8 2.7 C 17.4 2.7 17 2.9 16.7 3.2 C 16.4 3.5 16.3 4 16.3 4.7 C 16.3 5.4 16.4 5.9 16.7 6.2 C 17 6.5 17.3 6.7 17.7 6.7 C 18.1 6.7 18.4 6.6 18.6 6.4 C 18.8 6.1 19 5.8 19.1 5.4 Z M 20.3 4.7 C 20.3 3.7 20.6 3 21.1 2.6 C 21.6 2.2 22.1 2 22.8 2 C 23.5 2 24.1 2.2 24.5 2.7 C 25 3.1 25.2 3.8 25.2 4.6 C 25.2 5.3 25.1 5.8 24.9 6.2 C 24.7 6.6 24.4 6.9 24 7.1 C 23.6 7.3 23.2 7.4 22.8 7.4 C 22 7.4 21.5 7.2 21 6.7 C 20.6 6.2 20.3 5.6 20.3 4.7 Z M 21.2 4.7 C 21.2 5.4 21.4 5.8 21.7 6.2 C 22 6.5 22.3 6.7 22.8 6.7 C 23.2 6.7 23.6 6.5 23.9 6.2 C 24.2 5.8 24.3 5.3 24.3 4.7 C 24.3 4 24.2 3.5 23.9 3.2 C 23.6 2.9 23.2 2.7 22.8 2.7 C 22.3 2.7 22 2.9 21.7 3.2 C 21.4 3.5 21.2 4 21.2 4.7 Z M 25.9 4.7 C 25.9 3.7 26.2 3 26.7 2.6 C 27.2 2.2 27.7 2 28.3 2 C 29 2 29.6 2.2 30.1 2.7 C 30.5 3.1 30.8 3.8 30.8 4.6 C 30.8 5.3 30.7 5.8 30.5 6.2 C 30.3 6.6 30 6.9 29.6 7.1 C 29.2 7.3 28.8 7.4 28.3 7.4 C 27.6 7.4 27 7.2 26.6 6.7 C 26.1 6.2 25.9 5.6 25.9 4.7 Z M 26.8 4.7 C 26.8 5.4 27 5.8 27.2 6.2 C 27.5 6.5 27.9 6.7 28.3 6.7 C 28.8 6.7 29.1 6.5 29.4 6.2 C 29.7 5.8 29.9 5.3 29.9 4.7 C 29.9 4 29.7 3.5 29.4 3.2 C 29.1 2.9 28.8 2.7 28.3 2.7 C 27.9 2.7 27.5 2.9 27.2 3.2 C 27 3.5 26.8 4 26.8 4.7 Z M 31.8 9.3 L 31.8 2.1 L 32.6 2.1 C 32.6 2.1 32.59 2.77 32.6 2.8 C 32.8 2.5 33 2.3 33.2 2.2 C 33.5 2 33.8 2 34.1 2 C 34.5 2 34.9 2.1 35.3 2.3 C 35.6 2.5 35.9 2.9 36 3.3 C 36.2 3.7 36.3 4.2 36.3 4.6 C 36.3 5.2 36.2 5.7 36 6.1 C 35.8 6.5 35.5 6.8 35.2 7.1 C 34.8 7.3 34.4 7.4 34 7.4 C 33.7 7.4 33.5 7.3 33.2 7.2 C 33 7.1 32.8 6.9 32.7 6.7 C 32.67 6.74 32.7 9.3 32.7 9.3 L 31.8 9.3 Z M 32.6 4.7 C 32.6 5.4 32.7 5.9 33 6.2 C 33.3 6.5 33.6 6.7 34 6.7 C 34.4 6.7 34.7 6.5 35 6.2 C 35.3 5.8 35.4 5.3 35.4 4.6 C 35.4 4 35.3 3.5 35 3.2 C 34.7 2.8 34.4 2.7 34 2.7 C 33.6 2.7 33.3 2.8 33 3.2 C 32.7 3.5 32.6 4 32.6 4.7 Z M 40.9 5.6 C 40.9 5.6 41.8 5.7 41.8 5.7 C 41.7 6.3 41.4 6.7 41 7 C 40.6 7.3 40.1 7.4 39.5 7.4 C 38.8 7.4 38.2 7.2 37.7 6.7 C 37.3 6.2 37.1 5.6 37.1 4.7 C 37.1 3.9 37.3 3.2 37.7 2.7 C 38.2 2.2 38.8 2 39.5 2 C 40.2 2 40.7 2.2 41.2 2.7 C 41.6 3.2 41.8 3.8 41.8 4.7 C 41.8 4.7 41.8 4.8 41.8 4.9 C 41.8 4.9 38 4.9 38 4.9 C 38 5.5 38.2 5.9 38.5 6.2 C 38.7 6.5 39.1 6.7 39.5 6.7 C 39.9 6.7 40.1 6.6 40.4 6.4 C 40.6 6.3 40.8 6 40.9 5.6 Z M 38 4.2 C 38 4.2 40.9 4.2 40.9 4.2 C 40.9 3.8 40.8 3.4 40.6 3.2 C 40.3 2.9 39.9 2.7 39.5 2.7 C 39.1 2.7 38.7 2.8 38.5 3.1 C 38.2 3.4 38 3.7 38 4.2 Z M 42.9 7.3 L 42.9 2.1 L 43.7 2.1 C 43.7 2.1 43.7 2.88 43.7 2.9 C 43.9 2.5 44.1 2.3 44.3 2.2 C 44.4 2 44.6 2 44.8 2 C 45.1 2 45.4 2.1 45.7 2.3 C 45.7 2.3 45.4 3.1 45.4 3.1 C 45.2 2.9 45 2.9 44.8 2.9 C 44.6 2.9 44.4 2.9 44.3 3.1 C 44.1 3.2 44 3.3 43.9 3.5 C 43.8 3.9 43.8 4.2 43.8 4.6 C 43.78 4.57 43.8 7.3 43.8 7.3 L 42.9 7.3 Z M 49.8 7.3 C 49.7 7.1 49.7 6.9 49.6 6.6 C 49.3 6.9 49 7.1 48.7 7.2 C 48.4 7.3 48.1 7.4 47.7 7.4 C 47.2 7.4 46.7 7.3 46.4 7 C 46.1 6.7 45.9 6.3 45.9 5.9 C 45.9 5.7 46 5.4 46.1 5.2 C 46.2 5 46.4 4.8 46.6 4.7 C 46.8 4.6 47 4.5 47.2 4.4 C 47.4 4.4 47.6 4.3 48 4.3 C 48.7 4.2 49.2 4.1 49.6 4 C 49.6 3.9 49.6 3.8 49.6 3.8 C 49.6 3.4 49.5 3.1 49.3 3 C 49.1 2.8 48.8 2.7 48.3 2.7 C 47.9 2.7 47.6 2.8 47.4 2.9 C 47.2 3.1 47.1 3.3 47 3.7 C 47 3.7 46.1 3.6 46.1 3.6 C 46.2 3.2 46.3 2.9 46.5 2.7 C 46.7 2.5 46.9 2.3 47.3 2.2 C 47.6 2 48 2 48.4 2 C 48.9 2 49.2 2 49.5 2.1 C 49.8 2.2 50 2.4 50.1 2.5 C 50.3 2.7 50.3 2.9 50.4 3.1 C 50.4 3.3 50.4 3.5 50.4 3.9 C 50.4 3.9 50.4 5.1 50.4 5.1 C 50.4 5.9 50.5 6.4 50.5 6.7 C 50.5 6.9 50.6 7.1 50.7 7.3 C 50.72 7.28 49.8 7.3 49.8 7.3 C 49.8 7.3 49.8 7.28 49.8 7.3 Z M 49.6 4.7 C 49.2 4.8 48.8 4.9 48.1 5 C 47.8 5.1 47.5 5.1 47.4 5.2 C 47.2 5.3 47.1 5.3 47 5.5 C 46.9 5.6 46.9 5.7 46.9 5.9 C 46.9 6.1 47 6.3 47.2 6.5 C 47.3 6.6 47.6 6.7 47.9 6.7 C 48.3 6.7 48.6 6.6 48.8 6.5 C 49.1 6.3 49.3 6.1 49.4 5.9 C 49.5 5.7 49.6 5.4 49.6 5 C 49.6 5 49.6 4.7 49.6 4.7 Z M 53.3 6.5 C 53.4 6.5 53.6 6.5 53.7 6.5 C 53.7 6.5 53.9 7.3 53.9 7.3 C 53.6 7.3 53.4 7.3 53.2 7.3 C 52.9 7.3 52.6 7.3 52.4 7.2 C 52.3 7.1 52.1 7 52.1 6.8 C 52 6.6 52 6.3 52 5.8 C 51.97 5.76 52 2.8 52 2.8 L 51.3 2.8 L 51.3 2.1 L 52 2.1 L 52 0.8 L 52.8 0.3 L 52.8 2.1 L 53.7 2.1 L 53.7 2.8 L 52.8 2.8 C 52.8 2.8 52.84 5.81 52.8 5.8 C 52.8 6.1 52.9 6.2 52.9 6.3 C 52.9 6.4 53 6.4 53 6.5 C 53.1 6.5 53.2 6.5 53.3 6.5 C 53.3 6.5 53.3 6.5 53.3 6.5 Z M 54.6 1.1 L 54.6 0.1 L 55.5 0.1 L 55.5 1.1 L 54.6 1.1 Z M 54.6 7.3 L 54.6 2.1 L 55.5 2.1 L 55.5 7.3 L 54.6 7.3 Z M 56.5 4.7 C 56.5 3.7 56.7 3 57.3 2.6 C 57.7 2.2 58.3 2 58.9 2 C 59.6 2 60.2 2.2 60.7 2.7 C 61.1 3.1 61.3 3.8 61.3 4.6 C 61.3 5.3 61.2 5.8 61 6.2 C 60.8 6.6 60.5 6.9 60.2 7.1 C 59.8 7.3 59.4 7.4 58.9 7.4 C 58.2 7.4 57.6 7.2 57.2 6.7 C 56.7 6.2 56.5 5.6 56.5 4.7 Z M 57.4 4.7 C 57.4 5.4 57.5 5.8 57.8 6.2 C 58.1 6.5 58.5 6.7 58.9 6.7 C 59.3 6.7 59.7 6.5 60 6.2 C 60.3 5.8 60.4 5.3 60.4 4.7 C 60.4 4 60.3 3.5 60 3.2 C 59.7 2.9 59.3 2.7 58.9 2.7 C 58.5 2.7 58.1 2.9 57.8 3.2 C 57.5 3.5 57.4 4 57.4 4.7 Z M 62.4 7.3 L 62.4 2.1 L 63.2 2.1 C 63.2 2.1 63.16 2.83 63.2 2.8 C 63.5 2.3 64.1 2 64.8 2 C 65.1 2 65.4 2 65.7 2.1 C 65.9 2.3 66.1 2.4 66.3 2.6 C 66.4 2.8 66.5 3 66.5 3.2 C 66.6 3.4 66.6 3.7 66.6 4.1 C 66.58 4.09 66.6 7.3 66.6 7.3 L 65.7 7.3 C 65.7 7.3 65.7 4.13 65.7 4.1 C 65.7 3.8 65.7 3.5 65.6 3.3 C 65.5 3.1 65.4 3 65.2 2.9 C 65.1 2.8 64.9 2.7 64.6 2.7 C 64.2 2.7 63.9 2.9 63.7 3.1 C 63.4 3.3 63.2 3.8 63.2 4.4 C 63.25 4.45 63.2 7.3 63.2 7.3 L 62.4 7.3 Z M 71.7 7.3 L 70.1 2.1 L 71 2.1 L 71.8 5.1 C 71.8 5.1 72.12 6.2 72.1 6.2 C 72.1 6.1 72.2 5.8 72.4 5.1 C 72.39 5.13 73.2 2.1 73.2 2.1 L 74.1 2.1 L 74.9 5.1 L 75.2 6.1 L 75.4 5.1 L 76.3 2.1 L 77.2 2.1 L 75.6 7.3 L 74.7 7.3 L 73.8 4.2 L 73.6 3.3 L 72.6 7.3 L 71.7 7.3 Z M 77.9 1.1 L 77.9 0.1 L 78.8 0.1 L 78.8 1.1 L 77.9 1.1 Z M 77.9 7.3 L 77.9 2.1 L 78.8 2.1 L 78.8 7.3 L 77.9 7.3 Z M 81.7 6.5 C 81.8 6.5 81.9 6.5 82.1 6.5 C 82.1 6.5 82.2 7.3 82.2 7.3 C 81.9 7.3 81.7 7.3 81.5 7.3 C 81.2 7.3 81 7.3 80.8 7.2 C 80.6 7.1 80.5 7 80.4 6.8 C 80.3 6.6 80.3 6.3 80.3 5.8 C 80.31 5.76 80.3 2.8 80.3 2.8 L 79.7 2.8 L 79.7 2.1 L 80.3 2.1 L 80.3 0.8 L 81.2 0.3 L 81.2 2.1 L 82.1 2.1 L 82.1 2.8 L 81.2 2.8 C 81.2 2.8 81.19 5.81 81.2 5.8 C 81.2 6.1 81.2 6.2 81.2 6.3 C 81.3 6.4 81.3 6.4 81.4 6.5 C 81.5 6.5 81.6 6.5 81.7 6.5 C 81.7 6.5 81.7 6.5 81.7 6.5 Z M 82.9 7.3 L 82.9 0.1 L 83.8 0.1 C 83.8 0.1 83.81 2.69 83.8 2.7 C 84.2 2.2 84.7 2 85.4 2 C 85.7 2 86.1 2.1 86.4 2.2 C 86.6 2.4 86.8 2.6 87 2.8 C 87.1 3.1 87.2 3.5 87.2 4 C 87.15 3.99 87.2 7.3 87.2 7.3 L 86.3 7.3 C 86.3 7.3 86.27 3.99 86.3 4 C 86.3 3.6 86.2 3.2 86 3 C 85.8 2.8 85.5 2.7 85.2 2.7 C 84.9 2.7 84.7 2.8 84.4 2.9 C 84.2 3.1 84.1 3.3 84 3.5 C 83.9 3.7 83.8 4 83.8 4.4 C 83.81 4.44 83.8 7.3 83.8 7.3 L 82.9 7.3 Z M 92.8 6.5 C 92.9 6.5 93 6.5 93.2 6.5 C 93.2 6.5 93.3 7.3 93.3 7.3 C 93.1 7.3 92.8 7.3 92.7 7.3 C 92.3 7.3 92.1 7.3 91.9 7.2 C 91.7 7.1 91.6 7 91.5 6.8 C 91.5 6.6 91.4 6.3 91.4 5.8 C 91.43 5.76 91.4 2.8 91.4 2.8 L 90.8 2.8 L 90.8 2.1 L 91.4 2.1 L 91.4 0.8 L 92.3 0.3 L 92.3 2.1 L 93.2 2.1 L 93.2 2.8 L 92.3 2.8 C 92.3 2.8 92.3 5.81 92.3 5.8 C 92.3 6.1 92.3 6.2 92.4 6.3 C 92.4 6.4 92.4 6.4 92.5 6.5 C 92.6 6.5 92.7 6.5 92.8 6.5 C 92.8 6.5 92.8 6.5 92.8 6.5 Z M 94 7.3 L 94 0.1 L 94.9 0.1 C 94.9 0.1 94.93 2.69 94.9 2.7 C 95.3 2.2 95.9 2 96.5 2 C 96.9 2 97.2 2.1 97.5 2.2 C 97.8 2.4 98 2.6 98.1 2.8 C 98.2 3.1 98.3 3.5 98.3 4 C 98.27 3.99 98.3 7.3 98.3 7.3 L 97.4 7.3 C 97.4 7.3 97.39 3.99 97.4 4 C 97.4 3.6 97.3 3.2 97.1 3 C 96.9 2.8 96.6 2.7 96.3 2.7 C 96 2.7 95.8 2.8 95.6 2.9 C 95.3 3.1 95.2 3.3 95.1 3.5 C 95 3.7 94.9 4 94.9 4.4 C 94.93 4.44 94.9 7.3 94.9 7.3 L 94 7.3 Z M 103.2 5.6 C 103.2 5.6 104.1 5.7 104.1 5.7 C 103.9 6.3 103.7 6.7 103.3 7 C 102.9 7.3 102.4 7.4 101.8 7.4 C 101 7.4 100.4 7.2 100 6.7 C 99.5 6.2 99.3 5.6 99.3 4.7 C 99.3 3.9 99.5 3.2 100 2.7 C 100.4 2.2 101 2 101.7 2 C 102.4 2 103 2.2 103.4 2.7 C 103.9 3.2 104.1 3.8 104.1 4.7 C 104.1 4.7 104.1 4.8 104.1 4.9 C 104.1 4.9 100.2 4.9 100.2 4.9 C 100.3 5.5 100.4 5.9 100.7 6.2 C 101 6.5 101.4 6.7 101.8 6.7 C 102.1 6.7 102.4 6.6 102.6 6.4 C 102.8 6.3 103 6 103.2 5.6 Z M 100.3 4.2 C 100.3 4.2 103.2 4.2 103.2 4.2 C 103.1 3.8 103 3.4 102.8 3.2 C 102.6 2.9 102.2 2.7 101.7 2.7 C 101.3 2.7 101 2.8 100.7 3.1 C 100.5 3.4 100.3 3.7 100.3 4.2 Z M 108 7.3 L 108 0.1 L 109 0.1 L 109 6.4 L 112.5 6.4 L 112.5 7.3 L 108 7.3 Z M 117.1 7.3 C 117 7.1 116.9 6.9 116.9 6.6 C 116.6 6.9 116.3 7.1 116 7.2 C 115.7 7.3 115.3 7.4 115 7.4 C 114.4 7.4 114 7.3 113.7 7 C 113.4 6.7 113.2 6.3 113.2 5.9 C 113.2 5.7 113.3 5.4 113.4 5.2 C 113.5 5 113.7 4.8 113.8 4.7 C 114 4.6 114.2 4.5 114.5 4.4 C 114.6 4.4 114.9 4.3 115.3 4.3 C 116 4.2 116.5 4.1 116.8 4 C 116.8 3.9 116.8 3.8 116.8 3.8 C 116.8 3.4 116.7 3.1 116.6 3 C 116.4 2.8 116 2.7 115.6 2.7 C 115.2 2.7 114.9 2.8 114.7 2.9 C 114.5 3.1 114.3 3.3 114.2 3.7 C 114.2 3.7 113.4 3.6 113.4 3.6 C 113.4 3.2 113.6 2.9 113.8 2.7 C 113.9 2.5 114.2 2.3 114.5 2.2 C 114.9 2 115.3 2 115.7 2 C 116.1 2 116.5 2 116.8 2.1 C 117.1 2.2 117.3 2.4 117.4 2.5 C 117.5 2.7 117.6 2.9 117.7 3.1 C 117.7 3.3 117.7 3.5 117.7 3.9 C 117.7 3.9 117.7 5.1 117.7 5.1 C 117.7 5.9 117.7 6.4 117.8 6.7 C 117.8 6.9 117.9 7.1 118 7.3 C 117.99 7.28 117.1 7.3 117.1 7.3 C 117.1 7.3 117.07 7.28 117.1 7.3 Z M 116.8 4.7 C 116.5 4.8 116 4.9 115.4 5 C 115 5.1 114.8 5.1 114.6 5.2 C 114.5 5.3 114.4 5.3 114.3 5.5 C 114.2 5.6 114.2 5.7 114.2 5.9 C 114.2 6.1 114.2 6.3 114.4 6.5 C 114.6 6.6 114.9 6.7 115.2 6.7 C 115.5 6.7 115.8 6.6 116.1 6.5 C 116.4 6.3 116.6 6.1 116.7 5.9 C 116.8 5.7 116.8 5.4 116.8 5 C 116.8 5 116.8 4.7 116.8 4.7 Z M 120 7.3 L 118.4 2.1 L 119.4 2.1 L 120.2 5.1 C 120.2 5.1 120.48 6.2 120.5 6.2 C 120.5 6.1 120.6 5.8 120.8 5.1 C 120.75 5.13 121.6 2.1 121.6 2.1 L 122.5 2.1 L 123.3 5.1 L 123.5 6.1 L 123.8 5.1 L 124.7 2.1 L 125.6 2.1 L 123.9 7.3 L 123 7.3 L 122.2 4.2 L 122 3.3 L 120.9 7.3 L 120 7.3 Z M 128.9 3.8 C 128.9 2.6 129.2 1.7 129.9 1 C 130.5 0.3 131.3 0 132.3 0 C 133 0 133.6 0.2 134.1 0.5 C 134.6 0.8 135 1.2 135.3 1.8 C 135.6 2.4 135.7 3 135.7 3.7 C 135.7 4.4 135.6 5.1 135.3 5.7 C 135 6.2 134.6 6.7 134.1 7 C 133.5 7.3 132.9 7.4 132.3 7.4 C 131.6 7.4 131 7.2 130.5 6.9 C 130 6.6 129.6 6.1 129.3 5.6 C 129 5 128.9 4.4 128.9 3.8 Z M 129.9 3.8 C 129.9 4.7 130.1 5.4 130.6 5.8 C 131 6.3 131.6 6.6 132.3 6.6 C 133 6.6 133.6 6.3 134.1 5.8 C 134.5 5.3 134.8 4.6 134.8 3.7 C 134.8 3.1 134.7 2.6 134.5 2.2 C 134.3 1.7 134 1.4 133.6 1.2 C 133.2 0.9 132.8 0.8 132.3 0.8 C 131.7 0.8 131.1 1 130.6 1.5 C 130.1 2 129.9 2.7 129.9 3.8 Z M 139.6 7.3 L 139.6 2.8 L 137.9 2.8 L 137.9 7.3 L 137.1 7.3 L 137.1 2.8 L 136.3 2.8 L 136.3 2.1 L 137.1 2.1 C 137.1 2.1 137.07 1.59 137.1 1.6 C 137.1 1.1 137.2 0.7 137.4 0.4 C 137.6 0.1 138 0 138.4 0 C 138.8 0 139.1 0 139.3 0.1 C 139.3 0.1 139.2 0.9 139.2 0.9 C 139 0.8 138.9 0.8 138.7 0.8 C 138.4 0.8 138.2 0.9 138.1 1 C 138 1.1 137.9 1.4 137.9 1.8 C 137.94 1.76 137.9 2.1 137.9 2.1 L 139.6 2.1 C 139.6 2.1 139.6 1.59 139.6 1.6 C 139.6 1.1 139.7 0.7 139.9 0.4 C 140.2 0.1 140.5 0 141 0 C 141.3 0 141.6 0 141.9 0.1 C 141.9 0.1 141.7 0.9 141.7 0.9 C 141.6 0.8 141.4 0.8 141.3 0.8 C 141 0.8 140.8 0.9 140.6 1 C 140.5 1.1 140.5 1.4 140.5 1.8 C 140.48 1.76 140.5 2.1 140.5 2.1 L 141.5 2.1 L 141.5 2.8 L 140.5 2.8 L 140.5 7.3 L 139.6 7.3 Z M 142.2 1.1 L 142.2 0.1 L 143 0.1 L 143 1.1 L 142.2 1.1 Z M 142.2 7.3 L 142.2 2.1 L 143 2.1 L 143 7.3 L 142.2 7.3 Z M 147.8 5.4 C 147.8 5.4 148.6 5.5 148.6 5.5 C 148.5 6.1 148.3 6.6 147.9 6.9 C 147.5 7.2 147 7.4 146.5 7.4 C 145.8 7.4 145.2 7.2 144.8 6.7 C 144.3 6.2 144.1 5.6 144.1 4.7 C 144.1 4.1 144.2 3.7 144.4 3.2 C 144.6 2.8 144.9 2.5 145.2 2.3 C 145.6 2.1 146 2 146.5 2 C 147 2 147.5 2.1 147.9 2.4 C 148.2 2.7 148.4 3.1 148.5 3.6 C 148.5 3.6 147.7 3.8 147.7 3.8 C 147.6 3.4 147.5 3.1 147.3 3 C 147.1 2.8 146.8 2.7 146.5 2.7 C 146.1 2.7 145.7 2.9 145.4 3.2 C 145.2 3.5 145 4 145 4.7 C 145 5.4 145.1 5.9 145.4 6.2 C 145.7 6.5 146 6.7 146.5 6.7 C 146.8 6.7 147.1 6.6 147.3 6.4 C 147.6 6.1 147.7 5.8 147.8 5.4 Z M 152.9 5.6 C 152.9 5.6 153.8 5.7 153.8 5.7 C 153.7 6.3 153.4 6.7 153 7 C 152.7 7.3 152.2 7.4 151.6 7.4 C 150.8 7.4 150.2 7.2 149.8 6.7 C 149.3 6.2 149.1 5.6 149.1 4.7 C 149.1 3.9 149.3 3.2 149.8 2.7 C 150.2 2.2 150.8 2 151.5 2 C 152.2 2 152.8 2.2 153.2 2.7 C 153.6 3.2 153.9 3.8 153.9 4.7 C 153.9 4.7 153.9 4.8 153.9 4.9 C 153.9 4.9 150 4.9 150 4.9 C 150 5.5 150.2 5.9 150.5 6.2 C 150.8 6.5 151.1 6.7 151.6 6.7 C 151.9 6.7 152.2 6.6 152.4 6.4 C 152.6 6.3 152.8 6 152.9 5.6 Z M 150 4.2 C 150 4.2 152.9 4.2 152.9 4.2 C 152.9 3.8 152.8 3.4 152.6 3.2 C 152.3 2.9 152 2.7 151.5 2.7 C 151.1 2.7 150.8 2.8 150.5 3.1 C 150.2 3.4 150.1 3.7 150 4.2 Z M 157.4 4.7 C 157.4 3.7 157.7 3 158.2 2.6 C 158.6 2.2 159.2 2 159.8 2 C 160.5 2 161.1 2.2 161.6 2.7 C 162 3.1 162.3 3.8 162.3 4.6 C 162.3 5.3 162.2 5.8 162 6.2 C 161.8 6.6 161.5 6.9 161.1 7.1 C 160.7 7.3 160.3 7.4 159.8 7.4 C 159.1 7.4 158.5 7.2 158.1 6.7 C 157.6 6.2 157.4 5.6 157.4 4.7 Z M 158.3 4.7 C 158.3 5.4 158.4 5.8 158.7 6.2 C 159 6.5 159.4 6.7 159.8 6.7 C 160.3 6.7 160.6 6.5 160.9 6.2 C 161.2 5.8 161.3 5.3 161.3 4.7 C 161.3 4 161.2 3.5 160.9 3.2 C 160.6 2.9 160.3 2.7 159.8 2.7 C 159.4 2.7 159 2.9 158.7 3.2 C 158.4 3.5 158.3 4 158.3 4.7 Z M 163.5 7.3 L 163.5 2.8 L 162.7 2.8 L 162.7 2.1 L 163.5 2.1 C 163.5 2.1 163.49 1.54 163.5 1.5 C 163.5 1.2 163.5 0.9 163.6 0.8 C 163.7 0.5 163.8 0.4 164 0.2 C 164.2 0.1 164.5 0 164.9 0 C 165.2 0 165.4 0 165.7 0.1 C 165.7 0.1 165.6 0.9 165.6 0.9 C 165.4 0.8 165.3 0.8 165.1 0.8 C 164.8 0.8 164.6 0.9 164.5 1 C 164.4 1.1 164.4 1.3 164.4 1.6 C 164.37 1.62 164.4 2.1 164.4 2.1 L 165.4 2.1 L 165.4 2.8 L 164.4 2.8 L 164.4 7.3 L 163.5 7.3 Z M 172 2.3 C 171.8 1.7 171.5 1 170.7 1 C 169.9 1 169.6 1.5 169.6 2.1 C 169.6 2.8 170 3.1 170.8 3.6 C 171.6 4 172.6 4.4 172.6 5.5 C 172.6 6.6 171.7 7.4 170.3 7.4 C 169.9 7.4 169.6 7.3 169.4 7.3 C 169.1 7.2 169 7.1 168.9 7.1 C 168.8 6.9 168.7 6 168.6 5.5 C 168.6 5.5 168.9 5.5 168.9 5.5 C 169 6.1 169.5 7.1 170.5 7.1 C 171.3 7.1 171.7 6.6 171.7 5.9 C 171.7 5.1 171.2 4.8 170.4 4.4 C 169.8 4 168.8 3.5 168.8 2.4 C 168.8 1.4 169.5 0.6 170.8 0.6 C 171.3 0.6 171.7 0.7 172.1 0.9 C 172.1 1.2 172.2 1.6 172.3 2.2 C 172.3 2.2 172 2.3 172 2.3 Z M 176.4 7.4 C 176.2 7.4 176 7.3 175.9 7.2 C 175.8 7.1 175.7 6.9 175.7 6.8 C 175.3 7 174.8 7.4 174.5 7.4 C 173.8 7.4 173.3 6.8 173.3 6.2 C 173.3 5.7 173.6 5.4 174.1 5.2 C 174.7 5 175.4 4.7 175.7 4.5 C 175.7 4.5 175.7 4.4 175.7 4.4 C 175.7 3.6 175.3 3.2 174.8 3.2 C 174.6 3.2 174.5 3.3 174.4 3.4 C 174.2 3.6 174.2 3.8 174.1 4.1 C 174 4.3 173.9 4.3 173.8 4.3 C 173.6 4.3 173.3 4.1 173.3 3.9 C 173.3 3.7 173.5 3.6 173.7 3.5 C 173.9 3.3 174.6 2.9 175.2 2.8 C 175.5 2.8 175.8 2.9 176 3.1 C 176.3 3.3 176.4 3.8 176.4 4.3 C 176.4 4.3 176.4 6.1 176.4 6.1 C 176.4 6.6 176.6 6.7 176.8 6.7 C 176.9 6.7 177 6.7 177.1 6.6 C 177.15 6.63 177.2 6.9 177.2 6.9 C 177.2 6.9 176.4 7.4 176.4 7.4 Z M 175.7 4.9 C 175.5 5 175 5.2 174.8 5.3 C 174.4 5.5 174.2 5.7 174.2 6 C 174.2 6.6 174.6 6.8 174.9 6.8 C 175.1 6.8 175.5 6.6 175.7 6.4 C 175.7 6.4 175.7 4.9 175.7 4.9 Z M 177.5 7.3 C 177.5 7.3 177.51 7.02 177.5 7 C 178.1 7 178.2 6.9 178.2 6.2 C 178.2 6.2 178.2 1.5 178.2 1.5 C 178.2 0.8 178.2 0.8 177.5 0.8 C 177.5 0.8 177.5 0.5 177.5 0.5 C 178.1 0.5 178.7 0.3 179 0.2 C 179 0.2 179 6.2 179 6.2 C 179 6.9 179.1 7 179.7 7 C 179.74 7.02 179.7 7.3 179.7 7.3 L 177.5 7.3 Z M 185.7 7.3 C 185.7 7.3 185.72 7.02 185.7 7 C 186.3 7 186.4 6.9 186.4 6.2 C 186.4 6.2 186.4 4.5 186.4 4.5 C 186.4 3.8 186.2 3.4 185.5 3.4 C 185.2 3.4 184.8 3.6 184.4 3.9 C 184.4 4 184.4 4.1 184.4 4.3 C 184.4 4.3 184.4 6.3 184.4 6.3 C 184.4 6.9 184.5 7 185.1 7 C 185.09 7.02 185.1 7.3 185.1 7.3 L 182.9 7.3 C 182.9 7.3 182.95 7.02 182.9 7 C 183.6 7 183.7 6.9 183.7 6.3 C 183.7 6.3 183.7 4.5 183.7 4.5 C 183.7 3.8 183.4 3.4 182.8 3.4 C 182.4 3.4 182 3.6 181.7 3.9 C 181.7 3.9 181.7 6.3 181.7 6.3 C 181.7 6.9 181.8 7 182.3 7 C 182.27 7.02 182.3 7.3 182.3 7.3 L 180.2 7.3 C 180.2 7.3 180.16 7.02 180.2 7 C 180.8 7 180.9 6.9 180.9 6.3 C 180.9 6.3 180.9 4.2 180.9 4.2 C 180.9 3.5 180.9 3.5 180.3 3.4 C 180.3 3.4 180.3 3.2 180.3 3.2 C 180.7 3.1 181.2 3 181.7 2.8 C 181.7 2.8 181.7 3.6 181.7 3.6 C 181.9 3.4 182.1 3.3 182.4 3.1 C 182.7 2.9 182.9 2.8 183.2 2.8 C 183.7 2.8 184.1 3.1 184.3 3.6 C 184.6 3.4 184.9 3.2 185.2 3.1 C 185.4 2.9 185.6 2.8 185.9 2.8 C 186.7 2.8 187.2 3.3 187.2 4.3 C 187.2 4.3 187.2 6.3 187.2 6.3 C 187.2 6.9 187.3 7 187.8 7 C 187.85 7.02 187.8 7.3 187.8 7.3 L 185.7 7.3 Z M 191.5 7.4 C 191.4 7.4 191.2 7.3 191.1 7.2 C 190.9 7.1 190.9 6.9 190.8 6.8 C 190.4 7 189.9 7.4 189.6 7.4 C 188.9 7.4 188.4 6.8 188.4 6.2 C 188.4 5.7 188.7 5.4 189.2 5.2 C 189.8 5 190.6 4.7 190.8 4.5 C 190.8 4.5 190.8 4.4 190.8 4.4 C 190.8 3.6 190.5 3.2 190 3.2 C 189.8 3.2 189.6 3.3 189.5 3.4 C 189.4 3.6 189.3 3.8 189.2 4.1 C 189.2 4.3 189.1 4.3 188.9 4.3 C 188.7 4.3 188.5 4.1 188.5 3.9 C 188.5 3.7 188.6 3.6 188.8 3.5 C 189.1 3.3 189.7 2.9 190.3 2.8 C 190.6 2.8 190.9 2.9 191.1 3.1 C 191.5 3.3 191.6 3.8 191.6 4.3 C 191.6 4.3 191.6 6.1 191.6 6.1 C 191.6 6.6 191.7 6.7 191.9 6.7 C 192 6.7 192.2 6.7 192.3 6.6 C 192.28 6.63 192.4 6.9 192.4 6.9 C 192.4 6.9 191.53 7.4 191.5 7.4 Z M 190.8 4.9 C 190.6 5 190.1 5.2 189.9 5.3 C 189.5 5.5 189.3 5.7 189.3 6 C 189.3 6.6 189.7 6.8 190 6.8 C 190.3 6.8 190.6 6.6 190.8 6.4 C 190.8 6.4 190.8 4.9 190.8 4.9 Z M 195.5 7.3 C 195.5 7.3 195.5 7.02 195.5 7 C 196.1 7 196.2 6.9 196.2 6.2 C 196.2 6.2 196.2 4.5 196.2 4.5 C 196.2 3.8 195.9 3.4 195.2 3.4 C 194.8 3.4 194.5 3.6 194.2 3.9 C 194.2 3.9 194.2 6.2 194.2 6.2 C 194.2 6.9 194.2 7 194.8 7 C 194.81 7.02 194.8 7.3 194.8 7.3 L 192.6 7.3 C 192.6 7.3 192.64 7.02 192.6 7 C 193.3 7 193.4 6.9 193.4 6.2 C 193.4 6.2 193.4 4.2 193.4 4.2 C 193.4 3.5 193.3 3.5 192.8 3.4 C 192.8 3.4 192.8 3.2 192.8 3.2 C 193.2 3.1 193.7 3 194.2 2.8 C 194.2 2.8 194.2 3.6 194.2 3.6 C 194.4 3.4 194.6 3.3 194.8 3.1 C 195.1 2.9 195.4 2.8 195.7 2.8 C 196.4 2.8 196.9 3.3 196.9 4.3 C 196.9 4.3 196.9 6.2 196.9 6.2 C 196.9 6.9 197 7 197.6 7 C 197.58 7.02 197.6 7.3 197.6 7.3 L 195.5 7.3 Z M 206.1 7.3 C 206.1 7.3 206.07 7 206.1 7 C 206.9 6.9 206.9 6.9 206.9 5.8 C 206.9 5.81 206.9 1.7 206.9 1.7 L 206.8 1.7 L 204.4 7.2 L 204.2 7.2 L 202 1.9 L 201.9 1.9 C 201.9 1.9 201.79 4.72 201.8 4.7 C 201.7 5.5 201.7 6 201.8 6.4 C 201.8 6.9 202 6.9 202.7 7 C 202.68 7 202.7 7.3 202.7 7.3 L 200.3 7.3 C 200.3 7.3 200.35 7 200.3 7 C 200.9 6.9 201.1 6.8 201.2 6.4 C 201.2 6.1 201.3 5.6 201.4 4.6 C 201.4 4.6 201.5 2.5 201.5 2.5 C 201.6 1.2 201.6 1.1 200.7 1.1 C 200.66 1.06 200.7 0.8 200.7 0.8 L 202.3 0.8 L 204.6 5.8 L 206.9 0.8 L 208.6 0.8 C 208.6 0.8 208.59 1.06 208.6 1.1 C 207.7 1.1 207.6 1.2 207.7 2.2 C 207.7 2.2 207.8 5.8 207.8 5.8 C 207.8 6.9 207.8 6.9 208.7 7 C 208.7 7 208.7 7.3 208.7 7.3 L 206.1 7.3 Z M 209.6 6.8 C 209.6 6.5 209.8 6.3 210.1 6.3 C 210.5 6.3 210.7 6.5 210.7 6.8 C 210.7 7.2 210.5 7.4 210.1 7.4 C 209.8 7.4 209.6 7.2 209.6 6.8 Z M 217.8 7.3 C 217.8 7.3 217.83 7 217.8 7 C 218.5 6.9 218.5 6.8 218.4 6.5 C 218.3 6.1 218.1 5.5 217.9 4.9 C 217.9 4.9 215.7 4.9 215.7 4.9 C 215.6 5.4 215.4 5.8 215.3 6.2 C 215.1 6.8 215.2 6.9 215.9 7 C 215.92 7 215.9 7.3 215.9 7.3 L 213.7 7.3 C 213.7 7.3 213.75 7 213.7 7 C 214.4 6.9 214.5 6.9 214.9 6 C 214.87 5.97 216.9 0.7 216.9 0.7 C 216.9 0.7 217.25 0.63 217.2 0.6 C 217.9 2.4 218.5 4.3 219.2 6 C 219.5 6.9 219.6 6.9 220.3 7 C 220.28 7 220.3 7.3 220.3 7.3 L 217.8 7.3 Z M 216.8 1.9 C 216.8 1.9 216.83 1.93 216.8 1.9 C 216.5 2.8 216.2 3.7 215.9 4.5 C 215.89 4.48 217.7 4.5 217.7 4.5 L 216.8 1.9 Z M 220.6 7.3 C 220.6 7.3 220.64 7.02 220.6 7 C 221.3 7 221.4 6.9 221.4 6.2 C 221.4 6.2 221.4 1.5 221.4 1.5 C 221.4 0.8 221.3 0.8 220.7 0.8 C 220.7 0.8 220.7 0.5 220.7 0.5 C 221.2 0.5 221.8 0.3 222.1 0.2 C 222.1 0.2 222.1 6.2 222.1 6.2 C 222.1 6.9 222.2 7 222.9 7 C 222.87 7.02 222.9 7.3 222.9 7.3 L 220.6 7.3 Z M 225.9 5.3 L 223.6 5.3 L 223.7 4.8 L 226 4.8 L 225.9 5.3 Z M 230.4 2.3 C 230.2 1.7 229.9 1 229.1 1 C 228.3 1 228 1.5 228 2.1 C 228 2.8 228.4 3.1 229.2 3.6 C 230 4 231 4.4 231 5.5 C 231 6.6 230.1 7.4 228.7 7.4 C 228.3 7.4 228 7.3 227.8 7.3 C 227.5 7.2 227.4 7.1 227.3 7.1 C 227.2 6.9 227.1 6 227 5.5 C 227 5.5 227.3 5.5 227.3 5.5 C 227.4 6.1 227.9 7.1 228.9 7.1 C 229.7 7.1 230.1 6.6 230.1 5.9 C 230.1 5.1 229.6 4.8 228.8 4.4 C 228.2 4 227.2 3.5 227.2 2.4 C 227.2 1.4 227.9 0.6 229.2 0.6 C 229.7 0.6 230.1 0.7 230.5 0.9 C 230.5 1.2 230.6 1.6 230.7 2.2 C 230.7 2.2 230.4 2.3 230.4 2.3 Z M 236.4 7 C 235.9 7.1 235.4 7.2 234.9 7.4 C 234.89 7.4 234.8 7.3 234.8 7.3 C 234.8 7.3 234.83 6.63 234.8 6.6 C 234.6 6.8 234.4 7 234.1 7.2 C 233.8 7.3 233.6 7.4 233.3 7.4 C 232.6 7.4 232.1 7 232.1 5.9 C 232.1 5.9 232.1 3.9 232.1 3.9 C 232.1 3.4 232 3.4 231.5 3.2 C 231.5 3.2 231.5 3 231.5 3 C 231.9 3 232.4 2.9 232.9 2.8 C 232.9 3.2 232.9 3.6 232.9 4.3 C 232.9 4.3 232.9 5.6 232.9 5.6 C 232.9 6.5 233.3 6.8 233.7 6.8 C 234.1 6.8 234.5 6.6 234.8 6.3 C 234.8 6.3 234.8 4 234.8 4 C 234.8 3.4 234.8 3.3 234 3.2 C 234 3.2 234 3 234 3 C 234.6 3 235.1 3 235.6 2.8 C 235.6 2.8 235.6 6.2 235.6 6.2 C 235.6 6.7 235.7 6.8 236.1 6.8 C 236.08 6.77 236.4 6.8 236.4 6.8 C 236.4 6.8 236.36 7.04 236.4 7 Z M 241.7 7 C 241.4 7.1 240.7 7.2 240.1 7.4 C 240.11 7.4 240.1 6.8 240.1 6.8 C 240.1 6.8 239.5 7.11 239.5 7.1 C 239.1 7.3 238.8 7.4 238.7 7.4 C 237.9 7.4 236.9 6.7 236.9 5.3 C 236.9 3.9 238.1 2.8 239.4 2.8 C 239.6 2.8 239.9 2.8 240.1 2.9 C 240.1 2.9 240.1 1.5 240.1 1.5 C 240.1 0.8 240.1 0.8 239.3 0.7 C 239.3 0.7 239.3 0.5 239.3 0.5 C 239.9 0.4 240.5 0.3 240.9 0.2 C 240.9 0.2 240.9 6.1 240.9 6.1 C 240.9 6.7 241 6.7 241.3 6.7 C 241.34 6.74 241.7 6.8 241.7 6.8 C 241.7 6.8 241.66 7.02 241.7 7 Z M 240.1 3.7 C 239.9 3.3 239.5 3.2 239.1 3.2 C 238.6 3.2 237.8 3.5 237.8 5 C 237.8 6.2 238.5 6.8 239.1 6.8 C 239.5 6.8 239.9 6.6 240.1 6.4 C 240.1 6.4 240.1 3.7 240.1 3.7 Z M 245.3 7.4 C 245.1 7.4 244.9 7.3 244.8 7.2 C 244.7 7.1 244.6 6.9 244.6 6.8 C 244.2 7 243.7 7.4 243.4 7.4 C 242.7 7.4 242.2 6.8 242.2 6.2 C 242.2 5.7 242.4 5.4 243 5.2 C 243.6 5 244.3 4.7 244.5 4.5 C 244.5 4.5 244.5 4.4 244.5 4.4 C 244.5 3.6 244.2 3.2 243.7 3.2 C 243.5 3.2 243.4 3.3 243.3 3.4 C 243.1 3.6 243 3.8 243 4.1 C 242.9 4.3 242.8 4.3 242.7 4.3 C 242.5 4.3 242.2 4.1 242.2 3.9 C 242.2 3.7 242.4 3.6 242.5 3.5 C 242.8 3.3 243.5 2.9 244 2.8 C 244.3 2.8 244.6 2.9 244.9 3.1 C 245.2 3.3 245.3 3.8 245.3 4.3 C 245.3 4.3 245.3 6.1 245.3 6.1 C 245.3 6.6 245.5 6.7 245.7 6.7 C 245.8 6.7 245.9 6.7 246 6.6 C 246.03 6.63 246.1 6.9 246.1 6.9 C 246.1 6.9 245.28 7.4 245.3 7.4 Z M 244.5 4.9 C 244.3 5 243.9 5.2 243.6 5.3 C 243.3 5.5 243 5.7 243 6 C 243 6.6 243.4 6.8 243.7 6.8 C 244 6.8 244.4 6.6 244.5 6.4 C 244.5 6.4 244.5 4.9 244.5 4.9 Z M 246.9 1.4 C 246.9 1.1 247.2 0.9 247.5 0.9 C 247.7 0.9 248 1.1 248 1.4 C 248 1.7 247.7 1.9 247.4 1.9 C 247.2 1.9 246.9 1.7 246.9 1.4 Z M 246.4 7.3 C 246.4 7.3 246.42 7.02 246.4 7 C 247 7 247.1 6.9 247.1 6.2 C 247.1 6.2 247.1 4.2 247.1 4.2 C 247.1 3.5 247.1 3.5 246.5 3.4 C 246.5 3.4 246.5 3.2 246.5 3.2 C 247 3.1 247.5 3 247.9 2.8 C 247.9 2.8 247.9 6.2 247.9 6.2 C 247.9 6.9 248 7 248.6 7 C 248.62 7.02 248.6 7.3 248.6 7.3 L 246.4 7.3 Z M 250.6 3.8 C 250.9 3.4 251.3 2.8 251.8 2.8 C 252.2 2.8 252.4 3.1 252.4 3.3 C 252.4 3.5 252.3 3.7 252.1 3.8 C 252 3.8 251.9 3.8 251.8 3.8 C 251.7 3.6 251.5 3.5 251.4 3.5 C 251.1 3.5 250.8 3.8 250.6 4.4 C 250.6 4.4 250.6 6.2 250.6 6.2 C 250.6 6.9 250.6 7 251.4 7 C 251.41 7.02 251.4 7.3 251.4 7.3 L 249.1 7.3 C 249.1 7.3 249.11 7.02 249.1 7 C 249.7 7 249.8 6.9 249.8 6.2 C 249.8 6.2 249.8 4.2 249.8 4.2 C 249.8 3.5 249.7 3.5 249.2 3.4 C 249.2 3.4 249.2 3.2 249.2 3.2 C 249.7 3.1 250.1 3 250.6 2.8 C 250.59 2.76 250.6 3.8 250.6 3.8 C 250.6 3.8 250.61 3.85 250.6 3.8 Z M 253.4 1.4 C 253.4 1.1 253.6 0.9 253.9 0.9 C 254.2 0.9 254.4 1.1 254.4 1.4 C 254.4 1.7 254.2 1.9 253.9 1.9 C 253.6 1.9 253.4 1.7 253.4 1.4 Z M 252.9 7.3 C 252.9 7.3 252.87 7.02 252.9 7 C 253.5 7 253.6 6.9 253.6 6.2 C 253.6 6.2 253.6 4.2 253.6 4.2 C 253.6 3.5 253.5 3.5 252.9 3.4 C 252.9 3.4 252.9 3.2 252.9 3.2 C 253.4 3.1 253.9 3 254.4 2.8 C 254.4 2.8 254.4 6.2 254.4 6.2 C 254.4 6.9 254.4 7 255.1 7 C 255.07 7.02 255.1 7.3 255.1 7.3 L 252.9 7.3 Z " stroke="none" fill="#ffffff"/>
  </g>
</svg>