<?xml version="1.0" standalone="no"?><!DOCTYPE svg PUBLIC "-//W3C//DTD SVG 1.1//EN" "http://www.w3.org/Graphics/SVG/1.1/DTD/svg11.dtd"><svg xmlns="http://www.w3.org/2000/svg" version="1.1" width="143px" height="32.6px" viewBox="0 -4 143 32.6" style="top:-4px"><desc>Debt for Nature Swap</desc><defs/><g id="Polygon65649"><path d="m1 9.3l0-9.1c0 0 3.13-.04 3.1 0c.7 0 1.3 0 1.7.1c.5.1.9.3 1.3.6c.5.4.8 1 1.1 1.6c.2.6.3 1.4.3 2.2c0 .7-.1 1.3-.2 1.8c-.2.5-.4 1-.6 1.3c-.3.4-.6.7-.9.9c-.3.2-.6.3-1.1.4c-.4.1-.9.2-1.4.2c-.02-.02-3.3 0-3.3 0zm1.2-1.1c0 0 1.94.01 1.9 0c.6 0 1.1-.1 1.5-.2c.3-.1.6-.2.8-.4c.3-.3.5-.7.6-1.2c.2-.5.3-1.1.3-1.7c0-1-.2-1.7-.5-2.3c-.3-.5-.7-.8-1.1-1c-.4-.1-.9-.2-1.6-.2c.01.03-1.9 0-1.9 0l0 7zm12.4-1c0 0 1.1.1 1.1.1c-.2.7-.5 1.2-1 1.6c-.5.3-1.1.5-1.9.5c-1 0-1.7-.3-2.3-.9c-.6-.6-.8-1.4-.8-2.5c0-1.1.2-1.9.8-2.6c.6-.6 1.3-.9 2.2-.9c.9 0 1.6.3 2.2.9c.6.6.8 1.5.8 2.6c0 0 0 .1 0 .3c0 0-4.9 0-4.9 0c.1.7.3 1.2.6 1.6c.4.4.9.6 1.4.6c.4 0 .8-.1 1.1-.3c.3-.2.5-.6.7-1zm-3.7-1.9c0 0 3.7 0 3.7 0c-.1-.5-.2-.9-.5-1.2c-.3-.4-.8-.7-1.3-.7c-.6 0-1 .2-1.3.6c-.4.3-.6.8-.6 1.3zm7.2 4l-1.1 0l0-9.1l1.1 0c0 0 .04 3.21 0 3.2c.5-.6 1.1-.9 1.9-.9c.4 0 .7.1 1.1.3c.4.1.7.4.9.7c.2.3.4.6.6 1c.1.5.2.9.2 1.4c0 1.1-.3 2-.9 2.6c-.5.6-1.2.9-2 .9c-.8 0-1.4-.3-1.8-.9c-.04-.05 0 .8 0 .8zm-.1-3.4c0 .8.2 1.4.4 1.7c.3.6.8.9 1.4.9c.5 0 .9-.2 1.3-.6c.3-.5.5-1.1.5-1.9c0-.9-.2-1.5-.5-1.9c-.3-.5-.8-.7-1.2-.7c-.5 0-1 .3-1.3.7c-.4.4-.6 1-.6 1.8zm7.9 2.4c.1 0 .2 0 .5 0c0 0 .1 1 .1 1c-.3 0-.6.1-.8.1c-.4 0-.8-.1-1-.2c-.2-.2-.4-.3-.5-.5c0-.2-.1-.7-.1-1.4c.01.05 0-3.8 0-3.8l-.8 0l0-.8l.8 0l0-1.7l1.1-.6l0 2.3l1.2 0l0 .8l-1.2 0c0 0 .03 3.91 0 3.9c0 .3 0 .5.1.6c0 .1.1.2.2.2c.1.1.2.1.4.1c0 0 0 0 0 0zm5.4 1l0-5.8l-1 0l0-.8l1 0c0 0-.04-.73 0-.7c0-.5 0-.8.1-1c.1-.3.3-.5.5-.7c.3-.2.7-.3 1.2-.3c.3 0 .7 0 1 .1c0 0-.1 1-.1 1c-.3-.1-.5-.1-.7-.1c-.3 0-.6.1-.7.2c-.2.2-.2.5-.2.9c-.03-.04 0 .6 0 .6l1.3 0l0 .8l-1.3 0l0 5.8l-1.1 0zm2.7-3.3c0-1.2.3-2.2 1-2.7c.6-.5 1.3-.8 2.1-.8c.9 0 1.7.3 2.2.9c.6.6.9 1.4.9 2.5c0 .8-.1 1.5-.4 2c-.2.5-.6.9-1.1 1.1c-.5.3-1 .4-1.6.4c-.9 0-1.7-.3-2.2-.9c-.6-.6-.9-1.4-.9-2.5zm1.2 0c0 .8.1 1.5.5 1.9c.4.4.8.6 1.4.6c.6 0 1-.2 1.4-.6c.4-.4.5-1.1.5-2c0-.8-.1-1.4-.5-1.8c-.4-.4-.8-.7-1.4-.7c-.6 0-1 .3-1.4.7c-.4.4-.5 1-.5 1.9zm6.2 3.3l0-6.6l1.1 0c0 0-.05.97 0 1c.2-.5.4-.8.7-1c.2-.1.4-.2.7-.2c.4 0 .7.1 1.1.4c0 0-.3 1-.3 1c-.3-.1-.6-.2-.9-.2c-.2 0-.4.1-.6.2c-.2.1-.4.4-.4.6c-.2.4-.2.8-.2 1.3c-.03.02 0 3.5 0 3.5l-1.2 0zm8 0l0-9.1l1.2 0l4.8 7.1l0-7.1l1.2 0l0 9.1l-1.3 0l-4.8-7.2l0 7.2l-1.1 0zm13.6 0c-.2-.3-.2-.5-.3-.8c-.4.3-.8.6-1.2.7c-.3.2-.8.2-1.2.2c-.7 0-1.3-.1-1.7-.5c-.4-.4-.6-.8-.6-1.4c0-.3.1-.6.3-.8c.1-.3.3-.5.5-.7c.3-.2.6-.3.9-.4c.2 0 .5-.1.9-.1c1-.1 1.6-.3 2-.4c0-.2.1-.3.1-.3c0-.5-.2-.8-.4-1c-.3-.2-.7-.4-1.2-.4c-.6 0-1 .1-1.2.3c-.3.2-.4.5-.6 1c0 0-1.1-.1-1.1-.1c.1-.5.3-.9.5-1.2c.3-.3.6-.5 1-.6c.5-.2 1-.3 1.5-.3c.6 0 1 .1 1.4.2c.3.2.6.3.8.5c.1.2.3.5.3.8c.1.2.1.5.1 1c0 0 0 1.5 0 1.5c0 1.1 0 1.7.1 2c0 .3.1.5.2.8c.03-.02-1.1 0-1.1 0c0 0-.04-.02 0 0zm-.4-3.3c-.4.1-1 .3-1.8.4c-.4.1-.8.1-1 .2c-.2.1-.3.2-.4.4c-.1.1-.2.3-.2.5c0 .3.2.6.4.8c.2.2.5.3 1 .3c.4 0 .8-.1 1.1-.3c.4-.2.6-.5.8-.8c.1-.3.1-.6.1-1.1c0 0 0-.4 0-.4zm4.7 2.3c.1 0 .3 0 .5 0c0 0 .1 1 .1 1c-.3 0-.6.1-.8.1c-.4 0-.7-.1-1-.2c-.2-.2-.3-.3-.4-.5c-.1-.2-.2-.7-.2-1.4c.04.05 0-3.8 0-3.8l-.8 0l0-.8l.8 0l0-1.7l1.2-.6l0 2.3l1.1 0l0 .8l-1.1 0c0 0-.05 3.91 0 3.9c0 .3 0 .5 0 .6c0 .1.1.2.2.2c.1.1.2.1.4.1c0 0 0 0 0 0zm5.8 1c0 0 0-.99 0-1c-.5.8-1.2 1.1-2.1 1.1c-.4 0-.8 0-1.1-.2c-.3-.1-.6-.3-.7-.6c-.2-.2-.3-.5-.4-.8c0-.2-.1-.6-.1-1c.04-.03 0-4.1 0-4.1l1.2 0c0 0-.04 3.64 0 3.6c0 .6 0 1 0 1.2c.1.3.2.5.5.7c.2.2.5.3.8.3c.4 0 .7-.1 1-.3c.3-.2.5-.4.6-.7c.1-.3.2-.7.2-1.3c-.02.01 0-3.5 0-3.5l1.1 0l0 6.6l-1 0zm2.6 0l0-6.6l1 0c0 0 .02.97 0 1c.3-.5.5-.8.7-1c.3-.1.5-.2.8-.2c.3 0 .7.1 1.1.4c0 0-.4 1-.4 1c-.3-.1-.5-.2-.8-.2c-.2 0-.5.1-.7.2c-.2.1-.3.4-.4.6c-.1.4-.2.8-.2 1.3c.03.02 0 3.5 0 3.5l-1.1 0zm8.7-2.1c0 0 1.2.1 1.2.1c-.2.7-.6 1.2-1.1 1.6c-.5.3-1.1.5-1.9.5c-.9 0-1.7-.3-2.3-.9c-.5-.6-.8-1.4-.8-2.5c0-1.1.3-1.9.9-2.6c.5-.6 1.3-.9 2.2-.9c.9 0 1.6.3 2.1.9c.6.6.9 1.5.9 2.6c0 0 0 .1 0 .3c0 0-4.9 0-4.9 0c0 .7.2 1.2.6 1.6c.3.4.8.6 1.4.6c.4 0 .7-.1 1-.3c.3-.2.5-.6.7-1zm-3.7-1.9c0 0 3.7 0 3.7 0c0-.5-.2-.9-.4-1.2c-.4-.4-.8-.7-1.4-.7c-.5 0-1 .2-1.3.6c-.4.3-.5.8-.6 1.3zm9.5 1.1c0 0 1.2-.1 1.2-.1c0 .4.2.8.3 1.1c.2.3.6.5 1 .7c.4.2.8.3 1.4.3c.4 0 .8-.1 1.2-.3c.3-.1.6-.3.8-.5c.1-.3.2-.5.2-.8c0-.3 0-.5-.2-.7c-.2-.3-.5-.4-.8-.6c-.3-.1-.8-.2-1.7-.4c-.8-.2-1.4-.4-1.7-.6c-.5-.2-.8-.5-1-.8c-.2-.4-.3-.8-.3-1.2c0-.4.1-.9.4-1.3c.2-.4.6-.7 1.1-.9c.5-.2 1.1-.3 1.7-.3c.7 0 1.3.1 1.8.3c.5.2.9.6 1.2 1c.3.4.4.9.4 1.4c0 0-1.1.1-1.1.1c-.1-.6-.3-1-.7-1.3c-.3-.3-.9-.4-1.6-.4c-.7 0-1.2.1-1.6.4c-.3.2-.5.6-.5.9c0 .4.2.6.4.8c.2.3.8.5 1.8.7c1 .2 1.7.4 2 .6c.6.2 1 .5 1.2.9c.3.4.4.8.4 1.3c0 .5-.1.9-.4 1.4c-.3.4-.7.7-1.2 1c-.5.2-1.1.3-1.8.3c-.8 0-1.5-.1-2.1-.3c-.5-.3-.9-.6-1.3-1.1c-.3-.5-.5-1-.5-1.6zm10 2.9l-2-6.6l1.2 0l1 3.8c0 0 .42 1.41.4 1.4c0-.1.2-.5.4-1.4c-.04.04 1-3.8 1-3.8l1.2 0l1 3.8l.3 1.3l.4-1.3l1.1-3.8l1.1 0l-2.1 6.6l-1.1 0l-1.1-4l-.2-1.1l-1.4 5.1l-1.2 0zm12.4 0c-.1-.3-.2-.5-.3-.8c-.4.3-.8.6-1.2.7c-.3.2-.7.2-1.2.2c-.7 0-1.3-.1-1.7-.5c-.4-.4-.5-.8-.5-1.4c0-.3 0-.6.2-.8c.1-.3.3-.5.6-.7c.2-.2.5-.3.8-.4c.2 0 .5-.1 1-.1c.9-.1 1.5-.3 2-.4c0-.2 0-.3 0-.3c0-.5-.1-.8-.4-1c-.2-.2-.7-.4-1.2-.4c-.6 0-1 .1-1.2.3c-.3.2-.4.5-.6 1c0 0-1.1-.1-1.1-.1c.1-.5.3-.9.5-1.2c.3-.3.6-.5 1-.6c.5-.2 1-.3 1.5-.3c.6 0 1 .1 1.4.2c.4.2.6.3.8.5c.1.2.3.5.3.8c.1.2.1.5.1 1c0 0 0 1.5 0 1.5c0 1.1 0 1.7.1 2c0 .3.1.5.2.8c.04-.02-1.1 0-1.1 0c0 0-.03-.02 0 0zm-.3-3.3c-.5.1-1.1.3-1.9.4c-.4.1-.8.1-1 .2c-.1.1-.3.2-.4.4c-.1.1-.2.3-.2.5c0 .3.2.6.4.8c.2.2.5.3 1 .3c.4 0 .8-.1 1.1-.3c.4-.2.6-.5.8-.8c.1-.3.2-.6.2-1.1c0 0 0-.4 0-.4zm2.7 5.8l0-9.1l1 0c0 0 .03.83 0 .8c.3-.3.5-.6.8-.7c.3-.2.7-.3 1.1-.3c.6 0 1.1.2 1.5.5c.5.2.8.7 1 1.2c.2.5.3 1.1.3 1.7c0 .7-.1 1.3-.3 1.9c-.3.5-.6.9-1.1 1.2c-.4.3-.9.4-1.4.4c-.4 0-.7 0-1-.2c-.3-.2-.6-.4-.8-.6c.03 0 0 3.2 0 3.2l-1.1 0zm1-5.8c0 .9.2 1.5.5 1.9c.4.4.8.6 1.3.6c.5 0 .9-.2 1.3-.6c.3-.4.5-1.1.5-2c0-.8-.2-1.5-.5-1.9c-.4-.4-.8-.6-1.3-.6c-.4 0-.9.2-1.2.7c-.4.4-.6 1.1-.6 1.9z" stroke="none" fill="#ffffff"/></g></svg>