<?xml version="1.0" standalone="no"?>
<!DOCTYPE svg PUBLIC "-//W3C//DTD SVG 1.1//EN" "http://www.w3.org/Graphics/SVG/1.1/DTD/svg11.dtd">
<svg xmlns="http://www.w3.org/2000/svg" version="1.1" width="135px" height="52.3px" viewBox="0 -5 135 52.3" style="top:-5px">
  <desc>RECYCLE Glass, metal &amp; plastic</desc>
  <defs/>
  <g id="Polygon64671">
    <path d="M 1.1 24 L 1.1 15.1 L 2.9 15.1 C 2.9 15.1 5.03 21.43 5 21.4 C 5.2 22 5.4 22.5 5.5 22.8 C 5.6 22.4 5.7 22 5.9 21.3 C 5.94 21.32 8.1 15.1 8.1 15.1 L 9.7 15.1 L 9.7 24 L 8.5 24 L 8.5 16.6 L 5.9 24 L 4.9 24 L 2.3 16.4 L 2.3 24 L 1.1 24 Z M 12 24 L 12 15.1 L 18.5 15.1 L 18.5 16.2 L 13.2 16.2 L 13.2 18.9 L 18.1 18.9 L 18.1 19.9 L 13.2 19.9 L 13.2 23 L 18.7 23 L 18.7 24 L 12 24 Z M 23 24 L 23 16.2 L 20.1 16.2 L 20.1 15.1 L 27.2 15.1 L 27.2 16.2 L 24.2 16.2 L 24.2 24 L 23 24 Z M 26.9 24 L 30.3 15.1 L 31.6 15.1 L 35.3 24 L 33.9 24 L 32.9 21.3 L 29.1 21.3 L 28.2 24 L 26.9 24 Z M 29.5 20.4 L 32.5 20.4 C 32.5 20.4 31.58 17.9 31.6 17.9 C 31.3 17.2 31.1 16.5 30.9 16.1 C 30.8 16.6 30.7 17.2 30.5 17.8 C 30.46 17.76 29.5 20.4 29.5 20.4 Z M 36.6 24 L 36.6 15.1 L 37.8 15.1 L 37.8 23 L 42.2 23 L 42.2 24 L 36.6 24 Z M 53.1 24.2 C 52.7 24 52.2 23.5 51.8 23 C 51.4 23.4 51 23.7 50.6 23.9 C 50.2 24.1 49.7 24.2 49.2 24.2 C 48.3 24.2 47.6 23.9 47 23.3 C 46.6 22.8 46.4 22.2 46.4 21.6 C 46.4 21 46.5 20.5 46.9 20.1 C 47.3 19.6 47.8 19.3 48.5 18.9 C 48.1 18.5 47.8 18.1 47.7 17.8 C 47.6 17.5 47.5 17.2 47.5 17 C 47.5 16.4 47.7 16 48.1 15.6 C 48.5 15.2 49.1 15 49.7 15 C 50.3 15 50.8 15.1 51.2 15.5 C 51.6 15.9 51.8 16.3 51.8 16.9 C 51.8 17.7 51.2 18.4 50.1 19 C 50.1 19 51.7 21.1 51.7 21.1 C 51.9 20.7 52 20.3 52.1 19.8 C 52.1 19.8 53.3 20.1 53.3 20.1 C 53.1 20.9 52.8 21.5 52.5 22 C 52.9 22.5 53.3 23 53.9 23.4 C 53.87 23.38 53.1 24.2 53.1 24.2 C 53.1 24.2 53.13 24.25 53.1 24.2 Z M 49.5 18.3 C 50 18.1 50.3 17.8 50.5 17.6 C 50.6 17.4 50.7 17.2 50.7 16.9 C 50.7 16.6 50.6 16.3 50.4 16.2 C 50.2 16 49.9 15.9 49.7 15.9 C 49.4 15.9 49.1 16 48.9 16.1 C 48.7 16.3 48.6 16.6 48.6 16.8 C 48.6 17 48.7 17.1 48.7 17.3 C 48.8 17.4 48.9 17.6 49 17.8 C 49 17.8 49.5 18.3 49.5 18.3 Z M 51.1 22.1 C 51.1 22.1 49.1 19.6 49.1 19.6 C 48.5 20 48.1 20.3 47.9 20.6 C 47.7 20.9 47.6 21.2 47.6 21.5 C 47.6 21.9 47.7 22.2 48 22.6 C 48.3 23 48.7 23.2 49.2 23.2 C 49.5 23.2 49.9 23.1 50.2 22.9 C 50.6 22.7 50.9 22.4 51.1 22.1 Z M 58.8 24 L 58.8 15.1 C 58.8 15.1 62.16 15.11 62.2 15.1 C 62.8 15.1 63.2 15.1 63.5 15.2 C 64 15.3 64.3 15.4 64.6 15.6 C 64.9 15.8 65.2 16.1 65.3 16.5 C 65.5 16.8 65.6 17.3 65.6 17.7 C 65.6 18.5 65.4 19.1 64.9 19.6 C 64.4 20.1 63.5 20.4 62.3 20.4 C 62.27 20.41 60 20.4 60 20.4 L 60 24 L 58.8 24 Z M 60 19.4 C 60 19.4 62.29 19.36 62.3 19.4 C 63 19.4 63.6 19.2 63.9 18.9 C 64.2 18.6 64.4 18.2 64.4 17.7 C 64.4 17.4 64.3 17 64.1 16.8 C 63.9 16.5 63.7 16.3 63.4 16.2 C 63.2 16.2 62.8 16.2 62.3 16.2 C 62.26 16.17 60 16.2 60 16.2 L 60 19.4 Z M 67.5 24 L 67.5 15.1 L 68.7 15.1 L 68.7 23 L 73.1 23 L 73.1 24 L 67.5 24 Z M 73.9 24 L 77.4 15.1 L 78.6 15.1 L 82.3 24 L 81 24 L 79.9 21.3 L 76.2 21.3 L 75.2 24 L 73.9 24 Z M 76.5 20.4 L 79.5 20.4 C 79.5 20.4 78.61 17.9 78.6 17.9 C 78.3 17.2 78.1 16.5 78 16.1 C 77.9 16.6 77.7 17.2 77.5 17.8 C 77.5 17.76 76.5 20.4 76.5 20.4 Z M 83.3 21.2 C 83.3 21.2 84.4 21.1 84.4 21.1 C 84.4 21.5 84.6 21.9 84.8 22.2 C 85 22.5 85.3 22.7 85.7 22.9 C 86.1 23 86.5 23.1 87 23.1 C 87.5 23.1 87.9 23.1 88.2 22.9 C 88.6 22.8 88.8 22.6 89 22.4 C 89.2 22.1 89.2 21.9 89.2 21.6 C 89.2 21.3 89.2 21.1 89 20.9 C 88.8 20.7 88.6 20.5 88.2 20.4 C 88 20.3 87.4 20.1 86.6 19.9 C 85.8 19.7 85.2 19.5 84.9 19.4 C 84.5 19.1 84.1 18.9 83.9 18.5 C 83.7 18.2 83.6 17.8 83.6 17.4 C 83.6 17 83.7 16.5 84 16.2 C 84.3 15.8 84.6 15.5 85.1 15.3 C 85.6 15.1 86.2 15 86.8 15 C 87.4 15 88 15.1 88.5 15.3 C 89 15.5 89.4 15.8 89.7 16.2 C 89.9 16.6 90.1 17.1 90.1 17.6 C 90.1 17.6 89 17.7 89 17.7 C 88.9 17.1 88.7 16.7 88.4 16.4 C 88 16.1 87.5 16 86.8 16 C 86.1 16 85.6 16.1 85.2 16.4 C 84.9 16.7 84.8 17 84.8 17.3 C 84.8 17.7 84.9 17.9 85.1 18.1 C 85.3 18.3 85.9 18.6 86.9 18.8 C 87.8 19 88.5 19.2 88.9 19.3 C 89.4 19.6 89.8 19.9 90 20.2 C 90.3 20.6 90.4 21 90.4 21.5 C 90.4 22 90.2 22.4 90 22.9 C 89.7 23.3 89.3 23.6 88.8 23.8 C 88.3 24.1 87.7 24.2 87.1 24.2 C 86.3 24.2 85.6 24.1 85.1 23.8 C 84.5 23.6 84.1 23.2 83.8 22.8 C 83.5 22.3 83.3 21.8 83.3 21.2 Z M 94.7 24 L 94.7 16.2 L 91.8 16.2 L 91.8 15.1 L 98.8 15.1 L 98.8 16.2 L 95.9 16.2 L 95.9 24 L 94.7 24 Z M 100.7 24 L 100.7 15.1 L 101.9 15.1 L 101.9 24 L 100.7 24 Z M 110.8 20.9 C 110.8 20.9 111.9 21.2 111.9 21.2 C 111.7 22.2 111.2 22.9 110.6 23.4 C 110 23.9 109.2 24.2 108.2 24.2 C 107.3 24.2 106.5 24 105.9 23.6 C 105.3 23.2 104.8 22.6 104.5 21.9 C 104.2 21.2 104.1 20.4 104.1 19.5 C 104.1 18.6 104.2 17.8 104.6 17.1 C 104.9 16.4 105.4 15.9 106.1 15.5 C 106.8 15.1 107.5 15 108.3 15 C 109.2 15 109.9 15.2 110.5 15.6 C 111.1 16.1 111.5 16.7 111.8 17.6 C 111.8 17.6 110.6 17.8 110.6 17.8 C 110.4 17.2 110.1 16.7 109.7 16.4 C 109.3 16.1 108.8 16 108.2 16 C 107.6 16 107 16.1 106.5 16.5 C 106.1 16.8 105.7 17.2 105.5 17.8 C 105.4 18.3 105.3 18.9 105.3 19.5 C 105.3 20.3 105.4 20.9 105.6 21.5 C 105.8 22.1 106.2 22.5 106.6 22.8 C 107.1 23 107.6 23.2 108.1 23.2 C 108.8 23.2 109.4 23 109.8 22.6 C 110.3 22.2 110.6 21.7 110.8 20.9 Z " stroke="none" fill="#ffffff"/>
  </g>
  <g id="Polygon64670">
    <path d="M 1.2 9.1 L 1.2 0.2 C 1.2 0.2 5.16 0.15 5.2 0.2 C 6 0.2 6.6 0.2 7 0.4 C 7.4 0.6 7.7 0.8 8 1.2 C 8.2 1.6 8.3 2.1 8.3 2.6 C 8.3 3.2 8.1 3.8 7.7 4.2 C 7.3 4.6 6.7 4.9 5.8 5 C 6.1 5.2 6.4 5.3 6.5 5.5 C 6.9 5.8 7.2 6.2 7.5 6.6 C 7.51 6.65 9.1 9.1 9.1 9.1 L 7.6 9.1 C 7.6 9.1 6.4 7.22 6.4 7.2 C 6.1 6.7 5.8 6.3 5.5 6 C 5.3 5.7 5.1 5.5 4.9 5.4 C 4.8 5.3 4.6 5.2 4.4 5.2 C 4.3 5.1 4.1 5.1 3.8 5.1 C 3.75 5.11 2.4 5.1 2.4 5.1 L 2.4 9.1 L 1.2 9.1 Z M 2.4 4.1 C 2.4 4.1 4.92 4.09 4.9 4.1 C 5.5 4.1 5.9 4 6.2 3.9 C 6.5 3.8 6.7 3.6 6.9 3.4 C 7 3.1 7.1 2.9 7.1 2.6 C 7.1 2.2 7 1.8 6.7 1.5 C 6.4 1.3 5.9 1.1 5.2 1.1 C 5.21 1.14 2.4 1.1 2.4 1.1 L 2.4 4.1 Z M 10.6 9.1 L 10.6 0.2 L 17.1 0.2 L 17.1 1.2 L 11.8 1.2 L 11.8 3.9 L 16.8 3.9 L 16.8 5 L 11.8 5 L 11.8 8 L 17.3 8 L 17.3 9.1 L 10.6 9.1 Z M 25.7 5.9 C 25.7 5.9 26.9 6.2 26.9 6.2 C 26.7 7.2 26.2 8 25.6 8.5 C 24.9 9 24.2 9.2 23.2 9.2 C 22.3 9.2 21.5 9 20.9 8.6 C 20.3 8.3 19.8 7.7 19.5 6.9 C 19.2 6.2 19 5.4 19 4.5 C 19 3.6 19.2 2.8 19.6 2.1 C 19.9 1.4 20.4 0.9 21.1 0.5 C 21.7 0.2 22.5 0 23.3 0 C 24.1 0 24.9 0.2 25.5 0.7 C 26.1 1.1 26.5 1.8 26.8 2.6 C 26.8 2.6 25.6 2.9 25.6 2.9 C 25.4 2.2 25.1 1.8 24.7 1.5 C 24.3 1.2 23.8 1 23.2 1 C 22.5 1 22 1.2 21.5 1.5 C 21 1.8 20.7 2.3 20.5 2.8 C 20.3 3.4 20.3 4 20.3 4.5 C 20.3 5.3 20.4 6 20.6 6.5 C 20.8 7.1 21.2 7.5 21.6 7.8 C 22.1 8.1 22.6 8.2 23.1 8.2 C 23.8 8.2 24.4 8 24.8 7.6 C 25.3 7.3 25.6 6.7 25.7 5.9 Z M 31.3 9.1 L 31.3 5.3 L 27.9 0.2 L 29.3 0.2 C 29.3 0.2 31.09 2.84 31.1 2.8 C 31.4 3.3 31.7 3.8 32 4.4 C 32.3 3.9 32.6 3.4 33 2.8 C 32.97 2.78 34.7 0.2 34.7 0.2 L 36.1 0.2 L 32.5 5.3 L 32.5 9.1 L 31.3 9.1 Z M 43.9 5.9 C 43.9 5.9 45.1 6.2 45.1 6.2 C 44.9 7.2 44.4 8 43.8 8.5 C 43.1 9 42.4 9.2 41.4 9.2 C 40.5 9.2 39.7 9 39.1 8.6 C 38.5 8.3 38 7.7 37.7 6.9 C 37.4 6.2 37.2 5.4 37.2 4.5 C 37.2 3.6 37.4 2.8 37.8 2.1 C 38.1 1.4 38.6 0.9 39.3 0.5 C 39.9 0.2 40.7 0 41.4 0 C 42.3 0 43.1 0.2 43.7 0.7 C 44.3 1.1 44.7 1.8 45 2.6 C 45 2.6 43.8 2.9 43.8 2.9 C 43.6 2.2 43.3 1.8 42.9 1.5 C 42.5 1.2 42 1 41.4 1 C 40.7 1 40.2 1.2 39.7 1.5 C 39.2 1.8 38.9 2.3 38.7 2.8 C 38.5 3.4 38.5 4 38.5 4.5 C 38.5 5.3 38.6 6 38.8 6.5 C 39 7.1 39.3 7.5 39.8 7.8 C 40.3 8.1 40.8 8.2 41.3 8.2 C 42 8.2 42.6 8 43 7.6 C 43.5 7.3 43.8 6.7 43.9 5.9 Z M 47 9.1 L 47 0.2 L 48.2 0.2 L 48.2 8 L 52.5 8 L 52.5 9.1 L 47 9.1 Z M 54.4 9.1 L 54.4 0.2 L 60.9 0.2 L 60.9 1.2 L 55.6 1.2 L 55.6 3.9 L 60.5 3.9 L 60.5 5 L 55.6 5 L 55.6 8 L 61.1 8 L 61.1 9.1 L 54.4 9.1 Z M 70.8 5.6 L 70.8 4.5 L 74.6 4.5 C 74.6 4.5 74.57 7.84 74.6 7.8 C 74 8.3 73.4 8.6 72.8 8.9 C 72.2 9.1 71.5 9.2 70.9 9.2 C 70 9.2 69.2 9 68.5 8.7 C 67.8 8.3 67.2 7.7 66.9 7 C 66.5 6.3 66.3 5.5 66.3 4.7 C 66.3 3.8 66.5 3 66.9 2.2 C 67.2 1.5 67.7 0.9 68.4 0.5 C 69.1 0.2 69.9 0 70.8 0 C 71.4 0 72 0.1 72.5 0.3 C 73.1 0.5 73.5 0.8 73.8 1.2 C 74.1 1.6 74.3 2 74.4 2.6 C 74.4 2.6 73.4 2.9 73.4 2.9 C 73.2 2.5 73.1 2.1 72.9 1.9 C 72.7 1.6 72.4 1.4 72 1.2 C 71.6 1.1 71.2 1 70.8 1 C 70.2 1 69.8 1.1 69.4 1.3 C 69 1.4 68.7 1.6 68.4 1.9 C 68.2 2.2 68 2.5 67.9 2.8 C 67.6 3.3 67.5 3.9 67.5 4.6 C 67.5 5.4 67.7 6 67.9 6.6 C 68.2 7.1 68.6 7.5 69.1 7.8 C 69.7 8 70.2 8.2 70.8 8.2 C 71.3 8.2 71.8 8.1 72.3 7.9 C 72.8 7.7 73.2 7.5 73.4 7.2 C 73.41 7.24 73.4 5.6 73.4 5.6 L 70.8 5.6 Z M 76.7 9.1 L 76.7 0.2 L 77.9 0.2 L 77.9 8 L 82.3 8 L 82.3 9.1 L 76.7 9.1 Z M 83.1 9.1 L 86.6 0.2 L 87.8 0.2 L 91.5 9.1 L 90.1 9.1 L 89.1 6.4 L 85.4 6.4 L 84.4 9.1 L 83.1 9.1 Z M 85.7 5.4 L 88.7 5.4 C 88.7 5.4 87.81 2.94 87.8 2.9 C 87.5 2.2 87.3 1.6 87.2 1.1 C 87.1 1.7 86.9 2.2 86.7 2.8 C 86.69 2.79 85.7 5.4 85.7 5.4 Z M 92.5 6.2 C 92.5 6.2 93.6 6.1 93.6 6.1 C 93.6 6.6 93.8 6.9 94 7.2 C 94.1 7.5 94.4 7.7 94.9 7.9 C 95.3 8.1 95.7 8.2 96.2 8.2 C 96.7 8.2 97.1 8.1 97.4 8 C 97.8 7.8 98 7.7 98.2 7.4 C 98.4 7.2 98.4 6.9 98.4 6.7 C 98.4 6.4 98.4 6.1 98.2 5.9 C 98 5.7 97.8 5.5 97.4 5.4 C 97.2 5.3 96.6 5.2 95.8 5 C 95 4.8 94.4 4.6 94.1 4.4 C 93.7 4.2 93.3 3.9 93.1 3.6 C 92.9 3.2 92.8 2.9 92.8 2.5 C 92.8 2 92.9 1.6 93.2 1.2 C 93.5 0.8 93.8 0.5 94.3 0.3 C 94.8 0.1 95.4 0 96 0 C 96.6 0 97.2 0.1 97.7 0.3 C 98.2 0.5 98.6 0.8 98.9 1.3 C 99.1 1.7 99.3 2.1 99.3 2.7 C 99.3 2.7 98.2 2.8 98.2 2.8 C 98.1 2.2 97.9 1.8 97.6 1.5 C 97.2 1.2 96.7 1 96 1 C 95.3 1 94.8 1.2 94.4 1.4 C 94.1 1.7 94 2 94 2.4 C 94 2.7 94.1 3 94.3 3.2 C 94.5 3.4 95.1 3.6 96.1 3.8 C 97 4 97.7 4.2 98.1 4.4 C 98.6 4.6 99 4.9 99.2 5.3 C 99.5 5.7 99.6 6.1 99.6 6.6 C 99.6 7 99.4 7.5 99.2 7.9 C 98.9 8.3 98.5 8.6 98 8.9 C 97.5 9.1 96.9 9.2 96.3 9.2 C 95.5 9.2 94.8 9.1 94.2 8.9 C 93.7 8.6 93.3 8.3 93 7.8 C 92.7 7.3 92.5 6.8 92.5 6.2 Z M 101.2 6.2 C 101.2 6.2 102.3 6.1 102.3 6.1 C 102.4 6.6 102.5 6.9 102.7 7.2 C 102.9 7.5 103.2 7.7 103.6 7.9 C 104 8.1 104.5 8.2 105 8.2 C 105.4 8.2 105.8 8.1 106.2 8 C 106.5 7.8 106.8 7.7 106.9 7.4 C 107.1 7.2 107.2 6.9 107.2 6.7 C 107.2 6.4 107.1 6.1 106.9 5.9 C 106.8 5.7 106.5 5.5 106.1 5.4 C 105.9 5.3 105.4 5.2 104.6 5 C 103.7 4.8 103.2 4.6 102.8 4.4 C 102.4 4.2 102.1 3.9 101.9 3.6 C 101.7 3.2 101.6 2.9 101.6 2.5 C 101.6 2 101.7 1.6 102 1.2 C 102.2 0.8 102.6 0.5 103.1 0.3 C 103.6 0.1 104.1 0 104.7 0 C 105.4 0 106 0.1 106.5 0.3 C 107 0.5 107.4 0.8 107.6 1.3 C 107.9 1.7 108 2.1 108.1 2.7 C 108.1 2.7 106.9 2.8 106.9 2.8 C 106.9 2.2 106.7 1.8 106.3 1.5 C 106 1.2 105.4 1 104.8 1 C 104 1 103.5 1.2 103.2 1.4 C 102.9 1.7 102.7 2 102.7 2.4 C 102.7 2.7 102.8 3 103.1 3.2 C 103.3 3.4 103.9 3.6 104.8 3.8 C 105.8 4 106.5 4.2 106.8 4.4 C 107.3 4.6 107.7 4.9 108 5.3 C 108.2 5.7 108.3 6.1 108.3 6.6 C 108.3 7 108.2 7.5 107.9 7.9 C 107.7 8.3 107.3 8.6 106.8 8.9 C 106.2 9.1 105.7 9.2 105 9.2 C 104.2 9.2 103.5 9.1 103 8.9 C 102.5 8.6 102 8.3 101.7 7.8 C 101.4 7.3 101.2 6.8 101.2 6.2 Z M 110.3 9.1 L 110.3 7.8 L 111.6 7.8 C 111.6 7.8 111.56 9.08 111.6 9.1 C 111.6 9.5 111.5 9.9 111.3 10.2 C 111.2 10.5 110.9 10.7 110.5 10.8 C 110.5 10.8 110.2 10.4 110.2 10.4 C 110.5 10.3 110.6 10.1 110.7 9.9 C 110.9 9.7 110.9 9.4 110.9 9.1 C 110.93 9.08 110.3 9.1 110.3 9.1 Z " stroke="none" fill="#ffffff"/>
  </g>
</svg>