<?xml version="1.0" standalone="no"?><!DOCTYPE svg PUBLIC "-//W3C//DTD SVG 1.1//EN" "http://www.w3.org/Graphics/SVG/1.1/DTD/svg11.dtd"><svg xmlns="http://www.w3.org/2000/svg" version="1.1" width="569.3px" height="73.6px" viewBox="0 -13 569.3 73.6" style="top:-13px"><desc>Pro Bono</desc><defs/><g id="Polygon66691"><path d="m5 32.8l0-32.3c0 0 12.19.05 12.2 0c2.1 0 3.8.2 4.9.4c1.6.2 2.9.7 4 1.5c1 .7 1.9 1.7 2.5 3.1c.7 1.3 1 2.8 1 4.4c0 2.7-.8 5-2.6 6.9c-1.7 1.9-4.9 2.9-9.4 2.9c-.04-.03-8.3 0-8.3 0l0 13.1l-4.3 0zm4.3-16.9c0 0 8.33-.04 8.3 0c2.8 0 4.7-.5 5.9-1.6c1.2-1 1.7-2.4 1.7-4.3c0-1.3-.3-2.5-1-3.5c-.7-.9-1.6-1.6-2.7-1.9c-.7-.2-2-.2-4-.2c.04-.05-8.2 0-8.2 0l0 11.5zm25.2 16.9l0-23.4l3.6 0c0 0-.04 3.56 0 3.6c.9-1.7 1.7-2.8 2.5-3.3c.7-.5 1.6-.8 2.5-.8c1.4 0 2.7.4 4.1 1.3c0 0-1.4 3.6-1.4 3.6c-.9-.5-1.9-.8-2.9-.8c-.8 0-1.6.2-2.3.8c-.7.5-1.2 1.2-1.5 2.1c-.4 1.4-.6 3-.6 4.6c-.04.04 0 12.3 0 12.3l-4 0zm13.6-11.7c0-4.3 1.2-7.5 3.6-9.6c2-1.7 4.4-2.6 7.3-2.6c3.2 0 5.8 1.1 7.9 3.2c2 2.1 3 5 3 8.7c0 3-.4 5.3-1.3 7.1c-.9 1.7-2.2 3-4 4c-1.7.9-3.6 1.4-5.6 1.4c-3.3 0-5.9-1.1-7.9-3.2c-2-2-3-5.1-3-9zm4 0c0 3 .7 5.2 2 6.7c1.3 1.5 2.9 2.2 4.9 2.2c2 0 3.6-.7 4.9-2.2c1.3-1.5 2-3.8 2-6.8c0-2.9-.7-5.1-2-6.6c-1.3-1.5-2.9-2.2-4.9-2.2c-2 0-3.6.7-4.9 2.2c-1.3 1.5-2 3.7-2 6.7zm35.3 11.7l0-32.3c0 0 12.08.05 12.1 0c2.4 0 4.4.4 5.9 1c1.5.7 2.7 1.7 3.5 3c.8 1.4 1.3 2.8 1.3 4.3c0 1.4-.4 2.7-1.2 3.9c-.7 1.2-1.8 2.2-3.3 2.9c1.9.6 3.4 1.6 4.4 2.9c1.1 1.4 1.6 3 1.6 4.9c0 1.5-.3 2.9-.9 4.2c-.7 1.3-1.5 2.3-2.4 3c-.9.7-2.1 1.3-3.5 1.6c-1.4.4-3.2.6-5.2.6c-.02-.04-12.3 0-12.3 0zm4.3-18.7c0 0 6.92-.02 6.9 0c1.9 0 3.3-.1 4.1-.4c1.1-.3 1.9-.8 2.4-1.6c.6-.7.9-1.7.9-2.8c0-1.1-.3-2-.8-2.8c-.5-.8-1.3-1.4-2.2-1.7c-1-.3-2.6-.4-4.9-.4c-.01-.05-6.4 0-6.4 0l0 9.7zm0 14.9c0 0 7.98-.04 8 0c1.4 0 2.3-.1 2.9-.2c1-.2 1.8-.5 2.4-.9c.7-.4 1.2-1 1.7-1.8c.4-.7.6-1.7.6-2.7c0-1.2-.3-2.2-.9-3.1c-.6-.9-1.5-1.5-2.6-1.9c-1.1-.3-2.6-.5-4.7-.5c0-.01-7.4 0-7.4 0l0 11.1zm23.9-7.9c0-4.3 1.2-7.5 3.6-9.6c2-1.7 4.5-2.6 7.3-2.6c3.3 0 5.9 1.1 7.9 3.2c2.1 2.1 3.1 5 3.1 8.7c0 3-.5 5.3-1.4 7.1c-.9 1.7-2.2 3-3.9 4c-1.7.9-3.6 1.4-5.7 1.4c-3.2 0-5.9-1.1-7.9-3.2c-2-2-3-5.1-3-9zm4.1 0c0 3 .6 5.2 1.9 6.7c1.3 1.5 3 2.2 4.9 2.2c2 0 3.6-.7 4.9-2.2c1.4-1.5 2-3.8 2-6.8c0-2.9-.7-5.1-2-6.6c-1.3-1.5-2.9-2.2-4.9-2.2c-1.9 0-3.6.7-4.9 2.2c-1.3 1.5-1.9 3.7-1.9 6.7zm22.4 11.7l0-23.4l3.6 0c0 0-.04 3.34 0 3.3c1.7-2.5 4.2-3.8 7.4-3.8c1.4 0 2.7.3 3.9.8c1.1.5 2 1.1 2.6 1.9c.6.9 1 1.8 1.2 3c.2.7.3 2 .3 3.8c-.03.01 0 14.4 0 14.4l-4 0c0 0 .01-14.23 0-14.2c0-1.6-.1-2.8-.4-3.6c-.4-.8-.9-1.5-1.7-2c-.8-.4-1.7-.7-2.7-.7c-1.7 0-3.2.6-4.4 1.6c-1.2 1.1-1.8 3.1-1.8 6.1c-.04.02 0 12.8 0 12.8l-4 0zm23.6-11.7c0-4.3 1.2-7.5 3.6-9.6c2-1.7 4.4-2.6 7.3-2.6c3.2 0 5.8 1.1 7.9 3.2c2 2.1 3 5 3 8.7c0 3-.4 5.3-1.3 7.1c-.9 1.7-2.2 3-4 4c-1.7.9-3.6 1.4-5.6 1.4c-3.3 0-5.9-1.1-7.9-3.2c-2-2-3-5.1-3-9zm4 0c0 3 .7 5.2 2 6.7c1.3 1.5 2.9 2.2 4.9 2.2c2 0 3.6-.7 4.9-2.2c1.3-1.5 2-3.8 2-6.8c0-2.9-.7-5.1-2-6.6c-1.3-1.5-2.9-2.2-4.9-2.2c-2 0-3.6.7-4.9 2.2c-1.3 1.5-2 3.7-2 6.7z" stroke="none" fill="#ffffff"/></g></svg>