<?xml version="1.0" standalone="no"?><!DOCTYPE svg PUBLIC "-//W3C//DTD SVG 1.1//EN" "http://www.w3.org/Graphics/SVG/1.1/DTD/svg11.dtd"><svg xmlns="http://www.w3.org/2000/svg" version="1.1" width="103px" height="96.7px" viewBox="0 -3 103 96.7" style="top:-3px"><desc>Number of Green Facilities &amp; Amenities</desc><defs/><g id="Polygon69120"><path d="m7.9 51.1c-.5-.3-1-.7-1.5-1.3c-.4.4-.8.7-1.3.9c-.4.3-.9.4-1.5.4c-.9 0-1.7-.4-2.3-1c-.5-.6-.7-1.2-.7-1.9c0-.6.2-1.1.6-1.6c.3-.5.9-.9 1.7-1.3c-.4-.5-.7-.9-.9-1.2c-.1-.3-.2-.6-.2-.9c0-.6.2-1.1.7-1.5c.4-.4 1-.6 1.7-.6c.7 0 1.2.2 1.6.6c.4.4.7.9.7 1.4c0 .9-.7 1.7-1.9 2.4c0 0 1.8 2.2 1.8 2.2c.2-.4.3-.8.4-1.4c0 0 1.3.3 1.3.3c-.2.9-.5 1.6-.9 2.1c.5.6 1 1.1 1.5 1.5c.02-.01-.8.9-.8.9c0 0 .02.03 0 0zm-3.9-6.4c.5-.3.9-.6 1-.8c.2-.2.2-.5.2-.7c0-.4-.1-.6-.3-.9c-.2-.2-.4-.3-.8-.3c-.3 0-.5.1-.8.3c-.2.2-.3.5-.3.8c0 .2.1.3.1.5c.1.1.2.3.4.5c0 0 .5.6.5.6zm1.7 4.1c0 0-2.2-2.7-2.2-2.7c-.6.4-1.1.8-1.3 1.1c-.2.3-.3.6-.3 1c0 .4.1.8.4 1.2c.3.4.8.6 1.4.6c.3 0 .7-.1 1.1-.3c.4-.2.7-.5.9-.9zm6.3 2.1l3.7-9.7l1.4 0l4 9.7l-1.5 0l-1.1-2.9l-4 0l-1.1 2.9l-1.4 0zm2.8-4l3.3 0c0 0-1.01-2.66-1-2.7c-.3-.8-.5-1.4-.7-2c-.1.7-.3 1.3-.5 1.9c-.01-.01-1.1 2.8-1.1 2.8zm7.3 4l0-9.7l1.9 0c0 0 2.3 6.88 2.3 6.9c.2.6.4 1.1.5 1.4c.1-.3.2-.9.5-1.5c-.02-.04 2.3-6.8 2.3-6.8l1.7 0l0 9.7l-1.2 0l0-8.1l-2.8 8.1l-1.2 0l-2.8-8.2l0 8.2l-1.2 0zm11.3 0l0-9.7l7 0l0 1.2l-5.7 0l0 2.9l5.4 0l0 1.2l-5.4 0l0 3.3l6 0l0 1.1l-7.3 0zm9 0l0-9.7l1.3 0l5.1 7.6l0-7.6l1.2 0l0 9.7l-1.3 0l-5.1-7.6l0 7.6l-1.2 0zm10 0l0-9.7l1.3 0l0 9.7l-1.3 0zm6 0l0-8.5l-3.2 0l0-1.2l7.7 0l0 1.2l-3.2 0l0 8.5l-1.3 0zm6.1 0l0-9.7l1.2 0l0 9.7l-1.2 0zm3.5 0l0-9.7l7 0l0 1.2l-5.7 0l0 2.9l5.4 0l0 1.2l-5.4 0l0 3.3l6 0l0 1.1l-7.3 0zm8.6-3.1c0 0 1.2-.1 1.2-.1c.1.5.2.9.4 1.2c.2.3.5.5 1 .7c.4.2.9.3 1.5.3c.5 0 .9 0 1.3-.2c.3-.1.6-.3.8-.6c.2-.2.3-.5.3-.8c0-.3-.1-.6-.3-.8c-.2-.2-.5-.4-.9-.6c-.2-.1-.8-.2-1.7-.5c-.9-.2-1.5-.4-1.9-.6c-.4-.2-.8-.5-1-.9c-.2-.3-.3-.7-.3-1.2c0-.5.1-.9.4-1.3c.3-.5.7-.8 1.2-1c.5-.2 1.1-.3 1.8-.3c.7 0 1.3.1 1.9.3c.5.2.9.6 1.2 1c.3.5.5 1 .5 1.5c0 0-1.2.1-1.2.1c-.1-.6-.3-1-.7-1.3c-.4-.4-.9-.5-1.7-.5c-.8 0-1.3.1-1.7.4c-.3.3-.5.6-.5 1c0 .4.1.7.4.9c.2.2.9.5 1.9.7c1 .2 1.8.4 2.2.6c.5.3.9.6 1.2 1c.3.4.4.9.4 1.4c0 .5-.1 1-.4 1.4c-.3.5-.8.8-1.3 1.1c-.6.2-1.2.4-1.9.4c-.9 0-1.6-.2-2.2-.4c-.6-.3-1-.6-1.4-1.2c-.3-.5-.5-1.1-.5-1.7z" stroke="none" fill="#ffffff"/></g><g id="Polygon69119"><path d="m1.1 36.4l0-9.7l6.5 0l0 1.2l-5.2 0l0 3l4.5 0l0 1.1l-4.5 0l0 4.4l-1.3 0zm6.4 0l3.7-9.7l1.4 0l4 9.7l-1.5 0l-1.1-2.9l-4.1 0l-1 2.9l-1.4 0zm2.8-4l3.3 0c0 0-1.03-2.66-1-2.7c-.3-.8-.6-1.4-.7-2c-.1.7-.3 1.3-.5 1.9c-.04-.02-1.1 2.8-1.1 2.8zm14.2.6c0 0 1.3.3 1.3.3c-.3 1.1-.8 1.9-1.5 2.4c-.7.6-1.5.9-2.5.9c-1.1 0-1.9-.2-2.6-.7c-.6-.4-1.1-1-1.5-1.8c-.3-.8-.5-1.7-.5-2.6c0-1 .2-1.9.6-2.7c.4-.7.9-1.3 1.7-1.7c.7-.4 1.4-.6 2.3-.6c1 0 1.8.3 2.4.8c.7.5 1.2 1.2 1.4 2.1c0 0-1.2.3-1.2.3c-.3-.7-.6-1.3-1-1.6c-.4-.3-1-.5-1.6-.5c-.8 0-1.4.2-1.9.6c-.5.3-.8.8-1 1.4c-.2.6-.4 1.2-.4 1.9c0 .8.2 1.5.4 2.1c.2.7.6 1.1 1.1 1.4c.5.3 1.1.5 1.7.5c.7 0 1.3-.2 1.8-.7c.5-.4.8-1 1-1.8zm3.1 3.4l0-9.7l1.3 0l0 9.7l-1.3 0zm3.5 0l0-9.7l1.3 0l0 8.6l4.7 0l0 1.1l-6 0zm7.8 0l0-9.7l1.3 0l0 9.7l-1.3 0zm6 0l0-8.5l-3.2 0l0-1.2l7.7 0l0 1.2l-3.2 0l0 8.5l-1.3 0zm6 0l0-9.7l1.3 0l0 9.7l-1.3 0zm3.6 0l0-9.7l7 0l0 1.2l-5.7 0l0 2.9l5.3 0l0 1.2l-5.3 0l0 3.3l5.9 0l0 1.1l-7.2 0zm8.6-3.1c0 0 1.2-.1 1.2-.1c0 .5.2.9.4 1.2c.2.3.5.5.9.7c.5.2 1 .3 1.5.3c.5 0 .9-.1 1.3-.2c.4-.1.7-.3.9-.6c.1-.3.2-.5.2-.8c0-.3-.1-.6-.2-.8c-.2-.3-.5-.4-.9-.6c-.3-.1-.8-.3-1.7-.5c-.9-.2-1.5-.4-1.9-.6c-.5-.2-.8-.5-1-.9c-.3-.3-.4-.7-.4-1.2c0-.5.2-.9.4-1.4c.3-.4.7-.7 1.3-.9c.5-.2 1.1-.4 1.7-.4c.8 0 1.4.2 1.9.4c.6.2 1 .6 1.3 1c.3.5.5 1 .5 1.5c0 0-1.3.1-1.3.1c0-.6-.2-1-.6-1.4c-.4-.3-1-.4-1.7-.4c-.8 0-1.4.1-1.7.4c-.4.3-.5.6-.5 1c0 .4.1.7.3.9c.3.2.9.4 2 .7c1 .2 1.7.4 2.1.6c.6.3 1 .6 1.3 1c.2.4.4.8.4 1.4c0 .5-.2 1-.5 1.4c-.3.5-.7.8-1.2 1.1c-.6.2-1.2.4-1.9.4c-.9 0-1.6-.2-2.2-.4c-.6-.3-1.1-.7-1.4-1.2c-.4-.5-.5-1.1-.5-1.7z" stroke="none" fill="#ffffff"/></g><g id="Polygon69118"><path d="m5.6 18.1l0-1.1l4.1 0c0 0-.02 3.55 0 3.5c-.6.6-1.3.9-2 1.2c-.6.2-1.3.4-2 .4c-1 0-1.8-.2-2.6-.6c-.8-.5-1.4-1-1.8-1.8c-.4-.8-.6-1.6-.6-2.6c0-.9.2-1.8.6-2.6c.4-.9 1-1.5 1.7-1.9c.8-.4 1.6-.6 2.6-.6c.7 0 1.3.2 1.9.4c.5.2 1 .5 1.3.9c.3.4.6 1 .7 1.6c0 0-1.1.3-1.1.3c-.2-.5-.3-.8-.6-1.1c-.2-.3-.5-.5-.9-.7c-.4-.2-.8-.3-1.3-.3c-.6 0-1.1.1-1.5.3c-.5.2-.8.4-1.1.7c-.2.3-.4.6-.6 1c-.2.6-.4 1.2-.4 1.9c0 .9.2 1.6.5 2.2c.3.6.7 1 1.3 1.3c.6.3 1.2.4 1.8.4c.6 0 1.1-.1 1.6-.3c.6-.2 1-.5 1.2-.7c.03 0 0-1.8 0-1.8l-2.8 0zm6 3.8l0-9.7c0 0 4.29.01 4.3 0c.9 0 1.5.1 2 .3c.4.1.8.4 1 .9c.3.4.4.9.4 1.5c0 .6-.2 1.2-.6 1.7c-.5.5-1.2.8-2.1.9c.4.2.6.3.8.5c.4.3.7.7 1 1.3c.05-.04 1.7 2.6 1.7 2.6l-1.6 0c0 0-1.26-2.02-1.3-2c-.3-.6-.6-1-.9-1.4c-.2-.3-.4-.5-.6-.6c-.2-.1-.4-.2-.6-.3c-.2 0-.4 0-.7 0c-.04-.01-1.5 0-1.5 0l0 4.3l-1.3 0zm1.3-5.4c0 0 2.73-.02 2.7 0c.6 0 1.1-.1 1.4-.2c.3-.1.6-.3.8-.6c.1-.2.2-.5.2-.8c0-.5-.1-.9-.5-1.2c-.3-.3-.8-.4-1.6-.4c.04-.02-3 0-3 0l0 3.2zm8.5 5.4l0-9.7l7 0l0 1.2l-5.7 0l0 2.9l5.3 0l0 1.2l-5.3 0l0 3.3l5.9 0l0 1.1l-7.2 0zm9 0l0-9.7l7 0l0 1.2l-5.7 0l0 2.9l5.4 0l0 1.2l-5.4 0l0 3.3l5.9 0l0 1.1l-7.2 0zm9 0l0-9.7l1.3 0l5.1 7.6l0-7.6l1.2 0l0 9.7l-1.3 0l-5.1-7.6l0 7.6l-1.2 0z" stroke="none" fill="#ffffff"/></g><g id="Polygon69117"><path d="m.8 7.4l0-7.3l1 0l3.8 5.7l0-5.7l.9 0l0 7.3l-1 0l-3.8-5.7l0 5.7l-.9 0zm10.7 0c0 0-.05-.78 0-.8c-.5.6-1 .9-1.7.9c-.3 0-.6 0-.9-.2c-.3-.1-.5-.2-.6-.4c-.1-.2-.2-.4-.3-.7c0-.2 0-.4 0-.8c-.02-.01 0-3.3 0-3.3l.9 0c0 0-.03 2.95 0 2.9c0 .5 0 .8 0 1c.1.2.2.4.4.5c.2.2.4.2.7.2c.2 0 .5 0 .7-.2c.2-.1.4-.3.5-.5c.1-.3.2-.6.2-1.1c-.04.05 0-2.8 0-2.8l.9 0l0 5.3l-.8 0zm2.1 0l0-5.3l.8 0c0 0 .05.77 0 .8c.2-.3.4-.5.7-.7c.3-.1.6-.2.9-.2c.4 0 .8.1 1 .3c.3.1.4.3.5.6c.4-.6 1-.9 1.7-.9c.5 0 .9.2 1.2.4c.2.3.4.8.4 1.4c-.02-.02 0 3.6 0 3.6l-.9 0c0 0 0-3.32 0-3.3c0-.4 0-.6-.1-.8c0-.2-.2-.3-.3-.4c-.2-.1-.3-.1-.5-.1c-.4 0-.7.1-1 .4c-.2.2-.3.6-.3 1.1c-.03.03 0 3.1 0 3.1l-.9 0c0 0-.02-3.43 0-3.4c0-.4-.1-.7-.2-.9c-.2-.2-.4-.3-.8-.3c-.2 0-.4 0-.7.2c-.2.1-.3.3-.4.6c-.1.2-.2.6-.2 1.1c.04-.04 0 2.7 0 2.7l-.9 0zm9.3 0l-.8 0l0-7.3l.9 0c0 0-.01 2.62 0 2.6c.4-.5.9-.7 1.4-.7c.4 0 .7.1 1 .2c.2.1.5.3.7.6c.2.2.3.5.4.8c.1.3.2.7.2 1.1c0 .9-.3 1.6-.7 2.1c-.4.5-1 .7-1.6.7c-.6 0-1.1-.2-1.5-.8c.03.03 0 .7 0 .7zm0-2.7c0 .7.1 1.1.3 1.4c.3.4.6.7 1.1.7c.4 0 .7-.2 1-.5c.3-.4.5-.9.5-1.5c0-.7-.2-1.2-.5-1.6c-.2-.3-.6-.5-.9-.5c-.4 0-.8.2-1.1.5c-.2.4-.4.9-.4 1.5zm8.5 1c0 0 .9.1.9.1c-.2.5-.4 1-.8 1.3c-.4.3-.9.4-1.5.4c-.8 0-1.4-.2-1.9-.7c-.4-.5-.6-1.1-.6-2c0-.9.2-1.6.6-2.1c.5-.4 1.1-.7 1.8-.7c.7 0 1.3.2 1.7.7c.5.5.7 1.2.7 2c0 .1 0 .2 0 .3c0 0-3.9 0-3.9 0c0 .6.2 1 .5 1.3c.3.3.6.5 1.1.5c.3 0 .6-.1.8-.3c.2-.2.4-.4.6-.8zm-3-1.4c0 0 3 0 3 0c-.1-.5-.2-.8-.4-1c-.3-.4-.6-.6-1.1-.6c-.4 0-.7.2-1 .5c-.3.2-.4.6-.5 1.1zm5 3.1l0-5.3l.8 0c0 0-.01.83 0 .8c.2-.3.4-.6.6-.7c.1-.1.3-.2.5-.2c.3 0 .6.1 1 .3c0 0-.4.8-.4.8c-.2-.1-.4-.2-.6-.2c-.2 0-.4.1-.5.2c-.2.1-.3.3-.4.5c-.1.3-.1.7-.1 1c-.02.04 0 2.8 0 2.8l-.9 0zm5.9-2.6c0-1 .2-1.7.8-2.2c.4-.4 1-.6 1.6-.6c.8 0 1.4.2 1.8.7c.5.5.7 1.1.7 2c0 .7-.1 1.2-.3 1.6c-.2.4-.5.7-.9.9c-.4.2-.8.3-1.3.3c-.7 0-1.3-.2-1.7-.7c-.5-.5-.7-1.2-.7-2zm.9 0c0 .6.1 1.1.4 1.5c.3.3.7.5 1.1.5c.5 0 .9-.2 1.1-.5c.3-.4.5-.9.5-1.6c0-.6-.2-1.1-.5-1.5c-.3-.3-.6-.5-1.1-.5c-.4 0-.8.2-1.1.5c-.3.4-.4.9-.4 1.6zm5.3 2.6l0-4.6l-.8 0l0-.7l.8 0c0 0-.04-.53 0-.5c0-.4 0-.6.1-.8c0-.3.2-.4.4-.6c.2-.1.5-.2.9-.2c.3 0 .6 0 .9.1c0 0-.2.8-.2.8c-.2-.1-.3-.1-.5-.1c-.3 0-.5.1-.6.2c-.1.1-.1.3-.1.6c-.05.04 0 .5 0 .5l1 0l0 .7l-1 0l0 4.6l-.9 0z" stroke="none" fill="#ffffff"/></g></svg>