<?xml version="1.0" standalone="no"?>
<!DOCTYPE svg PUBLIC "-//W3C//DTD SVG 1.1//EN" "http://www.w3.org/Graphics/SVG/1.1/DTD/svg11.dtd">
<svg xmlns="http://www.w3.org/2000/svg" version="1.1" width="83px" height="78.1px" viewBox="0 -5 83 78.1" style="top:-5px">
  <desc>Print Volume PER HEAD (2015 vs 2019)</desc>
  <defs/>
  <g id="Polygon64418">
    <path d="M 30.2 32.7 C 29.8 32.2 29.5 31.7 29.2 31 C 29 30.4 28.8 29.7 28.8 29 C 28.8 28.3 28.9 27.8 29.1 27.2 C 29.4 26.5 29.7 25.9 30.2 25.2 C 30.2 25.2 30.7 25.2 30.7 25.2 C 30.4 25.8 30.2 26.1 30.1 26.4 C 29.9 26.7 29.8 27.1 29.7 27.5 C 29.6 28 29.6 28.5 29.6 29 C 29.6 30.2 29.9 31.5 30.7 32.7 C 30.7 32.7 30.2 32.7 30.2 32.7 Z M 34.8 30.4 L 34.8 31 C 34.8 31 31.06 31.04 31.1 31 C 31.1 30.9 31.1 30.7 31.1 30.6 C 31.2 30.3 31.4 30 31.6 29.8 C 31.8 29.5 32.1 29.3 32.5 28.9 C 33.1 28.4 33.6 28 33.8 27.7 C 34 27.4 34.1 27.1 34.1 26.9 C 34.1 26.6 34 26.4 33.8 26.2 C 33.6 26 33.4 25.9 33 25.9 C 32.7 25.9 32.4 26 32.2 26.2 C 32 26.4 31.9 26.7 31.9 27 C 31.9 27 31.2 26.9 31.2 26.9 C 31.2 26.4 31.4 26 31.7 25.7 C 32.1 25.4 32.5 25.3 33 25.3 C 33.6 25.3 34 25.4 34.4 25.8 C 34.7 26.1 34.8 26.4 34.8 26.9 C 34.8 27.1 34.8 27.3 34.7 27.6 C 34.6 27.8 34.4 28 34.2 28.3 C 34 28.5 33.6 28.8 33.1 29.3 C 32.7 29.6 32.5 29.9 32.3 30 C 32.2 30.1 32.1 30.2 32 30.4 C 32.03 30.37 34.8 30.4 34.8 30.4 Z M 36.2 30.5 C 35.8 30.1 35.6 29.3 35.6 28.2 C 35.6 27.5 35.7 27 35.8 26.6 C 36 26.2 36.2 25.9 36.5 25.6 C 36.7 25.4 37.1 25.3 37.5 25.3 C 37.8 25.3 38.1 25.4 38.3 25.5 C 38.5 25.6 38.7 25.8 38.9 26 C 39 26.2 39.1 26.5 39.2 26.9 C 39.3 27.2 39.4 27.7 39.4 28.2 C 39.4 28.9 39.3 29.4 39.2 29.8 C 39 30.3 38.8 30.6 38.5 30.8 C 38.3 31 37.9 31.1 37.5 31.1 C 36.9 31.1 36.5 30.9 36.2 30.5 C 36.2 30.5 36.2 30.5 36.2 30.5 Z M 36.7 26.3 C 36.5 26.6 36.4 27.3 36.4 28.2 C 36.4 29.2 36.5 29.8 36.7 30.1 C 36.9 30.4 37.2 30.6 37.5 30.6 C 37.8 30.6 38.1 30.4 38.3 30.1 C 38.5 29.8 38.6 29.2 38.6 28.2 C 38.6 27.3 38.5 26.6 38.3 26.3 C 38.1 26 37.8 25.9 37.5 25.9 C 37.2 25.9 36.9 26 36.7 26.3 C 36.7 26.3 36.7 26.3 36.7 26.3 Z M 42.5 31 L 41.8 31 C 41.8 31 41.84 26.56 41.8 26.6 C 41.7 26.7 41.4 26.9 41.2 27 C 40.9 27.2 40.7 27.3 40.4 27.4 C 40.4 27.4 40.4 26.7 40.4 26.7 C 40.8 26.5 41.2 26.3 41.5 26.1 C 41.8 25.8 42 25.5 42.1 25.3 C 42.09 25.29 42.5 25.3 42.5 25.3 L 42.5 31 Z M 44 29.5 C 44 29.5 44.8 29.5 44.8 29.5 C 44.8 29.8 45 30.1 45.2 30.3 C 45.4 30.5 45.6 30.6 45.9 30.6 C 46.2 30.6 46.5 30.4 46.7 30.2 C 47 29.9 47.1 29.6 47.1 29.2 C 47.1 28.8 47 28.4 46.7 28.2 C 46.5 28 46.2 27.9 45.9 27.9 C 45.6 27.9 45.4 27.9 45.2 28 C 45.1 28.1 44.9 28.3 44.8 28.4 C 44.82 28.42 44.2 28.3 44.2 28.3 L 44.7 25.4 L 47.6 25.4 L 47.6 26.1 L 45.3 26.1 C 45.3 26.1 44.97 27.61 45 27.6 C 45.3 27.4 45.7 27.2 46 27.2 C 46.5 27.2 47 27.4 47.3 27.8 C 47.7 28.1 47.8 28.6 47.8 29.1 C 47.8 29.6 47.7 30.1 47.4 30.4 C 47 30.9 46.5 31.1 45.9 31.1 C 45.4 31.1 44.9 31 44.6 30.7 C 44.3 30.4 44.1 30 44 29.5 Z M 52.1 31 L 50.5 26.9 L 51.2 26.9 C 51.2 26.9 52.11 29.38 52.1 29.4 C 52.2 29.6 52.3 29.9 52.4 30.2 C 52.4 30 52.5 29.7 52.6 29.4 C 52.64 29.43 53.6 26.9 53.6 26.9 L 54.3 26.9 L 52.7 31 L 52.1 31 Z M 54.6 29.8 C 54.6 29.8 55.3 29.7 55.3 29.7 C 55.3 30 55.4 30.2 55.6 30.3 C 55.8 30.5 56 30.6 56.4 30.6 C 56.7 30.6 56.9 30.5 57.1 30.4 C 57.2 30.2 57.3 30.1 57.3 29.9 C 57.3 29.7 57.3 29.6 57.1 29.5 C 57 29.5 56.8 29.4 56.4 29.3 C 55.9 29.2 55.5 29 55.3 28.9 C 55.1 28.9 55 28.7 54.9 28.6 C 54.8 28.4 54.7 28.2 54.7 28 C 54.7 27.8 54.8 27.6 54.8 27.5 C 54.9 27.3 55 27.2 55.2 27.1 C 55.3 27 55.4 26.9 55.6 26.9 C 55.8 26.8 56 26.8 56.2 26.8 C 56.6 26.8 56.9 26.8 57.1 26.9 C 57.3 27 57.5 27.2 57.6 27.3 C 57.8 27.5 57.8 27.7 57.9 28 C 57.9 28 57.2 28.1 57.2 28.1 C 57.2 27.8 57.1 27.7 56.9 27.6 C 56.8 27.4 56.6 27.4 56.3 27.4 C 56 27.4 55.7 27.4 55.6 27.5 C 55.5 27.6 55.4 27.8 55.4 27.9 C 55.4 28 55.4 28.1 55.5 28.2 C 55.5 28.2 55.6 28.3 55.8 28.3 C 55.8 28.4 56 28.4 56.4 28.5 C 56.9 28.7 57.2 28.8 57.4 28.9 C 57.6 28.9 57.8 29.1 57.9 29.2 C 58 29.4 58 29.6 58 29.8 C 58 30.1 58 30.3 57.8 30.5 C 57.7 30.7 57.5 30.9 57.2 31 C 57 31.1 56.7 31.1 56.4 31.1 C 55.8 31.1 55.4 31 55.1 30.8 C 54.9 30.6 54.7 30.2 54.6 29.8 Z M 59.1 31 L 59.1 30.2 L 59.9 30.2 L 59.9 31 L 59.1 31 Z M 66.8 30.4 L 66.8 31 C 66.8 31 63.02 31.04 63 31 C 63 30.9 63 30.7 63.1 30.6 C 63.2 30.3 63.4 30 63.6 29.8 C 63.8 29.5 64.1 29.3 64.5 28.9 C 65.1 28.4 65.5 28 65.7 27.7 C 66 27.4 66.1 27.1 66.1 26.9 C 66.1 26.6 66 26.4 65.8 26.2 C 65.6 26 65.3 25.9 65 25.9 C 64.7 25.9 64.4 26 64.2 26.2 C 64 26.4 63.9 26.7 63.9 27 C 63.9 27 63.2 26.9 63.2 26.9 C 63.2 26.4 63.4 26 63.7 25.7 C 64 25.4 64.5 25.3 65 25.3 C 65.6 25.3 66 25.4 66.3 25.8 C 66.6 26.1 66.8 26.4 66.8 26.9 C 66.8 27.1 66.8 27.3 66.7 27.6 C 66.6 27.8 66.4 28 66.2 28.3 C 66 28.5 65.6 28.8 65.1 29.3 C 64.7 29.6 64.4 29.9 64.3 30 C 64.2 30.1 64.1 30.2 64 30.4 C 64 30.37 66.8 30.4 66.8 30.4 Z M 68.2 30.5 C 67.8 30.1 67.6 29.3 67.6 28.2 C 67.6 27.5 67.7 27 67.8 26.6 C 67.9 26.2 68.1 25.9 68.4 25.6 C 68.7 25.4 69 25.3 69.5 25.3 C 69.8 25.3 70 25.4 70.3 25.5 C 70.5 25.6 70.7 25.8 70.8 26 C 71 26.2 71.1 26.5 71.2 26.9 C 71.3 27.2 71.3 27.7 71.3 28.2 C 71.3 28.9 71.3 29.4 71.1 29.8 C 71 30.3 70.8 30.6 70.5 30.8 C 70.2 31 69.9 31.1 69.5 31.1 C 68.9 31.1 68.5 30.9 68.2 30.5 C 68.2 30.5 68.2 30.5 68.2 30.5 Z M 68.7 26.3 C 68.4 26.6 68.3 27.3 68.3 28.2 C 68.3 29.2 68.4 29.8 68.6 30.1 C 68.9 30.4 69.1 30.6 69.5 30.6 C 69.8 30.6 70.1 30.4 70.3 30.1 C 70.5 29.8 70.6 29.2 70.6 28.2 C 70.6 27.3 70.5 26.6 70.3 26.3 C 70.1 26 69.8 25.9 69.5 25.9 C 69.1 25.9 68.9 26 68.7 26.3 C 68.7 26.3 68.7 26.3 68.7 26.3 Z M 74.5 31 L 73.8 31 C 73.8 31 73.81 26.56 73.8 26.6 C 73.6 26.7 73.4 26.9 73.1 27 C 72.9 27.2 72.6 27.3 72.4 27.4 C 72.4 27.4 72.4 26.7 72.4 26.7 C 72.8 26.5 73.1 26.3 73.4 26.1 C 73.7 25.8 73.9 25.5 74.1 25.3 C 74.06 25.29 74.5 25.3 74.5 25.3 L 74.5 31 Z M 76.1 29.7 C 76.1 29.7 76.8 29.7 76.8 29.7 C 76.9 30 77 30.2 77.2 30.3 C 77.3 30.5 77.5 30.6 77.8 30.6 C 78 30.6 78.2 30.5 78.3 30.4 C 78.5 30.3 78.6 30.2 78.7 30 C 78.8 29.9 78.9 29.6 79 29.3 C 79.1 29.1 79.1 28.8 79.1 28.5 C 79.1 28.5 79.1 28.4 79.1 28.3 C 79 28.6 78.8 28.8 78.5 28.9 C 78.3 29 78 29.1 77.7 29.1 C 77.3 29.1 76.9 28.9 76.5 28.6 C 76.2 28.2 76 27.8 76 27.2 C 76 26.6 76.2 26.2 76.6 25.8 C 76.9 25.5 77.3 25.3 77.8 25.3 C 78.2 25.3 78.6 25.4 78.9 25.6 C 79.2 25.8 79.4 26.1 79.6 26.5 C 79.7 26.8 79.8 27.4 79.8 28.1 C 79.8 28.8 79.7 29.4 79.6 29.8 C 79.4 30.2 79.2 30.6 78.9 30.8 C 78.5 31 78.2 31.1 77.8 31.1 C 77.3 31.1 76.9 31 76.7 30.8 C 76.4 30.5 76.2 30.2 76.1 29.7 Z M 79 27.2 C 79 26.8 78.9 26.5 78.7 26.2 C 78.5 26 78.2 25.9 77.9 25.9 C 77.6 25.9 77.3 26 77.1 26.3 C 76.9 26.5 76.8 26.8 76.8 27.3 C 76.8 27.6 76.9 27.9 77.1 28.1 C 77.3 28.4 77.6 28.5 77.9 28.5 C 78.2 28.5 78.5 28.4 78.7 28.1 C 78.9 27.9 79 27.6 79 27.2 Z M 80.9 32.7 C 80.9 32.7 80.4 32.7 80.4 32.7 C 81.2 31.5 81.6 30.2 81.6 29 C 81.6 28.5 81.5 28 81.4 27.5 C 81.3 27.1 81.2 26.8 81 26.4 C 80.9 26.2 80.7 25.8 80.4 25.2 C 80.4 25.2 80.9 25.2 80.9 25.2 C 81.4 25.9 81.8 26.5 82 27.2 C 82.2 27.8 82.3 28.3 82.3 29 C 82.3 29.7 82.2 30.4 81.9 31 C 81.6 31.7 81.3 32.2 80.9 32.7 Z " stroke="none" fill="#ffffff"/>
  </g>
  <g id="Polygon64417">
    <path d="M 34.2 21.3 L 34.2 14.4 C 34.2 14.4 36.79 14.41 36.8 14.4 C 37.2 14.4 37.6 14.4 37.8 14.5 C 38.2 14.5 38.5 14.6 38.7 14.8 C 38.9 15 39.1 15.2 39.2 15.5 C 39.4 15.7 39.4 16.1 39.4 16.4 C 39.4 17 39.3 17.5 38.9 17.9 C 38.5 18.3 37.8 18.5 36.9 18.5 C 36.87 18.49 35.1 18.5 35.1 18.5 L 35.1 21.3 L 34.2 21.3 Z M 35.1 17.7 C 35.1 17.7 36.88 17.68 36.9 17.7 C 37.5 17.7 37.9 17.6 38.1 17.4 C 38.4 17.1 38.5 16.8 38.5 16.4 C 38.5 16.1 38.4 15.9 38.3 15.7 C 38.1 15.5 38 15.4 37.7 15.3 C 37.6 15.2 37.3 15.2 36.9 15.2 C 36.86 15.22 35.1 15.2 35.1 15.2 L 35.1 17.7 Z M 40.5 21.3 L 40.5 14.4 L 45.4 14.4 L 45.4 15.2 L 41.4 15.2 L 41.4 17.3 L 45.2 17.3 L 45.2 18.1 L 41.4 18.1 L 41.4 20.5 L 45.6 20.5 L 45.6 21.3 L 40.5 21.3 Z M 46.7 21.3 L 46.7 14.4 C 46.7 14.4 49.79 14.41 49.8 14.4 C 50.4 14.4 50.9 14.5 51.2 14.6 C 51.5 14.7 51.8 14.9 52 15.3 C 52.1 15.6 52.2 15.9 52.2 16.3 C 52.2 16.8 52.1 17.2 51.8 17.5 C 51.4 17.9 51 18.1 50.3 18.2 C 50.5 18.3 50.7 18.4 50.9 18.5 C 51.1 18.7 51.4 19 51.6 19.4 C 51.6 19.41 52.8 21.3 52.8 21.3 L 51.7 21.3 C 51.7 21.3 50.75 19.86 50.7 19.9 C 50.5 19.4 50.3 19.1 50.1 18.9 C 49.9 18.7 49.8 18.5 49.6 18.4 C 49.5 18.4 49.4 18.3 49.2 18.3 C 49.1 18.2 48.9 18.2 48.7 18.2 C 48.71 18.23 47.7 18.2 47.7 18.2 L 47.7 21.3 L 46.7 21.3 Z M 47.7 17.4 C 47.7 17.4 49.61 17.45 49.6 17.4 C 50 17.4 50.3 17.4 50.6 17.3 C 50.8 17.2 51 17.1 51.1 16.9 C 51.2 16.7 51.3 16.5 51.3 16.3 C 51.3 16 51.2 15.7 50.9 15.5 C 50.7 15.3 50.3 15.2 49.8 15.2 C 49.83 15.17 47.7 15.2 47.7 15.2 L 47.7 17.4 Z M 56.4 21.3 L 56.4 14.4 L 57.3 14.4 L 57.3 17.2 L 60.8 17.2 L 60.8 14.4 L 61.7 14.4 L 61.7 21.3 L 60.8 21.3 L 60.8 18 L 57.3 18 L 57.3 21.3 L 56.4 21.3 Z M 63.3 21.3 L 63.3 14.4 L 68.3 14.4 L 68.3 15.2 L 64.2 15.2 L 64.2 17.3 L 68 17.3 L 68 18.1 L 64.2 18.1 L 64.2 20.5 L 68.4 20.5 L 68.4 21.3 L 63.3 21.3 Z M 69.1 21.3 L 71.8 14.4 L 72.8 14.4 L 75.6 21.3 L 74.5 21.3 L 73.7 19.2 L 70.9 19.2 L 70.1 21.3 L 69.1 21.3 Z M 71.1 18.5 L 73.5 18.5 C 73.5 18.5 72.74 16.56 72.7 16.6 C 72.5 16 72.4 15.5 72.3 15.1 C 72.2 15.6 72 16 71.9 16.4 C 71.88 16.45 71.1 18.5 71.1 18.5 Z M 76.4 21.3 L 76.4 14.4 C 76.4 14.4 78.75 14.41 78.8 14.4 C 79.3 14.4 79.7 14.4 80 14.5 C 80.4 14.6 80.7 14.8 81 15 C 81.3 15.3 81.6 15.7 81.8 16.2 C 82 16.7 82.1 17.2 82.1 17.8 C 82.1 18.3 82 18.8 81.9 19.2 C 81.8 19.6 81.6 19.9 81.4 20.2 C 81.2 20.5 81 20.7 80.8 20.8 C 80.6 21 80.3 21.1 80 21.2 C 79.6 21.2 79.3 21.3 78.9 21.3 C 78.87 21.29 76.4 21.3 76.4 21.3 Z M 77.3 20.5 C 77.3 20.5 78.76 20.47 78.8 20.5 C 79.2 20.5 79.6 20.4 79.8 20.3 C 80.1 20.3 80.3 20.1 80.4 20 C 80.7 19.8 80.8 19.5 80.9 19.1 C 81.1 18.8 81.1 18.3 81.1 17.8 C 81.1 17.1 81 16.5 80.8 16.1 C 80.5 15.8 80.3 15.5 79.9 15.4 C 79.7 15.3 79.3 15.2 78.7 15.2 C 78.74 15.22 77.3 15.2 77.3 15.2 L 77.3 20.5 Z " stroke="none" fill="#ffffff"/>
  </g>
  <g id="Polygon64416">
    <path d="M 7.4 9.9 L 7.4 0.2 C 7.4 0.2 11.03 0.17 11 0.2 C 11.7 0.2 12.2 0.2 12.5 0.3 C 13 0.3 13.4 0.5 13.7 0.7 C 14 0.9 14.3 1.3 14.5 1.7 C 14.7 2.1 14.8 2.5 14.8 3 C 14.8 3.8 14.5 4.5 14 5.1 C 13.5 5.7 12.5 5.9 11.1 5.9 C 11.15 5.94 8.7 5.9 8.7 5.9 L 8.7 9.9 L 7.4 9.9 Z M 8.7 4.8 C 8.7 4.8 11.17 4.79 11.2 4.8 C 12 4.8 12.6 4.6 12.9 4.3 C 13.3 4 13.5 3.6 13.5 3 C 13.5 2.6 13.4 2.3 13.2 2 C 12.9 1.7 12.7 1.5 12.3 1.4 C 12.1 1.3 11.7 1.3 11.1 1.3 C 11.14 1.31 8.7 1.3 8.7 1.3 L 8.7 4.8 Z M 16.1 9.9 L 16.1 2.8 L 17.1 2.8 C 17.1 2.8 17.14 3.92 17.1 3.9 C 17.4 3.4 17.7 3.1 17.9 2.9 C 18.1 2.8 18.4 2.7 18.7 2.7 C 19.1 2.7 19.5 2.8 19.9 3.1 C 19.9 3.1 19.5 4.2 19.5 4.2 C 19.2 4 18.9 3.9 18.6 3.9 C 18.3 3.9 18.1 4 17.9 4.2 C 17.7 4.3 17.5 4.5 17.5 4.8 C 17.3 5.2 17.3 5.7 17.3 6.2 C 17.26 6.21 17.3 9.9 17.3 9.9 L 16.1 9.9 Z M 20.7 1.5 L 20.7 0.2 L 21.9 0.2 L 21.9 1.5 L 20.7 1.5 Z M 20.7 9.9 L 20.7 2.8 L 21.9 2.8 L 21.9 9.9 L 20.7 9.9 Z M 23.6 9.9 L 23.6 2.8 L 24.7 2.8 C 24.7 2.8 24.68 3.85 24.7 3.9 C 25.2 3.1 25.9 2.7 26.9 2.7 C 27.3 2.7 27.7 2.8 28.1 2.9 C 28.5 3.1 28.7 3.3 28.9 3.5 C 29.1 3.8 29.2 4.1 29.3 4.4 C 29.3 4.6 29.3 5 29.3 5.6 C 29.33 5.56 29.3 9.9 29.3 9.9 L 28.1 9.9 C 28.1 9.9 28.14 5.61 28.1 5.6 C 28.1 5.1 28.1 4.8 28 4.5 C 27.9 4.3 27.7 4.1 27.5 3.9 C 27.3 3.8 27 3.7 26.7 3.7 C 26.2 3.7 25.7 3.9 25.4 4.2 C 25 4.5 24.8 5.1 24.8 6 C 24.8 6.05 24.8 9.9 24.8 9.9 L 23.6 9.9 Z M 33 8.9 C 33.2 8.9 33.3 8.9 33.5 8.8 C 33.5 8.8 33.7 9.9 33.7 9.9 C 33.4 10 33.1 10 32.8 10 C 32.4 10 32 9.9 31.8 9.8 C 31.6 9.7 31.4 9.5 31.3 9.2 C 31.2 9 31.2 8.6 31.2 7.8 C 31.16 7.84 31.2 3.8 31.2 3.8 L 30.3 3.8 L 30.3 2.8 L 31.2 2.8 L 31.2 1.1 L 32.3 0.4 L 32.3 2.8 L 33.5 2.8 L 33.5 3.8 L 32.3 3.8 C 32.3 3.8 32.35 7.9 32.3 7.9 C 32.3 8.2 32.4 8.5 32.4 8.6 C 32.5 8.7 32.5 8.7 32.6 8.8 C 32.7 8.8 32.8 8.9 33 8.9 C 33 8.9 33 8.9 33 8.9 Z M 41.4 9.9 L 37.7 0.2 L 39.1 0.2 C 39.1 0.2 41.58 7.24 41.6 7.2 C 41.8 7.8 42 8.3 42.1 8.8 C 42.2 8.3 42.4 7.8 42.6 7.2 C 42.62 7.24 45.2 0.2 45.2 0.2 L 46.6 0.2 L 42.8 9.9 L 41.4 9.9 Z M 46.4 6.4 C 46.4 5.1 46.8 4.1 47.5 3.5 C 48.1 3 48.8 2.7 49.7 2.7 C 50.7 2.7 51.5 3 52.1 3.6 C 52.7 4.3 53 5.2 53 6.3 C 53 7.2 52.9 7.9 52.6 8.4 C 52.3 8.9 51.9 9.3 51.4 9.6 C 50.9 9.9 50.3 10.1 49.7 10.1 C 48.7 10.1 47.9 9.7 47.3 9.1 C 46.7 8.5 46.4 7.6 46.4 6.4 Z M 47.6 6.4 C 47.6 7.3 47.8 8 48.2 8.4 C 48.6 8.9 49.1 9.1 49.7 9.1 C 50.3 9.1 50.8 8.9 51.2 8.4 C 51.6 7.9 51.8 7.3 51.8 6.3 C 51.8 5.5 51.6 4.8 51.2 4.4 C 50.8 3.9 50.3 3.7 49.7 3.7 C 49.1 3.7 48.6 3.9 48.2 4.3 C 47.8 4.8 47.6 5.5 47.6 6.4 Z M 54.3 9.9 L 54.3 0.2 L 55.5 0.2 L 55.5 9.9 L 54.3 9.9 Z M 61.9 9.9 C 61.9 9.9 61.87 8.87 61.9 8.9 C 61.3 9.7 60.6 10.1 59.6 10.1 C 59.2 10.1 58.8 10 58.5 9.8 C 58.1 9.7 57.8 9.5 57.7 9.2 C 57.5 9 57.4 8.7 57.3 8.3 C 57.2 8.1 57.2 7.7 57.2 7.2 C 57.22 7.22 57.2 2.8 57.2 2.8 L 58.4 2.8 C 58.4 2.8 58.41 6.76 58.4 6.8 C 58.4 7.4 58.4 7.8 58.5 8 C 58.6 8.3 58.7 8.6 59 8.8 C 59.2 8.9 59.5 9 59.9 9 C 60.2 9 60.6 8.9 60.9 8.8 C 61.2 8.6 61.4 8.3 61.5 8 C 61.7 7.7 61.7 7.2 61.7 6.6 C 61.74 6.63 61.7 2.8 61.7 2.8 L 62.9 2.8 L 62.9 9.9 L 61.9 9.9 Z M 64.7 9.9 L 64.7 2.8 L 65.7 2.8 C 65.7 2.8 65.73 3.84 65.7 3.8 C 65.9 3.5 66.2 3.2 66.6 3 C 67 2.8 67.4 2.7 67.9 2.7 C 68.4 2.7 68.8 2.8 69.2 3 C 69.5 3.2 69.7 3.5 69.9 3.9 C 70.4 3.1 71.1 2.7 72 2.7 C 72.7 2.7 73.3 2.9 73.7 3.3 C 74 3.7 74.2 4.3 74.2 5.1 C 74.21 5.06 74.2 9.9 74.2 9.9 L 73 9.9 C 73 9.9 73.03 5.46 73 5.5 C 73 5 73 4.6 72.9 4.4 C 72.8 4.2 72.7 4 72.5 3.9 C 72.3 3.8 72 3.7 71.8 3.7 C 71.3 3.7 70.9 3.9 70.5 4.2 C 70.2 4.5 70 5.1 70 5.8 C 70.04 5.8 70 9.9 70 9.9 L 68.8 9.9 C 68.8 9.9 68.85 5.32 68.8 5.3 C 68.8 4.8 68.8 4.4 68.6 4.1 C 68.4 3.9 68 3.7 67.6 3.7 C 67.3 3.7 67 3.8 66.7 4 C 66.4 4.2 66.2 4.4 66 4.8 C 65.9 5.1 65.9 5.6 65.9 6.2 C 65.85 6.24 65.9 9.9 65.9 9.9 L 64.7 9.9 Z M 80.7 7.6 C 80.7 7.6 82 7.8 82 7.8 C 81.8 8.5 81.4 9.1 80.9 9.5 C 80.4 9.9 79.7 10.1 78.9 10.1 C 77.8 10.1 77 9.7 76.4 9.1 C 75.8 8.5 75.5 7.6 75.5 6.4 C 75.5 5.2 75.8 4.3 76.4 3.7 C 77 3 77.8 2.7 78.8 2.7 C 79.7 2.7 80.5 3 81.1 3.7 C 81.7 4.3 82 5.2 82 6.4 C 82 6.4 82 6.5 82 6.7 C 82 6.7 76.7 6.7 76.7 6.7 C 76.8 7.5 77 8 77.4 8.5 C 77.8 8.9 78.3 9.1 78.9 9.1 C 79.3 9.1 79.7 9 80 8.7 C 80.3 8.5 80.6 8.1 80.7 7.6 Z M 76.8 5.7 C 76.8 5.7 80.8 5.7 80.8 5.7 C 80.7 5.1 80.5 4.7 80.3 4.4 C 79.9 3.9 79.4 3.7 78.8 3.7 C 78.3 3.7 77.8 3.9 77.4 4.2 C 77.1 4.6 76.9 5.1 76.8 5.7 Z " stroke="none" fill="#ffffff"/>
  </g>
</svg>