<?xml version="1.0" standalone="no"?><!DOCTYPE svg PUBLIC "-//W3C//DTD SVG 1.1//EN" "http://www.w3.org/Graphics/SVG/1.1/DTD/svg11.dtd"><svg xmlns="http://www.w3.org/2000/svg" version="1.1" width="84px" height="40.8px" viewBox="0 -4 84 40.8" style="top:-4px"><desc>at Least 50% LED Lighting</desc><defs/><g id="Polygon69172"><path d="m.8 20.8l0-7.7l1 0l0 6.8l3.8 0l0 .9l-4.8 0zm5.9 0l0-7.7l5.6 0l0 .9l-4.6 0l0 2.4l4.3 0l0 .9l-4.3 0l0 2.6l4.8 0l0 .9l-5.8 0zm7 0l0-7.7c0 0 2.7-.01 2.7 0c.6 0 1.1 0 1.4.1c.4.1.8.3 1.1.6c.4.3.7.7.9 1.3c.2.5.3 1.1.3 1.8c0 .6 0 1.1-.2 1.6c-.1.4-.3.8-.5 1.1c-.2.3-.5.5-.7.7c-.3.2-.6.3-.9.4c-.4.1-.8.1-1.3.1c.03.02-2.8 0-2.8 0zm1.1-.9c0 0 1.61.01 1.6 0c.5 0 .9 0 1.2-.1c.3-.1.5-.3.7-.4c.2-.3.4-.6.6-1c.1-.4.2-.9.2-1.5c0-.8-.2-1.4-.4-1.9c-.3-.4-.6-.7-1-.8c-.3-.1-.7-.2-1.3-.2c-.01 0-1.6 0-1.6 0l0 5.9zm9.7.9l0-7.7l1 0l0 6.8l3.8 0l0 .9l-4.8 0zm5.8-6.6l0-1.1l.9 0l0 1.1l-.9 0zm0 6.6l0-5.6l.9 0l0 5.6l-.9 0zm2.2.5c0 0 .9.1.9.1c0 .3.1.5.3.6c.3.2.6.3 1 .3c.4 0 .8-.1 1-.3c.2-.1.4-.4.5-.7c0-.2.1-.6.1-1.2c-.5.5-1 .7-1.6.7c-.8 0-1.4-.3-1.8-.8c-.4-.6-.6-1.2-.6-2c0-.5.1-1 .3-1.5c.2-.4.4-.8.8-1c.4-.3.8-.4 1.3-.4c.7 0 1.2.3 1.6.8c.04 0 0-.7 0-.7l.9 0c0 0 .02 4.86 0 4.9c0 .8-.1 1.5-.2 1.8c-.2.4-.5.7-.9.9c-.4.2-.8.3-1.4.3c-.7 0-1.2-.2-1.6-.5c-.4-.3-.6-.7-.6-1.3zm.8-3.4c0 .8.1 1.3.4 1.6c.3.4.7.5 1.1.5c.4 0 .8-.1 1.1-.5c.3-.3.4-.8.4-1.5c0-.7-.1-1.2-.4-1.6c-.3-.3-.7-.5-1.1-.5c-.4 0-.8.2-1.1.5c-.3.3-.4.8-.4 1.5zm5.3 2.9l0-7.7l.9 0c0 0 .01 2.77 0 2.8c.5-.5 1-.8 1.7-.8c.4 0 .8.1 1.1.2c.3.2.5.4.6.7c.2.3.2.7.2 1.3c.02-.03 0 3.5 0 3.5l-.9 0c0 0-.03-3.53 0-3.5c0-.5-.1-.8-.3-1.1c-.2-.2-.5-.3-.9-.3c-.3 0-.6.1-.8.2c-.3.2-.4.4-.5.6c-.1.3-.2.6-.2 1.1c.01-.04 0 3 0 3l-.9 0zm7.4-.8c.1 0 .3 0 .5 0c0 0 .1.8.1.8c-.3.1-.5.1-.7.1c-.4 0-.6-.1-.8-.2c-.2-.1-.3-.2-.4-.4c-.1-.2-.1-.5-.1-1.1c-.04-.02 0-3.2 0-3.2l-.7 0l0-.8l.7 0l0-1.4l.9-.5l0 1.9l1 0l0 .8l-1 0c0 0 0 3.24 0 3.2c0 .3 0 .5.1.6c0 0 0 .1.1.1c.1.1.2.1.3.1c0 0 0 0 0 0zm1.4-5.8l0-1.1l.9 0l0 1.1l-.9 0zm0 6.6l0-5.6l.9 0l0 5.6l-.9 0zm2.2 0l0-5.6l.9 0c0 0 0 .82 0 .8c.4-.6 1-.9 1.8-.9c.3 0 .6.1.9.2c.3.1.5.3.6.5c.2.2.3.4.3.7c.1.1.1.4.1.9c0-.02 0 3.4 0 3.4l-1 0c0 0 .05-3.38 0-3.4c0-.4 0-.7-.1-.9c0-.1-.2-.3-.4-.4c-.1-.1-.4-.2-.6-.2c-.4 0-.8.1-1.1.4c-.3.3-.4.7-.4 1.5c-.01-.04 0 3 0 3l-1 0zm5.8.5c0 0 .9.1.9.1c.1.3.2.5.3.6c.3.2.6.3 1 .3c.4 0 .8-.1 1-.3c.3-.1.4-.4.5-.7c.1-.2.1-.6.1-1.2c-.4.5-1 .7-1.6.7c-.7 0-1.3-.3-1.8-.8c-.4-.6-.6-1.2-.6-2c0-.5.1-1 .3-1.5c.2-.4.5-.8.8-1c.4-.3.8-.4 1.3-.4c.7 0 1.2.3 1.7.8c-.03 0 0-.7 0-.7l.8 0c0 0 .04 4.86 0 4.9c0 .8 0 1.5-.2 1.8c-.2.4-.5.7-.9.9c-.4.2-.8.3-1.4.3c-.7 0-1.2-.2-1.6-.5c-.4-.3-.6-.7-.6-1.3zm.8-3.4c0 .8.1 1.3.4 1.6c.3.4.7.5 1.1.5c.5 0 .8-.1 1.1-.5c.3-.3.5-.8.5-1.5c0-.7-.2-1.2-.5-1.6c-.3-.3-.7-.5-1.1-.5c-.4 0-.8.2-1.1.5c-.3.3-.4.8-.4 1.5z" stroke="none" fill="#ffffff"/></g><g id="Polygon69171"><path d="m4.6 7.9c-.1-.2-.2-.5-.2-.7c-.4.3-.7.5-1 .6c-.4.1-.7.2-1.1.2c-.6 0-1.1-.2-1.4-.5c-.3-.3-.5-.6-.5-1.1c0-.3.1-.5.2-.8c.1-.2.3-.4.5-.5c.2-.1.4-.3.7-.3c.1-.1.4-.1.8-.2c.8-.1 1.3-.2 1.7-.3c0-.1 0-.2 0-.2c0-.4-.1-.7-.3-.9c-.2-.2-.6-.3-1.1-.3c-.4 0-.7.1-.9.3c-.3.1-.4.4-.5.8c0 0-.9-.1-.9-.1c0-.4.2-.8.4-1c.2-.2.4-.4.8-.6c.4-.1.8-.2 1.3-.2c.5 0 .8.1 1.1.2c.3.1.6.3.7.4c.1.2.2.4.3.7c0 .1 0 .4 0 .9c0 0 0 1.2 0 1.2c0 .9.1 1.5.1 1.7c0 .2.1.4.2.7c.05-.04-.9 0-.9 0c0 0-.04-.04 0 0zm-.3-2.8c-.4.1-.9.2-1.6.3c-.4.1-.6.1-.8.2c-.2.1-.3.2-.4.3c-.1.1-.1.3-.1.5c0 .2.1.4.3.6c.2.2.5.2.8.2c.4 0 .7 0 1-.2c.3-.2.5-.4.6-.7c.1-.2.2-.5.2-.9c0 0 0-.3 0-.3zm3.9 2c.1 0 .3-.1.4-.1c0 0 .2.9.2.9c-.3 0-.5 0-.7 0c-.4 0-.7 0-.9-.1c-.1-.1-.3-.3-.4-.5c0-.1-.1-.5-.1-1.1c.03.02 0-3.2 0-3.2l-.7 0l0-.7l.7 0l0-1.4l1-.6l0 2l.9 0l0 .7l-.9 0c0 0-.02 3.28 0 3.3c0 .2 0 .4 0 .5c.1.1.1.1.2.2c.1 0 .2.1.3.1c0 0 0 0 0 0zm4.4.8l0-7.8l1.1 0l0 6.9l3.8 0l0 .9l-4.9 0zm9.6-1.8c0 0 1 .1 1 .1c-.1.6-.4 1-.8 1.3c-.5.3-1 .5-1.6.5c-.9 0-1.5-.3-2-.8c-.5-.5-.7-1.2-.7-2.1c0-.9.2-1.7.7-2.2c.5-.5 1.1-.8 1.9-.8c.8 0 1.4.3 1.8.8c.5.5.7 1.2.7 2.2c0 0 0 .1 0 .2c0 0-4.1 0-4.1 0c0 .6.2 1.1.5 1.4c.3.3.7.5 1.2.5c.3 0 .6-.1.9-.3c.2-.1.4-.4.5-.8zm-3.1-1.6c0 0 3.1 0 3.1 0c0-.4-.1-.8-.3-1c-.3-.4-.7-.6-1.2-.6c-.4 0-.8.2-1.1.5c-.3.2-.4.6-.5 1.1zm9.1 3.4c-.1-.2-.2-.5-.2-.7c-.4.3-.7.5-1 .6c-.4.1-.7.2-1.1.2c-.6 0-1.1-.2-1.4-.5c-.3-.3-.5-.6-.5-1.1c0-.3.1-.5.2-.8c.1-.2.3-.4.5-.5c.2-.1.4-.3.7-.3c.2-.1.4-.1.8-.2c.8-.1 1.3-.2 1.7-.3c0-.1 0-.2 0-.2c0-.4-.1-.7-.3-.9c-.2-.2-.6-.3-1-.3c-.5 0-.8.1-1 .3c-.2.1-.4.4-.5.8c0 0-.9-.1-.9-.1c.1-.4.2-.8.4-1c.2-.2.5-.4.8-.6c.4-.1.8-.2 1.3-.2c.5 0 .9.1 1.2.2c.3.1.5.3.6.4c.2.2.3.4.3.7c0 .1.1.4.1.9c0 0 0 1.2 0 1.2c0 .9 0 1.5 0 1.7c.1.2.1.4.3.7c-.03-.04-1 0-1 0c0 0-.03-.04 0 0zm-.3-2.8c-.3.1-.9.2-1.5.3c-.4.1-.7.1-.9.2c-.1.1-.3.2-.3.3c-.1.1-.2.3-.2.5c0 .2.1.4.3.6c.2.2.5.2.8.2c.4 0 .7 0 1-.2c.3-.2.5-.4.7-.7c.1-.2.1-.5.1-.9c0 0 0-.3 0-.3zm1.9 1.1c0 0 1-.2 1-.2c0 .4.2.7.4.9c.3.2.6.3 1 .3c.5 0 .8-.1 1-.3c.2-.1.3-.3.3-.6c0-.2-.1-.4-.3-.5c-.1-.1-.4-.2-.9-.3c-.7-.2-1.2-.3-1.5-.5c-.2-.1-.5-.3-.6-.5c-.1-.2-.2-.5-.2-.8c0-.2.1-.4.2-.6c.1-.3.2-.4.4-.6c.2-.1.4-.2.6-.3c.3 0 .6-.1.9-.1c.4 0 .8.1 1.1.2c.4.2.6.3.8.5c.1.3.2.5.3.9c0 0-.9.1-.9.1c-.1-.3-.2-.5-.4-.6c-.2-.2-.5-.3-.9-.3c-.4 0-.7.1-.9.2c-.2.2-.3.3-.3.5c0 .2.1.3.1.4c.1.1.2.2.4.2c.1.1.4.1.8.3c.7.1 1.2.3 1.4.4c.3.1.5.3.7.5c.1.2.2.5.2.8c0 .3-.1.6-.3.9c-.2.3-.4.5-.8.7c-.3.1-.7.2-1.2.2c-.7 0-1.2-.2-1.6-.5c-.4-.3-.7-.7-.8-1.3zm7.3.9c.2 0 .3-.1.5-.1c0 0 .1.9.1.9c-.3 0-.5 0-.7 0c-.4 0-.6 0-.8-.1c-.2-.1-.3-.3-.4-.5c-.1-.1-.1-.5-.1-1.1c-.04.02 0-3.2 0-3.2l-.7 0l0-.7l.7 0l0-1.4l.9-.6l0 2l1 0l0 .7l-1 0c0 0 .01 3.28 0 3.3c0 .2 0 .4.1.5c0 .1 0 .1.1.2c.1 0 .2.1.3.1c0 0 0 0 0 0zm4.1-1.3c0 0 1 0 1 0c.1.4.3.8.5 1c.3.3.6.4 1 .4c.5 0 .9-.2 1.2-.5c.3-.3.4-.8.4-1.4c0-.5-.1-.9-.4-1.3c-.3-.3-.7-.4-1.2-.4c-.3 0-.6 0-.8.2c-.3.1-.5.3-.6.5c-.01.02-.9-.1-.9-.1l.7-4l3.9 0l0 .9l-3.1 0c0 0-.41 2.12-.4 2.1c.5-.3.9-.5 1.4-.5c.7 0 1.3.3 1.8.7c.4.5.7 1.1.7 1.8c0 .7-.3 1.3-.7 1.9c-.5.6-1.1.9-2 .9c-.7 0-1.3-.2-1.7-.6c-.5-.4-.7-.9-.8-1.6zm6.8 1.4c-.5-.7-.7-1.7-.7-3.2c0-.9.1-1.6.2-2.2c.2-.5.5-.9.9-1.2c.4-.3.8-.5 1.4-.5c.4 0 .8.1 1.1.3c.3.1.5.4.8.7c.2.3.3.7.4 1.1c.1.5.2 1.1.2 1.8c0 1-.1 1.7-.3 2.2c-.2.6-.4 1-.8 1.3c-.4.3-.8.5-1.4.5c-.8 0-1.3-.3-1.8-.8c0 0 0 0 0 0zm.7-5.8c-.3.5-.5 1.4-.5 2.6c0 1.3.2 2.2.5 2.6c.3.4.7.6 1.1.6c.4 0 .8-.2 1.1-.6c.3-.4.4-1.3.4-2.6c0-1.2-.1-2.1-.4-2.5c-.3-.4-.7-.6-1.1-.6c-.5 0-.8.2-1.1.5c0 0 0 0 0 0zm4.6.6c0-.6.1-1 .4-1.4c.3-.4.7-.6 1.2-.6c.5 0 .9.2 1.2.5c.4.4.5.9.5 1.5c0 .7-.1 1.2-.5 1.6c-.3.3-.7.5-1.2.5c-.4 0-.8-.2-1.1-.5c-.3-.4-.5-.9-.5-1.6zm1.7-1.3c-.3 0-.5.1-.6.3c-.2.2-.3.5-.3 1.1c0 .5.1.8.3 1c.1.2.3.3.6.3c.2 0 .4-.1.6-.3c.1-.2.2-.5.2-1.1c0-.5-.1-.8-.3-1c-.1-.2-.3-.3-.5-.3zm0 7.4l4.2-8.1l.8 0l-4.3 8.1l-.7 0zm3.3-2.1c0-.5.1-1 .4-1.4c.3-.3.7-.5 1.2-.5c.5 0 .9.1 1.2.5c.4.3.5.8.5 1.5c0 .7-.1 1.2-.5 1.5c-.3.4-.7.5-1.2.5c-.4 0-.8-.1-1.1-.5c-.3-.3-.5-.9-.5-1.6zm1.7-1.3c-.3 0-.5.1-.6.3c-.2.2-.3.6-.3 1.1c0 .5.1.9.3 1.1c.1.2.3.3.6.3c.2 0 .4-.1.6-.3c.1-.2.2-.6.2-1.1c0-.5-.1-.9-.2-1.1c-.2-.2-.4-.3-.6-.3z" stroke="none" fill="#ffffff"/></g></svg>