<?xml version="1.0" standalone="no"?><!DOCTYPE svg PUBLIC "-//W3C//DTD SVG 1.1//EN" "http://www.w3.org/Graphics/SVG/1.1/DTD/svg11.dtd"><svg xmlns="http://www.w3.org/2000/svg" version="1.1" width="176px" height="26.9px" viewBox="0 -4 176 26.9" style="top:-4px"><desc>ESG Litigation Roadmap PDF</desc><defs/><g id="Polygon65274"><path d="m.8 7.6l0-7.5l5.5 0l0 1.3l-4 0l0 1.7l3.8 0l0 1.2l-3.8 0l0 2.1l4.2 0l0 1.2l-5.7 0zm6.6-2.4c0 0 1.5-.1 1.5-.1c0 .5.2.8.5 1c.3.3.6.4 1.1.4c.5 0 .9-.1 1.1-.3c.3-.2.4-.5.4-.7c0-.2-.1-.4-.2-.5c-.1-.1-.3-.2-.5-.3c-.2-.1-.6-.2-1.2-.3c-.9-.2-1.4-.5-1.8-.8c-.4-.4-.6-.9-.6-1.5c0-.4.1-.7.3-1.1c.2-.3.5-.6.9-.7c.4-.2.9-.3 1.5-.3c.9 0 1.7.2 2.1.6c.5.4.8 1 .8 1.7c0 0-1.5 0-1.5 0c-.1-.3-.2-.6-.5-.8c-.2-.2-.5-.2-.9-.2c-.5 0-.8 0-1.1.2c-.1.1-.2.3-.2.5c0 .2.1.3.2.5c.2.1.7.3 1.4.5c.8.1 1.3.3 1.7.5c.3.2.6.4.8.8c.2.3.3.7.3 1.2c0 .4-.1.8-.4 1.2c-.2.3-.5.6-1 .8c-.4.2-1 .3-1.6.3c-1 0-1.7-.2-2.2-.7c-.5-.4-.8-1.1-.9-1.9zm10.9-.3l0-1.3l3.2 0c0 0 .04 3.01 0 3c-.3.3-.7.6-1.3.8c-.6.3-1.3.4-1.9.4c-.8 0-1.4-.2-2-.5c-.6-.4-1.1-.8-1.3-1.4c-.3-.7-.5-1.3-.5-2c0-.8.2-1.5.5-2.1c.3-.6.8-1.1 1.4-1.4c.5-.3 1.1-.4 1.8-.4c1 0 1.7.2 2.2.6c.6.4.9.9 1 1.6c0 0-1.5.3-1.5.3c-.1-.4-.3-.7-.6-.9c-.3-.2-.6-.3-1.1-.3c-.6 0-1.1.2-1.5.6c-.4.4-.6 1.1-.6 1.9c0 .9.2 1.6.6 2c.4.5.9.7 1.5.7c.3 0 .7-.1 1-.2c.3-.1.6-.3.8-.5c.01.03 0-.9 0-.9l-1.7 0zm7.6 2.7l0-7.4l1.5 0l0 6.2l3.8 0l0 1.2l-5.3 0zm6.4-6.1l0-1.4l1.4 0l0 1.4l-1.4 0zm0 6.1l0-5.4l1.4 0l0 5.4l-1.4 0zm5.4-5.4l0 1.1l-1 0c0 0-.01 2.24 0 2.2c0 .5 0 .7 0 .8c0 .1.1.2.1.2c.1 0 .2.1.3.1c.1 0 .3-.1.6-.2c0 0 .1 1.2.1 1.2c-.3.1-.7.2-1.1.2c-.3 0-.5-.1-.7-.2c-.3-.1-.4-.2-.5-.3c-.1-.1-.2-.3-.2-.6c0-.1-.1-.5-.1-1c.04.02 0-2.4 0-2.4l-.6 0l0-1.1l.6 0l0-1.1l1.5-.8l0 1.9l1 0zm1-.7l0-1.4l1.4 0l0 1.4l-1.4 0zm0 6.1l0-5.4l1.4 0l0 5.4l-1.4 0zm2.8.6c0-.1 0-.1 0-.2c0 0 1.6.2 1.6.2c0 .2.1.3.2.4c.1.1.3.2.6.2c.4 0 .7-.1.9-.2c.1-.1.2-.2.3-.4c0-.1 0-.3 0-.6c0 0 0-.8 0-.8c-.4.6-.9.8-1.6.8c-.7 0-1.3-.3-1.7-.9c-.4-.5-.5-1.1-.5-1.8c0-.9.2-1.6.6-2.1c.5-.5 1-.7 1.7-.7c.6 0 1.2.3 1.6.9c.03-.04 0-.8 0-.8l1.4 0c0 0-.02 4.89 0 4.9c0 .6-.1 1.1-.2 1.4c-.1.3-.2.6-.4.8c-.2.2-.5.3-.8.4c-.3.1-.7.2-1.2.2c-.9 0-1.6-.2-2-.5c-.4-.3-.5-.7-.5-1.2c0 0 0 0 0 0zm1.2-3.4c0 .6.2 1 .4 1.3c.2.2.5.4.8.4c.4 0 .7-.2.9-.4c.2-.3.4-.7.4-1.3c0-.5-.2-.9-.4-1.2c-.2-.3-.5-.4-.9-.4c-.3 0-.6.1-.8.4c-.2.2-.4.7-.4 1.2zm6.4-.9c0 0-1.3-.3-1.3-.3c.1-.5.4-.9.7-1.1c.4-.3.9-.4 1.6-.4c.7 0 1.2.1 1.5.2c.3.2.5.3.6.6c.2.2.2.6.2 1.3c0 0 0 1.7 0 1.7c0 .4 0 .8.1 1c0 .2.1.5.2.7c0 0-1.4 0-1.4 0c0-.1-.1-.2-.1-.4c-.1-.1-.1-.1-.1-.2c-.2.3-.5.5-.8.6c-.2.1-.5.2-.9.2c-.5 0-1-.2-1.3-.5c-.3-.3-.5-.7-.5-1.1c0-.4.1-.6.2-.9c.2-.2.4-.4.7-.5c.2-.1.6-.3 1.1-.4c.7-.1 1.1-.2 1.4-.3c0 0 0-.2 0-.2c0-.2-.1-.4-.2-.5c-.1-.2-.4-.2-.8-.2c-.2 0-.4 0-.6.1c-.1.1-.2.3-.3.6zm1.9 1.1c-.2.1-.5.2-.9.3c-.4 0-.6.1-.8.2c-.1.1-.2.3-.2.5c0 .2 0 .4.2.5c.1.2.3.3.6.3c.2 0 .5-.1.7-.3c.2-.1.3-.3.4-.5c0-.1 0-.3 0-.7c0 0 0-.3 0-.3zm5.3-2.8l0 1.1l-.9 0c0 0-.04 2.24 0 2.2c0 .5 0 .7 0 .8c0 .1 0 .2.1.2c.1 0 .2.1.3.1c.1 0 .3-.1.5-.2c0 0 .2 1.2.2 1.2c-.4.1-.8.2-1.2.2c-.2 0-.5-.1-.7-.2c-.2-.1-.3-.2-.4-.3c-.1-.1-.2-.3-.2-.6c-.1-.1-.1-.5-.1-1c.01.02 0-2.4 0-2.4l-.7 0l0-1.1l.7 0l0-1.1l1.5-.8l0 1.9l.9 0zm1-.7l0-1.4l1.5 0l0 1.4l-1.5 0zm0 6.1l0-5.4l1.5 0l0 5.4l-1.5 0zm2.6-2.8c0-.4.1-.9.4-1.3c.2-.5.5-.8 1-1.1c.4-.2.9-.3 1.4-.3c.9 0 1.5.2 2.1.8c.5.5.7 1.2.7 2c0 .8-.2 1.5-.8 2.1c-.5.5-1.2.8-2 .8c-.5 0-.9-.1-1.4-.4c-.4-.2-.8-.5-1-1c-.3-.4-.4-.9-.4-1.6zm1.5.1c0 .6.1 1 .4 1.3c.2.2.6.4.9.4c.4 0 .7-.2 1-.4c.2-.3.4-.7.4-1.3c0-.5-.2-.9-.4-1.2c-.3-.3-.6-.4-1-.4c-.3 0-.7.1-.9.4c-.3.3-.4.7-.4 1.2zm10.2 2.7l-1.4 0c0 0-.02-2.73 0-2.7c0-.6 0-1-.1-1.2c-.1-.1-.2-.3-.3-.4c-.1-.1-.3-.1-.5-.1c-.3 0-.5 0-.7.2c-.2.1-.3.3-.4.5c-.1.3-.1.7-.1 1.3c0-.02 0 2.4 0 2.4l-1.4 0l0-5.4l1.3 0c0 0 0 .8 0 .8c.5-.6 1.1-.9 1.8-.9c.3 0 .6 0 .9.1c.2.2.4.3.6.5c.1.2.2.4.2.6c.1.2.1.5.1 1c.02-.04 0 3.3 0 3.3zm4.4 0l0-7.5c0 0 3.21.03 3.2 0c.8 0 1.4.1 1.8.2c.3.2.6.4.8.8c.3.3.4.7.4 1.1c0 .6-.2 1.1-.5 1.4c-.4.4-.9.6-1.5.7c.3.2.6.4.8.7c.2.2.5.6.9 1.2c-.04-.02.9 1.4.9 1.4l-1.8 0c0 0-1.14-1.59-1.1-1.6c-.4-.6-.7-.9-.8-1.1c-.2-.1-.3-.3-.5-.3c-.2-.1-.4-.1-.8-.1c.04.01-.3 0-.3 0l0 3.1l-1.5 0zm1.5-4.3c0 0 1.16.01 1.2 0c.7 0 1.1 0 1.3-.1c.2 0 .3-.2.4-.3c.1-.2.2-.3.2-.6c0-.2-.1-.4-.2-.6c-.1-.1-.3-.2-.6-.3c-.1 0-.5 0-1.1 0c.02 0-1.2 0-1.2 0l0 1.9zm5.8 1.5c0-.4.1-.9.3-1.3c.2-.5.6-.8 1-1.1c.4-.2.9-.3 1.5-.3c.8 0 1.5.2 2 .8c.5.5.8 1.2.8 2c0 .8-.3 1.5-.8 2.1c-.6.5-1.2.8-2 .8c-.5 0-1-.1-1.5-.4c-.4-.2-.8-.5-1-1c-.2-.4-.3-.9-.3-1.6zm1.4.1c0 .6.2 1 .4 1.3c.3.2.6.4 1 .4c.3 0 .7-.2.9-.4c.3-.3.4-.7.4-1.3c0-.5-.1-.9-.4-1.2c-.2-.3-.6-.4-.9-.4c-.4 0-.7.1-1 .4c-.2.3-.4.7-.4 1.2zm6.4-1c0 0-1.3-.3-1.3-.3c.1-.5.4-.9.7-1.1c.4-.3.9-.4 1.6-.4c.7 0 1.1.1 1.5.2c.3.2.5.3.6.6c.2.2.2.6.2 1.3c0 0 0 1.7 0 1.7c0 .4 0 .8.1 1c0 .2.1.5.2.7c0 0-1.4 0-1.4 0c0-.1-.1-.2-.1-.4c-.1-.1-.1-.1-.1-.2c-.2.3-.5.5-.8.6c-.3.1-.6.2-.9.2c-.5 0-1-.2-1.3-.5c-.3-.3-.5-.7-.5-1.1c0-.4.1-.6.2-.9c.2-.2.4-.4.7-.5c.2-.1.6-.3 1.1-.4c.7-.1 1.1-.2 1.4-.3c0 0 0-.2 0-.2c0-.2-.1-.4-.2-.5c-.1-.2-.4-.2-.8-.2c-.2 0-.4 0-.6.1c-.1.1-.2.3-.3.6zm1.9 1.1c-.2.1-.5.2-.9.3c-.4 0-.6.1-.8.2c-.1.1-.2.3-.2.5c0 .2 0 .4.2.5c.1.2.3.3.6.3c.2 0 .5-.1.7-.3c.2-.1.3-.3.3-.5c.1-.1.1-.3.1-.7c0 0 0-.3 0-.3zm7.8 2.6l-1.3 0c0 0-.01-.76 0-.8c-.2.4-.5.6-.8.7c-.3.2-.6.3-.9.3c-.6 0-1.2-.3-1.6-.8c-.5-.5-.7-1.2-.7-2.1c0-.9.2-1.6.7-2.1c.4-.5.9-.7 1.6-.7c.6 0 1.1.2 1.6.7c-.01.04 0-2.7 0-2.7l1.4 0l0 7.5zm-3.8-2.8c0 .6.1 1 .2 1.3c.3.3.6.5 1 .5c.3 0 .6-.1.8-.4c.3-.3.4-.7.4-1.3c0-.6-.1-1-.3-1.3c-.3-.3-.6-.4-.9-.4c-.4 0-.6.1-.9.4c-.2.3-.3.7-.3 1.2zm5.1-2.6l1.4 0c0 0-.03.74 0 .7c.4-.5 1-.8 1.7-.8c.3 0 .6 0 .9.2c.2.1.4.4.6.6c.2-.2.5-.5.8-.6c.3-.2.6-.2.9-.2c.4 0 .7.1 1 .2c.3.2.5.4.6.7c.1.3.2.6.2 1.2c-.05-.04 0 3.4 0 3.4l-1.5 0c0 0 .01-3.07 0-3.1c0-.5 0-.9-.1-1c-.2-.2-.4-.3-.7-.3c-.2 0-.3 0-.5.2c-.2.1-.3.3-.4.5c-.1.2-.1.6-.1 1.1c-.02.03 0 2.6 0 2.6l-1.5 0c0 0 .04-2.94 0-2.9c0-.6 0-.9 0-1.1c-.1-.1-.2-.2-.3-.3c-.1-.1-.2-.1-.4-.1c-.2 0-.4 0-.6.2c-.2.1-.3.3-.4.5c-.1.2-.1.6-.1 1.1c-.02 0 0 2.6 0 2.6l-1.5 0l0-5.4zm10.6 1.7c0 0-1.3-.3-1.3-.3c.1-.5.4-.9.7-1.1c.4-.3.9-.4 1.6-.4c.7 0 1.1.1 1.5.2c.3.2.5.3.6.6c.1.2.2.6.2 1.3c0 0 0 1.7 0 1.7c0 .4 0 .8.1 1c0 .2.1.5.2.7c0 0-1.4 0-1.4 0c0-.1-.1-.2-.1-.4c-.1-.1-.1-.1-.1-.2c-.2.3-.5.5-.8.6c-.3.1-.6.2-.9.2c-.5 0-1-.2-1.3-.5c-.3-.3-.5-.7-.5-1.1c0-.4.1-.6.2-.9c.2-.2.4-.4.6-.5c.3-.1.7-.3 1.2-.4c.7-.1 1.1-.2 1.4-.3c0 0 0-.2 0-.2c0-.2-.1-.4-.2-.5c-.1-.2-.4-.2-.8-.2c-.2 0-.4 0-.6.1c-.1.1-.2.3-.3.6zm1.9 1.1c-.2.1-.5.2-.9.3c-.4 0-.6.1-.8.2c-.2.1-.3.3-.3.5c0 .2.1.4.3.5c.1.2.3.3.5.3c.3 0 .6-.1.8-.3c.2-.1.3-.3.3-.5c.1-.1.1-.3.1-.7c0 0 0-.3 0-.3zm2.8-2.8l1.3 0c0 0 .03.8 0 .8c.2-.3.4-.5.7-.7c.3-.1.7-.2 1-.2c.7 0 1.2.2 1.6.7c.5.5.7 1.2.7 2.1c0 .9-.2 1.6-.7 2.1c-.4.5-1 .8-1.6.8c-.3 0-.6-.1-.8-.2c-.2-.1-.5-.3-.8-.6c.03-.03 0 2.7 0 2.7l-1.4 0l0-7.5zm1.4 2.6c0 .6.1 1.1.4 1.4c.2.3.5.4.9.4c.3 0 .6-.1.8-.4c.2-.2.3-.7.3-1.3c0-.6-.1-1-.3-1.3c-.2-.2-.5-.4-.9-.4c-.3 0-.6.2-.8.4c-.3.3-.4.7-.4 1.2zm8 2.8l0-7.5c0 0 2.4.03 2.4 0c.9 0 1.5.1 1.8.1c.4.2.8.4 1.1.8c.3.4.4.8.4 1.4c0 .5-.1.9-.2 1.2c-.2.3-.4.6-.7.7c-.2.2-.5.3-.7.4c-.4.1-.9.1-1.6.1c-.02.01-1 0-1 0l0 2.8l-1.5 0zm1.5-6.2l0 2.1c0 0 .82.03.8 0c.6 0 1 0 1.2-.1c.2-.1.4-.2.5-.4c.1-.1.2-.3.2-.5c0-.3-.1-.5-.3-.7c-.1-.2-.3-.3-.6-.3c-.2-.1-.5-.1-1.1-.1c.02 0-.7 0-.7 0zm5.5-1.3c0 0 2.74.03 2.7 0c.7 0 1.1.1 1.5.2c.4.1.8.3 1.1.7c.3.3.6.7.7 1.2c.2.5.3 1.1.3 1.8c0 .6-.1 1.1-.3 1.6c-.2.5-.4.9-.8 1.3c-.2.2-.6.4-1 .6c-.4.1-.8.1-1.4.1c.02.04-2.8 0-2.8 0l0-7.5zm1.5 1.3l0 5c0 0 1.12-.02 1.1 0c.4 0 .7 0 .9-.1c.3-.1.5-.2.6-.3c.2-.2.3-.4.4-.7c.1-.4.2-.8.2-1.4c0-.6-.1-1-.2-1.3c-.1-.4-.2-.6-.4-.8c-.2-.1-.4-.3-.7-.3c-.2-.1-.6-.1-1.2-.1c-.03 0-.7 0-.7 0zm6.1 6.2l0-7.5l5.1 0l0 1.3l-3.6 0l0 1.8l3.1 0l0 1.3l-3.1 0l0 3.1l-1.5 0z" stroke="none" fill="#ffffff"/></g></svg>