<?xml version="1.0" standalone="no"?><!DOCTYPE svg PUBLIC "-//W3C//DTD SVG 1.1//EN" "http://www.w3.org/Graphics/SVG/1.1/DTD/svg11.dtd"><svg xmlns="http://www.w3.org/2000/svg" version="1.1" width="55px" height="29.3px" viewBox="0 -5 55 29.3" style="top:-5px"><desc>2020</desc><defs/><g id="Polygon68571"><path d="m7.7 9.8l0 1.3c0 0-7.24-.01-7.2 0c0-.3 0-.6.1-.9c.2-.5.5-1 .9-1.5c.4-.5 1-1 1.7-1.6c1.2-1 2-1.8 2.5-2.4c.4-.5.6-1.1.6-1.6c0-.5-.2-.9-.6-1.3c-.4-.4-.9-.6-1.5-.6c-.6 0-1.1.2-1.5.6c-.4.4-.6 1-.6 1.6c0 0-1.4-.1-1.4-.1c.1-1 .5-1.8 1.1-2.4c.6-.5 1.4-.8 2.5-.8c1 0 1.8.3 2.4.9c.6.6 1 1.3 1 2.2c0 .4-.1.8-.3 1.3c-.2.4-.5.8-.9 1.3c-.4.5-1.1 1.1-2.1 1.9c-.8.7-1.3 1.1-1.5 1.4c-.2.2-.4.5-.6.7c.02 0 5.4 0 5.4 0zm2.5.3c-.7-.9-1.1-2.3-1.1-4.4c0-1.3.1-2.3.4-3.1c.3-.8.7-1.4 1.2-1.8c.5-.4 1.2-.7 2-.7c.5 0 1.1.2 1.5.4c.4.2.8.6 1.1 1c.3.5.5 1 .7 1.6c.1.7.2 1.5.2 2.6c0 1.3-.1 2.3-.4 3.1c-.2.8-.6 1.4-1.2 1.8c-.5.5-1.1.7-1.9.7c-1.1 0-1.9-.4-2.5-1.2c0 0 0 0 0 0zm1-8.1c-.5.7-.7 1.9-.7 3.7c0 1.8.2 3 .6 3.6c.4.6.9.9 1.6.9c.6 0 1.1-.3 1.5-.9c.4-.6.6-1.8.6-3.6c0-1.8-.2-3-.6-3.6c-.4-.6-.9-.9-1.6-.9c-.6 0-1.1.3-1.4.8c0 0 0 0 0 0zm13.4 7.8l0 1.3c0 0-7.2-.01-7.2 0c0-.3 0-.6.2-.9c.1-.5.4-1 .8-1.5c.4-.5 1-1 1.8-1.6c1.2-1 2-1.8 2.4-2.4c.4-.5.6-1.1.6-1.6c0-.5-.2-.9-.6-1.3c-.3-.4-.8-.6-1.4-.6c-.7 0-1.2.2-1.6.6c-.4.4-.6 1-.6 1.6c0 0-1.3-.1-1.3-.1c0-1 .4-1.8 1-2.4c.6-.5 1.5-.8 2.5-.8c1 0 1.9.3 2.5.9c.6.6.9 1.3.9 2.2c0 .4-.1.8-.3 1.3c-.2.4-.4.8-.9 1.3c-.4.5-1.1 1.1-2 1.9c-.8.7-1.3 1.1-1.6 1.4c-.2.2-.4.5-.5.7c-.04 0 5.3 0 5.3 0zm2.5.3c-.7-.9-1.1-2.3-1.1-4.4c0-1.3.2-2.3.4-3.1c.3-.8.7-1.4 1.2-1.8c.5-.4 1.2-.7 2-.7c.6 0 1.1.2 1.5.4c.5.2.8.6 1.1 1c.3.5.5 1 .7 1.6c.2.7.3 1.5.3 2.6c0 1.3-.2 2.3-.4 3.1c-.3.8-.7 1.4-1.2 1.8c-.5.5-1.2.7-2 .7c-1.1 0-1.9-.4-2.5-1.2c0 0 0 0 0 0zm1-8.1c-.4.7-.7 1.9-.7 3.7c0 1.8.2 3 .6 3.6c.5.6 1 .9 1.6.9c.6 0 1.1-.3 1.5-.9c.5-.6.7-1.8.7-3.6c0-1.8-.2-3-.7-3.6c-.4-.6-.9-.9-1.5-.9c-.6 0-1.1.3-1.5.8c0 0 0 0 0 0z" stroke="none" fill="#54626c"/></g></svg>