<?xml version="1.0" standalone="no"?>
<!DOCTYPE svg PUBLIC "-//W3C//DTD SVG 1.1//EN" "http://www.w3.org/Graphics/SVG/1.1/DTD/svg11.dtd">
<svg xmlns="http://www.w3.org/2000/svg" version="1.1" width="202.2px" height="34.7px" viewBox="0 -5 202.2 34.7" style="top:-5px">
  <desc>Sequestration</desc>
  <defs/>
  <g id="Polygon60325">
    <path d="M 0.6 6.5 C 0.6 6.5 1.7 6.4 1.7 6.4 C 1.8 6.8 1.9 7.2 2.1 7.5 C 2.3 7.8 2.6 8 3.1 8.2 C 3.5 8.4 4 8.5 4.5 8.5 C 5 8.5 5.4 8.4 5.7 8.3 C 6.1 8.2 6.4 8 6.5 7.7 C 6.7 7.5 6.8 7.2 6.8 6.9 C 6.8 6.6 6.7 6.4 6.5 6.2 C 6.4 5.9 6.1 5.8 5.7 5.6 C 5.5 5.5 4.9 5.4 4 5.2 C 3.2 5 2.6 4.8 2.3 4.6 C 1.8 4.3 1.5 4.1 1.3 3.7 C 1 3.4 0.9 3 0.9 2.6 C 0.9 2.1 1.1 1.7 1.3 1.2 C 1.6 0.8 2 0.5 2.5 0.3 C 3 0.1 3.6 0 4.2 0 C 4.9 0 5.5 0.1 6 0.3 C 6.6 0.6 7 0.9 7.2 1.3 C 7.5 1.7 7.7 2.2 7.7 2.8 C 7.7 2.8 6.5 2.9 6.5 2.9 C 6.5 2.3 6.2 1.8 5.9 1.5 C 5.5 1.2 5 1.1 4.3 1.1 C 3.5 1.1 3 1.2 2.6 1.5 C 2.3 1.8 2.1 2.1 2.1 2.5 C 2.1 2.8 2.2 3.1 2.5 3.3 C 2.7 3.5 3.3 3.7 4.3 4 C 5.3 4.2 6 4.4 6.4 4.6 C 6.9 4.8 7.3 5.1 7.6 5.5 C 7.8 5.9 8 6.3 8 6.8 C 8 7.3 7.8 7.8 7.5 8.2 C 7.3 8.7 6.9 9 6.3 9.2 C 5.8 9.5 5.2 9.6 4.5 9.6 C 3.7 9.6 3 9.5 2.4 9.2 C 1.9 9 1.4 8.6 1.1 8.1 C 0.8 7.6 0.6 7.1 0.6 6.5 Z M 14.1 7.3 C 14.1 7.3 15.2 7.4 15.2 7.4 C 15 8.1 14.7 8.6 14.2 9 C 13.7 9.4 13.1 9.6 12.3 9.6 C 11.3 9.6 10.5 9.3 9.9 8.7 C 9.4 8.1 9.1 7.2 9.1 6.1 C 9.1 5 9.4 4.1 9.9 3.5 C 10.5 2.9 11.3 2.6 12.2 2.6 C 13.1 2.6 13.8 2.9 14.4 3.5 C 15 4.1 15.3 5 15.3 6.1 C 15.3 6.1 15.3 6.2 15.3 6.4 C 15.3 6.4 10.2 6.4 10.2 6.4 C 10.3 7.1 10.5 7.7 10.9 8.1 C 11.3 8.5 11.7 8.7 12.3 8.7 C 12.7 8.7 13.1 8.5 13.4 8.3 C 13.6 8.1 13.9 7.8 14.1 7.3 Z M 10.3 5.4 C 10.3 5.4 14.1 5.4 14.1 5.4 C 14 4.9 13.9 4.4 13.6 4.2 C 13.3 3.7 12.8 3.5 12.2 3.5 C 11.7 3.5 11.3 3.7 10.9 4 C 10.5 4.4 10.3 4.8 10.3 5.4 Z M 20.9 12 C 20.9 12 20.9 8.73 20.9 8.7 C 20.7 9 20.5 9.2 20.2 9.3 C 19.8 9.5 19.5 9.6 19.1 9.6 C 18.3 9.6 17.7 9.3 17.1 8.6 C 16.5 8 16.2 7.1 16.2 6 C 16.2 5.3 16.3 4.7 16.6 4.2 C 16.8 3.7 17.1 3.3 17.6 3 C 18 2.7 18.5 2.6 19.1 2.6 C 19.9 2.6 20.5 2.9 21 3.6 C 21.02 3.62 21 2.7 21 2.7 L 22 2.7 L 22 12 L 20.9 12 Z M 17.4 6.1 C 17.4 6.9 17.6 7.6 17.9 8 C 18.3 8.4 18.7 8.7 19.2 8.7 C 19.7 8.7 20.1 8.5 20.5 8 C 20.8 7.6 21 7 21 6.2 C 21 5.3 20.8 4.6 20.5 4.1 C 20.1 3.7 19.7 3.5 19.2 3.5 C 18.7 3.5 18.2 3.7 17.9 4.1 C 17.6 4.5 17.4 5.2 17.4 6.1 Z M 28.1 9.4 C 28.1 9.4 28.11 8.45 28.1 8.5 C 27.6 9.2 26.9 9.6 26 9.6 C 25.6 9.6 25.2 9.5 24.9 9.4 C 24.5 9.2 24.3 9 24.1 8.8 C 23.9 8.6 23.8 8.3 23.7 7.9 C 23.7 7.7 23.7 7.4 23.7 6.9 C 23.68 6.88 23.7 2.7 23.7 2.7 L 24.8 2.7 C 24.8 2.7 24.82 6.45 24.8 6.4 C 24.8 7 24.8 7.4 24.9 7.7 C 25 8 25.1 8.2 25.3 8.4 C 25.6 8.5 25.9 8.6 26.2 8.6 C 26.5 8.6 26.9 8.5 27.2 8.3 C 27.5 8.2 27.7 7.9 27.8 7.6 C 27.9 7.3 28 6.9 28 6.3 C 27.99 6.32 28 2.7 28 2.7 L 29.1 2.7 L 29.1 9.4 L 28.1 9.4 Z M 35.4 7.3 C 35.4 7.3 36.6 7.4 36.6 7.4 C 36.4 8.1 36.1 8.6 35.6 9 C 35.1 9.4 34.4 9.6 33.7 9.6 C 32.7 9.6 31.9 9.3 31.3 8.7 C 30.7 8.1 30.5 7.2 30.5 6.1 C 30.5 5 30.7 4.1 31.3 3.5 C 31.9 2.9 32.7 2.6 33.6 2.6 C 34.5 2.6 35.2 2.9 35.8 3.5 C 36.4 4.1 36.7 5 36.7 6.1 C 36.7 6.1 36.7 6.2 36.6 6.4 C 36.6 6.4 31.6 6.4 31.6 6.4 C 31.7 7.1 31.9 7.7 32.3 8.1 C 32.6 8.5 33.1 8.7 33.7 8.7 C 34.1 8.7 34.4 8.5 34.7 8.3 C 35 8.1 35.3 7.8 35.4 7.3 Z M 31.7 5.4 C 31.7 5.4 35.5 5.4 35.5 5.4 C 35.4 4.9 35.3 4.4 35 4.2 C 34.7 3.7 34.2 3.5 33.6 3.5 C 33.1 3.5 32.6 3.7 32.3 4 C 31.9 4.4 31.7 4.8 31.7 5.4 Z M 37.6 7.4 C 37.6 7.4 38.7 7.3 38.7 7.3 C 38.7 7.7 38.9 8.1 39.2 8.3 C 39.5 8.5 39.9 8.7 40.4 8.7 C 40.9 8.7 41.3 8.6 41.6 8.3 C 41.8 8.1 42 7.9 42 7.6 C 42 7.3 41.9 7.1 41.6 7 C 41.5 6.9 41.1 6.7 40.5 6.6 C 39.6 6.4 39.1 6.2 38.7 6 C 38.4 5.9 38.2 5.7 38 5.4 C 37.8 5.1 37.7 4.8 37.7 4.5 C 37.7 4.2 37.8 3.9 38 3.7 C 38.1 3.4 38.3 3.2 38.5 3 C 38.7 2.9 38.9 2.8 39.2 2.7 C 39.5 2.6 39.9 2.6 40.2 2.6 C 40.8 2.6 41.2 2.6 41.6 2.8 C 42 2.9 42.3 3.2 42.5 3.4 C 42.7 3.7 42.8 4 42.9 4.5 C 42.9 4.5 41.8 4.6 41.8 4.6 C 41.7 4.3 41.6 4 41.3 3.8 C 41.1 3.6 40.7 3.5 40.3 3.5 C 39.8 3.5 39.4 3.6 39.2 3.8 C 39 3.9 38.8 4.1 38.8 4.4 C 38.8 4.5 38.9 4.7 39 4.8 C 39.1 4.9 39.2 5 39.4 5.1 C 39.5 5.1 39.9 5.2 40.4 5.4 C 41.2 5.6 41.8 5.8 42.1 5.9 C 42.4 6 42.7 6.2 42.9 6.5 C 43.1 6.8 43.1 7.1 43.1 7.5 C 43.1 7.8 43 8.2 42.8 8.5 C 42.6 8.9 42.3 9.1 41.9 9.3 C 41.4 9.5 41 9.6 40.4 9.6 C 39.6 9.6 38.9 9.4 38.4 9 C 38 8.7 37.7 8.1 37.6 7.4 Z M 46.3 8.5 C 46.5 8.5 46.6 8.5 46.8 8.4 C 46.8 8.4 47 9.4 47 9.4 C 46.7 9.5 46.4 9.5 46.2 9.5 C 45.7 9.5 45.4 9.5 45.2 9.3 C 45 9.2 44.8 9 44.7 8.8 C 44.6 8.6 44.6 8.2 44.6 7.5 C 44.57 7.47 44.6 3.6 44.6 3.6 L 43.7 3.6 L 43.7 2.7 L 44.6 2.7 L 44.6 1.1 L 45.7 0.4 L 45.7 2.7 L 46.8 2.7 L 46.8 3.6 L 45.7 3.6 C 45.7 3.6 45.7 7.54 45.7 7.5 C 45.7 7.9 45.7 8.1 45.8 8.2 C 45.8 8.3 45.9 8.3 46 8.4 C 46 8.4 46.2 8.5 46.3 8.5 C 46.3 8.5 46.3 8.5 46.3 8.5 Z M 47.9 9.4 L 47.9 2.7 L 49 2.7 C 49 2.7 48.96 3.74 49 3.7 C 49.2 3.3 49.5 2.9 49.7 2.8 C 49.9 2.6 50.2 2.6 50.4 2.6 C 50.8 2.6 51.2 2.7 51.6 2.9 C 51.6 2.9 51.2 4 51.2 4 C 50.9 3.8 50.6 3.7 50.4 3.7 C 50.1 3.7 49.9 3.8 49.7 4 C 49.5 4.1 49.3 4.3 49.3 4.6 C 49.1 5 49.1 5.4 49.1 5.9 C 49.07 5.92 49.1 9.4 49.1 9.4 L 47.9 9.4 Z M 56.8 9.4 C 56.7 9.2 56.6 8.9 56.6 8.6 C 56.2 9 55.8 9.2 55.4 9.4 C 55 9.5 54.6 9.6 54.1 9.6 C 53.4 9.6 52.8 9.4 52.4 9.1 C 52 8.7 51.8 8.2 51.8 7.7 C 51.8 7.3 51.9 7 52.1 6.8 C 52.2 6.5 52.4 6.3 52.7 6.1 C 52.9 5.9 53.2 5.8 53.5 5.7 C 53.7 5.7 54 5.6 54.5 5.6 C 55.4 5.5 56.1 5.3 56.5 5.2 C 56.5 5 56.5 4.9 56.5 4.9 C 56.5 4.4 56.4 4.1 56.2 3.9 C 55.9 3.6 55.5 3.5 54.9 3.5 C 54.4 3.5 54 3.6 53.7 3.8 C 53.5 4 53.3 4.3 53.1 4.8 C 53.1 4.8 52 4.6 52 4.6 C 52.1 4.2 52.3 3.8 52.5 3.5 C 52.8 3.2 53.1 3 53.5 2.8 C 54 2.6 54.5 2.6 55.1 2.6 C 55.6 2.6 56.1 2.6 56.5 2.8 C 56.8 2.9 57.1 3.1 57.3 3.3 C 57.4 3.5 57.5 3.7 57.6 4.1 C 57.7 4.2 57.7 4.6 57.7 5.1 C 57.7 5.1 57.7 6.6 57.7 6.6 C 57.7 7.7 57.7 8.4 57.7 8.6 C 57.8 8.9 57.9 9.2 58 9.4 C 58.03 9.44 56.8 9.4 56.8 9.4 C 56.8 9.4 56.84 9.44 56.8 9.4 Z M 56.5 6.1 C 56.1 6.2 55.5 6.4 54.7 6.5 C 54.2 6.6 53.9 6.6 53.7 6.7 C 53.5 6.8 53.3 6.9 53.2 7.1 C 53.1 7.3 53.1 7.4 53.1 7.6 C 53.1 7.9 53.2 8.2 53.4 8.4 C 53.6 8.6 54 8.7 54.4 8.7 C 54.8 8.7 55.2 8.6 55.6 8.4 C 55.9 8.2 56.2 8 56.3 7.6 C 56.5 7.4 56.5 7 56.5 6.5 C 56.5 6.5 56.5 6.1 56.5 6.1 Z M 61.3 8.5 C 61.4 8.5 61.5 8.5 61.8 8.4 C 61.8 8.4 61.9 9.4 61.9 9.4 C 61.6 9.5 61.3 9.5 61.1 9.5 C 60.6 9.5 60.3 9.5 60.1 9.3 C 59.9 9.2 59.7 9 59.6 8.8 C 59.5 8.6 59.5 8.2 59.5 7.5 C 59.47 7.47 59.5 3.6 59.5 3.6 L 58.6 3.6 L 58.6 2.7 L 59.5 2.7 L 59.5 1.1 L 60.6 0.4 L 60.6 2.7 L 61.8 2.7 L 61.8 3.6 L 60.6 3.6 C 60.6 3.6 60.61 7.54 60.6 7.5 C 60.6 7.9 60.6 8.1 60.7 8.2 C 60.7 8.3 60.8 8.3 60.9 8.4 C 61 8.4 61.1 8.5 61.3 8.5 C 61.3 8.5 61.3 8.5 61.3 8.5 Z M 62.8 1.5 L 62.8 0.2 L 64 0.2 L 64 1.5 L 62.8 1.5 Z M 62.8 9.4 L 62.8 2.7 L 64 2.7 L 64 9.4 L 62.8 9.4 Z M 65.3 6.1 C 65.3 4.8 65.6 3.9 66.3 3.3 C 66.9 2.8 67.6 2.6 68.4 2.6 C 69.4 2.6 70.1 2.9 70.7 3.5 C 71.3 4.1 71.6 4.9 71.6 6 C 71.6 6.9 71.4 7.5 71.2 8 C 70.9 8.5 70.5 8.9 70.1 9.2 C 69.6 9.5 69 9.6 68.4 9.6 C 67.5 9.6 66.7 9.3 66.1 8.7 C 65.6 8.1 65.3 7.2 65.3 6.1 Z M 66.4 6.1 C 66.4 6.9 66.6 7.6 67 8 C 67.4 8.4 67.9 8.7 68.4 8.7 C 69 8.7 69.5 8.4 69.8 8 C 70.2 7.6 70.4 6.9 70.4 6 C 70.4 5.2 70.2 4.6 69.8 4.2 C 69.5 3.7 69 3.5 68.4 3.5 C 67.9 3.5 67.4 3.7 67 4.1 C 66.6 4.6 66.4 5.2 66.4 6.1 Z M 72.9 9.4 L 72.9 2.7 L 73.9 2.7 C 73.9 2.7 73.89 3.67 73.9 3.7 C 74.4 2.9 75.1 2.6 76 2.6 C 76.4 2.6 76.8 2.6 77.2 2.8 C 77.5 2.9 77.7 3.1 77.9 3.4 C 78.1 3.6 78.2 3.9 78.3 4.2 C 78.3 4.4 78.3 4.8 78.3 5.3 C 78.33 5.31 78.3 9.4 78.3 9.4 L 77.2 9.4 C 77.2 9.4 77.19 5.35 77.2 5.4 C 77.2 4.9 77.1 4.5 77.1 4.3 C 77 4.1 76.8 3.9 76.6 3.8 C 76.4 3.6 76.1 3.6 75.8 3.6 C 75.3 3.6 74.9 3.7 74.5 4 C 74.2 4.3 74 4.9 74 5.8 C 74.01 5.77 74 9.4 74 9.4 L 72.9 9.4 Z " stroke="none" fill="#fff"/>
  </g>
</svg>