<?xml version="1.0" standalone="no"?>
<!DOCTYPE svg PUBLIC "-//W3C//DTD SVG 1.1//EN" "http://www.w3.org/Graphics/SVG/1.1/DTD/svg11.dtd">
<svg xmlns="http://www.w3.org/2000/svg" version="1.1" width="509.5px" height="72.4px" viewBox="0 -11 509.5 72.4" style="top:-11px">
  <desc>Technology</desc>
  <defs/>
  <g id="Polygon64010">
    <path d="M 8.3 23.3 L 8.3 3.1 L 0.8 3.1 L 0.8 0.4 L 18.9 0.4 L 18.9 3.1 L 11.3 3.1 L 11.3 23.3 L 8.3 23.3 Z M 29.5 18 C 29.5 18 32.4 18.3 32.4 18.3 C 31.9 20 31.1 21.3 29.8 22.3 C 28.6 23.2 27 23.7 25.1 23.7 C 22.7 23.7 20.7 22.9 19.3 21.4 C 17.9 19.9 17.2 17.8 17.2 15.1 C 17.2 12.3 17.9 10.2 19.3 8.6 C 20.8 7.1 22.6 6.3 24.9 6.3 C 27.1 6.3 29 7.1 30.4 8.6 C 31.8 10.1 32.5 12.2 32.5 15 C 32.5 15.1 32.5 15.4 32.5 15.7 C 32.5 15.7 20.1 15.7 20.1 15.7 C 20.2 17.5 20.7 18.9 21.6 19.9 C 22.6 20.9 23.7 21.4 25.1 21.4 C 26.1 21.4 27 21.1 27.7 20.5 C 28.5 20 29 19.1 29.5 18 Z M 20.2 13.4 C 20.2 13.4 29.5 13.4 29.5 13.4 C 29.4 12 29 11 28.4 10.3 C 27.5 9.2 26.4 8.6 25 8.6 C 23.7 8.6 22.6 9.1 21.7 9.9 C 20.8 10.8 20.3 12 20.2 13.4 Z M 46.7 17.2 C 46.7 17.2 49.5 17.6 49.5 17.6 C 49.2 19.5 48.4 21 47.2 22.1 C 45.9 23.1 44.4 23.7 42.6 23.7 C 40.3 23.7 38.5 22.9 37.1 21.4 C 35.7 20 35 17.8 35 15.1 C 35 13.3 35.3 11.7 35.9 10.4 C 36.5 9 37.4 8 38.6 7.3 C 39.9 6.7 41.2 6.3 42.6 6.3 C 44.4 6.3 45.9 6.8 47 7.7 C 48.2 8.6 48.9 9.9 49.2 11.6 C 49.2 11.6 46.5 12 46.5 12 C 46.2 10.9 45.8 10 45.1 9.5 C 44.5 8.9 43.7 8.6 42.7 8.6 C 41.3 8.6 40.2 9.1 39.3 10.2 C 38.4 11.2 37.9 12.8 37.9 15 C 37.9 17.2 38.4 18.8 39.2 19.8 C 40.1 20.9 41.2 21.4 42.6 21.4 C 43.7 21.4 44.6 21 45.3 20.3 C 46.1 19.7 46.5 18.6 46.7 17.2 Z M 51.9 23.3 L 51.9 0.4 L 54.7 0.4 C 54.7 0.4 54.72 8.61 54.7 8.6 C 56 7.1 57.7 6.3 59.7 6.3 C 60.9 6.3 62 6.6 62.9 7.1 C 63.8 7.5 64.4 8.2 64.8 9.1 C 65.2 9.9 65.4 11.2 65.4 12.8 C 65.42 12.78 65.4 23.3 65.4 23.3 L 62.6 23.3 C 62.6 23.3 62.61 12.78 62.6 12.8 C 62.6 11.4 62.3 10.4 61.7 9.7 C 61.1 9.1 60.2 8.8 59.1 8.8 C 58.3 8.8 57.5 9 56.8 9.4 C 56 9.8 55.5 10.4 55.2 11.2 C 54.9 11.9 54.7 12.9 54.7 14.2 C 54.72 14.22 54.7 23.3 54.7 23.3 L 51.9 23.3 Z M 69.7 23.3 L 69.7 6.7 L 72.2 6.7 C 72.2 6.7 72.23 9.06 72.2 9.1 C 73.5 7.2 75.2 6.3 77.5 6.3 C 78.5 6.3 79.4 6.5 80.3 6.9 C 81.1 7.2 81.7 7.7 82.2 8.3 C 82.6 8.9 82.9 9.6 83 10.4 C 83.1 10.9 83.2 11.8 83.2 13.1 C 83.19 13.09 83.2 23.3 83.2 23.3 L 80.4 23.3 C 80.4 23.3 80.38 13.2 80.4 13.2 C 80.4 12.1 80.3 11.2 80 10.6 C 79.8 10.1 79.4 9.6 78.9 9.3 C 78.3 8.9 77.7 8.8 76.9 8.8 C 75.7 8.8 74.7 9.1 73.8 9.9 C 73 10.7 72.5 12.1 72.5 14.2 C 72.52 14.23 72.5 23.3 72.5 23.3 L 69.7 23.3 Z M 86.5 15 C 86.5 11.9 87.3 9.7 89 8.2 C 90.4 6.9 92.2 6.3 94.2 6.3 C 96.5 6.3 98.4 7.1 99.8 8.6 C 101.3 10.1 102 12.1 102 14.8 C 102 16.9 101.7 18.6 101 19.8 C 100.4 21 99.5 22 98.2 22.7 C 97 23.3 95.7 23.7 94.2 23.7 C 91.9 23.7 90 22.9 88.6 21.4 C 87.2 19.9 86.5 17.8 86.5 15 Z M 89.3 15 C 89.3 17.1 89.8 18.7 90.7 19.8 C 91.7 20.8 92.8 21.4 94.2 21.4 C 95.6 21.4 96.8 20.8 97.7 19.8 C 98.6 18.7 99.1 17.1 99.1 14.9 C 99.1 12.9 98.6 11.3 97.7 10.2 C 96.8 9.2 95.6 8.7 94.2 8.7 C 92.8 8.7 91.7 9.2 90.7 10.2 C 89.8 11.3 89.3 12.9 89.3 15 Z M 105.2 23.3 L 105.2 0.4 L 108 0.4 L 108 23.3 L 105.2 23.3 Z M 111.4 15 C 111.4 11.9 112.2 9.7 113.9 8.2 C 115.3 6.9 117.1 6.3 119.1 6.3 C 121.4 6.3 123.3 7.1 124.7 8.6 C 126.2 10.1 126.9 12.1 126.9 14.8 C 126.9 16.9 126.6 18.6 125.9 19.8 C 125.3 21 124.4 22 123.1 22.7 C 121.9 23.3 120.6 23.7 119.1 23.7 C 116.8 23.7 114.9 22.9 113.5 21.4 C 112.1 19.9 111.4 17.8 111.4 15 Z M 114.3 15 C 114.3 17.1 114.7 18.7 115.6 19.8 C 116.6 20.8 117.7 21.4 119.1 21.4 C 120.5 21.4 121.7 20.8 122.6 19.8 C 123.6 18.7 124 17.1 124 14.9 C 124 12.9 123.5 11.3 122.6 10.2 C 121.7 9.2 120.5 8.7 119.1 8.7 C 117.7 8.7 116.6 9.2 115.6 10.2 C 114.7 11.3 114.3 12.9 114.3 15 Z M 129.7 24.7 C 129.7 24.7 132.4 25.1 132.4 25.1 C 132.5 25.9 132.9 26.5 133.4 26.9 C 134.1 27.4 135 27.7 136.2 27.7 C 137.5 27.7 138.5 27.4 139.3 26.9 C 140 26.4 140.4 25.7 140.7 24.7 C 140.8 24.2 140.9 23 140.9 21.1 C 139.7 22.6 138.1 23.3 136.3 23.3 C 134 23.3 132.3 22.5 131 20.8 C 129.8 19.2 129.1 17.2 129.1 14.9 C 129.1 13.3 129.4 11.9 130 10.5 C 130.6 9.2 131.4 8.2 132.5 7.4 C 133.6 6.7 134.8 6.3 136.3 6.3 C 138.3 6.3 139.9 7.1 141.2 8.7 C 141.16 8.7 141.2 6.7 141.2 6.7 L 143.8 6.7 C 143.8 6.7 143.75 21.05 143.8 21 C 143.8 23.6 143.5 25.5 143 26.5 C 142.4 27.6 141.6 28.5 140.5 29.1 C 139.3 29.7 137.9 30 136.3 30 C 134.3 30 132.7 29.6 131.5 28.7 C 130.2 27.8 129.6 26.5 129.7 24.7 Z M 132 14.7 C 132 16.9 132.4 18.5 133.3 19.5 C 134.2 20.5 135.3 21 136.6 21 C 137.9 21 138.9 20.5 139.8 19.5 C 140.7 18.5 141.1 16.9 141.1 14.8 C 141.1 12.8 140.7 11.2 139.8 10.2 C 138.9 9.2 137.8 8.7 136.5 8.7 C 135.3 8.7 134.2 9.2 133.3 10.2 C 132.5 11.2 132 12.7 132 14.7 Z M 149.7 30 C 149.1 30 148.5 29.9 147.9 29.7 C 147.9 29.7 147.6 27 147.6 27 C 148.2 27.2 148.7 27.3 149.2 27.3 C 149.8 27.3 150.3 27.2 150.7 27 C 151 26.8 151.4 26.5 151.6 26.1 C 151.8 25.8 152.1 25.1 152.5 24 C 152.5 23.9 152.6 23.6 152.7 23.3 C 152.7 23.33 146.4 6.7 146.4 6.7 L 149.4 6.7 C 149.4 6.7 152.89 16.31 152.9 16.3 C 153.3 17.5 153.7 18.8 154.1 20.2 C 154.4 18.9 154.8 17.6 155.3 16.4 C 155.25 16.38 158.8 6.7 158.8 6.7 L 161.6 6.7 C 161.6 6.7 155.3 23.58 155.3 23.6 C 154.6 25.4 154.1 26.7 153.7 27.3 C 153.2 28.3 152.6 29 152 29.4 C 151.4 29.8 150.6 30 149.7 30 C 149.7 30 149.7 30 149.7 30 Z " stroke="none" fill="#003a5c"/>
  </g>
</svg>