<?xml version="1.0" standalone="no"?><!DOCTYPE svg PUBLIC "-//W3C//DTD SVG 1.1//EN" "http://www.w3.org/Graphics/SVG/1.1/DTD/svg11.dtd"><svg xmlns="http://www.w3.org/2000/svg" version="1.1" width="569.3px" height="73.6px" viewBox="0 -13 569.3 73.6" style="top:-13px"><desc>Sustainable Operations</desc><defs/><g id="Polygon67259"><path d="m2 22.4c0 0 4-.3 4-.3c.2 1.6.7 2.9 1.4 3.9c.7 1.1 1.7 1.9 3.2 2.5c1.5.7 3.1 1 5 1c1.6 0 3-.3 4.3-.7c1.2-.5 2.1-1.2 2.7-2c.7-.9 1-1.8 1-2.8c0-1-.3-1.9-.9-2.6c-.6-.8-1.6-1.4-2.9-1.9c-.9-.4-2.8-.9-5.8-1.6c-2.9-.7-5-1.4-6.2-2c-1.5-.8-2.7-1.8-3.4-3c-.8-1.2-1.1-2.5-1.1-4c0-1.6.4-3.2 1.3-4.6c1-1.4 2.3-2.5 4.1-3.2c1.8-.7 3.7-1.1 5.9-1.1c2.4 0 4.5.4 6.3 1.2c1.8.7 3.2 1.9 4.2 3.3c1 1.5 1.5 3.2 1.6 5.1c0 0-4.1.3-4.1.3c-.2-2-1-3.5-2.2-4.6c-1.3-1-3.2-1.5-5.6-1.5c-2.6 0-4.5.4-5.7 1.4c-1.1.9-1.7 2.1-1.7 3.4c0 1.1.4 2.1 1.2 2.8c.8.8 3 1.6 6.4 2.3c3.5.8 5.9 1.5 7.2 2.1c1.8.9 3.2 2 4.1 3.3c.9 1.3 1.4 2.8 1.4 4.6c0 1.7-.5 3.3-1.5 4.8c-1 1.5-2.4 2.7-4.2 3.5c-1.9.9-3.9 1.3-6.2 1.3c-3 0-5.4-.4-7.4-1.3c-1.9-.8-3.5-2.1-4.6-3.8c-1.1-1.7-1.7-3.6-1.8-5.8zm46.3 10.4c0 0-.03-3.47 0-3.5c-1.8 2.7-4.3 4-7.4 4c-1.4 0-2.7-.3-3.9-.8c-1.2-.5-2.1-1.2-2.6-2c-.6-.8-1-1.8-1.3-2.9c-.1-.8-.2-2-.2-3.7c-.01-.02 0-14.5 0-14.5l3.9 0c0 0 .05 12.97 0 13c0 2 .1 3.4.3 4.1c.2 1.1.8 1.9 1.6 2.5c.8.6 1.8.9 3 .9c1.1 0 2.3-.3 3.3-.9c1-.6 1.8-1.5 2.2-2.5c.4-1.1.7-2.6.7-4.6c-.04.03 0-12.5 0-12.5l3.9 0l0 23.4l-3.5 0zm8.1-7c0 0 3.9-.6 3.9-.6c.3 1.5.9 2.7 1.9 3.6c1 .8 2.4 1.2 4.2 1.2c1.8 0 3.1-.3 4-1.1c.9-.7 1.3-1.6 1.3-2.6c0-.9-.3-1.6-1.1-2.1c-.6-.3-1.9-.8-4.1-1.3c-2.9-.8-4.9-1.4-6-1.9c-1.1-.6-2-1.3-2.5-2.2c-.6-1-.9-2-.9-3.2c0-1 .2-2 .7-2.9c.5-.9 1.1-1.6 1.9-2.2c.7-.4 1.5-.8 2.6-1.1c1-.3 2.2-.5 3.4-.5c1.8 0 3.4.3 4.8.8c1.4.5 2.4 1.2 3.1 2.1c.6.9 1.1 2.1 1.3 3.6c0 0-3.8.6-3.8.6c-.2-1.2-.7-2.2-1.6-2.8c-.8-.7-2-1-3.5-1c-1.9 0-3.2.3-3.9.9c-.8.6-1.2 1.3-1.2 2.1c0 .5.2.9.5 1.3c.3.5.8.8 1.5 1.1c.4.1 1.6.5 3.5 1c2.8.8 4.8 1.4 5.9 1.8c1.1.5 1.9 1.2 2.6 2.1c.6.9.9 2.1.9 3.4c0 1.3-.4 2.6-1.1 3.7c-.8 1.2-1.9 2.1-3.4 2.7c-1.4.7-3.1 1-4.9 1c-3 0-5.3-.6-6.9-1.9c-1.6-1.3-2.6-3.1-3.1-5.6zm31 3.6c.4 0 1-.1 1.7-.2c0 0 .6 3.5.6 3.5c-1.1.3-2.1.4-3 .4c-1.4 0-2.5-.3-3.3-.7c-.8-.5-1.4-1.1-1.7-1.8c-.3-.7-.5-2.3-.5-4.7c.03.03 0-13.4 0-13.4l-2.9 0l0-3.1l2.9 0l0-5.8l4-2.3l0 8.1l3.9 0l0 3.1l-3.9 0c0 0-.03 13.65 0 13.6c0 1.2 0 1.9.2 2.2c.1.3.3.6.7.8c.3.2.7.3 1.3.3c0 0 0 0 0 0zm21.6 3.4c-.4-.9-.6-1.8-.8-2.9c-1.4 1.2-2.8 2.1-4.2 2.6c-1.3.5-2.8.8-4.4.8c-2.5 0-4.5-.6-5.9-1.9c-1.3-1.2-2-2.8-2-4.8c0-1.1.2-2.2.7-3.1c.6-1 1.3-1.7 2.1-2.3c.8-.6 1.8-1 2.8-1.3c.8-.2 2-.4 3.6-.6c3.1-.4 5.5-.8 7-1.3c0-.6 0-.9 0-1.1c0-1.6-.3-2.7-1.1-3.4c-1-.9-2.5-1.3-4.5-1.3c-1.9 0-3.2.3-4.1 1c-.9.6-1.6 1.8-2 3.4c0 0-3.8-.5-3.8-.5c.3-1.7.9-3 1.7-4c.8-1 2-1.8 3.5-2.4c1.5-.5 3.3-.8 5.3-.8c2 0 3.6.2 4.8.7c1.3.5 2.2 1.1 2.8 1.8c.6.7 1 1.6 1.2 2.7c.1.6.2 1.9.2 3.6c0 0 0 5.3 0 5.3c0 3.7.1 6 .3 7c.1.9.5 1.9 1 2.8c-.04-.04-4.2 0-4.2 0c0 0 .03-.04 0 0zm-1.1-11.8c-1.4.6-3.6 1.1-6.5 1.5c-1.6.3-2.7.5-3.4.8c-.7.3-1.2.8-1.6 1.3c-.3.6-.5 1.2-.5 1.9c0 1.1.4 1.9 1.2 2.6c.8.7 2 1.1 3.5 1.1c1.5 0 2.9-.3 4.1-1c1.1-.7 2-1.6 2.6-2.7c.4-.9.6-2.3.6-4c0 0 0-1.5 0-1.5zm10.2-15.9l0-4.6l3.9 0l0 4.6l-3.9 0zm0 27.7l0-23.4l3.9 0l0 23.4l-3.9 0zm9.9 0l0-23.4l3.6 0c0 0-.01 3.34 0 3.3c1.7-2.5 4.2-3.8 7.4-3.8c1.4 0 2.7.3 3.9.8c1.2.5 2.1 1.1 2.6 1.9c.6.9 1 1.8 1.3 3c.1.7.2 2 .2 3.8c0 .01 0 14.4 0 14.4l-4 0c0 0 .04-14.23 0-14.2c0-1.6-.1-2.8-.4-3.6c-.3-.8-.9-1.5-1.7-2c-.7-.4-1.7-.7-2.7-.7c-1.7 0-3.2.6-4.4 1.6c-1.2 1.1-1.8 3.1-1.8 6.1c-.01.02 0 12.8 0 12.8l-4 0zm41.1 0c-.4-.9-.7-1.8-.8-2.9c-1.5 1.2-2.9 2.1-4.2 2.6c-1.4.5-2.9.8-4.4.8c-2.6 0-4.5-.6-5.9-1.9c-1.4-1.2-2.1-2.8-2.1-4.8c0-1.1.3-2.2.8-3.1c.5-1 1.2-1.7 2-2.3c.9-.6 1.8-1 2.9-1.3c.8-.2 1.9-.4 3.5-.6c3.2-.4 5.6-.8 7.1-1.3c0-.6 0-.9 0-1.1c0-1.6-.4-2.7-1.1-3.4c-1.1-.9-2.6-1.3-4.5-1.3c-1.9 0-3.3.3-4.2 1c-.9.6-1.5 1.8-1.9 3.4c0 0-3.9-.5-3.9-.5c.4-1.7.9-3 1.7-4c.8-1 2-1.8 3.5-2.4c1.6-.5 3.3-.8 5.3-.8c2 0 3.6.2 4.9.7c1.2.5 2.1 1.1 2.7 1.8c.6.7 1 1.6 1.3 2.7c.1.6.2 1.9.2 3.6c0 0 0 5.3 0 5.3c0 3.7 0 6 .2 7c.2.9.5 1.9 1 2.8c.01-.04-4.1 0-4.1 0c0 0-.02-.04 0 0zm-1.1-11.8c-1.5.6-3.6 1.1-6.5 1.5c-1.6.3-2.8.5-3.5.8c-.6.3-1.1.8-1.5 1.3c-.4.6-.6 1.2-.6 1.9c0 1.1.4 1.9 1.2 2.6c.8.7 2 1.1 3.5 1.1c1.6 0 2.9-.3 4.1-1c1.2-.7 2.1-1.6 2.6-2.7c.4-.9.7-2.3.7-4c0 0 0-1.5 0-1.5zm13.7 11.8l-3.6 0l0-32.3l3.9 0c0 0 .02 11.54 0 11.5c1.7-2.1 3.8-3.1 6.4-3.1c1.5 0 2.8.3 4.1.9c1.3.5 2.3 1.4 3.2 2.4c.8 1.1 1.4 2.3 1.9 3.8c.5 1.5.7 3.1.7 4.7c0 4-1 7.1-3 9.3c-1.9 2.2-4.3 3.3-7.1 3.3c-2.7 0-4.9-1.2-6.5-3.5c.04.04 0 3 0 3zm0-11.9c0 2.8.4 4.8 1.1 6.1c1.3 2 3 3 5.1 3c1.7 0 3.2-.7 4.5-2.2c1.2-1.5 1.9-3.8 1.9-6.7c0-3.1-.6-5.3-1.9-6.8c-1.2-1.4-2.6-2.1-4.3-2.1c-1.8 0-3.3.7-4.5 2.2c-1.3 1.5-1.9 3.7-1.9 6.5zm21.3 11.9l0-32.3l4 0l0 32.3l-4 0zm26.1-7.6c0 0 4.1.6 4.1.6c-.7 2.3-1.9 4.2-3.6 5.5c-1.8 1.3-4 2-6.7 2c-3.4 0-6.1-1.1-8.1-3.2c-2-2.1-3-5-3-8.8c0-3.9 1-7 3-9.1c2-2.2 4.7-3.3 7.9-3.3c3.1 0 5.7 1.1 7.6 3.2c2 2.1 3 5.1 3 8.9c0 .3 0 .6 0 1.1c0 0-17.4 0-17.4 0c.1 2.6.9 4.5 2.2 5.9c1.3 1.4 2.9 2 4.8 2c1.5 0 2.7-.3 3.7-1.1c1.1-.8 1.9-2 2.5-3.7zm-13-6.3c0 0 13 0 13 0c-.1-2-.6-3.5-1.5-4.5c-1.2-1.5-2.9-2.2-4.9-2.2c-1.8 0-3.3.6-4.5 1.8c-1.3 1.2-2 2.8-2.1 4.9zm33.8-1.8c0-5.4 1.4-9.6 4.3-12.6c2.8-3 6.5-4.5 11.1-4.5c2.9 0 5.6.7 8 2.1c2.4 1.4 4.2 3.4 5.5 6c1.2 2.5 1.9 5.4 1.9 8.6c0 3.3-.7 6.2-2 8.8c-1.3 2.5-3.2 4.5-5.6 5.8c-2.4 1.3-5 2-7.8 2c-3.1 0-5.8-.7-8.2-2.2c-2.4-1.5-4.2-3.5-5.4-6c-1.2-2.5-1.8-5.2-1.8-8zm4.3 0c0 3.9 1.1 7 3.2 9.2c2.1 2.2 4.7 3.4 7.8 3.4c3.2 0 5.9-1.2 8-3.4c2-2.3 3.1-5.5 3.1-9.6c0-2.6-.5-4.9-1.4-6.9c-.9-1.9-2.1-3.5-3.9-4.5c-1.7-1.1-3.6-1.7-5.7-1.7c-3 0-5.6 1.1-7.8 3.2c-2.2 2-3.3 5.5-3.3 10.3zm31.4 24.6l0-32.3l3.6 0c0 0 .05 3.06 0 3.1c.9-1.2 1.9-2.1 2.9-2.7c1.1-.6 2.4-.9 3.9-.9c2 0 3.8.5 5.3 1.5c1.5 1.1 2.7 2.5 3.4 4.4c.8 1.8 1.2 3.9 1.2 6.1c0 2.4-.4 4.6-1.3 6.5c-.8 1.9-2.1 3.3-3.7 4.4c-1.7 1-3.4 1.5-5.2 1.5c-1.3 0-2.5-.3-3.5-.8c-1.1-.6-1.9-1.3-2.6-2.2c0 .04 0 11.4 0 11.4l-4 0zm3.6-20.5c0 3 .6 5.2 1.8 6.7c1.3 1.4 2.7 2.1 4.5 2.1c1.7 0 3.2-.7 4.5-2.2c1.2-1.5 1.9-3.8 1.9-6.9c0-3-.7-5.2-1.9-6.7c-1.2-1.5-2.7-2.2-4.4-2.2c-1.6 0-3.1.8-4.4 2.4c-1.3 1.5-2 3.8-2 6.8zm37.4 4c0 0 4.1.6 4.1.6c-.6 2.3-1.8 4.2-3.5 5.5c-1.8 1.3-4 2-6.7 2c-3.4 0-6.1-1.1-8.1-3.2c-2-2.1-3-5-3-8.8c0-3.9 1-7 3-9.1c2-2.2 4.6-3.3 7.9-3.3c3.1 0 5.6 1.1 7.6 3.2c2 2.1 3 5.1 3 8.9c0 .3 0 .6-.1 1.1c0 0-17.4 0-17.4 0c.2 2.6.9 4.5 2.2 5.9c1.3 1.4 2.9 2 4.9 2c1.4 0 2.7-.3 3.7-1.1c1-.8 1.8-2 2.4-3.7zm-12.9-6.3c0 0 13 0 13 0c-.2-2-.7-3.5-1.5-4.5c-1.3-1.5-2.9-2.2-4.9-2.2c-1.8 0-3.3.6-4.6 1.8c-1.2 1.2-1.9 2.8-2 4.9zm22 13.9l0-23.4l3.5 0c0 0 .01 3.56 0 3.6c.9-1.7 1.8-2.8 2.5-3.3c.8-.5 1.6-.8 2.6-.8c1.3 0 2.7.4 4 1.3c0 0-1.3 3.6-1.3 3.6c-1-.5-2-.8-2.9-.8c-.9 0-1.7.2-2.4.8c-.6.5-1.1 1.2-1.4 2.1c-.5 1.4-.7 3-.7 4.6c.01.04 0 12.3 0 12.3l-3.9 0zm31 0c-.4-.9-.7-1.8-.8-2.9c-1.5 1.2-2.9 2.1-4.2 2.6c-1.4.5-2.8.8-4.4.8c-2.5 0-4.5-.6-5.9-1.9c-1.4-1.2-2.1-2.8-2.1-4.8c0-1.1.3-2.2.8-3.1c.5-1 1.2-1.7 2.1-2.3c.8-.6 1.8-1 2.8-1.3c.8-.2 2-.4 3.5-.6c3.2-.4 5.6-.8 7.1-1.3c0-.6 0-.9 0-1.1c0-1.6-.4-2.7-1.1-3.4c-1-.9-2.5-1.3-4.5-1.3c-1.9 0-3.3.3-4.1 1c-.9.6-1.6 1.8-2 3.4c0 0-3.9-.5-3.9-.5c.4-1.7 1-3 1.8-4c.8-1 1.9-1.8 3.5-2.4c1.5-.5 3.2-.8 5.2-.8c2 0 3.7.2 4.9.7c1.3.5 2.2 1.1 2.8 1.8c.5.7.9 1.6 1.2 2.7c.1.6.2 1.9.2 3.6c0 0 0 5.3 0 5.3c0 3.7.1 6 .2 7c.2.9.5 1.9 1 2.8c.03-.04-4.1 0-4.1 0c0 0 0-.04 0 0zm-1.1-11.8c-1.5.6-3.6 1.1-6.5 1.5c-1.6.3-2.8.5-3.4.8c-.7.3-1.2.8-1.6 1.3c-.4.6-.5 1.2-.5 1.9c0 1.1.4 1.9 1.2 2.6c.8.7 1.9 1.1 3.5 1.1c1.5 0 2.8-.3 4-1c1.2-.7 2.1-1.6 2.6-2.7c.5-.9.7-2.3.7-4c0 0 0-1.5 0-1.5zm17 8.4c.4 0 1-.1 1.7-.2c0 0 .6 3.5.6 3.5c-1.1.3-2.1.4-3 .4c-1.4 0-2.5-.3-3.3-.7c-.8-.5-1.4-1.1-1.7-1.8c-.3-.7-.5-2.3-.5-4.7c.04.03 0-13.4 0-13.4l-2.9 0l0-3.1l2.9 0l0-5.8l4-2.3l0 8.1l3.9 0l0 3.1l-3.9 0c0 0-.03 13.65 0 13.6c0 1.2 0 1.9.2 2.2c.1.3.3.6.7.8c.3.2.7.3 1.3.3c0 0 0 0 0 0zm5.6-24.3l0-4.6l4 0l0 4.6l-4 0zm0 27.7l0-23.4l4 0l0 23.4l-4 0zm8.5-11.7c0-4.3 1.2-7.5 3.6-9.6c2-1.7 4.5-2.6 7.4-2.6c3.2 0 5.8 1.1 7.8 3.2c2.1 2.1 3.1 5 3.1 8.7c0 3-.4 5.3-1.4 7.1c-.9 1.7-2.2 3-3.9 4c-1.7.9-3.6 1.4-5.6 1.4c-3.3 0-5.9-1.1-7.9-3.2c-2.1-2-3.1-5.1-3.1-9zm4.1 0c0 3 .7 5.2 2 6.7c1.3 1.5 2.9 2.2 4.9 2.2c1.9 0 3.6-.7 4.9-2.2c1.3-1.5 1.9-3.8 1.9-6.8c0-2.9-.6-5.1-1.9-6.6c-1.3-1.5-3-2.2-4.9-2.2c-2 0-3.6.7-4.9 2.2c-1.3 1.5-2 3.7-2 6.7zm22.4 11.7l0-23.4l3.6 0c0 0 0 3.34 0 3.3c1.7-2.5 4.2-3.8 7.4-3.8c1.4 0 2.7.3 3.9.8c1.2.5 2.1 1.1 2.6 1.9c.6.9 1 1.8 1.3 3c.1.7.2 2 .2 3.8c0 .01 0 14.4 0 14.4l-4 0c0 0 .04-14.23 0-14.2c0-1.6-.1-2.8-.4-3.6c-.3-.8-.9-1.5-1.7-2c-.7-.4-1.7-.7-2.7-.7c-1.7 0-3.1.6-4.4 1.6c-1.2 1.1-1.8 3.1-1.8 6.1c-.01.02 0 12.8 0 12.8l-4 0zm23.5-7c0 0 3.9-.6 3.9-.6c.2 1.5.8 2.7 1.8 3.6c1 .8 2.4 1.2 4.2 1.2c1.9 0 3.2-.3 4.1-1.1c.9-.7 1.3-1.6 1.3-2.6c0-.9-.4-1.6-1.2-2.1c-.5-.3-1.9-.8-4-1.3c-2.9-.8-4.9-1.4-6-1.9c-1.2-.6-2-1.3-2.6-2.2c-.6-1-.9-2-.9-3.2c0-1 .3-2 .8-2.9c.4-.9 1.1-1.6 1.9-2.2c.6-.4 1.5-.8 2.5-1.1c1.1-.3 2.2-.5 3.4-.5c1.9 0 3.5.3 4.9.8c1.3.5 2.4 1.2 3 2.1c.7.9 1.1 2.1 1.4 3.6c0 0-3.9.6-3.9.6c-.2-1.2-.7-2.2-1.5-2.8c-.9-.7-2-1-3.6-1c-1.8 0-3.1.3-3.9.9c-.7.6-1.1 1.3-1.1 2.1c0 .5.1.9.4 1.3c.4.5.9.8 1.6 1.1c.4.1 1.5.5 3.5 1c2.8.8 4.7 1.4 5.8 1.8c1.1.5 2 1.2 2.6 2.1c.6.9 1 2.1 1 3.4c0 1.3-.4 2.6-1.2 3.7c-.8 1.2-1.9 2.1-3.3 2.7c-1.5.7-3.1 1-4.9 1c-3.1 0-5.4-.6-7-1.9c-1.6-1.3-2.6-3.1-3-5.6z" stroke="none" fill="#ffffff"/></g></svg>