<?xml version="1.0" standalone="no"?><!DOCTYPE svg PUBLIC "-//W3C//DTD SVG 1.1//EN" "http://www.w3.org/Graphics/SVG/1.1/DTD/svg11.dtd"><svg xmlns="http://www.w3.org/2000/svg" version="1.1" width="49px" height="17.6px" viewBox="0 -3 49 17.6" style="top:-3px"><desc>US Homes</desc><defs/><g id="Polygon70185"><path d="m4 .1l.7 0c0 0 0 3.02 0 3c0 .5-.1 1-.2 1.3c-.1.3-.3.5-.6.7c-.3.2-.7.3-1.3.3c-.4 0-.8-.1-1.2-.2c-.3-.2-.5-.5-.6-.8c-.2-.3-.2-.7-.2-1.3c-.02.02 0-3 0-3l.7 0c0 0-.03 3.01 0 3c0 .5 0 .8.1 1c.1.2.2.4.4.5c.2.1.5.2.8.2c.5 0 .9-.1 1.1-.4c.2-.2.3-.6.3-1.3c0 .01 0-3 0-3zm1.6 3.5c0 0 .6 0 .6 0c0 .2.1.5.2.6c.1.2.3.3.6.4c.2.1.5.2.8.2c.2 0 .5 0 .7-.1c.2-.1.3-.2.4-.3c.1-.2.2-.3.2-.5c0-.2-.1-.3-.2-.4c-.1-.1-.2-.3-.5-.3c-.1-.1-.4-.2-.9-.3c-.5-.1-.8-.2-1-.3c-.3-.1-.4-.3-.6-.5c-.1-.2-.1-.4-.1-.7c0-.2 0-.5.2-.7c.1-.2.3-.4.6-.5c.3-.1.6-.2 1-.2c.4 0 .7.1 1 .2c.3.1.6.3.7.5c.2.3.3.6.3.9c0 0-.7 0-.7 0c0-.3-.2-.6-.4-.7c-.2-.2-.5-.3-.9-.3c-.4 0-.7.1-.9.2c-.2.2-.3.4-.3.6c0 .2.1.3.2.5c.2.1.5.2 1.1.3c.5.2.9.3 1.1.4c.3.1.6.3.7.5c.2.2.2.5.2.7c0 .3-.1.6-.2.8c-.2.3-.4.5-.7.6c-.3.1-.6.2-1 .2c-.5 0-.9-.1-1.2-.2c-.3-.1-.6-.3-.8-.6c-.1-.3-.2-.6-.2-1zm7.1 1.7l0-5.2l.7 0l0 2.1l2.7 0l0-2.1l.7 0l0 5.2l-.7 0l0-2.4l-2.7 0l0 2.4l-.7 0zm5.1-2.5c0-.9.2-1.6.7-2.1c.5-.5 1.1-.7 1.8-.7c.5 0 .9.1 1.3.3c.4.3.7.6.9 1c.2.4.3.9.3 1.4c0 .5-.1 1-.3 1.4c-.2.5-.5.8-.9 1c-.4.2-.9.3-1.3.3c-.5 0-.9-.1-1.3-.3c-.4-.3-.7-.6-.9-1c-.2-.4-.3-.9-.3-1.3zm.7 0c0 .6.2 1.1.5 1.5c.3.3.8.5 1.3.5c.5 0 .9-.2 1.3-.5c.3-.4.5-.9.5-1.6c0-.4-.1-.8-.2-1.1c-.2-.3-.4-.6-.7-.7c-.2-.2-.6-.3-.9-.3c-.5 0-.9.2-1.3.5c-.3.3-.5.9-.5 1.7zm5.2 2.5l0-5.2l1 0c0 0 1.29 3.7 1.3 3.7c.1.3.2.6.2.8c.1-.2.2-.5.3-.9c.02.03 1.3-3.6 1.3-3.6l.9 0l0 5.2l-.7 0l0-4.4l-1.5 4.4l-.6 0l-1.5-4.4l0 4.4l-.7 0zm6.2 0l0-5.2l3.8 0l0 .6l-3.1 0l0 1.6l2.9 0l0 .6l-2.9 0l0 1.8l3.2 0l0 .6l-3.9 0zm4.4-1.7c0 0 .7 0 .7 0c0 .2.1.5.2.6c.1.2.3.3.5.4c.3.1.5.2.8.2c.3 0 .5 0 .7-.1c.2-.1.4-.2.5-.3c.1-.2.1-.3.1-.5c0-.2 0-.3-.1-.4c-.1-.1-.2-.3-.5-.3c-.1-.1-.4-.2-.9-.3c-.5-.1-.8-.2-1-.3c-.3-.1-.4-.3-.6-.5c-.1-.2-.2-.4-.2-.7c0-.2.1-.5.3-.7c.1-.2.3-.4.6-.5c.3-.1.6-.2 1-.2c.4 0 .7.1 1 .2c.3.1.5.3.7.5c.2.3.2.6.3.9c0 0-.7 0-.7 0c0-.3-.2-.6-.4-.7c-.2-.2-.5-.3-.9-.3c-.4 0-.7.1-.9.2c-.2.2-.3.4-.3.6c0 .2.1.3.2.5c.1.1.5.2 1.1.3c.5.2.9.3 1.1.4c.3.1.6.3.7.5c.1.2.2.5.2.7c0 .3-.1.6-.2.8c-.2.3-.4.5-.7.6c-.3.1-.6.2-1 .2c-.5 0-.9-.1-1.2-.2c-.3-.1-.6-.3-.8-.6c-.2-.3-.2-.6-.3-1z" stroke="none" fill="#fff"/></g></svg>