<?xml version="1.0" standalone="no"?>
<!DOCTYPE svg PUBLIC "-//W3C//DTD SVG 1.1//EN" "http://www.w3.org/Graphics/SVG/1.1/DTD/svg11.dtd">
<svg xmlns="http://www.w3.org/2000/svg" version="1.1" width="759.1px" height="96.6px" viewBox="0 -20 759.1 96.6" style="top:-20px">
  <desc>ESG Counsel</desc>
  <defs/>
  <g id="Polygon57892">
    <path d="M 4.7 43.7 L 4.7 0.7 L 35.8 0.7 L 35.8 5.8 L 10.4 5.8 L 10.4 19 L 34.2 19 L 34.2 24 L 10.4 24 L 10.4 38.6 L 36.8 38.6 L 36.8 43.7 L 4.7 43.7 Z M 42.7 29.9 C 42.7 29.9 48.1 29.4 48.1 29.4 C 48.3 31.6 48.9 33.3 49.8 34.7 C 50.8 36.1 52.2 37.2 54.2 38 C 56.1 38.9 58.3 39.3 60.8 39.3 C 62.9 39.3 64.8 39 66.5 38.3 C 68.2 37.7 69.4 36.8 70.2 35.7 C 71 34.6 71.4 33.3 71.4 32 C 71.4 30.7 71 29.5 70.3 28.5 C 69.5 27.5 68.2 26.6 66.4 26 C 65.2 25.5 62.7 24.8 58.7 23.9 C 54.8 22.9 52 22 50.4 21.2 C 48.4 20.1 46.9 18.8 45.9 17.2 C 44.9 15.6 44.4 13.8 44.4 11.8 C 44.4 9.7 45 7.6 46.2 5.8 C 47.4 3.9 49.2 2.4 51.6 1.5 C 54 0.5 56.6 0 59.5 0 C 62.7 0 65.5 0.5 67.9 1.5 C 70.3 2.6 72.2 4.1 73.5 6.1 C 74.8 8.1 75.5 10.3 75.6 12.8 C 75.6 12.8 70.2 13.2 70.2 13.2 C 69.9 10.5 68.9 8.5 67.2 7.1 C 65.5 5.7 63 5 59.7 5 C 56.3 5 53.8 5.6 52.2 6.9 C 50.6 8.2 49.8 9.7 49.8 11.5 C 49.8 13 50.4 14.3 51.5 15.3 C 52.6 16.3 55.5 17.3 60.1 18.3 C 64.7 19.4 67.9 20.3 69.6 21.1 C 72.1 22.2 73.9 23.7 75.1 25.4 C 76.3 27.2 76.9 29.2 76.9 31.6 C 76.9 33.8 76.2 36 74.9 38 C 73.6 40 71.8 41.6 69.3 42.7 C 66.9 43.9 64.1 44.4 61 44.4 C 57.1 44.4 53.9 43.8 51.3 42.7 C 48.6 41.6 46.6 39.9 45.1 37.6 C 43.6 35.3 42.8 32.8 42.7 29.9 Z M 104.8 26.8 L 104.8 21.8 L 123 21.8 C 123 21.8 122.96 37.71 123 37.7 C 120.2 39.9 117.3 41.6 114.3 42.7 C 111.3 43.9 108.3 44.4 105.2 44.4 C 101 44.4 97.1 43.5 93.7 41.7 C 90.2 39.9 87.6 37.3 85.9 33.9 C 84.1 30.4 83.2 26.6 83.2 22.4 C 83.2 18.2 84.1 14.3 85.9 10.7 C 87.6 7.1 90.1 4.4 93.4 2.6 C 96.7 0.9 100.5 0 104.7 0 C 107.8 0 110.6 0.5 113.2 1.5 C 115.7 2.5 117.6 3.9 119.1 5.7 C 120.5 7.5 121.6 9.9 122.3 12.7 C 122.3 12.7 117.2 14.2 117.2 14.2 C 116.5 12 115.7 10.2 114.8 9 C 113.8 7.7 112.5 6.7 110.7 6 C 108.9 5.2 106.9 4.9 104.8 4.9 C 102.2 4.9 99.9 5.3 98 6 C 96.1 6.8 94.6 7.9 93.4 9.2 C 92.3 10.5 91.4 11.9 90.7 13.4 C 89.6 16.1 89.1 19 89.1 22.1 C 89.1 25.9 89.8 29.1 91.1 31.7 C 92.4 34.2 94.3 36.2 96.8 37.4 C 99.3 38.7 102 39.3 104.9 39.3 C 107.3 39.3 109.7 38.8 112.1 37.9 C 114.4 36.9 116.2 35.9 117.4 34.8 C 117.39 34.83 117.4 26.8 117.4 26.8 L 104.8 26.8 Z M 178.7 28.6 C 178.7 28.6 184.3 30.1 184.3 30.1 C 183.1 34.7 181 38.3 177.9 40.7 C 174.8 43.2 171 44.4 166.6 44.4 C 161.9 44.4 158.2 43.5 155.3 41.6 C 152.4 39.7 150.2 37 148.6 33.4 C 147.1 29.8 146.4 26 146.4 21.9 C 146.4 17.4 147.2 13.5 148.9 10.2 C 150.6 6.9 153.1 4.3 156.2 2.6 C 159.4 0.9 162.9 0 166.6 0 C 170.9 0 174.6 1.1 177.5 3.3 C 180.4 5.5 182.5 8.5 183.6 12.5 C 183.6 12.5 178 13.8 178 13.8 C 177 10.7 175.6 8.4 173.7 7 C 171.8 5.6 169.4 4.9 166.5 4.9 C 163.2 4.9 160.5 5.7 158.2 7.2 C 156 8.8 154.5 10.9 153.6 13.6 C 152.7 16.3 152.2 19 152.2 21.9 C 152.2 25.5 152.8 28.7 153.8 31.4 C 154.9 34.1 156.5 36.2 158.8 37.5 C 161 38.9 163.5 39.6 166.1 39.6 C 169.3 39.6 172 38.6 174.2 36.8 C 176.4 35 177.9 32.2 178.7 28.6 Z M 188.7 28.1 C 188.7 22.4 190.3 18.1 193.5 15.3 C 196.2 13 199.4 11.9 203.3 11.9 C 207.6 11.9 211.1 13.3 213.8 16.1 C 216.5 18.9 217.9 22.7 217.9 27.7 C 217.9 31.7 217.3 34.8 216 37.1 C 214.8 39.4 213.1 41.2 210.8 42.5 C 208.5 43.7 206 44.4 203.3 44.4 C 198.9 44.4 195.4 43 192.7 40.2 C 190 37.4 188.7 33.4 188.7 28.1 Z M 194.1 28.1 C 194.1 32.1 195 35.1 196.7 37.1 C 198.5 39.1 200.7 40 203.3 40 C 205.9 40 208.1 39.1 209.8 37.1 C 211.6 35.1 212.4 32 212.4 27.9 C 212.4 24.1 211.6 21.2 209.8 19.2 C 208.1 17.2 205.9 16.2 203.3 16.2 C 200.7 16.2 198.5 17.2 196.7 19.2 C 195 21.2 194.1 24.1 194.1 28.1 Z M 244.4 43.7 C 244.4 43.7 244.42 39.11 244.4 39.1 C 242 42.6 238.7 44.4 234.6 44.4 C 232.7 44.4 231 44 229.4 43.3 C 227.8 42.6 226.6 41.7 225.9 40.7 C 225.1 39.6 224.6 38.3 224.2 36.8 C 224 35.7 223.9 34.1 223.9 31.8 C 223.92 31.85 223.9 12.6 223.9 12.6 L 229.2 12.6 C 229.2 12.6 229.19 29.82 229.2 29.8 C 229.2 32.6 229.3 34.4 229.5 35.4 C 229.8 36.8 230.5 37.9 231.6 38.7 C 232.7 39.4 234 39.8 235.6 39.8 C 237.2 39.8 238.7 39.4 240.1 38.6 C 241.4 37.8 242.4 36.7 243 35.3 C 243.6 33.9 243.9 31.9 243.9 29.2 C 243.87 29.24 243.9 12.6 243.9 12.6 L 249.1 12.6 L 249.1 43.7 L 244.4 43.7 Z M 257.4 43.7 L 257.4 12.6 L 262.1 12.6 C 262.1 12.6 262.15 16.99 262.1 17 C 264.4 13.6 267.7 11.9 272.1 11.9 C 273.9 11.9 275.6 12.2 277.2 12.9 C 278.8 13.5 280 14.4 280.8 15.5 C 281.5 16.6 282.1 17.9 282.4 19.4 C 282.6 20.4 282.7 22.1 282.7 24.6 C 282.69 24.55 282.7 43.7 282.7 43.7 L 277.4 43.7 C 277.4 43.7 277.41 24.76 277.4 24.8 C 277.4 22.6 277.2 21 276.8 19.9 C 276.4 18.9 275.7 18 274.6 17.4 C 273.6 16.8 272.3 16.4 270.9 16.4 C 268.7 16.4 266.8 17.1 265.1 18.6 C 263.5 20 262.7 22.7 262.7 26.7 C 262.68 26.69 262.7 43.7 262.7 43.7 L 257.4 43.7 Z M 288.7 34.4 C 288.7 34.4 293.9 33.6 293.9 33.6 C 294.2 35.7 295 37.3 296.3 38.4 C 297.7 39.5 299.5 40 301.9 40 C 304.4 40 306.2 39.6 307.3 38.6 C 308.5 37.6 309.1 36.4 309.1 35.1 C 309.1 33.9 308.6 33 307.5 32.3 C 306.8 31.8 305 31.2 302.1 30.5 C 298.3 29.5 295.6 28.7 294.1 28 C 292.6 27.3 291.5 26.3 290.7 25 C 289.9 23.7 289.5 22.4 289.5 20.8 C 289.5 19.4 289.9 18.2 290.5 17 C 291.1 15.8 292 14.8 293.1 14 C 293.9 13.4 295 12.9 296.4 12.5 C 297.9 12.1 299.4 11.9 301 11.9 C 303.4 11.9 305.6 12.2 307.4 12.9 C 309.3 13.6 310.6 14.6 311.5 15.8 C 312.4 17 313 18.6 313.3 20.6 C 313.3 20.6 308.2 21.3 308.2 21.3 C 307.9 19.7 307.3 18.4 306.1 17.5 C 305 16.7 303.4 16.2 301.4 16.2 C 299 16.2 297.2 16.6 296.2 17.4 C 295.2 18.2 294.6 19.1 294.6 20.2 C 294.6 20.9 294.9 21.5 295.3 22.1 C 295.7 22.6 296.4 23.1 297.3 23.5 C 297.8 23.7 299.4 24.1 302 24.8 C 305.7 25.8 308.3 26.6 309.8 27.3 C 311.2 27.9 312.4 28.8 313.2 30 C 314.1 31.2 314.5 32.7 314.5 34.5 C 314.5 36.3 314 38 313 39.5 C 311.9 41.1 310.5 42.3 308.5 43.1 C 306.6 44 304.4 44.4 302 44.4 C 297.9 44.4 294.8 43.5 292.7 41.9 C 290.6 40.2 289.2 37.7 288.7 34.4 Z M 342.1 33.7 C 342.1 33.7 347.5 34.3 347.5 34.3 C 346.7 37.5 345.1 40 342.7 41.7 C 340.4 43.5 337.5 44.4 333.8 44.4 C 329.3 44.4 325.7 43 323 40.2 C 320.3 37.4 319 33.4 319 28.4 C 319 23.2 320.4 19.1 323.1 16.2 C 325.8 13.3 329.2 11.9 333.5 11.9 C 337.7 11.9 341.1 13.3 343.7 16.1 C 346.4 18.9 347.7 22.9 347.7 28.1 C 347.7 28.4 347.7 28.8 347.7 29.5 C 347.7 29.5 324.5 29.5 324.5 29.5 C 324.7 32.9 325.6 35.5 327.4 37.3 C 329.1 39.1 331.3 40 333.9 40 C 335.8 40 337.5 39.5 338.8 38.5 C 340.2 37.5 341.3 35.9 342.1 33.7 Z M 324.8 25.1 C 324.8 25.1 342.1 25.1 342.1 25.1 C 341.9 22.5 341.2 20.6 340.1 19.2 C 338.5 17.2 336.3 16.2 333.6 16.2 C 331.2 16.2 329.1 17 327.5 18.6 C 325.8 20.3 324.9 22.4 324.8 25.1 Z M 354 43.7 L 354 0.7 L 359.3 0.7 L 359.3 43.7 L 354 43.7 Z " stroke="none" fill="#ffffff"/>
  </g>
</svg>