<?xml version="1.0" standalone="no"?>
<!DOCTYPE svg PUBLIC "-//W3C//DTD SVG 1.1//EN" "http://www.w3.org/Graphics/SVG/1.1/DTD/svg11.dtd">
<svg xmlns="http://www.w3.org/2000/svg" version="1.1" width="408px" height="60.7px" viewBox="0 -11 408 60.7" style="top:-11px">
  <desc>Representative Matters</desc>
  <defs/>
  <g id="Polygon58303">
    <path d="M 2.5 23.3 L 2.5 0.4 C 2.5 0.4 12.67 0.39 12.7 0.4 C 14.7 0.4 16.3 0.6 17.3 1 C 18.4 1.4 19.2 2.1 19.9 3.2 C 20.5 4.2 20.8 5.4 20.8 6.6 C 20.8 8.3 20.3 9.6 19.3 10.8 C 18.2 11.9 16.6 12.6 14.4 12.9 C 15.2 13.3 15.8 13.6 16.2 14 C 17.1 14.8 17.9 15.8 18.7 17.1 C 18.72 17.06 22.7 23.3 22.7 23.3 L 18.9 23.3 C 18.9 23.3 15.86 18.53 15.9 18.5 C 15 17.2 14.2 16.1 13.7 15.4 C 13.1 14.6 12.6 14.1 12.1 13.8 C 11.7 13.6 11.2 13.3 10.8 13.2 C 10.4 13.2 9.8 13.1 9.1 13.1 C 9.06 13.13 5.5 13.1 5.5 13.1 L 5.5 23.3 L 2.5 23.3 Z M 5.5 10.5 C 5.5 10.5 12.06 10.5 12.1 10.5 C 13.4 10.5 14.5 10.4 15.3 10.1 C 16.1 9.8 16.7 9.3 17.1 8.7 C 17.5 8.1 17.7 7.4 17.7 6.6 C 17.7 5.6 17.3 4.7 16.5 4 C 15.7 3.3 14.5 2.9 12.8 2.9 C 12.8 2.92 5.5 2.9 5.5 2.9 L 5.5 10.5 Z M 36.6 18 C 36.6 18 39.5 18.3 39.5 18.3 C 39 20 38.2 21.3 36.9 22.3 C 35.7 23.2 34.1 23.7 32.2 23.7 C 29.8 23.7 27.8 22.9 26.4 21.4 C 25 19.9 24.3 17.8 24.3 15.1 C 24.3 12.3 25 10.2 26.4 8.6 C 27.9 7.1 29.7 6.3 32 6.3 C 34.3 6.3 36.1 7.1 37.5 8.6 C 38.9 10.1 39.6 12.2 39.6 15 C 39.6 15.1 39.6 15.4 39.6 15.7 C 39.6 15.7 27.2 15.7 27.2 15.7 C 27.3 17.5 27.8 18.9 28.7 19.9 C 29.7 20.9 30.8 21.4 32.2 21.4 C 33.2 21.4 34.1 21.1 34.8 20.5 C 35.6 20 36.2 19.1 36.6 18 Z M 27.3 13.4 C 27.3 13.4 36.6 13.4 36.6 13.4 C 36.5 12 36.1 11 35.5 10.3 C 34.7 9.2 33.5 8.6 32.1 8.6 C 30.8 8.6 29.7 9.1 28.8 9.9 C 27.9 10.8 27.4 12 27.3 13.4 Z M 43 29.7 L 43 6.7 L 45.6 6.7 C 45.6 6.7 45.58 8.86 45.6 8.9 C 46.2 8 46.9 7.4 47.6 7 C 48.4 6.5 49.3 6.3 50.4 6.3 C 51.8 6.3 53.1 6.7 54.1 7.4 C 55.2 8.2 56 9.2 56.6 10.5 C 57.1 11.8 57.4 13.3 57.4 14.9 C 57.4 16.6 57.1 18.1 56.5 19.5 C 55.9 20.8 55 21.9 53.9 22.6 C 52.7 23.3 51.5 23.7 50.2 23.7 C 49.3 23.7 48.4 23.5 47.7 23.1 C 46.9 22.7 46.3 22.2 45.8 21.6 C 45.83 21.58 45.8 29.7 45.8 29.7 L 43 29.7 Z M 45.6 15.1 C 45.6 17.2 46 18.8 46.9 19.8 C 47.7 20.8 48.8 21.4 50 21.4 C 51.3 21.4 52.3 20.8 53.2 19.8 C 54.1 18.7 54.5 17.1 54.5 14.9 C 54.5 12.7 54.1 11.2 53.2 10.1 C 52.4 9.1 51.3 8.5 50.1 8.5 C 48.9 8.5 47.9 9.1 46.9 10.2 C 46 11.3 45.6 13 45.6 15.1 Z M 60.8 23.3 L 60.8 6.7 L 63.3 6.7 C 63.3 6.7 63.31 9.22 63.3 9.2 C 64 8 64.6 7.3 65.1 6.9 C 65.6 6.5 66.3 6.3 66.9 6.3 C 67.9 6.3 68.8 6.6 69.8 7.2 C 69.8 7.2 68.8 9.8 68.8 9.8 C 68.1 9.4 67.5 9.2 66.8 9.2 C 66.2 9.2 65.6 9.4 65.1 9.8 C 64.6 10.2 64.3 10.7 64.1 11.3 C 63.8 12.3 63.6 13.4 63.6 14.6 C 63.59 14.61 63.6 23.3 63.6 23.3 L 60.8 23.3 Z M 82.8 18 C 82.8 18 85.7 18.3 85.7 18.3 C 85.3 20 84.4 21.3 83.2 22.3 C 81.9 23.2 80.4 23.7 78.4 23.7 C 76 23.7 74.1 22.9 72.7 21.4 C 71.2 19.9 70.5 17.8 70.5 15.1 C 70.5 12.3 71.3 10.2 72.7 8.6 C 74.1 7.1 76 6.3 78.3 6.3 C 80.5 6.3 82.3 7.1 83.7 8.6 C 85.1 10.1 85.8 12.2 85.8 15 C 85.8 15.1 85.8 15.4 85.8 15.7 C 85.8 15.7 73.4 15.7 73.4 15.7 C 73.5 17.5 74.1 18.9 75 19.9 C 75.9 20.9 77.1 21.4 78.5 21.4 C 79.5 21.4 80.4 21.1 81.1 20.5 C 81.8 20 82.4 19.1 82.8 18 Z M 73.6 13.4 C 73.6 13.4 82.9 13.4 82.9 13.4 C 82.7 12 82.4 11 81.8 10.3 C 80.9 9.2 79.7 8.6 78.3 8.6 C 77 8.6 75.9 9.1 75.1 9.9 C 74.2 10.8 73.7 12 73.6 13.4 Z M 88.1 18.3 C 88.1 18.3 90.9 17.9 90.9 17.9 C 91.1 19 91.5 19.9 92.2 20.5 C 92.9 21.1 93.9 21.4 95.2 21.4 C 96.5 21.4 97.5 21.1 98.1 20.6 C 98.7 20 99 19.4 99 18.7 C 99 18.1 98.8 17.6 98.2 17.2 C 97.8 17 96.9 16.7 95.3 16.3 C 93.3 15.7 91.8 15.3 91 14.9 C 90.2 14.5 89.6 14 89.2 13.3 C 88.8 12.7 88.6 11.9 88.6 11.1 C 88.6 10.4 88.8 9.7 89.1 9.1 C 89.5 8.4 89.9 7.9 90.5 7.5 C 90.9 7.2 91.5 6.9 92.3 6.7 C 93 6.4 93.9 6.3 94.7 6.3 C 96 6.3 97.2 6.5 98.1 6.9 C 99.1 7.3 99.9 7.8 100.3 8.4 C 100.8 9.1 101.1 9.9 101.3 11 C 101.3 11 98.5 11.4 98.5 11.4 C 98.4 10.5 98.1 9.8 97.5 9.4 C 96.9 8.9 96 8.6 94.9 8.6 C 93.6 8.6 92.7 8.9 92.2 9.3 C 91.6 9.7 91.3 10.2 91.3 10.8 C 91.3 11.1 91.4 11.5 91.7 11.8 C 91.9 12.1 92.3 12.3 92.8 12.5 C 93 12.6 93.9 12.9 95.2 13.2 C 97.2 13.8 98.6 14.2 99.4 14.5 C 100.2 14.9 100.8 15.4 101.3 16 C 101.7 16.7 101.9 17.5 101.9 18.4 C 101.9 19.4 101.6 20.2 101.1 21.1 C 100.6 21.9 99.8 22.5 98.7 23 C 97.7 23.4 96.5 23.7 95.2 23.7 C 93.1 23.7 91.4 23.2 90.3 22.3 C 89.2 21.4 88.5 20.1 88.1 18.3 Z M 116.6 18 C 116.6 18 119.5 18.3 119.5 18.3 C 119.1 20 118.2 21.3 117 22.3 C 115.7 23.2 114.2 23.7 112.2 23.7 C 109.8 23.7 107.9 22.9 106.5 21.4 C 105 19.9 104.3 17.8 104.3 15.1 C 104.3 12.3 105 10.2 106.5 8.6 C 107.9 7.1 109.8 6.3 112.1 6.3 C 114.3 6.3 116.1 7.1 117.5 8.6 C 118.9 10.1 119.6 12.2 119.6 15 C 119.6 15.1 119.6 15.4 119.6 15.7 C 119.6 15.7 107.2 15.7 107.2 15.7 C 107.3 17.5 107.9 18.9 108.8 19.9 C 109.7 20.9 110.9 21.4 112.3 21.4 C 113.3 21.4 114.2 21.1 114.9 20.5 C 115.6 20 116.2 19.1 116.6 18 Z M 107.4 13.4 C 107.4 13.4 116.7 13.4 116.7 13.4 C 116.5 12 116.2 11 115.6 10.3 C 114.7 9.2 113.5 8.6 112.1 8.6 C 110.8 8.6 109.7 9.1 108.9 9.9 C 108 10.8 107.5 12 107.4 13.4 Z M 123.1 23.3 L 123.1 6.7 L 125.6 6.7 C 125.6 6.7 125.59 9.06 125.6 9.1 C 126.8 7.2 128.6 6.3 130.9 6.3 C 131.9 6.3 132.8 6.5 133.6 6.9 C 134.5 7.2 135.1 7.7 135.5 8.3 C 135.9 8.9 136.2 9.6 136.4 10.4 C 136.5 10.9 136.5 11.8 136.5 13.1 C 136.55 13.09 136.5 23.3 136.5 23.3 L 133.7 23.3 C 133.7 23.3 133.73 13.2 133.7 13.2 C 133.7 12.1 133.6 11.2 133.4 10.6 C 133.2 10.1 132.8 9.6 132.2 9.3 C 131.7 8.9 131 8.8 130.3 8.8 C 129.1 8.8 128 9.1 127.2 9.9 C 126.3 10.7 125.9 12.1 125.9 14.2 C 125.88 14.23 125.9 23.3 125.9 23.3 L 123.1 23.3 Z M 145.8 20.9 C 146.1 20.9 146.5 20.9 147 20.8 C 147 20.8 147.4 23.3 147.4 23.3 C 146.6 23.4 145.9 23.5 145.3 23.5 C 144.3 23.5 143.5 23.4 142.9 23 C 142.3 22.7 141.9 22.3 141.7 21.8 C 141.5 21.2 141.4 20.1 141.4 18.4 C 141.38 18.44 141.4 8.9 141.4 8.9 L 139.3 8.9 L 139.3 6.7 L 141.4 6.7 L 141.4 2.6 L 144.2 0.9 L 144.2 6.7 L 147 6.7 L 147 8.9 L 144.2 8.9 C 144.2 8.9 144.17 18.59 144.2 18.6 C 144.2 19.4 144.2 19.9 144.3 20.1 C 144.4 20.4 144.6 20.6 144.8 20.7 C 145 20.8 145.3 20.9 145.8 20.9 C 145.8 20.9 145.8 20.9 145.8 20.9 Z M 161.1 23.3 C 160.8 22.7 160.7 22 160.6 21.3 C 159.5 22.1 158.5 22.8 157.6 23.1 C 156.6 23.5 155.6 23.7 154.5 23.7 C 152.6 23.7 151.2 23.2 150.3 22.3 C 149.3 21.4 148.8 20.3 148.8 18.9 C 148.8 18.1 149 17.4 149.4 16.7 C 149.7 16 150.2 15.5 150.8 15.1 C 151.4 14.7 152.1 14.4 152.8 14.2 C 153.4 14 154.2 13.9 155.3 13.7 C 157.6 13.5 159.3 13.1 160.3 12.8 C 160.4 12.4 160.4 12.1 160.4 12 C 160.4 10.9 160.1 10.1 159.6 9.6 C 158.8 9 157.8 8.7 156.4 8.7 C 155 8.7 154.1 8.9 153.4 9.4 C 152.8 9.8 152.3 10.6 152 11.8 C 152 11.8 149.3 11.4 149.3 11.4 C 149.5 10.3 149.9 9.3 150.5 8.6 C 151.1 7.9 151.9 7.3 153 6.9 C 154.1 6.5 155.3 6.3 156.8 6.3 C 158.2 6.3 159.3 6.5 160.2 6.8 C 161.1 7.2 161.8 7.6 162.2 8.1 C 162.6 8.6 162.9 9.2 163 10 C 163.1 10.5 163.2 11.3 163.2 12.6 C 163.2 12.6 163.2 16.3 163.2 16.3 C 163.2 19 163.2 20.6 163.4 21.3 C 163.5 22 163.7 22.7 164.1 23.3 C 164.08 23.3 161.1 23.3 161.1 23.3 C 161.1 23.3 161.14 23.3 161.1 23.3 Z M 160.3 15 C 159.3 15.4 157.8 15.7 155.8 16 C 154.6 16.2 153.8 16.4 153.3 16.6 C 152.8 16.8 152.4 17.1 152.2 17.5 C 151.9 17.9 151.8 18.4 151.8 18.8 C 151.8 19.6 152.1 20.2 152.6 20.7 C 153.2 21.2 154 21.5 155.1 21.5 C 156.2 21.5 157.2 21.2 158 20.8 C 158.9 20.3 159.5 19.6 159.9 18.8 C 160.2 18.2 160.3 17.2 160.3 16 C 160.3 16 160.3 15 160.3 15 Z M 172.5 20.9 C 172.8 20.9 173.2 20.9 173.7 20.8 C 173.7 20.8 174.1 23.3 174.1 23.3 C 173.3 23.4 172.6 23.5 172 23.5 C 170.9 23.5 170.2 23.4 169.6 23 C 169 22.7 168.6 22.3 168.4 21.8 C 168.2 21.2 168.1 20.1 168.1 18.4 C 168.06 18.44 168.1 8.9 168.1 8.9 L 166 8.9 L 166 6.7 L 168.1 6.7 L 168.1 2.6 L 170.9 0.9 L 170.9 6.7 L 173.7 6.7 L 173.7 8.9 L 170.9 8.9 C 170.9 8.9 170.86 18.59 170.9 18.6 C 170.9 19.4 170.9 19.9 171 20.1 C 171.1 20.4 171.3 20.6 171.5 20.7 C 171.7 20.8 172 20.9 172.5 20.9 C 172.5 20.9 172.5 20.9 172.5 20.9 Z M 176.5 3.6 L 176.5 0.4 L 179.3 0.4 L 179.3 3.6 L 176.5 3.6 Z M 176.5 23.3 L 176.5 6.7 L 179.3 6.7 L 179.3 23.3 L 176.5 23.3 Z M 188.2 23.3 L 181.8 6.7 L 184.8 6.7 C 184.8 6.7 188.38 16.64 188.4 16.6 C 188.8 17.7 189.1 18.8 189.4 20 C 189.7 19.1 190 18.1 190.5 16.8 C 190.48 16.83 194.2 6.7 194.2 6.7 L 197.1 6.7 L 190.8 23.3 L 188.2 23.3 Z M 210.9 18 C 210.9 18 213.8 18.3 213.8 18.3 C 213.4 20 212.5 21.3 211.3 22.3 C 210 23.2 208.4 23.7 206.5 23.7 C 204.1 23.7 202.2 22.9 200.7 21.4 C 199.3 19.9 198.6 17.8 198.6 15.1 C 198.6 12.3 199.3 10.2 200.8 8.6 C 202.2 7.1 204.1 6.3 206.4 6.3 C 208.6 6.3 210.4 7.1 211.8 8.6 C 213.2 10.1 213.9 12.2 213.9 15 C 213.9 15.1 213.9 15.4 213.9 15.7 C 213.9 15.7 201.5 15.7 201.5 15.7 C 201.6 17.5 202.1 18.9 203.1 19.9 C 204 20.9 205.1 21.4 206.5 21.4 C 207.6 21.4 208.4 21.1 209.2 20.5 C 209.9 20 210.5 19.1 210.9 18 Z M 201.7 13.4 C 201.7 13.4 210.9 13.4 210.9 13.4 C 210.8 12 210.5 11 209.9 10.3 C 209 9.2 207.8 8.6 206.4 8.6 C 205.1 8.6 204 9.1 203.1 9.9 C 202.3 10.8 201.8 12 201.7 13.4 Z M 226.5 23.3 L 226.5 0.4 L 231.1 0.4 C 231.1 0.4 236.48 16.61 236.5 16.6 C 237 18.1 237.3 19.3 237.6 20 C 237.8 19.2 238.2 17.9 238.8 16.3 C 238.8 16.33 244.3 0.4 244.3 0.4 L 248.4 0.4 L 248.4 23.3 L 245.4 23.3 L 245.4 4.1 L 238.8 23.3 L 236 23.3 L 229.4 3.8 L 229.4 23.3 L 226.5 23.3 Z M 264.3 23.3 C 264 22.7 263.8 22 263.7 21.3 C 262.7 22.1 261.7 22.8 260.7 23.1 C 259.7 23.5 258.7 23.7 257.6 23.7 C 255.8 23.7 254.4 23.2 253.4 22.3 C 252.4 21.4 251.9 20.3 251.9 18.9 C 251.9 18.1 252.1 17.4 252.5 16.7 C 252.9 16 253.3 15.5 253.9 15.1 C 254.5 14.7 255.2 14.4 256 14.2 C 256.5 14 257.4 13.9 258.5 13.7 C 260.7 13.5 262.4 13.1 263.5 12.8 C 263.5 12.4 263.5 12.1 263.5 12 C 263.5 10.9 263.2 10.1 262.7 9.6 C 262 9 260.9 8.7 259.5 8.7 C 258.2 8.7 257.2 8.9 256.6 9.4 C 255.9 9.8 255.5 10.6 255.2 11.8 C 255.2 11.8 252.4 11.4 252.4 11.4 C 252.7 10.3 253.1 9.3 253.7 8.6 C 254.2 7.9 255.1 7.3 256.1 6.9 C 257.2 6.5 258.5 6.3 259.9 6.3 C 261.3 6.3 262.5 6.5 263.4 6.8 C 264.2 7.2 264.9 7.6 265.3 8.1 C 265.7 8.6 266 9.2 266.2 10 C 266.3 10.5 266.3 11.3 266.3 12.6 C 266.3 12.6 266.3 16.3 266.3 16.3 C 266.3 19 266.4 20.6 266.5 21.3 C 266.6 22 266.9 22.7 267.2 23.3 C 267.22 23.3 264.3 23.3 264.3 23.3 C 264.3 23.3 264.28 23.3 264.3 23.3 Z M 263.5 15 C 262.5 15.4 260.9 15.7 258.9 16 C 257.7 16.2 256.9 16.4 256.4 16.6 C 256 16.8 255.6 17.1 255.3 17.5 C 255.1 17.9 254.9 18.4 254.9 18.8 C 254.9 19.6 255.2 20.2 255.8 20.7 C 256.4 21.2 257.2 21.5 258.3 21.5 C 259.4 21.5 260.3 21.2 261.2 20.8 C 262 20.3 262.6 19.6 263 18.8 C 263.3 18.2 263.5 17.2 263.5 16 C 263.5 16 263.5 15 263.5 15 Z M 275.6 20.9 C 275.9 20.9 276.3 20.9 276.8 20.8 C 276.8 20.8 277.2 23.3 277.2 23.3 C 276.4 23.4 275.7 23.5 275.1 23.5 C 274.1 23.5 273.3 23.4 272.7 23 C 272.2 22.7 271.8 22.3 271.5 21.8 C 271.3 21.2 271.2 20.1 271.2 18.4 C 271.2 18.44 271.2 8.9 271.2 8.9 L 269.1 8.9 L 269.1 6.7 L 271.2 6.7 L 271.2 2.6 L 274 0.9 L 274 6.7 L 276.8 6.7 L 276.8 8.9 L 274 8.9 C 274 8.9 274 18.59 274 18.6 C 274 19.4 274 19.9 274.1 20.1 C 274.2 20.4 274.4 20.6 274.6 20.7 C 274.9 20.8 275.2 20.9 275.6 20.9 C 275.6 20.9 275.6 20.9 275.6 20.9 Z M 284.5 20.9 C 284.8 20.9 285.2 20.9 285.7 20.8 C 285.7 20.8 286.1 23.3 286.1 23.3 C 285.3 23.4 284.6 23.5 284 23.5 C 283 23.5 282.2 23.4 281.6 23 C 281.1 22.7 280.7 22.3 280.4 21.8 C 280.2 21.2 280.1 20.1 280.1 18.4 C 280.09 18.44 280.1 8.9 280.1 8.9 L 278 8.9 L 278 6.7 L 280.1 6.7 L 280.1 2.6 L 282.9 0.9 L 282.9 6.7 L 285.7 6.7 L 285.7 8.9 L 282.9 8.9 C 282.9 8.9 282.89 18.59 282.9 18.6 C 282.9 19.4 282.9 19.9 283 20.1 C 283.1 20.4 283.3 20.6 283.5 20.7 C 283.7 20.8 284.1 20.9 284.5 20.9 C 284.5 20.9 284.5 20.9 284.5 20.9 Z M 299.8 18 C 299.8 18 302.7 18.3 302.7 18.3 C 302.3 20 301.4 21.3 300.2 22.3 C 298.9 23.2 297.4 23.7 295.4 23.7 C 293 23.7 291.1 22.9 289.7 21.4 C 288.2 19.9 287.5 17.8 287.5 15.1 C 287.5 12.3 288.3 10.2 289.7 8.6 C 291.1 7.1 293 6.3 295.3 6.3 C 297.5 6.3 299.3 7.1 300.7 8.6 C 302.1 10.1 302.8 12.2 302.8 15 C 302.8 15.1 302.8 15.4 302.8 15.7 C 302.8 15.7 290.4 15.7 290.4 15.7 C 290.5 17.5 291.1 18.9 292 19.9 C 292.9 20.9 294.1 21.4 295.5 21.4 C 296.5 21.4 297.4 21.1 298.1 20.5 C 298.8 20 299.4 19.1 299.8 18 Z M 290.6 13.4 C 290.6 13.4 299.9 13.4 299.9 13.4 C 299.7 12 299.4 11 298.8 10.3 C 297.9 9.2 296.7 8.6 295.3 8.6 C 294 8.6 292.9 9.1 292.1 9.9 C 291.2 10.8 290.7 12 290.6 13.4 Z M 306.2 23.3 L 306.2 6.7 L 308.8 6.7 C 308.8 6.7 308.77 9.22 308.8 9.2 C 309.4 8 310 7.3 310.6 6.9 C 311.1 6.5 311.7 6.3 312.4 6.3 C 313.3 6.3 314.3 6.6 315.3 7.2 C 315.3 7.2 314.3 9.8 314.3 9.8 C 313.6 9.4 312.9 9.2 312.2 9.2 C 311.6 9.2 311.1 9.4 310.6 9.8 C 310.1 10.2 309.7 10.7 309.5 11.3 C 309.2 12.3 309 13.4 309 14.6 C 309.05 14.61 309 23.3 309 23.3 L 306.2 23.3 Z M 315.8 18.3 C 315.8 18.3 318.6 17.9 318.6 17.9 C 318.7 19 319.2 19.9 319.9 20.5 C 320.6 21.1 321.6 21.4 322.9 21.4 C 324.2 21.4 325.1 21.1 325.8 20.6 C 326.4 20 326.7 19.4 326.7 18.7 C 326.7 18.1 326.4 17.6 325.9 17.2 C 325.5 17 324.5 16.7 323 16.3 C 320.9 15.7 319.5 15.3 318.7 14.9 C 317.9 14.5 317.3 14 316.9 13.3 C 316.5 12.7 316.3 11.9 316.3 11.1 C 316.3 10.4 316.4 9.7 316.8 9.1 C 317.1 8.4 317.6 7.9 318.2 7.5 C 318.6 7.2 319.2 6.9 319.9 6.7 C 320.7 6.4 321.5 6.3 322.4 6.3 C 323.7 6.3 324.8 6.5 325.8 6.9 C 326.8 7.3 327.5 7.8 328 8.4 C 328.5 9.1 328.8 9.9 329 11 C 329 11 326.2 11.4 326.2 11.4 C 326.1 10.5 325.7 9.8 325.1 9.4 C 324.5 8.9 323.7 8.6 322.6 8.6 C 321.3 8.6 320.4 8.9 319.8 9.3 C 319.3 9.7 319 10.2 319 10.8 C 319 11.1 319.1 11.5 319.3 11.8 C 319.6 12.1 319.9 12.3 320.4 12.5 C 320.7 12.6 321.5 12.9 322.9 13.2 C 324.9 13.8 326.3 14.2 327.1 14.5 C 327.8 14.9 328.5 15.4 328.9 16 C 329.4 16.7 329.6 17.5 329.6 18.4 C 329.6 19.4 329.3 20.2 328.8 21.1 C 328.2 21.9 327.4 22.5 326.4 23 C 325.4 23.4 324.2 23.7 322.9 23.7 C 320.7 23.7 319.1 23.2 318 22.3 C 316.8 21.4 316.1 20.1 315.8 18.3 Z " stroke="none" fill="#003a5c"/>
  </g>
</svg>