<?xml version="1.0" standalone="no"?>
<!DOCTYPE svg PUBLIC "-//W3C//DTD SVG 1.1//EN" "http://www.w3.org/Graphics/SVG/1.1/DTD/svg11.dtd">
<svg xmlns="http://www.w3.org/2000/svg" version="1.1" width="196.2px" height="34.7px" viewBox="0 -5 196.2 34.7" style="top:-5px">
  <desc>Debt For Nature Swap</desc>
  <defs/>
  <g id="Polygon60539">
    <path d="M 1 9.4 L 1 0.2 C 1 0.2 4.2 0.16 4.2 0.2 C 4.9 0.2 5.5 0.2 5.9 0.3 C 6.4 0.4 6.8 0.6 7.2 1 C 7.7 1.4 8.1 1.9 8.3 2.5 C 8.6 3.2 8.7 3.9 8.7 4.7 C 8.7 5.5 8.6 6.1 8.4 6.6 C 8.3 7.2 8.1 7.6 7.8 8 C 7.5 8.3 7.3 8.6 7 8.8 C 6.6 9 6.3 9.2 5.8 9.3 C 5.4 9.4 4.9 9.4 4.4 9.4 C 4.35 9.44 1 9.4 1 9.4 Z M 2.2 8.3 C 2.2 8.3 4.21 8.35 4.2 8.3 C 4.8 8.3 5.3 8.3 5.7 8.2 C 6 8.1 6.3 7.9 6.5 7.7 C 6.8 7.4 7 7 7.2 6.5 C 7.3 6 7.4 5.4 7.4 4.7 C 7.4 3.8 7.3 3 6.9 2.5 C 6.6 2 6.2 1.6 5.8 1.4 C 5.4 1.3 4.9 1.3 4.2 1.3 C 4.18 1.25 2.2 1.3 2.2 1.3 L 2.2 8.3 Z M 14.8 7.3 C 14.8 7.3 16 7.4 16 7.4 C 15.8 8.1 15.5 8.6 15 9 C 14.5 9.4 13.8 9.6 13 9.6 C 12.1 9.6 11.3 9.3 10.7 8.7 C 10.1 8.1 9.8 7.2 9.8 6.1 C 9.8 5 10.1 4.1 10.7 3.5 C 11.3 2.9 12 2.6 13 2.6 C 13.9 2.6 14.6 2.9 15.2 3.5 C 15.7 4.1 16 5 16 6.1 C 16 6.1 16 6.2 16 6.4 C 16 6.4 11 6.4 11 6.4 C 11.1 7.1 11.3 7.7 11.6 8.1 C 12 8.5 12.5 8.7 13 8.7 C 13.5 8.7 13.8 8.5 14.1 8.3 C 14.4 8.1 14.6 7.8 14.8 7.3 Z M 11.1 5.4 C 11.1 5.4 14.8 5.4 14.8 5.4 C 14.8 4.9 14.6 4.4 14.4 4.2 C 14 3.7 13.6 3.5 13 3.5 C 12.5 3.5 12 3.7 11.7 4 C 11.3 4.4 11.1 4.8 11.1 5.4 Z M 18.4 9.4 L 17.3 9.4 L 17.3 0.2 L 18.5 0.2 C 18.5 0.2 18.49 3.47 18.5 3.5 C 19 2.9 19.6 2.6 20.3 2.6 C 20.7 2.6 21.1 2.6 21.5 2.8 C 21.9 3 22.2 3.2 22.4 3.5 C 22.7 3.8 22.8 4.2 23 4.6 C 23.1 5 23.2 5.5 23.2 6 C 23.2 7.1 22.9 8 22.3 8.7 C 21.8 9.3 21.1 9.6 20.3 9.6 C 19.5 9.6 18.9 9.3 18.4 8.6 C 18.4 8.6 18.4 9.4 18.4 9.4 Z M 18.4 6 C 18.4 6.8 18.5 7.4 18.7 7.8 C 19.1 8.4 19.6 8.7 20.2 8.7 C 20.7 8.7 21.1 8.4 21.5 8 C 21.8 7.6 22 6.9 22 6.1 C 22 5.2 21.8 4.5 21.5 4.1 C 21.1 3.7 20.7 3.5 20.2 3.5 C 19.7 3.5 19.3 3.7 18.9 4.2 C 18.6 4.6 18.4 5.2 18.4 6 Z M 26.4 8.5 C 26.5 8.5 26.7 8.5 26.9 8.4 C 26.9 8.4 27 9.4 27 9.4 C 26.7 9.5 26.4 9.5 26.2 9.5 C 25.7 9.5 25.4 9.5 25.2 9.3 C 25 9.2 24.8 9 24.7 8.8 C 24.6 8.6 24.6 8.2 24.6 7.5 C 24.58 7.47 24.6 3.6 24.6 3.6 L 23.7 3.6 L 23.7 2.7 L 24.6 2.7 L 24.6 1.1 L 25.7 0.4 L 25.7 2.7 L 26.9 2.7 L 26.9 3.6 L 25.7 3.6 C 25.7 3.6 25.71 7.54 25.7 7.5 C 25.7 7.9 25.7 8.1 25.8 8.2 C 25.8 8.3 25.9 8.3 26 8.4 C 26.1 8.4 26.2 8.5 26.4 8.5 C 26.4 8.5 26.4 8.5 26.4 8.5 Z M 31.8 9.4 L 31.8 0.2 L 38 0.2 L 38 1.3 L 33 1.3 L 33 4.1 L 37.4 4.1 L 37.4 5.2 L 33 5.2 L 33 9.4 L 31.8 9.4 Z M 38.7 6.1 C 38.7 4.8 39.1 3.9 39.8 3.3 C 40.3 2.8 41.1 2.6 41.9 2.6 C 42.8 2.6 43.6 2.9 44.2 3.5 C 44.7 4.1 45 4.9 45 6 C 45 6.9 44.9 7.5 44.6 8 C 44.4 8.5 44 8.9 43.5 9.2 C 43 9.5 42.5 9.6 41.9 9.6 C 40.9 9.6 40.2 9.3 39.6 8.7 C 39 8.1 38.7 7.2 38.7 6.1 Z M 39.9 6.1 C 39.9 6.9 40.1 7.6 40.5 8 C 40.8 8.4 41.3 8.7 41.9 8.7 C 42.5 8.7 42.9 8.4 43.3 8 C 43.7 7.6 43.9 6.9 43.9 6 C 43.9 5.2 43.7 4.6 43.3 4.2 C 42.9 3.7 42.4 3.5 41.9 3.5 C 41.3 3.5 40.8 3.7 40.5 4.1 C 40.1 4.6 39.9 5.2 39.9 6.1 Z M 46.3 9.4 L 46.3 2.7 L 47.3 2.7 C 47.3 2.7 47.35 3.74 47.3 3.7 C 47.6 3.3 47.9 2.9 48.1 2.8 C 48.3 2.6 48.5 2.6 48.8 2.6 C 49.2 2.6 49.6 2.7 50 2.9 C 50 2.9 49.6 4 49.6 4 C 49.3 3.8 49 3.7 48.7 3.7 C 48.5 3.7 48.3 3.8 48.1 4 C 47.9 4.1 47.7 4.3 47.7 4.6 C 47.5 5 47.5 5.4 47.5 5.9 C 47.46 5.92 47.5 9.4 47.5 9.4 L 46.3 9.4 Z M 54.4 9.4 L 54.4 0.2 L 55.6 0.2 L 60.5 7.4 L 60.5 0.2 L 61.7 0.2 L 61.7 9.4 L 60.4 9.4 L 55.6 2.1 L 55.6 9.4 L 54.4 9.4 Z M 68.2 9.4 C 68.1 9.2 68 8.9 68 8.6 C 67.6 9 67.2 9.2 66.8 9.4 C 66.4 9.5 66 9.6 65.5 9.6 C 64.8 9.6 64.2 9.4 63.8 9.1 C 63.4 8.7 63.2 8.2 63.2 7.7 C 63.2 7.3 63.3 7 63.4 6.8 C 63.6 6.5 63.8 6.3 64 6.1 C 64.3 5.9 64.6 5.8 64.9 5.7 C 65.1 5.7 65.4 5.6 65.9 5.6 C 66.8 5.5 67.5 5.3 67.9 5.2 C 67.9 5 67.9 4.9 67.9 4.9 C 67.9 4.4 67.8 4.1 67.6 3.9 C 67.3 3.6 66.9 3.5 66.3 3.5 C 65.8 3.5 65.4 3.6 65.1 3.8 C 64.8 4 64.7 4.3 64.5 4.8 C 64.5 4.8 63.4 4.6 63.4 4.6 C 63.5 4.2 63.7 3.8 63.9 3.5 C 64.2 3.2 64.5 3 64.9 2.8 C 65.4 2.6 65.9 2.6 66.5 2.6 C 67 2.6 67.5 2.6 67.9 2.8 C 68.2 2.9 68.5 3.1 68.6 3.3 C 68.8 3.5 68.9 3.7 69 4.1 C 69 4.2 69.1 4.6 69.1 5.1 C 69.1 5.1 69.1 6.6 69.1 6.6 C 69.1 7.7 69.1 8.4 69.1 8.6 C 69.2 8.9 69.3 9.2 69.4 9.4 C 69.42 9.44 68.2 9.4 68.2 9.4 C 68.2 9.4 68.23 9.44 68.2 9.4 Z M 67.9 6.1 C 67.5 6.2 66.9 6.4 66 6.5 C 65.6 6.6 65.2 6.6 65 6.7 C 64.9 6.8 64.7 6.9 64.6 7.1 C 64.5 7.3 64.4 7.4 64.4 7.6 C 64.4 7.9 64.6 8.2 64.8 8.4 C 65 8.6 65.4 8.7 65.8 8.7 C 66.2 8.7 66.6 8.6 67 8.4 C 67.3 8.2 67.6 8 67.7 7.6 C 67.8 7.4 67.9 7 67.9 6.5 C 67.9 6.5 67.9 6.1 67.9 6.1 Z M 72.6 8.5 C 72.8 8.5 72.9 8.5 73.1 8.4 C 73.1 8.4 73.3 9.4 73.3 9.4 C 73 9.5 72.7 9.5 72.4 9.5 C 72 9.5 71.7 9.5 71.5 9.3 C 71.3 9.2 71.1 9 71 8.8 C 70.9 8.6 70.9 8.2 70.9 7.5 C 70.86 7.47 70.9 3.6 70.9 3.6 L 70 3.6 L 70 2.7 L 70.9 2.7 L 70.9 1.1 L 72 0.4 L 72 2.7 L 73.1 2.7 L 73.1 3.6 L 72 3.6 C 72 3.6 72 7.54 72 7.5 C 72 7.9 72 8.1 72.1 8.2 C 72.1 8.3 72.2 8.3 72.3 8.4 C 72.3 8.4 72.5 8.5 72.6 8.5 C 72.6 8.5 72.6 8.5 72.6 8.5 Z M 78.6 9.4 C 78.6 9.4 78.57 8.45 78.6 8.5 C 78 9.2 77.3 9.6 76.4 9.6 C 76 9.6 75.7 9.5 75.3 9.4 C 75 9.2 74.7 9 74.6 8.8 C 74.4 8.6 74.3 8.3 74.2 7.9 C 74.2 7.7 74.1 7.4 74.1 6.9 C 74.14 6.88 74.1 2.7 74.1 2.7 L 75.3 2.7 C 75.3 2.7 75.28 6.45 75.3 6.4 C 75.3 7 75.3 7.4 75.3 7.7 C 75.4 8 75.6 8.2 75.8 8.4 C 76 8.5 76.3 8.6 76.7 8.6 C 77 8.6 77.3 8.5 77.6 8.3 C 77.9 8.2 78.1 7.9 78.3 7.6 C 78.4 7.3 78.5 6.9 78.5 6.3 C 78.45 6.32 78.5 2.7 78.5 2.7 L 79.6 2.7 L 79.6 9.4 L 78.6 9.4 Z M 81.2 9.4 L 81.2 2.7 L 82.3 2.7 C 82.3 2.7 82.27 3.74 82.3 3.7 C 82.5 3.3 82.8 2.9 83 2.8 C 83.2 2.6 83.5 2.6 83.7 2.6 C 84.1 2.6 84.5 2.7 84.9 2.9 C 84.9 2.9 84.5 4 84.5 4 C 84.2 3.8 83.9 3.7 83.7 3.7 C 83.4 3.7 83.2 3.8 83 4 C 82.8 4.1 82.7 4.3 82.6 4.6 C 82.4 5 82.4 5.4 82.4 5.9 C 82.38 5.92 82.4 9.4 82.4 9.4 L 81.2 9.4 Z M 90.1 7.3 C 90.1 7.3 91.3 7.4 91.3 7.4 C 91.1 8.1 90.7 8.6 90.2 9 C 89.7 9.4 89.1 9.6 88.3 9.6 C 87.3 9.6 86.6 9.3 86 8.7 C 85.4 8.1 85.1 7.2 85.1 6.1 C 85.1 5 85.4 4.1 86 3.5 C 86.6 2.9 87.3 2.6 88.3 2.6 C 89.1 2.6 89.9 2.9 90.5 3.5 C 91 4.1 91.3 5 91.3 6.1 C 91.3 6.1 91.3 6.2 91.3 6.4 C 91.3 6.4 86.3 6.4 86.3 6.4 C 86.3 7.1 86.5 7.7 86.9 8.1 C 87.3 8.5 87.8 8.7 88.3 8.7 C 88.7 8.7 89.1 8.5 89.4 8.3 C 89.7 8.1 89.9 7.8 90.1 7.3 Z M 86.4 5.4 C 86.4 5.4 90.1 5.4 90.1 5.4 C 90.1 4.9 89.9 4.4 89.7 4.2 C 89.3 3.7 88.8 3.5 88.3 3.5 C 87.7 3.5 87.3 3.7 86.9 4 C 86.6 4.4 86.4 4.8 86.4 5.4 Z M 96 6.5 C 96 6.5 97.2 6.4 97.2 6.4 C 97.2 6.8 97.4 7.2 97.6 7.5 C 97.8 7.8 98.1 8 98.5 8.2 C 98.9 8.4 99.4 8.5 99.9 8.5 C 100.4 8.5 100.8 8.4 101.2 8.3 C 101.5 8.2 101.8 8 102 7.7 C 102.2 7.5 102.2 7.2 102.2 6.9 C 102.2 6.6 102.2 6.4 102 6.2 C 101.8 5.9 101.5 5.8 101.2 5.6 C 100.9 5.5 100.4 5.4 99.5 5.2 C 98.6 5 98 4.8 97.7 4.6 C 97.3 4.3 96.9 4.1 96.7 3.7 C 96.5 3.4 96.4 3 96.4 2.6 C 96.4 2.1 96.5 1.7 96.8 1.2 C 97.1 0.8 97.4 0.5 98 0.3 C 98.5 0.1 99 0 99.7 0 C 100.3 0 101 0.1 101.5 0.3 C 102 0.6 102.4 0.9 102.7 1.3 C 103 1.7 103.1 2.2 103.1 2.8 C 103.1 2.8 102 2.9 102 2.9 C 101.9 2.3 101.7 1.8 101.3 1.5 C 101 1.2 100.4 1.1 99.7 1.1 C 99 1.1 98.4 1.2 98.1 1.5 C 97.7 1.8 97.6 2.1 97.6 2.5 C 97.6 2.8 97.7 3.1 97.9 3.3 C 98.2 3.5 98.8 3.7 99.8 4 C 100.8 4.2 101.5 4.4 101.8 4.6 C 102.4 4.8 102.8 5.1 103 5.5 C 103.3 5.9 103.4 6.3 103.4 6.8 C 103.4 7.3 103.3 7.8 103 8.2 C 102.7 8.7 102.3 9 101.8 9.2 C 101.3 9.5 100.7 9.6 100 9.6 C 99.2 9.6 98.4 9.5 97.9 9.2 C 97.3 9 96.9 8.6 96.5 8.1 C 96.2 7.6 96.1 7.1 96 6.5 Z M 106.2 9.4 L 104.2 2.7 L 105.4 2.7 L 106.4 6.6 C 106.4 6.6 106.82 8.04 106.8 8 C 106.8 8 107 7.5 107.2 6.7 C 107.17 6.66 108.2 2.7 108.2 2.7 L 109.4 2.7 L 110.4 6.6 L 110.8 7.9 L 111.1 6.6 L 112.3 2.7 L 113.4 2.7 L 111.3 9.4 L 110.1 9.4 L 109 5.4 L 108.8 4.3 L 107.4 9.4 L 106.2 9.4 Z M 118.8 9.4 C 118.7 9.2 118.6 8.9 118.6 8.6 C 118.1 9 117.7 9.2 117.3 9.4 C 117 9.5 116.5 9.6 116.1 9.6 C 115.3 9.6 114.8 9.4 114.4 9.1 C 114 8.7 113.8 8.2 113.8 7.7 C 113.8 7.3 113.9 7 114 6.8 C 114.2 6.5 114.4 6.3 114.6 6.1 C 114.8 5.9 115.1 5.8 115.4 5.7 C 115.6 5.7 116 5.6 116.4 5.6 C 117.4 5.5 118 5.3 118.5 5.2 C 118.5 5 118.5 4.9 118.5 4.9 C 118.5 4.4 118.4 4.1 118.1 3.9 C 117.9 3.6 117.4 3.5 116.9 3.5 C 116.3 3.5 115.9 3.6 115.7 3.8 C 115.4 4 115.2 4.3 115.1 4.8 C 115.1 4.8 114 4.6 114 4.6 C 114.1 4.2 114.3 3.8 114.5 3.5 C 114.7 3.2 115.1 3 115.5 2.8 C 115.9 2.6 116.4 2.6 117 2.6 C 117.6 2.6 118.1 2.6 118.4 2.8 C 118.8 2.9 119 3.1 119.2 3.3 C 119.4 3.5 119.5 3.7 119.6 4.1 C 119.6 4.2 119.6 4.6 119.6 5.1 C 119.6 5.1 119.6 6.6 119.6 6.6 C 119.6 7.7 119.6 8.4 119.7 8.6 C 119.7 8.9 119.8 9.2 120 9.4 C 119.98 9.44 118.8 9.4 118.8 9.4 C 118.8 9.4 118.79 9.44 118.8 9.4 Z M 118.5 6.1 C 118.1 6.2 117.4 6.4 116.6 6.5 C 116.1 6.6 115.8 6.6 115.6 6.7 C 115.4 6.8 115.3 6.9 115.2 7.1 C 115.1 7.3 115 7.4 115 7.6 C 115 7.9 115.1 8.2 115.3 8.4 C 115.6 8.6 115.9 8.7 116.4 8.7 C 116.8 8.7 117.2 8.6 117.5 8.4 C 117.9 8.2 118.1 8 118.3 7.6 C 118.4 7.4 118.5 7 118.5 6.5 C 118.5 6.5 118.5 6.1 118.5 6.1 Z M 121.3 12 L 121.3 2.7 L 122.3 2.7 C 122.3 2.7 122.32 3.59 122.3 3.6 C 122.6 3.2 122.8 3 123.2 2.8 C 123.5 2.7 123.8 2.6 124.3 2.6 C 124.8 2.6 125.4 2.7 125.8 3 C 126.2 3.3 126.6 3.7 126.8 4.3 C 127 4.8 127.1 5.4 127.1 6 C 127.1 6.7 127 7.3 126.8 7.9 C 126.5 8.4 126.1 8.9 125.7 9.2 C 125.2 9.4 124.7 9.6 124.2 9.6 C 123.8 9.6 123.5 9.5 123.2 9.4 C 122.9 9.2 122.6 9 122.4 8.7 C 122.42 8.75 122.4 12 122.4 12 L 121.3 12 Z M 122.3 6.1 C 122.3 7 122.5 7.6 122.8 8 C 123.2 8.5 123.6 8.7 124.1 8.7 C 124.6 8.7 125.1 8.4 125.4 8 C 125.8 7.6 126 6.9 126 6 C 126 5.2 125.8 4.5 125.4 4.1 C 125.1 3.7 124.7 3.5 124.2 3.5 C 123.7 3.5 123.2 3.7 122.9 4.1 C 122.5 4.6 122.3 5.3 122.3 6.1 Z " stroke="none" fill="#fff"/>
  </g>
</svg>