<?xml version="1.0" standalone="no"?><!DOCTYPE svg PUBLIC "-//W3C//DTD SVG 1.1//EN" "http://www.w3.org/Graphics/SVG/1.1/DTD/svg11.dtd"><svg xmlns="http://www.w3.org/2000/svg" version="1.1" width="588.4px" height="45.7px" viewBox="0 -7 588.4 45.7" style="top:-7px"><desc>Select Thought Leadership</desc><defs/><g id="Polygon66460"><path d="m1.1 12c0 0 2.1-.2 2.1-.2c.1.8.4 1.5.7 2.1c.4.5 1 1 1.8 1.3c.7.4 1.6.5 2.6.5c.9 0 1.6-.1 2.3-.4c.7-.2 1.2-.6 1.5-1c.3-.5.5-1 .5-1.5c0-.5-.2-1-.5-1.4c-.3-.4-.8-.7-1.6-1c-.4-.2-1.4-.5-3-.9c-1.6-.3-2.7-.7-3.3-1c-.8-.5-1.5-1-1.9-1.6c-.4-.7-.6-1.4-.6-2.2c0-.8.3-1.6.8-2.4c.5-.8 1.2-1.3 2.1-1.7c1-.4 2-.6 3.2-.6c1.3 0 2.4.2 3.4.6c.9.4 1.7 1 2.2 1.8c.5.8.8 1.7.8 2.7c0 0-2.1.2-2.1.2c-.2-1.1-.6-1.9-1.2-2.5c-.7-.5-1.7-.8-3-.8c-1.4 0-2.4.3-3 .8c-.7.5-1 1.1-1 1.8c0 .6.2 1.1.7 1.5c.4.4 1.6.8 3.4 1.2c1.9.4 3.1.8 3.8 1.1c1 .5 1.8 1.1 2.2 1.8c.5.7.8 1.5.8 2.4c0 .9-.3 1.8-.8 2.6c-.6.8-1.3 1.4-2.3 1.9c-1 .4-2.1.7-3.3.7c-1.6 0-2.9-.3-3.9-.7c-1.1-.5-1.9-1.1-2.5-2.1c-.6-.9-.9-1.9-.9-3zm25 1.5c0 0 2.2.2 2.2.2c-.4 1.3-1 2.3-1.9 3c-1 .7-2.1 1.1-3.6 1.1c-1.8 0-3.2-.6-4.3-1.7c-1.1-1.1-1.6-2.7-1.6-4.7c0-2.1.5-3.8 1.6-4.9c1.1-1.2 2.5-1.8 4.2-1.8c1.7 0 3 .6 4.1 1.7c1 1.2 1.6 2.8 1.6 4.8c0 .2 0 .3-.1.6c0 0-9.2 0-9.2 0c0 1.4.4 2.4 1.1 3.1c.7.8 1.6 1.1 2.6 1.1c.8 0 1.5-.2 2-.6c.6-.4 1-1 1.3-1.9zm-6.9-3.4c0 0 6.9 0 6.9 0c-.1-1.1-.3-1.9-.8-2.4c-.6-.8-1.5-1.2-2.6-1.2c-.9 0-1.8.3-2.4 1c-.7.6-1 1.5-1.1 2.6zm11.7 7.4l0-17.2l2.1 0l0 17.2l-2.1 0zm13.9-4c0 0 2.2.2 2.2.2c-.4 1.3-1 2.3-1.9 3c-1 .7-2.2 1.1-3.6 1.1c-1.8 0-3.3-.6-4.3-1.7c-1.1-1.1-1.6-2.7-1.6-4.7c0-2.1.5-3.8 1.6-4.9c1.1-1.2 2.5-1.8 4.2-1.8c1.6 0 3 .6 4.1 1.7c1 1.2 1.5 2.8 1.5 4.8c0 .2 0 .3 0 .6c0 0-9.3 0-9.3 0c.1 1.4.5 2.4 1.2 3.1c.7.8 1.6 1.1 2.6 1.1c.8 0 1.4-.2 2-.6c.5-.4 1-1 1.3-1.9zm-6.9-3.4c0 0 6.9 0 6.9 0c-.1-1.1-.3-1.9-.8-2.4c-.7-.8-1.5-1.2-2.6-1.2c-1 0-1.8.3-2.4 1c-.7.6-1.1 1.5-1.1 2.6zm19.8 2.8c0 0 2.1.3 2.1.3c-.2 1.4-.8 2.5-1.7 3.3c-1 .8-2.1 1.3-3.5 1.3c-1.7 0-3-.6-4.1-1.7c-1-1.1-1.5-2.7-1.5-4.8c0-1.3.2-2.5.6-3.5c.5-1 1.2-1.8 2.1-2.3c.9-.5 1.9-.8 2.9-.8c1.4 0 2.5.4 3.4 1.1c.8.7 1.4 1.6 1.6 2.9c0 0-2 .3-2 .3c-.2-.8-.6-1.5-1.1-1.9c-.5-.4-1.1-.6-1.8-.6c-1 0-1.9.4-2.6 1.1c-.6.8-1 2-1 3.6c0 1.7.4 2.9 1 3.7c.6.7 1.5 1.1 2.5 1.1c.8 0 1.5-.2 2.1-.7c.5-.5.9-1.3 1-2.4zm7.6 2.8c.2 0 .5-.1.9-.1c0 0 .3 1.8.3 1.8c-.6.2-1.1.2-1.6.2c-.7 0-1.3-.1-1.7-.3c-.5-.3-.8-.6-.9-1c-.2-.4-.3-1.2-.3-2.5c0 .03 0-7.1 0-7.1l-1.5 0l0-1.7l1.5 0l0-3.1l2.1-1.2l0 4.3l2.1 0l0 1.7l-2.1 0c0 0 0 7.25 0 7.2c0 .6 0 1 .1 1.2c.1.2.2.3.4.4c.1.1.4.2.7.2c0 0 0 0 0 0zm13.9 1.8l0-15.2l-5.7 0l0-2l13.6 0l0 2l-5.7 0l0 15.2l-2.2 0zm10 0l0-17.2l2.1 0c0 0-.01 6.16 0 6.2c1-1.2 2.2-1.8 3.7-1.8c.9 0 1.7.2 2.4.6c.7.4 1.2.9 1.5 1.5c.3.6.4 1.6.4 2.8c.02-.01 0 7.9 0 7.9l-2.1 0c0 0 .01-7.91 0-7.9c0-1.1-.2-1.8-.7-2.3c-.4-.5-1.1-.7-1.9-.7c-.6 0-1.2.1-1.8.4c-.5.4-.9.8-1.2 1.4c-.2.5-.3 1.3-.3 2.3c-.01-.04 0 6.8 0 6.8l-2.1 0zm12.5-6.2c0-2.4.7-4.1 2-5.2c1-.9 2.3-1.4 3.9-1.4c1.7 0 3.1.6 4.2 1.7c1.1 1.1 1.6 2.7 1.6 4.7c0 1.6-.2 2.8-.7 3.8c-.5.9-1.2 1.6-2.1 2.1c-.9.5-1.9.8-3 .8c-1.8 0-3.2-.6-4.2-1.7c-1.1-1.1-1.7-2.7-1.7-4.8zm2.2 0c0 1.5.4 2.7 1.1 3.5c.6.8 1.5 1.2 2.6 1.2c1 0 1.9-.4 2.6-1.2c.7-.8 1-2 1-3.6c0-1.6-.3-2.7-1-3.5c-.7-.8-1.6-1.2-2.6-1.2c-1.1 0-2 .4-2.6 1.2c-.7.8-1.1 2-1.1 3.6zm20.1 6.2c0 0 .03-1.86 0-1.9c-.9 1.5-2.3 2.2-3.9 2.2c-.8 0-1.4-.2-2.1-.5c-.6-.2-1.1-.6-1.4-1c-.3-.5-.5-1-.6-1.6c-.1-.4-.2-1.1-.2-2c.03.04 0-7.7 0-7.7l2.1 0c0 0 .04 6.93 0 6.9c0 1.1.1 1.9.2 2.3c.1.5.4.9.8 1.3c.4.3 1 .4 1.6.4c.6 0 1.2-.1 1.8-.4c.5-.4.9-.8 1.2-1.4c.2-.5.3-1.3.3-2.4c.01 0 0-6.7 0-6.7l2.1 0l0 12.5l-1.9 0zm4.8 1c0 0 2.1.3 2.1.3c.1.6.3 1.1.7 1.4c.5.4 1.2.6 2.1.6c1 0 1.8-.2 2.3-.6c.5-.4.9-.9 1.1-1.6c.1-.5.1-1.4.1-2.8c-.9 1.1-2 1.7-3.4 1.7c-1.7 0-3-.6-4-1.9c-.9-1.2-1.4-2.7-1.4-4.4c0-1.2.2-2.3.7-3.3c.4-1 1-1.8 1.8-2.3c.8-.6 1.8-.9 2.9-.9c1.5 0 2.7.6 3.6 1.8c.04.03 0-1.5 0-1.5l2 0c0 0-.02 10.79 0 10.8c0 1.9-.2 3.3-.6 4.1c-.4.8-1 1.5-1.9 1.9c-.8.5-1.9.7-3.1.7c-1.5 0-2.7-.3-3.6-1c-1-.6-1.4-1.7-1.4-3zm1.8-7.5c0 1.7.3 2.9 1 3.6c.6.8 1.4 1.1 2.4 1.1c1 0 1.8-.3 2.4-1.1c.7-.7 1-1.9 1-3.5c0-1.5-.3-2.7-1-3.4c-.7-.8-1.5-1.2-2.4-1.2c-1 0-1.8.4-2.4 1.1c-.7.8-1 1.9-1 3.4zm12 6.5l0-17.2l2.1 0c0 0-.02 6.16 0 6.2c1-1.2 2.2-1.8 3.7-1.8c.9 0 1.7.2 2.4.6c.7.4 1.2.9 1.5 1.5c.3.6.4 1.6.4 2.8c.01-.01 0 7.9 0 7.9l-2.1 0c0 0 0-7.91 0-7.9c0-1.1-.2-1.8-.7-2.3c-.4-.5-1.1-.7-1.9-.7c-.7 0-1.2.1-1.8.4c-.5.4-.9.8-1.2 1.4c-.2.5-.3 1.3-.3 2.3c-.02-.04 0 6.8 0 6.8l-2.1 0zm17-1.8c.2 0 .5-.1.9-.1c0 0 .3 1.8.3 1.8c-.6.2-1.1.2-1.6.2c-.7 0-1.3-.1-1.7-.3c-.5-.3-.8-.6-.9-1c-.2-.4-.3-1.2-.3-2.5c0 .03 0-7.1 0-7.1l-1.5 0l0-1.7l1.5 0l0-3.1l2.1-1.2l0 4.3l2.1 0l0 1.7l-2.1 0c0 0 0 7.25 0 7.2c0 .6 0 1 .1 1.2c.1.2.2.3.4.4c.1.1.4.2.7.2c0 0 0 0 0 0zm9.8 1.8l0-17.2l2.3 0l0 15.1l8.5 0l0 2.1l-10.8 0zm21.7-4c0 0 2.2.2 2.2.2c-.3 1.3-1 2.3-1.9 3c-.9.7-2.1 1.1-3.6 1.1c-1.8 0-3.2-.6-4.3-1.7c-1.1-1.1-1.6-2.7-1.6-4.7c0-2.1.5-3.8 1.6-4.9c1.1-1.2 2.5-1.8 4.2-1.8c1.7 0 3 .6 4.1 1.7c1 1.2 1.6 2.8 1.6 4.8c0 .2 0 .3 0 .6c0 0-9.3 0-9.3 0c.1 1.4.4 2.4 1.1 3.1c.7.8 1.6 1.1 2.6 1.1c.8 0 1.5-.2 2-.6c.6-.4 1-1 1.3-1.9zm-6.9-3.4c0 0 6.9 0 6.9 0c0-1.1-.3-1.9-.8-2.4c-.6-.8-1.5-1.2-2.6-1.2c-.9 0-1.7.3-2.4 1c-.7.6-1 1.5-1.1 2.6zm20.3 7.4c-.2-.5-.4-1-.4-1.6c-.8.7-1.6 1.2-2.3 1.4c-.7.3-1.5.5-2.3.5c-1.4 0-2.4-.4-3.2-1c-.7-.7-1.1-1.6-1.1-2.6c0-.6.2-1.2.5-1.7c.2-.5.6-.9 1-1.2c.5-.3 1-.5 1.6-.7c.4-.1 1-.2 1.8-.3c1.7-.2 3-.4 3.8-.7c0-.3 0-.5 0-.6c0-.8-.2-1.4-.6-1.8c-.5-.5-1.3-.7-2.4-.7c-1 0-1.7.2-2.2.5c-.5.4-.8 1-1 1.9c0 0-2.1-.3-2.1-.3c.2-.9.5-1.6.9-2.2c.5-.5 1.1-.9 1.9-1.2c.8-.3 1.7-.5 2.8-.5c1.1 0 1.9.2 2.6.4c.7.3 1.2.6 1.5 1c.3.3.5.8.6 1.4c.1.4.1 1 .1 1.9c0 0 0 2.9 0 2.9c0 1.9.1 3.2.2 3.7c.1.5.2 1 .5 1.5c0-.03-2.2 0-2.2 0c0 0-.01-.03 0 0zm-.6-6.3c-.8.3-1.9.6-3.5.8c-.8.1-1.4.3-1.8.4c-.4.2-.6.4-.8.7c-.2.3-.3.7-.3 1c0 .6.2 1.1.6 1.4c.4.4 1.1.6 1.9.6c.8 0 1.5-.2 2.2-.5c.6-.4 1.1-.9 1.4-1.5c.2-.5.3-1.2.3-2.1c0 0 0-.8 0-.8zm13.5 6.3c0 0-.03-1.6 0-1.6c-.8 1.2-2 1.9-3.5 1.9c-1 0-1.9-.3-2.7-.9c-.9-.5-1.5-1.3-2-2.3c-.4-.9-.7-2.1-.7-3.3c0-1.3.2-2.4.7-3.4c.4-1 1-1.8 1.8-2.3c.8-.6 1.8-.9 2.8-.9c.7 0 1.4.2 2 .5c.6.3 1.1.7 1.4 1.3c.03-.04 0-6.2 0-6.2l2.1 0l0 17.2l-1.9 0zm-6.7-6.2c0 1.6.3 2.7 1 3.5c.7.8 1.5 1.2 2.4 1.2c.9 0 1.7-.4 2.3-1.1c.7-.8 1-1.9 1-3.5c0-1.7-.3-2.9-1-3.7c-.6-.8-1.4-1.2-2.4-1.2c-.9 0-1.7.4-2.4 1.1c-.6.8-.9 2-.9 3.7zm20.5 2.2c0 0 2.1.2 2.1.2c-.3 1.3-.9 2.3-1.9 3c-.9.7-2.1 1.1-3.5 1.1c-1.8 0-3.3-.6-4.4-1.7c-1-1.1-1.6-2.7-1.6-4.7c0-2.1.6-3.8 1.7-4.9c1-1.2 2.4-1.8 4.2-1.8c1.6 0 3 .6 4 1.7c1.1 1.2 1.6 2.8 1.6 4.8c0 .2 0 .3 0 .6c0 0-9.3 0-9.3 0c.1 1.4.5 2.4 1.2 3.1c.7.8 1.5 1.1 2.6 1.1c.8 0 1.4-.2 2-.6c.5-.4.9-1 1.3-1.9zm-7-3.4c0 0 7 0 7 0c-.1-1.1-.4-1.9-.8-2.4c-.7-.8-1.6-1.2-2.6-1.2c-1 0-1.8.3-2.5 1c-.6.6-1 1.5-1.1 2.6zm11.8 7.4l0-12.5l1.9 0c0 0-.03 1.91 0 1.9c.5-.9.9-1.5 1.3-1.7c.4-.3.9-.5 1.4-.5c.7 0 1.4.3 2.1.7c0 0-.7 2-.7 2c-.5-.3-1-.5-1.5-.5c-.5 0-.9.2-1.3.4c-.4.3-.6.7-.8 1.2c-.2.7-.3 1.6-.3 2.5c-.02-.04 0 6.5 0 6.5l-2.1 0zm7.1-3.7c0 0 2.1-.4 2.1-.4c.1.9.5 1.5 1 2c.5.4 1.3.6 2.2.6c1 0 1.7-.2 2.2-.6c.5-.4.7-.8.7-1.4c0-.4-.2-.8-.6-1.1c-.3-.2-1-.4-2.2-.7c-1.5-.4-2.6-.7-3.2-1c-.6-.3-1-.7-1.3-1.2c-.4-.5-.5-1.1-.5-1.7c0-.5.1-1 .4-1.5c.2-.5.6-.9 1-1.2c.3-.2.8-.4 1.4-.6c.5-.2 1.1-.3 1.8-.3c1 0 1.8.2 2.5.5c.8.2 1.3.6 1.7 1.1c.3.5.6 1.1.7 1.9c0 0-2.1.3-2.1.3c0-.6-.3-1.1-.8-1.5c-.4-.3-1.1-.5-1.9-.5c-.9 0-1.6.1-2 .5c-.5.3-.7.7-.7 1.1c0 .3.1.5.3.7c.2.3.4.4.8.6c.2.1.8.2 1.9.5c1.5.4 2.5.8 3.1 1c.6.3 1 .6 1.4 1.1c.3.5.5 1.1.5 1.8c0 .7-.2 1.4-.6 2c-.4.6-1 1.1-1.8 1.4c-.8.4-1.7.6-2.6.6c-1.7 0-2.9-.4-3.7-1.1c-.9-.6-1.4-1.6-1.7-2.9zm12.9 3.7l0-17.2l2.1 0c0 0-.01 6.16 0 6.2c1-1.2 2.2-1.8 3.7-1.8c.9 0 1.7.2 2.4.6c.7.4 1.2.9 1.5 1.5c.3.6.4 1.6.4 2.8c.02-.01 0 7.9 0 7.9l-2.1 0c0 0 .01-7.91 0-7.9c0-1.1-.2-1.8-.7-2.3c-.4-.5-1.1-.7-1.9-.7c-.6 0-1.2.1-1.8.4c-.5.4-.9.8-1.2 1.4c-.2.5-.3 1.3-.3 2.3c-.01-.04 0 6.8 0 6.8l-2.1 0zm13.3-14.8l0-2.4l2.2 0l0 2.4l-2.2 0zm0 14.8l0-12.5l2.2 0l0 12.5l-2.2 0zm5.4 4.7l0-17.2l1.9 0c0 0-.01 1.64 0 1.6c.4-.6 1-1.1 1.5-1.4c.6-.3 1.3-.5 2.1-.5c1.1 0 2 .3 2.8.9c.8.5 1.4 1.3 1.8 2.3c.5 1 .7 2.1.7 3.3c0 1.2-.3 2.4-.7 3.4c-.5 1-1.1 1.8-2 2.3c-.9.6-1.8.9-2.8.9c-.7 0-1.3-.2-1.8-.5c-.6-.3-1.1-.7-1.4-1.1c-.03-.02 0 6 0 6l-2.1 0zm1.9-10.9c0 1.6.3 2.8.9 3.6c.7.7 1.5 1.1 2.4 1.1c.9 0 1.7-.4 2.4-1.2c.7-.8 1-2 1-3.7c0-1.5-.3-2.7-1-3.5c-.6-.8-1.4-1.2-2.3-1.2c-.9 0-1.7.4-2.4 1.3c-.7.8-1 2-1 3.6z" stroke="none" fill="#003a5c"/></g></svg>