<?xml version="1.0" standalone="no"?>
<!DOCTYPE svg PUBLIC "-//W3C//DTD SVG 1.1//EN" "http://www.w3.org/Graphics/SVG/1.1/DTD/svg11.dtd">
<svg xmlns="http://www.w3.org/2000/svg" version="1.1" width="97.3px" height="82.1px" viewBox="0 -7 97.3 82.1" style="top:-7px">
  <desc>EV Charging Stations</desc>
  <defs/>
  <g id="Polygon63809">
    <path d="M 29.8 55.6 C 29.8 55.6 31.5 55.5 31.5 55.5 C 31.6 56.2 31.8 56.7 32.1 57.2 C 32.4 57.6 32.9 58 33.5 58.3 C 34.1 58.5 34.8 58.7 35.6 58.7 C 36.3 58.7 36.9 58.6 37.4 58.4 C 38 58.1 38.4 57.9 38.6 57.5 C 38.9 57.1 39 56.8 39 56.3 C 39 55.9 38.9 55.5 38.6 55.2 C 38.4 54.9 38 54.6 37.4 54.4 C 37 54.2 36.2 54 35 53.7 C 33.7 53.4 32.8 53.1 32.3 52.9 C 31.6 52.5 31.2 52.1 30.8 51.6 C 30.5 51.1 30.4 50.5 30.4 49.9 C 30.4 49.2 30.5 48.5 30.9 47.9 C 31.3 47.3 31.9 46.9 32.7 46.5 C 33.4 46.2 34.3 46.1 35.2 46.1 C 36.2 46.1 37.1 46.2 37.9 46.6 C 38.7 46.9 39.3 47.4 39.7 48 C 40.1 48.7 40.3 49.4 40.4 50.2 C 40.4 50.2 38.6 50.3 38.6 50.3 C 38.5 49.4 38.2 48.8 37.7 48.3 C 37.1 47.9 36.3 47.7 35.3 47.7 C 34.2 47.7 33.4 47.9 32.9 48.3 C 32.4 48.7 32.1 49.2 32.1 49.7 C 32.1 50.2 32.3 50.6 32.6 51 C 33 51.3 33.9 51.6 35.4 51.9 C 36.9 52.3 37.9 52.6 38.4 52.8 C 39.2 53.2 39.8 53.7 40.2 54.2 C 40.6 54.8 40.8 55.4 40.8 56.2 C 40.8 56.9 40.6 57.6 40.1 58.2 C 39.7 58.9 39.1 59.4 38.3 59.8 C 37.5 60.1 36.7 60.3 35.7 60.3 C 34.4 60.3 33.4 60.1 32.6 59.7 C 31.7 59.4 31.1 58.8 30.6 58.1 C 30.1 57.4 29.9 56.6 29.8 55.6 Z M 45.8 58.6 C 46 58.6 46.3 58.6 46.6 58.5 C 46.6 58.5 46.8 60 46.8 60 C 46.3 60.1 45.9 60.2 45.5 60.2 C 44.9 60.2 44.4 60.1 44.1 59.9 C 43.8 59.7 43.5 59.5 43.4 59.1 C 43.3 58.8 43.2 58.2 43.2 57.1 C 43.18 57.14 43.2 51.4 43.2 51.4 L 41.9 51.4 L 41.9 50.1 L 43.2 50.1 L 43.2 47.6 L 44.9 46.6 L 44.9 50.1 L 46.6 50.1 L 46.6 51.4 L 44.9 51.4 C 44.9 51.4 44.86 57.24 44.9 57.2 C 44.9 57.7 44.9 58 44.9 58.2 C 45 58.3 45.1 58.4 45.2 58.5 C 45.4 58.6 45.6 58.6 45.8 58.6 C 45.8 58.6 45.8 58.6 45.8 58.6 Z M 55.1 60.1 C 54.9 59.7 54.8 59.3 54.7 58.8 C 54.1 59.4 53.5 59.7 52.9 60 C 52.3 60.2 51.7 60.3 51.1 60.3 C 50 60.3 49.1 60 48.5 59.5 C 47.9 58.9 47.7 58.3 47.7 57.4 C 47.7 56.9 47.8 56.5 48 56.1 C 48.2 55.7 48.5 55.4 48.9 55.1 C 49.2 54.9 49.6 54.7 50.1 54.6 C 50.4 54.5 50.9 54.4 51.6 54.3 C 52.9 54.2 53.9 54 54.6 53.7 C 54.6 53.5 54.6 53.4 54.6 53.3 C 54.6 52.6 54.4 52.1 54.1 51.8 C 53.7 51.5 53 51.3 52.2 51.3 C 51.4 51.3 50.8 51.4 50.4 51.7 C 50.1 52 49.8 52.5 49.6 53.2 C 49.6 53.2 47.9 52.9 47.9 52.9 C 48.1 52.2 48.3 51.7 48.7 51.2 C 49 50.8 49.5 50.5 50.2 50.2 C 50.8 50 51.6 49.9 52.4 49.9 C 53.3 49.9 54 50 54.5 50.2 C 55 50.4 55.4 50.6 55.7 50.9 C 55.9 51.2 56.1 51.6 56.2 52.1 C 56.3 52.4 56.3 52.9 56.3 53.6 C 56.3 53.6 56.3 55.9 56.3 55.9 C 56.3 57.5 56.3 58.4 56.4 58.9 C 56.5 59.3 56.6 59.7 56.8 60.1 C 56.82 60.06 55.1 60.1 55.1 60.1 C 55.1 60.1 55.06 60.06 55.1 60.1 Z M 54.6 55.1 C 54 55.3 53.1 55.5 51.8 55.7 C 51.1 55.8 50.6 55.9 50.4 56 C 50.1 56.2 49.8 56.3 49.7 56.6 C 49.5 56.8 49.5 57.1 49.5 57.4 C 49.5 57.8 49.6 58.2 50 58.5 C 50.3 58.8 50.8 59 51.5 59 C 52.1 59 52.7 58.8 53.2 58.5 C 53.7 58.3 54.1 57.9 54.3 57.4 C 54.5 57 54.6 56.4 54.6 55.7 C 54.6 55.7 54.6 55.1 54.6 55.1 Z M 61.5 58.6 C 61.7 58.6 62 58.6 62.3 58.5 C 62.3 58.5 62.5 60 62.5 60 C 62 60.1 61.6 60.2 61.2 60.2 C 60.6 60.2 60.1 60.1 59.8 59.9 C 59.5 59.7 59.2 59.5 59.1 59.1 C 59 58.8 58.9 58.2 58.9 57.1 C 58.89 57.14 58.9 51.4 58.9 51.4 L 57.7 51.4 L 57.7 50.1 L 58.9 50.1 L 58.9 47.6 L 60.6 46.6 L 60.6 50.1 L 62.3 50.1 L 62.3 51.4 L 60.6 51.4 C 60.6 51.4 60.57 57.24 60.6 57.2 C 60.6 57.7 60.6 58 60.7 58.2 C 60.7 58.3 60.8 58.4 60.9 58.5 C 61.1 58.6 61.3 58.6 61.5 58.6 C 61.5 58.6 61.5 58.6 61.5 58.6 Z M 63.8 48.3 L 63.8 46.3 L 65.5 46.3 L 65.5 48.3 L 63.8 48.3 Z M 63.8 60.1 L 63.8 50.1 L 65.5 50.1 L 65.5 60.1 L 63.8 60.1 Z M 67.3 55.1 C 67.3 53.2 67.9 51.9 68.9 51 C 69.7 50.2 70.8 49.9 72 49.9 C 73.4 49.9 74.5 50.3 75.4 51.2 C 76.2 52.1 76.7 53.4 76.7 54.9 C 76.7 56.2 76.5 57.2 76.1 58 C 75.7 58.7 75.1 59.3 74.4 59.7 C 73.7 60.1 72.9 60.3 72 60.3 C 70.6 60.3 69.5 59.8 68.6 58.9 C 67.8 58 67.3 56.8 67.3 55.1 Z M 69.1 55.1 C 69.1 56.4 69.4 57.3 69.9 57.9 C 70.5 58.6 71.2 58.9 72 58.9 C 72.8 58.9 73.5 58.6 74.1 57.9 C 74.7 57.3 74.9 56.3 74.9 55 C 74.9 53.8 74.7 52.9 74.1 52.2 C 73.5 51.6 72.8 51.3 72 51.3 C 71.2 51.3 70.5 51.6 69.9 52.2 C 69.4 52.9 69.1 53.8 69.1 55.1 Z M 78.5 60.1 L 78.5 50.1 L 80 50.1 C 80 50.1 80.03 51.52 80 51.5 C 80.8 50.4 81.8 49.9 83.2 49.9 C 83.8 49.9 84.4 50 84.9 50.2 C 85.4 50.4 85.7 50.7 86 51 C 86.2 51.4 86.4 51.8 86.5 52.3 C 86.6 52.6 86.6 53.2 86.6 53.9 C 86.6 53.94 86.6 60.1 86.6 60.1 L 84.9 60.1 C 84.9 60.1 84.92 54 84.9 54 C 84.9 53.3 84.9 52.8 84.7 52.5 C 84.6 52.1 84.4 51.8 84 51.6 C 83.7 51.4 83.3 51.3 82.8 51.3 C 82.1 51.3 81.5 51.6 81 52 C 80.5 52.5 80.2 53.3 80.2 54.6 C 80.2 54.62 80.2 60.1 80.2 60.1 L 78.5 60.1 Z M 88.3 57.1 C 88.3 57.1 90 56.8 90 56.8 C 90 57.5 90.3 58 90.7 58.4 C 91.2 58.7 91.8 58.9 92.5 58.9 C 93.3 58.9 93.9 58.7 94.3 58.4 C 94.6 58.1 94.8 57.7 94.8 57.3 C 94.8 56.9 94.7 56.6 94.3 56.4 C 94.1 56.3 93.5 56.1 92.6 55.8 C 91.4 55.5 90.5 55.3 90 55 C 89.5 54.8 89.2 54.5 88.9 54.1 C 88.7 53.7 88.6 53.2 88.6 52.7 C 88.6 52.3 88.7 51.9 88.9 51.5 C 89.1 51.1 89.3 50.8 89.7 50.6 C 90 50.4 90.3 50.2 90.8 50.1 C 91.2 49.9 91.7 49.9 92.2 49.9 C 93 49.9 93.7 50 94.3 50.2 C 94.9 50.4 95.3 50.7 95.6 51.1 C 95.9 51.5 96.1 52 96.2 52.7 C 96.2 52.7 94.5 52.9 94.5 52.9 C 94.5 52.4 94.2 52 93.9 51.7 C 93.5 51.4 93 51.3 92.4 51.3 C 91.6 51.3 91 51.4 90.7 51.6 C 90.4 51.9 90.2 52.2 90.2 52.5 C 90.2 52.8 90.3 53 90.4 53.1 C 90.5 53.3 90.8 53.5 91 53.6 C 91.2 53.7 91.7 53.8 92.5 54 C 93.7 54.3 94.6 54.6 95 54.8 C 95.5 55 95.9 55.3 96.1 55.7 C 96.4 56.1 96.6 56.6 96.6 57.1 C 96.6 57.7 96.4 58.2 96.1 58.7 C 95.7 59.2 95.3 59.6 94.6 59.9 C 94 60.1 93.3 60.3 92.5 60.3 C 91.2 60.3 90.3 60 89.6 59.5 C 88.9 58.9 88.5 58.1 88.3 57.1 Z " stroke="none" fill="#ffffff"/>
  </g>
  <g id="Polygon63808">
    <path d="M 32.1 32.2 C 32.1 32.2 33.9 32.7 33.9 32.7 C 33.5 34.2 32.8 35.3 31.8 36.1 C 30.9 36.9 29.6 37.3 28.2 37.3 C 26.7 37.3 25.5 37 24.6 36.3 C 23.7 35.7 23 34.9 22.5 33.7 C 22 32.6 21.8 31.4 21.8 30 C 21.8 28.6 22 27.4 22.6 26.3 C 23.1 25.2 23.9 24.4 24.9 23.9 C 25.9 23.3 27 23 28.2 23 C 29.6 23 30.8 23.4 31.7 24.1 C 32.6 24.8 33.3 25.8 33.7 27 C 33.7 27 31.9 27.5 31.9 27.5 C 31.6 26.5 31.1 25.7 30.5 25.3 C 29.9 24.8 29.1 24.6 28.2 24.6 C 27.1 24.6 26.3 24.8 25.6 25.4 C 24.8 25.9 24.3 26.5 24.1 27.4 C 23.8 28.2 23.6 29.1 23.6 30 C 23.6 31.2 23.8 32.2 24.1 33.1 C 24.5 34 25 34.6 25.7 35 C 26.4 35.5 27.2 35.7 28.1 35.7 C 29.1 35.7 29.9 35.4 30.7 34.8 C 31.4 34.2 31.8 33.4 32.1 32.2 Z M 35.7 37 L 35.7 23.3 L 37.4 23.3 C 37.4 23.3 37.39 28.21 37.4 28.2 C 38.2 27.3 39.2 26.8 40.4 26.8 C 41.1 26.8 41.7 27 42.3 27.3 C 42.8 27.6 43.2 28 43.5 28.5 C 43.7 29 43.8 29.7 43.8 30.7 C 43.81 30.71 43.8 37 43.8 37 L 42.1 37 C 42.1 37 42.12 30.71 42.1 30.7 C 42.1 29.9 41.9 29.3 41.6 28.9 C 41.2 28.5 40.7 28.3 40 28.3 C 39.5 28.3 39.1 28.4 38.6 28.7 C 38.2 28.9 37.9 29.3 37.7 29.7 C 37.5 30.2 37.4 30.8 37.4 31.6 C 37.39 31.57 37.4 37 37.4 37 L 35.7 37 Z M 53 37 C 52.8 36.7 52.7 36.3 52.7 35.8 C 52 36.3 51.4 36.7 50.9 36.9 C 50.3 37.1 49.7 37.2 49 37.2 C 47.9 37.2 47.1 37 46.5 36.4 C 45.9 35.9 45.6 35.2 45.6 34.4 C 45.6 33.9 45.7 33.5 45.9 33.1 C 46.1 32.7 46.4 32.3 46.8 32.1 C 47.2 31.8 47.6 31.7 48 31.5 C 48.3 31.4 48.8 31.4 49.5 31.3 C 50.9 31.1 51.9 30.9 52.5 30.7 C 52.5 30.5 52.5 30.3 52.5 30.3 C 52.5 29.6 52.4 29.1 52.1 28.8 C 51.6 28.4 51 28.2 50.1 28.2 C 49.3 28.2 48.7 28.4 48.4 28.7 C 48 28.9 47.7 29.4 47.5 30.1 C 47.5 30.1 45.9 29.9 45.9 29.9 C 46 29.2 46.3 28.6 46.6 28.2 C 47 27.8 47.5 27.4 48.1 27.2 C 48.8 27 49.5 26.8 50.4 26.8 C 51.2 26.8 51.9 26.9 52.4 27.1 C 53 27.3 53.4 27.6 53.6 27.9 C 53.9 28.2 54 28.6 54.1 29 C 54.2 29.3 54.2 29.8 54.2 30.6 C 54.2 30.6 54.2 32.8 54.2 32.8 C 54.2 34.4 54.3 35.4 54.3 35.8 C 54.4 36.2 54.5 36.6 54.8 37 C 54.76 37.02 53 37 53 37 C 53 37 53 37.02 53 37 Z M 52.5 32 C 51.9 32.3 51 32.5 49.8 32.7 C 49.1 32.8 48.6 32.9 48.3 33 C 48 33.1 47.8 33.3 47.6 33.5 C 47.5 33.8 47.4 34.1 47.4 34.3 C 47.4 34.8 47.6 35.2 47.9 35.5 C 48.2 35.8 48.7 35.9 49.4 35.9 C 50 35.9 50.6 35.8 51.1 35.5 C 51.6 35.2 52 34.8 52.2 34.3 C 52.4 33.9 52.5 33.4 52.5 32.6 C 52.5 32.6 52.5 32 52.5 32 Z M 56.6 37 L 56.6 27.1 L 58.1 27.1 C 58.1 27.1 58.13 28.57 58.1 28.6 C 58.5 27.9 58.9 27.4 59.2 27.2 C 59.5 26.9 59.9 26.8 60.3 26.8 C 60.9 26.8 61.4 27 62 27.4 C 62 27.4 61.4 28.9 61.4 28.9 C 61 28.7 60.6 28.6 60.2 28.6 C 59.8 28.6 59.5 28.7 59.2 28.9 C 58.9 29.1 58.7 29.4 58.6 29.8 C 58.4 30.4 58.3 31.1 58.3 31.8 C 58.3 31.81 58.3 37 58.3 37 L 56.6 37 Z M 62.6 37.8 C 62.6 37.8 64.2 38.1 64.2 38.1 C 64.3 38.6 64.5 39 64.8 39.2 C 65.2 39.5 65.8 39.7 66.5 39.7 C 67.3 39.7 67.9 39.5 68.3 39.2 C 68.7 38.9 69 38.4 69.2 37.9 C 69.3 37.5 69.3 36.8 69.3 35.7 C 68.6 36.6 67.6 37 66.5 37 C 65.2 37 64.1 36.5 63.4 35.5 C 62.6 34.5 62.2 33.4 62.2 32 C 62.2 31 62.4 30.2 62.8 29.4 C 63.1 28.6 63.6 27.9 64.2 27.5 C 64.9 27.1 65.7 26.8 66.5 26.8 C 67.7 26.8 68.7 27.3 69.5 28.3 C 69.46 28.26 69.5 27.1 69.5 27.1 L 71 27.1 C 71 27.1 71.01 35.67 71 35.7 C 71 37.2 70.9 38.3 70.5 39 C 70.2 39.6 69.7 40.1 69 40.5 C 68.4 40.9 67.5 41.1 66.5 41.1 C 65.3 41.1 64.4 40.8 63.6 40.3 C 62.9 39.7 62.5 38.9 62.6 37.8 Z M 64 31.9 C 64 33.2 64.2 34.1 64.7 34.7 C 65.3 35.3 65.9 35.6 66.7 35.6 C 67.5 35.6 68.1 35.3 68.6 34.7 C 69.2 34.1 69.4 33.2 69.4 31.9 C 69.4 30.7 69.2 29.8 68.6 29.2 C 68.1 28.5 67.4 28.2 66.7 28.2 C 65.9 28.2 65.3 28.5 64.8 29.1 C 64.2 29.8 64 30.7 64 31.9 Z M 73.4 25.2 L 73.4 23.3 L 75 23.3 L 75 25.2 L 73.4 25.2 Z M 73.4 37 L 73.4 27.1 L 75 27.1 L 75 37 L 73.4 37 Z M 77.4 37 L 77.4 27.1 L 78.9 27.1 C 78.9 27.1 78.9 28.48 78.9 28.5 C 79.6 27.4 80.7 26.8 82.1 26.8 C 82.7 26.8 83.2 26.9 83.7 27.2 C 84.2 27.4 84.6 27.7 84.9 28 C 85.1 28.4 85.3 28.8 85.4 29.3 C 85.4 29.6 85.5 30.1 85.5 30.9 C 85.48 30.9 85.5 37 85.5 37 L 83.8 37 C 83.8 37 83.79 30.96 83.8 31 C 83.8 30.3 83.7 29.8 83.6 29.4 C 83.5 29.1 83.2 28.8 82.9 28.6 C 82.6 28.4 82.2 28.3 81.7 28.3 C 81 28.3 80.4 28.5 79.9 29 C 79.3 29.4 79.1 30.3 79.1 31.6 C 79.07 31.58 79.1 37 79.1 37 L 77.4 37 Z M 87.6 37.8 C 87.6 37.8 89.2 38.1 89.2 38.1 C 89.3 38.6 89.5 39 89.8 39.2 C 90.2 39.5 90.8 39.7 91.5 39.7 C 92.3 39.7 92.9 39.5 93.3 39.2 C 93.7 38.9 94 38.4 94.2 37.9 C 94.3 37.5 94.3 36.8 94.3 35.7 C 93.6 36.6 92.6 37 91.5 37 C 90.2 37 89.1 36.5 88.4 35.5 C 87.6 34.5 87.2 33.4 87.2 32 C 87.2 31 87.4 30.2 87.7 29.4 C 88.1 28.6 88.6 27.9 89.2 27.5 C 89.9 27.1 90.7 26.8 91.5 26.8 C 92.7 26.8 93.7 27.3 94.5 28.3 C 94.45 28.26 94.5 27.1 94.5 27.1 L 96 27.1 C 96 27.1 96.01 35.67 96 35.7 C 96 37.2 95.9 38.3 95.5 39 C 95.2 39.6 94.7 40.1 94 40.5 C 93.4 40.9 92.5 41.1 91.5 41.1 C 90.3 41.1 89.4 40.8 88.6 40.3 C 87.9 39.7 87.5 38.9 87.6 37.8 Z M 89 31.9 C 89 33.2 89.2 34.1 89.7 34.7 C 90.3 35.3 90.9 35.6 91.7 35.6 C 92.5 35.6 93.1 35.3 93.6 34.7 C 94.2 34.1 94.4 33.2 94.4 31.9 C 94.4 30.7 94.2 29.8 93.6 29.2 C 93.1 28.5 92.4 28.2 91.7 28.2 C 90.9 28.2 90.3 28.5 89.8 29.1 C 89.2 29.8 89 30.7 89 31.9 Z " stroke="none" fill="#ffffff"/>
  </g>
  <g id="Polygon63807">
    <path d="M 73.1 14 L 73.1 0.2 L 83 0.2 L 83 1.9 L 74.9 1.9 L 74.9 6.1 L 82.5 6.1 L 82.5 7.7 L 74.9 7.7 L 74.9 12.4 L 83.4 12.4 L 83.4 14 L 73.1 14 Z M 89.9 14 L 84.6 0.2 L 86.5 0.2 C 86.5 0.2 90.11 10.22 90.1 10.2 C 90.4 11 90.6 11.8 90.8 12.5 C 91 11.7 91.3 11 91.6 10.2 C 91.57 10.22 95.3 0.2 95.3 0.2 L 97.1 0.2 L 91.8 14 L 89.9 14 Z " stroke="none" fill="#ffffff"/>
  </g>
</svg>