<?xml version="1.0" standalone="no"?><!DOCTYPE svg PUBLIC "-//W3C//DTD SVG 1.1//EN" "http://www.w3.org/Graphics/SVG/1.1/DTD/svg11.dtd"><svg xmlns="http://www.w3.org/2000/svg" version="1.1" width="589px" height="206.9px" viewBox="0 -5 589 206.9" style="top:-5px"><desc>Asia Beijing Hong Kong Seoul Shanghai Singapore Tokyo Europe Brussels Düsseldorf Frankfurt Hamburg London Madrid</desc><defs/><g id="Group70494"><path d="m443.7 157l-2-7.5l1 0c0 0 1.15 4.93 1.2 4.9c.1.5.2 1.1.3 1.6c.2-.8.3-1.3.3-1.4c.01-.02 1.4-5.1 1.4-5.1l1.2 0c0 0 1.12 3.81 1.1 3.8c.3 1 .5 1.8.6 2.7c.1-.5.2-1.1.4-1.7c-.02.03 1.2-4.8 1.2-4.8l1 0l-2.1 7.5l-1 0c0 0-1.55-5.71-1.5-5.7c-.2-.5-.3-.8-.3-.9c-.1.4-.1.7-.2.9c-.01-.01-1.6 5.7-1.6 5.7l-1 0zm11.8 0c-.1-.2-.1-.4-.2-.7c-.3.3-.6.5-1 .7c-.3.1-.6.1-1 .1c-.6 0-1-.1-1.4-.4c-.3-.3-.4-.7-.4-1.1c0-.3 0-.5.1-.7c.2-.3.3-.4.5-.6c.2-.1.4-.2.7-.3c.2 0 .4-.1.8-.1c.8-.1 1.3-.2 1.7-.3c0-.2 0-.2 0-.3c0-.4-.1-.6-.3-.8c-.2-.2-.6-.3-1.1-.3c-.4 0-.7.1-.9.2c-.2.2-.4.5-.5.9c0 0-.9-.2-.9-.2c.1-.4.2-.7.4-.9c.2-.2.5-.4.8-.6c.4-.1.8-.1 1.3-.1c.4 0 .8 0 1.1.1c.3.1.5.3.7.4c.1.2.2.4.2.7c.1.1.1.4.1.8c0 0 0 1.2 0 1.2c0 .9 0 1.4 0 1.7c.1.2.2.4.3.6c-.02.02-1 0-1 0c0 0 .01.02 0 0zm-.2-2.7c-.4.1-.9.2-1.6.3c-.3.1-.6.2-.8.2c-.1.1-.2.2-.3.3c-.1.2-.2.3-.2.5c0 .2.1.4.3.6c.2.1.5.2.8.2c.4 0 .7-.1 1-.2c.3-.2.5-.4.6-.7c.1-.2.2-.5.2-.9c0 0 0-.3 0-.3zm1.9 1.1c0 0 1-.1 1-.1c0 .3.2.6.4.8c.2.2.5.3 1 .3c.4 0 .7-.1.9-.3c.2-.1.3-.3.3-.6c0-.2-.1-.4-.3-.5c-.1-.1-.4-.2-.9-.3c-.7-.2-1.1-.3-1.4-.4c-.3-.2-.5-.3-.6-.5c-.1-.3-.2-.5-.2-.8c0-.2.1-.4.2-.7c.1-.2.2-.3.4-.5c.2-.1.4-.2.6-.2c.3-.1.5-.1.8-.1c.4 0 .8 0 1.1.1c.4.2.6.3.7.5c.2.2.3.5.4.9c0 0-.9.1-.9.1c-.1-.3-.2-.5-.4-.7c-.2-.1-.5-.2-.8-.2c-.5 0-.8.1-.9.2c-.2.2-.3.3-.3.5c0 .1 0 .2.1.3c.1.1.2.2.4.3c.1 0 .3.1.8.2c.6.2 1.1.3 1.3.4c.3.2.5.3.6.5c.2.2.3.5.3.8c0 .3-.1.6-.3.9c-.2.3-.4.5-.8.6c-.3.2-.7.2-1.1.2c-.7 0-1.3-.1-1.6-.4c-.4-.3-.7-.7-.8-1.3zm5.7 1.6l0-7.5l.9 0c0 0-.01 2.7 0 2.7c.4-.5 1-.7 1.6-.7c.4 0 .8 0 1.1.2c.3.1.5.4.6.6c.1.3.2.7.2 1.3c0-.03 0 3.4 0 3.4l-.9 0c0 0-.02-3.43 0-3.4c0-.5-.1-.8-.3-1c-.2-.2-.5-.4-.9-.4c-.2 0-.5.1-.7.3c-.3.1-.5.3-.6.5c-.1.3-.1.6-.1 1c-.01.04 0 3 0 3l-.9 0zm5.8-6.4l0-1.1l.9 0l0 1.1l-.9 0zm0 6.4l0-5.4l.9 0l0 5.4l-.9 0zm2.3 0l0-5.4l.9 0c0 0-.03.75 0 .7c.4-.5.9-.8 1.7-.8c.3 0 .6 0 .9.1c.3.1.5.3.6.5c.2.2.3.4.3.7c0 .1.1.4.1.9c-.04-.03 0 3.3 0 3.3l-1 0c0 0 .04-3.29 0-3.3c0-.4 0-.6-.1-.8c0-.2-.2-.4-.4-.5c-.1-.1-.3-.1-.6-.1c-.4 0-.7.1-1 .3c-.3.3-.4.7-.4 1.4c-.04.05 0 3 0 3l-1 0zm5.7.5c0 0 .9.1.9.1c0 .3.1.5.3.6c.2.2.6.3 1 .3c.4 0 .7-.1.9-.3c.3-.2.4-.4.5-.7c.1-.2.1-.6.1-1.2c-.4.5-.9.7-1.5.7c-.8 0-1.4-.2-1.8-.8c-.4-.5-.6-1.2-.6-1.9c0-.6.1-1 .3-1.5c.2-.4.5-.7.8-1c.4-.2.8-.3 1.3-.3c.6 0 1.2.2 1.6.7c-.03.03 0-.6 0-.6l.8 0c0 0 .02 4.68 0 4.7c0 .8-.1 1.4-.2 1.8c-.2.3-.5.6-.9.8c-.3.2-.8.3-1.3.3c-.7 0-1.2-.1-1.6-.4c-.4-.3-.6-.7-.6-1.3zm.8-3.3c0 .7.1 1.2.4 1.6c.3.3.6.5 1.1.5c.4 0 .7-.2 1-.5c.3-.4.5-.9.5-1.6c0-.6-.2-1.1-.5-1.5c-.3-.3-.6-.5-1.1-.5c-.4 0-.7.2-1 .5c-.3.3-.4.8-.4 1.5zm6.8 2c.1 0 .3 0 .4 0c0 0 .2.8.2.8c-.3.1-.5.1-.7.1c-.4 0-.6-.1-.8-.2c-.2-.1-.3-.2-.4-.4c-.1-.2-.1-.5-.1-1.1c-.01.03 0-3.1 0-3.1l-.7 0l0-.7l.7 0l0-1.4l.9-.5l0 1.9l.9 0l0 .7l-.9 0c0 0 0 3.18 0 3.2c0 .2 0 .4.1.5c0 .1 0 .1.1.2c.1 0 .2 0 .3 0c0 0 0 0 0 0zm1-1.9c0-1 .3-1.8.8-2.2c.5-.4 1.1-.6 1.7-.6c.8 0 1.4.2 1.9.7c.5.5.7 1.2.7 2c0 .7-.1 1.3-.3 1.7c-.2.4-.5.7-.9.9c-.4.2-.9.3-1.4.3c-.7 0-1.3-.2-1.8-.7c-.5-.5-.7-1.2-.7-2.1zm.9 0c0 .7.2 1.2.5 1.6c.3.3.7.5 1.1.5c.5 0 .9-.2 1.2-.5c.3-.4.4-.9.4-1.6c0-.7-.1-1.2-.4-1.6c-.3-.3-.7-.5-1.2-.5c-.4 0-.8.2-1.1.5c-.3.4-.5.9-.5 1.6zm5.3 2.7l0-5.4l.8 0c0 0 0 .75 0 .7c.4-.5 1-.8 1.7-.8c.4 0 .7 0 .9.1c.3.1.5.3.7.5c.1.2.2.4.2.7c.1.1.1.4.1.9c0-.03 0 3.3 0 3.3l-.9 0c0 0-.02-3.29 0-3.3c0-.4-.1-.6-.1-.8c-.1-.2-.2-.4-.4-.5c-.2-.1-.4-.1-.7-.1c-.4 0-.7.1-1 .3c-.3.3-.4.7-.4 1.4c0 .05 0 3 0 3l-.9 0zm6.1 0l0-1l1 0c0 0 0 1.02 0 1c0 .4-.1.7-.2 1c-.1.2-.4.4-.7.5c0 0-.2-.4-.2-.4c.2-.1.3-.2.4-.4c.1-.1.2-.4.2-.7c-.02.02-.5 0-.5 0zm5.7 0l0-7.5c0 0 2.55 0 2.6 0c.5 0 1 0 1.3.1c.4.1.8.3 1.1.6c.4.3.7.7.9 1.2c.2.6.3 1.2.3 1.8c0 .6-.1 1.1-.2 1.5c-.2.5-.3.8-.5 1.1c-.2.3-.5.5-.7.7c-.3.2-.6.3-.9.4c-.4.1-.8.1-1.2.1c-.02.02-2.7 0-2.7 0zm1-.9c0 0 1.56.03 1.6 0c.5 0 .8 0 1.1-.1c.3-.1.5-.2.7-.4c.2-.2.4-.5.6-.9c.1-.4.2-.9.2-1.5c0-.8-.2-1.4-.4-1.8c-.3-.4-.6-.7-1-.9c-.2-.1-.7-.1-1.3-.1c.04-.01-1.5 0-1.5 0l0 5.7zm6.7.9l0-1l1 0l0 1l-1 0zm8.1-2.6c0 0 1 .2 1 .2c-.2.9-.6 1.5-1.1 1.9c-.5.4-1.2.6-2 .6c-.8 0-1.5-.1-2-.4c-.5-.4-.9-.9-1.1-1.5c-.3-.6-.4-1.3-.4-2c0-.8.1-1.5.4-2c.3-.6.8-1.1 1.3-1.4c.6-.3 1.2-.4 1.8-.4c.8 0 1.4.2 1.9.6c.5.3.9.9 1.1 1.6c0 0-1 .2-1 .2c-.2-.6-.4-.9-.7-1.2c-.4-.2-.8-.4-1.3-.4c-.6 0-1.1.2-1.4.4c-.4.3-.7.7-.9 1.2c-.1.4-.2.9-.2 1.4c0 .6.1 1.2.3 1.7c.2.5.5.8.9 1c.3.3.8.4 1.2.4c.6 0 1.1-.2 1.4-.5c.4-.3.7-.8.8-1.4zm2.4 2.6l0-1l1 0l0 1l-1 0z" stroke="none" fill="#ffffff"/><path d="m442 142c0 0 1-.1 1-.1c0 .4.1.7.3.9c.1.3.4.5.7.6c.4.2.8.3 1.2.3c.4 0 .7-.1 1-.2c.3-.1.5-.3.6-.5c.2-.2.3-.4.3-.6c0-.3-.1-.5-.2-.6c-.2-.2-.4-.4-.7-.5c-.2-.1-.7-.2-1.4-.3c-.7-.2-1.1-.4-1.4-.5c-.4-.2-.6-.4-.8-.7c-.2-.3-.3-.6-.3-1c0-.3.1-.7.3-1c.3-.3.6-.6 1-.8c.4-.1.9-.2 1.4-.2c.5 0 1 .1 1.4.2c.5.2.8.5 1 .8c.3.4.4.8.4 1.2c0 0-1 .1-1 .1c0-.5-.2-.8-.5-1.1c-.3-.2-.7-.3-1.3-.3c-.6 0-1 .1-1.3.3c-.3.2-.4.5-.4.8c0 .3.1.5.3.6c.2.2.7.4 1.5.6c.8.2 1.3.3 1.6.5c.5.2.8.4 1 .7c.2.3.3.7.3 1.1c0 .4-.1.8-.3 1.1c-.3.4-.6.7-1 .9c-.4.2-.9.2-1.5.2c-.6 0-1.2-.1-1.7-.2c-.4-.2-.8-.5-1.1-.9c-.2-.4-.4-.9-.4-1.4zm7.3-4l0-1.1l.9 0l0 1.1l-.9 0zm0 6.4l0-5.4l.9 0l0 5.4l-.9 0zm2.3 0l0-7.5l.9 0l0 7.5l-.9 0zm2.3-6.4l0-1.1l1 0l0 1.1l-1 0zm0 6.4l0-5.4l1 0l0 5.4l-1 0zm5.9-2c0 0 .9.1.9.1c-.1.7-.3 1.2-.7 1.5c-.5.4-1 .5-1.5.5c-.8 0-1.4-.2-1.8-.7c-.5-.5-.7-1.2-.7-2.1c0-.6.1-1.1.3-1.5c.2-.5.5-.8.9-1c.4-.2.8-.3 1.3-.3c.5 0 1 .1 1.4.4c.4.3.6.7.7 1.3c0 0-.9.1-.9.1c-.1-.4-.2-.6-.4-.8c-.2-.2-.5-.3-.8-.3c-.5 0-.9.2-1.1.5c-.3.3-.5.9-.5 1.6c0 .7.2 1.3.4 1.6c.3.3.7.5 1.1.5c.4 0 .7-.1.9-.3c.3-.3.4-.6.5-1.1zm1.4-.7c0-1 .2-1.8.8-2.2c.5-.4 1-.6 1.7-.6c.8 0 1.4.2 1.9.7c.4.5.7 1.2.7 2c0 .7-.1 1.3-.4 1.7c-.2.4-.5.7-.9.9c-.4.2-.8.3-1.3.3c-.7 0-1.4-.2-1.8-.7c-.5-.5-.7-1.2-.7-2.1zm.9 0c0 .7.2 1.2.5 1.6c.3.3.7.5 1.1.5c.5 0 .9-.2 1.2-.5c.3-.4.4-.9.4-1.6c0-.7-.1-1.2-.4-1.6c-.3-.3-.7-.5-1.2-.5c-.4 0-.8.2-1.1.5c-.3.4-.5.9-.5 1.6zm5.2 2.7l0-5.4l.9 0c0 0-.02.75 0 .7c.4-.5 1-.8 1.7-.8c.3 0 .6 0 .9.1c.3.1.5.3.6.5c.2.2.3.4.3.7c.1.1.1.4.1.9c-.03-.03 0 3.3 0 3.3l-1 0c0 0 .05-3.29 0-3.3c0-.4 0-.6-.1-.8c0-.2-.2-.4-.3-.5c-.2-.1-.4-.1-.7-.1c-.4 0-.7.1-1 .3c-.3.3-.4.7-.4 1.4c-.03.05 0 3 0 3l-1 0zm11.1 0l-2.9-7.5l1 0c0 0 1.99 5.46 2 5.5c.1.4.3.8.4 1.2c.1-.4.2-.8.4-1.2c-.01-.04 2-5.5 2-5.5l1 0l-2.9 7.5l-1 0zm7.7 0c-.1-.2-.2-.4-.2-.7c-.4.3-.7.5-1 .7c-.3.1-.7.1-1 .1c-.6 0-1.1-.1-1.4-.4c-.3-.3-.5-.7-.5-1.1c0-.3.1-.5.2-.7c.1-.3.3-.4.5-.6c.2-.1.4-.2.6-.3c.2 0 .5-.1.9-.1c.7-.1 1.3-.2 1.6-.3c0-.2 0-.2 0-.3c0-.4-.1-.6-.3-.8c-.2-.2-.5-.3-1-.3c-.4 0-.8.1-1 .2c-.2.2-.3.5-.4.9c0 0-.9-.2-.9-.2c.1-.4.2-.7.4-.9c.2-.2.4-.4.8-.6c.3-.1.8-.1 1.2-.1c.5 0 .9 0 1.2.1c.3.1.5.3.6.4c.1.2.2.4.3.7c0 .1 0 .4 0 .8c0 0 0 1.2 0 1.2c0 .9.1 1.4.1 1.7c0 .2.1.4.2.6c.03.02-.9 0-.9 0c0 0-.04.02 0 0zm-.3-2.7c-.3.1-.8.2-1.5.3c-.4.1-.7.2-.8.2c-.2.1-.3.2-.4.3c-.1.2-.1.3-.1.5c0 .2.1.4.3.6c.2.1.4.2.8.2c.4 0 .7-.1.9-.2c.3-.2.5-.4.7-.7c.1-.2.1-.5.1-.9c0 0 0-.3 0-.3zm2.3 2.7l0-7.5l1 0l0 7.5l-1 0zm2.4 0l0-7.5l.9 0l0 7.5l-.9 0zm6.1-1.7c0 0 .9.1.9.1c-.1.5-.4 1-.8 1.3c-.4.3-.9.4-1.6.4c-.8 0-1.4-.2-1.9-.7c-.4-.5-.7-1.2-.7-2.1c0-.9.3-1.6.7-2.1c.5-.5 1.1-.7 1.9-.7c.7 0 1.3.2 1.8.7c.4.5.6 1.2.6 2.1c0 0 0 .1 0 .2c0 0-4 0-4 0c0 .6.2 1.1.5 1.4c.3.3.7.5 1.1.5c.4 0 .7-.1.9-.3c.2-.2.4-.4.6-.8zm-3.1-1.5c0 0 3.1 0 3.1 0c-.1-.5-.2-.8-.4-1.1c-.3-.3-.7-.5-1.1-.5c-.4 0-.8.2-1.1.4c-.3.3-.4.7-.5 1.2zm5.7 5.4c-.2 0-.4 0-.6-.1c0 0-.1-.8-.1-.8c.2 0 .4 0 .6 0c.2 0 .3 0 .4-.1c.2 0 .3-.1.4-.3c0 0 .1-.3.2-.6c0-.1.1-.2.1-.3c.01.03-2.1-5.4-2.1-5.4l1 0c0 0 1.18 3.13 1.2 3.1c.1.4.3.8.4 1.3c.1-.4.2-.8.4-1.3c-.05.05 1.1-3.1 1.1-3.1l.9 0c0 0-2.03 5.51-2 5.5c-.3.6-.4 1-.6 1.2c-.1.4-.3.6-.5.7c-.2.2-.5.2-.8.2c0 0 0 0 0 0z" stroke="none" fill="#ffffff"/><path d="m442 129.4c0 0 1-.1 1-.1c0 .4.1.7.3.9c.1.3.4.5.7.6c.4.2.8.3 1.2.3c.4 0 .7-.1 1-.2c.3-.1.5-.3.6-.5c.2-.2.3-.4.3-.6c0-.3-.1-.5-.2-.6c-.2-.2-.4-.4-.7-.5c-.2-.1-.7-.2-1.4-.3c-.7-.2-1.1-.4-1.4-.5c-.4-.2-.6-.4-.8-.7c-.2-.3-.3-.6-.3-1c0-.3.1-.7.3-1c.3-.3.6-.6 1-.8c.4-.1.9-.2 1.4-.2c.5 0 1 .1 1.4.2c.5.2.8.5 1 .8c.3.4.4.8.4 1.2c0 0-1 .1-1 .1c0-.5-.2-.8-.5-1.1c-.3-.2-.7-.3-1.3-.3c-.6 0-1 .1-1.3.3c-.3.2-.4.5-.4.8c0 .3.1.5.3.6c.2.2.7.4 1.5.6c.8.2 1.3.3 1.6.5c.5.2.8.4 1 .7c.2.3.3.7.3 1.1c0 .4-.1.8-.3 1.1c-.3.4-.6.7-1 .9c-.4.2-.9.2-1.5.2c-.6 0-1.2-.1-1.7-.2c-.4-.2-.8-.5-1.1-.9c-.2-.4-.4-.9-.4-1.4zm11 2.4c-.1-.2-.2-.4-.2-.7c-.3.3-.7.5-1 .7c-.3.1-.6.1-1 .1c-.6 0-1.1-.1-1.4-.4c-.3-.3-.5-.7-.5-1.1c0-.3.1-.5.2-.7c.1-.3.3-.4.5-.6c.2-.1.4-.2.7-.3c.1 0 .4-.1.8-.1c.7-.1 1.3-.2 1.6-.3c0-.2 0-.2 0-.3c0-.4 0-.6-.2-.8c-.3-.2-.6-.3-1.1-.3c-.4 0-.7.1-.9.2c-.2.2-.4.5-.5.9c0 0-.9-.2-.9-.2c.1-.4.2-.7.4-.9c.2-.2.5-.4.8-.6c.4-.1.8-.1 1.3-.1c.4 0 .8 0 1.1.1c.3.1.5.3.6.4c.2.2.3.4.3.7c.1.1.1.4.1.8c0 0 0 1.2 0 1.2c0 .9 0 1.4 0 1.7c.1.2.1.4.3.6c-.04.02-1 0-1 0c0 0 0 .02 0 0zm-.3-2.7c-.3.1-.8.2-1.5.3c-.4.1-.6.2-.8.2c-.1.1-.3.2-.3.3c-.1.2-.2.3-.2.5c0 .2.1.4.3.6c.2.1.5.2.8.2c.4 0 .7-.1 1-.2c.3-.2.5-.4.6-.7c.1-.2.1-.5.1-.9c0 0 0-.3 0-.3zm2.4 2.7l0-5.4l.8 0c0 0 .03.75 0 .7c.4-.5 1-.8 1.8-.8c.3 0 .6 0 .9.1c.2.1.4.3.6.5c.1.2.2.4.3.7c0 .1 0 .4 0 .9c.02-.03 0 3.3 0 3.3l-.9 0c0 0 0-3.29 0-3.3c0-.4 0-.6-.1-.8c-.1-.2-.2-.4-.4-.5c-.2-.1-.4-.1-.6-.1c-.4 0-.8.1-1.1.3c-.2.3-.4.7-.4 1.4c.02.05 0 3 0 3l-.9 0zm8.9 0l0-7.5l5.1 0l0 .9l-4.1 0l0 2.3l3.5 0l0 .9l-3.5 0l0 3.4l-1 0zm6.3 0l0-5.4l.8 0c0 0-.01.8 0 .8c.2-.4.4-.6.6-.8c.2-.1.4-.1.6-.1c.3 0 .6.1.9.2c0 0-.3.9-.3.9c-.2-.1-.5-.2-.7-.2c-.2 0-.4.1-.5.2c-.2.1-.3.3-.4.5c-.1.3-.1.7-.1 1.1c-.02-.03 0 2.8 0 2.8l-.9 0zm7.2 0c-.1-.2-.2-.4-.2-.7c-.3.3-.7.5-1 .7c-.3.1-.6.1-1 .1c-.6 0-1-.1-1.4-.4c-.3-.3-.4-.7-.4-1.1c0-.3 0-.5.1-.7c.2-.3.3-.4.5-.6c.2-.1.4-.2.7-.3c.2 0 .4-.1.8-.1c.7-.1 1.3-.2 1.6-.3c0-.2 0-.2 0-.3c0-.4 0-.6-.2-.8c-.3-.2-.6-.3-1.1-.3c-.4 0-.7.1-.9.2c-.2.2-.4.5-.5.9c0 0-.9-.2-.9-.2c.1-.4.2-.7.4-.9c.2-.2.5-.4.8-.6c.4-.1.8-.1 1.3-.1c.4 0 .8 0 1.1.1c.3.1.5.3.6.4c.2.2.3.4.3.7c.1.1.1.4.1.8c0 0 0 1.2 0 1.2c0 .9 0 1.4 0 1.7c.1.2.2.4.3.6c-.03.02-1 0-1 0c0 0 0 .02 0 0zm-.3-2.7c-.3.1-.8.2-1.5.3c-.3.1-.6.2-.8.2c-.1.1-.2.2-.3.3c-.1.2-.2.3-.2.5c0 .2.1.4.3.6c.2.1.5.2.8.2c.4 0 .7-.1 1-.2c.3-.2.5-.4.6-.7c.1-.2.1-.5.1-.9c0 0 0-.3 0-.3zm2.4 2.7l0-5.4l.8 0c0 0 .04.75 0 .7c.4-.5 1-.8 1.8-.8c.3 0 .6 0 .9.1c.2.1.5.3.6.5c.1.2.2.4.3.7c0 .1 0 .4 0 .9c.03-.03 0 3.3 0 3.3l-.9 0c0 0 .01-3.29 0-3.3c0-.4 0-.6-.1-.8c-.1-.2-.2-.4-.4-.5c-.2-.1-.4-.1-.6-.1c-.4 0-.8.1-1 .3c-.3.3-.5.7-.5 1.4c.03.05 0 3 0 3l-.9 0zm9.4-2c0 0 .9.1.9.1c-.1.7-.3 1.2-.8 1.5c-.4.4-.9.5-1.5.5c-.7 0-1.3-.2-1.8-.7c-.4-.5-.6-1.2-.6-2.1c0-.6.1-1.1.3-1.5c.1-.5.4-.8.8-1c.4-.2.9-.3 1.3-.3c.6 0 1.1.1 1.5.4c.4.3.6.7.7 1.3c0 0-.9.1-.9.1c-.1-.4-.2-.6-.4-.8c-.3-.2-.5-.3-.8-.3c-.5 0-.9.2-1.2.5c-.2.3-.4.9-.4 1.6c0 .7.2 1.3.4 1.6c.3.3.7.5 1.1.5c.4 0 .7-.1.9-.3c.3-.3.4-.6.5-1.1zm1.7-4.4l0-1.1l.9 0l0 1.1l-.9 0zm0 6.4l0-5.4l.9 0l0 5.4l-.9 0zm2-1.6c0 0 .9-.1.9-.1c0 .3.2.6.4.8c.2.2.6.3 1 .3c.4 0 .7-.1.9-.3c.2-.1.3-.3.3-.6c0-.2-.1-.4-.2-.5c-.2-.1-.5-.2-1-.3c-.7-.2-1.1-.3-1.4-.4c-.3-.2-.5-.3-.6-.5c-.1-.3-.2-.5-.2-.8c0-.2.1-.4.2-.7c.1-.2.2-.3.4-.5c.2-.1.4-.2.6-.2c.3-.1.5-.1.8-.1c.4 0 .8 0 1.1.1c.4.2.6.3.8.5c.1.2.2.5.3.9c0 0-.9.1-.9.1c-.1-.3-.2-.5-.4-.7c-.2-.1-.5-.2-.8-.2c-.4 0-.7.1-.9.2c-.2.2-.3.3-.3.5c0 .1 0 .2.1.3c.1.1.2.2.4.3c.1 0 .3.1.8.2c.6.2 1.1.3 1.4.4c.2.2.4.3.6.5c.1.2.2.5.2.8c0 .3-.1.6-.3.9c-.2.3-.4.5-.8.6c-.3.2-.7.2-1.1.2c-.7 0-1.3-.1-1.6-.4c-.4-.3-.6-.7-.7-1.3zm9.1-.4c0 0 .9.1.9.1c-.1.7-.3 1.2-.7 1.5c-.4.4-.9.5-1.5.5c-.8 0-1.4-.2-1.8-.7c-.5-.5-.7-1.2-.7-2.1c0-.6.1-1.1.3-1.5c.2-.5.5-.8.9-1c.4-.2.8-.3 1.3-.3c.6 0 1.1.1 1.4.4c.4.3.6.7.8 1.3c0 0-.9.1-.9.1c-.1-.4-.3-.6-.5-.8c-.2-.2-.5-.3-.8-.3c-.5 0-.8.2-1.1.5c-.3.3-.5.9-.5 1.6c0 .7.2 1.3.5 1.6c.2.3.6.5 1.1.5c.3 0 .6-.1.9-.3c.2-.3.4-.6.4-1.1zm1.4-.7c0-1 .3-1.8.8-2.2c.5-.4 1.1-.6 1.7-.6c.8 0 1.4.2 1.9.7c.4.5.7 1.2.7 2c0 .7-.1 1.3-.3 1.7c-.2.4-.5.7-.9.9c-.5.2-.9.3-1.4.3c-.7 0-1.3-.2-1.8-.7c-.5-.5-.7-1.2-.7-2.1zm.9 0c0 .7.2 1.2.5 1.6c.3.3.7.5 1.1.5c.5 0 .9-.2 1.2-.5c.3-.4.4-.9.4-1.6c0-.7-.1-1.2-.4-1.6c-.3-.3-.7-.5-1.2-.5c-.4 0-.8.2-1.1.5c-.3.4-.5.9-.5 1.6z" stroke="none" fill="#ffffff"/><path d="m442 116.8c0 0 1-.1 1-.1c0 .4.1.7.3.9c.1.3.4.5.7.6c.4.2.8.3 1.2.3c.4 0 .7-.1 1-.2c.3-.1.5-.3.6-.5c.2-.2.3-.4.3-.6c0-.3-.1-.5-.2-.6c-.2-.2-.4-.4-.7-.5c-.2-.1-.7-.2-1.4-.3c-.7-.2-1.1-.4-1.4-.5c-.4-.2-.6-.4-.8-.7c-.2-.3-.3-.6-.3-1c0-.3.1-.7.3-1c.3-.3.6-.6 1-.8c.4-.1.9-.2 1.4-.2c.5 0 1 .1 1.4.2c.5.2.8.5 1 .8c.3.4.4.8.4 1.2c0 0-1 .1-1 .1c0-.5-.2-.8-.5-1.1c-.3-.2-.7-.3-1.3-.3c-.6 0-1 .1-1.3.3c-.3.2-.4.5-.4.8c0 .3.1.5.3.6c.2.2.7.4 1.5.6c.8.2 1.3.3 1.6.5c.5.2.8.4 1 .7c.2.3.3.7.3 1.1c0 .4-.1.8-.3 1.1c-.3.4-.6.7-1 .9c-.4.2-.9.2-1.5.2c-.6 0-1.2-.1-1.7-.2c-.4-.2-.8-.5-1.1-.9c-.2-.4-.4-.9-.4-1.4zm11 2.4c-.1-.2-.2-.4-.2-.7c-.3.3-.7.5-1 .7c-.3.1-.6.1-1 .1c-.6 0-1.1-.1-1.4-.4c-.3-.3-.5-.7-.5-1.1c0-.3.1-.5.2-.7c.1-.3.3-.4.5-.6c.2-.1.4-.2.7-.3c.1 0 .4-.1.8-.1c.7-.1 1.3-.2 1.6-.3c0-.2 0-.2 0-.3c0-.4 0-.6-.2-.8c-.3-.2-.6-.3-1.1-.3c-.4 0-.7.1-.9.2c-.2.2-.4.5-.5.9c0 0-.9-.2-.9-.2c.1-.4.2-.7.4-.9c.2-.2.5-.4.8-.6c.4-.1.8-.1 1.3-.1c.4 0 .8 0 1.1.1c.3.1.5.3.6.4c.2.2.3.4.3.7c.1.1.1.4.1.8c0 0 0 1.2 0 1.2c0 .9 0 1.4 0 1.7c.1.2.1.4.3.6c-.04.02-1 0-1 0c0 0 0 .02 0 0zm-.3-2.7c-.3.1-.8.2-1.5.3c-.4.1-.6.2-.8.2c-.1.1-.3.2-.3.3c-.1.2-.2.3-.2.5c0 .2.1.4.3.6c.2.1.5.2.8.2c.4 0 .7-.1 1-.2c.3-.2.5-.4.6-.7c.1-.2.1-.5.1-.9c0 0 0-.3 0-.3zm2.4 2.7l0-5.4l.8 0c0 0 .03.75 0 .7c.4-.5 1-.8 1.8-.8c.3 0 .6 0 .9.1c.2.1.4.3.6.5c.1.2.2.4.3.7c0 .1 0 .4 0 .9c.02-.03 0 3.3 0 3.3l-.9 0c0 0 0-3.29 0-3.3c0-.4 0-.6-.1-.8c-.1-.2-.2-.4-.4-.5c-.2-.1-.4-.1-.6-.1c-.4 0-.8.1-1.1.3c-.2.3-.4.7-.4 1.4c.02.05 0 3 0 3l-.9 0zm8.9 0l0-7.5c0 0 2.56 0 2.6 0c.5 0 1 0 1.3.1c.4.1.8.3 1.1.6c.4.3.7.7.9 1.2c.2.6.3 1.2.3 1.8c0 .6-.1 1.1-.2 1.5c-.1.5-.3.8-.5 1.1c-.2.3-.5.5-.7.7c-.3.2-.6.3-.9.4c-.4.1-.8.1-1.2.1c-.02.02-2.7 0-2.7 0zm1-.9c0 0 1.57.03 1.6 0c.5 0 .9 0 1.1-.1c.3-.1.5-.2.7-.4c.2-.2.4-.5.6-.9c.1-.4.2-.9.2-1.5c0-.8-.2-1.4-.4-1.8c-.3-.4-.6-.7-1-.9c-.2-.1-.7-.1-1.3-.1c.05-.01-1.5 0-1.5 0l0 5.7zm6.4-5.5l0-1.1l1 0l0 1.1l-1 0zm0 6.4l0-5.4l1 0l0 5.4l-1 0zm6.1-1.7c0 0 1 .1 1 .1c-.2.5-.5 1-.9 1.3c-.4.3-.9.4-1.5.4c-.8 0-1.5-.2-1.9-.7c-.5-.5-.7-1.2-.7-2.1c0-.9.2-1.6.7-2.1c.4-.5 1.1-.7 1.8-.7c.7 0 1.3.2 1.8.7c.5.5.7 1.2.7 2.1c0 0 0 .1 0 .2c0 0-4.1 0-4.1 0c.1.6.2 1.1.5 1.4c.3.3.7.5 1.2.5c.3 0 .6-.1.8-.3c.3-.2.5-.4.6-.8zm-3-1.5c0 0 3 0 3 0c0-.5-.1-.8-.3-1.1c-.3-.3-.7-.5-1.2-.5c-.4 0-.8.2-1.1.4c-.2.3-.4.7-.4 1.2zm4.9 3.7c0 0 .9.1.9.1c.1.3.2.5.4.6c.2.2.5.3.9.3c.4 0 .7-.1 1-.3c.2-.2.4-.4.4-.7c.1-.2.1-.6.1-1.2c-.4.5-.9.7-1.5.7c-.7 0-1.3-.2-1.7-.8c-.4-.5-.6-1.2-.6-1.9c0-.6 0-1 .2-1.5c.2-.4.5-.7.9-1c.3-.2.7-.3 1.2-.3c.7 0 1.2.2 1.6.7c0 .03 0-.6 0-.6l.9 0c0 0-.05 4.68 0 4.7c0 .8-.1 1.4-.3 1.8c-.2.3-.5.6-.8.8c-.4.2-.9.3-1.4.3c-.7 0-1.2-.1-1.6-.4c-.4-.3-.6-.7-.6-1.3zm.8-3.3c0 .7.1 1.2.4 1.6c.3.3.7.5 1.1.5c.4 0 .8-.2 1.1-.5c.2-.4.4-.9.4-1.6c0-.6-.2-1.1-.5-1.5c-.2-.3-.6-.5-1-.5c-.4 0-.8.2-1.1.5c-.3.3-.4.8-.4 1.5zm4.9.1c0-1 .3-1.8.8-2.2c.5-.4 1.1-.6 1.8-.6c.7 0 1.3.2 1.8.7c.5.5.7 1.2.7 2c0 .7-.1 1.3-.3 1.7c-.2.4-.5.7-.9.9c-.4.2-.9.3-1.3.3c-.8 0-1.4-.2-1.9-.7c-.5-.5-.7-1.2-.7-2.1zm1 0c0 .7.1 1.2.4 1.6c.3.3.7.5 1.2.5c.4 0 .8-.2 1.1-.5c.3-.4.5-.9.5-1.6c0-.7-.2-1.2-.5-1.6c-.3-.3-.7-.5-1.1-.5c-.5 0-.9.2-1.2.5c-.3.4-.4.9-.4 1.6z" stroke="none" fill="#ffffff"/><path d="m442.1 103c0-1.3.3-2.3 1-3c.6-.7 1.5-1 2.6-1c.7 0 1.3.1 1.8.5c.6.3 1 .8 1.3 1.4c.3.5.5 1.2.5 2c0 .7-.2 1.4-.5 2c-.3.6-.7 1.1-1.3 1.4c-.6.3-1.2.4-1.8.4c-.7 0-1.4-.1-1.9-.5c-.6-.3-1-.8-1.3-1.4c-.3-.6-.4-1.2-.4-1.8zm1 0c0 .9.2 1.6.7 2.1c.5.5 1.1.8 1.9.8c.7 0 1.3-.3 1.8-.8c.5-.5.7-1.3.7-2.2c0-.6-.1-1.2-.3-1.6c-.2-.5-.5-.8-.9-1.1c-.4-.2-.8-.4-1.3-.4c-.7 0-1.3.3-1.8.8c-.6.4-.8 1.2-.8 2.4zm7.3 3.6l0-5.4l.8 0c0 0 .04.8 0 .8c.3-.4.4-.6.6-.8c.2-.1.4-.1.6-.1c.3 0 .6.1 1 .2c0 0-.3.9-.3.9c-.3-.1-.5-.2-.7-.2c-.2 0-.4.1-.6.2c-.1.1-.2.3-.3.5c-.1.3-.2.7-.2 1.1c.03-.03 0 2.8 0 2.8l-.9 0zm7.3 0c-.1-.2-.2-.4-.2-.7c-.4.3-.7.5-1 .7c-.3.1-.7.1-1 .1c-.6 0-1.1-.1-1.4-.4c-.3-.3-.5-.7-.5-1.1c0-.3.1-.5.2-.7c.1-.3.3-.4.5-.6c.2-.1.4-.2.6-.3c.2 0 .5-.1.8-.1c.8-.1 1.3-.2 1.7-.3c0-.2 0-.2 0-.3c0-.4-.1-.6-.3-.8c-.2-.2-.5-.3-1-.3c-.4 0-.8.1-1 .2c-.2.2-.3.5-.4.9c0 0-.9-.2-.9-.2c0-.4.2-.7.4-.9c.2-.2.4-.4.8-.6c.3-.1.8-.1 1.2-.1c.5 0 .9 0 1.2.1c.2.1.5.3.6.4c.1.2.2.4.3.7c0 .1 0 .4 0 .8c0 0 0 1.2 0 1.2c0 .9 0 1.4.1 1.7c0 .2.1.4.2.6c.02.02-.9 0-.9 0c0 0-.04.02 0 0zm-.3-2.7c-.3.1-.8.2-1.5.3c-.4.1-.7.2-.8.2c-.2.1-.3.2-.4.3c-.1.2-.1.3-.1.5c0 .2.1.4.3.6c.2.1.4.2.8.2c.3 0 .7-.1.9-.2c.3-.2.5-.4.6-.7c.1-.2.2-.5.2-.9c0 0 0-.3 0-.3zm2.4 2.7l0-5.4l.8 0c0 0-.01.75 0 .7c.4-.5 1-.8 1.7-.8c.3 0 .7 0 .9.1c.3.1.5.3.6.5c.2.2.3.4.3.7c.1.1.1.4.1.9c-.02-.03 0 3.3 0 3.3l-.9 0c0 0-.04-3.29 0-3.3c0-.4-.1-.6-.1-.8c-.1-.2-.2-.4-.4-.5c-.2-.1-.4-.1-.7-.1c-.4 0-.7.1-1 .3c-.3.3-.4.7-.4 1.4c-.02.05 0 3 0 3l-.9 0zm5.6.5c0 0 .9.1.9.1c.1.3.2.5.3.6c.3.2.6.3 1 .3c.4 0 .7-.1 1-.3c.2-.2.4-.4.4-.7c.1-.2.1-.6.1-1.2c-.4.5-.9.7-1.5.7c-.8 0-1.3-.2-1.7-.8c-.5-.5-.7-1.2-.7-1.9c0-.6.1-1 .3-1.5c.2-.4.5-.7.8-1c.4-.2.8-.3 1.3-.3c.6 0 1.2.2 1.6.7c-.01.03 0-.6 0-.6l.8 0c0 0 .04 4.68 0 4.7c0 .8 0 1.4-.2 1.8c-.2.3-.5.6-.8.8c-.4.2-.9.3-1.4.3c-.7 0-1.2-.1-1.6-.4c-.4-.3-.6-.7-.6-1.3zm.8-3.3c0 .7.1 1.2.4 1.6c.3.3.7.5 1.1.5c.4 0 .8-.2 1.1-.5c.2-.4.4-.9.4-1.6c0-.6-.2-1.1-.5-1.5c-.3-.3-.6-.5-1-.5c-.4 0-.8.2-1.1.5c-.3.3-.4.8-.4 1.5zm9 1.1c0 0 .9.1.9.1c-.1.5-.4 1-.8 1.3c-.4.3-.9.4-1.6.4c-.8 0-1.4-.2-1.9-.7c-.4-.5-.7-1.2-.7-2.1c0-.9.3-1.6.7-2.1c.5-.5 1.1-.7 1.9-.7c.7 0 1.3.2 1.8.7c.4.5.6 1.2.6 2.1c0 0 0 .1 0 .2c0 0-4 0-4 0c0 .6.2 1.1.5 1.4c.3.3.7.5 1.1.5c.4 0 .7-.1.9-.3c.2-.2.4-.4.6-.8zm-3.1-1.5c0 0 3.1 0 3.1 0c-.1-.5-.2-.8-.4-1.1c-.3-.3-.6-.5-1.1-.5c-.4 0-.8.2-1.1.4c-.3.3-.4.7-.5 1.2zm13.6.6c0 0 1 .2 1 .2c-.2.9-.6 1.5-1.2 1.9c-.5.4-1.2.6-1.9.6c-.9 0-1.5-.1-2-.4c-.5-.4-.9-.9-1.2-1.5c-.2-.6-.4-1.3-.4-2c0-.8.2-1.5.5-2c.3-.6.7-1.1 1.3-1.4c.5-.3 1.1-.4 1.8-.4c.7 0 1.4.2 1.9.6c.5.3.8.9 1 1.6c0 0-.9.2-.9.2c-.2-.6-.5-.9-.8-1.2c-.3-.2-.7-.4-1.2-.4c-.6 0-1.1.2-1.5.4c-.4.3-.7.7-.8 1.2c-.2.4-.2.9-.2 1.4c0 .6 0 1.2.2 1.7c.2.5.5.8.9 1c.4.3.8.4 1.3.4c.5 0 1-.2 1.4-.5c.4-.3.6-.8.8-1.4zm1.7-.1c0-1 .3-1.8.9-2.2c.4-.4 1-.6 1.7-.6c.7 0 1.3.2 1.8.7c.5.5.7 1.2.7 2c0 .7-.1 1.3-.3 1.7c-.2.4-.5.7-.9.9c-.4.2-.8.3-1.3.3c-.8 0-1.4-.2-1.9-.7c-.4-.5-.7-1.2-.7-2.1zm1 0c0 .7.1 1.2.4 1.6c.3.3.7.5 1.2.5c.4 0 .8-.2 1.1-.5c.3-.4.5-.9.5-1.6c0-.7-.2-1.2-.5-1.6c-.3-.3-.7-.5-1.1-.5c-.5 0-.9.2-1.2.5c-.3.4-.4.9-.4 1.6zm8.8 2.7c0 0-.02-.78 0-.8c-.4.6-1 .9-1.7.9c-.4 0-.7 0-.9-.1c-.3-.2-.5-.3-.7-.5c-.1-.2-.2-.4-.2-.7c-.1-.2-.1-.5-.1-.9c0 .05 0-3.3 0-3.3l.9 0c0 0 .02 3 0 3c0 .5 0 .8.1 1c0 .2.2.4.3.5c.2.2.5.2.7.2c.3 0 .6 0 .8-.2c.3-.1.4-.3.5-.5c.1-.3.2-.6.2-1.1c-.01-.01 0-2.9 0-2.9l.9 0l0 5.4l-.8 0zm2.3 0l0-5.4l.8 0c0 0-.01.75 0 .7c.4-.5 1-.8 1.7-.8c.3 0 .6 0 .9.1c.3.1.5.3.6.5c.2.2.3.4.3.7c.1.1.1.4.1.9c-.02-.03 0 3.3 0 3.3l-.9 0c0 0-.04-3.29 0-3.3c0-.4-.1-.6-.1-.8c-.1-.2-.2-.4-.4-.5c-.2-.1-.4-.1-.7-.1c-.4 0-.7.1-1 .3c-.3.3-.4.7-.4 1.4c-.02.05 0 3 0 3l-.9 0zm7.4-.8c.1 0 .2 0 .4 0c0 0 .1.8.1.8c-.2.1-.4.1-.7.1c-.3 0-.5-.1-.7-.2c-.2-.1-.3-.2-.4-.4c-.1-.2-.1-.5-.1-1.1c-.04.03 0-3.1 0-3.1l-.7 0l0-.7l.7 0l0-1.4l.9-.5l0 1.9l.9 0l0 .7l-.9 0c0 0-.02 3.18 0 3.2c0 .2 0 .4 0 .5c.1.1.1.1.2.2c.1 0 .2 0 .3 0c0 0 0 0 0 0zm1.9 3c-.2 0-.4 0-.6-.1c0 0-.1-.8-.1-.8c.2 0 .3 0 .5 0c.2 0 .4 0 .5-.1c.1 0 .2-.1.3-.3c.1 0 .1-.3.3-.6c0-.1 0-.2.1-.3c-.04.03-2.1-5.4-2.1-5.4l1 0c0 0 1.12 3.13 1.1 3.1c.2.4.3.8.4 1.3c.1-.4.2-.8.4-1.3c-.01.05 1.2-3.1 1.2-3.1l.9 0c0 0-2.09 5.51-2.1 5.5c-.2.6-.4 1-.5 1.2c-.2.4-.4.6-.6.7c-.2.2-.4.2-.7.2c0 0 0 0 0 0z" stroke="none" fill="#ffffff"/><path d="m442.4 94l0-7.5l1 0l3.9 5.9l0-5.9l1 0l0 7.5l-1 0l-4-5.9l0 5.9l-.9 0zm11.2-1.7c0 0 .9.1.9.1c-.1.5-.4 1-.8 1.3c-.4.3-.9.4-1.6.4c-.8 0-1.4-.2-1.9-.7c-.4-.5-.7-1.2-.7-2.1c0-.9.3-1.6.7-2.1c.5-.5 1.1-.7 1.9-.7c.7 0 1.3.2 1.8.7c.4.5.6 1.2.6 2.1c0 0 0 .1 0 .2c0 0-4 0-4 0c0 .6.2 1.1.5 1.4c.3.3.7.5 1.1.5c.4 0 .7-.1.9-.3c.2-.2.4-.4.6-.8zm-3.1-1.5c0 0 3.1 0 3.1 0c-.1-.5-.2-.8-.4-1.1c-.3-.3-.6-.5-1.1-.5c-.4 0-.8.2-1.1.4c-.3.3-.4.7-.5 1.2zm6.2 3.2l-1.7-5.4l1 0l.8 3.1c0 0 .36 1.19.4 1.2c0-.1.1-.4.2-1.1c.04-.04.9-3.2.9-3.2l1 0l.8 3.1l.2 1.1l.4-1.1l.9-3.1l.9 0l-1.7 5.4l-1 0l-.8-3.2l-.3-1l-1.1 4.2l-.9 0zm11.5 0l0-3.2l-2.9-4.3l1.2 0c0 0 1.52 2.27 1.5 2.3c.3.4.5.8.8 1.2c.2-.4.5-.8.8-1.3c0 .01 1.5-2.2 1.5-2.2l1.1 0l-3 4.3l0 3.2l-1 0zm3.5-2.7c0-1 .3-1.8.8-2.2c.5-.4 1.1-.6 1.7-.6c.8 0 1.4.2 1.9.7c.4.5.7 1.2.7 2c0 .7-.1 1.3-.3 1.7c-.2.4-.5.7-.9.9c-.5.2-.9.3-1.4.3c-.7 0-1.3-.2-1.8-.7c-.5-.5-.7-1.2-.7-2.1zm.9 0c0 .7.2 1.2.5 1.6c.3.3.7.5 1.1.5c.5 0 .9-.2 1.2-.5c.3-.4.4-.9.4-1.6c0-.7-.1-1.2-.4-1.6c-.3-.3-.7-.5-1.2-.5c-.4 0-.8.2-1.1.5c-.3.4-.5.9-.5 1.6zm5.3 2.7l0-5.4l.8 0c0 0-.01.8 0 .8c.2-.4.4-.6.6-.8c.2-.1.4-.1.6-.1c.3 0 .6.1.9.2c0 0-.3.9-.3.9c-.2-.1-.5-.2-.7-.2c-.2 0-.4.1-.5.2c-.2.1-.3.3-.4.5c-.1.3-.1.7-.1 1.1c-.02-.03 0 2.8 0 2.8l-.9 0zm3.5 0l0-7.5l.9 0l0 4.3l2.2-2.2l1.2 0l-2.1 2l2.3 3.4l-1.2 0l-1.8-2.8l-.6.7l0 2.1l-.9 0z" stroke="none" fill="#ffffff"/><path d="m442.3 81.4l0-7.5l1 0l0 6.6l3.7 0l0 .9l-4.7 0zm5.5-2.7c0-1 .2-1.8.8-2.2c.5-.4 1-.6 1.7-.6c.8 0 1.4.2 1.8.7c.5.5.8 1.2.8 2c0 .7-.2 1.3-.4 1.7c-.2.4-.5.7-.9.9c-.4.2-.8.3-1.3.3c-.8 0-1.4-.2-1.8-.7c-.5-.5-.7-1.2-.7-2.1zm.9 0c0 .7.2 1.2.5 1.6c.3.3.6.5 1.1.5c.5 0 .8-.2 1.1-.5c.4-.4.5-.9.5-1.6c0-.7-.1-1.2-.5-1.6c-.3-.3-.6-.5-1.1-.5c-.5 0-.8.2-1.1.5c-.3.4-.5.9-.5 1.6zm4.9 1.1c0 0 .9-.1.9-.1c0 .3.2.6.4.8c.2.2.6.3 1 .3c.4 0 .7-.1.9-.3c.2-.1.3-.3.3-.6c0-.2-.1-.4-.2-.5c-.2-.1-.5-.2-1-.3c-.7-.2-1.1-.3-1.4-.4c-.2-.2-.4-.3-.6-.5c-.1-.3-.2-.5-.2-.8c0-.2.1-.4.2-.7c.1-.2.2-.3.4-.5c.2-.1.4-.2.6-.2c.3-.1.5-.1.8-.1c.5 0 .8 0 1.1.1c.4.2.6.3.8.5c.1.2.2.5.3.9c0 0-.9.1-.9.1c-.1-.3-.2-.5-.4-.7c-.2-.1-.5-.2-.8-.2c-.4 0-.7.1-.9.2c-.2.2-.3.3-.3.5c0 .1 0 .2.1.3c.1.1.2.2.4.3c.1 0 .3.1.8.2c.6.2 1.1.3 1.4.4c.2.2.4.3.6.5c.1.2.2.5.2.8c0 .3-.1.6-.3.9c-.2.3-.4.5-.8.6c-.3.2-.7.2-1.1.2c-.7 0-1.3-.1-1.6-.4c-.4-.3-.6-.7-.7-1.3zm7.2 1.6l2.9-7.5l1.1 0l3 7.5l-1.1 0l-.9-2.3l-3.1 0l-.8 2.3l-1.1 0zm2.2-3.1l2.5 0c0 0-.75-2.05-.8-2c-.2-.7-.4-1.2-.5-1.6c-.1.5-.2 1-.4 1.4c.01.03-.8 2.2-.8 2.2zm5.5 3.1l0-5.4l.9 0c0 0-.04.75 0 .7c.4-.5.9-.8 1.7-.8c.3 0 .6 0 .9.1c.3.1.5.3.6.5c.1.2.2.4.3.7c0 .1 0 .4 0 .9c.05-.03 0 3.3 0 3.3l-.9 0c0 0 .03-3.29 0-3.3c0-.4 0-.6-.1-.8c-.1-.2-.2-.4-.4-.5c-.1-.1-.4-.1-.6-.1c-.4 0-.7.1-1 .3c-.3.3-.5.7-.5 1.4c.05.05 0 3 0 3l-.9 0zm5.7.5c0 0 .9.1.9.1c0 .3.1.5.3.6c.2.2.5.3.9.3c.5 0 .8-.1 1-.3c.3-.2.4-.4.5-.7c.1-.2.1-.6.1-1.2c-.4.5-.9.7-1.5.7c-.8 0-1.4-.2-1.8-.8c-.4-.5-.6-1.2-.6-1.9c0-.6.1-1 .3-1.5c.2-.4.5-.7.8-1c.4-.2.8-.3 1.3-.3c.6 0 1.1.2 1.6.7c-.04.03 0-.6 0-.6l.8 0c0 0 .01 4.68 0 4.7c0 .8-.1 1.4-.2 1.8c-.2.3-.5.6-.9.8c-.3.2-.8.3-1.4.3c-.6 0-1.1-.1-1.5-.4c-.4-.3-.6-.7-.6-1.3zm.8-3.3c0 .7.1 1.2.4 1.6c.3.3.6.5 1.1.5c.4 0 .7-.2 1-.5c.3-.4.4-.9.4-1.6c0-.6-.1-1.1-.4-1.5c-.3-.3-.6-.5-1.1-.5c-.4 0-.7.2-1 .5c-.3.3-.4.8-.4 1.5zm8.9 1.1c0 0 1 .1 1 .1c-.2.5-.4 1-.9 1.3c-.4.3-.9.4-1.5.4c-.8 0-1.4-.2-1.9-.7c-.5-.5-.7-1.2-.7-2.1c0-.9.2-1.6.7-2.1c.5-.5 1.1-.7 1.8-.7c.8 0 1.4.2 1.8.7c.5.5.7 1.2.7 2.1c0 0 0 .1 0 .2c0 0-4 0-4 0c0 .6.2 1.1.5 1.4c.3.3.6.5 1.1.5c.3 0 .6-.1.9-.3c.2-.2.4-.4.5-.8zm-3-1.5c0 0 3 0 3 0c0-.5-.1-.8-.3-1.1c-.3-.3-.7-.5-1.2-.5c-.4 0-.7.2-1 .4c-.3.3-.5.7-.5 1.2zm5.1 3.2l0-7.5l.9 0l0 7.5l-.9 0zm6.1-1.7c0 0 1 .1 1 .1c-.2.5-.5 1-.9 1.3c-.4.3-.9.4-1.5.4c-.8 0-1.5-.2-1.9-.7c-.5-.5-.7-1.2-.7-2.1c0-.9.2-1.6.7-2.1c.4-.5 1.1-.7 1.8-.7c.7 0 1.3.2 1.8.7c.5.5.7 1.2.7 2.1c0 0 0 .1 0 .2c0 0-4.1 0-4.1 0c.1.6.2 1.1.5 1.4c.3.3.7.5 1.2.5c.3 0 .6-.1.8-.3c.3-.2.5-.4.6-.8zm-3-1.5c0 0 3 0 3 0c0-.5-.1-.8-.3-1.1c-.3-.3-.7-.5-1.2-.5c-.4 0-.8.2-1 .4c-.3.3-.5.7-.5 1.2zm4.7 1.6c0 0 1-.1 1-.1c0 .3.2.6.4.8c.2.2.5.3 1 .3c.4 0 .7-.1.9-.3c.2-.1.3-.3.3-.6c0-.2-.1-.4-.3-.5c-.1-.1-.4-.2-.9-.3c-.7-.2-1.1-.3-1.4-.4c-.3-.2-.5-.3-.6-.5c-.1-.3-.2-.5-.2-.8c0-.2.1-.4.2-.7c.1-.2.2-.3.4-.5c.2-.1.4-.2.6-.2c.3-.1.5-.1.8-.1c.4 0 .8 0 1.1.1c.4.2.6.3.7.5c.2.2.3.5.4.9c0 0-.9.1-.9.1c-.1-.3-.2-.5-.4-.7c-.2-.1-.5-.2-.8-.2c-.5 0-.8.1-.9.2c-.2.2-.3.3-.3.5c0 .1 0 .2.1.3c.1.1.2.2.4.3c.1 0 .3.1.8.2c.6.2 1.1.3 1.3.4c.3.2.5.3.6.5c.2.2.3.5.3.8c0 .3-.1.6-.3.9c-.2.3-.4.5-.8.6c-.3.2-.7.2-1.1.2c-.7 0-1.3-.1-1.6-.4c-.4-.3-.7-.7-.8-1.3z" stroke="none" fill="#ffffff"/><path d="m442.4 68.8l0-7.5l1 0l0 3.1l3.9 0l0-3.1l1 0l0 7.5l-1 0l0-3.5l-3.9 0l0 3.5l-1 0zm7.1-2.7c0-1 .3-1.8.8-2.2c.5-.4 1.1-.6 1.7-.6c.8 0 1.4.2 1.9.7c.5.5.7 1.2.7 2c0 .7-.1 1.3-.3 1.7c-.2.4-.5.7-.9.9c-.4.2-.9.3-1.4.3c-.7 0-1.3-.2-1.8-.7c-.5-.5-.7-1.2-.7-2.1zm.9 0c0 .7.2 1.2.5 1.6c.3.3.7.5 1.1.5c.5 0 .9-.2 1.2-.5c.3-.4.4-.9.4-1.6c0-.7-.1-1.2-.4-1.6c-.3-.3-.7-.5-1.2-.5c-.4 0-.8.2-1.1.5c-.3.4-.5.9-.5 1.6zm8.8 2.7c0 0 .05-.78 0-.8c-.4.6-1 .9-1.7.9c-.3 0-.6 0-.9-.1c-.3-.2-.5-.3-.6-.5c-.1-.2-.2-.4-.3-.7c0-.2 0-.5 0-.9c-.04.05 0-3.3 0-3.3l.9 0c0 0-.02 3 0 3c0 .5 0 .8 0 1c.1.2.2.4.4.5c.2.2.4.2.7.2c.3 0 .5 0 .8-.2c.2-.1.4-.3.5-.5c.1-.3.1-.6.1-1.1c.05-.01 0-2.9 0-2.9l1 0l0 5.4l-.9 0zm1.9-1.6c0 0 1-.1 1-.1c0 .3.2.6.4.8c.2.2.5.3 1 .3c.4 0 .7-.1.9-.3c.2-.1.3-.3.3-.6c0-.2-.1-.4-.3-.5c-.1-.1-.4-.2-.9-.3c-.7-.2-1.1-.3-1.4-.4c-.3-.2-.5-.3-.6-.5c-.1-.3-.2-.5-.2-.8c0-.2.1-.4.2-.7c.1-.2.2-.3.4-.5c.2-.1.4-.2.6-.2c.3-.1.5-.1.8-.1c.4 0 .8 0 1.1.1c.4.2.6.3.7.5c.2.2.3.5.4.9c0 0-.9.1-.9.1c-.1-.3-.2-.5-.4-.7c-.2-.1-.5-.2-.8-.2c-.5 0-.8.1-.9.2c-.2.2-.3.3-.3.5c0 .1 0 .2.1.3c.1.1.2.2.4.3c.1 0 .3.1.8.2c.6.2 1.1.3 1.3.4c.3.2.5.3.6.5c.2.2.3.5.3.8c0 .3-.1.6-.3.9c-.2.3-.4.5-.8.6c-.3.2-.7.2-1.1.2c-.7 0-1.3-.1-1.6-.4c-.4-.3-.6-.7-.8-1.3zm7.3.8c.1 0 .2 0 .4 0c0 0 .1.8.1.8c-.2.1-.5.1-.7.1c-.3 0-.6-.1-.8-.2c-.1-.1-.3-.2-.4-.4c0-.2-.1-.5-.1-1.1c.04.03 0-3.1 0-3.1l-.6 0l0-.7l.6 0l0-1.4l1-.5l0 1.9l.9 0l0 .7l-.9 0c0 0-.05 3.18 0 3.2c0 .2 0 .4 0 .5c0 .1.1.1.2.2c0 0 .1 0 .3 0c0 0 0 0 0 0zm.9-1.9c0-1 .3-1.8.9-2.2c.4-.4 1-.6 1.7-.6c.7 0 1.4.2 1.8.7c.5.5.7 1.2.7 2c0 .7-.1 1.3-.3 1.7c-.2.4-.5.7-.9.9c-.4.2-.8.3-1.3.3c-.8 0-1.4-.2-1.9-.7c-.4-.5-.7-1.2-.7-2.1zm1 0c0 .7.1 1.2.4 1.6c.3.3.7.5 1.2.5c.5 0 .8-.2 1.1-.5c.3-.4.5-.9.5-1.6c0-.7-.2-1.2-.5-1.6c-.3-.3-.7-.5-1.1-.5c-.5 0-.9.2-1.2.5c-.3.4-.4.9-.4 1.6zm5.2 2.7l0-5.4l.9 0c0 0-.05.75 0 .7c.4-.5.9-.8 1.7-.8c.3 0 .6 0 .9.1c.3.1.5.3.6.5c.1.2.2.4.3.7c0 .1 0 .4 0 .9c.05-.03 0 3.3 0 3.3l-.9 0c0 0 .03-3.29 0-3.3c0-.4 0-.6-.1-.8c-.1-.2-.2-.4-.4-.5c-.1-.1-.4-.1-.6-.1c-.4 0-.7.1-1 .3c-.3.3-.5.7-.5 1.4c.05.05 0 3 0 3l-.9 0z" stroke="none" fill="#ffffff"/><path d="m447.7 53.6c0 0 1 .2 1 .2c-.2.9-.6 1.5-1.1 1.9c-.5.4-1.2.6-2 .6c-.8 0-1.5-.1-2-.4c-.5-.4-.9-.9-1.1-1.5c-.3-.6-.4-1.3-.4-2c0-.8.1-1.5.4-2c.3-.6.8-1.1 1.3-1.4c.6-.3 1.2-.4 1.8-.4c.8 0 1.4.2 1.9.6c.5.3.9.9 1.1 1.6c0 0-1 .2-1 .2c-.2-.6-.4-.9-.7-1.2c-.4-.2-.8-.4-1.3-.4c-.6 0-1 .2-1.4.4c-.4.3-.7.7-.9 1.2c-.1.4-.2.9-.2 1.4c0 .6.1 1.2.3 1.7c.2.5.5.8.9 1c.4.3.8.4 1.2.4c.6 0 1.1-.2 1.5-.5c.3-.3.6-.8.7-1.4zm2.1 2.6l0-7.5l1 0c0 0-.04 2.7 0 2.7c.4-.5.9-.7 1.6-.7c.4 0 .7 0 1 .2c.3.1.6.4.7.6c.1.3.2.7.2 1.3c-.03-.03 0 3.4 0 3.4l-1 0c0 0 .05-3.43 0-3.4c0-.5-.1-.8-.3-1c-.2-.2-.4-.4-.8-.4c-.3 0-.5.1-.8.3c-.2.1-.4.3-.5.5c-.1.3-.1.6-.1 1c-.04.04 0 3 0 3l-1 0zm5.9-6.4l0-1.1l.9 0l0 1.1l-.9 0zm0 6.4l0-5.4l.9 0l0 5.4l-.9 0zm5.9-2c0 0 .9.1.9.1c-.1.7-.4 1.2-.8 1.5c-.4.4-.9.5-1.5.5c-.7 0-1.3-.2-1.8-.7c-.4-.5-.7-1.2-.7-2.1c0-.6.1-1.1.3-1.5c.2-.5.5-.8.9-1c.4-.2.8-.3 1.3-.3c.6 0 1.1.1 1.5.4c.3.3.6.7.7 1.3c0 0-.9.1-.9.1c-.1-.4-.3-.6-.5-.8c-.2-.2-.4-.3-.8-.3c-.4 0-.8.2-1.1.5c-.3.3-.4.9-.4 1.6c0 .7.1 1.3.4 1.6c.3.3.6.5 1.1.5c.4 0 .7-.1.9-.3c.2-.3.4-.6.5-1.1zm5.4 2c-.1-.2-.2-.4-.2-.7c-.3.3-.7.5-1 .7c-.3.1-.6.1-1 .1c-.6 0-1-.1-1.4-.4c-.3-.3-.5-.7-.5-1.1c0-.3.1-.5.2-.7c.2-.3.3-.4.5-.6c.2-.1.4-.2.7-.3c.2 0 .4-.1.8-.1c.7-.1 1.3-.2 1.6-.3c0-.2 0-.2 0-.3c0-.4 0-.6-.2-.8c-.3-.2-.6-.3-1.1-.3c-.4 0-.7.1-.9.2c-.2.2-.4.5-.5.9c0 0-.9-.2-.9-.2c.1-.4.2-.7.4-.9c.2-.2.5-.4.8-.6c.4-.1.8-.1 1.3-.1c.4 0 .8 0 1.1.1c.3.1.5.3.6.4c.2.2.3.4.3.7c.1.1.1.4.1.8c0 0 0 1.2 0 1.2c0 .9 0 1.4 0 1.7c.1.2.1.4.3.6c-.04.02-1 0-1 0c0 0 0 .02 0 0zm-.3-2.7c-.3.1-.8.2-1.5.3c-.4.1-.6.2-.8.2c-.1.1-.3.2-.3.3c-.1.2-.2.3-.2.5c0 .2.1.4.3.6c.2.1.5.2.8.2c.4 0 .7-.1 1-.2c.3-.2.5-.4.6-.7c.1-.2.1-.5.1-.9c0 0 0-.3 0-.3zm2.2 3.2c0 0 .9.1.9.1c.1.3.2.5.3.6c.3.2.6.3 1 .3c.4 0 .7-.1 1-.3c.2-.2.4-.4.4-.7c.1-.2.1-.6.1-1.2c-.4.5-.9.7-1.5.7c-.7 0-1.3-.2-1.7-.8c-.4-.5-.7-1.2-.7-1.9c0-.6.1-1 .3-1.5c.2-.4.5-.7.8-1c.4-.2.8-.3 1.3-.3c.6 0 1.2.2 1.6.7c-.01.03 0-.6 0-.6l.8 0c0 0 .04 4.68 0 4.7c0 .8 0 1.4-.2 1.8c-.2.3-.5.6-.8.8c-.4.2-.9.3-1.4.3c-.7 0-1.2-.1-1.6-.4c-.4-.3-.6-.7-.6-1.3zm.8-3.3c0 .7.1 1.2.4 1.6c.3.3.7.5 1.1.5c.4 0 .8-.2 1.1-.5c.2-.4.4-.9.4-1.6c0-.6-.2-1.1-.5-1.5c-.3-.3-.6-.5-1-.5c-.4 0-.8.2-1.1.5c-.3.3-.4.8-.4 1.5zm4.9.1c0-1 .3-1.8.8-2.2c.5-.4 1.1-.6 1.7-.6c.8 0 1.4.2 1.9.7c.5.5.7 1.2.7 2c0 .7-.1 1.3-.3 1.7c-.2.4-.5.7-.9.9c-.4.2-.9.3-1.4.3c-.7 0-1.3-.2-1.8-.7c-.5-.5-.7-1.2-.7-2.1zm.9 0c0 .7.2 1.2.5 1.6c.3.3.7.5 1.1.5c.5 0 .9-.2 1.2-.5c.3-.4.4-.9.4-1.6c0-.7-.1-1.2-.4-1.6c-.3-.3-.7-.5-1.2-.5c-.4 0-.8.2-1.1.5c-.3.4-.5.9-.5 1.6z" stroke="none" fill="#ffffff"/><path d="m447.7 41c0 0 1 .2 1 .2c-.2.9-.6 1.5-1.1 1.9c-.5.4-1.2.6-2 .6c-.8 0-1.5-.1-2-.4c-.5-.4-.9-.9-1.1-1.5c-.3-.6-.4-1.3-.4-2c0-.8.1-1.5.4-2c.3-.6.8-1.1 1.3-1.4c.6-.3 1.2-.4 1.8-.4c.8 0 1.4.2 1.9.6c.5.3.9.9 1.1 1.6c0 0-1 .2-1 .2c-.2-.6-.4-.9-.7-1.2c-.4-.2-.8-.4-1.3-.4c-.6 0-1 .2-1.4.4c-.4.3-.7.7-.9 1.2c-.1.4-.2.9-.2 1.4c0 .6.1 1.2.3 1.7c.2.5.5.8.9 1c.4.3.8.4 1.2.4c.6 0 1.1-.2 1.5-.5c.3-.3.6-.8.7-1.4zm5.9.9c0 0 .9.1.9.1c-.1.5-.4 1-.8 1.3c-.4.3-.9.4-1.6.4c-.8 0-1.4-.2-1.9-.7c-.4-.5-.7-1.2-.7-2.1c0-.9.3-1.6.7-2.1c.5-.5 1.1-.7 1.9-.7c.7 0 1.3.2 1.8.7c.4.5.6 1.2.6 2.1c0 0 0 .1 0 .2c0 0-4 0-4 0c0 .6.2 1.1.5 1.4c.3.3.7.5 1.1.5c.4 0 .7-.1.9-.3c.2-.2.4-.4.6-.8zm-3.1-1.5c0 0 3.1 0 3.1 0c-.1-.5-.2-.8-.4-1.1c-.3-.3-.6-.5-1.1-.5c-.4 0-.8.2-1.1.4c-.3.3-.4.7-.5 1.2zm5.2 3.2l0-5.4l.8 0c0 0 .01.75 0 .7c.4-.5 1-.8 1.7-.8c.4 0 .7 0 .9.1c.3.1.5.3.7.5c.1.2.2.4.3.7c0 .1 0 .4 0 .9c0-.03 0 3.3 0 3.3l-.9 0c0 0-.02-3.29 0-3.3c0-.4-.1-.6-.1-.8c-.1-.2-.2-.4-.4-.5c-.2-.1-.4-.1-.7-.1c-.3 0-.7.1-1 .3c-.3.3-.4.7-.4 1.4c0 .05 0 3 0 3l-.9 0zm7.4-.8c.1 0 .3 0 .4 0c0 0 .2.8.2.8c-.3.1-.5.1-.7.1c-.4 0-.6-.1-.8-.2c-.2-.1-.3-.2-.4-.4c-.1-.2-.1-.5-.1-1.1c-.01.03 0-3.1 0-3.1l-.7 0l0-.7l.7 0l0-1.4l.9-.5l0 1.9l.9 0l0 .7l-.9 0c0 0 0 3.18 0 3.2c0 .2 0 .4.1.5c0 .1 0 .1.1.2c.1 0 .2 0 .3 0c0 0 0 0 0 0zm4.9.8c0 0 0-.78 0-.8c-.4.6-1 .9-1.7.9c-.3 0-.6 0-.9-.1c-.3-.2-.5-.3-.6-.5c-.2-.2-.3-.4-.3-.7c-.1-.2-.1-.5-.1-.9c.01.05 0-3.3 0-3.3l.9 0c0 0 .04 3 0 3c0 .5.1.8.1 1c.1.2.2.4.4.5c.1.2.4.2.7.2c.2 0 .5 0 .7-.2c.3-.1.5-.3.6-.5c.1-.3.1-.6.1-1.1c0-.01 0-2.9 0-2.9l.9 0l0 5.4l-.8 0zm2.3 0l0-5.4l.8 0c0 0-.01.8 0 .8c.2-.4.4-.6.6-.8c.2-.1.4-.1.6-.1c.3 0 .6.1.9.2c0 0-.3.9-.3.9c-.2-.1-.4-.2-.7-.2c-.2 0-.4.1-.5.2c-.2.1-.3.3-.4.5c-.1.3-.1.7-.1 1.1c-.01-.03 0 2.8 0 2.8l-.9 0zm4 2.2c-.2 0-.4 0-.6-.1c0 0-.1-.8-.1-.8c.2 0 .4 0 .6 0c.2 0 .3 0 .4-.1c.2 0 .3-.1.3-.3c.1 0 .2-.3.3-.6c0-.1.1-.2.1-.3c.01.03-2.1-5.4-2.1-5.4l1 0c0 0 1.17 3.13 1.2 3.1c.1.4.3.8.4 1.3c.1-.4.2-.8.3-1.3c.05.05 1.2-3.1 1.2-3.1l.9 0c0 0-2.04 5.51-2 5.5c-.3.6-.4 1-.6 1.2c-.1.4-.3.6-.5.7c-.2.2-.5.2-.8.2c0 0 0 0 0 0zm13.1-4.8c0 0 1 .2 1 .2c-.2.9-.6 1.5-1.1 1.9c-.6.4-1.2.6-2 .6c-.8 0-1.5-.1-2-.4c-.5-.4-.9-.9-1.1-1.5c-.3-.6-.4-1.3-.4-2c0-.8.1-1.5.4-2c.3-.6.7-1.1 1.3-1.4c.5-.3 1.2-.4 1.8-.4c.8 0 1.4.2 1.9.6c.5.3.9.9 1.1 1.6c0 0-1 .2-1 .2c-.2-.6-.4-.9-.8-1.2c-.3-.2-.7-.4-1.2-.4c-.6 0-1.1.2-1.5.4c-.3.3-.6.7-.8 1.2c-.1.4-.2.9-.2 1.4c0 .6.1 1.2.3 1.7c.2.5.4.8.8 1c.4.3.9.4 1.3.4c.6 0 1-.2 1.4-.5c.4-.3.7-.8.8-1.4zm2.1-3.8l0-1.1l.9 0l0 1.1l-.9 0zm0 6.4l0-5.4l.9 0l0 5.4l-.9 0zm4-.8c.1 0 .2 0 .4 0c0 0 .1.8.1.8c-.3.1-.5.1-.7.1c-.3 0-.6-.1-.8-.2c-.2-.1-.3-.2-.4-.4c0-.2-.1-.5-.1-1.1c.02.03 0-3.1 0-3.1l-.7 0l0-.7l.7 0l0-1.4l.9-.5l0 1.9l1 0l0 .7l-1 0c0 0 .04 3.18 0 3.2c0 .2.1.4.1.5c0 .1.1.1.1.2c.1 0 .2 0 .4 0c0 0 0 0 0 0zm1.8 3c-.2 0-.4 0-.6-.1c0 0-.1-.8-.1-.8c.2 0 .4 0 .6 0c.2 0 .3 0 .4-.1c.2 0 .3-.1.3-.3c.1 0 .2-.3.3-.6c0-.1.1-.2.1-.3c.01.03-2.1-5.4-2.1-5.4l1 0c0 0 1.17 3.13 1.2 3.1c.1.4.3.8.4 1.3c.1-.4.2-.8.3-1.3c.05.05 1.2-3.1 1.2-3.1l.9 0c0 0-2.04 5.51-2 5.5c-.3.6-.4 1-.6 1.2c-.1.4-.3.6-.5.7c-.2.2-.5.2-.8.2c0 0 0 0 0 0z" stroke="none" fill="#ffffff"/><path d="m442.3 31l0-7.5c0 0 2.85 0 2.9 0c.5 0 1 .1 1.3.2c.4.2.7.4.8.7c.2.4.3.7.3 1c0 .3 0 .7-.2.9c-.2.3-.5.5-.8.7c.4.2.8.4 1 .7c.3.3.4.7.4 1.1c0 .4-.1.7-.2 1c-.2.3-.3.6-.6.7c-.2.2-.5.3-.8.4c-.3.1-.7.1-1.2.1c0 .02-2.9 0-2.9 0zm1-4.3c0 0 1.65-.04 1.7 0c.4 0 .7-.1.9-.1c.3-.1.4-.2.6-.4c.1-.2.2-.4.2-.7c0-.2-.1-.4-.2-.6c-.1-.2-.3-.3-.5-.4c-.3-.1-.6-.1-1.2-.1c.03-.01-1.5 0-1.5 0l0 2.3zm0 3.4c0 0 1.9.03 1.9 0c.3 0 .5 0 .7 0c.2 0 .4-.1.5-.2c.2-.1.3-.2.4-.4c.1-.2.2-.4.2-.7c0-.2-.1-.5-.2-.7c-.2-.2-.4-.3-.6-.4c-.3-.1-.7-.2-1.1-.2c-.04.05-1.8 0-1.8 0l0 2.6zm5.6-1.8c0-1 .3-1.8.9-2.2c.4-.4 1-.6 1.7-.6c.7 0 1.3.2 1.8.7c.5.5.7 1.2.7 2c0 .7-.1 1.3-.3 1.7c-.2.4-.5.7-.9.9c-.4.2-.9.3-1.3.3c-.8 0-1.4-.2-1.9-.7c-.5-.5-.7-1.2-.7-2.1zm1 0c0 .7.1 1.2.4 1.6c.3.3.7.5 1.2.5c.4 0 .8-.2 1.1-.5c.3-.4.5-.9.5-1.6c0-.7-.2-1.2-.5-1.6c-.3-.3-.7-.5-1.1-.5c-.5 0-.9.2-1.2.5c-.3.4-.4.9-.4 1.6zm4.8 1.1c0 0 .9-.1.9-.1c.1.3.2.6.5.8c.2.2.5.3 1 .3c.4 0 .7-.1.9-.3c.2-.1.3-.3.3-.6c0-.2-.1-.4-.3-.5c-.1-.1-.4-.2-.9-.3c-.7-.2-1.2-.3-1.4-.4c-.3-.2-.5-.3-.6-.5c-.2-.3-.2-.5-.2-.8c0-.2 0-.4.1-.7c.2-.2.3-.3.5-.5c.1-.1.3-.2.6-.2c.2-.1.5-.1.8-.1c.4 0 .8 0 1.1.1c.3.2.6.3.7.5c.2.2.3.5.3.9c0 0-.9.1-.9.1c0-.3-.1-.5-.3-.7c-.2-.1-.5-.2-.8-.2c-.5 0-.8.1-1 .2c-.1.2-.2.3-.2.5c0 .1 0 .2.1.3c.1.1.2.2.3.3c.1 0 .4.1.9.2c.6.2 1.1.3 1.3.4c.3.2.5.3.6.5c.2.2.3.5.3.8c0 .3-.1.6-.3.9c-.2.3-.5.5-.8.6c-.3.2-.7.2-1.1.2c-.8 0-1.3-.1-1.7-.4c-.3-.3-.6-.7-.7-1.3zm7.3.8c.1 0 .2 0 .4 0c0 0 .1.8.1.8c-.3.1-.5.1-.7.1c-.3 0-.6-.1-.8-.2c-.2-.1-.3-.2-.4-.4c0-.2-.1-.5-.1-1.1c.02.03 0-3.1 0-3.1l-.7 0l0-.7l.7 0l0-1.4l.9-.5l0 1.9l1 0l0 .7l-1 0c0 0 .03 3.18 0 3.2c0 .2.1.4.1.5c0 .1.1.1.1.2c.1 0 .2 0 .4 0c0 0 0 0 0 0zm.9-1.9c0-1 .3-1.8.9-2.2c.4-.4 1-.6 1.7-.6c.7 0 1.3.2 1.8.7c.5.5.7 1.2.7 2c0 .7-.1 1.3-.3 1.7c-.2.4-.5.7-.9.9c-.4.2-.9.3-1.3.3c-.8 0-1.4-.2-1.9-.7c-.4-.5-.7-1.2-.7-2.1zm1 0c0 .7.1 1.2.4 1.6c.3.3.7.5 1.2.5c.4 0 .8-.2 1.1-.5c.3-.4.5-.9.5-1.6c0-.7-.2-1.2-.5-1.6c-.3-.3-.7-.5-1.1-.5c-.5 0-.9.2-1.2.5c-.3.4-.4.9-.4 1.6zm5.2 2.7l0-5.4l.8 0c0 0 .04.75 0 .7c.4-.5 1-.8 1.8-.8c.3 0 .6 0 .9.1c.2.1.5.3.6.5c.1.2.2.4.3.7c0 .1 0 .4 0 .9c.03-.03 0 3.3 0 3.3l-.9 0c0 0 .01-3.29 0-3.3c0-.4 0-.6-.1-.8c-.1-.2-.2-.4-.4-.5c-.2-.1-.4-.1-.6-.1c-.4 0-.8.1-1 .3c-.3.3-.5.7-.5 1.4c.03.05 0 3 0 3l-.9 0z" stroke="none" fill="#ffffff"/><path d="m449.8.2l1.4 0c0 0-.01 6.19 0 6.2c0 1.1-.1 1.9-.4 2.6c-.2.6-.7 1.1-1.3 1.5c-.6.4-1.5.6-2.5.6c-1 0-1.8-.2-2.5-.5c-.6-.4-1.1-.9-1.3-1.5c-.3-.7-.5-1.6-.5-2.7c.04-.01 0-6.2 0-6.2l1.5 0c0 0-.04 6.18 0 6.2c0 .9 0 1.6.2 2c.2.5.5.8.9 1.1c.4.2 1 .3 1.6.3c1 0 1.8-.2 2.2-.7c.4-.5.7-1.4.7-2.7c-.03-.02 0-6.2 0-6.2zm3.6 10.7l0-7.8l1.2 0c0 0-.03 1.15 0 1.1c.5-.8 1.4-1.2 2.4-1.2c.5 0 .9.1 1.3.2c.4.2.7.4.9.7c.2.3.4.6.4 1c.1.2.1.6.1 1.2c0 .04 0 4.8 0 4.8l-1.3 0c0 0-.01-4.71 0-4.7c0-.5-.1-.9-.2-1.2c-.1-.3-.3-.5-.5-.7c-.3-.1-.6-.2-.9-.2c-.6 0-1.1.2-1.5.5c-.4.4-.6 1.1-.6 2.1c0-.03 0 4.2 0 4.2l-1.3 0zm8.3-9.2l0-1.5l1.4 0l0 1.5l-1.4 0zm0 9.2l0-7.8l1.4 0l0 7.8l-1.4 0zm5.7-1.1c.1 0 .3 0 .5-.1c0 0 .2 1.2.2 1.2c-.3.1-.7.1-1 .1c-.4 0-.8-.1-1.1-.2c-.2-.2-.4-.4-.5-.6c-.1-.2-.2-.8-.2-1.6c0 .04 0-4.4 0-4.4l-1 0l0-1.1l1 0l0-1.9l1.3-.8l0 2.7l1.3 0l0 1.1l-1.3 0c0 0 .01 4.52 0 4.5c0 .4 0 .6.1.7c0 .1.1.2.2.3c.1.1.3.1.5.1c0 0 0 0 0 0zm7.2-1.4c0 0 1.3.2 1.3.2c-.2.8-.6 1.4-1.2 1.8c-.6.5-1.3.7-2.2.7c-1.1 0-2-.4-2.7-1.1c-.7-.7-1-1.6-1-2.9c0-1.3.3-2.3 1-3c.7-.8 1.5-1.1 2.6-1.1c1.1 0 1.9.3 2.6 1c.6.7 1 1.7 1 3c0 .1 0 .2-.1.4c0 0-5.8 0-5.8 0c.1.8.3 1.5.8 1.9c.4.5 1 .7 1.6.7c.5 0 .9-.1 1.2-.4c.4-.2.7-.6.9-1.2zm-4.4-2.1c0 0 4.4 0 4.4 0c-.1-.7-.3-1.2-.5-1.5c-.5-.5-1-.7-1.7-.7c-.6 0-1.1.2-1.5.6c-.4.4-.6.9-.7 1.6zm12.4 4.6c0 0 .01-.96 0-1c-.5.8-1.2 1.2-2.2 1.2c-.6 0-1.2-.2-1.7-.5c-.5-.4-.9-.8-1.2-1.4c-.3-.7-.4-1.4-.4-2.2c0-.7.1-1.4.4-2.1c.2-.6.6-1.1 1.1-1.4c.6-.4 1.1-.5 1.8-.5c.4 0 .9.1 1.2.3c.4.2.7.4.9.7c.03.04 0-3.8 0-3.8l1.3 0l0 10.7l-1.2 0zm-4.2-3.9c0 1 .3 1.8.7 2.3c.4.5.9.7 1.5.7c.5 0 1-.2 1.4-.7c.4-.5.6-1.2.6-2.2c0-1-.2-1.8-.6-2.3c-.4-.5-.9-.7-1.5-.7c-.6 0-1.1.2-1.5.7c-.4.5-.6 1.2-.6 2.2zm11.4.5c0 0 1.3-.1 1.3-.1c.1.5.2.9.4 1.3c.3.3.6.6 1.1.8c.5.2 1.1.3 1.7.3c.5 0 1-.1 1.4-.2c.4-.2.7-.4.9-.7c.2-.3.3-.6.3-.9c0-.3-.1-.6-.3-.9c-.1-.2-.5-.4-.9-.6c-.3-.1-.9-.3-1.9-.5c-1-.3-1.7-.5-2.1-.7c-.5-.3-.9-.6-1.1-1c-.3-.4-.4-.8-.4-1.3c0-.6.1-1.1.4-1.6c.3-.4.8-.8 1.4-1c.6-.3 1.2-.4 2-.4c.7 0 1.5.1 2.1.4c.6.2 1 .6 1.4 1.1c.3.5.5 1.1.5 1.7c0 0-1.4.1-1.4.1c0-.7-.3-1.2-.7-1.5c-.4-.4-1.1-.5-1.9-.5c-.8 0-1.5.1-1.9.4c-.4.3-.6.7-.6 1.2c0 .3.2.7.5.9c.2.3.9.5 2.1.8c1.2.2 1.9.5 2.4.7c.6.3 1.1.6 1.4 1.1c.3.4.4.9.4 1.5c0 .6-.2 1.1-.5 1.6c-.3.5-.8.9-1.4 1.2c-.6.3-1.3.4-2.1.4c-.9 0-1.7-.1-2.4-.4c-.7-.3-1.2-.7-1.5-1.3c-.4-.6-.6-1.2-.6-1.9zm12.6 2.3c.1 0 .3 0 .6-.1c0 0 .2 1.2.2 1.2c-.4.1-.8.1-1 .1c-.5 0-.9-.1-1.2-.2c-.2-.2-.4-.4-.5-.6c-.1-.2-.2-.8-.2-1.6c.02.04 0-4.4 0-4.4l-.9 0l0-1.1l.9 0l0-1.9l1.3-.8l0 2.7l1.4 0l0 1.1l-1.4 0c0 0 .04 4.52 0 4.5c0 .4.1.6.1.7c.1.1.1.2.2.3c.1.1.3.1.5.1c0 0 0 0 0 0zm7.2 1.1c-.1-.3-.2-.6-.3-.9c-.5.4-.9.7-1.4.8c-.4.2-.9.3-1.4.3c-.9 0-1.5-.2-2-.6c-.5-.4-.7-1-.7-1.6c0-.4.1-.8.3-1.1c.1-.3.4-.5.6-.7c.3-.2.6-.4 1-.5c.3 0 .6-.1 1.2-.2c1-.1 1.8-.2 2.3-.4c0-.2 0-.3 0-.4c0-.5-.1-.9-.3-1.1c-.4-.3-.9-.4-1.6-.4c-.6 0-1 .1-1.3.3c-.3.2-.5.6-.7 1.1c0 0-1.3-.1-1.3-.1c.1-.6.3-1 .6-1.4c.3-.3.7-.6 1.2-.8c.5-.1 1.1-.2 1.7-.2c.7 0 1.2 0 1.7.2c.4.2.7.4.9.6c.2.2.3.5.4.9c0 .2 0 .6 0 1.2c0 0 0 1.8 0 1.8c0 1.2.1 2 .1 2.3c.1.3.2.6.4.9c-.03.02-1.4 0-1.4 0c0 0-.01.02 0 0zm-.4-3.9c-.5.2-1.2.4-2.1.5c-.6.1-1 .2-1.2.3c-.2.1-.4.2-.5.4c-.1.2-.2.4-.2.6c0 .4.1.7.4.9c.3.2.7.4 1.2.4c.5 0 .9-.1 1.3-.4c.4-.2.7-.5.9-.9c.1-.3.2-.7.2-1.3c0 0 0-.5 0-.5zm5.7 2.8c.1 0 .3 0 .6-.1c0 0 .2 1.2.2 1.2c-.4.1-.7.1-1 .1c-.5 0-.9-.1-1.1-.2c-.3-.2-.5-.4-.6-.6c-.1-.2-.2-.8-.2-1.6c.03.04 0-4.4 0-4.4l-.9 0l0-1.1l.9 0l0-1.9l1.3-.8l0 2.7l1.4 0l0 1.1l-1.4 0c0 0 .05 4.52 0 4.5c0 .4.1.6.1.7c.1.1.1.2.2.3c.1.1.3.1.5.1c0 0 0 0 0 0zm7.2-1.4c0 0 1.3.2 1.3.2c-.2.8-.6 1.4-1.1 1.8c-.6.5-1.4.7-2.3.7c-1.1 0-2-.4-2.7-1.1c-.6-.7-1-1.6-1-2.9c0-1.3.4-2.3 1-3c.7-.8 1.6-1.1 2.7-1.1c1 0 1.8.3 2.5 1c.7.7 1 1.7 1 3c0 .1 0 .2 0 .4c0 0-5.8 0-5.8 0c0 .8.3 1.5.7 1.9c.4.5 1 .7 1.6.7c.5 0 .9-.1 1.3-.4c.3-.2.6-.6.8-1.2zm-4.3-2.1c0 0 4.3 0 4.3 0c-.1-.7-.2-1.2-.5-1.5c-.4-.5-1-.7-1.6-.7c-.6 0-1.1.2-1.6.6c-.4.4-.6.9-.6 1.6zm6.8 2.3c0 0 1.3-.2 1.3-.2c.1.5.3.9.6 1.2c.3.3.8.4 1.4.4c.6 0 1-.1 1.3-.4c.3-.2.5-.5.5-.8c0-.3-.1-.6-.4-.7c-.2-.1-.6-.3-1.4-.5c-.9-.2-1.6-.4-2-.6c-.3-.2-.6-.4-.8-.7c-.2-.4-.3-.7-.3-1.1c0-.3.1-.7.2-1c.2-.3.4-.5.7-.7c.2-.1.5-.3.8-.4c.4-.1.8-.1 1.2-.1c.6 0 1.1.1 1.6.2c.4.2.8.4 1 .7c.2.3.4.7.4 1.2c0 0-1.2.2-1.2.2c-.1-.4-.3-.7-.6-.9c-.2-.2-.6-.3-1.1-.3c-.7 0-1.1.1-1.3.3c-.3.2-.4.4-.4.7c0 .1 0 .3.1.4c.1.2.3.3.5.4c.2 0 .6.1 1.2.3c.9.3 1.6.5 2 .6c.3.2.6.4.8.7c.2.3.3.7.3 1.1c0 .5-.1.9-.3 1.3c-.3.4-.7.7-1.2.9c-.4.2-1 .3-1.6.3c-1 0-1.8-.2-2.3-.6c-.5-.5-.9-1.1-1-1.9z" stroke="none" fill="#ffffff"/></g><g id="Group70481"><path d="m295.2 43.6l0-7.5c0 0 3.33 0 3.3 0c.7 0 1.2.1 1.6.2c.3.1.6.4.8.7c.2.4.3.7.3 1.2c0 .5-.2.9-.5 1.3c-.4.4-.9.6-1.6.7c.3.1.5.3.6.4c.3.2.6.6.8 1c.02-.03 1.3 2 1.3 2l-1.2 0c0 0-1.02-1.54-1-1.5c-.3-.5-.6-.8-.7-1.1c-.2-.2-.4-.4-.5-.5c-.2-.1-.3-.1-.5-.2c-.1 0-.3 0-.6 0c.05-.02-1.1 0-1.1 0l0 3.3l-1 0zm1-4.2c0 0 2.13.02 2.1 0c.5 0 .8 0 1.1-.1c.3-.1.5-.3.6-.5c.1-.2.2-.4.2-.6c0-.4-.1-.7-.4-.9c-.3-.3-.7-.4-1.2-.4c-.03.03-2.4 0-2.4 0l0 2.5zm6.5-2.2l0-1.1l.9 0l0 1.1l-.9 0zm0 6.4l0-5.4l.9 0l0 5.4l-.9 0zm2.8 2.2c-.1 0-.3 0-.6-.1c0 0-.1-.8-.1-.8c.2 0 .4 0 .6 0c.2 0 .3 0 .5-.1c.1 0 .2-.1.3-.3c0 0 .1-.3.2-.6c.1-.1.1-.2.1-.3c.03.03-2-5.4-2-5.4l1 0c0 0 1.09 3.13 1.1 3.1c.1.4.3.8.4 1.3c.1-.4.2-.8.4-1.3c-.04.05 1.1-3.1 1.1-3.1l.9 0c0 0-2.02 5.51-2 5.5c-.2.6-.4 1-.5 1.2c-.2.4-.4.6-.6.7c-.2.2-.5.2-.8.2c0 0 0 0 0 0zm8.5-2.2c-.1-.2-.2-.4-.2-.7c-.4.3-.7.5-1 .7c-.3.1-.7.1-1 .1c-.6 0-1.1-.1-1.4-.4c-.3-.3-.5-.7-.5-1.1c0-.3.1-.5.2-.7c.1-.3.3-.4.5-.6c.2-.1.4-.2.6-.3c.2 0 .5-.1.9-.1c.7-.1 1.3-.2 1.6-.3c0-.2 0-.2 0-.3c0-.4-.1-.6-.2-.8c-.3-.2-.6-.3-1.1-.3c-.4 0-.8.1-1 .2c-.2.2-.3.5-.4.9c0 0-.9-.2-.9-.2c.1-.4.2-.7.4-.9c.2-.2.4-.4.8-.6c.4-.1.8-.1 1.2-.1c.5 0 .9 0 1.2.1c.3.1.5.3.6.4c.1.2.2.4.3.7c0 .1 0 .4 0 .8c0 0 0 1.2 0 1.2c0 .9.1 1.4.1 1.7c0 .2.1.4.2.6c.03.02-.9 0-.9 0c0 0-.03.02 0 0zm-.3-2.7c-.3.1-.8.2-1.5.3c-.4.1-.6.2-.8.2c-.2.1-.3.2-.4.3c-.1.2-.1.3-.1.5c0 .2.1.4.3.6c.2.1.4.2.8.2c.4 0 .7-.1.9-.2c.3-.2.5-.4.7-.7c.1-.2.1-.5.1-.9c0 0 0-.3 0-.3zm5.9 2.7c0 0 0-.67 0-.7c-.3.6-.8.8-1.5.8c-.5 0-.9-.1-1.2-.3c-.4-.3-.7-.6-.9-1c-.2-.4-.3-.9-.3-1.5c0-.5.1-1 .3-1.5c.2-.4.5-.8.8-1c.4-.2.8-.3 1.2-.3c.4 0 .7 0 .9.2c.3.1.5.3.6.5c.04 0 0-2.7 0-2.7l1 0l0 7.5l-.9 0zm-2.9-2.7c0 .7.1 1.2.4 1.6c.3.3.7.5 1.1.5c.4 0 .7-.2 1-.5c.3-.3.4-.8.4-1.5c0-.8-.1-1.3-.4-1.7c-.3-.3-.7-.5-1.1-.5c-.4 0-.7.2-1 .5c-.3.4-.4.9-.4 1.6zm5.2 2.7l0-7.5l.9 0c0 0 .03 2.7 0 2.7c.5-.5 1-.7 1.7-.7c.4 0 .7 0 1 .2c.3.1.5.4.7.6c.1.3.1.7.1 1.3c.05-.03 0 3.4 0 3.4l-.9 0c0 0 .02-3.43 0-3.4c0-.5-.1-.8-.3-1c-.2-.2-.5-.4-.8-.4c-.3 0-.6.1-.8.3c-.2.1-.4.3-.5.5c-.1.3-.2.6-.2 1c.03.04 0 3 0 3l-.9 0zm6.7-5.8c-.4-.1-.8-.2-1.2-.3c0 0 .2-.7.2-.7c.6.1 1 .3 1.2.5c-.1-.7-.1-1.1-.1-1.3c0 0 .7 0 .7 0c0 .3 0 .7-.1 1.2c.4-.1.8-.3 1.2-.4c0 0 .3.7.3.7c-.5.1-.9.2-1.3.3c.2.2.5.5.9.9c0 0-.6.5-.6.5c-.2-.3-.5-.7-.7-1.1c-.3.5-.5.8-.7 1.1c0 0-.6-.5-.6-.5c.4-.4.7-.8.8-.9c0 0 0 0 0 0z" stroke="none" fill="#ffffff"/><path d="m295.2 31l0-7.5c0 0 2.57 0 2.6 0c.6 0 1 0 1.3.1c.4.1.8.3 1.1.6c.4.3.7.7.9 1.2c.2.6.3 1.2.3 1.8c0 .6-.1 1.1-.2 1.5c-.1.5-.3.8-.5 1.1c-.2.3-.5.5-.7.7c-.2.2-.5.3-.9.4c-.3.1-.7.1-1.2.1c0 .02-2.7 0-2.7 0zm1-.9c0 0 1.58.03 1.6 0c.5 0 .9 0 1.2-.1c.2-.1.5-.2.6-.4c.3-.2.4-.5.6-.9c.1-.4.2-.9.2-1.5c0-.8-.2-1.4-.4-1.8c-.3-.4-.6-.7-1-.9c-.2-.1-.6-.1-1.2-.1c-.04-.01-1.6 0-1.6 0l0 5.7zm10 .9c0 0 .02-.78 0-.8c-.4.6-1 .9-1.7.9c-.3 0-.6 0-.9-.1c-.3-.2-.5-.3-.6-.5c-.2-.2-.3-.4-.3-.7c-.1-.2-.1-.5-.1-.9c.03.05 0-3.3 0-3.3l1 0c0 0-.05 3 0 3c0 .5 0 .8 0 1c.1.2.2.4.4.5c.2.2.4.2.7.2c.3 0 .5 0 .8-.2c.2-.1.4-.3.5-.5c.1-.3.1-.6.1-1.1c.02-.01 0-2.9 0-2.9l.9 0l0 5.4l-.8 0zm3.1 0l-.8 0l0-7.5l.9 0c0 0 .01 2.69 0 2.7c.4-.5.9-.7 1.5-.7c.3 0 .7 0 1 .2c.2.1.5.3.7.5c.2.3.3.6.4.9c.2.4.2.7.2 1.1c0 .9-.2 1.7-.7 2.2c-.4.5-1 .7-1.6.7c-.7 0-1.2-.2-1.6-.8c.04.04 0 .7 0 .7zm0-2.7c0 .6.1 1.1.3 1.4c.3.4.7.7 1.2.7c.4 0 .7-.2 1-.5c.3-.4.5-.9.5-1.6c0-.7-.2-1.2-.5-1.6c-.2-.3-.6-.5-1-.5c-.4 0-.7.2-1 .5c-.3.4-.5.9-.5 1.6zm8.8 2.7c-.1-.2-.2-.4-.2-.7c-.4.3-.7.5-1 .7c-.3.1-.7.1-1 .1c-.6 0-1.1-.1-1.4-.4c-.3-.3-.5-.7-.5-1.1c0-.3.1-.5.2-.7c.1-.3.3-.4.5-.6c.2-.1.4-.2.6-.3c.2 0 .5-.1.9-.1c.7-.1 1.3-.2 1.6-.3c0-.2 0-.2 0-.3c0-.4-.1-.6-.3-.8c-.2-.2-.5-.3-1-.3c-.4 0-.8.1-1 .2c-.2.2-.3.5-.4.9c0 0-.9-.2-.9-.2c.1-.4.2-.7.4-.9c.2-.2.4-.4.8-.6c.4-.1.8-.1 1.2-.1c.5 0 .9 0 1.2.1c.3.1.5.3.6.4c.1.2.2.4.3.7c0 .1 0 .4 0 .8c0 0 0 1.2 0 1.2c0 .9.1 1.4.1 1.7c0 .2.1.4.2.6c.03.02-.9 0-.9 0c0 0-.03.02 0 0zm-.3-2.7c-.3.1-.8.2-1.5.3c-.4.1-.6.2-.8.2c-.2.1-.3.2-.4.3c-.1.2-.1.3-.1.5c0 .2.1.4.3.6c.2.1.4.2.8.2c.4 0 .7-.1.9-.2c.3-.2.5-.4.7-.7c.1-.2.1-.5.1-.9c0 0 0-.3 0-.3zm2.4-3.7l0-1.1l.9 0l0 1.1l-.9 0zm0 6.4l0-5.4l.9 0l0 5.4l-.9 0z" stroke="none" fill="#ffffff"/><path d="m295.5 10.9l0-10.7l2.1 0c0 0 2.57 7.59 2.6 7.6c.2.7.4 1.2.5 1.6c.1-.4.3-1 .6-1.7c-.05-.05 2.5-7.5 2.5-7.5l1.9 0l0 10.7l-1.3 0l0-9l-3.2 9l-1.2 0l-3.1-9.1l0 9.1l-1.4 0zm12.4-9.2l0-1.5l1.3 0l0 1.5l-1.3 0zm0 9.2l0-7.8l1.3 0l0 7.8l-1.3 0zm8.3 0c0 0 .04-.96 0-1c-.5.8-1.2 1.2-2.1 1.2c-.7 0-1.2-.2-1.7-.5c-.6-.4-1-.8-1.3-1.4c-.2-.7-.4-1.4-.4-2.2c0-.7.1-1.4.4-2.1c.3-.6.7-1.1 1.2-1.4c.5-.4 1.1-.5 1.7-.5c.5 0 .9.1 1.3.3c.3.2.6.4.8.7c.05.04 0-3.8 0-3.8l1.4 0l0 10.7l-1.3 0zm-4.1-3.9c0 1 .2 1.8.6 2.3c.4.5.9.7 1.5.7c.6 0 1.1-.2 1.5-.7c.4-.5.6-1.2.6-2.2c0-1-.2-1.8-.7-2.3c-.4-.5-.9-.7-1.5-.7c-.6 0-1 .2-1.4.7c-.4.5-.6 1.2-.6 2.2zm12.5 3.9c0 0-.02-.96 0-1c-.5.8-1.2 1.2-2.2 1.2c-.6 0-1.2-.2-1.7-.5c-.5-.4-.9-.8-1.2-1.4c-.3-.7-.4-1.4-.4-2.2c0-.7.1-1.4.3-2.1c.3-.6.7-1.1 1.2-1.4c.5-.4 1.1-.5 1.7-.5c.5 0 .9.1 1.3.3c.4.2.7.4.9.7c-.01.04 0-3.8 0-3.8l1.3 0l0 10.7l-1.2 0zm-4.2-3.9c0 1 .2 1.8.6 2.3c.5.5 1 .7 1.5.7c.6 0 1.1-.2 1.5-.7c.4-.5.6-1.2.6-2.2c0-1-.2-1.8-.6-2.3c-.4-.5-.9-.7-1.5-.7c-.6 0-1.1.2-1.5.7c-.4.5-.6 1.2-.6 2.2zm7.4 3.9l0-10.7l1.4 0l0 10.7l-1.4 0zm8.7-2.5c0 0 1.4.2 1.4.2c-.2.8-.6 1.4-1.2 1.8c-.6.5-1.3.7-2.2.7c-1.2 0-2.1-.4-2.7-1.1c-.7-.7-1-1.6-1-2.9c0-1.3.3-2.3 1-3c.7-.8 1.5-1.1 2.6-1.1c1 0 1.9.3 2.6 1c.6.7.9 1.7.9 3c0 .1 0 .2 0 .4c0 0-5.8 0-5.8 0c.1.8.3 1.5.8 1.9c.4.5.9.7 1.6.7c.5 0 .9-.1 1.2-.4c.4-.2.6-.6.8-1.2zm-4.3-2.1c0 0 4.3 0 4.3 0c0-.7-.2-1.2-.5-1.5c-.4-.5-.9-.7-1.6-.7c-.6 0-1.1.2-1.5.6c-.4.4-.7.9-.7 1.6zm11.7 4.6l0-10.7l7.8 0l0 1.3l-6.4 0l0 3.2l6 0l0 1.3l-6 0l0 3.7l6.6 0l0 1.2l-8 0zm15.2 0c-.2-.3-.3-.6-.3-.9c-.5.4-1 .7-1.4.8c-.5.2-.9.3-1.5.3c-.8 0-1.5-.2-1.9-.6c-.5-.4-.7-1-.7-1.6c0-.4.1-.8.2-1.1c.2-.3.4-.5.7-.7c.3-.2.6-.4 1-.5c.2 0 .6-.1 1.1-.2c1.1-.1 1.9-.2 2.4-.4c0-.2 0-.3 0-.4c0-.5-.1-.9-.4-1.1c-.3-.3-.8-.4-1.5-.4c-.6 0-1.1.1-1.4.3c-.2.2-.5.6-.6 1.1c0 0-1.3-.1-1.3-.1c.1-.6.3-1 .6-1.4c.3-.3.6-.6 1.1-.8c.6-.1 1.1-.2 1.8-.2c.7 0 1.2 0 1.6.2c.4.2.8.4.9.6c.2.2.4.5.5.9c0 .2 0 .6 0 1.2c0 0 0 1.8 0 1.8c0 1.2.1 2 .1 2.3c.1.3.2.6.3.9c.04.02-1.3 0-1.3 0c0 0-.04.02 0 0zm-.4-3.9c-.5.2-1.2.4-2.2.5c-.5.1-.9.2-1.1.3c-.2.1-.4.2-.5.4c-.2.2-.2.4-.2.6c0 .4.1.7.4.9c.2.2.6.4 1.2.4c.5 0 .9-.1 1.3-.4c.4-.2.7-.5.9-.9c.1-.3.2-.7.2-1.3c0 0 0-.5 0-.5zm2.8 1.6c0 0 1.3-.2 1.3-.2c.1.5.3.9.7 1.2c.3.3.8.4 1.4.4c.6 0 1-.1 1.3-.4c.3-.2.4-.5.4-.8c0-.3-.1-.6-.3-.7c-.2-.1-.7-.3-1.4-.5c-1-.2-1.6-.4-2-.6c-.4-.2-.7-.4-.9-.7c-.1-.4-.2-.7-.2-1.1c0-.3 0-.7.2-1c.2-.3.4-.5.6-.7c.2-.1.5-.3.9-.4c.3-.1.7-.1 1.1-.1c.6 0 1.2.1 1.6.2c.5.2.8.4 1.1.7c.2.3.3.7.4 1.2c0 0-1.3.2-1.3.2c0-.4-.2-.7-.5-.9c-.3-.2-.7-.3-1.2-.3c-.6 0-1 .1-1.3.3c-.2.2-.4.4-.4.7c0 .1.1.3.2.4c.1.2.3.3.5.4c.1 0 .5.1 1.2.3c.9.3 1.5.5 1.9.6c.4.2.7.4.9.7c.2.3.3.7.3 1.1c0 .5-.1.9-.4 1.3c-.2.4-.6.7-1.1.9c-.5.2-1 .3-1.6.3c-1 0-1.8-.2-2.3-.6c-.6-.5-.9-1.1-1.1-1.9zm10.4 1.2c.1 0 .3 0 .5-.1c0 0 .2 1.2.2 1.2c-.3.1-.7.1-1 .1c-.4 0-.8-.1-1.1-.2c-.2-.2-.4-.4-.5-.6c-.1-.2-.2-.8-.2-1.6c.01.04 0-4.4 0-4.4l-1 0l0-1.1l1 0l0-1.9l1.3-.8l0 2.7l1.3 0l0 1.1l-1.3 0c0 0 .02 4.52 0 4.5c0 .4 0 .6.1.7c0 .1.1.2.2.3c.1.1.3.1.5.1c0 0 0 0 0 0z" stroke="none" fill="#ffffff"/></g><g id="Group70477"><path d="m148 144.4l0-7.5c0 0 2.83 0 2.8 0c.5 0 .9 0 1.2.1c.3 0 .7.2.9.3c.3.2.5.4.6.8c.2.3.2.6.2 1c0 .6-.2 1.2-.6 1.6c-.4.4-1.1.7-2.2.7c.02-.04-1.9 0-1.9 0l0 3l-1 0zm1-3.9c0 0 1.94-.02 1.9 0c.7 0 1.1-.1 1.4-.4c.3-.2.4-.6.4-1c0-.3-.1-.6-.2-.8c-.2-.2-.4-.4-.7-.4c-.1-.1-.4-.1-.9-.1c.01-.01-1.9 0-1.9 0l0 2.7zm9.6 3.9c-.1-.2-.1-.4-.2-.7c-.3.3-.6.5-1 .7c-.3.1-.6.1-1 .1c-.6 0-1-.1-1.3-.4c-.4-.3-.5-.7-.5-1.1c0-.3 0-.5.2-.7c.1-.3.2-.4.4-.6c.2-.1.4-.2.7-.3c.2 0 .4-.1.8-.1c.8-.1 1.3-.2 1.7-.3c0-.2 0-.2 0-.3c0-.4-.1-.6-.3-.8c-.2-.2-.6-.3-1-.3c-.5 0-.8.1-1 .2c-.2.2-.4.5-.5.9c0 0-.9-.2-.9-.2c.1-.4.2-.7.4-.9c.2-.2.5-.4.8-.6c.4-.1.8-.1 1.3-.1c.4 0 .8 0 1.1.1c.3.1.5.3.7.4c.1.2.2.4.2.7c.1.1.1.4.1.8c0 0 0 1.2 0 1.2c0 .9 0 1.4.1 1.7c0 .2.1.4.2.6c-.02.02-1 0-1 0c0 0 .02.02 0 0zm-.2-2.7c-.4.1-.9.2-1.5.3c-.4.1-.7.2-.9.2c-.1.1-.2.2-.3.3c-.1.2-.1.3-.1.5c0 .2 0 .4.2.6c.2.1.5.2.9.2c.3 0 .6-.1.9-.2c.3-.2.5-.4.6-.7c.1-.2.2-.5.2-.9c0 0 0-.3 0-.3zm2.3 2.7l0-5.4l.8 0c0 0 .04.8 0 .8c.3-.4.5-.6.6-.8c.2-.1.4-.1.6-.1c.3 0 .6.1 1 .2c0 0-.3.9-.3.9c-.3-.1-.5-.2-.7-.2c-.2 0-.4.1-.6.2c-.1.1-.2.3-.3.5c-.1.3-.2.7-.2 1.1c.04-.03 0 2.8 0 2.8l-.9 0zm3.5-6.4l0-1.1l.9 0l0 1.1l-.9 0zm0 6.4l0-5.4l.9 0l0 5.4l-.9 0zm2-1.6c0 0 .9-.1.9-.1c0 .3.2.6.4.8c.3.2.6.3 1 .3c.4 0 .7-.1.9-.3c.3-.1.4-.3.4-.6c0-.2-.1-.4-.3-.5c-.1-.1-.5-.2-1-.3c-.6-.2-1.1-.3-1.4-.4c-.2-.2-.4-.3-.6-.5c-.1-.3-.2-.5-.2-.8c0-.2.1-.4.2-.7c.1-.2.3-.3.5-.5c.1-.1.3-.2.5-.2c.3-.1.6-.1.8-.1c.5 0 .8 0 1.2.1c.3.2.5.3.7.5c.1.2.2.5.3.9c0 0-.9.1-.9.1c0-.3-.2-.5-.4-.7c-.2-.1-.4-.2-.8-.2c-.4 0-.7.1-.9.2c-.2.2-.3.3-.3.5c0 .1.1.2.1.3c.1.1.2.2.4.3c.1 0 .4.1.8.2c.7.2 1.1.3 1.4.4c.2.2.4.3.6.5c.1.2.2.5.2.8c0 .3-.1.6-.3.9c-.1.3-.4.5-.7.6c-.4.2-.8.2-1.2.2c-.7 0-1.2-.1-1.6-.4c-.4-.3-.6-.7-.7-1.3z" stroke="none" fill="#ffffff"/><path d="m148 131.8l0-7.5l1.5 0c0 0 1.74 5.33 1.7 5.3c.2.5.3.9.4 1.1c.1-.2.2-.6.4-1.2c0 .03 1.8-5.2 1.8-5.2l1.3 0l0 7.5l-.9 0l0-6.3l-2.2 6.3l-.9 0l-2.2-6.4l0 6.4l-.9 0zm12.2 0c0 0-.01-.78 0-.8c-.4.6-1 .9-1.7.9c-.4 0-.7 0-.9-.1c-.3-.2-.5-.3-.7-.5c-.1-.2-.2-.4-.2-.7c-.1-.2-.1-.5-.1-.9c.01.05 0-3.3 0-3.3l.9 0c0 0 .03 3 0 3c0 .5 0 .8.1 1c0 .2.2.4.4.5c.1.2.4.2.7.2c.2 0 .5 0 .7-.2c.3-.1.4-.3.5-.5c.1-.3.2-.6.2-1.1c0-.01 0-2.9 0-2.9l.9 0l0 5.4l-.8 0zm2.3 0l0-5.4l.8 0c0 0 0 .75 0 .7c.4-.5 1-.8 1.7-.8c.4 0 .7 0 .9.1c.3.1.5.3.7.5c.1.2.2.4.2.7c.1.1.1.4.1.9c-.01-.03 0 3.3 0 3.3l-.9 0c0 0-.03-3.29 0-3.3c0-.4-.1-.6-.1-.8c-.1-.2-.2-.4-.4-.5c-.2-.1-.4-.1-.7-.1c-.4 0-.7.1-1 .3c-.3.3-.4.7-.4 1.4c-.01.05 0 3 0 3l-.9 0zm5.8-6.4l0-1.1l.9 0l0 1.1l-.9 0zm0 6.4l0-5.4l.9 0l0 5.4l-.9 0zm5.9-2c0 0 .9.1.9.1c-.1.7-.4 1.2-.8 1.5c-.4.4-.9.5-1.5.5c-.7 0-1.3-.2-1.8-.7c-.4-.5-.6-1.2-.6-2.1c0-.6.1-1.1.2-1.5c.2-.5.5-.8.9-1c.4-.2.9-.3 1.3-.3c.6 0 1.1.1 1.5.4c.4.3.6.7.7 1.3c0 0-.9.1-.9.1c-.1-.4-.2-.6-.4-.8c-.3-.2-.5-.3-.8-.3c-.5 0-.9.2-1.2.5c-.3.3-.4.9-.4 1.6c0 .7.1 1.3.4 1.6c.3.3.7.5 1.1.5c.4 0 .7-.1.9-.3c.3-.3.4-.6.5-1.1zm1.7 2l0-7.5l.9 0c0 0 .01 2.7 0 2.7c.4-.5 1-.7 1.6-.7c.4 0 .8 0 1.1.2c.3.1.5.4.6.6c.2.3.2.7.2 1.3c.02-.03 0 3.4 0 3.4l-.9 0c0 0 0-3.43 0-3.4c0-.5-.1-.8-.3-1c-.2-.2-.5-.4-.8-.4c-.3 0-.6.1-.8.3c-.3.1-.4.3-.5.5c-.1.3-.2.6-.2 1c.01.04 0 3 0 3l-.9 0z" stroke="none" fill="#ffffff"/><path d="m148 119.2l0-7.5l1.5 0c0 0 1.74 5.33 1.7 5.3c.2.5.3.9.4 1.1c.1-.2.2-.6.4-1.2c0 .03 1.8-5.2 1.8-5.2l1.3 0l0 7.5l-.9 0l0-6.3l-2.2 6.3l-.9 0l-2.2-6.4l0 6.4l-.9 0zm8.3-2.7c0-1 .3-1.8.8-2.2c.5-.4 1.1-.6 1.7-.6c.8 0 1.4.2 1.9.7c.4.5.7 1.2.7 2c0 .7-.1 1.3-.3 1.7c-.2.4-.5.7-.9.9c-.5.2-.9.3-1.4.3c-.7 0-1.3-.2-1.8-.7c-.5-.5-.7-1.2-.7-2.1zm.9 0c0 .7.2 1.2.5 1.6c.3.3.7.5 1.1.5c.5 0 .9-.2 1.2-.5c.3-.4.4-.9.4-1.6c0-.7-.1-1.2-.4-1.6c-.3-.3-.7-.5-1.2-.5c-.4 0-.8.2-1.1.5c-.3.4-.5.9-.5 1.6zm4.9 1.1c0 0 .9-.1.9-.1c.1.3.2.6.4.8c.3.2.6.3 1 .3c.4 0 .8-.1 1-.3c.2-.1.3-.3.3-.6c0-.2-.1-.4-.3-.5c-.1-.1-.4-.2-.9-.3c-.7-.2-1.2-.3-1.5-.4c-.2-.2-.4-.3-.5-.5c-.2-.3-.2-.5-.2-.8c0-.2 0-.4.1-.7c.1-.2.3-.3.5-.5c.1-.1.3-.2.6-.2c.2-.1.5-.1.8-.1c.4 0 .8 0 1.1.1c.3.2.5.3.7.5c.1.2.3.5.3.9c0 0-.9.1-.9.1c0-.3-.1-.5-.3-.7c-.2-.1-.5-.2-.9-.2c-.4 0-.7.1-.9.2c-.2.2-.3.3-.3.5c0 .1.1.2.2.3c0 .1.1.2.3.3c.1 0 .4.1.8.2c.7.2 1.1.3 1.4.4c.2.2.5.3.6.5c.1.2.2.5.2.8c0 .3-.1.6-.3.9c-.1.3-.4.5-.7.6c-.4.2-.7.2-1.2.2c-.7 0-1.2-.1-1.6-.4c-.4-.3-.6-.7-.7-1.3zm9.2-.4c0 0 .9.1.9.1c-.1.7-.4 1.2-.8 1.5c-.4.4-.9.5-1.5.5c-.7 0-1.3-.2-1.8-.7c-.4-.5-.7-1.2-.7-2.1c0-.6.1-1.1.3-1.5c.2-.5.5-.8.9-1c.4-.2.8-.3 1.3-.3c.6 0 1.1.1 1.5.4c.3.3.6.7.7 1.3c0 0-.9.1-.9.1c-.1-.4-.2-.6-.5-.8c-.2-.2-.4-.3-.7-.3c-.5 0-.9.2-1.2.5c-.3.3-.4.9-.4 1.6c0 .7.1 1.3.4 1.6c.3.3.6.5 1.1.5c.4 0 .7-.1.9-.3c.3-.3.4-.6.5-1.1zm1.3-.7c0-1 .3-1.8.9-2.2c.4-.4 1-.6 1.7-.6c.7 0 1.3.2 1.8.7c.5.5.7 1.2.7 2c0 .7-.1 1.3-.3 1.7c-.2.4-.5.7-.9.9c-.4.2-.8.3-1.3.3c-.8 0-1.4-.2-1.9-.7c-.4-.5-.7-1.2-.7-2.1zm1 0c0 .7.1 1.2.4 1.6c.3.3.7.5 1.2.5c.4 0 .8-.2 1.1-.5c.3-.4.5-.9.5-1.6c0-.7-.2-1.2-.5-1.6c-.3-.3-.7-.5-1.1-.5c-.5 0-.9.2-1.2.5c-.3.4-.4.9-.4 1.6zm6.2 2.7l-1.7-5.4l1 0l.9 3.1c0 0 .29 1.19.3 1.2c0-.1.1-.4.3-1.1c-.03-.04.8-3.2.8-3.2l1 0l.8 3.1l.3 1.1l.3-1.1l.9-3.1l.9 0l-1.7 5.4l-.9 0l-.9-3.2l-.2-1l-1.1 4.2l-1 0z" stroke="none" fill="#ffffff"/><path d="m148 106.6l0-7.5l1.5 0c0 0 1.74 5.33 1.7 5.3c.2.5.3.9.4 1.1c.1-.2.2-.6.4-1.2c0 .03 1.8-5.2 1.8-5.2l1.3 0l0 7.5l-.9 0l0-6.3l-2.2 6.3l-.9 0l-2.2-6.4l0 6.4l-.9 0zm8.6-6.4l0-1.1l1 0l0 1.1l-1 0zm0 6.4l0-5.4l1 0l0 5.4l-1 0zm2.3 0l0-7.5l1 0l0 7.5l-1 0zm6.1 0c-.1-.2-.1-.4-.2-.7c-.3.3-.6.5-.9.7c-.4.1-.7.1-1.1.1c-.6 0-1-.1-1.3-.4c-.4-.3-.5-.7-.5-1.1c0-.3 0-.5.2-.7c.1-.3.2-.4.4-.6c.2-.1.5-.2.7-.3c.2 0 .5-.1.8-.1c.8-.1 1.3-.2 1.7-.3c0-.2 0-.2 0-.3c0-.4-.1-.6-.3-.8c-.2-.2-.6-.3-1-.3c-.5 0-.8.1-1 .2c-.2.2-.4.5-.5.9c0 0-.9-.2-.9-.2c.1-.4.3-.7.4-.9c.2-.2.5-.4.9-.6c.3-.1.7-.1 1.2-.1c.5 0 .8 0 1.1.1c.3.1.5.3.7.4c.1.2.2.4.3.7c0 .1 0 .4 0 .8c0 0 0 1.2 0 1.2c0 .9 0 1.4.1 1.7c0 .2.1.4.2.6c-.01.02-1 0-1 0c0 0 .03.02 0 0zm-.2-2.7c-.4.1-.9.2-1.5.3c-.4.1-.7.2-.8.2c-.2.1-.3.2-.4.3c-.1.2-.1.3-.1.5c0 .2.1.4.2.6c.2.1.5.2.9.2c.3 0 .6-.1.9-.2c.3-.2.5-.4.6-.7c.1-.2.2-.5.2-.9c0 0 0-.3 0-.3zm2.3 2.7l0-5.4l.9 0c0 0-.04.75 0 .7c.4-.5.9-.8 1.7-.8c.3 0 .6 0 .9.1c.3.1.5.3.6.5c.2.2.2.4.3.7c0 .1.1.4.1.9c-.04-.03 0 3.3 0 3.3l-1 0c0 0 .03-3.29 0-3.3c0-.4 0-.6-.1-.8c0-.2-.2-.4-.4-.5c-.1-.1-.4-.1-.6-.1c-.4 0-.7.1-1 .3c-.3.3-.4.7-.4 1.4c-.05.05 0 3 0 3l-1 0z" stroke="none" fill="#ffffff"/><path d="m148 94l0-7.5l1.5 0c0 0 1.74 5.33 1.7 5.3c.2.5.3.9.4 1.1c.1-.2.2-.6.4-1.2c0 .03 1.8-5.2 1.8-5.2l1.3 0l0 7.5l-.9 0l0-6.3l-2.2 6.3l-.9 0l-2.2-6.4l0 6.4l-.9 0zm12.4 0c-.1-.2-.2-.4-.2-.7c-.4.3-.7.5-1 .7c-.3.1-.7.1-1 .1c-.6 0-1.1-.1-1.4-.4c-.3-.3-.5-.7-.5-1.1c0-.3.1-.5.2-.7c.1-.3.3-.4.5-.6c.2-.1.4-.2.6-.3c.2 0 .5-.1.9-.1c.7-.1 1.3-.2 1.6-.3c0-.2 0-.2 0-.3c0-.4-.1-.6-.3-.8c-.2-.2-.5-.3-1-.3c-.4 0-.8.1-1 .2c-.2.2-.3.5-.4.9c0 0-.9-.2-.9-.2c.1-.4.2-.7.4-.9c.2-.2.4-.4.8-.6c.3-.1.8-.1 1.2-.1c.5 0 .9 0 1.2.1c.3.1.5.3.6.4c.1.2.2.4.3.7c0 .1 0 .4 0 .8c0 0 0 1.2 0 1.2c0 .9.1 1.4.1 1.7c0 .2.1.4.2.6c.03.02-.9 0-.9 0c0 0-.04.02 0 0zm-.3-2.7c-.3.1-.8.2-1.5.3c-.4.1-.7.2-.8.2c-.2.1-.3.2-.4.3c-.1.2-.1.3-.1.5c0 .2.1.4.3.6c.2.1.4.2.8.2c.4 0 .7-.1.9-.2c.3-.2.5-.4.7-.7c.1-.2.1-.5.1-.9c0 0 0-.3 0-.3zm5.9 2.7c0 0 0-.67 0-.7c-.3.6-.9.8-1.5.8c-.5 0-.9-.1-1.2-.3c-.4-.3-.7-.6-.9-1c-.2-.4-.3-.9-.3-1.5c0-.5.1-1 .3-1.5c.2-.4.5-.8.8-1c.4-.2.8-.3 1.2-.3c.4 0 .7 0 .9.2c.3.1.5.3.6.5c.04 0 0-2.7 0-2.7l1 0l0 7.5l-.9 0zm-2.9-2.7c0 .7.1 1.2.4 1.6c.3.3.7.5 1.1.5c.4 0 .7-.2 1-.5c.3-.3.4-.8.4-1.5c0-.8-.1-1.3-.4-1.7c-.3-.3-.7-.5-1.1-.5c-.4 0-.7.2-1 .5c-.3.4-.4.9-.4 1.6zm5.2 2.7l0-5.4l.8 0c0 0 .03.8 0 .8c.2-.4.4-.6.6-.8c.2-.1.4-.1.6-.1c.3 0 .6.1 1 .2c0 0-.4.9-.4.9c-.2-.1-.4-.2-.6-.2c-.2 0-.4.1-.6.2c-.1.1-.3.3-.3.5c-.1.3-.2.7-.2 1.1c.02-.03 0 2.8 0 2.8l-.9 0zm3.5-6.4l0-1.1l.9 0l0 1.1l-.9 0zm0 6.4l0-5.4l.9 0l0 5.4l-.9 0zm5.9 0c0 0-.03-.67 0-.7c-.4.6-.9.8-1.6.8c-.4 0-.8-.1-1.2-.3c-.3-.3-.6-.6-.8-1c-.2-.4-.3-.9-.3-1.5c0-.5.1-1 .3-1.5c.2-.4.4-.8.8-1c.4-.2.8-.3 1.2-.3c.3 0 .6 0 .9.2c.2.1.4.3.6.5c.01 0 0-2.7 0-2.7l.9 0l0 7.5l-.8 0zm-2.9-2.7c0 .7.1 1.2.4 1.6c.3.3.6.5 1 .5c.4 0 .8-.2 1.1-.5c.2-.3.4-.8.4-1.5c0-.8-.2-1.3-.4-1.7c-.3-.3-.7-.5-1.1-.5c-.4 0-.8.2-1 .5c-.3.4-.4.9-.4 1.6z" stroke="none" fill="#ffffff"/><path d="m148 81.4l0-7.5l1 0l0 6.6l3.7 0l0 .9l-4.7 0zm5.4-2.7c0-1 .3-1.8.8-2.2c.5-.4 1.1-.6 1.7-.6c.8 0 1.4.2 1.9.7c.4.5.7 1.2.7 2c0 .7-.1 1.3-.3 1.7c-.2.4-.6.7-1 .9c-.4.2-.8.3-1.3.3c-.7 0-1.3-.2-1.8-.7c-.5-.5-.7-1.2-.7-2.1zm.9 0c0 .7.2 1.2.5 1.6c.3.3.7.5 1.1.5c.5 0 .9-.2 1.2-.5c.3-.4.4-.9.4-1.6c0-.7-.1-1.2-.4-1.6c-.3-.3-.7-.5-1.2-.5c-.4 0-.8.2-1.1.5c-.3.4-.5.9-.5 1.6zm5.3 2.7l0-5.4l.8 0c0 0-.01.75 0 .7c.4-.5 1-.8 1.7-.8c.4 0 .7 0 .9.1c.3.1.5.3.6.5c.2.2.3.4.3.7c.1.1.1.4.1.9c-.02-.03 0 3.3 0 3.3l-.9 0c0 0-.04-3.29 0-3.3c0-.4-.1-.6-.1-.8c-.1-.2-.2-.4-.4-.5c-.2-.1-.4-.1-.7-.1c-.4 0-.7.1-1 .3c-.3.3-.4.7-.4 1.4c-.02.05 0 3 0 3l-.9 0zm9.3 0c0 0 .03-.67 0-.7c-.3.6-.8.8-1.5.8c-.4 0-.8-.1-1.2-.3c-.4-.3-.6-.6-.8-1c-.2-.4-.3-.9-.3-1.5c0-.5.1-1 .2-1.5c.2-.4.5-.8.9-1c.3-.2.7-.3 1.2-.3c.3 0 .6 0 .8.2c.3.1.5.3.7.5c-.03 0 0-2.7 0-2.7l.9 0l0 7.5l-.9 0zm-2.9-2.7c0 .7.2 1.2.5 1.6c.2.3.6.5 1 .5c.4 0 .7-.2 1-.5c.3-.3.4-.8.4-1.5c0-.8-.1-1.3-.4-1.7c-.3-.3-.6-.5-1-.5c-.5 0-.8.2-1.1.5c-.2.4-.4.9-.4 1.6zm4.9 0c0-1 .3-1.8.8-2.2c.5-.4 1.1-.6 1.7-.6c.8 0 1.4.2 1.9.7c.5.5.7 1.2.7 2c0 .7-.1 1.3-.3 1.7c-.2.4-.5.7-.9.9c-.4.2-.9.3-1.4.3c-.7 0-1.3-.2-1.8-.7c-.5-.5-.7-1.2-.7-2.1zm.9 0c0 .7.2 1.2.5 1.6c.3.3.7.5 1.1.5c.5 0 .9-.2 1.2-.5c.3-.4.4-.9.4-1.6c0-.7-.1-1.2-.4-1.6c-.3-.3-.7-.5-1.2-.5c-.4 0-.8.2-1.1.5c-.3.4-.5.9-.5 1.6zm5.3 2.7l0-5.4l.8 0c0 0 .01.75 0 .7c.4-.5 1-.8 1.7-.8c.4 0 .7 0 .9.1c.3.1.5.3.7.5c.1.2.2.4.3.7c0 .1 0 .4 0 .9c0-.03 0 3.3 0 3.3l-.9 0c0 0-.02-3.29 0-3.3c0-.4-.1-.6-.1-.8c-.1-.2-.2-.4-.4-.5c-.2-.1-.4-.1-.7-.1c-.3 0-.7.1-1 .3c-.3.3-.4.7-.4 1.4c0 .05 0 3 0 3l-.9 0z" stroke="none" fill="#ffffff"/><path d="m148 68.8l0-7.5l1 0l0 3.1l3.9 0l0-3.1l1 0l0 7.5l-1 0l0-3.5l-3.9 0l0 3.5l-1 0zm11.2 0c-.1-.2-.2-.4-.2-.7c-.3.3-.7.5-1 .7c-.3.1-.6.1-1 .1c-.6 0-1-.1-1.4-.4c-.3-.3-.5-.7-.5-1.1c0-.3.1-.5.2-.7c.2-.3.3-.4.5-.6c.2-.1.4-.2.7-.3c.2 0 .4-.1.8-.1c.7-.1 1.3-.2 1.6-.3c0-.2 0-.2 0-.3c0-.4 0-.6-.2-.8c-.3-.2-.6-.3-1.1-.3c-.4 0-.7.1-.9.2c-.2.2-.4.5-.5.9c0 0-.9-.2-.9-.2c.1-.4.2-.7.4-.9c.2-.2.5-.4.8-.6c.4-.1.8-.1 1.3-.1c.4 0 .8 0 1.1.1c.3.1.5.3.6.4c.2.2.3.4.3.7c.1.1.1.4.1.8c0 0 0 1.2 0 1.2c0 .9 0 1.4 0 1.7c.1.2.1.4.3.6c-.04.02-1 0-1 0c0 0 0 .02 0 0zm-.3-2.7c-.3.1-.8.2-1.5.3c-.3.1-.6.2-.8.2c-.1.1-.3.2-.3.3c-.1.2-.2.3-.2.5c0 .2.1.4.3.6c.2.1.5.2.8.2c.4 0 .7-.1 1-.2c.3-.2.5-.4.6-.7c.1-.2.1-.5.1-.9c0 0 0-.3 0-.3zm2.4 2.7l0-5.4l.8 0c0 0 .03.74 0 .7c.2-.2.4-.4.7-.6c.3-.2.6-.2 1-.2c.4 0 .7 0 1 .2c.2.2.4.4.5.7c.4-.6 1-.9 1.7-.9c.5 0 1 .1 1.2.4c.3.3.5.8.5 1.4c-.02-.02 0 3.7 0 3.7l-.9 0c0 0-.04-3.41 0-3.4c0-.4-.1-.6-.1-.8c-.1-.2-.2-.3-.4-.4c-.1-.1-.3-.1-.5-.1c-.4 0-.7.1-1 .3c-.2.3-.3.7-.3 1.3c-.04-.04 0 3.1 0 3.1l-1 0c0 0 .04-3.52 0-3.5c0-.4 0-.7-.2-.9c-.1-.2-.4-.3-.7-.3c-.3 0-.5 0-.7.2c-.3.1-.4.3-.5.6c-.1.2-.2.6-.2 1.1c.02 0 0 2.8 0 2.8l-.9 0zm9.6 0l-.9 0l0-7.5l1 0c0 0-.03 2.69 0 2.7c.4-.5.9-.7 1.5-.7c.3 0 .6 0 .9.2c.3.1.6.3.7.5c.2.3.4.6.5.9c.1.4.2.7.2 1.1c0 .9-.3 1.7-.7 2.2c-.5.5-1 .7-1.7.7c-.6 0-1.1-.2-1.5-.8c0 .04 0 .7 0 .7zm0-2.7c0 .6.1 1.1.3 1.4c.2.4.6.7 1.1.7c.4 0 .8-.2 1.1-.5c.3-.4.4-.9.4-1.6c0-.7-.1-1.2-.4-1.6c-.3-.3-.6-.5-1-.5c-.4 0-.8.2-1.1.5c-.3.4-.4.9-.4 1.6zm8.6 2.7c0 0-.04-.78 0-.8c-.5.6-1 .9-1.8.9c-.3 0-.6 0-.9-.1c-.2-.2-.5-.3-.6-.5c-.1-.2-.2-.4-.3-.7c0-.2 0-.5 0-.9c-.03.05 0-3.3 0-3.3l.9 0c0 0-.01 3 0 3c0 .5 0 .8 0 1c.1.2.2.4.4.5c.2.2.4.2.7.2c.3 0 .5 0 .8-.2c.2-.1.4-.3.5-.5c.1-.3.2-.6.2-1.1c-.04-.01 0-2.9 0-2.9l.9 0l0 5.4l-.8 0zm2.2 0l0-5.4l.8 0c0 0 .05.8 0 .8c.3-.4.5-.6.6-.8c.2-.1.4-.1.6-.1c.3 0 .7.1 1 .2c0 0-.3.9-.3.9c-.3-.1-.5-.2-.7-.2c-.2 0-.4.1-.6.2c-.1.1-.2.3-.3.5c-.1.3-.2.7-.2 1.1c.04-.03 0 2.8 0 2.8l-.9 0zm3.4.5c0 0 .9.1.9.1c0 .3.1.5.3.6c.2.2.5.3.9.3c.4 0 .8-.1 1-.3c.2-.2.4-.4.5-.7c0-.2 0-.6 0-1.2c-.4.5-.9.7-1.5.7c-.7 0-1.3-.2-1.7-.8c-.4-.5-.6-1.2-.6-1.9c0-.6.1-1 .3-1.5c.1-.4.4-.7.8-1c.3-.2.7-.3 1.2-.3c.7 0 1.2.2 1.6.7c.02.03 0-.6 0-.6l.9 0c0 0-.03 4.68 0 4.7c0 .8-.1 1.4-.3 1.8c-.2.3-.4.6-.8.8c-.4.2-.8.3-1.4.3c-.6 0-1.2-.1-1.6-.4c-.4-.3-.6-.7-.5-1.3zm.7-3.3c0 .7.2 1.2.4 1.6c.3.3.7.5 1.1.5c.4 0 .8-.2 1.1-.5c.3-.4.4-.9.4-1.6c0-.6-.1-1.1-.4-1.5c-.3-.3-.7-.5-1.1-.5c-.4 0-.8.2-1.1.5c-.2.3-.4.8-.4 1.5z" stroke="none" fill="#ffffff"/><path d="m148 56.2l0-7.5l5.1 0l0 .9l-4.1 0l0 2.3l3.6 0l0 .9l-3.6 0l0 3.4l-1 0zm6.3 0l0-5.4l.8 0c0 0 .01.8 0 .8c.2-.4.4-.6.6-.8c.2-.1.4-.1.6-.1c.3 0 .6.1.9.2c0 0-.3.9-.3.9c-.2-.1-.4-.2-.7-.2c-.2 0-.3.1-.5.2c-.2.1-.3.3-.3.5c-.1.3-.2.7-.2 1.1c.01-.03 0 2.8 0 2.8l-.9 0zm7.2 0c-.1-.2-.1-.4-.2-.7c-.3.3-.6.5-.9.7c-.4.1-.7.1-1.1.1c-.6 0-1-.1-1.3-.4c-.4-.3-.5-.7-.5-1.1c0-.3 0-.5.2-.7c.1-.3.2-.4.4-.6c.2-.1.5-.2.7-.3c.2 0 .5-.1.8-.1c.8-.1 1.3-.2 1.7-.3c0-.2 0-.2 0-.3c0-.4-.1-.6-.3-.8c-.2-.2-.6-.3-1-.3c-.5 0-.8.1-1 .2c-.2.2-.4.5-.5.9c0 0-.9-.2-.9-.2c.1-.4.3-.7.4-.9c.2-.2.5-.4.9-.6c.3-.1.7-.1 1.2-.1c.5 0 .8 0 1.1.1c.3.1.5.3.7.4c.1.2.2.4.3.7c0 .1 0 .4 0 .8c0 0 0 1.2 0 1.2c0 .9 0 1.4.1 1.7c0 .2.1.4.2.6c-.01.02-1 0-1 0c0 0 .03.02 0 0zm-.2-2.7c-.4.1-.9.2-1.5.3c-.4.1-.7.2-.8.2c-.2.1-.3.2-.4.3c-.1.2-.1.3-.1.5c0 .2.1.4.2.6c.2.1.5.2.9.2c.3 0 .6-.1.9-.2c.3-.2.5-.4.6-.7c.1-.2.2-.5.2-.9c0 0 0-.3 0-.3zm2.3 2.7l0-5.4l.9 0c0 0-.04.75 0 .7c.4-.5.9-.8 1.7-.8c.3 0 .6 0 .9.1c.3.1.5.3.6.5c.2.2.2.4.3.7c0 .1.1.4.1.9c-.05-.03 0 3.3 0 3.3l-1 0c0 0 .03-3.29 0-3.3c0-.4 0-.6-.1-.8c0-.2-.2-.4-.4-.5c-.1-.1-.4-.1-.6-.1c-.4 0-.7.1-1 .3c-.3.3-.4.7-.4 1.4c-.05.05 0 3 0 3l-1 0zm5.9 0l0-7.5l.9 0l0 4.3l2.2-2.2l1.2 0l-2.1 2l2.3 3.4l-1.2 0l-1.8-2.8l-.6.7l0 2.1l-.9 0zm5.4 0l0-4.7l-.8 0l0-.7l.8 0c0 0 .04-.6 0-.6c0-.4.1-.6.1-.8c.1-.3.3-.5.5-.6c.2-.1.5-.2.9-.2c.3 0 .6 0 .9.1c0 0-.1.8-.1.8c-.2-.1-.4-.1-.6-.1c-.3 0-.5.1-.6.2c-.1.1-.1.3-.1.7c-.04-.03 0 .5 0 .5l1 0l0 .7l-1 0l0 4.7l-1 0zm6.3 0c0 0 0-.78 0-.8c-.4.6-1 .9-1.7.9c-.3 0-.6 0-.9-.1c-.3-.2-.5-.3-.6-.5c-.2-.2-.3-.4-.3-.7c-.1-.2-.1-.5-.1-.9c.02.05 0-3.3 0-3.3l.9 0c0 0 .04 3 0 3c0 .5.1.8.1 1c.1.2.2.4.4.5c.2.2.4.2.7.2c.2 0 .5 0 .7-.2c.3-.1.5-.3.6-.5c.1-.3.1-.6.1-1.1c.01-.01 0-2.9 0-2.9l.9 0l0 5.4l-.8 0zm2.3 0l0-5.4l.8 0c0 0 0 .8 0 .8c.2-.4.4-.6.6-.8c.2-.1.4-.1.6-.1c.3 0 .6.1.9.2c0 0-.3.9-.3.9c-.2-.1-.4-.2-.7-.2c-.2 0-.4.1-.5.2c-.2.1-.3.3-.4.5c-.1.3-.1.7-.1 1.1c-.01-.03 0 2.8 0 2.8l-.9 0zm5.1-.8c.1 0 .2 0 .4 0c0 0 .1.8.1.8c-.2.1-.5.1-.7.1c-.3 0-.6-.1-.8-.2c-.1-.1-.3-.2-.3-.4c-.1-.2-.2-.5-.2-1.1c.04.03 0-3.1 0-3.1l-.6 0l0-.7l.6 0l0-1.4l1-.5l0 1.9l.9 0l0 .7l-.9 0c0 0-.04 3.18 0 3.2c0 .2 0 .4 0 .5c0 .1.1.1.2.2c0 0 .1 0 .3 0c0 0 0 0 0 0z" stroke="none" fill="#ffffff"/><path d="m148 43.6l0-7.5c0 0 2.59 0 2.6 0c.6 0 1 0 1.3.1c.5.1.8.3 1.1.6c.4.3.7.7.9 1.2c.2.6.3 1.2.3 1.8c0 .6-.1 1.1-.2 1.5c-.1.5-.3.8-.5 1.1c-.2.3-.4.5-.7.7c-.2.2-.5.3-.9.4c-.3.1-.7.1-1.2.1c.01.02-2.7 0-2.7 0zm1-.9c0 0 1.6.03 1.6 0c.5 0 .9 0 1.2-.1c.2-.1.5-.2.6-.4c.3-.2.5-.5.6-.9c.1-.4.2-.9.2-1.5c0-.8-.1-1.4-.4-1.8c-.3-.4-.6-.7-.9-.9c-.3-.1-.7-.1-1.3-.1c-.03-.01-1.6 0-1.6 0l0 5.7zm10 .9c0 0 .03-.78 0-.8c-.4.6-1 .9-1.7.9c-.3 0-.6 0-.9-.1c-.3-.2-.5-.3-.6-.5c-.2-.2-.2-.4-.3-.7c0-.2-.1-.5-.1-.9c.04.05 0-3.3 0-3.3l1 0c0 0-.04 3 0 3c0 .5 0 .8 0 1c.1.2.2.4.4.5c.2.2.4.2.7.2c.3 0 .5 0 .8-.2c.2-.1.4-.3.5-.5c.1-.3.1-.6.1-1.1c.03-.01 0-2.9 0-2.9l1 0l0 5.4l-.9 0zm-2.8-6.5l0-1l1 0l0 1l-1 0zm1.9 0l0-1l1 0l0 1l-1 0zm2.8 4.9c0 0 .9-.1.9-.1c.1.3.2.6.5.8c.2.2.5.3 1 .3c.4 0 .7-.1.9-.3c.2-.1.3-.3.3-.6c0-.2-.1-.4-.3-.5c-.1-.1-.4-.2-.9-.3c-.7-.2-1.2-.3-1.4-.4c-.3-.2-.5-.3-.6-.5c-.1-.3-.2-.5-.2-.8c0-.2 0-.4.2-.7c.1-.2.2-.3.4-.5c.2-.1.3-.2.6-.2c.2-.1.5-.1.8-.1c.4 0 .8 0 1.1.1c.3.2.6.3.7.5c.2.2.3.5.3.9c0 0-.9.1-.9.1c0-.3-.1-.5-.3-.7c-.2-.1-.5-.2-.8-.2c-.5 0-.8.1-.9.2c-.2.2-.3.3-.3.5c0 .1 0 .2.1.3c.1.1.2.2.3.3c.1 0 .4.1.9.2c.6.2 1.1.3 1.3.4c.3.2.5.3.6.5c.2.2.3.5.3.8c0 .3-.1.6-.3.9c-.2.3-.5.5-.8.6c-.3.2-.7.2-1.1.2c-.7 0-1.3-.1-1.7-.4c-.3-.3-.6-.7-.7-1.3zm5.3 0c0 0 .9-.1.9-.1c0 .3.2.6.4.8c.3.2.6.3 1 .3c.4 0 .7-.1.9-.3c.3-.1.4-.3.4-.6c0-.2-.1-.4-.3-.5c-.1-.1-.5-.2-1-.3c-.6-.2-1.1-.3-1.4-.4c-.2-.2-.4-.3-.6-.5c-.1-.3-.2-.5-.2-.8c0-.2.1-.4.2-.7c.1-.2.3-.3.5-.5c.1-.1.3-.2.5-.2c.3-.1.6-.1.8-.1c.5 0 .8 0 1.2.1c.3.2.5.3.7.5c.1.2.2.5.3.9c0 0-.9.1-.9.1c0-.3-.2-.5-.4-.7c-.2-.1-.4-.2-.8-.2c-.4 0-.7.1-.9.2c-.2.2-.3.3-.3.5c0 .1.1.2.1.3c.1.1.2.2.4.3c.1 0 .4.1.8.2c.7.2 1.1.3 1.4.4c.2.2.4.3.6.5c.1.2.2.5.2.8c0 .3-.1.6-.3.9c-.1.3-.4.5-.7.6c-.4.2-.8.2-1.2.2c-.7 0-1.2-.1-1.6-.4c-.4-.3-.6-.7-.7-1.3zm9.3-.1c0 0 1 .1 1 .1c-.2.5-.4 1-.9 1.3c-.4.3-.9.4-1.5.4c-.8 0-1.4-.2-1.9-.7c-.5-.5-.7-1.2-.7-2.1c0-.9.2-1.6.7-2.1c.5-.5 1.1-.7 1.8-.7c.8 0 1.4.2 1.8.7c.5.5.7 1.2.7 2.1c0 0 0 .1 0 .2c0 0-4.1 0-4.1 0c.1.6.3 1.1.6 1.4c.3.3.6.5 1.1.5c.3 0 .6-.1.9-.3c.2-.2.4-.4.5-.8zm-3-1.5c0 0 3 0 3 0c0-.5-.1-.8-.3-1.1c-.3-.3-.7-.5-1.2-.5c-.4 0-.7.2-1 .4c-.3.3-.5.7-.5 1.2zm5.1 3.2l0-7.5l.9 0l0 7.5l-.9 0zm5.9 0c0 0 .01-.67 0-.7c-.3.6-.8.8-1.5.8c-.4 0-.8-.1-1.2-.3c-.4-.3-.7-.6-.9-1c-.2-.4-.3-.9-.3-1.5c0-.5.1-1 .3-1.5c.2-.4.5-.8.8-1c.4-.2.8-.3 1.2-.3c.4 0 .7 0 .9.2c.3.1.5.3.6.5c.05 0 0-2.7 0-2.7l1 0l0 7.5l-.9 0zm-2.9-2.7c0 .7.1 1.2.4 1.6c.3.3.7.5 1.1.5c.4 0 .7-.2 1-.5c.3-.3.4-.8.4-1.5c0-.8-.1-1.3-.4-1.7c-.3-.3-.6-.5-1.1-.5c-.4 0-.7.2-1 .5c-.3.4-.4.9-.4 1.6zm4.9 0c0-1 .3-1.8.8-2.2c.5-.4 1.1-.6 1.7-.6c.8 0 1.4.2 1.9.7c.4.5.7 1.2.7 2c0 .7-.1 1.3-.3 1.7c-.3.4-.6.7-1 .9c-.4.2-.8.3-1.3.3c-.7 0-1.4-.2-1.8-.7c-.5-.5-.7-1.2-.7-2.1zm.9 0c0 .7.2 1.2.5 1.6c.3.3.7.5 1.1.5c.5 0 .9-.2 1.2-.5c.3-.4.4-.9.4-1.6c0-.7-.1-1.2-.4-1.6c-.3-.3-.7-.5-1.2-.5c-.4 0-.8.2-1.1.5c-.3.4-.5.9-.5 1.6zm5.2 2.7l0-5.4l.9 0c0 0-.03.8 0 .8c.2-.4.4-.6.6-.8c.1-.1.3-.1.6-.1c.3 0 .6.1.9.2c0 0-.3.9-.3.9c-.2-.1-.5-.2-.7-.2c-.2 0-.4.1-.5.2c-.2.1-.3.3-.4.5c-.1.3-.1.7-.1 1.1c-.03-.03 0 2.8 0 2.8l-1 0zm3.8 0l0-4.7l-.8 0l0-.7l.8 0c0 0-.03-.6 0-.6c0-.4 0-.6.1-.8c.1-.3.2-.5.4-.6c.3-.1.6-.2 1-.2c.2 0 .5 0 .8.1c0 0-.1.8-.1.8c-.2-.1-.4-.1-.5-.1c-.3 0-.5.1-.6.2c-.2.1-.2.3-.2.7c-.01-.03 0 .5 0 .5l1 0l0 .7l-1 0l0 4.7l-.9 0z" stroke="none" fill="#ffffff"/><path d="m148 31l0-7.5c0 0 2.78 0 2.8 0c.6 0 1 .1 1.4.2c.3.2.6.4.8.7c.2.4.3.7.3 1c0 .3-.1.7-.3.9c-.2.3-.4.5-.8.7c.5.2.8.4 1.1.7c.2.3.3.7.3 1.1c0 .4 0 .7-.2 1c-.1.3-.3.6-.5.7c-.3.2-.5.3-.9.4c-.3.1-.7.1-1.2.1c.02.02-2.8 0-2.8 0zm1-4.3c0 0 1.58-.04 1.6 0c.4 0 .7-.1.9-.1c.3-.1.5-.2.6-.4c.1-.2.2-.4.2-.7c0-.2-.1-.4-.2-.6c-.1-.2-.3-.3-.5-.4c-.2-.1-.6-.1-1.1-.1c-.05-.01-1.5 0-1.5 0l0 2.3zm0 3.4c0 0 1.82.03 1.8 0c.3 0 .6 0 .7 0c.2 0 .4-.1.6-.2c.1-.1.3-.2.4-.4c.1-.2.1-.4.1-.7c0-.2-.1-.5-.2-.7c-.2-.2-.4-.3-.6-.4c-.3-.1-.6-.2-1.1-.2c-.01.05-1.7 0-1.7 0l0 2.6zm5.9.9l0-5.4l.8 0c0 0 0 .8 0 .8c.2-.4.4-.6.6-.8c.2-.1.4-.1.6-.1c.3 0 .6.1.9.2c0 0-.3.9-.3.9c-.2-.1-.4-.2-.7-.2c-.2 0-.3.1-.5.2c-.2.1-.3.3-.4.5c-.1.3-.1.7-.1 1.1c0-.03 0 2.8 0 2.8l-.9 0zm7 0c0 0 .05-.78 0-.8c-.4.6-1 .9-1.7.9c-.3 0-.6 0-.9-.1c-.3-.2-.5-.3-.6-.5c-.1-.2-.2-.4-.3-.7c0-.2 0-.5 0-.9c-.04.05 0-3.3 0-3.3l.9 0c0 0-.02 3 0 3c0 .5 0 .8 0 1c.1.2.2.4.4.5c.2.2.4.2.7.2c.3 0 .5 0 .8-.2c.2-.1.4-.3.5-.5c.1-.3.2-.6.2-1.1c-.05-.01 0-2.9 0-2.9l.9 0l0 5.4l-.9 0zm2-1.6c0 0 .9-.1.9-.1c0 .3.2.6.4.8c.2.2.6.3 1 .3c.4 0 .7-.1.9-.3c.2-.1.3-.3.3-.6c0-.2-.1-.4-.2-.5c-.2-.1-.5-.2-1-.3c-.7-.2-1.1-.3-1.4-.4c-.3-.2-.5-.3-.6-.5c-.1-.3-.2-.5-.2-.8c0-.2.1-.4.2-.7c.1-.2.2-.3.4-.5c.2-.1.4-.2.6-.2c.3-.1.5-.1.8-.1c.4 0 .8 0 1.1.1c.4.2.6.3.7.5c.2.2.3.5.4.9c0 0-.9.1-.9.1c-.1-.3-.2-.5-.4-.7c-.2-.1-.5-.2-.8-.2c-.4 0-.8.1-.9.2c-.2.2-.3.3-.3.5c0 .1 0 .2.1.3c.1.1.2.2.4.3c.1 0 .3.1.8.2c.6.2 1.1.3 1.3.4c.3.2.5.3.7.5c.1.2.2.5.2.8c0 .3-.1.6-.3.9c-.2.3-.4.5-.8.6c-.3.2-.7.2-1.1.2c-.7 0-1.3-.1-1.6-.4c-.4-.3-.6-.7-.7-1.3zm5.2 0c0 0 .9-.1.9-.1c.1.3.2.6.4.8c.3.2.6.3 1 .3c.4 0 .8-.1 1-.3c.2-.1.3-.3.3-.6c0-.2-.1-.4-.3-.5c-.1-.1-.4-.2-.9-.3c-.7-.2-1.2-.3-1.4-.4c-.3-.2-.5-.3-.6-.5c-.2-.3-.2-.5-.2-.8c0-.2 0-.4.1-.7c.1-.2.3-.3.5-.5c.1-.1.3-.2.6-.2c.2-.1.5-.1.8-.1c.4 0 .8 0 1.1.1c.3.2.5.3.7.5c.2.2.3.5.3.9c0 0-.9.1-.9.1c0-.3-.1-.5-.3-.7c-.2-.1-.5-.2-.9-.2c-.4 0-.7.1-.9.2c-.2.2-.3.3-.3.5c0 .1.1.2.2.3c0 .1.2.2.3.3c.1 0 .4.1.8.2c.7.2 1.1.3 1.4.4c.3.2.5.3.6.5c.1.2.2.5.2.8c0 .3-.1.6-.2.9c-.2.3-.5.5-.8.6c-.4.2-.7.2-1.2.2c-.7 0-1.2-.1-1.6-.4c-.4-.3-.6-.7-.7-1.3zm9.3-.1c0 0 1 .1 1 .1c-.2.5-.4 1-.8 1.3c-.4.3-1 .4-1.6.4c-.8 0-1.4-.2-1.9-.7c-.5-.5-.7-1.2-.7-2.1c0-.9.2-1.6.7-2.1c.5-.5 1.1-.7 1.9-.7c.7 0 1.3.2 1.7.7c.5.5.7 1.2.7 2.1c0 0 0 .1 0 .2c0 0-4 0-4 0c0 .6.2 1.1.5 1.4c.3.3.7.5 1.1.5c.3 0 .6-.1.9-.3c.2-.2.4-.4.5-.8zm-3-1.5c0 0 3.1 0 3.1 0c-.1-.5-.2-.8-.4-1.1c-.3-.3-.7-.5-1.1-.5c-.5 0-.8.2-1.1.4c-.3.3-.5.7-.5 1.2zm5.1 3.2l0-7.5l1 0l0 7.5l-1 0zm2-1.6c0 0 .9-.1.9-.1c.1.3.2.6.5.8c.2.2.5.3.9.3c.5 0 .8-.1 1-.3c.2-.1.3-.3.3-.6c0-.2-.1-.4-.3-.5c-.1-.1-.4-.2-.9-.3c-.7-.2-1.2-.3-1.4-.4c-.3-.2-.5-.3-.6-.5c-.2-.3-.2-.5-.2-.8c0-.2 0-.4.1-.7c.2-.2.3-.3.5-.5c.1-.1.3-.2.6-.2c.2-.1.5-.1.8-.1c.4 0 .8 0 1.1.1c.3.2.6.3.7.5c.2.2.3.5.3.9c0 0-.9.1-.9.1c0-.3-.1-.5-.3-.7c-.2-.1-.5-.2-.9-.2c-.4 0-.7.1-.9.2c-.1.2-.2.3-.2.5c0 .1 0 .2.1.3c.1.1.2.2.3.3c.1 0 .4.1.9.2c.6.2 1.1.3 1.3.4c.3.2.5.3.6.5c.2.2.2.5.2.8c0 .3 0 .6-.2.9c-.2.3-.5.5-.8.6c-.3.2-.7.2-1.1.2c-.8 0-1.3-.1-1.7-.4c-.3-.3-.6-.7-.7-1.3z" stroke="none" fill="#ffffff"/><path d="m148.4 10.9l0-10.7l7.7 0l0 1.3l-6.3 0l0 3.2l5.9 0l0 1.3l-5.9 0l0 3.7l6.6 0l0 1.2l-8 0zm14.9 0c0 0-.02-1.12 0-1.1c-.6.9-1.4 1.3-2.5 1.3c-.4 0-.9-.1-1.3-.3c-.4-.1-.7-.4-.9-.6c-.2-.3-.3-.6-.4-1c0-.3 0-.7 0-1.2c-.05-.04 0-4.9 0-4.9l1.3 0c0 0-.03 4.36 0 4.4c0 .6 0 1.1.1 1.3c0 .4.2.7.5.9c.2.2.6.3 1 .3c.4 0 .7-.1 1.1-.3c.3-.2.6-.5.7-.9c.2-.3.2-.8.2-1.5c.04.01 0-4.2 0-4.2l1.4 0l0 7.8l-1.2 0zm3.2 0l0-7.8l1.2 0c0 0 0 1.22 0 1.2c.3-.5.6-.9.8-1.1c.3-.1.6-.2.9-.2c.4 0 .9.1 1.3.4c0 0-.4 1.2-.4 1.2c-.3-.2-.7-.3-1-.3c-.3 0-.5.1-.8.3c-.2.2-.4.4-.5.7c-.1.5-.2 1-.2 1.5c.03.05 0 4.1 0 4.1l-1.3 0zm4.5-3.9c0-1.4.4-2.5 1.2-3.2c.7-.5 1.5-.8 2.5-.8c1 0 1.9.3 2.6 1c.7.7 1 1.7 1 2.9c0 1-.1 1.8-.4 2.4c-.3.6-.8 1-1.3 1.3c-.6.3-1.2.5-1.9.5c-1.1 0-2-.4-2.7-1.1c-.6-.6-1-1.7-1-3zm1.4 0c0 1 .2 1.8.6 2.3c.5.5 1 .7 1.7.7c.6 0 1.2-.2 1.6-.7c.4-.5.7-1.3.7-2.3c0-1-.3-1.7-.7-2.2c-.4-.5-1-.7-1.6-.7c-.7 0-1.2.2-1.7.7c-.4.5-.6 1.2-.6 2.2zm7.5 6.9l0-10.8l1.2 0c0 0-.04 1.05 0 1.1c.2-.4.6-.7.9-.9c.4-.2.8-.3 1.3-.3c.7 0 1.3.1 1.8.5c.5.3.9.8 1.1 1.4c.3.6.4 1.3.4 2.1c0 .8-.1 1.5-.4 2.1c-.3.7-.7 1.1-1.3 1.5c-.5.3-1.1.5-1.7.5c-.4 0-.8-.1-1.2-.3c-.3-.2-.6-.4-.8-.7c-.02.01 0 3.8 0 3.8l-1.3 0zm1.2-6.8c0 1 .2 1.7.6 2.2c.4.5.9.7 1.4.7c.6 0 1.1-.2 1.5-.7c.5-.5.7-1.3.7-2.3c0-1-.2-1.8-.6-2.3c-.5-.5-.9-.7-1.5-.7c-.6 0-1.1.3-1.5.8c-.4.5-.6 1.3-.6 2.3zm12.4 1.3c0 0 1.4.2 1.4.2c-.2.8-.6 1.4-1.2 1.8c-.6.5-1.3.7-2.2.7c-1.2 0-2.1-.4-2.7-1.1c-.7-.7-1-1.6-1-2.9c0-1.3.3-2.3 1-3c.6-.8 1.5-1.1 2.6-1.1c1 0 1.9.3 2.5 1c.7.7 1 1.7 1 3c0 .1 0 .2 0 .4c0 0-5.8 0-5.8 0c.1.8.3 1.5.8 1.9c.4.5.9.7 1.6.7c.5 0 .9-.1 1.2-.4c.4-.2.6-.6.8-1.2zm-4.3-2.1c0 0 4.3 0 4.3 0c0-.7-.2-1.2-.5-1.5c-.4-.5-.9-.7-1.6-.7c-.6 0-1.1.2-1.5.6c-.4.4-.7.9-.7 1.6z" stroke="none" fill="#ffffff"/></g><g id="Group70465"><path d="m2.7 94l0-6.6l-2.5 0l0-.9l6 0l0 .9l-2.5 0l0 6.6l-1 0zm2.9-2.7c0-1 .3-1.8.8-2.2c.5-.4 1.1-.6 1.8-.6c.7 0 1.3.2 1.8.7c.5.5.7 1.2.7 2c0 .7-.1 1.3-.3 1.7c-.2.4-.5.7-.9.9c-.4.2-.9.3-1.3.3c-.8 0-1.4-.2-1.9-.7c-.5-.5-.7-1.2-.7-2.1zm.9 0c0 .7.2 1.2.5 1.6c.3.3.7.5 1.2.5c.4 0 .8-.2 1.1-.5c.3-.4.5-.9.5-1.6c0-.7-.2-1.2-.5-1.6c-.3-.3-.7-.5-1.1-.5c-.5 0-.9.2-1.2.5c-.3.4-.5.9-.5 1.6zm5.3 2.7l0-7.5l.9 0l0 4.3l2.2-2.2l1.2 0l-2.1 2l2.3 3.4l-1.1 0l-1.8-2.8l-.7.7l0 2.1l-.9 0zm5.8 2.2c-.2 0-.4 0-.6-.1c0 0-.1-.8-.1-.8c.2 0 .4 0 .5 0c.2 0 .4 0 .5-.1c.1 0 .2-.1.3-.3c.1 0 .2-.3.3-.6c0-.1 0-.2.1-.3c-.03.03-2.1-5.4-2.1-5.4l1 0c0 0 1.14 3.13 1.1 3.1c.2.4.3.8.4 1.3c.1-.4.3-.8.4-1.3c.01.05 1.2-3.1 1.2-3.1l.9 0c0 0-2.07 5.51-2.1 5.5c-.2.6-.4 1-.5 1.2c-.2.4-.3.6-.6.7c-.2.2-.4.2-.7.2c0 0 0 0 0 0zm4.3-4.9c0-1 .3-1.8.9-2.2c.4-.4 1-.6 1.7-.6c.7 0 1.4.2 1.8.7c.5.5.7 1.2.7 2c0 .7-.1 1.3-.3 1.7c-.2.4-.5.7-.9.9c-.4.2-.8.3-1.3.3c-.8 0-1.4-.2-1.9-.7c-.4-.5-.7-1.2-.7-2.1zm1 0c0 .7.1 1.2.4 1.6c.3.3.7.5 1.2.5c.4 0 .8-.2 1.1-.5c.3-.4.5-.9.5-1.6c0-.7-.2-1.2-.5-1.6c-.3-.3-.7-.5-1.1-.5c-.5 0-.9.2-1.2.5c-.3.4-.4.9-.4 1.6z" stroke="none" fill="#ffffff"/><path d="m.5 79c0 0 .9-.1.9-.1c.1.4.2.7.3.9c.2.3.4.5.8.6c.3.2.7.3 1.1.3c.4 0 .7-.1 1-.2c.3-.1.5-.3.7-.5c.1-.2.2-.4.2-.6c0-.3-.1-.5-.2-.6c-.1-.2-.4-.4-.7-.5c-.2-.1-.6-.2-1.3-.3c-.7-.2-1.2-.4-1.5-.5c-.3-.2-.6-.4-.8-.7c-.2-.3-.2-.6-.2-1c0-.3.1-.7.3-1c.2-.3.5-.6.9-.8c.4-.1.9-.2 1.4-.2c.6 0 1.1.1 1.5.2c.4.2.7.5 1 .8c.2.4.3.8.3 1.2c0 0-.9.1-.9.1c-.1-.5-.2-.8-.5-1.1c-.3-.2-.8-.3-1.4-.3c-.6 0-1 .1-1.3.3c-.2.2-.4.5-.4.8c0 .3.1.5.3.6c.2.2.7.4 1.5.6c.8.2 1.4.3 1.7.5c.4.2.7.4.9.7c.3.3.4.7.4 1.1c0 .4-.2.8-.4 1.1c-.2.4-.5.7-1 .9c-.4.2-.9.2-1.4.2c-.7 0-1.3-.1-1.7-.2c-.5-.2-.9-.5-1.1-.9c-.3-.4-.4-.9-.4-1.4zm7.2-4l0-1.1l.9 0l0 1.1l-.9 0zm0 6.4l0-5.4l.9 0l0 5.4l-.9 0zm2.3 0l0-5.4l.9 0c0 0-.04.75 0 .7c.4-.5.9-.8 1.7-.8c.3 0 .6 0 .9.1c.3.1.5.3.6.5c.2.2.2.4.3.7c0 .1.1.4.1.9c-.05-.03 0 3.3 0 3.3l-1 0c0 0 .03-3.29 0-3.3c0-.4 0-.6-.1-.8c0-.2-.2-.4-.4-.5c-.1-.1-.4-.1-.6-.1c-.4 0-.7.1-1 .3c-.3.3-.4.7-.4 1.4c-.05.05 0 3 0 3l-1 0zm5.7.5c0 0 .9.1.9.1c0 .3.1.5.3.6c.2.2.6.3.9.3c.5 0 .8-.1 1-.3c.3-.2.4-.4.5-.7c.1-.2.1-.6.1-1.2c-.4.5-.9.7-1.5.7c-.8 0-1.4-.2-1.8-.8c-.4-.5-.6-1.2-.6-1.9c0-.6.1-1 .3-1.5c.2-.4.5-.7.8-1c.4-.2.8-.3 1.3-.3c.6 0 1.1.2 1.6.7c-.04.03 0-.6 0-.6l.8 0c0 0 .01 4.68 0 4.7c0 .8-.1 1.4-.2 1.8c-.2.3-.5.6-.9.8c-.3.2-.8.3-1.3.3c-.7 0-1.2-.1-1.6-.4c-.4-.3-.6-.7-.6-1.3zm.8-3.3c0 .7.1 1.2.4 1.6c.3.3.6.5 1.1.5c.4 0 .7-.2 1-.5c.3-.4.5-.9.5-1.6c0-.6-.2-1.1-.5-1.5c-.3-.3-.6-.5-1.1-.5c-.4 0-.7.2-1 .5c-.3.3-.4.8-.4 1.5zm8.9 2.8c-.1-.2-.1-.4-.1-.7c-.4.3-.7.5-1 .7c-.3.1-.7.1-1 .1c-.6 0-1.1-.1-1.4-.4c-.3-.3-.5-.7-.5-1.1c0-.3.1-.5.2-.7c.1-.3.3-.4.5-.6c.2-.1.4-.2.6-.3c.2 0 .5-.1.8-.1c.8-.1 1.3-.2 1.7-.3c0-.2 0-.2 0-.3c0-.4-.1-.6-.3-.8c-.2-.2-.6-.3-1-.3c-.5 0-.8.1-1 .2c-.2.2-.3.5-.4.9c0 0-.9-.2-.9-.2c0-.4.2-.7.4-.9c.1-.2.4-.4.8-.6c.3-.1.7-.1 1.2-.1c.5 0 .9 0 1.1.1c.3.1.5.3.7.4c.1.2.2.4.3.7c0 .1 0 .4 0 .8c0 0 0 1.2 0 1.2c0 .9 0 1.4.1 1.7c0 .2.1.4.2.6c.01.02-1 0-1 0c0 0 .05.02 0 0zm-.2-2.7c-.4.1-.9.2-1.5.3c-.4.1-.7.2-.8.2c-.2.1-.3.2-.4.3c-.1.2-.1.3-.1.5c0 .2.1.4.3.6c.1.1.4.2.8.2c.3 0 .6-.1.9-.2c.3-.2.5-.4.6-.7c.1-.2.2-.5.2-.9c0 0 0-.3 0-.3zm2.3 4.8l0-7.5l.9 0c0 0-.01.68 0 .7c.2-.3.4-.5.7-.6c.2-.2.5-.2.9-.2c.4 0 .8.1 1.2.3c.4.3.6.6.8 1c.2.5.3.9.3 1.5c0 .5-.1 1-.3 1.5c-.2.4-.5.7-.9 1c-.4.2-.8.3-1.2.3c-.3 0-.6 0-.8-.2c-.3-.1-.5-.2-.6-.4c-.03-.04 0 2.6 0 2.6l-1 0zm.9-4.8c0 .7.1 1.2.4 1.6c.3.3.6.5 1 .5c.4 0 .8-.2 1.1-.5c.3-.4.4-.9.4-1.6c0-.7-.1-1.3-.4-1.6c-.3-.4-.6-.5-1-.5c-.4 0-.8.2-1.1.5c-.3.4-.4.9-.4 1.6zm4.6 0c0-1 .3-1.8.9-2.2c.5-.4 1-.6 1.7-.6c.7 0 1.4.2 1.8.7c.5.5.7 1.2.7 2c0 .7-.1 1.3-.3 1.7c-.2.4-.5.7-.9.9c-.4.2-.8.3-1.3.3c-.8 0-1.4-.2-1.9-.7c-.4-.5-.7-1.2-.7-2.1zm1 0c0 .7.1 1.2.4 1.6c.4.3.7.5 1.2.5c.5 0 .8-.2 1.1-.5c.3-.4.5-.9.5-1.6c0-.7-.2-1.2-.5-1.6c-.3-.3-.6-.5-1.1-.5c-.5 0-.8.2-1.2.5c-.3.4-.4.9-.4 1.6zm5.2 2.7l0-5.4l.8 0c0 0 .05.8 0 .8c.3-.4.5-.6.6-.8c.2-.1.4-.1.6-.1c.3 0 .7.1 1 .2c0 0-.3.9-.3.9c-.3-.1-.5-.2-.7-.2c-.2 0-.4.1-.6.2c-.1.1-.2.3-.3.5c-.1.3-.2.7-.2 1.1c.04-.03 0 2.8 0 2.8l-.9 0zm7.3-1.7c0 0 .9.1.9.1c-.1.5-.4 1-.8 1.3c-.4.3-1 .4-1.6.4c-.8 0-1.4-.2-1.9-.7c-.5-.5-.7-1.2-.7-2.1c0-.9.3-1.6.7-2.1c.5-.5 1.1-.7 1.9-.7c.7 0 1.3.2 1.7.7c.5.5.7 1.2.7 2.1c0 0 0 .1 0 .2c0 0-4 0-4 0c0 .6.2 1.1.5 1.4c.3.3.7.5 1.1.5c.4 0 .6-.1.9-.3c.2-.2.4-.4.6-.8zm-3.1-1.5c0 0 3.1 0 3.1 0c-.1-.5-.2-.8-.4-1.1c-.3-.3-.7-.5-1.1-.5c-.5 0-.8.2-1.1.4c-.3.3-.4.7-.5 1.2z" stroke="none" fill="#ffffff"/><path d="m.5 66.4c0 0 .9-.1.9-.1c.1.4.2.7.3.9c.2.3.4.5.8.6c.3.2.7.3 1.1.3c.4 0 .7-.1 1-.2c.3-.1.5-.3.7-.5c.1-.2.2-.4.2-.6c0-.3-.1-.5-.2-.6c-.1-.2-.4-.4-.7-.5c-.2-.1-.6-.2-1.3-.3c-.7-.2-1.2-.4-1.5-.5c-.3-.2-.6-.4-.8-.7c-.2-.3-.2-.6-.2-1c0-.3.1-.7.3-1c.2-.3.5-.6.9-.8c.4-.1.9-.2 1.4-.2c.6 0 1.1.1 1.5.2c.4.2.7.5 1 .8c.2.4.3.8.3 1.2c0 0-.9.1-.9.1c-.1-.5-.2-.8-.5-1.1c-.3-.2-.8-.3-1.4-.3c-.6 0-1 .1-1.3.3c-.2.2-.4.5-.4.8c0 .3.1.5.3.6c.2.2.7.4 1.5.6c.8.2 1.4.3 1.7.5c.4.2.7.4.9.7c.3.3.4.7.4 1.1c0 .4-.2.8-.4 1.1c-.2.4-.5.7-1 .9c-.4.2-.9.2-1.4.2c-.7 0-1.3-.1-1.7-.2c-.5-.2-.9-.5-1.1-.9c-.3-.4-.4-.9-.4-1.4zm7.2 2.4l0-7.5l.9 0c0 0 .02 2.7 0 2.7c.4-.5 1-.7 1.6-.7c.5 0 .8 0 1.1.2c.3.1.5.4.6.6c.2.3.2.7.2 1.3c.03-.03 0 3.4 0 3.4l-.9 0c0 0 .01-3.43 0-3.4c0-.5-.1-.8-.3-1c-.2-.2-.5-.4-.8-.4c-.3 0-.6.1-.8.3c-.3.1-.4.3-.5.5c-.1.3-.2.6-.2 1c.02.04 0 3 0 3l-.9 0zm9.6 0c-.1-.2-.2-.4-.2-.7c-.4.3-.7.5-1 .7c-.3.1-.7.1-1 .1c-.6 0-1.1-.1-1.4-.4c-.3-.3-.5-.7-.5-1.1c0-.3.1-.5.2-.7c.1-.3.3-.4.5-.6c.2-.1.4-.2.6-.3c.2 0 .5-.1.9-.1c.7-.1 1.3-.2 1.6-.3c0-.2 0-.2 0-.3c0-.4-.1-.6-.2-.8c-.3-.2-.6-.3-1.1-.3c-.4 0-.8.1-1 .2c-.2.2-.3.5-.4.9c0 0-.9-.2-.9-.2c.1-.4.2-.7.4-.9c.2-.2.4-.4.8-.6c.4-.1.8-.1 1.2-.1c.5 0 .9 0 1.2.1c.3.1.5.3.6.4c.1.2.2.4.3.7c0 .1 0 .4 0 .8c0 0 0 1.2 0 1.2c0 .9.1 1.4.1 1.7c0 .2.1.4.2.6c.04.02-.9 0-.9 0c0 0-.03.02 0 0zm-.3-2.7c-.3.1-.8.2-1.5.3c-.4.1-.6.2-.8.2c-.2.1-.3.2-.4.3c-.1.2-.1.3-.1.5c0 .2.1.4.3.6c.2.1.4.2.8.2c.4 0 .7-.1 1-.2c.2-.2.4-.4.6-.7c.1-.2.1-.5.1-.9c0 0 0-.3 0-.3zm2.4 2.7l0-5.4l.8 0c0 0 .01.75 0 .7c.4-.5 1-.8 1.7-.8c.4 0 .7 0 .9.1c.3.1.5.3.7.5c.1.2.2.4.2.7c.1.1.1.4.1.9c0-.03 0 3.3 0 3.3l-.9 0c0 0-.02-3.29 0-3.3c0-.4-.1-.6-.1-.8c-.1-.2-.2-.4-.4-.5c-.2-.1-.4-.1-.7-.1c-.3 0-.7.1-1 .3c-.3.3-.4.7-.4 1.4c0 .05 0 3 0 3l-.9 0zm5.6.5c0 0 .9.1.9.1c.1.3.2.5.4.6c.2.2.5.3.9.3c.4 0 .8-.1 1-.3c.2-.2.4-.4.5-.7c0-.2 0-.6 0-1.2c-.4.5-.9.7-1.5.7c-.7 0-1.3-.2-1.7-.8c-.4-.5-.6-1.2-.6-1.9c0-.6.1-1 .2-1.5c.2-.4.5-.7.9-1c.3-.2.7-.3 1.2-.3c.7 0 1.2.2 1.6.7c.01.03 0-.6 0-.6l.9 0c0 0-.04 4.68 0 4.7c0 .8-.1 1.4-.3 1.8c-.2.3-.4.6-.8.8c-.4.2-.9.3-1.4.3c-.7 0-1.2-.1-1.6-.4c-.4-.3-.6-.7-.6-1.3zm.8-3.3c0 .7.2 1.2.4 1.6c.3.3.7.5 1.1.5c.4 0 .8-.2 1.1-.5c.3-.4.4-.9.4-1.6c0-.6-.1-1.1-.4-1.5c-.3-.3-.7-.5-1.1-.5c-.4 0-.8.2-1.1.5c-.2.3-.4.8-.4 1.5zm5.3 2.8l0-7.5l.9 0c0 0-.02 2.7 0 2.7c.4-.5 1-.7 1.6-.7c.4 0 .8 0 1.1.2c.3.1.5.4.6.6c.1.3.2.7.2 1.3c-.01-.03 0 3.4 0 3.4l-.9 0c0 0-.03-3.43 0-3.4c0-.5-.1-.8-.3-1c-.2-.2-.5-.4-.9-.4c-.3 0-.5.1-.8.3c-.2.1-.4.3-.5.5c-.1.3-.1.6-.1 1c-.02.04 0 3 0 3l-.9 0zm9.5 0c-.1-.2-.1-.4-.2-.7c-.3.3-.6.5-.9.7c-.4.1-.7.1-1.1.1c-.6 0-1-.1-1.3-.4c-.4-.3-.5-.7-.5-1.1c0-.3 0-.5.2-.7c.1-.3.2-.4.4-.6c.2-.1.5-.2.7-.3c.2 0 .5-.1.8-.1c.8-.1 1.3-.2 1.7-.3c0-.2 0-.2 0-.3c0-.4-.1-.6-.3-.8c-.2-.2-.6-.3-1-.3c-.5 0-.8.1-1 .2c-.2.2-.4.5-.5.9c0 0-.9-.2-.9-.2c.1-.4.3-.7.4-.9c.2-.2.5-.4.9-.6c.3-.1.7-.1 1.2-.1c.5 0 .8 0 1.1.1c.3.1.5.3.7.4c.1.2.2.4.3.7c0 .1 0 .4 0 .8c0 0 0 1.2 0 1.2c0 .9 0 1.4.1 1.7c0 .2.1.4.2.6c-.01.02-1 0-1 0c0 0 .03.02 0 0zm-.2-2.7c-.4.1-.9.2-1.5.3c-.4.1-.7.2-.8.2c-.2.1-.3.2-.4.3c-.1.2-.1.3-.1.5c0 .2.1.4.2.6c.2.1.5.2.9.2c.3 0 .6-.1.9-.2c.3-.2.5-.4.6-.7c.1-.2.2-.5.2-.9c0 0 0-.3 0-.3zm2.3-3.7l0-1.1l1 0l0 1.1l-1 0zm0 6.4l0-5.4l1 0l0 5.4l-1 0z" stroke="none" fill="#ffffff"/><path d="m.5 53.8c0 0 .9-.1.9-.1c.1.4.2.7.3.9c.2.3.4.5.8.6c.3.2.7.3 1.1.3c.4 0 .7-.1 1-.2c.3-.1.5-.3.7-.5c.1-.2.2-.4.2-.6c0-.3-.1-.5-.2-.6c-.1-.2-.4-.4-.7-.5c-.2-.1-.6-.2-1.3-.3c-.7-.2-1.2-.4-1.5-.5c-.3-.2-.6-.4-.8-.7c-.2-.3-.2-.6-.2-1c0-.3.1-.7.3-1c.2-.3.5-.6.9-.8c.4-.1.9-.2 1.4-.2c.6 0 1.1.1 1.5.2c.4.2.7.5 1 .8c.2.4.3.8.3 1.2c0 0-.9.1-.9.1c-.1-.5-.2-.8-.5-1.1c-.3-.2-.8-.3-1.4-.3c-.6 0-1 .1-1.3.3c-.2.2-.4.5-.4.8c0 .3.1.5.3.6c.2.2.7.4 1.5.6c.8.2 1.4.3 1.7.5c.4.2.7.4.9.7c.3.3.4.7.4 1.1c0 .4-.2.8-.4 1.1c-.2.4-.5.7-1 .9c-.4.2-.9.2-1.4.2c-.7 0-1.3-.1-1.7-.2c-.5-.2-.9-.5-1.1-.9c-.3-.4-.4-.9-.4-1.4zm10.9.7c0 0 1 .1 1 .1c-.2.5-.5 1-.9 1.3c-.4.3-.9.4-1.5.4c-.8 0-1.4-.2-1.9-.7c-.5-.5-.7-1.2-.7-2.1c0-.9.2-1.6.7-2.1c.5-.5 1.1-.7 1.8-.7c.8 0 1.4.2 1.8.7c.5.5.7 1.2.7 2.1c0 0 0 .1 0 .2c0 0-4.1 0-4.1 0c.1.6.2 1.1.5 1.4c.4.3.7.5 1.2.5c.3 0 .6-.1.9-.3c.2-.2.4-.4.5-.8zm-3-1.5c0 0 3 0 3 0c0-.5-.1-.8-.3-1.1c-.3-.3-.7-.5-1.2-.5c-.4 0-.7.2-1 .4c-.3.3-.5.7-.5 1.2zm4.8.5c0-1 .3-1.8.8-2.2c.5-.4 1.1-.6 1.7-.6c.8 0 1.4.2 1.9.7c.5.5.7 1.2.7 2c0 .7-.1 1.3-.3 1.7c-.2.4-.5.7-.9.9c-.4.2-.9.3-1.4.3c-.7 0-1.3-.2-1.8-.7c-.5-.5-.7-1.2-.7-2.1zm.9 0c0 .7.2 1.2.5 1.6c.3.3.7.5 1.1.5c.5 0 .9-.2 1.2-.5c.3-.4.4-.9.4-1.6c0-.7-.1-1.2-.4-1.6c-.3-.3-.7-.5-1.2-.5c-.4 0-.8.2-1.1.5c-.3.4-.5.9-.5 1.6zm8.8 2.7c0 0 .04-.78 0-.8c-.4.6-1 .9-1.7.9c-.3 0-.6 0-.9-.1c-.3-.2-.5-.3-.6-.5c-.1-.2-.2-.4-.3-.7c0-.2 0-.5 0-.9c-.05.05 0-3.3 0-3.3l.9 0c0 0-.02 3 0 3c0 .5 0 .8 0 1c.1.2.2.4.4.5c.2.2.4.2.7.2c.3 0 .5 0 .8-.2c.2-.1.4-.3.5-.5c.1-.3.1-.6.1-1.1c.05-.01 0-2.9 0-2.9l1 0l0 5.4l-.9 0zm2.3 0l0-7.5l.9 0l0 7.5l-.9 0z" stroke="none" fill="#ffffff"/><path d="m.8 43.6l0-7.5l1 0l0 3.1l3.9 0l0-3.1l1 0l0 7.5l-1 0l0-3.5l-3.9 0l0 3.5l-1 0zm7.1-2.7c0-1 .3-1.8.9-2.2c.4-.4 1-.6 1.7-.6c.7 0 1.3.2 1.8.7c.5.5.7 1.2.7 2c0 .7-.1 1.3-.3 1.7c-.2.4-.5.7-.9.9c-.4.2-.8.3-1.3.3c-.8 0-1.4-.2-1.9-.7c-.4-.5-.7-1.2-.7-2.1zm1 0c0 .7.1 1.2.4 1.6c.3.3.7.5 1.2.5c.4 0 .8-.2 1.1-.5c.3-.4.5-.9.5-1.6c0-.7-.2-1.2-.5-1.6c-.3-.3-.7-.5-1.1-.5c-.5 0-.9.2-1.2.5c-.3.4-.4.9-.4 1.6zm5.2 2.7l0-5.4l.8 0c0 0 .05.75 0 .7c.4-.5 1-.8 1.8-.8c.3 0 .6 0 .9.1c.3.1.5.3.6.5c.1.2.2.4.3.7c0 .1 0 .4 0 .9c.04-.03 0 3.3 0 3.3l-.9 0c0 0 .02-3.29 0-3.3c0-.4 0-.6-.1-.8c-.1-.2-.2-.4-.4-.5c-.2-.1-.4-.1-.6-.1c-.4 0-.7.1-1 .3c-.3.3-.5.7-.5 1.4c.04.05 0 3 0 3l-.9 0zm5.7.5c0 0 .9.1.9.1c0 .3.1.5.3.6c.2.2.5.3.9.3c.5 0 .8-.1 1-.3c.3-.2.4-.4.5-.7c0-.2.1-.6.1-1.2c-.4.5-.9.7-1.5.7c-.8 0-1.4-.2-1.8-.8c-.4-.5-.6-1.2-.6-1.9c0-.6.1-1 .3-1.5c.2-.4.4-.7.8-1c.4-.2.8-.3 1.3-.3c.6 0 1.1.2 1.5.7c.05.03 0-.6 0-.6l.9 0c0 0 0 4.68 0 4.7c0 .8-.1 1.4-.3 1.8c-.1.3-.4.6-.8.8c-.4.2-.8.3-1.4.3c-.6 0-1.1-.1-1.5-.4c-.4-.3-.6-.7-.6-1.3zm.7-3.3c0 .7.2 1.2.5 1.6c.3.3.6.5 1 .5c.5 0 .8-.2 1.1-.5c.3-.4.4-.9.4-1.6c0-.6-.1-1.1-.4-1.5c-.3-.3-.7-.5-1.1-.5c-.4 0-.7.2-1 .5c-.3.3-.5.8-.5 1.5zm8.3 2.8l0-7.5l1 0l0 3.7l3.7-3.7l1.4 0l-3.2 3l3.3 4.5l-1.3 0l-2.7-3.8l-1.2 1.2l0 2.6l-1 0zm6.6-2.7c0-1 .3-1.8.8-2.2c.5-.4 1.1-.6 1.7-.6c.8 0 1.4.2 1.9.7c.4.5.7 1.2.7 2c0 .7-.1 1.3-.3 1.7c-.3.4-.6.7-1 .9c-.4.2-.8.3-1.3.3c-.7 0-1.4-.2-1.8-.7c-.5-.5-.7-1.2-.7-2.1zm.9 0c0 .7.2 1.2.5 1.6c.3.3.7.5 1.1.5c.5 0 .9-.2 1.2-.5c.3-.4.4-.9.4-1.6c0-.7-.1-1.2-.4-1.6c-.3-.3-.7-.5-1.2-.5c-.4 0-.8.2-1.1.5c-.3.4-.5.9-.5 1.6zm5.3 2.7l0-5.4l.8 0c0 0-.02.75 0 .7c.4-.5 1-.8 1.7-.8c.3 0 .6 0 .9.1c.3.1.5.3.6.5c.2.2.3.4.3.7c.1.1.1.4.1.9c-.02-.03 0 3.3 0 3.3l-.9 0c0 0-.04-3.29 0-3.3c0-.4-.1-.6-.2-.8c0-.2-.2-.4-.3-.5c-.2-.1-.4-.1-.7-.1c-.4 0-.7.1-1 .3c-.3.3-.4.7-.4 1.4c-.02.05 0 3 0 3l-.9 0zm5.6.5c0 0 .9.1.9.1c.1.3.2.5.3.6c.3.2.6.3 1 .3c.4 0 .7-.1 1-.3c.2-.2.4-.4.4-.7c.1-.2.1-.6.1-1.2c-.4.5-.9.7-1.5.7c-.8 0-1.3-.2-1.7-.8c-.5-.5-.7-1.2-.7-1.9c0-.6.1-1 .3-1.5c.2-.4.5-.7.8-1c.4-.2.8-.3 1.3-.3c.6 0 1.2.2 1.6.7c-.01.03 0-.6 0-.6l.8 0c0 0 .04 4.68 0 4.7c0 .8 0 1.4-.2 1.8c-.2.3-.5.6-.8.8c-.4.2-.9.3-1.4.3c-.7 0-1.2-.1-1.6-.4c-.4-.3-.6-.7-.6-1.3zm.8-3.3c0 .7.1 1.2.4 1.6c.3.3.7.5 1.1.5c.4 0 .8-.2 1-.5c.3-.4.5-.9.5-1.6c0-.6-.2-1.1-.5-1.5c-.3-.3-.6-.5-1-.5c-.4 0-.8.2-1.1.5c-.3.3-.4.8-.4 1.5z" stroke="none" fill="#ffffff"/><path d="m.8 31l0-7.5c0 0 2.79 0 2.8 0c.6 0 1 .1 1.4.2c.3.2.6.4.8.7c.2.4.3.7.3 1c0 .3-.1.7-.3.9c-.2.3-.4.5-.8.7c.5.2.8.4 1.1.7c.2.3.3.7.3 1.1c0 .4 0 .7-.2 1c-.1.3-.3.6-.5.7c-.2.2-.5.3-.9.4c-.3.1-.7.1-1.2.1c.04.02-2.8 0-2.8 0zm1-4.3c0 0 1.59-.04 1.6 0c.4 0 .7-.1.9-.1c.3-.1.5-.2.6-.4c.1-.2.2-.4.2-.7c0-.2-.1-.4-.2-.6c-.1-.2-.3-.3-.5-.4c-.2-.1-.6-.1-1.1-.1c-.03-.01-1.5 0-1.5 0l0 2.3zm0 3.4c0 0 1.84.03 1.8 0c.4 0 .6 0 .7 0c.2 0 .4-.1.6-.2c.1-.1.3-.2.4-.4c.1-.2.1-.4.1-.7c0-.2-.1-.5-.2-.7c-.1-.2-.3-.3-.6-.4c-.3-.1-.6-.2-1.1-.2c0 .05-1.7 0-1.7 0l0 2.6zm9.6-.8c0 0 1 .1 1 .1c-.2.5-.5 1-.9 1.3c-.4.3-.9.4-1.5.4c-.8 0-1.4-.2-1.9-.7c-.5-.5-.7-1.2-.7-2.1c0-.9.2-1.6.7-2.1c.5-.5 1.1-.7 1.8-.7c.8 0 1.4.2 1.8.7c.5.5.7 1.2.7 2.1c0 0 0 .1 0 .2c0 0-4.1 0-4.1 0c.1.6.2 1.1.5 1.4c.4.3.7.5 1.2.5c.3 0 .6-.1.9-.3c.2-.2.4-.4.5-.8zm-3-1.5c0 0 3 0 3 0c0-.5-.1-.8-.3-1.1c-.3-.3-.7-.5-1.2-.5c-.4 0-.7.2-1 .4c-.3.3-.5.7-.5 1.2zm5.1-3.2l0-1.1l1 0l0 1.1l-1 0zm0 6.4l0-5.4l1 0l0 5.4l-1 0zm2.4-6.4l0-1.1l.9 0l0 1.1l-.9 0zm-.5 8.6c-.2 0-.5 0-.7-.1c0 0 .2-.8.2-.8c.2.1.3.1.4.1c.2 0 .3 0 .4-.2c.1-.1.2-.4.2-.9c-.04 0 0-5.7 0-5.7l.9 0c0 0-.01 5.72 0 5.7c0 .7-.1 1.2-.3 1.4c-.2.4-.6.5-1.1.5c0 0 0 0 0 0zm2.8-8.6l0-1.1l.9 0l0 1.1l-.9 0zm0 6.4l0-5.4l.9 0l0 5.4l-.9 0zm2.3 0l0-5.4l.9 0c0 0-.04.75 0 .7c.4-.5.9-.8 1.7-.8c.3 0 .6 0 .9.1c.3.1.5.3.6.5c.2.2.3.4.3.7c0 .1.1.4.1.9c-.04-.03 0 3.3 0 3.3l-1 0c0 0 .04-3.29 0-3.3c0-.4 0-.6-.1-.8c0-.2-.2-.4-.4-.5c-.1-.1-.4-.1-.6-.1c-.4 0-.7.1-1 .3c-.3.3-.4.7-.4 1.4c-.04.05 0 3 0 3l-1 0zm5.7.5c0 0 .9.1.9.1c0 .3.1.5.3.6c.2.2.6.3 1 .3c.4 0 .7-.1.9-.3c.3-.2.4-.4.5-.7c.1-.2.1-.6.1-1.2c-.4.5-.9.7-1.5.7c-.8 0-1.4-.2-1.8-.8c-.4-.5-.6-1.2-.6-1.9c0-.6.1-1 .3-1.5c.2-.4.5-.7.8-1c.4-.2.8-.3 1.3-.3c.6 0 1.1.2 1.6.7c-.03.03 0-.6 0-.6l.8 0c0 0 .02 4.68 0 4.7c0 .8-.1 1.4-.2 1.8c-.2.3-.5.6-.9.8c-.3.2-.8.3-1.3.3c-.7 0-1.2-.1-1.6-.4c-.4-.3-.6-.7-.6-1.3zm.8-3.3c0 .7.1 1.2.4 1.6c.3.3.6.5 1.1.5c.4 0 .7-.2 1-.5c.3-.4.5-.9.5-1.6c0-.6-.2-1.1-.5-1.5c-.3-.3-.6-.5-1.1-.5c-.4 0-.7.2-1 .5c-.3.3-.4.8-.4 1.5z" stroke="none" fill="#ffffff"/><path d="m0 10.9l4.1-10.7l1.5 0l4.4 10.7l-1.6 0l-1.2-3.2l-4.5 0l-1.2 3.2l-1.5 0zm3.1-4.4l3.6 0c0 0-1.1-2.96-1.1-3c-.3-.9-.6-1.6-.8-2.2c-.1.7-.3 1.4-.5 2.1c-.04-.04-1.2 3.1-1.2 3.1zm7.4 2.1c0 0 1.3-.2 1.3-.2c0 .5.2.9.6 1.2c.3.3.8.4 1.4.4c.6 0 1-.1 1.3-.4c.3-.2.5-.5.5-.8c0-.3-.2-.6-.4-.7c-.2-.1-.6-.3-1.4-.5c-.9-.2-1.6-.4-2-.6c-.3-.2-.6-.4-.8-.7c-.2-.4-.3-.7-.3-1.1c0-.3.1-.7.2-1c.2-.3.4-.5.7-.7c.2-.1.5-.3.8-.4c.4-.1.7-.1 1.1-.1c.7 0 1.2.1 1.7.2c.4.2.8.4 1 .7c.2.3.4.7.4 1.2c0 0-1.3.2-1.3.2c0-.4-.2-.7-.5-.9c-.2-.2-.6-.3-1.2-.3c-.6 0-1 .1-1.3.3c-.2.2-.3.4-.3.7c0 .1 0 .3.1.4c.1.2.3.3.5.4c.2 0 .5.1 1.2.3c.9.3 1.6.5 1.9.6c.4.2.7.4.9.7c.2.3.3.7.3 1.1c0 .5-.1.9-.4 1.3c-.2.4-.6.7-1.1.9c-.5.2-1 .3-1.6.3c-1 0-1.8-.2-2.3-.6c-.5-.5-.9-1.1-1-1.9zm8-6.9l0-1.5l1.3 0l0 1.5l-1.3 0zm0 9.2l0-7.8l1.3 0l0 7.8l-1.3 0zm8.7 0c-.2-.3-.3-.6-.3-.9c-.5.4-1 .7-1.4.8c-.5.2-.9.3-1.5.3c-.8 0-1.5-.2-1.9-.6c-.5-.4-.7-1-.7-1.6c0-.4.1-.8.2-1.1c.2-.3.4-.5.7-.7c.3-.2.6-.4 1-.5c.2 0 .6-.1 1.1-.2c1.1-.1 1.9-.2 2.4-.4c0-.2 0-.3 0-.4c0-.5-.1-.9-.4-1.1c-.3-.3-.8-.4-1.5-.4c-.6 0-1.1.1-1.3.3c-.3.2-.6.6-.7 1.1c0 0-1.3-.1-1.3-.1c.1-.6.3-1 .6-1.4c.3-.3.6-.6 1.1-.8c.6-.1 1.1-.2 1.8-.2c.7 0 1.2 0 1.6.2c.4.2.8.4.9.6c.2.2.4.5.5.9c0 .2 0 .6 0 1.2c0 0 0 1.8 0 1.8c0 1.2.1 2 .1 2.3c.1.3.2.6.3.9c.04.02-1.3 0-1.3 0c0 0-.03.02 0 0zm-.4-3.9c-.5.2-1.2.4-2.2.5c-.5.1-.9.2-1.1.3c-.2.1-.4.2-.5.4c-.2.2-.2.4-.2.6c0 .4.1.7.4.9c.3.2.6.4 1.2.4c.5 0 .9-.1 1.3-.4c.4-.2.7-.5.9-.9c.1-.3.2-.7.2-1.3c0 0 0-.5 0-.5z" stroke="none" fill="#ffffff"/></g></svg>