<?xml version="1.0" standalone="no"?><!DOCTYPE svg PUBLIC "-//W3C//DTD SVG 1.1//EN" "http://www.w3.org/Graphics/SVG/1.1/DTD/svg11.dtd"><svg xmlns="http://www.w3.org/2000/svg" version="1.1" width="34.5px" height="30.4px" viewBox="0 -3 34.5 30.4" style="top:-3px"><desc>OF OFFICES</desc><defs/><g id="Polygon70339"><path d="m.3 10.9c0-.8.3-1.4.7-1.9c.4-.5 1-.7 1.7-.7c.5 0 .9.1 1.2.3c.4.2.7.5.9.9c.2.4.3.9.3 1.4c0 .5-.1.9-.3 1.3c-.2.4-.5.7-.9.9c-.4.2-.8.3-1.2.3c-.5 0-.9-.1-1.2-.3c-.4-.3-.7-.6-.9-.9c-.2-.4-.3-.8-.3-1.3zm.7 0c0 .6.2 1.1.5 1.4c.3.4.7.6 1.2.6c.5 0 .9-.2 1.2-.6c.3-.3.5-.8.5-1.4c0-.4-.1-.8-.2-1.1c-.1-.3-.3-.5-.6-.7c-.3-.2-.6-.2-.9-.2c-.5 0-.9.1-1.2.4c-.3.4-.5.9-.5 1.6zm4.9 2.4l0-4.9l3.4 0l0 .6l-2.7 0l0 1.5l2.3 0l0 .6l-2.3 0l0 2.2l-.7 0zm4.3 0l0-4.9l3.3 0l0 .6l-2.7 0l0 1.5l2.3 0l0 .6l-2.3 0l0 2.2l-.6 0zm4.3 0l0-4.9l.6 0l0 4.9l-.6 0zm5.3-1.7c0 0 .7.2.7.2c-.2.5-.4.9-.8 1.2c-.3.3-.8.4-1.3.4c-.5 0-1-.1-1.3-.3c-.3-.2-.6-.5-.8-1c-.1-.4-.2-.8-.2-1.3c0-.5.1-.9.3-1.3c.2-.4.5-.7.8-.9c.4-.2.8-.3 1.2-.3c.5 0 .9.1 1.3.4c.3.2.5.6.7 1c0 0-.7.2-.7.2c-.1-.4-.3-.6-.5-.8c-.2-.2-.5-.2-.8-.2c-.4 0-.7 0-.9.2c-.3.2-.5.5-.6.8c-.1.3-.1.6-.1.9c0 .4 0 .8.1 1.1c.2.3.4.6.6.7c.3.2.6.3.9.3c.3 0 .6-.2.9-.4c.2-.2.4-.5.5-.9zm1.5 1.7l0-4.9l3.6 0l0 .6l-3 0l0 1.5l2.8 0l0 .6l-2.8 0l0 1.6l3.1 0l0 .6l-3.7 0zm4.4-1.6c0 0 .6 0 .6 0c0 .2.1.4.2.6c.1.2.2.3.5.4c.2.1.5.1.7.1c.3 0 .5 0 .7-.1c.2-.1.3-.2.4-.3c.1-.1.2-.3.2-.4c0-.2-.1-.3-.2-.4c-.1-.1-.2-.2-.4-.3c-.2-.1-.4-.1-.9-.3c-.5-.1-.8-.2-1-.3c-.2-.1-.4-.2-.5-.4c-.1-.2-.2-.4-.2-.6c0-.3.1-.5.3-.7c.1-.3.3-.4.6-.5c.2-.1.5-.2.9-.2c.3 0 .7.1 1 .2c.2.1.4.3.6.5c.2.2.2.5.2.8c0 0-.6 0-.6 0c0-.3-.1-.5-.3-.7c-.2-.1-.5-.2-.9-.2c-.4 0-.7 0-.9.2c-.1.1-.2.3-.2.5c0 .2 0 .3.2.5c.1.1.4.2 1 .3c.5.1.8.2 1 .3c.3.2.5.3.7.5c.1.2.2.5.2.7c0 .3-.1.5-.2.8c-.2.2-.4.4-.7.5c-.3.1-.6.2-.9.2c-.5 0-.9-.1-1.2-.2c-.3-.1-.5-.3-.7-.6c-.1-.2-.2-.5-.2-.9z" stroke="none" fill="#ffffff"/></g><g id="Polygon70338"><path d="m.3 2.6c0-.8.3-1.4.7-1.9c.4-.5 1-.7 1.7-.7c.5 0 .9.1 1.2.3c.4.2.7.5.9.9c.2.4.3.9.3 1.4c0 .5-.1.9-.3 1.3c-.2.4-.5.7-.9.9c-.4.2-.8.3-1.2.3c-.5 0-.9-.1-1.2-.3c-.4-.2-.7-.6-.9-.9c-.2-.4-.3-.8-.3-1.3zm.7 0c0 .6.2 1.1.5 1.4c.3.4.7.6 1.2.6c.5 0 .9-.2 1.2-.6c.3-.3.5-.8.5-1.4c0-.4-.1-.8-.2-1.1c-.1-.3-.3-.5-.6-.7c-.3-.2-.6-.2-.9-.2c-.5 0-.9.1-1.2.4c-.3.4-.5.9-.5 1.6zm4.9 2.4l0-4.9l3.4 0l0 .6l-2.7 0l0 1.5l2.3 0l0 .6l-2.3 0l0 2.2l-.7 0z" stroke="none" fill="#ffffff"/></g></svg>