<?xml version="1.0" standalone="no"?><!DOCTYPE svg PUBLIC "-//W3C//DTD SVG 1.1//EN" "http://www.w3.org/Graphics/SVG/1.1/DTD/svg11.dtd"><svg xmlns="http://www.w3.org/2000/svg" version="1.1" width="60px" height="31.3px" viewBox="0 -5 60 31.3" style="top:-5px"><desc>2018</desc><defs/><g id="Polygon67974"><path d="m7.7 9.8l0 1.3c0 0-7.24-.01-7.2 0c0-.3 0-.6.1-.9c.2-.5.5-1 .9-1.5c.4-.5 1-1 1.7-1.6c1.2-1 2-1.8 2.5-2.4c.4-.5.6-1.1.6-1.6c0-.5-.2-.9-.6-1.3c-.4-.4-.9-.6-1.5-.6c-.6 0-1.1.2-1.5.6c-.4.4-.6 1-.6 1.6c0 0-1.4-.1-1.4-.1c.1-1 .5-1.8 1.1-2.4c.6-.5 1.4-.8 2.5-.8c1 0 1.8.3 2.4.9c.6.6 1 1.3 1 2.2c0 .4-.1.8-.3 1.3c-.2.4-.5.8-.9 1.3c-.4.5-1.1 1.1-2.1 1.9c-.8.7-1.3 1.1-1.5 1.4c-.2.2-.4.5-.6.7c.02 0 5.4 0 5.4 0zm2.5.3c-.7-.9-1.1-2.3-1.1-4.4c0-1.3.1-2.3.4-3.1c.3-.8.7-1.4 1.2-1.8c.5-.4 1.2-.7 2-.7c.5 0 1.1.2 1.5.4c.4.2.8.6 1.1 1c.3.5.5 1 .7 1.6c.1.7.2 1.5.2 2.6c0 1.3-.1 2.3-.4 3.1c-.2.8-.6 1.4-1.2 1.8c-.5.5-1.1.7-1.9.7c-1.1 0-1.9-.4-2.5-1.2c0 0 0 0 0 0zm1-8.1c-.5.7-.7 1.9-.7 3.7c0 1.8.2 3 .6 3.6c.4.6.9.9 1.6.9c.6 0 1.1-.3 1.5-.9c.4-.6.6-1.8.6-3.6c0-1.8-.2-3-.6-3.6c-.4-.6-.9-.9-1.6-.9c-.6 0-1.1.3-1.4.8c0 0 0 0 0 0zm11.4 9.1l-1.3 0c0 0-.02-8.54 0-8.5c-.3.3-.8.6-1.3.9c-.5.3-1 .5-1.4.7c0 0 0-1.3 0-1.3c.7-.4 1.4-.8 2-1.3c.5-.5.9-1 1.2-1.5c-.05.04.8 0 .8 0l0 11zm5.5-5.9c-.6-.2-1-.5-1.2-.9c-.3-.4-.4-.8-.4-1.3c0-.8.3-1.5.8-2c.6-.6 1.4-.9 2.3-.9c1 0 1.7.3 2.3.9c.6.5.9 1.2.9 2c0 .5-.2.9-.4 1.3c-.3.4-.7.7-1.2.9c.6.2 1.1.5 1.5 1c.3.5.5 1.1.5 1.8c0 .9-.3 1.7-1 2.3c-.6.7-1.5 1-2.6 1c-1.1 0-1.9-.3-2.6-1c-.6-.6-1-1.4-1-2.4c0-.7.2-1.3.6-1.7c.3-.5.8-.9 1.5-1zm-.3-2.3c0 .5.2.9.5 1.3c.4.3.8.5 1.3.5c.5 0 1-.2 1.3-.5c.3-.3.5-.7.5-1.2c0-.5-.2-.9-.5-1.3c-.4-.3-.8-.5-1.3-.5c-.5 0-.9.2-1.3.5c-.3.4-.5.8-.5 1.2zm-.4 5c0 .4.1.8.3 1.2c.2.3.4.6.8.8c.3.2.7.3 1.1.3c.7 0 1.2-.2 1.6-.6c.4-.5.6-1 .6-1.6c0-.7-.2-1.2-.6-1.6c-.4-.4-1-.6-1.6-.6c-.6 0-1.2.2-1.6.6c-.4.4-.6.9-.6 1.5z" stroke="none" fill="#54626c"/></g></svg>