<?xml version="1.0" standalone="no"?>
<!DOCTYPE svg PUBLIC "-//W3C//DTD SVG 1.1//EN" "http://www.w3.org/Graphics/SVG/1.1/DTD/svg11.dtd">
<svg xmlns="http://www.w3.org/2000/svg" version="1.1" width="66.4px" height="41.3px" viewBox="0 -7 66.4 41.3" style="top:-7px">
  <desc>12,907</desc>
  <defs/>
  <g id="Polygon62785">
    <path d="M 7.6 14.8 L 5.8 14.8 C 5.8 14.8 5.78 3.41 5.8 3.4 C 5.4 3.8 4.8 4.2 4.1 4.6 C 3.4 5.1 2.8 5.4 2.2 5.6 C 2.2 5.6 2.2 3.8 2.2 3.8 C 3.2 3.4 4.1 2.8 4.8 2.1 C 5.6 1.5 6.1 0.8 6.4 0.2 C 6.42 0.19 7.6 0.2 7.6 0.2 L 7.6 14.8 Z M 21.5 13.1 L 21.5 14.8 C 21.5 14.8 11.91 14.78 11.9 14.8 C 11.9 14.4 12 13.9 12.1 13.5 C 12.4 12.9 12.8 12.2 13.3 11.6 C 13.8 11 14.6 10.2 15.6 9.4 C 17.2 8.1 18.3 7.1 18.8 6.3 C 19.4 5.6 19.7 4.9 19.7 4.2 C 19.7 3.5 19.4 2.9 18.9 2.4 C 18.4 1.9 17.7 1.7 16.9 1.7 C 16.1 1.7 15.4 1.9 14.9 2.4 C 14.3 3 14.1 3.7 14.1 4.6 C 14.1 4.6 12.2 4.4 12.2 4.4 C 12.4 3 12.8 2 13.7 1.3 C 14.5 0.5 15.6 0.2 17 0.2 C 18.4 0.2 19.5 0.6 20.3 1.3 C 21.1 2.1 21.5 3.1 21.5 4.2 C 21.5 4.8 21.4 5.4 21.1 5.9 C 20.9 6.5 20.5 7.1 20 7.7 C 19.4 8.3 18.5 9.2 17.2 10.3 C 16.1 11.2 15.4 11.8 15.1 12.1 C 14.8 12.4 14.6 12.7 14.4 13.1 C 14.39 13.07 21.5 13.1 21.5 13.1 Z M 24.4 14.8 L 24.4 12.8 L 26.4 12.8 C 26.4 12.8 26.43 14.78 26.4 14.8 C 26.4 15.5 26.3 16.1 26 16.6 C 25.8 17.1 25.3 17.4 24.8 17.7 C 24.8 17.7 24.3 16.9 24.3 16.9 C 24.7 16.7 24.9 16.5 25.1 16.2 C 25.3 15.8 25.4 15.4 25.4 14.8 C 25.4 14.78 24.4 14.8 24.4 14.8 Z M 29.3 11.4 C 29.3 11.4 31.1 11.3 31.1 11.3 C 31.2 12.1 31.5 12.7 31.9 13 C 32.3 13.4 32.8 13.6 33.5 13.6 C 34 13.6 34.5 13.4 34.9 13.2 C 35.3 12.9 35.7 12.6 35.9 12.2 C 36.2 11.8 36.4 11.2 36.6 10.5 C 36.8 9.8 36.9 9 36.9 8.3 C 36.9 8.2 36.9 8.1 36.8 7.9 C 36.5 8.5 36 9 35.4 9.3 C 34.8 9.7 34.1 9.9 33.4 9.9 C 32.2 9.9 31.2 9.4 30.3 8.5 C 29.5 7.7 29.1 6.5 29.1 5.1 C 29.1 3.6 29.5 2.4 30.4 1.5 C 31.2 0.6 32.3 0.2 33.6 0.2 C 34.6 0.2 35.5 0.4 36.2 1 C 37 1.5 37.6 2.2 38 3.1 C 38.4 4.1 38.6 5.4 38.6 7.2 C 38.6 9.1 38.4 10.6 38 11.7 C 37.6 12.8 37 13.6 36.2 14.2 C 35.4 14.7 34.5 15 33.4 15 C 32.3 15 31.4 14.7 30.6 14.1 C 29.9 13.5 29.5 12.6 29.3 11.4 Z M 36.6 5 C 36.6 4 36.4 3.2 35.8 2.6 C 35.3 2 34.6 1.7 33.9 1.7 C 33.1 1.7 32.4 2 31.8 2.6 C 31.2 3.3 30.9 4.1 30.9 5.2 C 30.9 6.1 31.2 6.8 31.7 7.4 C 32.3 8 33 8.3 33.8 8.3 C 34.6 8.3 35.3 8 35.9 7.4 C 36.4 6.8 36.6 6 36.6 5 Z M 41.8 13.5 C 40.8 12.3 40.4 10.3 40.4 7.6 C 40.4 5.9 40.5 4.5 40.9 3.5 C 41.3 2.4 41.8 1.6 42.5 1 C 43.2 0.5 44 0.2 45.1 0.2 C 45.9 0.2 46.6 0.3 47.2 0.7 C 47.7 1 48.2 1.4 48.6 2 C 49 2.6 49.3 3.3 49.5 4.2 C 49.7 5 49.8 6.2 49.8 7.6 C 49.8 9.3 49.7 10.7 49.3 11.7 C 49 12.8 48.4 13.6 47.8 14.2 C 47.1 14.7 46.2 15 45.1 15 C 43.7 15 42.6 14.5 41.8 13.5 C 41.8 13.5 41.8 13.5 41.8 13.5 Z M 43.1 2.7 C 42.5 3.6 42.2 5.2 42.2 7.6 C 42.2 10 42.5 11.6 43 12.4 C 43.6 13.2 44.3 13.6 45.1 13.6 C 45.9 13.6 46.6 13.2 47.2 12.4 C 47.7 11.6 48 10 48 7.6 C 48 5.2 47.7 3.6 47.2 2.8 C 46.6 2.1 45.9 1.7 45.1 1.7 C 44.3 1.7 43.6 2 43.1 2.7 C 43.1 2.7 43.1 2.7 43.1 2.7 Z M 51.8 2.2 L 51.8 0.4 L 61.2 0.4 C 61.2 0.4 61.19 1.82 61.2 1.8 C 60.3 2.8 59.3 4.1 58.4 5.8 C 57.5 7.4 56.8 9.1 56.3 10.8 C 56 12 55.7 13.3 55.6 14.8 C 55.6 14.8 53.8 14.8 53.8 14.8 C 53.8 13.6 54.1 12.3 54.5 10.6 C 54.9 9 55.5 7.5 56.3 6 C 57.1 4.5 58 3.2 58.9 2.2 C 58.9 2.15 51.8 2.2 51.8 2.2 Z " stroke="none" fill="#54626c"/>
  </g>
</svg>