<?xml version="1.0" standalone="no"?><!DOCTYPE svg PUBLIC "-//W3C//DTD SVG 1.1//EN" "http://www.w3.org/Graphics/SVG/1.1/DTD/svg11.dtd"><svg xmlns="http://www.w3.org/2000/svg" version="1.1" width="203px" height="31.3px" viewBox="0 -5 203 31.3" style="top:-5px"><desc>Scopes 1 + 2 (tons CO2e)</desc><defs/><g id="Polygon68375"><path d="m.7 7.6c0 0 1.3-.1 1.3-.1c.1.5.3 1 .5 1.3c.2.4.6.6 1.1.9c.5.2 1 .3 1.7.3c.5 0 1-.1 1.4-.3c.4-.1.8-.4 1-.6c.2-.3.3-.6.3-1c0-.3-.1-.6-.3-.9c-.2-.2-.6-.4-1-.6c-.3-.1-.9-.3-1.9-.5c-1-.3-1.8-.5-2.2-.7c-.5-.3-.9-.6-1.1-1c-.3-.4-.4-.9-.4-1.4c0-.5.2-1.1.5-1.5c.3-.5.7-.9 1.3-1.1c.6-.3 1.3-.4 2-.4c.8 0 1.6.1 2.2.4c.6.3 1.1.6 1.4 1.1c.3.5.5 1.1.5 1.8c0 0-1.3.1-1.3.1c-.1-.7-.4-1.2-.8-1.6c-.4-.4-1.1-.5-1.9-.5c-.9 0-1.5.1-1.9.5c-.4.3-.6.7-.6 1.1c0 .4.1.7.4 1c.3.2 1 .5 2.2.8c1.2.2 2 .4 2.4.6c.6.3 1.1.7 1.4 1.2c.3.4.5.9.5 1.5c0 .6-.2 1.1-.5 1.6c-.4.6-.8 1-1.5 1.2c-.6.3-1.3.5-2.1.5c-1 0-1.8-.2-2.4-.5c-.7-.2-1.2-.7-1.6-1.3c-.4-.5-.6-1.2-.6-1.9zm15.6.6c0 0 1.3.2 1.3.2c-.1.9-.5 1.6-1.1 2.1c-.6.5-1.3.8-2.2.8c-1 0-1.9-.4-2.6-1.1c-.6-.7-.9-1.7-.9-3c0-.9.1-1.6.4-2.3c.3-.6.7-1.1 1.3-1.4c.5-.3 1.2-.5 1.9-.5c.8 0 1.5.2 2.1.7c.5.4.9 1 1 1.8c0 0-1.3.2-1.3.2c-.1-.5-.3-.9-.7-1.2c-.3-.3-.6-.4-1.1-.4c-.7 0-1.2.3-1.6.7c-.5.5-.7 1.3-.7 2.3c0 1.1.2 1.9.6 2.3c.4.5 1 .8 1.6.8c.6 0 1-.2 1.3-.5c.4-.3.6-.8.7-1.5zm2-1.1c0-1.4.4-2.5 1.2-3.2c.7-.6 1.5-.9 2.5-.9c1.1 0 2 .4 2.6 1.1c.7.7 1.1 1.7 1.1 2.9c0 1-.2 1.8-.5 2.4c-.3.6-.7 1.1-1.3 1.4c-.6.3-1.2.5-1.9.5c-1.1 0-2-.4-2.7-1.1c-.7-.7-1-1.7-1-3.1zm1.4 0c0 1.1.2 1.8.6 2.3c.5.5 1 .8 1.7.8c.6 0 1.2-.3 1.6-.8c.5-.5.7-1.3.7-2.3c0-1-.2-1.7-.7-2.2c-.4-.5-1-.8-1.6-.8c-.7 0-1.2.3-1.7.8c-.4.5-.6 1.2-.6 2.2zm7.5 7l0-10.9l1.3 0c0 0-.03 1.02 0 1c.3-.4.6-.7.9-.9c.4-.2.8-.3 1.4-.3c.6 0 1.2.2 1.7.5c.6.4.9.9 1.2 1.5c.3.6.4 1.3.4 2.1c0 .8-.1 1.5-.4 2.2c-.3.6-.7 1.1-1.3 1.5c-.5.3-1.1.5-1.7.5c-.5 0-.9-.1-1.2-.3c-.4-.2-.7-.4-.9-.7c-.01-.03 0 3.8 0 3.8l-1.4 0zm1.3-6.9c0 1 .2 1.8.6 2.2c.4.5.9.8 1.5.8c.6 0 1.1-.3 1.5-.8c.4-.5.6-1.3.6-2.3c0-1-.2-1.8-.6-2.3c-.4-.5-.9-.7-1.5-.7c-.5 0-1 .2-1.5.8c-.4.5-.6 1.3-.6 2.3zm12.6 1.3c0 0 1.4.2 1.4.2c-.2.8-.6 1.5-1.2 1.9c-.6.4-1.3.7-2.3.7c-1.1 0-2-.4-2.7-1.1c-.7-.7-1-1.7-1-3c0-1.3.3-2.4 1-3.1c.7-.7 1.6-1.1 2.7-1.1c1 0 1.9.4 2.6 1.1c.6.7 1 1.7 1 3c0 .1 0 .2-.1.4c0 0-5.8 0-5.8 0c0 .8.3 1.5.7 2c.4.4 1 .7 1.6.7c.5 0 1-.2 1.3-.4c.3-.3.6-.7.8-1.3zm-4.4-2.1c0 0 4.4 0 4.4 0c0-.7-.2-1.2-.5-1.5c-.4-.5-.9-.8-1.6-.8c-.6 0-1.2.2-1.6.6c-.4.4-.6 1-.7 1.7zm7 2.3c0 0 1.3-.2 1.3-.2c.1.6.3 1 .6 1.2c.3.3.8.5 1.4.5c.6 0 1.1-.2 1.4-.4c.3-.3.4-.6.4-.9c0-.3-.1-.5-.4-.7c-.1-.1-.6-.3-1.3-.5c-1-.2-1.7-.4-2.1-.6c-.3-.2-.6-.4-.8-.8c-.2-.3-.3-.6-.3-1c0-.4.1-.7.2-1c.2-.3.4-.5.7-.7c.2-.2.5-.3.8-.4c.4-.1.8-.2 1.2-.2c.6 0 1.1.1 1.6.3c.5.2.8.4 1.1.7c.2.3.3.7.4 1.2c0 0-1.3.2-1.3.2c-.1-.4-.2-.7-.5-.9c-.3-.3-.7-.4-1.2-.4c-.6 0-1.1.1-1.3.3c-.3.2-.4.5-.4.7c0 .2 0 .4.1.5c.1.1.3.3.5.4c.2 0 .6.1 1.2.3c1 .3 1.6.5 2 .6c.4.2.7.4.9.7c.2.3.3.7.3 1.2c0 .4-.1.8-.4 1.2c-.2.4-.6.7-1.1.9c-.5.3-1 .4-1.7.4c-1 0-1.8-.2-2.3-.7c-.6-.4-.9-1-1-1.9zm17 2.4l-1.3 0c0 0-.03-8.54 0-8.5c-.4.3-.8.6-1.3.9c-.5.3-1 .5-1.4.7c0 0 0-1.3 0-1.3c.7-.4 1.4-.8 2-1.3c.5-.5.9-1 1.1-1.5c.05.04.9 0 .9 0l0 11zm10.9-1.8l0-3l-3 0l0-1.2l3 0l0-3l1.2 0l0 3l3 0l0 1.2l-3 0l0 3l-1.2 0zm16.9.5l0 1.3c0 0-7.18-.01-7.2 0c0-.3.1-.6.2-.9c.2-.5.5-1 .9-1.5c.4-.5.9-1 1.7-1.6c1.2-1 2-1.8 2.4-2.4c.4-.5.6-1.1.6-1.6c0-.5-.2-.9-.5-1.3c-.4-.4-.9-.6-1.5-.6c-.7 0-1.2.2-1.6.6c-.3.4-.5 1-.5 1.6c0 0-1.4-.1-1.4-.1c.1-1 .4-1.8 1-2.4c.7-.5 1.5-.8 2.5-.8c1.1 0 1.9.3 2.5.9c.6.6.9 1.3.9 2.2c0 .4-.1.8-.3 1.3c-.1.4-.4.8-.8 1.3c-.5.5-1.1 1.1-2.1 1.9c-.8.7-1.3 1.1-1.6 1.4c-.2.2-.4.5-.5.7c-.02 0 5.3 0 5.3 0zm8.6 4.5c-.7-.9-1.3-2-1.8-3.3c-.6-1.2-.8-2.5-.8-3.9c0-1.1.2-2.3.6-3.4c.4-1.2 1.1-2.5 2-3.7c0 0 1 0 1 0c-.6 1-1 1.8-1.2 2.2c-.3.7-.5 1.4-.7 2.2c-.2.9-.3 1.8-.3 2.7c0 2.4.7 4.8 2.2 7.2c0 0-1 0-1 0zm4.9-4.4c.1 0 .3 0 .6 0c0 0 .2 1.2.2 1.2c-.4.1-.8.1-1.1.1c-.4 0-.8-.1-1.1-.2c-.3-.2-.4-.4-.6-.6c-.1-.3-.1-.8-.1-1.6c-.01-.02 0-4.6 0-4.6l-1 0l0-1l1 0l0-2l1.3-.8l0 2.8l1.4 0l0 1l-1.4 0c0 0 .02 4.65 0 4.7c0 .3 0 .6.1.7c0 .1.1.2.2.2c.1.1.3.1.5.1c0 0 0 0 0 0zm1.4-2.8c0-1.4.4-2.5 1.2-3.2c.7-.6 1.5-.9 2.5-.9c1.1 0 2 .4 2.6 1.1c.7.7 1.1 1.7 1.1 2.9c0 1-.2 1.8-.5 2.4c-.3.6-.7 1.1-1.3 1.4c-.6.3-1.2.5-1.9.5c-1.1 0-2-.4-2.7-1.1c-.7-.7-1-1.7-1-3.1zm1.3 0c0 1.1.3 1.8.7 2.3c.5.5 1 .8 1.7.8c.6 0 1.2-.3 1.6-.8c.5-.5.7-1.3.7-2.3c0-1-.2-1.7-.7-2.2c-.4-.5-1-.8-1.6-.8c-.7 0-1.2.3-1.7.8c-.4.5-.7 1.2-.7 2.2zm7.6 4l0-7.9l1.2 0c0 0 .05 1.11 0 1.1c.6-.9 1.5-1.3 2.6-1.3c.4 0 .9.1 1.3.3c.4.1.7.4.9.6c.2.3.3.6.4 1c0 .3.1.7.1 1.3c-.04.03 0 4.9 0 4.9l-1.4 0c0 0 .02-4.82 0-4.8c0-.6 0-1-.1-1.2c-.1-.3-.3-.5-.6-.7c-.3-.1-.6-.2-.9-.2c-.6 0-1.1.2-1.5.5c-.4.4-.6 1.1-.6 2.1c-.02-.02 0 4.3 0 4.3l-1.4 0zm8-2.4c0 0 1.3-.2 1.3-.2c.1.6.3 1 .6 1.2c.4.3.8.5 1.4.5c.7 0 1.1-.2 1.4-.4c.3-.3.5-.6.5-.9c0-.3-.2-.5-.4-.7c-.2-.1-.7-.3-1.4-.5c-1-.2-1.7-.4-2-.6c-.4-.2-.7-.4-.9-.8c-.2-.3-.3-.6-.3-1c0-.4.1-.7.2-1c.2-.3.4-.5.7-.7c.2-.2.5-.3.9-.4c.3-.1.7-.2 1.1-.2c.6 0 1.2.1 1.6.3c.5.2.9.4 1.1.7c.2.3.4.7.4 1.2c0 0-1.3.2-1.3.2c0-.4-.2-.7-.5-.9c-.3-.3-.7-.4-1.2-.4c-.6 0-1 .1-1.3.3c-.3.2-.4.5-.4.7c0 .2 0 .4.2.5c.1.1.2.3.5.4c.1 0 .5.1 1.2.3c.9.3 1.6.5 1.9.6c.4.2.7.4.9.7c.2.3.3.7.3 1.2c0 .4-.1.8-.4 1.2c-.2.4-.6.7-1.1.9c-.5.3-1 .4-1.6.4c-1.1 0-1.9-.2-2.4-.7c-.5-.4-.9-1-1-1.9zm20.3-1.4c0 0 1.5.3 1.5.3c-.3 1.2-.9 2.1-1.7 2.7c-.8.7-1.7 1-2.9 1c-1.1 0-2.1-.3-2.8-.7c-.8-.5-1.3-1.2-1.7-2.1c-.4-.9-.6-1.9-.6-2.9c0-1.2.2-2.2.7-3c.4-.9 1-1.5 1.8-1.9c.8-.5 1.7-.7 2.7-.7c1.1 0 2 .3 2.7.8c.8.6 1.3 1.4 1.6 2.4c0 0-1.5.3-1.5.3c-.2-.8-.6-1.4-1.1-1.7c-.4-.4-1-.6-1.8-.6c-.8 0-1.5.2-2.1.6c-.5.4-.9 1-1.2 1.7c-.2.6-.3 1.3-.3 2c0 1 .1 1.8.4 2.5c.3.7.7 1.2 1.3 1.5c.5.4 1.2.5 1.8.5c.8 0 1.5-.2 2.1-.7c.5-.4.9-1.1 1.1-2zm2.8-1.5c0-1.8.5-3.2 1.4-4.3c1-1 2.3-1.5 3.8-1.5c1 0 1.9.2 2.7.7c.8.5 1.5 1.2 1.9 2c.4.9.6 1.9.6 3c0 1.1-.2 2-.7 2.9c-.4.9-1 1.6-1.8 2c-.9.5-1.7.7-2.7.7c-1 0-1.9-.3-2.7-.8c-.9-.5-1.5-1.1-1.9-2c-.4-.9-.6-1.8-.6-2.7zm1.5 0c0 1.3.3 2.3 1 3.1c.7.8 1.6 1.1 2.7 1.1c1.1 0 2-.3 2.7-1.1c.7-.8 1-1.9 1-3.3c0-.8-.1-1.6-.4-2.3c-.3-.6-.8-1.2-1.3-1.5c-.6-.4-1.3-.6-2-.6c-1 0-1.9.4-2.6 1.1c-.8.7-1.1 1.9-1.1 3.5zm14.1 9.6l0 .8c0 0-4.23-.04-4.2 0c0-.2 0-.4.1-.6c.1-.3.2-.5.5-.8c.2-.3.6-.6 1-1c.7-.6 1.2-1 1.4-1.3c.2-.4.4-.7.4-1c0-.3-.1-.5-.4-.8c-.2-.2-.5-.3-.8-.3c-.4 0-.7.1-.9.4c-.3.2-.4.5-.4.9c0 0-.8-.1-.8-.1c.1-.6.3-1 .6-1.4c.4-.3.9-.4 1.5-.4c.6 0 1.1.1 1.4.5c.4.3.6.7.6 1.2c0 .3-.1.5-.2.8c-.1.2-.3.5-.5.8c-.3.2-.7.6-1.2 1.1c-.5.4-.8.6-.9.8c-.1.1-.3.3-.3.4c-.04.01 3.1 0 3.1 0zm6.9-6.9c0 0 1.3.2 1.3.2c-.2.8-.6 1.5-1.2 1.9c-.6.4-1.3.7-2.2.7c-1.2 0-2.1-.4-2.8-1.1c-.7-.7-1-1.7-1-3c0-1.3.3-2.4 1-3.1c.7-.7 1.6-1.1 2.7-1.1c1 0 1.9.4 2.6 1.1c.6.7 1 1.7 1 3c0 .1 0 .2 0 .4c0 0-5.9 0-5.9 0c0 .8.3 1.5.7 2c.5.4 1 .7 1.7.7c.5 0 .9-.2 1.2-.4c.4-.3.6-.7.9-1.3zm-4.4-2.1c0 0 4.4 0 4.4 0c-.1-.7-.3-1.2-.5-1.5c-.5-.5-1-.8-1.7-.8c-.6 0-1.1.2-1.5.6c-.5.4-.7 1-.7 1.7zm8.3 7.9c0 0-1 0-1 0c1.5-2.4 2.3-4.8 2.3-7.2c0-.9-.1-1.8-.4-2.7c-.1-.8-.4-1.5-.7-2.2c-.2-.4-.6-1.2-1.2-2.2c0 0 1 0 1 0c.9 1.2 1.6 2.5 2.1 3.7c.3 1.1.5 2.3.5 3.4c0 1.4-.2 2.7-.7 3.9c-.5 1.3-1.2 2.4-1.9 3.3z" stroke="none" fill="#54626c"/></g></svg>