<?xml version="1.0" standalone="no"?>
<!DOCTYPE svg PUBLIC "-//W3C//DTD SVG 1.1//EN" "http://www.w3.org/Graphics/SVG/1.1/DTD/svg11.dtd">
<svg xmlns="http://www.w3.org/2000/svg" version="1.1" width="191px" height="74.6px" viewBox="0 -6 191 74.6" style="top:-6px">
  <desc>The Book of Jargon — Word of the Day Videos</desc>
  <defs/>
  <g id="Polygon61225">
    <path d="M 3.4 32.8 L 0.2 20.6 L 1.9 20.6 C 1.9 20.6 3.71 28.58 3.7 28.6 C 3.9 29.4 4.1 30.3 4.2 31.1 C 4.5 29.8 4.7 29 4.8 28.8 C 4.77 28.83 7.1 20.6 7.1 20.6 L 9 20.6 C 9 20.6 10.77 26.77 10.8 26.8 C 11.2 28.3 11.5 29.7 11.7 31.1 C 11.9 30.3 12.1 29.4 12.3 28.4 C 12.33 28.43 14.2 20.6 14.2 20.6 L 15.9 20.6 L 12.5 32.8 L 11 32.8 C 11 32.8 8.4 23.5 8.4 23.5 C 8.2 22.7 8.1 22.3 8 22.1 C 7.9 22.6 7.8 23.1 7.7 23.5 C 7.66 23.5 5.1 32.8 5.1 32.8 L 3.4 32.8 Z M 16.3 28.4 C 16.3 26.7 16.8 25.5 17.7 24.7 C 18.4 24.1 19.3 23.8 20.4 23.8 C 21.6 23.8 22.6 24.2 23.4 25 C 24.2 25.7 24.6 26.8 24.6 28.2 C 24.6 29.4 24.4 30.3 24.1 30.9 C 23.7 31.6 23.2 32.1 22.6 32.4 C 21.9 32.8 21.2 33 20.4 33 C 19.2 33 18.2 32.6 17.4 31.8 C 16.7 31 16.3 29.9 16.3 28.4 Z M 17.8 28.4 C 17.8 29.5 18.1 30.3 18.6 30.9 C 19.1 31.5 19.7 31.7 20.4 31.7 C 21.2 31.7 21.8 31.5 22.3 30.9 C 22.8 30.3 23 29.5 23 28.3 C 23 27.2 22.8 26.4 22.3 25.8 C 21.8 25.3 21.2 25 20.4 25 C 19.7 25 19.1 25.3 18.6 25.8 C 18.1 26.4 17.8 27.2 17.8 28.4 Z M 26.3 32.8 L 26.3 24 L 27.6 24 C 27.6 24 27.64 25.3 27.6 25.3 C 28 24.7 28.3 24.3 28.6 24.1 C 28.9 23.9 29.2 23.8 29.6 23.8 C 30.1 23.8 30.6 23.9 31.1 24.2 C 31.1 24.2 30.6 25.6 30.6 25.6 C 30.2 25.4 29.8 25.3 29.5 25.3 C 29.1 25.3 28.9 25.4 28.6 25.6 C 28.3 25.8 28.2 26.1 28 26.4 C 27.9 26.9 27.8 27.5 27.8 28.2 C 27.79 28.16 27.8 32.8 27.8 32.8 L 26.3 32.8 Z M 37.7 32.8 C 37.7 32.8 37.69 31.66 37.7 31.7 C 37.1 32.5 36.3 33 35.2 33 C 34.5 33 33.9 32.8 33.3 32.4 C 32.7 32 32.2 31.5 31.9 30.8 C 31.6 30.1 31.4 29.3 31.4 28.4 C 31.4 27.5 31.6 26.7 31.9 26 C 32.2 25.3 32.6 24.7 33.2 24.3 C 33.8 24 34.4 23.8 35.2 23.8 C 35.7 23.8 36.2 23.9 36.6 24.1 C 37 24.3 37.3 24.6 37.6 25 C 37.59 24.97 37.6 20.6 37.6 20.6 L 39.1 20.6 L 39.1 32.8 L 37.7 32.8 Z M 33 28.4 C 33 29.5 33.2 30.3 33.7 30.9 C 34.2 31.5 34.7 31.7 35.4 31.7 C 36 31.7 36.6 31.5 37 30.9 C 37.5 30.4 37.7 29.6 37.7 28.5 C 37.7 27.3 37.5 26.4 37 25.8 C 36.6 25.3 36 25 35.3 25 C 34.6 25 34.1 25.3 33.6 25.8 C 33.2 26.4 33 27.2 33 28.4 Z M 45.6 28.4 C 45.6 26.7 46 25.5 47 24.7 C 47.7 24.1 48.6 23.8 49.7 23.8 C 50.9 23.8 51.9 24.2 52.7 25 C 53.5 25.7 53.9 26.8 53.9 28.2 C 53.9 29.4 53.7 30.3 53.3 30.9 C 53 31.6 52.5 32.1 51.9 32.4 C 51.2 32.8 50.5 33 49.7 33 C 48.5 33 47.5 32.6 46.7 31.8 C 46 31 45.6 29.9 45.6 28.4 Z M 47.1 28.4 C 47.1 29.5 47.4 30.3 47.9 30.9 C 48.4 31.5 49 31.7 49.7 31.7 C 50.5 31.7 51.1 31.5 51.6 30.9 C 52.1 30.3 52.3 29.5 52.3 28.3 C 52.3 27.2 52.1 26.4 51.6 25.8 C 51.1 25.3 50.5 25 49.7 25 C 49 25 48.4 25.3 47.9 25.8 C 47.4 26.4 47.1 27.2 47.1 28.4 Z M 56 32.8 L 56 25.1 L 54.6 25.1 L 54.6 24 L 56 24 C 56 24 55.96 23.02 56 23 C 56 22.4 56 22 56.1 21.7 C 56.3 21.3 56.5 21 56.9 20.8 C 57.2 20.5 57.8 20.4 58.4 20.4 C 58.8 20.4 59.3 20.4 59.8 20.5 C 59.8 20.5 59.6 21.9 59.6 21.9 C 59.3 21.8 59 21.8 58.7 21.8 C 58.2 21.8 57.9 21.9 57.7 22.1 C 57.5 22.3 57.4 22.6 57.4 23.1 C 57.45 23.15 57.4 24 57.4 24 L 59.2 24 L 59.2 25.1 L 57.4 25.1 L 57.4 32.8 L 56 32.8 Z M 67.7 31.5 C 67.8 31.5 68 31.5 68.3 31.4 C 68.3 31.4 68.5 32.8 68.5 32.8 C 68.1 32.8 67.7 32.9 67.4 32.9 C 66.9 32.9 66.4 32.8 66.1 32.6 C 65.8 32.5 65.6 32.2 65.5 32 C 65.4 31.7 65.3 31.1 65.3 30.2 C 65.33 30.19 65.3 25.1 65.3 25.1 L 64.2 25.1 L 64.2 24 L 65.3 24 L 65.3 21.8 L 66.8 20.9 L 66.8 24 L 68.3 24 L 68.3 25.1 L 66.8 25.1 C 66.8 25.1 66.81 30.28 66.8 30.3 C 66.8 30.7 66.8 31 66.9 31.1 C 66.9 31.2 67 31.3 67.1 31.4 C 67.3 31.5 67.4 31.5 67.7 31.5 C 67.7 31.5 67.7 31.5 67.7 31.5 Z M 69.8 32.8 L 69.8 20.6 L 71.3 20.6 C 71.3 20.6 71.27 24.97 71.3 25 C 72 24.2 72.8 23.8 73.9 23.8 C 74.6 23.8 75.1 23.9 75.6 24.1 C 76.1 24.4 76.4 24.8 76.6 25.2 C 76.9 25.7 77 26.3 77 27.2 C 76.96 27.19 77 32.8 77 32.8 L 75.5 32.8 C 75.5 32.8 75.46 27.19 75.5 27.2 C 75.5 26.4 75.3 25.9 75 25.6 C 74.7 25.2 74.2 25 73.6 25 C 73.2 25 72.7 25.2 72.4 25.4 C 72 25.6 71.7 25.9 71.5 26.3 C 71.4 26.7 71.3 27.3 71.3 28 C 71.27 27.95 71.3 32.8 71.3 32.8 L 69.8 32.8 Z M 85.3 29.9 C 85.3 29.9 86.8 30.1 86.8 30.1 C 86.6 31 86.1 31.7 85.5 32.2 C 84.8 32.7 84 33 82.9 33 C 81.6 33 80.6 32.6 79.9 31.8 C 79.1 31 78.7 29.9 78.7 28.4 C 78.7 27 79.1 25.8 79.9 25 C 80.6 24.2 81.6 23.8 82.9 23.8 C 84 23.8 85 24.2 85.7 25 C 86.5 25.8 86.9 26.9 86.9 28.4 C 86.9 28.4 86.9 28.6 86.9 28.8 C 86.9 28.8 80.3 28.8 80.3 28.8 C 80.3 29.7 80.6 30.5 81.1 31 C 81.6 31.5 82.2 31.7 82.9 31.7 C 83.5 31.7 84 31.6 84.3 31.3 C 84.7 31 85 30.6 85.3 29.9 Z M 80.4 27.5 C 80.4 27.5 85.3 27.5 85.3 27.5 C 85.2 26.8 85 26.2 84.7 25.9 C 84.2 25.3 83.6 25 82.9 25 C 82.2 25 81.6 25.2 81.1 25.7 C 80.7 26.1 80.4 26.8 80.4 27.5 Z M 93.6 32.8 L 93.6 20.6 C 93.6 20.6 97.79 20.61 97.8 20.6 C 98.7 20.6 99.5 20.7 100 20.8 C 100.7 20.9 101.3 21.2 101.7 21.7 C 102.4 22.2 102.9 22.9 103.2 23.7 C 103.5 24.6 103.7 25.5 103.7 26.6 C 103.7 27.5 103.6 28.4 103.3 29.1 C 103.1 29.8 102.8 30.4 102.5 30.9 C 102.2 31.3 101.8 31.7 101.4 32 C 101 32.2 100.5 32.4 99.9 32.6 C 99.4 32.7 98.7 32.8 98 32.8 C 97.99 32.78 93.6 32.8 93.6 32.8 Z M 95.2 31.3 C 95.2 31.3 97.81 31.34 97.8 31.3 C 98.6 31.3 99.2 31.3 99.7 31.1 C 100.2 31 100.5 30.8 100.8 30.5 C 101.2 30.1 101.5 29.6 101.7 28.9 C 101.9 28.3 102 27.5 102 26.6 C 102 25.3 101.8 24.3 101.4 23.7 C 101 23 100.4 22.5 99.9 22.3 C 99.4 22.1 98.7 22 97.8 22 C 97.77 22.04 95.2 22 95.2 22 L 95.2 31.3 Z M 111.7 32.8 C 111.6 32.5 111.5 32.1 111.4 31.7 C 110.9 32.2 110.4 32.5 109.8 32.7 C 109.3 32.9 108.8 33 108.2 33 C 107.2 33 106.5 32.7 106 32.3 C 105.4 31.8 105.2 31.2 105.2 30.5 C 105.2 30 105.3 29.6 105.5 29.3 C 105.7 28.9 105.9 28.6 106.2 28.4 C 106.6 28.2 106.9 28 107.3 27.9 C 107.6 27.8 108.1 27.8 108.6 27.7 C 109.9 27.6 110.7 27.4 111.3 27.2 C 111.3 27 111.3 26.8 111.3 26.8 C 111.3 26.2 111.2 25.8 110.9 25.5 C 110.5 25.2 109.9 25 109.2 25 C 108.5 25 108 25.1 107.6 25.4 C 107.3 25.6 107.1 26.1 106.9 26.7 C 106.9 26.7 105.4 26.5 105.4 26.5 C 105.6 25.9 105.8 25.3 106.1 25 C 106.4 24.6 106.8 24.3 107.4 24.1 C 108 23.9 108.7 23.8 109.4 23.8 C 110.2 23.8 110.8 23.9 111.2 24 C 111.7 24.2 112.1 24.4 112.3 24.7 C 112.5 25 112.7 25.3 112.7 25.7 C 112.8 26 112.8 26.4 112.8 27.1 C 112.8 27.1 112.8 29.1 112.8 29.1 C 112.8 30.5 112.9 31.4 112.9 31.7 C 113 32.1 113.1 32.4 113.3 32.8 C 113.3 32.78 111.7 32.8 111.7 32.8 C 111.7 32.8 111.74 32.78 111.7 32.8 Z M 111.3 28.4 C 110.8 28.6 110 28.8 108.9 28.9 C 108.3 29 107.8 29.1 107.6 29.2 C 107.3 29.3 107.1 29.5 107 29.7 C 106.8 29.9 106.8 30.2 106.8 30.4 C 106.8 30.8 106.9 31.1 107.2 31.4 C 107.5 31.7 108 31.8 108.5 31.8 C 109.1 31.8 109.6 31.7 110.1 31.4 C 110.5 31.2 110.9 30.8 111.1 30.4 C 111.2 30.1 111.3 29.6 111.3 28.9 C 111.3 28.9 111.3 28.4 111.3 28.4 Z M 116 36.4 C 115.7 36.4 115.4 36.3 115.1 36.2 C 115.1 36.2 114.9 34.8 114.9 34.8 C 115.2 34.9 115.5 34.9 115.8 34.9 C 116.1 34.9 116.4 34.8 116.6 34.7 C 116.8 34.6 116.9 34.5 117 34.3 C 117.1 34.1 117.3 33.8 117.5 33.2 C 117.5 33.1 117.6 33 117.6 32.8 C 117.64 32.79 114.3 24 114.3 24 L 115.9 24 C 115.9 24 117.74 29.07 117.7 29.1 C 118 29.7 118.2 30.4 118.4 31.1 C 118.5 30.4 118.8 29.8 119 29.1 C 118.99 29.1 120.9 24 120.9 24 L 122.4 24 C 122.4 24 119.02 32.93 119 32.9 C 118.7 33.9 118.4 34.6 118.2 34.9 C 117.9 35.4 117.6 35.8 117.3 36 C 116.9 36.2 116.5 36.4 116 36.4 C 116 36.4 116 36.4 116 36.4 Z M 132 32.8 L 127.3 20.6 L 129.1 20.6 C 129.1 20.6 132.22 29.45 132.2 29.4 C 132.5 30.2 132.7 30.8 132.9 31.4 C 133.1 30.8 133.3 30.1 133.5 29.4 C 133.52 29.45 136.8 20.6 136.8 20.6 L 138.4 20.6 L 133.7 32.8 L 132 32.8 Z M 139.4 22.3 L 139.4 20.6 L 140.9 20.6 L 140.9 22.3 L 139.4 22.3 Z M 139.4 32.8 L 139.4 24 L 140.9 24 L 140.9 32.8 L 139.4 32.8 Z M 148.9 32.8 C 148.9 32.8 148.89 31.66 148.9 31.7 C 148.3 32.5 147.5 33 146.4 33 C 145.7 33 145.1 32.8 144.5 32.4 C 143.9 32 143.4 31.5 143.1 30.8 C 142.8 30.1 142.6 29.3 142.6 28.4 C 142.6 27.5 142.8 26.7 143.1 26 C 143.4 25.3 143.8 24.7 144.4 24.3 C 145 24 145.6 23.8 146.4 23.8 C 146.9 23.8 147.4 23.9 147.8 24.1 C 148.2 24.3 148.5 24.6 148.8 25 C 148.79 24.97 148.8 20.6 148.8 20.6 L 150.3 20.6 L 150.3 32.8 L 148.9 32.8 Z M 144.2 28.4 C 144.2 29.5 144.4 30.3 144.9 30.9 C 145.4 31.5 145.9 31.7 146.6 31.7 C 147.2 31.7 147.8 31.5 148.2 30.9 C 148.7 30.4 148.9 29.6 148.9 28.5 C 148.9 27.3 148.7 26.4 148.2 25.8 C 147.8 25.3 147.2 25 146.5 25 C 145.8 25 145.3 25.3 144.8 25.8 C 144.4 26.4 144.2 27.2 144.2 28.4 Z M 158.7 29.9 C 158.7 29.9 160.2 30.1 160.2 30.1 C 160 31 159.5 31.7 158.9 32.2 C 158.2 32.7 157.4 33 156.3 33 C 155 33 154 32.6 153.3 31.8 C 152.5 31 152.1 29.9 152.1 28.4 C 152.1 27 152.5 25.8 153.3 25 C 154 24.2 155 23.8 156.2 23.8 C 157.4 23.8 158.4 24.2 159.1 25 C 159.9 25.8 160.3 26.9 160.3 28.4 C 160.3 28.4 160.3 28.6 160.2 28.8 C 160.2 28.8 153.7 28.8 153.7 28.8 C 153.7 29.7 154 30.5 154.5 31 C 155 31.5 155.6 31.7 156.3 31.7 C 156.9 31.7 157.4 31.6 157.7 31.3 C 158.1 31 158.4 30.6 158.7 29.9 Z M 153.8 27.5 C 153.8 27.5 158.7 27.5 158.7 27.5 C 158.6 26.8 158.4 26.2 158.1 25.9 C 157.6 25.3 157 25 156.3 25 C 155.6 25 155 25.2 154.5 25.7 C 154.1 26.1 153.8 26.8 153.8 27.5 Z M 161.5 28.4 C 161.5 26.7 162 25.5 162.9 24.7 C 163.6 24.1 164.6 23.8 165.7 23.8 C 166.9 23.8 167.9 24.2 168.6 25 C 169.4 25.7 169.8 26.8 169.8 28.2 C 169.8 29.4 169.6 30.3 169.3 30.9 C 168.9 31.6 168.4 32.1 167.8 32.4 C 167.1 32.8 166.4 33 165.7 33 C 164.4 33 163.4 32.6 162.7 31.8 C 161.9 31 161.5 29.9 161.5 28.4 Z M 163.1 28.4 C 163.1 29.5 163.3 30.3 163.8 30.9 C 164.3 31.5 164.9 31.7 165.7 31.7 C 166.4 31.7 167 31.5 167.5 30.9 C 168 30.3 168.2 29.5 168.2 28.3 C 168.2 27.2 168 26.4 167.5 25.8 C 167 25.3 166.4 25 165.7 25 C 164.9 25 164.3 25.3 163.8 25.8 C 163.3 26.4 163.1 27.2 163.1 28.4 Z M 170.9 30.1 C 170.9 30.1 172.4 29.9 172.4 29.9 C 172.5 30.5 172.7 31 173.1 31.3 C 173.5 31.6 174 31.7 174.7 31.7 C 175.4 31.7 175.9 31.6 176.2 31.3 C 176.6 31 176.7 30.7 176.7 30.3 C 176.7 30 176.6 29.7 176.3 29.5 C 176.1 29.4 175.6 29.2 174.8 29 C 173.7 28.8 172.9 28.5 172.5 28.3 C 172.1 28.1 171.7 27.8 171.5 27.5 C 171.3 27.1 171.2 26.7 171.2 26.3 C 171.2 25.9 171.3 25.5 171.5 25.2 C 171.6 24.9 171.9 24.6 172.2 24.4 C 172.4 24.2 172.7 24.1 173.1 23.9 C 173.5 23.8 174 23.8 174.4 23.8 C 175.1 23.8 175.7 23.9 176.3 24.1 C 176.8 24.3 177.2 24.5 177.4 24.9 C 177.7 25.2 177.8 25.7 177.9 26.2 C 177.9 26.2 176.5 26.4 176.5 26.4 C 176.4 26 176.2 25.6 175.9 25.4 C 175.6 25.1 175.1 25 174.5 25 C 173.9 25 173.4 25.1 173.1 25.3 C 172.8 25.6 172.6 25.8 172.6 26.1 C 172.6 26.3 172.7 26.5 172.8 26.7 C 172.9 26.8 173.1 26.9 173.4 27 C 173.5 27.1 174 27.2 174.7 27.4 C 175.8 27.7 176.5 27.9 176.9 28.1 C 177.3 28.3 177.7 28.6 177.9 28.9 C 178.1 29.3 178.3 29.7 178.3 30.2 C 178.3 30.7 178.1 31.2 177.8 31.6 C 177.5 32 177.1 32.4 176.6 32.6 C 176 32.9 175.4 33 174.7 33 C 173.6 33 172.7 32.7 172.1 32.3 C 171.5 31.8 171.1 31.1 170.9 30.1 Z " stroke="none" fill="#003a5c"/>
  </g>
  <g id="Polygon61224">
    <path d="M 4.4 12.4 L 4.4 1.6 L 0.4 1.6 L 0.4 0.2 L 10 0.2 L 10 1.6 L 6 1.6 L 6 12.4 L 4.4 12.4 Z M 11.5 12.4 L 11.5 0.2 L 13 0.2 C 13 0.2 13 4.57 13 4.6 C 13.7 3.8 14.6 3.4 15.6 3.4 C 16.3 3.4 16.9 3.5 17.3 3.7 C 17.8 4 18.2 4.4 18.4 4.8 C 18.6 5.3 18.7 5.9 18.7 6.8 C 18.69 6.79 18.7 12.4 18.7 12.4 L 17.2 12.4 C 17.2 12.4 17.19 6.79 17.2 6.8 C 17.2 6 17 5.5 16.7 5.2 C 16.4 4.8 15.9 4.6 15.3 4.6 C 14.9 4.6 14.5 4.8 14.1 5 C 13.7 5.2 13.4 5.5 13.2 5.9 C 13.1 6.3 13 6.9 13 7.6 C 13 7.55 13 12.4 13 12.4 L 11.5 12.4 Z M 27 9.5 C 27 9.5 28.5 9.7 28.5 9.7 C 28.3 10.6 27.8 11.3 27.2 11.8 C 26.5 12.3 25.7 12.6 24.7 12.6 C 23.4 12.6 22.3 12.2 21.6 11.4 C 20.8 10.6 20.5 9.5 20.5 8 C 20.5 6.6 20.8 5.4 21.6 4.6 C 22.4 3.8 23.4 3.4 24.6 3.4 C 25.8 3.4 26.7 3.8 27.5 4.6 C 28.2 5.4 28.6 6.5 28.6 8 C 28.6 8 28.6 8.2 28.6 8.4 C 28.6 8.4 22 8.4 22 8.4 C 22.1 9.3 22.3 10.1 22.8 10.6 C 23.3 11.1 23.9 11.3 24.7 11.3 C 25.2 11.3 25.7 11.2 26.1 10.9 C 26.5 10.6 26.8 10.2 27 9.5 Z M 22.1 7.1 C 22.1 7.1 27 7.1 27 7.1 C 26.9 6.4 26.8 5.8 26.4 5.5 C 26 4.9 25.4 4.6 24.6 4.6 C 23.9 4.6 23.3 4.8 22.9 5.3 C 22.4 5.7 22.1 6.4 22.1 7.1 Z M 35.3 12.4 L 35.3 0.2 C 35.3 0.2 39.83 0.21 39.8 0.2 C 40.8 0.2 41.5 0.3 42.1 0.6 C 42.6 0.8 43.1 1.2 43.4 1.7 C 43.7 2.2 43.9 2.8 43.9 3.3 C 43.9 3.8 43.7 4.3 43.4 4.8 C 43.2 5.2 42.7 5.6 42.2 5.9 C 42.9 6.1 43.5 6.5 43.9 7 C 44.3 7.5 44.5 8.1 44.5 8.8 C 44.5 9.4 44.3 9.9 44.1 10.4 C 43.8 10.9 43.6 11.3 43.2 11.6 C 42.8 11.8 42.4 12 41.9 12.2 C 41.3 12.3 40.7 12.4 39.9 12.4 C 39.9 12.38 35.3 12.4 35.3 12.4 Z M 36.9 5.3 C 36.9 5.3 39.5 5.32 39.5 5.3 C 40.2 5.3 40.7 5.3 41 5.2 C 41.4 5.1 41.8 4.9 42 4.6 C 42.2 4.3 42.3 3.9 42.3 3.5 C 42.3 3.1 42.2 2.8 42 2.4 C 41.8 2.1 41.5 1.9 41.2 1.8 C 40.8 1.7 40.2 1.6 39.3 1.6 C 39.3 1.64 36.9 1.6 36.9 1.6 L 36.9 5.3 Z M 36.9 10.9 C 36.9 10.9 39.9 10.94 39.9 10.9 C 40.4 10.9 40.8 10.9 41 10.9 C 41.4 10.8 41.7 10.7 41.9 10.6 C 42.2 10.4 42.4 10.2 42.5 9.9 C 42.7 9.6 42.8 9.2 42.8 8.8 C 42.8 8.4 42.7 8 42.4 7.7 C 42.2 7.3 41.9 7.1 41.5 7 C 41.1 6.8 40.5 6.8 39.7 6.8 C 39.69 6.76 36.9 6.8 36.9 6.8 L 36.9 10.9 Z M 45.9 8 C 45.9 6.3 46.4 5.1 47.3 4.3 C 48 3.7 49 3.4 50.1 3.4 C 51.3 3.4 52.3 3.8 53 4.6 C 53.8 5.3 54.2 6.4 54.2 7.8 C 54.2 9 54 9.9 53.7 10.5 C 53.3 11.2 52.8 11.7 52.2 12 C 51.5 12.4 50.8 12.6 50.1 12.6 C 48.8 12.6 47.8 12.2 47.1 11.4 C 46.3 10.6 45.9 9.5 45.9 8 Z M 47.5 8 C 47.5 9.1 47.7 9.9 48.2 10.5 C 48.7 11.1 49.3 11.3 50.1 11.3 C 50.8 11.3 51.4 11.1 51.9 10.5 C 52.4 9.9 52.6 9.1 52.6 7.9 C 52.6 6.8 52.4 6 51.9 5.4 C 51.4 4.9 50.8 4.6 50.1 4.6 C 49.3 4.6 48.7 4.9 48.2 5.4 C 47.7 6 47.5 6.8 47.5 8 Z M 55.4 8 C 55.4 6.3 55.8 5.1 56.7 4.3 C 57.5 3.7 58.4 3.4 59.5 3.4 C 60.7 3.4 61.7 3.8 62.5 4.6 C 63.2 5.3 63.6 6.4 63.6 7.8 C 63.6 9 63.5 9.9 63.1 10.5 C 62.8 11.2 62.3 11.7 61.6 12 C 61 12.4 60.3 12.6 59.5 12.6 C 58.3 12.6 57.3 12.2 56.5 11.4 C 55.8 10.6 55.4 9.5 55.4 8 Z M 56.9 8 C 56.9 9.1 57.2 9.9 57.6 10.5 C 58.1 11.1 58.8 11.3 59.5 11.3 C 60.2 11.3 60.9 11.1 61.4 10.5 C 61.9 9.9 62.1 9.1 62.1 7.9 C 62.1 6.8 61.9 6 61.4 5.4 C 60.9 4.9 60.2 4.6 59.5 4.6 C 58.8 4.6 58.1 4.9 57.6 5.4 C 57.2 6 56.9 6.8 56.9 8 Z M 65.4 12.4 L 65.4 0.2 L 66.9 0.2 L 66.9 7.1 L 70.4 3.6 L 72.4 3.6 L 69 6.8 L 72.7 12.4 L 70.9 12.4 L 67.9 7.9 L 66.9 8.9 L 66.9 12.4 L 65.4 12.4 Z M 78.1 8 C 78.1 6.3 78.5 5.1 79.4 4.3 C 80.2 3.7 81.1 3.4 82.2 3.4 C 83.4 3.4 84.4 3.8 85.2 4.6 C 85.9 5.3 86.3 6.4 86.3 7.8 C 86.3 9 86.1 9.9 85.8 10.5 C 85.5 11.2 85 11.7 84.3 12 C 83.7 12.4 83 12.6 82.2 12.6 C 81 12.6 80 12.2 79.2 11.4 C 78.4 10.6 78.1 9.5 78.1 8 Z M 79.6 8 C 79.6 9.1 79.8 9.9 80.3 10.5 C 80.8 11.1 81.4 11.3 82.2 11.3 C 82.9 11.3 83.5 11.1 84 10.5 C 84.5 9.9 84.8 9.1 84.8 7.9 C 84.8 6.8 84.5 6 84 5.4 C 83.5 4.9 82.9 4.6 82.2 4.6 C 81.4 4.6 80.8 4.9 80.3 5.4 C 79.8 6 79.6 6.8 79.6 8 Z M 88.4 12.4 L 88.4 4.7 L 87.1 4.7 L 87.1 3.6 L 88.4 3.6 C 88.4 3.6 88.42 2.62 88.4 2.6 C 88.4 2 88.5 1.6 88.6 1.3 C 88.7 0.9 89 0.6 89.3 0.4 C 89.7 0.1 90.2 0 90.9 0 C 91.3 0 91.7 0 92.3 0.1 C 92.3 0.1 92 1.5 92 1.5 C 91.7 1.4 91.4 1.4 91.2 1.4 C 90.7 1.4 90.4 1.5 90.2 1.7 C 90 1.9 89.9 2.2 89.9 2.7 C 89.91 2.75 89.9 3.6 89.9 3.6 L 91.6 3.6 L 91.6 4.7 L 89.9 4.7 L 89.9 12.4 L 88.4 12.4 Z M 96.9 8.9 C 96.9 8.9 98.3 8.7 98.3 8.7 C 98.4 9.7 98.5 10.3 98.9 10.6 C 99.2 11 99.6 11.1 100.1 11.1 C 100.5 11.1 100.9 11.1 101.2 10.9 C 101.5 10.7 101.7 10.4 101.8 10.1 C 101.9 9.8 102 9.3 102 8.6 C 101.96 8.59 102 0.2 102 0.2 L 103.6 0.2 C 103.6 0.2 103.57 8.5 103.6 8.5 C 103.6 9.5 103.4 10.3 103.2 10.9 C 103 11.4 102.6 11.9 102 12.1 C 101.5 12.4 100.9 12.6 100.1 12.6 C 99.1 12.6 98.3 12.3 97.7 11.7 C 97.1 11 96.9 10.1 96.9 8.9 Z M 112.1 12.4 C 111.9 12.1 111.8 11.7 111.8 11.3 C 111.2 11.8 110.7 12.1 110.2 12.3 C 109.7 12.5 109.1 12.6 108.5 12.6 C 107.5 12.6 106.8 12.3 106.3 11.9 C 105.8 11.4 105.5 10.8 105.5 10.1 C 105.5 9.6 105.6 9.2 105.8 8.9 C 106 8.5 106.3 8.2 106.6 8 C 106.9 7.8 107.2 7.6 107.6 7.5 C 107.9 7.4 108.4 7.4 109 7.3 C 110.2 7.2 111.1 7 111.6 6.8 C 111.6 6.6 111.6 6.4 111.6 6.4 C 111.6 5.8 111.5 5.4 111.2 5.1 C 110.8 4.8 110.3 4.6 109.5 4.6 C 108.8 4.6 108.3 4.7 108 5 C 107.6 5.2 107.4 5.7 107.2 6.3 C 107.2 6.3 105.8 6.1 105.8 6.1 C 105.9 5.5 106.1 4.9 106.4 4.6 C 106.7 4.2 107.2 3.9 107.7 3.7 C 108.3 3.5 109 3.4 109.7 3.4 C 110.5 3.4 111.1 3.5 111.6 3.6 C 112 3.8 112.4 4 112.6 4.3 C 112.8 4.6 113 4.9 113.1 5.3 C 113.1 5.6 113.1 6 113.1 6.7 C 113.1 6.7 113.1 8.7 113.1 8.7 C 113.1 10.1 113.2 11 113.2 11.3 C 113.3 11.7 113.4 12 113.6 12.4 C 113.62 12.38 112.1 12.4 112.1 12.4 C 112.1 12.4 112.06 12.38 112.1 12.4 Z M 111.6 8 C 111.1 8.2 110.3 8.4 109.2 8.5 C 108.6 8.6 108.1 8.7 107.9 8.8 C 107.6 8.9 107.4 9.1 107.3 9.3 C 107.2 9.5 107.1 9.8 107.1 10 C 107.1 10.4 107.2 10.7 107.5 11 C 107.9 11.3 108.3 11.4 108.9 11.4 C 109.4 11.4 110 11.3 110.4 11 C 110.9 10.8 111.2 10.4 111.4 10 C 111.6 9.7 111.6 9.2 111.6 8.5 C 111.6 8.5 111.6 8 111.6 8 Z M 115.4 12.4 L 115.4 3.6 L 116.8 3.6 C 116.8 3.6 116.79 4.9 116.8 4.9 C 117.1 4.3 117.5 3.9 117.7 3.7 C 118 3.5 118.4 3.4 118.7 3.4 C 119.2 3.4 119.7 3.5 120.2 3.8 C 120.2 3.8 119.7 5.2 119.7 5.2 C 119.4 5 119 4.9 118.6 4.9 C 118.3 4.9 118 5 117.7 5.2 C 117.5 5.4 117.3 5.7 117.2 6 C 117 6.5 116.9 7.1 116.9 7.8 C 116.94 7.76 116.9 12.4 116.9 12.4 L 115.4 12.4 Z M 120.9 13.1 C 120.9 13.1 122.3 13.3 122.3 13.3 C 122.4 13.8 122.5 14.1 122.8 14.3 C 123.2 14.6 123.7 14.7 124.3 14.7 C 125 14.7 125.6 14.6 125.9 14.3 C 126.3 14 126.6 13.6 126.7 13.1 C 126.8 12.8 126.8 12.2 126.8 11.2 C 126.1 12 125.3 12.4 124.4 12.4 C 123.2 12.4 122.2 11.9 121.5 11.1 C 120.9 10.2 120.6 9.1 120.6 7.9 C 120.6 7.1 120.7 6.3 121 5.6 C 121.3 4.9 121.8 4.3 122.3 3.9 C 122.9 3.6 123.6 3.4 124.4 3.4 C 125.4 3.4 126.3 3.8 126.9 4.6 C 126.94 4.62 126.9 3.6 126.9 3.6 L 128.3 3.6 C 128.3 3.6 128.32 11.18 128.3 11.2 C 128.3 12.6 128.2 13.5 127.9 14.1 C 127.6 14.7 127.2 15.1 126.6 15.5 C 126 15.8 125.2 16 124.3 16 C 123.3 16 122.4 15.7 121.8 15.2 C 121.1 14.8 120.8 14.1 120.9 13.1 Z M 122.1 7.8 C 122.1 9 122.3 9.8 122.8 10.3 C 123.2 10.9 123.8 11.1 124.5 11.1 C 125.2 11.1 125.8 10.9 126.2 10.3 C 126.7 9.8 126.9 9 126.9 7.9 C 126.9 6.8 126.7 6 126.2 5.4 C 125.7 4.9 125.2 4.6 124.5 4.6 C 123.8 4.6 123.3 4.9 122.8 5.4 C 122.3 5.9 122.1 6.7 122.1 7.8 Z M 130 8 C 130 6.3 130.5 5.1 131.4 4.3 C 132.1 3.7 133.1 3.4 134.2 3.4 C 135.4 3.4 136.4 3.8 137.1 4.6 C 137.9 5.3 138.3 6.4 138.3 7.8 C 138.3 9 138.1 9.9 137.8 10.5 C 137.4 11.2 136.9 11.7 136.3 12 C 135.6 12.4 134.9 12.6 134.2 12.6 C 132.9 12.6 131.9 12.2 131.2 11.4 C 130.4 10.6 130 9.5 130 8 Z M 131.6 8 C 131.6 9.1 131.8 9.9 132.3 10.5 C 132.8 11.1 133.4 11.3 134.2 11.3 C 134.9 11.3 135.5 11.1 136 10.5 C 136.5 9.9 136.7 9.1 136.7 7.9 C 136.7 6.8 136.5 6 136 5.4 C 135.5 4.9 134.9 4.6 134.2 4.6 C 133.4 4.6 132.8 4.9 132.3 5.4 C 131.8 6 131.6 6.8 131.6 8 Z M 140 12.4 L 140 3.6 L 141.4 3.6 C 141.4 3.6 141.38 4.81 141.4 4.8 C 142 3.8 143 3.4 144.2 3.4 C 144.7 3.4 145.2 3.5 145.6 3.6 C 146.1 3.8 146.4 4.1 146.6 4.4 C 146.9 4.7 147 5.1 147.1 5.5 C 147.2 5.8 147.2 6.3 147.2 7 C 147.2 6.96 147.2 12.4 147.2 12.4 L 145.7 12.4 C 145.7 12.4 145.7 7.01 145.7 7 C 145.7 6.4 145.6 6 145.5 5.6 C 145.4 5.3 145.2 5.1 144.9 4.9 C 144.6 4.7 144.3 4.7 143.9 4.7 C 143.2 4.7 142.7 4.9 142.2 5.3 C 141.8 5.7 141.5 6.4 141.5 7.6 C 141.53 7.56 141.5 12.4 141.5 12.4 L 140 12.4 Z M 152 -0.5 C 152.6 -0.5 153.2 -0.3 153.8 0 C 154.4 0.3 154.9 0.7 155.2 1.3 C 155.5 1.9 155.7 2.5 155.7 3.2 C 155.7 3.8 155.5 4.4 155.2 5 C 154.9 5.5 154.4 6 153.9 6.3 C 153.3 6.6 152.7 6.8 152 6.8 C 151.4 6.8 150.8 6.6 150.2 6.3 C 149.6 6 149.2 5.5 148.9 5 C 148.5 4.4 148.4 3.8 148.4 3.2 C 148.4 2.5 148.5 1.9 148.9 1.3 C 149.2 0.7 149.7 0.3 150.2 0 C 150.8 -0.3 151.4 -0.5 152 -0.5 Z M 152 0.1 C 151.5 0.1 151 0.2 150.5 0.5 C 150.1 0.8 149.7 1.1 149.4 1.6 C 149.1 2.1 149 2.6 149 3.2 C 149 3.7 149.1 4.2 149.4 4.7 C 149.7 5.1 150 5.5 150.5 5.8 C 151 6.1 151.5 6.2 152 6.2 C 152.6 6.2 153.1 6.1 153.6 5.8 C 154 5.5 154.4 5.1 154.7 4.7 C 154.9 4.2 155.1 3.7 155.1 3.2 C 155.1 2.6 154.9 2.1 154.7 1.6 C 154.4 1.1 154 0.8 153.5 0.5 C 153 0.2 152.5 0.1 152 0.1 Z M 150.4 5.2 L 150.4 1.2 C 150.4 1.2 151.78 1.24 151.8 1.2 C 152.2 1.2 152.6 1.3 152.8 1.4 C 153 1.4 153.2 1.6 153.3 1.7 C 153.4 1.9 153.5 2.1 153.5 2.3 C 153.5 2.6 153.4 2.8 153.2 3.1 C 153 3.3 152.7 3.4 152.3 3.4 C 152.5 3.5 152.6 3.5 152.7 3.6 C 152.8 3.8 153 4 153.3 4.4 C 153.26 4.4 153.7 5.2 153.7 5.2 L 153 5.2 C 153 5.2 152.61 4.55 152.6 4.6 C 152.3 4.1 152.1 3.8 151.9 3.6 C 151.8 3.5 151.7 3.5 151.4 3.5 C 151.44 3.5 151.1 3.5 151.1 3.5 L 151.1 5.2 L 150.4 5.2 Z M 151.1 3 C 151.1 3 151.84 2.96 151.8 3 C 152.2 3 152.5 2.9 152.6 2.8 C 152.7 2.7 152.8 2.5 152.8 2.4 C 152.8 2.2 152.8 2.1 152.7 2 C 152.6 2 152.5 1.9 152.4 1.8 C 152.3 1.8 152.1 1.8 151.8 1.8 C 151.79 1.77 151.1 1.8 151.1 1.8 L 151.1 3 Z M 160.4 8.6 L 160.4 7.4 L 177.4 7.4 L 177.4 8.6 L 160.4 8.6 Z " stroke="none" fill="#003a5c"/>
  </g>
</svg>