<?xml version="1.0" standalone="no"?>
<!DOCTYPE svg PUBLIC "-//W3C//DTD SVG 1.1//EN" "http://www.w3.org/Graphics/SVG/1.1/DTD/svg11.dtd">
<svg xmlns="http://www.w3.org/2000/svg" version="1.1" width="155px" height="55.7px" viewBox="0 -4 155 55.7" style="top:-4px">
  <desc>Recycled technology equipment is equivalent to the power needed to generate</desc>
  <defs/>
  <g id="Polygon64620">
    <path d="M 4.4 41.7 L 4.4 40.8 L 7.5 40.8 C 7.5 40.8 7.55 43.55 7.5 43.6 C 7.1 43.9 6.6 44.2 6.1 44.4 C 5.6 44.6 5 44.7 4.5 44.7 C 3.8 44.7 3.1 44.5 2.5 44.2 C 1.9 43.9 1.5 43.5 1.2 42.9 C 0.9 42.3 0.7 41.7 0.7 40.9 C 0.7 40.2 0.9 39.5 1.2 38.9 C 1.5 38.3 1.9 37.8 2.5 37.5 C 3 37.2 3.7 37.1 4.4 37.1 C 5 37.1 5.4 37.2 5.9 37.3 C 6.3 37.5 6.6 37.8 6.9 38.1 C 7.1 38.4 7.3 38.8 7.4 39.3 C 7.4 39.3 6.6 39.5 6.6 39.5 C 6.4 39.1 6.3 38.8 6.1 38.6 C 6 38.4 5.7 38.2 5.4 38.1 C 5.1 38 4.8 37.9 4.4 37.9 C 4 37.9 3.6 38 3.3 38.1 C 2.9 38.3 2.7 38.4 2.5 38.7 C 2.3 38.9 2.1 39.1 2 39.4 C 1.8 39.8 1.7 40.3 1.7 40.9 C 1.7 41.5 1.8 42.1 2.1 42.5 C 2.3 43 2.6 43.3 3.1 43.5 C 3.5 43.7 4 43.8 4.4 43.8 C 4.9 43.8 5.3 43.7 5.7 43.6 C 6.1 43.4 6.4 43.2 6.6 43.1 C 6.59 43.06 6.6 41.7 6.6 41.7 L 4.4 41.7 Z M 9.4 44.6 L 9.4 37.2 L 14.8 37.2 L 14.8 38.1 L 10.4 38.1 L 10.4 40.3 L 14.5 40.3 L 14.5 41.2 L 10.4 41.2 L 10.4 43.7 L 14.9 43.7 L 14.9 44.6 L 9.4 44.6 Z M 16.5 44.6 L 16.5 37.2 L 17.5 37.2 L 21.4 43 L 21.4 37.2 L 22.3 37.2 L 22.3 44.6 L 21.3 44.6 L 17.4 38.8 L 17.4 44.6 L 16.5 44.6 Z M 24.3 44.6 L 24.3 37.2 L 29.7 37.2 L 29.7 38.1 L 25.3 38.1 L 25.3 40.3 L 29.4 40.3 L 29.4 41.2 L 25.3 41.2 L 25.3 43.7 L 29.8 43.7 L 29.8 44.6 L 24.3 44.6 Z M 31.4 44.6 L 31.4 37.2 C 31.4 37.2 34.69 37.21 34.7 37.2 C 35.3 37.2 35.8 37.3 36.2 37.4 C 36.5 37.5 36.8 37.8 37 38.1 C 37.2 38.4 37.3 38.8 37.3 39.2 C 37.3 39.7 37.1 40.2 36.8 40.5 C 36.5 40.9 35.9 41.1 35.2 41.2 C 35.5 41.3 35.7 41.5 35.8 41.6 C 36.1 41.9 36.4 42.2 36.6 42.6 C 36.64 42.57 37.9 44.6 37.9 44.6 L 36.7 44.6 C 36.7 44.6 35.72 43.04 35.7 43 C 35.4 42.6 35.2 42.3 35 42 C 34.8 41.8 34.7 41.6 34.5 41.5 C 34.4 41.4 34.2 41.4 34.1 41.3 C 34 41.3 33.8 41.3 33.5 41.3 C 33.53 41.3 32.4 41.3 32.4 41.3 L 32.4 44.6 L 31.4 44.6 Z M 32.4 40.5 C 32.4 40.5 34.49 40.46 34.5 40.5 C 34.9 40.5 35.3 40.4 35.5 40.3 C 35.8 40.2 36 40.1 36.1 39.9 C 36.2 39.7 36.3 39.5 36.3 39.2 C 36.3 38.9 36.2 38.6 35.9 38.4 C 35.7 38.1 35.3 38 34.7 38 C 34.73 38.02 32.4 38 32.4 38 L 32.4 40.5 Z M 38.8 44.6 L 41.7 37.2 L 42.7 37.2 L 45.7 44.6 L 44.6 44.6 L 43.7 42.3 L 40.7 42.3 L 39.9 44.6 L 38.8 44.6 Z M 40.9 41.6 L 43.4 41.6 C 43.4 41.6 42.68 39.51 42.7 39.5 C 42.4 38.9 42.3 38.4 42.2 38 C 42.1 38.5 41.9 38.9 41.8 39.4 C 41.76 39.39 40.9 41.6 40.9 41.6 Z M 47.9 44.6 L 47.9 38.1 L 45.5 38.1 L 45.5 37.2 L 51.3 37.2 L 51.3 38.1 L 48.9 38.1 L 48.9 44.6 L 47.9 44.6 Z M 52.6 44.6 L 52.6 37.2 L 58 37.2 L 58 38.1 L 53.6 38.1 L 53.6 40.3 L 57.7 40.3 L 57.7 41.2 L 53.6 41.2 L 53.6 43.7 L 58.2 43.7 L 58.2 44.6 L 52.6 44.6 Z " stroke="none" fill="#fff"/>
  </g>
  <g id="Polygon64619">
    <path d="M 2.9 32.2 L 2.9 25.7 L 0.4 25.7 L 0.4 24.8 L 6.3 24.8 L 6.3 25.7 L 3.8 25.7 L 3.8 32.2 L 2.9 32.2 Z M 7 28.6 C 7 27.4 7.3 26.4 8 25.8 C 8.6 25.1 9.5 24.7 10.5 24.7 C 11.2 24.7 11.8 24.9 12.4 25.2 C 12.9 25.5 13.3 26 13.6 26.6 C 13.9 27.1 14.1 27.8 14.1 28.5 C 14.1 29.3 13.9 30 13.6 30.5 C 13.3 31.1 12.9 31.6 12.3 31.9 C 11.8 32.2 11.2 32.3 10.5 32.3 C 9.8 32.3 9.2 32.2 8.7 31.8 C 8.1 31.5 7.7 31 7.4 30.5 C 7.1 29.9 7 29.3 7 28.6 Z M 8 28.6 C 8 29.5 8.2 30.2 8.7 30.7 C 9.2 31.3 9.8 31.5 10.5 31.5 C 11.3 31.5 11.9 31.3 12.3 30.7 C 12.8 30.2 13 29.5 13 28.5 C 13 27.9 12.9 27.4 12.7 27 C 12.5 26.5 12.2 26.2 11.9 25.9 C 11.5 25.7 11 25.6 10.5 25.6 C 9.8 25.6 9.3 25.8 8.8 26.3 C 8.3 26.7 8 27.5 8 28.6 Z M 20.4 32.2 L 20.4 25.7 L 18 25.7 L 18 24.8 L 23.8 24.8 L 23.8 25.7 L 21.4 25.7 L 21.4 32.2 L 20.4 32.2 Z M 25.2 32.2 L 25.2 24.8 L 26.2 24.8 L 26.2 27.9 L 30 27.9 L 30 24.8 L 31 24.8 L 31 32.2 L 30 32.2 L 30 28.7 L 26.2 28.7 L 26.2 32.2 L 25.2 32.2 Z M 33 32.2 L 33 24.8 L 38.3 24.8 L 38.3 25.7 L 34 25.7 L 34 28 L 38.1 28 L 38.1 28.8 L 34 28.8 L 34 31.3 L 38.5 31.3 L 38.5 32.2 L 33 32.2 Z M 43.1 32.2 L 43.1 24.8 C 43.1 24.8 45.85 24.85 45.9 24.8 C 46.3 24.8 46.7 24.9 47 24.9 C 47.3 25 47.6 25.1 47.9 25.3 C 48.1 25.4 48.3 25.7 48.5 26 C 48.6 26.3 48.7 26.6 48.7 27 C 48.7 27.6 48.5 28.1 48.1 28.6 C 47.7 29 47 29.2 45.9 29.2 C 45.94 29.22 44 29.2 44 29.2 L 44 32.2 L 43.1 32.2 Z M 44 28.4 C 44 28.4 45.96 28.35 46 28.4 C 46.6 28.4 47 28.2 47.3 28 C 47.6 27.8 47.7 27.4 47.7 27 C 47.7 26.7 47.6 26.4 47.5 26.2 C 47.3 26 47.1 25.9 46.8 25.8 C 46.7 25.7 46.4 25.7 45.9 25.7 C 45.94 25.72 44 25.7 44 25.7 L 44 28.4 Z M 50 28.6 C 50 27.4 50.3 26.4 50.9 25.8 C 51.6 25.1 52.4 24.7 53.5 24.7 C 54.2 24.7 54.8 24.9 55.3 25.2 C 55.9 25.5 56.3 26 56.6 26.6 C 56.9 27.1 57 27.8 57 28.5 C 57 29.3 56.9 30 56.6 30.5 C 56.2 31.1 55.8 31.6 55.3 31.9 C 54.7 32.2 54.1 32.3 53.5 32.3 C 52.8 32.3 52.2 32.2 51.6 31.8 C 51.1 31.5 50.7 31 50.4 30.5 C 50.1 29.9 50 29.3 50 28.6 Z M 51 28.6 C 51 29.5 51.2 30.2 51.7 30.7 C 52.2 31.3 52.8 31.5 53.5 31.5 C 54.2 31.5 54.8 31.3 55.3 30.7 C 55.8 30.2 56 29.5 56 28.5 C 56 27.9 55.9 27.4 55.7 27 C 55.5 26.5 55.2 26.2 54.8 25.9 C 54.4 25.7 54 25.6 53.5 25.6 C 52.8 25.6 52.2 25.8 51.7 26.3 C 51.2 26.7 51 27.5 51 28.6 Z M 59.8 32.2 L 57.8 24.8 L 58.8 24.8 C 58.8 24.8 59.93 29.68 59.9 29.7 C 60 30.2 60.2 30.7 60.2 31.2 C 60.4 30.4 60.5 29.9 60.6 29.8 C 60.57 29.82 62 24.8 62 24.8 L 63.2 24.8 C 63.2 24.8 64.21 28.58 64.2 28.6 C 64.5 29.5 64.7 30.4 64.8 31.2 C 64.9 30.7 65 30.2 65.1 29.6 C 65.15 29.58 66.3 24.8 66.3 24.8 L 67.3 24.8 L 65.3 32.2 L 64.3 32.2 C 64.3 32.2 62.77 26.6 62.8 26.6 C 62.6 26.1 62.6 25.8 62.5 25.7 C 62.5 26.1 62.4 26.4 62.3 26.6 C 62.32 26.6 60.8 32.2 60.8 32.2 L 59.8 32.2 Z M 68.6 32.2 L 68.6 24.8 L 73.9 24.8 L 73.9 25.7 L 69.6 25.7 L 69.6 28 L 73.6 28 L 73.6 28.8 L 69.6 28.8 L 69.6 31.3 L 74.1 31.3 L 74.1 32.2 L 68.6 32.2 Z M 75.7 32.2 L 75.7 24.8 C 75.7 24.8 78.94 24.85 78.9 24.8 C 79.6 24.8 80.1 24.9 80.4 25 C 80.8 25.2 81.1 25.4 81.3 25.7 C 81.5 26.1 81.6 26.5 81.6 26.9 C 81.6 27.4 81.4 27.8 81.1 28.2 C 80.7 28.5 80.2 28.8 79.5 28.9 C 79.7 29 79.9 29.1 80.1 29.2 C 80.4 29.5 80.6 29.8 80.9 30.2 C 80.89 30.21 82.2 32.2 82.2 32.2 L 80.9 32.2 C 80.9 32.2 79.97 30.68 80 30.7 C 79.7 30.2 79.4 29.9 79.3 29.7 C 79.1 29.4 78.9 29.3 78.8 29.2 C 78.6 29.1 78.5 29 78.3 29 C 78.2 29 78 28.9 77.8 28.9 C 77.78 28.94 76.6 28.9 76.6 28.9 L 76.6 32.2 L 75.7 32.2 Z M 76.6 28.1 C 76.6 28.1 78.74 28.1 78.7 28.1 C 79.2 28.1 79.5 28.1 79.8 28 C 80 27.9 80.2 27.7 80.4 27.5 C 80.5 27.3 80.6 27.1 80.6 26.9 C 80.6 26.5 80.4 26.2 80.2 26 C 79.9 25.8 79.5 25.7 79 25.7 C 78.98 25.66 76.6 25.7 76.6 25.7 L 76.6 28.1 Z M 86.3 32.2 L 86.3 24.8 L 87.3 24.8 L 91.2 30.6 L 91.2 24.8 L 92.1 24.8 L 92.1 32.2 L 91.1 32.2 L 87.2 26.4 L 87.2 32.2 L 86.3 32.2 Z M 94.2 32.2 L 94.2 24.8 L 99.5 24.8 L 99.5 25.7 L 95.1 25.7 L 95.1 28 L 99.2 28 L 99.2 28.8 L 95.1 28.8 L 95.1 31.3 L 99.7 31.3 L 99.7 32.2 L 94.2 32.2 Z M 101.2 32.2 L 101.2 24.8 L 106.6 24.8 L 106.6 25.7 L 102.2 25.7 L 102.2 28 L 106.3 28 L 106.3 28.8 L 102.2 28.8 L 102.2 31.3 L 106.7 31.3 L 106.7 32.2 L 101.2 32.2 Z M 108.3 32.2 L 108.3 24.8 C 108.3 24.8 110.85 24.85 110.9 24.8 C 111.4 24.8 111.9 24.9 112.2 25 C 112.6 25 112.9 25.2 113.2 25.5 C 113.6 25.8 113.9 26.2 114.1 26.7 C 114.3 27.3 114.4 27.8 114.4 28.5 C 114.4 29.1 114.3 29.5 114.2 30 C 114.1 30.4 113.9 30.8 113.7 31.1 C 113.5 31.3 113.3 31.6 113 31.7 C 112.8 31.9 112.5 32 112.2 32.1 C 111.8 32.2 111.4 32.2 111 32.2 C 110.98 32.22 108.3 32.2 108.3 32.2 Z M 109.3 31.3 C 109.3 31.3 110.86 31.35 110.9 31.3 C 111.4 31.3 111.7 31.3 112 31.2 C 112.3 31.1 112.5 31 112.7 30.8 C 112.9 30.6 113.1 30.3 113.2 29.9 C 113.3 29.5 113.4 29 113.4 28.5 C 113.4 27.7 113.3 27.1 113 26.7 C 112.8 26.3 112.5 26 112.1 25.9 C 111.8 25.8 111.4 25.7 110.8 25.7 C 110.84 25.72 109.3 25.7 109.3 25.7 L 109.3 31.3 Z M 116.1 32.2 L 116.1 24.8 L 121.5 24.8 L 121.5 25.7 L 117.1 25.7 L 117.1 28 L 121.2 28 L 121.2 28.8 L 117.1 28.8 L 117.1 31.3 L 121.6 31.3 L 121.6 32.2 L 116.1 32.2 Z M 123.2 32.2 L 123.2 24.8 C 123.2 24.8 125.75 24.85 125.7 24.8 C 126.3 24.8 126.8 24.9 127.1 25 C 127.5 25 127.8 25.2 128.1 25.5 C 128.5 25.8 128.8 26.2 129 26.7 C 129.2 27.3 129.3 27.8 129.3 28.5 C 129.3 29.1 129.2 29.5 129.1 30 C 129 30.4 128.8 30.8 128.6 31.1 C 128.4 31.3 128.2 31.6 127.9 31.7 C 127.7 31.9 127.4 32 127.1 32.1 C 126.7 32.2 126.3 32.2 125.9 32.2 C 125.87 32.22 123.2 32.2 123.2 32.2 Z M 124.2 31.3 C 124.2 31.3 125.76 31.35 125.8 31.3 C 126.2 31.3 126.6 31.3 126.9 31.2 C 127.2 31.1 127.4 31 127.6 30.8 C 127.8 30.6 128 30.3 128.1 29.9 C 128.2 29.5 128.3 29 128.3 28.5 C 128.3 27.7 128.2 27.1 127.9 26.7 C 127.7 26.3 127.4 26 127 25.9 C 126.7 25.8 126.3 25.7 125.7 25.7 C 125.73 25.72 124.2 25.7 124.2 25.7 L 124.2 31.3 Z M 135.7 32.2 L 135.7 25.7 L 133.3 25.7 L 133.3 24.8 L 139.2 24.8 L 139.2 25.7 L 136.7 25.7 L 136.7 32.2 L 135.7 32.2 Z M 139.9 28.6 C 139.9 27.4 140.2 26.4 140.9 25.8 C 141.5 25.1 142.4 24.7 143.4 24.7 C 144.1 24.7 144.7 24.9 145.3 25.2 C 145.8 25.5 146.2 26 146.5 26.6 C 146.8 27.1 147 27.8 147 28.5 C 147 29.3 146.8 30 146.5 30.5 C 146.2 31.1 145.8 31.6 145.2 31.9 C 144.7 32.2 144.1 32.3 143.4 32.3 C 142.7 32.3 142.1 32.2 141.6 31.8 C 141 31.5 140.6 31 140.3 30.5 C 140 29.9 139.9 29.3 139.9 28.6 Z M 140.9 28.6 C 140.9 29.5 141.1 30.2 141.6 30.7 C 142.1 31.3 142.7 31.5 143.4 31.5 C 144.2 31.5 144.8 31.3 145.2 30.7 C 145.7 30.2 145.9 29.5 145.9 28.5 C 145.9 27.9 145.8 27.4 145.6 27 C 145.4 26.5 145.1 26.2 144.8 25.9 C 144.4 25.7 143.9 25.6 143.4 25.6 C 142.7 25.6 142.2 25.8 141.7 26.3 C 141.2 26.7 140.9 27.5 140.9 28.6 Z " stroke="none" fill="#fff"/>
  </g>
  <g id="Polygon64618">
    <path d="M 1 19.9 L 1 12.5 L 6.3 12.5 L 6.3 13.4 L 2 13.4 L 2 15.6 L 6.1 15.6 L 6.1 16.5 L 2 16.5 L 2 19 L 6.5 19 L 6.5 19.9 L 1 19.9 Z M 13.6 19.1 C 14 19.4 14.4 19.6 14.8 19.8 C 14.8 19.8 14.5 20.4 14.5 20.4 C 14 20.2 13.5 19.9 12.9 19.5 C 12.4 19.8 11.8 20 11.1 20 C 10.5 20 9.9 19.8 9.3 19.5 C 8.8 19.2 8.3 18.7 8.1 18.1 C 7.8 17.6 7.6 16.9 7.6 16.2 C 7.6 15.4 7.8 14.8 8.1 14.2 C 8.4 13.6 8.8 13.1 9.3 12.8 C 9.9 12.5 10.5 12.4 11.1 12.4 C 11.8 12.4 12.4 12.5 13 12.8 C 13.5 13.2 13.9 13.6 14.2 14.2 C 14.5 14.8 14.7 15.4 14.7 16.2 C 14.7 16.8 14.6 17.3 14.4 17.8 C 14.2 18.3 13.9 18.7 13.6 19.1 Z M 11.4 17.8 C 12 18 12.4 18.2 12.8 18.5 C 13.4 18 13.7 17.2 13.7 16.2 C 13.7 15.6 13.6 15 13.4 14.6 C 13.2 14.2 12.9 13.8 12.5 13.6 C 12.1 13.3 11.6 13.2 11.2 13.2 C 10.4 13.2 9.8 13.4 9.3 13.9 C 8.9 14.4 8.6 15.2 8.6 16.2 C 8.6 17.1 8.9 17.9 9.3 18.4 C 9.8 18.9 10.4 19.1 11.2 19.1 C 11.5 19.1 11.8 19.1 12.1 19 C 11.8 18.8 11.5 18.6 11.2 18.5 C 11.2 18.5 11.4 17.8 11.4 17.8 Z M 21.1 12.5 L 22.1 12.5 C 22.1 12.5 22.12 16.75 22.1 16.7 C 22.1 17.5 22 18.1 21.9 18.5 C 21.7 18.9 21.4 19.3 21 19.6 C 20.5 19.8 20 20 19.2 20 C 18.5 20 18 19.9 17.5 19.6 C 17.1 19.4 16.8 19 16.6 18.6 C 16.4 18.1 16.3 17.5 16.3 16.7 C 16.32 16.75 16.3 12.5 16.3 12.5 L 17.3 12.5 C 17.3 12.5 17.3 16.74 17.3 16.7 C 17.3 17.4 17.4 17.9 17.5 18.2 C 17.6 18.5 17.8 18.7 18.1 18.9 C 18.4 19 18.7 19.1 19.2 19.1 C 19.9 19.1 20.4 18.9 20.7 18.6 C 21 18.3 21.1 17.7 21.1 16.7 C 21.15 16.74 21.1 12.5 21.1 12.5 Z M 24.2 19.9 L 24.2 12.5 L 25.2 12.5 L 25.2 19.9 L 24.2 19.9 Z M 27.3 19.9 L 27.3 12.5 C 27.3 12.5 30.04 12.49 30 12.5 C 30.5 12.5 30.9 12.5 31.2 12.6 C 31.5 12.6 31.8 12.7 32.1 12.9 C 32.3 13.1 32.5 13.3 32.7 13.6 C 32.8 13.9 32.9 14.3 32.9 14.6 C 32.9 15.2 32.7 15.8 32.3 16.2 C 31.9 16.6 31.2 16.9 30.1 16.9 C 30.13 16.86 28.2 16.9 28.2 16.9 L 28.2 19.9 L 27.3 19.9 Z M 28.2 16 C 28.2 16 30.15 15.99 30.1 16 C 30.8 16 31.2 15.9 31.5 15.6 C 31.8 15.4 31.9 15.1 31.9 14.6 C 31.9 14.3 31.8 14.1 31.7 13.9 C 31.5 13.6 31.3 13.5 31 13.4 C 30.9 13.4 30.6 13.4 30.1 13.4 C 30.13 13.36 28.2 13.4 28.2 13.4 L 28.2 16 Z M 34.3 19.9 L 34.3 12.5 L 35.8 12.5 C 35.8 12.5 37.55 17.71 37.6 17.7 C 37.7 18.2 37.8 18.6 37.9 18.8 C 38 18.5 38.1 18.1 38.3 17.6 C 38.3 17.62 40.1 12.5 40.1 12.5 L 41.4 12.5 L 41.4 19.9 L 40.4 19.9 L 40.4 13.7 L 38.3 19.9 L 37.4 19.9 L 35.3 13.6 L 35.3 19.9 L 34.3 19.9 Z M 43.4 19.9 L 43.4 12.5 L 48.7 12.5 L 48.7 13.4 L 44.4 13.4 L 44.4 15.6 L 48.4 15.6 L 48.4 16.5 L 44.4 16.5 L 44.4 19 L 48.9 19 L 48.9 19.9 L 43.4 19.9 Z M 50.5 19.9 L 50.5 12.5 L 51.5 12.5 L 55.3 18.3 L 55.3 12.5 L 56.3 12.5 L 56.3 19.9 L 55.3 19.9 L 51.4 14.1 L 51.4 19.9 L 50.5 19.9 Z M 60.1 19.9 L 60.1 13.4 L 57.6 13.4 L 57.6 12.5 L 63.5 12.5 L 63.5 13.4 L 61.1 13.4 L 61.1 19.9 L 60.1 19.9 Z M 67.9 19.9 L 67.9 12.5 L 68.9 12.5 L 68.9 19.9 L 67.9 19.9 Z M 70.6 17.5 C 70.6 17.5 71.5 17.4 71.5 17.4 C 71.5 17.8 71.6 18.1 71.8 18.3 C 71.9 18.6 72.2 18.7 72.5 18.9 C 72.9 19 73.2 19.1 73.7 19.1 C 74 19.1 74.4 19.1 74.6 18.9 C 74.9 18.8 75.1 18.7 75.3 18.5 C 75.4 18.3 75.5 18.1 75.5 17.9 C 75.5 17.6 75.4 17.4 75.3 17.3 C 75.2 17.1 74.9 16.9 74.6 16.8 C 74.4 16.7 74 16.6 73.3 16.5 C 72.6 16.3 72.2 16.1 71.9 16 C 71.5 15.8 71.3 15.6 71.1 15.3 C 70.9 15 70.8 14.7 70.8 14.4 C 70.8 14 70.9 13.7 71.2 13.3 C 71.4 13 71.7 12.8 72.1 12.6 C 72.5 12.4 72.9 12.4 73.4 12.4 C 74 12.4 74.5 12.4 74.9 12.6 C 75.3 12.8 75.6 13.1 75.8 13.4 C 76.1 13.7 76.2 14.1 76.2 14.6 C 76.2 14.6 75.3 14.6 75.3 14.6 C 75.2 14.2 75 13.8 74.8 13.6 C 74.5 13.3 74 13.2 73.5 13.2 C 72.9 13.2 72.5 13.3 72.2 13.5 C 71.9 13.8 71.8 14 71.8 14.3 C 71.8 14.6 71.9 14.8 72.1 15 C 72.3 15.2 72.7 15.3 73.5 15.5 C 74.3 15.7 74.9 15.8 75.2 16 C 75.6 16.2 75.9 16.4 76.1 16.7 C 76.3 17 76.4 17.4 76.4 17.8 C 76.4 18.2 76.3 18.5 76.1 18.9 C 75.9 19.2 75.5 19.5 75.1 19.7 C 74.7 19.9 74.2 20 73.7 20 C 73 20 72.5 19.9 72 19.7 C 71.6 19.5 71.2 19.2 71 18.8 C 70.7 18.4 70.6 18 70.6 17.5 Z M 81 19.9 L 81 12.5 L 86.3 12.5 L 86.3 13.4 L 82 13.4 L 82 15.6 L 86.1 15.6 L 86.1 16.5 L 82 16.5 L 82 19 L 86.5 19 L 86.5 19.9 L 81 19.9 Z M 93.6 19.1 C 94 19.4 94.4 19.6 94.8 19.8 C 94.8 19.8 94.5 20.4 94.5 20.4 C 94 20.2 93.5 19.9 92.9 19.5 C 92.4 19.8 91.8 20 91.1 20 C 90.5 20 89.9 19.8 89.3 19.5 C 88.8 19.2 88.4 18.7 88.1 18.1 C 87.8 17.6 87.6 16.9 87.6 16.2 C 87.6 15.4 87.8 14.8 88.1 14.2 C 88.4 13.6 88.8 13.1 89.3 12.8 C 89.9 12.5 90.5 12.4 91.2 12.4 C 91.8 12.4 92.4 12.5 93 12.8 C 93.5 13.2 94 13.6 94.2 14.2 C 94.5 14.8 94.7 15.4 94.7 16.2 C 94.7 16.8 94.6 17.3 94.4 17.8 C 94.2 18.3 93.9 18.7 93.6 19.1 Z M 91.4 17.8 C 92 18 92.4 18.2 92.8 18.5 C 93.4 18 93.7 17.2 93.7 16.2 C 93.7 15.6 93.6 15 93.4 14.6 C 93.2 14.2 92.9 13.8 92.5 13.6 C 92.1 13.3 91.6 13.2 91.2 13.2 C 90.4 13.2 89.8 13.4 89.3 13.9 C 88.9 14.4 88.6 15.2 88.6 16.2 C 88.6 17.1 88.9 17.9 89.3 18.4 C 89.8 18.9 90.4 19.1 91.2 19.1 C 91.5 19.1 91.8 19.1 92.1 19 C 91.8 18.8 91.5 18.6 91.2 18.5 C 91.2 18.5 91.4 17.8 91.4 17.8 Z M 101.2 12.5 L 102.1 12.5 C 102.1 12.5 102.13 16.75 102.1 16.7 C 102.1 17.5 102 18.1 101.9 18.5 C 101.7 18.9 101.4 19.3 101 19.6 C 100.5 19.8 100 20 99.2 20 C 98.6 20 98 19.9 97.6 19.6 C 97.1 19.4 96.8 19 96.6 18.6 C 96.4 18.1 96.3 17.5 96.3 16.7 C 96.33 16.75 96.3 12.5 96.3 12.5 L 97.3 12.5 C 97.3 12.5 97.31 16.74 97.3 16.7 C 97.3 17.4 97.4 17.9 97.5 18.2 C 97.6 18.5 97.8 18.7 98.1 18.9 C 98.4 19 98.7 19.1 99.2 19.1 C 99.9 19.1 100.4 18.9 100.7 18.6 C 101 18.3 101.2 17.7 101.2 16.7 C 101.15 16.74 101.2 12.5 101.2 12.5 Z M 104.2 19.9 L 104.2 12.5 L 105.2 12.5 L 105.2 19.9 L 104.2 19.9 Z M 109.4 19.9 L 106.5 12.5 L 107.6 12.5 C 107.6 12.5 109.5 17.84 109.5 17.8 C 109.7 18.3 109.8 18.7 109.9 19 C 110 18.6 110.1 18.2 110.3 17.8 C 110.28 17.84 112.3 12.5 112.3 12.5 L 113.3 12.5 L 110.4 19.9 L 109.4 19.9 Z M 113.1 19.9 L 116 12.5 L 117 12.5 L 120 19.9 L 118.9 19.9 L 118.1 17.6 L 115 17.6 L 114.2 19.9 L 113.1 19.9 Z M 115.3 16.8 L 117.8 16.8 C 117.8 16.8 116.98 14.79 117 14.8 C 116.7 14.2 116.6 13.7 116.5 13.3 C 116.4 13.7 116.2 14.2 116.1 14.7 C 116.06 14.67 115.3 16.8 115.3 16.8 Z M 121.2 19.9 L 121.2 12.5 L 122.2 12.5 L 122.2 19 L 125.8 19 L 125.8 19.9 L 121.2 19.9 Z M 127.3 19.9 L 127.3 12.5 L 132.6 12.5 L 132.6 13.4 L 128.3 13.4 L 128.3 15.6 L 132.3 15.6 L 132.3 16.5 L 128.3 16.5 L 128.3 19 L 132.8 19 L 132.8 19.9 L 127.3 19.9 Z M 134.3 19.9 L 134.3 12.5 L 135.3 12.5 L 139.2 18.3 L 139.2 12.5 L 140.1 12.5 L 140.1 19.9 L 139.1 19.9 L 135.3 14.1 L 135.3 19.9 L 134.3 19.9 Z M 144 19.9 L 144 13.4 L 141.5 13.4 L 141.5 12.5 L 147.4 12.5 L 147.4 13.4 L 144.9 13.4 L 144.9 19.9 L 144 19.9 Z " stroke="none" fill="#fff"/>
  </g>
  <g id="Polygon64617">
    <path d="M 1 7.5 L 1 0.1 C 1 0.1 4.26 0.13 4.3 0.1 C 4.9 0.1 5.4 0.2 5.8 0.3 C 6.1 0.5 6.4 0.7 6.6 1 C 6.8 1.4 6.9 1.7 6.9 2.1 C 6.9 2.7 6.7 3.1 6.4 3.5 C 6 3.8 5.5 4 4.8 4.1 C 5.1 4.3 5.3 4.4 5.4 4.5 C 5.7 4.8 6 5.1 6.2 5.5 C 6.21 5.49 7.5 7.5 7.5 7.5 L 6.3 7.5 C 6.3 7.5 5.29 5.96 5.3 6 C 5 5.5 4.8 5.2 4.6 4.9 C 4.4 4.7 4.2 4.5 4.1 4.5 C 3.9 4.4 3.8 4.3 3.6 4.3 C 3.5 4.2 3.3 4.2 3.1 4.2 C 3.1 4.22 2 4.2 2 4.2 L 2 7.5 L 1 7.5 Z M 2 3.4 C 2 3.4 4.06 3.38 4.1 3.4 C 4.5 3.4 4.9 3.3 5.1 3.2 C 5.4 3.1 5.6 3 5.7 2.8 C 5.8 2.6 5.9 2.4 5.9 2.1 C 5.9 1.8 5.8 1.5 5.5 1.3 C 5.2 1.1 4.8 0.9 4.3 0.9 C 4.3 0.94 2 0.9 2 0.9 L 2 3.4 Z M 8.8 7.5 L 8.8 0.1 L 14.1 0.1 L 14.1 1 L 9.8 1 L 9.8 3.3 L 13.9 3.3 L 13.9 4.1 L 9.8 4.1 L 9.8 6.6 L 14.3 6.6 L 14.3 7.5 L 8.8 7.5 Z M 21 4.9 C 21 4.9 22 5.2 22 5.2 C 21.8 6 21.4 6.6 20.9 7 C 20.3 7.4 19.7 7.6 18.9 7.6 C 18.1 7.6 17.5 7.5 17 7.1 C 16.5 6.8 16.1 6.3 15.8 5.7 C 15.6 5.1 15.5 4.5 15.5 3.8 C 15.5 3 15.6 2.3 15.9 1.7 C 16.2 1.2 16.6 0.7 17.1 0.4 C 17.7 0.1 18.3 0 18.9 0 C 19.7 0 20.3 0.2 20.8 0.6 C 21.3 0.9 21.6 1.5 21.8 2.1 C 21.8 2.1 20.9 2.4 20.9 2.4 C 20.7 1.8 20.5 1.4 20.1 1.2 C 19.8 1 19.4 0.8 18.9 0.8 C 18.3 0.8 17.9 1 17.5 1.2 C 17.1 1.5 16.8 1.9 16.7 2.3 C 16.5 2.8 16.5 3.3 16.5 3.8 C 16.5 4.4 16.6 4.9 16.7 5.4 C 16.9 5.9 17.2 6.2 17.6 6.4 C 18 6.7 18.4 6.8 18.8 6.8 C 19.4 6.8 19.8 6.6 20.2 6.3 C 20.6 6 20.9 5.5 21 4.9 Z M 25.3 7.5 L 25.3 4.4 L 22.5 0.1 L 23.6 0.1 C 23.6 0.1 25.1 2.35 25.1 2.3 C 25.4 2.8 25.6 3.2 25.8 3.6 C 26.1 3.2 26.3 2.8 26.7 2.3 C 26.65 2.29 28.1 0.1 28.1 0.1 L 29.2 0.1 L 26.3 4.4 L 26.3 7.5 L 25.3 7.5 Z M 35.2 4.9 C 35.2 4.9 36.2 5.2 36.2 5.2 C 36 6 35.6 6.6 35.1 7 C 34.5 7.4 33.9 7.6 33.1 7.6 C 32.3 7.6 31.7 7.5 31.2 7.1 C 30.7 6.8 30.3 6.3 30.1 5.7 C 29.8 5.1 29.7 4.5 29.7 3.8 C 29.7 3 29.8 2.3 30.1 1.7 C 30.4 1.2 30.8 0.7 31.4 0.4 C 31.9 0.1 32.5 0 33.1 0 C 33.9 0 34.5 0.2 35 0.6 C 35.5 0.9 35.9 1.5 36.1 2.1 C 36.1 2.1 35.1 2.4 35.1 2.4 C 34.9 1.8 34.7 1.4 34.3 1.2 C 34 1 33.6 0.8 33.1 0.8 C 32.6 0.8 32.1 1 31.7 1.2 C 31.3 1.5 31.1 1.9 30.9 2.3 C 30.7 2.8 30.7 3.3 30.7 3.8 C 30.7 4.4 30.8 4.9 30.9 5.4 C 31.1 5.9 31.4 6.2 31.8 6.4 C 32.2 6.7 32.6 6.8 33 6.8 C 33.6 6.8 34.1 6.6 34.4 6.3 C 34.8 6 35.1 5.5 35.2 4.9 Z M 37.7 7.5 L 37.7 0.1 L 38.7 0.1 L 38.7 6.6 L 42.3 6.6 L 42.3 7.5 L 37.7 7.5 Z M 43.7 7.5 L 43.7 0.1 L 49.1 0.1 L 49.1 1 L 44.7 1 L 44.7 3.3 L 48.8 3.3 L 48.8 4.1 L 44.7 4.1 L 44.7 6.6 L 49.2 6.6 L 49.2 7.5 L 43.7 7.5 Z M 50.8 7.5 L 50.8 0.1 C 50.8 0.1 53.35 0.13 53.4 0.1 C 53.9 0.1 54.4 0.2 54.7 0.2 C 55.1 0.3 55.4 0.5 55.7 0.8 C 56.1 1.1 56.4 1.5 56.6 2 C 56.8 2.5 56.9 3.1 56.9 3.8 C 56.9 4.3 56.8 4.8 56.7 5.3 C 56.6 5.7 56.4 6.1 56.2 6.3 C 56 6.6 55.8 6.8 55.5 7 C 55.3 7.2 55 7.3 54.7 7.4 C 54.3 7.5 53.9 7.5 53.5 7.5 C 53.47 7.5 50.8 7.5 50.8 7.5 Z M 51.8 6.6 C 51.8 6.6 53.36 6.63 53.4 6.6 C 53.8 6.6 54.2 6.6 54.5 6.5 C 54.8 6.4 55 6.3 55.2 6.1 C 55.4 5.9 55.6 5.6 55.7 5.2 C 55.8 4.8 55.9 4.3 55.9 3.8 C 55.9 3 55.8 2.4 55.5 2 C 55.3 1.6 55 1.3 54.6 1.1 C 54.3 1 53.9 1 53.3 1 C 53.34 1 51.8 1 51.8 1 L 51.8 6.6 Z M 63.3 7.5 L 63.3 1 L 60.9 1 L 60.9 0.1 L 66.8 0.1 L 66.8 1 L 64.3 1 L 64.3 7.5 L 63.3 7.5 Z M 68.1 7.5 L 68.1 0.1 L 73.4 0.1 L 73.4 1 L 69.1 1 L 69.1 3.3 L 73.2 3.3 L 73.2 4.1 L 69.1 4.1 L 69.1 6.6 L 73.6 6.6 L 73.6 7.5 L 68.1 7.5 Z M 80.3 4.9 C 80.3 4.9 81.3 5.2 81.3 5.2 C 81.1 6 80.7 6.6 80.2 7 C 79.6 7.4 79 7.6 78.2 7.6 C 77.4 7.6 76.8 7.5 76.3 7.1 C 75.8 6.8 75.4 6.3 75.2 5.7 C 74.9 5.1 74.8 4.5 74.8 3.8 C 74.8 3 74.9 2.3 75.2 1.7 C 75.5 1.2 75.9 0.7 76.5 0.4 C 77 0.1 77.6 0 78.2 0 C 79 0 79.6 0.2 80.1 0.6 C 80.6 0.9 81 1.5 81.2 2.1 C 81.2 2.1 80.2 2.4 80.2 2.4 C 80 1.8 79.8 1.4 79.5 1.2 C 79.1 1 78.7 0.8 78.2 0.8 C 77.7 0.8 77.2 1 76.8 1.2 C 76.4 1.5 76.2 1.9 76 2.3 C 75.8 2.8 75.8 3.3 75.8 3.8 C 75.8 4.4 75.9 4.9 76 5.4 C 76.2 5.9 76.5 6.2 76.9 6.4 C 77.3 6.7 77.7 6.8 78.2 6.8 C 78.7 6.8 79.2 6.6 79.5 6.3 C 79.9 6 80.2 5.5 80.3 4.9 Z M 82.8 7.5 L 82.8 0.1 L 83.8 0.1 L 83.8 3.2 L 87.6 3.2 L 87.6 0.1 L 88.6 0.1 L 88.6 7.5 L 87.6 7.5 L 87.6 4 L 83.8 4 L 83.8 7.5 L 82.8 7.5 Z M 90.6 7.5 L 90.6 0.1 L 91.6 0.1 L 95.5 5.9 L 95.5 0.1 L 96.5 0.1 L 96.5 7.5 L 95.5 7.5 L 91.6 1.7 L 91.6 7.5 L 90.6 7.5 Z M 98.2 3.9 C 98.2 2.7 98.5 1.7 99.1 1 C 99.8 0.3 100.7 0 101.7 0 C 102.4 0 103 0.2 103.5 0.5 C 104.1 0.8 104.5 1.3 104.8 1.8 C 105.1 2.4 105.2 3.1 105.2 3.8 C 105.2 4.6 105.1 5.2 104.8 5.8 C 104.5 6.4 104 6.9 103.5 7.2 C 102.9 7.5 102.3 7.6 101.7 7.6 C 101 7.6 100.4 7.5 99.8 7.1 C 99.3 6.8 98.9 6.3 98.6 5.7 C 98.3 5.2 98.2 4.6 98.2 3.9 Z M 99.2 3.9 C 99.2 4.8 99.4 5.5 99.9 6 C 100.4 6.5 101 6.8 101.7 6.8 C 102.4 6.8 103 6.5 103.5 6 C 104 5.5 104.2 4.8 104.2 3.8 C 104.2 3.2 104.1 2.7 103.9 2.2 C 103.7 1.8 103.4 1.5 103 1.2 C 102.6 1 102.2 0.8 101.7 0.8 C 101 0.8 100.4 1.1 99.9 1.5 C 99.4 2 99.2 2.8 99.2 3.9 Z M 106.8 7.5 L 106.8 0.1 L 107.8 0.1 L 107.8 6.6 L 111.5 6.6 L 111.5 7.5 L 106.8 7.5 Z M 112.3 3.9 C 112.3 2.7 112.6 1.7 113.3 1 C 113.9 0.3 114.8 0 115.8 0 C 116.5 0 117.1 0.2 117.6 0.5 C 118.2 0.8 118.6 1.3 118.9 1.8 C 119.2 2.4 119.3 3.1 119.3 3.8 C 119.3 4.6 119.2 5.2 118.9 5.8 C 118.6 6.4 118.1 6.9 117.6 7.2 C 117 7.5 116.4 7.6 115.8 7.6 C 115.1 7.6 114.5 7.5 113.9 7.1 C 113.4 6.8 113 6.3 112.7 5.7 C 112.4 5.2 112.3 4.6 112.3 3.9 Z M 113.3 3.9 C 113.3 4.8 113.5 5.5 114 6 C 114.5 6.5 115.1 6.8 115.8 6.8 C 116.5 6.8 117.1 6.5 117.6 6 C 118.1 5.5 118.3 4.8 118.3 3.8 C 118.3 3.2 118.2 2.7 118 2.2 C 117.8 1.8 117.5 1.5 117.1 1.2 C 116.7 1 116.3 0.8 115.8 0.8 C 115.1 0.8 114.5 1.1 114 1.5 C 113.5 2 113.3 2.8 113.3 3.9 Z M 124.4 4.6 L 124.4 3.7 L 127.5 3.7 C 127.5 3.7 127.49 6.47 127.5 6.5 C 127 6.9 126.5 7.1 126 7.3 C 125.5 7.5 125 7.6 124.4 7.6 C 123.7 7.6 123.1 7.5 122.5 7.2 C 121.9 6.8 121.4 6.4 121.1 5.8 C 120.8 5.2 120.7 4.6 120.7 3.8 C 120.7 3.1 120.8 2.5 121.1 1.8 C 121.4 1.2 121.9 0.8 122.4 0.5 C 123 0.2 123.6 0 124.4 0 C 124.9 0 125.4 0.1 125.8 0.3 C 126.2 0.4 126.6 0.7 126.8 1 C 127.1 1.3 127.3 1.7 127.4 2.2 C 127.4 2.2 126.5 2.4 126.5 2.4 C 126.4 2.1 126.3 1.8 126.1 1.5 C 125.9 1.3 125.7 1.2 125.4 1 C 125.1 0.9 124.7 0.8 124.4 0.8 C 123.9 0.8 123.5 0.9 123.2 1 C 122.9 1.2 122.6 1.4 122.4 1.6 C 122.2 1.8 122.1 2 122 2.3 C 121.8 2.8 121.7 3.3 121.7 3.8 C 121.7 4.4 121.8 5 122 5.4 C 122.2 5.9 122.6 6.2 123 6.4 C 123.4 6.6 123.9 6.7 124.4 6.7 C 124.8 6.7 125.2 6.7 125.6 6.5 C 126 6.3 126.3 6.2 126.5 6 C 126.54 5.98 126.5 4.6 126.5 4.6 L 124.4 4.6 Z M 131 7.5 L 131 4.4 L 128.1 0.1 L 129.3 0.1 C 129.3 0.1 130.76 2.35 130.8 2.3 C 131 2.8 131.3 3.2 131.5 3.6 C 131.7 3.2 132 2.8 132.3 2.3 C 132.32 2.29 133.7 0.1 133.7 0.1 L 134.9 0.1 L 131.9 4.4 L 131.9 7.5 L 131 7.5 Z " stroke="none" fill="#fff"/>
  </g>
</svg>