<?xml version="1.0" standalone="no"?><!DOCTYPE svg PUBLIC "-//W3C//DTD SVG 1.1//EN" "http://www.w3.org/Graphics/SVG/1.1/DTD/svg11.dtd"><svg xmlns="http://www.w3.org/2000/svg" version="1.1" width="101px" height="40.3px" viewBox="0 -3 101 40.3" style="top:-3px"><desc>RECYCLE Glass, metal &amp; plastic</desc><defs/><g id="Polygon70288"><path d="m.7 18l0-6.7l1.3 0c0 0 1.61 4.78 1.6 4.8c.2.4.3.7.3 1c.1-.3.2-.6.4-1.1c-.01-.01 1.6-4.7 1.6-4.7l1.2 0l0 6.7l-.9 0l0-5.6l-1.9 5.6l-.8 0l-2-5.7l0 5.7l-.8 0zm7.8 0l0-6.7l4.9 0l0 .8l-4 0l0 2.1l3.7 0l0 .8l-3.7 0l0 2.2l4.1 0l0 .8l-5 0zm8 0l0-5.9l-2.3 0l0-.8l5.4 0l0 .8l-2.3 0l0 5.9l-.8 0zm2.5 0l2.6-6.7l1 0l2.7 6.7l-1 0l-.8-2l-2.8 0l-.7 2l-1 0zm2-2.7l2.2 0c0 0-.67-1.87-.7-1.9c-.2-.5-.3-1-.4-1.4c-.1.5-.2.9-.4 1.3c0 .02-.7 2-.7 2zm5 2.7l0-6.7l.9 0l0 5.9l3.2 0l0 .8l-4.1 0zm12.2.2c-.3-.2-.7-.5-1-1c-.3.3-.6.6-.9.7c-.3.2-.7.2-1 .2c-.7 0-1.3-.2-1.7-.7c-.3-.3-.5-.7-.5-1.2c0-.4.2-.8.4-1.1c.3-.4.7-.7 1.2-.9c-.3-.4-.5-.6-.6-.9c-.1-.2-.1-.4-.1-.6c0-.4.1-.7.4-1c.4-.3.8-.5 1.2-.5c.5 0 .9.2 1.2.4c.2.3.4.7.4 1.1c0 .6-.4 1.1-1.3 1.6c0 0 1.2 1.5 1.2 1.5c.2-.3.3-.6.4-.9c0 0 .8.2.8.2c-.1.5-.3 1-.6 1.4c.3.4.7.8 1.1 1c-.04.03-.6.7-.6.7c0 0 0-.02 0 0zm-2.7-4.4c.4-.3.6-.4.7-.6c.1-.2.2-.3.2-.5c0-.3-.1-.4-.3-.6c-.1-.1-.3-.2-.5-.2c-.2 0-.4.1-.6.2c-.1.2-.2.3-.2.5c0 .1 0 .2.1.4c.1.1.1.2.2.3c0 0 .4.5.4.5zm1.2 2.8c0 0-1.5-1.9-1.5-1.9c-.5.3-.8.5-.9.8c-.2.2-.3.4-.3.6c0 .3.1.6.3.9c.3.3.6.4 1 .4c.2 0 .5-.1.7-.2c.3-.2.5-.4.7-.6zm5.6 1.4l0-6.7c0 0 2.52.04 2.5 0c.5 0 .8.1 1 .1c.4.1.6.2.9.3c.2.2.4.4.5.7c.1.2.2.5.2.9c0 .5-.2 1-.5 1.4c-.4.4-1.1.6-2 .6c-.01.01-1.7 0-1.7 0l0 2.7l-.9 0zm.9-3.5c0 0 1.71.02 1.7 0c.6 0 1-.1 1.2-.3c.3-.2.4-.5.4-.9c0-.3-.1-.5-.2-.7c-.2-.2-.4-.4-.6-.4c-.1-.1-.4-.1-.8-.1c-.01.03-1.7 0-1.7 0l0 2.4zm5.3 3.5l0-6.7l.9 0l0 5.9l3.3 0l0 .8l-4.2 0zm4.5 0l2.6-6.7l.9 0l2.8 6.7l-1.1 0l-.7-2l-2.8 0l-.8 2l-.9 0zm1.9-2.7l2.3 0c0 0-.7-1.87-.7-1.9c-.2-.5-.4-1-.5-1.4c-.1.5-.2.9-.3 1.3c-.04.02-.8 2-.8 2zm4.8.6c0 0 .8-.1.8-.1c0 .3.1.6.3.8c.1.2.3.4.6.6c.4.1.7.1 1.1.1c.3 0 .6 0 .9-.1c.2-.1.4-.2.5-.4c.2-.2.2-.4.2-.6c0-.2 0-.4-.1-.5c-.2-.2-.4-.3-.6-.4c-.2-.1-.6-.2-1.2-.4c-.7-.1-1.1-.2-1.3-.4c-.3-.1-.6-.4-.7-.6c-.2-.2-.3-.5-.3-.8c0-.4.1-.7.3-1c.2-.3.5-.5.8-.7c.4-.1.8-.2 1.3-.2c.5 0 .9.1 1.3.3c.4.1.7.4.9.7c.2.3.3.6.3 1c0 0-.9.1-.9.1c0-.4-.2-.8-.4-1c-.3-.2-.7-.3-1.2-.3c-.5 0-.9.1-1.2.3c-.2.2-.3.4-.3.7c0 .2.1.4.2.6c.2.2.6.3 1.4.5c.7.1 1.2.3 1.5.4c.3.2.6.4.8.7c.2.3.3.6.3.9c0 .4-.1.7-.3 1c-.2.4-.5.6-.9.8c-.4.2-.8.2-1.3.2c-.6 0-1.1 0-1.5-.2c-.4-.2-.7-.5-1-.8c-.2-.4-.3-.8-.3-1.2zm8.2 2.1l0-5.9l-2.2 0l0-.8l5.3 0l0 .8l-2.2 0l0 5.9l-.9 0zm4.2 0l0-6.7l.9 0l0 6.7l-.9 0zm7.2-2.3c0 0 .9.2.9.2c-.2.7-.5 1.3-1 1.7c-.5.4-1.1.5-1.8.5c-.7 0-1.3-.1-1.8-.4c-.4-.3-.8-.7-1-1.3c-.2-.5-.3-1.1-.3-1.8c0-.7.1-1.3.4-1.8c.2-.5.6-.9 1.1-1.2c.5-.2 1-.4 1.6-.4c.7 0 1.2.2 1.7.5c.5.4.8.9 1 1.5c0 0-.9.2-.9.2c-.2-.5-.4-.9-.7-1.1c-.3-.2-.7-.3-1.1-.3c-.5 0-.9.1-1.3.3c-.3.3-.6.6-.7 1c-.2.5-.2.9-.2 1.3c0 .6.1 1.1.2 1.5c.2.4.4.8.8 1c.3.2.7.3 1.1.3c.5 0 .9-.2 1.3-.4c.3-.3.6-.8.7-1.3z" stroke="none" fill="#ffffff"/></g><g id="Polygon70287"><path d="m.7 6.8l0-6.7c0 0 3 .01 3 0c.6 0 1.1.1 1.4.2c.3.1.5.3.7.6c.2.3.3.7.3 1c0 .5-.2.9-.5 1.2c-.3.4-.8.6-1.4.7c.2.1.4.2.5.3c.3.2.5.5.8.9c-.03-.01 1.1 1.8 1.1 1.8l-1.1 0c0 0-.87-1.38-.9-1.4c-.2-.4-.4-.7-.6-.9c-.2-.2-.3-.4-.5-.5c-.1 0-.2-.1-.4-.1c-.1-.1-.2-.1-.5-.1c.05.04-1 0-1 0l0 3l-.9 0zm.9-3.7c0 0 1.92-.03 1.9 0c.4 0 .7-.1 1-.2c.2 0 .4-.2.5-.4c.1-.1.2-.3.2-.6c0-.3-.1-.5-.4-.7c-.2-.2-.6-.3-1.1-.3c.04-.05-2.1 0-2.1 0l0 2.2zm5.9 3.7l0-6.7l4.8 0l0 .8l-3.9 0l0 2.1l3.7 0l0 .7l-3.7 0l0 2.3l4.1 0l0 .8l-5 0zm11-2.3c0 0 .9.2.9.2c-.2.7-.5 1.3-1 1.6c-.5.4-1.1.6-1.8.6c-.7 0-1.3-.1-1.8-.4c-.4-.3-.8-.7-1-1.3c-.2-.6-.3-1.1-.3-1.8c0-.7.1-1.3.4-1.8c.2-.5.6-.9 1.1-1.2c.5-.3 1-.4 1.6-.4c.7 0 1.2.2 1.7.5c.5.4.8.8 1 1.4c0 0-.9.3-.9.3c-.2-.5-.4-.9-.7-1.1c-.3-.2-.7-.3-1.1-.3c-.5 0-.9.1-1.3.3c-.3.3-.6.6-.7 1c-.2.4-.2.9-.2 1.3c0 .6.1 1.1.2 1.5c.2.4.4.7.8.9c.3.3.7.4 1.1.4c.5 0 .9-.2 1.3-.5c.3-.3.6-.7.7-1.2zm3.9 2.3l0-2.8l-2.6-3.9l1 0c0 0 1.37 2.03 1.4 2c.2.4.4.8.6 1.2c.2-.4.5-.8.8-1.2c-.02-.02 1.3-2 1.3-2l1 0l-2.7 3.9l0 2.8l-.8 0zm9.1-2.3c0 0 .9.2.9.2c-.2.7-.6 1.3-1 1.6c-.5.4-1.1.6-1.8.6c-.7 0-1.3-.1-1.8-.4c-.4-.3-.8-.7-1-1.3c-.2-.6-.4-1.1-.4-1.8c0-.7.2-1.3.4-1.8c.3-.5.7-.9 1.2-1.2c.5-.3 1-.4 1.6-.4c.7 0 1.2.2 1.7.5c.5.4.8.8.9 1.4c0 0-.8.3-.8.3c-.2-.5-.4-.9-.7-1.1c-.3-.2-.7-.3-1.1-.3c-.5 0-1 .1-1.3.3c-.3.3-.6.6-.7 1c-.2.4-.2.9-.2 1.3c0 .6 0 1.1.2 1.5c.2.4.4.7.8.9c.3.3.7.4 1.1.4c.5 0 .9-.2 1.3-.5c.3-.3.6-.7.7-1.2zm1.9 2.3l0-6.7l.9 0l0 5.9l3.3 0l0 .8l-4.2 0zm5.3 0l0-6.7l4.8 0l0 .8l-3.9 0l0 2.1l3.7 0l0 .7l-3.7 0l0 2.3l4.1 0l0 .8l-5 0zm11.9-2.6l0-.8l2.9 0c0 0-.04 2.48 0 2.5c-.5.3-.9.6-1.4.8c-.5.1-.9.2-1.4.2c-.7 0-1.3-.1-1.8-.4c-.5-.3-.9-.7-1.2-1.2c-.3-.6-.4-1.1-.4-1.8c0-.7.1-1.3.4-1.8c.2-.6.6-1 1.2-1.3c.5-.3 1.1-.4 1.7-.4c.5 0 .9.1 1.3.2c.4.2.7.4 1 .7c.2.3.3.6.5 1.1c0 0-.8.2-.8.2c-.1-.3-.3-.6-.4-.8c-.2-.2-.4-.3-.7-.5c-.2-.1-.5-.1-.9-.1c-.4 0-.7 0-1 .1c-.3.2-.6.3-.7.5c-.2.2-.4.5-.5.7c-.1.4-.2.9-.2 1.3c0 .6.1 1.1.3 1.5c.2.4.5.7.9.9c.4.2.8.3 1.2.3c.4 0 .8-.1 1.2-.2c.3-.1.6-.3.8-.5c-.01.03 0-1.2 0-1.2l-2 0zm4.1 2.6l0-6.7l.9 0l0 5.9l3.3 0l0 .8l-4.2 0zm4.5 0l2.6-6.7l1 0l2.7 6.7l-1 0l-.8-2l-2.8 0l-.7 2l-1 0zm2-2.7l2.2 0c0 0-.67-1.89-.7-1.9c-.2-.6-.3-1-.4-1.4c-.1.4-.2.9-.4 1.3c0 0-.7 2-.7 2zm4.7.6c0 0 .8-.1.8-.1c.1.3.2.6.3.8c.2.2.4.4.7.5c.3.2.6.2 1 .2c.4 0 .7 0 .9-.1c.3-.1.5-.3.6-.4c.1-.2.2-.4.2-.6c0-.2-.1-.4-.2-.6c-.1-.1-.3-.2-.6-.4c-.2 0-.6-.1-1.2-.3c-.6-.1-1-.3-1.3-.4c-.3-.2-.6-.4-.7-.6c-.2-.3-.2-.5-.2-.9c0-.3.1-.6.2-.9c.2-.3.5-.5.9-.7c.4-.1.8-.2 1.2-.2c.5 0 .9.1 1.3.2c.4.2.7.4.9.7c.2.4.3.7.3 1.1c0 0-.8.1-.8.1c-.1-.5-.2-.8-.5-1c-.2-.2-.6-.3-1.2-.3c-.5 0-.9.1-1.1.3c-.3.2-.4.4-.4.7c0 .2.1.4.3.6c.1.1.6.3 1.3.5c.7.1 1.2.3 1.5.4c.4.2.7.4.9.7c.1.2.2.6.2.9c0 .4-.1.7-.3 1c-.2.3-.5.6-.9.8c-.3.1-.8.2-1.2.2c-.7 0-1.2-.1-1.6-.2c-.4-.2-.7-.5-.9-.8c-.3-.4-.4-.8-.4-1.2zm6.2 0c0 0 .9-.1.9-.1c0 .3.1.6.3.8c.1.2.3.4.6.5c.3.2.7.2 1.1.2c.3 0 .6 0 .8-.1c.3-.1.5-.3.6-.4c.2-.2.2-.4.2-.6c0-.2 0-.4-.2-.6c-.1-.1-.3-.2-.6-.4c-.2 0-.5-.1-1.2-.3c-.6-.1-1-.3-1.3-.4c-.3-.2-.5-.4-.7-.6c-.1-.3-.2-.5-.2-.9c0-.3.1-.6.3-.9c.2-.3.5-.5.8-.7c.4-.1.8-.2 1.3-.2c.4 0 .9.1 1.3.2c.3.2.6.4.8.7c.2.4.4.7.4 1.1c0 0-.9.1-.9.1c0-.5-.2-.8-.4-1c-.3-.2-.7-.3-1.2-.3c-.5 0-.9.1-1.2.3c-.2.2-.4.4-.4.7c0 .2.1.4.3.6c.2.1.6.3 1.3.5c.8.1 1.3.3 1.5.4c.4.2.7.4.9.7c.2.2.3.6.3.9c0 .4-.1.7-.3 1c-.2.3-.5.6-.9.8c-.4.1-.8.2-1.3.2c-.6 0-1.1-.1-1.5-.2c-.4-.2-.8-.5-1-.8c-.2-.4-.3-.8-.4-1.2zm6.7 2.1l0-.9l.9 0c0 0 .02.91 0 .9c0 .4 0 .6-.2.8c-.1.3-.3.4-.5.5c0 0-.3-.3-.3-.3c.2-.1.3-.2.4-.4c.1-.1.1-.3.2-.6c-.05.01-.5 0-.5 0z" stroke="none" fill="#ffffff"/></g></svg>