<?xml version="1.0" standalone="no"?>
<!DOCTYPE svg PUBLIC "-//W3C//DTD SVG 1.1//EN" "http://www.w3.org/Graphics/SVG/1.1/DTD/svg11.dtd">
<svg xmlns="http://www.w3.org/2000/svg" version="1.1" width="509.5px" height="72.4px" viewBox="0 -11 509.5 72.4" style="top:-11px">
  <desc>Waste Management</desc>
  <defs/>
  <g id="Polygon64772">
    <path d="M 6.5 23.3 L 0.4 0.4 L 3.5 0.4 C 3.5 0.4 6.98 15.41 7 15.4 C 7.4 17 7.7 18.5 8 20.1 C 8.5 17.6 8.9 16.2 9 15.9 C 8.98 15.86 13.3 0.4 13.3 0.4 L 17 0.4 C 17 0.4 20.28 11.98 20.3 12 C 21.1 14.9 21.7 17.6 22.1 20.1 C 22.4 18.6 22.7 17 23.2 15.1 C 23.2 15.11 26.8 0.4 26.8 0.4 L 29.8 0.4 L 23.6 23.3 L 20.6 23.3 C 20.6 23.3 15.81 5.84 15.8 5.8 C 15.4 4.4 15.2 3.5 15.1 3.2 C 14.9 4.2 14.6 5.1 14.4 5.8 C 14.42 5.84 9.6 23.3 9.6 23.3 L 6.5 23.3 Z M 42.5 23.3 C 42.2 22.7 42 22 42 21.3 C 40.9 22.1 39.9 22.8 38.9 23.1 C 38 23.5 36.9 23.7 35.8 23.7 C 34 23.7 32.6 23.2 31.6 22.3 C 30.7 21.4 30.2 20.3 30.2 18.9 C 30.2 18.1 30.4 17.4 30.7 16.7 C 31.1 16 31.6 15.5 32.2 15.1 C 32.8 14.7 33.5 14.4 34.2 14.2 C 34.8 14 35.6 13.9 36.7 13.7 C 39 13.5 40.6 13.1 41.7 12.8 C 41.7 12.4 41.7 12.1 41.7 12 C 41.7 10.9 41.5 10.1 40.9 9.6 C 40.2 9 39.2 8.7 37.7 8.7 C 36.4 8.7 35.4 8.9 34.8 9.4 C 34.2 9.8 33.7 10.6 33.4 11.8 C 33.4 11.8 30.7 11.4 30.7 11.4 C 30.9 10.3 31.3 9.3 31.9 8.6 C 32.5 7.9 33.3 7.3 34.4 6.9 C 35.5 6.5 36.7 6.3 38.1 6.3 C 39.6 6.3 40.7 6.5 41.6 6.8 C 42.5 7.2 43.1 7.6 43.5 8.1 C 44 8.6 44.3 9.2 44.4 10 C 44.5 10.5 44.6 11.3 44.6 12.6 C 44.6 12.6 44.6 16.3 44.6 16.3 C 44.6 19 44.6 20.6 44.7 21.3 C 44.9 22 45.1 22.7 45.5 23.3 C 45.45 23.3 42.5 23.3 42.5 23.3 C 42.5 23.3 42.52 23.3 42.5 23.3 Z M 41.7 15 C 40.7 15.4 39.2 15.7 37.1 16 C 36 16.2 35.2 16.4 34.7 16.6 C 34.2 16.8 33.8 17.1 33.6 17.5 C 33.3 17.9 33.2 18.4 33.2 18.8 C 33.2 19.6 33.5 20.2 34 20.7 C 34.6 21.2 35.4 21.5 36.5 21.5 C 37.6 21.5 38.6 21.2 39.4 20.8 C 40.3 20.3 40.9 19.6 41.3 18.8 C 41.6 18.2 41.7 17.2 41.7 16 C 41.7 16 41.7 15 41.7 15 Z M 47.8 18.3 C 47.8 18.3 50.6 17.9 50.6 17.9 C 50.7 19 51.2 19.9 51.9 20.5 C 52.6 21.1 53.6 21.4 54.9 21.4 C 56.2 21.4 57.1 21.1 57.8 20.6 C 58.4 20 58.7 19.4 58.7 18.7 C 58.7 18.1 58.4 17.6 57.9 17.2 C 57.5 17 56.5 16.7 55 16.3 C 52.9 15.7 51.5 15.3 50.7 14.9 C 49.9 14.5 49.3 14 48.9 13.3 C 48.5 12.7 48.3 11.9 48.3 11.1 C 48.3 10.4 48.4 9.7 48.8 9.1 C 49.1 8.4 49.6 7.9 50.2 7.5 C 50.6 7.2 51.2 6.9 51.9 6.7 C 52.7 6.4 53.5 6.3 54.4 6.3 C 55.7 6.3 56.8 6.5 57.8 6.9 C 58.8 7.3 59.5 7.8 60 8.4 C 60.5 9.1 60.8 9.9 61 11 C 61 11 58.2 11.4 58.2 11.4 C 58.1 10.5 57.7 9.8 57.1 9.4 C 56.5 8.9 55.7 8.6 54.6 8.6 C 53.3 8.6 52.4 8.9 51.8 9.3 C 51.3 9.7 51 10.2 51 10.8 C 51 11.1 51.1 11.5 51.3 11.8 C 51.6 12.1 51.9 12.3 52.4 12.5 C 52.7 12.6 53.5 12.9 54.9 13.2 C 56.9 13.8 58.3 14.2 59.1 14.5 C 59.8 14.9 60.5 15.4 60.9 16 C 61.4 16.7 61.6 17.5 61.6 18.4 C 61.6 19.4 61.3 20.2 60.8 21.1 C 60.2 21.9 59.4 22.5 58.4 23 C 57.4 23.4 56.2 23.7 54.9 23.7 C 52.7 23.7 51.1 23.2 50 22.3 C 48.8 21.4 48.1 20.1 47.8 18.3 Z M 69.8 20.9 C 70.1 20.9 70.6 20.9 71.1 20.8 C 71.1 20.8 71.5 23.3 71.5 23.3 C 70.7 23.4 70 23.5 69.3 23.5 C 68.3 23.5 67.5 23.4 67 23 C 66.4 22.7 66 22.3 65.8 21.8 C 65.6 21.2 65.4 20.1 65.4 18.4 C 65.44 18.44 65.4 8.9 65.4 8.9 L 63.4 8.9 L 63.4 6.7 L 65.4 6.7 L 65.4 2.6 L 68.2 0.9 L 68.2 6.7 L 71.1 6.7 L 71.1 8.9 L 68.2 8.9 C 68.2 8.9 68.23 18.59 68.2 18.6 C 68.2 19.4 68.3 19.9 68.4 20.1 C 68.5 20.4 68.6 20.6 68.9 20.7 C 69.1 20.8 69.4 20.9 69.8 20.9 C 69.8 20.9 69.8 20.9 69.8 20.9 Z M 85.2 18 C 85.2 18 88.1 18.3 88.1 18.3 C 87.6 20 86.8 21.3 85.5 22.3 C 84.3 23.2 82.7 23.7 80.8 23.7 C 78.4 23.7 76.4 22.9 75 21.4 C 73.6 19.9 72.9 17.8 72.9 15.1 C 72.9 12.3 73.6 10.2 75 8.6 C 76.5 7.1 78.3 6.3 80.6 6.3 C 82.8 6.3 84.7 7.1 86.1 8.6 C 87.5 10.1 88.2 12.2 88.2 15 C 88.2 15.1 88.2 15.4 88.2 15.7 C 88.2 15.7 75.8 15.7 75.8 15.7 C 75.9 17.5 76.4 18.9 77.3 19.9 C 78.3 20.9 79.4 21.4 80.8 21.4 C 81.8 21.4 82.7 21.1 83.4 20.5 C 84.2 20 84.7 19.1 85.2 18 Z M 75.9 13.4 C 75.9 13.4 85.2 13.4 85.2 13.4 C 85.1 12 84.7 11 84.1 10.3 C 83.2 9.2 82.1 8.6 80.7 8.6 C 79.4 8.6 78.3 9.1 77.4 9.9 C 76.5 10.8 76 12 75.9 13.4 Z M 100.8 23.3 L 100.8 0.4 L 105.3 0.4 C 105.3 0.4 110.75 16.61 110.8 16.6 C 111.3 18.1 111.6 19.3 111.8 20 C 112.1 19.2 112.5 17.9 113.1 16.3 C 113.06 16.33 118.5 0.4 118.5 0.4 L 122.6 0.4 L 122.6 23.3 L 119.7 23.3 L 119.7 4.1 L 113 23.3 L 110.3 23.3 L 103.7 3.8 L 103.7 23.3 L 100.8 23.3 Z M 138.5 23.3 C 138.3 22.7 138.1 22 138 21.3 C 136.9 22.1 135.9 22.8 135 23.1 C 134 23.5 133 23.7 131.9 23.7 C 130.1 23.7 128.7 23.2 127.7 22.3 C 126.7 21.4 126.2 20.3 126.2 18.9 C 126.2 18.1 126.4 17.4 126.8 16.7 C 127.1 16 127.6 15.5 128.2 15.1 C 128.8 14.7 129.5 14.4 130.2 14.2 C 130.8 14 131.6 13.9 132.7 13.7 C 135 13.5 136.7 13.1 137.8 12.8 C 137.8 12.4 137.8 12.1 137.8 12 C 137.8 10.9 137.5 10.1 137 9.6 C 136.3 9 135.2 8.7 133.8 8.7 C 132.4 8.7 131.5 8.9 130.8 9.4 C 130.2 9.8 129.7 10.6 129.4 11.8 C 129.4 11.8 126.7 11.4 126.7 11.4 C 126.9 10.3 127.3 9.3 127.9 8.6 C 128.5 7.9 129.3 7.3 130.4 6.9 C 131.5 6.5 132.7 6.3 134.2 6.3 C 135.6 6.3 136.7 6.5 137.6 6.8 C 138.5 7.2 139.2 7.6 139.6 8.1 C 140 8.6 140.3 9.2 140.5 10 C 140.5 10.5 140.6 11.3 140.6 12.6 C 140.6 12.6 140.6 16.3 140.6 16.3 C 140.6 19 140.7 20.6 140.8 21.3 C 140.9 22 141.1 22.7 141.5 23.3 C 141.48 23.3 138.5 23.3 138.5 23.3 C 138.5 23.3 138.55 23.3 138.5 23.3 Z M 137.8 15 C 136.7 15.4 135.2 15.7 133.2 16 C 132 16.2 131.2 16.4 130.7 16.6 C 130.2 16.8 129.9 17.1 129.6 17.5 C 129.3 17.9 129.2 18.4 129.2 18.8 C 129.2 19.6 129.5 20.2 130.1 20.7 C 130.6 21.2 131.5 21.5 132.5 21.5 C 133.6 21.5 134.6 21.2 135.4 20.8 C 136.3 20.3 136.9 19.6 137.3 18.8 C 137.6 18.2 137.8 17.2 137.8 16 C 137.8 16 137.8 15 137.8 15 Z M 145 23.3 L 145 6.7 L 147.5 6.7 C 147.5 6.7 147.48 9.06 147.5 9.1 C 148.7 7.2 150.5 6.3 152.8 6.3 C 153.8 6.3 154.7 6.5 155.5 6.9 C 156.4 7.2 157 7.7 157.4 8.3 C 157.8 8.9 158.1 9.6 158.3 10.4 C 158.4 10.9 158.4 11.8 158.4 13.1 C 158.44 13.09 158.4 23.3 158.4 23.3 L 155.6 23.3 C 155.6 23.3 155.63 13.2 155.6 13.2 C 155.6 12.1 155.5 11.2 155.3 10.6 C 155.1 10.1 154.7 9.6 154.1 9.3 C 153.6 8.9 152.9 8.8 152.2 8.8 C 151 8.8 149.9 9.1 149.1 9.9 C 148.2 10.7 147.8 12.1 147.8 14.2 C 147.77 14.23 147.8 23.3 147.8 23.3 L 145 23.3 Z M 174.1 23.3 C 173.8 22.7 173.7 22 173.6 21.3 C 172.5 22.1 171.5 22.8 170.6 23.1 C 169.6 23.5 168.6 23.7 167.5 23.7 C 165.6 23.7 164.2 23.2 163.3 22.3 C 162.3 21.4 161.8 20.3 161.8 18.9 C 161.8 18.1 162 17.4 162.4 16.7 C 162.7 16 163.2 15.5 163.8 15.1 C 164.4 14.7 165.1 14.4 165.8 14.2 C 166.4 14 167.2 13.9 168.3 13.7 C 170.6 13.5 172.3 13.1 173.3 12.8 C 173.4 12.4 173.4 12.1 173.4 12 C 173.4 10.9 173.1 10.1 172.6 9.6 C 171.8 9 170.8 8.7 169.4 8.7 C 168 8.7 167.1 8.9 166.4 9.4 C 165.8 9.8 165.3 10.6 165 11.8 C 165 11.8 162.3 11.4 162.3 11.4 C 162.5 10.3 162.9 9.3 163.5 8.6 C 164.1 7.9 164.9 7.3 166 6.9 C 167.1 6.5 168.3 6.3 169.8 6.3 C 171.2 6.3 172.3 6.5 173.2 6.8 C 174.1 7.2 174.8 7.6 175.2 8.1 C 175.6 8.6 175.9 9.2 176 10 C 176.1 10.5 176.2 11.3 176.2 12.6 C 176.2 12.6 176.2 16.3 176.2 16.3 C 176.2 19 176.2 20.6 176.4 21.3 C 176.5 22 176.7 22.7 177.1 23.3 C 177.08 23.3 174.1 23.3 174.1 23.3 C 174.1 23.3 174.14 23.3 174.1 23.3 Z M 173.3 15 C 172.3 15.4 170.8 15.7 168.8 16 C 167.6 16.2 166.8 16.4 166.3 16.6 C 165.8 16.8 165.4 17.1 165.2 17.5 C 164.9 17.9 164.8 18.4 164.8 18.8 C 164.8 19.6 165.1 20.2 165.6 20.7 C 166.2 21.2 167 21.5 168.1 21.5 C 169.2 21.5 170.2 21.2 171 20.8 C 171.9 20.3 172.5 19.6 172.9 18.8 C 173.2 18.2 173.3 17.2 173.3 16 C 173.3 16 173.3 15 173.3 15 Z M 180 24.7 C 180 24.7 182.8 25.1 182.8 25.1 C 182.9 25.9 183.2 26.5 183.7 26.9 C 184.4 27.4 185.4 27.7 186.6 27.7 C 187.9 27.7 188.9 27.4 189.6 26.9 C 190.3 26.4 190.8 25.7 191 24.7 C 191.2 24.2 191.2 23 191.2 21.1 C 190 22.6 188.5 23.3 186.6 23.3 C 184.4 23.3 182.6 22.5 181.3 20.8 C 180.1 19.2 179.5 17.2 179.5 14.9 C 179.5 13.3 179.8 11.9 180.3 10.5 C 180.9 9.2 181.7 8.2 182.8 7.4 C 183.9 6.7 185.2 6.3 186.7 6.3 C 188.6 6.3 190.2 7.1 191.5 8.7 C 191.5 8.7 191.5 6.7 191.5 6.7 L 194.1 6.7 C 194.1 6.7 194.09 21.05 194.1 21 C 194.1 23.6 193.8 25.5 193.3 26.5 C 192.8 27.6 191.9 28.5 190.8 29.1 C 189.7 29.7 188.3 30 186.6 30 C 184.6 30 183 29.6 181.8 28.7 C 180.6 27.8 180 26.5 180 24.7 Z M 182.4 14.7 C 182.4 16.9 182.8 18.5 183.7 19.5 C 184.5 20.5 185.6 21 186.9 21 C 188.2 21 189.3 20.5 190.2 19.5 C 191 18.5 191.5 16.9 191.5 14.8 C 191.5 12.8 191 11.2 190.1 10.2 C 189.2 9.2 188.1 8.7 186.9 8.7 C 185.6 8.7 184.5 9.2 183.7 10.2 C 182.8 11.2 182.4 12.7 182.4 14.7 Z M 209.7 18 C 209.7 18 212.6 18.3 212.6 18.3 C 212.2 20 211.3 21.3 210.1 22.3 C 208.8 23.2 207.2 23.7 205.3 23.7 C 202.9 23.7 201 22.9 199.5 21.4 C 198.1 19.9 197.4 17.8 197.4 15.1 C 197.4 12.3 198.1 10.2 199.6 8.6 C 201 7.1 202.9 6.3 205.2 6.3 C 207.4 6.3 209.2 7.1 210.6 8.6 C 212 10.1 212.7 12.2 212.7 15 C 212.7 15.1 212.7 15.4 212.7 15.7 C 212.7 15.7 200.3 15.7 200.3 15.7 C 200.4 17.5 200.9 18.9 201.9 19.9 C 202.8 20.9 203.9 21.4 205.3 21.4 C 206.4 21.4 207.2 21.1 208 20.5 C 208.7 20 209.3 19.1 209.7 18 Z M 200.5 13.4 C 200.5 13.4 209.7 13.4 209.7 13.4 C 209.6 12 209.3 11 208.7 10.3 C 207.8 9.2 206.6 8.6 205.2 8.6 C 203.9 8.6 202.8 9.1 201.9 9.9 C 201 10.8 200.6 12 200.5 13.4 Z M 216.1 23.3 L 216.1 6.7 L 218.7 6.7 C 218.7 6.7 218.66 9.03 218.7 9 C 219.2 8.2 219.9 7.6 220.7 7.1 C 221.6 6.6 222.6 6.3 223.7 6.3 C 224.9 6.3 225.9 6.6 226.7 7.1 C 227.5 7.6 228.1 8.3 228.4 9.2 C 229.7 7.3 231.4 6.3 233.5 6.3 C 235.1 6.3 236.4 6.8 237.3 7.7 C 238.2 8.6 238.6 10 238.6 11.9 C 238.62 11.91 238.6 23.3 238.6 23.3 L 235.8 23.3 C 235.8 23.3 235.83 12.84 235.8 12.8 C 235.8 11.7 235.7 10.9 235.6 10.4 C 235.4 9.9 235 9.5 234.6 9.2 C 234.1 8.9 233.5 8.8 232.9 8.8 C 231.7 8.8 230.7 9.2 230 9.9 C 229.2 10.7 228.8 11.9 228.8 13.7 C 228.81 13.66 228.8 23.3 228.8 23.3 L 226 23.3 C 226 23.3 226 12.52 226 12.5 C 226 11.3 225.8 10.3 225.3 9.7 C 224.9 9.1 224.1 8.8 223.1 8.8 C 222.3 8.8 221.5 9 220.9 9.4 C 220.2 9.8 219.7 10.4 219.4 11.2 C 219.1 12 219 13.2 219 14.7 C 218.95 14.69 219 23.3 219 23.3 L 216.1 23.3 Z M 254.2 18 C 254.2 18 257.1 18.3 257.1 18.3 C 256.6 20 255.8 21.3 254.5 22.3 C 253.3 23.2 251.7 23.7 249.8 23.7 C 247.3 23.7 245.4 22.9 244 21.4 C 242.6 19.9 241.9 17.8 241.9 15.1 C 241.9 12.3 242.6 10.2 244 8.6 C 245.5 7.1 247.3 6.3 249.6 6.3 C 251.8 6.3 253.6 7.1 255 8.6 C 256.5 10.1 257.2 12.2 257.2 15 C 257.2 15.1 257.2 15.4 257.1 15.7 C 257.1 15.7 244.8 15.7 244.8 15.7 C 244.9 17.5 245.4 18.9 246.3 19.9 C 247.2 20.9 248.4 21.4 249.8 21.4 C 250.8 21.4 251.7 21.1 252.4 20.5 C 253.2 20 253.7 19.1 254.2 18 Z M 244.9 13.4 C 244.9 13.4 254.2 13.4 254.2 13.4 C 254.1 12 253.7 11 253.1 10.3 C 252.2 9.2 251.1 8.6 249.6 8.6 C 248.3 8.6 247.3 9.1 246.4 9.9 C 245.5 10.8 245 12 244.9 13.4 Z M 260.6 23.3 L 260.6 6.7 L 263.1 6.7 C 263.1 6.7 263.12 9.06 263.1 9.1 C 264.3 7.2 266.1 6.3 268.4 6.3 C 269.4 6.3 270.3 6.5 271.2 6.9 C 272 7.2 272.6 7.7 273 8.3 C 273.5 8.9 273.8 9.6 273.9 10.4 C 274 10.9 274.1 11.8 274.1 13.1 C 274.08 13.09 274.1 23.3 274.1 23.3 L 271.3 23.3 C 271.3 23.3 271.27 13.2 271.3 13.2 C 271.3 12.1 271.2 11.2 270.9 10.6 C 270.7 10.1 270.3 9.6 269.8 9.3 C 269.2 8.9 268.6 8.8 267.8 8.8 C 266.6 8.8 265.6 9.1 264.7 9.9 C 263.8 10.7 263.4 12.1 263.4 14.2 C 263.41 14.23 263.4 23.3 263.4 23.3 L 260.6 23.3 Z M 283.3 20.9 C 283.6 20.9 284 20.9 284.5 20.8 C 284.5 20.8 284.9 23.3 284.9 23.3 C 284.1 23.4 283.4 23.5 282.8 23.5 C 281.8 23.5 281 23.4 280.4 23 C 279.9 22.7 279.5 22.3 279.2 21.8 C 279 21.2 278.9 20.1 278.9 18.4 C 278.91 18.44 278.9 8.9 278.9 8.9 L 276.8 8.9 L 276.8 6.7 L 278.9 6.7 L 278.9 2.6 L 281.7 0.9 L 281.7 6.7 L 284.5 6.7 L 284.5 8.9 L 281.7 8.9 C 281.7 8.9 281.7 18.59 281.7 18.6 C 281.7 19.4 281.8 19.9 281.9 20.1 C 282 20.4 282.1 20.6 282.3 20.7 C 282.6 20.8 282.9 20.9 283.3 20.9 C 283.3 20.9 283.3 20.9 283.3 20.9 Z " stroke="none" fill="#003a5c"/>
  </g>
</svg>