<?xml version="1.0" standalone="no"?><!DOCTYPE svg PUBLIC "-//W3C//DTD SVG 1.1//EN" "http://www.w3.org/Graphics/SVG/1.1/DTD/svg11.dtd"><svg xmlns="http://www.w3.org/2000/svg" version="1.1" width="135px" height="76.9px" viewBox="0 -5 135 76.9" style="top:-5px"><desc>GREEN BUILDING CERTIFICATIONS</desc><defs/><g id="Polygon69067"><path d="m6.5 44.7c0 0 1.1.3 1.1.3c-.2.8-.6 1.5-1.2 1.9c-.6.5-1.3.7-2.1.7c-.9 0-1.6-.2-2.1-.5c-.5-.4-.9-.9-1.2-1.5c-.3-.7-.4-1.4-.4-2.2c0-.8.1-1.5.4-2.1c.3-.6.8-1.1 1.4-1.4c.6-.4 1.2-.5 1.9-.5c.8 0 1.5.2 2 .6c.6.4.9 1 1.2 1.7c0 0-1.1.3-1.1.3c-.2-.6-.4-1-.8-1.3c-.3-.3-.8-.4-1.3-.4c-.6 0-1.1.1-1.5.4c-.5.3-.7.7-.9 1.2c-.2.5-.3 1-.3 1.5c0 .7.1 1.3.3 1.8c.2.5.5.9 1 1.1c.4.3.8.4 1.3.4c.6 0 1.1-.2 1.5-.5c.4-.3.7-.8.8-1.5zm2.4 2.8l0-8l5.8 0l0 1l-4.7 0l0 2.4l4.4 0l0 .9l-4.4 0l0 2.7l4.9 0l0 1l-6 0zm7.4 0l0-8c0 0 3.55.02 3.6 0c.7 0 1.2.1 1.6.2c.3.2.6.4.9.8c.2.4.3.8.3 1.2c0 .6-.2 1-.6 1.4c-.3.4-.9.7-1.7.8c.3.1.5.2.7.4c.3.2.6.6.9 1c-.05.02 1.3 2.2 1.3 2.2l-1.3 0c0 0-1.04-1.67-1-1.7c-.3-.4-.6-.8-.8-1.1c-.2-.2-.4-.4-.5-.5c-.2-.1-.4-.2-.5-.2c-.1 0-.3 0-.6 0c0-.05-1.2 0-1.2 0l0 3.5l-1.1 0zm1.1-4.5c0 0 2.24.04 2.2 0c.5 0 .9 0 1.2-.1c.2-.1.4-.3.6-.5c.1-.2.2-.4.2-.7c0-.4-.1-.7-.4-.9c-.3-.3-.7-.4-1.3-.4c0 0-2.5 0-2.5 0l0 2.6zm8.8 4.5l0-7l-2.7 0l0-1l6.3 0l0 1l-2.6 0l0 7l-1 0zm4.9 0l0-8l1.1 0l0 8l-1.1 0zm3 0l0-8l5.3 0l0 1l-4.3 0l0 2.4l3.8 0l0 1l-3.8 0l0 3.6l-1 0zm6.9 0l0-8l1 0l0 8l-1 0zm8.6-2.8c0 0 1 .3 1 .3c-.2.8-.6 1.5-1.2 1.9c-.5.5-1.2.7-2.1.7c-.8 0-1.5-.2-2.1-.5c-.5-.4-.9-.9-1.2-1.5c-.3-.7-.4-1.4-.4-2.2c0-.8.2-1.5.5-2.1c.3-.6.7-1.1 1.3-1.4c.6-.4 1.3-.5 2-.5c.8 0 1.4.2 2 .6c.5.4.9 1 1.1 1.7c0 0-1 .3-1 .3c-.2-.6-.5-1-.8-1.3c-.4-.3-.8-.4-1.4-.4c-.6 0-1.1.1-1.5.4c-.4.3-.7.7-.9 1.2c-.1.5-.2 1-.2 1.5c0 .7.1 1.3.3 1.8c.2.5.5.9.9 1.1c.4.3.9.4 1.4.4c.5 0 1-.2 1.5-.5c.4-.3.6-.8.8-1.5zm1.5 2.8l3-8l1.2 0l3.2 8l-1.2 0l-.9-2.4l-3.3 0l-.9 2.4l-1.1 0zm2.3-3.3l2.7 0c0 0-.88-2.19-.9-2.2c-.2-.7-.4-1.2-.5-1.6c-.1.5-.3 1-.5 1.5c.03-.02-.8 2.3-.8 2.3zm7.2 3.3l0-7l-2.7 0l0-1l6.3 0l0 1l-2.6 0l0 7l-1 0zm4.9 0l0-8l1.1 0l0 8l-1.1 0zm2.6-3.9c0-1.3.3-2.3 1.1-3.1c.7-.7 1.6-1.1 2.7-1.1c.7 0 1.4.2 2 .5c.6.4 1 .9 1.3 1.5c.3.6.5 1.3.5 2.1c0 .8-.2 1.5-.5 2.2c-.3.6-.8 1.1-1.4 1.4c-.6.4-1.2.5-1.9.5c-.8 0-1.4-.2-2-.5c-.6-.4-1.1-.9-1.4-1.5c-.3-.6-.4-1.3-.4-2zm1.1 0c0 1 .2 1.7.7 2.3c.6.5 1.2.8 2 .8c.8 0 1.4-.3 1.9-.8c.6-.6.8-1.4.8-2.4c0-.6-.1-1.2-.3-1.7c-.2-.5-.6-.8-1-1.1c-.4-.3-.9-.4-1.4-.4c-.7 0-1.4.2-1.9.8c-.6.5-.8 1.3-.8 2.5zm7.8 3.9l0-8l1.1 0l4.2 6.3l0-6.3l1 0l0 8l-1.1 0l-4.1-6.3l0 6.3l-1.1 0zm7.7-2.6c0 0 1-.1 1-.1c.1.4.2.8.4 1c.1.3.4.5.8.6c.3.2.7.3 1.2.3c.4 0 .7-.1 1-.2c.3-.1.6-.3.7-.5c.2-.2.3-.4.3-.7c0-.2-.1-.4-.3-.6c-.1-.2-.3-.4-.7-.5c-.2-.1-.7-.2-1.4-.4c-.7-.2-1.2-.3-1.5-.5c-.4-.2-.7-.4-.9-.7c-.2-.3-.3-.7-.3-1c0-.4.1-.8.4-1.1c.2-.4.5-.7 1-.8c.4-.2.9-.3 1.4-.3c.6 0 1.1.1 1.6.3c.4.2.8.4 1 .8c.3.4.4.8.4 1.3c0 0-1 0-1 0c0-.5-.2-.8-.5-1.1c-.3-.3-.8-.4-1.4-.4c-.7 0-1.1.1-1.4.4c-.3.2-.4.5-.4.8c0 .3.1.5.3.7c.2.2.7.4 1.5.6c.9.2 1.5.3 1.8.5c.5.2.8.5 1 .8c.3.3.4.7.4 1.1c0 .5-.2.9-.4 1.2c-.2.4-.6.7-1 .9c-.5.2-1 .3-1.6.3c-.7 0-1.3-.1-1.8-.3c-.5-.2-.9-.5-1.1-.9c-.3-.5-.5-.9-.5-1.5z" stroke="none" fill="#ffffff"/></g><g id="Polygon69066"><path d="m1.3 31.5l0-12.4c0 0 4.65-.03 4.6 0c1 0 1.8.1 2.3.3c.6.3 1.1.7 1.4 1.2c.3.5.5 1.1.5 1.7c0 .5-.2 1-.5 1.5c-.2.4-.7.8-1.3 1.1c.8.2 1.4.6 1.8 1.1c.4.6.6 1.2.6 1.9c0 .6-.1 1.1-.4 1.6c-.2.5-.5.9-.9 1.2c-.4.3-.8.5-1.4.6c-.5.2-1.2.2-2 .2c.03.03-4.7 0-4.7 0zm1.6-7.2c0 0 2.72 0 2.7 0c.7 0 1.3 0 1.6-.1c.4-.2.7-.4.9-.7c.3-.2.4-.6.4-1c0-.5-.1-.8-.3-1.1c-.2-.4-.5-.6-.9-.7c-.4-.1-1-.2-1.9-.2c.01.04-2.5 0-2.5 0l0 3.8zm0 5.8c0 0 3.13-.04 3.1 0c.6 0 .9-.1 1.1-.1c.4-.1.7-.2 1-.3c.3-.2.5-.4.6-.7c.2-.3.3-.7.3-1.1c0-.4-.1-.9-.4-1.2c-.2-.3-.5-.6-1-.7c-.4-.2-1-.2-1.8-.2c0-.02-2.9 0-2.9 0l0 4.3zm18.2-11l1.7 0c0 0-.02 7.17 0 7.2c0 1.2-.2 2.2-.4 3c-.3.7-.8 1.3-1.6 1.7c-.7.5-1.7.7-2.9.7c-1.2 0-2.1-.2-2.9-.6c-.7-.4-1.2-.9-1.5-1.7c-.4-.8-.5-1.8-.5-3.1c-.02-.03 0-7.2 0-7.2l1.6 0c0 0 .03 7.16 0 7.2c0 1 .1 1.8.3 2.4c.2.5.6.9 1.1 1.1c.5.3 1.1.5 1.8.5c1.2 0 2-.3 2.6-.9c.5-.5.7-1.6.7-3.1c.03-.04 0-7.2 0-7.2zm4.7 12.4l0-12.4l1.7 0l0 12.4l-1.7 0zm4.5 0l0-12.4l1.6 0l0 11l6.2 0l0 1.4l-7.8 0zm9.7 0l0-12.4c0 0 4.33-.03 4.3 0c1 0 1.7 0 2.3.1c.7.2 1.3.5 1.8.9c.6.6 1.1 1.3 1.5 2.2c.3.8.4 1.8.4 2.9c0 1-.1 1.8-.3 2.5c-.2.8-.5 1.4-.8 1.9c-.4.4-.8.8-1.2 1.1c-.4.3-.9.5-1.5.6c-.5.2-1.2.2-2 .2c.04.03-4.5 0-4.5 0zm1.7-1.4c0 0 2.65-.04 2.6 0c.9 0 1.5-.1 2-.3c.5-.1.8-.3 1.1-.6c.4-.4.7-.9.9-1.6c.2-.7.3-1.5.3-2.4c0-1.3-.2-2.3-.6-3c-.4-.7-.9-1.2-1.6-1.4c-.4-.2-1.1-.3-2.1-.3c.01.04-2.6 0-2.6 0l0 9.6zm11.2 1.4l0-12.4l1.6 0l0 12.4l-1.6 0zm4.5 0l0-12.4l1.7 0l6.6 9.8l0-9.8l1.5 0l0 12.4l-1.6 0l-6.6-9.8l0 9.8l-1.6 0zm18.4-4.9l0-1.4l5.3 0c0 0 .03 4.6 0 4.6c-.8.6-1.6 1.1-2.5 1.5c-.8.3-1.7.4-2.6.4c-1.3 0-2.4-.2-3.4-.7c-1-.6-1.7-1.3-2.2-2.3c-.5-1-.8-2.1-.8-3.3c0-1.3.3-2.4.8-3.4c.5-1.1 1.2-1.9 2.1-2.4c1-.5 2.1-.7 3.3-.7c.9 0 1.8.1 2.5.4c.7.3 1.3.7 1.7 1.2c.4.5.7 1.2.9 2.1c0 0-1.4.4-1.4.4c-.2-.7-.5-1.2-.7-1.5c-.3-.4-.7-.7-1.2-.9c-.6-.2-1.1-.3-1.8-.3c-.7 0-1.4.1-1.9.3c-.6.2-1 .5-1.3.9c-.4.4-.6.8-.8 1.2c-.3.8-.5 1.7-.5 2.6c0 1.1.2 2 .6 2.7c.4.8.9 1.3 1.6 1.7c.8.4 1.6.6 2.4.6c.7 0 1.4-.2 2.1-.5c.6-.2 1.2-.5 1.5-.8c.01-.04 0-2.4 0-2.4l-3.7 0z" stroke="none" fill="#ffffff"/></g><g id="Polygon69065"><path d="m7.2 7.8l0-1.5l5.3 0c0 0-.05 4.64 0 4.6c-.9.7-1.7 1.2-2.6 1.5c-.8.3-1.7.5-2.6.5c-1.2 0-2.3-.3-3.3-.8c-1-.5-1.8-1.3-2.3-2.3c-.5-1-.8-2.1-.8-3.3c0-1.2.3-2.3.8-3.4c.5-1 1.2-1.8 2.2-2.3c.9-.5 2-.8 3.3-.8c.9 0 1.7.1 2.4.4c.7.3 1.3.7 1.7 1.3c.4.5.7 1.2 1 2c0 0-1.5.4-1.5.4c-.2-.6-.4-1.1-.7-1.5c-.3-.4-.7-.6-1.2-.9c-.5-.2-1.1-.3-1.7-.3c-.8 0-1.4.1-2 .4c-.5.2-1 .5-1.3.9c-.3.3-.6.7-.8 1.2c-.3.8-.5 1.6-.5 2.5c0 1.1.2 2 .6 2.8c.4.7.9 1.3 1.7 1.7c.7.3 1.5.5 2.3.5c.7 0 1.4-.1 2.1-.4c.7-.3 1.2-.6 1.5-.9c.04.01 0-2.3 0-2.3l-3.6 0zm7.7 4.9l0-12.5c0 0 5.53.01 5.5 0c1.1 0 2 .1 2.6.3c.5.3 1 .7 1.4 1.2c.3.6.5 1.2.5 1.9c0 .9-.3 1.6-.9 2.2c-.6.7-1.4 1-2.6 1.2c.4.2.7.4 1 .6c.4.5.9 1 1.3 1.7c.02-.02 2.2 3.4 2.2 3.4l-2.1 0c0 0-1.63-2.62-1.6-2.6c-.5-.8-.9-1.3-1.2-1.7c-.3-.4-.6-.7-.9-.9c-.2-.1-.5-.2-.7-.3c-.2 0-.5-.1-.9-.1c-.03.04-1.9 0-1.9 0l0 5.6l-1.7 0zm1.7-7c0 0 3.5.01 3.5 0c.8 0 1.3-.1 1.8-.2c.4-.2.7-.4.9-.8c.3-.3.4-.7.4-1.1c0-.6-.2-1.1-.7-1.4c-.4-.4-1.1-.6-2-.6c0-.01-3.9 0-3.9 0l0 4.1zm10.9 7l0-12.5l9 0l0 1.5l-7.4 0l0 3.8l6.9 0l0 1.5l-6.9 0l0 4.2l7.7 0l0 1.5l-9.3 0zm11.6 0l0-12.5l9 0l0 1.5l-7.4 0l0 3.8l6.9 0l0 1.5l-6.9 0l0 4.2l7.7 0l0 1.5l-9.3 0zm11.6 0l0-12.5l1.6 0l6.6 9.8l0-9.8l1.6 0l0 12.5l-1.7 0l-6.6-9.8l0 9.8l-1.5 0z" stroke="none" fill="#ffffff"/></g></svg>