<?xml version="1.0" standalone="no"?>
<!DOCTYPE svg PUBLIC "-//W3C//DTD SVG 1.1//EN" "http://www.w3.org/Graphics/SVG/1.1/DTD/svg11.dtd">
<svg xmlns="http://www.w3.org/2000/svg" version="1.1" width="768px" height="250.2px" viewBox="0 -7 768 250.2" style="top:-7px">
  <desc>Advised a multinational life insurance company on ESG disclosures and safe harbors</desc>
  <defs/>
  <g id="Polygon58636">
    <path d="M 0 14.6 L 5.5 0.2 L 7.5 0.2 L 13.4 14.6 L 11.2 14.6 L 9.5 10.2 L 3.6 10.2 L 2 14.6 L 0 14.6 Z M 4.1 8.7 L 9 8.7 C 9 8.7 7.46 4.72 7.5 4.7 C 7 3.5 6.7 2.5 6.4 1.7 C 6.3 2.7 6 3.6 5.7 4.5 C 5.67 4.48 4.1 8.7 4.1 8.7 Z M 21.4 14.6 C 21.4 14.6 21.39 13.25 21.4 13.3 C 20.7 14.3 19.8 14.8 18.5 14.8 C 17.7 14.8 16.9 14.6 16.2 14.1 C 15.5 13.7 15 13 14.6 12.2 C 14.2 11.4 14 10.4 14 9.4 C 14 8.3 14.2 7.4 14.5 6.6 C 14.9 5.7 15.4 5.1 16.1 4.6 C 16.8 4.2 17.6 4 18.4 4 C 19 4 19.6 4.1 20.1 4.4 C 20.6 4.6 21 5 21.3 5.4 C 21.27 5.38 21.3 0.2 21.3 0.2 L 23 0.2 L 23 14.6 L 21.4 14.6 Z M 15.8 9.4 C 15.8 10.7 16.1 11.7 16.7 12.4 C 17.2 13 17.9 13.3 18.7 13.3 C 19.4 13.3 20.1 13 20.6 12.4 C 21.1 11.8 21.4 10.8 21.4 9.5 C 21.4 8.1 21.1 7.1 20.6 6.4 C 20 5.7 19.4 5.4 18.6 5.4 C 17.8 5.4 17.1 5.7 16.6 6.4 C 16.1 7 15.8 8 15.8 9.4 Z M 28.7 14.6 L 24.7 4.2 L 26.6 4.2 C 26.6 4.2 28.8 10.4 28.8 10.4 C 29 11.1 29.3 11.8 29.5 12.5 C 29.6 11.9 29.8 11.3 30.1 10.5 C 30.12 10.52 32.4 4.2 32.4 4.2 L 34.2 4.2 L 30.3 14.6 L 28.7 14.6 Z M 35.8 2.3 L 35.8 0.2 L 37.5 0.2 L 37.5 2.3 L 35.8 2.3 Z M 35.8 14.6 L 35.8 4.2 L 37.5 4.2 L 37.5 14.6 L 35.8 14.6 Z M 39.5 11.5 C 39.5 11.5 41.3 11.2 41.3 11.2 C 41.4 11.9 41.6 12.4 42.1 12.8 C 42.5 13.2 43.1 13.3 43.9 13.3 C 44.8 13.3 45.4 13.2 45.7 12.9 C 46.1 12.5 46.3 12.1 46.3 11.7 C 46.3 11.3 46.2 11 45.8 10.8 C 45.6 10.6 45 10.4 44 10.2 C 42.7 9.8 41.8 9.6 41.3 9.3 C 40.8 9.1 40.5 8.8 40.2 8.3 C 39.9 7.9 39.8 7.5 39.8 6.9 C 39.8 6.5 39.9 6.1 40.1 5.7 C 40.3 5.3 40.6 4.9 41 4.7 C 41.3 4.5 41.6 4.3 42.1 4.2 C 42.6 4 43.1 4 43.6 4 C 44.4 4 45.2 4.1 45.8 4.3 C 46.4 4.5 46.8 4.9 47.1 5.3 C 47.4 5.7 47.6 6.2 47.7 6.9 C 47.7 6.9 46 7.1 46 7.1 C 45.9 6.6 45.7 6.1 45.3 5.8 C 45 5.6 44.4 5.4 43.8 5.4 C 43 5.4 42.4 5.5 42 5.8 C 41.7 6.1 41.5 6.4 41.5 6.7 C 41.5 7 41.6 7.2 41.7 7.4 C 41.9 7.5 42.1 7.7 42.4 7.8 C 42.6 7.9 43.1 8 44 8.3 C 45.2 8.6 46.1 8.9 46.6 9.1 C 47 9.3 47.4 9.6 47.7 10 C 48 10.4 48.1 10.9 48.1 11.5 C 48.1 12.1 48 12.7 47.6 13.2 C 47.3 13.7 46.8 14.1 46.1 14.4 C 45.5 14.7 44.8 14.8 44 14.8 C 42.6 14.8 41.6 14.5 40.9 14 C 40.2 13.4 39.7 12.6 39.5 11.5 Z M 57.3 11.2 C 57.3 11.2 59.1 11.4 59.1 11.4 C 58.9 12.5 58.3 13.3 57.5 13.9 C 56.8 14.5 55.8 14.8 54.6 14.8 C 53.1 14.8 51.9 14.3 51 13.4 C 50.1 12.5 49.6 11.1 49.6 9.5 C 49.6 7.7 50.1 6.4 51 5.4 C 51.9 4.4 53.1 4 54.5 4 C 55.9 4 57 4.4 57.9 5.4 C 58.8 6.3 59.2 7.6 59.2 9.4 C 59.2 9.5 59.2 9.6 59.2 9.8 C 59.2 9.8 51.5 9.8 51.5 9.8 C 51.5 11 51.8 11.8 52.4 12.4 C 53 13 53.7 13.3 54.6 13.3 C 55.2 13.3 55.8 13.2 56.2 12.8 C 56.7 12.5 57.1 12 57.3 11.2 Z M 51.6 8.4 C 51.6 8.4 57.3 8.4 57.3 8.4 C 57.3 7.5 57 6.9 56.7 6.4 C 56.1 5.7 55.4 5.4 54.5 5.4 C 53.7 5.4 53 5.7 52.5 6.2 C 51.9 6.8 51.6 7.5 51.6 8.4 Z M 68.1 14.6 C 68.1 14.6 68.08 13.25 68.1 13.3 C 67.4 14.3 66.5 14.8 65.2 14.8 C 64.3 14.8 63.6 14.6 62.9 14.1 C 62.2 13.7 61.7 13 61.3 12.2 C 60.9 11.4 60.7 10.4 60.7 9.4 C 60.7 8.3 60.9 7.4 61.2 6.6 C 61.6 5.7 62.1 5.1 62.8 4.6 C 63.5 4.2 64.2 4 65.1 4 C 65.7 4 66.3 4.1 66.8 4.4 C 67.3 4.6 67.7 5 68 5.4 C 67.96 5.38 68 0.2 68 0.2 L 69.7 0.2 L 69.7 14.6 L 68.1 14.6 Z M 62.5 9.4 C 62.5 10.7 62.8 11.7 63.4 12.4 C 63.9 13 64.6 13.3 65.3 13.3 C 66.1 13.3 66.8 13 67.3 12.4 C 67.8 11.8 68.1 10.8 68.1 9.5 C 68.1 8.1 67.8 7.1 67.3 6.4 C 66.7 5.7 66.1 5.4 65.3 5.4 C 64.5 5.4 63.8 5.7 63.3 6.4 C 62.8 7 62.5 8 62.5 9.4 Z M 85.1 14.6 C 85 14.2 84.8 13.8 84.8 13.3 C 84.1 13.8 83.5 14.2 82.9 14.5 C 82.3 14.7 81.7 14.8 81 14.8 C 79.8 14.8 79 14.5 78.3 14 C 77.7 13.4 77.4 12.7 77.4 11.8 C 77.4 11.3 77.5 10.9 77.8 10.4 C 78 10 78.3 9.7 78.7 9.4 C 79.1 9.2 79.5 9 80 8.8 C 80.3 8.8 80.8 8.7 81.5 8.6 C 82.9 8.4 84 8.2 84.6 8 C 84.7 7.7 84.7 7.6 84.7 7.5 C 84.7 6.8 84.5 6.3 84.2 6 C 83.7 5.6 83 5.4 82.2 5.4 C 81.3 5.4 80.7 5.6 80.3 5.8 C 79.9 6.1 79.6 6.6 79.5 7.4 C 79.5 7.4 77.7 7.1 77.7 7.1 C 77.9 6.4 78.1 5.8 78.5 5.4 C 78.9 4.9 79.4 4.6 80.1 4.3 C 80.7 4.1 81.5 4 82.4 4 C 83.3 4 84 4.1 84.6 4.3 C 85.1 4.5 85.5 4.7 85.8 5.1 C 86.1 5.4 86.2 5.8 86.3 6.3 C 86.4 6.5 86.4 7.1 86.4 7.9 C 86.4 7.9 86.4 10.2 86.4 10.2 C 86.4 11.8 86.5 12.9 86.5 13.3 C 86.6 13.7 86.8 14.2 87 14.6 C 86.98 14.56 85.1 14.6 85.1 14.6 C 85.1 14.6 85.15 14.56 85.1 14.6 Z M 84.6 9.4 C 84 9.6 83.1 9.8 81.8 10 C 81.1 10.1 80.5 10.2 80.2 10.4 C 79.9 10.5 79.7 10.7 79.6 10.9 C 79.4 11.2 79.3 11.5 79.3 11.8 C 79.3 12.2 79.5 12.6 79.8 12.9 C 80.2 13.3 80.7 13.4 81.4 13.4 C 82.1 13.4 82.7 13.3 83.2 13 C 83.7 12.7 84.1 12.3 84.4 11.8 C 84.6 11.4 84.6 10.8 84.6 10 C 84.6 10 84.6 9.4 84.6 9.4 Z M 94.7 14.6 L 94.7 4.2 L 96.3 4.2 C 96.3 4.2 96.28 5.64 96.3 5.6 C 96.6 5.1 97 4.7 97.6 4.4 C 98.1 4.1 98.7 4 99.4 4 C 100.2 4 100.8 4.1 101.3 4.4 C 101.8 4.8 102.2 5.2 102.4 5.8 C 103.2 4.6 104.2 4 105.6 4 C 106.6 4 107.4 4.2 107.9 4.8 C 108.5 5.4 108.8 6.3 108.8 7.4 C 108.76 7.44 108.8 14.6 108.8 14.6 L 107 14.6 C 107 14.6 107.01 8.03 107 8 C 107 7.3 107 6.8 106.8 6.5 C 106.7 6.2 106.5 6 106.2 5.8 C 105.9 5.6 105.6 5.5 105.2 5.5 C 104.4 5.5 103.8 5.7 103.3 6.2 C 102.9 6.7 102.6 7.5 102.6 8.5 C 102.63 8.54 102.6 14.6 102.6 14.6 L 100.9 14.6 C 100.9 14.6 100.87 7.82 100.9 7.8 C 100.9 7 100.7 6.5 100.4 6.1 C 100.2 5.7 99.7 5.5 99 5.5 C 98.5 5.5 98.1 5.6 97.7 5.9 C 97.2 6.1 96.9 6.5 96.7 7 C 96.6 7.5 96.5 8.2 96.5 9.2 C 96.46 9.18 96.5 14.6 96.5 14.6 L 94.7 14.6 Z M 118.2 14.6 C 118.2 14.6 118.16 13.04 118.2 13 C 117.4 14.2 116.3 14.8 114.9 14.8 C 114.3 14.8 113.7 14.7 113.2 14.4 C 112.6 14.2 112.2 13.9 112 13.6 C 111.7 13.2 111.5 12.8 111.4 12.3 C 111.4 11.9 111.3 11.4 111.3 10.6 C 111.33 10.62 111.3 4.2 111.3 4.2 L 113.1 4.2 C 113.1 4.2 113.09 9.94 113.1 9.9 C 113.1 10.9 113.1 11.5 113.2 11.8 C 113.3 12.3 113.5 12.6 113.9 12.9 C 114.3 13.1 114.7 13.3 115.2 13.3 C 115.8 13.3 116.2 13.1 116.7 12.9 C 117.2 12.6 117.5 12.2 117.7 11.8 C 117.9 11.3 118 10.6 118 9.7 C 117.98 9.75 118 4.2 118 4.2 L 119.7 4.2 L 119.7 14.6 L 118.2 14.6 Z M 122.5 14.6 L 122.5 0.2 L 124.2 0.2 L 124.2 14.6 L 122.5 14.6 Z M 130 13.1 C 130.2 13.1 130.5 13 130.8 13 C 130.8 13 131 14.5 131 14.5 C 130.5 14.6 130.1 14.7 129.7 14.7 C 129.1 14.7 128.6 14.6 128.2 14.4 C 127.9 14.2 127.6 13.9 127.5 13.6 C 127.3 13.3 127.3 12.6 127.3 11.5 C 127.26 11.52 127.3 5.6 127.3 5.6 L 126 5.6 L 126 4.2 L 127.3 4.2 L 127.3 1.6 L 129 0.6 L 129 4.2 L 130.8 4.2 L 130.8 5.6 L 129 5.6 C 129 5.6 129 11.62 129 11.6 C 129 12.1 129 12.4 129.1 12.6 C 129.2 12.7 129.3 12.8 129.4 12.9 C 129.5 13 129.7 13.1 130 13.1 C 130 13.1 130 13.1 130 13.1 Z M 132.5 2.3 L 132.5 0.2 L 134.3 0.2 L 134.3 2.3 L 132.5 2.3 Z M 132.5 14.6 L 132.5 4.2 L 134.3 4.2 L 134.3 14.6 L 132.5 14.6 Z M 136.9 14.6 L 136.9 4.2 L 138.5 4.2 C 138.5 4.2 138.52 5.66 138.5 5.7 C 139.3 4.5 140.4 4 141.8 4 C 142.4 4 143 4.1 143.5 4.3 C 144.1 4.5 144.5 4.8 144.7 5.2 C 145 5.5 145.2 6 145.3 6.5 C 145.3 6.8 145.4 7.4 145.4 8.2 C 145.36 8.18 145.4 14.6 145.4 14.6 L 143.6 14.6 C 143.6 14.6 143.6 8.25 143.6 8.3 C 143.6 7.5 143.5 7 143.4 6.6 C 143.3 6.3 143 6 142.7 5.8 C 142.3 5.6 141.9 5.5 141.4 5.5 C 140.7 5.5 140.1 5.7 139.5 6.2 C 139 6.7 138.7 7.6 138.7 8.9 C 138.69 8.9 138.7 14.6 138.7 14.6 L 136.9 14.6 Z M 155.2 14.6 C 155 14.2 154.9 13.8 154.8 13.3 C 154.2 13.8 153.5 14.2 152.9 14.5 C 152.3 14.7 151.7 14.8 151 14.8 C 149.9 14.8 149 14.5 148.4 14 C 147.8 13.4 147.5 12.7 147.5 11.8 C 147.5 11.3 147.6 10.9 147.8 10.4 C 148 10 148.3 9.7 148.7 9.4 C 149.1 9.2 149.5 9 150 8.8 C 150.3 8.8 150.8 8.7 151.5 8.6 C 153 8.4 154 8.2 154.7 8 C 154.7 7.7 154.7 7.6 154.7 7.5 C 154.7 6.8 154.5 6.3 154.2 6 C 153.7 5.6 153.1 5.4 152.2 5.4 C 151.4 5.4 150.8 5.6 150.4 5.8 C 150 6.1 149.7 6.6 149.5 7.4 C 149.5 7.4 147.8 7.1 147.8 7.1 C 147.9 6.4 148.2 5.8 148.5 5.4 C 148.9 4.9 149.4 4.6 150.1 4.3 C 150.8 4.1 151.5 4 152.4 4 C 153.3 4 154 4.1 154.6 4.3 C 155.2 4.5 155.6 4.7 155.8 5.1 C 156.1 5.4 156.3 5.8 156.4 6.3 C 156.4 6.5 156.5 7.1 156.5 7.9 C 156.5 7.9 156.5 10.2 156.5 10.2 C 156.5 11.8 156.5 12.9 156.6 13.3 C 156.6 13.7 156.8 14.2 157 14.6 C 157.01 14.56 155.2 14.6 155.2 14.6 C 155.2 14.6 155.18 14.56 155.2 14.6 Z M 154.7 9.4 C 154 9.6 153.1 9.8 151.8 10 C 151.1 10.1 150.6 10.2 150.3 10.4 C 150 10.5 149.7 10.7 149.6 10.9 C 149.4 11.2 149.3 11.5 149.3 11.8 C 149.3 12.2 149.5 12.6 149.9 12.9 C 150.2 13.3 150.7 13.4 151.4 13.4 C 152.1 13.4 152.7 13.3 153.2 13 C 153.8 12.7 154.1 12.3 154.4 11.8 C 154.6 11.4 154.7 10.8 154.7 10 C 154.7 10 154.7 9.4 154.7 9.4 Z M 162.2 13.1 C 162.4 13.1 162.7 13 163 13 C 163 13 163.3 14.5 163.3 14.5 C 162.8 14.6 162.3 14.7 161.9 14.7 C 161.3 14.7 160.8 14.6 160.5 14.4 C 160.1 14.2 159.9 13.9 159.7 13.6 C 159.6 13.3 159.5 12.6 159.5 11.5 C 159.5 11.52 159.5 5.6 159.5 5.6 L 158.2 5.6 L 158.2 4.2 L 159.5 4.2 L 159.5 1.6 L 161.3 0.6 L 161.3 4.2 L 163 4.2 L 163 5.6 L 161.3 5.6 C 161.3 5.6 161.25 11.62 161.3 11.6 C 161.3 12.1 161.3 12.4 161.3 12.6 C 161.4 12.7 161.5 12.8 161.6 12.9 C 161.8 13 162 13.1 162.2 13.1 C 162.2 13.1 162.2 13.1 162.2 13.1 Z M 164.7 2.3 L 164.7 0.2 L 166.5 0.2 L 166.5 2.3 L 164.7 2.3 Z M 164.7 14.6 L 164.7 4.2 L 166.5 4.2 L 166.5 14.6 L 164.7 14.6 Z M 168.5 9.4 C 168.5 7.5 169.1 6 170.1 5.1 C 171 4.3 172.1 4 173.4 4 C 174.8 4 176 4.4 176.9 5.4 C 177.8 6.3 178.2 7.6 178.2 9.2 C 178.2 10.6 178 11.6 177.6 12.4 C 177.2 13.1 176.7 13.7 175.9 14.2 C 175.1 14.6 174.3 14.8 173.4 14.8 C 171.9 14.8 170.8 14.3 169.9 13.4 C 169 12.5 168.5 11.1 168.5 9.4 Z M 170.3 9.4 C 170.3 10.7 170.6 11.7 171.2 12.4 C 171.8 13 172.5 13.3 173.4 13.3 C 174.3 13.3 175 13 175.6 12.4 C 176.1 11.7 176.4 10.7 176.4 9.3 C 176.4 8 176.1 7.1 175.6 6.4 C 175 5.7 174.3 5.4 173.4 5.4 C 172.5 5.4 171.8 5.7 171.2 6.4 C 170.6 7.1 170.3 8 170.3 9.4 Z M 180.3 14.6 L 180.3 4.2 L 181.9 4.2 C 181.9 4.2 181.88 5.66 181.9 5.7 C 182.6 4.5 183.7 4 185.2 4 C 185.8 4 186.4 4.1 186.9 4.3 C 187.4 4.5 187.8 4.8 188.1 5.2 C 188.3 5.5 188.5 6 188.6 6.5 C 188.7 6.8 188.7 7.4 188.7 8.2 C 188.73 8.18 188.7 14.6 188.7 14.6 L 187 14.6 C 187 14.6 186.97 8.25 187 8.3 C 187 7.5 186.9 7 186.8 6.6 C 186.6 6.3 186.4 6 186 5.8 C 185.7 5.6 185.3 5.5 184.8 5.5 C 184.1 5.5 183.4 5.7 182.9 6.2 C 182.3 6.7 182.1 7.6 182.1 8.9 C 182.06 8.9 182.1 14.6 182.1 14.6 L 180.3 14.6 Z M 198.5 14.6 C 198.4 14.2 198.2 13.8 198.2 13.3 C 197.5 13.8 196.9 14.2 196.3 14.5 C 195.7 14.7 195.1 14.8 194.4 14.8 C 193.2 14.8 192.4 14.5 191.7 14 C 191.1 13.4 190.8 12.7 190.8 11.8 C 190.8 11.3 190.9 10.9 191.2 10.4 C 191.4 10 191.7 9.7 192.1 9.4 C 192.5 9.2 192.9 9 193.3 8.8 C 193.7 8.8 194.2 8.7 194.9 8.6 C 196.3 8.4 197.4 8.2 198 8 C 198.1 7.7 198.1 7.6 198.1 7.5 C 198.1 6.8 197.9 6.3 197.6 6 C 197.1 5.6 196.4 5.4 195.6 5.4 C 194.7 5.4 194.1 5.6 193.7 5.8 C 193.3 6.1 193 6.6 192.9 7.4 C 192.9 7.4 191.1 7.1 191.1 7.1 C 191.3 6.4 191.5 5.8 191.9 5.4 C 192.3 4.9 192.8 4.6 193.5 4.3 C 194.1 4.1 194.9 4 195.8 4 C 196.7 4 197.4 4.1 198 4.3 C 198.5 4.5 198.9 4.7 199.2 5.1 C 199.4 5.4 199.6 5.8 199.7 6.3 C 199.8 6.5 199.8 7.1 199.8 7.9 C 199.8 7.9 199.8 10.2 199.8 10.2 C 199.8 11.8 199.9 12.9 199.9 13.3 C 200 13.7 200.2 14.2 200.4 14.6 C 200.38 14.56 198.5 14.6 198.5 14.6 C 198.5 14.6 198.54 14.56 198.5 14.6 Z M 198 9.4 C 197.4 9.6 196.5 9.8 195.2 10 C 194.5 10.1 193.9 10.2 193.6 10.4 C 193.3 10.5 193.1 10.7 192.9 10.9 C 192.8 11.2 192.7 11.5 192.7 11.8 C 192.7 12.2 192.9 12.6 193.2 12.9 C 193.6 13.3 194.1 13.4 194.8 13.4 C 195.5 13.4 196.1 13.3 196.6 13 C 197.1 12.7 197.5 12.3 197.8 11.8 C 198 11.4 198 10.8 198 10 C 198 10 198 9.4 198 9.4 Z M 202.5 14.6 L 202.5 0.2 L 204.3 0.2 L 204.3 14.6 L 202.5 14.6 Z M 212.5 14.6 L 212.5 0.2 L 214.3 0.2 L 214.3 14.6 L 212.5 14.6 Z M 217 2.3 L 217 0.2 L 218.8 0.2 L 218.8 2.3 L 217 2.3 Z M 217 14.6 L 217 4.2 L 218.8 4.2 L 218.8 14.6 L 217 14.6 Z M 221.9 14.6 L 221.9 5.6 L 220.3 5.6 L 220.3 4.2 L 221.9 4.2 C 221.9 4.2 221.86 3.09 221.9 3.1 C 221.9 2.4 221.9 1.9 222 1.5 C 222.2 1.1 222.5 0.7 222.9 0.4 C 223.4 0.1 224 0 224.7 0 C 225.2 0 225.8 0.1 226.4 0.2 C 226.4 0.2 226.1 1.7 226.1 1.7 C 225.7 1.6 225.4 1.6 225.1 1.6 C 224.5 1.6 224.2 1.7 223.9 2 C 223.7 2.2 223.6 2.6 223.6 3.2 C 223.6 3.23 223.6 4.2 223.6 4.2 L 225.6 4.2 L 225.6 5.6 L 223.6 5.6 L 223.6 14.6 L 221.9 14.6 Z M 234.1 11.2 C 234.1 11.2 235.9 11.4 235.9 11.4 C 235.6 12.5 235.1 13.3 234.3 13.9 C 233.5 14.5 232.6 14.8 231.3 14.8 C 229.8 14.8 228.6 14.3 227.7 13.4 C 226.9 12.5 226.4 11.1 226.4 9.5 C 226.4 7.7 226.9 6.4 227.8 5.4 C 228.7 4.4 229.8 4 231.3 4 C 232.6 4 233.8 4.4 234.6 5.4 C 235.5 6.3 236 7.6 236 9.4 C 236 9.5 236 9.6 236 9.8 C 236 9.8 228.2 9.8 228.2 9.8 C 228.3 11 228.6 11.8 229.2 12.4 C 229.8 13 230.5 13.3 231.4 13.3 C 232 13.3 232.6 13.2 233 12.8 C 233.5 12.5 233.8 12 234.1 11.2 Z M 228.3 8.4 C 228.3 8.4 234.1 8.4 234.1 8.4 C 234 7.5 233.8 6.9 233.4 6.4 C 232.9 5.7 232.2 5.4 231.3 5.4 C 230.5 5.4 229.8 5.7 229.2 6.2 C 228.7 6.8 228.4 7.5 228.3 8.4 Z M 243.7 2.3 L 243.7 0.2 L 245.4 0.2 L 245.4 2.3 L 243.7 2.3 Z M 243.7 14.6 L 243.7 4.2 L 245.4 4.2 L 245.4 14.6 L 243.7 14.6 Z M 248.1 14.6 L 248.1 4.2 L 249.7 4.2 C 249.7 4.2 249.7 5.66 249.7 5.7 C 250.5 4.5 251.6 4 253 4 C 253.6 4 254.2 4.1 254.7 4.3 C 255.2 4.5 255.6 4.8 255.9 5.2 C 256.2 5.5 256.3 6 256.4 6.5 C 256.5 6.8 256.5 7.4 256.5 8.2 C 256.54 8.18 256.5 14.6 256.5 14.6 L 254.8 14.6 C 254.8 14.6 254.79 8.25 254.8 8.3 C 254.8 7.5 254.7 7 254.6 6.6 C 254.4 6.3 254.2 6 253.9 5.8 C 253.5 5.6 253.1 5.5 252.6 5.5 C 251.9 5.5 251.2 5.7 250.7 6.2 C 250.1 6.7 249.9 7.6 249.9 8.9 C 249.87 8.9 249.9 14.6 249.9 14.6 L 248.1 14.6 Z M 258.5 11.5 C 258.5 11.5 260.3 11.2 260.3 11.2 C 260.4 11.9 260.6 12.4 261.1 12.8 C 261.5 13.2 262.2 13.3 263 13.3 C 263.8 13.3 264.4 13.2 264.8 12.9 C 265.1 12.5 265.3 12.1 265.3 11.7 C 265.3 11.3 265.2 11 264.8 10.8 C 264.6 10.6 264 10.4 263 10.2 C 261.7 9.8 260.8 9.6 260.3 9.3 C 259.8 9.1 259.5 8.8 259.2 8.3 C 259 7.9 258.8 7.5 258.8 6.9 C 258.8 6.5 258.9 6.1 259.1 5.7 C 259.4 5.3 259.6 4.9 260 4.7 C 260.3 4.5 260.7 4.3 261.1 4.2 C 261.6 4 262.1 4 262.6 4 C 263.5 4 264.2 4.1 264.8 4.3 C 265.4 4.5 265.9 4.9 266.2 5.3 C 266.4 5.7 266.6 6.2 266.8 6.9 C 266.8 6.9 265 7.1 265 7.1 C 265 6.6 264.7 6.1 264.4 5.8 C 264 5.6 263.5 5.4 262.8 5.4 C 262 5.4 261.4 5.5 261 5.8 C 260.7 6.1 260.5 6.4 260.5 6.7 C 260.5 7 260.6 7.2 260.7 7.4 C 260.9 7.5 261.1 7.7 261.4 7.8 C 261.6 7.9 262.1 8 263 8.3 C 264.2 8.6 265.1 8.9 265.6 9.1 C 266.1 9.3 266.4 9.6 266.7 10 C 267 10.4 267.1 10.9 267.1 11.5 C 267.1 12.1 267 12.7 266.6 13.2 C 266.3 13.7 265.8 14.1 265.2 14.4 C 264.5 14.7 263.8 14.8 263 14.8 C 261.6 14.8 260.6 14.5 259.9 14 C 259.2 13.4 258.7 12.6 258.5 11.5 Z M 276 14.6 C 276 14.6 276.04 13.04 276 13 C 275.2 14.2 274.1 14.8 272.7 14.8 C 272.1 14.8 271.6 14.7 271 14.4 C 270.5 14.2 270.1 13.9 269.8 13.6 C 269.6 13.2 269.4 12.8 269.3 12.3 C 269.2 11.9 269.2 11.4 269.2 10.6 C 269.2 10.62 269.2 4.2 269.2 4.2 L 271 4.2 C 271 4.2 270.96 9.94 271 9.9 C 271 10.9 271 11.5 271.1 11.8 C 271.2 12.3 271.4 12.6 271.8 12.9 C 272.1 13.1 272.6 13.3 273.1 13.3 C 273.6 13.3 274.1 13.1 274.6 12.9 C 275 12.6 275.4 12.2 275.6 11.8 C 275.8 11.3 275.8 10.6 275.8 9.7 C 275.85 9.75 275.8 4.2 275.8 4.2 L 277.6 4.2 L 277.6 14.6 L 276 14.6 Z M 280.3 14.6 L 280.3 4.2 L 281.9 4.2 C 281.9 4.2 281.92 5.76 281.9 5.8 C 282.3 5 282.7 4.5 283 4.3 C 283.4 4.1 283.8 4 284.2 4 C 284.8 4 285.4 4.1 286 4.5 C 286 4.5 285.4 6.2 285.4 6.2 C 284.9 5.9 284.5 5.8 284.1 5.8 C 283.7 5.8 283.4 5.9 283 6.1 C 282.7 6.3 282.5 6.7 282.4 7.1 C 282.2 7.7 282.1 8.4 282.1 9.1 C 282.1 9.13 282.1 14.6 282.1 14.6 L 280.3 14.6 Z M 294.1 14.6 C 294 14.2 293.8 13.8 293.8 13.3 C 293.1 13.8 292.5 14.2 291.9 14.5 C 291.3 14.7 290.7 14.8 290 14.8 C 288.8 14.8 288 14.5 287.3 14 C 286.7 13.4 286.4 12.7 286.4 11.8 C 286.4 11.3 286.5 10.9 286.8 10.4 C 287 10 287.3 9.7 287.7 9.4 C 288.1 9.2 288.5 9 288.9 8.8 C 289.3 8.8 289.8 8.7 290.5 8.6 C 291.9 8.4 293 8.2 293.6 8 C 293.6 7.7 293.7 7.6 293.7 7.5 C 293.7 6.8 293.5 6.3 293.2 6 C 292.7 5.6 292 5.4 291.2 5.4 C 290.3 5.4 289.7 5.6 289.3 5.8 C 288.9 6.1 288.6 6.6 288.4 7.4 C 288.4 7.4 286.7 7.1 286.7 7.1 C 286.9 6.4 287.1 5.8 287.5 5.4 C 287.9 4.9 288.4 4.6 289.1 4.3 C 289.7 4.1 290.5 4 291.4 4 C 292.3 4 293 4.1 293.6 4.3 C 294.1 4.5 294.5 4.7 294.8 5.1 C 295 5.4 295.2 5.8 295.3 6.3 C 295.4 6.5 295.4 7.1 295.4 7.9 C 295.4 7.9 295.4 10.2 295.4 10.2 C 295.4 11.8 295.5 12.9 295.5 13.3 C 295.6 13.7 295.8 14.2 296 14.6 C 295.98 14.56 294.1 14.6 294.1 14.6 C 294.1 14.6 294.14 14.56 294.1 14.6 Z M 293.6 9.4 C 293 9.6 292 9.8 290.8 10 C 290 10.1 289.5 10.2 289.2 10.4 C 288.9 10.5 288.7 10.7 288.5 10.9 C 288.4 11.2 288.3 11.5 288.3 11.8 C 288.3 12.2 288.5 12.6 288.8 12.9 C 289.2 13.3 289.7 13.4 290.4 13.4 C 291.1 13.4 291.7 13.3 292.2 13 C 292.7 12.7 293.1 12.3 293.4 11.8 C 293.5 11.4 293.6 10.8 293.6 10 C 293.6 10 293.6 9.4 293.6 9.4 Z M 298.1 14.6 L 298.1 4.2 L 299.7 4.2 C 299.7 4.2 299.73 5.66 299.7 5.7 C 300.5 4.5 301.6 4 303 4 C 303.7 4 304.2 4.1 304.8 4.3 C 305.3 4.5 305.7 4.8 305.9 5.2 C 306.2 5.5 306.4 6 306.5 6.5 C 306.5 6.8 306.6 7.4 306.6 8.2 C 306.57 8.18 306.6 14.6 306.6 14.6 L 304.8 14.6 C 304.8 14.6 304.81 8.25 304.8 8.3 C 304.8 7.5 304.7 7 304.6 6.6 C 304.5 6.3 304.2 6 303.9 5.8 C 303.5 5.6 303.1 5.5 302.7 5.5 C 301.9 5.5 301.3 5.7 300.7 6.2 C 300.2 6.7 299.9 7.6 299.9 8.9 C 299.9 8.9 299.9 14.6 299.9 14.6 L 298.1 14.6 Z M 316 10.8 C 316 10.8 317.8 11 317.8 11 C 317.6 12.2 317.1 13.1 316.3 13.8 C 315.5 14.5 314.6 14.8 313.4 14.8 C 312 14.8 310.9 14.3 310 13.4 C 309.2 12.5 308.7 11.1 308.7 9.4 C 308.7 8.3 308.9 7.3 309.3 6.5 C 309.7 5.6 310.2 5 311 4.6 C 311.7 4.2 312.6 4 313.5 4 C 314.6 4 315.5 4.2 316.2 4.8 C 316.9 5.4 317.4 6.2 317.6 7.2 C 317.6 7.2 315.9 7.5 315.9 7.5 C 315.7 6.8 315.4 6.3 315 5.9 C 314.6 5.6 314.1 5.4 313.5 5.4 C 312.6 5.4 311.9 5.7 311.4 6.4 C 310.8 7 310.5 8 310.5 9.4 C 310.5 10.8 310.8 11.8 311.3 12.4 C 311.9 13 312.6 13.3 313.4 13.3 C 314.1 13.3 314.7 13.1 315.2 12.7 C 315.6 12.3 315.9 11.6 316 10.8 Z M 326.4 11.2 C 326.4 11.2 328.2 11.4 328.2 11.4 C 327.9 12.5 327.4 13.3 326.6 13.9 C 325.8 14.5 324.8 14.8 323.6 14.8 C 322.1 14.8 320.9 14.3 320 13.4 C 319.1 12.5 318.7 11.1 318.7 9.5 C 318.7 7.7 319.1 6.4 320 5.4 C 320.9 4.4 322.1 4 323.5 4 C 324.9 4 326 4.4 326.9 5.4 C 327.8 6.3 328.2 7.6 328.2 9.4 C 328.2 9.5 328.2 9.6 328.2 9.8 C 328.2 9.8 320.5 9.8 320.5 9.8 C 320.6 11 320.9 11.8 321.5 12.4 C 322 13 322.8 13.3 323.6 13.3 C 324.3 13.3 324.8 13.2 325.3 12.8 C 325.7 12.5 326.1 12 326.4 11.2 Z M 320.6 8.4 C 320.6 8.4 326.4 8.4 326.4 8.4 C 326.3 7.5 326.1 6.9 325.7 6.4 C 325.2 5.7 324.4 5.4 323.5 5.4 C 322.7 5.4 322.1 5.7 321.5 6.2 C 321 6.8 320.7 7.5 320.6 8.4 Z M 342.7 10.8 C 342.7 10.8 344.4 11 344.4 11 C 344.3 12.2 343.8 13.1 343 13.8 C 342.2 14.5 341.3 14.8 340.1 14.8 C 338.7 14.8 337.6 14.3 336.7 13.4 C 335.8 12.5 335.4 11.1 335.4 9.4 C 335.4 8.3 335.6 7.3 336 6.5 C 336.3 5.6 336.9 5 337.7 4.6 C 338.4 4.2 339.2 4 340.1 4 C 341.3 4 342.2 4.2 342.9 4.8 C 343.6 5.4 344.1 6.2 344.3 7.2 C 344.3 7.2 342.6 7.5 342.6 7.5 C 342.4 6.8 342.1 6.3 341.7 5.9 C 341.3 5.6 340.8 5.4 340.2 5.4 C 339.3 5.4 338.6 5.7 338 6.4 C 337.5 7 337.2 8 337.2 9.4 C 337.2 10.8 337.5 11.8 338 12.4 C 338.6 13 339.2 13.3 340.1 13.3 C 340.8 13.3 341.4 13.1 341.8 12.7 C 342.3 12.3 342.6 11.6 342.7 10.8 Z M 345.3 9.4 C 345.3 7.5 345.8 6 346.9 5.1 C 347.8 4.3 348.9 4 350.2 4 C 351.6 4 352.7 4.4 353.7 5.4 C 354.6 6.3 355 7.6 355 9.2 C 355 10.6 354.8 11.6 354.4 12.4 C 354 13.1 353.4 13.7 352.7 14.2 C 351.9 14.6 351.1 14.8 350.2 14.8 C 348.7 14.8 347.5 14.3 346.6 13.4 C 345.7 12.5 345.3 11.1 345.3 9.4 Z M 347.1 9.4 C 347.1 10.7 347.4 11.7 348 12.4 C 348.5 13 349.3 13.3 350.2 13.3 C 351 13.3 351.8 13 352.3 12.4 C 352.9 11.7 353.2 10.7 353.2 9.3 C 353.2 8 352.9 7.1 352.3 6.4 C 351.7 5.7 351 5.4 350.2 5.4 C 349.3 5.4 348.5 5.7 348 6.4 C 347.4 7.1 347.1 8 347.1 9.4 Z M 357.1 14.6 L 357.1 4.2 L 358.6 4.2 C 358.6 4.2 358.64 5.64 358.6 5.6 C 359 5.1 359.4 4.7 359.9 4.4 C 360.5 4.1 361.1 4 361.8 4 C 362.6 4 363.2 4.1 363.7 4.4 C 364.2 4.8 364.5 5.2 364.7 5.8 C 365.5 4.6 366.6 4 367.9 4 C 368.9 4 369.7 4.2 370.3 4.8 C 370.8 5.4 371.1 6.3 371.1 7.4 C 371.12 7.44 371.1 14.6 371.1 14.6 L 369.4 14.6 C 369.4 14.6 369.38 8.03 369.4 8 C 369.4 7.3 369.3 6.8 369.2 6.5 C 369.1 6.2 368.9 6 368.6 5.8 C 368.3 5.6 367.9 5.5 367.5 5.5 C 366.8 5.5 366.2 5.7 365.7 6.2 C 365.2 6.7 365 7.5 365 8.5 C 364.99 8.54 365 14.6 365 14.6 L 363.2 14.6 C 363.2 14.6 363.23 7.82 363.2 7.8 C 363.2 7 363.1 6.5 362.8 6.1 C 362.5 5.7 362 5.5 361.4 5.5 C 360.9 5.5 360.4 5.6 360 5.9 C 359.6 6.1 359.3 6.5 359.1 7 C 358.9 7.5 358.8 8.2 358.8 9.2 C 358.83 9.18 358.8 14.6 358.8 14.6 L 357.1 14.6 Z M 373.7 18.5 L 373.7 4.2 L 375.3 4.2 C 375.3 4.2 375.33 5.54 375.3 5.5 C 375.7 5 376.1 4.6 376.6 4.4 C 377.1 4.1 377.7 4 378.3 4 C 379.2 4 380 4.2 380.7 4.6 C 381.4 5.1 381.9 5.7 382.2 6.6 C 382.6 7.4 382.7 8.3 382.7 9.3 C 382.7 10.4 382.5 11.3 382.2 12.2 C 381.8 13 381.2 13.7 380.5 14.1 C 379.8 14.6 379 14.8 378.2 14.8 C 377.6 14.8 377.1 14.7 376.6 14.4 C 376.2 14.2 375.8 13.9 375.5 13.5 C 375.49 13.49 375.5 18.5 375.5 18.5 L 373.7 18.5 Z M 375.3 9.4 C 375.3 10.8 375.6 11.8 376.1 12.4 C 376.7 13 377.3 13.3 378.1 13.3 C 378.9 13.3 379.5 13 380.1 12.4 C 380.7 11.7 380.9 10.7 380.9 9.3 C 380.9 8 380.7 7 380.1 6.3 C 379.6 5.7 378.9 5.3 378.2 5.3 C 377.4 5.3 376.8 5.7 376.2 6.4 C 375.6 7.1 375.3 8.1 375.3 9.4 Z M 392 14.6 C 391.8 14.2 391.7 13.8 391.6 13.3 C 391 13.8 390.3 14.2 389.7 14.5 C 389.1 14.7 388.5 14.8 387.8 14.8 C 386.7 14.8 385.8 14.5 385.2 14 C 384.6 13.4 384.3 12.7 384.3 11.8 C 384.3 11.3 384.4 10.9 384.6 10.4 C 384.8 10 385.1 9.7 385.5 9.4 C 385.9 9.2 386.3 9 386.8 8.8 C 387.1 8.8 387.6 8.7 388.3 8.6 C 389.8 8.4 390.8 8.2 391.5 8 C 391.5 7.7 391.5 7.6 391.5 7.5 C 391.5 6.8 391.3 6.3 391 6 C 390.5 5.6 389.9 5.4 389 5.4 C 388.2 5.4 387.5 5.6 387.2 5.8 C 386.8 6.1 386.5 6.6 386.3 7.4 C 386.3 7.4 384.6 7.1 384.6 7.1 C 384.7 6.4 385 5.8 385.3 5.4 C 385.7 4.9 386.2 4.6 386.9 4.3 C 387.6 4.1 388.3 4 389.2 4 C 390.1 4 390.8 4.1 391.4 4.3 C 391.9 4.5 392.4 4.7 392.6 5.1 C 392.9 5.4 393.1 5.8 393.2 6.3 C 393.2 6.5 393.3 7.1 393.3 7.9 C 393.3 7.9 393.3 10.2 393.3 10.2 C 393.3 11.8 393.3 12.9 393.4 13.3 C 393.4 13.7 393.6 14.2 393.8 14.6 C 393.81 14.56 392 14.6 392 14.6 C 392 14.6 391.97 14.56 392 14.6 Z M 391.5 9.4 C 390.8 9.6 389.9 9.8 388.6 10 C 387.9 10.1 387.4 10.2 387.1 10.4 C 386.8 10.5 386.5 10.7 386.4 10.9 C 386.2 11.2 386.1 11.5 386.1 11.8 C 386.1 12.2 386.3 12.6 386.7 12.9 C 387 13.3 387.5 13.4 388.2 13.4 C 388.9 13.4 389.5 13.3 390 13 C 390.6 12.7 390.9 12.3 391.2 11.8 C 391.4 11.4 391.5 10.8 391.5 10 C 391.5 10 391.5 9.4 391.5 9.4 Z M 396 14.6 L 396 4.2 L 397.6 4.2 C 397.6 4.2 397.56 5.66 397.6 5.7 C 398.3 4.5 399.4 4 400.9 4 C 401.5 4 402.1 4.1 402.6 4.3 C 403.1 4.5 403.5 4.8 403.8 5.2 C 404 5.5 404.2 6 404.3 6.5 C 404.4 6.8 404.4 7.4 404.4 8.2 C 404.4 8.18 404.4 14.6 404.4 14.6 L 402.6 14.6 C 402.6 14.6 402.65 8.25 402.6 8.3 C 402.6 7.5 402.6 7 402.4 6.6 C 402.3 6.3 402.1 6 401.7 5.8 C 401.4 5.6 401 5.5 400.5 5.5 C 399.7 5.5 399.1 5.7 398.5 6.2 C 398 6.7 397.7 7.6 397.7 8.9 C 397.73 8.9 397.7 14.6 397.7 14.6 L 396 14.6 Z M 408.2 18.8 C 407.8 18.8 407.4 18.7 407 18.6 C 407 18.6 406.8 16.9 406.8 16.9 C 407.2 17 407.5 17.1 407.8 17.1 C 408.2 17.1 408.5 17 408.8 16.9 C 409 16.7 409.2 16.6 409.3 16.3 C 409.5 16.1 409.6 15.7 409.9 15 C 409.9 14.9 410 14.8 410 14.6 C 410.04 14.58 406.1 4.2 406.1 4.2 L 408 4.2 C 408 4.2 410.16 10.2 410.2 10.2 C 410.4 11 410.7 11.8 410.9 12.6 C 411.1 11.8 411.4 11 411.6 10.2 C 411.63 10.23 413.8 4.2 413.8 4.2 L 415.6 4.2 C 415.6 4.2 411.66 14.74 411.7 14.7 C 411.2 15.9 410.9 16.7 410.7 17.1 C 410.4 17.7 410 18.1 409.6 18.4 C 409.2 18.6 408.7 18.8 408.2 18.8 C 408.2 18.8 408.2 18.8 408.2 18.8 Z M 422 9.4 C 422 7.5 422.5 6 423.6 5.1 C 424.5 4.3 425.6 4 426.9 4 C 428.3 4 429.5 4.4 430.4 5.4 C 431.3 6.3 431.7 7.6 431.7 9.2 C 431.7 10.6 431.5 11.6 431.1 12.4 C 430.7 13.1 430.1 13.7 429.4 14.2 C 428.6 14.6 427.8 14.8 426.9 14.8 C 425.4 14.8 424.2 14.3 423.3 13.4 C 422.4 12.5 422 11.1 422 9.4 Z M 423.8 9.4 C 423.8 10.7 424.1 11.7 424.7 12.4 C 425.3 13 426 13.3 426.9 13.3 C 427.7 13.3 428.5 13 429 12.4 C 429.6 11.7 429.9 10.7 429.9 9.3 C 429.9 8 429.6 7.1 429 6.4 C 428.5 5.7 427.7 5.4 426.9 5.4 C 426 5.4 425.3 5.7 424.7 6.4 C 424.1 7.1 423.8 8 423.8 9.4 Z M 433.8 14.6 L 433.8 4.2 L 435.4 4.2 C 435.4 4.2 435.36 5.66 435.4 5.7 C 436.1 4.5 437.2 4 438.7 4 C 439.3 4 439.9 4.1 440.4 4.3 C 440.9 4.5 441.3 4.8 441.6 5.2 C 441.8 5.5 442 6 442.1 6.5 C 442.2 6.8 442.2 7.4 442.2 8.2 C 442.21 8.18 442.2 14.6 442.2 14.6 L 440.4 14.6 C 440.4 14.6 440.45 8.25 440.4 8.3 C 440.4 7.5 440.4 7 440.2 6.6 C 440.1 6.3 439.9 6 439.5 5.8 C 439.2 5.6 438.8 5.5 438.3 5.5 C 437.5 5.5 436.9 5.7 436.4 6.2 C 435.8 6.7 435.5 7.6 435.5 8.9 C 435.54 8.9 435.5 14.6 435.5 14.6 L 433.8 14.6 Z M 450.7 14.6 L 450.7 0.2 L 461.1 0.2 L 461.1 1.9 L 452.6 1.9 L 452.6 6.3 L 460.5 6.3 L 460.5 8 L 452.6 8 L 452.6 12.9 L 461.4 12.9 L 461.4 14.6 L 450.7 14.6 Z M 463.4 10 C 463.4 10 465.2 9.8 465.2 9.8 C 465.3 10.5 465.4 11.1 465.8 11.6 C 466.1 12 466.5 12.4 467.2 12.7 C 467.8 13 468.6 13.1 469.4 13.1 C 470.1 13.1 470.8 13 471.3 12.8 C 471.9 12.6 472.3 12.3 472.5 11.9 C 472.8 11.5 472.9 11.1 472.9 10.7 C 472.9 10.2 472.8 9.8 472.6 9.5 C 472.3 9.2 471.9 8.9 471.3 8.7 C 470.9 8.5 470 8.3 468.7 8 C 467.4 7.6 466.5 7.3 466 7.1 C 465.3 6.7 464.8 6.3 464.4 5.7 C 464.1 5.2 463.9 4.6 463.9 3.9 C 463.9 3.2 464.1 2.5 464.5 1.9 C 465 1.3 465.6 0.8 466.3 0.5 C 467.1 0.2 468 0 469 0 C 470 0 471 0.2 471.8 0.5 C 472.6 0.9 473.2 1.4 473.6 2 C 474.1 2.7 474.3 3.4 474.3 4.3 C 474.3 4.3 472.5 4.4 472.5 4.4 C 472.4 3.5 472.1 2.8 471.5 2.4 C 471 1.9 470.1 1.7 469 1.7 C 467.9 1.7 467.1 1.9 466.5 2.3 C 466 2.7 465.8 3.2 465.8 3.8 C 465.8 4.3 465.9 4.8 466.3 5.1 C 466.7 5.4 467.6 5.8 469.2 6.1 C 470.7 6.5 471.8 6.8 472.3 7 C 473.2 7.4 473.8 7.9 474.2 8.5 C 474.6 9.1 474.8 9.7 474.8 10.5 C 474.8 11.3 474.6 12 474.1 12.7 C 473.7 13.3 473.1 13.9 472.2 14.2 C 471.4 14.6 470.5 14.8 469.5 14.8 C 468.2 14.8 467.1 14.6 466.2 14.2 C 465.3 13.9 464.7 13.3 464.2 12.5 C 463.7 11.8 463.4 10.9 463.4 10 Z M 484.1 8.9 L 484.1 7.3 L 490.1 7.3 C 490.1 7.3 490.13 12.57 490.1 12.6 C 489.2 13.3 488.2 13.9 487.2 14.2 C 486.3 14.6 485.2 14.8 484.2 14.8 C 482.8 14.8 481.5 14.5 480.4 13.9 C 479.2 13.3 478.3 12.4 477.8 11.3 C 477.2 10.1 476.9 8.9 476.9 7.5 C 476.9 6.1 477.2 4.8 477.8 3.6 C 478.3 2.4 479.2 1.5 480.3 0.9 C 481.4 0.3 482.6 0 484.1 0 C 485.1 0 486 0.2 486.9 0.5 C 487.7 0.8 488.4 1.3 488.8 1.9 C 489.3 2.5 489.7 3.3 489.9 4.2 C 489.9 4.2 488.2 4.7 488.2 4.7 C 488 4 487.7 3.4 487.4 3 C 487.1 2.6 486.6 2.2 486 2 C 485.4 1.7 484.8 1.6 484.1 1.6 C 483.2 1.6 482.4 1.8 481.8 2 C 481.2 2.3 480.7 2.6 480.3 3.1 C 479.9 3.5 479.6 4 479.4 4.5 C 479 5.4 478.8 6.3 478.8 7.4 C 478.8 8.6 479.1 9.7 479.5 10.6 C 479.9 11.4 480.6 12.1 481.4 12.5 C 482.3 12.9 483.1 13.1 484.1 13.1 C 484.9 13.1 485.7 12.9 486.5 12.6 C 487.3 12.3 487.9 12 488.3 11.6 C 488.27 11.61 488.3 8.9 488.3 8.9 L 484.1 8.9 Z M 505 14.6 C 505 14.6 504.98 13.25 505 13.3 C 504.3 14.3 503.4 14.8 502.1 14.8 C 501.3 14.8 500.5 14.6 499.8 14.1 C 499.1 13.7 498.6 13 498.2 12.2 C 497.8 11.4 497.6 10.4 497.6 9.4 C 497.6 8.3 497.8 7.4 498.1 6.6 C 498.5 5.7 499 5.1 499.7 4.6 C 500.4 4.2 501.1 4 502 4 C 502.6 4 503.2 4.1 503.7 4.4 C 504.2 4.6 504.6 5 504.9 5.4 C 504.86 5.38 504.9 0.2 504.9 0.2 L 506.6 0.2 L 506.6 14.6 L 505 14.6 Z M 499.4 9.4 C 499.4 10.7 499.7 11.7 500.3 12.4 C 500.8 13 501.5 13.3 502.2 13.3 C 503 13.3 503.7 13 504.2 12.4 C 504.7 11.8 505 10.8 505 9.5 C 505 8.1 504.7 7.1 504.2 6.4 C 503.6 5.7 503 5.4 502.2 5.4 C 501.4 5.4 500.7 5.7 500.2 6.4 C 499.7 7 499.4 8 499.4 9.4 Z M 509.4 2.3 L 509.4 0.2 L 511.1 0.2 L 511.1 2.3 L 509.4 2.3 Z M 509.4 14.6 L 509.4 4.2 L 511.1 4.2 L 511.1 14.6 L 509.4 14.6 Z M 513.1 11.5 C 513.1 11.5 514.9 11.2 514.9 11.2 C 515 11.9 515.2 12.4 515.7 12.8 C 516.1 13.2 516.7 13.3 517.5 13.3 C 518.3 13.3 518.9 13.2 519.3 12.9 C 519.7 12.5 519.9 12.1 519.9 11.7 C 519.9 11.3 519.7 11 519.4 10.8 C 519.2 10.6 518.6 10.4 517.6 10.2 C 516.3 9.8 515.4 9.6 514.9 9.3 C 514.4 9.1 514.1 8.8 513.8 8.3 C 513.5 7.9 513.4 7.5 513.4 6.9 C 513.4 6.5 513.5 6.1 513.7 5.7 C 513.9 5.3 514.2 4.9 514.6 4.7 C 514.9 4.5 515.2 4.3 515.7 4.2 C 516.2 4 516.7 4 517.2 4 C 518 4 518.8 4.1 519.4 4.3 C 520 4.5 520.4 4.9 520.7 5.3 C 521 5.7 521.2 6.2 521.3 6.9 C 521.3 6.9 519.6 7.1 519.6 7.1 C 519.5 6.6 519.3 6.1 518.9 5.8 C 518.6 5.6 518 5.4 517.4 5.4 C 516.5 5.4 516 5.5 515.6 5.8 C 515.3 6.1 515.1 6.4 515.1 6.7 C 515.1 7 515.2 7.2 515.3 7.4 C 515.5 7.5 515.7 7.7 516 7.8 C 516.2 7.9 516.7 8 517.5 8.3 C 518.8 8.6 519.7 8.9 520.2 9.1 C 520.6 9.3 521 9.6 521.3 10 C 521.6 10.4 521.7 10.9 521.7 11.5 C 521.7 12.1 521.6 12.7 521.2 13.2 C 520.9 13.7 520.4 14.1 519.7 14.4 C 519.1 14.7 518.4 14.8 517.5 14.8 C 516.2 14.8 515.2 14.5 514.5 14 C 513.8 13.4 513.3 12.6 513.1 11.5 Z M 530.6 10.8 C 530.6 10.8 532.3 11 532.3 11 C 532.1 12.2 531.6 13.1 530.9 13.8 C 530.1 14.5 529.1 14.8 528 14.8 C 526.6 14.8 525.4 14.3 524.6 13.4 C 523.7 12.5 523.3 11.1 523.3 9.4 C 523.3 8.3 523.5 7.3 523.8 6.5 C 524.2 5.6 524.8 5 525.5 4.6 C 526.3 4.2 527.1 4 528 4 C 529.1 4 530.1 4.2 530.8 4.8 C 531.5 5.4 531.9 6.2 532.1 7.2 C 532.1 7.2 530.4 7.5 530.4 7.5 C 530.3 6.8 530 6.3 529.6 5.9 C 529.2 5.6 528.7 5.4 528.1 5.4 C 527.2 5.4 526.5 5.7 525.9 6.4 C 525.4 7 525.1 8 525.1 9.4 C 525.1 10.8 525.4 11.8 525.9 12.4 C 526.4 13 527.1 13.3 528 13.3 C 528.7 13.3 529.2 13.1 529.7 12.7 C 530.2 12.3 530.5 11.6 530.6 10.8 Z M 533.8 14.6 L 533.8 0.2 L 535.5 0.2 L 535.5 14.6 L 533.8 14.6 Z M 537.6 9.4 C 537.6 7.5 538.1 6 539.2 5.1 C 540.1 4.3 541.2 4 542.5 4 C 543.9 4 545.1 4.4 546 5.4 C 546.9 6.3 547.3 7.6 547.3 9.2 C 547.3 10.6 547.1 11.6 546.7 12.4 C 546.3 13.1 545.7 13.7 545 14.2 C 544.2 14.6 543.4 14.8 542.5 14.8 C 541 14.8 539.8 14.3 539 13.4 C 538.1 12.5 537.6 11.1 537.6 9.4 Z M 539.4 9.4 C 539.4 10.7 539.7 11.7 540.3 12.4 C 540.9 13 541.6 13.3 542.5 13.3 C 543.3 13.3 544.1 13 544.6 12.4 C 545.2 11.7 545.5 10.7 545.5 9.3 C 545.5 8 545.2 7.1 544.6 6.4 C 544.1 5.7 543.3 5.4 542.5 5.4 C 541.6 5.4 540.9 5.7 540.3 6.4 C 539.7 7.1 539.4 8 539.4 9.4 Z M 548.7 11.5 C 548.7 11.5 550.4 11.2 550.4 11.2 C 550.5 11.9 550.8 12.4 551.2 12.8 C 551.7 13.2 552.3 13.3 553.1 13.3 C 553.9 13.3 554.5 13.2 554.9 12.9 C 555.3 12.5 555.5 12.1 555.5 11.7 C 555.5 11.3 555.3 11 555 10.8 C 554.7 10.6 554.1 10.4 553.2 10.2 C 551.9 9.8 551 9.6 550.5 9.3 C 550 9.1 549.6 8.8 549.4 8.3 C 549.1 7.9 549 7.5 549 6.9 C 549 6.5 549.1 6.1 549.3 5.7 C 549.5 5.3 549.8 4.9 550.2 4.7 C 550.4 4.5 550.8 4.3 551.3 4.2 C 551.7 4 552.3 4 552.8 4 C 553.6 4 554.3 4.1 554.9 4.3 C 555.6 4.5 556 4.9 556.3 5.3 C 556.6 5.7 556.8 6.2 556.9 6.9 C 556.9 6.9 555.2 7.1 555.2 7.1 C 555.1 6.6 554.9 6.1 554.5 5.8 C 554.1 5.6 553.6 5.4 552.9 5.4 C 552.1 5.4 551.5 5.5 551.2 5.8 C 550.8 6.1 550.7 6.4 550.7 6.7 C 550.7 7 550.7 7.2 550.9 7.4 C 551 7.5 551.3 7.7 551.6 7.8 C 551.7 7.9 552.3 8 553.1 8.3 C 554.4 8.6 555.2 8.9 555.7 9.1 C 556.2 9.3 556.6 9.6 556.9 10 C 557.2 10.4 557.3 10.9 557.3 11.5 C 557.3 12.1 557.1 12.7 556.8 13.2 C 556.4 13.7 555.9 14.1 555.3 14.4 C 554.7 14.7 553.9 14.8 553.1 14.8 C 551.8 14.8 550.7 14.5 550 14 C 549.3 13.4 548.9 12.6 548.7 11.5 Z M 566.2 14.6 C 566.2 14.6 566.18 13.04 566.2 13 C 565.4 14.2 564.3 14.8 562.9 14.8 C 562.3 14.8 561.7 14.7 561.2 14.4 C 560.6 14.2 560.3 13.9 560 13.6 C 559.7 13.2 559.6 12.8 559.5 12.3 C 559.4 11.9 559.3 11.4 559.3 10.6 C 559.35 10.62 559.3 4.2 559.3 4.2 L 561.1 4.2 C 561.1 4.2 561.1 9.94 561.1 9.9 C 561.1 10.9 561.1 11.5 561.2 11.8 C 561.3 12.3 561.6 12.6 561.9 12.9 C 562.3 13.1 562.7 13.3 563.2 13.3 C 563.8 13.3 564.3 13.1 564.7 12.9 C 565.2 12.6 565.5 12.2 565.7 11.8 C 565.9 11.3 566 10.6 566 9.7 C 566 9.75 566 4.2 566 4.2 L 567.8 4.2 L 567.8 14.6 L 566.2 14.6 Z M 570.5 14.6 L 570.5 4.2 L 572.1 4.2 C 572.1 4.2 572.07 5.76 572.1 5.8 C 572.5 5 572.8 4.5 573.2 4.3 C 573.5 4.1 573.9 4 574.3 4 C 574.9 4 575.5 4.1 576.1 4.5 C 576.1 4.5 575.5 6.2 575.5 6.2 C 575.1 5.9 574.7 5.8 574.2 5.8 C 573.8 5.8 573.5 5.9 573.2 6.1 C 572.9 6.3 572.7 6.7 572.5 7.1 C 572.3 7.7 572.2 8.4 572.2 9.1 C 572.25 9.13 572.2 14.6 572.2 14.6 L 570.5 14.6 Z M 584.3 11.2 C 584.3 11.2 586.1 11.4 586.1 11.4 C 585.8 12.5 585.3 13.3 584.5 13.9 C 583.7 14.5 582.7 14.8 581.5 14.8 C 580 14.8 578.8 14.3 577.9 13.4 C 577 12.5 576.6 11.1 576.6 9.5 C 576.6 7.7 577 6.4 577.9 5.4 C 578.8 4.4 580 4 581.4 4 C 582.8 4 583.9 4.4 584.8 5.4 C 585.7 6.3 586.1 7.6 586.1 9.4 C 586.1 9.5 586.1 9.6 586.1 9.8 C 586.1 9.8 578.4 9.8 578.4 9.8 C 578.5 11 578.8 11.8 579.4 12.4 C 579.9 13 580.7 13.3 581.5 13.3 C 582.2 13.3 582.7 13.2 583.2 12.8 C 583.6 12.5 584 12 584.3 11.2 Z M 578.5 8.4 C 578.5 8.4 584.3 8.4 584.3 8.4 C 584.2 7.5 584 6.9 583.6 6.4 C 583.1 5.7 582.3 5.4 581.4 5.4 C 580.6 5.4 580 5.7 579.4 6.2 C 578.9 6.8 578.6 7.5 578.5 8.4 Z M 587.6 11.5 C 587.6 11.5 589.3 11.2 589.3 11.2 C 589.4 11.9 589.7 12.4 590.1 12.8 C 590.6 13.2 591.2 13.3 592 13.3 C 592.8 13.3 593.4 13.2 593.8 12.9 C 594.2 12.5 594.4 12.1 594.4 11.7 C 594.4 11.3 594.2 11 593.9 10.8 C 593.6 10.6 593 10.4 592.1 10.2 C 590.8 9.8 589.9 9.6 589.4 9.3 C 588.9 9.1 588.5 8.8 588.3 8.3 C 588 7.9 587.9 7.5 587.9 6.9 C 587.9 6.5 588 6.1 588.2 5.7 C 588.4 5.3 588.7 4.9 589.1 4.7 C 589.3 4.5 589.7 4.3 590.2 4.2 C 590.7 4 591.2 4 591.7 4 C 592.5 4 593.2 4.1 593.8 4.3 C 594.5 4.5 594.9 4.9 595.2 5.3 C 595.5 5.7 595.7 6.2 595.8 6.9 C 595.8 6.9 594.1 7.1 594.1 7.1 C 594 6.6 593.8 6.1 593.4 5.8 C 593 5.6 592.5 5.4 591.8 5.4 C 591 5.4 590.4 5.5 590.1 5.8 C 589.8 6.1 589.6 6.4 589.6 6.7 C 589.6 7 589.7 7.2 589.8 7.4 C 589.9 7.5 590.2 7.7 590.5 7.8 C 590.6 7.9 591.2 8 592 8.3 C 593.3 8.6 594.1 8.9 594.6 9.1 C 595.1 9.3 595.5 9.6 595.8 10 C 596.1 10.4 596.2 10.9 596.2 11.5 C 596.2 12.1 596 12.7 595.7 13.2 C 595.3 13.7 594.9 14.1 594.2 14.4 C 593.6 14.7 592.8 14.8 592 14.8 C 590.7 14.8 589.6 14.5 588.9 14 C 588.2 13.4 587.8 12.6 587.6 11.5 Z M 611 14.6 C 610.8 14.2 610.7 13.8 610.6 13.3 C 610 13.8 609.3 14.2 608.7 14.5 C 608.1 14.7 607.5 14.8 606.8 14.8 C 605.7 14.8 604.8 14.5 604.2 14 C 603.6 13.4 603.3 12.7 603.3 11.8 C 603.3 11.3 603.4 10.9 603.6 10.4 C 603.8 10 604.1 9.7 604.5 9.4 C 604.9 9.2 605.3 9 605.8 8.8 C 606.1 8.8 606.6 8.7 607.3 8.6 C 608.8 8.4 609.8 8.2 610.5 8 C 610.5 7.7 610.5 7.6 610.5 7.5 C 610.5 6.8 610.3 6.3 610 6 C 609.5 5.6 608.9 5.4 608 5.4 C 607.2 5.4 606.5 5.6 606.1 5.8 C 605.8 6.1 605.5 6.6 605.3 7.4 C 605.3 7.4 603.6 7.1 603.6 7.1 C 603.7 6.4 604 5.8 604.3 5.4 C 604.7 4.9 605.2 4.6 605.9 4.3 C 606.6 4.1 607.3 4 608.2 4 C 609.1 4 609.8 4.1 610.4 4.3 C 610.9 4.5 611.4 4.7 611.6 5.1 C 611.9 5.4 612.1 5.8 612.2 6.3 C 612.2 6.5 612.2 7.1 612.2 7.9 C 612.2 7.9 612.2 10.2 612.2 10.2 C 612.2 11.8 612.3 12.9 612.4 13.3 C 612.4 13.7 612.6 14.2 612.8 14.6 C 612.8 14.56 611 14.6 611 14.6 C 611 14.6 610.97 14.56 611 14.6 Z M 610.5 9.4 C 609.8 9.6 608.9 9.8 607.6 10 C 606.9 10.1 606.4 10.2 606.1 10.4 C 605.8 10.5 605.5 10.7 605.4 10.9 C 605.2 11.2 605.1 11.5 605.1 11.8 C 605.1 12.2 605.3 12.6 605.7 12.9 C 606 13.3 606.5 13.4 607.2 13.4 C 607.9 13.4 608.5 13.3 609 13 C 609.6 12.7 609.9 12.3 610.2 11.8 C 610.4 11.4 610.5 10.8 610.5 10 C 610.5 10 610.5 9.4 610.5 9.4 Z M 615 14.6 L 615 4.2 L 616.6 4.2 C 616.6 4.2 616.55 5.66 616.6 5.7 C 617.3 4.5 618.4 4 619.9 4 C 620.5 4 621.1 4.1 621.6 4.3 C 622.1 4.5 622.5 4.8 622.8 5.2 C 623 5.5 623.2 6 623.3 6.5 C 623.4 6.8 623.4 7.4 623.4 8.2 C 623.4 8.18 623.4 14.6 623.4 14.6 L 621.6 14.6 C 621.6 14.6 621.64 8.25 621.6 8.3 C 621.6 7.5 621.6 7 621.4 6.6 C 621.3 6.3 621.1 6 620.7 5.8 C 620.4 5.6 620 5.5 619.5 5.5 C 618.7 5.5 618.1 5.7 617.5 6.2 C 617 6.7 616.7 7.6 616.7 8.9 C 616.73 8.9 616.7 14.6 616.7 14.6 L 615 14.6 Z M 632.8 14.6 C 632.8 14.6 632.82 13.25 632.8 13.3 C 632.2 14.3 631.2 14.8 629.9 14.8 C 629.1 14.8 628.3 14.6 627.6 14.1 C 626.9 13.7 626.4 13 626 12.2 C 625.6 11.4 625.5 10.4 625.5 9.4 C 625.5 8.3 625.6 7.4 626 6.6 C 626.3 5.7 626.8 5.1 627.5 4.6 C 628.2 4.2 629 4 629.8 4 C 630.5 4 631 4.1 631.5 4.4 C 632 4.6 632.4 5 632.7 5.4 C 632.71 5.38 632.7 0.2 632.7 0.2 L 634.5 0.2 L 634.5 14.6 L 632.8 14.6 Z M 627.3 9.4 C 627.3 10.7 627.5 11.7 628.1 12.4 C 628.7 13 629.3 13.3 630.1 13.3 C 630.9 13.3 631.5 13 632 12.4 C 632.6 11.8 632.9 10.8 632.9 9.5 C 632.9 8.1 632.6 7.1 632 6.4 C 631.5 5.7 630.8 5.4 630 5.4 C 629.2 5.4 628.6 5.7 628.1 6.4 C 627.5 7 627.3 8 627.3 9.4 Z M 642.1 11.5 C 642.1 11.5 643.8 11.2 643.8 11.2 C 643.9 11.9 644.2 12.4 644.6 12.8 C 645.1 13.2 645.7 13.3 646.5 13.3 C 647.3 13.3 647.9 13.2 648.3 12.9 C 648.7 12.5 648.9 12.1 648.9 11.7 C 648.9 11.3 648.7 11 648.4 10.8 C 648.1 10.6 647.5 10.4 646.6 10.2 C 645.3 9.8 644.4 9.6 643.9 9.3 C 643.4 9.1 643 8.8 642.7 8.3 C 642.5 7.9 642.4 7.5 642.4 6.9 C 642.4 6.5 642.5 6.1 642.7 5.7 C 642.9 5.3 643.2 4.9 643.5 4.7 C 643.8 4.5 644.2 4.3 644.7 4.2 C 645.1 4 645.6 4 646.2 4 C 647 4 647.7 4.1 648.3 4.3 C 648.9 4.5 649.4 4.9 649.7 5.3 C 650 5.7 650.2 6.2 650.3 6.9 C 650.3 6.9 648.6 7.1 648.6 7.1 C 648.5 6.6 648.3 6.1 647.9 5.8 C 647.5 5.6 647 5.4 646.3 5.4 C 645.5 5.4 644.9 5.5 644.6 5.8 C 644.2 6.1 644.1 6.4 644.1 6.7 C 644.1 7 644.1 7.2 644.3 7.4 C 644.4 7.5 644.6 7.7 645 7.8 C 645.1 7.9 645.6 8 646.5 8.3 C 647.7 8.6 648.6 8.9 649.1 9.1 C 649.6 9.3 650 9.6 650.3 10 C 650.5 10.4 650.7 10.9 650.7 11.5 C 650.7 12.1 650.5 12.7 650.2 13.2 C 649.8 13.7 649.3 14.1 648.7 14.4 C 648 14.7 647.3 14.8 646.5 14.8 C 645.2 14.8 644.1 14.5 643.4 14 C 642.7 13.4 642.3 12.6 642.1 11.5 Z M 659.9 14.6 C 659.7 14.2 659.6 13.8 659.5 13.3 C 658.9 13.8 658.3 14.2 657.7 14.5 C 657.1 14.7 656.4 14.8 655.7 14.8 C 654.6 14.8 653.7 14.5 653.1 14 C 652.5 13.4 652.2 12.7 652.2 11.8 C 652.2 11.3 652.3 10.9 652.5 10.4 C 652.8 10 653.1 9.7 653.4 9.4 C 653.8 9.2 654.2 9 654.7 8.8 C 655 8.8 655.6 8.7 656.3 8.6 C 657.7 8.4 658.7 8.2 659.4 8 C 659.4 7.7 659.4 7.6 659.4 7.5 C 659.4 6.8 659.2 6.3 658.9 6 C 658.5 5.6 657.8 5.4 656.9 5.4 C 656.1 5.4 655.5 5.6 655.1 5.8 C 654.7 6.1 654.4 6.6 654.2 7.4 C 654.2 7.4 652.5 7.1 652.5 7.1 C 652.6 6.4 652.9 5.8 653.3 5.4 C 653.6 4.9 654.1 4.6 654.8 4.3 C 655.5 4.1 656.3 4 657.2 4 C 658 4 658.8 4.1 659.3 4.3 C 659.9 4.5 660.3 4.7 660.5 5.1 C 660.8 5.4 661 5.8 661.1 6.3 C 661.1 6.5 661.2 7.1 661.2 7.9 C 661.2 7.9 661.2 10.2 661.2 10.2 C 661.2 11.8 661.2 12.9 661.3 13.3 C 661.4 13.7 661.5 14.2 661.7 14.6 C 661.73 14.56 659.9 14.6 659.9 14.6 C 659.9 14.6 659.89 14.56 659.9 14.6 Z M 659.4 9.4 C 658.8 9.6 657.8 9.8 656.5 10 C 655.8 10.1 655.3 10.2 655 10.4 C 654.7 10.5 654.5 10.7 654.3 10.9 C 654.1 11.2 654.1 11.5 654.1 11.8 C 654.1 12.2 654.2 12.6 654.6 12.9 C 654.9 13.3 655.5 13.4 656.1 13.4 C 656.8 13.4 657.4 13.3 657.9 13 C 658.5 12.7 658.9 12.3 659.1 11.8 C 659.3 11.4 659.4 10.8 659.4 10 C 659.4 10 659.4 9.4 659.4 9.4 Z M 664.3 14.6 L 664.3 5.6 L 662.8 5.6 L 662.8 4.2 L 664.3 4.2 C 664.3 4.2 664.32 3.09 664.3 3.1 C 664.3 2.4 664.4 1.9 664.5 1.5 C 664.7 1.1 665 0.7 665.4 0.4 C 665.8 0.1 666.4 0 667.2 0 C 667.7 0 668.2 0.1 668.8 0.2 C 668.8 0.2 668.6 1.7 668.6 1.7 C 668.2 1.6 667.9 1.6 667.5 1.6 C 667 1.6 666.6 1.7 666.4 2 C 666.2 2.2 666.1 2.6 666.1 3.2 C 666.06 3.23 666.1 4.2 666.1 4.2 L 668.1 4.2 L 668.1 5.6 L 666.1 5.6 L 666.1 14.6 L 664.3 14.6 Z M 676.6 11.2 C 676.6 11.2 678.4 11.4 678.4 11.4 C 678.1 12.5 677.6 13.3 676.8 13.9 C 676 14.5 675 14.8 673.8 14.8 C 672.3 14.8 671.1 14.3 670.2 13.4 C 669.3 12.5 668.9 11.1 668.9 9.5 C 668.9 7.7 669.3 6.4 670.2 5.4 C 671.1 4.4 672.3 4 673.7 4 C 675.1 4 676.2 4.4 677.1 5.4 C 678 6.3 678.4 7.6 678.4 9.4 C 678.4 9.5 678.4 9.6 678.4 9.8 C 678.4 9.8 670.7 9.8 670.7 9.8 C 670.7 11 671.1 11.8 671.7 12.4 C 672.2 13 673 13.3 673.8 13.3 C 674.5 13.3 675 13.2 675.5 12.8 C 675.9 12.5 676.3 12 676.6 11.2 Z M 670.8 8.4 C 670.8 8.4 676.6 8.4 676.6 8.4 C 676.5 7.5 676.3 6.9 675.9 6.4 C 675.3 5.7 674.6 5.4 673.7 5.4 C 672.9 5.4 672.2 5.7 671.7 6.2 C 671.1 6.8 670.8 7.5 670.8 8.4 Z M 686.1 14.6 L 686.1 0.2 L 687.9 0.2 C 687.9 0.2 687.89 5.38 687.9 5.4 C 688.7 4.4 689.7 4 691 4 C 691.8 4 692.4 4.1 693 4.4 C 693.6 4.7 694 5.1 694.2 5.7 C 694.5 6.2 694.6 7 694.6 8 C 694.58 7.99 694.6 14.6 694.6 14.6 L 692.8 14.6 C 692.8 14.6 692.82 7.99 692.8 8 C 692.8 7.1 692.6 6.5 692.3 6.1 C 691.9 5.7 691.3 5.5 690.6 5.5 C 690.1 5.5 689.6 5.6 689.2 5.9 C 688.7 6.1 688.4 6.5 688.2 7 C 688 7.4 687.9 8.1 687.9 8.9 C 687.89 8.89 687.9 14.6 687.9 14.6 L 686.1 14.6 Z M 704.4 14.6 C 704.2 14.2 704.1 13.8 704 13.3 C 703.4 13.8 702.7 14.2 702.1 14.5 C 701.5 14.7 700.9 14.8 700.2 14.8 C 699.1 14.8 698.2 14.5 697.6 14 C 697 13.4 696.7 12.7 696.7 11.8 C 696.7 11.3 696.8 10.9 697 10.4 C 697.2 10 697.5 9.7 697.9 9.4 C 698.3 9.2 698.7 9 699.2 8.8 C 699.5 8.8 700 8.7 700.7 8.6 C 702.2 8.4 703.2 8.2 703.9 8 C 703.9 7.7 703.9 7.6 703.9 7.5 C 703.9 6.8 703.7 6.3 703.4 6 C 702.9 5.6 702.3 5.4 701.4 5.4 C 700.6 5.4 699.9 5.6 699.6 5.8 C 699.2 6.1 698.9 6.6 698.7 7.4 C 698.7 7.4 697 7.1 697 7.1 C 697.1 6.4 697.4 5.8 697.7 5.4 C 698.1 4.9 698.6 4.6 699.3 4.3 C 700 4.1 700.7 4 701.6 4 C 702.5 4 703.2 4.1 703.8 4.3 C 704.4 4.5 704.8 4.7 705 5.1 C 705.3 5.4 705.5 5.8 705.6 6.3 C 705.6 6.5 705.7 7.1 705.7 7.9 C 705.7 7.9 705.7 10.2 705.7 10.2 C 705.7 11.8 705.7 12.9 705.8 13.3 C 705.8 13.7 706 14.2 706.2 14.6 C 706.21 14.56 704.4 14.6 704.4 14.6 C 704.4 14.6 704.38 14.56 704.4 14.6 Z M 703.9 9.4 C 703.2 9.6 702.3 9.8 701 10 C 700.3 10.1 699.8 10.2 699.5 10.4 C 699.2 10.5 698.9 10.7 698.8 10.9 C 698.6 11.2 698.5 11.5 698.5 11.8 C 698.5 12.2 698.7 12.6 699.1 12.9 C 699.4 13.3 699.9 13.4 700.6 13.4 C 701.3 13.4 701.9 13.3 702.4 13 C 703 12.7 703.3 12.3 703.6 11.8 C 703.8 11.4 703.9 10.8 703.9 10 C 703.9 10 703.9 9.4 703.9 9.4 Z M 708.4 14.6 L 708.4 4.2 L 709.9 4.2 C 709.9 4.2 709.94 5.76 709.9 5.8 C 710.3 5 710.7 4.5 711.1 4.3 C 711.4 4.1 711.8 4 712.2 4 C 712.8 4 713.4 4.1 714 4.5 C 714 4.5 713.4 6.2 713.4 6.2 C 713 5.9 712.5 5.8 712.1 5.8 C 711.7 5.8 711.4 5.9 711.1 6.1 C 710.8 6.3 710.5 6.7 710.4 7.1 C 710.2 7.7 710.1 8.4 710.1 9.1 C 710.12 9.13 710.1 14.6 710.1 14.6 L 708.4 14.6 Z M 716.7 14.6 L 715 14.6 L 715 0.2 L 716.8 0.2 C 716.8 0.2 716.79 5.35 716.8 5.4 C 717.5 4.4 718.5 4 719.6 4 C 720.3 4 720.9 4.1 721.4 4.3 C 722 4.6 722.5 5 722.8 5.4 C 723.2 5.9 723.5 6.5 723.7 7.1 C 723.9 7.8 724 8.5 724 9.2 C 724 11 723.6 12.4 722.7 13.3 C 721.8 14.3 720.8 14.8 719.5 14.8 C 718.3 14.8 717.4 14.3 716.7 13.3 C 716.66 13.26 716.7 14.6 716.7 14.6 Z M 716.6 9.3 C 716.6 10.5 716.8 11.4 717.1 12 C 717.7 12.9 718.5 13.3 719.4 13.3 C 720.2 13.3 720.8 13 721.4 12.3 C 721.9 11.7 722.2 10.7 722.2 9.4 C 722.2 8 722 7 721.4 6.4 C 720.9 5.7 720.2 5.4 719.5 5.4 C 718.7 5.4 718 5.7 717.5 6.4 C 716.9 7.1 716.6 8 716.6 9.3 Z M 725.5 9.4 C 725.5 7.5 726 6 727.1 5.1 C 728 4.3 729.1 4 730.4 4 C 731.8 4 733 4.4 733.9 5.4 C 734.8 6.3 735.2 7.6 735.2 9.2 C 735.2 10.6 735 11.6 734.6 12.4 C 734.2 13.1 733.6 13.7 732.9 14.2 C 732.1 14.6 731.3 14.8 730.4 14.8 C 728.9 14.8 727.7 14.3 726.9 13.4 C 726 12.5 725.5 11.1 725.5 9.4 Z M 727.3 9.4 C 727.3 10.7 727.6 11.7 728.2 12.4 C 728.8 13 729.5 13.3 730.4 13.3 C 731.2 13.3 732 13 732.5 12.4 C 733.1 11.7 733.4 10.7 733.4 9.3 C 733.4 8 733.1 7.1 732.5 6.4 C 732 5.7 731.2 5.4 730.4 5.4 C 729.5 5.4 728.8 5.7 728.2 6.4 C 727.6 7.1 727.3 8 727.3 9.4 Z M 737.3 14.6 L 737.3 4.2 L 738.8 4.2 C 738.8 4.2 738.85 5.76 738.8 5.8 C 739.3 5 739.6 4.5 740 4.3 C 740.3 4.1 740.7 4 741.1 4 C 741.7 4 742.3 4.1 742.9 4.5 C 742.9 4.5 742.3 6.2 742.3 6.2 C 741.9 5.9 741.4 5.8 741 5.8 C 740.6 5.8 740.3 5.9 740 6.1 C 739.7 6.3 739.4 6.7 739.3 7.1 C 739.1 7.7 739 8.4 739 9.1 C 739.02 9.13 739 14.6 739 14.6 L 737.3 14.6 Z M 743.2 11.5 C 743.2 11.5 745 11.2 745 11.2 C 745.1 11.9 745.3 12.4 745.8 12.8 C 746.2 13.2 746.9 13.3 747.7 13.3 C 748.5 13.3 749.1 13.2 749.5 12.9 C 749.9 12.5 750 12.1 750 11.7 C 750 11.3 749.9 11 749.5 10.8 C 749.3 10.6 748.7 10.4 747.7 10.2 C 746.4 9.8 745.6 9.6 745.1 9.3 C 744.6 9.1 744.2 8.8 743.9 8.3 C 743.7 7.9 743.5 7.5 743.5 6.9 C 743.5 6.5 743.6 6.1 743.9 5.7 C 744.1 5.3 744.4 4.9 744.7 4.7 C 745 4.5 745.4 4.3 745.8 4.2 C 746.3 4 746.8 4 747.4 4 C 748.2 4 748.9 4.1 749.5 4.3 C 750.1 4.5 750.6 4.9 750.9 5.3 C 751.2 5.7 751.4 6.2 751.5 6.9 C 751.5 6.9 749.7 7.1 749.7 7.1 C 749.7 6.6 749.4 6.1 749.1 5.8 C 748.7 5.6 748.2 5.4 747.5 5.4 C 746.7 5.4 746.1 5.5 745.8 5.8 C 745.4 6.1 745.2 6.4 745.2 6.7 C 745.2 7 745.3 7.2 745.4 7.4 C 745.6 7.5 745.8 7.7 746.1 7.8 C 746.3 7.9 746.8 8 747.7 8.3 C 748.9 8.6 749.8 8.9 750.3 9.1 C 750.8 9.3 751.2 9.6 751.4 10 C 751.7 10.4 751.9 10.9 751.9 11.5 C 751.9 12.1 751.7 12.7 751.3 13.2 C 751 13.7 750.5 14.1 749.9 14.4 C 749.2 14.7 748.5 14.8 747.7 14.8 C 746.3 14.8 745.3 14.5 744.6 14 C 743.9 13.4 743.4 12.6 743.2 11.5 Z M 754.4 14.6 L 754.4 12.6 L 756.4 12.6 L 756.4 14.6 L 754.4 14.6 Z " stroke="none" fill="#54626c"/>
  </g>
</svg>