<?xml version="1.0" standalone="no"?>
<!DOCTYPE svg PUBLIC "-//W3C//DTD SVG 1.1//EN" "http://www.w3.org/Graphics/SVG/1.1/DTD/svg11.dtd">
<svg xmlns="http://www.w3.org/2000/svg" version="1.1" width="64px" height="27.9px" viewBox="0 -7 64 27.9" style="top:-7px">
  <desc>LW com</desc>
  <defs/>
  <g id="Polygon64939">
    <path d="M 1.1 10.2 L 1.1 0.3 L 3.1 0.3 L 3.1 8.5 L 8.1 8.5 L 8.1 10.2 L 1.1 10.2 Z M 10.2 10.2 L 7.8 0.2 L 9.9 0.2 L 11.4 7.1 L 13.2 0.2 L 15.6 0.2 L 17.4 7.2 L 18.9 0.2 L 21 0.2 L 18.5 10.2 L 16.4 10.2 L 14.4 2.7 L 12.4 10.2 L 10.2 10.2 Z M 21.2 10.2 L 21.2 8.3 L 23.1 8.3 L 23.1 10.2 L 21.2 10.2 Z M 31.4 5.1 C 31.4 5.1 29.6 5.4 29.6 5.4 C 29.5 5 29.3 4.8 29.1 4.6 C 28.9 4.4 28.6 4.3 28.2 4.3 C 27.8 4.3 27.4 4.4 27.1 4.8 C 26.8 5.1 26.7 5.7 26.7 6.4 C 26.7 7.3 26.8 7.9 27.1 8.3 C 27.4 8.6 27.8 8.8 28.3 8.8 C 28.6 8.8 28.9 8.7 29.2 8.5 C 29.4 8.3 29.6 7.9 29.7 7.4 C 29.7 7.4 31.5 7.7 31.5 7.7 C 31.3 8.6 31 9.3 30.4 9.7 C 29.9 10.1 29.1 10.4 28.2 10.4 C 27.1 10.4 26.3 10 25.6 9.4 C 25 8.7 24.7 7.8 24.7 6.6 C 24.7 5.4 25 4.4 25.6 3.8 C 26.3 3.1 27.1 2.8 28.2 2.8 C 29.1 2.8 29.8 3 30.3 3.3 C 30.8 3.7 31.2 4.3 31.4 5.1 Z M 32.5 6.5 C 32.5 5.8 32.6 5.2 32.9 4.6 C 33.2 4 33.7 3.6 34.3 3.2 C 34.8 2.9 35.5 2.8 36.2 2.8 C 37.3 2.8 38.2 3.1 38.9 3.8 C 39.6 4.6 39.9 5.5 39.9 6.5 C 39.9 7.6 39.6 8.6 38.9 9.3 C 38.2 10 37.3 10.4 36.2 10.4 C 35.5 10.4 34.9 10.2 34.3 9.9 C 33.7 9.6 33.2 9.2 32.9 8.6 C 32.6 8 32.5 7.3 32.5 6.5 Z M 34.4 6.6 C 34.4 7.3 34.6 7.8 34.9 8.2 C 35.3 8.6 35.7 8.8 36.2 8.8 C 36.7 8.8 37.1 8.6 37.5 8.2 C 37.8 7.8 38 7.3 38 6.5 C 38 5.8 37.8 5.3 37.5 4.9 C 37.1 4.5 36.7 4.3 36.2 4.3 C 35.7 4.3 35.3 4.5 34.9 4.9 C 34.6 5.3 34.4 5.8 34.4 6.6 Z M 41.3 2.9 L 43.1 2.9 C 43.1 2.9 43.08 3.92 43.1 3.9 C 43.7 3.2 44.5 2.8 45.3 2.8 C 45.8 2.8 46.2 2.9 46.6 3.1 C 46.9 3.2 47.2 3.5 47.4 3.9 C 47.7 3.5 48.1 3.2 48.4 3.1 C 48.8 2.9 49.2 2.8 49.6 2.8 C 50.1 2.8 50.6 2.9 51 3.1 C 51.3 3.3 51.6 3.6 51.8 4 C 51.9 4.4 52 4.9 52 5.6 C 51.99 5.55 52 10.2 52 10.2 L 50.1 10.2 C 50.1 10.2 50.07 6.04 50.1 6 C 50.1 5.3 50 4.9 49.9 4.6 C 49.7 4.4 49.4 4.2 49 4.2 C 48.8 4.2 48.5 4.3 48.3 4.5 C 48.1 4.6 47.9 4.9 47.8 5.2 C 47.7 5.5 47.6 6 47.6 6.7 C 47.62 6.71 47.6 10.2 47.6 10.2 L 45.7 10.2 C 45.7 10.2 45.7 6.21 45.7 6.2 C 45.7 5.5 45.7 5.1 45.6 4.8 C 45.5 4.6 45.4 4.5 45.3 4.4 C 45.1 4.3 44.9 4.2 44.7 4.2 C 44.4 4.2 44.1 4.3 43.9 4.5 C 43.7 4.6 43.5 4.9 43.4 5.2 C 43.3 5.5 43.2 6 43.2 6.7 C 43.23 6.67 43.2 10.2 43.2 10.2 L 41.3 10.2 L 41.3 2.9 Z " stroke="none" fill="#ffffff"/>
  </g>
</svg>