<?xml version="1.0" standalone="no"?>
<!DOCTYPE svg PUBLIC "-//W3C//DTD SVG 1.1//EN" "http://www.w3.org/Graphics/SVG/1.1/DTD/svg11.dtd">
<svg xmlns="http://www.w3.org/2000/svg" version="1.1" width="80px" height="41.3px" viewBox="0 -7 80 41.3" style="top:-7px">
  <desc>2019</desc>
  <defs/>
  <g id="Polygon62684">
    <path d="M 10.2 13.1 L 10.2 14.8 C 10.2 14.8 0.61 14.78 0.6 14.8 C 0.6 14.4 0.7 13.9 0.8 13.5 C 1.1 12.9 1.5 12.2 2 11.6 C 2.5 11 3.3 10.2 4.3 9.4 C 5.9 8.1 7 7.1 7.5 6.3 C 8.1 5.6 8.4 4.9 8.4 4.2 C 8.4 3.5 8.1 2.9 7.6 2.4 C 7.1 1.9 6.4 1.7 5.6 1.7 C 4.8 1.7 4.1 1.9 3.6 2.4 C 3.1 3 2.8 3.7 2.8 4.6 C 2.8 4.6 1 4.4 1 4.4 C 1.1 3 1.6 2 2.4 1.3 C 3.2 0.5 4.3 0.2 5.7 0.2 C 7.1 0.2 8.2 0.6 9 1.3 C 9.8 2.1 10.2 3.1 10.2 4.2 C 10.2 4.8 10.1 5.4 9.8 5.9 C 9.6 6.5 9.2 7.1 8.7 7.7 C 8.1 8.3 7.2 9.2 5.9 10.3 C 4.8 11.2 4.2 11.8 3.8 12.1 C 3.5 12.4 3.3 12.7 3.1 13.1 C 3.09 13.07 10.2 13.1 10.2 13.1 Z M 13.6 13.5 C 12.6 12.3 12.1 10.3 12.1 7.6 C 12.1 5.9 12.3 4.5 12.7 3.5 C 13 2.4 13.5 1.6 14.2 1 C 14.9 0.5 15.8 0.2 16.9 0.2 C 17.7 0.2 18.3 0.3 18.9 0.7 C 19.5 1 20 1.4 20.4 2 C 20.8 2.6 21.1 3.3 21.3 4.2 C 21.5 5 21.6 6.2 21.6 7.6 C 21.6 9.3 21.4 10.7 21.1 11.7 C 20.7 12.8 20.2 13.6 19.5 14.2 C 18.8 14.7 17.9 15 16.9 15 C 15.5 15 14.4 14.5 13.6 13.5 C 13.6 13.5 13.6 13.5 13.6 13.5 Z M 14.9 2.7 C 14.3 3.6 14 5.2 14 7.6 C 14 10 14.3 11.6 14.8 12.4 C 15.4 13.2 16.1 13.6 16.9 13.6 C 17.7 13.6 18.4 13.2 18.9 12.4 C 19.5 11.6 19.8 10 19.8 7.6 C 19.8 5.2 19.5 3.6 18.9 2.8 C 18.4 2.1 17.7 1.7 16.9 1.7 C 16 1.7 15.4 2 14.9 2.7 C 14.9 2.7 14.9 2.7 14.9 2.7 Z M 30.2 14.8 L 28.4 14.8 C 28.4 14.8 28.37 3.41 28.4 3.4 C 27.9 3.8 27.4 4.2 26.7 4.6 C 26 5.1 25.4 5.4 24.8 5.6 C 24.8 5.6 24.8 3.8 24.8 3.8 C 25.8 3.4 26.7 2.8 27.4 2.1 C 28.2 1.5 28.7 0.8 29 0.2 C 29 0.19 30.2 0.2 30.2 0.2 L 30.2 14.8 Z M 35 11.4 C 35 11.4 36.7 11.3 36.7 11.3 C 36.9 12.1 37.1 12.7 37.5 13 C 38 13.4 38.5 13.6 39.1 13.6 C 39.7 13.6 40.1 13.4 40.6 13.2 C 41 12.9 41.3 12.6 41.6 12.2 C 41.8 11.8 42.1 11.2 42.2 10.5 C 42.4 9.8 42.5 9 42.5 8.3 C 42.5 8.2 42.5 8.1 42.5 7.9 C 42.1 8.5 41.7 9 41 9.3 C 40.4 9.7 39.7 9.9 39 9.9 C 37.8 9.9 36.8 9.4 36 8.5 C 35.1 7.7 34.7 6.5 34.7 5.1 C 34.7 3.6 35.2 2.4 36 1.5 C 36.9 0.6 38 0.2 39.3 0.2 C 40.2 0.2 41.1 0.4 41.9 1 C 42.7 1.5 43.3 2.2 43.7 3.1 C 44.1 4.1 44.3 5.4 44.3 7.2 C 44.3 9.1 44.1 10.6 43.7 11.7 C 43.3 12.8 42.7 13.6 41.9 14.2 C 41.1 14.7 40.1 15 39.1 15 C 37.9 15 37 14.7 36.3 14.1 C 35.6 13.5 35.1 12.6 35 11.4 Z M 42.3 5 C 42.3 4 42 3.2 41.5 2.6 C 40.9 2 40.3 1.7 39.5 1.7 C 38.7 1.7 38 2 37.4 2.6 C 36.9 3.3 36.6 4.1 36.6 5.2 C 36.6 6.1 36.8 6.8 37.4 7.4 C 38 8 38.6 8.3 39.5 8.3 C 40.3 8.3 41 8 41.5 7.4 C 42 6.8 42.3 6 42.3 5 Z " stroke="none" fill="#54626c"/>
  </g>
</svg>