<?xml version="1.0" standalone="no"?><!DOCTYPE svg PUBLIC "-//W3C//DTD SVG 1.1//EN" "http://www.w3.org/Graphics/SVG/1.1/DTD/svg11.dtd"><svg xmlns="http://www.w3.org/2000/svg" version="1.1" width="370.5px" height="58.9px" viewBox="0 -4 370.5 58.9" style="top:-4px"><desc>In fall 2020, our New York office joined the New York Carbon Challenge As part of this partnership between the Mayor</desc><defs/><g id="Polygon68859"><path d="m4.4 45.4c-.1-.1-.1-.4-.2-.6c-.3.3-.6.5-.9.6c-.4.1-.7.2-1.1.2c-.6 0-1-.2-1.3-.5c-.4-.3-.5-.6-.5-1.1c0-.3 0-.5.2-.7c.1-.2.2-.4.4-.6c.2-.1.5-.2.7-.3c.2 0 .5 0 .8-.1c.8-.1 1.3-.2 1.7-.3c0-.1 0-.2 0-.3c0-.3-.1-.6-.3-.7c-.2-.3-.6-.4-1-.4c-.5 0-.8.1-1 .3c-.2.1-.4.4-.5.8c0 0-.9-.1-.9-.1c.1-.4.3-.7.4-1c.2-.2.5-.4.9-.5c.3-.2.7-.2 1.2-.2c.5 0 .8 0 1.1.1c.3.1.5.3.7.5c.1.1.2.3.3.6c0 .1 0 .4 0 .8c0 0 0 1.3 0 1.3c0 .8 0 1.4.1 1.6c0 .2.1.4.2.6c-.01.04-1 0-1 0c0 0 .03.04 0 0zm-.2-2.7c-.4.1-.9.3-1.5.4c-.4 0-.7.1-.8.1c-.2.1-.3.2-.4.3c-.1.2-.1.3-.1.5c0 .2.1.4.2.6c.2.2.5.2.9.2c.3 0 .6 0 .9-.2c.3-.1.5-.4.6-.6c.1-.2.2-.5.2-1c0 0 0-.3 0-.3zm3.9 2c.1 0 .3-.1.4-.1c0 0 .2.8.2.8c-.3.1-.5.1-.7.1c-.4 0-.6 0-.8-.1c-.2-.1-.3-.3-.4-.5c-.1-.1-.1-.5-.1-1.1c0 .05 0-3.1 0-3.1l-.7 0l0-.7l.7 0l0-1.3l.9-.6l0 1.9l.9 0l0 .7l-.9 0c0 0 .02 3.2 0 3.2c0 .3 0 .4.1.5c0 .1.1.1.1.2c.1 0 .2.1.3.1c0 0 0 0 0 0zm7.5.7l-.9 0c0 0-.04-5.84 0-5.8c-.3.2-.6.4-.9.6c-.4.2-.7.4-1 .5c0 0 0-.9 0-.9c.5-.3 1-.6 1.4-.9c.4-.3.6-.7.8-1c-.01 0 .6 0 .6 0l0 7.5zm7.2-.8l0 .8c0 0-4.97.04-5 0c0-.2.1-.4.1-.6c.2-.3.4-.7.6-1c.3-.3.7-.7 1.3-1.1c.8-.7 1.3-1.2 1.6-1.6c.3-.4.4-.8.4-1.1c0-.4-.1-.7-.4-1c-.2-.2-.6-.3-1-.3c-.4 0-.8.1-1 .4c-.3.2-.4.6-.4 1.1c0 0-1-.1-1-.1c.1-.7.3-1.3.7-1.6c.5-.4 1-.6 1.7-.6c.8 0 1.3.2 1.8.6c.4.4.6.9.6 1.5c0 .3-.1.6-.2.9c-.1.3-.3.6-.6.9c-.3.3-.8.8-1.4 1.3c-.6.5-.9.8-1.1 1c-.2.1-.3.3-.4.5c.01-.04 3.7 0 3.7 0zm1.1-5.7l0-.9l4.8 0c0 0 .02.74 0 .7c-.5.6-.9 1.2-1.4 2.1c-.5.8-.8 1.7-1.1 2.6c-.2.6-.3 1.3-.3 2c0 0-1 0-1 0c0-.5.1-1.3.4-2.1c.2-.8.5-1.6.9-2.4c.4-.8.9-1.5 1.3-2c.03.01-3.6 0-3.6 0zm9.2 6.5l-.9 0c0 0-.02-5.84 0-5.8c-.2.2-.5.4-.9.6c-.4.2-.7.4-1 .5c0 0 0-.9 0-.9c.6-.3 1-.6 1.4-.9c.4-.3.6-.7.8-1c.01 0 .6 0 .6 0l0 7.5zm4.3 0l2.8-7.5l1.1 0l3.1 7.5l-1.1 0l-.9-2.2l-3.2 0l-.8 2.2l-1 0zm2.1-3l2.6 0c0 0-.81-2.12-.8-2.1c-.3-.7-.4-1.2-.5-1.6c-.1.5-.3 1-.5 1.5c.05-.05-.8 2.2-.8 2.2zm6.9 3l-2.1-5.4l1 0c0 0 1.16 3.26 1.2 3.3c.1.3.2.7.3 1.1c.1-.3.2-.7.4-1.1c-.05.02 1.2-3.3 1.2-3.3l.9 0l-2 5.4l-.9 0zm7.5-1.7c0 0 .9.1.9.1c-.1.6-.4 1-.8 1.3c-.4.3-1 .5-1.6.5c-.8 0-1.4-.3-1.9-.8c-.4-.5-.7-1.1-.7-2c0-.9.3-1.7.7-2.2c.5-.5 1.1-.7 1.9-.7c.7 0 1.3.2 1.7.7c.5.5.7 1.2.7 2.1c0 .1 0 .1 0 .3c0 0-4 0-4 0c0 .6.2 1 .5 1.3c.3.3.7.5 1.1.5c.4 0 .6-.1.9-.3c.2-.1.4-.4.6-.8zm-3.1-1.5c0 0 3.1 0 3.1 0c-.1-.5-.2-.8-.4-1c-.3-.4-.7-.6-1.1-.6c-.5 0-.8.2-1.1.5c-.3.2-.4.6-.5 1.1zm5.2 3.2l0-5.4l.8 0c0 0 0 .77 0 .8c.4-.6 1-.9 1.7-.9c.4 0 .7 0 .9.2c.3.1.5.2.7.4c.1.2.2.4.2.7c.1.2.1.5.1.9c-.01 0 0 3.3 0 3.3l-.9 0c0 0-.03-3.27 0-3.3c0-.3-.1-.6-.1-.8c-.1-.2-.2-.3-.4-.5c-.2-.1-.4-.1-.7-.1c-.4 0-.7.1-1 .4c-.3.2-.4.7-.4 1.4c-.01-.03 0 2.9 0 2.9l-.9 0zm9.4 0c0 0-.03-.76 0-.8c-.5.7-1 1-1.8 1c-.3 0-.6-.1-.9-.2c-.2-.1-.4-.3-.6-.5c-.1-.2-.2-.4-.3-.7c0-.1 0-.4 0-.8c-.02-.03 0-3.4 0-3.4l.9 0c0 0 .01 3.02 0 3c0 .5 0 .8.1 1c0 .2.1.4.3.6c.2.1.5.2.7.2c.3 0 .6-.1.8-.2c.3-.2.4-.4.5-.6c.1-.3.2-.6.2-1.1c-.02.02 0-2.9 0-2.9l.9 0l0 5.4l-.8 0zm6-1.7c0 0 .9.1.9.1c-.1.6-.4 1-.8 1.3c-.4.3-.9.5-1.6.5c-.8 0-1.4-.3-1.9-.8c-.4-.5-.7-1.1-.7-2c0-.9.3-1.7.7-2.2c.5-.5 1.1-.7 1.9-.7c.7 0 1.3.2 1.8.7c.4.5.7 1.2.7 2.1c0 .1 0 .1 0 .3c0 0-4.1 0-4.1 0c0 .6.2 1 .5 1.3c.3.3.7.5 1.1.5c.4 0 .7-.1.9-.3c.2-.1.4-.4.6-.8zm-3.1-1.5c0 0 3.1 0 3.1 0c-.1-.5-.2-.8-.4-1c-.3-.4-.6-.6-1.1-.6c-.4 0-.8.2-1.1.5c-.3.2-.4.6-.5 1.1zm7.8.5c0-1 .2-1.7.8-2.2c.5-.4 1-.6 1.7-.6c.8 0 1.4.2 1.8.7c.5.5.8 1.2.8 2c0 .7-.1 1.3-.4 1.7c-.2.4-.5.7-.9.9c-.4.3-.8.4-1.3.4c-.8 0-1.4-.3-1.8-.8c-.5-.5-.7-1.2-.7-2.1zm.9 0c0 .7.2 1.2.5 1.6c.3.3.7.5 1.1.5c.5 0 .9-.2 1.2-.5c.3-.4.4-.9.4-1.6c0-.7-.1-1.2-.4-1.5c-.4-.4-.7-.6-1.2-.6c-.4 0-.8.2-1.1.6c-.3.3-.5.8-.5 1.5zm5.5 2.7l0-4.7l-.9 0l0-.7l.9 0c0 0-.04-.58 0-.6c0-.3 0-.6.1-.8c0-.2.2-.4.4-.6c.3-.1.6-.2 1-.2c.2 0 .5 0 .8.1c0 0-.1.8-.1.8c-.2 0-.4-.1-.6-.1c-.2 0-.4.1-.5.2c-.2.1-.2.4-.2.7c-.02 0 0 .5 0 .5l1 0l0 .7l-1 0l0 4.7l-.9 0zm7.2-.7c.1 0 .2-.1.4-.1c0 0 .1.8.1.8c-.2.1-.5.1-.7.1c-.3 0-.6 0-.8-.1c-.1-.1-.3-.3-.3-.5c-.1-.1-.2-.5-.2-1.1c.05.05 0-3.1 0-3.1l-.6 0l0-.7l.6 0l0-1.3l1-.6l0 1.9l.9 0l0 .7l-.9 0c0 0-.04 3.2 0 3.2c0 .3 0 .4 0 .5c0 .1.1.1.2.2c0 0 .1.1.3.1c0 0 0 0 0 0zm1.3.7l0-7.5l.9 0c0 0 .02 2.72 0 2.7c.4-.5 1-.7 1.6-.7c.4 0 .8.1 1.1.2c.3.2.5.4.6.7c.2.3.2.7.2 1.2c.03-.01 0 3.4 0 3.4l-.9 0c0 0 .01-3.41 0-3.4c0-.5-.1-.8-.3-1c-.2-.2-.5-.3-.8-.3c-.3 0-.6 0-.8.2c-.3.1-.4.3-.5.6c-.1.2-.2.5-.2 1c.02-.03 0 2.9 0 2.9l-.9 0zm9.6-1.7c0 0 .9.1.9.1c-.1.6-.4 1-.8 1.3c-.4.3-.9.5-1.6.5c-.8 0-1.4-.3-1.9-.8c-.4-.5-.7-1.1-.7-2c0-.9.3-1.7.7-2.2c.5-.5 1.1-.7 1.9-.7c.7 0 1.3.2 1.8.7c.4.5.6 1.2.6 2.1c0 .1 0 .1 0 .3c0 0-4 0-4 0c0 .6.2 1 .5 1.3c.3.3.7.5 1.1.5c.4 0 .7-.1.9-.3c.2-.1.4-.4.6-.8zm-3.1-1.5c0 0 3.1 0 3.1 0c-.1-.5-.2-.8-.4-1c-.3-.4-.7-.6-1.1-.6c-.4 0-.8.2-1.1.5c-.3.2-.4.6-.5 1.1zm6.8 3.2l2.9-7.5l1.1 0l3 7.5l-1.1 0l-.9-2.2l-3.1 0l-.8 2.2l-1.1 0zm2.2-3l2.5 0c0 0-.76-2.12-.8-2.1c-.2-.7-.4-1.2-.5-1.6c-.1.5-.2 1-.4 1.5c0-.05-.8 2.2-.8 2.2zm5.5 3l0-5.4l.8 0c0 0 .04.76 0 .8c.2-.3.4-.5.7-.7c.3-.1.6-.2 1-.2c.4 0 .7.1 1 .2c.2.2.4.4.5.7c.5-.6 1-.9 1.7-.9c.5 0 1 .1 1.3.4c.2.3.4.8.4 1.4c-.01.01 0 3.7 0 3.7l-.9 0c0 0-.03-3.39 0-3.4c0-.4-.1-.6-.1-.8c-.1-.1-.2-.3-.3-.4c-.2-.1-.4-.1-.6-.1c-.4 0-.7.1-.9.4c-.3.2-.4.6-.4 1.2c-.03-.02 0 3.1 0 3.1l-1 0c0 0 .05-3.49 0-3.5c0-.4 0-.7-.2-.9c-.1-.2-.4-.3-.7-.3c-.3 0-.5 0-.7.2c-.3.1-.4.3-.5.6c-.1.2-.2.6-.2 1.1c.04.02 0 2.8 0 2.8l-.9 0zm12.5-1.7c0 0 .9.1.9.1c-.1.6-.4 1-.8 1.3c-.4.3-.9.5-1.6.5c-.7 0-1.4-.3-1.8-.8c-.5-.5-.7-1.1-.7-2c0-.9.2-1.7.7-2.2c.4-.5 1-.7 1.8-.7c.7 0 1.3.2 1.8.7c.4.5.7 1.2.7 2.1c0 .1 0 .1 0 .3c0 0-4.1 0-4.1 0c0 .6.2 1 .5 1.3c.3.3.7.5 1.2.5c.3 0 .6-.1.8-.3c.3-.1.4-.4.6-.8zm-3-1.5c0 0 3 0 3 0c0-.5-.2-.8-.4-1c-.2-.4-.6-.6-1.1-.6c-.4 0-.8.2-1.1.5c-.3.2-.4.6-.4 1.1zm5.1 3.2l0-5.4l.8 0c0 0 .02.82 0 .8c.2-.4.4-.6.6-.7c.2-.2.4-.2.6-.2c.3 0 .6.1.9.3c0 0-.3.8-.3.8c-.2-.1-.4-.2-.6-.2c-.2 0-.4.1-.6.2c-.2.1-.3.3-.3.5c-.1.3-.2.7-.2 1.1c.01-.01 0 2.8 0 2.8l-.9 0zm3.5-6.4l0-1.1l.9 0l0 1.1l-.9 0zm0 6.4l0-5.4l.9 0l0 5.4l-.9 0zm5.9-2c0 0 .9.2.9.2c-.1.6-.4 1.1-.8 1.4c-.4.4-.9.6-1.5.6c-.7 0-1.3-.3-1.8-.8c-.4-.5-.7-1.1-.7-2.1c0-.5.1-1.1.3-1.5c.2-.4.5-.8.9-1c.4-.2.9-.3 1.3-.3c.6 0 1.1.1 1.5.4c.4.3.6.7.7 1.3c0 0-.9.1-.9.1c-.1-.3-.2-.6-.4-.8c-.3-.2-.5-.3-.8-.3c-.5 0-.9.2-1.2.5c-.3.4-.4.9-.4 1.6c0 .7.1 1.3.4 1.6c.3.3.7.5 1.1.5c.4 0 .7-.1.9-.3c.3-.2.4-.6.5-1.1zm5.4 2c-.1-.1-.1-.4-.2-.6c-.3.3-.6.5-1 .6c-.3.1-.6.2-1 .2c-.6 0-1-.2-1.4-.5c-.3-.3-.4-.6-.4-1.1c0-.3 0-.5.1-.7c.2-.2.3-.4.5-.6c.2-.1.4-.2.7-.3c.2 0 .4 0 .8-.1c.8-.1 1.3-.2 1.7-.3c0-.1 0-.2 0-.3c0-.3-.1-.6-.3-.7c-.2-.3-.6-.4-1.1-.4c-.4 0-.7.1-.9.3c-.2.1-.4.4-.5.8c0 0-.9-.1-.9-.1c.1-.4.2-.7.4-1c.2-.2.5-.4.8-.5c.4-.2.8-.2 1.3-.2c.4 0 .8 0 1.1.1c.3.1.5.3.7.5c.1.1.2.3.2.6c.1.1.1.4.1.8c0 0 0 1.3 0 1.3c0 .8 0 1.4 0 1.6c.1.2.2.4.3.6c-.02.04-1 0-1 0c0 0 .02.04 0 0zm-.2-2.7c-.4.1-.9.3-1.6.4c-.3 0-.6.1-.8.1c-.1.1-.2.2-.3.3c-.1.2-.1.3-.1.5c0 .2 0 .4.2.6c.2.2.5.2.8.2c.4 0 .7 0 1-.2c.3-.1.5-.4.6-.6c.1-.2.2-.5.2-1c0 0 0-.3 0-.3zm1.9 1.1c0 0 1-.1 1-.1c0 .3.2.6.4.8c.2.2.6.3 1 .3c.4 0 .7-.1.9-.3c.2-.1.3-.3.3-.6c0-.2-.1-.3-.2-.5c-.2 0-.5-.1-1-.3c-.7-.1-1.1-.3-1.4-.4c-.3-.1-.5-.3-.6-.5c-.1-.2-.2-.5-.2-.8c0-.2.1-.4.2-.6c.1-.2.2-.4.4-.5c.2-.2.4-.2.6-.3c.3-.1.5-.1.8-.1c.4 0 .8 0 1.1.2c.4.1.6.3.7.5c.2.2.3.5.4.8c0 0-.9.1-.9.1c-.1-.3-.2-.5-.4-.6c-.2-.2-.5-.3-.8-.3c-.4 0-.8.1-.9.2c-.2.2-.3.3-.3.5c0 .2 0 .3.1.4c.1.1.2.1.4.2c.1 0 .3.1.8.2c.6.2 1.1.4 1.3.5c.3.1.5.2.7.5c.1.2.2.4.2.7c0 .4-.1.6-.3.9c-.2.3-.4.5-.8.6c-.3.2-.7.3-1.1.3c-.7 0-1.3-.2-1.6-.5c-.4-.3-.6-.7-.8-1.3zm9.4 1.6l-.8 0l0-7.5l.9 0c0 0 0 2.71 0 2.7c.4-.5.9-.7 1.5-.7c.3 0 .6 0 .9.2c.3.1.6.3.8.5c.2.3.3.6.4.9c.1.4.2.7.2 1.1c0 1-.2 1.7-.7 2.2c-.5.5-1 .8-1.7.8c-.6 0-1.1-.3-1.5-.8c.04-.04 0 .6 0 .6zm0-2.7c0 .6.1 1.1.3 1.4c.3.5.7.7 1.2.7c.4 0 .7-.2 1-.5c.3-.4.5-.9.5-1.6c0-.7-.2-1.2-.5-1.6c-.2-.3-.6-.5-1-.5c-.4 0-.7.2-1 .6c-.3.3-.5.8-.5 1.5zm5.6 5c-.2 0-.4-.1-.6-.2c0 0-.1-.8-.1-.8c.2 0 .4.1.5.1c.2 0 .4-.1.5-.1c.1-.1.2-.2.3-.3c.1-.1.2-.4.3-.7c0-.1 0-.1.1-.2c-.03-.05-2.1-5.5-2.1-5.5l1 0c0 0 1.13 3.15 1.1 3.2c.2.4.3.8.4 1.2c.1-.4.3-.8.4-1.2c0-.03 1.2-3.2 1.2-3.2l.9 0c0 0-2.08 5.54-2.1 5.5c-.2.6-.4 1-.5 1.3c-.2.3-.3.5-.6.6c-.2.2-.4.3-.7.3c0 0 0 0 0 0zm7.3-4.2c0 0 1-.2 1-.2c.1.6.3.9.5 1.2c.3.2.6.3.9.3c.5 0 .8-.1 1.1-.4c.3-.3.5-.7.5-1.2c0-.4-.2-.7-.4-1c-.3-.3-.7-.4-1.1-.4c-.2 0-.4 0-.6.1c0 0 .1-.8.1-.8c0 0 .1 0 .1 0c.4 0 .8-.1 1.1-.3c.3-.2.4-.5.4-1c0-.3-.1-.6-.3-.8c-.2-.2-.5-.3-.9-.3c-.3 0-.6.1-.9.3c-.2.2-.4.6-.4 1c0 0-1-.2-1-.2c.1-.6.4-1.1.8-1.4c.4-.3.9-.5 1.5-.5c.4 0 .8.1 1.1.3c.4.1.6.4.8.7c.2.3.3.6.3 1c0 .3-.1.6-.3.8c-.1.3-.4.5-.7.7c.4.1.7.3 1 .6c.2.3.4.7.4 1.2c0 .7-.3 1.2-.8 1.7c-.4.4-1 .7-1.8.7c-.6 0-1.2-.2-1.6-.6c-.4-.4-.7-.9-.8-1.5zm6.6 1.3c-.5-.6-.7-1.7-.7-3.1c0-.9.1-1.6.3-2.1c.1-.5.4-1 .8-1.3c.3-.3.8-.4 1.3-.4c.4 0 .8.1 1.1.2c.3.2.5.4.7.7c.2.3.4.7.5 1.2c.1.4.2 1 .2 1.7c0 .9-.1 1.6-.3 2.2c-.2.5-.4.9-.8 1.2c-.4.3-.8.5-1.4.5c-.7 0-1.3-.3-1.7-.8c0 0 0 0 0 0zm.7-5.6c-.3.5-.5 1.3-.5 2.5c0 1.3.2 2.1.5 2.5c.2.4.6.6 1 .6c.5 0 .8-.2 1.1-.6c.3-.4.4-1.2.4-2.5c0-1.2-.1-2-.4-2.4c-.3-.4-.7-.6-1.1-.6c-.4 0-.7.1-1 .5c0 0 0 0 0 0zm4.6.5c0-.5.1-1 .4-1.3c.3-.4.7-.6 1.2-.6c.4 0 .8.2 1.1.5c.3.3.5.8.5 1.5c0 .6-.2 1.1-.5 1.5c-.3.3-.7.5-1.1.5c-.5 0-.9-.2-1.2-.5c-.3-.4-.4-.9-.4-1.6zm1.6-1.3c-.2 0-.4.1-.6.3c-.1.2-.2.6-.2 1.1c0 .5.1.8.2 1c.2.2.4.3.6.3c.2 0 .4-.1.6-.3c.1-.2.2-.5.2-1c0-.5-.1-.9-.2-1.1c-.2-.2-.4-.3-.6-.3zm0 7.3l4.1-7.9l.8 0l-4.1 7.9l-.8 0zm3.3-2c0-.6.1-1 .4-1.4c.2-.4.6-.6 1.1-.6c.5 0 .9.2 1.2.6c.3.3.5.8.5 1.4c0 .7-.2 1.2-.5 1.5c-.3.3-.7.5-1.2.5c-.4 0-.8-.1-1.1-.5c-.3-.3-.4-.8-.4-1.5zm1.6-1.3c-.3 0-.5.1-.6.3c-.2.2-.2.5-.2 1.1c0 .5 0 .8.2 1c.1.2.3.3.6.3c.2 0 .4-.1.5-.3c.2-.2.3-.6.3-1.1c0-.5-.1-.8-.3-1c-.1-.2-.3-.3-.5-.3zm5.5.3c0-1 .3-1.7.8-2.2c.5-.4 1.1-.6 1.7-.6c.8 0 1.4.2 1.9.7c.4.5.7 1.2.7 2c0 .7-.1 1.3-.3 1.7c-.2.4-.5.7-.9.9c-.5.3-.9.4-1.4.4c-.7 0-1.3-.3-1.8-.8c-.5-.5-.7-1.2-.7-2.1zm.9 0c0 .7.2 1.2.5 1.6c.3.3.7.5 1.1.5c.5 0 .9-.2 1.2-.5c.3-.4.4-.9.4-1.6c0-.7-.1-1.2-.4-1.5c-.3-.4-.7-.6-1.2-.6c-.4 0-.8.2-1.1.6c-.3.3-.5.8-.5 1.5zm5.3 2.7l0-5.4l.8 0c0 0-.01.82 0 .8c.2-.4.4-.6.6-.7c.2-.2.3-.2.6-.2c.3 0 .6.1.9.3c0 0-.3.8-.3.8c-.2-.1-.5-.2-.7-.2c-.2 0-.4.1-.5.2c-.2.1-.3.3-.4.5c-.1.3-.1.7-.1 1.1c-.02-.01 0 2.8 0 2.8l-.9 0zm6.4 0l0-5.4l.8 0c0 0 0 .76 0 .8c.2-.3.4-.5.7-.7c.3-.1.6-.2 1-.2c.4 0 .7.1.9.2c.3.2.5.4.6.7c.4-.6 1-.9 1.7-.9c.5 0 .9.1 1.2.4c.3.3.5.8.5 1.4c-.04.01 0 3.7 0 3.7l-1 0c0 0 .04-3.39 0-3.4c0-.4 0-.6-.1-.8c0-.1-.1-.3-.3-.4c-.1-.1-.3-.1-.5-.1c-.4 0-.7.1-1 .4c-.2.2-.4.6-.4 1.2c.04-.02 0 3.1 0 3.1l-.9 0c0 0 .01-3.49 0-3.5c0-.4-.1-.7-.2-.9c-.2-.2-.4-.3-.7-.3c-.3 0-.5 0-.8.2c-.2.1-.4.3-.4.6c-.1.2-.2.6-.2 1.1c0 .02 0 2.8 0 2.8l-.9 0zm8.4-2.7c0-1 .3-1.7.8-2.2c.5-.4 1.1-.6 1.7-.6c.8 0 1.4.2 1.9.7c.4.5.7 1.2.7 2c0 .7-.1 1.3-.3 1.7c-.2.4-.5.7-.9.9c-.5.3-.9.4-1.4.4c-.7 0-1.3-.3-1.8-.8c-.5-.5-.7-1.2-.7-2.1zm.9 0c0 .7.2 1.2.5 1.6c.3.3.7.5 1.1.5c.5 0 .9-.2 1.2-.5c.3-.4.4-.9.4-1.6c0-.7-.1-1.2-.4-1.5c-.3-.4-.7-.6-1.2-.6c-.4 0-.8.2-1.1.6c-.3.3-.5.8-.5 1.5zm5.3 2.7l0-5.4l.8 0c0 0-.01.82 0 .8c.2-.4.4-.6.6-.7c.2-.2.3-.2.6-.2c.3 0 .6.1.9.3c0 0-.3.8-.3.8c-.2-.1-.5-.2-.7-.2c-.2 0-.4.1-.5.2c-.2.1-.3.3-.4.5c-.1.3-.1.7-.1 1.1c-.02-.01 0 2.8 0 2.8l-.9 0zm7.2-1.7c0 0 .9.1.9.1c-.1.6-.4 1-.8 1.3c-.4.3-.9.5-1.6.5c-.7 0-1.4-.3-1.8-.8c-.5-.5-.7-1.1-.7-2c0-.9.2-1.7.7-2.2c.4-.5 1-.7 1.8-.7c.7 0 1.3.2 1.8.7c.4.5.7 1.2.7 2.1c0 .1 0 .1 0 .3c0 0-4.1 0-4.1 0c0 .6.2 1 .5 1.3c.3.3.7.5 1.2.5c.3 0 .6-.1.8-.3c.3-.1.4-.4.6-.8zm-3-1.5c0 0 3 0 3 0c0-.5-.2-.8-.3-1c-.3-.4-.7-.6-1.2-.6c-.4 0-.8.2-1.1.5c-.3.2-.4.6-.4 1.1zm7.7.5c0-1 .3-1.7.8-2.2c.5-.4 1.1-.6 1.7-.6c.8 0 1.4.2 1.9.7c.4.5.7 1.2.7 2c0 .7-.1 1.3-.3 1.7c-.2.4-.6.7-1 .9c-.4.3-.8.4-1.3.4c-.7 0-1.4-.3-1.8-.8c-.5-.5-.7-1.2-.7-2.1zm.9 0c0 .7.2 1.2.5 1.6c.3.3.7.5 1.1.5c.5 0 .9-.2 1.2-.5c.3-.4.4-.9.4-1.6c0-.7-.1-1.2-.4-1.5c-.3-.4-.7-.6-1.2-.6c-.4 0-.8.2-1.1.6c-.3.3-.5.8-.5 1.5zm6.8 2.7l-2.1-5.4l1 0c0 0 1.14 3.26 1.1 3.3c.2.3.3.7.4 1.1c.1-.3.2-.7.3-1.1c.03.02 1.2-3.3 1.2-3.3l1 0l-2.1 5.4l-.8 0zm7.4-1.7c0 0 1 .1 1 .1c-.2.6-.4 1-.8 1.3c-.5.3-1 .5-1.6.5c-.8 0-1.4-.3-1.9-.8c-.5-.5-.7-1.1-.7-2c0-.9.2-1.7.7-2.2c.5-.5 1.1-.7 1.8-.7c.8 0 1.4.2 1.8.7c.5.5.7 1.2.7 2.1c0 .1 0 .1 0 .3c0 0-4 0-4 0c0 .6.2 1 .5 1.3c.3.3.6.5 1.1.5c.3 0 .6-.1.9-.3c.2-.1.4-.4.5-.8zm-3-1.5c0 0 3 0 3 0c0-.5-.1-.8-.3-1c-.3-.4-.7-.6-1.1-.6c-.5 0-.8.2-1.1.5c-.3.2-.5.6-.5 1.1zm5.1 3.2l0-5.4l.9 0c0 0-.03.82 0 .8c.2-.4.4-.6.6-.7c.1-.2.3-.2.5-.2c.4 0 .7.1 1 .3c0 0-.3.8-.3.8c-.2-.1-.5-.2-.7-.2c-.2 0-.4.1-.5.2c-.2.1-.3.3-.4.5c-.1.3-.1.7-.1 1.1c-.04-.01 0 2.8 0 2.8l-1 0zm9.7 0l-.9 0c0 0-.04-5.84 0-5.8c-.3.2-.6.4-.9.6c-.4.2-.7.4-1 .5c0 0 0-.9 0-.9c.5-.3 1-.6 1.4-.9c.4-.3.6-.7.8-1c-.01 0 .6 0 .6 0l0 7.5zm3.1-.6c-.5-.6-.8-1.7-.8-3.1c0-.9.1-1.6.3-2.1c.2-.5.5-1 .8-1.3c.4-.3.8-.4 1.4-.4c.4 0 .8.1 1.1.2c.3.2.5.4.7.7c.2.3.4.7.5 1.2c.1.4.1 1 .1 1.7c0 .9 0 1.6-.2 2.2c-.2.5-.5.9-.8 1.2c-.4.3-.9.5-1.4.5c-.7 0-1.3-.3-1.7-.8c0 0 0 0 0 0zm.7-5.6c-.3.5-.5 1.3-.5 2.5c0 1.3.1 2.1.4 2.5c.3.4.7.6 1.1.6c.4 0 .8-.2 1.1-.6c.3-.4.4-1.2.4-2.5c0-1.2-.1-2-.4-2.4c-.3-.4-.7-.6-1.1-.6c-.4 0-.8.1-1 .5c0 0 0 0 0 0zm4.3 4l0-.9l2.8 0l0 .9l-2.8 0zm4.4 4.5c-.2 0-.4-.1-.6-.2c0 0-.1-.8-.1-.8c.2 0 .4.1.5.1c.2 0 .4-.1.5-.1c.1-.1.2-.2.3-.3c.1-.1.2-.4.3-.7c0-.1 0-.1.1-.2c-.02-.05-2.1-5.5-2.1-5.5l1 0c0 0 1.14 3.15 1.1 3.2c.2.4.3.8.4 1.2c.1-.4.3-.8.4-1.2c.02-.03 1.2-3.2 1.2-3.2l.9 0c0 0-2.07 5.54-2.1 5.5c-.2.6-.4 1-.5 1.3c-.2.3-.3.5-.6.6c-.2.2-.4.3-.7.3c0 0 0 0 0 0zm8.4-4c0 0 1 .1 1 .1c-.2.6-.5 1-.9 1.3c-.4.3-.9.5-1.5.5c-.8 0-1.5-.3-1.9-.8c-.5-.5-.7-1.1-.7-2c0-.9.2-1.7.7-2.2c.5-.5 1.1-.7 1.8-.7c.8 0 1.3.2 1.8.7c.5.5.7 1.2.7 2.1c0 .1 0 .1 0 .3c0 0-4.1 0-4.1 0c.1.6.2 1 .5 1.3c.3.3.7.5 1.2.5c.3 0 .6-.1.8-.3c.3-.1.5-.4.6-.8zm-3-1.5c0 0 3 0 3 0c0-.5-.1-.8-.3-1c-.3-.4-.7-.6-1.2-.6c-.4 0-.7.2-1 .5c-.3.2-.5.6-.5 1.1zm8.9 3.2c-.1-.1-.2-.4-.2-.6c-.4.3-.7.5-1 .6c-.3.1-.7.2-1 .2c-.6 0-1.1-.2-1.4-.5c-.3-.3-.5-.6-.5-1.1c0-.3.1-.5.2-.7c.1-.2.3-.4.5-.6c.2-.1.4-.2.6-.3c.2 0 .5 0 .9-.1c.7-.1 1.3-.2 1.6-.3c0-.1 0-.2 0-.3c0-.3-.1-.6-.3-.7c-.2-.3-.5-.4-1-.4c-.4 0-.8.1-1 .3c-.2.1-.3.4-.4.8c0 0-.9-.1-.9-.1c.1-.4.2-.7.4-1c.2-.2.4-.4.8-.5c.3-.2.8-.2 1.2-.2c.5 0 .9 0 1.2.1c.3.1.5.3.6.5c.1.1.2.3.3.6c0 .1 0 .4 0 .8c0 0 0 1.3 0 1.3c0 .8.1 1.4.1 1.6c0 .2.1.4.2.6c.03.04-.9 0-.9 0c0 0-.04.04 0 0zm-.3-2.7c-.3.1-.8.3-1.5.4c-.4 0-.7.1-.8.1c-.2.1-.3.2-.4.3c-.1.2-.1.3-.1.5c0 .2.1.4.3.6c.2.2.4.2.8.2c.4 0 .7 0 .9-.2c.3-.1.5-.4.7-.6c.1-.2.1-.5.1-1c0 0 0-.3 0-.3zm2.4 2.7l0-5.4l.8 0c0 0-.01.82 0 .8c.2-.4.4-.6.6-.7c.2-.2.4-.2.6-.2c.3 0 .6.1.9.3c0 0-.3.8-.3.8c-.2-.1-.5-.2-.7-.2c-.2 0-.4.1-.5.2c-.2.1-.3.3-.4.5c-.1.3-.1.7-.1 1.1c-.02-.01 0 2.8 0 2.8l-.9 0zm3.1-2.2l0-.9l2.8 0l0 .9l-2.8 0zm3.9 4.3l0-7.5l.8 0c0 0 0 .71 0 .7c.2-.3.4-.5.7-.6c.2-.2.5-.2.9-.2c.4 0 .9.1 1.2.3c.4.3.6.6.8 1c.2.5.3 1 .3 1.5c0 .5-.1 1-.3 1.5c-.2.4-.5.8-.9 1c-.4.2-.8.4-1.2.4c-.3 0-.6-.1-.8-.2c-.3-.2-.5-.3-.6-.5c-.02-.02 0 2.6 0 2.6l-.9 0zm.8-4.7c0 .7.1 1.2.4 1.5c.3.3.6.5 1.1.5c.4 0 .7-.2 1-.5c.3-.4.4-.9.4-1.6c0-.7-.1-1.2-.4-1.6c-.3-.3-.6-.5-1-.5c-.4 0-.7.2-1.1.6c-.3.3-.4.9-.4 1.6zm8.7.9c0 0 1 .1 1 .1c-.2.6-.4 1-.9 1.3c-.4.3-.9.5-1.5.5c-.8 0-1.4-.3-1.9-.8c-.5-.5-.7-1.1-.7-2c0-.9.2-1.7.7-2.2c.5-.5 1.1-.7 1.8-.7c.8 0 1.4.2 1.8.7c.5.5.7 1.2.7 2.1c0 .1 0 .1 0 .3c0 0-4.1 0-4.1 0c.1.6.2 1 .6 1.3c.3.3.6.5 1.1.5c.3 0 .6-.1.9-.3c.2-.1.4-.4.5-.8zm-3-1.5c0 0 3 0 3 0c0-.5-.1-.8-.3-1c-.3-.4-.7-.6-1.2-.6c-.4 0-.7.2-1 .5c-.3.2-.5.6-.5 1.1zm5.1 3.2l0-5.4l.9 0c0 0-.04.82 0 .8c.2-.4.4-.6.5-.7c.2-.2.4-.2.6-.2c.3 0 .7.1 1 .3c0 0-.3.8-.3.8c-.3-.1-.5-.2-.7-.2c-.2 0-.4.1-.6.2c-.1.1-.2.3-.3.5c-.1.3-.1.7-.1 1.1c-.05-.01 0 2.8 0 2.8l-1 0zm3.5-6.4l0-1.1l1 0l0 1.1l-1 0zm0 6.4l0-5.4l1 0l0 5.4l-1 0zm2-2.7c0-1 .3-1.7.9-2.2c.4-.4 1-.6 1.7-.6c.7 0 1.3.2 1.8.7c.5.5.7 1.2.7 2c0 .7-.1 1.3-.3 1.7c-.2.4-.5.7-.9.9c-.4.3-.8.4-1.3.4c-.8 0-1.4-.3-1.9-.8c-.4-.5-.7-1.2-.7-2.1zm1 0c0 .7.1 1.2.4 1.6c.3.3.7.5 1.2.5c.4 0 .8-.2 1.1-.5c.3-.4.5-.9.5-1.6c0-.7-.2-1.2-.5-1.5c-.3-.4-.7-.6-1.1-.6c-.5 0-.9.2-1.2.6c-.3.3-.4.8-.4 1.5zm8.7 2.7c0 0 .04-.64 0-.6c-.3.5-.8.8-1.5.8c-.4 0-.8-.2-1.2-.4c-.3-.2-.6-.6-.8-1c-.2-.4-.3-.9-.3-1.5c0-.5.1-1 .2-1.5c.2-.4.5-.7.9-1c.3-.2.7-.3 1.2-.3c.3 0 .6 0 .9.2c.2.1.4.3.6.5c-.02.02 0-2.7 0-2.7l.9 0l0 7.5l-.9 0zm-2.9-2.7c0 .7.2 1.2.5 1.6c.3.3.6.5 1 .5c.4 0 .8-.2 1-.5c.3-.3.5-.8.5-1.5c0-.7-.2-1.3-.5-1.6c-.3-.4-.6-.6-1-.6c-.4 0-.8.2-1.1.5c-.2.4-.4.9-.4 1.6zm5.5 2.7l0-1l1.1 0l0 1l-1.1 0z" stroke="none" fill="#ffffff"/></g><g id="Polygon68858"><path d="m2.2 32.8l-2.1-5.4l1 0c0 0 1.18 3.26 1.2 3.3c.1.3.2.7.3 1.1c.1-.3.2-.7.4-1.1c-.03.02 1.2-3.3 1.2-3.3l.9 0l-2 5.4l-.9 0zm7.5 0c-.1-.1-.2-.4-.2-.6c-.3.3-.7.5-1 .6c-.3.1-.6.2-1 .2c-.6 0-1.1-.2-1.4-.5c-.3-.3-.5-.6-.5-1.1c0-.3.1-.5.2-.7c.1-.2.3-.4.5-.6c.2-.1.4-.2.7-.3c.1 0 .4 0 .8-.1c.7-.1 1.3-.2 1.6-.3c0-.1 0-.2 0-.3c0-.3-.1-.6-.2-.7c-.3-.3-.6-.4-1.1-.4c-.4 0-.7.1-1 .3c-.2.1-.3.4-.4.8c0 0-.9-.1-.9-.1c.1-.4.2-.7.4-1c.2-.2.5-.4.8-.5c.4-.2.8-.2 1.2-.2c.5 0 .9 0 1.2.1c.3.1.5.3.6.5c.2.1.3.3.3.6c0 .1.1.4.1.8c0 0 0 1.3 0 1.3c0 .8 0 1.4 0 1.6c0 .2.1.4.2.6c.04.04-.9 0-.9 0c0 0-.02.04 0 0zm-.3-2.7c-.3.1-.8.3-1.5.4c-.4 0-.6.1-.8.1c-.2.1-.3.2-.4.3c0 .2-.1.3-.1.5c0 .2.1.4.3.6c.2.2.5.2.8.2c.4 0 .7 0 1-.2c.2-.1.4-.4.6-.6c.1-.2.1-.5.1-1c0 0 0-.3 0-.3zm2.4 2.7l0-5.4l.8 0c0 0 0 .82 0 .8c.2-.4.4-.6.6-.7c.2-.2.4-.2.6-.2c.3 0 .6.1.9.3c0 0-.3.8-.3.8c-.2-.1-.4-.2-.7-.2c-.2 0-.3.1-.5.2c-.2.1-.3.3-.4.5c-.1.3-.1.7-.1 1.1c-.01-.01 0 2.8 0 2.8l-.9 0zm3.5-6.4l0-1.1l.9 0l0 1.1l-.9 0zm0 6.4l0-5.4l.9 0l0 5.4l-.9 0zm2-2.7c0-1 .2-1.7.8-2.2c.5-.4 1-.6 1.7-.6c.8 0 1.4.2 1.9.7c.4.5.7 1.2.7 2c0 .7-.1 1.3-.3 1.7c-.3.4-.6.7-1 .9c-.4.3-.8.4-1.3.4c-.7 0-1.4-.3-1.8-.8c-.5-.5-.7-1.2-.7-2.1zm.9 0c0 .7.2 1.2.5 1.6c.3.3.7.5 1.1.5c.5 0 .9-.2 1.2-.5c.3-.4.4-.9.4-1.6c0-.7-.1-1.2-.4-1.5c-.3-.4-.7-.6-1.2-.6c-.4 0-.8.2-1.1.6c-.3.3-.5.8-.5 1.5zm8.8 2.7c0 0 .02-.76 0-.8c-.4.7-1 1-1.7 1c-.3 0-.6-.1-.9-.2c-.3-.1-.5-.3-.6-.5c-.2-.2-.3-.4-.3-.7c-.1-.1-.1-.4-.1-.8c.03-.03 0-3.4 0-3.4l1 0c0 0-.05 3.02 0 3c0 .5 0 .8 0 1c.1.2.2.4.4.6c.2.1.4.2.7.2c.3 0 .5-.1.8-.2c.2-.2.4-.4.5-.6c.1-.3.1-.6.1-1.1c.02.02 0-2.9 0-2.9l.9 0l0 5.4l-.8 0zm1.9-1.6c0 0 .9-.1.9-.1c.1.3.2.6.5.8c.2.2.5.3.9.3c.5 0 .8-.1 1-.3c.2-.1.3-.3.3-.6c0-.2-.1-.3-.3-.5c-.1 0-.4-.1-.9-.3c-.7-.1-1.2-.3-1.4-.4c-.3-.1-.5-.3-.6-.5c-.2-.2-.2-.5-.2-.8c0-.2 0-.4.1-.6c.2-.2.3-.4.5-.5c.1-.2.3-.2.6-.3c.2-.1.5-.1.8-.1c.4 0 .8 0 1.1.2c.3.1.6.3.7.5c.2.2.3.5.3.8c0 0-.9.1-.9.1c0-.3-.1-.5-.3-.6c-.2-.2-.5-.3-.9-.3c-.4 0-.7.1-.9.2c-.1.2-.2.3-.2.5c0 .2 0 .3.1.4c.1.1.2.1.3.2c.1 0 .4.1.8.2c.7.2 1.2.4 1.4.5c.3.1.5.2.6.5c.2.2.2.4.2.7c0 .4 0 .6-.2.9c-.2.3-.5.5-.8.6c-.3.2-.7.3-1.2.3c-.7 0-1.2-.2-1.6-.5c-.3-.3-.6-.7-.7-1.3zm8.2 0c0 0 .9-.1.9-.1c0 .3.2.6.4.8c.3.2.6.3 1 .3c.4 0 .7-.1.9-.3c.2-.1.3-.3.3-.6c0-.2 0-.3-.2-.5c-.1 0-.5-.1-1-.3c-.6-.1-1.1-.3-1.4-.4c-.2-.1-.4-.3-.6-.5c-.1-.2-.2-.5-.2-.8c0-.2.1-.4.2-.6c.1-.2.3-.4.5-.5c.1-.2.3-.2.5-.3c.3-.1.6-.1.8-.1c.5 0 .8 0 1.2.2c.3.1.5.3.7.5c.1.2.2.5.3.8c0 0-.9.1-.9.1c-.1-.3-.2-.5-.4-.6c-.2-.2-.4-.3-.8-.3c-.4 0-.7.1-.9.2c-.2.2-.3.3-.3.5c0 .2.1.3.1.4c.1.1.2.1.4.2c.1 0 .4.1.8.2c.7.2 1.1.4 1.4.5c.2.1.4.2.6.5c.1.2.2.4.2.7c0 .4-.1.6-.3.9c-.2.3-.4.5-.7.6c-.4.2-.8.3-1.2.3c-.7 0-1.2-.2-1.6-.5c-.4-.3-.6-.7-.7-1.3zm9.3-.1c0 0 1 .1 1 .1c-.2.6-.5 1-.9 1.3c-.4.3-.9.5-1.5.5c-.8 0-1.4-.3-1.9-.8c-.5-.5-.7-1.1-.7-2c0-.9.2-1.7.7-2.2c.5-.5 1.1-.7 1.8-.7c.8 0 1.4.2 1.8.7c.5.5.7 1.2.7 2.1c0 .1 0 .1 0 .3c0 0-4.1 0-4.1 0c.1.6.2 1 .5 1.3c.4.3.7.5 1.2.5c.3 0 .6-.1.9-.3c.2-.1.4-.4.5-.8zm-3-1.5c0 0 3 0 3 0c0-.5-.1-.8-.3-1c-.3-.4-.7-.6-1.2-.6c-.4 0-.7.2-1 .5c-.3.2-.5.6-.5 1.1zm8.7 1.2c0 0 .9.2.9.2c-.1.6-.4 1.1-.8 1.4c-.4.4-.9.6-1.5.6c-.7 0-1.3-.3-1.8-.8c-.4-.5-.6-1.1-.6-2.1c0-.5.1-1.1.2-1.5c.2-.4.5-.8.9-1c.4-.2.9-.3 1.3-.3c.6 0 1.1.1 1.5.4c.4.3.6.7.7 1.3c0 0-.9.1-.9.1c-.1-.3-.2-.6-.4-.8c-.3-.2-.5-.3-.8-.3c-.5 0-.9.2-1.2.5c-.3.4-.4.9-.4 1.6c0 .7.1 1.3.4 1.6c.3.3.7.5 1.1.5c.4 0 .7-.1.9-.3c.3-.2.4-.6.5-1.1zm3.3 1.3c.1 0 .2-.1.4-.1c0 0 .1.8.1.8c-.2.1-.5.1-.7.1c-.3 0-.6 0-.7-.1c-.2-.1-.4-.3-.4-.5c-.1-.1-.1-.5-.1-1.1c-.05.05 0-3.1 0-3.1l-.7 0l0-.7l.7 0l0-1.3l.9-.6l0 1.9l.9 0l0 .7l-.9 0c0 0-.03 3.2 0 3.2c0 .3 0 .4 0 .5c.1.1.1.1.2.2c.1 0 .2.1.3.1c0 0 0 0 0 0zm1-2c0-1 .2-1.7.8-2.2c.5-.4 1-.6 1.7-.6c.8 0 1.4.2 1.8.7c.5.5.8 1.2.8 2c0 .7-.1 1.3-.4 1.7c-.2.4-.5.7-.9.9c-.4.3-.8.4-1.3.4c-.8 0-1.4-.3-1.8-.8c-.5-.5-.7-1.2-.7-2.1zm.9 0c0 .7.2 1.2.5 1.6c.3.3.7.5 1.1.5c.5 0 .9-.2 1.2-.5c.3-.4.4-.9.4-1.6c0-.7-.1-1.2-.4-1.5c-.4-.4-.7-.6-1.2-.6c-.4 0-.8.2-1.1.6c-.3.3-.5.8-.5 1.5zm5.2 2.7l0-5.4l.9 0c0 0-.04.82 0 .8c.2-.4.4-.6.5-.7c.2-.2.4-.2.6-.2c.4 0 .7.1 1 .3c0 0-.3.8-.3.8c-.3-.1-.5-.2-.7-.2c-.2 0-.4.1-.5.2c-.2.1-.3.3-.4.5c-.1.3-.1.7-.1 1.1c-.05-.01 0 2.8 0 2.8l-1 0zm3.2-1.6c0 0 .9-.1.9-.1c0 .3.2.6.4.8c.2.2.6.3 1 .3c.4 0 .7-.1.9-.3c.2-.1.3-.3.3-.6c0-.2 0-.3-.2-.5c-.2 0-.5-.1-1-.3c-.6-.1-1.1-.3-1.4-.4c-.2-.1-.4-.3-.6-.5c-.1-.2-.2-.5-.2-.8c0-.2.1-.4.2-.6c.1-.2.3-.4.4-.5c.2-.2.4-.2.6-.3c.3-.1.5-.1.8-.1c.5 0 .8 0 1.2.2c.3.1.5.3.7.5c.1.2.2.5.3.8c0 0-.9.1-.9.1c-.1-.3-.2-.5-.4-.6c-.2-.2-.4-.3-.8-.3c-.4 0-.7.1-.9.2c-.2.2-.3.3-.3.5c0 .2.1.3.1.4c.1.1.2.1.4.2c.1 0 .3.1.8.2c.6.2 1.1.4 1.4.5c.2.1.4.2.6.5c.1.2.2.4.2.7c0 .4-.1.6-.3.9c-.2.3-.4.5-.8.6c-.3.2-.7.3-1.1.3c-.7 0-1.2-.2-1.6-.5c-.4-.3-.6-.7-.7-1.3zm5.8 1.6l0-1l1.1 0c0 0-.02 1.04 0 1c0 .4-.1.7-.2 1c-.2.2-.4.4-.7.5c0 0-.2-.4-.2-.4c.2 0 .3-.2.4-.3c.1-.2.1-.4.2-.8c-.05.04-.6 0-.6 0zm6.6 0l-1.7-5.4l1 0l.9 3.1c0 0 .29 1.21.3 1.2c0 0 .1-.4.3-1.1c-.03-.01.8-3.2.8-3.2l1 0l.8 3.2l.3 1l.3-1.1l.9-3.1l.9 0l-1.7 5.4l-.9 0l-.9-3.2l-.2-.9l-1.1 4.1l-1 0zm10.3-1.7c0 0 1 .1 1 .1c-.2.6-.5 1-.9 1.3c-.4.3-.9.5-1.5.5c-.8 0-1.4-.3-1.9-.8c-.5-.5-.7-1.1-.7-2c0-.9.2-1.7.7-2.2c.5-.5 1.1-.7 1.8-.7c.8 0 1.4.2 1.8.7c.5.5.7 1.2.7 2.1c0 .1 0 .1 0 .3c0 0-4.1 0-4.1 0c.1.6.2 1 .5 1.3c.4.3.7.5 1.2.5c.3 0 .6-.1.9-.3c.2-.1.4-.4.5-.8zm-3-1.5c0 0 3 0 3 0c0-.5-.1-.8-.3-1c-.3-.4-.7-.6-1.2-.6c-.4 0-.7.2-1 .5c-.3.2-.5.6-.5 1.1zm8 3.2l0-7.5l1 0c0 0-.04 2.72 0 2.7c.4-.5.9-.7 1.6-.7c.4 0 .7.1 1 .2c.3.2.6.4.7.7c.1.3.2.7.2 1.2c-.03-.01 0 3.4 0 3.4l-.9 0c0 0-.05-3.41 0-3.4c0-.5-.1-.8-.3-1c-.2-.2-.5-.3-.9-.3c-.3 0-.5 0-.8.2c-.2.1-.4.3-.5.6c-.1.2-.1.5-.1 1c-.04-.03 0 2.9 0 2.9l-1 0zm9.6 0c-.1-.1-.1-.4-.2-.6c-.3.3-.6.5-1 .6c-.3.1-.6.2-1 .2c-.6 0-1-.2-1.4-.5c-.3-.3-.4-.6-.4-1.1c0-.3 0-.5.1-.7c.2-.2.3-.4.5-.6c.2-.1.4-.2.7-.3c.2 0 .4 0 .8-.1c.8-.1 1.3-.2 1.7-.3c0-.1 0-.2 0-.3c0-.3-.1-.6-.3-.7c-.2-.3-.6-.4-1.1-.4c-.4 0-.7.1-.9.3c-.2.1-.4.4-.5.8c0 0-.9-.1-.9-.1c.1-.4.2-.7.4-1c.2-.2.5-.4.8-.5c.4-.2.8-.2 1.3-.2c.4 0 .8 0 1.1.1c.3.1.5.3.7.5c.1.1.2.3.2.6c.1.1.1.4.1.8c0 0 0 1.3 0 1.3c0 .8 0 1.4 0 1.6c.1.2.2.4.3.6c-.02.04-1 0-1 0c0 0 .02.04 0 0zm-.2-2.7c-.4.1-.9.3-1.6.4c-.3 0-.6.1-.8.1c-.1.1-.2.2-.3.3c-.1.2-.2.3-.2.5c0 .2.1.4.3.6c.2.2.5.2.8.2c.4 0 .7 0 1-.2c.3-.1.5-.4.6-.6c.1-.2.2-.5.2-1c0 0 0-.3 0-.3zm3.8 2.7l-2-5.4l.9 0c0 0 1.2 3.26 1.2 3.3c.1.3.2.7.4 1.1c0-.3.1-.7.3-1.1c-.01.02 1.2-3.3 1.2-3.3l1 0l-2.1 5.4l-.9 0zm7.5-1.7c0 0 .9.1.9.1c-.1.6-.4 1-.8 1.3c-.4.3-.9.5-1.5.5c-.8 0-1.5-.3-1.9-.8c-.5-.5-.7-1.1-.7-2c0-.9.2-1.7.7-2.2c.4-.5 1.1-.7 1.8-.7c.7 0 1.3.2 1.8.7c.4.5.7 1.2.7 2.1c0 .1 0 .1 0 .3c0 0-4.1 0-4.1 0c0 .6.2 1 .5 1.3c.3.3.7.5 1.2.5c.3 0 .6-.1.8-.3c.3-.1.5-.4.6-.8zm-3-1.5c0 0 3 0 3 0c0-.5-.2-.8-.3-1c-.3-.4-.7-.6-1.2-.6c-.4 0-.8.2-1.1.5c-.2.2-.4.6-.4 1.1zm11.6 1.2c0 0 .9.2.9.2c-.1.6-.4 1.1-.8 1.4c-.4.4-.9.6-1.5.6c-.7 0-1.3-.3-1.8-.8c-.4-.5-.7-1.1-.7-2.1c0-.5.1-1.1.3-1.5c.2-.4.5-.8.9-1c.4-.2.8-.3 1.3-.3c.6 0 1.1.1 1.5.4c.3.3.6.7.7 1.3c0 0-.9.1-.9.1c-.1-.3-.2-.6-.5-.8c-.2-.2-.4-.3-.8-.3c-.4 0-.8.2-1.1.5c-.3.4-.4.9-.4 1.6c0 .7.1 1.3.4 1.6c.3.3.6.5 1.1.5c.4 0 .7-.1.9-.3c.2-.2.4-.6.5-1.1zm1.3-.7c0-1 .3-1.7.9-2.2c.4-.4 1-.6 1.7-.6c.7 0 1.3.2 1.8.7c.5.5.7 1.2.7 2c0 .7-.1 1.3-.3 1.7c-.2.4-.5.7-.9.9c-.4.3-.9.4-1.3.4c-.8 0-1.4-.3-1.9-.8c-.4-.5-.7-1.2-.7-2.1zm1 0c0 .7.1 1.2.4 1.6c.3.3.7.5 1.2.5c.4 0 .8-.2 1.1-.5c.3-.4.5-.9.5-1.6c0-.7-.2-1.2-.5-1.5c-.3-.4-.7-.6-1.1-.6c-.5 0-.9.2-1.2.6c-.3.3-.4.8-.4 1.5zm5.2 2.7l0-5.4l.8 0c0 0 .03.76 0 .8c.2-.3.4-.5.7-.7c.3-.1.6-.2 1-.2c.4 0 .7.1 1 .2c.2.2.4.4.5.7c.4-.6 1-.9 1.7-.9c.5 0 1 .1 1.2.4c.3.3.5.8.5 1.4c-.02.01 0 3.7 0 3.7l-.9 0c0 0-.04-3.39 0-3.4c0-.4-.1-.6-.1-.8c-.1-.1-.2-.3-.4-.4c-.1-.1-.3-.1-.5-.1c-.4 0-.7.1-1 .4c-.2.2-.3.6-.3 1.2c-.04-.02 0 3.1 0 3.1l-1 0c0 0 .04-3.49 0-3.5c0-.4 0-.7-.2-.9c-.1-.2-.4-.3-.7-.3c-.3 0-.5 0-.7.2c-.3.1-.4.3-.5.6c-.1.2-.2.6-.2 1.1c.03.02 0 2.8 0 2.8l-.9 0zm8.7 0l0-5.4l.9 0c0 0-.03.76 0 .8c.1-.3.4-.5.7-.7c.2-.1.6-.2.9-.2c.4 0 .8.1 1 .2c.3.2.5.4.6.7c.4-.6 1-.9 1.6-.9c.6 0 1 .1 1.3.4c.3.3.4.8.4 1.4c.03.01 0 3.7 0 3.7l-.9 0c0 0 .01-3.39 0-3.4c0-.4 0-.6-.1-.8c0-.1-.1-.3-.3-.4c-.2-.1-.3-.1-.6-.1c-.3 0-.7.1-.9.4c-.3.2-.4.6-.4 1.2c.01-.02 0 3.1 0 3.1l-.9 0c0 0-.02-3.49 0-3.5c0-.4-.1-.7-.2-.9c-.2-.2-.4-.3-.8-.3c-.2 0-.5 0-.7.2c-.2.1-.4.3-.5.6c-.1.2-.1.6-.1 1.1c-.03.02 0 2.8 0 2.8l-1 0zm8.8-6.4l0-1.1l.9 0l0 1.1l-.9 0zm0 6.4l0-5.4l.9 0l0 5.4l-.9 0zm3.9-.7c.1 0 .3-.1.4-.1c0 0 .2.8.2.8c-.3.1-.5.1-.7.1c-.4 0-.6 0-.8-.1c-.2-.1-.3-.3-.4-.5c-.1-.1-.1-.5-.1-1.1c0 .05 0-3.1 0-3.1l-.7 0l0-.7l.7 0l0-1.3l.9-.6l0 1.9l.9 0l0 .7l-.9 0c0 0 .02 3.2 0 3.2c0 .3 0 .4.1.5c0 .1 0 .1.1.2c.1 0 .2.1.3.1c0 0 0 0 0 0zm3 0c.1 0 .2-.1.4-.1c0 0 .1.8.1.8c-.3.1-.5.1-.7.1c-.3 0-.6 0-.8-.1c-.2-.1-.3-.3-.4-.5c0-.1-.1-.5-.1-1.1c.01.05 0-3.1 0-3.1l-.7 0l0-.7l.7 0l0-1.3l.9-.6l0 1.9l1 0l0 .7l-1 0c0 0 .03 3.2 0 3.2c0 .3 0 .4.1.5c0 .1.1.1.1.2c.1 0 .2.1.4.1c0 0 0 0 0 0zm5-1c0 0 .9.1.9.1c-.1.6-.4 1-.8 1.3c-.4.3-.9.5-1.6.5c-.7 0-1.4-.3-1.8-.8c-.5-.5-.7-1.1-.7-2c0-.9.2-1.7.7-2.2c.4-.5 1-.7 1.8-.7c.7 0 1.3.2 1.8.7c.4.5.7 1.2.7 2.1c0 .1 0 .1 0 .3c0 0-4.1 0-4.1 0c0 .6.2 1 .5 1.3c.3.3.7.5 1.2.5c.3 0 .6-.1.8-.3c.3-.1.4-.4.6-.8zm-3-1.5c0 0 3 0 3 0c0-.5-.2-.8-.3-1c-.3-.4-.7-.6-1.2-.6c-.4 0-.8.2-1.1.5c-.2.2-.4.6-.4 1.1zm8.6 3.2c0 0 .03-.64 0-.6c-.3.5-.8.8-1.5.8c-.4 0-.8-.2-1.2-.4c-.3-.2-.6-.6-.8-1c-.2-.4-.3-.9-.3-1.5c0-.5.1-1 .2-1.5c.2-.4.5-.7.9-1c.3-.2.7-.3 1.2-.3c.3 0 .6 0 .8.2c.3.1.5.3.7.5c-.03.02 0-2.7 0-2.7l.9 0l0 7.5l-.9 0zm-2.9-2.7c0 .7.2 1.2.5 1.6c.3.3.6.5 1 .5c.4 0 .7-.2 1-.5c.3-.3.5-.8.5-1.5c0-.7-.2-1.3-.5-1.6c-.3-.4-.6-.6-1-.6c-.5 0-.8.2-1.1.5c-.2.4-.4.9-.4 1.6zm9.8 2c.1 0 .2-.1.4-.1c0 0 .1.8.1.8c-.3.1-.5.1-.7.1c-.3 0-.6 0-.8-.1c-.2-.1-.3-.3-.4-.5c0-.1-.1-.5-.1-1.1c.02.05 0-3.1 0-3.1l-.7 0l0-.7l.7 0l0-1.3l.9-.6l0 1.9l1 0l0 .7l-1 0c0 0 .03 3.2 0 3.2c0 .3.1.4.1.5c0 .1.1.1.1.2c.1 0 .2.1.4.1c0 0 0 0 0 0zm.9-2c0-1 .3-1.7.9-2.2c.4-.4 1-.6 1.7-.6c.7 0 1.3.2 1.8.7c.5.5.7 1.2.7 2c0 .7-.1 1.3-.3 1.7c-.2.4-.5.7-.9.9c-.4.3-.9.4-1.3.4c-.8 0-1.4-.3-1.9-.8c-.4-.5-.7-1.2-.7-2.1zm1 0c0 .7.1 1.2.4 1.6c.3.3.7.5 1.2.5c.4 0 .8-.2 1.1-.5c.3-.4.5-.9.5-1.6c0-.7-.2-1.2-.5-1.5c-.3-.4-.7-.6-1.1-.6c-.5 0-.9.2-1.2.6c-.3.3-.4.8-.4 1.5zm8.1 2.7l0-5.4l.8 0c0 0 .03.82 0 .8c.2-.4.4-.6.6-.7c.2-.2.4-.2.6-.2c.3 0 .6.1 1 .3c0 0-.4.8-.4.8c-.2-.1-.4-.2-.6-.2c-.2 0-.4.1-.6.2c-.1.1-.3.3-.3.5c-.1.3-.2.7-.2 1.1c.02-.01 0 2.8 0 2.8l-.9 0zm7.2-1.7c0 0 1 .1 1 .1c-.2.6-.4 1-.8 1.3c-.5.3-1 .5-1.6.5c-.8 0-1.4-.3-1.9-.8c-.5-.5-.7-1.1-.7-2c0-.9.2-1.7.7-2.2c.5-.5 1.1-.7 1.8-.7c.8 0 1.4.2 1.8.7c.5.5.7 1.2.7 2.1c0 .1 0 .1 0 .3c0 0-4 0-4 0c0 .6.2 1 .5 1.3c.3.3.6.5 1.1.5c.3 0 .6-.1.9-.3c.2-.1.4-.4.5-.8zm-3-1.5c0 0 3 0 3 0c0-.5-.1-.8-.3-1c-.3-.4-.7-.6-1.1-.6c-.5 0-.8.2-1.1.5c-.3.2-.5.6-.5 1.1zm8.7 3.2c0 0-.02-.64 0-.6c-.4.5-.9.8-1.5.8c-.5 0-.9-.2-1.2-.4c-.4-.2-.7-.6-.9-1c-.2-.4-.3-.9-.3-1.5c0-.5.1-1 .3-1.5c.2-.4.4-.7.8-1c.4-.2.8-.3 1.2-.3c.3 0 .6 0 .9.2c.2.1.5.3.6.5c.02.02 0-2.7 0-2.7l.9 0l0 7.5l-.8 0zm-2.9-2.7c0 .7.1 1.2.4 1.6c.3.3.6.5 1 .5c.4 0 .8-.2 1.1-.5c.3-.3.4-.8.4-1.5c0-.7-.2-1.3-.4-1.6c-.3-.4-.7-.6-1.1-.6c-.4 0-.8.2-1 .5c-.3.4-.4.9-.4 1.6zm8.8 2.7c0 0-.05-.76 0-.8c-.5.7-1 1-1.8 1c-.3 0-.6-.1-.9-.2c-.3-.1-.5-.3-.6-.5c-.1-.2-.2-.4-.3-.7c0-.1 0-.4 0-.8c-.04-.03 0-3.4 0-3.4l.9 0c0 0-.01 3.02 0 3c0 .5 0 .8 0 1c.1.2.2.4.4.6c.2.1.4.2.7.2c.3 0 .5-.1.8-.2c.2-.2.4-.4.5-.6c.1-.3.2-.6.2-1.1c-.04.02 0-2.9 0-2.9l.9 0l0 5.4l-.8 0zm5.8-2c0 0 .9.2.9.2c-.1.6-.4 1.1-.8 1.4c-.4.4-.9.6-1.5.6c-.7 0-1.3-.3-1.8-.8c-.4-.5-.7-1.1-.7-2.1c0-.5.1-1.1.3-1.5c.2-.4.5-.8.9-1c.4-.2.9-.3 1.3-.3c.6 0 1.1.1 1.5.4c.4.3.6.7.7 1.3c0 0-.9.1-.9.1c-.1-.3-.2-.6-.5-.8c-.2-.2-.4-.3-.7-.3c-.5 0-.9.2-1.2.5c-.3.4-.4.9-.4 1.6c0 .7.1 1.3.4 1.6c.3.3.7.5 1.1.5c.4 0 .7-.1.9-.3c.3-.2.4-.6.5-1.1zm1.7-4.4l0-1.1l.9 0l0 1.1l-.9 0zm0 6.4l0-5.4l.9 0l0 5.4l-.9 0zm2.3 0l0-5.4l.8 0c0 0 .04.77 0 .8c.4-.6 1-.9 1.8-.9c.3 0 .6 0 .9.2c.3.1.5.2.6.4c.1.2.2.4.3.7c0 .2 0 .5 0 .9c.03 0 0 3.3 0 3.3l-.9 0c0 0 .01-3.27 0-3.3c0-.3 0-.6-.1-.8c-.1-.2-.2-.3-.4-.5c-.2-.1-.4-.1-.6-.1c-.4 0-.8.1-1 .4c-.3.2-.5.7-.5 1.4c.03-.03 0 2.9 0 2.9l-.9 0zm5.7.5c0 0 .9.1.9.1c0 .3.1.5.3.6c.2.2.5.3.9.3c.5 0 .8-.1 1-.3c.2-.1.4-.4.5-.7c0-.2.1-.6.1-1.2c-.4.5-1 .7-1.6.7c-.7 0-1.3-.2-1.7-.8c-.4-.5-.6-1.2-.6-1.9c0-.5.1-1 .3-1.4c.2-.5.4-.8.8-1.1c.4-.2.8-.3 1.3-.3c.6 0 1.1.2 1.5.8c.04-.04 0-.7 0-.7l.9 0c0 0-.01 4.71 0 4.7c0 .9-.1 1.5-.3 1.8c-.1.4-.4.6-.8.8c-.4.3-.8.4-1.4.4c-.6 0-1.1-.2-1.5-.5c-.4-.3-.6-.7-.6-1.3zm.7-3.3c0 .7.2 1.3.5 1.6c.3.3.6.5 1 .5c.5 0 .8-.2 1.1-.5c.3-.3.4-.8.4-1.5c0-.7-.1-1.2-.4-1.6c-.3-.3-.7-.5-1.1-.5c-.4 0-.7.2-1 .5c-.3.4-.5.9-.5 1.5zm10.8.1c0-1 .2-1.7.8-2.2c.5-.4 1-.6 1.7-.6c.8 0 1.4.2 1.8.7c.5.5.8 1.2.8 2c0 .7-.2 1.3-.4 1.7c-.2.4-.5.7-.9.9c-.4.3-.8.4-1.3.4c-.8 0-1.4-.3-1.8-.8c-.5-.5-.7-1.2-.7-2.1zm.9 0c0 .7.2 1.2.5 1.6c.3.3.6.5 1.1.5c.5 0 .8-.2 1.2-.5c.3-.4.4-.9.4-1.6c0-.7-.1-1.2-.5-1.5c-.3-.4-.6-.6-1.1-.6c-.5 0-.8.2-1.1.6c-.3.3-.5.8-.5 1.5zm8.8 2.7c0 0 .01-.76 0-.8c-.4.7-1 1-1.7 1c-.3 0-.6-.1-.9-.2c-.3-.1-.5-.3-.6-.5c-.2-.2-.3-.4-.3-.7c-.1-.1-.1-.4-.1-.8c.02-.03 0-3.4 0-3.4l.9 0c0 0 .04 3.02 0 3c0 .5.1.8.1 1c.1.2.2.4.4.6c.2.1.4.2.7.2c.2 0 .5-.1.7-.2c.3-.2.5-.4.6-.6c.1-.3.1-.6.1-1.1c.01.02 0-2.9 0-2.9l.9 0l0 5.4l-.8 0zm2.3 0l0-5.4l.8 0c0 0 0 .82 0 .8c.2-.4.4-.6.6-.7c.2-.2.4-.2.6-.2c.3 0 .6.1.9.3c0 0-.3.8-.3.8c-.2-.1-.4-.2-.7-.2c-.2 0-.4.1-.5.2c-.2.1-.3.3-.4.5c-.1.3-.1.7-.1 1.1c-.01-.01 0 2.8 0 2.8l-.9 0zm6.2.5c0 0 .9.1.9.1c0 .3.1.5.3.6c.2.2.6.3 1 .3c.4 0 .7-.1.9-.3c.3-.1.4-.4.5-.7c.1-.2.1-.6.1-1.2c-.4.5-.9.7-1.5.7c-.8 0-1.4-.2-1.8-.8c-.4-.5-.6-1.2-.6-1.9c0-.5.1-1 .3-1.4c.2-.5.5-.8.8-1.1c.4-.2.8-.3 1.3-.3c.6 0 1.2.2 1.6.8c-.03-.04 0-.7 0-.7l.8 0c0 0 .02 4.71 0 4.7c0 .9-.1 1.5-.2 1.8c-.2.4-.5.6-.9.8c-.3.3-.8.4-1.3.4c-.7 0-1.2-.2-1.6-.5c-.4-.3-.6-.7-.6-1.3zm.8-3.3c0 .7.1 1.3.4 1.6c.3.3.6.5 1.1.5c.4 0 .7-.2 1-.5c.3-.3.5-.8.5-1.5c0-.7-.2-1.2-.5-1.6c-.3-.3-.6-.5-1.1-.5c-.4 0-.7.2-1 .5c-.3.4-.4.9-.4 1.5zm5.2 2.8l0-5.4l.8 0c0 0 .04.82 0 .8c.2-.4.4-.6.6-.7c.2-.2.4-.2.6-.2c.3 0 .6.1 1 .3c0 0-.4.8-.4.8c-.2-.1-.4-.2-.6-.2c-.2 0-.4.1-.6.2c-.1.1-.2.3-.3.5c-.1.3-.2.7-.2 1.1c.03-.01 0 2.8 0 2.8l-.9 0zm7.2-1.7c0 0 1 .1 1 .1c-.2.6-.4 1-.8 1.3c-.4.3-1 .5-1.6.5c-.8 0-1.4-.3-1.9-.8c-.5-.5-.7-1.1-.7-2c0-.9.2-1.7.7-2.2c.5-.5 1.1-.7 1.8-.7c.8 0 1.4.2 1.8.7c.5.5.7 1.2.7 2.1c0 .1 0 .1 0 .3c0 0-4 0-4 0c0 .6.2 1 .5 1.3c.3.3.7.5 1.1.5c.3 0 .6-.1.9-.3c.2-.1.4-.4.5-.8zm-3-1.5c0 0 3.1 0 3.1 0c-.1-.5-.2-.8-.4-1c-.3-.4-.7-.6-1.1-.6c-.5 0-.8.2-1.1.5c-.3.2-.5.6-.5 1.1zm8.9 1.5c0 0 .9.1.9.1c-.1.6-.4 1-.8 1.3c-.4.3-.9.5-1.6.5c-.8 0-1.4-.3-1.9-.8c-.4-.5-.7-1.1-.7-2c0-.9.3-1.7.8-2.2c.4-.5 1-.7 1.8-.7c.7 0 1.3.2 1.8.7c.4.5.7 1.2.7 2.1c0 .1 0 .1 0 .3c0 0-4.1 0-4.1 0c0 .6.2 1 .5 1.3c.3.3.7.5 1.1.5c.4 0 .7-.1.9-.3c.3-.1.4-.4.6-.8zm-3-1.5c0 0 3 0 3 0c0-.5-.2-.8-.4-1c-.3-.4-.6-.6-1.1-.6c-.4 0-.8.2-1.1.5c-.3.2-.4.6-.4 1.1zm5.1 3.2l0-5.4l.8 0c0 0 .02.77 0 .8c.4-.6 1-.9 1.8-.9c.3 0 .6 0 .9.2c.2.1.4.2.6.4c.1.2.2.4.3.7c0 .2 0 .5 0 .9c.02 0 0 3.3 0 3.3l-.9 0c0 0 0-3.27 0-3.3c0-.3 0-.6-.1-.8c-.1-.2-.2-.3-.4-.5c-.2-.1-.4-.1-.6-.1c-.4 0-.8.1-1.1.4c-.2.2-.4.7-.4 1.4c.02-.03 0 2.9 0 2.9l-.9 0zm5.8 0l0-7.5l1 0c0 0-.04 2.72 0 2.7c.4-.5.9-.7 1.6-.7c.4 0 .7.1 1 .2c.3.2.5.4.7.7c.1.3.2.7.2 1.2c-.03-.01 0 3.4 0 3.4l-1 0c0 0 .05-3.41 0-3.4c0-.5-.1-.8-.3-1c-.2-.2-.4-.3-.8-.3c-.3 0-.5 0-.8.2c-.2.1-.4.3-.5.6c-.1.2-.1.5-.1 1c-.04-.03 0 2.9 0 2.9l-1 0zm5.5-2.7c0-1 .3-1.7.9-2.2c.4-.4 1-.6 1.7-.6c.7 0 1.3.2 1.8.7c.5.5.7 1.2.7 2c0 .7-.1 1.3-.3 1.7c-.2.4-.5.7-.9.9c-.4.3-.8.4-1.3.4c-.8 0-1.4-.3-1.9-.8c-.4-.5-.7-1.2-.7-2.1zm1 0c0 .7.1 1.2.4 1.6c.3.3.7.5 1.2.5c.4 0 .8-.2 1.1-.5c.3-.4.5-.9.5-1.6c0-.7-.2-1.2-.5-1.5c-.3-.4-.7-.6-1.1-.6c-.5 0-.9.2-1.2.6c-.3.3-.4.8-.4 1.5zm8.8 2.7c0 0-.02-.76 0-.8c-.4.7-1 1-1.7 1c-.4 0-.7-.1-.9-.2c-.3-.1-.5-.3-.7-.5c-.1-.2-.2-.4-.3-.7c0-.1 0-.4 0-.8c-.01-.03 0-3.4 0-3.4l.9 0c0 0 .01 3.02 0 3c0 .5 0 .8.1 1c0 .2.2.4.3.6c.2.1.5.2.7.2c.3 0 .6-.1.8-.2c.3-.2.4-.4.5-.6c.1-.3.2-.6.2-1.1c-.02.02 0-2.9 0-2.9l.9 0l0 5.4l-.8 0zm1.9-1.6c0 0 .9-.1.9-.1c0 .3.2.6.4.8c.3.2.6.3 1 .3c.4 0 .7-.1.9-.3c.3-.1.4-.3.4-.6c0-.2-.1-.3-.3-.5c-.1 0-.5-.1-1-.3c-.6-.1-1.1-.3-1.4-.4c-.2-.1-.4-.3-.6-.5c-.1-.2-.2-.5-.2-.8c0-.2.1-.4.2-.6c.1-.2.3-.4.5-.5c.1-.2.3-.2.5-.3c.3-.1.6-.1.8-.1c.5 0 .8 0 1.2.2c.3.1.5.3.7.5c.1.2.2.5.3.8c0 0-.9.1-.9.1c0-.3-.2-.5-.4-.6c-.2-.2-.4-.3-.8-.3c-.4 0-.7.1-.9.2c-.2.2-.3.3-.3.5c0 .2.1.3.1.4c.1.1.2.1.4.2c.1 0 .4.1.8.2c.7.2 1.1.4 1.4.5c.2.1.4.2.6.5c.1.2.2.4.2.7c0 .4-.1.6-.3.9c-.1.3-.4.5-.7.6c-.4.2-.8.3-1.2.3c-.7 0-1.2-.2-1.6-.5c-.4-.3-.6-.7-.7-1.3zm9.3-.1c0 0 1 .1 1 .1c-.2.6-.4 1-.9 1.3c-.4.3-.9.5-1.5.5c-.8 0-1.4-.3-1.9-.8c-.5-.5-.7-1.1-.7-2c0-.9.2-1.7.7-2.2c.5-.5 1.1-.7 1.8-.7c.8 0 1.4.2 1.8.7c.5.5.7 1.2.7 2.1c0 .1 0 .1 0 .3c0 0-4.1 0-4.1 0c.1.6.3 1 .6 1.3c.3.3.6.5 1.1.5c.3 0 .6-.1.9-.3c.2-.1.4-.4.5-.8zm-3-1.5c0 0 3 0 3 0c0-.5-.1-.8-.3-1c-.3-.4-.7-.6-1.2-.6c-.4 0-.7.2-1 .5c-.3.2-.5.6-.5 1.1zm7.9 3.7c0 0 .9.1.9.1c0 .3.1.5.3.6c.2.2.5.3.9.3c.5 0 .8-.1 1-.3c.2-.1.4-.4.5-.7c0-.2.1-.6.1-1.2c-.4.5-1 .7-1.6.7c-.7 0-1.3-.2-1.7-.8c-.4-.5-.6-1.2-.6-1.9c0-.5.1-1 .3-1.4c.2-.5.4-.8.8-1.1c.3-.2.8-.3 1.3-.3c.6 0 1.1.2 1.5.8c.04-.04 0-.7 0-.7l.9 0c0 0-.01 4.71 0 4.7c0 .9-.1 1.5-.3 1.8c-.1.4-.4.6-.8.8c-.4.3-.8.4-1.4.4c-.6 0-1.1-.2-1.5-.5c-.4-.3-.6-.7-.6-1.3zm.7-3.3c0 .7.2 1.3.5 1.6c.3.3.6.5 1 .5c.5 0 .8-.2 1.1-.5c.3-.3.4-.8.4-1.5c0-.7-.1-1.2-.4-1.6c-.3-.3-.7-.5-1.1-.5c-.4 0-.7.2-1 .5c-.3.4-.5.9-.5 1.5zm9 2.8c-.1-.1-.1-.4-.2-.6c-.3.3-.6.5-.9.6c-.4.1-.7.2-1.1.2c-.6 0-1-.2-1.3-.5c-.4-.3-.5-.6-.5-1.1c0-.3 0-.5.2-.7c.1-.2.2-.4.4-.6c.2-.1.5-.2.7-.3c.2 0 .5 0 .8-.1c.8-.1 1.3-.2 1.7-.3c0-.1 0-.2 0-.3c0-.3-.1-.6-.3-.7c-.2-.3-.6-.4-1-.4c-.5 0-.8.1-1 .3c-.2.1-.4.4-.5.8c0 0-.9-.1-.9-.1c.1-.4.2-.7.4-1c.2-.2.5-.4.9-.5c.3-.2.7-.2 1.2-.2c.5 0 .8 0 1.1.1c.3.1.5.3.7.5c.1.1.2.3.2.6c.1.1.1.4.1.8c0 0 0 1.3 0 1.3c0 .8 0 1.4.1 1.6c0 .2.1.4.2.6c-.01.04-1 0-1 0c0 0 .02.04 0 0zm-.2-2.7c-.4.1-.9.3-1.5.4c-.4 0-.7.1-.8.1c-.2.1-.3.2-.4.3c-.1.2-.1.3-.1.5c0 .2.1.4.2.6c.2.2.5.2.9.2c.3 0 .6 0 .9-.2c.3-.1.5-.4.6-.6c.1-.2.2-.5.2-1c0 0 0-.3 0-.3zm2 1.1c0 0 .9-.1.9-.1c0 .3.2.6.4.8c.2.2.6.3 1 .3c.4 0 .7-.1.9-.3c.2-.1.3-.3.3-.6c0-.2-.1-.3-.2-.5c-.2 0-.5-.1-1-.3c-.7-.1-1.1-.3-1.4-.4c-.3-.1-.5-.3-.6-.5c-.1-.2-.2-.5-.2-.8c0-.2.1-.4.2-.6c.1-.2.2-.4.4-.5c.2-.2.4-.2.6-.3c.3-.1.5-.1.8-.1c.4 0 .8 0 1.1.2c.4.1.6.3.8.5c.1.2.2.5.3.8c0 0-.9.1-.9.1c-.1-.3-.2-.5-.4-.6c-.2-.2-.5-.3-.8-.3c-.4 0-.7.1-.9.2c-.2.2-.3.3-.3.5c0 .2 0 .3.1.4c.1.1.2.1.4.2c.1 0 .3.1.8.2c.6.2 1.1.4 1.4.5c.2.1.4.2.6.5c.1.2.2.4.2.7c0 .4-.1.6-.3.9c-.2.3-.4.5-.8.6c-.3.2-.7.3-1.1.3c-.7 0-1.3-.2-1.6-.5c-.4-.3-.6-.7-.7-1.3zm12.2-.1c0 0 1 .1 1 .1c-.2.6-.5 1-.9 1.3c-.4.3-.9.5-1.5.5c-.8 0-1.5-.3-1.9-.8c-.5-.5-.7-1.1-.7-2c0-.9.2-1.7.7-2.2c.5-.5 1.1-.7 1.8-.7c.7 0 1.3.2 1.8.7c.5.5.7 1.2.7 2.1c0 .1 0 .1 0 .3c0 0-4.1 0-4.1 0c.1.6.2 1 .5 1.3c.3.3.7.5 1.2.5c.3 0 .6-.1.8-.3c.3-.1.5-.4.6-.8zm-3-1.5c0 0 3 0 3 0c0-.5-.1-.8-.3-1c-.3-.4-.7-.6-1.2-.6c-.4 0-.8.2-1 .5c-.3.2-.5.6-.5 1.1zm5.1 3.2l0-5.4l.8 0c0 0 .05.76 0 .8c.2-.3.4-.5.7-.7c.3-.1.6-.2 1-.2c.4 0 .7.1 1 .2c.2.2.4.4.5.7c.5-.6 1-.9 1.7-.9c.6 0 1 .1 1.3.4c.3.3.4.8.4 1.4c0 .01 0 3.7 0 3.7l-.9 0c0 0-.02-3.39 0-3.4c0-.4 0-.6-.1-.8c-.1-.1-.2-.3-.3-.4c-.2-.1-.4-.1-.6-.1c-.4 0-.7.1-.9.4c-.3.2-.4.6-.4 1.2c-.02-.02 0 3.1 0 3.1l-.9 0c0 0-.04-3.49 0-3.5c0-.4-.1-.7-.3-.9c-.1-.2-.4-.3-.7-.3c-.3 0-.5 0-.7.2c-.2.1-.4.3-.5.6c-.1.2-.2.6-.2 1.1c.04.02 0 2.8 0 2.8l-.9 0zm8.8-6.4l0-1.1l.9 0l0 1.1l-.9 0zm0 6.4l0-5.4l.9 0l0 5.4l-.9 0zm1.9-1.6c0 0 .9-.1.9-.1c.1.3.2.6.5.8c.2.2.5.3 1 .3c.4 0 .7-.1.9-.3c.2-.1.3-.3.3-.6c0-.2-.1-.3-.3-.5c-.1 0-.4-.1-.9-.3c-.7-.1-1.2-.3-1.4-.4c-.3-.1-.5-.3-.6-.5c-.1-.2-.2-.5-.2-.8c0-.2 0-.4.2-.6c.1-.2.2-.4.4-.5c.1-.2.3-.2.6-.3c.2-.1.5-.1.8-.1c.4 0 .8 0 1.1.2c.3.1.6.3.7.5c.2.2.3.5.3.8c0 0-.9.1-.9.1c0-.3-.1-.5-.3-.6c-.2-.2-.5-.3-.8-.3c-.5 0-.8.1-1 .2c-.1.2-.2.3-.2.5c0 .2 0 .3.1.4c.1.1.2.1.3.2c.1 0 .4.1.9.2c.6.2 1.1.4 1.3.5c.3.1.5.2.6.5c.2.2.3.4.3.7c0 .4-.1.6-.3.9c-.2.3-.5.5-.8.6c-.3.2-.7.3-1.1.3c-.7 0-1.3-.2-1.7-.5c-.3-.3-.6-.7-.7-1.3zm5.3 0c0 0 .9-.1.9-.1c0 .3.2.6.4.8c.3.2.6.3 1 .3c.4 0 .7-.1.9-.3c.3-.1.4-.3.4-.6c0-.2-.1-.3-.3-.5c-.1 0-.5-.1-1-.3c-.6-.1-1.1-.3-1.4-.4c-.2-.1-.4-.3-.6-.5c-.1-.2-.2-.5-.2-.8c0-.2.1-.4.2-.6c.1-.2.3-.4.5-.5c.1-.2.3-.2.5-.3c.3-.1.6-.1.8-.1c.5 0 .8 0 1.2.2c.3.1.5.3.7.5c.1.2.2.5.3.8c0 0-.9.1-.9.1c0-.3-.2-.5-.4-.6c-.2-.2-.4-.3-.8-.3c-.4 0-.7.1-.9.2c-.2.2-.3.3-.3.5c0 .2.1.3.1.4c.1.1.2.1.4.2c.1 0 .4.1.8.2c.7.2 1.1.4 1.4.5c.2.1.4.2.6.5c.1.2.2.4.2.7c0 .4-.1.6-.3.9c-.1.3-.4.5-.7.6c-.4.2-.8.3-1.2.3c-.7 0-1.2-.2-1.6-.5c-.4-.3-.6-.7-.7-1.3zm5.6-4.8l0-1.1l.9 0l0 1.1l-.9 0zm0 6.4l0-5.4l.9 0l0 5.4l-.9 0zm2-2.7c0-1 .3-1.7.8-2.2c.5-.4 1.1-.6 1.7-.6c.8 0 1.4.2 1.9.7c.5.5.7 1.2.7 2c0 .7-.1 1.3-.3 1.7c-.2.4-.5.7-.9.9c-.4.3-.9.4-1.4.4c-.7 0-1.3-.3-1.8-.8c-.5-.5-.7-1.2-.7-2.1zm.9 0c0 .7.2 1.2.5 1.6c.3.3.7.5 1.1.5c.5 0 .9-.2 1.2-.5c.3-.4.4-.9.4-1.6c0-.7-.1-1.2-.4-1.5c-.3-.4-.7-.6-1.2-.6c-.4 0-.8.2-1.1.6c-.3.3-.5.8-.5 1.5zm5.3 2.7l0-5.4l.8 0c0 0 0 .77 0 .8c.4-.6 1-.9 1.7-.9c.4 0 .7 0 .9.2c.3.1.5.2.7.4c.1.2.2.4.2.7c.1.2.1.5.1.9c0 0 0 3.3 0 3.3l-.9 0c0 0-.03-3.27 0-3.3c0-.3-.1-.6-.1-.8c-.1-.2-.2-.3-.4-.5c-.2-.1-.4-.1-.7-.1c-.4 0-.7.1-1 .4c-.3.2-.4.7-.4 1.4c0-.03 0 2.9 0 2.9l-.9 0zm5.4-1.6c0 0 1-.1 1-.1c0 .3.1.6.4.8c.2.2.5.3 1 .3c.4 0 .7-.1.9-.3c.2-.1.3-.3.3-.6c0-.2-.1-.3-.3-.5c-.1 0-.4-.1-.9-.3c-.7-.1-1.1-.3-1.4-.4c-.3-.1-.5-.3-.6-.5c-.1-.2-.2-.5-.2-.8c0-.2.1-.4.2-.6c.1-.2.2-.4.4-.5c.2-.2.4-.2.6-.3c.3-.1.5-.1.8-.1c.4 0 .8 0 1.1.2c.3.1.6.3.7.5c.2.2.3.5.4.8c0 0-.9.1-.9.1c-.1-.3-.2-.5-.4-.6c-.2-.2-.5-.3-.8-.3c-.5 0-.8.1-.9.2c-.2.2-.3.3-.3.5c0 .2 0 .3.1.4c.1.1.2.1.4.2c0 0 .3.1.8.2c.6.2 1.1.4 1.3.5c.3.1.5.2.6.5c.2.2.3.4.3.7c0 .4-.1.6-.3.9c-.2.3-.4.5-.8.6c-.3.2-.7.3-1.1.3c-.7 0-1.3-.2-1.6-.5c-.4-.3-.7-.7-.8-1.3z" stroke="none" fill="#ffffff"/></g><g id="Polygon68857"><path d="m.3 17.5c0-1 .3-1.7.9-2.2c.5-.4 1-.6 1.7-.6c.8 0 1.4.2 1.8.7c.5.5.7 1.2.7 2c0 .7-.1 1.3-.3 1.7c-.2.4-.5.7-.9.9c-.4.3-.8.4-1.3.4c-.8 0-1.4-.3-1.8-.8c-.5-.5-.8-1.2-.8-2.1zm1 0c0 .7.1 1.2.5 1.6c.3.3.6.5 1.1.5c.5 0 .8-.2 1.1-.5c.3-.4.5-.9.5-1.6c0-.7-.2-1.2-.5-1.5c-.3-.4-.6-.6-1.1-.6c-.5 0-.8.2-1.1.6c-.4.3-.5.8-.5 1.5zm5.5 2.7l0-4.7l-.9 0l0-.7l.9 0c0 0-.05-.58 0-.6c0-.3 0-.6 0-.8c.1-.2.3-.4.5-.6c.2-.1.6-.2 1-.2c.2 0 .5 0 .8.1c0 0-.1.8-.1.8c-.2 0-.4-.1-.6-.1c-.2 0-.4.1-.6.2c-.1.1-.1.4-.1.7c-.03 0 0 .5 0 .5l1 0l0 .7l-1 0l0 4.7l-.9 0zm7.2-.7c.1 0 .2-.1.4-.1c0 0 .1.8.1.8c-.2.1-.5.1-.7.1c-.3 0-.6 0-.8-.1c-.1-.1-.3-.3-.4-.5c0-.1-.1-.5-.1-1.1c.04.05 0-3.1 0-3.1l-.6 0l0-.7l.6 0l0-1.3l1-.6l0 1.9l.9 0l0 .7l-.9 0c0 0-.05 3.2 0 3.2c0 .3 0 .4 0 .5c0 .1.1.1.2.2c0 0 .1.1.3.1c0 0 0 0 0 0zm1.3.7l0-7.5l.9 0c0 0 .01 2.72 0 2.7c.4-.5 1-.7 1.6-.7c.4 0 .8.1 1.1.2c.3.2.5.4.6.7c.2.3.2.7.2 1.2c.02-.01 0 3.4 0 3.4l-.9 0c0 0 0-3.41 0-3.4c0-.5-.1-.8-.3-1c-.2-.2-.5-.3-.9-.3c-.2 0-.5 0-.7.2c-.3.1-.4.3-.5.6c-.1.2-.2.5-.2 1c.01-.03 0 2.9 0 2.9l-.9 0zm5.8-6.4l0-1.1l1 0l0 1.1l-1 0zm0 6.4l0-5.4l1 0l0 5.4l-1 0zm2-1.6c0 0 .9-.1.9-.1c.1.3.2.6.4.8c.3.2.6.3 1 .3c.4 0 .7-.1 1-.3c.2-.1.3-.3.3-.6c0-.2-.1-.3-.3-.5c-.1 0-.5-.1-1-.3c-.6-.1-1.1-.3-1.4-.4c-.2-.1-.4-.3-.6-.5c-.1-.2-.2-.5-.2-.8c0-.2.1-.4.2-.6c.1-.2.3-.4.5-.5c.1-.2.3-.2.5-.3c.3-.1.6-.1.8-.1c.5 0 .8 0 1.2.2c.3.1.5.3.7.5c.1.2.2.5.3.8c0 0-.9.1-.9.1c0-.3-.2-.5-.4-.6c-.2-.2-.4-.3-.8-.3c-.4 0-.7.1-.9.2c-.2.2-.3.3-.3.5c0 .2.1.3.1.4c.1.1.2.1.4.2c.1 0 .4.1.8.2c.7.2 1.1.4 1.4.5c.2.1.4.2.6.5c.1.2.2.4.2.7c0 .4-.1.6-.3.9c-.1.3-.4.5-.7.6c-.4.2-.8.3-1.2.3c-.7 0-1.2-.2-1.6-.5c-.4-.3-.6-.7-.7-1.3zm8.5 3.7l0-7.5l.9 0c0 0-.04.71 0 .7c.2-.3.4-.5.6-.6c.3-.2.6-.2.9-.2c.5 0 .9.1 1.3.3c.3.3.6.6.8 1c.2.5.3 1 .3 1.5c0 .5-.1 1-.3 1.5c-.2.4-.5.8-.9 1c-.4.2-.8.4-1.2.4c-.3 0-.6-.1-.9-.2c-.2-.2-.4-.3-.6-.5c.05-.02 0 2.6 0 2.6l-.9 0zm.9-4.7c0 .7.1 1.2.4 1.5c.3.3.6.5 1 .5c.4 0 .8-.2 1.1-.5c.3-.4.4-.9.4-1.6c0-.7-.1-1.2-.4-1.6c-.3-.3-.6-.5-1-.5c-.4 0-.8.2-1.1.6c-.3.3-.4.9-.4 1.6zm8.7 2.6c-.1-.1-.2-.4-.2-.6c-.3.3-.7.5-1 .6c-.3.1-.6.2-1 .2c-.6 0-1-.2-1.4-.5c-.3-.3-.5-.6-.5-1.1c0-.3.1-.5.2-.7c.2-.2.3-.4.5-.6c.2-.1.4-.2.7-.3c.2 0 .4 0 .8-.1c.7-.1 1.3-.2 1.6-.3c0-.1 0-.2 0-.3c0-.3 0-.6-.2-.7c-.3-.3-.6-.4-1.1-.4c-.4 0-.7.1-.9.3c-.2.1-.4.4-.5.8c0 0-.9-.1-.9-.1c.1-.4.2-.7.4-1c.2-.2.5-.4.8-.5c.4-.2.8-.2 1.3-.2c.4 0 .8 0 1.1.1c.3.1.5.3.6.5c.2.1.3.3.3.6c.1.1.1.4.1.8c0 0 0 1.3 0 1.3c0 .8 0 1.4 0 1.6c.1.2.1.4.3.6c-.04.04-1 0-1 0c0 0 0 .04 0 0zm-.3-2.7c-.3.1-.8.3-1.5.4c-.3 0-.6.1-.8.1c-.1.1-.3.2-.3.3c-.1.2-.2.3-.2.5c0 .2.1.4.3.6c.2.2.5.2.8.2c.4 0 .7 0 1-.2c.3-.1.5-.4.6-.6c.1-.2.1-.5.1-1c0 0 0-.3 0-.3zm2.4 2.7l0-5.4l.8 0c0 0 .02.82 0 .8c.2-.4.4-.6.6-.7c.2-.2.4-.2.6-.2c.3 0 .6.1 1 .3c0 0-.4.8-.4.8c-.2-.1-.4-.2-.6-.2c-.2 0-.4.1-.6.2c-.1.1-.3.3-.3.5c-.1.3-.2.7-.2 1.1c.01-.01 0 2.8 0 2.8l-.9 0zm5.1-.7c.1 0 .2-.1.4-.1c0 0 .1.8.1.8c-.2.1-.4.1-.7.1c-.3 0-.5 0-.7-.1c-.2-.1-.3-.3-.4-.5c-.1-.1-.1-.5-.1-1.1c-.03.05 0-3.1 0-3.1l-.7 0l0-.7l.7 0l0-1.3l.9-.6l0 1.9l.9 0l0 .7l-.9 0c0 0-.01 3.2 0 3.2c0 .3 0 .4 0 .5c.1.1.1.1.2.2c.1 0 .2.1.3.1c0 0 0 0 0 0zm1.3.7l0-5.4l.8 0c0 0 .05.77 0 .8c.4-.6 1-.9 1.8-.9c.3 0 .6 0 .9.2c.3.1.5.2.6.4c.1.2.2.4.3.7c0 .2 0 .5 0 .9c.04 0 0 3.3 0 3.3l-.9 0c0 0 .02-3.27 0-3.3c0-.3 0-.6-.1-.8c-.1-.2-.2-.3-.4-.5c-.2-.1-.4-.1-.6-.1c-.4 0-.7.1-1 .4c-.3.2-.5.7-.5 1.4c.04-.03 0 2.9 0 2.9l-.9 0zm9.6-1.7c0 0 .9.1.9.1c-.1.6-.4 1-.8 1.3c-.4.3-.9.5-1.6.5c-.8 0-1.4-.3-1.9-.8c-.4-.5-.7-1.1-.7-2c0-.9.3-1.7.8-2.2c.4-.5 1-.7 1.8-.7c.7 0 1.3.2 1.8.7c.4.5.7 1.2.7 2.1c0 .1 0 .1 0 .3c0 0-4.1 0-4.1 0c0 .6.2 1 .5 1.3c.3.3.7.5 1.1.5c.4 0 .7-.1.9-.3c.3-.1.4-.4.6-.8zm-3-1.5c0 0 3 0 3 0c0-.5-.2-.8-.4-1c-.2-.4-.6-.6-1.1-.6c-.4 0-.8.2-1.1.5c-.3.2-.4.6-.4 1.1zm5.1 3.2l0-5.4l.8 0c0 0 .02.82 0 .8c.2-.4.4-.6.6-.7c.2-.2.4-.2.6-.2c.3 0 .6.1.9.3c0 0-.3.8-.3.8c-.2-.1-.4-.2-.7-.2c-.2 0-.3.1-.5.2c-.2.1-.3.3-.3.5c-.1.3-.2.7-.2 1.1c.01-.01 0 2.8 0 2.8l-.9 0zm3.1-1.6c0 0 .9-.1.9-.1c.1.3.2.6.5.8c.2.2.5.3.9.3c.5 0 .8-.1 1-.3c.2-.1.3-.3.3-.6c0-.2-.1-.3-.3-.5c-.1 0-.4-.1-.9-.3c-.7-.1-1.2-.3-1.4-.4c-.3-.1-.5-.3-.6-.5c-.2-.2-.2-.5-.2-.8c0-.2 0-.4.1-.6c.2-.2.3-.4.5-.5c.1-.2.3-.2.6-.3c.2-.1.5-.1.8-.1c.4 0 .8 0 1.1.2c.3.1.6.3.7.5c.2.2.3.5.3.8c0 0-.9.1-.9.1c0-.3-.1-.5-.3-.6c-.2-.2-.5-.3-.9-.3c-.4 0-.7.1-.9.2c-.1.2-.2.3-.2.5c0 .2 0 .3.1.4c.1.1.2.1.3.2c.1 0 .4.1.9.2c.6.2 1.1.4 1.3.5c.3.1.5.2.6.5c.2.2.2.4.2.7c0 .4 0 .6-.2.9c-.2.3-.5.5-.8.6c-.3.2-.7.3-1.1.3c-.8 0-1.3-.2-1.7-.5c-.3-.3-.6-.7-.7-1.3zm5.6 1.6l0-7.5l1 0c0 0-.04 2.72 0 2.7c.4-.5.9-.7 1.6-.7c.4 0 .7.1 1 .2c.3.2.6.4.7.7c.1.3.2.7.2 1.2c-.02-.01 0 3.4 0 3.4l-.9 0c0 0-.05-3.41 0-3.4c0-.5-.1-.8-.3-1c-.2-.2-.5-.3-.9-.3c-.3 0-.5 0-.8.2c-.2.1-.4.3-.5.6c-.1.2-.1.5-.1 1c-.04-.03 0 2.9 0 2.9l-1 0zm5.9-6.4l0-1.1l.9 0l0 1.1l-.9 0zm0 6.4l0-5.4l.9 0l0 5.4l-.9 0zm2.3 2.1l0-7.5l.9 0c0 0-.04.71 0 .7c.2-.3.4-.5.6-.6c.3-.2.6-.2.9-.2c.5 0 .9.1 1.3.3c.3.3.6.6.8 1c.2.5.2 1 .2 1.5c0 .5-.1 1-.3 1.5c-.2.4-.4.8-.8 1c-.4.2-.8.4-1.2.4c-.3 0-.6-.1-.9-.2c-.2-.2-.4-.3-.6-.5c.04-.02 0 2.6 0 2.6l-.9 0zm.8-4.7c0 .7.2 1.2.5 1.5c.3.3.6.5 1 .5c.4 0 .8-.2 1.1-.5c.3-.4.4-.9.4-1.6c0-.7-.1-1.2-.4-1.6c-.3-.3-.7-.5-1.1-.5c-.3 0-.7.2-1 .6c-.3.3-.5.9-.5 1.6zm8.8 2.6l-.8 0l0-7.5l.9 0c0 0-.01 2.71 0 2.7c.4-.5.9-.7 1.5-.7c.3 0 .6 0 .9.2c.3.1.6.3.8.5c.2.3.3.6.4.9c.1.4.2.7.2 1.1c0 1-.2 1.7-.7 2.2c-.5.5-1 .8-1.7.8c-.6 0-1.1-.3-1.5-.8c.02-.04 0 .6 0 .6zm0-2.7c0 .6.1 1.1.3 1.4c.3.5.7.7 1.2.7c.4 0 .7-.2 1-.5c.3-.4.4-.9.4-1.6c0-.7-.1-1.2-.4-1.6c-.3-.3-.6-.5-1-.5c-.4 0-.8.2-1 .6c-.3.3-.5.8-.5 1.5zm8.7 1c0 0 1 .1 1 .1c-.2.6-.4 1-.8 1.3c-.5.3-1 .5-1.6.5c-.8 0-1.4-.3-1.9-.8c-.5-.5-.7-1.1-.7-2c0-.9.2-1.7.7-2.2c.5-.5 1.1-.7 1.8-.7c.8 0 1.4.2 1.8.7c.5.5.7 1.2.7 2.1c0 .1 0 .1 0 .3c0 0-4 0-4 0c0 .6.2 1 .5 1.3c.3.3.6.5 1.1.5c.3 0 .6-.1.9-.3c.2-.1.4-.4.5-.8zm-3-1.5c0 0 3 0 3 0c0-.5-.1-.8-.3-1c-.3-.4-.7-.6-1.1-.6c-.5 0-.8.2-1.1.5c-.3.2-.5.6-.5 1.1zm6.8 2.5c.1 0 .2-.1.4-.1c0 0 .1.8.1.8c-.3.1-.5.1-.7.1c-.3 0-.6 0-.8-.1c-.2-.1-.3-.3-.4-.5c0-.1-.1-.5-.1-1.1c.02.05 0-3.1 0-3.1l-.7 0l0-.7l.7 0l0-1.3l.9-.6l0 1.9l1 0l0 .7l-1 0c0 0 .04 3.2 0 3.2c0 .3.1.4.1.5c0 .1.1.1.1.2c.1 0 .2.1.4.1c0 0 0 0 0 0zm2.3.7l-1.7-5.4l1 0l.8 3.1c0 0 .35 1.21.3 1.2c.1 0 .2-.4.3-1.1c.03-.01.9-3.2.9-3.2l.9 0l.9 3.2l.2 1l.3-1.1l1-3.1l.9 0l-1.7 5.4l-1 0l-.9-3.2l-.2-.9l-1.1 4.1l-.9 0zm10.3-1.7c0 0 .9.1.9.1c-.1.6-.4 1-.8 1.3c-.4.3-.9.5-1.6.5c-.8 0-1.4-.3-1.9-.8c-.4-.5-.7-1.1-.7-2c0-.9.3-1.7.8-2.2c.4-.5 1-.7 1.8-.7c.7 0 1.3.2 1.8.7c.4.5.7 1.2.7 2.1c0 .1 0 .1 0 .3c0 0-4.1 0-4.1 0c0 .6.2 1 .5 1.3c.3.3.7.5 1.1.5c.4 0 .7-.1.9-.3c.2-.1.4-.4.6-.8zm-3.1-1.5c0 0 3.1 0 3.1 0c-.1-.5-.2-.8-.4-1c-.3-.4-.6-.6-1.1-.6c-.4 0-.8.2-1.1.5c-.3.2-.4.6-.5 1.1zm8.9 1.5c0 0 1 .1 1 .1c-.2.6-.5 1-.9 1.3c-.4.3-.9.5-1.5.5c-.8 0-1.5-.3-1.9-.8c-.5-.5-.7-1.1-.7-2c0-.9.2-1.7.7-2.2c.5-.5 1.1-.7 1.8-.7c.8 0 1.3.2 1.8.7c.5.5.7 1.2.7 2.1c0 .1 0 .1 0 .3c0 0-4.1 0-4.1 0c.1.6.2 1 .5 1.3c.3.3.7.5 1.2.5c.3 0 .6-.1.8-.3c.3-.1.5-.4.6-.8zm-3-1.5c0 0 3 0 3 0c0-.5-.1-.8-.3-1c-.3-.4-.7-.6-1.2-.6c-.4 0-.7.2-1 .5c-.3.2-.5.6-.5 1.1zm5.1 3.2l0-5.4l.9 0c0 0-.04.77 0 .8c.4-.6.9-.9 1.7-.9c.3 0 .6 0 .9.2c.3.1.5.2.6.4c.2.2.2.4.3.7c0 .2.1.5.1.9c-.05 0 0 3.3 0 3.3l-1 0c0 0 .03-3.27 0-3.3c0-.3 0-.6-.1-.8c0-.2-.2-.3-.4-.5c-.1-.1-.4-.1-.6-.1c-.4 0-.7.1-1 .4c-.3.2-.4.7-.4 1.4c-.05-.03 0 2.9 0 2.9l-1 0zm10.4-.7c.1 0 .2-.1.4-.1c0 0 .1.8.1.8c-.2.1-.5.1-.7.1c-.3 0-.6 0-.7-.1c-.2-.1-.4-.3-.4-.5c-.1-.1-.1-.5-.1-1.1c-.04.05 0-3.1 0-3.1l-.7 0l0-.7l.7 0l0-1.3l.9-.6l0 1.9l.9 0l0 .7l-.9 0c0 0-.03 3.2 0 3.2c0 .3 0 .4 0 .5c.1.1.1.1.2.2c.1 0 .2.1.3.1c0 0 0 0 0 0zm1.3.7l0-7.5l.9 0c0 0 .03 2.72 0 2.7c.5-.5 1-.7 1.7-.7c.4 0 .7.1 1 .2c.3.2.5.4.6.7c.2.3.2.7.2 1.2c.04-.01 0 3.4 0 3.4l-.9 0c0 0 .02-3.41 0-3.4c0-.5-.1-.8-.3-1c-.2-.2-.5-.3-.8-.3c-.3 0-.6 0-.8.2c-.2.1-.4.3-.5.6c-.1.2-.2.5-.2 1c.03-.03 0 2.9 0 2.9l-.9 0zm9.6-1.7c0 0 .9.1.9.1c-.1.6-.4 1-.8 1.3c-.4.3-.9.5-1.6.5c-.8 0-1.4-.3-1.9-.8c-.4-.5-.7-1.1-.7-2c0-.9.3-1.7.7-2.2c.5-.5 1.1-.7 1.9-.7c.7 0 1.3.2 1.8.7c.4.5.7 1.2.7 2.1c0 .1 0 .1-.1.3c0 0-4 0-4 0c0 .6.2 1 .5 1.3c.3.3.7.5 1.1.5c.4 0 .7-.1.9-.3c.2-.1.4-.4.6-.8zm-3.1-1.5c0 0 3.1 0 3.1 0c-.1-.5-.2-.8-.4-1c-.3-.4-.6-.6-1.1-.6c-.4 0-.8.2-1.1.5c-.3.2-.4.6-.5 1.1zm8.2 3.2l0-7.5l1.5 0c0 0 1.76 5.35 1.8 5.3c.1.5.2.9.3 1.2c.1-.3.2-.7.4-1.2c.02-.04 1.8-5.3 1.8-5.3l1.4 0l0 7.5l-1 0l0-6.2l-2.2 6.2l-.9 0l-2.2-6.4l0 6.4l-.9 0zm12.4 0c-.1-.1-.2-.4-.2-.6c-.3.3-.7.5-1 .6c-.3.1-.6.2-1 .2c-.6 0-1.1-.2-1.4-.5c-.3-.3-.5-.6-.5-1.1c0-.3.1-.5.2-.7c.1-.2.3-.4.5-.6c.2-.1.4-.2.7-.3c.1 0 .4 0 .8-.1c.7-.1 1.3-.2 1.6-.3c0-.1 0-.2 0-.3c0-.3-.1-.6-.2-.7c-.3-.3-.6-.4-1.1-.4c-.4 0-.7.1-.9.3c-.3.1-.4.4-.5.8c0 0-.9-.1-.9-.1c.1-.4.2-.7.4-1c.2-.2.5-.4.8-.5c.4-.2.8-.2 1.2-.2c.5 0 .9 0 1.2.1c.3.1.5.3.6.5c.2.1.3.3.3.6c0 .1.1.4.1.8c0 0 0 1.3 0 1.3c0 .8 0 1.4 0 1.6c.1.2.1.4.2.6c.05.04-.9 0-.9 0c0 0-.02.04 0 0zm-.3-2.7c-.3.1-.8.3-1.5.4c-.4 0-.6.1-.8.1c-.1.1-.3.2-.4.3c0 .2-.1.3-.1.5c0 .2.1.4.3.6c.2.2.5.2.8.2c.4 0 .7 0 1-.2c.2-.1.4-.4.6-.6c.1-.2.1-.5.1-1c0 0 0-.3 0-.3zm2.9 5c-.1 0-.3-.1-.6-.2c0 0-.1-.8-.1-.8c.2 0 .4.1.6.1c.2 0 .3-.1.5-.1c.1-.1.2-.2.3-.3c0-.1.1-.4.2-.7c.1-.1.1-.1.1-.2c.03-.05-2-5.5-2-5.5l1 0c0 0 1.09 3.15 1.1 3.2c.1.4.3.8.4 1.2c.1-.4.2-.8.4-1.2c-.03-.03 1.1-3.2 1.1-3.2l1 0c0 0-2.12 5.54-2.1 5.5c-.2.6-.4 1-.5 1.3c-.2.3-.4.5-.6.6c-.2.2-.5.3-.8.3c0 0 0 0 0 0zm4.4-5c0-1 .3-1.7.8-2.2c.5-.4 1.1-.6 1.7-.6c.8 0 1.4.2 1.9.7c.5.5.7 1.2.7 2c0 .7-.1 1.3-.3 1.7c-.2.4-.5.7-.9.9c-.4.3-.9.4-1.4.4c-.7 0-1.3-.3-1.8-.8c-.5-.5-.7-1.2-.7-2.1zm.9 0c0 .7.2 1.2.5 1.6c.3.3.7.5 1.1.5c.5 0 .9-.2 1.2-.5c.3-.4.4-.9.4-1.6c0-.7-.1-1.2-.4-1.5c-.3-.4-.7-.6-1.2-.6c-.4 0-.8.2-1.1.6c-.3.3-.5.8-.5 1.5zm5.3 2.7l0-5.4l.8 0c0 0 0 .82 0 .8c.2-.4.4-.6.6-.7c.2-.2.4-.2.6-.2c.3 0 .6.1.9.3c0 0-.3.8-.3.8c-.2-.1-.4-.2-.7-.2c-.2 0-.4.1-.5.2c-.2.1-.3.3-.4.5c-.1.3-.1.7-.1 1.1c-.01-.01 0 2.8 0 2.8l-.9 0zm3.8-6.5l0-1l1 0c0 0 0 .8 0 .8c0 .5-.1.8-.2 1c-.1.3-.3.5-.7.6c0 0-.2-.4-.2-.4c.2 0 .3-.1.4-.3c.1-.2.2-.4.2-.7c-.01.02-.5 0-.5 0zm1.8 4.9c0 0 .9-.1.9-.1c.1.3.2.6.5.8c.2.2.5.3 1 .3c.4 0 .7-.1.9-.3c.2-.1.3-.3.3-.6c0-.2-.1-.3-.3-.5c-.1 0-.4-.1-.9-.3c-.7-.1-1.2-.3-1.4-.4c-.3-.1-.5-.3-.6-.5c-.1-.2-.2-.5-.2-.8c0-.2 0-.4.2-.6c.1-.2.2-.4.4-.5c.2-.2.3-.2.6-.3c.2-.1.5-.1.8-.1c.4 0 .8 0 1.1.2c.3.1.6.3.7.5c.2.2.3.5.4.8c0 0-.9.1-.9.1c-.1-.3-.2-.5-.4-.6c-.2-.2-.5-.3-.8-.3c-.5 0-.8.1-.9.2c-.2.2-.3.3-.3.5c0 .2 0 .3.1.4c.1.1.2.1.3.2c.1 0 .4.1.9.2c.6.2 1.1.4 1.3.5c.3.1.5.2.6.5c.2.2.3.4.3.7c0 .4-.1.6-.3.9c-.2.3-.4.5-.8.6c-.3.2-.7.3-1.1.3c-.7 0-1.3-.2-1.7-.5c-.3-.3-.6-.7-.7-1.3zm8.4-2c0-1.3.3-2.2 1-2.9c.7-.8 1.5-1.1 2.6-1.1c.7 0 1.3.2 1.9.5c.5.3.9.8 1.2 1.4c.3.6.5 1.2.5 2c0 .8-.2 1.4-.5 2c-.3.6-.7 1.1-1.3 1.4c-.6.3-1.2.5-1.8.5c-.7 0-1.4-.2-1.9-.5c-.6-.4-1-.8-1.3-1.4c-.3-.6-.4-1.3-.4-1.9zm1 0c0 .9.3 1.6.7 2.1c.5.6 1.1.8 1.9.8c.7 0 1.3-.2 1.8-.8c.5-.5.8-1.2.8-2.2c0-.6-.2-1.2-.4-1.6c-.2-.5-.5-.8-.9-1.1c-.4-.2-.8-.3-1.3-.3c-.7 0-1.3.2-1.8.7c-.5.5-.8 1.3-.8 2.4zm7.6 3.6l0-4.7l-.9 0l0-.7l.9 0c0 0-.04-.58 0-.6c0-.3 0-.6.1-.8c0-.2.2-.4.4-.6c.3-.1.6-.2 1-.2c.2 0 .5 0 .8.1c0 0-.1.8-.1.8c-.2 0-.4-.1-.6-.1c-.2 0-.4.1-.5.2c-.2.1-.2.4-.2.7c-.02 0 0 .5 0 .5l1 0l0 .7l-1 0l0 4.7l-.9 0zm2.9 0l0-4.7l-.8 0l0-.7l.8 0c0 0 0-.53 0-.5c0-.6.1-1 .4-1.3c.2-.3.6-.4 1.1-.4c.3 0 .6 0 .9.1c0 0-.2.8-.2.8c-.1 0-.3 0-.4 0c-.4 0-.6 0-.7.1c-.1.2-.2.4-.2.8c.03.05 0 .4 0 .4l1.1 0l0 .7l-1.1 0l0 4.7l-.9 0zm2.7-6.4l0-1.1l.9 0l0 1.1l-.9 0zm0 6.4l0-5.4l.9 0l0 5.4l-.9 0zm5.9-2c0 0 .9.2.9.2c-.1.6-.4 1.1-.8 1.4c-.4.4-.9.6-1.5.6c-.7 0-1.3-.3-1.8-.8c-.4-.5-.7-1.1-.7-2.1c0-.5.1-1.1.3-1.5c.2-.4.5-.8.9-1c.4-.2.8-.3 1.3-.3c.6 0 1.1.1 1.5.4c.3.3.6.7.7 1.3c0 0-.9.1-.9.1c-.1-.3-.3-.6-.5-.8c-.2-.2-.5-.3-.8-.3c-.4 0-.8.2-1.1.5c-.3.4-.4.9-.4 1.6c0 .7.1 1.3.4 1.6c.3.3.6.5 1.1.5c.4 0 .7-.1.9-.3c.2-.2.4-.6.5-1.1zm5.4.3c0 0 .9.1.9.1c-.1.6-.4 1-.8 1.3c-.4.3-.9.5-1.6.5c-.8 0-1.4-.3-1.9-.8c-.4-.5-.7-1.1-.7-2c0-.9.3-1.7.8-2.2c.4-.5 1-.7 1.8-.7c.7 0 1.3.2 1.8.7c.4.5.7 1.2.7 2.1c0 .1 0 .1 0 .3c0 0-4.1 0-4.1 0c0 .6.2 1 .5 1.3c.3.3.7.5 1.1.5c.4 0 .7-.1.9-.3c.3-.1.4-.4.6-.8zm-3-1.5c0 0 3 0 3 0c0-.5-.2-.8-.4-1c-.2-.4-.6-.6-1.1-.6c-.4 0-.8.2-1.1.5c-.3.2-.4.6-.4 1.1zm7.7.5c0-1 .3-1.7.8-2.2c.5-.4 1-.6 1.7-.6c.8 0 1.4.2 1.9.7c.4.5.7 1.2.7 2c0 .7-.1 1.3-.3 1.7c-.3.4-.6.7-1 .9c-.4.3-.8.4-1.3.4c-.7 0-1.4-.3-1.8-.8c-.5-.5-.7-1.2-.7-2.1zm.9 0c0 .7.2 1.2.5 1.6c.3.3.7.5 1.1.5c.5 0 .9-.2 1.2-.5c.3-.4.4-.9.4-1.6c0-.7-.1-1.2-.4-1.5c-.3-.4-.7-.6-1.2-.6c-.4 0-.8.2-1.1.6c-.3.3-.5.8-.5 1.5zm5.5 2.7l0-4.7l-.8 0l0-.7l.8 0c0 0-.03-.58 0-.6c0-.3 0-.6.1-.8c.1-.2.2-.4.4-.6c.3-.1.6-.2 1-.2c.2 0 .5 0 .8.1c0 0-.1.8-.1.8c-.2 0-.4-.1-.5-.1c-.3 0-.5.1-.6.2c-.2.1-.2.4-.2.7c-.01 0 0 .5 0 .5l1.1 0l0 .7l-1.1 0l0 4.7l-.9 0zm5.4-2.4c0 0 .9-.1.9-.1c0 .4.2.7.3 1c.2.2.4.4.8.6c.3.1.7.2 1.1.2c.4 0 .7-.1 1-.2c.3-.1.5-.3.7-.5c.1-.1.2-.4.2-.6c0-.2-.1-.4-.2-.6c-.2-.2-.4-.3-.7-.5c-.2 0-.6-.2-1.3-.3c-.7-.2-1.2-.3-1.5-.5c-.3-.2-.6-.4-.8-.7c-.2-.3-.2-.6-.2-.9c0-.4.1-.8.3-1.1c.2-.3.5-.6.9-.7c.4-.2.9-.3 1.4-.3c.6 0 1 .1 1.5.3c.4.1.7.4 1 .8c.2.3.3.7.3 1.1c0 0-.9.1-.9.1c-.1-.5-.3-.8-.5-1.1c-.3-.2-.8-.3-1.4-.3c-.6 0-1 .1-1.3.3c-.2.2-.4.5-.4.8c0 .3.1.5.3.7c.2.1.7.3 1.5.5c.8.2 1.4.3 1.7.5c.4.2.7.4.9.8c.2.3.4.6.4 1c0 .4-.2.8-.4 1.2c-.2.3-.6.6-1 .8c-.4.2-.9.3-1.4.3c-.7 0-1.3-.1-1.7-.3c-.5-.2-.9-.5-1.1-.9c-.3-.4-.4-.9-.4-1.4zm10.8 2.4c0 0-.04-.76 0-.8c-.5.7-1 1-1.8 1c-.3 0-.6-.1-.9-.2c-.2-.1-.5-.3-.6-.5c-.1-.2-.2-.4-.3-.7c0-.1 0-.4 0-.8c-.03-.03 0-3.4 0-3.4l.9 0c0 0-.01 3.02 0 3c0 .5 0 .8 0 1c.1.2.2.4.4.6c.2.1.4.2.7.2c.3 0 .6-.1.8-.2c.2-.2.4-.4.5-.6c.1-.3.2-.6.2-1.1c-.04.02 0-2.9 0-2.9l.9 0l0 5.4l-.8 0zm1.9-1.6c0 0 .9-.1.9-.1c0 .3.2.6.4.8c.2.2.6.3 1 .3c.4 0 .7-.1.9-.3c.2-.1.3-.3.3-.6c0-.2-.1-.3-.2-.5c-.2 0-.5-.1-1-.3c-.7-.1-1.1-.3-1.4-.4c-.2-.1-.4-.3-.6-.5c-.1-.2-.2-.5-.2-.8c0-.2.1-.4.2-.6c.1-.2.2-.4.4-.5c.2-.2.4-.2.6-.3c.3-.1.5-.1.8-.1c.4 0 .8 0 1.1.2c.4.1.6.3.8.5c.1.2.2.5.3.8c0 0-.9.1-.9.1c-.1-.3-.2-.5-.4-.6c-.2-.2-.5-.3-.8-.3c-.4 0-.7.1-.9.2c-.2.2-.3.3-.3.5c0 .2 0 .3.1.4c.1.1.2.1.4.2c.1 0 .3.1.8.2c.6.2 1.1.4 1.4.5c.2.1.4.2.6.5c.1.2.2.4.2.7c0 .4-.1.6-.3.9c-.2.3-.4.5-.8.6c-.3.2-.7.3-1.1.3c-.7 0-1.3-.2-1.6-.5c-.4-.3-.6-.7-.7-1.3zm7.2.9c.1 0 .2-.1.4-.1c0 0 .1.8.1.8c-.2.1-.5.1-.7.1c-.3 0-.6 0-.7-.1c-.2-.1-.4-.3-.4-.5c-.1-.1-.2-.5-.2-1.1c.05.05 0-3.1 0-3.1l-.6 0l0-.7l.6 0l0-1.3l1-.6l0 1.9l.9 0l0 .7l-.9 0c0 0-.03 3.2 0 3.2c0 .3 0 .4 0 .5c0 .1.1.1.2.2c0 0 .2.1.3.1c0 0 0 0 0 0zm5 .7c-.1-.1-.1-.4-.1-.6c-.4.3-.7.5-1 .6c-.4.1-.7.2-1.1.2c-.6 0-1-.2-1.3-.5c-.4-.3-.5-.6-.5-1.1c0-.3 0-.5.2-.7c.1-.2.2-.4.4-.6c.2-.1.5-.2.7-.3c.2 0 .5 0 .8-.1c.8-.1 1.3-.2 1.7-.3c0-.1 0-.2 0-.3c0-.3-.1-.6-.3-.7c-.2-.3-.6-.4-1-.4c-.5 0-.8.1-1 .3c-.2.1-.4.4-.5.8c0 0-.9-.1-.9-.1c.1-.4.3-.7.4-1c.2-.2.5-.4.9-.5c.3-.2.7-.2 1.2-.2c.5 0 .8 0 1.1.1c.3.1.5.3.7.5c.1.1.2.3.3.6c0 .1 0 .4 0 .8c0 0 0 1.3 0 1.3c0 .8 0 1.4.1 1.6c0 .2.1.4.2.6c0 .04-1 0-1 0c0 0 .04.04 0 0zm-.2-2.7c-.4.1-.9.3-1.5.4c-.4 0-.7.1-.8.1c-.2.1-.3.2-.4.3c-.1.2-.1.3-.1.5c0 .2.1.4.2.6c.2.2.5.2.9.2c.3 0 .6 0 .9-.2c.3-.1.5-.4.6-.6c.1-.2.2-.5.2-1c0 0 0-.3 0-.3zm2.3-3.7l0-1.1l1 0l0 1.1l-1 0zm0 6.4l0-5.4l1 0l0 5.4l-1 0zm2.4 0l0-5.4l.8 0c0 0 0 .77 0 .8c.4-.6 1-.9 1.7-.9c.4 0 .7 0 .9.2c.3.1.5.2.7.4c.1.2.2.4.2.7c.1.2.1.5.1.9c-.01 0 0 3.3 0 3.3l-.9 0c0 0-.03-3.27 0-3.3c0-.3-.1-.6-.1-.8c-.1-.2-.2-.3-.4-.5c-.2-.1-.4-.1-.7-.1c-.4 0-.7.1-1 .4c-.3.2-.4.7-.4 1.4c-.01-.03 0 2.9 0 2.9l-.9 0zm9.5 0c0-.1-.1-.4-.1-.6c-.4.3-.7.5-1 .6c-.3.1-.7.2-1 .2c-.6 0-1.1-.2-1.4-.5c-.3-.3-.5-.6-.5-1.1c0-.3.1-.5.2-.7c.1-.2.3-.4.5-.6c.2-.1.4-.2.6-.3c.2 0 .5 0 .8-.1c.8-.1 1.3-.2 1.7-.3c0-.1 0-.2 0-.3c0-.3-.1-.6-.3-.7c-.2-.3-.6-.4-1-.4c-.5 0-.8.1-1 .3c-.2.1-.3.4-.4.8c0 0-.9-.1-.9-.1c0-.4.2-.7.4-1c.1-.2.4-.4.8-.5c.3-.2.7-.2 1.2-.2c.5 0 .9 0 1.1.1c.3.1.5.3.7.5c.1.1.2.3.3.6c0 .1 0 .4 0 .8c0 0 0 1.3 0 1.3c0 .8 0 1.4.1 1.6c0 .2.1.4.2.6c.01.04-1 0-1 0c0 0 .05.04 0 0zm-.2-2.7c-.3.1-.9.3-1.5.4c-.4 0-.7.1-.8.1c-.2.1-.3.2-.4.3c-.1.2-.1.3-.1.5c0 .2.1.4.3.6c.1.2.4.2.8.2c.3 0 .7 0 .9-.2c.3-.1.5-.4.6-.6c.1-.2.2-.5.2-1c0 0 0-.3 0-.3zm3.2 2.7l-.9 0l0-7.5l1 0c0 0-.03 2.71 0 2.7c.4-.5.9-.7 1.5-.7c.3 0 .6 0 .9.2c.3.1.6.3.7.5c.2.3.4.6.5.9c.1.4.2.7.2 1.1c0 1-.3 1.7-.7 2.2c-.5.5-1 .8-1.7.8c-.6 0-1.1-.3-1.5-.8c0-.04 0 .6 0 .6zm0-2.7c0 .6.1 1.1.3 1.4c.2.5.6.7 1.1.7c.4 0 .8-.2 1.1-.5c.3-.4.4-.9.4-1.6c0-.7-.1-1.2-.4-1.6c-.3-.3-.6-.5-1-.5c-.4 0-.8.2-1.1.6c-.3.3-.4.8-.4 1.5zm5-3.7l0-1.1l.9 0l0 1.1l-.9 0zm0 6.4l0-5.4l.9 0l0 5.4l-.9 0zm2.3 0l0-7.5l.9 0l0 7.5l-.9 0zm2.4-6.4l0-1.1l.9 0l0 1.1l-.9 0zm0 6.4l0-5.4l.9 0l0 5.4l-.9 0zm3.9-.7c.1 0 .2-.1.4-.1c0 0 .1.8.1.8c-.2.1-.5.1-.7.1c-.3 0-.6 0-.7-.1c-.2-.1-.4-.3-.4-.5c-.1-.1-.1-.5-.1-1.1c-.04.05 0-3.1 0-3.1l-.7 0l0-.7l.7 0l0-1.3l.9-.6l0 1.9l.9 0l0 .7l-.9 0c0 0-.03 3.2 0 3.2c0 .3 0 .4 0 .5c.1.1.1.1.2.2c.1 0 .2.1.3.1c0 0 0 0 0 0zm1.9 3c-.2 0-.4-.1-.6-.2c0 0-.1-.8-.1-.8c.2 0 .3.1.5.1c.2 0 .4-.1.5-.1c.1-.1.2-.2.3-.3c0-.1.1-.4.3-.7c0-.1 0-.1 0-.2c.05-.05-2-5.5-2-5.5l1 0c0 0 1.11 3.15 1.1 3.2c.2.4.3.8.4 1.2c.1-.4.2-.8.4-1.2c-.02-.03 1.1-3.2 1.1-3.2l1 0c0 0-2.1 5.54-2.1 5.5c-.2.6-.4 1-.5 1.3c-.2.3-.4.5-.6.6c-.2.2-.4.3-.7.3c0 0 0 0 0 0zm11.3-2.3c-.1-.1-.1-.4-.2-.6c-.3.3-.6.5-1 .6c-.3.1-.6.2-1 .2c-.6 0-1-.2-1.4-.5c-.3-.3-.4-.6-.4-1.1c0-.3 0-.5.1-.7c.2-.2.3-.4.5-.6c.2-.1.4-.2.7-.3c.2 0 .4 0 .8-.1c.7-.1 1.3-.2 1.6-.3c.1-.1.1-.2.1-.3c0-.3-.1-.6-.3-.7c-.2-.3-.6-.4-1.1-.4c-.4 0-.7.1-.9.3c-.2.1-.4.4-.5.8c0 0-.9-.1-.9-.1c.1-.4.2-.7.4-1c.2-.2.5-.4.8-.5c.4-.2.8-.2 1.3-.2c.4 0 .8 0 1.1.1c.3.1.5.3.6.5c.2.1.3.3.3.6c.1.1.1.4.1.8c0 0 0 1.3 0 1.3c0 .8 0 1.4 0 1.6c.1.2.2.4.3.6c-.03.04-1 0-1 0c0 0 .01.04 0 0zm-.3-2.7c-.3.1-.8.3-1.5.4c-.3 0-.6.1-.8.1c-.1.1-.2.2-.3.3c-.1.2-.2.3-.2.5c0 .2.1.4.3.6c.2.2.5.2.8.2c.4 0 .7 0 1-.2c.3-.1.5-.4.6-.6c.1-.2.1-.5.1-1c0 0 0-.3 0-.3zm2.4 2.7l0-5.4l.8 0c0 0 .04.77 0 .8c.4-.6 1-.9 1.8-.9c.3 0 .6 0 .9.2c.3.1.5.2.6.4c.1.2.2.4.3.7c0 .2 0 .5 0 .9c.04 0 0 3.3 0 3.3l-.9 0c0 0 .01-3.27 0-3.3c0-.3 0-.6-.1-.8c-.1-.2-.2-.3-.4-.5c-.2-.1-.4-.1-.6-.1c-.4 0-.8.1-1 .4c-.3.2-.5.7-.5 1.4c.03-.03 0 2.9 0 2.9l-.9 0zm9.4 0c0 0-.02-.64 0-.6c-.4.5-.9.8-1.5.8c-.5 0-.9-.2-1.2-.4c-.4-.2-.7-.6-.9-1c-.2-.4-.3-.9-.3-1.5c0-.5.1-1 .3-1.5c.2-.4.4-.7.8-1c.4-.2.8-.3 1.2-.3c.3 0 .6 0 .9.2c.3.1.5.3.6.5c.02.02 0-2.7 0-2.7l.9 0l0 7.5l-.8 0zm-2.9-2.7c0 .7.1 1.2.4 1.6c.3.3.6.5 1 .5c.5 0 .8-.2 1.1-.5c.3-.3.4-.8.4-1.5c0-.7-.1-1.3-.4-1.6c-.3-.4-.7-.6-1.1-.6c-.4 0-.7.2-1 .5c-.3.4-.4.9-.4 1.6zm8.1 2.7l0-7.5l.9 0l0 7.5l-.9 0zm6.1-1.7c0 0 .9.1.9.1c-.1.6-.4 1-.8 1.3c-.4.3-.9.5-1.6.5c-.8 0-1.4-.3-1.9-.8c-.4-.5-.7-1.1-.7-2c0-.9.3-1.7.7-2.2c.5-.5 1.1-.7 1.9-.7c.7 0 1.3.2 1.8.7c.4.5.7 1.2.7 2.1c0 .1 0 .1-.1.3c0 0-4 0-4 0c0 .6.2 1 .5 1.3c.3.3.7.5 1.1.5c.4 0 .7-.1.9-.3c.2-.1.4-.4.6-.8zm-3.1-1.5c0 0 3.1 0 3.1 0c-.1-.5-.2-.8-.4-1c-.3-.4-.6-.6-1.1-.6c-.4 0-.8.2-1.1.5c-.3.2-.4.6-.5 1.1zm8.9 3.2c-.1-.1-.1-.4-.2-.6c-.3.3-.6.5-1 .6c-.3.1-.6.2-1 .2c-.6 0-1-.2-1.4-.5c-.3-.3-.4-.6-.4-1.1c0-.3 0-.5.1-.7c.2-.2.3-.4.5-.6c.2-.1.4-.2.7-.3c.2 0 .4 0 .8-.1c.8-.1 1.3-.2 1.7-.3c0-.1 0-.2 0-.3c0-.3-.1-.6-.3-.7c-.2-.3-.6-.4-1.1-.4c-.4 0-.7.1-.9.3c-.2.1-.4.4-.5.8c0 0-.9-.1-.9-.1c.1-.4.2-.7.4-1c.2-.2.5-.4.8-.5c.4-.2.8-.2 1.3-.2c.4 0 .8 0 1.1.1c.3.1.5.3.7.5c.1.1.2.3.2.6c.1.1.1.4.1.8c0 0 0 1.3 0 1.3c0 .8 0 1.4 0 1.6c.1.2.2.4.3.6c-.02.04-1 0-1 0c0 0 .02.04 0 0zm-.2-2.7c-.4.1-.9.3-1.6.4c-.3 0-.6.1-.8.1c-.1.1-.2.2-.3.3c-.1.2-.1.3-.1.5c0 .2 0 .4.2.6c.2.2.5.2.8.2c.4 0 .7 0 1-.2c.3-.1.5-.4.6-.6c.1-.2.2-.5.2-1c0 0 0-.3 0-.3zm5.9 2.7c0 0-.05-.64 0-.6c-.4.5-.9.8-1.6.8c-.4 0-.8-.2-1.2-.4c-.3-.2-.6-.6-.8-1c-.2-.4-.3-.9-.3-1.5c0-.5.1-1 .3-1.5c.1-.4.4-.7.8-1c.3-.2.7-.3 1.2-.3c.3 0 .6 0 .9.2c.2.1.4.3.6.5c-.01.02 0-2.7 0-2.7l.9 0l0 7.5l-.8 0zm-3-2.7c0 .7.2 1.2.5 1.6c.3.3.6.5 1 .5c.4 0 .8-.2 1-.5c.3-.3.5-.8.5-1.5c0-.7-.2-1.3-.5-1.6c-.3-.4-.6-.6-1-.6c-.4 0-.8.2-1.1.5c-.2.4-.4.9-.4 1.6zm9 1c0 0 .9.1.9.1c-.1.6-.4 1-.8 1.3c-.4.3-.9.5-1.6.5c-.8 0-1.4-.3-1.8-.8c-.5-.5-.7-1.1-.7-2c0-.9.2-1.7.7-2.2c.4-.5 1-.7 1.8-.7c.7 0 1.3.2 1.8.7c.4.5.7 1.2.7 2.1c0 .1 0 .1 0 .3c0 0-4.1 0-4.1 0c0 .6.2 1 .5 1.3c.3.3.7.5 1.2.5c.3 0 .6-.1.8-.3c.3-.1.4-.4.6-.8zm-3-1.5c0 0 3 0 3 0c0-.5-.2-.8-.4-1c-.2-.4-.6-.6-1.1-.6c-.4 0-.8.2-1.1.5c-.3.2-.4.6-.4 1.1zm5.1 3.2l0-5.4l.8 0c0 0 .02.82 0 .8c.2-.4.4-.6.6-.7c.2-.2.4-.2.6-.2c.3 0 .6.1.9.3c0 0-.3.8-.3.8c-.2-.1-.4-.2-.6-.2c-.2 0-.4.1-.6.2c-.2.1-.3.3-.3.5c-.1.3-.2.7-.2 1.1c.01-.01 0 2.8 0 2.8l-.9 0zm3.1-1.6c0 0 .9-.1.9-.1c.1.3.2.6.5.8c.2.2.5.3.9.3c.5 0 .8-.1 1-.3c.2-.1.3-.3.3-.6c0-.2-.1-.3-.3-.5c-.1 0-.4-.1-.9-.3c-.7-.1-1.2-.3-1.4-.4c-.3-.1-.5-.3-.6-.5c-.2-.2-.2-.5-.2-.8c0-.2 0-.4.1-.6c.2-.2.3-.4.5-.5c.1-.2.3-.2.6-.3c.2-.1.5-.1.8-.1c.4 0 .8 0 1.1.2c.3.1.6.3.7.5c.2.2.3.5.3.8c0 0-.9.1-.9.1c0-.3-.1-.5-.3-.6c-.2-.2-.5-.3-.8-.3c-.5 0-.8.1-1 .2c-.1.2-.2.3-.2.5c0 .2 0 .3.1.4c.1.1.2.1.3.2c.1 0 .4.1.9.2c.6.2 1.1.4 1.3.5c.3.1.5.2.6.5c.2.2.2.4.2.7c0 .4 0 .6-.2.9c-.2.3-.5.5-.8.6c-.3.2-.7.3-1.1.3c-.8 0-1.3-.2-1.7-.5c-.3-.3-.6-.7-.7-1.3zm8.6-4.8l0-1.1l.9 0l0 1.1l-.9 0zm0 6.4l0-5.4l.9 0l0 5.4l-.9 0zm2.3 0l0-5.4l.8 0c0 0 .03.77 0 .8c.4-.6 1-.9 1.8-.9c.3 0 .6 0 .9.2c.2.1.4.2.6.4c.1.2.2.4.3.7c0 .2 0 .5 0 .9c.02 0 0 3.3 0 3.3l-.9 0c0 0 0-3.27 0-3.3c0-.3 0-.6-.1-.8c-.1-.2-.2-.3-.4-.5c-.2-.1-.4-.1-.6-.1c-.4 0-.8.1-1.1.4c-.2.2-.4.7-.4 1.4c.02-.03 0 2.9 0 2.9l-.9 0z" stroke="none" fill="#ffffff"/></g><g id="Polygon68856"><path d="m1 7.6l0-7.5l1 0l0 7.5l-1 0zm2.6 0l0-5.4l.8 0c0 0 .04.77 0 .8c.4-.6 1-.9 1.8-.9c.3 0 .6 0 .9.2c.3.1.5.2.6.4c.1.2.2.4.3.7c0 .2 0 .5 0 .9c.03 0 0 3.3 0 3.3l-.9 0c0 0 .01-3.27 0-3.3c0-.3 0-.6-.1-.8c-.1-.2-.2-.3-.4-.5c-.2-.1-.4-.1-.6-.1c-.4 0-.8.1-1 .4c-.3.2-.5.7-.5 1.4c.03-.03 0 2.9 0 2.9l-.9 0zm9 0l0-4.7l-.8 0l0-.7l.8 0c0 0-.01-.58 0-.6c0-.3 0-.6.1-.8c.1-.2.2-.4.5-.6c.2-.1.5-.2.9-.2c.3 0 .5 0 .9.1c0 0-.2.8-.2.8c-.2 0-.4-.1-.5-.1c-.3 0-.5.1-.6.2c-.1.1-.2.4-.2.7c0 0 0 .5 0 .5l1.1 0l0 .7l-1.1 0l0 4.7l-.9 0zm6.4 0c-.1-.1-.1-.4-.2-.6c-.3.3-.6.5-1 .6c-.3.1-.6.2-1 .2c-.6 0-1-.2-1.3-.5c-.4-.3-.5-.6-.5-1.1c0-.3 0-.5.2-.7c.1-.2.2-.4.4-.6c.2-.1.4-.2.7-.3c.2 0 .4 0 .8-.1c.8-.1 1.3-.2 1.7-.3c0-.1 0-.2 0-.3c0-.3-.1-.6-.3-.7c-.2-.3-.6-.4-1-.4c-.5 0-.8.1-1 .3c-.2.1-.4.4-.5.8c0 0-.9-.1-.9-.1c.1-.4.2-.7.4-1c.2-.2.5-.4.8-.5c.4-.2.8-.2 1.3-.2c.5 0 .8 0 1.1.1c.3.1.5.3.7.5c.1.1.2.3.2.6c.1.1.1.4.1.8c0 0 0 1.3 0 1.3c0 .8 0 1.4.1 1.6c0 .2.1.4.2.6c-.02.04-1 0-1 0c0 0 .02.04 0 0zm-.2-2.7c-.4.1-.9.3-1.5.4c-.4 0-.7.1-.9.1c-.1.1-.2.2-.3.3c-.1.2-.1.3-.1.5c0 .2 0 .4.2.6c.2.2.5.2.9.2c.3 0 .6 0 .9-.2c.3-.1.5-.4.6-.6c.1-.2.2-.5.2-1c0 0 0-.3 0-.3zm2.3 2.7l0-7.5l.9 0l0 7.5l-.9 0zm2.3 0l0-7.5l1 0l0 7.5l-1 0zm9.9-.8l0 .8c0 0-4.97.04-5 0c0-.2.1-.4.1-.6c.2-.3.4-.7.6-1c.3-.3.7-.7 1.3-1.1c.8-.7 1.3-1.2 1.6-1.6c.3-.4.4-.8.4-1.1c0-.4-.1-.7-.4-1c-.2-.2-.6-.3-1-.3c-.4 0-.8.1-1 .4c-.3.2-.4.6-.4 1.1c0 0-1-.1-1-.1c.1-.7.3-1.3.7-1.6c.5-.4 1-.6 1.7-.6c.8 0 1.3.2 1.8.6c.4.4.6.9.6 1.5c0 .3-.1.6-.2.9c-.1.3-.3.6-.6.9c-.3.3-.8.8-1.4 1.3c-.6.5-.9.8-1.1 1c-.2.1-.3.3-.4.5c.01-.04 3.7 0 3.7 0zm1.7.2c-.5-.6-.7-1.7-.7-3.1c0-.9.1-1.6.3-2.1c.1-.5.4-1 .8-1.3c.3-.3.8-.4 1.3-.4c.4 0 .8.1 1.1.2c.3.2.6.4.8.7c.2.3.3.7.4 1.2c.1.4.2 1 .2 1.7c0 .9-.1 1.6-.3 2.2c-.2.5-.4.9-.8 1.2c-.4.3-.8.5-1.4.5c-.7 0-1.3-.3-1.7-.8c0 0 0 0 0 0zm.7-5.6c-.3.5-.5 1.3-.5 2.5c0 1.3.2 2.1.5 2.5c.3.4.6.6 1 .6c.5 0 .8-.2 1.1-.6c.3-.4.4-1.2.4-2.5c0-1.2-.1-2-.4-2.4c-.3-.4-.6-.6-1.1-.6c-.4 0-.7.1-1 .5c0 0 0 0 0 0zm9.3 5.4l0 .8c0 0-4.99.04-5 0c0-.2 0-.4.1-.6c.1-.3.3-.7.6-1c.3-.3.7-.7 1.2-1.1c.9-.7 1.4-1.2 1.7-1.6c.3-.4.4-.8.4-1.1c0-.4-.1-.7-.4-1c-.2-.2-.6-.3-1-.3c-.4 0-.8.1-1.1.4c-.2.2-.4.6-.4 1.1c0 0-.9-.1-.9-.1c0-.7.3-1.3.7-1.6c.4-.4 1-.6 1.7-.6c.7 0 1.3.2 1.7.6c.5.4.7.9.7 1.5c0 .3-.1.6-.2.9c-.1.3-.3.6-.6.9c-.3.3-.8.8-1.5 1.3c-.5.5-.9.8-1 1c-.2.1-.3.3-.4.5c-.01-.04 3.7 0 3.7 0zm1.7.2c-.5-.6-.7-1.7-.7-3.1c0-.9.1-1.6.2-2.1c.2-.5.5-1 .9-1.3c.3-.3.8-.4 1.3-.4c.4 0 .8.1 1.1.2c.3.2.5.4.7.7c.2.3.4.7.5 1.2c.1.4.2 1 .2 1.7c0 .9-.1 1.6-.3 2.2c-.2.5-.5.9-.8 1.2c-.4.3-.8.5-1.4.5c-.7 0-1.3-.3-1.7-.8c0 0 0 0 0 0zm.7-5.6c-.3.5-.5 1.3-.5 2.5c0 1.3.2 2.1.4 2.5c.3.4.7.6 1.1.6c.4 0 .8-.2 1.1-.6c.3-.4.4-1.2.4-2.5c0-1.2-.1-2-.4-2.4c-.3-.4-.7-.6-1.1-.6c-.4 0-.8.1-1 .5c0 0 0 0 0 0zm4.9 6.2l0-1l1.1 0c0 0-.04 1.04 0 1c0 .4-.1.7-.2 1c-.2.2-.4.4-.7.5c0 0-.3-.4-.3-.4c.2 0 .4-.2.5-.3c.1-.2.1-.4.1-.8c.03.04-.5 0-.5 0zm5.3-2.7c0-1 .2-1.7.8-2.2c.5-.4 1-.6 1.7-.6c.8 0 1.4.2 1.8.7c.5.5.8 1.2.8 2c0 .7-.1 1.3-.4 1.7c-.2.4-.5.7-.9.9c-.4.3-.8.4-1.3.4c-.8 0-1.4-.3-1.8-.8c-.5-.5-.7-1.2-.7-2.1zm.9 0c0 .7.2 1.2.5 1.6c.3.3.6.5 1.1.5c.5 0 .8-.2 1.2-.5c.3-.4.4-.9.4-1.6c0-.7-.1-1.2-.5-1.5c-.3-.4-.6-.6-1.1-.6c-.5 0-.8.2-1.1.6c-.3.3-.5.8-.5 1.5zm8.8 2.7c0 0 .01-.76 0-.8c-.4.7-1 1-1.7 1c-.3 0-.6-.1-.9-.2c-.3-.1-.5-.3-.6-.5c-.2-.2-.3-.4-.3-.7c-.1-.1-.1-.4-.1-.8c.02-.03 0-3.4 0-3.4l.9 0c0 0 .04 3.02 0 3c0 .5.1.8.1 1c.1.2.2.4.4.6c.2.1.4.2.7.2c.2 0 .5-.1.7-.2c.3-.2.5-.4.6-.6c.1-.3.1-.6.1-1.1c.01.02 0-2.9 0-2.9l.9 0l0 5.4l-.8 0zm2.3 0l0-5.4l.8 0c0 0 0 .82 0 .8c.2-.4.4-.6.6-.7c.2-.2.4-.2.6-.2c.3 0 .6.1.9.3c0 0-.3.8-.3.8c-.2-.1-.4-.2-.7-.2c-.2 0-.4.1-.5.2c-.2.1-.3.3-.4.5c-.1.3-.1.7-.1 1.1c-.01-.01 0 2.8 0 2.8l-.9 0zm6.5 0l0-7.5l1 0l4 5.9l0-5.9l.9 0l0 7.5l-1 0l-3.9-5.9l0 5.9l-1 0zm11.2-1.7c0 0 1 .1 1 .1c-.2.6-.5 1-.9 1.3c-.4.3-.9.5-1.5.5c-.8 0-1.5-.3-1.9-.8c-.5-.5-.7-1.1-.7-2c0-.9.2-1.7.7-2.2c.4-.5 1.1-.7 1.8-.7c.7 0 1.3.2 1.8.7c.5.5.7 1.2.7 2.1c0 .1 0 .1 0 .3c0 0-4.1 0-4.1 0c.1.6.2 1 .5 1.3c.3.3.7.5 1.2.5c.3 0 .6-.1.8-.3c.3-.1.5-.4.6-.8zm-3-1.5c0 0 3 0 3 0c0-.5-.1-.8-.3-1c-.3-.4-.7-.6-1.2-.6c-.4 0-.8.2-1 .5c-.3.2-.5.6-.5 1.1zm6.1 3.2l-1.6-5.4l.9 0l.9 3.1c0 0 .3 1.21.3 1.2c0 0 .1-.4.3-1.1c-.02-.01.8-3.2.8-3.2l1 0l.8 3.2l.3 1l.3-1.1l.9-3.1l.9 0l-1.7 5.4l-.9 0l-.9-3.2l-.2-.9l-1.1 4.1l-1 0zm11.6 0l0-3.1l-2.9-4.4l1.2 0c0 0 1.45 2.29 1.5 2.3c.2.4.5.8.7 1.3c.2-.4.5-.9.8-1.4c.04.04 1.5-2.2 1.5-2.2l1.2 0l-3 4.4l0 3.1l-1 0zm3.4-2.7c0-1 .3-1.7.9-2.2c.4-.4 1-.6 1.7-.6c.7 0 1.3.2 1.8.7c.5.5.7 1.2.7 2c0 .7-.1 1.3-.3 1.7c-.2.4-.5.7-.9.9c-.4.3-.9.4-1.3.4c-.8 0-1.4-.3-1.9-.8c-.4-.5-.7-1.2-.7-2.1zm1 0c0 .7.1 1.2.4 1.6c.3.3.7.5 1.2.5c.4 0 .8-.2 1.1-.5c.3-.4.5-.9.5-1.6c0-.7-.2-1.2-.5-1.5c-.3-.4-.7-.6-1.1-.6c-.5 0-.9.2-1.2.6c-.3.3-.4.8-.4 1.5zm5.2 2.7l0-5.4l.8 0c0 0 .02.82 0 .8c.2-.4.4-.6.6-.7c.2-.2.4-.2.6-.2c.3 0 .6.1 1 .3c0 0-.4.8-.4.8c-.2-.1-.4-.2-.6-.2c-.2 0-.4.1-.6.2c-.1.1-.3.3-.3.5c-.1.3-.2.7-.2 1.1c.02-.01 0 2.8 0 2.8l-.9 0zm3.5 0l0-7.5l.9 0l0 4.3l2.2-2.2l1.2 0l-2.1 2l2.3 3.4l-1.1 0l-1.8-2.7l-.7.6l0 2.1l-.9 0zm7.8-2.7c0-1 .3-1.7.9-2.2c.4-.4 1-.6 1.7-.6c.7 0 1.3.2 1.8.7c.5.5.7 1.2.7 2c0 .7-.1 1.3-.3 1.7c-.2.4-.5.7-.9.9c-.4.3-.8.4-1.3.4c-.8 0-1.4-.3-1.9-.8c-.4-.5-.7-1.2-.7-2.1zm1 0c0 .7.1 1.2.4 1.6c.3.3.7.5 1.2.5c.4 0 .8-.2 1.1-.5c.3-.4.5-.9.5-1.6c0-.7-.2-1.2-.5-1.5c-.3-.4-.7-.6-1.1-.6c-.5 0-.9.2-1.2.6c-.3.3-.4.8-.4 1.5zm5.4 2.7l0-4.7l-.8 0l0-.7l.8 0c0 0 .03-.58 0-.6c0-.3.1-.6.1-.8c.1-.2.3-.4.5-.6c.2-.1.5-.2.9-.2c.3 0 .6 0 .9.1c0 0-.1.8-.1.8c-.2 0-.4-.1-.6-.1c-.3 0-.5.1-.6.2c-.1.1-.2.4-.2.7c.05 0 0 .5 0 .5l1.1 0l0 .7l-1.1 0l0 4.7l-.9 0zm3 0l0-4.7l-.9 0l0-.7l.9 0c0 0-.03-.53 0-.5c0-.6.1-1 .3-1.3c.3-.3.6-.4 1.1-.4c.4 0 .7 0 1 .1c0 0-.2.8-.2.8c-.2 0-.3 0-.5 0c-.3 0-.5 0-.6.1c-.1.2-.2.4-.2.8c-.01.05 0 .4 0 .4l1 0l0 .7l-1 0l0 4.7l-.9 0zm2.6-6.4l0-1.1l1 0l0 1.1l-1 0zm0 6.4l0-5.4l1 0l0 5.4l-1 0zm5.9-2c0 0 .9.2.9.2c-.1.6-.3 1.1-.7 1.4c-.4.4-.9.6-1.5.6c-.8 0-1.4-.3-1.8-.8c-.5-.5-.7-1.1-.7-2.1c0-.5.1-1.1.3-1.5c.2-.4.5-.8.9-1c.4-.2.8-.3 1.3-.3c.6 0 1 .1 1.4.4c.4.3.6.7.7 1.3c0 0-.8.1-.8.1c-.1-.3-.3-.6-.5-.8c-.2-.2-.5-.3-.8-.3c-.5 0-.8.2-1.1.5c-.3.4-.5.9-.5 1.6c0 .7.2 1.3.5 1.6c.2.3.6.5 1.1.5c.3 0 .6-.1.9-.3c.2-.2.4-.6.4-1.1zm5.5.3c0 0 .9.1.9.1c-.1.6-.4 1-.8 1.3c-.4.3-1 .5-1.6.5c-.8 0-1.4-.3-1.9-.8c-.5-.5-.7-1.1-.7-2c0-.9.3-1.7.7-2.2c.5-.5 1.1-.7 1.9-.7c.7 0 1.3.2 1.7.7c.5.5.7 1.2.7 2.1c0 .1 0 .1 0 .3c0 0-4 0-4 0c0 .6.2 1 .5 1.3c.3.3.7.5 1.1.5c.4 0 .6-.1.9-.3c.2-.1.4-.4.6-.8zm-3.1-1.5c0 0 3.1 0 3.1 0c-.1-.5-.2-.8-.4-1c-.3-.4-.7-.6-1.1-.6c-.5 0-.8.2-1.1.5c-.3.2-.4.6-.5 1.1zm8.1-3.2l0-1.1l.9 0l0 1.1l-.9 0zm-.5 8.7c-.2 0-.5-.1-.7-.1c0 0 .2-.8.2-.8c.2 0 .3 0 .4 0c.2 0 .3 0 .4-.1c.1-.2.2-.5.2-1c-.02.02 0-5.7 0-5.7l.9 0c0 0 0 5.74 0 5.7c0 .7-.1 1.2-.3 1.4c-.2.4-.6.6-1.1.6c0 0 0 0 0 0zm2.5-5c0-1 .3-1.7.8-2.2c.5-.4 1.1-.6 1.7-.6c.8 0 1.4.2 1.9.7c.4.5.7 1.2.7 2c0 .7-.1 1.3-.3 1.7c-.3.4-.6.7-1 .9c-.4.3-.8.4-1.3.4c-.7 0-1.4-.3-1.8-.8c-.5-.5-.7-1.2-.7-2.1zm.9 0c0 .7.2 1.2.5 1.6c.3.3.7.5 1.1.5c.5 0 .9-.2 1.2-.5c.3-.4.4-.9.4-1.6c0-.7-.1-1.2-.4-1.5c-.3-.4-.7-.6-1.2-.6c-.4 0-.8.2-1.1.6c-.3.3-.5.8-.5 1.5zm5.3-3.7l0-1.1l.9 0l0 1.1l-.9 0zm0 6.4l0-5.4l.9 0l0 5.4l-.9 0zm2.3 0l0-5.4l.8 0c0 0 .02.77 0 .8c.4-.6 1-.9 1.7-.9c.4 0 .7 0 1 .2c.2.1.4.2.6.4c.1.2.2.4.3.7c0 .2 0 .5 0 .9c.01 0 0 3.3 0 3.3l-.9 0c0 0-.01-3.27 0-3.3c0-.3 0-.6-.1-.8c-.1-.2-.2-.3-.4-.5c-.2-.1-.4-.1-.6-.1c-.4 0-.8.1-1.1.4c-.2.2-.4.7-.4 1.4c.01-.03 0 2.9 0 2.9l-.9 0zm9.6-1.7c0 0 .9.1.9.1c-.1.6-.4 1-.8 1.3c-.4.3-1 .5-1.6.5c-.8 0-1.4-.3-1.9-.8c-.4-.5-.7-1.1-.7-2c0-.9.3-1.7.7-2.2c.5-.5 1.1-.7 1.9-.7c.7 0 1.3.2 1.7.7c.5.5.7 1.2.7 2.1c0 .1 0 .1 0 .3c0 0-4 0-4 0c0 .6.2 1 .5 1.3c.3.3.7.5 1.1.5c.4 0 .6-.1.9-.3c.2-.1.4-.4.6-.8zm-3.1-1.5c0 0 3.1 0 3.1 0c-.1-.5-.2-.8-.4-1c-.3-.4-.7-.6-1.1-.6c-.5 0-.8.2-1.1.5c-.3.2-.4.6-.5 1.1zm8.7 3.2c0 0 0-.64 0-.6c-.3.5-.9.8-1.5.8c-.5 0-.9-.2-1.2-.4c-.4-.2-.7-.6-.9-1c-.2-.4-.3-.9-.3-1.5c0-.5.1-1 .3-1.5c.2-.4.5-.7.8-1c.4-.2.8-.3 1.2-.3c.4 0 .7 0 .9.2c.3.1.5.3.6.5c.04.02 0-2.7 0-2.7l1 0l0 7.5l-.9 0zm-2.9-2.7c0 .7.1 1.2.4 1.6c.3.3.7.5 1.1.5c.4 0 .7-.2 1-.5c.3-.3.4-.8.4-1.5c0-.7-.1-1.3-.4-1.6c-.3-.4-.7-.6-1.1-.6c-.4 0-.7.2-1 .5c-.3.4-.4.9-.4 1.6zm9.7 2c.1 0 .3-.1.4-.1c0 0 .2.8.2.8c-.3.1-.5.1-.7.1c-.4 0-.6 0-.8-.1c-.2-.1-.3-.3-.4-.5c-.1-.1-.1-.5-.1-1.1c-.01.05 0-3.1 0-3.1l-.7 0l0-.7l.7 0l0-1.3l.9-.6l0 1.9l.9 0l0 .7l-.9 0c0 0 .01 3.2 0 3.2c0 .3 0 .4.1.5c0 .1 0 .1.1.2c.1 0 .2.1.3.1c0 0 0 0 0 0zm1.3.7l0-7.5l1 0c0 0-.04 2.72 0 2.7c.4-.5.9-.7 1.6-.7c.4 0 .7.1 1 .2c.3.2.6.4.7.7c.1.3.2.7.2 1.2c-.03-.01 0 3.4 0 3.4l-.9 0c0 0-.05-3.41 0-3.4c0-.5-.1-.8-.3-1c-.2-.2-.5-.3-.9-.3c-.3 0-.5 0-.8.2c-.2.1-.4.3-.5.6c-.1.2-.1.5-.1 1c-.04-.03 0 2.9 0 2.9l-1 0zm9.6-1.7c0 0 1 .1 1 .1c-.2.6-.5 1-.9 1.3c-.4.3-.9.5-1.5.5c-.8 0-1.5-.3-1.9-.8c-.5-.5-.7-1.1-.7-2c0-.9.2-1.7.7-2.2c.5-.5 1.1-.7 1.8-.7c.7 0 1.3.2 1.8.7c.5.5.7 1.2.7 2.1c0 .1 0 .1 0 .3c0 0-4.1 0-4.1 0c.1.6.2 1 .5 1.3c.3.3.7.5 1.2.5c.3 0 .6-.1.8-.3c.3-.1.5-.4.6-.8zm-3-1.5c0 0 3 0 3 0c0-.5-.1-.8-.3-1c-.3-.4-.7-.6-1.2-.6c-.4 0-.8.2-1 .5c-.3.2-.5.6-.5 1.1zm8.1 3.2l0-7.5l1.1 0l3.9 5.9l0-5.9l1 0l0 7.5l-1.1 0l-3.9-5.9l0 5.9l-1 0zm11.2-1.7c0 0 1 .1 1 .1c-.2.6-.4 1-.8 1.3c-.4.3-1 .5-1.6.5c-.8 0-1.4-.3-1.9-.8c-.5-.5-.7-1.1-.7-2c0-.9.2-1.7.7-2.2c.5-.5 1.1-.7 1.9-.7c.7 0 1.3.2 1.7.7c.5.5.7 1.2.7 2.1c0 .1 0 .1 0 .3c0 0-4 0-4 0c0 .6.2 1 .5 1.3c.3.3.7.5 1.1.5c.3 0 .6-.1.9-.3c.2-.1.4-.4.5-.8zm-3-1.5c0 0 3.1 0 3.1 0c-.1-.5-.2-.8-.4-1c-.3-.4-.7-.6-1.1-.6c-.5 0-.8.2-1.1.5c-.3.2-.5.6-.5 1.1zm6.2 3.2l-1.7-5.4l1 0l.8 3.1c0 0 .34 1.21.3 1.2c.1 0 .1-.4.3-1.1c.02-.01.9-3.2.9-3.2l.9 0l.9 3.2l.2 1l.3-1.1l1-3.1l.9 0l-1.7 5.4l-1 0l-.9-3.2l-.2-.9l-1.1 4.1l-.9 0zm11.5 0l0-3.1l-2.9-4.4l1.2 0c0 0 1.5 2.29 1.5 2.3c.3.4.5.8.8 1.3c.2-.4.5-.9.8-1.4c-.02.04 1.4-2.2 1.4-2.2l1.2 0l-3 4.4l0 3.1l-1 0zm3.5-2.7c0-1 .2-1.7.8-2.2c.5-.4 1-.6 1.7-.6c.8 0 1.4.2 1.9.7c.4.5.7 1.2.7 2c0 .7-.1 1.3-.3 1.7c-.3.4-.6.7-1 .9c-.4.3-.8.4-1.3.4c-.7 0-1.4-.3-1.8-.8c-.5-.5-.7-1.2-.7-2.1zm.9 0c0 .7.2 1.2.5 1.6c.3.3.7.5 1.1.5c.5 0 .9-.2 1.2-.5c.3-.4.4-.9.4-1.6c0-.7-.1-1.2-.4-1.5c-.3-.4-.7-.6-1.2-.6c-.4 0-.8.2-1.1.6c-.3.3-.5.8-.5 1.5zm5.2 2.7l0-5.4l.9 0c0 0-.03.82 0 .8c.2-.4.4-.6.6-.7c.1-.2.3-.2.5-.2c.4 0 .7.1 1 .3c0 0-.3.8-.3.8c-.2-.1-.5-.2-.7-.2c-.2 0-.4.1-.5.2c-.2.1-.3.3-.4.5c-.1.3-.1.7-.1 1.1c-.04-.01 0 2.8 0 2.8l-1 0zm3.5 0l0-7.5l1 0l0 4.3l2.2-2.2l1.2 0l-2.1 2l2.3 3.4l-1.2 0l-1.8-2.7l-.6.6l0 2.1l-1 0zm13.7-2.6c0 0 1 .3 1 .3c-.2.8-.6 1.4-1.1 1.8c-.6.5-1.2.7-2 .7c-.8 0-1.5-.2-2-.5c-.5-.4-.9-.8-1.2-1.5c-.2-.6-.4-1.3-.4-2c0-.8.2-1.4.5-2c.3-.6.7-1 1.3-1.3c.5-.3 1.1-.5 1.8-.5c.7 0 1.4.2 1.9.6c.5.4.9.9 1.1 1.6c0 0-1 .2-1 .2c-.2-.5-.4-.9-.8-1.2c-.3-.2-.7-.3-1.2-.3c-.6 0-1.1.1-1.5.4c-.4.2-.6.6-.8 1.1c-.2.4-.2.9-.2 1.4c0 .7.1 1.2.2 1.7c.2.5.5.8.9 1.1c.4.2.8.3 1.3.3c.5 0 1-.1 1.4-.5c.4-.3.7-.8.8-1.4zm5.8 2.6c-.1-.1-.1-.4-.2-.6c-.3.3-.6.5-.9.6c-.4.1-.7.2-1.1.2c-.6 0-1-.2-1.3-.5c-.4-.3-.5-.6-.5-1.1c0-.3 0-.5.2-.7c.1-.2.2-.4.4-.6c.2-.1.5-.2.7-.3c.2 0 .5 0 .8-.1c.8-.1 1.3-.2 1.7-.3c0-.1 0-.2 0-.3c0-.3-.1-.6-.3-.7c-.2-.3-.6-.4-1-.4c-.5 0-.8.1-1 .3c-.2.1-.4.4-.5.8c0 0-.9-.1-.9-.1c.1-.4.3-.7.4-1c.2-.2.5-.4.9-.5c.3-.2.7-.2 1.2-.2c.5 0 .8 0 1.1.1c.3.1.5.3.7.5c.1.1.2.3.3.6c0 .1 0 .4 0 .8c0 0 0 1.3 0 1.3c0 .8 0 1.4.1 1.6c0 .2.1.4.2.6c0 .04-1 0-1 0c0 0 .03.04 0 0zm-.2-2.7c-.4.1-.9.3-1.5.4c-.4 0-.7.1-.8.1c-.2.1-.3.2-.4.3c-.1.2-.1.3-.1.5c0 .2.1.4.2.6c.2.2.5.2.9.2c.3 0 .6 0 .9-.2c.3-.1.5-.4.6-.6c.1-.2.2-.5.2-1c0 0 0-.3 0-.3zm2.3 2.7l0-5.4l.9 0c0 0-.05.82 0 .8c.2-.4.4-.6.5-.7c.2-.2.4-.2.6-.2c.3 0 .7.1 1 .3c0 0-.3.8-.3.8c-.3-.1-.5-.2-.7-.2c-.2 0-.4.1-.6.2c-.1.1-.2.3-.3.5c-.1.3-.2.7-.2 1.1c.05-.01 0 2.8 0 2.8l-.9 0zm4.4 0l-.9 0l0-7.5l.9 0c0 0 .05 2.71 0 2.7c.4-.5.9-.7 1.5-.7c.4 0 .7 0 1 .2c.3.1.5.3.7.5c.2.3.4.6.5.9c.1.4.1.7.1 1.1c0 1-.2 1.7-.6 2.2c-.5.5-1.1.8-1.7.8c-.6 0-1.2-.3-1.5-.8c-.02-.04 0 .6 0 .6zm0-2.7c0 .6.1 1.1.2 1.4c.3.5.7.7 1.2.7c.4 0 .8-.2 1.1-.5c.3-.4.4-.9.4-1.6c0-.7-.1-1.2-.4-1.6c-.3-.3-.6-.5-1-.5c-.4 0-.8.2-1.1.6c-.3.3-.4.8-.4 1.5zm4.6 0c0-1 .3-1.7.9-2.2c.4-.4 1-.6 1.7-.6c.7 0 1.3.2 1.8.7c.5.5.7 1.2.7 2c0 .7-.1 1.3-.3 1.7c-.2.4-.5.7-.9.9c-.4.3-.8.4-1.3.4c-.8 0-1.4-.3-1.9-.8c-.4-.5-.7-1.2-.7-2.1zm1 0c0 .7.1 1.2.4 1.6c.3.3.7.5 1.2.5c.4 0 .8-.2 1.1-.5c.3-.4.5-.9.5-1.6c0-.7-.2-1.2-.5-1.5c-.3-.4-.7-.6-1.1-.6c-.5 0-.9.2-1.2.6c-.3.3-.4.8-.4 1.5zm5.2 2.7l0-5.4l.8 0c0 0 .04.77 0 .8c.4-.6 1-.9 1.8-.9c.3 0 .6 0 .9.2c.3.1.5.2.6.4c.1.2.2.4.3.7c0 .2 0 .5 0 .9c.03 0 0 3.3 0 3.3l-.9 0c0 0 .01-3.27 0-3.3c0-.3 0-.6-.1-.8c-.1-.2-.2-.3-.4-.5c-.2-.1-.4-.1-.6-.1c-.4 0-.8.1-1 .4c-.3.2-.5.7-.5 1.4c.03-.03 0 2.9 0 2.9l-.9 0zm14.2-2.6c0 0 1 .3 1 .3c-.2.8-.5 1.4-1.1 1.8c-.5.5-1.2.7-2 .7c-.8 0-1.4-.2-1.9-.5c-.6-.4-.9-.8-1.2-1.5c-.3-.6-.4-1.3-.4-2c0-.8.1-1.4.4-2c.3-.6.8-1 1.3-1.3c.6-.3 1.2-.5 1.8-.5c.8 0 1.4.2 1.9.6c.6.4.9.9 1.1 1.6c0 0-1 .2-1 .2c-.1-.5-.4-.9-.7-1.2c-.4-.2-.8-.3-1.3-.3c-.6 0-1 .1-1.4.4c-.4.2-.7.6-.8 1.1c-.2.4-.3.9-.3 1.4c0 .7.1 1.2.3 1.7c.2.5.5.8.9 1.1c.4.2.8.3 1.2.3c.6 0 1.1-.1 1.5-.5c.3-.3.6-.8.7-1.4zm2.1 2.6l0-7.5l1 0c0 0-.03 2.72 0 2.7c.4-.5.9-.7 1.6-.7c.4 0 .8.1 1.1.2c.3.2.5.4.6.7c.1.3.2.7.2 1.2c-.02-.01 0 3.4 0 3.4l-.9 0c0 0-.04-3.41 0-3.4c0-.5-.1-.8-.3-1c-.2-.2-.5-.3-.9-.3c-.3 0-.5 0-.8.2c-.2.1-.4.3-.5.6c-.1.2-.1.5-.1 1c-.03-.03 0 2.9 0 2.9l-1 0zm9.6 0c-.1-.1-.1-.4-.2-.6c-.3.3-.6.5-.9.6c-.4.1-.7.2-1.1.2c-.6 0-1-.2-1.3-.5c-.4-.3-.5-.6-.5-1.1c0-.3 0-.5.2-.7c.1-.2.2-.4.4-.6c.2-.1.5-.2.7-.3c.2 0 .5 0 .8-.1c.8-.1 1.3-.2 1.7-.3c0-.1 0-.2 0-.3c0-.3-.1-.6-.3-.7c-.2-.3-.6-.4-1-.4c-.5 0-.8.1-1 .3c-.2.1-.4.4-.5.8c0 0-.9-.1-.9-.1c.1-.4.3-.7.4-1c.2-.2.5-.4.9-.5c.3-.2.7-.2 1.2-.2c.5 0 .8 0 1.1.1c.3.1.5.3.7.5c.1.1.2.3.3.6c0 .1 0 .4 0 .8c0 0 0 1.3 0 1.3c0 .8 0 1.4.1 1.6c0 .2.1.4.2.6c-.01.04-1 0-1 0c0 0 .03.04 0 0zm-.2-2.7c-.4.1-.9.3-1.5.4c-.4 0-.7.1-.8.1c-.2.1-.3.2-.4.3c-.1.2-.1.3-.1.5c0 .2.1.4.2.6c.2.2.5.2.9.2c.3 0 .6 0 .9-.2c.3-.1.5-.4.6-.6c.1-.2.2-.5.2-1c0 0 0-.3 0-.3zm2.3 2.7l0-7.5l.9 0l0 7.5l-.9 0zm2.3 0l0-7.5l1 0l0 7.5l-1 0zm6.1-1.7c0 0 1 .1 1 .1c-.2.6-.5 1-.9 1.3c-.4.3-.9.5-1.5.5c-.8 0-1.4-.3-1.9-.8c-.5-.5-.7-1.1-.7-2c0-.9.2-1.7.7-2.2c.5-.5 1.1-.7 1.8-.7c.8 0 1.4.2 1.8.7c.5.5.7 1.2.7 2.1c0 .1 0 .1 0 .3c0 0-4.1 0-4.1 0c.1.6.2 1 .5 1.3c.4.3.7.5 1.2.5c.3 0 .6-.1.9-.3c.2-.1.4-.4.5-.8zm-3-1.5c0 0 3 0 3 0c0-.5-.1-.8-.3-1c-.3-.4-.7-.6-1.2-.6c-.4 0-.7.2-1 .5c-.3.2-.5.6-.5 1.1zm5.1 3.2l0-5.4l.9 0c0 0-.04.77 0 .8c.4-.6.9-.9 1.7-.9c.3 0 .6 0 .9.2c.3.1.5.2.6.4c.2.2.3.4.3.7c0 .2.1.5.1.9c-.04 0 0 3.3 0 3.3l-1 0c0 0 .04-3.27 0-3.3c0-.3 0-.6-.1-.8c0-.2-.2-.3-.4-.5c-.1-.1-.4-.1-.6-.1c-.4 0-.7.1-1 .4c-.3.2-.4.7-.4 1.4c-.04-.03 0 2.9 0 2.9l-1 0zm5.7.5c0 0 .9.1.9.1c0 .3.1.5.3.6c.2.2.6.3 1 .3c.4 0 .7-.1.9-.3c.3-.1.4-.4.5-.7c.1-.2.1-.6.1-1.2c-.4.5-.9.7-1.5.7c-.8 0-1.4-.2-1.8-.8c-.4-.5-.6-1.2-.6-1.9c0-.5.1-1 .3-1.4c.2-.5.5-.8.8-1.1c.4-.2.8-.3 1.3-.3c.6 0 1.2.2 1.6.8c-.03-.04 0-.7 0-.7l.8 0c0 0 .02 4.71 0 4.7c0 .9-.1 1.5-.2 1.8c-.2.4-.5.6-.9.8c-.3.3-.8.4-1.3.4c-.7 0-1.2-.2-1.6-.5c-.4-.3-.6-.7-.6-1.3zm.8-3.3c0 .7.1 1.3.4 1.6c.3.3.6.5 1.1.5c.4 0 .7-.2 1-.5c.3-.3.5-.8.5-1.5c0-.7-.2-1.2-.5-1.6c-.3-.3-.6-.5-1.1-.5c-.4 0-.7.2-1 .5c-.3.4-.4.9-.4 1.5zm8.9 1.1c0 0 1 .1 1 .1c-.2.6-.4 1-.8 1.3c-.4.3-1 .5-1.6.5c-.8 0-1.4-.3-1.9-.8c-.5-.5-.7-1.1-.7-2c0-.9.2-1.7.7-2.2c.5-.5 1.1-.7 1.8-.7c.8 0 1.4.2 1.8.7c.5.5.7 1.2.7 2.1c0 .1 0 .1 0 .3c0 0-4 0-4 0c0 .6.2 1 .5 1.3c.3.3.6.5 1.1.5c.3 0 .6-.1.9-.3c.2-.1.4-.4.5-.8zm-3-1.5c0 0 3.1 0 3.1 0c-.1-.5-.2-.8-.4-1c-.3-.4-.7-.6-1.1-.6c-.5 0-.8.2-1.1.5c-.3.2-.5.6-.5 1.1zm5.4 3.2l0-1l1.1 0l0 1l-1.1 0zm4.3 0l2.9-7.5l1.1 0l3 7.5l-1.1 0l-.9-2.2l-3.1 0l-.8 2.2l-1.1 0zm2.2-3l2.5 0c0 0-.77-2.12-.8-2.1c-.2-.7-.4-1.2-.5-1.6c-.1.5-.2 1-.4 1.5c-.01-.05-.8 2.2-.8 2.2zm5.1 1.4c0 0 1-.1 1-.1c0 .3.1.6.4.8c.2.2.5.3 1 .3c.4 0 .7-.1.9-.3c.2-.1.3-.3.3-.6c0-.2-.1-.3-.3-.5c-.1 0-.4-.1-.9-.3c-.7-.1-1.1-.3-1.4-.4c-.3-.1-.5-.3-.6-.5c-.1-.2-.2-.5-.2-.8c0-.2.1-.4.2-.6c.1-.2.2-.4.4-.5c.2-.2.4-.2.6-.3c.3-.1.5-.1.8-.1c.4 0 .8 0 1.1.2c.3.1.6.3.7.5c.2.2.3.5.4.8c0 0-.9.1-.9.1c-.1-.3-.2-.5-.4-.6c-.2-.2-.5-.3-.8-.3c-.5 0-.8.1-.9.2c-.2.2-.3.3-.3.5c0 .2 0 .3.1.4c.1.1.2.1.4.2c0 0 .3.1.8.2c.6.2 1.1.4 1.3.5c.3.1.5.2.6.5c.2.2.3.4.3.7c0 .4-.1.6-.3.9c-.2.3-.4.5-.8.6c-.3.2-.7.3-1.1.3c-.7 0-1.3-.2-1.6-.5c-.4-.3-.7-.7-.8-1.3zm8.6 3.7l0-7.5l.8 0c0 0 .02.71 0 .7c.2-.3.4-.5.7-.6c.2-.2.5-.2.9-.2c.5 0 .9.1 1.2.3c.4.3.7.6.8 1c.2.5.3 1 .3 1.5c0 .5-.1 1-.3 1.5c-.2.4-.5.8-.9 1c-.3.2-.7.4-1.2.4c-.3 0-.6-.1-.8-.2c-.2-.2-.4-.3-.6-.5c0-.02 0 2.6 0 2.6l-.9 0zm.8-4.7c0 .7.2 1.2.4 1.5c.3.3.7.5 1.1.5c.4 0 .7-.2 1-.5c.3-.4.5-.9.5-1.6c0-.7-.2-1.2-.5-1.6c-.3-.3-.6-.5-1-.5c-.4 0-.7.2-1 .6c-.3.3-.5.9-.5 1.6zm8.8 2.6c-.1-.1-.2-.4-.2-.6c-.4.3-.7.5-1 .6c-.3.1-.7.2-1 .2c-.6 0-1.1-.2-1.4-.5c-.3-.3-.5-.6-.5-1.1c0-.3.1-.5.2-.7c.1-.2.3-.4.5-.6c.2-.1.4-.2.6-.3c.2 0 .5 0 .8-.1c.8-.1 1.3-.2 1.7-.3c0-.1 0-.2 0-.3c0-.3-.1-.6-.3-.7c-.2-.3-.5-.4-1-.4c-.4 0-.8.1-1 .3c-.2.1-.3.4-.4.8c0 0-.9-.1-.9-.1c0-.4.2-.7.4-1c.2-.2.4-.4.8-.5c.3-.2.8-.2 1.2-.2c.5 0 .9 0 1.2.1c.2.1.5.3.6.5c.1.1.2.3.3.6c0 .1 0 .4 0 .8c0 0 0 1.3 0 1.3c0 .8 0 1.4.1 1.6c0 .2.1.4.2.6c.02.04-.9 0-.9 0c0 0-.04.04 0 0zm-.3-2.7c-.3.1-.8.3-1.5.4c-.4 0-.7.1-.8.1c-.2.1-.3.2-.4.3c-.1.2-.1.3-.1.5c0 .2.1.4.3.6c.2.2.4.2.8.2c.3 0 .7 0 .9-.2c.3-.1.5-.4.6-.6c.1-.2.2-.5.2-1c0 0 0-.3 0-.3zm2.3 2.7l0-5.4l.9 0c0 0-.02.82 0 .8c.2-.4.4-.6.6-.7c.1-.2.3-.2.6-.2c.3 0 .6.1.9.3c0 0-.3.8-.3.8c-.2-.1-.5-.2-.7-.2c-.2 0-.4.1-.5.2c-.2.1-.3.3-.4.5c-.1.3-.1.7-.1 1.1c-.03-.01 0 2.8 0 2.8l-1 0zm5.2-.7c.1 0 .2-.1.4-.1c0 0 .1.8.1.8c-.3.1-.5.1-.7.1c-.3 0-.6 0-.8-.1c-.2-.1-.3-.3-.4-.5c0-.1-.1-.5-.1-1.1c.02.05 0-3.1 0-3.1l-.7 0l0-.7l.7 0l0-1.3l.9-.6l0 1.9l1 0l0 .7l-1 0c0 0 .04 3.2 0 3.2c0 .3.1.4.1.5c0 .1.1.1.1.2c.1 0 .2.1.4.1c0 0 0 0 0 0z" stroke="none" fill="#ffffff"/></g></svg>