<?xml version="1.0" standalone="no"?><!DOCTYPE svg PUBLIC "-//W3C//DTD SVG 1.1//EN" "http://www.w3.org/Graphics/SVG/1.1/DTD/svg11.dtd"><svg xmlns="http://www.w3.org/2000/svg" version="1.1" width="103px" height="20.4px" viewBox="0 -3 103 20.4" style="top:-3px"><desc>landfill diverted Waste</desc><defs/><g id="Polygon70136"><path d="m.5 5l0-4.9l.7 0l0 4.3l2.4 0l0 .6l-3.1 0zm3.5 0l1.9-4.9l.7 0l2 4.9l-.7 0l-.6-1.5l-2.1 0l-.5 1.5l-.7 0zm1.4-2l1.7 0c0 0-.53-1.37-.5-1.4c-.2-.4-.3-.7-.4-1c0 .3-.1.6-.2.9c-.05.05-.6 1.5-.6 1.5zm3.7 2l0-4.9l.7 0l2.6 3.9l0-3.9l.6 0l0 4.9l-.6 0l-2.6-3.9l0 3.9l-.7 0zm5 0l0-4.9c0 0 1.71-.02 1.7 0c.4 0 .7 0 .9.1c.3 0 .5.1.7.3c.3.2.5.5.6.9c.1.3.2.7.2 1.1c0 .4 0 .7-.1 1c-.1.3-.2.6-.4.8c-.1.1-.3.3-.4.4c-.2.1-.4.2-.6.2c-.2.1-.5.1-.8.1c0 .03-1.8 0-1.8 0zm.7-.6c0 0 1.02.05 1 0c.3 0 .6 0 .8 0c.2-.1.3-.2.4-.3c.2-.2.3-.4.4-.6c.1-.3.1-.6.1-1c0-.5-.1-.9-.2-1.2c-.2-.2-.4-.4-.6-.5c-.2-.1-.5-.1-.9-.1c0-.03-1 0-1 0l0 3.7zm4.3.6l0-4.9l3.3 0l0 .6l-2.7 0l0 1.5l2.4 0l0 .6l-2.4 0l0 2.2l-.6 0zm4.1 0l0-4.9l.6 0l0 4.9l-.6 0zm1.7 0l0-4.9l.7 0l0 4.3l2.4 0l0 .6l-3.1 0zm3.7 0l0-4.9l.7 0l0 4.3l2.4 0l0 .6l-3.1 0zm5.7 0l0-4.9c0 0 1.69-.02 1.7 0c.4 0 .7 0 .9.1c.3 0 .5.1.7.3c.3.2.5.5.6.9c.1.3.2.7.2 1.1c0 .4-.1.7-.2 1c0 .3-.2.6-.3.8c-.1.1-.3.3-.4.4c-.2.1-.4.2-.6.2c-.3.1-.5.1-.8.1c-.03.03-1.8 0-1.8 0zm.6-.6c0 0 1.1.05 1.1 0c.3 0 .6 0 .8 0c.2-.1.3-.2.4-.3c.2-.2.3-.4.4-.6c.1-.3.1-.6.1-1c0-.5-.1-.9-.3-1.2c-.1-.2-.3-.4-.6-.5c-.1-.1-.4-.1-.8-.1c-.02-.03-1.1 0-1.1 0l0 3.7zm4.4.6l0-4.9l.7 0l0 4.9l-.7 0zm3.2 0l-2-4.9l.8 0c0 0 1.24 3.58 1.2 3.6c.1.3.2.5.3.8c.1-.3.2-.6.3-.8c-.03-.02 1.3-3.6 1.3-3.6l.7 0l-2 4.9l-.6 0zm3.1 0l0-4.9l3.6 0l0 .6l-2.9 0l0 1.5l2.7 0l0 .6l-2.7 0l0 1.6l3 0l0 .6l-3.7 0zm4.5 0l0-4.9c0 0 2.19-.02 2.2 0c.4 0 .8 0 1 .1c.2.1.4.3.6.5c.1.2.2.5.2.7c0 .4-.2.7-.4.9c-.2.3-.6.4-1 .5c.1.1.3.1.4.2c.1.2.3.4.5.7c0-.01.9 1.3.9 1.3l-.9 0c0 0-.62-1-.6-1c-.2-.3-.4-.5-.5-.7c-.1-.1-.2-.2-.3-.3c-.1-.1-.2-.1-.3-.1c-.1-.1-.2-.1-.4-.1c.01.03-.7 0-.7 0l0 2.2l-.7 0zm.7-2.7c0 0 1.36-.03 1.4 0c.3 0 .5-.1.7-.1c.1-.1.3-.2.3-.3c.1-.2.2-.3.2-.5c0-.2-.1-.4-.3-.5c-.1-.2-.4-.3-.8-.3c.02.03-1.5 0-1.5 0l0 1.7zm5.4 2.7l0-4.3l-1.6 0l0-.6l3.9 0l0 .6l-1.6 0l0 4.3l-.7 0zm2.9 0l0-4.9l3.6 0l0 .6l-2.9 0l0 1.5l2.7 0l0 .6l-2.7 0l0 1.6l3 0l0 .6l-3.7 0zm4.4 0l0-4.9c0 0 1.75-.02 1.8 0c.3 0 .6 0 .8.1c.3 0 .6.1.8.3c.2.2.4.5.5.9c.2.3.2.7.2 1.1c0 .4 0 .7-.1 1c-.1.3-.2.6-.3.8c-.2.1-.3.3-.5.4c-.1.1-.3.2-.6.2c-.2.1-.5.1-.8.1c.03.03-1.8 0-1.8 0zm.7-.6c0 0 1.06.05 1.1 0c.3 0 .5 0 .7 0c.2-.1.4-.2.5-.3c.1-.2.2-.4.3-.6c.1-.3.2-.6.2-1c0-.5-.1-.9-.3-1.2c-.2-.2-.4-.4-.6-.5c-.2-.1-.5-.1-.9-.1c.04-.03-1 0-1 0l0 3.7zm7 .6l-1.3-4.9l.6 0c0 0 .8 3.23.8 3.2c.1.4.1.7.2 1c.1-.5.2-.8.2-.9c.03.03 1-3.3 1-3.3l.8 0c0 0 .67 2.49.7 2.5c.1.6.3 1.2.4 1.7c0-.3.1-.6.2-1c0-.04.8-3.2.8-3.2l.6 0l-1.3 4.9l-.7 0c0 0-1-3.74-1-3.7c-.1-.4-.1-.5-.2-.6c0 .2-.1.4-.1.6c0-.04-1 3.7-1 3.7l-.7 0zm4.8 0l1.9-4.9l.7 0l2 4.9l-.7 0l-.6-1.5l-2.1 0l-.5 1.5l-.7 0zm1.4-2l1.7 0c0 0-.52-1.37-.5-1.4c-.2-.4-.3-.7-.4-1c0 .3-.1.6-.2.9c-.04.05-.6 1.5-.6 1.5zm3.4.4c0 0 .6 0 .6 0c.1.2.1.4.2.6c.1.2.3.3.5.4c.3.1.5.1.8.1c.2 0 .5 0 .7-.1c.1-.1.3-.2.4-.3c.1-.1.1-.3.1-.4c0-.2 0-.3-.1-.4c-.1-.1-.3-.2-.5-.3c-.1-.1-.4-.1-.8-.3c-.5-.1-.8-.2-1-.3c-.2-.1-.4-.2-.5-.4c-.1-.2-.2-.4-.2-.6c0-.3.1-.5.2-.7c.2-.3.4-.4.6-.5c.3-.1.6-.2.9-.2c.4 0 .7.1 1 .2c.3.1.5.3.7.5c.1.2.2.5.2.8c0 0-.6 0-.6 0c-.1-.3-.2-.5-.4-.7c-.2-.1-.5-.2-.8-.2c-.4 0-.7 0-.9.2c-.2.1-.3.3-.3.5c0 .2.1.3.2.5c.1.1.5.2 1 .3c.5.1.9.2 1.1.3c.3.2.5.3.6.5c.2.2.2.5.2.7c0 .3 0 .5-.2.8c-.1.2-.3.4-.6.5c-.3.2-.6.2-1 .2c-.4 0-.8 0-1.1-.2c-.3-.1-.5-.3-.7-.6c-.2-.2-.3-.5-.3-.9zm5.9 1.6l0-4.3l-1.6 0l0-.6l3.9 0l0 .6l-1.6 0l0 4.3l-.7 0zm2.9 0l0-4.9l3.6 0l0 .6l-2.9 0l0 1.5l2.7 0l0 .6l-2.7 0l0 1.6l3 0l0 .6l-3.7 0z" stroke="none" fill="#ffffff"/></g></svg>