<?xml version="1.0" standalone="no"?>
<!DOCTYPE svg PUBLIC "-//W3C//DTD SVG 1.1//EN" "http://www.w3.org/Graphics/SVG/1.1/DTD/svg11.dtd">
<svg xmlns="http://www.w3.org/2000/svg" version="1.1" width="1037px" height="106.5px" viewBox="0 -13 1037 106.5" style="top:-13px">
  <desc>Environmental Sustainability Report April 2021</desc>
  <defs/>
  <g id="Polygon57316">
    <path d="M 0 78.3 L 7.1 59.7 L 9.8 59.7 L 17.4 78.3 L 14.6 78.3 L 12.4 72.7 L 4.6 72.7 L 2.6 78.3 L 0 78.3 Z M 5.3 70.7 L 11.6 70.7 C 11.6 70.7 9.7 65.52 9.7 65.5 C 9.1 64 8.7 62.7 8.4 61.7 C 8.1 62.9 7.8 64 7.4 65.2 C 7.38 65.22 5.3 70.7 5.3 70.7 Z M 23.1 83.5 L 23.1 64.8 L 25.2 64.8 C 25.2 64.8 25.16 66.59 25.2 66.6 C 25.7 65.9 26.2 65.4 26.8 65 C 27.4 64.7 28.2 64.5 29.1 64.5 C 30.2 64.5 31.2 64.8 32.1 65.4 C 33 66 33.7 66.9 34.1 67.9 C 34.6 69 34.8 70.2 34.8 71.5 C 34.8 72.9 34.5 74.1 34 75.2 C 33.5 76.3 32.8 77.2 31.9 77.7 C 30.9 78.3 29.9 78.6 28.9 78.6 C 28.1 78.6 27.5 78.5 26.9 78.1 C 26.2 77.8 25.8 77.4 25.4 76.9 C 25.36 76.92 25.4 83.5 25.4 83.5 L 23.1 83.5 Z M 25.1 71.7 C 25.1 73.4 25.5 74.7 26.2 75.5 C 26.9 76.3 27.8 76.7 28.8 76.7 C 29.8 76.7 30.6 76.3 31.4 75.5 C 32.1 74.6 32.4 73.3 32.4 71.5 C 32.4 69.7 32.1 68.5 31.4 67.6 C 30.7 66.8 29.8 66.3 28.9 66.3 C 27.9 66.3 27 66.8 26.3 67.7 C 25.5 68.6 25.1 69.9 25.1 71.7 Z M 41.2 78.3 L 41.2 64.8 L 43.3 64.8 C 43.3 64.8 43.25 66.88 43.3 66.9 C 43.8 65.9 44.3 65.3 44.7 65 C 45.2 64.7 45.6 64.5 46.2 64.5 C 46.9 64.5 47.7 64.8 48.5 65.3 C 48.5 65.3 47.7 67.4 47.7 67.4 C 47.2 67.1 46.6 66.9 46.1 66.9 C 45.6 66.9 45.1 67 44.7 67.3 C 44.3 67.6 44 68.1 43.9 68.6 C 43.6 69.4 43.5 70.3 43.5 71.3 C 43.48 71.26 43.5 78.3 43.5 78.3 L 41.2 78.3 Z M 53.9 62.3 L 53.9 59.7 L 56.2 59.7 L 56.2 62.3 L 53.9 62.3 Z M 53.9 78.3 L 53.9 64.8 L 56.2 64.8 L 56.2 78.3 L 53.9 78.3 Z M 63.2 78.3 L 63.2 59.7 L 65.5 59.7 L 65.5 78.3 L 63.2 78.3 Z M 95.5 76.1 L 95.5 78.3 C 95.5 78.3 83.16 78.32 83.2 78.3 C 83.1 77.8 83.2 77.2 83.4 76.7 C 83.7 75.9 84.2 75.1 84.9 74.3 C 85.6 73.4 86.6 72.5 87.9 71.4 C 89.9 69.8 91.3 68.5 92 67.5 C 92.7 66.5 93.1 65.6 93.1 64.7 C 93.1 63.8 92.8 63.1 92.1 62.5 C 91.5 61.8 90.6 61.5 89.6 61.5 C 88.5 61.5 87.6 61.9 86.9 62.5 C 86.3 63.2 86 64.1 85.9 65.3 C 85.9 65.3 83.6 65 83.6 65 C 83.8 63.3 84.4 61.9 85.4 61 C 86.5 60.1 87.9 59.6 89.6 59.6 C 91.4 59.6 92.8 60.1 93.9 61.1 C 94.9 62.1 95.4 63.3 95.4 64.8 C 95.4 65.5 95.3 66.3 95 67 C 94.7 67.7 94.2 68.5 93.5 69.3 C 92.8 70.1 91.6 71.2 89.9 72.5 C 88.6 73.7 87.7 74.5 87.3 74.9 C 86.9 75.3 86.6 75.7 86.3 76.1 C 86.34 76.12 95.5 76.1 95.5 76.1 Z M 103.4 76.7 C 102.2 75.2 101.6 72.6 101.6 69.1 C 101.6 66.9 101.8 65.2 102.2 63.8 C 102.7 62.5 103.4 61.5 104.3 60.7 C 105.1 60 106.3 59.6 107.6 59.6 C 108.6 59.6 109.5 59.8 110.3 60.2 C 111 60.6 111.6 61.2 112.1 62 C 112.6 62.7 113 63.7 113.3 64.7 C 113.6 65.8 113.7 67.3 113.7 69.1 C 113.7 71.3 113.5 73.1 113 74.4 C 112.6 75.8 111.9 76.8 111 77.5 C 110.1 78.3 109 78.6 107.6 78.6 C 105.8 78.6 104.4 78 103.4 76.7 C 103.4 76.7 103.4 76.7 103.4 76.7 Z M 105.1 62.9 C 104.3 64 103.9 66.1 103.9 69.1 C 103.9 72.2 104.3 74.2 105 75.2 C 105.7 76.3 106.6 76.8 107.6 76.8 C 108.7 76.8 109.6 76.3 110.3 75.2 C 111 74.2 111.3 72.2 111.3 69.1 C 111.3 66.1 111 64 110.3 63 C 109.6 62 108.7 61.5 107.6 61.5 C 106.5 61.5 105.7 62 105.1 62.9 C 105.1 62.9 105.1 62.9 105.1 62.9 Z M 131.7 76.1 L 131.7 78.3 C 131.7 78.3 119.35 78.32 119.4 78.3 C 119.3 77.8 119.4 77.2 119.6 76.7 C 119.9 75.9 120.4 75.1 121.1 74.3 C 121.8 73.4 122.8 72.5 124.1 71.4 C 126.1 69.8 127.5 68.5 128.2 67.5 C 128.9 66.5 129.3 65.6 129.3 64.7 C 129.3 63.8 129 63.1 128.3 62.5 C 127.7 61.8 126.8 61.5 125.8 61.5 C 124.7 61.5 123.8 61.9 123.1 62.5 C 122.5 63.2 122.1 64.1 122.1 65.3 C 122.1 65.3 119.8 65 119.8 65 C 119.9 63.3 120.5 61.9 121.6 61 C 122.6 60.1 124.1 59.6 125.8 59.6 C 127.6 59.6 129 60.1 130.1 61.1 C 131.1 62.1 131.6 63.3 131.6 64.8 C 131.6 65.5 131.5 66.3 131.2 67 C 130.9 67.7 130.4 68.5 129.7 69.3 C 128.9 70.1 127.8 71.2 126.1 72.5 C 124.8 73.7 123.9 74.5 123.5 74.9 C 123.1 75.3 122.8 75.7 122.5 76.1 C 122.52 76.12 131.7 76.1 131.7 76.1 Z M 145.6 78.3 L 143.3 78.3 C 143.3 78.3 143.29 63.76 143.3 63.8 C 142.7 64.3 142 64.8 141.1 65.3 C 140.2 65.9 139.4 66.3 138.7 66.5 C 138.7 66.5 138.7 64.3 138.7 64.3 C 140 63.7 141.1 63 142.1 62.1 C 143 61.3 143.7 60.4 144.1 59.6 C 144.1 59.63 145.6 59.6 145.6 59.6 L 145.6 78.3 Z " stroke="none" fill="#ffffff"/>
  </g>
  <g id="Polygon57315">
    <path d="M 3.2 29.1 L 3.2 0.5 L 23.9 0.5 L 23.9 3.9 L 7 3.9 L 7 12.6 L 22.8 12.6 L 22.8 16 L 7 16 L 7 25.7 L 24.5 25.7 L 24.5 29.1 L 3.2 29.1 Z M 34.2 29.1 L 34.2 8.4 L 37.4 8.4 C 37.4 8.4 37.35 11.33 37.4 11.3 C 38.9 9 41.1 7.9 44 7.9 C 45.2 7.9 46.4 8.1 47.4 8.6 C 48.4 9 49.2 9.6 49.8 10.4 C 50.3 11.1 50.6 11.9 50.8 12.9 C 51 13.6 51 14.7 51 16.4 C 51.04 16.37 51 29.1 51 29.1 L 47.5 29.1 C 47.5 29.1 47.53 16.5 47.5 16.5 C 47.5 15.1 47.4 14 47.1 13.3 C 46.8 12.6 46.4 12 45.7 11.6 C 45 11.2 44.1 11 43.2 11 C 41.7 11 40.4 11.4 39.3 12.4 C 38.2 13.3 37.7 15.1 37.7 17.8 C 37.7 17.79 37.7 29.1 37.7 29.1 L 34.2 29.1 Z M 66.8 29.1 L 58.9 8.4 L 62.7 8.4 C 62.7 8.4 67.11 20.8 67.1 20.8 C 67.6 22.1 68 23.5 68.4 25 C 68.8 23.9 69.2 22.6 69.8 21 C 69.75 21.04 74.4 8.4 74.4 8.4 L 78 8.4 L 70.1 29.1 L 66.8 29.1 Z M 86.6 4.5 L 86.6 0.5 L 90.1 0.5 L 90.1 4.5 L 86.6 4.5 Z M 86.6 29.1 L 86.6 8.4 L 90.1 8.4 L 90.1 29.1 L 86.6 29.1 Z M 100.8 29.1 L 100.8 8.4 L 104 8.4 C 104 8.4 103.97 11.52 104 11.5 C 104.8 10.1 105.5 9.1 106.2 8.6 C 106.9 8.1 107.6 7.9 108.5 7.9 C 109.6 7.9 110.8 8.3 112.1 9 C 112.1 9 110.9 12.3 110.9 12.3 C 110 11.8 109.1 11.5 108.3 11.5 C 107.5 11.5 106.8 11.8 106.2 12.2 C 105.6 12.7 105.2 13.3 104.9 14.2 C 104.5 15.4 104.3 16.8 104.3 18.3 C 104.32 18.26 104.3 29.1 104.3 29.1 L 100.8 29.1 Z M 118.4 18.8 C 118.4 14.9 119.4 12.1 121.6 10.2 C 123.3 8.7 125.5 7.9 128.1 7.9 C 130.9 7.9 133.3 8.8 135.1 10.7 C 136.9 12.6 137.8 15.2 137.8 18.5 C 137.8 21.1 137.4 23.2 136.6 24.8 C 135.8 26.3 134.6 27.5 133.1 28.3 C 131.6 29.2 129.9 29.6 128.1 29.6 C 125.2 29.6 122.8 28.7 121 26.8 C 119.3 24.9 118.4 22.3 118.4 18.8 Z M 122 18.8 C 122 21.4 122.5 23.4 123.7 24.7 C 124.9 26 126.3 26.7 128.1 26.7 C 129.8 26.7 131.3 26 132.4 24.7 C 133.6 23.4 134.2 21.4 134.2 18.6 C 134.2 16.1 133.6 14.1 132.4 12.8 C 131.3 11.5 129.8 10.8 128.1 10.8 C 126.3 10.8 124.9 11.5 123.7 12.8 C 122.5 14.1 122 16.1 122 18.8 Z M 147.5 29.1 L 147.5 8.4 L 150.6 8.4 C 150.6 8.4 150.62 11.33 150.6 11.3 C 152.1 9 154.3 7.9 157.2 7.9 C 158.5 7.9 159.6 8.1 160.7 8.6 C 161.7 9 162.5 9.6 163 10.4 C 163.5 11.1 163.9 11.9 164.1 12.9 C 164.2 13.6 164.3 14.7 164.3 16.4 C 164.31 16.37 164.3 29.1 164.3 29.1 L 160.8 29.1 C 160.8 29.1 160.8 16.5 160.8 16.5 C 160.8 15.1 160.7 14 160.4 13.3 C 160.1 12.6 159.6 12 158.9 11.6 C 158.2 11.2 157.4 11 156.5 11 C 155 11 153.7 11.4 152.6 12.4 C 151.5 13.3 151 15.1 151 17.8 C 150.97 17.79 151 29.1 151 29.1 L 147.5 29.1 Z M 175 29.1 L 175 8.4 L 178.2 8.4 C 178.2 8.4 178.16 11.29 178.2 11.3 C 178.8 10.3 179.7 9.5 180.8 8.8 C 181.8 8.2 183.1 7.9 184.4 7.9 C 186 7.9 187.2 8.2 188.2 8.9 C 189.2 9.5 189.9 10.4 190.3 11.5 C 191.9 9.1 194.1 7.9 196.7 7.9 C 198.8 7.9 200.4 8.5 201.5 9.6 C 202.6 10.8 203.1 12.5 203.1 14.9 C 203.12 14.88 203.1 29.1 203.1 29.1 L 199.6 29.1 C 199.6 29.1 199.62 16.05 199.6 16.1 C 199.6 14.6 199.5 13.6 199.3 13 C 199.1 12.4 198.6 11.9 198 11.5 C 197.4 11.1 196.7 11 195.9 11 C 194.5 11 193.3 11.4 192.3 12.4 C 191.3 13.4 190.9 14.9 190.9 17.1 C 190.85 17.07 190.9 29.1 190.9 29.1 L 187.3 29.1 C 187.3 29.1 187.34 15.64 187.3 15.6 C 187.3 14.1 187.1 12.9 186.5 12.1 C 185.9 11.3 185 11 183.7 11 C 182.7 11 181.8 11.2 180.9 11.7 C 180.1 12.3 179.5 13 179.1 14 C 178.7 15 178.5 16.5 178.5 18.4 C 178.53 18.36 178.5 29.1 178.5 29.1 L 175 29.1 Z M 228 22.4 C 228 22.4 231.7 22.9 231.7 22.9 C 231.1 25 230 26.7 228.5 27.8 C 226.9 29 225 29.6 222.5 29.6 C 219.5 29.6 217.1 28.7 215.3 26.8 C 213.6 24.9 212.7 22.3 212.7 18.9 C 212.7 15.4 213.6 12.7 215.4 10.8 C 217.2 8.9 219.5 7.9 222.3 7.9 C 225.1 7.9 227.4 8.9 229.1 10.7 C 230.9 12.6 231.8 15.3 231.8 18.7 C 231.8 18.9 231.8 19.2 231.8 19.6 C 231.8 19.6 216.3 19.6 216.3 19.6 C 216.4 21.9 217.1 23.7 218.2 24.9 C 219.4 26.1 220.8 26.7 222.6 26.7 C 223.9 26.7 225 26.4 225.9 25.7 C 226.8 25 227.5 23.9 228 22.4 Z M 216.5 16.8 C 216.5 16.8 228.1 16.8 228.1 16.8 C 227.9 15 227.5 13.7 226.7 12.8 C 225.6 11.5 224.2 10.8 222.4 10.8 C 220.8 10.8 219.4 11.3 218.3 12.4 C 217.2 13.5 216.6 14.9 216.5 16.8 Z M 241.5 29.1 L 241.5 8.4 L 244.7 8.4 C 244.7 8.4 244.68 11.33 244.7 11.3 C 246.2 9 248.4 7.9 251.3 7.9 C 252.5 7.9 253.7 8.1 254.7 8.6 C 255.8 9 256.6 9.6 257.1 10.4 C 257.6 11.1 258 11.9 258.2 12.9 C 258.3 13.6 258.4 14.7 258.4 16.4 C 258.38 16.37 258.4 29.1 258.4 29.1 L 254.9 29.1 C 254.9 29.1 254.86 16.5 254.9 16.5 C 254.9 15.1 254.7 14 254.4 13.3 C 254.2 12.6 253.7 12 253 11.6 C 252.3 11.2 251.5 11 250.5 11 C 249 11 247.8 11.4 246.7 12.4 C 245.6 13.3 245 15.1 245 17.8 C 245.04 17.79 245 29.1 245 29.1 L 241.5 29.1 Z M 274.9 26.1 C 275.3 26.1 275.8 26.1 276.5 26 C 276.5 26 277 29.1 277 29.1 C 276 29.3 275.1 29.4 274.3 29.4 C 273.1 29.4 272.1 29.2 271.4 28.8 C 270.7 28.4 270.2 27.9 269.9 27.2 C 269.6 26.5 269.5 25.2 269.5 23 C 269.45 23.05 269.5 11.1 269.5 11.1 L 266.9 11.1 L 266.9 8.4 L 269.5 8.4 L 269.5 3.2 L 272.9 1.1 L 272.9 8.4 L 276.5 8.4 L 276.5 11.1 L 272.9 11.1 C 272.9 11.1 272.95 23.24 272.9 23.2 C 272.9 24.2 273 24.9 273.1 25.2 C 273.3 25.5 273.5 25.7 273.7 25.9 C 274 26 274.4 26.1 274.9 26.1 C 274.9 26.1 274.9 26.1 274.9 26.1 Z M 300 29.1 C 299.7 28.4 299.4 27.5 299.3 26.6 C 298 27.7 296.8 28.5 295.6 28.9 C 294.4 29.4 293.1 29.6 291.7 29.6 C 289.4 29.6 287.7 29 286.4 27.9 C 285.2 26.8 284.6 25.4 284.6 23.7 C 284.6 22.6 284.8 21.7 285.3 20.9 C 285.7 20 286.4 19.4 287.1 18.8 C 287.9 18.3 288.7 18 289.6 17.7 C 290.3 17.5 291.4 17.3 292.8 17.2 C 295.6 16.8 297.7 16.4 299 16 C 299 15.5 299 15.2 299 15 C 299 13.6 298.7 12.6 298 12 C 297.2 11.2 295.8 10.8 294 10.8 C 292.4 10.8 291.2 11.1 290.4 11.7 C 289.6 12.3 289 13.3 288.6 14.8 C 288.6 14.8 285.2 14.3 285.2 14.3 C 285.5 12.8 286 11.6 286.7 10.7 C 287.5 9.8 288.5 9.1 289.8 8.6 C 291.2 8.2 292.8 7.9 294.6 7.9 C 296.3 7.9 297.8 8.1 298.9 8.5 C 300 9 300.8 9.5 301.3 10.1 C 301.8 10.7 302.2 11.5 302.4 12.5 C 302.5 13.1 302.6 14.2 302.6 15.7 C 302.6 15.7 302.6 20.4 302.6 20.4 C 302.6 23.7 302.7 25.8 302.8 26.6 C 303 27.5 303.3 28.3 303.7 29.1 C 303.69 29.12 300 29.1 300 29.1 C 300 29.1 300.02 29.12 300 29.1 Z M 299 18.7 C 297.7 19.2 295.8 19.7 293.3 20 C 291.8 20.2 290.8 20.5 290.2 20.7 C 289.6 21 289.2 21.4 288.8 21.9 C 288.5 22.4 288.3 22.9 288.3 23.6 C 288.3 24.5 288.7 25.3 289.4 25.9 C 290.1 26.5 291.2 26.8 292.5 26.8 C 293.9 26.8 295.1 26.5 296.1 25.9 C 297.2 25.4 298 24.5 298.5 23.5 C 298.8 22.7 299 21.5 299 20 C 299 20 299 18.7 299 18.7 Z M 313.3 29.1 L 313.3 0.5 L 316.8 0.5 L 316.8 29.1 L 313.3 29.1 Z M 344.6 19.9 C 344.6 19.9 348.1 19.6 348.1 19.6 C 348.3 21 348.7 22.2 349.3 23.1 C 349.9 24.1 350.9 24.8 352.2 25.4 C 353.5 25.9 355 26.2 356.6 26.2 C 358 26.2 359.3 26 360.4 25.6 C 361.5 25.1 362.4 24.5 362.9 23.8 C 363.4 23.1 363.7 22.2 363.7 21.3 C 363.7 20.4 363.4 19.7 362.9 19 C 362.4 18.3 361.5 17.8 360.3 17.3 C 359.6 17 357.9 16.5 355.2 15.9 C 352.6 15.3 350.8 14.7 349.7 14.1 C 348.4 13.4 347.3 12.5 346.7 11.5 C 346 10.4 345.7 9.2 345.7 7.9 C 345.7 6.4 346.1 5.1 346.9 3.8 C 347.7 2.6 348.9 1.6 350.5 1 C 352.1 0.3 353.8 0 355.7 0 C 357.9 0 359.7 0.3 361.3 1 C 363 1.7 364.2 2.7 365.1 4 C 366 5.4 366.4 6.9 366.5 8.6 C 366.5 8.6 362.9 8.8 362.9 8.8 C 362.7 7 362 5.7 360.9 4.7 C 359.8 3.8 358.1 3.3 355.9 3.3 C 353.6 3.3 351.9 3.8 350.9 4.6 C 349.8 5.4 349.3 6.5 349.3 7.6 C 349.3 8.7 349.7 9.5 350.4 10.2 C 351.2 10.8 353.1 11.5 356.1 12.2 C 359.2 12.9 361.3 13.5 362.5 14 C 364.1 14.8 365.4 15.8 366.2 17 C 367 18.1 367.4 19.5 367.4 21 C 367.4 22.6 366.9 24 366 25.3 C 365.2 26.7 363.9 27.7 362.3 28.5 C 360.7 29.2 358.8 29.6 356.8 29.6 C 354.2 29.6 352 29.2 350.3 28.5 C 348.5 27.7 347.1 26.6 346.1 25.1 C 345.1 23.6 344.6 21.8 344.6 19.9 Z M 391 29.1 C 391 29.1 391.04 26.07 391 26.1 C 389.4 28.4 387.2 29.6 384.5 29.6 C 383.2 29.6 382.1 29.4 381 28.9 C 380 28.4 379.2 27.8 378.7 27.1 C 378.2 26.4 377.8 25.5 377.6 24.5 C 377.4 23.8 377.4 22.7 377.4 21.2 C 377.37 21.23 377.4 8.4 377.4 8.4 L 380.9 8.4 C 380.9 8.4 380.89 19.88 380.9 19.9 C 380.9 21.7 381 23 381.1 23.6 C 381.3 24.5 381.8 25.2 382.5 25.8 C 383.2 26.3 384.1 26.6 385.2 26.6 C 386.2 26.6 387.2 26.3 388.1 25.8 C 389.1 25.2 389.7 24.5 390.1 23.5 C 390.5 22.6 390.7 21.3 390.7 19.5 C 390.67 19.49 390.7 8.4 390.7 8.4 L 394.2 8.4 L 394.2 29.1 L 391 29.1 Z M 403.6 22.9 C 403.6 22.9 407.1 22.4 407.1 22.4 C 407.3 23.8 407.8 24.8 408.7 25.6 C 409.6 26.3 410.9 26.7 412.5 26.7 C 414.1 26.7 415.3 26.4 416.1 25.7 C 416.8 25.1 417.2 24.3 417.2 23.4 C 417.2 22.6 416.9 22 416.2 21.5 C 415.7 21.2 414.5 20.8 412.6 20.3 C 410 19.7 408.2 19.1 407.2 18.6 C 406.3 18.2 405.5 17.5 405 16.7 C 404.5 15.8 404.2 14.9 404.2 13.9 C 404.2 13 404.4 12.1 404.8 11.3 C 405.3 10.5 405.8 9.9 406.6 9.4 C 407.1 9 407.9 8.6 408.8 8.3 C 409.8 8.1 410.8 7.9 411.8 7.9 C 413.5 7.9 414.9 8.1 416.1 8.6 C 417.4 9.1 418.3 9.7 418.9 10.5 C 419.4 11.3 419.8 12.4 420.1 13.7 C 420.1 13.7 416.6 14.2 416.6 14.2 C 416.5 13.1 416 12.3 415.3 11.7 C 414.5 11.1 413.5 10.8 412.1 10.8 C 410.5 10.8 409.3 11.1 408.6 11.6 C 408 12.1 407.6 12.8 407.6 13.5 C 407.6 13.9 407.8 14.3 408 14.7 C 408.3 15.1 408.8 15.4 409.4 15.6 C 409.7 15.8 410.8 16.1 412.5 16.5 C 415 17.2 416.7 17.8 417.7 18.2 C 418.7 18.6 419.5 19.2 420 20 C 420.6 20.8 420.9 21.8 420.9 23 C 420.9 24.2 420.5 25.3 419.8 26.3 C 419.1 27.4 418.2 28.2 416.9 28.7 C 415.6 29.3 414.1 29.6 412.5 29.6 C 409.8 29.6 407.7 29 406.3 27.9 C 404.9 26.8 404 25.1 403.6 22.9 Z M 436.4 26.1 C 436.8 26.1 437.3 26.1 437.9 26 C 437.9 26 438.4 29.1 438.4 29.1 C 437.5 29.3 436.6 29.4 435.8 29.4 C 434.5 29.4 433.5 29.2 432.8 28.8 C 432.1 28.4 431.6 27.9 431.3 27.2 C 431.1 26.5 430.9 25.2 430.9 23 C 430.91 23.05 430.9 11.1 430.9 11.1 L 428.3 11.1 L 428.3 8.4 L 430.9 8.4 L 430.9 3.2 L 434.4 1.1 L 434.4 8.4 L 437.9 8.4 L 437.9 11.1 L 434.4 11.1 C 434.4 11.1 434.4 23.24 434.4 23.2 C 434.4 24.2 434.5 24.9 434.6 25.2 C 434.7 25.5 434.9 25.7 435.2 25.9 C 435.5 26 435.9 26.1 436.4 26.1 C 436.4 26.1 436.4 26.1 436.4 26.1 Z M 461.5 29.1 C 461.1 28.4 460.9 27.5 460.8 26.6 C 459.5 27.7 458.2 28.5 457 28.9 C 455.8 29.4 454.5 29.6 453.1 29.6 C 450.9 29.6 449.1 29 447.9 27.9 C 446.7 26.8 446 25.4 446 23.7 C 446 22.6 446.3 21.7 446.7 20.9 C 447.2 20 447.8 19.4 448.6 18.8 C 449.3 18.3 450.2 18 451.1 17.7 C 451.8 17.5 452.8 17.3 454.2 17.2 C 457.1 16.8 459.1 16.4 460.5 16 C 460.5 15.5 460.5 15.2 460.5 15 C 460.5 13.6 460.2 12.6 459.5 12 C 458.6 11.2 457.3 10.8 455.5 10.8 C 453.8 10.8 452.6 11.1 451.8 11.7 C 451.1 12.3 450.5 13.3 450.1 14.8 C 450.1 14.8 446.7 14.3 446.7 14.3 C 447 12.8 447.5 11.6 448.2 10.7 C 448.9 9.8 449.9 9.1 451.3 8.6 C 452.7 8.2 454.2 7.9 456 7.9 C 457.8 7.9 459.2 8.1 460.3 8.5 C 461.4 9 462.2 9.5 462.8 10.1 C 463.3 10.7 463.7 11.5 463.9 12.5 C 464 13.1 464 14.2 464 15.7 C 464 15.7 464 20.4 464 20.4 C 464 23.7 464.1 25.8 464.3 26.6 C 464.4 27.5 464.7 28.3 465.2 29.1 C 465.15 29.12 461.5 29.1 461.5 29.1 C 461.5 29.1 461.48 29.12 461.5 29.1 Z M 460.5 18.7 C 459.2 19.2 457.3 19.7 454.7 20 C 453.3 20.2 452.3 20.5 451.7 20.7 C 451.1 21 450.6 21.4 450.3 21.9 C 450 22.4 449.8 22.9 449.8 23.6 C 449.8 24.5 450.2 25.3 450.9 25.9 C 451.6 26.5 452.6 26.8 454 26.8 C 455.3 26.8 456.5 26.5 457.6 25.9 C 458.6 25.4 459.4 24.5 459.9 23.5 C 460.3 22.7 460.5 21.5 460.5 20 C 460.5 20 460.5 18.7 460.5 18.7 Z M 474.8 4.5 L 474.8 0.5 L 478.3 0.5 L 478.3 4.5 L 474.8 4.5 Z M 474.8 29.1 L 474.8 8.4 L 478.3 8.4 L 478.3 29.1 L 474.8 29.1 Z M 489 29.1 L 489 8.4 L 492.2 8.4 C 492.2 8.4 492.2 11.33 492.2 11.3 C 493.7 9 495.9 7.9 498.8 7.9 C 500 7.9 501.2 8.1 502.2 8.6 C 503.3 9 504.1 9.6 504.6 10.4 C 505.1 11.1 505.5 11.9 505.7 12.9 C 505.8 13.6 505.9 14.7 505.9 16.4 C 505.89 16.37 505.9 29.1 505.9 29.1 L 502.4 29.1 C 502.4 29.1 502.37 16.5 502.4 16.5 C 502.4 15.1 502.2 14 502 13.3 C 501.7 12.6 501.2 12 500.5 11.6 C 499.8 11.2 499 11 498.1 11 C 496.6 11 495.3 11.4 494.2 12.4 C 493.1 13.3 492.5 15.1 492.5 17.8 C 492.55 17.79 492.5 29.1 492.5 29.1 L 489 29.1 Z M 530.9 29.1 C 530.5 28.4 530.3 27.5 530.2 26.6 C 528.9 27.7 527.6 28.5 526.4 28.9 C 525.2 29.4 523.9 29.6 522.5 29.6 C 520.2 29.6 518.5 29 517.3 27.9 C 516 26.8 515.4 25.4 515.4 23.7 C 515.4 22.6 515.7 21.7 516.1 20.9 C 516.6 20 517.2 19.4 517.9 18.8 C 518.7 18.3 519.5 18 520.5 17.7 C 521.2 17.5 522.2 17.3 523.6 17.2 C 526.4 16.8 528.5 16.4 529.9 16 C 529.9 15.5 529.9 15.2 529.9 15 C 529.9 13.6 529.6 12.6 528.9 12 C 528 11.2 526.7 10.8 524.9 10.8 C 523.2 10.8 522 11.1 521.2 11.7 C 520.4 12.3 519.9 13.3 519.5 14.8 C 519.5 14.8 516 14.3 516 14.3 C 516.4 12.8 516.9 11.6 517.6 10.7 C 518.3 9.8 519.3 9.1 520.7 8.6 C 522 8.2 523.6 7.9 525.4 7.9 C 527.2 7.9 528.6 8.1 529.7 8.5 C 530.8 9 531.6 9.5 532.2 10.1 C 532.7 10.7 533 11.5 533.2 12.5 C 533.4 13.1 533.4 14.2 533.4 15.7 C 533.4 15.7 533.4 20.4 533.4 20.4 C 533.4 23.7 533.5 25.8 533.6 26.6 C 533.8 27.5 534.1 28.3 534.5 29.1 C 534.53 29.12 530.9 29.1 530.9 29.1 C 530.9 29.1 530.86 29.12 530.9 29.1 Z M 529.9 18.7 C 528.6 19.2 526.7 19.7 524.1 20 C 522.7 20.2 521.7 20.5 521.1 20.7 C 520.5 21 520 21.4 519.7 21.9 C 519.3 22.4 519.2 22.9 519.2 23.6 C 519.2 24.5 519.5 25.3 520.2 25.9 C 521 26.5 522 26.8 523.4 26.8 C 524.7 26.8 525.9 26.5 527 25.9 C 528 25.4 528.8 24.5 529.3 23.5 C 529.7 22.7 529.9 21.5 529.9 20 C 529.9 20 529.9 18.7 529.9 18.7 Z M 547.5 29.1 L 544.2 29.1 L 544.2 0.5 L 547.7 0.5 C 547.7 0.5 547.72 10.7 547.7 10.7 C 549.2 8.8 551.1 7.9 553.4 7.9 C 554.7 7.9 555.9 8.2 557 8.7 C 558.2 9.2 559.1 9.9 559.8 10.8 C 560.6 11.8 561.1 12.9 561.6 14.2 C 562 15.5 562.2 16.9 562.2 18.4 C 562.2 22 561.3 24.7 559.6 26.7 C 557.8 28.6 555.7 29.6 553.2 29.6 C 550.8 29.6 548.9 28.6 547.5 26.5 C 547.46 26.52 547.5 29.1 547.5 29.1 Z M 547.4 18.6 C 547.4 21.1 547.8 22.9 548.4 24 C 549.5 25.8 551 26.7 552.9 26.7 C 554.5 26.7 555.8 26 556.9 24.7 C 558 23.4 558.6 21.4 558.6 18.7 C 558.6 16 558.1 14 557 12.7 C 555.9 11.4 554.6 10.8 553.1 10.8 C 551.6 10.8 550.2 11.5 549.1 12.8 C 548 14.1 547.4 16.1 547.4 18.6 Z M 571.9 4.5 L 571.9 0.5 L 575.4 0.5 L 575.4 4.5 L 571.9 4.5 Z M 571.9 29.1 L 571.9 8.4 L 575.4 8.4 L 575.4 29.1 L 571.9 29.1 Z M 586.1 29.1 L 586.1 0.5 L 589.6 0.5 L 589.6 29.1 L 586.1 29.1 Z M 600.4 4.5 L 600.4 0.5 L 603.9 0.5 L 603.9 4.5 L 600.4 4.5 Z M 600.4 29.1 L 600.4 8.4 L 603.9 8.4 L 603.9 29.1 L 600.4 29.1 Z M 620.7 26.1 C 621.1 26.1 621.6 26.1 622.3 26 C 622.3 26 622.8 29.1 622.8 29.1 C 621.8 29.3 620.9 29.4 620.1 29.4 C 618.8 29.4 617.8 29.2 617.1 28.8 C 616.4 28.4 615.9 27.9 615.7 27.2 C 615.4 26.5 615.2 25.2 615.2 23 C 615.22 23.05 615.2 11.1 615.2 11.1 L 612.6 11.1 L 612.6 8.4 L 615.2 8.4 L 615.2 3.2 L 618.7 1.1 L 618.7 8.4 L 622.3 8.4 L 622.3 11.1 L 618.7 11.1 C 618.7 11.1 618.72 23.24 618.7 23.2 C 618.7 24.2 618.8 24.9 618.9 25.2 C 619 25.5 619.2 25.7 619.5 25.9 C 619.8 26 620.2 26.1 620.7 26.1 C 620.7 26.1 620.7 26.1 620.7 26.1 Z M 634.2 37.5 C 633.5 37.5 632.7 37.4 631.9 37.1 C 631.9 37.1 631.5 33.8 631.5 33.8 C 632.3 34 633 34.1 633.5 34.1 C 634.3 34.1 634.9 34 635.4 33.7 C 635.9 33.5 636.3 33.1 636.6 32.6 C 636.8 32.3 637.1 31.4 637.6 30 C 637.7 29.8 637.8 29.5 637.9 29.2 C 637.94 29.16 630.1 8.4 630.1 8.4 L 633.9 8.4 C 633.9 8.4 638.17 20.39 638.2 20.4 C 638.7 21.9 639.2 23.5 639.7 25.2 C 640.1 23.6 640.6 22 641.1 20.5 C 641.12 20.47 645.6 8.4 645.6 8.4 L 649.1 8.4 C 649.1 8.4 641.18 29.47 641.2 29.5 C 640.3 31.8 639.7 33.3 639.2 34.2 C 638.6 35.3 637.9 36.2 637.1 36.7 C 636.3 37.3 635.3 37.5 634.2 37.5 C 634.2 37.5 634.2 37.5 634.2 37.5 Z M 675.7 29.1 L 675.7 0.5 C 675.7 0.5 688.38 0.49 688.4 0.5 C 690.9 0.5 692.9 0.7 694.2 1.3 C 695.5 1.8 696.6 2.7 697.4 4 C 698.2 5.3 698.6 6.7 698.6 8.3 C 698.6 10.3 697.9 12 696.6 13.4 C 695.3 14.8 693.3 15.7 690.5 16.1 C 691.5 16.6 692.3 17.1 692.8 17.5 C 693.9 18.5 694.9 19.8 695.9 21.3 C 695.94 21.33 700.9 29.1 700.9 29.1 L 696.2 29.1 C 696.2 29.1 692.36 23.16 692.4 23.2 C 691.3 21.4 690.3 20.1 689.6 19.2 C 688.9 18.3 688.3 17.7 687.7 17.3 C 687.1 16.9 686.6 16.7 686 16.5 C 685.5 16.5 684.8 16.4 683.9 16.4 C 683.87 16.41 679.5 16.4 679.5 16.4 L 679.5 29.1 L 675.7 29.1 Z M 679.5 13.1 C 679.5 13.1 687.62 13.13 687.6 13.1 C 689.3 13.1 690.7 12.9 691.7 12.6 C 692.7 12.2 693.4 11.7 693.9 10.9 C 694.4 10.1 694.7 9.2 694.7 8.3 C 694.7 6.9 694.2 5.8 693.2 5 C 692.2 4.1 690.7 3.7 688.5 3.7 C 688.53 3.65 679.5 3.7 679.5 3.7 L 679.5 13.1 Z M 723.1 22.4 C 723.1 22.4 726.8 22.9 726.8 22.9 C 726.2 25 725.1 26.7 723.6 27.8 C 722 29 720.1 29.6 717.7 29.6 C 714.6 29.6 712.2 28.7 710.4 26.8 C 708.7 24.9 707.8 22.3 707.8 18.9 C 707.8 15.4 708.7 12.7 710.5 10.8 C 712.3 8.9 714.6 7.9 717.5 7.9 C 720.2 7.9 722.5 8.9 724.3 10.7 C 726 12.6 726.9 15.3 726.9 18.7 C 726.9 18.9 726.9 19.2 726.9 19.6 C 726.9 19.6 711.4 19.6 711.4 19.6 C 711.5 21.9 712.2 23.7 713.3 24.9 C 714.5 26.1 715.9 26.7 717.7 26.7 C 719 26.7 720.1 26.4 721 25.7 C 721.9 25 722.6 23.9 723.1 22.4 Z M 711.6 16.8 C 711.6 16.8 723.2 16.8 723.2 16.8 C 723 15 722.6 13.7 721.9 12.8 C 720.7 11.5 719.3 10.8 717.5 10.8 C 715.9 10.8 714.5 11.3 713.4 12.4 C 712.3 13.5 711.7 14.9 711.6 16.8 Z M 736.6 37.1 L 736.6 8.4 L 739.8 8.4 C 739.8 8.4 739.84 11.07 739.8 11.1 C 740.6 10 741.4 9.2 742.4 8.7 C 743.3 8.2 744.5 7.9 745.9 7.9 C 747.6 7.9 749.2 8.4 750.5 9.3 C 751.9 10.2 752.9 11.5 753.6 13.1 C 754.3 14.8 754.6 16.6 754.6 18.6 C 754.6 20.7 754.3 22.6 753.5 24.3 C 752.7 26 751.6 27.3 750.2 28.2 C 748.7 29.1 747.2 29.6 745.6 29.6 C 744.4 29.6 743.4 29.3 742.4 28.8 C 741.5 28.4 740.7 27.7 740.2 27 C 740.15 26.97 740.2 37.1 740.2 37.1 L 736.6 37.1 Z M 739.8 18.9 C 739.8 21.5 740.4 23.5 741.4 24.8 C 742.5 26.1 743.8 26.7 745.4 26.7 C 746.9 26.7 748.3 26 749.4 24.7 C 750.5 23.4 751 21.3 751 18.6 C 751 15.9 750.5 14 749.4 12.6 C 748.3 11.3 747 10.7 745.5 10.7 C 744 10.7 742.7 11.4 741.5 12.8 C 740.4 14.2 739.8 16.2 739.8 18.9 Z M 763.2 18.8 C 763.2 14.9 764.2 12.1 766.4 10.2 C 768.2 8.7 770.3 7.9 772.9 7.9 C 775.8 7.9 778.1 8.8 779.9 10.7 C 781.7 12.6 782.6 15.2 782.6 18.5 C 782.6 21.1 782.2 23.2 781.4 24.8 C 780.6 26.3 779.4 27.5 777.9 28.3 C 776.4 29.2 774.7 29.6 772.9 29.6 C 770 29.6 767.7 28.7 765.9 26.8 C 764.1 24.9 763.2 22.3 763.2 18.8 Z M 766.8 18.8 C 766.8 21.4 767.4 23.4 768.5 24.7 C 769.7 26 771.1 26.7 772.9 26.7 C 774.7 26.7 776.1 26 777.3 24.7 C 778.4 23.4 779 21.4 779 18.6 C 779 16.1 778.4 14.1 777.3 12.8 C 776.1 11.5 774.6 10.8 772.9 10.8 C 771.1 10.8 769.7 11.5 768.5 12.8 C 767.4 14.1 766.8 16.1 766.8 18.8 Z M 792.3 29.1 L 792.3 8.4 L 795.4 8.4 C 795.4 8.4 795.42 11.52 795.4 11.5 C 796.2 10.1 797 9.1 797.7 8.6 C 798.3 8.1 799.1 7.9 799.9 7.9 C 801.1 7.9 802.3 8.3 803.5 9 C 803.5 9 802.3 12.3 802.3 12.3 C 801.5 11.8 800.6 11.5 799.7 11.5 C 799 11.5 798.3 11.8 797.7 12.2 C 797.1 12.7 796.6 13.3 796.4 14.2 C 796 15.4 795.8 16.8 795.8 18.3 C 795.78 18.26 795.8 29.1 795.8 29.1 L 792.3 29.1 Z M 818.8 26.1 C 819.2 26.1 819.7 26.1 820.4 26 C 820.4 26 820.9 29.1 820.9 29.1 C 819.9 29.3 819 29.4 818.2 29.4 C 816.9 29.4 815.9 29.2 815.2 28.8 C 814.5 28.4 814 27.9 813.8 27.2 C 813.5 26.5 813.3 25.2 813.3 23 C 813.32 23.05 813.3 11.1 813.3 11.1 L 810.7 11.1 L 810.7 8.4 L 813.3 8.4 L 813.3 3.2 L 816.8 1.1 L 816.8 8.4 L 820.4 8.4 L 820.4 11.1 L 816.8 11.1 C 816.8 11.1 816.82 23.24 816.8 23.2 C 816.8 24.2 816.9 24.9 817 25.2 C 817.1 25.5 817.3 25.7 817.6 25.9 C 817.9 26 818.3 26.1 818.8 26.1 C 818.8 26.1 818.8 26.1 818.8 26.1 Z " stroke="none" fill="#ffffff"/>
  </g>
</svg>