<?xml version="1.0" standalone="no"?><!DOCTYPE svg PUBLIC "-//W3C//DTD SVG 1.1//EN" "http://www.w3.org/Graphics/SVG/1.1/DTD/svg11.dtd"><svg xmlns="http://www.w3.org/2000/svg" version="1.1" width="50px" height="31.3px" viewBox="0 -5 50 31.3" style="top:-5px"><desc>12,907</desc><defs/><g id="Polygon68124"><path d="m5.7 11.1l-1.4 0c0 0 .04-8.54 0-8.5c-.3.3-.7.6-1.2.9c-.6.3-1 .5-1.4.7c0 0 0-1.3 0-1.3c.7-.4 1.4-.8 1.9-1.3c.6-.5 1-1 1.2-1.5c.01.04.9 0 .9 0l0 11zm10.4-1.3l0 1.3c0 0-7.17-.01-7.2 0c0-.3.1-.6.2-.9c.2-.5.5-1 .9-1.5c.4-.5 1-1 1.7-1.6c1.2-1 2-1.8 2.4-2.4c.4-.5.6-1.1.6-1.6c0-.5-.1-.9-.5-1.3c-.4-.4-.9-.6-1.5-.6c-.6 0-1.2.2-1.6.6c-.3.4-.5 1-.5 1.6c0 0-1.4-.1-1.4-.1c.1-1 .4-1.8 1-2.4c.7-.5 1.5-.8 2.5-.8c1.1 0 1.9.3 2.5.9c.6.6.9 1.3.9 2.2c0 .4-.1.8-.2 1.3c-.2.4-.5.8-.9 1.3c-.4.5-1.1 1.1-2.1 1.9c-.8.7-1.3 1.1-1.5 1.4c-.3.2-.5.5-.6.7c-.01 0 5.3 0 5.3 0zm2.2 1.3l0-1.5l1.5 0c0 0 .02 1.49 0 1.5c0 .5-.1 1-.3 1.3c-.2.4-.5.7-.9.8c0 0-.4-.5-.4-.5c.3-.2.5-.3.6-.6c.2-.2.2-.6.3-1c-.05-.01-.8 0-.8 0zm3.7-2.5c0 0 1.3-.2 1.3-.2c.1.7.3 1.1.6 1.4c.3.2.7.4 1.2.4c.4 0 .8-.1 1.1-.3c.3-.2.5-.4.7-.8c.2-.3.4-.7.5-1.2c.2-.6.2-1.1.2-1.7c0 0 0-.1 0-.2c-.2.4-.6.7-1.1 1c-.4.3-.9.4-1.5.4c-.9 0-1.6-.3-2.3-1c-.6-.6-.9-1.5-.9-2.6c0-1.1.3-2 1-2.6c.6-.7 1.5-1.1 2.4-1.1c.7 0 1.4.2 2 .6c.6.4 1 .9 1.3 1.6c.3.8.5 1.8.5 3.1c0 1.4-.2 2.5-.5 3.3c-.3.9-.7 1.5-1.3 1.9c-.6.5-1.3.7-2.1.7c-.9 0-1.6-.3-2.1-.7c-.6-.5-.9-1.2-1-2zm5.5-4.8c0-.8-.2-1.4-.6-1.9c-.4-.4-.9-.7-1.5-.7c-.6 0-1.1.3-1.6.8c-.4.5-.6 1.1-.6 1.9c0 .7.2 1.2.6 1.7c.4.4.9.6 1.6.6c.6 0 1.1-.2 1.5-.6c.4-.5.6-1.1.6-1.8zm3.9 6.3c-.8-.9-1.1-2.3-1.1-4.4c0-1.3.1-2.3.4-3.1c.2-.8.6-1.4 1.2-1.8c.5-.4 1.1-.7 1.9-.7c.6 0 1.1.2 1.6.4c.4.2.8.6 1.1 1c.3.5.5 1 .6 1.6c.2.7.3 1.5.3 2.6c0 1.3-.1 2.3-.4 3.1c-.3.8-.7 1.4-1.2 1.8c-.5.5-1.2.7-2 .7c-1 0-1.8-.4-2.4-1.2c0 0 0 0 0 0zm.9-8.1c-.4.7-.6 1.9-.6 3.7c0 1.8.2 3 .6 3.6c.4.6.9.9 1.5.9c.6 0 1.2-.3 1.6-.9c.4-.6.6-1.8.6-3.6c0-1.8-.2-3-.6-3.6c-.4-.6-1-.9-1.6-.9c-.6 0-1.1.3-1.5.8c0 0 0 0 0 0zm6.5-.4l0-1.3l7.1 0c0 0-.01 1.07 0 1.1c-.7.7-1.4 1.7-2.1 2.9c-.7 1.2-1.2 2.5-1.6 3.8c-.2.9-.4 1.9-.5 3c0 0-1.3 0-1.3 0c0-.9.1-1.9.5-3.1c.3-1.2.8-2.4 1.4-3.5c.6-1.2 1.2-2.1 1.9-2.9c-.02.01-5.4 0-5.4 0z" stroke="none" fill="#54626c"/></g></svg>