<?xml version="1.0" standalone="no"?>
<!DOCTYPE svg PUBLIC "-//W3C//DTD SVG 1.1//EN" "http://www.w3.org/Graphics/SVG/1.1/DTD/svg11.dtd">
<svg xmlns="http://www.w3.org/2000/svg" version="1.1" width="66.4px" height="41.3px" viewBox="0 -7 66.4 41.3" style="top:-7px">
  <desc>10,589</desc>
  <defs/>
  <g id="Polygon62883">
    <path d="M 7.6 14.8 L 5.8 14.8 C 5.8 14.8 5.78 3.41 5.8 3.4 C 5.4 3.8 4.8 4.2 4.1 4.6 C 3.4 5.1 2.8 5.4 2.2 5.6 C 2.2 5.6 2.2 3.8 2.2 3.8 C 3.2 3.4 4.1 2.8 4.8 2.1 C 5.6 1.5 6.1 0.8 6.4 0.2 C 6.42 0.19 7.6 0.2 7.6 0.2 L 7.6 14.8 Z M 13.6 13.5 C 12.6 12.3 12.1 10.3 12.1 7.6 C 12.1 5.9 12.3 4.5 12.7 3.5 C 13 2.4 13.5 1.6 14.2 1 C 14.9 0.5 15.8 0.2 16.9 0.2 C 17.7 0.2 18.3 0.3 18.9 0.7 C 19.5 1 20 1.4 20.4 2 C 20.8 2.6 21.1 3.3 21.3 4.2 C 21.5 5 21.6 6.2 21.6 7.6 C 21.6 9.3 21.4 10.7 21.1 11.7 C 20.7 12.8 20.2 13.6 19.5 14.2 C 18.8 14.7 17.9 15 16.9 15 C 15.5 15 14.4 14.5 13.6 13.5 C 13.6 13.5 13.6 13.5 13.6 13.5 Z M 14.9 2.7 C 14.3 3.6 14 5.2 14 7.6 C 14 10 14.3 11.6 14.8 12.4 C 15.4 13.2 16.1 13.6 16.9 13.6 C 17.7 13.6 18.4 13.2 18.9 12.4 C 19.5 11.6 19.8 10 19.8 7.6 C 19.8 5.2 19.5 3.6 18.9 2.8 C 18.4 2.1 17.7 1.7 16.9 1.7 C 16 1.7 15.4 2 14.9 2.7 C 14.9 2.7 14.9 2.7 14.9 2.7 Z M 24.4 14.8 L 24.4 12.8 L 26.4 12.8 C 26.4 12.8 26.43 14.78 26.4 14.8 C 26.4 15.5 26.3 16.1 26 16.6 C 25.8 17.1 25.3 17.4 24.8 17.7 C 24.8 17.7 24.3 16.9 24.3 16.9 C 24.7 16.7 24.9 16.5 25.1 16.2 C 25.3 15.8 25.4 15.4 25.4 14.8 C 25.4 14.78 24.4 14.8 24.4 14.8 Z M 29.1 11 C 29.1 11 30.9 10.8 30.9 10.8 C 31.1 11.7 31.4 12.4 31.9 12.9 C 32.4 13.3 33 13.6 33.7 13.6 C 34.6 13.6 35.3 13.2 35.9 12.6 C 36.5 11.9 36.8 11.1 36.8 10 C 36.8 9 36.5 8.2 36 7.6 C 35.4 7 34.6 6.7 33.7 6.7 C 33.1 6.7 32.6 6.9 32.2 7.1 C 31.7 7.4 31.3 7.7 31.1 8.1 C 31.07 8.13 29.4 7.9 29.4 7.9 L 30.8 0.4 L 38 0.4 L 38 2.2 L 32.2 2.2 C 32.2 2.2 31.44 6.06 31.4 6.1 C 32.3 5.5 33.2 5.1 34.2 5.1 C 35.5 5.1 36.5 5.6 37.4 6.5 C 38.3 7.3 38.7 8.5 38.7 9.9 C 38.7 11.2 38.3 12.3 37.6 13.3 C 36.6 14.4 35.4 15 33.7 15 C 32.4 15 31.3 14.7 30.5 13.9 C 29.7 13.2 29.2 12.2 29.1 11 Z M 43.1 6.9 C 42.4 6.6 41.8 6.2 41.5 5.7 C 41.1 5.2 40.9 4.6 40.9 3.9 C 40.9 2.9 41.3 2 42.1 1.3 C 42.8 0.5 43.8 0.2 45.1 0.2 C 46.4 0.2 47.4 0.6 48.2 1.3 C 48.9 2 49.3 2.9 49.3 4 C 49.3 4.7 49.2 5.2 48.8 5.7 C 48.4 6.2 47.9 6.6 47.2 6.9 C 48.1 7.2 48.8 7.7 49.2 8.3 C 49.7 9 49.9 9.7 49.9 10.6 C 49.9 11.9 49.5 12.9 48.6 13.8 C 47.7 14.6 46.6 15 45.1 15 C 43.7 15 42.5 14.6 41.7 13.8 C 40.8 12.9 40.3 11.8 40.3 10.6 C 40.3 9.6 40.6 8.8 41.1 8.2 C 41.5 7.6 42.2 7.1 43.1 6.9 Z M 42.8 3.9 C 42.8 4.6 43 5.1 43.4 5.6 C 43.9 6 44.4 6.2 45.1 6.2 C 45.8 6.2 46.4 6 46.8 5.6 C 47.3 5.1 47.5 4.6 47.5 4 C 47.5 3.3 47.3 2.8 46.8 2.3 C 46.4 1.9 45.8 1.7 45.1 1.7 C 44.4 1.7 43.9 1.9 43.4 2.3 C 43 2.7 42.8 3.3 42.8 3.9 Z M 42.2 10.6 C 42.2 11.1 42.3 11.6 42.5 12.1 C 42.8 12.5 43.1 12.9 43.6 13.2 C 44.1 13.4 44.6 13.6 45.2 13.6 C 46 13.6 46.7 13.3 47.3 12.7 C 47.8 12.2 48.1 11.5 48.1 10.6 C 48.1 9.8 47.8 9.1 47.2 8.5 C 46.7 8 46 7.7 45.1 7.7 C 44.3 7.7 43.6 8 43 8.5 C 42.5 9.1 42.2 9.8 42.2 10.6 Z M 51.9 11.4 C 51.9 11.4 53.6 11.3 53.6 11.3 C 53.8 12.1 54.1 12.7 54.5 13 C 54.9 13.4 55.4 13.6 56.1 13.6 C 56.6 13.6 57.1 13.4 57.5 13.2 C 57.9 12.9 58.2 12.6 58.5 12.2 C 58.8 11.8 59 11.2 59.2 10.5 C 59.4 9.8 59.4 9 59.4 8.3 C 59.4 8.2 59.4 8.1 59.4 7.9 C 59.1 8.5 58.6 9 58 9.3 C 57.4 9.7 56.7 9.9 56 9.9 C 54.8 9.9 53.7 9.4 52.9 8.5 C 52.1 7.7 51.7 6.5 51.7 5.1 C 51.7 3.6 52.1 2.4 53 1.5 C 53.8 0.6 54.9 0.2 56.2 0.2 C 57.2 0.2 58 0.4 58.8 1 C 59.6 1.5 60.2 2.2 60.6 3.1 C 61 4.1 61.2 5.4 61.2 7.2 C 61.2 9.1 61 10.6 60.6 11.7 C 60.2 12.8 59.6 13.6 58.8 14.2 C 58 14.7 57.1 15 56 15 C 54.9 15 53.9 14.7 53.2 14.1 C 52.5 13.5 52.1 12.6 51.9 11.4 Z M 59.2 5 C 59.2 4 59 3.2 58.4 2.6 C 57.9 2 57.2 1.7 56.5 1.7 C 55.7 1.7 55 2 54.4 2.6 C 53.8 3.3 53.5 4.1 53.5 5.2 C 53.5 6.1 53.8 6.8 54.3 7.4 C 54.9 8 55.6 8.3 56.4 8.3 C 57.2 8.3 57.9 8 58.4 7.4 C 59 6.8 59.2 6 59.2 5 Z " stroke="none" fill="#54626c"/>
  </g>
</svg>