<?xml version="1.0" standalone="no"?>
<!DOCTYPE svg PUBLIC "-//W3C//DTD SVG 1.1//EN" "http://www.w3.org/Graphics/SVG/1.1/DTD/svg11.dtd">
<svg xmlns="http://www.w3.org/2000/svg" version="1.1" width="768px" height="250.2px" viewBox="0 -7 768 250.2" style="top:-7px">
  <desc>Advising a US 1 billion fund that supports a major technology company s ambitious sustainability goals and commitment</desc>
  <defs/>
  <g id="Polygon59100">
    <path d="M 0.6 35.5 C 0.6 35.5 2.4 35.2 2.4 35.2 C 2.5 35.9 2.7 36.4 3.2 36.8 C 3.6 37.2 4.2 37.3 5 37.3 C 5.8 37.3 6.4 37.2 6.8 36.9 C 7.2 36.5 7.4 36.1 7.4 35.7 C 7.4 35.3 7.2 35 6.9 34.8 C 6.7 34.6 6.1 34.4 5.1 34.2 C 3.8 33.8 2.9 33.6 2.4 33.3 C 1.9 33.1 1.6 32.8 1.3 32.3 C 1 31.9 0.9 31.5 0.9 30.9 C 0.9 30.5 1 30.1 1.2 29.7 C 1.4 29.3 1.7 28.9 2.1 28.7 C 2.4 28.5 2.7 28.3 3.2 28.2 C 3.7 28 4.2 28 4.7 28 C 5.5 28 6.3 28.1 6.9 28.3 C 7.5 28.5 7.9 28.9 8.2 29.3 C 8.5 29.7 8.7 30.2 8.8 30.9 C 8.8 30.9 7.1 31.1 7.1 31.1 C 7 30.6 6.8 30.1 6.4 29.8 C 6.1 29.6 5.5 29.4 4.9 29.4 C 4 29.4 3.5 29.5 3.1 29.8 C 2.8 30.1 2.6 30.4 2.6 30.7 C 2.6 31 2.7 31.2 2.8 31.4 C 3 31.5 3.2 31.7 3.5 31.8 C 3.7 31.9 4.2 32 5 32.3 C 6.3 32.6 7.2 32.9 7.7 33.1 C 8.1 33.3 8.5 33.6 8.8 34 C 9.1 34.4 9.2 34.9 9.2 35.5 C 9.2 36.1 9.1 36.7 8.7 37.2 C 8.4 37.7 7.9 38.1 7.2 38.4 C 6.6 38.7 5.9 38.8 5 38.8 C 3.7 38.8 2.7 38.5 2 38 C 1.3 37.4 0.8 36.6 0.6 35.5 Z M 18.1 38.6 C 18.1 38.6 18.12 37.04 18.1 37 C 17.3 38.2 16.2 38.8 14.8 38.8 C 14.2 38.8 13.6 38.7 13.1 38.4 C 12.6 38.2 12.2 37.9 11.9 37.6 C 11.7 37.2 11.5 36.8 11.4 36.3 C 11.3 35.9 11.3 35.4 11.3 34.6 C 11.28 34.62 11.3 28.2 11.3 28.2 L 13 28.2 C 13 28.2 13.04 33.94 13 33.9 C 13 34.9 13.1 35.5 13.1 35.8 C 13.3 36.3 13.5 36.6 13.8 36.9 C 14.2 37.1 14.6 37.3 15.2 37.3 C 15.7 37.3 16.2 37.1 16.7 36.9 C 17.1 36.6 17.4 36.2 17.6 35.8 C 17.8 35.3 17.9 34.6 17.9 33.7 C 17.93 33.75 17.9 28.2 17.9 28.2 L 19.7 28.2 L 19.7 38.6 L 18.1 38.6 Z M 21.7 35.5 C 21.7 35.5 23.5 35.2 23.5 35.2 C 23.6 35.9 23.8 36.4 24.3 36.8 C 24.7 37.2 25.4 37.3 26.2 37.3 C 27 37.3 27.6 37.2 28 36.9 C 28.3 36.5 28.5 36.1 28.5 35.7 C 28.5 35.3 28.4 35 28 34.8 C 27.8 34.6 27.2 34.4 26.2 34.2 C 24.9 33.8 24 33.6 23.5 33.3 C 23.1 33.1 22.7 32.8 22.4 32.3 C 22.2 31.9 22 31.5 22 30.9 C 22 30.5 22.1 30.1 22.3 29.7 C 22.6 29.3 22.8 28.9 23.2 28.7 C 23.5 28.5 23.9 28.3 24.3 28.2 C 24.8 28 25.3 28 25.8 28 C 26.7 28 27.4 28.1 28 28.3 C 28.6 28.5 29.1 28.9 29.4 29.3 C 29.6 29.7 29.9 30.2 30 30.9 C 30 30.9 28.2 31.1 28.2 31.1 C 28.2 30.6 27.9 30.1 27.6 29.8 C 27.2 29.6 26.7 29.4 26 29.4 C 25.2 29.4 24.6 29.5 24.2 29.8 C 23.9 30.1 23.7 30.4 23.7 30.7 C 23.7 31 23.8 31.2 23.9 31.4 C 24.1 31.5 24.3 31.7 24.6 31.8 C 24.8 31.9 25.3 32 26.2 32.3 C 27.4 32.6 28.3 32.9 28.8 33.1 C 29.3 33.3 29.7 33.6 29.9 34 C 30.2 34.4 30.4 34.9 30.4 35.5 C 30.4 36.1 30.2 36.7 29.8 37.2 C 29.5 37.7 29 38.1 28.4 38.4 C 27.7 38.7 27 38.8 26.2 38.8 C 24.8 38.8 23.8 38.5 23.1 38 C 22.4 37.4 21.9 36.6 21.7 35.5 Z M 35.5 37.1 C 35.7 37.1 36 37 36.3 37 C 36.3 37 36.5 38.5 36.5 38.5 C 36 38.6 35.6 38.7 35.2 38.7 C 34.6 38.7 34.1 38.6 33.7 38.4 C 33.4 38.2 33.1 37.9 33 37.6 C 32.8 37.3 32.8 36.6 32.8 35.5 C 32.76 35.52 32.8 29.6 32.8 29.6 L 31.5 29.6 L 31.5 28.2 L 32.8 28.2 L 32.8 25.6 L 34.5 24.6 L 34.5 28.2 L 36.3 28.2 L 36.3 29.6 L 34.5 29.6 C 34.5 29.6 34.51 35.62 34.5 35.6 C 34.5 36.1 34.5 36.4 34.6 36.6 C 34.7 36.7 34.8 36.8 34.9 36.9 C 35 37 35.2 37.1 35.5 37.1 C 35.5 37.1 35.5 37.1 35.5 37.1 Z M 45.1 38.6 C 44.9 38.2 44.8 37.8 44.8 37.3 C 44.1 37.8 43.5 38.2 42.9 38.5 C 42.3 38.7 41.6 38.8 40.9 38.8 C 39.8 38.8 38.9 38.5 38.3 38 C 37.7 37.4 37.4 36.7 37.4 35.8 C 37.4 35.3 37.5 34.9 37.7 34.4 C 38 34 38.3 33.7 38.7 33.4 C 39 33.2 39.5 33 39.9 32.8 C 40.3 32.8 40.8 32.7 41.5 32.6 C 42.9 32.4 43.9 32.2 44.6 32 C 44.6 31.7 44.6 31.6 44.6 31.5 C 44.6 30.8 44.5 30.3 44.1 30 C 43.7 29.6 43 29.4 42.1 29.4 C 41.3 29.4 40.7 29.6 40.3 29.8 C 39.9 30.1 39.6 30.6 39.4 31.4 C 39.4 31.4 37.7 31.1 37.7 31.1 C 37.9 30.4 38.1 29.8 38.5 29.4 C 38.8 28.9 39.4 28.6 40 28.3 C 40.7 28.1 41.5 28 42.4 28 C 43.3 28 44 28.1 44.5 28.3 C 45.1 28.5 45.5 28.7 45.8 29.1 C 46 29.4 46.2 29.8 46.3 30.3 C 46.4 30.5 46.4 31.1 46.4 31.9 C 46.4 31.9 46.4 34.2 46.4 34.2 C 46.4 35.8 46.4 36.9 46.5 37.3 C 46.6 37.7 46.7 38.2 47 38.6 C 46.95 38.56 45.1 38.6 45.1 38.6 C 45.1 38.6 45.12 38.56 45.1 38.6 Z M 44.6 33.4 C 44 33.6 43 33.8 41.7 34 C 41 34.1 40.5 34.2 40.2 34.4 C 39.9 34.5 39.7 34.7 39.5 34.9 C 39.4 35.2 39.3 35.5 39.3 35.8 C 39.3 36.2 39.5 36.6 39.8 36.9 C 40.2 37.3 40.7 37.4 41.4 37.4 C 42 37.4 42.6 37.3 43.2 37 C 43.7 36.7 44.1 36.3 44.3 35.8 C 44.5 35.4 44.6 34.8 44.6 34 C 44.6 34 44.6 33.4 44.6 33.4 Z M 49.1 26.3 L 49.1 24.2 L 50.9 24.2 L 50.9 26.3 L 49.1 26.3 Z M 49.1 38.6 L 49.1 28.2 L 50.9 28.2 L 50.9 38.6 L 49.1 38.6 Z M 53.6 38.6 L 53.6 28.2 L 55.1 28.2 C 55.1 28.2 55.15 29.66 55.1 29.7 C 55.9 28.5 57 28 58.4 28 C 59.1 28 59.6 28.1 60.2 28.3 C 60.7 28.5 61.1 28.8 61.3 29.2 C 61.6 29.5 61.8 30 61.9 30.5 C 62 30.8 62 31.4 62 32.2 C 61.99 32.18 62 38.6 62 38.6 L 60.2 38.6 C 60.2 38.6 60.23 32.25 60.2 32.3 C 60.2 31.5 60.2 31 60 30.6 C 59.9 30.3 59.6 30 59.3 29.8 C 59 29.6 58.5 29.5 58.1 29.5 C 57.3 29.5 56.7 29.7 56.1 30.2 C 55.6 30.7 55.3 31.6 55.3 32.9 C 55.32 32.9 55.3 38.6 55.3 38.6 L 53.6 38.6 Z M 71.8 38.6 C 71.6 38.2 71.5 37.8 71.5 37.3 C 70.8 37.8 70.2 38.2 69.6 38.5 C 69 38.7 68.3 38.8 67.6 38.8 C 66.5 38.8 65.6 38.5 65 38 C 64.4 37.4 64.1 36.7 64.1 35.8 C 64.1 35.3 64.2 34.9 64.4 34.4 C 64.7 34 65 33.7 65.3 33.4 C 65.7 33.2 66.1 33 66.6 32.8 C 67 32.8 67.5 32.7 68.2 32.6 C 69.6 32.4 70.6 32.2 71.3 32 C 71.3 31.7 71.3 31.6 71.3 31.5 C 71.3 30.8 71.2 30.3 70.8 30 C 70.4 29.6 69.7 29.4 68.8 29.4 C 68 29.4 67.4 29.6 67 29.8 C 66.6 30.1 66.3 30.6 66.1 31.4 C 66.1 31.4 64.4 31.1 64.4 31.1 C 64.6 30.4 64.8 29.8 65.2 29.4 C 65.5 28.9 66 28.6 66.7 28.3 C 67.4 28.1 68.2 28 69.1 28 C 70 28 70.7 28.1 71.2 28.3 C 71.8 28.5 72.2 28.7 72.5 29.1 C 72.7 29.4 72.9 29.8 73 30.3 C 73.1 30.5 73.1 31.1 73.1 31.9 C 73.1 31.9 73.1 34.2 73.1 34.2 C 73.1 35.8 73.1 36.9 73.2 37.3 C 73.3 37.7 73.4 38.2 73.6 38.6 C 73.64 38.56 71.8 38.6 71.8 38.6 C 71.8 38.6 71.81 38.56 71.8 38.6 Z M 71.3 33.4 C 70.7 33.6 69.7 33.8 68.4 34 C 67.7 34.1 67.2 34.2 66.9 34.4 C 66.6 34.5 66.4 34.7 66.2 34.9 C 66 35.2 66 35.5 66 35.8 C 66 36.2 66.1 36.6 66.5 36.9 C 66.9 37.3 67.4 37.4 68.1 37.4 C 68.7 37.4 69.3 37.3 69.9 37 C 70.4 36.7 70.8 36.3 71 35.8 C 71.2 35.4 71.3 34.8 71.3 34 C 71.3 34 71.3 33.4 71.3 33.4 Z M 77.4 38.6 L 75.8 38.6 L 75.8 24.2 L 77.6 24.2 C 77.6 24.2 77.56 29.35 77.6 29.4 C 78.3 28.4 79.2 28 80.4 28 C 81 28 81.6 28.1 82.2 28.3 C 82.8 28.6 83.3 29 83.6 29.4 C 84 29.9 84.3 30.5 84.5 31.1 C 84.7 31.8 84.8 32.5 84.8 33.2 C 84.8 35 84.4 36.4 83.5 37.3 C 82.6 38.3 81.5 38.8 80.3 38.8 C 79.1 38.8 78.1 38.3 77.4 37.3 C 77.43 37.26 77.4 38.6 77.4 38.6 Z M 77.4 33.3 C 77.4 34.5 77.6 35.4 77.9 36 C 78.5 36.9 79.2 37.3 80.2 37.3 C 80.9 37.3 81.6 37 82.2 36.3 C 82.7 35.7 83 34.7 83 33.4 C 83 32 82.7 31 82.2 30.4 C 81.7 29.7 81 29.4 80.2 29.4 C 79.5 29.4 78.8 29.7 78.3 30.4 C 77.7 31.1 77.4 32 77.4 33.3 Z M 86.9 26.3 L 86.9 24.2 L 88.7 24.2 L 88.7 26.3 L 86.9 26.3 Z M 86.9 38.6 L 86.9 28.2 L 88.7 28.2 L 88.7 38.6 L 86.9 38.6 Z M 91.3 38.6 L 91.3 24.2 L 93.1 24.2 L 93.1 38.6 L 91.3 38.6 Z M 95.8 26.3 L 95.8 24.2 L 97.6 24.2 L 97.6 26.3 L 95.8 26.3 Z M 95.8 38.6 L 95.8 28.2 L 97.6 28.2 L 97.6 38.6 L 95.8 38.6 Z M 103.3 37.1 C 103.5 37.1 103.8 37 104.1 37 C 104.1 37 104.4 38.5 104.4 38.5 C 103.9 38.6 103.4 38.7 103 38.7 C 102.4 38.7 101.9 38.6 101.5 38.4 C 101.2 38.2 100.9 37.9 100.8 37.6 C 100.7 37.3 100.6 36.6 100.6 35.5 C 100.59 35.52 100.6 29.6 100.6 29.6 L 99.3 29.6 L 99.3 28.2 L 100.6 28.2 L 100.6 25.6 L 102.3 24.6 L 102.3 28.2 L 104.1 28.2 L 104.1 29.6 L 102.3 29.6 C 102.3 29.6 102.33 35.62 102.3 35.6 C 102.3 36.1 102.4 36.4 102.4 36.6 C 102.5 36.7 102.6 36.8 102.7 36.9 C 102.9 37 103.1 37.1 103.3 37.1 C 103.3 37.1 103.3 37.1 103.3 37.1 Z M 106.9 42.8 C 106.5 42.8 106.2 42.7 105.7 42.6 C 105.7 42.6 105.5 40.9 105.5 40.9 C 105.9 41 106.3 41.1 106.6 41.1 C 106.9 41.1 107.3 41 107.5 40.9 C 107.7 40.7 107.9 40.6 108.1 40.3 C 108.2 40.1 108.4 39.7 108.6 39 C 108.6 38.9 108.7 38.8 108.8 38.6 C 108.76 38.58 104.8 28.2 104.8 28.2 L 106.7 28.2 C 106.7 28.2 108.88 34.2 108.9 34.2 C 109.2 35 109.4 35.8 109.6 36.6 C 109.8 35.8 110.1 35 110.4 34.2 C 110.35 34.23 112.6 28.2 112.6 28.2 L 114.3 28.2 C 114.3 28.2 110.38 38.74 110.4 38.7 C 110 39.9 109.6 40.7 109.4 41.1 C 109.1 41.7 108.7 42.1 108.3 42.4 C 107.9 42.6 107.4 42.8 106.9 42.8 C 106.9 42.8 106.9 42.8 106.9 42.8 Z M 121.1 39.4 C 121.1 39.4 122.8 39.7 122.8 39.7 C 122.8 40.2 123 40.6 123.4 40.8 C 123.8 41.2 124.4 41.3 125.1 41.3 C 126 41.3 126.6 41.2 127 40.8 C 127.5 40.5 127.8 40 127.9 39.5 C 128 39.1 128.1 38.3 128.1 37.2 C 127.3 38.1 126.3 38.6 125.2 38.6 C 123.8 38.6 122.7 38 121.9 37 C 121.1 36 120.7 34.8 120.7 33.3 C 120.7 32.3 120.9 31.4 121.2 30.6 C 121.6 29.7 122.1 29.1 122.8 28.6 C 123.5 28.2 124.3 28 125.2 28 C 126.4 28 127.4 28.4 128.2 29.4 C 128.22 29.44 128.2 28.2 128.2 28.2 L 129.8 28.2 C 129.8 28.2 129.84 37.15 129.8 37.2 C 129.8 38.8 129.7 39.9 129.4 40.6 C 129 41.3 128.5 41.8 127.8 42.2 C 127.1 42.6 126.2 42.8 125.2 42.8 C 123.9 42.8 122.9 42.5 122.2 41.9 C 121.4 41.4 121 40.5 121.1 39.4 Z M 122.5 33.2 C 122.5 34.6 122.8 35.5 123.3 36.2 C 123.9 36.8 124.5 37.1 125.4 37.1 C 126.2 37.1 126.8 36.8 127.4 36.2 C 127.9 35.6 128.2 34.6 128.2 33.2 C 128.2 32 127.9 31 127.4 30.4 C 126.8 29.7 126.1 29.4 125.3 29.4 C 124.5 29.4 123.9 29.7 123.3 30.4 C 122.8 31 122.5 31.9 122.5 33.2 Z M 131.8 33.4 C 131.8 31.5 132.4 30 133.4 29.1 C 134.3 28.3 135.4 28 136.7 28 C 138.1 28 139.3 28.4 140.2 29.4 C 141.1 30.3 141.6 31.6 141.6 33.2 C 141.6 34.6 141.4 35.6 141 36.4 C 140.6 37.1 140 37.7 139.2 38.2 C 138.4 38.6 137.6 38.8 136.7 38.8 C 135.3 38.8 134.1 38.3 133.2 37.4 C 132.3 36.5 131.8 35.1 131.8 33.4 Z M 133.7 33.4 C 133.7 34.7 133.9 35.7 134.5 36.4 C 135.1 37 135.8 37.3 136.7 37.3 C 137.6 37.3 138.3 37 138.9 36.4 C 139.5 35.7 139.8 34.7 139.8 33.3 C 139.8 32 139.5 31.1 138.9 30.4 C 138.3 29.7 137.6 29.4 136.7 29.4 C 135.8 29.4 135.1 29.7 134.5 30.4 C 133.9 31.1 133.7 32 133.7 33.4 Z M 150.7 38.6 C 150.6 38.2 150.4 37.8 150.4 37.3 C 149.7 37.8 149.1 38.2 148.5 38.5 C 147.9 38.7 147.3 38.8 146.6 38.8 C 145.4 38.8 144.6 38.5 143.9 38 C 143.3 37.4 143 36.7 143 35.8 C 143 35.3 143.1 34.9 143.4 34.4 C 143.6 34 143.9 33.7 144.3 33.4 C 144.7 33.2 145.1 33 145.5 32.8 C 145.9 32.8 146.4 32.7 147.1 32.6 C 148.5 32.4 149.6 32.2 150.2 32 C 150.3 31.7 150.3 31.6 150.3 31.5 C 150.3 30.8 150.1 30.3 149.8 30 C 149.3 29.6 148.6 29.4 147.8 29.4 C 146.9 29.4 146.3 29.6 145.9 29.8 C 145.5 30.1 145.2 30.6 145 31.4 C 145 31.4 143.3 31.1 143.3 31.1 C 143.5 30.4 143.7 29.8 144.1 29.4 C 144.5 28.9 145 28.6 145.7 28.3 C 146.3 28.1 147.1 28 148 28 C 148.9 28 149.6 28.1 150.2 28.3 C 150.7 28.5 151.1 28.7 151.4 29.1 C 151.6 29.4 151.8 29.8 151.9 30.3 C 152 30.5 152 31.1 152 31.9 C 152 31.9 152 34.2 152 34.2 C 152 35.8 152.1 36.9 152.1 37.3 C 152.2 37.7 152.4 38.2 152.6 38.6 C 152.58 38.56 150.7 38.6 150.7 38.6 C 150.7 38.6 150.74 38.56 150.7 38.6 Z M 150.2 33.4 C 149.6 33.6 148.6 33.8 147.4 34 C 146.7 34.1 146.1 34.2 145.8 34.4 C 145.5 34.5 145.3 34.7 145.1 34.9 C 145 35.2 144.9 35.5 144.9 35.8 C 144.9 36.2 145.1 36.6 145.4 36.9 C 145.8 37.3 146.3 37.4 147 37.4 C 147.7 37.4 148.3 37.3 148.8 37 C 149.3 36.7 149.7 36.3 150 35.8 C 150.1 35.4 150.2 34.8 150.2 34 C 150.2 34 150.2 33.4 150.2 33.4 Z M 154.7 38.6 L 154.7 24.2 L 156.5 24.2 L 156.5 38.6 L 154.7 38.6 Z M 158.5 35.5 C 158.5 35.5 160.2 35.2 160.2 35.2 C 160.3 35.9 160.6 36.4 161 36.8 C 161.5 37.2 162.1 37.3 162.9 37.3 C 163.7 37.3 164.3 37.2 164.7 36.9 C 165.1 36.5 165.3 36.1 165.3 35.7 C 165.3 35.3 165.1 35 164.8 34.8 C 164.5 34.6 163.9 34.4 163 34.2 C 161.7 33.8 160.8 33.6 160.3 33.3 C 159.8 33.1 159.4 32.8 159.2 32.3 C 158.9 31.9 158.8 31.5 158.8 30.9 C 158.8 30.5 158.9 30.1 159.1 29.7 C 159.3 29.3 159.6 28.9 160 28.7 C 160.2 28.5 160.6 28.3 161.1 28.2 C 161.6 28 162.1 28 162.6 28 C 163.4 28 164.1 28.1 164.7 28.3 C 165.4 28.5 165.8 28.9 166.1 29.3 C 166.4 29.7 166.6 30.2 166.7 30.9 C 166.7 30.9 165 31.1 165 31.1 C 164.9 30.6 164.7 30.1 164.3 29.8 C 163.9 29.6 163.4 29.4 162.7 29.4 C 161.9 29.4 161.3 29.5 161 29.8 C 160.7 30.1 160.5 30.4 160.5 30.7 C 160.5 31 160.6 31.2 160.7 31.4 C 160.8 31.5 161.1 31.7 161.4 31.8 C 161.5 31.9 162.1 32 162.9 32.3 C 164.2 32.6 165 32.9 165.5 33.1 C 166 33.3 166.4 33.6 166.7 34 C 167 34.4 167.1 34.9 167.1 35.5 C 167.1 36.1 166.9 36.7 166.6 37.2 C 166.2 37.7 165.8 38.1 165.1 38.4 C 164.5 38.7 163.7 38.8 162.9 38.8 C 161.6 38.8 160.5 38.5 159.8 38 C 159.1 37.4 158.7 36.6 158.5 35.5 Z M 181.9 38.6 C 181.7 38.2 181.6 37.8 181.5 37.3 C 180.9 37.8 180.2 38.2 179.6 38.5 C 179 38.7 178.4 38.8 177.7 38.8 C 176.6 38.8 175.7 38.5 175.1 38 C 174.5 37.4 174.2 36.7 174.2 35.8 C 174.2 35.3 174.3 34.9 174.5 34.4 C 174.7 34 175 33.7 175.4 33.4 C 175.8 33.2 176.2 33 176.7 32.8 C 177 32.8 177.5 32.7 178.2 32.6 C 179.7 32.4 180.7 32.2 181.4 32 C 181.4 31.7 181.4 31.6 181.4 31.5 C 181.4 30.8 181.2 30.3 180.9 30 C 180.4 29.6 179.8 29.4 178.9 29.4 C 178.1 29.4 177.4 29.6 177 29.8 C 176.7 30.1 176.4 30.6 176.2 31.4 C 176.2 31.4 174.5 31.1 174.5 31.1 C 174.6 30.4 174.9 29.8 175.2 29.4 C 175.6 28.9 176.1 28.6 176.8 28.3 C 177.5 28.1 178.2 28 179.1 28 C 180 28 180.7 28.1 181.3 28.3 C 181.8 28.5 182.2 28.7 182.5 29.1 C 182.8 29.4 183 29.8 183.1 30.3 C 183.1 30.5 183.1 31.1 183.1 31.9 C 183.1 31.9 183.1 34.2 183.1 34.2 C 183.1 35.8 183.2 36.9 183.3 37.3 C 183.3 37.7 183.5 38.2 183.7 38.6 C 183.7 38.56 181.9 38.6 181.9 38.6 C 181.9 38.6 181.87 38.56 181.9 38.6 Z M 181.4 33.4 C 180.7 33.6 179.8 33.8 178.5 34 C 177.8 34.1 177.3 34.2 177 34.4 C 176.7 34.5 176.4 34.7 176.3 34.9 C 176.1 35.2 176 35.5 176 35.8 C 176 36.2 176.2 36.6 176.6 36.9 C 176.9 37.3 177.4 37.4 178.1 37.4 C 178.8 37.4 179.4 37.3 179.9 37 C 180.4 36.7 180.8 36.3 181.1 35.8 C 181.3 35.4 181.4 34.8 181.4 34 C 181.4 34 181.4 33.4 181.4 33.4 Z M 185.9 38.6 L 185.9 28.2 L 187.5 28.2 C 187.5 28.2 187.45 29.66 187.5 29.7 C 188.2 28.5 189.3 28 190.8 28 C 191.4 28 192 28.1 192.5 28.3 C 193 28.5 193.4 28.8 193.7 29.2 C 193.9 29.5 194.1 30 194.2 30.5 C 194.3 30.8 194.3 31.4 194.3 32.2 C 194.3 32.18 194.3 38.6 194.3 38.6 L 192.5 38.6 C 192.5 38.6 192.54 32.25 192.5 32.3 C 192.5 31.5 192.5 31 192.3 30.6 C 192.2 30.3 192 30 191.6 29.8 C 191.3 29.6 190.8 29.5 190.4 29.5 C 189.6 29.5 189 29.7 188.4 30.2 C 187.9 30.7 187.6 31.6 187.6 32.9 C 187.63 32.9 187.6 38.6 187.6 38.6 L 185.9 38.6 Z M 203.7 38.6 C 203.7 38.6 203.72 37.25 203.7 37.3 C 203.1 38.3 202.1 38.8 200.8 38.8 C 200 38.8 199.2 38.6 198.5 38.1 C 197.8 37.7 197.3 37 196.9 36.2 C 196.5 35.4 196.4 34.4 196.4 33.4 C 196.4 32.3 196.5 31.4 196.9 30.6 C 197.2 29.7 197.7 29.1 198.4 28.6 C 199.1 28.2 199.9 28 200.7 28 C 201.4 28 201.9 28.1 202.4 28.4 C 202.9 28.6 203.3 29 203.6 29.4 C 203.6 29.38 203.6 24.2 203.6 24.2 L 205.4 24.2 L 205.4 38.6 L 203.7 38.6 Z M 198.2 33.4 C 198.2 34.7 198.4 35.7 199 36.4 C 199.6 37 200.2 37.3 201 37.3 C 201.8 37.3 202.4 37 202.9 36.4 C 203.5 35.8 203.8 34.8 203.8 33.5 C 203.8 32.1 203.5 31.1 202.9 30.4 C 202.4 29.7 201.7 29.4 200.9 29.4 C 200.1 29.4 199.5 29.7 199 30.4 C 198.4 31 198.2 32 198.2 33.4 Z M 220.4 34.8 C 220.4 34.8 222.2 35 222.2 35 C 222 36.2 221.5 37.1 220.7 37.8 C 219.9 38.5 219 38.8 217.9 38.8 C 216.4 38.8 215.3 38.3 214.4 37.4 C 213.6 36.5 213.1 35.1 213.1 33.4 C 213.1 32.3 213.3 31.3 213.7 30.5 C 214.1 29.6 214.6 29 215.4 28.6 C 216.1 28.2 217 28 217.9 28 C 219 28 219.9 28.2 220.6 28.8 C 221.3 29.4 221.8 30.2 222 31.2 C 222 31.2 220.3 31.5 220.3 31.5 C 220.1 30.8 219.8 30.3 219.4 29.9 C 219 29.6 218.5 29.4 217.9 29.4 C 217 29.4 216.3 29.7 215.8 30.4 C 215.2 31 214.9 32 214.9 33.4 C 214.9 34.8 215.2 35.8 215.7 36.4 C 216.3 37 217 37.3 217.8 37.3 C 218.5 37.3 219.1 37.1 219.6 36.7 C 220 36.3 220.3 35.6 220.4 34.8 Z M 223 33.4 C 223 31.5 223.6 30 224.6 29.1 C 225.5 28.3 226.6 28 227.9 28 C 229.3 28 230.5 28.4 231.4 29.4 C 232.3 30.3 232.7 31.6 232.7 33.2 C 232.7 34.6 232.5 35.6 232.1 36.4 C 231.7 37.1 231.2 37.7 230.4 38.2 C 229.6 38.6 228.8 38.8 227.9 38.8 C 226.4 38.8 225.3 38.3 224.4 37.4 C 223.5 36.5 223 35.1 223 33.4 Z M 224.8 33.4 C 224.8 34.7 225.1 35.7 225.7 36.4 C 226.3 37 227 37.3 227.9 37.3 C 228.8 37.3 229.5 37 230.1 36.4 C 230.6 35.7 230.9 34.7 230.9 33.3 C 230.9 32 230.6 31.1 230.1 30.4 C 229.5 29.7 228.7 29.4 227.9 29.4 C 227 29.4 226.3 29.7 225.7 30.4 C 225.1 31.1 224.8 32 224.8 33.4 Z M 234.8 38.6 L 234.8 28.2 L 236.4 28.2 C 236.4 28.2 236.37 29.64 236.4 29.6 C 236.7 29.1 237.1 28.7 237.7 28.4 C 238.2 28.1 238.8 28 239.5 28 C 240.3 28 240.9 28.1 241.4 28.4 C 241.9 28.8 242.2 29.2 242.4 29.8 C 243.3 28.6 244.3 28 245.6 28 C 246.7 28 247.5 28.2 248 28.8 C 248.6 29.4 248.8 30.3 248.8 31.4 C 248.85 31.44 248.8 38.6 248.8 38.6 L 247.1 38.6 C 247.1 38.6 247.1 32.03 247.1 32 C 247.1 31.3 247 30.8 246.9 30.5 C 246.8 30.2 246.6 30 246.3 29.8 C 246 29.6 245.7 29.5 245.3 29.5 C 244.5 29.5 243.9 29.7 243.4 30.2 C 243 30.7 242.7 31.5 242.7 32.5 C 242.71 32.54 242.7 38.6 242.7 38.6 L 241 38.6 C 241 38.6 240.96 31.82 241 31.8 C 241 31 240.8 30.5 240.5 30.1 C 240.2 29.7 239.8 29.5 239.1 29.5 C 238.6 29.5 238.2 29.6 237.7 29.9 C 237.3 30.1 237 30.5 236.8 31 C 236.6 31.5 236.6 32.2 236.6 33.2 C 236.55 33.18 236.6 38.6 236.6 38.6 L 234.8 38.6 Z M 251.5 38.6 L 251.5 28.2 L 253 28.2 C 253 28.2 253.03 29.64 253 29.6 C 253.4 29.1 253.8 28.7 254.3 28.4 C 254.9 28.1 255.5 28 256.2 28 C 256.9 28 257.6 28.1 258.1 28.4 C 258.6 28.8 258.9 29.2 259.1 29.8 C 259.9 28.6 261 28 262.3 28 C 263.3 28 264.1 28.2 264.7 28.8 C 265.2 29.4 265.5 30.3 265.5 31.4 C 265.51 31.44 265.5 38.6 265.5 38.6 L 263.8 38.6 C 263.8 38.6 263.76 32.03 263.8 32 C 263.8 31.3 263.7 30.8 263.6 30.5 C 263.5 30.2 263.3 30 263 29.8 C 262.7 29.6 262.3 29.5 261.9 29.5 C 261.2 29.5 260.6 29.7 260.1 30.2 C 259.6 30.7 259.4 31.5 259.4 32.5 C 259.38 32.54 259.4 38.6 259.4 38.6 L 257.6 38.6 C 257.6 38.6 257.62 31.82 257.6 31.8 C 257.6 31 257.5 30.5 257.2 30.1 C 256.9 29.7 256.4 29.5 255.8 29.5 C 255.3 29.5 254.8 29.6 254.4 29.9 C 254 30.1 253.7 30.5 253.5 31 C 253.3 31.5 253.2 32.2 253.2 33.2 C 253.21 33.18 253.2 38.6 253.2 38.6 L 251.5 38.6 Z M 268.1 26.3 L 268.1 24.2 L 269.9 24.2 L 269.9 26.3 L 268.1 26.3 Z M 268.1 38.6 L 268.1 28.2 L 269.9 28.2 L 269.9 38.6 L 268.1 38.6 Z M 275.6 37.1 C 275.8 37.1 276.1 37 276.4 37 C 276.4 37 276.7 38.5 276.7 38.5 C 276.2 38.6 275.7 38.7 275.3 38.7 C 274.7 38.7 274.2 38.6 273.8 38.4 C 273.5 38.2 273.2 37.9 273.1 37.6 C 273 37.3 272.9 36.6 272.9 35.5 C 272.88 35.52 272.9 29.6 272.9 29.6 L 271.6 29.6 L 271.6 28.2 L 272.9 28.2 L 272.9 25.6 L 274.6 24.6 L 274.6 28.2 L 276.4 28.2 L 276.4 29.6 L 274.6 29.6 C 274.6 29.6 274.63 35.62 274.6 35.6 C 274.6 36.1 274.7 36.4 274.7 36.6 C 274.8 36.7 274.9 36.8 275 36.9 C 275.2 37 275.4 37.1 275.6 37.1 C 275.6 37.1 275.6 37.1 275.6 37.1 Z M 278.1 38.6 L 278.1 28.2 L 279.7 28.2 C 279.7 28.2 279.69 29.64 279.7 29.6 C 280 29.1 280.4 28.7 281 28.4 C 281.5 28.1 282.1 28 282.8 28 C 283.6 28 284.2 28.1 284.7 28.4 C 285.2 28.8 285.6 29.2 285.8 29.8 C 286.6 28.6 287.6 28 289 28 C 290 28 290.8 28.2 291.3 28.8 C 291.9 29.4 292.2 30.3 292.2 31.4 C 292.17 31.44 292.2 38.6 292.2 38.6 L 290.4 38.6 C 290.4 38.6 290.42 32.03 290.4 32 C 290.4 31.3 290.4 30.8 290.2 30.5 C 290.1 30.2 289.9 30 289.6 29.8 C 289.3 29.6 289 29.5 288.6 29.5 C 287.8 29.5 287.2 29.7 286.8 30.2 C 286.3 30.7 286 31.5 286 32.5 C 286.04 32.54 286 38.6 286 38.6 L 284.3 38.6 C 284.3 38.6 284.28 31.82 284.3 31.8 C 284.3 31 284.1 30.5 283.8 30.1 C 283.6 29.7 283.1 29.5 282.4 29.5 C 281.9 29.5 281.5 29.6 281.1 29.9 C 280.6 30.1 280.3 30.5 280.2 31 C 280 31.5 279.9 32.2 279.9 33.2 C 279.87 33.18 279.9 38.6 279.9 38.6 L 278.1 38.6 Z M 301.9 35.2 C 301.9 35.2 303.7 35.4 303.7 35.4 C 303.4 36.5 302.9 37.3 302.1 37.9 C 301.3 38.5 300.3 38.8 299.1 38.8 C 297.6 38.8 296.4 38.3 295.5 37.4 C 294.6 36.5 294.2 35.1 294.2 33.5 C 294.2 31.7 294.6 30.4 295.5 29.4 C 296.4 28.4 297.6 28 299 28 C 300.4 28 301.6 28.4 302.4 29.4 C 303.3 30.3 303.8 31.6 303.8 33.4 C 303.8 33.5 303.7 33.6 303.7 33.8 C 303.7 33.8 296 33.8 296 33.8 C 296.1 35 296.4 35.8 297 36.4 C 297.6 37 298.3 37.3 299.1 37.3 C 299.8 37.3 300.3 37.2 300.8 36.8 C 301.2 36.5 301.6 36 301.9 35.2 Z M 296.1 32.4 C 296.1 32.4 301.9 32.4 301.9 32.4 C 301.8 31.5 301.6 30.9 301.2 30.4 C 300.7 29.7 299.9 29.4 299.1 29.4 C 298.2 29.4 297.6 29.7 297 30.2 C 296.5 30.8 296.2 31.5 296.1 32.4 Z M 305.9 38.6 L 305.9 28.2 L 307.5 28.2 C 307.5 28.2 307.48 29.66 307.5 29.7 C 308.2 28.5 309.3 28 310.8 28 C 311.4 28 312 28.1 312.5 28.3 C 313 28.5 313.4 28.8 313.7 29.2 C 313.9 29.5 314.1 30 314.2 30.5 C 314.3 30.8 314.3 31.4 314.3 32.2 C 314.33 32.18 314.3 38.6 314.3 38.6 L 312.6 38.6 C 312.6 38.6 312.57 32.25 312.6 32.3 C 312.6 31.5 312.5 31 312.4 30.6 C 312.2 30.3 312 30 311.6 29.8 C 311.3 29.6 310.9 29.5 310.4 29.5 C 309.7 29.5 309 29.7 308.5 30.2 C 307.9 30.7 307.7 31.6 307.7 32.9 C 307.66 32.9 307.7 38.6 307.7 38.6 L 305.9 38.6 Z M 320.1 37.1 C 320.3 37.1 320.5 37 320.9 37 C 320.9 37 321.1 38.5 321.1 38.5 C 320.6 38.6 320.2 38.7 319.8 38.7 C 319.1 38.7 318.7 38.6 318.3 38.4 C 317.9 38.2 317.7 37.9 317.6 37.6 C 317.4 37.3 317.3 36.6 317.3 35.5 C 317.34 35.52 317.3 29.6 317.3 29.6 L 316.1 29.6 L 316.1 28.2 L 317.3 28.2 L 317.3 25.6 L 319.1 24.6 L 319.1 28.2 L 320.9 28.2 L 320.9 29.6 L 319.1 29.6 C 319.1 29.6 319.09 35.62 319.1 35.6 C 319.1 36.1 319.1 36.4 319.2 36.6 C 319.2 36.7 319.3 36.8 319.5 36.9 C 319.6 37 319.8 37.1 320.1 37.1 C 320.1 37.1 320.1 37.1 320.1 37.1 Z M 331.2 37.1 C 331.4 37.1 331.7 37 332 37 C 332 37 332.2 38.5 332.2 38.5 C 331.7 38.6 331.3 38.7 330.9 38.7 C 330.3 38.7 329.8 38.6 329.4 38.4 C 329.1 38.2 328.8 37.9 328.7 37.6 C 328.5 37.3 328.5 36.6 328.5 35.5 C 328.46 35.52 328.5 29.6 328.5 29.6 L 327.2 29.6 L 327.2 28.2 L 328.5 28.2 L 328.5 25.6 L 330.2 24.6 L 330.2 28.2 L 332 28.2 L 332 29.6 L 330.2 29.6 C 330.2 29.6 330.21 35.62 330.2 35.6 C 330.2 36.1 330.2 36.4 330.3 36.6 C 330.4 36.7 330.5 36.8 330.6 36.9 C 330.7 37 330.9 37.1 331.2 37.1 C 331.2 37.1 331.2 37.1 331.2 37.1 Z M 333 33.4 C 333 31.5 333.6 30 334.6 29.1 C 335.5 28.3 336.6 28 337.9 28 C 339.3 28 340.5 28.4 341.4 29.4 C 342.3 30.3 342.8 31.6 342.8 33.2 C 342.8 34.6 342.6 35.6 342.2 36.4 C 341.8 37.1 341.2 37.7 340.4 38.2 C 339.6 38.6 338.8 38.8 337.9 38.8 C 336.4 38.8 335.3 38.3 334.4 37.4 C 333.5 36.5 333 35.1 333 33.4 Z M 334.8 33.4 C 334.8 34.7 335.1 35.7 335.7 36.4 C 336.3 37 337 37.3 337.9 37.3 C 338.8 37.3 339.5 37 340.1 36.4 C 340.7 35.7 340.9 34.7 340.9 33.3 C 340.9 32 340.7 31.1 340.1 30.4 C 339.5 29.7 338.8 29.4 337.9 29.4 C 337 29.4 336.3 29.7 335.7 30.4 C 335.1 31.1 334.8 32 334.8 33.4 Z M 352 38.6 L 350.4 38.6 L 350.4 24.2 L 352.1 24.2 C 352.1 24.2 352.12 29.35 352.1 29.4 C 352.9 28.4 353.8 28 355 28 C 355.6 28 356.2 28.1 356.8 28.3 C 357.3 28.6 357.8 29 358.2 29.4 C 358.5 29.9 358.8 30.5 359 31.1 C 359.3 31.8 359.4 32.5 359.4 33.2 C 359.4 35 358.9 36.4 358 37.3 C 357.2 38.3 356.1 38.8 354.9 38.8 C 353.6 38.8 352.7 38.3 352 37.3 C 351.99 37.26 352 38.6 352 38.6 Z M 352 33.3 C 352 34.5 352.1 35.4 352.5 36 C 353 36.9 353.8 37.3 354.7 37.3 C 355.5 37.3 356.2 37 356.7 36.3 C 357.3 35.7 357.6 34.7 357.6 33.4 C 357.6 32 357.3 31 356.8 30.4 C 356.2 29.7 355.6 29.4 354.8 29.4 C 354 29.4 353.4 29.7 352.8 30.4 C 352.3 31.1 352 32 352 33.3 Z M 368.6 35.2 C 368.6 35.2 370.4 35.4 370.4 35.4 C 370.1 36.5 369.6 37.3 368.8 37.9 C 368 38.5 367.1 38.8 365.8 38.8 C 364.3 38.8 363.1 38.3 362.2 37.4 C 361.4 36.5 360.9 35.1 360.9 33.5 C 360.9 31.7 361.4 30.4 362.3 29.4 C 363.2 28.4 364.3 28 365.8 28 C 367.1 28 368.3 28.4 369.2 29.4 C 370 30.3 370.5 31.6 370.5 33.4 C 370.5 33.5 370.5 33.6 370.5 33.8 C 370.5 33.8 362.7 33.8 362.7 33.8 C 362.8 35 363.1 35.8 363.7 36.4 C 364.3 37 365 37.3 365.9 37.3 C 366.5 37.3 367.1 37.2 367.5 36.8 C 368 36.5 368.3 36 368.6 35.2 Z M 362.8 32.4 C 362.8 32.4 368.6 32.4 368.6 32.4 C 368.5 31.5 368.3 30.9 367.9 30.4 C 367.4 29.7 366.7 29.4 365.8 29.4 C 365 29.4 364.3 29.7 363.7 30.2 C 363.2 30.8 362.9 31.5 362.8 32.4 Z M 379.4 34.8 C 379.4 34.8 381.1 35 381.1 35 C 380.9 36.2 380.4 37.1 379.7 37.8 C 378.9 38.5 377.9 38.8 376.8 38.8 C 375.4 38.8 374.2 38.3 373.4 37.4 C 372.5 36.5 372.1 35.1 372.1 33.4 C 372.1 32.3 372.3 31.3 372.6 30.5 C 373 29.6 373.6 29 374.3 28.6 C 375.1 28.2 375.9 28 376.8 28 C 377.9 28 378.9 28.2 379.6 28.8 C 380.3 29.4 380.7 30.2 380.9 31.2 C 380.9 31.2 379.2 31.5 379.2 31.5 C 379.1 30.8 378.8 30.3 378.4 29.9 C 378 29.6 377.5 29.4 376.9 29.4 C 376 29.4 375.3 29.7 374.7 30.4 C 374.2 31 373.9 32 373.9 33.4 C 373.9 34.8 374.2 35.8 374.7 36.4 C 375.2 37 375.9 37.3 376.8 37.3 C 377.5 37.3 378 37.1 378.5 36.7 C 379 36.3 379.3 35.6 379.4 34.8 Z M 382 33.4 C 382 31.5 382.5 30 383.6 29.1 C 384.5 28.3 385.5 28 386.8 28 C 388.3 28 389.4 28.4 390.3 29.4 C 391.2 30.3 391.7 31.6 391.7 33.2 C 391.7 34.6 391.5 35.6 391.1 36.4 C 390.7 37.1 390.1 37.7 389.3 38.2 C 388.6 38.6 387.7 38.8 386.8 38.8 C 385.4 38.8 384.2 38.3 383.3 37.4 C 382.4 36.5 382 35.1 382 33.4 Z M 383.8 33.4 C 383.8 34.7 384.1 35.7 384.6 36.4 C 385.2 37 385.9 37.3 386.8 37.3 C 387.7 37.3 388.4 37 389 36.4 C 389.6 35.7 389.9 34.7 389.9 33.3 C 389.9 32 389.6 31.1 389 30.4 C 388.4 29.7 387.7 29.4 386.8 29.4 C 385.9 29.4 385.2 29.7 384.6 30.4 C 384.1 31.1 383.8 32 383.8 33.4 Z M 393.7 38.6 L 393.7 28.2 L 395.3 28.2 C 395.3 28.2 395.31 29.64 395.3 29.6 C 395.6 29.1 396.1 28.7 396.6 28.4 C 397.2 28.1 397.8 28 398.5 28 C 399.2 28 399.9 28.1 400.3 28.4 C 400.8 28.8 401.2 29.2 401.4 29.8 C 402.2 28.6 403.3 28 404.6 28 C 405.6 28 406.4 28.2 407 28.8 C 407.5 29.4 407.8 30.3 407.8 31.4 C 407.79 31.44 407.8 38.6 407.8 38.6 L 406 38.6 C 406 38.6 406.04 32.03 406 32 C 406 31.3 406 30.8 405.9 30.5 C 405.8 30.2 405.6 30 405.3 29.8 C 405 29.6 404.6 29.5 404.2 29.5 C 403.5 29.5 402.9 29.7 402.4 30.2 C 401.9 30.7 401.7 31.5 401.7 32.5 C 401.66 32.54 401.7 38.6 401.7 38.6 L 399.9 38.6 C 399.9 38.6 399.9 31.82 399.9 31.8 C 399.9 31 399.8 30.5 399.5 30.1 C 399.2 29.7 398.7 29.5 398.1 29.5 C 397.6 29.5 397.1 29.6 396.7 29.9 C 396.3 30.1 396 30.5 395.8 31 C 395.6 31.5 395.5 32.2 395.5 33.2 C 395.5 33.18 395.5 38.6 395.5 38.6 L 393.7 38.6 Z M 410.4 26.3 L 410.4 24.2 L 412.2 24.2 L 412.2 26.3 L 410.4 26.3 Z M 410.4 38.6 L 410.4 28.2 L 412.2 28.2 L 412.2 38.6 L 410.4 38.6 Z M 414.8 38.6 L 414.8 28.2 L 416.4 28.2 C 416.4 28.2 416.43 29.66 416.4 29.7 C 417.2 28.5 418.3 28 419.7 28 C 420.4 28 420.9 28.1 421.5 28.3 C 422 28.5 422.4 28.8 422.6 29.2 C 422.9 29.5 423.1 30 423.2 30.5 C 423.2 30.8 423.3 31.4 423.3 32.2 C 423.27 32.18 423.3 38.6 423.3 38.6 L 421.5 38.6 C 421.5 38.6 421.51 32.25 421.5 32.3 C 421.5 31.5 421.4 31 421.3 30.6 C 421.2 30.3 420.9 30 420.6 29.8 C 420.2 29.6 419.8 29.5 419.4 29.5 C 418.6 29.5 418 29.7 417.4 30.2 C 416.9 30.7 416.6 31.6 416.6 32.9 C 416.6 32.9 416.6 38.6 416.6 38.6 L 414.8 38.6 Z M 425.6 39.4 C 425.6 39.4 427.4 39.7 427.4 39.7 C 427.4 40.2 427.6 40.6 427.9 40.8 C 428.4 41.2 429 41.3 429.7 41.3 C 430.6 41.3 431.2 41.2 431.6 40.8 C 432.1 40.5 432.4 40 432.5 39.5 C 432.6 39.1 432.7 38.3 432.6 37.2 C 431.9 38.1 430.9 38.6 429.8 38.6 C 428.3 38.6 427.2 38 426.5 37 C 425.7 36 425.3 34.8 425.3 33.3 C 425.3 32.3 425.5 31.4 425.8 30.6 C 426.2 29.7 426.7 29.1 427.4 28.6 C 428.1 28.2 428.9 28 429.8 28 C 431 28 432 28.4 432.8 29.4 C 432.81 29.44 432.8 28.2 432.8 28.2 L 434.4 28.2 C 434.4 28.2 434.43 37.15 434.4 37.2 C 434.4 38.8 434.3 39.9 433.9 40.6 C 433.6 41.3 433.1 41.8 432.4 42.2 C 431.7 42.6 430.8 42.8 429.7 42.8 C 428.5 42.8 427.5 42.5 426.7 41.9 C 426 41.4 425.6 40.5 425.6 39.4 Z M 427.1 33.2 C 427.1 34.6 427.4 35.5 427.9 36.2 C 428.5 36.8 429.1 37.1 429.9 37.1 C 430.7 37.1 431.4 36.8 432 36.2 C 432.5 35.6 432.8 34.6 432.8 33.2 C 432.8 32 432.5 31 431.9 30.4 C 431.4 29.7 430.7 29.4 429.9 29.4 C 429.1 29.4 428.5 29.7 427.9 30.4 C 427.4 31 427.1 31.9 427.1 33.2 Z M 449.4 34.8 C 449.4 34.8 451.1 35 451.1 35 C 451 36.2 450.5 37.1 449.7 37.8 C 448.9 38.5 448 38.8 446.8 38.8 C 445.4 38.8 444.3 38.3 443.4 37.4 C 442.5 36.5 442.1 35.1 442.1 33.4 C 442.1 32.3 442.3 31.3 442.7 30.5 C 443 29.6 443.6 29 444.4 28.6 C 445.1 28.2 445.9 28 446.8 28 C 448 28 448.9 28.2 449.6 28.8 C 450.3 29.4 450.8 30.2 451 31.2 C 451 31.2 449.3 31.5 449.3 31.5 C 449.1 30.8 448.8 30.3 448.4 29.9 C 448 29.6 447.5 29.4 446.9 29.4 C 446 29.4 445.3 29.7 444.7 30.4 C 444.2 31 443.9 32 443.9 33.4 C 443.9 34.8 444.2 35.8 444.7 36.4 C 445.3 37 445.9 37.3 446.8 37.3 C 447.5 37.3 448.1 37.1 448.5 36.7 C 449 36.3 449.3 35.6 449.4 34.8 Z M 459.8 38.6 C 459.6 38.2 459.5 37.8 459.4 37.3 C 458.8 37.8 458.1 38.2 457.5 38.5 C 456.9 38.7 456.3 38.8 455.6 38.8 C 454.5 38.8 453.6 38.5 453 38 C 452.4 37.4 452.1 36.7 452.1 35.8 C 452.1 35.3 452.2 34.9 452.4 34.4 C 452.6 34 452.9 33.7 453.3 33.4 C 453.7 33.2 454.1 33 454.6 32.8 C 454.9 32.8 455.4 32.7 456.1 32.6 C 457.6 32.4 458.6 32.2 459.3 32 C 459.3 31.7 459.3 31.6 459.3 31.5 C 459.3 30.8 459.1 30.3 458.8 30 C 458.3 29.6 457.7 29.4 456.8 29.4 C 456 29.4 455.3 29.6 454.9 29.8 C 454.6 30.1 454.3 30.6 454.1 31.4 C 454.1 31.4 452.4 31.1 452.4 31.1 C 452.5 30.4 452.8 29.8 453.1 29.4 C 453.5 28.9 454 28.6 454.7 28.3 C 455.4 28.1 456.1 28 457 28 C 457.9 28 458.6 28.1 459.2 28.3 C 459.7 28.5 460.1 28.7 460.4 29.1 C 460.7 29.4 460.9 29.8 461 30.3 C 461 30.5 461 31.1 461 31.9 C 461 31.9 461 34.2 461 34.2 C 461 35.8 461.1 36.9 461.2 37.3 C 461.2 37.7 461.4 38.2 461.6 38.6 C 461.6 38.56 459.8 38.6 459.8 38.6 C 459.8 38.6 459.77 38.56 459.8 38.6 Z M 459.3 33.4 C 458.6 33.6 457.7 33.8 456.4 34 C 455.7 34.1 455.2 34.2 454.9 34.4 C 454.6 34.5 454.3 34.7 454.2 34.9 C 454 35.2 453.9 35.5 453.9 35.8 C 453.9 36.2 454.1 36.6 454.5 36.9 C 454.8 37.3 455.3 37.4 456 37.4 C 456.7 37.4 457.3 37.3 457.8 37 C 458.3 36.7 458.7 36.3 459 35.8 C 459.2 35.4 459.3 34.8 459.3 34 C 459.3 34 459.3 33.4 459.3 33.4 Z M 463.8 38.6 L 463.8 28.2 L 465.3 28.2 C 465.3 28.2 465.33 29.76 465.3 29.8 C 465.7 29 466.1 28.5 466.5 28.3 C 466.8 28.1 467.2 28 467.6 28 C 468.2 28 468.8 28.1 469.4 28.5 C 469.4 28.5 468.8 30.2 468.8 30.2 C 468.3 29.9 467.9 29.8 467.5 29.8 C 467.1 29.8 466.8 29.9 466.5 30.1 C 466.1 30.3 465.9 30.7 465.8 31.1 C 465.6 31.7 465.5 32.4 465.5 33.1 C 465.51 33.13 465.5 38.6 465.5 38.6 L 463.8 38.6 Z M 472.1 38.6 L 470.4 38.6 L 470.4 24.2 L 472.2 24.2 C 472.2 24.2 472.18 29.35 472.2 29.4 C 472.9 28.4 473.9 28 475 28 C 475.7 28 476.3 28.1 476.8 28.3 C 477.4 28.6 477.9 29 478.2 29.4 C 478.6 29.9 478.9 30.5 479.1 31.1 C 479.3 31.8 479.4 32.5 479.4 33.2 C 479.4 35 479 36.4 478.1 37.3 C 477.2 38.3 476.2 38.8 474.9 38.8 C 473.7 38.8 472.7 38.3 472.1 37.3 C 472.05 37.26 472.1 38.6 472.1 38.6 Z M 472 33.3 C 472 34.5 472.2 35.4 472.5 36 C 473.1 36.9 473.8 37.3 474.8 37.3 C 475.6 37.3 476.2 37 476.8 36.3 C 477.3 35.7 477.6 34.7 477.6 33.4 C 477.6 32 477.3 31 476.8 30.4 C 476.3 29.7 475.6 29.4 474.9 29.4 C 474.1 29.4 473.4 29.7 472.9 30.4 C 472.3 31.1 472 32 472 33.3 Z M 480.9 33.4 C 480.9 31.5 481.4 30 482.5 29.1 C 483.4 28.3 484.5 28 485.8 28 C 487.2 28 488.4 28.4 489.3 29.4 C 490.2 30.3 490.6 31.6 490.6 33.2 C 490.6 34.6 490.4 35.6 490 36.4 C 489.6 37.1 489 37.7 488.3 38.2 C 487.5 38.6 486.7 38.8 485.8 38.8 C 484.3 38.8 483.1 38.3 482.2 37.4 C 481.3 36.5 480.9 35.1 480.9 33.4 Z M 482.7 33.4 C 482.7 34.7 483 35.7 483.6 36.4 C 484.2 37 484.9 37.3 485.8 37.3 C 486.6 37.3 487.4 37 487.9 36.4 C 488.5 35.7 488.8 34.7 488.8 33.3 C 488.8 32 488.5 31.1 487.9 30.4 C 487.4 29.7 486.6 29.4 485.8 29.4 C 484.9 29.4 484.2 29.7 483.6 30.4 C 483 31.1 482.7 32 482.7 33.4 Z M 492.7 38.6 L 492.7 28.2 L 494.3 28.2 C 494.3 28.2 494.26 29.66 494.3 29.7 C 495 28.5 496.1 28 497.6 28 C 498.2 28 498.8 28.1 499.3 28.3 C 499.8 28.5 500.2 28.8 500.5 29.2 C 500.7 29.5 500.9 30 501 30.5 C 501.1 30.8 501.1 31.4 501.1 32.2 C 501.1 32.18 501.1 38.6 501.1 38.6 L 499.3 38.6 C 499.3 38.6 499.35 32.25 499.3 32.3 C 499.3 31.5 499.3 31 499.1 30.6 C 499 30.3 498.8 30 498.4 29.8 C 498.1 29.6 497.7 29.5 497.2 29.5 C 496.4 29.5 495.8 29.7 495.2 30.2 C 494.7 30.7 494.4 31.6 494.4 32.9 C 494.43 32.9 494.4 38.6 494.4 38.6 L 492.7 38.6 Z M 503.1 34.3 L 503.1 32.5 L 508.5 32.5 L 508.5 34.3 L 503.1 34.3 Z M 510.5 38.6 L 510.5 28.2 L 512 28.2 C 512 28.2 512.04 29.66 512 29.7 C 512.8 28.5 513.9 28 515.3 28 C 516 28 516.5 28.1 517.1 28.3 C 517.6 28.5 518 28.8 518.2 29.2 C 518.5 29.5 518.7 30 518.8 30.5 C 518.9 30.8 518.9 31.4 518.9 32.2 C 518.89 32.18 518.9 38.6 518.9 38.6 L 517.1 38.6 C 517.1 38.6 517.13 32.25 517.1 32.3 C 517.1 31.5 517.1 31 516.9 30.6 C 516.8 30.3 516.5 30 516.2 29.8 C 515.8 29.6 515.4 29.5 515 29.5 C 514.2 29.5 513.6 29.7 513 30.2 C 512.5 30.7 512.2 31.6 512.2 32.9 C 512.22 32.9 512.2 38.6 512.2 38.6 L 510.5 38.6 Z M 528.7 35.2 C 528.7 35.2 530.5 35.4 530.5 35.4 C 530.2 36.5 529.7 37.3 528.9 37.9 C 528.1 38.5 527.1 38.8 525.9 38.8 C 524.4 38.8 523.2 38.3 522.3 37.4 C 521.4 36.5 521 35.1 521 33.5 C 521 31.7 521.4 30.4 522.3 29.4 C 523.2 28.4 524.4 28 525.8 28 C 527.2 28 528.4 28.4 529.2 29.4 C 530.1 30.3 530.6 31.6 530.6 33.4 C 530.6 33.5 530.6 33.6 530.5 33.8 C 530.5 33.8 522.8 33.8 522.8 33.8 C 522.9 35 523.2 35.8 523.8 36.4 C 524.4 37 525.1 37.3 525.9 37.3 C 526.6 37.3 527.1 37.2 527.6 36.8 C 528.1 36.5 528.4 36 528.7 35.2 Z M 522.9 32.4 C 522.9 32.4 528.7 32.4 528.7 32.4 C 528.6 31.5 528.4 30.9 528 30.4 C 527.5 29.7 526.8 29.4 525.9 29.4 C 525.1 29.4 524.4 29.7 523.8 30.2 C 523.3 30.8 523 31.5 522.9 32.4 Z M 532.4 39.4 C 532.4 39.4 534.1 39.7 534.1 39.7 C 534.2 40.2 534.4 40.6 534.7 40.8 C 535.1 41.2 535.7 41.3 536.5 41.3 C 537.3 41.3 537.9 41.2 538.4 40.8 C 538.8 40.5 539.1 40 539.3 39.5 C 539.3 39.1 539.4 38.3 539.4 37.2 C 538.6 38.1 537.7 38.6 536.5 38.6 C 535.1 38.6 534 38 533.2 37 C 532.4 36 532 34.8 532 33.3 C 532 32.3 532.2 31.4 532.6 30.6 C 532.9 29.7 533.4 29.1 534.1 28.6 C 534.8 28.2 535.6 28 536.5 28 C 537.7 28 538.8 28.4 539.6 29.4 C 539.55 29.44 539.6 28.2 539.6 28.2 L 541.2 28.2 C 541.2 28.2 541.17 37.15 541.2 37.2 C 541.2 38.8 541 39.9 540.7 40.6 C 540.3 41.3 539.8 41.8 539.1 42.2 C 538.4 42.6 537.5 42.8 536.5 42.8 C 535.2 42.8 534.2 42.5 533.5 41.9 C 532.7 41.4 532.4 40.5 532.4 39.4 Z M 533.8 33.2 C 533.8 34.6 534.1 35.5 534.6 36.2 C 535.2 36.8 535.9 37.1 536.7 37.1 C 537.5 37.1 538.2 36.8 538.7 36.2 C 539.3 35.6 539.5 34.6 539.5 33.2 C 539.5 32 539.2 31 538.7 30.4 C 538.1 29.7 537.4 29.4 536.7 29.4 C 535.9 29.4 535.2 29.7 534.7 30.4 C 534.1 31 533.8 31.9 533.8 33.2 Z M 550.9 38.6 C 550.8 38.2 550.6 37.8 550.6 37.3 C 549.9 37.8 549.3 38.2 548.7 38.5 C 548.1 38.7 547.5 38.8 546.8 38.8 C 545.6 38.8 544.8 38.5 544.2 38 C 543.5 37.4 543.2 36.7 543.2 35.8 C 543.2 35.3 543.3 34.9 543.6 34.4 C 543.8 34 544.1 33.7 544.5 33.4 C 544.9 33.2 545.3 33 545.8 32.8 C 546.1 32.8 546.6 32.7 547.3 32.6 C 548.7 32.4 549.8 32.2 550.4 32 C 550.5 31.7 550.5 31.6 550.5 31.5 C 550.5 30.8 550.3 30.3 550 30 C 549.5 29.6 548.8 29.4 548 29.4 C 547.1 29.4 546.5 29.6 546.1 29.8 C 545.7 30.1 545.4 30.6 545.3 31.4 C 545.3 31.4 543.5 31.1 543.5 31.1 C 543.7 30.4 543.9 29.8 544.3 29.4 C 544.7 28.9 545.2 28.6 545.9 28.3 C 546.5 28.1 547.3 28 548.2 28 C 549.1 28 549.8 28.1 550.4 28.3 C 550.9 28.5 551.3 28.7 551.6 29.1 C 551.9 29.4 552 29.8 552.1 30.3 C 552.2 30.5 552.2 31.1 552.2 31.9 C 552.2 31.9 552.2 34.2 552.2 34.2 C 552.2 35.8 552.3 36.9 552.3 37.3 C 552.4 37.7 552.6 38.2 552.8 38.6 C 552.78 38.56 550.9 38.6 550.9 38.6 C 550.9 38.6 550.95 38.56 550.9 38.6 Z M 550.4 33.4 C 549.8 33.6 548.9 33.8 547.6 34 C 546.9 34.1 546.3 34.2 546 34.4 C 545.7 34.5 545.5 34.7 545.4 34.9 C 545.2 35.2 545.1 35.5 545.1 35.8 C 545.1 36.2 545.3 36.6 545.6 36.9 C 546 37.3 546.5 37.4 547.2 37.4 C 547.9 37.4 548.5 37.3 549 37 C 549.5 36.7 549.9 36.3 550.2 35.8 C 550.4 35.4 550.4 34.8 550.4 34 C 550.4 34 550.4 33.4 550.4 33.4 Z M 558 37.1 C 558.2 37.1 558.5 37 558.8 37 C 558.8 37 559 38.5 559 38.5 C 558.5 38.6 558.1 38.7 557.7 38.7 C 557.1 38.7 556.6 38.6 556.2 38.4 C 555.9 38.2 555.6 37.9 555.5 37.6 C 555.3 37.3 555.3 36.6 555.3 35.5 C 555.27 35.52 555.3 29.6 555.3 29.6 L 554 29.6 L 554 28.2 L 555.3 28.2 L 555.3 25.6 L 557 24.6 L 557 28.2 L 558.8 28.2 L 558.8 29.6 L 557 29.6 C 557 29.6 557.02 35.62 557 35.6 C 557 36.1 557.1 36.4 557.1 36.6 C 557.2 36.7 557.3 36.8 557.4 36.9 C 557.6 37 557.8 37.1 558 37.1 C 558 37.1 558 37.1 558 37.1 Z M 560.5 26.3 L 560.5 24.2 L 562.3 24.2 L 562.3 26.3 L 560.5 26.3 Z M 560.5 38.6 L 560.5 28.2 L 562.3 28.2 L 562.3 38.6 L 560.5 38.6 Z M 567.8 38.6 L 563.9 28.2 L 565.7 28.2 C 565.7 28.2 567.97 34.4 568 34.4 C 568.2 35.1 568.4 35.8 568.6 36.5 C 568.8 35.9 569 35.3 569.3 34.5 C 569.29 34.52 571.6 28.2 571.6 28.2 L 573.4 28.2 L 569.5 38.6 L 567.8 38.6 Z M 582.1 35.2 C 582.1 35.2 583.9 35.4 583.9 35.4 C 583.6 36.5 583.1 37.3 582.3 37.9 C 581.5 38.5 580.5 38.8 579.3 38.8 C 577.8 38.8 576.6 38.3 575.7 37.4 C 574.8 36.5 574.4 35.1 574.4 33.5 C 574.4 31.7 574.8 30.4 575.7 29.4 C 576.6 28.4 577.8 28 579.2 28 C 580.6 28 581.7 28.4 582.6 29.4 C 583.5 30.3 583.9 31.6 583.9 33.4 C 583.9 33.5 583.9 33.6 583.9 33.8 C 583.9 33.8 576.2 33.8 576.2 33.8 C 576.2 35 576.6 35.8 577.1 36.4 C 577.7 37 578.5 37.3 579.3 37.3 C 580 37.3 580.5 37.2 581 36.8 C 581.4 36.5 581.8 36 582.1 35.2 Z M 576.3 32.4 C 576.3 32.4 582.1 32.4 582.1 32.4 C 582 31.5 581.8 30.9 581.4 30.4 C 580.8 29.7 580.1 29.4 579.2 29.4 C 578.4 29.4 577.7 29.7 577.2 30.2 C 576.6 30.8 576.3 31.5 576.3 32.4 Z M 593.3 38.6 L 591.6 38.6 L 591.6 24.2 L 593.4 24.2 C 593.4 24.2 593.38 29.35 593.4 29.4 C 594.1 28.4 595.1 28 596.2 28 C 596.9 28 597.5 28.1 598 28.3 C 598.6 28.6 599.1 29 599.4 29.4 C 599.8 29.9 600.1 30.5 600.3 31.1 C 600.5 31.8 600.6 32.5 600.6 33.2 C 600.6 35 600.2 36.4 599.3 37.3 C 598.4 38.3 597.4 38.8 596.1 38.8 C 594.9 38.8 593.9 38.3 593.3 37.3 C 593.25 37.26 593.3 38.6 593.3 38.6 Z M 593.2 33.3 C 593.2 34.5 593.4 35.4 593.7 36 C 594.3 36.9 595 37.3 596 37.3 C 596.8 37.3 597.4 37 598 36.3 C 598.5 35.7 598.8 34.7 598.8 33.4 C 598.8 32 598.5 31 598 30.4 C 597.5 29.7 596.8 29.4 596.1 29.4 C 595.3 29.4 594.6 29.7 594.1 30.4 C 593.5 31.1 593.2 32 593.2 33.3 Z M 603.8 42.8 C 603.5 42.8 603.1 42.7 602.7 42.6 C 602.7 42.6 602.5 40.9 602.5 40.9 C 602.9 41 603.2 41.1 603.5 41.1 C 603.9 41.1 604.2 41 604.4 40.9 C 604.7 40.7 604.9 40.6 605 40.3 C 605.1 40.1 605.3 39.7 605.5 39 C 605.6 38.9 605.6 38.8 605.7 38.6 C 605.69 38.58 601.8 28.2 601.8 28.2 L 603.7 28.2 C 603.7 28.2 605.81 34.2 605.8 34.2 C 606.1 35 606.3 35.8 606.6 36.6 C 606.8 35.8 607 35 607.3 34.2 C 607.29 34.23 609.5 28.2 609.5 28.2 L 611.3 28.2 C 611.3 28.2 607.31 38.74 607.3 38.7 C 606.9 39.9 606.6 40.7 606.3 41.1 C 606 41.7 605.7 42.1 605.3 42.4 C 604.9 42.6 604.4 42.8 603.8 42.8 C 603.8 42.8 603.8 42.8 603.8 42.8 Z M 627.1 36.9 L 627.1 38.6 C 627.1 38.6 617.6 38.56 617.6 38.6 C 617.6 38.1 617.7 37.7 617.8 37.3 C 618 36.7 618.4 36.1 619 35.4 C 619.5 34.8 620.3 34.1 621.3 33.3 C 622.8 32 623.9 31 624.4 30.2 C 625 29.5 625.2 28.8 625.2 28.1 C 625.2 27.4 625 26.8 624.5 26.4 C 624 25.9 623.3 25.6 622.5 25.6 C 621.7 25.6 621 25.9 620.5 26.4 C 620 26.9 619.7 27.6 619.7 28.5 C 619.7 28.5 617.9 28.3 617.9 28.3 C 618.1 27 618.5 26 619.3 25.2 C 620.1 24.5 621.2 24.2 622.6 24.2 C 624 24.2 625 24.6 625.8 25.3 C 626.6 26.1 627 27 627 28.2 C 627 28.7 626.9 29.3 626.7 29.8 C 626.5 30.4 626.1 31 625.5 31.6 C 625 32.2 624.1 33 622.8 34.1 C 621.8 35 621.1 35.6 620.8 35.9 C 620.5 36.2 620.2 36.6 620 36.9 C 620.04 36.87 627.1 36.9 627.1 36.9 Z M 630.4 37.3 C 629.4 36.1 628.9 34.2 628.9 31.5 C 628.9 29.8 629.1 28.4 629.5 27.4 C 629.8 26.4 630.3 25.6 631 25 C 631.7 24.5 632.6 24.2 633.6 24.2 C 634.4 24.2 635.1 24.3 635.6 24.6 C 636.2 25 636.7 25.4 637.1 26 C 637.4 26.6 637.7 27.3 638 28.1 C 638.2 29 638.3 30.1 638.3 31.5 C 638.3 33.2 638.1 34.5 637.8 35.6 C 637.4 36.6 636.9 37.4 636.2 38 C 635.5 38.5 634.7 38.8 633.6 38.8 C 632.2 38.8 631.1 38.3 630.4 37.3 C 630.4 37.3 630.4 37.3 630.4 37.3 Z M 631.7 26.7 C 631.1 27.5 630.8 29.1 630.8 31.5 C 630.8 33.9 631 35.4 631.6 36.2 C 632.1 37 632.8 37.4 633.6 37.4 C 634.4 37.4 635.1 37 635.6 36.2 C 636.2 35.4 636.5 33.8 636.5 31.5 C 636.5 29.1 636.2 27.6 635.6 26.8 C 635.1 26 634.4 25.6 633.6 25.6 C 632.8 25.6 632.1 26 631.7 26.7 C 631.7 26.7 631.7 26.7 631.7 26.7 Z M 640.1 34.8 C 640.1 34.8 641.8 34.5 641.8 34.5 C 642 35.5 642.4 36.3 642.9 36.7 C 643.4 37.1 643.9 37.4 644.6 37.4 C 645.5 37.4 646.2 37.1 646.7 36.5 C 647.3 35.9 647.6 35.2 647.6 34.4 C 647.6 33.6 647.3 32.9 646.8 32.4 C 646.3 31.9 645.6 31.6 644.8 31.6 C 644.5 31.6 644 31.7 643.5 31.8 C 643.5 31.8 643.7 30.2 643.7 30.2 C 643.9 30.3 644 30.3 644 30.3 C 644.8 30.3 645.4 30.1 646 29.7 C 646.6 29.3 646.9 28.7 646.9 27.9 C 646.9 27.2 646.7 26.7 646.3 26.3 C 645.9 25.8 645.3 25.6 644.6 25.6 C 643.9 25.6 643.3 25.8 642.9 26.3 C 642.4 26.7 642.1 27.3 642 28.2 C 642 28.2 640.3 27.9 640.3 27.9 C 640.5 26.7 641 25.8 641.7 25.2 C 642.5 24.5 643.4 24.2 644.6 24.2 C 645.3 24.2 646.1 24.4 646.7 24.7 C 647.4 25 647.9 25.5 648.2 26.1 C 648.6 26.6 648.8 27.3 648.8 27.9 C 648.8 28.5 648.6 29.1 648.3 29.6 C 647.9 30.1 647.4 30.5 646.8 30.8 C 647.6 31 648.3 31.4 648.8 32 C 649.2 32.6 649.5 33.4 649.5 34.3 C 649.5 35.6 649 36.6 648.1 37.5 C 647.2 38.4 646 38.8 644.6 38.8 C 643.4 38.8 642.3 38.4 641.5 37.7 C 640.7 36.9 640.2 36 640.1 34.8 Z M 652.6 37.3 C 651.7 36.1 651.2 34.2 651.2 31.5 C 651.2 29.8 651.4 28.4 651.7 27.4 C 652.1 26.4 652.6 25.6 653.3 25 C 654 24.5 654.8 24.2 655.9 24.2 C 656.6 24.2 657.3 24.3 657.9 24.6 C 658.5 25 658.9 25.4 659.3 26 C 659.7 26.6 660 27.3 660.2 28.1 C 660.4 29 660.5 30.1 660.5 31.5 C 660.5 33.2 660.4 34.5 660 35.6 C 659.7 36.6 659.1 37.4 658.5 38 C 657.8 38.5 656.9 38.8 655.9 38.8 C 654.5 38.8 653.4 38.3 652.6 37.3 C 652.6 37.3 652.6 37.3 652.6 37.3 Z M 653.9 26.7 C 653.3 27.5 653 29.1 653 31.5 C 653 33.9 653.3 35.4 653.8 36.2 C 654.4 37 655.1 37.4 655.9 37.4 C 656.7 37.4 657.3 37 657.9 36.2 C 658.4 35.4 658.7 33.8 658.7 31.5 C 658.7 29.1 658.4 27.6 657.9 26.8 C 657.3 26 656.7 25.6 655.8 25.6 C 655 25.6 654.4 26 653.9 26.7 C 653.9 26.7 653.9 26.7 653.9 26.7 Z M 663.3 38.6 L 663.3 36.6 L 665.3 36.6 L 665.3 38.6 L 663.3 38.6 Z " stroke="none" fill="#54626c"/>
  </g>
  <g id="Polygon59099">
    <path d="M 0 14.6 L 5.5 0.2 L 7.5 0.2 L 13.4 14.6 L 11.2 14.6 L 9.5 10.2 L 3.6 10.2 L 2 14.6 L 0 14.6 Z M 4.1 8.7 L 9 8.7 C 9 8.7 7.46 4.72 7.5 4.7 C 7 3.5 6.7 2.5 6.4 1.7 C 6.3 2.7 6 3.6 5.7 4.5 C 5.67 4.48 4.1 8.7 4.1 8.7 Z M 21.4 14.6 C 21.4 14.6 21.39 13.25 21.4 13.3 C 20.7 14.3 19.8 14.8 18.5 14.8 C 17.7 14.8 16.9 14.6 16.2 14.1 C 15.5 13.7 15 13 14.6 12.2 C 14.2 11.4 14 10.4 14 9.4 C 14 8.3 14.2 7.4 14.5 6.6 C 14.9 5.7 15.4 5.1 16.1 4.6 C 16.8 4.2 17.6 4 18.4 4 C 19 4 19.6 4.1 20.1 4.4 C 20.6 4.6 21 5 21.3 5.4 C 21.27 5.38 21.3 0.2 21.3 0.2 L 23 0.2 L 23 14.6 L 21.4 14.6 Z M 15.8 9.4 C 15.8 10.7 16.1 11.7 16.7 12.4 C 17.2 13 17.9 13.3 18.7 13.3 C 19.4 13.3 20.1 13 20.6 12.4 C 21.1 11.8 21.4 10.8 21.4 9.5 C 21.4 8.1 21.1 7.1 20.6 6.4 C 20 5.7 19.4 5.4 18.6 5.4 C 17.8 5.4 17.1 5.7 16.6 6.4 C 16.1 7 15.8 8 15.8 9.4 Z M 28.7 14.6 L 24.7 4.2 L 26.6 4.2 C 26.6 4.2 28.8 10.4 28.8 10.4 C 29 11.1 29.3 11.8 29.5 12.5 C 29.6 11.9 29.8 11.3 30.1 10.5 C 30.12 10.52 32.4 4.2 32.4 4.2 L 34.2 4.2 L 30.3 14.6 L 28.7 14.6 Z M 35.8 2.3 L 35.8 0.2 L 37.5 0.2 L 37.5 2.3 L 35.8 2.3 Z M 35.8 14.6 L 35.8 4.2 L 37.5 4.2 L 37.5 14.6 L 35.8 14.6 Z M 39.5 11.5 C 39.5 11.5 41.3 11.2 41.3 11.2 C 41.4 11.9 41.6 12.4 42.1 12.8 C 42.5 13.2 43.1 13.3 43.9 13.3 C 44.8 13.3 45.4 13.2 45.7 12.9 C 46.1 12.5 46.3 12.1 46.3 11.7 C 46.3 11.3 46.2 11 45.8 10.8 C 45.6 10.6 45 10.4 44 10.2 C 42.7 9.8 41.8 9.6 41.3 9.3 C 40.8 9.1 40.5 8.8 40.2 8.3 C 39.9 7.9 39.8 7.5 39.8 6.9 C 39.8 6.5 39.9 6.1 40.1 5.7 C 40.3 5.3 40.6 4.9 41 4.7 C 41.3 4.5 41.6 4.3 42.1 4.2 C 42.6 4 43.1 4 43.6 4 C 44.4 4 45.2 4.1 45.8 4.3 C 46.4 4.5 46.8 4.9 47.1 5.3 C 47.4 5.7 47.6 6.2 47.7 6.9 C 47.7 6.9 46 7.1 46 7.1 C 45.9 6.6 45.7 6.1 45.3 5.8 C 45 5.6 44.4 5.4 43.8 5.4 C 43 5.4 42.4 5.5 42 5.8 C 41.7 6.1 41.5 6.4 41.5 6.7 C 41.5 7 41.6 7.2 41.7 7.4 C 41.9 7.5 42.1 7.7 42.4 7.8 C 42.6 7.9 43.1 8 44 8.3 C 45.2 8.6 46.1 8.9 46.6 9.1 C 47 9.3 47.4 9.6 47.7 10 C 48 10.4 48.1 10.9 48.1 11.5 C 48.1 12.1 48 12.7 47.6 13.2 C 47.3 13.7 46.8 14.1 46.1 14.4 C 45.5 14.7 44.8 14.8 44 14.8 C 42.6 14.8 41.6 14.5 40.9 14 C 40.2 13.4 39.7 12.6 39.5 11.5 Z M 50.2 2.3 L 50.2 0.2 L 52 0.2 L 52 2.3 L 50.2 2.3 Z M 50.2 14.6 L 50.2 4.2 L 52 4.2 L 52 14.6 L 50.2 14.6 Z M 54.7 14.6 L 54.7 4.2 L 56.3 4.2 C 56.3 4.2 56.25 5.66 56.3 5.7 C 57 4.5 58.1 4 59.6 4 C 60.2 4 60.8 4.1 61.3 4.3 C 61.8 4.5 62.2 4.8 62.5 5.2 C 62.7 5.5 62.9 6 63 6.5 C 63.1 6.8 63.1 7.4 63.1 8.2 C 63.1 8.18 63.1 14.6 63.1 14.6 L 61.3 14.6 C 61.3 14.6 61.34 8.25 61.3 8.3 C 61.3 7.5 61.3 7 61.1 6.6 C 61 6.3 60.8 6 60.4 5.8 C 60.1 5.6 59.6 5.5 59.2 5.5 C 58.4 5.5 57.8 5.7 57.2 6.2 C 56.7 6.7 56.4 7.6 56.4 8.9 C 56.43 8.9 56.4 14.6 56.4 14.6 L 54.7 14.6 Z M 65.5 15.4 C 65.5 15.4 67.2 15.7 67.2 15.7 C 67.2 16.2 67.4 16.6 67.8 16.8 C 68.2 17.2 68.8 17.3 69.6 17.3 C 70.4 17.3 71 17.2 71.4 16.8 C 71.9 16.5 72.2 16 72.3 15.5 C 72.4 15.1 72.5 14.3 72.5 13.2 C 71.7 14.1 70.7 14.6 69.6 14.6 C 68.2 14.6 67.1 14 66.3 13 C 65.5 12 65.1 10.8 65.1 9.3 C 65.1 8.3 65.3 7.4 65.7 6.6 C 66 5.7 66.5 5.1 67.2 4.6 C 67.9 4.2 68.7 4 69.6 4 C 70.8 4 71.8 4.4 72.6 5.4 C 72.64 5.44 72.6 4.2 72.6 4.2 L 74.3 4.2 C 74.3 4.2 74.26 13.15 74.3 13.2 C 74.3 14.8 74.1 15.9 73.8 16.6 C 73.4 17.3 72.9 17.8 72.2 18.2 C 71.5 18.6 70.6 18.8 69.6 18.8 C 68.3 18.8 67.3 18.5 66.6 17.9 C 65.8 17.4 65.4 16.5 65.5 15.4 Z M 66.9 9.2 C 66.9 10.6 67.2 11.5 67.7 12.2 C 68.3 12.8 69 13.1 69.8 13.1 C 70.6 13.1 71.3 12.8 71.8 12.2 C 72.3 11.6 72.6 10.6 72.6 9.2 C 72.6 8 72.3 7 71.8 6.4 C 71.2 5.7 70.5 5.4 69.7 5.4 C 69 5.4 68.3 5.7 67.7 6.4 C 67.2 7 66.9 7.9 66.9 9.2 Z M 89.6 14.6 C 89.4 14.2 89.3 13.8 89.2 13.3 C 88.6 13.8 88 14.2 87.4 14.5 C 86.8 14.7 86.1 14.8 85.4 14.8 C 84.3 14.8 83.4 14.5 82.8 14 C 82.2 13.4 81.9 12.7 81.9 11.8 C 81.9 11.3 82 10.9 82.2 10.4 C 82.5 10 82.8 9.7 83.1 9.4 C 83.5 9.2 83.9 9 84.4 8.8 C 84.7 8.8 85.3 8.7 86 8.6 C 87.4 8.4 88.4 8.2 89.1 8 C 89.1 7.7 89.1 7.6 89.1 7.5 C 89.1 6.8 88.9 6.3 88.6 6 C 88.2 5.6 87.5 5.4 86.6 5.4 C 85.8 5.4 85.2 5.6 84.8 5.8 C 84.4 6.1 84.1 6.6 83.9 7.4 C 83.9 7.4 82.2 7.1 82.2 7.1 C 82.3 6.4 82.6 5.8 82.9 5.4 C 83.3 4.9 83.8 4.6 84.5 4.3 C 85.2 4.1 86 4 86.9 4 C 87.7 4 88.5 4.1 89 4.3 C 89.6 4.5 90 4.7 90.2 5.1 C 90.5 5.4 90.7 5.8 90.8 6.3 C 90.8 6.5 90.9 7.1 90.9 7.9 C 90.9 7.9 90.9 10.2 90.9 10.2 C 90.9 11.8 90.9 12.9 91 13.3 C 91.1 13.7 91.2 14.2 91.4 14.6 C 91.43 14.56 89.6 14.6 89.6 14.6 C 89.6 14.6 89.59 14.56 89.6 14.6 Z M 89.1 9.4 C 88.5 9.6 87.5 9.8 86.2 10 C 85.5 10.1 85 10.2 84.7 10.4 C 84.4 10.5 84.2 10.7 84 10.9 C 83.8 11.2 83.8 11.5 83.8 11.8 C 83.8 12.2 83.9 12.6 84.3 12.9 C 84.6 13.3 85.2 13.4 85.8 13.4 C 86.5 13.4 87.1 13.3 87.6 13 C 88.2 12.7 88.6 12.3 88.8 11.8 C 89 11.4 89.1 10.8 89.1 10 C 89.1 10 89.1 9.4 89.1 9.4 Z M 108.8 0.2 L 110.7 0.2 C 110.7 0.2 110.66 8.52 110.7 8.5 C 110.7 10 110.5 11.1 110.2 11.9 C 109.9 12.8 109.3 13.5 108.4 14 C 107.6 14.5 106.4 14.8 105.1 14.8 C 103.7 14.8 102.6 14.6 101.8 14.1 C 100.9 13.6 100.3 13 100 12.1 C 99.6 11.2 99.4 10 99.4 8.5 C 99.4 8.52 99.4 0.2 99.4 0.2 L 101.3 0.2 C 101.3 0.2 101.3 8.51 101.3 8.5 C 101.3 9.7 101.4 10.7 101.6 11.3 C 101.9 11.8 102.3 12.3 102.8 12.6 C 103.4 12.9 104.1 13.1 104.9 13.1 C 106.3 13.1 107.3 12.8 107.9 12.1 C 108.5 11.5 108.8 10.3 108.8 8.5 C 108.77 8.51 108.8 0.2 108.8 0.2 Z M 113.2 10 C 113.2 10 115 9.8 115 9.8 C 115 10.5 115.2 11.1 115.6 11.6 C 115.9 12 116.3 12.4 117 12.7 C 117.6 13 118.4 13.1 119.2 13.1 C 119.9 13.1 120.6 13 121.1 12.8 C 121.7 12.6 122.1 12.3 122.3 11.9 C 122.6 11.5 122.7 11.1 122.7 10.7 C 122.7 10.2 122.6 9.8 122.4 9.5 C 122.1 9.2 121.7 8.9 121.1 8.7 C 120.7 8.5 119.8 8.3 118.5 8 C 117.2 7.6 116.3 7.3 115.8 7.1 C 115.1 6.7 114.6 6.3 114.2 5.7 C 113.9 5.2 113.7 4.6 113.7 3.9 C 113.7 3.2 113.9 2.5 114.3 1.9 C 114.7 1.3 115.3 0.8 116.1 0.5 C 116.9 0.2 117.8 0 118.8 0 C 119.8 0 120.8 0.2 121.6 0.5 C 122.4 0.9 123 1.4 123.4 2 C 123.9 2.7 124.1 3.4 124.1 4.3 C 124.1 4.3 122.3 4.4 122.3 4.4 C 122.2 3.5 121.9 2.8 121.3 2.4 C 120.8 1.9 119.9 1.7 118.8 1.7 C 117.7 1.7 116.9 1.9 116.3 2.3 C 115.8 2.7 115.5 3.2 115.5 3.8 C 115.5 4.3 115.7 4.8 116.1 5.1 C 116.5 5.4 117.4 5.8 119 6.1 C 120.5 6.5 121.6 6.8 122.1 7 C 123 7.4 123.6 7.9 124 8.5 C 124.4 9.1 124.6 9.7 124.6 10.5 C 124.6 11.3 124.4 12 123.9 12.7 C 123.5 13.3 122.9 13.9 122 14.2 C 121.2 14.6 120.3 14.8 119.3 14.8 C 118 14.8 116.9 14.6 116 14.2 C 115.1 13.9 114.5 13.3 114 12.5 C 113.5 11.8 113.2 10.9 113.2 10 Z M 130.6 16.6 C 130.6 16.6 130.6 14.86 130.6 14.9 C 129.7 14.8 129 14.6 128.5 14.3 C 127.9 14 127.4 13.5 127 12.9 C 126.6 12.3 126.4 11.5 126.3 10.6 C 126.3 10.6 128.1 10.3 128.1 10.3 C 128.2 11.2 128.5 11.9 128.8 12.3 C 129.3 13 129.9 13.3 130.6 13.4 C 130.6 13.4 130.6 7.8 130.6 7.8 C 129.9 7.6 129.1 7.4 128.4 6.9 C 127.8 6.6 127.4 6.2 127.1 5.6 C 126.8 5.1 126.6 4.5 126.6 3.8 C 126.6 2.5 127.1 1.5 128 0.7 C 128.6 0.2 129.4 -0.1 130.6 -0.2 C 130.6 -0.23 130.6 -1.1 130.6 -1.1 L 131.6 -1.1 C 131.6 -1.1 131.63 -0.23 131.6 -0.2 C 132.7 -0.1 133.5 0.2 134.1 0.7 C 134.8 1.3 135.3 2.2 135.4 3.3 C 135.4 3.3 133.6 3.6 133.6 3.6 C 133.5 2.9 133.3 2.3 133 2 C 132.7 1.6 132.2 1.4 131.6 1.3 C 131.6 1.3 131.6 6.3 131.6 6.3 C 132.5 6.5 133.1 6.7 133.4 6.8 C 133.9 7.1 134.4 7.4 134.7 7.7 C 135.1 8.1 135.3 8.5 135.5 8.9 C 135.7 9.4 135.8 9.9 135.8 10.5 C 135.8 11.7 135.4 12.7 134.6 13.5 C 133.9 14.3 132.9 14.8 131.6 14.8 C 131.63 14.84 131.6 16.6 131.6 16.6 L 130.6 16.6 Z M 130.6 1.2 C 129.9 1.3 129.4 1.6 129 2.1 C 128.6 2.5 128.4 3 128.4 3.6 C 128.4 4.2 128.6 4.7 128.9 5.1 C 129.2 5.5 129.8 5.9 130.6 6.1 C 130.6 6.1 130.6 1.2 130.6 1.2 Z M 131.6 13.4 C 132.3 13.3 132.9 13 133.3 12.5 C 133.8 12 134 11.4 134 10.6 C 134 10 133.8 9.5 133.5 9.1 C 133.2 8.7 132.6 8.3 131.6 8 C 131.6 8 131.6 13.4 131.6 13.4 Z M 144.2 14.6 L 142.4 14.6 C 142.4 14.6 142.43 3.36 142.4 3.4 C 142 3.8 141.5 4.2 140.8 4.6 C 140.1 5 139.5 5.3 138.9 5.5 C 138.9 5.5 138.9 3.8 138.9 3.8 C 139.9 3.3 140.8 2.8 141.5 2.1 C 142.2 1.4 142.8 0.8 143.1 0.2 C 143.06 0.19 144.2 0.2 144.2 0.2 L 144.2 14.6 Z M 156.4 14.6 L 154.7 14.6 L 154.7 0.2 L 156.5 0.2 C 156.5 0.2 156.48 5.35 156.5 5.4 C 157.2 4.4 158.2 4 159.3 4 C 160 4 160.6 4.1 161.1 4.3 C 161.7 4.6 162.2 5 162.5 5.4 C 162.9 5.9 163.2 6.5 163.4 7.1 C 163.6 7.8 163.7 8.5 163.7 9.2 C 163.7 11 163.3 12.4 162.4 13.3 C 161.5 14.3 160.5 14.8 159.2 14.8 C 158 14.8 157.1 14.3 156.4 13.3 C 156.36 13.26 156.4 14.6 156.4 14.6 Z M 156.3 9.3 C 156.3 10.5 156.5 11.4 156.8 12 C 157.4 12.9 158.1 13.3 159.1 13.3 C 159.9 13.3 160.5 13 161.1 12.3 C 161.6 11.7 161.9 10.7 161.9 9.4 C 161.9 8 161.7 7 161.1 6.4 C 160.6 5.7 159.9 5.4 159.2 5.4 C 158.4 5.4 157.7 5.7 157.2 6.4 C 156.6 7.1 156.3 8 156.3 9.3 Z M 165.9 2.3 L 165.9 0.2 L 167.6 0.2 L 167.6 2.3 L 165.9 2.3 Z M 165.9 14.6 L 165.9 4.2 L 167.6 4.2 L 167.6 14.6 L 165.9 14.6 Z M 170.3 14.6 L 170.3 0.2 L 172 0.2 L 172 14.6 L 170.3 14.6 Z M 174.7 14.6 L 174.7 0.2 L 176.5 0.2 L 176.5 14.6 L 174.7 14.6 Z M 179.2 2.3 L 179.2 0.2 L 181 0.2 L 181 2.3 L 179.2 2.3 Z M 179.2 14.6 L 179.2 4.2 L 181 4.2 L 181 14.6 L 179.2 14.6 Z M 183 9.4 C 183 7.5 183.5 6 184.6 5.1 C 185.5 4.3 186.6 4 187.8 4 C 189.3 4 190.4 4.4 191.3 5.4 C 192.2 6.3 192.7 7.6 192.7 9.2 C 192.7 10.6 192.5 11.6 192.1 12.4 C 191.7 13.1 191.1 13.7 190.3 14.2 C 189.6 14.6 188.7 14.8 187.8 14.8 C 186.4 14.8 185.2 14.3 184.3 13.4 C 183.4 12.5 183 11.1 183 9.4 Z M 184.8 9.4 C 184.8 10.7 185.1 11.7 185.7 12.4 C 186.2 13 187 13.3 187.8 13.3 C 188.7 13.3 189.4 13 190 12.4 C 190.6 11.7 190.9 10.7 190.9 9.3 C 190.9 8 190.6 7.1 190 6.4 C 189.4 5.7 188.7 5.4 187.8 5.4 C 187 5.4 186.2 5.7 185.7 6.4 C 185.1 7.1 184.8 8 184.8 9.4 Z M 194.8 14.6 L 194.8 4.2 L 196.3 4.2 C 196.3 4.2 196.34 5.66 196.3 5.7 C 197.1 4.5 198.2 4 199.6 4 C 200.3 4 200.8 4.1 201.4 4.3 C 201.9 4.5 202.3 4.8 202.5 5.2 C 202.8 5.5 203 6 203.1 6.5 C 203.2 6.8 203.2 7.4 203.2 8.2 C 203.18 8.18 203.2 14.6 203.2 14.6 L 201.4 14.6 C 201.4 14.6 201.43 8.25 201.4 8.3 C 201.4 7.5 201.4 7 201.2 6.6 C 201.1 6.3 200.8 6 200.5 5.8 C 200.1 5.6 199.7 5.5 199.3 5.5 C 198.5 5.5 197.9 5.7 197.3 6.2 C 196.8 6.7 196.5 7.6 196.5 8.9 C 196.51 8.9 196.5 14.6 196.5 14.6 L 194.8 14.6 Z M 211.9 14.6 L 211.9 5.6 L 210.3 5.6 L 210.3 4.2 L 211.9 4.2 C 211.9 4.2 211.86 3.09 211.9 3.1 C 211.9 2.4 211.9 1.9 212 1.5 C 212.2 1.1 212.5 0.7 212.9 0.4 C 213.4 0.1 214 0 214.7 0 C 215.2 0 215.8 0.1 216.4 0.2 C 216.4 0.2 216.1 1.7 216.1 1.7 C 215.7 1.6 215.4 1.6 215.1 1.6 C 214.5 1.6 214.2 1.7 213.9 2 C 213.7 2.2 213.6 2.6 213.6 3.2 C 213.6 3.23 213.6 4.2 213.6 4.2 L 215.6 4.2 L 215.6 5.6 L 213.6 5.6 L 213.6 14.6 L 211.9 14.6 Z M 223.8 14.6 C 223.8 14.6 223.79 13.04 223.8 13 C 223 14.2 221.9 14.8 220.5 14.8 C 219.9 14.8 219.3 14.7 218.8 14.4 C 218.3 14.2 217.9 13.9 217.6 13.6 C 217.3 13.2 217.2 12.8 217.1 12.3 C 217 11.9 217 11.4 217 10.6 C 216.95 10.62 217 4.2 217 4.2 L 218.7 4.2 C 218.7 4.2 218.71 9.94 218.7 9.9 C 218.7 10.9 218.7 11.5 218.8 11.8 C 218.9 12.3 219.2 12.6 219.5 12.9 C 219.9 13.1 220.3 13.3 220.8 13.3 C 221.4 13.3 221.9 13.1 222.3 12.9 C 222.8 12.6 223.1 12.2 223.3 11.8 C 223.5 11.3 223.6 10.6 223.6 9.7 C 223.6 9.75 223.6 4.2 223.6 4.2 L 225.4 4.2 L 225.4 14.6 L 223.8 14.6 Z M 228.1 14.6 L 228.1 4.2 L 229.7 4.2 C 229.7 4.2 229.7 5.66 229.7 5.7 C 230.5 4.5 231.6 4 233 4 C 233.6 4 234.2 4.1 234.7 4.3 C 235.2 4.5 235.6 4.8 235.9 5.2 C 236.2 5.5 236.3 6 236.4 6.5 C 236.5 6.8 236.5 7.4 236.5 8.2 C 236.54 8.18 236.5 14.6 236.5 14.6 L 234.8 14.6 C 234.8 14.6 234.79 8.25 234.8 8.3 C 234.8 7.5 234.7 7 234.6 6.6 C 234.4 6.3 234.2 6 233.9 5.8 C 233.5 5.6 233.1 5.5 232.6 5.5 C 231.9 5.5 231.2 5.7 230.7 6.2 C 230.1 6.7 229.9 7.6 229.9 8.9 C 229.87 8.9 229.9 14.6 229.9 14.6 L 228.1 14.6 Z M 246 14.6 C 246 14.6 245.97 13.25 246 13.3 C 245.3 14.3 244.3 14.8 243.1 14.8 C 242.2 14.8 241.5 14.6 240.8 14.1 C 240.1 13.7 239.6 13 239.2 12.2 C 238.8 11.4 238.6 10.4 238.6 9.4 C 238.6 8.3 238.8 7.4 239.1 6.6 C 239.5 5.7 240 5.1 240.7 4.6 C 241.4 4.2 242.1 4 243 4 C 243.6 4 244.2 4.1 244.7 4.4 C 245.1 4.6 245.5 5 245.8 5.4 C 245.85 5.38 245.8 0.2 245.8 0.2 L 247.6 0.2 L 247.6 14.6 L 246 14.6 Z M 240.4 9.4 C 240.4 10.7 240.7 11.7 241.3 12.4 C 241.8 13 242.5 13.3 243.2 13.3 C 244 13.3 244.7 13 245.2 12.4 C 245.7 11.8 246 10.8 246 9.5 C 246 8.1 245.7 7.1 245.2 6.4 C 244.6 5.7 244 5.4 243.2 5.4 C 242.4 5.4 241.7 5.7 241.2 6.4 C 240.7 7 240.4 8 240.4 9.4 Z M 259 13.1 C 259.2 13.1 259.4 13 259.8 13 C 259.8 13 260 14.5 260 14.5 C 259.5 14.6 259.1 14.7 258.7 14.7 C 258 14.7 257.5 14.6 257.2 14.4 C 256.8 14.2 256.6 13.9 256.5 13.6 C 256.3 13.3 256.2 12.6 256.2 11.5 C 256.24 11.52 256.2 5.6 256.2 5.6 L 255 5.6 L 255 4.2 L 256.2 4.2 L 256.2 1.6 L 258 0.6 L 258 4.2 L 259.8 4.2 L 259.8 5.6 L 258 5.6 C 258 5.6 257.99 11.62 258 11.6 C 258 12.1 258 12.4 258.1 12.6 C 258.1 12.7 258.2 12.8 258.4 12.9 C 258.5 13 258.7 13.1 259 13.1 C 259 13.1 259 13.1 259 13.1 Z M 261.5 14.6 L 261.5 0.2 L 263.2 0.2 C 263.2 0.2 263.23 5.38 263.2 5.4 C 264.1 4.4 265.1 4 266.3 4 C 267.1 4 267.8 4.1 268.3 4.4 C 268.9 4.7 269.3 5.1 269.6 5.7 C 269.8 6.2 269.9 7 269.9 8 C 269.92 7.99 269.9 14.6 269.9 14.6 L 268.2 14.6 C 268.2 14.6 268.16 7.99 268.2 8 C 268.2 7.1 268 6.5 267.6 6.1 C 267.2 5.7 266.7 5.5 266 5.5 C 265.5 5.5 265 5.6 264.5 5.9 C 264 6.1 263.7 6.5 263.5 7 C 263.3 7.4 263.2 8.1 263.2 8.9 C 263.23 8.89 263.2 14.6 263.2 14.6 L 261.5 14.6 Z M 279.7 14.6 C 279.5 14.2 279.4 13.8 279.4 13.3 C 278.7 13.8 278.1 14.2 277.5 14.5 C 276.9 14.7 276.2 14.8 275.5 14.8 C 274.4 14.8 273.5 14.5 272.9 14 C 272.3 13.4 272 12.7 272 11.8 C 272 11.3 272.1 10.9 272.3 10.4 C 272.6 10 272.9 9.7 273.3 9.4 C 273.6 9.2 274.1 9 274.5 8.8 C 274.9 8.8 275.4 8.7 276.1 8.6 C 277.5 8.4 278.5 8.2 279.2 8 C 279.2 7.7 279.2 7.6 279.2 7.5 C 279.2 6.8 279.1 6.3 278.7 6 C 278.3 5.6 277.6 5.4 276.7 5.4 C 275.9 5.4 275.3 5.6 274.9 5.8 C 274.5 6.1 274.2 6.6 274 7.4 C 274 7.4 272.3 7.1 272.3 7.1 C 272.5 6.4 272.7 5.8 273.1 5.4 C 273.4 4.9 274 4.6 274.6 4.3 C 275.3 4.1 276.1 4 277 4 C 277.9 4 278.6 4.1 279.1 4.3 C 279.7 4.5 280.1 4.7 280.4 5.1 C 280.6 5.4 280.8 5.8 280.9 6.3 C 281 6.5 281 7.1 281 7.9 C 281 7.9 281 10.2 281 10.2 C 281 11.8 281 12.9 281.1 13.3 C 281.2 13.7 281.3 14.2 281.6 14.6 C 281.55 14.56 279.7 14.6 279.7 14.6 C 279.7 14.6 279.72 14.56 279.7 14.6 Z M 279.2 9.4 C 278.6 9.6 277.6 9.8 276.3 10 C 275.6 10.1 275.1 10.2 274.8 10.4 C 274.5 10.5 274.3 10.7 274.1 10.9 C 274 11.2 273.9 11.5 273.9 11.8 C 273.9 12.2 274.1 12.6 274.4 12.9 C 274.8 13.3 275.3 13.4 276 13.4 C 276.6 13.4 277.2 13.3 277.8 13 C 278.3 12.7 278.7 12.3 278.9 11.8 C 279.1 11.4 279.2 10.8 279.2 10 C 279.2 10 279.2 9.4 279.2 9.4 Z M 286.8 13.1 C 287 13.1 287.2 13 287.6 13 C 287.6 13 287.8 14.5 287.8 14.5 C 287.3 14.6 286.9 14.7 286.5 14.7 C 285.8 14.7 285.4 14.6 285 14.4 C 284.6 14.2 284.4 13.9 284.3 13.6 C 284.1 13.3 284 12.6 284 11.5 C 284.04 11.52 284 5.6 284 5.6 L 282.8 5.6 L 282.8 4.2 L 284 4.2 L 284 1.6 L 285.8 0.6 L 285.8 4.2 L 287.6 4.2 L 287.6 5.6 L 285.8 5.6 C 285.8 5.6 285.79 11.62 285.8 11.6 C 285.8 12.1 285.8 12.4 285.9 12.6 C 285.9 12.7 286 12.8 286.2 12.9 C 286.3 13 286.5 13.1 286.8 13.1 C 286.8 13.1 286.8 13.1 286.8 13.1 Z M 294.1 11.5 C 294.1 11.5 295.9 11.2 295.9 11.2 C 296 11.9 296.2 12.4 296.7 12.8 C 297.1 13.2 297.8 13.3 298.6 13.3 C 299.4 13.3 300 13.2 300.4 12.9 C 300.7 12.5 300.9 12.1 300.9 11.7 C 300.9 11.3 300.8 11 300.4 10.8 C 300.2 10.6 299.6 10.4 298.6 10.2 C 297.3 9.8 296.4 9.6 295.9 9.3 C 295.4 9.1 295.1 8.8 294.8 8.3 C 294.6 7.9 294.4 7.5 294.4 6.9 C 294.4 6.5 294.5 6.1 294.7 5.7 C 295 5.3 295.2 4.9 295.6 4.7 C 295.9 4.5 296.3 4.3 296.7 4.2 C 297.2 4 297.7 4 298.2 4 C 299.1 4 299.8 4.1 300.4 4.3 C 301 4.5 301.5 4.9 301.7 5.3 C 302 5.7 302.2 6.2 302.4 6.9 C 302.4 6.9 300.6 7.1 300.6 7.1 C 300.6 6.6 300.3 6.1 300 5.8 C 299.6 5.6 299.1 5.4 298.4 5.4 C 297.6 5.4 297 5.5 296.6 5.8 C 296.3 6.1 296.1 6.4 296.1 6.7 C 296.1 7 296.2 7.2 296.3 7.4 C 296.5 7.5 296.7 7.7 297 7.8 C 297.2 7.9 297.7 8 298.6 8.3 C 299.8 8.6 300.7 8.9 301.2 9.1 C 301.7 9.3 302 9.6 302.3 10 C 302.6 10.4 302.7 10.9 302.7 11.5 C 302.7 12.1 302.6 12.7 302.2 13.2 C 301.9 13.7 301.4 14.1 300.8 14.4 C 300.1 14.7 299.4 14.8 298.6 14.8 C 297.2 14.8 296.2 14.5 295.5 14 C 294.8 13.4 294.3 12.6 294.1 11.5 Z M 311.6 14.6 C 311.6 14.6 311.63 13.04 311.6 13 C 310.8 14.2 309.7 14.8 308.3 14.8 C 307.7 14.8 307.2 14.7 306.6 14.4 C 306.1 14.2 305.7 13.9 305.4 13.6 C 305.2 13.2 305 12.8 304.9 12.3 C 304.8 11.9 304.8 11.4 304.8 10.6 C 304.79 10.62 304.8 4.2 304.8 4.2 L 306.6 4.2 C 306.6 4.2 306.55 9.94 306.6 9.9 C 306.6 10.9 306.6 11.5 306.7 11.8 C 306.8 12.3 307 12.6 307.4 12.9 C 307.7 13.1 308.2 13.3 308.7 13.3 C 309.2 13.3 309.7 13.1 310.2 12.9 C 310.6 12.6 311 12.2 311.2 11.8 C 311.3 11.3 311.4 10.6 311.4 9.7 C 311.45 9.75 311.4 4.2 311.4 4.2 L 313.2 4.2 L 313.2 14.6 L 311.6 14.6 Z M 316 18.5 L 316 4.2 L 317.6 4.2 C 317.6 4.2 317.56 5.54 317.6 5.5 C 317.9 5 318.4 4.6 318.8 4.4 C 319.3 4.1 319.9 4 320.6 4 C 321.5 4 322.2 4.2 322.9 4.6 C 323.6 5.1 324.1 5.7 324.4 6.6 C 324.8 7.4 325 8.3 325 9.3 C 325 10.4 324.8 11.3 324.4 12.2 C 324 13 323.5 13.7 322.7 14.1 C 322 14.6 321.2 14.8 320.4 14.8 C 319.9 14.8 319.3 14.7 318.9 14.4 C 318.4 14.2 318 13.9 317.7 13.5 C 317.71 13.49 317.7 18.5 317.7 18.5 L 316 18.5 Z M 317.5 9.4 C 317.5 10.8 317.8 11.8 318.4 12.4 C 318.9 13 319.6 13.3 320.3 13.3 C 321.1 13.3 321.8 13 322.3 12.4 C 322.9 11.7 323.2 10.7 323.2 9.3 C 323.2 8 322.9 7 322.3 6.3 C 321.8 5.7 321.2 5.3 320.4 5.3 C 319.7 5.3 319 5.7 318.4 6.4 C 317.8 7.1 317.5 8.1 317.5 9.4 Z M 327.1 18.5 L 327.1 4.2 L 328.7 4.2 C 328.7 4.2 328.68 5.54 328.7 5.5 C 329.1 5 329.5 4.6 330 4.4 C 330.4 4.1 331 4 331.7 4 C 332.6 4 333.4 4.2 334 4.6 C 334.7 5.1 335.2 5.7 335.6 6.6 C 335.9 7.4 336.1 8.3 336.1 9.3 C 336.1 10.4 335.9 11.3 335.5 12.2 C 335.1 13 334.6 13.7 333.9 14.1 C 333.1 14.6 332.4 14.8 331.6 14.8 C 331 14.8 330.5 14.7 330 14.4 C 329.5 14.2 329.1 13.9 328.8 13.5 C 328.84 13.49 328.8 18.5 328.8 18.5 L 327.1 18.5 Z M 328.7 9.4 C 328.7 10.8 328.9 11.8 329.5 12.4 C 330 13 330.7 13.3 331.4 13.3 C 332.2 13.3 332.9 13 333.5 12.4 C 334 11.7 334.3 10.7 334.3 9.3 C 334.3 8 334 7 333.5 6.3 C 332.9 5.7 332.3 5.3 331.5 5.3 C 330.8 5.3 330.1 5.7 329.5 6.4 C 329 7.1 328.7 8.1 328.7 9.4 Z M 337.5 9.4 C 337.5 7.5 338.1 6 339.2 5.1 C 340 4.3 341.1 4 342.4 4 C 343.8 4 345 4.4 345.9 5.4 C 346.8 6.3 347.3 7.6 347.3 9.2 C 347.3 10.6 347.1 11.6 346.7 12.4 C 346.3 13.1 345.7 13.7 344.9 14.2 C 344.2 14.6 343.3 14.8 342.4 14.8 C 341 14.8 339.8 14.3 338.9 13.4 C 338 12.5 337.5 11.1 337.5 9.4 Z M 339.4 9.4 C 339.4 10.7 339.6 11.7 340.2 12.4 C 340.8 13 341.5 13.3 342.4 13.3 C 343.3 13.3 344 13 344.6 12.4 C 345.2 11.7 345.5 10.7 345.5 9.3 C 345.5 8 345.2 7.1 344.6 6.4 C 344 5.7 343.3 5.4 342.4 5.4 C 341.5 5.4 340.8 5.7 340.2 6.4 C 339.6 7.1 339.4 8 339.4 9.4 Z M 349.3 14.6 L 349.3 4.2 L 350.9 4.2 C 350.9 4.2 350.89 5.76 350.9 5.8 C 351.3 5 351.7 4.5 352 4.3 C 352.3 4.1 352.7 4 353.1 4 C 353.7 4 354.3 4.1 354.9 4.5 C 354.9 4.5 354.3 6.2 354.3 6.2 C 353.9 5.9 353.5 5.8 353 5.8 C 352.7 5.8 352.3 5.9 352 6.1 C 351.7 6.3 351.5 6.7 351.4 7.1 C 351.2 7.7 351.1 8.4 351.1 9.1 C 351.06 9.13 351.1 14.6 351.1 14.6 L 349.3 14.6 Z M 359.1 13.1 C 359.2 13.1 359.5 13 359.8 13 C 359.8 13 360.1 14.5 360.1 14.5 C 359.6 14.6 359.1 14.7 358.8 14.7 C 358.1 14.7 357.6 14.6 357.3 14.4 C 356.9 14.2 356.7 13.9 356.5 13.6 C 356.4 13.3 356.3 12.6 356.3 11.5 C 356.31 11.52 356.3 5.6 356.3 5.6 L 355 5.6 L 355 4.2 L 356.3 4.2 L 356.3 1.6 L 358.1 0.6 L 358.1 4.2 L 359.8 4.2 L 359.8 5.6 L 358.1 5.6 C 358.1 5.6 358.06 11.62 358.1 11.6 C 358.1 12.1 358.1 12.4 358.1 12.6 C 358.2 12.7 358.3 12.8 358.5 12.9 C 358.6 13 358.8 13.1 359.1 13.1 C 359.1 13.1 359.1 13.1 359.1 13.1 Z M 360.8 11.5 C 360.8 11.5 362.6 11.2 362.6 11.2 C 362.7 11.9 362.9 12.4 363.4 12.8 C 363.8 13.2 364.5 13.3 365.3 13.3 C 366.1 13.3 366.7 13.2 367.1 12.9 C 367.5 12.5 367.6 12.1 367.6 11.7 C 367.6 11.3 367.5 11 367.1 10.8 C 366.9 10.6 366.3 10.4 365.3 10.2 C 364 9.8 363.1 9.6 362.7 9.3 C 362.2 9.1 361.8 8.8 361.5 8.3 C 361.3 7.9 361.1 7.5 361.1 6.9 C 361.1 6.5 361.2 6.1 361.5 5.7 C 361.7 5.3 361.9 4.9 362.3 4.7 C 362.6 4.5 363 4.3 363.4 4.2 C 363.9 4 364.4 4 365 4 C 365.8 4 366.5 4.1 367.1 4.3 C 367.7 4.5 368.2 4.9 368.5 5.3 C 368.8 5.7 369 6.2 369.1 6.9 C 369.1 6.9 367.3 7.1 367.3 7.1 C 367.3 6.6 367 6.1 366.7 5.8 C 366.3 5.6 365.8 5.4 365.1 5.4 C 364.3 5.4 363.7 5.5 363.3 5.8 C 363 6.1 362.8 6.4 362.8 6.7 C 362.8 7 362.9 7.2 363 7.4 C 363.2 7.5 363.4 7.7 363.7 7.8 C 363.9 7.9 364.4 8 365.3 8.3 C 366.5 8.6 367.4 8.9 367.9 9.1 C 368.4 9.3 368.8 9.6 369 10 C 369.3 10.4 369.5 10.9 369.5 11.5 C 369.5 12.1 369.3 12.7 368.9 13.2 C 368.6 13.7 368.1 14.1 367.5 14.4 C 366.8 14.7 366.1 14.8 365.3 14.8 C 363.9 14.8 362.9 14.5 362.2 14 C 361.5 13.4 361 12.6 360.8 11.5 Z M 384.2 14.6 C 384 14.2 383.9 13.8 383.9 13.3 C 383.2 13.8 382.6 14.2 382 14.5 C 381.4 14.7 380.7 14.8 380 14.8 C 378.9 14.8 378 14.5 377.4 14 C 376.8 13.4 376.5 12.7 376.5 11.8 C 376.5 11.3 376.6 10.9 376.9 10.4 C 377.1 10 377.4 9.7 377.8 9.4 C 378.1 9.2 378.6 9 379 8.8 C 379.4 8.8 379.9 8.7 380.6 8.6 C 382 8.4 383.1 8.2 383.7 8 C 383.7 7.7 383.7 7.6 383.7 7.5 C 383.7 6.8 383.6 6.3 383.2 6 C 382.8 5.6 382.1 5.4 381.2 5.4 C 380.4 5.4 379.8 5.6 379.4 5.8 C 379 6.1 378.7 6.6 378.5 7.4 C 378.5 7.4 376.8 7.1 376.8 7.1 C 377 6.4 377.2 5.8 377.6 5.4 C 377.9 4.9 378.5 4.6 379.1 4.3 C 379.8 4.1 380.6 4 381.5 4 C 382.4 4 383.1 4.1 383.6 4.3 C 384.2 4.5 384.6 4.7 384.9 5.1 C 385.1 5.4 385.3 5.8 385.4 6.3 C 385.5 6.5 385.5 7.1 385.5 7.9 C 385.5 7.9 385.5 10.2 385.5 10.2 C 385.5 11.8 385.5 12.9 385.6 13.3 C 385.7 13.7 385.8 14.2 386.1 14.6 C 386.05 14.56 384.2 14.6 384.2 14.6 C 384.2 14.6 384.22 14.56 384.2 14.6 Z M 383.7 9.4 C 383.1 9.6 382.1 9.8 380.8 10 C 380.1 10.1 379.6 10.2 379.3 10.4 C 379 10.5 378.8 10.7 378.6 10.9 C 378.5 11.2 378.4 11.5 378.4 11.8 C 378.4 12.2 378.6 12.6 378.9 12.9 C 379.3 13.3 379.8 13.4 380.5 13.4 C 381.1 13.4 381.7 13.3 382.3 13 C 382.8 12.7 383.2 12.3 383.4 11.8 C 383.6 11.4 383.7 10.8 383.7 10 C 383.7 10 383.7 9.4 383.7 9.4 Z M 393.8 14.6 L 393.8 4.2 L 395.4 4.2 C 395.4 4.2 395.35 5.64 395.4 5.6 C 395.7 5.1 396.1 4.7 396.7 4.4 C 397.2 4.1 397.8 4 398.5 4 C 399.3 4 399.9 4.1 400.4 4.4 C 400.9 4.8 401.2 5.2 401.4 5.8 C 402.2 4.6 403.3 4 404.6 4 C 405.7 4 406.4 4.2 407 4.8 C 407.6 5.4 407.8 6.3 407.8 7.4 C 407.83 7.44 407.8 14.6 407.8 14.6 L 406.1 14.6 C 406.1 14.6 406.08 8.03 406.1 8 C 406.1 7.3 406 6.8 405.9 6.5 C 405.8 6.2 405.6 6 405.3 5.8 C 405 5.6 404.6 5.5 404.2 5.5 C 403.5 5.5 402.9 5.7 402.4 6.2 C 401.9 6.7 401.7 7.5 401.7 8.5 C 401.7 8.54 401.7 14.6 401.7 14.6 L 399.9 14.6 C 399.9 14.6 399.94 7.82 399.9 7.8 C 399.9 7 399.8 6.5 399.5 6.1 C 399.2 5.7 398.8 5.5 398.1 5.5 C 397.6 5.5 397.2 5.6 396.7 5.9 C 396.3 6.1 396 6.5 395.8 7 C 395.6 7.5 395.5 8.2 395.5 9.2 C 395.54 9.18 395.5 14.6 395.5 14.6 L 393.8 14.6 Z M 417.6 14.6 C 417.4 14.2 417.3 13.8 417.2 13.3 C 416.6 13.8 415.9 14.2 415.3 14.5 C 414.7 14.7 414.1 14.8 413.4 14.8 C 412.2 14.8 411.4 14.5 410.8 14 C 410.1 13.4 409.8 12.7 409.8 11.8 C 409.8 11.3 410 10.9 410.2 10.4 C 410.4 10 410.7 9.7 411.1 9.4 C 411.5 9.2 411.9 9 412.4 8.8 C 412.7 8.8 413.2 8.7 413.9 8.6 C 415.3 8.4 416.4 8.2 417.1 8 C 417.1 7.7 417.1 7.6 417.1 7.5 C 417.1 6.8 416.9 6.3 416.6 6 C 416.1 5.6 415.5 5.4 414.6 5.4 C 413.7 5.4 413.1 5.6 412.7 5.8 C 412.3 6.1 412.1 6.6 411.9 7.4 C 411.9 7.4 410.1 7.1 410.1 7.1 C 410.3 6.4 410.6 5.8 410.9 5.4 C 411.3 4.9 411.8 4.6 412.5 4.3 C 413.1 4.1 413.9 4 414.8 4 C 415.7 4 416.4 4.1 417 4.3 C 417.5 4.5 417.9 4.7 418.2 5.1 C 418.5 5.4 418.6 5.8 418.8 6.3 C 418.8 6.5 418.8 7.1 418.8 7.9 C 418.8 7.9 418.8 10.2 418.8 10.2 C 418.8 11.8 418.9 12.9 419 13.3 C 419 13.7 419.2 14.2 419.4 14.6 C 419.39 14.56 417.6 14.6 417.6 14.6 C 417.6 14.6 417.56 14.56 417.6 14.6 Z M 417.1 9.4 C 416.4 9.6 415.5 9.8 414.2 10 C 413.5 10.1 413 10.2 412.7 10.4 C 412.4 10.5 412.1 10.7 412 10.9 C 411.8 11.2 411.7 11.5 411.7 11.8 C 411.7 12.2 411.9 12.6 412.3 12.9 C 412.6 13.3 413.1 13.4 413.8 13.4 C 414.5 13.4 415.1 13.3 415.6 13 C 416.1 12.7 416.5 12.3 416.8 11.8 C 417 11.4 417.1 10.8 417.1 10 C 417.1 10 417.1 9.4 417.1 9.4 Z M 421.6 2.3 L 421.6 0.2 L 423.3 0.2 L 423.3 2.3 L 421.6 2.3 Z M 420.7 18.8 C 420.2 18.8 419.8 18.7 419.3 18.6 C 419.3 18.6 419.7 17.1 419.7 17.1 C 420 17.2 420.3 17.2 420.5 17.2 C 420.8 17.2 421.1 17.1 421.3 16.9 C 421.5 16.6 421.6 16 421.6 15.1 C 421.55 15.09 421.6 4.2 421.6 4.2 L 423.3 4.2 C 423.3 4.2 423.31 15.13 423.3 15.1 C 423.3 16.4 423.1 17.3 422.8 17.8 C 422.4 18.4 421.7 18.8 420.7 18.8 C 420.7 18.8 420.7 18.8 420.7 18.8 Z M 425.4 9.4 C 425.4 7.5 425.9 6 427 5.1 C 427.8 4.3 428.9 4 430.2 4 C 431.6 4 432.8 4.4 433.7 5.4 C 434.6 6.3 435.1 7.6 435.1 9.2 C 435.1 10.6 434.9 11.6 434.5 12.4 C 434.1 13.1 433.5 13.7 432.7 14.2 C 432 14.6 431.1 14.8 430.2 14.8 C 428.8 14.8 427.6 14.3 426.7 13.4 C 425.8 12.5 425.4 11.1 425.4 9.4 Z M 427.2 9.4 C 427.2 10.7 427.4 11.7 428 12.4 C 428.6 13 429.3 13.3 430.2 13.3 C 431.1 13.3 431.8 13 432.4 12.4 C 433 11.7 433.3 10.7 433.3 9.3 C 433.3 8 433 7.1 432.4 6.4 C 431.8 5.7 431.1 5.4 430.2 5.4 C 429.3 5.4 428.6 5.7 428 6.4 C 427.4 7.1 427.2 8 427.2 9.4 Z M 437.1 14.6 L 437.1 4.2 L 438.7 4.2 C 438.7 4.2 438.69 5.76 438.7 5.8 C 439.1 5 439.5 4.5 439.8 4.3 C 440.2 4.1 440.5 4 440.9 4 C 441.5 4 442.1 4.1 442.7 4.5 C 442.7 4.5 442.1 6.2 442.1 6.2 C 441.7 5.9 441.3 5.8 440.8 5.8 C 440.5 5.8 440.1 5.9 439.8 6.1 C 439.5 6.3 439.3 6.7 439.2 7.1 C 439 7.7 438.9 8.4 438.9 9.1 C 438.87 9.13 438.9 14.6 438.9 14.6 L 437.1 14.6 Z M 452.4 13.1 C 452.6 13.1 452.9 13 453.2 13 C 453.2 13 453.4 14.5 453.4 14.5 C 452.9 14.6 452.5 14.7 452.1 14.7 C 451.5 14.7 451 14.6 450.6 14.4 C 450.3 14.2 450 13.9 449.9 13.6 C 449.7 13.3 449.7 12.6 449.7 11.5 C 449.67 11.52 449.7 5.6 449.7 5.6 L 448.4 5.6 L 448.4 4.2 L 449.7 4.2 L 449.7 1.6 L 451.4 0.6 L 451.4 4.2 L 453.2 4.2 L 453.2 5.6 L 451.4 5.6 C 451.4 5.6 451.42 11.62 451.4 11.6 C 451.4 12.1 451.4 12.4 451.5 12.6 C 451.6 12.7 451.7 12.8 451.8 12.9 C 452 13 452.2 13.1 452.4 13.1 C 452.4 13.1 452.4 13.1 452.4 13.1 Z M 462 11.2 C 462 11.2 463.8 11.4 463.8 11.4 C 463.5 12.5 463 13.3 462.2 13.9 C 461.5 14.5 460.5 14.8 459.3 14.8 C 457.7 14.8 456.5 14.3 455.6 13.4 C 454.8 12.5 454.3 11.1 454.3 9.5 C 454.3 7.7 454.8 6.4 455.7 5.4 C 456.6 4.4 457.7 4 459.2 4 C 460.5 4 461.7 4.4 462.6 5.4 C 463.4 6.3 463.9 7.6 463.9 9.4 C 463.9 9.5 463.9 9.6 463.9 9.8 C 463.9 9.8 456.1 9.8 456.1 9.8 C 456.2 11 456.5 11.8 457.1 12.4 C 457.7 13 458.4 13.3 459.3 13.3 C 459.9 13.3 460.5 13.2 460.9 12.8 C 461.4 12.5 461.7 12 462 11.2 Z M 456.2 8.4 C 456.2 8.4 462 8.4 462 8.4 C 461.9 7.5 461.7 6.9 461.4 6.4 C 460.8 5.7 460.1 5.4 459.2 5.4 C 458.4 5.4 457.7 5.7 457.1 6.2 C 456.6 6.8 456.3 7.5 456.2 8.4 Z M 472.8 10.8 C 472.8 10.8 474.5 11 474.5 11 C 474.3 12.2 473.8 13.1 473.1 13.8 C 472.3 14.5 471.3 14.8 470.2 14.8 C 468.8 14.8 467.6 14.3 466.8 13.4 C 465.9 12.5 465.5 11.1 465.5 9.4 C 465.5 8.3 465.7 7.3 466 6.5 C 466.4 5.6 467 5 467.7 4.6 C 468.5 4.2 469.3 4 470.2 4 C 471.3 4 472.3 4.2 473 4.8 C 473.7 5.4 474.2 6.2 474.4 7.2 C 474.4 7.2 472.6 7.5 472.6 7.5 C 472.5 6.8 472.2 6.3 471.8 5.9 C 471.4 5.6 470.9 5.4 470.3 5.4 C 469.4 5.4 468.7 5.7 468.1 6.4 C 467.6 7 467.3 8 467.3 9.4 C 467.3 10.8 467.6 11.8 468.1 12.4 C 468.6 13 469.3 13.3 470.2 13.3 C 470.9 13.3 471.5 13.1 471.9 12.7 C 472.4 12.3 472.7 11.6 472.8 10.8 Z M 476 14.6 L 476 0.2 L 477.8 0.2 C 477.8 0.2 477.78 5.38 477.8 5.4 C 478.6 4.4 479.6 4 480.9 4 C 481.7 4 482.3 4.1 482.9 4.4 C 483.5 4.7 483.9 5.1 484.1 5.7 C 484.4 6.2 484.5 7 484.5 8 C 484.47 7.99 484.5 14.6 484.5 14.6 L 482.7 14.6 C 482.7 14.6 482.71 7.99 482.7 8 C 482.7 7.1 482.5 6.5 482.1 6.1 C 481.8 5.7 481.2 5.5 480.5 5.5 C 480 5.5 479.5 5.6 479.1 5.9 C 478.6 6.1 478.3 6.5 478.1 7 C 477.9 7.4 477.8 8.1 477.8 8.9 C 477.78 8.89 477.8 14.6 477.8 14.6 L 476 14.6 Z M 487.1 14.6 L 487.1 4.2 L 488.7 4.2 C 488.7 4.2 488.73 5.66 488.7 5.7 C 489.5 4.5 490.6 4 492 4 C 492.7 4 493.2 4.1 493.8 4.3 C 494.3 4.5 494.7 4.8 494.9 5.2 C 495.2 5.5 495.4 6 495.5 6.5 C 495.5 6.8 495.6 7.4 495.6 8.2 C 495.58 8.18 495.6 14.6 495.6 14.6 L 493.8 14.6 C 493.8 14.6 493.82 8.25 493.8 8.3 C 493.8 7.5 493.8 7 493.6 6.6 C 493.5 6.3 493.2 6 492.9 5.8 C 492.5 5.6 492.1 5.5 491.7 5.5 C 490.9 5.5 490.3 5.7 489.7 6.2 C 489.2 6.7 488.9 7.6 488.9 8.9 C 488.91 8.9 488.9 14.6 488.9 14.6 L 487.1 14.6 Z M 497.6 9.4 C 497.6 7.5 498.2 6 499.2 5.1 C 500.1 4.3 501.2 4 502.5 4 C 503.9 4 505.1 4.4 506 5.4 C 506.9 6.3 507.3 7.6 507.3 9.2 C 507.3 10.6 507.1 11.6 506.7 12.4 C 506.3 13.1 505.8 13.7 505 14.2 C 504.2 14.6 503.4 14.8 502.5 14.8 C 501 14.8 499.9 14.3 499 13.4 C 498.1 12.5 497.6 11.1 497.6 9.4 Z M 499.4 9.4 C 499.4 10.7 499.7 11.7 500.3 12.4 C 500.9 13 501.6 13.3 502.5 13.3 C 503.4 13.3 504.1 13 504.7 12.4 C 505.2 11.7 505.5 10.7 505.5 9.3 C 505.5 8 505.2 7.1 504.7 6.4 C 504.1 5.7 503.3 5.4 502.5 5.4 C 501.6 5.4 500.9 5.7 500.3 6.4 C 499.7 7.1 499.4 8 499.4 9.4 Z M 509.4 14.6 L 509.4 0.2 L 511.1 0.2 L 511.1 14.6 L 509.4 14.6 Z M 513.2 9.4 C 513.2 7.5 513.7 6 514.8 5.1 C 515.7 4.3 516.8 4 518 4 C 519.5 4 520.6 4.4 521.5 5.4 C 522.4 6.3 522.9 7.6 522.9 9.2 C 522.9 10.6 522.7 11.6 522.3 12.4 C 521.9 13.1 521.3 13.7 520.6 14.2 C 519.8 14.6 519 14.8 518 14.8 C 516.6 14.8 515.4 14.3 514.5 13.4 C 513.6 12.5 513.2 11.1 513.2 9.4 Z M 515 9.4 C 515 10.7 515.3 11.7 515.9 12.4 C 516.4 13 517.2 13.3 518 13.3 C 518.9 13.3 519.6 13 520.2 12.4 C 520.8 11.7 521.1 10.7 521.1 9.3 C 521.1 8 520.8 7.1 520.2 6.4 C 519.6 5.7 518.9 5.4 518 5.4 C 517.2 5.4 516.4 5.7 515.9 6.4 C 515.3 7.1 515 8 515 9.4 Z M 524.6 15.4 C 524.6 15.4 526.3 15.7 526.3 15.7 C 526.4 16.2 526.6 16.6 526.9 16.8 C 527.4 17.2 528 17.3 528.7 17.3 C 529.5 17.3 530.2 17.2 530.6 16.8 C 531.1 16.5 531.4 16 531.5 15.5 C 531.6 15.1 531.6 14.3 531.6 13.2 C 530.9 14.1 529.9 14.6 528.8 14.6 C 527.3 14.6 526.2 14 525.5 13 C 524.7 12 524.3 10.8 524.3 9.3 C 524.3 8.3 524.5 7.4 524.8 6.6 C 525.2 5.7 525.7 5.1 526.4 4.6 C 527.1 4.2 527.9 4 528.8 4 C 530 4 531 4.4 531.8 5.4 C 531.81 5.44 531.8 4.2 531.8 4.2 L 533.4 4.2 C 533.4 4.2 533.43 13.15 533.4 13.2 C 533.4 14.8 533.3 15.9 532.9 16.6 C 532.6 17.3 532.1 17.8 531.4 18.2 C 530.7 18.6 529.8 18.8 528.7 18.8 C 527.5 18.8 526.5 18.5 525.7 17.9 C 525 17.4 524.6 16.5 524.6 15.4 Z M 526.1 9.2 C 526.1 10.6 526.4 11.5 526.9 12.2 C 527.4 12.8 528.1 13.1 528.9 13.1 C 529.7 13.1 530.4 12.8 531 12.2 C 531.5 11.6 531.8 10.6 531.8 9.2 C 531.8 8 531.5 7 530.9 6.4 C 530.4 5.7 529.7 5.4 528.9 5.4 C 528.1 5.4 527.5 5.7 526.9 6.4 C 526.4 7 526.1 7.9 526.1 9.2 Z M 537.1 18.8 C 536.8 18.8 536.4 18.7 536 18.6 C 536 18.6 535.8 16.9 535.8 16.9 C 536.2 17 536.5 17.1 536.8 17.1 C 537.2 17.1 537.5 17 537.8 16.9 C 538 16.7 538.2 16.6 538.3 16.3 C 538.4 16.1 538.6 15.7 538.9 15 C 538.9 14.9 539 14.8 539 14.6 C 539.02 14.58 535.1 4.2 535.1 4.2 L 537 4.2 C 537 4.2 539.14 10.2 539.1 10.2 C 539.4 11 539.7 11.8 539.9 12.6 C 540.1 11.8 540.3 11 540.6 10.2 C 540.62 10.23 542.8 4.2 542.8 4.2 L 544.6 4.2 C 544.6 4.2 540.64 14.74 540.6 14.7 C 540.2 15.9 539.9 16.7 539.7 17.1 C 539.3 17.7 539 18.1 538.6 18.4 C 538.2 18.6 537.7 18.8 537.1 18.8 C 537.1 18.8 537.1 18.8 537.1 18.8 Z M 558.4 10.8 C 558.4 10.8 560.1 11 560.1 11 C 559.9 12.2 559.5 13.1 558.7 13.8 C 557.9 14.5 557 14.8 555.8 14.8 C 554.4 14.8 553.3 14.3 552.4 13.4 C 551.5 12.5 551.1 11.1 551.1 9.4 C 551.1 8.3 551.3 7.3 551.7 6.5 C 552 5.6 552.6 5 553.4 4.6 C 554.1 4.2 554.9 4 555.8 4 C 557 4 557.9 4.2 558.6 4.8 C 559.3 5.4 559.8 6.2 560 7.2 C 560 7.2 558.3 7.5 558.3 7.5 C 558.1 6.8 557.8 6.3 557.4 5.9 C 557 5.6 556.5 5.4 555.9 5.4 C 555 5.4 554.3 5.7 553.7 6.4 C 553.2 7 552.9 8 552.9 9.4 C 552.9 10.8 553.2 11.8 553.7 12.4 C 554.2 13 554.9 13.3 555.8 13.3 C 556.5 13.3 557.1 13.1 557.5 12.7 C 558 12.3 558.3 11.6 558.4 10.8 Z M 561 9.4 C 561 7.5 561.5 6 562.6 5.1 C 563.5 4.3 564.6 4 565.8 4 C 567.3 4 568.4 4.4 569.3 5.4 C 570.3 6.3 570.7 7.6 570.7 9.2 C 570.7 10.6 570.5 11.6 570.1 12.4 C 569.7 13.1 569.1 13.7 568.4 14.2 C 567.6 14.6 566.8 14.8 565.8 14.8 C 564.4 14.8 563.2 14.3 562.3 13.4 C 561.4 12.5 561 11.1 561 9.4 Z M 562.8 9.4 C 562.8 10.7 563.1 11.7 563.7 12.4 C 564.2 13 565 13.3 565.8 13.3 C 566.7 13.3 567.4 13 568 12.4 C 568.6 11.7 568.9 10.7 568.9 9.3 C 568.9 8 568.6 7.1 568 6.4 C 567.4 5.7 566.7 5.4 565.8 5.4 C 565 5.4 564.2 5.7 563.7 6.4 C 563.1 7.1 562.8 8 562.8 9.4 Z M 572.8 14.6 L 572.8 4.2 L 574.3 4.2 C 574.3 4.2 574.34 5.64 574.3 5.6 C 574.7 5.1 575.1 4.7 575.6 4.4 C 576.2 4.1 576.8 4 577.5 4 C 578.2 4 578.9 4.1 579.4 4.4 C 579.9 4.8 580.2 5.2 580.4 5.8 C 581.2 4.6 582.3 4 583.6 4 C 584.6 4 585.4 4.2 586 4.8 C 586.5 5.4 586.8 6.3 586.8 7.4 C 586.82 7.44 586.8 14.6 586.8 14.6 L 585.1 14.6 C 585.1 14.6 585.07 8.03 585.1 8 C 585.1 7.3 585 6.8 584.9 6.5 C 584.8 6.2 584.6 6 584.3 5.8 C 584 5.6 583.6 5.5 583.2 5.5 C 582.5 5.5 581.9 5.7 581.4 6.2 C 580.9 6.7 580.7 7.5 580.7 8.5 C 580.68 8.54 580.7 14.6 580.7 14.6 L 578.9 14.6 C 578.9 14.6 578.93 7.82 578.9 7.8 C 578.9 7 578.8 6.5 578.5 6.1 C 578.2 5.7 577.7 5.5 577.1 5.5 C 576.6 5.5 576.1 5.6 575.7 5.9 C 575.3 6.1 575 6.5 574.8 7 C 574.6 7.5 574.5 8.2 574.5 9.2 C 574.52 9.18 574.5 14.6 574.5 14.6 L 572.8 14.6 Z M 589.4 18.5 L 589.4 4.2 L 591 4.2 C 591 4.2 591.03 5.54 591 5.5 C 591.4 5 591.8 4.6 592.3 4.4 C 592.8 4.1 593.4 4 594 4 C 594.9 4 595.7 4.2 596.4 4.6 C 597.1 5.1 597.6 5.7 597.9 6.6 C 598.3 7.4 598.4 8.3 598.4 9.3 C 598.4 10.4 598.2 11.3 597.9 12.2 C 597.5 13 596.9 13.7 596.2 14.1 C 595.5 14.6 594.7 14.8 593.9 14.8 C 593.3 14.8 592.8 14.7 592.3 14.4 C 591.9 14.2 591.5 13.9 591.2 13.5 C 591.18 13.49 591.2 18.5 591.2 18.5 L 589.4 18.5 Z M 591 9.4 C 591 10.8 591.3 11.8 591.8 12.4 C 592.4 13 593 13.3 593.8 13.3 C 594.6 13.3 595.2 13 595.8 12.4 C 596.4 11.7 596.6 10.7 596.6 9.3 C 596.6 8 596.4 7 595.8 6.3 C 595.3 5.7 594.6 5.3 593.9 5.3 C 593.1 5.3 592.5 5.7 591.9 6.4 C 591.3 7.1 591 8.1 591 9.4 Z M 607.7 14.6 C 607.5 14.2 607.4 13.8 607.3 13.3 C 606.7 13.8 606 14.2 605.4 14.5 C 604.8 14.7 604.2 14.8 603.5 14.8 C 602.4 14.8 601.5 14.5 600.9 14 C 600.3 13.4 600 12.7 600 11.8 C 600 11.3 600.1 10.9 600.3 10.4 C 600.5 10 600.8 9.7 601.2 9.4 C 601.6 9.2 602 9 602.5 8.8 C 602.8 8.8 603.3 8.7 604 8.6 C 605.5 8.4 606.5 8.2 607.2 8 C 607.2 7.7 607.2 7.6 607.2 7.5 C 607.2 6.8 607 6.3 606.7 6 C 606.2 5.6 605.6 5.4 604.7 5.4 C 603.9 5.4 603.2 5.6 602.8 5.8 C 602.5 6.1 602.2 6.6 602 7.4 C 602 7.4 600.3 7.1 600.3 7.1 C 600.4 6.4 600.7 5.8 601 5.4 C 601.4 4.9 601.9 4.6 602.6 4.3 C 603.3 4.1 604 4 604.9 4 C 605.8 4 606.5 4.1 607.1 4.3 C 607.6 4.5 608.1 4.7 608.3 5.1 C 608.6 5.4 608.8 5.8 608.9 6.3 C 608.9 6.5 608.9 7.1 608.9 7.9 C 608.9 7.9 608.9 10.2 608.9 10.2 C 608.9 11.8 609 12.9 609.1 13.3 C 609.1 13.7 609.3 14.2 609.5 14.6 C 609.5 14.56 607.7 14.6 607.7 14.6 C 607.7 14.6 607.67 14.56 607.7 14.6 Z M 607.2 9.4 C 606.5 9.6 605.6 9.8 604.3 10 C 603.6 10.1 603.1 10.2 602.8 10.4 C 602.5 10.5 602.2 10.7 602.1 10.9 C 601.9 11.2 601.8 11.5 601.8 11.8 C 601.8 12.2 602 12.6 602.4 12.9 C 602.7 13.3 603.2 13.4 603.9 13.4 C 604.6 13.4 605.2 13.3 605.7 13 C 606.3 12.7 606.6 12.3 606.9 11.8 C 607.1 11.4 607.2 10.8 607.2 10 C 607.2 10 607.2 9.4 607.2 9.4 Z M 611.7 14.6 L 611.7 4.2 L 613.3 4.2 C 613.3 4.2 613.25 5.66 613.3 5.7 C 614 4.5 615.1 4 616.6 4 C 617.2 4 617.8 4.1 618.3 4.3 C 618.8 4.5 619.2 4.8 619.5 5.2 C 619.7 5.5 619.9 6 620 6.5 C 620.1 6.8 620.1 7.4 620.1 8.2 C 620.1 8.18 620.1 14.6 620.1 14.6 L 618.3 14.6 C 618.3 14.6 618.34 8.25 618.3 8.3 C 618.3 7.5 618.3 7 618.1 6.6 C 618 6.3 617.8 6 617.4 5.8 C 617.1 5.6 616.7 5.5 616.2 5.5 C 615.4 5.5 614.8 5.7 614.2 6.2 C 613.7 6.7 613.4 7.6 613.4 8.9 C 613.43 8.9 613.4 14.6 613.4 14.6 L 611.7 14.6 Z M 623.8 18.8 C 623.5 18.8 623.1 18.7 622.7 18.6 C 622.7 18.6 622.5 16.9 622.5 16.9 C 622.9 17 623.2 17.1 623.5 17.1 C 623.9 17.1 624.2 17 624.5 16.9 C 624.7 16.7 624.9 16.6 625 16.3 C 625.1 16.1 625.3 15.7 625.6 15 C 625.6 14.9 625.7 14.8 625.7 14.6 C 625.73 14.58 621.8 4.2 621.8 4.2 L 623.7 4.2 C 623.7 4.2 625.85 10.2 625.8 10.2 C 626.1 11 626.4 11.8 626.6 12.6 C 626.8 11.8 627 11 627.3 10.2 C 627.32 10.23 629.5 4.2 629.5 4.2 L 631.3 4.2 C 631.3 4.2 627.35 14.74 627.4 14.7 C 626.9 15.9 626.6 16.7 626.4 17.1 C 626.1 17.7 625.7 18.1 625.3 18.4 C 624.9 18.6 624.4 18.8 623.8 18.8 C 623.8 18.8 623.8 18.8 623.8 18.8 Z M 632.7 2.1 L 632.7 0.1 L 634.6 0.1 C 634.6 0.1 634.57 1.71 634.6 1.7 C 634.6 2.6 634.5 3.2 634.3 3.6 C 634 4.1 633.6 4.5 633 4.8 C 633 4.8 632.5 4.1 632.5 4.1 C 632.9 3.9 633.1 3.7 633.3 3.4 C 633.5 3.1 633.6 2.7 633.6 2.1 C 633.6 2.14 632.7 2.1 632.7 2.1 Z M 636.2 11.5 C 636.2 11.5 637.9 11.2 637.9 11.2 C 638 11.9 638.3 12.4 638.7 12.8 C 639.2 13.2 639.8 13.3 640.6 13.3 C 641.4 13.3 642 13.2 642.4 12.9 C 642.8 12.5 643 12.1 643 11.7 C 643 11.3 642.8 11 642.5 10.8 C 642.2 10.6 641.6 10.4 640.7 10.2 C 639.4 9.8 638.5 9.6 638 9.3 C 637.5 9.1 637.1 8.8 636.9 8.3 C 636.6 7.9 636.5 7.5 636.5 6.9 C 636.5 6.5 636.6 6.1 636.8 5.7 C 637 5.3 637.3 4.9 637.6 4.7 C 637.9 4.5 638.3 4.3 638.8 4.2 C 639.2 4 639.7 4 640.3 4 C 641.1 4 641.8 4.1 642.4 4.3 C 643 4.5 643.5 4.9 643.8 5.3 C 644.1 5.7 644.3 6.2 644.4 6.9 C 644.4 6.9 642.7 7.1 642.7 7.1 C 642.6 6.6 642.4 6.1 642 5.8 C 641.6 5.6 641.1 5.4 640.4 5.4 C 639.6 5.4 639 5.5 638.7 5.8 C 638.3 6.1 638.2 6.4 638.2 6.7 C 638.2 7 638.2 7.2 638.4 7.4 C 638.5 7.5 638.7 7.7 639.1 7.8 C 639.2 7.9 639.7 8 640.6 8.3 C 641.8 8.6 642.7 8.9 643.2 9.1 C 643.7 9.3 644.1 9.6 644.4 10 C 644.6 10.4 644.8 10.9 644.8 11.5 C 644.8 12.1 644.6 12.7 644.3 13.2 C 643.9 13.7 643.4 14.1 642.8 14.4 C 642.1 14.7 641.4 14.8 640.6 14.8 C 639.3 14.8 638.2 14.5 637.5 14 C 636.8 13.4 636.4 12.6 636.2 11.5 Z M 659.6 14.6 C 659.4 14.2 659.3 13.8 659.2 13.3 C 658.5 13.8 657.9 14.2 657.3 14.5 C 656.7 14.7 656.1 14.8 655.4 14.8 C 654.2 14.8 653.4 14.5 652.8 14 C 652.1 13.4 651.8 12.7 651.8 11.8 C 651.8 11.3 652 10.9 652.2 10.4 C 652.4 10 652.7 9.7 653.1 9.4 C 653.5 9.2 653.9 9 654.4 8.8 C 654.7 8.8 655.2 8.7 655.9 8.6 C 657.3 8.4 658.4 8.2 659.1 8 C 659.1 7.7 659.1 7.6 659.1 7.5 C 659.1 6.8 658.9 6.3 658.6 6 C 658.1 5.6 657.4 5.4 656.6 5.4 C 655.7 5.4 655.1 5.6 654.7 5.8 C 654.3 6.1 654 6.6 653.9 7.4 C 653.9 7.4 652.1 7.1 652.1 7.1 C 652.3 6.4 652.6 5.8 652.9 5.4 C 653.3 4.9 653.8 4.6 654.5 4.3 C 655.1 4.1 655.9 4 656.8 4 C 657.7 4 658.4 4.1 659 4.3 C 659.5 4.5 659.9 4.7 660.2 5.1 C 660.5 5.4 660.6 5.8 660.7 6.3 C 660.8 6.5 660.8 7.1 660.8 7.9 C 660.8 7.9 660.8 10.2 660.8 10.2 C 660.8 11.8 660.9 12.9 660.9 13.3 C 661 13.7 661.2 14.2 661.4 14.6 C 661.39 14.56 659.6 14.6 659.6 14.6 C 659.6 14.6 659.55 14.56 659.6 14.6 Z M 659.1 9.4 C 658.4 9.6 657.5 9.8 656.2 10 C 655.5 10.1 654.9 10.2 654.6 10.4 C 654.3 10.5 654.1 10.7 654 10.9 C 653.8 11.2 653.7 11.5 653.7 11.8 C 653.7 12.2 653.9 12.6 654.2 12.9 C 654.6 13.3 655.1 13.4 655.8 13.4 C 656.5 13.4 657.1 13.3 657.6 13 C 658.1 12.7 658.5 12.3 658.8 11.8 C 659 11.4 659.1 10.8 659.1 10 C 659.1 10 659.1 9.4 659.1 9.4 Z M 663.6 14.6 L 663.6 4.2 L 665.1 4.2 C 665.1 4.2 665.13 5.64 665.1 5.6 C 665.5 5.1 665.9 4.7 666.4 4.4 C 667 4.1 667.6 4 668.3 4 C 669 4 669.7 4.1 670.2 4.4 C 670.7 4.8 671 5.2 671.2 5.8 C 672 4.6 673.1 4 674.4 4 C 675.4 4 676.2 4.2 676.8 4.8 C 677.3 5.4 677.6 6.3 677.6 7.4 C 677.61 7.44 677.6 14.6 677.6 14.6 L 675.9 14.6 C 675.9 14.6 675.86 8.03 675.9 8 C 675.9 7.3 675.8 6.8 675.7 6.5 C 675.6 6.2 675.4 6 675.1 5.8 C 674.8 5.6 674.4 5.5 674 5.5 C 673.3 5.5 672.7 5.7 672.2 6.2 C 671.7 6.7 671.5 7.5 671.5 8.5 C 671.47 8.54 671.5 14.6 671.5 14.6 L 669.7 14.6 C 669.7 14.6 669.72 7.82 669.7 7.8 C 669.7 7 669.6 6.5 669.3 6.1 C 669 5.7 668.5 5.5 667.9 5.5 C 667.4 5.5 666.9 5.6 666.5 5.9 C 666.1 6.1 665.8 6.5 665.6 7 C 665.4 7.5 665.3 8.2 665.3 9.2 C 665.31 9.18 665.3 14.6 665.3 14.6 L 663.6 14.6 Z M 681.8 14.6 L 680.2 14.6 L 680.2 0.2 L 682 0.2 C 682 0.2 681.96 5.35 682 5.4 C 682.7 4.4 683.7 4 684.8 4 C 685.4 4 686 4.1 686.6 4.3 C 687.2 4.6 687.7 5 688 5.4 C 688.4 5.9 688.7 6.5 688.9 7.1 C 689.1 7.8 689.2 8.5 689.2 9.2 C 689.2 11 688.8 12.4 687.9 13.3 C 687 14.3 685.9 14.8 684.7 14.8 C 683.5 14.8 682.5 14.3 681.8 13.3 C 681.84 13.26 681.8 14.6 681.8 14.6 Z M 681.8 9.3 C 681.8 10.5 682 11.4 682.3 12 C 682.9 12.9 683.6 13.3 684.6 13.3 C 685.3 13.3 686 13 686.6 12.3 C 687.1 11.7 687.4 10.7 687.4 9.4 C 687.4 8 687.1 7 686.6 6.4 C 686.1 5.7 685.4 5.4 684.6 5.4 C 683.9 5.4 683.2 5.7 682.7 6.4 C 682.1 7.1 681.8 8 681.8 9.3 Z M 691.3 2.3 L 691.3 0.2 L 693.1 0.2 L 693.1 2.3 L 691.3 2.3 Z M 691.3 14.6 L 691.3 4.2 L 693.1 4.2 L 693.1 14.6 L 691.3 14.6 Z M 698.8 13.1 C 699 13.1 699.3 13 699.6 13 C 699.6 13 699.9 14.5 699.9 14.5 C 699.4 14.6 698.9 14.7 698.5 14.7 C 697.9 14.7 697.4 14.6 697.1 14.4 C 696.7 14.2 696.5 13.9 696.3 13.6 C 696.2 13.3 696.1 12.6 696.1 11.5 C 696.1 11.52 696.1 5.6 696.1 5.6 L 694.8 5.6 L 694.8 4.2 L 696.1 4.2 L 696.1 1.6 L 697.9 0.6 L 697.9 4.2 L 699.6 4.2 L 699.6 5.6 L 697.9 5.6 C 697.9 5.6 697.85 11.62 697.9 11.6 C 697.9 12.1 697.9 12.4 697.9 12.6 C 698 12.7 698.1 12.8 698.2 12.9 C 698.4 13 698.6 13.1 698.8 13.1 C 698.8 13.1 698.8 13.1 698.8 13.1 Z M 701.3 2.3 L 701.3 0.2 L 703.1 0.2 L 703.1 2.3 L 701.3 2.3 Z M 701.3 14.6 L 701.3 4.2 L 703.1 4.2 L 703.1 14.6 L 701.3 14.6 Z M 705.1 9.4 C 705.1 7.5 705.7 6 706.7 5.1 C 707.6 4.3 708.7 4 710 4 C 711.4 4 712.6 4.4 713.5 5.4 C 714.4 6.3 714.8 7.6 714.8 9.2 C 714.8 10.6 714.6 11.6 714.2 12.4 C 713.8 13.1 713.3 13.7 712.5 14.2 C 711.7 14.6 710.9 14.8 710 14.8 C 708.5 14.8 707.4 14.3 706.5 13.4 C 705.6 12.5 705.1 11.1 705.1 9.4 Z M 706.9 9.4 C 706.9 10.7 707.2 11.7 707.8 12.4 C 708.4 13 709.1 13.3 710 13.3 C 710.9 13.3 711.6 13 712.2 12.4 C 712.7 11.7 713 10.7 713 9.3 C 713 8 712.7 7.1 712.2 6.4 C 711.6 5.7 710.9 5.4 710 5.4 C 709.1 5.4 708.4 5.7 707.8 6.4 C 707.2 7.1 706.9 8 706.9 9.4 Z M 723.7 14.6 C 723.7 14.6 723.7 13.04 723.7 13 C 722.9 14.2 721.8 14.8 720.4 14.8 C 719.8 14.8 719.2 14.7 718.7 14.4 C 718.2 14.2 717.8 13.9 717.5 13.6 C 717.3 13.2 717.1 12.8 717 12.3 C 716.9 11.9 716.9 11.4 716.9 10.6 C 716.87 10.62 716.9 4.2 716.9 4.2 L 718.6 4.2 C 718.6 4.2 718.62 9.94 718.6 9.9 C 718.6 10.9 718.7 11.5 718.7 11.8 C 718.8 12.3 719.1 12.6 719.4 12.9 C 719.8 13.1 720.2 13.3 720.8 13.3 C 721.3 13.3 721.8 13.1 722.2 12.9 C 722.7 12.6 723 12.2 723.2 11.8 C 723.4 11.3 723.5 10.6 723.5 9.7 C 723.52 9.75 723.5 4.2 723.5 4.2 L 725.3 4.2 L 725.3 14.6 L 723.7 14.6 Z M 727.3 11.5 C 727.3 11.5 729.1 11.2 729.1 11.2 C 729.2 11.9 729.4 12.4 729.9 12.8 C 730.3 13.2 730.9 13.3 731.7 13.3 C 732.6 13.3 733.2 13.2 733.5 12.9 C 733.9 12.5 734.1 12.1 734.1 11.7 C 734.1 11.3 734 11 733.6 10.8 C 733.4 10.6 732.8 10.4 731.8 10.2 C 730.5 9.8 729.6 9.6 729.1 9.3 C 728.6 9.1 728.3 8.8 728 8.3 C 727.7 7.9 727.6 7.5 727.6 6.9 C 727.6 6.5 727.7 6.1 727.9 5.7 C 728.1 5.3 728.4 4.9 728.8 4.7 C 729.1 4.5 729.4 4.3 729.9 4.2 C 730.4 4 730.9 4 731.4 4 C 732.2 4 733 4.1 733.6 4.3 C 734.2 4.5 734.6 4.9 734.9 5.3 C 735.2 5.7 735.4 6.2 735.5 6.9 C 735.5 6.9 733.8 7.1 733.8 7.1 C 733.8 6.6 733.5 6.1 733.1 5.8 C 732.8 5.6 732.2 5.4 731.6 5.4 C 730.8 5.4 730.2 5.5 729.8 5.8 C 729.5 6.1 729.3 6.4 729.3 6.7 C 729.3 7 729.4 7.2 729.5 7.4 C 729.7 7.5 729.9 7.7 730.2 7.8 C 730.4 7.9 730.9 8 731.8 8.3 C 733 8.6 733.9 8.9 734.4 9.1 C 734.9 9.3 735.2 9.6 735.5 10 C 735.8 10.4 735.9 10.9 735.9 11.5 C 735.9 12.1 735.8 12.7 735.4 13.2 C 735.1 13.7 734.6 14.1 733.9 14.4 C 733.3 14.7 732.6 14.8 731.8 14.8 C 730.4 14.8 729.4 14.5 728.7 14 C 728 13.4 727.5 12.6 727.3 11.5 Z " stroke="none" fill="#54626c"/>
  </g>
</svg>