<?xml version="1.0" standalone="no"?>
<!DOCTYPE svg PUBLIC "-//W3C//DTD SVG 1.1//EN" "http://www.w3.org/Graphics/SVG/1.1/DTD/svg11.dtd">
<svg xmlns="http://www.w3.org/2000/svg" version="1.1" width="768px" height="250.2px" viewBox="0 -7 768 250.2" style="top:-7px">
  <desc>Advised on the first and second sustainability-linked bonds out of North America</desc>
  <defs/>
  <g id="Polygon58789">
    <path d="M 0 14.6 L 5.5 0.2 L 7.5 0.2 L 13.4 14.6 L 11.2 14.6 L 9.5 10.2 L 3.6 10.2 L 2 14.6 L 0 14.6 Z M 4.1 8.7 L 9 8.7 C 9 8.7 7.46 4.72 7.5 4.7 C 7 3.5 6.7 2.5 6.4 1.7 C 6.3 2.7 6 3.6 5.7 4.5 C 5.67 4.48 4.1 8.7 4.1 8.7 Z M 21.4 14.6 C 21.4 14.6 21.39 13.25 21.4 13.3 C 20.7 14.3 19.8 14.8 18.5 14.8 C 17.7 14.8 16.9 14.6 16.2 14.1 C 15.5 13.7 15 13 14.6 12.2 C 14.2 11.4 14 10.4 14 9.4 C 14 8.3 14.2 7.4 14.5 6.6 C 14.9 5.7 15.4 5.1 16.1 4.6 C 16.8 4.2 17.6 4 18.4 4 C 19 4 19.6 4.1 20.1 4.4 C 20.6 4.6 21 5 21.3 5.4 C 21.27 5.38 21.3 0.2 21.3 0.2 L 23 0.2 L 23 14.6 L 21.4 14.6 Z M 15.8 9.4 C 15.8 10.7 16.1 11.7 16.7 12.4 C 17.2 13 17.9 13.3 18.7 13.3 C 19.4 13.3 20.1 13 20.6 12.4 C 21.1 11.8 21.4 10.8 21.4 9.5 C 21.4 8.1 21.1 7.1 20.6 6.4 C 20 5.7 19.4 5.4 18.6 5.4 C 17.8 5.4 17.1 5.7 16.6 6.4 C 16.1 7 15.8 8 15.8 9.4 Z M 28.7 14.6 L 24.7 4.2 L 26.6 4.2 C 26.6 4.2 28.8 10.4 28.8 10.4 C 29 11.1 29.3 11.8 29.5 12.5 C 29.6 11.9 29.8 11.3 30.1 10.5 C 30.12 10.52 32.4 4.2 32.4 4.2 L 34.2 4.2 L 30.3 14.6 L 28.7 14.6 Z M 35.8 2.3 L 35.8 0.2 L 37.5 0.2 L 37.5 2.3 L 35.8 2.3 Z M 35.8 14.6 L 35.8 4.2 L 37.5 4.2 L 37.5 14.6 L 35.8 14.6 Z M 39.5 11.5 C 39.5 11.5 41.3 11.2 41.3 11.2 C 41.4 11.9 41.6 12.4 42.1 12.8 C 42.5 13.2 43.1 13.3 43.9 13.3 C 44.8 13.3 45.4 13.2 45.7 12.9 C 46.1 12.5 46.3 12.1 46.3 11.7 C 46.3 11.3 46.2 11 45.8 10.8 C 45.6 10.6 45 10.4 44 10.2 C 42.7 9.8 41.8 9.6 41.3 9.3 C 40.8 9.1 40.5 8.8 40.2 8.3 C 39.9 7.9 39.8 7.5 39.8 6.9 C 39.8 6.5 39.9 6.1 40.1 5.7 C 40.3 5.3 40.6 4.9 41 4.7 C 41.3 4.5 41.6 4.3 42.1 4.2 C 42.6 4 43.1 4 43.6 4 C 44.4 4 45.2 4.1 45.8 4.3 C 46.4 4.5 46.8 4.9 47.1 5.3 C 47.4 5.7 47.6 6.2 47.7 6.9 C 47.7 6.9 46 7.1 46 7.1 C 45.9 6.6 45.7 6.1 45.3 5.8 C 45 5.6 44.4 5.4 43.8 5.4 C 43 5.4 42.4 5.5 42 5.8 C 41.7 6.1 41.5 6.4 41.5 6.7 C 41.5 7 41.6 7.2 41.7 7.4 C 41.9 7.5 42.1 7.7 42.4 7.8 C 42.6 7.9 43.1 8 44 8.3 C 45.2 8.6 46.1 8.9 46.6 9.1 C 47 9.3 47.4 9.6 47.7 10 C 48 10.4 48.1 10.9 48.1 11.5 C 48.1 12.1 48 12.7 47.6 13.2 C 47.3 13.7 46.8 14.1 46.1 14.4 C 45.5 14.7 44.8 14.8 44 14.8 C 42.6 14.8 41.6 14.5 40.9 14 C 40.2 13.4 39.7 12.6 39.5 11.5 Z M 57.3 11.2 C 57.3 11.2 59.1 11.4 59.1 11.4 C 58.9 12.5 58.3 13.3 57.5 13.9 C 56.8 14.5 55.8 14.8 54.6 14.8 C 53.1 14.8 51.9 14.3 51 13.4 C 50.1 12.5 49.6 11.1 49.6 9.5 C 49.6 7.7 50.1 6.4 51 5.4 C 51.9 4.4 53.1 4 54.5 4 C 55.9 4 57 4.4 57.9 5.4 C 58.8 6.3 59.2 7.6 59.2 9.4 C 59.2 9.5 59.2 9.6 59.2 9.8 C 59.2 9.8 51.5 9.8 51.5 9.8 C 51.5 11 51.8 11.8 52.4 12.4 C 53 13 53.7 13.3 54.6 13.3 C 55.2 13.3 55.8 13.2 56.2 12.8 C 56.7 12.5 57.1 12 57.3 11.2 Z M 51.6 8.4 C 51.6 8.4 57.3 8.4 57.3 8.4 C 57.3 7.5 57 6.9 56.7 6.4 C 56.1 5.7 55.4 5.4 54.5 5.4 C 53.7 5.4 53 5.7 52.5 6.2 C 51.9 6.8 51.6 7.5 51.6 8.4 Z M 68.1 14.6 C 68.1 14.6 68.08 13.25 68.1 13.3 C 67.4 14.3 66.5 14.8 65.2 14.8 C 64.3 14.8 63.6 14.6 62.9 14.1 C 62.2 13.7 61.7 13 61.3 12.2 C 60.9 11.4 60.7 10.4 60.7 9.4 C 60.7 8.3 60.9 7.4 61.2 6.6 C 61.6 5.7 62.1 5.1 62.8 4.6 C 63.5 4.2 64.2 4 65.1 4 C 65.7 4 66.3 4.1 66.8 4.4 C 67.3 4.6 67.7 5 68 5.4 C 67.96 5.38 68 0.2 68 0.2 L 69.7 0.2 L 69.7 14.6 L 68.1 14.6 Z M 62.5 9.4 C 62.5 10.7 62.8 11.7 63.4 12.4 C 63.9 13 64.6 13.3 65.3 13.3 C 66.1 13.3 66.8 13 67.3 12.4 C 67.8 11.8 68.1 10.8 68.1 9.5 C 68.1 8.1 67.8 7.1 67.3 6.4 C 66.7 5.7 66.1 5.4 65.3 5.4 C 64.5 5.4 63.8 5.7 63.3 6.4 C 62.8 7 62.5 8 62.5 9.4 Z M 77.4 9.4 C 77.4 7.5 77.9 6 79 5.1 C 79.9 4.3 81 4 82.2 4 C 83.7 4 84.8 4.4 85.7 5.4 C 86.6 6.3 87.1 7.6 87.1 9.2 C 87.1 10.6 86.9 11.6 86.5 12.4 C 86.1 13.1 85.5 13.7 84.7 14.2 C 84 14.6 83.1 14.8 82.2 14.8 C 80.8 14.8 79.6 14.3 78.7 13.4 C 77.8 12.5 77.4 11.1 77.4 9.4 Z M 79.2 9.4 C 79.2 10.7 79.5 11.7 80 12.4 C 80.6 13 81.4 13.3 82.2 13.3 C 83.1 13.3 83.8 13 84.4 12.4 C 85 11.7 85.3 10.7 85.3 9.3 C 85.3 8 85 7.1 84.4 6.4 C 83.8 5.7 83.1 5.4 82.2 5.4 C 81.4 5.4 80.6 5.7 80 6.4 C 79.5 7.1 79.2 8 79.2 9.4 Z M 89.2 14.6 L 89.2 4.2 L 90.7 4.2 C 90.7 4.2 90.73 5.66 90.7 5.7 C 91.5 4.5 92.6 4 94 4 C 94.7 4 95.2 4.1 95.8 4.3 C 96.3 4.5 96.7 4.8 96.9 5.2 C 97.2 5.5 97.4 6 97.5 6.5 C 97.5 6.8 97.6 7.4 97.6 8.2 C 97.58 8.18 97.6 14.6 97.6 14.6 L 95.8 14.6 C 95.8 14.6 95.82 8.25 95.8 8.3 C 95.8 7.5 95.8 7 95.6 6.6 C 95.5 6.3 95.2 6 94.9 5.8 C 94.5 5.6 94.1 5.5 93.7 5.5 C 92.9 5.5 92.3 5.7 91.7 6.2 C 91.2 6.7 90.9 7.6 90.9 8.9 C 90.91 8.9 90.9 14.6 90.9 14.6 L 89.2 14.6 Z M 108.9 13.1 C 109.1 13.1 109.3 13 109.7 13 C 109.7 13 109.9 14.5 109.9 14.5 C 109.4 14.6 109 14.7 108.6 14.7 C 108 14.7 107.5 14.6 107.1 14.4 C 106.8 14.2 106.5 13.9 106.4 13.6 C 106.2 13.3 106.2 12.6 106.2 11.5 C 106.15 11.52 106.2 5.6 106.2 5.6 L 104.9 5.6 L 104.9 4.2 L 106.2 4.2 L 106.2 1.6 L 107.9 0.6 L 107.9 4.2 L 109.7 4.2 L 109.7 5.6 L 107.9 5.6 C 107.9 5.6 107.9 11.62 107.9 11.6 C 107.9 12.1 107.9 12.4 108 12.6 C 108.1 12.7 108.2 12.8 108.3 12.9 C 108.4 13 108.6 13.1 108.9 13.1 C 108.9 13.1 108.9 13.1 108.9 13.1 Z M 111.4 14.6 L 111.4 0.2 L 113.1 0.2 C 113.1 0.2 113.14 5.38 113.1 5.4 C 114 4.4 115 4 116.3 4 C 117 4 117.7 4.1 118.3 4.4 C 118.8 4.7 119.2 5.1 119.5 5.7 C 119.7 6.2 119.8 7 119.8 8 C 119.83 7.99 119.8 14.6 119.8 14.6 L 118.1 14.6 C 118.1 14.6 118.08 7.99 118.1 8 C 118.1 7.1 117.9 6.5 117.5 6.1 C 117.1 5.7 116.6 5.5 115.9 5.5 C 115.4 5.5 114.9 5.6 114.4 5.9 C 114 6.1 113.6 6.5 113.4 7 C 113.2 7.4 113.1 8.1 113.1 8.9 C 113.14 8.89 113.1 14.6 113.1 14.6 L 111.4 14.6 Z M 129.6 11.2 C 129.6 11.2 131.4 11.4 131.4 11.4 C 131.1 12.5 130.6 13.3 129.8 13.9 C 129.1 14.5 128.1 14.8 126.9 14.8 C 125.3 14.8 124.1 14.3 123.3 13.4 C 122.4 12.5 121.9 11.1 121.9 9.5 C 121.9 7.7 122.4 6.4 123.3 5.4 C 124.2 4.4 125.3 4 126.8 4 C 128.2 4 129.3 4.4 130.2 5.4 C 131 6.3 131.5 7.6 131.5 9.4 C 131.5 9.5 131.5 9.6 131.5 9.8 C 131.5 9.8 123.7 9.8 123.7 9.8 C 123.8 11 124.1 11.8 124.7 12.4 C 125.3 13 126 13.3 126.9 13.3 C 127.5 13.3 128.1 13.2 128.5 12.8 C 129 12.5 129.3 12 129.6 11.2 Z M 123.8 8.4 C 123.8 8.4 129.6 8.4 129.6 8.4 C 129.6 7.5 129.3 6.9 129 6.4 C 128.4 5.7 127.7 5.4 126.8 5.4 C 126 5.4 125.3 5.7 124.8 6.2 C 124.2 6.8 123.9 7.5 123.8 8.4 Z M 139.7 14.6 L 139.7 5.5 L 138.1 5.5 L 138.1 4.2 L 139.7 4.2 C 139.7 4.2 139.66 3.18 139.7 3.2 C 139.7 2.2 139.9 1.4 140.3 0.8 C 140.8 0.3 141.5 0 142.4 0 C 143.1 0 143.7 0.1 144.2 0.2 C 144.2 0.2 143.9 1.7 143.9 1.7 C 143.6 1.7 143.3 1.6 143 1.6 C 142.4 1.6 142 1.7 141.7 2 C 141.5 2.2 141.4 2.7 141.4 3.5 C 141.42 3.52 141.4 4.2 141.4 4.2 L 143.4 4.2 L 143.4 5.5 L 141.4 5.5 L 141.4 14.6 L 139.7 14.6 Z M 144.8 2.3 L 144.8 0.2 L 146.5 0.2 L 146.5 2.3 L 144.8 2.3 Z M 144.8 14.6 L 144.8 4.2 L 146.5 4.2 L 146.5 14.6 L 144.8 14.6 Z M 149.2 14.6 L 149.2 4.2 L 150.8 4.2 C 150.8 4.2 150.75 5.76 150.8 5.8 C 151.2 5 151.5 4.5 151.9 4.3 C 152.2 4.1 152.6 4 153 4 C 153.6 4 154.2 4.1 154.8 4.5 C 154.8 4.5 154.2 6.2 154.2 6.2 C 153.8 5.9 153.3 5.8 152.9 5.8 C 152.5 5.8 152.2 5.9 151.9 6.1 C 151.6 6.3 151.4 6.7 151.2 7.1 C 151 7.7 150.9 8.4 150.9 9.1 C 150.93 9.13 150.9 14.6 150.9 14.6 L 149.2 14.6 Z M 155.1 11.5 C 155.1 11.5 156.9 11.2 156.9 11.2 C 157 11.9 157.3 12.4 157.7 12.8 C 158.1 13.2 158.8 13.3 159.6 13.3 C 160.4 13.3 161 13.2 161.4 12.9 C 161.8 12.5 162 12.1 162 11.7 C 162 11.3 161.8 11 161.4 10.8 C 161.2 10.6 160.6 10.4 159.6 10.2 C 158.3 9.8 157.5 9.6 157 9.3 C 156.5 9.1 156.1 8.8 155.8 8.3 C 155.6 7.9 155.4 7.5 155.4 6.9 C 155.4 6.5 155.5 6.1 155.8 5.7 C 156 5.3 156.3 4.9 156.6 4.7 C 156.9 4.5 157.3 4.3 157.7 4.2 C 158.2 4 158.7 4 159.3 4 C 160.1 4 160.8 4.1 161.4 4.3 C 162 4.5 162.5 4.9 162.8 5.3 C 163.1 5.7 163.3 6.2 163.4 6.9 C 163.4 6.9 161.7 7.1 161.7 7.1 C 161.6 6.6 161.3 6.1 161 5.8 C 160.6 5.6 160.1 5.4 159.4 5.4 C 158.6 5.4 158 5.5 157.7 5.8 C 157.3 6.1 157.1 6.4 157.1 6.7 C 157.1 7 157.2 7.2 157.4 7.4 C 157.5 7.5 157.7 7.7 158 7.8 C 158.2 7.9 158.7 8 159.6 8.3 C 160.8 8.6 161.7 8.9 162.2 9.1 C 162.7 9.3 163.1 9.6 163.3 10 C 163.6 10.4 163.8 10.9 163.8 11.5 C 163.8 12.1 163.6 12.7 163.2 13.2 C 162.9 13.7 162.4 14.1 161.8 14.4 C 161.1 14.7 160.4 14.8 159.6 14.8 C 158.2 14.8 157.2 14.5 156.5 14 C 155.8 13.4 155.3 12.6 155.1 11.5 Z M 168.9 13.1 C 169.1 13.1 169.4 13 169.7 13 C 169.7 13 169.9 14.5 169.9 14.5 C 169.4 14.6 169 14.7 168.6 14.7 C 168 14.7 167.5 14.6 167.1 14.4 C 166.8 14.2 166.5 13.9 166.4 13.6 C 166.2 13.3 166.2 12.6 166.2 11.5 C 166.17 11.52 166.2 5.6 166.2 5.6 L 164.9 5.6 L 164.9 4.2 L 166.2 4.2 L 166.2 1.6 L 167.9 0.6 L 167.9 4.2 L 169.7 4.2 L 169.7 5.6 L 167.9 5.6 C 167.9 5.6 167.92 11.62 167.9 11.6 C 167.9 12.1 168 12.4 168 12.6 C 168.1 12.7 168.2 12.8 168.3 12.9 C 168.5 13 168.7 13.1 168.9 13.1 C 168.9 13.1 168.9 13.1 168.9 13.1 Z M 184.1 14.6 C 183.9 14.2 183.8 13.8 183.7 13.3 C 183.1 13.8 182.5 14.2 181.9 14.5 C 181.2 14.7 180.6 14.8 179.9 14.8 C 178.8 14.8 177.9 14.5 177.3 14 C 176.7 13.4 176.4 12.7 176.4 11.8 C 176.4 11.3 176.5 10.9 176.7 10.4 C 176.9 10 177.2 9.7 177.6 9.4 C 178 9.2 178.4 9 178.9 8.8 C 179.2 8.8 179.8 8.7 180.4 8.6 C 181.9 8.4 182.9 8.2 183.6 8 C 183.6 7.7 183.6 7.6 183.6 7.5 C 183.6 6.8 183.4 6.3 183.1 6 C 182.6 5.6 182 5.4 181.1 5.4 C 180.3 5.4 179.7 5.6 179.3 5.8 C 178.9 6.1 178.6 6.6 178.4 7.4 C 178.4 7.4 176.7 7.1 176.7 7.1 C 176.8 6.4 177.1 5.8 177.4 5.4 C 177.8 4.9 178.3 4.6 179 4.3 C 179.7 4.1 180.5 4 181.3 4 C 182.2 4 183 4.1 183.5 4.3 C 184.1 4.5 184.5 4.7 184.7 5.1 C 185 5.4 185.2 5.8 185.3 6.3 C 185.3 6.5 185.4 7.1 185.4 7.9 C 185.4 7.9 185.4 10.2 185.4 10.2 C 185.4 11.8 185.4 12.9 185.5 13.3 C 185.5 13.7 185.7 14.2 185.9 14.6 C 185.92 14.56 184.1 14.6 184.1 14.6 C 184.1 14.6 184.08 14.56 184.1 14.6 Z M 183.6 9.4 C 182.9 9.6 182 9.8 180.7 10 C 180 10.1 179.5 10.2 179.2 10.4 C 178.9 10.5 178.6 10.7 178.5 10.9 C 178.3 11.2 178.2 11.5 178.2 11.8 C 178.2 12.2 178.4 12.6 178.8 12.9 C 179.1 13.3 179.6 13.4 180.3 13.4 C 181 13.4 181.6 13.3 182.1 13 C 182.7 12.7 183.1 12.3 183.3 11.8 C 183.5 11.4 183.6 10.8 183.6 10 C 183.6 10 183.6 9.4 183.6 9.4 Z M 188.1 14.6 L 188.1 4.2 L 189.7 4.2 C 189.7 4.2 189.67 5.66 189.7 5.7 C 190.4 4.5 191.5 4 193 4 C 193.6 4 194.2 4.1 194.7 4.3 C 195.2 4.5 195.6 4.8 195.9 5.2 C 196.1 5.5 196.3 6 196.4 6.5 C 196.5 6.8 196.5 7.4 196.5 8.2 C 196.51 8.18 196.5 14.6 196.5 14.6 L 194.8 14.6 C 194.8 14.6 194.76 8.25 194.8 8.3 C 194.8 7.5 194.7 7 194.6 6.6 C 194.4 6.3 194.2 6 193.8 5.8 C 193.5 5.6 193.1 5.5 192.6 5.5 C 191.8 5.5 191.2 5.7 190.7 6.2 C 190.1 6.7 189.8 7.6 189.8 8.9 C 189.84 8.9 189.8 14.6 189.8 14.6 L 188.1 14.6 Z M 205.9 14.6 C 205.9 14.6 205.94 13.25 205.9 13.3 C 205.3 14.3 204.3 14.8 203 14.8 C 202.2 14.8 201.5 14.6 200.8 14.1 C 200.1 13.7 199.5 13 199.1 12.2 C 198.8 11.4 198.6 10.4 198.6 9.4 C 198.6 8.3 198.7 7.4 199.1 6.6 C 199.4 5.7 200 5.1 200.6 4.6 C 201.3 4.2 202.1 4 203 4 C 203.6 4 204.1 4.1 204.6 4.4 C 205.1 4.6 205.5 5 205.8 5.4 C 205.82 5.38 205.8 0.2 205.8 0.2 L 207.6 0.2 L 207.6 14.6 L 205.9 14.6 Z M 200.4 9.4 C 200.4 10.7 200.7 11.7 201.2 12.4 C 201.8 13 202.4 13.3 203.2 13.3 C 204 13.3 204.6 13 205.2 12.4 C 205.7 11.8 206 10.8 206 9.5 C 206 8.1 205.7 7.1 205.1 6.4 C 204.6 5.7 203.9 5.4 203.1 5.4 C 202.3 5.4 201.7 5.7 201.2 6.4 C 200.6 7 200.4 8 200.4 9.4 Z M 215.2 11.5 C 215.2 11.5 216.9 11.2 216.9 11.2 C 217 11.9 217.3 12.4 217.7 12.8 C 218.2 13.2 218.8 13.3 219.6 13.3 C 220.4 13.3 221 13.2 221.4 12.9 C 221.8 12.5 222 12.1 222 11.7 C 222 11.3 221.8 11 221.5 10.8 C 221.2 10.6 220.6 10.4 219.7 10.2 C 218.4 9.8 217.5 9.6 217 9.3 C 216.5 9.1 216.1 8.8 215.9 8.3 C 215.6 7.9 215.5 7.5 215.5 6.9 C 215.5 6.5 215.6 6.1 215.8 5.7 C 216 5.3 216.3 4.9 216.7 4.7 C 216.9 4.5 217.3 4.3 217.8 4.2 C 218.3 4 218.8 4 219.3 4 C 220.1 4 220.8 4.1 221.4 4.3 C 222.1 4.5 222.5 4.9 222.8 5.3 C 223.1 5.7 223.3 6.2 223.4 6.9 C 223.4 6.9 221.7 7.1 221.7 7.1 C 221.6 6.6 221.4 6.1 221 5.8 C 220.6 5.6 220.1 5.4 219.4 5.4 C 218.6 5.4 218 5.5 217.7 5.8 C 217.4 6.1 217.2 6.4 217.2 6.7 C 217.2 7 217.2 7.2 217.4 7.4 C 217.5 7.5 217.8 7.7 218.1 7.8 C 218.2 7.9 218.8 8 219.6 8.3 C 220.9 8.6 221.7 8.9 222.2 9.1 C 222.7 9.3 223.1 9.6 223.4 10 C 223.7 10.4 223.8 10.9 223.8 11.5 C 223.8 12.1 223.6 12.7 223.3 13.2 C 222.9 13.7 222.5 14.1 221.8 14.4 C 221.2 14.7 220.4 14.8 219.6 14.8 C 218.3 14.8 217.2 14.5 216.5 14 C 215.8 13.4 215.4 12.6 215.2 11.5 Z M 233 11.2 C 233 11.2 234.8 11.4 234.8 11.4 C 234.5 12.5 234 13.3 233.2 13.9 C 232.4 14.5 231.4 14.8 230.2 14.8 C 228.7 14.8 227.5 14.3 226.6 13.4 C 225.7 12.5 225.3 11.1 225.3 9.5 C 225.3 7.7 225.8 6.4 226.7 5.4 C 227.5 4.4 228.7 4 230.1 4 C 231.5 4 232.7 4.4 233.5 5.4 C 234.4 6.3 234.9 7.6 234.9 9.4 C 234.9 9.5 234.9 9.6 234.9 9.8 C 234.9 9.8 227.1 9.8 227.1 9.8 C 227.2 11 227.5 11.8 228.1 12.4 C 228.7 13 229.4 13.3 230.3 13.3 C 230.9 13.3 231.4 13.2 231.9 12.8 C 232.4 12.5 232.7 12 233 11.2 Z M 227.2 8.4 C 227.2 8.4 233 8.4 233 8.4 C 232.9 7.5 232.7 6.9 232.3 6.4 C 231.8 5.7 231.1 5.4 230.2 5.4 C 229.4 5.4 228.7 5.7 228.1 6.2 C 227.6 6.8 227.3 7.5 227.2 8.4 Z M 243.8 10.8 C 243.8 10.8 245.5 11 245.5 11 C 245.3 12.2 244.8 13.1 244.1 13.8 C 243.3 14.5 242.3 14.8 241.2 14.8 C 239.8 14.8 238.6 14.3 237.8 13.4 C 236.9 12.5 236.5 11.1 236.5 9.4 C 236.5 8.3 236.7 7.3 237 6.5 C 237.4 5.6 238 5 238.7 4.6 C 239.5 4.2 240.3 4 241.2 4 C 242.3 4 243.2 4.2 244 4.8 C 244.7 5.4 245.1 6.2 245.3 7.2 C 245.3 7.2 243.6 7.5 243.6 7.5 C 243.5 6.8 243.2 6.3 242.8 5.9 C 242.4 5.6 241.9 5.4 241.3 5.4 C 240.4 5.4 239.7 5.7 239.1 6.4 C 238.6 7 238.3 8 238.3 9.4 C 238.3 10.8 238.5 11.8 239.1 12.4 C 239.6 13 240.3 13.3 241.2 13.3 C 241.9 13.3 242.4 13.1 242.9 12.7 C 243.4 12.3 243.7 11.6 243.8 10.8 Z M 246.4 9.4 C 246.4 7.5 246.9 6 248 5.1 C 248.9 4.3 249.9 4 251.2 4 C 252.6 4 253.8 4.4 254.7 5.4 C 255.6 6.3 256.1 7.6 256.1 9.2 C 256.1 10.6 255.9 11.6 255.5 12.4 C 255.1 13.1 254.5 13.7 253.7 14.2 C 253 14.6 252.1 14.8 251.2 14.8 C 249.8 14.8 248.6 14.3 247.7 13.4 C 246.8 12.5 246.4 11.1 246.4 9.4 Z M 248.2 9.4 C 248.2 10.7 248.5 11.7 249 12.4 C 249.6 13 250.3 13.3 251.2 13.3 C 252.1 13.3 252.8 13 253.4 12.4 C 254 11.7 254.3 10.7 254.3 9.3 C 254.3 8 254 7.1 253.4 6.4 C 252.8 5.7 252.1 5.4 251.2 5.4 C 250.3 5.4 249.6 5.7 249 6.4 C 248.5 7.1 248.2 8 248.2 9.4 Z M 258.1 14.6 L 258.1 4.2 L 259.7 4.2 C 259.7 4.2 259.72 5.66 259.7 5.7 C 260.5 4.5 261.6 4 263 4 C 263.6 4 264.2 4.1 264.7 4.3 C 265.3 4.5 265.7 4.8 265.9 5.2 C 266.2 5.5 266.4 6 266.5 6.5 C 266.5 6.8 266.6 7.4 266.6 8.2 C 266.56 8.18 266.6 14.6 266.6 14.6 L 264.8 14.6 C 264.8 14.6 264.8 8.25 264.8 8.3 C 264.8 7.5 264.7 7 264.6 6.6 C 264.5 6.3 264.2 6 263.9 5.8 C 263.5 5.6 263.1 5.5 262.6 5.5 C 261.9 5.5 261.3 5.7 260.7 6.2 C 260.2 6.7 259.9 7.6 259.9 8.9 C 259.89 8.9 259.9 14.6 259.9 14.6 L 258.1 14.6 Z M 276 14.6 C 276 14.6 275.99 13.25 276 13.3 C 275.3 14.3 274.4 14.8 273.1 14.8 C 272.3 14.8 271.5 14.6 270.8 14.1 C 270.1 13.7 269.6 13 269.2 12.2 C 268.8 11.4 268.6 10.4 268.6 9.4 C 268.6 8.3 268.8 7.4 269.1 6.6 C 269.5 5.7 270 5.1 270.7 4.6 C 271.4 4.2 272.2 4 273 4 C 273.6 4 274.2 4.1 274.7 4.4 C 275.2 4.6 275.6 5 275.9 5.4 C 275.87 5.38 275.9 0.2 275.9 0.2 L 277.6 0.2 L 277.6 14.6 L 276 14.6 Z M 270.4 9.4 C 270.4 10.7 270.7 11.7 271.3 12.4 C 271.8 13 272.5 13.3 273.3 13.3 C 274 13.3 274.7 13 275.2 12.4 C 275.7 11.8 276 10.8 276 9.5 C 276 8.1 275.7 7.1 275.2 6.4 C 274.6 5.7 274 5.4 273.2 5.4 C 272.4 5.4 271.7 5.7 271.2 6.4 C 270.7 7 270.4 8 270.4 9.4 Z M 285.2 11.5 C 285.2 11.5 287 11.2 287 11.2 C 287.1 11.9 287.3 12.4 287.8 12.8 C 288.2 13.2 288.9 13.3 289.7 13.3 C 290.5 13.3 291.1 13.2 291.5 12.9 C 291.8 12.5 292 12.1 292 11.7 C 292 11.3 291.9 11 291.5 10.8 C 291.3 10.6 290.7 10.4 289.7 10.2 C 288.4 9.8 287.5 9.6 287 9.3 C 286.5 9.1 286.2 8.8 285.9 8.3 C 285.7 7.9 285.5 7.5 285.5 6.9 C 285.5 6.5 285.6 6.1 285.8 5.7 C 286.1 5.3 286.3 4.9 286.7 4.7 C 287 4.5 287.4 4.3 287.8 4.2 C 288.3 4 288.8 4 289.3 4 C 290.2 4 290.9 4.1 291.5 4.3 C 292.1 4.5 292.6 4.9 292.9 5.3 C 293.1 5.7 293.3 6.2 293.5 6.9 C 293.5 6.9 291.7 7.1 291.7 7.1 C 291.7 6.6 291.4 6.1 291.1 5.8 C 290.7 5.6 290.2 5.4 289.5 5.4 C 288.7 5.4 288.1 5.5 287.7 5.8 C 287.4 6.1 287.2 6.4 287.2 6.7 C 287.2 7 287.3 7.2 287.4 7.4 C 287.6 7.5 287.8 7.7 288.1 7.8 C 288.3 7.9 288.8 8 289.7 8.3 C 290.9 8.6 291.8 8.9 292.3 9.1 C 292.8 9.3 293.1 9.6 293.4 10 C 293.7 10.4 293.8 10.9 293.8 11.5 C 293.8 12.1 293.7 12.7 293.3 13.2 C 293 13.7 292.5 14.1 291.9 14.4 C 291.2 14.7 290.5 14.8 289.7 14.8 C 288.3 14.8 287.3 14.5 286.6 14 C 285.9 13.4 285.4 12.6 285.2 11.5 Z M 302.7 14.6 C 302.7 14.6 302.73 13.04 302.7 13 C 301.9 14.2 300.8 14.8 299.4 14.8 C 298.8 14.8 298.3 14.7 297.7 14.4 C 297.2 14.2 296.8 13.9 296.5 13.6 C 296.3 13.2 296.1 12.8 296 12.3 C 295.9 11.9 295.9 11.4 295.9 10.6 C 295.9 10.62 295.9 4.2 295.9 4.2 L 297.7 4.2 C 297.7 4.2 297.66 9.94 297.7 9.9 C 297.7 10.9 297.7 11.5 297.8 11.8 C 297.9 12.3 298.1 12.6 298.5 12.9 C 298.8 13.1 299.3 13.3 299.8 13.3 C 300.3 13.3 300.8 13.1 301.3 12.9 C 301.7 12.6 302.1 12.2 302.3 11.8 C 302.5 11.3 302.5 10.6 302.5 9.7 C 302.55 9.75 302.5 4.2 302.5 4.2 L 304.3 4.2 L 304.3 14.6 L 302.7 14.6 Z M 306.4 11.5 C 306.4 11.5 308.1 11.2 308.1 11.2 C 308.2 11.9 308.5 12.4 308.9 12.8 C 309.4 13.2 310 13.3 310.8 13.3 C 311.6 13.3 312.2 13.2 312.6 12.9 C 313 12.5 313.2 12.1 313.2 11.7 C 313.2 11.3 313 11 312.6 10.8 C 312.4 10.6 311.8 10.4 310.8 10.2 C 309.6 9.8 308.7 9.6 308.2 9.3 C 307.7 9.1 307.3 8.8 307 8.3 C 306.8 7.9 306.7 7.5 306.7 6.9 C 306.7 6.5 306.8 6.1 307 5.7 C 307.2 5.3 307.5 4.9 307.8 4.7 C 308.1 4.5 308.5 4.3 309 4.2 C 309.4 4 309.9 4 310.5 4 C 311.3 4 312 4.1 312.6 4.3 C 313.2 4.5 313.7 4.9 314 5.3 C 314.3 5.7 314.5 6.2 314.6 6.9 C 314.6 6.9 312.9 7.1 312.9 7.1 C 312.8 6.6 312.6 6.1 312.2 5.8 C 311.8 5.6 311.3 5.4 310.6 5.4 C 309.8 5.4 309.2 5.5 308.9 5.8 C 308.5 6.1 308.3 6.4 308.3 6.7 C 308.3 7 308.4 7.2 308.6 7.4 C 308.7 7.5 308.9 7.7 309.2 7.8 C 309.4 7.9 309.9 8 310.8 8.3 C 312 8.6 312.9 8.9 313.4 9.1 C 313.9 9.3 314.3 9.6 314.6 10 C 314.8 10.4 315 10.9 315 11.5 C 315 12.1 314.8 12.7 314.5 13.2 C 314.1 13.7 313.6 14.1 313 14.4 C 312.3 14.7 311.6 14.8 310.8 14.8 C 309.4 14.8 308.4 14.5 307.7 14 C 307 13.4 306.6 12.6 306.4 11.5 Z M 320.1 13.1 C 320.3 13.1 320.6 13 320.9 13 C 320.9 13 321.2 14.5 321.2 14.5 C 320.7 14.6 320.2 14.7 319.8 14.7 C 319.2 14.7 318.7 14.6 318.3 14.4 C 318 14.2 317.7 13.9 317.6 13.6 C 317.5 13.3 317.4 12.6 317.4 11.5 C 317.38 11.52 317.4 5.6 317.4 5.6 L 316.1 5.6 L 316.1 4.2 L 317.4 4.2 L 317.4 1.6 L 319.1 0.6 L 319.1 4.2 L 320.9 4.2 L 320.9 5.6 L 319.1 5.6 C 319.1 5.6 319.13 11.62 319.1 11.6 C 319.1 12.1 319.2 12.4 319.2 12.6 C 319.3 12.7 319.4 12.8 319.5 12.9 C 319.7 13 319.9 13.1 320.1 13.1 C 320.1 13.1 320.1 13.1 320.1 13.1 Z M 329.7 14.6 C 329.6 14.2 329.4 13.8 329.4 13.3 C 328.7 13.8 328.1 14.2 327.5 14.5 C 326.9 14.7 326.3 14.8 325.6 14.8 C 324.4 14.8 323.6 14.5 322.9 14 C 322.3 13.4 322 12.7 322 11.8 C 322 11.3 322.1 10.9 322.4 10.4 C 322.6 10 322.9 9.7 323.3 9.4 C 323.7 9.2 324.1 9 324.5 8.8 C 324.9 8.8 325.4 8.7 326.1 8.6 C 327.5 8.4 328.6 8.2 329.2 8 C 329.2 7.7 329.2 7.6 329.2 7.5 C 329.2 6.8 329.1 6.3 328.8 6 C 328.3 5.6 327.6 5.4 326.7 5.4 C 325.9 5.4 325.3 5.6 324.9 5.8 C 324.5 6.1 324.2 6.6 324 7.4 C 324 7.4 322.3 7.1 322.3 7.1 C 322.5 6.4 322.7 5.8 323.1 5.4 C 323.5 4.9 324 4.6 324.6 4.3 C 325.3 4.1 326.1 4 327 4 C 327.9 4 328.6 4.1 329.2 4.3 C 329.7 4.5 330.1 4.7 330.4 5.1 C 330.6 5.4 330.8 5.8 330.9 6.3 C 331 6.5 331 7.1 331 7.9 C 331 7.9 331 10.2 331 10.2 C 331 11.8 331.1 12.9 331.1 13.3 C 331.2 13.7 331.4 14.2 331.6 14.6 C 331.57 14.56 329.7 14.6 329.7 14.6 C 329.7 14.6 329.74 14.56 329.7 14.6 Z M 329.2 9.4 C 328.6 9.6 327.6 9.8 326.4 10 C 325.6 10.1 325.1 10.2 324.8 10.4 C 324.5 10.5 324.3 10.7 324.1 10.9 C 324 11.2 323.9 11.5 323.9 11.8 C 323.9 12.2 324.1 12.6 324.4 12.9 C 324.8 13.3 325.3 13.4 326 13.4 C 326.7 13.4 327.3 13.3 327.8 13 C 328.3 12.7 328.7 12.3 329 11.8 C 329.1 11.4 329.2 10.8 329.2 10 C 329.2 10 329.2 9.4 329.2 9.4 Z M 333.8 2.3 L 333.8 0.2 L 335.5 0.2 L 335.5 2.3 L 333.8 2.3 Z M 333.8 14.6 L 333.8 4.2 L 335.5 4.2 L 335.5 14.6 L 333.8 14.6 Z M 338.2 14.6 L 338.2 4.2 L 339.8 4.2 C 339.8 4.2 339.77 5.66 339.8 5.7 C 340.5 4.5 341.6 4 343.1 4 C 343.7 4 344.3 4.1 344.8 4.3 C 345.3 4.5 345.7 4.8 346 5.2 C 346.2 5.5 346.4 6 346.5 6.5 C 346.6 6.8 346.6 7.4 346.6 8.2 C 346.61 8.18 346.6 14.6 346.6 14.6 L 344.9 14.6 C 344.9 14.6 344.85 8.25 344.9 8.3 C 344.9 7.5 344.8 7 344.6 6.6 C 344.5 6.3 344.3 6 343.9 5.8 C 343.6 5.6 343.2 5.5 342.7 5.5 C 341.9 5.5 341.3 5.7 340.8 6.2 C 340.2 6.7 339.9 7.6 339.9 8.9 C 339.94 8.9 339.9 14.6 339.9 14.6 L 338.2 14.6 Z M 356.4 14.6 C 356.2 14.2 356.1 13.8 356.1 13.3 C 355.4 13.8 354.8 14.2 354.2 14.5 C 353.6 14.7 352.9 14.8 352.3 14.8 C 351.1 14.8 350.2 14.5 349.6 14 C 349 13.4 348.7 12.7 348.7 11.8 C 348.7 11.3 348.8 10.9 349.1 10.4 C 349.3 10 349.6 9.7 350 9.4 C 350.3 9.2 350.8 9 351.2 8.8 C 351.6 8.8 352.1 8.7 352.8 8.6 C 354.2 8.4 355.3 8.2 355.9 8 C 355.9 7.7 355.9 7.6 355.9 7.5 C 355.9 6.8 355.8 6.3 355.4 6 C 355 5.6 354.3 5.4 353.4 5.4 C 352.6 5.4 352 5.6 351.6 5.8 C 351.2 6.1 350.9 6.6 350.7 7.4 C 350.7 7.4 349 7.1 349 7.1 C 349.2 6.4 349.4 5.8 349.8 5.4 C 350.1 4.9 350.7 4.6 351.3 4.3 C 352 4.1 352.8 4 353.7 4 C 354.6 4 355.3 4.1 355.8 4.3 C 356.4 4.5 356.8 4.7 357.1 5.1 C 357.3 5.4 357.5 5.8 357.6 6.3 C 357.7 6.5 357.7 7.1 357.7 7.9 C 357.7 7.9 357.7 10.2 357.7 10.2 C 357.7 11.8 357.7 12.9 357.8 13.3 C 357.9 13.7 358 14.2 358.3 14.6 C 358.26 14.56 356.4 14.6 356.4 14.6 C 356.4 14.6 356.43 14.56 356.4 14.6 Z M 355.9 9.4 C 355.3 9.6 354.3 9.8 353.1 10 C 352.3 10.1 351.8 10.2 351.5 10.4 C 351.2 10.5 351 10.7 350.8 10.9 C 350.7 11.2 350.6 11.5 350.6 11.8 C 350.6 12.2 350.8 12.6 351.1 12.9 C 351.5 13.3 352 13.4 352.7 13.4 C 353.4 13.4 354 13.3 354.5 13 C 355 12.7 355.4 12.3 355.6 11.8 C 355.8 11.4 355.9 10.8 355.9 10 C 355.9 10 355.9 9.4 355.9 9.4 Z M 362.1 14.6 L 360.4 14.6 L 360.4 0.2 L 362.2 0.2 C 362.2 0.2 362.18 5.35 362.2 5.4 C 362.9 4.4 363.9 4 365 4 C 365.7 4 366.3 4.1 366.8 4.3 C 367.4 4.6 367.9 5 368.2 5.4 C 368.6 5.9 368.9 6.5 369.1 7.1 C 369.3 7.8 369.4 8.5 369.4 9.2 C 369.4 11 369 12.4 368.1 13.3 C 367.2 14.3 366.2 14.8 364.9 14.8 C 363.7 14.8 362.7 14.3 362.1 13.3 C 362.05 13.26 362.1 14.6 362.1 14.6 Z M 362 9.3 C 362 10.5 362.2 11.4 362.5 12 C 363.1 12.9 363.8 13.3 364.8 13.3 C 365.6 13.3 366.2 13 366.8 12.3 C 367.3 11.7 367.6 10.7 367.6 9.4 C 367.6 8 367.3 7 366.8 6.4 C 366.3 5.7 365.6 5.4 364.9 5.4 C 364.1 5.4 363.4 5.7 362.9 6.4 C 362.3 7.1 362 8 362 9.3 Z M 371.6 2.3 L 371.6 0.2 L 373.3 0.2 L 373.3 2.3 L 371.6 2.3 Z M 371.6 14.6 L 371.6 4.2 L 373.3 4.2 L 373.3 14.6 L 371.6 14.6 Z M 376 14.6 L 376 0.2 L 377.7 0.2 L 377.7 14.6 L 376 14.6 Z M 380.4 2.3 L 380.4 0.2 L 382.2 0.2 L 382.2 2.3 L 380.4 2.3 Z M 380.4 14.6 L 380.4 4.2 L 382.2 4.2 L 382.2 14.6 L 380.4 14.6 Z M 387.9 13.1 C 388.1 13.1 388.4 13 388.7 13 C 388.7 13 389 14.5 389 14.5 C 388.5 14.6 388 14.7 387.6 14.7 C 387 14.7 386.5 14.6 386.2 14.4 C 385.8 14.2 385.6 13.9 385.4 13.6 C 385.3 13.3 385.2 12.6 385.2 11.5 C 385.21 11.52 385.2 5.6 385.2 5.6 L 383.9 5.6 L 383.9 4.2 L 385.2 4.2 L 385.2 1.6 L 387 0.6 L 387 4.2 L 388.7 4.2 L 388.7 5.6 L 387 5.6 C 387 5.6 386.95 11.62 387 11.6 C 387 12.1 387 12.4 387 12.6 C 387.1 12.7 387.2 12.8 387.3 12.9 C 387.5 13 387.7 13.1 387.9 13.1 C 387.9 13.1 387.9 13.1 387.9 13.1 Z M 391.5 18.8 C 391.2 18.8 390.8 18.7 390.4 18.6 C 390.4 18.6 390.2 16.9 390.2 16.9 C 390.6 17 390.9 17.1 391.2 17.1 C 391.6 17.1 391.9 17 392.1 16.9 C 392.3 16.7 392.5 16.6 392.7 16.3 C 392.8 16.1 393 15.7 393.2 15 C 393.3 14.9 393.3 14.8 393.4 14.6 C 393.38 14.58 389.4 4.2 389.4 4.2 L 391.3 4.2 C 391.3 4.2 393.5 10.2 393.5 10.2 C 393.8 11 394 11.8 394.2 12.6 C 394.4 11.8 394.7 11 395 10.2 C 394.97 10.23 397.2 4.2 397.2 4.2 L 398.9 4.2 C 398.9 4.2 395 14.74 395 14.7 C 394.6 15.9 394.2 16.7 394 17.1 C 393.7 17.7 393.3 18.1 392.9 18.4 C 392.5 18.6 392.1 18.8 391.5 18.8 C 391.5 18.8 391.5 18.8 391.5 18.8 Z M 399.8 10.3 L 399.8 8.5 L 405.2 8.5 L 405.2 10.3 L 399.8 10.3 Z M 407.1 14.6 L 407.1 0.2 L 408.8 0.2 L 408.8 14.6 L 407.1 14.6 Z M 411.6 2.3 L 411.6 0.2 L 413.3 0.2 L 413.3 2.3 L 411.6 2.3 Z M 411.6 14.6 L 411.6 4.2 L 413.3 4.2 L 413.3 14.6 L 411.6 14.6 Z M 416 14.6 L 416 4.2 L 417.6 4.2 C 417.6 4.2 417.57 5.66 417.6 5.7 C 418.3 4.5 419.4 4 420.9 4 C 421.5 4 422.1 4.1 422.6 4.3 C 423.1 4.5 423.5 4.8 423.8 5.2 C 424 5.5 424.2 6 424.3 6.5 C 424.4 6.8 424.4 7.4 424.4 8.2 C 424.41 8.18 424.4 14.6 424.4 14.6 L 422.7 14.6 C 422.7 14.6 422.66 8.25 422.7 8.3 C 422.7 7.5 422.6 7 422.5 6.6 C 422.3 6.3 422.1 6 421.7 5.8 C 421.4 5.6 421 5.5 420.5 5.5 C 419.7 5.5 419.1 5.7 418.6 6.2 C 418 6.7 417.7 7.6 417.7 8.9 C 417.74 8.9 417.7 14.6 417.7 14.6 L 416 14.6 Z M 427.1 14.6 L 427.1 0.2 L 428.9 0.2 L 428.9 8.4 L 433 4.2 L 435.3 4.2 L 431.3 8 L 435.7 14.6 L 433.5 14.6 L 430.1 9.3 L 428.9 10.4 L 428.9 14.6 L 427.1 14.6 Z M 444.2 11.2 C 444.2 11.2 446 11.4 446 11.4 C 445.7 12.5 445.2 13.3 444.4 13.9 C 443.7 14.5 442.7 14.8 441.5 14.8 C 439.9 14.8 438.7 14.3 437.9 13.4 C 437 12.5 436.5 11.1 436.5 9.5 C 436.5 7.7 437 6.4 437.9 5.4 C 438.8 4.4 439.9 4 441.4 4 C 442.8 4 443.9 4.4 444.8 5.4 C 445.6 6.3 446.1 7.6 446.1 9.4 C 446.1 9.5 446.1 9.6 446.1 9.8 C 446.1 9.8 438.3 9.8 438.3 9.8 C 438.4 11 438.7 11.8 439.3 12.4 C 439.9 13 440.6 13.3 441.5 13.3 C 442.1 13.3 442.7 13.2 443.1 12.8 C 443.6 12.5 443.9 12 444.2 11.2 Z M 438.4 8.4 C 438.4 8.4 444.2 8.4 444.2 8.4 C 444.2 7.5 443.9 6.9 443.6 6.4 C 443 5.7 442.3 5.4 441.4 5.4 C 440.6 5.4 439.9 5.7 439.4 6.2 C 438.8 6.8 438.5 7.5 438.4 8.4 Z M 455 14.6 C 455 14.6 454.96 13.25 455 13.3 C 454.3 14.3 453.3 14.8 452.1 14.8 C 451.2 14.8 450.5 14.6 449.8 14.1 C 449.1 13.7 448.5 13 448.2 12.2 C 447.8 11.4 447.6 10.4 447.6 9.4 C 447.6 8.3 447.8 7.4 448.1 6.6 C 448.5 5.7 449 5.1 449.7 4.6 C 450.4 4.2 451.1 4 452 4 C 452.6 4 453.2 4.1 453.7 4.4 C 454.1 4.6 454.5 5 454.8 5.4 C 454.84 5.38 454.8 0.2 454.8 0.2 L 456.6 0.2 L 456.6 14.6 L 455 14.6 Z M 449.4 9.4 C 449.4 10.7 449.7 11.7 450.2 12.4 C 450.8 13 451.5 13.3 452.2 13.3 C 453 13.3 453.6 13 454.2 12.4 C 454.7 11.8 455 10.8 455 9.5 C 455 8.1 454.7 7.1 454.2 6.4 C 453.6 5.7 452.9 5.4 452.1 5.4 C 451.4 5.4 450.7 5.7 450.2 6.4 C 449.7 7 449.4 8 449.4 9.4 Z M 466.5 14.6 L 464.9 14.6 L 464.9 0.2 L 466.7 0.2 C 466.7 0.2 466.66 5.35 466.7 5.4 C 467.4 4.4 468.3 4 469.5 4 C 470.1 4 470.7 4.1 471.3 4.3 C 471.9 4.6 472.4 5 472.7 5.4 C 473.1 5.9 473.4 6.5 473.6 7.1 C 473.8 7.8 473.9 8.5 473.9 9.2 C 473.9 11 473.5 12.4 472.6 13.3 C 471.7 14.3 470.6 14.8 469.4 14.8 C 468.2 14.8 467.2 14.3 466.5 13.3 C 466.53 13.26 466.5 14.6 466.5 14.6 Z M 466.5 9.3 C 466.5 10.5 466.7 11.4 467 12 C 467.6 12.9 468.3 13.3 469.3 13.3 C 470 13.3 470.7 13 471.3 12.3 C 471.8 11.7 472.1 10.7 472.1 9.4 C 472.1 8 471.8 7 471.3 6.4 C 470.8 5.7 470.1 5.4 469.3 5.4 C 468.6 5.4 467.9 5.7 467.4 6.4 C 466.8 7.1 466.5 8 466.5 9.3 Z M 475.4 9.4 C 475.4 7.5 475.9 6 477 5.1 C 477.9 4.3 479 4 480.2 4 C 481.7 4 482.8 4.4 483.7 5.4 C 484.6 6.3 485.1 7.6 485.1 9.2 C 485.1 10.6 484.9 11.6 484.5 12.4 C 484.1 13.1 483.5 13.7 482.7 14.2 C 482 14.6 481.1 14.8 480.2 14.8 C 478.8 14.8 477.6 14.3 476.7 13.4 C 475.8 12.5 475.4 11.1 475.4 9.4 Z M 477.2 9.4 C 477.2 10.7 477.5 11.7 478.1 12.4 C 478.6 13 479.4 13.3 480.2 13.3 C 481.1 13.3 481.8 13 482.4 12.4 C 483 11.7 483.3 10.7 483.3 9.3 C 483.3 8 483 7.1 482.4 6.4 C 481.8 5.7 481.1 5.4 480.2 5.4 C 479.4 5.4 478.6 5.7 478.1 6.4 C 477.5 7.1 477.2 8 477.2 9.4 Z M 487.2 14.6 L 487.2 4.2 L 488.7 4.2 C 488.7 4.2 488.74 5.66 488.7 5.7 C 489.5 4.5 490.6 4 492 4 C 492.7 4 493.2 4.1 493.8 4.3 C 494.3 4.5 494.7 4.8 494.9 5.2 C 495.2 5.5 495.4 6 495.5 6.5 C 495.6 6.8 495.6 7.4 495.6 8.2 C 495.59 8.18 495.6 14.6 495.6 14.6 L 493.8 14.6 C 493.8 14.6 493.83 8.25 493.8 8.3 C 493.8 7.5 493.8 7 493.6 6.6 C 493.5 6.3 493.2 6 492.9 5.8 C 492.5 5.6 492.1 5.5 491.7 5.5 C 490.9 5.5 490.3 5.7 489.7 6.2 C 489.2 6.7 488.9 7.6 488.9 8.9 C 488.92 8.9 488.9 14.6 488.9 14.6 L 487.2 14.6 Z M 505 14.6 C 505 14.6 505.01 13.25 505 13.3 C 504.4 14.3 503.4 14.8 502.1 14.8 C 501.3 14.8 500.5 14.6 499.8 14.1 C 499.1 13.7 498.6 13 498.2 12.2 C 497.8 11.4 497.6 10.4 497.6 9.4 C 497.6 8.3 497.8 7.4 498.2 6.6 C 498.5 5.7 499 5.1 499.7 4.6 C 500.4 4.2 501.2 4 502 4 C 502.7 4 503.2 4.1 503.7 4.4 C 504.2 4.6 504.6 5 504.9 5.4 C 504.89 5.38 504.9 0.2 504.9 0.2 L 506.6 0.2 L 506.6 14.6 L 505 14.6 Z M 499.5 9.4 C 499.5 10.7 499.7 11.7 500.3 12.4 C 500.9 13 501.5 13.3 502.3 13.3 C 503 13.3 503.7 13 504.2 12.4 C 504.8 11.8 505 10.8 505 9.5 C 505 8.1 504.8 7.1 504.2 6.4 C 503.7 5.7 503 5.4 502.2 5.4 C 501.4 5.4 500.8 5.7 500.2 6.4 C 499.7 7 499.5 8 499.5 9.4 Z M 508.7 11.5 C 508.7 11.5 510.4 11.2 510.4 11.2 C 510.5 11.9 510.8 12.4 511.3 12.8 C 511.7 13.2 512.3 13.3 513.1 13.3 C 513.9 13.3 514.5 13.2 514.9 12.9 C 515.3 12.5 515.5 12.1 515.5 11.7 C 515.5 11.3 515.3 11 515 10.8 C 514.7 10.6 514.2 10.4 513.2 10.2 C 511.9 9.8 511 9.6 510.5 9.3 C 510 9.1 509.6 8.8 509.4 8.3 C 509.1 7.9 509 7.5 509 6.9 C 509 6.5 509.1 6.1 509.3 5.7 C 509.5 5.3 509.8 4.9 510.2 4.7 C 510.4 4.5 510.8 4.3 511.3 4.2 C 511.8 4 512.3 4 512.8 4 C 513.6 4 514.3 4.1 515 4.3 C 515.6 4.5 516 4.9 516.3 5.3 C 516.6 5.7 516.8 6.2 516.9 6.9 C 516.9 6.9 515.2 7.1 515.2 7.1 C 515.1 6.6 514.9 6.1 514.5 5.8 C 514.2 5.6 513.6 5.4 512.9 5.4 C 512.1 5.4 511.6 5.5 511.2 5.8 C 510.9 6.1 510.7 6.4 510.7 6.7 C 510.7 7 510.8 7.2 510.9 7.4 C 511.1 7.5 511.3 7.7 511.6 7.8 C 511.8 7.9 512.3 8 513.1 8.3 C 514.4 8.6 515.2 8.9 515.7 9.1 C 516.2 9.3 516.6 9.6 516.9 10 C 517.2 10.4 517.3 10.9 517.3 11.5 C 517.3 12.1 517.1 12.7 516.8 13.2 C 516.5 13.7 516 14.1 515.3 14.4 C 514.7 14.7 513.9 14.8 513.1 14.8 C 511.8 14.8 510.8 14.5 510.1 14 C 509.3 13.4 508.9 12.6 508.7 11.5 Z M 524.3 9.4 C 524.3 7.5 524.8 6 525.9 5.1 C 526.8 4.3 527.9 4 529.2 4 C 530.6 4 531.8 4.4 532.7 5.4 C 533.6 6.3 534 7.6 534 9.2 C 534 10.6 533.8 11.6 533.4 12.4 C 533 13.1 532.4 13.7 531.7 14.2 C 530.9 14.6 530.1 14.8 529.2 14.8 C 527.7 14.8 526.5 14.3 525.6 13.4 C 524.8 12.5 524.3 11.1 524.3 9.4 Z M 526.1 9.4 C 526.1 10.7 526.4 11.7 527 12.4 C 527.6 13 528.3 13.3 529.2 13.3 C 530 13.3 530.8 13 531.3 12.4 C 531.9 11.7 532.2 10.7 532.2 9.3 C 532.2 8 531.9 7.1 531.3 6.4 C 530.8 5.7 530 5.4 529.2 5.4 C 528.3 5.4 527.6 5.7 527 6.4 C 526.4 7.1 526.1 8 526.1 9.4 Z M 542.9 14.6 C 542.9 14.6 542.88 13.04 542.9 13 C 542.1 14.2 541 14.8 539.6 14.8 C 539 14.8 538.4 14.7 537.9 14.4 C 537.3 14.2 537 13.9 536.7 13.6 C 536.4 13.2 536.3 12.8 536.2 12.3 C 536.1 11.9 536 11.4 536 10.6 C 536.04 10.62 536 4.2 536 4.2 L 537.8 4.2 C 537.8 4.2 537.8 9.94 537.8 9.9 C 537.8 10.9 537.8 11.5 537.9 11.8 C 538 12.3 538.3 12.6 538.6 12.9 C 539 13.1 539.4 13.3 539.9 13.3 C 540.5 13.3 541 13.1 541.4 12.9 C 541.9 12.6 542.2 12.2 542.4 11.8 C 542.6 11.3 542.7 10.6 542.7 9.7 C 542.7 9.75 542.7 4.2 542.7 4.2 L 544.5 4.2 L 544.5 14.6 L 542.9 14.6 Z M 550.3 13.1 C 550.5 13.1 550.7 13 551 13 C 551 13 551.3 14.5 551.3 14.5 C 550.8 14.6 550.4 14.7 550 14.7 C 549.3 14.7 548.8 14.6 548.5 14.4 C 548.1 14.2 547.9 13.9 547.7 13.6 C 547.6 13.3 547.5 12.6 547.5 11.5 C 547.53 11.52 547.5 5.6 547.5 5.6 L 546.2 5.6 L 546.2 4.2 L 547.5 4.2 L 547.5 1.6 L 549.3 0.6 L 549.3 4.2 L 551 4.2 L 551 5.6 L 549.3 5.6 C 549.3 5.6 549.28 11.62 549.3 11.6 C 549.3 12.1 549.3 12.4 549.4 12.6 C 549.4 12.7 549.5 12.8 549.7 12.9 C 549.8 13 550 13.1 550.3 13.1 C 550.3 13.1 550.3 13.1 550.3 13.1 Z M 557.7 9.4 C 557.7 7.5 558.2 6 559.3 5.1 C 560.2 4.3 561.2 4 562.5 4 C 564 4 565.1 4.4 566 5.4 C 566.9 6.3 567.4 7.6 567.4 9.2 C 567.4 10.6 567.2 11.6 566.8 12.4 C 566.4 13.1 565.8 13.7 565 14.2 C 564.3 14.6 563.4 14.8 562.5 14.8 C 561.1 14.8 559.9 14.3 559 13.4 C 558.1 12.5 557.7 11.1 557.7 9.4 Z M 559.5 9.4 C 559.5 10.7 559.8 11.7 560.3 12.4 C 560.9 13 561.7 13.3 562.5 13.3 C 563.4 13.3 564.1 13 564.7 12.4 C 565.3 11.7 565.6 10.7 565.6 9.3 C 565.6 8 565.3 7.1 564.7 6.4 C 564.1 5.7 563.4 5.4 562.5 5.4 C 561.7 5.4 560.9 5.7 560.3 6.4 C 559.8 7.1 559.5 8 559.5 9.4 Z M 569.9 14.6 L 569.9 5.6 L 568.3 5.6 L 568.3 4.2 L 569.9 4.2 C 569.9 4.2 569.86 3.09 569.9 3.1 C 569.9 2.4 569.9 1.9 570 1.5 C 570.2 1.1 570.5 0.7 570.9 0.4 C 571.4 0.1 572 0 572.7 0 C 573.2 0 573.8 0.1 574.4 0.2 C 574.4 0.2 574.1 1.7 574.1 1.7 C 573.7 1.6 573.4 1.6 573.1 1.6 C 572.5 1.6 572.2 1.7 571.9 2 C 571.7 2.2 571.6 2.6 571.6 3.2 C 571.61 3.23 571.6 4.2 571.6 4.2 L 573.6 4.2 L 573.6 5.6 L 571.6 5.6 L 571.6 14.6 L 569.9 14.6 Z M 580.8 14.6 L 580.8 0.2 L 582.7 0.2 L 590.2 11.5 L 590.2 0.2 L 592 0.2 L 592 14.6 L 590.1 14.6 L 582.6 3.3 L 582.6 14.6 L 580.8 14.6 Z M 594.3 9.4 C 594.3 7.5 594.9 6 595.9 5.1 C 596.8 4.3 597.9 4 599.2 4 C 600.6 4 601.8 4.4 602.7 5.4 C 603.6 6.3 604.1 7.6 604.1 9.2 C 604.1 10.6 603.9 11.6 603.5 12.4 C 603.1 13.1 602.5 13.7 601.7 14.2 C 600.9 14.6 600.1 14.8 599.2 14.8 C 597.8 14.8 596.6 14.3 595.7 13.4 C 594.8 12.5 594.3 11.1 594.3 9.4 Z M 596.2 9.4 C 596.2 10.7 596.4 11.7 597 12.4 C 597.6 13 598.3 13.3 599.2 13.3 C 600.1 13.3 600.8 13 601.4 12.4 C 602 11.7 602.3 10.7 602.3 9.3 C 602.3 8 602 7.1 601.4 6.4 C 600.8 5.7 600.1 5.4 599.2 5.4 C 598.3 5.4 597.6 5.7 597 6.4 C 596.4 7.1 596.2 8 596.2 9.4 Z M 606.1 14.6 L 606.1 4.2 L 607.7 4.2 C 607.7 4.2 607.69 5.76 607.7 5.8 C 608.1 5 608.5 4.5 608.8 4.3 C 609.1 4.1 609.5 4 609.9 4 C 610.5 4 611.1 4.1 611.7 4.5 C 611.7 4.5 611.1 6.2 611.1 6.2 C 610.7 5.9 610.3 5.8 609.8 5.8 C 609.5 5.8 609.1 5.9 608.8 6.1 C 608.5 6.3 608.3 6.7 608.2 7.1 C 608 7.7 607.9 8.4 607.9 9.1 C 607.86 9.13 607.9 14.6 607.9 14.6 L 606.1 14.6 Z M 615.8 13.1 C 616 13.1 616.3 13 616.6 13 C 616.6 13 616.9 14.5 616.9 14.5 C 616.4 14.6 615.9 14.7 615.5 14.7 C 614.9 14.7 614.4 14.6 614.1 14.4 C 613.7 14.2 613.5 13.9 613.3 13.6 C 613.2 13.3 613.1 12.6 613.1 11.5 C 613.11 11.52 613.1 5.6 613.1 5.6 L 611.8 5.6 L 611.8 4.2 L 613.1 4.2 L 613.1 1.6 L 614.9 0.6 L 614.9 4.2 L 616.6 4.2 L 616.6 5.6 L 614.9 5.6 C 614.9 5.6 614.85 11.62 614.9 11.6 C 614.9 12.1 614.9 12.4 614.9 12.6 C 615 12.7 615.1 12.8 615.2 12.9 C 615.4 13 615.6 13.1 615.8 13.1 C 615.8 13.1 615.8 13.1 615.8 13.1 Z M 618.3 14.6 L 618.3 0.2 L 620.1 0.2 C 620.1 0.2 620.1 5.38 620.1 5.4 C 620.9 4.4 622 4 623.2 4 C 624 4 624.6 4.1 625.2 4.4 C 625.8 4.7 626.2 5.1 626.4 5.7 C 626.7 6.2 626.8 7 626.8 8 C 626.79 7.99 626.8 14.6 626.8 14.6 L 625 14.6 C 625 14.6 625.03 7.99 625 8 C 625 7.1 624.8 6.5 624.5 6.1 C 624.1 5.7 623.5 5.5 622.8 5.5 C 622.3 5.5 621.8 5.6 621.4 5.9 C 620.9 6.1 620.6 6.5 620.4 7 C 620.2 7.4 620.1 8.1 620.1 8.9 C 620.1 8.89 620.1 14.6 620.1 14.6 L 618.3 14.6 Z M 632.6 14.6 L 638.1 0.2 L 640.1 0.2 L 646 14.6 L 643.8 14.6 L 642.1 10.2 L 636.2 10.2 L 634.6 14.6 L 632.6 14.6 Z M 636.7 8.7 L 641.6 8.7 C 641.6 8.7 640.06 4.72 640.1 4.7 C 639.6 3.5 639.3 2.5 639 1.7 C 638.9 2.7 638.6 3.6 638.3 4.5 C 638.27 4.48 636.7 8.7 636.7 8.7 Z M 647.3 14.6 L 647.3 4.2 L 648.8 4.2 C 648.8 4.2 648.83 5.64 648.8 5.6 C 649.2 5.1 649.6 4.7 650.1 4.4 C 650.7 4.1 651.3 4 652 4 C 652.7 4 653.4 4.1 653.9 4.4 C 654.4 4.8 654.7 5.2 654.9 5.8 C 655.7 4.6 656.8 4 658.1 4 C 659.1 4 659.9 4.2 660.5 4.8 C 661 5.4 661.3 6.3 661.3 7.4 C 661.31 7.44 661.3 14.6 661.3 14.6 L 659.6 14.6 C 659.6 14.6 659.56 8.03 659.6 8 C 659.6 7.3 659.5 6.8 659.4 6.5 C 659.3 6.2 659.1 6 658.8 5.8 C 658.5 5.6 658.1 5.5 657.7 5.5 C 657 5.5 656.4 5.7 655.9 6.2 C 655.4 6.7 655.2 7.5 655.2 8.5 C 655.18 8.54 655.2 14.6 655.2 14.6 L 653.4 14.6 C 653.4 14.6 653.42 7.82 653.4 7.8 C 653.4 7 653.3 6.5 653 6.1 C 652.7 5.7 652.2 5.5 651.6 5.5 C 651.1 5.5 650.6 5.6 650.2 5.9 C 649.8 6.1 649.5 6.5 649.3 7 C 649.1 7.5 649 8.2 649 9.2 C 649.01 9.18 649 14.6 649 14.6 L 647.3 14.6 Z M 671 11.2 C 671 11.2 672.8 11.4 672.8 11.4 C 672.5 12.5 672 13.3 671.2 13.9 C 670.5 14.5 669.5 14.8 668.3 14.8 C 666.8 14.8 665.6 14.3 664.7 13.4 C 663.8 12.5 663.3 11.1 663.3 9.5 C 663.3 7.7 663.8 6.4 664.7 5.4 C 665.6 4.4 666.7 4 668.2 4 C 669.6 4 670.7 4.4 671.6 5.4 C 672.5 6.3 672.9 7.6 672.9 9.4 C 672.9 9.5 672.9 9.6 672.9 9.8 C 672.9 9.8 665.1 9.8 665.1 9.8 C 665.2 11 665.5 11.8 666.1 12.4 C 666.7 13 667.4 13.3 668.3 13.3 C 668.9 13.3 669.5 13.2 669.9 12.8 C 670.4 12.5 670.7 12 671 11.2 Z M 665.2 8.4 C 665.2 8.4 671 8.4 671 8.4 C 671 7.5 670.7 6.9 670.4 6.4 C 669.8 5.7 669.1 5.4 668.2 5.4 C 667.4 5.4 666.7 5.7 666.2 6.2 C 665.6 6.8 665.3 7.5 665.2 8.4 Z M 675 14.6 L 675 4.2 L 676.6 4.2 C 676.6 4.2 676.6 5.76 676.6 5.8 C 677 5 677.4 4.5 677.7 4.3 C 678.1 4.1 678.4 4 678.8 4 C 679.4 4 680 4.1 680.7 4.5 C 680.7 4.5 680 6.2 680 6.2 C 679.6 5.9 679.2 5.8 678.8 5.8 C 678.4 5.8 678 5.9 677.7 6.1 C 677.4 6.3 677.2 6.7 677.1 7.1 C 676.9 7.7 676.8 8.4 676.8 9.1 C 676.78 9.13 676.8 14.6 676.8 14.6 L 675 14.6 Z M 681.7 2.3 L 681.7 0.2 L 683.5 0.2 L 683.5 2.3 L 681.7 2.3 Z M 681.7 14.6 L 681.7 4.2 L 683.5 4.2 L 683.5 14.6 L 681.7 14.6 Z M 692.9 10.8 C 692.9 10.8 694.6 11 694.6 11 C 694.4 12.2 694 13.1 693.2 13.8 C 692.4 14.5 691.5 14.8 690.3 14.8 C 688.9 14.8 687.8 14.3 686.9 13.4 C 686 12.5 685.6 11.1 685.6 9.4 C 685.6 8.3 685.8 7.3 686.2 6.5 C 686.5 5.6 687.1 5 687.9 4.6 C 688.6 4.2 689.4 4 690.3 4 C 691.5 4 692.4 4.2 693.1 4.8 C 693.8 5.4 694.3 6.2 694.5 7.2 C 694.5 7.2 692.8 7.5 692.8 7.5 C 692.6 6.8 692.3 6.3 691.9 5.9 C 691.5 5.6 691 5.4 690.4 5.4 C 689.5 5.4 688.8 5.7 688.2 6.4 C 687.7 7 687.4 8 687.4 9.4 C 687.4 10.8 687.7 11.8 688.2 12.4 C 688.7 13 689.4 13.3 690.3 13.3 C 691 13.3 691.6 13.1 692 12.7 C 692.5 12.3 692.8 11.6 692.9 10.8 Z M 703.3 14.6 C 703.1 14.2 703 13.8 702.9 13.3 C 702.3 13.8 701.6 14.2 701 14.5 C 700.4 14.7 699.8 14.8 699.1 14.8 C 698 14.8 697.1 14.5 696.5 14 C 695.9 13.4 695.5 12.7 695.5 11.8 C 695.5 11.3 695.7 10.9 695.9 10.4 C 696.1 10 696.4 9.7 696.8 9.4 C 697.2 9.2 697.6 9 698.1 8.8 C 698.4 8.8 698.9 8.7 699.6 8.6 C 701 8.4 702.1 8.2 702.8 8 C 702.8 7.7 702.8 7.6 702.8 7.5 C 702.8 6.8 702.6 6.3 702.3 6 C 701.8 5.6 701.2 5.4 700.3 5.4 C 699.4 5.4 698.8 5.6 698.4 5.8 C 698 6.1 697.8 6.6 697.6 7.4 C 697.6 7.4 695.8 7.1 695.8 7.1 C 696 6.4 696.3 5.8 696.6 5.4 C 697 4.9 697.5 4.6 698.2 4.3 C 698.9 4.1 699.6 4 700.5 4 C 701.4 4 702.1 4.1 702.7 4.3 C 703.2 4.5 703.6 4.7 703.9 5.1 C 704.2 5.4 704.3 5.8 704.5 6.3 C 704.5 6.5 704.5 7.1 704.5 7.9 C 704.5 7.9 704.5 10.2 704.5 10.2 C 704.5 11.8 704.6 12.9 704.7 13.3 C 704.7 13.7 704.9 14.2 705.1 14.6 C 705.1 14.56 703.3 14.6 703.3 14.6 C 703.3 14.6 703.26 14.56 703.3 14.6 Z M 702.8 9.4 C 702.1 9.6 701.2 9.8 699.9 10 C 699.2 10.1 698.7 10.2 698.4 10.4 C 698.1 10.5 697.8 10.7 697.7 10.9 C 697.5 11.2 697.4 11.5 697.4 11.8 C 697.4 12.2 697.6 12.6 698 12.9 C 698.3 13.3 698.8 13.4 699.5 13.4 C 700.2 13.4 700.8 13.3 701.3 13 C 701.8 12.7 702.2 12.3 702.5 11.8 C 702.7 11.4 702.8 10.8 702.8 10 C 702.8 10 702.8 9.4 702.8 9.4 Z M 707.8 14.6 L 707.8 12.6 L 709.8 12.6 L 709.8 14.6 L 707.8 14.6 Z " stroke="none" fill="#54626c"/>
  </g>
</svg>