<?xml version="1.0" standalone="no"?><!DOCTYPE svg PUBLIC "-//W3C//DTD SVG 1.1//EN" "http://www.w3.org/Graphics/SVG/1.1/DTD/svg11.dtd"><svg xmlns="http://www.w3.org/2000/svg" version="1.1" width="210px" height="41.8px" viewBox="0 -1 210 41.8" style="top:-1px"><desc>Sustainable Operations</desc><defs/><g id="Polygon62840"><path d="m30.5 19.8c0 0 1.9-.2 1.9-.2c.1.6.3 1.1.7 1.4c.3.3.8.4 1.4.4c.6 0 1.1-.1 1.4-.4c.3-.2.5-.5.5-.9c0-.2-.1-.4-.2-.6c-.1-.1-.4-.3-.7-.4c-.2-.1-.8-.2-1.6-.4c-1-.3-1.8-.6-2.2-1c-.6-.5-.9-1.2-.9-1.9c0-.5.2-1 .5-1.4c.2-.4.6-.8 1.2-1c.5-.2 1.1-.3 1.9-.3c1.2 0 2.1.3 2.7.8c.6.5.9 1.2 1 2.1c0 0-2 .1-2 .1c-.1-.5-.2-.9-.5-1.1c-.3-.2-.7-.3-1.3-.3c-.5 0-1 .1-1.3.4c-.2.1-.3.3-.3.6c0 .2.1.4.3.5c.2.2.8.5 1.8.7c.9.2 1.6.4 2.1.7c.4.2.8.5 1.1 1c.2.4.3.9.3 1.5c0 .6-.1 1.1-.4 1.6c-.3.4-.8.8-1.3 1c-.6.3-1.3.4-2.1.4c-1.2 0-2.2-.3-2.8-.9c-.7-.5-1.1-1.3-1.2-2.4zm14.1 3.1c0 0-.02-1.03 0-1c-.3.3-.6.6-1 .8c-.4.3-.9.4-1.3.4c-.5 0-.9-.1-1.3-.3c-.4-.2-.6-.5-.8-.9c-.2-.4-.3-.9-.3-1.6c.03.04 0-4.4 0-4.4l1.9 0c0 0-.01 3.23 0 3.2c0 1 0 1.6.1 1.8c.1.3.2.4.4.6c.1.1.4.2.6.2c.4 0 .6-.1.9-.3c.2-.2.4-.4.5-.6c.1-.3.1-.9.1-1.9c.05-.03 0-3 0-3l1.9 0l0 7l-1.7 0zm3-2c0 0 1.8-.3 1.8-.3c.1.4.3.7.5.9c.2.1.6.2 1 .2c.5 0 .9-.1 1.1-.2c.2-.2.2-.3.2-.5c0-.2 0-.3-.1-.4c-.1-.1-.3-.1-.6-.2c-1.5-.3-2.4-.6-2.8-.9c-.6-.4-.9-.9-.9-1.6c0-.6.3-1.1.7-1.5c.5-.4 1.3-.6 2.3-.6c.9 0 1.6.1 2.1.4c.5.3.8.8 1 1.4c0 0-1.8.3-1.8.3c-.1-.2-.2-.5-.4-.6c-.2-.1-.5-.2-.9-.2c-.5 0-.8.1-1 .2c-.2.1-.3.2-.3.4c0 .1.1.2.2.3c.2.1.8.3 1.8.5c.9.2 1.6.5 2 .8c.4.4.6.8.6 1.4c0 .7-.3 1.2-.8 1.7c-.5.4-1.3.7-2.4.7c-.9 0-1.7-.2-2.2-.6c-.6-.4-1-.9-1.1-1.6zm11.3-5l0 1.5l-1.2 0c0 0-.03 2.81 0 2.8c0 .6 0 .9 0 1c0 .1.1.2.2.2c.1.1.2.1.3.1c.2 0 .4 0 .7-.1c0 0 .2 1.4.2 1.4c-.4.2-.9.3-1.5.3c-.3 0-.6-.1-.9-.2c-.2-.1-.4-.3-.6-.4c-.1-.2-.2-.4-.2-.8c-.1-.2-.1-.6-.1-1.3c.01.04 0-3 0-3l-.8 0l0-1.5l.8 0l0-1.4l1.9-1.1l0 2.5l1.2 0zm2.7 2.1c0 0-1.7-.3-1.7-.3c.2-.6.5-1.1 1-1.5c.5-.3 1.1-.4 2.1-.4c.8 0 1.4.1 1.8.2c.4.2.7.5.9.8c.1.3.2.8.2 1.7c0 0 0 2.1 0 2.1c0 .6 0 1.1.1 1.4c0 .3.1.6.3.9c0 0-1.8 0-1.8 0c-.1-.1-.1-.3-.2-.5c0-.1-.1-.2-.1-.3c-.3.4-.6.6-1 .7c-.3.2-.7.3-1.1.3c-.8 0-1.3-.2-1.7-.6c-.5-.4-.7-.9-.7-1.5c0-.4.1-.7.3-1.1c.2-.3.5-.5.8-.7c.4-.1.8-.3 1.5-.4c.9-.2 1.5-.3 1.8-.5c0 0 0-.1 0-.1c0-.4-.1-.6-.3-.8c-.2-.2-.5-.2-1-.2c-.3 0-.6 0-.7.2c-.2.1-.4.3-.5.6zm2.5 1.6c-.3 0-.6.1-1.1.2c-.6.1-.9.3-1 .4c-.3.1-.4.3-.4.6c0 .3.1.5.3.7c.2.2.4.3.7.3c.4 0 .7-.1 1-.4c.2-.1.3-.3.4-.6c.1-.1.1-.4.1-.9c0 0 0-.3 0-.3zm3.6-4.6l0-1.7l1.9 0l0 1.7l-1.9 0zm0 7.9l0-7l1.9 0l0 7l-1.9 0zm10.1 0l-1.8 0c0 0 0-3.56 0-3.6c0-.7 0-1.2-.1-1.4c-.1-.2-.2-.4-.4-.5c-.2-.2-.4-.2-.6-.2c-.4 0-.7.1-.9.2c-.3.2-.4.4-.5.7c-.1.3-.2.9-.2 1.6c.02.04 0 3.2 0 3.2l-1.8 0l0-7l1.7 0c0 0-.01 1.04 0 1c.6-.7 1.4-1.1 2.3-1.1c.4 0 .8 0 1.1.2c.4.1.6.3.8.5c.2.3.3.5.3.8c.1.3.1.7.1 1.3c.05-.04 0 4.3 0 4.3zm3.3-4.9c0 0-1.7-.3-1.7-.3c.2-.6.5-1.1 1-1.5c.5-.3 1.2-.4 2.1-.4c.8 0 1.4.1 1.8.2c.4.2.7.5.9.8c.1.3.2.8.2 1.7c0 0 0 2.1 0 2.1c0 .6 0 1.1.1 1.4c0 .3.2.6.3.9c0 0-1.8 0-1.8 0c-.1-.1-.1-.3-.2-.5c0-.1-.1-.2-.1-.3c-.3.4-.6.6-1 .7c-.3.2-.7.3-1.1.3c-.8 0-1.3-.2-1.7-.6c-.5-.4-.7-.9-.7-1.5c0-.4.1-.7.3-1.1c.2-.3.5-.5.8-.7c.4-.1.9-.3 1.5-.4c.9-.2 1.5-.3 1.8-.5c0 0 0-.1 0-.1c0-.4-.1-.6-.3-.8c-.1-.2-.5-.2-1-.2c-.3 0-.6 0-.7.2c-.2.1-.4.3-.5.6zm2.5 1.6c-.2 0-.6.1-1.1.2c-.6.1-.9.3-1 .4c-.3.1-.4.3-.4.6c0 .3.1.5.3.7c.2.2.4.3.7.3c.4 0 .7-.1 1-.4c.2-.1.3-.3.4-.6c.1-.1.1-.4.1-.9c0 0 0-.3 0-.3zm3.6 3.3l0-9.6l1.8 0c0 0 .01 3.43 0 3.4c.6-.6 1.3-.9 2-.9c.9 0 1.6.3 2.2.9c.5.6.8 1.5.8 2.6c0 1.2-.3 2.2-.9 2.8c-.5.6-1.2 1-2 1c-.4 0-.8-.1-1.2-.3c-.4-.2-.7-.5-1-.9c-.02-.01 0 1 0 1l-1.7 0zm1.8-3.6c0 .7.1 1.2.3 1.6c.4.5.8.7 1.3.7c.4 0 .8-.2 1.1-.5c.3-.4.4-.9.4-1.7c0-.8-.2-1.3-.4-1.7c-.3-.4-.7-.5-1.2-.5c-.4 0-.8.1-1.1.5c-.3.3-.4.9-.4 1.6zm6.5 3.6l0-9.6l1.8 0l0 9.6l-1.8 0zm7.8-2.2c0 0 1.8.3 1.8.3c-.2.7-.6 1.2-1.1 1.5c-.5.4-1.1.6-1.9.6c-1.2 0-2.1-.4-2.7-1.2c-.5-.7-.7-1.5-.7-2.4c0-1.2.3-2.1.9-2.8c.6-.6 1.4-.9 2.3-.9c1 0 1.9.3 2.5 1c.6.7.9 1.7.8 3.1c0 0-4.6 0-4.6 0c0 .6.2 1 .4 1.3c.3.3.7.5 1.1.5c.3 0 .5-.1.7-.2c.2-.2.4-.5.5-.8zm.1-1.9c0-.5-.2-.9-.4-1.2c-.3-.3-.6-.4-1-.4c-.4 0-.7.1-1 .4c-.3.3-.4.7-.4 1.2c0 0 2.8 0 2.8 0zm6.7-.7c0-.9.2-1.8.5-2.4c.2-.5.5-1 .9-1.4c.3-.4.7-.6 1.2-.8c.6-.3 1.3-.4 2.1-.4c1.4 0 2.5.4 3.4 1.3c.9.9 1.3 2.1 1.3 3.7c0 1.6-.4 2.8-1.3 3.7c-.8.8-2 1.3-3.4 1.3c-1.4 0-2.6-.5-3.4-1.3c-.9-.9-1.3-2.1-1.3-3.7zm2 0c0 1.1.3 1.9.8 2.5c.5.5 1.1.8 1.9.8c.8 0 1.4-.3 1.9-.8c.5-.6.8-1.4.8-2.6c0-1.1-.3-1.9-.8-2.4c-.4-.6-1.1-.8-1.9-.8c-.8 0-1.4.2-1.9.8c-.5.5-.8 1.4-.8 2.5zm8.8-2.2l1.8 0c0 0-.03 1.04 0 1c.2-.3.5-.6.9-.8c.4-.2.8-.3 1.2-.3c.9 0 1.6.3 2.1.9c.6.6.9 1.5.9 2.7c0 1.1-.3 2.1-.9 2.7c-.6.6-1.3 1-2.1 1c-.4 0-.7-.1-1-.3c-.3-.1-.7-.4-1-.7c-.01-.05 0 3.5 0 3.5l-1.9 0l0-9.7zm1.9 3.4c0 .8.1 1.4.4 1.7c.4.4.7.6 1.2.6c.4 0 .8-.2 1.1-.5c.2-.4.4-.9.4-1.7c0-.7-.2-1.3-.5-1.6c-.3-.4-.6-.6-1.1-.6c-.4 0-.8.2-1.1.5c-.3.4-.4.9-.4 1.6zm10.5 1.4c0 0 1.8.3 1.8.3c-.2.7-.6 1.2-1.1 1.5c-.5.4-1.1.6-1.9.6c-1.2 0-2.1-.4-2.7-1.2c-.5-.7-.7-1.5-.7-2.4c0-1.2.3-2.1.9-2.8c.6-.6 1.4-.9 2.3-.9c1.1 0 1.9.3 2.5 1c.6.7.9 1.7.8 3.1c0 0-4.6 0-4.6 0c0 .6.2 1 .4 1.3c.3.3.7.5 1.1.5c.3 0 .5-.1.7-.2c.2-.2.4-.5.5-.8zm.1-1.9c0-.5-.2-.9-.4-1.2c-.3-.3-.6-.4-1-.4c-.4 0-.7.1-1 .4c-.2.3-.4.7-.4 1.2c0 0 2.8 0 2.8 0zm5.1 4.1l-1.8 0l0-7l1.7 0c0 0-.01 1.01 0 1c.3-.5.5-.8.8-.9c.2-.2.5-.2.8-.2c.4 0 .8.1 1.2.3c0 0-.6 1.6-.6 1.6c-.3-.2-.6-.3-.8-.3c-.3 0-.5.1-.7.2c-.2.2-.3.4-.4.8c-.1.4-.2 1.2-.2 2.4c.02-.05 0 2.1 0 2.1zm4.9-4.9c0 0-1.7-.3-1.7-.3c.2-.6.5-1.1 1-1.5c.4-.3 1.1-.4 2-.4c.9 0 1.5.1 1.9.2c.4.2.7.5.8.8c.2.3.3.8.3 1.7c0 0 0 2.1 0 2.1c0 .6 0 1.1.1 1.4c0 .3.1.6.3.9c0 0-1.8 0-1.8 0c-.1-.1-.2-.3-.2-.5c-.1-.1-.1-.2-.1-.3c-.3.4-.6.6-1 .7c-.4.2-.8.3-1.2.3c-.7 0-1.2-.2-1.7-.6c-.4-.4-.6-.9-.6-1.5c0-.4.1-.7.3-1.1c.2-.3.5-.5.8-.7c.3-.1.8-.3 1.5-.4c.8-.2 1.4-.3 1.8-.5c0 0 0-.1 0-.1c0-.4-.1-.6-.3-.8c-.2-.2-.5-.2-1-.2c-.3 0-.6 0-.8.2c-.2.1-.3.3-.4.6zm2.5 1.6c-.3 0-.6.1-1.2.2c-.5.1-.8.3-1 .4c-.2.1-.3.3-.3.6c0 .3.1.5.3.7c.1.2.4.3.7.3c.3 0 .6-.1.9-.4c.3-.1.4-.3.5-.6c0-.1.1-.4.1-.9c0 0 0-.3 0-.3zm6.8-3.7l0 1.5l-1.2 0c0 0-.05 2.81 0 2.8c0 .6 0 .9 0 1c0 .1.1.2.2.2c0 .1.1.1.3.1c.1 0 .4 0 .7-.1c0 0 .2 1.4.2 1.4c-.5.2-.9.3-1.5.3c-.3 0-.6-.1-.9-.2c-.3-.1-.5-.3-.6-.4c-.1-.2-.2-.4-.2-.8c-.1-.2-.1-.6-.1-1.3c-.01.04 0-3 0-3l-.9 0l0-1.5l.9 0l0-1.4l1.9-1.1l0 2.5l1.2 0zm1.3-.9l0-1.7l1.9 0l0 1.7l-1.9 0zm0 7.9l0-7l1.9 0l0 7l-1.9 0zm3.3-3.6c0-.6.2-1.2.5-1.8c.3-.5.7-1 1.3-1.3c.5-.3 1.1-.4 1.8-.4c1.1 0 2 .3 2.6 1c.7.7 1.1 1.5 1.1 2.6c0 1.1-.4 1.9-1.1 2.6c-.7.7-1.5 1.1-2.6 1.1c-.6 0-1.2-.2-1.8-.5c-.6-.3-1-.7-1.3-1.2c-.3-.6-.5-1.3-.5-2.1zm1.9.1c0 .7.2 1.2.5 1.6c.3.4.8.6 1.2.6c.5 0 .9-.2 1.3-.6c.3-.4.4-.9.4-1.6c0-.7-.1-1.2-.4-1.6c-.4-.4-.8-.5-1.3-.5c-.4 0-.9.1-1.2.5c-.3.4-.5.9-.5 1.6zm13.2 3.5l-1.9 0c0 0 .02-3.56 0-3.6c0-.7 0-1.2-.1-1.4c-.1-.2-.2-.4-.4-.5c-.2-.2-.4-.2-.6-.2c-.4 0-.6.1-.9.2c-.2.2-.4.4-.5.7c-.1.3-.2.9-.2 1.6c.04.04 0 3.2 0 3.2l-1.8 0l0-7l1.7 0c0 0 .01 1.04 0 1c.6-.7 1.4-1.1 2.3-1.1c.4 0 .8 0 1.1.2c.4.1.6.3.8.5c.2.3.3.5.4.8c0 .3.1.7.1 1.3c-.03-.04 0 4.3 0 4.3zm1.2-2c0 0 1.9-.3 1.9-.3c0 .4.2.7.4.9c.3.1.6.2 1.1.2c.4 0 .8-.1 1-.2c.2-.2.3-.3.3-.5c0-.2-.1-.3-.2-.4c0-.1-.3-.1-.6-.2c-1.5-.3-2.4-.6-2.8-.9c-.6-.4-.8-.9-.8-1.6c0-.6.2-1.1.7-1.5c.5-.4 1.2-.6 2.2-.6c1 0 1.7.1 2.1.4c.5.3.8.8 1 1.4c0 0-1.7.3-1.7.3c-.1-.2-.3-.5-.5-.6c-.2-.1-.5-.2-.9-.2c-.5 0-.8.1-1 .2c-.2.1-.2.2-.2.4c0 .1 0 .2.2.3c.1.1.7.3 1.7.5c1 .2 1.7.5 2.1.8c.3.4.5.8.5 1.4c0 .7-.2 1.2-.8 1.7c-.5.4-1.3.7-2.3.7c-1 0-1.8-.2-2.3-.6c-.6-.4-.9-.9-1.1-1.6z" stroke="none" fill="#fff"/></g></svg>