<?xml version="1.0" standalone="no"?>
<!DOCTYPE svg PUBLIC "-//W3C//DTD SVG 1.1//EN" "http://www.w3.org/Graphics/SVG/1.1/DTD/svg11.dtd">
<svg xmlns="http://www.w3.org/2000/svg" version="1.1" width="129.2px" height="46.3px" viewBox="0 -7 129.2 46.3" style="top:-7px">
  <desc>2019</desc>
  <defs/>
  <g id="Polygon62240">
    <path d="M 52.2 13.1 L 52.2 14.8 C 52.2 14.8 42.61 14.78 42.6 14.8 C 42.6 14.4 42.7 13.9 42.8 13.5 C 43.1 12.9 43.4 12.2 44 11.6 C 44.5 11 45.3 10.2 46.3 9.4 C 47.9 8.1 49 7.1 49.5 6.3 C 50.1 5.6 50.4 4.9 50.4 4.2 C 50.4 3.5 50.1 2.9 49.6 2.4 C 49.1 1.9 48.4 1.7 47.6 1.7 C 46.8 1.7 46.1 1.9 45.6 2.4 C 45 3 44.8 3.7 44.8 4.6 C 44.8 4.6 42.9 4.4 42.9 4.4 C 43.1 3 43.5 2 44.4 1.3 C 45.2 0.5 46.3 0.2 47.7 0.2 C 49.1 0.2 50.2 0.6 51 1.3 C 51.8 2.1 52.2 3.1 52.2 4.2 C 52.2 4.8 52.1 5.4 51.8 5.9 C 51.6 6.5 51.2 7.1 50.7 7.7 C 50.1 8.3 49.2 9.2 47.9 10.3 C 46.8 11.2 46.1 11.8 45.8 12.1 C 45.5 12.4 45.3 12.7 45.1 13.1 C 45.08 13.07 52.2 13.1 52.2 13.1 Z M 55.6 13.5 C 54.6 12.3 54.1 10.3 54.1 7.6 C 54.1 5.9 54.3 4.5 54.7 3.5 C 55 2.4 55.5 1.6 56.2 1 C 56.9 0.5 57.8 0.2 58.9 0.2 C 59.6 0.2 60.3 0.3 60.9 0.7 C 61.5 1 62 1.4 62.4 2 C 62.8 2.6 63.1 3.3 63.3 4.2 C 63.5 5 63.6 6.2 63.6 7.6 C 63.6 9.3 63.4 10.7 63.1 11.7 C 62.7 12.8 62.2 13.6 61.5 14.2 C 60.8 14.7 59.9 15 58.9 15 C 57.5 15 56.4 14.5 55.6 13.5 C 55.6 13.5 55.6 13.5 55.6 13.5 Z M 56.9 2.7 C 56.3 3.6 56 5.2 56 7.6 C 56 10 56.2 11.6 56.8 12.4 C 57.4 13.2 58 13.6 58.9 13.6 C 59.7 13.6 60.4 13.2 60.9 12.4 C 61.5 11.6 61.8 10 61.8 7.6 C 61.8 5.2 61.5 3.6 60.9 2.8 C 60.4 2.1 59.7 1.7 58.8 1.7 C 58 1.7 57.4 2 56.9 2.7 C 56.9 2.7 56.9 2.7 56.9 2.7 Z M 72.1 14.8 L 70.4 14.8 C 70.4 14.8 70.36 3.41 70.4 3.4 C 69.9 3.8 69.4 4.2 68.7 4.6 C 68 5.1 67.3 5.4 66.8 5.6 C 66.8 5.6 66.8 3.8 66.8 3.8 C 67.8 3.4 68.7 2.8 69.4 2.1 C 70.2 1.5 70.7 0.8 71 0.2 C 70.99 0.19 72.1 0.2 72.1 0.2 L 72.1 14.8 Z M 77 11.4 C 77 11.4 78.7 11.3 78.7 11.3 C 78.8 12.1 79.1 12.7 79.5 13 C 79.9 13.4 80.5 13.6 81.1 13.6 C 81.7 13.6 82.1 13.4 82.6 13.2 C 83 12.9 83.3 12.6 83.6 12.2 C 83.8 11.8 84.1 11.2 84.2 10.5 C 84.4 9.8 84.5 9 84.5 8.3 C 84.5 8.2 84.5 8.1 84.5 7.9 C 84.1 8.5 83.6 9 83 9.3 C 82.4 9.7 81.7 9.9 81 9.9 C 79.8 9.9 78.8 9.4 78 8.5 C 77.1 7.7 76.7 6.5 76.7 5.1 C 76.7 3.6 77.2 2.4 78 1.5 C 78.9 0.6 80 0.2 81.3 0.2 C 82.2 0.2 83.1 0.4 83.9 1 C 84.7 1.5 85.3 2.2 85.7 3.1 C 86.1 4.1 86.3 5.4 86.3 7.2 C 86.3 9.1 86.1 10.6 85.7 11.7 C 85.3 12.8 84.7 13.6 83.9 14.2 C 83.1 14.7 82.1 15 81.1 15 C 79.9 15 79 14.7 78.3 14.1 C 77.6 13.5 77.1 12.6 77 11.4 Z M 84.3 5 C 84.3 4 84 3.2 83.5 2.6 C 82.9 2 82.3 1.7 81.5 1.7 C 80.7 1.7 80 2 79.4 2.6 C 78.8 3.3 78.6 4.1 78.6 5.2 C 78.6 6.1 78.8 6.8 79.4 7.4 C 79.9 8 80.6 8.3 81.5 8.3 C 82.3 8.3 83 8 83.5 7.4 C 84 6.8 84.3 6 84.3 5 Z " stroke="none" fill="#54626c"/>
  </g>
</svg>