<?xml version="1.0" standalone="no"?>
<!DOCTYPE svg PUBLIC "-//W3C//DTD SVG 1.1//EN" "http://www.w3.org/Graphics/SVG/1.1/DTD/svg11.dtd">
<svg xmlns="http://www.w3.org/2000/svg" version="1.1" width="129px" height="47.3px" viewBox="0 -8 129 47.3" style="top:-8px">
  <desc>-31%</desc>
  <defs/>
  <g id="Polygon62534">
    <path d="M 41.9 10.9 L 41.9 8.1 L 47.4 8.1 L 47.4 10.9 L 41.9 10.9 Z M 48.3 10.9 C 48.3 10.9 51 10.6 51 10.6 C 51.1 11.3 51.3 11.8 51.7 12.1 C 52 12.5 52.5 12.7 53 12.7 C 53.6 12.7 54.1 12.5 54.5 12 C 54.9 11.6 55.1 11 55.1 10.3 C 55.1 9.6 54.9 9 54.5 8.6 C 54.1 8.2 53.7 8 53.1 8 C 52.8 8 52.3 8.1 51.8 8.2 C 51.8 8.2 52.2 5.9 52.2 5.9 C 52.9 6 53.5 5.8 53.9 5.5 C 54.3 5.1 54.5 4.6 54.5 4.1 C 54.5 3.6 54.3 3.2 54 2.9 C 53.7 2.6 53.4 2.5 52.9 2.5 C 52.4 2.5 52 2.6 51.7 3 C 51.3 3.3 51.1 3.8 51 4.4 C 51 4.4 48.5 4 48.5 4 C 48.7 3.1 48.9 2.4 49.3 1.9 C 49.6 1.3 50.1 0.9 50.8 0.6 C 51.4 0.3 52.2 0.2 53 0.2 C 54.3 0.2 55.4 0.6 56.2 1.5 C 56.9 2.2 57.3 3 57.3 3.9 C 57.3 5.2 56.6 6.2 55.2 7 C 56 7.1 56.7 7.5 57.2 8.1 C 57.7 8.8 57.9 9.5 57.9 10.4 C 57.9 11.7 57.4 12.8 56.5 13.6 C 55.6 14.5 54.4 15 53 15 C 51.7 15 50.6 14.6 49.8 13.9 C 48.9 13.1 48.4 12.1 48.3 10.9 Z M 66.7 14.7 L 64 14.7 C 64 14.7 63.97 4.27 64 4.3 C 63 5.2 61.8 5.9 60.4 6.4 C 60.4 6.4 60.4 3.9 60.4 3.9 C 61.1 3.6 61.9 3.2 62.7 2.5 C 63.6 1.8 64.2 1.1 64.5 0.2 C 64.49 0.19 66.7 0.2 66.7 0.2 L 66.7 14.7 Z M 70.9 3.8 C 70.9 2.5 71.2 1.6 71.8 0.9 C 72.3 0.3 73.1 0 74.1 0 C 75.1 0 75.9 0.3 76.5 0.9 C 77 1.6 77.3 2.5 77.3 3.8 C 77.3 5.1 77 6.1 76.5 6.7 C 75.9 7.3 75.1 7.7 74.1 7.7 C 73.1 7.7 72.3 7.3 71.8 6.7 C 71.2 6.1 70.9 5.1 70.9 3.8 Z M 73.4 1.9 C 73.2 2.2 73.1 2.9 73.1 3.8 C 73.1 4.8 73.2 5.4 73.4 5.7 C 73.6 5.9 73.8 6.1 74.1 6.1 C 74.4 6.1 74.6 5.9 74.8 5.7 C 75 5.4 75.1 4.8 75.1 3.8 C 75.1 2.9 75 2.2 74.8 1.9 C 74.6 1.7 74.4 1.6 74.1 1.6 C 73.8 1.6 73.6 1.7 73.4 1.9 C 73.4 1.9 73.4 1.9 73.4 1.9 Z M 76.2 15.3 L 74.2 15.3 L 81.9 0 L 83.9 0 L 76.2 15.3 Z M 80.7 11.5 C 80.7 10.2 81 9.2 81.6 8.6 C 82.1 8 82.9 7.7 83.9 7.7 C 84.9 7.7 85.7 8 86.2 8.6 C 86.8 9.2 87.1 10.2 87.1 11.5 C 87.1 12.8 86.8 13.8 86.2 14.4 C 85.7 15 84.9 15.3 83.9 15.3 C 82.9 15.3 82.1 15 81.6 14.4 C 81 13.8 80.7 12.8 80.7 11.5 Z M 83.2 9.6 C 83 9.9 82.9 10.5 82.9 11.5 C 82.9 12.4 83 13.1 83.2 13.4 C 83.4 13.6 83.6 13.7 83.9 13.7 C 84.2 13.7 84.4 13.6 84.6 13.4 C 84.8 13.1 84.9 12.4 84.9 11.5 C 84.9 10.5 84.8 9.9 84.6 9.6 C 84.4 9.3 84.2 9.2 83.9 9.2 C 83.6 9.2 83.4 9.3 83.2 9.6 C 83.2 9.6 83.2 9.6 83.2 9.6 Z " stroke="none" fill="#ffffff"/>
  </g>
</svg>