<?xml version="1.0" standalone="no"?><!DOCTYPE svg PUBLIC "-//W3C//DTD SVG 1.1//EN" "http://www.w3.org/Graphics/SVG/1.1/DTD/svg11.dtd"><svg xmlns="http://www.w3.org/2000/svg" version="1.1" width="87px" height="43.1px" viewBox="0 -5 87 43.1" style="top:-5px"><desc>Bike Storage Facilities</desc><defs/><g id="Polygon69374"><path d="m1.2 27.8l0-10.3l6.9 0l0 1.2l-5.6 0l0 3.2l4.9 0l0 1.2l-4.9 0l0 4.7l-1.3 0zm13.1 0c-.1-.3-.2-.6-.2-1c-.5.4-1 .7-1.4.9c-.4.2-.9.2-1.4.2c-.8 0-1.4-.2-1.9-.6c-.4-.4-.6-.9-.6-1.5c0-.4 0-.7.2-1c.2-.3.4-.6.7-.7c.2-.2.5-.4.9-.4c.2-.1.6-.2 1.1-.2c1-.2 1.8-.3 2.3-.5c0-.1 0-.3 0-.3c0-.5-.2-.9-.4-1.1c-.3-.3-.8-.4-1.4-.4c-.6 0-1.1.1-1.4.3c-.2.2-.4.6-.6 1.1c0 0-1.2-.2-1.2-.2c.1-.5.3-.9.5-1.3c.3-.3.7-.5 1.2-.7c.4-.2 1-.3 1.6-.3c.7 0 1.2.1 1.6.3c.4.1.7.3.9.5c.2.2.3.5.4.9c0 .2 0 .6 0 1.1c0 0 0 1.7 0 1.7c0 1.2.1 2 .1 2.3c.1.3.2.6.3.9c.04-.04-1.3 0-1.3 0c0 0 .02-.04 0 0zm-.3-3.8c-.5.2-1.2.4-2.1.5c-.5.1-.9.2-1.1.2c-.2.1-.4.3-.5.5c-.1.1-.2.3-.2.6c0 .3.1.6.4.8c.2.2.6.3 1.1.3c.5 0 .9-.1 1.3-.3c.4-.2.7-.5.9-.9c.1-.2.2-.7.2-1.2c0 0 0-.5 0-.5zm7.9 1c0 0 1.2.2 1.2.2c-.1.8-.5 1.5-1 2c-.6.5-1.3.7-2.1.7c-1 0-1.8-.3-2.5-1c-.6-.6-.9-1.6-.9-2.8c0-.8.1-1.6.4-2.2c.3-.6.7-1 1.2-1.3c.6-.3 1.2-.5 1.8-.5c.8 0 1.5.2 2 .6c.5.5.8 1 1 1.8c0 0-1.2.2-1.2.2c-.2-.5-.4-.9-.7-1.2c-.3-.2-.6-.3-1-.3c-.7 0-1.2.2-1.6.7c-.4.4-.6 1.1-.6 2.1c0 1 .2 1.8.6 2.2c.4.5.9.7 1.5.7c.5 0 .9-.2 1.2-.5c.4-.3.6-.7.7-1.4zm2.3-6.1l0-1.4l1.3 0l0 1.4l-1.3 0zm0 8.9l0-7.5l1.3 0l0 7.5l-1.3 0zm3 0l0-10.3l1.3 0l0 10.3l-1.3 0zm3.1-8.9l0-1.4l1.2 0l0 1.4l-1.2 0zm0 8.9l0-7.5l1.2 0l0 7.5l-1.2 0zm5.2-1.1c.1 0 .3 0 .6-.1c0 0 .1 1.1.1 1.1c-.3.1-.6.2-.9.2c-.5 0-.8-.1-1.1-.3c-.2-.1-.4-.3-.5-.5c-.1-.3-.2-.8-.2-1.5c.03-.02 0-4.3 0-4.3l-.9 0l0-1l.9 0l0-1.9l1.3-.7l0 2.6l1.3 0l0 1l-1.3 0c0 0-.02 4.35 0 4.3c0 .4 0 .6.1.7c0 .1.1.2.2.3c.1.1.2.1.4.1c0 0 0 0 0 0zm1.7-7.8l0-1.4l1.3 0l0 1.4l-1.3 0zm0 8.9l0-7.5l1.3 0l0 7.5l-1.3 0zm8.2-2.4c0 0 1.3.1 1.3.1c-.2.8-.6 1.4-1.1 1.8c-.6.4-1.3.6-2.2.6c-1 0-1.9-.3-2.5-1c-.7-.6-1-1.6-1-2.8c0-1.3.3-2.2 1-2.9c.6-.7 1.4-1.1 2.5-1.1c1 0 1.8.4 2.4 1c.7.7 1 1.7 1 2.9c0 .1 0 .2 0 .4c0 0-5.6 0-5.6 0c0 .8.3 1.4.7 1.8c.4.5.9.7 1.6.7c.4 0 .8-.1 1.1-.4c.4-.2.6-.6.8-1.1zm-4.1-2.1c0 0 4.1 0 4.1 0c0-.6-.2-1.1-.4-1.4c-.4-.5-1-.7-1.6-.7c-.6 0-1.1.2-1.5.6c-.4.3-.6.9-.6 1.5zm6.4 2.2c0 0 1.3-.2 1.3-.2c0 .5.2.9.6 1.2c.3.3.7.4 1.3.4c.6 0 1-.1 1.3-.4c.3-.2.4-.5.4-.8c0-.3-.1-.5-.3-.7c-.2-.1-.7-.2-1.3-.4c-1-.2-1.6-.4-2-.6c-.3-.2-.6-.4-.8-.7c-.2-.3-.3-.7-.3-1c0-.4.1-.7.3-.9c.1-.3.3-.6.6-.8c.2-.1.5-.2.8-.3c.3-.1.7-.2 1.1-.2c.6 0 1.1.1 1.5.3c.5.1.8.4 1 .7c.2.3.4.6.4 1.1c0 0-1.2.2-1.2.2c0-.4-.2-.7-.5-.9c-.3-.2-.6-.3-1.1-.3c-.6 0-1 .1-1.3.3c-.2.1-.3.4-.3.6c0 .2 0 .3.1.5c.1.1.3.2.5.3c.1.1.5.2 1.1.3c.9.3 1.5.5 1.9.6c.3.2.6.4.8.7c.2.3.3.6.3 1.1c0 .4-.1.8-.3 1.2c-.3.3-.6.6-1.1.8c-.5.2-1 .3-1.6.3c-1 0-1.7-.2-2.2-.6c-.5-.4-.8-1-1-1.8z" stroke="none" fill="#ffffff"/></g><g id="Polygon69373"><path d="m1.1 10.5l0-10.3c0 0 3.82-.02 3.8 0c.8 0 1.4.1 1.9.3c.5.2.9.5 1.1 1c.3.4.4.8.4 1.3c0 .5-.1.9-.3 1.3c-.3.3-.6.7-1.1.9c.6.2 1.1.5 1.4.9c.4.5.5 1 .5 1.6c0 .5-.1.9-.3 1.3c-.2.5-.4.8-.7 1c-.3.2-.7.4-1.2.5c-.4.1-1 .2-1.6.2c-.01-.02-3.9 0-3.9 0zm1.3-6c0 0 2.25.01 2.2 0c.7 0 1.1 0 1.3-.1c.4-.1.7-.3.8-.5c.2-.3.3-.6.3-.9c0-.4-.1-.7-.3-.9c-.1-.3-.3-.5-.7-.6c-.3-.1-.8-.1-1.5-.1c-.02-.01-2.1 0-2.1 0l0 3.1zm0 4.8c0 0 2.59-.03 2.6 0c.4 0 .7 0 .9-.1c.3 0 .6-.1.8-.3c.2-.1.4-.3.5-.5c.2-.3.2-.6.2-.9c0-.4-.1-.7-.3-1c-.2-.3-.4-.5-.8-.6c-.3-.1-.8-.2-1.5-.2c0 .02-2.4 0-2.4 0l0 3.6zm8.1-7.7l0-1.4l1.2 0l0 1.4l-1.2 0zm0 8.9l0-7.5l1.2 0l0 7.5l-1.2 0zm3 0l0-10.3l1.3 0l0 5.9l3-3.1l1.6 0l-2.9 2.8l3.2 4.7l-1.6 0l-2.4-3.8l-.9.8l0 3l-1.3 0zm11.8-2.4c0 0 1.3.1 1.3.1c-.2.8-.6 1.4-1.1 1.8c-.6.4-1.3.7-2.2.7c-1 0-1.9-.4-2.6-1.1c-.6-.6-.9-1.6-.9-2.8c0-1.2.3-2.2 1-2.9c.6-.7 1.4-1.1 2.5-1.1c1 0 1.8.4 2.4 1.1c.7.6 1 1.6 1 2.8c0 .1 0 .2 0 .4c0 0-5.6 0-5.6 0c0 .8.3 1.4.7 1.9c.4.4.9.6 1.6.6c.4 0 .8-.1 1.1-.4c.4-.2.6-.6.8-1.1zm-4.1-2.1c0 0 4.1 0 4.1 0c0-.6-.2-1.1-.4-1.4c-.4-.5-1-.7-1.6-.7c-.6 0-1.1.2-1.5.6c-.4.4-.6.9-.6 1.5zm10.7 1.2c0 0 1.3-.1 1.3-.1c.1.5.2.9.4 1.2c.3.4.6.6 1.1.8c.4.2 1 .3 1.5.3c.6 0 1 0 1.4-.2c.4-.2.7-.4.9-.6c.2-.3.3-.6.3-.9c0-.3-.1-.6-.3-.9c-.2-.2-.5-.4-.9-.6c-.3-.1-.9-.2-1.8-.5c-1-.2-1.6-.4-2-.6c-.5-.3-.9-.6-1.1-1c-.3-.4-.4-.8-.4-1.3c0-.5.2-1 .5-1.4c.2-.5.7-.8 1.2-1c.6-.3 1.2-.4 1.9-.4c.8 0 1.5.1 2.1.4c.5.2 1 .6 1.3 1.1c.3.4.5 1 .5 1.6c0 0-1.3.1-1.3.1c-.1-.7-.3-1.2-.7-1.5c-.4-.3-1-.5-1.8-.5c-.8 0-1.4.2-1.8.5c-.4.3-.6.6-.6 1c0 .4.2.7.4 1c.3.2 1 .4 2.1.7c1.1.2 1.9.5 2.3.7c.6.2 1 .6 1.3 1c.3.4.4.9.4 1.5c0 .5-.1 1-.4 1.5c-.4.5-.8.9-1.4 1.2c-.6.2-1.3.4-2 .4c-.9 0-1.7-.2-2.3-.4c-.7-.3-1.2-.7-1.5-1.3c-.4-.5-.6-1.1-.6-1.8zm12 2.2c.2 0 .3 0 .6 0c0 0 .1 1.1.1 1.1c-.3 0-.6.1-.9.1c-.5 0-.8-.1-1.1-.2c-.2-.2-.4-.4-.5-.6c-.1-.2-.2-.7-.2-1.5c.03 0 0-4.3 0-4.3l-.9 0l0-1l.9 0l0-1.8l1.3-.8l0 2.6l1.3 0l0 1l-1.3 0c0 0-.01 4.37 0 4.4c0 .3 0 .6.1.7c0 .1.1.1.2.2c.1.1.2.1.4.1c0 0 0 0 0 0zm1.1-2.6c0-1.4.4-2.5 1.2-3.1c.6-.6 1.4-.9 2.3-.9c1 0 1.9.4 2.5 1.1c.7.6 1 1.6 1 2.7c0 1-.1 1.8-.4 2.3c-.3.6-.7 1-1.3 1.3c-.5.3-1.1.5-1.8.5c-1 0-1.9-.4-2.5-1.1c-.7-.6-1-1.6-1-2.8zm1.3 0c0 .9.2 1.6.6 2.1c.4.5 1 .7 1.6.7c.6 0 1.2-.2 1.6-.7c.4-.5.6-1.2.6-2.2c0-.9-.2-1.6-.6-2.1c-.4-.5-1-.7-1.6-.7c-.6 0-1.2.2-1.6.7c-.4.5-.6 1.2-.6 2.2zm7.1 3.7l0-7.5l1.1 0c0 0 .02 1.15 0 1.1c.3-.5.6-.8.8-1c.3-.2.5-.3.8-.3c.5 0 .9.2 1.3.5c0 0-.4 1.1-.4 1.1c-.3-.2-.6-.2-.9-.2c-.3 0-.6 0-.8.2c-.2.2-.4.4-.4.7c-.2.4-.3.9-.3 1.5c.04-.03 0 3.9 0 3.9l-1.2 0zm9.8 0c-.1-.3-.2-.6-.2-.9c-.5.4-1 .6-1.4.8c-.4.2-.9.3-1.4.3c-.8 0-1.4-.2-1.9-.6c-.4-.4-.6-1-.6-1.6c0-.4 0-.7.2-1c.2-.3.4-.5.7-.7c.2-.2.5-.3.9-.4c.2-.1.6-.2 1.1-.2c1-.1 1.8-.3 2.3-.5c0-.1 0-.2 0-.3c0-.5-.2-.9-.4-1.1c-.3-.3-.8-.4-1.4-.4c-.6 0-1.1.1-1.4.3c-.2.2-.4.6-.6 1.1c0 0-1.2-.2-1.2-.2c.1-.5.3-.9.5-1.2c.3-.4.7-.6 1.2-.8c.4-.2 1-.3 1.6-.3c.7 0 1.2.1 1.6.3c.4.1.7.3.9.5c.2.3.3.6.4.9c0 .2 0 .6 0 1.2c0 0 0 1.7 0 1.7c0 1.1.1 1.9.1 2.2c.1.3.2.6.3.9c.04-.02-1.3 0-1.3 0c0 0 .02-.02 0 0zm-.3-3.8c-.5.2-1.2.4-2.1.5c-.5.1-.9.2-1.1.3c-.2.1-.4.2-.5.4c-.1.2-.2.4-.2.6c0 .3.1.6.4.8c.3.2.6.4 1.1.4c.5 0 .9-.1 1.3-.4c.4-.2.7-.5.9-.8c.1-.3.2-.7.2-1.3c0 0 0-.5 0-.5zm2.8 4.4c0 0 1.2.2 1.2.2c.1.4.2.6.5.8c.3.2.7.4 1.3.4c.5 0 1-.2 1.3-.4c.3-.2.5-.5.7-1c0-.2.1-.8.1-1.6c-.6.7-1.3 1-2.1 1c-1 0-1.8-.4-2.4-1.1c-.6-.8-.8-1.7-.8-2.7c0-.7.1-1.4.3-2c.3-.6.7-1 1.2-1.4c.5-.3 1-.5 1.7-.5c.9 0 1.6.4 2.2 1.1c-.03.02 0-.9 0-.9l1.1 0c0 0 .04 6.47 0 6.5c0 1.1-.1 2-.3 2.4c-.3.5-.6.9-1.1 1.2c-.6.3-1.2.4-1.9.4c-.9 0-1.6-.2-2.2-.6c-.5-.4-.8-1-.8-1.8zm1.1-4.5c0 1 .2 1.7.5 2.2c.4.4.9.6 1.5.6c.6 0 1.1-.2 1.5-.6c.4-.5.6-1.2.6-2.1c0-1-.2-1.6-.7-2.1c-.4-.5-.8-.7-1.4-.7c-.6 0-1.1.2-1.5.7c-.3.4-.5 1.1-.5 2zm12.2 1.5c0 0 1.3.1 1.3.1c-.2.8-.6 1.4-1.2 1.8c-.5.4-1.3.7-2.1.7c-1.1 0-2-.4-2.6-1.1c-.7-.6-1-1.6-1-2.8c0-1.2.3-2.2 1-2.9c.6-.7 1.5-1.1 2.5-1.1c1 0 1.8.4 2.5 1.1c.6.6.9 1.6.9 2.8c0 .1 0 .2 0 .4c0 0-5.6 0-5.6 0c.1.8.3 1.4.7 1.9c.4.4 1 .6 1.6.6c.5 0 .8-.1 1.2-.4c.3-.2.6-.6.8-1.1zm-4.2-2.1c0 0 4.2 0 4.2 0c-.1-.6-.2-1.1-.5-1.4c-.4-.5-.9-.7-1.6-.7c-.6 0-1 .2-1.4.6c-.4.4-.7.9-.7 1.5z" stroke="none" fill="#ffffff"/></g></svg>