<?xml version="1.0" standalone="no"?><!DOCTYPE svg PUBLIC "-//W3C//DTD SVG 1.1//EN" "http://www.w3.org/Graphics/SVG/1.1/DTD/svg11.dtd"><svg xmlns="http://www.w3.org/2000/svg" version="1.1" width="68.2px" height="28.8px" viewBox="0 -4 68.2 28.8" style="top:-4px"><desc>Low Flow</desc><defs/><g id="Polygon69273"><path d="m24.1 7.9l0-7.8l1 0l0 6.9l3.8 0l0 .9l-4.8 0zm5.4-2.8c0-1.1.3-1.8.9-2.3c.4-.5 1-.7 1.7-.7c.8 0 1.4.3 1.9.8c.5.5.7 1.2.7 2.1c0 .7-.1 1.3-.3 1.7c-.2.4-.5.7-.9.9c-.4.3-.9.4-1.4.4c-.8 0-1.4-.3-1.9-.8c-.5-.5-.7-1.2-.7-2.1zm1 0c0 .7.1 1.2.4 1.6c.4.3.7.5 1.2.5c.5 0 .9-.2 1.2-.5c.3-.4.5-.9.5-1.7c0-.7-.2-1.2-.5-1.5c-.3-.4-.7-.6-1.2-.6c-.5 0-.8.2-1.2.6c-.3.3-.4.8-.4 1.6zm6.2 2.8l-1.7-5.6l1 0l.9 3.2c0 0 .34 1.2.3 1.2c.1-.1.1-.4.3-1.2c.03.04.9-3.2.9-3.2l1 0l.8 3.2l.3 1.1l.3-1.1l1-3.2l.9 0l-1.7 5.6l-1 0l-.9-3.4l-.2-.9l-1.2 4.3l-1 0zm10 0l0-7.8l5.2 0l0 .9l-4.2 0l0 2.4l3.6 0l0 1l-3.6 0l0 3.5l-1 0zm6.2 0l0-7.8l1 0l0 7.8l-1 0zm2-2.8c0-1.1.3-1.8.9-2.3c.5-.5 1.1-.7 1.8-.7c.7 0 1.4.3 1.8.8c.5.5.8 1.2.8 2.1c0 .7-.1 1.3-.3 1.7c-.3.4-.6.7-1 .9c-.4.3-.9.4-1.3.4c-.8 0-1.5-.3-1.9-.8c-.5-.5-.8-1.2-.8-2.1zm1 0c0 .7.2 1.2.5 1.6c.3.3.7.5 1.2.5c.4 0 .8-.2 1.1-.5c.3-.4.5-.9.5-1.7c0-.7-.2-1.2-.5-1.5c-.3-.4-.7-.6-1.1-.6c-.5 0-.9.2-1.2.6c-.3.3-.5.8-.5 1.6zm6.3 2.8l-1.7-5.6l.9 0l.9 3.2c0 0 .37 1.2.4 1.2c0-.1.1-.4.3-1.2c-.04.04.9-3.2.9-3.2l.9 0l.9 3.2l.2 1.1l.4-1.1l.9-3.2l.9 0l-1.7 5.6l-1 0l-.9-3.4l-.2-.9l-1.1 4.3l-1 0z" stroke="none" fill="#ffffff"/></g></svg>