<?xml version="1.0" standalone="no"?><!DOCTYPE svg PUBLIC "-//W3C//DTD SVG 1.1//EN" "http://www.w3.org/Graphics/SVG/1.1/DTD/svg11.dtd"><svg xmlns="http://www.w3.org/2000/svg" version="1.1" width="160.3px" height="30.5px" viewBox="0 -1 160.3 30.5" style="top:-1px"><desc>Anne Robinson Global Chair, Pro Bono Committee</desc><defs/><g id="Polygon66589"><path d="m3.7 14.8l0-.7l2.7 0c0 0 .04 2.36 0 2.4c-.4.3-.8.5-1.3.7c-.4.2-.9.3-1.3.3c-.7 0-1.2-.2-1.8-.4c-.5-.3-.9-.7-1.1-1.2c-.3-.5-.4-1.1-.4-1.7c0-.7.1-1.3.4-1.8c.2-.5.6-.9 1.1-1.2c.5-.3 1.1-.4 1.7-.4c.5 0 .9.1 1.3.2c.3.2.6.4.9.7c.2.2.3.6.4 1c0 0-.7.2-.7.2c-.1-.3-.2-.6-.4-.8c-.1-.1-.3-.3-.6-.4c-.3-.1-.6-.2-.9-.2c-.4 0-.7.1-1 .2c-.3.1-.5.3-.7.5c-.2.2-.3.4-.4.6c-.2.4-.2.8-.2 1.3c0 .6.1 1.1.3 1.5c.2.3.4.6.8.8c.4.2.8.3 1.2.3c.4 0 .8-.1 1.1-.2c.4-.2.6-.3.8-.5c0 .03 0-1.2 0-1.2l-1.9 0zm3.9 2.6l0-6.5l.8 0l0 6.5l-.8 0zm1.7-2.4c0-.8.2-1.5.7-1.9c.4-.3.9-.5 1.5-.5c.6 0 1.2.2 1.6.6c.4.4.6 1 .6 1.8c0 .6-.1 1-.3 1.4c-.2.3-.4.6-.8.8c-.3.2-.7.3-1.1.3c-.7 0-1.2-.3-1.6-.7c-.4-.4-.6-1-.6-1.8zm.8 0c0 .6.1 1.1.4 1.4c.3.3.6.4 1 .4c.4 0 .7-.1 1-.4c.2-.3.4-.8.4-1.4c0-.6-.2-1-.4-1.3c-.3-.3-.6-.5-1-.5c-.4 0-.7.2-1 .5c-.3.3-.4.7-.4 1.3zm5.2 2.4l-.7 0l0-6.5l.8 0c0 0-.01 2.31 0 2.3c.3-.4.7-.6 1.3-.6c.3 0 .5 0 .8.2c.2.1.4.2.6.4c.2.3.3.5.4.8c.1.3.1.6.1.9c0 .8-.2 1.5-.6 1.9c-.3.4-.8.7-1.4.7c-.5 0-1-.3-1.3-.7c.03-.03 0 .6 0 .6zm0-2.4c0 .5.1.9.2 1.2c.3.4.6.6 1.1.6c.3 0 .6-.1.9-.4c.2-.3.3-.8.3-1.4c0-.6-.1-1-.3-1.3c-.3-.3-.6-.5-.9-.5c-.4 0-.7.2-.9.5c-.3.3-.4.7-.4 1.3zm7.5 2.4c-.1-.2-.1-.4-.2-.6c-.2.2-.5.4-.8.5c-.3.1-.6.2-.9.2c-.5 0-.9-.2-1.2-.4c-.2-.3-.4-.6-.4-1c0-.2.1-.4.2-.6c.1-.2.2-.3.4-.5c.2-.1.4-.2.6-.2c.1-.1.4-.1.7-.1c.6-.1 1.1-.2 1.4-.3c0-.1 0-.2 0-.2c0-.3-.1-.6-.2-.7c-.2-.2-.5-.3-.9-.3c-.4 0-.7.1-.9.2c-.1.2-.3.4-.4.7c0 0-.7-.1-.7-.1c0-.3.2-.6.3-.8c.2-.2.4-.3.7-.5c.3-.1.7-.1 1.1-.1c.4 0 .7 0 .9.1c.3.1.5.2.6.4c.1.1.2.3.2.5c.1.1.1.4.1.7c0 0 0 1.1 0 1.1c0 .7 0 1.2 0 1.4c.1.2.1.4.2.6c.03-.05-.8 0-.8 0c0 0 .01-.05 0 0zm-.2-2.4c-.3.1-.7.2-1.3.3c-.3.1-.6.1-.7.2c-.1 0-.2.1-.3.2c-.1.1-.1.3-.1.4c0 .2.1.4.2.5c.2.2.4.2.7.2c.3 0 .6 0 .8-.2c.3-.1.4-.3.6-.5c0-.2.1-.5.1-.8c0 0 0-.3 0-.3zm2 2.4l0-6.5l.8 0l0 6.5l-.8 0zm9.2-2.3c0 0 .9.2.9.2c-.2.7-.5 1.2-1 1.6c-.5.4-1 .6-1.7.6c-.7 0-1.3-.2-1.7-.5c-.4-.2-.8-.7-1-1.2c-.2-.5-.3-1.1-.3-1.7c0-.7.1-1.3.3-1.8c.3-.5.7-.9 1.1-1.1c.5-.3 1-.4 1.6-.4c.6 0 1.2.2 1.6.5c.5.3.8.8.9 1.4c0 0-.8.2-.8.2c-.1-.5-.4-.8-.6-1c-.3-.3-.7-.4-1.1-.4c-.5 0-.9.1-1.3.4c-.3.2-.5.5-.7.9c-.1.4-.2.9-.2 1.3c0 .5.1 1 .3 1.4c.1.4.4.7.7.9c.4.2.7.3 1.1.3c.5 0 .9-.1 1.2-.4c.4-.3.6-.7.7-1.2zm1.8 2.3l0-6.5l.8 0c0 0 0 2.32 0 2.3c.4-.4.8-.6 1.4-.6c.3 0 .6 0 .9.2c.3.1.4.3.5.5c.2.3.2.6.2 1.1c.01-.01 0 3 0 3l-.8 0c0 0 .02-3.01 0-3c0-.4-.1-.7-.2-.9c-.2-.1-.5-.2-.8-.2c-.2 0-.4 0-.6.1c-.2.2-.4.3-.5.5c-.1.2-.1.5-.1.9c0 0 0 2.6 0 2.6l-.8 0zm8.2 0c-.1-.2-.1-.4-.1-.6c-.3.2-.6.4-.9.5c-.3.1-.5.2-.9.2c-.5 0-.9-.2-1.1-.4c-.3-.3-.5-.6-.5-1c0-.2.1-.4.2-.6c.1-.2.2-.3.4-.5c.2-.1.4-.2.6-.2c.1-.1.4-.1.7-.1c.6-.1 1.1-.2 1.4-.3c0-.1 0-.2 0-.2c0-.3-.1-.6-.2-.7c-.2-.2-.5-.3-.9-.3c-.4 0-.7.1-.9.2c-.1.2-.3.4-.3.7c0 0-.8-.1-.8-.1c.1-.3.2-.6.3-.8c.2-.2.4-.3.7-.5c.3-.1.7-.1 1.1-.1c.4 0 .7 0 1 .1c.2.1.4.2.5.4c.1.1.2.3.3.5c0 .1 0 .4 0 .7c0 0 0 1.1 0 1.1c0 .7 0 1.2 0 1.4c.1.2.1.4.2.6c.04-.05-.8 0-.8 0c0 0 .02-.05 0 0zm-.2-2.4c-.3.1-.7.2-1.3.3c-.3.1-.6.1-.7.2c-.1 0-.2.1-.3.2c-.1.1-.1.3-.1.4c0 .2.1.4.2.5c.2.2.4.2.7.2c.3 0 .6 0 .8-.2c.3-.1.5-.3.6-.5c.1-.2.1-.5.1-.8c0 0 0-.3 0-.3zm2-3.2l0-.9l.8 0l0 .9l-.8 0zm0 5.6l0-4.7l.8 0l0 4.7l-.8 0zm2 0l0-4.7l.7 0c0 0 .02.69 0 .7c.2-.3.4-.6.5-.7c.2-.1.3-.1.5-.1c.3 0 .6.1.8.2c0 0-.2.8-.2.8c-.2-.1-.4-.2-.6-.2c-.2 0-.3 0-.5.2c-.1.1-.2.2-.3.4c-.1.3-.1.6-.1.9c0 .01 0 2.5 0 2.5l-.8 0zm2.7 0l0-.9l.9 0c0 0 .03.85 0 .9c0 .3 0 .6-.1.8c-.2.2-.4.3-.6.4c0 0-.2-.3-.2-.3c.1-.1.3-.2.3-.3c.1-.2.2-.4.2-.6c-.03-.05-.5 0-.5 0zm4.9 0l0-6.5c0 0 2.45.01 2.5 0c.4 0 .7 0 .9.1c.3 0 .6.1.8.3c.2.1.4.3.5.6c.2.3.2.6.2.9c0 .5-.1 1-.5 1.4c-.3.3-1 .5-1.9.5c.03.03-1.6 0-1.6 0l0 2.7l-.9 0zm.9-3.4c0 0 1.64-.03 1.6 0c.6 0 1-.1 1.2-.3c.2-.2.4-.5.4-.9c0-.3-.1-.5-.2-.7c-.2-.2-.4-.3-.6-.4c-.1 0-.4 0-.8 0c.02-.03-1.6 0-1.6 0l0 2.3zm5 3.4l0-4.7l.7 0c0 0 .03.69 0 .7c.2-.3.4-.6.5-.7c.2-.1.4-.1.5-.1c.3 0 .6.1.9.2c0 0-.3.8-.3.8c-.2-.1-.4-.2-.6-.2c-.2 0-.3 0-.5.2c-.1.1-.2.2-.3.4c-.1.3-.1.6-.1.9c.01.01 0 2.5 0 2.5l-.8 0zm2.7-2.4c0-.8.3-1.5.7-1.9c.4-.3.9-.5 1.5-.5c.7 0 1.2.2 1.6.6c.4.4.6 1 .6 1.8c0 .6-.1 1-.3 1.4c-.2.3-.4.6-.8.8c-.3.2-.7.3-1.1.3c-.6 0-1.2-.3-1.6-.7c-.4-.4-.6-1-.6-1.8zm.8 0c0 .6.2 1.1.4 1.4c.3.3.6.4 1 .4c.4 0 .7-.1 1-.4c.3-.3.4-.8.4-1.4c0-.6-.1-1-.4-1.3c-.3-.3-.6-.5-1-.5c-.4 0-.7.2-1 .5c-.2.3-.4.7-.4 1.3zm7.1 2.4l0-6.5c0 0 2.41.01 2.4 0c.5 0 .9.1 1.2.2c.3.1.5.3.7.6c.2.3.2.6.2.9c0 .2 0 .5-.2.7c-.1.3-.4.5-.7.6c.4.1.7.3.9.6c.3.3.4.6.4 1c0 .3-.1.6-.2.8c-.2.3-.3.5-.5.6c-.2.2-.4.3-.7.3c-.3.1-.6.2-1.1.2c.05-.05-2.4 0-2.4 0zm.8-3.8c0 0 1.44.02 1.4 0c.4 0 .7 0 .9-.1c.2 0 .3-.1.4-.3c.2-.1.2-.3.2-.5c0-.3 0-.4-.1-.6c-.2-.2-.3-.3-.5-.3c-.2-.1-.5-.1-1-.1c.03-.03-1.3 0-1.3 0l0 1.9zm0 3c0 0 1.65-.01 1.6 0c.3 0 .5 0 .6 0c.2-.1.4-.1.5-.2c.2-.1.3-.2.3-.4c.1-.1.2-.3.2-.5c0-.3-.1-.5-.2-.6c-.1-.2-.3-.3-.5-.4c-.2-.1-.6-.1-1-.1c.03-.02-1.5 0-1.5 0l0 2.2zm4.8-1.6c0-.8.3-1.5.8-1.9c.4-.3.8-.5 1.4-.5c.7 0 1.2.2 1.6.6c.4.4.6 1 .6 1.8c0 .6-.1 1-.3 1.4c-.1.3-.4.6-.7.8c-.4.2-.8.3-1.2.3c-.6 0-1.2-.3-1.6-.7c-.4-.4-.6-1-.6-1.8zm.8 0c0 .6.2 1.1.4 1.4c.3.3.6.4 1 .4c.4 0 .7-.1 1-.4c.3-.3.4-.8.4-1.4c0-.6-.1-1-.4-1.3c-.3-.3-.6-.5-1-.5c-.4 0-.7.2-1 .5c-.2.3-.4.7-.4 1.3zm4.5 2.4l0-4.7l.7 0c0 0 .05.65 0 .6c.4-.5.9-.7 1.5-.7c.3 0 .6 0 .8.1c.2.1.4.3.5.4c.2.2.2.4.3.6c0 .2 0 .4 0 .8c.03-.02 0 2.9 0 2.9l-.8 0c0 0 .04-2.89 0-2.9c0-.3 0-.5-.1-.7c0-.2-.1-.3-.3-.4c-.1-.1-.3-.1-.5-.1c-.4 0-.7.1-.9.3c-.3.2-.4.6-.4 1.2c.03 0 0 2.6 0 2.6l-.8 0zm4.7-2.4c0-.8.3-1.5.8-1.9c.4-.3.9-.5 1.4-.5c.7 0 1.2.2 1.6.6c.4.4.6 1 .6 1.8c0 .6-.1 1-.3 1.4c-.1.3-.4.6-.7.8c-.4.2-.8.3-1.2.3c-.6 0-1.1-.3-1.6-.7c-.4-.4-.6-1-.6-1.8zm.9 0c0 .6.1 1.1.3 1.4c.3.3.6.4 1 .4c.4 0 .8-.1 1-.4c.3-.3.4-.8.4-1.4c0-.6-.1-1-.4-1.3c-.3-.3-.6-.5-1-.5c-.4 0-.7.2-1 .5c-.2.3-.3.7-.3 1.3zm11.6.1c0 0 .9.2.9.2c-.2.7-.5 1.2-1 1.6c-.4.4-1 .6-1.7.6c-.7 0-1.2-.2-1.7-.5c-.4-.2-.7-.7-1-1.2c-.2-.5-.3-1.1-.3-1.7c0-.7.1-1.3.4-1.8c.2-.5.6-.9 1.1-1.1c.5-.3 1-.4 1.5-.4c.7 0 1.2.2 1.7.5c.4.3.7.8.9 1.4c0 0-.9.2-.9.2c-.1-.5-.3-.8-.6-1c-.3-.3-.6-.4-1.1-.4c-.5 0-.9.1-1.2.4c-.3.2-.6.5-.7.9c-.2.4-.2.9-.2 1.3c0 .5.1 1 .2 1.4c.2.4.4.7.8.9c.3.2.7.3 1.1.3c.4 0 .8-.1 1.2-.4c.3-.3.5-.7.6-1.2zm1.6-.1c0-.8.2-1.5.7-1.9c.4-.3.9-.5 1.4-.5c.7 0 1.2.2 1.6.6c.4.4.6 1 .6 1.8c0 .6-.1 1-.2 1.4c-.2.3-.5.6-.8.8c-.4.2-.8.3-1.2.3c-.6 0-1.1-.3-1.5-.7c-.4-.4-.6-1-.6-1.8zm.8 0c0 .6.1 1.1.4 1.4c.2.3.5.4.9.4c.4 0 .8-.1 1-.4c.3-.3.4-.8.4-1.4c0-.6-.1-1-.4-1.3c-.2-.3-.6-.5-1-.5c-.4 0-.7.2-.9.5c-.3.3-.4.7-.4 1.3zm4.5 2.4l0-4.7l.7 0c0 0-.04.64 0 .6c.1-.2.3-.4.5-.5c.3-.2.6-.2.9-.2c.3 0 .6.1.8.2c.2.1.4.3.5.6c.4-.5.8-.8 1.4-.8c.5 0 .9.1 1.1.4c.3.2.4.6.4 1.1c-.03.05 0 3.3 0 3.3l-.8 0c0 0-.01-2.99 0-3c0-.3 0-.5-.1-.7c0-.1-.1-.2-.3-.3c-.1-.1-.3-.1-.4-.1c-.4 0-.6.1-.9.3c-.2.2-.3.6-.3 1c.01.04 0 2.8 0 2.8l-.8 0c0 0 .02-3.08 0-3.1c0-.3 0-.6-.2-.8c-.1-.1-.3-.2-.6-.2c-.2 0-.4 0-.6.1c-.2.2-.3.3-.4.6c-.1.2-.2.5-.2.9c.04.03 0 2.5 0 2.5l-.7 0zm7.4 0l0-4.7l.8 0c0 0-.04.64 0 .6c.1-.2.3-.4.5-.5c.3-.2.6-.2.9-.2c.3 0 .6.1.8.2c.2.1.4.3.5.6c.4-.5.8-.8 1.4-.8c.5 0 .8.1 1.1.4c.2.2.4.6.4 1.1c-.03.05 0 3.3 0 3.3l-.8 0c0 0-.01-2.99 0-3c0-.3 0-.5-.1-.7c0-.1-.1-.2-.3-.3c-.1-.1-.3-.1-.4-.1c-.4 0-.6.1-.9.3c-.2.2-.3.6-.3 1c.01.04 0 2.8 0 2.8l-.8 0c0 0 .02-3.08 0-3.1c0-.3 0-.6-.2-.8c-.1-.1-.3-.2-.6-.2c-.2 0-.4 0-.6.1c-.2.2-.3.3-.4.6c-.1.2-.2.5-.2.9c.04.03 0 2.5 0 2.5l-.8 0zm7.5-5.6l0-.9l.8 0l0 .9l-.8 0zm0 5.6l0-4.7l.8 0l0 4.7l-.8 0zm3.4-.7c.1 0 .2 0 .4-.1c0 0 .1.7.1.7c-.2.1-.4.1-.6.1c-.3 0-.5 0-.7-.1c-.1-.1-.2-.2-.3-.4c-.1-.1-.1-.4-.1-.9c-.01-.01 0-2.7 0-2.7l-.6 0l0-.6l.6 0l0-1.2l.8-.4l0 1.6l.8 0l0 .6l-.8 0c0 0-.02 2.73 0 2.7c0 .3 0 .4 0 .5c0 0 .1.1.2.1c0 .1.1.1.2.1c0 0 0 0 0 0zm2.5 0c.1 0 .2 0 .4-.1c0 0 .1.7.1.7c-.2.1-.4.1-.6.1c-.3 0-.5 0-.7-.1c-.1-.1-.2-.2-.3-.4c-.1-.1-.1-.4-.1-.9c-.01-.01 0-2.7 0-2.7l-.6 0l0-.6l.6 0l0-1.2l.8-.4l0 1.6l.8 0l0 .6l-.8 0c0 0-.02 2.73 0 2.7c0 .3 0 .4 0 .5c0 0 .1.1.2.1c0 .1.1.1.2.1c0 0 0 0 0 0zm4.3-.9c0 0 .9.2.9.2c-.2.4-.4.8-.8 1.1c-.3.2-.8.4-1.3.4c-.7 0-1.2-.3-1.6-.7c-.4-.4-.6-1-.6-1.7c0-.8.2-1.4.6-1.9c.4-.4.9-.6 1.6-.6c.6 0 1.1.2 1.5.6c.4.4.6 1 .6 1.8c0 .1 0 .1 0 .2c0 0-3.5 0-3.5 0c0 .5.2.9.4 1.2c.3.3.6.4 1 .4c.3 0 .5-.1.8-.2c.2-.2.3-.4.4-.8zm-2.6-1.2c0 0 2.6 0 2.6 0c0-.4-.1-.7-.2-.9c-.3-.3-.6-.5-1-.5c-.4 0-.7.2-.9.4c-.3.2-.4.6-.5 1zm7.6 1.2c0 0 .9.2.9.2c-.2.4-.4.8-.8 1.1c-.3.2-.7.4-1.3.4c-.7 0-1.2-.3-1.6-.7c-.4-.4-.6-1-.6-1.7c0-.8.2-1.4.6-1.9c.4-.4.9-.6 1.6-.6c.6 0 1.1.2 1.5.6c.4.4.6 1 .6 1.8c0 .1 0 .1 0 .2c0 0-3.5 0-3.5 0c0 .5.2.9.4 1.2c.3.3.6.4 1 .4c.3 0 .6-.1.8-.2c.2-.2.3-.4.4-.8zm-2.6-1.2c0 0 2.7 0 2.7 0c-.1-.4-.2-.7-.3-.9c-.3-.3-.6-.5-1-.5c-.4 0-.7.2-.9.4c-.3.2-.4.6-.5 1z" stroke="none" fill="#ffffff"/></g><g id="Polygon66588"><path d="m6.5 6.6l-1.5 0l-.5-1.5l-2.6 0l-.5 1.5l-1.4 0l2.5-6.5l1.4 0l2.6 6.5zm-2.4-2.6l-.9-2.4l-.9 2.4l1.8 0zm7.3 2.6l-1.2 0c0 0-.04-2.43 0-2.4c0-.5-.1-.9-.1-1c-.1-.2-.2-.3-.3-.4c-.1 0-.2-.1-.4-.1c-.2 0-.4.1-.6.2c-.2.1-.3.3-.3.5c-.1.2-.1.5-.1 1c-.03.04 0 2.2 0 2.2l-1.3 0l0-4.7l1.2 0c0 0-.02.67 0 .7c.4-.6.9-.8 1.5-.8c.3 0 .5 0 .8.1c.2.1.4.3.5.4c.1.2.2.3.2.5c.1.2.1.5.1.9c-.01-.05 0 2.9 0 2.9zm5.5 0l-1.2 0c0 0-.05-2.43 0-2.4c0-.5-.1-.9-.1-1c-.1-.2-.2-.3-.3-.4c-.1 0-.2-.1-.4-.1c-.2 0-.4.1-.6.2c-.2.1-.3.3-.3.5c-.1.2-.1.5-.1 1c-.03.04 0 2.2 0 2.2l-1.3 0l0-4.7l1.2 0c0 0-.02.67 0 .7c.4-.6.9-.8 1.5-.8c.3 0 .5 0 .8.1c.2.1.4.3.5.4c.1.2.2.3.2.5c.1.2.1.5.1.9c-.01-.05 0 2.9 0 2.9zm3.9-1.5c0 0 1.3.2 1.3.2c-.2.4-.4.8-.8 1c-.3.2-.7.4-1.3.4c-.8 0-1.4-.3-1.8-.8c-.3-.5-.4-1-.4-1.6c0-.8.2-1.4.6-1.9c.4-.4.9-.6 1.5-.6c.7 0 1.3.2 1.7.7c.4.4.6 1.1.5 2.1c0 0-3.1 0-3.1 0c.1.3.2.6.3.8c.2.2.5.3.8.3c.2 0 .3 0 .4-.1c.2-.1.3-.3.3-.5zm.1-1.3c0-.3-.1-.6-.3-.8c-.1-.2-.4-.3-.6-.3c-.3 0-.5.1-.7.3c-.1.2-.2.5-.2.8c0 0 1.8 0 1.8 0zm4.8 2.8l0-6.5c0 0 2.7.01 2.7 0c.7 0 1.2.1 1.5.2c.3.1.6.3.7.6c.2.3.3.6.3 1c0 .5-.1.9-.4 1.2c-.3.3-.7.5-1.3.6c.3.2.5.4.7.5c.2.2.5.6.8 1.1c-.03 0 .8 1.3.8 1.3l-1.6 0c0 0-.94-1.45-.9-1.4c-.4-.6-.6-.9-.7-1c-.2-.1-.3-.2-.4-.3c-.2 0-.4 0-.7 0c.02-.04-.2 0-.2 0l0 2.7l-1.3 0zm1.3-3.8c0 0 .92.03.9 0c.6 0 1 0 1.2 0c.1-.1.3-.2.4-.3c0-.1.1-.3.1-.5c0-.2-.1-.4-.2-.5c-.1-.2-.3-.2-.5-.3c-.1 0-.4 0-.9 0c-.02 0-1 0-1 0l0 1.6zm4.9 1.4c0-.5.1-.9.3-1.2c.2-.4.5-.7.8-.9c.4-.2.8-.3 1.3-.3c.7 0 1.2.2 1.7.7c.5.4.7 1 .7 1.7c0 .7-.3 1.3-.7 1.8c-.5.4-1 .7-1.7.7c-.5 0-.9-.1-1.3-.3c-.3-.2-.6-.5-.8-.9c-.2-.4-.3-.8-.3-1.3zm1.2 0c0 .5.1.8.4 1.1c.2.2.4.4.8.4c.3 0 .6-.2.8-.4c.2-.3.3-.6.3-1.1c0-.4-.1-.8-.3-1c-.2-.3-.5-.4-.8-.4c-.4 0-.6.1-.8.4c-.3.2-.4.6-.4 1zm4.5 2.4l0-6.5l1.2 0c0 0 .03 2.33 0 2.3c.4-.4.9-.6 1.4-.6c.5 0 1 .2 1.4.6c.4.4.5 1 .5 1.8c0 .8-.1 1.4-.5 1.8c-.4.4-.9.7-1.4.7c-.3 0-.5-.1-.8-.2c-.3-.2-.5-.4-.7-.6c.04-.03 0 .7 0 .7l-1.1 0zm1.2-2.5c0 .5.1.9.2 1.1c.3.3.5.5.9.5c.3 0 .5-.1.7-.4c.2-.2.3-.6.3-1.1c0-.5-.1-.9-.3-1.1c-.2-.3-.4-.4-.8-.4c-.2 0-.5.1-.7.4c-.2.2-.3.5-.3 1zm4.3-2.8l0-1.2l1.3 0l0 1.2l-1.3 0zm0 5.3l0-4.7l1.3 0l0 4.7l-1.3 0zm6.8 0l-1.2 0c0 0-.05-2.43 0-2.4c0-.5-.1-.9-.1-1c-.1-.2-.2-.3-.3-.4c-.1 0-.2-.1-.4-.1c-.2 0-.4.1-.6.2c-.2.1-.3.3-.3.5c-.1.2-.1.5-.1 1c-.03.04 0 2.2 0 2.2l-1.3 0l0-4.7l1.2 0c0 0-.02.67 0 .7c.4-.6.9-.8 1.5-.8c.3 0 .5 0 .8.1c.2.1.4.3.5.4c.1.2.2.3.2.5c.1.2.1.5.1.9c-.01-.05 0 2.9 0 2.9zm.8-1.4c0 0 1.2-.2 1.2-.2c.1.3.2.5.4.6c.1.1.4.2.6.2c.4 0 .6-.1.8-.2c.1-.1.1-.2.1-.3c0-.1 0-.2-.1-.3c0 0-.2-.1-.4-.1c-1-.3-1.6-.5-1.9-.6c-.3-.3-.5-.6-.5-1.1c0-.4.1-.7.5-1c.3-.3.8-.4 1.4-.4c.7 0 1.2.1 1.5.3c.3.2.5.5.6.9c0 0-1.2.2-1.2.2c0-.2-.1-.3-.2-.4c-.2-.1-.4-.1-.6-.1c-.4 0-.6 0-.7.1c-.1.1-.2.2-.2.3c0 0 .1.1.1.2c.2.1.5.2 1.2.3c.7.2 1.1.4 1.4.6c.2.2.4.5.4.9c0 .4-.2.8-.6 1.1c-.3.3-.9.5-1.6.5c-.6 0-1.1-.2-1.5-.4c-.3-.3-.6-.6-.7-1.1zm5.2-1c0-.5.1-.9.3-1.2c.2-.4.5-.7.8-.9c.4-.2.8-.3 1.3-.3c.7 0 1.2.2 1.7.7c.4.4.7 1 .7 1.7c0 .7-.3 1.3-.7 1.8c-.5.4-1 .7-1.7.7c-.5 0-.9-.1-1.3-.3c-.3-.2-.6-.5-.8-.9c-.2-.4-.3-.8-.3-1.3zm1.2 0c0 .5.1.8.4 1.1c.2.2.4.4.8.4c.3 0 .6-.2.8-.4c.2-.3.3-.6.3-1.1c0-.4-.1-.8-.3-1c-.2-.3-.5-.4-.8-.4c-.4 0-.6.1-.8.4c-.3.2-.4.6-.4 1zm8.8 2.4l-1.2 0c0 0-.05-2.43 0-2.4c0-.5-.1-.9-.1-1c-.1-.2-.2-.3-.3-.4c-.1 0-.2-.1-.4-.1c-.2 0-.4.1-.6.2c-.2.1-.3.3-.3.5c-.1.2-.1.5-.1 1c-.03.04 0 2.2 0 2.2l-1.3 0l0-4.7l1.2 0c0 0-.02.67 0 .7c.4-.6.9-.8 1.5-.8c.3 0 .5 0 .8.1c.2.1.4.3.5.4c.1.2.2.3.2.5c.1.2.1.5.1.9c-.01-.05 0 2.9 0 2.9z" stroke="none" fill="#ffffff"/></g></svg>