<?xml version="1.0" standalone="no"?><!DOCTYPE svg PUBLIC "-//W3C//DTD SVG 1.1//EN" "http://www.w3.org/Graphics/SVG/1.1/DTD/svg11.dtd"><svg xmlns="http://www.w3.org/2000/svg" version="1.1" width="143px" height="32.6px" viewBox="0 -4 143 32.6" style="top:-4px"><desc>Sequestrian</desc><defs/><g id="Polygon65484"><path d="m.6 6.4c0 0 1.1-.1 1.1-.1c.1.4.2.8.4 1.1c.2.3.5.5.9.7c.4.2.9.3 1.4.3c.5 0 .9-.1 1.2-.3c.4-.1.6-.3.8-.5c.2-.3.3-.5.3-.8c0-.3-.1-.5-.3-.7c-.1-.3-.4-.4-.8-.6c-.2-.1-.8-.2-1.6-.4c-.9-.2-1.4-.4-1.8-.6c-.4-.2-.7-.5-1-.8c-.2-.4-.3-.8-.3-1.2c0-.4.2-.9.4-1.3c.3-.4.7-.7 1.2-.9c.5-.2 1-.3 1.6-.3c.7 0 1.3.1 1.8.3c.5.2.9.6 1.2 1c.3.4.4.9.5 1.4c0 0-1.2.1-1.2.1c-.1-.6-.3-1-.6-1.3c-.4-.3-.9-.4-1.6-.4c-.7 0-1.3.1-1.6.4c-.3.2-.5.6-.5.9c0 .4.1.6.3.8c.3.3.9.5 1.9.7c.9.2 1.6.4 2 .6c.5.2.9.5 1.2.9c.2.4.3.8.3 1.3c0 .5-.1.9-.4 1.4c-.3.4-.7.7-1.2 1c-.5.2-1.1.3-1.7.3c-.9 0-1.6-.1-2.1-.3c-.6-.3-1-.6-1.3-1.1c-.3-.5-.5-1-.5-1.6zm13.2.8c0 0 1.2.1 1.2.1c-.2.7-.6 1.2-1.1 1.6c-.5.3-1.1.5-1.9.5c-.9 0-1.7-.3-2.3-.9c-.5-.6-.8-1.4-.8-2.5c0-1.1.3-1.9.9-2.6c.5-.6 1.3-.9 2.2-.9c.9 0 1.6.3 2.2.9c.5.6.8 1.5.8 2.6c0 0 0 .1 0 .3c0 0-4.9 0-4.9 0c0 .7.2 1.2.6 1.6c.3.4.8.6 1.4.6c.4 0 .7-.1 1-.3c.3-.2.5-.6.7-1zm-3.7-1.9c0 0 3.7 0 3.7 0c0-.5-.2-.9-.4-1.2c-.4-.4-.8-.7-1.4-.7c-.5 0-.9.2-1.3.6c-.3.3-.5.8-.6 1.3zm10.4 6.5c0 0 .01-3.22 0-3.2c-.2.2-.4.4-.7.6c-.3.2-.7.2-1 .2c-.8 0-1.5-.3-2-.9c-.6-.6-.9-1.5-.9-2.6c0-.6.1-1.2.4-1.8c.2-.5.5-.9 1-1.2c.4-.2.9-.4 1.4-.4c.8 0 1.5.4 1.9 1.1c.03-.05 0-.9 0-.9l1 0l0 9.1l-1.1 0zm-3.4-5.8c0 .8.1 1.4.5 1.9c.4.4.8.6 1.3.6c.5 0 .9-.2 1.2-.6c.4-.4.5-1 .5-1.8c0-.9-.2-1.6-.5-2c-.4-.5-.8-.7-1.3-.7c-.5 0-.9.2-1.2.6c-.4.4-.5 1.1-.5 2zm10.5 3.3c0 0-.01-.99 0-1c-.5.8-1.2 1.1-2.1 1.1c-.4 0-.8 0-1.1-.2c-.3-.1-.6-.3-.8-.6c-.1-.2-.2-.5-.3-.8c0-.2-.1-.6-.1-1c.03-.03 0-4.1 0-4.1l1.1 0c0 0 .05 3.64 0 3.6c0 .6.1 1 .1 1.2c.1.3.2.5.5.7c.2.2.5.3.8.3c.3 0 .7-.1 1-.3c.3-.2.5-.4.6-.7c.1-.3.2-.7.2-1.3c-.03.01 0-3.5 0-3.5l1.1 0l0 6.6l-1 0zm7.2-2.1c0 0 1.1.1 1.1.1c-.2.7-.5 1.2-1 1.6c-.5.3-1.1.5-1.9.5c-.9 0-1.7-.3-2.3-.9c-.5-.6-.8-1.4-.8-2.5c0-1.1.3-1.9.8-2.6c.6-.6 1.3-.9 2.3-.9c.8 0 1.6.3 2.1.9c.6.6.9 1.5.9 2.6c0 0 0 .1 0 .3c0 0-5 0-5 0c.1.7.3 1.2.6 1.6c.4.4.9.6 1.4.6c.4 0 .8-.1 1.1-.3c.3-.2.5-.6.7-1zm-3.7-1.9c0 0 3.7 0 3.7 0c-.1-.5-.2-.9-.4-1.2c-.4-.4-.9-.7-1.4-.7c-.5 0-1 .2-1.3.6c-.4.3-.6.8-.6 1.3zm5.7 2c0 0 1.1-.2 1.1-.2c.1.5.3.8.6 1.1c.3.2.6.3 1.2.3c.5 0 .9-.1 1.1-.3c.3-.2.4-.5.4-.7c0-.3-.1-.5-.4-.6c-.1-.1-.5-.3-1.1-.4c-.8-.2-1.4-.4-1.7-.6c-.3-.1-.6-.3-.7-.6c-.2-.3-.3-.5-.3-.9c0-.3.1-.5.2-.8c.2-.2.3-.5.6-.6c.2-.1.4-.3.7-.3c.3-.1.6-.2 1-.2c.5 0 .9.1 1.3.2c.4.2.7.4.9.7c.2.2.3.5.4 1c0 0-1.1.1-1.1.1c-.1-.3-.2-.6-.4-.8c-.3-.2-.6-.3-1.1-.3c-.5 0-.8.1-1.1.3c-.2.2-.3.4-.3.6c0 .1.1.3.1.4c.1.1.3.2.5.3c.1 0 .4.1 1 .3c.8.2 1.3.4 1.6.5c.3.1.6.3.8.6c.1.2.2.6.2.9c0 .4-.1.8-.3 1.1c-.2.3-.5.6-.9.8c-.5.1-.9.2-1.4.2c-.9 0-1.5-.1-2-.5c-.4-.4-.7-.9-.9-1.6zm8.7 1c.1 0 .3 0 .5 0c0 0 .1 1 .1 1c-.3 0-.6.1-.8.1c-.4 0-.8-.1-1-.2c-.2-.2-.4-.3-.4-.5c-.1-.2-.2-.7-.2-1.4c.02.05 0-3.8 0-3.8l-.8 0l0-.8l.8 0l0-1.7l1.1-.6l0 2.3l1.2 0l0 .8l-1.2 0c0 0 .03 3.91 0 3.9c0 .3 0 .5.1.6c0 .1.1.2.2.2c.1.1.2.1.4.1c0 0 0 0 0 0zm1.5 1l0-6.6l1 0c0 0 .02.97 0 1c.3-.5.5-.8.7-1c.2-.1.5-.2.7-.2c.4 0 .8.1 1.2.4c0 0-.4 1-.4 1c-.3-.1-.5-.2-.8-.2c-.3 0-.5.1-.7.2c-.2.1-.3.4-.4.6c-.1.4-.2.8-.2 1.3c.03.02 0 3.5 0 3.5l-1.1 0zm4.4-7.9l0-1.2l1.1 0l0 1.2l-1.1 0zm0 7.9l0-6.6l1.1 0l0 6.6l-1.1 0zm7.2 0c-.1-.3-.2-.5-.2-.8c-.4.3-.8.6-1.2.7c-.4.2-.8.2-1.2.2c-.8 0-1.3-.1-1.7-.5c-.4-.4-.6-.8-.6-1.4c0-.3.1-.6.2-.8c.2-.3.4-.5.6-.7c.3-.2.5-.3.8-.4c.2 0 .6-.1 1-.1c.9-.1 1.6-.3 2-.4c0-.2 0-.3 0-.3c0-.5-.1-.8-.3-1c-.3-.2-.7-.4-1.3-.4c-.5 0-.9.1-1.1.3c-.3.2-.5.5-.6 1c0 0-1.1-.1-1.1-.1c.1-.5.3-.9.5-1.2c.2-.3.6-.5 1-.6c.4-.2.9-.3 1.5-.3c.6 0 1 .1 1.4.2c.3.2.6.3.7.5c.2.2.3.5.4.8c0 .2 0 .5 0 1c0 0 0 1.5 0 1.5c0 1.1.1 1.7.1 2c.1.3.2.5.3.8c0-.02-1.2 0-1.2 0c0 0 .03-.02 0 0zm-.3-3.3c-.4.1-1 .3-1.8.4c-.5.1-.8.1-1 .2c-.2.1-.3.2-.4.4c-.1.1-.2.3-.2.5c0 .3.1.6.3.8c.3.2.6.3 1 .3c.5 0 .9-.1 1.2-.3c.3-.2.6-.5.7-.8c.2-.3.2-.6.2-1.1c0 0 0-.4 0-.4zm2.8 3.3l0-6.6l1 0c0 0-.03.91 0 .9c.5-.7 1.2-1.1 2.1-1.1c.4 0 .7.1 1.1.2c.3.2.6.4.7.6c.2.2.3.5.4.8c0 .2 0 .6 0 1.1c.04.02 0 4.1 0 4.1l-1.1 0c0 0 .02-4.04 0-4c0-.5 0-.8-.1-1.1c-.1-.2-.3-.4-.5-.5c-.2-.1-.5-.2-.8-.2c-.4 0-.8.1-1.2.4c-.3.4-.5.9-.5 1.8c-.01-.03 0 3.6 0 3.6l-1.1 0z" stroke="none" fill="#ffffff"/></g></svg>