<?xml version="1.0" standalone="no"?>
<!DOCTYPE svg PUBLIC "-//W3C//DTD SVG 1.1//EN" "http://www.w3.org/Graphics/SVG/1.1/DTD/svg11.dtd">
<svg xmlns="http://www.w3.org/2000/svg" version="1.1" width="128.2px" height="69.9px" viewBox="0 -6 128.2 69.9" style="top:-6px">
  <desc>E-SIGNED Envelopes Since 2018</desc>
  <defs/>
  <g id="Polygon63960">
    <path d="M 0.9 25.3 L 0.9 17.6 L 6.5 17.6 L 6.5 18.5 L 1.9 18.5 L 1.9 20.9 L 6.2 20.9 L 6.2 21.8 L 1.9 21.8 L 1.9 24.4 L 6.6 24.4 L 6.6 25.3 L 0.9 25.3 Z M 8.1 25.3 L 8.1 19.7 L 8.9 19.7 C 8.9 19.7 8.91 20.5 8.9 20.5 C 9.3 19.9 9.9 19.6 10.7 19.6 C 11 19.6 11.3 19.6 11.6 19.8 C 11.9 19.9 12.1 20 12.3 20.2 C 12.4 20.4 12.5 20.7 12.6 20.9 C 12.6 21.1 12.6 21.4 12.6 21.9 C 12.62 21.87 12.6 25.3 12.6 25.3 L 11.7 25.3 C 11.7 25.3 11.67 21.9 11.7 21.9 C 11.7 21.5 11.6 21.2 11.6 21 C 11.5 20.8 11.4 20.7 11.2 20.6 C 11 20.5 10.8 20.4 10.5 20.4 C 10.1 20.4 9.7 20.5 9.4 20.8 C 9.2 21 9 21.5 9 22.3 C 9.01 22.25 9 25.3 9 25.3 L 8.1 25.3 Z M 15.8 25.3 L 13.6 19.7 L 14.6 19.7 C 14.6 19.7 15.82 23.07 15.8 23.1 C 16 23.4 16.1 23.8 16.2 24.2 C 16.3 23.9 16.4 23.5 16.5 23.1 C 16.54 23.13 17.8 19.7 17.8 19.7 L 18.8 19.7 L 16.6 25.3 L 15.8 25.3 Z M 23.6 23.5 C 23.6 23.5 24.5 23.6 24.5 23.6 C 24.4 24.2 24.1 24.7 23.7 25 C 23.3 25.3 22.7 25.4 22.1 25.4 C 21.3 25.4 20.6 25.2 20.1 24.7 C 19.6 24.2 19.4 23.5 19.4 22.6 C 19.4 21.6 19.6 20.9 20.1 20.4 C 20.6 19.8 21.2 19.6 22 19.6 C 22.8 19.6 23.4 19.8 23.9 20.3 C 24.3 20.9 24.6 21.6 24.6 22.5 C 24.6 22.6 24.6 22.6 24.6 22.8 C 24.6 22.8 20.4 22.8 20.4 22.8 C 20.4 23.4 20.6 23.8 20.9 24.2 C 21.2 24.5 21.6 24.7 22.1 24.7 C 22.4 24.7 22.7 24.6 23 24.4 C 23.2 24.2 23.4 23.9 23.6 23.5 Z M 20.4 22 C 20.4 22 23.6 22 23.6 22 C 23.5 21.5 23.4 21.1 23.2 20.9 C 22.9 20.5 22.5 20.4 22 20.4 C 21.6 20.4 21.2 20.5 20.9 20.8 C 20.6 21.1 20.5 21.5 20.4 22 Z M 25.8 25.3 L 25.8 17.6 L 26.8 17.6 L 26.8 25.3 L 25.8 25.3 Z M 28 22.5 C 28 21.5 28.3 20.7 28.9 20.2 C 29.4 19.8 30 19.6 30.7 19.6 C 31.4 19.6 32.1 19.8 32.5 20.3 C 33 20.8 33.3 21.5 33.3 22.4 C 33.3 23.2 33.2 23.7 33 24.1 C 32.7 24.6 32.4 24.9 32 25.1 C 31.6 25.3 31.1 25.4 30.7 25.4 C 29.9 25.4 29.2 25.2 28.7 24.7 C 28.3 24.2 28 23.5 28 22.5 Z M 29 22.5 C 29 23.2 29.2 23.8 29.5 24.1 C 29.8 24.5 30.2 24.7 30.7 24.7 C 31.1 24.7 31.5 24.5 31.8 24.1 C 32.1 23.8 32.3 23.2 32.3 22.5 C 32.3 21.8 32.1 21.3 31.8 20.9 C 31.5 20.5 31.1 20.4 30.7 20.4 C 30.2 20.4 29.8 20.5 29.5 20.9 C 29.2 21.3 29 21.8 29 22.5 Z M 34.5 27.5 L 34.5 19.7 L 35.4 19.7 C 35.4 19.7 35.38 20.43 35.4 20.4 C 35.6 20.1 35.8 19.9 36.1 19.8 C 36.3 19.6 36.6 19.6 37 19.6 C 37.5 19.6 37.9 19.7 38.3 19.9 C 38.6 20.2 38.9 20.5 39.1 21 C 39.3 21.4 39.4 21.9 39.4 22.5 C 39.4 23 39.3 23.6 39.1 24 C 38.9 24.5 38.6 24.8 38.2 25.1 C 37.8 25.3 37.4 25.4 36.9 25.4 C 36.6 25.4 36.3 25.4 36.1 25.2 C 35.8 25.1 35.6 24.9 35.5 24.7 C 35.46 24.74 35.5 27.5 35.5 27.5 L 34.5 27.5 Z M 35.4 22.5 C 35.4 23.3 35.5 23.8 35.8 24.1 C 36.1 24.5 36.5 24.7 36.9 24.7 C 37.3 24.7 37.7 24.5 38 24.1 C 38.3 23.8 38.4 23.2 38.4 22.5 C 38.4 21.7 38.3 21.2 38 20.9 C 37.7 20.5 37.3 20.3 36.9 20.3 C 36.5 20.3 36.2 20.5 35.8 20.9 C 35.5 21.3 35.4 21.8 35.4 22.5 Z M 44.5 23.5 C 44.5 23.5 45.5 23.6 45.5 23.6 C 45.3 24.2 45 24.7 44.6 25 C 44.2 25.3 43.7 25.4 43 25.4 C 42.2 25.4 41.5 25.2 41 24.7 C 40.6 24.2 40.3 23.5 40.3 22.6 C 40.3 21.6 40.6 20.9 41.1 20.4 C 41.5 19.8 42.2 19.6 43 19.6 C 43.7 19.6 44.3 19.8 44.8 20.3 C 45.3 20.9 45.5 21.6 45.5 22.5 C 45.5 22.6 45.5 22.6 45.5 22.8 C 45.5 22.8 41.3 22.8 41.3 22.8 C 41.3 23.4 41.5 23.8 41.8 24.2 C 42.1 24.5 42.5 24.7 43 24.7 C 43.4 24.7 43.7 24.6 43.9 24.4 C 44.2 24.2 44.3 23.9 44.5 23.5 Z M 41.4 22 C 41.4 22 44.5 22 44.5 22 C 44.5 21.5 44.3 21.1 44.1 20.9 C 43.8 20.5 43.4 20.4 43 20.4 C 42.5 20.4 42.2 20.5 41.9 20.8 C 41.6 21.1 41.4 21.5 41.4 22 Z M 46.4 23.6 C 46.4 23.6 47.3 23.5 47.3 23.5 C 47.4 23.9 47.5 24.2 47.8 24.4 C 48 24.6 48.4 24.7 48.8 24.7 C 49.2 24.7 49.6 24.6 49.8 24.4 C 50 24.2 50.1 24 50.1 23.8 C 50.1 23.6 50 23.4 49.8 23.3 C 49.7 23.2 49.4 23.1 48.8 22.9 C 48.1 22.8 47.7 22.6 47.4 22.5 C 47.1 22.4 46.9 22.2 46.8 21.9 C 46.6 21.7 46.6 21.5 46.6 21.2 C 46.6 20.9 46.6 20.7 46.7 20.5 C 46.8 20.3 47 20.1 47.2 20 C 47.3 19.9 47.5 19.8 47.8 19.7 C 48.1 19.6 48.3 19.6 48.6 19.6 C 49.1 19.6 49.5 19.6 49.8 19.8 C 50.1 19.9 50.4 20.1 50.5 20.3 C 50.7 20.5 50.8 20.8 50.9 21.2 C 50.9 21.2 49.9 21.3 49.9 21.3 C 49.9 21 49.8 20.8 49.6 20.6 C 49.4 20.4 49.1 20.4 48.7 20.4 C 48.3 20.4 47.9 20.4 47.8 20.6 C 47.6 20.7 47.5 20.9 47.5 21.1 C 47.5 21.2 47.5 21.3 47.6 21.4 C 47.7 21.5 47.8 21.6 48 21.7 C 48.1 21.7 48.3 21.8 48.8 21.9 C 49.5 22.1 49.9 22.2 50.2 22.4 C 50.5 22.5 50.7 22.6 50.8 22.9 C 51 23.1 51.1 23.3 51.1 23.7 C 51.1 24 51 24.3 50.8 24.6 C 50.6 24.8 50.3 25.1 50 25.2 C 49.6 25.4 49.2 25.4 48.8 25.4 C 48.1 25.4 47.5 25.3 47.1 25 C 46.7 24.7 46.5 24.2 46.4 23.6 Z M 55.2 22.8 C 55.2 22.8 56.2 22.7 56.2 22.7 C 56.2 23.1 56.3 23.5 56.5 23.7 C 56.7 23.9 56.9 24.1 57.3 24.3 C 57.6 24.5 58 24.5 58.5 24.5 C 58.9 24.5 59.2 24.5 59.5 24.4 C 59.8 24.2 60 24.1 60.2 23.9 C 60.3 23.7 60.4 23.5 60.4 23.2 C 60.4 23 60.3 22.8 60.2 22.6 C 60 22.4 59.8 22.2 59.5 22.1 C 59.3 22 58.8 21.9 58.1 21.7 C 57.4 21.6 56.9 21.4 56.6 21.3 C 56.2 21.1 56 20.8 55.8 20.5 C 55.6 20.2 55.5 19.9 55.5 19.6 C 55.5 19.2 55.6 18.8 55.8 18.5 C 56.1 18.1 56.4 17.9 56.8 17.7 C 57.2 17.5 57.7 17.4 58.2 17.4 C 58.8 17.4 59.3 17.5 59.8 17.7 C 60.2 17.9 60.5 18.2 60.8 18.5 C 61 18.9 61.1 19.3 61.1 19.7 C 61.1 19.7 60.2 19.8 60.2 19.8 C 60.1 19.3 59.9 19 59.6 18.7 C 59.3 18.5 58.9 18.3 58.3 18.3 C 57.6 18.3 57.2 18.4 56.9 18.7 C 56.6 18.9 56.5 19.2 56.5 19.5 C 56.5 19.8 56.6 20 56.8 20.2 C 57 20.4 57.5 20.6 58.3 20.7 C 59.2 20.9 59.7 21.1 60.1 21.2 C 60.5 21.4 60.8 21.7 61.1 22 C 61.3 22.3 61.4 22.7 61.4 23.1 C 61.4 23.5 61.3 23.9 61 24.3 C 60.8 24.7 60.4 24.9 60 25.1 C 59.6 25.4 59.1 25.5 58.5 25.5 C 57.8 25.5 57.2 25.4 56.7 25.1 C 56.3 24.9 55.9 24.6 55.6 24.2 C 55.4 23.8 55.2 23.3 55.2 22.8 Z M 62.8 18.7 L 62.8 17.6 L 63.7 17.6 L 63.7 18.7 L 62.8 18.7 Z M 62.8 25.3 L 62.8 19.7 L 63.7 19.7 L 63.7 25.3 L 62.8 25.3 Z M 65.3 25.3 L 65.3 19.7 L 66.1 19.7 C 66.1 19.7 66.14 20.5 66.1 20.5 C 66.6 19.9 67.1 19.6 67.9 19.6 C 68.3 19.6 68.6 19.6 68.9 19.8 C 69.1 19.9 69.4 20 69.5 20.2 C 69.6 20.4 69.7 20.7 69.8 20.9 C 69.8 21.1 69.9 21.4 69.9 21.9 C 69.85 21.87 69.9 25.3 69.9 25.3 L 68.9 25.3 C 68.9 25.3 68.9 21.9 68.9 21.9 C 68.9 21.5 68.9 21.2 68.8 21 C 68.7 20.8 68.6 20.7 68.4 20.6 C 68.2 20.5 68 20.4 67.7 20.4 C 67.3 20.4 67 20.5 66.7 20.8 C 66.4 21 66.2 21.5 66.2 22.3 C 66.24 22.25 66.2 25.3 66.2 25.3 L 65.3 25.3 Z M 75.1 23.3 C 75.1 23.3 76 23.4 76 23.4 C 75.9 24 75.7 24.5 75.2 24.9 C 74.8 25.3 74.3 25.4 73.7 25.4 C 72.9 25.4 72.3 25.2 71.8 24.7 C 71.4 24.2 71.1 23.5 71.1 22.5 C 71.1 21.9 71.2 21.4 71.4 20.9 C 71.6 20.5 71.9 20.1 72.3 19.9 C 72.8 19.7 73.2 19.6 73.7 19.6 C 74.3 19.6 74.8 19.7 75.2 20 C 75.6 20.3 75.8 20.8 75.9 21.4 C 75.9 21.4 75 21.5 75 21.5 C 74.9 21.1 74.8 20.8 74.5 20.6 C 74.3 20.5 74 20.4 73.7 20.4 C 73.2 20.4 72.9 20.5 72.6 20.9 C 72.3 21.2 72.1 21.8 72.1 22.5 C 72.1 23.3 72.3 23.8 72.5 24.2 C 72.8 24.5 73.2 24.7 73.7 24.7 C 74 24.7 74.4 24.6 74.6 24.3 C 74.9 24.1 75 23.7 75.1 23.3 Z M 80.8 23.5 C 80.8 23.5 81.8 23.6 81.8 23.6 C 81.6 24.2 81.3 24.7 80.9 25 C 80.5 25.3 80 25.4 79.3 25.4 C 78.5 25.4 77.8 25.2 77.4 24.7 C 76.9 24.2 76.6 23.5 76.6 22.6 C 76.6 21.6 76.9 20.9 77.4 20.4 C 77.8 19.8 78.5 19.6 79.3 19.6 C 80 19.6 80.6 19.8 81.1 20.3 C 81.6 20.9 81.8 21.6 81.8 22.5 C 81.8 22.6 81.8 22.6 81.8 22.8 C 81.8 22.8 77.6 22.8 77.6 22.8 C 77.7 23.4 77.8 23.8 78.1 24.2 C 78.5 24.5 78.8 24.7 79.3 24.7 C 79.7 24.7 80 24.6 80.2 24.4 C 80.5 24.2 80.7 23.9 80.8 23.5 Z M 77.7 22 C 77.7 22 80.8 22 80.8 22 C 80.8 21.5 80.6 21.1 80.4 20.9 C 80.1 20.5 79.7 20.4 79.3 20.4 C 78.8 20.4 78.5 20.5 78.2 20.8 C 77.9 21.1 77.7 21.5 77.7 22 Z M 90.9 24.4 L 90.9 25.3 C 90.9 25.3 85.82 25.32 85.8 25.3 C 85.8 25.1 85.8 24.9 85.9 24.7 C 86.1 24.3 86.3 24 86.6 23.6 C 86.8 23.3 87.3 22.9 87.8 22.5 C 88.6 21.8 89.2 21.2 89.5 20.8 C 89.8 20.4 90 20 90 19.7 C 90 19.3 89.8 19 89.6 18.7 C 89.3 18.4 88.9 18.3 88.5 18.3 C 88 18.3 87.7 18.5 87.4 18.7 C 87.1 19 87 19.4 87 19.9 C 87 19.9 86 19.8 86 19.8 C 86.1 19 86.3 18.5 86.8 18.1 C 87.2 17.7 87.8 17.5 88.5 17.5 C 89.3 17.5 89.9 17.7 90.3 18.1 C 90.7 18.6 90.9 19.1 90.9 19.7 C 90.9 20 90.9 20.3 90.7 20.6 C 90.6 20.9 90.4 21.2 90.1 21.5 C 89.8 21.9 89.3 22.3 88.6 22.9 C 88.1 23.4 87.7 23.7 87.5 23.9 C 87.4 24.1 87.2 24.2 87.1 24.4 C 87.14 24.41 90.9 24.4 90.9 24.4 Z M 92.8 24.6 C 92.3 24 92.1 23 92.1 21.5 C 92.1 20.6 92.2 19.8 92.4 19.3 C 92.5 18.7 92.8 18.3 93.2 18 C 93.6 17.7 94 17.5 94.6 17.5 C 95 17.5 95.4 17.6 95.7 17.8 C 96 17.9 96.3 18.2 96.5 18.5 C 96.7 18.8 96.8 19.2 97 19.7 C 97.1 20.1 97.1 20.7 97.1 21.5 C 97.1 22.4 97 23.1 96.9 23.7 C 96.7 24.3 96.4 24.7 96 25 C 95.6 25.3 95.2 25.5 94.6 25.5 C 93.9 25.5 93.3 25.2 92.8 24.6 C 92.8 24.6 92.8 24.6 92.8 24.6 Z M 93.5 18.9 C 93.2 19.3 93.1 20.2 93.1 21.5 C 93.1 22.8 93.2 23.6 93.5 24 C 93.8 24.5 94.2 24.7 94.6 24.7 C 95 24.7 95.4 24.5 95.7 24 C 96 23.6 96.2 22.8 96.2 21.5 C 96.2 20.2 96 19.4 95.7 18.9 C 95.4 18.5 95 18.3 94.6 18.3 C 94.2 18.3 93.8 18.5 93.5 18.9 C 93.5 18.9 93.5 18.9 93.5 18.9 Z M 101.8 25.3 L 100.8 25.3 C 100.8 25.3 100.85 19.25 100.8 19.3 C 100.6 19.5 100.3 19.7 99.9 19.9 C 99.6 20.1 99.2 20.3 98.9 20.4 C 98.9 20.4 98.9 19.5 98.9 19.5 C 99.5 19.2 99.9 18.9 100.3 18.6 C 100.7 18.2 101 17.9 101.2 17.5 C 101.19 17.53 101.8 17.5 101.8 17.5 L 101.8 25.3 Z M 105.8 21.1 C 105.4 21 105.1 20.8 104.9 20.5 C 104.7 20.2 104.7 19.9 104.7 19.5 C 104.7 19 104.9 18.5 105.3 18.1 C 105.7 17.7 106.2 17.5 106.9 17.5 C 107.6 17.5 108.1 17.7 108.5 18.1 C 108.9 18.5 109.1 19 109.1 19.6 C 109.1 19.9 109 20.2 108.9 20.5 C 108.7 20.8 108.4 21 108 21.1 C 108.5 21.3 108.8 21.5 109.1 21.9 C 109.3 22.2 109.5 22.6 109.5 23.1 C 109.5 23.8 109.2 24.3 108.7 24.8 C 108.3 25.2 107.7 25.5 106.9 25.5 C 106.1 25.5 105.5 25.2 105 24.8 C 104.6 24.3 104.3 23.8 104.3 23.1 C 104.3 22.6 104.5 22.2 104.7 21.8 C 105 21.5 105.3 21.2 105.8 21.1 Z M 105.6 19.5 C 105.6 19.9 105.7 20.2 106 20.4 C 106.2 20.6 106.5 20.7 106.9 20.7 C 107.3 20.7 107.6 20.6 107.8 20.4 C 108 20.2 108.2 19.9 108.2 19.6 C 108.2 19.2 108 18.9 107.8 18.7 C 107.6 18.4 107.3 18.3 106.9 18.3 C 106.5 18.3 106.2 18.4 106 18.7 C 105.7 18.9 105.6 19.2 105.6 19.5 Z M 105.3 23.1 C 105.3 23.4 105.4 23.6 105.5 23.9 C 105.6 24.1 105.8 24.3 106.1 24.5 C 106.3 24.6 106.6 24.7 106.9 24.7 C 107.4 24.7 107.7 24.5 108 24.2 C 108.3 23.9 108.5 23.6 108.5 23.1 C 108.5 22.7 108.3 22.3 108 22 C 107.7 21.7 107.3 21.5 106.9 21.5 C 106.4 21.5 106.1 21.7 105.8 22 C 105.5 22.3 105.3 22.6 105.3 23.1 Z " stroke="none" fill="#ffffff" fill-opacity="0.84"/>
  </g>
  <g id="Polygon63959">
    <path d="M 1.5 11.6 L 1.5 0.2 L 9.8 0.2 L 9.8 1.5 L 3.1 1.5 L 3.1 5 L 9.4 5 L 9.4 6.4 L 3.1 6.4 L 3.1 10.3 L 10.1 10.3 L 10.1 11.6 L 1.5 11.6 Z M 11.7 8.2 L 11.7 6.8 L 16 6.8 L 16 8.2 L 11.7 8.2 Z M 17.5 8 C 17.5 8 19 7.8 19 7.8 C 19 8.4 19.2 8.9 19.4 9.2 C 19.7 9.6 20.1 9.9 20.6 10.1 C 21.1 10.4 21.7 10.5 22.3 10.5 C 22.9 10.5 23.4 10.4 23.9 10.2 C 24.3 10 24.6 9.8 24.9 9.5 C 25.1 9.2 25.2 8.9 25.2 8.5 C 25.2 8.2 25.1 7.9 24.9 7.6 C 24.7 7.3 24.3 7.1 23.8 6.9 C 23.5 6.8 22.9 6.6 21.8 6.4 C 20.7 6.1 20 5.9 19.6 5.6 C 19 5.4 18.6 5 18.4 4.6 C 18.1 4.2 18 3.7 18 3.2 C 18 2.6 18.1 2 18.5 1.5 C 18.8 1 19.3 0.7 19.9 0.4 C 20.5 0.1 21.2 0 22 0 C 22.8 0 23.6 0.1 24.2 0.4 C 24.9 0.7 25.4 1.1 25.7 1.6 C 26.1 2.1 26.3 2.7 26.3 3.4 C 26.3 3.4 24.8 3.5 24.8 3.5 C 24.8 2.8 24.5 2.3 24.1 1.9 C 23.6 1.5 22.9 1.3 22.1 1.3 C 21.1 1.3 20.5 1.5 20.1 1.8 C 19.6 2.2 19.4 2.6 19.4 3 C 19.4 3.5 19.6 3.8 19.9 4.1 C 20.2 4.3 20.9 4.6 22.2 4.9 C 23.4 5.2 24.2 5.4 24.7 5.6 C 25.4 5.9 25.8 6.3 26.2 6.8 C 26.5 7.2 26.6 7.8 26.6 8.4 C 26.6 9 26.5 9.6 26.1 10.1 C 25.8 10.7 25.3 11.1 24.6 11.4 C 24 11.7 23.2 11.8 22.4 11.8 C 21.4 11.8 20.5 11.7 19.8 11.4 C 19.1 11.1 18.6 10.6 18.2 10 C 17.8 9.4 17.6 8.7 17.5 8 Z M 29.5 11.6 L 29.5 0.2 L 31 0.2 L 31 11.6 L 29.5 11.6 Z M 39.6 7.1 L 39.6 5.8 L 44.5 5.8 C 44.5 5.8 44.46 10.04 44.5 10 C 43.7 10.6 42.9 11.1 42.2 11.4 C 41.4 11.7 40.6 11.8 39.7 11.8 C 38.6 11.8 37.6 11.6 36.7 11.1 C 35.7 10.6 35.1 9.9 34.6 9 C 34.1 8.1 33.9 7.1 33.9 6 C 33.9 4.9 34.1 3.8 34.6 2.9 C 35 1.9 35.7 1.2 36.6 0.7 C 37.5 0.2 38.5 0 39.6 0 C 40.4 0 41.2 0.1 41.8 0.4 C 42.5 0.7 43 1 43.4 1.5 C 43.8 2 44.1 2.6 44.3 3.4 C 44.3 3.4 42.9 3.8 42.9 3.8 C 42.8 3.2 42.5 2.7 42.3 2.4 C 42 2.1 41.7 1.8 41.2 1.6 C 40.7 1.4 40.2 1.3 39.6 1.3 C 38.9 1.3 38.3 1.4 37.8 1.6 C 37.3 1.8 36.9 2.1 36.6 2.4 C 36.3 2.8 36.1 3.2 35.9 3.6 C 35.6 4.3 35.4 5 35.4 5.9 C 35.4 6.9 35.6 7.7 36 8.4 C 36.3 9.1 36.8 9.6 37.5 10 C 38.2 10.3 38.9 10.5 39.6 10.5 C 40.3 10.5 40.9 10.3 41.6 10.1 C 42.2 9.8 42.7 9.6 43 9.3 C 42.98 9.27 43 7.1 43 7.1 L 39.6 7.1 Z M 47.2 11.6 L 47.2 0.2 L 48.8 0.2 L 54.8 9.2 L 54.8 0.2 L 56.2 0.2 L 56.2 11.6 L 54.7 11.6 L 48.7 2.6 L 48.7 11.6 L 47.2 11.6 Z M 59.4 11.6 L 59.4 0.2 L 67.6 0.2 L 67.6 1.5 L 60.9 1.5 L 60.9 5 L 67.2 5 L 67.2 6.4 L 60.9 6.4 L 60.9 10.3 L 67.9 10.3 L 67.9 11.6 L 59.4 11.6 Z M 70.6 11.6 L 70.6 0.2 C 70.6 0.2 74.5 0.19 74.5 0.2 C 75.4 0.2 76.1 0.2 76.5 0.4 C 77.2 0.5 77.8 0.8 78.2 1.2 C 78.8 1.7 79.3 2.3 79.6 3.1 C 79.9 3.9 80 4.8 80 5.8 C 80 6.7 79.9 7.5 79.7 8.2 C 79.5 8.8 79.2 9.4 78.9 9.8 C 78.6 10.3 78.3 10.6 77.9 10.9 C 77.5 11.1 77.1 11.3 76.5 11.4 C 76 11.6 75.4 11.6 74.7 11.6 C 74.69 11.63 70.6 11.6 70.6 11.6 Z M 72.1 10.3 C 72.1 10.3 74.52 10.28 74.5 10.3 C 75.3 10.3 75.9 10.2 76.3 10.1 C 76.7 9.9 77.1 9.7 77.3 9.5 C 77.7 9.1 78 8.6 78.2 8 C 78.4 7.4 78.5 6.7 78.5 5.8 C 78.5 4.6 78.3 3.7 77.9 3.1 C 77.5 2.4 77 2 76.4 1.8 C 76 1.6 75.4 1.5 74.5 1.5 C 74.48 1.54 72.1 1.5 72.1 1.5 L 72.1 10.3 Z " stroke="none" fill="#ffffff" fill-opacity="0.84"/>
  </g>
</svg>