<?xml version="1.0" standalone="no"?>
<!DOCTYPE svg PUBLIC "-//W3C//DTD SVG 1.1//EN" "http://www.w3.org/Graphics/SVG/1.1/DTD/svg11.dtd">
<svg xmlns="http://www.w3.org/2000/svg" version="1.1" width="166px" height="73.6px" viewBox="0 -6 166 73.6" style="top:-6px">
  <desc>Culture — A Practical Framework for Sustainable Change</desc>
  <defs/>
  <g id="Polygon60997">
    <path d="M 0.8 49.3 C 0.8 49.3 2.3 49.1 2.3 49.1 C 2.4 49.7 2.5 50.2 2.8 50.6 C 3 51 3.5 51.3 4 51.6 C 4.6 51.8 5.2 51.9 5.9 51.9 C 6.5 51.9 7 51.8 7.5 51.7 C 8 51.5 8.3 51.2 8.6 50.9 C 8.8 50.6 8.9 50.2 8.9 49.9 C 8.9 49.5 8.8 49.2 8.6 48.9 C 8.3 48.6 8 48.3 7.5 48.2 C 7.1 48 6.4 47.8 5.3 47.6 C 4.2 47.3 3.4 47 3 46.8 C 2.4 46.5 1.9 46.1 1.7 45.7 C 1.4 45.2 1.2 44.7 1.2 44.2 C 1.2 43.5 1.4 43 1.8 42.4 C 2.1 41.9 2.6 41.5 3.3 41.2 C 3.9 40.9 4.7 40.8 5.5 40.8 C 6.4 40.8 7.2 40.9 7.9 41.2 C 8.6 41.5 9.1 42 9.5 42.5 C 9.9 43.1 10.1 43.7 10.1 44.4 C 10.1 44.4 8.5 44.6 8.5 44.6 C 8.5 43.8 8.2 43.2 7.7 42.8 C 7.2 42.4 6.5 42.2 5.6 42.2 C 4.6 42.2 3.9 42.4 3.4 42.8 C 3 43.1 2.8 43.5 2.8 44 C 2.8 44.5 2.9 44.8 3.3 45.1 C 3.6 45.4 4.4 45.7 5.7 46 C 7 46.3 7.9 46.5 8.4 46.8 C 9.1 47.1 9.6 47.5 9.9 48 C 10.3 48.5 10.5 49.1 10.5 49.7 C 10.5 50.4 10.3 51 9.9 51.6 C 9.5 52.1 9 52.6 8.3 52.9 C 7.6 53.2 6.8 53.4 6 53.4 C 4.9 53.4 3.9 53.2 3.2 52.9 C 2.4 52.6 1.9 52.1 1.4 51.5 C 1 50.8 0.8 50.1 0.8 49.3 Z M 18.2 53.2 C 18.2 53.2 18.24 51.88 18.2 51.9 C 17.6 52.9 16.6 53.4 15.4 53.4 C 14.9 53.4 14.4 53.3 14 53.1 C 13.5 52.9 13.2 52.6 13 52.3 C 12.8 52 12.6 51.7 12.5 51.2 C 12.5 50.9 12.4 50.5 12.4 49.8 C 12.43 49.82 12.4 44.4 12.4 44.4 L 13.9 44.4 C 13.9 44.4 13.92 49.25 13.9 49.3 C 13.9 50 14 50.6 14 50.8 C 14.1 51.2 14.3 51.5 14.6 51.8 C 14.9 52 15.3 52.1 15.7 52.1 C 16.2 52.1 16.6 52 17 51.7 C 17.4 51.5 17.7 51.2 17.8 50.8 C 18 50.4 18.1 49.8 18.1 49.1 C 18.08 49.08 18.1 44.4 18.1 44.4 L 19.6 44.4 L 19.6 53.2 L 18.2 53.2 Z M 21.3 50.5 C 21.3 50.5 22.8 50.3 22.8 50.3 C 22.9 50.9 23.1 51.4 23.5 51.7 C 23.9 52 24.4 52.1 25.1 52.1 C 25.8 52.1 26.3 52 26.6 51.7 C 26.9 51.4 27.1 51.1 27.1 50.7 C 27.1 50.4 27 50.1 26.7 49.9 C 26.5 49.8 25.9 49.6 25.1 49.4 C 24 49.2 23.3 48.9 22.9 48.7 C 22.4 48.5 22.1 48.2 21.9 47.9 C 21.7 47.5 21.6 47.1 21.6 46.7 C 21.6 46.3 21.7 45.9 21.8 45.6 C 22 45.3 22.3 45 22.6 44.8 C 22.8 44.6 23.1 44.5 23.5 44.3 C 23.9 44.2 24.4 44.2 24.8 44.2 C 25.5 44.2 26.1 44.3 26.6 44.5 C 27.2 44.7 27.5 44.9 27.8 45.3 C 28 45.6 28.2 46.1 28.3 46.6 C 28.3 46.6 26.8 46.8 26.8 46.8 C 26.8 46.4 26.6 46 26.3 45.8 C 25.9 45.5 25.5 45.4 24.9 45.4 C 24.2 45.4 23.7 45.5 23.4 45.7 C 23.2 46 23 46.2 23 46.5 C 23 46.7 23.1 46.9 23.2 47.1 C 23.3 47.2 23.5 47.3 23.8 47.4 C 23.9 47.5 24.4 47.6 25.1 47.8 C 26.1 48.1 26.9 48.3 27.3 48.5 C 27.7 48.7 28 49 28.3 49.3 C 28.5 49.7 28.6 50.1 28.6 50.6 C 28.6 51.1 28.5 51.6 28.2 52 C 27.9 52.4 27.5 52.8 26.9 53 C 26.4 53.3 25.8 53.4 25.1 53.4 C 23.9 53.4 23.1 53.1 22.5 52.7 C 21.9 52.2 21.5 51.5 21.3 50.5 Z M 33 51.9 C 33.2 51.9 33.4 51.9 33.7 51.8 C 33.7 51.8 33.9 53.2 33.9 53.2 C 33.5 53.2 33.1 53.3 32.8 53.3 C 32.2 53.3 31.8 53.2 31.5 53 C 31.2 52.9 31 52.6 30.9 52.4 C 30.7 52.1 30.7 51.5 30.7 50.6 C 30.69 50.59 30.7 45.5 30.7 45.5 L 29.6 45.5 L 29.6 44.4 L 30.7 44.4 L 30.7 42.2 L 32.2 41.3 L 32.2 44.4 L 33.7 44.4 L 33.7 45.5 L 32.2 45.5 C 32.2 45.5 32.17 50.68 32.2 50.7 C 32.2 51.1 32.2 51.4 32.3 51.5 C 32.3 51.6 32.4 51.7 32.5 51.8 C 32.6 51.9 32.8 51.9 33 51.9 C 33 51.9 33 51.9 33 51.9 Z M 41.2 53.2 C 41 52.9 40.9 52.5 40.9 52.1 C 40.3 52.6 39.8 52.9 39.3 53.1 C 38.8 53.3 38.2 53.4 37.6 53.4 C 36.7 53.4 35.9 53.1 35.4 52.7 C 34.9 52.2 34.6 51.6 34.6 50.9 C 34.6 50.4 34.7 50 34.9 49.7 C 35.1 49.3 35.4 49 35.7 48.8 C 36 48.6 36.4 48.4 36.8 48.3 C 37.1 48.2 37.5 48.2 38.1 48.1 C 39.3 48 40.2 47.8 40.8 47.6 C 40.8 47.4 40.8 47.2 40.8 47.2 C 40.8 46.6 40.6 46.2 40.4 45.9 C 40 45.6 39.4 45.4 38.6 45.4 C 37.9 45.4 37.4 45.5 37.1 45.8 C 36.8 46 36.5 46.5 36.3 47.1 C 36.3 47.1 34.9 46.9 34.9 46.9 C 35 46.3 35.2 45.7 35.5 45.4 C 35.8 45 36.3 44.7 36.9 44.5 C 37.4 44.3 38.1 44.2 38.9 44.2 C 39.6 44.2 40.2 44.3 40.7 44.4 C 41.2 44.6 41.5 44.8 41.7 45.1 C 42 45.4 42.1 45.7 42.2 46.1 C 42.3 46.4 42.3 46.8 42.3 47.5 C 42.3 47.5 42.3 49.5 42.3 49.5 C 42.3 50.9 42.3 51.8 42.4 52.1 C 42.4 52.5 42.6 52.8 42.7 53.2 C 42.75 53.18 41.2 53.2 41.2 53.2 C 41.2 53.2 41.19 53.18 41.2 53.2 Z M 40.8 48.8 C 40.2 49 39.4 49.2 38.3 49.3 C 37.7 49.4 37.3 49.5 37 49.6 C 36.8 49.7 36.6 49.9 36.4 50.1 C 36.3 50.3 36.2 50.6 36.2 50.8 C 36.2 51.2 36.4 51.5 36.7 51.8 C 37 52.1 37.4 52.2 38 52.2 C 38.6 52.2 39.1 52.1 39.5 51.8 C 40 51.6 40.3 51.2 40.5 50.8 C 40.7 50.5 40.8 50 40.8 49.3 C 40.8 49.3 40.8 48.8 40.8 48.8 Z M 44.6 42.7 L 44.6 41 L 46.1 41 L 46.1 42.7 L 44.6 42.7 Z M 44.6 53.2 L 44.6 44.4 L 46.1 44.4 L 46.1 53.2 L 44.6 53.2 Z M 48.4 53.2 L 48.4 44.4 L 49.7 44.4 C 49.7 44.4 49.71 45.61 49.7 45.6 C 50.4 44.6 51.3 44.2 52.5 44.2 C 53.1 44.2 53.5 44.3 54 44.4 C 54.4 44.6 54.8 44.9 55 45.2 C 55.2 45.5 55.4 45.9 55.4 46.3 C 55.5 46.6 55.5 47.1 55.5 47.8 C 55.53 47.76 55.5 53.2 55.5 53.2 L 54 53.2 C 54 53.2 54.04 47.81 54 47.8 C 54 47.2 54 46.8 53.9 46.4 C 53.7 46.1 53.5 45.9 53.2 45.7 C 52.9 45.5 52.6 45.5 52.2 45.5 C 51.6 45.5 51 45.7 50.6 46.1 C 50.1 46.5 49.9 47.2 49.9 48.4 C 49.86 48.36 49.9 53.2 49.9 53.2 L 48.4 53.2 Z M 63.9 53.2 C 63.7 52.9 63.6 52.5 63.6 52.1 C 63 52.6 62.5 52.9 62 53.1 C 61.5 53.3 60.9 53.4 60.3 53.4 C 59.4 53.4 58.6 53.1 58.1 52.7 C 57.6 52.2 57.3 51.6 57.3 50.9 C 57.3 50.4 57.4 50 57.6 49.7 C 57.8 49.3 58.1 49 58.4 48.8 C 58.7 48.6 59.1 48.4 59.5 48.3 C 59.8 48.2 60.2 48.2 60.8 48.1 C 62 48 62.9 47.8 63.5 47.6 C 63.5 47.4 63.5 47.2 63.5 47.2 C 63.5 46.6 63.3 46.2 63 45.9 C 62.7 45.6 62.1 45.4 61.3 45.4 C 60.6 45.4 60.1 45.5 59.8 45.8 C 59.4 46 59.2 46.5 59 47.1 C 59 47.1 57.6 46.9 57.6 46.9 C 57.7 46.3 57.9 45.7 58.2 45.4 C 58.5 45 59 44.7 59.5 44.5 C 60.1 44.3 60.8 44.2 61.6 44.2 C 62.3 44.2 62.9 44.3 63.4 44.4 C 63.9 44.6 64.2 44.8 64.4 45.1 C 64.6 45.4 64.8 45.7 64.9 46.1 C 64.9 46.4 65 46.8 65 47.5 C 65 47.5 65 49.5 65 49.5 C 65 50.9 65 51.8 65.1 52.1 C 65.1 52.5 65.2 52.8 65.4 53.2 C 65.44 53.18 63.9 53.2 63.9 53.2 C 63.9 53.2 63.87 53.18 63.9 53.2 Z M 63.5 48.8 C 62.9 49 62.1 49.2 61 49.3 C 60.4 49.4 60 49.5 59.7 49.6 C 59.5 49.7 59.3 49.9 59.1 50.1 C 59 50.3 58.9 50.6 58.9 50.8 C 58.9 51.2 59.1 51.5 59.4 51.8 C 59.7 52.1 60.1 52.2 60.7 52.2 C 61.3 52.2 61.8 52.1 62.2 51.8 C 62.7 51.6 63 51.2 63.2 50.8 C 63.4 50.5 63.5 50 63.5 49.3 C 63.5 49.3 63.5 48.8 63.5 48.8 Z M 68.7 53.2 L 67.3 53.2 L 67.3 41 L 68.8 41 C 68.8 41 68.76 45.35 68.8 45.3 C 69.4 44.6 70.2 44.2 71.2 44.2 C 71.7 44.2 72.2 44.3 72.7 44.5 C 73.2 44.7 73.6 45 73.9 45.4 C 74.2 45.8 74.5 46.3 74.6 46.8 C 74.8 47.4 74.9 48 74.9 48.6 C 74.9 50.1 74.5 51.3 73.8 52.1 C 73 53 72.2 53.4 71.1 53.4 C 70.1 53.4 69.2 52.9 68.7 52.1 C 68.66 52.07 68.7 53.2 68.7 53.2 Z M 68.6 48.7 C 68.6 49.8 68.8 50.5 69.1 51 C 69.5 51.8 70.2 52.1 71 52.1 C 71.6 52.1 72.2 51.9 72.7 51.3 C 73.1 50.7 73.4 49.9 73.4 48.8 C 73.4 47.6 73.2 46.8 72.7 46.2 C 72.2 45.7 71.7 45.4 71 45.4 C 70.4 45.4 69.8 45.7 69.4 46.2 C 68.9 46.8 68.6 47.6 68.6 48.7 Z M 76.7 53.2 L 76.7 41 L 78.2 41 L 78.2 53.2 L 76.7 53.2 Z M 86.5 50.3 C 86.5 50.3 88.1 50.5 88.1 50.5 C 87.8 51.4 87.4 52.1 86.7 52.6 C 86.1 53.1 85.2 53.4 84.2 53.4 C 82.9 53.4 81.9 53 81.1 52.2 C 80.4 51.4 80 50.3 80 48.8 C 80 47.4 80.4 46.2 81.2 45.4 C 81.9 44.6 82.9 44.2 84.1 44.2 C 85.3 44.2 86.3 44.6 87 45.4 C 87.8 46.2 88.1 47.3 88.1 48.8 C 88.1 48.8 88.1 49 88.1 49.2 C 88.1 49.2 81.6 49.2 81.6 49.2 C 81.6 50.1 81.9 50.9 82.4 51.4 C 82.9 51.9 83.5 52.1 84.2 52.1 C 84.8 52.1 85.2 52 85.6 51.7 C 86 51.4 86.3 51 86.5 50.3 Z M 81.6 47.9 C 81.6 47.9 86.6 47.9 86.6 47.9 C 86.5 47.2 86.3 46.6 86 46.3 C 85.5 45.7 84.9 45.4 84.1 45.4 C 83.5 45.4 82.9 45.6 82.4 46.1 C 81.9 46.5 81.7 47.2 81.6 47.9 Z M 103.6 48.9 C 103.6 48.9 105.2 49.3 105.2 49.3 C 104.8 50.6 104.2 51.6 103.3 52.3 C 102.5 53 101.4 53.4 100.1 53.4 C 98.8 53.4 97.8 53.1 96.9 52.6 C 96.1 52 95.5 51.3 95.1 50.3 C 94.6 49.3 94.4 48.2 94.4 47 C 94.4 45.7 94.7 44.6 95.1 43.7 C 95.6 42.7 96.3 42 97.2 41.5 C 98.1 41 99.1 40.8 100.2 40.8 C 101.4 40.8 102.4 41.1 103.2 41.7 C 104.1 42.3 104.6 43.2 105 44.3 C 105 44.3 103.4 44.7 103.4 44.7 C 103.1 43.8 102.7 43.2 102.1 42.8 C 101.6 42.4 100.9 42.2 100.1 42.2 C 99.2 42.2 98.4 42.4 97.8 42.9 C 97.2 43.3 96.7 43.9 96.5 44.7 C 96.2 45.4 96.1 46.2 96.1 47 C 96.1 48 96.2 48.9 96.5 49.7 C 96.8 50.5 97.3 51.1 97.9 51.4 C 98.6 51.8 99.3 52 100 52 C 100.9 52 101.7 51.7 102.3 51.2 C 102.9 50.7 103.3 49.9 103.6 48.9 Z M 107 53.2 L 107 41 L 108.5 41 C 108.5 41 108.46 45.37 108.5 45.4 C 109.2 44.6 110 44.2 111.1 44.2 C 111.8 44.2 112.3 44.3 112.8 44.5 C 113.3 44.8 113.6 45.2 113.8 45.6 C 114 46.1 114.1 46.7 114.1 47.6 C 114.14 47.59 114.1 53.2 114.1 53.2 L 112.6 53.2 C 112.6 53.2 112.65 47.59 112.6 47.6 C 112.6 46.8 112.5 46.3 112.2 46 C 111.8 45.6 111.4 45.4 110.8 45.4 C 110.3 45.4 109.9 45.6 109.5 45.8 C 109.2 46 108.9 46.3 108.7 46.7 C 108.5 47.1 108.5 47.7 108.5 48.4 C 108.46 48.35 108.5 53.2 108.5 53.2 L 107 53.2 Z M 122.5 53.2 C 122.3 52.9 122.2 52.5 122.2 52.1 C 121.6 52.6 121.1 52.9 120.6 53.1 C 120.1 53.3 119.5 53.4 118.9 53.4 C 118 53.4 117.2 53.1 116.7 52.7 C 116.2 52.2 115.9 51.6 115.9 50.9 C 115.9 50.4 116 50 116.2 49.7 C 116.4 49.3 116.7 49 117 48.8 C 117.3 48.6 117.7 48.4 118.1 48.3 C 118.3 48.2 118.8 48.2 119.4 48.1 C 120.6 48 121.5 47.8 122 47.6 C 122.1 47.4 122.1 47.2 122.1 47.2 C 122.1 46.6 121.9 46.2 121.6 45.9 C 121.2 45.6 120.7 45.4 119.9 45.4 C 119.2 45.4 118.7 45.5 118.4 45.8 C 118 46 117.8 46.5 117.6 47.1 C 117.6 47.1 116.2 46.9 116.2 46.9 C 116.3 46.3 116.5 45.7 116.8 45.4 C 117.1 45 117.6 44.7 118.1 44.5 C 118.7 44.3 119.4 44.2 120.1 44.2 C 120.9 44.2 121.5 44.3 122 44.4 C 122.5 44.6 122.8 44.8 123 45.1 C 123.2 45.4 123.4 45.7 123.5 46.1 C 123.5 46.4 123.6 46.8 123.6 47.5 C 123.6 47.5 123.6 49.5 123.6 49.5 C 123.6 50.9 123.6 51.8 123.7 52.1 C 123.7 52.5 123.8 52.8 124 53.2 C 124.03 53.18 122.5 53.2 122.5 53.2 C 122.5 53.2 122.47 53.18 122.5 53.2 Z M 122 48.8 C 121.5 49 120.7 49.2 119.6 49.3 C 119 49.4 118.6 49.5 118.3 49.6 C 118 49.7 117.9 49.9 117.7 50.1 C 117.6 50.3 117.5 50.6 117.5 50.8 C 117.5 51.2 117.7 51.5 118 51.8 C 118.3 52.1 118.7 52.2 119.3 52.2 C 119.9 52.2 120.4 52.1 120.8 51.8 C 121.3 51.6 121.6 51.2 121.8 50.8 C 122 50.5 122 50 122 49.3 C 122 49.3 122 48.8 122 48.8 Z M 125.9 53.2 L 125.9 44.4 L 127.2 44.4 C 127.2 44.4 127.22 45.61 127.2 45.6 C 127.9 44.6 128.8 44.2 130 44.2 C 130.6 44.2 131 44.3 131.5 44.4 C 131.9 44.6 132.3 44.9 132.5 45.2 C 132.7 45.5 132.9 45.9 133 46.3 C 133 46.6 133 47.1 133 47.8 C 133.04 47.76 133 53.2 133 53.2 L 131.5 53.2 C 131.5 53.2 131.54 47.81 131.5 47.8 C 131.5 47.2 131.5 46.8 131.4 46.4 C 131.3 46.1 131 45.9 130.7 45.7 C 130.5 45.5 130.1 45.5 129.7 45.5 C 129.1 45.5 128.5 45.7 128.1 46.1 C 127.6 46.5 127.4 47.2 127.4 48.4 C 127.37 48.36 127.4 53.2 127.4 53.2 L 125.9 53.2 Z M 135.1 53.9 C 135.1 53.9 136.5 54.1 136.5 54.1 C 136.6 54.6 136.7 54.9 137 55.1 C 137.4 55.4 137.9 55.5 138.5 55.5 C 139.2 55.5 139.8 55.4 140.1 55.1 C 140.5 54.8 140.8 54.4 140.9 53.9 C 141 53.6 141 53 141 52 C 140.4 52.8 139.5 53.2 138.6 53.2 C 137.4 53.2 136.4 52.7 135.8 51.9 C 135.1 51 134.8 49.9 134.8 48.7 C 134.8 47.9 134.9 47.1 135.2 46.4 C 135.5 45.7 136 45.1 136.5 44.7 C 137.1 44.4 137.8 44.2 138.6 44.2 C 139.6 44.2 140.5 44.6 141.1 45.4 C 141.15 45.42 141.1 44.4 141.1 44.4 L 142.5 44.4 C 142.5 44.4 142.52 51.98 142.5 52 C 142.5 53.4 142.4 54.3 142.1 54.9 C 141.8 55.5 141.4 55.9 140.8 56.3 C 140.2 56.6 139.4 56.8 138.5 56.8 C 137.5 56.8 136.6 56.5 136 56 C 135.3 55.6 135 54.9 135.1 53.9 Z M 136.3 48.6 C 136.3 49.8 136.5 50.6 137 51.1 C 137.4 51.7 138 51.9 138.7 51.9 C 139.4 51.9 140 51.7 140.4 51.1 C 140.9 50.6 141.1 49.8 141.1 48.7 C 141.1 47.6 140.9 46.8 140.4 46.2 C 139.9 45.7 139.4 45.4 138.7 45.4 C 138 45.4 137.5 45.7 137 46.2 C 136.5 46.7 136.3 47.5 136.3 48.6 Z M 150.8 50.3 C 150.8 50.3 152.4 50.5 152.4 50.5 C 152.1 51.4 151.7 52.1 151 52.6 C 150.3 53.1 149.5 53.4 148.5 53.4 C 147.2 53.4 146.2 53 145.4 52.2 C 144.7 51.4 144.3 50.3 144.3 48.8 C 144.3 47.4 144.7 46.2 145.4 45.4 C 146.2 44.6 147.2 44.2 148.4 44.2 C 149.6 44.2 150.5 44.6 151.3 45.4 C 152 46.2 152.4 47.3 152.4 48.8 C 152.4 48.8 152.4 49 152.4 49.2 C 152.4 49.2 145.8 49.2 145.8 49.2 C 145.9 50.1 146.2 50.9 146.6 51.4 C 147.1 51.9 147.8 52.1 148.5 52.1 C 149 52.1 149.5 52 149.9 51.7 C 150.3 51.4 150.6 51 150.8 50.3 Z M 145.9 47.9 C 145.9 47.9 150.8 47.9 150.8 47.9 C 150.8 47.2 150.6 46.6 150.3 46.3 C 149.8 45.7 149.2 45.4 148.4 45.4 C 147.7 45.4 147.2 45.6 146.7 46.1 C 146.2 46.5 146 47.2 145.9 47.9 Z " stroke="none" fill="#003a5c"/>
  </g>
  <g id="Polygon60996">
    <path d="M 1.4 32.8 L 1.4 20.6 L 9.6 20.6 L 9.6 22 L 3 22 L 3 25.8 L 8.7 25.8 L 8.7 27.2 L 3 27.2 L 3 32.8 L 1.4 32.8 Z M 11.5 32.8 L 11.5 24 L 12.8 24 C 12.8 24 12.83 25.3 12.8 25.3 C 13.2 24.7 13.5 24.3 13.8 24.1 C 14.1 23.9 14.4 23.8 14.7 23.8 C 15.2 23.8 15.8 23.9 16.3 24.2 C 16.3 24.2 15.8 25.6 15.8 25.6 C 15.4 25.4 15 25.3 14.7 25.3 C 14.3 25.3 14 25.4 13.8 25.6 C 13.5 25.8 13.3 26.1 13.2 26.4 C 13.1 26.9 13 27.5 13 28.2 C 12.98 28.16 13 32.8 13 32.8 L 11.5 32.8 Z M 23.2 32.8 C 23.1 32.5 23 32.1 22.9 31.7 C 22.4 32.2 21.8 32.5 21.3 32.7 C 20.8 32.9 20.3 33 19.7 33 C 18.7 33 18 32.7 17.4 32.3 C 16.9 31.8 16.7 31.2 16.7 30.5 C 16.7 30 16.8 29.6 17 29.3 C 17.2 28.9 17.4 28.6 17.7 28.4 C 18 28.2 18.4 28 18.8 27.9 C 19.1 27.8 19.5 27.8 20.1 27.7 C 21.3 27.6 22.2 27.4 22.8 27.2 C 22.8 27 22.8 26.8 22.8 26.8 C 22.8 26.2 22.7 25.8 22.4 25.5 C 22 25.2 21.4 25 20.7 25 C 20 25 19.5 25.1 19.1 25.4 C 18.8 25.6 18.5 26.1 18.4 26.7 C 18.4 26.7 16.9 26.5 16.9 26.5 C 17 25.9 17.3 25.3 17.6 25 C 17.9 24.6 18.3 24.3 18.9 24.1 C 19.5 23.9 20.1 23.8 20.9 23.8 C 21.6 23.8 22.3 23.9 22.7 24 C 23.2 24.2 23.5 24.4 23.8 24.7 C 24 25 24.1 25.3 24.2 25.7 C 24.3 26 24.3 26.4 24.3 27.1 C 24.3 27.1 24.3 29.1 24.3 29.1 C 24.3 30.5 24.3 31.4 24.4 31.7 C 24.5 32.1 24.6 32.4 24.8 32.8 C 24.78 32.78 23.2 32.8 23.2 32.8 C 23.2 32.8 23.22 32.78 23.2 32.8 Z M 22.8 28.4 C 22.3 28.6 21.4 28.8 20.4 28.9 C 19.7 29 19.3 29.1 19.1 29.2 C 18.8 29.3 18.6 29.5 18.5 29.7 C 18.3 29.9 18.3 30.2 18.3 30.4 C 18.3 30.8 18.4 31.1 18.7 31.4 C 19 31.7 19.4 31.8 20 31.8 C 20.6 31.8 21.1 31.7 21.6 31.4 C 22 31.2 22.3 30.8 22.6 30.4 C 22.7 30.1 22.8 29.6 22.8 28.9 C 22.8 28.9 22.8 28.4 22.8 28.4 Z M 26.6 32.8 L 26.6 24 L 28 24 C 28 24 27.96 25.2 28 25.2 C 28.2 24.8 28.6 24.4 29.1 24.2 C 29.5 23.9 30 23.8 30.6 23.8 C 31.3 23.8 31.8 23.9 32.2 24.2 C 32.7 24.4 32.9 24.8 33.1 25.3 C 33.8 24.3 34.7 23.8 35.8 23.8 C 36.7 23.8 37.4 24 37.9 24.5 C 38.3 25 38.6 25.7 38.6 26.7 C 38.57 26.73 38.6 32.8 38.6 32.8 L 37.1 32.8 C 37.1 32.8 37.08 27.22 37.1 27.2 C 37.1 26.6 37 26.2 36.9 25.9 C 36.8 25.7 36.7 25.5 36.4 25.3 C 36.2 25.1 35.9 25.1 35.5 25.1 C 34.9 25.1 34.4 25.3 34 25.7 C 33.6 26.1 33.4 26.7 33.4 27.7 C 33.35 27.65 33.4 32.8 33.4 32.8 L 31.9 32.8 C 31.9 32.8 31.86 27.05 31.9 27 C 31.9 26.4 31.7 25.9 31.5 25.6 C 31.2 25.2 30.9 25.1 30.3 25.1 C 29.9 25.1 29.5 25.2 29.1 25.4 C 28.8 25.6 28.5 25.9 28.4 26.4 C 28.2 26.8 28.1 27.4 28.1 28.2 C 28.11 28.2 28.1 32.8 28.1 32.8 L 26.6 32.8 Z M 46.8 29.9 C 46.8 29.9 48.4 30.1 48.4 30.1 C 48.1 31 47.7 31.7 47 32.2 C 46.3 32.7 45.5 33 44.5 33 C 43.2 33 42.2 32.6 41.4 31.8 C 40.7 31 40.3 29.9 40.3 28.4 C 40.3 27 40.7 25.8 41.4 25 C 42.2 24.2 43.2 23.8 44.4 23.8 C 45.6 23.8 46.5 24.2 47.3 25 C 48 25.8 48.4 26.9 48.4 28.4 C 48.4 28.4 48.4 28.6 48.4 28.8 C 48.4 28.8 41.8 28.8 41.8 28.8 C 41.9 29.7 42.2 30.5 42.6 31 C 43.1 31.5 43.8 31.7 44.5 31.7 C 45 31.7 45.5 31.6 45.9 31.3 C 46.3 31 46.6 30.6 46.8 29.9 Z M 41.9 27.5 C 41.9 27.5 46.8 27.5 46.8 27.5 C 46.8 26.8 46.6 26.2 46.3 25.9 C 45.8 25.3 45.2 25 44.4 25 C 43.7 25 43.2 25.2 42.7 25.7 C 42.2 26.1 42 26.8 41.9 27.5 Z M 51.9 32.8 L 49.2 24 L 50.7 24 L 52.1 29 C 52.1 29 52.64 30.94 52.6 30.9 C 52.7 30.8 52.8 30.2 53.1 29.1 C 53.09 29.12 54.5 24 54.5 24 L 56 24 L 57.4 29.1 L 57.8 30.8 L 58.3 29.1 L 59.8 24 L 61.3 24 L 58.5 32.8 L 57 32.8 L 55.5 27.5 L 55.2 26 L 53.4 32.8 L 51.9 32.8 Z M 62 28.4 C 62 26.7 62.4 25.5 63.3 24.7 C 64.1 24.1 65 23.8 66.1 23.8 C 67.3 23.8 68.3 24.2 69.1 25 C 69.8 25.7 70.2 26.8 70.2 28.2 C 70.2 29.4 70 30.3 69.7 30.9 C 69.4 31.6 68.9 32.1 68.2 32.4 C 67.6 32.8 66.9 33 66.1 33 C 64.9 33 63.9 32.6 63.1 31.8 C 62.3 31 62 29.9 62 28.4 Z M 63.5 28.4 C 63.5 29.5 63.7 30.3 64.2 30.9 C 64.7 31.5 65.3 31.7 66.1 31.7 C 66.8 31.7 67.4 31.5 67.9 30.9 C 68.4 30.3 68.7 29.5 68.7 28.3 C 68.7 27.2 68.4 26.4 67.9 25.8 C 67.4 25.3 66.8 25 66.1 25 C 65.3 25 64.7 25.3 64.2 25.8 C 63.7 26.4 63.5 27.2 63.5 28.4 Z M 72 32.8 L 72 24 L 73.3 24 C 73.3 24 73.3 25.3 73.3 25.3 C 73.6 24.7 74 24.3 74.2 24.1 C 74.5 23.9 74.9 23.8 75.2 23.8 C 75.7 23.8 76.2 23.9 76.7 24.2 C 76.7 24.2 76.2 25.6 76.2 25.6 C 75.9 25.4 75.5 25.3 75.1 25.3 C 74.8 25.3 74.5 25.4 74.3 25.6 C 74 25.8 73.8 26.1 73.7 26.4 C 73.5 26.9 73.4 27.5 73.4 28.2 C 73.45 28.16 73.4 32.8 73.4 32.8 L 72 32.8 Z M 77.6 32.8 L 77.6 20.6 L 79.1 20.6 L 79.1 27.5 L 82.7 24 L 84.6 24 L 81.2 27.2 L 84.9 32.8 L 83.1 32.8 L 80.2 28.3 L 79.1 29.3 L 79.1 32.8 L 77.6 32.8 Z M 91.2 32.8 L 91.2 25.1 L 89.9 25.1 L 89.9 24 L 91.2 24 C 91.2 24 91.21 23.02 91.2 23 C 91.2 22.4 91.3 22 91.4 21.7 C 91.5 21.3 91.8 21 92.1 20.8 C 92.5 20.5 93 20.4 93.6 20.4 C 94.1 20.4 94.5 20.4 95 20.5 C 95 20.5 94.8 21.9 94.8 21.9 C 94.5 21.8 94.2 21.8 93.9 21.8 C 93.5 21.8 93.2 21.9 93 22.1 C 92.8 22.3 92.7 22.6 92.7 23.1 C 92.69 23.15 92.7 24 92.7 24 L 94.4 24 L 94.4 25.1 L 92.7 25.1 L 92.7 32.8 L 91.2 32.8 Z M 95 28.4 C 95 26.7 95.5 25.5 96.4 24.7 C 97.1 24.1 98.1 23.8 99.2 23.8 C 100.4 23.8 101.4 24.2 102.1 25 C 102.9 25.7 103.3 26.8 103.3 28.2 C 103.3 29.4 103.1 30.3 102.8 30.9 C 102.4 31.6 101.9 32.1 101.3 32.4 C 100.6 32.8 99.9 33 99.2 33 C 97.9 33 96.9 32.6 96.2 31.8 C 95.4 31 95 29.9 95 28.4 Z M 96.6 28.4 C 96.6 29.5 96.8 30.3 97.3 30.9 C 97.8 31.5 98.4 31.7 99.2 31.7 C 99.9 31.7 100.5 31.5 101 30.9 C 101.5 30.3 101.7 29.5 101.7 28.3 C 101.7 27.2 101.5 26.4 101 25.8 C 100.5 25.3 99.9 25 99.2 25 C 98.4 25 97.8 25.3 97.3 25.8 C 96.8 26.4 96.6 27.2 96.6 28.4 Z M 105 32.8 L 105 24 L 106.4 24 C 106.4 24 106.36 25.3 106.4 25.3 C 106.7 24.7 107 24.3 107.3 24.1 C 107.6 23.9 107.9 23.8 108.3 23.8 C 108.8 23.8 109.3 23.9 109.8 24.2 C 109.8 24.2 109.3 25.6 109.3 25.6 C 108.9 25.4 108.6 25.3 108.2 25.3 C 107.9 25.3 107.6 25.4 107.3 25.6 C 107.1 25.8 106.9 26.1 106.8 26.4 C 106.6 26.9 106.5 27.5 106.5 28.2 C 106.51 28.16 106.5 32.8 106.5 32.8 L 105 32.8 Z " stroke="none" fill="#003a5c"/>
  </g>
  <g id="Polygon60995">
    <path d="M 10 8.1 C 10 8.1 11.6 8.5 11.6 8.5 C 11.3 9.8 10.7 10.8 9.8 11.5 C 8.9 12.2 7.8 12.6 6.6 12.6 C 5.3 12.6 4.2 12.3 3.4 11.8 C 2.5 11.2 1.9 10.5 1.5 9.5 C 1.1 8.5 0.8 7.4 0.8 6.2 C 0.8 4.9 1.1 3.8 1.6 2.9 C 2.1 1.9 2.7 1.2 3.6 0.7 C 4.5 0.2 5.5 0 6.6 0 C 7.8 0 8.8 0.3 9.7 0.9 C 10.5 1.5 11.1 2.4 11.4 3.5 C 11.4 3.5 9.8 3.9 9.8 3.9 C 9.5 3 9.1 2.4 8.6 2 C 8 1.6 7.4 1.4 6.6 1.4 C 5.6 1.4 4.8 1.6 4.2 2.1 C 3.6 2.5 3.1 3.1 2.9 3.9 C 2.6 4.6 2.5 5.4 2.5 6.2 C 2.5 7.2 2.7 8.1 3 8.9 C 3.3 9.7 3.7 10.3 4.4 10.6 C 5 11 5.7 11.2 6.4 11.2 C 7.3 11.2 8.1 10.9 8.7 10.4 C 9.3 9.9 9.8 9.1 10 8.1 Z M 19.2 12.4 C 19.2 12.4 19.17 11.08 19.2 11.1 C 18.5 12.1 17.6 12.6 16.4 12.6 C 15.9 12.6 15.4 12.5 14.9 12.3 C 14.5 12.1 14.1 11.8 13.9 11.5 C 13.7 11.2 13.5 10.9 13.5 10.4 C 13.4 10.1 13.4 9.7 13.4 9 C 13.36 9.02 13.4 3.6 13.4 3.6 L 14.9 3.6 C 14.9 3.6 14.86 8.45 14.9 8.5 C 14.9 9.2 14.9 9.8 14.9 10 C 15 10.4 15.2 10.7 15.5 11 C 15.9 11.2 16.2 11.3 16.7 11.3 C 17.1 11.3 17.5 11.2 17.9 10.9 C 18.3 10.7 18.6 10.4 18.8 10 C 18.9 9.6 19 9 19 8.3 C 19.02 8.28 19 3.6 19 3.6 L 20.5 3.6 L 20.5 12.4 L 19.2 12.4 Z M 22.8 12.4 L 22.8 0.2 L 24.3 0.2 L 24.3 12.4 L 22.8 12.4 Z M 29.2 11.1 C 29.4 11.1 29.6 11.1 29.9 11 C 29.9 11 30.1 12.4 30.1 12.4 C 29.7 12.4 29.3 12.5 29 12.5 C 28.4 12.5 28 12.4 27.7 12.2 C 27.4 12.1 27.2 11.8 27.1 11.6 C 27 11.3 26.9 10.7 26.9 9.8 C 26.9 9.79 26.9 4.7 26.9 4.7 L 25.8 4.7 L 25.8 3.6 L 26.9 3.6 L 26.9 1.4 L 28.4 0.5 L 28.4 3.6 L 29.9 3.6 L 29.9 4.7 L 28.4 4.7 C 28.4 4.7 28.39 9.88 28.4 9.9 C 28.4 10.3 28.4 10.6 28.5 10.7 C 28.5 10.8 28.6 10.9 28.7 11 C 28.8 11.1 29 11.1 29.2 11.1 C 29.2 11.1 29.2 11.1 29.2 11.1 Z M 37.1 12.4 C 37.1 12.4 37.13 11.08 37.1 11.1 C 36.4 12.1 35.5 12.6 34.3 12.6 C 33.8 12.6 33.3 12.5 32.9 12.3 C 32.4 12.1 32.1 11.8 31.9 11.5 C 31.7 11.2 31.5 10.9 31.4 10.4 C 31.3 10.1 31.3 9.7 31.3 9 C 31.32 9.02 31.3 3.6 31.3 3.6 L 32.8 3.6 C 32.8 3.6 32.81 8.45 32.8 8.5 C 32.8 9.2 32.8 9.8 32.9 10 C 33 10.4 33.2 10.7 33.5 11 C 33.8 11.2 34.2 11.3 34.6 11.3 C 35.1 11.3 35.5 11.2 35.9 10.9 C 36.3 10.7 36.6 10.4 36.7 10 C 36.9 9.6 37 9 37 8.3 C 36.97 8.28 37 3.6 37 3.6 L 38.5 3.6 L 38.5 12.4 L 37.1 12.4 Z M 40.8 12.4 L 40.8 3.6 L 42.1 3.6 C 42.1 3.6 42.13 4.9 42.1 4.9 C 42.5 4.3 42.8 3.9 43.1 3.7 C 43.4 3.5 43.7 3.4 44 3.4 C 44.5 3.4 45.1 3.5 45.6 3.8 C 45.6 3.8 45.1 5.2 45.1 5.2 C 44.7 5 44.3 4.9 44 4.9 C 43.6 4.9 43.3 5 43.1 5.2 C 42.8 5.4 42.6 5.7 42.5 6 C 42.4 6.5 42.3 7.1 42.3 7.8 C 42.28 7.76 42.3 12.4 42.3 12.4 L 40.8 12.4 Z M 52.5 9.5 C 52.5 9.5 54 9.7 54 9.7 C 53.8 10.6 53.4 11.3 52.7 11.8 C 52 12.3 51.2 12.6 50.2 12.6 C 48.9 12.6 47.9 12.2 47.1 11.4 C 46.3 10.6 46 9.5 46 8 C 46 6.6 46.4 5.4 47.1 4.6 C 47.9 3.8 48.9 3.4 50.1 3.4 C 51.3 3.4 52.2 3.8 53 4.6 C 53.7 5.4 54.1 6.5 54.1 8 C 54.1 8 54.1 8.2 54.1 8.4 C 54.1 8.4 47.5 8.4 47.5 8.4 C 47.6 9.3 47.8 10.1 48.3 10.6 C 48.8 11.1 49.4 11.3 50.2 11.3 C 50.7 11.3 51.2 11.2 51.6 10.9 C 52 10.6 52.3 10.2 52.5 9.5 Z M 47.6 7.1 C 47.6 7.1 52.5 7.1 52.5 7.1 C 52.5 6.4 52.3 5.8 52 5.5 C 51.5 4.9 50.9 4.6 50.1 4.6 C 49.4 4.6 48.8 4.8 48.4 5.3 C 47.9 5.7 47.6 6.4 47.6 7.1 Z M 59.5 8.6 L 59.5 7.4 L 76.5 7.4 L 76.5 8.6 L 59.5 8.6 Z M 80.3 12.4 L 85 0.2 L 86.7 0.2 L 91.7 12.4 L 89.8 12.4 L 88.4 8.7 L 83.3 8.7 L 82 12.4 L 80.3 12.4 Z M 83.8 7.4 L 87.9 7.4 C 87.9 7.4 86.65 4.01 86.7 4 C 86.3 3 86 2.1 85.8 1.5 C 85.6 2.3 85.4 3 85.1 3.8 C 85.13 3.81 83.8 7.4 83.8 7.4 Z M 96.7 12.4 L 96.7 0.2 C 96.7 0.2 101.34 0.21 101.3 0.2 C 102.1 0.2 102.8 0.2 103.2 0.3 C 103.8 0.4 104.3 0.6 104.7 0.9 C 105.1 1.2 105.4 1.6 105.7 2.1 C 105.9 2.6 106 3.1 106 3.7 C 106 4.8 105.7 5.6 105 6.4 C 104.4 7.1 103.2 7.4 101.5 7.4 C 101.48 7.43 98.4 7.4 98.4 7.4 L 98.4 12.4 L 96.7 12.4 Z M 98.4 6 C 98.4 6 101.5 5.99 101.5 6 C 102.5 6 103.3 5.8 103.7 5.4 C 104.2 5 104.4 4.5 104.4 3.8 C 104.4 3.3 104.2 2.8 104 2.5 C 103.7 2.1 103.4 1.9 103 1.8 C 102.7 1.7 102.2 1.6 101.5 1.6 C 101.47 1.64 98.4 1.6 98.4 1.6 L 98.4 6 Z M 107.9 12.4 L 107.9 3.6 L 109.2 3.6 C 109.2 3.6 109.22 4.9 109.2 4.9 C 109.6 4.3 109.9 3.9 110.2 3.7 C 110.5 3.5 110.8 3.4 111.1 3.4 C 111.6 3.4 112.1 3.5 112.7 3.8 C 112.7 3.8 112.2 5.2 112.2 5.2 C 111.8 5 111.4 4.9 111.1 4.9 C 110.7 4.9 110.4 5 110.2 5.2 C 109.9 5.4 109.7 5.7 109.6 6 C 109.5 6.5 109.4 7.1 109.4 7.8 C 109.37 7.76 109.4 12.4 109.4 12.4 L 107.9 12.4 Z M 119.6 12.4 C 119.5 12.1 119.4 11.7 119.3 11.3 C 118.8 11.8 118.2 12.1 117.7 12.3 C 117.2 12.5 116.6 12.6 116.1 12.6 C 115.1 12.6 114.3 12.3 113.8 11.9 C 113.3 11.4 113 10.8 113 10.1 C 113 9.6 113.1 9.2 113.3 8.9 C 113.5 8.5 113.8 8.2 114.1 8 C 114.4 7.8 114.8 7.6 115.2 7.5 C 115.5 7.4 115.9 7.4 116.5 7.3 C 117.7 7.2 118.6 7 119.2 6.8 C 119.2 6.6 119.2 6.4 119.2 6.4 C 119.2 5.8 119 5.4 118.8 5.1 C 118.4 4.8 117.8 4.6 117.1 4.6 C 116.4 4.6 115.8 4.7 115.5 5 C 115.2 5.2 114.9 5.7 114.8 6.3 C 114.8 6.3 113.3 6.1 113.3 6.1 C 113.4 5.5 113.7 4.9 114 4.6 C 114.3 4.2 114.7 3.9 115.3 3.7 C 115.9 3.5 116.5 3.4 117.3 3.4 C 118 3.4 118.6 3.5 119.1 3.6 C 119.6 3.8 119.9 4 120.2 4.3 C 120.4 4.6 120.5 4.9 120.6 5.3 C 120.7 5.6 120.7 6 120.7 6.7 C 120.7 6.7 120.7 8.7 120.7 8.7 C 120.7 10.1 120.7 11 120.8 11.3 C 120.9 11.7 121 12 121.2 12.4 C 121.17 12.38 119.6 12.4 119.6 12.4 C 119.6 12.4 119.61 12.38 119.6 12.4 Z M 119.2 8 C 118.6 8.2 117.8 8.4 116.7 8.5 C 116.1 8.6 115.7 8.7 115.4 8.8 C 115.2 8.9 115 9.1 114.8 9.3 C 114.7 9.5 114.6 9.8 114.6 10 C 114.6 10.4 114.8 10.7 115.1 11 C 115.4 11.3 115.8 11.4 116.4 11.4 C 117 11.4 117.5 11.3 118 11 C 118.4 10.8 118.7 10.4 118.9 10 C 119.1 9.7 119.2 9.2 119.2 8.5 C 119.2 8.5 119.2 8 119.2 8 Z M 128.8 9.1 C 128.8 9.1 130.2 9.3 130.2 9.3 C 130.1 10.4 129.7 11.1 129 11.7 C 128.3 12.3 127.5 12.6 126.6 12.6 C 125.4 12.6 124.4 12.2 123.7 11.4 C 122.9 10.6 122.6 9.5 122.6 8 C 122.6 7.1 122.7 6.2 123 5.5 C 123.3 4.8 123.8 4.3 124.5 3.9 C 125.1 3.5 125.8 3.4 126.6 3.4 C 127.5 3.4 128.3 3.6 128.9 4.1 C 129.5 4.6 129.9 5.3 130.1 6.2 C 130.1 6.2 128.6 6.4 128.6 6.4 C 128.5 5.8 128.3 5.3 127.9 5 C 127.6 4.7 127.1 4.6 126.6 4.6 C 125.9 4.6 125.3 4.9 124.8 5.4 C 124.3 5.9 124.1 6.8 124.1 8 C 124.1 9.1 124.3 10 124.8 10.5 C 125.2 11.1 125.8 11.3 126.5 11.3 C 127.1 11.3 127.6 11.2 128 10.8 C 128.4 10.4 128.7 9.9 128.8 9.1 Z M 134.1 11.1 C 134.3 11.1 134.5 11.1 134.8 11 C 134.8 11 135 12.4 135 12.4 C 134.6 12.4 134.2 12.5 133.9 12.5 C 133.3 12.5 132.9 12.4 132.6 12.2 C 132.3 12.1 132.1 11.8 132 11.6 C 131.8 11.3 131.8 10.7 131.8 9.8 C 131.78 9.79 131.8 4.7 131.8 4.7 L 130.7 4.7 L 130.7 3.6 L 131.8 3.6 L 131.8 1.4 L 133.3 0.5 L 133.3 3.6 L 134.8 3.6 L 134.8 4.7 L 133.3 4.7 C 133.3 4.7 133.27 9.88 133.3 9.9 C 133.3 10.3 133.3 10.6 133.3 10.7 C 133.4 10.8 133.5 10.9 133.6 11 C 133.7 11.1 133.9 11.1 134.1 11.1 C 134.1 11.1 134.1 11.1 134.1 11.1 Z M 136.2 1.9 L 136.2 0.2 L 137.7 0.2 L 137.7 1.9 L 136.2 1.9 Z M 136.2 12.4 L 136.2 3.6 L 137.7 3.6 L 137.7 12.4 L 136.2 12.4 Z M 145.8 9.1 C 145.8 9.1 147.2 9.3 147.2 9.3 C 147.1 10.4 146.7 11.1 146 11.7 C 145.3 12.3 144.5 12.6 143.6 12.6 C 142.4 12.6 141.4 12.2 140.7 11.4 C 139.9 10.6 139.6 9.5 139.6 8 C 139.6 7.1 139.7 6.2 140 5.5 C 140.3 4.8 140.8 4.3 141.5 3.9 C 142.1 3.5 142.8 3.4 143.6 3.4 C 144.5 3.4 145.3 3.6 145.9 4.1 C 146.5 4.6 146.9 5.3 147.1 6.2 C 147.1 6.2 145.6 6.4 145.6 6.4 C 145.5 5.8 145.3 5.3 144.9 5 C 144.6 4.7 144.1 4.6 143.6 4.6 C 142.9 4.6 142.3 4.9 141.8 5.4 C 141.3 5.9 141.1 6.8 141.1 8 C 141.1 9.1 141.3 10 141.8 10.5 C 142.2 11.1 142.8 11.3 143.5 11.3 C 144.1 11.3 144.6 11.2 145 10.8 C 145.4 10.4 145.7 9.9 145.8 9.1 Z M 154.6 12.4 C 154.4 12.1 154.3 11.7 154.3 11.3 C 153.7 11.8 153.2 12.1 152.7 12.3 C 152.2 12.5 151.6 12.6 151 12.6 C 150 12.6 149.3 12.3 148.8 11.9 C 148.3 11.4 148 10.8 148 10.1 C 148 9.6 148.1 9.2 148.3 8.9 C 148.5 8.5 148.8 8.2 149.1 8 C 149.4 7.8 149.7 7.6 150.1 7.5 C 150.4 7.4 150.9 7.4 151.5 7.3 C 152.7 7.2 153.6 7 154.1 6.8 C 154.1 6.6 154.1 6.4 154.1 6.4 C 154.1 5.8 154 5.4 153.7 5.1 C 153.3 4.8 152.8 4.6 152 4.6 C 151.3 4.6 150.8 4.7 150.5 5 C 150.1 5.2 149.9 5.7 149.7 6.3 C 149.7 6.3 148.3 6.1 148.3 6.1 C 148.4 5.5 148.6 4.9 148.9 4.6 C 149.2 4.2 149.7 3.9 150.2 3.7 C 150.8 3.5 151.5 3.4 152.2 3.4 C 153 3.4 153.6 3.5 154.1 3.6 C 154.5 3.8 154.9 4 155.1 4.3 C 155.3 4.6 155.5 4.9 155.6 5.3 C 155.6 5.6 155.6 6 155.6 6.7 C 155.6 6.7 155.6 8.7 155.6 8.7 C 155.6 10.1 155.7 11 155.7 11.3 C 155.8 11.7 155.9 12 156.1 12.4 C 156.12 12.38 154.6 12.4 154.6 12.4 C 154.6 12.4 154.56 12.38 154.6 12.4 Z M 154.1 8 C 153.6 8.2 152.8 8.4 151.7 8.5 C 151.1 8.6 150.6 8.7 150.4 8.8 C 150.1 8.9 149.9 9.1 149.8 9.3 C 149.7 9.5 149.6 9.8 149.6 10 C 149.6 10.4 149.7 10.7 150 11 C 150.4 11.3 150.8 11.4 151.4 11.4 C 151.9 11.4 152.5 11.3 152.9 11 C 153.4 10.8 153.7 10.4 153.9 10 C 154.1 9.7 154.1 9.2 154.1 8.5 C 154.1 8.5 154.1 8 154.1 8 Z M 157.9 12.4 L 157.9 0.2 L 159.4 0.2 L 159.4 12.4 L 157.9 12.4 Z " stroke="none" fill="#003a5c"/>
  </g>
</svg>