<?xml version="1.0" standalone="no"?><!DOCTYPE svg PUBLIC "-//W3C//DTD SVG 1.1//EN" "http://www.w3.org/Graphics/SVG/1.1/DTD/svg11.dtd"><svg xmlns="http://www.w3.org/2000/svg" version="1.1" width="588.4px" height="45.7px" viewBox="0 -7 588.4 45.7" style="top:-7px"><desc>Going Carbon Neutral (continued)</desc><defs/><g id="Polygon67382"><path d="m9.9 10.7l0-2l7.3 0c0 0-.03 6.38 0 6.4c-1.1.9-2.3 1.5-3.5 2c-1.2.4-2.4.7-3.6.7c-1.7 0-3.3-.4-4.6-1.1c-1.4-.7-2.5-1.8-3.2-3.2c-.7-1.3-1-2.8-1-4.5c0-1.7.3-3.3 1-4.7c.7-1.5 1.7-2.5 3-3.2c1.4-.7 2.9-1.1 4.6-1.1c1.2 0 2.3.2 3.3.6c1.1.4 1.8 1 2.4 1.7c.6.7 1 1.6 1.3 2.8c0 0-2 .6-2 .6c-.3-.9-.6-1.6-1-2.1c-.4-.5-.9-.9-1.6-1.2c-.8-.3-1.5-.5-2.4-.5c-1 0-1.9.2-2.7.5c-.8.3-1.4.8-1.8 1.3c-.5.5-.9 1.1-1.1 1.7c-.5 1-.7 2.2-.7 3.4c0 1.6.3 2.8.8 3.9c.5 1 1.3 1.8 2.3 2.3c1 .5 2.1.7 3.2.7c1 0 2-.2 2.9-.6c.9-.3 1.7-.7 2.1-1.2c.04.03 0-3.2 0-3.2l-5 0zm9.6.6c0-2.4.6-4.1 1.9-5.2c1.1-.9 2.4-1.4 3.9-1.4c1.7 0 3.1.6 4.2 1.7c1.1 1.1 1.6 2.7 1.6 4.7c0 1.6-.2 2.8-.7 3.8c-.5.9-1.2 1.6-2.1 2.1c-.9.5-1.9.8-3 .8c-1.7 0-3.1-.6-4.2-1.7c-1.1-1.1-1.6-2.7-1.6-4.8zm2.1 0c0 1.5.4 2.7 1.1 3.5c.7.8 1.5 1.2 2.6 1.2c1 0 1.9-.4 2.6-1.2c.7-.8 1.1-2 1.1-3.6c0-1.6-.4-2.7-1.1-3.5c-.7-.8-1.6-1.2-2.6-1.2c-1.1 0-1.9.4-2.6 1.2c-.7.8-1.1 2-1.1 3.6zm12-8.6l0-2.4l2.1 0l0 2.4l-2.1 0zm0 14.8l0-12.5l2.1 0l0 12.5l-2.1 0zm5.3 0l0-12.5l1.9 0c0 0 .03 1.8 0 1.8c.9-1.4 2.3-2.1 4-2.1c.7 0 1.4.2 2.1.5c.6.2 1.1.6 1.4 1c.3.4.5 1 .6 1.6c.1.4.1 1 .1 2c.04.02 0 7.7 0 7.7l-2.1 0c0 0 .03-7.6 0-7.6c0-.9 0-1.5-.2-1.9c-.2-.5-.5-.8-.9-1c-.4-.3-.9-.4-1.5-.4c-.9 0-1.6.3-2.3.8c-.6.6-1 1.7-1 3.3c.04-.02 0 6.8 0 6.8l-2.1 0zm13 1c0 0 2 .3 2 .3c.1.6.4 1.1.8 1.4c.5.4 1.2.6 2.1.6c1 0 1.7-.2 2.3-.6c.5-.4.9-.9 1-1.6c.1-.5.2-1.4.2-2.8c-.9 1.1-2.1 1.7-3.5 1.7c-1.7 0-3-.6-3.9-1.9c-1-1.2-1.4-2.7-1.4-4.4c0-1.2.2-2.3.6-3.3c.4-1 1.1-1.8 1.9-2.3c.8-.6 1.8-.9 2.9-.9c1.4 0 2.6.6 3.6 1.8c-.01.03 0-1.5 0-1.5l1.9 0c0 0 .04 10.79 0 10.8c0 1.9-.2 3.3-.6 4.1c-.3.8-1 1.5-1.8 1.9c-.9.5-1.9.7-3.2.7c-1.5 0-2.7-.3-3.6-1c-.9-.6-1.3-1.7-1.3-3zm1.7-7.5c0 1.7.4 2.9 1 3.6c.7.8 1.5 1.1 2.4 1.1c1 0 1.8-.3 2.5-1.1c.6-.7 1-1.9 1-3.5c0-1.5-.4-2.7-1-3.4c-.7-.8-1.5-1.2-2.5-1.2c-.9 0-1.7.4-2.4 1.1c-.6.8-1 1.9-1 3.4zm31.2.4c0 0 2.3.6 2.3.6c-.5 1.9-1.3 3.3-2.6 4.3c-1.2 1-2.7 1.5-4.5 1.5c-1.9 0-3.4-.4-4.5-1.2c-1.2-.7-2.1-1.8-2.7-3.2c-.6-1.5-.9-3-.9-4.6c0-1.8.3-3.4 1-4.7c.7-1.4 1.7-2.4 2.9-3.1c1.3-.7 2.7-1 4.2-1c1.7 0 3.2.4 4.4 1.3c1.1.9 1.9 2.1 2.4 3.7c0 0-2.2.5-2.2.5c-.4-1.2-1-2.1-1.8-2.7c-.7-.6-1.7-.9-2.8-.9c-1.4 0-2.5.4-3.3 1c-.9.6-1.6 1.5-1.9 2.5c-.4 1.1-.5 2.2-.5 3.3c0 1.5.2 2.8.6 3.9c.4 1.1 1.1 1.9 2 2.4c.9.6 1.8.8 2.9.8c1.3 0 2.3-.3 3.2-1.1c.9-.7 1.5-1.8 1.8-3.3zm13.4 6.1c-.3-.5-.4-1-.5-1.6c-.7.7-1.5 1.2-2.2 1.4c-.7.3-1.5.5-2.3.5c-1.4 0-2.5-.4-3.2-1c-.7-.7-1.1-1.6-1.1-2.6c0-.6.1-1.2.4-1.7c.3-.5.7-.9 1.1-1.2c.5-.3 1-.5 1.5-.7c.4-.1 1.1-.2 1.9-.3c1.7-.2 3-.4 3.8-.7c0-.3 0-.5 0-.6c0-.8-.2-1.4-.6-1.8c-.6-.5-1.4-.7-2.4-.7c-1 0-1.7.2-2.2.5c-.5.4-.8 1-1.1 1.9c0 0-2-.3-2-.3c.2-.9.5-1.6.9-2.2c.4-.5 1-.9 1.9-1.2c.8-.3 1.7-.5 2.8-.5c1 0 1.9.2 2.6.4c.6.3 1.1.6 1.4 1c.4.3.6.8.7 1.4c.1.4.1 1 .1 1.9c0 0 0 2.9 0 2.9c0 1.9 0 3.2.1 3.7c.1.5.3 1 .6 1.5c-.03-.03-2.2 0-2.2 0c0 0-.03-.03 0 0zm-.6-6.3c-.8.3-1.9.6-3.5.8c-.8.1-1.5.3-1.8.4c-.4.2-.7.4-.8.7c-.2.3-.3.7-.3 1c0 .6.2 1.1.6 1.4c.4.4 1 .6 1.9.6c.8 0 1.5-.2 2.1-.5c.7-.4 1.1-.9 1.4-1.5c.3-.5.4-1.2.4-2.1c0 0 0-.8 0-.8zm5.3 6.3l0-12.5l1.9 0c0 0 .05 1.91 0 1.9c.5-.9 1-1.5 1.4-1.7c.4-.3.9-.5 1.3-.5c.8 0 1.5.3 2.2.7c0 0-.7 2-.7 2c-.5-.3-1-.5-1.6-.5c-.4 0-.8.2-1.2.4c-.4.3-.6.7-.8 1.2c-.2.7-.3 1.6-.3 2.5c-.04-.04 0 6.5 0 6.5l-2.2 0zm10 0l-1.9 0l0-17.2l2.1 0c0 0-.04 6.12 0 6.1c.9-1.1 2-1.7 3.4-1.7c.7 0 1.5.2 2.1.5c.7.3 1.3.8 1.7 1.3c.5.6.8 1.2 1.1 2c.2.8.3 1.7.3 2.6c0 2.1-.5 3.7-1.5 4.9c-1.1 1.2-2.4 1.8-3.8 1.8c-1.5 0-2.7-.7-3.5-1.9c.01.01 0 1.6 0 1.6zm0-6.3c0 1.4.2 2.5.6 3.2c.7 1.1 1.6 1.6 2.7 1.6c.9 0 1.7-.4 2.4-1.2c.7-.8 1-2 1-3.6c0-1.6-.3-2.8-1-3.6c-.6-.7-1.4-1.1-2.3-1.1c-.9 0-1.7.4-2.4 1.2c-.7.8-1 1.9-1 3.5zm10.6.1c0-2.4.7-4.1 1.9-5.2c1.1-.9 2.4-1.4 4-1.4c1.7 0 3.1.6 4.2 1.7c1 1.1 1.6 2.7 1.6 4.7c0 1.6-.3 2.8-.7 3.8c-.5.9-1.2 1.6-2.1 2.1c-.9.5-2 .8-3 .8c-1.8 0-3.2-.6-4.3-1.7c-1-1.1-1.6-2.7-1.6-4.8zm2.2 0c0 1.5.3 2.7 1 3.5c.7.8 1.6 1.2 2.7 1.2c1 0 1.9-.4 2.6-1.2c.7-.8 1-2 1-3.6c0-1.6-.3-2.7-1-3.5c-.7-.8-1.6-1.2-2.6-1.2c-1.1 0-2 .4-2.7 1.2c-.7.8-1 2-1 3.6zm12 6.2l0-12.5l1.9 0c0 0-.04 1.8 0 1.8c.9-1.4 2.2-2.1 3.9-2.1c.8 0 1.5.2 2.1.5c.6.2 1.1.6 1.4 1c.3.4.5 1 .7 1.6c0 .4.1 1 .1 2c-.03.02 0 7.7 0 7.7l-2.1 0c0 0-.04-7.6 0-7.6c0-.9-.1-1.5-.3-1.9c-.1-.5-.4-.8-.9-1c-.4-.3-.9-.4-1.4-.4c-.9 0-1.7.3-2.4.8c-.6.6-.9 1.7-.9 3.3c-.03-.02 0 6.8 0 6.8l-2.1 0zm20.2 0l0-17.2l2.4 0l9 13.5l0-13.5l2.2 0l0 17.2l-2.4 0l-9-13.5l0 13.5l-2.2 0zm25.6-4c0 0 2.2.2 2.2.2c-.3 1.3-1 2.3-1.9 3c-.9.7-2.1 1.1-3.6 1.1c-1.8 0-3.2-.6-4.3-1.7c-1.1-1.1-1.6-2.7-1.6-4.7c0-2.1.5-3.8 1.6-4.9c1.1-1.2 2.5-1.8 4.2-1.8c1.7 0 3 .6 4.1 1.7c1.1 1.2 1.6 2.8 1.6 4.8c0 .2 0 .3 0 .6c0 0-9.3 0-9.3 0c.1 1.4.4 2.4 1.1 3.1c.7.8 1.6 1.1 2.6 1.1c.8 0 1.5-.2 2-.6c.6-.4 1-1 1.3-1.9zm-6.9-3.4c0 0 7 0 7 0c-.1-1.1-.4-1.9-.8-2.4c-.7-.8-1.6-1.2-2.7-1.2c-.9 0-1.7.3-2.4 1c-.7.6-1 1.5-1.1 2.6zm19.9 7.4c0 0 .01-1.86 0-1.9c-1 1.5-2.3 2.2-3.9 2.2c-.8 0-1.5-.2-2.1-.5c-.6-.2-1.1-.6-1.4-1c-.3-.5-.5-1-.7-1.6c0-.4-.1-1.1-.1-2c.01.04 0-7.7 0-7.7l2.1 0c0 0 .02 6.93 0 6.9c0 1.1.1 1.9.1 2.3c.2.5.5.9.9 1.3c.4.3 1 .4 1.6.4c.6 0 1.2-.1 1.8-.4c.5-.4.9-.8 1.1-1.4c.3-.5.4-1.3.4-2.4c-.01 0 0-6.7 0-6.7l2.1 0l0 12.5l-1.9 0zm8.9-1.8c.2 0 .5-.1.9-.1c0 0 .3 1.8.3 1.8c-.6.2-1.1.2-1.6.2c-.7 0-1.3-.1-1.8-.3c-.4-.3-.7-.6-.9-1c-.1-.4-.2-1.2-.2-2.5c-.01.03 0-7.1 0-7.1l-1.6 0l0-1.7l1.6 0l0-3.1l2.1-1.2l0 4.3l2.1 0l0 1.7l-2.1 0c0 0-.01 7.25 0 7.2c0 .6 0 1 .1 1.2c.1.2.2.3.4.4c.1.1.4.2.7.2c0 0 0 0 0 0zm2.9 1.8l0-12.5l1.9 0c0 0 .05 1.91 0 1.9c.5-.9 1-1.5 1.4-1.7c.4-.3.8-.5 1.3-.5c.8 0 1.5.3 2.2.7c0 0-.7 2-.7 2c-.5-.3-1-.5-1.6-.5c-.4 0-.8.2-1.2.4c-.4.3-.6.7-.8 1.2c-.2.7-.3 1.6-.3 2.5c-.04-.04 0 6.5 0 6.5l-2.2 0zm16.6 0c-.2-.5-.4-1-.4-1.6c-.8.7-1.5 1.2-2.3 1.4c-.7.3-1.5.5-2.3.5c-1.4 0-2.4-.4-3.1-1c-.8-.7-1.2-1.6-1.2-2.6c0-.6.2-1.2.5-1.7c.2-.5.6-.9 1.1-1.2c.4-.3.9-.5 1.5-.7c.4-.1 1-.2 1.8-.3c1.7-.2 3-.4 3.8-.7c0-.3 0-.5 0-.6c0-.8-.2-1.4-.6-1.8c-.5-.5-1.3-.7-2.4-.7c-1 0-1.7.2-2.2.5c-.4.4-.8 1-1 1.9c0 0-2.1-.3-2.1-.3c.2-.9.5-1.6.9-2.2c.5-.5 1.1-.9 1.9-1.2c.8-.3 1.8-.5 2.8-.5c1.1 0 2 .2 2.6.4c.7.3 1.2.6 1.5 1c.3.3.5.8.6 1.4c.1.4.1 1 .1 1.9c0 0 0 2.9 0 2.9c0 1.9.1 3.2.2 3.7c.1.5.2 1 .5 1.5c.01-.03-2.2 0-2.2 0c0 0 .01-.03 0 0zm-.6-6.3c-.8.3-1.9.6-3.4.8c-.9.1-1.5.3-1.9.4c-.3.2-.6.4-.8.7c-.2.3-.3.7-.3 1c0 .6.2 1.1.6 1.4c.5.4 1.1.6 1.9.6c.8 0 1.5-.2 2.2-.5c.6-.4 1.1-.9 1.4-1.5c.2-.5.3-1.2.3-2.1c0 0 0-.8 0-.8zm5.4 6.3l0-17.2l2.1 0l0 17.2l-2.1 0zm14.6 3.8c-.8-1.1-1.6-2.4-2.2-3.9c-.6-1.5-.9-3-.9-4.6c0-1.4.2-2.7.7-4c.5-1.5 1.3-3 2.4-4.4c0 0 1.2 0 1.2 0c-.7 1.2-1.2 2.1-1.4 2.6c-.4.8-.7 1.6-.9 2.5c-.2 1.1-.4 2.2-.4 3.3c0 2.8.9 5.6 2.7 8.5c0 0-1.2 0-1.2 0zm8.9-7.2c0 0 1.6.1 1.6.1c-.4 1.2-1 2.1-1.7 2.6c-.8.6-1.6.9-2.6.9c-1 0-1.8-.3-2.4-1c-.7-.7-1-1.6-1-2.8c0-1 .2-2 .6-3c.4-.9 1-1.7 1.8-2.2c.7-.5 1.6-.8 2.6-.8c1 0 1.8.3 2.3.9c.6.5.9 1.3.9 2.2c0 0-1.5.1-1.5.1c-.1-.6-.2-1-.6-1.4c-.3-.3-.7-.5-1.3-.5c-.6 0-1.2.2-1.7.6c-.4.4-.8 1.1-1.1 1.9c-.2.8-.4 1.6-.4 2.4c0 .8.2 1.4.6 1.8c.3.4.8.6 1.3.6c.5 0 1-.2 1.5-.6c.4-.4.8-1 1.1-1.8zm2.8-.2c0-1.8.5-3.3 1.6-4.5c.9-1 2.1-1.5 3.5-1.5c1.1 0 2 .4 2.7 1.1c.7.7 1 1.6 1 2.8c0 1.1-.2 2.1-.6 3c-.4.9-1.1 1.7-1.9 2.1c-.8.5-1.6.8-2.5.8c-.7 0-1.4-.2-2-.5c-.6-.3-1-.7-1.3-1.3c-.3-.6-.5-1.2-.5-2zm1.6-.1c0 .9.2 1.5.6 2c.4.4 1 .7 1.6.7c.4 0 .7-.1 1-.3c.4-.1.7-.3 1-.6c.3-.3.5-.6.7-.9c.2-.4.4-.8.5-1.2c.2-.6.3-1.1.3-1.7c0-.8-.2-1.5-.7-1.9c-.4-.5-.9-.7-1.6-.7c-.5 0-.9.1-1.3.3c-.4.3-.8.6-1.1 1.1c-.4.4-.6.9-.8 1.6c-.1.6-.2 1.1-.2 1.6zm8.1 3.7l2-9.4l1.4 0c0 0-.32 1.66-.3 1.7c.6-.7 1.2-1.1 1.7-1.4c.6-.3 1.1-.5 1.7-.5c.8 0 1.4.2 1.8.6c.4.5.6 1 .6 1.7c0 .3 0 .9-.2 1.6c.01.02-1.2 5.7-1.2 5.7l-1.6 0c0 0 1.27-5.94 1.3-5.9c.1-.6.2-1 .2-1.3c0-.3-.2-.6-.4-.8c-.2-.2-.5-.3-.9-.3c-.8 0-1.5.3-2.2.9c-.6.6-1.1 1.6-1.4 3c.03.03-.9 4.4-.9 4.4l-1.6 0zm12.8-1.2c.4 0 .7 0 1-.1c0 0-.3 1.3-.3 1.3c-.4.1-.8.1-1.1.1c-.6 0-1.1-.1-1.5-.4c-.3-.3-.4-.6-.4-1c0-.2 0-.7.2-1.4c-.02-.01 1.1-5.4 1.1-5.4l-1.2 0l.2-1.3l1.3 0l.5-2.3l1.8-1.1l-.7 3.4l1.5 0l-.2 1.3l-1.6 0c0 0-1.07 5.13-1.1 5.1c-.1.7-.2 1.1-.2 1.2c0 .2.1.3.2.4c.1.1.3.2.5.2c0 0 0 0 0 0zm4.5-9.9l.4-1.8l1.6 0l-.4 1.8l-1.6 0zm-2.3 11.1l1.9-9.4l1.6 0l-1.9 9.4l-1.6 0zm4 0l2-9.4l1.4 0c0 0-.31 1.66-.3 1.7c.6-.7 1.2-1.1 1.7-1.4c.6-.3 1.2-.5 1.7-.5c.8 0 1.4.2 1.8.6c.4.5.6 1 .6 1.7c0 .3 0 .9-.2 1.6c.02.02-1.2 5.7-1.2 5.7l-1.6 0c0 0 1.28-5.94 1.3-5.9c.1-.6.2-1 .2-1.3c0-.3-.1-.6-.4-.8c-.2-.2-.5-.3-.9-.3c-.8 0-1.5.3-2.2.9c-.6.6-1.1 1.6-1.4 3c.04.03-.9 4.4-.9 4.4l-1.6 0zm16.4-1.7c-1.1 1.3-2.2 1.9-3.4 1.9c-.7 0-1.3-.2-1.8-.6c-.4-.4-.6-1-.6-1.6c0-.3.1-1 .3-2c-.02.03 1.1-5.4 1.1-5.4l1.6 0c0 0-1.25 6.01-1.3 6c-.1.5-.1.9-.1 1.2c0 .3.1.6.3.8c.2.2.5.3 1 .3c.4 0 .8-.1 1.3-.3c.4-.3.8-.6 1.1-.9c.3-.4.5-.8.7-1.3c.1-.4.3-.9.5-1.7c-.04-.03.8-4.1.8-4.1l1.6 0l-2 9.4l-1.4 0c0 0 .33-1.71.3-1.7zm10.5-1.5c0 0 1.6.2 1.6.2c-.3.7-.8 1.5-1.6 2.1c-.8.7-1.7 1.1-2.8 1.1c-.7 0-1.4-.2-1.9-.5c-.6-.3-1-.8-1.3-1.4c-.4-.6-.5-1.3-.5-2.1c0-1 .2-2 .7-2.9c.5-1 1.1-1.7 1.8-2.2c.8-.4 1.6-.7 2.5-.7c1.1 0 2 .4 2.6 1.1c.7.7 1 1.6 1 2.8c0 .5 0 .9-.1 1.4c0 0-6.9 0-6.9 0c0 .2 0 .3 0 .5c0 .9.2 1.5.6 2c.4.5.9.7 1.5.7c.5 0 1.1-.2 1.6-.6c.5-.3.9-.8 1.2-1.5zm-4.6-2.3c0 0 5.2 0 5.2 0c0-.2 0-.3 0-.4c0-.8-.2-1.4-.6-1.8c-.4-.4-.9-.6-1.5-.6c-.7 0-1.3.2-1.9.7c-.5.4-.9 1.1-1.2 2.1zm14.1 4.1c-.9 1.1-1.9 1.6-2.9 1.6c-.9 0-1.6-.3-2.2-1c-.6-.6-.9-1.6-.9-2.8c0-1.2.3-2.2.7-3.2c.5-.9 1.1-1.6 1.8-2.1c.7-.4 1.4-.7 2.1-.7c1.1 0 2 .6 2.6 1.7c.01.01 1.1-5 1.1-5l1.5 0l-2.6 12.9l-1.5 0c0 0 .27-1.38.3-1.4zm-4.4-2.5c0 .6.1 1.1.2 1.5c.1.4.3.7.7.9c.3.3.6.4 1.1.4c.7 0 1.4-.4 1.9-1.1c.8-1 1.2-2.2 1.2-3.7c0-.7-.2-1.3-.6-1.7c-.4-.5-.8-.7-1.4-.7c-.4 0-.8.1-1.1.3c-.3.2-.6.5-.9.9c-.3.4-.6.9-.8 1.5c-.2.6-.3 1.2-.3 1.7zm9.7 7.7c0 0-1.1 0-1.1 0c1.7-2.9 2.6-5.7 2.6-8.5c0-1.1-.1-2.2-.4-3.3c-.2-.8-.5-1.7-.8-2.5c-.2-.5-.7-1.4-1.4-2.6c0 0 1.1 0 1.1 0c1.1 1.4 1.9 2.9 2.5 4.4c.4 1.3.6 2.6.6 4c0 1.6-.3 3.1-.9 4.6c-.6 1.5-1.3 2.8-2.2 3.9z" stroke="none" fill="#003a5c"/></g></svg>