<?xml version="1.0" standalone="no"?><!DOCTYPE svg PUBLIC "-//W3C//DTD SVG 1.1//EN" "http://www.w3.org/Graphics/SVG/1.1/DTD/svg11.dtd"><svg xmlns="http://www.w3.org/2000/svg" version="1.1" width="97px" height="35.3px" viewBox="0 -5 97 35.3" style="top:-5px"><desc>8,889</desc><defs/><g id="Polygon67775"><path d="m32.1 5.2c-.6-.2-1-.5-1.3-.9c-.2-.4-.4-.8-.4-1.3c0-.8.3-1.5.9-2c.6-.6 1.3-.9 2.3-.9c.9 0 1.7.3 2.3.9c.5.5.8 1.2.8 2c0 .5-.1.9-.4 1.3c-.2.4-.6.7-1.2.9c.7.2 1.2.5 1.6 1c.3.5.5 1.1.5 1.8c0 .9-.4 1.7-1 2.3c-.7.7-1.5 1-2.6 1c-1.1 0-2-.3-2.6-1c-.7-.6-1-1.4-1-2.4c0-.7.2-1.3.5-1.7c.4-.5.9-.9 1.6-1zm-.3-2.3c0 .5.2.9.5 1.3c.3.3.8.5 1.3.5c.5 0 .9-.2 1.3-.5c.3-.3.5-.7.5-1.2c0-.5-.2-.9-.6-1.3c-.3-.3-.7-.5-1.2-.5c-.5 0-1 .2-1.3.5c-.3.4-.5.8-.5 1.2zm-.4 5c0 .4.1.8.2 1.2c.2.3.5.6.8.8c.4.2.8.3 1.2.3c.6 0 1.2-.2 1.6-.6c.4-.5.6-1 .6-1.6c0-.7-.2-1.2-.6-1.6c-.5-.4-1-.6-1.6-.6c-.7 0-1.2.2-1.6.6c-.4.4-.6.9-.6 1.5zm7.8 3.2l0-1.5l1.5 0c0 0 .03 1.49 0 1.5c0 .5-.1 1-.3 1.3c-.2.4-.5.7-.9.8c0 0-.4-.5-.4-.5c.3-.2.5-.3.6-.6c.2-.2.2-.6.3-1c-.04-.01-.8 0-.8 0zm5.6-5.9c-.6-.2-1-.5-1.3-.9c-.2-.4-.4-.8-.4-1.3c0-.8.3-1.5.9-2c.6-.6 1.3-.9 2.3-.9c.9 0 1.7.3 2.3.9c.5.5.8 1.2.8 2c0 .5-.1.9-.4 1.3c-.2.4-.6.7-1.2.9c.7.2 1.2.5 1.6 1c.3.5.5 1.1.5 1.8c0 .9-.3 1.7-1 2.3c-.7.7-1.5 1-2.6 1c-1.1 0-2-.3-2.6-1c-.7-.6-1-1.4-1-2.4c0-.7.2-1.3.5-1.7c.4-.5.9-.9 1.6-1zm-.3-2.3c0 .5.2.9.5 1.3c.3.3.8.5 1.3.5c.5 0 .9-.2 1.3-.5c.3-.3.5-.7.5-1.2c0-.5-.2-.9-.6-1.3c-.3-.3-.7-.5-1.2-.5c-.5 0-1 .2-1.3.5c-.3.4-.5.8-.5 1.2zm-.4 5c0 .4.1.8.2 1.2c.2.3.5.6.9.8c.3.2.7.3 1.1.3c.6 0 1.2-.2 1.6-.6c.4-.5.6-1 .6-1.6c0-.7-.2-1.2-.6-1.6c-.5-.4-1-.6-1.6-.6c-.7 0-1.2.2-1.6.6c-.4.4-.6.9-.6 1.5zm9.1-2.7c-.5-.2-.9-.5-1.2-.9c-.3-.4-.4-.8-.4-1.3c0-.8.3-1.5.9-2c.5-.6 1.3-.9 2.2-.9c1 0 1.8.3 2.3.9c.6.5.9 1.2.9 2c0 .5-.1.9-.4 1.3c-.3.4-.7.7-1.2.9c.7.2 1.2.5 1.5 1c.4.5.6 1.1.6 1.8c0 .9-.4 1.7-1 2.3c-.7.7-1.6 1-2.6 1c-1.1 0-2-.3-2.6-1c-.7-.6-1-1.4-1-2.4c0-.7.1-1.3.5-1.7c.4-.5.9-.9 1.5-1zm-.2-2.3c0 .5.1.9.5 1.3c.3.3.7.5 1.3.5c.5 0 .9-.2 1.2-.5c.4-.3.5-.7.5-1.2c0-.5-.1-.9-.5-1.3c-.3-.3-.7-.5-1.2-.5c-.6 0-1 .2-1.3.5c-.4.4-.5.8-.5 1.2zm-.5 5c0 .4.1.8.3 1.2c.2.3.5.6.8.8c.4.2.8.3 1.2.3c.6 0 1.1-.2 1.6-.6c.4-.5.6-1 .6-1.6c0-.7-.2-1.2-.7-1.6c-.4-.4-.9-.6-1.6-.6c-.6 0-1.1.2-1.5.6c-.4.4-.7.9-.7 1.5zm7.4.7c0 0 1.2-.2 1.2-.2c.1.7.4 1.1.7 1.4c.3.2.7.4 1.1.4c.5 0 .8-.1 1.1-.3c.3-.2.6-.4.8-.8c.2-.3.4-.7.5-1.2c.1-.6.2-1.1.2-1.7c0 0 0-.1 0-.2c-.3.4-.6.7-1.1 1c-.5.3-1 .4-1.5.4c-.9 0-1.7-.3-2.3-1c-.6-.6-.9-1.5-.9-2.6c0-1.1.3-2 .9-2.6c.7-.7 1.5-1.1 2.5-1.1c.7 0 1.3.2 1.9.6c.6.4 1.1.9 1.4 1.6c.3.8.4 1.8.4 3.1c0 1.4-.1 2.5-.4 3.3c-.3.9-.8 1.5-1.4 1.9c-.6.5-1.3.7-2.1.7c-.8 0-1.5-.3-2.1-.7c-.5-.5-.8-1.2-.9-2zm5.4-4.8c0-.8-.2-1.4-.6-1.9c-.4-.4-.9-.7-1.5-.7c-.5 0-1.1.3-1.5.8c-.5.5-.7 1.1-.7 1.9c0 .7.2 1.2.7 1.7c.4.4.9.6 1.5.6c.6 0 1.1-.2 1.5-.6c.4-.5.6-1.1.6-1.8z" stroke="none" fill="#54626c"/></g></svg>