<?xml version="1.0" standalone="no"?><!DOCTYPE svg PUBLIC "-//W3C//DTD SVG 1.1//EN" "http://www.w3.org/Graphics/SVG/1.1/DTD/svg11.dtd"><svg xmlns="http://www.w3.org/2000/svg" version="1.1" width="114px" height="23.5px" viewBox="0 -3 114 23.5" style="top:-3px"><desc>Follow us:</desc><defs/><g id="Polygon70662"><path d="m.7 6.6l0-6.5l4.4 0l0 .8l-3.5 0l0 2l3 0l0 .7l-3 0l0 3l-.9 0zm5.1-2.4c0-.8.2-1.5.7-1.9c.4-.3.9-.5 1.5-.5c.6 0 1.2.2 1.6.6c.4.4.6 1 .6 1.8c0 .6-.1 1-.3 1.4c-.2.3-.4.6-.8.8c-.3.2-.7.3-1.1.3c-.7 0-1.2-.3-1.6-.7c-.4-.4-.6-1-.6-1.8zm.8 0c0 .6.1 1.1.4 1.4c.3.3.6.4 1 .4c.4 0 .7-.1 1-.4c.2-.3.4-.8.4-1.4c0-.6-.2-1-.4-1.3c-.3-.3-.6-.5-1-.5c-.4 0-.7.2-1 .5c-.3.3-.4.7-.4 1.3zm4.5 2.4l0-6.5l.8 0l0 6.5l-.8 0zm2 0l0-6.5l.8 0l0 6.5l-.8 0zm1.7-2.4c0-.8.2-1.5.7-1.9c.4-.3.9-.5 1.5-.5c.6 0 1.2.2 1.6.6c.4.4.6 1 .6 1.8c0 .6-.1 1-.3 1.4c-.2.3-.4.6-.8.8c-.3.2-.7.3-1.1.3c-.7 0-1.2-.3-1.6-.7c-.4-.4-.6-1-.6-1.8zm.8 0c0 .6.1 1.1.4 1.4c.3.3.6.4 1 .4c.4 0 .7-.1 1-.4c.2-.3.4-.8.4-1.4c0-.6-.2-1-.4-1.3c-.3-.3-.6-.5-1-.5c-.4 0-.7.2-1 .5c-.3.3-.4.7-.4 1.3zm5.4 2.4l-1.5-4.7l.9 0l.7 2.7c0 0 .27.98.3 1c0-.1.1-.4.2-1c.01.02.8-2.7.8-2.7l.8 0l.7 2.7l.2.9l.3-.9l.8-2.7l.7 0l-1.4 4.7l-.8 0l-.8-2.8l-.2-.8l-.9 3.6l-.8 0zm11.2 0c0 0-.04-.73 0-.7c-.4.5-.9.8-1.5.8c-.3 0-.6-.1-.8-.2c-.2-.1-.4-.2-.5-.4c-.1-.2-.2-.4-.3-.6c0-.1 0-.4 0-.7c-.02-.02 0-2.9 0-2.9l.8 0c0 0-.03 2.57 0 2.6c0 .4 0 .7 0 .8c.1.2.2.4.3.5c.2.1.4.2.6.2c.3 0 .5-.1.7-.2c.2-.1.4-.3.4-.5c.1-.2.2-.5.2-.9c-.02-.01 0-2.5 0-2.5l.8 0l0 4.7l-.7 0zm1.6-1.4c0 0 .8-.2.8-.2c0 .3.1.6.3.8c.2.1.5.2.9.2c.3 0 .6-.1.8-.2c.2-.2.3-.3.3-.5c0-.2-.1-.4-.3-.5c-.1 0-.4-.1-.8-.2c-.6-.2-1-.3-1.2-.4c-.2-.1-.4-.3-.5-.4c-.1-.2-.2-.4-.2-.7c0-.2.1-.4.2-.6c.1-.1.2-.3.4-.4c.1-.1.2-.2.5-.2c.2-.1.4-.1.6-.1c.4 0 .7 0 1 .1c.3.1.5.3.6.5c.1.1.2.4.3.7c0 0-.8.1-.8.1c0-.2-.1-.4-.3-.6c-.2-.1-.4-.2-.7-.2c-.4 0-.6.1-.8.2c-.1.1-.2.3-.2.4c0 .1 0 .2.1.3c0 .1.1.2.3.2c.1 0 .3.1.7.2c.5.2.9.3 1.2.4c.2.1.4.2.5.4c.1.2.2.4.2.7c0 .2-.1.5-.3.7c-.1.3-.3.4-.6.6c-.3.1-.6.2-1 .2c-.6 0-1.1-.2-1.4-.4c-.3-.3-.5-.6-.6-1.1zm5-2.4l0-.9l.9 0l0 .9l-.9 0zm0 3.8l0-.9l.9 0l0 .9l-.9 0z" stroke="none" fill="#ffffff"/></g></svg>