<?xml version="1.0" standalone="no"?>
<!DOCTYPE svg PUBLIC "-//W3C//DTD SVG 1.1//EN" "http://www.w3.org/Graphics/SVG/1.1/DTD/svg11.dtd">
<svg xmlns="http://www.w3.org/2000/svg" version="1.1" width="178px" height="57.6px" viewBox="0 -5 178 57.6" style="top:-5px">
  <desc>Physical Servers Powered by Renewable Energy</desc>
  <defs/>
  <g id="Polygon64115">
    <path d="M 0.8 39.1 L 0.8 32.1 C 0.8 32.1 3.39 32.13 3.4 32.1 C 3.9 32.1 4.2 32.2 4.5 32.2 C 4.8 32.3 5.1 32.4 5.3 32.5 C 5.6 32.7 5.7 32.9 5.9 33.2 C 6 33.5 6.1 33.8 6.1 34.2 C 6.1 34.7 5.9 35.3 5.5 35.7 C 5.1 36.1 4.5 36.3 3.5 36.3 C 3.47 36.28 1.7 36.3 1.7 36.3 L 1.7 39.1 L 0.8 39.1 Z M 1.7 35.5 C 1.7 35.5 3.49 35.46 3.5 35.5 C 4.1 35.5 4.5 35.3 4.8 35.1 C 5 34.9 5.1 34.6 5.1 34.2 C 5.1 33.9 5.1 33.6 4.9 33.4 C 4.8 33.2 4.6 33.1 4.3 33 C 4.2 33 3.9 33 3.5 33 C 3.47 32.95 1.7 33 1.7 33 L 1.7 35.5 Z M 6.8 36.6 C 6.8 35.7 7.1 35 7.6 34.5 C 8.1 34.1 8.6 33.9 9.2 33.9 C 9.9 33.9 10.5 34.2 10.9 34.6 C 11.4 35.1 11.6 35.7 11.6 36.5 C 11.6 37.2 11.5 37.7 11.3 38.1 C 11.1 38.4 10.8 38.7 10.4 38.9 C 10.1 39.1 9.7 39.2 9.2 39.2 C 8.5 39.2 7.9 39 7.5 38.6 C 7.1 38.1 6.8 37.4 6.8 36.6 Z M 7.7 36.6 C 7.7 37.2 7.9 37.7 8.2 38 C 8.4 38.4 8.8 38.5 9.2 38.5 C 9.6 38.5 10 38.4 10.3 38 C 10.6 37.7 10.7 37.2 10.7 36.6 C 10.7 35.9 10.6 35.5 10.3 35.1 C 10 34.8 9.6 34.7 9.2 34.7 C 8.8 34.7 8.4 34.8 8.2 35.1 C 7.9 35.5 7.7 35.9 7.7 36.6 Z M 13.5 39.1 L 12 34.1 L 12.9 34.1 L 13.7 37 C 13.7 37 13.98 38.07 14 38.1 C 14 38 14.1 37.7 14.2 37 C 14.24 37.03 15 34.1 15 34.1 L 15.9 34.1 L 16.7 37 L 16.9 38 L 17.2 37 L 18.1 34.1 L 18.9 34.1 L 17.4 39.1 L 16.5 39.1 L 15.7 36.1 L 15.5 35.2 L 14.4 39.1 L 13.5 39.1 Z M 23.1 37.5 C 23.1 37.5 24 37.6 24 37.6 C 23.9 38.1 23.6 38.5 23.2 38.8 C 22.9 39.1 22.4 39.2 21.8 39.2 C 21 39.2 20.5 39 20 38.6 C 19.6 38.1 19.4 37.5 19.4 36.6 C 19.4 35.8 19.6 35.1 20 34.6 C 20.5 34.2 21 33.9 21.7 33.9 C 22.4 33.9 23 34.2 23.4 34.6 C 23.8 35.1 24 35.7 24 36.6 C 24 36.6 24 36.7 24 36.8 C 24 36.8 20.3 36.8 20.3 36.8 C 20.3 37.4 20.4 37.8 20.7 38.1 C 21 38.4 21.4 38.5 21.8 38.5 C 22.1 38.5 22.4 38.5 22.6 38.3 C 22.8 38.1 23 37.9 23.1 37.5 Z M 20.3 36.1 C 20.3 36.1 23.1 36.1 23.1 36.1 C 23.1 35.7 23 35.4 22.8 35.1 C 22.5 34.8 22.2 34.6 21.7 34.6 C 21.4 34.6 21 34.8 20.8 35 C 20.5 35.3 20.3 35.7 20.3 36.1 Z M 25.1 39.1 L 25.1 34.1 L 25.9 34.1 C 25.9 34.1 25.86 34.83 25.9 34.8 C 26.1 34.5 26.2 34.2 26.4 34.1 C 26.6 34 26.8 33.9 27 33.9 C 27.2 33.9 27.5 34 27.8 34.2 C 27.8 34.2 27.5 35 27.5 35 C 27.3 34.9 27.1 34.8 26.9 34.8 C 26.7 34.8 26.6 34.9 26.4 35 C 26.3 35.1 26.2 35.3 26.1 35.5 C 26 35.8 25.9 36.1 25.9 36.5 C 25.94 36.47 25.9 39.1 25.9 39.1 L 25.1 39.1 Z M 31.8 37.5 C 31.8 37.5 32.7 37.6 32.7 37.6 C 32.6 38.1 32.3 38.5 31.9 38.8 C 31.5 39.1 31.1 39.2 30.5 39.2 C 29.7 39.2 29.1 39 28.7 38.6 C 28.3 38.1 28.1 37.5 28.1 36.6 C 28.1 35.8 28.3 35.1 28.7 34.6 C 29.2 34.2 29.7 33.9 30.4 33.9 C 31.1 33.9 31.7 34.2 32.1 34.6 C 32.5 35.1 32.7 35.7 32.7 36.6 C 32.7 36.6 32.7 36.7 32.7 36.8 C 32.7 36.8 29 36.8 29 36.8 C 29 37.4 29.1 37.8 29.4 38.1 C 29.7 38.4 30.1 38.5 30.5 38.5 C 30.8 38.5 31.1 38.5 31.3 38.3 C 31.5 38.1 31.7 37.9 31.8 37.5 Z M 29 36.1 C 29 36.1 31.8 36.1 31.8 36.1 C 31.8 35.7 31.7 35.4 31.5 35.1 C 31.2 34.8 30.9 34.6 30.4 34.6 C 30 34.6 29.7 34.8 29.4 35 C 29.2 35.3 29 35.7 29 36.1 Z M 37.1 39.1 C 37.1 39.1 37.07 38.49 37.1 38.5 C 36.8 39 36.3 39.2 35.7 39.2 C 35.3 39.2 34.9 39.1 34.5 38.9 C 34.2 38.7 33.9 38.4 33.8 38 C 33.6 37.6 33.5 37.1 33.5 36.6 C 33.5 36.1 33.6 35.6 33.7 35.2 C 33.9 34.8 34.1 34.5 34.5 34.3 C 34.8 34.1 35.2 33.9 35.6 33.9 C 35.9 33.9 36.2 34 36.4 34.1 C 36.7 34.3 36.9 34.4 37 34.6 C 37.02 34.64 37 32.1 37 32.1 L 37.9 32.1 L 37.9 39.1 L 37.1 39.1 Z M 34.4 36.6 C 34.4 37.2 34.5 37.7 34.8 38.1 C 35 38.4 35.4 38.5 35.7 38.5 C 36.1 38.5 36.4 38.4 36.7 38.1 C 37 37.8 37.1 37.3 37.1 36.7 C 37.1 36 37 35.5 36.7 35.1 C 36.4 34.8 36.1 34.7 35.7 34.7 C 35.3 34.7 35 34.8 34.7 35.1 C 34.5 35.4 34.4 35.9 34.4 36.6 Z M 42.7 39.1 L 41.9 39.1 L 41.9 32.1 L 42.8 32.1 C 42.8 32.1 42.79 34.62 42.8 34.6 C 43.2 34.2 43.6 33.9 44.2 33.9 C 44.5 33.9 44.8 34 45.1 34.1 C 45.3 34.3 45.6 34.4 45.8 34.7 C 45.9 34.9 46.1 35.2 46.2 35.5 C 46.3 35.8 46.3 36.1 46.3 36.5 C 46.3 37.4 46.1 38.1 45.7 38.5 C 45.3 39 44.7 39.2 44.1 39.2 C 43.5 39.2 43.1 39 42.7 38.5 C 42.73 38.49 42.7 39.1 42.7 39.1 Z M 42.7 36.6 C 42.7 37.2 42.8 37.6 43 37.9 C 43.2 38.3 43.6 38.5 44.1 38.5 C 44.4 38.5 44.8 38.4 45 38 C 45.3 37.7 45.4 37.2 45.4 36.6 C 45.4 35.9 45.3 35.4 45.1 35.1 C 44.8 34.8 44.5 34.6 44.1 34.6 C 43.7 34.6 43.4 34.8 43.1 35.1 C 42.9 35.5 42.7 35.9 42.7 36.6 Z M 47.9 41.2 C 47.7 41.2 47.5 41.1 47.3 41.1 C 47.3 41.1 47.2 40.3 47.2 40.3 C 47.4 40.3 47.6 40.3 47.7 40.3 C 47.9 40.3 48.1 40.3 48.2 40.3 C 48.3 40.2 48.4 40.1 48.5 40 C 48.5 39.9 48.6 39.7 48.7 39.3 C 48.7 39.3 48.8 39.2 48.8 39.1 C 48.81 39.13 46.9 34.1 46.9 34.1 L 47.8 34.1 C 47.8 34.1 48.87 36.99 48.9 37 C 49 37.4 49.1 37.8 49.2 38.2 C 49.3 37.8 49.5 37.4 49.6 37 C 49.59 37.01 50.7 34.1 50.7 34.1 L 51.5 34.1 C 51.5 34.1 49.6 39.21 49.6 39.2 C 49.4 39.8 49.2 40.2 49.1 40.4 C 49 40.6 48.8 40.9 48.6 41 C 48.4 41.1 48.2 41.2 47.9 41.2 C 47.9 41.2 47.9 41.2 47.9 41.2 Z M 55.1 39.1 L 55.1 32.1 C 55.1 32.1 58.2 32.13 58.2 32.1 C 58.8 32.1 59.3 32.2 59.6 32.3 C 59.9 32.4 60.2 32.7 60.4 33 C 60.6 33.3 60.7 33.7 60.7 34 C 60.7 34.5 60.5 35 60.2 35.3 C 59.9 35.6 59.4 35.8 58.7 35.9 C 59 36.1 59.2 36.2 59.3 36.3 C 59.6 36.5 59.8 36.8 60 37.2 C 60.05 37.22 61.3 39.1 61.3 39.1 L 60.1 39.1 C 60.1 39.1 59.18 37.67 59.2 37.7 C 58.9 37.2 58.7 36.9 58.5 36.7 C 58.3 36.5 58.2 36.3 58 36.2 C 57.9 36.1 57.8 36.1 57.6 36.1 C 57.5 36 57.3 36 57.1 36 C 57.1 36.02 56 36 56 36 L 56 39.1 L 55.1 39.1 Z M 56 35.2 C 56 35.2 58.02 35.22 58 35.2 C 58.4 35.2 58.8 35.2 59 35.1 C 59.2 35 59.4 34.9 59.6 34.7 C 59.7 34.5 59.7 34.3 59.7 34 C 59.7 33.7 59.6 33.4 59.4 33.2 C 59.1 33 58.8 32.9 58.2 32.9 C 58.24 32.9 56 32.9 56 32.9 L 56 35.2 Z M 65.5 37.5 C 65.5 37.5 66.4 37.6 66.4 37.6 C 66.3 38.1 66 38.5 65.6 38.8 C 65.2 39.1 64.8 39.2 64.2 39.2 C 63.4 39.2 62.8 39 62.4 38.6 C 62 38.1 61.7 37.5 61.7 36.6 C 61.7 35.8 62 35.1 62.4 34.6 C 62.8 34.2 63.4 33.9 64.1 33.9 C 64.8 33.9 65.3 34.2 65.8 34.6 C 66.2 35.1 66.4 35.7 66.4 36.6 C 66.4 36.6 66.4 36.7 66.4 36.8 C 66.4 36.8 62.6 36.8 62.6 36.8 C 62.7 37.4 62.8 37.8 63.1 38.1 C 63.4 38.4 63.7 38.5 64.2 38.5 C 64.5 38.5 64.8 38.5 65 38.3 C 65.2 38.1 65.4 37.9 65.5 37.5 Z M 62.7 36.1 C 62.7 36.1 65.5 36.1 65.5 36.1 C 65.5 35.7 65.4 35.4 65.2 35.1 C 64.9 34.8 64.6 34.6 64.1 34.6 C 63.7 34.6 63.4 34.8 63.1 35 C 62.9 35.3 62.7 35.7 62.7 36.1 Z M 67.5 39.1 L 67.5 34.1 L 68.2 34.1 C 68.2 34.1 68.24 34.78 68.2 34.8 C 68.6 34.2 69.2 33.9 69.9 33.9 C 70.2 33.9 70.4 34 70.7 34.1 C 71 34.2 71.1 34.4 71.3 34.5 C 71.4 34.7 71.5 34.9 71.5 35.2 C 71.6 35.3 71.6 35.6 71.6 36 C 71.59 36.01 71.6 39.1 71.6 39.1 L 70.7 39.1 C 70.7 39.1 70.73 36.04 70.7 36 C 70.7 35.7 70.7 35.4 70.6 35.3 C 70.6 35.1 70.4 34.9 70.3 34.8 C 70.1 34.7 69.9 34.7 69.7 34.7 C 69.3 34.7 69 34.8 68.7 35 C 68.5 35.3 68.3 35.7 68.3 36.4 C 68.33 36.36 68.3 39.1 68.3 39.1 L 67.5 39.1 Z M 76.4 37.5 C 76.4 37.5 77.3 37.6 77.3 37.6 C 77.1 38.1 76.9 38.5 76.5 38.8 C 76.1 39.1 75.6 39.2 75 39.2 C 74.3 39.2 73.7 39 73.3 38.6 C 72.8 38.1 72.6 37.5 72.6 36.6 C 72.6 35.8 72.8 35.1 73.3 34.6 C 73.7 34.2 74.3 33.9 75 33.9 C 75.7 33.9 76.2 34.2 76.6 34.6 C 77.1 35.1 77.3 35.7 77.3 36.6 C 77.3 36.6 77.3 36.7 77.3 36.8 C 77.3 36.8 73.5 36.8 73.5 36.8 C 73.5 37.4 73.7 37.8 74 38.1 C 74.3 38.4 74.6 38.5 75 38.5 C 75.4 38.5 75.6 38.5 75.8 38.3 C 76.1 38.1 76.2 37.9 76.4 37.5 Z M 73.6 36.1 C 73.6 36.1 76.4 36.1 76.4 36.1 C 76.3 35.7 76.2 35.4 76.1 35.1 C 75.8 34.8 75.4 34.6 75 34.6 C 74.6 34.6 74.3 34.8 74 35 C 73.7 35.3 73.6 35.7 73.6 36.1 Z M 79.3 39.1 L 77.7 34.1 L 78.6 34.1 L 79.4 37 C 79.4 37 79.72 38.07 79.7 38.1 C 79.7 38 79.8 37.7 80 37 C 79.98 37.03 80.8 34.1 80.8 34.1 L 81.7 34.1 L 82.4 37 L 82.7 38 L 83 37 L 83.8 34.1 L 84.7 34.1 L 83.1 39.1 L 82.2 39.1 L 81.4 36.1 L 81.2 35.2 L 80.2 39.1 L 79.3 39.1 Z M 88.9 39.1 C 88.8 38.9 88.7 38.7 88.7 38.5 C 88.4 38.8 88.1 39 87.8 39.1 C 87.5 39.2 87.2 39.2 86.8 39.2 C 86.3 39.2 85.9 39.1 85.6 38.8 C 85.3 38.6 85.1 38.2 85.1 37.8 C 85.1 37.5 85.2 37.3 85.3 37.1 C 85.4 36.9 85.5 36.7 85.7 36.6 C 85.9 36.5 86.1 36.4 86.3 36.3 C 86.5 36.3 86.8 36.2 87.1 36.2 C 87.8 36.1 88.3 36 88.6 35.9 C 88.6 35.8 88.6 35.7 88.6 35.7 C 88.6 35.3 88.6 35.1 88.4 34.9 C 88.2 34.8 87.9 34.7 87.4 34.7 C 87 34.7 86.7 34.7 86.5 34.9 C 86.3 35 86.2 35.3 86.1 35.6 C 86.1 35.6 85.3 35.5 85.3 35.5 C 85.3 35.1 85.5 34.9 85.6 34.6 C 85.8 34.4 86.1 34.2 86.4 34.1 C 86.7 34 87.1 33.9 87.5 33.9 C 88 33.9 88.3 34 88.6 34.1 C 88.9 34.2 89.1 34.3 89.2 34.5 C 89.3 34.6 89.4 34.8 89.5 35.1 C 89.5 35.2 89.5 35.5 89.5 35.9 C 89.5 35.9 89.5 37 89.5 37 C 89.5 37.8 89.5 38.3 89.6 38.5 C 89.6 38.7 89.7 38.9 89.8 39.1 C 89.78 39.13 88.9 39.1 88.9 39.1 C 88.9 39.1 88.88 39.13 88.9 39.1 Z M 88.6 36.6 C 88.3 36.7 87.9 36.8 87.2 36.9 C 86.9 37 86.6 37 86.5 37.1 C 86.3 37.1 86.2 37.2 86.1 37.4 C 86.1 37.5 86 37.6 86 37.8 C 86 38 86.1 38.2 86.3 38.3 C 86.5 38.5 86.7 38.6 87 38.6 C 87.4 38.6 87.7 38.5 87.9 38.3 C 88.2 38.2 88.4 38 88.5 37.8 C 88.6 37.6 88.6 37.3 88.6 36.9 C 88.6 36.9 88.6 36.6 88.6 36.6 Z M 91.6 39.1 L 90.8 39.1 L 90.8 32.1 L 91.7 32.1 C 91.7 32.1 91.69 34.62 91.7 34.6 C 92.1 34.2 92.5 33.9 93.1 33.9 C 93.4 33.9 93.7 34 94 34.1 C 94.2 34.3 94.5 34.4 94.7 34.7 C 94.8 34.9 95 35.2 95.1 35.5 C 95.2 35.8 95.2 36.1 95.2 36.5 C 95.2 37.4 95 38.1 94.6 38.5 C 94.2 39 93.6 39.2 93 39.2 C 92.4 39.2 92 39 91.6 38.5 C 91.63 38.49 91.6 39.1 91.6 39.1 Z M 91.6 36.6 C 91.6 37.2 91.7 37.6 91.9 37.9 C 92.1 38.3 92.5 38.5 93 38.5 C 93.3 38.5 93.7 38.4 93.9 38 C 94.2 37.7 94.3 37.2 94.3 36.6 C 94.3 35.9 94.2 35.4 94 35.1 C 93.7 34.8 93.4 34.6 93 34.6 C 92.6 34.6 92.3 34.8 92 35.1 C 91.8 35.5 91.6 35.9 91.6 36.6 Z M 96.3 39.1 L 96.3 32.1 L 97.1 32.1 L 97.1 39.1 L 96.3 39.1 Z M 101.9 37.5 C 101.9 37.5 102.8 37.6 102.8 37.6 C 102.7 38.1 102.4 38.5 102 38.8 C 101.6 39.1 101.2 39.2 100.6 39.2 C 99.8 39.2 99.2 39 98.8 38.6 C 98.4 38.1 98.2 37.5 98.2 36.6 C 98.2 35.8 98.4 35.1 98.8 34.6 C 99.3 34.2 99.8 33.9 100.5 33.9 C 101.2 33.9 101.8 34.2 102.2 34.6 C 102.6 35.1 102.8 35.7 102.8 36.6 C 102.8 36.6 102.8 36.7 102.8 36.8 C 102.8 36.8 99 36.8 99 36.8 C 99.1 37.4 99.2 37.8 99.5 38.1 C 99.8 38.4 100.2 38.5 100.6 38.5 C 100.9 38.5 101.2 38.5 101.4 38.3 C 101.6 38.1 101.8 37.9 101.9 37.5 Z M 99.1 36.1 C 99.1 36.1 101.9 36.1 101.9 36.1 C 101.9 35.7 101.8 35.4 101.6 35.1 C 101.3 34.8 101 34.6 100.5 34.6 C 100.1 34.6 99.8 34.8 99.5 35 C 99.3 35.3 99.1 35.7 99.1 36.1 Z M 106.7 39.1 L 106.7 32.1 L 111.8 32.1 L 111.8 33 L 107.7 33 L 107.7 35.1 L 111.5 35.1 L 111.5 35.9 L 107.7 35.9 L 107.7 38.3 L 111.9 38.3 L 111.9 39.1 L 106.7 39.1 Z M 113.1 39.1 L 113.1 34.1 L 113.9 34.1 C 113.9 34.1 113.89 34.78 113.9 34.8 C 114.3 34.2 114.8 33.9 115.5 33.9 C 115.8 33.9 116.1 34 116.3 34.1 C 116.6 34.2 116.8 34.4 116.9 34.5 C 117 34.7 117.1 34.9 117.2 35.2 C 117.2 35.3 117.2 35.6 117.2 36 C 117.23 36.01 117.2 39.1 117.2 39.1 L 116.4 39.1 C 116.4 39.1 116.37 36.04 116.4 36 C 116.4 35.7 116.3 35.4 116.3 35.3 C 116.2 35.1 116.1 34.9 115.9 34.8 C 115.7 34.7 115.5 34.7 115.3 34.7 C 115 34.7 114.6 34.8 114.4 35 C 114.1 35.3 114 35.7 114 36.4 C 113.97 36.36 114 39.1 114 39.1 L 113.1 39.1 Z M 122 37.5 C 122 37.5 122.9 37.6 122.9 37.6 C 122.8 38.1 122.5 38.5 122.1 38.8 C 121.8 39.1 121.3 39.2 120.7 39.2 C 119.9 39.2 119.4 39 118.9 38.6 C 118.5 38.1 118.3 37.5 118.3 36.6 C 118.3 35.8 118.5 35.1 118.9 34.6 C 119.4 34.2 119.9 33.9 120.6 33.9 C 121.3 33.9 121.9 34.2 122.3 34.6 C 122.7 35.1 122.9 35.7 122.9 36.6 C 122.9 36.6 122.9 36.7 122.9 36.8 C 122.9 36.8 119.2 36.8 119.2 36.8 C 119.2 37.4 119.3 37.8 119.6 38.1 C 119.9 38.4 120.3 38.5 120.7 38.5 C 121 38.5 121.3 38.5 121.5 38.3 C 121.7 38.1 121.9 37.9 122 37.5 Z M 119.2 36.1 C 119.2 36.1 122 36.1 122 36.1 C 122 35.7 121.9 35.4 121.7 35.1 C 121.4 34.8 121.1 34.6 120.6 34.6 C 120.2 34.6 119.9 34.8 119.6 35 C 119.4 35.3 119.2 35.7 119.2 36.1 Z M 124 39.1 L 124 34.1 L 124.8 34.1 C 124.8 34.1 124.75 34.83 124.8 34.8 C 124.9 34.5 125.1 34.2 125.3 34.1 C 125.5 34 125.6 33.9 125.8 33.9 C 126.1 33.9 126.4 34 126.7 34.2 C 126.7 34.2 126.4 35 126.4 35 C 126.2 34.9 126 34.8 125.8 34.8 C 125.6 34.8 125.4 34.9 125.3 35 C 125.1 35.1 125 35.3 125 35.5 C 124.9 35.8 124.8 36.1 124.8 36.5 C 124.84 36.47 124.8 39.1 124.8 39.1 L 124 39.1 Z M 127.1 39.5 C 127.1 39.5 127.9 39.7 127.9 39.7 C 128 39.9 128.1 40.1 128.2 40.2 C 128.4 40.4 128.7 40.5 129.1 40.5 C 129.5 40.5 129.8 40.4 130 40.2 C 130.2 40.1 130.4 39.9 130.4 39.6 C 130.5 39.4 130.5 39 130.5 38.5 C 130.1 38.9 129.7 39.1 129.1 39.1 C 128.4 39.1 127.9 38.9 127.5 38.4 C 127.1 37.9 126.9 37.3 126.9 36.6 C 126.9 36.1 127 35.6 127.2 35.2 C 127.3 34.8 127.6 34.5 127.9 34.3 C 128.3 34.1 128.7 33.9 129.1 33.9 C 129.7 33.9 130.2 34.2 130.6 34.7 C 130.59 34.67 130.6 34.1 130.6 34.1 L 131.4 34.1 C 131.4 34.1 131.38 38.44 131.4 38.4 C 131.4 39.2 131.3 39.8 131.1 40.1 C 131 40.4 130.7 40.7 130.4 40.9 C 130 41.1 129.6 41.2 129.1 41.2 C 128.5 41.2 128 41 127.6 40.8 C 127.3 40.5 127.1 40.1 127.1 39.5 Z M 127.8 36.5 C 127.8 37.2 127.9 37.7 128.2 38 C 128.5 38.3 128.8 38.4 129.2 38.4 C 129.6 38.4 129.9 38.3 130.2 38 C 130.4 37.7 130.6 37.2 130.6 36.5 C 130.6 35.9 130.4 35.4 130.2 35.1 C 129.9 34.8 129.6 34.7 129.2 34.7 C 128.8 34.7 128.5 34.8 128.2 35.1 C 127.9 35.4 127.8 35.9 127.8 36.5 Z M 133.2 41.2 C 133 41.2 132.8 41.1 132.6 41.1 C 132.6 41.1 132.5 40.3 132.5 40.3 C 132.7 40.3 132.9 40.3 133 40.3 C 133.2 40.3 133.4 40.3 133.5 40.3 C 133.6 40.2 133.7 40.1 133.8 40 C 133.8 39.9 133.9 39.7 134 39.3 C 134.1 39.3 134.1 39.2 134.1 39.1 C 134.11 39.13 132.2 34.1 132.2 34.1 L 133.1 34.1 C 133.1 34.1 134.17 36.99 134.2 37 C 134.3 37.4 134.4 37.8 134.5 38.2 C 134.6 37.8 134.8 37.4 134.9 37 C 134.89 37.01 136 34.1 136 34.1 L 136.8 34.1 C 136.8 34.1 134.91 39.21 134.9 39.2 C 134.7 39.8 134.5 40.2 134.4 40.4 C 134.3 40.6 134.1 40.9 133.9 41 C 133.7 41.1 133.5 41.2 133.2 41.2 C 133.2 41.2 133.2 41.2 133.2 41.2 Z " stroke="none" fill="#ffffff"/>
  </g>
  <g id="Polygon64114">
    <path d="M 0.9 22.4 C 0.9 22.4 2.2 22.3 2.2 22.3 C 2.2 22.8 2.4 23.3 2.6 23.6 C 2.8 23.9 3.2 24.2 3.7 24.4 C 4.1 24.6 4.6 24.7 5.2 24.7 C 5.8 24.7 6.2 24.6 6.6 24.5 C 7 24.3 7.3 24.1 7.5 23.8 C 7.7 23.6 7.8 23.3 7.8 23 C 7.8 22.6 7.7 22.3 7.5 22.1 C 7.3 21.9 7 21.7 6.6 21.5 C 6.3 21.4 5.7 21.2 4.7 21 C 3.8 20.8 3.1 20.6 2.8 20.3 C 2.3 20.1 1.9 19.8 1.7 19.4 C 1.4 19 1.3 18.6 1.3 18.1 C 1.3 17.6 1.4 17.1 1.7 16.6 C 2 16.2 2.5 15.8 3 15.6 C 3.6 15.4 4.2 15.3 4.9 15.3 C 5.7 15.3 6.4 15.4 6.9 15.6 C 7.5 15.9 8 16.2 8.3 16.7 C 8.6 17.2 8.8 17.7 8.8 18.3 C 8.8 18.3 7.5 18.4 7.5 18.4 C 7.4 17.8 7.2 17.3 6.8 17 C 6.4 16.6 5.8 16.5 5 16.5 C 4.2 16.5 3.6 16.6 3.2 16.9 C 2.8 17.2 2.6 17.6 2.6 18 C 2.6 18.4 2.7 18.7 3 18.9 C 3.3 19.2 4 19.4 5.1 19.7 C 6.2 19.9 6.9 20.1 7.3 20.3 C 7.9 20.6 8.4 20.9 8.7 21.4 C 9 21.8 9.1 22.3 9.1 22.8 C 9.1 23.4 9 23.9 8.6 24.4 C 8.3 24.9 7.9 25.3 7.3 25.5 C 6.7 25.8 6 25.9 5.3 25.9 C 4.4 25.9 3.6 25.8 3 25.5 C 2.3 25.2 1.8 24.8 1.5 24.3 C 1.1 23.7 0.9 23.1 0.9 22.4 Z M 11.5 25.8 L 11.5 15.4 L 19 15.4 L 19 16.7 L 12.9 16.7 L 12.9 19.8 L 18.6 19.8 L 18.6 21 L 12.9 21 L 12.9 24.5 L 19.2 24.5 L 19.2 25.8 L 11.5 25.8 Z M 21.6 25.8 L 21.6 15.4 C 21.6 15.4 26.18 15.44 26.2 15.4 C 27.1 15.4 27.8 15.5 28.3 15.7 C 28.8 15.9 29.1 16.2 29.4 16.7 C 29.7 17.2 29.9 17.7 29.9 18.3 C 29.9 19 29.6 19.6 29.1 20.1 C 28.7 20.6 27.9 20.9 27 21.1 C 27.3 21.2 27.6 21.4 27.8 21.6 C 28.2 21.9 28.6 22.4 28.9 22.9 C 28.91 22.94 30.7 25.8 30.7 25.8 L 29 25.8 C 29 25.8 27.62 23.6 27.6 23.6 C 27.2 23 26.9 22.5 26.6 22.2 C 26.4 21.9 26.1 21.6 25.9 21.5 C 25.7 21.4 25.5 21.3 25.3 21.2 C 25.2 21.2 24.9 21.2 24.6 21.2 C 24.56 21.17 23 21.2 23 21.2 L 23 25.8 L 21.6 25.8 Z M 23 20 C 23 20 25.91 19.99 25.9 20 C 26.5 20 27 19.9 27.4 19.8 C 27.7 19.7 28 19.5 28.2 19.2 C 28.4 18.9 28.4 18.6 28.4 18.3 C 28.4 17.8 28.3 17.4 27.9 17 C 27.6 16.7 27 16.6 26.2 16.6 C 26.24 16.58 23 16.6 23 16.6 L 23 20 Z M 35.2 25.8 L 31.2 15.4 L 32.7 15.4 C 32.7 15.4 35.35 22.93 35.3 22.9 C 35.6 23.5 35.7 24.1 35.9 24.6 C 36.1 24.1 36.2 23.5 36.4 22.9 C 36.45 22.93 39.2 15.4 39.2 15.4 L 40.6 15.4 L 36.6 25.8 L 35.2 25.8 Z M 42.4 25.8 L 42.4 15.4 L 49.8 15.4 L 49.8 16.7 L 43.7 16.7 L 43.7 19.8 L 49.5 19.8 L 49.5 21 L 43.7 21 L 43.7 24.5 L 50.1 24.5 L 50.1 25.8 L 42.4 25.8 Z M 52.5 25.8 L 52.5 15.4 C 52.5 15.4 57.06 15.44 57.1 15.4 C 58 15.4 58.7 15.5 59.2 15.7 C 59.6 15.9 60 16.2 60.3 16.7 C 60.6 17.2 60.7 17.7 60.7 18.3 C 60.7 19 60.5 19.6 60 20.1 C 59.5 20.6 58.8 20.9 57.8 21.1 C 58.2 21.2 58.5 21.4 58.7 21.6 C 59 21.9 59.4 22.4 59.8 22.9 C 59.78 22.94 61.6 25.8 61.6 25.8 L 59.9 25.8 C 59.9 25.8 58.5 23.6 58.5 23.6 C 58.1 23 57.8 22.5 57.5 22.2 C 57.3 21.9 57 21.6 56.8 21.5 C 56.6 21.4 56.4 21.3 56.2 21.2 C 56 21.2 55.8 21.2 55.4 21.2 C 55.44 21.17 53.9 21.2 53.9 21.2 L 53.9 25.8 L 52.5 25.8 Z M 53.9 20 C 53.9 20 56.79 19.99 56.8 20 C 57.4 20 57.9 19.9 58.2 19.8 C 58.6 19.7 58.9 19.5 59.1 19.2 C 59.2 18.9 59.3 18.6 59.3 18.3 C 59.3 17.8 59.1 17.4 58.8 17 C 58.4 16.7 57.9 16.6 57.1 16.6 C 57.12 16.58 53.9 16.6 53.9 16.6 L 53.9 20 Z M 62.9 22.4 C 62.9 22.4 64.2 22.3 64.2 22.3 C 64.3 22.8 64.4 23.3 64.6 23.6 C 64.8 23.9 65.2 24.2 65.7 24.4 C 66.1 24.6 66.7 24.7 67.2 24.7 C 67.8 24.7 68.2 24.6 68.6 24.5 C 69 24.3 69.3 24.1 69.5 23.8 C 69.7 23.6 69.8 23.3 69.8 23 C 69.8 22.6 69.7 22.3 69.5 22.1 C 69.3 21.9 69 21.7 68.6 21.5 C 68.3 21.4 67.7 21.2 66.8 21 C 65.8 20.8 65.1 20.6 64.8 20.3 C 64.3 20.1 63.9 19.8 63.7 19.4 C 63.4 19 63.3 18.6 63.3 18.1 C 63.3 17.6 63.5 17.1 63.7 16.6 C 64 16.2 64.5 15.8 65 15.6 C 65.6 15.4 66.2 15.3 66.9 15.3 C 67.7 15.3 68.4 15.4 69 15.6 C 69.5 15.9 70 16.2 70.3 16.7 C 70.6 17.2 70.8 17.7 70.8 18.3 C 70.8 18.3 69.5 18.4 69.5 18.4 C 69.4 17.8 69.2 17.3 68.8 17 C 68.4 16.6 67.8 16.5 67 16.5 C 66.2 16.5 65.6 16.6 65.2 16.9 C 64.8 17.2 64.6 17.6 64.6 18 C 64.6 18.4 64.8 18.7 65 18.9 C 65.3 19.2 66 19.4 67.1 19.7 C 68.2 19.9 68.9 20.1 69.4 20.3 C 70 20.6 70.4 20.9 70.7 21.4 C 71 21.8 71.1 22.3 71.1 22.8 C 71.1 23.4 71 23.9 70.6 24.4 C 70.3 24.9 69.9 25.3 69.3 25.5 C 68.7 25.8 68 25.9 67.3 25.9 C 66.4 25.9 65.6 25.8 65 25.5 C 64.3 25.2 63.8 24.8 63.5 24.3 C 63.1 23.7 62.9 23.1 62.9 22.4 Z " stroke="none" fill="#ffffff"/>
  </g>
  <g id="Polygon64113">
    <path d="M 1.4 10.5 L 1.4 0.2 C 1.4 0.2 5.25 0.18 5.3 0.2 C 5.9 0.2 6.5 0.2 6.8 0.3 C 7.3 0.4 7.8 0.5 8.1 0.8 C 8.4 1 8.7 1.3 8.9 1.8 C 9.1 2.2 9.2 2.6 9.2 3.2 C 9.2 4 9 4.8 8.4 5.4 C 7.8 6 6.8 6.3 5.4 6.3 C 5.37 6.29 2.7 6.3 2.7 6.3 L 2.7 10.5 L 1.4 10.5 Z M 2.7 5.1 C 2.7 5.1 5.39 5.08 5.4 5.1 C 6.3 5.1 6.9 4.9 7.3 4.6 C 7.6 4.3 7.8 3.8 7.8 3.2 C 7.8 2.8 7.7 2.4 7.5 2.1 C 7.3 1.8 7 1.6 6.6 1.5 C 6.4 1.4 6 1.4 5.4 1.4 C 5.37 1.39 2.7 1.4 2.7 1.4 L 2.7 5.1 Z M 11.5 10.5 L 11.5 0.2 L 12.9 0.2 L 12.9 4.4 L 18.2 4.4 L 18.2 0.2 L 19.6 0.2 L 19.6 10.5 L 18.2 10.5 L 18.2 5.6 L 12.9 5.6 L 12.9 10.5 L 11.5 10.5 Z M 25.3 10.5 L 25.3 6.1 L 21.3 0.2 L 23 0.2 C 23 0.2 25.01 3.28 25 3.3 C 25.4 3.9 25.7 4.4 26.1 5 C 26.4 4.5 26.7 3.9 27.2 3.2 C 27.18 3.21 29.2 0.2 29.2 0.2 L 30.8 0.2 L 26.7 6.1 L 26.7 10.5 L 25.3 10.5 Z M 32 7.2 C 32 7.2 33.3 7.1 33.3 7.1 C 33.4 7.6 33.5 8 33.7 8.3 C 34 8.7 34.3 8.9 34.8 9.1 C 35.3 9.3 35.8 9.4 36.4 9.4 C 36.9 9.4 37.3 9.4 37.7 9.2 C 38.1 9.1 38.4 8.8 38.6 8.6 C 38.8 8.3 38.9 8 38.9 7.7 C 38.9 7.4 38.8 7.1 38.6 6.8 C 38.5 6.6 38.2 6.4 37.7 6.2 C 37.4 6.1 36.8 6 35.9 5.7 C 34.9 5.5 34.3 5.3 33.9 5.1 C 33.4 4.8 33 4.5 32.8 4.1 C 32.6 3.7 32.4 3.3 32.4 2.8 C 32.4 2.3 32.6 1.8 32.9 1.4 C 33.2 0.9 33.6 0.6 34.2 0.4 C 34.7 0.1 35.4 0 36.1 0 C 36.8 0 37.5 0.1 38.1 0.4 C 38.7 0.6 39.1 1 39.4 1.5 C 39.7 1.9 39.9 2.5 39.9 3.1 C 39.9 3.1 38.6 3.2 38.6 3.2 C 38.6 2.5 38.3 2 37.9 1.7 C 37.5 1.4 36.9 1.2 36.1 1.2 C 35.3 1.2 34.7 1.4 34.3 1.7 C 33.9 2 33.7 2.3 33.7 2.8 C 33.7 3.1 33.9 3.4 34.1 3.7 C 34.4 3.9 35.1 4.1 36.2 4.4 C 37.3 4.7 38.1 4.9 38.5 5.1 C 39.1 5.3 39.5 5.7 39.8 6.1 C 40.1 6.5 40.2 7 40.2 7.6 C 40.2 8.1 40.1 8.6 39.8 9.1 C 39.5 9.6 39 10 38.4 10.3 C 37.8 10.5 37.2 10.7 36.4 10.7 C 35.5 10.7 34.7 10.5 34.1 10.3 C 33.5 10 33 9.6 32.6 9 C 32.2 8.5 32.1 7.9 32 7.2 Z M 42.8 10.5 L 42.8 0.2 L 44.2 0.2 L 44.2 10.5 L 42.8 10.5 Z M 54.5 6.9 C 54.5 6.9 55.8 7.2 55.8 7.2 C 55.6 8.3 55 9.2 54.3 9.8 C 53.6 10.4 52.6 10.7 51.6 10.7 C 50.5 10.7 49.6 10.4 48.9 10 C 48.2 9.5 47.6 8.9 47.3 8 C 46.9 7.2 46.7 6.2 46.7 5.3 C 46.7 4.2 46.9 3.2 47.3 2.4 C 47.8 1.6 48.3 1 49.1 0.6 C 49.9 0.2 50.7 0 51.6 0 C 52.6 0 53.5 0.3 54.2 0.8 C 54.9 1.3 55.4 2.1 55.7 3 C 55.7 3 54.3 3.3 54.3 3.3 C 54.1 2.6 53.7 2 53.3 1.7 C 52.8 1.3 52.3 1.2 51.6 1.2 C 50.8 1.2 50.1 1.4 49.6 1.7 C 49 2.1 48.7 2.6 48.5 3.3 C 48.2 3.9 48.1 4.6 48.1 5.2 C 48.1 6.1 48.3 6.9 48.5 7.5 C 48.8 8.2 49.2 8.7 49.7 9 C 50.3 9.3 50.8 9.5 51.5 9.5 C 52.2 9.5 52.9 9.3 53.4 8.8 C 53.9 8.4 54.3 7.7 54.5 6.9 Z M 56.9 10.5 L 60.9 0.2 L 62.3 0.2 L 66.5 10.5 L 65 10.5 L 63.8 7.4 L 59.5 7.4 L 58.3 10.5 L 56.9 10.5 Z M 59.9 6.3 L 63.4 6.3 C 63.4 6.3 62.29 3.4 62.3 3.4 C 62 2.5 61.7 1.8 61.6 1.3 C 61.4 1.9 61.2 2.6 61 3.2 C 61.01 3.23 59.9 6.3 59.9 6.3 Z M 68.1 10.5 L 68.1 0.2 L 69.5 0.2 L 69.5 9.3 L 74.5 9.3 L 74.5 10.5 L 68.1 10.5 Z " stroke="none" fill="#ffffff"/>
  </g>
</svg>