<?xml version="1.0" standalone="no"?>
<!DOCTYPE svg PUBLIC "-//W3C//DTD SVG 1.1//EN" "http://www.w3.org/Graphics/SVG/1.1/DTD/svg11.dtd">
<svg xmlns="http://www.w3.org/2000/svg" version="1.1" width="111.4px" height="73.6px" viewBox="0 -6 111.4 73.6" style="top:-6px">
  <desc>ESG in 2021: 10 Things to Look Out For</desc>
  <defs/>
  <g id="Polygon61054">
    <path d="M 1.2 53.2 L 1.2 41 L 2.9 41 L 2.9 51.7 L 8.8 51.7 L 8.8 53.2 L 1.2 53.2 Z M 10 48.8 C 10 47.1 10.5 45.9 11.4 45.1 C 12.1 44.5 13.1 44.2 14.2 44.2 C 15.4 44.2 16.4 44.6 17.1 45.4 C 17.9 46.1 18.3 47.2 18.3 48.6 C 18.3 49.8 18.1 50.7 17.8 51.3 C 17.4 52 16.9 52.5 16.3 52.8 C 15.6 53.2 14.9 53.4 14.2 53.4 C 12.9 53.4 11.9 53 11.2 52.2 C 10.4 51.4 10 50.3 10 48.8 Z M 11.6 48.8 C 11.6 49.9 11.8 50.7 12.3 51.3 C 12.8 51.9 13.4 52.1 14.2 52.1 C 14.9 52.1 15.5 51.9 16 51.3 C 16.5 50.7 16.7 49.9 16.7 48.7 C 16.7 47.6 16.5 46.8 16 46.2 C 15.5 45.7 14.9 45.4 14.2 45.4 C 13.4 45.4 12.8 45.7 12.3 46.2 C 11.8 46.8 11.6 47.6 11.6 48.8 Z M 19.5 48.8 C 19.5 47.1 19.9 45.9 20.8 45.1 C 21.6 44.5 22.5 44.2 23.6 44.2 C 24.8 44.2 25.8 44.6 26.6 45.4 C 27.3 46.1 27.7 47.2 27.7 48.6 C 27.7 49.8 27.6 50.7 27.2 51.3 C 26.9 52 26.4 52.5 25.7 52.8 C 25.1 53.2 24.4 53.4 23.6 53.4 C 22.4 53.4 21.4 53 20.6 52.2 C 19.9 51.4 19.5 50.3 19.5 48.8 Z M 21 48.8 C 21 49.9 21.3 50.7 21.7 51.3 C 22.2 51.9 22.9 52.1 23.6 52.1 C 24.3 52.1 25 51.9 25.5 51.3 C 26 50.7 26.2 49.9 26.2 48.7 C 26.2 47.6 25.9 46.8 25.5 46.2 C 25 45.7 24.3 45.4 23.6 45.4 C 22.9 45.4 22.2 45.7 21.7 46.2 C 21.3 46.8 21 47.6 21 48.8 Z M 29.5 53.2 L 29.5 41 L 31 41 L 31 47.9 L 34.5 44.4 L 36.5 44.4 L 33.1 47.6 L 36.8 53.2 L 35 53.2 L 32 48.7 L 31 49.7 L 31 53.2 L 29.5 53.2 Z M 42.4 47.2 C 42.4 45.2 43 43.6 44 42.5 C 45.1 41.4 46.5 40.8 48.2 40.8 C 49.4 40.8 50.4 41.1 51.3 41.6 C 52.2 42.1 52.9 42.9 53.3 43.8 C 53.8 44.8 54 45.9 54 47.1 C 54 48.3 53.8 49.4 53.3 50.4 C 52.8 51.4 52.1 52.1 51.2 52.6 C 50.3 53.1 49.3 53.4 48.2 53.4 C 47.1 53.4 46.1 53.1 45.2 52.6 C 44.3 52 43.6 51.2 43.1 50.3 C 42.6 49.3 42.4 48.3 42.4 47.2 Z M 44.1 47.3 C 44.1 48.7 44.5 49.9 45.3 50.7 C 46 51.6 47 52 48.2 52 C 49.4 52 50.4 51.6 51.2 50.7 C 52 49.9 52.4 48.7 52.4 47.1 C 52.4 46.1 52.2 45.2 51.9 44.5 C 51.5 43.8 51.1 43.2 50.4 42.8 C 49.8 42.4 49 42.2 48.2 42.2 C 47.1 42.2 46.1 42.6 45.3 43.4 C 44.5 44.1 44.1 45.4 44.1 47.3 Z M 61.7 53.2 C 61.7 53.2 61.71 51.88 61.7 51.9 C 61 52.9 60.1 53.4 58.9 53.4 C 58.4 53.4 57.9 53.3 57.5 53.1 C 57 52.9 56.7 52.6 56.4 52.3 C 56.2 52 56.1 51.7 56 51.2 C 55.9 50.9 55.9 50.5 55.9 49.8 C 55.9 49.82 55.9 44.4 55.9 44.4 L 57.4 44.4 C 57.4 44.4 57.39 49.25 57.4 49.3 C 57.4 50 57.4 50.6 57.5 50.8 C 57.6 51.2 57.8 51.5 58.1 51.8 C 58.4 52 58.8 52.1 59.2 52.1 C 59.7 52.1 60.1 52 60.5 51.7 C 60.9 51.5 61.1 51.2 61.3 50.8 C 61.5 50.4 61.6 49.8 61.6 49.1 C 61.55 49.08 61.6 44.4 61.6 44.4 L 63 44.4 L 63 53.2 L 61.7 53.2 Z M 68 51.9 C 68.2 51.9 68.4 51.9 68.6 51.8 C 68.6 51.8 68.9 53.2 68.9 53.2 C 68.4 53.2 68.1 53.3 67.7 53.3 C 67.2 53.3 66.8 53.2 66.5 53 C 66.2 52.9 66 52.6 65.8 52.4 C 65.7 52.1 65.7 51.5 65.7 50.6 C 65.66 50.59 65.7 45.5 65.7 45.5 L 64.6 45.5 L 64.6 44.4 L 65.7 44.4 L 65.7 42.2 L 67.1 41.3 L 67.1 44.4 L 68.6 44.4 L 68.6 45.5 L 67.1 45.5 C 67.1 45.5 67.15 50.68 67.1 50.7 C 67.1 51.1 67.2 51.4 67.2 51.5 C 67.3 51.6 67.4 51.7 67.5 51.8 C 67.6 51.9 67.8 51.9 68 51.9 C 68 51.9 68 51.9 68 51.9 Z M 75.1 53.2 L 75.1 41 L 83.3 41 L 83.3 42.4 L 76.7 42.4 L 76.7 46.2 L 82.4 46.2 L 82.4 47.6 L 76.7 47.6 L 76.7 53.2 L 75.1 53.2 Z M 84.7 48.8 C 84.7 47.1 85.1 45.9 86 45.1 C 86.8 44.5 87.7 44.2 88.8 44.2 C 90 44.2 91 44.6 91.8 45.4 C 92.5 46.1 92.9 47.2 92.9 48.6 C 92.9 49.8 92.7 50.7 92.4 51.3 C 92.1 52 91.6 52.5 90.9 52.8 C 90.3 53.2 89.6 53.4 88.8 53.4 C 87.6 53.4 86.6 53 85.8 52.2 C 85 51.4 84.7 50.3 84.7 48.8 Z M 86.2 48.8 C 86.2 49.9 86.4 50.7 86.9 51.3 C 87.4 51.9 88 52.1 88.8 52.1 C 89.5 52.1 90.2 51.9 90.6 51.3 C 91.1 50.7 91.4 49.9 91.4 48.7 C 91.4 47.6 91.1 46.8 90.6 46.2 C 90.1 45.7 89.5 45.4 88.8 45.4 C 88 45.4 87.4 45.7 86.9 46.2 C 86.4 46.8 86.2 47.6 86.2 48.8 Z M 94.7 53.2 L 94.7 44.4 L 96 44.4 C 96 44.4 96 45.7 96 45.7 C 96.3 45.1 96.7 44.7 96.9 44.5 C 97.2 44.3 97.6 44.2 97.9 44.2 C 98.4 44.2 98.9 44.3 99.4 44.6 C 99.4 44.6 98.9 46 98.9 46 C 98.6 45.8 98.2 45.7 97.8 45.7 C 97.5 45.7 97.2 45.8 97 46 C 96.7 46.2 96.5 46.5 96.4 46.8 C 96.2 47.3 96.1 47.9 96.1 48.6 C 96.15 48.56 96.1 53.2 96.1 53.2 L 94.7 53.2 Z " stroke="none" fill="#003a5c"/>
  </g>
  <g id="Polygon61053">
    <path d="M 6.3 32.8 L 4.8 32.8 C 4.8 32.8 4.84 23.26 4.8 23.3 C 4.5 23.6 4 23.9 3.4 24.3 C 2.8 24.6 2.3 24.9 1.9 25.1 C 1.9 25.1 1.9 23.6 1.9 23.6 C 2.7 23.2 3.4 22.7 4 22.2 C 4.7 21.6 5.1 21.1 5.4 20.6 C 5.37 20.56 6.3 20.6 6.3 20.6 L 6.3 32.8 Z M 11.4 31.7 C 10.6 30.7 10.2 29.1 10.2 26.8 C 10.2 25.3 10.3 24.2 10.6 23.3 C 10.9 22.4 11.3 21.7 11.9 21.3 C 12.5 20.8 13.2 20.6 14.1 20.6 C 14.8 20.6 15.4 20.7 15.8 21 C 16.3 21.2 16.7 21.6 17.1 22.1 C 17.4 22.6 17.6 23.2 17.8 23.9 C 18 24.6 18.1 25.6 18.1 26.8 C 18.1 28.2 17.9 29.4 17.7 30.2 C 17.4 31.1 16.9 31.8 16.3 32.3 C 15.8 32.7 15 33 14.1 33 C 13 33 12 32.6 11.4 31.7 C 11.4 31.7 11.4 31.7 11.4 31.7 Z M 12.5 22.7 C 12 23.4 11.7 24.8 11.7 26.8 C 11.7 28.8 11.9 30.1 12.4 30.8 C 12.9 31.4 13.4 31.8 14.1 31.8 C 14.8 31.8 15.4 31.4 15.9 30.8 C 16.3 30.1 16.6 28.8 16.6 26.8 C 16.6 24.8 16.3 23.4 15.9 22.8 C 15.4 22.1 14.8 21.8 14.1 21.8 C 13.4 21.8 12.9 22.1 12.5 22.7 C 12.5 22.7 12.5 22.7 12.5 22.7 Z M 27.7 32.8 L 27.7 22 L 23.7 22 L 23.7 20.6 L 33.4 20.6 L 33.4 22 L 29.3 22 L 29.3 32.8 L 27.7 32.8 Z M 34.8 32.8 L 34.8 20.6 L 36.3 20.6 C 36.3 20.6 36.32 24.97 36.3 25 C 37 24.2 37.9 23.8 39 23.8 C 39.6 23.8 40.2 23.9 40.7 24.1 C 41.1 24.4 41.5 24.8 41.7 25.2 C 41.9 25.7 42 26.3 42 27.2 C 42.01 27.19 42 32.8 42 32.8 L 40.5 32.8 C 40.5 32.8 40.52 27.19 40.5 27.2 C 40.5 26.4 40.4 25.9 40 25.6 C 39.7 25.2 39.2 25 38.7 25 C 38.2 25 37.8 25.2 37.4 25.4 C 37 25.6 36.7 25.9 36.6 26.3 C 36.4 26.7 36.3 27.3 36.3 28 C 36.32 27.95 36.3 32.8 36.3 32.8 L 34.8 32.8 Z M 44.3 22.3 L 44.3 20.6 L 45.8 20.6 L 45.8 22.3 L 44.3 22.3 Z M 44.3 32.8 L 44.3 24 L 45.8 24 L 45.8 32.8 L 44.3 32.8 Z M 48.1 32.8 L 48.1 24 L 49.4 24 C 49.4 24 49.41 25.21 49.4 25.2 C 50.1 24.2 51 23.8 52.2 23.8 C 52.7 23.8 53.2 23.9 53.7 24 C 54.1 24.2 54.5 24.5 54.7 24.8 C 54.9 25.1 55.1 25.5 55.1 25.9 C 55.2 26.2 55.2 26.7 55.2 27.4 C 55.23 27.36 55.2 32.8 55.2 32.8 L 53.7 32.8 C 53.7 32.8 53.73 27.41 53.7 27.4 C 53.7 26.8 53.7 26.4 53.6 26 C 53.4 25.7 53.2 25.5 52.9 25.3 C 52.6 25.1 52.3 25.1 51.9 25.1 C 51.3 25.1 50.7 25.3 50.2 25.7 C 49.8 26.1 49.6 26.8 49.6 28 C 49.56 27.96 49.6 32.8 49.6 32.8 L 48.1 32.8 Z M 57.2 33.5 C 57.2 33.5 58.7 33.7 58.7 33.7 C 58.8 34.2 58.9 34.5 59.2 34.7 C 59.6 35 60.1 35.1 60.7 35.1 C 61.4 35.1 61.9 35 62.3 34.7 C 62.7 34.4 63 34 63.1 33.5 C 63.2 33.2 63.2 32.6 63.2 31.6 C 62.5 32.4 61.7 32.8 60.8 32.8 C 59.5 32.8 58.6 32.3 57.9 31.5 C 57.3 30.6 56.9 29.5 56.9 28.3 C 56.9 27.5 57.1 26.7 57.4 26 C 57.7 25.3 58.1 24.7 58.7 24.3 C 59.3 24 60 23.8 60.8 23.8 C 61.8 23.8 62.7 24.2 63.3 25 C 63.33 25.02 63.3 24 63.3 24 L 64.7 24 C 64.7 24 64.71 31.58 64.7 31.6 C 64.7 33 64.6 33.9 64.3 34.5 C 64 35.1 63.6 35.5 63 35.9 C 62.4 36.2 61.6 36.4 60.7 36.4 C 59.7 36.4 58.8 36.1 58.2 35.6 C 57.5 35.2 57.2 34.5 57.2 33.5 Z M 58.5 28.2 C 58.5 29.4 58.7 30.2 59.2 30.7 C 59.6 31.3 60.2 31.5 60.9 31.5 C 61.6 31.5 62.2 31.3 62.6 30.7 C 63.1 30.2 63.3 29.4 63.3 28.3 C 63.3 27.2 63.1 26.4 62.6 25.8 C 62.1 25.3 61.5 25 60.9 25 C 60.2 25 59.6 25.3 59.2 25.8 C 58.7 26.3 58.5 27.1 58.5 28.2 Z M 66.4 30.1 C 66.4 30.1 67.9 29.9 67.9 29.9 C 67.9 30.5 68.2 31 68.5 31.3 C 68.9 31.6 69.5 31.7 70.1 31.7 C 70.8 31.7 71.3 31.6 71.7 31.3 C 72 31 72.2 30.7 72.2 30.3 C 72.2 30 72 29.7 71.7 29.5 C 71.5 29.4 71 29.2 70.2 29 C 69.1 28.8 68.3 28.5 67.9 28.3 C 67.5 28.1 67.2 27.8 66.9 27.5 C 66.7 27.1 66.6 26.7 66.6 26.3 C 66.6 25.9 66.7 25.5 66.9 25.2 C 67.1 24.9 67.3 24.6 67.6 24.4 C 67.9 24.2 68.2 24.1 68.6 23.9 C 69 23.8 69.4 23.8 69.9 23.8 C 70.6 23.8 71.2 23.9 71.7 24.1 C 72.2 24.3 72.6 24.5 72.8 24.9 C 73.1 25.2 73.3 25.7 73.4 26.2 C 73.4 26.2 71.9 26.4 71.9 26.4 C 71.8 26 71.6 25.6 71.3 25.4 C 71 25.1 70.6 25 70 25 C 69.3 25 68.8 25.1 68.5 25.3 C 68.2 25.6 68.1 25.8 68.1 26.1 C 68.1 26.3 68.1 26.5 68.2 26.7 C 68.4 26.8 68.6 26.9 68.8 27 C 69 27.1 69.4 27.2 70.1 27.4 C 71.2 27.7 71.9 27.9 72.4 28.1 C 72.8 28.3 73.1 28.6 73.3 28.9 C 73.6 29.3 73.7 29.7 73.7 30.2 C 73.7 30.7 73.5 31.2 73.3 31.6 C 73 32 72.5 32.4 72 32.6 C 71.5 32.9 70.8 33 70.1 33 C 69 33 68.1 32.7 67.5 32.3 C 66.9 31.8 66.5 31.1 66.4 30.1 Z M 82.8 31.5 C 83 31.5 83.2 31.5 83.5 31.4 C 83.5 31.4 83.7 32.8 83.7 32.8 C 83.3 32.8 82.9 32.9 82.5 32.9 C 82 32.9 81.6 32.8 81.3 32.6 C 81 32.5 80.8 32.2 80.7 32 C 80.5 31.7 80.5 31.1 80.5 30.2 C 80.47 30.19 80.5 25.1 80.5 25.1 L 79.4 25.1 L 79.4 24 L 80.5 24 L 80.5 21.8 L 82 20.9 L 82 24 L 83.5 24 L 83.5 25.1 L 82 25.1 C 82 25.1 81.95 30.28 82 30.3 C 82 30.7 82 31 82 31.1 C 82.1 31.2 82.2 31.3 82.3 31.4 C 82.4 31.5 82.6 31.5 82.8 31.5 C 82.8 31.5 82.8 31.5 82.8 31.5 Z M 84.4 28.4 C 84.4 26.7 84.8 25.5 85.7 24.7 C 86.5 24.1 87.4 23.8 88.5 23.8 C 89.7 23.8 90.7 24.2 91.5 25 C 92.2 25.7 92.6 26.8 92.6 28.2 C 92.6 29.4 92.4 30.3 92.1 30.9 C 91.8 31.6 91.3 32.1 90.6 32.4 C 90 32.8 89.3 33 88.5 33 C 87.3 33 86.3 32.6 85.5 31.8 C 84.7 31 84.4 29.9 84.4 28.4 Z M 85.9 28.4 C 85.9 29.5 86.1 30.3 86.6 30.9 C 87.1 31.5 87.7 31.7 88.5 31.7 C 89.2 31.7 89.9 31.5 90.3 30.9 C 90.8 30.3 91.1 29.5 91.1 28.3 C 91.1 27.2 90.8 26.4 90.3 25.8 C 89.8 25.3 89.2 25 88.5 25 C 87.7 25 87.1 25.3 86.6 25.8 C 86.1 26.4 85.9 27.2 85.9 28.4 Z " stroke="none" fill="#003a5c"/>
  </g>
  <g id="Polygon61052">
    <path d="M 1.3 12.4 L 1.3 0.2 L 10.1 0.2 L 10.1 1.6 L 3 1.6 L 3 5.4 L 9.7 5.4 L 9.7 6.8 L 3 6.8 L 3 10.9 L 10.4 10.9 L 10.4 12.4 L 1.3 12.4 Z M 12.1 8.5 C 12.1 8.5 13.6 8.3 13.6 8.3 C 13.7 8.9 13.9 9.4 14.1 9.8 C 14.4 10.2 14.8 10.5 15.3 10.8 C 15.9 11 16.5 11.1 17.2 11.1 C 17.8 11.1 18.4 11 18.8 10.9 C 19.3 10.7 19.7 10.4 19.9 10.1 C 20.1 9.8 20.2 9.4 20.2 9.1 C 20.2 8.7 20.1 8.4 19.9 8.1 C 19.7 7.8 19.3 7.5 18.8 7.4 C 18.5 7.2 17.8 7 16.6 6.8 C 15.5 6.5 14.7 6.2 14.3 6 C 13.7 5.7 13.3 5.3 13 4.9 C 12.7 4.4 12.6 3.9 12.6 3.4 C 12.6 2.7 12.7 2.2 13.1 1.6 C 13.4 1.1 13.9 0.7 14.6 0.4 C 15.3 0.1 16 0 16.9 0 C 17.8 0 18.5 0.1 19.2 0.4 C 19.9 0.7 20.5 1.2 20.8 1.7 C 21.2 2.3 21.4 2.9 21.4 3.6 C 21.4 3.6 19.9 3.8 19.9 3.8 C 19.8 3 19.5 2.4 19 2 C 18.6 1.6 17.9 1.4 16.9 1.4 C 15.9 1.4 15.2 1.6 14.8 2 C 14.3 2.3 14.1 2.7 14.1 3.2 C 14.1 3.7 14.3 4 14.6 4.3 C 14.9 4.6 15.7 4.9 17 5.2 C 18.3 5.5 19.2 5.7 19.7 6 C 20.4 6.3 20.9 6.7 21.3 7.2 C 21.6 7.7 21.8 8.3 21.8 8.9 C 21.8 9.6 21.6 10.2 21.2 10.8 C 20.9 11.3 20.3 11.8 19.6 12.1 C 18.9 12.4 18.2 12.6 17.3 12.6 C 16.2 12.6 15.3 12.4 14.5 12.1 C 13.8 11.8 13.2 11.3 12.8 10.7 C 12.3 10 12.1 9.3 12.1 8.5 Z M 29.7 7.6 L 29.7 6.2 L 34.8 6.2 C 34.8 6.2 34.84 10.68 34.8 10.7 C 34 11.3 33.2 11.8 32.4 12.1 C 31.5 12.4 30.7 12.6 29.8 12.6 C 28.6 12.6 27.5 12.3 26.5 11.8 C 25.6 11.3 24.8 10.6 24.3 9.6 C 23.8 8.6 23.6 7.5 23.6 6.4 C 23.6 5.2 23.8 4.1 24.3 3 C 24.8 2 25.5 1.2 26.5 0.7 C 27.4 0.2 28.5 0 29.7 0 C 30.6 0 31.4 0.1 32.1 0.4 C 32.8 0.7 33.3 1.1 33.7 1.6 C 34.1 2.1 34.4 2.8 34.7 3.6 C 34.7 3.6 33.2 4 33.2 4 C 33 3.4 32.8 2.9 32.5 2.5 C 32.3 2.2 31.9 1.9 31.4 1.7 C 30.9 1.5 30.3 1.4 29.7 1.4 C 28.9 1.4 28.3 1.5 27.8 1.7 C 27.2 1.9 26.8 2.2 26.5 2.6 C 26.1 3 25.9 3.4 25.7 3.8 C 25.4 4.6 25.2 5.4 25.2 6.3 C 25.2 7.3 25.4 8.2 25.8 9 C 26.2 9.7 26.7 10.2 27.4 10.6 C 28.1 11 28.9 11.1 29.7 11.1 C 30.4 11.1 31.1 11 31.8 10.7 C 32.4 10.5 32.9 10.2 33.3 9.9 C 33.26 9.87 33.3 7.6 33.3 7.6 L 29.7 7.6 Z M 41.8 1.9 L 41.8 0.2 L 43.2 0.2 L 43.2 1.9 L 41.8 1.9 Z M 41.8 12.4 L 41.8 3.6 L 43.2 3.6 L 43.2 12.4 L 41.8 12.4 Z M 45.5 12.4 L 45.5 3.6 L 46.9 3.6 C 46.9 3.6 46.87 4.81 46.9 4.8 C 47.5 3.8 48.4 3.4 49.7 3.4 C 50.2 3.4 50.7 3.5 51.1 3.6 C 51.6 3.8 51.9 4.1 52.1 4.4 C 52.4 4.7 52.5 5.1 52.6 5.5 C 52.7 5.8 52.7 6.3 52.7 7 C 52.69 6.96 52.7 12.4 52.7 12.4 L 51.2 12.4 C 51.2 12.4 51.19 7.01 51.2 7 C 51.2 6.4 51.1 6 51 5.6 C 50.9 5.3 50.7 5.1 50.4 4.9 C 50.1 4.7 49.8 4.7 49.4 4.7 C 48.7 4.7 48.2 4.9 47.7 5.3 C 47.2 5.7 47 6.4 47 7.6 C 47.02 7.56 47 12.4 47 12.4 L 45.5 12.4 Z M 67.1 10.9 L 67.1 12.4 C 67.1 12.4 59.09 12.38 59.1 12.4 C 59.1 12 59.1 11.7 59.3 11.3 C 59.5 10.8 59.8 10.3 60.3 9.7 C 60.7 9.2 61.4 8.6 62.2 7.9 C 63.5 6.8 64.4 5.9 64.9 5.3 C 65.4 4.7 65.6 4.1 65.6 3.5 C 65.6 2.9 65.4 2.4 64.9 2 C 64.5 1.6 64 1.4 63.3 1.4 C 62.6 1.4 62 1.6 61.6 2 C 61.1 2.5 60.9 3.1 60.9 3.8 C 60.9 3.8 59.4 3.7 59.4 3.7 C 59.5 2.5 59.9 1.7 60.6 1.1 C 61.2 0.5 62.2 0.2 63.3 0.2 C 64.5 0.2 65.4 0.5 66.1 1.1 C 66.8 1.8 67.1 2.6 67.1 3.5 C 67.1 4 67 4.5 66.8 5 C 66.6 5.4 66.3 5.9 65.8 6.5 C 65.4 7 64.6 7.7 63.5 8.6 C 62.6 9.4 62.1 9.9 61.8 10.1 C 61.5 10.4 61.3 10.7 61.2 10.9 C 61.17 10.94 67.1 10.9 67.1 10.9 Z M 69.9 11.3 C 69.1 10.3 68.7 8.7 68.7 6.4 C 68.7 4.9 68.9 3.8 69.2 2.9 C 69.5 2 69.9 1.3 70.5 0.9 C 71.1 0.4 71.8 0.2 72.7 0.2 C 73.4 0.2 73.9 0.3 74.4 0.6 C 74.9 0.8 75.3 1.2 75.6 1.7 C 76 2.2 76.2 2.8 76.4 3.5 C 76.6 4.2 76.7 5.2 76.7 6.4 C 76.7 7.8 76.5 9 76.2 9.8 C 75.9 10.7 75.5 11.4 74.9 11.9 C 74.3 12.3 73.6 12.6 72.7 12.6 C 71.5 12.6 70.6 12.2 69.9 11.3 C 69.9 11.3 69.9 11.3 69.9 11.3 Z M 71 2.3 C 70.5 3 70.3 4.4 70.3 6.4 C 70.3 8.4 70.5 9.7 71 10.4 C 71.4 11 72 11.4 72.7 11.4 C 73.4 11.4 74 11 74.4 10.4 C 74.9 9.7 75.1 8.4 75.1 6.4 C 75.1 4.4 74.9 3 74.4 2.4 C 74 1.7 73.4 1.4 72.7 1.4 C 72 1.4 71.5 1.7 71 2.3 C 71 2.3 71 2.3 71 2.3 Z M 86 10.9 L 86 12.4 C 86 12.4 78 12.38 78 12.4 C 78 12 78 11.7 78.2 11.3 C 78.4 10.8 78.7 10.3 79.2 9.7 C 79.6 9.2 80.3 8.6 81.1 7.9 C 82.4 6.8 83.3 5.9 83.8 5.3 C 84.3 4.7 84.5 4.1 84.5 3.5 C 84.5 2.9 84.3 2.4 83.9 2 C 83.4 1.6 82.9 1.4 82.2 1.4 C 81.5 1.4 80.9 1.6 80.5 2 C 80 2.5 79.8 3.1 79.8 3.8 C 79.8 3.8 78.3 3.7 78.3 3.7 C 78.4 2.5 78.8 1.7 79.5 1.1 C 80.2 0.5 81.1 0.2 82.2 0.2 C 83.4 0.2 84.3 0.5 85 1.1 C 85.7 1.8 86 2.6 86 3.5 C 86 4 85.9 4.5 85.7 5 C 85.5 5.4 85.2 5.9 84.7 6.5 C 84.3 7 83.5 7.7 82.4 8.6 C 81.5 9.4 81 9.9 80.7 10.1 C 80.5 10.4 80.2 10.7 80.1 10.9 C 80.08 10.94 86 10.9 86 10.9 Z M 93.3 12.4 L 91.8 12.4 C 91.8 12.4 91.78 2.86 91.8 2.9 C 91.4 3.2 91 3.5 90.4 3.9 C 89.8 4.2 89.3 4.5 88.8 4.7 C 88.8 4.7 88.8 3.2 88.8 3.2 C 89.6 2.8 90.4 2.3 91 1.8 C 91.6 1.2 92.1 0.7 92.3 0.2 C 92.31 0.16 93.3 0.2 93.3 0.2 L 93.3 12.4 Z M 97.9 5.3 L 97.9 3.6 L 99.6 3.6 L 99.6 5.3 L 97.9 5.3 Z M 97.9 12.4 L 97.9 10.7 L 99.6 10.7 L 99.6 12.4 L 97.9 12.4 Z " stroke="none" fill="#003a5c"/>
  </g>
</svg>