<?xml version="1.0" standalone="no"?>
<!DOCTYPE svg PUBLIC "-//W3C//DTD SVG 1.1//EN" "http://www.w3.org/Graphics/SVG/1.1/DTD/svg11.dtd">
<svg xmlns="http://www.w3.org/2000/svg" version="1.1" width="176px" height="32.1px" viewBox="0 -1 176 32.1" style="top:-1px">
  <desc>Anne Robinson Global Chair, Pro Bono Committee</desc>
  <defs/>
  <g id="Polygon61571">
    <path d="M 4.1 16.5 L 4.1 15.6 L 7.2 15.6 C 7.2 15.6 7.15 18.28 7.2 18.3 C 6.7 18.7 6.2 18.9 5.7 19.1 C 5.2 19.3 4.7 19.4 4.2 19.4 C 3.5 19.4 2.8 19.3 2.3 19 C 1.7 18.6 1.3 18.2 1 17.6 C 0.7 17.1 0.5 16.4 0.5 15.7 C 0.5 15 0.7 14.4 1 13.8 C 1.3 13.2 1.7 12.7 2.2 12.4 C 2.8 12.1 3.4 12 4.1 12 C 4.6 12 5.1 12.1 5.5 12.3 C 5.9 12.4 6.3 12.7 6.5 13 C 6.7 13.3 6.9 13.6 7 14.1 C 7 14.1 6.2 14.4 6.2 14.4 C 6.1 14 6 13.7 5.8 13.5 C 5.6 13.3 5.4 13.1 5.1 13 C 4.8 12.9 4.5 12.8 4.1 12.8 C 3.7 12.8 3.3 12.9 3 13 C 2.7 13.1 2.4 13.3 2.2 13.5 C 2 13.7 1.9 14 1.8 14.2 C 1.6 14.7 1.5 15.2 1.5 15.7 C 1.5 16.3 1.6 16.8 1.8 17.3 C 2.1 17.7 2.4 18 2.8 18.2 C 3.2 18.4 3.7 18.5 4.1 18.5 C 4.5 18.5 4.9 18.5 5.3 18.3 C 5.7 18.2 6 18 6.2 17.8 C 6.23 17.81 6.2 16.5 6.2 16.5 L 4.1 16.5 Z M 8.4 19.3 L 8.4 12.1 L 9.3 12.1 L 9.3 19.3 L 8.4 19.3 Z M 10.3 16.7 C 10.3 15.7 10.6 15 11.1 14.6 C 11.6 14.2 12.1 14 12.8 14 C 13.5 14 14.1 14.2 14.5 14.7 C 15 15.1 15.2 15.8 15.2 16.6 C 15.2 17.3 15.1 17.8 14.9 18.2 C 14.7 18.6 14.4 18.9 14 19.1 C 13.6 19.3 13.2 19.4 12.8 19.4 C 12 19.4 11.5 19.2 11 18.7 C 10.6 18.2 10.3 17.6 10.3 16.7 Z M 11.2 16.7 C 11.2 17.4 11.4 17.8 11.7 18.2 C 12 18.5 12.3 18.7 12.8 18.7 C 13.2 18.7 13.6 18.5 13.9 18.2 C 14.1 17.8 14.3 17.3 14.3 16.7 C 14.3 16 14.1 15.5 13.9 15.2 C 13.6 14.9 13.2 14.7 12.8 14.7 C 12.3 14.7 12 14.9 11.7 15.2 C 11.4 15.5 11.2 16 11.2 16.7 Z M 17 19.3 L 16.2 19.3 L 16.2 12.1 L 17.1 12.1 C 17.1 12.1 17.09 14.68 17.1 14.7 C 17.5 14.2 17.9 14 18.5 14 C 18.8 14 19.1 14 19.4 14.2 C 19.7 14.3 19.9 14.5 20.1 14.7 C 20.3 14.9 20.5 15.2 20.6 15.6 C 20.7 15.9 20.7 16.2 20.7 16.6 C 20.7 17.5 20.5 18.2 20.1 18.7 C 19.6 19.2 19.1 19.4 18.5 19.4 C 17.9 19.4 17.4 19.1 17 18.6 C 17.03 18.63 17 19.3 17 19.3 Z M 17 16.6 C 17 17.3 17.1 17.7 17.3 18 C 17.6 18.4 17.9 18.7 18.4 18.7 C 18.8 18.7 19.1 18.5 19.4 18.2 C 19.7 17.8 19.8 17.3 19.8 16.7 C 19.8 16 19.7 15.5 19.4 15.2 C 19.1 14.9 18.8 14.7 18.4 14.7 C 18.1 14.7 17.7 14.9 17.4 15.2 C 17.2 15.5 17 16 17 16.6 Z M 25.3 19.3 C 25.3 19.1 25.2 18.9 25.2 18.6 C 24.8 18.9 24.5 19.1 24.2 19.2 C 23.9 19.3 23.6 19.4 23.3 19.4 C 22.7 19.4 22.2 19.3 21.9 19 C 21.6 18.7 21.5 18.3 21.5 17.9 C 21.5 17.7 21.5 17.4 21.7 17.2 C 21.8 17 21.9 16.8 22.1 16.7 C 22.3 16.6 22.5 16.5 22.7 16.4 C 22.9 16.4 23.2 16.3 23.5 16.3 C 24.2 16.2 24.8 16.1 25.1 16 C 25.1 15.9 25.1 15.8 25.1 15.8 C 25.1 15.4 25 15.1 24.8 15 C 24.6 14.8 24.3 14.7 23.8 14.7 C 23.4 14.7 23.1 14.8 22.9 14.9 C 22.7 15.1 22.6 15.3 22.5 15.7 C 22.5 15.7 21.6 15.6 21.6 15.6 C 21.7 15.2 21.8 14.9 22 14.7 C 22.2 14.5 22.5 14.3 22.8 14.2 C 23.1 14 23.5 14 24 14 C 24.4 14 24.8 14 25.1 14.1 C 25.3 14.2 25.5 14.4 25.7 14.5 C 25.8 14.7 25.9 14.9 25.9 15.1 C 26 15.3 26 15.5 26 15.9 C 26 15.9 26 17.1 26 17.1 C 26 17.9 26 18.4 26 18.7 C 26.1 18.9 26.1 19.1 26.3 19.3 C 26.26 19.28 25.3 19.3 25.3 19.3 C 25.3 19.3 25.34 19.28 25.3 19.3 Z M 25.1 16.7 C 24.8 16.8 24.3 16.9 23.7 17 C 23.3 17.1 23 17.1 22.9 17.2 C 22.7 17.3 22.6 17.3 22.5 17.5 C 22.5 17.6 22.4 17.7 22.4 17.9 C 22.4 18.1 22.5 18.3 22.7 18.5 C 22.9 18.6 23.1 18.7 23.5 18.7 C 23.8 18.7 24.1 18.6 24.4 18.5 C 24.6 18.3 24.8 18.1 25 17.9 C 25 17.7 25.1 17.4 25.1 17 C 25.1 17 25.1 16.7 25.1 16.7 Z M 27.3 19.3 L 27.3 12.1 L 28.2 12.1 L 28.2 19.3 L 27.3 19.3 Z M 37.6 16.8 C 37.6 16.8 38.5 17 38.5 17 C 38.3 17.8 38 18.4 37.4 18.8 C 36.9 19.2 36.3 19.4 35.5 19.4 C 34.8 19.4 34.1 19.2 33.7 18.9 C 33.2 18.6 32.8 18.2 32.6 17.6 C 32.3 17 32.2 16.3 32.2 15.6 C 32.2 14.9 32.3 14.3 32.6 13.7 C 32.9 13.1 33.3 12.7 33.8 12.4 C 34.4 12.1 34.9 12 35.6 12 C 36.3 12 36.9 12.2 37.4 12.5 C 37.9 12.9 38.2 13.4 38.4 14.1 C 38.4 14.1 37.5 14.3 37.5 14.3 C 37.3 13.8 37 13.4 36.7 13.2 C 36.4 12.9 36 12.8 35.5 12.8 C 35 12.8 34.5 12.9 34.2 13.2 C 33.8 13.5 33.5 13.8 33.4 14.3 C 33.2 14.7 33.2 15.2 33.2 15.6 C 33.2 16.3 33.2 16.8 33.4 17.2 C 33.6 17.7 33.9 18 34.3 18.3 C 34.6 18.5 35 18.6 35.5 18.6 C 36 18.6 36.4 18.4 36.8 18.1 C 37.2 17.8 37.4 17.4 37.6 16.8 Z M 39.6 19.3 L 39.6 12.1 L 40.4 12.1 C 40.4 12.1 40.44 14.69 40.4 14.7 C 40.9 14.2 41.4 14 42 14 C 42.4 14 42.7 14.1 43 14.2 C 43.3 14.4 43.5 14.6 43.6 14.8 C 43.7 15.1 43.8 15.5 43.8 16 C 43.79 15.99 43.8 19.3 43.8 19.3 L 42.9 19.3 C 42.9 19.3 42.91 15.99 42.9 16 C 42.9 15.6 42.8 15.2 42.6 15 C 42.4 14.8 42.2 14.7 41.8 14.7 C 41.6 14.7 41.3 14.8 41.1 14.9 C 40.9 15.1 40.7 15.3 40.6 15.5 C 40.5 15.7 40.4 16 40.4 16.4 C 40.44 16.44 40.4 19.3 40.4 19.3 L 39.6 19.3 Z M 48.7 19.3 C 48.6 19.1 48.5 18.9 48.5 18.6 C 48.2 18.9 47.9 19.1 47.6 19.2 C 47.3 19.3 46.9 19.4 46.6 19.4 C 46 19.4 45.6 19.3 45.3 19 C 45 18.7 44.8 18.3 44.8 17.9 C 44.8 17.7 44.9 17.4 45 17.2 C 45.1 17 45.3 16.8 45.5 16.7 C 45.6 16.6 45.9 16.5 46.1 16.4 C 46.3 16.4 46.5 16.3 46.9 16.3 C 47.6 16.2 48.1 16.1 48.4 16 C 48.4 15.9 48.4 15.8 48.4 15.8 C 48.4 15.4 48.4 15.1 48.2 15 C 48 14.8 47.6 14.7 47.2 14.7 C 46.8 14.7 46.5 14.8 46.3 14.9 C 46.1 15.1 45.9 15.3 45.8 15.7 C 45.8 15.7 45 15.6 45 15.6 C 45.1 15.2 45.2 14.9 45.4 14.7 C 45.5 14.5 45.8 14.3 46.1 14.2 C 46.5 14 46.9 14 47.3 14 C 47.8 14 48.1 14 48.4 14.1 C 48.7 14.2 48.9 14.4 49 14.5 C 49.1 14.7 49.2 14.9 49.3 15.1 C 49.3 15.3 49.3 15.5 49.3 15.9 C 49.3 15.9 49.3 17.1 49.3 17.1 C 49.3 17.9 49.3 18.4 49.4 18.7 C 49.4 18.9 49.5 19.1 49.6 19.3 C 49.6 19.28 48.7 19.3 48.7 19.3 C 48.7 19.3 48.69 19.28 48.7 19.3 Z M 48.4 16.7 C 48.1 16.8 47.6 16.9 47 17 C 46.6 17.1 46.4 17.1 46.2 17.2 C 46.1 17.3 46 17.3 45.9 17.5 C 45.8 17.6 45.8 17.7 45.8 17.9 C 45.8 18.1 45.9 18.3 46 18.5 C 46.2 18.6 46.5 18.7 46.8 18.7 C 47.2 18.7 47.5 18.6 47.7 18.5 C 48 18.3 48.2 18.1 48.3 17.9 C 48.4 17.7 48.4 17.4 48.4 17 C 48.4 17 48.4 16.7 48.4 16.7 Z M 50.7 13.1 L 50.7 12.1 L 51.6 12.1 L 51.6 13.1 L 50.7 13.1 Z M 50.7 19.3 L 50.7 14.1 L 51.6 14.1 L 51.6 19.3 L 50.7 19.3 Z M 52.9 19.3 L 52.9 14.1 L 53.7 14.1 C 53.7 14.1 53.69 14.88 53.7 14.9 C 53.9 14.5 54.1 14.3 54.3 14.2 C 54.4 14 54.6 14 54.8 14 C 55.1 14 55.4 14.1 55.7 14.3 C 55.7 14.3 55.4 15.1 55.4 15.1 C 55.2 14.9 55 14.9 54.8 14.9 C 54.6 14.9 54.4 14.9 54.3 15.1 C 54.1 15.2 54 15.3 53.9 15.5 C 53.8 15.9 53.8 16.2 53.8 16.6 C 53.78 16.57 53.8 19.3 53.8 19.3 L 52.9 19.3 Z M 55.9 19.3 L 55.9 18.3 L 56.9 18.3 C 56.9 18.3 56.92 19.28 56.9 19.3 C 56.9 19.6 56.9 19.9 56.7 20.2 C 56.6 20.4 56.4 20.6 56.1 20.7 C 56.1 20.7 55.9 20.3 55.9 20.3 C 56 20.2 56.2 20.1 56.3 20 C 56.4 19.8 56.4 19.6 56.4 19.3 C 56.42 19.28 55.9 19.3 55.9 19.3 Z M 61.4 19.3 L 61.4 12.1 C 61.4 12.1 64.06 12.12 64.1 12.1 C 64.5 12.1 64.9 12.1 65.1 12.2 C 65.5 12.2 65.8 12.4 66 12.5 C 66.3 12.7 66.5 12.9 66.6 13.2 C 66.7 13.5 66.8 13.8 66.8 14.2 C 66.8 14.8 66.6 15.3 66.2 15.7 C 65.9 16.2 65.2 16.4 64.1 16.4 C 64.14 16.37 62.3 16.4 62.3 16.4 L 62.3 19.3 L 61.4 19.3 Z M 62.3 15.5 C 62.3 15.5 64.16 15.53 64.2 15.5 C 64.8 15.5 65.2 15.4 65.5 15.2 C 65.7 15 65.8 14.6 65.8 14.2 C 65.8 13.9 65.8 13.7 65.6 13.5 C 65.5 13.2 65.3 13.1 65 13 C 64.9 13 64.6 13 64.1 13 C 64.14 12.97 62.3 13 62.3 13 L 62.3 15.5 Z M 67.9 19.3 L 67.9 14.1 L 68.7 14.1 C 68.7 14.1 68.7 14.88 68.7 14.9 C 68.9 14.5 69.1 14.3 69.3 14.2 C 69.4 14 69.6 14 69.8 14 C 70.1 14 70.4 14.1 70.7 14.3 C 70.7 14.3 70.4 15.1 70.4 15.1 C 70.2 14.9 70 14.9 69.8 14.9 C 69.6 14.9 69.4 14.9 69.3 15.1 C 69.1 15.2 69 15.3 68.9 15.5 C 68.8 15.9 68.8 16.2 68.8 16.6 C 68.78 16.57 68.8 19.3 68.8 19.3 L 67.9 19.3 Z M 70.9 16.7 C 70.9 15.7 71.2 15 71.7 14.6 C 72.2 14.2 72.7 14 73.3 14 C 74.1 14 74.6 14.2 75.1 14.7 C 75.6 15.1 75.8 15.8 75.8 16.6 C 75.8 17.3 75.7 17.8 75.5 18.2 C 75.3 18.6 75 18.9 74.6 19.1 C 74.2 19.3 73.8 19.4 73.3 19.4 C 72.6 19.4 72 19.2 71.6 18.7 C 71.1 18.2 70.9 17.6 70.9 16.7 Z M 71.8 16.7 C 71.8 17.4 72 17.8 72.3 18.2 C 72.5 18.5 72.9 18.7 73.3 18.7 C 73.8 18.7 74.1 18.5 74.4 18.2 C 74.7 17.8 74.9 17.3 74.9 16.7 C 74.9 16 74.7 15.5 74.4 15.2 C 74.1 14.9 73.8 14.7 73.3 14.7 C 72.9 14.7 72.5 14.9 72.3 15.2 C 72 15.5 71.8 16 71.8 16.7 Z M 79.7 19.3 L 79.7 12.1 C 79.7 12.1 82.34 12.12 82.3 12.1 C 82.9 12.1 83.3 12.2 83.7 12.3 C 84 12.5 84.2 12.7 84.4 13 C 84.6 13.3 84.7 13.6 84.7 14 C 84.7 14.3 84.6 14.5 84.5 14.8 C 84.3 15.1 84.1 15.3 83.7 15.5 C 84.1 15.6 84.5 15.8 84.7 16.1 C 84.9 16.4 85.1 16.8 85.1 17.2 C 85.1 17.5 85 17.9 84.9 18.1 C 84.7 18.4 84.5 18.7 84.3 18.8 C 84.1 19 83.9 19.1 83.5 19.2 C 83.2 19.2 82.8 19.3 82.4 19.3 C 82.39 19.28 79.7 19.3 79.7 19.3 Z M 80.6 15.1 C 80.6 15.1 82.15 15.13 82.2 15.1 C 82.6 15.1 82.9 15.1 83.1 15 C 83.3 15 83.5 14.9 83.6 14.7 C 83.7 14.5 83.8 14.3 83.8 14.1 C 83.8 13.8 83.7 13.6 83.6 13.4 C 83.5 13.3 83.3 13.1 83.1 13.1 C 82.9 13 82.6 13 82 13 C 82.04 12.97 80.6 13 80.6 13 L 80.6 15.1 Z M 80.6 18.4 C 80.6 18.4 82.39 18.44 82.4 18.4 C 82.7 18.4 82.9 18.4 83 18.4 C 83.3 18.4 83.4 18.3 83.6 18.2 C 83.7 18.1 83.8 18 83.9 17.8 C 84 17.6 84.1 17.4 84.1 17.2 C 84.1 16.9 84 16.7 83.9 16.5 C 83.7 16.3 83.6 16.2 83.3 16.1 C 83.1 16 82.7 16 82.3 16 C 82.26 15.97 80.6 16 80.6 16 L 80.6 18.4 Z M 85.9 16.7 C 85.9 15.7 86.2 15 86.7 14.6 C 87.2 14.2 87.7 14 88.4 14 C 89.1 14 89.7 14.2 90.1 14.7 C 90.6 15.1 90.8 15.8 90.8 16.6 C 90.8 17.3 90.7 17.8 90.5 18.2 C 90.3 18.6 90 18.9 89.6 19.1 C 89.2 19.3 88.8 19.4 88.4 19.4 C 87.6 19.4 87 19.2 86.6 18.7 C 86.2 18.2 85.9 17.6 85.9 16.7 Z M 86.8 16.7 C 86.8 17.4 87 17.8 87.3 18.2 C 87.6 18.5 87.9 18.7 88.4 18.7 C 88.8 18.7 89.2 18.5 89.4 18.2 C 89.7 17.8 89.9 17.3 89.9 16.7 C 89.9 16 89.7 15.5 89.4 15.2 C 89.2 14.9 88.8 14.7 88.4 14.7 C 87.9 14.7 87.6 14.9 87.3 15.2 C 87 15.5 86.8 16 86.8 16.7 Z M 91.8 19.3 L 91.8 14.1 L 92.6 14.1 C 92.6 14.1 92.61 14.83 92.6 14.8 C 93 14.3 93.5 14 94.3 14 C 94.6 14 94.9 14 95.1 14.1 C 95.4 14.3 95.6 14.4 95.7 14.6 C 95.8 14.8 95.9 15 96 15.2 C 96 15.4 96 15.7 96 16.1 C 96.03 16.09 96 19.3 96 19.3 L 95.2 19.3 C 95.2 19.3 95.15 16.13 95.2 16.1 C 95.2 15.8 95.1 15.5 95 15.3 C 95 15.1 94.9 15 94.7 14.9 C 94.5 14.8 94.3 14.7 94.1 14.7 C 93.7 14.7 93.4 14.9 93.1 15.1 C 92.8 15.3 92.7 15.8 92.7 16.4 C 92.7 16.45 92.7 19.3 92.7 19.3 L 91.8 19.3 Z M 97.1 16.7 C 97.1 15.7 97.3 15 97.9 14.6 C 98.3 14.2 98.8 14 99.5 14 C 100.2 14 100.8 14.2 101.2 14.7 C 101.7 15.1 101.9 15.8 101.9 16.6 C 101.9 17.3 101.8 17.8 101.6 18.2 C 101.4 18.6 101.1 18.9 100.7 19.1 C 100.4 19.3 99.9 19.4 99.5 19.4 C 98.8 19.4 98.2 19.2 97.7 18.7 C 97.3 18.2 97.1 17.6 97.1 16.7 Z M 98 16.7 C 98 17.4 98.1 17.8 98.4 18.2 C 98.7 18.5 99 18.7 99.5 18.7 C 99.9 18.7 100.3 18.5 100.6 18.2 C 100.9 17.8 101 17.3 101 16.7 C 101 16 100.9 15.5 100.6 15.2 C 100.3 14.9 99.9 14.7 99.5 14.7 C 99 14.7 98.7 14.9 98.4 15.2 C 98.1 15.5 98 16 98 16.7 Z M 110.9 16.8 C 110.9 16.8 111.9 17 111.9 17 C 111.7 17.8 111.3 18.4 110.8 18.8 C 110.3 19.2 109.7 19.4 108.9 19.4 C 108.1 19.4 107.5 19.2 107 18.9 C 106.6 18.6 106.2 18.2 105.9 17.6 C 105.7 17 105.6 16.3 105.6 15.6 C 105.6 14.9 105.7 14.3 106 13.7 C 106.3 13.1 106.7 12.7 107.2 12.4 C 107.7 12.1 108.3 12 108.9 12 C 109.7 12 110.3 12.2 110.7 12.5 C 111.2 12.9 111.6 13.4 111.8 14.1 C 111.8 14.1 110.8 14.3 110.8 14.3 C 110.7 13.8 110.4 13.4 110.1 13.2 C 109.8 12.9 109.4 12.8 108.9 12.8 C 108.4 12.8 107.9 12.9 107.5 13.2 C 107.2 13.5 106.9 13.8 106.8 14.3 C 106.6 14.7 106.5 15.2 106.5 15.6 C 106.5 16.3 106.6 16.8 106.8 17.2 C 107 17.7 107.3 18 107.6 18.3 C 108 18.5 108.4 18.6 108.8 18.6 C 109.4 18.6 109.8 18.4 110.2 18.1 C 110.6 17.8 110.8 17.4 110.9 16.8 Z M 112.6 16.7 C 112.6 15.7 112.9 15 113.4 14.6 C 113.9 14.2 114.4 14 115 14 C 115.8 14 116.3 14.2 116.8 14.7 C 117.2 15.1 117.5 15.8 117.5 16.6 C 117.5 17.3 117.4 17.8 117.2 18.2 C 117 18.6 116.7 18.9 116.3 19.1 C 115.9 19.3 115.5 19.4 115 19.4 C 114.3 19.4 113.7 19.2 113.3 18.7 C 112.8 18.2 112.6 17.6 112.6 16.7 Z M 113.5 16.7 C 113.5 17.4 113.7 17.8 114 18.2 C 114.2 18.5 114.6 18.7 115 18.7 C 115.5 18.7 115.8 18.5 116.1 18.2 C 116.4 17.8 116.6 17.3 116.6 16.7 C 116.6 16 116.4 15.5 116.1 15.2 C 115.8 14.9 115.5 14.7 115 14.7 C 114.6 14.7 114.2 14.9 114 15.2 C 113.7 15.5 113.5 16 113.5 16.7 Z M 118.5 19.3 L 118.5 14.1 L 119.3 14.1 C 119.3 14.1 119.29 14.82 119.3 14.8 C 119.4 14.6 119.7 14.4 119.9 14.2 C 120.2 14.1 120.5 14 120.9 14 C 121.2 14 121.6 14.1 121.8 14.2 C 122 14.4 122.2 14.6 122.3 14.9 C 122.7 14.3 123.3 14 123.9 14 C 124.4 14 124.8 14.1 125.1 14.4 C 125.4 14.7 125.5 15.1 125.5 15.7 C 125.53 15.72 125.5 19.3 125.5 19.3 L 124.7 19.3 C 124.7 19.3 124.65 16.01 124.7 16 C 124.7 15.7 124.6 15.4 124.6 15.3 C 124.5 15.1 124.4 15 124.3 14.9 C 124.1 14.8 123.9 14.7 123.7 14.7 C 123.4 14.7 123.1 14.9 122.8 15.1 C 122.6 15.3 122.5 15.7 122.5 16.3 C 122.46 16.27 122.5 19.3 122.5 19.3 L 121.6 19.3 C 121.6 19.3 121.58 15.91 121.6 15.9 C 121.6 15.5 121.5 15.2 121.4 15 C 121.2 14.8 121 14.7 120.7 14.7 C 120.4 14.7 120.2 14.8 120 14.9 C 119.8 15.1 119.6 15.3 119.5 15.5 C 119.4 15.8 119.4 16.1 119.4 16.6 C 119.38 16.59 119.4 19.3 119.4 19.3 L 118.5 19.3 Z M 126.8 19.3 L 126.8 14.1 L 127.6 14.1 C 127.6 14.1 127.62 14.82 127.6 14.8 C 127.8 14.6 128 14.4 128.3 14.2 C 128.5 14.1 128.8 14 129.2 14 C 129.6 14 129.9 14.1 130.1 14.2 C 130.4 14.4 130.6 14.6 130.7 14.9 C 131.1 14.3 131.6 14 132.3 14 C 132.8 14 133.2 14.1 133.4 14.4 C 133.7 14.7 133.9 15.1 133.9 15.7 C 133.86 15.72 133.9 19.3 133.9 19.3 L 133 19.3 C 133 19.3 132.98 16.01 133 16 C 133 15.7 133 15.4 132.9 15.3 C 132.8 15.1 132.7 15 132.6 14.9 C 132.4 14.8 132.3 14.7 132.1 14.7 C 131.7 14.7 131.4 14.9 131.2 15.1 C 130.9 15.3 130.8 15.7 130.8 16.3 C 130.79 16.27 130.8 19.3 130.8 19.3 L 129.9 19.3 C 129.9 19.3 129.91 15.91 129.9 15.9 C 129.9 15.5 129.8 15.2 129.7 15 C 129.6 14.8 129.3 14.7 129 14.7 C 128.7 14.7 128.5 14.8 128.3 14.9 C 128.1 15.1 127.9 15.3 127.9 15.5 C 127.8 15.8 127.7 16.1 127.7 16.6 C 127.71 16.59 127.7 19.3 127.7 19.3 L 126.8 19.3 Z M 135.2 13.1 L 135.2 12.1 L 136 12.1 L 136 13.1 L 135.2 13.1 Z M 135.2 19.3 L 135.2 14.1 L 136 14.1 L 136 19.3 L 135.2 19.3 Z M 138.9 18.5 C 139 18.5 139.1 18.5 139.3 18.5 C 139.3 18.5 139.4 19.3 139.4 19.3 C 139.2 19.3 139 19.3 138.8 19.3 C 138.4 19.3 138.2 19.3 138 19.2 C 137.8 19.1 137.7 19 137.7 18.8 C 137.6 18.6 137.5 18.3 137.5 17.8 C 137.54 17.76 137.5 14.8 137.5 14.8 L 136.9 14.8 L 136.9 14.1 L 137.5 14.1 L 137.5 12.8 L 138.4 12.3 L 138.4 14.1 L 139.3 14.1 L 139.3 14.8 L 138.4 14.8 C 138.4 14.8 138.42 17.81 138.4 17.8 C 138.4 18.1 138.4 18.2 138.5 18.3 C 138.5 18.4 138.5 18.4 138.6 18.5 C 138.7 18.5 138.8 18.5 138.9 18.5 C 138.9 18.5 138.9 18.5 138.9 18.5 Z M 141.7 18.5 C 141.8 18.5 141.9 18.5 142.1 18.5 C 142.1 18.5 142.2 19.3 142.2 19.3 C 142 19.3 141.7 19.3 141.5 19.3 C 141.2 19.3 141 19.3 140.8 19.2 C 140.6 19.1 140.5 19 140.4 18.8 C 140.4 18.6 140.3 18.3 140.3 17.8 C 140.32 17.76 140.3 14.8 140.3 14.8 L 139.7 14.8 L 139.7 14.1 L 140.3 14.1 L 140.3 12.8 L 141.2 12.3 L 141.2 14.1 L 142.1 14.1 L 142.1 14.8 L 141.2 14.8 C 141.2 14.8 141.2 17.81 141.2 17.8 C 141.2 18.1 141.2 18.2 141.2 18.3 C 141.3 18.4 141.3 18.4 141.4 18.5 C 141.5 18.5 141.6 18.5 141.7 18.5 C 141.7 18.5 141.7 18.5 141.7 18.5 Z M 146.5 17.6 C 146.5 17.6 147.4 17.7 147.4 17.7 C 147.3 18.3 147 18.7 146.6 19 C 146.2 19.3 145.7 19.4 145.1 19.4 C 144.4 19.4 143.8 19.2 143.3 18.7 C 142.9 18.2 142.6 17.6 142.6 16.7 C 142.6 15.9 142.9 15.2 143.3 14.7 C 143.8 14.2 144.4 14 145.1 14 C 145.8 14 146.3 14.2 146.8 14.7 C 147.2 15.2 147.4 15.8 147.4 16.7 C 147.4 16.7 147.4 16.8 147.4 16.9 C 147.4 16.9 143.6 16.9 143.6 16.9 C 143.6 17.5 143.7 17.9 144 18.2 C 144.3 18.5 144.7 18.7 145.1 18.7 C 145.4 18.7 145.7 18.6 145.9 18.4 C 146.2 18.3 146.4 18 146.5 17.6 Z M 143.6 16.2 C 143.6 16.2 146.5 16.2 146.5 16.2 C 146.5 15.8 146.3 15.4 146.2 15.2 C 145.9 14.9 145.5 14.7 145.1 14.7 C 144.7 14.7 144.3 14.8 144.1 15.1 C 143.8 15.4 143.6 15.7 143.6 16.2 Z M 152.1 17.6 C 152.1 17.6 153 17.7 153 17.7 C 152.8 18.3 152.6 18.7 152.2 19 C 151.8 19.3 151.3 19.4 150.7 19.4 C 149.9 19.4 149.3 19.2 148.9 18.7 C 148.4 18.2 148.2 17.6 148.2 16.7 C 148.2 15.9 148.4 15.2 148.9 14.7 C 149.3 14.2 149.9 14 150.6 14 C 151.3 14 151.9 14.2 152.3 14.7 C 152.8 15.2 153 15.8 153 16.7 C 153 16.7 153 16.8 153 16.9 C 153 16.9 149.1 16.9 149.1 16.9 C 149.1 17.5 149.3 17.9 149.6 18.2 C 149.9 18.5 150.3 18.7 150.7 18.7 C 151 18.7 151.3 18.6 151.5 18.4 C 151.7 18.3 151.9 18 152.1 17.6 Z M 149.2 16.2 C 149.2 16.2 152.1 16.2 152.1 16.2 C 152 15.8 151.9 15.4 151.7 15.2 C 151.4 14.9 151.1 14.7 150.6 14.7 C 150.2 14.7 149.9 14.8 149.6 15.1 C 149.3 15.4 149.2 15.7 149.2 16.2 Z " stroke="none" fill="#ffffff"/>
  </g>
  <g id="Polygon61570">
    <path d="M 7.2 7.3 L 5.6 7.3 L 5 5.7 L 2.1 5.7 L 1.5 7.3 L 0 7.3 L 2.8 0.1 L 4.3 0.1 L 7.2 7.3 Z M 4.5 4.4 L 3.5 1.8 L 2.6 4.4 L 4.5 4.4 Z M 12.7 7.3 L 11.3 7.3 C 11.3 7.3 11.28 4.63 11.3 4.6 C 11.3 4.1 11.3 3.7 11.2 3.5 C 11.1 3.4 11 3.3 10.9 3.2 C 10.8 3.1 10.6 3 10.4 3 C 10.2 3 10 3.1 9.8 3.2 C 9.6 3.4 9.5 3.5 9.4 3.7 C 9.3 4 9.3 4.4 9.3 4.9 C 9.3 4.93 9.3 7.3 9.3 7.3 L 7.9 7.3 L 7.9 2.1 L 9.2 2.1 C 9.2 2.1 9.2 2.86 9.2 2.9 C 9.7 2.3 10.2 2 10.9 2 C 11.2 2 11.5 2 11.7 2.1 C 12 2.3 12.2 2.4 12.3 2.6 C 12.4 2.7 12.5 2.9 12.6 3.1 C 12.6 3.3 12.7 3.7 12.7 4.1 C 12.66 4.06 12.7 7.3 12.7 7.3 Z M 18.8 7.3 L 17.4 7.3 C 17.4 7.3 17.39 4.63 17.4 4.6 C 17.4 4.1 17.4 3.7 17.3 3.5 C 17.2 3.4 17.2 3.3 17 3.2 C 16.9 3.1 16.7 3 16.5 3 C 16.3 3 16.1 3.1 15.9 3.2 C 15.7 3.4 15.6 3.5 15.5 3.7 C 15.4 4 15.4 4.4 15.4 4.9 C 15.41 4.93 15.4 7.3 15.4 7.3 L 14 7.3 L 14 2.1 L 15.3 2.1 C 15.3 2.1 15.31 2.86 15.3 2.9 C 15.8 2.3 16.3 2 17 2 C 17.3 2 17.6 2 17.9 2.1 C 18.1 2.3 18.3 2.4 18.4 2.6 C 18.5 2.7 18.6 2.9 18.7 3.1 C 18.7 3.3 18.8 3.7 18.8 4.1 C 18.76 4.06 18.8 7.3 18.8 7.3 Z M 23.2 5.6 C 23.2 5.6 24.5 5.9 24.5 5.9 C 24.4 6.4 24.1 6.7 23.7 7 C 23.3 7.3 22.8 7.4 22.3 7.4 C 21.4 7.4 20.7 7.1 20.3 6.5 C 19.9 6 19.8 5.4 19.8 4.7 C 19.8 3.9 20 3.2 20.4 2.7 C 20.9 2.2 21.4 2 22.1 2 C 22.9 2 23.5 2.2 24 2.7 C 24.4 3.3 24.6 4 24.6 5.1 C 24.6 5.1 21.2 5.1 21.2 5.1 C 21.2 5.5 21.3 5.8 21.5 6 C 21.7 6.3 22 6.4 22.3 6.4 C 22.5 6.4 22.7 6.3 22.8 6.2 C 23 6.1 23.1 5.9 23.2 5.6 Z M 23.2 4.2 C 23.2 3.8 23.1 3.5 22.9 3.3 C 22.7 3.1 22.5 3 22.2 3 C 21.9 3 21.7 3.1 21.5 3.4 C 21.3 3.6 21.2 3.9 21.2 4.2 C 21.2 4.2 23.2 4.2 23.2 4.2 Z M 28.5 7.3 L 28.5 0.1 C 28.5 0.1 31.55 0.12 31.6 0.1 C 32.3 0.1 32.9 0.2 33.2 0.3 C 33.6 0.4 33.8 0.7 34.1 1 C 34.3 1.3 34.4 1.7 34.4 2.1 C 34.4 2.7 34.2 3.1 33.9 3.5 C 33.6 3.8 33.1 4 32.5 4.1 C 32.8 4.3 33 4.5 33.2 4.7 C 33.5 4.9 33.7 5.3 34.1 5.9 C 34.07 5.88 34.9 7.3 34.9 7.3 L 33.2 7.3 C 33.2 7.3 32.17 5.72 32.2 5.7 C 31.8 5.2 31.5 4.8 31.4 4.7 C 31.3 4.5 31.1 4.4 31 4.4 C 30.8 4.3 30.6 4.3 30.2 4.3 C 30.25 4.29 30 4.3 30 4.3 L 30 7.3 L 28.5 7.3 Z M 30 3.1 C 30 3.1 31.03 3.15 31 3.1 C 31.7 3.1 32.2 3.1 32.3 3.1 C 32.5 3 32.6 2.9 32.7 2.8 C 32.8 2.6 32.9 2.4 32.9 2.2 C 32.9 2 32.8 1.8 32.7 1.6 C 32.6 1.5 32.4 1.4 32.1 1.4 C 32 1.3 31.7 1.3 31.1 1.3 C 31.08 1.33 30 1.3 30 1.3 L 30 3.1 Z M 35.4 4.6 C 35.4 4.2 35.5 3.7 35.7 3.3 C 36 2.9 36.3 2.5 36.7 2.3 C 37.1 2.1 37.6 2 38.1 2 C 38.9 2 39.5 2.2 40 2.7 C 40.5 3.3 40.8 3.9 40.8 4.7 C 40.8 5.5 40.5 6.1 40 6.6 C 39.5 7.1 38.8 7.4 38.1 7.4 C 37.6 7.4 37.2 7.3 36.7 7.1 C 36.3 6.9 36 6.5 35.7 6.1 C 35.5 5.7 35.4 5.2 35.4 4.6 Z M 36.8 4.7 C 36.8 5.2 36.9 5.6 37.2 5.9 C 37.4 6.1 37.7 6.3 38.1 6.3 C 38.4 6.3 38.7 6.1 39 5.9 C 39.2 5.6 39.3 5.2 39.3 4.7 C 39.3 4.2 39.2 3.8 39 3.5 C 38.7 3.2 38.4 3.1 38.1 3.1 C 37.7 3.1 37.4 3.2 37.2 3.5 C 36.9 3.8 36.8 4.2 36.8 4.7 Z M 41.8 7.3 L 41.8 0.1 L 43.1 0.1 C 43.1 0.1 43.14 2.7 43.1 2.7 C 43.6 2.2 44.1 2 44.6 2 C 45.3 2 45.8 2.2 46.2 2.7 C 46.6 3.1 46.8 3.8 46.8 4.6 C 46.8 5.5 46.6 6.2 46.2 6.7 C 45.8 7.2 45.3 7.4 44.7 7.4 C 44.4 7.4 44.1 7.3 43.8 7.2 C 43.5 7 43.3 6.8 43 6.5 C 43.04 6.52 43 7.3 43 7.3 L 41.8 7.3 Z M 43.1 4.6 C 43.1 5.1 43.2 5.5 43.4 5.8 C 43.6 6.1 43.9 6.3 44.3 6.3 C 44.6 6.3 44.9 6.2 45.1 5.9 C 45.3 5.7 45.4 5.3 45.4 4.7 C 45.4 4.1 45.3 3.7 45.1 3.4 C 44.9 3.2 44.6 3 44.3 3 C 43.9 3 43.7 3.2 43.5 3.4 C 43.2 3.7 43.1 4.1 43.1 4.6 Z M 47.9 1.4 L 47.9 0.1 L 49.3 0.1 L 49.3 1.4 L 47.9 1.4 Z M 47.9 7.3 L 47.9 2.1 L 49.3 2.1 L 49.3 7.3 L 47.9 7.3 Z M 55.4 7.3 L 54.1 7.3 C 54.1 7.3 54.06 4.63 54.1 4.6 C 54.1 4.1 54 3.7 54 3.5 C 53.9 3.4 53.8 3.3 53.7 3.2 C 53.6 3.1 53.4 3 53.2 3 C 53 3 52.8 3.1 52.6 3.2 C 52.4 3.4 52.3 3.5 52.2 3.7 C 52.1 4 52.1 4.4 52.1 4.9 C 52.08 4.93 52.1 7.3 52.1 7.3 L 50.7 7.3 L 50.7 2.1 L 52 2.1 C 52 2.1 51.98 2.86 52 2.9 C 52.4 2.3 53 2 53.7 2 C 54 2 54.3 2 54.5 2.1 C 54.8 2.3 55 2.4 55.1 2.6 C 55.2 2.7 55.3 2.9 55.4 3.1 C 55.4 3.3 55.4 3.7 55.4 4.1 C 55.43 4.06 55.4 7.3 55.4 7.3 Z M 56.3 5.8 C 56.3 5.8 57.7 5.6 57.7 5.6 C 57.8 5.9 57.9 6.1 58.1 6.2 C 58.3 6.3 58.5 6.4 58.8 6.4 C 59.2 6.4 59.4 6.3 59.6 6.2 C 59.7 6.1 59.8 6 59.8 5.8 C 59.8 5.7 59.8 5.7 59.7 5.6 C 59.6 5.5 59.5 5.5 59.2 5.4 C 58.1 5.2 57.4 4.9 57.1 4.7 C 56.7 4.5 56.5 4.1 56.5 3.6 C 56.5 3.1 56.7 2.7 57.1 2.4 C 57.4 2.1 58 2 58.7 2 C 59.4 2 59.9 2.1 60.3 2.3 C 60.6 2.6 60.9 2.9 61 3.3 C 61 3.3 59.7 3.6 59.7 3.6 C 59.7 3.4 59.6 3.2 59.4 3.1 C 59.2 3 59 3 58.7 3 C 58.4 3 58.1 3 58 3.1 C 57.9 3.2 57.8 3.3 57.8 3.4 C 57.8 3.5 57.8 3.6 57.9 3.6 C 58.1 3.7 58.5 3.9 59.2 4 C 60 4.2 60.5 4.4 60.8 4.6 C 61 4.9 61.2 5.2 61.2 5.7 C 61.2 6.1 61 6.5 60.6 6.9 C 60.2 7.2 59.6 7.4 58.8 7.4 C 58.1 7.4 57.6 7.3 57.1 7 C 56.7 6.7 56.5 6.3 56.3 5.8 Z M 62.1 4.6 C 62.1 4.2 62.2 3.7 62.4 3.3 C 62.6 2.9 62.9 2.5 63.4 2.3 C 63.8 2.1 64.2 2 64.7 2 C 65.5 2 66.2 2.2 66.7 2.7 C 67.2 3.3 67.4 3.9 67.4 4.7 C 67.4 5.5 67.2 6.1 66.7 6.6 C 66.2 7.1 65.5 7.4 64.7 7.4 C 64.3 7.4 63.8 7.3 63.4 7.1 C 63 6.9 62.6 6.5 62.4 6.1 C 62.2 5.7 62.1 5.2 62.1 4.6 Z M 63.5 4.7 C 63.5 5.2 63.6 5.6 63.8 5.9 C 64.1 6.1 64.4 6.3 64.7 6.3 C 65.1 6.3 65.4 6.1 65.6 5.9 C 65.9 5.6 66 5.2 66 4.7 C 66 4.2 65.9 3.8 65.6 3.5 C 65.4 3.2 65.1 3.1 64.7 3.1 C 64.4 3.1 64.1 3.2 63.8 3.5 C 63.6 3.8 63.5 4.2 63.5 4.7 Z M 73.2 7.3 L 71.8 7.3 C 71.8 7.3 71.84 4.63 71.8 4.6 C 71.8 4.1 71.8 3.7 71.7 3.5 C 71.7 3.4 71.6 3.3 71.5 3.2 C 71.3 3.1 71.2 3 71 3 C 70.7 3 70.5 3.1 70.3 3.2 C 70.2 3.4 70 3.5 70 3.7 C 69.9 4 69.9 4.4 69.9 4.9 C 69.85 4.93 69.9 7.3 69.9 7.3 L 68.5 7.3 L 68.5 2.1 L 69.8 2.1 C 69.8 2.1 69.76 2.86 69.8 2.9 C 70.2 2.3 70.8 2 71.5 2 C 71.8 2 72 2 72.3 2.1 C 72.5 2.3 72.7 2.4 72.9 2.6 C 73 2.7 73.1 2.9 73.1 3.1 C 73.2 3.3 73.2 3.7 73.2 4.1 C 73.21 4.06 73.2 7.3 73.2 7.3 Z " stroke="none" fill="#ffffff"/>
  </g>
</svg>