<?xml version="1.0" standalone="no"?>
<!DOCTYPE svg PUBLIC "-//W3C//DTD SVG 1.1//EN" "http://www.w3.org/Graphics/SVG/1.1/DTD/svg11.dtd">
<svg xmlns="http://www.w3.org/2000/svg" version="1.1" width="186px" height="74.6px" viewBox="0 -6 186 74.6" style="top:-6px">
  <desc>The Book of Jargon — Environmental, Social &amp; Governance</desc>
  <defs/>
  <g id="Polygon61282">
    <path d="M 7 48.4 L 7 47 L 12.2 47 C 12.2 47 12.16 51.48 12.2 51.5 C 11.4 52.1 10.6 52.6 9.7 52.9 C 8.9 53.2 8 53.4 7.1 53.4 C 5.9 53.4 4.8 53.1 3.9 52.6 C 2.9 52.1 2.1 51.4 1.7 50.4 C 1.2 49.4 0.9 48.3 0.9 47.2 C 0.9 46 1.2 44.9 1.6 43.8 C 2.1 42.8 2.9 42 3.8 41.5 C 4.7 41 5.8 40.8 7 40.8 C 7.9 40.8 8.7 40.9 9.4 41.2 C 10.1 41.5 10.7 41.9 11.1 42.4 C 11.5 42.9 11.8 43.6 12 44.4 C 12 44.4 10.5 44.8 10.5 44.8 C 10.3 44.2 10.1 43.7 9.8 43.3 C 9.6 43 9.2 42.7 8.7 42.5 C 8.2 42.3 7.6 42.2 7 42.2 C 6.3 42.2 5.6 42.3 5.1 42.5 C 4.6 42.7 4.1 43 3.8 43.4 C 3.5 43.8 3.2 44.2 3 44.6 C 2.7 45.4 2.6 46.2 2.6 47.1 C 2.6 48.1 2.8 49 3.1 49.8 C 3.5 50.5 4 51 4.8 51.4 C 5.5 51.8 6.2 51.9 7 51.9 C 7.7 51.9 8.4 51.8 9.1 51.5 C 9.7 51.3 10.2 51 10.6 50.7 C 10.58 50.67 10.6 48.4 10.6 48.4 L 7 48.4 Z M 13.8 48.8 C 13.8 47.1 14.2 45.9 15.1 45.1 C 15.9 44.5 16.8 44.2 17.9 44.2 C 19.1 44.2 20.1 44.6 20.9 45.4 C 21.7 46.1 22 47.2 22 48.6 C 22 49.8 21.9 50.7 21.5 51.3 C 21.2 52 20.7 52.5 20.1 52.8 C 19.4 53.2 18.7 53.4 17.9 53.4 C 16.7 53.4 15.7 53 14.9 52.2 C 14.2 51.4 13.8 50.3 13.8 48.8 Z M 15.3 48.8 C 15.3 49.9 15.6 50.7 16.1 51.3 C 16.6 51.9 17.2 52.1 17.9 52.1 C 18.7 52.1 19.3 51.9 19.8 51.3 C 20.3 50.7 20.5 49.9 20.5 48.7 C 20.5 47.6 20.3 46.8 19.8 46.2 C 19.3 45.7 18.7 45.4 17.9 45.4 C 17.2 45.4 16.6 45.7 16.1 46.2 C 15.6 46.8 15.3 47.6 15.3 48.8 Z M 26.2 53.2 L 22.9 44.4 L 24.5 44.4 C 24.5 44.4 26.36 49.64 26.4 49.6 C 26.6 50.2 26.8 50.8 26.9 51.4 C 27.1 51 27.2 50.4 27.5 49.7 C 27.48 49.74 29.4 44.4 29.4 44.4 L 31 44.4 L 27.6 53.2 L 26.2 53.2 Z M 38.3 50.3 C 38.3 50.3 39.9 50.5 39.9 50.5 C 39.6 51.4 39.2 52.1 38.5 52.6 C 37.9 53.1 37 53.4 36 53.4 C 34.7 53.4 33.7 53 32.9 52.2 C 32.2 51.4 31.8 50.3 31.8 48.8 C 31.8 47.4 32.2 46.2 32.9 45.4 C 33.7 44.6 34.7 44.2 35.9 44.2 C 37.1 44.2 38.1 44.6 38.8 45.4 C 39.6 46.2 39.9 47.3 39.9 48.8 C 39.9 48.8 39.9 49 39.9 49.2 C 39.9 49.2 33.3 49.2 33.3 49.2 C 33.4 50.1 33.7 50.9 34.2 51.4 C 34.7 51.9 35.3 52.1 36 52.1 C 36.6 52.1 37 52 37.4 51.7 C 37.8 51.4 38.1 51 38.3 50.3 Z M 33.4 47.9 C 33.4 47.9 38.3 47.9 38.3 47.9 C 38.3 47.2 38.1 46.6 37.8 46.3 C 37.3 45.7 36.7 45.4 35.9 45.4 C 35.2 45.4 34.7 45.6 34.2 46.1 C 33.7 46.5 33.5 47.2 33.4 47.9 Z M 41.7 53.2 L 41.7 44.4 L 43.1 44.4 C 43.1 44.4 43.08 45.7 43.1 45.7 C 43.4 45.1 43.7 44.7 44 44.5 C 44.3 44.3 44.6 44.2 45 44.2 C 45.5 44.2 46 44.3 46.5 44.6 C 46.5 44.6 46 46 46 46 C 45.6 45.8 45.3 45.7 44.9 45.7 C 44.6 45.7 44.3 45.8 44 46 C 43.8 46.2 43.6 46.5 43.5 46.8 C 43.3 47.3 43.2 47.9 43.2 48.6 C 43.23 48.56 43.2 53.2 43.2 53.2 L 41.7 53.2 Z M 47.4 53.2 L 47.4 44.4 L 48.8 44.4 C 48.8 44.4 48.76 45.61 48.8 45.6 C 49.4 44.6 50.3 44.2 51.6 44.2 C 52.1 44.2 52.6 44.3 53 44.4 C 53.5 44.6 53.8 44.9 54 45.2 C 54.3 45.5 54.4 45.9 54.5 46.3 C 54.5 46.6 54.6 47.1 54.6 47.8 C 54.58 47.76 54.6 53.2 54.6 53.2 L 53.1 53.2 C 53.1 53.2 53.08 47.81 53.1 47.8 C 53.1 47.2 53 46.8 52.9 46.4 C 52.8 46.1 52.6 45.9 52.3 45.7 C 52 45.5 51.6 45.5 51.2 45.5 C 50.6 45.5 50.1 45.7 49.6 46.1 C 49.1 46.5 48.9 47.2 48.9 48.4 C 48.91 48.36 48.9 53.2 48.9 53.2 L 47.4 53.2 Z M 62.9 53.2 C 62.8 52.9 62.7 52.5 62.6 52.1 C 62.1 52.6 61.5 52.9 61 53.1 C 60.5 53.3 60 53.4 59.4 53.4 C 58.4 53.4 57.7 53.1 57.1 52.7 C 56.6 52.2 56.4 51.6 56.4 50.9 C 56.4 50.4 56.5 50 56.7 49.7 C 56.9 49.3 57.1 49 57.4 48.8 C 57.7 48.6 58.1 48.4 58.5 48.3 C 58.8 48.2 59.2 48.2 59.8 48.1 C 61 48 61.9 47.8 62.5 47.6 C 62.5 47.4 62.5 47.2 62.5 47.2 C 62.5 46.6 62.4 46.2 62.1 45.9 C 61.7 45.6 61.1 45.4 60.4 45.4 C 59.7 45.4 59.2 45.5 58.8 45.8 C 58.5 46 58.2 46.5 58.1 47.1 C 58.1 47.1 56.6 46.9 56.6 46.9 C 56.8 46.3 57 45.7 57.3 45.4 C 57.6 45 58 44.7 58.6 44.5 C 59.2 44.3 59.8 44.2 60.6 44.2 C 61.3 44.2 62 44.3 62.4 44.4 C 62.9 44.6 63.2 44.8 63.5 45.1 C 63.7 45.4 63.8 45.7 63.9 46.1 C 64 46.4 64 46.8 64 47.5 C 64 47.5 64 49.5 64 49.5 C 64 50.9 64 51.8 64.1 52.1 C 64.2 52.5 64.3 52.8 64.5 53.2 C 64.48 53.18 62.9 53.2 62.9 53.2 C 62.9 53.2 62.92 53.18 62.9 53.2 Z M 62.5 48.8 C 62 49 61.1 49.2 60.1 49.3 C 59.4 49.4 59 49.5 58.8 49.6 C 58.5 49.7 58.3 49.9 58.2 50.1 C 58 50.3 58 50.6 58 50.8 C 58 51.2 58.1 51.5 58.4 51.8 C 58.7 52.1 59.2 52.2 59.7 52.2 C 60.3 52.2 60.8 52.1 61.3 51.8 C 61.7 51.6 62 51.2 62.3 50.8 C 62.4 50.5 62.5 50 62.5 49.3 C 62.5 49.3 62.5 48.8 62.5 48.8 Z M 66.3 53.2 L 66.3 44.4 L 67.7 44.4 C 67.7 44.4 67.67 45.61 67.7 45.6 C 68.3 44.6 69.3 44.2 70.5 44.2 C 71 44.2 71.5 44.3 71.9 44.4 C 72.4 44.6 72.7 44.9 72.9 45.2 C 73.2 45.5 73.3 45.9 73.4 46.3 C 73.5 46.6 73.5 47.1 73.5 47.8 C 73.49 47.76 73.5 53.2 73.5 53.2 L 72 53.2 C 72 53.2 71.99 47.81 72 47.8 C 72 47.2 71.9 46.8 71.8 46.4 C 71.7 46.1 71.5 45.9 71.2 45.7 C 70.9 45.5 70.6 45.5 70.2 45.5 C 69.5 45.5 69 45.7 68.5 46.1 C 68 46.5 67.8 47.2 67.8 48.4 C 67.82 48.36 67.8 53.2 67.8 53.2 L 66.3 53.2 Z M 81.5 49.9 C 81.5 49.9 83 50.1 83 50.1 C 82.8 51.2 82.4 51.9 81.8 52.5 C 81.1 53.1 80.3 53.4 79.3 53.4 C 78.1 53.4 77.2 53 76.4 52.2 C 75.7 51.4 75.3 50.3 75.3 48.8 C 75.3 47.9 75.5 47 75.8 46.3 C 76.1 45.6 76.6 45.1 77.2 44.7 C 77.9 44.3 78.6 44.2 79.3 44.2 C 80.3 44.2 81.1 44.4 81.7 44.9 C 82.3 45.4 82.7 46.1 82.9 47 C 82.9 47 81.4 47.2 81.4 47.2 C 81.3 46.6 81 46.1 80.7 45.8 C 80.3 45.5 79.9 45.4 79.4 45.4 C 78.6 45.4 78 45.7 77.6 46.2 C 77.1 46.7 76.9 47.6 76.9 48.8 C 76.9 49.9 77.1 50.8 77.5 51.3 C 78 51.9 78.6 52.1 79.3 52.1 C 79.9 52.1 80.4 52 80.8 51.6 C 81.2 51.2 81.4 50.7 81.5 49.9 Z M 90.3 50.3 C 90.3 50.3 91.9 50.5 91.9 50.5 C 91.6 51.4 91.2 52.1 90.5 52.6 C 89.8 53.1 89 53.4 88 53.4 C 86.7 53.4 85.7 53 84.9 52.2 C 84.2 51.4 83.8 50.3 83.8 48.8 C 83.8 47.4 84.2 46.2 84.9 45.4 C 85.7 44.6 86.7 44.2 87.9 44.2 C 89.1 44.2 90 44.6 90.8 45.4 C 91.5 46.2 91.9 47.3 91.9 48.8 C 91.9 48.8 91.9 49 91.9 49.2 C 91.9 49.2 85.3 49.2 85.3 49.2 C 85.4 50.1 85.7 50.9 86.1 51.4 C 86.6 51.9 87.3 52.1 88 52.1 C 88.5 52.1 89 52 89.4 51.7 C 89.8 51.4 90.1 51 90.3 50.3 Z M 85.4 47.9 C 85.4 47.9 90.3 47.9 90.3 47.9 C 90.3 47.2 90.1 46.6 89.8 46.3 C 89.3 45.7 88.7 45.4 87.9 45.4 C 87.2 45.4 86.7 45.6 86.2 46.1 C 85.7 46.5 85.5 47.2 85.4 47.9 Z " stroke="none" fill="#003a5c"/>
  </g>
  <g id="Polygon61281">
    <path d="M 1.3 32.8 L 1.3 20.6 L 10.1 20.6 L 10.1 22 L 3 22 L 3 25.8 L 9.7 25.8 L 9.7 27.2 L 3 27.2 L 3 31.3 L 10.4 31.3 L 10.4 32.8 L 1.3 32.8 Z M 12.5 32.8 L 12.5 24 L 13.8 24 C 13.8 24 13.8 25.21 13.8 25.2 C 14.5 24.2 15.4 23.8 16.6 23.8 C 17.1 23.8 17.6 23.9 18.1 24 C 18.5 24.2 18.9 24.5 19.1 24.8 C 19.3 25.1 19.5 25.5 19.5 25.9 C 19.6 26.2 19.6 26.7 19.6 27.4 C 19.62 27.36 19.6 32.8 19.6 32.8 L 18.1 32.8 C 18.1 32.8 18.13 27.41 18.1 27.4 C 18.1 26.8 18.1 26.4 18 26 C 17.8 25.7 17.6 25.5 17.3 25.3 C 17 25.1 16.7 25.1 16.3 25.1 C 15.7 25.1 15.1 25.3 14.6 25.7 C 14.2 26.1 14 26.8 14 28 C 13.95 27.96 14 32.8 14 32.8 L 12.5 32.8 Z M 24.4 32.8 L 21 24 L 22.6 24 C 22.6 24 24.48 29.24 24.5 29.2 C 24.7 29.8 24.9 30.4 25 31 C 25.2 30.6 25.4 30 25.6 29.3 C 25.6 29.34 27.6 24 27.6 24 L 29.1 24 L 25.8 32.8 L 24.4 32.8 Z M 30.4 22.3 L 30.4 20.6 L 31.9 20.6 L 31.9 22.3 L 30.4 22.3 Z M 30.4 32.8 L 30.4 24 L 31.9 24 L 31.9 32.8 L 30.4 32.8 Z M 34.2 32.8 L 34.2 24 L 35.5 24 C 35.5 24 35.52 25.3 35.5 25.3 C 35.9 24.7 36.2 24.3 36.5 24.1 C 36.8 23.9 37.1 23.8 37.4 23.8 C 37.9 23.8 38.4 23.9 39 24.2 C 39 24.2 38.4 25.6 38.4 25.6 C 38.1 25.4 37.7 25.3 37.4 25.3 C 37 25.3 36.7 25.4 36.5 25.6 C 36.2 25.8 36 26.1 35.9 26.4 C 35.8 26.9 35.7 27.5 35.7 28.2 C 35.67 28.16 35.7 32.8 35.7 32.8 L 34.2 32.8 Z M 39.3 28.4 C 39.3 26.7 39.7 25.5 40.7 24.7 C 41.4 24.1 42.3 23.8 43.4 23.8 C 44.6 23.8 45.6 24.2 46.4 25 C 47.2 25.7 47.6 26.8 47.6 28.2 C 47.6 29.4 47.4 30.3 47 30.9 C 46.7 31.6 46.2 32.1 45.6 32.4 C 44.9 32.8 44.2 33 43.4 33 C 42.2 33 41.2 32.6 40.4 31.8 C 39.7 31 39.3 29.9 39.3 28.4 Z M 40.8 28.4 C 40.8 29.5 41.1 30.3 41.6 30.9 C 42.1 31.5 42.7 31.7 43.4 31.7 C 44.2 31.7 44.8 31.5 45.3 30.9 C 45.8 30.3 46 29.5 46 28.3 C 46 27.2 45.8 26.4 45.3 25.8 C 44.8 25.3 44.2 25 43.4 25 C 42.7 25 42.1 25.3 41.6 25.8 C 41.1 26.4 40.8 27.2 40.8 28.4 Z M 49.3 32.8 L 49.3 24 L 50.7 24 C 50.7 24 50.65 25.21 50.7 25.2 C 51.3 24.2 52.2 23.8 53.5 23.8 C 54 23.8 54.5 23.9 54.9 24 C 55.4 24.2 55.7 24.5 55.9 24.8 C 56.1 25.1 56.3 25.5 56.4 25.9 C 56.4 26.2 56.5 26.7 56.5 27.4 C 56.47 27.36 56.5 32.8 56.5 32.8 L 55 32.8 C 55 32.8 54.98 27.41 55 27.4 C 55 26.8 54.9 26.4 54.8 26 C 54.7 25.7 54.5 25.5 54.2 25.3 C 53.9 25.1 53.5 25.1 53.1 25.1 C 52.5 25.1 52 25.3 51.5 25.7 C 51 26.1 50.8 26.8 50.8 28 C 50.8 27.96 50.8 32.8 50.8 32.8 L 49.3 32.8 Z M 58.8 32.8 L 58.8 24 L 60.1 24 C 60.1 24 60.1 25.2 60.1 25.2 C 60.4 24.8 60.7 24.4 61.2 24.2 C 61.7 23.9 62.2 23.8 62.8 23.8 C 63.4 23.8 64 23.9 64.4 24.2 C 64.8 24.4 65.1 24.8 65.3 25.3 C 66 24.3 66.9 23.8 68 23.8 C 68.9 23.8 69.5 24 70 24.5 C 70.5 25 70.7 25.7 70.7 26.7 C 70.71 26.73 70.7 32.8 70.7 32.8 L 69.2 32.8 C 69.2 32.8 69.22 27.22 69.2 27.2 C 69.2 26.6 69.2 26.2 69.1 25.9 C 69 25.7 68.8 25.5 68.5 25.3 C 68.3 25.1 68 25.1 67.7 25.1 C 67 25.1 66.5 25.3 66.1 25.7 C 65.7 26.1 65.5 26.7 65.5 27.7 C 65.49 27.65 65.5 32.8 65.5 32.8 L 64 32.8 C 64 32.8 64 27.05 64 27 C 64 26.4 63.9 25.9 63.6 25.6 C 63.4 25.2 63 25.1 62.4 25.1 C 62 25.1 61.6 25.2 61.3 25.4 C 60.9 25.6 60.7 25.9 60.5 26.4 C 60.3 26.8 60.3 27.4 60.3 28.2 C 60.26 28.2 60.3 32.8 60.3 32.8 L 58.8 32.8 Z M 79 29.9 C 79 29.9 80.5 30.1 80.5 30.1 C 80.3 31 79.8 31.7 79.1 32.2 C 78.5 32.7 77.6 33 76.6 33 C 75.3 33 74.3 32.6 73.6 31.8 C 72.8 31 72.4 29.9 72.4 28.4 C 72.4 27 72.8 25.8 73.6 25 C 74.3 24.2 75.3 23.8 76.5 23.8 C 77.7 23.8 78.7 24.2 79.4 25 C 80.2 25.8 80.6 26.9 80.6 28.4 C 80.6 28.4 80.5 28.6 80.5 28.8 C 80.5 28.8 74 28.8 74 28.8 C 74 29.7 74.3 30.5 74.8 31 C 75.3 31.5 75.9 31.7 76.6 31.7 C 77.2 31.7 77.6 31.6 78 31.3 C 78.4 31 78.7 30.6 79 29.9 Z M 74.1 27.5 C 74.1 27.5 79 27.5 79 27.5 C 78.9 26.8 78.7 26.2 78.4 25.9 C 77.9 25.3 77.3 25 76.6 25 C 75.9 25 75.3 25.2 74.8 25.7 C 74.4 26.1 74.1 26.8 74.1 27.5 Z M 82.4 32.8 L 82.4 24 L 83.7 24 C 83.7 24 83.72 25.21 83.7 25.2 C 84.4 24.2 85.3 23.8 86.5 23.8 C 87.1 23.8 87.5 23.9 88 24 C 88.4 24.2 88.8 24.5 89 24.8 C 89.2 25.1 89.4 25.5 89.5 25.9 C 89.5 26.2 89.5 26.7 89.5 27.4 C 89.54 27.36 89.5 32.8 89.5 32.8 L 88 32.8 C 88 32.8 88.05 27.41 88 27.4 C 88 26.8 88 26.4 87.9 26 C 87.8 25.7 87.5 25.5 87.3 25.3 C 87 25.1 86.6 25.1 86.2 25.1 C 85.6 25.1 85 25.3 84.6 25.7 C 84.1 26.1 83.9 26.8 83.9 28 C 83.87 27.96 83.9 32.8 83.9 32.8 L 82.4 32.8 Z M 94.4 31.5 C 94.6 31.5 94.8 31.5 95.1 31.4 C 95.1 31.4 95.3 32.8 95.3 32.8 C 94.9 32.8 94.5 32.9 94.2 32.9 C 93.6 32.9 93.2 32.8 92.9 32.6 C 92.6 32.5 92.4 32.2 92.3 32 C 92.2 31.7 92.1 31.1 92.1 30.2 C 92.11 30.19 92.1 25.1 92.1 25.1 L 91 25.1 L 91 24 L 92.1 24 L 92.1 21.8 L 93.6 20.9 L 93.6 24 L 95.1 24 L 95.1 25.1 L 93.6 25.1 C 93.6 25.1 93.59 30.28 93.6 30.3 C 93.6 30.7 93.6 31 93.7 31.1 C 93.7 31.2 93.8 31.3 93.9 31.4 C 94 31.5 94.2 31.5 94.4 31.5 C 94.4 31.5 94.4 31.5 94.4 31.5 Z M 102.6 32.8 C 102.5 32.5 102.4 32.1 102.3 31.7 C 101.8 32.2 101.2 32.5 100.7 32.7 C 100.2 32.9 99.6 33 99.1 33 C 98.1 33 97.3 32.7 96.8 32.3 C 96.3 31.8 96 31.2 96 30.5 C 96 30 96.1 29.6 96.3 29.3 C 96.5 28.9 96.8 28.6 97.1 28.4 C 97.4 28.2 97.8 28 98.2 27.9 C 98.5 27.8 98.9 27.8 99.5 27.7 C 100.7 27.6 101.6 27.4 102.2 27.2 C 102.2 27 102.2 26.8 102.2 26.8 C 102.2 26.2 102 25.8 101.8 25.5 C 101.4 25.2 100.8 25 100.1 25 C 99.4 25 98.8 25.1 98.5 25.4 C 98.2 25.6 97.9 26.1 97.8 26.7 C 97.8 26.7 96.3 26.5 96.3 26.5 C 96.4 25.9 96.7 25.3 97 25 C 97.3 24.6 97.7 24.3 98.3 24.1 C 98.9 23.9 99.5 23.8 100.3 23.8 C 101 23.8 101.6 23.9 102.1 24 C 102.6 24.2 102.9 24.4 103.2 24.7 C 103.4 25 103.5 25.3 103.6 25.7 C 103.7 26 103.7 26.4 103.7 27.1 C 103.7 27.1 103.7 29.1 103.7 29.1 C 103.7 30.5 103.7 31.4 103.8 31.7 C 103.9 32.1 104 32.4 104.2 32.8 C 104.17 32.78 102.6 32.8 102.6 32.8 C 102.6 32.8 102.61 32.78 102.6 32.8 Z M 102.2 28.4 C 101.6 28.6 100.8 28.8 99.7 28.9 C 99.1 29 98.7 29.1 98.4 29.2 C 98.2 29.3 98 29.5 97.8 29.7 C 97.7 29.9 97.6 30.2 97.6 30.4 C 97.6 30.8 97.8 31.1 98.1 31.4 C 98.4 31.7 98.8 31.8 99.4 31.8 C 100 31.8 100.5 31.7 101 31.4 C 101.4 31.2 101.7 30.8 101.9 30.4 C 102.1 30.1 102.2 29.6 102.2 28.9 C 102.2 28.9 102.2 28.4 102.2 28.4 Z M 106 32.8 L 106 20.6 L 107.5 20.6 L 107.5 32.8 L 106 32.8 Z M 110.2 32.8 L 110.2 31.1 L 111.9 31.1 C 111.9 31.1 111.88 32.78 111.9 32.8 C 111.9 33.4 111.8 33.9 111.5 34.3 C 111.3 34.7 111 35 110.5 35.2 C 110.5 35.2 110.1 34.5 110.1 34.5 C 110.4 34.4 110.6 34.2 110.8 33.9 C 110.9 33.7 111 33.3 111 32.8 C 111.02 32.78 110.2 32.8 110.2 32.8 Z M 118.9 28.9 C 118.9 28.9 120.4 28.7 120.4 28.7 C 120.5 29.3 120.6 29.8 120.9 30.2 C 121.2 30.6 121.6 30.9 122.1 31.2 C 122.7 31.4 123.3 31.5 124 31.5 C 124.6 31.5 125.1 31.4 125.6 31.3 C 126.1 31.1 126.4 30.8 126.7 30.5 C 126.9 30.2 127 29.8 127 29.5 C 127 29.1 126.9 28.8 126.7 28.5 C 126.5 28.2 126.1 27.9 125.6 27.8 C 125.3 27.6 124.5 27.4 123.4 27.2 C 122.3 26.9 121.5 26.6 121.1 26.4 C 120.5 26.1 120.1 25.7 119.8 25.3 C 119.5 24.8 119.3 24.3 119.3 23.8 C 119.3 23.1 119.5 22.6 119.9 22 C 120.2 21.5 120.7 21.1 121.4 20.8 C 122.1 20.5 122.8 20.4 123.6 20.4 C 124.5 20.4 125.3 20.5 126 20.8 C 126.7 21.1 127.2 21.6 127.6 22.1 C 128 22.7 128.2 23.3 128.2 24 C 128.2 24 126.7 24.2 126.7 24.2 C 126.6 23.4 126.3 22.8 125.8 22.4 C 125.3 22 124.6 21.8 123.7 21.8 C 122.7 21.8 122 22 121.6 22.4 C 121.1 22.7 120.9 23.1 120.9 23.6 C 120.9 24.1 121.1 24.4 121.4 24.7 C 121.7 25 122.5 25.3 123.8 25.6 C 125.1 25.9 126 26.1 126.5 26.4 C 127.2 26.7 127.7 27.1 128.1 27.6 C 128.4 28.1 128.6 28.7 128.6 29.3 C 128.6 30 128.4 30.6 128 31.2 C 127.6 31.7 127.1 32.2 126.4 32.5 C 125.7 32.8 124.9 33 124.1 33 C 123 33 122 32.8 121.3 32.5 C 120.6 32.2 120 31.7 119.5 31.1 C 119.1 30.4 118.9 29.7 118.9 28.9 Z M 130 28.4 C 130 26.7 130.5 25.5 131.4 24.7 C 132.1 24.1 133.1 23.8 134.1 23.8 C 135.4 23.8 136.4 24.2 137.1 25 C 137.9 25.7 138.3 26.8 138.3 28.2 C 138.3 29.4 138.1 30.3 137.8 30.9 C 137.4 31.6 136.9 32.1 136.3 32.4 C 135.6 32.8 134.9 33 134.1 33 C 132.9 33 131.9 32.6 131.2 31.8 C 130.4 31 130 29.9 130 28.4 Z M 131.6 28.4 C 131.6 29.5 131.8 30.3 132.3 30.9 C 132.8 31.5 133.4 31.7 134.1 31.7 C 134.9 31.7 135.5 31.5 136 30.9 C 136.5 30.3 136.7 29.5 136.7 28.3 C 136.7 27.2 136.5 26.4 136 25.8 C 135.5 25.3 134.9 25 134.1 25 C 133.4 25 132.8 25.3 132.3 25.8 C 131.8 26.4 131.6 27.2 131.6 28.4 Z M 145.8 29.5 C 145.8 29.5 147.2 29.7 147.2 29.7 C 147.1 30.8 146.7 31.5 146 32.1 C 145.4 32.7 144.5 33 143.6 33 C 142.4 33 141.4 32.6 140.7 31.8 C 139.9 31 139.6 29.9 139.6 28.4 C 139.6 27.5 139.7 26.6 140 25.9 C 140.4 25.2 140.8 24.7 141.5 24.3 C 142.1 23.9 142.8 23.8 143.6 23.8 C 144.5 23.8 145.3 24 145.9 24.5 C 146.5 25 146.9 25.7 147.1 26.6 C 147.1 26.6 145.7 26.8 145.7 26.8 C 145.5 26.2 145.3 25.7 144.9 25.4 C 144.6 25.1 144.1 25 143.6 25 C 142.9 25 142.3 25.3 141.8 25.8 C 141.3 26.3 141.1 27.2 141.1 28.4 C 141.1 29.5 141.3 30.4 141.8 30.9 C 142.2 31.5 142.8 31.7 143.6 31.7 C 144.1 31.7 144.6 31.6 145 31.2 C 145.4 30.8 145.7 30.3 145.8 29.5 Z M 148.5 22.3 L 148.5 20.6 L 150 20.6 L 150 22.3 L 148.5 22.3 Z M 148.5 32.8 L 148.5 24 L 150 24 L 150 32.8 L 148.5 32.8 Z M 158.4 32.8 C 158.2 32.5 158.1 32.1 158.1 31.7 C 157.5 32.2 157 32.5 156.5 32.7 C 155.9 32.9 155.4 33 154.8 33 C 153.8 33 153.1 32.7 152.6 32.3 C 152.1 31.8 151.8 31.2 151.8 30.5 C 151.8 30 151.9 29.6 152.1 29.3 C 152.3 28.9 152.5 28.6 152.9 28.4 C 153.2 28.2 153.5 28 153.9 27.9 C 154.2 27.8 154.7 27.8 155.3 27.7 C 156.5 27.6 157.4 27.4 157.9 27.2 C 157.9 27 157.9 26.8 157.9 26.8 C 157.9 26.2 157.8 25.8 157.5 25.5 C 157.1 25.2 156.6 25 155.8 25 C 155.1 25 154.6 25.1 154.3 25.4 C 153.9 25.6 153.7 26.1 153.5 26.7 C 153.5 26.7 152.1 26.5 152.1 26.5 C 152.2 25.9 152.4 25.3 152.7 25 C 153 24.6 153.5 24.3 154 24.1 C 154.6 23.9 155.3 23.8 156 23.8 C 156.8 23.8 157.4 23.9 157.9 24 C 158.3 24.2 158.7 24.4 158.9 24.7 C 159.1 25 159.3 25.3 159.4 25.7 C 159.4 26 159.4 26.4 159.4 27.1 C 159.4 27.1 159.4 29.1 159.4 29.1 C 159.4 30.5 159.5 31.4 159.5 31.7 C 159.6 32.1 159.7 32.4 159.9 32.8 C 159.91 32.78 158.4 32.8 158.4 32.8 C 158.4 32.8 158.35 32.78 158.4 32.8 Z M 157.9 28.4 C 157.4 28.6 156.6 28.8 155.5 28.9 C 154.9 29 154.4 29.1 154.2 29.2 C 153.9 29.3 153.7 29.5 153.6 29.7 C 153.5 29.9 153.4 30.2 153.4 30.4 C 153.4 30.8 153.5 31.1 153.8 31.4 C 154.1 31.7 154.6 31.8 155.2 31.8 C 155.7 31.8 156.3 31.7 156.7 31.4 C 157.2 31.2 157.5 30.8 157.7 30.4 C 157.9 30.1 157.9 29.6 157.9 28.9 C 157.9 28.9 157.9 28.4 157.9 28.4 Z M 161.7 32.8 L 161.7 20.6 L 163.2 20.6 L 163.2 32.8 L 161.7 32.8 Z M 179.1 33.1 C 178.5 32.7 177.9 32.1 177.2 31.3 C 176.7 31.9 176.2 32.3 175.6 32.6 C 175 32.8 174.4 33 173.7 33 C 172.5 33 171.5 32.6 170.8 31.7 C 170.2 31 169.9 30.3 169.9 29.4 C 169.9 28.7 170.1 28 170.6 27.4 C 171.1 26.8 171.8 26.2 172.8 25.8 C 172.2 25.2 171.9 24.6 171.7 24.3 C 171.5 23.9 171.4 23.5 171.4 23.1 C 171.4 22.4 171.7 21.7 172.3 21.2 C 172.8 20.7 173.5 20.4 174.4 20.4 C 175.2 20.4 175.9 20.7 176.5 21.2 C 177 21.7 177.2 22.3 177.2 23 C 177.2 24.2 176.5 25.1 174.9 26 C 174.9 26 177.1 28.7 177.1 28.7 C 177.4 28.3 177.6 27.7 177.7 27 C 177.7 27 179.3 27.4 179.3 27.4 C 179 28.4 178.6 29.3 178.2 30 C 178.7 30.7 179.4 31.4 180.1 31.9 C 180.09 31.87 179.1 33.1 179.1 33.1 C 179.1 33.1 179.08 33.06 179.1 33.1 Z M 174.2 25 C 174.8 24.6 175.2 24.3 175.4 24 C 175.6 23.7 175.7 23.4 175.7 23 C 175.7 22.6 175.6 22.3 175.3 22 C 175.1 21.8 174.7 21.6 174.3 21.6 C 173.9 21.6 173.6 21.8 173.3 22 C 173.1 22.3 172.9 22.6 172.9 23 C 172.9 23.2 173 23.4 173.1 23.6 C 173.2 23.8 173.3 24 173.5 24.2 C 173.5 24.2 174.2 25 174.2 25 Z M 176.3 30.2 C 176.3 30.2 173.5 26.8 173.5 26.8 C 172.7 27.2 172.2 27.7 171.9 28.1 C 171.6 28.5 171.5 28.9 171.5 29.3 C 171.5 29.8 171.7 30.3 172.1 30.9 C 172.5 31.4 173 31.7 173.7 31.7 C 174.2 31.7 174.6 31.5 175.1 31.2 C 175.6 31 176 30.6 176.3 30.2 Z " stroke="none" fill="#003a5c"/>
  </g>
  <g id="Polygon61280">
    <path d="M 4.4 12.4 L 4.4 1.6 L 0.4 1.6 L 0.4 0.2 L 10 0.2 L 10 1.6 L 6 1.6 L 6 12.4 L 4.4 12.4 Z M 11.5 12.4 L 11.5 0.2 L 13 0.2 C 13 0.2 13 4.57 13 4.6 C 13.7 3.8 14.6 3.4 15.6 3.4 C 16.3 3.4 16.9 3.5 17.3 3.7 C 17.8 4 18.2 4.4 18.4 4.8 C 18.6 5.3 18.7 5.9 18.7 6.8 C 18.69 6.79 18.7 12.4 18.7 12.4 L 17.2 12.4 C 17.2 12.4 17.19 6.79 17.2 6.8 C 17.2 6 17 5.5 16.7 5.2 C 16.4 4.8 15.9 4.6 15.3 4.6 C 14.9 4.6 14.5 4.8 14.1 5 C 13.7 5.2 13.4 5.5 13.2 5.9 C 13.1 6.3 13 6.9 13 7.6 C 13 7.55 13 12.4 13 12.4 L 11.5 12.4 Z M 27 9.5 C 27 9.5 28.5 9.7 28.5 9.7 C 28.3 10.6 27.8 11.3 27.2 11.8 C 26.5 12.3 25.7 12.6 24.7 12.6 C 23.4 12.6 22.3 12.2 21.6 11.4 C 20.8 10.6 20.5 9.5 20.5 8 C 20.5 6.6 20.8 5.4 21.6 4.6 C 22.4 3.8 23.4 3.4 24.6 3.4 C 25.8 3.4 26.7 3.8 27.5 4.6 C 28.2 5.4 28.6 6.5 28.6 8 C 28.6 8 28.6 8.2 28.6 8.4 C 28.6 8.4 22 8.4 22 8.4 C 22.1 9.3 22.3 10.1 22.8 10.6 C 23.3 11.1 23.9 11.3 24.7 11.3 C 25.2 11.3 25.7 11.2 26.1 10.9 C 26.5 10.6 26.8 10.2 27 9.5 Z M 22.1 7.1 C 22.1 7.1 27 7.1 27 7.1 C 26.9 6.4 26.8 5.8 26.4 5.5 C 26 4.9 25.4 4.6 24.6 4.6 C 23.9 4.6 23.3 4.8 22.9 5.3 C 22.4 5.7 22.1 6.4 22.1 7.1 Z M 35.3 12.4 L 35.3 0.2 C 35.3 0.2 39.83 0.21 39.8 0.2 C 40.8 0.2 41.5 0.3 42.1 0.6 C 42.6 0.8 43.1 1.2 43.4 1.7 C 43.7 2.2 43.9 2.8 43.9 3.3 C 43.9 3.8 43.7 4.3 43.4 4.8 C 43.2 5.2 42.7 5.6 42.2 5.9 C 42.9 6.1 43.5 6.5 43.9 7 C 44.3 7.5 44.5 8.1 44.5 8.8 C 44.5 9.4 44.3 9.9 44.1 10.4 C 43.8 10.9 43.6 11.3 43.2 11.6 C 42.8 11.8 42.4 12 41.9 12.2 C 41.3 12.3 40.7 12.4 39.9 12.4 C 39.9 12.38 35.3 12.4 35.3 12.4 Z M 36.9 5.3 C 36.9 5.3 39.5 5.32 39.5 5.3 C 40.2 5.3 40.7 5.3 41 5.2 C 41.4 5.1 41.8 4.9 42 4.6 C 42.2 4.3 42.3 3.9 42.3 3.5 C 42.3 3.1 42.2 2.8 42 2.4 C 41.8 2.1 41.5 1.9 41.2 1.8 C 40.8 1.7 40.2 1.6 39.3 1.6 C 39.3 1.64 36.9 1.6 36.9 1.6 L 36.9 5.3 Z M 36.9 10.9 C 36.9 10.9 39.9 10.94 39.9 10.9 C 40.4 10.9 40.8 10.9 41 10.9 C 41.4 10.8 41.7 10.7 41.9 10.6 C 42.2 10.4 42.4 10.2 42.5 9.9 C 42.7 9.6 42.8 9.2 42.8 8.8 C 42.8 8.4 42.7 8 42.4 7.7 C 42.2 7.3 41.9 7.1 41.5 7 C 41.1 6.8 40.5 6.8 39.7 6.8 C 39.69 6.76 36.9 6.8 36.9 6.8 L 36.9 10.9 Z M 45.9 8 C 45.9 6.3 46.4 5.1 47.3 4.3 C 48 3.7 49 3.4 50.1 3.4 C 51.3 3.4 52.3 3.8 53 4.6 C 53.8 5.3 54.2 6.4 54.2 7.8 C 54.2 9 54 9.9 53.7 10.5 C 53.3 11.2 52.8 11.7 52.2 12 C 51.5 12.4 50.8 12.6 50.1 12.6 C 48.8 12.6 47.8 12.2 47.1 11.4 C 46.3 10.6 45.9 9.5 45.9 8 Z M 47.5 8 C 47.5 9.1 47.7 9.9 48.2 10.5 C 48.7 11.1 49.3 11.3 50.1 11.3 C 50.8 11.3 51.4 11.1 51.9 10.5 C 52.4 9.9 52.6 9.1 52.6 7.9 C 52.6 6.8 52.4 6 51.9 5.4 C 51.4 4.9 50.8 4.6 50.1 4.6 C 49.3 4.6 48.7 4.9 48.2 5.4 C 47.7 6 47.5 6.8 47.5 8 Z M 55.4 8 C 55.4 6.3 55.8 5.1 56.7 4.3 C 57.5 3.7 58.4 3.4 59.5 3.4 C 60.7 3.4 61.7 3.8 62.5 4.6 C 63.2 5.3 63.6 6.4 63.6 7.8 C 63.6 9 63.5 9.9 63.1 10.5 C 62.8 11.2 62.3 11.7 61.6 12 C 61 12.4 60.3 12.6 59.5 12.6 C 58.3 12.6 57.3 12.2 56.5 11.4 C 55.8 10.6 55.4 9.5 55.4 8 Z M 56.9 8 C 56.9 9.1 57.2 9.9 57.6 10.5 C 58.1 11.1 58.8 11.3 59.5 11.3 C 60.2 11.3 60.9 11.1 61.4 10.5 C 61.9 9.9 62.1 9.1 62.1 7.9 C 62.1 6.8 61.9 6 61.4 5.4 C 60.9 4.9 60.2 4.6 59.5 4.6 C 58.8 4.6 58.1 4.9 57.6 5.4 C 57.2 6 56.9 6.8 56.9 8 Z M 65.4 12.4 L 65.4 0.2 L 66.9 0.2 L 66.9 7.1 L 70.4 3.6 L 72.4 3.6 L 69 6.8 L 72.7 12.4 L 70.9 12.4 L 67.9 7.9 L 66.9 8.9 L 66.9 12.4 L 65.4 12.4 Z M 78.1 8 C 78.1 6.3 78.5 5.1 79.4 4.3 C 80.2 3.7 81.1 3.4 82.2 3.4 C 83.4 3.4 84.4 3.8 85.2 4.6 C 85.9 5.3 86.3 6.4 86.3 7.8 C 86.3 9 86.1 9.9 85.8 10.5 C 85.5 11.2 85 11.7 84.3 12 C 83.7 12.4 83 12.6 82.2 12.6 C 81 12.6 80 12.2 79.2 11.4 C 78.4 10.6 78.1 9.5 78.1 8 Z M 79.6 8 C 79.6 9.1 79.8 9.9 80.3 10.5 C 80.8 11.1 81.4 11.3 82.2 11.3 C 82.9 11.3 83.5 11.1 84 10.5 C 84.5 9.9 84.8 9.1 84.8 7.9 C 84.8 6.8 84.5 6 84 5.4 C 83.5 4.9 82.9 4.6 82.2 4.6 C 81.4 4.6 80.8 4.9 80.3 5.4 C 79.8 6 79.6 6.8 79.6 8 Z M 88.4 12.4 L 88.4 4.7 L 87.1 4.7 L 87.1 3.6 L 88.4 3.6 C 88.4 3.6 88.42 2.62 88.4 2.6 C 88.4 2 88.5 1.6 88.6 1.3 C 88.7 0.9 89 0.6 89.3 0.4 C 89.7 0.1 90.2 0 90.9 0 C 91.3 0 91.7 0 92.3 0.1 C 92.3 0.1 92 1.5 92 1.5 C 91.7 1.4 91.4 1.4 91.2 1.4 C 90.7 1.4 90.4 1.5 90.2 1.7 C 90 1.9 89.9 2.2 89.9 2.7 C 89.91 2.75 89.9 3.6 89.9 3.6 L 91.6 3.6 L 91.6 4.7 L 89.9 4.7 L 89.9 12.4 L 88.4 12.4 Z M 96.9 8.9 C 96.9 8.9 98.3 8.7 98.3 8.7 C 98.4 9.7 98.5 10.3 98.9 10.6 C 99.2 11 99.6 11.1 100.1 11.1 C 100.5 11.1 100.9 11.1 101.2 10.9 C 101.5 10.7 101.7 10.4 101.8 10.1 C 101.9 9.8 102 9.3 102 8.6 C 101.96 8.59 102 0.2 102 0.2 L 103.6 0.2 C 103.6 0.2 103.57 8.5 103.6 8.5 C 103.6 9.5 103.4 10.3 103.2 10.9 C 103 11.4 102.6 11.9 102 12.1 C 101.5 12.4 100.9 12.6 100.1 12.6 C 99.1 12.6 98.3 12.3 97.7 11.7 C 97.1 11 96.9 10.1 96.9 8.9 Z M 112.1 12.4 C 111.9 12.1 111.8 11.7 111.8 11.3 C 111.2 11.8 110.7 12.1 110.2 12.3 C 109.7 12.5 109.1 12.6 108.5 12.6 C 107.5 12.6 106.8 12.3 106.3 11.9 C 105.8 11.4 105.5 10.8 105.5 10.1 C 105.5 9.6 105.6 9.2 105.8 8.9 C 106 8.5 106.3 8.2 106.6 8 C 106.9 7.8 107.2 7.6 107.6 7.5 C 107.9 7.4 108.4 7.4 109 7.3 C 110.2 7.2 111.1 7 111.6 6.8 C 111.6 6.6 111.6 6.4 111.6 6.4 C 111.6 5.8 111.5 5.4 111.2 5.1 C 110.8 4.8 110.3 4.6 109.5 4.6 C 108.8 4.6 108.3 4.7 108 5 C 107.6 5.2 107.4 5.7 107.2 6.3 C 107.2 6.3 105.8 6.1 105.8 6.1 C 105.9 5.5 106.1 4.9 106.4 4.6 C 106.7 4.2 107.2 3.9 107.7 3.7 C 108.3 3.5 109 3.4 109.7 3.4 C 110.5 3.4 111.1 3.5 111.6 3.6 C 112 3.8 112.4 4 112.6 4.3 C 112.8 4.6 113 4.9 113.1 5.3 C 113.1 5.6 113.1 6 113.1 6.7 C 113.1 6.7 113.1 8.7 113.1 8.7 C 113.1 10.1 113.2 11 113.2 11.3 C 113.3 11.7 113.4 12 113.6 12.4 C 113.62 12.38 112.1 12.4 112.1 12.4 C 112.1 12.4 112.06 12.38 112.1 12.4 Z M 111.6 8 C 111.1 8.2 110.3 8.4 109.2 8.5 C 108.6 8.6 108.1 8.7 107.9 8.8 C 107.6 8.9 107.4 9.1 107.3 9.3 C 107.2 9.5 107.1 9.8 107.1 10 C 107.1 10.4 107.2 10.7 107.5 11 C 107.9 11.3 108.3 11.4 108.9 11.4 C 109.4 11.4 110 11.3 110.4 11 C 110.9 10.8 111.2 10.4 111.4 10 C 111.6 9.7 111.6 9.2 111.6 8.5 C 111.6 8.5 111.6 8 111.6 8 Z M 115.4 12.4 L 115.4 3.6 L 116.8 3.6 C 116.8 3.6 116.79 4.9 116.8 4.9 C 117.1 4.3 117.5 3.9 117.7 3.7 C 118 3.5 118.4 3.4 118.7 3.4 C 119.2 3.4 119.7 3.5 120.2 3.8 C 120.2 3.8 119.7 5.2 119.7 5.2 C 119.4 5 119 4.9 118.6 4.9 C 118.3 4.9 118 5 117.7 5.2 C 117.5 5.4 117.3 5.7 117.2 6 C 117 6.5 116.9 7.1 116.9 7.8 C 116.94 7.76 116.9 12.4 116.9 12.4 L 115.4 12.4 Z M 120.9 13.1 C 120.9 13.1 122.3 13.3 122.3 13.3 C 122.4 13.8 122.5 14.1 122.8 14.3 C 123.2 14.6 123.7 14.7 124.3 14.7 C 125 14.7 125.6 14.6 125.9 14.3 C 126.3 14 126.6 13.6 126.7 13.1 C 126.8 12.8 126.8 12.2 126.8 11.2 C 126.1 12 125.3 12.4 124.4 12.4 C 123.2 12.4 122.2 11.9 121.5 11.1 C 120.9 10.2 120.6 9.1 120.6 7.9 C 120.6 7.1 120.7 6.3 121 5.6 C 121.3 4.9 121.8 4.3 122.3 3.9 C 122.9 3.6 123.6 3.4 124.4 3.4 C 125.4 3.4 126.3 3.8 126.9 4.6 C 126.94 4.62 126.9 3.6 126.9 3.6 L 128.3 3.6 C 128.3 3.6 128.32 11.18 128.3 11.2 C 128.3 12.6 128.2 13.5 127.9 14.1 C 127.6 14.7 127.2 15.1 126.6 15.5 C 126 15.8 125.2 16 124.3 16 C 123.3 16 122.4 15.7 121.8 15.2 C 121.1 14.8 120.8 14.1 120.9 13.1 Z M 122.1 7.8 C 122.1 9 122.3 9.8 122.8 10.3 C 123.2 10.9 123.8 11.1 124.5 11.1 C 125.2 11.1 125.8 10.9 126.2 10.3 C 126.7 9.8 126.9 9 126.9 7.9 C 126.9 6.8 126.7 6 126.2 5.4 C 125.7 4.9 125.2 4.6 124.5 4.6 C 123.8 4.6 123.3 4.9 122.8 5.4 C 122.3 5.9 122.1 6.7 122.1 7.8 Z M 130 8 C 130 6.3 130.5 5.1 131.4 4.3 C 132.1 3.7 133.1 3.4 134.2 3.4 C 135.4 3.4 136.4 3.8 137.1 4.6 C 137.9 5.3 138.3 6.4 138.3 7.8 C 138.3 9 138.1 9.9 137.8 10.5 C 137.4 11.2 136.9 11.7 136.3 12 C 135.6 12.4 134.9 12.6 134.2 12.6 C 132.9 12.6 131.9 12.2 131.2 11.4 C 130.4 10.6 130 9.5 130 8 Z M 131.6 8 C 131.6 9.1 131.8 9.9 132.3 10.5 C 132.8 11.1 133.4 11.3 134.2 11.3 C 134.9 11.3 135.5 11.1 136 10.5 C 136.5 9.9 136.7 9.1 136.7 7.9 C 136.7 6.8 136.5 6 136 5.4 C 135.5 4.9 134.9 4.6 134.2 4.6 C 133.4 4.6 132.8 4.9 132.3 5.4 C 131.8 6 131.6 6.8 131.6 8 Z M 140 12.4 L 140 3.6 L 141.4 3.6 C 141.4 3.6 141.38 4.81 141.4 4.8 C 142 3.8 143 3.4 144.2 3.4 C 144.7 3.4 145.2 3.5 145.6 3.6 C 146.1 3.8 146.4 4.1 146.6 4.4 C 146.9 4.7 147 5.1 147.1 5.5 C 147.2 5.8 147.2 6.3 147.2 7 C 147.2 6.96 147.2 12.4 147.2 12.4 L 145.7 12.4 C 145.7 12.4 145.7 7.01 145.7 7 C 145.7 6.4 145.6 6 145.5 5.6 C 145.4 5.3 145.2 5.1 144.9 4.9 C 144.6 4.7 144.3 4.7 143.9 4.7 C 143.2 4.7 142.7 4.9 142.2 5.3 C 141.8 5.7 141.5 6.4 141.5 7.6 C 141.53 7.56 141.5 12.4 141.5 12.4 L 140 12.4 Z M 152 -0.5 C 152.6 -0.5 153.2 -0.3 153.8 0 C 154.4 0.3 154.9 0.7 155.2 1.3 C 155.5 1.9 155.7 2.5 155.7 3.2 C 155.7 3.8 155.5 4.4 155.2 5 C 154.9 5.5 154.4 6 153.9 6.3 C 153.3 6.6 152.7 6.8 152 6.8 C 151.4 6.8 150.8 6.6 150.2 6.3 C 149.6 6 149.2 5.5 148.9 5 C 148.5 4.4 148.4 3.8 148.4 3.2 C 148.4 2.5 148.5 1.9 148.9 1.3 C 149.2 0.7 149.7 0.3 150.2 0 C 150.8 -0.3 151.4 -0.5 152 -0.5 Z M 152 0.1 C 151.5 0.1 151 0.2 150.5 0.5 C 150.1 0.8 149.7 1.1 149.4 1.6 C 149.1 2.1 149 2.6 149 3.2 C 149 3.7 149.1 4.2 149.4 4.7 C 149.7 5.1 150 5.5 150.5 5.8 C 151 6.1 151.5 6.2 152 6.2 C 152.6 6.2 153.1 6.1 153.6 5.8 C 154 5.5 154.4 5.1 154.7 4.7 C 154.9 4.2 155.1 3.7 155.1 3.2 C 155.1 2.6 154.9 2.1 154.7 1.6 C 154.4 1.1 154 0.8 153.5 0.5 C 153 0.2 152.5 0.1 152 0.1 Z M 150.4 5.2 L 150.4 1.2 C 150.4 1.2 151.78 1.24 151.8 1.2 C 152.2 1.2 152.6 1.3 152.8 1.4 C 153 1.4 153.2 1.6 153.3 1.7 C 153.4 1.9 153.5 2.1 153.5 2.3 C 153.5 2.6 153.4 2.8 153.2 3.1 C 153 3.3 152.7 3.4 152.3 3.4 C 152.5 3.5 152.6 3.5 152.7 3.6 C 152.8 3.8 153 4 153.3 4.4 C 153.26 4.4 153.7 5.2 153.7 5.2 L 153 5.2 C 153 5.2 152.61 4.55 152.6 4.6 C 152.3 4.1 152.1 3.8 151.9 3.6 C 151.8 3.5 151.7 3.5 151.4 3.5 C 151.44 3.5 151.1 3.5 151.1 3.5 L 151.1 5.2 L 150.4 5.2 Z M 151.1 3 C 151.1 3 151.84 2.96 151.8 3 C 152.2 3 152.5 2.9 152.6 2.8 C 152.7 2.7 152.8 2.5 152.8 2.4 C 152.8 2.2 152.8 2.1 152.7 2 C 152.6 2 152.5 1.9 152.4 1.8 C 152.3 1.8 152.1 1.8 151.8 1.8 C 151.79 1.77 151.1 1.8 151.1 1.8 L 151.1 3 Z M 160.4 8.6 L 160.4 7.4 L 177.4 7.4 L 177.4 8.6 L 160.4 8.6 Z " stroke="none" fill="#003a5c"/>
  </g>
</svg>