<?xml version="1.0" standalone="no"?>
<!DOCTYPE svg PUBLIC "-//W3C//DTD SVG 1.1//EN" "http://www.w3.org/Graphics/SVG/1.1/DTD/svg11.dtd">
<svg xmlns="http://www.w3.org/2000/svg" version="1.1" width="180px" height="101.9px" viewBox="0 -8 180 101.9" style="top:-8px">
  <desc>GREEN BUILDING CERTIFICATIONS</desc>
  <defs/>
  <g id="Polygon63450">
    <path d="M 9 59.6 C 9 59.6 10.4 59.9 10.4 59.9 C 10.1 61.1 9.6 62 8.8 62.6 C 8 63.2 7.1 63.5 6 63.5 C 4.8 63.5 3.9 63.3 3.2 62.8 C 2.5 62.3 1.9 61.7 1.6 60.8 C 1.2 59.9 1 58.9 1 57.9 C 1 56.8 1.2 55.9 1.6 55 C 2.1 54.2 2.7 53.6 3.4 53.2 C 4.2 52.7 5.1 52.5 6 52.5 C 7.1 52.5 8 52.8 8.7 53.3 C 9.4 53.9 9.9 54.6 10.2 55.6 C 10.2 55.6 8.8 55.9 8.8 55.9 C 8.6 55.2 8.2 54.6 7.7 54.2 C 7.3 53.9 6.7 53.7 6 53.7 C 5.2 53.7 4.5 53.9 3.9 54.3 C 3.4 54.7 3 55.2 2.8 55.9 C 2.6 56.5 2.4 57.2 2.4 57.9 C 2.4 58.8 2.6 59.6 2.8 60.3 C 3.1 61 3.5 61.5 4.1 61.8 C 4.6 62.1 5.2 62.3 5.9 62.3 C 6.7 62.3 7.3 62.1 7.9 61.6 C 8.4 61.2 8.8 60.5 9 59.6 Z M 12.7 63.3 L 12.7 52.7 L 20.3 52.7 L 20.3 54 L 14.1 54 L 14.1 57.2 L 19.9 57.2 L 19.9 58.4 L 14.1 58.4 L 14.1 62.1 L 20.6 62.1 L 20.6 63.3 L 12.7 63.3 Z M 23.1 63.3 L 23.1 52.7 C 23.1 52.7 27.77 52.7 27.8 52.7 C 28.7 52.7 29.4 52.8 29.9 53 C 30.4 53.2 30.8 53.5 31.1 54 C 31.4 54.5 31.6 55 31.6 55.6 C 31.6 56.3 31.3 57 30.8 57.5 C 30.3 58 29.6 58.3 28.6 58.5 C 28.9 58.7 29.2 58.8 29.4 59 C 29.8 59.4 30.2 59.9 30.6 60.4 C 30.57 60.42 32.4 63.3 32.4 63.3 L 30.7 63.3 C 30.7 63.3 29.25 61.11 29.2 61.1 C 28.8 60.5 28.5 60 28.2 59.6 C 28 59.3 27.7 59.1 27.5 58.9 C 27.3 58.8 27.1 58.7 26.9 58.7 C 26.7 58.6 26.5 58.6 26.1 58.6 C 26.1 58.6 24.5 58.6 24.5 58.6 L 24.5 63.3 L 23.1 63.3 Z M 24.5 57.4 C 24.5 57.4 27.49 57.38 27.5 57.4 C 28.1 57.4 28.6 57.3 29 57.2 C 29.4 57.1 29.6 56.8 29.8 56.5 C 30 56.3 30.1 55.9 30.1 55.6 C 30.1 55.1 29.9 54.7 29.6 54.4 C 29.2 54 28.6 53.9 27.8 53.9 C 27.83 53.87 24.5 53.9 24.5 53.9 L 24.5 57.4 Z M 36.7 63.3 L 36.7 54 L 33.2 54 L 33.2 52.7 L 41.6 52.7 L 41.6 54 L 38.1 54 L 38.1 63.3 L 36.7 63.3 Z M 43.8 63.3 L 43.8 52.7 L 45.2 52.7 L 45.2 63.3 L 43.8 63.3 Z M 48.3 63.3 L 48.3 52.7 L 55.5 52.7 L 55.5 54 L 49.7 54 L 49.7 57.2 L 54.7 57.2 L 54.7 58.5 L 49.7 58.5 L 49.7 63.3 L 48.3 63.3 Z M 58 63.3 L 58 52.7 L 59.4 52.7 L 59.4 63.3 L 58 63.3 Z M 70 59.6 C 70 59.6 71.4 59.9 71.4 59.9 C 71.1 61.1 70.6 62 69.8 62.6 C 69.1 63.2 68.1 63.5 67 63.5 C 65.9 63.5 65 63.3 64.2 62.8 C 63.5 62.3 63 61.7 62.6 60.8 C 62.2 59.9 62 58.9 62 57.9 C 62 56.8 62.3 55.9 62.7 55 C 63.1 54.2 63.7 53.6 64.5 53.2 C 65.3 52.7 66.1 52.5 67.1 52.5 C 68.1 52.5 69 52.8 69.7 53.3 C 70.5 53.9 71 54.6 71.2 55.6 C 71.2 55.6 69.9 55.9 69.9 55.9 C 69.6 55.2 69.3 54.6 68.8 54.2 C 68.3 53.9 67.7 53.7 67 53.7 C 66.2 53.7 65.5 53.9 65 54.3 C 64.4 54.7 64 55.2 63.8 55.9 C 63.6 56.5 63.5 57.2 63.5 57.9 C 63.5 58.8 63.6 59.6 63.9 60.3 C 64.1 61 64.6 61.5 65.1 61.8 C 65.7 62.1 66.3 62.3 66.9 62.3 C 67.7 62.3 68.4 62.1 68.9 61.6 C 69.5 61.2 69.8 60.5 70 59.6 Z M 72.5 63.3 L 76.6 52.7 L 78.1 52.7 L 82.4 63.3 L 80.8 63.3 L 79.6 60.1 L 75.2 60.1 L 74 63.3 L 72.5 63.3 Z M 75.6 59 L 79.2 59 C 79.2 59 78.06 56.02 78.1 56 C 77.7 55.1 77.5 54.4 77.3 53.8 C 77.2 54.5 77 55.2 76.7 55.8 C 76.74 55.84 75.6 59 75.6 59 Z M 85.7 63.3 L 85.7 54 L 82.2 54 L 82.2 52.7 L 90.6 52.7 L 90.6 54 L 87.1 54 L 87.1 63.3 L 85.7 63.3 Z M 92.8 63.3 L 92.8 52.7 L 94.2 52.7 L 94.2 63.3 L 92.8 63.3 Z M 96.8 58.1 C 96.8 56.4 97.3 55 98.2 54 C 99.1 53 100.4 52.5 101.9 52.5 C 102.8 52.5 103.7 52.7 104.5 53.2 C 105.3 53.7 105.9 54.3 106.3 55.2 C 106.7 56 106.9 57 106.9 58 C 106.9 59.1 106.7 60.1 106.3 60.9 C 105.8 61.8 105.2 62.4 104.4 62.8 C 103.6 63.3 102.8 63.5 101.9 63.5 C 100.9 63.5 100 63.3 99.2 62.8 C 98.4 62.3 97.8 61.6 97.4 60.8 C 97 60 96.8 59.1 96.8 58.1 Z M 98.2 58.2 C 98.2 59.4 98.6 60.5 99.3 61.2 C 99.9 61.9 100.8 62.3 101.8 62.3 C 102.9 62.3 103.8 61.9 104.5 61.2 C 105.1 60.4 105.5 59.4 105.5 58 C 105.5 57.1 105.3 56.4 105 55.8 C 104.8 55.1 104.3 54.6 103.8 54.3 C 103.2 53.9 102.6 53.7 101.9 53.7 C 100.9 53.7 100 54.1 99.3 54.7 C 98.6 55.4 98.2 56.6 98.2 58.2 Z M 109.2 63.3 L 109.2 52.7 L 110.7 52.7 L 116.3 61 L 116.3 52.7 L 117.6 52.7 L 117.6 63.3 L 116.2 63.3 L 110.6 55 L 110.6 63.3 L 109.2 63.3 Z M 120 59.9 C 120 59.9 121.3 59.8 121.3 59.8 C 121.4 60.3 121.5 60.8 121.8 61.1 C 122 61.4 122.4 61.7 122.8 61.9 C 123.3 62.1 123.9 62.2 124.5 62.2 C 125 62.2 125.5 62.2 125.9 62 C 126.3 61.8 126.6 61.6 126.8 61.3 C 127 61.1 127.1 60.8 127.1 60.4 C 127.1 60.1 127 59.8 126.8 59.6 C 126.6 59.3 126.3 59.1 125.9 58.9 C 125.6 58.8 124.9 58.6 124 58.4 C 123 58.2 122.3 58 121.9 57.8 C 121.4 57.5 121 57.2 120.8 56.8 C 120.5 56.4 120.4 55.9 120.4 55.4 C 120.4 54.9 120.6 54.4 120.9 53.9 C 121.2 53.5 121.6 53.1 122.2 52.9 C 122.8 52.6 123.4 52.5 124.2 52.5 C 124.9 52.5 125.6 52.6 126.2 52.9 C 126.8 53.2 127.3 53.5 127.6 54 C 127.9 54.5 128.1 55.1 128.1 55.7 C 128.1 55.7 126.8 55.8 126.8 55.8 C 126.7 55.1 126.5 54.6 126.1 54.3 C 125.6 53.9 125 53.8 124.2 53.8 C 123.4 53.8 122.7 53.9 122.4 54.2 C 122 54.5 121.8 54.9 121.8 55.3 C 121.8 55.7 121.9 56 122.2 56.3 C 122.5 56.5 123.2 56.8 124.3 57 C 125.4 57.3 126.2 57.5 126.7 57.7 C 127.3 58 127.7 58.4 128 58.8 C 128.3 59.2 128.5 59.7 128.5 60.3 C 128.5 60.9 128.3 61.4 128 61.9 C 127.7 62.4 127.2 62.8 126.6 63.1 C 126 63.4 125.3 63.5 124.5 63.5 C 123.6 63.5 122.8 63.4 122.1 63.1 C 121.5 62.8 121 62.4 120.6 61.8 C 120.2 61.2 120 60.6 120 59.9 Z " stroke="none" fill="#ffffff"/>
  </g>
  <g id="Polygon63449">
    <path d="M 2.1 42 L 2.1 25.4 C 2.1 25.4 8.34 25.43 8.3 25.4 C 9.6 25.4 10.6 25.6 11.4 25.9 C 12.2 26.3 12.8 26.8 13.2 27.5 C 13.6 28.2 13.8 28.9 13.8 29.7 C 13.8 30.4 13.7 31.1 13.3 31.7 C 12.9 32.3 12.3 32.8 11.5 33.2 C 12.5 33.5 13.3 34 13.8 34.7 C 14.4 35.4 14.7 36.3 14.7 37.2 C 14.7 38 14.5 38.7 14.2 39.4 C 13.8 40.1 13.4 40.6 12.9 40.9 C 12.5 41.3 11.9 41.6 11.1 41.8 C 10.4 41.9 9.5 42 8.4 42 C 8.44 42.04 2.1 42 2.1 42 Z M 4.3 32.4 C 4.3 32.4 7.9 32.41 7.9 32.4 C 8.9 32.4 9.6 32.3 10 32.2 C 10.6 32 11 31.8 11.3 31.4 C 11.5 31 11.7 30.5 11.7 29.9 C 11.7 29.4 11.6 28.9 11.3 28.5 C 11 28.1 10.6 27.8 10.2 27.6 C 9.7 27.5 8.8 27.4 7.6 27.4 C 7.63 27.39 4.3 27.4 4.3 27.4 L 4.3 32.4 Z M 4.3 40.1 C 4.3 40.1 8.44 40.08 8.4 40.1 C 9.2 40.1 9.7 40.1 9.9 40 C 10.4 39.9 10.9 39.8 11.2 39.5 C 11.5 39.3 11.8 39 12 38.6 C 12.3 38.2 12.4 37.8 12.4 37.2 C 12.4 36.6 12.2 36.1 11.9 35.6 C 11.6 35.2 11.1 34.8 10.6 34.6 C 10 34.5 9.2 34.4 8.1 34.4 C 8.15 34.37 4.3 34.4 4.3 34.4 L 4.3 40.1 Z M 29.4 25.4 L 31.6 25.4 C 31.6 25.4 31.59 35.02 31.6 35 C 31.6 36.7 31.4 38 31 39 C 30.6 40 30 40.8 29 41.4 C 28 42 26.7 42.3 25.1 42.3 C 23.5 42.3 22.3 42.1 21.3 41.5 C 20.3 41 19.6 40.2 19.2 39.2 C 18.7 38.2 18.5 36.8 18.5 35 C 18.53 35.02 18.5 25.4 18.5 25.4 L 20.7 25.4 C 20.7 25.4 20.73 35.01 20.7 35 C 20.7 36.5 20.9 37.5 21.1 38.2 C 21.4 38.9 21.9 39.4 22.5 39.8 C 23.2 40.2 24 40.3 24.9 40.3 C 26.5 40.3 27.7 40 28.4 39.2 C 29.1 38.5 29.4 37.1 29.4 35 C 29.4 35.01 29.4 25.4 29.4 25.4 Z M 36.4 42 L 36.4 25.4 L 38.6 25.4 L 38.6 42 L 36.4 42 Z M 43.2 42 L 43.2 25.4 L 45.4 25.4 L 45.4 40.1 L 53.6 40.1 L 53.6 42 L 43.2 42 Z M 57.1 42 L 57.1 25.4 C 57.1 25.4 62.78 25.43 62.8 25.4 C 64.1 25.4 65.1 25.5 65.7 25.7 C 66.7 25.9 67.5 26.3 68.2 26.9 C 69.1 27.6 69.7 28.5 70.1 29.7 C 70.6 30.8 70.8 32.2 70.8 33.6 C 70.8 34.9 70.6 36 70.4 37 C 70.1 38 69.7 38.8 69.2 39.4 C 68.8 40.1 68.3 40.6 67.7 40.9 C 67.2 41.3 66.5 41.6 65.7 41.8 C 64.9 41.9 64.1 42 63.1 42 C 63.05 42.04 57.1 42 57.1 42 Z M 59.3 40.1 C 59.3 40.1 62.8 40.08 62.8 40.1 C 63.9 40.1 64.8 40 65.4 39.8 C 66 39.6 66.5 39.3 66.9 38.9 C 67.4 38.4 67.8 37.7 68.1 36.8 C 68.4 35.9 68.5 34.9 68.5 33.6 C 68.5 31.9 68.2 30.5 67.7 29.6 C 67.1 28.7 66.4 28 65.6 27.7 C 65 27.5 64.1 27.4 62.7 27.4 C 62.75 27.39 59.3 27.4 59.3 27.4 L 59.3 40.1 Z M 75 42 L 75 25.4 L 77.2 25.4 L 77.2 42 L 75 42 Z M 81.9 42 L 81.9 25.4 L 84.1 25.4 L 92.9 38.5 L 92.9 25.4 L 95 25.4 L 95 42 L 92.7 42 L 84 29 L 84 42 L 81.9 42 Z M 107.2 35.5 L 107.2 33.6 L 114.3 33.6 C 114.3 33.6 114.29 39.73 114.3 39.7 C 113.2 40.6 112.1 41.2 110.9 41.7 C 109.8 42.1 108.6 42.3 107.4 42.3 C 105.8 42.3 104.3 42 103 41.3 C 101.6 40.6 100.6 39.6 99.9 38.2 C 99.3 36.9 98.9 35.4 98.9 33.8 C 98.9 32.2 99.3 30.7 99.9 29.3 C 100.6 27.9 101.6 26.8 102.9 26.2 C 104.1 25.5 105.6 25.1 107.2 25.1 C 108.4 25.1 109.5 25.3 110.5 25.7 C 111.5 26.1 112.2 26.7 112.8 27.4 C 113.3 28 113.7 29 114 30.1 C 114 30.1 112.1 30.6 112.1 30.6 C 111.8 29.8 111.5 29.1 111.1 28.6 C 110.8 28.1 110.2 27.8 109.5 27.5 C 108.9 27.2 108.1 27 107.2 27 C 106.2 27 105.4 27.2 104.6 27.5 C 103.9 27.8 103.3 28.2 102.9 28.7 C 102.4 29.2 102.1 29.7 101.8 30.3 C 101.4 31.4 101.2 32.5 101.2 33.7 C 101.2 35.2 101.4 36.4 102 37.4 C 102.5 38.4 103.2 39.1 104.2 39.6 C 105.2 40.1 106.2 40.3 107.3 40.3 C 108.2 40.3 109.2 40.2 110.1 39.8 C 111 39.4 111.7 39 112.1 38.6 C 112.13 38.62 112.1 35.5 112.1 35.5 L 107.2 35.5 Z " stroke="none" fill="#ffffff"/>
  </g>
  <g id="Polygon63448">
    <path d="M 10 10.4 L 10 8.4 L 17 8.4 C 17 8.4 17.01 14.58 17 14.6 C 15.9 15.4 14.8 16.1 13.7 16.5 C 12.5 17 11.3 17.2 10.1 17.2 C 8.5 17.2 7 16.8 5.7 16.1 C 4.3 15.4 3.3 14.4 2.7 13.1 C 2 11.8 1.6 10.3 1.6 8.7 C 1.6 7.1 2 5.5 2.7 4.1 C 3.3 2.7 4.3 1.7 5.6 1 C 6.8 0.3 8.3 0 10 0 C 11.2 0 12.2 0.2 13.2 0.6 C 14.2 1 15 1.5 15.5 2.2 C 16.1 2.9 16.5 3.8 16.8 4.9 C 16.8 4.9 14.8 5.5 14.8 5.5 C 14.5 4.6 14.2 4 13.8 3.5 C 13.5 3 12.9 2.6 12.3 2.3 C 11.6 2 10.8 1.9 10 1.9 C 9 1.9 8.1 2 7.4 2.3 C 6.6 2.6 6 3 5.6 3.5 C 5.1 4 4.8 4.6 4.5 5.2 C 4.1 6.2 3.9 7.3 3.9 8.5 C 3.9 10 4.2 11.3 4.7 12.3 C 5.2 13.2 5.9 14 6.9 14.5 C 7.9 15 8.9 15.2 10 15.2 C 11 15.2 11.9 15 12.8 14.6 C 13.7 14.3 14.4 13.9 14.9 13.5 C 14.86 13.47 14.9 10.4 14.9 10.4 L 10 10.4 Z M 21.1 16.9 L 21.1 0.3 C 21.1 0.3 28.47 0.28 28.5 0.3 C 29.9 0.3 31.1 0.4 31.8 0.7 C 32.6 1 33.2 1.6 33.7 2.3 C 34.2 3.1 34.4 3.9 34.4 4.8 C 34.4 6 34 7 33.2 7.8 C 32.5 8.6 31.3 9.1 29.7 9.3 C 30.3 9.6 30.7 9.9 31 10.2 C 31.7 10.8 32.3 11.5 32.9 12.4 C 32.85 12.37 35.7 16.9 35.7 16.9 L 33 16.9 C 33 16.9 30.78 13.44 30.8 13.4 C 30.1 12.4 29.6 11.7 29.2 11.2 C 28.8 10.6 28.4 10.3 28.1 10 C 27.7 9.8 27.4 9.7 27.1 9.6 C 26.8 9.5 26.4 9.5 25.8 9.5 C 25.85 9.52 23.3 9.5 23.3 9.5 L 23.3 16.9 L 21.1 16.9 Z M 23.3 7.6 C 23.3 7.6 28.02 7.62 28 7.6 C 29 7.6 29.8 7.5 30.4 7.3 C 30.9 7.1 31.4 6.8 31.7 6.3 C 32 5.8 32.1 5.4 32.1 4.8 C 32.1 4 31.8 3.4 31.3 2.9 C 30.7 2.4 29.8 2.1 28.6 2.1 C 28.56 2.12 23.3 2.1 23.3 2.1 L 23.3 7.6 Z M 38.7 16.9 L 38.7 0.3 L 50.7 0.3 L 50.7 2.2 L 40.9 2.2 L 40.9 7.3 L 50.1 7.3 L 50.1 9.3 L 40.9 9.3 L 40.9 14.9 L 51.1 14.9 L 51.1 16.9 L 38.7 16.9 Z M 55 16.9 L 55 0.3 L 67 0.3 L 67 2.2 L 57.2 2.2 L 57.2 7.3 L 66.4 7.3 L 66.4 9.3 L 57.2 9.3 L 57.2 14.9 L 67.4 14.9 L 67.4 16.9 L 55 16.9 Z M 71.2 16.9 L 71.2 0.3 L 73.5 0.3 L 82.2 13.3 L 82.2 0.3 L 84.3 0.3 L 84.3 16.9 L 82 16.9 L 73.3 3.8 L 73.3 16.9 L 71.2 16.9 Z " stroke="none" fill="#ffffff"/>
  </g>
</svg>