<?xml version="1.0" standalone="no"?>
<!DOCTYPE svg PUBLIC "-//W3C//DTD SVG 1.1//EN" "http://www.w3.org/Graphics/SVG/1.1/DTD/svg11.dtd">
<svg xmlns="http://www.w3.org/2000/svg" version="1.1" width="129.2px" height="46.3px" viewBox="0 -7 129.2 46.3" style="top:-7px">
  <desc>8,889</desc>
  <defs/>
  <g id="Polygon62387">
    <path d="M 42.8 6.9 C 42 6.6 41.5 6.2 41.1 5.7 C 40.8 5.2 40.6 4.6 40.6 3.9 C 40.6 2.9 41 2 41.7 1.3 C 42.5 0.5 43.5 0.2 44.8 0.2 C 46 0.2 47 0.6 47.8 1.3 C 48.6 2 49 2.9 49 4 C 49 4.7 48.8 5.2 48.4 5.7 C 48.1 6.2 47.6 6.6 46.8 6.9 C 47.7 7.2 48.4 7.7 48.9 8.3 C 49.3 9 49.6 9.7 49.6 10.6 C 49.6 11.9 49.1 12.9 48.3 13.8 C 47.4 14.6 46.2 15 44.8 15 C 43.3 15 42.2 14.6 41.3 13.8 C 40.4 12.9 40 11.8 40 10.6 C 40 9.6 40.2 8.8 40.7 8.2 C 41.2 7.6 41.9 7.1 42.8 6.9 Z M 42.4 3.9 C 42.4 4.6 42.6 5.1 43.1 5.6 C 43.5 6 44.1 6.2 44.8 6.2 C 45.5 6.2 46 6 46.5 5.6 C 46.9 5.1 47.1 4.6 47.1 4 C 47.1 3.3 46.9 2.8 46.5 2.3 C 46 1.9 45.4 1.7 44.8 1.7 C 44.1 1.7 43.5 1.9 43.1 2.3 C 42.6 2.7 42.4 3.3 42.4 3.9 Z M 41.8 10.6 C 41.8 11.1 41.9 11.6 42.2 12.1 C 42.4 12.5 42.8 12.9 43.3 13.2 C 43.7 13.4 44.3 13.6 44.8 13.6 C 45.7 13.6 46.4 13.3 46.9 12.7 C 47.5 12.2 47.7 11.5 47.7 10.6 C 47.7 9.8 47.5 9.1 46.9 8.5 C 46.3 8 45.6 7.7 44.7 7.7 C 43.9 7.7 43.2 8 42.7 8.5 C 42.1 9.1 41.8 9.8 41.8 10.6 Z M 52.3 14.8 L 52.3 12.8 L 54.3 12.8 C 54.3 12.8 54.3 14.78 54.3 14.8 C 54.3 15.5 54.2 16.1 53.9 16.6 C 53.6 17.1 53.2 17.4 52.6 17.7 C 52.6 17.7 52.1 16.9 52.1 16.9 C 52.5 16.7 52.8 16.5 53 16.2 C 53.2 15.8 53.3 15.4 53.3 14.8 C 53.28 14.78 52.3 14.8 52.3 14.8 Z M 59.7 6.9 C 59 6.6 58.4 6.2 58 5.7 C 57.7 5.2 57.5 4.6 57.5 3.9 C 57.5 2.9 57.9 2 58.7 1.3 C 59.4 0.5 60.4 0.2 61.7 0.2 C 63 0.2 64 0.6 64.8 1.3 C 65.5 2 65.9 2.9 65.9 4 C 65.9 4.7 65.7 5.2 65.4 5.7 C 65 6.2 64.5 6.6 63.8 6.9 C 64.7 7.2 65.3 7.7 65.8 8.3 C 66.3 9 66.5 9.7 66.5 10.6 C 66.5 11.9 66.1 12.9 65.2 13.8 C 64.3 14.6 63.2 15 61.7 15 C 60.3 15 59.1 14.6 58.2 13.8 C 57.4 12.9 56.9 11.8 56.9 10.6 C 56.9 9.6 57.2 8.8 57.6 8.2 C 58.1 7.6 58.8 7.1 59.7 6.9 Z M 59.3 3.9 C 59.3 4.6 59.6 5.1 60 5.6 C 60.4 6 61 6.2 61.7 6.2 C 62.4 6.2 63 6 63.4 5.6 C 63.9 5.1 64.1 4.6 64.1 4 C 64.1 3.3 63.9 2.8 63.4 2.3 C 62.9 1.9 62.4 1.7 61.7 1.7 C 61 1.7 60.5 1.9 60 2.3 C 59.6 2.7 59.3 3.3 59.3 3.9 Z M 58.8 10.6 C 58.8 11.1 58.9 11.6 59.1 12.1 C 59.4 12.5 59.7 12.9 60.2 13.2 C 60.7 13.4 61.2 13.6 61.7 13.6 C 62.6 13.6 63.3 13.3 63.9 12.7 C 64.4 12.2 64.7 11.5 64.7 10.6 C 64.7 9.8 64.4 9.1 63.8 8.5 C 63.3 8 62.5 7.7 61.7 7.7 C 60.8 7.7 60.1 8 59.6 8.5 C 59 9.1 58.8 9.8 58.8 10.6 Z M 71 6.9 C 70.2 6.6 69.7 6.2 69.3 5.7 C 69 5.2 68.8 4.6 68.8 3.9 C 68.8 2.9 69.2 2 69.9 1.3 C 70.7 0.5 71.7 0.2 73 0.2 C 74.3 0.2 75.3 0.6 76 1.3 C 76.8 2 77.2 2.9 77.2 4 C 77.2 4.7 77 5.2 76.7 5.7 C 76.3 6.2 75.8 6.6 75.1 6.9 C 76 7.2 76.6 7.7 77.1 8.3 C 77.6 9 77.8 9.7 77.8 10.6 C 77.8 11.9 77.4 12.9 76.5 13.8 C 75.6 14.6 74.4 15 73 15 C 71.6 15 70.4 14.6 69.5 13.8 C 68.7 12.9 68.2 11.8 68.2 10.6 C 68.2 9.6 68.5 8.8 68.9 8.2 C 69.4 7.6 70.1 7.1 71 6.9 Z M 70.6 3.9 C 70.6 4.6 70.9 5.1 71.3 5.6 C 71.7 6 72.3 6.2 73 6.2 C 73.7 6.2 74.3 6 74.7 5.6 C 75.2 5.1 75.4 4.6 75.4 4 C 75.4 3.3 75.1 2.8 74.7 2.3 C 74.2 1.9 73.7 1.7 73 1.7 C 72.3 1.7 71.8 1.9 71.3 2.3 C 70.9 2.7 70.6 3.3 70.6 3.9 Z M 70.1 10.6 C 70.1 11.1 70.2 11.6 70.4 12.1 C 70.7 12.5 71 12.9 71.5 13.2 C 72 13.4 72.5 13.6 73 13.6 C 73.9 13.6 74.6 13.3 75.1 12.7 C 75.7 12.2 76 11.5 76 10.6 C 76 9.8 75.7 9.1 75.1 8.5 C 74.5 8 73.8 7.7 73 7.7 C 72.1 7.7 71.4 8 70.9 8.5 C 70.3 9.1 70.1 9.8 70.1 10.6 Z M 79.8 11.4 C 79.8 11.4 81.5 11.3 81.5 11.3 C 81.7 12.1 81.9 12.7 82.4 13 C 82.8 13.4 83.3 13.6 83.9 13.6 C 84.5 13.6 85 13.4 85.4 13.2 C 85.8 12.9 86.1 12.6 86.4 12.2 C 86.7 11.8 86.9 11.2 87.1 10.5 C 87.2 9.8 87.3 9 87.3 8.3 C 87.3 8.2 87.3 8.1 87.3 7.9 C 87 8.5 86.5 9 85.8 9.3 C 85.2 9.7 84.6 9.9 83.8 9.9 C 82.6 9.9 81.6 9.4 80.8 8.5 C 80 7.7 79.5 6.5 79.5 5.1 C 79.5 3.6 80 2.4 80.8 1.5 C 81.7 0.6 82.8 0.2 84.1 0.2 C 85.1 0.2 85.9 0.4 86.7 1 C 87.5 1.5 88.1 2.2 88.5 3.1 C 88.9 4.1 89.1 5.4 89.1 7.2 C 89.1 9.1 88.9 10.6 88.5 11.7 C 88.1 12.8 87.5 13.6 86.7 14.2 C 85.9 14.7 85 15 83.9 15 C 82.8 15 81.8 14.7 81.1 14.1 C 80.4 13.5 80 12.6 79.8 11.4 Z M 87.1 5 C 87.1 4 86.8 3.2 86.3 2.6 C 85.7 2 85.1 1.7 84.3 1.7 C 83.5 1.7 82.8 2 82.3 2.6 C 81.7 3.3 81.4 4.1 81.4 5.2 C 81.4 6.1 81.7 6.8 82.2 7.4 C 82.8 8 83.5 8.3 84.3 8.3 C 85.1 8.3 85.8 8 86.3 7.4 C 86.8 6.8 87.1 6 87.1 5 Z " stroke="none" fill="#54626c"/>
  </g>
</svg>