<?xml version="1.0" standalone="no"?>
<!DOCTYPE svg PUBLIC "-//W3C//DTD SVG 1.1//EN" "http://www.w3.org/Graphics/SVG/1.1/DTD/svg11.dtd">
<svg xmlns="http://www.w3.org/2000/svg" version="1.1" width="112px" height="53.8px" viewBox="0 -5 112 53.8" style="top:-5px">
  <desc>at Least 50% LED Lighting</desc>
  <defs/>
  <g id="Polygon63555">
    <path d="M 1.1 27.8 L 1.1 17.5 L 2.4 17.5 L 2.4 26.5 L 7.5 26.5 L 7.5 27.8 L 1.1 27.8 Z M 9 27.8 L 9 17.5 L 16.4 17.5 L 16.4 18.7 L 10.3 18.7 L 10.3 21.8 L 16 21.8 L 16 23 L 10.3 23 L 10.3 26.5 L 16.7 26.5 L 16.7 27.8 L 9 27.8 Z M 18.3 27.8 L 18.3 17.5 C 18.3 17.5 21.87 17.46 21.9 17.5 C 22.7 17.5 23.3 17.5 23.7 17.6 C 24.3 17.7 24.8 18 25.2 18.3 C 25.8 18.8 26.2 19.4 26.4 20.1 C 26.7 20.8 26.8 21.6 26.8 22.6 C 26.8 23.3 26.8 24 26.6 24.6 C 26.4 25.2 26.1 25.7 25.9 26.1 C 25.6 26.5 25.3 26.8 24.9 27.1 C 24.6 27.3 24.2 27.5 23.7 27.6 C 23.2 27.7 22.7 27.8 22 27.8 C 22.04 27.76 18.3 27.8 18.3 27.8 Z M 19.7 26.5 C 19.7 26.5 21.88 26.55 21.9 26.5 C 22.6 26.5 23.1 26.5 23.5 26.4 C 23.9 26.2 24.2 26.1 24.4 25.8 C 24.7 25.5 25 25.1 25.2 24.5 C 25.3 24 25.4 23.3 25.4 22.5 C 25.4 21.5 25.3 20.6 24.9 20 C 24.6 19.5 24.1 19.1 23.6 18.9 C 23.2 18.7 22.7 18.7 21.8 18.7 C 21.85 18.67 19.7 18.7 19.7 18.7 L 19.7 26.5 Z M 32.7 27.8 L 32.7 17.5 L 34 17.5 L 34 26.5 L 39.1 26.5 L 39.1 27.8 L 32.7 27.8 Z M 40.4 18.9 L 40.4 17.5 L 41.7 17.5 L 41.7 18.9 L 40.4 18.9 Z M 40.4 27.8 L 40.4 20.3 L 41.7 20.3 L 41.7 27.8 L 40.4 27.8 Z M 43.3 28.4 C 43.3 28.4 44.5 28.6 44.5 28.6 C 44.6 28.9 44.7 29.2 45 29.4 C 45.3 29.6 45.7 29.7 46.2 29.7 C 46.8 29.7 47.3 29.6 47.6 29.4 C 47.9 29.2 48.1 28.8 48.2 28.4 C 48.3 28.2 48.3 27.6 48.3 26.8 C 47.8 27.4 47.1 27.8 46.3 27.8 C 45.2 27.8 44.5 27.4 43.9 26.7 C 43.3 25.9 43 25 43 24 C 43 23.3 43.2 22.6 43.4 22 C 43.7 21.4 44.1 20.9 44.6 20.6 C 45 20.3 45.6 20.1 46.3 20.1 C 47.2 20.1 47.9 20.5 48.5 21.2 C 48.46 21.2 48.5 20.3 48.5 20.3 L 49.6 20.3 C 49.6 20.3 49.63 26.75 49.6 26.8 C 49.6 27.9 49.5 28.7 49.3 29.2 C 49 29.7 48.7 30.1 48.1 30.4 C 47.6 30.7 47 30.8 46.3 30.8 C 45.4 30.8 44.6 30.6 44.1 30.2 C 43.5 29.8 43.3 29.2 43.3 28.4 Z M 44.3 23.9 C 44.3 24.9 44.5 25.6 44.9 26 C 45.3 26.5 45.8 26.7 46.4 26.7 C 47 26.7 47.5 26.5 47.9 26 C 48.2 25.6 48.4 24.9 48.4 23.9 C 48.4 23 48.2 22.3 47.8 21.9 C 47.4 21.4 46.9 21.2 46.4 21.2 C 45.8 21.2 45.3 21.4 44.9 21.9 C 44.5 22.3 44.3 23 44.3 23.9 Z M 51.4 27.8 L 51.4 17.5 L 52.7 17.5 C 52.7 17.5 52.68 21.15 52.7 21.2 C 53.3 20.5 54 20.1 54.9 20.1 C 55.5 20.1 55.9 20.2 56.4 20.5 C 56.8 20.7 57.1 21 57.2 21.4 C 57.4 21.7 57.5 22.3 57.5 23 C 57.49 23.03 57.5 27.8 57.5 27.8 L 56.2 27.8 C 56.2 27.8 56.23 23.03 56.2 23 C 56.2 22.4 56.1 21.9 55.8 21.6 C 55.5 21.4 55.2 21.2 54.7 21.2 C 54.3 21.2 53.9 21.3 53.6 21.5 C 53.3 21.7 53 22 52.9 22.3 C 52.7 22.6 52.7 23.1 52.7 23.7 C 52.68 23.68 52.7 27.8 52.7 27.8 L 51.4 27.8 Z M 61.4 26.7 C 61.5 26.7 61.7 26.7 61.9 26.6 C 61.9 26.6 62.1 27.7 62.1 27.7 C 61.8 27.8 61.5 27.9 61.2 27.9 C 60.7 27.9 60.4 27.8 60.1 27.6 C 59.9 27.5 59.7 27.3 59.6 27.1 C 59.5 26.8 59.4 26.3 59.4 25.6 C 59.41 25.58 59.4 21.3 59.4 21.3 L 58.5 21.3 L 58.5 20.3 L 59.4 20.3 L 59.4 18.4 L 60.7 17.7 L 60.7 20.3 L 61.9 20.3 L 61.9 21.3 L 60.7 21.3 C 60.7 21.3 60.67 25.65 60.7 25.6 C 60.7 26 60.7 26.2 60.7 26.3 C 60.8 26.4 60.9 26.5 61 26.6 C 61.1 26.7 61.2 26.7 61.4 26.7 C 61.4 26.7 61.4 26.7 61.4 26.7 Z M 63.1 18.9 L 63.1 17.5 L 64.4 17.5 L 64.4 18.9 L 63.1 18.9 Z M 63.1 27.8 L 63.1 20.3 L 64.4 20.3 L 64.4 27.8 L 63.1 27.8 Z M 66.2 27.8 L 66.2 20.3 L 67.3 20.3 C 67.3 20.3 67.33 21.36 67.3 21.4 C 67.9 20.5 68.7 20.1 69.7 20.1 C 70.2 20.1 70.6 20.2 70.9 20.4 C 71.3 20.5 71.6 20.7 71.8 21 C 72 21.3 72.1 21.6 72.2 21.9 C 72.2 22.2 72.3 22.6 72.3 23.2 C 72.26 23.17 72.3 27.8 72.3 27.8 L 71 27.8 C 71 27.8 70.99 23.22 71 23.2 C 71 22.7 70.9 22.3 70.8 22.1 C 70.7 21.8 70.6 21.6 70.3 21.5 C 70.1 21.3 69.8 21.2 69.4 21.2 C 68.9 21.2 68.4 21.4 68 21.7 C 67.7 22.1 67.5 22.7 67.5 23.7 C 67.46 23.69 67.5 27.8 67.5 27.8 L 66.2 27.8 Z M 73.9 28.4 C 73.9 28.4 75.1 28.6 75.1 28.6 C 75.1 28.9 75.3 29.2 75.5 29.4 C 75.8 29.6 76.3 29.7 76.8 29.7 C 77.4 29.7 77.8 29.6 78.2 29.4 C 78.5 29.2 78.7 28.8 78.8 28.4 C 78.9 28.2 78.9 27.6 78.9 26.8 C 78.3 27.4 77.7 27.8 76.8 27.8 C 75.8 27.8 75 27.4 74.5 26.7 C 73.9 25.9 73.6 25 73.6 24 C 73.6 23.3 73.7 22.6 74 22 C 74.3 21.4 74.6 20.9 75.1 20.6 C 75.6 20.3 76.2 20.1 76.8 20.1 C 77.7 20.1 78.4 20.5 79 21.2 C 79.02 21.2 79 20.3 79 20.3 L 80.2 20.3 C 80.2 20.3 80.19 26.75 80.2 26.8 C 80.2 27.9 80.1 28.7 79.8 29.2 C 79.6 29.7 79.2 30.1 78.7 30.4 C 78.2 30.7 77.6 30.8 76.8 30.8 C 75.9 30.8 75.2 30.6 74.7 30.2 C 74.1 29.8 73.8 29.2 73.9 28.4 Z M 74.9 23.9 C 74.9 24.9 75.1 25.6 75.5 26 C 75.9 26.5 76.4 26.7 77 26.7 C 77.5 26.7 78 26.5 78.4 26 C 78.8 25.6 79 24.9 79 23.9 C 79 23 78.8 22.3 78.4 21.9 C 78 21.4 77.5 21.2 76.9 21.2 C 76.4 21.2 75.9 21.4 75.5 21.9 C 75.1 22.3 74.9 23 74.9 23.9 Z " stroke="none" fill="#ffffff"/>
  </g>
  <g id="Polygon63554">
    <path d="M 6.1 10.5 C 5.9 10.2 5.9 9.9 5.8 9.6 C 5.4 10 4.9 10.2 4.5 10.4 C 4 10.6 3.6 10.7 3.1 10.7 C 2.3 10.7 1.6 10.5 1.2 10.1 C 0.7 9.7 0.5 9.1 0.5 8.5 C 0.5 8.1 0.6 7.8 0.8 7.5 C 0.9 7.2 1.2 7 1.4 6.8 C 1.7 6.6 2 6.5 2.3 6.4 C 2.6 6.3 3 6.2 3.5 6.2 C 4.5 6.1 5.2 5.9 5.7 5.7 C 5.7 5.6 5.7 5.5 5.7 5.4 C 5.7 4.9 5.6 4.5 5.4 4.3 C 5 4 4.6 3.9 3.9 3.9 C 3.3 3.9 2.9 4 2.6 4.2 C 2.3 4.4 2.1 4.8 2 5.3 C 2 5.3 0.7 5.1 0.7 5.1 C 0.9 4.6 1 4.2 1.3 3.9 C 1.6 3.5 1.9 3.3 2.4 3.1 C 2.9 2.9 3.5 2.8 4.1 2.8 C 4.7 2.8 5.3 2.9 5.7 3.1 C 6.1 3.2 6.4 3.4 6.5 3.6 C 6.7 3.9 6.9 4.2 6.9 4.5 C 7 4.7 7 5.1 7 5.7 C 7 5.7 7 7.4 7 7.4 C 7 8.5 7 9.3 7.1 9.6 C 7.1 9.9 7.2 10.2 7.4 10.5 C 7.4 10.48 6.1 10.5 6.1 10.5 C 6.1 10.5 6.08 10.48 6.1 10.5 Z M 5.7 6.7 C 5.3 6.9 4.6 7.1 3.6 7.2 C 3.1 7.3 2.8 7.4 2.5 7.5 C 2.3 7.6 2.2 7.7 2 7.9 C 1.9 8.1 1.9 8.3 1.9 8.5 C 1.9 8.8 2 9.1 2.3 9.3 C 2.5 9.5 2.9 9.7 3.4 9.7 C 3.9 9.7 4.3 9.6 4.7 9.3 C 5.1 9.1 5.3 8.8 5.5 8.5 C 5.6 8.2 5.7 7.8 5.7 7.2 C 5.7 7.2 5.7 6.7 5.7 6.7 Z M 11 9.4 C 11.1 9.4 11.3 9.4 11.5 9.4 C 11.5 9.4 11.7 10.5 11.7 10.5 C 11.3 10.5 11 10.6 10.7 10.6 C 10.3 10.6 9.9 10.5 9.7 10.4 C 9.4 10.2 9.2 10 9.1 9.8 C 9 9.6 9 9.1 9 8.3 C 8.98 8.3 9 4 9 4 L 8 4 L 8 3 L 9 3 L 9 1.2 L 10.2 0.4 L 10.2 3 L 11.5 3 L 11.5 4 L 10.2 4 C 10.2 4 10.24 8.37 10.2 8.4 C 10.2 8.7 10.3 9 10.3 9.1 C 10.3 9.2 10.4 9.2 10.5 9.3 C 10.6 9.4 10.8 9.4 11 9.4 C 11 9.4 11 9.4 11 9.4 Z M 16.9 10.5 L 16.9 0.2 L 18.2 0.2 L 18.2 9.3 L 23.3 9.3 L 23.3 10.5 L 16.9 10.5 Z M 29.6 8.1 C 29.6 8.1 31 8.2 31 8.2 C 30.8 9 30.4 9.6 29.8 10 C 29.3 10.4 28.5 10.7 27.7 10.7 C 26.6 10.7 25.7 10.3 25.1 9.6 C 24.4 9 24.1 8 24.1 6.8 C 24.1 5.6 24.4 4.6 25.1 3.9 C 25.7 3.2 26.6 2.8 27.6 2.8 C 28.6 2.8 29.4 3.2 30 3.9 C 30.7 4.5 31 5.5 31 6.7 C 31 6.8 31 6.9 31 7.1 C 31 7.1 25.4 7.1 25.4 7.1 C 25.5 7.9 25.7 8.5 26.1 9 C 26.5 9.4 27.1 9.6 27.7 9.6 C 28.1 9.6 28.5 9.5 28.9 9.2 C 29.2 9 29.5 8.6 29.6 8.1 Z M 25.5 6 C 25.5 6 29.7 6 29.7 6 C 29.6 5.4 29.4 4.9 29.2 4.6 C 28.8 4.1 28.3 3.9 27.6 3.9 C 27 3.9 26.5 4.1 26.2 4.5 C 25.8 4.9 25.5 5.4 25.5 6 Z M 37.6 10.5 C 37.4 10.2 37.4 9.9 37.3 9.6 C 36.8 10 36.4 10.2 36 10.4 C 35.5 10.6 35.1 10.7 34.6 10.7 C 33.7 10.7 33.1 10.5 32.7 10.1 C 32.2 9.7 32 9.1 32 8.5 C 32 8.1 32.1 7.8 32.3 7.5 C 32.4 7.2 32.6 7 32.9 6.8 C 33.2 6.6 33.5 6.5 33.8 6.4 C 34.1 6.3 34.4 6.2 35 6.2 C 36 6.1 36.7 5.9 37.2 5.7 C 37.2 5.6 37.2 5.5 37.2 5.4 C 37.2 4.9 37.1 4.5 36.9 4.3 C 36.5 4 36.1 3.9 35.4 3.9 C 34.8 3.9 34.4 4 34.1 4.2 C 33.8 4.4 33.6 4.8 33.5 5.3 C 33.5 5.3 32.2 5.1 32.2 5.1 C 32.3 4.6 32.5 4.2 32.8 3.9 C 33 3.5 33.4 3.3 33.9 3.1 C 34.4 2.9 35 2.8 35.6 2.8 C 36.2 2.8 36.8 2.9 37.2 3.1 C 37.6 3.2 37.8 3.4 38 3.6 C 38.2 3.9 38.3 4.2 38.4 4.5 C 38.5 4.7 38.5 5.1 38.5 5.7 C 38.5 5.7 38.5 7.4 38.5 7.4 C 38.5 8.5 38.5 9.3 38.6 9.6 C 38.6 9.9 38.7 10.2 38.9 10.5 C 38.89 10.48 37.6 10.5 37.6 10.5 C 37.6 10.5 37.57 10.48 37.6 10.5 Z M 37.2 6.7 C 36.7 6.9 36.1 7.1 35.1 7.2 C 34.6 7.3 34.3 7.4 34 7.5 C 33.8 7.6 33.7 7.7 33.5 7.9 C 33.4 8.1 33.4 8.3 33.4 8.5 C 33.4 8.8 33.5 9.1 33.7 9.3 C 34 9.5 34.4 9.7 34.9 9.7 C 35.4 9.7 35.8 9.6 36.2 9.3 C 36.5 9.1 36.8 8.8 37 8.5 C 37.1 8.2 37.2 7.8 37.2 7.2 C 37.2 7.2 37.2 6.7 37.2 6.7 Z M 39.8 8.3 C 39.8 8.3 41 8.1 41 8.1 C 41.1 8.6 41.3 8.9 41.6 9.2 C 42 9.5 42.4 9.6 43 9.6 C 43.6 9.6 44 9.5 44.3 9.3 C 44.6 9 44.7 8.7 44.7 8.4 C 44.7 8.1 44.6 7.9 44.3 7.7 C 44.1 7.6 43.7 7.5 43 7.3 C 42.1 7.1 41.5 6.9 41.1 6.7 C 40.7 6.5 40.5 6.3 40.3 6 C 40.1 5.7 40 5.4 40 5 C 40 4.7 40.1 4.4 40.2 4.1 C 40.4 3.8 40.6 3.6 40.9 3.4 C 41.1 3.2 41.3 3.1 41.7 3 C 42 2.9 42.4 2.8 42.8 2.8 C 43.3 2.8 43.9 2.9 44.3 3.1 C 44.7 3.3 45.1 3.5 45.3 3.8 C 45.5 4.1 45.6 4.5 45.7 4.9 C 45.7 4.9 44.5 5.1 44.5 5.1 C 44.4 4.7 44.3 4.4 44 4.2 C 43.7 4 43.3 3.9 42.8 3.9 C 42.3 3.9 41.8 4 41.6 4.2 C 41.4 4.4 41.2 4.6 41.2 4.9 C 41.2 5 41.3 5.2 41.4 5.3 C 41.5 5.4 41.6 5.5 41.9 5.6 C 42 5.7 42.4 5.8 43 6 C 43.9 6.2 44.5 6.4 44.9 6.5 C 45.2 6.7 45.5 6.9 45.7 7.2 C 45.9 7.5 46 7.9 46 8.3 C 46 8.7 45.9 9.1 45.6 9.5 C 45.4 9.9 45 10.1 44.6 10.3 C 44.1 10.6 43.6 10.7 43 10.7 C 42 10.7 41.3 10.5 40.8 10 C 40.3 9.6 39.9 9 39.8 8.3 Z M 49.5 9.4 C 49.7 9.4 49.9 9.4 50.1 9.4 C 50.1 9.4 50.3 10.5 50.3 10.5 C 49.9 10.5 49.6 10.6 49.3 10.6 C 48.9 10.6 48.5 10.5 48.2 10.4 C 48 10.2 47.8 10 47.7 9.8 C 47.6 9.6 47.6 9.1 47.6 8.3 C 47.55 8.3 47.6 4 47.6 4 L 46.6 4 L 46.6 3 L 47.6 3 L 47.6 1.2 L 48.8 0.4 L 48.8 3 L 50.1 3 L 50.1 4 L 48.8 4 C 48.8 4 48.81 8.37 48.8 8.4 C 48.8 8.7 48.8 9 48.9 9.1 C 48.9 9.2 49 9.2 49.1 9.3 C 49.2 9.4 49.3 9.4 49.5 9.4 C 49.5 9.4 49.5 9.4 49.5 9.4 Z M 55 7.8 C 55 7.8 56.3 7.7 56.3 7.7 C 56.4 8.3 56.6 8.8 57 9.1 C 57.3 9.5 57.8 9.6 58.3 9.6 C 58.9 9.6 59.4 9.4 59.8 8.9 C 60.3 8.5 60.5 7.9 60.5 7.1 C 60.5 6.4 60.3 5.8 59.9 5.4 C 59.4 5 58.9 4.8 58.3 4.8 C 57.9 4.8 57.5 4.9 57.2 5 C 56.8 5.2 56.6 5.5 56.4 5.8 C 56.38 5.77 55.2 5.6 55.2 5.6 L 56.2 0.3 L 61.3 0.3 L 61.3 1.5 L 57.2 1.5 C 57.2 1.5 56.65 4.3 56.7 4.3 C 57.3 3.9 57.9 3.6 58.6 3.6 C 59.5 3.6 60.3 4 60.9 4.6 C 61.5 5.2 61.8 6 61.8 7 C 61.8 7.9 61.5 8.7 61 9.4 C 60.3 10.2 59.4 10.7 58.3 10.7 C 57.3 10.7 56.6 10.4 56 9.9 C 55.4 9.3 55.1 8.7 55 7.8 Z M 64 9.6 C 63.4 8.7 63 7.3 63 5.4 C 63 4.2 63.1 3.2 63.4 2.5 C 63.6 1.7 64 1.1 64.5 0.7 C 65 0.3 65.6 0.1 66.4 0.1 C 66.9 0.1 67.4 0.2 67.8 0.5 C 68.3 0.7 68.6 1 68.9 1.4 C 69.1 1.9 69.4 2.4 69.5 3 C 69.7 3.6 69.7 4.4 69.7 5.4 C 69.7 6.6 69.6 7.6 69.4 8.3 C 69.1 9.1 68.8 9.6 68.3 10.1 C 67.8 10.5 67.1 10.7 66.4 10.7 C 65.4 10.7 64.6 10.3 64 9.6 C 64 9.6 64 9.6 64 9.6 Z M 65 1.9 C 64.5 2.5 64.3 3.7 64.3 5.4 C 64.3 7.1 64.5 8.2 64.9 8.8 C 65.3 9.3 65.8 9.6 66.4 9.6 C 67 9.6 67.5 9.3 67.8 8.8 C 68.2 8.2 68.4 7.1 68.4 5.4 C 68.4 3.7 68.2 2.6 67.8 2 C 67.5 1.5 67 1.2 66.4 1.2 C 65.8 1.2 65.3 1.4 65 1.9 C 65 1.9 65 1.9 65 1.9 Z M 71.1 2.7 C 71.1 1.9 71.3 1.3 71.6 0.8 C 72 0.3 72.5 0 73.2 0 C 73.9 0 74.4 0.2 74.8 0.7 C 75.3 1.2 75.5 1.8 75.5 2.7 C 75.5 3.6 75.3 4.3 74.8 4.7 C 74.4 5.2 73.9 5.4 73.3 5.4 C 72.6 5.4 72.1 5.2 71.7 4.8 C 71.3 4.3 71.1 3.6 71.1 2.7 Z M 73.3 0.9 C 73 0.9 72.7 1 72.5 1.3 C 72.3 1.6 72.2 2.1 72.2 2.8 C 72.2 3.4 72.3 3.9 72.5 4.2 C 72.7 4.4 73 4.6 73.3 4.6 C 73.6 4.6 73.9 4.4 74.1 4.2 C 74.3 3.9 74.4 3.4 74.4 2.7 C 74.4 2 74.3 1.5 74.1 1.3 C 73.9 1 73.6 0.9 73.3 0.9 Z M 73.3 10.9 L 78.9 0 L 80 0 L 74.3 10.9 L 73.3 10.9 Z M 77.7 8.1 C 77.7 7.3 77.9 6.7 78.3 6.2 C 78.7 5.7 79.2 5.4 79.9 5.4 C 80.6 5.4 81.1 5.6 81.5 6.1 C 81.9 6.6 82.2 7.2 82.2 8.1 C 82.2 9 81.9 9.7 81.5 10.2 C 81.1 10.6 80.6 10.9 79.9 10.9 C 79.3 10.9 78.8 10.6 78.4 10.2 C 78 9.7 77.7 9 77.7 8.1 Z M 80 6.3 C 79.6 6.3 79.4 6.4 79.2 6.7 C 79 7 78.8 7.5 78.8 8.2 C 78.8 8.8 79 9.3 79.2 9.6 C 79.4 9.9 79.6 10 79.9 10 C 80.3 10 80.5 9.9 80.7 9.6 C 81 9.3 81.1 8.8 81.1 8.1 C 81.1 7.4 80.9 7 80.7 6.7 C 80.5 6.4 80.3 6.3 80 6.3 Z " stroke="none" fill="#ffffff"/>
  </g>
</svg>