<?xml version="1.0" standalone="no"?><!DOCTYPE svg PUBLIC "-//W3C//DTD SVG 1.1//EN" "http://www.w3.org/Graphics/SVG/1.1/DTD/svg11.dtd"><svg xmlns="http://www.w3.org/2000/svg" version="1.1" width="116.3px" height="31.4px" viewBox="0 -3 116.3 31.4" style="top:-3px"><desc>SHREDDED Paper Since 2017 IS EQUIVALENT TO</desc><defs/><g id="Polygon70086"><path d="m.3 13.5c0 0 .6 0 .6 0c.1.2.1.4.2.6c.1.1.3.3.5.4c.3.1.5.1.8.1c.2 0 .5 0 .7-.1c.1-.1.3-.2.4-.3c.1-.1.1-.3.1-.4c0-.2 0-.3-.1-.4c-.1-.2-.3-.3-.5-.3c-.1-.1-.4-.2-.8-.3c-.5-.1-.8-.2-1-.3c-.2-.1-.4-.3-.5-.5c-.1-.1-.2-.3-.2-.6c0-.2.1-.4.2-.7c.2-.2.4-.3.6-.5c.3-.1.6-.1.9-.1c.4 0 .7 0 1 .1c.3.2.5.3.7.6c.1.2.2.5.2.7c0 0-.6.1-.6.1c-.1-.3-.2-.6-.4-.7c-.2-.2-.5-.3-.8-.3c-.4 0-.7.1-.9.3c-.2.1-.3.3-.3.5c0 .2.1.3.2.4c.1.1.5.3 1 .4c.5.1.9.2 1.1.3c.3.1.5.3.6.5c.2.2.2.4.2.7c0 .3 0 .5-.2.7c-.1.3-.3.5-.6.6c-.3.1-.6.2-1 .2c-.4 0-.8-.1-1.1-.2c-.3-.1-.5-.3-.7-.6c-.2-.3-.3-.6-.3-.9zm5 1.6l0-4.9l.6 0l0 4.9l-.6 0zm1.8 0l0-4.9l.6 0l2.6 3.8l0-3.8l.7 0l0 4.9l-.7 0l-2.6-3.9l0 3.9l-.6 0zm8.5-1.7c0 0 .6.1.6.1c-.1.6-.3 1-.7 1.3c-.4.2-.8.4-1.3.4c-.5 0-1-.1-1.3-.3c-.3-.3-.6-.6-.8-1c-.1-.4-.2-.8-.2-1.3c0-.5.1-1 .3-1.4c.2-.3.4-.6.8-.8c.4-.2.8-.3 1.2-.3c.5 0 .9.1 1.3.3c.3.3.5.7.7 1.1c0 0-.7.2-.7.2c-.1-.4-.3-.7-.5-.8c-.2-.2-.5-.3-.8-.3c-.4 0-.7.1-1 .3c-.2.2-.4.4-.5.7c-.1.3-.2.7-.2 1c0 .4.1.8.2 1.1c.1.3.3.5.6.7c.3.1.5.2.8.2c.4 0 .7-.1 1-.3c.2-.2.4-.5.5-.9zm1.5 1.7l0-4.9l3.5 0l0 .5l-2.9 0l0 1.6l2.8 0l0 .5l-2.8 0l0 1.7l3.1 0l0 .6l-3.7 0zm9.4-.6l0 .6c0 0-3.25 0-3.2 0c-.1-.1 0-.3 0-.4c.1-.2.2-.5.4-.7c.2-.2.5-.4.8-.7c.6-.5.9-.8 1.1-1.1c.2-.2.3-.5.3-.7c0-.2-.1-.4-.3-.6c-.1-.2-.4-.3-.6-.3c-.3 0-.6.1-.7.3c-.2.2-.3.4-.3.7c0 0-.6 0-.6 0c0-.5.2-.9.5-1.1c.2-.2.6-.4 1.1-.4c.4 0 .8.2 1.1.4c.3.3.4.6.4 1c0 .2 0 .4-.1.6c-.1.2-.2.4-.4.6c-.2.2-.5.5-.9.9c-.4.3-.6.5-.7.6c-.2.1-.2.2-.3.3c0 .02 2.4 0 2.4 0zm1.2.2c-.4-.4-.5-1.1-.5-2c0-.6 0-1.1.2-1.5c.1-.3.3-.6.5-.8c.2-.2.5-.3.9-.3c.3 0 .5.1.7.2c.2.1.4.3.5.5c.1.2.2.4.3.7c.1.3.1.7.1 1.2c0 .5-.1 1-.2 1.4c-.1.3-.3.6-.5.8c-.3.2-.6.3-.9.3c-.5 0-.9-.2-1.1-.5c0 0 0 0 0 0zm.4-3.7c-.2.3-.3.8-.3 1.7c0 .8.1 1.3.3 1.6c.2.3.4.4.7.4c.3 0 .5-.1.7-.4c.2-.3.3-.8.3-1.6c0-.9-.1-1.4-.3-1.7c-.2-.2-.4-.4-.7-.4c-.3 0-.5.2-.7.4c0 0 0 0 0 0zm5.2 4.1l-.6 0c0 0 0-3.87 0-3.9c-.1.2-.3.3-.6.4c-.2.2-.4.3-.6.4c0 0 0-.6 0-.6c.3-.2.6-.4.9-.6c.2-.2.4-.5.5-.7c.02.03.4 0 .4 0l0 5zm1.6-4.3l0-.6l3.2 0c0 0 .01.49 0 .5c-.3.3-.6.8-.9 1.3c-.3.6-.6 1.2-.7 1.7c-.2.5-.2.9-.3 1.4c0 0-.6 0-.6 0c0-.4.1-.9.2-1.4c.2-.6.4-1.1.7-1.6c.2-.5.5-.9.8-1.3c.03 0-2.4 0-2.4 0zm6.1 4.3l0-4.9l.6 0l0 4.9l-.6 0zm1.6-1.6c0 0 .6 0 .6 0c0 .2.1.4.2.6c.1.1.3.3.5.4c.2.1.5.1.7.1c.3 0 .5 0 .7-.1c.2-.1.3-.2.4-.3c.1-.1.2-.3.2-.4c0-.2-.1-.3-.2-.4c0-.2-.2-.3-.4-.3c-.1-.1-.4-.2-.9-.3c-.4-.1-.8-.2-.9-.3c-.3-.1-.5-.3-.6-.5c-.1-.1-.1-.3-.1-.6c0-.2 0-.4.2-.7c.1-.2.3-.3.6-.5c.3-.1.6-.1.9-.1c.4 0 .7 0 1 .1c.3.2.5.3.6.6c.2.2.2.5.3.7c0 0-.7.1-.7.1c0-.3-.1-.6-.3-.7c-.2-.2-.5-.3-.9-.3c-.4 0-.7.1-.8.3c-.2.1-.3.3-.3.5c0 .2.1.3.2.4c.1.1.4.3 1 .4c.5.1.9.2 1.1.3c.3.1.5.3.6.5c.1.2.2.4.2.7c0 .3-.1.5-.2.7c-.2.3-.4.5-.7.6c-.2.1-.6.2-.9.2c-.5 0-.8-.1-1.1-.2c-.3-.1-.6-.3-.8-.6c-.1-.3-.2-.6-.2-.9zm6.7 1.6l0-4.9l3.6 0l0 .5l-2.9 0l0 1.6l2.7 0l0 .5l-2.7 0l0 1.7l3 0l0 .6l-3.7 0zm8.4-.5c.3.2.6.3.8.4c0 0-.2.5-.2.5c-.3-.1-.7-.3-1-.6c-.4.2-.8.3-1.2.3c-.5 0-.9-.1-1.3-.3c-.3-.3-.6-.6-.8-.9c-.2-.4-.3-.9-.3-1.4c0-.5.1-.9.3-1.3c.2-.4.5-.7.8-.9c.4-.2.8-.3 1.3-.3c.4 0 .8.1 1.2.3c.4.2.6.5.8.9c.2.4.3.8.3 1.3c0 .4 0 .8-.2 1.1c-.1.3-.3.6-.5.9zm-1.5-.9c.4.1.7.3 1 .5c.4-.3.6-.9.6-1.6c0-.4-.1-.7-.2-1c-.2-.3-.4-.6-.6-.7c-.3-.2-.6-.3-.9-.3c-.5 0-.9.2-1.2.5c-.4.4-.5.9-.5 1.5c0 .7.1 1.2.5 1.5c.3.4.7.5 1.2.5c.2 0 .4 0 .6-.1c-.2-.1-.4-.2-.6-.3c0 0 .1-.5.1-.5zm6.4-3.5l.6 0c0 0 .01 2.81 0 2.8c0 .5 0 .9-.2 1.2c-.1.3-.3.5-.6.7c-.3.2-.6.3-1.1.3c-.5 0-.9-.1-1.2-.3c-.3-.1-.5-.3-.6-.6c-.1-.3-.2-.8-.2-1.3c.02.01 0-2.8 0-2.8l.7 0c0 0-.02 2.81 0 2.8c0 .4 0 .8.1 1c.1.2.2.3.4.4c.2.1.4.2.7.2c.5 0 .8-.1 1-.3c.3-.2.4-.7.4-1.3c-.04.01 0-2.8 0-2.8zm1.8 4.9l0-4.9l.7 0l0 4.9l-.7 0zm3.2 0l-1.9-4.9l.7 0c0 0 1.31 3.55 1.3 3.5c.1.3.2.6.3.9c.1-.3.1-.6.2-.9c.04.05 1.4-3.5 1.4-3.5l.6 0l-1.9 4.9l-.7 0zm2.2 0l1.9-4.9l.7 0l2 4.9l-.7 0l-.6-1.5l-2.1 0l-.5 1.5l-.7 0zm1.4-2l1.7 0c0 0-.54-1.4-.5-1.4c-.2-.4-.3-.8-.4-1c0 .3-.1.6-.3.9c.05.02-.5 1.5-.5 1.5zm3.7 2l0-4.9l.7 0l0 4.3l2.4 0l0 .6l-3.1 0zm3.9 0l0-4.9l3.6 0l0 .5l-3 0l0 1.6l2.8 0l0 .5l-2.8 0l0 1.7l3.1 0l0 .6l-3.7 0zm4.6 0l0-4.9l.6 0l2.6 3.8l0-3.8l.7 0l0 4.9l-.7 0l-2.6-3.9l0 3.9l-.6 0zm6.2 0l0-4.4l-1.6 0l0-.5l3.9 0l0 .5l-1.6 0l0 4.4l-.7 0zm5.9 0l0-4.4l-1.6 0l0-.5l3.9 0l0 .5l-1.6 0l0 4.4l-.7 0zm2.7-2.4c0-.8.2-1.5.6-1.9c.5-.5 1-.7 1.7-.7c.5 0 .9.1 1.3.3c.3.2.6.5.8.9c.2.4.3.8.3 1.3c0 .5-.1 1-.3 1.4c-.2.4-.5.7-.9.9c-.3.2-.7.3-1.2.3c-.4 0-.9-.1-1.2-.4c-.4-.2-.7-.5-.9-.9c-.1-.4-.2-.8-.2-1.2zm.6 0c0 .6.2 1.1.5 1.4c.3.4.7.5 1.2.5c.5 0 .9-.1 1.2-.5c.4-.3.5-.8.5-1.5c0-.4 0-.7-.2-1c-.1-.3-.3-.6-.6-.7c-.2-.2-.5-.3-.9-.3c-.4 0-.8.2-1.2.5c-.3.3-.5.9-.5 1.6z" stroke="none" fill="#ffffff"/></g><g id="Polygon70085"><path d="m.4 4.7c0 0 .9-.1.9-.1c0 .3.1.6.2.8c.2.2.4.4.7.5c.3.2.7.2 1 .2c.4 0 .7 0 .9-.1c.3-.1.5-.3.6-.4c.1-.2.2-.4.2-.6c0-.2-.1-.4-.2-.6c-.1-.1-.3-.2-.6-.4c-.2 0-.6-.1-1.2-.3c-.6-.1-1-.3-1.3-.4c-.3-.2-.5-.4-.7-.6c-.1-.3-.2-.5-.2-.9c0-.3.1-.6.3-.9c.2-.3.4-.5.8-.7c.4-.1.8-.2 1.2-.2c.5 0 1 .1 1.3.2c.4.2.7.4.9.7c.2.4.3.7.3 1.1c0 0-.8.1-.8.1c0-.5-.2-.8-.5-1c-.2-.2-.6-.3-1.1-.3c-.6 0-1 .1-1.2.3c-.2.2-.4.4-.4.7c0 .2.1.4.3.6c.2.1.6.3 1.3.5c.7.1 1.2.3 1.5.4c.4.2.7.4.9.7c.2.2.2.6.2.9c0 .4-.1.7-.3 1c-.2.3-.5.6-.8.8c-.4.1-.8.2-1.3.2c-.6 0-1.1-.1-1.5-.2c-.5-.2-.8-.5-1-.8c-.2-.4-.4-.8-.4-1.2zm6.6 2.1l0-6.7l.9 0l0 2.8l3.5 0l0-2.8l.8 0l0 6.7l-.8 0l0-3.1l-3.5 0l0 3.1l-.9 0zm6.7 0l0-6.7c0 0 2.99.01 3 0c.6 0 1 .1 1.4.2c.3.1.5.3.7.6c.2.3.3.7.3 1c0 .5-.2.9-.5 1.2c-.3.4-.8.6-1.4.7c.2.1.4.2.5.3c.3.2.5.5.8.9c-.04-.01 1.1 1.8 1.1 1.8l-1.1 0c0 0-.88-1.38-.9-1.4c-.2-.4-.4-.7-.6-.9c-.2-.2-.3-.4-.5-.5c-.1 0-.2-.1-.4-.1c-.1-.1-.2-.1-.5-.1c.04.04-1 0-1 0l0 3l-.9 0zm.9-3.7c0 0 1.92-.03 1.9 0c.4 0 .7-.1 1-.2c.2 0 .4-.2.5-.4c.1-.1.2-.3.2-.6c0-.3-.2-.5-.4-.7c-.2-.2-.6-.3-1.1-.3c.03-.05-2.1 0-2.1 0l0 2.2zm5.9 3.7l0-6.7l4.8 0l0 .8l-3.9 0l0 2.1l3.7 0l0 .7l-3.7 0l0 2.3l4.1 0l0 .8l-5 0zm6.2 0l0-6.7c0 0 2.31.01 2.3 0c.5 0 .9 0 1.2.1c.4.1.7.3 1 .5c.3.3.6.7.8 1.1c.1.5.2 1 .2 1.6c0 .5 0 1-.1 1.4c-.2.4-.3.7-.5 1c-.2.2-.4.4-.6.6c-.2.1-.5.2-.8.3c-.3.1-.7.1-1.1.1c.02.01-2.4 0-2.4 0zm.9-.8c0 0 1.42.02 1.4 0c.5 0 .8 0 1.1-.1c.2-.1.4-.2.6-.4c.2-.2.3-.4.4-.8c.2-.4.2-.8.2-1.3c0-.7-.1-1.2-.3-1.6c-.3-.4-.5-.6-.9-.8c-.2-.1-.6-.1-1.1-.1c-.01 0-1.4 0-1.4 0l0 5.1zm5.9.8l0-6.7c0 0 2.26.01 2.3 0c.5 0 .9 0 1.2.1c.3.1.7.3.9.5c.4.3.7.7.8 1.1c.2.5.3 1 .3 1.6c0 .5-.1 1-.2 1.4c-.1.4-.3.7-.4 1c-.2.2-.4.4-.7.6c-.2.1-.4.2-.8.3c-.3.1-.6.1-1 .1c-.03.01-2.4 0-2.4 0zm.8-.8c0 0 1.47.02 1.5 0c.4 0 .8 0 1-.1c.3-.1.5-.2.6-.4c.2-.2.4-.4.5-.8c.1-.4.2-.8.2-1.3c0-.7-.1-1.2-.4-1.6c-.2-.4-.5-.6-.8-.8c-.2-.1-.6-.1-1.2-.1c.05 0-1.4 0-1.4 0l0 5.1zm5.9.8l0-6.7l4.9 0l0 .8l-4 0l0 2.1l3.7 0l0 .7l-3.7 0l0 2.3l4.1 0l0 .8l-5 0zm6.2 0l0-6.7c0 0 2.35.01 2.4 0c.5 0 .9 0 1.1.1c.4.1.8.3 1 .5c.4.3.6.7.8 1.1c.2.5.3 1 .3 1.6c0 .5-.1 1-.2 1.4c-.1.4-.3.7-.5 1c-.1.2-.3.4-.6.6c-.2.1-.5.2-.8.3c-.3.1-.6.1-1 .1c-.04.01-2.5 0-2.5 0zm.9-.8c0 0 1.46.02 1.5 0c.4 0 .7 0 1-.1c.3-.1.5-.2.6-.4c.2-.2.4-.4.5-.8c.1-.4.2-.8.2-1.3c0-.7-.1-1.2-.4-1.6c-.2-.4-.5-.6-.8-.8c-.3-.1-.6-.1-1.2-.1c.04 0-1.4 0-1.4 0l0 5.1zm8.5.8l0-6.7c0 0 2.52.01 2.5 0c.5 0 .8 0 1 .1c.4 0 .6.1.9.3c.2.1.4.4.5.6c.1.3.2.6.2 1c0 .5-.2 1-.5 1.4c-.4.4-1.1.6-2 .6c0-.01-1.7 0-1.7 0l0 2.7l-.9 0zm.9-3.5c0 0 1.71 0 1.7 0c.6 0 1-.1 1.2-.3c.3-.2.4-.5.4-.9c0-.3-.1-.5-.2-.7c-.2-.2-.3-.4-.6-.4c-.1-.1-.4-.1-.8-.1c-.01 0-1.7 0-1.7 0l0 2.4zm3.9 3.5l2.6-6.7l.9 0l2.8 6.7l-1 0l-.8-2l-2.8 0l-.8 2l-.9 0zm1.9-2.7l2.3 0c0 0-.69-1.89-.7-1.9c-.2-.6-.4-1-.5-1.4c-.1.4-.2.9-.3 1.3c-.03 0-.8 2-.8 2zm5.1 2.7l0-6.7c0 0 2.5.01 2.5 0c.4 0 .8 0 1 .1c.3 0 .6.1.8.3c.3.1.4.4.6.6c.1.3.2.6.2 1c0 .5-.2 1-.6 1.4c-.3.4-1 .6-1.9.6c-.02-.01-1.7 0-1.7 0l0 2.7l-.9 0zm.9-3.5c0 0 1.69 0 1.7 0c.6 0 1-.1 1.2-.3c.3-.2.4-.5.4-.9c0-.3-.1-.5-.2-.7c-.2-.2-.4-.4-.6-.4c-.1-.1-.4-.1-.8-.1c-.02 0-1.7 0-1.7 0l0 2.4zm5.3 3.5l0-6.7l4.9 0l0 .8l-4 0l0 2.1l3.7 0l0 .7l-3.7 0l0 2.3l4.1 0l0 .8l-5 0zm6.3 0l0-6.7c0 0 2.93.01 2.9 0c.6 0 1.1.1 1.4.2c.3.1.6.3.7.6c.2.3.3.7.3 1c0 .5-.1.9-.4 1.2c-.4.4-.8.6-1.5.7c.3.1.4.2.6.3c.2.2.5.5.7.9c0-.01 1.2 1.8 1.2 1.8l-1.1 0c0 0-.94-1.38-.9-1.4c-.3-.4-.5-.7-.7-.9c-.1-.2-.3-.4-.4-.5c-.2 0-.3-.1-.4-.1c-.1-.1-.3-.1-.5-.1c-.02.04-1 0-1 0l0 3l-.9 0zm.9-3.7c0 0 1.86-.03 1.9 0c.4 0 .7-.1.9-.2c.2 0 .4-.2.5-.4c.1-.1.2-.3.2-.6c0-.3-.1-.5-.3-.7c-.3-.2-.6-.3-1.1-.3c-.03-.05-2.1 0-2.1 0l0 2.2z" stroke="none" fill="#ffffff"/></g></svg>