<?xml version="1.0" standalone="no"?>
<!DOCTYPE svg PUBLIC "-//W3C//DTD SVG 1.1//EN" "http://www.w3.org/Graphics/SVG/1.1/DTD/svg11.dtd">
<svg xmlns="http://www.w3.org/2000/svg" version="1.1" width="768px" height="250.2px" viewBox="0 -7 768 250.2" style="top:-7px">
  <desc>Handling all ESG due diligence for future assets being considered by a global private equity firm</desc>
  <defs/>
  <g id="Polygon59309">
    <path d="M 8.4 35.2 C 8.4 35.2 10.2 35.4 10.2 35.4 C 9.9 36.5 9.4 37.3 8.6 37.9 C 7.9 38.5 6.9 38.8 5.7 38.8 C 4.2 38.8 3 38.3 2.1 37.4 C 1.2 36.5 0.7 35.1 0.7 33.5 C 0.7 31.7 1.2 30.4 2.1 29.4 C 3 28.4 4.1 28 5.6 28 C 7 28 8.1 28.4 9 29.4 C 9.9 30.3 10.3 31.6 10.3 33.4 C 10.3 33.5 10.3 33.6 10.3 33.8 C 10.3 33.8 2.5 33.8 2.5 33.8 C 2.6 35 2.9 35.8 3.5 36.4 C 4.1 37 4.8 37.3 5.7 37.3 C 6.3 37.3 6.9 37.2 7.3 36.8 C 7.8 36.5 8.2 36 8.4 35.2 Z M 2.6 32.4 C 2.6 32.4 8.4 32.4 8.4 32.4 C 8.4 31.5 8.1 30.9 7.8 30.4 C 7.2 29.7 6.5 29.4 5.6 29.4 C 4.8 29.4 4.1 29.7 3.6 30.2 C 3 30.8 2.7 31.5 2.6 32.4 Z M 19.1 42.5 C 19.1 42.5 19.05 37.46 19.1 37.5 C 18.8 37.8 18.4 38.2 17.9 38.4 C 17.4 38.7 16.9 38.8 16.3 38.8 C 15.1 38.8 14 38.3 13.2 37.3 C 12.3 36.3 11.8 35 11.8 33.3 C 11.8 32.2 12 31.3 12.4 30.5 C 12.7 29.6 13.3 29 13.9 28.6 C 14.6 28.2 15.4 28 16.2 28 C 17.5 28 18.5 28.5 19.2 29.6 C 19.23 29.58 19.2 28.2 19.2 28.2 L 20.8 28.2 L 20.8 42.5 L 19.1 42.5 Z M 13.6 33.3 C 13.6 34.7 13.9 35.7 14.5 36.3 C 15 37 15.7 37.3 16.5 37.3 C 17.2 37.3 17.9 37 18.4 36.4 C 19 35.8 19.2 34.8 19.2 33.5 C 19.2 32.1 18.9 31.1 18.4 30.4 C 17.8 29.7 17.1 29.3 16.4 29.3 C 15.6 29.3 15 29.7 14.4 30.3 C 13.9 31 13.6 32 13.6 33.3 Z M 30.4 38.6 C 30.4 38.6 30.36 37.04 30.4 37 C 29.6 38.2 28.5 38.8 27.1 38.8 C 26.5 38.8 25.9 38.7 25.4 38.4 C 24.8 38.2 24.4 37.9 24.2 37.6 C 23.9 37.2 23.7 36.8 23.6 36.3 C 23.6 35.9 23.5 35.4 23.5 34.6 C 23.53 34.62 23.5 28.2 23.5 28.2 L 25.3 28.2 C 25.3 28.2 25.28 33.94 25.3 33.9 C 25.3 34.9 25.3 35.5 25.4 35.8 C 25.5 36.3 25.7 36.6 26.1 36.9 C 26.5 37.1 26.9 37.3 27.4 37.3 C 27.9 37.3 28.4 37.1 28.9 36.9 C 29.4 36.6 29.7 36.2 29.9 35.8 C 30.1 35.3 30.2 34.6 30.2 33.7 C 30.18 33.75 30.2 28.2 30.2 28.2 L 31.9 28.2 L 31.9 38.6 L 30.4 38.6 Z M 34.7 26.3 L 34.7 24.2 L 36.5 24.2 L 36.5 26.3 L 34.7 26.3 Z M 34.7 38.6 L 34.7 28.2 L 36.5 28.2 L 36.5 38.6 L 34.7 38.6 Z M 42.2 37.1 C 42.4 37.1 42.6 37 43 37 C 43 37 43.2 38.5 43.2 38.5 C 42.7 38.6 42.3 38.7 41.9 38.7 C 41.3 38.7 40.8 38.6 40.4 38.4 C 40.1 38.2 39.8 37.9 39.7 37.6 C 39.5 37.3 39.5 36.6 39.5 35.5 C 39.45 35.52 39.5 29.6 39.5 29.6 L 38.2 29.6 L 38.2 28.2 L 39.5 28.2 L 39.5 25.6 L 41.2 24.6 L 41.2 28.2 L 43 28.2 L 43 29.6 L 41.2 29.6 C 41.2 29.6 41.2 35.62 41.2 35.6 C 41.2 36.1 41.2 36.4 41.3 36.6 C 41.4 36.7 41.5 36.8 41.6 36.9 C 41.7 37 41.9 37.1 42.2 37.1 C 42.2 37.1 42.2 37.1 42.2 37.1 Z M 45.7 42.8 C 45.4 42.8 45 42.7 44.6 42.6 C 44.6 42.6 44.4 40.9 44.4 40.9 C 44.8 41 45.1 41.1 45.4 41.1 C 45.8 41.1 46.1 41 46.4 40.9 C 46.6 40.7 46.8 40.6 46.9 40.3 C 47 40.1 47.2 39.7 47.5 39 C 47.5 38.9 47.6 38.8 47.6 38.6 C 47.63 38.58 43.7 28.2 43.7 28.2 L 45.6 28.2 C 45.6 28.2 47.74 34.2 47.7 34.2 C 48 35 48.3 35.8 48.5 36.6 C 48.7 35.8 48.9 35 49.2 34.2 C 49.22 34.23 51.4 28.2 51.4 28.2 L 53.2 28.2 C 53.2 28.2 49.25 38.74 49.2 38.7 C 48.8 39.9 48.5 40.7 48.3 41.1 C 47.9 41.7 47.6 42.1 47.2 42.4 C 46.8 42.6 46.3 42.8 45.7 42.8 C 45.7 42.8 45.7 42.8 45.7 42.8 Z M 60.7 38.6 L 60.7 29.5 L 59.2 29.5 L 59.2 28.2 L 60.7 28.2 C 60.7 28.2 60.71 27.18 60.7 27.2 C 60.7 26.2 60.9 25.4 61.4 24.8 C 61.8 24.3 62.5 24 63.5 24 C 64.1 24 64.7 24.1 65.3 24.2 C 65.3 24.2 65 25.7 65 25.7 C 64.6 25.7 64.3 25.6 64 25.6 C 63.4 25.6 63 25.7 62.8 26 C 62.6 26.2 62.5 26.7 62.5 27.5 C 62.47 27.52 62.5 28.2 62.5 28.2 L 64.5 28.2 L 64.5 29.5 L 62.5 29.5 L 62.5 38.6 L 60.7 38.6 Z M 65.8 26.3 L 65.8 24.2 L 67.6 24.2 L 67.6 26.3 L 65.8 26.3 Z M 65.8 38.6 L 65.8 28.2 L 67.6 28.2 L 67.6 38.6 L 65.8 38.6 Z M 70.2 38.6 L 70.2 28.2 L 71.8 28.2 C 71.8 28.2 71.81 29.76 71.8 29.8 C 72.2 29 72.6 28.5 72.9 28.3 C 73.3 28.1 73.6 28 74.1 28 C 74.6 28 75.2 28.1 75.9 28.5 C 75.9 28.5 75.3 30.2 75.3 30.2 C 74.8 29.9 74.4 29.8 74 29.8 C 73.6 29.8 73.2 29.9 72.9 30.1 C 72.6 30.3 72.4 30.7 72.3 31.1 C 72.1 31.7 72 32.4 72 33.1 C 71.98 33.13 72 38.6 72 38.6 L 70.2 38.6 Z M 76.9 38.6 L 76.9 28.2 L 78.5 28.2 C 78.5 28.2 78.48 29.64 78.5 29.6 C 78.8 29.1 79.2 28.7 79.8 28.4 C 80.3 28.1 80.9 28 81.6 28 C 82.4 28 83 28.1 83.5 28.4 C 84 28.8 84.3 29.2 84.6 29.8 C 85.4 28.6 86.4 28 87.8 28 C 88.8 28 89.6 28.2 90.1 28.8 C 90.7 29.4 91 30.3 91 31.4 C 90.96 31.44 91 38.6 91 38.6 L 89.2 38.6 C 89.2 38.6 89.21 32.03 89.2 32 C 89.2 31.3 89.2 30.8 89 30.5 C 88.9 30.2 88.7 30 88.4 29.8 C 88.1 29.6 87.8 29.5 87.4 29.5 C 86.6 29.5 86 29.7 85.5 30.2 C 85.1 30.7 84.8 31.5 84.8 32.5 C 84.82 32.54 84.8 38.6 84.8 38.6 L 83.1 38.6 C 83.1 38.6 83.07 31.82 83.1 31.8 C 83.1 31 82.9 30.5 82.6 30.1 C 82.4 29.7 81.9 29.5 81.2 29.5 C 80.7 29.5 80.3 29.6 79.9 29.9 C 79.4 30.1 79.1 30.5 78.9 31 C 78.8 31.5 78.7 32.2 78.7 33.2 C 78.66 33.18 78.7 38.6 78.7 38.6 L 76.9 38.6 Z M 94.1 38.6 L 94.1 36.6 L 96.1 36.6 L 96.1 38.6 L 94.1 38.6 Z " stroke="none" fill="#54626c"/>
  </g>
  <g id="Polygon59308">
    <path d="M 1.6 14.6 L 1.6 0.2 L 3.5 0.2 L 3.5 6.1 L 10.9 6.1 L 10.9 0.2 L 12.8 0.2 L 12.8 14.6 L 10.9 14.6 L 10.9 7.8 L 3.5 7.8 L 3.5 14.6 L 1.6 14.6 Z M 22.9 14.6 C 22.7 14.2 22.6 13.8 22.5 13.3 C 21.9 13.8 21.3 14.2 20.6 14.5 C 20 14.7 19.4 14.8 18.7 14.8 C 17.6 14.8 16.7 14.5 16.1 14 C 15.5 13.4 15.2 12.7 15.2 11.8 C 15.2 11.3 15.3 10.9 15.5 10.4 C 15.7 10 16 9.7 16.4 9.4 C 16.8 9.2 17.2 9 17.7 8.8 C 18 8.8 18.6 8.7 19.2 8.6 C 20.7 8.4 21.7 8.2 22.4 8 C 22.4 7.7 22.4 7.6 22.4 7.5 C 22.4 6.8 22.2 6.3 21.9 6 C 21.4 5.6 20.8 5.4 19.9 5.4 C 19.1 5.4 18.5 5.6 18.1 5.8 C 17.7 6.1 17.4 6.6 17.2 7.4 C 17.2 7.4 15.5 7.1 15.5 7.1 C 15.6 6.4 15.9 5.8 16.2 5.4 C 16.6 4.9 17.1 4.6 17.8 4.3 C 18.5 4.1 19.3 4 20.1 4 C 21 4 21.8 4.1 22.3 4.3 C 22.9 4.5 23.3 4.7 23.5 5.1 C 23.8 5.4 24 5.8 24.1 6.3 C 24.1 6.5 24.2 7.1 24.2 7.9 C 24.2 7.9 24.2 10.2 24.2 10.2 C 24.2 11.8 24.2 12.9 24.3 13.3 C 24.3 13.7 24.5 14.2 24.7 14.6 C 24.72 14.56 22.9 14.6 22.9 14.6 C 22.9 14.6 22.88 14.56 22.9 14.6 Z M 22.4 9.4 C 21.7 9.6 20.8 9.8 19.5 10 C 18.8 10.1 18.3 10.2 18 10.4 C 17.7 10.5 17.4 10.7 17.3 10.9 C 17.1 11.2 17 11.5 17 11.8 C 17 12.2 17.2 12.6 17.6 12.9 C 17.9 13.3 18.4 13.4 19.1 13.4 C 19.8 13.4 20.4 13.3 20.9 13 C 21.5 12.7 21.9 12.3 22.1 11.8 C 22.3 11.4 22.4 10.8 22.4 10 C 22.4 10 22.4 9.4 22.4 9.4 Z M 26.9 14.6 L 26.9 4.2 L 28.5 4.2 C 28.5 4.2 28.47 5.66 28.5 5.7 C 29.2 4.5 30.3 4 31.8 4 C 32.4 4 33 4.1 33.5 4.3 C 34 4.5 34.4 4.8 34.7 5.2 C 34.9 5.5 35.1 6 35.2 6.5 C 35.3 6.8 35.3 7.4 35.3 8.2 C 35.31 8.18 35.3 14.6 35.3 14.6 L 33.6 14.6 C 33.6 14.6 33.55 8.25 33.6 8.3 C 33.6 7.5 33.5 7 33.3 6.6 C 33.2 6.3 33 6 32.6 5.8 C 32.3 5.6 31.9 5.5 31.4 5.5 C 30.6 5.5 30 5.7 29.5 6.2 C 28.9 6.7 28.6 7.6 28.6 8.9 C 28.64 8.9 28.6 14.6 28.6 14.6 L 26.9 14.6 Z M 44.7 14.6 C 44.7 14.6 44.74 13.25 44.7 13.3 C 44.1 14.3 43.1 14.8 41.8 14.8 C 41 14.8 40.2 14.6 39.6 14.1 C 38.9 13.7 38.3 13 37.9 12.2 C 37.6 11.4 37.4 10.4 37.4 9.4 C 37.4 8.3 37.5 7.4 37.9 6.6 C 38.2 5.7 38.8 5.1 39.4 4.6 C 40.1 4.2 40.9 4 41.8 4 C 42.4 4 42.9 4.1 43.4 4.4 C 43.9 4.6 44.3 5 44.6 5.4 C 44.62 5.38 44.6 0.2 44.6 0.2 L 46.4 0.2 L 46.4 14.6 L 44.7 14.6 Z M 39.2 9.4 C 39.2 10.7 39.5 11.7 40 12.4 C 40.6 13 41.2 13.3 42 13.3 C 42.8 13.3 43.4 13 44 12.4 C 44.5 11.8 44.8 10.8 44.8 9.5 C 44.8 8.1 44.5 7.1 43.9 6.4 C 43.4 5.7 42.7 5.4 41.9 5.4 C 41.1 5.4 40.5 5.7 40 6.4 C 39.4 7 39.2 8 39.2 9.4 Z M 49.1 14.6 L 49.1 0.2 L 50.8 0.2 L 50.8 14.6 L 49.1 14.6 Z M 53.6 2.3 L 53.6 0.2 L 55.3 0.2 L 55.3 2.3 L 53.6 2.3 Z M 53.6 14.6 L 53.6 4.2 L 55.3 4.2 L 55.3 14.6 L 53.6 14.6 Z M 58 14.6 L 58 4.2 L 59.6 4.2 C 59.6 4.2 59.6 5.66 59.6 5.7 C 60.4 4.5 61.5 4 62.9 4 C 63.5 4 64.1 4.1 64.6 4.3 C 65.1 4.5 65.5 4.8 65.8 5.2 C 66.1 5.5 66.2 6 66.3 6.5 C 66.4 6.8 66.4 7.4 66.4 8.2 C 66.45 8.18 66.4 14.6 66.4 14.6 L 64.7 14.6 C 64.7 14.6 64.69 8.25 64.7 8.3 C 64.7 7.5 64.6 7 64.5 6.6 C 64.3 6.3 64.1 6 63.8 5.8 C 63.4 5.6 63 5.5 62.5 5.5 C 61.8 5.5 61.1 5.7 60.6 6.2 C 60 6.7 59.8 7.6 59.8 8.9 C 59.78 8.9 59.8 14.6 59.8 14.6 L 58 14.6 Z M 68.8 15.4 C 68.8 15.4 70.5 15.7 70.5 15.7 C 70.6 16.2 70.8 16.6 71.1 16.8 C 71.6 17.2 72.2 17.3 72.9 17.3 C 73.7 17.3 74.4 17.2 74.8 16.8 C 75.2 16.5 75.5 16 75.7 15.5 C 75.8 15.1 75.8 14.3 75.8 13.2 C 75.1 14.1 74.1 14.6 72.9 14.6 C 71.5 14.6 70.4 14 69.6 13 C 68.9 12 68.5 10.8 68.5 9.3 C 68.5 8.3 68.6 7.4 69 6.6 C 69.4 5.7 69.9 5.1 70.6 4.6 C 71.2 4.2 72 4 73 4 C 74.2 4 75.2 4.4 76 5.4 C 75.99 5.44 76 4.2 76 4.2 L 77.6 4.2 C 77.6 4.2 77.61 13.15 77.6 13.2 C 77.6 14.8 77.4 15.9 77.1 16.6 C 76.8 17.3 76.3 17.8 75.6 18.2 C 74.8 18.6 74 18.8 72.9 18.8 C 71.7 18.8 70.7 18.5 69.9 17.9 C 69.2 17.4 68.8 16.5 68.8 15.4 Z M 70.3 9.2 C 70.3 10.6 70.5 11.5 71.1 12.2 C 71.6 12.8 72.3 13.1 73.1 13.1 C 73.9 13.1 74.6 12.8 75.1 12.2 C 75.7 11.6 76 10.6 76 9.2 C 76 8 75.7 7 75.1 6.4 C 74.6 5.7 73.9 5.4 73.1 5.4 C 72.3 5.4 71.6 5.7 71.1 6.4 C 70.5 7 70.3 7.9 70.3 9.2 Z M 92.9 14.6 C 92.8 14.2 92.6 13.8 92.6 13.3 C 91.9 13.8 91.3 14.2 90.7 14.5 C 90.1 14.7 89.5 14.8 88.8 14.8 C 87.6 14.8 86.8 14.5 86.1 14 C 85.5 13.4 85.2 12.7 85.2 11.8 C 85.2 11.3 85.3 10.9 85.6 10.4 C 85.8 10 86.1 9.7 86.5 9.4 C 86.9 9.2 87.3 9 87.7 8.8 C 88.1 8.8 88.6 8.7 89.3 8.6 C 90.7 8.4 91.8 8.2 92.4 8 C 92.4 7.7 92.5 7.6 92.5 7.5 C 92.5 6.8 92.3 6.3 92 6 C 91.5 5.6 90.8 5.4 90 5.4 C 89.1 5.4 88.5 5.6 88.1 5.8 C 87.7 6.1 87.4 6.6 87.2 7.4 C 87.2 7.4 85.5 7.1 85.5 7.1 C 85.7 6.4 85.9 5.8 86.3 5.4 C 86.7 4.9 87.2 4.6 87.9 4.3 C 88.5 4.1 89.3 4 90.2 4 C 91.1 4 91.8 4.1 92.4 4.3 C 92.9 4.5 93.3 4.7 93.6 5.1 C 93.8 5.4 94 5.8 94.1 6.3 C 94.2 6.5 94.2 7.1 94.2 7.9 C 94.2 7.9 94.2 10.2 94.2 10.2 C 94.2 11.8 94.3 12.9 94.3 13.3 C 94.4 13.7 94.6 14.2 94.8 14.6 C 94.78 14.56 92.9 14.6 92.9 14.6 C 92.9 14.6 92.94 14.56 92.9 14.6 Z M 92.4 9.4 C 91.8 9.6 90.8 9.8 89.6 10 C 88.8 10.1 88.3 10.2 88 10.4 C 87.7 10.5 87.5 10.7 87.3 10.9 C 87.2 11.2 87.1 11.5 87.1 11.8 C 87.1 12.2 87.3 12.6 87.6 12.9 C 88 13.3 88.5 13.4 89.2 13.4 C 89.9 13.4 90.5 13.3 91 13 C 91.5 12.7 91.9 12.3 92.2 11.8 C 92.3 11.4 92.4 10.8 92.4 10 C 92.4 10 92.4 9.4 92.4 9.4 Z M 96.9 14.6 L 96.9 0.2 L 98.7 0.2 L 98.7 14.6 L 96.9 14.6 Z M 101.3 14.6 L 101.3 0.2 L 103.1 0.2 L 103.1 14.6 L 101.3 14.6 Z M 111.7 14.6 L 111.7 0.2 L 122 0.2 L 122 1.9 L 113.5 1.9 L 113.5 6.3 L 121.5 6.3 L 121.5 8 L 113.5 8 L 113.5 12.9 L 122.3 12.9 L 122.3 14.6 L 111.7 14.6 Z M 124.3 10 C 124.3 10 126.1 9.8 126.1 9.8 C 126.2 10.5 126.4 11.1 126.7 11.6 C 127 12 127.5 12.4 128.1 12.7 C 128.8 13 129.5 13.1 130.3 13.1 C 131 13.1 131.7 13 132.2 12.8 C 132.8 12.6 133.2 12.3 133.5 11.9 C 133.7 11.5 133.9 11.1 133.9 10.7 C 133.9 10.2 133.7 9.8 133.5 9.5 C 133.2 9.2 132.8 8.9 132.2 8.7 C 131.8 8.5 131 8.3 129.6 8 C 128.3 7.6 127.4 7.3 126.9 7.1 C 126.2 6.7 125.7 6.3 125.4 5.7 C 125 5.2 124.9 4.6 124.9 3.9 C 124.9 3.2 125.1 2.5 125.5 1.9 C 125.9 1.3 126.5 0.8 127.3 0.5 C 128.1 0.2 128.9 0 129.9 0 C 131 0 131.9 0.2 132.7 0.5 C 133.5 0.9 134.1 1.4 134.6 2 C 135 2.7 135.2 3.4 135.3 4.3 C 135.3 4.3 133.5 4.4 133.5 4.4 C 133.4 3.5 133 2.8 132.5 2.4 C 131.9 1.9 131.1 1.7 130 1.7 C 128.8 1.7 128 1.9 127.5 2.3 C 126.9 2.7 126.7 3.2 126.7 3.8 C 126.7 4.3 126.9 4.8 127.2 5.1 C 127.6 5.4 128.6 5.8 130.1 6.1 C 131.6 6.5 132.7 6.8 133.3 7 C 134.1 7.4 134.7 7.9 135.1 8.5 C 135.5 9.1 135.7 9.7 135.7 10.5 C 135.7 11.3 135.5 12 135 12.7 C 134.6 13.3 134 13.9 133.2 14.2 C 132.4 14.6 131.4 14.8 130.4 14.8 C 129.1 14.8 128 14.6 127.2 14.2 C 126.3 13.9 125.6 13.3 125.1 12.5 C 124.6 11.8 124.3 10.9 124.3 10 Z M 145 8.9 L 145 7.3 L 151.1 7.3 C 151.1 7.3 151.05 12.57 151.1 12.6 C 150.1 13.3 149.2 13.9 148.2 14.2 C 147.2 14.6 146.2 14.8 145.1 14.8 C 143.7 14.8 142.4 14.5 141.3 13.9 C 140.1 13.3 139.3 12.4 138.7 11.3 C 138.1 10.1 137.8 8.9 137.8 7.5 C 137.8 6.1 138.1 4.8 138.7 3.6 C 139.3 2.4 140.1 1.5 141.2 0.9 C 142.3 0.3 143.6 0 145 0 C 146 0 147 0.2 147.8 0.5 C 148.6 0.8 149.3 1.3 149.8 1.9 C 150.2 2.5 150.6 3.3 150.8 4.2 C 150.8 4.2 149.1 4.7 149.1 4.7 C 148.9 4 148.6 3.4 148.3 3 C 148 2.6 147.6 2.2 147 2 C 146.4 1.7 145.7 1.6 145 1.6 C 144.1 1.6 143.4 1.8 142.7 2 C 142.1 2.3 141.6 2.6 141.2 3.1 C 140.8 3.5 140.5 4 140.3 4.5 C 139.9 5.4 139.8 6.3 139.8 7.4 C 139.8 8.6 140 9.7 140.4 10.6 C 140.9 11.4 141.5 12.1 142.3 12.5 C 143.2 12.9 144.1 13.1 145 13.1 C 145.8 13.1 146.6 12.9 147.4 12.6 C 148.2 12.3 148.8 12 149.2 11.6 C 149.2 11.61 149.2 8.9 149.2 8.9 L 145 8.9 Z M 165.9 14.6 C 165.9 14.6 165.91 13.25 165.9 13.3 C 165.3 14.3 164.3 14.8 163 14.8 C 162.2 14.8 161.4 14.6 160.7 14.1 C 160 13.7 159.5 13 159.1 12.2 C 158.7 11.4 158.5 10.4 158.5 9.4 C 158.5 8.3 158.7 7.4 159.1 6.6 C 159.4 5.7 159.9 5.1 160.6 4.6 C 161.3 4.2 162.1 4 162.9 4 C 163.6 4 164.1 4.1 164.6 4.4 C 165.1 4.6 165.5 5 165.8 5.4 C 165.79 5.38 165.8 0.2 165.8 0.2 L 167.5 0.2 L 167.5 14.6 L 165.9 14.6 Z M 160.4 9.4 C 160.4 10.7 160.6 11.7 161.2 12.4 C 161.8 13 162.4 13.3 163.2 13.3 C 163.9 13.3 164.6 13 165.1 12.4 C 165.7 11.8 165.9 10.8 165.9 9.5 C 165.9 8.1 165.7 7.1 165.1 6.4 C 164.6 5.7 163.9 5.4 163.1 5.4 C 162.3 5.4 161.7 5.7 161.1 6.4 C 160.6 7 160.4 8 160.4 9.4 Z M 177.1 14.6 C 177.1 14.6 177.1 13.04 177.1 13 C 176.3 14.2 175.2 14.8 173.8 14.8 C 173.2 14.8 172.6 14.7 172.1 14.4 C 171.6 14.2 171.2 13.9 170.9 13.6 C 170.7 13.2 170.5 12.8 170.4 12.3 C 170.3 11.9 170.3 11.4 170.3 10.6 C 170.26 10.62 170.3 4.2 170.3 4.2 L 172 4.2 C 172 4.2 172.02 9.94 172 9.9 C 172 10.9 172.1 11.5 172.1 11.8 C 172.2 12.3 172.5 12.6 172.8 12.9 C 173.2 13.1 173.6 13.3 174.2 13.3 C 174.7 13.3 175.2 13.1 175.6 12.9 C 176.1 12.6 176.4 12.2 176.6 11.8 C 176.8 11.3 176.9 10.6 176.9 9.7 C 176.91 9.75 176.9 4.2 176.9 4.2 L 178.7 4.2 L 178.7 14.6 L 177.1 14.6 Z M 188.5 11.2 C 188.5 11.2 190.3 11.4 190.3 11.4 C 190.1 12.5 189.5 13.3 188.8 13.9 C 188 14.5 187 14.8 185.8 14.8 C 184.3 14.8 183.1 14.3 182.2 13.4 C 181.3 12.5 180.8 11.1 180.8 9.5 C 180.8 7.7 181.3 6.4 182.2 5.4 C 183.1 4.4 184.3 4 185.7 4 C 187.1 4 188.2 4.4 189.1 5.4 C 190 6.3 190.4 7.6 190.4 9.4 C 190.4 9.5 190.4 9.6 190.4 9.8 C 190.4 9.8 182.7 9.8 182.7 9.8 C 182.7 11 183 11.8 183.6 12.4 C 184.2 13 184.9 13.3 185.8 13.3 C 186.4 13.3 187 13.2 187.4 12.8 C 187.9 12.5 188.3 12 188.5 11.2 Z M 182.8 8.4 C 182.8 8.4 188.5 8.4 188.5 8.4 C 188.5 7.5 188.2 6.9 187.9 6.4 C 187.3 5.7 186.6 5.4 185.7 5.4 C 184.9 5.4 184.2 5.7 183.7 6.2 C 183.1 6.8 182.8 7.5 182.8 8.4 Z M 204.8 14.6 C 204.8 14.6 204.83 13.25 204.8 13.3 C 204.2 14.3 203.2 14.8 201.9 14.8 C 201.1 14.8 200.3 14.6 199.7 14.1 C 199 13.7 198.4 13 198 12.2 C 197.7 11.4 197.5 10.4 197.5 9.4 C 197.5 8.3 197.6 7.4 198 6.6 C 198.3 5.7 198.9 5.1 199.5 4.6 C 200.2 4.2 201 4 201.9 4 C 202.5 4 203 4.1 203.5 4.4 C 204 4.6 204.4 5 204.7 5.4 C 204.72 5.38 204.7 0.2 204.7 0.2 L 206.5 0.2 L 206.5 14.6 L 204.8 14.6 Z M 199.3 9.4 C 199.3 10.7 199.6 11.7 200.1 12.4 C 200.7 13 201.3 13.3 202.1 13.3 C 202.9 13.3 203.5 13 204.1 12.4 C 204.6 11.8 204.9 10.8 204.9 9.5 C 204.9 8.1 204.6 7.1 204 6.4 C 203.5 5.7 202.8 5.4 202 5.4 C 201.2 5.4 200.6 5.7 200.1 6.4 C 199.5 7 199.3 8 199.3 9.4 Z M 209.2 2.3 L 209.2 0.2 L 211 0.2 L 211 2.3 L 209.2 2.3 Z M 209.2 14.6 L 209.2 4.2 L 211 4.2 L 211 14.6 L 209.2 14.6 Z M 213.6 14.6 L 213.6 0.2 L 215.4 0.2 L 215.4 14.6 L 213.6 14.6 Z M 218.1 2.3 L 218.1 0.2 L 219.9 0.2 L 219.9 2.3 L 218.1 2.3 Z M 218.1 14.6 L 218.1 4.2 L 219.9 4.2 L 219.9 14.6 L 218.1 14.6 Z M 222.2 15.4 C 222.2 15.4 223.9 15.7 223.9 15.7 C 224 16.2 224.2 16.6 224.5 16.8 C 225 17.2 225.6 17.3 226.3 17.3 C 227.1 17.3 227.8 17.2 228.2 16.8 C 228.7 16.5 229 16 229.1 15.5 C 229.2 15.1 229.2 14.3 229.2 13.2 C 228.5 14.1 227.5 14.6 226.4 14.6 C 224.9 14.6 223.8 14 223.1 13 C 222.3 12 221.9 10.8 221.9 9.3 C 221.9 8.3 222.1 7.4 222.4 6.6 C 222.8 5.7 223.3 5.1 224 4.6 C 224.7 4.2 225.5 4 226.4 4 C 227.6 4 228.6 4.4 229.4 5.4 C 229.4 5.44 229.4 4.2 229.4 4.2 L 231 4.2 C 231 4.2 231.03 13.15 231 13.2 C 231 14.8 230.9 15.9 230.5 16.6 C 230.2 17.3 229.7 17.8 229 18.2 C 228.3 18.6 227.4 18.8 226.3 18.8 C 225.1 18.8 224.1 18.5 223.3 17.9 C 222.6 17.4 222.2 16.5 222.2 15.4 Z M 223.7 9.2 C 223.7 10.6 224 11.5 224.5 12.2 C 225 12.8 225.7 13.1 226.5 13.1 C 227.3 13.1 228 12.8 228.6 12.2 C 229.1 11.6 229.4 10.6 229.4 9.2 C 229.4 8 229.1 7 228.5 6.4 C 228 5.7 227.3 5.4 226.5 5.4 C 225.7 5.4 225.1 5.7 224.5 6.4 C 224 7 223.7 7.9 223.7 9.2 Z M 240.8 11.2 C 240.8 11.2 242.6 11.4 242.6 11.4 C 242.3 12.5 241.8 13.3 241 13.9 C 240.2 14.5 239.2 14.8 238 14.8 C 236.5 14.8 235.3 14.3 234.4 13.4 C 233.5 12.5 233.1 11.1 233.1 9.5 C 233.1 7.7 233.5 6.4 234.4 5.4 C 235.3 4.4 236.5 4 237.9 4 C 239.3 4 240.5 4.4 241.3 5.4 C 242.2 6.3 242.7 7.6 242.7 9.4 C 242.7 9.5 242.7 9.6 242.6 9.8 C 242.6 9.8 234.9 9.8 234.9 9.8 C 235 11 235.3 11.8 235.9 12.4 C 236.5 13 237.2 13.3 238 13.3 C 238.7 13.3 239.2 13.2 239.7 12.8 C 240.2 12.5 240.5 12 240.8 11.2 Z M 235 8.4 C 235 8.4 240.8 8.4 240.8 8.4 C 240.7 7.5 240.5 6.9 240.1 6.4 C 239.6 5.7 238.9 5.4 238 5.4 C 237.2 5.4 236.5 5.7 235.9 6.2 C 235.4 6.8 235.1 7.5 235 8.4 Z M 244.8 14.6 L 244.8 4.2 L 246.4 4.2 C 246.4 4.2 246.39 5.66 246.4 5.7 C 247.1 4.5 248.2 4 249.7 4 C 250.3 4 250.9 4.1 251.4 4.3 C 251.9 4.5 252.3 4.8 252.6 5.2 C 252.8 5.5 253 6 253.1 6.5 C 253.2 6.8 253.2 7.4 253.2 8.2 C 253.23 8.18 253.2 14.6 253.2 14.6 L 251.5 14.6 C 251.5 14.6 251.47 8.25 251.5 8.3 C 251.5 7.5 251.4 7 251.3 6.6 C 251.1 6.3 250.9 6 250.5 5.8 C 250.2 5.6 249.8 5.5 249.3 5.5 C 248.6 5.5 247.9 5.7 247.4 6.2 C 246.8 6.7 246.6 7.6 246.6 8.9 C 246.56 8.9 246.6 14.6 246.6 14.6 L 244.8 14.6 Z M 262.7 10.8 C 262.7 10.8 264.4 11 264.4 11 C 264.2 12.2 263.8 13.1 263 13.8 C 262.2 14.5 261.2 14.8 260.1 14.8 C 258.7 14.8 257.5 14.3 256.7 13.4 C 255.8 12.5 255.4 11.1 255.4 9.4 C 255.4 8.3 255.6 7.3 255.9 6.5 C 256.3 5.6 256.9 5 257.6 4.6 C 258.4 4.2 259.2 4 260.1 4 C 261.2 4 262.2 4.2 262.9 4.8 C 263.6 5.4 264.1 6.2 264.3 7.2 C 264.3 7.2 262.5 7.5 262.5 7.5 C 262.4 6.8 262.1 6.3 261.7 5.9 C 261.3 5.6 260.8 5.4 260.2 5.4 C 259.3 5.4 258.6 5.7 258 6.4 C 257.5 7 257.2 8 257.2 9.4 C 257.2 10.8 257.5 11.8 258 12.4 C 258.5 13 259.2 13.3 260.1 13.3 C 260.8 13.3 261.4 13.1 261.8 12.7 C 262.3 12.3 262.6 11.6 262.7 10.8 Z M 273 11.2 C 273 11.2 274.8 11.4 274.8 11.4 C 274.6 12.5 274 13.3 273.3 13.9 C 272.5 14.5 271.5 14.8 270.3 14.8 C 268.8 14.8 267.6 14.3 266.7 13.4 C 265.8 12.5 265.3 11.1 265.3 9.5 C 265.3 7.7 265.8 6.4 266.7 5.4 C 267.6 4.4 268.8 4 270.2 4 C 271.6 4 272.7 4.4 273.6 5.4 C 274.5 6.3 274.9 7.6 274.9 9.4 C 274.9 9.5 274.9 9.6 274.9 9.8 C 274.9 9.8 267.2 9.8 267.2 9.8 C 267.2 11 267.5 11.8 268.1 12.4 C 268.7 13 269.4 13.3 270.3 13.3 C 270.9 13.3 271.5 13.2 271.9 12.8 C 272.4 12.5 272.8 12 273 11.2 Z M 267.3 8.4 C 267.3 8.4 273 8.4 273 8.4 C 273 7.5 272.7 6.9 272.4 6.4 C 271.8 5.7 271.1 5.4 270.2 5.4 C 269.4 5.4 268.7 5.7 268.2 6.2 C 267.6 6.8 267.3 7.5 267.3 8.4 Z M 283 14.6 L 283 5.6 L 281.5 5.6 L 281.5 4.2 L 283 4.2 C 283 4.2 283.03 3.09 283 3.1 C 283 2.4 283.1 1.9 283.2 1.5 C 283.4 1.1 283.7 0.7 284.1 0.4 C 284.5 0.1 285.1 0 285.9 0 C 286.4 0 286.9 0.1 287.5 0.2 C 287.5 0.2 287.3 1.7 287.3 1.7 C 286.9 1.6 286.6 1.6 286.2 1.6 C 285.7 1.6 285.3 1.7 285.1 2 C 284.9 2.2 284.8 2.6 284.8 3.2 C 284.78 3.23 284.8 4.2 284.8 4.2 L 286.8 4.2 L 286.8 5.6 L 284.8 5.6 L 284.8 14.6 L 283 14.6 Z M 287.5 9.4 C 287.5 7.5 288 6 289.1 5.1 C 290 4.3 291.1 4 292.4 4 C 293.8 4 295 4.4 295.9 5.4 C 296.8 6.3 297.2 7.6 297.2 9.2 C 297.2 10.6 297 11.6 296.6 12.4 C 296.2 13.1 295.6 13.7 294.9 14.2 C 294.1 14.6 293.3 14.8 292.4 14.8 C 290.9 14.8 289.7 14.3 288.9 13.4 C 288 12.5 287.5 11.1 287.5 9.4 Z M 289.3 9.4 C 289.3 10.7 289.6 11.7 290.2 12.4 C 290.8 13 291.5 13.3 292.4 13.3 C 293.2 13.3 294 13 294.6 12.4 C 295.1 11.7 295.4 10.7 295.4 9.3 C 295.4 8 295.1 7.1 294.5 6.4 C 294 5.7 293.2 5.4 292.4 5.4 C 291.5 5.4 290.8 5.7 290.2 6.4 C 289.6 7.1 289.3 8 289.3 9.4 Z M 299.3 14.6 L 299.3 4.2 L 300.8 4.2 C 300.8 4.2 300.85 5.76 300.8 5.8 C 301.3 5 301.6 4.5 302 4.3 C 302.3 4.1 302.7 4 303.1 4 C 303.7 4 304.3 4.1 304.9 4.5 C 304.9 4.5 304.3 6.2 304.3 6.2 C 303.9 5.9 303.4 5.8 303 5.8 C 302.6 5.8 302.3 5.9 302 6.1 C 301.7 6.3 301.4 6.7 301.3 7.1 C 301.1 7.7 301 8.4 301 9.1 C 301.03 9.13 301 14.6 301 14.6 L 299.3 14.6 Z M 311.9 14.6 L 311.9 5.6 L 310.4 5.6 L 310.4 4.2 L 311.9 4.2 C 311.9 4.2 311.92 3.09 311.9 3.1 C 311.9 2.4 312 1.9 312.1 1.5 C 312.3 1.1 312.6 0.7 313 0.4 C 313.4 0.1 314 0 314.8 0 C 315.3 0 315.8 0.1 316.4 0.2 C 316.4 0.2 316.2 1.7 316.2 1.7 C 315.8 1.6 315.5 1.6 315.1 1.6 C 314.6 1.6 314.2 1.7 314 2 C 313.8 2.2 313.7 2.6 313.7 3.2 C 313.67 3.23 313.7 4.2 313.7 4.2 L 315.7 4.2 L 315.7 5.6 L 313.7 5.6 L 313.7 14.6 L 311.9 14.6 Z M 323.9 14.6 C 323.9 14.6 323.86 13.04 323.9 13 C 323.1 14.2 322 14.8 320.6 14.8 C 320 14.8 319.4 14.7 318.9 14.4 C 318.3 14.2 317.9 13.9 317.7 13.6 C 317.4 13.2 317.2 12.8 317.1 12.3 C 317.1 11.9 317 11.4 317 10.6 C 317.02 10.62 317 4.2 317 4.2 L 318.8 4.2 C 318.8 4.2 318.78 9.94 318.8 9.9 C 318.8 10.9 318.8 11.5 318.9 11.8 C 319 12.3 319.2 12.6 319.6 12.9 C 319.9 13.1 320.4 13.3 320.9 13.3 C 321.4 13.3 321.9 13.1 322.4 12.9 C 322.9 12.6 323.2 12.2 323.4 11.8 C 323.6 11.3 323.7 10.6 323.7 9.7 C 323.67 9.75 323.7 4.2 323.7 4.2 L 325.4 4.2 L 325.4 14.6 L 323.9 14.6 Z M 331.3 13.1 C 331.4 13.1 331.7 13 332 13 C 332 13 332.3 14.5 332.3 14.5 C 331.8 14.6 331.3 14.7 330.9 14.7 C 330.3 14.7 329.8 14.6 329.5 14.4 C 329.1 14.2 328.9 13.9 328.7 13.6 C 328.6 13.3 328.5 12.6 328.5 11.5 C 328.51 11.52 328.5 5.6 328.5 5.6 L 327.2 5.6 L 327.2 4.2 L 328.5 4.2 L 328.5 1.6 L 330.3 0.6 L 330.3 4.2 L 332 4.2 L 332 5.6 L 330.3 5.6 C 330.3 5.6 330.25 11.62 330.3 11.6 C 330.3 12.1 330.3 12.4 330.3 12.6 C 330.4 12.7 330.5 12.8 330.6 12.9 C 330.8 13 331 13.1 331.3 13.1 C 331.3 13.1 331.3 13.1 331.3 13.1 Z M 340.5 14.6 C 340.5 14.6 340.54 13.04 340.5 13 C 339.7 14.2 338.6 14.8 337.2 14.8 C 336.6 14.8 336.1 14.7 335.5 14.4 C 335 14.2 334.6 13.9 334.4 13.6 C 334.1 13.2 333.9 12.8 333.8 12.3 C 333.7 11.9 333.7 11.4 333.7 10.6 C 333.7 10.62 333.7 4.2 333.7 4.2 L 335.5 4.2 C 335.5 4.2 335.46 9.94 335.5 9.9 C 335.5 10.9 335.5 11.5 335.6 11.8 C 335.7 12.3 335.9 12.6 336.3 12.9 C 336.6 13.1 337.1 13.3 337.6 13.3 C 338.1 13.3 338.6 13.1 339.1 12.9 C 339.5 12.6 339.9 12.2 340.1 11.8 C 340.3 11.3 340.4 10.6 340.4 9.7 C 340.35 9.75 340.4 4.2 340.4 4.2 L 342.1 4.2 L 342.1 14.6 L 340.5 14.6 Z M 344.8 14.6 L 344.8 4.2 L 346.4 4.2 C 346.4 4.2 346.43 5.76 346.4 5.8 C 346.8 5 347.2 4.5 347.5 4.3 C 347.9 4.1 348.3 4 348.7 4 C 349.3 4 349.9 4.1 350.5 4.5 C 350.5 4.5 349.9 6.2 349.9 6.2 C 349.4 5.9 349 5.8 348.6 5.8 C 348.2 5.8 347.9 5.9 347.5 6.1 C 347.2 6.3 347 6.7 346.9 7.1 C 346.7 7.7 346.6 8.4 346.6 9.1 C 346.6 9.13 346.6 14.6 346.6 14.6 L 344.8 14.6 Z M 358.6 11.2 C 358.6 11.2 360.4 11.4 360.4 11.4 C 360.2 12.5 359.6 13.3 358.8 13.9 C 358.1 14.5 357.1 14.8 355.9 14.8 C 354.4 14.8 353.2 14.3 352.3 13.4 C 351.4 12.5 350.9 11.1 350.9 9.5 C 350.9 7.7 351.4 6.4 352.3 5.4 C 353.2 4.4 354.3 4 355.8 4 C 357.2 4 358.3 4.4 359.2 5.4 C 360.1 6.3 360.5 7.6 360.5 9.4 C 360.5 9.5 360.5 9.6 360.5 9.8 C 360.5 9.8 352.8 9.8 352.8 9.8 C 352.8 11 353.1 11.8 353.7 12.4 C 354.3 13 355 13.3 355.9 13.3 C 356.5 13.3 357.1 13.2 357.5 12.8 C 358 12.5 358.4 12 358.6 11.2 Z M 352.9 8.4 C 352.9 8.4 358.6 8.4 358.6 8.4 C 358.6 7.5 358.3 6.9 358 6.4 C 357.4 5.7 356.7 5.4 355.8 5.4 C 355 5.4 354.3 5.7 353.8 6.2 C 353.2 6.8 352.9 7.5 352.9 8.4 Z M 375.3 14.6 C 375.1 14.2 375 13.8 375 13.3 C 374.3 13.8 373.7 14.2 373.1 14.5 C 372.5 14.7 371.8 14.8 371.2 14.8 C 370 14.8 369.1 14.5 368.5 14 C 367.9 13.4 367.6 12.7 367.6 11.8 C 367.6 11.3 367.7 10.9 368 10.4 C 368.2 10 368.5 9.7 368.9 9.4 C 369.2 9.2 369.7 9 370.1 8.8 C 370.5 8.8 371 8.7 371.7 8.6 C 373.1 8.4 374.2 8.2 374.8 8 C 374.8 7.7 374.8 7.6 374.8 7.5 C 374.8 6.8 374.7 6.3 374.3 6 C 373.9 5.6 373.2 5.4 372.3 5.4 C 371.5 5.4 370.9 5.6 370.5 5.8 C 370.1 6.1 369.8 6.6 369.6 7.4 C 369.6 7.4 367.9 7.1 367.9 7.1 C 368.1 6.4 368.3 5.8 368.7 5.4 C 369 4.9 369.6 4.6 370.2 4.3 C 370.9 4.1 371.7 4 372.6 4 C 373.5 4 374.2 4.1 374.7 4.3 C 375.3 4.5 375.7 4.7 376 5.1 C 376.2 5.4 376.4 5.8 376.5 6.3 C 376.6 6.5 376.6 7.1 376.6 7.9 C 376.6 7.9 376.6 10.2 376.6 10.2 C 376.6 11.8 376.6 12.9 376.7 13.3 C 376.8 13.7 376.9 14.2 377.2 14.6 C 377.16 14.56 375.3 14.6 375.3 14.6 C 375.3 14.6 375.32 14.56 375.3 14.6 Z M 374.8 9.4 C 374.2 9.6 373.2 9.8 372 10 C 371.2 10.1 370.7 10.2 370.4 10.4 C 370.1 10.5 369.9 10.7 369.7 10.9 C 369.6 11.2 369.5 11.5 369.5 11.8 C 369.5 12.2 369.7 12.6 370 12.9 C 370.4 13.3 370.9 13.4 371.6 13.4 C 372.2 13.4 372.9 13.3 373.4 13 C 373.9 12.7 374.3 12.3 374.5 11.8 C 374.7 11.4 374.8 10.8 374.8 10 C 374.8 10 374.8 9.4 374.8 9.4 Z M 378.6 11.5 C 378.6 11.5 380.4 11.2 380.4 11.2 C 380.5 11.9 380.7 12.4 381.2 12.8 C 381.6 13.2 382.2 13.3 383 13.3 C 383.9 13.3 384.5 13.2 384.8 12.9 C 385.2 12.5 385.4 12.1 385.4 11.7 C 385.4 11.3 385.3 11 384.9 10.8 C 384.7 10.6 384.1 10.4 383.1 10.2 C 381.8 9.8 380.9 9.6 380.4 9.3 C 379.9 9.1 379.6 8.8 379.3 8.3 C 379 7.9 378.9 7.5 378.9 6.9 C 378.9 6.5 379 6.1 379.2 5.7 C 379.4 5.3 379.7 4.9 380.1 4.7 C 380.4 4.5 380.7 4.3 381.2 4.2 C 381.7 4 382.2 4 382.7 4 C 383.5 4 384.3 4.1 384.9 4.3 C 385.5 4.5 385.9 4.9 386.2 5.3 C 386.5 5.7 386.7 6.2 386.8 6.9 C 386.8 6.9 385.1 7.1 385.1 7.1 C 385 6.6 384.8 6.1 384.4 5.8 C 384.1 5.6 383.5 5.4 382.9 5.4 C 382.1 5.4 381.5 5.5 381.1 5.8 C 380.8 6.1 380.6 6.4 380.6 6.7 C 380.6 7 380.7 7.2 380.8 7.4 C 381 7.5 381.2 7.7 381.5 7.8 C 381.7 7.9 382.2 8 383.1 8.3 C 384.3 8.6 385.2 8.9 385.7 9.1 C 386.2 9.3 386.5 9.6 386.8 10 C 387.1 10.4 387.2 10.9 387.2 11.5 C 387.2 12.1 387.1 12.7 386.7 13.2 C 386.4 13.7 385.9 14.1 385.2 14.4 C 384.6 14.7 383.9 14.8 383.1 14.8 C 381.7 14.8 380.7 14.5 380 14 C 379.3 13.4 378.8 12.6 378.6 11.5 Z M 388.6 11.5 C 388.6 11.5 390.4 11.2 390.4 11.2 C 390.5 11.9 390.7 12.4 391.2 12.8 C 391.6 13.2 392.2 13.3 393 13.3 C 393.9 13.3 394.5 13.2 394.8 12.9 C 395.2 12.5 395.4 12.1 395.4 11.7 C 395.4 11.3 395.3 11 394.9 10.8 C 394.7 10.6 394.1 10.4 393.1 10.2 C 391.8 9.8 390.9 9.6 390.4 9.3 C 389.9 9.1 389.6 8.8 389.3 8.3 C 389 7.9 388.9 7.5 388.9 6.9 C 388.9 6.5 389 6.1 389.2 5.7 C 389.4 5.3 389.7 4.9 390.1 4.7 C 390.4 4.5 390.7 4.3 391.2 4.2 C 391.7 4 392.2 4 392.7 4 C 393.5 4 394.3 4.1 394.9 4.3 C 395.5 4.5 395.9 4.9 396.2 5.3 C 396.5 5.7 396.7 6.2 396.8 6.9 C 396.8 6.9 395.1 7.1 395.1 7.1 C 395 6.6 394.8 6.1 394.4 5.8 C 394.1 5.6 393.5 5.4 392.9 5.4 C 392.1 5.4 391.5 5.5 391.1 5.8 C 390.8 6.1 390.6 6.4 390.6 6.7 C 390.6 7 390.7 7.2 390.8 7.4 C 391 7.5 391.2 7.7 391.5 7.8 C 391.7 7.9 392.2 8 393.1 8.3 C 394.3 8.6 395.2 8.9 395.7 9.1 C 396.2 9.3 396.5 9.6 396.8 10 C 397.1 10.4 397.2 10.9 397.2 11.5 C 397.2 12.1 397.1 12.7 396.7 13.2 C 396.4 13.7 395.9 14.1 395.2 14.4 C 394.6 14.7 393.9 14.8 393.1 14.8 C 391.7 14.8 390.7 14.5 390 14 C 389.3 13.4 388.8 12.6 388.6 11.5 Z M 406.4 11.2 C 406.4 11.2 408.2 11.4 408.2 11.4 C 408 12.5 407.4 13.3 406.7 13.9 C 405.9 14.5 404.9 14.8 403.7 14.8 C 402.2 14.8 401 14.3 400.1 13.4 C 399.2 12.5 398.7 11.1 398.7 9.5 C 398.7 7.7 399.2 6.4 400.1 5.4 C 401 4.4 402.2 4 403.6 4 C 405 4 406.1 4.4 407 5.4 C 407.9 6.3 408.3 7.6 408.3 9.4 C 408.3 9.5 408.3 9.6 408.3 9.8 C 408.3 9.8 400.6 9.8 400.6 9.8 C 400.6 11 400.9 11.8 401.5 12.4 C 402.1 13 402.8 13.3 403.7 13.3 C 404.3 13.3 404.9 13.2 405.3 12.8 C 405.8 12.5 406.2 12 406.4 11.2 Z M 400.7 8.4 C 400.7 8.4 406.4 8.4 406.4 8.4 C 406.4 7.5 406.1 6.9 405.8 6.4 C 405.2 5.7 404.5 5.4 403.6 5.4 C 402.8 5.4 402.1 5.7 401.6 6.2 C 401 6.8 400.7 7.5 400.7 8.4 Z M 413.5 13.1 C 413.7 13.1 414 13 414.3 13 C 414.3 13 414.5 14.5 414.5 14.5 C 414 14.6 413.6 14.7 413.2 14.7 C 412.6 14.7 412.1 14.6 411.7 14.4 C 411.4 14.2 411.1 13.9 411 13.6 C 410.8 13.3 410.8 12.6 410.8 11.5 C 410.77 11.52 410.8 5.6 410.8 5.6 L 409.5 5.6 L 409.5 4.2 L 410.8 4.2 L 410.8 1.6 L 412.5 0.6 L 412.5 4.2 L 414.3 4.2 L 414.3 5.6 L 412.5 5.6 C 412.5 5.6 412.52 11.62 412.5 11.6 C 412.5 12.1 412.6 12.4 412.6 12.6 C 412.7 12.7 412.8 12.8 412.9 12.9 C 413.1 13 413.3 13.1 413.5 13.1 C 413.5 13.1 413.5 13.1 413.5 13.1 Z M 415.3 11.5 C 415.3 11.5 417 11.2 417 11.2 C 417.1 11.9 417.4 12.4 417.9 12.8 C 418.3 13.2 418.9 13.3 419.7 13.3 C 420.5 13.3 421.1 13.2 421.5 12.9 C 421.9 12.5 422.1 12.1 422.1 11.7 C 422.1 11.3 421.9 11 421.6 10.8 C 421.4 10.6 420.8 10.4 419.8 10.2 C 418.5 9.8 417.6 9.6 417.1 9.3 C 416.6 9.1 416.2 8.8 416 8.3 C 415.7 7.9 415.6 7.5 415.6 6.9 C 415.6 6.5 415.7 6.1 415.9 5.7 C 416.1 5.3 416.4 4.9 416.8 4.7 C 417.1 4.5 417.4 4.3 417.9 4.2 C 418.4 4 418.9 4 419.4 4 C 420.2 4 420.9 4.1 421.6 4.3 C 422.2 4.5 422.6 4.9 422.9 5.3 C 423.2 5.7 423.4 6.2 423.5 6.9 C 423.5 6.9 421.8 7.1 421.8 7.1 C 421.7 6.6 421.5 6.1 421.1 5.8 C 420.8 5.6 420.2 5.4 419.5 5.4 C 418.7 5.4 418.2 5.5 417.8 5.8 C 417.5 6.1 417.3 6.4 417.3 6.7 C 417.3 7 417.4 7.2 417.5 7.4 C 417.7 7.5 417.9 7.7 418.2 7.8 C 418.4 7.9 418.9 8 419.7 8.3 C 421 8.6 421.8 8.9 422.3 9.1 C 422.8 9.3 423.2 9.6 423.5 10 C 423.8 10.4 423.9 10.9 423.9 11.5 C 423.9 12.1 423.7 12.7 423.4 13.2 C 423.1 13.7 422.6 14.1 421.9 14.4 C 421.3 14.7 420.6 14.8 419.7 14.8 C 418.4 14.8 417.4 14.5 416.7 14 C 415.9 13.4 415.5 12.6 415.3 11.5 Z M 433.2 14.6 L 431.6 14.6 L 431.6 0.2 L 433.3 0.2 C 433.3 0.2 433.31 5.35 433.3 5.4 C 434.1 4.4 435 4 436.2 4 C 436.8 4 437.4 4.1 438 4.3 C 438.5 4.6 439 5 439.4 5.4 C 439.7 5.9 440 6.5 440.2 7.1 C 440.4 7.8 440.5 8.5 440.5 9.2 C 440.5 11 440.1 12.4 439.2 13.3 C 438.3 14.3 437.3 14.8 436.1 14.8 C 434.8 14.8 433.9 14.3 433.2 13.3 C 433.18 13.26 433.2 14.6 433.2 14.6 Z M 433.2 9.3 C 433.2 10.5 433.3 11.4 433.7 12 C 434.2 12.9 435 13.3 435.9 13.3 C 436.7 13.3 437.4 13 437.9 12.3 C 438.5 11.7 438.8 10.7 438.8 9.4 C 438.8 8 438.5 7 437.9 6.4 C 437.4 5.7 436.8 5.4 436 5.4 C 435.2 5.4 434.6 5.7 434 6.4 C 433.4 7.1 433.2 8 433.2 9.3 Z M 449.8 11.2 C 449.8 11.2 451.6 11.4 451.6 11.4 C 451.3 12.5 450.8 13.3 450 13.9 C 449.2 14.5 448.2 14.8 447 14.8 C 445.5 14.8 444.3 14.3 443.4 13.4 C 442.5 12.5 442.1 11.1 442.1 9.5 C 442.1 7.7 442.5 6.4 443.4 5.4 C 444.3 4.4 445.5 4 446.9 4 C 448.3 4 449.5 4.4 450.3 5.4 C 451.2 6.3 451.7 7.6 451.7 9.4 C 451.7 9.5 451.7 9.6 451.7 9.8 C 451.7 9.8 443.9 9.8 443.9 9.8 C 444 11 444.3 11.8 444.9 12.4 C 445.5 13 446.2 13.3 447.1 13.3 C 447.7 13.3 448.2 13.2 448.7 12.8 C 449.2 12.5 449.5 12 449.8 11.2 Z M 444 8.4 C 444 8.4 449.8 8.4 449.8 8.4 C 449.7 7.5 449.5 6.9 449.1 6.4 C 448.6 5.7 447.9 5.4 447 5.4 C 446.2 5.4 445.5 5.7 444.9 6.2 C 444.4 6.8 444.1 7.5 444 8.4 Z M 453.8 2.3 L 453.8 0.2 L 455.6 0.2 L 455.6 2.3 L 453.8 2.3 Z M 453.8 14.6 L 453.8 4.2 L 455.6 4.2 L 455.6 14.6 L 453.8 14.6 Z M 458.3 14.6 L 458.3 4.2 L 459.8 4.2 C 459.8 4.2 459.83 5.66 459.8 5.7 C 460.6 4.5 461.7 4 463.1 4 C 463.8 4 464.3 4.1 464.9 4.3 C 465.4 4.5 465.8 4.8 466 5.2 C 466.3 5.5 466.5 6 466.6 6.5 C 466.6 6.8 466.7 7.4 466.7 8.2 C 466.68 8.18 466.7 14.6 466.7 14.6 L 464.9 14.6 C 464.9 14.6 464.92 8.25 464.9 8.3 C 464.9 7.5 464.9 7 464.7 6.6 C 464.6 6.3 464.3 6 464 5.8 C 463.6 5.6 463.2 5.5 462.8 5.5 C 462 5.5 461.4 5.7 460.8 6.2 C 460.3 6.7 460 7.6 460 8.9 C 460.01 8.9 460 14.6 460 14.6 L 458.3 14.6 Z M 469.1 15.4 C 469.1 15.4 470.8 15.7 470.8 15.7 C 470.8 16.2 471 16.6 471.4 16.8 C 471.8 17.2 472.4 17.3 473.1 17.3 C 474 17.3 474.6 17.2 475 16.8 C 475.5 16.5 475.8 16 475.9 15.5 C 476 15.1 476.1 14.3 476.1 13.2 C 475.3 14.1 474.3 14.6 473.2 14.6 C 471.8 14.6 470.7 14 469.9 13 C 469.1 12 468.7 10.8 468.7 9.3 C 468.7 8.3 468.9 7.4 469.2 6.6 C 469.6 5.7 470.1 5.1 470.8 4.6 C 471.5 4.2 472.3 4 473.2 4 C 474.4 4 475.4 4.4 476.2 5.4 C 476.22 5.44 476.2 4.2 476.2 4.2 L 477.8 4.2 C 477.8 4.2 477.84 13.15 477.8 13.2 C 477.8 14.8 477.7 15.9 477.3 16.6 C 477 17.3 476.5 17.8 475.8 18.2 C 475.1 18.6 474.2 18.8 473.2 18.8 C 471.9 18.8 470.9 18.5 470.2 17.9 C 469.4 17.4 469 16.5 469.1 15.4 Z M 470.5 9.2 C 470.5 10.6 470.8 11.5 471.3 12.2 C 471.9 12.8 472.5 13.1 473.3 13.1 C 474.2 13.1 474.8 12.8 475.4 12.2 C 475.9 11.6 476.2 10.6 476.2 9.2 C 476.2 8 475.9 7 475.4 6.4 C 474.8 5.7 474.1 5.4 473.3 5.4 C 472.5 5.4 471.9 5.7 471.3 6.4 C 470.8 7 470.5 7.9 470.5 9.2 Z M 492.8 10.8 C 492.8 10.8 494.6 11 494.6 11 C 494.4 12.2 493.9 13.1 493.1 13.8 C 492.3 14.5 491.4 14.8 490.2 14.8 C 488.8 14.8 487.7 14.3 486.8 13.4 C 485.9 12.5 485.5 11.1 485.5 9.4 C 485.5 8.3 485.7 7.3 486.1 6.5 C 486.4 5.6 487 5 487.8 4.6 C 488.5 4.2 489.4 4 490.2 4 C 491.4 4 492.3 4.2 493 4.8 C 493.7 5.4 494.2 6.2 494.4 7.2 C 494.4 7.2 492.7 7.5 492.7 7.5 C 492.5 6.8 492.2 6.3 491.8 5.9 C 491.4 5.6 490.9 5.4 490.3 5.4 C 489.4 5.4 488.7 5.7 488.2 6.4 C 487.6 7 487.3 8 487.3 9.4 C 487.3 10.8 487.6 11.8 488.1 12.4 C 488.7 13 489.4 13.3 490.2 13.3 C 490.9 13.3 491.5 13.1 491.9 12.7 C 492.4 12.3 492.7 11.6 492.8 10.8 Z M 495.4 9.4 C 495.4 7.5 495.9 6 497 5.1 C 497.9 4.3 499 4 500.3 4 C 501.7 4 502.9 4.4 503.8 5.4 C 504.7 6.3 505.1 7.6 505.1 9.2 C 505.1 10.6 504.9 11.6 504.5 12.4 C 504.1 13.1 503.5 13.7 502.8 14.2 C 502 14.6 501.2 14.8 500.3 14.8 C 498.8 14.8 497.6 14.3 496.7 13.4 C 495.8 12.5 495.4 11.1 495.4 9.4 Z M 497.2 9.4 C 497.2 10.7 497.5 11.7 498.1 12.4 C 498.7 13 499.4 13.3 500.3 13.3 C 501.1 13.3 501.9 13 502.4 12.4 C 503 11.7 503.3 10.7 503.3 9.3 C 503.3 8 503 7.1 502.4 6.4 C 501.9 5.7 501.1 5.4 500.3 5.4 C 499.4 5.4 498.7 5.7 498.1 6.4 C 497.5 7.1 497.2 8 497.2 9.4 Z M 507.2 14.6 L 507.2 4.2 L 508.8 4.2 C 508.8 4.2 508.76 5.66 508.8 5.7 C 509.5 4.5 510.6 4 512.1 4 C 512.7 4 513.3 4.1 513.8 4.3 C 514.3 4.5 514.7 4.8 515 5.2 C 515.2 5.5 515.4 6 515.5 6.5 C 515.6 6.8 515.6 7.4 515.6 8.2 C 515.61 8.18 515.6 14.6 515.6 14.6 L 513.8 14.6 C 513.8 14.6 513.85 8.25 513.8 8.3 C 513.8 7.5 513.8 7 513.6 6.6 C 513.5 6.3 513.3 6 512.9 5.8 C 512.6 5.6 512.2 5.5 511.7 5.5 C 510.9 5.5 510.3 5.7 509.8 6.2 C 509.2 6.7 508.9 7.6 508.9 8.9 C 508.94 8.9 508.9 14.6 508.9 14.6 L 507.2 14.6 Z M 517.6 11.5 C 517.6 11.5 519.3 11.2 519.3 11.2 C 519.4 11.9 519.7 12.4 520.2 12.8 C 520.6 13.2 521.2 13.3 522 13.3 C 522.8 13.3 523.4 13.2 523.8 12.9 C 524.2 12.5 524.4 12.1 524.4 11.7 C 524.4 11.3 524.2 11 523.9 10.8 C 523.6 10.6 523 10.4 522.1 10.2 C 520.8 9.8 519.9 9.6 519.4 9.3 C 518.9 9.1 518.5 8.8 518.3 8.3 C 518 7.9 517.9 7.5 517.9 6.9 C 517.9 6.5 518 6.1 518.2 5.7 C 518.4 5.3 518.7 4.9 519.1 4.7 C 519.3 4.5 519.7 4.3 520.2 4.2 C 520.7 4 521.2 4 521.7 4 C 522.5 4 523.2 4.1 523.9 4.3 C 524.5 4.5 524.9 4.9 525.2 5.3 C 525.5 5.7 525.7 6.2 525.8 6.9 C 525.8 6.9 524.1 7.1 524.1 7.1 C 524 6.6 523.8 6.1 523.4 5.8 C 523 5.6 522.5 5.4 521.8 5.4 C 521 5.4 520.5 5.5 520.1 5.8 C 519.8 6.1 519.6 6.4 519.6 6.7 C 519.6 7 519.7 7.2 519.8 7.4 C 519.9 7.5 520.2 7.7 520.5 7.8 C 520.7 7.9 521.2 8 522 8.3 C 523.3 8.6 524.1 8.9 524.6 9.1 C 525.1 9.3 525.5 9.6 525.8 10 C 526.1 10.4 526.2 10.9 526.2 11.5 C 526.2 12.1 526 12.7 525.7 13.2 C 525.4 13.7 524.9 14.1 524.2 14.4 C 523.6 14.7 522.8 14.8 522 14.8 C 520.7 14.8 519.7 14.5 519 14 C 518.2 13.4 517.8 12.6 517.6 11.5 Z M 528.3 2.3 L 528.3 0.2 L 530.1 0.2 L 530.1 2.3 L 528.3 2.3 Z M 528.3 14.6 L 528.3 4.2 L 530.1 4.2 L 530.1 14.6 L 528.3 14.6 Z M 539.5 14.6 C 539.5 14.6 539.47 13.25 539.5 13.3 C 538.8 14.3 537.8 14.8 536.6 14.8 C 535.7 14.8 535 14.6 534.3 14.1 C 533.6 13.7 533.1 13 532.7 12.2 C 532.3 11.4 532.1 10.4 532.1 9.4 C 532.1 8.3 532.3 7.4 532.6 6.6 C 533 5.7 533.5 5.1 534.2 4.6 C 534.9 4.2 535.6 4 536.5 4 C 537.1 4 537.7 4.1 538.2 4.4 C 538.7 4.6 539 5 539.4 5.4 C 539.36 5.38 539.4 0.2 539.4 0.2 L 541.1 0.2 L 541.1 14.6 L 539.5 14.6 Z M 533.9 9.4 C 533.9 10.7 534.2 11.7 534.8 12.4 C 535.3 13 536 13.3 536.7 13.3 C 537.5 13.3 538.2 13 538.7 12.4 C 539.2 11.8 539.5 10.8 539.5 9.5 C 539.5 8.1 539.2 7.1 538.7 6.4 C 538.1 5.7 537.5 5.4 536.7 5.4 C 535.9 5.4 535.2 5.7 534.7 6.4 C 534.2 7 533.9 8 533.9 9.4 Z M 551 11.2 C 551 11.2 552.8 11.4 552.8 11.4 C 552.5 12.5 552 13.3 551.2 13.9 C 550.4 14.5 549.4 14.8 548.2 14.8 C 546.7 14.8 545.5 14.3 544.6 13.4 C 543.7 12.5 543.3 11.1 543.3 9.5 C 543.3 7.7 543.7 6.4 544.6 5.4 C 545.5 4.4 546.7 4 548.1 4 C 549.5 4 550.6 4.4 551.5 5.4 C 552.4 6.3 552.8 7.6 552.8 9.4 C 552.8 9.5 552.8 9.6 552.8 9.8 C 552.8 9.8 545.1 9.8 545.1 9.8 C 545.2 11 545.5 11.8 546.1 12.4 C 546.6 13 547.4 13.3 548.2 13.3 C 548.9 13.3 549.4 13.2 549.9 12.8 C 550.3 12.5 550.7 12 551 11.2 Z M 545.2 8.4 C 545.2 8.4 551 8.4 551 8.4 C 550.9 7.5 550.7 6.9 550.3 6.4 C 549.8 5.7 549 5.4 548.1 5.4 C 547.3 5.4 546.7 5.7 546.1 6.2 C 545.6 6.8 545.3 7.5 545.2 8.4 Z M 555 14.6 L 555 4.2 L 556.6 4.2 C 556.6 4.2 556.55 5.76 556.6 5.8 C 557 5 557.3 4.5 557.7 4.3 C 558 4.1 558.4 4 558.8 4 C 559.4 4 560 4.1 560.6 4.5 C 560.6 4.5 560 6.2 560 6.2 C 559.6 5.9 559.1 5.8 558.7 5.8 C 558.3 5.8 558 5.9 557.7 6.1 C 557.4 6.3 557.2 6.7 557 7.1 C 556.8 7.7 556.7 8.4 556.7 9.1 C 556.73 9.13 556.7 14.6 556.7 14.6 L 555 14.6 Z M 568.8 11.2 C 568.8 11.2 570.6 11.4 570.6 11.4 C 570.3 12.5 569.7 13.3 569 13.9 C 568.2 14.5 567.2 14.8 566 14.8 C 564.5 14.8 563.3 14.3 562.4 13.4 C 561.5 12.5 561.1 11.1 561.1 9.5 C 561.1 7.7 561.5 6.4 562.4 5.4 C 563.3 4.4 564.5 4 565.9 4 C 567.3 4 568.4 4.4 569.3 5.4 C 570.2 6.3 570.6 7.6 570.6 9.4 C 570.6 9.5 570.6 9.6 570.6 9.8 C 570.6 9.8 562.9 9.8 562.9 9.8 C 562.9 11 563.3 11.8 563.8 12.4 C 564.4 13 565.1 13.3 566 13.3 C 566.7 13.3 567.2 13.2 567.7 12.8 C 568.1 12.5 568.5 12 568.8 11.2 Z M 563 8.4 C 563 8.4 568.8 8.4 568.8 8.4 C 568.7 7.5 568.5 6.9 568.1 6.4 C 567.5 5.7 566.8 5.4 565.9 5.4 C 565.1 5.4 564.4 5.7 563.9 6.2 C 563.3 6.8 563 7.5 563 8.4 Z M 579.5 14.6 C 579.5 14.6 579.5 13.25 579.5 13.3 C 578.8 14.3 577.9 14.8 576.6 14.8 C 575.8 14.8 575 14.6 574.3 14.1 C 573.6 13.7 573.1 13 572.7 12.2 C 572.3 11.4 572.1 10.4 572.1 9.4 C 572.1 8.3 572.3 7.4 572.7 6.6 C 573 5.7 573.5 5.1 574.2 4.6 C 574.9 4.2 575.7 4 576.5 4 C 577.1 4 577.7 4.1 578.2 4.4 C 578.7 4.6 579.1 5 579.4 5.4 C 579.38 5.38 579.4 0.2 579.4 0.2 L 581.1 0.2 L 581.1 14.6 L 579.5 14.6 Z M 573.9 9.4 C 573.9 10.7 574.2 11.7 574.8 12.4 C 575.3 13 576 13.3 576.8 13.3 C 577.5 13.3 578.2 13 578.7 12.4 C 579.3 11.8 579.5 10.8 579.5 9.5 C 579.5 8.1 579.3 7.1 578.7 6.4 C 578.2 5.7 577.5 5.4 576.7 5.4 C 575.9 5.4 575.3 5.7 574.7 6.4 C 574.2 7 573.9 8 573.9 9.4 Z M 591.1 14.6 L 589.4 14.6 L 589.4 0.2 L 591.2 0.2 C 591.2 0.2 591.2 5.35 591.2 5.4 C 591.9 4.4 592.9 4 594 4 C 594.7 4 595.3 4.1 595.9 4.3 C 596.4 4.6 596.9 5 597.3 5.4 C 597.6 5.9 597.9 6.5 598.1 7.1 C 598.3 7.8 598.4 8.5 598.4 9.2 C 598.4 11 598 12.4 597.1 13.3 C 596.2 14.3 595.2 14.8 594 14.8 C 592.7 14.8 591.8 14.3 591.1 13.3 C 591.07 13.26 591.1 14.6 591.1 14.6 Z M 591.1 9.3 C 591.1 10.5 591.2 11.4 591.6 12 C 592.1 12.9 592.9 13.3 593.8 13.3 C 594.6 13.3 595.2 13 595.8 12.3 C 596.4 11.7 596.6 10.7 596.6 9.4 C 596.6 8 596.4 7 595.8 6.4 C 595.3 5.7 594.6 5.4 593.9 5.4 C 593.1 5.4 592.5 5.7 591.9 6.4 C 591.3 7.1 591.1 8 591.1 9.3 Z M 601.6 18.8 C 601.3 18.8 600.9 18.7 600.5 18.6 C 600.5 18.6 600.3 16.9 600.3 16.9 C 600.7 17 601 17.1 601.3 17.1 C 601.7 17.1 602 17 602.2 16.9 C 602.5 16.7 602.7 16.6 602.8 16.3 C 602.9 16.1 603.1 15.7 603.4 15 C 603.4 14.9 603.4 14.8 603.5 14.6 C 603.52 14.58 599.6 4.2 599.6 4.2 L 601.5 4.2 C 601.5 4.2 603.63 10.2 603.6 10.2 C 603.9 11 604.2 11.8 604.4 12.6 C 604.6 11.8 604.8 11 605.1 10.2 C 605.11 10.23 607.3 4.2 607.3 4.2 L 609.1 4.2 C 609.1 4.2 605.14 14.74 605.1 14.7 C 604.7 15.9 604.4 16.7 604.2 17.1 C 603.8 17.7 603.5 18.1 603.1 18.4 C 602.7 18.6 602.2 18.8 601.6 18.8 C 601.6 18.8 601.6 18.8 601.6 18.8 Z M 623.3 14.6 C 623.1 14.2 623 13.8 622.9 13.3 C 622.2 13.8 621.6 14.2 621 14.5 C 620.4 14.7 619.8 14.8 619.1 14.8 C 617.9 14.8 617.1 14.5 616.5 14 C 615.8 13.4 615.5 12.7 615.5 11.8 C 615.5 11.3 615.7 10.9 615.9 10.4 C 616.1 10 616.4 9.7 616.8 9.4 C 617.2 9.2 617.6 9 618.1 8.8 C 618.4 8.8 618.9 8.7 619.6 8.6 C 621 8.4 622.1 8.2 622.8 8 C 622.8 7.7 622.8 7.6 622.8 7.5 C 622.8 6.8 622.6 6.3 622.3 6 C 621.8 5.6 621.1 5.4 620.3 5.4 C 619.4 5.4 618.8 5.6 618.4 5.8 C 618 6.1 617.7 6.6 617.6 7.4 C 617.6 7.4 615.8 7.1 615.8 7.1 C 616 6.4 616.3 5.8 616.6 5.4 C 617 4.9 617.5 4.6 618.2 4.3 C 618.8 4.1 619.6 4 620.5 4 C 621.4 4 622.1 4.1 622.7 4.3 C 623.2 4.5 623.6 4.7 623.9 5.1 C 624.2 5.4 624.3 5.8 624.4 6.3 C 624.5 6.5 624.5 7.1 624.5 7.9 C 624.5 7.9 624.5 10.2 624.5 10.2 C 624.5 11.8 624.6 12.9 624.6 13.3 C 624.7 13.7 624.9 14.2 625.1 14.6 C 625.09 14.56 623.3 14.6 623.3 14.6 C 623.3 14.6 623.25 14.56 623.3 14.6 Z M 622.8 9.4 C 622.1 9.6 621.2 9.8 619.9 10 C 619.2 10.1 618.6 10.2 618.3 10.4 C 618.1 10.5 617.8 10.7 617.7 10.9 C 617.5 11.2 617.4 11.5 617.4 11.8 C 617.4 12.2 617.6 12.6 617.9 12.9 C 618.3 13.3 618.8 13.4 619.5 13.4 C 620.2 13.4 620.8 13.3 621.3 13 C 621.8 12.7 622.2 12.3 622.5 11.8 C 622.7 11.4 622.8 10.8 622.8 10 C 622.8 10 622.8 9.4 622.8 9.4 Z M 632.5 15.4 C 632.5 15.4 634.2 15.7 634.2 15.7 C 634.3 16.2 634.5 16.6 634.8 16.8 C 635.2 17.2 635.8 17.3 636.6 17.3 C 637.4 17.3 638 17.2 638.5 16.8 C 638.9 16.5 639.2 16 639.4 15.5 C 639.5 15.1 639.5 14.3 639.5 13.2 C 638.7 14.1 637.8 14.6 636.6 14.6 C 635.2 14.6 634.1 14 633.3 13 C 632.5 12 632.1 10.8 632.1 9.3 C 632.1 8.3 632.3 7.4 632.7 6.6 C 633 5.7 633.6 5.1 634.2 4.6 C 634.9 4.2 635.7 4 636.6 4 C 637.9 4 638.9 4.4 639.7 5.4 C 639.66 5.44 639.7 4.2 639.7 4.2 L 641.3 4.2 C 641.3 4.2 641.28 13.15 641.3 13.2 C 641.3 14.8 641.1 15.9 640.8 16.6 C 640.5 17.3 639.9 17.8 639.2 18.2 C 638.5 18.6 637.6 18.8 636.6 18.8 C 635.4 18.8 634.4 18.5 633.6 17.9 C 632.8 17.4 632.5 16.5 632.5 15.4 Z M 633.9 9.2 C 633.9 10.6 634.2 11.5 634.8 12.2 C 635.3 12.8 636 13.1 636.8 13.1 C 637.6 13.1 638.3 12.8 638.8 12.2 C 639.4 11.6 639.6 10.6 639.6 9.2 C 639.6 8 639.4 7 638.8 6.4 C 638.2 5.7 637.6 5.4 636.8 5.4 C 636 5.4 635.3 5.7 634.8 6.4 C 634.2 7 633.9 7.9 633.9 9.2 Z M 643.9 14.6 L 643.9 0.2 L 645.7 0.2 L 645.7 14.6 L 643.9 14.6 Z M 647.7 9.4 C 647.7 7.5 648.3 6 649.3 5.1 C 650.2 4.3 651.3 4 652.6 4 C 654 4 655.2 4.4 656.1 5.4 C 657 6.3 657.4 7.6 657.4 9.2 C 657.4 10.6 657.2 11.6 656.8 12.4 C 656.4 13.1 655.9 13.7 655.1 14.2 C 654.3 14.6 653.5 14.8 652.6 14.8 C 651.1 14.8 650 14.3 649.1 13.4 C 648.2 12.5 647.7 11.1 647.7 9.4 Z M 649.5 9.4 C 649.5 10.7 649.8 11.7 650.4 12.4 C 651 13 651.7 13.3 652.6 13.3 C 653.5 13.3 654.2 13 654.8 12.4 C 655.3 11.7 655.6 10.7 655.6 9.3 C 655.6 8 655.3 7.1 654.8 6.4 C 654.2 5.7 653.5 5.4 652.6 5.4 C 651.7 5.4 651 5.7 650.4 6.4 C 649.8 7.1 649.5 8 649.5 9.4 Z M 661.1 14.6 L 659.5 14.6 L 659.5 0.2 L 661.3 0.2 C 661.3 0.2 661.25 5.35 661.3 5.4 C 662 4.4 662.9 4 664.1 4 C 664.7 4 665.3 4.1 665.9 4.3 C 666.5 4.6 666.9 5 667.3 5.4 C 667.7 5.9 668 6.5 668.2 7.1 C 668.4 7.8 668.5 8.5 668.5 9.2 C 668.5 11 668 12.4 667.2 13.3 C 666.3 14.3 665.2 14.8 664 14.8 C 662.8 14.8 661.8 14.3 661.1 13.3 C 661.12 13.26 661.1 14.6 661.1 14.6 Z M 661.1 9.3 C 661.1 10.5 661.3 11.4 661.6 12 C 662.2 12.9 662.9 13.3 663.9 13.3 C 664.6 13.3 665.3 13 665.8 12.3 C 666.4 11.7 666.7 10.7 666.7 9.4 C 666.7 8 666.4 7 665.9 6.4 C 665.3 5.7 664.7 5.4 663.9 5.4 C 663.2 5.4 662.5 5.7 661.9 6.4 C 661.4 7.1 661.1 8 661.1 9.3 Z M 677.7 14.6 C 677.6 14.2 677.4 13.8 677.4 13.3 C 676.7 13.8 676.1 14.2 675.5 14.5 C 674.9 14.7 674.3 14.8 673.6 14.8 C 672.4 14.8 671.6 14.5 670.9 14 C 670.3 13.4 670 12.7 670 11.8 C 670 11.3 670.1 10.9 670.4 10.4 C 670.6 10 670.9 9.7 671.3 9.4 C 671.7 9.2 672.1 9 672.5 8.8 C 672.9 8.8 673.4 8.7 674.1 8.6 C 675.5 8.4 676.6 8.2 677.2 8 C 677.3 7.7 677.3 7.6 677.3 7.5 C 677.3 6.8 677.1 6.3 676.8 6 C 676.3 5.6 675.6 5.4 674.8 5.4 C 673.9 5.4 673.3 5.6 672.9 5.8 C 672.5 6.1 672.2 6.6 672.1 7.4 C 672.1 7.4 670.3 7.1 670.3 7.1 C 670.5 6.4 670.7 5.8 671.1 5.4 C 671.5 4.9 672 4.6 672.7 4.3 C 673.3 4.1 674.1 4 675 4 C 675.9 4 676.6 4.1 677.2 4.3 C 677.7 4.5 678.1 4.7 678.4 5.1 C 678.6 5.4 678.8 5.8 678.9 6.3 C 679 6.5 679 7.1 679 7.9 C 679 7.9 679 10.2 679 10.2 C 679 11.8 679.1 12.9 679.1 13.3 C 679.2 13.7 679.4 14.2 679.6 14.6 C 679.58 14.56 677.7 14.6 677.7 14.6 C 677.7 14.6 677.74 14.56 677.7 14.6 Z M 677.2 9.4 C 676.6 9.6 675.7 9.8 674.4 10 C 673.7 10.1 673.1 10.2 672.8 10.4 C 672.5 10.5 672.3 10.7 672.1 10.9 C 672 11.2 671.9 11.5 671.9 11.8 C 671.9 12.2 672.1 12.6 672.4 12.9 C 672.8 13.3 673.3 13.4 674 13.4 C 674.7 13.4 675.3 13.3 675.8 13 C 676.3 12.7 676.7 12.3 677 11.8 C 677.2 11.4 677.2 10.8 677.2 10 C 677.2 10 677.2 9.4 677.2 9.4 Z M 681.7 14.6 L 681.7 0.2 L 683.5 0.2 L 683.5 14.6 L 681.7 14.6 Z M 691.7 18.5 L 691.7 4.2 L 693.3 4.2 C 693.3 4.2 693.35 5.54 693.3 5.5 C 693.7 5 694.2 4.6 694.6 4.4 C 695.1 4.1 695.7 4 696.4 4 C 697.2 4 698 4.2 698.7 4.6 C 699.4 5.1 699.9 5.7 700.2 6.6 C 700.6 7.4 700.8 8.3 700.8 9.3 C 700.8 10.4 700.6 11.3 700.2 12.2 C 699.8 13 699.2 13.7 698.5 14.1 C 697.8 14.6 697 14.8 696.2 14.8 C 695.6 14.8 695.1 14.7 694.7 14.4 C 694.2 14.2 693.8 13.9 693.5 13.5 C 693.51 13.49 693.5 18.5 693.5 18.5 L 691.7 18.5 Z M 693.3 9.4 C 693.3 10.8 693.6 11.8 694.2 12.4 C 694.7 13 695.3 13.3 696.1 13.3 C 696.9 13.3 697.6 13 698.1 12.4 C 698.7 11.7 699 10.7 699 9.3 C 699 8 698.7 7 698.1 6.3 C 697.6 5.7 696.9 5.3 696.2 5.3 C 695.4 5.3 694.8 5.7 694.2 6.4 C 693.6 7.1 693.3 8.1 693.3 9.4 Z M 702.9 14.6 L 702.9 4.2 L 704.4 4.2 C 704.4 4.2 704.43 5.76 704.4 5.8 C 704.8 5 705.2 4.5 705.6 4.3 C 705.9 4.1 706.3 4 706.7 4 C 707.3 4 707.9 4.1 708.5 4.5 C 708.5 4.5 707.9 6.2 707.9 6.2 C 707.5 5.9 707 5.8 706.6 5.8 C 706.2 5.8 705.9 5.9 705.6 6.1 C 705.3 6.3 705 6.7 704.9 7.1 C 704.7 7.7 704.6 8.4 704.6 9.1 C 704.61 9.13 704.6 14.6 704.6 14.6 L 702.9 14.6 Z M 709.5 2.3 L 709.5 0.2 L 711.3 0.2 L 711.3 2.3 L 709.5 2.3 Z M 709.5 14.6 L 709.5 4.2 L 711.3 4.2 L 711.3 14.6 L 709.5 14.6 Z M 716.9 14.6 L 712.9 4.2 L 714.8 4.2 C 714.8 4.2 716.99 10.4 717 10.4 C 717.2 11.1 717.5 11.8 717.7 12.5 C 717.8 11.9 718 11.3 718.3 10.5 C 718.31 10.52 720.6 4.2 720.6 4.2 L 722.4 4.2 L 718.5 14.6 L 716.9 14.6 Z M 731.1 14.6 C 730.9 14.2 730.8 13.8 730.7 13.3 C 730.1 13.8 729.5 14.2 728.9 14.5 C 728.3 14.7 727.6 14.8 726.9 14.8 C 725.8 14.8 724.9 14.5 724.3 14 C 723.7 13.4 723.4 12.7 723.4 11.8 C 723.4 11.3 723.5 10.9 723.7 10.4 C 724 10 724.3 9.7 724.6 9.4 C 725 9.2 725.4 9 725.9 8.8 C 726.2 8.8 726.8 8.7 727.5 8.6 C 728.9 8.4 729.9 8.2 730.6 8 C 730.6 7.7 730.6 7.6 730.6 7.5 C 730.6 6.8 730.4 6.3 730.1 6 C 729.7 5.6 729 5.4 728.1 5.4 C 727.3 5.4 726.7 5.6 726.3 5.8 C 725.9 6.1 725.6 6.6 725.4 7.4 C 725.4 7.4 723.7 7.1 723.7 7.1 C 723.8 6.4 724.1 5.8 724.5 5.4 C 724.8 4.9 725.3 4.6 726 4.3 C 726.7 4.1 727.5 4 728.4 4 C 729.2 4 730 4.1 730.5 4.3 C 731.1 4.5 731.5 4.7 731.7 5.1 C 732 5.4 732.2 5.8 732.3 6.3 C 732.3 6.5 732.4 7.1 732.4 7.9 C 732.4 7.9 732.4 10.2 732.4 10.2 C 732.4 11.8 732.4 12.9 732.5 13.3 C 732.6 13.7 732.7 14.2 732.9 14.6 C 732.93 14.56 731.1 14.6 731.1 14.6 C 731.1 14.6 731.09 14.56 731.1 14.6 Z M 730.6 9.4 C 730 9.6 729 9.8 727.7 10 C 727 10.1 726.5 10.2 726.2 10.4 C 725.9 10.5 725.7 10.7 725.5 10.9 C 725.3 11.2 725.3 11.5 725.3 11.8 C 725.3 12.2 725.4 12.6 725.8 12.9 C 726.1 13.3 726.7 13.4 727.3 13.4 C 728 13.4 728.6 13.3 729.2 13 C 729.7 12.7 730.1 12.3 730.3 11.8 C 730.5 11.4 730.6 10.8 730.6 10 C 730.6 10 730.6 9.4 730.6 9.4 Z M 738.2 13.1 C 738.4 13.1 738.6 13 738.9 13 C 738.9 13 739.2 14.5 739.2 14.5 C 738.7 14.6 738.3 14.7 737.9 14.7 C 737.2 14.7 736.7 14.6 736.4 14.4 C 736 14.2 735.8 13.9 735.6 13.6 C 735.5 13.3 735.4 12.6 735.4 11.5 C 735.42 11.52 735.4 5.6 735.4 5.6 L 734.1 5.6 L 734.1 4.2 L 735.4 4.2 L 735.4 1.6 L 737.2 0.6 L 737.2 4.2 L 738.9 4.2 L 738.9 5.6 L 737.2 5.6 C 737.2 5.6 737.17 11.62 737.2 11.6 C 737.2 12.1 737.2 12.4 737.3 12.6 C 737.3 12.7 737.4 12.8 737.6 12.9 C 737.7 13 737.9 13.1 738.2 13.1 C 738.2 13.1 738.2 13.1 738.2 13.1 Z M 747.8 11.2 C 747.8 11.2 749.6 11.4 749.6 11.4 C 749.3 12.5 748.8 13.3 748 13.9 C 747.2 14.5 746.2 14.8 745 14.8 C 743.5 14.8 742.3 14.3 741.4 13.4 C 740.5 12.5 740.1 11.1 740.1 9.5 C 740.1 7.7 740.5 6.4 741.4 5.4 C 742.3 4.4 743.5 4 744.9 4 C 746.3 4 747.4 4.4 748.3 5.4 C 749.2 6.3 749.6 7.6 749.6 9.4 C 749.6 9.5 749.6 9.6 749.6 9.8 C 749.6 9.8 741.9 9.8 741.9 9.8 C 741.9 11 742.3 11.8 742.9 12.4 C 743.4 13 744.2 13.3 745 13.3 C 745.7 13.3 746.2 13.2 746.7 12.8 C 747.1 12.5 747.5 12 747.8 11.2 Z M 742 8.4 C 742 8.4 747.8 8.4 747.8 8.4 C 747.7 7.5 747.5 6.9 747.1 6.4 C 746.5 5.7 745.8 5.4 744.9 5.4 C 744.1 5.4 743.4 5.7 742.9 6.2 C 742.3 6.8 742 7.5 742 8.4 Z " stroke="none" fill="#54626c"/>
  </g>
</svg>