<?xml version="1.0" standalone="no"?><!DOCTYPE svg PUBLIC "-//W3C//DTD SVG 1.1//EN" "http://www.w3.org/Graphics/SVG/1.1/DTD/svg11.dtd"><svg xmlns="http://www.w3.org/2000/svg" version="1.1" width="382.1px" height="55.4px" viewBox="0 -7 382.1 55.4" style="top:-7px"><desc>Technology</desc><defs/><g id="Polygon69627"><path d="m6.2 17.5l0-15.2l-5.6 0l0-2l13.6 0l0 2l-5.7 0l0 15.2l-2.3 0zm15.9-4c0 0 2.2.2 2.2.2c-.4 1.3-1 2.3-1.9 3c-1 .7-2.1 1.1-3.6 1.1c-1.8 0-3.3-.6-4.3-1.7c-1.1-1.1-1.6-2.7-1.6-4.7c0-2.1.5-3.8 1.6-4.9c1.1-1.2 2.5-1.8 4.2-1.8c1.7 0 3 .6 4.1 1.7c1 1.2 1.6 2.8 1.6 4.8c0 .2-.1.3-.1.6c0 0-9.2 0-9.2 0c0 1.4.4 2.4 1.1 3.1c.7.8 1.6 1.1 2.6 1.1c.8 0 1.5-.2 2-.6c.5-.4 1-1 1.3-1.9zm-6.9-3.4c0 0 6.9 0 6.9 0c-.1-1.1-.3-1.9-.8-2.4c-.6-.8-1.5-1.2-2.6-1.2c-1 0-1.8.3-2.4 1c-.7.6-1.1 1.5-1.1 2.6zm19.9 2.8c0 0 2 .3 2 .3c-.2 1.4-.8 2.5-1.7 3.3c-.9.8-2.1 1.3-3.5 1.3c-1.7 0-3-.6-4.1-1.7c-1-1.1-1.5-2.7-1.5-4.8c0-1.3.2-2.5.7-3.5c.4-1 1.1-1.8 2-2.3c.9-.5 1.9-.8 3-.8c1.3 0 2.4.4 3.3 1.1c.8.7 1.4 1.6 1.6 2.9c0 0-2 .3-2 .3c-.2-.8-.6-1.5-1.1-1.9c-.5-.4-1.1-.6-1.8-.6c-1 0-1.9.4-2.6 1.1c-.6.8-.9 2-.9 3.6c0 1.7.3 2.9.9 3.7c.7.7 1.5 1.1 2.5 1.1c.8 0 1.5-.2 2.1-.7c.6-.5.9-1.3 1.1-2.4zm3.8 4.6l0-17.2l2.1 0c0 0 .04 6.16 0 6.2c1-1.2 2.3-1.8 3.8-1.8c.9 0 1.7.2 2.4.6c.6.4 1.1.9 1.4 1.5c.3.6.5 1.6.5 2.8c-.03-.01 0 7.9 0 7.9l-2.1 0c0 0-.04-7.91 0-7.9c0-1.1-.3-1.8-.7-2.3c-.5-.5-1.1-.7-2-.7c-.6 0-1.2.1-1.7.4c-.6.4-1 .8-1.2 1.4c-.2.5-.4 1.3-.4 2.3c.04-.04 0 6.8 0 6.8l-2.1 0zm13.4 0l0-12.5l1.9 0c0 0-.02 1.8 0 1.8c.9-1.4 2.2-2.1 3.9-2.1c.8 0 1.5.2 2.1.5c.6.2 1.1.6 1.4 1c.3.4.5 1 .7 1.6c.1.4.1 1 .1 2c-.01.02 0 7.7 0 7.7l-2.1 0c0 0-.02-7.6 0-7.6c0-.9-.1-1.5-.3-1.9c-.1-.5-.4-.8-.8-1c-.5-.3-.9-.4-1.5-.4c-.9 0-1.7.3-2.3.8c-.7.6-1 1.7-1 3.3c-.01-.02 0 6.8 0 6.8l-2.1 0zm12.5-6.3c0-2.3.7-4 2-5.1c1-.9 2.3-1.4 3.9-1.4c1.7 0 3.1.6 4.2 1.7c1.1 1.1 1.6 2.7 1.6 4.7c0 1.6-.2 2.8-.7 3.8c-.5.9-1.2 1.6-2.1 2.1c-.9.5-1.9.8-3 .8c-1.8 0-3.2-.6-4.2-1.7c-1.1-1.1-1.7-2.7-1.7-4.9zm2.2 0c0 1.6.4 2.8 1.1 3.6c.6.8 1.5 1.2 2.6 1.2c1 0 1.9-.4 2.6-1.2c.7-.8 1-2 1-3.6c0-1.6-.3-2.7-1-3.5c-.7-.8-1.6-1.2-2.6-1.2c-1.1 0-2 .4-2.6 1.2c-.7.8-1.1 2-1.1 3.5zm11.9 6.3l0-17.2l2.1 0l0 17.2l-2.1 0zm4.6-6.3c0-2.3.7-4 1.9-5.1c1.1-.9 2.4-1.4 4-1.4c1.7 0 3.1.6 4.2 1.7c1 1.1 1.6 2.7 1.6 4.7c0 1.6-.3 2.8-.7 3.8c-.5.9-1.2 1.6-2.1 2.1c-1 .5-2 .8-3 .8c-1.8 0-3.2-.6-4.3-1.7c-1-1.1-1.6-2.7-1.6-4.9zm2.2 0c0 1.6.3 2.8 1 3.6c.7.8 1.6 1.2 2.7 1.2c1 0 1.9-.4 2.6-1.2c.7-.8 1-2 1-3.6c0-1.6-.3-2.7-1-3.5c-.7-.8-1.6-1.2-2.6-1.2c-1.1 0-2 .4-2.7 1.2c-.7.8-1 2-1 3.5zm11.6 7.3c0 0 2 .3 2 .3c.1.6.3 1.1.7 1.4c.6.4 1.3.6 2.2.6c1 0 1.7-.2 2.2-.6c.6-.4.9-.9 1.1-1.6c.1-.5.2-1.4.2-2.8c-1 1.1-2.1 1.7-3.5 1.7c-1.7 0-3-.6-3.9-1.9c-1-1.2-1.5-2.7-1.5-4.4c0-1.2.3-2.3.7-3.3c.4-1 1-1.8 1.9-2.3c.8-.6 1.7-.9 2.8-.9c1.5 0 2.7.6 3.7 1.8c-.03.03 0-1.5 0-1.5l1.9 0c0 0 .01 10.79 0 10.8c0 1.9-.2 3.3-.6 4.1c-.4.8-1 1.5-1.9 1.9c-.8.5-1.9.7-3.1.7c-1.5 0-2.7-.3-3.6-1c-.9-.6-1.4-1.7-1.3-3zm1.7-7.5c0 1.7.3 2.9 1 3.6c.6.8 1.4 1.1 2.4 1.1c1 0 1.8-.3 2.5-1.1c.6-.7.9-1.9.9-3.5c0-1.5-.3-2.7-1-3.4c-.6-.8-1.5-1.2-2.4-1.2c-1 0-1.7.4-2.4 1.1c-.7.8-1 1.9-1 3.4zm13.3 11.5c-.4 0-.9-.1-1.4-.2c0 0-.2-2-.2-2c.4.1.8.2 1.2.2c.4 0 .8-.1 1.1-.3c.3-.1.5-.3.7-.6c.1-.2.3-.8.6-1.6c.1-.1.1-.3.2-.5c.03 0-4.7-12.5-4.7-12.5l2.3 0c0 0 2.57 7.23 2.6 7.2c.3.9.6 1.9.9 2.9c.2-1 .5-1.9.8-2.8c.04-.02 2.7-7.3 2.7-7.3l2.1 0c0 0-4.73 12.68-4.7 12.7c-.5 1.4-.9 2.3-1.2 2.8c-.4.7-.8 1.2-1.3 1.5c-.5.4-1.1.5-1.7.5c0 0 0 0 0 0z" stroke="none" fill="#003a5c"/></g></svg>