<?xml version="1.0" standalone="no"?>
<!DOCTYPE svg PUBLIC "-//W3C//DTD SVG 1.1//EN" "http://www.w3.org/Graphics/SVG/1.1/DTD/svg11.dtd">
<svg xmlns="http://www.w3.org/2000/svg" version="1.1" width="280px" height="53.8px" viewBox="0 -1 280 53.8" style="top:-1px">
  <desc>Sustainable Operations</desc>
  <defs/>
  <g id="Polygon57490">
    <path d="M 40.7 26.4 C 40.7 26.4 43.2 26.1 43.2 26.1 C 43.3 27 43.6 27.6 44.1 28 C 44.6 28.4 45.2 28.6 46 28.6 C 46.8 28.6 47.5 28.4 47.9 28.1 C 48.3 27.7 48.5 27.3 48.5 26.8 C 48.5 26.5 48.4 26.2 48.3 26 C 48.1 25.8 47.8 25.6 47.3 25.5 C 47 25.4 46.3 25.2 45.2 24.9 C 43.8 24.6 42.9 24.1 42.3 23.6 C 41.5 22.9 41.1 22.1 41.1 21 C 41.1 20.4 41.3 19.8 41.7 19.2 C 42 18.6 42.6 18.2 43.3 17.9 C 44 17.6 44.8 17.4 45.8 17.4 C 47.4 17.4 48.7 17.8 49.5 18.5 C 50.3 19.2 50.7 20.2 50.8 21.4 C 50.8 21.4 48.2 21.5 48.2 21.5 C 48 20.8 47.8 20.3 47.4 20 C 47.1 19.7 46.5 19.6 45.8 19.6 C 45 19.6 44.4 19.8 44 20.1 C 43.7 20.3 43.6 20.5 43.6 20.9 C 43.6 21.2 43.7 21.4 44 21.6 C 44.3 21.9 45.1 22.2 46.4 22.5 C 47.6 22.8 48.6 23.1 49.2 23.4 C 49.8 23.8 50.3 24.2 50.6 24.7 C 51 25.3 51.1 26 51.1 26.8 C 51.1 27.5 50.9 28.2 50.5 28.9 C 50.1 29.5 49.5 30 48.8 30.3 C 48 30.6 47.1 30.8 46 30.8 C 44.3 30.8 43.1 30.4 42.2 29.7 C 41.3 28.9 40.8 27.8 40.7 26.4 Z M 59.4 30.6 C 59.4 30.6 59.44 29.15 59.4 29.2 C 59.1 29.7 58.7 30 58.1 30.3 C 57.5 30.6 57 30.8 56.3 30.8 C 55.7 30.8 55.2 30.6 54.7 30.4 C 54.2 30.1 53.8 29.7 53.6 29.2 C 53.4 28.7 53.2 28 53.2 27.1 C 53.25 27.12 53.2 21.2 53.2 21.2 L 55.7 21.2 C 55.7 21.2 55.71 25.51 55.7 25.5 C 55.7 26.8 55.8 27.6 55.9 27.9 C 55.9 28.2 56.1 28.5 56.3 28.6 C 56.6 28.8 56.9 28.9 57.3 28.9 C 57.7 28.9 58.1 28.8 58.4 28.5 C 58.7 28.3 59 28 59.1 27.7 C 59.2 27.3 59.3 26.5 59.3 25.2 C 59.27 25.16 59.3 21.2 59.3 21.2 L 61.7 21.2 L 61.7 30.6 L 59.4 30.6 Z M 63.4 27.9 C 63.4 27.9 65.9 27.5 65.9 27.5 C 66 28 66.2 28.4 66.5 28.6 C 66.9 28.9 67.3 29 67.9 29 C 68.5 29 69 28.9 69.3 28.6 C 69.6 28.5 69.7 28.2 69.7 28 C 69.7 27.8 69.6 27.6 69.5 27.5 C 69.4 27.4 69.1 27.3 68.7 27.2 C 66.7 26.7 65.4 26.3 64.9 26 C 64.1 25.5 63.8 24.8 63.8 23.9 C 63.8 23.1 64.1 22.4 64.7 21.8 C 65.4 21.3 66.4 21 67.7 21 C 69 21 69.9 21.2 70.5 21.6 C 71.2 22 71.6 22.7 71.8 23.5 C 71.8 23.5 69.5 23.9 69.5 23.9 C 69.4 23.5 69.2 23.3 68.9 23.1 C 68.7 22.9 68.3 22.8 67.7 22.8 C 67.1 22.8 66.6 22.9 66.3 23.1 C 66.2 23.2 66.1 23.4 66.1 23.6 C 66.1 23.7 66.1 23.9 66.3 24 C 66.5 24.2 67.3 24.4 68.6 24.7 C 69.9 25 70.8 25.4 71.4 25.8 C 71.9 26.2 72.1 26.8 72.1 27.6 C 72.1 28.5 71.8 29.2 71.1 29.8 C 70.4 30.5 69.3 30.8 67.9 30.8 C 66.6 30.8 65.6 30.5 64.9 30 C 64.1 29.5 63.7 28.8 63.4 27.9 Z M 78.6 21.2 L 78.6 23.2 L 76.9 23.2 C 76.9 23.2 76.9 26.95 76.9 26.9 C 76.9 27.7 76.9 28.2 76.9 28.3 C 77 28.4 77.1 28.5 77.2 28.6 C 77.3 28.7 77.4 28.7 77.6 28.7 C 77.8 28.7 78.1 28.6 78.6 28.5 C 78.6 28.5 78.8 30.4 78.8 30.4 C 78.2 30.6 77.6 30.8 76.8 30.8 C 76.4 30.8 76 30.7 75.6 30.5 C 75.3 30.4 75 30.2 74.8 30 C 74.7 29.7 74.6 29.4 74.5 29 C 74.4 28.7 74.4 28.1 74.4 27.3 C 74.42 27.26 74.4 23.2 74.4 23.2 L 73.3 23.2 L 73.3 21.2 L 74.4 21.2 L 74.4 19.4 L 76.9 17.9 L 76.9 21.2 L 78.6 21.2 Z M 82.1 24.1 C 82.1 24.1 79.9 23.7 79.9 23.7 C 80.2 22.8 80.6 22.1 81.2 21.7 C 81.8 21.2 82.7 21 83.9 21 C 85 21 85.9 21.1 86.4 21.4 C 86.9 21.7 87.3 22 87.5 22.4 C 87.8 22.8 87.9 23.5 87.9 24.6 C 87.9 24.6 87.8 27.5 87.8 27.5 C 87.8 28.3 87.9 28.9 88 29.3 C 88 29.7 88.2 30.1 88.4 30.6 C 88.4 30.6 86 30.6 86 30.6 C 85.9 30.4 85.8 30.1 85.7 29.8 C 85.7 29.7 85.7 29.6 85.6 29.5 C 85.2 29.9 84.8 30.3 84.3 30.5 C 83.8 30.7 83.3 30.8 82.8 30.8 C 81.8 30.8 81 30.5 80.5 30 C 79.9 29.5 79.6 28.8 79.6 28 C 79.6 27.5 79.8 27 80 26.6 C 80.3 26.2 80.6 25.9 81.1 25.6 C 81.5 25.4 82.2 25.2 83 25.1 C 84.2 24.9 85 24.6 85.4 24.5 C 85.4 24.5 85.4 24.2 85.4 24.2 C 85.4 23.7 85.3 23.4 85.1 23.2 C 84.9 23 84.4 22.9 83.8 22.9 C 83.3 22.9 83 23 82.7 23.2 C 82.5 23.3 82.3 23.6 82.1 24.1 Z M 85.4 26.1 C 85.1 26.2 84.6 26.3 83.9 26.4 C 83.3 26.6 82.8 26.7 82.6 26.9 C 82.3 27.1 82.1 27.4 82.1 27.7 C 82.1 28.1 82.2 28.4 82.5 28.6 C 82.8 28.9 83.1 29 83.5 29 C 83.9 29 84.4 28.9 84.8 28.6 C 85.1 28.4 85.3 28.1 85.4 27.8 C 85.4 27.6 85.4 27.2 85.4 26.6 C 85.4 26.6 85.4 26.1 85.4 26.1 Z M 90.3 20 L 90.3 17.7 L 92.8 17.7 L 92.8 20 L 90.3 20 Z M 90.3 30.6 L 90.3 21.2 L 92.8 21.2 L 92.8 30.6 L 90.3 30.6 Z M 103.8 30.6 L 101.3 30.6 C 101.3 30.6 101.33 25.79 101.3 25.8 C 101.3 24.8 101.3 24.1 101.2 23.8 C 101.1 23.5 100.9 23.3 100.7 23.1 C 100.4 23 100.1 22.9 99.8 22.9 C 99.4 22.9 99 23 98.6 23.2 C 98.3 23.5 98.1 23.8 98 24.2 C 97.8 24.6 97.8 25.3 97.8 26.3 C 97.76 26.32 97.8 30.6 97.8 30.6 L 95.3 30.6 L 95.3 21.2 L 97.6 21.2 C 97.6 21.2 97.59 22.59 97.6 22.6 C 98.4 21.5 99.4 21 100.7 21 C 101.2 21 101.7 21.1 102.2 21.3 C 102.6 21.5 102.9 21.7 103.2 22.1 C 103.4 22.4 103.6 22.7 103.7 23.1 C 103.8 23.5 103.8 24 103.8 24.8 C 103.8 24.75 103.8 30.6 103.8 30.6 Z M 108.2 24.1 C 108.2 24.1 105.9 23.7 105.9 23.7 C 106.2 22.8 106.6 22.1 107.2 21.7 C 107.8 21.2 108.7 21 110 21 C 111.1 21 111.9 21.1 112.4 21.4 C 113 21.7 113.3 22 113.6 22.4 C 113.8 22.8 113.9 23.5 113.9 24.6 C 113.9 24.6 113.9 27.5 113.9 27.5 C 113.9 28.3 113.9 28.9 114 29.3 C 114.1 29.7 114.2 30.1 114.4 30.6 C 114.4 30.6 112 30.6 112 30.6 C 111.9 30.4 111.8 30.1 111.7 29.8 C 111.7 29.7 111.7 29.6 111.6 29.5 C 111.2 29.9 110.8 30.3 110.3 30.5 C 109.8 30.7 109.3 30.8 108.8 30.8 C 107.8 30.8 107 30.5 106.5 30 C 105.9 29.5 105.7 28.8 105.7 28 C 105.7 27.5 105.8 27 106 26.6 C 106.3 26.2 106.6 25.9 107.1 25.6 C 107.5 25.4 108.2 25.2 109.1 25.1 C 110.2 24.9 111 24.6 111.5 24.5 C 111.5 24.5 111.5 24.2 111.5 24.2 C 111.5 23.7 111.3 23.4 111.1 23.2 C 110.9 23 110.4 22.9 109.8 22.9 C 109.3 22.9 109 23 108.7 23.2 C 108.5 23.3 108.3 23.6 108.2 24.1 Z M 111.5 26.1 C 111.1 26.2 110.6 26.3 110 26.4 C 109.3 26.6 108.8 26.7 108.6 26.9 C 108.3 27.1 108.1 27.4 108.1 27.7 C 108.1 28.1 108.3 28.4 108.5 28.6 C 108.8 28.9 109.1 29 109.5 29 C 109.9 29 110.4 28.9 110.8 28.6 C 111.1 28.4 111.3 28.1 111.4 27.8 C 111.4 27.6 111.5 27.2 111.5 26.6 C 111.5 26.6 111.5 26.1 111.5 26.1 Z M 116.2 30.6 L 116.2 17.7 L 118.7 17.7 C 118.7 17.7 118.68 22.31 118.7 22.3 C 119.4 21.4 120.3 21 121.4 21 C 122.5 21 123.5 21.4 124.2 22.2 C 125 23.1 125.3 24.2 125.3 25.8 C 125.3 27.4 124.9 28.6 124.2 29.5 C 123.4 30.3 122.5 30.8 121.4 30.8 C 120.9 30.8 120.4 30.6 119.8 30.4 C 119.3 30.1 118.9 29.7 118.5 29.2 C 118.5 29.18 118.5 30.6 118.5 30.6 L 116.2 30.6 Z M 118.7 25.7 C 118.7 26.6 118.8 27.4 119.1 27.8 C 119.5 28.5 120.1 28.8 120.8 28.8 C 121.4 28.8 121.8 28.6 122.2 28.1 C 122.6 27.6 122.8 26.9 122.8 25.9 C 122.8 24.8 122.6 24.1 122.2 23.6 C 121.8 23.1 121.3 22.9 120.7 22.9 C 120.1 22.9 119.6 23.1 119.3 23.6 C 118.9 24 118.7 24.7 118.7 25.7 Z M 127.3 30.6 L 127.3 17.7 L 129.8 17.7 L 129.8 30.6 L 127.3 30.6 Z M 137.7 27.6 C 137.7 27.6 140.2 28 140.2 28 C 139.9 28.9 139.4 29.6 138.7 30.1 C 138 30.5 137.1 30.8 136.1 30.8 C 134.5 30.8 133.3 30.2 132.5 29.2 C 131.9 28.3 131.6 27.3 131.6 26 C 131.6 24.4 132 23.2 132.8 22.3 C 133.6 21.4 134.6 21 135.9 21 C 137.3 21 138.4 21.5 139.2 22.4 C 140 23.3 140.3 24.7 140.3 26.6 C 140.3 26.6 134.1 26.6 134.1 26.6 C 134.1 27.3 134.3 27.9 134.7 28.3 C 135.1 28.7 135.6 28.9 136.1 28.9 C 136.5 28.9 136.9 28.8 137.1 28.6 C 137.4 28.4 137.6 28.1 137.7 27.6 Z M 137.9 25.1 C 137.8 24.4 137.7 23.8 137.3 23.5 C 137 23.1 136.5 22.9 136 22.9 C 135.5 22.9 135 23.1 134.7 23.5 C 134.3 23.9 134.2 24.4 134.2 25.1 C 134.2 25.1 137.9 25.1 137.9 25.1 Z M 146.8 24.2 C 146.8 22.9 147 21.8 147.4 20.9 C 147.7 20.2 148.1 19.6 148.6 19.1 C 149.1 18.6 149.7 18.2 150.3 18 C 151.1 17.6 152 17.4 153 17.4 C 154.9 17.4 156.5 18 157.6 19.2 C 158.7 20.4 159.3 22 159.3 24.1 C 159.3 26.2 158.7 27.8 157.6 29 C 156.5 30.2 155 30.8 153.1 30.8 C 151.2 30.8 149.6 30.2 148.5 29 C 147.4 27.8 146.8 26.2 146.8 24.2 Z M 149.5 24.1 C 149.5 25.6 149.8 26.7 150.5 27.4 C 151.2 28.2 152 28.5 153.1 28.5 C 154.1 28.5 155 28.2 155.6 27.4 C 156.3 26.7 156.6 25.6 156.6 24.1 C 156.6 22.6 156.3 21.5 155.7 20.8 C 155 20 154.1 19.7 153.1 19.7 C 152 19.7 151.1 20 150.5 20.8 C 149.8 21.5 149.5 22.6 149.5 24.1 Z M 161.3 21.2 L 163.6 21.2 C 163.6 21.2 163.56 22.59 163.6 22.6 C 163.9 22.1 164.3 21.7 164.8 21.4 C 165.3 21.2 165.8 21 166.5 21 C 167.5 21 168.5 21.4 169.2 22.3 C 170 23.1 170.4 24.3 170.4 25.8 C 170.4 27.4 170 28.6 169.2 29.5 C 168.5 30.3 167.5 30.8 166.4 30.8 C 165.9 30.8 165.5 30.7 165 30.5 C 164.6 30.3 164.2 29.9 163.7 29.4 C 163.72 29.4 163.7 34.1 163.7 34.1 L 161.3 34.1 L 161.3 21.2 Z M 163.7 25.7 C 163.7 26.8 163.9 27.6 164.3 28.1 C 164.7 28.6 165.2 28.8 165.8 28.8 C 166.4 28.8 166.9 28.6 167.3 28.1 C 167.7 27.7 167.8 26.9 167.8 25.9 C 167.8 24.9 167.6 24.1 167.3 23.7 C 166.9 23.2 166.4 23 165.8 23 C 165.2 23 164.7 23.2 164.3 23.7 C 163.9 24.1 163.7 24.8 163.7 25.7 Z M 177.7 27.6 C 177.7 27.6 180.2 28 180.2 28 C 179.9 28.9 179.4 29.6 178.7 30.1 C 178 30.5 177.2 30.8 176.1 30.8 C 174.5 30.8 173.3 30.2 172.5 29.2 C 171.9 28.3 171.6 27.3 171.6 26 C 171.6 24.4 172 23.2 172.8 22.3 C 173.6 21.4 174.6 21 175.9 21 C 177.3 21 178.4 21.5 179.2 22.4 C 180 23.3 180.4 24.7 180.3 26.6 C 180.3 26.6 174.1 26.6 174.1 26.6 C 174.1 27.3 174.3 27.9 174.7 28.3 C 175.1 28.7 175.6 28.9 176.2 28.9 C 176.5 28.9 176.9 28.8 177.1 28.6 C 177.4 28.4 177.6 28.1 177.7 27.6 Z M 177.9 25.1 C 177.8 24.4 177.7 23.8 177.3 23.5 C 177 23.1 176.5 22.9 176 22.9 C 175.5 22.9 175 23.1 174.7 23.5 C 174.3 23.9 174.2 24.4 174.2 25.1 C 174.2 25.1 177.9 25.1 177.9 25.1 Z M 184.7 30.6 L 182.2 30.6 L 182.2 21.2 L 184.5 21.2 C 184.5 21.2 184.52 22.55 184.5 22.5 C 184.9 21.9 185.3 21.5 185.6 21.3 C 185.9 21.1 186.2 21 186.6 21 C 187.2 21 187.7 21.2 188.3 21.5 C 188.3 21.5 187.5 23.6 187.5 23.6 C 187.1 23.4 186.7 23.2 186.3 23.2 C 186 23.2 185.7 23.3 185.5 23.5 C 185.2 23.7 185 24 184.9 24.5 C 184.8 25 184.7 26.1 184.7 27.7 C 184.69 27.67 184.7 30.6 184.7 30.6 Z M 191.2 24.1 C 191.2 24.1 188.9 23.7 188.9 23.7 C 189.2 22.8 189.6 22.1 190.2 21.7 C 190.9 21.2 191.8 21 193 21 C 194.1 21 194.9 21.1 195.4 21.4 C 196 21.7 196.4 22 196.6 22.4 C 196.8 22.8 196.9 23.5 196.9 24.6 C 196.9 24.6 196.9 27.5 196.9 27.5 C 196.9 28.3 196.9 28.9 197 29.3 C 197.1 29.7 197.2 30.1 197.4 30.6 C 197.4 30.6 195 30.6 195 30.6 C 194.9 30.4 194.9 30.1 194.8 29.8 C 194.7 29.7 194.7 29.6 194.7 29.5 C 194.3 29.9 193.8 30.3 193.3 30.5 C 192.8 30.7 192.3 30.8 191.8 30.8 C 190.8 30.8 190.1 30.5 189.5 30 C 189 29.5 188.7 28.8 188.7 28 C 188.7 27.5 188.8 27 189.1 26.6 C 189.3 26.2 189.7 25.9 190.1 25.6 C 190.6 25.4 191.2 25.2 192.1 25.1 C 193.2 24.9 194 24.6 194.5 24.5 C 194.5 24.5 194.5 24.2 194.5 24.2 C 194.5 23.7 194.4 23.4 194.1 23.2 C 193.9 23 193.5 22.9 192.8 22.9 C 192.4 22.9 192 23 191.8 23.2 C 191.5 23.3 191.3 23.6 191.2 24.1 Z M 194.5 26.1 C 194.2 26.2 193.7 26.3 193 26.4 C 192.3 26.6 191.8 26.7 191.6 26.9 C 191.3 27.1 191.2 27.4 191.2 27.7 C 191.2 28.1 191.3 28.4 191.5 28.6 C 191.8 28.9 192.1 29 192.5 29 C 193 29 193.4 28.9 193.8 28.6 C 194.1 28.4 194.3 28.1 194.4 27.8 C 194.5 27.6 194.5 27.2 194.5 26.6 C 194.5 26.6 194.5 26.1 194.5 26.1 Z M 203.6 21.2 L 203.6 23.2 L 201.9 23.2 C 201.9 23.2 201.94 26.95 201.9 26.9 C 201.9 27.7 202 28.2 202 28.3 C 202 28.4 202.1 28.5 202.2 28.6 C 202.3 28.7 202.5 28.7 202.6 28.7 C 202.9 28.7 203.2 28.6 203.6 28.5 C 203.6 28.5 203.8 30.4 203.8 30.4 C 203.3 30.6 202.6 30.8 201.9 30.8 C 201.4 30.8 201 30.7 200.7 30.5 C 200.3 30.4 200.1 30.2 199.9 30 C 199.7 29.7 199.6 29.4 199.5 29 C 199.5 28.7 199.5 28.1 199.5 27.3 C 199.46 27.26 199.5 23.2 199.5 23.2 L 198.3 23.2 L 198.3 21.2 L 199.5 21.2 L 199.5 19.4 L 201.9 17.9 L 201.9 21.2 L 203.6 21.2 Z M 205.3 20 L 205.3 17.7 L 207.8 17.7 L 207.8 20 L 205.3 20 Z M 205.3 30.6 L 205.3 21.2 L 207.8 21.2 L 207.8 30.6 L 205.3 30.6 Z M 209.8 25.8 C 209.8 24.9 210 24.1 210.4 23.4 C 210.8 22.6 211.4 22 212.1 21.6 C 212.8 21.2 213.7 21 214.6 21 C 216 21 217.1 21.5 218 22.4 C 219 23.3 219.4 24.5 219.4 25.9 C 219.4 27.3 218.9 28.4 218 29.4 C 217.1 30.3 216 30.8 214.6 30.8 C 213.7 30.8 212.9 30.6 212.1 30.2 C 211.4 29.8 210.8 29.2 210.4 28.5 C 210 27.7 209.8 26.8 209.8 25.8 Z M 212.3 25.9 C 212.3 26.8 212.5 27.5 213 28 C 213.4 28.5 213.9 28.8 214.6 28.8 C 215.2 28.8 215.8 28.5 216.2 28 C 216.6 27.5 216.9 26.8 216.9 25.9 C 216.9 25 216.6 24.3 216.2 23.8 C 215.8 23.3 215.2 23 214.6 23 C 213.9 23 213.4 23.3 213 23.8 C 212.5 24.3 212.3 25 212.3 25.9 Z M 229.8 30.6 L 227.4 30.6 C 227.4 30.6 227.36 25.79 227.4 25.8 C 227.4 24.8 227.3 24.1 227.2 23.8 C 227.1 23.5 226.9 23.3 226.7 23.1 C 226.4 23 226.2 22.9 225.8 22.9 C 225.4 22.9 225 23 224.7 23.2 C 224.3 23.5 224.1 23.8 224 24.2 C 223.9 24.6 223.8 25.3 223.8 26.3 C 223.79 26.32 223.8 30.6 223.8 30.6 L 221.3 30.6 L 221.3 21.2 L 223.6 21.2 C 223.6 21.2 223.61 22.59 223.6 22.6 C 224.4 21.5 225.5 21 226.7 21 C 227.2 21 227.7 21.1 228.2 21.3 C 228.6 21.5 229 21.7 229.2 22.1 C 229.4 22.4 229.6 22.7 229.7 23.1 C 229.8 23.5 229.8 24 229.8 24.8 C 229.83 24.75 229.8 30.6 229.8 30.6 Z M 231.5 27.9 C 231.5 27.9 233.9 27.5 233.9 27.5 C 234 28 234.3 28.4 234.6 28.6 C 234.9 28.9 235.4 29 235.9 29 C 236.6 29 237.1 28.9 237.4 28.6 C 237.6 28.5 237.7 28.2 237.7 28 C 237.7 27.8 237.6 27.6 237.5 27.5 C 237.4 27.4 237.1 27.3 236.7 27.2 C 234.7 26.7 233.4 26.3 232.9 26 C 232.2 25.5 231.8 24.8 231.8 23.9 C 231.8 23.1 232.1 22.4 232.8 21.8 C 233.4 21.3 234.4 21 235.7 21 C 237 21 238 21.2 238.6 21.6 C 239.2 22 239.6 22.7 239.9 23.5 C 239.9 23.5 237.5 23.9 237.5 23.9 C 237.4 23.5 237.2 23.3 237 23.1 C 236.7 22.9 236.3 22.8 235.8 22.8 C 235.1 22.8 234.7 22.9 234.4 23.1 C 234.2 23.2 234.1 23.4 234.1 23.6 C 234.1 23.7 234.2 23.9 234.3 24 C 234.6 24.2 235.3 24.4 236.7 24.7 C 238 25 238.9 25.4 239.4 25.8 C 239.9 26.2 240.2 26.8 240.2 27.6 C 240.2 28.5 239.8 29.2 239.1 29.8 C 238.4 30.5 237.3 30.8 235.9 30.8 C 234.7 30.8 233.7 30.5 232.9 30 C 232.2 29.5 231.7 28.8 231.5 27.9 Z " stroke="none" fill="#fff"/>
  </g>
</svg>