<?xml version="1.0" standalone="no"?><!DOCTYPE svg PUBLIC "-//W3C//DTD SVG 1.1//EN" "http://www.w3.org/Graphics/SVG/1.1/DTD/svg11.dtd"><svg xmlns="http://www.w3.org/2000/svg" version="1.1" width="133.2px" height="43.6px" viewBox="0 -4 133.2 43.6" style="top:-4px"><desc>Physical Servers Powered by Renewable Energy</desc><defs/><g id="Polygon69732"><path d="m.6 29.3l0-5.2c0 0 1.94 0 1.9 0c.4 0 .7 0 .8 0c.3.1.5.2.7.3c.2.1.3.3.4.5c.1.2.2.5.2.7c0 .5-.2.8-.5 1.1c-.2.4-.8.5-1.5.5c.01.01-1.3 0-1.3 0l0 2.1l-.7 0zm.7-2.7c0 0 1.32-.01 1.3 0c.5 0 .8-.1 1-.3c.2-.1.3-.4.3-.7c0-.2-.1-.4-.2-.5c-.1-.2-.3-.3-.4-.3c-.2-.1-.4-.1-.7-.1c0 .02-1.3 0-1.3 0l0 1.9zm3.8.8c0-.7.2-1.2.6-1.5c.3-.3.7-.4 1.2-.4c.5 0 1 .1 1.3.5c.3.3.5.8.5 1.4c0 .5-.1.9-.2 1.1c-.2.3-.4.5-.7.7c-.2.2-.6.2-.9.2c-.5 0-.9-.1-1.3-.5c-.3-.3-.5-.8-.5-1.5zm.7 0c0 .5.1.9.3 1.1c.2.3.5.4.8.4c.3 0 .6-.1.8-.4c.2-.2.3-.6.3-1.1c0-.4-.1-.8-.3-1c-.2-.3-.5-.4-.8-.4c-.3 0-.6.1-.8.4c-.2.2-.3.6-.3 1zm4.4 1.9l-1.2-3.8l.7 0l.6 2.2c0 0 .18.85.2.9c0-.1.1-.3.2-.8c-.02-.03.6-2.3.6-2.3l.6 0l.6 2.2l.2.8l.2-.8l.7-2.2l.6 0l-1.2 3.8l-.7 0l-.6-2.2l-.1-.7l-.8 2.9l-.6 0zm7.1-1.2c0 0 .7.1.7.1c-.1.4-.3.7-.6.9c-.3.2-.6.3-1.1.3c-.5 0-1-.1-1.3-.5c-.3-.3-.5-.8-.5-1.4c0-.7.2-1.2.5-1.5c.4-.4.8-.5 1.3-.5c.5 0 .9.1 1.2.5c.4.3.5.8.5 1.4c0 .1 0 .1 0 .2c0 0-2.8 0-2.8 0c0 .4.1.7.3 1c.3.2.5.3.8.3c.3 0 .5-.1.6-.2c.2-.1.3-.3.4-.6zm-2.1-1c0 0 2.2 0 2.2 0c-.1-.3-.2-.6-.3-.7c-.2-.3-.5-.4-.8-.4c-.3 0-.5.1-.7.3c-.2.2-.3.4-.4.8zm3.6 2.2l0-3.8l.6 0c0 0-.01.62 0 .6c.1-.3.3-.4.4-.5c.1-.1.3-.1.4-.1c.2 0 .5 0 .7.2c0 0-.2.6-.2.6c-.2-.1-.4-.2-.5-.2c-.2 0-.3.1-.4.1c-.1.1-.2.3-.2.4c-.1.2-.1.5-.1.8c-.04-.05 0 1.9 0 1.9l-.7 0zm5.1-1.2c0 0 .6.1.6.1c-.1.4-.3.7-.6.9c-.2.2-.6.3-1 .3c-.6 0-1-.1-1.4-.5c-.3-.3-.5-.8-.5-1.4c0-.7.2-1.2.5-1.5c.4-.4.8-.5 1.3-.5c.5 0 .9.1 1.3.5c.3.3.5.8.5 1.4c0 .1 0 .1-.1.2c0 0-2.8 0-2.8 0c0 .4.2.7.4 1c.2.2.4.3.8.3c.2 0 .4-.1.6-.2c.1-.1.3-.3.4-.6zm-2.2-1c0 0 2.2 0 2.2 0c-.1-.3-.1-.6-.3-.7c-.2-.3-.4-.4-.8-.4c-.3 0-.5.1-.7.3c-.2.2-.3.4-.4.8zm6.1 2.2c0 0 .01-.44 0-.4c-.2.3-.6.5-1.1.5c-.3 0-.5-.1-.8-.2c-.2-.2-.4-.4-.6-.7c-.1-.3-.2-.7-.2-1.1c0-.3.1-.7.2-1c.1-.3.3-.5.6-.7c.2-.2.5-.2.8-.2c.2 0 .4 0 .6.1c.2.1.3.2.5.4c-.04-.02 0-1.9 0-1.9l.6 0l0 5.2l-.6 0zm-2-1.9c0 .5.1.9.3 1.1c.2.3.4.4.7.4c.3 0 .5-.1.7-.3c.2-.3.3-.6.3-1.1c0-.5-.1-.9-.3-1.1c-.2-.3-.4-.4-.7-.4c-.3 0-.6.1-.7.3c-.2.3-.3.6-.3 1.1zm6.2 1.9l-.6 0l0-5.2l.7 0c0 0-.01 1.87 0 1.9c.3-.4.6-.5 1-.5c.3 0 .5 0 .7.1c.2.1.4.2.5.4c.1.2.3.4.3.6c.1.3.1.5.1.8c0 .6-.1 1.1-.4 1.5c-.4.4-.7.5-1.2.5c-.4 0-.8-.2-1.1-.5c.05-.03 0 .4 0 .4zm0-1.9c0 .5.1.8.2 1c.2.3.5.5.8.5c.3 0 .6-.1.8-.4c.2-.2.3-.6.3-1.1c0-.5-.1-.8-.3-1.1c-.2-.2-.4-.3-.7-.3c-.3 0-.5.1-.8.4c-.2.2-.3.6-.3 1zm3.9 3.5c-.1 0-.2 0-.4-.1c0 0-.1-.6-.1-.6c.2 0 .3.1.4.1c.1 0 .3-.1.3-.1c.1-.1.2-.1.3-.2c0-.1.1-.2.1-.5c.1 0 .1-.1.1-.1c.01-.05-1.4-3.9-1.4-3.9l.7 0c0 0 .75 2.24.7 2.2c.2.3.2.6.3.9c.1-.3.2-.6.3-.8c-.01-.04.8-2.3.8-2.3l.6 0c0 0-1.4 3.91-1.4 3.9c-.2.4-.3.7-.4.9c-.1.2-.2.3-.4.4c-.1.1-.3.2-.5.2c0 0 0 0 0 0zm5.4-1.6l0-5.2c0 0 2.35 0 2.4 0c.4 0 .8 0 1 .1c.3.1.5.3.6.5c.1.3.2.5.2.8c0 .4-.1.7-.3 1c-.3.2-.7.4-1.2.5c.2 0 .4.1.5.2c.2.2.4.4.5.7c.04.02.9 1.4.9 1.4l-.8 0c0 0-.72-1.05-.7-1c-.2-.4-.4-.6-.5-.8c-.2-.1-.3-.3-.4-.3c-.1-.1-.2-.1-.3-.2c-.1 0-.2 0-.4 0c.02.01-.8 0-.8 0l0 2.3l-.7 0zm.7-2.9c0 0 1.51.01 1.5 0c.3 0 .6 0 .8-.1c.1-.1.3-.2.4-.3c.1-.1.1-.3.1-.5c0-.2-.1-.4-.3-.6c-.1-.1-.4-.2-.8-.2c-.02-.02-1.7 0-1.7 0l0 1.7zm7.1 1.7c0 0 .7.1.7.1c-.1.4-.3.7-.6.9c-.3.2-.6.3-1.1.3c-.5 0-1-.1-1.3-.5c-.3-.3-.5-.8-.5-1.4c0-.7.2-1.2.5-1.5c.3-.4.8-.5 1.3-.5c.5 0 .9.1 1.2.5c.4.3.5.8.5 1.4c0 .1 0 .1 0 .2c0 0-2.8 0-2.8 0c0 .4.1.7.3 1c.2.2.5.3.8.3c.3 0 .5-.1.6-.2c.2-.1.3-.3.4-.6zm-2.1-1c0 0 2.1 0 2.1 0c0-.3-.1-.6-.2-.7c-.2-.3-.5-.4-.8-.4c-.3 0-.6.1-.8.3c-.2.2-.3.4-.3.8zm3.6 2.2l0-3.8l.6 0c0 0-.02.58 0 .6c.3-.4.7-.6 1.2-.6c.2 0 .4 0 .6.1c.2.1.4.2.5.3c.1.1.1.3.2.5c0 .1 0 .3 0 .6c-.01.01 0 2.3 0 2.3l-.7 0c0 0 .05-2.27 0-2.3c0-.2 0-.4 0-.6c-.1-.1-.2-.2-.3-.3c-.1 0-.3-.1-.4-.1c-.3 0-.6.1-.8.3c-.2.2-.3.5-.3 1c.05-.03 0 2 0 2l-.6 0zm6.7-1.2c0 0 .6.1.6.1c-.1.4-.3.7-.5.9c-.3.2-.7.3-1.1.3c-.6 0-1-.1-1.3-.5c-.4-.3-.5-.8-.5-1.4c0-.7.1-1.2.5-1.5c.3-.4.7-.5 1.2-.5c.5 0 1 .1 1.3.5c.3.3.5.8.5 1.4c0 .1 0 .1 0 .2c0 0-2.9 0-2.9 0c.1.4.2.7.4 1c.2.2.5.3.8.3c.2 0 .4-.1.6-.2c.2-.1.3-.3.4-.6zm-2.1-1c0 0 2.1 0 2.1 0c0-.3-.1-.6-.3-.7c-.2-.3-.4-.4-.8-.4c-.2 0-.5.1-.7.3c-.2.2-.3.4-.3.8zm4.3 2.2l-1.2-3.8l.7 0l.6 2.2c0 0 .19.85.2.9c0-.1.1-.3.2-.8c-.01-.03.6-2.3.6-2.3l.7 0l.5 2.2l.2.8l.2-.8l.7-2.2l.6 0l-1.2 3.8l-.6 0l-.7-2.2l-.1-.7l-.8 2.9l-.6 0zm7.2 0c-.1-.1-.2-.2-.2-.4c-.2.2-.4.3-.7.4c-.2.1-.4.1-.7.1c-.4 0-.7-.1-.9-.3c-.3-.2-.4-.4-.4-.8c0-.1.1-.3.2-.5c0-.1.2-.2.3-.3c.1-.1.3-.2.5-.2c.1-.1.3-.1.5-.1c.5-.1.9-.2 1.2-.3c0-.1 0-.1 0-.1c0-.3-.1-.5-.2-.6c-.2-.1-.4-.2-.7-.2c-.3 0-.6 0-.7.1c-.2.2-.3.3-.3.6c0 0-.7-.1-.7-.1c.1-.2.2-.5.3-.6c.2-.2.3-.3.6-.4c.2-.1.5-.1.9-.1c.3 0 .5 0 .7.1c.3 0 .4.1.5.3c.1.1.2.2.2.4c0 .1 0 .3 0 .6c0 0 0 .9 0 .9c0 .6 0 .9.1 1.1c0 .1.1.3.1.4c.03.04-.6 0-.6 0c0 0-.04.04 0 0zm-.2-1.9c-.3.1-.6.2-1.1.3c-.2 0-.4.1-.5.1c-.1.1-.2.1-.3.2c-.1.1-.1.2-.1.3c0 .2.1.3.2.5c.1.1.3.1.6.1c.2 0 .5 0 .6-.1c.2-.1.4-.3.5-.5c0-.1.1-.3.1-.6c0 0 0-.3 0-.3zm2.2 1.9l-.6 0l0-5.2l.7 0c0 0-.03 1.87 0 1.9c.2-.4.6-.5 1-.5c.2 0 .5 0 .7.1c.2.1.4.2.5.4c.1.2.2.4.3.6c.1.3.1.5.1.8c0 .6-.1 1.1-.5 1.5c-.3.4-.7.5-1.1.5c-.5 0-.8-.2-1.1-.5c.02-.03 0 .4 0 .4zm0-1.9c0 .5.1.8.2 1c.2.3.5.5.8.5c.3 0 .5-.1.8-.4c.2-.2.3-.6.3-1.1c0-.5-.1-.8-.3-1.1c-.2-.2-.5-.3-.7-.3c-.3 0-.6.1-.8.4c-.2.2-.3.6-.3 1zm3.5 1.9l0-5.2l.6 0l0 5.2l-.6 0zm4.2-1.2c0 0 .7.1.7.1c-.1.4-.3.7-.6.9c-.3.2-.6.3-1.1.3c-.5 0-1-.1-1.3-.5c-.3-.3-.5-.8-.5-1.4c0-.7.2-1.2.5-1.5c.3-.4.8-.5 1.3-.5c.5 0 .9.1 1.2.5c.4.3.5.8.5 1.4c0 .1 0 .1 0 .2c0 0-2.8 0-2.8 0c0 .4.1.7.3 1c.3.2.5.3.8.3c.3 0 .5-.1.6-.2c.2-.1.3-.3.4-.6zm-2.1-1c0 0 2.1 0 2.1 0c0-.3-.1-.6-.2-.7c-.2-.3-.5-.4-.8-.4c-.3 0-.5.1-.7.3c-.2.2-.4.4-.4.8zm5.7 2.2l0-5.2l3.8 0l0 .6l-3.1 0l0 1.6l2.9 0l0 .6l-2.9 0l0 1.8l3.3 0l0 .6l-4 0zm4.8 0l0-3.8l.6 0c0 0 .02.58 0 .6c.3-.4.7-.6 1.2-.6c.3 0 .5 0 .7.1c.1.1.3.2.4.3c.1.1.2.3.2.5c0 .1 0 .3 0 .6c.03.01 0 2.3 0 2.3l-.6 0c0 0-.02-2.27 0-2.3c0-.2 0-.4-.1-.6c0-.1-.1-.2-.3-.3c-.1 0-.2-.1-.4-.1c-.3 0-.5.1-.7.3c-.2.2-.3.5-.3 1c-.02-.03 0 2 0 2l-.7 0zm6.7-1.2c0 0 .7.1.7.1c-.1.4-.3.7-.6.9c-.3.2-.6.3-1.1.3c-.5 0-1-.1-1.3-.5c-.3-.3-.5-.8-.5-1.4c0-.7.2-1.2.5-1.5c.3-.4.7-.5 1.3-.5c.5 0 .9.1 1.2.5c.3.3.5.8.5 1.4c0 .1 0 .1 0 .2c0 0-2.8 0-2.8 0c0 .4.1.7.3 1c.2.2.5.3.8.3c.2 0 .5-.1.6-.2c.2-.1.3-.3.4-.6zm-2.1-1c0 0 2.1 0 2.1 0c0-.3-.1-.6-.2-.7c-.2-.3-.5-.4-.8-.4c-.3 0-.6.1-.8.3c-.2.2-.3.4-.3.8zm3.6 2.2l0-3.8l.6 0c0 0-.04.62 0 .6c.1-.3.2-.4.4-.5c.1-.1.2-.1.4-.1c.2 0 .4 0 .6.2c0 0-.2.6-.2.6c-.1-.1-.3-.2-.4-.2c-.2 0-.3.1-.4.1c-.1.1-.2.3-.3.4c0 .2-.1.5-.1.8c.03-.05 0 1.9 0 1.9l-.6 0zm2.3.4c0 0 .6.1.6.1c.1.1.1.3.3.4c.1.1.3.2.6.2c.3 0 .5-.1.7-.2c.2-.1.3-.3.3-.5c.1-.2.1-.4.1-.9c-.3.4-.7.5-1.1.5c-.5 0-.9-.1-1.2-.5c-.3-.4-.4-.9-.4-1.4c0-.3 0-.7.2-1c.1-.3.3-.5.6-.7c.2-.2.5-.2.8-.2c.5 0 .8.1 1.1.5c.04 0 0-.5 0-.5l.6 0c0 0 .03 3.33 0 3.3c0 .6 0 1-.1 1.3c-.2.2-.4.4-.6.6c-.3.1-.6.2-1 .2c-.4 0-.8-.1-1.1-.3c-.3-.2-.4-.5-.4-.9zm.5-2.3c0 .5.1.8.3 1.1c.2.2.5.3.8.3c.3 0 .5-.1.7-.3c.2-.3.3-.6.3-1.1c0-.5-.1-.8-.3-1.1c-.2-.2-.4-.3-.7-.3c-.3 0-.6.1-.8.3c-.2.3-.3.6-.3 1.1zm4.1 3.5c-.1 0-.3 0-.4-.1c0 0-.1-.6-.1-.6c.1 0 .3.1.4.1c.1 0 .2-.1.3-.1c.1-.1.2-.1.2-.2c.1-.1.1-.2.2-.5c0 0 .1-.1.1-.1c-.01-.05-1.5-3.9-1.5-3.9l.7 0c0 0 .83 2.24.8 2.2c.1.3.2.6.3.9c.1-.3.2-.6.3-.8c-.03-.04.8-2.3.8-2.3l.6 0c0 0-1.42 3.91-1.4 3.9c-.2.4-.3.7-.4.9c-.1.2-.2.3-.4.4c-.1.1-.3.2-.5.2c0 0 0 0 0 0z" stroke="none" fill="#ffffff"/></g><g id="Polygon69731"><path d="m.5 16.8c0 0 1-.1 1-.1c0 .4.1.7.3 1c.1.2.4.4.7.6c.4.2.8.2 1.2.2c.4 0 .8 0 1.1-.1c.3-.2.5-.3.6-.5c.2-.2.3-.4.3-.7c0-.2-.1-.4-.3-.6c-.1-.2-.3-.4-.7-.5c-.2-.1-.6-.2-1.3-.4c-.7-.1-1.2-.3-1.5-.4c-.4-.2-.7-.5-.8-.8c-.2-.2-.3-.6-.3-.9c0-.4.1-.8.3-1.1c.2-.4.6-.6 1-.8c.4-.2.9-.3 1.4-.3c.6 0 1.1.1 1.5.3c.5.2.8.5 1 .8c.3.4.4.8.4 1.3c0 0-1 0-1 0c0-.5-.2-.8-.5-1.1c-.3-.2-.8-.4-1.4-.4c-.6 0-1 .2-1.3.4c-.3.2-.4.5-.4.8c0 .3.1.5.3.7c.2.2.7.4 1.5.5c.8.2 1.4.4 1.7.5c.5.2.8.5 1 .8c.2.3.3.7.3 1.1c0 .4-.1.8-.3 1.2c-.2.4-.6.6-1 .8c-.5.2-1 .3-1.5.3c-.7 0-1.3-.1-1.8-.3c-.5-.2-.8-.5-1.1-.9c-.3-.4-.4-.9-.4-1.4zm7.6 2.5l0-7.7l5.6 0l0 .9l-4.6 0l0 2.4l4.3 0l0 .9l-4.3 0l0 2.6l4.7 0l0 .9l-5.7 0zm7.2 0l0-7.7c0 0 3.39-.02 3.4 0c.7 0 1.2 0 1.6.2c.3.1.6.4.8.7c.2.4.3.8.3 1.2c0 .5-.1 1-.5 1.4c-.3.4-.9.6-1.6.7c.2.1.4.3.6.4c.3.3.6.6.8 1c.03.01 1.4 2.1 1.4 2.1l-1.3 0c0 0-1.03-1.6-1-1.6c-.3-.5-.6-.8-.8-1.1c-.2-.2-.3-.4-.5-.5c-.1-.1-.3-.1-.5-.2c-.1 0-.3 0-.5 0c-.03-.02-1.2 0-1.2 0l0 3.4l-1 0zm1-4.3c0 0 2.18-.01 2.2 0c.5 0 .8-.1 1.1-.2c.2 0 .4-.2.6-.4c.1-.2.2-.5.2-.7c0-.4-.1-.7-.4-.9c-.3-.2-.7-.4-1.3-.4c.03.03-2.4 0-2.4 0l0 2.6zm8.8 4.3l-3-7.7l1.1 0c0 0 1.98 5.6 2 5.6c.1.4.3.9.4 1.3c.1-.5.2-.9.4-1.3c.01 0 2.1-5.6 2.1-5.6l1 0l-3 7.7l-1 0zm5 0l0-7.7l5.6 0l0 .9l-4.6 0l0 2.4l4.3 0l0 .9l-4.3 0l0 2.6l4.7 0l0 .9l-5.7 0zm7.2 0l0-7.7c0 0 3.41-.02 3.4 0c.7 0 1.2 0 1.6.2c.3.1.6.4.8.7c.3.4.4.8.4 1.2c0 .5-.2 1-.6 1.4c-.3.4-.9.6-1.6.7c.3.1.5.3.6.4c.3.3.6.6.8 1c.05.01 1.4 2.1 1.4 2.1l-1.3 0c0 0-1.02-1.6-1-1.6c-.3-.5-.6-.8-.8-1.1c-.1-.2-.3-.4-.5-.5c-.1-.1-.3-.1-.4-.2c-.2 0-.3 0-.6 0c-.01-.02-1.2 0-1.2 0l0 3.4l-1 0zm1-4.3c0 0 2.2-.01 2.2 0c.5 0 .8-.1 1.1-.2c.3 0 .5-.2.6-.4c.1-.2.2-.5.2-.7c0-.4-.1-.7-.4-.9c-.3-.2-.7-.4-1.3-.4c.05.03-2.4 0-2.4 0l0 2.6zm6.4 1.8c0 0 1-.1 1-.1c0 .4.1.7.3 1c.2.2.4.4.8.6c.3.2.7.2 1.2.2c.4 0 .7 0 1-.1c.3-.2.5-.3.7-.5c.1-.2.2-.4.2-.7c0-.2-.1-.4-.2-.6c-.2-.2-.4-.4-.7-.5c-.2-.1-.7-.2-1.4-.4c-.7-.1-1.2-.3-1.5-.4c-.4-.2-.6-.5-.8-.8c-.2-.2-.3-.6-.3-.9c0-.4.1-.8.3-1.1c.3-.4.6-.6 1-.8c.4-.2.9-.3 1.4-.3c.6 0 1.1.1 1.5.3c.5.2.8.5 1.1.8c.2.4.3.8.3 1.3c0 0-.9 0-.9 0c-.1-.5-.3-.8-.6-1.1c-.3-.2-.7-.4-1.3-.4c-.6 0-1.1.2-1.4.4c-.3.2-.4.5-.4.8c0 .3.1.5.3.7c.2.2.7.4 1.5.5c.9.2 1.4.4 1.8.5c.4.2.7.5.9.8c.3.3.4.7.4 1.1c0 .4-.1.8-.4 1.2c-.2.4-.6.6-1 .8c-.4.2-.9.3-1.5.3c-.7 0-1.3-.1-1.7-.3c-.5-.2-.9-.5-1.2-.9c-.2-.4-.4-.9-.4-1.4z" stroke="none" fill="#ffffff"/></g><g id="Polygon69730"><path d="m.8 7.9l0-7.8c0 0 2.95.03 3 0c.5 0 .9.1 1.1.1c.4.1.7.2 1 .4c.2.1.4.4.6.7c.2.3.2.7.2 1.1c0 .6-.2 1.2-.6 1.6c-.4.5-1.2.7-2.3.7c.04.02-1.9 0-1.9 0l0 3.2l-1.1 0zm1.1-4.1c0 0 1.96.01 2 0c.6 0 1.1-.1 1.4-.4c.2-.2.4-.6.4-1c0-.3-.1-.6-.3-.8c-.1-.3-.3-.4-.6-.5c-.2 0-.5-.1-1-.1c.03.04-1.9 0-1.9 0l0 2.8zm6.2 4.1l0-7.8l1 0l0 3.2l4 0l0-3.2l1 0l0 7.8l-1 0l0-3.7l-4 0l0 3.7l-1 0zm9.9 0l0-3.3l-3-4.5l1.3 0c0 0 1.51 2.36 1.5 2.4c.3.4.6.8.8 1.3c.2-.4.5-.9.8-1.4c.04.01 1.5-2.3 1.5-2.3l1.2 0l-3.1 4.5l0 3.3l-1 0zm4.7-2.5c0 0 1-.1 1-.1c0 .4.1.7.3.9c.1.3.4.5.8.6c.3.2.7.3 1.1.3c.4 0 .8-.1 1.1-.2c.3-.1.5-.3.6-.5c.2-.2.3-.4.3-.6c0-.3-.1-.5-.2-.7c-.2-.2-.4-.3-.7-.4c-.2-.1-.7-.2-1.4-.4c-.7-.2-1.2-.3-1.5-.5c-.4-.2-.7-.4-.8-.7c-.2-.3-.3-.6-.3-1c0-.4.1-.7.3-1.1c.2-.3.6-.6 1-.7c.4-.2.9-.3 1.4-.3c.6 0 1.1.1 1.5.3c.5.2.8.4 1 .8c.3.4.4.8.4 1.2c0 0-1 .1-1 .1c0-.5-.2-.9-.5-1.1c-.3-.3-.7-.4-1.3-.4c-.7 0-1.1.1-1.4.3c-.3.3-.4.5-.4.9c0 .2.1.5.3.6c.2.2.7.4 1.5.6c.9.2 1.4.4 1.7.5c.5.2.8.5 1 .8c.2.3.4.7.4 1.1c0 .4-.2.8-.4 1.1c-.2.4-.6.7-1 .9c-.5.2-1 .3-1.5.3c-.7 0-1.3-.1-1.8-.3c-.4-.2-.8-.5-1.1-.9c-.2-.4-.4-.9-.4-1.4zm7.7 2.5l0-7.8l1 0l0 7.8l-1 0zm8.4-2.7c0 0 1 .2 1 .2c-.2.9-.6 1.5-1.2 1.9c-.5.5-1.2.7-2 .7c-.8 0-1.5-.2-2-.5c-.6-.4-1-.8-1.2-1.5c-.3-.6-.4-1.3-.4-2.1c0-.8.1-1.5.4-2.1c.3-.6.8-1 1.3-1.3c.6-.3 1.2-.5 1.9-.5c.8 0 1.4.2 2 .6c.5.4.9.9 1.1 1.7c0 0-1 .2-1 .2c-.2-.6-.5-1-.8-1.2c-.4-.3-.8-.4-1.3-.4c-.6 0-1.1.1-1.5.4c-.4.3-.7.7-.8 1.2c-.2.4-.3.9-.3 1.4c0 .7.1 1.3.3 1.8c.2.4.5.8.9 1.1c.4.2.8.3 1.3.3c.6 0 1.1-.1 1.5-.5c.4-.3.6-.8.8-1.4zm1.4 2.7l3-7.8l1.1 0l3.1 7.8l-1.1 0l-.9-2.4l-3.3 0l-.8 2.4l-1.1 0zm2.2-3.2l2.7 0c0 0-.85-2.15-.8-2.2c-.3-.6-.5-1.1-.6-1.6c-.1.5-.2 1-.4 1.5c-.01.02-.9 2.3-.9 2.3zm5.8 3.2l0-7.8l1 0l0 6.9l3.9 0l0 .9l-4.9 0z" stroke="none" fill="#ffffff"/></g></svg>