<?xml version="1.0" standalone="no"?><!DOCTYPE svg PUBLIC "-//W3C//DTD SVG 1.1//EN" "http://www.w3.org/Graphics/SVG/1.1/DTD/svg11.dtd"><svg xmlns="http://www.w3.org/2000/svg" version="1.1" width="84.4px" height="56.6px" viewBox="0 -4 84.4 56.6" style="top:-4px"><desc>ESG Litigation Roadmap</desc><defs/><g id="Polygon66234"><path d="m1 24.6l0-9.1c0 0 4.05-.04 4 0c.9 0 1.5 0 1.9.2c.4.2.8.5 1 .9c.3.4.4.8.4 1.3c0 .7-.2 1.2-.6 1.7c-.4.4-1.1.7-2 .8c.3.2.6.3.8.5c.3.3.6.7 1 1.2c-.04 0 1.5 2.5 1.5 2.5l-1.5 0c0 0-1.18-1.92-1.2-1.9c-.3-.6-.6-1-.9-1.3c-.2-.3-.4-.5-.6-.6c-.1-.1-.3-.2-.5-.2c-.2-.1-.4-.1-.7-.1c.01.03-1.4 0-1.4 0l0 4.1l-1.2 0zm1.2-5.1c0 0 2.61-.02 2.6 0c.6 0 1-.1 1.3-.2c.3-.1.5-.3.7-.5c.2-.3.3-.6.3-.9c0-.4-.2-.7-.5-1c-.3-.3-.8-.4-1.5-.4c0-.04-2.9 0-2.9 0l0 3zm7.4 1.8c0-1.2.4-2.2 1.1-2.7c.5-.5 1.2-.8 2-.8c.9 0 1.7.3 2.3.9c.5.6.8 1.4.8 2.5c0 .8-.1 1.5-.4 2c-.2.5-.6.9-1.1 1.1c-.5.3-1 .4-1.6.4c-.9 0-1.6-.3-2.2-.9c-.6-.6-.9-1.4-.9-2.5zm1.2 0c0 .8.2 1.5.5 1.9c.4.4.9.6 1.4.6c.6 0 1.1-.2 1.4-.6c.4-.4.6-1.1.6-2c0-.8-.2-1.4-.6-1.8c-.4-.4-.8-.7-1.4-.7c-.5 0-1 .3-1.4.7c-.3.4-.5 1-.5 1.9zm10.9 3.3c-.1-.3-.2-.5-.2-.8c-.5.3-.9.6-1.2.7c-.4.2-.8.2-1.3.2c-.7 0-1.3-.1-1.7-.5c-.3-.4-.5-.8-.5-1.4c0-.3 0-.6.2-.8c.1-.3.3-.5.6-.7c.2-.2.5-.3.8-.4c.2 0 .5-.1 1-.1c.9-.1 1.5-.3 2-.4c0-.2 0-.3 0-.3c0-.5-.1-.8-.4-1c-.2-.2-.7-.4-1.2-.4c-.6 0-.9.1-1.2.3c-.2.2-.4.5-.6 1c0 0-1-.1-1-.1c.1-.5.2-.9.4-1.2c.3-.3.6-.5 1-.6c.5-.2 1-.3 1.5-.3c.6 0 1.1.1 1.4.2c.4.2.6.3.8.5c.2.2.3.5.3.8c.1.2.1.5.1 1c0 0 0 1.5 0 1.5c0 1.1 0 1.7.1 2c0 .3.1.5.2.8c.05-.02-1.1 0-1.1 0c0 0-.02-.02 0 0zm-.3-3.3c-.4.1-1.1.3-1.9.4c-.4.1-.8.1-.9.2c-.2.1-.4.2-.5.4c-.1.1-.1.3-.1.5c0 .3.1.6.3.8c.2.2.6.3 1 .3c.4 0 .8-.1 1.1-.3c.4-.2.6-.5.8-.8c.1-.3.2-.6.2-1.1c0 0 0-.4 0-.4zm7.1 3.3c0 0 .02-.85 0-.9c-.4.7-1 1-1.8 1c-.6 0-1-.1-1.5-.4c-.4-.3-.8-.7-1-1.2c-.3-.5-.4-1.1-.4-1.8c0-.7.1-1.3.4-1.8c.2-.6.5-1 .9-1.2c.5-.3 1-.5 1.5-.5c.4 0 .8.1 1.1.3c.3.1.5.4.7.6c.04.03 0-3.2 0-3.2l1.2 0l0 9.1l-1.1 0zm-3.5-3.3c0 .8.2 1.5.5 1.9c.4.4.8.6 1.3.6c.5 0 .9-.2 1.2-.6c.4-.4.5-1 .5-1.8c0-.9-.1-1.6-.5-2c-.3-.4-.8-.7-1.3-.7c-.5 0-.9.3-1.2.7c-.4.4-.5 1-.5 1.9zm6.3 3.3l0-6.6l1 0c0 0 .02.9 0 .9c.2-.3.5-.6.9-.8c.3-.2.7-.3 1.1-.3c.5 0 .9.1 1.2.3c.3.2.6.5.7.9c.5-.8 1.2-1.2 2-1.2c.7 0 1.2.2 1.6.6c.3.3.5.9.5 1.6c-.02.04 0 4.6 0 4.6l-1.1 0c0 0-.03-4.18 0-4.2c0-.4-.1-.8-.1-1c-.1-.1-.2-.3-.4-.4c-.2-.1-.5-.2-.7-.2c-.5 0-.9.1-1.2.5c-.3.3-.4.8-.4 1.4c-.03.04 0 3.9 0 3.9l-1.2 0c0 0 .05-4.31 0-4.3c0-.5 0-.9-.2-1.1c-.2-.3-.5-.4-.9-.4c-.3 0-.6.1-.9.2c-.3.2-.5.5-.6.8c-.1.3-.2.8-.2 1.4c.04-.05 0 3.4 0 3.4l-1.1 0zm15.2 0c-.1-.3-.2-.5-.2-.8c-.5.3-.9.6-1.2.7c-.4.2-.8.2-1.3.2c-.7 0-1.3-.1-1.7-.5c-.3-.4-.5-.8-.5-1.4c0-.3 0-.6.2-.8c.1-.3.3-.5.6-.7c.2-.2.5-.3.8-.4c.2 0 .5-.1 1-.1c.9-.1 1.5-.3 2-.4c0-.2 0-.3 0-.3c0-.5-.1-.8-.3-1c-.3-.2-.8-.4-1.3-.4c-.6 0-.9.1-1.2.3c-.2.2-.4.5-.5 1c0 0-1.1-.1-1.1-.1c.1-.5.2-.9.4-1.2c.3-.3.6-.5 1-.6c.5-.2 1-.3 1.5-.3c.6 0 1.1.1 1.4.2c.4.2.6.3.8.5c.2.2.3.5.3.8c.1.2.1.5.1 1c0 0 0 1.5 0 1.5c0 1.1 0 1.7.1 2c0 .3.1.5.3.8c-.05-.02-1.2 0-1.2 0c0 0-.02-.02 0 0zm-.3-3.3c-.4.1-1.1.3-1.9.4c-.4.1-.8.1-.9.2c-.2.1-.4.2-.5.4c-.1.1-.1.3-.1.5c0 .3.1.6.3.8c.2.2.6.3 1 .3c.4 0 .8-.1 1.1-.3c.4-.2.6-.5.8-.8c.1-.3.2-.6.2-1.1c0 0 0-.4 0-.4zm2.8 5.8l0-9.1l1.1 0c0 0-.05.83 0 .8c.2-.3.5-.6.8-.7c.3-.2.6-.3 1.1-.3c.5 0 1 .2 1.5.5c.4.2.7.7.9 1.2c.3.5.4 1.1.4 1.7c0 .7-.1 1.3-.4 1.9c-.2.5-.6.9-1 1.2c-.5.3-1 .4-1.5.4c-.4 0-.7 0-1-.2c-.3-.2-.6-.4-.7-.6c-.05 0 0 3.2 0 3.2l-1.2 0zm1-5.8c0 .9.2 1.5.6 1.9c.3.4.7.6 1.2.6c.5 0 .9-.2 1.3-.6c.3-.4.5-1.1.5-2c0-.8-.1-1.5-.5-1.9c-.3-.4-.8-.6-1.2-.6c-.5 0-.9.2-1.3.7c-.4.4-.6 1.1-.6 1.9z" stroke="none" fill="#003a5c"/></g><g id="Polygon66233"><path d="m1 9.3l0-9.1l6.6 0l0 1l-5.4 0l0 2.8l5.1 0l0 1.1l-5.1 0l0 3.1l5.6 0l0 1.1l-6.8 0zm8.1-2.9c0 0 1.1-.1 1.1-.1c.1.4.2.8.4 1.1c.2.3.5.5.9.7c.4.2.9.3 1.4.3c.5 0 .9-.1 1.2-.3c.4-.1.6-.3.8-.5c.2-.3.3-.5.3-.8c0-.3-.1-.5-.3-.7c-.1-.3-.4-.4-.8-.6c-.2-.1-.8-.2-1.6-.4c-.9-.2-1.4-.4-1.8-.6c-.4-.2-.7-.5-1-.8c-.2-.4-.3-.8-.3-1.2c0-.4.2-.9.4-1.3c.3-.4.7-.7 1.2-.9c.5-.2 1-.3 1.6-.3c.7 0 1.3.1 1.8.3c.5.2.9.6 1.2 1c.3.4.4.9.5 1.4c0 0-1.2.1-1.2.1c-.1-.6-.3-1-.6-1.3c-.4-.3-.9-.4-1.6-.4c-.7 0-1.3.1-1.6.4c-.3.2-.5.6-.5.9c0 .4.1.6.3.8c.3.3.9.5 1.9.7c.9.2 1.6.4 2 .6c.5.2.9.5 1.2.9c.2.4.3.8.3 1.3c0 .5-.1.9-.4 1.4c-.3.4-.7.7-1.2 1c-.5.2-1.1.3-1.7.3c-.9 0-1.6-.1-2.1-.3c-.6-.3-1-.6-1.3-1.1c-.3-.5-.5-1-.5-1.6zm13.2-.7l0-1.1l3.8 0c0 0 .03 3.41 0 3.4c-.6.5-1.2.8-1.8 1.1c-.6.2-1.3.3-2 .3c-.8 0-1.7-.2-2.4-.5c-.7-.4-1.3-1-1.7-1.7c-.3-.7-.5-1.5-.5-2.4c0-.9.2-1.8.5-2.5c.4-.8.9-1.4 1.6-1.7c.7-.4 1.5-.6 2.5-.6c.6 0 1.2.1 1.7.3c.6.2 1 .5 1.3.9c.3.4.5.9.7 1.5c0 0-1.1.3-1.1.3c-.1-.5-.3-.8-.5-1.1c-.2-.3-.5-.5-.9-.6c-.4-.2-.8-.3-1.2-.3c-.6 0-1.1.1-1.5.3c-.4.2-.7.4-.9.6c-.3.3-.5.6-.6 1c-.3.5-.4 1.1-.4 1.8c0 .8.2 1.5.5 2c.2.6.6 1 1.2 1.3c.5.2 1.1.3 1.7.3c.5 0 1-.1 1.5-.3c.5-.2.9-.4 1.1-.6c.05 0 0-1.7 0-1.7l-2.6 0zm9.1 3.6l0-9.1l1.2 0l0 8l4.5 0l0 1.1l-5.7 0zm7-7.9l0-1.2l1.1 0l0 1.2l-1.1 0zm0 7.9l0-6.6l1.1 0l0 6.6l-1.1 0zm4.8-1c.1 0 .3 0 .5 0c0 0 .1 1 .1 1c-.3 0-.6.1-.8.1c-.4 0-.7-.1-1-.2c-.2-.2-.3-.3-.4-.5c-.1-.2-.2-.7-.2-1.4c.04.05 0-3.8 0-3.8l-.8 0l0-.8l.8 0l0-1.7l1.2-.6l0 2.3l1.1 0l0 .8l-1.1 0c0 0-.05 3.91 0 3.9c0 .3 0 .5 0 .6c.1.1.1.2.2.2c.1.1.2.1.4.1c0 0 0 0 0 0zm1.6-6.9l0-1.2l1.1 0l0 1.2l-1.1 0zm0 7.9l0-6.6l1.1 0l0 6.6l-1.1 0zm2.6.5c0 0 1.1.2 1.1.2c0 .3.2.6.4.7c.2.2.6.3 1.1.3c.5 0 .9-.1 1.2-.3c.3-.2.5-.5.6-.8c0-.3.1-.8.1-1.5c-.5.6-1.1.9-1.9.9c-.9 0-1.6-.3-2.1-1c-.5-.7-.7-1.4-.7-2.4c0-.6.1-1.2.3-1.7c.2-.5.6-1 1-1.2c.4-.3 1-.5 1.5-.5c.8 0 1.5.3 2 1c-.03-.03 0-.8 0-.8l1 0c0 0 0 5.69 0 5.7c0 1-.1 1.7-.3 2.2c-.2.4-.6.7-1 1c-.5.2-1 .4-1.7.4c-.8 0-1.4-.2-1.9-.6c-.5-.3-.7-.9-.7-1.6zm.9-3.9c0 .8.2 1.5.5 1.9c.4.4.8.6 1.3.6c.6 0 1-.2 1.3-.6c.4-.4.6-1.1.6-1.9c0-.8-.2-1.4-.6-1.8c-.3-.4-.8-.7-1.3-.7c-.5 0-.9.3-1.2.7c-.4.4-.6 1-.6 1.8zm10.9 3.4c-.1-.3-.2-.5-.2-.8c-.4.3-.8.6-1.2.7c-.4.2-.8.2-1.2.2c-.7 0-1.3-.1-1.7-.5c-.4-.4-.6-.8-.6-1.4c0-.3.1-.6.2-.8c.2-.3.4-.5.6-.7c.3-.2.5-.3.8-.4c.2 0 .6-.1 1-.1c.9-.1 1.6-.3 2-.4c0-.2 0-.3 0-.3c0-.5-.1-.8-.3-1c-.3-.2-.7-.4-1.3-.4c-.5 0-.9.1-1.1.3c-.3.2-.5.5-.6 1c0 0-1.1-.1-1.1-.1c.1-.5.3-.9.5-1.2c.2-.3.6-.5 1-.6c.4-.2.9-.3 1.5-.3c.6 0 1 .1 1.4.2c.3.2.6.3.7.5c.2.2.3.5.4.8c0 .2.1.5.1 1c0 0 0 1.5 0 1.5c0 1.1 0 1.7 0 2c.1.3.2.5.3.8c.01-.02-1.2 0-1.2 0c0 0 .04-.02 0 0zm-.3-3.3c-.4.1-1 .3-1.8.4c-.5.1-.8.1-1 .2c-.2.1-.3.2-.4.4c-.1.1-.2.3-.2.5c0 .3.1.6.4.8c.2.2.5.3.9.3c.5 0 .9-.1 1.2-.3c.3-.2.6-.5.7-.8c.2-.3.2-.6.2-1.1c0 0 0-.4 0-.4zm4.8 2.3c.2 0 .3 0 .5 0c0 0 .2 1 .2 1c-.3 0-.6.1-.8.1c-.5 0-.8-.1-1-.2c-.2-.2-.4-.3-.5-.5c-.1-.2-.1-.7-.1-1.4c-.01.05 0-3.8 0-3.8l-.8 0l0-.8l.8 0l0-1.7l1.1-.6l0 2.3l1.1 0l0 .8l-1.1 0c0 0 .01 3.91 0 3.9c0 .3 0 .5.1.6c0 .1.1.2.2.2c.1.1.2.1.3.1c0 0 0 0 0 0zm1.6-6.9l0-1.2l1.2 0l0 1.2l-1.2 0zm0 7.9l0-6.6l1.2 0l0 6.6l-1.2 0zm2.4-3.3c0-1.2.4-2.2 1.1-2.7c.5-.5 1.2-.8 2-.8c1 0 1.7.3 2.3.9c.6.6.8 1.4.8 2.5c0 .8-.1 1.5-.3 2c-.3.5-.7.9-1.2 1.1c-.4.3-1 .4-1.6.4c-.9 0-1.6-.3-2.2-.9c-.6-.6-.9-1.4-.9-2.5zm1.2 0c0 .8.2 1.5.6 1.9c.3.4.8.6 1.3.6c.6 0 1.1-.2 1.4-.6c.4-.4.6-1.1.6-2c0-.8-.2-1.4-.6-1.8c-.3-.4-.8-.7-1.4-.7c-.5 0-1 .3-1.3.7c-.4.4-.6 1-.6 1.9zm6.4 3.3l0-6.6l1 0c0 0-.04.91 0 .9c.4-.7 1.2-1.1 2.1-1.1c.4 0 .7.1 1.1.2c.3.2.6.4.7.6c.2.2.3.5.4.8c0 .2 0 .6 0 1.1c.03.02 0 4.1 0 4.1l-1.1 0c0 0 .01-4.04 0-4c0-.5 0-.8-.1-1.1c-.1-.2-.3-.4-.5-.5c-.2-.1-.5-.2-.8-.2c-.4 0-.9.1-1.2.4c-.4.4-.5.9-.5 1.8c-.02-.03 0 3.6 0 3.6l-1.1 0z" stroke="none" fill="#003a5c"/></g></svg>