<?xml version="1.0" standalone="no"?><!DOCTYPE svg PUBLIC "-//W3C//DTD SVG 1.1//EN" "http://www.w3.org/Graphics/SVG/1.1/DTD/svg11.dtd"><svg xmlns="http://www.w3.org/2000/svg" version="1.1" width="105.2px" height="72.6px" viewBox="0 -3 105.2 72.6" style="top:-3px"><desc>Offices Monitored on Energy and Environmental Management System</desc><defs/><g id="Polygon69680"><path d="m62.3 49c0 0 .9-.1.9-.1c.1.4.2.7.3.9c.2.3.4.4.8.6c.3.1.7.2 1.1.2c.4 0 .7 0 1-.2c.2-.1.5-.2.6-.4c.1-.2.2-.4.2-.6c0-.3-.1-.5-.2-.6c-.1-.2-.4-.3-.7-.5c-.2 0-.6-.2-1.3-.3c-.6-.2-1.1-.3-1.4-.5c-.3-.2-.6-.4-.7-.6c-.2-.3-.3-.6-.3-1c0-.3.1-.7.3-1c.2-.3.5-.5.9-.7c.4-.2.9-.3 1.4-.3c.5 0 1 .1 1.4.3c.4.2.7.4.9.8c.3.3.4.7.4 1.1c0 0-.9.1-.9.1c-.1-.5-.2-.8-.5-1.1c-.3-.2-.7-.3-1.3-.3c-.6 0-1 .1-1.3.3c-.2.2-.4.5-.4.8c0 .2.1.5.3.6c.2.2.7.4 1.5.5c.8.2 1.3.4 1.6.5c.4.2.7.5.9.8c.2.3.3.6.3 1c0 .4-.1.7-.3 1.1c-.2.3-.6.6-1 .8c-.4.2-.8.3-1.4.3c-.6 0-1.2-.1-1.6-.3c-.5-.2-.8-.5-1.1-.9c-.2-.4-.4-.8-.4-1.3zm9.5 2.3l0-3l-2.8-4.2l1.2 0c0 0 1.4 2.16 1.4 2.2c.3.4.5.8.7 1.2c.3-.4.5-.8.8-1.3c.03 0 1.4-2.1 1.4-2.1l1.2 0l-2.9 4.2l0 3l-1 0zm4.7-2.3c0 0 .9-.1.9-.1c.1.4.2.7.3.9c.2.3.4.4.8.6c.3.1.7.2 1.1.2c.3 0 .7 0 .9-.2c.3-.1.5-.2.7-.4c.1-.2.2-.4.2-.6c0-.3-.1-.5-.2-.6c-.2-.2-.4-.3-.7-.5c-.2 0-.6-.2-1.3-.3c-.6-.2-1.1-.3-1.4-.5c-.3-.2-.6-.4-.8-.6c-.1-.3-.2-.6-.2-1c0-.3.1-.7.3-1c.2-.3.5-.5.9-.7c.4-.2.9-.3 1.4-.3c.5 0 1 .1 1.4.3c.4.2.7.4.9.8c.3.3.4.7.4 1.1c0 0-.9.1-.9.1c-.1-.5-.3-.8-.5-1.1c-.3-.2-.7-.3-1.3-.3c-.6 0-1 .1-1.3.3c-.2.2-.4.5-.4.8c0 .2.1.5.3.6c.2.2.7.4 1.5.5c.7.2 1.3.4 1.6.5c.4.2.7.5.9.8c.2.3.3.6.3 1c0 .4-.1.7-.3 1.1c-.2.3-.6.6-1 .8c-.4.2-.9.3-1.4.3c-.6 0-1.2-.1-1.6-.3c-.5-.2-.8-.5-1.1-.9c-.2-.4-.4-.8-.4-1.3zm9.3 2.3l0-6.4l-2.4 0l0-.8l5.8 0l0 .8l-2.5 0l0 6.4l-.9 0zm4.7 0l0-7.2l5.2 0l0 .8l-4.3 0l0 2.3l4.1 0l0 .8l-4.1 0l0 2.5l4.5 0l0 .8l-5.4 0zm7 0l0-7.2l1.5 0c0 0 1.69 5.12 1.7 5.1c.1.5.3.9.3 1.1c.1-.3.2-.7.4-1.2c.02.03 1.8-5 1.8-5l1.3 0l0 7.2l-1 0l0-6.1l-2.1 6.1l-.9 0l-2.1-6.2l0 6.2l-.9 0z" stroke="none" fill="#ffffff"/></g><g id="Polygon69679"><path d="m30.5 39.9l0-7.3l1.4 0c0 0 1.77 5.17 1.8 5.2c.1.5.2.8.3 1.1c.1-.3.2-.7.4-1.2c.01-.02 1.8-5.1 1.8-5.1l1.2 0l0 7.3l-.9 0l0-6.1l-2.1 6.1l-.9 0l-2.1-6.2l0 6.2l-.9 0zm8 0l2.8-7.3l1 0l3 7.3l-1.1 0l-.8-2.2l-3.1 0l-.8 2.2l-1 0zm2.1-3l2.5 0c0 0-.78-2.01-.8-2c-.2-.6-.4-1.1-.5-1.5c-.1.4-.2.9-.4 1.4c.01-.03-.8 2.1-.8 2.1zm5.8 3l0-7.3l1 0l3.8 5.7l0-5.7l.9 0l0 7.3l-1 0l-3.8-5.7l0 5.7l-.9 0zm6.9 0l2.8-7.3l1 0l3 7.3l-1.1 0l-.9-2.2l-3 0l-.8 2.2l-1 0zm2.1-3l2.4 0c0 0-.73-2.01-.7-2c-.3-.6-.4-1.1-.6-1.5c0 .4-.2.9-.3 1.4c-.04-.03-.8 2.1-.8 2.1zm9.2.1l0-.8l3 0c0 0 .04 2.69 0 2.7c-.4.4-.9.6-1.4.8c-.5.2-1 .3-1.6.3c-.7 0-1.3-.1-1.9-.4c-.6-.3-1.1-.8-1.3-1.4c-.3-.5-.5-1.2-.5-1.9c0-.7.2-1.4.4-2c.3-.6.8-1.1 1.3-1.4c.6-.3 1.2-.4 2-.4c.5 0 1 .1 1.4.2c.4.2.7.5 1 .8c.2.3.4.7.5 1.2c0 0-.8.2-.8.2c-.1-.4-.3-.7-.4-.9c-.2-.2-.4-.4-.7-.5c-.3-.1-.7-.2-1-.2c-.5 0-.9.1-1.2.2c-.3.2-.6.3-.8.5c-.2.3-.3.5-.4.8c-.2.4-.3.9-.3 1.4c0 .7.1 1.2.3 1.7c.3.4.6.7 1 .9c.4.2.9.4 1.4.4c.4 0 .8-.1 1.2-.3c.4-.1.7-.3.9-.5c0 0 0-1.4 0-1.4l-2.1 0zm4.8 2.9l0-7.3l5.3 0l0 .9l-4.3 0l0 2.2l4 0l0 .9l-4 0l0 2.4l4.4 0l0 .9l-5.4 0zm7 0l0-7.3l1.5 0c0 0 1.71 5.17 1.7 5.2c.2.5.3.8.4 1.1c0-.3.2-.7.3-1.2c.04-.02 1.8-5.1 1.8-5.1l1.3 0l0 7.3l-.9 0l0-6.1l-2.2 6.1l-.8 0l-2.1-6.2l0 6.2l-1 0zm8.9 0l0-7.3l5.2 0l0 .9l-4.3 0l0 2.2l4.1 0l0 .9l-4.1 0l0 2.4l4.5 0l0 .9l-5.4 0zm7 0l0-7.3l1 0l3.8 5.7l0-5.7l1 0l0 7.3l-1 0l-3.9-5.7l0 5.7l-.9 0zm9.5 0l0-6.4l-2.4 0l0-.9l5.8 0l0 .9l-2.4 0l0 6.4l-1 0z" stroke="none" fill="#ffffff"/></g><g id="Polygon69678"><path d="m15.9 28.5l0-7.3l5.2 0l0 .8l-4.3 0l0 2.3l4.1 0l0 .8l-4.1 0l0 2.5l4.5 0l0 .9l-5.4 0zm7 0l0-7.3l1 0l3.9 5.7l0-5.7l.9 0l0 7.3l-1 0l-3.8-5.8l0 5.8l-1 0zm9.8 0l-2.8-7.3l1 0c0 0 1.9 5.26 1.9 5.3c.1.4.3.8.4 1.2c.1-.4.2-.8.4-1.2c-.03-.04 1.9-5.3 1.9-5.3l1 0l-2.8 7.3l-1 0zm5.2 0l0-7.3l.9 0l0 7.3l-.9 0zm2.9 0l0-7.3c0 0 3.27-.03 3.3 0c.6 0 1.1 0 1.4.2c.4.1.7.3.9.7c.2.3.3.7.3 1.1c0 .5-.2.9-.5 1.3c-.4.3-.9.5-1.6.6c.3.2.5.3.6.4c.3.3.5.6.8 1c-.01-.03 1.3 2 1.3 2l-1.3 0c0 0-.92-1.56-.9-1.6c-.3-.4-.5-.7-.7-1c-.2-.2-.4-.4-.5-.5c-.1 0-.3-.1-.4-.1c-.2-.1-.3-.1-.6-.1c.02.02-1.1 0-1.1 0l0 3.3l-1 0zm1-4.1c0 0 2.08-.02 2.1 0c.4 0 .8-.1 1-.2c.3 0 .4-.2.6-.4c.1-.2.2-.4.2-.6c0-.4-.2-.7-.4-.9c-.3-.2-.7-.3-1.2-.3c.01-.03-2.3 0-2.3 0l0 2.4zm6.4.5c0-1.2.3-2.2 1-2.8c.6-.7 1.4-1.1 2.5-1.1c.6 0 1.3.2 1.8.5c.5.3.9.8 1.2 1.4c.3.5.5 1.2.5 1.9c0 .8-.2 1.4-.5 2c-.3.6-.7 1-1.3 1.3c-.5.3-1.1.5-1.7.5c-.7 0-1.3-.2-1.9-.5c-.5-.4-.9-.8-1.2-1.4c-.3-.6-.4-1.2-.4-1.8zm1 0c0 .9.2 1.6.7 2.1c.5.5 1.1.8 1.8.8c.7 0 1.3-.3 1.8-.8c.4-.5.7-1.2.7-2.2c0-.6-.1-1.1-.3-1.5c-.2-.5-.5-.8-.9-1.1c-.4-.2-.8-.3-1.3-.3c-.7 0-1.3.2-1.8.7c-.5.4-.7 1.2-.7 2.3zm7.5 3.6l0-7.3l1 0l3.8 5.7l0-5.7l.9 0l0 7.3l-1 0l-3.8-5.8l0 5.8l-.9 0zm7.6 0l0-7.3l1.5 0c0 0 1.7 5.12 1.7 5.1c.2.5.3.9.3 1.1c.1-.3.3-.7.4-1.2c.03.04 1.8-5 1.8-5l1.3 0l0 7.3l-1 0l0-6.1l-2.1 6.1l-.8 0l-2.1-6.2l0 6.2l-1 0zm8.9 0l0-7.3l5.2 0l0 .8l-4.3 0l0 2.3l4 0l0 .8l-4 0l0 2.5l4.5 0l0 .9l-5.4 0zm7 0l0-7.3l1 0l3.8 5.7l0-5.7l1 0l0 7.3l-1 0l-3.9-5.8l0 5.8l-.9 0zm9.5 0l0-6.5l-2.4 0l0-.8l5.8 0l0 .8l-2.4 0l0 6.5l-1 0zm3.1 0l2.8-7.3l1.1 0l3 7.3l-1.1 0l-.9-2.3l-3 0l-.8 2.3l-1.1 0zm2.1-3l2.5 0c0 0-.74-2.06-.7-2.1c-.3-.6-.4-1.1-.6-1.5c-.1.5-.2 1-.4 1.4c.05.02-.8 2.2-.8 2.2zm5.8 3l0-7.3l1 0l0 6.4l3.5 0l0 .9l-4.5 0z" stroke="none" fill="#ffffff"/></g><g id="Polygon69677"><path d="m36.8 17l0-7.3l5.2 0l0 .9l-4.3 0l0 2.2l4 0l0 .9l-4 0l0 2.4l4.5 0l0 .9l-5.4 0zm7 0l0-7.3l1 0l3.8 5.7l0-5.7l1 0l0 7.3l-1 0l-3.9-5.7l0 5.7l-.9 0zm7.7 0l0-7.3l5.3 0l0 .9l-4.3 0l0 2.2l4 0l0 .9l-4 0l0 2.4l4.4 0l0 .9l-5.4 0zm7.1 0l0-7.3c0 0 3.22.02 3.2 0c.7 0 1.2.1 1.5.2c.3.1.6.4.8.7c.2.3.3.7.3 1.1c0 .5-.2 1-.5 1.3c-.3.4-.8.6-1.5.7c.2.1.4.2.5.4c.3.2.6.5.8.9c.04.02 1.3 2 1.3 2l-1.2 0c0 0-.97-1.51-1-1.5c-.3-.4-.5-.8-.7-1c-.1-.2-.3-.4-.5-.5c-.1-.1-.2-.2-.4-.2c-.1 0-.3 0-.5 0c-.03-.03-1.1 0-1.1 0l0 3.2l-1 0zm1-4.1c0 0 2.02.03 2 0c.5 0 .8 0 1.1-.1c.2-.1.4-.2.5-.4c.2-.2.2-.5.2-.7c0-.3-.1-.6-.4-.8c-.2-.3-.6-.4-1.1-.4c-.04.02-2.3 0-2.3 0l0 2.4zm10 1.2l0-.8l3.1 0c0 0 .02 2.69 0 2.7c-.5.4-.9.7-1.4.8c-.5.2-1.1.3-1.6.3c-.7 0-1.4-.1-1.9-.4c-.6-.3-1.1-.8-1.4-1.4c-.3-.5-.4-1.2-.4-1.9c0-.7.1-1.4.4-2c.3-.6.7-1.1 1.3-1.4c.6-.3 1.2-.4 1.9-.4c.6 0 1 .1 1.5.3c.4.1.7.4 1 .7c.2.3.4.7.5 1.2c0 0-.9.2-.9.2c-.1-.4-.2-.7-.4-.9c-.1-.2-.4-.4-.7-.5c-.3-.1-.6-.2-1-.2c-.4 0-.8.1-1.1.2c-.3.2-.6.3-.8.6c-.2.2-.3.4-.4.7c-.2.4-.3.9-.3 1.4c0 .7.1 1.2.3 1.7c.2.4.6.7 1 .9c.4.3.9.4 1.3.4c.5 0 .9-.1 1.3-.3c.4-.1.7-.3.9-.5c-.02 0 0-1.4 0-1.4l-2.2 0zm6.9 2.9l0-3.1l-2.8-4.2l1.2 0c0 0 1.4 2.22 1.4 2.2c.3.4.5.8.7 1.2c.3-.3.5-.8.8-1.2c.03-.04 1.4-2.2 1.4-2.2l1.2 0l-2.9 4.2l0 3.1l-1 0zm6.6 0l2.8-7.3l1.1 0l2.9 7.3l-1.1 0l-.8-2.2l-3.1 0l-.8 2.2l-1 0zm2.1-3l2.5 0c0 0-.76-2-.8-2c-.2-.6-.4-1.1-.5-1.5c-.1.5-.2.9-.4 1.4c.03-.02-.8 2.1-.8 2.1zm5.8 3l0-7.3l1 0l3.8 5.7l0-5.7l.9 0l0 7.3l-.9 0l-3.9-5.7l0 5.7l-.9 0zm7.7 0l0-7.3c0 0 2.48.02 2.5 0c.5 0 1 .1 1.3.1c.4.1.8.3 1 .5c.4.4.7.8.9 1.3c.2.5.3 1.1.3 1.7c0 .6-.1 1.1-.2 1.5c-.1.4-.3.8-.5 1.1c-.2.2-.4.5-.7.6c-.2.2-.5.3-.8.4c-.4.1-.8.1-1.2.1c0 0-2.6 0-2.6 0zm.9-.9c0 0 1.59.04 1.6 0c.5 0 .8 0 1.1-.1c.3-.1.5-.2.7-.4c.2-.2.4-.5.5-.9c.1-.4.2-.8.2-1.4c0-.8-.1-1.3-.4-1.7c-.2-.5-.5-.7-.9-.9c-.2-.1-.7-.1-1.2-.1c-.03-.02-1.6 0-1.6 0l0 5.5z" stroke="none" fill="#ffffff"/></g><g id="Polygon69676"><path d="m31 2.9c0-.9.2-1.6.7-2.1c.5-.5 1.1-.8 1.9-.8c.5 0 1 .1 1.4.4c.4.2.7.5.9 1c.2.4.3.9.3 1.4c0 .6-.1 1.1-.3 1.5c-.3.5-.6.8-1 1c-.4.2-.8.3-1.3.3c-.5 0-1-.1-1.4-.3c-.4-.3-.7-.6-.9-1c-.2-.5-.3-.9-.3-1.4zm.7 0c0 .7.2 1.2.6 1.6c.3.3.8.5 1.3.5c.5 0 1-.2 1.3-.5c.4-.4.6-1 .6-1.7c0-.4-.1-.8-.3-1.1c-.1-.4-.3-.6-.6-.8c-.3-.2-.6-.3-1-.3c-.5 0-1 .2-1.3.5c-.4.4-.6 1-.6 1.8zm5.7 2.7l0-3.5l-.6 0l0-.5l.6 0c0 0 .04-.42 0-.4c0-.3.1-.5.1-.6c.1-.2.2-.3.3-.4c.2-.1.4-.2.7-.2c.2 0 .4 0 .7.1c0 0-.1.6-.1.6c-.2-.1-.3-.1-.4-.1c-.2 0-.4.1-.5.1c-.1.1-.1.3-.1.5c0 .03 0 .4 0 .4l.8 0l0 .5l-.8 0l0 3.5l-.7 0zm2.2 0l0-3.5l-.5 0l0-.5l.5 0c0 0 .05-.42 0-.4c0-.3.1-.5.1-.6c.1-.2.2-.3.4-.4c.1-.1.4-.2.6-.2c.2 0 .4 0 .7.1c0 0-.1.6-.1.6c-.2-.1-.3-.1-.4-.1c-.2 0-.4.1-.5.1c0 .1-.1.3-.1.5c.01.03 0 .4 0 .4l.8 0l0 .5l-.8 0l0 3.5l-.7 0zm2.2-4.7l0-.8l.7 0l0 .8l-.7 0zm0 4.7l0-4l.7 0l0 4l-.7 0zm4.5-1.5c0 0 .7.1.7.1c-.1.4-.3.8-.6 1.1c-.2.2-.6.3-1 .3c-.6 0-1-.1-1.3-.5c-.4-.3-.5-.8-.5-1.5c0-.4 0-.8.2-1.1c.1-.3.3-.6.6-.8c.3-.1.6-.2 1-.2c.4 0 .7.1 1 .3c.3.3.5.6.5 1c0 0-.6.1-.6.1c-.1-.3-.2-.5-.3-.6c-.2-.2-.4-.2-.6-.2c-.4 0-.6.1-.8.3c-.2.3-.4.6-.4 1.2c0 .5.1.9.4 1.1c.2.3.4.4.7.4c.3 0 .5-.1.7-.2c.2-.2.3-.5.3-.8zm4.2.2c0 0 .7.1.7.1c-.1.4-.3.7-.6.9c-.3.2-.7.3-1.1.3c-.6 0-1.1-.1-1.4-.5c-.3-.3-.5-.8-.5-1.5c0-.7.2-1.2.5-1.5c.3-.4.8-.6 1.3-.6c.6 0 1 .2 1.3.5c.4.4.5.9.5 1.6c0 0 0 .1 0 .1c0 0-2.9 0-2.9 0c0 .5.1.8.3 1c.3.3.5.4.9.4c.2 0 .4-.1.6-.2c.2-.1.3-.3.4-.6zm-2.2-1.1c0 0 2.2 0 2.2 0c0-.3-.1-.6-.2-.8c-.2-.2-.5-.3-.9-.3c-.3 0-.5.1-.7.3c-.2.2-.4.5-.4.8zm3.7 1.2c0 0 .7-.1.7-.1c0 .2.1.4.3.6c.2.1.4.2.7.2c.3 0 .5-.1.7-.2c.1-.1.2-.3.2-.4c0-.2-.1-.3-.2-.4c-.1-.1-.3-.1-.7-.2c-.5-.1-.8-.3-1-.3c-.2-.1-.3-.3-.4-.4c-.1-.2-.2-.4-.2-.6c0-.1.1-.3.1-.4c.1-.2.2-.3.4-.4c.1-.1.2-.2.4-.2c.2-.1.4-.1.6-.1c.3 0 .6.1.8.1c.2.1.4.3.5.4c.1.2.2.4.2.6c0 0-.6.1-.6.1c0-.2-.1-.4-.3-.5c-.1-.1-.3-.1-.6-.1c-.3 0-.5 0-.6.1c-.2.1-.2.2-.2.4c0 .1 0 .1.1.2c0 .1.1.1.2.2c.1 0 .3.1.6.2c.5.1.8.2 1 .3c.2 0 .3.2.4.3c.1.2.2.4.2.6c0 .2-.1.4-.2.6c-.1.2-.3.4-.6.5c-.2.1-.5.1-.8.1c-.5 0-.9-.1-1.2-.3c-.2-.2-.4-.5-.5-.9zm6.7 1.2l0-5.5l1.1 0c0 0 1.32 3.86 1.3 3.9c.1.3.2.6.3.8c0-.2.1-.5.3-.9c-.03-.01 1.3-3.8 1.3-3.8l1 0l0 5.5l-.7 0l0-4.6l-1.6 4.6l-.7 0l-1.6-4.7l0 4.7l-.7 0zm6.3-2c0-.8.2-1.3.6-1.7c.4-.2.8-.4 1.3-.4c.5 0 1 .2 1.3.5c.3.4.5.9.5 1.5c0 .5-.1.9-.2 1.2c-.2.3-.4.5-.7.7c-.3.2-.6.2-.9.2c-.6 0-1-.1-1.4-.5c-.3-.3-.5-.9-.5-1.5zm.7 0c0 .5.1.9.3 1.1c.3.3.5.4.9.4c.3 0 .6-.1.8-.4c.2-.2.3-.6.3-1.1c0-.5-.1-.9-.3-1.2c-.2-.2-.5-.3-.8-.3c-.4 0-.6.1-.9.3c-.2.3-.3.7-.3 1.2zm4 2l0-4l.6 0c0 0 .04.56 0 .6c.3-.5.7-.7 1.3-.7c.2 0 .5.1.7.1c.2.1.3.2.4.4c.1.1.2.3.2.5c0 .1 0 .3 0 .6c.05.02 0 2.5 0 2.5l-.6 0c0 0-.02-2.45 0-2.5c0-.2 0-.4-.1-.6c-.1-.1-.1-.2-.3-.3c-.1-.1-.3-.1-.4-.1c-.3 0-.6.1-.8.3c-.2.1-.3.5-.3 1c0-.01 0 2.2 0 2.2l-.7 0zm4.5-4.7l0-.8l.7 0l0 .8l-.7 0zm0 4.7l0-4l.7 0l0 4l-.7 0zm3.1-.6c.1 0 .2 0 .3 0c0 0 .1.5.1.5c-.2.1-.4.1-.5.1c-.3 0-.4 0-.6-.1c-.1-.1-.2-.2-.3-.3c0-.1 0-.4 0-.8c-.05 0 0-2.3 0-2.3l-.5 0l0-.5l.5 0l0-1l.6-.4l0 1.4l.7 0l0 .5l-.7 0c0 0 .02 2.33 0 2.3c0 .2 0 .3.1.4c0 .1 0 .1.1.1c0 .1.1.1.2.1c0 0 0 0 0 0zm.9-1.4c0-.8.2-1.3.6-1.7c.4-.2.8-.4 1.3-.4c.5 0 1 .2 1.3.5c.4.4.5.9.5 1.5c0 .5 0 .9-.2 1.2c-.1.3-.4.5-.7.7c-.2.2-.6.2-.9.2c-.6 0-1-.1-1.4-.5c-.3-.3-.5-.9-.5-1.5zm.7 0c0 .5.1.9.4 1.1c.2.3.5.4.8.4c.3 0 .6-.1.8-.4c.2-.2.3-.6.3-1.1c0-.5-.1-.9-.3-1.2c-.2-.2-.5-.3-.8-.3c-.3 0-.6.1-.8.3c-.3.3-.4.7-.4 1.2zm4 2l0-4l.6 0c0 0 .05.6 0 .6c.2-.3.3-.5.5-.6c.1 0 .3-.1.4-.1c.2 0 .5.1.7.2c0 0-.2.6-.2.6c-.2 0-.4-.1-.5-.1c-.2 0-.3 0-.4.1c-.1.1-.2.2-.3.4c0 .2-.1.5-.1.8c.02-.02 0 2.1 0 2.1l-.7 0zm5.5-1.3c0 0 .7.1.7.1c-.1.4-.3.7-.6.9c-.3.2-.7.3-1.1.3c-.6 0-1.1-.1-1.4-.5c-.3-.3-.5-.8-.5-1.5c0-.7.2-1.2.5-1.5c.4-.4.8-.6 1.3-.6c.6 0 1 .2 1.3.5c.4.4.5.9.5 1.6c0 0 0 .1 0 .1c0 0-2.9 0-2.9 0c0 .5.1.8.4 1c.2.3.5.4.8.4c.2 0 .4-.1.6-.2c.2-.1.3-.3.4-.6zm-2.2-1.1c0 0 2.2 0 2.2 0c0-.3-.1-.6-.2-.8c-.2-.2-.5-.3-.8-.3c-.4 0-.6.1-.8.3c-.2.2-.3.5-.4.8zm6.6 2.4c0 0-.04-.54 0-.5c-.3.3-.7.5-1.1.5c-.4 0-.6 0-.9-.2c-.3-.2-.5-.4-.6-.7c-.2-.4-.2-.7-.2-1.1c0-.4 0-.8.2-1.1c.1-.3.3-.6.5-.7c.3-.2.6-.3.9-.3c.3 0 .5.1.7.2c.2.1.3.2.4.4c.02-.05 0-2 0-2l.7 0l0 5.5l-.6 0zm-2.2-2c0 .5.2.9.4 1.1c.2.3.4.4.7.4c.3 0 .6-.1.8-.4c.2-.2.3-.6.3-1.1c0-.5-.1-.9-.3-1.2c-.2-.2-.5-.3-.8-.3c-.3 0-.6.1-.8.3c-.2.3-.3.7-.3 1.2zm6.2 0c0-.8.2-1.3.6-1.7c.3-.2.7-.4 1.2-.4c.6 0 1 .2 1.4.5c.3.4.5.9.5 1.5c0 .5-.1.9-.3 1.2c-.1.3-.3.5-.6.7c-.3.2-.6.2-1 .2c-.5 0-1-.1-1.3-.5c-.4-.3-.5-.9-.5-1.5zm.7 0c0 .5.1.9.3 1.1c.2.3.5.4.8.4c.4 0 .6-.1.9-.4c.2-.2.3-.6.3-1.1c0-.5-.1-.9-.3-1.2c-.3-.2-.5-.3-.9-.3c-.3 0-.6.1-.8.3c-.2.3-.3.7-.3 1.2zm4 2l0-4l.6 0c0 0 0 .56 0 .6c.3-.5.7-.7 1.3-.7c.2 0 .4.1.6.1c.2.1.4.2.5.4c.1.1.1.3.2.5c0 .1 0 .3 0 .6c.01.02 0 2.5 0 2.5l-.7 0c0 0 .04-2.45 0-2.5c0-.2 0-.4 0-.6c-.1-.1-.2-.2-.3-.3c-.2-.1-.3-.1-.5-.1c-.3 0-.5.1-.7.3c-.2.1-.3.5-.3 1c-.04-.01 0 2.2 0 2.2l-.7 0z" stroke="none" fill="#ffffff"/></g></svg>