<?xml version="1.0" standalone="no"?>
<!DOCTYPE svg PUBLIC "-//W3C//DTD SVG 1.1//EN" "http://www.w3.org/Graphics/SVG/1.1/DTD/svg11.dtd">
<svg xmlns="http://www.w3.org/2000/svg" version="1.1" width="907px" height="585.9px" viewBox="0 -17 907 585.9" style="top:-17px">
  <desc>Under Construction (video to come from Colin)</desc>
  <defs/>
  <g id="Polygon63308">
    <path d="M 129.9 130 C 120.8 123.9 116.7 113.9 116.7 102.7 C 116.7 91.6 120.8 81.7 129.9 75.5 C 129.9 75.5 131 76.9 131 76.9 C 124.8 82.1 121.2 92.1 121.2 102.7 C 121.2 113.4 124.8 123.4 131 128.6 C 131 128.6 129.9 130 129.9 130 Z M 163.4 93.9 C 160.2 94.4 159.6 94.9 157.9 98.6 C 155.9 103.3 152.6 110.9 149.2 120.2 C 149.2 120.2 147.5 120.2 147.5 120.2 C 144.7 112.7 141.9 105.6 139 98.5 C 137.5 94.9 137 94.4 133.7 93.9 C 133.7 93.93 133.7 92.4 133.7 92.4 L 146.4 92.4 C 146.4 92.4 146.41 93.93 146.4 93.9 C 143.1 94.4 142.9 94.9 143.9 97.5 C 145.5 101.9 148 108.4 149.8 112.8 C 152 107.7 154 102.1 155.3 98 C 156.3 95 155.9 94.4 152.4 93.9 C 152.36 93.93 152.4 92.4 152.4 92.4 L 163.4 92.4 C 163.4 92.4 163.39 93.93 163.4 93.9 Z M 168 83.1 C 168 81.2 169.5 79.9 171.1 79.9 C 172.9 79.9 174.2 81.2 174.2 83.1 C 174.2 84.8 172.9 86.2 171.1 86.2 C 169.5 86.2 168 84.8 168 83.1 Z M 164.7 119.5 C 164.7 119.5 164.7 117.86 164.7 117.9 C 168.6 117.5 169 117.1 169 112.9 C 169 112.9 169 100.1 169 100.1 C 169 96.3 168.8 96 165.1 95.4 C 165.1 95.4 165.1 93.9 165.1 93.9 C 168.3 93.4 171.2 92.6 173.9 91.5 C 173.9 91.5 173.9 112.9 173.9 112.9 C 173.9 117.1 174.4 117.5 178.3 117.9 C 178.34 117.86 178.3 119.5 178.3 119.5 L 164.7 119.5 Z M 211.4 117.9 C 210 118.1 205.4 118.9 201.8 120.2 C 201.77 120.22 201.8 116.2 201.8 116.2 C 201.8 116.2 197.99 118.42 198 118.4 C 195.6 119.8 193.9 120.2 193.2 120.2 C 188.2 120.2 181.7 115.7 181.7 107 C 181.7 98.4 189.2 91.6 197.7 91.6 C 198.5 91.6 200.3 91.8 201.8 92.3 C 201.8 92.3 201.8 83.6 201.8 83.6 C 201.8 79.5 201.5 79.3 197 79 C 197 79 197 77.5 197 77.5 C 200.2 77.1 204.4 76.1 206.7 75.3 C 206.7 75.3 206.7 112.3 206.7 112.3 C 206.7 115.6 207.1 115.9 209.4 116.1 C 209.4 116.13 211.4 116.3 211.4 116.3 C 211.4 116.3 211.38 117.86 211.4 117.9 Z M 201.8 97.1 C 200.3 94.9 197.7 93.9 195.4 93.9 C 192.5 93.9 187.3 96.3 187.3 105.3 C 187.3 112.7 191.9 116.3 195.8 116.3 C 198.1 116.3 200.3 115.3 201.8 114.2 C 201.8 114.2 201.8 97.1 201.8 97.1 Z M 236.6 114.2 C 232.6 119.1 228.4 120.2 226.4 120.2 C 218.8 120.2 214.4 114 214.4 107 C 214.4 102.7 215.9 99 218.4 96.2 C 221 93.3 224.3 91.6 227.6 91.6 C 232.7 91.6 236.9 96.2 236.9 101.1 C 236.9 102.3 236.6 102.8 235.4 103 C 234.4 103.2 226.6 103.8 219.3 104.1 C 219.3 112.5 224.2 116 228.5 116 C 231 116 233.3 115 235.6 112.9 C 235.6 112.9 236.6 114.2 236.6 114.2 Z M 219.6 101.6 C 223 101.6 226.4 101.5 230 101.4 C 231.2 101.4 231.5 101 231.5 100.1 C 231.6 96.9 229.5 93.9 226.1 93.9 C 223.2 93.9 220.5 96.5 219.6 101.6 Z M 268 105.5 C 268 115.4 260.7 120.2 254.6 120.2 C 246.1 120.2 241 113.4 241 106.5 C 241 96.3 249 91.6 254.6 91.6 C 262.3 91.6 268 97.8 268 105.5 Z M 246.8 104.5 C 246.8 112.3 250.2 118.2 255.3 118.2 C 259.1 118.2 262.3 115.3 262.3 106.8 C 262.3 99.6 259.4 93.7 254 93.7 C 250.1 93.7 246.8 97.5 246.8 104.5 Z M 298.7 119.4 C 297.6 120 296.6 120.2 296.1 120.2 C 292.2 120.2 290 117.7 290 112.8 C 289.99 112.84 290 94.8 290 94.8 L 285.7 94.8 L 285.5 94.2 L 287.1 92.4 L 290 92.4 L 290 87.9 L 294 83.8 L 294.9 83.9 L 294.9 92.4 C 294.9 92.4 301.9 92.38 301.9 92.4 C 302.5 93 302.3 94.4 301.5 94.8 C 301.53 94.8 294.9 94.8 294.9 94.8 C 294.9 94.8 294.89 110.73 294.9 110.7 C 294.9 115.8 296.9 116.7 298.5 116.7 C 300 116.7 301.5 116.1 302.3 115.6 C 302.33 115.63 302.9 117.2 302.9 117.2 C 302.9 117.2 298.67 119.41 298.7 119.4 Z M 332.3 105.5 C 332.3 115.4 325 120.2 318.8 120.2 C 310.3 120.2 305.2 113.4 305.2 106.5 C 305.2 96.3 313.2 91.6 318.8 91.6 C 326.5 91.6 332.3 97.8 332.3 105.5 Z M 311 104.5 C 311 112.3 314.4 118.2 319.5 118.2 C 323.4 118.2 326.5 115.3 326.5 106.8 C 326.5 99.6 323.6 93.7 318.2 93.7 C 314.4 93.7 311 97.5 311 104.5 Z M 373.9 113.9 C 371.2 117.5 367.1 120.2 363.4 120.2 C 355.6 120.2 351 113.9 351 107.3 C 351 102.5 353 98.3 357.2 95.1 C 360.4 92.6 364.1 91.6 366.6 91.6 C 369 91.6 371.1 92.4 372.1 93.2 C 372.9 93.9 373.1 94.5 373.1 95.2 C 373.1 96.5 371.7 97.8 371 97.8 C 370.7 97.8 370.4 97.6 369.8 97.2 C 368 95.4 365.8 94.6 363.6 94.6 C 359.6 94.6 356 98 356 104.5 C 356 113.1 361.9 116 365.3 116 C 368 116 370 115.3 372.9 112.6 C 372.9 112.6 373.9 113.9 373.9 113.9 Z M 404.2 105.5 C 404.2 115.4 396.9 120.2 390.7 120.2 C 382.2 120.2 377.2 113.4 377.2 106.5 C 377.2 96.3 385.1 91.6 390.7 91.6 C 398.4 91.6 404.2 97.8 404.2 105.5 Z M 382.9 104.5 C 382.9 112.3 386.3 118.2 391.4 118.2 C 395.3 118.2 398.4 115.3 398.4 106.8 C 398.4 99.6 395.5 93.7 390.1 93.7 C 386.3 93.7 382.9 97.5 382.9 104.5 Z M 441.9 119.5 C 441.9 119.5 441.89 117.86 441.9 117.9 C 445.6 117.5 446.2 117.2 446.2 112.8 C 446.2 112.8 446.2 102.5 446.2 102.5 C 446.2 98.1 444.7 95.3 440.8 95.3 C 438.5 95.3 436.2 96.5 433.8 98.5 C 434 99.3 434 99.9 434 101.1 C 434 101.1 434 113.2 434 113.2 C 434 117.1 434.6 117.5 438 117.9 C 437.99 117.86 438 119.5 438 119.5 L 424.7 119.5 C 424.7 119.5 424.72 117.86 424.7 117.9 C 428.6 117.5 429.1 117.2 429.1 113.1 C 429.1 113.1 429.1 102.4 429.1 102.4 C 429.1 97.8 427.5 95.3 423.7 95.3 C 421.2 95.3 418.8 97 417 98.5 C 417 98.5 417 113.1 417 113.1 C 417 117.1 417.5 117.5 420.5 117.9 C 420.5 117.86 420.5 119.5 420.5 119.5 L 407.4 119.5 C 407.4 119.5 407.42 117.86 407.4 117.9 C 411.5 117.5 412.1 117.1 412.1 113.1 C 412.1 113.1 412.1 100.3 412.1 100.3 C 412.1 96.3 411.9 96 408.3 95.4 C 408.3 95.4 408.3 94 408.3 94 C 411 93.5 414.2 92.7 416.9 91.4 C 416.9 91.4 416.9 96.5 416.9 96.5 C 418.2 95.6 419.6 94.5 421.4 93.3 C 423 92.3 424.5 91.6 426.5 91.6 C 429.5 91.6 432.2 93.5 433.4 96.7 C 435.2 95.4 437 94.2 438.5 93.2 C 439.8 92.4 441.5 91.6 443.2 91.6 C 448 91.6 451.1 95 451.1 101.1 C 451.1 101.1 451.1 113.1 451.1 113.1 C 451.1 117.2 451.6 117.5 455.1 117.9 C 455.1 117.86 455.1 119.5 455.1 119.5 L 441.9 119.5 Z M 480.8 114.2 C 476.9 119.1 472.6 120.2 470.7 120.2 C 463 120.2 458.6 114 458.6 107 C 458.6 102.7 460.1 99 462.7 96.2 C 465.2 93.3 468.6 91.6 471.8 91.6 C 476.9 91.6 481.1 96.2 481.1 101.1 C 481.1 102.3 480.8 102.8 479.6 103 C 478.6 103.2 470.8 103.8 463.5 104.1 C 463.5 112.5 468.4 116 472.7 116 C 475.2 116 477.5 115 479.8 112.9 C 479.8 112.9 480.8 114.2 480.8 114.2 Z M 463.8 101.6 C 467.2 101.6 470.7 101.5 474.3 101.4 C 475.4 101.4 475.7 101 475.7 100.1 C 475.8 96.9 473.7 93.9 470.3 93.9 C 467.4 93.9 464.7 96.5 463.8 101.6 Z M 503 92.4 C 503 92.4 502.96 91.02 503 91 C 503 89.1 503.2 87.3 503.6 85.9 C 504.1 84.6 505.1 81.5 508.4 78.7 C 510.6 76.8 512.8 75.6 515.2 75.3 C 517.3 75.4 519.1 76.3 520.1 77.4 C 520.7 78.1 520.8 78.9 520.4 79.6 C 520.3 80.1 519.9 80.6 519.3 81.1 C 518.7 81.5 518.2 81.5 517.6 80.9 C 516.4 79.8 514.6 78.6 512.6 78.6 C 511 78.6 510 79.4 509.3 80.5 C 508.5 81.7 507.8 84.6 507.9 89.9 C 507.86 89.9 507.9 92.4 507.9 92.4 C 507.9 92.4 515.17 92.38 515.2 92.4 C 515.5 92.9 515.2 94.4 514.6 94.8 C 514.55 94.8 507.9 94.8 507.9 94.8 C 507.9 94.8 507.86 112.65 507.9 112.7 C 507.9 117.2 508.3 117.4 513.2 117.9 C 513.19 117.92 513.2 119.5 513.2 119.5 L 498.6 119.5 C 498.6 119.5 498.56 117.86 498.6 117.9 C 502.5 117.5 503 117.2 503 113.1 C 502.96 113.09 503 94.8 503 94.8 L 498.6 94.8 L 498.4 94.2 L 500 92.4 L 503 92.4 Z M 527 98.2 C 528.9 95.1 531.5 91.6 534.5 91.6 C 536.6 91.6 538.1 93.2 538.1 94.7 C 538.1 96 537.3 97.2 536.1 97.8 C 535.4 98.1 534.8 98 534.5 97.6 C 533.6 96.7 532.8 96.3 531.9 96.3 C 530.2 96.3 528.3 98.2 526.9 101.7 C 526.9 101.7 526.9 113 526.9 113 C 526.9 117.1 527.2 117.5 532 117.9 C 531.98 117.86 532 119.5 532 119.5 L 517.7 119.5 C 517.7 119.5 517.72 117.86 517.7 117.9 C 521.6 117.5 522 117.1 522 113 C 522 113 522 100.2 522 100.2 C 522 96.1 521.7 95.9 518.1 95.4 C 518.1 95.4 518.1 94 518.1 94 C 521.2 93.5 523.9 92.8 526.9 91.4 C 526.89 91.45 526.9 98.2 526.9 98.2 C 526.9 98.2 527.02 98.21 527 98.2 Z M 567.2 105.5 C 567.2 115.4 559.9 120.2 553.7 120.2 C 545.2 120.2 540.2 113.4 540.2 106.5 C 540.2 96.3 548.1 91.6 553.7 91.6 C 561.4 91.6 567.2 97.8 567.2 105.5 Z M 545.9 104.5 C 545.9 112.3 549.3 118.2 554.4 118.2 C 558.3 118.2 561.4 115.3 561.4 106.8 C 561.4 99.6 558.5 93.7 553.1 93.7 C 549.3 93.7 545.9 97.5 545.9 104.5 Z M 604.9 119.5 C 604.9 119.5 604.89 117.86 604.9 117.9 C 608.5 117.5 609.2 117.2 609.2 112.8 C 609.2 112.8 609.2 102.5 609.2 102.5 C 609.2 98.1 607.7 95.3 603.8 95.3 C 601.5 95.3 599.2 96.5 596.8 98.5 C 597 99.3 597 99.9 597 101.1 C 597 101.1 597 113.2 597 113.2 C 597 117.1 597.6 117.5 601 117.9 C 600.98 117.86 601 119.5 601 119.5 L 587.7 119.5 C 587.7 119.5 587.71 117.86 587.7 117.9 C 591.6 117.5 592.1 117.2 592.1 113.1 C 592.1 113.1 592.1 102.4 592.1 102.4 C 592.1 97.8 590.5 95.3 586.7 95.3 C 584.2 95.3 581.8 97 580 98.5 C 580 98.5 580 113.1 580 113.1 C 580 117.1 580.5 117.5 583.5 117.9 C 583.5 117.86 583.5 119.5 583.5 119.5 L 570.4 119.5 C 570.4 119.5 570.42 117.86 570.4 117.9 C 574.5 117.5 575.1 117.1 575.1 113.1 C 575.1 113.1 575.1 100.3 575.1 100.3 C 575.1 96.3 574.9 96 571.3 95.4 C 571.3 95.4 571.3 94 571.3 94 C 574 93.5 577.2 92.7 579.9 91.4 C 579.9 91.4 579.9 96.5 579.9 96.5 C 581.2 95.6 582.6 94.5 584.4 93.3 C 586 92.3 587.5 91.6 589.5 91.6 C 592.5 91.6 595.2 93.5 596.4 96.7 C 598.2 95.4 600 94.2 601.5 93.2 C 602.8 92.4 604.5 91.6 606.2 91.6 C 611 91.6 614.1 95 614.1 101.1 C 614.1 101.1 614.1 113.1 614.1 113.1 C 614.1 117.2 614.6 117.5 618.1 117.9 C 618.09 117.86 618.1 119.5 618.1 119.5 L 604.9 119.5 Z M 673.5 109.2 C 672.6 112.1 671 116.7 669.9 118.7 C 668.2 119.2 663 120.4 658.5 120.4 C 643.1 120.4 636.3 109.7 636.3 99.9 C 636.3 86.9 646.4 78.2 660.2 78.2 C 665.2 78.2 669.4 79.6 671.2 79.9 C 671.7 83.5 672 85.9 672.4 89.3 C 672.4 89.3 670.5 89.7 670.5 89.7 C 668.9 83.1 665.2 80.5 658.5 80.5 C 648.2 80.5 642.6 89.2 642.6 98.6 C 642.6 110.2 649.5 118.2 658.9 118.2 C 665.2 118.2 668.6 114.8 671.7 108.6 C 671.7 108.6 673.5 109.2 673.5 109.2 Z M 705.1 105.5 C 705.1 115.4 697.8 120.2 691.6 120.2 C 683.1 120.2 678 113.4 678 106.5 C 678 96.3 686 91.6 691.6 91.6 C 699.3 91.6 705.1 97.8 705.1 105.5 Z M 683.8 104.5 C 683.8 112.3 687.2 118.2 692.3 118.2 C 696.1 118.2 699.3 115.3 699.3 106.8 C 699.3 99.6 696.4 93.7 691 93.7 C 687.2 93.7 683.8 97.5 683.8 104.5 Z M 707.9 119.5 C 707.9 119.5 707.87 117.86 707.9 117.9 C 711.8 117.5 712.3 117.1 712.3 113 C 712.3 113 712.3 83.7 712.3 83.7 C 712.3 79.5 712 79.3 708.1 79 C 708.1 79 708.1 77.5 708.1 77.5 C 711.3 77.1 715.1 76.1 717.2 75.3 C 717.2 75.3 717.2 113 717.2 113 C 717.2 117.1 717.7 117.5 721.7 117.9 C 721.69 117.86 721.7 119.5 721.7 119.5 L 707.9 119.5 Z M 727.9 83.1 C 727.9 81.2 729.4 79.9 731.1 79.9 C 732.8 79.9 734.2 81.2 734.2 83.1 C 734.2 84.8 732.8 86.2 731 86.2 C 729.4 86.2 727.9 84.8 727.9 83.1 Z M 724.6 119.5 C 724.6 119.5 724.61 117.86 724.6 117.9 C 728.5 117.5 728.9 117.1 728.9 112.9 C 728.9 112.9 728.9 100.1 728.9 100.1 C 728.9 96.3 728.8 96 725 95.4 C 725 95.4 725 93.9 725 93.9 C 728.2 93.4 731.1 92.6 733.8 91.5 C 733.8 91.5 733.8 112.9 733.8 112.9 C 733.8 117.1 734.3 117.5 738.2 117.9 C 738.25 117.86 738.2 119.5 738.2 119.5 L 724.6 119.5 Z M 758.8 119.5 C 758.8 119.5 758.77 117.86 758.8 117.9 C 762.4 117.5 762.9 117 762.9 112.7 C 762.9 112.7 762.9 102.4 762.9 102.4 C 762.9 98.1 761.4 95.3 757.2 95.3 C 754.7 95.3 752.3 96.8 750.5 98.5 C 750.5 98.5 750.5 113 750.5 113 C 750.5 117.2 750.8 117.5 754.5 117.9 C 754.49 117.86 754.5 119.5 754.5 119.5 L 741 119.5 C 741 119.5 741.04 117.86 741 117.9 C 745.3 117.4 745.6 117.1 745.6 113 C 745.6 113 745.6 100.2 745.6 100.2 C 745.6 96.2 745.2 96 741.8 95.4 C 741.8 95.4 741.8 94 741.8 94 C 744.8 93.4 747.7 92.7 750.5 91.4 C 750.5 91.4 750.5 96.4 750.5 96.4 C 751.7 95.5 753.1 94.5 754.6 93.5 C 756.4 92.4 758 91.6 759.8 91.6 C 764.7 91.6 767.8 95 767.8 101.1 C 767.8 101.1 767.8 113 767.8 113 C 767.8 117.2 768.1 117.5 771.7 117.9 C 771.66 117.86 771.7 119.5 771.7 119.5 L 758.8 119.5 Z M 777.1 75.5 C 786.4 81.7 790.2 91.6 790.2 102.7 C 790.2 113.9 786.4 123.7 777.1 130 C 777.1 130 775.9 128.6 775.9 128.6 C 782.3 123.3 785.7 113.4 785.7 102.7 C 785.7 92.1 782.1 82 775.9 76.9 C 775.9 76.9 777.1 75.5 777.1 75.5 Z " stroke="none" fill="#ffffff"/>
  </g>
  <g id="Polygon63307">
    <path d="M 245.5 6.5 C 241.8 6.8 240.4 7.6 240.1 10.2 C 239.9 11.8 239.7 14.5 239.7 20.2 C 239.7 20.2 239.7 25.4 239.7 25.4 C 239.7 32.7 238.6 37.9 235 41.7 C 232.2 44.7 228 46 223.9 46 C 220.3 46 216.7 45.1 214 43 C 210.3 40.2 208.6 35.5 208.6 28.3 C 208.6 28.3 208.6 12.8 208.6 12.8 C 208.6 7.2 208.1 6.9 203.2 6.5 C 203.17 6.51 203.2 4.8 203.2 4.8 L 219.2 4.8 C 219.2 4.8 219.22 6.51 219.2 6.5 C 214.3 6.8 213.8 7.2 213.8 12.8 C 213.8 12.8 213.8 26.9 213.8 26.9 C 213.8 36.9 217.8 42.6 225.5 42.6 C 234.4 42.6 237.2 35.2 237.2 24.9 C 237.2 24.9 237.2 20.2 237.2 20.2 C 237.2 14.5 237 11.9 236.8 10 C 236.4 7.6 235.1 6.8 230.8 6.5 C 230.76 6.51 230.8 4.8 230.8 4.8 L 245.5 4.8 C 245.5 4.8 245.51 6.51 245.5 6.5 Z M 263.6 45.1 C 263.6 45.1 263.62 43.46 263.6 43.5 C 267.3 43.1 267.7 42.6 267.7 38.3 C 267.7 38.3 267.7 28 267.7 28 C 267.7 23.7 266.2 20.9 262.1 20.9 C 259.6 20.9 257.2 22.4 255.3 24.1 C 255.3 24.1 255.3 38.6 255.3 38.6 C 255.3 42.8 255.7 43.1 259.3 43.5 C 259.34 43.46 259.3 45.1 259.3 45.1 L 245.9 45.1 C 245.9 45.1 245.88 43.46 245.9 43.5 C 250.1 43 250.4 42.7 250.4 38.6 C 250.4 38.6 250.4 25.8 250.4 25.8 C 250.4 21.8 250 21.6 246.7 21 C 246.7 21 246.7 19.6 246.7 19.6 C 249.7 19 252.6 18.3 255.3 17 C 255.3 17 255.3 22 255.3 22 C 256.5 21.1 257.9 20.1 259.5 19.1 C 261.2 18 262.8 17.2 264.6 17.2 C 269.5 17.2 272.6 20.6 272.6 26.7 C 272.6 26.7 272.6 38.6 272.6 38.6 C 272.6 42.8 272.9 43.1 276.5 43.5 C 276.51 43.46 276.5 45.1 276.5 45.1 L 263.6 45.1 Z M 309.8 43.5 C 308.4 43.7 303.8 44.5 300.2 45.8 C 300.2 45.82 300.2 41.8 300.2 41.8 C 300.2 41.8 296.41 44.02 296.4 44 C 294 45.4 292.3 45.8 291.6 45.8 C 286.6 45.8 280.1 41.3 280.1 32.6 C 280.1 24 287.7 17.2 296.1 17.2 C 297 17.2 298.8 17.4 300.2 17.9 C 300.2 17.9 300.2 9.2 300.2 9.2 C 300.2 5.1 299.9 4.9 295.4 4.6 C 295.4 4.6 295.4 3.1 295.4 3.1 C 298.6 2.7 302.8 1.7 305.1 0.9 C 305.1 0.9 305.1 37.9 305.1 37.9 C 305.1 41.2 305.5 41.5 307.8 41.7 C 307.82 41.73 309.8 41.9 309.8 41.9 C 309.8 41.9 309.81 43.46 309.8 43.5 Z M 300.2 22.7 C 298.7 20.5 296.2 19.5 293.8 19.5 C 291 19.5 285.7 21.9 285.7 30.9 C 285.7 38.3 290.3 41.9 294.2 41.9 C 296.5 41.9 298.7 40.9 300.2 39.8 C 300.2 39.8 300.2 22.7 300.2 22.7 Z M 335 39.8 C 331.1 44.7 326.8 45.8 324.9 45.8 C 317.2 45.8 312.8 39.6 312.8 32.6 C 312.8 28.3 314.3 24.6 316.9 21.8 C 319.4 18.9 322.8 17.2 326 17.2 C 331.1 17.2 335.3 21.8 335.3 26.7 C 335.3 27.9 335 28.4 333.9 28.6 C 332.8 28.8 325.1 29.4 317.7 29.7 C 317.7 38.1 322.6 41.6 326.9 41.6 C 329.4 41.6 331.8 40.6 334 38.5 C 334 38.5 335 39.8 335 39.8 Z M 318 27.2 C 321.5 27.2 324.9 27.1 328.5 27 C 329.6 27 330 26.6 330 25.7 C 330 22.5 327.9 19.5 324.5 19.5 C 321.6 19.5 318.9 22.1 318 27.2 Z M 348.2 23.8 C 350 20.7 352.7 17.2 355.7 17.2 C 357.8 17.2 359.3 18.8 359.3 20.3 C 359.3 21.6 358.5 22.8 357.3 23.4 C 356.6 23.7 356 23.6 355.6 23.2 C 354.8 22.3 354 21.9 353 21.9 C 351.4 21.9 349.4 23.8 348.1 27.3 C 348.1 27.3 348.1 38.6 348.1 38.6 C 348.1 42.7 348.4 43.1 353.1 43.5 C 353.14 43.46 353.1 45.1 353.1 45.1 L 338.9 45.1 C 338.9 45.1 338.88 43.46 338.9 43.5 C 342.7 43.1 343.2 42.7 343.2 38.6 C 343.2 38.6 343.2 25.8 343.2 25.8 C 343.2 21.7 342.9 21.5 339.3 21 C 339.3 21 339.3 19.6 339.3 19.6 C 342.4 19.1 345.1 18.4 348.1 17 C 348.06 17.05 348.1 23.8 348.1 23.8 C 348.1 23.8 348.18 23.81 348.2 23.8 Z M 413.8 34.8 C 412.9 37.7 411.4 42.3 410.2 44.3 C 408.5 44.8 403.3 46 398.8 46 C 383.4 46 376.6 35.3 376.6 25.5 C 376.6 12.5 386.7 3.8 400.5 3.8 C 405.5 3.8 409.7 5.2 411.5 5.5 C 412 9.1 412.4 11.5 412.7 14.9 C 412.7 14.9 410.9 15.3 410.9 15.3 C 409.3 8.7 405.5 6.1 398.8 6.1 C 388.5 6.1 383 14.8 383 24.2 C 383 35.8 389.8 43.8 399.2 43.8 C 405.5 43.8 408.9 40.4 412 34.2 C 412 34.2 413.8 34.8 413.8 34.8 Z M 445.4 31.1 C 445.4 41 438.1 45.8 431.9 45.8 C 423.4 45.8 418.4 39 418.4 32.1 C 418.4 21.9 426.3 17.2 431.9 17.2 C 439.6 17.2 445.4 23.4 445.4 31.1 Z M 424.1 30.1 C 424.1 37.9 427.5 43.8 432.6 43.8 C 436.5 43.8 439.6 40.9 439.6 32.4 C 439.6 25.2 436.7 19.3 431.3 19.3 C 427.5 19.3 424.1 23.1 424.1 30.1 Z M 466.5 45.1 C 466.5 45.1 466.48 43.46 466.5 43.5 C 470.1 43.1 470.6 42.6 470.6 38.3 C 470.6 38.3 470.6 28 470.6 28 C 470.6 23.7 469.1 20.9 464.9 20.9 C 462.4 20.9 460 22.4 458.2 24.1 C 458.2 24.1 458.2 38.6 458.2 38.6 C 458.2 42.8 458.5 43.1 462.2 43.5 C 462.2 43.46 462.2 45.1 462.2 45.1 L 448.7 45.1 C 448.7 45.1 448.74 43.46 448.7 43.5 C 453 43 453.3 42.7 453.3 38.6 C 453.3 38.6 453.3 25.8 453.3 25.8 C 453.3 21.8 452.9 21.6 449.6 21 C 449.6 21 449.6 19.6 449.6 19.6 C 452.5 19 455.4 18.3 458.2 17 C 458.2 17 458.2 22 458.2 22 C 459.4 21.1 460.8 20.1 462.3 19.1 C 464.1 18 465.7 17.2 467.5 17.2 C 472.4 17.2 475.5 20.6 475.5 26.7 C 475.5 26.7 475.5 38.6 475.5 38.6 C 475.5 42.8 475.8 43.1 479.4 43.5 C 479.37 43.46 479.4 45.1 479.4 45.1 L 466.5 45.1 Z M 498.6 25.3 C 497.4 21.6 495.2 19.2 492.2 19.2 C 489.9 19.2 488.2 21 488.2 23.4 C 488.2 26.2 490.7 27.7 493.4 28.8 C 498.1 30.8 501.3 33 501.3 37.3 C 501.3 42.9 496 45.8 491 45.8 C 487.9 45.8 485 44.6 483.9 43.7 C 483.5 42.8 482.9 38.6 482.9 36.4 C 482.9 36.4 484.5 36.1 484.5 36.1 C 485.6 40.2 488.4 43.8 492.1 43.8 C 494.4 43.8 496.5 42 496.5 39.4 C 496.5 36.7 494.7 35.2 491.6 33.8 C 487.9 32.1 483.9 30 483.9 25.2 C 483.9 20.9 487.6 17.2 493.3 17.2 C 495.9 17.2 497.5 17.8 498.8 18.3 C 499.3 19.7 500 23.4 500.2 24.9 C 500.2 24.9 498.6 25.3 498.6 25.3 Z M 517.1 45 C 516 45.6 515 45.8 514.5 45.8 C 510.6 45.8 508.4 43.3 508.4 38.4 C 508.39 38.44 508.4 20.4 508.4 20.4 L 504.1 20.4 L 503.9 19.8 L 505.5 18 L 508.4 18 L 508.4 13.5 L 512.4 9.4 L 513.3 9.5 L 513.3 18 C 513.3 18 520.29 17.98 520.3 18 C 520.9 18.6 520.7 20 519.9 20.4 C 519.92 20.4 513.3 20.4 513.3 20.4 C 513.3 20.4 513.29 36.33 513.3 36.3 C 513.3 41.4 515.3 42.3 516.9 42.3 C 518.4 42.3 519.9 41.7 520.7 41.2 C 520.73 41.23 521.3 42.8 521.3 42.8 C 521.3 42.8 517.07 45.01 517.1 45 Z M 533.4 23.8 C 535.2 20.7 537.9 17.2 540.9 17.2 C 543 17.2 544.5 18.8 544.5 20.3 C 544.5 21.6 543.7 22.8 542.5 23.4 C 541.7 23.7 541.2 23.6 540.8 23.2 C 539.9 22.3 539.2 21.9 538.2 21.9 C 536.6 21.9 534.6 23.8 533.2 27.3 C 533.2 27.3 533.2 38.6 533.2 38.6 C 533.2 42.7 533.6 43.1 538.3 43.5 C 538.33 43.46 538.3 45.1 538.3 45.1 L 524.1 45.1 C 524.1 45.1 524.07 43.46 524.1 43.5 C 527.9 43.1 528.4 42.7 528.4 38.6 C 528.4 38.6 528.4 25.8 528.4 25.8 C 528.4 21.7 528 21.5 524.5 21 C 524.5 21 524.5 19.6 524.5 19.6 C 527.5 19.1 530.3 18.4 533.2 17 C 533.25 17.05 533.2 23.8 533.2 23.8 C 533.2 23.8 533.37 23.81 533.4 23.8 Z M 577.8 43.6 C 574.9 44 571.8 44.9 568.7 45.8 C 568.65 45.82 568.3 45.4 568.3 45.4 C 568.3 45.4 568.28 41.04 568.3 41 C 566.9 42.1 565.4 43.2 563.7 44.3 C 561.9 45.3 560.6 45.8 558.9 45.8 C 554.8 45.8 551.2 43.3 551.2 36.6 C 551.2 36.6 551.2 24.4 551.2 24.4 C 551.2 21 551 20.8 547.4 20.1 C 547.4 20.1 547.4 18.7 547.4 18.7 C 550.4 18.5 553.3 18.1 556.3 17.5 C 556.1 19.5 556.1 22.4 556.1 26.6 C 556.1 26.6 556.1 34.9 556.1 34.9 C 556.1 40.4 558.8 41.9 561.6 41.9 C 563.8 41.9 566.2 41 568.3 38.9 C 568.3 38.9 568.3 24.5 568.3 24.5 C 568.3 21 567.9 20.7 563.4 20.1 C 563.4 20.1 563.4 18.7 563.4 18.7 C 566.7 18.5 569.9 18.2 573.2 17.5 C 573.2 17.5 573.2 38.3 573.2 38.3 C 573.2 41.4 573.7 41.8 576 41.9 C 576.03 41.91 577.8 42 577.8 42 C 577.8 42 577.76 43.59 577.8 43.6 Z M 603.9 39.5 C 601.1 43.1 597 45.8 593.3 45.8 C 585.5 45.8 580.9 39.5 580.9 32.9 C 580.9 28.1 583 23.9 587.1 20.7 C 590.3 18.2 594.1 17.2 596.5 17.2 C 599 17.2 601 18 602 18.8 C 602.8 19.5 603 20.1 603 20.8 C 603 22.1 601.6 23.4 601 23.4 C 600.6 23.4 600.3 23.2 599.8 22.8 C 597.9 21 595.7 20.2 593.6 20.2 C 589.5 20.2 585.9 23.6 585.9 30.1 C 585.9 38.7 591.8 41.6 595.2 41.6 C 597.9 41.6 600 40.9 602.8 38.2 C 602.8 38.2 603.9 39.5 603.9 39.5 Z M 619.5 45 C 618.4 45.6 617.4 45.8 616.9 45.8 C 613 45.8 610.8 43.3 610.8 38.4 C 610.81 38.44 610.8 20.4 610.8 20.4 L 606.5 20.4 L 606.3 19.8 L 608 18 L 610.8 18 L 610.8 13.5 L 614.8 9.4 L 615.7 9.5 L 615.7 18 C 615.7 18 622.71 17.98 622.7 18 C 623.3 18.6 623.1 20 622.3 20.4 C 622.34 20.4 615.7 20.4 615.7 20.4 C 615.7 20.4 615.71 36.33 615.7 36.3 C 615.7 41.4 617.8 42.3 619.3 42.3 C 620.9 42.3 622.3 41.7 623.1 41.2 C 623.15 41.23 623.7 42.8 623.7 42.8 C 623.7 42.8 619.49 45.01 619.5 45 Z M 629.7 8.7 C 629.7 6.8 631.2 5.5 632.9 5.5 C 634.6 5.5 636 6.8 636 8.7 C 636 10.4 634.6 11.8 632.8 11.8 C 631.2 11.8 629.7 10.4 629.7 8.7 Z M 626.4 45.1 C 626.4 45.1 626.43 43.46 626.4 43.5 C 630.3 43.1 630.8 42.7 630.8 38.5 C 630.8 38.5 630.8 25.7 630.8 25.7 C 630.8 21.9 630.6 21.6 626.9 21 C 626.9 21 626.9 19.5 626.9 19.5 C 630 19 632.9 18.2 635.7 17.1 C 635.7 17.1 635.7 38.5 635.7 38.5 C 635.7 42.7 636.1 43.1 640.1 43.5 C 640.07 43.46 640.1 45.1 640.1 45.1 L 626.4 45.1 Z M 670.4 31.1 C 670.4 41 663.1 45.8 656.9 45.8 C 648.4 45.8 643.4 39 643.4 32.1 C 643.4 21.9 651.3 17.2 656.9 17.2 C 664.6 17.2 670.4 23.4 670.4 31.1 Z M 649.1 30.1 C 649.1 37.9 652.5 43.8 657.6 43.8 C 661.5 43.8 664.6 40.9 664.6 32.4 C 664.6 25.2 661.7 19.3 656.3 19.3 C 652.5 19.3 649.1 23.1 649.1 30.1 Z M 691.5 45.1 C 691.5 45.1 691.47 43.46 691.5 43.5 C 695.1 43.1 695.6 42.6 695.6 38.3 C 695.6 38.3 695.6 28 695.6 28 C 695.6 23.7 694.1 20.9 689.9 20.9 C 687.4 20.9 685 22.4 683.2 24.1 C 683.2 24.1 683.2 38.6 683.2 38.6 C 683.2 42.8 683.5 43.1 687.2 43.5 C 687.19 43.46 687.2 45.1 687.2 45.1 L 673.7 45.1 C 673.7 45.1 673.74 43.46 673.7 43.5 C 678 43 678.3 42.7 678.3 38.6 C 678.3 38.6 678.3 25.8 678.3 25.8 C 678.3 21.8 677.9 21.6 674.5 21 C 674.5 21 674.5 19.6 674.5 19.6 C 677.5 19 680.4 18.3 683.2 17 C 683.2 17 683.2 22 683.2 22 C 684.4 21.1 685.8 20.1 687.3 19.1 C 689.1 18 690.7 17.2 692.5 17.2 C 697.4 17.2 700.5 20.6 700.5 26.7 C 700.5 26.7 700.5 38.6 700.5 38.6 C 700.5 42.8 700.8 43.1 704.4 43.5 C 704.36 43.46 704.4 45.1 704.4 45.1 L 691.5 45.1 Z " stroke="none" fill="#ffffff"/>
  </g>
</svg>