<?xml version="1.0" standalone="no"?>
<!DOCTYPE svg PUBLIC "-//W3C//DTD SVG 1.1//EN" "http://www.w3.org/Graphics/SVG/1.1/DTD/svg11.dtd">
<svg xmlns="http://www.w3.org/2000/svg" version="1.1" width="308px" height="161.9px" viewBox="0 -7 308 161.9" style="top:-7px">
  <desc>The firm is renowned in the market for handling an impressive roster of clients both domestically and internationally</desc>
  <defs/>
  <g id="Polygon58253">
    <path d="M 193 140.8 C 193 140.8 194.4 141 194.4 141 C 193.9 142.2 193.3 143.1 192.5 143.6 C 191.7 144.2 190.8 144.5 189.8 144.5 C 188.6 144.5 187.6 144.2 186.9 143.4 C 186.2 142.7 185.9 141.6 185.9 140.2 C 185.9 138.4 186.4 136.9 187.5 135.7 C 188.5 134.7 189.7 134.2 191.1 134.2 C 192.2 134.2 193 134.5 193.7 135 C 194.3 135.6 194.7 136.4 194.8 137.3 C 194.8 137.3 193.6 137.4 193.6 137.4 C 193.4 136.7 193.2 136.2 192.7 135.8 C 192.3 135.5 191.8 135.3 191.2 135.3 C 189.9 135.3 188.9 135.8 188.2 136.9 C 187.5 137.8 187.2 139 187.2 140.3 C 187.2 141.3 187.4 142.1 188 142.6 C 188.5 143.2 189.1 143.4 189.9 143.4 C 190.6 143.4 191.2 143.2 191.8 142.7 C 192.4 142.3 192.8 141.7 193 140.8 Z M 195.2 144.4 L 197.3 134.3 L 198.5 134.3 C 198.5 134.3 197.69 138.19 197.7 138.2 C 198.2 137.7 198.6 137.4 199 137.2 C 199.4 137 199.8 136.9 200.2 136.9 C 200.8 136.9 201.3 137.1 201.6 137.4 C 201.9 137.7 202.1 138.1 202.1 138.7 C 202.1 138.9 202 139.4 201.9 140.1 C 201.88 140.07 201 144.4 201 144.4 L 199.8 144.4 C 199.8 144.4 200.67 139.97 200.7 140 C 200.8 139.3 200.9 138.9 200.9 138.8 C 200.9 138.5 200.8 138.3 200.6 138.2 C 200.5 138 200.2 138 199.9 138 C 199.5 138 199 138.1 198.6 138.3 C 198.2 138.5 197.9 138.9 197.7 139.3 C 197.5 139.7 197.2 140.3 197.1 141.2 C 197.05 141.24 196.4 144.4 196.4 144.4 L 195.2 144.4 Z M 208 144.4 C 207.9 144.1 207.9 143.8 207.8 143.5 C 207.4 143.8 207 144.1 206.6 144.3 C 206.2 144.4 205.8 144.5 205.3 144.5 C 204.7 144.5 204.1 144.3 203.7 143.9 C 203.3 143.5 203.1 143 203.1 142.4 C 203.1 142 203.2 141.7 203.4 141.3 C 203.6 141 203.8 140.8 204.1 140.6 C 204.4 140.4 204.8 140.3 205.2 140.2 C 205.5 140.1 206 140.1 206.8 140.1 C 207.6 140 208.1 139.9 208.5 139.8 C 208.6 139.5 208.6 139.2 208.6 139 C 208.6 138.7 208.5 138.5 208.3 138.3 C 208 138.1 207.6 137.9 207.1 137.9 C 206.5 137.9 206.1 138.1 205.8 138.3 C 205.5 138.5 205.2 138.9 205.1 139.3 C 205.1 139.3 203.8 139.2 203.8 139.2 C 204.1 138.4 204.5 137.9 205 137.5 C 205.6 137.1 206.3 136.9 207.1 136.9 C 208 136.9 208.7 137.2 209.3 137.6 C 209.7 137.9 209.9 138.3 209.9 138.8 C 209.9 139.2 209.8 139.7 209.7 140.2 C 209.7 140.2 209.3 142 209.3 142 C 209.2 142.5 209.1 143 209.1 143.4 C 209.1 143.6 209.1 143.9 209.2 144.4 C 209.24 144.36 208 144.4 208 144.4 C 208 144.4 207.99 144.36 208 144.4 Z M 208.3 140.7 C 208.1 140.8 207.9 140.8 207.7 140.8 C 207.5 140.9 207.2 140.9 206.8 141 C 206 141 205.5 141.1 205.2 141.2 C 204.9 141.3 204.7 141.5 204.6 141.7 C 204.4 141.9 204.3 142.1 204.3 142.4 C 204.3 142.7 204.5 143 204.7 143.2 C 204.9 143.5 205.3 143.6 205.7 143.6 C 206.1 143.6 206.5 143.5 206.9 143.2 C 207.3 143 207.6 142.7 207.8 142.3 C 208 141.9 208.2 141.4 208.3 140.7 Z M 210.7 144.4 L 212.2 137.1 L 213.5 137.1 C 213.5 137.1 213.23 138.3 213.2 138.3 C 213.7 137.8 214.1 137.4 214.5 137.2 C 214.8 137 215.2 136.9 215.6 136.9 C 216.1 136.9 216.5 137.1 216.8 137.3 C 217.1 137.5 217.3 137.9 217.4 138.3 C 217.7 137.8 218.1 137.5 218.5 137.3 C 218.9 137 219.4 136.9 219.8 136.9 C 220.4 136.9 220.9 137.1 221.2 137.4 C 221.5 137.7 221.6 138.1 221.6 138.6 C 221.6 138.8 221.6 139.2 221.5 139.7 C 221.49 139.68 220.5 144.4 220.5 144.4 L 219.3 144.4 C 219.3 144.4 220.27 139.56 220.3 139.6 C 220.4 139.2 220.4 138.9 220.4 138.7 C 220.4 138.5 220.3 138.3 220.2 138.2 C 220 138 219.8 138 219.5 138 C 219.2 138 218.8 138.1 218.4 138.3 C 218 138.5 217.7 138.8 217.5 139.2 C 217.3 139.5 217.1 140.1 217 140.8 C 216.96 140.84 216.2 144.4 216.2 144.4 L 215 144.4 C 215 144.4 216.01 139.46 216 139.5 C 216.1 139.1 216.1 138.9 216.1 138.7 C 216.1 138.5 216 138.3 215.9 138.2 C 215.8 138 215.6 138 215.3 138 C 215 138 214.6 138.1 214.2 138.3 C 213.8 138.5 213.5 138.8 213.3 139.2 C 213 139.6 212.8 140.2 212.7 140.9 C 212.68 140.93 212 144.4 212 144.4 L 210.7 144.4 Z M 222.4 144.4 L 224.5 134.3 L 225.7 134.3 C 225.7 134.3 224.98 137.92 225 137.9 C 225.4 137.6 225.7 137.3 226 137.2 C 226.4 137 226.7 136.9 227 136.9 C 227.7 136.9 228.3 137.2 228.7 137.7 C 229.2 138.2 229.4 138.9 229.4 139.9 C 229.4 140.5 229.3 141.1 229.2 141.7 C 229 142.2 228.7 142.6 228.5 143 C 228.2 143.4 227.9 143.7 227.6 143.9 C 227.4 144.1 227.1 144.3 226.8 144.4 C 226.5 144.5 226.2 144.5 225.9 144.5 C 225.4 144.5 225 144.4 224.6 144.1 C 224.3 143.9 224 143.5 223.8 143 C 223.77 142.99 223.5 144.4 223.5 144.4 L 222.4 144.4 Z M 224.5 140 C 224.3 140.6 224.2 141 224.2 141.4 C 224.2 141.4 224.2 141.6 224.2 141.6 C 224.2 142.2 224.4 142.7 224.7 143 C 225 143.4 225.3 143.5 225.8 143.5 C 226.2 143.5 226.6 143.4 227 143.1 C 227.3 142.8 227.6 142.3 227.9 141.6 C 228.1 141 228.2 140.4 228.2 139.9 C 228.2 139.3 228.1 138.8 227.8 138.4 C 227.5 138.1 227.1 137.9 226.7 137.9 C 226.2 137.9 225.8 138.1 225.4 138.5 C 225.1 138.8 224.8 139.3 224.5 140 C 224.5 140 224.5 140 224.5 140 Z M 235.5 141.9 C 235.5 141.9 236.7 142 236.7 142 C 236.5 142.6 236.1 143.2 235.5 143.7 C 234.9 144.3 234.2 144.5 233.3 144.5 C 232.8 144.5 232.3 144.4 231.8 144.2 C 231.4 143.9 231 143.5 230.8 143.1 C 230.6 142.6 230.4 142.1 230.4 141.4 C 230.4 140.7 230.6 139.9 231 139.1 C 231.4 138.4 231.8 137.8 232.4 137.5 C 233 137.1 233.6 136.9 234.3 136.9 C 235.2 136.9 235.9 137.2 236.4 137.7 C 236.9 138.3 237.2 139 237.2 139.9 C 237.2 140.3 237.1 140.7 237.1 141 C 237.1 141 231.7 141 231.7 141 C 231.7 141.2 231.7 141.3 231.7 141.4 C 231.7 142.1 231.9 142.6 232.2 143 C 232.5 143.3 232.9 143.5 233.3 143.5 C 233.7 143.5 234.1 143.4 234.6 143.1 C 235 142.8 235.3 142.4 235.5 141.9 Z M 231.9 140.1 C 231.9 140.1 236 140.1 236 140.1 C 236 140 236 139.9 236 139.8 C 236 139.2 235.8 138.7 235.5 138.4 C 235.2 138.1 234.8 137.9 234.3 137.9 C 233.8 137.9 233.3 138.1 232.9 138.4 C 232.5 138.8 232.1 139.4 231.9 140.1 Z M 238 144.4 L 239.5 137.1 L 240.6 137.1 C 240.6 137.1 240.27 138.58 240.3 138.6 C 240.6 138 241 137.6 241.4 137.3 C 241.7 137.1 242.1 136.9 242.5 136.9 C 242.7 136.9 243 137 243.4 137.2 C 243.4 137.2 242.9 138.4 242.9 138.4 C 242.7 138.2 242.4 138.1 242.2 138.1 C 241.7 138.1 241.3 138.4 240.8 138.8 C 240.4 139.3 240 140.2 239.8 141.4 C 239.76 141.45 239.1 144.4 239.1 144.4 L 238 144.4 Z M 243.6 143.9 C 243 143.5 242.7 142.8 242.7 141.9 C 242.7 141.9 244 141.8 244 141.8 C 244 142.2 244 142.5 244.2 142.7 C 244.3 143 244.5 143.2 244.8 143.3 C 245 143.5 245.4 143.6 245.8 143.6 C 246.3 143.6 246.7 143.5 247 143.2 C 247.3 143 247.4 142.8 247.4 142.5 C 247.4 142.3 247.3 142.1 247.2 141.9 C 247 141.7 246.6 141.4 245.9 141.2 C 245.3 140.9 244.9 140.7 244.7 140.6 C 244.4 140.4 244.2 140.2 244 139.9 C 243.8 139.6 243.8 139.4 243.8 139 C 243.8 138.5 244 138 244.5 137.6 C 244.9 137.1 245.5 136.9 246.4 136.9 C 247.3 136.9 248 137.1 248.4 137.6 C 248.9 138 249.2 138.5 249.2 139.2 C 249.2 139.2 248 139.3 248 139.3 C 248 138.9 247.8 138.5 247.5 138.3 C 247.2 138 246.8 137.9 246.3 137.9 C 245.8 137.9 245.5 138 245.3 138.2 C 245 138.4 244.9 138.6 244.9 138.8 C 244.9 139.1 245 139.3 245.2 139.4 C 245.4 139.5 245.7 139.7 246.3 140 C 247.2 140.4 247.8 140.7 248.1 140.9 C 248.5 141.3 248.7 141.8 248.7 142.3 C 248.7 142.7 248.6 143 248.3 143.4 C 248.1 143.7 247.8 144 247.3 144.2 C 246.9 144.4 246.3 144.5 245.7 144.5 C 244.9 144.5 244.2 144.3 243.6 143.9 C 243.6 143.9 243.6 143.9 243.6 143.9 Z M 255.8 134.3 L 257.2 134.3 C 257.2 134.3 255.89 140.5 255.9 140.5 C 255.8 141 255.7 141.4 255.7 141.6 C 255.7 142.2 255.9 142.6 256.4 142.9 C 256.8 143.3 257.3 143.4 258 143.4 C 258.5 143.4 259 143.3 259.4 143.1 C 259.8 142.8 260.2 142.5 260.4 142 C 260.7 141.6 260.9 140.9 261.1 139.9 C 261.12 139.86 262.3 134.3 262.3 134.3 L 263.6 134.3 C 263.6 134.3 262.4 140.22 262.4 140.2 C 262.2 141.2 261.9 142 261.6 142.6 C 261.2 143.2 260.8 143.7 260.1 144 C 259.5 144.4 258.8 144.5 258 144.5 C 257.3 144.5 256.6 144.4 256.1 144.2 C 255.5 143.9 255.1 143.6 254.8 143.1 C 254.5 142.7 254.4 142.2 254.4 141.6 C 254.4 141.3 254.5 140.7 254.7 139.8 C 254.69 139.81 255.8 134.3 255.8 134.3 Z M 263.8 144.4 L 265.9 134.3 L 267.2 134.3 L 266.2 139.2 L 271.7 134.3 L 273.5 134.3 L 268.9 138.4 L 272.3 144.4 L 270.8 144.4 L 267.9 139.3 L 265.8 141.1 L 265.1 144.4 L 263.8 144.4 Z M 283.4 143.2 L 283.4 144.4 C 283.4 144.4 276.82 144.36 276.8 144.4 C 276.8 144.1 276.9 143.8 277 143.5 C 277.1 143.1 277.4 142.6 277.8 142.2 C 278.1 141.7 278.7 141.2 279.4 140.7 C 280.5 139.8 281.2 139.1 281.6 138.5 C 282 138 282.2 137.5 282.2 137.1 C 282.2 136.6 282 136.2 281.6 135.8 C 281.3 135.5 280.8 135.3 280.3 135.3 C 279.7 135.3 279.2 135.5 278.9 135.8 C 278.5 136.2 278.3 136.7 278.3 137.3 C 278.3 137.3 277.1 137.2 277.1 137.2 C 277.1 136.3 277.5 135.5 278 135 C 278.6 134.5 279.4 134.3 280.3 134.3 C 281.3 134.3 282 134.6 282.6 135.1 C 283.1 135.6 283.4 136.3 283.4 137.1 C 283.4 137.5 283.3 137.9 283.2 138.3 C 283 138.7 282.7 139.1 282.4 139.5 C 282 139.9 281.4 140.5 280.5 141.3 C 279.7 141.9 279.3 142.3 279 142.5 C 278.8 142.7 278.7 143 278.5 143.2 C 278.53 143.18 283.4 143.2 283.4 143.2 Z M 285.8 143.5 C 285.1 142.7 284.8 141.3 284.8 139.4 C 284.8 138.2 284.9 137.3 285.1 136.6 C 285.4 135.8 285.7 135.3 286.2 134.9 C 286.7 134.5 287.3 134.3 288 134.3 C 288.6 134.3 289 134.4 289.4 134.6 C 289.9 134.8 290.2 135.2 290.5 135.6 C 290.7 136 290.9 136.5 291.1 137 C 291.2 137.6 291.3 138.4 291.3 139.4 C 291.3 140.6 291.2 141.5 290.9 142.3 C 290.7 143 290.3 143.5 289.9 143.9 C 289.4 144.3 288.8 144.5 288 144.5 C 287.1 144.5 286.3 144.2 285.8 143.5 C 285.8 143.5 285.8 143.5 285.8 143.5 Z M 286.7 136 C 286.2 136.6 286 137.8 286 139.4 C 286 141.1 286.2 142.2 286.6 142.7 C 287 143.2 287.5 143.5 288 143.5 C 288.6 143.5 289.1 143.2 289.5 142.7 C 289.8 142.2 290 141.1 290 139.4 C 290 137.8 289.8 136.7 289.5 136.1 C 289.1 135.6 288.6 135.3 288 135.3 C 287.5 135.3 287 135.6 286.7 136 C 286.7 136 286.7 136 286.7 136 Z M 299 143.2 L 299 144.4 C 299 144.4 292.39 144.36 292.4 144.4 C 292.4 144.1 292.4 143.8 292.5 143.5 C 292.7 143.1 293 142.6 293.3 142.2 C 293.7 141.7 294.3 141.2 295 140.7 C 296 139.8 296.8 139.1 297.2 138.5 C 297.5 138 297.7 137.5 297.7 137.1 C 297.7 136.6 297.6 136.2 297.2 135.8 C 296.9 135.5 296.4 135.3 295.9 135.3 C 295.3 135.3 294.8 135.5 294.4 135.8 C 294.1 136.2 293.9 136.7 293.9 137.3 C 293.9 137.3 292.6 137.2 292.6 137.2 C 292.7 136.3 293 135.5 293.6 135 C 294.2 134.5 294.9 134.3 295.9 134.3 C 296.8 134.3 297.6 134.6 298.2 135.1 C 298.7 135.6 299 136.3 299 137.1 C 299 137.5 298.9 137.9 298.8 138.3 C 298.6 138.7 298.3 139.1 297.9 139.5 C 297.6 139.9 296.9 140.5 296 141.3 C 295.3 141.9 294.8 142.3 294.6 142.5 C 294.4 142.7 294.2 143 294.1 143.2 C 294.1 143.18 299 143.2 299 143.2 Z M 305 144.4 L 303.7 144.4 C 303.7 144.4 303.74 136.52 303.7 136.5 C 303.4 136.8 303.1 137.1 302.6 137.4 C 302.1 137.7 301.7 137.9 301.3 138 C 301.3 138 301.3 136.8 301.3 136.8 C 302 136.5 302.6 136.1 303.1 135.6 C 303.6 135.2 304 134.7 304.2 134.3 C 304.18 134.3 305 134.3 305 134.3 L 305 144.4 Z " stroke="none" fill="#939ba1"/>
  </g>
  <g id="Polygon58252">
    <path d="M 1.3 118.6 L 1.3 104.2 L 3.1 104.2 C 3.1 104.2 3.08 109.38 3.1 109.4 C 3.9 108.4 4.9 108 6.2 108 C 6.9 108 7.6 108.1 8.2 108.4 C 8.8 108.7 9.2 109.1 9.4 109.7 C 9.6 110.2 9.8 111 9.8 112 C 9.77 111.99 9.8 118.6 9.8 118.6 L 8 118.6 C 8 118.6 8.01 111.99 8 112 C 8 111.1 7.8 110.5 7.4 110.1 C 7.1 109.7 6.5 109.5 5.8 109.5 C 5.3 109.5 4.8 109.6 4.4 109.9 C 3.9 110.1 3.6 110.5 3.4 111 C 3.2 111.4 3.1 112.1 3.1 112.9 C 3.08 112.89 3.1 118.6 3.1 118.6 L 1.3 118.6 Z M 19.6 118.6 C 19.4 118.2 19.3 117.8 19.2 117.3 C 18.6 117.8 17.9 118.2 17.3 118.5 C 16.7 118.7 16.1 118.8 15.4 118.8 C 14.3 118.8 13.4 118.5 12.8 118 C 12.2 117.4 11.8 116.7 11.8 115.8 C 11.8 115.3 12 114.9 12.2 114.4 C 12.4 114 12.7 113.7 13.1 113.4 C 13.5 113.2 13.9 113 14.4 112.8 C 14.7 112.8 15.2 112.7 15.9 112.6 C 17.3 112.4 18.4 112.2 19.1 112 C 19.1 111.7 19.1 111.6 19.1 111.5 C 19.1 110.8 18.9 110.3 18.6 110 C 18.1 109.6 17.5 109.4 16.6 109.4 C 15.7 109.4 15.1 109.6 14.7 109.8 C 14.3 110.1 14.1 110.6 13.9 111.4 C 13.9 111.4 12.1 111.1 12.1 111.1 C 12.3 110.4 12.6 109.8 12.9 109.4 C 13.3 108.9 13.8 108.6 14.5 108.3 C 15.1 108.1 15.9 108 16.8 108 C 17.7 108 18.4 108.1 19 108.3 C 19.5 108.5 19.9 108.7 20.2 109.1 C 20.5 109.4 20.6 109.8 20.8 110.3 C 20.8 110.5 20.8 111.1 20.8 111.9 C 20.8 111.9 20.8 114.2 20.8 114.2 C 20.8 115.8 20.9 116.9 21 117.3 C 21 117.7 21.2 118.2 21.4 118.6 C 21.4 118.56 19.6 118.6 19.6 118.6 C 19.6 118.6 19.56 118.56 19.6 118.6 Z M 19.1 113.4 C 18.4 113.6 17.5 113.8 16.2 114 C 15.5 114.1 15 114.2 14.7 114.4 C 14.4 114.5 14.1 114.7 14 114.9 C 13.8 115.2 13.7 115.5 13.7 115.8 C 13.7 116.2 13.9 116.6 14.3 116.9 C 14.6 117.3 15.1 117.4 15.8 117.4 C 16.5 117.4 17.1 117.3 17.6 117 C 18.1 116.7 18.5 116.3 18.8 115.8 C 19 115.4 19.1 114.8 19.1 114 C 19.1 114 19.1 113.4 19.1 113.4 Z M 23.6 118.6 L 23.6 108.2 L 25.1 108.2 C 25.1 108.2 25.15 109.66 25.1 109.7 C 25.9 108.5 27 108 28.4 108 C 29.1 108 29.6 108.1 30.2 108.3 C 30.7 108.5 31.1 108.8 31.3 109.2 C 31.6 109.5 31.8 110 31.9 110.5 C 32 110.8 32 111.4 32 112.2 C 31.99 112.18 32 118.6 32 118.6 L 30.2 118.6 C 30.2 118.6 30.23 112.25 30.2 112.3 C 30.2 111.5 30.2 111 30 110.6 C 29.9 110.3 29.6 110 29.3 109.8 C 29 109.6 28.5 109.5 28.1 109.5 C 27.3 109.5 26.7 109.7 26.1 110.2 C 25.6 110.7 25.3 111.6 25.3 112.9 C 25.32 112.9 25.3 118.6 25.3 118.6 L 23.6 118.6 Z M 41.4 118.6 C 41.4 118.6 41.42 117.25 41.4 117.3 C 40.8 118.3 39.8 118.8 38.5 118.8 C 37.7 118.8 36.9 118.6 36.2 118.1 C 35.5 117.7 35 117 34.6 116.2 C 34.2 115.4 34.1 114.4 34.1 113.4 C 34.1 112.3 34.2 111.4 34.6 110.6 C 34.9 109.7 35.4 109.1 36.1 108.6 C 36.8 108.2 37.6 108 38.4 108 C 39.1 108 39.6 108.1 40.1 108.4 C 40.6 108.6 41 109 41.3 109.4 C 41.3 109.38 41.3 104.2 41.3 104.2 L 43 104.2 L 43 118.6 L 41.4 118.6 Z M 35.9 113.4 C 35.9 114.7 36.1 115.7 36.7 116.4 C 37.3 117 37.9 117.3 38.7 117.3 C 39.4 117.3 40.1 117 40.6 116.4 C 41.2 115.8 41.4 114.8 41.4 113.5 C 41.4 112.1 41.2 111.1 40.6 110.4 C 40.1 109.7 39.4 109.4 38.6 109.4 C 37.8 109.4 37.2 109.7 36.6 110.4 C 36.1 111 35.9 112 35.9 113.4 Z M 45.8 118.6 L 45.8 104.2 L 47.5 104.2 L 47.5 118.6 L 45.8 118.6 Z M 50.3 106.3 L 50.3 104.2 L 52 104.2 L 52 106.3 L 50.3 106.3 Z M 50.3 118.6 L 50.3 108.2 L 52 108.2 L 52 118.6 L 50.3 118.6 Z M 54.7 118.6 L 54.7 108.2 L 56.3 108.2 C 56.3 108.2 56.28 109.66 56.3 109.7 C 57 108.5 58.1 108 59.6 108 C 60.2 108 60.8 108.1 61.3 108.3 C 61.8 108.5 62.2 108.8 62.5 109.2 C 62.7 109.5 62.9 110 63 110.5 C 63.1 110.8 63.1 111.4 63.1 112.2 C 63.13 112.18 63.1 118.6 63.1 118.6 L 61.4 118.6 C 61.4 118.6 61.37 112.25 61.4 112.3 C 61.4 111.5 61.3 111 61.2 110.6 C 61 110.3 60.8 110 60.4 109.8 C 60.1 109.6 59.7 109.5 59.2 109.5 C 58.5 109.5 57.8 109.7 57.3 110.2 C 56.7 110.7 56.5 111.6 56.5 112.9 C 56.46 112.9 56.5 118.6 56.5 118.6 L 54.7 118.6 Z M 65.5 119.4 C 65.5 119.4 67.2 119.7 67.2 119.7 C 67.3 120.2 67.5 120.6 67.8 120.8 C 68.2 121.2 68.8 121.3 69.6 121.3 C 70.4 121.3 71 121.2 71.5 120.8 C 71.9 120.5 72.2 120 72.4 119.5 C 72.5 119.1 72.5 118.3 72.5 117.2 C 71.7 118.1 70.8 118.6 69.6 118.6 C 68.2 118.6 67.1 118 66.3 117 C 65.5 116 65.1 114.8 65.1 113.3 C 65.1 112.3 65.3 111.4 65.7 110.6 C 66 109.7 66.6 109.1 67.2 108.6 C 67.9 108.2 68.7 108 69.6 108 C 70.9 108 71.9 108.4 72.7 109.4 C 72.67 109.44 72.7 108.2 72.7 108.2 L 74.3 108.2 C 74.3 108.2 74.29 117.15 74.3 117.2 C 74.3 118.8 74.1 119.9 73.8 120.6 C 73.5 121.3 72.9 121.8 72.2 122.2 C 71.5 122.6 70.6 122.8 69.6 122.8 C 68.4 122.8 67.4 122.5 66.6 121.9 C 65.8 121.4 65.5 120.5 65.5 119.4 Z M 67 113.2 C 67 114.6 67.2 115.5 67.8 116.2 C 68.3 116.8 69 117.1 69.8 117.1 C 70.6 117.1 71.3 116.8 71.8 116.2 C 72.4 115.6 72.6 114.6 72.6 113.2 C 72.6 112 72.4 111 71.8 110.4 C 71.2 109.7 70.6 109.4 69.8 109.4 C 69 109.4 68.3 109.7 67.8 110.4 C 67.2 111 67 111.9 67 113.2 Z M 82.8 118.6 L 82.8 104.2 L 93.1 104.2 L 93.1 105.9 L 84.7 105.9 L 84.7 110.3 L 92.6 110.3 L 92.6 112 L 84.7 112 L 84.7 116.9 L 93.4 116.9 L 93.4 118.6 L 82.8 118.6 Z M 95.4 114 C 95.4 114 97.2 113.8 97.2 113.8 C 97.3 114.5 97.5 115.1 97.8 115.6 C 98.1 116 98.6 116.4 99.2 116.7 C 99.9 117 100.6 117.1 101.4 117.1 C 102.2 117.1 102.8 117 103.3 116.8 C 103.9 116.6 104.3 116.3 104.6 115.9 C 104.9 115.5 105 115.1 105 114.7 C 105 114.2 104.9 113.8 104.6 113.5 C 104.3 113.2 103.9 112.9 103.3 112.7 C 102.9 112.5 102.1 112.3 100.8 112 C 99.4 111.6 98.5 111.3 98 111.1 C 97.3 110.7 96.8 110.3 96.5 109.7 C 96.1 109.2 96 108.6 96 107.9 C 96 107.2 96.2 106.5 96.6 105.9 C 97 105.3 97.6 104.8 98.4 104.5 C 99.2 104.2 100 104 101 104 C 102.1 104 103 104.2 103.8 104.5 C 104.6 104.9 105.2 105.4 105.7 106 C 106.1 106.7 106.4 107.4 106.4 108.3 C 106.4 108.3 104.6 108.4 104.6 108.4 C 104.5 107.5 104.1 106.8 103.6 106.4 C 103 105.9 102.2 105.7 101.1 105.7 C 99.9 105.7 99.1 105.9 98.6 106.3 C 98.1 106.7 97.8 107.2 97.8 107.8 C 97.8 108.3 98 108.8 98.3 109.1 C 98.7 109.4 99.7 109.8 101.2 110.1 C 102.7 110.5 103.8 110.8 104.4 111 C 105.2 111.4 105.8 111.9 106.2 112.5 C 106.6 113.1 106.8 113.7 106.8 114.5 C 106.8 115.3 106.6 116 106.2 116.7 C 105.7 117.3 105.1 117.9 104.3 118.2 C 103.5 118.6 102.5 118.8 101.5 118.8 C 100.2 118.8 99.1 118.6 98.3 118.2 C 97.4 117.9 96.7 117.3 96.2 116.5 C 95.7 115.8 95.4 114.9 95.4 114 Z M 116.1 112.9 L 116.1 111.3 L 122.2 111.3 C 122.2 111.3 122.17 116.57 122.2 116.6 C 121.2 117.3 120.3 117.9 119.3 118.2 C 118.3 118.6 117.3 118.8 116.2 118.8 C 114.8 118.8 113.6 118.5 112.4 117.9 C 111.3 117.3 110.4 116.4 109.8 115.3 C 109.2 114.1 108.9 112.9 108.9 111.5 C 108.9 110.1 109.2 108.8 109.8 107.6 C 110.4 106.4 111.2 105.5 112.3 104.9 C 113.4 104.3 114.7 104 116.1 104 C 117.1 104 118.1 104.2 118.9 104.5 C 119.7 104.8 120.4 105.3 120.9 105.9 C 121.3 106.5 121.7 107.3 122 108.2 C 122 108.2 120.2 108.7 120.2 108.7 C 120 108 119.8 107.4 119.4 107 C 119.1 106.6 118.7 106.2 118.1 106 C 117.5 105.7 116.8 105.6 116.1 105.6 C 115.2 105.6 114.5 105.8 113.9 106 C 113.2 106.3 112.7 106.6 112.3 107.1 C 111.9 107.5 111.6 108 111.4 108.5 C 111.1 109.4 110.9 110.3 110.9 111.4 C 110.9 112.6 111.1 113.7 111.5 114.6 C 112 115.4 112.6 116.1 113.5 116.5 C 114.3 116.9 115.2 117.1 116.1 117.1 C 117 117.1 117.8 116.9 118.5 116.6 C 119.3 116.3 119.9 116 120.3 115.6 C 120.31 115.61 120.3 112.9 120.3 112.9 L 116.1 112.9 Z M 130.3 118.6 L 130.3 108.2 L 131.9 108.2 C 131.9 108.2 131.87 109.64 131.9 109.6 C 132.2 109.1 132.6 108.7 133.2 108.4 C 133.7 108.1 134.3 108 135 108 C 135.8 108 136.4 108.1 136.9 108.4 C 137.4 108.8 137.7 109.2 137.9 109.8 C 138.8 108.6 139.8 108 141.1 108 C 142.2 108 143 108.2 143.5 108.8 C 144.1 109.4 144.3 110.3 144.3 111.4 C 144.35 111.44 144.3 118.6 144.3 118.6 L 142.6 118.6 C 142.6 118.6 142.6 112.03 142.6 112 C 142.6 111.3 142.5 110.8 142.4 110.5 C 142.3 110.2 142.1 110 141.8 109.8 C 141.5 109.6 141.2 109.5 140.8 109.5 C 140 109.5 139.4 109.7 138.9 110.2 C 138.5 110.7 138.2 111.5 138.2 112.5 C 138.21 112.54 138.2 118.6 138.2 118.6 L 136.5 118.6 C 136.5 118.6 136.46 111.82 136.5 111.8 C 136.5 111 136.3 110.5 136 110.1 C 135.7 109.7 135.3 109.5 134.6 109.5 C 134.1 109.5 133.7 109.6 133.2 109.9 C 132.8 110.1 132.5 110.5 132.3 111 C 132.1 111.5 132.1 112.2 132.1 113.2 C 132.05 113.18 132.1 118.6 132.1 118.6 L 130.3 118.6 Z M 154.1 118.6 C 153.9 118.2 153.8 117.8 153.7 117.3 C 153.1 117.8 152.4 118.2 151.8 118.5 C 151.2 118.7 150.6 118.8 149.9 118.8 C 148.8 118.8 147.9 118.5 147.3 118 C 146.7 117.4 146.4 116.7 146.4 115.8 C 146.4 115.3 146.5 114.9 146.7 114.4 C 146.9 114 147.2 113.7 147.6 113.4 C 148 113.2 148.4 113 148.9 112.8 C 149.2 112.8 149.7 112.7 150.4 112.6 C 151.9 112.4 152.9 112.2 153.6 112 C 153.6 111.7 153.6 111.6 153.6 111.5 C 153.6 110.8 153.4 110.3 153.1 110 C 152.6 109.6 152 109.4 151.1 109.4 C 150.3 109.4 149.6 109.6 149.3 109.8 C 148.9 110.1 148.6 110.6 148.4 111.4 C 148.4 111.4 146.7 111.1 146.7 111.1 C 146.8 110.4 147.1 109.8 147.4 109.4 C 147.8 108.9 148.3 108.6 149 108.3 C 149.7 108.1 150.4 108 151.3 108 C 152.2 108 152.9 108.1 153.5 108.3 C 154 108.5 154.5 108.7 154.7 109.1 C 155 109.4 155.2 109.8 155.3 110.3 C 155.3 110.5 155.4 111.1 155.4 111.9 C 155.4 111.9 155.4 114.2 155.4 114.2 C 155.4 115.8 155.4 116.9 155.5 117.3 C 155.5 117.7 155.7 118.2 155.9 118.6 C 155.91 118.56 154.1 118.6 154.1 118.6 C 154.1 118.6 154.07 118.56 154.1 118.6 Z M 153.6 113.4 C 152.9 113.6 152 113.8 150.7 114 C 150 114.1 149.5 114.2 149.2 114.4 C 148.9 114.5 148.6 114.7 148.5 114.9 C 148.3 115.2 148.2 115.5 148.2 115.8 C 148.2 116.2 148.4 116.6 148.8 116.9 C 149.1 117.3 149.6 117.4 150.3 117.4 C 151 117.4 151.6 117.3 152.1 117 C 152.7 116.7 153 116.3 153.3 115.8 C 153.5 115.4 153.6 114.8 153.6 114 C 153.6 114 153.6 113.4 153.6 113.4 Z M 161.1 117.1 C 161.3 117.1 161.6 117 161.9 117 C 161.9 117 162.2 118.5 162.2 118.5 C 161.7 118.6 161.2 118.7 160.8 118.7 C 160.2 118.7 159.7 118.6 159.4 118.4 C 159 118.2 158.8 117.9 158.6 117.6 C 158.5 117.3 158.4 116.6 158.4 115.5 C 158.4 115.52 158.4 109.6 158.4 109.6 L 157.1 109.6 L 157.1 108.2 L 158.4 108.2 L 158.4 105.6 L 160.1 104.6 L 160.1 108.2 L 161.9 108.2 L 161.9 109.6 L 160.1 109.6 C 160.1 109.6 160.15 115.62 160.1 115.6 C 160.1 116.1 160.2 116.4 160.2 116.6 C 160.3 116.7 160.4 116.8 160.5 116.9 C 160.7 117 160.9 117.1 161.1 117.1 C 161.1 117.1 161.1 117.1 161.1 117.1 Z M 166.7 117.1 C 166.9 117.1 167.2 117 167.5 117 C 167.5 117 167.7 118.5 167.7 118.5 C 167.2 118.6 166.8 118.7 166.4 118.7 C 165.8 118.7 165.3 118.6 164.9 118.4 C 164.6 118.2 164.3 117.9 164.2 117.6 C 164 117.3 164 116.6 164 115.5 C 163.96 115.52 164 109.6 164 109.6 L 162.7 109.6 L 162.7 108.2 L 164 108.2 L 164 105.6 L 165.7 104.6 L 165.7 108.2 L 167.5 108.2 L 167.5 109.6 L 165.7 109.6 C 165.7 109.6 165.7 115.62 165.7 115.6 C 165.7 116.1 165.7 116.4 165.8 116.6 C 165.9 116.7 166 116.8 166.1 116.9 C 166.2 117 166.4 117.1 166.7 117.1 C 166.7 117.1 166.7 117.1 166.7 117.1 Z M 176.3 115.2 C 176.3 115.2 178.1 115.4 178.1 115.4 C 177.8 116.5 177.3 117.3 176.5 117.9 C 175.7 118.5 174.7 118.8 173.5 118.8 C 172 118.8 170.8 118.3 169.9 117.4 C 169 116.5 168.6 115.1 168.6 113.5 C 168.6 111.7 169.1 110.4 170 109.4 C 170.8 108.4 172 108 173.4 108 C 174.8 108 176 108.4 176.8 109.4 C 177.7 110.3 178.2 111.6 178.2 113.4 C 178.2 113.5 178.2 113.6 178.2 113.8 C 178.2 113.8 170.4 113.8 170.4 113.8 C 170.5 115 170.8 115.8 171.4 116.4 C 172 117 172.7 117.3 173.6 117.3 C 174.2 117.3 174.7 117.2 175.2 116.8 C 175.7 116.5 176 116 176.3 115.2 Z M 170.5 112.4 C 170.5 112.4 176.3 112.4 176.3 112.4 C 176.2 111.5 176 110.9 175.6 110.4 C 175.1 109.7 174.4 109.4 173.5 109.4 C 172.7 109.4 172 109.7 171.4 110.2 C 170.9 110.8 170.6 111.5 170.5 112.4 Z M 180.3 118.6 L 180.3 108.2 L 181.9 108.2 C 181.9 108.2 181.88 109.76 181.9 109.8 C 182.3 109 182.7 108.5 183 108.3 C 183.3 108.1 183.7 108 184.1 108 C 184.7 108 185.3 108.1 185.9 108.5 C 185.9 108.5 185.3 110.2 185.3 110.2 C 184.9 109.9 184.5 109.8 184 109.8 C 183.6 109.8 183.3 109.9 183 110.1 C 182.7 110.3 182.5 110.7 182.3 111.1 C 182.1 111.7 182.1 112.4 182.1 113.1 C 182.05 113.13 182.1 118.6 182.1 118.6 L 180.3 118.6 Z M 186.3 115.5 C 186.3 115.5 188 115.2 188 115.2 C 188.1 115.9 188.4 116.4 188.8 116.8 C 189.3 117.2 189.9 117.3 190.7 117.3 C 191.5 117.3 192.1 117.2 192.5 116.9 C 192.9 116.5 193.1 116.1 193.1 115.7 C 193.1 115.3 192.9 115 192.6 114.8 C 192.3 114.6 191.7 114.4 190.8 114.2 C 189.5 113.8 188.6 113.6 188.1 113.3 C 187.6 113.1 187.2 112.8 186.9 112.3 C 186.7 111.9 186.6 111.5 186.6 110.9 C 186.6 110.5 186.7 110.1 186.9 109.7 C 187.1 109.3 187.4 108.9 187.7 108.7 C 188 108.5 188.4 108.3 188.9 108.2 C 189.3 108 189.8 108 190.4 108 C 191.2 108 191.9 108.1 192.5 108.3 C 193.1 108.5 193.6 108.9 193.9 109.3 C 194.2 109.7 194.4 110.2 194.5 110.9 C 194.5 110.9 192.8 111.1 192.8 111.1 C 192.7 110.6 192.5 110.1 192.1 109.8 C 191.7 109.6 191.2 109.4 190.5 109.4 C 189.7 109.4 189.1 109.5 188.8 109.8 C 188.4 110.1 188.3 110.4 188.3 110.7 C 188.3 111 188.3 111.2 188.5 111.4 C 188.6 111.5 188.8 111.7 189.2 111.8 C 189.3 111.9 189.8 112 190.7 112.3 C 191.9 112.6 192.8 112.9 193.3 113.1 C 193.8 113.3 194.2 113.6 194.5 114 C 194.7 114.4 194.9 114.9 194.9 115.5 C 194.9 116.1 194.7 116.7 194.4 117.2 C 194 117.7 193.5 118.1 192.9 118.4 C 192.2 118.7 191.5 118.8 190.7 118.8 C 189.4 118.8 188.3 118.5 187.6 118 C 186.9 117.4 186.5 116.6 186.3 115.5 Z M 197.5 118.6 L 197.5 116.6 L 199.5 116.6 L 199.5 118.6 L 197.5 118.6 Z M 202.1 106.1 L 202.1 104.1 L 203.9 104.1 C 203.9 104.1 203.95 105.71 203.9 105.7 C 203.9 106.6 203.8 107.2 203.6 107.6 C 203.4 108.1 202.9 108.5 202.3 108.8 C 202.3 108.8 201.9 108.1 201.9 108.1 C 202.3 107.9 202.5 107.7 202.7 107.4 C 202.9 107.1 203 106.7 203 106.1 C 202.98 106.14 202.1 106.1 202.1 106.1 Z M 205.1 106.1 L 205.1 104.1 L 207 104.1 C 207 104.1 206.97 105.71 207 105.7 C 207 106.6 206.9 107.2 206.7 107.6 C 206.4 108.1 206 108.5 205.4 108.8 C 205.4 108.8 204.9 108.1 204.9 108.1 C 205.3 107.9 205.5 107.7 205.7 107.4 C 205.9 107.1 206 106.7 206 106.1 C 206.01 106.14 205.1 106.1 205.1 106.1 Z " stroke="none" fill="#5d7e95"/>
  </g>
  <g id="Polygon58251">
    <path d="M 1.3 80.3 L 1.3 78.2 L 3.1 78.2 L 3.1 80.3 L 1.3 80.3 Z M 1.3 92.6 L 1.3 82.2 L 3.1 82.2 L 3.1 92.6 L 1.3 92.6 Z M 5.8 92.6 L 5.8 82.2 L 7.3 82.2 C 7.3 82.2 7.34 83.66 7.3 83.7 C 8.1 82.5 9.2 82 10.6 82 C 11.3 82 11.8 82.1 12.4 82.3 C 12.9 82.5 13.3 82.8 13.5 83.2 C 13.8 83.5 14 84 14.1 84.5 C 14.2 84.8 14.2 85.4 14.2 86.2 C 14.19 86.18 14.2 92.6 14.2 92.6 L 12.4 92.6 C 12.4 92.6 12.43 86.25 12.4 86.3 C 12.4 85.5 12.4 85 12.2 84.6 C 12.1 84.3 11.8 84 11.5 83.8 C 11.2 83.6 10.7 83.5 10.3 83.5 C 9.5 83.5 8.9 83.7 8.3 84.2 C 7.8 84.7 7.5 85.6 7.5 86.9 C 7.52 86.9 7.5 92.6 7.5 92.6 L 5.8 92.6 Z M 20 91.1 C 20.1 91.1 20.4 91 20.7 91 C 20.7 91 21 92.5 21 92.5 C 20.5 92.6 20 92.7 19.6 92.7 C 19 92.7 18.5 92.6 18.2 92.4 C 17.8 92.2 17.6 91.9 17.4 91.6 C 17.3 91.3 17.2 90.6 17.2 89.5 C 17.21 89.52 17.2 83.6 17.2 83.6 L 15.9 83.6 L 15.9 82.2 L 17.2 82.2 L 17.2 79.6 L 19 78.6 L 19 82.2 L 20.7 82.2 L 20.7 83.6 L 19 83.6 C 19 83.6 18.96 89.62 19 89.6 C 19 90.1 19 90.4 19 90.6 C 19.1 90.7 19.2 90.8 19.4 90.9 C 19.5 91 19.7 91.1 20 91.1 C 20 91.1 20 91.1 20 91.1 Z M 29.5 89.2 C 29.5 89.2 31.4 89.4 31.4 89.4 C 31.1 90.5 30.5 91.3 29.8 91.9 C 29 92.5 28 92.8 26.8 92.8 C 25.3 92.8 24.1 92.3 23.2 91.4 C 22.3 90.5 21.9 89.1 21.9 87.5 C 21.9 85.7 22.3 84.4 23.2 83.4 C 24.1 82.4 25.3 82 26.7 82 C 28.1 82 29.2 82.4 30.1 83.4 C 31 84.3 31.4 85.6 31.4 87.4 C 31.4 87.5 31.4 87.6 31.4 87.8 C 31.4 87.8 23.7 87.8 23.7 87.8 C 23.7 89 24.1 89.8 24.6 90.4 C 25.2 91 25.9 91.3 26.8 91.3 C 27.5 91.3 28 91.2 28.5 90.8 C 28.9 90.5 29.3 90 29.5 89.2 Z M 23.8 86.4 C 23.8 86.4 29.6 86.4 29.6 86.4 C 29.5 85.5 29.3 84.9 28.9 84.4 C 28.3 83.7 27.6 83.4 26.7 83.4 C 25.9 83.4 25.2 83.7 24.7 84.2 C 24.1 84.8 23.8 85.5 23.8 86.4 Z M 33.5 92.6 L 33.5 82.2 L 35.1 82.2 C 35.1 82.2 35.13 83.76 35.1 83.8 C 35.5 83 35.9 82.5 36.2 82.3 C 36.6 82.1 37 82 37.4 82 C 38 82 38.6 82.1 39.2 82.5 C 39.2 82.5 38.6 84.2 38.6 84.2 C 38.1 83.9 37.7 83.8 37.3 83.8 C 36.9 83.8 36.6 83.9 36.3 84.1 C 35.9 84.3 35.7 84.7 35.6 85.1 C 35.4 85.7 35.3 86.4 35.3 87.1 C 35.3 87.13 35.3 92.6 35.3 92.6 L 33.5 92.6 Z M 40.2 92.6 L 40.2 82.2 L 41.8 82.2 C 41.8 82.2 41.81 83.66 41.8 83.7 C 42.6 82.5 43.7 82 45.1 82 C 45.7 82 46.3 82.1 46.8 82.3 C 47.4 82.5 47.7 82.8 48 83.2 C 48.3 83.5 48.5 84 48.6 84.5 C 48.6 84.8 48.7 85.4 48.7 86.2 C 48.65 86.18 48.7 92.6 48.7 92.6 L 46.9 92.6 C 46.9 92.6 46.89 86.25 46.9 86.3 C 46.9 85.5 46.8 85 46.7 84.6 C 46.6 84.3 46.3 84 46 83.8 C 45.6 83.6 45.2 83.5 44.7 83.5 C 44 83.5 43.3 83.7 42.8 84.2 C 42.3 84.7 42 85.6 42 86.9 C 41.98 86.9 42 92.6 42 92.6 L 40.2 92.6 Z M 58.5 92.6 C 58.3 92.2 58.2 91.8 58.1 91.3 C 57.5 91.8 56.8 92.2 56.2 92.5 C 55.6 92.7 55 92.8 54.3 92.8 C 53.2 92.8 52.3 92.5 51.7 92 C 51.1 91.4 50.8 90.7 50.8 89.8 C 50.8 89.3 50.9 88.9 51.1 88.4 C 51.3 88 51.6 87.7 52 87.4 C 52.4 87.2 52.8 87 53.3 86.8 C 53.6 86.8 54.1 86.7 54.8 86.6 C 56.3 86.4 57.3 86.2 58 86 C 58 85.7 58 85.6 58 85.5 C 58 84.8 57.8 84.3 57.5 84 C 57 83.6 56.4 83.4 55.5 83.4 C 54.7 83.4 54 83.6 53.6 83.8 C 53.3 84.1 53 84.6 52.8 85.4 C 52.8 85.4 51.1 85.1 51.1 85.1 C 51.2 84.4 51.5 83.8 51.8 83.4 C 52.2 82.9 52.7 82.6 53.4 82.3 C 54.1 82.1 54.8 82 55.7 82 C 56.6 82 57.3 82.1 57.9 82.3 C 58.4 82.5 58.9 82.7 59.1 83.1 C 59.4 83.4 59.6 83.8 59.7 84.3 C 59.7 84.5 59.7 85.1 59.7 85.9 C 59.7 85.9 59.7 88.2 59.7 88.2 C 59.7 89.8 59.8 90.9 59.9 91.3 C 59.9 91.7 60.1 92.2 60.3 92.6 C 60.3 92.56 58.5 92.6 58.5 92.6 C 58.5 92.6 58.47 92.56 58.5 92.6 Z M 58 87.4 C 57.3 87.6 56.4 87.8 55.1 88 C 54.4 88.1 53.9 88.2 53.6 88.4 C 53.3 88.5 53 88.7 52.9 88.9 C 52.7 89.2 52.6 89.5 52.6 89.8 C 52.6 90.2 52.8 90.6 53.2 90.9 C 53.5 91.3 54 91.4 54.7 91.4 C 55.4 91.4 56 91.3 56.5 91 C 57.1 90.7 57.4 90.3 57.7 89.8 C 57.9 89.4 58 88.8 58 88 C 58 88 58 87.4 58 87.4 Z M 65.5 91.1 C 65.7 91.1 66 91 66.3 91 C 66.3 91 66.6 92.5 66.6 92.5 C 66.1 92.6 65.6 92.7 65.2 92.7 C 64.6 92.7 64.1 92.6 63.8 92.4 C 63.4 92.2 63.2 91.9 63 91.6 C 62.9 91.3 62.8 90.6 62.8 89.5 C 62.79 89.52 62.8 83.6 62.8 83.6 L 61.5 83.6 L 61.5 82.2 L 62.8 82.2 L 62.8 79.6 L 64.5 78.6 L 64.5 82.2 L 66.3 82.2 L 66.3 83.6 L 64.5 83.6 C 64.5 83.6 64.54 89.62 64.5 89.6 C 64.5 90.1 64.6 90.4 64.6 90.6 C 64.7 90.7 64.8 90.8 64.9 90.9 C 65.1 91 65.3 91.1 65.5 91.1 C 65.5 91.1 65.5 91.1 65.5 91.1 Z M 68 80.3 L 68 78.2 L 69.8 78.2 L 69.8 80.3 L 68 80.3 Z M 68 92.6 L 68 82.2 L 69.8 82.2 L 69.8 92.6 L 68 92.6 Z M 71.8 87.4 C 71.8 85.5 72.4 84 73.4 83.1 C 74.3 82.3 75.4 82 76.7 82 C 78.1 82 79.3 82.4 80.2 83.4 C 81.1 84.3 81.5 85.6 81.5 87.2 C 81.5 88.6 81.3 89.6 80.9 90.4 C 80.5 91.1 79.9 91.7 79.2 92.2 C 78.4 92.6 77.6 92.8 76.7 92.8 C 75.2 92.8 74.1 92.3 73.2 91.4 C 72.3 90.5 71.8 89.1 71.8 87.4 Z M 73.6 87.4 C 73.6 88.7 73.9 89.7 74.5 90.4 C 75.1 91 75.8 91.3 76.7 91.3 C 77.6 91.3 78.3 91 78.9 90.4 C 79.4 89.7 79.7 88.7 79.7 87.3 C 79.7 86 79.4 85.1 78.9 84.4 C 78.3 83.7 77.5 83.4 76.7 83.4 C 75.8 83.4 75.1 83.7 74.5 84.4 C 73.9 85.1 73.6 86 73.6 87.4 Z M 83.6 92.6 L 83.6 82.2 L 85.2 82.2 C 85.2 82.2 85.18 83.66 85.2 83.7 C 85.9 82.5 87 82 88.5 82 C 89.1 82 89.7 82.1 90.2 82.3 C 90.7 82.5 91.1 82.8 91.4 83.2 C 91.6 83.5 91.8 84 91.9 84.5 C 92 84.8 92 85.4 92 86.2 C 92.02 86.18 92 92.6 92 92.6 L 90.3 92.6 C 90.3 92.6 90.26 86.25 90.3 86.3 C 90.3 85.5 90.2 85 90.1 84.6 C 89.9 84.3 89.7 84 89.3 83.8 C 89 83.6 88.6 83.5 88.1 83.5 C 87.4 83.5 86.7 83.7 86.2 84.2 C 85.6 84.7 85.4 85.6 85.4 86.9 C 85.35 86.9 85.4 92.6 85.4 92.6 L 83.6 92.6 Z M 101.8 92.6 C 101.7 92.2 101.5 91.8 101.5 91.3 C 100.8 91.8 100.2 92.2 99.6 92.5 C 99 92.7 98.4 92.8 97.7 92.8 C 96.5 92.8 95.7 92.5 95 92 C 94.4 91.4 94.1 90.7 94.1 89.8 C 94.1 89.3 94.2 88.9 94.5 88.4 C 94.7 88 95 87.7 95.4 87.4 C 95.8 87.2 96.2 87 96.6 86.8 C 97 86.8 97.5 86.7 98.2 86.6 C 99.6 86.4 100.7 86.2 101.3 86 C 101.3 85.7 101.3 85.6 101.3 85.5 C 101.3 84.8 101.2 84.3 100.8 84 C 100.4 83.6 99.7 83.4 98.8 83.4 C 98 83.4 97.4 83.6 97 83.8 C 96.6 84.1 96.3 84.6 96.1 85.4 C 96.1 85.4 94.4 85.1 94.4 85.1 C 94.6 84.4 94.8 83.8 95.2 83.4 C 95.6 82.9 96.1 82.6 96.7 82.3 C 97.4 82.1 98.2 82 99.1 82 C 100 82 100.7 82.1 101.3 82.3 C 101.8 82.5 102.2 82.7 102.5 83.1 C 102.7 83.4 102.9 83.8 103 84.3 C 103.1 84.5 103.1 85.1 103.1 85.9 C 103.1 85.9 103.1 88.2 103.1 88.2 C 103.1 89.8 103.2 90.9 103.2 91.3 C 103.3 91.7 103.5 92.2 103.7 92.6 C 103.67 92.56 101.8 92.6 101.8 92.6 C 101.8 92.6 101.84 92.56 101.8 92.6 Z M 101.3 87.4 C 100.7 87.6 99.7 87.8 98.5 88 C 97.7 88.1 97.2 88.2 96.9 88.4 C 96.6 88.5 96.4 88.7 96.2 88.9 C 96.1 89.2 96 89.5 96 89.8 C 96 90.2 96.2 90.6 96.5 90.9 C 96.9 91.3 97.4 91.4 98.1 91.4 C 98.8 91.4 99.4 91.3 99.9 91 C 100.4 90.7 100.8 90.3 101.1 89.8 C 101.2 89.4 101.3 88.8 101.3 88 C 101.3 88 101.3 87.4 101.3 87.4 Z M 105.8 92.6 L 105.8 78.2 L 107.6 78.2 L 107.6 92.6 L 105.8 92.6 Z M 110.2 92.6 L 110.2 78.2 L 112 78.2 L 112 92.6 L 110.2 92.6 Z M 115.8 96.8 C 115.4 96.8 115.1 96.7 114.6 96.6 C 114.6 96.6 114.5 94.9 114.5 94.9 C 114.8 95 115.2 95.1 115.5 95.1 C 115.8 95.1 116.2 95 116.4 94.9 C 116.6 94.7 116.8 94.6 117 94.3 C 117.1 94.1 117.3 93.7 117.5 93 C 117.5 92.9 117.6 92.8 117.7 92.6 C 117.67 92.58 113.7 82.2 113.7 82.2 L 115.6 82.2 C 115.6 82.2 117.78 88.2 117.8 88.2 C 118.1 89 118.3 89.8 118.5 90.6 C 118.7 89.8 119 89 119.3 88.2 C 119.26 88.23 121.5 82.2 121.5 82.2 L 123.2 82.2 C 123.2 82.2 119.29 92.74 119.3 92.7 C 118.9 93.9 118.5 94.7 118.3 95.1 C 118 95.7 117.6 96.1 117.2 96.4 C 116.8 96.6 116.3 96.8 115.8 96.8 C 115.8 96.8 115.8 96.8 115.8 96.8 Z M 123.7 92.6 L 123.7 90.6 L 125.7 90.6 C 125.7 90.6 125.7 92.56 125.7 92.6 C 125.7 93.3 125.6 93.9 125.3 94.3 C 125.1 94.8 124.6 95.1 124.1 95.4 C 124.1 95.4 123.6 94.6 123.6 94.6 C 124 94.5 124.2 94.2 124.4 93.9 C 124.6 93.6 124.7 93.2 124.7 92.6 C 124.7 92.56 123.7 92.6 123.7 92.6 Z M 141.5 92.6 C 141.3 92.2 141.2 91.8 141.1 91.3 C 140.5 91.8 139.8 92.2 139.2 92.5 C 138.6 92.7 138 92.8 137.3 92.8 C 136.2 92.8 135.3 92.5 134.7 92 C 134.1 91.4 133.8 90.7 133.8 89.8 C 133.8 89.3 133.9 88.9 134.1 88.4 C 134.3 88 134.6 87.7 135 87.4 C 135.4 87.2 135.8 87 136.3 86.8 C 136.6 86.8 137.1 86.7 137.8 86.6 C 139.3 86.4 140.3 86.2 141 86 C 141 85.7 141 85.6 141 85.5 C 141 84.8 140.8 84.3 140.5 84 C 140 83.6 139.4 83.4 138.5 83.4 C 137.7 83.4 137 83.6 136.6 83.8 C 136.3 84.1 136 84.6 135.8 85.4 C 135.8 85.4 134.1 85.1 134.1 85.1 C 134.2 84.4 134.5 83.8 134.8 83.4 C 135.2 82.9 135.7 82.6 136.4 82.3 C 137.1 82.1 137.8 82 138.7 82 C 139.6 82 140.3 82.1 140.9 82.3 C 141.4 82.5 141.9 82.7 142.1 83.1 C 142.4 83.4 142.6 83.8 142.7 84.3 C 142.7 84.5 142.7 85.1 142.7 85.9 C 142.7 85.9 142.7 88.2 142.7 88.2 C 142.7 89.8 142.8 90.9 142.9 91.3 C 142.9 91.7 143.1 92.2 143.3 92.6 C 143.3 92.56 141.5 92.6 141.5 92.6 C 141.5 92.6 141.47 92.56 141.5 92.6 Z M 141 87.4 C 140.3 87.6 139.4 87.8 138.1 88 C 137.4 88.1 136.9 88.2 136.6 88.4 C 136.3 88.5 136 88.7 135.9 88.9 C 135.7 89.2 135.6 89.5 135.6 89.8 C 135.6 90.2 135.8 90.6 136.2 90.9 C 136.5 91.3 137 91.4 137.7 91.4 C 138.4 91.4 139 91.3 139.5 91 C 140.1 90.7 140.4 90.3 140.7 89.8 C 140.9 89.4 141 88.8 141 88 C 141 88 141 87.4 141 87.4 Z M 145.5 92.6 L 145.5 82.2 L 147.1 82.2 C 147.1 82.2 147.05 83.66 147.1 83.7 C 147.8 82.5 148.9 82 150.4 82 C 151 82 151.6 82.1 152.1 82.3 C 152.6 82.5 153 82.8 153.3 83.2 C 153.5 83.5 153.7 84 153.8 84.5 C 153.9 84.8 153.9 85.4 153.9 86.2 C 153.9 86.18 153.9 92.6 153.9 92.6 L 152.1 92.6 C 152.1 92.6 152.14 86.25 152.1 86.3 C 152.1 85.5 152.1 85 151.9 84.6 C 151.8 84.3 151.6 84 151.2 83.8 C 150.9 83.6 150.5 83.5 150 83.5 C 149.2 83.5 148.6 83.7 148 84.2 C 147.5 84.7 147.2 85.6 147.2 86.9 C 147.23 86.9 147.2 92.6 147.2 92.6 L 145.5 92.6 Z M 163.3 92.6 C 163.3 92.6 163.32 91.25 163.3 91.3 C 162.7 92.3 161.7 92.8 160.4 92.8 C 159.6 92.8 158.8 92.6 158.1 92.1 C 157.4 91.7 156.9 91 156.5 90.2 C 156.2 89.4 156 88.4 156 87.4 C 156 86.3 156.1 85.4 156.5 84.6 C 156.8 83.7 157.3 83.1 158 82.6 C 158.7 82.2 159.5 82 160.3 82 C 161 82 161.5 82.1 162 82.4 C 162.5 82.6 162.9 83 163.2 83.4 C 163.21 83.38 163.2 78.2 163.2 78.2 L 165 78.2 L 165 92.6 L 163.3 92.6 Z M 157.8 87.4 C 157.8 88.7 158 89.7 158.6 90.4 C 159.2 91 159.8 91.3 160.6 91.3 C 161.4 91.3 162 91 162.5 90.4 C 163.1 89.8 163.4 88.8 163.4 87.5 C 163.4 86.1 163.1 85.1 162.5 84.4 C 162 83.7 161.3 83.4 160.5 83.4 C 159.7 83.4 159.1 83.7 158.6 84.4 C 158 85 157.8 86 157.8 87.4 Z M 173.7 92.6 L 173.7 83.6 L 172.1 83.6 L 172.1 82.2 L 173.7 82.2 C 173.7 82.2 173.69 81.09 173.7 81.1 C 173.7 80.4 173.7 79.9 173.9 79.5 C 174 79.1 174.3 78.7 174.8 78.4 C 175.2 78.1 175.8 78 176.6 78 C 177.1 78 177.6 78.1 178.2 78.2 C 178.2 78.2 177.9 79.7 177.9 79.7 C 177.6 79.6 177.2 79.6 176.9 79.6 C 176.4 79.6 176 79.7 175.8 80 C 175.5 80.2 175.4 80.6 175.4 81.2 C 175.44 81.23 175.4 82.2 175.4 82.2 L 177.5 82.2 L 177.5 83.6 L 175.4 83.6 L 175.4 92.6 L 173.7 92.6 Z M 178.2 87.4 C 178.2 85.5 178.7 84 179.8 83.1 C 180.7 82.3 181.8 82 183 82 C 184.5 82 185.6 82.4 186.5 83.4 C 187.4 84.3 187.9 85.6 187.9 87.2 C 187.9 88.6 187.7 89.6 187.3 90.4 C 186.9 91.1 186.3 91.7 185.5 92.2 C 184.8 92.6 183.9 92.8 183 92.8 C 181.6 92.8 180.4 92.3 179.5 91.4 C 178.6 90.5 178.2 89.1 178.2 87.4 Z M 180 87.4 C 180 88.7 180.3 89.7 180.8 90.4 C 181.4 91 182.2 91.3 183 91.3 C 183.9 91.3 184.6 91 185.2 90.4 C 185.8 89.7 186.1 88.7 186.1 87.3 C 186.1 86 185.8 85.1 185.2 84.4 C 184.6 83.7 183.9 83.4 183 83.4 C 182.2 83.4 181.4 83.7 180.8 84.4 C 180.3 85.1 180 86 180 87.4 Z M 189.9 92.6 L 189.9 82.2 L 191.5 82.2 C 191.5 82.2 191.51 83.76 191.5 83.8 C 191.9 83 192.3 82.5 192.6 82.3 C 193 82.1 193.3 82 193.8 82 C 194.3 82 194.9 82.1 195.6 82.5 C 195.6 82.5 195 84.2 195 84.2 C 194.5 83.9 194.1 83.8 193.7 83.8 C 193.3 83.8 192.9 83.9 192.6 84.1 C 192.3 84.3 192.1 84.7 192 85.1 C 191.8 85.7 191.7 86.4 191.7 87.1 C 191.69 87.13 191.7 92.6 191.7 92.6 L 189.9 92.6 Z M 202.2 80.3 L 202.2 78.2 L 203.9 78.2 L 203.9 80.3 L 202.2 80.3 Z M 202.2 92.6 L 202.2 82.2 L 203.9 82.2 L 203.9 92.6 L 202.2 92.6 Z M 209.7 91.1 C 209.9 91.1 210.1 91 210.4 91 C 210.4 91 210.7 92.5 210.7 92.5 C 210.2 92.6 209.8 92.7 209.4 92.7 C 208.7 92.7 208.2 92.6 207.9 92.4 C 207.5 92.2 207.3 91.9 207.1 91.6 C 207 91.3 206.9 90.6 206.9 89.5 C 206.92 89.52 206.9 83.6 206.9 83.6 L 205.6 83.6 L 205.6 82.2 L 206.9 82.2 L 206.9 79.6 L 208.7 78.6 L 208.7 82.2 L 210.4 82.2 L 210.4 83.6 L 208.7 83.6 C 208.7 83.6 208.67 89.62 208.7 89.6 C 208.7 90.1 208.7 90.4 208.8 90.6 C 208.8 90.7 208.9 90.8 209.1 90.9 C 209.2 91 209.4 91.1 209.7 91.1 C 209.7 91.1 209.7 91.1 209.7 91.1 Z M 211.5 89.5 C 211.5 89.5 213.2 89.2 213.2 89.2 C 213.3 89.9 213.6 90.4 214 90.8 C 214.5 91.2 215.1 91.3 215.9 91.3 C 216.7 91.3 217.3 91.2 217.7 90.9 C 218.1 90.5 218.3 90.1 218.3 89.7 C 218.3 89.3 218.1 89 217.7 88.8 C 217.5 88.6 216.9 88.4 215.9 88.2 C 214.7 87.8 213.8 87.6 213.3 87.3 C 212.8 87.1 212.4 86.8 212.1 86.3 C 211.9 85.9 211.7 85.5 211.7 84.9 C 211.7 84.5 211.9 84.1 212.1 83.7 C 212.3 83.3 212.6 82.9 212.9 82.7 C 213.2 82.5 213.6 82.3 214 82.2 C 214.5 82 215 82 215.6 82 C 216.4 82 217.1 82.1 217.7 82.3 C 218.3 82.5 218.8 82.9 219.1 83.3 C 219.4 83.7 219.6 84.2 219.7 84.9 C 219.7 84.9 218 85.1 218 85.1 C 217.9 84.6 217.7 84.1 217.3 83.8 C 216.9 83.6 216.4 83.4 215.7 83.4 C 214.9 83.4 214.3 83.5 214 83.8 C 213.6 84.1 213.4 84.4 213.4 84.7 C 213.4 85 213.5 85.2 213.7 85.4 C 213.8 85.5 214 85.7 214.3 85.8 C 214.5 85.9 215 86 215.9 86.3 C 217.1 86.6 218 86.9 218.5 87.1 C 219 87.3 219.4 87.6 219.6 88 C 219.9 88.4 220.1 88.9 220.1 89.5 C 220.1 90.1 219.9 90.7 219.6 91.2 C 219.2 91.7 218.7 92.1 218.1 92.4 C 217.4 92.7 216.7 92.8 215.9 92.8 C 214.5 92.8 213.5 92.5 212.8 92 C 212.1 91.4 211.6 90.6 211.5 89.5 Z M 234.8 89.2 C 234.8 89.2 236.6 89.4 236.6 89.4 C 236.3 90.5 235.8 91.3 235 91.9 C 234.3 92.5 233.3 92.8 232.1 92.8 C 230.5 92.8 229.3 92.3 228.5 91.4 C 227.6 90.5 227.1 89.1 227.1 87.5 C 227.1 85.7 227.6 84.4 228.5 83.4 C 229.4 82.4 230.5 82 232 82 C 233.4 82 234.5 82.4 235.4 83.4 C 236.2 84.3 236.7 85.6 236.7 87.4 C 236.7 87.5 236.7 87.6 236.7 87.8 C 236.7 87.8 228.9 87.8 228.9 87.8 C 229 89 229.3 89.8 229.9 90.4 C 230.5 91 231.2 91.3 232.1 91.3 C 232.7 91.3 233.3 91.2 233.7 90.8 C 234.2 90.5 234.5 90 234.8 89.2 Z M 229 86.4 C 229 86.4 234.8 86.4 234.8 86.4 C 234.7 85.5 234.5 84.9 234.2 84.4 C 233.6 83.7 232.9 83.4 232 83.4 C 231.2 83.4 230.5 83.7 229.9 84.2 C 229.4 84.8 229.1 85.5 229 86.4 Z M 237.7 92.6 L 241.4 87.2 L 237.9 82.2 L 240.1 82.2 C 240.1 82.2 241.73 84.62 241.7 84.6 C 242 85.1 242.3 85.5 242.5 85.8 C 242.7 85.4 243 85 243.2 84.6 C 243.24 84.64 245 82.2 245 82.2 L 247.1 82.2 L 243.5 87.1 L 247.4 92.6 L 245.2 92.6 L 243.1 89.3 L 242.5 88.5 L 239.8 92.6 L 237.7 92.6 Z M 248.8 96.5 L 248.8 82.2 L 250.4 82.2 C 250.4 82.2 250.43 83.54 250.4 83.5 C 250.8 83 251.2 82.6 251.7 82.4 C 252.2 82.1 252.8 82 253.4 82 C 254.3 82 255.1 82.2 255.8 82.6 C 256.5 83.1 257 83.7 257.3 84.6 C 257.7 85.4 257.8 86.3 257.8 87.3 C 257.8 88.4 257.6 89.3 257.3 90.2 C 256.9 91 256.3 91.7 255.6 92.1 C 254.9 92.6 254.1 92.8 253.3 92.8 C 252.7 92.8 252.2 92.7 251.7 92.4 C 251.3 92.2 250.9 91.9 250.6 91.5 C 250.59 91.49 250.6 96.5 250.6 96.5 L 248.8 96.5 Z M 250.4 87.4 C 250.4 88.8 250.7 89.8 251.2 90.4 C 251.8 91 252.4 91.3 253.2 91.3 C 254 91.3 254.6 91 255.2 90.4 C 255.8 89.7 256 88.7 256 87.3 C 256 86 255.8 85 255.2 84.3 C 254.7 83.7 254 83.3 253.3 83.3 C 252.5 83.3 251.9 83.7 251.3 84.4 C 250.7 85.1 250.4 86.1 250.4 87.4 Z M 267.1 89.2 C 267.1 89.2 268.9 89.4 268.9 89.4 C 268.6 90.5 268.1 91.3 267.3 91.9 C 266.5 92.5 265.5 92.8 264.3 92.8 C 262.8 92.8 261.6 92.3 260.7 91.4 C 259.8 90.5 259.4 89.1 259.4 87.5 C 259.4 85.7 259.8 84.4 260.7 83.4 C 261.6 82.4 262.8 82 264.2 82 C 265.6 82 266.7 82.4 267.6 83.4 C 268.5 84.3 268.9 85.6 268.9 87.4 C 268.9 87.5 268.9 87.6 268.9 87.8 C 268.9 87.8 261.2 87.8 261.2 87.8 C 261.2 89 261.6 89.8 262.1 90.4 C 262.7 91 263.5 91.3 264.3 91.3 C 265 91.3 265.5 91.2 266 90.8 C 266.4 90.5 266.8 90 267.1 89.2 Z M 261.3 86.4 C 261.3 86.4 267.1 86.4 267.1 86.4 C 267 85.5 266.8 84.9 266.4 84.4 C 265.8 83.7 265.1 83.4 264.2 83.4 C 263.4 83.4 262.7 83.7 262.2 84.2 C 261.6 84.8 261.3 85.5 261.3 86.4 Z M 271.1 92.6 L 271.1 82.2 L 272.6 82.2 C 272.6 82.2 272.64 83.76 272.6 83.8 C 273 83 273.4 82.5 273.8 82.3 C 274.1 82.1 274.5 82 274.9 82 C 275.5 82 276.1 82.1 276.7 82.5 C 276.7 82.5 276.1 84.2 276.1 84.2 C 275.7 83.9 275.2 83.8 274.8 83.8 C 274.4 83.8 274.1 83.9 273.8 84.1 C 273.5 84.3 273.2 84.7 273.1 85.1 C 272.9 85.7 272.8 86.4 272.8 87.1 C 272.81 87.13 272.8 92.6 272.8 92.6 L 271.1 92.6 Z M 280.8 91.1 C 281 91.1 281.3 91 281.6 91 C 281.6 91 281.8 92.5 281.8 92.5 C 281.3 92.6 280.9 92.7 280.5 92.7 C 279.9 92.7 279.4 92.6 279 92.4 C 278.7 92.2 278.4 91.9 278.3 91.6 C 278.1 91.3 278.1 90.6 278.1 89.5 C 278.06 89.52 278.1 83.6 278.1 83.6 L 276.8 83.6 L 276.8 82.2 L 278.1 82.2 L 278.1 79.6 L 279.8 78.6 L 279.8 82.2 L 281.6 82.2 L 281.6 83.6 L 279.8 83.6 C 279.8 83.6 279.81 89.62 279.8 89.6 C 279.8 90.1 279.8 90.4 279.9 90.6 C 280 90.7 280.1 90.8 280.2 90.9 C 280.3 91 280.5 91.1 280.8 91.1 C 280.8 91.1 280.8 91.1 280.8 91.1 Z M 283.3 80.3 L 283.3 78.2 L 285.1 78.2 L 285.1 80.3 L 283.3 80.3 Z M 283.3 92.6 L 283.3 82.2 L 285.1 82.2 L 285.1 92.6 L 283.3 92.6 Z M 287 89.5 C 287 89.5 288.8 89.2 288.8 89.2 C 288.9 89.9 289.1 90.4 289.6 90.8 C 290 91.2 290.7 91.3 291.5 91.3 C 292.3 91.3 292.9 91.2 293.3 90.9 C 293.6 90.5 293.8 90.1 293.8 89.7 C 293.8 89.3 293.7 89 293.3 88.8 C 293.1 88.6 292.5 88.4 291.5 88.2 C 290.2 87.8 289.3 87.6 288.8 87.3 C 288.3 87.1 288 86.8 287.7 86.3 C 287.5 85.9 287.3 85.5 287.3 84.9 C 287.3 84.5 287.4 84.1 287.6 83.7 C 287.9 83.3 288.1 82.9 288.5 82.7 C 288.8 82.5 289.2 82.3 289.6 82.2 C 290.1 82 290.6 82 291.1 82 C 292 82 292.7 82.1 293.3 82.3 C 293.9 82.5 294.4 82.9 294.6 83.3 C 294.9 83.7 295.1 84.2 295.3 84.9 C 295.3 84.9 293.5 85.1 293.5 85.1 C 293.5 84.6 293.2 84.1 292.9 83.8 C 292.5 83.6 292 83.4 291.3 83.4 C 290.5 83.4 289.9 83.5 289.5 83.8 C 289.2 84.1 289 84.4 289 84.7 C 289 85 289.1 85.2 289.2 85.4 C 289.4 85.5 289.6 85.7 289.9 85.8 C 290.1 85.9 290.6 86 291.5 86.3 C 292.7 86.6 293.6 86.9 294.1 87.1 C 294.6 87.3 294.9 87.6 295.2 88 C 295.5 88.4 295.6 88.9 295.6 89.5 C 295.6 90.1 295.5 90.7 295.1 91.2 C 294.8 91.7 294.3 92.1 293.7 92.4 C 293 92.7 292.3 92.8 291.5 92.8 C 290.1 92.8 289.1 92.5 288.4 92 C 287.7 91.4 287.2 90.6 287 89.5 Z M 304.8 89.2 C 304.8 89.2 306.7 89.4 306.7 89.4 C 306.4 90.5 305.8 91.3 305.1 91.9 C 304.3 92.5 303.3 92.8 302.1 92.8 C 300.6 92.8 299.4 92.3 298.5 91.4 C 297.6 90.5 297.1 89.1 297.1 87.5 C 297.1 85.7 297.6 84.4 298.5 83.4 C 299.4 82.4 300.6 82 302 82 C 303.4 82 304.5 82.4 305.4 83.4 C 306.3 84.3 306.7 85.6 306.7 87.4 C 306.7 87.5 306.7 87.6 306.7 87.8 C 306.7 87.8 299 87.8 299 87.8 C 299 89 299.4 89.8 299.9 90.4 C 300.5 91 301.2 91.3 302.1 91.3 C 302.7 91.3 303.3 91.2 303.8 90.8 C 304.2 90.5 304.6 90 304.8 89.2 Z M 299.1 86.4 C 299.1 86.4 304.9 86.4 304.9 86.4 C 304.8 85.5 304.6 84.9 304.2 84.4 C 303.6 83.7 302.9 83.4 302 83.4 C 301.2 83.4 300.5 83.7 300 84.2 C 299.4 84.8 299.1 85.5 299.1 86.4 Z " stroke="none" fill="#5d7e95"/>
  </g>
  <g id="Polygon58250">
    <path d="M 0.7 61.4 C 0.7 59.5 1.2 58 2.3 57.1 C 3.2 56.3 4.2 56 5.5 56 C 7 56 8.1 56.4 9 57.4 C 9.9 58.3 10.4 59.6 10.4 61.2 C 10.4 62.6 10.2 63.6 9.8 64.4 C 9.4 65.1 8.8 65.7 8 66.2 C 7.3 66.6 6.4 66.8 5.5 66.8 C 4.1 66.8 2.9 66.3 2 65.4 C 1.1 64.5 0.7 63.1 0.7 61.4 Z M 2.5 61.4 C 2.5 62.7 2.8 63.7 3.3 64.4 C 3.9 65 4.6 65.3 5.5 65.3 C 6.4 65.3 7.1 65 7.7 64.4 C 8.3 63.7 8.6 62.7 8.6 61.3 C 8.6 60 8.3 59.1 7.7 58.4 C 7.1 57.7 6.4 57.4 5.5 57.4 C 4.6 57.4 3.9 57.7 3.3 58.4 C 2.8 59.1 2.5 60 2.5 61.4 Z M 12.9 66.6 L 12.9 57.6 L 11.3 57.6 L 11.3 56.2 L 12.9 56.2 C 12.9 56.2 12.86 55.09 12.9 55.1 C 12.9 54.4 12.9 53.9 13 53.5 C 13.2 53.1 13.5 52.7 13.9 52.4 C 14.4 52.1 15 52 15.7 52 C 16.2 52 16.8 52.1 17.4 52.2 C 17.4 52.2 17.1 53.7 17.1 53.7 C 16.7 53.6 16.4 53.6 16.1 53.6 C 15.5 53.6 15.2 53.7 14.9 54 C 14.7 54.2 14.6 54.6 14.6 55.2 C 14.61 55.23 14.6 56.2 14.6 56.2 L 16.6 56.2 L 16.6 57.6 L 14.6 57.6 L 14.6 66.6 L 12.9 66.6 Z M 30.3 62.8 C 30.3 62.8 32.1 63 32.1 63 C 31.9 64.2 31.4 65.1 30.6 65.8 C 29.8 66.5 28.9 66.8 27.7 66.8 C 26.3 66.8 25.2 66.3 24.3 65.4 C 23.4 64.5 23 63.1 23 61.4 C 23 60.3 23.2 59.3 23.6 58.5 C 23.9 57.6 24.5 57 25.3 56.6 C 26 56.2 26.9 56 27.7 56 C 28.9 56 29.8 56.2 30.5 56.8 C 31.2 57.4 31.7 58.2 31.9 59.2 C 31.9 59.2 30.2 59.5 30.2 59.5 C 30 58.8 29.7 58.3 29.3 57.9 C 28.9 57.6 28.4 57.4 27.8 57.4 C 26.9 57.4 26.2 57.7 25.7 58.4 C 25.1 59 24.8 60 24.8 61.4 C 24.8 62.8 25.1 63.8 25.6 64.4 C 26.2 65 26.9 65.3 27.7 65.3 C 28.4 65.3 29 65.1 29.4 64.7 C 29.9 64.3 30.2 63.6 30.3 62.8 Z M 33.5 66.6 L 33.5 52.2 L 35.3 52.2 L 35.3 66.6 L 33.5 66.6 Z M 38 54.3 L 38 52.2 L 39.8 52.2 L 39.8 54.3 L 38 54.3 Z M 38 66.6 L 38 56.2 L 39.8 56.2 L 39.8 66.6 L 38 66.6 Z M 49.5 63.2 C 49.5 63.2 51.4 63.4 51.4 63.4 C 51.1 64.5 50.5 65.3 49.8 65.9 C 49 66.5 48 66.8 46.8 66.8 C 45.3 66.8 44.1 66.3 43.2 65.4 C 42.3 64.5 41.9 63.1 41.9 61.5 C 41.9 59.7 42.3 58.4 43.2 57.4 C 44.1 56.4 45.3 56 46.7 56 C 48.1 56 49.2 56.4 50.1 57.4 C 51 58.3 51.4 59.6 51.4 61.4 C 51.4 61.5 51.4 61.6 51.4 61.8 C 51.4 61.8 43.7 61.8 43.7 61.8 C 43.7 63 44.1 63.8 44.6 64.4 C 45.2 65 45.9 65.3 46.8 65.3 C 47.5 65.3 48 65.2 48.5 64.8 C 48.9 64.5 49.3 64 49.5 63.2 Z M 43.8 60.4 C 43.8 60.4 49.6 60.4 49.6 60.4 C 49.5 59.5 49.3 58.9 48.9 58.4 C 48.3 57.7 47.6 57.4 46.7 57.4 C 45.9 57.4 45.2 57.7 44.7 58.2 C 44.1 58.8 43.8 59.5 43.8 60.4 Z M 53.6 66.6 L 53.6 56.2 L 55.1 56.2 C 55.1 56.2 55.15 57.66 55.1 57.7 C 55.9 56.5 57 56 58.4 56 C 59.1 56 59.6 56.1 60.2 56.3 C 60.7 56.5 61.1 56.8 61.3 57.2 C 61.6 57.5 61.8 58 61.9 58.5 C 62 58.8 62 59.4 62 60.2 C 61.99 60.18 62 66.6 62 66.6 L 60.2 66.6 C 60.2 66.6 60.23 60.25 60.2 60.3 C 60.2 59.5 60.2 59 60 58.6 C 59.9 58.3 59.6 58 59.3 57.8 C 59 57.6 58.5 57.5 58.1 57.5 C 57.3 57.5 56.7 57.7 56.1 58.2 C 55.6 58.7 55.3 59.6 55.3 60.9 C 55.32 60.9 55.3 66.6 55.3 66.6 L 53.6 66.6 Z M 67.8 65.1 C 67.9 65.1 68.2 65 68.5 65 C 68.5 65 68.8 66.5 68.8 66.5 C 68.3 66.6 67.8 66.7 67.5 66.7 C 66.8 66.7 66.3 66.6 66 66.4 C 65.6 66.2 65.4 65.9 65.2 65.6 C 65.1 65.3 65 64.6 65 63.5 C 65.01 63.52 65 57.6 65 57.6 L 63.7 57.6 L 63.7 56.2 L 65 56.2 L 65 53.6 L 66.8 52.6 L 66.8 56.2 L 68.5 56.2 L 68.5 57.6 L 66.8 57.6 C 66.8 57.6 66.76 63.62 66.8 63.6 C 66.8 64.1 66.8 64.4 66.9 64.6 C 66.9 64.7 67 64.8 67.2 64.9 C 67.3 65 67.5 65.1 67.8 65.1 C 67.8 65.1 67.8 65.1 67.8 65.1 Z M 69.5 63.5 C 69.5 63.5 71.3 63.2 71.3 63.2 C 71.4 63.9 71.6 64.4 72.1 64.8 C 72.5 65.2 73.2 65.3 74 65.3 C 74.8 65.3 75.4 65.2 75.8 64.9 C 76.2 64.5 76.3 64.1 76.3 63.7 C 76.3 63.3 76.2 63 75.8 62.8 C 75.6 62.6 75 62.4 74 62.2 C 72.7 61.8 71.9 61.6 71.4 61.3 C 70.9 61.1 70.5 60.8 70.2 60.3 C 70 59.9 69.8 59.5 69.8 58.9 C 69.8 58.5 69.9 58.1 70.2 57.7 C 70.4 57.3 70.7 56.9 71 56.7 C 71.3 56.5 71.7 56.3 72.1 56.2 C 72.6 56 73.1 56 73.7 56 C 74.5 56 75.2 56.1 75.8 56.3 C 76.4 56.5 76.9 56.9 77.2 57.3 C 77.5 57.7 77.7 58.2 77.8 58.9 C 77.8 58.9 76 59.1 76 59.1 C 76 58.6 75.7 58.1 75.4 57.8 C 75 57.6 74.5 57.4 73.8 57.4 C 73 57.4 72.4 57.5 72.1 57.8 C 71.7 58.1 71.5 58.4 71.5 58.7 C 71.5 59 71.6 59.2 71.7 59.4 C 71.9 59.5 72.1 59.7 72.4 59.8 C 72.6 59.9 73.1 60 74 60.3 C 75.2 60.6 76.1 60.9 76.6 61.1 C 77.1 61.3 77.5 61.6 77.7 62 C 78 62.4 78.2 62.9 78.2 63.5 C 78.2 64.1 78 64.7 77.6 65.2 C 77.3 65.7 76.8 66.1 76.2 66.4 C 75.5 66.7 74.8 66.8 74 66.8 C 72.6 66.8 71.6 66.5 70.9 66 C 70.2 65.4 69.7 64.6 69.5 63.5 Z M 87.4 66.6 L 85.8 66.6 L 85.8 52.2 L 87.5 52.2 C 87.5 52.2 87.55 57.35 87.5 57.4 C 88.3 56.4 89.2 56 90.4 56 C 91 56 91.6 56.1 92.2 56.3 C 92.8 56.6 93.2 57 93.6 57.4 C 94 57.9 94.3 58.5 94.5 59.1 C 94.7 59.8 94.8 60.5 94.8 61.2 C 94.8 63 94.3 64.4 93.5 65.3 C 92.6 66.3 91.5 66.8 90.3 66.8 C 89.1 66.8 88.1 66.3 87.4 65.3 C 87.42 65.26 87.4 66.6 87.4 66.6 Z M 87.4 61.3 C 87.4 62.5 87.6 63.4 87.9 64 C 88.5 64.9 89.2 65.3 90.2 65.3 C 90.9 65.3 91.6 65 92.1 64.3 C 92.7 63.7 93 62.7 93 61.4 C 93 60 92.7 59 92.2 58.4 C 91.6 57.7 91 57.4 90.2 57.4 C 89.5 57.4 88.8 57.7 88.2 58.4 C 87.7 59.1 87.4 60 87.4 61.3 Z M 96.3 61.4 C 96.3 59.5 96.8 58 97.9 57.1 C 98.8 56.3 99.9 56 101.1 56 C 102.6 56 103.7 56.4 104.6 57.4 C 105.5 58.3 106 59.6 106 61.2 C 106 62.6 105.8 63.6 105.4 64.4 C 105 65.1 104.4 65.7 103.6 66.2 C 102.9 66.6 102 66.8 101.1 66.8 C 99.7 66.8 98.5 66.3 97.6 65.4 C 96.7 64.5 96.3 63.1 96.3 61.4 Z M 98.1 61.4 C 98.1 62.7 98.4 63.7 98.9 64.4 C 99.5 65 100.3 65.3 101.1 65.3 C 102 65.3 102.7 65 103.3 64.4 C 103.9 63.7 104.2 62.7 104.2 61.3 C 104.2 60 103.9 59.1 103.3 58.4 C 102.7 57.7 102 57.4 101.1 57.4 C 100.3 57.4 99.5 57.7 98.9 58.4 C 98.4 59.1 98.1 60 98.1 61.4 Z M 111.1 65.1 C 111.3 65.1 111.6 65 111.9 65 C 111.9 65 112.1 66.5 112.1 66.5 C 111.6 66.6 111.2 66.7 110.8 66.7 C 110.2 66.7 109.7 66.6 109.3 66.4 C 109 66.2 108.7 65.9 108.6 65.6 C 108.4 65.3 108.4 64.6 108.4 63.5 C 108.37 63.52 108.4 57.6 108.4 57.6 L 107.1 57.6 L 107.1 56.2 L 108.4 56.2 L 108.4 53.6 L 110.1 52.6 L 110.1 56.2 L 111.9 56.2 L 111.9 57.6 L 110.1 57.6 C 110.1 57.6 110.12 63.62 110.1 63.6 C 110.1 64.1 110.1 64.4 110.2 64.6 C 110.3 64.7 110.4 64.8 110.5 64.9 C 110.7 65 110.9 65.1 111.1 65.1 C 111.1 65.1 111.1 65.1 111.1 65.1 Z M 113.6 66.6 L 113.6 52.2 L 115.4 52.2 C 115.4 52.2 115.36 57.38 115.4 57.4 C 116.2 56.4 117.2 56 118.5 56 C 119.2 56 119.9 56.1 120.5 56.4 C 121 56.7 121.4 57.1 121.7 57.7 C 121.9 58.2 122.1 59 122.1 60 C 122.05 59.99 122.1 66.6 122.1 66.6 L 120.3 66.6 C 120.3 66.6 120.29 59.99 120.3 60 C 120.3 59.1 120.1 58.5 119.7 58.1 C 119.3 57.7 118.8 57.5 118.1 57.5 C 117.6 57.5 117.1 57.6 116.6 57.9 C 116.2 58.1 115.8 58.5 115.7 59 C 115.5 59.4 115.4 60.1 115.4 60.9 C 115.36 60.89 115.4 66.6 115.4 66.6 L 113.6 66.6 Z M 137 66.6 C 137 66.6 137.01 65.25 137 65.3 C 136.4 66.3 135.4 66.8 134.1 66.8 C 133.3 66.8 132.5 66.6 131.8 66.1 C 131.1 65.7 130.6 65 130.2 64.2 C 129.8 63.4 129.6 62.4 129.6 61.4 C 129.6 60.3 129.8 59.4 130.2 58.6 C 130.5 57.7 131 57.1 131.7 56.6 C 132.4 56.2 133.2 56 134 56 C 134.7 56 135.2 56.1 135.7 56.4 C 136.2 56.6 136.6 57 136.9 57.4 C 136.89 57.38 136.9 52.2 136.9 52.2 L 138.6 52.2 L 138.6 66.6 L 137 66.6 Z M 131.5 61.4 C 131.5 62.7 131.7 63.7 132.3 64.4 C 132.9 65 133.5 65.3 134.3 65.3 C 135 65.3 135.7 65 136.2 64.4 C 136.8 63.8 137 62.8 137 61.5 C 137 60.1 136.8 59.1 136.2 58.4 C 135.7 57.7 135 57.4 134.2 57.4 C 133.4 57.4 132.8 57.7 132.2 58.4 C 131.7 59 131.5 60 131.5 61.4 Z M 140.8 61.4 C 140.8 59.5 141.3 58 142.4 57.1 C 143.2 56.3 144.3 56 145.6 56 C 147 56 148.2 56.4 149.1 57.4 C 150 58.3 150.5 59.6 150.5 61.2 C 150.5 62.6 150.3 63.6 149.9 64.4 C 149.5 65.1 148.9 65.7 148.1 66.2 C 147.4 66.6 146.5 66.8 145.6 66.8 C 144.2 66.8 143 66.3 142.1 65.4 C 141.2 64.5 140.8 63.1 140.8 61.4 Z M 142.6 61.4 C 142.6 62.7 142.8 63.7 143.4 64.4 C 144 65 144.7 65.3 145.6 65.3 C 146.5 65.3 147.2 65 147.8 64.4 C 148.4 63.7 148.7 62.7 148.7 61.3 C 148.7 60 148.4 59.1 147.8 58.4 C 147.2 57.7 146.5 57.4 145.6 57.4 C 144.7 57.4 144 57.7 143.4 58.4 C 142.8 59.1 142.6 60 142.6 61.4 Z M 152.5 66.6 L 152.5 56.2 L 154.1 56.2 C 154.1 56.2 154.1 57.64 154.1 57.6 C 154.4 57.1 154.9 56.7 155.4 56.4 C 155.9 56.1 156.6 56 157.2 56 C 158 56 158.6 56.1 159.1 56.4 C 159.6 56.8 160 57.2 160.2 57.8 C 161 56.6 162.1 56 163.4 56 C 164.4 56 165.2 56.2 165.8 56.8 C 166.3 57.4 166.6 58.3 166.6 59.4 C 166.58 59.44 166.6 66.6 166.6 66.6 L 164.8 66.6 C 164.8 66.6 164.83 60.03 164.8 60 C 164.8 59.3 164.8 58.8 164.7 58.5 C 164.5 58.2 164.3 58 164 57.8 C 163.7 57.6 163.4 57.5 163 57.5 C 162.3 57.5 161.7 57.7 161.2 58.2 C 160.7 58.7 160.4 59.5 160.4 60.5 C 160.45 60.54 160.4 66.6 160.4 66.6 L 158.7 66.6 C 158.7 66.6 158.69 59.82 158.7 59.8 C 158.7 59 158.5 58.5 158.3 58.1 C 158 57.7 157.5 57.5 156.9 57.5 C 156.4 57.5 155.9 57.6 155.5 57.9 C 155.1 58.1 154.8 58.5 154.6 59 C 154.4 59.5 154.3 60.2 154.3 61.2 C 154.29 61.18 154.3 66.6 154.3 66.6 L 152.5 66.6 Z M 176.3 63.2 C 176.3 63.2 178.1 63.4 178.1 63.4 C 177.8 64.5 177.3 65.3 176.5 65.9 C 175.7 66.5 174.7 66.8 173.5 66.8 C 172 66.8 170.8 66.3 169.9 65.4 C 169 64.5 168.6 63.1 168.6 61.5 C 168.6 59.7 169.1 58.4 170 57.4 C 170.8 56.4 172 56 173.4 56 C 174.8 56 176 56.4 176.8 57.4 C 177.7 58.3 178.2 59.6 178.2 61.4 C 178.2 61.5 178.2 61.6 178.2 61.8 C 178.2 61.8 170.4 61.8 170.4 61.8 C 170.5 63 170.8 63.8 171.4 64.4 C 172 65 172.7 65.3 173.6 65.3 C 174.2 65.3 174.7 65.2 175.2 64.8 C 175.7 64.5 176 64 176.3 63.2 Z M 170.5 60.4 C 170.5 60.4 176.3 60.4 176.3 60.4 C 176.2 59.5 176 58.9 175.6 58.4 C 175.1 57.7 174.4 57.4 173.5 57.4 C 172.7 57.4 172 57.7 171.4 58.2 C 170.9 58.8 170.6 59.5 170.5 60.4 Z M 179.6 63.5 C 179.6 63.5 181.3 63.2 181.3 63.2 C 181.4 63.9 181.7 64.4 182.2 64.8 C 182.6 65.2 183.2 65.3 184 65.3 C 184.8 65.3 185.4 65.2 185.8 64.9 C 186.2 64.5 186.4 64.1 186.4 63.7 C 186.4 63.3 186.2 63 185.9 62.8 C 185.7 62.6 185.1 62.4 184.1 62.2 C 182.8 61.8 181.9 61.6 181.4 61.3 C 180.9 61.1 180.5 60.8 180.3 60.3 C 180 59.9 179.9 59.5 179.9 58.9 C 179.9 58.5 180 58.1 180.2 57.7 C 180.4 57.3 180.7 56.9 181.1 56.7 C 181.4 56.5 181.7 56.3 182.2 56.2 C 182.7 56 183.2 56 183.7 56 C 184.5 56 185.2 56.1 185.9 56.3 C 186.5 56.5 186.9 56.9 187.2 57.3 C 187.5 57.7 187.7 58.2 187.8 58.9 C 187.8 58.9 186.1 59.1 186.1 59.1 C 186 58.6 185.8 58.1 185.4 57.8 C 185.1 57.6 184.5 57.4 183.8 57.4 C 183 57.4 182.5 57.5 182.1 57.8 C 181.8 58.1 181.6 58.4 181.6 58.7 C 181.6 59 181.7 59.2 181.8 59.4 C 182 59.5 182.2 59.7 182.5 59.8 C 182.7 59.9 183.2 60 184 60.3 C 185.3 60.6 186.2 60.9 186.6 61.1 C 187.1 61.3 187.5 61.6 187.8 62 C 188.1 62.4 188.2 62.9 188.2 63.5 C 188.2 64.1 188.1 64.7 187.7 65.2 C 187.4 65.7 186.9 66.1 186.2 66.4 C 185.6 66.7 184.9 66.8 184 66.8 C 182.7 66.8 181.7 66.5 181 66 C 180.3 65.4 179.8 64.6 179.6 63.5 Z M 193.4 65.1 C 193.6 65.1 193.8 65 194.2 65 C 194.2 65 194.4 66.5 194.4 66.5 C 193.9 66.6 193.5 66.7 193.1 66.7 C 192.4 66.7 191.9 66.6 191.6 66.4 C 191.2 66.2 191 65.9 190.8 65.6 C 190.7 65.3 190.6 64.6 190.6 63.5 C 190.63 63.52 190.6 57.6 190.6 57.6 L 189.3 57.6 L 189.3 56.2 L 190.6 56.2 L 190.6 53.6 L 192.4 52.6 L 192.4 56.2 L 194.2 56.2 L 194.2 57.6 L 192.4 57.6 C 192.4 57.6 192.38 63.62 192.4 63.6 C 192.4 64.1 192.4 64.4 192.5 64.6 C 192.5 64.7 192.6 64.8 192.8 64.9 C 192.9 65 193.1 65.1 193.4 65.1 C 193.4 65.1 193.4 65.1 193.4 65.1 Z M 195.9 54.3 L 195.9 52.2 L 197.6 52.2 L 197.6 54.3 L 195.9 54.3 Z M 195.9 66.6 L 195.9 56.2 L 197.6 56.2 L 197.6 66.6 L 195.9 66.6 Z M 207.1 62.8 C 207.1 62.8 208.8 63 208.8 63 C 208.6 64.2 208.1 65.1 207.4 65.8 C 206.6 66.5 205.6 66.8 204.5 66.8 C 203.1 66.8 201.9 66.3 201.1 65.4 C 200.2 64.5 199.8 63.1 199.8 61.4 C 199.8 60.3 200 59.3 200.3 58.5 C 200.7 57.6 201.3 57 202 56.6 C 202.8 56.2 203.6 56 204.5 56 C 205.6 56 206.5 56.2 207.3 56.8 C 208 57.4 208.4 58.2 208.6 59.2 C 208.6 59.2 206.9 59.5 206.9 59.5 C 206.8 58.8 206.5 58.3 206.1 57.9 C 205.7 57.6 205.2 57.4 204.6 57.4 C 203.7 57.4 203 57.7 202.4 58.4 C 201.9 59 201.6 60 201.6 61.4 C 201.6 62.8 201.8 63.8 202.4 64.4 C 202.9 65 203.6 65.3 204.5 65.3 C 205.2 65.3 205.7 65.1 206.2 64.7 C 206.7 64.3 207 63.6 207.1 62.8 Z M 217.4 66.6 C 217.2 66.2 217.1 65.8 217.1 65.3 C 216.4 65.8 215.8 66.2 215.2 66.5 C 214.6 66.7 214 66.8 213.3 66.8 C 212.1 66.8 211.2 66.5 210.6 66 C 210 65.4 209.7 64.7 209.7 63.8 C 209.7 63.3 209.8 62.9 210.1 62.4 C 210.3 62 210.6 61.7 211 61.4 C 211.3 61.2 211.8 61 212.2 60.8 C 212.6 60.8 213.1 60.7 213.8 60.6 C 215.2 60.4 216.3 60.2 216.9 60 C 216.9 59.7 216.9 59.6 216.9 59.5 C 216.9 58.8 216.8 58.3 216.4 58 C 216 57.6 215.3 57.4 214.4 57.4 C 213.6 57.4 213 57.6 212.6 57.8 C 212.2 58.1 211.9 58.6 211.7 59.4 C 211.7 59.4 210 59.1 210 59.1 C 210.2 58.4 210.4 57.8 210.8 57.4 C 211.1 56.9 211.7 56.6 212.3 56.3 C 213 56.1 213.8 56 214.7 56 C 215.6 56 216.3 56.1 216.9 56.3 C 217.4 56.5 217.8 56.7 218.1 57.1 C 218.3 57.4 218.5 57.8 218.6 58.3 C 218.7 58.5 218.7 59.1 218.7 59.9 C 218.7 59.9 218.7 62.2 218.7 62.2 C 218.7 63.8 218.7 64.9 218.8 65.3 C 218.9 65.7 219 66.2 219.3 66.6 C 219.27 66.56 217.4 66.6 217.4 66.6 C 217.4 66.6 217.43 66.56 217.4 66.6 Z M 216.9 61.4 C 216.3 61.6 215.3 61.8 214.1 62 C 213.3 62.1 212.8 62.2 212.5 62.4 C 212.2 62.5 212 62.7 211.8 62.9 C 211.7 63.2 211.6 63.5 211.6 63.8 C 211.6 64.2 211.8 64.6 212.1 64.9 C 212.5 65.3 213 65.4 213.7 65.4 C 214.4 65.4 215 65.3 215.5 65 C 216 64.7 216.4 64.3 216.7 63.8 C 216.8 63.4 216.9 62.8 216.9 62 C 216.9 62 216.9 61.4 216.9 61.4 Z M 221.4 66.6 L 221.4 52.2 L 223.2 52.2 L 223.2 66.6 L 221.4 66.6 Z M 225.8 66.6 L 225.8 52.2 L 227.6 52.2 L 227.6 66.6 L 225.8 66.6 Z M 231.4 70.8 C 231 70.8 230.7 70.7 230.2 70.6 C 230.2 70.6 230 68.9 230 68.9 C 230.4 69 230.8 69.1 231.1 69.1 C 231.4 69.1 231.8 69 232 68.9 C 232.2 68.7 232.4 68.6 232.6 68.3 C 232.7 68.1 232.9 67.7 233.1 67 C 233.1 66.9 233.2 66.8 233.3 66.6 C 233.26 66.58 229.3 56.2 229.3 56.2 L 231.2 56.2 C 231.2 56.2 233.38 62.2 233.4 62.2 C 233.7 63 233.9 63.8 234.1 64.6 C 234.3 63.8 234.6 63 234.9 62.2 C 234.85 62.23 237.1 56.2 237.1 56.2 L 238.8 56.2 C 238.8 56.2 234.88 66.74 234.9 66.7 C 234.5 67.9 234.1 68.7 233.9 69.1 C 233.6 69.7 233.2 70.1 232.8 70.4 C 232.4 70.6 231.9 70.8 231.4 70.8 C 231.4 70.8 231.4 70.8 231.4 70.8 Z M 253 66.6 C 252.8 66.2 252.7 65.8 252.6 65.3 C 252 65.8 251.4 66.2 250.8 66.5 C 250.2 66.7 249.5 66.8 248.8 66.8 C 247.7 66.8 246.8 66.5 246.2 66 C 245.6 65.4 245.3 64.7 245.3 63.8 C 245.3 63.3 245.4 62.9 245.6 62.4 C 245.9 62 246.2 61.7 246.5 61.4 C 246.9 61.2 247.3 61 247.8 60.8 C 248.1 60.8 248.7 60.7 249.4 60.6 C 250.8 60.4 251.8 60.2 252.5 60 C 252.5 59.7 252.5 59.6 252.5 59.5 C 252.5 58.8 252.3 58.3 252 58 C 251.6 57.6 250.9 57.4 250 57.4 C 249.2 57.4 248.6 57.6 248.2 57.8 C 247.8 58.1 247.5 58.6 247.3 59.4 C 247.3 59.4 245.6 59.1 245.6 59.1 C 245.7 58.4 246 57.8 246.4 57.4 C 246.7 56.9 247.2 56.6 247.9 56.3 C 248.6 56.1 249.4 56 250.3 56 C 251.1 56 251.9 56.1 252.4 56.3 C 253 56.5 253.4 56.7 253.6 57.1 C 253.9 57.4 254.1 57.8 254.2 58.3 C 254.2 58.5 254.3 59.1 254.3 59.9 C 254.3 59.9 254.3 62.2 254.3 62.2 C 254.3 63.8 254.3 64.9 254.4 65.3 C 254.5 65.7 254.6 66.2 254.8 66.6 C 254.83 66.56 253 66.6 253 66.6 C 253 66.6 253 66.56 253 66.6 Z M 252.5 61.4 C 251.9 61.6 250.9 61.8 249.6 62 C 248.9 62.1 248.4 62.2 248.1 62.4 C 247.8 62.5 247.6 62.7 247.4 62.9 C 247.2 63.2 247.2 63.5 247.2 63.8 C 247.2 64.2 247.3 64.6 247.7 64.9 C 248 65.3 248.6 65.4 249.2 65.4 C 249.9 65.4 250.5 65.3 251.1 65 C 251.6 64.7 252 64.3 252.2 63.8 C 252.4 63.4 252.5 62.8 252.5 62 C 252.5 62 252.5 61.4 252.5 61.4 Z M 257 66.6 L 257 56.2 L 258.6 56.2 C 258.6 56.2 258.58 57.66 258.6 57.7 C 259.3 56.5 260.4 56 261.9 56 C 262.5 56 263.1 56.1 263.6 56.3 C 264.1 56.5 264.5 56.8 264.8 57.2 C 265 57.5 265.2 58 265.3 58.5 C 265.4 58.8 265.4 59.4 265.4 60.2 C 265.43 60.18 265.4 66.6 265.4 66.6 L 263.7 66.6 C 263.7 66.6 263.67 60.25 263.7 60.3 C 263.7 59.5 263.6 59 263.5 58.6 C 263.3 58.3 263.1 58 262.7 57.8 C 262.4 57.6 262 57.5 261.5 57.5 C 260.8 57.5 260.1 57.7 259.6 58.2 C 259 58.7 258.8 59.6 258.8 60.9 C 258.76 60.9 258.8 66.6 258.8 66.6 L 257 66.6 Z M 274.9 66.6 C 274.9 66.6 274.85 65.25 274.9 65.3 C 274.2 66.3 273.2 66.8 272 66.8 C 271.1 66.8 270.4 66.6 269.7 66.1 C 269 65.7 268.4 65 268.1 64.2 C 267.7 63.4 267.5 62.4 267.5 61.4 C 267.5 60.3 267.7 59.4 268 58.6 C 268.4 57.7 268.9 57.1 269.6 56.6 C 270.3 56.2 271 56 271.9 56 C 272.5 56 273.1 56.1 273.5 56.4 C 274 56.6 274.4 57 274.7 57.4 C 274.74 57.38 274.7 52.2 274.7 52.2 L 276.5 52.2 L 276.5 66.6 L 274.9 66.6 Z M 269.3 61.4 C 269.3 62.7 269.6 63.7 270.1 64.4 C 270.7 65 271.4 65.3 272.1 65.3 C 272.9 65.3 273.5 65 274.1 64.4 C 274.6 63.8 274.9 62.8 274.9 61.5 C 274.9 60.1 274.6 59.1 274.1 58.4 C 273.5 57.7 272.8 57.4 272 57.4 C 271.3 57.4 270.6 57.7 270.1 58.4 C 269.6 59 269.3 60 269.3 61.4 Z " stroke="none" fill="#5d7e95"/>
  </g>
  <g id="Polygon58249">
    <path d="M 1.7 40.6 L 1.7 31.6 L 0.2 31.6 L 0.2 30.2 L 1.7 30.2 C 1.7 30.2 1.74 29.09 1.7 29.1 C 1.7 28.4 1.8 27.9 1.9 27.5 C 2.1 27.1 2.4 26.7 2.8 26.4 C 3.2 26.1 3.8 26 4.6 26 C 5.1 26 5.7 26.1 6.3 26.2 C 6.3 26.2 6 27.7 6 27.7 C 5.6 27.6 5.3 27.6 5 27.6 C 4.4 27.6 4 27.7 3.8 28 C 3.6 28.2 3.5 28.6 3.5 29.2 C 3.49 29.23 3.5 30.2 3.5 30.2 L 5.5 30.2 L 5.5 31.6 L 3.5 31.6 L 3.5 40.6 L 1.7 40.6 Z M 6.2 35.4 C 6.2 33.5 6.8 32 7.8 31.1 C 8.7 30.3 9.8 30 11.1 30 C 12.5 30 13.7 30.4 14.6 31.4 C 15.5 32.3 15.9 33.6 15.9 35.2 C 15.9 36.6 15.7 37.6 15.3 38.4 C 14.9 39.1 14.4 39.7 13.6 40.2 C 12.8 40.6 12 40.8 11.1 40.8 C 9.6 40.8 8.5 40.3 7.6 39.4 C 6.7 38.5 6.2 37.1 6.2 35.4 Z M 8 35.4 C 8 36.7 8.3 37.7 8.9 38.4 C 9.5 39 10.2 39.3 11.1 39.3 C 12 39.3 12.7 39 13.3 38.4 C 13.8 37.7 14.1 36.7 14.1 35.3 C 14.1 34 13.8 33.1 13.3 32.4 C 12.7 31.7 11.9 31.4 11.1 31.4 C 10.2 31.4 9.5 31.7 8.9 32.4 C 8.3 33.1 8 34 8 35.4 Z M 18 40.6 L 18 30.2 L 19.6 30.2 C 19.6 30.2 19.56 31.76 19.6 31.8 C 20 31 20.3 30.5 20.7 30.3 C 21 30.1 21.4 30 21.8 30 C 22.4 30 23 30.1 23.6 30.5 C 23.6 30.5 23 32.2 23 32.2 C 22.6 31.9 22.1 31.8 21.7 31.8 C 21.3 31.8 21 31.9 20.7 32.1 C 20.4 32.3 20.2 32.7 20 33.1 C 19.8 33.7 19.7 34.4 19.7 35.1 C 19.74 35.13 19.7 40.6 19.7 40.6 L 18 40.6 Z M 30.2 40.6 L 30.2 26.2 L 32 26.2 C 32 26.2 31.97 31.38 32 31.4 C 32.8 30.4 33.8 30 35.1 30 C 35.8 30 36.5 30.1 37.1 30.4 C 37.6 30.7 38.1 31.1 38.3 31.7 C 38.5 32.2 38.7 33 38.7 34 C 38.66 33.99 38.7 40.6 38.7 40.6 L 36.9 40.6 C 36.9 40.6 36.9 33.99 36.9 34 C 36.9 33.1 36.7 32.5 36.3 32.1 C 36 31.7 35.4 31.5 34.7 31.5 C 34.2 31.5 33.7 31.6 33.2 31.9 C 32.8 32.1 32.5 32.5 32.3 33 C 32.1 33.4 32 34.1 32 34.9 C 31.97 34.89 32 40.6 32 40.6 L 30.2 40.6 Z M 48.5 40.6 C 48.3 40.2 48.2 39.8 48.1 39.3 C 47.5 39.8 46.8 40.2 46.2 40.5 C 45.6 40.7 45 40.8 44.3 40.8 C 43.1 40.8 42.3 40.5 41.7 40 C 41 39.4 40.7 38.7 40.7 37.8 C 40.7 37.3 40.9 36.9 41.1 36.4 C 41.3 36 41.6 35.7 42 35.4 C 42.4 35.2 42.8 35 43.3 34.8 C 43.6 34.8 44.1 34.7 44.8 34.6 C 46.2 34.4 47.3 34.2 48 34 C 48 33.7 48 33.6 48 33.5 C 48 32.8 47.8 32.3 47.5 32 C 47 31.6 46.4 31.4 45.5 31.4 C 44.6 31.4 44 31.6 43.6 31.8 C 43.2 32.1 43 32.6 42.8 33.4 C 42.8 33.4 41 33.1 41 33.1 C 41.2 32.4 41.5 31.8 41.8 31.4 C 42.2 30.9 42.7 30.6 43.4 30.3 C 44 30.1 44.8 30 45.7 30 C 46.6 30 47.3 30.1 47.9 30.3 C 48.4 30.5 48.8 30.7 49.1 31.1 C 49.4 31.4 49.5 31.8 49.6 32.3 C 49.7 32.5 49.7 33.1 49.7 33.9 C 49.7 33.9 49.7 36.2 49.7 36.2 C 49.7 37.8 49.8 38.9 49.8 39.3 C 49.9 39.7 50.1 40.2 50.3 40.6 C 50.29 40.56 48.5 40.6 48.5 40.6 C 48.5 40.6 48.46 40.56 48.5 40.6 Z M 48 35.4 C 47.3 35.6 46.4 35.8 45.1 36 C 44.4 36.1 43.9 36.2 43.6 36.4 C 43.3 36.5 43 36.7 42.9 36.9 C 42.7 37.2 42.6 37.5 42.6 37.8 C 42.6 38.2 42.8 38.6 43.1 38.9 C 43.5 39.3 44 39.4 44.7 39.4 C 45.4 39.4 46 39.3 46.5 39 C 47 38.7 47.4 38.3 47.7 37.8 C 47.9 37.4 48 36.8 48 36 C 48 36 48 35.4 48 35.4 Z M 52.5 40.6 L 52.5 30.2 L 54 30.2 C 54 30.2 54.04 31.66 54 31.7 C 54.8 30.5 55.9 30 57.3 30 C 58 30 58.5 30.1 59.1 30.3 C 59.6 30.5 60 30.8 60.2 31.2 C 60.5 31.5 60.7 32 60.8 32.5 C 60.9 32.8 60.9 33.4 60.9 34.2 C 60.89 34.18 60.9 40.6 60.9 40.6 L 59.1 40.6 C 59.1 40.6 59.13 34.25 59.1 34.3 C 59.1 33.5 59.1 33 58.9 32.6 C 58.8 32.3 58.5 32 58.2 31.8 C 57.8 31.6 57.4 31.5 57 31.5 C 56.2 31.5 55.6 31.7 55 32.2 C 54.5 32.7 54.2 33.6 54.2 34.9 C 54.22 34.9 54.2 40.6 54.2 40.6 L 52.5 40.6 Z M 70.3 40.6 C 70.3 40.6 70.31 39.25 70.3 39.3 C 69.7 40.3 68.7 40.8 67.4 40.8 C 66.6 40.8 65.8 40.6 65.1 40.1 C 64.4 39.7 63.9 39 63.5 38.2 C 63.1 37.4 62.9 36.4 62.9 35.4 C 62.9 34.3 63.1 33.4 63.5 32.6 C 63.8 31.7 64.3 31.1 65 30.6 C 65.7 30.2 66.5 30 67.3 30 C 68 30 68.5 30.1 69 30.4 C 69.5 30.6 69.9 31 70.2 31.4 C 70.2 31.38 70.2 26.2 70.2 26.2 L 71.9 26.2 L 71.9 40.6 L 70.3 40.6 Z M 64.8 35.4 C 64.8 36.7 65 37.7 65.6 38.4 C 66.2 39 66.8 39.3 67.6 39.3 C 68.3 39.3 69 39 69.5 38.4 C 70.1 37.8 70.3 36.8 70.3 35.5 C 70.3 34.1 70.1 33.1 69.5 32.4 C 69 31.7 68.3 31.4 67.5 31.4 C 66.7 31.4 66.1 31.7 65.5 32.4 C 65 33 64.8 34 64.8 35.4 Z M 74.7 40.6 L 74.7 26.2 L 76.4 26.2 L 76.4 40.6 L 74.7 40.6 Z M 79.2 28.3 L 79.2 26.2 L 80.9 26.2 L 80.9 28.3 L 79.2 28.3 Z M 79.2 40.6 L 79.2 30.2 L 80.9 30.2 L 80.9 40.6 L 79.2 40.6 Z M 83.6 40.6 L 83.6 30.2 L 85.2 30.2 C 85.2 30.2 85.18 31.66 85.2 31.7 C 85.9 30.5 87 30 88.5 30 C 89.1 30 89.7 30.1 90.2 30.3 C 90.7 30.5 91.1 30.8 91.4 31.2 C 91.6 31.5 91.8 32 91.9 32.5 C 92 32.8 92 33.4 92 34.2 C 92.02 34.18 92 40.6 92 40.6 L 90.3 40.6 C 90.3 40.6 90.26 34.25 90.3 34.3 C 90.3 33.5 90.2 33 90.1 32.6 C 89.9 32.3 89.7 32 89.3 31.8 C 89 31.6 88.6 31.5 88.1 31.5 C 87.4 31.5 86.7 31.7 86.2 32.2 C 85.6 32.7 85.4 33.6 85.4 34.9 C 85.35 34.9 85.4 40.6 85.4 40.6 L 83.6 40.6 Z M 94.4 41.4 C 94.4 41.4 96.1 41.7 96.1 41.7 C 96.2 42.2 96.4 42.6 96.7 42.8 C 97.1 43.2 97.7 43.3 98.5 43.3 C 99.3 43.3 99.9 43.2 100.4 42.8 C 100.8 42.5 101.1 42 101.3 41.5 C 101.4 41.1 101.4 40.3 101.4 39.2 C 100.6 40.1 99.7 40.6 98.5 40.6 C 97.1 40.6 96 40 95.2 39 C 94.4 38 94 36.8 94 35.3 C 94 34.3 94.2 33.4 94.6 32.6 C 94.9 31.7 95.5 31.1 96.1 30.6 C 96.8 30.2 97.6 30 98.5 30 C 99.8 30 100.8 30.4 101.6 31.4 C 101.56 31.44 101.6 30.2 101.6 30.2 L 103.2 30.2 C 103.2 30.2 103.18 39.15 103.2 39.2 C 103.2 40.8 103 41.9 102.7 42.6 C 102.4 43.3 101.8 43.8 101.1 44.2 C 100.4 44.6 99.5 44.8 98.5 44.8 C 97.3 44.8 96.3 44.5 95.5 43.9 C 94.7 43.4 94.4 42.5 94.4 41.4 Z M 95.8 35.2 C 95.8 36.6 96.1 37.5 96.7 38.2 C 97.2 38.8 97.9 39.1 98.7 39.1 C 99.5 39.1 100.2 38.8 100.7 38.2 C 101.3 37.6 101.5 36.6 101.5 35.2 C 101.5 34 101.3 33 100.7 32.4 C 100.1 31.7 99.5 31.4 98.7 31.4 C 97.9 31.4 97.2 31.7 96.7 32.4 C 96.1 33 95.8 33.9 95.8 35.2 Z M 118.5 40.6 C 118.3 40.2 118.2 39.8 118.2 39.3 C 117.5 39.8 116.9 40.2 116.3 40.5 C 115.7 40.7 115 40.8 114.3 40.8 C 113.2 40.8 112.3 40.5 111.7 40 C 111.1 39.4 110.8 38.7 110.8 37.8 C 110.8 37.3 110.9 36.9 111.1 36.4 C 111.4 36 111.7 35.7 112.1 35.4 C 112.4 35.2 112.9 35 113.3 34.8 C 113.7 34.8 114.2 34.7 114.9 34.6 C 116.3 34.4 117.3 34.2 118 34 C 118 33.7 118 33.6 118 33.5 C 118 32.8 117.9 32.3 117.5 32 C 117.1 31.6 116.4 31.4 115.5 31.4 C 114.7 31.4 114.1 31.6 113.7 31.8 C 113.3 32.1 113 32.6 112.8 33.4 C 112.8 33.4 111.1 33.1 111.1 33.1 C 111.3 32.4 111.5 31.8 111.9 31.4 C 112.2 30.9 112.8 30.6 113.4 30.3 C 114.1 30.1 114.9 30 115.8 30 C 116.7 30 117.4 30.1 117.9 30.3 C 118.5 30.5 118.9 30.7 119.2 31.1 C 119.4 31.4 119.6 31.8 119.7 32.3 C 119.8 32.5 119.8 33.1 119.8 33.9 C 119.8 33.9 119.8 36.2 119.8 36.2 C 119.8 37.8 119.8 38.9 119.9 39.3 C 120 39.7 120.1 40.2 120.4 40.6 C 120.35 40.56 118.5 40.6 118.5 40.6 C 118.5 40.6 118.52 40.56 118.5 40.6 Z M 118 35.4 C 117.4 35.6 116.4 35.8 115.1 36 C 114.4 36.1 113.9 36.2 113.6 36.4 C 113.3 36.5 113.1 36.7 112.9 36.9 C 112.8 37.2 112.7 37.5 112.7 37.8 C 112.7 38.2 112.9 38.6 113.2 38.9 C 113.6 39.3 114.1 39.4 114.8 39.4 C 115.4 39.4 116 39.3 116.6 39 C 117.1 38.7 117.5 38.3 117.7 37.8 C 117.9 37.4 118 36.8 118 36 C 118 36 118 35.4 118 35.4 Z M 122.5 40.6 L 122.5 30.2 L 124.1 30.2 C 124.1 30.2 124.1 31.66 124.1 31.7 C 124.9 30.5 126 30 127.4 30 C 128 30 128.6 30.1 129.1 30.3 C 129.6 30.5 130 30.8 130.3 31.2 C 130.6 31.5 130.7 32 130.8 32.5 C 130.9 32.8 130.9 33.4 130.9 34.2 C 130.95 34.18 130.9 40.6 130.9 40.6 L 129.2 40.6 C 129.2 40.6 129.19 34.25 129.2 34.3 C 129.2 33.5 129.1 33 129 32.6 C 128.8 32.3 128.6 32 128.3 31.8 C 127.9 31.6 127.5 31.5 127 31.5 C 126.3 31.5 125.6 31.7 125.1 32.2 C 124.5 32.7 124.3 33.6 124.3 34.9 C 124.28 34.9 124.3 40.6 124.3 40.6 L 122.5 40.6 Z M 139.2 28.3 L 139.2 26.2 L 141 26.2 L 141 28.3 L 139.2 28.3 Z M 139.2 40.6 L 139.2 30.2 L 141 30.2 L 141 40.6 L 139.2 40.6 Z M 143.6 40.6 L 143.6 30.2 L 145.2 30.2 C 145.2 30.2 145.21 31.64 145.2 31.6 C 145.5 31.1 146 30.7 146.5 30.4 C 147.1 30.1 147.7 30 148.4 30 C 149.1 30 149.8 30.1 150.2 30.4 C 150.7 30.8 151.1 31.2 151.3 31.8 C 152.1 30.6 153.2 30 154.5 30 C 155.5 30 156.3 30.2 156.9 30.8 C 157.4 31.4 157.7 32.3 157.7 33.4 C 157.7 33.44 157.7 40.6 157.7 40.6 L 155.9 40.6 C 155.9 40.6 155.95 34.03 155.9 34 C 155.9 33.3 155.9 32.8 155.8 32.5 C 155.7 32.2 155.5 32 155.2 31.8 C 154.9 31.6 154.5 31.5 154.1 31.5 C 153.4 31.5 152.8 31.7 152.3 32.2 C 151.8 32.7 151.6 33.5 151.6 34.5 C 151.56 34.54 151.6 40.6 151.6 40.6 L 149.8 40.6 C 149.8 40.6 149.8 33.82 149.8 33.8 C 149.8 33 149.7 32.5 149.4 32.1 C 149.1 31.7 148.6 31.5 148 31.5 C 147.5 31.5 147 31.6 146.6 31.9 C 146.2 32.1 145.9 32.5 145.7 33 C 145.5 33.5 145.4 34.2 145.4 35.2 C 145.4 35.18 145.4 40.6 145.4 40.6 L 143.6 40.6 Z M 160.3 44.5 L 160.3 30.2 L 161.9 30.2 C 161.9 30.2 161.9 31.54 161.9 31.5 C 162.3 31 162.7 30.6 163.2 30.4 C 163.7 30.1 164.2 30 164.9 30 C 165.8 30 166.6 30.2 167.3 30.6 C 167.9 31.1 168.4 31.7 168.8 32.6 C 169.1 33.4 169.3 34.3 169.3 35.3 C 169.3 36.4 169.1 37.3 168.7 38.2 C 168.4 39 167.8 39.7 167.1 40.1 C 166.3 40.6 165.6 40.8 164.8 40.8 C 164.2 40.8 163.7 40.7 163.2 40.4 C 162.7 40.2 162.4 39.9 162.1 39.5 C 162.06 39.49 162.1 44.5 162.1 44.5 L 160.3 44.5 Z M 161.9 35.4 C 161.9 36.8 162.2 37.8 162.7 38.4 C 163.2 39 163.9 39.3 164.7 39.3 C 165.4 39.3 166.1 39 166.7 38.4 C 167.2 37.7 167.5 36.7 167.5 35.3 C 167.5 34 167.2 33 166.7 32.3 C 166.2 31.7 165.5 31.3 164.7 31.3 C 164 31.3 163.3 31.7 162.8 32.4 C 162.2 33.1 161.9 34.1 161.9 35.4 Z M 171.4 40.6 L 171.4 30.2 L 173 30.2 C 173 30.2 172.99 31.76 173 31.8 C 173.4 31 173.8 30.5 174.1 30.3 C 174.4 30.1 174.8 30 175.2 30 C 175.8 30 176.4 30.1 177 30.5 C 177 30.5 176.4 32.2 176.4 32.2 C 176 31.9 175.6 31.8 175.1 31.8 C 174.8 31.8 174.4 31.9 174.1 32.1 C 173.8 32.3 173.6 32.7 173.5 33.1 C 173.3 33.7 173.2 34.4 173.2 35.1 C 173.16 35.13 173.2 40.6 173.2 40.6 L 171.4 40.6 Z M 185.2 37.2 C 185.2 37.2 187 37.4 187 37.4 C 186.7 38.5 186.2 39.3 185.4 39.9 C 184.6 40.5 183.6 40.8 182.4 40.8 C 180.9 40.8 179.7 40.3 178.8 39.4 C 177.9 38.5 177.5 37.1 177.5 35.5 C 177.5 33.7 177.9 32.4 178.8 31.4 C 179.7 30.4 180.9 30 182.3 30 C 183.7 30 184.9 30.4 185.7 31.4 C 186.6 32.3 187.1 33.6 187.1 35.4 C 187.1 35.5 187.1 35.6 187.1 35.8 C 187.1 35.8 179.3 35.8 179.3 35.8 C 179.4 37 179.7 37.8 180.3 38.4 C 180.9 39 181.6 39.3 182.5 39.3 C 183.1 39.3 183.6 39.2 184.1 38.8 C 184.6 38.5 184.9 38 185.2 37.2 Z M 179.4 34.4 C 179.4 34.4 185.2 34.4 185.2 34.4 C 185.1 33.5 184.9 32.9 184.5 32.4 C 184 31.7 183.3 31.4 182.4 31.4 C 181.6 31.4 180.9 31.7 180.3 32.2 C 179.8 32.8 179.5 33.5 179.4 34.4 Z M 188.5 37.5 C 188.5 37.5 190.2 37.2 190.2 37.2 C 190.3 37.9 190.6 38.4 191.1 38.8 C 191.5 39.2 192.1 39.3 192.9 39.3 C 193.7 39.3 194.3 39.2 194.7 38.9 C 195.1 38.5 195.3 38.1 195.3 37.7 C 195.3 37.3 195.1 37 194.8 36.8 C 194.6 36.6 194 36.4 193 36.2 C 191.7 35.8 190.8 35.6 190.3 35.3 C 189.8 35.1 189.4 34.8 189.2 34.3 C 188.9 33.9 188.8 33.5 188.8 32.9 C 188.8 32.5 188.9 32.1 189.1 31.7 C 189.3 31.3 189.6 30.9 190 30.7 C 190.3 30.5 190.6 30.3 191.1 30.2 C 191.6 30 192.1 30 192.6 30 C 193.4 30 194.1 30.1 194.8 30.3 C 195.4 30.5 195.8 30.9 196.1 31.3 C 196.4 31.7 196.6 32.2 196.7 32.9 C 196.7 32.9 195 33.1 195 33.1 C 194.9 32.6 194.7 32.1 194.3 31.8 C 194 31.6 193.4 31.4 192.7 31.4 C 191.9 31.4 191.4 31.5 191 31.8 C 190.7 32.1 190.5 32.4 190.5 32.7 C 190.5 33 190.6 33.2 190.7 33.4 C 190.9 33.5 191.1 33.7 191.4 33.8 C 191.6 33.9 192.1 34 192.9 34.3 C 194.2 34.6 195.1 34.9 195.5 35.1 C 196 35.3 196.4 35.6 196.7 36 C 197 36.4 197.1 36.9 197.1 37.5 C 197.1 38.1 196.9 38.7 196.6 39.2 C 196.3 39.7 195.8 40.1 195.1 40.4 C 194.5 40.7 193.8 40.8 192.9 40.8 C 191.6 40.8 190.6 40.5 189.9 40 C 189.2 39.4 188.7 38.6 188.5 37.5 Z M 198.5 37.5 C 198.5 37.5 200.2 37.2 200.2 37.2 C 200.3 37.9 200.6 38.4 201.1 38.8 C 201.5 39.2 202.1 39.3 202.9 39.3 C 203.7 39.3 204.3 39.2 204.7 38.9 C 205.1 38.5 205.3 38.1 205.3 37.7 C 205.3 37.3 205.1 37 204.8 36.8 C 204.6 36.6 204 36.4 203 36.2 C 201.7 35.8 200.8 35.6 200.3 35.3 C 199.8 35.1 199.4 34.8 199.2 34.3 C 198.9 33.9 198.8 33.5 198.8 32.9 C 198.8 32.5 198.9 32.1 199.1 31.7 C 199.3 31.3 199.6 30.9 200 30.7 C 200.3 30.5 200.6 30.3 201.1 30.2 C 201.6 30 202.1 30 202.6 30 C 203.4 30 204.1 30.1 204.8 30.3 C 205.4 30.5 205.8 30.9 206.1 31.3 C 206.4 31.7 206.6 32.2 206.7 32.9 C 206.7 32.9 205 33.1 205 33.1 C 204.9 32.6 204.7 32.1 204.3 31.8 C 204 31.6 203.4 31.4 202.7 31.4 C 201.9 31.4 201.4 31.5 201 31.8 C 200.7 32.1 200.5 32.4 200.5 32.7 C 200.5 33 200.6 33.2 200.7 33.4 C 200.9 33.5 201.1 33.7 201.4 33.8 C 201.6 33.9 202.1 34 202.9 34.3 C 204.2 34.6 205.1 34.9 205.5 35.1 C 206 35.3 206.4 35.6 206.7 36 C 207 36.4 207.1 36.9 207.1 37.5 C 207.1 38.1 206.9 38.7 206.6 39.2 C 206.3 39.7 205.8 40.1 205.1 40.4 C 204.5 40.7 203.8 40.8 202.9 40.8 C 201.6 40.8 200.6 40.5 199.9 40 C 199.2 39.4 198.7 38.6 198.5 37.5 Z M 209.2 28.3 L 209.2 26.2 L 211 26.2 L 211 28.3 L 209.2 28.3 Z M 209.2 40.6 L 209.2 30.2 L 211 30.2 L 211 40.6 L 209.2 40.6 Z M 216.5 40.6 L 212.6 30.2 L 214.4 30.2 C 214.4 30.2 216.67 36.4 216.7 36.4 C 216.9 37.1 217.1 37.8 217.3 38.5 C 217.5 37.9 217.7 37.3 218 36.5 C 217.99 36.52 220.3 30.2 220.3 30.2 L 222.1 30.2 L 218.2 40.6 L 216.5 40.6 Z M 230.8 37.2 C 230.8 37.2 232.6 37.4 232.6 37.4 C 232.3 38.5 231.8 39.3 231 39.9 C 230.2 40.5 229.2 40.8 228 40.8 C 226.5 40.8 225.3 40.3 224.4 39.4 C 223.5 38.5 223.1 37.1 223.1 35.5 C 223.1 33.7 223.5 32.4 224.4 31.4 C 225.3 30.4 226.5 30 227.9 30 C 229.3 30 230.4 30.4 231.3 31.4 C 232.2 32.3 232.6 33.6 232.6 35.4 C 232.6 35.5 232.6 35.6 232.6 35.8 C 232.6 35.8 224.9 35.8 224.9 35.8 C 224.9 37 225.3 37.8 225.8 38.4 C 226.4 39 227.2 39.3 228 39.3 C 228.7 39.3 229.2 39.2 229.7 38.8 C 230.1 38.5 230.5 38 230.8 37.2 Z M 225 34.4 C 225 34.4 230.8 34.4 230.8 34.4 C 230.7 33.5 230.5 32.9 230.1 32.4 C 229.5 31.7 228.8 31.4 227.9 31.4 C 227.1 31.4 226.4 31.7 225.9 32.2 C 225.3 32.8 225 33.5 225 34.4 Z M 240.3 40.6 L 240.3 30.2 L 241.9 30.2 C 241.9 30.2 241.89 31.76 241.9 31.8 C 242.3 31 242.7 30.5 243 30.3 C 243.4 30.1 243.7 30 244.1 30 C 244.7 30 245.3 30.1 245.9 30.5 C 245.9 30.5 245.3 32.2 245.3 32.2 C 244.9 31.9 244.5 31.8 244.1 31.8 C 243.7 31.8 243.3 31.9 243 32.1 C 242.7 32.3 242.5 32.7 242.4 33.1 C 242.2 33.7 242.1 34.4 242.1 35.1 C 242.07 35.13 242.1 40.6 242.1 40.6 L 240.3 40.6 Z M 246.3 35.4 C 246.3 33.5 246.9 32 247.9 31.1 C 248.8 30.3 249.9 30 251.2 30 C 252.6 30 253.8 30.4 254.7 31.4 C 255.6 32.3 256.1 33.6 256.1 35.2 C 256.1 36.6 255.9 37.6 255.5 38.4 C 255.1 39.1 254.5 39.7 253.7 40.2 C 252.9 40.6 252.1 40.8 251.2 40.8 C 249.7 40.8 248.6 40.3 247.7 39.4 C 246.8 38.5 246.3 37.1 246.3 35.4 Z M 248.1 35.4 C 248.1 36.7 248.4 37.7 249 38.4 C 249.6 39 250.3 39.3 251.2 39.3 C 252.1 39.3 252.8 39 253.4 38.4 C 254 37.7 254.2 36.7 254.2 35.3 C 254.2 34 254 33.1 253.4 32.4 C 252.8 31.7 252.1 31.4 251.2 31.4 C 250.3 31.4 249.6 31.7 249 32.4 C 248.4 33.1 248.1 34 248.1 35.4 Z M 257.4 37.5 C 257.4 37.5 259.2 37.2 259.2 37.2 C 259.2 37.9 259.5 38.4 260 38.8 C 260.4 39.2 261 39.3 261.8 39.3 C 262.6 39.3 263.2 39.2 263.6 38.9 C 264 38.5 264.2 38.1 264.2 37.7 C 264.2 37.3 264 37 263.7 36.8 C 263.5 36.6 262.9 36.4 261.9 36.2 C 260.6 35.8 259.7 35.6 259.2 35.3 C 258.7 35.1 258.3 34.8 258.1 34.3 C 257.8 33.9 257.7 33.5 257.7 32.9 C 257.7 32.5 257.8 32.1 258 31.7 C 258.2 31.3 258.5 30.9 258.9 30.7 C 259.2 30.5 259.5 30.3 260 30.2 C 260.5 30 261 30 261.5 30 C 262.3 30 263.1 30.1 263.7 30.3 C 264.3 30.5 264.7 30.9 265 31.3 C 265.3 31.7 265.5 32.2 265.6 32.9 C 265.6 32.9 263.9 33.1 263.9 33.1 C 263.8 32.6 263.6 32.1 263.2 31.8 C 262.9 31.6 262.3 31.4 261.7 31.4 C 260.8 31.4 260.3 31.5 259.9 31.8 C 259.6 32.1 259.4 32.4 259.4 32.7 C 259.4 33 259.5 33.2 259.6 33.4 C 259.8 33.5 260 33.7 260.3 33.8 C 260.5 33.9 261 34 261.8 34.3 C 263.1 34.6 264 34.9 264.4 35.1 C 264.9 35.3 265.3 35.6 265.6 36 C 265.9 36.4 266 36.9 266 37.5 C 266 38.1 265.9 38.7 265.5 39.2 C 265.2 39.7 264.7 40.1 264 40.4 C 263.4 40.7 262.7 40.8 261.8 40.8 C 260.5 40.8 259.5 40.5 258.8 40 C 258.1 39.4 257.6 38.6 257.4 37.5 Z M 271.2 39.1 C 271.4 39.1 271.6 39 272 39 C 272 39 272.2 40.5 272.2 40.5 C 271.7 40.6 271.3 40.7 270.9 40.7 C 270.2 40.7 269.7 40.6 269.4 40.4 C 269 40.2 268.8 39.9 268.7 39.6 C 268.5 39.3 268.4 38.6 268.4 37.5 C 268.44 37.52 268.4 31.6 268.4 31.6 L 267.1 31.6 L 267.1 30.2 L 268.4 30.2 L 268.4 27.6 L 270.2 26.6 L 270.2 30.2 L 272 30.2 L 272 31.6 L 270.2 31.6 C 270.2 31.6 270.19 37.62 270.2 37.6 C 270.2 38.1 270.2 38.4 270.3 38.6 C 270.3 38.7 270.4 38.8 270.6 38.9 C 270.7 39 270.9 39.1 271.2 39.1 C 271.2 39.1 271.2 39.1 271.2 39.1 Z M 280.8 37.2 C 280.8 37.2 282.6 37.4 282.6 37.4 C 282.3 38.5 281.8 39.3 281 39.9 C 280.2 40.5 279.2 40.8 278 40.8 C 276.5 40.8 275.3 40.3 274.4 39.4 C 273.5 38.5 273.1 37.1 273.1 35.5 C 273.1 33.7 273.5 32.4 274.4 31.4 C 275.3 30.4 276.5 30 277.9 30 C 279.3 30 280.4 30.4 281.3 31.4 C 282.2 32.3 282.6 33.6 282.6 35.4 C 282.6 35.5 282.6 35.6 282.6 35.8 C 282.6 35.8 274.9 35.8 274.9 35.8 C 275 37 275.3 37.8 275.9 38.4 C 276.4 39 277.2 39.3 278 39.3 C 278.7 39.3 279.2 39.2 279.7 38.8 C 280.1 38.5 280.5 38 280.8 37.2 Z M 275 34.4 C 275 34.4 280.8 34.4 280.8 34.4 C 280.7 33.5 280.5 32.9 280.1 32.4 C 279.6 31.7 278.8 31.4 277.9 31.4 C 277.1 31.4 276.5 31.7 275.9 32.2 C 275.4 32.8 275.1 33.5 275 34.4 Z M 284.8 40.6 L 284.8 30.2 L 286.4 30.2 C 286.4 30.2 286.36 31.76 286.4 31.8 C 286.8 31 287.1 30.5 287.5 30.3 C 287.8 30.1 288.2 30 288.6 30 C 289.2 30 289.8 30.1 290.4 30.5 C 290.4 30.5 289.8 32.2 289.8 32.2 C 289.4 31.9 288.9 31.8 288.5 31.8 C 288.1 31.8 287.8 31.9 287.5 32.1 C 287.2 32.3 287 32.7 286.8 33.1 C 286.6 33.7 286.5 34.4 286.5 35.1 C 286.53 35.13 286.5 40.6 286.5 40.6 L 284.8 40.6 Z " stroke="none" fill="#5d7e95"/>
  </g>
  <g id="Polygon58248">
    <path d="M 5.2 14.6 L 5.2 1.9 L 0.5 1.9 L 0.5 0.2 L 11.8 0.2 L 11.8 1.9 L 7.1 1.9 L 7.1 14.6 L 5.2 14.6 Z M 13.5 14.6 L 13.5 0.2 L 15.3 0.2 C 15.3 0.2 15.29 5.38 15.3 5.4 C 16.1 4.4 17.1 4 18.4 4 C 19.2 4 19.8 4.1 20.4 4.4 C 21 4.7 21.4 5.1 21.6 5.7 C 21.9 6.2 22 7 22 8 C 21.98 7.99 22 14.6 22 14.6 L 20.2 14.6 C 20.2 14.6 20.22 7.99 20.2 8 C 20.2 7.1 20 6.5 19.7 6.1 C 19.3 5.7 18.7 5.5 18 5.5 C 17.5 5.5 17 5.6 16.6 5.9 C 16.1 6.1 15.8 6.5 15.6 7 C 15.4 7.4 15.3 8.1 15.3 8.9 C 15.29 8.89 15.3 14.6 15.3 14.6 L 13.5 14.6 Z M 31.8 11.2 C 31.8 11.2 33.6 11.4 33.6 11.4 C 33.3 12.5 32.8 13.3 32 13.9 C 31.2 14.5 30.2 14.8 29 14.8 C 27.5 14.8 26.3 14.3 25.4 13.4 C 24.5 12.5 24.1 11.1 24.1 9.5 C 24.1 7.7 24.5 6.4 25.4 5.4 C 26.3 4.4 27.5 4 28.9 4 C 30.3 4 31.4 4.4 32.3 5.4 C 33.2 6.3 33.6 7.6 33.6 9.4 C 33.6 9.5 33.6 9.6 33.6 9.8 C 33.6 9.8 25.9 9.8 25.9 9.8 C 26 11 26.3 11.8 26.9 12.4 C 27.4 13 28.2 13.3 29 13.3 C 29.7 13.3 30.2 13.2 30.7 12.8 C 31.1 12.5 31.5 12 31.8 11.2 Z M 26 8.4 C 26 8.4 31.8 8.4 31.8 8.4 C 31.7 7.5 31.5 6.9 31.1 6.4 C 30.6 5.7 29.8 5.4 28.9 5.4 C 28.1 5.4 27.4 5.7 26.9 6.2 C 26.3 6.8 26 7.5 26 8.4 Z M 41.7 14.6 L 41.7 5.5 L 40.2 5.5 L 40.2 4.2 L 41.7 4.2 C 41.7 4.2 41.75 3.18 41.7 3.2 C 41.7 2.2 42 1.4 42.4 0.8 C 42.9 0.3 43.6 0 44.5 0 C 45.2 0 45.8 0.1 46.3 0.2 C 46.3 0.2 46 1.7 46 1.7 C 45.7 1.7 45.4 1.6 45.1 1.6 C 44.5 1.6 44.1 1.7 43.8 2 C 43.6 2.2 43.5 2.7 43.5 3.5 C 43.5 3.52 43.5 4.2 43.5 4.2 L 45.5 4.2 L 45.5 5.5 L 43.5 5.5 L 43.5 14.6 L 41.7 14.6 Z M 46.8 2.3 L 46.8 0.2 L 48.6 0.2 L 48.6 2.3 L 46.8 2.3 Z M 46.8 14.6 L 46.8 4.2 L 48.6 4.2 L 48.6 14.6 L 46.8 14.6 Z M 51.3 14.6 L 51.3 4.2 L 52.8 4.2 C 52.8 4.2 52.84 5.76 52.8 5.8 C 53.2 5 53.6 4.5 54 4.3 C 54.3 4.1 54.7 4 55.1 4 C 55.7 4 56.3 4.1 56.9 4.5 C 56.9 4.5 56.3 6.2 56.3 6.2 C 55.9 5.9 55.4 5.8 55 5.8 C 54.6 5.8 54.3 5.9 54 6.1 C 53.7 6.3 53.4 6.7 53.3 7.1 C 53.1 7.7 53 8.4 53 9.1 C 53.02 9.13 53 14.6 53 14.6 L 51.3 14.6 Z M 57.9 14.6 L 57.9 4.2 L 59.5 4.2 C 59.5 4.2 59.51 5.64 59.5 5.6 C 59.8 5.1 60.3 4.7 60.8 4.4 C 61.3 4.1 62 4 62.7 4 C 63.4 4 64.1 4.1 64.5 4.4 C 65 4.8 65.4 5.2 65.6 5.8 C 66.4 4.6 67.5 4 68.8 4 C 69.8 4 70.6 4.2 71.2 4.8 C 71.7 5.4 72 6.3 72 7.4 C 71.99 7.44 72 14.6 72 14.6 L 70.2 14.6 C 70.2 14.6 70.24 8.03 70.2 8 C 70.2 7.3 70.2 6.8 70.1 6.5 C 70 6.2 69.8 6 69.5 5.8 C 69.2 5.6 68.8 5.5 68.4 5.5 C 67.7 5.5 67.1 5.7 66.6 6.2 C 66.1 6.7 65.9 7.5 65.9 8.5 C 65.86 8.54 65.9 14.6 65.9 14.6 L 64.1 14.6 C 64.1 14.6 64.1 7.82 64.1 7.8 C 64.1 7 64 6.5 63.7 6.1 C 63.4 5.7 62.9 5.5 62.3 5.5 C 61.8 5.5 61.3 5.6 60.9 5.9 C 60.5 6.1 60.2 6.5 60 7 C 59.8 7.5 59.7 8.2 59.7 9.2 C 59.7 9.18 59.7 14.6 59.7 14.6 L 57.9 14.6 Z M 80.1 2.3 L 80.1 0.2 L 81.9 0.2 L 81.9 2.3 L 80.1 2.3 Z M 80.1 14.6 L 80.1 4.2 L 81.9 4.2 L 81.9 14.6 L 80.1 14.6 Z M 83.8 11.5 C 83.8 11.5 85.6 11.2 85.6 11.2 C 85.7 11.9 85.9 12.4 86.4 12.8 C 86.8 13.2 87.5 13.3 88.3 13.3 C 89.1 13.3 89.7 13.2 90.1 12.9 C 90.4 12.5 90.6 12.1 90.6 11.7 C 90.6 11.3 90.5 11 90.1 10.8 C 89.9 10.6 89.3 10.4 88.3 10.2 C 87 9.8 86.1 9.6 85.6 9.3 C 85.1 9.1 84.8 8.8 84.5 8.3 C 84.3 7.9 84.1 7.5 84.1 6.9 C 84.1 6.5 84.2 6.1 84.4 5.7 C 84.7 5.3 84.9 4.9 85.3 4.7 C 85.6 4.5 86 4.3 86.4 4.2 C 86.9 4 87.4 4 87.9 4 C 88.8 4 89.5 4.1 90.1 4.3 C 90.7 4.5 91.2 4.9 91.5 5.3 C 91.7 5.7 91.9 6.2 92.1 6.9 C 92.1 6.9 90.3 7.1 90.3 7.1 C 90.3 6.6 90 6.1 89.7 5.8 C 89.3 5.6 88.8 5.4 88.1 5.4 C 87.3 5.4 86.7 5.5 86.3 5.8 C 86 6.1 85.8 6.4 85.8 6.7 C 85.8 7 85.9 7.2 86 7.4 C 86.2 7.5 86.4 7.7 86.7 7.8 C 86.9 7.9 87.4 8 88.3 8.3 C 89.5 8.6 90.4 8.9 90.9 9.1 C 91.4 9.3 91.7 9.6 92 10 C 92.3 10.4 92.4 10.9 92.4 11.5 C 92.4 12.1 92.3 12.7 91.9 13.2 C 91.6 13.7 91.1 14.1 90.5 14.4 C 89.8 14.7 89.1 14.8 88.3 14.8 C 86.9 14.8 85.9 14.5 85.2 14 C 84.5 13.4 84 12.6 83.8 11.5 Z M 100 14.6 L 100 4.2 L 101.6 4.2 C 101.6 4.2 101.6 5.76 101.6 5.8 C 102 5 102.4 4.5 102.7 4.3 C 103.1 4.1 103.4 4 103.8 4 C 104.4 4 105 4.1 105.6 4.5 C 105.6 4.5 105 6.2 105 6.2 C 104.6 5.9 104.2 5.8 103.8 5.8 C 103.4 5.8 103 5.9 102.7 6.1 C 102.4 6.3 102.2 6.7 102.1 7.1 C 101.9 7.7 101.8 8.4 101.8 9.1 C 101.77 9.13 101.8 14.6 101.8 14.6 L 100 14.6 Z M 113.8 11.2 C 113.8 11.2 115.6 11.4 115.6 11.4 C 115.3 12.5 114.8 13.3 114 13.9 C 113.2 14.5 112.3 14.8 111.1 14.8 C 109.5 14.8 108.3 14.3 107.4 13.4 C 106.6 12.5 106.1 11.1 106.1 9.5 C 106.1 7.7 106.6 6.4 107.5 5.4 C 108.4 4.4 109.5 4 111 4 C 112.3 4 113.5 4.4 114.4 5.4 C 115.2 6.3 115.7 7.6 115.7 9.4 C 115.7 9.5 115.7 9.6 115.7 9.8 C 115.7 9.8 107.9 9.8 107.9 9.8 C 108 11 108.3 11.8 108.9 12.4 C 109.5 13 110.2 13.3 111.1 13.3 C 111.7 13.3 112.3 13.2 112.7 12.8 C 113.2 12.5 113.5 12 113.8 11.2 Z M 108 8.4 C 108 8.4 113.8 8.4 113.8 8.4 C 113.7 7.5 113.5 6.9 113.1 6.4 C 112.6 5.7 111.9 5.4 111 5.4 C 110.2 5.4 109.5 5.7 108.9 6.2 C 108.4 6.8 108.1 7.5 108 8.4 Z M 117.8 14.6 L 117.8 4.2 L 119.4 4.2 C 119.4 4.2 119.4 5.66 119.4 5.7 C 120.2 4.5 121.3 4 122.7 4 C 123.3 4 123.9 4.1 124.4 4.3 C 124.9 4.5 125.3 4.8 125.6 5.2 C 125.9 5.5 126 6 126.1 6.5 C 126.2 6.8 126.2 7.4 126.2 8.2 C 126.25 8.18 126.2 14.6 126.2 14.6 L 124.5 14.6 C 124.5 14.6 124.49 8.25 124.5 8.3 C 124.5 7.5 124.4 7 124.3 6.6 C 124.1 6.3 123.9 6 123.6 5.8 C 123.2 5.6 122.8 5.5 122.3 5.5 C 121.6 5.5 120.9 5.7 120.4 6.2 C 119.8 6.7 119.6 7.6 119.6 8.9 C 119.58 8.9 119.6 14.6 119.6 14.6 L 117.8 14.6 Z M 128.3 9.4 C 128.3 7.5 128.8 6 129.9 5.1 C 130.8 4.3 131.9 4 133.1 4 C 134.6 4 135.7 4.4 136.6 5.4 C 137.6 6.3 138 7.6 138 9.2 C 138 10.6 137.8 11.6 137.4 12.4 C 137 13.1 136.4 13.7 135.7 14.2 C 134.9 14.6 134.1 14.8 133.1 14.8 C 131.7 14.8 130.5 14.3 129.6 13.4 C 128.7 12.5 128.3 11.1 128.3 9.4 Z M 130.1 9.4 C 130.1 10.7 130.4 11.7 131 12.4 C 131.5 13 132.3 13.3 133.1 13.3 C 134 13.3 134.7 13 135.3 12.4 C 135.9 11.7 136.2 10.7 136.2 9.3 C 136.2 8 135.9 7.1 135.3 6.4 C 134.7 5.7 134 5.4 133.1 5.4 C 132.3 5.4 131.5 5.7 131 6.4 C 130.4 7.1 130.1 8 130.1 9.4 Z M 142 14.6 L 138.8 4.2 L 140.6 4.2 L 142.3 10.2 C 142.3 10.2 142.89 12.4 142.9 12.4 C 142.9 12.3 143.1 11.6 143.4 10.3 C 143.42 10.26 145.1 4.2 145.1 4.2 L 146.9 4.2 L 148.4 10.2 L 149 12.2 L 149.5 10.2 L 151.3 4.2 L 153 4.2 L 149.8 14.6 L 148 14.6 L 146.3 8.3 L 145.9 6.6 L 143.8 14.6 L 142 14.6 Z M 154.5 14.6 L 154.5 4.2 L 156.1 4.2 C 156.1 4.2 156.09 5.66 156.1 5.7 C 156.9 4.5 158 4 159.4 4 C 160 4 160.6 4.1 161.1 4.3 C 161.6 4.5 162 4.8 162.3 5.2 C 162.6 5.5 162.7 6 162.8 6.5 C 162.9 6.8 162.9 7.4 162.9 8.2 C 162.94 8.18 162.9 14.6 162.9 14.6 L 161.2 14.6 C 161.2 14.6 161.18 8.25 161.2 8.3 C 161.2 7.5 161.1 7 161 6.6 C 160.8 6.3 160.6 6 160.2 5.8 C 159.9 5.6 159.5 5.5 159 5.5 C 158.3 5.5 157.6 5.7 157.1 6.2 C 156.5 6.7 156.3 7.6 156.3 8.9 C 156.27 8.9 156.3 14.6 156.3 14.6 L 154.5 14.6 Z M 172.7 11.2 C 172.7 11.2 174.5 11.4 174.5 11.4 C 174.3 12.5 173.7 13.3 173 13.9 C 172.2 14.5 171.2 14.8 170 14.8 C 168.5 14.8 167.3 14.3 166.4 13.4 C 165.5 12.5 165 11.1 165 9.5 C 165 7.7 165.5 6.4 166.4 5.4 C 167.3 4.4 168.5 4 169.9 4 C 171.3 4 172.4 4.4 173.3 5.4 C 174.2 6.3 174.6 7.6 174.6 9.4 C 174.6 9.5 174.6 9.6 174.6 9.8 C 174.6 9.8 166.9 9.8 166.9 9.8 C 166.9 11 167.2 11.8 167.8 12.4 C 168.4 13 169.1 13.3 170 13.3 C 170.6 13.3 171.2 13.2 171.6 12.8 C 172.1 12.5 172.5 12 172.7 11.2 Z M 167 8.4 C 167 8.4 172.7 8.4 172.7 8.4 C 172.7 7.5 172.4 6.9 172.1 6.4 C 171.5 5.7 170.8 5.4 169.9 5.4 C 169.1 5.4 168.4 5.7 167.9 6.2 C 167.3 6.8 167 7.5 167 8.4 Z M 183.5 14.6 C 183.5 14.6 183.48 13.25 183.5 13.3 C 182.8 14.3 181.9 14.8 180.6 14.8 C 179.8 14.8 179 14.6 178.3 14.1 C 177.6 13.7 177.1 13 176.7 12.2 C 176.3 11.4 176.1 10.4 176.1 9.4 C 176.1 8.3 176.3 7.4 176.6 6.6 C 177 5.7 177.5 5.1 178.2 4.6 C 178.9 4.2 179.7 4 180.5 4 C 181.1 4 181.7 4.1 182.2 4.4 C 182.7 4.6 183.1 5 183.4 5.4 C 183.36 5.38 183.4 0.2 183.4 0.2 L 185.1 0.2 L 185.1 14.6 L 183.5 14.6 Z M 177.9 9.4 C 177.9 10.7 178.2 11.7 178.8 12.4 C 179.3 13 180 13.3 180.7 13.3 C 181.5 13.3 182.2 13 182.7 12.4 C 183.2 11.8 183.5 10.8 183.5 9.5 C 183.5 8.1 183.2 7.1 182.7 6.4 C 182.1 5.7 181.5 5.4 180.7 5.4 C 179.9 5.4 179.2 5.7 178.7 6.4 C 178.2 7 177.9 8 177.9 9.4 Z M 193.4 2.3 L 193.4 0.2 L 195.1 0.2 L 195.1 2.3 L 193.4 2.3 Z M 193.4 14.6 L 193.4 4.2 L 195.1 4.2 L 195.1 14.6 L 193.4 14.6 Z M 197.8 14.6 L 197.8 4.2 L 199.4 4.2 C 199.4 4.2 199.4 5.66 199.4 5.7 C 200.2 4.5 201.3 4 202.7 4 C 203.3 4 203.9 4.1 204.4 4.3 C 204.9 4.5 205.3 4.8 205.6 5.2 C 205.9 5.5 206 6 206.1 6.5 C 206.2 6.8 206.2 7.4 206.2 8.2 C 206.24 8.18 206.2 14.6 206.2 14.6 L 204.5 14.6 C 204.5 14.6 204.49 8.25 204.5 8.3 C 204.5 7.5 204.4 7 204.3 6.6 C 204.1 6.3 203.9 6 203.6 5.8 C 203.2 5.6 202.8 5.5 202.3 5.5 C 201.6 5.5 200.9 5.7 200.4 6.2 C 199.8 6.7 199.6 7.6 199.6 8.9 C 199.57 8.9 199.6 14.6 199.6 14.6 L 197.8 14.6 Z M 217.5 13.1 C 217.7 13.1 218 13 218.3 13 C 218.3 13 218.5 14.5 218.5 14.5 C 218 14.6 217.6 14.7 217.2 14.7 C 216.6 14.7 216.1 14.6 215.7 14.4 C 215.4 14.2 215.1 13.9 215 13.6 C 214.8 13.3 214.8 12.6 214.8 11.5 C 214.76 11.52 214.8 5.6 214.8 5.6 L 213.5 5.6 L 213.5 4.2 L 214.8 4.2 L 214.8 1.6 L 216.5 0.6 L 216.5 4.2 L 218.3 4.2 L 218.3 5.6 L 216.5 5.6 C 216.5 5.6 216.51 11.62 216.5 11.6 C 216.5 12.1 216.5 12.4 216.6 12.6 C 216.7 12.7 216.8 12.8 216.9 12.9 C 217 13 217.2 13.1 217.5 13.1 C 217.5 13.1 217.5 13.1 217.5 13.1 Z M 220 14.6 L 220 0.2 L 221.8 0.2 C 221.8 0.2 221.75 5.38 221.8 5.4 C 222.6 4.4 223.6 4 224.9 4 C 225.6 4 226.3 4.1 226.9 4.4 C 227.4 4.7 227.8 5.1 228.1 5.7 C 228.3 6.2 228.4 7 228.4 8 C 228.44 7.99 228.4 14.6 228.4 14.6 L 226.7 14.6 C 226.7 14.6 226.68 7.99 226.7 8 C 226.7 7.1 226.5 6.5 226.1 6.1 C 225.7 5.7 225.2 5.5 224.5 5.5 C 224 5.5 223.5 5.6 223 5.9 C 222.6 6.1 222.2 6.5 222 7 C 221.8 7.4 221.8 8.1 221.8 8.9 C 221.75 8.89 221.8 14.6 221.8 14.6 L 220 14.6 Z M 238.2 11.2 C 238.2 11.2 240 11.4 240 11.4 C 239.7 12.5 239.2 13.3 238.4 13.9 C 237.7 14.5 236.7 14.8 235.5 14.8 C 234 14.8 232.8 14.3 231.9 13.4 C 231 12.5 230.5 11.1 230.5 9.5 C 230.5 7.7 231 6.4 231.9 5.4 C 232.8 4.4 233.9 4 235.4 4 C 236.8 4 237.9 4.4 238.8 5.4 C 239.7 6.3 240.1 7.6 240.1 9.4 C 240.1 9.5 240.1 9.6 240.1 9.8 C 240.1 9.8 232.3 9.8 232.3 9.8 C 232.4 11 232.7 11.8 233.3 12.4 C 233.9 13 234.6 13.3 235.5 13.3 C 236.1 13.3 236.7 13.2 237.1 12.8 C 237.6 12.5 237.9 12 238.2 11.2 Z M 232.4 8.4 C 232.4 8.4 238.2 8.4 238.2 8.4 C 238.2 7.5 237.9 6.9 237.6 6.4 C 237 5.7 236.3 5.4 235.4 5.4 C 234.6 5.4 233.9 5.7 233.4 6.2 C 232.8 6.8 232.5 7.5 232.4 8.4 Z M 247.7 14.6 L 247.7 4.2 L 249.3 4.2 C 249.3 4.2 249.31 5.64 249.3 5.6 C 249.6 5.1 250.1 4.7 250.6 4.4 C 251.1 4.1 251.8 4 252.5 4 C 253.2 4 253.9 4.1 254.3 4.4 C 254.8 4.8 255.2 5.2 255.4 5.8 C 256.2 4.6 257.3 4 258.6 4 C 259.6 4 260.4 4.2 261 4.8 C 261.5 5.4 261.8 6.3 261.8 7.4 C 261.79 7.44 261.8 14.6 261.8 14.6 L 260 14.6 C 260 14.6 260.04 8.03 260 8 C 260 7.3 260 6.8 259.9 6.5 C 259.8 6.2 259.5 6 259.2 5.8 C 258.9 5.6 258.6 5.5 258.2 5.5 C 257.5 5.5 256.9 5.7 256.4 6.2 C 255.9 6.7 255.7 7.5 255.7 8.5 C 255.66 8.54 255.7 14.6 255.7 14.6 L 253.9 14.6 C 253.9 14.6 253.9 7.82 253.9 7.8 C 253.9 7 253.8 6.5 253.5 6.1 C 253.2 5.7 252.7 5.5 252.1 5.5 C 251.6 5.5 251.1 5.6 250.7 5.9 C 250.3 6.1 250 6.5 249.8 7 C 249.6 7.5 249.5 8.2 249.5 9.2 C 249.49 9.18 249.5 14.6 249.5 14.6 L 247.7 14.6 Z M 271.5 14.6 C 271.3 14.2 271.2 13.8 271.2 13.3 C 270.5 13.8 269.9 14.2 269.3 14.5 C 268.7 14.7 268 14.8 267.3 14.8 C 266.2 14.8 265.3 14.5 264.7 14 C 264.1 13.4 263.8 12.7 263.8 11.8 C 263.8 11.3 263.9 10.9 264.1 10.4 C 264.4 10 264.7 9.7 265.1 9.4 C 265.4 9.2 265.9 9 266.3 8.8 C 266.7 8.8 267.2 8.7 267.9 8.6 C 269.3 8.4 270.3 8.2 271 8 C 271 7.7 271 7.6 271 7.5 C 271 6.8 270.9 6.3 270.5 6 C 270.1 5.6 269.4 5.4 268.5 5.4 C 267.7 5.4 267.1 5.6 266.7 5.8 C 266.3 6.1 266 6.6 265.8 7.4 C 265.8 7.4 264.1 7.1 264.1 7.1 C 264.3 6.4 264.5 5.8 264.9 5.4 C 265.2 4.9 265.7 4.6 266.4 4.3 C 267.1 4.1 267.9 4 268.8 4 C 269.7 4 270.4 4.1 270.9 4.3 C 271.5 4.5 271.9 4.7 272.2 5.1 C 272.4 5.4 272.6 5.8 272.7 6.3 C 272.8 6.5 272.8 7.1 272.8 7.9 C 272.8 7.9 272.8 10.2 272.8 10.2 C 272.8 11.8 272.8 12.9 272.9 13.3 C 273 13.7 273.1 14.2 273.4 14.6 C 273.35 14.56 271.5 14.6 271.5 14.6 C 271.5 14.6 271.51 14.56 271.5 14.6 Z M 271 9.4 C 270.4 9.6 269.4 9.8 268.1 10 C 267.4 10.1 266.9 10.2 266.6 10.4 C 266.3 10.5 266.1 10.7 265.9 10.9 C 265.8 11.2 265.7 11.5 265.7 11.8 C 265.7 12.2 265.9 12.6 266.2 12.9 C 266.6 13.3 267.1 13.4 267.8 13.4 C 268.4 13.4 269 13.3 269.6 13 C 270.1 12.7 270.5 12.3 270.7 11.8 C 270.9 11.4 271 10.8 271 10 C 271 10 271 9.4 271 9.4 Z M 275.5 14.6 L 275.5 4.2 L 277.1 4.2 C 277.1 4.2 277.08 5.76 277.1 5.8 C 277.5 5 277.9 4.5 278.2 4.3 C 278.5 4.1 278.9 4 279.3 4 C 279.9 4 280.5 4.1 281.1 4.5 C 281.1 4.5 280.5 6.2 280.5 6.2 C 280.1 5.9 279.7 5.8 279.2 5.8 C 278.9 5.8 278.5 5.9 278.2 6.1 C 277.9 6.3 277.7 6.7 277.5 7.1 C 277.4 7.7 277.3 8.4 277.3 9.1 C 277.26 9.13 277.3 14.6 277.3 14.6 L 275.5 14.6 Z M 282.2 14.6 L 282.2 0.2 L 283.9 0.2 L 283.9 8.4 L 288.1 4.2 L 290.4 4.2 L 286.4 8 L 290.8 14.6 L 288.6 14.6 L 285.2 9.3 L 283.9 10.4 L 283.9 14.6 L 282.2 14.6 Z M 299.3 11.2 C 299.3 11.2 301.1 11.4 301.1 11.4 C 300.8 12.5 300.3 13.3 299.5 13.9 C 298.7 14.5 297.7 14.8 296.5 14.8 C 295 14.8 293.8 14.3 292.9 13.4 C 292 12.5 291.6 11.1 291.6 9.5 C 291.6 7.7 292 6.4 292.9 5.4 C 293.8 4.4 295 4 296.4 4 C 297.8 4 299 4.4 299.8 5.4 C 300.7 6.3 301.2 7.6 301.2 9.4 C 301.2 9.5 301.1 9.6 301.1 9.8 C 301.1 9.8 293.4 9.8 293.4 9.8 C 293.5 11 293.8 11.8 294.4 12.4 C 295 13 295.7 13.3 296.5 13.3 C 297.2 13.3 297.7 13.2 298.2 12.8 C 298.6 12.5 299 12 299.3 11.2 Z M 293.5 8.4 C 293.5 8.4 299.3 8.4 299.3 8.4 C 299.2 7.5 299 6.9 298.6 6.4 C 298.1 5.7 297.3 5.4 296.5 5.4 C 295.6 5.4 295 5.7 294.4 6.2 C 293.9 6.8 293.6 7.5 293.5 8.4 Z M 306.4 13.1 C 306.6 13.1 306.8 13 307.1 13 C 307.1 13 307.4 14.5 307.4 14.5 C 306.9 14.6 306.5 14.7 306.1 14.7 C 305.4 14.7 304.9 14.6 304.6 14.4 C 304.2 14.2 304 13.9 303.8 13.6 C 303.7 13.3 303.6 12.6 303.6 11.5 C 303.62 11.52 303.6 5.6 303.6 5.6 L 302.3 5.6 L 302.3 4.2 L 303.6 4.2 L 303.6 1.6 L 305.4 0.6 L 305.4 4.2 L 307.1 4.2 L 307.1 5.6 L 305.4 5.6 C 305.4 5.6 305.37 11.62 305.4 11.6 C 305.4 12.1 305.4 12.4 305.5 12.6 C 305.5 12.7 305.6 12.8 305.8 12.9 C 305.9 13 306.1 13.1 306.4 13.1 C 306.4 13.1 306.4 13.1 306.4 13.1 Z " stroke="none" fill="#5d7e95"/>
  </g>
</svg>