<?xml version="1.0" standalone="no"?><!DOCTYPE svg PUBLIC "-//W3C//DTD SVG 1.1//EN" "http://www.w3.org/Graphics/SVG/1.1/DTD/svg11.dtd"><svg xmlns="http://www.w3.org/2000/svg" version="1.1" width="306px" height="45.7px" viewBox="0 -7 306 45.7" style="top:-7px"><desc>Select Pro Bono Clients</desc><defs/><g id="Polygon66741"><path d="m1.1 12c0 0 2.1-.2 2.1-.2c.1.8.4 1.5.7 2.1c.4.5 1 1 1.8 1.3c.7.4 1.6.5 2.6.5c.9 0 1.6-.1 2.3-.4c.7-.2 1.2-.6 1.5-1c.3-.5.5-1 .5-1.5c0-.5-.2-1-.5-1.4c-.3-.4-.8-.7-1.6-1c-.4-.2-1.4-.5-3-.9c-1.6-.3-2.7-.7-3.3-1c-.8-.5-1.5-1-1.9-1.6c-.4-.7-.6-1.4-.6-2.2c0-.8.3-1.6.8-2.4c.5-.8 1.2-1.3 2.1-1.7c1-.4 2-.6 3.2-.6c1.3 0 2.4.2 3.4.6c.9.4 1.7 1 2.2 1.8c.5.8.8 1.7.8 2.7c0 0-2.1.2-2.1.2c-.2-1.1-.6-1.9-1.2-2.5c-.7-.5-1.7-.8-3-.8c-1.4 0-2.4.3-3 .8c-.7.5-1 1.1-1 1.8c0 .6.2 1.1.7 1.5c.4.4 1.6.8 3.4 1.2c1.9.4 3.1.8 3.8 1.1c1 .5 1.8 1.1 2.2 1.8c.5.7.8 1.5.8 2.4c0 .9-.3 1.8-.8 2.6c-.6.8-1.3 1.4-2.3 1.9c-1 .4-2.1.7-3.3.7c-1.6 0-2.9-.3-3.9-.7c-1.1-.5-1.9-1.1-2.5-2.1c-.6-.9-.9-1.9-.9-3zm25 1.5c0 0 2.2.2 2.2.2c-.4 1.3-1 2.3-1.9 3c-1 .7-2.1 1.1-3.6 1.1c-1.8 0-3.2-.6-4.3-1.7c-1.1-1.1-1.6-2.7-1.6-4.7c0-2.1.5-3.8 1.6-4.9c1.1-1.2 2.5-1.8 4.2-1.8c1.7 0 3 .6 4.1 1.7c1 1.2 1.6 2.8 1.6 4.8c0 .2 0 .3-.1.6c0 0-9.2 0-9.2 0c0 1.4.4 2.4 1.1 3.1c.7.8 1.6 1.1 2.6 1.1c.8 0 1.5-.2 2-.6c.6-.4 1-1 1.3-1.9zm-6.9-3.4c0 0 6.9 0 6.9 0c-.1-1.1-.3-1.9-.8-2.4c-.6-.8-1.5-1.2-2.6-1.2c-.9 0-1.8.3-2.4 1c-.7.6-1 1.5-1.1 2.6zm11.7 7.4l0-17.2l2.1 0l0 17.2l-2.1 0zm13.9-4c0 0 2.2.2 2.2.2c-.4 1.3-1 2.3-1.9 3c-1 .7-2.2 1.1-3.6 1.1c-1.8 0-3.3-.6-4.3-1.7c-1.1-1.1-1.6-2.7-1.6-4.7c0-2.1.5-3.8 1.6-4.9c1.1-1.2 2.5-1.8 4.2-1.8c1.6 0 3 .6 4.1 1.7c1 1.2 1.5 2.8 1.5 4.8c0 .2 0 .3 0 .6c0 0-9.3 0-9.3 0c.1 1.4.5 2.4 1.2 3.1c.7.8 1.6 1.1 2.6 1.1c.8 0 1.4-.2 2-.6c.5-.4 1-1 1.3-1.9zm-6.9-3.4c0 0 6.9 0 6.9 0c-.1-1.1-.3-1.9-.8-2.4c-.7-.8-1.5-1.2-2.6-1.2c-1 0-1.8.3-2.4 1c-.7.6-1.1 1.5-1.1 2.6zm19.8 2.8c0 0 2.1.3 2.1.3c-.2 1.4-.8 2.5-1.7 3.3c-1 .8-2.1 1.3-3.5 1.3c-1.7 0-3-.6-4.1-1.7c-1-1.1-1.5-2.7-1.5-4.8c0-1.3.2-2.5.6-3.5c.5-1 1.2-1.8 2.1-2.3c.9-.5 1.9-.8 2.9-.8c1.4 0 2.5.4 3.4 1.1c.8.7 1.4 1.6 1.6 2.9c0 0-2 .3-2 .3c-.2-.8-.6-1.5-1.1-1.9c-.5-.4-1.1-.6-1.8-.6c-1 0-1.9.4-2.6 1.1c-.6.8-1 2-1 3.6c0 1.7.4 2.9 1 3.7c.6.7 1.5 1.1 2.5 1.1c.8 0 1.5-.2 2.1-.7c.5-.5.9-1.3 1-2.4zm7.6 2.8c.2 0 .5-.1.9-.1c0 0 .3 1.8.3 1.8c-.6.2-1.1.2-1.6.2c-.7 0-1.3-.1-1.7-.3c-.5-.3-.8-.6-.9-1c-.2-.4-.3-1.2-.3-2.5c0 .03 0-7.1 0-7.1l-1.5 0l0-1.7l1.5 0l0-3.1l2.1-1.2l0 4.3l2.1 0l0 1.7l-2.1 0c0 0 0 7.25 0 7.2c0 .6 0 1 .1 1.2c.1.2.2.3.4.4c.1.1.4.2.7.2c0 0 0 0 0 0zm9.9 1.8l0-17.2c0 0 6.5-.01 6.5 0c1.1 0 2 0 2.6.2c.9.1 1.6.4 2.1.8c.6.4 1.1.9 1.4 1.6c.4.7.5 1.5.5 2.4c0 1.4-.4 2.7-1.4 3.7c-.9 1-2.6 1.5-5 1.5c0-.01-4.4 0-4.4 0l0 7l-2.3 0zm2.3-9c0 0 4.44-.04 4.4 0c1.5 0 2.5-.3 3.2-.9c.6-.5.9-1.3.9-2.3c0-.7-.2-1.3-.6-1.8c-.3-.5-.8-.9-1.4-1c-.4-.1-1.1-.2-2.1-.2c-.01.02-4.4 0-4.4 0l0 6.2zm13.4 9l0-12.5l1.9 0c0 0 .04 1.91 0 1.9c.5-.9 1-1.5 1.4-1.7c.4-.3.8-.5 1.3-.5c.7 0 1.5.3 2.2.7c0 0-.7 2-.7 2c-.5-.3-1.1-.5-1.6-.5c-.4 0-.8.2-1.2.4c-.4.3-.6.7-.8 1.2c-.2.7-.4 1.6-.4 2.5c.05-.04 0 6.5 0 6.5l-2.1 0zm7.3-6.2c0-2.4.6-4.1 1.9-5.2c1.1-.9 2.4-1.4 3.9-1.4c1.7 0 3.1.6 4.2 1.7c1.1 1.1 1.6 2.7 1.6 4.7c0 1.6-.2 2.8-.7 3.8c-.5.9-1.2 1.6-2.1 2.1c-.9.5-1.9.8-3 .8c-1.7 0-3.1-.6-4.2-1.7c-1.1-1.1-1.6-2.7-1.6-4.8zm2.1 0c0 1.5.4 2.7 1.1 3.5c.7.8 1.5 1.2 2.6 1.2c1.1 0 1.9-.4 2.6-1.2c.7-.8 1.1-2 1.1-3.6c0-1.6-.4-2.7-1.1-3.5c-.7-.8-1.6-1.2-2.6-1.2c-1.1 0-1.9.4-2.6 1.2c-.7.8-1.1 2-1.1 3.6zm18.8 6.2l0-17.2c0 0 6.49-.01 6.5 0c1.3 0 2.4.2 3.1.5c.8.4 1.5.9 1.9 1.6c.5.7.7 1.5.7 2.3c0 .7-.2 1.4-.6 2.1c-.4.6-1 1.1-1.8 1.5c1 .3 1.8.9 2.4 1.6c.5.7.8 1.6.8 2.6c0 .8-.2 1.5-.5 2.2c-.3.7-.8 1.3-1.3 1.6c-.5.4-1.1.7-1.8.9c-.8.2-1.7.3-2.8.3c0-.03-6.6 0-6.6 0zm2.3-10c0 0 3.73.01 3.7 0c1 0 1.8-.1 2.2-.2c.6-.2 1-.4 1.3-.8c.3-.4.4-.9.4-1.5c0-.6-.1-1.1-.4-1.5c-.2-.5-.6-.8-1.1-.9c-.5-.2-1.4-.3-2.6-.3c-.05.02-3.5 0-3.5 0l0 5.2zm0 7.9c0 0 4.3.05 4.3 0c.7 0 1.2 0 1.5 0c.6-.1 1-.3 1.4-.5c.3-.2.6-.5.8-1c.2-.4.4-.9.4-1.4c0-.6-.2-1.2-.5-1.7c-.4-.5-.8-.8-1.4-1c-.6-.2-1.4-.3-2.5-.3c-.01.04-4 0-4 0l0 5.9zm12.8-4.1c0-2.4.6-4.1 1.9-5.2c1.1-.9 2.4-1.4 3.9-1.4c1.7 0 3.1.6 4.2 1.7c1.1 1.1 1.7 2.7 1.7 4.7c0 1.6-.3 2.8-.8 3.8c-.4.9-1.1 1.6-2.1 2.1c-.9.5-1.9.8-3 .8c-1.7 0-3.1-.6-4.2-1.7c-1.1-1.1-1.6-2.7-1.6-4.8zm2.2 0c0 1.5.3 2.7 1 3.5c.7.8 1.6 1.2 2.6 1.2c1.1 0 1.9-.4 2.6-1.2c.7-.8 1.1-2 1.1-3.6c0-1.6-.4-2.7-1.1-3.5c-.7-.8-1.5-1.2-2.6-1.2c-1 0-1.9.4-2.6 1.2c-.7.8-1 2-1 3.6zm11.9 6.2l0-12.5l1.9 0c0 0 .02 1.8 0 1.8c.9-1.4 2.3-2.1 4-2.1c.7 0 1.4.2 2.1.5c.6.2 1.1.6 1.4 1c.3.4.5 1 .6 1.6c.1.4.1 1 .1 2c.04.02 0 7.7 0 7.7l-2.1 0c0 0 .03-7.6 0-7.6c0-.9-.1-1.5-.2-1.9c-.2-.5-.5-.8-.9-1c-.4-.3-.9-.4-1.5-.4c-.9 0-1.6.3-2.3.8c-.6.6-1 1.7-1 3.3c.03-.02 0 6.8 0 6.8l-2.1 0zm12.6-6.2c0-2.4.6-4.1 1.9-5.2c1.1-.9 2.4-1.4 3.9-1.4c1.7 0 3.1.6 4.2 1.7c1.1 1.1 1.6 2.7 1.6 4.7c0 1.6-.2 2.8-.7 3.8c-.5.9-1.2 1.6-2.1 2.1c-.9.5-1.9.8-3 .8c-1.7 0-3.1-.6-4.2-1.7c-1.1-1.1-1.6-2.7-1.6-4.8zm2.2 0c0 1.5.3 2.7 1 3.5c.7.8 1.6 1.2 2.6 1.2c1.1 0 1.9-.4 2.6-1.2c.7-.8 1.1-2 1.1-3.6c0-1.6-.4-2.7-1.1-3.5c-.7-.8-1.5-1.2-2.6-1.2c-1 0-1.9.4-2.6 1.2c-.7.8-1 2-1 3.6zm31.1.1c0 0 2.3.6 2.3.6c-.5 1.9-1.3 3.3-2.6 4.3c-1.2 1-2.7 1.5-4.5 1.5c-1.9 0-3.4-.4-4.5-1.2c-1.2-.7-2.1-1.8-2.7-3.2c-.6-1.5-.9-3-.9-4.6c0-1.8.3-3.4 1-4.7c.7-1.4 1.7-2.4 2.9-3.1c1.3-.7 2.7-1 4.2-1c1.7 0 3.2.4 4.3 1.3c1.2.9 2 2.1 2.5 3.7c0 0-2.2.5-2.2.5c-.4-1.2-1-2.1-1.8-2.7c-.7-.6-1.7-.9-2.8-.9c-1.4 0-2.5.4-3.3 1c-.9.6-1.6 1.5-1.9 2.5c-.4 1.1-.6 2.2-.6 3.3c0 1.5.3 2.8.7 3.9c.4 1.1 1.1 1.9 2 2.4c.9.6 1.8.8 2.9.8c1.3 0 2.3-.3 3.2-1.1c.9-.7 1.5-1.8 1.8-3.3zm4.8 6.1l0-17.2l2.1 0l0 17.2l-2.1 0zm5.4-14.8l0-2.4l2.1 0l0 2.4l-2.1 0zm0 14.8l0-12.5l2.1 0l0 12.5l-2.1 0zm13.8-4c0 0 2.2.2 2.2.2c-.4 1.3-1 2.3-1.9 3c-1 .7-2.1 1.1-3.6 1.1c-1.8 0-3.3-.6-4.3-1.7c-1.1-1.1-1.6-2.7-1.6-4.7c0-2.1.5-3.8 1.6-4.9c1.1-1.2 2.5-1.8 4.2-1.8c1.7 0 3 .6 4.1 1.7c1 1.2 1.6 2.8 1.6 4.8c0 .2-.1.3-.1.6c0 0-9.2 0-9.2 0c0 1.4.4 2.4 1.1 3.1c.7.8 1.6 1.1 2.6 1.1c.8 0 1.5-.2 2-.6c.5-.4 1-1 1.3-1.9zm-6.9-3.4c0 0 6.9 0 6.9 0c-.1-1.1-.3-1.9-.8-2.4c-.6-.8-1.5-1.2-2.6-1.2c-1 0-1.8.3-2.4 1c-.7.6-1.1 1.5-1.1 2.6zm11.7 7.4l0-12.5l1.9 0c0 0 .03 1.8 0 1.8c.9-1.4 2.3-2.1 4-2.1c.7 0 1.4.2 2.1.5c.6.2 1.1.6 1.4 1c.3.4.5 1 .6 1.6c.1.4.1 1 .1 2c.04.02 0 7.7 0 7.7l-2.1 0c0 0 .04-7.6 0-7.6c0-.9 0-1.5-.2-1.9c-.2-.5-.5-.8-.9-1c-.4-.3-.9-.4-1.5-.4c-.9 0-1.6.3-2.3.8c-.6.6-1 1.7-1 3.3c.04-.02 0 6.8 0 6.8l-2.1 0zm17.1-1.8c.2 0 .5-.1.9-.1c0 0 .3 1.8.3 1.8c-.6.2-1.1.2-1.6.2c-.8 0-1.4-.1-1.8-.3c-.4-.3-.7-.6-.9-1c-.1-.4-.2-1.2-.2-2.5c-.03.03 0-7.1 0-7.1l-1.6 0l0-1.7l1.6 0l0-3.1l2.1-1.2l0 4.3l2.1 0l0 1.7l-2.1 0c0 0-.04 7.25 0 7.2c0 .6 0 1 .1 1.2c0 .2.2.3.3.4c.2.1.4.2.8.2c0 0 0 0 0 0zm2.1-1.9c0 0 2.1-.4 2.1-.4c.1.9.4 1.5 1 2c.5.4 1.3.6 2.2.6c1 0 1.7-.2 2.2-.6c.4-.4.7-.8.7-1.4c0-.4-.2-.8-.6-1.1c-.3-.2-1.1-.4-2.2-.7c-1.6-.4-2.6-.7-3.2-1c-.6-.3-1.1-.7-1.4-1.2c-.3-.5-.4-1.1-.4-1.7c0-.5.1-1 .3-1.5c.3-.5.6-.9 1.1-1.2c.3-.2.7-.4 1.3-.6c.6-.2 1.2-.3 1.8-.3c1 0 1.9.2 2.6.5c.7.2 1.3.6 1.6 1.1c.4.5.6 1.1.8 1.9c0 0-2.1.3-2.1.3c-.1-.6-.4-1.1-.8-1.5c-.5-.3-1.1-.5-1.9-.5c-1 0-1.7.1-2.1.5c-.4.3-.6.7-.6 1.1c0 .3.1.5.3.7c.1.3.4.4.8.6c.2.1.8.2 1.8.5c1.5.4 2.6.8 3.1 1c.6.3 1.1.6 1.4 1.1c.4.5.5 1.1.5 1.8c0 .7-.2 1.4-.6 2c-.4.6-1 1.1-1.8 1.4c-.7.4-1.6.6-2.6.6c-1.6 0-2.8-.4-3.7-1.1c-.8-.6-1.4-1.6-1.6-2.9z" stroke="none" fill="#003a5c"/></g></svg>