<?xml version="1.0" standalone="no"?><!DOCTYPE svg PUBLIC "-//W3C//DTD SVG 1.1//EN" "http://www.w3.org/Graphics/SVG/1.1/DTD/svg11.dtd"><svg xmlns="http://www.w3.org/2000/svg" version="1.1" width="145px" height="40.7px" viewBox="0 0 145 40.7"><desc>Video 00:24</desc><defs/><g id="Polygon7125"><path d="m6 20l-5.9-18l2.5 0c0 0 2.81 8.87 2.8 8.9c.8 2.4 1.4 4.6 1.9 6.7c0 0 .1 0 .1 0c.5-2.1 1.2-4.4 2-6.7c.03 0 3.1-8.9 3.1-8.9l2.5 0l-6.5 18l-2.5 0zm10.4 0l0-12.9l2.3 0l0 12.9l-2.3 0zm2.6-16.5c0 .8-.6 1.4-1.5 1.4c-.8 0-1.4-.6-1.4-1.4c0-.8.6-1.5 1.5-1.5c.8 0 1.4.6 1.4 1.5zm14.7-2.4c0 0 .04 15.56 0 15.6c0 1.1.1 2.4.1 3.3c.05-.01-2 0-2 0l-.1-2.3c0 0-.12.05-.1 0c-.7 1.5-2.3 2.6-4.4 2.6c-3.1 0-5.5-2.7-5.5-6.6c0-4.3 2.7-6.9 5.8-6.9c2 0 3.3 1 3.9 2c-.03-.03 0 0 0 0l0-7.7l2.3 0zm-2.3 11.2c0-.3 0-.7-.1-.9c-.3-1.5-1.6-2.7-3.4-2.7c-2.4 0-3.8 2.1-3.8 4.9c0 2.6 1.3 4.8 3.8 4.8c1.5 0 3-1.1 3.4-2.8c.1-.3.1-.6.1-1c0 0 0-2.3 0-2.3zm7.6 1.7c0 3.1 2 4.4 4.4 4.4c1.7 0 2.7-.3 3.6-.6c0 0 .4 1.7.4 1.7c-.8.3-2.3.8-4.3.8c-4 0-6.4-2.7-6.4-6.5c0-3.9 2.3-7 6.1-7c4.2 0 5.3 3.7 5.3 6.1c0 .5 0 .8-.1 1.1c0 0-9 0-9 0zm6.8-1.7c.1-1.5-.6-3.8-3.2-3.8c-2.4 0-3.4 2.2-3.6 3.8c0 0 6.8 0 6.8 0zm16.9 1.1c0 4.8-3.4 6.9-6.4 6.9c-3.5 0-6.2-2.6-6.2-6.7c0-4.2 2.8-6.8 6.4-6.8c3.7 0 6.2 2.7 6.2 6.6zm-10.2.2c0 2.8 1.6 4.9 3.9 4.9c2.2 0 3.9-2.1 3.9-5c0-2.2-1.1-4.9-3.9-4.9c-2.7 0-3.9 2.5-3.9 5zm19 9.4l0-21.3l4.9 0l0 1.5l-3.1 0l0 18.3l3.1 0l0 1.5l-4.9 0zm18.1-11.9c0 5.9-2.2 9.2-6 9.2c-3.4 0-5.7-3.2-5.7-8.9c0-5.9 2.5-9 6-9c3.6 0 5.7 3.2 5.7 8.7zm-9.4.3c0 4.5 1.4 7.1 3.6 7.1c2.3 0 3.5-2.8 3.5-7.3c0-4.2-1.1-7-3.5-7c-2.1 0-3.6 2.5-3.6 7.2zm23.1-.3c0 5.9-2.2 9.2-6 9.2c-3.4 0-5.7-3.2-5.8-8.9c0-5.9 2.6-9 6.1-9c3.6 0 5.7 3.2 5.7 8.7zm-9.4.3c0 4.5 1.4 7.1 3.5 7.1c2.4 0 3.5-2.8 3.5-7.3c0-4.2-1-7-3.5-7c-2 0-3.5 2.5-3.5 7.2zm11.8-2.2c0-1 .6-1.7 1.5-1.7c1 0 1.6.7 1.6 1.7c0 1-.6 1.7-1.6 1.7c-.9 0-1.5-.7-1.5-1.7zm0 9.4c0-1 .6-1.7 1.5-1.7c1 0 1.6.7 1.6 1.7c0 1-.6 1.7-1.6 1.7c-.9 0-1.5-.7-1.5-1.7zm5.3 1.4l0-1.5c0 0 1.81-1.74 1.8-1.7c4.4-4.2 6.5-6.5 6.5-9.1c0-1.8-.9-3.4-3.5-3.4c-1.5 0-2.8.8-3.6 1.5c0 0-.8-1.7-.8-1.7c1.2-1 2.9-1.7 4.9-1.7c3.7 0 5.3 2.5 5.3 5c0 3.2-2.3 5.8-6 9.3c.03.01-1.3 1.3-1.3 1.3l0 0l7.7 0l0 2l-11 0zm20.9 0l0-4.8l-8.1 0l0-1.5l7.8-11l2.5 0l0 10.7l2.4 0l0 1.8l-2.4 0l0 4.8l-2.2 0zm0-6.6c0 0-.01-5.75 0-5.8c0-.9 0-1.8.1-2.7c0 0-.1 0-.1 0c-.5 1-1 1.8-1.5 2.6c.05-.01-4.2 5.9-4.2 5.9l0 0l5.7 0zm10.6-11.7l0 21.3l-4.9 0l0-1.5l3.1 0l0-18.3l-3.1 0l0-1.5l4.9 0z" stroke="none" fill="#000"/></g></svg>