<?xml version="1.0" standalone="no"?><!DOCTYPE svg PUBLIC "-//W3C//DTD SVG 1.1//EN" "http://www.w3.org/Graphics/SVG/1.1/DTD/svg11.dtd"><svg xmlns="http://www.w3.org/2000/svg" version="1.1" width="138px" height="55.5px" viewBox="0 0 138 55.5"><desc>Tap to plan your visit</desc><defs/><g id="Polygon6292"><path d="m29.7 27.9c0 0 2.28 6.24 2.3 6.2c.2.7.5 1.6.7 2.2c0 0 0 0 0 0c.2-.6.4-1.4.7-2.2c.01 0 2.1-6.2 2.1-6.2l2.1 0c0 0-2.94 7.54-2.9 7.5c-1.4 3.7-2.4 5.5-3.7 6.7c-1 .8-1.9 1.2-2.4 1.2c0 0-.4-1.6-.4-1.6c.4-.1 1.1-.4 1.6-.9c.6-.4 1.2-1.2 1.7-2.2c.1-.2.1-.3.1-.4c0-.1 0-.3-.1-.5c-.03-.04-3.9-9.8-3.9-9.8l2.1 0zm19 5.2c0 3.9-2.7 5.6-5.3 5.6c-2.8 0-5.1-2.1-5.1-5.4c0-3.6 2.4-5.7 5.3-5.7c3.1 0 5.1 2.3 5.1 5.5zm-8.4.1c0 2.3 1.3 4.1 3.2 4.1c1.9 0 3.3-1.7 3.3-4.1c0-1.9-.9-4.1-3.2-4.1c-2.3 0-3.3 2.1-3.3 4.1zm19.8 2.4c0 1.1 0 2.1.1 2.9c-.02 0-1.7 0-1.7 0l-.1-1.7c0 0-.09-.04-.1 0c-.5.8-1.6 1.9-3.5 1.9c-1.7 0-3.7-.9-3.7-4.6c.02-.02 0-6.2 0-6.2l2 0c0 0-.04 5.83 0 5.8c0 2.1.6 3.4 2.3 3.4c1.3 0 2.2-.9 2.6-1.7c.1-.3.2-.7.2-1c-.04-.04 0-6.5 0-6.5l1.9 0c0 0 0 7.67 0 7.7zm3.2-4.4c0-1.3 0-2.4-.1-3.3c.02-.05 1.7 0 1.7 0l.1 2.1c0 0 .07-.04.1 0c.5-1.5 1.6-2.4 2.9-2.4c.2 0 .4.1.6.1c0 0 0 1.8 0 1.8c-.2 0-.4 0-.7 0c-1.4 0-2.3 1-2.6 2.4c0 .3-.1.6-.1.9c.04.02 0 5.7 0 5.7l-1.9 0c0 0 .01-7.33 0-7.3zm12.6-3.3c0 0 2.1 5.91 2.1 5.9c.4 1 .6 1.9.9 2.8c0 0 0 0 0 0c.3-.9.6-1.8.9-2.8c.03.01 2.1-5.9 2.1-5.9l2 0l-4.2 10.6l-1.8 0l-4.1-10.6l2.1 0zm9.8 10.6l0-10.6l2 0l0 10.6l-2 0zm2.2-13.6c0 .6-.5 1.1-1.2 1.1c-.7 0-1.2-.5-1.2-1.1c0-.7.5-1.3 1.2-1.3c.7 0 1.2.6 1.2 1.3zm2.7 11.6c.6.4 1.6.8 2.6.8c1.4 0 2.1-.7 2.1-1.6c0-.9-.6-1.4-2-1.9c-1.9-.7-2.8-1.8-2.8-3c0-1.8 1.4-3.2 3.6-3.2c1.1 0 2.1.3 2.6.7c0 0-.4 1.4-.4 1.4c-.5-.3-1.2-.6-2.2-.6c-1.2 0-1.8.6-1.8 1.4c0 .9.6 1.3 2 1.8c1.9.7 2.8 1.6 2.8 3.2c0 1.9-1.5 3.2-3.9 3.2c-1.2 0-2.3-.3-3-.7c0 0 .4-1.5.4-1.5zm9 2l0-10.6l1.9 0l0 10.6l-1.9 0zm2.2-13.6c0 .6-.5 1.1-1.3 1.1c-.7 0-1.1-.5-1.1-1.1c0-.7.4-1.3 1.2-1.3c.7 0 1.2.6 1.2 1.3zm5.3.4l0 2.6l2.8 0l0 1.4l-2.8 0c0 0-.01 5.77 0 5.8c0 1.3.4 2 1.4 2c.6 0 .9 0 1.2-.1c0 0 0 1.5 0 1.5c-.3.1-.9.2-1.7.2c-.9 0-1.6-.3-2.1-.8c-.5-.6-.7-1.5-.7-2.8c-.01.03 0-5.8 0-5.8l-1.7 0l0-1.4l1.7 0l0-2l1.9-.6z" stroke="none" fill="#fff"/></g><g id="Polygon6291"><path d="m22.5 3.3l-4.5 0l0-1.6l11 0l0 1.6l-4.5 0l0 13.2l-2 0l0-13.2zm14.1 10.6c0 1 .1 1.9.2 2.6c0 0-1.7 0-1.7 0l-.2-1.3c0 0-.06-.04-.1 0c-.6.8-1.7 1.5-3.2 1.5c-2.2 0-3.3-1.5-3.3-3c0-2.6 2.3-4 6.4-4c0 0 0-.2 0-.2c0-.9-.2-2.5-2.4-2.4c-1 0-2 .2-2.8.8c0 0-.4-1.3-.4-1.3c.9-.6 2.2-1 3.5-1c3.3 0 4 2.3 4 4.4c0 0 0 3.9 0 3.9zm-1.8-2.8c-2.1-.1-4.5.3-4.5 2.4c0 1.2.8 1.8 1.8 1.8c1.4 0 2.3-.9 2.6-1.8c.1-.2.1-.4.1-.6c0 0 0-1.8 0-1.8zm5-1.8c0-1.3-.1-2.4-.1-3.4c-.02-.05 1.7 0 1.7 0l.1 1.8c0 0 .05-.02 0 0c.8-1.3 2.1-2.1 3.8-2.1c2.6 0 4.6 2.2 4.6 5.4c0 3.9-2.4 5.7-4.9 5.7c-1.4 0-2.6-.6-3.3-1.6c.03-.03 0 0 0 0l0 5.8l-1.9 0c0 0-.03-11.57 0-11.6zm1.9 2.9c0 .3 0 .5.1.8c.3 1.3 1.5 2.2 2.9 2.2c2 0 3.2-1.6 3.2-4.1c0-2.1-1.1-3.9-3.2-3.9c-1.3 0-2.5.9-2.9 2.3c-.1.3-.1.6-.1.8c0 0 0 1.9 0 1.9zm17.6-8.9l0 2.6l2.8 0l0 1.4l-2.8 0c0 0-.02 5.77 0 5.8c0 1.3.4 2 1.4 2c.6 0 .9 0 1.2-.1c0 0 0 1.5 0 1.5c-.3.1-.9.2-1.7.2c-.9 0-1.6-.3-2.1-.8c-.5-.6-.7-1.5-.7-2.8c-.01.03 0-5.8 0-5.8l-1.7 0l0-1.4l1.7 0l0-2l1.9-.6zm14.4 7.8c0 3.9-2.7 5.6-5.3 5.6c-2.8 0-5.1-2.1-5.1-5.4c0-3.6 2.4-5.7 5.3-5.7c3.1 0 5.1 2.3 5.1 5.5zm-8.4.1c0 2.3 1.3 4.1 3.2 4.1c1.9 0 3.3-1.7 3.3-4.1c0-1.9-.9-4.1-3.2-4.1c-2.3 0-3.3 2.1-3.3 4.1zm15.5-1.9c0-1.3 0-2.4 0-3.4c-.05-.05 1.7 0 1.7 0l.1 1.8c0 0 .02-.02 0 0c.8-1.3 2.1-2.1 3.8-2.1c2.6 0 4.5 2.2 4.5 5.4c0 3.9-2.3 5.7-4.8 5.7c-1.4 0-2.7-.6-3.3-1.6c0-.03 0 0 0 0l0 5.8l-2 0c0 0 .04-11.57 0-11.6zm2 2.9c0 .3 0 .5 0 .8c.4 1.3 1.6 2.2 2.9 2.2c2.1 0 3.3-1.6 3.3-4.1c0-2.1-1.1-3.9-3.2-3.9c-1.3 0-2.6.9-2.9 2.3c-.1.3-.1.6-.1.8c0 0 0 1.9 0 1.9zm10.6-11.3l1.9 0l0 15.6l-1.9 0l0-15.6zm12.6 13c0 1 .1 1.9.2 2.6c-.02 0-1.8 0-1.8 0l-.1-1.3c0 0-.07-.04-.1 0c-.6.8-1.7 1.5-3.2 1.5c-2.2 0-3.3-1.5-3.3-3c0-2.6 2.3-4 6.4-4c0 0 0-.2 0-.2c0-.9-.2-2.5-2.4-2.4c-1 0-2 .2-2.8.8c0 0-.4-1.3-.4-1.3c.8-.6 2.1-1 3.5-1c3.2 0 4 2.3 4 4.4c0 0 0 3.9 0 3.9zm-1.8-2.8c-2.2-.1-4.5.3-4.5 2.4c0 1.2.8 1.8 1.8 1.8c1.4 0 2.3-.9 2.6-1.8c0-.2.1-.4.1-.6c0 0 0-1.8 0-1.8zm5-2.4c0-1.1-.1-2-.1-2.8c-.03-.05 1.7 0 1.7 0l.1 1.7c0 0 .04.01 0 0c.6-1 1.8-2 3.6-2c1.4 0 3.7.9 3.7 4.6c.02-.04 0 6.3 0 6.3l-1.9 0c0 0-.02-6.14 0-6.1c0-1.8-.7-3.2-2.5-3.2c-1.2 0-2.2.9-2.6 2c-.1.2-.1.6-.1.9c-.01 0 0 6.4 0 6.4l-1.9 0c0 0-.05-7.77 0-7.8z" stroke="none" fill="#fff"/></g></svg>