<?xml version="1.0" standalone="no"?><!DOCTYPE svg PUBLIC "-//W3C//DTD SVG 1.1//EN" "http://www.w3.org/Graphics/SVG/1.1/DTD/svg11.dtd"><svg xmlns="http://www.w3.org/2000/svg" version="1.1" width="125px" height="145.8px" viewBox="0 0 125 145.8"><desc>Dolphin</desc><defs/><g id="Polygon12227"><path d="m42.9 64.8c.5-.1 1.2-.2 2-.2c1.2 0 2.1.3 2.8.9c.8.8 1.3 2.1 1.3 4.1c0 2-.5 3.5-1.4 4.3c-.7.6-1.7.9-3.1.9c-.6 0-1.2 0-1.6-.1c0 0 0-9.9 0-9.9zm1.9 8.4c.1 0 .3 0 .4 0c.9 0 1.8-.9 1.8-3.7c0-2.1-.6-3.3-1.8-3.3c-.1 0-.2 0-.4 0c0 0 0 7 0 7zm10.6-2.1c0 3-1.7 3.8-2.8 3.8c-1.7 0-2.8-1.4-2.8-3.8c0-2.6 1.4-3.8 2.8-3.8c1.8 0 2.8 1.4 2.8 3.8zm-3.6 0c0 1.2.1 2.3.9 2.3c.6 0 .8-1.3.8-2.3c0-1-.2-2.3-.9-2.3c-.7 0-.8 1.3-.8 2.3zm4.7-6.7l2 0l0 10.4l-2 0l0-10.4zm3.4 5.3c0-.8 0-1.6-.1-2.3c.02.01 1.7 0 1.7 0l.1.9c0 0 .07-.04.1 0c.3-.6.8-1 1.5-1c1.6 0 2.3 1.7 2.3 3.8c0 2.6-1.2 3.8-2.4 3.8c-.6 0-1-.4-1.2-.7c-.02-.05-.1 0-.1 0l0 3.4l-1.9 0c0 0-.02-7.86 0-7.9zm1.9 2.4c0 .2.1.4.2.6c.1.4.4.6.6.6c.7 0 .9-1.1.9-2.2c0-1.4-.3-2.2-.9-2.2c-.3 0-.6.3-.7.7c0 .1-.1.3-.1.5c0 0 0 2 0 2zm4.8-7.7l2 0l0 3.8c0 0 0-.02 0 0c.2-.3.4-.5.6-.6c.3-.2.7-.3 1-.3c1.4 0 1.9 1.1 1.9 3c-.01 0 0 4.5 0 4.5l-2 0c0 0 .03-4.5 0-4.5c0-.7-.1-1.4-.7-1.4c-.3 0-.6.2-.8.7c0 .2 0 .4 0 .6c-.03-.01 0 4.6 0 4.6l-2 0l0-10.4zm6.9 10.4l0-7.4l1.9 0l0 7.4l-1.9 0zm1.9-9.3c.1.6-.4 1-1 1c-.5 0-1-.4-1-1c0-.7.5-1.1 1-1.1c.6 0 1 .4 1 1.1zm1.4 4.1c0-.8 0-1.5 0-2.2c-.04.01 1.7 0 1.7 0l.1.9c0 0-.01-.04 0 0c.4-.6 1-1 1.8-1c1.4 0 1.9 1.1 1.9 2.7c.01.04 0 4.8 0 4.8l-2 0c0 0 .04-4.64 0-4.6c0-.7-.1-1.3-.7-1.3c-.3 0-.6.3-.7.7c-.1.2-.1.4-.1.7c-.02-.02 0 4.5 0 4.5l-2 0c0 0 .02-5.18 0-5.2z" stroke="none" fill="#000" fill-opacity="0.7"/></g></svg>