<?xml version="1.0" standalone="no"?><!DOCTYPE svg PUBLIC "-//W3C//DTD SVG 1.1//EN" "http://www.w3.org/Graphics/SVG/1.1/DTD/svg11.dtd"><svg xmlns="http://www.w3.org/2000/svg" version="1.1" width="709px" height="297px" viewBox="0 0 709 297"><desc>Islands</desc><defs/><g id="Polygon7239"><path d="m8.8 3l0 27l-6.1 0l0-27l6.1 0zm4.9 21.7c1.1.7 3.4 1.5 5.2 1.5c1.9 0 2.6-.6 2.6-1.6c0-1.1-.6-1.6-2.8-2.3c-4.1-1.4-5.7-3.6-5.6-5.9c0-3.7 3.1-6.4 7.9-6.4c2.3 0 4.3.5 5.5 1.1c0 0-1 4.2-1 4.2c-.9-.5-2.6-1.1-4.3-1.1c-1.4 0-2.3.6-2.3 1.6c0 .9.8 1.4 3.2 2.2c3.7 1.3 5.2 3.2 5.3 6.1c0 3.7-2.9 6.3-8.5 6.3c-2.5 0-4.8-.6-6.3-1.4c0 0 1.1-4.3 1.1-4.3zm17.4-23.1l6.1 0l0 28.4l-6.1 0l0-28.4zm27.3 23.7c0 1.8 0 3.6.3 4.7c-.02 0-5.5 0-5.5 0l-.4-2c0 0-.08.04-.1 0c-1.3 1.6-3.3 2.4-5.6 2.4c-3.9 0-6.3-2.8-6.3-6c0-5 4.6-7.4 11.5-7.4c0 0 0-.3 0-.3c0-1.1-.6-2.5-3.6-2.5c-2 0-4.1.6-5.4 1.4c0 0-1.1-3.9-1.1-3.9c1.4-.7 4-1.7 7.6-1.7c6.5 0 8.6 3.8 8.6 8.4c0 0 0 6.9 0 6.9zm-5.9-4.5c-3.2 0-5.7.7-5.7 3c0 1.6 1 2.4 2.4 2.4c1.5 0 2.8-1 3.2-2.3c0-.3.1-.7.1-1c0 0 0-2.1 0-2.1zm10.7-4.1c0-2.5-.1-4.5-.2-6.3c.04.04 5.3 0 5.3 0l.3 2.8c0 0 .12-.04.1 0c.8-1.3 2.8-3.2 6.1-3.2c4 0 7 2.7 7 8.4c-.04.04 0 11.6 0 11.6l-6.1 0c0 0-.02-10.84 0-10.8c0-2.6-.9-4.3-3.1-4.3c-1.7 0-2.7 1.2-3.1 2.3c-.2.4-.2 1-.2 1.5c-.02.02 0 11.3 0 11.3l-6.1 0c0 0 0-13.32 0-13.3zm42.4-15.1c0 0 0 22.56 0 22.6c0 2.2.1 4.5.2 5.8c-.04 0-5.4 0-5.4 0l-.3-2.8c0 0-.1-.04-.1 0c-1.2 2.1-3.6 3.2-6.1 3.2c-4.7 0-8.4-3.9-8.4-10c0-6.6 4.1-10.4 8.8-10.4c2.4 0 4.3.8 5.1 2.2c.04-.04.1 0 .1 0l0-10.6l6.1 0zm-6.1 17.1c0-.3 0-.7-.1-1.1c-.3-1.6-1.6-3-3.5-3c-2.8 0-4.2 2.5-4.2 5.6c0 3.3 1.6 5.4 4.1 5.4c1.8 0 3.2-1.2 3.6-2.9c.1-.5.1-.9.1-1.4c0 0 0-2.6 0-2.6zm10.9 6c1.2.7 3.5 1.5 5.3 1.5c1.8 0 2.6-.6 2.6-1.6c0-1.1-.6-1.6-2.9-2.3c-4-1.4-5.6-3.6-5.6-5.9c0-3.7 3.2-6.4 8-6.4c2.3 0 4.3.5 5.5 1.1c0 0-1.1 4.2-1.1 4.2c-.8-.5-2.6-1.1-4.2-1.1c-1.5 0-2.3.6-2.3 1.6c0 .9.7 1.4 3.1 2.2c3.8 1.3 5.3 3.2 5.3 6.1c0 3.7-2.8 6.3-8.4 6.3c-2.6 0-4.9-.6-6.3-1.4c0 0 1-4.3 1-4.3z" stroke="none" fill="#000"/></g></svg>