<?xml version="1.0" standalone="no"?><!DOCTYPE svg PUBLIC "-//W3C//DTD SVG 1.1//EN" "http://www.w3.org/Graphics/SVG/1.1/DTD/svg11.dtd"><svg xmlns="http://www.w3.org/2000/svg" version="1.1" width="250px" height="318.5px" viewBox="0 0 250 318.5"><desc>Dolphin</desc><defs/><g id="Polygon8169"><path d="m85.7 146.8c1-.2 2.5-.4 4-.4c2.6 0 4.4.6 5.6 1.8c1.8 1.6 2.7 4.3 2.7 8.2c0 4.1-1.1 7-2.8 8.6c-1.4 1.2-3.4 1.9-6.2 1.9c-1.2 0-2.5-.1-3.3-.2c0 0 0-19.9 0-19.9zm4 16.8c.2.1.5.1.7.1c1.9 0 3.5-1.9 3.5-7.4c0-4.2-1.1-6.7-3.4-6.7c-.3 0-.6 0-.8.1c0 0 0 13.9 0 13.9zm21.1-4.2c0 6.1-3.4 7.6-5.6 7.6c-3.5 0-5.6-2.8-5.6-7.5c0-5.3 2.8-7.7 5.7-7.7c3.5 0 5.5 2.9 5.5 7.6zm-7.3 0c0 2.5.4 4.6 1.8 4.6c1.3 0 1.6-2.5 1.6-4.6c0-2-.3-4.6-1.7-4.6c-1.4 0-1.7 2.6-1.7 4.6zm9.5-13.4l4 0l0 20.8l-4 0l0-20.8zm6.8 10.7c0-1.7-.1-3.2-.2-4.6c.05-.02 3.5 0 3.5 0l.2 1.7c0 0 .04-.04 0 0c.6-1.2 1.7-2 3.1-2c3.2 0 4.6 3.5 4.6 7.6c0 5.2-2.3 7.6-4.8 7.6c-1.2 0-2-.8-2.4-1.4c-.04-.05-.1 0-.1 0l0 6.9l-3.9 0c0 0-.03-15.77 0-15.8zm3.9 4.7c0 .5.1.9.2 1.2c.3.9.8 1.2 1.3 1.2c1.3 0 1.9-2.1 1.9-4.4c0-2.8-.7-4.3-1.9-4.3c-.6 0-1.2.6-1.3 1.3c-.2.3-.2.7-.2 1c0 0 0 4 0 4zm9.5-15.4l3.9 0l0 7.6c0 0 .1.01.1 0c.4-.5.8-.9 1.3-1.2c.5-.3 1.2-.6 1.9-.6c2.7 0 3.8 2.3 3.8 6c-.01.04 0 9 0 9l-3.9 0c0 0-.04-8.96 0-9c0-1.4-.3-2.7-1.5-2.7c-.6 0-1.2.4-1.5 1.4c-.1.3-.2.8-.2 1.1c.04.03 0 9.2 0 9.2l-3.9 0l0-20.8zm13.7 20.8l0-14.7l4 0l0 14.7l-4 0zm4-18.6c0 1.3-.9 2.1-2.1 2.1c-1.1 0-2-.8-1.9-2.1c-.1-1.3.9-2.1 2-2.1c1.1 0 2 .8 2 2.1zm2.7 8.3c0-1.6 0-3-.1-4.4c.01-.02 3.4 0 3.4 0l.2 1.7c0 0 .07-.04.1 0c.7-1.2 2-2 3.5-2c2.8 0 3.9 2.3 3.9 5.5c.01.03 0 9.5 0 9.5l-3.9 0c0 0-.02-9.23 0-9.2c0-1.3-.3-2.5-1.5-2.5c-.6 0-1.2.5-1.4 1.4c-.1.3-.2.7-.2 1.3c-.04.01 0 9 0 9l-4 0c0 0 .03-10.31 0-10.3z" stroke="none" fill="#000" fill-opacity="0.7"/></g></svg>