<?xml version="1.0" standalone="no"?><!DOCTYPE svg PUBLIC "-//W3C//DTD SVG 1.1//EN" "http://www.w3.org/Graphics/SVG/1.1/DTD/svg11.dtd"><svg xmlns="http://www.w3.org/2000/svg" version="1.1" width="380px" height="330.2px" viewBox="0 0 380 330.2"><desc>Harchil ipsamus quataerit labo Itas ilit in natus autas nectio Et audi beatur seque vollabo Neque ommolut fuga Na</desc><defs/><g id="Polygon7424"><path d="m11.8 299.3c-1.8 2.3-3.9 2.9-4.8 2.9c-3.7 0-5.9-3-5.9-6.4c0-2.1.8-3.9 2-5.3c1.2-1.4 2.8-2.2 4.4-2.2c2.5 0 4.5 2.3 4.5 4.6c0 .6-.2.8-.7 1c-.5 0-4.3.3-7.8.5c0 4 2.3 5.7 4.4 5.7c1.2 0 2.4-.5 3.5-1.5c0 0 .4.7.4.7zm-8.2-6.2c1.7 0 3.4 0 5.1-.1c.5 0 .7-.1.7-.6c0-1.5-1-3-2.6-3c-1.4 0-2.7 1.3-3.2 3.7zm18-.9c-.6-1.7-1.7-2.9-3.1-2.9c-1.2 0-2 .9-2 2c0 1.4 1.2 2.1 2.6 2.6c2.2 1 3.8 2.1 3.8 4.1c0 2.8-2.6 4.2-5 4.2c-1.5 0-2.9-.6-3.4-1.1c-.3-.4-.5-2.4-.5-3.5c0 0 .8-.1.8-.1c.5 1.9 1.8 3.7 3.6 3.7c1.2 0 2.2-.9 2.2-2.1c0-1.3-.9-2.1-2.4-2.8c-1.8-.8-3.7-1.8-3.7-4.1c0-2.1 1.8-3.9 4.5-3.9c1.2 0 2.1.3 2.7.5c.2.7.6 2.5.6 3.3c0 0-.7.1-.7.1zm8.9 9.6c-.5.2-1 .4-1.3.4c-1.8 0-2.9-1.2-2.9-3.6c.01 0 0-8.7 0-8.7l-2.1 0l-.1-.3l.8-.9l1.4 0l0-2.2l2-2l.4.1l0 4.1c0 0 3.37 0 3.4 0c.2.3.1 1-.2 1.2c-.01-.03-3.2 0-3.2 0c0 0-.02 7.68 0 7.7c0 2.4 1 2.9 1.7 2.9c.8 0 1.5-.3 1.9-.6c-.02.05.2.8.2.8c0 0-1.99 1.08-2 1.1zm7.8-.6c0 2.3-2.1 3.6-3.9 4.1c0 0-.3-.9-.3-.9c1.4-.6 2.3-1.3 2.3-2.5c0-1.1-.9-1.7-1.9-2c-.2 0-.4-.2-.4-.7c0-.8.8-1.3 1.5-1.3c1.1 0 2.7 1.2 2.7 3.3zm23.6-.1c-1.3.2-2.9.6-4.4 1.1c.04-.03-.1-.2-.1-.2c0 0-.04-2.14 0-2.1c-.7.5-1.4 1-2.3 1.5c-.8.5-1.5.8-2.3.8c-2 0-3.7-1.3-3.7-4.5c0 0 0-5.9 0-5.9c0-1.6-.1-1.8-1.8-2.1c0 0 0-.7 0-.7c1.4-.1 2.8-.2 4.3-.5c-.1.9-.1 2.3-.1 4.4c0 0 0 4 0 4c0 2.7 1.3 3.4 2.6 3.4c1.1 0 2.2-.5 3.3-1.5c0 0 0-7 0-7c0-1.7-.2-1.8-2.4-2.1c0 0 0-.7 0-.7c1.6-.1 3.1-.2 4.7-.5c0 0 0 10 0 10c0 1.5.3 1.7 1.4 1.8c.01-.02.8 0 .8 0c0 0 .05.79 0 .8zm7 .7c-.5.2-1 .4-1.3.4c-1.9 0-2.9-1.2-2.9-3.6c-.02 0 0-8.7 0-8.7l-2.1 0l-.1-.3l.8-.9l1.4 0l0-2.2l1.9-2l.4.1l0 4.1c0 0 3.44 0 3.4 0c.3.3.2 1-.1 1.2c-.04-.03-3.3 0-3.3 0c0 0 .05 7.68 0 7.7c0 2.4 1 2.9 1.8 2.9c.7 0 1.4-.3 1.8-.6c.05.05.3.8.3.8c0 0-2.02 1.08-2 1.1zm24.6-.7c-1.4.2-2.9.6-4.4 1.1c-.03-.03-.2-.2-.2-.2c0 0-.01-2.14 0-2.1c-.7.5-1.4 1-2.2 1.5c-.9.5-1.5.8-2.3.8c-2.1 0-3.8-1.3-3.8-4.5c0 0 0-5.9 0-5.9c0-1.6-.1-1.8-1.8-2.1c0 0 0-.7 0-.7c1.4-.1 2.9-.2 4.3-.5c-.1.9-.1 2.3-.1 4.4c0 0 0 4 0 4c0 2.7 1.3 3.4 2.6 3.4c1.1 0 2.3-.5 3.3-1.5c0 0 0-7 0-7c0-1.7-.2-1.8-2.4-2.1c0 0 0-.7 0-.7c1.6-.1 3.2-.2 4.8-.5c0 0 0 10 0 10c0 1.5.2 1.7 1.3 1.8c.04-.02.9 0 .9 0c0 0-.02.79 0 .8zm9.8.7c0 0 .02-.77 0-.8c1.8-.2 2-.4 2-2.5c0 0 0-5 0-5c0-2-.7-3.4-2.7-3.4c-1.2 0-2.4.8-3.3 1.5c0 0 0 7.1 0 7.1c0 2 .2 2.1 1.9 2.3c.05.03 0 .8 0 .8l-6.5 0c0 0 .04-.77 0-.8c2.1-.2 2.2-.3 2.2-2.3c0 0 0-6.2 0-6.2c0-1.9-.2-2-1.8-2.3c0 0 0-.7 0-.7c1.5-.3 2.9-.7 4.2-1.3c0 0 0 2.4 0 2.4c.6-.4 1.3-.9 2-1.4c.8-.5 1.6-.9 2.5-.9c2.4 0 3.9 1.7 3.9 4.6c0 0 0 5.8 0 5.8c0 2 .1 2.1 1.9 2.3c-.04.03 0 .8 0 .8l-6.3 0zm13.3 0c-.5.2-1 .4-1.3.4c-1.8 0-2.9-1.2-2.9-3.6c.01 0 0-8.7 0-8.7l-2.1 0l-.1-.3l.8-.9l1.4 0l0-2.2l2-2l.4.1l0 4.1c0 0 3.37 0 3.4 0c.2.3.1 1-.2 1.2c-.01-.03-3.2 0-3.2 0c0 0-.02 7.68 0 7.7c0 2.4 1 2.9 1.7 2.9c.8 0 1.5-.3 1.9-.6c-.02.05.2.8.2.8c0 0-1.99 1.08-2 1.1zm4-1.4c0-.9.7-1.7 1.7-1.7c.9 0 1.7.8 1.7 1.7c0 1.1-.8 1.8-1.7 1.8c-1 0-1.7-.7-1.7-1.8z" stroke="none" fill="#000"/></g><g id="Polygon7423"><path d="m8.8 257.2c-.5-1.7-1.6-2.9-3.1-2.9c-1.1 0-1.9.9-1.9 2c0 1.4 1.2 2.1 2.5 2.6c2.3 1 3.8 2.1 3.8 4.1c0 2.8-2.5 4.2-4.9 4.2c-1.6 0-2.9-.6-3.5-1.1c-.2-.4-.5-2.4-.5-3.5c0 0 .8-.1.8-.1c.5 1.9 1.9 3.7 3.7 3.7c1.1 0 2.1-.9 2.1-2.1c0-1.3-.8-2.1-2.3-2.8c-1.8-.8-3.8-1.8-3.8-4.1c0-2.1 1.8-3.9 4.6-3.9c1.2 0 2 .3 2.6.5c.3.7.6 2.5.7 3.3c0 0-.8.1-.8.1zm4.8-8c0-.9.7-1.6 1.5-1.6c.8 0 1.5.7 1.5 1.6c0 .8-.7 1.5-1.5 1.5c-.8 0-1.5-.7-1.5-1.5zm-1.6 17.6c0 0-.03-.77 0-.8c1.9-.2 2.1-.3 2.1-2.4c0 0 0-6.2 0-6.2c0-1.8-.1-1.9-1.9-2.2c0 0 0-.8 0-.8c1.5-.2 2.9-.6 4.2-1.1c0 0 0 10.3 0 10.3c0 2.1.2 2.2 2.2 2.4c-.03.03 0 .8 0 .8l-6.6 0zm16.5 0c0 0 0-.77 0-.8c1.8-.2 2-.4 2-2.5c0 0 0-5 0-5c0-2-.7-3.4-2.8-3.4c-1.2 0-2.3.8-3.2 1.5c0 0 0 7.1 0 7.1c0 2 .2 2.1 1.9 2.3c.03.03 0 .8 0 .8l-6.5 0c0 0 .02-.77 0-.8c2.1-.2 2.2-.3 2.2-2.3c0 0 0-6.2 0-6.2c0-1.9-.2-2-1.8-2.3c0 0 0-.7 0-.7c1.4-.3 2.9-.7 4.2-1.3c0 0 0 2.4 0 2.4c.6-.4 1.2-.9 2-1.4c.8-.5 1.6-.9 2.5-.9c2.3 0 3.8 1.7 3.8 4.6c0 0 0 5.8 0 5.8c0 2 .2 2.1 1.9 2.3c.04.03 0 .8 0 .8l-6.2 0zm19.3-10.3c.9-1.5 2.1-3.2 3.6-3.2c1 0 1.7.8 1.7 1.5c0 .6-.4 1.2-.9 1.5c-.4.2-.7.1-.8-.1c-.5-.4-.8-.6-1.3-.6c-.8 0-1.7.9-2.4 2.6c0 0 0 5.5 0 5.5c0 2 .1 2.1 2.5 2.3c-.04.03 0 .8 0 .8l-6.9 0c0 0-.04-.77 0-.8c1.8-.2 2-.3 2-2.3c0 0 0-6.2 0-6.2c0-2-.1-2.1-1.8-2.4c0 0 0-.6 0-.6c1.4-.3 2.8-.6 4.2-1.3c0 .05 0 3.3 0 3.3c0 0 .06.02.1 0zm17.1 7.8c-1.9 2.3-4 2.9-4.9 2.9c-3.7 0-5.9-3-5.9-6.4c0-2.1.8-3.9 2-5.3c1.2-1.4 2.8-2.2 4.4-2.2c2.5 0 4.5 2.3 4.5 4.6c0 .6-.1.8-.7 1c-.5 0-4.2.3-7.8.5c0 4 2.4 5.7 4.5 5.7c1.2 0 2.3-.5 3.4-1.5c0 0 .5.7.5.7zm-8.3-6.2c1.7 0 3.4 0 5.1-.1c.5 0 .7-.1.7-.6c.1-1.5-1-3-2.6-3c-1.4 0-2.7 1.3-3.2 3.7zm14.6 8.1c0 2.3-2.1 3.6-4 4.1c0 0-.3-.9-.3-.9c1.4-.6 2.3-1.3 2.3-2.5c0-1.1-.8-1.7-1.9-2c-.1 0-.3-.2-.3-.7c0-.8.7-1.3 1.4-1.3c1.1 0 2.8 1.2 2.8 3.3zm16.8-9c-.5-1.7-1.6-2.9-3-2.9c-1.2 0-2 .9-2 2c0 1.4 1.2 2.1 2.6 2.6c2.2 1 3.7 2.1 3.7 4.1c0 2.8-2.5 4.2-4.9 4.2c-1.5 0-2.9-.6-3.5-1.1c-.2-.4-.4-2.4-.4-3.5c0 0 .7-.1.7-.1c.6 1.9 1.9 3.7 3.7 3.7c1.1 0 2.2-.9 2.2-2.1c0-1.3-.9-2.1-2.4-2.8c-1.8-.8-3.8-1.8-3.8-4.1c0-2.1 1.8-3.9 4.6-3.9c1.2 0 2 .3 2.7.5c.2.7.5 2.5.6 3.3c0 0-.8.1-.8.1zm12.9 10c-.5 0-1.1-.3-1.5-.6c-.3-.4-.5-.8-.7-1.4c-1.2.9-2.6 2-3.5 2c-2.1 0-3.6-1.8-3.6-3.7c0-1.5.8-2.4 2.4-3c1.8-.6 4-1.4 4.7-1.9c0 0 0-.6 0-.6c0-2.1-1.1-3.3-2.6-3.3c-.6 0-1 .2-1.3.6c-.4.3-.7 1-.9 1.9c-.1.5-.5.7-.9.7c-.5 0-1.3-.6-1.3-1.3c0-.4.4-.7 1-1.2c.8-.6 2.8-1.7 4.5-2.1c.9 0 1.8.3 2.4.8c1.1.9 1.4 2.1 1.4 3.7c0 0 0 5.6 0 5.6c0 1.3.5 1.8 1 1.8c.4 0 .8-.2 1.1-.3c.01-.04.3.7.3.7c0 0-2.54 1.57-2.5 1.6zm-2.2-7.6c-.7.3-2.1 1-2.7 1.3c-1.2.5-1.9 1.1-1.9 2.2c0 1.5 1.2 2.3 2.2 2.3c.7-.1 1.8-.6 2.4-1.1c0 0 0-4.7 0-4.7zm14.1 7.2c0 0-.03-.77 0-.8c1.7-.2 1.9-.4 1.9-2.5c0 0 0-5 0-5c0-2-.7-3.4-2.7-3.4c-1.2 0-2.4.8-3.3 1.5c0 0 0 7.1 0 7.1c0 2 .2 2.1 2 2.3c0 .03 0 .8 0 .8l-6.5 0c0 0-.01-.77 0-.8c2-.2 2.2-.3 2.2-2.3c0 0 0-6.2 0-6.2c0-1.9-.2-2-1.8-2.3c0 0 0-.7 0-.7c1.4-.3 2.8-.7 4.1-1.3c0 0 0 2.4 0 2.4c.6-.4 1.3-.9 2.1-1.4c.8-.5 1.6-.9 2.4-.9c2.4 0 3.9 1.7 3.9 4.6c0 0 0 5.8 0 5.8c0 2 .2 2.1 1.9 2.3c.01.03 0 .8 0 .8l-6.2 0zm22.3-.8c-.6.1-2.9.5-4.6 1.2c-.03-.03 0-2 0-2c0 0-1.86 1.1-1.9 1.1c-1.1.7-1.9.9-2.3.9c-2.4 0-5.6-2.2-5.6-6.4c0-4.2 3.7-7.5 7.8-7.5c.4 0 1.3.1 2 .4c0 0 0-4.3 0-4.3c0-1.9-.2-2-2.3-2.2c0 0 0-.7 0-.7c1.5-.2 3.5-.7 4.6-1.1c0 0 0 18 0 18c0 1.5.2 1.7 1.4 1.8c-.04-.01.9.1.9.1c0 0 .02.73 0 .7zm-4.6-10c-.8-1.1-2-1.6-3.1-1.6c-1.4 0-3.9 1.2-3.9 5.6c0 3.5 2.2 5.3 4.1 5.3c1.1 0 2.1-.5 2.9-1c0 0 0-8.3 0-8.3zm7.5-6.8c0-.9.7-1.6 1.5-1.6c.9 0 1.5.7 1.5 1.6c0 .8-.6 1.5-1.5 1.5c-.8 0-1.5-.7-1.5-1.5zm-1.6 17.6c0 0 .01-.77 0-.8c1.9-.2 2.1-.3 2.1-2.4c0 0 0-6.2 0-6.2c0-1.8-.1-1.9-1.9-2.2c0 0 0-.8 0-.8c1.5-.2 3-.6 4.3-1.1c0 0 0 10.3 0 10.3c0 2.1.2 2.2 2.1 2.4c.01.03 0 .8 0 .8l-6.6 0zm22.7-9.6c-.6-1.7-1.6-2.9-3.1-2.9c-1.1 0-1.9.9-1.9 2c0 1.4 1.2 2.1 2.5 2.6c2.3 1 3.8 2.1 3.8 4.1c0 2.8-2.5 4.2-4.9 4.2c-1.6 0-3-.6-3.5-1.1c-.2-.4-.5-2.4-.5-3.5c0 0 .8-.1.8-.1c.5 1.9 1.9 3.7 3.7 3.7c1.1 0 2.1-.9 2.1-2.1c0-1.3-.8-2.1-2.3-2.8c-1.8-.8-3.8-1.8-3.8-4.1c0-2.1 1.8-3.9 4.6-3.9c1.2 0 2 .3 2.6.5c.3.7.6 2.5.7 3.3c0 0-.8.1-.8.1zm14.3 7.1c-1.9 2.3-4 2.9-4.9 2.9c-3.7 0-5.8-3-5.8-6.4c0-2.1.7-3.9 1.9-5.3c1.3-1.4 2.9-2.2 4.4-2.2c2.5 0 4.5 2.3 4.5 4.6c0 .6-.1.8-.6 1c-.6 0-4.3.3-7.9.5c.1 4 2.4 5.7 4.5 5.7c1.2 0 2.3-.5 3.4-1.5c0 0 .5.7.5.7zm-8.2-6.2c1.7 0 3.3 0 5-.1c.6 0 .8-.1.8-.6c0-1.5-1-3-2.7-3c-1.4 0-2.7 1.3-3.1 3.7zm17.5 16c0 0 0-.84 0-.8c2.3-.3 2.5-.4 2.5-2.5c.05-.03 0-4.9 0-4.9c0 0-3.13 1.27-3.1 1.3c-4.4 0-6.5-3.4-6.5-6.3c0-4.3 3.9-7.6 8-7.6c1.1.1 1.8.3 2.1.4c.4.1.6.2.8.2c.2 0 .6-.1 1.1-.4c0 0 .1.1.1.1c-.1.7-.1 1.2-.1 3.2c0 0 0 14 0 14c0 2.1.2 2.2 2.3 2.5c0-.04 0 .8 0 .8l-7.2 0zm2.5-18.3c-.6-.8-1.9-1.3-2.9-1.3c-2 0-4 1.8-4 5.4c0 3.6 2.5 5.6 4.7 5.6c1 0 1.6-.2 2.2-.5c0 0 0-9.2 0-9.2zm19.8 10.3c-1.4.2-2.9.6-4.4 1.1c.01-.03-.2-.2-.2-.2c0 0 .03-2.14 0-2.1c-.7.5-1.4 1-2.2 1.5c-.9.5-1.5.8-2.3.8c-2 0-3.7-1.3-3.7-4.5c0 0 0-5.9 0-5.9c0-1.6-.1-1.8-1.9-2.1c0 0 0-.7 0-.7c1.5-.1 2.9-.2 4.3-.5c-.1.9-.1 2.3-.1 4.4c0 0 0 4 0 4c0 2.7 1.3 3.4 2.7 3.4c1.1 0 2.2-.5 3.2-1.5c0 0 0-7 0-7c0-1.7-.2-1.8-2.3-2.1c0 0 0-.7 0-.7c1.5-.1 3.1-.2 4.7-.5c0 0 0 10 0 10c0 1.5.2 1.7 1.4 1.8c-.02-.02.8 0 .8 0c0 0 .02.79 0 .8zm3-16.9c0-.9.7-1.6 1.5-1.6c.8 0 1.5.7 1.5 1.6c0 .8-.7 1.5-1.5 1.5c-.8 0-1.5-.7-1.5-1.5zm-1.6 17.6c0 0-.03-.77 0-.8c1.9-.2 2.1-.3 2.1-2.4c0 0 0-6.2 0-6.2c0-1.8-.1-1.9-1.9-2.2c0 0 0-.8 0-.8c1.5-.2 2.9-.6 4.2-1.1c0 0 0 10.3 0 10.3c0 2.1.2 2.2 2.2 2.4c-.03.03 0 .8 0 .8l-6.6 0zm17.6.4c-.5 0-1.1-.3-1.4-.6c-.4-.4-.6-.8-.8-1.4c-1.2.9-2.6 2-3.5 2c-2.1 0-3.6-1.8-3.6-3.7c0-1.5.8-2.4 2.4-3c1.8-.6 4-1.4 4.7-1.9c0 0 0-.6 0-.6c0-2.1-1-3.3-2.5-3.3c-.6 0-1.1.2-1.4.6c-.4.3-.6 1-.9 1.9c-.1.5-.4.7-.9.7c-.5 0-1.3-.6-1.3-1.3c0-.4.4-.7 1-1.2c.8-.6 2.8-1.7 4.5-2.1c.9 0 1.8.3 2.4.8c1.1.9 1.4 2.1 1.4 3.7c0 0 0 5.6 0 5.6c0 1.3.5 1.8 1 1.8c.4 0 .8-.2 1.1-.3c.03-.04.3.7.3.7c0 0-2.52 1.57-2.5 1.6zm-2.2-7.6c-.6.3-2.1 1-2.7 1.3c-1.2.5-1.8 1.1-1.8 2.2c0 1.5 1.2 2.3 2.1 2.3c.8-.1 1.8-.6 2.4-1.1c0 0 0-4.7 0-4.7zm16.8 4.7c-1.9 2.3-4 2.9-4.9 2.9c-3.7 0-5.9-3-5.9-6.4c0-2.1.8-3.9 2-5.3c1.2-1.4 2.8-2.2 4.4-2.2c2.5 0 4.5 2.3 4.5 4.6c0 .6-.1.8-.7 1c-.5 0-4.2.3-7.8.5c0 4 2.4 5.7 4.5 5.7c1.2 0 2.3-.5 3.4-1.5c0 0 .5.7.5.7zm-8.3-6.2c1.7 0 3.4 0 5.1-.1c.5 0 .7-.1.7-.6c.1-1.5-1-3-2.6-3c-1.4 0-2.7 1.3-3.2 3.7zm21.5-1.6c.9-1.5 2.1-3.2 3.6-3.2c1 0 1.7.8 1.7 1.5c0 .6-.4 1.2-.9 1.5c-.4.2-.7.1-.8-.1c-.5-.4-.8-.6-1.3-.6c-.8 0-1.7.9-2.4 2.6c0 0 0 5.5 0 5.5c0 2 .1 2.1 2.5 2.3c-.05.03 0 .8 0 .8l-6.9 0c0 0-.05-.77 0-.8c1.8-.2 2-.3 2-2.3c0 0 0-6.2 0-6.2c0-2-.1-2.1-1.8-2.4c0 0 0-.6 0-.6c1.4-.3 2.8-.6 4.2-1.3c-.01.05 0 3.3 0 3.3c0 0 .05.02.1 0zm21.4 9.6c-1.3.2-2.9.6-4.4 1.1c.02-.03-.2-.2-.2-.2c0 0 .04-2.14 0-2.1c-.6.5-1.3 1-2.2 1.5c-.8.5-1.5.8-2.3.8c-2 0-3.7-1.3-3.7-4.5c0 0 0-5.9 0-5.9c0-1.6-.1-1.8-1.8-2.1c0 0 0-.7 0-.7c1.4-.1 2.8-.2 4.3-.5c-.1.9-.1 2.3-.1 4.4c0 0 0 4 0 4c0 2.7 1.3 3.4 2.6 3.4c1.1 0 2.2-.5 3.2-1.5c0 0 0-7 0-7c0-1.7-.1-1.8-2.3-2.1c0 0 0-.7 0-.7c1.6-.1 3.1-.2 4.7-.5c0 0 0 10 0 10c0 1.5.3 1.7 1.4 1.8c-.01-.02.8 0 .8 0c0 0 .03.79 0 .8zm7.9-12.3c.5-.3 1.1-.5 1.5-.5c3.3 0 5.3 2.7 5.3 5.7c0 4.5-3.6 7.4-7.5 8.2c-.9-.1-1.7-.4-2.1-.6c0 0 0 4 0 4c0 2.2.2 2.4 2.6 2.6c-.02 0 0 .8 0 .8l-7.1 0c0 0-.03-.8 0-.8c1.9-.2 2.2-.4 2.2-2.3c0 0 0-13.6 0-13.6c0-2-.2-2-2-2.3c0 0 0-.7 0-.7c1.2-.2 2.9-.7 4.3-1.3c.03.04 0 2.4 0 2.4c0 0 2.79-1.61 2.8-1.6zm-2.8 10.7c.7.7 1.8 1.2 2.9 1.2c2.5 0 4.2-2.2 4.2-5.6c0-3.2-1.9-5-4.1-5c-.9 0-2.2.7-3 1.3c0 0 0 8.1 0 8.1zm17.3 2.3c-.6.2-1 .4-1.3.4c-1.9 0-2.9-1.2-2.9-3.6c-.05 0 0-8.7 0-8.7l-2.1 0l-.1-.3l.8-.9l1.4 0l0-2.2l1.9-2l.4.1l0 4.1c0 0 3.41 0 3.4 0c.3.3.2 1-.2 1.2c.03-.03-3.2 0-3.2 0c0 0 .02 7.68 0 7.7c0 2.4 1 2.9 1.8 2.9c.7 0 1.4-.3 1.8-.6c.02.05.3.8.3.8c0 0-2.05 1.08-2 1.1zm12.8.4c-.4 0-1.1-.3-1.4-.6c-.4-.4-.6-.8-.7-1.4c-1.2.9-2.6 2-3.5 2c-2.2 0-3.6-1.8-3.6-3.7c0-1.5.7-2.4 2.4-3c1.8-.6 4-1.4 4.6-1.9c0 0 0-.6 0-.6c0-2.1-1-3.3-2.5-3.3c-.6 0-1 .2-1.3.6c-.4.3-.7 1-.9 1.9c-.2.5-.5.7-.9.7c-.5 0-1.3-.6-1.3-1.3c0-.4.4-.7.9-1.2c.9-.6 2.8-1.7 4.5-2.1c.9 0 1.8.3 2.5.8c1 .9 1.3 2.1 1.3 3.7c0 0 0 5.6 0 5.6c0 1.3.6 1.8 1.1 1.8c.4 0 .8-.2 1.1-.3c-.03-.04.3.7.3.7c0 0-2.58 1.57-2.6 1.6zm-2.2-7.6c-.6.3-2 1-2.7 1.3c-1.1.5-1.8 1.1-1.8 2.2c0 1.5 1.2 2.3 2.1 2.3c.8-.1 1.9-.6 2.4-1.1c0 0 0-4.7 0-4.7zm11.3 7.2c-.5.2-1 .4-1.3.4c-1.9 0-2.9-1.2-2.9-3.6c-.02 0 0-8.7 0-8.7l-2.1 0l-.1-.3l.8-.9l1.4 0l0-2.2l1.9-2l.5.1l0 4.1c0 0 3.34 0 3.3 0c.3.3.2 1-.1 1.2c-.04-.03-3.2 0-3.2 0c0 0-.05 7.68 0 7.7c0 2.4.9 2.9 1.7 2.9c.7 0 1.4-.3 1.9-.6c-.05.05.2.8.2.8c0 0-2.02 1.08-2 1.1zm17.5-.7c-1.4.2-2.9.6-4.4 1.1c-.04-.03-.2-.2-.2-.2c0 0-.02-2.14 0-2.1c-.7.5-1.4 1-2.2 1.5c-.9.5-1.5.8-2.3.8c-2.1 0-3.8-1.3-3.8-4.5c0 0 0-5.9 0-5.9c0-1.6-.1-1.8-1.8-2.1c0 0 0-.7 0-.7c1.4-.1 2.9-.2 4.3-.5c-.1.9-.1 2.3-.1 4.4c0 0 0 4 0 4c0 2.7 1.3 3.4 2.6 3.4c1.1 0 2.3-.5 3.3-1.5c0 0 0-7 0-7c0-1.7-.2-1.8-2.4-2.1c0 0 0-.7 0-.7c1.6-.1 3.2-.2 4.8-.5c0 0 0 10 0 10c0 1.5.2 1.7 1.3 1.8c.03-.02.9 0 .9 0c0 0-.03.79 0 .8zm5.9-9.6c.9-1.5 2.1-3.2 3.6-3.2c1 0 1.7.8 1.7 1.5c0 .6-.4 1.2-.9 1.5c-.4.2-.7.1-.8-.1c-.5-.4-.8-.6-1.3-.6c-.8 0-1.7.9-2.4 2.6c0 0 0 5.5 0 5.5c0 2 .1 2.1 2.5 2.3c-.05.03 0 .8 0 .8l-6.9 0c0 0-.05-.77 0-.8c1.8-.2 2-.3 2-2.3c0 0 0-6.2 0-6.2c0-2-.1-2.1-1.8-2.4c0 0 0-.6 0-.6c1.4-.3 2.8-.6 4.2-1.3c-.01.05 0 3.3 0 3.3c0 0 .05.02.1 0zm9.3 9.7c0 2.3-2.1 3.6-3.9 4.1c0 0-.4-.9-.4-.9c1.5-.6 2.3-1.3 2.3-2.5c0-1.1-.8-1.7-1.9-2c-.1 0-.3-.2-.3-.7c0-.8.7-1.3 1.4-1.3c1.1 0 2.8 1.2 2.8 3.3zm15 .6c-.6.2-1 .4-1.3.4c-1.9 0-2.9-1.2-2.9-3.6c-.05 0 0-8.7 0-8.7l-2.1 0l-.1-.3l.8-.9l1.4 0l0-2.2l1.9-2l.4.1l0 4.1c0 0 3.41 0 3.4 0c.3.3.2 1-.2 1.2c.03-.03-3.2 0-3.2 0c0 0 .02 7.68 0 7.7c0 2.4 1 2.9 1.8 2.9c.7 0 1.4-.3 1.8-.6c.02.05.3.8.3.8c0 0-2.05 1.08-2 1.1zm13.9-2.5c-1.9 2.3-4 2.9-4.9 2.9c-3.7 0-5.9-3-5.9-6.4c0-2.1.8-3.9 2-5.3c1.2-1.4 2.9-2.2 4.4-2.2c2.5 0 4.5 2.3 4.5 4.6c0 .6-.1.8-.7 1c-.5 0-4.2.3-7.8.5c0 4 2.4 5.7 4.5 5.7c1.2 0 2.3-.5 3.4-1.5c0 0 .5.7.5.7zm-8.2-6.2c1.6 0 3.3 0 5-.1c.6 0 .7-.1.7-.6c.1-1.5-.9-3-2.6-3c-1.4 0-2.7 1.3-3.1 3.7z" stroke="none" fill="#000"/></g><g id="Polygon7422"><path d="m17.5 231.8c0 0-.01-.77 0-.8c1.8-.2 2.1-.3 2.1-2.4c0 0 0-5 0-5c0-2.1-.8-3.5-2.7-3.5c-1 0-2.2.6-3.3 1.6c0 .3.1.7.1 1.2c0 0 0 5.9 0 5.9c0 1.9.2 2 1.9 2.2c0 .03 0 .8 0 .8l-6.4 0c0 0-.02-.77 0-.8c1.8-.2 2.1-.3 2.1-2.3c0 0 0-5.1 0-5.1c0-2.3-.8-3.5-2.6-3.5c-1.2 0-2.4.8-3.3 1.6c0 0 0 7 0 7c0 2 .3 2.1 1.7 2.3c.04.03 0 .8 0 .8l-6.3 0c0 0 .01-.77 0-.8c2-.2 2.3-.3 2.3-2.3c0 0 0-6.2 0-6.2c0-1.9-.1-2.1-1.9-2.3c0 0 0-.7 0-.7c1.3-.3 2.9-.7 4.2-1.3c0 0 0 2.5 0 2.5c.6-.4 1.3-1 2.2-1.6c.8-.4 1.5-.8 2.5-.8c1.4 0 2.7.9 3.3 2.5c.9-.7 1.7-1.2 2.5-1.7c.6-.4 1.4-.8 2.2-.8c2.4 0 3.8 1.7 3.8 4.6c0 0 0 5.8 0 5.8c0 2 .3 2.1 2 2.3c-.02.03 0 .8 0 .8l-6.4 0zm21.1-6.8c0 4.9-3.5 7.2-6.5 7.2c-4.1 0-6.5-3.3-6.5-6.7c0-4.9 3.8-7.2 6.5-7.2c3.7 0 6.5 3 6.5 6.7zm-10.3-.4c0 3.8 1.7 6.6 4.2 6.6c1.8 0 3.3-1.4 3.3-5.5c0-3.5-1.4-6.4-4-6.4c-1.8 0-3.5 1.9-3.5 5.3zm27.2 6.4c-.6.1-2.9.5-4.6 1.2c-.02-.03 0-2 0-2c0 0-1.85 1.1-1.9 1.1c-1.1.7-1.9.9-2.3.9c-2.4 0-5.5-2.2-5.5-6.4c0-4.2 3.6-7.5 7.7-7.5c.4 0 1.3.1 2 .4c0 0 0-4.3 0-4.3c0-1.9-.2-2-2.3-2.2c0 0 0-.7 0-.7c1.5-.2 3.5-.7 4.6-1.1c0 0 0 18 0 18c0 1.5.3 1.7 1.4 1.8c-.03-.01.9.1.9.1c0 0 .03.73 0 .7zm-4.6-10c-.7-1.1-2-1.6-3.1-1.6c-1.4 0-3.9 1.2-3.9 5.6c0 3.5 2.2 5.3 4.1 5.3c1.1 0 2.2-.5 2.9-1c0 0 0-8.3 0-8.3zm7.5-6.8c0-.9.7-1.6 1.5-1.6c.9 0 1.5.7 1.5 1.6c0 .8-.6 1.5-1.5 1.5c-.8 0-1.5-.7-1.5-1.5zm-1.6 17.6c0 0 .02-.77 0-.8c1.9-.2 2.1-.3 2.1-2.4c0 0 0-6.2 0-6.2c0-1.8-.1-1.9-1.9-2.2c0 0 0-.8 0-.8c1.6-.2 3-.6 4.3-1.1c0 0 0 10.3 0 10.3c0 2.1.2 2.2 2.1 2.4c.02.03 0 .8 0 .8l-6.6 0zm13.6 0c-.5.2-1 .4-1.2.4c-1.9 0-3-1.2-3-3.6c.04 0 0-8.7 0-8.7l-2 0l-.2-.3l.9-.9l1.3 0l0-2.2l2-2l.4.1l0 4.1c0 0 3.4 0 3.4 0c.3.3.2 1-.2 1.2c.02-.03-3.2 0-3.2 0c0 0 .01 7.68 0 7.7c0 2.4 1 2.9 1.7 2.9c.8 0 1.5-.3 1.9-.6c.01.05.3.8.3.8c0 0-2.06 1.08-2.1 1.1zm12.9.4c-.4 0-1.1-.3-1.4-.6c-.4-.4-.6-.8-.7-1.4c-1.2.9-2.7 2-3.6 2c-2.1 0-3.6-1.8-3.6-3.7c0-1.5.8-2.4 2.5-3c1.8-.6 4-1.4 4.6-1.9c0 0 0-.6 0-.6c0-2.1-1-3.3-2.5-3.3c-.6 0-1.1.2-1.4.6c-.3.3-.6 1-.9 1.9c-.1.5-.4.7-.8.7c-.6 0-1.3-.6-1.3-1.3c0-.4.3-.7.9-1.2c.9-.6 2.8-1.7 4.5-2.1c.9 0 1.8.3 2.5.8c1 .9 1.3 2.1 1.3 3.7c0 0 0 5.6 0 5.6c0 1.3.6 1.8 1.1 1.8c.3 0 .8-.2 1.1-.3c-.04-.04.3.7.3.7c0 0-2.59 1.57-2.6 1.6zm-2.2-7.6c-.6.3-2.1 1-2.7 1.3c-1.2.5-1.8 1.1-1.8 2.2c0 1.5 1.2 2.3 2.1 2.3c.8-.1 1.8-.6 2.4-1.1c0 0 0-4.7 0-4.7zm11.3 7.2c-.5.2-1 .4-1.3.4c-1.9 0-2.9-1.2-2.9-3.6c-.03 0 0-8.7 0-8.7l-2.1 0l-.1-.3l.8-.9l1.4 0l0-2.2l1.9-2l.4.1l0 4.1c0 0 3.43 0 3.4 0c.3.3.2 1-.2 1.2c.05-.03-3.2 0-3.2 0c0 0 .04 7.68 0 7.7c0 2.4 1 2.9 1.8 2.9c.7 0 1.4-.3 1.8-.6c.04.05.3.8.3.8c0 0-2.03 1.08-2 1.1zm4.9-17.6c0-.9.7-1.6 1.5-1.6c.9 0 1.5.7 1.5 1.6c0 .8-.6 1.5-1.5 1.5c-.8 0-1.5-.7-1.5-1.5zm-1.6 17.6c0 0 .03-.77 0-.8c1.9-.2 2.1-.3 2.1-2.4c0 0 0-6.2 0-6.2c0-1.8-.1-1.9-1.9-2.2c0 0 0-.8 0-.8c1.6-.2 3-.6 4.3-1.1c0 0 0 10.3 0 10.3c0 2.1.2 2.2 2.1 2.4c.03.03 0 .8 0 .8l-6.6 0zm17.6.4c-.4 0-1-.3-1.4-.6c-.4-.4-.5-.8-.7-1.4c-1.2.9-2.6 2-3.5 2c-2.2 0-3.6-1.8-3.6-3.7c0-1.5.7-2.4 2.4-3c1.8-.6 4-1.4 4.6-1.9c0 0 0-.6 0-.6c0-2.1-1-3.3-2.5-3.3c-.6 0-1 .2-1.3.6c-.4.3-.7 1-.9 1.9c-.1.5-.5.7-.9.7c-.5 0-1.3-.6-1.3-1.3c0-.4.4-.7.9-1.2c.9-.6 2.8-1.7 4.5-2.1c.9 0 1.8.3 2.5.8c1.1.9 1.4 2.1 1.4 3.7c0 0 0 5.6 0 5.6c0 1.3.5 1.8 1 1.8c.4 0 .8-.2 1.1-.3c-.01-.04.3.7.3.7c0 0-2.56 1.57-2.6 1.6zm-2.2-7.6c-.6.3-2 1-2.7 1.3c-1.1.5-1.8 1.1-1.8 2.2c0 1.5 1.2 2.3 2.1 2.3c.8-.1 1.9-.6 2.4-1.1c0 0 0-4.7 0-4.7zm16.8 4.7c-1.9 2.3-3.9 2.9-4.9 2.9c-3.7 0-5.8-3-5.8-6.4c0-2.1.7-3.9 2-5.3c1.2-1.4 2.8-2.2 4.4-2.2c2.5 0 4.5 2.3 4.5 4.6c0 .6-.2.8-.7 1c-.5 0-4.3.3-7.9.5c.1 4 2.4 5.7 4.5 5.7c1.2 0 2.4-.5 3.4-1.5c0 0 .5.7.5.7zm-8.2-6.2c1.7 0 3.3 0 5.1-.1c.5 0 .7-.1.7-.6c0-1.5-1-3-2.7-3c-1.3 0-2.7 1.3-3.1 3.7zm25.4 8.7c0 0-.02-.77 0-.8c1.7-.2 2-.4 2-2.5c0 0 0-5 0-5c0-2-.8-3.4-2.8-3.4c-1.2 0-2.3.8-3.2 1.5c0 0 0 7.1 0 7.1c0 2 .1 2.1 1.9 2.3c.01.03 0 .8 0 .8l-6.5 0c0 0 0-.77 0-.8c2-.2 2.2-.3 2.2-2.3c0 0 0-6.2 0-6.2c0-1.9-.2-2-1.8-2.3c0 0 0-.7 0-.7c1.4-.3 2.8-.7 4.2-1.3c0 0 0 2.4 0 2.4c.6-.4 1.2-.9 2-1.4c.8-.5 1.6-.9 2.5-.9c2.3 0 3.8 1.7 3.8 4.6c0 0 0 5.8 0 5.8c0 2 .2 2.1 1.9 2.3c.02.03 0 .8 0 .8l-6.2 0zm21-6.8c0 4.9-3.5 7.2-6.5 7.2c-4.1 0-6.6-3.3-6.6-6.7c0-4.9 3.9-7.2 6.6-7.2c3.7 0 6.5 3 6.5 6.7zm-10.3-.4c0 3.8 1.7 6.6 4.1 6.6c1.9 0 3.4-1.4 3.4-5.5c0-3.5-1.4-6.4-4-6.4c-1.9 0-3.5 1.9-3.5 5.3zm20.2-2.4c-.5-1.7-1.6-2.9-3.1-2.9c-1.1 0-1.9.9-1.9 2c0 1.4 1.2 2.1 2.5 2.6c2.3 1 3.8 2.1 3.8 4.1c0 2.8-2.5 4.2-4.9 4.2c-1.6 0-2.9-.6-3.5-1.1c-.2-.4-.5-2.4-.5-3.5c0 0 .8-.1.8-.1c.6 1.9 1.9 3.7 3.7 3.7c1.1 0 2.1-.9 2.1-2.1c0-1.3-.8-2.1-2.3-2.8c-1.8-.8-3.8-1.8-3.8-4.1c0-2.1 1.8-3.9 4.6-3.9c1.2 0 2 .3 2.7.5c.2.7.5 2.5.6 3.3c0 0-.8.1-.8.1zm12.8 10c-.4 0-1-.3-1.4-.6c-.4-.4-.5-.8-.7-1.4c-1.2.9-2.6 2-3.5 2c-2.2 0-3.6-1.8-3.6-3.7c0-1.5.8-2.4 2.4-3c1.8-.6 4-1.4 4.7-1.9c0 0 0-.6 0-.6c0-2.1-1.1-3.3-2.6-3.3c-.6 0-1 .2-1.3.6c-.4.3-.7 1-.9 1.9c-.1.5-.5.7-.9.7c-.5 0-1.3-.6-1.3-1.3c0-.4.4-.7 1-1.2c.8-.6 2.7-1.7 4.5-2.1c.9 0 1.8.3 2.4.8c1.1.9 1.4 2.1 1.4 3.7c0 0 0 5.6 0 5.6c0 1.3.5 1.8 1 1.8c.4 0 .8-.2 1.1-.3c0-.04.3.7.3.7c0 0-2.55 1.57-2.6 1.6zm-2.1-7.6c-.7.3-2.1 1-2.7 1.3c-1.2.5-1.9 1.1-1.9 2.2c0 1.5 1.2 2.3 2.2 2.3c.7-.1 1.8-.6 2.4-1.1c0 0 0-4.7 0-4.7zm22.1 7.2c0 0 0-.77 0-.8c1.8-.2 2.1-.3 2.1-2.4c0 0 0-5 0-5c0-2.1-.8-3.5-2.6-3.5c-1.1 0-2.3.6-3.4 1.6c.1.3.1.7.1 1.2c0 0 0 5.9 0 5.9c0 1.9.3 2 1.9 2.2c.01.03 0 .8 0 .8l-6.4 0c0 0-.01-.77 0-.8c1.8-.2 2.1-.3 2.1-2.3c0 0 0-5.1 0-5.1c0-2.3-.8-3.5-2.6-3.5c-1.2 0-2.4.8-3.3 1.6c0 0 0 7 0 7c0 2 .3 2.1 1.7 2.3c.05.03 0 .8 0 .8l-6.3 0c0 0 .02-.77 0-.8c2-.2 2.3-.3 2.3-2.3c0 0 0-6.2 0-6.2c0-1.9-.1-2.1-1.9-2.3c0 0 0-.7 0-.7c1.4-.3 2.9-.7 4.2-1.3c0 0 0 2.5 0 2.5c.6-.4 1.3-1 2.2-1.6c.8-.4 1.5-.8 2.5-.8c1.4 0 2.7.9 3.3 2.5c.9-.7 1.7-1.2 2.5-1.7c.6-.4 1.4-.8 2.2-.8c2.4 0 3.8 1.7 3.8 4.6c0 0 0 5.8 0 5.8c0 2 .3 2.1 2 2.3c-.01.03 0 .8 0 .8l-6.4 0zm22.9 0c0 0 .05-.77 0-.8c1.8-.2 2-.3 2-2.3c0 0 0-5 0-5c0-2.4-.9-3.7-2.9-3.7c-1.2 0-2.3.6-3.1 1.6c0 0 0 7.1 0 7.1c0 1.9.1 2.1 1.9 2.3c-.01.03 0 .8 0 .8l-6.4 0c0 0 .03-.77 0-.8c1.8-.1 2.1-.3 2.1-2.3c0 0 0-14.3 0-14.3c0-1.9-.1-2-2-2.2c0 0 0-.7 0-.7c1.4-.2 3.2-.7 4.4-1.1c0 0 0 10.1 0 10.1c1-1.1 2.6-2.2 4.3-2.2c2.4 0 4.1 1.6 4.1 5.2c0 0 0 5.2 0 5.2c0 2 .2 2.2 2 2.3c-.02.03 0 .8 0 .8l-6.4 0zm9.6-17.6c0-.9.7-1.6 1.5-1.6c.8 0 1.5.7 1.5 1.6c0 .8-.7 1.5-1.5 1.5c-.8 0-1.5-.7-1.5-1.5zm-1.6 17.6c0 0-.03-.77 0-.8c1.9-.2 2.1-.3 2.1-2.4c0 0 0-6.2 0-6.2c0-1.8-.1-1.9-1.9-2.2c0 0 0-.8 0-.8c1.5-.2 2.9-.6 4.2-1.1c0 0 0 10.3 0 10.3c0 2.1.2 2.2 2.2 2.4c-.03.03 0 .8 0 .8l-6.6 0zm13.6 0c-.5.2-1 .4-1.3.4c-1.9 0-2.9-1.2-2.9-3.6c-.01 0 0-8.7 0-8.7l-2.1 0l-.1-.3l.8-.9l1.4 0l0-2.2l1.9-2l.5.1l0 4.1c0 0 3.35 0 3.3 0c.3.3.2 1-.1 1.2c-.03-.03-3.2 0-3.2 0c0 0-.04 7.68 0 7.7c0 2.4.9 2.9 1.7 2.9c.7 0 1.4-.3 1.9-.6c-.04.05.2.8.2.8c0 0-2.01 1.08-2 1.1zm7.8-.6c0 2.3-2.1 3.6-3.9 4.1c0 0-.3-.9-.3-.9c1.4-.6 2.3-1.3 2.3-2.5c0-1.1-.9-1.7-1.9-2c-.2 0-.4-.2-.4-.7c0-.8.7-1.3 1.5-1.3c1 0 2.7 1.2 2.7 3.3zm16.3 7.9c0 0 .03-.84 0-.8c2.4-.3 2.6-.4 2.6-2.5c-.02-.03 0-4.9 0-4.9c0 0-3.2 1.27-3.2 1.3c-4.4 0-6.4-3.4-6.4-6.3c0-4.3 3.9-7.6 8-7.6c1 .1 1.7.3 2.1.4c.4.1.5.2.8.2c.2 0 .5-.1 1-.4c0 0 .1.1.1.1c0 .7-.1 1.2-.1 3.2c0 0 0 14 0 14c0 2.1.2 2.2 2.3 2.5c.03-.04 0 .8 0 .8l-7.2 0zm2.6-18.3c-.7-.8-2-1.3-3-1.3c-2 0-4 1.8-4 5.4c0 3.6 2.5 5.6 4.8 5.6c.9 0 1.6-.2 2.2-.5c0 0 0-9.2 0-9.2zm19.8 10.3c-1.4.2-3 .6-4.5 1.1c.04-.03-.1-.2-.1-.2c0 0-.04-2.14 0-2.1c-.7.5-1.4 1-2.3 1.5c-.8.5-1.5.8-2.3.8c-2 0-3.7-1.3-3.7-4.5c0 0 0-5.9 0-5.9c0-1.6-.1-1.8-1.8-2.1c0 0 0-.7 0-.7c1.4-.1 2.8-.2 4.3-.5c-.1.9-.1 2.3-.1 4.4c0 0 0 4 0 4c0 2.7 1.3 3.4 2.6 3.4c1.1 0 2.2-.5 3.3-1.5c0 0 0-7 0-7c0-1.7-.2-1.8-2.4-2.1c0 0 0-.7 0-.7c1.6-.1 3.1-.2 4.7-.5c0 0 0 10 0 10c0 1.5.3 1.7 1.4 1.8c.01-.02.9 0 .9 0c0 0-.05.79 0 .8zm10.9 1.1c-.5 0-1.1-.3-1.4-.6c-.4-.4-.6-.8-.8-1.4c-1.2.9-2.6 2-3.5 2c-2.1 0-3.6-1.8-3.6-3.7c0-1.5.8-2.4 2.4-3c1.8-.6 4-1.4 4.7-1.9c0 0 0-.6 0-.6c0-2.1-1-3.3-2.5-3.3c-.6 0-1.1.2-1.4.6c-.4.3-.6 1-.9 1.9c-.1.5-.4.7-.9.7c-.5 0-1.3-.6-1.3-1.3c0-.4.4-.7 1-1.2c.8-.6 2.8-1.7 4.5-2.1c.9 0 1.8.3 2.4.8c1.1.9 1.4 2.1 1.4 3.7c0 0 0 5.6 0 5.6c0 1.3.5 1.8 1 1.8c.4 0 .8-.2 1.1-.3c.02-.04.3.7.3.7c0 0-2.53 1.57-2.5 1.6zm-2.2-7.6c-.6.3-2.1 1-2.7 1.3c-1.2.5-1.8 1.1-1.8 2.2c0 1.5 1.2 2.3 2.1 2.3c.8-.1 1.8-.6 2.4-1.1c0 0 0-4.7 0-4.7zm11.2 7.2c-.5.2-1 .4-1.2.4c-1.9 0-3-1.2-3-3.6c.03 0 0-8.7 0-8.7l-2 0l-.2-.3l.9-.9l1.3 0l0-2.2l2-2l.4.1l0 4.1c0 0 3.39 0 3.4 0c.3.3.2 1-.2 1.2c.01-.03-3.2 0-3.2 0c0 0 0 7.68 0 7.7c0 2.4 1 2.9 1.7 2.9c.8 0 1.5-.3 1.9-.6c0 .05.3.8.3.8c0 0-2.07 1.08-2.1 1.1zm17.5-.7c-1.4.2-2.9.6-4.4 1.1c.01-.03-.2-.2-.2-.2c0 0 .03-2.14 0-2.1c-.7.5-1.3 1-2.2 1.5c-.9.5-1.5.8-2.3.8c-2 0-3.7-1.3-3.7-4.5c0 0 0-5.9 0-5.9c0-1.6-.1-1.8-1.8-2.1c0 0 0-.7 0-.7c1.4-.1 2.8-.2 4.2-.5c0 .9 0 2.3 0 4.4c0 0 0 4 0 4c0 2.7 1.2 3.4 2.6 3.4c1.1 0 2.2-.5 3.2-1.5c0 0 0-7 0-7c0-1.7-.1-1.8-2.3-2.1c0 0 0-.7 0-.7c1.6-.1 3.1-.2 4.7-.5c0 0 0 10 0 10c0 1.5.2 1.7 1.4 1.8c-.02-.02.8 0 .8 0c0 0 .02.79 0 .8zm5.9-9.6c.9-1.5 2.2-3.2 3.6-3.2c1.1 0 1.8.8 1.8 1.5c0 .6-.4 1.2-1 1.5c-.3.2-.6.1-.8-.1c-.4-.4-.8-.6-1.3-.6c-.7 0-1.7.9-2.4 2.6c0 0 0 5.5 0 5.5c0 2 .2 2.1 2.5 2.3c0 .03 0 .8 0 .8l-6.9 0c0 0 0-.77 0-.8c1.9-.2 2.1-.3 2.1-2.3c0 0 0-6.2 0-6.2c0-2-.2-2.1-1.9-2.4c0 0 0-.6 0-.6c1.5-.3 2.8-.6 4.2-1.3c.04.05 0 3.3 0 3.3c0 0 .1.02.1 0z" stroke="none" fill="#000"/></g><g id="Polygon7421"><path d="m51.9 178.1c-2.5.3-2.7.4-2.7 2.9c0 0 0 12.1 0 12.1c0 2.5.2 2.7 2.6 2.9c.04-.03 0 .8 0 .8l-8 0c0 0 0-.83 0-.8c2.6-.2 2.8-.4 2.8-2.9c.02.02 0-6 0-6l-10.2 0c0 0-.01 6.02 0 6c0 2.5.2 2.7 2.7 2.9c-.01-.03 0 .8 0 .8l-7.9 0c0 0 0-.83 0-.8c2.4-.2 2.6-.4 2.6-2.9c0 0 0-12.1 0-12.1c0-2.5-.2-2.6-2.7-2.9c.04.05 0-.8 0-.8l7.8 0c0 0 .01.85 0 .8c-2.3.3-2.5.4-2.5 2.9c-.01 0 0 4.9 0 4.9l10.2 0c0 0 .02-4.9 0-4.9c0-2.5-.2-2.6-2.6-2.9c.04.05 0-.8 0-.8l7.9 0c0 0-.03.85 0 .8zm12.2 16.2c-1.9 2.3-4 2.9-4.9 2.9c-3.7 0-5.9-3-5.9-6.4c0-2.1.8-3.9 2-5.3c1.2-1.4 2.9-2.2 4.4-2.2c2.5 0 4.5 2.3 4.5 4.6c0 .6-.1.8-.7 1c-.5 0-4.2.3-7.8.5c0 4 2.4 5.7 4.5 5.7c1.2 0 2.3-.5 3.4-1.5c0 0 .5.7.5.7zm-8.2-6.2c1.6 0 3.3 0 5-.1c.6 0 .7-.1.7-.6c.1-1.5-.9-3-2.6-3c-1.4 0-2.7 1.3-3.1 3.7zm18.5 8.7c0 0 .03-.77 0-.8c1.8-.2 2-.4 2-2.5c0 0 0-5 0-5c0-2-.7-3.4-2.7-3.4c-1.2 0-2.4.8-3.3 1.5c0 0 0 7.1 0 7.1c0 2 .2 2.1 2 2.3c-.04.03 0 .8 0 .8l-6.6 0c0 0 .05-.77 0-.8c2.1-.2 2.2-.3 2.2-2.3c0 0 0-6.2 0-6.2c0-1.9-.1-2-1.8-2.3c0 0 0-.7 0-.7c1.5-.3 2.9-.7 4.2-1.3c0 0 0 2.4 0 2.4c.6-.4 1.3-.9 2-1.4c.9-.5 1.6-.9 2.5-.9c2.4 0 3.9 1.7 3.9 4.6c0 0 0 5.8 0 5.8c0 2 .1 2.1 1.9 2.3c-.03.03 0 .8 0 .8l-6.3 0zm22.4-.8c-.7.1-2.9.5-4.7 1.2c.03-.03 0-2 0-2c0 0-1.8 1.1-1.8 1.1c-1.2.7-2 .9-2.3.9c-2.4 0-5.6-2.2-5.6-6.4c0-4.2 3.7-7.5 7.7-7.5c.5 0 1.3.1 2 .4c0 0 0-4.3 0-4.3c0-1.9-.1-2-2.3-2.2c0 0 0-.7 0-.7c1.6-.2 3.6-.7 4.7-1.1c0 0 0 18 0 18c0 1.5.2 1.7 1.3 1.8c.02-.01 1 .1 1 .1c0 0-.02.73 0 .7zm-4.7-10c-.7-1.1-1.9-1.6-3.1-1.6c-1.3 0-3.9 1.2-3.9 5.6c0 3.5 2.2 5.3 4.1 5.3c1.1 0 2.2-.5 2.9-1c0 0 0-8.3 0-8.3zm15.5 11.2c-.4 0-1-.3-1.4-.6c-.4-.4-.5-.8-.7-1.4c-1.2.9-2.6 2-3.5 2c-2.2 0-3.6-1.8-3.6-3.7c0-1.5.7-2.4 2.4-3c1.8-.6 4-1.4 4.6-1.9c0 0 0-.6 0-.6c0-2.1-1-3.3-2.5-3.3c-.6 0-1 .2-1.3.6c-.4.3-.7 1-.9 1.9c-.1.5-.5.7-.9.7c-.5 0-1.3-.6-1.3-1.3c0-.4.4-.7.9-1.2c.9-.6 2.8-1.7 4.5-2.1c.9 0 1.8.3 2.5.8c1.1.9 1.4 2.1 1.4 3.7c0 0 0 5.6 0 5.6c0 1.3.5 1.8 1 1.8c.4 0 .8-.2 1.1-.3c-.01-.04.3.7.3.7c0 0-2.56 1.57-2.6 1.6zm-2.2-7.6c-.6.3-2 1-2.7 1.3c-1.1.5-1.8 1.1-1.8 2.2c0 1.5 1.2 2.3 2.1 2.3c.8-.1 1.9-.6 2.4-1.1c0 0 0-4.7 0-4.7zm14.1 7.2c0 0 .05-.77 0-.8c1.8-.2 2-.4 2-2.5c0 0 0-5 0-5c0-2-.7-3.4-2.7-3.4c-1.2 0-2.4.8-3.3 1.5c0 0 0 7.1 0 7.1c0 2 .2 2.1 2 2.3c-.02.03 0 .8 0 .8l-6.5 0c0 0-.03-.77 0-.8c2-.2 2.2-.3 2.2-2.3c0 0 0-6.2 0-6.2c0-1.9-.2-2-1.8-2.3c0 0 0-.7 0-.7c1.4-.3 2.8-.7 4.1-1.3c0 0 0 2.4 0 2.4c.6-.4 1.3-.9 2-1.4c.9-.5 1.7-.9 2.5-.9c2.4 0 3.9 1.7 3.9 4.6c0 0 0 5.8 0 5.8c0 2 .1 2.1 1.9 2.3c-.01.03 0 .8 0 .8l-6.3 0zm22.4-.8c-.7.1-2.9.5-4.7 1.2c.05-.03 0-2 0-2c0 0-1.78 1.1-1.8 1.1c-1.2.7-2 .9-2.3.9c-2.4 0-5.6-2.2-5.6-6.4c0-4.2 3.7-7.5 7.8-7.5c.4 0 1.3.1 1.9.4c0 0 0-4.3 0-4.3c0-1.9-.1-2-2.3-2.2c0 0 0-.7 0-.7c1.6-.2 3.6-.7 4.7-1.1c0 0 0 18 0 18c0 1.5.2 1.7 1.3 1.8c.04-.01 1 .1 1 .1c0 0 0 .73 0 .7zm-4.7-10c-.7-1.1-1.9-1.6-3-1.6c-1.4 0-3.9 1.2-3.9 5.6c0 3.5 2.1 5.3 4.1 5.3c1 0 2.1-.5 2.8-1c0 0 0-8.3 0-8.3zm16.9 8.3c-1.9 2.3-4 2.9-4.9 2.9c-3.7 0-5.9-3-5.9-6.4c0-2.1.8-3.9 2-5.3c1.2-1.4 2.9-2.2 4.4-2.2c2.5 0 4.5 2.3 4.5 4.6c0 .6-.1.8-.7 1c-.5 0-4.2.3-7.8.5c0 4 2.4 5.7 4.5 5.7c1.2 0 2.3-.5 3.4-1.5c0 0 .5.7.5.7zm-8.2-6.2c1.6 0 3.3 0 5-.1c.6 0 .7-.1.7-.6c.1-1.5-.9-3-2.6-3c-1.4 0-2.7 1.3-3.1 3.7zm26.6 8.7c0 0-.03-.77 0-.8c1.7-.2 2.1-.3 2.1-2.4c0 0 0-5 0-5c0-2.1-.8-3.5-2.7-3.5c-1.1 0-2.2.6-3.3 1.6c0 .3.1.7.1 1.2c0 0 0 5.9 0 5.9c0 1.9.2 2 1.9 2.2c-.02.03 0 .8 0 .8l-6.4 0c0 0-.04-.77 0-.8c1.8-.2 2.1-.3 2.1-2.3c0 0 0-5.1 0-5.1c0-2.3-.8-3.5-2.6-3.5c-1.2 0-2.4.8-3.3 1.6c0 0 0 7 0 7c0 2 .2 2.1 1.7 2.3c.02.03 0 .8 0 .8l-6.3 0c0 0-.01-.77 0-.8c2-.2 2.2-.3 2.2-2.3c0 0 0-6.2 0-6.2c0-1.9-.1-2.1-1.8-2.3c0 0 0-.7 0-.7c1.3-.3 2.9-.7 4.2-1.3c0 0 0 2.5 0 2.5c.6-.4 1.3-1 2.2-1.6c.7-.4 1.5-.8 2.4-.8c1.5 0 2.8.9 3.4 2.5c.8-.7 1.7-1.2 2.4-1.7c.7-.4 1.5-.8 2.3-.8c2.3 0 3.8 1.7 3.8 4.6c0 0 0 5.8 0 5.8c0 2 .2 2.1 2 2.3c-.04.03 0 .8 0 .8l-6.4 0zm8.8-1.4c0-.9.7-1.7 1.7-1.7c.9 0 1.6.8 1.6 1.7c0 1.1-.7 1.8-1.6 1.8c-1 0-1.7-.7-1.7-1.8zm33.5-17.3c-1.7.1-2.4.5-2.6 1.8c-.1.9-.1 2.3-.1 5.1c-.03-.01 0 12.1 0 12.1l-1 0l-12.7-15.7l-.1 0c0 0 0 7.49 0 7.5c0 2.7.1 4.2.2 5.1c.1 1.5.8 1.8 2.9 2c-.04-.03 0 .8 0 .8l-7.2 0c0 0 .05-.83 0-.8c1.8-.1 2.5-.5 2.7-2c.1-.9.2-2.4.2-5.1c0 0 0-6.6 0-6.6c0-2.2-.1-2.3-.6-3c-.6-.8-1.3-1-2.7-1.2c0 .05 0-.8 0-.8l4.4 0l12.5 15.1l.1 0c0 0 .04-7.41 0-7.4c0-2.8-.1-4.2-.2-5c-.1-1.3-.8-1.7-2.9-1.9c-.01.05 0-.8 0-.8l7.1 0c0 0-.03.85 0 .8zm10.3 19.1c-.4 0-1-.3-1.4-.6c-.4-.4-.5-.8-.7-1.4c-1.2.9-2.6 2-3.5 2c-2.2 0-3.6-1.8-3.6-3.7c0-1.5.8-2.4 2.4-3c1.8-.6 4-1.4 4.7-1.9c0 0 0-.6 0-.6c0-2.1-1.1-3.3-2.6-3.3c-.6 0-1 .2-1.3.6c-.4.3-.7 1-.9 1.9c-.1.5-.5.7-.9.7c-.5 0-1.3-.6-1.3-1.3c0-.4.4-.7 1-1.2c.8-.6 2.7-1.7 4.5-2.1c.9 0 1.8.3 2.4.8c1.1.9 1.4 2.1 1.4 3.7c0 0 0 5.6 0 5.6c0 1.3.5 1.8 1 1.8c.4 0 .8-.2 1.1-.3c0-.04.3.7.3.7c0 0-2.55 1.57-2.6 1.6zm-2.1-7.6c-.7.3-2.1 1-2.7 1.3c-1.2.5-1.9 1.1-1.9 2.2c0 1.5 1.2 2.3 2.2 2.3c.7-.1 1.8-.6 2.4-1.1c0 0 0-4.7 0-4.7zm22.1 7.2c0 0 0-.77 0-.8c1.8-.2 2.1-.3 2.1-2.4c0 0 0-5 0-5c0-2.1-.8-3.5-2.6-3.5c-1.1 0-2.3.6-3.4 1.6c.1.3.1.7.1 1.2c0 0 0 5.9 0 5.9c0 1.9.3 2 1.9 2.2c.01.03 0 .8 0 .8l-6.4 0c0 0-.01-.77 0-.8c1.8-.2 2.1-.3 2.1-2.3c0 0 0-5.1 0-5.1c0-2.3-.8-3.5-2.6-3.5c-1.2 0-2.4.8-3.3 1.6c0 0 0 7 0 7c0 2 .3 2.1 1.7 2.3c.05.03 0 .8 0 .8l-6.3 0c0 0 .02-.77 0-.8c2-.2 2.3-.3 2.3-2.3c0 0 0-6.2 0-6.2c0-1.9-.1-2.1-1.9-2.3c0 0 0-.7 0-.7c1.4-.3 2.9-.7 4.2-1.3c0 0 0 2.5 0 2.5c.6-.4 1.3-1 2.2-1.6c.8-.4 1.5-.8 2.5-.8c1.4 0 2.7.9 3.3 2.5c.9-.7 1.7-1.2 2.5-1.7c.6-.4 1.4-.8 2.2-.8c2.4 0 3.8 1.7 3.8 4.6c0 0 0 5.8 0 5.8c0 2 .3 2.1 2 2.3c-.01.03 0 .8 0 .8l-6.4 0zm12.7-.6c0 2.3-2.1 3.6-4 4.1c0 0-.3-.9-.3-.9c1.4-.6 2.3-1.3 2.3-2.5c0-1.1-.8-1.7-1.9-2c-.1 0-.3-.2-.3-.7c0-.8.7-1.3 1.4-1.3c1.1 0 2.8 1.2 2.8 3.3zm16.3 7.9c0 0-.02-.84 0-.8c2.3-.3 2.5-.4 2.5-2.5c.03-.03 0-4.9 0-4.9c0 0-3.15 1.27-3.2 1.3c-4.3 0-6.4-3.4-6.4-6.3c0-4.3 3.9-7.6 8-7.6c1.1.1 1.7.3 2.1.4c.4.1.5.2.8.2c.2 0 .6-.1 1-.4c0 0 .2.1.2.1c-.1.7-.1 1.2-.1 3.2c0 0 0 14 0 14c0 2.1.2 2.2 2.3 2.5c-.02-.04 0 .8 0 .8l-7.2 0zm2.5-18.3c-.7-.8-2-1.3-2.9-1.3c-2.1 0-4 1.8-4 5.4c0 3.6 2.5 5.6 4.7 5.6c.9 0 1.6-.2 2.2-.5c0 0 0-9.2 0-9.2zm19.8 10.3c-1.4.2-2.9.6-4.4 1.1c-.01-.03-.2-.2-.2-.2c0 0 .01-2.14 0-2.1c-.7.5-1.4 1-2.2 1.5c-.9.5-1.5.8-2.3.8c-2 0-3.7-1.3-3.7-4.5c0 0 0-5.9 0-5.9c0-1.6-.2-1.8-1.9-2.1c0 0 0-.7 0-.7c1.4-.1 2.9-.2 4.3-.5c-.1.9-.1 2.3-.1 4.4c0 0 0 4 0 4c0 2.7 1.3 3.4 2.7 3.4c1 0 2.2-.5 3.2-1.5c0 0 0-7 0-7c0-1.7-.2-1.8-2.3-2.1c0 0 0-.7 0-.7c1.5-.1 3.1-.2 4.7-.5c0 0 0 10 0 10c0 1.5.2 1.7 1.4 1.8c-.04-.02.8 0 .8 0c0 0 0 .79 0 .8zm2.9-16.9c0-.9.8-1.6 1.6-1.6c.8 0 1.5.7 1.5 1.6c0 .8-.7 1.5-1.6 1.5c-.7 0-1.5-.7-1.5-1.5zm-1.6 17.6c0 0 .05-.77 0-.8c1.9-.2 2.1-.3 2.1-2.4c0 0 0-6.2 0-6.2c0-1.8 0-1.9-1.8-2.2c0 0 0-.8 0-.8c1.5-.2 2.9-.6 4.2-1.1c0 0 0 10.3 0 10.3c0 2.1.2 2.2 2.1 2.4c.05.03 0 .8 0 .8l-6.6 0zm22.6-.8c-.6.1-2.9.5-4.6 1.2c-.01-.03 0-2 0-2c0 0-1.84 1.1-1.8 1.1c-1.2.7-2 .9-2.4.9c-2.4 0-5.5-2.2-5.5-6.4c0-4.2 3.6-7.5 7.7-7.5c.4 0 1.3.1 2 .4c0 0 0-4.3 0-4.3c0-1.9-.2-2-2.3-2.2c0 0 0-.7 0-.7c1.5-.2 3.5-.7 4.7-1.1c0 0 0 18 0 18c0 1.5.2 1.7 1.3 1.8c-.02-.01.9.1.9.1c0 0 .04.73 0 .7zm-4.6-10c-.7-1.1-2-1.6-3.1-1.6c-1.4 0-3.9 1.2-3.9 5.6c0 3.5 2.2 5.3 4.1 5.3c1.1 0 2.2-.5 2.9-1c0 0 0-8.3 0-8.3zm20.1 10.1c-1.3.2-2.9.6-4.4 1.1c.04-.03-.1-.2-.1-.2c0 0-.04-2.14 0-2.1c-.7.5-1.4 1-2.3 1.5c-.8.5-1.5.8-2.3.8c-2 0-3.7-1.3-3.7-4.5c0 0 0-5.9 0-5.9c0-1.6-.1-1.8-1.8-2.1c0 0 0-.7 0-.7c1.4-.1 2.8-.2 4.3-.5c-.1.9-.1 2.3-.1 4.4c0 0 0 4 0 4c0 2.7 1.3 3.4 2.6 3.4c1.1 0 2.2-.5 3.3-1.5c0 0 0-7 0-7c0-1.7-.2-1.8-2.4-2.1c0 0 0-.7 0-.7c1.6-.1 3.1-.2 4.7-.5c0 0 0 10 0 10c0 1.5.3 1.7 1.4 1.8c.01-.02.8 0 .8 0c0 0 .05.79 0 .8zm12.7-2c-1.3 1.7-3.4 3.1-5.1 3.1c-3.8 0-6-3.1-6-6.3c0-2.3 1-4.3 3-5.9c1.5-1.2 3.3-1.7 4.5-1.7c1.2 0 2.2.4 2.7.8c.4.3.5.6.5.9c0 .7-.7 1.3-1 1.3c-.2 0-.3-.1-.6-.3c-.9-.8-2-1.2-3-1.2c-2 0-3.7 1.6-3.7 4.8c0 4.1 2.8 5.5 4.5 5.5c1.3 0 2.3-.3 3.7-1.6c0 0 .5.6.5.6zm3-14.9c0-.9.7-1.6 1.5-1.6c.8 0 1.5.7 1.5 1.6c0 .8-.7 1.5-1.5 1.5c-.8 0-1.5-.7-1.5-1.5zm-1.6 17.6c0 0-.01-.77 0-.8c1.9-.2 2.1-.3 2.1-2.4c0 0 0-6.2 0-6.2c0-1.8-.1-1.9-1.9-2.2c0 0 0-.8 0-.8c1.5-.2 2.9-.6 4.3-1.1c0 0 0 10.3 0 10.3c0 2.1.2 2.2 2.1 2.4c-.01.03 0 .8 0 .8l-6.6 0zm7.7 0c0 0-.03-.77 0-.8c1.9-.2 2.1-.3 2.1-2.3c0 0 0-14.2 0-14.2c0-2-.2-2.1-2-2.3c0 0 0-.7 0-.7c1.5-.2 3.4-.7 4.4-1.1c0 0 0 18.3 0 18.3c0 2 .2 2.1 2.2 2.3c-.04.03 0 .8 0 .8l-6.7 0z" stroke="none" fill="#000"/></g><g id="Polygon7420"><path d="m14.2 155c0 4.9-3.6 7.2-6.5 7.2c-4.1 0-6.6-3.3-6.6-6.7c0-4.9 3.8-7.2 6.6-7.2c3.7 0 6.5 3 6.5 6.7zm-10.3-.4c0 3.8 1.6 6.6 4.1 6.6c1.9 0 3.4-1.4 3.4-5.5c0-3.5-1.4-6.4-4-6.4c-1.9 0-3.5 1.9-3.5 5.3zm27.2 6.4c-.7.1-2.9.5-4.7 1.2c.03-.03 0-2 0-2c0 0-1.8 1.1-1.8 1.1c-1.2.7-2 .9-2.3.9c-2.4 0-5.6-2.2-5.6-6.4c0-4.2 3.7-7.5 7.7-7.5c.5 0 1.3.1 2 .4c0 0 0-4.3 0-4.3c0-1.9-.1-2-2.3-2.2c0 0 0-.7 0-.7c1.6-.2 3.6-.7 4.7-1.1c0 0 0 18 0 18c0 1.5.2 1.7 1.3 1.8c.02-.01 1 .1 1 .1c0 0-.02.73 0 .7zm-4.7-10c-.7-1.1-1.9-1.6-3.1-1.6c-1.3 0-3.9 1.2-3.9 5.6c0 3.5 2.2 5.3 4.1 5.3c1.1 0 2.2-.5 2.9-1c0 0 0-8.3 0-8.3zm7.6-6.8c0-.9.7-1.6 1.5-1.6c.8 0 1.5.7 1.5 1.6c0 .8-.7 1.5-1.5 1.5c-.8 0-1.5-.7-1.5-1.5zm-1.6 17.6c0 0-.03-.77 0-.8c1.9-.2 2.1-.3 2.1-2.4c0 0 0-6.2 0-6.2c0-1.8-.1-1.9-1.9-2.2c0 0 0-.8 0-.8c1.5-.2 2.9-.6 4.2-1.1c0 0 0 10.3 0 10.3c0 2.1.2 2.2 2.2 2.4c-.03.03 0 .8 0 .8l-6.6 0zm15.8-9.6c-.6-1.7-1.6-2.9-3.1-2.9c-1.2 0-2 .9-2 2c0 1.4 1.2 2.1 2.6 2.6c2.2 1 3.8 2.1 3.8 4.1c0 2.8-2.6 4.2-5 4.2c-1.5 0-2.9-.6-3.4-1.1c-.2-.4-.5-2.4-.5-3.5c0 0 .8-.1.8-.1c.5 1.9 1.9 3.7 3.7 3.7c1.1 0 2.1-.9 2.1-2.1c0-1.3-.9-2.1-2.4-2.8c-1.8-.8-3.7-1.8-3.7-4.1c0-2.1 1.8-3.9 4.5-3.9c1.3 0 2.1.3 2.7.5c.2.7.6 2.5.7 3.3c0 0-.8.1-.8.1zm14.6 6.9c-1.3 1.7-3.3 3.1-5.1 3.1c-3.7 0-6-3.1-6-6.3c0-2.3 1-4.3 3-5.9c1.6-1.2 3.4-1.7 4.6-1.7c1.2 0 2.2.4 2.6.8c.4.3.5.6.5.9c0 .7-.6 1.3-1 1.3c-.1 0-.3-.1-.5-.3c-.9-.8-2-1.2-3-1.2c-2 0-3.8 1.6-3.8 4.8c0 4.1 2.9 5.5 4.6 5.5c1.3 0 2.3-.3 3.6-1.6c0 0 .5.6.5.6zm3-14.9c0-.9.8-1.6 1.6-1.6c.8 0 1.5.7 1.5 1.6c0 .8-.7 1.5-1.6 1.5c-.7 0-1.5-.7-1.5-1.5zm-1.5 17.6c0 0-.04-.77 0-.8c1.8-.2 2.1-.3 2.1-2.4c0 0 0-6.2 0-6.2c0-1.8-.1-1.9-1.9-2.2c0 0 0-.8 0-.8c1.5-.2 2.9-.6 4.2-1.1c0 0 0 10.3 0 10.3c0 2.1.2 2.2 2.2 2.4c-.04.03 0 .8 0 .8l-6.6 0zm22.2-.7c-1.4.2-2.9.6-4.4 1.1c.01-.03-.2-.2-.2-.2c0 0 .03-2.14 0-2.1c-.7.5-1.4 1-2.2 1.5c-.9.5-1.5.8-2.3.8c-2 0-3.7-1.3-3.7-4.5c0 0 0-5.9 0-5.9c0-1.6-.1-1.8-1.9-2.1c0 0 0-.7 0-.7c1.5-.1 2.9-.2 4.3-.5c-.1.9-.1 2.3-.1 4.4c0 0 0 4 0 4c0 2.7 1.3 3.4 2.7 3.4c1.1 0 2.2-.5 3.2-1.5c0 0 0-7 0-7c0-1.7-.2-1.8-2.3-2.1c0 0 0-.7 0-.7c1.5-.1 3.1-.2 4.7-.5c0 0 0 10 0 10c0 1.5.2 1.7 1.4 1.8c-.02-.02.8 0 .8 0c0 0 .02.79 0 .8zm9.1-8.9c-.5-1.7-1.6-2.9-3.1-2.9c-1.1 0-1.9.9-1.9 2c0 1.4 1.2 2.1 2.5 2.6c2.3 1 3.8 2.1 3.8 4.1c0 2.8-2.5 4.2-4.9 4.2c-1.6 0-2.9-.6-3.5-1.1c-.2-.4-.5-2.4-.5-3.5c0 0 .8-.1.8-.1c.6 1.9 1.9 3.7 3.7 3.7c1.1 0 2.1-.9 2.1-2.1c0-1.3-.8-2.1-2.3-2.8c-1.8-.8-3.8-1.8-3.8-4.1c0-2.1 1.8-3.9 4.6-3.9c1.2 0 2 .3 2.7.5c.2.7.5 2.5.6 3.3c0 0-.8.1-.8.1zm9 9.6c-.5.2-1 .4-1.3.4c-1.9 0-2.9-1.2-2.9-3.6c-.02 0 0-8.7 0-8.7l-2.1 0l-.1-.3l.8-.9l1.4 0l0-2.2l1.9-2l.4.1l0 4.1c0 0 3.44 0 3.4 0c.3.3.2 1-.1 1.2c-.04-.03-3.3 0-3.3 0c0 0 .05 7.68 0 7.7c0 2.4 1 2.9 1.8 2.9c.7 0 1.4-.3 1.8-.6c.05.05.3.8.3.8c0 0-2.02 1.08-2 1.1zm14.5-10.3c.9-1.5 2.2-3.2 3.7-3.2c1 0 1.7.8 1.7 1.5c0 .6-.4 1.2-1 1.5c-.3.2-.6.1-.8-.1c-.4-.4-.8-.6-1.2-.6c-.8 0-1.8.9-2.4 2.6c0 0 0 5.5 0 5.5c0 2 .1 2.1 2.4 2.3c.03.03 0 .8 0 .8l-6.9 0c0 0 .03-.77 0-.8c1.9-.2 2.1-.3 2.1-2.3c0 0 0-6.2 0-6.2c0-2-.2-2.1-1.9-2.4c0 0 0-.6 0-.6c1.5-.3 2.8-.6 4.3-1.3c-.03.05 0 3.3 0 3.3c0 0 .03.02 0 0zm17.1 7.8c-1.9 2.3-3.9 2.9-4.9 2.9c-3.7 0-5.8-3-5.8-6.4c0-2.1.7-3.9 2-5.3c1.2-1.4 2.8-2.2 4.4-2.2c2.5 0 4.5 2.3 4.5 4.6c0 .6-.2.8-.7 1c-.5 0-4.3.3-7.8.5c0 4 2.3 5.7 4.4 5.7c1.2 0 2.4-.5 3.4-1.5c0 0 .5.7.5.7zm-8.2-6.2c1.7 0 3.3 0 5.1-.1c.5 0 .7-.1.7-.6c0-1.5-1-3-2.6-3c-1.4 0-2.7 1.3-3.2 3.7zm17-4.3c.5-.3 1.1-.5 1.4-.5c3.4 0 5.3 2.7 5.3 5.7c0 4.5-3.5 7.4-7.4 8.2c-.9-.1-1.7-.4-2.1-.6c0 0 0 4 0 4c0 2.2.2 2.4 2.5 2.6c.05 0 0 .8 0 .8l-7.1 0c0 0 .04-.8 0-.8c2-.2 2.2-.4 2.2-2.3c0 0 0-13.6 0-13.6c0-2-.1-2-2-2.3c0 0 0-.7 0-.7c1.3-.2 3-.7 4.4-1.3c0 .04 0 2.4 0 2.4c0 0 2.76-1.61 2.8-1.6zm-2.8 10.7c.7.7 1.8 1.2 2.8 1.2c2.5 0 4.2-2.2 4.2-5.6c0-3.2-1.8-5-4-5c-1 0-2.2.7-3 1.3c0 0 0 8.1 0 8.1zm22.8-.2c-1.9 2.3-4 2.9-4.9 2.9c-3.7 0-5.9-3-5.9-6.4c0-2.1.8-3.9 2-5.3c1.2-1.4 2.9-2.2 4.4-2.2c2.5 0 4.5 2.3 4.5 4.6c0 .6-.1.8-.7 1c-.5 0-4.2.3-7.8.5c0 4 2.4 5.7 4.5 5.7c1.2 0 2.3-.5 3.4-1.5c0 0 .5.7.5.7zm-8.3-6.2c1.7 0 3.4 0 5.1-.1c.6 0 .7-.1.7-.6c.1-1.5-1-3-2.6-3c-1.4 0-2.7 1.3-3.2 3.7zm9.5 8.7c0 0 0-.77 0-.8c1.9-.2 2.2-.3 2.2-2.3c0 0 0-14.2 0-14.2c0-2-.2-2.1-2.1-2.3c0 0 0-.7 0-.7c1.5-.2 3.4-.7 4.4-1.1c0 0 0 18.3 0 18.3c0 2 .3 2.1 2.2 2.3c-.01.03 0 .8 0 .8l-6.7 0zm16.5-17.6c0-.9.7-1.6 1.5-1.6c.9 0 1.5.7 1.5 1.6c0 .8-.6 1.5-1.5 1.5c-.8 0-1.5-.7-1.5-1.5zm-1.6 17.6c0 0 .01-.77 0-.8c1.9-.2 2.1-.3 2.1-2.4c0 0 0-6.2 0-6.2c0-1.8-.1-1.9-1.9-2.2c0 0 0-.8 0-.8c1.5-.2 3-.6 4.3-1.1c0 0 0 10.3 0 10.3c0 2.1.2 2.2 2.1 2.4c.01.03 0 .8 0 .8l-6.6 0zm7.7 0c0 0-.01-.77 0-.8c1.9-.2 2.1-.3 2.1-2.3c0 0 0-14.2 0-14.2c0-2-.1-2.1-2-2.3c0 0 0-.7 0-.7c1.5-.2 3.4-.7 4.4-1.1c0 0 0 18.3 0 18.3c0 2 .3 2.1 2.2 2.3c-.02.03 0 .8 0 .8l-6.7 0zm31.4 0c0 0 .02-.77 0-.8c1.8-.2 2.1-.3 2.1-2.4c0 0 0-5 0-5c0-2.1-.7-3.5-2.6-3.5c-1.1 0-2.2.6-3.4 1.6c.1.3.1.7.1 1.2c0 0 0 5.9 0 5.9c0 1.9.3 2 1.9 2.2c.03.03 0 .8 0 .8l-6.4 0c0 0 .01-.77 0-.8c1.9-.2 2.1-.3 2.1-2.3c0 0 0-5.1 0-5.1c0-2.3-.7-3.5-2.6-3.5c-1.2 0-2.3.8-3.2 1.6c0 0 0 7 0 7c0 2 .2 2.1 1.7 2.3c-.03.03 0 .8 0 .8l-6.4 0c0 0 .04-.77 0-.8c2-.2 2.3-.3 2.3-2.3c0 0 0-6.2 0-6.2c0-1.9-.1-2.1-1.8-2.3c0 0 0-.7 0-.7c1.3-.3 2.8-.7 4.1-1.3c0 0 0 2.5 0 2.5c.7-.4 1.3-1 2.2-1.6c.8-.4 1.5-.8 2.5-.8c1.4 0 2.7.9 3.3 2.5c.9-.7 1.8-1.2 2.5-1.7c.6-.4 1.4-.8 2.3-.8c2.3 0 3.8 1.7 3.8 4.6c0 0 0 5.8 0 5.8c0 2 .2 2.1 1.9 2.3c.01.03 0 .8 0 .8l-6.4 0zm9.7-17.6c0-.9.7-1.6 1.5-1.6c.8 0 1.5.7 1.5 1.6c0 .8-.7 1.5-1.5 1.5c-.8 0-1.5-.7-1.5-1.5zm-1.6 17.6c0 0-.04-.77 0-.8c1.9-.2 2.1-.3 2.1-2.4c0 0 0-6.2 0-6.2c0-1.8-.1-1.9-1.9-2.2c0 0 0-.8 0-.8c1.5-.2 2.9-.6 4.2-1.1c0 0 0 10.3 0 10.3c0 2.1.2 2.2 2.2 2.4c-.04.03 0 .8 0 .8l-6.6 0zm12.4-.6c0 2.3-2.1 3.6-3.9 4.1c0 0-.3-.9-.3-.9c1.4-.6 2.3-1.3 2.3-2.5c0-1.1-.8-1.7-1.9-2c-.1 0-.4-.2-.4-.7c0-.8.8-1.3 1.5-1.3c1.1 0 2.7 1.2 2.7 3.3zm23.7-.1c-1.4.2-3 .6-4.5 1.1c.04-.03-.1-.2-.1-.2c0 0-.04-2.14 0-2.1c-.7.5-1.4 1-2.3 1.5c-.8.5-1.5.8-2.3.8c-2 0-3.7-1.3-3.7-4.5c0 0 0-5.9 0-5.9c0-1.6-.1-1.8-1.8-2.1c0 0 0-.7 0-.7c1.4-.1 2.8-.2 4.3-.5c-.1.9-.1 2.3-.1 4.4c0 0 0 4 0 4c0 2.7 1.3 3.4 2.6 3.4c1.1 0 2.2-.5 3.3-1.5c0 0 0-7 0-7c0-1.7-.2-1.8-2.4-2.1c0 0 0-.7 0-.7c1.6-.1 3.1-.2 4.7-.5c0 0 0 10 0 10c0 1.5.3 1.7 1.4 1.8c.01-.02.9 0 .9 0c0 0-.05.79 0 .8zm6.9.7c-.5.2-1 .4-1.3.4c-1.9 0-2.9-1.2-2.9-3.6c-.02 0 0-8.7 0-8.7l-2.1 0l-.1-.3l.8-.9l1.4 0l0-2.2l1.9-2l.5.1l0 4.1c0 0 3.34 0 3.3 0c.3.3.2 1-.1 1.2c-.04-.03-3.2 0-3.2 0c0 0-.05 7.68 0 7.7c0 2.4.9 2.9 1.7 2.9c.7 0 1.4-.3 1.9-.6c-.05.05.2.8.2.8c0 0-2.02 1.08-2 1.1zm24.6-.8c-.7.1-3 .5-4.7 1.2c0-.03 0-2 0-2c0 0-1.83 1.1-1.8 1.1c-1.2.7-2 .9-2.4.9c-2.4 0-5.5-2.2-5.5-6.4c0-4.2 3.6-7.5 7.7-7.5c.4 0 1.3.1 2 .4c0 0 0-4.3 0-4.3c0-1.9-.1-2-2.3-2.2c0 0 0-.7 0-.7c1.6-.2 3.6-.7 4.7-1.1c0 0 0 18 0 18c0 1.5.2 1.7 1.3 1.8c-.01-.01 1 .1 1 .1c0 0-.05.73 0 .7zm-4.7-10c-.7-1.1-1.9-1.6-3.1-1.6c-1.4 0-3.9 1.2-3.9 5.6c0 3.5 2.2 5.3 4.1 5.3c1.1 0 2.2-.5 2.9-1c0 0 0-8.3 0-8.3zm7.5-6.8c0-.9.8-1.6 1.6-1.6c.8 0 1.5.7 1.5 1.6c0 .8-.7 1.5-1.6 1.5c-.7 0-1.5-.7-1.5-1.5zm-1.6 17.6c0 0 .04-.77 0-.8c1.9-.2 2.1-.3 2.1-2.4c0 0 0-6.2 0-6.2c0-1.8 0-1.9-1.8-2.2c0 0 0-.8 0-.8c1.5-.2 2.9-.6 4.2-1.1c0 0 0 10.3 0 10.3c0 2.1.2 2.2 2.1 2.4c.04.03 0 .8 0 .8l-6.6 0zm13.7 0c-.5.2-1 .4-1.3.4c-1.9 0-2.9-1.2-2.9-3.6c-.04 0 0-8.7 0-8.7l-2.1 0l-.1-.3l.8-.9l1.4 0l0-2.2l1.9-2l.4.1l0 4.1c0 0 3.42 0 3.4 0c.3.3.2 1-.2 1.2c.04-.03-3.2 0-3.2 0c0 0 .03 7.68 0 7.7c0 2.4 1 2.9 1.8 2.9c.7 0 1.4-.3 1.8-.6c.03.05.3.8.3.8c0 0-2.04 1.08-2 1.1zm4.9-17.6c0-.9.7-1.6 1.5-1.6c.9 0 1.5.7 1.5 1.6c0 .8-.6 1.5-1.5 1.5c-.8 0-1.5-.7-1.5-1.5zm-1.6 17.6c0 0 .02-.77 0-.8c1.9-.2 2.1-.3 2.1-2.4c0 0 0-6.2 0-6.2c0-1.8-.1-1.9-1.9-2.2c0 0 0-.8 0-.8c1.6-.2 3-.6 4.3-1.1c0 0 0 10.3 0 10.3c0 2.1.2 2.2 2.1 2.4c.02.03 0 .8 0 .8l-6.6 0zm17.6.4c-.4 0-1-.3-1.4-.6c-.4-.4-.5-.8-.7-1.4c-1.2.9-2.6 2-3.5 2c-2.2 0-3.6-1.8-3.6-3.7c0-1.5.7-2.4 2.4-3c1.8-.6 4-1.4 4.6-1.9c0 0 0-.6 0-.6c0-2.1-1-3.3-2.5-3.3c-.6 0-1 .2-1.3.6c-.4.3-.7 1-.9 1.9c-.1.5-.5.7-.9.7c-.5 0-1.3-.6-1.3-1.3c0-.4.4-.7.9-1.2c.9-.6 2.8-1.7 4.5-2.1c.9 0 1.8.3 2.5.8c1.1.9 1.4 2.1 1.4 3.7c0 0 0 5.6 0 5.6c0 1.3.5 1.8 1 1.8c.4 0 .8-.2 1.1-.3c-.02-.04.3.7.3.7c0 0-2.57 1.57-2.6 1.6zm-2.2-7.6c-.6.3-2 1-2.7 1.3c-1.1.5-1.8 1.1-1.8 2.2c0 1.5 1.2 2.3 2.1 2.3c.8-.1 1.9-.6 2.4-1.1c0 0 0-4.7 0-4.7zm11.3 7.2c-.5.2-1 .4-1.3.4c-1.9 0-2.9-1.2-2.9-3.6c-.01 0 0-8.7 0-8.7l-2.1 0l-.1-.3l.8-.9l1.4 0l0-2.2l1.9-2l.5.1l0 4.1c0 0 3.35 0 3.4 0c.2.3.1 1-.2 1.2c-.03-.03-3.2 0-3.2 0c0 0-.04 7.68 0 7.7c0 2.4 1 2.9 1.7 2.9c.8 0 1.4-.3 1.9-.6c-.04.05.2.8.2.8c0 0-2.01 1.08-2 1.1zm4-1.4c0-.9.7-1.7 1.7-1.7c.9 0 1.6.8 1.6 1.7c0 1.1-.7 1.8-1.6 1.8c-1 0-1.7-.7-1.7-1.8z" stroke="none" fill="#000"/></g><g id="Polygon7419"><path d="m21.6 108.1c-1.7.1-2.4.5-2.6 1.8c-.1.9-.1 2.3-.1 5.1c-.03-.01 0 12.1 0 12.1l-1 0l-12.7-15.7l-.1 0c0 0 0 7.49 0 7.5c0 2.7.1 4.2.2 5.1c.1 1.5.8 1.8 2.9 2c-.04-.03 0 .8 0 .8l-7.2 0c0 0 .05-.83 0-.8c1.8-.1 2.5-.5 2.7-2c.1-.9.2-2.4.2-5.1c0 0 0-6.6 0-6.6c0-2.2-.1-2.3-.6-3c-.6-.8-1.3-1-2.7-1.2c0 .05 0-.8 0-.8l4.4 0l12.5 15.1l.1 0c0 0 .04-7.41 0-7.4c0-2.8-.1-4.2-.2-5c-.1-1.3-.8-1.7-2.9-1.9c-.01.05 0-.8 0-.8l7.1 0c0 0-.03.85 0 .8zm11.8 16.2c-1.9 2.3-4 2.9-4.9 2.9c-3.7 0-5.8-3-5.8-6.4c0-2.1.7-3.9 1.9-5.3c1.3-1.4 2.9-2.2 4.4-2.2c2.5 0 4.5 2.3 4.5 4.6c0 .6-.1.8-.6 1c-.6 0-4.3.3-7.9.5c.1 4 2.4 5.7 4.5 5.7c1.2 0 2.3-.5 3.4-1.5c0 0 .5.7.5.7zm-8.2-6.2c1.7 0 3.3 0 5-.1c.6 0 .8-.1.8-.6c0-1.5-1-3-2.7-3c-1.4 0-2.7 1.3-3.1 3.7zm17.5 16c0 0-.01-.84 0-.8c2.3-.3 2.5-.4 2.5-2.5c.04-.03 0-4.9 0-4.9c0 0-3.14 1.27-3.1 1.3c-4.4 0-6.5-3.4-6.5-6.3c0-4.3 3.9-7.6 8-7.6c1.1.1 1.8.3 2.1.4c.4.1.6.2.8.2c.2 0 .6-.1 1-.4c0 0 .2.1.2.1c-.1.7-.1 1.2-.1 3.2c0 0 0 14 0 14c0 2.1.2 2.2 2.3 2.5c-.01-.04 0 .8 0 .8l-7.2 0zm2.5-18.3c-.7-.8-1.9-1.3-2.9-1.3c-2 0-4 1.8-4 5.4c0 3.6 2.5 5.6 4.7 5.6c.9 0 1.6-.2 2.2-.5c0 0 0-9.2 0-9.2zm19.8 10.3c-1.4.2-2.9.6-4.4 1.1c0-.03-.2-.2-.2-.2c0 0 .02-2.14 0-2.1c-.7.5-1.4 1-2.2 1.5c-.9.5-1.5.8-2.3.8c-2 0-3.7-1.3-3.7-4.5c0 0 0-5.9 0-5.9c0-1.6-.2-1.8-1.9-2.1c0 0 0-.7 0-.7c1.4-.1 2.9-.2 4.3-.5c-.1.9-.1 2.3-.1 4.4c0 0 0 4 0 4c0 2.7 1.3 3.4 2.7 3.4c1.1 0 2.2-.5 3.2-1.5c0 0 0-7 0-7c0-1.7-.2-1.8-2.3-2.1c0 0 0-.7 0-.7c1.5-.1 3.1-.2 4.7-.5c0 0 0 10 0 10c0 1.5.2 1.7 1.4 1.8c-.03-.02.8 0 .8 0c0 0 .01.79 0 .8zm12.2-1.8c-1.8 2.3-3.9 2.9-4.8 2.9c-3.7 0-5.9-3-5.9-6.4c0-2.1.8-3.9 2-5.3c1.2-1.4 2.8-2.2 4.4-2.2c2.5 0 4.5 2.3 4.5 4.6c0 .6-.2.8-.7 1c-.5 0-4.3.3-7.8.5c0 4 2.3 5.7 4.4 5.7c1.2 0 2.4-.5 3.5-1.5c0 0 .4.7.4.7zm-8.2-6.2c1.7 0 3.4 0 5.1-.1c.5 0 .7-.1.7-.6c0-1.5-1-3-2.6-3c-1.4 0-2.7 1.3-3.2 3.7zm30.1 1.9c0 4.9-3.5 7.2-6.5 7.2c-4.1 0-6.5-3.3-6.5-6.7c0-4.9 3.8-7.2 6.5-7.2c3.8 0 6.5 3 6.5 6.7zm-10.2-.4c0 3.8 1.6 6.6 4.1 6.6c1.8 0 3.4-1.4 3.4-5.5c0-3.5-1.5-6.4-4.1-6.4c-1.8 0-3.4 1.9-3.4 5.3zm28.5 7.2c0 0-.01-.77 0-.8c1.8-.2 2.1-.3 2.1-2.4c0 0 0-5 0-5c0-2.1-.8-3.5-2.7-3.5c-1 0-2.2.6-3.3 1.6c0 .3.1.7.1 1.2c0 0 0 5.9 0 5.9c0 1.9.2 2 1.9 2.2c0 .03 0 .8 0 .8l-6.4 0c0 0-.02-.77 0-.8c1.8-.2 2.1-.3 2.1-2.3c0 0 0-5.1 0-5.1c0-2.3-.8-3.5-2.6-3.5c-1.2 0-2.4.8-3.3 1.6c0 0 0 7 0 7c0 2 .3 2.1 1.7 2.3c.04.03 0 .8 0 .8l-6.3 0c0 0 .01-.77 0-.8c2-.2 2.3-.3 2.3-2.3c0 0 0-6.2 0-6.2c0-1.9-.1-2.1-1.9-2.3c0 0 0-.7 0-.7c1.3-.3 2.9-.7 4.2-1.3c0 0 0 2.5 0 2.5c.6-.4 1.3-1 2.2-1.6c.8-.4 1.5-.8 2.4-.8c1.5 0 2.8.9 3.4 2.5c.8-.7 1.7-1.2 2.5-1.7c.6-.4 1.4-.8 2.2-.8c2.4 0 3.8 1.7 3.8 4.6c0 0 0 5.8 0 5.8c0 2 .3 2.1 2 2.3c-.02.03 0 .8 0 .8l-6.4 0zm24.6 0c0 0-.04-.77 0-.8c1.7-.2 2.1-.3 2.1-2.4c0 0 0-5 0-5c0-2.1-.8-3.5-2.7-3.5c-1.1 0-2.2.6-3.3 1.6c0 .3 0 .7 0 1.2c0 0 0 5.9 0 5.9c0 1.9.3 2 2 2.2c-.03.03 0 .8 0 .8l-6.5 0c0 0 .05-.77 0-.8c1.9-.2 2.2-.3 2.2-2.3c0 0 0-5.1 0-5.1c0-2.3-.8-3.5-2.6-3.5c-1.2 0-2.4.8-3.3 1.6c0 0 0 7 0 7c0 2 .2 2.1 1.7 2.3c.01.03 0 .8 0 .8l-6.3 0c0 0-.02-.77 0-.8c2-.2 2.2-.3 2.2-2.3c0 0 0-6.2 0-6.2c0-1.9-.1-2.1-1.8-2.3c0 0 0-.7 0-.7c1.3-.3 2.8-.7 4.2-1.3c0 0 0 2.5 0 2.5c.6-.4 1.3-1 2.2-1.6c.7-.4 1.5-.8 2.4-.8c1.5 0 2.7.9 3.3 2.5c.9-.7 1.8-1.2 2.5-1.7c.7-.4 1.4-.8 2.3-.8c2.3 0 3.8 1.7 3.8 4.6c0 0 0 5.8 0 5.8c0 2 .2 2.1 1.9 2.3c.05.03 0 .8 0 .8l-6.3 0zm21.1-6.8c0 4.9-3.5 7.2-6.5 7.2c-4.1 0-6.6-3.3-6.6-6.7c0-4.9 3.9-7.2 6.6-7.2c3.7 0 6.5 3 6.5 6.7zm-10.3-.4c0 3.8 1.7 6.6 4.1 6.6c1.9 0 3.4-1.4 3.4-5.5c0-3.5-1.4-6.4-4-6.4c-1.9 0-3.5 1.9-3.5 5.3zm11.7 7.2c0 0-.04-.77 0-.8c1.8-.2 2.1-.3 2.1-2.3c0 0 0-14.2 0-14.2c0-2-.2-2.1-2.1-2.3c0 0 0-.7 0-.7c1.6-.2 3.5-.7 4.5-1.1c0 0 0 18.3 0 18.3c0 2 .2 2.1 2.1 2.3c.05.03 0 .8 0 .8l-6.6 0zm22.3-.7c-1.4.2-2.9.6-4.4 1.1c-.03-.03-.2-.2-.2-.2c0 0-.01-2.14 0-2.1c-.7.5-1.4 1-2.2 1.5c-.9.5-1.5.8-2.3.8c-2.1 0-3.8-1.3-3.8-4.5c0 0 0-5.9 0-5.9c0-1.6-.1-1.8-1.8-2.1c0 0 0-.7 0-.7c1.4-.1 2.9-.2 4.3-.5c-.1.9-.1 2.3-.1 4.4c0 0 0 4 0 4c0 2.7 1.3 3.4 2.6 3.4c1.1 0 2.3-.5 3.3-1.5c0 0 0-7 0-7c0-1.7-.2-1.8-2.4-2.1c0 0 0-.7 0-.7c1.6-.1 3.2-.2 4.8-.5c0 0 0 10 0 10c0 1.5.2 1.7 1.3 1.8c.04-.02.9 0 .9 0c0 0-.02.79 0 .8zm6.9.7c-.5.2-1 .4-1.3.4c-1.8 0-2.9-1.2-2.9-3.6c.01 0 0-8.7 0-8.7l-2.1 0l-.1-.3l.8-.9l1.4 0l0-2.2l2-2l.4.1l0 4.1c0 0 3.37 0 3.4 0c.2.3.1 1-.2 1.2c-.01-.03-3.2 0-3.2 0c0 0-.02 7.68 0 7.7c0 2.4 1 2.9 1.7 2.9c.8 0 1.5-.3 1.9-.6c-.02.05.2.8.2.8c0 0-1.99 1.08-2 1.1zm12.1-13.1c0 0 0-.66 0-.7c0-.9.1-1.8.3-2.4c.2-.7.7-2.2 2.3-3.5c1.1-1 2.2-1.5 3.3-1.7c1.1.1 1.9.5 2.4 1.1c.3.3.3.7.2 1c-.1.3-.3.5-.6.7c-.3.2-.6.2-.8-.1c-.6-.5-1.5-1.1-2.5-1.1c-.7 0-1.2.4-1.5.9c-.4.6-.8 2-.7 4.6c-.03 0 0 1.2 0 1.2c0 0 3.51 0 3.5 0c.2.3 0 1-.3 1.2c.01-.03-3.2 0-3.2 0c0 0-.03 8.61 0 8.6c0 2.2.2 2.3 2.5 2.6c.05-.04 0 .7 0 .7l-7 0c0 0-.03-.77 0-.8c1.9-.2 2.1-.3 2.1-2.3c0 .02 0-8.8 0-8.8l-2.1 0l-.1-.3l.8-.9l1.4 0zm21.6 12.4c-1.4.2-2.9.6-4.4 1.1c-.04-.03-.2-.2-.2-.2c0 0-.02-2.14 0-2.1c-.7.5-1.4 1-2.2 1.5c-.9.5-1.5.8-2.4.8c-2 0-3.7-1.3-3.7-4.5c0 0 0-5.9 0-5.9c0-1.6-.1-1.8-1.8-2.1c0 0 0-.7 0-.7c1.4-.1 2.8-.2 4.3-.5c-.1.9-.1 2.3-.1 4.4c0 0 0 4 0 4c0 2.7 1.3 3.4 2.6 3.4c1.1 0 2.3-.5 3.3-1.5c0 0 0-7 0-7c0-1.7-.2-1.8-2.4-2.1c0 0 0-.7 0-.7c1.6-.1 3.2-.2 4.7-.5c0 0 0 10 0 10c0 1.5.3 1.7 1.4 1.8c.03-.02.9 0 .9 0c0 0-.03.79 0 .8zm14.4-12.2c-.3.5-.9 1.3-1.4 1.5c0 0-1.7-.1-1.7-.1c.6.7.9 1.6.9 2.7c0 3.3-2.7 4.8-5.2 4.8c-.5 0-1.1-.1-1.5-.1c-.5.2-.9.8-.9 1.2c0 .6.5 1.2 1.8 1.2c1.1 0 2.2-.1 3.2-.1c1.9 0 4.3.6 4.3 3.6c0 3-3.5 5.9-7.5 5.9c-3.3 0-5.1-1.9-5.2-3.6c0-.7.3-1.3.7-1.7c.6-.6 1.8-1.6 2.5-2.1c-1-.4-1.8-1-2.2-1.7c-.3-.4-.3-.9-.3-1.2c1.2-.5 2.1-1.3 2.6-1.9c-1.3-.5-2.6-1.9-2.6-4c0-3.4 3-5 5.4-5c1 0 2 .3 2.8.8c1.5-.1 3-.3 4.1-.4c0 0 .2.2.2.2zm-9.9 3.9c0 2.4 1.1 4.1 2.8 4.1c1.3-.1 2.5-1.2 2.5-3.6c0-2.4-1.1-4.1-2.8-4.1c-1.4 0-2.5 1.3-2.5 3.6zm.5 10c-.8.6-1.4 1.5-1.4 2.3c0 1.7 1.7 2.9 4 2.9c2.8 0 4.3-1.5 4.3-3.3c0-1.1-.5-1.8-1.4-2.2c-.8-.3-1.6-.4-2.9-.4c-1.4 0-2.1.2-2.6.7zm19.8-.6c-.4 0-1-.3-1.4-.6c-.4-.4-.5-.8-.7-1.4c-1.2.9-2.6 2-3.5 2c-2.2 0-3.6-1.8-3.6-3.7c0-1.5.7-2.4 2.4-3c1.8-.6 4-1.4 4.6-1.9c0 0 0-.6 0-.6c0-2.1-1-3.3-2.5-3.3c-.6 0-1 .2-1.3.6c-.4.3-.7 1-.9 1.9c-.1.5-.5.7-.9.7c-.5 0-1.3-.6-1.3-1.3c0-.4.4-.7.9-1.2c.9-.6 2.8-1.7 4.5-2.1c.9 0 1.8.3 2.5.8c1.1.9 1.4 2.1 1.4 3.7c0 0 0 5.6 0 5.6c0 1.3.5 1.8 1 1.8c.4 0 .8-.2 1.1-.3c-.01-.04.3.7.3.7c0 0-2.56 1.57-2.6 1.6zm-2.2-7.6c-.6.3-2 1-2.7 1.3c-1.1.5-1.8 1.1-1.8 2.2c0 1.5 1.2 2.3 2.1 2.3c.8-.1 1.9-.6 2.4-1.1c0 0 0-4.7 0-4.7zm6.7 5.8c0-.9.7-1.7 1.7-1.7c.9 0 1.7.8 1.7 1.7c0 1.1-.8 1.8-1.7 1.8c-1 0-1.7-.7-1.7-1.8zm33.5-17.3c-1.7.1-2.4.5-2.5 1.8c-.2.9-.2 2.3-.2 5.1c-.01-.01 0 12.1 0 12.1l-.9 0l-12.8-15.7l-.1 0c0 0 .02 7.49 0 7.5c0 2.7.1 4.2.2 5.1c.1 1.5.8 1.8 2.9 2c-.02-.03 0 .8 0 .8l-7.1 0c0 0-.03-.83 0-.8c1.7-.1 2.5-.5 2.6-2c.1-.9.2-2.4.2-5.1c0 0 0-6.6 0-6.6c0-2.2-.1-2.3-.6-3c-.6-.8-1.3-1-2.7-1.2c.02.05 0-.8 0-.8l4.5 0l12.5 15.1l.1 0c0 0-.04-7.41 0-7.4c0-2.8-.2-4.2-.3-5c-.1-1.3-.8-1.7-2.9-1.9c.01.05 0-.8 0-.8l7.1 0c0 0-.01.85 0 .8zm10.4 19.1c-.5 0-1.1-.3-1.4-.6c-.4-.4-.6-.8-.8-1.4c-1.2.9-2.6 2-3.5 2c-2.1 0-3.6-1.8-3.6-3.7c0-1.5.8-2.4 2.4-3c1.8-.6 4-1.4 4.7-1.9c0 0 0-.6 0-.6c0-2.1-1-3.3-2.5-3.3c-.6 0-1.1.2-1.4.6c-.4.3-.7 1-.9 1.9c-.1.5-.4.7-.9.7c-.5 0-1.3-.6-1.3-1.3c0-.4.4-.7 1-1.2c.8-.6 2.8-1.7 4.5-2.1c.9 0 1.8.3 2.4.8c1.1.9 1.4 2.1 1.4 3.7c0 0 0 5.6 0 5.6c0 1.3.5 1.8 1 1.8c.4 0 .8-.2 1.1-.3c.02-.04.3.7.3.7c0 0-2.53 1.57-2.5 1.6zm-2.2-7.6c-.7.3-2.1 1-2.7 1.3c-1.2.5-1.9 1.1-1.9 2.2c0 1.5 1.2 2.3 2.2 2.3c.8-.1 1.8-.6 2.4-1.1c0 0 0-4.7 0-4.7zm22.1 7.2c0 0 .02-.77 0-.8c1.8-.2 2.1-.3 2.1-2.4c0 0 0-5 0-5c0-2.1-.7-3.5-2.6-3.5c-1.1 0-2.2.6-3.4 1.6c.1.3.1.7.1 1.2c0 0 0 5.9 0 5.9c0 1.9.3 2 1.9 2.2c.03.03 0 .8 0 .8l-6.4 0c0 0 .01-.77 0-.8c1.9-.2 2.1-.3 2.1-2.3c0 0 0-5.1 0-5.1c0-2.3-.7-3.5-2.6-3.5c-1.2 0-2.3.8-3.2 1.6c0 0 0 7 0 7c0 2 .2 2.1 1.7 2.3c-.03.03 0 .8 0 .8l-6.4 0c0 0 .04-.77 0-.8c2-.2 2.3-.3 2.3-2.3c0 0 0-6.2 0-6.2c0-1.9-.1-2.1-1.8-2.3c0 0 0-.7 0-.7c1.3-.3 2.8-.7 4.1-1.3c0 0 0 2.5 0 2.5c.7-.4 1.3-1 2.2-1.6c.8-.4 1.5-.8 2.5-.8c1.4 0 2.7.9 3.3 2.5c.9-.7 1.7-1.2 2.5-1.7c.6-.4 1.4-.8 2.2-.8c2.4 0 3.9 1.7 3.9 4.6c0 0 0 5.8 0 5.8c0 2 .2 2.1 1.9 2.3c.01.03 0 .8 0 .8l-6.4 0zm12.7-.6c0 2.3-2.1 3.6-4 4.1c0 0-.3-.9-.3-.9c1.5-.6 2.3-1.3 2.3-2.5c0-1.1-.8-1.7-1.9-2c-.1 0-.3-.2-.3-.7c0-.8.7-1.3 1.4-1.3c1.1 0 2.8 1.2 2.8 3.3z" stroke="none" fill="#000"/></g><g id="Polygon7418"><path d="m16.4 87.1c-.2 1-.8 3.8-1.1 4.7c.03.01-14.4 0-14.4 0c0 0-.03-.83 0-.8c2.7-.2 2.9-.5 2.9-2.9c0 0 0-12 0-12c0-2.7-.2-2.7-2.5-3c-.04.05 0-.8 0-.8c0 0 13.34.01 13.3 0c0 .8.2 2.8.3 4.3c0 0-.9.2-.9.2c-.3-1.3-.6-1.9-1-2.6c-.4-.6-1.2-.8-3.3-.8c0 0-2.3 0-2.3 0c-1 0-1 0-1 .9c-.01.02 0 6.8 0 6.8c0 0 2.81.03 2.8 0c2.7 0 2.9-.2 3.2-2.2c.05-.02.9 0 .9 0l0 5.7c0 0-.85.04-.9 0c-.3-2.1-.6-2.3-3.2-2.3c.04 0-2.8 0-2.8 0c0 0-.01 5.67 0 5.7c0 1.4.2 2 .7 2.4c.6.4 1.6.4 3.1.4c2.3 0 3.1-.3 3.8-1c.5-.6 1.1-1.7 1.5-2.9c0 0 .9.2.9.2zm6.9 4.7c-.5.2-1 .4-1.3.4c-1.9 0-2.9-1.2-2.9-3.6c-.02 0 0-8.7 0-8.7l-2.1 0l-.1-.3l.8-.9l1.4 0l0-2.2l1.9-2l.5.1l0 4.1c0 0 3.34 0 3.3 0c.3.3.2 1-.1 1.2c-.04-.03-3.2 0-3.2 0c0 0-.05 7.68 0 7.7c0 2.4.9 2.9 1.7 2.9c.7 0 1.4-.3 1.9-.6c-.05.05.2.8.2.8c0 0-2.02 1.08-2 1.1zm19.5.4c-.5 0-1.1-.3-1.4-.6c-.4-.4-.6-.8-.8-1.4c-1.2.9-2.6 2-3.5 2c-2.1 0-3.6-1.8-3.6-3.7c0-1.5.8-2.4 2.4-3c1.8-.6 4-1.4 4.7-1.9c0 0 0-.6 0-.6c0-2.1-1-3.3-2.5-3.3c-.6 0-1.1.2-1.4.6c-.4.3-.6 1-.9 1.9c-.1.5-.4.7-.9.7c-.5 0-1.3-.6-1.3-1.3c0-.4.4-.7 1-1.2c.8-.6 2.8-1.7 4.5-2.1c.9 0 1.8.3 2.4.8c1.1.9 1.4 2.1 1.4 3.7c0 0 0 5.6 0 5.6c0 1.3.5 1.8 1 1.8c.4 0 .8-.2 1.1-.3c.03-.04.3.7.3.7c0 0-2.52 1.57-2.5 1.6zm-2.2-7.6c-.6.3-2.1 1-2.7 1.3c-1.2.5-1.8 1.1-1.8 2.2c0 1.5 1.2 2.3 2.1 2.3c.8-.1 1.8-.6 2.4-1.1c0 0 0-4.7 0-4.7zm19.9 6.5c-1.4.2-2.9.6-4.4 1.1c-.03-.03-.2-.2-.2-.2c0 0-.01-2.14 0-2.1c-.7.5-1.4 1-2.2 1.5c-.9.5-1.5.8-2.3.8c-2.1 0-3.8-1.3-3.8-4.5c0 0 0-5.9 0-5.9c0-1.6-.1-1.8-1.8-2.1c0 0 0-.7 0-.7c1.4-.1 2.9-.2 4.3-.5c-.1.9-.1 2.3-.1 4.4c0 0 0 4 0 4c0 2.7 1.3 3.4 2.6 3.4c1.1 0 2.3-.5 3.3-1.5c0 0 0-7 0-7c0-1.7-.2-1.8-2.4-2.1c0 0 0-.7 0-.7c1.6-.1 3.2-.2 4.8-.5c0 0 0 10 0 10c0 1.5.2 1.7 1.3 1.8c.04-.02.9 0 .9 0c0 0-.02.79 0 .8zm15.9-.1c-.7.1-2.9.5-4.7 1.2c.03-.03 0-2 0-2c0 0-1.8 1.1-1.8 1.1c-1.2.7-2 .9-2.3.9c-2.4 0-5.6-2.2-5.6-6.4c0-4.2 3.7-7.5 7.7-7.5c.5 0 1.3.1 2 .4c0 0 0-4.3 0-4.3c0-1.9-.1-2-2.3-2.2c0 0 0-.7 0-.7c1.6-.2 3.6-.7 4.7-1.1c0 0 0 18 0 18c0 1.5.2 1.7 1.3 1.8c.02-.01 1 .1 1 .1c0 0-.02.73 0 .7zm-4.7-10c-.7-1.1-1.9-1.6-3.1-1.6c-1.3 0-3.9 1.2-3.9 5.6c0 3.5 2.2 5.3 4.1 5.3c1.1 0 2.2-.5 2.9-1c0 0 0-8.3 0-8.3zm7.6-6.8c0-.9.7-1.6 1.5-1.6c.8 0 1.5.7 1.5 1.6c0 .8-.7 1.5-1.5 1.5c-.8 0-1.5-.7-1.5-1.5zm-1.6 17.6c0 0-.03-.77 0-.8c1.9-.2 2.1-.3 2.1-2.4c0 0 0-6.2 0-6.2c0-1.8-.1-1.9-1.9-2.2c0 0 0-.8 0-.8c1.5-.2 2.9-.6 4.2-1.1c0 0 0 10.3 0 10.3c0 2.1.2 2.2 2.2 2.4c-.03.03 0 .8 0 .8l-6.6 0zm20.8-13.2c.5-.2.9-.3 1.3-.3c3.2 0 5.9 2.8 5.9 6.3c0 4.4-3.5 7.6-7.5 7.6c-1.3 0-2.8-.3-4.5-1.1c0 0 0-16.7 0-16.7c0-1.9 0-2-1.9-2.2c0 0 0-.7 0-.7c1.4-.2 3.2-.7 4.3-1.1c.02.05 0 9.3 0 9.3c0 0 2.45-1.06 2.4-1.1zm-2.4 9.7c0 .5.1.8.2 1c.2.6 1.1 1.7 2.7 1.7c2.5 0 4-2.1 4-5.6c0-3.4-2.1-5.4-4.5-5.4c-.9 0-1.8.3-2.4.6c0 0 0 7.7 0 7.7zm22.8 1c-1.9 2.3-3.9 2.9-4.9 2.9c-3.7 0-5.8-3-5.8-6.4c0-2.1.7-3.9 2-5.3c1.2-1.4 2.8-2.2 4.4-2.2c2.5 0 4.5 2.3 4.5 4.6c0 .6-.2.8-.7 1c-.5 0-4.3.3-7.9.5c.1 4 2.4 5.7 4.5 5.7c1.2 0 2.4-.5 3.4-1.5c0 0 .5.7.5.7zm-8.2-6.2c1.7 0 3.3 0 5.1-.1c.5 0 .7-.1.7-.6c0-1.5-1-3-2.7-3c-1.3 0-2.7 1.3-3.1 3.7zm19.7 9.1c-.4 0-1-.3-1.4-.6c-.4-.4-.5-.8-.7-1.4c-1.2.9-2.6 2-3.5 2c-2.2 0-3.6-1.8-3.6-3.7c0-1.5.7-2.4 2.4-3c1.8-.6 4-1.4 4.6-1.9c0 0 0-.6 0-.6c0-2.1-1-3.3-2.5-3.3c-.6 0-1 .2-1.3.6c-.4.3-.7 1-.9 1.9c-.1.5-.5.7-.9.7c-.5 0-1.3-.6-1.3-1.3c0-.4.4-.7.9-1.2c.9-.6 2.8-1.7 4.5-2.1c.9 0 1.8.3 2.5.8c1.1.9 1.4 2.1 1.4 3.7c0 0 0 5.6 0 5.6c0 1.3.5 1.8 1 1.8c.4 0 .8-.2 1.1-.3c-.01-.04.3.7.3.7c0 0-2.56 1.57-2.6 1.6zm-2.2-7.6c-.6.3-2 1-2.7 1.3c-1.1.5-1.8 1.1-1.8 2.2c0 1.5 1.2 2.3 2.1 2.3c.8-.1 1.9-.6 2.4-1.1c0 0 0-4.7 0-4.7zm11.3 7.2c-.5.2-1 .4-1.3.4c-1.9 0-2.9-1.2-2.9-3.6c0 0 0-8.7 0-8.7l-2.1 0l-.1-.3l.8-.9l1.4 0l0-2.2l1.9-2l.5.1l0 4.1c0 0 3.36 0 3.4 0c.2.3.1 1-.2 1.2c-.02-.03-3.2 0-3.2 0c0 0-.03 7.68 0 7.7c0 2.4 1 2.9 1.7 2.9c.8 0 1.4-.3 1.9-.6c-.03.05.2.8.2.8c0 0-2 1.08-2 1.1zm17.5-.7c-1.4.2-2.9.6-4.4 1.1c-.02-.03-.2-.2-.2-.2c0 0 0-2.14 0-2.1c-.7.5-1.4 1-2.2 1.5c-.9.5-1.5.8-2.3.8c-2 0-3.8-1.3-3.8-4.5c0 0 0-5.9 0-5.9c0-1.6-.1-1.8-1.8-2.1c0 0 0-.7 0-.7c1.4-.1 2.9-.2 4.3-.5c-.1.9-.1 2.3-.1 4.4c0 0 0 4 0 4c0 2.7 1.3 3.4 2.7 3.4c1 0 2.2-.5 3.2-1.5c0 0 0-7 0-7c0-1.7-.2-1.8-2.3-2.1c0 0 0-.7 0-.7c1.5-.1 3.1-.2 4.7-.5c0 0 0 10 0 10c0 1.5.2 1.7 1.3 1.8c.05-.02.9 0 .9 0c0 0-.01.79 0 .8zm5.9-9.6c.9-1.5 2.2-3.2 3.6-3.2c1 0 1.7.8 1.7 1.5c0 .6-.4 1.2-.9 1.5c-.4.2-.7.1-.8-.1c-.5-.4-.8-.6-1.3-.6c-.8 0-1.7.9-2.4 2.6c0 0 0 5.5 0 5.5c0 2 .2 2.1 2.5 2.3c-.03.03 0 .8 0 .8l-6.9 0c0 0-.03-.77 0-.8c1.8-.2 2-.3 2-2.3c0 0 0-6.2 0-6.2c0-2-.1-2.1-1.8-2.4c0 0 0-.6 0-.6c1.4-.3 2.8-.6 4.2-1.3c.01.05 0 3.3 0 3.3c0 0 .07.02.1 0zm21.2.7c-.5-1.7-1.6-2.9-3.1-2.9c-1.1 0-1.9.9-1.9 2c0 1.4 1.2 2.1 2.5 2.6c2.3 1 3.8 2.1 3.8 4.1c0 2.8-2.5 4.2-4.9 4.2c-1.6 0-2.9-.6-3.5-1.1c-.2-.4-.5-2.4-.5-3.5c0 0 .8-.1.8-.1c.6 1.9 1.9 3.7 3.7 3.7c1.1 0 2.1-.9 2.1-2.1c0-1.3-.8-2.1-2.3-2.8c-1.8-.8-3.8-1.8-3.8-4.1c0-2.1 1.8-3.9 4.6-3.9c1.2 0 2 .3 2.7.5c.2.7.5 2.5.6 3.3c0 0-.8.1-.8.1zm14.3 7.1c-1.9 2.3-3.9 2.9-4.9 2.9c-3.7 0-5.8-3-5.8-6.4c0-2.1.7-3.9 2-5.3c1.2-1.4 2.8-2.2 4.4-2.2c2.5 0 4.5 2.3 4.5 4.6c0 .6-.2.8-.7 1c-.5 0-4.3.3-7.9.5c.1 4 2.4 5.7 4.5 5.7c1.2 0 2.4-.5 3.4-1.5c0 0 .5.7.5.7zm-8.2-6.2c1.7 0 3.3 0 5.1-.1c.5 0 .7-.1.7-.6c0-1.5-1-3-2.7-3c-1.3 0-2.7 1.3-3.1 3.7zm17.5 16c0 0 .02-.84 0-.8c2.4-.3 2.6-.4 2.6-2.5c-.03-.03 0-4.9 0-4.9c0 0-3.21 1.27-3.2 1.3c-4.4 0-6.5-3.4-6.5-6.3c0-4.3 3.9-7.6 8-7.6c1.1.1 1.8.3 2.1.4c.4.1.6.2.9.2c.1 0 .5-.1 1-.4c0 0 .1.1.1.1c0 .7-.1 1.2-.1 3.2c0 0 0 14 0 14c0 2.1.2 2.2 2.3 2.5c.02-.04 0 .8 0 .8l-7.2 0zm2.6-18.3c-.7-.8-2-1.3-3-1.3c-2 0-4 1.8-4 5.4c0 3.6 2.5 5.6 4.7 5.6c1 0 1.7-.2 2.3-.5c0 0 0-9.2 0-9.2zm19.7 10.3c-1.3.2-2.9.6-4.4 1.1c.03-.03-.2-.2-.2-.2c0 0 .05-2.14 0-2.1c-.6.5-1.3 1-2.2 1.5c-.8.5-1.5.8-2.3.8c-2 0-3.7-1.3-3.7-4.5c0 0 0-5.9 0-5.9c0-1.6-.1-1.8-1.8-2.1c0 0 0-.7 0-.7c1.4-.1 2.8-.2 4.3-.5c-.1.9-.1 2.3-.1 4.4c0 0 0 4 0 4c0 2.7 1.3 3.4 2.6 3.4c1.1 0 2.2-.5 3.2-1.5c0 0 0-7 0-7c0-1.7-.1-1.8-2.3-2.1c0 0 0-.7 0-.7c1.6-.1 3.1-.2 4.7-.5c0 0 0 10 0 10c0 1.5.3 1.7 1.4 1.8c0-.02.8 0 .8 0c0 0 .04.79 0 .8zm12.3-1.8c-1.9 2.3-4 2.9-4.9 2.9c-3.7 0-5.9-3-5.9-6.4c0-2.1.8-3.9 2-5.3c1.2-1.4 2.9-2.2 4.4-2.2c2.5 0 4.5 2.3 4.5 4.6c0 .6-.1.8-.7 1c-.5 0-4.2.3-7.8.5c0 4 2.4 5.7 4.5 5.7c1.2 0 2.3-.5 3.4-1.5c0 0 .5.7.5.7zm-8.2-6.2c1.6 0 3.3 0 5-.1c.6 0 .7-.1.7-.6c.1-1.5-.9-3-2.6-3c-1.4 0-2.7 1.3-3.1 3.7zm30.2-3.7c-1.6.3-1.8.5-2.6 2.3c-1 2.3-2.6 6-4.3 10.4c0 0-.8 0-.8 0c-1.3-3.6-2.7-7-4.1-10.5c-.7-1.7-1-1.9-2.6-2.2c.02.05 0-.7 0-.7l6.2 0c0 0-.03.75 0 .7c-1.6.3-1.7.5-1.2 1.8c.8 2.1 2 5.2 2.8 7.4c1.1-2.5 2-5.2 2.7-7.2c.4-1.4.3-1.7-1.4-2c-.05.05 0-.7 0-.7l5.3 0c0 0-.01.75 0 .7zm13.5 5.6c0 4.9-3.5 7.2-6.5 7.2c-4.1 0-6.6-3.3-6.6-6.7c0-4.9 3.9-7.2 6.6-7.2c3.7 0 6.5 3 6.5 6.7zm-10.3-.4c0 3.8 1.7 6.6 4.1 6.6c1.9 0 3.4-1.4 3.4-5.5c0-3.5-1.4-6.4-4-6.4c-1.8 0-3.5 1.9-3.5 5.3zm11.7 7.2c0 0-.03-.77 0-.8c1.9-.2 2.1-.3 2.1-2.3c0 0 0-14.2 0-14.2c0-2-.1-2.1-2-2.3c0 0 0-.7 0-.7c1.5-.2 3.4-.7 4.4-1.1c0 0 0 18.3 0 18.3c0 2 .2 2.1 2.2 2.3c-.04.03 0 .8 0 .8l-6.7 0zm7.7 0c0 0 .01-.77 0-.8c1.9-.2 2.2-.3 2.2-2.3c0 0 0-14.2 0-14.2c0-2-.2-2.1-2.1-2.3c0 0 0-.7 0-.7c1.6-.2 3.4-.7 4.4-1.1c0 0 0 18.3 0 18.3c0 2 .3 2.1 2.2 2.3c0 .03 0 .8 0 .8l-6.7 0zm17.7.4c-.5 0-1.1-.3-1.4-.6c-.4-.4-.6-.8-.7-1.4c-1.2.9-2.7 2-3.6 2c-2.1 0-3.6-1.8-3.6-3.7c0-1.5.8-2.4 2.4-3c1.8-.6 4-1.4 4.7-1.9c0 0 0-.6 0-.6c0-2.1-1-3.3-2.5-3.3c-.6 0-1.1.2-1.4.6c-.4.3-.6 1-.9 1.9c-.1.5-.4.7-.8.7c-.6 0-1.4-.6-1.4-1.3c0-.4.4-.7 1-1.2c.8-.6 2.8-1.7 4.5-2.1c.9 0 1.8.3 2.5.8c1 .9 1.3 2.1 1.3 3.7c0 0 0 5.6 0 5.6c0 1.3.5 1.8 1.1 1.8c.3 0 .7-.2 1-.3c.03-.04.3.7.3.7c0 0-2.52 1.57-2.5 1.6zm-2.2-7.6c-.6.3-2.1 1-2.7 1.3c-1.2.5-1.8 1.1-1.8 2.2c0 1.5 1.2 2.3 2.1 2.3c.8-.1 1.8-.6 2.4-1.1c0 0 0-4.7 0-4.7zm11.7-6c.4-.2.9-.3 1.2-.3c3.2 0 5.9 2.8 5.9 6.3c0 4.4-3.5 7.6-7.5 7.6c-1.3 0-2.8-.3-4.4-1.1c0 0 0-16.7 0-16.7c0-1.9-.1-2-2-2.2c0 0 0-.7 0-.7c1.4-.2 3.2-.7 4.3-1.1c.03.05 0 9.3 0 9.3c0 0 2.46-1.06 2.5-1.1zm-2.5 9.7c0 .5.1.8.2 1c.2.6 1.1 1.7 2.7 1.7c2.5 0 4.1-2.1 4.1-5.6c0-3.4-2.1-5.4-4.6-5.4c-.9 0-1.8.3-2.4.6c0 0 0 7.7 0 7.7zm25.2-3.3c0 4.9-3.6 7.2-6.5 7.2c-4.1 0-6.6-3.3-6.6-6.7c0-4.9 3.8-7.2 6.6-7.2c3.7 0 6.5 3 6.5 6.7zm-10.3-.4c0 3.8 1.6 6.6 4.1 6.6c1.9 0 3.4-1.4 3.4-5.5c0-3.5-1.4-6.4-4-6.4c-1.9 0-3.5 1.9-3.5 5.3zm12.3 5.8c0-.9.7-1.7 1.6-1.7c1 0 1.7.8 1.7 1.7c0 1.1-.7 1.8-1.7 1.8c-.9 0-1.6-.7-1.6-1.8z" stroke="none" fill="#000"/></g><g id="Polygon7417"><path d="m1.1 56.8c0 0 .04-.83 0-.8c2.5-.2 2.7-.4 2.7-2.9c0 0 0-12 0-12c0-2.6-.2-2.8-2.7-3c.04.05 0-.8 0-.8l8 0c0 0-.01.85 0 .8c-2.5.2-2.7.4-2.7 3c0 0 0 12 0 12c0 2.5.2 2.7 2.7 2.9c-.01-.03 0 .8 0 .8l-8 0zm14.9 0c-.5.2-1 .4-1.3.4c-1.9 0-2.9-1.2-2.9-3.6c-.04 0 0-8.7 0-8.7l-2.1 0l-.1-.3l.8-.9l1.4 0l0-2.2l1.9-2l.4.1l0 4.1c0 0 3.42 0 3.4 0c.3.3.2 1-.2 1.2c.04-.03-3.2 0-3.2 0c0 0 .03 7.68 0 7.7c0 2.4 1 2.9 1.8 2.9c.7 0 1.4-.3 1.8-.6c.03.05.3.8.3.8c0 0-2.04 1.08-2 1.1zm12.8.4c-.4 0-1.1-.3-1.4-.6c-.4-.4-.6-.8-.7-1.4c-1.2.9-2.6 2-3.5 2c-2.2 0-3.6-1.8-3.6-3.7c0-1.5.7-2.4 2.4-3c1.8-.6 4-1.4 4.6-1.9c0 0 0-.6 0-.6c0-2.1-1-3.3-2.5-3.3c-.6 0-1 .2-1.3.6c-.4.3-.7 1-.9 1.9c-.2.5-.5.7-.9.7c-.5 0-1.3-.6-1.3-1.3c0-.4.4-.7.9-1.2c.9-.6 2.8-1.7 4.5-2.1c.9 0 1.8.3 2.5.8c1 .9 1.3 2.1 1.3 3.7c0 0 0 5.6 0 5.6c0 1.3.6 1.8 1.1 1.8c.4 0 .8-.2 1.1-.3c-.02-.04.3.7.3.7c0 0-2.57 1.57-2.6 1.6zm-2.2-7.6c-.6.3-2 1-2.7 1.3c-1.1.5-1.8 1.1-1.8 2.2c0 1.5 1.2 2.3 2.1 2.3c.8-.1 1.9-.6 2.4-1.1c0 0 0-4.7 0-4.7zm13.7-2.4c-.6-1.7-1.6-2.9-3.1-2.9c-1.1 0-2 .9-2 2c0 1.4 1.2 2.1 2.6 2.6c2.2 1 3.8 2.1 3.8 4.1c0 2.8-2.6 4.2-5 4.2c-1.5 0-2.9-.6-3.4-1.1c-.2-.4-.5-2.4-.5-3.5c0 0 .8-.1.8-.1c.5 1.9 1.9 3.7 3.7 3.7c1.1 0 2.1-.9 2.1-2.1c0-1.3-.9-2.1-2.4-2.8c-1.8-.8-3.7-1.8-3.7-4.1c0-2.1 1.8-3.9 4.5-3.9c1.3 0 2.1.3 2.7.5c.2.7.6 2.5.7 3.3c0 0-.8.1-.8.1zm11.5-8c0-.9.8-1.6 1.6-1.6c.8 0 1.5.7 1.5 1.6c0 .8-.7 1.5-1.6 1.5c-.7 0-1.5-.7-1.5-1.5zm-1.6 17.6c0 0 .05-.77 0-.8c1.9-.2 2.1-.3 2.1-2.4c0 0 0-6.2 0-6.2c0-1.8 0-1.9-1.8-2.2c0 0 0-.8 0-.8c1.5-.2 2.9-.6 4.2-1.1c0 0 0 10.3 0 10.3c0 2.1.2 2.2 2.1 2.4c.05.03 0 .8 0 .8l-6.6 0zm7.7 0c0 0 .03-.77 0-.8c1.9-.2 2.2-.3 2.2-2.3c0 0 0-14.2 0-14.2c0-2-.2-2.1-2.1-2.3c0 0 0-.7 0-.7c1.6-.2 3.4-.7 4.5-1.1c0 0 0 18.3 0 18.3c0 2 .2 2.1 2.1 2.3c.02.03 0 .8 0 .8l-6.7 0zm9.7-17.6c0-.9.7-1.6 1.5-1.6c.9 0 1.5.7 1.5 1.6c0 .8-.6 1.5-1.5 1.5c-.8 0-1.5-.7-1.5-1.5zm-1.6 17.6c0 0 .03-.77 0-.8c1.9-.2 2.1-.3 2.1-2.4c0 0 0-6.2 0-6.2c0-1.8-.1-1.9-1.9-2.2c0 0 0-.8 0-.8c1.6-.2 3-.6 4.3-1.1c0 0 0 10.3 0 10.3c0 2.1.2 2.2 2.1 2.4c.03.03 0 .8 0 .8l-6.6 0zm13.6 0c-.5.2-.9.4-1.2.4c-1.9 0-3-1.2-3-3.6c.05 0 0-8.7 0-8.7l-2 0l-.1-.3l.8-.9l1.3 0l0-2.2l2-2l.4.1l0 4.1c0 0 3.41 0 3.4 0c.3.3.2 1-.2 1.2c.03-.03-3.2 0-3.2 0c0 0 .02 7.68 0 7.7c0 2.4 1 2.9 1.8 2.9c.7 0 1.4-.3 1.8-.6c.02.05.3.8.3.8c0 0-2.05 1.08-2.1 1.1zm11.7-17.6c0-.9.7-1.6 1.5-1.6c.8 0 1.5.7 1.5 1.6c0 .8-.7 1.5-1.5 1.5c-.8 0-1.5-.7-1.5-1.5zm-1.6 17.6c0 0-.03-.77 0-.8c1.9-.2 2.1-.3 2.1-2.4c0 0 0-6.2 0-6.2c0-1.8-.1-1.9-1.9-2.2c0 0 0-.8 0-.8c1.5-.2 2.9-.6 4.2-1.1c0 0 0 10.3 0 10.3c0 2.1.2 2.2 2.2 2.4c-.03.03 0 .8 0 .8l-6.6 0zm16.5 0c0 0 0-.77 0-.8c1.8-.2 2-.4 2-2.5c0 0 0-5 0-5c0-2-.7-3.4-2.8-3.4c-1.2 0-2.3.8-3.2 1.5c0 0 0 7.1 0 7.1c0 2 .2 2.1 1.9 2.3c.03.03 0 .8 0 .8l-6.5 0c0 0 .02-.77 0-.8c2.1-.2 2.2-.3 2.2-2.3c0 0 0-6.2 0-6.2c0-1.9-.2-2-1.8-2.3c0 0 0-.7 0-.7c1.4-.3 2.9-.7 4.2-1.3c0 0 0 2.4 0 2.4c.6-.4 1.2-.9 2-1.4c.8-.5 1.6-.9 2.5-.9c2.3 0 3.8 1.7 3.8 4.6c0 0 0 5.8 0 5.8c0 2 .2 2.1 1.9 2.3c.04.03 0 .8 0 .8l-6.2 0zm23.2 0c0 0 .02-.77 0-.8c1.8-.2 2-.4 2-2.5c0 0 0-5 0-5c0-2-.7-3.4-2.7-3.4c-1.2 0-2.4.8-3.3 1.5c0 0 0 7.1 0 7.1c0 2 .2 2.1 1.9 2.3c.05.03 0 .8 0 .8l-6.5 0c0 0 .04-.77 0-.8c2.1-.2 2.2-.3 2.2-2.3c0 0 0-6.2 0-6.2c0-1.9-.2-2-1.8-2.3c0 0 0-.7 0-.7c1.5-.3 2.9-.7 4.2-1.3c0 0 0 2.4 0 2.4c.6-.4 1.3-.9 2-1.4c.8-.5 1.6-.9 2.5-.9c2.4 0 3.9 1.7 3.9 4.6c0 0 0 5.8 0 5.8c0 2 .1 2.1 1.9 2.3c-.04.03 0 .8 0 .8l-6.3 0zm17.3.4c-.4 0-1.1-.3-1.4-.6c-.4-.4-.6-.8-.7-1.4c-1.2.9-2.6 2-3.5 2c-2.2 0-3.6-1.8-3.6-3.7c0-1.5.7-2.4 2.4-3c1.8-.6 4-1.4 4.6-1.9c0 0 0-.6 0-.6c0-2.1-1-3.3-2.5-3.3c-.6 0-1 .2-1.3.6c-.4.3-.7 1-.9 1.9c-.2.5-.5.7-.9.7c-.5 0-1.3-.6-1.3-1.3c0-.4.4-.7.9-1.2c.9-.6 2.8-1.7 4.5-2.1c.9 0 1.8.3 2.5.8c1 .9 1.3 2.1 1.3 3.7c0 0 0 5.6 0 5.6c0 1.3.6 1.8 1.1 1.8c.4 0 .8-.2 1.1-.3c-.02-.04.3.7.3.7c0 0-2.57 1.57-2.6 1.6zm-2.2-7.6c-.6.3-2 1-2.7 1.3c-1.1.5-1.8 1.1-1.8 2.2c0 1.5 1.2 2.3 2.1 2.3c.8-.1 1.9-.6 2.4-1.1c0 0 0-4.7 0-4.7zm11.3 7.2c-.5.2-1 .4-1.3.4c-1.9 0-2.9-1.2-2.9-3.6c-.01 0 0-8.7 0-8.7l-2.1 0l-.1-.3l.8-.9l1.4 0l0-2.2l1.9-2l.5.1l0 4.1c0 0 3.35 0 3.3 0c.3.3.2 1-.1 1.2c-.03-.03-3.2 0-3.2 0c0 0-.04 7.68 0 7.7c0 2.4.9 2.9 1.7 2.9c.7 0 1.4-.3 1.9-.6c-.04.05.2.8.2.8c0 0-2.01 1.08-2 1.1zm17.5-.7c-1.4.2-2.9.6-4.4 1.1c-.03-.03-.2-.2-.2-.2c0 0-.01-2.14 0-2.1c-.7.5-1.4 1-2.2 1.5c-.9.5-1.5.8-2.3.8c-2.1 0-3.8-1.3-3.8-4.5c0 0 0-5.9 0-5.9c0-1.6-.1-1.8-1.8-2.1c0 0 0-.7 0-.7c1.4-.1 2.9-.2 4.3-.5c-.1.9-.1 2.3-.1 4.4c0 0 0 4 0 4c0 2.7 1.3 3.4 2.6 3.4c1.1 0 2.3-.5 3.3-1.5c0 0 0-7 0-7c0-1.7-.2-1.8-2.4-2.1c0 0 0-.7 0-.7c1.6-.1 3.2-.2 4.8-.5c0 0 0 10 0 10c0 1.5.2 1.7 1.3 1.8c.04-.02.9 0 .9 0c0 0-.02.79 0 .8zm9.1-8.9c-.6-1.7-1.6-2.9-3.1-2.9c-1.1 0-1.9.9-1.9 2c0 1.4 1.2 2.1 2.5 2.6c2.3 1 3.8 2.1 3.8 4.1c0 2.8-2.6 4.2-5 4.2c-1.5 0-2.9-.6-3.4-1.1c-.2-.4-.5-2.4-.5-3.5c0 0 .8-.1.8-.1c.5 1.9 1.9 3.7 3.7 3.7c1.1 0 2.1-.9 2.1-2.1c0-1.3-.9-2.1-2.4-2.8c-1.8-.8-3.7-1.8-3.7-4.1c0-2.1 1.8-3.9 4.5-3.9c1.3 0 2.1.3 2.7.5c.3.7.6 2.5.7 3.3c0 0-.8.1-.8.1zm19.4 10c-.4 0-1-.3-1.4-.6c-.4-.4-.5-.8-.7-1.4c-1.2.9-2.6 2-3.5 2c-2.2 0-3.6-1.8-3.6-3.7c0-1.5.7-2.4 2.4-3c1.8-.6 4-1.4 4.6-1.9c0 0 0-.6 0-.6c0-2.1-1-3.3-2.5-3.3c-.6 0-1 .2-1.3.6c-.4.3-.7 1-.9 1.9c-.1.5-.5.7-.9.7c-.5 0-1.3-.6-1.3-1.3c0-.4.4-.7.9-1.2c.9-.6 2.8-1.7 4.5-2.1c.9 0 1.8.3 2.5.8c1.1.9 1.4 2.1 1.4 3.7c0 0 0 5.6 0 5.6c0 1.3.5 1.8 1 1.8c.4 0 .8-.2 1.1-.3c-.01-.04.3.7.3.7c0 0-2.56 1.57-2.6 1.6zm-2.2-7.6c-.6.3-2 1-2.7 1.3c-1.1.5-1.8 1.1-1.8 2.2c0 1.5 1.2 2.3 2.1 2.3c.8-.1 1.9-.6 2.4-1.1c0 0 0-4.7 0-4.7zm19.9 6.5c-1.3.2-2.9.6-4.4 1.1c.03-.03-.2-.2-.2-.2c0 0 .05-2.14 0-2.1c-.6.5-1.3 1-2.2 1.5c-.8.5-1.5.8-2.3.8c-2 0-3.7-1.3-3.7-4.5c0 0 0-5.9 0-5.9c0-1.6-.1-1.8-1.8-2.1c0 0 0-.7 0-.7c1.4-.1 2.8-.2 4.3-.5c-.1.9-.1 2.3-.1 4.4c0 0 0 4 0 4c0 2.7 1.3 3.4 2.6 3.4c1.1 0 2.2-.5 3.2-1.5c0 0 0-7 0-7c0-1.7-.1-1.8-2.3-2.1c0 0 0-.7 0-.7c1.6-.1 3.1-.2 4.7-.5c0 0 0 10 0 10c0 1.5.3 1.7 1.4 1.8c0-.02.8 0 .8 0c0 0 .04.79 0 .8zm7 .7c-.5.2-1 .4-1.3.4c-1.9 0-2.9-1.2-2.9-3.6c-.03 0 0-8.7 0-8.7l-2.1 0l-.1-.3l.8-.9l1.4 0l0-2.2l1.9-2l.4.1l0 4.1c0 0 3.43 0 3.4 0c.3.3.2 1-.2 1.2c.05-.03-3.2 0-3.2 0c0 0 .04 7.68 0 7.7c0 2.4 1 2.9 1.8 2.9c.7 0 1.4-.3 1.8-.6c.04.05.3.8.3.8c0 0-2.03 1.08-2 1.1zm12.8.4c-.4 0-1-.3-1.4-.6c-.4-.4-.5-.8-.7-1.4c-1.2.9-2.6 2-3.5 2c-2.2 0-3.6-1.8-3.6-3.7c0-1.5.7-2.4 2.4-3c1.8-.6 4-1.4 4.6-1.9c0 0 0-.6 0-.6c0-2.1-1-3.3-2.5-3.3c-.6 0-1 .2-1.3.6c-.4.3-.7 1-.9 1.9c-.1.5-.5.7-.9.7c-.5 0-1.3-.6-1.3-1.3c0-.4.4-.7.9-1.2c.9-.6 2.8-1.7 4.5-2.1c.9 0 1.8.3 2.5.8c1.1.9 1.4 2.1 1.4 3.7c0 0 0 5.6 0 5.6c0 1.3.5 1.8 1 1.8c.4 0 .8-.2 1.1-.3c-.01-.04.3.7.3.7c0 0-2.56 1.57-2.6 1.6zm-2.2-7.6c-.6.3-2 1-2.7 1.3c-1.1.5-1.8 1.1-1.8 2.2c0 1.5 1.2 2.3 2.1 2.3c.8-.1 1.9-.6 2.4-1.1c0 0 0-4.7 0-4.7zm13.7-2.4c-.6-1.7-1.6-2.9-3.1-2.9c-1.1 0-1.9.9-1.9 2c0 1.4 1.2 2.1 2.5 2.6c2.3 1 3.8 2.1 3.8 4.1c0 2.8-2.6 4.2-5 4.2c-1.5 0-2.9-.6-3.4-1.1c-.2-.4-.5-2.4-.5-3.5c0 0 .8-.1.8-.1c.5 1.9 1.9 3.7 3.7 3.7c1.1 0 2.1-.9 2.1-2.1c0-1.3-.9-2.1-2.4-2.8c-1.8-.8-3.7-1.8-3.7-4.1c0-2.1 1.8-3.9 4.5-3.9c1.3 0 2.1.3 2.7.5c.3.7.6 2.5.7 3.3c0 0-.8.1-.8.1zm18.4 9.6c0 0 .05-.77 0-.8c1.8-.2 2-.4 2-2.5c0 0 0-5 0-5c0-2-.7-3.4-2.7-3.4c-1.2 0-2.4.8-3.3 1.5c0 0 0 7.1 0 7.1c0 2 .2 2.1 2 2.3c-.02.03 0 .8 0 .8l-6.5 0c0 0-.03-.77 0-.8c2-.2 2.2-.3 2.2-2.3c0 0 0-6.2 0-6.2c0-1.9-.2-2-1.8-2.3c0 0 0-.7 0-.7c1.4-.3 2.8-.7 4.1-1.3c0 0 0 2.4 0 2.4c.6-.4 1.3-.9 2-1.4c.9-.5 1.7-.9 2.5-.9c2.4 0 3.9 1.7 3.9 4.6c0 0 0 5.8 0 5.8c0 2 .1 2.1 1.9 2.3c-.01.03 0 .8 0 .8l-6.3 0zm18.7-2.5c-1.9 2.3-3.9 2.9-4.9 2.9c-3.6 0-5.8-3-5.8-6.4c0-2.1.7-3.9 2-5.3c1.2-1.4 2.8-2.2 4.4-2.2c2.5 0 4.5 2.3 4.5 4.6c0 .6-.2.8-.7 1c-.5 0-4.3.3-7.8.5c0 4 2.3 5.7 4.4 5.7c1.2 0 2.4-.5 3.5-1.5c0 0 .4.7.4.7zm-8.2-6.2c1.7 0 3.3 0 5.1-.1c.5 0 .7-.1.7-.6c0-1.5-1-3-2.6-3c-1.4 0-2.7 1.3-3.2 3.7zm21.5 6c-1.3 1.7-3.3 3.1-5.1 3.1c-3.8 0-6-3.1-6-6.3c0-2.3 1-4.3 3-5.9c1.6-1.2 3.4-1.7 4.6-1.7c1.2 0 2.1.4 2.6.8c.4.3.5.6.5.9c0 .7-.7 1.3-1 1.3c-.1 0-.3-.1-.6-.3c-.9-.8-1.9-1.2-3-1.2c-1.9 0-3.7 1.6-3.7 4.8c0 4.1 2.9 5.5 4.6 5.5c1.2 0 2.2-.3 3.6-1.6c0 0 .5.6.5.6zm7.6 2.7c-.5.2-1 .4-1.3.4c-1.9 0-2.9-1.2-2.9-3.6c-.02 0 0-8.7 0-8.7l-2.1 0l-.1-.3l.8-.9l1.4 0l0-2.2l1.9-2l.5.1l0 4.1c0 0 3.34 0 3.3 0c.3.3.2 1-.1 1.2c-.04-.03-3.2 0-3.2 0c0 0-.05 7.68 0 7.7c0 2.4.9 2.9 1.7 2.9c.7 0 1.4-.3 1.9-.6c-.05.05.2.8.2.8c0 0-2.02 1.08-2 1.1zm4.9-17.6c0-.9.8-1.6 1.6-1.6c.8 0 1.5.7 1.5 1.6c0 .8-.7 1.5-1.6 1.5c-.7 0-1.5-.7-1.5-1.5zm-1.6 17.6c0 0 .04-.77 0-.8c1.9-.2 2.1-.3 2.1-2.4c0 0 0-6.2 0-6.2c0-1.8 0-1.9-1.8-2.2c0 0 0-.8 0-.8c1.5-.2 2.9-.6 4.2-1.1c0 0 0 10.3 0 10.3c0 2.1.2 2.2 2.1 2.4c.04.03 0 .8 0 .8l-6.6 0zm21.3-6.8c0 4.9-3.5 7.2-6.5 7.2c-4.1 0-6.6-3.3-6.6-6.7c0-4.9 3.9-7.2 6.6-7.2c3.7 0 6.5 3 6.5 6.7zm-10.3-.4c0 3.8 1.7 6.6 4.1 6.6c1.9 0 3.4-1.4 3.4-5.5c0-3.5-1.4-6.4-4-6.4c-1.9 0-3.5 1.9-3.5 5.3zm12.3 5.8c0-.9.7-1.7 1.7-1.7c.9 0 1.7.8 1.7 1.7c0 1.1-.8 1.8-1.7 1.8c-1 0-1.7-.7-1.7-1.8z" stroke="none" fill="#000"/></g><g id="Polygon7416"><path d="m21.9 3.1c-2.5.3-2.7.4-2.7 2.9c0 0 0 12.1 0 12.1c0 2.5.2 2.7 2.6 2.9c.04-.03 0 .8 0 .8l-8 0c0 0 0-.83 0-.8c2.6-.2 2.8-.4 2.8-2.9c.02.02 0-6 0-6l-10.2 0c0 0-.01 6.02 0 6c0 2.5.2 2.7 2.7 2.9c-.01-.03 0 .8 0 .8l-7.9 0c0 0 0-.83 0-.8c2.4-.2 2.6-.4 2.6-2.9c0 0 0-12.1 0-12.1c0-2.5-.2-2.6-2.7-2.9c.04.05 0-.8 0-.8l7.8 0c0 0 .01.85 0 .8c-2.3.3-2.5.4-2.5 2.9c-.01 0 0 4.9 0 4.9l10.2 0c0 0 .02-4.9 0-4.9c0-2.5-.2-2.6-2.6-2.9c.04.05 0-.8 0-.8l7.9 0c0 0-.03.85 0 .8zm10.8 19.1c-.4 0-1.1-.3-1.4-.6c-.4-.4-.6-.8-.7-1.4c-1.2.9-2.7 2-3.6 2c-2.1 0-3.6-1.8-3.6-3.7c0-1.5.8-2.4 2.5-3c1.8-.6 4-1.4 4.6-1.9c0 0 0-.6 0-.6c0-2.1-1-3.3-2.5-3.3c-.6 0-1.1.2-1.4.6c-.3.3-.6 1-.9 1.9c-.1.5-.4.7-.8.7c-.6 0-1.3-.6-1.3-1.3c0-.4.3-.7.9-1.2c.9-.6 2.8-1.7 4.5-2.1c.9 0 1.8.3 2.5.8c1 .9 1.3 2.1 1.3 3.7c0 0 0 5.6 0 5.6c0 1.3.6 1.8 1.1 1.8c.3 0 .8-.2 1.1-.3c-.05-.04.3.7.3.7c0 0-2.6 1.57-2.6 1.6zm-2.2-7.6c-.6.3-2.1 1-2.7 1.3c-1.2.5-1.8 1.1-1.8 2.2c0 1.5 1.2 2.3 2.1 2.3c.8-.1 1.8-.6 2.4-1.1c0 0 0-4.7 0-4.7zm10.2-3.1c.9-1.5 2.1-3.2 3.6-3.2c1 0 1.7.8 1.7 1.5c0 .6-.4 1.2-.9 1.5c-.4.2-.7.1-.8-.1c-.5-.4-.8-.6-1.3-.6c-.8 0-1.7.9-2.4 2.6c0 0 0 5.5 0 5.5c0 2 .1 2.1 2.5 2.3c-.05.03 0 .8 0 .8l-6.9 0c0 0-.05-.77 0-.8c1.8-.2 2-.3 2-2.3c0 0 0-6.2 0-6.2c0-2-.1-2.1-1.8-2.4c0 0 0-.6 0-.6c1.4-.3 2.8-.6 4.2-1.3c-.01.05 0 3.3 0 3.3c0 0 .05.02.1 0zm17.4 7.6c-1.3 1.7-3.3 3.1-5.1 3.1c-3.7 0-6-3.1-6-6.3c0-2.3 1-4.3 3-5.9c1.6-1.2 3.4-1.7 4.6-1.7c1.2 0 2.2.4 2.6.8c.4.3.5.6.5.9c0 .7-.6 1.3-1 1.3c-.1 0-.3-.1-.5-.3c-.9-.8-2-1.2-3-1.2c-2 0-3.8 1.6-3.8 4.8c0 4.1 2.9 5.5 4.6 5.5c1.3 0 2.3-.3 3.6-1.6c0 0 .5.6.5.6zm9.4 2.7c0 0-.03-.77 0-.8c1.7-.2 2-.3 2-2.3c0 0 0-5 0-5c0-2.4-1-3.7-3-3.7c-1.1 0-2.3.6-3.1 1.6c0 0 0 7.1 0 7.1c0 1.9.1 2.1 1.9 2.3c.01.03 0 .8 0 .8l-6.3 0c0 0-.05-.77 0-.8c1.8-.1 2-.3 2-2.3c0 0 0-14.3 0-14.3c0-1.9 0-2-2-2.2c0 0 0-.7 0-.7c1.4-.2 3.2-.7 4.4-1.1c0 0 0 10.1 0 10.1c1-1.1 2.7-2.2 4.3-2.2c2.4 0 4.1 1.6 4.1 5.2c0 0 0 5.2 0 5.2c0 2 .2 2.2 2 2.3c0 .03 0 .8 0 .8l-6.3 0zm9.5-17.6c0-.9.7-1.6 1.5-1.6c.9 0 1.5.7 1.5 1.6c0 .8-.6 1.5-1.5 1.5c-.8 0-1.5-.7-1.5-1.5zm-1.6 17.6c0 0-.01-.77 0-.8c1.9-.2 2.1-.3 2.1-2.4c0 0 0-6.2 0-6.2c0-1.8-.1-1.9-1.9-2.2c0 0 0-.8 0-.8c1.5-.2 2.9-.6 4.3-1.1c0 0 0 10.3 0 10.3c0 2.1.2 2.2 2.1 2.4c-.01.03 0 .8 0 .8l-6.6 0zm7.7 0c0 0-.03-.77 0-.8c1.9-.2 2.1-.3 2.1-2.3c0 0 0-14.2 0-14.2c0-2-.2-2.1-2-2.3c0 0 0-.7 0-.7c1.5-.2 3.4-.7 4.4-1.1c0 0 0 18.3 0 18.3c0 2 .2 2.1 2.2 2.3c-.04.03 0 .8 0 .8l-6.7 0zm16.5-17.6c0-.9.7-1.6 1.5-1.6c.8 0 1.5.7 1.5 1.6c0 .8-.7 1.5-1.5 1.5c-.8 0-1.5-.7-1.5-1.5zm-1.6 17.6c0 0-.02-.77 0-.8c1.9-.2 2.1-.3 2.1-2.4c0 0 0-6.2 0-6.2c0-1.8-.1-1.9-1.9-2.2c0 0 0-.8 0-.8c1.5-.2 2.9-.6 4.2-1.1c0 0 0 10.3 0 10.3c0 2.1.3 2.2 2.2 2.4c-.02.03 0 .8 0 .8l-6.6 0zm14.5-13c.6-.3 1.1-.5 1.5-.5c3.3 0 5.3 2.7 5.3 5.7c0 4.5-3.6 7.4-7.5 8.2c-.8-.1-1.6-.4-2-.6c0 0 0 4 0 4c0 2.2.2 2.4 2.5 2.6c.02 0 0 .8 0 .8l-7.1 0c0 0 .01-.8 0-.8c1.9-.2 2.2-.4 2.2-2.3c0 0 0-13.6 0-13.6c0-2-.1-2-2-2.3c0 0 0-.7 0-.7c1.3-.2 3-.7 4.4-1.3c-.03.04 0 2.4 0 2.4c0 0 2.73-1.61 2.7-1.6zm-2.7 10.7c.6.7 1.8 1.2 2.8 1.2c2.5 0 4.2-2.2 4.2-5.6c0-3.2-1.8-5-4-5c-1 0-2.2.7-3 1.3c0 0 0 8.1 0 8.1zm19.4-7.3c-.5-1.7-1.6-2.9-3.1-2.9c-1.1 0-1.9.9-1.9 2c0 1.4 1.2 2.1 2.5 2.6c2.3 1 3.8 2.1 3.8 4.1c0 2.8-2.5 4.2-4.9 4.2c-1.6 0-2.9-.6-3.5-1.1c-.2-.4-.5-2.4-.5-3.5c0 0 .8-.1.8-.1c.6 1.9 1.9 3.7 3.7 3.7c1.1 0 2.1-.9 2.1-2.1c0-1.3-.8-2.1-2.3-2.8c-1.8-.8-3.8-1.8-3.8-4.1c0-2.1 1.8-3.9 4.6-3.9c1.2 0 2 .3 2.7.5c.2.7.5 2.5.6 3.3c0 0-.8.1-.8.1zm12.8 10c-.4 0-1-.3-1.4-.6c-.4-.4-.5-.8-.7-1.4c-1.2.9-2.6 2-3.5 2c-2.2 0-3.6-1.8-3.6-3.7c0-1.5.8-2.4 2.4-3c1.8-.6 4-1.4 4.7-1.9c0 0 0-.6 0-.6c0-2.1-1.1-3.3-2.6-3.3c-.6 0-1 .2-1.3.6c-.4.3-.7 1-.9 1.9c-.1.5-.5.7-.9.7c-.5 0-1.3-.6-1.3-1.3c0-.4.4-.7 1-1.2c.8-.6 2.7-1.7 4.5-2.1c.9 0 1.8.3 2.4.8c1.1.9 1.4 2.1 1.4 3.7c0 0 0 5.6 0 5.6c0 1.3.5 1.8 1 1.8c.4 0 .8-.2 1.1-.3c0-.04.3.7.3.7c0 0-2.55 1.57-2.6 1.6zm-2.1-7.6c-.7.3-2.1 1-2.7 1.3c-1.2.5-1.9 1.1-1.9 2.2c0 1.5 1.2 2.3 2.2 2.3c.7-.1 1.8-.6 2.4-1.1c0 0 0-4.7 0-4.7zm22.1 7.2c0 0 0-.77 0-.8c1.8-.2 2.1-.3 2.1-2.4c0 0 0-5 0-5c0-2.1-.8-3.5-2.6-3.5c-1.1 0-2.3.6-3.4 1.6c.1.3.1.7.1 1.2c0 0 0 5.9 0 5.9c0 1.9.3 2 1.9 2.2c.01.03 0 .8 0 .8l-6.4 0c0 0-.01-.77 0-.8c1.8-.2 2.1-.3 2.1-2.3c0 0 0-5.1 0-5.1c0-2.3-.8-3.5-2.6-3.5c-1.2 0-2.4.8-3.3 1.6c0 0 0 7 0 7c0 2 .3 2.1 1.7 2.3c.05.03 0 .8 0 .8l-6.3 0c0 0 .02-.77 0-.8c2-.2 2.3-.3 2.3-2.3c0 0 0-6.2 0-6.2c0-1.9-.1-2.1-1.9-2.3c0 0 0-.7 0-.7c1.4-.3 2.9-.7 4.2-1.3c0 0 0 2.5 0 2.5c.6-.4 1.3-1 2.2-1.6c.8-.4 1.5-.8 2.5-.8c1.4 0 2.7.9 3.3 2.5c.9-.7 1.7-1.2 2.5-1.7c.6-.4 1.4-.8 2.2-.8c2.4 0 3.8 1.7 3.8 4.6c0 0 0 5.8 0 5.8c0 2 .3 2.1 2 2.3c-.01.03 0 .8 0 .8l-6.4 0zm22-.7c-1.3.2-2.9.6-4.4 1.1c.04-.03-.1-.2-.1-.2c0 0-.04-2.14 0-2.1c-.7.5-1.4 1-2.3 1.5c-.8.5-1.5.8-2.3.8c-2 0-3.7-1.3-3.7-4.5c0 0 0-5.9 0-5.9c0-1.6-.1-1.8-1.8-2.1c0 0 0-.7 0-.7c1.4-.1 2.8-.2 4.3-.5c-.1.9-.1 2.3-.1 4.4c0 0 0 4 0 4c0 2.7 1.3 3.4 2.6 3.4c1.1 0 2.2-.5 3.3-1.5c0 0 0-7 0-7c0-1.7-.2-1.8-2.4-2.1c0 0 0-.7 0-.7c1.6-.1 3.1-.2 4.7-.5c0 0 0 10 0 10c0 1.5.3 1.7 1.4 1.8c.01-.02.8 0 .8 0c0 0 .05.79 0 .8zm9.2-8.9c-.6-1.7-1.7-2.9-3.1-2.9c-1.2 0-2 .9-2 2c0 1.4 1.2 2.1 2.6 2.6c2.2 1 3.8 2.1 3.8 4.1c0 2.8-2.6 4.2-5 4.2c-1.5 0-2.9-.6-3.4-1.1c-.3-.4-.5-2.4-.5-3.5c0 0 .8-.1.8-.1c.5 1.9 1.8 3.7 3.6 3.7c1.2 0 2.2-.9 2.2-2.1c0-1.3-.9-2.1-2.4-2.8c-1.8-.8-3.7-1.8-3.7-4.1c0-2.1 1.8-3.9 4.5-3.9c1.2 0 2.1.3 2.7.5c.2.7.6 2.5.6 3.3c0 0-.7.1-.7.1zm17.2 16.9c0 0 .02-.84 0-.8c2.4-.3 2.6-.4 2.6-2.5c-.03-.03 0-4.9 0-4.9c0 0-3.21 1.27-3.2 1.3c-4.4 0-6.5-3.4-6.5-6.3c0-4.3 3.9-7.6 8-7.6c1.1.1 1.8.3 2.1.4c.4.1.6.2.9.2c.1 0 .5-.1 1-.4c0 0 .1.1.1.1c0 .7-.1 1.2-.1 3.2c0 0 0 14 0 14c0 2.1.2 2.2 2.3 2.5c.02-.04 0 .8 0 .8l-7.2 0zm2.6-18.3c-.7-.8-2-1.3-3-1.3c-2 0-4 1.8-4 5.4c0 3.6 2.5 5.6 4.7 5.6c1 0 1.7-.2 2.3-.5c0 0 0-9.2 0-9.2zm19.7 10.3c-1.3.2-2.9.6-4.4 1.1c.03-.03-.2-.2-.2-.2c0 0 .05-2.14 0-2.1c-.6.5-1.3 1-2.2 1.5c-.8.5-1.5.8-2.3.8c-2 0-3.7-1.3-3.7-4.5c0 0 0-5.9 0-5.9c0-1.6-.1-1.8-1.8-2.1c0 0 0-.7 0-.7c1.4-.1 2.8-.2 4.3-.5c-.1.9-.1 2.3-.1 4.4c0 0 0 4 0 4c0 2.7 1.3 3.4 2.6 3.4c1.1 0 2.2-.5 3.2-1.5c0 0 0-7 0-7c0-1.7-.1-1.8-2.3-2.1c0 0 0-.7 0-.7c1.6-.1 3.1-.2 4.7-.5c0 0 0 10 0 10c0 1.5.3 1.7 1.4 1.8c0-.02.8 0 .8 0c0 0 .04.79 0 .8zm11 1.1c-.5 0-1.1-.3-1.5-.6c-.3-.4-.5-.8-.7-1.4c-1.2.9-2.6 2-3.5 2c-2.1 0-3.6-1.8-3.6-3.7c0-1.5.8-2.4 2.4-3c1.8-.6 4-1.4 4.7-1.9c0 0 0-.6 0-.6c0-2.1-1.1-3.3-2.6-3.3c-.6 0-1 .2-1.3.6c-.4.3-.7 1-.9 1.9c-.1.5-.5.7-.9.7c-.5 0-1.3-.6-1.3-1.3c0-.4.4-.7 1-1.2c.8-.6 2.8-1.7 4.5-2.1c.9 0 1.8.3 2.4.8c1.1.9 1.4 2.1 1.4 3.7c0 0 0 5.6 0 5.6c0 1.3.5 1.8 1 1.8c.4 0 .8-.2 1.1-.3c.01-.04.3.7.3.7c0 0-2.54 1.57-2.5 1.6zm-2.2-7.6c-.7.3-2.1 1-2.7 1.3c-1.2.5-1.9 1.1-1.9 2.2c0 1.5 1.2 2.3 2.2 2.3c.7-.1 1.8-.6 2.4-1.1c0 0 0-4.7 0-4.7zm11.2 7.2c-.5.2-1 .4-1.2.4c-1.9 0-3-1.2-3-3.6c.02 0 0-8.7 0-8.7l-2.1 0l-.1-.3l.8-.9l1.4 0l0-2.2l2-2l.4.1l0 4.1c0 0 3.38 0 3.4 0c.2.3.2 1-.2 1.2c0-.03-3.2 0-3.2 0c0 0-.01 7.68 0 7.7c0 2.4 1 2.9 1.7 2.9c.8 0 1.5-.3 1.9-.6c-.01.05.3.8.3.8c0 0-2.08 1.08-2.1 1.1zm12.9.4c-.5 0-1.1-.3-1.4-.6c-.4-.4-.6-.8-.7-1.4c-1.2.9-2.7 2-3.6 2c-2.1 0-3.6-1.8-3.6-3.7c0-1.5.8-2.4 2.4-3c1.8-.6 4-1.4 4.7-1.9c0 0 0-.6 0-.6c0-2.1-1-3.3-2.5-3.3c-.6 0-1.1.2-1.4.6c-.4.3-.6 1-.9 1.9c-.1.5-.4.7-.8.7c-.6 0-1.4-.6-1.4-1.3c0-.4.4-.7 1-1.2c.8-.6 2.8-1.7 4.5-2.1c.9 0 1.8.3 2.5.8c1 .9 1.3 2.1 1.3 3.7c0 0 0 5.6 0 5.6c0 1.3.5 1.8 1.1 1.8c.3 0 .7-.2 1-.3c.04-.04.3.7.3.7c0 0-2.51 1.57-2.5 1.6zm-2.2-7.6c-.6.3-2.1 1-2.7 1.3c-1.2.5-1.8 1.1-1.8 2.2c0 1.5 1.2 2.3 2.1 2.3c.8-.1 1.8-.6 2.4-1.1c0 0 0-4.7 0-4.7zm16.8 4.7c-1.9 2.3-4 2.9-4.9 2.9c-3.7 0-5.9-3-5.9-6.4c0-2.1.8-3.9 2-5.3c1.2-1.4 2.9-2.2 4.4-2.2c2.5 0 4.5 2.3 4.5 4.6c0 .6-.1.8-.7 1c-.5 0-4.2.3-7.8.5c0 4 2.4 5.7 4.5 5.7c1.2 0 2.3-.5 3.4-1.5c0 0 .5.7.5.7zm-8.3-6.2c1.7 0 3.4 0 5.1-.1c.6 0 .7-.1.7-.6c.1-1.5-1-3-2.6-3c-1.4 0-2.7 1.3-3.2 3.7zm14.7-1.6c.9-1.5 2.1-3.2 3.6-3.2c1 0 1.7.8 1.7 1.5c0 .6-.4 1.2-.9 1.5c-.4.2-.7.1-.8-.1c-.5-.4-.8-.6-1.3-.6c-.8 0-1.7.9-2.4 2.6c0 0 0 5.5 0 5.5c0 2 .1 2.1 2.5 2.3c-.04.03 0 .8 0 .8l-6.9 0c0 0-.04-.77 0-.8c1.8-.2 2-.3 2-2.3c0 0 0-6.2 0-6.2c0-2-.1-2.1-1.8-2.4c0 0 0-.6 0-.6c1.4-.3 2.8-.6 4.2-1.3c0 .05 0 3.3 0 3.3c0 0 .06.02.1 0zm8.3-7.3c0-.9.7-1.6 1.6-1.6c.8 0 1.5.7 1.5 1.6c0 .8-.7 1.5-1.6 1.5c-.8 0-1.5-.7-1.5-1.5zm-1.6 17.6c0 0 .04-.77 0-.8c1.9-.2 2.1-.3 2.1-2.4c0 0 0-6.2 0-6.2c0-1.8-.1-1.9-1.9-2.2c0 0 0-.8 0-.8c1.6-.2 3-.6 4.3-1.1c0 0 0 10.3 0 10.3c0 2.1.2 2.2 2.1 2.4c.04.03 0 .8 0 .8l-6.6 0zm13.7 0c-.6.2-1 .4-1.3.4c-1.9 0-2.9-1.2-2.9-3.6c-.05 0 0-8.7 0-8.7l-2.1 0l-.1-.3l.8-.9l1.4 0l0-2.2l1.9-2l.4.1l0 4.1c0 0 3.41 0 3.4 0c.3.3.2 1-.2 1.2c.03-.03-3.2 0-3.2 0c0 0 .02 7.68 0 7.7c0 2.4 1 2.9 1.8 2.9c.7 0 1.4-.3 1.8-.6c.02.05.3.8.3.8c0 0-2.05 1.08-2 1.1zm9.5 0c0 0-.04-.77 0-.8c1.9-.2 2.1-.3 2.1-2.3c0 0 0-14.2 0-14.2c0-2-.2-2.1-2-2.3c0 0 0-.7 0-.7c1.5-.2 3.4-.7 4.4-1.1c0 0 0 18.3 0 18.3c0 2 .2 2.1 2.2 2.3c-.05.03 0 .8 0 .8l-6.7 0zm17.6.4c-.4 0-1-.3-1.4-.6c-.4-.4-.5-.8-.7-1.4c-1.2.9-2.6 2-3.5 2c-2.2 0-3.6-1.8-3.6-3.7c0-1.5.7-2.4 2.4-3c1.8-.6 4-1.4 4.6-1.9c0 0 0-.6 0-.6c0-2.1-1-3.3-2.5-3.3c-.6 0-1 .2-1.3.6c-.4.3-.7 1-.9 1.9c-.1.5-.5.7-.9.7c-.5 0-1.3-.6-1.3-1.3c0-.4.4-.7.9-1.2c.9-.6 2.8-1.7 4.5-2.1c.9 0 1.8.3 2.5.8c1.1.9 1.4 2.1 1.4 3.7c0 0 0 5.6 0 5.6c0 1.3.5 1.8 1 1.8c.4 0 .8-.2 1.1-.3c-.02-.04.3.7.3.7c0 0-2.57 1.57-2.6 1.6zm-2.2-7.6c-.6.3-2 1-2.7 1.3c-1.1.5-1.8 1.1-1.8 2.2c0 1.5 1.2 2.3 2.1 2.3c.8-.1 1.9-.6 2.4-1.1c0 0 0-4.7 0-4.7zm11.7-6c.5-.2.9-.3 1.2-.3c3.3 0 6 2.8 6 6.3c0 4.4-3.6 7.6-7.6 7.6c-1.2 0-2.7-.3-4.4-1.1c0 0 0-16.7 0-16.7c0-1.9 0-2-2-2.2c0 0 0-.7 0-.7c1.4-.2 3.3-.7 4.4-1.1c-.02.05 0 9.3 0 9.3c0 0 2.41-1.06 2.4-1.1zm-2.4 9.7c0 .5 0 .8.2 1c.1.6 1 1.7 2.6 1.7c2.5 0 4.1-2.1 4.1-5.6c0-3.4-2.1-5.4-4.6-5.4c-.8 0-1.8.3-2.3.6c0 0 0 7.7 0 7.7zm25.1-3.3c0 4.9-3.5 7.2-6.5 7.2c-4.1 0-6.6-3.3-6.6-6.7c0-4.9 3.9-7.2 6.6-7.2c3.7 0 6.5 3 6.5 6.7zm-10.3-.4c0 3.8 1.7 6.6 4.1 6.6c1.9 0 3.4-1.4 3.4-5.5c0-3.5-1.4-6.4-4-6.4c-1.8 0-3.5 1.9-3.5 5.3zm12.3 5.8c0-.9.7-1.7 1.7-1.7c.9 0 1.7.8 1.7 1.7c0 1.1-.8 1.8-1.7 1.8c-1 0-1.7-.7-1.7-1.8z" stroke="none" fill="#000"/></g></svg>