<?xml version="1.0" standalone="no"?><!DOCTYPE svg PUBLIC "-//W3C//DTD SVG 1.1//EN" "http://www.w3.org/Graphics/SVG/1.1/DTD/svg11.dtd"><svg xmlns="http://www.w3.org/2000/svg" version="1.1" width="746px" height="55px" viewBox="0 0 746 55"><desc>Home</desc><defs/><g id="Polygon6845"><path d="m104.4 18l0 5.2l5 0l0-5.2l3 0l0 13.5l-3 0l0-5.6l-5 0l0 5.6l-3.1 0l0-13.5l3.1 0zm20.3 8.5c0 3.6-2.5 5.2-5.2 5.2c-2.8 0-5-1.9-5-5c0-3.2 2.1-5.2 5.2-5.2c3 0 5 2 5 5zm-7.1.1c0 1.7.7 2.9 2 2.9c1.2 0 2-1.1 2-2.9c0-1.5-.6-2.9-2-2.9c-1.4 0-2 1.5-2 2.9zm9.1-1.8c0-1.2-.1-2.2-.1-3.1c0 .02 2.6 0 2.6 0l.1 1.3c0 0 .06.04.1 0c.4-.6 1.3-1.5 2.9-1.5c1.3 0 2.3.6 2.7 1.7c0 0 0 0 0 0c.4-.6.8-1 1.3-1.2c.6-.3 1.2-.5 1.9-.5c1.9 0 3.3 1.3 3.3 4.2c-.02.04 0 5.8 0 5.8l-3 0c0 0 .02-5.32 0-5.3c0-1.4-.4-2.3-1.4-2.3c-.7 0-1.2.5-1.4 1.1c-.1.2-.1.5-.1.8c-.04-.02 0 5.7 0 5.7l-3 0c0 0 0-5.5 0-5.5c0-1.2-.4-2.1-1.4-2.1c-.8 0-1.3.6-1.4 1.1c-.1.3-.2.5-.2.8c.04 0 0 5.7 0 5.7l-2.9 0c0 0-.02-6.66 0-6.7zm19.6 2.8c.1 1.2 1.4 1.8 2.8 1.8c1 0 1.9-.1 2.7-.4c0 0 .4 2.1.4 2.1c-1 .4-2.2.6-3.6.6c-3.3 0-5.2-1.9-5.2-5c0-2.5 1.6-5.2 5-5.2c3.1 0 4.3 2.5 4.3 4.9c0 .5 0 1-.1 1.2c0 0-6.3 0-6.3 0zm3.6-2.1c0-.7-.3-2-1.7-2c-1.3 0-1.8 1.2-1.9 2c0 0 3.6 0 3.6 0z" stroke="none" fill="#fff"/></g></svg>