<?xml version="1.0" standalone="no"?><!DOCTYPE svg PUBLIC "-//W3C//DTD SVG 1.1//EN" "http://www.w3.org/Graphics/SVG/1.1/DTD/svg11.dtd"><svg xmlns="http://www.w3.org/2000/svg" version="1.1" width="746px" height="55px" viewBox="0 0 746 55"><desc>Islands</desc><defs/><g id="Polygon6599"><path d="m104.4 18l0 13.5l-3.1 0l0-13.5l3.1 0zm2.5 10.9c.6.3 1.8.7 2.7.7c.9 0 1.3-.3 1.3-.8c0-.5-.3-.8-1.5-1.2c-2-.6-2.8-1.7-2.8-2.9c0-1.8 1.6-3.2 4-3.2c1.2 0 2.2.3 2.8.6c0 0-.6 2.1-.6 2.1c-.4-.3-1.3-.6-2.1-.6c-.7 0-1.1.3-1.1.8c0 .5.3.7 1.5 1.1c1.9.7 2.7 1.6 2.7 3c0 1.9-1.4 3.2-4.2 3.2c-1.3 0-2.5-.3-3.2-.7c0 0 .5-2.1.5-2.1zm8.8-11.6l3.1 0l0 14.2l-3.1 0l0-14.2zm13.8 11.8c0 1 0 1.9.1 2.4c.04 0-2.7 0-2.7 0l-.2-1c0 0-.04.02 0 0c-.7.8-1.7 1.2-2.8 1.2c-2 0-3.2-1.4-3.2-3c0-2.5 2.3-3.7 5.7-3.7c0 0 0-.1 0-.1c0-.6-.2-1.3-1.7-1.3c-1 0-2.1.3-2.7.7c0 0-.6-1.9-.6-1.9c.7-.4 2-.9 3.8-.9c3.3 0 4.3 1.9 4.3 4.2c0 0 0 3.4 0 3.4zm-3-2.2c-1.6 0-2.8.4-2.8 1.5c0 .8.5 1.2 1.2 1.2c.7 0 1.4-.5 1.6-1.1c0-.2 0-.4 0-.6c0 0 0-1 0-1zm5.5-2.1c0-1.2 0-2.2-.1-3.1c.02.02 2.7 0 2.7 0l.1 1.4c0 0 .06-.02.1 0c.4-.7 1.3-1.6 3-1.6c2 0 3.5 1.3 3.5 4.2c-.02.02 0 5.8 0 5.8l-3.1 0c0 0 .04-5.42 0-5.4c0-1.3-.4-2.1-1.5-2.1c-.8 0-1.3.5-1.6 1.1c0 .2-.1.5-.1.8c.04-.04 0 5.6 0 5.6l-3 0c0 0 0-6.66 0-6.7zm21.3-7.5c0 0 0 11.28 0 11.3c0 1.1 0 2.2.1 2.9c-.02 0-2.7 0-2.7 0l-.1-1.4c0 0-.1-.02-.1 0c-.6 1.1-1.8 1.6-3.1 1.6c-2.3 0-4.1-2-4.1-5c-.1-3.3 2-5.2 4.3-5.2c1.3 0 2.2.4 2.6 1.1c.02-.02.1 0 .1 0l0-5.3l3 0zm-3 8.6c0-.2 0-.4-.1-.6c-.2-.8-.8-1.5-1.8-1.5c-1.4 0-2.1 1.3-2.1 2.8c0 1.7.9 2.7 2.1 2.7c.9 0 1.6-.6 1.8-1.5c0-.2.1-.4.1-.7c0 0 0-1.2 0-1.2zm5.5 3c.6.3 1.7.7 2.6.7c1 0 1.3-.3 1.3-.8c0-.5-.3-.8-1.4-1.2c-2-.6-2.8-1.7-2.8-2.9c0-1.8 1.6-3.2 4-3.2c1.1 0 2.1.3 2.7.6c0 0-.5 2.1-.5 2.1c-.4-.3-1.3-.6-2.1-.6c-.7 0-1.2.3-1.2.8c0 .5.4.7 1.6 1.1c1.9.7 2.6 1.6 2.7 3c0 1.9-1.5 3.2-4.3 3.2c-1.2 0-2.4-.3-3.1-.7c0 0 .5-2.1.5-2.1z" stroke="none" fill="#fff"/></g></svg>