<?xml version="1.0" standalone="no"?><!DOCTYPE svg PUBLIC "-//W3C//DTD SVG 1.1//EN" "http://www.w3.org/Graphics/SVG/1.1/DTD/svg11.dtd"><svg xmlns="http://www.w3.org/2000/svg" version="1.1" width="195.5px" height="54px" viewBox="0 0 195.5 54"><desc>Getting there</desc><defs/><g id="Polygon10843"><path d="m50.1 29.5c-.8.3-2.2.6-3.6.6c-2 0-3.4-.5-4.4-1.4c-1-1-1.5-2.4-1.5-4c0-3.5 2.6-5.6 6.1-5.6c1.4 0 2.5.3 3 .5c0 0-.5 2-.5 2c-.6-.3-1.3-.5-2.5-.5c-2 0-3.6 1.2-3.6 3.5c0 2.2 1.4 3.5 3.4 3.5c.6 0 1 0 1.2-.1c.01 0 0-2.3 0-2.3l-1.7 0l0-1.9l4.1 0c0 0-.04 5.7 0 5.7zm3.8-2.6c0 1 1 1.5 2.2 1.5c.8 0 1.5-.2 2.1-.4c0 0 .3 1.7.3 1.7c-.8.3-1.7.5-2.8.5c-2.6 0-4.2-1.6-4.2-4c0-2 1.3-4.2 4-4.2c2.5 0 3.5 2 3.5 3.9c0 .4-.1.8-.1 1c0 0-5 0-5 0zm2.8-1.7c0-.6-.2-1.6-1.4-1.6c-1 0-1.4 1-1.5 1.6c0 0 2.9 0 2.9 0zm6.5-5.1l0 2.1l1.7 0l0 1.8l-1.7 0c0 0-.05 2.8 0 2.8c0 .9.2 1.4.9 1.4c.3 0 .5 0 .7-.1c0 0 0 1.9 0 1.9c-.3.1-.8.2-1.5.2c-.8 0-1.5-.3-1.9-.7c-.4-.5-.6-1.2-.6-2.3c-.03-.03 0-3.2 0-3.2l-1.1 0l0-1.8l1.1 0l0-1.5l2.4-.6zm5.8 0l0 2.1l1.8 0l0 1.8l-1.8 0c0 0 .02 2.8 0 2.8c0 .9.3 1.4 1 1.4c.3 0 .5 0 .7-.1c0 0 0 1.9 0 1.9c-.3.1-.9.2-1.5.2c-.8 0-1.5-.3-1.9-.7c-.4-.5-.7-1.2-.7-2.3c.04-.03 0-3.2 0-3.2l-1 0l0-1.8l1 0l0-1.5l2.4-.6zm3.2 9.9l0-7.8l2.4 0l0 7.8l-2.4 0zm2.5-10c0 .7-.5 1.2-1.3 1.2c-.8 0-1.3-.5-1.3-1.2c0-.7.5-1.2 1.3-1.2c.8 0 1.3.5 1.3 1.2zm1.9 4.7c0-1-.1-1.8-.1-2.5c0-.02 2.1 0 2.1 0l.1 1.1c0 0 .07-.04.1 0c.3-.5 1.1-1.3 2.4-1.3c1.6 0 2.8 1.1 2.8 3.4c-.02-.02 0 4.6 0 4.6l-2.4 0c0 0-.05-4.34 0-4.3c0-1-.4-1.7-1.3-1.7c-.7 0-1.1.4-1.2.9c-.1.1-.1.4-.1.6c-.01-.01 0 4.5 0 4.5l-2.4 0c0 0-.04-5.33 0-5.3zm16.7 4.2c0 1.5-.3 2.7-1.2 3.5c-.8.7-2 .9-3.1.9c-1.1 0-2.1-.2-2.8-.5c0 0 .4-1.9.4-1.9c.5.3 1.4.6 2.3.6c1.2 0 2-.6 2-2.1c.04.02 0-.5 0-.5c0 0 .01.03 0 0c-.5.7-1.2 1-2.1 1c-1.9 0-3.3-1.5-3.3-3.8c0-2.5 1.6-4.1 3.5-4.1c1.1 0 1.8.5 2.2 1.1c-.02.02 0 0 0 0l.1-.9c0 0 2.11-.02 2.1 0c0 .5-.1 1.1-.1 2.3c0 0 0 4.4 0 4.4zm-2.4-3.5c0-.2 0-.3 0-.5c-.2-.6-.7-1.1-1.3-1.1c-.9 0-1.6.8-1.6 2.3c0 1.1.5 2 1.5 2c.7 0 1.2-.4 1.3-.9c.1-.2.1-.5.1-.7c0 0 0-1.1 0-1.1zm10.3-5.3l0 2.1l1.8 0l0 1.8l-1.8 0c0 0 .05 2.8 0 2.8c0 .9.3 1.4 1 1.4c.3 0 .5 0 .7-.1c0 0 0 1.9 0 1.9c-.3.1-.9.2-1.5.2c-.8 0-1.5-.3-1.9-.7c-.4-.5-.6-1.2-.6-2.3c-.04-.03 0-3.2 0-3.2l-1.1 0l0-1.8l1.1 0l0-1.5l2.3-.6zm3.2-1.5l2.4 0l0 4.5c0 0 .06.02.1 0c.2-.3.5-.6.9-.8c.4-.2.8-.3 1.3-.3c1.5 0 2.7 1.1 2.7 3.4c.02.04 0 4.6 0 4.6l-2.4 0c0 0-.01-4.3 0-4.3c0-1-.4-1.7-1.3-1.7c-.6 0-1 .4-1.2.8c-.1.2-.1.4-.1.6c.03-.04 0 4.6 0 4.6l-2.4 0l0-11.4zm11.2 8.3c.1 1 1.1 1.5 2.3 1.5c.8 0 1.5-.2 2.1-.4c0 0 .3 1.7.3 1.7c-.8.3-1.7.5-2.8.5c-2.7 0-4.2-1.6-4.2-4c0-2 1.3-4.2 4-4.2c2.5 0 3.5 2 3.5 3.9c0 .4-.1.8-.1 1c0 0-5.1 0-5.1 0zm2.9-1.7c0-.6-.2-1.6-1.4-1.6c-1 0-1.4 1-1.5 1.6c0 0 2.9 0 2.9 0zm3.7-.4c0-1.2 0-2 0-2.6c-.04-.02 2 0 2 0l.1 1.4c0 0 .1.02.1 0c.4-1.1 1.3-1.6 2.1-1.6c.2 0 .3 0 .5 0c0 0 0 2.3 0 2.3c-.2 0-.4 0-.6 0c-.9 0-1.5.4-1.7 1.2c0 .1 0 .3 0 .5c-.05.03 0 4 0 4l-2.5 0c0 0 .02-5.25 0-5.2zm7.8 2.1c.1 1 1.1 1.5 2.3 1.5c.8 0 1.5-.2 2.1-.4c0 0 .3 1.7.3 1.7c-.8.3-1.7.5-2.8.5c-2.7 0-4.2-1.6-4.2-4c0-2 1.3-4.2 4-4.2c2.5 0 3.5 2 3.5 3.9c0 .4-.1.8-.1 1c0 0-5.1 0-5.1 0zm2.9-1.7c0-.6-.2-1.6-1.4-1.6c-1 0-1.4 1-1.5 1.6c0 0 2.9 0 2.9 0z" stroke="none" fill="#fff"/></g></svg>