<?xml version="1.0" standalone="no"?><!DOCTYPE svg PUBLIC "-//W3C//DTD SVG 1.1//EN" "http://www.w3.org/Graphics/SVG/1.1/DTD/svg11.dtd"><svg xmlns="http://www.w3.org/2000/svg" version="1.1" width="376px" height="90.5px" viewBox="0 0 376 90.5"><desc>Anacapa Island 699 acres</desc><defs/><g id="Polygon7481"><path d="m8.2 60.2c-.3 0-.6 0-1 .1c-2.5.2-3.5 1.4-3.9 2.8c0 0 .1 0 .1 0c.6-.6 1.4-.9 2.5-.9c1.9 0 3.6 1.3 3.6 3.8c0 2.3-1.8 4.2-4.3 4.2c-3.1 0-4.7-2.3-4.7-5.1c0-2.2.8-4 2.1-5.2c1.2-1.1 2.7-1.7 4.5-1.7c.5-.1.9-.1 1.1-.1c0 0 0 2.1 0 2.1zm-1.5 5.9c0-1.1-.5-2-1.7-2c-.8 0-1.4.4-1.6 1c-.1.2-.1.4-.1.7c0 1.3.6 2.4 1.9 2.4c.9 0 1.5-.9 1.5-2.1zm4.9 1.9c.4.1.6.1 1.2 0c.8 0 1.7-.2 2.3-.7c.8-.5 1.3-1.3 1.5-2.2c0 0-.1 0-.1 0c-.5.6-1.3.9-2.3.9c-2 0-3.7-1.4-3.7-3.7c0-2.3 1.9-4.2 4.4-4.2c3 0 4.5 2.3 4.5 5c0 2.5-.8 4.3-2.1 5.4c-1.1 1.1-2.6 1.6-4.5 1.7c-.4 0-.9 0-1.2 0c0 0 0-2.2 0-2.2zm1.6-5.8c0 1 .6 1.8 1.7 1.8c.8 0 1.3-.3 1.5-.7c.1-.2.2-.4.2-.7c0-1.3-.5-2.5-1.8-2.5c-.9 0-1.6.8-1.6 2.1zm8.4 5.8c.3.1.6.1 1.2 0c.8 0 1.7-.2 2.3-.7c.7-.5 1.3-1.3 1.4-2.2c0 0 0 0 0 0c-.5.6-1.3.9-2.3.9c-2 0-3.7-1.4-3.7-3.7c0-2.3 1.9-4.2 4.4-4.2c3 0 4.5 2.3 4.5 5c0 2.5-.8 4.3-2.1 5.4c-1.1 1.1-2.7 1.6-4.5 1.7c-.4 0-.9 0-1.2 0c0 0 0-2.2 0-2.2zm1.6-5.8c0 1 .6 1.8 1.7 1.8c.7 0 1.3-.3 1.5-.7c.1-.2.1-.4.1-.7c.1-1.3-.4-2.5-1.7-2.5c-.9 0-1.6.8-1.6 2.1zm18.8 5.7c0 .8.1 1.6.2 2.1c-.03 0-2.5 0-2.5 0l-.2-.9c0 0-.01.02 0 0c-.6.7-1.5 1.1-2.5 1.1c-1.8 0-2.9-1.3-2.9-2.7c0-2.3 2.1-3.4 5.2-3.4c0 0 0-.1 0-.1c0-.5-.3-1.1-1.6-1.1c-.9 0-1.9.3-2.4.6c0 0-.5-1.7-.5-1.7c.6-.4 1.8-.8 3.4-.8c2.9 0 3.8 1.7 3.8 3.8c0 0 0 3.1 0 3.1zm-2.6-2.1c-1.5 0-2.6.4-2.6 1.4c0 .7.5 1.1 1.1 1.1c.7 0 1.2-.5 1.4-1c.1-.2.1-.3.1-.5c0 0 0-1 0-1zm11.4 4c-.5.2-1.4.4-2.4.4c-2.9 0-4.7-1.8-4.7-4.5c0-2.6 1.8-4.7 5-4.7c.8 0 1.6.1 2.1.3c0 0-.4 2.1-.4 2.1c-.3-.2-.8-.3-1.5-.3c-1.5 0-2.4 1-2.4 2.5c0 1.6 1.1 2.4 2.4 2.4c.7 0 1.2-.1 1.6-.2c0 0 .3 2 .3 2zm1.5-5.7c0-1.3 0-2.1 0-2.9c-.05 0 2.3 0 2.3 0l.1 1.6c0 0 .07.02.1 0c.4-1.3 1.5-1.8 2.3-1.8c.3 0 .4 0 .6 0c0 0 0 2.6 0 2.6c-.2 0-.4-.1-.7-.1c-1 0-1.7.6-1.9 1.4c0 .2 0 .4 0 .6c-.04.04 0 4.5 0 4.5l-2.8 0c0 0 .03-5.9 0-5.9zm8.8 2.4c.1 1.1 1.2 1.6 2.5 1.6c.9 0 1.7-.1 2.4-.3c0 0 .4 1.8.4 1.8c-.9.4-2 .6-3.2.6c-3 0-4.7-1.7-4.7-4.5c0-2.2 1.4-4.7 4.5-4.7c2.8 0 3.9 2.2 3.9 4.4c0 .5-.1.9-.1 1.1c0 0-5.7 0-5.7 0zm3.2-1.9c0-.7-.2-1.8-1.5-1.8c-1.2 0-1.6 1.1-1.7 1.8c0 0 3.2 0 3.2 0zm4.2 3c.5.3 1.6.7 2.4.7c.8 0 1.1-.3 1.1-.7c0-.5-.2-.7-1.2-1.1c-1.9-.6-2.6-1.6-2.6-2.6c0-1.7 1.4-2.9 3.6-2.9c1 0 1.9.2 2.5.5c0 0-.5 1.9-.5 1.9c-.4-.2-1.2-.5-1.9-.5c-.7 0-1 .3-1 .7c0 .4.3.6 1.4 1c1.7.6 2.3 1.5 2.4 2.7c0 1.7-1.3 2.9-3.8 2.9c-1.2 0-2.2-.3-2.9-.6c0 0 .5-2 .5-2z" stroke="none" fill="#000"/></g><g id="Polygon7480"><path d="m8.9 23.1l-1.9 6.9l-6.3 0l8.2-27l8 0l8.4 27l-6.6 0l-2.1-6.9l-7.7 0zm6.9-4.6c0 0-1.72-5.7-1.7-5.7c-.5-1.6-1-3.6-1.4-5.2c0 0-.1 0-.1 0c-.4 1.6-.8 3.6-1.2 5.2c0 0-1.6 5.7-1.6 5.7l6 0zm12.6-1.8c0-2.5 0-4.5-.1-6.3c-.02.04 5.3 0 5.3 0l.2 2.8c0 0 .16-.04.2 0c.8-1.3 2.7-3.2 6-3.2c4 0 7 2.7 7 8.4c0 .04 0 11.6 0 11.6l-6.1 0c0 0 .02-10.84 0-10.8c0-2.6-.9-4.3-3.1-4.3c-1.6 0-2.6 1.2-3.1 2.3c-.1.4-.2 1-.2 1.5c.02.02 0 11.3 0 11.3l-6.1 0c0 0 .04-13.32 0-13.3zm39.8 8.6c0 1.8 0 3.6.3 4.7c-.02 0-5.5 0-5.5 0l-.4-2c0 0-.08.04-.1 0c-1.3 1.6-3.3 2.4-5.6 2.4c-3.9 0-6.3-2.8-6.3-6c0-5 4.6-7.4 11.5-7.4c0 0 0-.3 0-.3c0-1.1-.6-2.5-3.6-2.5c-2 0-4.1.6-5.4 1.4c0 0-1.1-3.9-1.1-3.9c1.4-.7 4-1.7 7.6-1.7c6.5 0 8.6 3.8 8.6 8.4c0 0 0 6.9 0 6.9zm-5.9-4.5c-3.2 0-5.7.7-5.7 3c0 1.6 1 2.4 2.4 2.4c1.5 0 2.8-1 3.2-2.3c0-.3.1-.7.1-1c0 0 0-2.1 0-2.1zm25.4 8.7c-1.1.5-3.1.9-5.5.9c-6.3 0-10.3-3.9-10.3-10c0-5.7 3.9-10.4 11.2-10.4c1.6 0 3.3.3 4.6.8c0 0-.9 4.5-.9 4.5c-.8-.3-1.8-.6-3.4-.6c-3.2 0-5.3 2.3-5.3 5.5c0 3.5 2.4 5.4 5.4 5.4c1.4 0 2.5-.2 3.5-.6c0 0 .7 4.5.7 4.5zm19.8-4.2c0 1.8.1 3.6.3 4.7c0 0-5.5 0-5.5 0l-.3-2c0 0-.16.04-.2 0c-1.2 1.6-3.2 2.4-5.6 2.4c-3.9 0-6.3-2.8-6.3-6c0-5 4.6-7.4 11.5-7.4c0 0 0-.3 0-.3c0-1.1-.6-2.5-3.6-2.5c-2 0-4.1.6-5.4 1.4c0 0-1.1-3.9-1.1-3.9c1.4-.7 4.1-1.7 7.6-1.7c6.5 0 8.6 3.8 8.6 8.4c0 0 0 6.9 0 6.9zm-5.9-4.5c-3.2 0-5.7.7-5.7 3c0 1.6 1.1 2.4 2.4 2.4c1.5 0 2.8-1 3.2-2.3c.1-.3.1-.7.1-1c0 0 0-2.1 0-2.1zm10.7-3.8c0-2.6-.1-4.7-.1-6.6c-.04.04 5.2 0 5.2 0l.3 2.8c0 0 .1-.04.1 0c1.4-2.1 3.7-3.2 6.5-3.2c4.3 0 8.1 3.7 8.1 10c0 7.1-4.5 10.4-8.8 10.4c-2.4 0-4.2-.9-5.1-2.2c-.02 0-.1 0-.1 0l0 9.7l-6.1 0c0 0 .02-20.9 0-20.9zm6.1 4.6c0 .5 0 .9.1 1.3c.4 1.6 1.8 2.9 3.6 2.9c2.6 0 4.2-2.2 4.2-5.6c0-3.1-1.4-5.4-4.1-5.4c-1.8 0-3.3 1.2-3.7 3c-.1.4-.1.8-.1 1.1c0 0 0 2.7 0 2.7zm34.1 3.7c0 1.8.1 3.6.3 4.7c.04 0-5.4 0-5.4 0l-.4-2c0 0-.12.04-.1 0c-1.3 1.6-3.3 2.4-5.6 2.4c-4 0-6.3-2.8-6.3-6c0-5 4.5-7.4 11.4-7.4c0 0 0-.3 0-.3c0-1.1-.5-2.5-3.5-2.5c-2 0-4.1.6-5.4 1.4c0 0-1.1-3.9-1.1-3.9c1.3-.7 4-1.7 7.6-1.7c6.5 0 8.5 3.8 8.5 8.4c0 0 0 6.9 0 6.9zm-5.9-4.5c-3.2 0-5.6.7-5.6 3c0 1.6 1 2.4 2.4 2.4c1.4 0 2.7-1 3.1-2.3c.1-.3.1-.7.1-1c0 0 0-2.1 0-2.1zm25.2-17.8l0 27l-6.1 0l0-27l6.1 0zm4.9 21.7c1.1.7 3.4 1.5 5.2 1.5c1.9 0 2.6-.6 2.6-1.6c0-1.1-.6-1.6-2.8-2.3c-4.1-1.4-5.7-3.6-5.6-5.9c0-3.7 3.1-6.4 7.9-6.4c2.3 0 4.3.5 5.5 1.1c0 0-1 4.2-1 4.2c-.9-.5-2.6-1.1-4.3-1.1c-1.4 0-2.3.6-2.3 1.6c0 .9.8 1.4 3.2 2.2c3.7 1.3 5.2 3.2 5.3 6.1c0 3.7-2.9 6.3-8.5 6.3c-2.5 0-4.8-.6-6.3-1.4c0 0 1.1-4.3 1.1-4.3zm17.4-23.1l6.1 0l0 28.4l-6.1 0l0-28.4zm27.3 23.7c0 1.8 0 3.6.3 4.7c-.02 0-5.5 0-5.5 0l-.4-2c0 0-.08.04-.1 0c-1.3 1.6-3.3 2.4-5.6 2.4c-3.9 0-6.3-2.8-6.3-6c0-5 4.6-7.4 11.5-7.4c0 0 0-.3 0-.3c0-1.1-.6-2.5-3.6-2.5c-2 0-4.1.6-5.4 1.4c0 0-1.1-3.9-1.1-3.9c1.4-.7 4-1.7 7.6-1.7c6.5 0 8.6 3.8 8.6 8.4c0 0 0 6.9 0 6.9zm-5.9-4.5c-3.2 0-5.7.7-5.7 3c0 1.6 1 2.4 2.4 2.4c1.5 0 2.8-1 3.2-2.3c0-.3.1-.7.1-1c0 0 0-2.1 0-2.1zm10.7-4.1c0-2.5-.1-4.5-.2-6.3c.04.04 5.3 0 5.3 0l.3 2.8c0 0 .12-.04.1 0c.8-1.3 2.8-3.2 6.1-3.2c4 0 7 2.7 7 8.4c-.04.04 0 11.6 0 11.6l-6.1 0c0 0-.02-10.84 0-10.8c0-2.6-.9-4.3-3.1-4.3c-1.7 0-2.7 1.2-3.1 2.3c-.2.4-.2 1-.2 1.5c-.02.02 0 11.3 0 11.3l-6.1 0c0 0 0-13.32 0-13.3zm42.4-15.1c0 0 0 22.56 0 22.6c0 2.2.1 4.5.2 5.8c-.04 0-5.4 0-5.4 0l-.3-2.8c0 0-.1-.04-.1 0c-1.2 2.1-3.6 3.2-6.1 3.2c-4.7 0-8.4-3.9-8.4-10c0-6.6 4.1-10.4 8.8-10.4c2.4 0 4.3.8 5.1 2.2c.04-.04.1 0 .1 0l0-10.6l6.1 0zm-6.1 17.1c0-.3 0-.7-.1-1.1c-.3-1.6-1.6-3-3.5-3c-2.8 0-4.2 2.5-4.2 5.6c0 3.3 1.6 5.4 4.1 5.4c1.8 0 3.2-1.2 3.6-2.9c.1-.5.1-.9.1-1.4c0 0 0-2.6 0-2.6z" stroke="none" fill="#000"/></g></svg>