<?xml version="1.0" standalone="no"?><!DOCTYPE svg PUBLIC "-//W3C//DTD SVG 1.1//EN" "http://www.w3.org/Graphics/SVG/1.1/DTD/svg11.dtd"><svg xmlns="http://www.w3.org/2000/svg" version="1.1" width="746px" height="55px" viewBox="0 0 746 55"><desc>Hiking</desc><defs/><g id="Polygon6517"><path d="m104.4 18l0 5.2l5 0l0-5.2l3 0l0 13.5l-3 0l0-5.6l-5 0l0 5.6l-3.1 0l0-13.5l3.1 0zm10.8 13.5l0-9.8l3 0l0 9.8l-3 0zm3.1-12.5c0 .8-.6 1.5-1.6 1.5c-1 0-1.6-.7-1.6-1.5c0-.9.6-1.5 1.6-1.5c1 0 1.6.6 1.6 1.5zm5.5 6.8c0 0 .02.04 0 0c.2-.4.5-.8.7-1.1c.02-.04 2-3 2-3l3.7 0l-3.5 4l4 5.8l-3.8 0l-2.4-4l-.7.9l0 3.1l-3.1 0l0-14.2l3.1 0l0 8.5zm8.1 5.7l0-9.8l3 0l0 9.8l-3 0zm3.1-12.5c0 .8-.6 1.5-1.6 1.5c-1 0-1.6-.7-1.6-1.5c0-.9.6-1.5 1.6-1.5c1 0 1.6.6 1.6 1.5zm2.5 5.8c0-1.2-.1-2.2-.1-3.1c-.02.02 2.6 0 2.6 0l.2 1.4c0 0 .02-.02 0 0c.4-.7 1.4-1.6 3-1.6c2 0 3.5 1.3 3.5 4.2c.04.02 0 5.8 0 5.8l-3 0c0 0 0-5.42 0-5.4c0-1.3-.4-2.1-1.5-2.1c-.9 0-1.4.5-1.6 1.1c-.1.2-.1.5-.1.8c0-.04 0 5.6 0 5.6l-3 0c0 0-.04-6.66 0-6.7zm21 5.3c0 1.9-.3 3.4-1.5 4.4c-1 .9-2.5 1.2-3.9 1.2c-1.3 0-2.7-.3-3.5-.8c0 0 .6-2.3.6-2.3c.6.4 1.6.8 2.8.8c1.4 0 2.5-.8 2.5-2.6c.04-.02 0-.6 0-.6c0 0 0-.04 0 0c-.6.8-1.5 1.2-2.6 1.2c-2.5 0-4.2-1.9-4.2-4.7c0-3.2 2-5.2 4.5-5.2c1.3 0 2.1.6 2.6 1.4c.04 0 .1 0 .1 0l.1-1.2c0 0 2.62.02 2.6 0c0 .7-.1 1.5-.1 2.9c0 0 0 5.5 0 5.5zm-3-4.4c0-.2 0-.4-.1-.6c-.2-.8-.8-1.3-1.6-1.3c-1.1 0-2 1-2 2.8c0 1.4.7 2.6 2 2.6c.8 0 1.4-.5 1.6-1.2c.1-.3.1-.6.1-.9c0 0 0-1.4 0-1.4z" stroke="none" fill="#fff"/></g></svg>