<?xml version="1.0" standalone="no"?><!DOCTYPE svg PUBLIC "-//W3C//DTD SVG 1.1//EN" "http://www.w3.org/Graphics/SVG/1.1/DTD/svg11.dtd"><svg xmlns="http://www.w3.org/2000/svg" version="1.1" width="145px" height="40.7px" viewBox="0 0 145 40.7"><desc>1 of 2</desc><defs/><g id="Polygon8276"><path d="m89.9 4.9l0 0l-3 1.6l-.5-1.8l3.8-2l2 0l0 17.3l-2.3 0l0-15.1zm26.7 8.5c0 4.8-3.4 6.9-6.5 6.9c-3.4 0-6.1-2.6-6.1-6.7c0-4.2 2.8-6.8 6.4-6.8c3.7 0 6.2 2.7 6.2 6.6zm-10.2.2c0 2.8 1.6 4.9 3.8 4.9c2.3 0 4-2.1 4-5c0-2.2-1.1-4.9-3.9-4.9c-2.7 0-3.9 2.5-3.9 5zm13.4 6.4l0-11.1l-1.8 0l0-1.8l1.8 0c0 0-.04-.62 0-.6c0-1.8.4-3.5 1.5-4.5c.8-.9 2-1.2 3.1-1.2c.9 0 1.5.2 2 .3c0 0-.3 1.9-.3 1.9c-.4-.2-.8-.3-1.5-.3c-2 0-2.5 1.7-2.5 3.7c-.02 0 0 .7 0 .7l3.1 0l0 1.8l-3.1 0l0 11.1l-2.3 0zm12.4 0l0-1.5c0 0 1.85-1.74 1.8-1.7c4.5-4.2 6.5-6.5 6.5-9.1c0-1.8-.8-3.4-3.4-3.4c-1.6 0-2.9.8-3.7 1.5c0 0-.7-1.7-.7-1.7c1.1-1 2.9-1.7 4.8-1.7c3.8 0 5.3 2.5 5.3 5c0 3.2-2.3 5.8-5.9 9.3c-.03.01-1.4 1.3-1.4 1.3l0 0l7.8 0l0 2l-11.1 0z" stroke="none" fill="#fff"/></g></svg>