<?xml version="1.0" standalone="no"?><!DOCTYPE svg PUBLIC "-//W3C//DTD SVG 1.1//EN" "http://www.w3.org/Graphics/SVG/1.1/DTD/svg11.dtd"><svg xmlns="http://www.w3.org/2000/svg" xmlns:xlink="http://www.w3.org/1999/xlink" version="1.1" width="556px" height="156.5px" viewBox="0 0 556 156.5"><desc>Dolphin seem to enjoy cavorting in the bow waves of large boats These dolphin were observed from the deck of the</desc><defs/><g class="svg-textframe-underlines"><rect class="svg-underline" x="183.7" y="129.8" width="6.2" height="1.5" style="fill:#4f5cd5;"/><rect class="svg-underline" x="0" y="134" width="183.7" height="3" style="fill:#00aa32;"/></g><g id="Polygon8459"><path d="m185.2 125.9c0-1 .8-1.8 1.8-1.8c1.1 0 1.8.7 1.8 1.8c0 1.1-.7 1.9-1.8 1.9c-1 0-1.8-.8-1.8-1.9z" stroke="none" fill="#4f5cd5"/></g><g id="Polygon8457"><path d="m3.2 78c0 0 1.99 7.36 2 7.4c.4 1.6.8 3.1 1 4.6c0 0 .1 0 .1 0c.4-1.5.8-3 1.3-4.6c.02-.01 2.4-7.4 2.4-7.4l2.2 0c0 0 2.26 7.24 2.3 7.2c.5 1.8.9 3.3 1.3 4.8c0 0 0 0 0 0c.3-1.5.7-3 1.1-4.7c.05-.03 2.1-7.3 2.1-7.3l2.6 0l-4.7 14.5l-2.4 0c0 0-2.17-6.93-2.2-6.9c-.5-1.7-.9-3.1-1.3-4.8c0 0 0 0 0 0c-.4 1.7-.8 3.2-1.3 4.8c-.04 0-2.4 6.9-2.4 6.9l-2.4 0l-4.4-14.5l2.7 0zm22.4 7.7c0 3.6 2.3 5.1 5 5.1c1.9 0 3-.4 4-.8c0 0 .5 1.9.5 1.9c-1 .4-2.6.9-4.9.9c-4.5 0-7.1-2.9-7.1-7.3c0-4.4 2.5-7.8 6.8-7.8c4.7 0 6 4.1 6 6.8c0 .5-.1.9-.1 1.2c0 0-10.2 0-10.2 0zm7.7-1.9c.1-1.6-.7-4.2-3.6-4.2c-2.7 0-3.9 2.4-4.1 4.2c0 0 7.7 0 7.7 0zm6-1.3c0-1.7 0-3.2-.1-4.5c-.02-.02 2.3 0 2.3 0l.1 2.9c0 0 .1-.04.1 0c.7-2 2.3-3.2 4-3.2c.3 0 .5 0 .8 0c0 0 0 2.5 0 2.5c-.3 0-.6 0-.9 0c-1.9 0-3.2 1.4-3.6 3.3c0 .4-.1.8-.1 1.3c.04-.04 0 7.7 0 7.7l-2.6 0c0 0 0-9.99 0-10zm11.1 3.2c.1 3.6 2.3 5.1 5 5.1c1.9 0 3.1-.4 4-.8c0 0 .5 1.9.5 1.9c-.9.4-2.5.9-4.9.9c-4.4 0-7.1-2.9-7.1-7.3c0-4.4 2.6-7.8 6.8-7.8c4.8 0 6 4.1 6 6.8c0 .5 0 .9-.1 1.2c0 0-10.2 0-10.2 0zm7.8-1.9c0-1.6-.7-4.2-3.7-4.2c-2.7 0-3.8 2.4-4 4.2c0 0 7.7 0 7.7 0zm25.6 1.3c0 5.4-3.8 7.7-7.2 7.7c-3.9 0-7-2.8-7-7.4c0-4.9 3.2-7.7 7.2-7.7c4.2 0 7 3 7 7.4zm-11.5.2c0 3.2 1.8 5.6 4.4 5.6c2.5 0 4.4-2.4 4.4-5.7c0-2.4-1.2-5.5-4.4-5.5c-3.1 0-4.4 2.8-4.4 5.6zm15-14.1l2.6 0l0 9.1c0 0 .04.02 0 0c1-1.6 2.6-2.6 5-2.6c3.6 0 6.1 3 6.1 7.4c0 5.2-3.3 7.7-6.5 7.7c-2.1 0-3.8-.8-4.9-2.7c.01.03-.1 0-.1 0l-.1 2.4c0 0-2.25 0-2.3 0c.1-1 .2-2.5.2-3.7c-.03-.05 0-17.6 0-17.6zm2.6 15.5c0 .3 0 .6.1.9c.5 1.9 2 3.1 4 3.1c2.7 0 4.4-2.2 4.4-5.5c0-3-1.5-5.4-4.4-5.4c-1.8 0-3.4 1.2-4 3.2c-.1.3-.1.7-.1 1.1c0 0 0 2.6 0 2.6zm14.2 3.1c.8.5 2.2 1.1 3.5 1.1c1.9 0 2.8-1 2.8-2.2c0-1.3-.7-1.9-2.6-2.6c-2.7-1-3.9-2.4-3.9-4.2c0-2.3 1.9-4.2 5-4.2c1.5 0 2.8.4 3.5.9c0 0-.6 1.9-.6 1.9c-.6-.4-1.6-.9-3-.9c-1.5 0-2.4.9-2.4 2c0 1.2.9 1.8 2.8 2.5c2.5.9 3.8 2.2 3.8 4.4c0 2.5-2 4.3-5.4 4.3c-1.6 0-3.1-.4-4.1-1c0 0 .6-2 .6-2zm13.9-4.1c0 3.6 2.3 5.1 5 5.1c1.9 0 3-.4 4-.8c0 0 .5 1.9.5 1.9c-1 .4-2.6.9-4.9.9c-4.5 0-7.1-2.9-7.1-7.3c0-4.4 2.5-7.8 6.8-7.8c4.7 0 6 4.1 6 6.8c0 .5-.1.9-.1 1.2c0 0-10.2 0-10.2 0zm7.7-1.9c.1-1.6-.7-4.2-3.6-4.2c-2.7 0-3.9 2.4-4.1 4.2c0 0 7.7 0 7.7 0zm6-1.3c0-1.7 0-3.2-.1-4.5c-.02-.02 2.3 0 2.3 0l.1 2.9c0 0 .1-.04.1 0c.7-2 2.3-3.2 4-3.2c.3 0 .5 0 .8 0c0 0 0 2.5 0 2.5c-.3 0-.6 0-.9 0c-1.9 0-3.2 1.4-3.6 3.3c0 .4-.1.8-.1 1.3c.04-.04 0 7.7 0 7.7l-2.6 0c0 0 0-9.99 0-10zm11.7-4.5c0 0 2.88 8.11 2.9 8.1c.5 1.4.8 2.6 1.1 3.8c0 0 .1 0 .1 0c.4-1.2.8-2.4 1.3-3.8c-.03.01 2.8-8.1 2.8-8.1l2.7 0l-5.7 14.5l-2.5 0l-5.5-14.5l2.8 0zm14.8 7.7c0 3.6 2.3 5.1 4.9 5.1c1.9 0 3.1-.4 4.1-.8c0 0 .4 1.9.4 1.9c-.9.4-2.5.9-4.8.9c-4.5 0-7.2-2.9-7.2-7.3c0-4.4 2.6-7.8 6.8-7.8c4.8 0 6 4.1 6 6.8c0 .5 0 .9 0 1.2c0 0-10.2 0-10.2 0zm7.7-1.9c0-1.6-.7-4.2-3.7-4.2c-2.7 0-3.8 2.4-4 4.2c0 0 7.7 0 7.7 0zm18.5-12.6c0 0-.02 17.55 0 17.6c0 1.2 0 2.7.1 3.7c0 0-2.3 0-2.3 0l-.2-2.5c0 0-.05-.02-.1 0c-.7 1.6-2.5 2.8-4.8 2.8c-3.6 0-6.3-2.9-6.3-7.3c0-4.9 3-7.8 6.5-7.8c2.3 0 3.7 1 4.4 2.2c.01-.03.1 0 .1 0l0-8.7l2.6 0zm-2.6 12.7c0-.3-.1-.8-.2-1.1c-.3-1.7-1.8-3-3.8-3c-2.7 0-4.3 2.4-4.3 5.5c0 3 1.5 5.4 4.3 5.4c1.7 0 3.4-1.2 3.8-3.1c.1-.4.2-.8.2-1.2c0 0 0-2.5 0-2.5zm13.9 8.6l0-12.5l-2 0l0-2l2 0c0 0 .02-.71 0-.7c0-2 .5-3.9 1.7-5.1c1-.9 2.3-1.3 3.5-1.3c1 0 1.8.2 2.3.4c0 0-.4 2-.4 2c-.4-.2-.9-.3-1.7-.3c-2.2 0-2.8 2-2.8 4.2c.03 0 0 .8 0 .8l3.5 0l0 2l-3.5 0l0 12.5l-2.6 0zm8.7-10c0-1.7-.1-3.2-.2-4.5c.04-.02 2.3 0 2.3 0l.2 2.9c0 0 .06-.04.1 0c.6-2 2.2-3.2 4-3.2c.3 0 .5 0 .7 0c0 0 0 2.5 0 2.5c-.2 0-.5 0-.9 0c-1.8 0-3.2 1.4-3.5 3.3c-.1.4-.1.8-.1 1.3c0-.04 0 7.7 0 7.7l-2.6 0c0 0-.04-9.99 0-10zm22.8 2.6c0 5.4-3.8 7.7-7.3 7.7c-3.9 0-6.9-2.8-6.9-7.4c0-4.9 3.2-7.7 7.2-7.7c4.1 0 7 3 7 7.4zm-11.5.2c0 3.2 1.8 5.6 4.3 5.6c2.6 0 4.5-2.4 4.5-5.7c0-2.4-1.3-5.5-4.4-5.5c-3.1 0-4.4 2.8-4.4 5.6zm14.9-3.4c0-1.5 0-2.7-.1-3.9c.02-.02 2.3 0 2.3 0l.1 2.4c0 0 .14-.05.1 0c.8-1.4 2.2-2.7 4.6-2.7c2 0 3.5 1.2 4.1 2.9c0 0 .1 0 .1 0c.4-.8 1-1.4 1.6-1.9c.9-.7 1.8-1 3.2-1c1.9 0 4.8 1.2 4.8 6.3c0-.02 0 8.5 0 8.5l-2.6 0c0 0 .02-8.19 0-8.2c0-2.8-1-4.5-3.1-4.5c-1.6 0-2.7 1.1-3.2 2.4c-.1.4-.2.9-.2 1.3c.01.03 0 9 0 9l-2.6 0c0 0 .03-8.7 0-8.7c0-2.3-1-4-3-4c-1.6 0-2.9 1.4-3.3 2.7c-.1.3-.2.8-.2 1.3c.02-.03 0 8.7 0 8.7l-2.6 0c0 0 .04-10.59 0-10.6zm34.9-7.4l0 3.5l3.8 0l0 2l-3.8 0c0 0 0 7.82 0 7.8c0 1.8.5 2.8 2 2.8c.7 0 1.1 0 1.5-.1c0 0 .1 2 .1 2c-.5.1-1.3.3-2.3.3c-1.2 0-2.2-.4-2.9-1.1c-.7-.8-1-2.1-1-3.8c.02.01 0-7.9 0-7.9l-2.2 0l0-2l2.2 0l0-2.7l2.6-.8zm6.9-3.3l2.6 0l0 9.1c0 0 .1-.01.1 0c.4-.8 1.1-1.4 1.9-1.9c.8-.4 1.7-.7 2.7-.7c1.9 0 5.1 1.2 5.1 6.2c-.04-.04 0 8.6 0 8.6l-2.7 0c0 0 .02-8.34 0-8.3c0-2.4-.9-4.3-3.3-4.3c-1.8 0-3.1 1.2-3.6 2.6c-.1.4-.2.8-.2 1.2c.04.04 0 8.8 0 8.8l-2.6 0l0-21.3zm18.3 14.5c0 3.6 2.3 5.1 4.9 5.1c1.9 0 3.1-.4 4.1-.8c0 0 .4 1.9.4 1.9c-.9.4-2.5.9-4.8.9c-4.5 0-7.2-2.9-7.2-7.3c0-4.4 2.6-7.8 6.9-7.8c4.7 0 6 4.1 6 6.8c0 .5-.1.9-.1 1.2c0 0-10.2 0-10.2 0zm7.7-1.9c0-1.6-.7-4.2-3.7-4.2c-2.7 0-3.8 2.4-4 4.2c0 0 7.7 0 7.7 0zm25-12.6c0 0 0 17.55 0 17.6c0 1.2.1 2.7.1 3.7c.02 0-2.3 0-2.3 0l-.1-2.5c0 0-.13-.02-.1 0c-.8 1.6-2.6 2.8-4.9 2.8c-3.5 0-6.3-2.9-6.3-7.3c0-4.9 3-7.8 6.5-7.8c2.3 0 3.8 1 4.4 2.2c.03-.03.1 0 .1 0l0-8.7l2.6 0zm-2.6 12.7c0-.3 0-.8-.1-1.1c-.4-1.7-1.9-3-3.8-3c-2.8 0-4.4 2.4-4.4 5.5c0 3 1.5 5.4 4.3 5.4c1.8 0 3.4-1.2 3.9-3.1c.1-.4.1-.8.1-1.2c0 0 0-2.5 0-2.5zm8.6 1.8c.1 3.6 2.3 5.1 5 5.1c1.9 0 3.1-.4 4-.8c0 0 .5 1.9.5 1.9c-.9.4-2.5.9-4.9.9c-4.4 0-7.1-2.9-7.1-7.3c0-4.4 2.6-7.8 6.8-7.8c4.8 0 6 4.1 6 6.8c0 .5 0 .9-.1 1.2c0 0-10.2 0-10.2 0zm7.8-1.9c0-1.6-.7-4.2-3.7-4.2c-2.7 0-3.8 2.4-4 4.2c0 0 7.7 0 7.7 0zm16.3 8.2c-.7.3-2.2.8-4.2.8c-4.4 0-7.2-2.9-7.2-7.4c0-4.5 3-7.7 7.8-7.7c1.5 0 2.9.4 3.6.8c0 0-.6 2-.6 2c-.6-.4-1.6-.7-3-.7c-3.3 0-5.1 2.5-5.1 5.5c0 3.3 2.1 5.4 5 5.4c1.5 0 2.5-.4 3.2-.7c0 0 .5 2 .5 2zm5.8-7.4c0 0 .1.04.1 0c.4-.5.8-1.1 1.3-1.6c-.04-.01 4.2-5 4.2-5l3.2 0l-5.6 5.9l6.4 8.6l-3.2 0l-5-7l-1.4 1.5l0 5.5l-2.6 0l0-21.3l2.6 0l0 13.4zm31.3.5c0 5.4-3.8 7.7-7.2 7.7c-3.9 0-7-2.8-7-7.4c0-4.9 3.2-7.7 7.2-7.7c4.2 0 7 3 7 7.4zm-11.5.2c0 3.2 1.8 5.6 4.4 5.6c2.5 0 4.4-2.4 4.4-5.7c0-2.4-1.2-5.5-4.4-5.5c-3 0-4.4 2.8-4.4 5.6zm15.2 7.2l0-12.5l-2 0l0-2l2 0c0 0 .04-.71 0-.7c0-2 .5-3.9 1.7-5.1c1-.9 2.3-1.3 3.6-1.3c.9 0 1.7.2 2.2.4c0 0-.3 2-.3 2c-.4-.2-.9-.3-1.7-.3c-2.3 0-2.8 2-2.8 4.2c-.05 0 0 .8 0 .8l3.5 0l0 2l-3.5 0l0 12.5l-2.7 0zm18.4-18l0 3.5l3.8 0l0 2l-3.8 0c0 0-.03 7.82 0 7.8c0 1.8.5 2.8 2 2.8c.7 0 1.1 0 1.5-.1c0 0 .1 2 .1 2c-.5.1-1.3.3-2.3.3c-1.3 0-2.3-.4-2.9-1.1c-.7-.8-1-2.1-1-3.8c-.01.01 0-7.9 0-7.9l-2.3 0l0-2l2.3 0l0-2.7l2.6-.8zm6.9-3.3l2.6 0l0 9.1c0 0 .07-.01.1 0c.4-.8 1.1-1.4 1.9-1.9c.7-.4 1.7-.7 2.7-.7c1.9 0 5 1.2 5 6.2c.03-.04 0 8.6 0 8.6l-2.6 0c0 0-.01-8.34 0-8.3c0-2.4-.9-4.3-3.4-4.3c-1.7 0-3 1.2-3.5 2.6c-.2.4-.2.8-.2 1.2c.01.04 0 8.8 0 8.8l-2.6 0l0-21.3zm18.2 14.5c.1 3.6 2.4 5.1 5 5.1c1.9 0 3.1-.4 4-.8c0 0 .5 1.9.5 1.9c-.9.4-2.5.9-4.8.9c-4.5 0-7.2-2.9-7.2-7.3c0-4.4 2.6-7.8 6.8-7.8c4.8 0 6 4.1 6 6.8c0 .5 0 .9-.1 1.2c0 0-10.2 0-10.2 0zm7.8-1.9c0-1.6-.7-4.2-3.7-4.2c-2.7 0-3.8 2.4-4 4.2c0 0 7.7 0 7.7 0z" stroke="none" fill="#fff"/></g><g id="Polygon8456"><path d="m2.2 36.2l2.6 0l0 9.1c0 0 .06.02.1 0c.9-1.6 2.6-2.6 4.9-2.6c3.6 0 6.2 3 6.2 7.4c0 5.2-3.3 7.7-6.6 7.7c-2.1 0-3.8-.8-4.9-2.7c.03.03 0 0 0 0l-.2 2.4c0 0-2.23 0-2.2 0c0-1 .1-2.5.1-3.7c-.01-.05 0-17.6 0-17.6zm2.6 15.5c0 .3 0 .6.1.9c.5 1.9 2.1 3.1 4 3.1c2.8 0 4.4-2.2 4.4-5.5c0-3-1.5-5.4-4.4-5.4c-1.7 0-3.4 1.2-4 3.2c0 .3-.1.7-.1 1.1c0 0 0 2.6 0 2.6zm27.7-1.6c0 5.4-3.7 7.7-7.2 7.7c-3.9 0-6.9-2.8-6.9-7.4c0-4.9 3.2-7.7 7.2-7.7c4.1 0 6.9 3 6.9 7.4zm-11.4.2c0 3.2 1.8 5.6 4.3 5.6c2.6 0 4.4-2.4 4.4-5.7c0-2.4-1.2-5.5-4.3-5.5c-3.1 0-4.4 2.8-4.4 5.6zm15.8-7.3c0 0 1.92 7.36 1.9 7.4c.4 1.6.8 3.1 1.1 4.6c0 0 .1 0 .1 0c.3-1.5.8-3 1.2-4.6c.05-.01 2.4-7.4 2.4-7.4l2.2 0c0 0 2.29 7.24 2.3 7.2c.5 1.8.9 3.3 1.3 4.8c0 0 .1 0 .1 0c.2-1.5.6-3 1.1-4.7c-.02-.03 2-7.3 2-7.3l2.7 0l-4.7 14.5l-2.4 0c0 0-2.24-6.93-2.2-6.9c-.6-1.7-1-3.1-1.3-4.8c0 0-.1 0-.1 0c-.4 1.7-.8 3.2-1.3 4.8c-.01 0-2.4 6.9-2.4 6.9l-2.4 0l-4.3-14.5l2.7 0zm28.7 0c0 0 1.96 7.36 2 7.4c.3 1.6.7 3.1 1 4.6c0 0 .1 0 .1 0c.3-1.5.8-3 1.3-4.6c-.01-.01 2.4-7.4 2.4-7.4l2.2 0c0 0 2.23 7.24 2.2 7.2c.6 1.8 1 3.3 1.3 4.8c0 0 .1 0 .1 0c.2-1.5.6-3 1.1-4.7c.02-.03 2.1-7.3 2.1-7.3l2.6 0l-4.7 14.5l-2.4 0c0 0-2.2-6.93-2.2-6.9c-.5-1.7-.9-3.1-1.3-4.8c0 0-.1 0-.1 0c-.3 1.7-.8 3.2-1.3 4.8c.03 0-2.3 6.9-2.3 6.9l-2.4 0l-4.4-14.5l2.7 0zm31.3 11c0 1.3 0 2.5.2 3.5c-.02 0-2.4 0-2.4 0l-.2-1.8c0 0-.09-.03-.1 0c-.8 1.1-2.4 2.1-4.4 2.1c-3 0-4.5-2-4.5-4.1c0-3.5 3.1-5.5 8.8-5.4c0 0 0-.3 0-.3c0-1.2-.4-3.4-3.3-3.4c-1.4 0-2.8.4-3.9 1.1c0 0-.6-1.8-.6-1.8c1.2-.7 3-1.2 4.8-1.2c4.5 0 5.6 3 5.6 5.9c0 0 0 5.4 0 5.4zm-2.6-3.9c-2.9-.1-6.1.4-6.1 3.3c0 1.7 1.1 2.5 2.4 2.5c1.9 0 3.2-1.2 3.6-2.4c.1-.3.1-.7.1-.9c0 0 0-2.5 0-2.5zm7.8-7.1c0 0 2.81 8.11 2.8 8.1c.5 1.4.9 2.6 1.2 3.8c0 0 .1 0 .1 0c.3-1.2.7-2.4 1.2-3.8c0 .01 2.8-8.1 2.8-8.1l2.8 0l-5.7 14.5l-2.5 0l-5.6-14.5l2.9 0zm14.7 7.7c0 3.6 2.3 5.1 5 5.1c1.9 0 3-.4 4-.8c0 0 .5 1.9.5 1.9c-1 .4-2.6.9-4.9.9c-4.5 0-7.1-2.9-7.1-7.3c0-4.4 2.5-7.8 6.8-7.8c4.7 0 6 4.1 6 6.8c0 .5-.1.9-.1 1.2c0 0-10.2 0-10.2 0zm7.7-1.9c.1-1.6-.7-4.2-3.6-4.2c-2.7 0-3.9 2.4-4.1 4.2c0 0 7.7 0 7.7 0zm5.6 6c.8.5 2.2 1.1 3.5 1.1c1.9 0 2.8-1 2.8-2.2c0-1.3-.7-1.9-2.6-2.6c-2.7-1-3.9-2.4-3.9-4.2c0-2.3 1.9-4.2 5-4.2c1.5 0 2.8.4 3.5.9c0 0-.6 1.9-.6 1.9c-.6-.4-1.6-.9-3-.9c-1.5 0-2.4.9-2.4 2c0 1.2.9 1.8 2.8 2.5c2.5.9 3.8 2.2 3.8 4.4c0 2.5-2 4.3-5.4 4.3c-1.6 0-3.1-.4-4.1-1c0 0 .6-2 .6-2zm32.1-4.7c0 5.4-3.8 7.7-7.3 7.7c-3.9 0-6.9-2.8-6.9-7.4c0-4.9 3.2-7.7 7.2-7.7c4.2 0 7 3 7 7.4zm-11.5.2c0 3.2 1.8 5.6 4.4 5.6c2.5 0 4.4-2.4 4.4-5.7c0-2.4-1.3-5.5-4.4-5.5c-3.1 0-4.4 2.8-4.4 5.6zm15.2 7.2l0-12.5l-2 0l0-2l2 0c0 0 .03-.71 0-.7c0-2 .5-3.9 1.7-5.1c1-.9 2.3-1.3 3.5-1.3c1 0 1.8.2 2.3.4c0 0-.4 2-.4 2c-.4-.2-.9-.3-1.6-.3c-2.3 0-2.9 2-2.9 4.2c.04 0 0 .8 0 .8l3.5 0l0 2l-3.5 0l0 12.5l-2.6 0zm15.2-21.3l2.6 0l0 21.3l-2.6 0l0-21.3zm17.4 17.8c0 1.3.1 2.5.2 3.5c.02 0-2.4 0-2.4 0l-.2-1.8c0 0-.05-.03-.1 0c-.8 1.1-2.3 2.1-4.4 2.1c-2.9 0-4.4-2-4.4-4.1c0-3.5 3.1-5.5 8.7-5.4c0 0 0-.3 0-.3c0-1.2-.3-3.4-3.3-3.4c-1.4 0-2.8.4-3.8 1.1c0 0-.6-1.8-.6-1.8c1.2-.7 3-1.2 4.8-1.2c4.4 0 5.5 3 5.5 5.9c0 0 0 5.4 0 5.4zm-2.5-3.9c-2.9-.1-6.2.4-6.2 3.3c0 1.7 1.1 2.5 2.5 2.5c1.9 0 3.1-1.2 3.5-2.4c.1-.3.2-.7.2-.9c0 0 0-2.5 0-2.5zm6.9-2.6c0-1.7 0-3.2-.1-4.5c0-.02 2.3 0 2.3 0l.1 2.9c0 0 .12-.04.1 0c.7-2 2.3-3.2 4.1-3.2c.2 0 .4 0 .7 0c0 0 0 2.5 0 2.5c-.3 0-.6 0-.9 0c-1.9 0-3.2 1.4-3.6 3.3c0 .4 0 .8 0 1.3c-.04-.04 0 7.7 0 7.7l-2.7 0c0 0 .02-9.99 0-10zm22.2 7.9c0 3.3-.7 5.3-2.1 6.6c-1.5 1.3-3.5 1.8-5.3 1.8c-1.8 0-3.7-.5-4.9-1.2c0 0 .7-2.1.7-2.1c1 .7 2.5 1.2 4.3 1.2c2.7 0 4.6-1.4 4.6-5.1c.05 0 0-1.6 0-1.6c0 0-.01.01 0 0c-.8 1.4-2.4 2.4-4.6 2.4c-3.6 0-6.2-3-6.2-7c0-5 3.2-7.7 6.6-7.7c2.5 0 3.8 1.3 4.5 2.5c-.01-.03 0 0 0 0l.1-2.2c0 0 2.38-.02 2.4 0c-.1 1-.1 2.2-.1 3.9c0 0 0 8.5 0 8.5zm-2.7-6.7c0-.4 0-.8-.1-1.2c-.5-1.5-1.8-2.8-3.7-2.8c-2.5 0-4.3 2.2-4.3 5.5c0 2.9 1.4 5.2 4.2 5.2c1.7 0 3.2-1 3.7-2.7c.2-.4.2-.9.2-1.4c0 0 0-2.6 0-2.6zm8.6 2c.1 3.6 2.3 5.1 5 5.1c1.9 0 3.1-.4 4-.8c0 0 .5 1.9.5 1.9c-.9.4-2.5.9-4.9.9c-4.4 0-7.1-2.9-7.1-7.3c0-4.4 2.6-7.8 6.8-7.8c4.8 0 6 4.1 6 6.8c0 .5 0 .9-.1 1.2c0 0-10.2 0-10.2 0zm7.8-1.9c0-1.6-.7-4.2-3.7-4.2c-2.7 0-3.8 2.4-4 4.2c0 0 7.7 0 7.7 0zm12.4-12.6l2.7 0l0 9.1c0 0 .02.02 0 0c.9-1.6 2.6-2.6 5-2.6c3.6 0 6.1 3 6.1 7.4c0 5.2-3.3 7.7-6.5 7.7c-2.1 0-3.8-.8-4.9-2.7c-.01.03-.1 0-.1 0l-.1 2.4c0 0-2.27 0-2.3 0c.1-1 .1-2.5.1-3.7c.05-.05 0-17.6 0-17.6zm2.7 15.5c0 .3 0 .6.1.9c.5 1.9 2 3.1 3.9 3.1c2.8 0 4.4-2.2 4.4-5.5c0-3-1.5-5.4-4.3-5.4c-1.8 0-3.5 1.2-4 3.2c-.1.3-.1.7-.1 1.1c0 0 0 2.6 0 2.6zm27.7-1.6c0 5.4-3.7 7.7-7.2 7.7c-3.9 0-7-2.8-7-7.4c0-4.9 3.2-7.7 7.2-7.7c4.2 0 7 3 7 7.4zm-11.5.2c0 3.2 1.8 5.6 4.4 5.6c2.5 0 4.4-2.4 4.4-5.7c0-2.4-1.2-5.5-4.3-5.5c-3.1 0-4.5 2.8-4.5 5.6zm25.2 3.7c0 1.3 0 2.5.2 3.5c0 0-2.4 0-2.4 0l-.2-1.8c0 0-.07-.03-.1 0c-.8 1.1-2.3 2.1-4.4 2.1c-3 0-4.5-2-4.5-4.1c0-3.5 3.2-5.5 8.8-5.4c0 0 0-.3 0-.3c0-1.2-.4-3.4-3.3-3.4c-1.4 0-2.8.4-3.8 1.1c0 0-.6-1.8-.6-1.8c1.2-.7 2.9-1.2 4.8-1.2c4.4 0 5.5 3 5.5 5.9c0 0 0 5.4 0 5.4zm-2.6-3.9c-2.8-.1-6.1.4-6.1 3.3c0 1.7 1.1 2.5 2.4 2.5c2 0 3.2-1.2 3.6-2.4c.1-.3.1-.7.1-.9c0 0 0-2.5 0-2.5zm10.1-10.6l0 3.5l3.7 0l0 2l-3.7 0c0 0-.04 7.82 0 7.8c0 1.8.5 2.8 1.9 2.8c.8 0 1.2 0 1.6-.1c0 0 .1 2 .1 2c-.5.1-1.3.3-2.4.3c-1.2 0-2.2-.4-2.8-1.1c-.7-.8-1-2.1-1-3.8c-.02.01 0-7.9 0-7.9l-2.3 0l0-2l2.3 0l0-2.7l2.6-.8zm6.5 15.3c.8.5 2.2 1.1 3.5 1.1c1.9 0 2.8-1 2.8-2.2c0-1.3-.8-1.9-2.7-2.6c-2.6-1-3.8-2.4-3.8-4.2c0-2.3 1.9-4.2 5-4.2c1.4 0 2.7.4 3.5.9c0 0-.6 1.9-.6 1.9c-.6-.4-1.6-.9-3-.9c-1.6 0-2.4.9-2.4 2c0 1.2.8 1.8 2.7 2.5c2.5.9 3.8 2.2 3.8 4.4c0 2.5-2 4.3-5.4 4.3c-1.5 0-3-.4-4-1c0 0 .6-2 .6-2zm11.4 1.1c0-1 .8-1.8 1.8-1.8c1.1 0 1.8.7 1.8 1.8c0 1.1-.7 1.9-1.8 1.9c-1.1 0-1.8-.8-1.8-1.9zm16.2-16.4l-6.1 0l0-2.2l14.9 0l0 2.2l-6.1 0l0 18l-2.7 0l0-18zm10.9-3.3l2.7 0l0 9.1c0 0 .05-.01 0 0c.5-.8 1.1-1.4 1.9-1.9c.8-.4 1.7-.7 2.7-.7c2 0 5.1 1.2 5.1 6.2c.01-.04 0 8.6 0 8.6l-2.6 0c0 0-.03-8.34 0-8.3c0-2.4-.9-4.3-3.4-4.3c-1.7 0-3 1.2-3.5 2.6c-.2.4-.2.8-.2 1.2c-.01.04 0 8.8 0 8.8l-2.7 0l0-21.3zm18.3 14.5c.1 3.6 2.3 5.1 5 5.1c1.9 0 3.1-.4 4-.8c0 0 .5 1.9.5 1.9c-.9.4-2.6.9-4.9.9c-4.4 0-7.1-2.9-7.1-7.3c0-4.4 2.6-7.8 6.8-7.8c4.8 0 6 4.1 6 6.8c0 .5 0 .9-.1 1.2c0 0-10.2 0-10.2 0zm7.8-1.9c0-1.6-.7-4.2-3.7-4.2c-2.7 0-3.8 2.4-4.1 4.2c0 0 7.8 0 7.8 0zm5.6 6c.8.5 2.2 1.1 3.5 1.1c1.9 0 2.8-1 2.8-2.2c0-1.3-.8-1.9-2.7-2.6c-2.6-1-3.9-2.4-3.9-4.2c0-2.3 1.9-4.2 5-4.2c1.5 0 2.8.4 3.6.9c0 0-.7 1.9-.7 1.9c-.5-.4-1.6-.9-2.9-.9c-1.6 0-2.4.9-2.4 2c0 1.2.8 1.8 2.7 2.5c2.5.9 3.8 2.2 3.8 4.4c0 2.5-2 4.3-5.4 4.3c-1.6 0-3-.4-4.1-1c0 0 .7-2 .7-2zm13.8-4.1c.1 3.6 2.3 5.1 5 5.1c1.9 0 3.1-.4 4-.8c0 0 .5 1.9.5 1.9c-.9.4-2.5.9-4.9.9c-4.4 0-7.1-2.9-7.1-7.3c0-4.4 2.6-7.8 6.8-7.8c4.8 0 6 4.1 6 6.8c0 .5 0 .9-.1 1.2c0 0-10.2 0-10.2 0zm7.8-1.9c0-1.6-.7-4.2-3.7-4.2c-2.7 0-3.8 2.4-4 4.2c0 0 7.7 0 7.7 0zm25-12.6c0 0-.05 17.55 0 17.6c0 1.2 0 2.7.1 3.7c-.03 0-2.4 0-2.4 0l-.1-2.5c0 0-.08-.02-.1 0c-.8 1.6-2.5 2.8-4.9 2.8c-3.5 0-6.2-2.9-6.2-7.3c0-4.9 3-7.8 6.5-7.8c2.3 0 3.7 1 4.4 2.2c-.02-.03 0 0 0 0l0-8.7l2.7 0zm-2.7 12.7c0-.3 0-.8-.1-1.1c-.4-1.7-1.8-3-3.8-3c-2.7 0-4.3 2.4-4.3 5.5c0 3 1.4 5.4 4.3 5.4c1.7 0 3.3-1.2 3.8-3.1c.1-.4.1-.8.1-1.2c0 0 0-2.5 0-2.5zm20.4 1.2c0 5.4-3.8 7.7-7.3 7.7c-3.9 0-6.9-2.8-6.9-7.4c0-4.9 3.2-7.7 7.2-7.7c4.1 0 7 3 7 7.4zm-11.5.2c0 3.2 1.8 5.6 4.3 5.6c2.6 0 4.5-2.4 4.5-5.7c0-2.4-1.3-5.5-4.4-5.5c-3.1 0-4.4 2.8-4.4 5.6zm14.9-14.1l2.7 0l0 21.3l-2.7 0l0-21.3zm7.3 11.5c0-1.8-.1-3.3-.2-4.7c.04-.02 2.4 0 2.4 0l.1 2.5c0 0 .09-.03.1 0c1-1.8 2.8-2.8 5.2-2.8c3.5 0 6.1 3 6.1 7.3c0 5.3-3.2 7.8-6.6 7.8c-1.9 0-3.6-.8-4.5-2.2c.03-.05 0 0 0 0l0 7.8l-2.6 0c0 0-.04-15.68 0-15.7zm2.6 3.9c0 .4 0 .7.1 1.1c.5 1.8 2.1 3.1 4 3.1c2.7 0 4.4-2.3 4.4-5.6c0-2.9-1.6-5.4-4.4-5.4c-1.8 0-3.5 1.2-3.9 3.2c-.1.4-.2.7-.2 1.1c0 0 0 2.5 0 2.5zm14.6-15.4l2.6 0l0 9.1c0 0 .08-.01.1 0c.4-.8 1.1-1.4 1.9-1.9c.8-.4 1.7-.7 2.7-.7c1.9 0 5 1.2 5 6.2c.04-.04 0 8.6 0 8.6l-2.6 0c0 0 0-8.34 0-8.3c0-2.4-.9-4.3-3.4-4.3c-1.7 0-3 1.2-3.5 2.6c-.1.4-.2.8-.2 1.2c.02.04 0 8.8 0 8.8l-2.6 0l0-21.3zm16.8 21.3l0-14.5l2.6 0l0 14.5l-2.6 0zm2.9-18.6c0 .9-.6 1.6-1.7 1.6c-.9 0-1.5-.7-1.5-1.6c0-.9.6-1.6 1.6-1.6c1 0 1.6.7 1.6 1.6zm4.3 8c0-1.5-.1-2.7-.2-3.9c.03-.02 2.4 0 2.4 0l.1 2.4c0 0 .08-.02.1 0c.7-1.4 2.4-2.7 4.8-2.7c2 0 5.1 1.2 5.1 6.2c.01-.04 0 8.6 0 8.6l-2.6 0c0 0-.03-8.37 0-8.4c0-2.3-.9-4.3-3.4-4.3c-1.7 0-3 1.3-3.5 2.7c-.1.4-.2.8-.2 1.3c-.01-.03 0 8.7 0 8.7l-2.6 0c0 0-.05-10.59 0-10.6z" stroke="none" fill="#fff"/></g><g id="Polygon8455"><path d="m2.3 2.6c1.6-.3 3.5-.5 5.5-.5c3.8 0 6.5.9 8.2 2.5c1.9 1.7 2.9 4 2.9 7.3c0 3.3-1 6-2.9 7.9c-1.9 1.9-5.1 2.9-9 2.9c-1.9 0-3.4-.1-4.7-.3c0 0 0-19.8 0-19.8zm2.6 17.9c.6.1 1.6.1 2.6.1c5.6 0 8.6-3.1 8.6-8.6c.1-4.8-2.6-7.8-8.2-7.8c-1.3 0-2.3.1-3 .3c0 0 0 16 0 16zm30.7-5.4c0 5.4-3.8 7.7-7.3 7.7c-3.9 0-6.9-2.8-6.9-7.4c0-4.9 3.2-7.7 7.2-7.7c4.2 0 7 3 7 7.4zm-11.5.2c0 3.2 1.8 5.6 4.4 5.6c2.5 0 4.4-2.4 4.4-5.7c0-2.4-1.3-5.5-4.4-5.5c-3.1 0-4.4 2.8-4.4 5.6zm15-14.1l2.6 0l0 21.3l-2.6 0l0-21.3zm7.2 11.5c0-1.8-.1-3.3-.1-4.7c-.03-.02 2.3 0 2.3 0l.2 2.5c0 0 .02-.03 0 0c1.1-1.8 2.8-2.8 5.2-2.8c3.5 0 6.2 3 6.2 7.3c0 5.3-3.3 7.8-6.7 7.8c-1.9 0-3.6-.8-4.4-2.2c-.04-.05-.1 0-.1 0l0 7.8l-2.6 0c0 0-.01-15.68 0-15.7zm2.6 3.9c0 .4 0 .7.1 1.1c.5 1.8 2.1 3.1 4 3.1c2.8 0 4.4-2.3 4.4-5.6c0-2.9-1.5-5.4-4.3-5.4c-1.8 0-3.5 1.2-4 3.2c-.1.4-.2.7-.2 1.1c0 0 0 2.5 0 2.5zm14.6-15.4l2.6 0l0 9.1c0 0 .11-.01.1 0c.4-.8 1.1-1.4 1.9-1.9c.8-.4 1.7-.7 2.7-.7c1.9 0 5.1 1.2 5.1 6.2c-.03-.04 0 8.6 0 8.6l-2.7 0c0 0 .03-8.34 0-8.3c0-2.4-.8-4.3-3.3-4.3c-1.7 0-3.1 1.2-3.6 2.6c-.1.4-.2.8-.2 1.2c.05.04 0 8.8 0 8.8l-2.6 0l0-21.3zm16.8 21.3l0-14.5l2.6 0l0 14.5l-2.6 0zm2.9-18.6c0 .9-.6 1.6-1.6 1.6c-1 0-1.6-.7-1.6-1.6c0-.9.6-1.6 1.6-1.6c1 0 1.6.7 1.6 1.6zm4.3 8c0-1.5-.1-2.7-.1-3.9c-.04-.02 2.3 0 2.3 0l.1 2.4c0 0 .11-.02.1 0c.7-1.4 2.4-2.7 4.8-2.7c2 0 5.1 1.2 5.1 6.2c.04-.04 0 8.6 0 8.6l-2.6 0c0 0 0-8.37 0-8.4c0-2.3-.9-4.3-3.4-4.3c-1.7 0-3 1.3-3.5 2.7c-.1.4-.2.8-.2 1.3c.02-.03 0 8.7 0 8.7l-2.6 0c0 0-.02-10.59 0-10.6zm22.9 7.9c.8.5 2.2 1.1 3.5 1.1c1.9 0 2.8-1 2.8-2.2c0-1.3-.7-1.9-2.6-2.6c-2.7-1-3.9-2.4-3.9-4.2c0-2.3 1.9-4.2 5-4.2c1.5 0 2.8.4 3.5.9c0 0-.6 1.9-.6 1.9c-.6-.4-1.6-.9-3-.9c-1.5 0-2.4.9-2.4 2c0 1.2.9 1.8 2.8 2.5c2.5.9 3.8 2.2 3.8 4.4c0 2.5-2 4.3-5.4 4.3c-1.6 0-3.1-.4-4.1-1c0 0 .6-2 .6-2zm13.9-4.1c0 3.6 2.3 5.1 5 5.1c1.9 0 3-.4 4-.8c0 0 .5 1.9.5 1.9c-1 .4-2.6.9-4.9.9c-4.5 0-7.1-2.9-7.1-7.3c0-4.4 2.5-7.8 6.8-7.8c4.7 0 6 4.1 6 6.8c0 .5-.1.9-.1 1.2c0 0-10.2 0-10.2 0zm7.7-1.9c.1-1.6-.7-4.2-3.6-4.2c-2.7 0-3.9 2.4-4.1 4.2c0 0 7.7 0 7.7 0zm7.5 1.9c0 3.6 2.3 5.1 4.9 5.1c1.9 0 3.1-.4 4.1-.8c0 0 .4 1.9.4 1.9c-.9.4-2.5.9-4.8.9c-4.5 0-7.2-2.9-7.2-7.3c0-4.4 2.6-7.8 6.9-7.8c4.7 0 6 4.1 6 6.8c0 .5-.1.9-.1 1.2c0 0-10.2 0-10.2 0zm7.7-1.9c0-1.6-.7-4.2-3.7-4.2c-2.7 0-3.8 2.4-4 4.2c0 0 7.7 0 7.7 0zm6-1.9c0-1.5-.1-2.7-.1-3.9c-.04-.02 2.3 0 2.3 0l.1 2.4c0 0 .08-.05.1 0c.8-1.4 2.1-2.7 4.6-2.7c1.9 0 3.4 1.2 4 2.9c0 0 .1 0 .1 0c.5-.8 1.1-1.4 1.7-1.9c.8-.7 1.8-1 3.1-1c2 0 4.8 1.2 4.8 6.3c.04-.02 0 8.5 0 8.5l-2.5 0c0 0-.04-8.19 0-8.2c0-2.8-1.1-4.5-3.2-4.5c-1.5 0-2.7 1.1-3.1 2.4c-.2.4-.3.9-.3 1.3c.05.03 0 9 0 9l-2.5 0c0 0-.03-8.7 0-8.7c0-2.3-1.1-4-3.1-4c-1.6 0-2.8 1.4-3.2 2.7c-.2.3-.2.8-.2 1.3c-.04-.03 0 8.7 0 8.7l-2.6 0c0 0-.02-10.59 0-10.6zm34.8-7.4l0 3.5l3.8 0l0 2l-3.8 0c0 0 .04 7.82 0 7.8c0 1.8.5 2.8 2 2.8c.7 0 1.2 0 1.5-.1c0 0 .2 2 .2 2c-.5.1-1.4.3-2.4.3c-1.2 0-2.2-.4-2.8-1.1c-.7-.8-1-2.1-1-3.8c-.04.01 0-7.9 0-7.9l-2.3 0l0-2l2.3 0l0-2.7l2.5-.8zm19.9 10.6c0 5.4-3.8 7.7-7.2 7.7c-3.9 0-7-2.8-7-7.4c0-4.9 3.2-7.7 7.2-7.7c4.2 0 7 3 7 7.4zm-11.5.2c0 3.2 1.8 5.6 4.4 5.6c2.5 0 4.4-2.4 4.4-5.7c0-2.4-1.2-5.5-4.4-5.5c-3 0-4.4 2.8-4.4 5.6zm23 .4c0 3.6 2.3 5.1 4.9 5.1c1.9 0 3.1-.4 4.1-.8c0 0 .4 1.9.4 1.9c-.9.4-2.5.9-4.8.9c-4.5 0-7.2-2.9-7.2-7.3c0-4.4 2.6-7.8 6.8-7.8c4.8 0 6 4.1 6 6.8c0 .5 0 .9 0 1.2c0 0-10.2 0-10.2 0zm7.7-1.9c0-1.6-.7-4.2-3.7-4.2c-2.7 0-3.8 2.4-4 4.2c0 0 7.7 0 7.7 0zm6-1.9c0-1.5-.1-2.7-.2-3.9c.05-.02 2.4 0 2.4 0l.1 2.4c0 0 .1-.02.1 0c.7-1.4 2.4-2.7 4.8-2.7c2 0 5.1 1.2 5.1 6.2c.03-.04 0 8.6 0 8.6l-2.6 0c0 0-.01-8.37 0-8.4c0-2.3-.9-4.3-3.4-4.3c-1.7 0-3 1.3-3.5 2.7c-.1.4-.2.8-.2 1.3c.01-.03 0 8.7 0 8.7l-2.6 0c0 0-.03-10.59 0-10.6zm13.2 14.9c1.2-.1 2.2-.5 2.9-1.2c.7-.8 1-1.9 1-5.4c0-.01 0-12.2 0-12.2l2.6 0c0 0 .04 13.21 0 13.2c0 2.8-.4 4.7-1.7 6c-1.2 1.1-3.1 1.6-4.5 1.6c0 0-.3-2-.3-2zm6.8-22.9c0 .9-.6 1.6-1.6 1.6c-1 0-1.6-.7-1.6-1.6c0-.9.6-1.6 1.6-1.6c1 0 1.6.7 1.6 1.6zm17.3 11.2c0 5.4-3.7 7.7-7.2 7.7c-3.9 0-6.9-2.8-6.9-7.4c0-4.9 3.2-7.7 7.2-7.7c4.1 0 6.9 3 6.9 7.4zm-11.4.2c0 3.2 1.8 5.6 4.3 5.6c2.6 0 4.4-2.4 4.4-5.7c0-2.4-1.2-5.5-4.3-5.5c-3.1 0-4.4 2.8-4.4 5.6zm15.7-7.3c0 0 3.13 8.56 3.1 8.6c.4.9.7 2.1 1 2.9c0 0 0 0 0 0c.3-.8.6-1.9 1-3c-.02 0 2.9-8.5 2.9-8.5l2.7 0c0 0-3.91 10.33-3.9 10.3c-1.9 5-3.2 7.5-5 9.1c-1.3 1.1-2.6 1.6-3.2 1.7c0 0-.7-2.2-.7-2.2c.7-.2 1.5-.6 2.3-1.3c.7-.6 1.6-1.6 2.2-2.9c.2-.3.2-.5.2-.6c0-.2 0-.4-.2-.7c.04-.04-5.3-13.4-5.3-13.4l2.9 0zm30.2 14c-.7.3-2.3.8-4.2.8c-4.4 0-7.2-2.9-7.2-7.4c0-4.5 3-7.7 7.8-7.7c1.5 0 2.9.4 3.6.8c0 0-.6 2-.6 2c-.6-.4-1.6-.7-3-.7c-3.4 0-5.2 2.5-5.2 5.5c0 3.3 2.2 5.4 5.1 5.4c1.5 0 2.5-.4 3.2-.7c0 0 .5 2 .5 2zm13.4-3c0 1.3.1 2.5.2 3.5c.01 0-2.4 0-2.4 0l-.2-1.8c0 0-.06-.03-.1 0c-.8 1.1-2.3 2.1-4.4 2.1c-2.9 0-4.4-2-4.4-4.1c0-3.5 3.1-5.5 8.7-5.4c0 0 0-.3 0-.3c0-1.2-.3-3.4-3.3-3.4c-1.4 0-2.8.4-3.8 1.1c0 0-.6-1.8-.6-1.8c1.2-.7 2.9-1.2 4.8-1.2c4.4 0 5.5 3 5.5 5.9c0 0 0 5.4 0 5.4zm-2.6-3.9c-2.8-.1-6.1.4-6.1 3.3c0 1.7 1.1 2.5 2.5 2.5c1.9 0 3.1-1.2 3.5-2.4c.1-.3.1-.7.1-.9c0 0 0-2.5 0-2.5zm7.8-7.1c0 0 2.84 8.11 2.8 8.1c.5 1.4.9 2.6 1.2 3.8c0 0 .1 0 .1 0c.3-1.2.7-2.4 1.2-3.8c.03.01 2.8-8.1 2.8-8.1l2.8 0l-5.7 14.5l-2.5 0l-5.5-14.5l2.8 0zm26.4 7.1c0 5.4-3.8 7.7-7.2 7.7c-3.9 0-7-2.8-7-7.4c0-4.9 3.2-7.7 7.2-7.7c4.2 0 7 3 7 7.4zm-11.5.2c0 3.2 1.8 5.6 4.4 5.6c2.5 0 4.4-2.4 4.4-5.7c0-2.4-1.2-5.5-4.4-5.5c-3.1 0-4.4 2.8-4.4 5.6zm15-2.8c0-1.7-.1-3.2-.2-4.5c.05-.02 2.4 0 2.4 0l.1 2.9c0 0 .07-.04.1 0c.6-2 2.2-3.2 4-3.2c.3 0 .5 0 .7 0c0 0 0 2.5 0 2.5c-.2 0-.5 0-.9 0c-1.8 0-3.1 1.4-3.5 3.3c-.1.4-.1.8-.1 1.3c.01-.04 0 7.7 0 7.7l-2.6 0c0 0-.03-9.99 0-10zm13.8-8l0 3.5l3.8 0l0 2l-3.8 0c0 0 .02 7.82 0 7.8c0 1.8.5 2.8 2 2.8c.7 0 1.1 0 1.5-.1c0 0 .2 2 .2 2c-.6.1-1.4.3-2.4.3c-1.2 0-2.2-.4-2.8-1.1c-.8-.8-1.1-2.1-1.1-3.8c.04.01 0-7.9 0-7.9l-2.2 0l0-2l2.2 0l0-2.7l2.6-.8zm6.9 18l0-14.5l2.7 0l0 14.5l-2.7 0zm3-18.6c0 .9-.7 1.6-1.7 1.6c-1 0-1.6-.7-1.6-1.6c0-.9.7-1.6 1.6-1.6c1 0 1.7.7 1.7 1.6zm4.2 8c0-1.5 0-2.7-.1-3.9c-.03-.02 2.3 0 2.3 0l.2 2.4c0 0 .02-.02 0 0c.7-1.4 2.4-2.7 4.8-2.7c2 0 5.2 1.2 5.2 6.2c-.05-.04 0 8.6 0 8.6l-2.7 0c0 0 .01-8.37 0-8.4c0-2.3-.9-4.3-3.3-4.3c-1.8 0-3.1 1.3-3.6 2.7c-.1.4-.2.8-.2 1.3c.03-.03 0 8.7 0 8.7l-2.6 0c0 0-.01-10.59 0-10.6zm29.2 8.5c0 3.3-.7 5.3-2.1 6.6c-1.4 1.3-3.4 1.8-5.3 1.8c-1.7 0-3.6-.5-4.8-1.2c0 0 .7-2.1.7-2.1c.9.7 2.4 1.2 4.2 1.2c2.7 0 4.7-1.4 4.7-5.1c0 0 0-1.6 0-1.6c0 0-.06.01-.1 0c-.7 1.4-2.3 2.4-4.6 2.4c-3.6 0-6.2-3-6.2-7c0-5 3.3-7.7 6.6-7.7c2.5 0 3.9 1.3 4.5 2.5c.04-.03.1 0 .1 0l.1-2.2c0 0 2.33-.02 2.3 0c-.1 1-.1 2.2-.1 3.9c0 0 0 8.5 0 8.5zm-2.6-6.7c0-.4-.1-.8-.2-1.2c-.5-1.5-1.7-2.8-3.7-2.8c-2.5 0-4.3 2.2-4.3 5.5c0 2.9 1.5 5.2 4.3 5.2c1.7 0 3.1-1 3.7-2.7c.1-.4.2-.9.2-1.4c0 0 0-2.6 0-2.6zm13.6 8.8l0-14.5l2.7 0l0 14.5l-2.7 0zm3-18.6c0 .9-.7 1.6-1.7 1.6c-1 0-1.6-.7-1.6-1.6c0-.9.7-1.6 1.6-1.6c1 0 1.7.7 1.7 1.6zm4.2 8c0-1.5 0-2.7-.1-3.9c-.03-.02 2.3 0 2.3 0l.2 2.4c0 0 .02-.02 0 0c.7-1.4 2.4-2.7 4.8-2.7c2 0 5.2 1.2 5.2 6.2c-.05-.04 0 8.6 0 8.6l-2.7 0c0 0 .01-8.37 0-8.4c0-2.3-.9-4.3-3.3-4.3c-1.8 0-3.1 1.3-3.6 2.7c-.1.4-.2.8-.2 1.3c.03-.03 0 8.7 0 8.7l-2.6 0c0 0-.01-10.59 0-10.6zm26.5-7.4l0 3.5l3.8 0l0 2l-3.8 0c0 0-.02 7.82 0 7.8c0 1.8.5 2.8 2 2.8c.7 0 1.1 0 1.5-.1c0 0 .1 2 .1 2c-.5.1-1.3.3-2.3.3c-1.3 0-2.2-.4-2.9-1.1c-.7-.8-1-2.1-1-3.8c0 .01 0-7.9 0-7.9l-2.2 0l0-2l2.2 0l0-2.7l2.6-.8zm6.9-3.3l2.6 0l0 9.1c0 0 .08-.01.1 0c.4-.8 1.1-1.4 1.9-1.9c.8-.4 1.7-.7 2.7-.7c1.9 0 5 1.2 5 6.2c.04-.04 0 8.6 0 8.6l-2.6 0c0 0 0-8.34 0-8.3c0-2.4-.9-4.3-3.4-4.3c-1.7 0-3 1.2-3.5 2.6c-.1.4-.2.8-.2 1.2c.02.04 0 8.8 0 8.8l-2.6 0l0-21.3zm18.3 14.5c0 3.6 2.3 5.1 4.9 5.1c1.9 0 3.1-.4 4.1-.8c0 0 .4 1.9.4 1.9c-.9.4-2.5.9-4.8.9c-4.5 0-7.2-2.9-7.2-7.3c0-4.4 2.6-7.8 6.8-7.8c4.8 0 6 4.1 6 6.8c0 .5 0 .9 0 1.2c0 0-10.2 0-10.2 0zm7.7-1.9c0-1.6-.7-4.2-3.7-4.2c-2.7 0-3.8 2.4-4 4.2c0 0 7.7 0 7.7 0z" stroke="none" fill="#fff"/></g><g id="Polygon8458"><path d="m2.6 107.3l0 20.2l-2.6 0l0-20.2l2.6 0zm4.3 17.5c.8.5 2.2 1.1 3.5 1.1c1.9 0 2.8-1 2.8-2.2c0-1.3-.8-1.9-2.7-2.6c-2.6-1-3.8-2.4-3.8-4.2c0-2.3 1.9-4.2 5-4.2c1.4 0 2.7.4 3.5.9c0 0-.6 1.9-.6 1.9c-.6-.4-1.6-.9-3-.9c-1.6 0-2.4.9-2.4 2c0 1.2.8 1.8 2.7 2.5c2.5.9 3.8 2.2 3.8 4.4c0 2.5-2 4.3-5.4 4.3c-1.5 0-3-.4-4-1c0 0 .6-2 .6-2zm12.4-18.6l2.6 0l0 21.3l-2.6 0l0-21.3zm17.4 17.8c0 1.3.1 2.5.2 3.5c.03 0-2.3 0-2.3 0l-.3-1.8c0 0-.04-.03 0 0c-.9 1.1-2.4 2.1-4.5 2.1c-2.9 0-4.4-2-4.4-4.1c0-3.5 3.1-5.5 8.7-5.4c0 0 0-.3 0-.3c0-1.2-.3-3.4-3.3-3.4c-1.4 0-2.8.4-3.8 1.1c0 0-.6-1.8-.6-1.8c1.2-.7 3-1.2 4.8-1.2c4.4 0 5.5 3 5.5 5.9c0 0 0 5.4 0 5.4zm-2.5-3.9c-2.9-.1-6.2.4-6.2 3.3c0 1.7 1.2 2.5 2.5 2.5c1.9 0 3.1-1.2 3.5-2.4c.1-.3.2-.7.2-.9c0 0 0-2.5 0-2.5zm6.9-3.2c0-1.5 0-2.7-.1-3.9c.01-.02 2.3 0 2.3 0l.2 2.4c0 0 .06-.02.1 0c.7-1.4 2.4-2.7 4.8-2.7c2 0 5.1 1.2 5.1 6.2c-.01-.04 0 8.6 0 8.6l-2.7 0c0 0 .05-8.37 0-8.4c0-2.3-.8-4.3-3.3-4.3c-1.7 0-3.1 1.3-3.6 2.7c-.1.4-.1.8-.1 1.3c-.03-.03 0 8.7 0 8.7l-2.7 0c0 0 .03-10.59 0-10.6zm29.3-10.7c0 0 .04 17.55 0 17.6c0 1.2.1 2.7.2 3.7c-.04 0-2.4 0-2.4 0l-.1-2.5c0 0-.09-.02-.1 0c-.8 1.6-2.5 2.8-4.9 2.8c-3.5 0-6.2-2.9-6.2-7.3c-.1-4.9 3-7.8 6.5-7.8c2.2 0 3.7 1 4.4 2.2c-.03-.03 0 0 0 0l0-8.7l2.6 0zm-2.6 12.7c0-.3 0-.8-.1-1.1c-.4-1.7-1.8-3-3.8-3c-2.7 0-4.4 2.4-4.4 5.5c0 3 1.5 5.4 4.3 5.4c1.8 0 3.4-1.2 3.9-3.1c.1-.4.1-.8.1-1.2c0 0 0-2.5 0-2.5zm24.2-.9l-7.8 0l0 7.3l8.8 0l0 2.2l-11.4 0l0-20.2l10.9 0l0 2.2l-8.3 0l0 6.4l7.8 0l0 2.1zm5.6-5c0 0 2.12 3.1 2.1 3.1c.6.8 1 1.5 1.5 2.3c0 0 .1 0 .1 0c.5-.8.9-1.5 1.4-2.3c.05-.03 2.1-3.1 2.1-3.1l2.8 0l-4.9 7l5.1 7.5l-3 0c0 0-2.17-3.27-2.2-3.3c-.5-.8-1-1.6-1.5-2.5c0 0-.1 0-.1 0c-.5.9-1 1.7-1.5 2.5c-.02.03-2.1 3.3-2.1 3.3l-2.9 0l5.1-7.4l-4.9-7.1l2.9 0zm12.9 4.7c0-1.8-.1-3.3-.2-4.7c.04-.02 2.4 0 2.4 0l.1 2.5c0 0 .09-.03.1 0c1-1.8 2.8-2.8 5.1-2.8c3.6 0 6.2 3 6.2 7.3c0 5.3-3.2 7.8-6.6 7.8c-1.9 0-3.6-.8-4.5-2.2c.03-.05 0 0 0 0l0 7.8l-2.6 0c0 0-.04-15.68 0-15.7zm2.6 3.9c0 .4 0 .7.1 1.1c.5 1.8 2.1 3.1 3.9 3.1c2.8 0 4.5-2.3 4.5-5.6c0-2.9-1.6-5.4-4.4-5.4c-1.8 0-3.5 1.2-4 3.2c0 .4-.1.7-.1 1.1c0 0 0 2.5 0 2.5zm14.6-15.4l2.6 0l0 21.3l-2.6 0l0-21.3zm20.3 13.9c0 5.4-3.7 7.7-7.2 7.7c-3.9 0-6.9-2.8-6.9-7.4c0-4.9 3.2-7.7 7.2-7.7c4.1 0 6.9 3 6.9 7.4zm-11.4.2c0 3.2 1.8 5.6 4.3 5.6c2.6 0 4.4-2.4 4.4-5.7c0-2.4-1.2-5.5-4.3-5.5c-3.1 0-4.4 2.8-4.4 5.6zm14.9-2.8c0-1.7 0-3.2-.1-4.5c.01-.02 2.3 0 2.3 0l.1 2.9c0 0 .13-.04.1 0c.7-2 2.3-3.2 4.1-3.2c.2 0 .5 0 .7 0c0 0 0 2.5 0 2.5c-.3 0-.5 0-.9 0c-1.9 0-3.2 1.4-3.5 3.3c-.1.4-.1.8-.1 1.3c-.03-.04 0 7.7 0 7.7l-2.7 0c0 0 .03-9.99 0-10zm11.2 3.2c0 3.6 2.3 5.1 4.9 5.1c1.9 0 3.1-.4 4.1-.8c0 0 .4 1.9.4 1.9c-.9.4-2.5.9-4.8.9c-4.5 0-7.2-2.9-7.2-7.3c0-4.4 2.6-7.8 6.8-7.8c4.8 0 6 4.1 6 6.8c0 .5 0 .9 0 1.2c0 0-10.2 0-10.2 0zm7.7-1.9c0-1.6-.7-4.2-3.7-4.2c-2.7 0-3.8 2.4-4 4.2c0 0 7.7 0 7.7 0zm6-1.3c0-1.7-.1-3.2-.2-4.5c.05-.02 2.4 0 2.4 0l.1 2.9c0 0 .07-.04.1 0c.6-2 2.2-3.2 4-3.2c.3 0 .5 0 .7 0c0 0 0 2.5 0 2.5c-.2 0-.5 0-.9 0c-1.8 0-3.1 1.4-3.5 3.3c-.1.4-.1.8-.1 1.3c.01-.04 0 7.7 0 7.7l-2.6 0c0 0-.03-9.99 0-10z" stroke="none" fill="#fff"/><a xlink:href="http://www.nps.gov/chis/learn/news/ipco-new-boat.htm?target=_lightbox" class="lightbox" xlink:show="undefined" xlink:title="Island Explorer"><rect style="fill:transparent;" x="-1" y="105" width="185" height="28"/></a></g></svg>