<?xml version="1.0" standalone="no"?><!DOCTYPE svg PUBLIC "-//W3C//DTD SVG 1.1//EN" "http://www.w3.org/Graphics/SVG/1.1/DTD/svg11.dtd"><svg xmlns="http://www.w3.org/2000/svg" version="1.1" width="117.2px" height="25.1px" viewBox="0 0 117.2 25.1"><desc>2 of 2</desc><defs/><g id="Polygon12573"><path d="m80.8 12.2l0-.9c0 0 1.12-1.11 1.1-1.1c2.7-2.6 3.9-3.9 3.9-5.5c0-1.1-.5-2.1-2-2.1c-1 0-1.8.5-2.3.9c0 0-.4-1-.4-1c.7-.6 1.7-1.1 2.9-1.1c2.3 0 3.3 1.6 3.3 3.1c0 1.9-1.4 3.5-3.7 5.7c.04-.04-.8.7-.8.7l0 .1l4.7 0l0 1.2l-6.7 0zm19.3-4c0 2.9-2 4.1-3.9 4.1c-2.1 0-3.8-1.5-3.8-4c0-2.6 1.8-4.2 3.9-4.2c2.3 0 3.8 1.7 3.8 4.1zm-6.2 0c0 1.8 1 3.1 2.4 3.1c1.3 0 2.3-1.3 2.3-3.1c0-1.3-.6-3-2.3-3c-1.7 0-2.4 1.6-2.4 3zm8.1 4l0-6.8l-1 0l0-1.1l1 0c0 0 .04-.36 0-.4c0-1.1.3-2.1 1-2.7c.5-.5 1.2-.7 1.9-.7c.5 0 .9.1 1.2.2c0 0-.2 1.1-.2 1.1c-.2-.1-.5-.2-.9-.2c-1.2 0-1.5 1.1-1.5 2.3c-.05-.01 0 .4 0 .4l1.8 0l0 1.1l-1.8 0l0 6.8l-1.5 0zm7.6 0l0-.9c0 0 1.13-1.11 1.1-1.1c2.7-2.6 3.9-3.9 3.9-5.5c0-1.1-.5-2.1-2-2.1c-1 0-1.8.5-2.3.9c0 0-.4-1-.4-1c.7-.6 1.8-1.1 2.9-1.1c2.3 0 3.3 1.6 3.3 3.1c0 1.9-1.4 3.5-3.7 5.7c.04-.04-.8.7-.8.7l0 .1l4.7 0l0 1.2l-6.7 0z" stroke="none" fill="#fff"/></g></svg>