<?xml version="1.0" standalone="no"?><!DOCTYPE svg PUBLIC "-//W3C//DTD SVG 1.1//EN" "http://www.w3.org/Graphics/SVG/1.1/DTD/svg11.dtd"><svg xmlns="http://www.w3.org/2000/svg" version="1.1" width="746px" height="55px" viewBox="0 0 746 55"><desc>About the park</desc><defs/><g id="Polygon6763"><path d="m104.5 28l-1 3.5l-3.1 0l4.1-13.5l4 0l4.2 13.5l-3.3 0l-1.1-3.5l-3.8 0zm3.4-2.2c0 0-.86-2.9-.9-2.9c-.2-.8-.4-1.8-.6-2.6c0 0-.1 0-.1 0c-.2.8-.4 1.8-.6 2.6c0 0-.8 2.9-.8 2.9l3 0zm6.4-8.5l3.1 0l0 5.6c0 0 0-.02 0 0c.6-.9 1.6-1.4 3-1.4c2.3 0 4 1.9 4 4.9c0 3.6-2.2 5.3-4.5 5.3c-1.1 0-2.2-.4-2.9-1.6c-.02.04-.1 0-.1 0l-.1 1.4c0 0-2.56 0-2.6 0c.1-.6.1-1.8.1-2.9c.02-.02 0-11.3 0-11.3zm3.1 10c0 .2 0 .4 0 .6c.2.8.9 1.4 1.8 1.4c1.3 0 2.1-1 2.1-2.7c0-1.6-.7-2.8-2.1-2.8c-.8 0-1.6.7-1.8 1.5c0 .2 0 .4 0 .6c0 0 0 1.4 0 1.4zm18.7-.8c0 3.6-2.5 5.2-5.2 5.2c-2.8 0-5-1.9-5-5c0-3.2 2.1-5.2 5.2-5.2c3 0 5 2 5 5zm-7.1.1c0 1.7.7 2.9 2 2.9c1.2 0 2-1.1 2-2.9c0-1.5-.6-2.9-2-2.9c-1.4 0-2 1.5-2 2.9zm18.3 1.8c0 1.2 0 2.3.1 3.1c-.02 0-2.7 0-2.7 0l-.1-1.4c0 0-.06.02-.1 0c-.3.6-1.3 1.6-3 1.6c-2 0-3.5-1.2-3.5-4.2c.04-.04 0-5.8 0-5.8l3.1 0c0 0-.02 5.28 0 5.3c0 1.4.4 2.3 1.5 2.3c.9 0 1.4-.6 1.5-1.1c.1-.2.2-.4.2-.7c-.04.04 0-5.8 0-5.8l3 0c0 0 0 6.66 0 6.7zm5.9-9.3l0 2.6l2.2 0l0 2.3l-2.2 0c0 0 .04 3.5 0 3.5c0 1.2.3 1.7 1.2 1.7c.5 0 .7 0 .9-.1c0 0 .1 2.3.1 2.3c-.4.2-1.2.3-2 .3c-1 0-1.8-.3-2.3-.8c-.6-.6-.8-1.6-.8-2.9c-.04-.04 0-4 0-4l-1.3 0l0-2.3l1.3 0l0-1.8l2.9-.8zm11.6 0l0 2.6l2.2 0l0 2.3l-2.2 0c0 0 .02 3.5 0 3.5c0 1.2.3 1.7 1.2 1.7c.4 0 .6 0 .9-.1c0 0 0 2.3 0 2.3c-.3.2-1.1.3-1.9.3c-1 0-1.8-.3-2.3-.8c-.6-.6-.9-1.6-.9-2.9c.04-.04 0-4 0-4l-1.3 0l0-2.3l1.3 0l0-1.8l3-.8zm4.1-1.8l3 0l0 5.6c0 0 .04 0 0 0c.4-.4.8-.8 1.2-1c.5-.3 1.1-.4 1.6-.4c2 0 3.4 1.3 3.4 4.3c.04 0 0 5.7 0 5.7l-3 0c0 0 0-5.38 0-5.4c0-1.3-.4-2.1-1.6-2.1c-.8 0-1.3.5-1.5 1c-.1.2-.1.5-.1.7c0 0 0 5.8 0 5.8l-3 0l0-14.2zm14.1 10.3c.1 1.2 1.4 1.8 2.8 1.8c1 0 1.9-.1 2.7-.4c0 0 .4 2.1.4 2.1c-1 .4-2.2.6-3.6.6c-3.3 0-5.2-1.9-5.2-5c0-2.5 1.6-5.2 5-5.2c3.1 0 4.3 2.5 4.3 4.9c0 .5 0 1-.1 1.2c0 0-6.3 0-6.3 0zm3.6-2.1c0-.7-.3-2-1.7-2c-1.3 0-1.8 1.2-1.9 2c0 0 3.6 0 3.6 0zm8.9-.5c0-1.3-.1-2.4-.1-3.3c0 .02 2.6 0 2.6 0l.2 1.4c0 0 .02-.02 0 0c.7-1 1.9-1.6 3.3-1.6c2.1 0 4 1.9 4 5c0 3.5-2.2 5.2-4.4 5.2c-1.2 0-2.1-.5-2.5-1.1c-.04 0-.1 0-.1 0l0 4.9l-3 0c0 0-.02-10.5 0-10.5zm3 2.3c0 .2 0 .4.1.6c.2.9.9 1.5 1.8 1.5c1.3 0 2.1-1.1 2.1-2.8c0-1.5-.7-2.7-2.1-2.7c-.9 0-1.6.6-1.8 1.5c-.1.2-.1.4-.1.6c0 0 0 1.3 0 1.3zm17.2 1.8c0 1 0 1.9.1 2.4c.04 0-2.7 0-2.7 0l-.2-1c0 0-.04.02 0 0c-.7.8-1.7 1.2-2.8 1.2c-2 0-3.2-1.4-3.2-3c0-2.5 2.3-3.7 5.7-3.7c0 0 0-.1 0-.1c0-.6-.2-1.3-1.7-1.3c-1 0-2.1.3-2.7.7c0 0-.6-1.9-.6-1.9c.7-.4 2-.9 3.8-.9c3.3 0 4.3 1.9 4.3 4.2c0 0 0 3.4 0 3.4zm-3-2.2c-1.6 0-2.8.4-2.8 1.5c0 .8.5 1.2 1.2 1.2c.7 0 1.4-.5 1.6-1.1c0-.2 0-.4 0-.6c0 0 0-1 0-1zm5.5-2c0-1.4 0-2.3-.1-3.2c.02.02 2.6 0 2.6 0l.1 1.8c0 0 .12.02.1 0c.5-1.4 1.7-2 2.7-2c.2 0 .4 0 .6 0c0 0 0 2.9 0 2.9c-.2 0-.5-.1-.8-.1c-1.1 0-1.9.6-2.1 1.6c0 .2-.1.4-.1.6c.04.04 0 5 0 5l-3 0c0 0 0-6.56 0-6.6zm10.7.9c0 0 .02.04 0 0c.2-.4.5-.8.7-1.1c.02-.04 2-3 2-3l3.7 0l-3.5 4l4 5.8l-3.8 0l-2.4-4l-.7.9l0 3.1l-3.1 0l0-14.2l3.1 0l0 8.5z" stroke="none" fill="#fff"/></g></svg>