<?xml version="1.0" standalone="no"?><!DOCTYPE svg PUBLIC "-//W3C//DTD SVG 1.1//EN" "http://www.w3.org/Graphics/SVG/1.1/DTD/svg11.dtd"><svg xmlns="http://www.w3.org/2000/svg" version="1.1" width="70px" height="28.8px" viewBox="0 0 70 28.8"><desc>Tap to plan your visit</desc><defs/><g id="Polygon10469"><path d="m15 14.1c0 0 1.13 3.12 1.1 3.1c.2.4.3.8.4 1.1c0 0 0 0 0 0c.1-.3.2-.7.4-1.1c-.05 0 1-3.1 1-3.1l1.1 0c0 0-1.51 3.78-1.5 3.8c-.7 1.8-1.2 2.8-1.9 3.3c-.4.5-.9.6-1.2.7c0 0-.2-.8-.2-.8c.2-.1.6-.3.9-.5c.2-.2.5-.6.8-1.1c0-.1.1-.2.1-.2c0-.1-.1-.2-.1-.3c-.02 0-2-4.9-2-4.9l1.1 0zm9.6 2.6c0 2-1.4 2.8-2.7 2.8c-1.4 0-2.6-1-2.6-2.7c0-1.8 1.2-2.9 2.7-2.9c1.5 0 2.6 1.2 2.6 2.8zm-4.3 0c0 1.2.7 2.1 1.7 2.1c.9 0 1.6-.9 1.6-2.1c0-.9-.5-2-1.6-2c-1.2 0-1.7 1-1.7 2zm10 1.2c0 .6 0 1.1.1 1.5c-.04.02-.9 0-.9 0l-.1-.9c0 0 .02.05 0 0c-.2.5-.8 1-1.8 1c-.8 0-1.8-.4-1.8-2.3c-.01-.01 0-3.1 0-3.1l1 0c0 0-.04 2.91 0 2.9c0 1 .3 1.7 1.2 1.7c.6 0 1.1-.4 1.3-.9c0-.1 0-.3 0-.5c.04.04 0-3.2 0-3.2l1 0c0 0 .01 3.84 0 3.8zm1.6-2.2c0-.6 0-1.2 0-1.6c-.01-.05.8 0 .8 0l.1 1c0 0 .02.01 0 0c.3-.7.9-1.2 1.5-1.2c.1 0 .2.1.3.1c0 0 0 .9 0 .9c-.1 0-.2 0-.3 0c-.7 0-1.2.5-1.4 1.2c0 .1 0 .3 0 .5c.01-.04 0 2.8 0 2.8l-1 0c0 0 .04-3.67 0-3.7zm6.4-1.6c0 0 1.05 2.96 1 3c.2.5.4.9.5 1.3c0 0 0 0 0 0c.1-.4.3-.8.5-1.3c-.03-.04 1-3 1-3l1 0l-2.1 5.3l-.9 0l-2-5.3l1 0zm5 5.3l0-5.3l.9 0l0 5.3l-.9 0zm1-6.8c0 .3-.2.6-.6.6c-.3 0-.6-.3-.6-.6c0-.4.3-.7.6-.7c.4 0 .6.3.6.7zm1.4 5.8c.3.2.8.4 1.3.4c.7 0 1-.3 1-.8c0-.5-.2-.7-.9-1c-1-.3-1.5-.8-1.5-1.5c0-.9.7-1.6 1.9-1.6c.5 0 1 .2 1.3.4c0 0-.2.7-.2.7c-.3-.2-.6-.3-1.1-.3c-.6 0-.9.3-.9.7c0 .4.3.6 1 .9c.9.4 1.4.8 1.4 1.6c0 1-.8 1.6-2 1.6c-.6 0-1.1-.1-1.5-.3c0 0 .2-.8.2-.8zm4.5 1l0-5.3l1 0l0 5.3l-1 0zm1.1-6.8c0 .3-.2.6-.6.6c-.3 0-.6-.3-.6-.6c0-.4.3-.7.6-.7c.4 0 .6.3.6.7zm2.7.2l0 1.3l1.4 0l0 .7l-1.4 0c0 0 .02 2.89 0 2.9c0 .7.2 1 .8 1c.2 0 .4 0 .5 0c0 0 .1.7.1.7c-.2.1-.5.1-.9.1c-.5 0-.8-.1-1.1-.4c-.2-.3-.3-.7-.3-1.4c-.03.03 0-2.9 0-2.9l-.9 0l0-.7l.9 0l0-1l.9-.3z" stroke="none" fill="#fff"/></g><g id="Polygon10468"><path d="m11.4 1.7l-2.3 0l0-.9l5.5 0l0 .9l-2.3 0l0 6.6l-.9 0l0-6.6zm7.1 5.3c0 .5 0 1 .1 1.3c-.04.02-.9 0-.9 0l-.1-.7c0 0-.02.05 0 0c-.3.5-.9.8-1.7.8c-1.1 0-1.6-.7-1.6-1.5c0-1.3 1.1-2 3.2-2c0 0 0-.1 0-.1c0-.4-.1-1.2-1.2-1.2c-.5 0-1 .1-1.4.4c0 0-.2-.7-.2-.7c.4-.3 1.1-.5 1.7-.5c1.7 0 2.1 1.2 2.1 2.2c0 0 0 2 0 2zm-1-1.4c-1 0-2.2.1-2.2 1.2c0 .6.4.9.9.9c.7 0 1.1-.4 1.3-.9c0-.1 0-.2 0-.3c0 0 0-.9 0-.9zm2.6-.9c0-.7-.1-1.2-.1-1.7c.02-.05.9 0 .9 0l0 .9c0 0 .06-.03.1 0c.3-.7 1-1.1 1.9-1.1c1.3 0 2.3 1.1 2.3 2.8c0 1.9-1.2 2.8-2.5 2.8c-.7 0-1.3-.3-1.7-.8c.05 0 0 0 0 0l0 2.9l-.9 0c0 0-.04-5.79 0-5.8zm.9 1.4c0 .2 0 .3.1.4c.1.7.7 1.2 1.4 1.2c1.1 0 1.7-.9 1.7-2.1c0-1.1-.6-2-1.6-2c-.7 0-1.3.5-1.5 1.2c0 .1-.1.3-.1.4c0 0 0 .9 0 .9zm8.9-4.4l0 1.3l1.4 0l0 .7l-1.4 0c0 0 0 2.89 0 2.9c0 .7.2 1 .7 1c.3 0 .5 0 .6 0c0 0 0 .7 0 .7c-.1.1-.4.1-.8.1c-.5 0-.8-.1-1.1-.4c-.2-.3-.3-.7-.3-1.4c-.05.03 0-2.9 0-2.9l-.9 0l0-.7l.9 0l0-1l.9-.3zm7.3 3.9c0 2-1.4 2.8-2.7 2.8c-1.4 0-2.6-1-2.6-2.7c0-1.8 1.2-2.9 2.7-2.9c1.6 0 2.6 1.2 2.6 2.8zm-4.3 0c0 1.2.7 2.1 1.7 2.1c.9 0 1.6-.9 1.6-2.1c0-.9-.5-2-1.6-2c-1.2 0-1.7 1-1.7 2zm7.9-.9c0-.7 0-1.2-.1-1.7c.04-.05.9 0 .9 0l.1.9c0 0-.02-.03 0 0c.4-.7 1-1.1 1.9-1.1c1.3 0 2.3 1.1 2.3 2.8c0 1.9-1.2 2.8-2.5 2.8c-.7 0-1.3-.3-1.6-.8c-.03 0-.1 0-.1 0l0 2.9l-.9 0c0 0-.02-5.79 0-5.8zm.9 1.4c0 .2.1.3.1.4c.2.7.8 1.2 1.5 1.2c1 0 1.6-.9 1.6-2.1c0-1.1-.6-2-1.6-2c-.7 0-1.3.5-1.5 1.2c0 .1-.1.3-.1.4c0 0 0 .9 0 .9zm5.4-5.7l1 0l0 7.9l-1 0l0-7.9zm6.4 6.6c0 .5 0 1 .1 1.3c-.04.02-.9 0-.9 0l-.1-.7c0 0-.02.05 0 0c-.3.5-.9.8-1.7.8c-1.1 0-1.6-.7-1.6-1.5c0-1.3 1.1-2 3.2-2c0 0 0-.1 0-.1c0-.4-.1-1.2-1.2-1.2c-.5 0-1 .1-1.4.4c0 0-.2-.7-.2-.7c.4-.3 1.1-.5 1.7-.5c1.7 0 2.1 1.2 2.1 2.2c0 0 0 2 0 2zm-1-1.4c-1 0-2.2.1-2.2 1.2c0 .6.4.9.9.9c.7 0 1.1-.4 1.3-.9c0-.1 0-.2 0-.3c0 0 0-.9 0-.9zm2.6-1.2c0-.6 0-1-.1-1.4c.02-.05.9 0 .9 0l0 .8c0 0 .06.04.1 0c.2-.5.8-1 1.7-1c.8 0 1.9.5 1.9 2.3c.03.03 0 3.2 0 3.2l-.9 0c0 0-.04-3.07 0-3.1c0-.8-.4-1.6-1.3-1.6c-.6 0-1.1.5-1.3 1c0 .2-.1.3-.1.5c.04-.01 0 3.2 0 3.2l-.9 0c0 0-.04-3.89 0-3.9z" stroke="none" fill="#fff"/></g></svg>