<?xml version="1.0" standalone="no"?><!DOCTYPE svg PUBLIC "-//W3C//DTD SVG 1.1//EN" "http://www.w3.org/Graphics/SVG/1.1/DTD/svg11.dtd"><svg xmlns="http://www.w3.org/2000/svg" version="1.1" width="250px" height="318.5px" viewBox="0 0 250 318.5"><desc>California Sea Lions</desc><defs/><g id="Polygon8118"><path d="m35.1 166.5c-.5.2-1.6.4-3 .4c-5.2 0-7.6-4.2-7.6-10c0-7.6 4.2-10.5 8.1-10.5c1.4 0 2.4.2 2.7.5c0 0-.6 3.3-.6 3.3c-.5-.2-1-.4-1.8-.4c-2.3 0-4.3 1.9-4.3 6.9c0 4.9 1.9 6.8 4.3 6.8c.6 0 1.4-.2 1.8-.3c0 0 .4 3.3.4 3.3zm11.9-3.1c0 1.2 0 2.4.2 3.4c-.03-.05-3.5 0-3.5 0l-.3-1.5c0 0-.04.01 0 0c-.8 1.1-2 1.7-3.3 1.7c-2.2 0-3.9-1.9-3.9-4.4c0-3.9 3.4-5.5 6.8-5.5c0 0 0-.3 0-.3c0-1.2-.7-2-2.1-2c-1.2 0-2.1.3-3 .8c0 0-.7-2.6-.7-2.6c.8-.5 2.5-1.2 4.6-1.2c4.4 0 5.2 3.2 5.2 6.2c0 0 0 5.4 0 5.4zm-3.9-3.8c-1.3 0-3.1.5-3.1 2.5c0 1.5.8 2 1.4 2c.6 0 1.3-.4 1.6-1.2c.1-.3.1-.5.1-.7c0 0 0-2.6 0-2.6zm6.6-13.6l3.9 0l0 20.8l-3.9 0l0-20.8zm6.8 20.8l0-14.7l3.9 0l0 14.7l-3.9 0zm3.9-18.6c0 1.3-.9 2.1-2.1 2.1c-1.1 0-2-.8-1.9-2.1c-.1-1.3.9-2.1 2-2.1c1.1 0 2 .8 2 2.1zm3.4 18.6l0-11.9l-1.9 0l0-2.8l1.9 0c0 0 .05-.59 0-.6c0-1.7.4-3.2 1.6-4.4c.8-.9 2.1-1.3 3.5-1.3c1 0 1.8.1 2.3.3c0 0-.4 3-.4 3c-.3-.1-.7-.1-1.2-.1c-1.3 0-1.8 1.1-1.8 2.4c-.02-.01 0 .7 0 .7l2.5 0l0 2.8l-2.5 0l0 11.9l-4 0zm18.4-7.4c0 6.1-3.4 7.6-5.6 7.6c-3.5 0-5.6-2.8-5.6-7.5c0-5.3 2.7-7.7 5.7-7.7c3.4 0 5.5 2.9 5.5 7.6zm-7.3 0c0 2.5.4 4.6 1.8 4.6c1.3 0 1.6-2.5 1.6-4.6c0-2-.3-4.6-1.7-4.6c-1.4 0-1.7 2.6-1.7 4.6zm9.5-2.9c0-1.4 0-3-.1-4.4c.01-.02 3.4 0 3.4 0l.2 2.1c0 0 .13.01.1 0c.7-1.5 1.9-2.4 2.9-2.4c.4 0 .6 0 .8.1c0 0 0 3.9 0 3.9c-.2-.1-.5-.1-.8-.1c-.8 0-1.9.6-2.4 2.1c-.1.3-.1.9-.1 1.5c-.04-.02 0 7.5 0 7.5l-4 0c0 0 .03-10.31 0-10.3zm8.8 0c0-1.6 0-3-.1-4.4c.03-.02 3.4 0 3.4 0l.2 1.7c0 0 .09-.04.1 0c.7-1.2 2-2 3.5-2c2.8 0 3.9 2.3 3.9 5.5c.03.03 0 9.5 0 9.5l-3.9 0c0 0 0-9.23 0-9.2c0-1.3-.3-2.5-1.4-2.5c-.7 0-1.2.5-1.5 1.4c-.1.3-.2.7-.2 1.3c-.02.01 0 9 0 9l-4 0c0 0 .05-10.31 0-10.3zm13.8 10.3l0-14.7l3.9 0l0 14.7l-3.9 0zm3.9-18.6c0 1.3-.9 2.1-2.1 2.1c-1 0-1.9-.8-1.9-2.1c0-1.3.9-2.1 2-2.1c1.1 0 2 .8 2 2.1zm12.7 15.2c0 1.2 0 2.4.2 3.4c-.01-.05-3.5 0-3.5 0l-.2-1.5c0 0-.12.01-.1 0c-.8 1.1-2 1.7-3.3 1.7c-2.2 0-3.8-1.9-3.8-4.4c0-3.9 3.4-5.5 6.7-5.5c0 0 0-.3 0-.3c0-1.2-.7-2-2.1-2c-1.2 0-2.1.3-3 .8c0 0-.7-2.6-.7-2.6c.8-.5 2.5-1.2 4.6-1.2c4.5 0 5.2 3.2 5.2 6.2c0 0 0 5.4 0 5.4zm-3.9-3.8c-1.3 0-3.1.5-3.1 2.5c0 1.5.8 2 1.4 2c.7 0 1.3-.4 1.6-1.2c.1-.3.1-.5.1-.7c0 0 0-2.6 0-2.6zm11.3 3.1c.8.5 2.2.8 3.3.8c1.9 0 2.8-.9 2.8-2.3c0-1.4-.9-2.2-2.6-3.3c-2.8-1.6-3.8-3.8-3.8-5.6c0-3.2 2.1-5.9 6.3-5.9c1.4 0 2.7.3 3.2.7c0 0-.6 3.4-.6 3.4c-.6-.4-1.4-.7-2.6-.7c-1.6 0-2.4 1-2.4 2.1c0 1.2.6 1.8 2.7 3.1c2.7 1.6 3.7 3.7 3.7 5.8c0 3.7-2.8 6.1-6.7 6.1c-1.6 0-3.2-.4-3.9-.8c0 0 .6-3.4.6-3.4zm15.5-1.9c0 2.3 1.4 3.1 3.1 3.1c1.1 0 2.1-.2 2.8-.4c0 0 .5 2.8.5 2.8c-1 .4-2.5.6-4 .6c-4 0-6.2-2.6-6.2-7.2c0-4.9 2.6-7.9 5.9-7.9c3.1 0 4.9 2.5 4.9 7c0 1 0 1.6-.1 2c0 0-6.9 0-6.9 0zm3.5-2.7c0-1.9-.5-3.4-1.7-3.4c-1.2 0-1.8 1.9-1.8 3.4c0 0 3.5 0 3.5 0zm15.7 5.3c0 1.2 0 2.4.2 3.4c-.03-.05-3.5 0-3.5 0l-.2-1.5c0 0-.14.01-.1 0c-.8 1.1-2 1.7-3.3 1.7c-2.2 0-3.8-1.9-3.8-4.4c0-3.9 3.3-5.5 6.7-5.5c0 0 0-.3 0-.3c0-1.2-.7-2-2.1-2c-1.2 0-2.1.3-3 .8c0 0-.7-2.6-.7-2.6c.8-.5 2.5-1.2 4.6-1.2c4.4 0 5.2 3.2 5.2 6.2c0 0 0 5.4 0 5.4zm-3.9-3.8c-1.3 0-3.1.5-3.1 2.5c0 1.5.8 2 1.4 2c.6 0 1.3-.4 1.6-1.2c.1-.3.1-.5.1-.7c0 0 0-2.6 0-2.6zm11.8-13.1l3.9 0l0 16.9l5.1 0l0 3.4l-9 0l0-20.3zm11 20.3l0-14.7l3.9 0l0 14.7l-3.9 0zm3.9-18.6c.1 1.3-.8 2.1-2 2.1c-1.1 0-2-.8-2-2.1c0-1.3.9-2.1 2-2.1c1.2 0 2 .8 2 2.1zm13.5 11.2c0 6.1-3.4 7.6-5.6 7.6c-3.5 0-5.6-2.8-5.6-7.5c0-5.3 2.7-7.7 5.6-7.7c3.5 0 5.6 2.9 5.6 7.6zm-7.3 0c0 2.5.4 4.6 1.8 4.6c1.3 0 1.6-2.5 1.6-4.6c0-2-.3-4.6-1.7-4.6c-1.4 0-1.7 2.6-1.7 4.6zm9.5-2.9c0-1.6 0-3-.1-4.4c-.01-.02 3.4 0 3.4 0l.2 1.7c0 0 .05-.04.1 0c.7-1.2 2-2 3.5-2c2.8 0 3.9 2.3 3.9 5.5c-.01.03 0 9.5 0 9.5l-3.9 0c0 0-.04-9.23 0-9.2c0-1.3-.3-2.5-1.5-2.5c-.6 0-1.2.5-1.4 1.4c-.2.3-.3.7-.3 1.3c.04.01 0 9 0 9l-3.9 0c0 0 .01-10.31 0-10.3zm13.6 6.7c.6.4 1.7.8 2.7.8c1 0 1.6-.5 1.6-1.3c0-.8-.5-1.3-1.7-2c-2.4-1.4-3-2.9-3-4.2c0-2.7 1.9-4.7 4.8-4.7c1.2 0 2.2.3 3 .7c0 0-.7 2.9-.7 2.9c-.6-.3-1.3-.6-2-.6c-1.1 0-1.5.6-1.5 1.2c0 .7.3 1.1 1.7 1.9c2.2 1.2 3 2.7 3 4.4c0 3-2.2 4.6-5.2 4.6c-1.3 0-2.7-.3-3.4-.8c0 0 .7-2.9.7-2.9z" stroke="none" fill="#000" fill-opacity="0.7"/></g></svg>