<?xml version="1.0" standalone="no"?><!DOCTYPE svg PUBLIC "-//W3C//DTD SVG 1.1//EN" "http://www.w3.org/Graphics/SVG/1.1/DTD/svg11.dtd"><svg xmlns="http://www.w3.org/2000/svg" version="1.1" width="709px" height="307px" viewBox="0 0 709 307"><desc>Getting there Few people actually see this park because it is not easy to get to—you can t drive to the islands A sh</desc><defs/><g id="Polygon7069"><path d="m2.9 261.7c0-2.3 0-4.3-.1-6.1c-.04.04 3 0 3 0l.2 3.9c0 0 .12-.02.1 0c.9-2.6 3.1-4.3 5.4-4.3c.4 0 .7.1 1 .1c0 0 0 3.3 0 3.3c-.4 0-.7 0-1.2 0c-2.5 0-4.3 1.8-4.7 4.4c-.1.5-.2 1.1-.2 1.7c.04-.02 0 10.3 0 10.3l-3.5 0c0 0 .02-13.32 0-13.3zm14.3 4.3c0 4.7 3 6.7 6.6 6.7c2.5 0 4.1-.5 5.4-1c0 0 .6 2.5.6 2.5c-1.2.6-3.4 1.2-6.5 1.2c-5.9 0-9.5-3.9-9.5-9.8c0-5.8 3.4-10.4 9.1-10.4c6.3 0 8 5.6 8 9.1c0 .7-.1 1.3-.1 1.7c0 0-13.6 0-13.6 0zm10.3-2.6c0-2.2-.9-5.6-4.9-5.6c-3.6 0-5.1 3.2-5.4 5.6c0 0 10.3 0 10.3 0zm20.5 8.6c0 0-.04.04 0 0c-1.1 1.9-3.2 3.4-6.4 3.4c-4.5 0-8.2-3.8-8.2-9.7c0-7.3 4.7-10.5 8.8-10.5c3 0 5 1.5 6 3.4c-.04-.04 0 0 0 0l.2-3c0 0 3.28.04 3.3 0c-.1 1.6-.2 3.4-.2 5.4c.02-.04 0 21.9 0 21.9l-3.5 0l0-10.9zm0-8.5c0-.5 0-1-.1-1.5c-.6-2.1-2.4-4-5.1-4c-3.6 0-5.8 3.1-5.8 7.4c0 3.9 1.8 7.2 5.7 7.2c2.3 0 4.3-1.4 5.1-3.8c.1-.5.2-1.2.2-1.7c0 0 0-3.6 0-3.6zm25.2 6.2c0 2 0 3.8.1 5.3c.02 0-3.1 0-3.1 0l-.2-3.2c0 0-.08.04-.1 0c-.9 1.6-2.9 3.6-6.4 3.6c-3 0-6.7-1.7-6.7-8.4c.04-.04 0-11.4 0-11.4l3.6 0c0 0-.04 10.72 0 10.7c0 3.7 1.1 6.2 4.3 6.2c2.3 0 4-1.6 4.6-3.2c.2-.5.3-1.1.3-1.8c.04-.02 0-11.9 0-11.9l3.6 0c0 0-.04 14.08 0 14.1zm5.4 5.3l0-19.4l3.5 0l0 19.4l-3.5 0zm3.9-24.8c0 1.2-.8 2.2-2.2 2.2c-1.3 0-2.1-1-2.1-2.2c0-1.2.8-2.2 2.2-2.2c1.2 0 2.1 1 2.1 2.2zm5.1 11.5c0-2.3-.1-4.3-.2-6.1c0 .04 3.1 0 3.1 0l.1 3.9c0 0 .16-.02.2 0c.8-2.6 3-4.3 5.4-4.3c.3 0 .6.1.9.1c0 0 0 3.3 0 3.3c-.3 0-.7 0-1.2 0c-2.5 0-4.2 1.8-4.7 4.4c-.1.5-.1 1.1-.1 1.7c-.02-.02 0 10.3 0 10.3l-3.5 0c0 0-.04-13.32 0-13.3zm14.2 4.3c.1 4.7 3.1 6.7 6.6 6.7c2.6 0 4.1-.5 5.4-1c0 0 .6 2.5.6 2.5c-1.2.6-3.4 1.2-6.4 1.2c-6 0-9.6-3.9-9.6-9.8c0-5.8 3.5-10.4 9.1-10.4c6.4 0 8 5.6 8 9.1c0 .7 0 1.3-.1 1.7c0 0-13.6 0-13.6 0zm10.3-2.6c.1-2.2-.9-5.6-4.9-5.6c-3.6 0-5.1 3.2-5.4 5.6c0 0 10.3 0 10.3 0zm24.1-16.8c0 0-.04 23.4 0 23.4c0 1.7 0 3.7.1 5c.02 0-3.1 0-3.1 0l-.2-3.4c0 0-.08.04-.1 0c-1 2.2-3.3 3.8-6.5 3.8c-4.7 0-8.3-3.9-8.3-9.8c-.1-6.4 4-10.4 8.7-10.4c3 0 4.9 1.4 5.8 3c0-.04.1 0 .1 0l0-11.6l3.5 0zm-3.5 16.9c0-.4-.1-1-.2-1.5c-.5-2.2-2.4-4-5.1-4c-3.6 0-5.8 3.2-5.8 7.4c0 4 2 7.2 5.8 7.2c2.3 0 4.5-1.6 5.1-4.2c.1-.5.2-1 .2-1.5c0 0 0-3.4 0-3.4zm7.7 9.4c0-1.4 1-2.5 2.4-2.5c1.4 0 2.4 1 2.4 2.5c0 1.5-1 2.5-2.5 2.5c-1.3 0-2.3-1-2.3-2.5z" stroke="none" fill="#000"/></g><g id="Polygon7068"><path d="m20.4 220.2c0 7.1-5 10.2-9.6 10.2c-5.2 0-9.3-3.8-9.3-9.9c0-6.5 4.3-10.3 9.6-10.3c5.6 0 9.3 4.1 9.3 10zm-15.3.2c0 4.2 2.4 7.4 5.9 7.4c3.3 0 5.8-3.2 5.8-7.5c0-3.3-1.6-7.4-5.8-7.4c-4.1 0-5.9 3.8-5.9 7.5zm19.4-3.7c0-2.3-.1-4.3-.2-6.1c.02.04 3.1 0 3.1 0l.2 3.9c0 0 .08-.02.1 0c.9-2.6 3-4.3 5.4-4.3c.3 0 .6.1.9.1c0 0 0 3.3 0 3.3c-.3 0-.7 0-1.2 0c-2.4 0-4.2 1.8-4.7 4.4c-.1.5-.1 1.1-.1 1.7c0-.02 0 10.3 0 10.3l-3.5 0c0 0-.02-13.32 0-13.3zm34.3 8.7c0 1.6.1 3.3.3 4.6c.02 0-3.1 0-3.1 0l-.3-2.4c0 0-.14-.04-.1 0c-1.1 1.5-3.2 2.8-6 2.8c-3.9 0-5.9-2.7-5.9-5.5c0-4.7 4.2-7.3 11.7-7.2c0 0 0-.4 0-.4c0-1.6-.5-4.5-4.4-4.5c-1.9 0-3.8.6-5.1 1.5c0 0-.8-2.4-.8-2.4c1.6-1 3.9-1.7 6.4-1.7c5.9 0 7.3 4.1 7.3 7.9c0 0 0 7.3 0 7.3zm-3.4-5.3c-3.8-.1-8.2.6-8.2 4.4c0 2.3 1.6 3.3 3.3 3.3c2.6 0 4.2-1.6 4.8-3.2c.1-.4.1-.8.1-1.1c0 0 0-3.4 0-3.4zm30.6 9.2c-.9.5-3 1.1-5.6 1.1c-5.8 0-9.6-3.9-9.6-9.8c0-6 4.1-10.4 10.4-10.4c2.1 0 3.9.6 4.9 1.1c0 0-.8 2.7-.8 2.7c-.9-.5-2.2-1-4.1-1c-4.4 0-6.8 3.4-6.8 7.4c0 4.4 2.8 7.2 6.7 7.2c2 0 3.3-.5 4.3-.9c0 0 .6 2.6.6 2.6zm21-9.1c0 7.1-5 10.2-9.6 10.2c-5.2 0-9.3-3.8-9.3-9.9c0-6.5 4.3-10.3 9.6-10.3c5.5 0 9.3 4.1 9.3 10zm-15.3.2c0 4.2 2.4 7.4 5.8 7.4c3.4 0 5.9-3.2 5.9-7.5c0-3.3-1.6-7.4-5.8-7.4c-4.1 0-5.9 3.8-5.9 7.5zm19.3-4.5c0-2.1 0-3.7-.1-5.3c-.02.04 3.1 0 3.1 0l.1 3.2c0 0 .14 0 .1 0c1.1-1.8 2.9-3.6 6.2-3.6c2.6 0 4.6 1.6 5.4 3.9c0 0 .1 0 .1 0c.6-1.1 1.4-1.9 2.2-2.5c1.1-.9 2.4-1.4 4.2-1.4c2.6 0 6.4 1.7 6.4 8.4c.02.04 0 11.4 0 11.4l-3.4 0c0 0-.02-10.92 0-10.9c0-3.8-1.4-6-4.2-6c-2.1 0-3.6 1.5-4.2 3.2c-.2.5-.3 1.1-.3 1.7c0 .04 0 12 0 12l-3.4 0c0 0-.04-11.6 0-11.6c0-3.1-1.4-5.3-4.1-5.3c-2.1 0-3.8 1.8-4.3 3.5c-.2.5-.3 1.2-.3 1.8c-.02-.04 0 11.6 0 11.6l-3.5 0c0 0 .04-14.12 0-14.1zm33 0c0-2.1-.1-3.7-.2-5.3c.04.04 3.1 0 3.1 0l.2 3.2c0 0 .1 0 .1 0c1.1-1.8 2.9-3.6 6.1-3.6c2.6 0 4.6 1.6 5.5 3.9c0 0 0 0 0 0c.6-1.1 1.4-1.9 2.2-2.5c1.2-.9 2.4-1.4 4.3-1.4c2.6 0 6.4 1.7 6.4 8.4c-.02.04 0 11.4 0 11.4l-3.5 0c0 0 .04-10.92 0-10.9c0-3.8-1.4-6-4.2-6c-2 0-3.5 1.5-4.2 3.2c-.1.5-.2 1.1-.2 1.7c-.04.04 0 12 0 12l-3.5 0c0 0 .02-11.6 0-11.6c0-3.1-1.3-5.3-4-5.3c-2.2 0-3.8 1.8-4.4 3.5c-.2.5-.3 1.2-.3 1.8c.04-.04 0 11.6 0 11.6l-3.4 0c0 0 0-14.12 0-14.1zm34.9 5.1c.1 4.7 3.1 6.7 6.7 6.7c2.5 0 4-.5 5.3-1c0 0 .7 2.5.7 2.5c-1.3.6-3.4 1.2-6.5 1.2c-6 0-9.5-3.9-9.5-9.8c0-5.8 3.4-10.4 9-10.4c6.4 0 8 5.6 8 9.1c0 .7 0 1.3-.1 1.7c0 0-13.6 0-13.6 0zm10.3-2.6c.1-2.2-.9-5.6-4.8-5.6c-3.6 0-5.2 3.2-5.4 5.6c0 0 10.2 0 10.2 0zm7.4-1.7c0-2.3 0-4.3-.2-6.1c.04.04 3.1 0 3.1 0l.2 3.9c0 0 .1-.02.1 0c.9-2.6 3-4.3 5.4-4.3c.4 0 .6.1 1 .1c0 0 0 3.3 0 3.3c-.4 0-.8 0-1.2 0c-2.5 0-4.3 1.8-4.8 4.4c0 .5-.1 1.1-.1 1.7c.02-.02 0 10.3 0 10.3l-3.5 0c0 0 0-13.32 0-13.3zm26.1 12.6c-.9.5-3 1.1-5.6 1.1c-5.8 0-9.6-3.9-9.6-9.8c0-6 4.1-10.4 10.4-10.4c2.1 0 3.9.6 4.9 1.1c0 0-.8 2.7-.8 2.7c-.9-.5-2.2-1-4.1-1c-4.5 0-6.9 3.4-6.9 7.4c0 4.4 2.9 7.2 6.8 7.2c2 0 3.3-.5 4.3-.9c0 0 .6 2.6.6 2.6zm3.7.7l0-19.4l3.5 0l0 19.4l-3.5 0zm3.9-24.8c0 1.2-.8 2.2-2.2 2.2c-1.3 0-2.1-1-2.1-2.2c0-1.2.8-2.2 2.2-2.2c1.2 0 2.1 1 2.1 2.2zm18.7 20.2c0 1.6 0 3.3.2 4.6c.04 0-3.1 0-3.1 0l-.3-2.4c0 0-.12-.04-.1 0c-1.1 1.5-3.2 2.8-5.9 2.8c-4 0-6-2.7-6-5.5c0-4.7 4.2-7.3 11.7-7.2c0 0 0-.4 0-.4c0-1.6-.5-4.5-4.4-4.5c-1.9 0-3.7.6-5.1 1.5c0 0-.8-2.4-.8-2.4c1.6-1 4-1.7 6.4-1.7c5.9 0 7.4 4.1 7.4 7.9c0 0 0 7.3 0 7.3zm-3.4-5.3c-3.9-.1-8.2.6-8.2 4.4c0 2.3 1.5 3.3 3.2 3.3c2.6 0 4.2-1.6 4.8-3.2c.1-.4.2-.8.2-1.1c0 0 0-3.4 0-3.4zm8.6-18.5l3.6 0l0 28.4l-3.6 0l0-28.4zm17.5 28.4l0-16.7l-2.7 0l0-2.7l2.7 0c0 0 .02-.8 0-.8c0-2.7.9-5.1 2.7-6.7c1.6-1.3 3.6-1.9 6.3-1.9c2.2 0 4.3.4 5.8 1.2c-.02.04 0 27.6 0 27.6l-3.5 0c0 0-.04-25.6 0-25.6c-.6-.3-1.6-.5-2.9-.5c-3.7 0-4.9 2.7-4.9 5.7c0 .04 0 1 0 1l4.5 0l0 2.7l-4.5 0l0 16.7l-3.5 0zm20.2 0l0-19.4l3.5 0l0 19.4l-3.5 0zm3.9-24.8c0 1.2-.8 2.2-2.2 2.2c-1.3 0-2.2-1-2.2-2.2c0-1.2.9-2.2 2.2-2.2c1.3 0 2.2 1 2.2 2.2zm21.6 22c0 4.4-.9 7.1-2.8 8.8c-1.9 1.8-4.6 2.4-7 2.4c-2.4 0-4.9-.6-6.5-1.6c0 0 .9-2.8.9-2.8c1.3.9 3.3 1.6 5.7 1.6c3.6 0 6.2-1.9 6.2-6.8c.02 0 0-2.1 0-2.1c0 0-.06-.02-.1 0c-1 1.8-3.1 3.2-6.1 3.2c-4.8 0-8.3-4.1-8.3-9.4c0-6.6 4.3-10.3 8.8-10.3c3.4 0 5.2 1.8 6 3.4c.04-.04.1 0 .1 0l.1-3c0 0 3.16.04 3.2 0c-.2 1.4-.2 3-.2 5.3c0 0 0 11.3 0 11.3zm-3.5-8.9c0-.6-.1-1.1-.2-1.6c-.7-2.1-2.3-3.7-4.9-3.7c-3.4 0-5.8 2.8-5.8 7.3c0 3.8 2 6.9 5.7 6.9c2.2 0 4.2-1.3 4.9-3.6c.2-.6.3-1.2.3-1.8c0 0 0-3.5 0-3.5zm8.9-16.7l3.5 0l0 12.1c0 0 .1.02.1 0c.6-1 1.4-1.9 2.5-2.5c1.1-.6 2.3-1 3.6-1c2.6 0 6.8 1.6 6.8 8.3c-.02-.02 0 11.5 0 11.5l-3.5 0c0 0-.04-11.12 0-11.1c0-3.1-1.2-5.7-4.5-5.7c-2.3 0-4.1 1.6-4.7 3.4c-.2.6-.3 1.1-.3 1.7c.02.02 0 11.7 0 11.7l-3.5 0l0-28.4zm25.9 4.4l0 4.6l5 0l0 2.7l-5 0c0 0-.02 10.46 0 10.5c0 2.4.7 3.7 2.6 3.7c1 0 1.5-.1 2.1-.2c0 0 .1 2.7.1 2.7c-.7.2-1.7.4-3.1.4c-1.6 0-3-.5-3.8-1.4c-1-1.1-1.4-2.8-1.4-5.1c.04-.02 0-10.6 0-10.6l-3 0l0-2.7l3 0l0-3.6l3.5-1zm16.7 24l0-19.4l3.5 0l0 19.4l-3.5 0zm3.9-24.8c0 1.2-.9 2.2-2.3 2.2c-1.2 0-2.1-1-2.1-2.2c0-1.2.9-2.2 2.2-2.2c1.3 0 2.2 1 2.2 2.2zm5 10.7c0-2.1 0-3.7-.1-5.3c-.04.04 3.1 0 3.1 0l.2 3.2c0 0 .06.04.1 0c.9-1.8 3.2-3.6 6.4-3.6c2.6 0 6.8 1.6 6.8 8.3c0-.02 0 11.5 0 11.5l-3.5 0c0 0-.02-11.16 0-11.2c0-3.1-1.2-5.7-4.5-5.7c-2.3 0-4.1 1.7-4.7 3.6c-.2.5-.3 1.1-.3 1.7c.04-.04 0 11.6 0 11.6l-3.5 0c0 0 .02-14.12 0-14.1zm43.5 9.5c0 1.6.1 3.3.3 4.6c-.03 0-3.2 0-3.2 0l-.3-2.4c0 0-.09-.04-.1 0c-1.1 1.5-3.1 2.8-5.9 2.8c-3.9 0-5.9-2.7-5.9-5.5c0-4.7 4.1-7.3 11.6-7.2c0 0 0-.4 0-.4c0-1.6-.4-4.5-4.4-4.5c-1.8 0-3.7.6-5.1 1.5c0 0-.8-2.4-.8-2.4c1.6-1 4-1.7 6.4-1.7c6 0 7.4 4.1 7.4 7.9c0 0 0 7.3 0 7.3zm-3.4-5.3c-3.8-.1-8.2.6-8.2 4.4c0 2.3 1.5 3.3 3.3 3.3c2.5 0 4.2-1.6 4.7-3.2c.2-.4.2-.8.2-1.1c0 0 0-3.4 0-3.4zm16.3 6.3c1.1.7 2.9 1.4 4.7 1.4c2.5 0 3.7-1.2 3.7-2.9c0-1.7-1-2.5-3.6-3.5c-3.5-1.3-5.1-3.2-5.1-5.5c0-3.1 2.5-5.7 6.6-5.7c2 0 3.7.6 4.8 1.2c0 0-.9 2.6-.9 2.6c-.7-.5-2.1-1.2-3.9-1.2c-2.1 0-3.2 1.2-3.2 2.7c0 1.6 1.1 2.3 3.6 3.3c3.3 1.2 5.1 2.9 5.1 5.8c0 3.4-2.7 5.8-7.2 5.8c-2.1 0-4.1-.5-5.5-1.3c0 0 .9-2.7.9-2.7zm15.9-10.5c0-2.1-.1-3.7-.2-5.3c.03.04 3.1 0 3.1 0l.2 3.2c0 0 .09 0 .1 0c1.1-1.8 2.9-3.6 6.1-3.6c2.6 0 4.6 1.6 5.5 3.9c0 0 0 0 0 0c.6-1.1 1.4-1.9 2.2-2.5c1.2-.9 2.4-1.4 4.3-1.4c2.6 0 6.4 1.7 6.4 8.4c-.03.04 0 11.4 0 11.4l-3.5 0c0 0 .03-10.92 0-10.9c0-3.8-1.4-6-4.2-6c-2 0-3.5 1.5-4.2 3.2c-.1.5-.2 1.1-.2 1.7c-.05.04 0 12 0 12l-3.5 0c0 0 .01-11.6 0-11.6c0-3.1-1.3-5.3-4-5.3c-2.2 0-3.8 1.8-4.4 3.5c-.2.5-.3 1.2-.3 1.8c.03-.04 0 11.6 0 11.6l-3.4 0c0 0-.01-14.12 0-14.1zm46.6 9.5c0 1.6 0 3.3.2 4.6c.03 0-3.1 0-3.1 0l-.3-2.4c0 0-.13-.04-.1 0c-1.1 1.5-3.2 2.8-5.9 2.8c-4 0-6-2.7-6-5.5c0-4.7 4.2-7.3 11.7-7.2c0 0 0-.4 0-.4c0-1.6-.5-4.5-4.4-4.5c-1.9 0-3.7.6-5.1 1.5c0 0-.8-2.4-.8-2.4c1.6-1 4-1.7 6.4-1.7c5.9 0 7.4 4.1 7.4 7.9c0 0 0 7.3 0 7.3zm-3.4-5.3c-3.9-.1-8.2.6-8.2 4.4c0 2.3 1.5 3.3 3.2 3.3c2.6 0 4.2-1.6 4.8-3.2c.1-.4.2-.8.2-1.1c0 0 0-3.4 0-3.4zm8.6-18.5l3.6 0l0 28.4l-3.6 0l0-28.4zm9.1 0l3.5 0l0 28.4l-3.5 0l0-28.4zm30.7 23.8c0 1.6.1 3.3.3 4.6c-.03 0-3.2 0-3.2 0l-.3-2.4c0 0-.09-.04-.1 0c-1.1 1.5-3.1 2.8-5.9 2.8c-3.9 0-5.9-2.7-5.9-5.5c0-4.7 4.1-7.3 11.6-7.2c0 0 0-.4 0-.4c0-1.6-.4-4.5-4.4-4.5c-1.8 0-3.7.6-5.1 1.5c0 0-.8-2.4-.8-2.4c1.6-1 4-1.7 6.4-1.7c6 0 7.4 4.1 7.4 7.9c0 0 0 7.3 0 7.3zm-3.4-5.3c-3.8-.1-8.2.6-8.2 4.4c0 2.3 1.5 3.3 3.3 3.3c2.5 0 4.2-1.6 4.7-3.2c.2-.4.2-.8.2-1.1c0 0 0-3.4 0-3.4zm8.7 9.9l0-19.4l3.5 0l0 19.4l-3.5 0zm3.9-24.8c0 1.2-.8 2.2-2.2 2.2c-1.3 0-2.2-1-2.2-2.2c0-1.2.9-2.2 2.2-2.2c1.3 0 2.2 1 2.2 2.2zm5 11.5c0-2.3 0-4.3-.1-6.1c-.03.04 3.1 0 3.1 0l.1 3.9c0 0 .13-.02.1 0c.9-2.6 3.1-4.3 5.4-4.3c.4 0 .7.1 1 .1c0 0 0 3.3 0 3.3c-.4 0-.7 0-1.2 0c-2.5 0-4.2 1.8-4.7 4.4c-.1.5-.1 1.1-.1 1.7c-.05-.02 0 10.3 0 10.3l-3.6 0c0 0 .03-13.32 0-13.3zm12.9.3c0-2.5-.1-4.5-.2-6.4c.01.04 3.1 0 3.1 0l.2 3.4c0 0 .11-.04.1 0c1.4-2.4 3.7-3.8 6.9-3.8c4.7 0 8.2 4 8.2 9.8c0 7-4.2 10.4-8.8 10.4c-2.6 0-4.8-1.1-6-3c.03 0 0 0 0 0l0 10.5l-3.5 0c0 0-.03-20.94 0-20.9zm3.5 5.1c0 .5 0 1 .1 1.5c.7 2.4 2.8 4.1 5.3 4.1c3.7 0 5.9-3.1 5.9-7.5c0-3.8-2.1-7.2-5.8-7.2c-2.4 0-4.7 1.7-5.3 4.4c-.1.4-.2.9-.2 1.4c0 0 0 3.3 0 3.3zm18.8-20.5l3.6 0l0 28.4l-3.6 0l0-28.4zm22.7 23.8c0 1.6.1 3.3.3 4.6c-.05 0-3.2 0-3.2 0l-.3-2.4c0 0-.11-.04-.1 0c-1.1 1.5-3.2 2.8-5.9 2.8c-3.9 0-5.9-2.7-5.9-5.5c0-4.7 4.1-7.3 11.6-7.2c0 0 0-.4 0-.4c0-1.6-.4-4.5-4.4-4.5c-1.8 0-3.7.6-5.1 1.5c0 0-.8-2.4-.8-2.4c1.6-1 4-1.7 6.4-1.7c5.9 0 7.4 4.1 7.4 7.9c0 0 0 7.3 0 7.3zm-3.4-5.3c-3.9-.1-8.2.6-8.2 4.4c0 2.3 1.5 3.3 3.3 3.3c2.5 0 4.2-1.6 4.7-3.2c.1-.4.2-.8.2-1.1c0 0 0-3.4 0-3.4zm8.7-4.2c0-2.1-.1-3.7-.2-5.3c-.01.04 3.1 0 3.1 0l.2 3.2c0 0 .09.04.1 0c1-1.8 3.2-3.6 6.4-3.6c2.7 0 6.8 1.6 6.8 8.3c.03-.02 0 11.5 0 11.5l-3.5 0c0 0 .01-11.16 0-11.2c0-3.1-1.1-5.7-4.5-5.7c-2.2 0-4 1.7-4.7 3.6c-.1.5-.2 1.1-.2 1.7c-.03-.04 0 11.6 0 11.6l-3.5 0c0 0-.05-14.12 0-14.1zm23.7 5.1c.1 4.7 3.1 6.7 6.7 6.7c2.5 0 4-.5 5.3-1c0 0 .7 2.5.7 2.5c-1.3.6-3.4 1.2-6.5 1.2c-6 0-9.5-3.9-9.5-9.8c0-5.8 3.4-10.4 9-10.4c6.4 0 8 5.6 8 9.1c0 .7 0 1.3-.1 1.7c0 0-13.6 0-13.6 0zm10.3-2.6c.1-2.2-.9-5.6-4.8-5.6c-3.6 0-5.2 3.2-5.4 5.6c0 0 10.2 0 10.2 0zm15.5 11.6l0-19.4l3.5 0l0 19.4l-3.5 0zm3.9-24.8c0 1.2-.9 2.2-2.3 2.2c-1.2 0-2.1-1-2.1-2.2c0-1.2.9-2.2 2.2-2.2c1.3 0 2.2 1 2.2 2.2zm4.5 21.2c1.1.7 3 1.4 4.7 1.4c2.5 0 3.7-1.2 3.7-2.9c0-1.7-1-2.5-3.5-3.5c-3.5-1.3-5.2-3.2-5.2-5.5c0-3.1 2.6-5.7 6.7-5.7c2 0 3.7.6 4.7 1.2c0 0-.8 2.6-.8 2.6c-.8-.5-2.2-1.2-4-1.2c-2.1 0-3.2 1.2-3.2 2.7c0 1.6 1.1 2.3 3.7 3.3c3.3 1.2 5 2.9 5 5.8c0 3.4-2.6 5.8-7.2 5.8c-2.1 0-4-.5-5.4-1.3c0 0 .8-2.7.8-2.7z" stroke="none" fill="#000"/></g><g id="Polygon7067"><path d="m2.9 185l0-19.4l3.5 0l0 19.4l-3.5 0zm3.9-24.8c0 1.2-.8 2.2-2.2 2.2c-1.3 0-2.1-1-2.1-2.2c0-1.2.9-2.2 2.2-2.2c1.3 0 2.1 1 2.1 2.2zm4.6 21.2c1.1.7 2.9 1.4 4.7 1.4c2.5 0 3.7-1.2 3.7-2.9c0-1.7-1-2.5-3.6-3.5c-3.5-1.3-5.1-3.2-5.1-5.5c0-3.1 2.5-5.7 6.7-5.7c1.9 0 3.6.6 4.7 1.2c0 0-.9 2.6-.9 2.6c-.7-.5-2.1-1.2-3.9-1.2c-2.1 0-3.2 1.2-3.2 2.7c0 1.6 1.1 2.3 3.6 3.3c3.3 1.2 5.1 2.9 5.1 5.8c0 3.4-2.7 5.8-7.2 5.8c-2.1 0-4.1-.5-5.4-1.3c0 0 .8-2.7.8-2.7zm15.9-24.8l3.5 0l0 28.4l-3.5 0l0-28.4zm22.7 23.8c0 1.6 0 3.3.2 4.6c.04 0-3.1 0-3.1 0l-.3-2.4c0 0-.12-.04-.1 0c-1.1 1.5-3.2 2.8-5.9 2.8c-4 0-6-2.7-6-5.5c0-4.7 4.2-7.3 11.7-7.2c0 0 0-.4 0-.4c0-1.6-.5-4.5-4.4-4.5c-1.9 0-3.7.6-5.1 1.5c0 0-.8-2.4-.8-2.4c1.6-1 4-1.7 6.4-1.7c5.9 0 7.4 4.1 7.4 7.9c0 0 0 7.3 0 7.3zm-3.4-5.3c-3.9-.1-8.2.6-8.2 4.4c0 2.3 1.5 3.3 3.2 3.3c2.6 0 4.2-1.6 4.8-3.2c.1-.4.2-.8.2-1.1c0 0 0-3.4 0-3.4zm8.6-4.2c0-2.1 0-3.7-.1-5.3c-.02.04 3.1 0 3.1 0l.2 3.2c0 0 .08.04.1 0c.9-1.8 3.2-3.6 6.4-3.6c2.7 0 6.8 1.6 6.8 8.3c.02-.02 0 11.5 0 11.5l-3.5 0c0 0 0-11.16 0-11.2c0-3.1-1.2-5.7-4.5-5.7c-2.3 0-4.1 1.7-4.7 3.6c-.2.5-.2 1.1-.2 1.7c-.04-.04 0 11.6 0 11.6l-3.6 0c0 0 .04-14.12 0-14.1zm38.5-14.3c0 0 .02 23.4 0 23.4c0 1.7.1 3.7.2 5c-.02 0-3.1 0-3.1 0l-.2-3.4c0 0-.12.04-.1 0c-1.1 2.2-3.4 3.8-6.5 3.8c-4.7 0-8.4-3.9-8.4-9.8c0-6.4 4-10.4 8.7-10.4c3 0 5 1.4 5.9 3c-.04-.04 0 0 0 0l0-11.6l3.5 0zm-3.5 16.9c0-.4 0-1-.1-1.5c-.5-2.2-2.5-4-5.1-4c-3.6 0-5.8 3.2-5.8 7.4c0 4 2 7.2 5.7 7.2c2.4 0 4.5-1.6 5.2-4.2c.1-.5.1-1 .1-1.5c0 0 0-3.4 0-3.4zm8.5 7.9c1.1.7 2.9 1.4 4.7 1.4c2.5 0 3.7-1.2 3.7-2.9c0-1.7-1-2.5-3.5-3.5c-3.6-1.3-5.2-3.2-5.2-5.5c0-3.1 2.6-5.7 6.7-5.7c1.9 0 3.7.6 4.7 1.2c0 0-.8 2.6-.8 2.6c-.8-.5-2.2-1.2-4-1.2c-2.1 0-3.2 1.2-3.2 2.7c0 1.6 1.1 2.3 3.6 3.3c3.4 1.2 5.1 2.9 5.1 5.8c0 3.4-2.7 5.8-7.2 5.8c-2.1 0-4.1-.5-5.4-1.3c0 0 .8-2.7.8-2.7zm14.7 1.5c0-1.4 1-2.5 2.4-2.5c1.4 0 2.3 1 2.3 2.5c0 1.5-.9 2.5-2.4 2.5c-1.4 0-2.3-1-2.3-2.5zm21.2-6.4l-2.8 8.5l-3.6 0l9.2-27l4.2 0l9.2 27l-3.7 0l-2.9-8.5l-9.6 0zm8.9-2.7c0 0-2.66-7.76-2.7-7.8c-.6-1.7-1-3.3-1.4-4.9c0 0 0 0 0 0c-.4 1.6-.8 3.3-1.4 4.9c0 0-2.6 7.8-2.6 7.8l8.1 0zm18.3 7.6c1.1.7 3 1.4 4.7 1.4c2.5 0 3.7-1.2 3.7-2.9c0-1.7-1-2.5-3.5-3.5c-3.5-1.3-5.2-3.2-5.2-5.5c0-3.1 2.6-5.7 6.7-5.7c2 0 3.7.6 4.7 1.2c0 0-.8 2.6-.8 2.6c-.8-.5-2.2-1.2-4-1.2c-2.1 0-3.2 1.2-3.2 2.7c0 1.6 1.1 2.3 3.7 3.3c3.3 1.2 5 2.9 5 5.8c0 3.4-2.6 5.8-7.2 5.8c-2.1 0-4-.5-5.4-1.3c0 0 .8-2.7.8-2.7zm16-24.8l3.5 0l0 12.1c0 0 .06.02.1 0c.5-1 1.4-1.9 2.5-2.5c1-.6 2.3-1 3.6-1c2.6 0 6.7 1.6 6.7 8.3c.04-.02 0 11.5 0 11.5l-3.5 0c0 0 .02-11.12 0-11.1c0-3.1-1.1-5.7-4.5-5.7c-2.2 0-4 1.6-4.7 3.4c-.2.6-.2 1.1-.2 1.7c-.02.02 0 11.7 0 11.7l-3.5 0l0-28.4zm39.3 18.6c0 7.1-5 10.2-9.7 10.2c-5.2 0-9.2-3.8-9.2-9.9c0-6.5 4.2-10.3 9.6-10.3c5.5 0 9.3 4.1 9.3 10zm-15.3.2c0 4.2 2.4 7.4 5.8 7.4c3.4 0 5.9-3.2 5.9-7.5c0-3.3-1.7-7.4-5.8-7.4c-4.1 0-5.9 3.8-5.9 7.5zm19.3-3.7c0-2.3 0-4.3-.1-6.1c-.04.04 3 0 3 0l.2 3.9c0 0 .12-.02.1 0c.9-2.6 3.1-4.3 5.4-4.3c.4 0 .7.1 1 .1c0 0 0 3.3 0 3.3c-.4 0-.7 0-1.2 0c-2.5 0-4.3 1.8-4.7 4.4c-.1.5-.2 1.1-.2 1.7c.04-.02 0 10.3 0 10.3l-3.5 0c0 0 .02-13.32 0-13.3zm17.9-10.7l0 4.6l5 0l0 2.7l-5 0c0 0 0 10.46 0 10.5c0 2.4.7 3.7 2.6 3.7c1 0 1.6-.1 2.1-.2c0 0 .1 2.7.1 2.7c-.6.2-1.7.4-3.1.4c-1.6 0-2.9-.5-3.8-1.4c-.9-1.1-1.3-2.8-1.3-5.1c-.04-.02 0-10.6 0-10.6l-3 0l0-2.7l3 0l0-3.6l3.4-1zm16.7-4.4l3.5 0l0 12.2c0 0 .04-.04 0 0c1.3-2.2 3.5-3.6 6.6-3.6c4.9 0 8.2 4 8.2 9.9c0 6.9-4.4 10.3-8.7 10.3c-2.8 0-5-1-6.5-3.6c0 .04-.1 0-.1 0l-.2 3.2c0 0-2.98 0-3 0c.1-1.3.2-3.3.2-5c-.02 0 0-23.4 0-23.4zm3.5 20.6c0 .5 0 .9.1 1.3c.7 2.5 2.7 4.1 5.3 4.1c3.7 0 5.9-3 5.9-7.4c0-3.9-2-7.2-5.8-7.2c-2.4 0-4.6 1.7-5.3 4.3c-.2.5-.2.9-.2 1.5c0 0 0 3.4 0 3.4zm35 2.5c0 2 .1 3.8.2 5.3c0 0-3.1 0-3.1 0l-.2-3.2c0 0-.1.04-.1 0c-.9 1.6-3 3.6-6.4 3.6c-3 0-6.7-1.7-6.7-8.4c.02-.04 0-11.4 0-11.4l3.5 0c0 0 .04 10.72 0 10.7c0 3.7 1.2 6.2 4.4 6.2c2.3 0 4-1.6 4.6-3.2c.2-.5.3-1.1.3-1.8c.02-.02 0-11.9 0-11.9l3.5 0c0 0 .04 14.08 0 14.1zm9.7-18.7l0 4.6l5.1 0l0 2.7l-5.1 0c0 0 .01 10.46 0 10.5c0 2.4.7 3.7 2.7 3.7c.9 0 1.5-.1 2-.2c0 0 .2 2.7.2 2.7c-.7.2-1.8.4-3.2.4c-1.6 0-2.9-.5-3.8-1.4c-.9-1.1-1.3-2.8-1.3-5.1c-.03-.02 0-10.6 0-10.6l-3 0l0-2.7l3 0l0-3.6l3.4-1zm18.7 15c0 4.7 3 6.7 6.6 6.7c2.5 0 4.1-.5 5.4-1c0 0 .6 2.5.6 2.5c-1.2.6-3.4 1.2-6.5 1.2c-5.9 0-9.5-3.9-9.5-9.8c0-5.8 3.4-10.4 9.1-10.4c6.3 0 8 5.6 8 9.1c0 .7-.1 1.3-.1 1.7c0 0-13.6 0-13.6 0zm10.3-2.6c0-2.2-.9-5.6-4.9-5.6c-3.6 0-5.1 3.2-5.4 5.6c0 0 10.3 0 10.3 0zm8.9-7.8c0 0 2.71 4.2 2.7 4.2c.8 1.1 1.4 2 2 3.1c0 0 .1 0 .1 0c.6-1.1 1.3-2.1 2-3.1c-.05-.04 2.6-4.2 2.6-4.2l3.9 0l-6.6 9.4l6.7 10l-3.9 0c0 0-2.91-4.36-2.9-4.4c-.8-1.1-1.4-2.2-2.1-3.3c0 0-.1 0-.1 0c-.6 1.1-1.2 2.2-2 3.3c-.01.04-2.8 4.4-2.8 4.4l-3.9 0l6.9-9.9l-6.6-9.5l4 0zm29.6 18.7c-.9.5-2.9 1.1-5.5 1.1c-5.9 0-9.7-3.9-9.7-9.8c0-6 4.1-10.4 10.4-10.4c2.1 0 4 .6 4.9 1.1c0 0-.8 2.7-.8 2.7c-.8-.5-2.1-1-4.1-1c-4.4 0-6.8 3.4-6.8 7.4c0 4.4 2.9 7.2 6.7 7.2c2 0 3.3-.5 4.3-.9c0 0 .6 2.6.6 2.6zm3.8.7l0-19.4l3.5 0l0 19.4l-3.5 0zm3.9-24.8c0 1.2-.9 2.2-2.3 2.2c-1.2 0-2.1-1-2.1-2.2c0-1.2.9-2.2 2.2-2.2c1.3 0 2.2 1 2.2 2.2zm9.3.8l0 4.6l5 0l0 2.7l-5 0c0 0-.05 10.46 0 10.5c0 2.4.6 3.7 2.6 3.7c1 0 1.5-.1 2-.2c0 0 .2 2.7.2 2.7c-.7.2-1.8.4-3.1.4c-1.7 0-3-.5-3.8-1.4c-1-1.1-1.4-2.8-1.4-5.1c.01-.02 0-10.6 0-10.6l-3 0l0-2.7l3 0l0-3.6l3.5-1zm8.6 24l0-19.4l3.5 0l0 19.4l-3.5 0zm3.9-24.8c0 1.2-.9 2.2-2.3 2.2c-1.2 0-2.1-1-2.1-2.2c0-1.2.9-2.2 2.2-2.2c1.3 0 2.2 1 2.2 2.2zm5 10.7c0-2.1 0-3.7-.1-5.3c-.05.04 3.1 0 3.1 0l.2 3.2c0 0 .05.04.1 0c.9-1.8 3.2-3.6 6.4-3.6c2.6 0 6.8 1.6 6.8 8.3c-.01-.02 0 11.5 0 11.5l-3.5 0c0 0-.03-11.16 0-11.2c0-3.1-1.2-5.7-4.5-5.7c-2.3 0-4.1 1.7-4.7 3.6c-.2.5-.3 1.1-.3 1.7c.03-.04 0 11.6 0 11.6l-3.5 0c0 0 .01-14.12 0-14.1zm38.4 11.3c0 4.4-.9 7.1-2.8 8.8c-1.9 1.8-4.6 2.4-7.1 2.4c-2.3 0-4.8-.6-6.4-1.6c0 0 .9-2.8.9-2.8c1.3.9 3.3 1.6 5.7 1.6c3.6 0 6.2-1.9 6.2-6.8c-.01 0 0-2.1 0-2.1c0 0-.09-.02-.1 0c-1 1.8-3.1 3.2-6.1 3.2c-4.8 0-8.3-4.1-8.3-9.4c0-6.6 4.3-10.3 8.8-10.3c3.3 0 5.1 1.8 6 3.4c.01-.04.1 0 .1 0l.1-3c0 0 3.13.04 3.1 0c-.1 1.4-.1 3-.1 5.3c0 0 0 11.3 0 11.3zm-3.5-8.9c0-.6-.1-1.1-.2-1.6c-.7-2.1-2.4-3.7-5-3.7c-3.3 0-5.7 2.8-5.7 7.3c0 3.8 1.9 6.9 5.7 6.9c2.2 0 4.2-1.3 4.9-3.6c.2-.6.3-1.2.3-1.8c0 0 0-3.5 0-3.5zm34.5 1.9c0 7.1-5 10.2-9.7 10.2c-5.2 0-9.2-3.8-9.2-9.9c0-6.5 4.2-10.3 9.6-10.3c5.5 0 9.3 4.1 9.3 10zm-15.3.2c0 4.2 2.4 7.4 5.8 7.4c3.4 0 5.9-3.2 5.9-7.5c0-3.3-1.7-7.4-5.8-7.4c-4.1 0-5.9 3.8-5.9 7.5zm33.1 8.9c-.9.5-2.9 1.1-5.5 1.1c-5.9 0-9.7-3.9-9.7-9.8c0-6 4.1-10.4 10.4-10.4c2.1 0 3.9.6 4.9 1.1c0 0-.8 2.7-.8 2.7c-.8-.5-2.2-1-4.1-1c-4.4 0-6.8 3.4-6.8 7.4c0 4.4 2.9 7.2 6.7 7.2c2 0 3.3-.5 4.3-.9c0 0 .6 2.6.6 2.6zm5.5-8.3c0 4.7 3 6.7 6.6 6.7c2.5 0 4.1-.5 5.4-1c0 0 .6 2.5.6 2.5c-1.2.6-3.4 1.2-6.5 1.2c-5.9 0-9.5-3.9-9.5-9.8c0-5.8 3.4-10.4 9.1-10.4c6.3 0 8 5.6 8 9.1c0 .7-.1 1.3-.1 1.7c0 0-13.6 0-13.6 0zm10.3-2.6c0-2.2-.9-5.6-4.9-5.6c-3.6 0-5.1 3.2-5.4 5.6c0 0 10.3 0 10.3 0zm20.9 7c0 1.6.1 3.3.3 4.6c.01 0-3.1 0-3.1 0l-.3-2.4c0 0-.15-.04-.1 0c-1.1 1.5-3.2 2.8-6 2.8c-3.9 0-5.9-2.7-5.9-5.5c0-4.7 4.2-7.3 11.7-7.2c0 0 0-.4 0-.4c0-1.6-.5-4.5-4.4-4.5c-1.9 0-3.8.6-5.1 1.5c0 0-.8-2.4-.8-2.4c1.6-1 3.9-1.7 6.4-1.7c5.9 0 7.3 4.1 7.3 7.9c0 0 0 7.3 0 7.3zm-3.4-5.3c-3.8-.1-8.2.6-8.2 4.4c0 2.3 1.6 3.3 3.3 3.3c2.6 0 4.2-1.6 4.8-3.2c.1-.4.1-.8.1-1.1c0 0 0-3.4 0-3.4zm8.7-4.2c0-2.1 0-3.7-.1-5.3c-.05.04 3.1 0 3.1 0l.2 3.2c0 0 .05.04.1 0c.9-1.8 3.2-3.6 6.4-3.6c2.6 0 6.8 1.6 6.8 8.3c-.01-.02 0 11.5 0 11.5l-3.5 0c0 0-.03-11.16 0-11.2c0-3.1-1.2-5.7-4.5-5.7c-2.3 0-4.1 1.7-4.7 3.6c-.2.5-.3 1.1-.3 1.7c.03-.04 0 11.6 0 11.6l-3.5 0c0 0 .01-14.12 0-14.1zm31.3-5.3c0 0 3.75 10.88 3.8 10.9c.6 1.8 1.1 3.4 1.5 5c0 0 .1 0 .1 0c.5-1.6 1-3.2 1.7-5c-.03-.02 3.7-10.9 3.7-10.9l3.7 0l-7.6 19.4l-3.3 0l-7.4-19.4l3.8 0zm34.6 9.6c0 7.1-5 10.2-9.7 10.2c-5.2 0-9.3-3.8-9.3-9.9c0-6.5 4.3-10.3 9.6-10.3c5.6 0 9.4 4.1 9.4 10zm-15.4.2c0 4.2 2.4 7.4 5.9 7.4c3.3 0 5.9-3.2 5.9-7.5c0-3.3-1.7-7.4-5.8-7.4c-4.2 0-6 3.8-6 7.5zm20.4-9.8c0 0 4.19 11.48 4.2 11.5c.5 1.3 1 2.8 1.3 3.9c0 0 .1 0 .1 0c.3-1.1.7-2.6 1.2-4c-.01 0 3.8-11.4 3.8-11.4l3.8 0c0 0-5.33 13.84-5.3 13.8c-2.5 6.7-4.3 10-6.7 12.2c-1.7 1.4-3.4 2-4.3 2.2c0 0-.9-2.9-.9-2.9c.9-.3 2.1-.9 3.1-1.7c1-.8 2.1-2.2 3-4c.1-.3.3-.6.3-.8c0-.2-.1-.5-.3-.9c-.03-.02-7.1-17.9-7.1-17.9l3.8 0zm30.6 14.8c0 1.6.1 3.3.3 4.6c-.03 0-3.2 0-3.2 0l-.3-2.4c0 0-.09-.04-.1 0c-1.1 1.5-3.1 2.8-5.9 2.8c-3.9 0-5.9-2.7-5.9-5.5c0-4.7 4.1-7.3 11.6-7.2c0 0 0-.4 0-.4c0-1.6-.4-4.5-4.4-4.5c-1.8 0-3.7.6-5.1 1.5c0 0-.8-2.4-.8-2.4c1.6-1 4-1.7 6.4-1.7c6 0 7.4 4.1 7.4 7.9c0 0 0 7.3 0 7.3zm-3.4-5.3c-3.8-.1-8.2.6-8.2 4.4c0 2.3 1.5 3.3 3.3 3.3c2.5 0 4.2-1.6 4.7-3.2c.2-.4.2-.8.2-1.1c0 0 0-3.4 0-3.4zm25.2 7.1c0 4.4-.9 7.1-2.7 8.8c-1.9 1.8-4.7 2.4-7.1 2.4c-2.3 0-4.9-.6-6.4-1.6c0 0 .8-2.8.8-2.8c1.3.9 3.3 1.6 5.7 1.6c3.6 0 6.3-1.9 6.3-6.8c-.05 0 0-2.1 0-2.1c0 0-.13-.02-.1 0c-1.1 1.8-3.2 3.2-6.2 3.2c-4.8 0-8.2-4.1-8.2-9.4c0-6.6 4.3-10.3 8.7-10.3c3.4 0 5.2 1.8 6.1 3.4c-.03-.04.1 0 .1 0l.1-3c0 0 3.09.04 3.1 0c-.1 1.4-.2 3-.2 5.3c0 0 0 11.3 0 11.3zm-3.5-8.9c0-.6 0-1.1-.2-1.6c-.6-2.1-2.3-3.7-4.9-3.7c-3.4 0-5.8 2.8-5.8 7.3c0 3.8 2 6.9 5.8 6.9c2.2 0 4.1-1.3 4.8-3.6c.2-.6.3-1.2.3-1.8c0 0 0-3.5 0-3.5zm10.9 2.7c.1 4.7 3.1 6.7 6.6 6.7c2.6 0 4.1-.5 5.4-1c0 0 .6 2.5.6 2.5c-1.2.6-3.4 1.2-6.4 1.2c-6 0-9.6-3.9-9.6-9.8c0-5.8 3.5-10.4 9.1-10.4c6.4 0 8 5.6 8 9.1c0 .7 0 1.3-.1 1.7c0 0-13.6 0-13.6 0zm10.3-2.6c.1-2.2-.9-5.6-4.9-5.6c-3.6 0-5.1 3.2-5.4 5.6c0 0 10.3 0 10.3 0z" stroke="none" fill="#000"/></g><g id="Polygon7066"><path d="m2.9 140l0-19.4l3.5 0l0 19.4l-3.5 0zm3.9-24.8c0 1.2-.8 2.2-2.2 2.2c-1.3 0-2.1-1-2.1-2.2c0-1.2.9-2.2 2.2-2.2c1.3 0 2.1 1 2.1 2.2zm4.6 21.2c1.1.7 2.9 1.4 4.7 1.4c2.5 0 3.7-1.2 3.7-2.9c0-1.7-1-2.5-3.6-3.5c-3.5-1.3-5.1-3.2-5.1-5.5c0-3.1 2.5-5.7 6.7-5.7c1.9 0 3.6.6 4.7 1.2c0 0-.9 2.6-.9 2.6c-.7-.5-2.1-1.2-3.9-1.2c-2.1 0-3.2 1.2-3.2 2.7c0 1.6 1.1 2.3 3.6 3.3c3.3 1.2 5.1 2.9 5.1 5.8c0 3.4-2.7 5.8-7.2 5.8c-2.1 0-4.1-.5-5.4-1.3c0 0 .8-2.7.8-2.7zm24-10.5c0-2.1 0-3.7-.2-5.3c.04.04 3.2 0 3.2 0l.2 3.2c0 0 .04.04 0 0c1-1.8 3.2-3.6 6.4-3.6c2.7 0 6.9 1.6 6.9 8.3c-.02-.02 0 11.5 0 11.5l-3.5 0c0 0-.04-11.16 0-11.2c0-3.1-1.2-5.7-4.5-5.7c-2.3 0-4.1 1.7-4.7 3.6c-.2.5-.3 1.1-.3 1.7c.02-.04 0 11.6 0 11.6l-3.5 0c0 0 0-14.12 0-14.1zm39.3 4.3c0 7.1-5 10.2-9.6 10.2c-5.2 0-9.3-3.8-9.3-9.9c0-6.5 4.3-10.3 9.6-10.3c5.6 0 9.3 4.1 9.3 10zm-15.3.2c0 4.2 2.4 7.4 5.8 7.4c3.4 0 5.9-3.2 5.9-7.5c0-3.3-1.6-7.4-5.8-7.4c-4.1 0-5.9 3.8-5.9 7.5zm23.6-14.4l0 4.6l5 0l0 2.7l-5 0c0 0 0 10.46 0 10.5c0 2.4.7 3.7 2.6 3.7c1 0 1.6-.1 2.1-.2c0 0 .1 2.7.1 2.7c-.6.2-1.7.4-3.1.4c-1.6 0-2.9-.5-3.8-1.4c-.9-1.1-1.3-2.8-1.3-5.1c-.04-.02 0-10.6 0-10.6l-3 0l0-2.7l3 0l0-3.6l3.4-1zm18.6 15c.1 4.7 3.1 6.7 6.7 6.7c2.5 0 4.1-.5 5.3-1c0 0 .7 2.5.7 2.5c-1.3.6-3.4 1.2-6.5 1.2c-6 0-9.5-3.9-9.5-9.8c0-5.8 3.4-10.4 9.1-10.4c6.3 0 8 5.6 8 9.1c0 .7-.1 1.3-.2 1.7c0 0-13.6 0-13.6 0zm10.4-2.6c0-2.2-1-5.6-4.9-5.6c-3.6 0-5.1 3.2-5.4 5.6c0 0 10.3 0 10.3 0zm20.9 7c0 1.6.1 3.3.3 4.6c0 0-3.2 0-3.2 0l-.2-2.4c0 0-.16-.04-.2 0c-1 1.5-3.1 2.8-5.9 2.8c-3.9 0-5.9-2.7-5.9-5.5c0-4.7 4.2-7.3 11.6-7.2c0 0 0-.4 0-.4c0-1.6-.4-4.5-4.4-4.5c-1.8 0-3.7.6-5 1.5c0 0-.8-2.4-.8-2.4c1.6-1 3.9-1.7 6.4-1.7c5.9 0 7.3 4.1 7.3 7.9c0 0 0 7.3 0 7.3zm-3.4-5.3c-3.8-.1-8.2.6-8.2 4.4c0 2.3 1.5 3.3 3.3 3.3c2.6 0 4.2-1.6 4.8-3.2c.1-.4.1-.8.1-1.1c0 0 0-3.4 0-3.4zm8.2 6.3c1.1.7 2.9 1.4 4.7 1.4c2.5 0 3.7-1.2 3.7-2.9c0-1.7-1-2.5-3.5-3.5c-3.6-1.3-5.2-3.2-5.2-5.5c0-3.1 2.6-5.7 6.7-5.7c1.9 0 3.7.6 4.7 1.2c0 0-.8 2.6-.8 2.6c-.8-.5-2.2-1.2-4-1.2c-2.1 0-3.2 1.2-3.2 2.7c0 1.6 1.1 2.3 3.6 3.3c3.4 1.2 5.1 2.9 5.1 5.8c0 3.4-2.7 5.8-7.2 5.8c-2.1 0-4.1-.5-5.4-1.3c0 0 .8-2.7.8-2.7zm17.2-15.8c0 0 4.22 11.48 4.2 11.5c.5 1.3 1 2.8 1.3 3.9c0 0 .1 0 .1 0c.3-1.1.7-2.6 1.2-4c.02 0 3.9-11.4 3.9-11.4l3.7 0c0 0-5.3 13.84-5.3 13.8c-2.5 6.7-4.2 10-6.6 12.2c-1.8 1.4-3.5 2-4.4 2.2c0 0-.8-2.9-.8-2.9c.8-.3 2-.9 3-1.7c1-.8 2.2-2.2 3-4c.2-.3.3-.6.3-.8c0-.2-.1-.5-.3-.9c0-.02-7.1-17.9-7.1-17.9l3.8 0zm29.5-4.6l0 4.6l5 0l0 2.7l-5 0c0 0 0 10.46 0 10.5c0 2.4.7 3.7 2.6 3.7c1 0 1.6-.1 2.1-.2c0 0 .1 2.7.1 2.7c-.6.2-1.7.4-3.1.4c-1.6 0-2.9-.5-3.8-1.4c-.9-1.1-1.3-2.8-1.3-5.1c-.04-.02 0-10.6 0-10.6l-3 0l0-2.7l3 0l0-3.6l3.4-1zm25.9 14.2c0 7.1-5 10.2-9.7 10.2c-5.2 0-9.2-3.8-9.2-9.9c0-6.5 4.2-10.3 9.6-10.3c5.5 0 9.3 4.1 9.3 10zm-15.3.2c0 4.2 2.4 7.4 5.8 7.4c3.4 0 5.9-3.2 5.9-7.5c0-3.3-1.7-7.4-5.8-7.4c-4.1 0-5.9 3.8-5.9 7.5zm44 6.8c0 4.4-1 7.1-2.8 8.8c-1.9 1.8-4.6 2.4-7.1 2.4c-2.3 0-4.9-.6-6.4-1.6c0 0 .9-2.8.9-2.8c1.2.9 3.2 1.6 5.6 1.6c3.6 0 6.3-1.9 6.3-6.8c-.02 0 0-2.1 0-2.1c0 0-.1-.02-.1 0c-1 1.8-3.2 3.2-6.2 3.2c-4.8 0-8.2-4.1-8.2-9.4c0-6.6 4.3-10.3 8.8-10.3c3.3 0 5.1 1.8 6 3.4c0-.04.1 0 .1 0l.1-3c0 0 3.12.04 3.1 0c-.1 1.4-.1 3-.1 5.3c0 0 0 11.3 0 11.3zm-3.6-8.9c0-.6 0-1.1-.2-1.6c-.6-2.1-2.3-3.7-4.9-3.7c-3.3 0-5.7 2.8-5.7 7.3c0 3.8 1.9 6.9 5.7 6.9c2.2 0 4.1-1.3 4.9-3.6c.2-.6.2-1.2.2-1.8c0 0 0-3.5 0-3.5zm10.9 2.7c.1 4.7 3.1 6.7 6.7 6.7c2.5 0 4-.5 5.3-1c0 0 .7 2.5.7 2.5c-1.3.6-3.4 1.2-6.5 1.2c-6 0-9.5-3.9-9.5-9.8c0-5.8 3.4-10.4 9-10.4c6.4 0 8 5.6 8 9.1c0 .7 0 1.3-.1 1.7c0 0-13.6 0-13.6 0zm10.3-2.6c.1-2.2-.9-5.6-4.8-5.6c-3.6 0-5.2 3.2-5.4 5.6c0 0 10.2 0 10.2 0zm11.6-12.4l0 4.6l5.1 0l0 2.7l-5.1 0c0 0 .04 10.46 0 10.5c0 2.4.7 3.7 2.7 3.7c.9 0 1.5-.1 2-.2c0 0 .2 2.7.2 2.7c-.7.2-1.8.4-3.1.4c-1.7 0-3-.5-3.8-1.4c-1-1.1-1.4-2.8-1.4-5.1c0-.02 0-10.6 0-10.6l-3 0l0-2.7l3 0l0-3.6l3.4-1zm21 0l0 4.6l5 0l0 2.7l-5 0c0 0-.05 10.46 0 10.5c0 2.4.6 3.7 2.6 3.7c1 0 1.5-.1 2-.2c0 0 .2 2.7.2 2.7c-.7.2-1.8.4-3.1.4c-1.7 0-3-.5-3.8-1.4c-1-1.1-1.4-2.8-1.4-5.1c.01-.02 0-10.6 0-10.6l-3 0l0-2.7l3 0l0-3.6l3.5-1zm25.8 14.2c0 7.1-5 10.2-9.6 10.2c-5.2 0-9.3-3.8-9.3-9.9c0-6.5 4.3-10.3 9.6-10.3c5.6 0 9.3 4.1 9.3 10zm-15.3.2c0 4.2 2.4 7.4 5.9 7.4c3.3 0 5.8-3.2 5.8-7.5c0-3.3-1.6-7.4-5.8-7.4c-4.1 0-5.9 3.8-5.9 7.5zm55.9-1.8l0 2.4l-37.6 0l0-2.4l37.6 0zm4.8-8c0 0 4.15 11.48 4.2 11.5c.4 1.3.9 2.8 1.2 3.9c0 0 .1 0 .1 0c.4-1.1.8-2.6 1.3-4c-.05 0 3.8-11.4 3.8-11.4l3.7 0c0 0-5.27 13.84-5.3 13.8c-2.5 6.7-4.2 10-6.6 12.2c-1.8 1.4-3.4 2-4.3 2.2c0 0-.9-2.9-.9-2.9c.9-.3 2-.9 3.1-1.7c.9-.8 2.1-2.2 2.9-4c.2-.3.3-.6.3-.8c0-.2-.1-.5-.3-.9c.03-.02-7.1-17.9-7.1-17.9l3.9 0zm34.2 9.6c0 7.1-5 10.2-9.6 10.2c-5.2 0-9.3-3.8-9.3-9.9c0-6.5 4.3-10.3 9.6-10.3c5.6 0 9.3 4.1 9.3 10zm-15.3.2c0 4.2 2.4 7.4 5.9 7.4c3.3 0 5.8-3.2 5.8-7.5c0-3.3-1.6-7.4-5.8-7.4c-4.1 0-5.9 3.8-5.9 7.5zm35.6 4.3c0 2 0 3.8.1 5.3c.03 0-3.1 0-3.1 0l-.2-3.2c0 0-.07.04-.1 0c-.8 1.6-2.9 3.6-6.4 3.6c-3 0-6.6-1.7-6.6-8.4c-.05-.04 0-11.4 0-11.4l3.5 0c0 0-.03 10.72 0 10.7c0 3.7 1.1 6.2 4.3 6.2c2.4 0 4-1.6 4.6-3.2c.2-.5.4-1.1.4-1.8c-.05-.02 0-11.9 0-11.9l3.5 0c0 0-.03 14.08 0 14.1zm27.3 4.6c-.9.5-3 1.1-5.6 1.1c-5.8 0-9.6-3.9-9.6-9.8c0-6 4.1-10.4 10.4-10.4c2.1 0 3.9.6 4.9 1.1c0 0-.8 2.7-.8 2.7c-.9-.5-2.2-1-4.1-1c-4.4 0-6.8 3.4-6.8 7.4c0 4.4 2.8 7.2 6.7 7.2c2 0 3.3-.5 4.3-.9c0 0 .6 2.6.6 2.6zm17.3-3.9c0 1.6.1 3.3.3 4.6c-.01 0-3.2 0-3.2 0l-.2-2.4c0 0-.17-.04-.2 0c-1 1.5-3.1 2.8-5.9 2.8c-3.9 0-5.9-2.7-5.9-5.5c0-4.7 4.2-7.3 11.6-7.2c0 0 0-.4 0-.4c0-1.6-.4-4.5-4.4-4.5c-1.8 0-3.7.6-5 1.5c0 0-.8-2.4-.8-2.4c1.6-1 3.9-1.7 6.4-1.7c5.9 0 7.3 4.1 7.3 7.9c0 0 0 7.3 0 7.3zm-3.4-5.3c-3.8-.1-8.2.6-8.2 4.4c0 2.3 1.5 3.3 3.3 3.3c2.6 0 4.2-1.6 4.8-3.2c.1-.4.1-.8.1-1.1c0 0 0-3.4 0-3.4zm8.7-4.2c0-2.1 0-3.7-.2-5.3c.03.04 3.2 0 3.2 0l.2 3.2c0 0 .03.04 0 0c1-1.8 3.2-3.6 6.4-3.6c2.7 0 6.9 1.6 6.9 8.3c-.03-.02 0 11.5 0 11.5l-3.5 0c0 0-.05-11.16 0-11.2c0-3.1-1.2-5.7-4.5-5.7c-2.3 0-4.1 1.7-4.7 3.6c-.2.5-.3 1.1-.3 1.7c.01-.04 0 11.6 0 11.6l-3.5 0c0 0-.01-14.12 0-14.1zm24.9-13.6c-.9 3.4-2.7 7.7-3.7 9.5c0 0-2.3.3-2.3.3c.9-2.4 1.9-6.5 2.4-9.4c0 0 3.6-.4 3.6-.4zm7.3 3.7l0 4.6l5 0l0 2.7l-5 0c0 0-.05 10.46 0 10.5c0 2.4.6 3.7 2.6 3.7c1 0 1.5-.1 2-.2c0 0 .2 2.7.2 2.7c-.7.2-1.8.4-3.1.4c-1.7 0-3-.5-3.8-1.4c-1-1.1-1.4-2.8-1.4-5.1c.01-.02 0-10.6 0-10.6l-3 0l0-2.7l3 0l0-3.6l3.5-1zm33.3-4.4c0 0 .01 23.4 0 23.4c0 1.7.1 3.7.2 5c-.03 0-3.1 0-3.1 0l-.2-3.4c0 0-.13.04-.1 0c-1.1 2.2-3.4 3.8-6.5 3.8c-4.7 0-8.4-3.9-8.4-9.8c0-6.4 4-10.4 8.7-10.4c3 0 5 1.4 5.9 3c-.05-.04 0 0 0 0l0-11.6l3.5 0zm-3.5 16.9c0-.4 0-1-.1-1.5c-.5-2.2-2.5-4-5.1-4c-3.6 0-5.8 3.2-5.8 7.4c0 4 2 7.2 5.7 7.2c2.4 0 4.5-1.6 5.2-4.2c.1-.5.1-1 .1-1.5c0 0 0-3.4 0-3.4zm9-1.8c0-2.3 0-4.3-.2-6.1c.03.04 3.1 0 3.1 0l.2 3.9c0 0 .09-.02.1 0c.9-2.6 3-4.3 5.4-4.3c.4 0 .6.1 1 .1c0 0 0 3.3 0 3.3c-.4 0-.8 0-1.2 0c-2.5 0-4.3 1.8-4.8 4.4c0 .5-.1 1.1-.1 1.7c.01-.02 0 10.3 0 10.3l-3.5 0c0 0-.01-13.32 0-13.3zm12.8 13.3l0-19.4l3.6 0l0 19.4l-3.6 0zm4-24.8c0 1.2-.9 2.2-2.3 2.2c-1.3 0-2.1-1-2.1-2.2c0-1.2.9-2.2 2.2-2.2c1.3 0 2.2 1 2.2 2.2zm6.4 5.4c0 0 3.75 10.88 3.8 10.9c.6 1.8 1.1 3.4 1.5 5c0 0 .1 0 .1 0c.5-1.6 1-3.2 1.7-5c-.03-.02 3.7-10.9 3.7-10.9l3.7 0l-7.6 19.4l-3.3 0l-7.4-19.4l3.8 0zm19 10.4c.1 4.7 3.1 6.7 6.6 6.7c2.6 0 4.1-.5 5.4-1c0 0 .6 2.5.6 2.5c-1.2.6-3.4 1.2-6.4 1.2c-6 0-9.6-3.9-9.6-9.8c0-5.8 3.5-10.4 9.1-10.4c6.4 0 8 5.6 8 9.1c0 .7 0 1.3-.1 1.7c0 0-13.6 0-13.6 0zm10.3-2.6c.1-2.2-.9-5.6-4.9-5.6c-3.6 0-5.1 3.2-5.4 5.6c0 0 10.3 0 10.3 0zm19.7-12.4l0 4.6l5 0l0 2.7l-5 0c0 0-.01 10.46 0 10.5c0 2.4.7 3.7 2.6 3.7c1 0 1.6-.1 2.1-.2c0 0 .1 2.7.1 2.7c-.6.2-1.7.4-3.1.4c-1.6 0-2.9-.5-3.8-1.4c-.9-1.1-1.3-2.8-1.3-5.1c-.05-.02 0-10.6 0-10.6l-3 0l0-2.7l3 0l0-3.6l3.4-1zm25.9 14.2c0 7.1-5 10.2-9.7 10.2c-5.2 0-9.2-3.8-9.2-9.9c0-6.5 4.2-10.3 9.6-10.3c5.5 0 9.3 4.1 9.3 10zm-15.3.2c0 4.2 2.4 7.4 5.8 7.4c3.4 0 5.9-3.2 5.9-7.5c0-3.3-1.7-7.4-5.8-7.4c-4.1 0-5.9 3.8-5.9 7.5zm31.6-14.4l0 4.6l5.1 0l0 2.7l-5.1 0c0 0 .03 10.46 0 10.5c0 2.4.7 3.7 2.7 3.7c.9 0 1.5-.1 2-.2c0 0 .2 2.7.2 2.7c-.7.2-1.8.4-3.1.4c-1.7 0-3-.5-3.8-1.4c-1-1.1-1.4-2.8-1.4-5.1c-.01-.02 0-10.6 0-10.6l-3 0l0-2.7l3 0l0-3.6l3.4-1zm8.6-4.4l3.6 0l0 12.1c0 0 .03.02 0 0c.6-1 1.5-1.9 2.6-2.5c1-.6 2.2-1 3.6-1c2.6 0 6.7 1.6 6.7 8.3c.01-.02 0 11.5 0 11.5l-3.5 0c0 0-.01-11.12 0-11.1c0-3.1-1.2-5.7-4.5-5.7c-2.3 0-4 1.6-4.7 3.4c-.2.6-.2 1.1-.2 1.7c-.05.02 0 11.7 0 11.7l-3.6 0l0-28.4zm23.8 19.4c.1 4.7 3.1 6.7 6.6 6.7c2.6 0 4.1-.5 5.4-1c0 0 .6 2.5.6 2.5c-1.2.6-3.4 1.2-6.4 1.2c-6 0-9.6-3.9-9.6-9.8c0-5.8 3.5-10.4 9.1-10.4c6.4 0 8 5.6 8 9.1c0 .7 0 1.3-.1 1.7c0 0-13.6 0-13.6 0zm10.3-2.6c.1-2.2-.9-5.6-4.9-5.6c-3.6 0-5.1 3.2-5.4 5.6c0 0 10.3 0 10.3 0z" stroke="none" fill="#000"/></g><g id="Polygon7065"><path d="m3 68l14.5 0l0 3l-11 0l0 8.9l10.2 0l0 2.9l-10.2 0l0 12.2l-3.5 0l0-27zm19.7 18c.1 4.7 3.1 6.7 6.7 6.7c2.5 0 4-.5 5.3-1c0 0 .7 2.5.7 2.5c-1.3.6-3.4 1.2-6.5 1.2c-6 0-9.5-3.9-9.5-9.8c0-5.8 3.4-10.4 9-10.4c6.4 0 8 5.6 8 9.1c0 .7 0 1.3-.1 1.7c0 0-13.6 0-13.6 0zm10.3-2.6c.1-2.2-.9-5.6-4.8-5.6c-3.6 0-5.2 3.2-5.4 5.6c0 0 10.2 0 10.2 0zm8.8-7.8c0 0 2.6 9.88 2.6 9.9c.5 2.1 1 4.1 1.4 6.1c0 0 .1 0 .1 0c.5-1.9 1.1-4 1.7-6.1c.04.02 3.2-9.9 3.2-9.9l3 0c0 0 2.96 9.72 3 9.7c.7 2.3 1.2 4.4 1.7 6.3c0 0 .1 0 .1 0c.3-1.9.8-4 1.5-6.2c-.02-.04 2.7-9.8 2.7-9.8l3.5 0l-6.2 19.4l-3.2 0c0 0-2.98-9.24-3-9.2c-.7-2.2-1.2-4.1-1.7-6.4c0 0-.1 0-.1 0c-.5 2.3-1.1 4.3-1.7 6.4c-.04 0-3.2 9.2-3.2 9.2l-3.2 0l-5.8-19.4l3.6 0zm35.7 6.4c0-2.5-.1-4.5-.1-6.4c-.04.04 3.1 0 3.1 0l.2 3.4c0 0 .06-.04.1 0c1.4-2.4 3.7-3.8 6.8-3.8c4.8 0 8.3 4 8.3 9.8c0 7-4.3 10.4-8.9 10.4c-2.5 0-4.8-1.1-5.9-3c-.02 0-.1 0-.1 0l0 10.5l-3.5 0c0 0 .02-20.94 0-20.9zm3.5 5.1c0 .5 0 1 .2 1.5c.6 2.4 2.7 4.1 5.2 4.1c3.8 0 5.9-3.1 5.9-7.5c0-3.8-2-7.2-5.7-7.2c-2.4 0-4.7 1.7-5.4 4.4c-.1.4-.2.9-.2 1.4c0 0 0 3.3 0 3.3zm20.8-1.1c.1 4.7 3.1 6.7 6.7 6.7c2.5 0 4.1-.5 5.3-1c0 0 .7 2.5.7 2.5c-1.3.6-3.4 1.2-6.5 1.2c-6 0-9.5-3.9-9.5-9.8c0-5.8 3.4-10.4 9.1-10.4c6.3 0 8 5.6 8 9.1c0 .7-.1 1.3-.2 1.7c0 0-13.6 0-13.6 0zm10.4-2.6c0-2.2-1-5.6-4.9-5.6c-3.6 0-5.1 3.2-5.4 5.6c0 0 10.3 0 10.3 0zm24.8 1.8c0 7.1-5 10.2-9.6 10.2c-5.2 0-9.3-3.8-9.3-9.9c0-6.5 4.3-10.3 9.6-10.3c5.6 0 9.3 4.1 9.3 10zm-15.3.2c0 4.2 2.4 7.4 5.9 7.4c3.3 0 5.8-3.2 5.8-7.5c0-3.3-1.6-7.4-5.8-7.4c-4.1 0-5.9 3.8-5.9 7.5zm19.4-3.4c0-2.5-.1-4.5-.2-6.4c.02.04 3.1 0 3.1 0l.2 3.4c0 0 .12-.04.1 0c1.4-2.4 3.7-3.8 6.9-3.8c4.7 0 8.2 4 8.2 9.8c0 7-4.2 10.4-8.8 10.4c-2.6 0-4.8-1.1-6-3c.04 0 0 0 0 0l0 10.5l-3.5 0c0 0-.02-20.94 0-20.9zm3.5 5.1c0 .5 0 1 .1 1.5c.7 2.4 2.8 4.1 5.3 4.1c3.7 0 5.9-3.1 5.9-7.5c0-3.8-2.1-7.2-5.8-7.2c-2.4 0-4.7 1.7-5.3 4.4c-.1.4-.2.9-.2 1.4c0 0 0 3.3 0 3.3zm18.8-20.5l3.6 0l0 28.4l-3.6 0l0-28.4zm11 19.4c.1 4.7 3.1 6.7 6.7 6.7c2.5 0 4.1-.5 5.3-1c0 0 .7 2.5.7 2.5c-1.3.6-3.4 1.2-6.5 1.2c-6 0-9.5-3.9-9.5-9.8c0-5.8 3.4-10.4 9.1-10.4c6.3 0 8 5.6 8 9.1c0 .7-.1 1.3-.2 1.7c0 0-13.6 0-13.6 0zm10.4-2.6c0-2.2-1-5.6-4.9-5.6c-3.6 0-5.1 3.2-5.4 5.6c0 0 10.3 0 10.3 0zm29 7c0 1.6.1 3.3.3 4.6c-.02 0-3.2 0-3.2 0l-.3-2.4c0 0-.08-.04-.1 0c-1.1 1.5-3.1 2.8-5.9 2.8c-3.9 0-5.9-2.7-5.9-5.5c0-4.7 4.1-7.3 11.6-7.2c0 0 0-.4 0-.4c0-1.6-.4-4.5-4.4-4.5c-1.8 0-3.7.6-5.1 1.5c0 0-.8-2.4-.8-2.4c1.6-1 4-1.7 6.4-1.7c6 0 7.4 4.1 7.4 7.9c0 0 0 7.3 0 7.3zm-3.4-5.3c-3.8-.1-8.2.6-8.2 4.4c0 2.3 1.5 3.3 3.3 3.3c2.5 0 4.2-1.6 4.7-3.2c.2-.4.2-.8.2-1.1c0 0 0-3.4 0-3.4zm22.5 9.2c-.9.5-3 1.1-5.6 1.1c-5.8 0-9.6-3.9-9.6-9.8c0-6 4.1-10.4 10.4-10.4c2.1 0 3.9.6 4.9 1.1c0 0-.8 2.7-.8 2.7c-.9-.5-2.2-1-4.1-1c-4.5 0-6.9 3.4-6.9 7.4c0 4.4 2.9 7.2 6.8 7.2c2 0 3.3-.5 4.3-.9c0 0 .6 2.6.6 2.6zm8.5-23.3l0 4.6l5 0l0 2.7l-5 0c0 0-.04 10.46 0 10.5c0 2.4.6 3.7 2.6 3.7c1 0 1.5-.1 2-.2c0 0 .2 2.7.2 2.7c-.7.2-1.8.4-3.1.4c-1.7 0-3-.5-3.8-1.4c-1-1.1-1.4-2.8-1.4-5.1c.02-.02 0-10.6 0-10.6l-3 0l0-2.7l3 0l0-3.6l3.5-1zm24.8 18.7c0 2 0 3.8.1 5.3c.02 0-3.1 0-3.1 0l-.2-3.2c0 0-.08.04-.1 0c-.9 1.6-2.9 3.6-6.4 3.6c-3 0-6.7-1.7-6.7-8.4c.04-.04 0-11.4 0-11.4l3.6 0c0 0-.04 10.72 0 10.7c0 3.7 1.1 6.2 4.3 6.2c2.3 0 4-1.6 4.6-3.2c.2-.5.3-1.1.3-1.8c.04-.02 0-11.9 0-11.9l3.6 0c0 0-.04 14.08 0 14.1zm19 .7c0 1.6.1 3.3.3 4.6c-.02 0-3.2 0-3.2 0l-.3-2.4c0 0-.08-.04-.1 0c-1.1 1.5-3.1 2.8-5.9 2.8c-3.9 0-5.9-2.7-5.9-5.5c0-4.7 4.1-7.3 11.6-7.2c0 0 0-.4 0-.4c0-1.6-.4-4.5-4.4-4.5c-1.8 0-3.7.6-5.1 1.5c0 0-.8-2.4-.8-2.4c1.6-1 4-1.7 6.4-1.7c6 0 7.4 4.1 7.4 7.9c0 0 0 7.3 0 7.3zm-3.4-5.3c-3.8-.1-8.2.6-8.2 4.4c0 2.3 1.5 3.3 3.3 3.3c2.5 0 4.2-1.6 4.7-3.2c.2-.4.2-.8.2-1.1c0 0 0-3.4 0-3.4zm8.7-18.5l3.5 0l0 28.4l-3.5 0l0-28.4zm9 0l3.5 0l0 28.4l-3.5 0l0-28.4zm10.3 9c0 0 4.23 11.48 4.2 11.5c.5 1.3 1 2.8 1.3 3.9c0 0 .1 0 .1 0c.4-1.1.8-2.6 1.2-4c.03 0 3.9-11.4 3.9-11.4l3.7 0c0 0-5.29 13.84-5.3 13.8c-2.5 6.7-4.2 10-6.6 12.2c-1.8 1.4-3.5 2-4.3 2.2c0 0-.9-2.9-.9-2.9c.9-.3 2-.9 3.1-1.7c.9-.8 2.1-2.2 2.9-4c.2-.3.3-.6.3-.8c0-.2-.1-.5-.3-.9c.01-.02-7.1-17.9-7.1-17.9l3.8 0zm24.8 15.8c1.1.7 2.9 1.4 4.7 1.4c2.5 0 3.7-1.2 3.7-2.9c0-1.7-1-2.5-3.6-3.5c-3.5-1.3-5.1-3.2-5.1-5.5c0-3.1 2.5-5.7 6.7-5.7c1.9 0 3.6.6 4.7 1.2c0 0-.9 2.6-.9 2.6c-.7-.5-2.1-1.2-3.9-1.2c-2.1 0-3.2 1.2-3.2 2.7c0 1.6 1.1 2.3 3.6 3.3c3.3 1.2 5.1 2.9 5.1 5.8c0 3.4-2.7 5.8-7.2 5.8c-2.1 0-4.1-.5-5.4-1.3c0 0 .8-2.7.8-2.7zm17.9-5.4c.1 4.7 3.1 6.7 6.6 6.7c2.5 0 4.1-.5 5.4-1c0 0 .6 2.5.6 2.5c-1.2.6-3.4 1.2-6.5 1.2c-5.9 0-9.5-3.9-9.5-9.8c0-5.8 3.5-10.4 9.1-10.4c6.4 0 8 5.6 8 9.1c0 .7 0 1.3-.1 1.7c0 0-13.6 0-13.6 0zm10.3-2.6c0-2.2-.9-5.6-4.9-5.6c-3.6 0-5.1 3.2-5.4 5.6c0 0 10.3 0 10.3 0zm9.3 2.6c.1 4.7 3.1 6.7 6.7 6.7c2.5 0 4-.5 5.3-1c0 0 .7 2.5.7 2.5c-1.3.6-3.4 1.2-6.5 1.2c-6 0-9.5-3.9-9.5-9.8c0-5.8 3.4-10.4 9-10.4c6.4 0 8 5.6 8 9.1c0 .7 0 1.3-.1 1.7c0 0-13.6 0-13.6 0zm10.3-2.6c.1-2.2-.9-5.6-4.8-5.6c-3.6 0-5.2 3.2-5.4 5.6c0 0 10.2 0 10.2 0zm19.7-12.4l0 4.6l5.1 0l0 2.7l-5.1 0c0 0 .01 10.46 0 10.5c0 2.4.7 3.7 2.7 3.7c.9 0 1.5-.1 2-.2c0 0 .2 2.7.2 2.7c-.7.2-1.8.4-3.2.4c-1.6 0-2.9-.5-3.8-1.4c-.9-1.1-1.3-2.8-1.3-5.1c-.03-.02 0-10.6 0-10.6l-3 0l0-2.7l3 0l0-3.6l3.4-1zm8.6-4.4l3.5 0l0 12.1c0 0 .11.02.1 0c.6-1 1.5-1.9 2.5-2.5c1.1-.6 2.3-1 3.6-1c2.6 0 6.8 1.6 6.8 8.3c-.01-.02 0 11.5 0 11.5l-3.5 0c0 0-.03-11.12 0-11.1c0-3.1-1.2-5.7-4.5-5.7c-2.3 0-4 1.6-4.7 3.4c-.2.6-.3 1.1-.3 1.7c.03.02 0 11.7 0 11.7l-3.5 0l0-28.4zm21.8 28.4l0-19.4l3.5 0l0 19.4l-3.5 0zm3.9-24.8c0 1.2-.8 2.2-2.2 2.2c-1.3 0-2.1-1-2.1-2.2c0-1.2.9-2.2 2.2-2.2c1.3 0 2.1 1 2.1 2.2zm4.6 21.2c1.1.7 2.9 1.4 4.7 1.4c2.5 0 3.7-1.2 3.7-2.9c0-1.7-1-2.5-3.6-3.5c-3.5-1.3-5.1-3.2-5.1-5.5c0-3.1 2.5-5.7 6.7-5.7c1.9 0 3.6.6 4.7 1.2c0 0-.9 2.6-.9 2.6c-.7-.5-2.1-1.2-3.9-1.2c-2.1 0-3.2 1.2-3.2 2.7c0 1.6 1.1 2.3 3.6 3.3c3.3 1.2 5.1 2.9 5.1 5.8c0 3.4-2.7 5.8-7.2 5.8c-2.1 0-4.1-.5-5.4-1.3c0 0 .8-2.7.8-2.7zm24-9.4c0-2.5-.1-4.5-.2-6.4c.03.04 3.2 0 3.2 0l.2 3.4c0 0 .03-.04 0 0c1.4-2.4 3.8-3.8 6.9-3.8c4.7 0 8.3 4 8.3 9.8c0 7-4.3 10.4-8.9 10.4c-2.5 0-4.8-1.1-5.9-3c-.05 0-.1 0-.1 0l0 10.5l-3.5 0c0 0-.01-20.94 0-20.9zm3.5 5.1c0 .5 0 1 .1 1.5c.7 2.4 2.8 4.1 5.3 4.1c3.7 0 5.9-3.1 5.9-7.5c0-3.8-2-7.2-5.8-7.2c-2.4 0-4.6 1.7-5.3 4.4c-.1.4-.2.9-.2 1.4c0 0 0 3.3 0 3.3zm32.5 3.3c0 1.6 0 3.3.2 4.6c.03 0-3.1 0-3.1 0l-.3-2.4c0 0-.13-.04-.1 0c-1.1 1.5-3.2 2.8-5.9 2.8c-4 0-6-2.7-6-5.5c0-4.7 4.2-7.3 11.7-7.2c0 0 0-.4 0-.4c0-1.6-.5-4.5-4.4-4.5c-1.9 0-3.7.6-5.1 1.5c0 0-.8-2.4-.8-2.4c1.6-1 4-1.7 6.4-1.7c5.9 0 7.4 4.1 7.4 7.9c0 0 0 7.3 0 7.3zm-3.4-5.3c-3.9-.1-8.2.6-8.2 4.4c0 2.3 1.5 3.3 3.2 3.3c2.6 0 4.2-1.6 4.8-3.2c.1-.4.2-.8.2-1.1c0 0 0-3.4 0-3.4zm8.6-3.4c0-2.3 0-4.3-.1-6.1c-.03.04 3.1 0 3.1 0l.1 3.9c0 0 .13-.02.1 0c.9-2.6 3.1-4.3 5.4-4.3c.4 0 .7.1 1 .1c0 0 0 3.3 0 3.3c-.4 0-.7 0-1.2 0c-2.5 0-4.2 1.8-4.7 4.4c-.1.5-.1 1.1-.1 1.7c-.05-.02 0 10.3 0 10.3l-3.6 0c0 0 .03-13.32 0-13.3zm16.4 2.8c0 0 .03.02 0 0c.5-.7 1.2-1.5 1.7-2.2c.01.02 5.7-6.7 5.7-6.7l4.2 0l-7.4 8l8.5 11.4l-4.3 0l-6.6-9.3l-1.8 2l0 7.3l-3.5 0l0-28.4l3.5 0l0 17.9zm22.9-17.9l3.5 0l0 12.2c0 0 .07-.04.1 0c1.2-2.2 3.4-3.6 6.6-3.6c4.8 0 8.2 4 8.2 9.9c0 6.9-4.4 10.3-8.8 10.3c-2.8 0-5-1-6.5-3.6c.03.04-.1 0-.1 0l-.2 3.2c0 0-2.95 0-3 0c.1-1.3.2-3.3.2-5c.01 0 0-23.4 0-23.4zm3.5 20.6c0 .5 0 .9.1 1.3c.7 2.5 2.8 4.1 5.3 4.1c3.7 0 5.9-3 5.9-7.4c0-3.9-2-7.2-5.8-7.2c-2.4 0-4.6 1.7-5.3 4.3c-.1.5-.2.9-.2 1.5c0 0 0 3.4 0 3.4zm20.8-1.2c.1 4.7 3.1 6.7 6.7 6.7c2.5 0 4-.5 5.3-1c0 0 .7 2.5.7 2.5c-1.3.6-3.4 1.2-6.5 1.2c-6 0-9.5-3.9-9.5-9.8c0-5.8 3.4-10.4 9-10.4c6.4 0 8 5.6 8 9.1c0 .7 0 1.3-.1 1.7c0 0-13.6 0-13.6 0zm10.3-2.6c.1-2.2-.9-5.6-4.8-5.6c-3.6 0-5.2 3.2-5.4 5.6c0 0 10.2 0 10.2 0zm21.2 10.9c-.9.5-3 1.1-5.6 1.1c-5.8 0-9.6-3.9-9.6-9.8c0-6 4.1-10.4 10.4-10.4c2.1 0 3.9.6 4.9 1.1c0 0-.8 2.7-.8 2.7c-.9-.5-2.2-1-4.1-1c-4.4 0-6.8 3.4-6.8 7.4c0 4.4 2.8 7.2 6.7 7.2c2 0 3.3-.5 4.3-.9c0 0 .6 2.6.6 2.6zm17.3-3.9c0 1.6.1 3.3.3 4.6c.01 0-3.2 0-3.2 0l-.2-2.4c0 0-.15-.04-.2 0c-1 1.5-3.1 2.8-5.9 2.8c-3.9 0-5.9-2.7-5.9-5.5c0-4.7 4.2-7.3 11.6-7.2c0 0 0-.4 0-.4c0-1.6-.4-4.5-4.4-4.5c-1.8 0-3.7.6-5 1.5c0 0-.8-2.4-.8-2.4c1.6-1 3.9-1.7 6.4-1.7c5.9 0 7.3 4.1 7.3 7.9c0 0 0 7.3 0 7.3zm-3.4-5.3c-3.8-.1-8.2.6-8.2 4.4c0 2.3 1.5 3.3 3.3 3.3c2.6 0 4.2-1.6 4.8-3.2c.1-.4.1-.8.1-1.1c0 0 0-3.4 0-3.4zm24.9 4.6c0 2 0 3.8.2 5.3c-.03 0-3.2 0-3.2 0l-.2-3.2c0 0-.03.04 0 0c-.9 1.6-3 3.6-6.4 3.6c-3.1 0-6.7-1.7-6.7-8.4c-.01-.04 0-11.4 0-11.4l3.5 0c0 0 .01 10.72 0 10.7c0 3.7 1.2 6.2 4.3 6.2c2.4 0 4-1.6 4.7-3.2c.2-.5.3-1.1.3-1.8c-.01-.02 0-11.9 0-11.9l3.5 0c0 0 .01 14.08 0 14.1zm5 1.7c1 .7 2.9 1.4 4.6 1.4c2.6 0 3.8-1.2 3.8-2.9c0-1.7-1-2.5-3.6-3.5c-3.5-1.3-5.2-3.2-5.2-5.5c0-3.1 2.6-5.7 6.7-5.7c2 0 3.7.6 4.7 1.2c0 0-.8 2.6-.8 2.6c-.8-.5-2.2-1.2-4-1.2c-2 0-3.2 1.2-3.2 2.7c0 1.6 1.2 2.3 3.7 3.3c3.3 1.2 5.1 2.9 5.1 5.8c0 3.4-2.7 5.8-7.2 5.8c-2.2 0-4.1-.5-5.5-1.3c0 0 .9-2.7.9-2.7zm17.8-5.4c.1 4.7 3.1 6.7 6.7 6.7c2.5 0 4.1-.5 5.3-1c0 0 .7 2.5.7 2.5c-1.3.6-3.4 1.2-6.5 1.2c-6 0-9.5-3.9-9.5-9.8c0-5.8 3.4-10.4 9.1-10.4c6.3 0 8 5.6 8 9.1c0 .7-.1 1.3-.2 1.7c0 0-13.6 0-13.6 0zm10.4-2.6c0-2.2-1-5.6-4.9-5.6c-3.6 0-5.1 3.2-5.4 5.6c0 0 10.3 0 10.3 0zm15.4 11.6l0-19.4l3.5 0l0 19.4l-3.5 0zm3.9-24.8c0 1.2-.8 2.2-2.2 2.2c-1.3 0-2.1-1-2.1-2.2c0-1.2.8-2.2 2.2-2.2c1.2 0 2.1 1 2.1 2.2zm9.3.8l0 4.6l5 0l0 2.7l-5 0c0 0 .01 10.46 0 10.5c0 2.4.7 3.7 2.6 3.7c1 0 1.6-.1 2.1-.2c0 0 .1 2.7.1 2.7c-.6.2-1.7.4-3.1.4c-1.6 0-2.9-.5-3.8-1.4c-.9-1.1-1.3-2.8-1.3-5.1c-.03-.02 0-10.6 0-10.6l-3 0l0-2.7l3 0l0-3.6l3.4-1z" stroke="none" fill="#000"/></g><g id="Polygon7064"><path d="m25.2 28.8c-1.9.6-5.5 1.5-9 1.5c-5 0-8.5-1.3-11-3.6c-2.4-2.4-3.8-5.9-3.8-9.9c0-8.9 6.6-14 15.4-14c3.5 0 6.2.6 7.5 1.2c0 0-1.3 5-1.3 5c-1.5-.7-3.3-1.2-6.2-1.2c-5.1 0-9 2.8-9 8.7c0 5.6 3.5 8.9 8.5 8.9c1.4 0 2.5-.2 3-.4c-.02 0 0-5.7 0-5.7l-4.2 0l0-4.7l10.1 0c0 0-.04 14.16 0 14.2zm9.4-6.6c.2 2.5 2.7 3.7 5.6 3.7c2 0 3.7-.3 5.4-.9c0 0 .8 4.2.8 4.2c-2 .8-4.5 1.2-7.1 1.2c-6.7 0-10.5-3.8-10.5-10c0-4.9 3.1-10.4 9.9-10.4c6.3 0 8.7 4.9 8.7 9.8c0 1-.1 1.9-.2 2.4c0 0-12.6 0-12.6 0zm7.2-4.2c0-1.5-.6-4-3.4-4c-2.6 0-3.6 2.4-3.8 4c0 0 7.2 0 7.2 0zm16.1-12.8l0 5.2l4.3 0l0 4.5l-4.3 0c0 0-.02 7.1 0 7.1c0 2.4.6 3.4 2.4 3.4c.8 0 1.2 0 1.8-.1c0 0 0 4.6 0 4.6c-.7.3-2.2.5-3.9.5c-2 0-3.6-.7-4.6-1.7c-1.1-1.1-1.7-3-1.7-5.8c.02.02 0-8 0-8l-2.6 0l0-4.5l2.6 0l0-3.6l6-1.6zm14.7 0l0 5.2l4.3 0l0 4.5l-4.3 0c0 0-.04 7.1 0 7.1c0 2.4.6 3.4 2.4 3.4c.8 0 1.2 0 1.8-.1c0 0 0 4.6 0 4.6c-.8.3-2.2.5-3.9.5c-2 0-3.6-.7-4.6-1.7c-1.1-1.1-1.7-3-1.7-5.8c0 .02 0-8 0-8l-2.6 0l0-4.5l2.6 0l0-3.6l6-1.6zm7.8 24.8l0-19.6l6.1 0l0 19.6l-6.1 0zm6.3-25c0 1.7-1.2 3-3.3 3c-1.9 0-3.1-1.3-3.1-3c0-1.7 1.3-3 3.2-3c2 0 3.2 1.3 3.2 3zm4.7 11.7c0-2.5-.1-4.5-.2-6.3c.04.04 5.3 0 5.3 0l.3 2.8c0 0 .12-.04.1 0c.8-1.3 2.8-3.2 6.1-3.2c4 0 7 2.7 7 8.4c-.04.04 0 11.6 0 11.6l-6.1 0c0 0-.02-10.84 0-10.8c0-2.6-.9-4.3-3.1-4.3c-1.7 0-2.7 1.2-3.1 2.3c-.2.4-.2 1-.2 1.5c-.02.02 0 11.3 0 11.3l-6.1 0c0 0 0-13.32 0-13.3zm42 10.5c0 3.7-.8 6.8-3 8.8c-2.2 1.8-5.1 2.4-8 2.4c-2.6 0-5.2-.6-7-1.5c0 0 1.2-4.7 1.2-4.7c1.2.8 3.4 1.5 5.7 1.5c2.9 0 5.1-1.5 5.1-5.1c-.04-.04 0-1.3 0-1.3c0 0-.12.02-.1 0c-1.2 1.6-3.1 2.5-5.3 2.5c-4.8 0-8.3-3.9-8.3-9.5c0-6.3 4.1-10.3 8.9-10.3c2.7 0 4.4 1.2 5.4 2.8c-.04 0 0 0 0 0l.2-2.4c0 0 5.32.04 5.3 0c-.1 1.3-.1 3-.1 5.9c0 0 0 10.9 0 10.9zm-6.1-8.8c0-.4-.1-.8-.1-1.1c-.5-1.6-1.6-2.7-3.3-2.7c-2.3 0-4 2-4 5.6c0 2.9 1.4 5.2 3.9 5.2c1.6 0 2.9-1.1 3.3-2.5c.1-.5.2-1.1.2-1.6c0 0 0-2.9 0-2.9zm25.8-13.2l0 5.2l4.4 0l0 4.5l-4.4 0c0 0 .02 7.1 0 7.1c0 2.4.6 3.4 2.4 3.4c.9 0 1.3 0 1.8-.1c0 0 .1 4.6.1 4.6c-.8.3-2.3.5-4 .5c-1.9 0-3.6-.7-4.6-1.7c-1.1-1.1-1.6-3-1.6-5.8c-.04.02 0-8 0-8l-2.6 0l0-4.5l2.6 0l0-3.6l5.9-1.6zm7.9-3.6l6.1 0l0 11.2c0 0 .06 0 .1 0c.6-.9 1.4-1.6 2.4-2c.9-.5 2-.8 3.1-.8c3.9 0 6.9 2.7 6.9 8.6c-.04 0 0 11.4 0 11.4l-6.1 0c0 0-.02-10.76 0-10.8c0-2.5-.9-4.3-3.2-4.3c-1.6 0-2.6 1.1-3 2.2c-.2.3-.2.9-.2 1.3c-.02 0 0 11.6 0 11.6l-6.1 0l0-28.4zm28.1 20.6c.2 2.5 2.7 3.7 5.5 3.7c2.1 0 3.8-.3 5.4-.9c0 0 .8 4.2.8 4.2c-2 .8-4.4 1.2-7 1.2c-6.7 0-10.5-3.8-10.5-10c0-4.9 3.1-10.4 9.9-10.4c6.3 0 8.7 4.9 8.7 9.8c0 1-.1 1.9-.2 2.4c0 0-12.6 0-12.6 0zm7.2-4.2c0-1.5-.7-4-3.5-4c-2.5 0-3.6 2.4-3.7 4c0 0 7.2 0 7.2 0zm9.3-1.1c0-2.9-.1-4.8-.2-6.5c0 .04 5.2 0 5.2 0l.2 3.6c0 0 .2.04.2 0c1-2.8 3.4-4 5.3-4c.5 0 .8 0 1.3.1c0 0 0 5.7 0 5.7c-.5-.1-1-.2-1.7-.2c-2.2 0-3.7 1.2-4.1 3.1c-.1.4-.2.9-.2 1.4c.04-.02 0 9.9 0 9.9l-6 0c0 0-.04-13.12 0-13.1zm19.5 5.3c.2 2.5 2.7 3.7 5.5 3.7c2.1 0 3.8-.3 5.4-.9c0 0 .8 4.2.8 4.2c-2 .8-4.4 1.2-7 1.2c-6.7 0-10.5-3.8-10.5-10c0-4.9 3.1-10.4 9.9-10.4c6.3 0 8.7 4.9 8.7 9.8c0 1-.1 1.9-.2 2.4c0 0-12.6 0-12.6 0zm7.2-4.2c0-1.5-.7-4-3.5-4c-2.5 0-3.6 2.4-3.7 4c0 0 7.2 0 7.2 0z" stroke="none" fill="#000"/></g></svg>