<?xml version="1.0" standalone="no"?><!DOCTYPE svg PUBLIC "-//W3C//DTD SVG 1.1//EN" "http://www.w3.org/Graphics/SVG/1.1/DTD/svg11.dtd"><svg xmlns="http://www.w3.org/2000/svg" version="1.1" width="746px" height="55px" viewBox="0 0 746 55"><desc>More Gilbert Guides</desc><defs/><g id="Polygon6353"><path d="m112.7 26.3c0-1.6-.1-3.5-.1-5.5c0 0 0 0 0 0c-.5 1.7-1 3.6-1.6 5.2c.04.02-1.6 5.3-1.6 5.3l-2.4 0c0 0-1.42-5.22-1.4-5.2c-.5-1.6-.9-3.5-1.2-5.3c0 0-.1 0-.1 0c0 1.8-.1 3.9-.2 5.6c0-.02-.3 5.1-.3 5.1l-2.8 0l.9-13.5l4 0c0 0 1.36 4.52 1.4 4.5c.4 1.6.8 3.3 1.1 4.8c0 0 .1 0 .1 0c.3-1.5.8-3.3 1.3-4.8c-.04 0 1.4-4.5 1.4-4.5l4 0l.7 13.5l-3 0c0 0-.18-5.16-.2-5.2zm15.3.2c0 3.6-2.6 5.2-5.2 5.2c-2.9 0-5.1-1.9-5.1-5c0-3.2 2.1-5.2 5.3-5.2c3 0 5 2 5 5zm-7.1.1c0 1.7.7 2.9 2 2.9c1.2 0 1.9-1.1 1.9-2.9c0-1.5-.5-2.9-1.9-2.9c-1.5 0-2 1.5-2 2.9zm9-1.7c0-1.4 0-2.3 0-3.2c-.04.02 2.6 0 2.6 0l.1 1.8c0 0 .06.02.1 0c.5-1.4 1.6-2 2.6-2c.3 0 .4 0 .6 0c0 0 0 2.9 0 2.9c-.2 0-.4-.1-.8-.1c-1.1 0-1.9.6-2.1 1.6c0 .2 0 .4 0 .6c-.02.04 0 5 0 5l-3.1 0c0 0 .04-6.56 0-6.6zm9.9 2.7c.1 1.2 1.4 1.8 2.8 1.8c1 0 1.9-.1 2.7-.4c0 0 .4 2.1.4 2.1c-1 .4-2.2.6-3.6.6c-3.3 0-5.2-1.9-5.2-5c0-2.5 1.6-5.2 5-5.2c3.1 0 4.3 2.5 4.3 4.9c0 .5 0 1-.1 1.2c0 0-6.3 0-6.3 0zm3.6-2.1c0-.7-.3-2-1.7-2c-1.3 0-1.8 1.2-1.9 2c0 0 3.6 0 3.6 0zm20.2 5.4c-.9.3-2.7.7-4.5.7c-2.4 0-4.2-.6-5.4-1.8c-1.3-1.1-1.9-2.9-1.9-4.9c0-4.5 3.2-7 7.7-7c1.7 0 3 .3 3.7.6c0 0-.6 2.5-.6 2.5c-.8-.4-1.7-.6-3.2-.6c-2.5 0-4.4 1.4-4.4 4.4c0 2.8 1.7 4.4 4.2 4.4c.7 0 1.3-.1 1.5-.2c0 0 0-2.8 0-2.8l-2.1 0l0-2.4l5 0c0 0 .04 7.08 0 7.1zm2.5.6l0-9.8l3 0l0 9.8l-3 0zm3.1-12.5c0 .8-.6 1.5-1.6 1.5c-1 0-1.6-.7-1.6-1.5c0-.9.6-1.5 1.6-1.5c1 0 1.6.6 1.6 1.5zm2.5-1.7l3 0l0 14.2l-3 0l0-14.2zm5.6 0l3 0l0 5.6c0 0 .04-.02 0 0c.6-.9 1.6-1.4 3-1.4c2.3 0 4 1.9 4 4.9c0 3.6-2.2 5.3-4.4 5.3c-1.2 0-2.3-.4-3-1.6c.02.04 0 0 0 0l-.1 1.4c0 0-2.62 0-2.6 0c0-.6.1-1.8.1-2.9c-.04-.02 0-11.3 0-11.3zm3 10c0 .2 0 .4.1.6c.2.8.9 1.4 1.7 1.4c1.3 0 2.1-1 2.1-2.7c0-1.6-.6-2.8-2.1-2.8c-.8 0-1.5.7-1.7 1.5c-.1.2-.1.4-.1.6c0 0 0 1.4 0 1.4zm11.4.3c.1 1.2 1.4 1.8 2.8 1.8c1 0 1.9-.1 2.7-.4c0 0 .4 2.1.4 2.1c-1 .4-2.2.6-3.6.6c-3.3 0-5.2-1.9-5.2-5c0-2.5 1.6-5.2 5-5.2c3.1 0 4.3 2.5 4.3 4.9c0 .5 0 1-.1 1.2c0 0-6.3 0-6.3 0zm3.6-2.1c0-.7-.3-2-1.7-2c-1.3 0-1.8 1.2-1.9 2c0 0 3.6 0 3.6 0zm4.7-.6c0-1.4 0-2.3 0-3.2c-.04.02 2.6 0 2.6 0l.1 1.8c0 0 .06.02.1 0c.5-1.4 1.6-2 2.6-2c.3 0 .4 0 .6 0c0 0 0 2.9 0 2.9c-.2 0-.4-.1-.8-.1c-1.1 0-1.9.6-2.1 1.6c0 .2 0 .4 0 .6c-.02.04 0 5 0 5l-3.1 0c0 0 .04-6.56 0-6.6zm11.6-5.8l0 2.6l2.1 0l0 2.3l-2.1 0c0 0-.04 3.5 0 3.5c0 1.2.3 1.7 1.2 1.7c.4 0 .6 0 .9-.1c0 0 0 2.3 0 2.3c-.4.2-1.1.3-2 .3c-1 0-1.8-.3-2.3-.8c-.5-.6-.8-1.6-.8-2.9c-.02-.04 0-4 0-4l-1.3 0l0-2.3l1.3 0l0-1.8l3-.8zm19.5 11.8c-.9.3-2.7.7-4.5.7c-2.5 0-4.2-.6-5.5-1.8c-1.2-1.1-1.9-2.9-1.9-4.9c0-4.5 3.3-7 7.7-7c1.8 0 3.1.3 3.8.6c0 0-.7 2.5-.7 2.5c-.7-.4-1.6-.6-3.1-.6c-2.5 0-4.5 1.4-4.5 4.4c0 2.8 1.8 4.4 4.3 4.4c.7 0 1.2-.1 1.5-.2c-.04 0 0-2.8 0-2.8l-2.1 0l0-2.4l5 0c0 0 0 7.08 0 7.1zm11.7-2.5c0 1.2 0 2.3 0 3.1c.04 0-2.6 0-2.6 0l-.1-1.4c0 0-.1.02-.1 0c-.4.6-1.3 1.6-3.1 1.6c-2 0-3.4-1.2-3.4-4.2c0-.04 0-5.8 0-5.8l3 0c0 0 .04 5.28 0 5.3c0 1.4.5 2.3 1.6 2.3c.8 0 1.3-.6 1.5-1.1c.1-.2.1-.4.1-.7c.02.04 0-5.8 0-5.8l3.1 0c0 0-.04 6.66 0 6.7zm2.5 3.1l0-9.8l3 0l0 9.8l-3 0zm3.1-12.5c0 .8-.6 1.5-1.6 1.5c-1 0-1.6-.7-1.6-1.5c0-.9.7-1.5 1.6-1.5c1 0 1.6.6 1.6 1.5zm12-1.7c0 0-.04 11.28 0 11.3c0 1.1 0 2.2 0 2.9c.04 0-2.7 0-2.7 0l-.1-1.4c0 0-.04-.02 0 0c-.6 1.1-1.8 1.6-3.1 1.6c-2.3 0-4.2-2-4.2-5c0-3.3 2.1-5.2 4.4-5.2c1.2 0 2.1.4 2.6 1.1c-.02-.02 0 0 0 0l0-5.3l3.1 0zm-3.1 8.6c0-.2 0-.4 0-.6c-.2-.8-.9-1.5-1.8-1.5c-1.4 0-2.1 1.3-2.1 2.8c0 1.7.8 2.7 2.1 2.7c.9 0 1.6-.6 1.8-1.5c0-.2 0-.4 0-.7c0 0 0-1.2 0-1.2zm7.9 1.7c.1 1.2 1.4 1.8 2.8 1.8c1 0 1.9-.1 2.7-.4c0 0 .4 2.1.4 2.1c-1 .4-2.2.6-3.5.6c-3.4 0-5.3-1.9-5.3-5c0-2.5 1.6-5.2 5-5.2c3.1 0 4.3 2.5 4.3 4.9c0 .5 0 1-.1 1.2c0 0-6.3 0-6.3 0zm3.6-2.1c0-.7-.3-2-1.7-2c-1.3 0-1.8 1.2-1.9 2c0 0 3.6 0 3.6 0zm4.7 3.4c.6.3 1.8.7 2.7.7c.9 0 1.3-.3 1.3-.8c0-.5-.3-.8-1.5-1.2c-2-.6-2.8-1.7-2.8-2.9c0-1.8 1.6-3.2 4-3.2c1.2 0 2.2.3 2.8.6c0 0-.6 2.1-.6 2.1c-.4-.3-1.3-.6-2.1-.6c-.7 0-1.1.3-1.1.8c0 .5.3.7 1.5 1.1c1.9.7 2.7 1.6 2.7 3c0 1.9-1.4 3.2-4.2 3.2c-1.3 0-2.5-.3-3.2-.7c0 0 .5-2.1.5-2.1z" stroke="none" fill="#fff"/></g></svg>