<?xml version="1.0" standalone="no"?><!DOCTYPE svg PUBLIC "-//W3C//DTD SVG 1.1//EN" "http://www.w3.org/Graphics/SVG/1.1/DTD/svg11.dtd"><svg xmlns="http://www.w3.org/2000/svg" version="1.1" width="746px" height="55px" viewBox="0 0 746 55"><desc>Wildlife</desc><defs/><g id="Polygon6435"><path d="m103.5 31.5l-3.2-13.5l3.3 0c0 0 .98 5.56 1 5.6c.3 1.6.6 3.3.8 4.7c0 0 0 0 0 0c.2-1.5.6-3.1.9-4.8c0 .02 1.1-5.5 1.1-5.5l3.3 0c0 0 1.06 5.7 1.1 5.7c.3 1.6.5 3 .7 4.5c0 0 0 0 0 0c.2-1.5.5-3.1.8-4.7c0 .02 1.1-5.5 1.1-5.5l3.1 0l-3.5 13.5l-3.3 0c0 0-1.12-5.8-1.1-5.8c-.3-1.4-.5-2.6-.7-4.2c0 0 0 0 0 0c-.2 1.6-.5 2.8-.8 4.2c.02 0-1.3 5.8-1.3 5.8l-3.3 0zm15 0l0-9.8l3.1 0l0 9.8l-3.1 0zm3.2-12.5c0 .8-.6 1.5-1.7 1.5c-.9 0-1.5-.7-1.5-1.5c0-.9.6-1.5 1.6-1.5c1 0 1.6.6 1.6 1.5zm2.4-1.7l3.1 0l0 14.2l-3.1 0l0-14.2zm15.1 0c0 0 0 11.28 0 11.3c0 1.1 0 2.2.1 2.9c-.02 0-2.7 0-2.7 0l-.1-1.4c0 0-.1-.02-.1 0c-.6 1.1-1.8 1.6-3.1 1.6c-2.3 0-4.1-2-4.1-5c-.1-3.3 2-5.2 4.3-5.2c1.3 0 2.2.4 2.6 1.1c.02-.02.1 0 .1 0l0-5.3l3 0zm-3 8.6c0-.2 0-.4-.1-.6c-.2-.8-.8-1.5-1.8-1.5c-1.4 0-2.1 1.3-2.1 2.8c0 1.7.9 2.7 2.1 2.7c.9 0 1.6-.6 1.8-1.5c0-.2.1-.4.1-.7c0 0 0-1.2 0-1.2zm5.5-8.6l3.1 0l0 14.2l-3.1 0l0-14.2zm5.6 14.2l0-9.8l3.1 0l0 9.8l-3.1 0zm3.2-12.5c0 .8-.6 1.5-1.7 1.5c-.9 0-1.5-.7-1.5-1.5c0-.9.6-1.5 1.6-1.5c1 0 1.6.6 1.6 1.5zm2.8 12.5l0-7.5l-1.3 0l0-2.3l1.3 0c0 0-.02-.36 0-.4c0-1.1.3-2.4 1.2-3.2c.8-.8 1.8-1 2.7-1c.7 0 1.2.1 1.6.2c0 0-.1 2.3-.1 2.3c-.3-.1-.6-.1-1-.1c-1 0-1.4.8-1.4 1.7c0 .02 0 .5 0 .5l2 0l0 2.3l-2 0l0 7.5l-3 0zm8.7-3.9c.1 1.2 1.3 1.8 2.7 1.8c1.1 0 1.9-.1 2.7-.4c0 0 .4 2.1.4 2.1c-1 .4-2.2.6-3.5.6c-3.3 0-5.2-1.9-5.2-5c0-2.5 1.5-5.2 4.9-5.2c3.2 0 4.4 2.5 4.4 4.9c0 .5-.1 1-.1 1.2c0 0-6.3 0-6.3 0zm3.6-2.1c0-.7-.4-2-1.8-2c-1.2 0-1.8 1.2-1.8 2c0 0 3.6 0 3.6 0z" stroke="none" fill="#fff"/></g></svg>