<?xml version="1.0" standalone="no"?><!DOCTYPE svg PUBLIC "-//W3C//DTD SVG 1.1//EN" "http://www.w3.org/Graphics/SVG/1.1/DTD/svg11.dtd"><svg xmlns="http://www.w3.org/2000/svg" version="1.1" width="250px" height="318.5px" viewBox="0 0 250 318.5"><desc>Squirrel</desc><defs/><g id="Polygon8220"><path d="m85 162.7c.8.5 2.2.8 3.3.8c1.9 0 2.8-.9 2.8-2.3c0-1.4-.9-2.2-2.6-3.3c-2.8-1.6-3.8-3.8-3.8-5.6c0-3.2 2.1-5.9 6.3-5.9c1.4 0 2.6.3 3.2.7c0 0-.6 3.4-.6 3.4c-.6-.4-1.5-.7-2.6-.7c-1.7 0-2.5 1-2.5 2.1c0 1.2.6 1.8 2.8 3.1c2.7 1.6 3.7 3.7 3.7 5.8c0 3.7-2.8 6.1-6.7 6.1c-1.6 0-3.2-.4-3.9-.8c0 0 .6-3.4.6-3.4zm18.9 2.8c0 0-.03-.01 0 0c-.6.9-1.6 1.5-2.8 1.5c-2.8 0-4.4-3.3-4.4-7.3c0-4.9 2.1-7.9 4.9-7.9c1 0 2.1.5 2.7 1.8c.02.01.1.1.1.1l.2-1.6c0 0 3.38-.02 3.4 0c-.1 1.3-.1 2.9-.1 4.6c-.04.03 0 15.8 0 15.8l-4 0l0-7zm0-8.1c0-.2 0-.6-.1-.8c-.2-.9-.7-1.5-1.3-1.5c-1.3 0-1.9 1.7-1.9 4.3c0 2.7.7 4.4 1.9 4.4c.5 0 1-.4 1.3-1.3c.1-.3.1-.7.1-1c0 0 0-4.1 0-4.1zm17.4 4.9c0 1.5.1 3.1.1 4.5c.05-.05-3.3 0-3.3 0l-.3-1.6c0 0-.01-.01 0 0c-.7 1-1.9 1.8-3.4 1.8c-2.8 0-3.9-2.1-3.9-6c-.03-.04 0-8.9 0-8.9l3.9 0c0 0 0 8.44 0 8.4c0 2 .4 3.2 1.5 3.2c.7 0 1.1-.5 1.3-1c.1-.3.2-.7.2-1.3c0 .04 0-9.3 0-9.3l3.9 0c0 0 .03 10.18 0 10.2zm2.8 4.5l0-14.7l4 0l0 14.7l-4 0zm4-18.6c0 1.3-.9 2.1-2.1 2.1c-1.1 0-2-.8-1.9-2.1c-.1-1.3.9-2.1 2-2.1c1.1 0 2 .8 2 2.1zm2.7 8.3c0-1.4 0-3-.1-4.4c.01-.02 3.4 0 3.4 0l.2 2.1c0 0 .13.01.1 0c.7-1.5 1.9-2.4 2.9-2.4c.4 0 .6 0 .9.1c0 0 0 3.9 0 3.9c-.3-.1-.6-.1-.9-.1c-.8 0-1.9.6-2.4 2.1c-.1.3-.1.9-.1 1.5c-.04-.02 0 7.5 0 7.5l-4 0c0 0 .03-10.31 0-10.3zm8.9 0c0-1.4-.1-3-.2-4.4c.03-.02 3.4 0 3.4 0l.2 2.1c0 0 .15.01.2 0c.6-1.5 1.8-2.4 2.8-2.4c.5 0 .7 0 .9.1c0 0 0 3.9 0 3.9c-.3-.1-.5-.1-.9-.1c-.8 0-1.9.6-2.3 2.1c-.2.3-.2.9-.2 1.5c-.02-.02 0 7.5 0 7.5l-3.9 0c0 0-.05-10.31 0-10.3zm12 4.3c0 2.3 1.3 3.1 3 3.1c1.2 0 2.1-.2 2.8-.4c0 0 .5 2.8.5 2.8c-.9.4-2.5.6-3.9.6c-4.1 0-6.3-2.6-6.3-7.2c0-4.9 2.6-7.9 5.9-7.9c3.2 0 5 2.5 5 7c0 1-.1 1.6-.1 2c0 0-6.9 0-6.9 0zm3.4-2.7c0-1.9-.4-3.4-1.6-3.4c-1.3 0-1.8 1.9-1.8 3.4c0 0 3.4 0 3.4 0zm5.8-12.1l4 0l0 20.8l-4 0l0-20.8z" stroke="none" fill="#000" fill-opacity="0.7"/></g></svg>