<?xml version="1.0" encoding="utf-8"?><!-- Generator: Adobe Illustrator 24.1.2, SVG Export Plug-In . SVG Version: 6.00 Build 0)  --><svg version="1.1" id="Layer_1" xmlns="http://www.w3.org/2000/svg" xmlns:xlink="http://www.w3.org/1999/xlink" x="0px" y="0px" viewBox="0 0 252.3 144.2" style="enable-background:new 0 0 252.3 144.2;" xml:space="preserve"><style type="text/css">
	.st0{fill:#FFFFFF;}
	.st1{fill:none;stroke:#231F20;stroke-width:0.25;}
	.st2{fill:#808284;}
	.st3{fill:#F1F1F2;}
	.st4{fill:#00ADEF;}
</style><g><g><path class="st0" d="m242.1.1c5.5 0 10 4.5 10 10v124c0 5.5-4.5 10-10 10h-232c-5.5 0-10-4.5-10-10v-124c0-5.5 4.5-10 10-10h232z"/><path class="st1" d="m242.1.1c5.5 0 10 4.5 10 10v124c0 5.5-4.5 10-10 10h-232c-5.5 0-10-4.5-10-10v-124c0-5.5 4.5-10 10-10h232z"/><path class="st2" d="m19.6.9c.8 0 1.5.7 1.5 1.5c0 .8-.7 1.5-1.5 1.5c-.8 0-1.5-.7-1.5-1.5c.1-.9.7-1.5 1.5-1.5"/><path class="st2" d="m19.6 4.9c.8 0 1.5.7 1.5 1.5c0 .8-.7 1.5-1.5 1.5c-.8 0-1.5-.7-1.5-1.5c.1-.9.7-1.5 1.5-1.5"/><path class="st2" d="m19.6 8.8c.8 0 1.5.7 1.5 1.5c0 .8-.7 1.5-1.5 1.5c-.8 0-1.5-.7-1.5-1.5c.1-.8.7-1.5 1.5-1.5"/><path class="st3" d="m19.6 12.8c.8 0 1.5.7 1.5 1.5c0 .8-.7 1.5-1.5 1.5c-.8 0-1.5-.7-1.5-1.5c.1-.8.7-1.5 1.5-1.5"/><path class="st3" d="m19.6 16.8c.8 0 1.5.7 1.5 1.5s-.7 1.5-1.5 1.5c-.8 0-1.5-.7-1.5-1.5s.7-1.5 1.5-1.5"/><path class="st3" d="m19.6 20.8c.8 0 1.5.7 1.5 1.5c0 .8-.7 1.5-1.5 1.5c-.8 0-1.5-.7-1.5-1.5c.1-.8.7-1.5 1.5-1.5"/><path class="st3" d="m19.6 24.8c.8 0 1.5.7 1.5 1.5c0 .8-.7 1.5-1.5 1.5c-.8 0-1.5-.7-1.5-1.5c.1-.8.7-1.5 1.5-1.5"/><path class="st3" d="m19.6 28.8c.8 0 1.5.7 1.5 1.5c0 .8-.7 1.5-1.5 1.5c-.8 0-1.5-.7-1.5-1.5c.1-.9.7-1.5 1.5-1.5"/><path class="st3" d="m19.6 32.8c.8 0 1.5.7 1.5 1.5c0 .8-.7 1.5-1.5 1.5c-.8 0-1.5-.7-1.5-1.5c.1-.9.7-1.5 1.5-1.5"/><path class="st3" d="m19.6 36.8c.8 0 1.5.7 1.5 1.5c0 .8-.7 1.5-1.5 1.5c-.8 0-1.5-.7-1.5-1.5c.1-.9.7-1.5 1.5-1.5"/><path class="st3" d="m19.6 40.7c.8 0 1.5.7 1.5 1.5c0 .8-.7 1.5-1.5 1.5c-.8 0-1.5-.7-1.5-1.5c.1-.8.7-1.5 1.5-1.5"/><path class="st3" d="m19.6 44.7c.8 0 1.5.7 1.5 1.5c0 .8-.7 1.5-1.5 1.5c-.8 0-1.5-.7-1.5-1.5c.1-.8.7-1.5 1.5-1.5"/><path class="st3" d="m19.6 48.7c.8 0 1.5.7 1.5 1.5c0 .8-.7 1.5-1.5 1.5c-.8 0-1.5-.7-1.5-1.5c.1-.8.7-1.5 1.5-1.5"/><path class="st3" d="m19.6 52.7c.8 0 1.5.7 1.5 1.5c0 .8-.7 1.5-1.5 1.5c-.8 0-1.5-.7-1.5-1.5c.1-.8.7-1.5 1.5-1.5"/><path class="st3" d="m19.6 56.7c.8 0 1.5.7 1.5 1.5c0 .8-.7 1.5-1.5 1.5c-.8 0-1.5-.7-1.5-1.5c.1-.8.7-1.5 1.5-1.5"/><path class="st3" d="m19.6 60.7c.8 0 1.5.7 1.5 1.5c0 .8-.7 1.5-1.5 1.5c-.8 0-1.5-.7-1.5-1.5c.1-.9.7-1.5 1.5-1.5"/><path class="st3" d="m19.6 64.7c.8 0 1.5.7 1.5 1.5c0 .8-.7 1.5-1.5 1.5c-.8 0-1.5-.7-1.5-1.5c.1-.9.7-1.5 1.5-1.5"/><path class="st3" d="m19.6 68.6c.8 0 1.5.7 1.5 1.5c0 .8-.7 1.5-1.5 1.5c-.8 0-1.5-.7-1.5-1.5c.1-.8.7-1.5 1.5-1.5"/><path class="st3" d="m19.6 72.6c.8 0 1.5.7 1.5 1.5c0 .8-.7 1.5-1.5 1.5c-.8 0-1.5-.7-1.5-1.5c.1-.8.7-1.5 1.5-1.5"/><path class="st3" d="m19.6 76.6c.8 0 1.5.7 1.5 1.5c0 .8-.7 1.5-1.5 1.5c-.8 0-1.5-.7-1.5-1.5c.1-.8.7-1.5 1.5-1.5"/><path class="st3" d="m19.6 80.6c.8 0 1.5.7 1.5 1.5c0 .8-.7 1.5-1.5 1.5c-.8 0-1.5-.7-1.5-1.5c.1-.8.7-1.5 1.5-1.5"/><path class="st3" d="m19.6 84.6c.8 0 1.5.7 1.5 1.5c0 .8-.7 1.5-1.5 1.5c-.8 0-1.5-.7-1.5-1.5c.1-.8.7-1.5 1.5-1.5"/><path class="st3" d="m19.6 88.6c.8 0 1.5.7 1.5 1.5c0 .8-.7 1.5-1.5 1.5c-.8 0-1.5-.7-1.5-1.5c.1-.9.7-1.5 1.5-1.5"/><path class="st3" d="m19.6 92.6c.8 0 1.5.7 1.5 1.5c0 .8-.7 1.5-1.5 1.5c-.8 0-1.5-.7-1.5-1.5c.1-.9.7-1.5 1.5-1.5"/><path class="st3" d="m19.6 96.6c.8 0 1.5.7 1.5 1.5c0 .8-.7 1.5-1.5 1.5c-.8 0-1.5-.7-1.5-1.5c.1-.9.7-1.5 1.5-1.5"/><path class="st3" d="m19.6 100.5c.8 0 1.5.7 1.5 1.5c0 .8-.7 1.5-1.5 1.5c-.8 0-1.5-.7-1.5-1.5c.1-.8.7-1.5 1.5-1.5"/><path class="st3" d="m19.6 104.5c.8 0 1.5.7 1.5 1.5c0 .8-.7 1.5-1.5 1.5c-.8 0-1.5-.7-1.5-1.5c.1-.8.7-1.5 1.5-1.5"/><path class="st3" d="m19.6 108.5c.8 0 1.5.7 1.5 1.5c0 .8-.7 1.5-1.5 1.5c-.8 0-1.5-.7-1.5-1.5c.1-.8.7-1.5 1.5-1.5"/><path class="st3" d="m19.6 112.5c.8 0 1.5.7 1.5 1.5c0 .8-.7 1.5-1.5 1.5c-.8 0-1.5-.7-1.5-1.5c.1-.8.7-1.5 1.5-1.5"/><path class="st3" d="m19.6 116.5c.8 0 1.5.7 1.5 1.5c0 .8-.7 1.5-1.5 1.5c-.8 0-1.5-.7-1.5-1.5c.1-.8.7-1.5 1.5-1.5"/><path class="st3" d="m19.6 120.5c.8 0 1.5.7 1.5 1.5c0 .8-.7 1.5-1.5 1.5c-.8 0-1.5-.7-1.5-1.5c.1-.9.7-1.5 1.5-1.5"/><path class="st3" d="m19.6 124.5c.8 0 1.5.7 1.5 1.5c0 .8-.7 1.5-1.5 1.5c-.8 0-1.5-.7-1.5-1.5c.1-.9.7-1.5 1.5-1.5"/><path class="st3" d="m19.6 128.4c.8 0 1.5.7 1.5 1.5c0 .8-.7 1.5-1.5 1.5c-.8 0-1.5-.7-1.5-1.5c.1-.8.7-1.5 1.5-1.5"/><path class="st2" d="m19.6 132.4c.8 0 1.5.7 1.5 1.5c0 .8-.7 1.5-1.5 1.5c-.8 0-1.5-.7-1.5-1.5c.1-.8.7-1.5 1.5-1.5"/><path class="st2" d="m19.6 136.4c.8 0 1.5.7 1.5 1.5c0 .8-.7 1.5-1.5 1.5c-.8 0-1.5-.7-1.5-1.5c.1-.8.7-1.5 1.5-1.5"/><path class="st2" d="m19.6 140.4c.8 0 1.5.7 1.5 1.5s-.7 1.5-1.5 1.5c-.8 0-1.5-.7-1.5-1.5s.7-1.5 1.5-1.5"/><path class="st2" d="m23.9.9c.8 0 1.5.7 1.5 1.5c0 .8-.7 1.5-1.5 1.5c-.8 0-1.5-.7-1.5-1.5c0-.9.7-1.5 1.5-1.5"/><path class="st2" d="m23.9 4.9c.8 0 1.5.7 1.5 1.5c0 .8-.7 1.5-1.5 1.5c-.8 0-1.5-.7-1.5-1.5c0-.9.7-1.5 1.5-1.5"/><path class="st2" d="m23.9 8.8c.8 0 1.5.7 1.5 1.5c0 .8-.7 1.5-1.5 1.5c-.8 0-1.5-.7-1.5-1.5c0-.8.7-1.5 1.5-1.5"/><path class="st3" d="m23.9 12.8c.8 0 1.5.7 1.5 1.5c0 .8-.7 1.5-1.5 1.5c-.8 0-1.5-.7-1.5-1.5c0-.8.7-1.5 1.5-1.5"/><path class="st3" d="m23.9 16.8c.8 0 1.5.7 1.5 1.5s-.7 1.5-1.5 1.5c-.8 0-1.5-.7-1.5-1.5s.7-1.5 1.5-1.5"/><path class="st3" d="m23.9 20.8c.8 0 1.5.7 1.5 1.5c0 .8-.7 1.5-1.5 1.5c-.8 0-1.5-.7-1.5-1.5c0-.8.7-1.5 1.5-1.5"/><path class="st3" d="m23.9 24.8c.8 0 1.5.7 1.5 1.5c0 .8-.7 1.5-1.5 1.5c-.8 0-1.5-.7-1.5-1.5c0-.8.7-1.5 1.5-1.5"/><path class="st3" d="m23.9 28.8c.8 0 1.5.7 1.5 1.5c0 .8-.7 1.5-1.5 1.5c-.8 0-1.5-.7-1.5-1.5c0-.9.7-1.5 1.5-1.5"/><path class="st3" d="m23.9 32.8c.8 0 1.5.7 1.5 1.5c0 .8-.7 1.5-1.5 1.5c-.8 0-1.5-.7-1.5-1.5c0-.9.7-1.5 1.5-1.5"/><path class="st3" d="m23.9 36.8c.8 0 1.5.7 1.5 1.5c0 .8-.7 1.5-1.5 1.5c-.8 0-1.5-.7-1.5-1.5c0-.9.7-1.5 1.5-1.5"/><path class="st3" d="m23.9 40.7c.8 0 1.5.7 1.5 1.5c0 .8-.7 1.5-1.5 1.5c-.8 0-1.5-.7-1.5-1.5c0-.8.7-1.5 1.5-1.5"/><path class="st3" d="m23.9 44.7c.8 0 1.5.7 1.5 1.5c0 .8-.7 1.5-1.5 1.5c-.8 0-1.5-.7-1.5-1.5c0-.8.7-1.5 1.5-1.5"/><path class="st3" d="m23.9 48.7c.8 0 1.5.7 1.5 1.5c0 .8-.7 1.5-1.5 1.5c-.8 0-1.5-.7-1.5-1.5c0-.8.7-1.5 1.5-1.5"/><path class="st3" d="m23.9 52.7c.8 0 1.5.7 1.5 1.5c0 .8-.7 1.5-1.5 1.5c-.8 0-1.5-.7-1.5-1.5c0-.8.7-1.5 1.5-1.5"/><path class="st3" d="m23.9 56.7c.8 0 1.5.7 1.5 1.5c0 .8-.7 1.5-1.5 1.5c-.8 0-1.5-.7-1.5-1.5c0-.8.7-1.5 1.5-1.5"/><path class="st3" d="m23.9 60.7c.8 0 1.5.7 1.5 1.5c0 .8-.7 1.5-1.5 1.5c-.8 0-1.5-.7-1.5-1.5c0-.9.7-1.5 1.5-1.5"/><path class="st3" d="m23.9 64.7c.8 0 1.5.7 1.5 1.5c0 .8-.7 1.5-1.5 1.5c-.8 0-1.5-.7-1.5-1.5c0-.9.7-1.5 1.5-1.5"/><path class="st3" d="m23.9 68.6c.8 0 1.5.7 1.5 1.5c0 .8-.7 1.5-1.5 1.5c-.8 0-1.5-.7-1.5-1.5c0-.8.7-1.5 1.5-1.5"/><path class="st3" d="m23.9 72.6c.8 0 1.5.7 1.5 1.5c0 .8-.7 1.5-1.5 1.5c-.8 0-1.5-.7-1.5-1.5c0-.8.7-1.5 1.5-1.5"/><path class="st3" d="m23.9 76.6c.8 0 1.5.7 1.5 1.5c0 .8-.7 1.5-1.5 1.5c-.8 0-1.5-.7-1.5-1.5c0-.8.7-1.5 1.5-1.5"/><path class="st3" d="m23.9 80.6c.8 0 1.5.7 1.5 1.5c0 .8-.7 1.5-1.5 1.5c-.8 0-1.5-.7-1.5-1.5c0-.8.7-1.5 1.5-1.5"/><path class="st3" d="m23.9 84.6c.8 0 1.5.7 1.5 1.5c0 .8-.7 1.5-1.5 1.5c-.8 0-1.5-.7-1.5-1.5c0-.8.7-1.5 1.5-1.5"/><path class="st3" d="m23.9 88.6c.8 0 1.5.7 1.5 1.5c0 .8-.7 1.5-1.5 1.5c-.8 0-1.5-.7-1.5-1.5c0-.9.7-1.5 1.5-1.5"/><path class="st3" d="m23.9 92.6c.8 0 1.5.7 1.5 1.5c0 .8-.7 1.5-1.5 1.5c-.8 0-1.5-.7-1.5-1.5c0-.9.7-1.5 1.5-1.5"/><path class="st3" d="m23.9 96.6c.8 0 1.5.7 1.5 1.5c0 .8-.7 1.5-1.5 1.5c-.8 0-1.5-.7-1.5-1.5c0-.9.7-1.5 1.5-1.5"/><path class="st3" d="m23.9 100.5c.8 0 1.5.7 1.5 1.5c0 .8-.7 1.5-1.5 1.5c-.8 0-1.5-.7-1.5-1.5c0-.8.7-1.5 1.5-1.5"/><path class="st3" d="m23.9 104.5c.8 0 1.5.7 1.5 1.5c0 .8-.7 1.5-1.5 1.5c-.8 0-1.5-.7-1.5-1.5c0-.8.7-1.5 1.5-1.5"/><path class="st3" d="m23.9 108.5c.8 0 1.5.7 1.5 1.5c0 .8-.7 1.5-1.5 1.5c-.8 0-1.5-.7-1.5-1.5c0-.8.7-1.5 1.5-1.5"/><path class="st3" d="m23.9 112.5c.8 0 1.5.7 1.5 1.5c0 .8-.7 1.5-1.5 1.5c-.8 0-1.5-.7-1.5-1.5c0-.8.7-1.5 1.5-1.5"/><path class="st3" d="m23.9 116.5c.8 0 1.5.7 1.5 1.5c0 .8-.7 1.5-1.5 1.5c-.8 0-1.5-.7-1.5-1.5c0-.8.7-1.5 1.5-1.5"/><path class="st3" d="m23.9 120.5c.8 0 1.5.7 1.5 1.5c0 .8-.7 1.5-1.5 1.5c-.8 0-1.5-.7-1.5-1.5c0-.9.7-1.5 1.5-1.5"/><path class="st3" d="m23.9 124.5c.8 0 1.5.7 1.5 1.5c0 .8-.7 1.5-1.5 1.5c-.8 0-1.5-.7-1.5-1.5c0-.9.7-1.5 1.5-1.5"/><path class="st3" d="m23.9 128.4c.8 0 1.5.7 1.5 1.5c0 .8-.7 1.5-1.5 1.5c-.8 0-1.5-.7-1.5-1.5c0-.8.7-1.5 1.5-1.5"/><path class="st2" d="m23.9 132.4c.8 0 1.5.7 1.5 1.5c0 .8-.7 1.5-1.5 1.5c-.8 0-1.5-.7-1.5-1.5c0-.8.7-1.5 1.5-1.5"/><path class="st2" d="m23.9 136.4c.8 0 1.5.7 1.5 1.5c0 .8-.7 1.5-1.5 1.5c-.8 0-1.5-.7-1.5-1.5c0-.8.7-1.5 1.5-1.5"/><path class="st2" d="m23.9 140.4c.8 0 1.5.7 1.5 1.5s-.7 1.5-1.5 1.5c-.8 0-1.5-.7-1.5-1.5s.7-1.5 1.5-1.5"/><path class="st2" d="m28.2.9c.8 0 1.5.7 1.5 1.5c0 .8-.7 1.5-1.5 1.5s-1.5-.7-1.5-1.5c0-.9.7-1.5 1.5-1.5"/><path class="st2" d="m28.2 4.9c.8 0 1.5.7 1.5 1.5c0 .8-.7 1.5-1.5 1.5s-1.5-.7-1.5-1.5c0-.9.7-1.5 1.5-1.5"/><path class="st2" d="m28.2 8.8c.8 0 1.5.7 1.5 1.5c0 .8-.7 1.5-1.5 1.5s-1.5-.7-1.5-1.5c0-.8.7-1.5 1.5-1.5"/><path class="st3" d="m28.2 12.8c.8 0 1.5.7 1.5 1.5c0 .8-.7 1.5-1.5 1.5s-1.5-.7-1.5-1.5c0-.8.7-1.5 1.5-1.5"/><path class="st3" d="m28.2 16.8c.8 0 1.5.7 1.5 1.5s-.7 1.5-1.5 1.5s-1.5-.7-1.5-1.5s.7-1.5 1.5-1.5"/><path class="st3" d="m28.2 20.8c.8 0 1.5.7 1.5 1.5c0 .8-.7 1.5-1.5 1.5s-1.5-.7-1.5-1.5c0-.8.7-1.5 1.5-1.5"/><path class="st3" d="m28.2 24.8c.8 0 1.5.7 1.5 1.5c0 .8-.7 1.5-1.5 1.5s-1.5-.7-1.5-1.5c0-.8.7-1.5 1.5-1.5"/><path class="st3" d="m28.2 28.8c.8 0 1.5.7 1.5 1.5c0 .8-.7 1.5-1.5 1.5s-1.5-.7-1.5-1.5c0-.9.7-1.5 1.5-1.5"/><path class="st3" d="m28.2 32.8c.8 0 1.5.7 1.5 1.5c0 .8-.7 1.5-1.5 1.5s-1.5-.7-1.5-1.5c0-.9.7-1.5 1.5-1.5"/><path class="st3" d="m28.2 36.8c.8 0 1.5.7 1.5 1.5c0 .8-.7 1.5-1.5 1.5s-1.5-.7-1.5-1.5c0-.9.7-1.5 1.5-1.5"/><path class="st3" d="m28.2 40.7c.8 0 1.5.7 1.5 1.5c0 .8-.7 1.5-1.5 1.5s-1.5-.7-1.5-1.5c0-.8.7-1.5 1.5-1.5"/><path class="st3" d="m28.2 44.7c.8 0 1.5.7 1.5 1.5c0 .8-.7 1.5-1.5 1.5s-1.5-.7-1.5-1.5c0-.8.7-1.5 1.5-1.5"/><path class="st3" d="m28.2 48.7c.8 0 1.5.7 1.5 1.5c0 .8-.7 1.5-1.5 1.5s-1.5-.7-1.5-1.5c0-.8.7-1.5 1.5-1.5"/><path class="st3" d="m28.2 52.7c.8 0 1.5.7 1.5 1.5c0 .8-.7 1.5-1.5 1.5s-1.5-.7-1.5-1.5c0-.8.7-1.5 1.5-1.5"/><path class="st3" d="m28.2 56.7c.8 0 1.5.7 1.5 1.5c0 .8-.7 1.5-1.5 1.5s-1.5-.7-1.5-1.5c0-.8.7-1.5 1.5-1.5"/><path class="st3" d="m28.2 60.7c.8 0 1.5.7 1.5 1.5c0 .8-.7 1.5-1.5 1.5s-1.5-.7-1.5-1.5c0-.9.7-1.5 1.5-1.5"/><path class="st3" d="m28.2 64.7c.8 0 1.5.7 1.5 1.5c0 .8-.7 1.5-1.5 1.5s-1.5-.7-1.5-1.5c0-.9.7-1.5 1.5-1.5"/><path class="st3" d="m28.2 68.6c.8 0 1.5.7 1.5 1.5c0 .8-.7 1.5-1.5 1.5s-1.5-.7-1.5-1.5c0-.8.7-1.5 1.5-1.5"/><path class="st3" d="m28.2 72.6c.8 0 1.5.7 1.5 1.5c0 .8-.7 1.5-1.5 1.5s-1.5-.7-1.5-1.5c0-.8.7-1.5 1.5-1.5"/><path class="st3" d="m28.2 76.6c.8 0 1.5.7 1.5 1.5c0 .8-.7 1.5-1.5 1.5s-1.5-.7-1.5-1.5c0-.8.7-1.5 1.5-1.5"/><path class="st3" d="m28.2 80.6c.8 0 1.5.7 1.5 1.5c0 .8-.7 1.5-1.5 1.5s-1.5-.7-1.5-1.5c0-.8.7-1.5 1.5-1.5"/><path class="st3" d="m28.2 84.6c.8 0 1.5.7 1.5 1.5c0 .8-.7 1.5-1.5 1.5s-1.5-.7-1.5-1.5c0-.8.7-1.5 1.5-1.5"/><path class="st3" d="m28.2 88.6c.8 0 1.5.7 1.5 1.5c0 .8-.7 1.5-1.5 1.5s-1.5-.7-1.5-1.5c0-.9.7-1.5 1.5-1.5"/><path class="st3" d="m28.2 92.6c.8 0 1.5.7 1.5 1.5c0 .8-.7 1.5-1.5 1.5s-1.5-.7-1.5-1.5c0-.9.7-1.5 1.5-1.5"/><path class="st3" d="m28.2 96.6c.8 0 1.5.7 1.5 1.5c0 .8-.7 1.5-1.5 1.5s-1.5-.7-1.5-1.5c0-.9.7-1.5 1.5-1.5"/><path class="st3" d="m28.2 100.5c.8 0 1.5.7 1.5 1.5c0 .8-.7 1.5-1.5 1.5s-1.5-.7-1.5-1.5c0-.8.7-1.5 1.5-1.5"/><path class="st3" d="m28.2 104.5c.8 0 1.5.7 1.5 1.5c0 .8-.7 1.5-1.5 1.5s-1.5-.7-1.5-1.5c0-.8.7-1.5 1.5-1.5"/><path class="st3" d="m28.2 108.5c.8 0 1.5.7 1.5 1.5c0 .8-.7 1.5-1.5 1.5s-1.5-.7-1.5-1.5c0-.8.7-1.5 1.5-1.5"/><path class="st3" d="m28.2 112.5c.8 0 1.5.7 1.5 1.5c0 .8-.7 1.5-1.5 1.5s-1.5-.7-1.5-1.5c0-.8.7-1.5 1.5-1.5"/><path class="st3" d="m28.2 116.5c.8 0 1.5.7 1.5 1.5c0 .8-.7 1.5-1.5 1.5s-1.5-.7-1.5-1.5c0-.8.7-1.5 1.5-1.5"/><path class="st3" d="m28.2 120.5c.8 0 1.5.7 1.5 1.5c0 .8-.7 1.5-1.5 1.5s-1.5-.7-1.5-1.5c0-.9.7-1.5 1.5-1.5"/><path class="st3" d="m28.2 124.5c.8 0 1.5.7 1.5 1.5c0 .8-.7 1.5-1.5 1.5s-1.5-.7-1.5-1.5c0-.9.7-1.5 1.5-1.5"/><path class="st3" d="m28.2 128.4c.8 0 1.5.7 1.5 1.5c0 .8-.7 1.5-1.5 1.5s-1.5-.7-1.5-1.5c0-.8.7-1.5 1.5-1.5"/><path class="st2" d="m28.2 132.4c.8 0 1.5.7 1.5 1.5c0 .8-.7 1.5-1.5 1.5s-1.5-.7-1.5-1.5c0-.8.7-1.5 1.5-1.5"/><path class="st2" d="m28.2 136.4c.8 0 1.5.7 1.5 1.5c0 .8-.7 1.5-1.5 1.5s-1.5-.7-1.5-1.5c0-.8.7-1.5 1.5-1.5"/><path class="st2" d="m28.2 140.4c.8 0 1.5.7 1.5 1.5s-.7 1.5-1.5 1.5s-1.5-.7-1.5-1.5s.7-1.5 1.5-1.5"/><path class="st2" d="m32.5.9c.8 0 1.5.7 1.5 1.5c0 .8-.7 1.5-1.5 1.5c-.8 0-1.5-.7-1.5-1.5c0-.9.7-1.5 1.5-1.5"/><path class="st2" d="m32.5 4.9c.8 0 1.5.7 1.5 1.5c0 .8-.7 1.5-1.5 1.5c-.8 0-1.5-.7-1.5-1.5c0-.9.7-1.5 1.5-1.5"/><path class="st2" d="m32.5 8.8c.8 0 1.5.7 1.5 1.5c0 .8-.7 1.5-1.5 1.5c-.8 0-1.5-.7-1.5-1.5c0-.8.7-1.5 1.5-1.5"/><path class="st3" d="m32.5 12.8c.8 0 1.5.7 1.5 1.5c0 .8-.7 1.5-1.5 1.5c-.8 0-1.5-.7-1.5-1.5c0-.8.7-1.5 1.5-1.5"/><path class="st3" d="m32.5 16.8c.8 0 1.5.7 1.5 1.5s-.7 1.5-1.5 1.5c-.8 0-1.5-.7-1.5-1.5s.7-1.5 1.5-1.5"/><path class="st3" d="m32.5 20.8c.8 0 1.5.7 1.5 1.5c0 .8-.7 1.5-1.5 1.5c-.8 0-1.5-.7-1.5-1.5c0-.8.7-1.5 1.5-1.5"/><path class="st3" d="m32.5 24.8c.8 0 1.5.7 1.5 1.5c0 .8-.7 1.5-1.5 1.5c-.8 0-1.5-.7-1.5-1.5c0-.8.7-1.5 1.5-1.5"/><path class="st3" d="m32.5 28.8c.8 0 1.5.7 1.5 1.5c0 .8-.7 1.5-1.5 1.5c-.8 0-1.5-.7-1.5-1.5c0-.9.7-1.5 1.5-1.5"/><path class="st3" d="m32.5 32.8c.8 0 1.5.7 1.5 1.5c0 .8-.7 1.5-1.5 1.5c-.8 0-1.5-.7-1.5-1.5c0-.9.7-1.5 1.5-1.5"/><path class="st3" d="m32.5 36.8c.8 0 1.5.7 1.5 1.5c0 .8-.7 1.5-1.5 1.5c-.8 0-1.5-.7-1.5-1.5c0-.9.7-1.5 1.5-1.5"/><path class="st3" d="m32.5 40.7c.8 0 1.5.7 1.5 1.5c0 .8-.7 1.5-1.5 1.5c-.8 0-1.5-.7-1.5-1.5c0-.8.7-1.5 1.5-1.5"/><path class="st3" d="m32.5 44.7c.8 0 1.5.7 1.5 1.5c0 .8-.7 1.5-1.5 1.5c-.8 0-1.5-.7-1.5-1.5c0-.8.7-1.5 1.5-1.5"/><path class="st3" d="m32.5 48.7c.8 0 1.5.7 1.5 1.5c0 .8-.7 1.5-1.5 1.5c-.8 0-1.5-.7-1.5-1.5c0-.8.7-1.5 1.5-1.5"/><path class="st3" d="m32.5 52.7c.8 0 1.5.7 1.5 1.5c0 .8-.7 1.5-1.5 1.5c-.8 0-1.5-.7-1.5-1.5c0-.8.7-1.5 1.5-1.5"/><path class="st3" d="m32.5 56.7c.8 0 1.5.7 1.5 1.5c0 .8-.7 1.5-1.5 1.5c-.8 0-1.5-.7-1.5-1.5c0-.8.7-1.5 1.5-1.5"/><path class="st3" d="m32.5 60.7c.8 0 1.5.7 1.5 1.5c0 .8-.7 1.5-1.5 1.5c-.8 0-1.5-.7-1.5-1.5c0-.9.7-1.5 1.5-1.5"/><path class="st3" d="m32.5 64.7c.8 0 1.5.7 1.5 1.5c0 .8-.7 1.5-1.5 1.5c-.8 0-1.5-.7-1.5-1.5c0-.9.7-1.5 1.5-1.5"/><path class="st3" d="m32.5 68.6c.8 0 1.5.7 1.5 1.5c0 .8-.7 1.5-1.5 1.5c-.8 0-1.5-.7-1.5-1.5c0-.8.7-1.5 1.5-1.5"/><path class="st3" d="m32.5 72.6c.8 0 1.5.7 1.5 1.5c0 .8-.7 1.5-1.5 1.5c-.8 0-1.5-.7-1.5-1.5c0-.8.7-1.5 1.5-1.5"/><path class="st3" d="m32.5 76.6c.8 0 1.5.7 1.5 1.5c0 .8-.7 1.5-1.5 1.5c-.8 0-1.5-.7-1.5-1.5c0-.8.7-1.5 1.5-1.5"/><path class="st3" d="m32.5 80.6c.8 0 1.5.7 1.5 1.5c0 .8-.7 1.5-1.5 1.5c-.8 0-1.5-.7-1.5-1.5c0-.8.7-1.5 1.5-1.5"/><path class="st3" d="m32.5 84.6c.8 0 1.5.7 1.5 1.5c0 .8-.7 1.5-1.5 1.5c-.8 0-1.5-.7-1.5-1.5c0-.8.7-1.5 1.5-1.5"/><path class="st3" d="m32.5 88.6c.8 0 1.5.7 1.5 1.5c0 .8-.7 1.5-1.5 1.5c-.8 0-1.5-.7-1.5-1.5c0-.9.7-1.5 1.5-1.5"/><path class="st3" d="m32.5 92.6c.8 0 1.5.7 1.5 1.5c0 .8-.7 1.5-1.5 1.5c-.8 0-1.5-.7-1.5-1.5c0-.9.7-1.5 1.5-1.5"/><path class="st3" d="m32.5 96.6c.8 0 1.5.7 1.5 1.5c0 .8-.7 1.5-1.5 1.5c-.8 0-1.5-.7-1.5-1.5c0-.9.7-1.5 1.5-1.5"/><path class="st3" d="m32.5 100.5c.8 0 1.5.7 1.5 1.5c0 .8-.7 1.5-1.5 1.5c-.8 0-1.5-.7-1.5-1.5c0-.8.7-1.5 1.5-1.5"/><path class="st3" d="m32.5 104.5c.8 0 1.5.7 1.5 1.5c0 .8-.7 1.5-1.5 1.5c-.8 0-1.5-.7-1.5-1.5c0-.8.7-1.5 1.5-1.5"/><path class="st3" d="m32.5 108.5c.8 0 1.5.7 1.5 1.5c0 .8-.7 1.5-1.5 1.5c-.8 0-1.5-.7-1.5-1.5c0-.8.7-1.5 1.5-1.5"/><path class="st3" d="m32.5 112.5c.8 0 1.5.7 1.5 1.5c0 .8-.7 1.5-1.5 1.5c-.8 0-1.5-.7-1.5-1.5c0-.8.7-1.5 1.5-1.5"/><path class="st3" d="m32.5 116.5c.8 0 1.5.7 1.5 1.5c0 .8-.7 1.5-1.5 1.5c-.8 0-1.5-.7-1.5-1.5c0-.8.7-1.5 1.5-1.5"/><path class="st3" d="m32.5 120.5c.8 0 1.5.7 1.5 1.5c0 .8-.7 1.5-1.5 1.5c-.8 0-1.5-.7-1.5-1.5c0-.9.7-1.5 1.5-1.5"/><path class="st3" d="m32.5 124.5c.8 0 1.5.7 1.5 1.5c0 .8-.7 1.5-1.5 1.5c-.8 0-1.5-.7-1.5-1.5c0-.9.7-1.5 1.5-1.5"/><path class="st3" d="m32.5 128.4c.8 0 1.5.7 1.5 1.5c0 .8-.7 1.5-1.5 1.5c-.8 0-1.5-.7-1.5-1.5c0-.8.7-1.5 1.5-1.5"/><path class="st2" d="m32.5 132.4c.8 0 1.5.7 1.5 1.5c0 .8-.7 1.5-1.5 1.5c-.8 0-1.5-.7-1.5-1.5c0-.8.7-1.5 1.5-1.5"/><path class="st2" d="m32.5 136.4c.8 0 1.5.7 1.5 1.5c0 .8-.7 1.5-1.5 1.5c-.8 0-1.5-.7-1.5-1.5c0-.8.7-1.5 1.5-1.5"/><path class="st2" d="m32.5 140.4c.8 0 1.5.7 1.5 1.5s-.7 1.5-1.5 1.5c-.8 0-1.5-.7-1.5-1.5s.7-1.5 1.5-1.5"/><path class="st2" d="m36.7.9c.8 0 1.5.7 1.5 1.5c0 .8-.7 1.5-1.5 1.5s-1.5-.7-1.5-1.5c.1-.9.7-1.5 1.5-1.5"/><path class="st2" d="m36.7 4.9c.8 0 1.5.7 1.5 1.5c0 .8-.7 1.5-1.5 1.5s-1.5-.7-1.5-1.5c.1-.9.7-1.5 1.5-1.5"/><path class="st2" d="m36.7 8.8c.8 0 1.5.7 1.5 1.5c0 .8-.7 1.5-1.5 1.5s-1.5-.7-1.5-1.5c.1-.8.7-1.5 1.5-1.5"/><path class="st3" d="m36.7 12.8c.8 0 1.5.7 1.5 1.5c0 .8-.7 1.5-1.5 1.5s-1.5-.7-1.5-1.5c.1-.8.7-1.5 1.5-1.5"/><path class="st3" d="m36.7 16.8c.8 0 1.5.7 1.5 1.5s-.7 1.5-1.5 1.5s-1.5-.7-1.5-1.5s.7-1.5 1.5-1.5"/><path class="st3" d="m36.7 20.8c.8 0 1.5.7 1.5 1.5c0 .8-.7 1.5-1.5 1.5s-1.5-.7-1.5-1.5c.1-.8.7-1.5 1.5-1.5"/><path class="st3" d="m36.7 24.8c.8 0 1.5.7 1.5 1.5c0 .8-.7 1.5-1.5 1.5s-1.5-.7-1.5-1.5c.1-.8.7-1.5 1.5-1.5"/><path class="st3" d="m36.7 28.8c.8 0 1.5.7 1.5 1.5c0 .8-.7 1.5-1.5 1.5s-1.5-.7-1.5-1.5c.1-.9.7-1.5 1.5-1.5"/><path class="st3" d="m36.7 32.8c.8 0 1.5.7 1.5 1.5c0 .8-.7 1.5-1.5 1.5s-1.5-.7-1.5-1.5c.1-.9.7-1.5 1.5-1.5"/><path class="st3" d="m36.7 36.8c.8 0 1.5.7 1.5 1.5c0 .8-.7 1.5-1.5 1.5s-1.5-.7-1.5-1.5c.1-.9.7-1.5 1.5-1.5"/><path class="st3" d="m36.7 40.7c.8 0 1.5.7 1.5 1.5c0 .8-.7 1.5-1.5 1.5s-1.5-.7-1.5-1.5c.1-.8.7-1.5 1.5-1.5"/><path class="st3" d="m36.7 44.7c.8 0 1.5.7 1.5 1.5c0 .8-.7 1.5-1.5 1.5s-1.5-.7-1.5-1.5c.1-.8.7-1.5 1.5-1.5"/><path class="st3" d="m36.7 48.7c.8 0 1.5.7 1.5 1.5c0 .8-.7 1.5-1.5 1.5s-1.5-.7-1.5-1.5c.1-.8.7-1.5 1.5-1.5"/><path class="st3" d="m36.7 52.7c.8 0 1.5.7 1.5 1.5c0 .8-.7 1.5-1.5 1.5s-1.5-.7-1.5-1.5c.1-.8.7-1.5 1.5-1.5"/><path class="st3" d="m36.7 56.7c.8 0 1.5.7 1.5 1.5c0 .8-.7 1.5-1.5 1.5s-1.5-.7-1.5-1.5c.1-.8.7-1.5 1.5-1.5"/><path class="st3" d="m36.7 60.7c.8 0 1.5.7 1.5 1.5c0 .8-.7 1.5-1.5 1.5s-1.5-.7-1.5-1.5c.1-.9.7-1.5 1.5-1.5"/><path class="st3" d="m36.7 64.7c.8 0 1.5.7 1.5 1.5c0 .8-.7 1.5-1.5 1.5s-1.5-.7-1.5-1.5c.1-.9.7-1.5 1.5-1.5"/><path class="st3" d="m36.7 68.6c.8 0 1.5.7 1.5 1.5c0 .8-.7 1.5-1.5 1.5s-1.5-.7-1.5-1.5c.1-.8.7-1.5 1.5-1.5"/><path class="st3" d="m36.7 72.6c.8 0 1.5.7 1.5 1.5c0 .8-.7 1.5-1.5 1.5s-1.5-.7-1.5-1.5c.1-.8.7-1.5 1.5-1.5"/><path class="st3" d="m36.7 76.6c.8 0 1.5.7 1.5 1.5c0 .8-.7 1.5-1.5 1.5s-1.5-.7-1.5-1.5c.1-.8.7-1.5 1.5-1.5"/><path class="st3" d="m36.7 80.6c.8 0 1.5.7 1.5 1.5c0 .8-.7 1.5-1.5 1.5s-1.5-.7-1.5-1.5c.1-.8.7-1.5 1.5-1.5"/><path class="st3" d="m36.7 84.6c.8 0 1.5.7 1.5 1.5c0 .8-.7 1.5-1.5 1.5s-1.5-.7-1.5-1.5c.1-.8.7-1.5 1.5-1.5"/><path class="st3" d="m36.7 88.6c.8 0 1.5.7 1.5 1.5c0 .8-.7 1.5-1.5 1.5s-1.5-.7-1.5-1.5c.1-.9.7-1.5 1.5-1.5"/><path class="st3" d="m36.7 92.6c.8 0 1.5.7 1.5 1.5c0 .8-.7 1.5-1.5 1.5s-1.5-.7-1.5-1.5c.1-.9.7-1.5 1.5-1.5"/><path class="st3" d="m36.7 96.6c.8 0 1.5.7 1.5 1.5c0 .8-.7 1.5-1.5 1.5s-1.5-.7-1.5-1.5c.1-.9.7-1.5 1.5-1.5"/><path class="st3" d="m36.7 100.5c.8 0 1.5.7 1.5 1.5c0 .8-.7 1.5-1.5 1.5s-1.5-.7-1.5-1.5c.1-.8.7-1.5 1.5-1.5"/><path class="st3" d="m36.7 104.5c.8 0 1.5.7 1.5 1.5c0 .8-.7 1.5-1.5 1.5s-1.5-.7-1.5-1.5c.1-.8.7-1.5 1.5-1.5"/><path class="st3" d="m36.7 108.5c.8 0 1.5.7 1.5 1.5c0 .8-.7 1.5-1.5 1.5s-1.5-.7-1.5-1.5c.1-.8.7-1.5 1.5-1.5"/><path class="st3" d="m36.7 112.5c.8 0 1.5.7 1.5 1.5c0 .8-.7 1.5-1.5 1.5s-1.5-.7-1.5-1.5c.1-.8.7-1.5 1.5-1.5"/><path class="st3" d="m36.7 116.5c.8 0 1.5.7 1.5 1.5c0 .8-.7 1.5-1.5 1.5s-1.5-.7-1.5-1.5c.1-.8.7-1.5 1.5-1.5"/><path class="st3" d="m36.7 120.5c.8 0 1.5.7 1.5 1.5c0 .8-.7 1.5-1.5 1.5s-1.5-.7-1.5-1.5c.1-.9.7-1.5 1.5-1.5"/><path class="st3" d="m36.7 124.5c.8 0 1.5.7 1.5 1.5c0 .8-.7 1.5-1.5 1.5s-1.5-.7-1.5-1.5c.1-.9.7-1.5 1.5-1.5"/><path class="st3" d="m36.7 128.4c.8 0 1.5.7 1.5 1.5c0 .8-.7 1.5-1.5 1.5s-1.5-.7-1.5-1.5c.1-.8.7-1.5 1.5-1.5"/><path class="st2" d="m36.7 132.4c.8 0 1.5.7 1.5 1.5c0 .8-.7 1.5-1.5 1.5s-1.5-.7-1.5-1.5c.1-.8.7-1.5 1.5-1.5"/><path class="st2" d="m36.7 136.4c.8 0 1.5.7 1.5 1.5c0 .8-.7 1.5-1.5 1.5s-1.5-.7-1.5-1.5c.1-.8.7-1.5 1.5-1.5"/><path class="st2" d="m36.7 140.4c.8 0 1.5.7 1.5 1.5s-.7 1.5-1.5 1.5s-1.5-.7-1.5-1.5s.7-1.5 1.5-1.5"/><path class="st2" d="m41 .9c.8 0 1.5.7 1.5 1.5c0 .8-.7 1.5-1.5 1.5c-.8 0-1.5-.7-1.5-1.5c0-.9.7-1.5 1.5-1.5"/><path class="st2" d="m41 4.9c.8 0 1.5.7 1.5 1.5c0 .8-.7 1.5-1.5 1.5c-.8 0-1.5-.7-1.5-1.5c0-.9.7-1.5 1.5-1.5"/><path class="st2" d="m41 8.8c.8 0 1.5.7 1.5 1.5c0 .8-.7 1.5-1.5 1.5c-.8 0-1.5-.7-1.5-1.5c0-.8.7-1.5 1.5-1.5"/><path class="st3" d="m41 12.8c.8 0 1.5.7 1.5 1.5c0 .8-.7 1.5-1.5 1.5c-.8 0-1.5-.7-1.5-1.5c0-.8.7-1.5 1.5-1.5"/><path class="st3" d="m41 16.8c.8 0 1.5.7 1.5 1.5s-.7 1.5-1.5 1.5c-.8 0-1.5-.7-1.5-1.5s.7-1.5 1.5-1.5"/><path class="st3" d="m41 20.8c.8 0 1.5.7 1.5 1.5c0 .8-.7 1.5-1.5 1.5c-.8 0-1.5-.7-1.5-1.5c0-.8.7-1.5 1.5-1.5"/><path class="st3" d="m41 24.8c.8 0 1.5.7 1.5 1.5c0 .8-.7 1.5-1.5 1.5c-.8 0-1.5-.7-1.5-1.5c0-.8.7-1.5 1.5-1.5"/><path class="st3" d="m41 28.8c.8 0 1.5.7 1.5 1.5c0 .8-.7 1.5-1.5 1.5c-.8 0-1.5-.7-1.5-1.5c0-.9.7-1.5 1.5-1.5"/><path class="st3" d="m41 32.8c.8 0 1.5.7 1.5 1.5c0 .8-.7 1.5-1.5 1.5c-.8 0-1.5-.7-1.5-1.5c0-.9.7-1.5 1.5-1.5"/><path class="st3" d="m41 36.8c.8 0 1.5.7 1.5 1.5c0 .8-.7 1.5-1.5 1.5c-.8 0-1.5-.7-1.5-1.5c0-.9.7-1.5 1.5-1.5"/><path class="st3" d="m41 40.7c.8 0 1.5.7 1.5 1.5c0 .8-.7 1.5-1.5 1.5c-.8 0-1.5-.7-1.5-1.5c0-.8.7-1.5 1.5-1.5"/><path class="st3" d="m41 44.7c.8 0 1.5.7 1.5 1.5c0 .8-.7 1.5-1.5 1.5c-.8 0-1.5-.7-1.5-1.5c0-.8.7-1.5 1.5-1.5"/><path class="st3" d="m41 48.7c.8 0 1.5.7 1.5 1.5c0 .8-.7 1.5-1.5 1.5c-.8 0-1.5-.7-1.5-1.5c0-.8.7-1.5 1.5-1.5"/><path class="st3" d="m41 52.7c.8 0 1.5.7 1.5 1.5c0 .8-.7 1.5-1.5 1.5c-.8 0-1.5-.7-1.5-1.5c0-.8.7-1.5 1.5-1.5"/><path class="st3" d="m41 56.7c.8 0 1.5.7 1.5 1.5c0 .8-.7 1.5-1.5 1.5c-.8 0-1.5-.7-1.5-1.5c0-.8.7-1.5 1.5-1.5"/><path class="st3" d="m41 84.6c.8 0 1.5.7 1.5 1.5c0 .8-.7 1.5-1.5 1.5c-.8 0-1.5-.7-1.5-1.5c0-.8.7-1.5 1.5-1.5"/><path class="st3" d="m41 88.6c.8 0 1.5.7 1.5 1.5c0 .8-.7 1.5-1.5 1.5c-.8 0-1.5-.7-1.5-1.5c0-.9.7-1.5 1.5-1.5"/><path class="st3" d="m41 92.6c.8 0 1.5.7 1.5 1.5c0 .8-.7 1.5-1.5 1.5c-.8 0-1.5-.7-1.5-1.5c0-.9.7-1.5 1.5-1.5"/><path class="st3" d="m41 96.6c.8 0 1.5.7 1.5 1.5c0 .8-.7 1.5-1.5 1.5c-.8 0-1.5-.7-1.5-1.5c0-.9.7-1.5 1.5-1.5"/><path class="st3" d="m41 100.5c.8 0 1.5.7 1.5 1.5c0 .8-.7 1.5-1.5 1.5c-.8 0-1.5-.7-1.5-1.5c0-.8.7-1.5 1.5-1.5"/><path class="st3" d="m41 104.5c.8 0 1.5.7 1.5 1.5c0 .8-.7 1.5-1.5 1.5c-.8 0-1.5-.7-1.5-1.5c0-.8.7-1.5 1.5-1.5"/><path class="st3" d="m41 108.5c.8 0 1.5.7 1.5 1.5c0 .8-.7 1.5-1.5 1.5c-.8 0-1.5-.7-1.5-1.5c0-.8.7-1.5 1.5-1.5"/><path class="st3" d="m41 112.5c.8 0 1.5.7 1.5 1.5c0 .8-.7 1.5-1.5 1.5c-.8 0-1.5-.7-1.5-1.5c0-.8.7-1.5 1.5-1.5"/><path class="st3" d="m41 116.5c.8 0 1.5.7 1.5 1.5c0 .8-.7 1.5-1.5 1.5c-.8 0-1.5-.7-1.5-1.5c0-.8.7-1.5 1.5-1.5"/><path class="st3" d="m41 120.5c.8 0 1.5.7 1.5 1.5c0 .8-.7 1.5-1.5 1.5c-.8 0-1.5-.7-1.5-1.5c0-.9.7-1.5 1.5-1.5"/><path class="st3" d="m41 124.5c.8 0 1.5.7 1.5 1.5c0 .8-.7 1.5-1.5 1.5c-.8 0-1.5-.7-1.5-1.5c0-.9.7-1.5 1.5-1.5"/><path class="st3" d="m41 128.4c.8 0 1.5.7 1.5 1.5c0 .8-.7 1.5-1.5 1.5c-.8 0-1.5-.7-1.5-1.5c0-.8.7-1.5 1.5-1.5"/><path class="st2" d="m41 132.4c.8 0 1.5.7 1.5 1.5c0 .8-.7 1.5-1.5 1.5c-.8 0-1.5-.7-1.5-1.5c0-.8.7-1.5 1.5-1.5"/><path class="st2" d="m41 136.4c.8 0 1.5.7 1.5 1.5c0 .8-.7 1.5-1.5 1.5c-.8 0-1.5-.7-1.5-1.5c0-.8.7-1.5 1.5-1.5"/><path class="st2" d="m41 140.4c.8 0 1.5.7 1.5 1.5s-.7 1.5-1.5 1.5c-.8 0-1.5-.7-1.5-1.5s.7-1.5 1.5-1.5"/><path class="st2" d="m45.3.9c.8 0 1.5.7 1.5 1.5c0 .8-.7 1.5-1.5 1.5c-.8 0-1.5-.7-1.5-1.5c0-.9.7-1.5 1.5-1.5"/><path class="st2" d="m45.3 4.9c.8 0 1.5.7 1.5 1.5c0 .8-.7 1.5-1.5 1.5c-.8 0-1.5-.7-1.5-1.5c0-.9.7-1.5 1.5-1.5"/><path class="st2" d="m45.3 8.8c.8 0 1.5.7 1.5 1.5c0 .8-.7 1.5-1.5 1.5c-.8 0-1.5-.7-1.5-1.5c0-.8.7-1.5 1.5-1.5"/><path class="st3" d="m45.3 12.8c.8 0 1.5.7 1.5 1.5c0 .8-.7 1.5-1.5 1.5c-.8 0-1.5-.7-1.5-1.5c0-.8.7-1.5 1.5-1.5"/><path class="st3" d="m45.3 16.8c.8 0 1.5.7 1.5 1.5s-.7 1.5-1.5 1.5c-.8 0-1.5-.7-1.5-1.5s.7-1.5 1.5-1.5"/><path class="st3" d="m45.3 20.8c.8 0 1.5.7 1.5 1.5c0 .8-.7 1.5-1.5 1.5c-.8 0-1.5-.7-1.5-1.5c0-.8.7-1.5 1.5-1.5"/><path class="st3" d="m45.3 24.8c.8 0 1.5.7 1.5 1.5c0 .8-.7 1.5-1.5 1.5c-.8 0-1.5-.7-1.5-1.5c0-.8.7-1.5 1.5-1.5"/><path class="st3" d="m45.3 28.8c.8 0 1.5.7 1.5 1.5c0 .8-.7 1.5-1.5 1.5c-.8 0-1.5-.7-1.5-1.5c0-.9.7-1.5 1.5-1.5"/><path class="st3" d="m45.3 32.8c.8 0 1.5.7 1.5 1.5c0 .8-.7 1.5-1.5 1.5c-.8 0-1.5-.7-1.5-1.5c0-.9.7-1.5 1.5-1.5"/><path class="st3" d="m45.3 36.8c.8 0 1.5.7 1.5 1.5c0 .8-.7 1.5-1.5 1.5c-.8 0-1.5-.7-1.5-1.5c0-.9.7-1.5 1.5-1.5"/><path class="st3" d="m45.3 40.7c.8 0 1.5.7 1.5 1.5c0 .8-.7 1.5-1.5 1.5c-.8 0-1.5-.7-1.5-1.5c0-.8.7-1.5 1.5-1.5"/><path class="st3" d="m45.3 44.7c.8 0 1.5.7 1.5 1.5c0 .8-.7 1.5-1.5 1.5c-.8 0-1.5-.7-1.5-1.5c0-.8.7-1.5 1.5-1.5"/><path class="st3" d="m45.3 48.7c.8 0 1.5.7 1.5 1.5c0 .8-.7 1.5-1.5 1.5c-.8 0-1.5-.7-1.5-1.5c0-.8.7-1.5 1.5-1.5"/><path class="st3" d="m45.3 92.6c.8 0 1.5.7 1.5 1.5c0 .8-.7 1.5-1.5 1.5c-.8 0-1.5-.7-1.5-1.5c0-.9.7-1.5 1.5-1.5"/><path class="st3" d="m45.3 96.6c.8 0 1.5.7 1.5 1.5c0 .8-.7 1.5-1.5 1.5c-.8 0-1.5-.7-1.5-1.5c0-.9.7-1.5 1.5-1.5"/><path class="st3" d="m45.3 100.5c.8 0 1.5.7 1.5 1.5c0 .8-.7 1.5-1.5 1.5c-.8 0-1.5-.7-1.5-1.5c0-.8.7-1.5 1.5-1.5"/><path class="st3" d="m45.3 104.5c.8 0 1.5.7 1.5 1.5c0 .8-.7 1.5-1.5 1.5c-.8 0-1.5-.7-1.5-1.5c0-.8.7-1.5 1.5-1.5"/><path class="st3" d="m45.3 108.5c.8 0 1.5.7 1.5 1.5c0 .8-.7 1.5-1.5 1.5c-.8 0-1.5-.7-1.5-1.5c0-.8.7-1.5 1.5-1.5"/><path class="st3" d="m45.3 112.5c.8 0 1.5.7 1.5 1.5c0 .8-.7 1.5-1.5 1.5c-.8 0-1.5-.7-1.5-1.5c0-.8.7-1.5 1.5-1.5"/><path class="st3" d="m45.3 116.5c.8 0 1.5.7 1.5 1.5c0 .8-.7 1.5-1.5 1.5c-.8 0-1.5-.7-1.5-1.5c0-.8.7-1.5 1.5-1.5"/><path class="st3" d="m45.3 120.5c.8 0 1.5.7 1.5 1.5c0 .8-.7 1.5-1.5 1.5c-.8 0-1.5-.7-1.5-1.5c0-.9.7-1.5 1.5-1.5"/><path class="st3" d="m45.3 124.5c.8 0 1.5.7 1.5 1.5c0 .8-.7 1.5-1.5 1.5c-.8 0-1.5-.7-1.5-1.5c0-.9.7-1.5 1.5-1.5"/><path class="st3" d="m45.3 128.4c.8 0 1.5.7 1.5 1.5c0 .8-.7 1.5-1.5 1.5c-.8 0-1.5-.7-1.5-1.5c0-.8.7-1.5 1.5-1.5"/><path class="st2" d="m45.3 132.4c.8 0 1.5.7 1.5 1.5c0 .8-.7 1.5-1.5 1.5c-.8 0-1.5-.7-1.5-1.5c0-.8.7-1.5 1.5-1.5"/><path class="st2" d="m45.3 136.4c.8 0 1.5.7 1.5 1.5c0 .8-.7 1.5-1.5 1.5c-.8 0-1.5-.7-1.5-1.5c0-.8.7-1.5 1.5-1.5"/><path class="st2" d="m45.3 140.4c.8 0 1.5.7 1.5 1.5s-.7 1.5-1.5 1.5c-.8 0-1.5-.7-1.5-1.5s.7-1.5 1.5-1.5"/><path class="st2" d="m49.6.9c.8 0 1.5.7 1.5 1.5c0 .8-.7 1.5-1.5 1.5c-.8 0-1.5-.7-1.5-1.5c0-.9.6-1.5 1.5-1.5"/><path class="st2" d="m49.6 4.9c.8 0 1.5.7 1.5 1.5c0 .8-.7 1.5-1.5 1.5c-.8 0-1.5-.7-1.5-1.5c0-.9.6-1.5 1.5-1.5"/><path class="st2" d="m49.6 8.8c.8 0 1.5.7 1.5 1.5c0 .8-.7 1.5-1.5 1.5c-.8 0-1.5-.7-1.5-1.5c0-.8.6-1.5 1.5-1.5"/><path class="st3" d="m49.6 12.8c.8 0 1.5.7 1.5 1.5c0 .8-.7 1.5-1.5 1.5c-.8 0-1.5-.7-1.5-1.5c0-.8.6-1.5 1.5-1.5"/><path class="st3" d="m49.6 16.8c.8 0 1.5.7 1.5 1.5s-.7 1.5-1.5 1.5c-.8 0-1.5-.7-1.5-1.5s.6-1.5 1.5-1.5"/><path class="st3" d="m49.6 20.8c.8 0 1.5.7 1.5 1.5c0 .8-.7 1.5-1.5 1.5c-.8 0-1.5-.7-1.5-1.5c0-.8.6-1.5 1.5-1.5"/><path class="st3" d="m49.6 24.8c.8 0 1.5.7 1.5 1.5c0 .8-.7 1.5-1.5 1.5c-.8 0-1.5-.7-1.5-1.5c0-.8.6-1.5 1.5-1.5"/><path class="st3" d="m49.6 28.8c.8 0 1.5.7 1.5 1.5c0 .8-.7 1.5-1.5 1.5c-.8 0-1.5-.7-1.5-1.5c0-.9.6-1.5 1.5-1.5"/><path class="st3" d="m49.6 32.8c.8 0 1.5.7 1.5 1.5c0 .8-.7 1.5-1.5 1.5c-.8 0-1.5-.7-1.5-1.5c0-.9.6-1.5 1.5-1.5"/><path class="st3" d="m49.6 36.8c.8 0 1.5.7 1.5 1.5c0 .8-.7 1.5-1.5 1.5c-.8 0-1.5-.7-1.5-1.5c0-.9.6-1.5 1.5-1.5"/><path class="st3" d="m49.6 40.7c.8 0 1.5.7 1.5 1.5c0 .8-.7 1.5-1.5 1.5c-.8 0-1.5-.7-1.5-1.5c0-.8.6-1.5 1.5-1.5"/><path class="st3" d="m49.6 44.7c.8 0 1.5.7 1.5 1.5c0 .8-.7 1.5-1.5 1.5c-.8 0-1.5-.7-1.5-1.5c0-.8.6-1.5 1.5-1.5"/><path class="st3" d="m49.6 96.6c.8 0 1.5.7 1.5 1.5c0 .8-.7 1.5-1.5 1.5c-.8 0-1.5-.7-1.5-1.5c0-.9.6-1.5 1.5-1.5"/><path class="st3" d="m49.6 100.5c.8 0 1.5.7 1.5 1.5c0 .8-.7 1.5-1.5 1.5c-.8 0-1.5-.7-1.5-1.5c0-.8.6-1.5 1.5-1.5"/><path class="st3" d="m49.6 104.5c.8 0 1.5.7 1.5 1.5c0 .8-.7 1.5-1.5 1.5c-.8 0-1.5-.7-1.5-1.5c0-.8.6-1.5 1.5-1.5"/><path class="st3" d="m49.6 108.5c.8 0 1.5.7 1.5 1.5c0 .8-.7 1.5-1.5 1.5c-.8 0-1.5-.7-1.5-1.5c0-.8.6-1.5 1.5-1.5"/><path class="st3" d="m49.6 112.5c.8 0 1.5.7 1.5 1.5c0 .8-.7 1.5-1.5 1.5c-.8 0-1.5-.7-1.5-1.5c0-.8.6-1.5 1.5-1.5"/><path class="st3" d="m49.6 116.5c.8 0 1.5.7 1.5 1.5c0 .8-.7 1.5-1.5 1.5c-.8 0-1.5-.7-1.5-1.5c0-.8.6-1.5 1.5-1.5"/><path class="st3" d="m49.6 120.5c.8 0 1.5.7 1.5 1.5c0 .8-.7 1.5-1.5 1.5c-.8 0-1.5-.7-1.5-1.5c0-.9.6-1.5 1.5-1.5"/><path class="st3" d="m49.6 124.5c.8 0 1.5.7 1.5 1.5c0 .8-.7 1.5-1.5 1.5c-.8 0-1.5-.7-1.5-1.5c0-.9.6-1.5 1.5-1.5"/><path class="st3" d="m49.6 128.4c.8 0 1.5.7 1.5 1.5c0 .8-.7 1.5-1.5 1.5c-.8 0-1.5-.7-1.5-1.5c0-.8.6-1.5 1.5-1.5"/><path class="st2" d="m49.6 132.4c.8 0 1.5.7 1.5 1.5c0 .8-.7 1.5-1.5 1.5c-.8 0-1.5-.7-1.5-1.5c0-.8.6-1.5 1.5-1.5"/><path class="st2" d="m49.6 136.4c.8 0 1.5.7 1.5 1.5c0 .8-.7 1.5-1.5 1.5c-.8 0-1.5-.7-1.5-1.5c0-.8.6-1.5 1.5-1.5"/><path class="st2" d="m49.6 140.4c.8 0 1.5.7 1.5 1.5s-.7 1.5-1.5 1.5c-.8 0-1.5-.7-1.5-1.5s.6-1.5 1.5-1.5"/><path class="st2" d="m53.8.9c.8 0 1.5.7 1.5 1.5c0 .8-.7 1.5-1.5 1.5c-.8 0-1.5-.7-1.5-1.5c.1-.9.7-1.5 1.5-1.5"/><path class="st2" d="m53.8 4.9c.8 0 1.5.7 1.5 1.5c0 .8-.7 1.5-1.5 1.5c-.8 0-1.5-.7-1.5-1.5c.1-.9.7-1.5 1.5-1.5"/><path class="st2" d="m53.8 8.8c.8 0 1.5.7 1.5 1.5c0 .8-.7 1.5-1.5 1.5c-.8 0-1.5-.7-1.5-1.5c.1-.8.7-1.5 1.5-1.5"/><path class="st3" d="m53.8 12.8c.8 0 1.5.7 1.5 1.5c0 .8-.7 1.5-1.5 1.5c-.8 0-1.5-.7-1.5-1.5c.1-.8.7-1.5 1.5-1.5"/><path class="st3" d="m53.8 16.8c.8 0 1.5.7 1.5 1.5s-.7 1.5-1.5 1.5c-.8 0-1.5-.7-1.5-1.5s.7-1.5 1.5-1.5"/><path class="st3" d="m53.8 20.8c.8 0 1.5.7 1.5 1.5c0 .8-.7 1.5-1.5 1.5c-.8 0-1.5-.7-1.5-1.5c.1-.8.7-1.5 1.5-1.5"/><path class="st3" d="m53.8 24.8c.8 0 1.5.7 1.5 1.5c0 .8-.7 1.5-1.5 1.5c-.8 0-1.5-.7-1.5-1.5c.1-.8.7-1.5 1.5-1.5"/><path class="st3" d="m53.8 28.8c.8 0 1.5.7 1.5 1.5c0 .8-.7 1.5-1.5 1.5c-.8 0-1.5-.7-1.5-1.5c.1-.9.7-1.5 1.5-1.5"/><path class="st3" d="m53.8 32.8c.8 0 1.5.7 1.5 1.5c0 .8-.7 1.5-1.5 1.5c-.8 0-1.5-.7-1.5-1.5c.1-.9.7-1.5 1.5-1.5"/><path class="st3" d="m53.8 36.8c.8 0 1.5.7 1.5 1.5c0 .8-.7 1.5-1.5 1.5c-.8 0-1.5-.7-1.5-1.5c.1-.9.7-1.5 1.5-1.5"/><path class="st3" d="m53.8 40.7c.8 0 1.5.7 1.5 1.5c0 .8-.7 1.5-1.5 1.5c-.8 0-1.5-.7-1.5-1.5c.1-.8.7-1.5 1.5-1.5"/><path class="st3" d="m53.8 44.7c.8 0 1.5.7 1.5 1.5c0 .8-.7 1.5-1.5 1.5c-.8 0-1.5-.7-1.5-1.5c.1-.8.7-1.5 1.5-1.5"/><path class="st3" d="m53.8 96.6c.8 0 1.5.7 1.5 1.5c0 .8-.7 1.5-1.5 1.5c-.8 0-1.5-.7-1.5-1.5c.1-.9.7-1.5 1.5-1.5"/><path class="st3" d="m53.8 100.5c.8 0 1.5.7 1.5 1.5c0 .8-.7 1.5-1.5 1.5c-.8 0-1.5-.7-1.5-1.5c.1-.8.7-1.5 1.5-1.5"/><path class="st3" d="m53.8 104.5c.8 0 1.5.7 1.5 1.5c0 .8-.7 1.5-1.5 1.5c-.8 0-1.5-.7-1.5-1.5c.1-.8.7-1.5 1.5-1.5"/><path class="st3" d="m53.8 108.5c.8 0 1.5.7 1.5 1.5c0 .8-.7 1.5-1.5 1.5c-.8 0-1.5-.7-1.5-1.5c.1-.8.7-1.5 1.5-1.5"/><path class="st3" d="m53.8 112.5c.8 0 1.5.7 1.5 1.5c0 .8-.7 1.5-1.5 1.5c-.8 0-1.5-.7-1.5-1.5c.1-.8.7-1.5 1.5-1.5"/><path class="st3" d="m53.8 116.5c.8 0 1.5.7 1.5 1.5c0 .8-.7 1.5-1.5 1.5c-.8 0-1.5-.7-1.5-1.5c.1-.8.7-1.5 1.5-1.5"/><path class="st3" d="m53.8 120.5c.8 0 1.5.7 1.5 1.5c0 .8-.7 1.5-1.5 1.5c-.8 0-1.5-.7-1.5-1.5c.1-.9.7-1.5 1.5-1.5"/><path class="st3" d="m53.8 124.5c.8 0 1.5.7 1.5 1.5c0 .8-.7 1.5-1.5 1.5c-.8 0-1.5-.7-1.5-1.5c.1-.9.7-1.5 1.5-1.5"/><path class="st3" d="m53.8 128.4c.8 0 1.5.7 1.5 1.5c0 .8-.7 1.5-1.5 1.5c-.8 0-1.5-.7-1.5-1.5c.1-.8.7-1.5 1.5-1.5"/><path class="st2" d="m53.8 132.4c.8 0 1.5.7 1.5 1.5c0 .8-.7 1.5-1.5 1.5c-.8 0-1.5-.7-1.5-1.5c.1-.8.7-1.5 1.5-1.5"/><path class="st2" d="m53.8 136.4c.8 0 1.5.7 1.5 1.5c0 .8-.7 1.5-1.5 1.5c-.8 0-1.5-.7-1.5-1.5c.1-.8.7-1.5 1.5-1.5"/><path class="st2" d="m53.8 140.4c.8 0 1.5.7 1.5 1.5s-.7 1.5-1.5 1.5c-.8 0-1.5-.7-1.5-1.5s.7-1.5 1.5-1.5"/><path class="st2" d="m58.1.9c.8 0 1.5.7 1.5 1.5c0 .8-.7 1.5-1.5 1.5c-.8 0-1.5-.7-1.5-1.5c0-.9.7-1.5 1.5-1.5"/><path class="st2" d="m58.1 4.9c.8 0 1.5.7 1.5 1.5c0 .8-.7 1.5-1.5 1.5c-.8 0-1.5-.7-1.5-1.5c0-.9.7-1.5 1.5-1.5"/><path class="st2" d="m58.1 8.8c.8 0 1.5.7 1.5 1.5c0 .8-.7 1.5-1.5 1.5c-.8 0-1.5-.7-1.5-1.5c0-.8.7-1.5 1.5-1.5"/><path class="st3" d="m58.1 12.8c.8 0 1.5.7 1.5 1.5c0 .8-.7 1.5-1.5 1.5c-.8 0-1.5-.7-1.5-1.5c0-.8.7-1.5 1.5-1.5"/><path class="st3" d="m58.1 16.8c.8 0 1.5.7 1.5 1.5s-.7 1.5-1.5 1.5c-.8 0-1.5-.7-1.5-1.5s.7-1.5 1.5-1.5"/><path class="st3" d="m58.1 20.8c.8 0 1.5.7 1.5 1.5c0 .8-.7 1.5-1.5 1.5c-.8 0-1.5-.7-1.5-1.5c0-.8.7-1.5 1.5-1.5"/><path class="st3" d="m58.1 24.8c.8 0 1.5.7 1.5 1.5c0 .8-.7 1.5-1.5 1.5c-.8 0-1.5-.7-1.5-1.5c0-.8.7-1.5 1.5-1.5"/><path class="st3" d="m58.1 28.8c.8 0 1.5.7 1.5 1.5c0 .8-.7 1.5-1.5 1.5c-.8 0-1.5-.7-1.5-1.5c0-.9.7-1.5 1.5-1.5"/><path class="st3" d="m58.1 32.8c.8 0 1.5.7 1.5 1.5c0 .8-.7 1.5-1.5 1.5c-.8 0-1.5-.7-1.5-1.5c0-.9.7-1.5 1.5-1.5"/><path class="st3" d="m58.1 36.8c.8 0 1.5.7 1.5 1.5c0 .8-.7 1.5-1.5 1.5c-.8 0-1.5-.7-1.5-1.5c0-.9.7-1.5 1.5-1.5"/><path class="st3" d="m58.1 40.7c.8 0 1.5.7 1.5 1.5c0 .8-.7 1.5-1.5 1.5c-.8 0-1.5-.7-1.5-1.5c0-.8.7-1.5 1.5-1.5"/><path class="st3" d="m58.1 100.5c.8 0 1.5.7 1.5 1.5c0 .8-.7 1.5-1.5 1.5c-.8 0-1.5-.7-1.5-1.5c0-.8.7-1.5 1.5-1.5"/><path class="st3" d="m58.1 104.5c.8 0 1.5.7 1.5 1.5c0 .8-.7 1.5-1.5 1.5c-.8 0-1.5-.7-1.5-1.5c0-.8.7-1.5 1.5-1.5"/><path class="st3" d="m58.1 108.5c.8 0 1.5.7 1.5 1.5c0 .8-.7 1.5-1.5 1.5c-.8 0-1.5-.7-1.5-1.5c0-.8.7-1.5 1.5-1.5"/><path class="st3" d="m58.1 112.5c.8 0 1.5.7 1.5 1.5c0 .8-.7 1.5-1.5 1.5c-.8 0-1.5-.7-1.5-1.5c0-.8.7-1.5 1.5-1.5"/><path class="st3" d="m58.1 116.5c.8 0 1.5.7 1.5 1.5c0 .8-.7 1.5-1.5 1.5c-.8 0-1.5-.7-1.5-1.5c0-.8.7-1.5 1.5-1.5"/><path class="st3" d="m58.1 120.5c.8 0 1.5.7 1.5 1.5c0 .8-.7 1.5-1.5 1.5c-.8 0-1.5-.7-1.5-1.5c0-.9.7-1.5 1.5-1.5"/><path class="st3" d="m58.1 124.5c.8 0 1.5.7 1.5 1.5c0 .8-.7 1.5-1.5 1.5c-.8 0-1.5-.7-1.5-1.5c0-.9.7-1.5 1.5-1.5"/><path class="st3" d="m58.1 128.4c.8 0 1.5.7 1.5 1.5c0 .8-.7 1.5-1.5 1.5c-.8 0-1.5-.7-1.5-1.5c0-.8.7-1.5 1.5-1.5"/><path class="st2" d="m58.1 132.4c.8 0 1.5.7 1.5 1.5c0 .8-.7 1.5-1.5 1.5c-.8 0-1.5-.7-1.5-1.5c0-.8.7-1.5 1.5-1.5"/><path class="st2" d="m58.1 136.4c.8 0 1.5.7 1.5 1.5c0 .8-.7 1.5-1.5 1.5c-.8 0-1.5-.7-1.5-1.5c0-.8.7-1.5 1.5-1.5"/><path class="st2" d="m58.1 140.4c.8 0 1.5.7 1.5 1.5s-.7 1.5-1.5 1.5c-.8 0-1.5-.7-1.5-1.5s.7-1.5 1.5-1.5"/><path class="st2" d="m62.4.9c.8 0 1.5.7 1.5 1.5c0 .8-.7 1.5-1.5 1.5c-.8 0-1.5-.7-1.5-1.5c0-.9.7-1.5 1.5-1.5"/><path class="st2" d="m62.4 4.9c.8 0 1.5.7 1.5 1.5c0 .8-.7 1.5-1.5 1.5c-.8 0-1.5-.7-1.5-1.5c0-.9.7-1.5 1.5-1.5"/><path class="st2" d="m62.4 8.8c.8 0 1.5.7 1.5 1.5c0 .8-.7 1.5-1.5 1.5c-.8 0-1.5-.7-1.5-1.5c0-.8.7-1.5 1.5-1.5"/><path class="st3" d="m62.4 12.8c.8 0 1.5.7 1.5 1.5c0 .8-.7 1.5-1.5 1.5c-.8 0-1.5-.7-1.5-1.5c0-.8.7-1.5 1.5-1.5"/><path class="st3" d="m62.4 16.8c.8 0 1.5.7 1.5 1.5s-.7 1.5-1.5 1.5c-.8 0-1.5-.7-1.5-1.5s.7-1.5 1.5-1.5"/><path class="st3" d="m62.4 20.8c.8 0 1.5.7 1.5 1.5c0 .8-.7 1.5-1.5 1.5c-.8 0-1.5-.7-1.5-1.5c0-.8.7-1.5 1.5-1.5"/><path class="st3" d="m62.4 24.8c.8 0 1.5.7 1.5 1.5c0 .8-.7 1.5-1.5 1.5c-.8 0-1.5-.7-1.5-1.5c0-.8.7-1.5 1.5-1.5"/><path class="st3" d="m62.4 28.8c.8 0 1.5.7 1.5 1.5c0 .8-.7 1.5-1.5 1.5c-.8 0-1.5-.7-1.5-1.5c0-.9.7-1.5 1.5-1.5"/><path class="st3" d="m62.4 32.8c.8 0 1.5.7 1.5 1.5c0 .8-.7 1.5-1.5 1.5c-.8 0-1.5-.7-1.5-1.5c0-.9.7-1.5 1.5-1.5"/><path class="st3" d="m62.4 36.8c.8 0 1.5.7 1.5 1.5c0 .8-.7 1.5-1.5 1.5c-.8 0-1.5-.7-1.5-1.5c0-.9.7-1.5 1.5-1.5"/><path class="st3" d="m62.4 40.7c.8 0 1.5.7 1.5 1.5c0 .8-.7 1.5-1.5 1.5c-.8 0-1.5-.7-1.5-1.5c0-.8.7-1.5 1.5-1.5"/><path class="st3" d="m62.4 100.5c.8 0 1.5.7 1.5 1.5c0 .8-.7 1.5-1.5 1.5c-.8 0-1.5-.7-1.5-1.5c0-.8.7-1.5 1.5-1.5"/><path class="st3" d="m62.4 104.5c.8 0 1.5.7 1.5 1.5c0 .8-.7 1.5-1.5 1.5c-.8 0-1.5-.7-1.5-1.5c0-.8.7-1.5 1.5-1.5"/><path class="st3" d="m62.4 108.5c.8 0 1.5.7 1.5 1.5c0 .8-.7 1.5-1.5 1.5c-.8 0-1.5-.7-1.5-1.5c0-.8.7-1.5 1.5-1.5"/><path class="st3" d="m62.4 112.5c.8 0 1.5.7 1.5 1.5c0 .8-.7 1.5-1.5 1.5c-.8 0-1.5-.7-1.5-1.5c0-.8.7-1.5 1.5-1.5"/><path class="st3" d="m62.4 116.5c.8 0 1.5.7 1.5 1.5c0 .8-.7 1.5-1.5 1.5c-.8 0-1.5-.7-1.5-1.5c0-.8.7-1.5 1.5-1.5"/><path class="st3" d="m62.4 120.5c.8 0 1.5.7 1.5 1.5c0 .8-.7 1.5-1.5 1.5c-.8 0-1.5-.7-1.5-1.5c0-.9.7-1.5 1.5-1.5"/><path class="st3" d="m62.4 124.5c.8 0 1.5.7 1.5 1.5c0 .8-.7 1.5-1.5 1.5c-.8 0-1.5-.7-1.5-1.5c0-.9.7-1.5 1.5-1.5"/><path class="st3" d="m62.4 128.4c.8 0 1.5.7 1.5 1.5c0 .8-.7 1.5-1.5 1.5c-.8 0-1.5-.7-1.5-1.5c0-.8.7-1.5 1.5-1.5"/><path class="st2" d="m62.4 132.4c.8 0 1.5.7 1.5 1.5c0 .8-.7 1.5-1.5 1.5c-.8 0-1.5-.7-1.5-1.5c0-.8.7-1.5 1.5-1.5"/><path class="st2" d="m62.4 136.4c.8 0 1.5.7 1.5 1.5c0 .8-.7 1.5-1.5 1.5c-.8 0-1.5-.7-1.5-1.5c0-.8.7-1.5 1.5-1.5"/><path class="st2" d="m62.4 140.4c.8 0 1.5.7 1.5 1.5s-.7 1.5-1.5 1.5c-.8 0-1.5-.7-1.5-1.5s.7-1.5 1.5-1.5"/><path class="st2" d="m66.7.9c.8 0 1.5.7 1.5 1.5c0 .8-.7 1.5-1.5 1.5c-.8 0-1.5-.7-1.5-1.5c0-.9.6-1.5 1.5-1.5"/><path class="st2" d="m66.7 4.9c.8 0 1.5.7 1.5 1.5c0 .8-.7 1.5-1.5 1.5c-.8 0-1.5-.7-1.5-1.5c0-.9.6-1.5 1.5-1.5"/><path class="st2" d="m66.7 8.8c.8 0 1.5.7 1.5 1.5c0 .8-.7 1.5-1.5 1.5c-.8 0-1.5-.7-1.5-1.5c0-.8.6-1.5 1.5-1.5"/><path class="st3" d="m66.7 12.8c.8 0 1.5.7 1.5 1.5c0 .8-.7 1.5-1.5 1.5c-.8 0-1.5-.7-1.5-1.5c0-.8.6-1.5 1.5-1.5"/><path class="st3" d="m66.7 16.8c.8 0 1.5.7 1.5 1.5s-.7 1.5-1.5 1.5c-.8 0-1.5-.7-1.5-1.5s.6-1.5 1.5-1.5"/><path class="st3" d="m66.7 20.8c.8 0 1.5.7 1.5 1.5c0 .8-.7 1.5-1.5 1.5c-.8 0-1.5-.7-1.5-1.5c0-.8.6-1.5 1.5-1.5"/><path class="st3" d="m66.7 24.8c.8 0 1.5.7 1.5 1.5c0 .8-.7 1.5-1.5 1.5c-.8 0-1.5-.7-1.5-1.5c0-.8.6-1.5 1.5-1.5"/><path class="st3" d="m66.7 28.8c.8 0 1.5.7 1.5 1.5c0 .8-.7 1.5-1.5 1.5c-.8 0-1.5-.7-1.5-1.5c0-.9.6-1.5 1.5-1.5"/><path class="st3" d="m66.7 32.8c.8 0 1.5.7 1.5 1.5c0 .8-.7 1.5-1.5 1.5c-.8 0-1.5-.7-1.5-1.5c0-.9.6-1.5 1.5-1.5"/><path class="st3" d="m66.7 36.8c.8 0 1.5.7 1.5 1.5c0 .8-.7 1.5-1.5 1.5c-.8 0-1.5-.7-1.5-1.5c0-.9.6-1.5 1.5-1.5"/><path class="st3" d="m66.7 40.7c.8 0 1.5.7 1.5 1.5c0 .8-.7 1.5-1.5 1.5c-.8 0-1.5-.7-1.5-1.5c0-.8.6-1.5 1.5-1.5"/><path class="st3" d="m66.7 100.5c.8 0 1.5.7 1.5 1.5c0 .8-.7 1.5-1.5 1.5c-.8 0-1.5-.7-1.5-1.5c0-.8.6-1.5 1.5-1.5"/><path class="st3" d="m66.7 104.5c.8 0 1.5.7 1.5 1.5c0 .8-.7 1.5-1.5 1.5c-.8 0-1.5-.7-1.5-1.5c0-.8.6-1.5 1.5-1.5"/><path class="st3" d="m66.7 108.5c.8 0 1.5.7 1.5 1.5c0 .8-.7 1.5-1.5 1.5c-.8 0-1.5-.7-1.5-1.5c0-.8.6-1.5 1.5-1.5"/><path class="st3" d="m66.7 112.5c.8 0 1.5.7 1.5 1.5c0 .8-.7 1.5-1.5 1.5c-.8 0-1.5-.7-1.5-1.5c0-.8.6-1.5 1.5-1.5"/><path class="st3" d="m66.7 116.5c.8 0 1.5.7 1.5 1.5c0 .8-.7 1.5-1.5 1.5c-.8 0-1.5-.7-1.5-1.5c0-.8.6-1.5 1.5-1.5"/><path class="st3" d="m66.7 120.5c.8 0 1.5.7 1.5 1.5c0 .8-.7 1.5-1.5 1.5c-.8 0-1.5-.7-1.5-1.5c0-.9.6-1.5 1.5-1.5"/><path class="st3" d="m66.7 124.5c.8 0 1.5.7 1.5 1.5c0 .8-.7 1.5-1.5 1.5c-.8 0-1.5-.7-1.5-1.5c0-.9.6-1.5 1.5-1.5"/><path class="st3" d="m66.7 128.4c.8 0 1.5.7 1.5 1.5c0 .8-.7 1.5-1.5 1.5c-.8 0-1.5-.7-1.5-1.5c0-.8.6-1.5 1.5-1.5"/><path class="st2" d="m66.7 132.4c.8 0 1.5.7 1.5 1.5c0 .8-.7 1.5-1.5 1.5c-.8 0-1.5-.7-1.5-1.5c0-.8.6-1.5 1.5-1.5"/><path class="st2" d="m66.7 136.4c.8 0 1.5.7 1.5 1.5c0 .8-.7 1.5-1.5 1.5c-.8 0-1.5-.7-1.5-1.5c0-.8.6-1.5 1.5-1.5"/><path class="st2" d="m66.7 140.4c.8 0 1.5.7 1.5 1.5s-.7 1.5-1.5 1.5c-.8 0-1.5-.7-1.5-1.5s.6-1.5 1.5-1.5"/><path class="st2" d="m70.9.9c.8 0 1.5.7 1.5 1.5c0 .8-.7 1.5-1.5 1.5c-.8 0-1.5-.7-1.5-1.5c.1-.9.7-1.5 1.5-1.5"/><path class="st2" d="m70.9 4.9c.8 0 1.5.7 1.5 1.5c0 .8-.7 1.5-1.5 1.5c-.8 0-1.5-.7-1.5-1.5c.1-.9.7-1.5 1.5-1.5"/><path class="st2" d="m70.9 8.8c.8 0 1.5.7 1.5 1.5c0 .8-.7 1.5-1.5 1.5c-.8 0-1.5-.7-1.5-1.5c.1-.8.7-1.5 1.5-1.5"/><path class="st3" d="m70.9 12.8c.8 0 1.5.7 1.5 1.5c0 .8-.7 1.5-1.5 1.5c-.8 0-1.5-.7-1.5-1.5c.1-.8.7-1.5 1.5-1.5"/><path class="st3" d="m70.9 16.8c.8 0 1.5.7 1.5 1.5s-.7 1.5-1.5 1.5c-.8 0-1.5-.7-1.5-1.5s.7-1.5 1.5-1.5"/><path class="st3" d="m70.9 20.8c.8 0 1.5.7 1.5 1.5c0 .8-.7 1.5-1.5 1.5c-.8 0-1.5-.7-1.5-1.5c.1-.8.7-1.5 1.5-1.5"/><path class="st3" d="m70.9 24.8c.8 0 1.5.7 1.5 1.5c0 .8-.7 1.5-1.5 1.5c-.8 0-1.5-.7-1.5-1.5c.1-.8.7-1.5 1.5-1.5"/><path class="st3" d="m70.9 28.8c.8 0 1.5.7 1.5 1.5c0 .8-.7 1.5-1.5 1.5c-.8 0-1.5-.7-1.5-1.5c.1-.9.7-1.5 1.5-1.5"/><path class="st3" d="m70.9 32.8c.8 0 1.5.7 1.5 1.5c0 .8-.7 1.5-1.5 1.5c-.8 0-1.5-.7-1.5-1.5c.1-.9.7-1.5 1.5-1.5"/><path class="st3" d="m70.9 36.8c.8 0 1.5.7 1.5 1.5c0 .8-.7 1.5-1.5 1.5c-.8 0-1.5-.7-1.5-1.5c.1-.9.7-1.5 1.5-1.5"/><path class="st3" d="m70.9 40.7c.8 0 1.5.7 1.5 1.5c0 .8-.7 1.5-1.5 1.5c-.8 0-1.5-.7-1.5-1.5c.1-.8.7-1.5 1.5-1.5"/><path class="st3" d="m70.9 100.5c.8 0 1.5.7 1.5 1.5c0 .8-.7 1.5-1.5 1.5c-.8 0-1.5-.7-1.5-1.5c.1-.8.7-1.5 1.5-1.5"/><path class="st3" d="m70.9 104.5c.8 0 1.5.7 1.5 1.5c0 .8-.7 1.5-1.5 1.5c-.8 0-1.5-.7-1.5-1.5c.1-.8.7-1.5 1.5-1.5"/><path class="st3" d="m70.9 108.5c.8 0 1.5.7 1.5 1.5c0 .8-.7 1.5-1.5 1.5c-.8 0-1.5-.7-1.5-1.5c.1-.8.7-1.5 1.5-1.5"/><path class="st3" d="m70.9 112.5c.8 0 1.5.7 1.5 1.5c0 .8-.7 1.5-1.5 1.5c-.8 0-1.5-.7-1.5-1.5c.1-.8.7-1.5 1.5-1.5"/><path class="st3" d="m70.9 116.5c.8 0 1.5.7 1.5 1.5c0 .8-.7 1.5-1.5 1.5c-.8 0-1.5-.7-1.5-1.5c.1-.8.7-1.5 1.5-1.5"/><path class="st3" d="m70.9 120.5c.8 0 1.5.7 1.5 1.5c0 .8-.7 1.5-1.5 1.5c-.8 0-1.5-.7-1.5-1.5c.1-.9.7-1.5 1.5-1.5"/><path class="st3" d="m70.9 124.5c.8 0 1.5.7 1.5 1.5c0 .8-.7 1.5-1.5 1.5c-.8 0-1.5-.7-1.5-1.5c.1-.9.7-1.5 1.5-1.5"/><path class="st3" d="m70.9 128.4c.8 0 1.5.7 1.5 1.5c0 .8-.7 1.5-1.5 1.5c-.8 0-1.5-.7-1.5-1.5c.1-.8.7-1.5 1.5-1.5"/><path class="st2" d="m70.9 132.4c.8 0 1.5.7 1.5 1.5c0 .8-.7 1.5-1.5 1.5c-.8 0-1.5-.7-1.5-1.5c.1-.8.7-1.5 1.5-1.5"/><path class="st2" d="m70.9 136.4c.8 0 1.5.7 1.5 1.5c0 .8-.7 1.5-1.5 1.5c-.8 0-1.5-.7-1.5-1.5c.1-.8.7-1.5 1.5-1.5"/><path class="st2" d="m70.9 140.4c.8 0 1.5.7 1.5 1.5s-.7 1.5-1.5 1.5c-.8 0-1.5-.7-1.5-1.5s.7-1.5 1.5-1.5"/><path class="st2" d="m75.2.9c.8 0 1.5.7 1.5 1.5c0 .8-.7 1.5-1.5 1.5s-1.5-.7-1.5-1.5c0-.9.7-1.5 1.5-1.5"/><path class="st2" d="m75.2 4.9c.8 0 1.5.7 1.5 1.5c0 .8-.7 1.5-1.5 1.5s-1.5-.7-1.5-1.5c0-.9.7-1.5 1.5-1.5"/><path class="st2" d="m75.2 8.8c.8 0 1.5.7 1.5 1.5c0 .8-.7 1.5-1.5 1.5s-1.5-.7-1.5-1.5c0-.8.7-1.5 1.5-1.5"/><path class="st3" d="m75.2 12.8c.8 0 1.5.7 1.5 1.5c0 .8-.7 1.5-1.5 1.5s-1.5-.7-1.5-1.5c0-.8.7-1.5 1.5-1.5"/><path class="st3" d="m75.2 16.8c.8 0 1.5.7 1.5 1.5s-.7 1.5-1.5 1.5s-1.5-.7-1.5-1.5s.7-1.5 1.5-1.5"/><path class="st3" d="m75.2 20.8c.8 0 1.5.7 1.5 1.5c0 .8-.7 1.5-1.5 1.5s-1.5-.7-1.5-1.5c0-.8.7-1.5 1.5-1.5"/><path class="st3" d="m75.2 24.8c.8 0 1.5.7 1.5 1.5c0 .8-.7 1.5-1.5 1.5s-1.5-.7-1.5-1.5c0-.8.7-1.5 1.5-1.5"/><path class="st3" d="m75.2 28.8c.8 0 1.5.7 1.5 1.5c0 .8-.7 1.5-1.5 1.5s-1.5-.7-1.5-1.5c0-.9.7-1.5 1.5-1.5"/><path class="st3" d="m75.2 32.8c.8 0 1.5.7 1.5 1.5c0 .8-.7 1.5-1.5 1.5s-1.5-.7-1.5-1.5c0-.9.7-1.5 1.5-1.5"/><path class="st3" d="m75.2 36.8c.8 0 1.5.7 1.5 1.5c0 .8-.7 1.5-1.5 1.5s-1.5-.7-1.5-1.5c0-.9.7-1.5 1.5-1.5"/><path class="st3" d="m75.2 40.7c.8 0 1.5.7 1.5 1.5c0 .8-.7 1.5-1.5 1.5s-1.5-.7-1.5-1.5c0-.8.7-1.5 1.5-1.5"/><path class="st3" d="m75.2 100.5c.8 0 1.5.7 1.5 1.5c0 .8-.7 1.5-1.5 1.5s-1.5-.7-1.5-1.5c0-.8.7-1.5 1.5-1.5"/><path class="st3" d="m75.2 104.5c.8 0 1.5.7 1.5 1.5c0 .8-.7 1.5-1.5 1.5s-1.5-.7-1.5-1.5c0-.8.7-1.5 1.5-1.5"/><path class="st3" d="m75.2 108.5c.8 0 1.5.7 1.5 1.5c0 .8-.7 1.5-1.5 1.5s-1.5-.7-1.5-1.5c0-.8.7-1.5 1.5-1.5"/><path class="st3" d="m75.2 112.5c.8 0 1.5.7 1.5 1.5c0 .8-.7 1.5-1.5 1.5s-1.5-.7-1.5-1.5c0-.8.7-1.5 1.5-1.5"/><path class="st3" d="m75.2 116.5c.8 0 1.5.7 1.5 1.5c0 .8-.7 1.5-1.5 1.5s-1.5-.7-1.5-1.5c0-.8.7-1.5 1.5-1.5"/><path class="st3" d="m75.2 120.5c.8 0 1.5.7 1.5 1.5c0 .8-.7 1.5-1.5 1.5s-1.5-.7-1.5-1.5c0-.9.7-1.5 1.5-1.5"/><path class="st3" d="m75.2 124.5c.8 0 1.5.7 1.5 1.5c0 .8-.7 1.5-1.5 1.5s-1.5-.7-1.5-1.5c0-.9.7-1.5 1.5-1.5"/><path class="st3" d="m75.2 128.4c.8 0 1.5.7 1.5 1.5c0 .8-.7 1.5-1.5 1.5s-1.5-.7-1.5-1.5c0-.8.7-1.5 1.5-1.5"/><path class="st2" d="m75.2 132.4c.8 0 1.5.7 1.5 1.5c0 .8-.7 1.5-1.5 1.5s-1.5-.7-1.5-1.5c0-.8.7-1.5 1.5-1.5"/><path class="st2" d="m75.2 136.4c.8 0 1.5.7 1.5 1.5c0 .8-.7 1.5-1.5 1.5s-1.5-.7-1.5-1.5c0-.8.7-1.5 1.5-1.5"/><path class="st2" d="m75.2 140.4c.8 0 1.5.7 1.5 1.5s-.7 1.5-1.5 1.5s-1.5-.7-1.5-1.5s.7-1.5 1.5-1.5"/><path class="st2" d="m79.5.9c.8 0 1.5.7 1.5 1.5c0 .8-.7 1.5-1.5 1.5c-.8 0-1.5-.7-1.5-1.5c0-.9.7-1.5 1.5-1.5"/><path class="st2" d="m79.5 4.9c.8 0 1.5.7 1.5 1.5c0 .8-.7 1.5-1.5 1.5c-.8 0-1.5-.7-1.5-1.5c0-.9.7-1.5 1.5-1.5"/><path class="st2" d="m79.5 8.8c.8 0 1.5.7 1.5 1.5c0 .8-.7 1.5-1.5 1.5c-.8 0-1.5-.7-1.5-1.5c0-.8.7-1.5 1.5-1.5"/><path class="st3" d="m79.5 12.8c.8 0 1.5.7 1.5 1.5c0 .8-.7 1.5-1.5 1.5c-.8 0-1.5-.7-1.5-1.5c0-.8.7-1.5 1.5-1.5"/><path class="st3" d="m79.5 16.8c.8 0 1.5.7 1.5 1.5s-.7 1.5-1.5 1.5c-.8 0-1.5-.7-1.5-1.5s.7-1.5 1.5-1.5"/><path class="st3" d="m79.5 20.8c.8 0 1.5.7 1.5 1.5c0 .8-.7 1.5-1.5 1.5c-.8 0-1.5-.7-1.5-1.5c0-.8.7-1.5 1.5-1.5"/><path class="st3" d="m79.5 24.8c.8 0 1.5.7 1.5 1.5c0 .8-.7 1.5-1.5 1.5c-.8 0-1.5-.7-1.5-1.5c0-.8.7-1.5 1.5-1.5"/><path class="st3" d="m79.5 28.8c.8 0 1.5.7 1.5 1.5c0 .8-.7 1.5-1.5 1.5c-.8 0-1.5-.7-1.5-1.5c0-.9.7-1.5 1.5-1.5"/><path class="st3" d="m79.5 32.8c.8 0 1.5.7 1.5 1.5c0 .8-.7 1.5-1.5 1.5c-.8 0-1.5-.7-1.5-1.5c0-.9.7-1.5 1.5-1.5"/><path class="st3" d="m79.5 36.8c.8 0 1.5.7 1.5 1.5c0 .8-.7 1.5-1.5 1.5c-.8 0-1.5-.7-1.5-1.5c0-.9.7-1.5 1.5-1.5"/><path class="st3" d="m79.5 40.7c.8 0 1.5.7 1.5 1.5c0 .8-.7 1.5-1.5 1.5c-.8 0-1.5-.7-1.5-1.5c0-.8.7-1.5 1.5-1.5"/><path class="st3" d="m79.5 44.7c.8 0 1.5.7 1.5 1.5c0 .8-.7 1.5-1.5 1.5c-.8 0-1.5-.7-1.5-1.5c0-.8.7-1.5 1.5-1.5"/><path class="st3" d="m79.5 96.6c.8 0 1.5.7 1.5 1.5c0 .8-.7 1.5-1.5 1.5c-.8 0-1.5-.7-1.5-1.5c0-.9.7-1.5 1.5-1.5"/><path class="st3" d="m79.5 100.5c.8 0 1.5.7 1.5 1.5c0 .8-.7 1.5-1.5 1.5c-.8 0-1.5-.7-1.5-1.5c0-.8.7-1.5 1.5-1.5"/><path class="st3" d="m79.5 104.5c.8 0 1.5.7 1.5 1.5c0 .8-.7 1.5-1.5 1.5c-.8 0-1.5-.7-1.5-1.5c0-.8.7-1.5 1.5-1.5"/><path class="st3" d="m79.5 108.5c.8 0 1.5.7 1.5 1.5c0 .8-.7 1.5-1.5 1.5c-.8 0-1.5-.7-1.5-1.5c0-.8.7-1.5 1.5-1.5"/><path class="st3" d="m79.5 112.5c.8 0 1.5.7 1.5 1.5c0 .8-.7 1.5-1.5 1.5c-.8 0-1.5-.7-1.5-1.5c0-.8.7-1.5 1.5-1.5"/><path class="st3" d="m79.5 116.5c.8 0 1.5.7 1.5 1.5c0 .8-.7 1.5-1.5 1.5c-.8 0-1.5-.7-1.5-1.5c0-.8.7-1.5 1.5-1.5"/><path class="st3" d="m79.5 120.5c.8 0 1.5.7 1.5 1.5c0 .8-.7 1.5-1.5 1.5c-.8 0-1.5-.7-1.5-1.5c0-.9.7-1.5 1.5-1.5"/><path class="st3" d="m79.5 124.5c.8 0 1.5.7 1.5 1.5c0 .8-.7 1.5-1.5 1.5c-.8 0-1.5-.7-1.5-1.5c0-.9.7-1.5 1.5-1.5"/><path class="st3" d="m79.5 128.4c.8 0 1.5.7 1.5 1.5c0 .8-.7 1.5-1.5 1.5c-.8 0-1.5-.7-1.5-1.5c0-.8.7-1.5 1.5-1.5"/><path class="st2" d="m79.5 132.4c.8 0 1.5.7 1.5 1.5c0 .8-.7 1.5-1.5 1.5c-.8 0-1.5-.7-1.5-1.5c0-.8.7-1.5 1.5-1.5"/><path class="st2" d="m79.5 136.4c.8 0 1.5.7 1.5 1.5c0 .8-.7 1.5-1.5 1.5c-.8 0-1.5-.7-1.5-1.5c0-.8.7-1.5 1.5-1.5"/><path class="st2" d="m79.5 140.4c.8 0 1.5.7 1.5 1.5s-.7 1.5-1.5 1.5c-.8 0-1.5-.7-1.5-1.5s.7-1.5 1.5-1.5"/><path class="st2" d="m83.8.9c.8 0 1.5.7 1.5 1.5c0 .8-.7 1.5-1.5 1.5c-.8 0-1.5-.7-1.5-1.5c0-.9.6-1.5 1.5-1.5"/><path class="st2" d="m83.8 4.9c.8 0 1.5.7 1.5 1.5c0 .8-.7 1.5-1.5 1.5c-.8 0-1.5-.7-1.5-1.5c0-.9.6-1.5 1.5-1.5"/><path class="st2" d="m83.8 8.8c.8 0 1.5.7 1.5 1.5c0 .8-.7 1.5-1.5 1.5c-.8 0-1.5-.7-1.5-1.5c0-.8.6-1.5 1.5-1.5"/><path class="st3" d="m83.8 12.8c.8 0 1.5.7 1.5 1.5c0 .8-.7 1.5-1.5 1.5c-.8 0-1.5-.7-1.5-1.5c0-.8.6-1.5 1.5-1.5"/><path class="st3" d="m83.8 16.8c.8 0 1.5.7 1.5 1.5s-.7 1.5-1.5 1.5c-.8 0-1.5-.7-1.5-1.5s.6-1.5 1.5-1.5"/><path class="st3" d="m83.8 20.8c.8 0 1.5.7 1.5 1.5c0 .8-.7 1.5-1.5 1.5c-.8 0-1.5-.7-1.5-1.5c0-.8.6-1.5 1.5-1.5"/><path class="st3" d="m83.8 24.8c.8 0 1.5.7 1.5 1.5c0 .8-.7 1.5-1.5 1.5c-.8 0-1.5-.7-1.5-1.5c0-.8.6-1.5 1.5-1.5"/><path class="st3" d="m83.8 28.8c.8 0 1.5.7 1.5 1.5c0 .8-.7 1.5-1.5 1.5c-.8 0-1.5-.7-1.5-1.5c0-.9.6-1.5 1.5-1.5"/><path class="st3" d="m83.8 32.8c.8 0 1.5.7 1.5 1.5c0 .8-.7 1.5-1.5 1.5c-.8 0-1.5-.7-1.5-1.5c0-.9.6-1.5 1.5-1.5"/><path class="st3" d="m83.8 36.8c.8 0 1.5.7 1.5 1.5c0 .8-.7 1.5-1.5 1.5c-.8 0-1.5-.7-1.5-1.5c0-.9.6-1.5 1.5-1.5"/><path class="st3" d="m83.8 40.7c.8 0 1.5.7 1.5 1.5c0 .8-.7 1.5-1.5 1.5c-.8 0-1.5-.7-1.5-1.5c0-.8.6-1.5 1.5-1.5"/><path class="st3" d="m83.8 44.7c.8 0 1.5.7 1.5 1.5c0 .8-.7 1.5-1.5 1.5c-.8 0-1.5-.7-1.5-1.5c0-.8.6-1.5 1.5-1.5"/><path class="st3" d="m83.8 96.6c.8 0 1.5.7 1.5 1.5c0 .8-.7 1.5-1.5 1.5c-.8 0-1.5-.7-1.5-1.5c0-.9.6-1.5 1.5-1.5"/><path class="st3" d="m83.8 100.5c.8 0 1.5.7 1.5 1.5c0 .8-.7 1.5-1.5 1.5c-.8 0-1.5-.7-1.5-1.5c0-.8.6-1.5 1.5-1.5"/><path class="st3" d="m83.8 104.5c.8 0 1.5.7 1.5 1.5c0 .8-.7 1.5-1.5 1.5c-.8 0-1.5-.7-1.5-1.5c0-.8.6-1.5 1.5-1.5"/><path class="st3" d="m83.8 108.5c.8 0 1.5.7 1.5 1.5c0 .8-.7 1.5-1.5 1.5c-.8 0-1.5-.7-1.5-1.5c0-.8.6-1.5 1.5-1.5"/><path class="st3" d="m83.8 112.5c.8 0 1.5.7 1.5 1.5c0 .8-.7 1.5-1.5 1.5c-.8 0-1.5-.7-1.5-1.5c0-.8.6-1.5 1.5-1.5"/><path class="st3" d="m83.8 116.5c.8 0 1.5.7 1.5 1.5c0 .8-.7 1.5-1.5 1.5c-.8 0-1.5-.7-1.5-1.5c0-.8.6-1.5 1.5-1.5"/><path class="st3" d="m83.8 120.5c.8 0 1.5.7 1.5 1.5c0 .8-.7 1.5-1.5 1.5c-.8 0-1.5-.7-1.5-1.5c0-.9.6-1.5 1.5-1.5"/><path class="st3" d="m83.8 124.5c.8 0 1.5.7 1.5 1.5c0 .8-.7 1.5-1.5 1.5c-.8 0-1.5-.7-1.5-1.5c0-.9.6-1.5 1.5-1.5"/><path class="st3" d="m83.8 128.4c.8 0 1.5.7 1.5 1.5c0 .8-.7 1.5-1.5 1.5c-.8 0-1.5-.7-1.5-1.5c0-.8.6-1.5 1.5-1.5"/><path class="st2" d="m83.8 132.4c.8 0 1.5.7 1.5 1.5c0 .8-.7 1.5-1.5 1.5c-.8 0-1.5-.7-1.5-1.5c0-.8.6-1.5 1.5-1.5"/><path class="st2" d="m83.8 136.4c.8 0 1.5.7 1.5 1.5c0 .8-.7 1.5-1.5 1.5c-.8 0-1.5-.7-1.5-1.5c0-.8.6-1.5 1.5-1.5"/><path class="st2" d="m83.8 140.4c.8 0 1.5.7 1.5 1.5s-.7 1.5-1.5 1.5c-.8 0-1.5-.7-1.5-1.5s.6-1.5 1.5-1.5"/><path class="st2" d="m88 .9c.8 0 1.5.7 1.5 1.5c0 .8-.7 1.5-1.5 1.5c-.8 0-1.5-.7-1.5-1.5c0-.9.7-1.5 1.5-1.5"/><path class="st2" d="m88 4.9c.8 0 1.5.7 1.5 1.5c0 .8-.7 1.5-1.5 1.5c-.8 0-1.5-.7-1.5-1.5c0-.9.7-1.5 1.5-1.5"/><path class="st2" d="m88 8.8c.8 0 1.5.7 1.5 1.5c0 .8-.7 1.5-1.5 1.5c-.8 0-1.5-.7-1.5-1.5c0-.8.7-1.5 1.5-1.5"/><path class="st3" d="m88 12.8c.8 0 1.5.7 1.5 1.5c0 .8-.7 1.5-1.5 1.5c-.8 0-1.5-.7-1.5-1.5c0-.8.7-1.5 1.5-1.5"/><path class="st3" d="m88 16.8c.8 0 1.5.7 1.5 1.5s-.7 1.5-1.5 1.5c-.8 0-1.5-.7-1.5-1.5s.7-1.5 1.5-1.5"/><path class="st3" d="m88 20.8c.8 0 1.5.7 1.5 1.5c0 .8-.7 1.5-1.5 1.5c-.8 0-1.5-.7-1.5-1.5c0-.8.7-1.5 1.5-1.5"/><path class="st3" d="m88 24.8c.8 0 1.5.7 1.5 1.5c0 .8-.7 1.5-1.5 1.5c-.8 0-1.5-.7-1.5-1.5c0-.8.7-1.5 1.5-1.5"/><path class="st3" d="m88 28.8c.8 0 1.5.7 1.5 1.5c0 .8-.7 1.5-1.5 1.5c-.8 0-1.5-.7-1.5-1.5c0-.9.7-1.5 1.5-1.5"/><path class="st3" d="m88 32.8c.8 0 1.5.7 1.5 1.5c0 .8-.7 1.5-1.5 1.5c-.8 0-1.5-.7-1.5-1.5c0-.9.7-1.5 1.5-1.5"/><path class="st3" d="m88 36.8c.8 0 1.5.7 1.5 1.5c0 .8-.7 1.5-1.5 1.5c-.8 0-1.5-.7-1.5-1.5c0-.9.7-1.5 1.5-1.5"/><path class="st3" d="m88 40.7c.8 0 1.5.7 1.5 1.5c0 .8-.7 1.5-1.5 1.5c-.8 0-1.5-.7-1.5-1.5c0-.8.7-1.5 1.5-1.5"/><path class="st3" d="m88 44.7c.8 0 1.5.7 1.5 1.5c0 .8-.7 1.5-1.5 1.5c-.8 0-1.5-.7-1.5-1.5c0-.8.7-1.5 1.5-1.5"/><path class="st3" d="m88 48.7c.8 0 1.5.7 1.5 1.5c0 .8-.7 1.5-1.5 1.5c-.8 0-1.5-.7-1.5-1.5c0-.8.7-1.5 1.5-1.5"/><path class="st3" d="m88 92.6c.8 0 1.5.7 1.5 1.5c0 .8-.7 1.5-1.5 1.5c-.8 0-1.5-.7-1.5-1.5c0-.9.7-1.5 1.5-1.5"/><path class="st3" d="m88 96.6c.8 0 1.5.7 1.5 1.5c0 .8-.7 1.5-1.5 1.5c-.8 0-1.5-.7-1.5-1.5c0-.9.7-1.5 1.5-1.5"/><path class="st3" d="m88 100.5c.8 0 1.5.7 1.5 1.5c0 .8-.7 1.5-1.5 1.5c-.8 0-1.5-.7-1.5-1.5c0-.8.7-1.5 1.5-1.5"/><path class="st3" d="m88 104.5c.8 0 1.5.7 1.5 1.5c0 .8-.7 1.5-1.5 1.5c-.8 0-1.5-.7-1.5-1.5c0-.8.7-1.5 1.5-1.5"/><path class="st3" d="m88 108.5c.8 0 1.5.7 1.5 1.5c0 .8-.7 1.5-1.5 1.5c-.8 0-1.5-.7-1.5-1.5c0-.8.7-1.5 1.5-1.5"/><path class="st3" d="m88 112.5c.8 0 1.5.7 1.5 1.5c0 .8-.7 1.5-1.5 1.5c-.8 0-1.5-.7-1.5-1.5c0-.8.7-1.5 1.5-1.5"/><path class="st3" d="m88 116.5c.8 0 1.5.7 1.5 1.5c0 .8-.7 1.5-1.5 1.5c-.8 0-1.5-.7-1.5-1.5c0-.8.7-1.5 1.5-1.5"/><path class="st3" d="m88 120.5c.8 0 1.5.7 1.5 1.5c0 .8-.7 1.5-1.5 1.5c-.8 0-1.5-.7-1.5-1.5c0-.9.7-1.5 1.5-1.5"/><path class="st3" d="m88 124.5c.8 0 1.5.7 1.5 1.5c0 .8-.7 1.5-1.5 1.5c-.8 0-1.5-.7-1.5-1.5c0-.9.7-1.5 1.5-1.5"/><path class="st3" d="m88 128.4c.8 0 1.5.7 1.5 1.5c0 .8-.7 1.5-1.5 1.5c-.8 0-1.5-.7-1.5-1.5c0-.8.7-1.5 1.5-1.5"/><path class="st2" d="m88 132.4c.8 0 1.5.7 1.5 1.5c0 .8-.7 1.5-1.5 1.5c-.8 0-1.5-.7-1.5-1.5c0-.8.7-1.5 1.5-1.5"/><path class="st2" d="m88 136.4c.8 0 1.5.7 1.5 1.5c0 .8-.7 1.5-1.5 1.5c-.8 0-1.5-.7-1.5-1.5c0-.8.7-1.5 1.5-1.5"/><path class="st2" d="m88 140.4c.8 0 1.5.7 1.5 1.5s-.7 1.5-1.5 1.5c-.8 0-1.5-.7-1.5-1.5s.7-1.5 1.5-1.5"/><path class="st2" d="m92.3.9c.8 0 1.5.7 1.5 1.5c0 .8-.7 1.5-1.5 1.5c-.8 0-1.5-.7-1.5-1.5c0-.9.7-1.5 1.5-1.5"/><path class="st2" d="m92.3 4.9c.8 0 1.5.7 1.5 1.5c0 .8-.7 1.5-1.5 1.5c-.8 0-1.5-.7-1.5-1.5c0-.9.7-1.5 1.5-1.5"/><path class="st2" d="m92.3 8.8c.8 0 1.5.7 1.5 1.5c0 .8-.7 1.5-1.5 1.5c-.8 0-1.5-.7-1.5-1.5c0-.8.7-1.5 1.5-1.5"/><path class="st3" d="m92.3 12.8c.8 0 1.5.7 1.5 1.5c0 .8-.7 1.5-1.5 1.5c-.8 0-1.5-.7-1.5-1.5c0-.8.7-1.5 1.5-1.5"/><path class="st3" d="m92.3 16.8c.8 0 1.5.7 1.5 1.5s-.7 1.5-1.5 1.5c-.8 0-1.5-.7-1.5-1.5s.7-1.5 1.5-1.5"/><path class="st3" d="m92.3 20.8c.8 0 1.5.7 1.5 1.5c0 .8-.7 1.5-1.5 1.5c-.8 0-1.5-.7-1.5-1.5c0-.8.7-1.5 1.5-1.5"/><path class="st3" d="m92.3 24.8c.8 0 1.5.7 1.5 1.5c0 .8-.7 1.5-1.5 1.5c-.8 0-1.5-.7-1.5-1.5c0-.8.7-1.5 1.5-1.5"/><path class="st3" d="m92.3 28.8c.8 0 1.5.7 1.5 1.5c0 .8-.7 1.5-1.5 1.5c-.8 0-1.5-.7-1.5-1.5c0-.9.7-1.5 1.5-1.5"/><path class="st3" d="m92.3 32.8c.8 0 1.5.7 1.5 1.5c0 .8-.7 1.5-1.5 1.5c-.8 0-1.5-.7-1.5-1.5c0-.9.7-1.5 1.5-1.5"/><path class="st3" d="m92.3 36.8c.8 0 1.5.7 1.5 1.5c0 .8-.7 1.5-1.5 1.5c-.8 0-1.5-.7-1.5-1.5c0-.9.7-1.5 1.5-1.5"/><path class="st3" d="m92.3 40.7c.8 0 1.5.7 1.5 1.5c0 .8-.7 1.5-1.5 1.5c-.8 0-1.5-.7-1.5-1.5c0-.8.7-1.5 1.5-1.5"/><path class="st3" d="m92.3 44.7c.8 0 1.5.7 1.5 1.5c0 .8-.7 1.5-1.5 1.5c-.8 0-1.5-.7-1.5-1.5c0-.8.7-1.5 1.5-1.5"/><path class="st3" d="m92.3 48.7c.8 0 1.5.7 1.5 1.5c0 .8-.7 1.5-1.5 1.5c-.8 0-1.5-.7-1.5-1.5c0-.8.7-1.5 1.5-1.5"/><path class="st3" d="m92.3 52.7c.8 0 1.5.7 1.5 1.5c0 .8-.7 1.5-1.5 1.5c-.8 0-1.5-.7-1.5-1.5c0-.8.7-1.5 1.5-1.5"/><path class="st3" d="m92.3 56.7c.8 0 1.5.7 1.5 1.5c0 .8-.7 1.5-1.5 1.5c-.8 0-1.5-.7-1.5-1.5c0-.8.7-1.5 1.5-1.5"/><path class="st3" d="m92.3 84.6c.8 0 1.5.7 1.5 1.5c0 .8-.7 1.5-1.5 1.5c-.8 0-1.5-.7-1.5-1.5c0-.8.7-1.5 1.5-1.5"/><path class="st3" d="m92.3 88.6c.8 0 1.5.7 1.5 1.5c0 .8-.7 1.5-1.5 1.5c-.8 0-1.5-.7-1.5-1.5c0-.9.7-1.5 1.5-1.5"/><path class="st3" d="m92.3 92.6c.8 0 1.5.7 1.5 1.5c0 .8-.7 1.5-1.5 1.5c-.8 0-1.5-.7-1.5-1.5c0-.9.7-1.5 1.5-1.5"/><path class="st3" d="m92.3 96.6c.8 0 1.5.7 1.5 1.5c0 .8-.7 1.5-1.5 1.5c-.8 0-1.5-.7-1.5-1.5c0-.9.7-1.5 1.5-1.5"/><path class="st3" d="m92.3 100.5c.8 0 1.5.7 1.5 1.5c0 .8-.7 1.5-1.5 1.5c-.8 0-1.5-.7-1.5-1.5c0-.8.7-1.5 1.5-1.5"/><path class="st3" d="m92.3 104.5c.8 0 1.5.7 1.5 1.5c0 .8-.7 1.5-1.5 1.5c-.8 0-1.5-.7-1.5-1.5c0-.8.7-1.5 1.5-1.5"/><path class="st3" d="m92.3 108.5c.8 0 1.5.7 1.5 1.5c0 .8-.7 1.5-1.5 1.5c-.8 0-1.5-.7-1.5-1.5c0-.8.7-1.5 1.5-1.5"/><path class="st3" d="m92.3 112.5c.8 0 1.5.7 1.5 1.5c0 .8-.7 1.5-1.5 1.5c-.8 0-1.5-.7-1.5-1.5c0-.8.7-1.5 1.5-1.5"/><path class="st3" d="m92.3 116.5c.8 0 1.5.7 1.5 1.5c0 .8-.7 1.5-1.5 1.5c-.8 0-1.5-.7-1.5-1.5c0-.8.7-1.5 1.5-1.5"/><path class="st3" d="m92.3 120.5c.8 0 1.5.7 1.5 1.5c0 .8-.7 1.5-1.5 1.5c-.8 0-1.5-.7-1.5-1.5c0-.9.7-1.5 1.5-1.5"/><path class="st3" d="m92.3 124.5c.8 0 1.5.7 1.5 1.5c0 .8-.7 1.5-1.5 1.5c-.8 0-1.5-.7-1.5-1.5c0-.9.7-1.5 1.5-1.5"/><path class="st3" d="m92.3 128.4c.8 0 1.5.7 1.5 1.5c0 .8-.7 1.5-1.5 1.5c-.8 0-1.5-.7-1.5-1.5c0-.8.7-1.5 1.5-1.5"/><path class="st2" d="m92.3 132.4c.8 0 1.5.7 1.5 1.5c0 .8-.7 1.5-1.5 1.5c-.8 0-1.5-.7-1.5-1.5c0-.8.7-1.5 1.5-1.5"/><path class="st2" d="m92.3 136.4c.8 0 1.5.7 1.5 1.5c0 .8-.7 1.5-1.5 1.5c-.8 0-1.5-.7-1.5-1.5c0-.8.7-1.5 1.5-1.5"/><path class="st2" d="m92.3 140.4c.8 0 1.5.7 1.5 1.5s-.7 1.5-1.5 1.5c-.8 0-1.5-.7-1.5-1.5s.7-1.5 1.5-1.5"/><path class="st2" d="m96.6.9c.8 0 1.5.7 1.5 1.5c0 .8-.7 1.5-1.5 1.5c-.8 0-1.5-.7-1.5-1.5c0-.9.7-1.5 1.5-1.5"/><path class="st2" d="m96.6 4.9c.8 0 1.5.7 1.5 1.5c0 .8-.7 1.5-1.5 1.5c-.8 0-1.5-.7-1.5-1.5c0-.9.7-1.5 1.5-1.5"/><path class="st2" d="m96.6 8.8c.8 0 1.5.7 1.5 1.5c0 .8-.7 1.5-1.5 1.5c-.8 0-1.5-.7-1.5-1.5c0-.8.7-1.5 1.5-1.5"/><path class="st3" d="m96.6 12.8c.8 0 1.5.7 1.5 1.5c0 .8-.7 1.5-1.5 1.5c-.8 0-1.5-.7-1.5-1.5c0-.8.7-1.5 1.5-1.5"/><path class="st3" d="m96.6 16.8c.8 0 1.5.7 1.5 1.5s-.7 1.5-1.5 1.5c-.8 0-1.5-.7-1.5-1.5s.7-1.5 1.5-1.5"/><path class="st3" d="m96.6 20.8c.8 0 1.5.7 1.5 1.5c0 .8-.7 1.5-1.5 1.5c-.8 0-1.5-.7-1.5-1.5c0-.8.7-1.5 1.5-1.5"/><path class="st3" d="m96.6 24.8c.8 0 1.5.7 1.5 1.5c0 .8-.7 1.5-1.5 1.5c-.8 0-1.5-.7-1.5-1.5c0-.8.7-1.5 1.5-1.5"/><path class="st3" d="m96.6 28.8c.8 0 1.5.7 1.5 1.5c0 .8-.7 1.5-1.5 1.5c-.8 0-1.5-.7-1.5-1.5c0-.9.7-1.5 1.5-1.5"/><path class="st3" d="m96.6 32.8c.8 0 1.5.7 1.5 1.5c0 .8-.7 1.5-1.5 1.5c-.8 0-1.5-.7-1.5-1.5c0-.9.7-1.5 1.5-1.5"/><path class="st3" d="m96.6 36.8c.8 0 1.5.7 1.5 1.5c0 .8-.7 1.5-1.5 1.5c-.8 0-1.5-.7-1.5-1.5c0-.9.7-1.5 1.5-1.5"/><path class="st3" d="m96.6 40.7c.8 0 1.5.7 1.5 1.5c0 .8-.7 1.5-1.5 1.5c-.8 0-1.5-.7-1.5-1.5c0-.8.7-1.5 1.5-1.5"/><path class="st3" d="m96.6 44.7c.8 0 1.5.7 1.5 1.5c0 .8-.7 1.5-1.5 1.5c-.8 0-1.5-.7-1.5-1.5c0-.8.7-1.5 1.5-1.5"/><path class="st3" d="m96.6 48.7c.8 0 1.5.7 1.5 1.5c0 .8-.7 1.5-1.5 1.5c-.8 0-1.5-.7-1.5-1.5c0-.8.7-1.5 1.5-1.5"/><path class="st3" d="m96.6 52.7c.8 0 1.5.7 1.5 1.5c0 .8-.7 1.5-1.5 1.5c-.8 0-1.5-.7-1.5-1.5c0-.8.7-1.5 1.5-1.5"/><path class="st3" d="m96.6 56.7c.8 0 1.5.7 1.5 1.5c0 .8-.7 1.5-1.5 1.5c-.8 0-1.5-.7-1.5-1.5c0-.8.7-1.5 1.5-1.5"/><path class="st3" d="m96.6 60.7c.8 0 1.5.7 1.5 1.5c0 .8-.7 1.5-1.5 1.5c-.8 0-1.5-.7-1.5-1.5c0-.9.7-1.5 1.5-1.5"/><path class="st3" d="m96.6 64.7c.8 0 1.5.7 1.5 1.5c0 .8-.7 1.5-1.5 1.5c-.8 0-1.5-.7-1.5-1.5c0-.9.7-1.5 1.5-1.5"/><path class="st3" d="m96.6 68.6c.8 0 1.5.7 1.5 1.5c0 .8-.7 1.5-1.5 1.5c-.8 0-1.5-.7-1.5-1.5c0-.8.7-1.5 1.5-1.5"/><path class="st3" d="m96.6 72.6c.8 0 1.5.7 1.5 1.5c0 .8-.7 1.5-1.5 1.5c-.8 0-1.5-.7-1.5-1.5c0-.8.7-1.5 1.5-1.5"/><path class="st3" d="m96.6 76.6c.8 0 1.5.7 1.5 1.5c0 .8-.7 1.5-1.5 1.5c-.8 0-1.5-.7-1.5-1.5c0-.8.7-1.5 1.5-1.5"/><path class="st3" d="m96.6 80.6c.8 0 1.5.7 1.5 1.5c0 .8-.7 1.5-1.5 1.5c-.8 0-1.5-.7-1.5-1.5c0-.8.7-1.5 1.5-1.5"/><path class="st3" d="m96.6 84.6c.8 0 1.5.7 1.5 1.5c0 .8-.7 1.5-1.5 1.5c-.8 0-1.5-.7-1.5-1.5c0-.8.7-1.5 1.5-1.5"/><path class="st3" d="m96.6 88.6c.8 0 1.5.7 1.5 1.5c0 .8-.7 1.5-1.5 1.5c-.8 0-1.5-.7-1.5-1.5c0-.9.7-1.5 1.5-1.5"/><path class="st3" d="m96.6 92.6c.8 0 1.5.7 1.5 1.5c0 .8-.7 1.5-1.5 1.5c-.8 0-1.5-.7-1.5-1.5c0-.9.7-1.5 1.5-1.5"/><path class="st3" d="m96.6 96.6c.8 0 1.5.7 1.5 1.5c0 .8-.7 1.5-1.5 1.5c-.8 0-1.5-.7-1.5-1.5c0-.9.7-1.5 1.5-1.5"/><path class="st3" d="m96.6 100.5c.8 0 1.5.7 1.5 1.5c0 .8-.7 1.5-1.5 1.5c-.8 0-1.5-.7-1.5-1.5c0-.8.7-1.5 1.5-1.5"/><path class="st3" d="m96.6 104.5c.8 0 1.5.7 1.5 1.5c0 .8-.7 1.5-1.5 1.5c-.8 0-1.5-.7-1.5-1.5c0-.8.7-1.5 1.5-1.5"/><path class="st3" d="m96.6 108.5c.8 0 1.5.7 1.5 1.5c0 .8-.7 1.5-1.5 1.5c-.8 0-1.5-.7-1.5-1.5c0-.8.7-1.5 1.5-1.5"/><path class="st3" d="m96.6 112.5c.8 0 1.5.7 1.5 1.5c0 .8-.7 1.5-1.5 1.5c-.8 0-1.5-.7-1.5-1.5c0-.8.7-1.5 1.5-1.5"/><path class="st3" d="m96.6 116.5c.8 0 1.5.7 1.5 1.5c0 .8-.7 1.5-1.5 1.5c-.8 0-1.5-.7-1.5-1.5c0-.8.7-1.5 1.5-1.5"/><path class="st3" d="m96.6 120.5c.8 0 1.5.7 1.5 1.5c0 .8-.7 1.5-1.5 1.5c-.8 0-1.5-.7-1.5-1.5c0-.9.7-1.5 1.5-1.5"/><path class="st3" d="m96.6 124.5c.8 0 1.5.7 1.5 1.5c0 .8-.7 1.5-1.5 1.5c-.8 0-1.5-.7-1.5-1.5c0-.9.7-1.5 1.5-1.5"/><path class="st3" d="m96.6 128.4c.8 0 1.5.7 1.5 1.5c0 .8-.7 1.5-1.5 1.5c-.8 0-1.5-.7-1.5-1.5c0-.8.7-1.5 1.5-1.5"/><path class="st2" d="m96.6 132.4c.8 0 1.5.7 1.5 1.5c0 .8-.7 1.5-1.5 1.5c-.8 0-1.5-.7-1.5-1.5c0-.8.7-1.5 1.5-1.5"/><path class="st2" d="m96.6 136.4c.8 0 1.5.7 1.5 1.5c0 .8-.7 1.5-1.5 1.5c-.8 0-1.5-.7-1.5-1.5c0-.8.7-1.5 1.5-1.5"/><path class="st2" d="m96.6 140.4c.8 0 1.5.7 1.5 1.5s-.7 1.5-1.5 1.5c-.8 0-1.5-.7-1.5-1.5s.7-1.5 1.5-1.5"/><path class="st2" d="m100.9.9c.8 0 1.5.7 1.5 1.5c0 .8-.7 1.5-1.5 1.5c-.8 0-1.5-.7-1.5-1.5c0-.9.6-1.5 1.5-1.5"/><path class="st2" d="m100.9 4.9c.8 0 1.5.7 1.5 1.5c0 .8-.7 1.5-1.5 1.5c-.8 0-1.5-.7-1.5-1.5c0-.9.6-1.5 1.5-1.5"/><path class="st2" d="m100.9 8.8c.8 0 1.5.7 1.5 1.5c0 .8-.7 1.5-1.5 1.5c-.8 0-1.5-.7-1.5-1.5c0-.8.6-1.5 1.5-1.5"/><path class="st3" d="m100.9 12.8c.8 0 1.5.7 1.5 1.5c0 .8-.7 1.5-1.5 1.5c-.8 0-1.5-.7-1.5-1.5c0-.8.6-1.5 1.5-1.5"/><path class="st3" d="m100.9 16.8c.8 0 1.5.7 1.5 1.5s-.7 1.5-1.5 1.5c-.8 0-1.5-.7-1.5-1.5s.6-1.5 1.5-1.5"/><path class="st3" d="m100.9 20.8c.8 0 1.5.7 1.5 1.5c0 .8-.7 1.5-1.5 1.5c-.8 0-1.5-.7-1.5-1.5c0-.8.6-1.5 1.5-1.5"/><path class="st3" d="m100.9 24.8c.8 0 1.5.7 1.5 1.5c0 .8-.7 1.5-1.5 1.5c-.8 0-1.5-.7-1.5-1.5c0-.8.6-1.5 1.5-1.5"/><path class="st3" d="m100.9 28.8c.8 0 1.5.7 1.5 1.5c0 .8-.7 1.5-1.5 1.5c-.8 0-1.5-.7-1.5-1.5c0-.9.6-1.5 1.5-1.5"/><path class="st3" d="m100.9 32.8c.8 0 1.5.7 1.5 1.5c0 .8-.7 1.5-1.5 1.5c-.8 0-1.5-.7-1.5-1.5c0-.9.6-1.5 1.5-1.5"/><path class="st3" d="m100.9 36.8c.8 0 1.5.7 1.5 1.5c0 .8-.7 1.5-1.5 1.5c-.8 0-1.5-.7-1.5-1.5c0-.9.6-1.5 1.5-1.5"/><path class="st3" d="m100.9 40.7c.8 0 1.5.7 1.5 1.5c0 .8-.7 1.5-1.5 1.5c-.8 0-1.5-.7-1.5-1.5c0-.8.6-1.5 1.5-1.5"/><path class="st3" d="m100.9 44.7c.8 0 1.5.7 1.5 1.5c0 .8-.7 1.5-1.5 1.5c-.8 0-1.5-.7-1.5-1.5c0-.8.6-1.5 1.5-1.5"/><path class="st3" d="m100.9 48.7c.8 0 1.5.7 1.5 1.5c0 .8-.7 1.5-1.5 1.5c-.8 0-1.5-.7-1.5-1.5c0-.8.6-1.5 1.5-1.5"/><path class="st3" d="m100.9 52.7c.8 0 1.5.7 1.5 1.5c0 .8-.7 1.5-1.5 1.5c-.8 0-1.5-.7-1.5-1.5c0-.8.6-1.5 1.5-1.5"/><path class="st3" d="m100.9 56.7c.8 0 1.5.7 1.5 1.5c0 .8-.7 1.5-1.5 1.5c-.8 0-1.5-.7-1.5-1.5c0-.8.6-1.5 1.5-1.5"/><path class="st3" d="m100.9 60.7c.8 0 1.5.7 1.5 1.5c0 .8-.7 1.5-1.5 1.5c-.8 0-1.5-.7-1.5-1.5c0-.9.6-1.5 1.5-1.5"/><path class="st3" d="m100.9 64.7c.8 0 1.5.7 1.5 1.5c0 .8-.7 1.5-1.5 1.5c-.8 0-1.5-.7-1.5-1.5c0-.9.6-1.5 1.5-1.5"/><path class="st3" d="m100.9 68.6c.8 0 1.5.7 1.5 1.5c0 .8-.7 1.5-1.5 1.5c-.8 0-1.5-.7-1.5-1.5c0-.8.6-1.5 1.5-1.5"/><path class="st3" d="m100.9 72.6c.8 0 1.5.7 1.5 1.5c0 .8-.7 1.5-1.5 1.5c-.8 0-1.5-.7-1.5-1.5c0-.8.6-1.5 1.5-1.5"/><path class="st3" d="m100.9 76.6c.8 0 1.5.7 1.5 1.5c0 .8-.7 1.5-1.5 1.5c-.8 0-1.5-.7-1.5-1.5c0-.8.6-1.5 1.5-1.5"/><path class="st3" d="m100.9 80.6c.8 0 1.5.7 1.5 1.5c0 .8-.7 1.5-1.5 1.5c-.8 0-1.5-.7-1.5-1.5c0-.8.6-1.5 1.5-1.5"/><path class="st3" d="m100.9 84.6c.8 0 1.5.7 1.5 1.5c0 .8-.7 1.5-1.5 1.5c-.8 0-1.5-.7-1.5-1.5c0-.8.6-1.5 1.5-1.5"/><path class="st3" d="m100.9 88.6c.8 0 1.5.7 1.5 1.5c0 .8-.7 1.5-1.5 1.5c-.8 0-1.5-.7-1.5-1.5c0-.9.6-1.5 1.5-1.5"/><path class="st3" d="m100.9 92.6c.8 0 1.5.7 1.5 1.5c0 .8-.7 1.5-1.5 1.5c-.8 0-1.5-.7-1.5-1.5c0-.9.6-1.5 1.5-1.5"/><path class="st3" d="m100.9 96.6c.8 0 1.5.7 1.5 1.5c0 .8-.7 1.5-1.5 1.5c-.8 0-1.5-.7-1.5-1.5c0-.9.6-1.5 1.5-1.5"/><path class="st3" d="m100.9 100.5c.8 0 1.5.7 1.5 1.5c0 .8-.7 1.5-1.5 1.5c-.8 0-1.5-.7-1.5-1.5c0-.8.6-1.5 1.5-1.5"/><path class="st3" d="m100.9 104.5c.8 0 1.5.7 1.5 1.5c0 .8-.7 1.5-1.5 1.5c-.8 0-1.5-.7-1.5-1.5c0-.8.6-1.5 1.5-1.5"/><path class="st3" d="m100.9 108.5c.8 0 1.5.7 1.5 1.5c0 .8-.7 1.5-1.5 1.5c-.8 0-1.5-.7-1.5-1.5c0-.8.6-1.5 1.5-1.5"/><path class="st3" d="m100.9 112.5c.8 0 1.5.7 1.5 1.5c0 .8-.7 1.5-1.5 1.5c-.8 0-1.5-.7-1.5-1.5c0-.8.6-1.5 1.5-1.5"/><path class="st3" d="m100.9 116.5c.8 0 1.5.7 1.5 1.5c0 .8-.7 1.5-1.5 1.5c-.8 0-1.5-.7-1.5-1.5c0-.8.6-1.5 1.5-1.5"/><path class="st3" d="m100.9 120.5c.8 0 1.5.7 1.5 1.5c0 .8-.7 1.5-1.5 1.5c-.8 0-1.5-.7-1.5-1.5c0-.9.6-1.5 1.5-1.5"/><path class="st3" d="m100.9 124.5c.8 0 1.5.7 1.5 1.5c0 .8-.7 1.5-1.5 1.5c-.8 0-1.5-.7-1.5-1.5c0-.9.6-1.5 1.5-1.5"/><path class="st3" d="m100.9 128.4c.8 0 1.5.7 1.5 1.5c0 .8-.7 1.5-1.5 1.5c-.8 0-1.5-.7-1.5-1.5c0-.8.6-1.5 1.5-1.5"/><path class="st2" d="m100.9 132.4c.8 0 1.5.7 1.5 1.5c0 .8-.7 1.5-1.5 1.5c-.8 0-1.5-.7-1.5-1.5c0-.8.6-1.5 1.5-1.5"/><path class="st2" d="m100.9 136.4c.8 0 1.5.7 1.5 1.5c0 .8-.7 1.5-1.5 1.5c-.8 0-1.5-.7-1.5-1.5c0-.8.6-1.5 1.5-1.5"/><path class="st2" d="m100.9 140.4c.8 0 1.5.7 1.5 1.5s-.7 1.5-1.5 1.5c-.8 0-1.5-.7-1.5-1.5s.6-1.5 1.5-1.5"/><path class="st2" d="m105.1.9c.8 0 1.5.7 1.5 1.5c0 .8-.7 1.5-1.5 1.5c-.8 0-1.5-.7-1.5-1.5c0-.9.7-1.5 1.5-1.5"/><path class="st2" d="m105.1 4.9c.8 0 1.5.7 1.5 1.5c0 .8-.7 1.5-1.5 1.5c-.8 0-1.5-.7-1.5-1.5c0-.9.7-1.5 1.5-1.5"/><path class="st2" d="m105.1 8.8c.8 0 1.5.7 1.5 1.5c0 .8-.7 1.5-1.5 1.5c-.8 0-1.5-.7-1.5-1.5c0-.8.7-1.5 1.5-1.5"/><path class="st3" d="m105.1 12.8c.8 0 1.5.7 1.5 1.5c0 .8-.7 1.5-1.5 1.5c-.8 0-1.5-.7-1.5-1.5c0-.8.7-1.5 1.5-1.5"/><path class="st3" d="m105.1 16.8c.8 0 1.5.7 1.5 1.5s-.7 1.5-1.5 1.5c-.8 0-1.5-.7-1.5-1.5s.7-1.5 1.5-1.5"/><path class="st3" d="m105.1 20.8c.8 0 1.5.7 1.5 1.5c0 .8-.7 1.5-1.5 1.5c-.8 0-1.5-.7-1.5-1.5c0-.8.7-1.5 1.5-1.5"/><path class="st3" d="m105.1 24.8c.8 0 1.5.7 1.5 1.5c0 .8-.7 1.5-1.5 1.5c-.8 0-1.5-.7-1.5-1.5c0-.8.7-1.5 1.5-1.5"/><path class="st3" d="m105.1 28.8c.8 0 1.5.7 1.5 1.5c0 .8-.7 1.5-1.5 1.5c-.8 0-1.5-.7-1.5-1.5c0-.9.7-1.5 1.5-1.5"/><path class="st3" d="m105.1 32.8c.8 0 1.5.7 1.5 1.5c0 .8-.7 1.5-1.5 1.5c-.8 0-1.5-.7-1.5-1.5c0-.9.7-1.5 1.5-1.5"/><path class="st3" d="m105.1 36.8c.8 0 1.5.7 1.5 1.5c0 .8-.7 1.5-1.5 1.5c-.8 0-1.5-.7-1.5-1.5c0-.9.7-1.5 1.5-1.5"/><path class="st3" d="m105.1 40.7c.8 0 1.5.7 1.5 1.5c0 .8-.7 1.5-1.5 1.5c-.8 0-1.5-.7-1.5-1.5c0-.8.7-1.5 1.5-1.5"/><path class="st3" d="m105.1 44.7c.8 0 1.5.7 1.5 1.5c0 .8-.7 1.5-1.5 1.5c-.8 0-1.5-.7-1.5-1.5c0-.8.7-1.5 1.5-1.5"/><path class="st3" d="m105.1 48.7c.8 0 1.5.7 1.5 1.5c0 .8-.7 1.5-1.5 1.5c-.8 0-1.5-.7-1.5-1.5c0-.8.7-1.5 1.5-1.5"/><path class="st3" d="m105.1 52.7c.8 0 1.5.7 1.5 1.5c0 .8-.7 1.5-1.5 1.5c-.8 0-1.5-.7-1.5-1.5c0-.8.7-1.5 1.5-1.5"/><path class="st3" d="m105.1 56.7c.8 0 1.5.7 1.5 1.5c0 .8-.7 1.5-1.5 1.5c-.8 0-1.5-.7-1.5-1.5c0-.8.7-1.5 1.5-1.5"/><path class="st3" d="m105.1 60.7c.8 0 1.5.7 1.5 1.5c0 .8-.7 1.5-1.5 1.5c-.8 0-1.5-.7-1.5-1.5c0-.9.7-1.5 1.5-1.5"/><path class="st3" d="m105.1 64.7c.8 0 1.5.7 1.5 1.5c0 .8-.7 1.5-1.5 1.5c-.8 0-1.5-.7-1.5-1.5c0-.9.7-1.5 1.5-1.5"/><path class="st3" d="m105.1 68.6c.8 0 1.5.7 1.5 1.5c0 .8-.7 1.5-1.5 1.5c-.8 0-1.5-.7-1.5-1.5c0-.8.7-1.5 1.5-1.5"/><path class="st3" d="m105.1 72.6c.8 0 1.5.7 1.5 1.5c0 .8-.7 1.5-1.5 1.5c-.8 0-1.5-.7-1.5-1.5c0-.8.7-1.5 1.5-1.5"/><path class="st3" d="m105.1 76.6c.8 0 1.5.7 1.5 1.5c0 .8-.7 1.5-1.5 1.5c-.8 0-1.5-.7-1.5-1.5c0-.8.7-1.5 1.5-1.5"/><path class="st3" d="m105.1 80.6c.8 0 1.5.7 1.5 1.5c0 .8-.7 1.5-1.5 1.5c-.8 0-1.5-.7-1.5-1.5c0-.8.7-1.5 1.5-1.5"/><path class="st3" d="m105.1 84.6c.8 0 1.5.7 1.5 1.5c0 .8-.7 1.5-1.5 1.5c-.8 0-1.5-.7-1.5-1.5c0-.8.7-1.5 1.5-1.5"/><path class="st3" d="m105.1 88.6c.8 0 1.5.7 1.5 1.5c0 .8-.7 1.5-1.5 1.5c-.8 0-1.5-.7-1.5-1.5c0-.9.7-1.5 1.5-1.5"/><path class="st3" d="m105.1 92.6c.8 0 1.5.7 1.5 1.5c0 .8-.7 1.5-1.5 1.5c-.8 0-1.5-.7-1.5-1.5c0-.9.7-1.5 1.5-1.5"/><path class="st3" d="m105.1 96.6c.8 0 1.5.7 1.5 1.5c0 .8-.7 1.5-1.5 1.5c-.8 0-1.5-.7-1.5-1.5c0-.9.7-1.5 1.5-1.5"/><path class="st3" d="m105.1 100.5c.8 0 1.5.7 1.5 1.5c0 .8-.7 1.5-1.5 1.5c-.8 0-1.5-.7-1.5-1.5c0-.8.7-1.5 1.5-1.5"/><path class="st3" d="m105.1 104.5c.8 0 1.5.7 1.5 1.5c0 .8-.7 1.5-1.5 1.5c-.8 0-1.5-.7-1.5-1.5c0-.8.7-1.5 1.5-1.5"/><path class="st3" d="m105.1 108.5c.8 0 1.5.7 1.5 1.5c0 .8-.7 1.5-1.5 1.5c-.8 0-1.5-.7-1.5-1.5c0-.8.7-1.5 1.5-1.5"/><path class="st3" d="m105.1 112.5c.8 0 1.5.7 1.5 1.5c0 .8-.7 1.5-1.5 1.5c-.8 0-1.5-.7-1.5-1.5c0-.8.7-1.5 1.5-1.5"/><path class="st3" d="m105.1 116.5c.8 0 1.5.7 1.5 1.5c0 .8-.7 1.5-1.5 1.5c-.8 0-1.5-.7-1.5-1.5c0-.8.7-1.5 1.5-1.5"/><path class="st3" d="m105.1 120.5c.8 0 1.5.7 1.5 1.5c0 .8-.7 1.5-1.5 1.5c-.8 0-1.5-.7-1.5-1.5c0-.9.7-1.5 1.5-1.5"/><path class="st3" d="m105.1 124.5c.8 0 1.5.7 1.5 1.5c0 .8-.7 1.5-1.5 1.5c-.8 0-1.5-.7-1.5-1.5c0-.9.7-1.5 1.5-1.5"/><path class="st3" d="m105.1 128.4c.8 0 1.5.7 1.5 1.5c0 .8-.7 1.5-1.5 1.5c-.8 0-1.5-.7-1.5-1.5c0-.8.7-1.5 1.5-1.5"/><path class="st2" d="m105.1 132.4c.8 0 1.5.7 1.5 1.5c0 .8-.7 1.5-1.5 1.5c-.8 0-1.5-.7-1.5-1.5c0-.8.7-1.5 1.5-1.5"/><path class="st2" d="m105.1 136.4c.8 0 1.5.7 1.5 1.5c0 .8-.7 1.5-1.5 1.5c-.8 0-1.5-.7-1.5-1.5c0-.8.7-1.5 1.5-1.5"/><path class="st2" d="m105.1 140.4c.8 0 1.5.7 1.5 1.5s-.7 1.5-1.5 1.5c-.8 0-1.5-.7-1.5-1.5s.7-1.5 1.5-1.5"/><path class="st2" d="m109.4.9c.8 0 1.5.7 1.5 1.5c0 .8-.7 1.5-1.5 1.5c-.8 0-1.5-.7-1.5-1.5c0-.9.7-1.5 1.5-1.5"/><path class="st2" d="m109.4 4.9c.8 0 1.5.7 1.5 1.5c0 .8-.7 1.5-1.5 1.5c-.8 0-1.5-.7-1.5-1.5c0-.9.7-1.5 1.5-1.5"/><path class="st2" d="m109.4 8.8c.8 0 1.5.7 1.5 1.5c0 .8-.7 1.5-1.5 1.5c-.8 0-1.5-.7-1.5-1.5c0-.8.7-1.5 1.5-1.5"/><path class="st3" d="m109.4 12.8c.8 0 1.5.7 1.5 1.5c0 .8-.7 1.5-1.5 1.5c-.8 0-1.5-.7-1.5-1.5c0-.8.7-1.5 1.5-1.5"/><path class="st3" d="m109.4 16.8c.8 0 1.5.7 1.5 1.5s-.7 1.5-1.5 1.5c-.8 0-1.5-.7-1.5-1.5s.7-1.5 1.5-1.5"/><path class="st3" d="m109.4 20.8c.8 0 1.5.7 1.5 1.5c0 .8-.7 1.5-1.5 1.5c-.8 0-1.5-.7-1.5-1.5c0-.8.7-1.5 1.5-1.5"/><path class="st3" d="m109.4 24.8c.8 0 1.5.7 1.5 1.5c0 .8-.7 1.5-1.5 1.5c-.8 0-1.5-.7-1.5-1.5c0-.8.7-1.5 1.5-1.5"/><path class="st3" d="m109.4 28.8c.8 0 1.5.7 1.5 1.5c0 .8-.7 1.5-1.5 1.5c-.8 0-1.5-.7-1.5-1.5c0-.9.7-1.5 1.5-1.5"/><path class="st3" d="m109.4 32.8c.8 0 1.5.7 1.5 1.5c0 .8-.7 1.5-1.5 1.5c-.8 0-1.5-.7-1.5-1.5c0-.9.7-1.5 1.5-1.5"/><path class="st3" d="m109.4 36.8c.8 0 1.5.7 1.5 1.5c0 .8-.7 1.5-1.5 1.5c-.8 0-1.5-.7-1.5-1.5c0-.9.7-1.5 1.5-1.5"/><path class="st3" d="m109.4 40.7c.8 0 1.5.7 1.5 1.5c0 .8-.7 1.5-1.5 1.5c-.8 0-1.5-.7-1.5-1.5c0-.8.7-1.5 1.5-1.5"/><path class="st3" d="m109.4 44.7c.8 0 1.5.7 1.5 1.5c0 .8-.7 1.5-1.5 1.5c-.8 0-1.5-.7-1.5-1.5c0-.8.7-1.5 1.5-1.5"/><path class="st3" d="m109.4 48.7c.8 0 1.5.7 1.5 1.5c0 .8-.7 1.5-1.5 1.5c-.8 0-1.5-.7-1.5-1.5c0-.8.7-1.5 1.5-1.5"/><path class="st3" d="m109.4 52.7c.8 0 1.5.7 1.5 1.5c0 .8-.7 1.5-1.5 1.5c-.8 0-1.5-.7-1.5-1.5c0-.8.7-1.5 1.5-1.5"/><path class="st3" d="m109.4 56.7c.8 0 1.5.7 1.5 1.5c0 .8-.7 1.5-1.5 1.5c-.8 0-1.5-.7-1.5-1.5c0-.8.7-1.5 1.5-1.5"/><path class="st3" d="m109.4 60.7c.8 0 1.5.7 1.5 1.5c0 .8-.7 1.5-1.5 1.5c-.8 0-1.5-.7-1.5-1.5c0-.9.7-1.5 1.5-1.5"/><path class="st3" d="m109.4 64.7c.8 0 1.5.7 1.5 1.5c0 .8-.7 1.5-1.5 1.5c-.8 0-1.5-.7-1.5-1.5c0-.9.7-1.5 1.5-1.5"/><path class="st3" d="m109.4 68.6c.8 0 1.5.7 1.5 1.5c0 .8-.7 1.5-1.5 1.5c-.8 0-1.5-.7-1.5-1.5c0-.8.7-1.5 1.5-1.5"/><path class="st3" d="m109.4 72.6c.8 0 1.5.7 1.5 1.5c0 .8-.7 1.5-1.5 1.5c-.8 0-1.5-.7-1.5-1.5c0-.8.7-1.5 1.5-1.5"/><path class="st3" d="m109.4 76.6c.8 0 1.5.7 1.5 1.5c0 .8-.7 1.5-1.5 1.5c-.8 0-1.5-.7-1.5-1.5c0-.8.7-1.5 1.5-1.5"/><path class="st3" d="m109.4 80.6c.8 0 1.5.7 1.5 1.5c0 .8-.7 1.5-1.5 1.5c-.8 0-1.5-.7-1.5-1.5c0-.8.7-1.5 1.5-1.5"/><path class="st3" d="m109.4 84.6c.8 0 1.5.7 1.5 1.5c0 .8-.7 1.5-1.5 1.5c-.8 0-1.5-.7-1.5-1.5c0-.8.7-1.5 1.5-1.5"/><path class="st3" d="m109.4 88.6c.8 0 1.5.7 1.5 1.5c0 .8-.7 1.5-1.5 1.5c-.8 0-1.5-.7-1.5-1.5c0-.9.7-1.5 1.5-1.5"/><path class="st3" d="m109.4 92.6c.8 0 1.5.7 1.5 1.5c0 .8-.7 1.5-1.5 1.5c-.8 0-1.5-.7-1.5-1.5c0-.9.7-1.5 1.5-1.5"/><path class="st3" d="m109.4 96.6c.8 0 1.5.7 1.5 1.5c0 .8-.7 1.5-1.5 1.5c-.8 0-1.5-.7-1.5-1.5c0-.9.7-1.5 1.5-1.5"/><path class="st3" d="m109.4 100.5c.8 0 1.5.7 1.5 1.5c0 .8-.7 1.5-1.5 1.5c-.8 0-1.5-.7-1.5-1.5c0-.8.7-1.5 1.5-1.5"/><path class="st3" d="m109.4 104.5c.8 0 1.5.7 1.5 1.5c0 .8-.7 1.5-1.5 1.5c-.8 0-1.5-.7-1.5-1.5c0-.8.7-1.5 1.5-1.5"/><path class="st3" d="m109.4 108.5c.8 0 1.5.7 1.5 1.5c0 .8-.7 1.5-1.5 1.5c-.8 0-1.5-.7-1.5-1.5c0-.8.7-1.5 1.5-1.5"/><path class="st3" d="m109.4 112.5c.8 0 1.5.7 1.5 1.5c0 .8-.7 1.5-1.5 1.5c-.8 0-1.5-.7-1.5-1.5c0-.8.7-1.5 1.5-1.5"/><path class="st3" d="m109.4 116.5c.8 0 1.5.7 1.5 1.5c0 .8-.7 1.5-1.5 1.5c-.8 0-1.5-.7-1.5-1.5c0-.8.7-1.5 1.5-1.5"/><path class="st3" d="m109.4 120.5c.8 0 1.5.7 1.5 1.5c0 .8-.7 1.5-1.5 1.5c-.8 0-1.5-.7-1.5-1.5c0-.9.7-1.5 1.5-1.5"/><path class="st3" d="m109.4 124.5c.8 0 1.5.7 1.5 1.5c0 .8-.7 1.5-1.5 1.5c-.8 0-1.5-.7-1.5-1.5c0-.9.7-1.5 1.5-1.5"/><path class="st3" d="m109.4 128.4c.8 0 1.5.7 1.5 1.5c0 .8-.7 1.5-1.5 1.5c-.8 0-1.5-.7-1.5-1.5c0-.8.7-1.5 1.5-1.5"/><path class="st2" d="m109.4 132.4c.8 0 1.5.7 1.5 1.5c0 .8-.7 1.5-1.5 1.5c-.8 0-1.5-.7-1.5-1.5c0-.8.7-1.5 1.5-1.5"/><path class="st2" d="m109.4 136.4c.8 0 1.5.7 1.5 1.5c0 .8-.7 1.5-1.5 1.5c-.8 0-1.5-.7-1.5-1.5c0-.8.7-1.5 1.5-1.5"/><path class="st2" d="m109.4 140.4c.8 0 1.5.7 1.5 1.5s-.7 1.5-1.5 1.5c-.8 0-1.5-.7-1.5-1.5s.7-1.5 1.5-1.5"/><path class="st2" d="m113.7.9c.8 0 1.5.7 1.5 1.5c0 .8-.7 1.5-1.5 1.5c-.8 0-1.5-.7-1.5-1.5c0-.9.7-1.5 1.5-1.5"/><path class="st2" d="m113.7 4.9c.8 0 1.5.7 1.5 1.5c0 .8-.7 1.5-1.5 1.5c-.8 0-1.5-.7-1.5-1.5c0-.9.7-1.5 1.5-1.5"/><path class="st2" d="m113.7 8.8c.8 0 1.5.7 1.5 1.5c0 .8-.7 1.5-1.5 1.5c-.8 0-1.5-.7-1.5-1.5c0-.8.7-1.5 1.5-1.5"/><path class="st3" d="m113.7 12.8c.8 0 1.5.7 1.5 1.5c0 .8-.7 1.5-1.5 1.5c-.8 0-1.5-.7-1.5-1.5c0-.8.7-1.5 1.5-1.5"/><path class="st3" d="m113.7 16.8c.8 0 1.5.7 1.5 1.5s-.7 1.5-1.5 1.5c-.8 0-1.5-.7-1.5-1.5s.7-1.5 1.5-1.5"/><path class="st3" d="m113.7 20.8c.8 0 1.5.7 1.5 1.5c0 .8-.7 1.5-1.5 1.5c-.8 0-1.5-.7-1.5-1.5c0-.8.7-1.5 1.5-1.5"/><path class="st3" d="m113.7 24.8c.8 0 1.5.7 1.5 1.5c0 .8-.7 1.5-1.5 1.5c-.8 0-1.5-.7-1.5-1.5c0-.8.7-1.5 1.5-1.5"/><path class="st3" d="m113.7 28.8c.8 0 1.5.7 1.5 1.5c0 .8-.7 1.5-1.5 1.5c-.8 0-1.5-.7-1.5-1.5c0-.9.7-1.5 1.5-1.5"/><path class="st3" d="m113.7 32.8c.8 0 1.5.7 1.5 1.5c0 .8-.7 1.5-1.5 1.5c-.8 0-1.5-.7-1.5-1.5c0-.9.7-1.5 1.5-1.5"/><path class="st3" d="m113.7 36.8c.8 0 1.5.7 1.5 1.5c0 .8-.7 1.5-1.5 1.5c-.8 0-1.5-.7-1.5-1.5c0-.9.7-1.5 1.5-1.5"/><path class="st3" d="m113.7 40.7c.8 0 1.5.7 1.5 1.5c0 .8-.7 1.5-1.5 1.5c-.8 0-1.5-.7-1.5-1.5c0-.8.7-1.5 1.5-1.5"/><path class="st3" d="m113.7 44.7c.8 0 1.5.7 1.5 1.5c0 .8-.7 1.5-1.5 1.5c-.8 0-1.5-.7-1.5-1.5c0-.8.7-1.5 1.5-1.5"/><path class="st3" d="m113.7 48.7c.8 0 1.5.7 1.5 1.5c0 .8-.7 1.5-1.5 1.5c-.8 0-1.5-.7-1.5-1.5c0-.8.7-1.5 1.5-1.5"/><path class="st3" d="m113.7 52.7c.8 0 1.5.7 1.5 1.5c0 .8-.7 1.5-1.5 1.5c-.8 0-1.5-.7-1.5-1.5c0-.8.7-1.5 1.5-1.5"/><path class="st3" d="m113.7 56.7c.8 0 1.5.7 1.5 1.5c0 .8-.7 1.5-1.5 1.5c-.8 0-1.5-.7-1.5-1.5c0-.8.7-1.5 1.5-1.5"/><path class="st3" d="m113.7 60.7c.8 0 1.5.7 1.5 1.5c0 .8-.7 1.5-1.5 1.5c-.8 0-1.5-.7-1.5-1.5c0-.9.7-1.5 1.5-1.5"/><path class="st3" d="m113.7 64.7c.8 0 1.5.7 1.5 1.5c0 .8-.7 1.5-1.5 1.5c-.8 0-1.5-.7-1.5-1.5c0-.9.7-1.5 1.5-1.5"/><path class="st3" d="m113.7 68.6c.8 0 1.5.7 1.5 1.5c0 .8-.7 1.5-1.5 1.5c-.8 0-1.5-.7-1.5-1.5c0-.8.7-1.5 1.5-1.5"/><path class="st3" d="m113.7 72.6c.8 0 1.5.7 1.5 1.5c0 .8-.7 1.5-1.5 1.5c-.8 0-1.5-.7-1.5-1.5c0-.8.7-1.5 1.5-1.5"/><path class="st3" d="m113.7 76.6c.8 0 1.5.7 1.5 1.5c0 .8-.7 1.5-1.5 1.5c-.8 0-1.5-.7-1.5-1.5c0-.8.7-1.5 1.5-1.5"/><path class="st3" d="m113.7 80.6c.8 0 1.5.7 1.5 1.5c0 .8-.7 1.5-1.5 1.5c-.8 0-1.5-.7-1.5-1.5c0-.8.7-1.5 1.5-1.5"/><path class="st3" d="m113.7 84.6c.8 0 1.5.7 1.5 1.5c0 .8-.7 1.5-1.5 1.5c-.8 0-1.5-.7-1.5-1.5c0-.8.7-1.5 1.5-1.5"/><path class="st3" d="m113.7 88.6c.8 0 1.5.7 1.5 1.5c0 .8-.7 1.5-1.5 1.5c-.8 0-1.5-.7-1.5-1.5c0-.9.7-1.5 1.5-1.5"/><path class="st3" d="m113.7 92.6c.8 0 1.5.7 1.5 1.5c0 .8-.7 1.5-1.5 1.5c-.8 0-1.5-.7-1.5-1.5c0-.9.7-1.5 1.5-1.5"/><path class="st3" d="m113.7 96.6c.8 0 1.5.7 1.5 1.5c0 .8-.7 1.5-1.5 1.5c-.8 0-1.5-.7-1.5-1.5c0-.9.7-1.5 1.5-1.5"/><path class="st3" d="m113.7 100.5c.8 0 1.5.7 1.5 1.5c0 .8-.7 1.5-1.5 1.5c-.8 0-1.5-.7-1.5-1.5c0-.8.7-1.5 1.5-1.5"/><path class="st3" d="m113.7 104.5c.8 0 1.5.7 1.5 1.5c0 .8-.7 1.5-1.5 1.5c-.8 0-1.5-.7-1.5-1.5c0-.8.7-1.5 1.5-1.5"/><path class="st3" d="m113.7 108.5c.8 0 1.5.7 1.5 1.5c0 .8-.7 1.5-1.5 1.5c-.8 0-1.5-.7-1.5-1.5c0-.8.7-1.5 1.5-1.5"/><path class="st3" d="m113.7 112.5c.8 0 1.5.7 1.5 1.5c0 .8-.7 1.5-1.5 1.5c-.8 0-1.5-.7-1.5-1.5c0-.8.7-1.5 1.5-1.5"/><path class="st3" d="m113.7 116.5c.8 0 1.5.7 1.5 1.5c0 .8-.7 1.5-1.5 1.5c-.8 0-1.5-.7-1.5-1.5c0-.8.7-1.5 1.5-1.5"/><path class="st3" d="m113.7 120.5c.8 0 1.5.7 1.5 1.5c0 .8-.7 1.5-1.5 1.5c-.8 0-1.5-.7-1.5-1.5c0-.9.7-1.5 1.5-1.5"/><path class="st3" d="m113.7 124.5c.8 0 1.5.7 1.5 1.5c0 .8-.7 1.5-1.5 1.5c-.8 0-1.5-.7-1.5-1.5c0-.9.7-1.5 1.5-1.5"/><path class="st3" d="m113.7 128.4c.8 0 1.5.7 1.5 1.5c0 .8-.7 1.5-1.5 1.5c-.8 0-1.5-.7-1.5-1.5c0-.8.7-1.5 1.5-1.5"/><path class="st2" d="m113.7 132.4c.8 0 1.5.7 1.5 1.5c0 .8-.7 1.5-1.5 1.5c-.8 0-1.5-.7-1.5-1.5c0-.8.7-1.5 1.5-1.5"/><path class="st2" d="m113.7 136.4c.8 0 1.5.7 1.5 1.5c0 .8-.7 1.5-1.5 1.5c-.8 0-1.5-.7-1.5-1.5c0-.8.7-1.5 1.5-1.5"/><path class="st2" d="m113.7 140.4c.8 0 1.5.7 1.5 1.5s-.7 1.5-1.5 1.5c-.8 0-1.5-.7-1.5-1.5s.7-1.5 1.5-1.5"/><path class="st0" d="m93.7 72.4c0 14.9-12.1 27-27 27c-14.9 0-27-12.1-27-27c0-14.9 12.1-27 27-27c14.9 0 27 12.1 27 27"/><path class="st4" d="m90.3 72.4c0 13-10.6 23.6-23.6 23.6s-23.7-10.5-23.7-23.6c0-13 10.6-23.6 23.6-23.6s23.7 10.6 23.7 23.6"/><path class="st0" d="m55.3 72.4c0 6.3 5.1 11.4 11.4 11.4c3.5 0 6.5-1.4 8.7-4c.6-.8.5-2-.3-2.6c-.8-.6-2-.5-2.6.3c-1.5 1.7-3.5 2.5-5.8 2.5c-4.2 0-7.6-3.4-7.6-7.6c0-4.2 3.4-7.6 7.6-7.6c2.4 0 4.6 1.1 6.1 3c.6.8 1.8 1 2.6.3c.8-.6 1-1.8.3-2.6c-2.2-2.8-5.5-4.5-9-4.5c-6.3 0-11.4 5.1-11.4 11.4"/><path class="st0" d="m67.3 70.6c-1 0-1.8.6-1.8 1.8c0 1.2.8 1.9 1.8 1.9h12.1c1 0 1.8-.7 1.8-1.9c0-1.2-.8-1.8-1.8-1.8h-12.1z"/><path class="st2" d="m155.7 87v-3.2h1.9v3.2v1.6v3.8c0 .6.2 1.2 1.3 1.2c.4 0 1.1-.1 1.6-.2v1.7c-.9.1-1.4.2-2.1.2c-1.8 0-2.8-.6-2.8-2.4v-4.3v-1.6z"/><path class="st2" d="m142.1 89.3c-.3-.4-1-1.3-2.7-1.3c-1.4 0-1.9.5-1.9 1c0 .6.8.8 1.9.9c2.3.3 4.3.6 4.3 2.7c0 2.4-2.8 2.7-4.1 2.7c-2.9 0-3.8-1.1-4.5-2l1.6-.9c.7 1.1 1.8 1.4 3 1.4c1 0 1.9-.3 1.9-1c0-.6-.5-.7-2.5-1c-3.1-.4-3.8-1.4-3.8-2.7c0-.9.7-2.6 3.9-2.6c.9 0 3 .2 4.2 2l-1.3.8z"/><path class="st2" d="m144.7 90.9c0-2.2 1.3-4.4 4.7-4.4c3.3 0 4.7 2.2 4.7 4.4c0 3.3-2.4 4.4-4.7 4.4c-2.3 0-4.7-1.1-4.7-4.4m7.4-.1c0-1.9-1.3-2.8-2.7-2.8c-1.5 0-2.7.8-2.7 2.8c0 1.8 1 2.8 2.7 2.8c1.7.1 2.7-1 2.7-2.8"/><path class="st2" d="m171.5 87h1.5v-2.7h1.9v2.7h2.9v1.6h-2.9v3.8c0 .6.2 1.2 1.3 1.2c.4 0 1.1-.1 1.6-.2v1.7c-.9.1-1.4.2-2.1.2c-1.8 0-2.8-.6-2.8-2.4v-4.3h-1.5v-1.6z"/><rect x="179.4" y="86.4" class="st2" width="1.9" height="8.9"/><path class="st2" d="m183 90.9c0-2.2 1.3-4.4 4.6-4.4c3.3 0 4.7 2.2 4.7 4.4c0 3.3-2.4 4.4-4.7 4.4c-2.2 0-4.6-1.1-4.6-4.4m7.4-.1c0-1.9-1.3-2.8-2.7-2.8c-1.5 0-2.7.8-2.7 2.8c0 1.8 1 2.8 2.7 2.8c1.7.1 2.7-1 2.7-2.8"/><path class="st2" d="m210.4 89.3c-.3-.4-1-1.3-2.7-1.3c-1.4 0-1.9.5-1.9 1c0 .6.8.8 1.9.9c2.3.3 4.3.6 4.3 2.7c0 2.4-2.8 2.7-4.1 2.7c-2.9 0-3.8-1.1-4.5-2l1.6-.9c.7 1.1 1.8 1.4 3 1.4c1 0 1.9-.3 1.9-1c0-.6-.5-.7-2.5-1c-3.1-.4-3.8-1.4-3.8-2.7c0-.9.7-2.6 3.9-2.6c.9 0 3 .2 4.2 2l-1.3.8z"/><path class="st2" d="m193.9 86.4h4.6c2.5 0 3.6 1.2 3.6 3.9v5h-2v-4.5c0-1.9-.4-2.7-1.9-2.7h-2.4v7.2h-1.9v-8.9z"/><path class="st2" d="m170.4 95.3h-4.6c-2.5 0-3.6-1.2-3.6-3.9v-4.7h2v4.2c0 1.9.4 2.7 1.9 2.7h2.3v-6.9h2v8.6z"/><path class="st2" d="m150.5 57.4c-.4 1.9-2.3 5.3-7.3 5.3c-4.4 0-7.9-2.1-7.9-7.6c0-3.6 2.8-6.9 7.6-6.9c5 0 7.1 2.8 7.3 5.1h-3.1c-.3-1.1-1.6-2.5-4-2.5c-3 0-4.7 2.2-4.7 4.4c0 2.6 1.4 4.8 4.4 4.8c2.7 0 4.1-1.4 4.4-2.6h3.3z"/><path class="st2" d="m167 58.2c-.2 1.1-2 4.5-7.1 4.5c-4.9 0-7.8-3-7.8-7.3c0-3.8 2.5-7.2 7.5-7.2c5.1 0 7.6 3.2 7.6 8.1h-11.9c.1.9.6 3.7 4.5 3.8c2 0 3.3-.9 3.7-2h3.5zm-3.1-4.3c-.5-2.3-2.1-3.2-4.3-3.2c-1.6 0-3.5.6-4.2 3.2h8.5z"/><path class="st2" d="m185.3 49.1h2.4v-4.4h3.1v4.4h4.7v2.7h-4.7v6.2c0 1 .4 2 2.2 2c.6 0 1.9-.2 2.7-.4v2.8c-1.5.2-2.3.3-3.4.3c-3 0-4.6-1-4.6-3.9v-7h-2.4v-2.7z"/><path class="st2" d="m224.2 49.1v-5.3h3.1v5.3v2.7v6.2c0 1 .4 2 2.2 2c.6 0 1.9-.2 2.7-.4v2.8c-1.5.2-2.3.3-3.4.3c-3 0-4.6-1-4.6-3.9v-7v-2.7z"/><path class="st2" d="m169.9 48h7.4c4.1 0 5.9 1.9 5.9 6.4v8.2h-3.2v-7.7c0-3.1-.6-4.5-3.2-4.5h-3.8v12.1h-3.2v-14.5z"/><path class="st2" d="m197.9 54.2c0-3.9 1.6-6.2 5.5-6.2h3.5v2.4h-3c-2.3 0-2.8 1.3-2.8 4.1v8h-3.2v-8.3z"/><path class="st2" d="m215.1 50.5h-6.2v-2.5h6.8c3.7 0 5.4 2.3 5.4 6.2v8.3h-8.6c-2.7 0-5.2-1-5.2-4.4c0-3.4 2.3-4.3 5.2-4.3h5.4c-.1-2.1-.6-3.3-2.8-3.3m-2.1 5.7c-1.5 0-2.5.3-2.5 1.9c0 1.6 1 2 2.5 2h4.9v-3.9h-4.9z"/><path class="st2" d="m177.2 69.8h-6.2v-2.4h6.8c3.7 0 5.4 2.3 5.4 6.2v8.3h-8.6c-2.7 0-5.2-1-5.2-4.4c0-3.4 2.4-4.3 5.2-4.3h5.4c-.2-2.2-.7-3.4-2.8-3.4m-2.2 5.8c-1.5 0-2.4.3-2.4 1.9c0 1.6 1 2 2.4 2h4.9v-3.9h-4.9z"/><path class="st2" d="m150.5 76.6c-.4 1.9-2.3 5.3-7.3 5.3c-4.4 0-7.9-2.1-7.9-7.6c0-3.6 2.8-6.9 7.6-6.9c5 0 7.1 2.8 7.3 5.1h-3.1c-.3-1.1-1.6-2.5-4-2.5c-3 0-4.7 2.2-4.7 4.4c0 2.6 1.4 4.8 4.4 4.8c2.7 0 4.1-1.4 4.4-2.6h3.3z"/><path class="st2" d="m152.1 74.6c0-3.6 2.2-7.2 7.6-7.2c5.4 0 7.6 3.6 7.6 7.2c0 5.4-3.9 7.3-7.6 7.3c-3.7 0-7.6-1.9-7.6-7.3m12 0c0-3.2-2.1-4.5-4.4-4.5c-2.4 0-4.4 1.3-4.4 4.5c0 2.9 1.6 4.6 4.4 4.6c2.8 0 4.4-1.7 4.4-4.6"/><path class="st2" d="m197 72c-.5-.6-1.6-2.1-4.4-2.1c-2.3 0-3 .9-3 1.6c0 1.1 1.3 1.2 3.2 1.5c3.7.5 7.1 1 7.1 4.4c0 4-4.6 4.5-6.8 4.5c-4.7 0-6.2-1.9-7.3-3.3l2.7-1.5c1.1 1.8 3 2.3 5 2.3c1.7 0 3.2-.5 3.2-1.7c0-1-.8-1.1-4.1-1.6c-5.1-.7-6.2-2.3-6.2-4.4c0-1.4 1.1-4.3 6.4-4.3c1.5 0 4.9.4 7 3.2l-2.8 1.4z"/><path class="st2" d="m201.4 68.3h2.4v-4.4h3.1v4.4h4.7v2.7h-4.6v6.2c0 1 .4 2 2.2 2c.6 0 1.9-.2 2.7-.4v2.8c-1.5.2-2.3.3-3.4.3c-3 0-4.6-1-4.6-4v-7h-2.4v-2.6z"/><path class="st2" d="m10.1 125.4c.6.1 2 .5 2 3c0 1.7-.9 3-2.9 3c-1.6 0-2.7-1-2.7-3.1c0-2.4 1.5-2.7 1.8-2.8v1c-.2.1-.9.5-.9 1.7c0 1.5.8 2.1 1.9 2.1c1.2 0 1.9-.9 1.9-2c0-1.2-.7-1.7-1.1-1.9v-1z"/><polygon class="st2" points="6.6,124.5 6.6,119.7 7.5,119.7 7.5,123.4 8.8,123.4 8.8,120.2 9.7,120.2 9.7,123.4 11.1,123.4 
			11.1,119.6 12,119.6 12,124.5 		"/><polygon class="st2" points="6.6,118.8 6.6,117.7 10.5,114.1 6.6,114.1 6.6,113.1 12,113.1 12,114.1 8,117.8 12,117.8 12,118.8 		
			"/><polygon class="st2" points="7.5,110 7.5,112.3 6.6,112.3 6.6,106.5 7.5,106.5 7.5,108.9 12,108.9 12,110 		"/><path class="st2" d="m6.6 105.8v-3.2c0-1.3.3-2.2 1.6-2.2c1 0 1.5.7 1.6 1.5l2.2-1.6v1.3l-2.1 1.5v1.6h2.1v1h-5.4zm2.4-3.1c0-.8-.1-1.3-.8-1.3c-.6 0-.7.4-.7 1.3v2h1.5v-2z"/><path class="st2" d="m6.6 97.2v-1.2l5.3-2.6v1.1l-1.2.6v3.1l1.2.6v1.1l-5.3-2.7zm3.3-1.7l-2.4 1.1l2.4 1.1v-2.2z"/><polygon class="st2" points="6.6,92.8 6.6,91.7 11,91.7 11,87.9 12,87.9 12,92.8 		"/><path class="st2" d="m10.1 81.5c.6.1 2 .5 2 3c0 1.7-.9 3-2.9 3c-1.6 0-2.7-1-2.7-3.1c0-2.4 1.5-2.7 1.8-2.8v1c-.2.1-.9.5-.9 1.7c0 1.5.8 2.1 1.9 2.1c1.2 0 1.9-.9 1.9-2c0-1.2-.7-1.7-1.1-1.9v-1z"/><path class="st2" d="m6.5 77.7c0-2.3 1.4-3.2 2.8-3.2c1.1 0 2.8.7 2.8 3.2s-1.6 3.2-2.8 3.2c-1.4 0-2.8-.8-2.8-3.2m2.8-2.1c-1.3 0-1.9.9-1.9 2.1c0 1.2.6 2.1 1.9 2.1c1.5 0 1.9-1.1 1.9-2.1s-.4-2.1-1.9-2.1"/><path class="st2" d="m6.6 71.6v-1.2l5.3-2.6v1.1l-1.2.6v3.1l1.2.6v1.1l-5.3-2.7zm3.3-1.7l-2.4 1.1l2.4 1.1v-2.2z"/><path class="st2" d="m8.3 63c-.5.2-.9.6-.9 1.9c0 .7.2 1.4.7 1.4c.2 0 .5-.1.6-1.2l.2-1.3c.2-1.2.6-1.9 1.5-1.9c1.3 0 1.7 1.2 1.7 2.6c0 2.3-1.1 2.8-1.5 3l-.3-1c.4-.2 1-.6 1-2c0-.8-.3-1.6-.7-1.6c-.3 0-.6.4-.7 1.2l-.2 1.3c-.2 1.2-.7 1.9-1.5 1.9c-1.6 0-1.6-2.1-1.6-2.5c0-2.3 1.1-2.7 1.4-2.8l.3 1z"/><polygon class="st2" points="7.5,59.2 7.5,61.5 6.6,61.5 6.6,55.7 7.5,55.7 7.5,58.1 12,58.1 12,59.2 		"/><polygon class="st2" points="6.6,55.5 6.6,54.4 10.3,53.4 10.3,53.4 6.6,52.4 6.6,51.4 10.3,50.3 10.3,50.3 6.6,49.3 6.6,48.3 
			12,49.8 12,50.8 8.2,51.8 8.2,51.9 12,52.9 12,53.9 		"/><polygon class="st2" points="6.6,47.5 6.6,42.7 7.5,42.7 7.5,46.5 8.8,46.5 8.8,43.3 9.7,43.3 9.7,46.5 11.1,46.5 11.1,42.7 
			12,42.7 12,47.5 		"/><path class="st2" d="m6.6 41.8v-3.2c0-1.3.4-2.1 1.4-2.1c.7 0 .9.3 1.1.6c.2-.4.6-.8 1.3-.8c1 0 1.5.8 1.5 2.1v3.4h-5.3zm2.1-3.2c0-.7-.2-1-.6-1c-.5 0-.6.3-.6 1v2.2h1.2v-2.2zm2.4-.1c0-.7-.1-1.2-.8-1.2c-.6 0-.7.5-.7 1.2v2.3h1.5v-2.3z"/><rect x="10.9" y="34.7" class="st2" width="1" height="1"/><path class="st2" d="m10.1 27.6c.6.1 2 .5 2 3c0 1.7-.9 3-2.9 3c-1.6 0-2.7-1-2.7-3.1c0-2.4 1.5-2.7 1.8-2.8v1c-.2.1-.9.5-.9 1.7c0 1.5.8 2.1 1.9 2.1c1.2 0 1.9-.9 1.9-2c0-1.2-.7-1.7-1.1-1.9v-1z"/><path class="st2" d="m6.5 23.9c0-2.3 1.4-3.2 2.8-3.2c1.1 0 2.8.7 2.8 3.2c0 2.5-1.6 3.2-2.8 3.2c-1.4 0-2.8-.9-2.8-3.2m2.8-2.1c-1.3 0-1.9.9-1.9 2.1c0 1.2.6 2.1 1.9 2.1c1.5 0 1.9-1.1 1.9-2.1c0-1-.4-2.1-1.9-2.1"/><polygon class="st2" points="7.9,18.9 7.9,18.9 12,18.9 12,19.8 6.6,19.8 6.6,18.4 10.6,16.8 6.6,15.1 6.6,13.7 12,13.7 12,14.6 
			7.9,14.6 7.9,14.7 12,16.4 12,17.2 		"/></g></g></svg>