<?xml version="1.0" encoding="utf-8"?><!-- Generator: Adobe Illustrator 24.1.2, SVG Export Plug-In . SVG Version: 6.00 Build 0)  --><svg version="1.1" xmlns="http://www.w3.org/2000/svg" xmlns:xlink="http://www.w3.org/1999/xlink" x="0px" y="0px" viewBox="0 0 111.3 43.4" style="enable-background:new 0 0 111.3 43.4;" xml:space="preserve"><style type="text/css">
	.st0{fill:none;}
	.st1{fill:#EE3124;stroke:#EE3124;stroke-width:0.25;stroke-miterlimit:3.8636;}
</style><g id="Background"/><g id="Guides"/><g id="Foreground"><path d="m0 22.4v9.1h13.3c-5.9-.6-11.1-3.3-13.3-9.1z"/><path d="m0 10v-10h13.3c-7 1-11.4 5.3-13.3 10z"/><path d="m26.6 30.5v1h-8.2c3-.3 5.7-1 7.8-1.9v-7.6c0-4.1-.2-3.9 3.7-4.4v-1.1h-12.5v1.1c4.8.5 4.6.3 4.6 4.4v2.7c0 3.4-.5 5.5-5.9 5.5c-8.8 0-12.3-8-12.3-14.9c0-7.5 3-13.9 12.1-13.9c6.9 0 9.1 3.8 9.3 7.3h1.1v-5.7c0-.7-.5-1.3-1.7-1.7c-1.4-.5-2.9-1-4.9-1.3h23c-1.8.7-4.2 1.5-6.5 1.6v1.1h1.8c1.1 0 1.6.7 1.6 1.9v21.7c0 3.6.2 3.7-2.9 4.1l0 0c-3.2-.2-2.9-.5-2.9-4.1v-16.4l-.1-.1c-2 1.2-3.2 1.5-6.2 1.8v1.2c2.1 0 2.4-.2 2.4 1.7v11.8c.1 3.8.3 3.7-3.3 4.2z"/><path d="m43.4 26.3l0-26.3h8.6c-1.4.7-4.6 1.6-6.9 1.7v1.1h1.7c1.1 0 1.6.7 1.6 1.9l0 25.9c-4.1-.3-5-.5-5-4.3z"/><path d="m74.5 31.5h-13.8c3.7-1.4 6.6-4.8 7.4-9.1c.4 2.7 1.7 5.3 2.7 6.5c1.3 1.3 2.6 2.1 3.7 2.6z"/><path d="m110 13.3l1.3-.6v15.1c-1 .6-2.1 1.8-3.1 1.8c-2.8 0-2.9-3.4-2.9-5.1v-11.2h4.7z"/><path d="m103.8 31.5h-7.3v-1c-2.3-.2-3.8-.3-4-1.2c-.2-1-.2-1.6-.2-3v-6.6c0-3.1.3-6 2-6c.6 0 1.1 0 1.6.2l1.5.8c.2.1.4.2.6 0l1.2-.8c.2-.2.4-.3.3-.6h1.8v12.1c.2 3.6 1.1 5.3 2.5 6.1z"/><polygon points="111.3,31.5 108,31.5 111.3,29.9 	"/><path d="m85.1 30.5v1h-3.7l4.3-2l-.7-1.3c-1 .5-2.4 1.5-4.8 1.5c-6.1 0-8.3-5-8.3-9.8h13.8v-1.2c0-5.4-3.1-8.8-7.9-8.8c-6 0-8.9 4.2-9.7 8.5c-.6-6.3-4.2-8.5-8.7-8.5c-2.7 0-5.4 1.3-7.2 3.5l0-13.4h59v11.4h-6v-6.9h-1.1c-1.1.8-1.9 1.6-2.7 2.4v4.5l-2.9 0l-.2-.3c-.7-1.2-1.2-1.3-1.6-1.3c-.7 0-1.3.6-2.3 1.6l-2.2 2.3v-3.8l-.1-.1c-2 1.2-4.8 1.7-7.1 1.8v1.1c2 0 3.4-.2 3.4 1.8v11.8c.1 3.8.3 3.7-3.3 4.2z"/><path class="st0" d="m96.5 30.5v1h-11.4v-1c3.6-.5 3.4-.4 3.4-4.2v-11.8c0-2-1.3-1.8-3.4-1.8v-1.1c2.3-.1 5.1-.6 7.1-1.8l.1.1v3.8l2.2-2.3c1-1.1 1.6-1.6 2.3-1.6c.4 0 .9 0 1.6 1.3l.2.3l-2.1 0l1.5 1.9h1.6c.1.2-.1.4-.3.6l-1.2.8c-.3.2-.4.1-.6 0l-1.5-.8c-.4-.2-.9-.2-1.6-.2c-1.7 0-2 2.9-2 6v6.6c0 1.4 0 2 .2 3c.1.9 1.6 1 3.9 1.2z"/><path class="st0" d="m111.3 29.9l-3.3 1.6h-4.2c-1.4-.8-2.4-2.5-2.4-6.1v-12.1h-1.8c0 0 0 0 0 0l-1.1-1.9l2.9 0v-4.5c.8-.8 1.6-1.6 2.7-2.4h1.1v6.8h6v1.3l-1.3.6h-4.7v11.2c0 1.7.1 5.1 2.9 5.1c1 0 2.1-1.2 3.1-1.8v2.2z"/><path class="st0" d="m26.2 29.6c-2.2.9-4.9 1.6-7.8 1.9h-5.1c-5.9-.6-11.1-3.3-13.3-9.1v-12.4c1.9-4.7 6.3-9 13.3-10h6.4c2.1.3 3.5.8 4.9 1.3c1.2.4 1.7 1 1.7 1.7v5.7h-1.1c-.1-3.5-2.4-7.3-9.3-7.3c-9.1-.1-12.1 6.3-12.1 13.8c0 7 3.4 14.9 12.3 14.9c5.4 0 5.9-2 5.9-5.5v-2.6c0-4.1.2-3.9-4.6-4.4v-1.1h12.6v1.1c-3.9.5-3.7.3-3.7 4.4v7.6z"/><path class="st1" d="m29.4 4.6c0 1.4 1.1 2.5 2.5 2.5c1.3 0 2.5-1.2 2.5-2.5c0-1.3-1.1-2.5-2.5-2.5c-1.4 0-2.5 1.1-2.5 2.5z"/><path d="m52.6 21.3c0-2.2.1-4.6.7-6.2c.5-1.4 2.6-3.3 4.8-3.3c3.1 0 6.3 2.3 6.3 8.4c0 7.7-3.7 10.4-7.1 10.4c-1.6 0-3.4-.3-4-1c-.7-.8-.8-2.8-.8-4v-4.3z"/><path d="m72.4 18.4c0-5.4 2.8-7.1 5.6-7.1c2.4 0 4.5 1.9 4.5 4.6c0 1.9-1.2 2.5-2.1 2.5h-8z"/><path d="m5.3 33.3c-.4-.3-1-.5-1.9-.5c-2.2 0-3.4 1.3-3.4 2.5c0 1.4 1.1 2.5 3.3 2.5c.8 0 1.5-.2 1.9-.4l-.3-.4c-.4.2-.9.4-1.5.4c-1.3 0-2.4-.8-2.4-2.1c0-1.1.9-2 2.4-2c.7 0 1.3.2 1.6.4l.3-.4z"/><path d="m15.4 37.9c1.9 0 3.1-1.2 3.1-2.6c0-1.4-1.3-2.5-3.1-2.5c-1.8 0-3.1 1.1-3.1 2.5c.1 1.5 1.3 2.6 3.1 2.6zm0-.5c-1.6 0-2.1-1.2-2.1-2.1c0-.9.6-2 2.1-2c1.5 0 2.1 1 2.1 2c.1.9-.5 2.1-2.1 2.1z"/><path d="m31.4 32.9h-.7v3.9h0c-.4-.5-2.7-2.6-4-3.9h-.6v4.9h.7v-3.9h0c.4.4 2.7 2.6 4 3.9h.7v-4.9z"/><path d="m42.6 33.3c-.3-.3-.9-.5-1.5-.5c-1 0-1.8.5-1.8 1.2c0 .7.6 1 1.1 1.3c.5.3 1.4.7 1.4 1.3c0 .5-.5.8-1.1.8c-.6 0-1-.2-1.3-.4l-.4.4c.4.3 1.1.5 1.7.5c1 0 1.9-.5 1.9-1.3c0-.6-.5-1.1-1.3-1.6c-.8-.5-1.2-.7-1.2-1.1c0-.4.3-.7 1-.7c.4 0 .8.2 1.1.4l.4-.3z"/><path d="m50.1 32.9v3c0 1.3.7 2 2.4 2c1.5 0 2.3-.8 2.3-1.9v-3.1h-.8v3.1c0 .7-.4 1.4-1.5 1.4c-1.1 0-1.6-.5-1.6-1.5v-3h-.8z"/><path d="m62.7 37.8h3.4v-.5h-2.5v-4.4h-.8v4.9z"/><path d="m75.1 37.8v-4.4h2v-.5h-4.8v.5h2v4.4h.8z"/><path d="m85.1 37.8v-4.9h-.8v4.9h.8z"/><path d="m98.3 32.9h-.7v3.9h0c-.4-.5-2.7-2.6-4-3.9h-.6v4.9h.7v-3.9h0c.4.4 2.7 2.6 4 3.9h.7v-4.9z"/><path d="m110.5 35.6v1.7c-.3.1-.7.2-1.2.2c-1.3 0-2.4-.8-2.4-2.1c0-1.1.9-2 2.5-2c.7 0 1.2.2 1.6.4l.4-.4c-.4-.2-1.1-.5-2-.5c-2.2 0-3.4 1.3-3.4 2.5c0 1.3 1.1 2.5 3.3 2.5c.8 0 1.5-.2 2.1-.3v-2h-.9z"/><rect x="0" y="39" width="111.2" height="0.5"/><path d="m93.9 41.1c-.2-.1-.3-.1-.5-.1c-.3 0-.6.2-.6.5c0 .3.1.4.3.6c.2.2.3.3.3.5c0 .1-.1.4-.4.4c-.2 0-.4-.2-.4-.4h-.1l0 .4c.1.1.3.1.5.1c.4 0 .8-.3.8-.6c0-.3-.2-.4-.3-.6c-.2-.2-.3-.3-.3-.5c0-.2.2-.3.3-.3c.2 0 .3.2.3.4h.1l0-.4z"/><path d="m94.3 41.4l.2-.1c0 0 .1 0 .1 0c.1 0 .1.1 0 .2l-.3 1.2c0 .2-.1.3 0 .3c0 0 0 .1.1.1l.7-.4l0-.1l-.2.1c0 0-.1 0-.1 0c-.1 0-.1-.1 0-.2l.3-1.4c0-.1 0-.2 0-.2l-.8.5l0 0zm.6-.7c.2 0 .3-.1.3-.3c0-.1 0-.3-.2-.3c-.2 0-.3.1-.3.3c0 .1 0 .3.2.3z"/><path d="m95.4 43h.4l.1-.3c.2-.9.7-1.5 1.1-1.5c.2 0 .1.2.1.4l-.3 1c0 .2-.1.3 0 .3c0 0 0 .1.1.1l.7-.4l0-.1l-.2.1c0 0-.1 0-.1 0c-.1 0-.1-.1 0-.2l.3-1.1c.1-.4 0-.5-.2-.5c-.4 0-.9.5-1.1.9l0 0l.2-.7c0-.1 0-.2 0-.2l-.7.3l0 .1l.2-.1c0 0 .1 0 .1 0c.1 0 .1.1.1.2l-.8 1.7z"/><path d="m99.2 41.3l.1-.3c-.1 0-.3 0-.4 0c-.1 0-.3.1-.5.2c-.7.4-.7 1.1-.7 1.2c0 .3.1.7.5.7c.1 0 .2-.1.4-.2l.4-.3l0-.1c-.2.1-.4.3-.6.3c-.3 0-.4-.3-.4-.6c0-.5.3-1.1.8-1.1c.1 0 .3.1.3.2l.1 0z"/><path d="m100.7 42.6c-.2.1-.4.3-.6.3c-.4 0-.4-.4-.3-.9c.7.2 1.2-.2 1.2-.6c0-.2-.1-.4-.3-.4c-.7 0-1.2.7-1.2 1.4c0 .3.1.7.5.7c.1 0 .3-.1.5-.2l.2-.3l0 0zm-.9-.7c.1-.3.4-.8.7-.8c.1 0 .1.1.1.2c0 .2-.1.7-.8.6z"/><path d="m103.9 40.2l-1.1.4l0 .1l.2-.1c.2-.1.4-.1.3.1l-.4 1.7c0 .1 0 .2-.1.3c0 .1-.2.1-.5.1l0 .1h1.4l0-.1c-.3 0-.5 0-.4-.1c0-.1 0-.2 0-.3l.6-2.2z"/><path d="m104.5 43.1c1 0 2.1-1 2.1-2c0-.5-.3-.9-.8-.9c-.6 0-1.1.4-1.1 1.1c0 .4.2.7.7.7c.3 0 .5-.1.7-.3l0 0c-.2.6-.7 1.2-1.5 1.2l-.1.2zm1.7-2.2c0 .6-.4.9-.7.9c-.4 0-.5-.4-.5-.5c0-.5.3-.9.7-.9c.4-.1.5.3.5.5z"/><path d="m107.7 41.7c.3.2.6.4.6.7c0 .4-.3.6-.6.6c-.3 0-.5-.2-.5-.5c-.1-.5.2-.7.5-.8zm.5-.2c.2-.1.7-.3.7-.8c0-.3-.2-.5-.7-.5c-.5 0-1 .3-1 .8c0 .2.1.4.4.6c-.3.1-.8.3-.8.9c0 .3.2.6.9.6c.5 0 1.1-.3 1.1-.9c-.1-.3-.3-.6-.6-.7zm-.1-.1c-.3-.1-.5-.3-.5-.6c0-.3.2-.5.6-.5c.3 0 .4.3.4.4c-.1.4-.3.6-.5.7z"/><path d="m110.1 40.2l-.6 1.2c.7.1 1 .5 1 .9c0 .4-.3.6-.5.6c-.2 0-.3-.1-.5-.2l-.2-.2c0 0 0 0-.1 0l-.1.2c0 0 0 0 0 .1l.2.2c.2.1.4.1.6.1c.5 0 1.1-.4 1.1-1c0-.2-.1-.8-1.1-1l.3-.6h.9l.2-.3h-1.2z"/></g></svg>