<?xml version="1.0" encoding="utf-8"?><!-- Generator: Adobe Illustrator 24.1.2, SVG Export Plug-In . SVG Version: 6.00 Build 0)  --><svg version="1.1" id="Layer_1" xmlns="http://www.w3.org/2000/svg" xmlns:xlink="http://www.w3.org/1999/xlink" x="0px" y="0px" viewBox="0 0 240 234" style="enable-background:new 0 0 240 234;" xml:space="preserve"><style type="text/css">
	.st0{fill-rule:evenodd;clip-rule:evenodd;fill:#2E0013;}
	.st1{fill-rule:evenodd;clip-rule:evenodd;fill:#FF3F94;}
</style><g id="InDesign_1_"><g><rect x="10" y="10" class="st0" width="220" height="214"/></g><g><path class="st1" d="m0 0v234h240v-234h-240zm10 10h220v214h-220v-214z"/></g><path class="st1" d="m87 162.7c0 1-.2 1.3-1.3 1.3h-15.4c-1 0-1.3-.5-1.3-1.3v-107.4c0-1 .5-1.3 1.3-1.3h15.5c.6 0 1.2.5 1.2 1.2v107.5zm18.3-38.7c0-23.9 15.6-42.6 40.5-42.6c2.1 0 3.3 0 5.2.2v-26.6c0-.7.5-1 1-1h16c.8 0 1 .3 1 .8v93.5c0 2.8 0 6.3.5 10.1c0 .7-.2.8-.9 1.2c-8.5 4.1-17.4 5.9-25.9 5.9c-21.8 0-37.4-13.7-37.4-41.5zm45.7-26.5c-1.5-.7-3.5-1-5.9-1c-12.9 0-21.9 9.9-21.9 26.4c0 18.8 9.2 26.4 20.7 26.4c2.5 0 5.1-.3 7.1-1.2l0-50.6l0 0z"/></g></svg>