<?xml version="1.0" encoding="utf-8"?><!-- Generator: Adobe Illustrator 24.1.2, SVG Export Plug-In . SVG Version: 6.00 Build 0)  --><svg version="1.1" id="Layer_1" xmlns="http://www.w3.org/2000/svg" xmlns:xlink="http://www.w3.org/1999/xlink" x="0px" y="0px" viewBox="0 0 967.2 234" style="enable-background:new 0 0 967.2 234;" xml:space="preserve"><style type="text/css">
	.st0{fill:#2E0013;}
	.st1{fill-rule:evenodd;clip-rule:evenodd;fill:#2E0013;}
	.st2{fill-rule:evenodd;clip-rule:evenodd;fill:#FF3F94;}
</style><g><path class="st0" d="m287.6 93.1l7.7.2v-35.1h-7.9l.1 12.2h-8.1v-16.2h42.1v16.3h-8.1l.1-12.2h-7.9v35.1l7.7-.2v3.8h-25.8v-3.9z"/><path class="st0" d="m352.5 72.5l-6.9 25h-8.8l-8.3-27.8l-3.7.2v-3.8h18v3.9l-5.4-.3l5.8 20.8l6.8-24.4h9.5l6.6 24.5l5.9-20.8l-5 .1v-3.8h13.1v3.9l-3.4-.2l-8.4 27.7h-8.9l-6.9-25z"/><path class="st0" d="m383.3 93.3l5.5.2v-23.8l-5.4.3v-3.8h14.4v27.4l5.5-.2v3.6h-20v-3.7zm4.5-36.6c0-3.2 1.6-4.8 5.3-4.8c3.6 0 5.1 1.6 5.1 4.8c0 3.2-1.5 4.7-5.1 4.7c-3.7 0-5.3-1.5-5.3-4.7z"/><path class="st0" d="m406.9 93.3l4.9.2v-23.8l-4.9.3v-3.8h14.1l-.2 4.3c3.4-3.2 7.7-4.9 12.8-4.9c6.7 0 8.9 3.9 8.9 9.7v18.4l4.7-.2v3.6h-18.2v-3.6l4.4.2v-16.3c0-4.9-1.4-7.1-5.9-7.1c-4.7 0-6.7 3.2-6.7 7.2v16.1l4.3-.2v3.6h-18.2v-3.7z"/><path class="st0" d="m485.7 97.5c-13.9 0-20.5-6.1-20.5-22.1c0-17 8.1-21.8 17.9-21.8c6.2 0 10 2 11.9 4.8l-.2-4.2h8.2v16.1h-8.1c-.4-8.2-1.8-12.7-8.8-12.7c-6.3 0-10.3 3.8-10.3 18c0 14.1 4.3 17.8 11.8 17.8c7.1 0 11.6-2.1 11.3-14.3h5.9c.7 11.9-5.8 18.4-19.1 18.4z"/><path class="st0" d="m509.8 93.3l5.5.2v-23.8l-5.4.3v-3.8h14.4v27.4l5.5-.2v3.6h-20v-3.7zm4.5-36.6c0-3.2 1.6-4.8 5.3-4.8c3.6 0 5.1 1.6 5.1 4.8c0 3.2-1.5 4.7-5.1 4.7c-3.8 0-5.3-1.5-5.3-4.7z"/><path class="st0" d="m548.9 97.5c-7.1 0-11-3.6-11-9.2v-18.3h-5.4v-3.8h5.6l1.3-7.5h7.5v7.5h10.2v3.8h-10.1v18.1c0 3.4.7 5.6 3.7 5.6c2.9 0 4.2-2.3 4-8.6h5.5c.5 7.7-2.4 12.4-11.3 12.4z"/><path class="st0" d="m564.3 93.3l5.5.2v-23.8l-5.4.3v-3.8h14.4v27.4l5.5-.2v3.6h-20v-3.7zm4.5-36.6c0-3.2 1.6-4.8 5.3-4.8c3.6 0 5.1 1.6 5.1 4.8c0 3.2-1.5 4.7-5.1 4.7c-3.8 0-5.3-1.5-5.3-4.7z"/><path class="st0" d="m604.4 97.5c-9.2 0-16.3-3.2-16.3-16.1c0-13.6 8.2-15.9 15.8-15.9c10.3 0 15.1 3.7 14.4 15.6h-20.8v.2c0 10.9 2.6 12.7 8.1 12.7c5.3-.1 7.3-3 7.3-8.5h6.5c-.1 7.3-5 11.9-15 12zm-6.8-19.6h11.1c.3-5.3-.2-8.9-5-8.9c-3.8 0-5.7 1.3-6.1 8.9z"/><path class="st0" d="m631.2 92.8l.4 4.1h-6.6v-10.5h6.7c.6 5.5 3.4 7.7 9.4 7.7c4.3 0 6.1-1.7 6.1-4.6c0-7.7-21.4-.4-21.4-14.4c0-5.9 4.1-9.7 11.2-9.7c4.3 0 7.4 1.3 9.2 4.1l-.4-3.5h6.5v9.7h-6.7c-.7-5.2-3.4-6.8-7.6-6.8c-3.1 0-5 1.4-5 4.1c0 7.5 21.3.4 21.3 14.5c0 6.1-4.7 10-12.3 10c-5.4 0-8.9-1.6-10.8-4.7z"/><path class="st0" d="m280.1 161.1l6.3.2v-35.3l-6.3.3v-4.1h22.8v4.1l-6.2-.3v35.3l6.2-.2v3.8h-22.8v-3.8z"/><path class="st0" d="m307.5 161.3l4.9.2v-23.9l-4.9.3v-3.8h14.1l-.2 4.3c3.4-3.2 7.7-4.9 12.8-4.9c6.7 0 8.9 3.9 8.9 9.7v18.4l4.7-.2v3.6h-18.2v-3.6l4.4.2v-16.1c0-4.9-1.4-7.1-5.9-7.1c-4.7 0-6.7 3.2-6.7 7.2v16.1l4.3-.2v3.6h-18.2v-3.8z"/><path class="st0" d="m352.1 161.1l5.7.2v-35.3l-5.7.3v-4.1h25c12.9 0 21.1 4 21.1 21.3c0 17.3-8.2 21.4-21.1 21.4h-25v-3.8zm23 0c8.8 0 12.5-3.8 12.5-17.6c0-13.8-3.7-17.3-12.5-17.3h-7v34.9h7z"/><path class="st0" d="m420.2 165.5c-9.2 0-16.3-3.2-16.3-16.1c0-13.6 8.2-15.9 15.8-15.9c10.3 0 15.1 3.7 14.4 15.6h-20.8v.2c0 10.9 2.6 12.7 8.1 12.7c5.3-.1 7.3-3 7.3-8.5h6.5c-.1 7.3-5 11.9-15 12zm-6.8-19.6h11.1c.3-5.3-.2-8.9-5-8.9c-3.8 0-5.7 1.3-6.1 8.9z"/><path class="st0" d="m447 160.8l.4 4.1h-6.5v-10.5h6.7c.6 5.5 3.4 7.7 9.4 7.7c4.3 0 6.1-1.7 6.1-4.6c0-7.7-21.4-.4-21.4-14.4c0-5.9 4.1-9.7 11.2-9.7c4.3 0 7.4 1.3 9.2 4.1l-.4-3.5h6.5v9.7h-6.7c-.7-5.2-3.4-6.8-7.6-6.8c-3.1 0-5 1.4-5 4.1c0 7.5 21.3.4 21.3 14.5c0 6.1-4.7 10-12.3 10c-5.5 0-9-1.6-10.9-4.7z"/><path class="st0" d="m475.3 161.3l5.5.2v-23.9l-5.4.3v-3.8h14.4v27.4l5.5-.2v3.6h-20v-3.6zm4.5-36.6c0-3.2 1.6-4.8 5.3-4.8c3.6 0 5.1 1.6 5.1 4.8c0 3.2-1.5 4.7-5.1 4.7c-3.8 0-5.3-1.5-5.3-4.7z"/><path class="st0" d="m497.7 166.5h8.8c0 5.8 1.2 8 9.5 8c7.3 0 10.3-2.8 10.3-6.7c0-2.2-1.1-3.4-4.9-3.2l-11.1.5c-6 .3-10.1-1.7-10.1-6.8c0-3.6 2.1-6.3 6.7-7.3c-3.2-1.4-5.3-3.9-5.3-8.1c0-7 5.9-9.5 13.1-9.5c4 0 7.5.7 9.9 2.4l.4-1.8h8.3v3.8l-6.7-.1c.9 1.3 1.4 3 1.4 5c0 7-5.9 9.5-13.3 9.5h-3.3c-3.8 0-5.1.8-5.1 2.7c0 1.7 1.3 2.6 5.1 2.4l11.9-.6c7.3-.4 10.6 2.5 10.6 7.7c0 8.1-7.3 13.1-18.8 13.1c-12.5.3-17.4-2.9-17.4-11zm22-23.4c0-5-1.4-6.6-4.9-6.6c-3.7 0-5 1.5-5 6.6c0 5 1.4 6.8 5 6.8c3.4 0 4.9-1.7 4.9-6.8z"/><path class="st0" d="m537.4 161.3l4.9.2v-23.9l-4.9.3v-3.8h14.1l-.2 4.3c3.4-3.2 7.7-4.9 12.8-4.9c6.7 0 8.9 3.9 8.9 9.7v18.4l4.7-.2v3.6h-18.2v-3.6l4.4.2v-16.1c0-4.9-1.4-7.1-5.9-7.1c-4.7 0-6.7 3.2-6.7 7.2v16.1l4.3-.2v3.6h-18.2v-3.8z"/><path class="st0" d="m600.2 148.9v-23l-4.9.3v-4.1h22.1v4.1l-7-.3v21.8c0 11.2 4.6 13.6 11.1 13.6c6.5 0 11.2-2.2 11.2-12.5v-22.8l-7 .3v-4.1h16.3v4.1l-5-.3v22.9c0 11.7-7.1 16.6-18.1 16.6c-10.8 0-18.7-3.1-18.7-16.6z"/><path class="st0" d="m652.2 160.8l.4 4.1h-6.6v-10.5h6.7c.6 5.5 3.4 7.7 9.4 7.7c4.3 0 6.1-1.7 6.1-4.6c0-7.7-21.4-.4-21.4-14.4c0-5.9 4.1-9.7 11.2-9.7c4.3 0 7.4 1.3 9.2 4.1l-.4-3.5h6.5v9.7h-6.7c-.7-5.2-3.4-6.8-7.6-6.8c-3.1 0-5 1.4-5 4.1c0 7.5 21.3.4 21.3 14.5c0 6.1-4.7 10-12.3 10c-5.4 0-8.9-1.6-10.8-4.7z"/><path class="st0" d="m697 165.5c-9.2 0-16.3-3.2-16.3-16.1c0-13.6 8.2-15.9 15.8-15.9c10.3 0 15.1 3.7 14.4 15.6h-20.8v.2c0 10.9 2.6 12.7 8.1 12.7c5.3-.1 7.3-3 7.3-8.5h6.5c-.1 7.3-5.1 11.9-15 12zm-6.8-19.6h11.1c.3-5.3-.2-8.9-5-8.9c-3.8 0-5.7 1.3-6.1 8.9z"/><path class="st0" d="m716.7 161.3l4.9.2v-23.9l-4.9.3v-3.8h14.2l-.2 4.9c3.1-3.3 6.2-5.5 10.3-5.5c5.4 0 6.9 4 6.9 8.9v4.7h-7.9v-2.7c0-3.7-.4-6.2-3.5-6.2c-3.2 0-5.7 4.1-5.7 7.6v15.7l8.8-.2v3.6h-22.7v-3.6z"/><path class="st0" d="m796.9 161.1c-2.5 2.3-6.5 4.4-12.5 4.4c-11.8 0-18.6-6.1-18.6-22c0-17.2 8.2-22 18.7-22c4.7 0 8.9 1.7 11.5 4.5l-.2-3.9h8.7v15.5h-8.2c-.3-7.6-2.7-12.1-9.3-12.1c-6.7 0-10.6 3.9-10.6 18c0 14.1 4.1 17.9 10.7 17.9c7.2 0 9.6-3 9.6-11.7v-.9l-11.1.1v-4h24.3v4l-4.6-.1v16h-8.3l-.1-3.7z"/><path class="st0" d="m813.7 161.3l4.9.2v-23.9l-4.9.3v-3.8h14.2l-.2 4.9c3.1-3.3 6.2-5.5 10.3-5.5c5.4 0 6.9 4 6.9 8.9v4.7h-7.9v-2.7c0-3.7-.4-6.2-3.5-6.2c-3.2 0-5.7 4.1-5.7 7.6v15.7l8.8-.2v3.6h-22.7v-3.6z"/><path class="st0" d="m849.3 149.5c0-12.8 7.4-16 16.7-16c9.1 0 16.6 3.1 16.6 15.7c0 12.8-6.7 16.3-16.7 16.3s-16.6-3.4-16.6-16zm24-.1c0-10.3-2.3-12.5-7.3-12.5c-5 0-7.3 2.2-7.3 12.3c0 10.3 2.3 13 7.3 13s7.3-2.7 7.3-12.8z"/><path class="st0" d="m891.3 155.8v-18.1l-4.7.2v-3.8h13.7v19.4c0 4.9 1.3 7.1 5.8 7.1c4.6 0 6.6-3.1 6.6-7.1v-15.9l-6.9.2v-3.8h16v27.4l4.9-.2v3.6h-14l.2-4.3c-3.5 3.2-7.7 4.9-12.6 4.9c-6.9.1-9-3.8-9-9.6z"/><path class="st0" d="m929.4 173.2l4.8.2v-35.8l-4.8.3v-3.8h13.9l-.2 4.3c3.4-3.4 7.6-5 12.5-5c6.7.1 11.5 3.5 11.5 15.8c0 13.3-6.5 16.2-13 16.2c-4.6 0-8.6-1.2-11-3.9v11.8l7.9-.2v3.8h-21.7v-3.7zm28.3-23.4c0-9.5-2.2-11.9-7.1-11.9c-5 0-7.4 2.5-7.4 11.9c0 9.4 2.3 11.9 7.4 11.9c4.9 0 7.1-2.4 7.1-11.9z"/></g><g id="InDesign_1_"><g><rect x="10" y="10" class="st1" width="220" height="214"/></g><g><path class="st2" d="m0 0v234h240v-234h-240zm10 10h220v214h-220v-214z"/></g><path class="st2" d="m87 162.7c0 1-.2 1.3-1.3 1.3h-15.4c-1 0-1.3-.5-1.3-1.3v-107.4c0-1 .5-1.3 1.3-1.3h15.5c.6 0 1.2.5 1.2 1.2v107.5zm18.3-38.7c0-23.9 15.6-42.6 40.5-42.6c2.1 0 3.3 0 5.2.2v-26.6c0-.7.5-1 1-1h16c.8 0 1 .3 1 .8v93.5c0 2.8 0 6.3.5 10.1c0 .7-.2.8-.9 1.2c-8.5 4.1-17.4 5.9-25.9 5.9c-21.8 0-37.4-13.7-37.4-41.5zm45.7-26.5c-1.5-.7-3.5-1-5.9-1c-12.9 0-21.9 9.9-21.9 26.4c0 18.8 9.2 26.4 20.7 26.4c2.5 0 5.1-.3 7.1-1.2v-50.6z"/></g></svg>